<?xml version='1.0' encoding='utf-8'?>
<svg height="80.90mm" viewBox="0.0 0.0 121.90 80.90" width="121.90mm" xmlns="http://www.w3.org/2000/svg" xmlns:cc="http://creativecommons.org/ns#" xmlns:dc="http://purl.org/dc/elements/1.1/" xmlns:inkscape="http://www.inkscape.org/namespaces/inkscape" xmlns:rdf="http://www.w3.org/1999/02/22-rdf-syntax-ns#" xmlns:svg="http://www.w3.org/2000/svg" xmlns:xlink="http://www.w3.org/1999/xlink">
<!--
GameCounterCoins - Coin-stack game point counter – top disc notch reads score off bottom coin



A two-piece stacked coin counter for board games.

The **bottom coin** (Piece A) has the score scale engraved around its rim.
The **top disc** (Piece B) has a notch on its edge: rotate it to align the
notch with the current score on Piece A below it.
Both pieces are held together by a central magnet so they spin freely.

Assembly: insert magnet into both pieces → stack face-to-face → enjoy!




Created with Boxes.py (https://boxes.hackerspace-bamberg.de/)
Command line (remove spaces between dashes): boxes GameCounterCoins
-->
<title>GameCounterCoins</title>
<metadata>
<rdf:RDF><cc:Work>
<dc:title>Game - GameCounterCoins</dc:title>
<dc:source>boxes GameCounterCoins</dc:source>
<dc:description>Coin-stack game point counter – top disc notch reads score off bottom coin


A two-piece stacked coin counter for board games.

The **bottom coin** (Piece A) has the score scale engraved around its rim.
The **top disc** (Piece B) has a notch on its edge: rotate it to align the
notch with the current score on Piece A below it.
Both pieces are held together by a central magnet so they spin freely.

Assembly: insert magnet into both pieces → stack face-to-face → enjoy!



Created with Boxes.py (https://boxes.hackerspace-bamberg.de/)
Command line: boxes GameCounterCoins
Command line short: boxes GameCounterCoins
</dc:description>
</cc:Work></rdf:RDF></metadata>
<g id="p-0" style="fill:none;stroke-linecap:round;stroke-linejoin:round;">
  <path d="M 10.100 70.900 H 110.100 V 60.900 H 10.100 V 70.900 Z" stroke="rgb(0,0,0)" stroke-width="0.20" />
  <text font-size="6px" style="font-family: sans-serif ; font-weight: normal; font-style: normal; fill: rgb(255,0,0)" text-anchor="middle" transform="matrix( 1.000 0.000 0.000 1.000 60.100 68.060 )">100.0mm, burn:0.10mm</text>
</g>
<g id="p-1" style="fill:none;stroke-linecap:round;stroke-linejoin:round;">
  <path d="M 60.200 34.200 C 60.200 28.899 58.522 23.735 55.406 19.447 C 52.291 15.158 47.897 11.966 42.856 10.328 C 37.815 8.691 32.385 8.691 27.344 10.328 C 22.303 11.966 17.909 15.158 14.794 19.447 C 11.678 23.735 10.000 28.899 10.000 34.200 C 10.000 39.501 11.678 44.665 14.794 48.953 C 17.909 53.242 22.303 56.434 27.344 58.072 C 32.385 59.709 37.815 59.709 42.856 58.072 C 47.897 56.434 52.291 53.242 55.406 48.953 C 58.522 44.665 60.200 39.501 60.200 34.200 Z" stroke="rgb(0,0,0)" stroke-width="0.20" />
  <path d="M 37.000 34.200 C 37.000 34.564 36.895 34.921 36.698 35.227 C 36.501 35.534 36.221 35.777 35.889 35.928 C 35.558 36.080 35.190 36.132 34.830 36.081 C 34.469 36.029 34.131 35.874 33.856 35.636 C 33.580 35.397 33.380 35.085 33.277 34.735 C 33.174 34.386 33.174 34.014 33.277 33.665 C 33.380 33.315 33.580 33.003 33.856 32.764 C 34.131 32.526 34.469 32.371 34.830 32.319 C 35.190 32.268 35.558 32.320 35.889 32.472 C 36.221 32.623 36.501 32.866 36.698 33.173 C 36.895 33.479 37.000 33.836 37.000 34.200 Z" stroke="rgb(0,0,255)" stroke-width="0.20" />
  <text font-size="8.0px" style="font-family: sans-serif ; font-weight: normal; font-style: normal; fill: rgb(0,255,0)" text-anchor="middle" transform="matrix( 1.000 0.000 0.000 1.000 35.100 16.880 )">0</text>
  <text font-size="8.0px" style="font-family: sans-serif ; font-weight: normal; font-style: normal; fill: rgb(0,255,0)" text-anchor="middle" transform="matrix( 0.809 0.588 -0.588 0.809 45.280 20.188 )">1</text>
  <text font-size="8.0px" style="font-family: sans-serif ; font-weight: normal; font-style: normal; fill: rgb(0,255,0)" text-anchor="middle" transform="matrix( 0.309 0.951 -0.951 0.309 51.572 28.848 )">2</text>
  <text font-size="8.0px" style="font-family: sans-serif ; font-weight: normal; font-style: normal; fill: rgb(0,255,0)" text-anchor="middle" transform="matrix( -0.309 0.951 -0.951 -0.309 51.572 39.552 )">3</text>
  <text font-size="8.0px" style="font-family: sans-serif ; font-weight: normal; font-style: normal; fill: rgb(0,255,0)" text-anchor="middle" transform="matrix( -0.809 0.588 -0.588 -0.809 45.280 48.212 )">4</text>
  <text font-size="8.0px" style="font-family: sans-serif ; font-weight: normal; font-style: normal; fill: rgb(0,255,0)" text-anchor="middle" transform="matrix( -1.000 0.000 -0.000 -1.000 35.100 51.520 )">5</text>
  <text font-size="8.0px" style="font-family: sans-serif ; font-weight: normal; font-style: normal; fill: rgb(0,255,0)" text-anchor="middle" transform="matrix( -0.809 -0.588 0.588 -0.809 24.920 48.212 )">6</text>
  <text font-size="8.0px" style="font-family: sans-serif ; font-weight: normal; font-style: normal; fill: rgb(0,255,0)" text-anchor="middle" transform="matrix( -0.309 -0.951 0.951 -0.309 18.628 39.552 )">7</text>
  <text font-size="8.0px" style="font-family: sans-serif ; font-weight: normal; font-style: normal; fill: rgb(0,255,0)" text-anchor="middle" transform="matrix( 0.309 -0.951 0.951 0.309 18.628 28.848 )">8</text>
  <text font-size="8.0px" style="font-family: sans-serif ; font-weight: normal; font-style: normal; fill: rgb(0,255,0)" text-anchor="middle" transform="matrix( 0.809 -0.588 0.588 0.809 24.920 20.188 )">9</text>
</g>
<g id="p-2" style="fill:none;stroke-linecap:round;stroke-linejoin:round;">
  <path d="M 94.300 10.247 C 99.378 11.837 103.819 14.999 106.983 19.278 C 110.146 23.556 111.868 28.730 111.900 34.051 C 111.931 39.371 110.271 44.565 107.159 48.881 C 104.047 53.197 99.643 56.412 94.585 58.062 C 89.526 59.713 84.074 59.713 79.015 58.062 C 73.957 56.412 69.553 53.197 66.441 48.881 C 63.329 44.565 61.669 39.371 61.700 34.051 C 61.732 28.730 63.454 23.556 66.617 19.278 C 69.781 14.999 74.222 11.837 79.300 10.247 C 83.442 10.247 82.658 16.600 86.800 16.600 C 90.942 16.600 90.158 10.247 94.300 10.247 Z" stroke="rgb(0,0,0)" stroke-width="0.20" />
  <path d="M 88.700 34.200 C 88.700 34.564 88.595 34.921 88.398 35.227 C 88.201 35.534 87.921 35.777 87.589 35.928 C 87.258 36.080 86.890 36.132 86.530 36.081 C 86.169 36.029 85.831 35.874 85.556 35.636 C 85.280 35.397 85.080 35.085 84.977 34.735 C 84.874 34.386 84.874 34.014 84.977 33.665 C 85.080 33.315 85.280 33.003 85.556 32.764 C 85.831 32.526 86.169 32.371 86.530 32.319 C 86.890 32.268 87.258 32.320 87.589 32.472 C 87.921 32.623 88.201 32.866 88.398 33.173 C 88.595 33.479 88.700 33.836 88.700 34.200 Z" stroke="rgb(0,0,255)" stroke-width="0.20" />
</g>
</svg>