<?xml version='1.0' encoding='utf-8'?>
<svg height="80.57mm" viewBox="0.0 0.0 121.90 80.57" width="121.90mm" xmlns="http://www.w3.org/2000/svg" xmlns:cc="http://creativecommons.org/ns#" xmlns:dc="http://purl.org/dc/elements/1.1/" xmlns:inkscape="http://www.inkscape.org/namespaces/inkscape" xmlns:rdf="http://www.w3.org/1999/02/22-rdf-syntax-ns#" xmlns:svg="http://www.w3.org/2000/svg" xmlns:xlink="http://www.w3.org/1999/xlink">
<!--
GameCounterRing - Ring-dial game point counter – three concentric pieces cut together



A three-piece circular point counter for board games.

All three pieces are laid out **concentrically** in the SVG so they can be
cut in a single laser pass with minimal material waste.

* **Piece A – Outer ring**: the moving frame. Score numbers are engraved
  around the *inner* face. The player spins this disc to select the score.
* **Piece B – Inner disc**: the fixed center. A pointer is engraved near
  the top edge to indicate the current score on the ring.
* **Piece C – Base disc**: a plain disc the same size as the outer ring.
  Piece B is glued to Piece C before assembly. A central magnet pocket can
  be cut in both Piece B and Piece C to hold a round magnet or wod stick for alignment.

**Assembly**
1. Glue Piece B (pointer disc) on top of Piece C (base disc). If
   ``magnet_diameter`` > 0, press a round magnet into the central pocket of
   each piece before gluing.
2. Drop Piece A (ring) on top of the glued B+C stack.
3. The ring spins freely.
4. Spin Piece A to count up / down; Piece B stays fixed.

**Pointer styles**

* ``triangle`` – outlined equilateral-ish triangle pointing toward the ring.
* ``circle``   – small engraved circle at the top of the disc.
* ``rectangle`` – outlined rectangle near the top of the disc.
* ``line``     – single radial line from the disc center to near the edge.



Created with Boxes.py (https://boxes.hackerspace-bamberg.de/)
Command line (remove spaces between dashes): boxes GameCounterRing
-->
<title>GameCounterRing</title>
<metadata>
<rdf:RDF><cc:Work>
<dc:title>Game - GameCounterRing</dc:title>
<dc:source>boxes GameCounterRing</dc:source>
<dc:description>Ring-dial game point counter – three concentric pieces cut together


A three-piece circular point counter for board games.

All three pieces are laid out **concentrically** in the SVG so they can be
cut in a single laser pass with minimal material waste.

* **Piece A – Outer ring**: the moving frame. Score numbers are engraved
  around the *inner* face. The player spins this disc to select the score.
* **Piece B – Inner disc**: the fixed center. A pointer is engraved near
  the top edge to indicate the current score on the ring.
* **Piece C – Base disc**: a plain disc the same size as the outer ring.
  Piece B is glued to Piece C before assembly. A central magnet pocket can
  be cut in both Piece B and Piece C to hold a round magnet or wod stick for alignment.

**Assembly**
1. Glue Piece B (pointer disc) on top of Piece C (base disc). If
   ``magnet_diameter`` &gt; 0, press a round magnet into the central pocket of
   each piece before gluing.
2. Drop Piece A (ring) on top of the glued B+C stack.
3. The ring spins freely.
4. Spin Piece A to count up / down; Piece B stays fixed.

**Pointer styles**

* ``triangle`` – outlined equilateral-ish triangle pointing toward the ring.
* ``circle``   – small engraved circle at the top of the disc.
* ``rectangle`` – outlined rectangle near the top of the disc.
* ``line``     – single radial line from the disc center to near the edge.


Created with Boxes.py (https://boxes.hackerspace-bamberg.de/)
Command line: boxes GameCounterRing
Command line short: boxes GameCounterRing
</dc:description>
</cc:Work></rdf:RDF></metadata>
<g id="p-0" style="fill:none;stroke-linecap:round;stroke-linejoin:round;">
  <path d="M 10.100 70.572 H 110.100 V 60.572 H 10.100 V 70.572 Z" stroke="rgb(0,0,0)" stroke-width="0.20" />
  <text font-size="6px" style="font-family: sans-serif ; font-weight: normal; font-style: normal; fill: rgb(255,0,0)" text-anchor="middle" transform="matrix( 1.000 0.000 0.000 1.000 60.100 67.732 )">100.0mm, burn:0.10mm</text>
</g>
<g id="p-1" style="fill:none;stroke-linecap:round;stroke-linejoin:round;">
  <path d="M 60.200 33.872 C 60.200 28.571 58.522 23.406 55.406 19.118 C 52.291 14.830 47.897 11.638 42.856 10.000 C 37.815 8.362 32.385 8.362 27.344 10.000 C 22.303 11.638 17.909 14.830 14.794 19.118 C 11.678 23.406 10.000 28.571 10.000 33.872 C 10.000 39.172 11.678 44.337 14.794 48.625 C 17.909 52.913 22.303 56.105 27.344 57.743 C 32.385 59.381 37.815 59.381 42.856 57.743 C 47.897 56.105 52.291 52.913 55.406 48.625 C 58.522 44.337 60.200 39.172 60.200 33.872 Z" stroke="rgb(0,0,0)" stroke-width="0.20" />
  <path d="M 52.700 33.872 C 52.700 37.246 51.730 40.548 49.906 43.387 C 48.082 46.225 45.480 48.479 42.411 49.881 C 39.342 51.283 35.935 51.773 32.595 51.292 C 29.256 50.812 26.124 49.382 23.574 47.173 C 21.025 44.963 19.163 42.067 18.213 38.830 C 17.262 35.593 17.262 32.150 18.213 28.913 C 19.163 25.676 21.025 22.780 23.574 20.570 C 26.124 18.361 29.256 16.931 32.595 16.451 C 35.935 15.970 39.342 16.460 42.411 17.862 C 45.480 19.264 48.082 21.518 49.906 24.356 C 51.730 27.195 52.700 30.498 52.700 33.872 Z" stroke="rgb(0,0,255)" stroke-width="0.20" />
  <text font-size="5.0px" style="font-family: sans-serif ; font-weight: normal; font-style: normal; fill: rgb(0,255,0)" text-anchor="middle" transform="matrix( 0.000 -1.000 1.000 0.000 17.050 33.872 )">0</text>
  <text font-size="5.0px" style="font-family: sans-serif ; font-weight: normal; font-style: normal; fill: rgb(0,255,0)" text-anchor="middle" transform="matrix( -0.383 -0.924 0.924 -0.383 18.424 40.779 )">1</text>
  <text font-size="5.0px" style="font-family: sans-serif ; font-weight: normal; font-style: normal; fill: rgb(0,255,0)" text-anchor="middle" transform="matrix( -0.707 -0.707 0.707 -0.707 22.337 46.635 )">2</text>
  <text font-size="5.0px" style="font-family: sans-serif ; font-weight: normal; font-style: normal; fill: rgb(0,255,0)" text-anchor="middle" transform="matrix( -0.924 -0.383 0.383 -0.924 28.193 50.548 )">3</text>
  <text font-size="5.0px" style="font-family: sans-serif ; font-weight: normal; font-style: normal; fill: rgb(0,255,0)" text-anchor="middle" transform="matrix( -1.000 0.000 -0.000 -1.000 35.100 51.922 )">4</text>
  <text font-size="5.0px" style="font-family: sans-serif ; font-weight: normal; font-style: normal; fill: rgb(0,255,0)" text-anchor="middle" transform="matrix( -0.924 0.383 -0.383 -0.924 42.007 50.548 )">5</text>
  <text font-size="5.0px" style="font-family: sans-serif ; font-weight: normal; font-style: normal; fill: rgb(0,255,0)" text-anchor="middle" transform="matrix( -0.707 0.707 -0.707 -0.707 47.863 46.635 )">6</text>
  <text font-size="5.0px" style="font-family: sans-serif ; font-weight: normal; font-style: normal; fill: rgb(0,255,0)" text-anchor="middle" transform="matrix( -0.383 0.924 -0.924 -0.383 51.776 40.779 )">7</text>
  <text font-size="5.0px" style="font-family: sans-serif ; font-weight: normal; font-style: normal; fill: rgb(0,255,0)" text-anchor="middle" transform="matrix( 0.000 1.000 -1.000 0.000 53.150 33.872 )">8</text>
  <text font-size="5.0px" style="font-family: sans-serif ; font-weight: normal; font-style: normal; fill: rgb(0,255,0)" text-anchor="middle" transform="matrix( 0.383 0.924 -0.924 0.383 51.776 26.964 )">9</text>
  <text font-size="5.0px" style="font-family: sans-serif ; font-weight: normal; font-style: normal; fill: rgb(0,255,0)" text-anchor="middle" transform="matrix( 0.707 0.707 -0.707 0.707 47.863 21.108 )">10</text>
  <text font-size="5.0px" style="font-family: sans-serif ; font-weight: normal; font-style: normal; fill: rgb(0,255,0)" text-anchor="middle" transform="matrix( 0.924 0.383 -0.383 0.924 42.007 17.195 )">11</text>
  <text font-size="5.0px" style="font-family: sans-serif ; font-weight: normal; font-style: normal; fill: rgb(0,255,0)" text-anchor="middle" transform="matrix( 1.000 0.000 0.000 1.000 35.100 15.822 )">12</text>
  <text font-size="5.0px" style="font-family: sans-serif ; font-weight: normal; font-style: normal; fill: rgb(0,255,0)" text-anchor="middle" transform="matrix( 0.924 -0.383 0.383 0.924 28.193 17.195 )">13</text>
  <text font-size="5.0px" style="font-family: sans-serif ; font-weight: normal; font-style: normal; fill: rgb(0,255,0)" text-anchor="middle" transform="matrix( 0.707 -0.707 0.707 0.707 22.337 21.108 )">14</text>
  <text font-size="5.0px" style="font-family: sans-serif ; font-weight: normal; font-style: normal; fill: rgb(0,255,0)" text-anchor="middle" transform="matrix( 0.383 -0.924 0.924 0.383 18.424 26.964 )">15</text>
  <path d="M 52.800 33.872 C 52.800 30.134 51.617 26.492 49.420 23.468 C 47.223 20.444 44.125 18.193 40.570 17.038 C 37.015 15.883 33.185 15.883 29.630 17.038 C 26.075 18.193 22.977 20.444 20.780 23.468 C 18.583 26.492 17.400 30.134 17.400 33.872 C 17.400 37.609 18.583 41.251 20.780 44.275 C 22.977 47.299 26.075 49.550 29.630 50.705 C 33.185 51.860 37.015 51.860 40.570 50.705 C 44.125 49.550 47.223 47.299 49.420 44.275 C 51.617 41.251 52.800 37.609 52.800 33.872 Z" stroke="rgb(0,0,0)" stroke-width="0.20" />
  <path d="M 36.500 33.872 C 36.500 34.140 36.423 34.403 36.278 34.628 C 36.133 34.854 35.926 35.034 35.682 35.145 C 35.437 35.256 35.166 35.295 34.901 35.257 C 34.635 35.219 34.386 35.105 34.183 34.930 C 33.980 34.754 33.832 34.523 33.757 34.266 C 33.681 34.008 33.681 33.735 33.757 33.477 C 33.832 33.220 33.980 32.989 34.183 32.813 C 34.386 32.638 34.635 32.524 34.901 32.486 C 35.166 32.448 35.437 32.487 35.682 32.598 C 35.926 32.710 36.133 32.889 36.278 33.115 C 36.423 33.340 36.500 33.603 36.500 33.872 Z" stroke="rgb(0,0,255)" stroke-width="0.20" />
  <path d="M 35.100 18.072 L 38.100 24.072 H 32.100 L 35.100 18.072 Z" stroke="rgb(0,255,0)" stroke-width="0.20" />
  <path d="M 111.900 33.872 C 111.900 28.571 110.222 23.406 107.106 19.118 C 103.991 14.830 99.597 11.638 94.556 10.000 C 89.515 8.362 84.085 8.362 79.044 10.000 C 74.003 11.638 69.609 14.830 66.494 19.118 C 63.378 23.406 61.700 28.571 61.700 33.872 C 61.700 39.172 63.378 44.337 66.494 48.625 C 69.609 52.913 74.003 56.105 79.044 57.743 C 84.085 59.381 89.515 59.381 94.556 57.743 C 99.597 56.105 103.991 52.913 107.106 48.625 C 110.222 44.337 111.900 39.172 111.900 33.872 Z" stroke="rgb(0,0,0)" stroke-width="0.20" />
  <path d="M 88.200 33.872 C 88.200 34.140 88.123 34.403 87.978 34.628 C 87.833 34.854 87.626 35.034 87.382 35.145 C 87.137 35.256 86.866 35.295 86.601 35.257 C 86.335 35.219 86.086 35.105 85.883 34.930 C 85.680 34.754 85.532 34.523 85.457 34.266 C 85.381 34.008 85.381 33.735 85.457 33.477 C 85.532 33.220 85.680 32.989 85.883 32.813 C 86.086 32.638 86.335 32.524 86.601 32.486 C 86.866 32.448 87.137 32.487 87.382 32.598 C 87.626 32.710 87.833 32.889 87.978 33.115 C 88.123 33.340 88.200 33.603 88.200 33.872 Z" stroke="rgb(0,0,255)" stroke-width="0.20" />
</g>
</svg>