<?xml version='1.0' encoding='utf-8'?>
<svg height="141.30mm" viewBox="0.0 0.0 199.90 141.30" width="199.90mm" xmlns="http://www.w3.org/2000/svg" xmlns:cc="http://creativecommons.org/ns#" xmlns:dc="http://purl.org/dc/elements/1.1/" xmlns:inkscape="http://www.inkscape.org/namespaces/inkscape" xmlns:rdf="http://www.w3.org/1999/02/22-rdf-syntax-ns#" xmlns:svg="http://www.w3.org/2000/svg" xmlns:xlink="http://www.w3.org/1999/xlink">
<!--
SlantedTray - One row tray with high back wall and low front wall


Can be used as a display or for cards or gaming tokens. Lay on the side to get piles to draw from.
    ![Example Use](static/samples/SlantedTray-2.jpg)


Created with Boxes.py (https://boxes.hackerspace-bamberg.de/)
Command line (remove spaces between dashes): boxes SlantedTray
-->
<title>SlantedTray</title>
<metadata>
<rdf:RDF><cc:Work>
<dc:title>Tray - SlantedTray</dc:title>
<dc:source>boxes SlantedTray</dc:source>
<dc:description>One row tray with high back wall and low front wall

Can be used as a display or for cards or gaming tokens. Lay on the side to get piles to draw from.
    ![Example Use](static/samples/SlantedTray-2.jpg)

Created with Boxes.py (https://boxes.hackerspace-bamberg.de/)
Command line: boxes SlantedTray
Command line short: boxes SlantedTray
</dc:description>
</cc:Work></rdf:RDF></metadata>
<g id="p-0" style="fill:none;stroke-linecap:round;stroke-linejoin:round;">
  <path d="M 10.100 129.300 H 110.100 V 119.300 H 10.100 V 129.300 Z" stroke="rgb(0,0,0)" stroke-width="0.20" />
  <text font-size="6px" style="font-family: sans-serif ; font-weight: normal; font-style: normal; fill: rgb(255,0,0)" text-anchor="middle" transform="matrix( 1.000 0.000 0.000 1.000 60.100 126.460 )">100.0mm, burn:0.10mm</text>
</g>
<g id="p-1" style="fill:none;stroke-linecap:round;stroke-linejoin:round;">
  <path d="M 56.000 103.500 V 106.400 C 56.000 106.500 56.100 106.400 56.000 106.400 H 53.200 C 53.100 106.400 53.200 106.500 53.200 106.400 V 100.600 C 53.200 100.500 53.100 100.600 53.200 100.600 H 56.000 C 56.100 100.600 56.000 100.500 56.000 100.600 V 103.500 Z" stroke="rgb(0,0,255)" stroke-width="0.20" />
  <path d="M 56.000 91.500 V 94.400 C 56.000 94.500 56.100 94.400 56.000 94.400 H 53.200 C 53.100 94.400 53.200 94.500 53.200 94.400 V 88.600 C 53.200 88.500 53.100 88.600 53.200 88.600 H 56.000 C 56.100 88.600 56.000 88.500 56.000 88.600 V 91.500 Z" stroke="rgb(0,0,255)" stroke-width="0.20" />
  <path d="M 99.000 103.500 V 106.400 C 99.000 106.500 99.100 106.400 99.000 106.400 H 96.200 C 96.100 106.400 96.200 106.500 96.200 106.400 V 100.600 C 96.200 100.500 96.100 100.600 96.200 100.600 H 99.000 C 99.100 100.600 99.000 100.500 99.000 100.600 V 103.500 Z" stroke="rgb(0,0,255)" stroke-width="0.20" />
  <path d="M 99.000 91.500 V 94.400 C 99.000 94.500 99.100 94.400 99.000 94.400 H 96.200 C 96.100 94.400 96.200 94.500 96.200 94.400 V 88.600 C 96.200 88.500 96.100 88.600 96.200 88.600 H 99.000 C 99.100 88.600 99.000 88.500 99.000 88.600 V 91.500 Z" stroke="rgb(0,0,255)" stroke-width="0.20" />
  <path d="M 13.100 117.600 H 139.100 H 142.100 C 142.155 117.600 142.200 117.555 142.200 117.500 V 106.500 C 142.200 106.445 142.155 106.400 142.100 106.400 H 139.200 C 139.100 106.400 139.200 106.500 139.200 106.400 V 100.600 C 139.200 100.500 139.100 100.600 139.200 100.600 H 142.100 C 142.155 100.600 142.200 100.555 142.200 100.500 V 94.500 C 142.200 94.445 142.155 94.400 142.100 94.400 H 139.200 C 139.100 94.400 139.200 94.500 139.200 94.400 V 88.600 C 139.200 88.500 139.100 88.600 139.200 88.600 H 142.100 C 142.155 88.600 142.200 88.555 142.200 88.500 V 77.500 C 142.200 77.445 142.155 77.400 142.100 77.400 H 139.100 H 133.200 C 133.100 77.400 133.200 77.500 133.200 77.400 V 74.500 C 133.200 74.445 133.155 74.400 133.100 74.400 H 127.100 C 127.045 74.400 127.000 74.445 127.000 74.500 V 77.400 C 127.000 77.500 127.100 77.400 127.000 77.400 H 121.200 C 121.100 77.400 121.200 77.500 121.200 77.400 V 74.500 C 121.200 74.445 121.155 74.400 121.100 74.400 H 115.100 C 115.045 74.400 115.000 74.445 115.000 74.500 V 77.400 C 115.000 77.500 115.100 77.400 115.000 77.400 H 109.200 C 109.100 77.400 109.200 77.500 109.200 77.400 V 74.500 C 109.200 74.445 109.155 74.400 109.100 74.400 H 103.100 C 103.045 74.400 103.000 74.445 103.000 74.500 V 77.400 C 103.000 77.500 103.100 77.400 103.000 77.400 H 97.200 C 97.100 77.400 97.200 77.500 97.200 77.400 V 74.500 C 97.200 74.445 97.155 74.400 97.100 74.400 H 91.100 C 91.045 74.400 91.000 74.445 91.000 74.500 V 77.400 C 91.000 77.500 91.100 77.400 91.000 77.400 H 85.200 C 85.100 77.400 85.200 77.500 85.200 77.400 V 74.500 C 85.200 74.445 85.155 74.400 85.100 74.400 H 79.100 C 79.045 74.400 79.000 74.445 79.000 74.500 V 77.400 C 79.000 77.500 79.100 77.400 79.000 77.400 H 73.200 C 73.100 77.400 73.200 77.500 73.200 77.400 V 74.500 C 73.200 74.445 73.155 74.400 73.100 74.400 H 67.100 C 67.045 74.400 67.000 74.445 67.000 74.500 V 77.400 C 67.000 77.500 67.100 77.400 67.000 77.400 H 61.200 C 61.100 77.400 61.200 77.500 61.200 77.400 V 74.500 C 61.200 74.445 61.155 74.400 61.100 74.400 H 55.100 C 55.045 74.400 55.000 74.445 55.000 74.500 V 77.400 C 55.000 77.500 55.100 77.400 55.000 77.400 H 49.200 C 49.100 77.400 49.200 77.500 49.200 77.400 V 74.500 C 49.200 74.445 49.155 74.400 49.100 74.400 H 43.100 C 43.045 74.400 43.000 74.445 43.000 74.500 V 77.400 C 43.000 77.500 43.100 77.400 43.000 77.400 H 37.200 C 37.100 77.400 37.200 77.500 37.200 77.400 V 74.500 C 37.200 74.445 37.155 74.400 37.100 74.400 H 31.100 C 31.045 74.400 31.000 74.445 31.000 74.500 V 77.400 C 31.000 77.500 31.100 77.400 31.000 77.400 H 25.200 C 25.100 77.400 25.200 77.500 25.200 77.400 V 74.500 C 25.200 74.445 25.155 74.400 25.100 74.400 H 19.100 C 19.045 74.400 19.000 74.445 19.000 74.500 V 77.400 C 19.000 77.500 19.100 77.400 19.000 77.400 H 13.100 H 10.100 C 10.045 77.400 10.000 77.445 10.000 77.500 V 88.500 C 10.000 88.555 10.045 88.600 10.100 88.600 H 13.000 C 13.100 88.600 13.000 88.500 13.000 88.600 V 94.400 C 13.000 94.500 13.100 94.400 13.000 94.400 H 10.100 C 10.045 94.400 10.000 94.445 10.000 94.500 V 100.500 C 10.000 100.555 10.045 100.600 10.100 100.600 H 13.000 C 13.100 100.600 13.000 100.500 13.000 100.600 V 106.400 C 13.000 106.500 13.100 106.400 13.000 106.400 H 10.100 C 10.045 106.400 10.000 106.445 10.000 106.500 V 117.500 C 10.000 117.555 10.045 117.600 10.100 117.600 H 13.100 Z" stroke="rgb(0,0,0)" stroke-width="0.20" />
  <text font-size="4px" style="font-family: sans-serif ; font-weight: normal; font-style: normal; fill: rgb(255,0,0)" text-anchor="middle" transform="matrix( 1.000 0.000 0.000 1.000 76.100 97.540 )">back</text>
</g>
<g id="p-2" style="fill:none;stroke-linecap:round;stroke-linejoin:round;">
  <path d="M 56.000 55.800 V 58.700 C 56.000 58.800 56.100 58.700 56.000 58.700 H 53.200 C 53.100 58.700 53.200 58.800 53.200 58.700 V 52.900 C 53.200 52.800 53.100 52.900 53.200 52.900 H 56.000 C 56.100 52.900 56.000 52.800 56.000 52.900 V 55.800 Z" stroke="rgb(0,0,255)" stroke-width="0.20" />
  <path d="M 56.000 43.800 V 46.700 C 56.000 46.800 56.100 46.700 56.000 46.700 H 53.200 C 53.100 46.700 53.200 46.800 53.200 46.700 V 40.900 C 53.200 40.800 53.100 40.900 53.200 40.900 H 56.000 C 56.100 40.900 56.000 40.800 56.000 40.900 V 43.800 Z" stroke="rgb(0,0,255)" stroke-width="0.20" />
  <path d="M 99.000 55.800 V 58.700 C 99.000 58.800 99.100 58.700 99.000 58.700 H 96.200 C 96.100 58.700 96.200 58.800 96.200 58.700 V 52.900 C 96.200 52.800 96.100 52.900 96.200 52.900 H 99.000 C 99.100 52.900 99.000 52.800 99.000 52.900 V 55.800 Z" stroke="rgb(0,0,255)" stroke-width="0.20" />
  <path d="M 99.000 43.800 V 46.700 C 99.000 46.800 99.100 46.700 99.000 46.700 H 96.200 C 96.100 46.700 96.200 46.800 96.200 46.700 V 40.900 C 96.200 40.800 96.100 40.900 96.200 40.900 H 99.000 C 99.100 40.900 99.000 40.800 99.000 40.900 V 43.800 Z" stroke="rgb(0,0,255)" stroke-width="0.20" />
  <path d="M 13.100 72.900 H 19.100 C 19.155 72.900 19.200 72.855 19.200 72.800 V 69.900 C 19.200 69.800 19.100 69.900 19.200 69.900 H 25.000 C 25.100 69.900 25.000 69.800 25.000 69.900 V 72.800 C 25.000 72.855 25.045 72.900 25.100 72.900 H 31.100 C 31.155 72.900 31.200 72.855 31.200 72.800 V 69.900 C 31.200 69.800 31.100 69.900 31.200 69.900 H 37.000 C 37.100 69.900 37.000 69.800 37.000 69.900 V 72.800 C 37.000 72.855 37.045 72.900 37.100 72.900 H 43.100 C 43.155 72.900 43.200 72.855 43.200 72.800 V 69.900 C 43.200 69.800 43.100 69.900 43.200 69.900 H 49.000 C 49.100 69.900 49.000 69.800 49.000 69.900 V 72.800 C 49.000 72.855 49.045 72.900 49.100 72.900 H 55.100 C 55.155 72.900 55.200 72.855 55.200 72.800 V 69.900 C 55.200 69.800 55.100 69.900 55.200 69.900 H 61.000 C 61.100 69.900 61.000 69.800 61.000 69.900 V 72.800 C 61.000 72.855 61.045 72.900 61.100 72.900 H 67.100 C 67.155 72.900 67.200 72.855 67.200 72.800 V 69.900 C 67.200 69.800 67.100 69.900 67.200 69.900 H 73.000 C 73.100 69.900 73.000 69.800 73.000 69.900 V 72.800 C 73.000 72.855 73.045 72.900 73.100 72.900 H 79.100 C 79.155 72.900 79.200 72.855 79.200 72.800 V 69.900 C 79.200 69.800 79.100 69.900 79.200 69.900 H 85.000 C 85.100 69.900 85.000 69.800 85.000 69.900 V 72.800 C 85.000 72.855 85.045 72.900 85.100 72.900 H 91.100 C 91.155 72.900 91.200 72.855 91.200 72.800 V 69.900 C 91.200 69.800 91.100 69.900 91.200 69.900 H 97.000 C 97.100 69.900 97.000 69.800 97.000 69.900 V 72.800 C 97.000 72.855 97.045 72.900 97.100 72.900 H 103.100 C 103.155 72.900 103.200 72.855 103.200 72.800 V 69.900 C 103.200 69.800 103.100 69.900 103.200 69.900 H 109.000 C 109.100 69.900 109.000 69.800 109.000 69.900 V 72.800 C 109.000 72.855 109.045 72.900 109.100 72.900 H 115.100 C 115.155 72.900 115.200 72.855 115.200 72.800 V 69.900 C 115.200 69.800 115.100 69.900 115.200 69.900 H 121.000 C 121.100 69.900 121.000 69.800 121.000 69.900 V 72.800 C 121.000 72.855 121.045 72.900 121.100 72.900 H 127.100 C 127.155 72.900 127.200 72.855 127.200 72.800 V 69.900 C 127.200 69.800 127.100 69.900 127.200 69.900 H 133.000 C 133.100 69.900 133.000 69.800 133.000 69.900 V 72.800 C 133.000 72.855 133.045 72.900 133.100 72.900 H 139.100 H 142.100 C 142.155 72.900 142.200 72.855 142.200 72.800 V 69.800 V 58.800 C 142.200 58.745 142.155 58.700 142.100 58.700 H 139.200 C 139.100 58.700 139.200 58.800 139.200 58.700 V 52.900 C 139.200 52.800 139.100 52.900 139.200 52.900 H 142.100 C 142.155 52.900 142.200 52.855 142.200 52.800 V 46.800 C 142.200 46.745 142.155 46.700 142.100 46.700 H 139.200 C 139.100 46.700 139.200 46.800 139.200 46.700 V 40.900 C 139.200 40.800 139.100 40.900 139.200 40.900 H 142.100 C 142.155 40.900 142.200 40.855 142.200 40.800 V 29.800 C 142.200 29.745 142.155 29.700 142.100 29.700 H 139.100 H 133.200 C 133.100 29.700 133.200 29.800 133.200 29.700 V 26.800 C 133.200 26.745 133.155 26.700 133.100 26.700 H 127.100 C 127.045 26.700 127.000 26.745 127.000 26.800 V 29.700 C 127.000 29.800 127.100 29.700 127.000 29.700 H 121.200 C 121.100 29.700 121.200 29.800 121.200 29.700 V 26.800 C 121.200 26.745 121.155 26.700 121.100 26.700 H 115.100 C 115.045 26.700 115.000 26.745 115.000 26.800 V 29.700 C 115.000 29.800 115.100 29.700 115.000 29.700 H 109.200 C 109.100 29.700 109.200 29.800 109.200 29.700 V 26.800 C 109.200 26.745 109.155 26.700 109.100 26.700 H 103.100 C 103.045 26.700 103.000 26.745 103.000 26.800 V 29.700 C 103.000 29.800 103.100 29.700 103.000 29.700 H 97.200 C 97.100 29.700 97.200 29.800 97.200 29.700 V 26.800 C 97.200 26.745 97.155 26.700 97.100 26.700 H 91.100 C 91.045 26.700 91.000 26.745 91.000 26.800 V 29.700 C 91.000 29.800 91.100 29.700 91.000 29.700 H 85.200 C 85.100 29.700 85.200 29.800 85.200 29.700 V 26.800 C 85.200 26.745 85.155 26.700 85.100 26.700 H 79.100 C 79.045 26.700 79.000 26.745 79.000 26.800 V 29.700 C 79.000 29.800 79.100 29.700 79.000 29.700 H 73.200 C 73.100 29.700 73.200 29.800 73.200 29.700 V 26.800 C 73.200 26.745 73.155 26.700 73.100 26.700 H 67.100 C 67.045 26.700 67.000 26.745 67.000 26.800 V 29.700 C 67.000 29.800 67.100 29.700 67.000 29.700 H 61.200 C 61.100 29.700 61.200 29.800 61.200 29.700 V 26.800 C 61.200 26.745 61.155 26.700 61.100 26.700 H 55.100 C 55.045 26.700 55.000 26.745 55.000 26.800 V 29.700 C 55.000 29.800 55.100 29.700 55.000 29.700 H 49.200 C 49.100 29.700 49.200 29.800 49.200 29.700 V 26.800 C 49.200 26.745 49.155 26.700 49.100 26.700 H 43.100 C 43.045 26.700 43.000 26.745 43.000 26.800 V 29.700 C 43.000 29.800 43.100 29.700 43.000 29.700 H 37.200 C 37.100 29.700 37.200 29.800 37.200 29.700 V 26.800 C 37.200 26.745 37.155 26.700 37.100 26.700 H 31.100 C 31.045 26.700 31.000 26.745 31.000 26.800 V 29.700 C 31.000 29.800 31.100 29.700 31.000 29.700 H 25.200 C 25.100 29.700 25.200 29.800 25.200 29.700 V 26.800 C 25.200 26.745 25.155 26.700 25.100 26.700 H 19.100 C 19.045 26.700 19.000 26.745 19.000 26.800 V 29.700 C 19.000 29.800 19.100 29.700 19.000 29.700 H 13.100 H 10.100 C 10.045 29.700 10.000 29.745 10.000 29.800 V 40.800 C 10.000 40.855 10.045 40.900 10.100 40.900 H 13.000 C 13.100 40.900 13.000 40.800 13.000 40.900 V 46.700 C 13.000 46.800 13.100 46.700 13.000 46.700 H 10.100 C 10.045 46.700 10.000 46.745 10.000 46.800 V 52.800 C 10.000 52.855 10.045 52.900 10.100 52.900 H 13.000 C 13.100 52.900 13.000 52.800 13.000 52.900 V 58.700 C 13.000 58.800 13.100 58.700 13.000 58.700 H 10.100 C 10.045 58.700 10.000 58.745 10.000 58.800 V 69.800 V 72.800 C 10.000 72.855 10.045 72.900 10.100 72.900 H 13.100 Z" stroke="rgb(0,0,0)" stroke-width="0.20" />
  <text font-size="4px" style="font-family: sans-serif ; font-weight: normal; font-style: normal; fill: rgb(255,0,0)" text-anchor="middle" transform="matrix( 1.000 0.000 0.000 1.000 76.100 51.340 )">bottom</text>
</g>
<g id="p-3" style="fill:none;stroke-linecap:round;stroke-linejoin:round;">
  <path d="M 56.000 16.100 V 19.000 C 56.000 19.100 56.100 19.000 56.000 19.000 H 53.200 C 53.100 19.000 53.200 19.100 53.200 19.000 V 13.200 C 53.200 13.100 53.100 13.200 53.200 13.200 H 56.000 C 56.100 13.200 56.000 13.100 56.000 13.200 V 16.100 Z" stroke="rgb(0,0,255)" stroke-width="0.20" />
  <path d="M 99.000 16.100 V 19.000 C 99.000 19.100 99.100 19.000 99.000 19.000 H 96.200 C 96.100 19.000 96.200 19.100 96.200 19.000 V 13.200 C 96.200 13.100 96.100 13.200 96.200 13.200 H 99.000 C 99.100 13.200 99.000 13.100 99.000 13.200 V 16.100 Z" stroke="rgb(0,0,255)" stroke-width="0.20" />
  <path d="M 13.100 25.200 H 19.100 C 19.155 25.200 19.200 25.155 19.200 25.100 V 22.200 C 19.200 22.100 19.100 22.200 19.200 22.200 H 25.000 C 25.100 22.200 25.000 22.100 25.000 22.200 V 25.100 C 25.000 25.155 25.045 25.200 25.100 25.200 H 31.100 C 31.155 25.200 31.200 25.155 31.200 25.100 V 22.200 C 31.200 22.100 31.100 22.200 31.200 22.200 H 37.000 C 37.100 22.200 37.000 22.100 37.000 22.200 V 25.100 C 37.000 25.155 37.045 25.200 37.100 25.200 H 43.100 C 43.155 25.200 43.200 25.155 43.200 25.100 V 22.200 C 43.200 22.100 43.100 22.200 43.200 22.200 H 49.000 C 49.100 22.200 49.000 22.100 49.000 22.200 V 25.100 C 49.000 25.155 49.045 25.200 49.100 25.200 H 55.100 C 55.155 25.200 55.200 25.155 55.200 25.100 V 22.200 C 55.200 22.100 55.100 22.200 55.200 22.200 H 61.000 C 61.100 22.200 61.000 22.100 61.000 22.200 V 25.100 C 61.000 25.155 61.045 25.200 61.100 25.200 H 67.100 C 67.155 25.200 67.200 25.155 67.200 25.100 V 22.200 C 67.200 22.100 67.100 22.200 67.200 22.200 H 73.000 C 73.100 22.200 73.000 22.100 73.000 22.200 V 25.100 C 73.000 25.155 73.045 25.200 73.100 25.200 H 79.100 C 79.155 25.200 79.200 25.155 79.200 25.100 V 22.200 C 79.200 22.100 79.100 22.200 79.200 22.200 H 85.000 C 85.100 22.200 85.000 22.100 85.000 22.200 V 25.100 C 85.000 25.155 85.045 25.200 85.100 25.200 H 91.100 C 91.155 25.200 91.200 25.155 91.200 25.100 V 22.200 C 91.200 22.100 91.100 22.200 91.200 22.200 H 97.000 C 97.100 22.200 97.000 22.100 97.000 22.200 V 25.100 C 97.000 25.155 97.045 25.200 97.100 25.200 H 103.100 C 103.155 25.200 103.200 25.155 103.200 25.100 V 22.200 C 103.200 22.100 103.100 22.200 103.200 22.200 H 109.000 C 109.100 22.200 109.000 22.100 109.000 22.200 V 25.100 C 109.000 25.155 109.045 25.200 109.100 25.200 H 115.100 C 115.155 25.200 115.200 25.155 115.200 25.100 V 22.200 C 115.200 22.100 115.100 22.200 115.200 22.200 H 121.000 C 121.100 22.200 121.000 22.100 121.000 22.200 V 25.100 C 121.000 25.155 121.045 25.200 121.100 25.200 H 127.100 C 127.155 25.200 127.200 25.155 127.200 25.100 V 22.200 C 127.200 22.100 127.100 22.200 127.200 22.200 H 133.000 C 133.100 22.200 133.000 22.100 133.000 22.200 V 25.100 C 133.000 25.155 133.045 25.200 133.100 25.200 H 139.100 H 142.100 C 142.155 25.200 142.200 25.155 142.200 25.100 V 22.100 V 19.100 C 142.200 19.045 142.155 19.000 142.100 19.000 H 139.200 C 139.100 19.000 139.200 19.100 139.200 19.000 V 13.200 C 139.200 13.100 139.100 13.200 139.200 13.200 H 142.100 C 142.155 13.200 142.200 13.155 142.200 13.100 V 10.100 C 142.200 10.045 142.155 10.000 142.100 10.000 H 139.100 H 13.100 H 10.100 C 10.045 10.000 10.000 10.045 10.000 10.100 V 13.100 C 10.000 13.155 10.045 13.200 10.100 13.200 H 13.000 C 13.100 13.200 13.000 13.100 13.000 13.200 V 19.000 C 13.000 19.100 13.100 19.000 13.000 19.000 H 10.100 C 10.045 19.000 10.000 19.045 10.000 19.100 V 22.100 V 25.100 C 10.000 25.155 10.045 25.200 10.100 25.200 H 13.100 Z" stroke="rgb(0,0,0)" stroke-width="0.20" />
  <text font-size="4px" style="font-family: sans-serif ; font-weight: normal; font-style: normal; fill: rgb(255,0,0)" text-anchor="middle" transform="matrix( 1.000 0.000 0.000 1.000 76.100 19.140 )">front</text>
</g>
<g id="p-4" style="fill:none;stroke-linecap:round;stroke-linejoin:round;">
  <path d="M 186.800 13.200 H 175.900 C 175.800 13.200 175.900 13.300 175.900 13.200 V 10.300 C 175.900 10.245 175.855 10.200 175.800 10.200 H 169.800 C 169.745 10.200 169.700 10.245 169.700 10.300 V 13.200 C 169.700 13.300 169.800 13.200 169.700 13.200 H 163.900 C 163.800 13.200 163.900 13.300 163.900 13.200 V 10.300 C 163.900 10.245 163.855 10.200 163.800 10.200 H 157.800 C 157.745 10.200 157.700 10.245 157.700 10.300 V 13.200 C 157.700 13.300 157.800 13.200 157.700 13.200 H 146.800 C 146.745 13.200 146.700 13.245 146.700 13.300 V 16.200 C 146.700 16.300 146.800 16.200 146.700 16.200 H 143.800 C 143.745 16.200 143.700 16.245 143.700 16.300 V 22.300 C 143.700 22.355 143.745 22.400 143.800 22.400 H 146.700 C 146.800 22.400 146.700 22.300 146.700 22.400 V 25.300 C 146.700 25.355 146.745 25.400 146.800 25.400 C 146.779 25.400 146.759 25.394 146.743 25.382 L 186.743 53.382 C 186.759 53.394 186.779 53.400 186.800 53.400 C 186.855 53.400 186.900 53.355 186.900 53.300 V 42.400 C 186.900 42.300 186.800 42.400 186.900 42.400 H 189.800 C 189.855 42.400 189.900 42.355 189.900 42.300 V 36.300 C 189.900 36.245 189.855 36.200 189.800 36.200 H 186.900 C 186.800 36.200 186.900 36.300 186.900 36.200 V 30.400 C 186.900 30.300 186.800 30.400 186.900 30.400 H 189.800 C 189.855 30.400 189.900 30.355 189.900 30.300 V 24.300 C 189.900 24.245 189.855 24.200 189.800 24.200 H 186.900 C 186.800 24.200 186.900 24.300 186.900 24.200 V 13.300 C 186.900 13.245 186.855 13.200 186.800 13.200 Z" stroke="rgb(0,0,0)" stroke-width="0.20" />
  <text font-size="4px" style="font-family: sans-serif ; font-weight: normal; font-style: normal; fill: rgb(255,0,0)" text-anchor="middle" transform="matrix( 1.000 0.000 0.000 1.000 166.800 33.140 )">side 1</text>
</g>
<g id="p-5" style="fill:none;stroke-linecap:round;stroke-linejoin:round;">
  <path d="M 146.800 66.900 H 157.700 C 157.800 66.900 157.700 66.800 157.700 66.900 V 69.800 C 157.700 69.855 157.745 69.900 157.800 69.900 H 163.800 C 163.855 69.900 163.900 69.855 163.900 69.800 V 66.900 C 163.900 66.800 163.800 66.900 163.900 66.900 H 169.700 C 169.800 66.900 169.700 66.800 169.700 66.900 V 69.800 C 169.700 69.855 169.745 69.900 169.800 69.900 H 175.800 C 175.855 69.900 175.900 69.855 175.900 69.800 V 66.900 C 175.900 66.800 175.800 66.900 175.900 66.900 H 186.800 C 186.855 66.900 186.900 66.855 186.900 66.800 V 63.900 C 186.900 63.800 186.800 63.900 186.900 63.900 H 189.800 C 189.855 63.900 189.900 63.855 189.900 63.800 V 57.800 C 189.900 57.745 189.855 57.700 189.800 57.700 H 186.900 C 186.800 57.700 186.900 57.800 186.900 57.700 V 54.800 C 186.900 54.745 186.855 54.700 186.800 54.700 C 186.821 54.700 186.841 54.706 186.857 54.718 L 146.857 26.718 C 146.841 26.706 146.821 26.700 146.800 26.700 C 146.745 26.700 146.700 26.745 146.700 26.800 V 37.700 C 146.700 37.800 146.800 37.700 146.700 37.700 H 143.800 C 143.745 37.700 143.700 37.745 143.700 37.800 V 43.800 C 143.700 43.855 143.745 43.900 143.800 43.900 H 146.700 C 146.800 43.900 146.700 43.800 146.700 43.900 V 49.700 C 146.700 49.800 146.800 49.700 146.700 49.700 H 143.800 C 143.745 49.700 143.700 49.745 143.700 49.800 V 55.800 C 143.700 55.855 143.745 55.900 143.800 55.900 H 146.700 C 146.800 55.900 146.700 55.800 146.700 55.900 V 66.800 C 146.700 66.855 146.745 66.900 146.800 66.900 Z" stroke="rgb(0,0,0)" stroke-width="0.20" />
  <text font-size="4px" style="font-family: sans-serif ; font-weight: normal; font-style: normal; fill: rgb(255,0,0)" text-anchor="middle" transform="matrix( 1.000 0.000 0.000 1.000 166.800 49.840 )">side 2</text>
</g>
<g id="p-6" style="fill:none;stroke-linecap:round;stroke-linejoin:round;">
  <path d="M 186.800 74.600 H 175.900 C 175.800 74.600 175.900 74.700 175.900 74.600 V 71.700 C 175.900 71.645 175.855 71.600 175.800 71.600 H 169.800 C 169.745 71.600 169.700 71.645 169.700 71.700 V 74.600 C 169.700 74.700 169.800 74.600 169.700 74.600 H 163.900 C 163.800 74.600 163.900 74.700 163.900 74.600 V 71.700 C 163.900 71.645 163.855 71.600 163.800 71.600 H 157.800 C 157.745 71.600 157.700 71.645 157.700 71.700 V 74.600 C 157.700 74.700 157.800 74.600 157.700 74.600 H 146.800 C 146.745 74.600 146.700 74.645 146.700 74.700 V 77.600 C 146.700 77.700 146.800 77.600 146.700 77.600 H 143.800 C 143.745 77.600 143.700 77.645 143.700 77.700 V 83.700 C 143.700 83.755 143.745 83.800 143.800 83.800 H 146.700 C 146.800 83.800 146.700 83.700 146.700 83.800 V 86.700 C 146.700 86.755 146.745 86.800 146.800 86.800 C 146.779 86.800 146.759 86.794 146.743 86.782 L 186.743 114.782 C 186.759 114.794 186.779 114.800 186.800 114.800 C 186.855 114.800 186.900 114.755 186.900 114.700 V 103.800 C 186.900 103.700 186.800 103.800 186.900 103.800 H 189.800 C 189.855 103.800 189.900 103.755 189.900 103.700 V 97.700 C 189.900 97.645 189.855 97.600 189.800 97.600 H 186.900 C 186.800 97.600 186.900 97.700 186.900 97.600 V 91.800 C 186.900 91.700 186.800 91.800 186.900 91.800 H 189.800 C 189.855 91.800 189.900 91.755 189.900 91.700 V 85.700 C 189.900 85.645 189.855 85.600 189.800 85.600 H 186.900 C 186.800 85.600 186.900 85.700 186.900 85.600 V 74.700 C 186.900 74.645 186.855 74.600 186.800 74.600 Z" stroke="rgb(0,0,0)" stroke-width="0.20" />
  <text font-size="4px" style="font-family: sans-serif ; font-weight: normal; font-style: normal; fill: rgb(255,0,0)" text-anchor="middle" transform="matrix( 1.000 0.000 0.000 1.000 166.800 94.540 )">side 3</text>
</g>
<g id="p-7" style="fill:none;stroke-linecap:round;stroke-linejoin:round;">
  <path d="M 146.800 128.300 H 157.700 C 157.800 128.300 157.700 128.200 157.700 128.300 V 131.200 C 157.700 131.255 157.745 131.300 157.800 131.300 H 163.800 C 163.855 131.300 163.900 131.255 163.900 131.200 V 128.300 C 163.900 128.200 163.800 128.300 163.900 128.300 H 169.700 C 169.800 128.300 169.700 128.200 169.700 128.300 V 131.200 C 169.700 131.255 169.745 131.300 169.800 131.300 H 175.800 C 175.855 131.300 175.900 131.255 175.900 131.200 V 128.300 C 175.900 128.200 175.800 128.300 175.900 128.300 H 186.800 C 186.855 128.300 186.900 128.255 186.900 128.200 V 125.300 C 186.900 125.200 186.800 125.300 186.900 125.300 H 189.800 C 189.855 125.300 189.900 125.255 189.900 125.200 V 119.200 C 189.900 119.145 189.855 119.100 189.800 119.100 H 186.900 C 186.800 119.100 186.900 119.200 186.900 119.100 V 116.200 C 186.900 116.145 186.855 116.100 186.800 116.100 C 186.821 116.100 186.841 116.106 186.857 116.118 L 146.857 88.118 C 146.841 88.106 146.821 88.100 146.800 88.100 C 146.745 88.100 146.700 88.145 146.700 88.200 V 99.100 C 146.700 99.200 146.800 99.100 146.700 99.100 H 143.800 C 143.745 99.100 143.700 99.145 143.700 99.200 V 105.200 C 143.700 105.255 143.745 105.300 143.800 105.300 H 146.700 C 146.800 105.300 146.700 105.200 146.700 105.300 V 111.100 C 146.700 111.200 146.800 111.100 146.700 111.100 H 143.800 C 143.745 111.100 143.700 111.145 143.700 111.200 V 117.200 C 143.700 117.255 143.745 117.300 143.800 117.300 H 146.700 C 146.800 117.300 146.700 117.200 146.700 117.300 V 128.200 C 146.700 128.255 146.745 128.300 146.800 128.300 Z" stroke="rgb(0,0,0)" stroke-width="0.20" />
  <text font-size="4px" style="font-family: sans-serif ; font-weight: normal; font-style: normal; fill: rgb(255,0,0)" text-anchor="middle" transform="matrix( 1.000 0.000 0.000 1.000 166.800 111.240 )">side 4</text>
</g>
</svg>