<?xml version='1.0' encoding='utf-8'?>
<svg height="502.60mm" viewBox="0.0 0.0 181.90 502.60" width="181.90mm" xmlns="http://www.w3.org/2000/svg" xmlns:cc="http://creativecommons.org/ns#" xmlns:dc="http://purl.org/dc/elements/1.1/" xmlns:inkscape="http://www.inkscape.org/namespaces/inkscape" xmlns:rdf="http://www.w3.org/1999/02/22-rdf-syntax-ns#" xmlns:svg="http://www.w3.org/2000/svg" xmlns:xlink="http://www.w3.org/1999/xlink">
<!--
ABox - A simple Box


This box is kept simple on purpose. If you need more features have a look at the UniversalBox.


Created with Boxes.py (https://boxes.hackerspace-bamberg.de/)
Command line (remove spaces between dashes): boxes ABox - -y=60 - -Lid_style=ontop
-->
<title>ABox</title>
<metadata>
<rdf:RDF><cc:Work>
<dc:title>Box - ABox</dc:title>
<dc:source>boxes ABox --y=60 --Lid_style=ontop</dc:source>
<dc:description>A simple Box

This box is kept simple on purpose. If you need more features have a look at the UniversalBox.

Created with Boxes.py (https://boxes.hackerspace-bamberg.de/)
Command line: boxes ABox --y=60 --Lid_style=ontop
Command line short: boxes ABox --y=60 --Lid_style=ontop
</dc:description>
</cc:Work></rdf:RDF></metadata>
<g id="p-0" style="fill:none;stroke-linecap:round;stroke-linejoin:round;">
  <path d="M 10.100 492.600 H 110.100 V 482.600 H 10.100 V 492.600 Z" stroke="rgb(0,0,0)" stroke-width="0.20" />
  <text dominant-baseline="hanging" font-size="6px" style="font-family: sans-serif ; font-weight: normal; font-style: normal; fill: rgb(255,0,0)" text-anchor="middle" transform="matrix( 1.000 0.000 0.000 1.000 60.100 484.600 )">100.0mm, burn:0.10mm</text>
</g>
<g id="p-1" style="fill:none;stroke-linecap:round;stroke-linejoin:round;">
  <path d="M 24.100 477.700 H 21.200 C 21.100 477.700 21.200 477.800 21.200 477.700 V 474.900 C 21.200 474.800 21.100 474.900 21.200 474.900 H 27.000 C 27.100 474.900 27.000 474.800 27.000 474.900 V 477.700 C 27.000 477.800 27.100 477.700 27.000 477.700 H 24.100 Z" stroke="rgb(0,0,255)" stroke-width="0.20" />
  <path d="M 36.100 477.700 H 33.200 C 33.100 477.700 33.200 477.800 33.200 477.700 V 474.900 C 33.200 474.800 33.100 474.900 33.200 474.900 H 39.000 C 39.100 474.900 39.000 474.800 39.000 474.900 V 477.700 C 39.000 477.800 39.100 477.700 39.000 477.700 H 36.100 Z" stroke="rgb(0,0,255)" stroke-width="0.20" />
  <path d="M 48.100 477.700 H 45.200 C 45.100 477.700 45.200 477.800 45.200 477.700 V 474.900 C 45.200 474.800 45.100 474.900 45.200 474.900 H 51.000 C 51.100 474.900 51.000 474.800 51.000 474.900 V 477.700 C 51.000 477.800 51.100 477.700 51.000 477.700 H 48.100 Z" stroke="rgb(0,0,255)" stroke-width="0.20" />
  <path d="M 60.100 477.700 H 57.200 C 57.100 477.700 57.200 477.800 57.200 477.700 V 474.900 C 57.200 474.800 57.100 474.900 57.200 474.900 H 63.000 C 63.100 474.900 63.000 474.800 63.000 474.900 V 477.700 C 63.000 477.800 63.100 477.700 63.000 477.700 H 60.100 Z" stroke="rgb(0,0,255)" stroke-width="0.20" />
  <path d="M 72.100 477.700 H 69.200 C 69.100 477.700 69.200 477.800 69.200 477.700 V 474.900 C 69.200 474.800 69.100 474.900 69.200 474.900 H 75.000 C 75.100 474.900 75.000 474.800 75.000 474.900 V 477.700 C 75.000 477.800 75.100 477.700 75.000 477.700 H 72.100 Z" stroke="rgb(0,0,255)" stroke-width="0.20" />
  <path d="M 84.100 477.700 H 81.200 C 81.100 477.700 81.200 477.800 81.200 477.700 V 474.900 C 81.200 474.800 81.100 474.900 81.200 474.900 H 87.000 C 87.100 474.900 87.000 474.800 87.000 474.900 V 477.700 C 87.000 477.800 87.100 477.700 87.000 477.700 H 84.100 Z" stroke="rgb(0,0,255)" stroke-width="0.20" />
  <path d="M 96.100 477.700 H 93.200 C 93.100 477.700 93.200 477.800 93.200 477.700 V 474.900 C 93.200 474.800 93.100 474.900 93.200 474.900 H 99.000 C 99.100 474.900 99.000 474.800 99.000 474.900 V 477.700 C 99.000 477.800 99.100 477.700 99.000 477.700 H 96.100 Z" stroke="rgb(0,0,255)" stroke-width="0.20" />
  <path d="M 13.100 480.900 H 107.100 H 110.100 C 110.155 480.900 110.200 480.855 110.200 480.800 V 469.800 C 110.200 469.745 110.155 469.700 110.100 469.700 H 107.200 C 107.100 469.700 107.200 469.800 107.200 469.700 V 463.900 C 107.200 463.800 107.100 463.900 107.200 463.900 H 110.100 C 110.155 463.900 110.200 463.855 110.200 463.800 V 457.800 C 110.200 457.745 110.155 457.700 110.100 457.700 H 107.200 C 107.100 457.700 107.200 457.800 107.200 457.700 V 451.900 C 107.200 451.800 107.100 451.900 107.200 451.900 H 110.100 C 110.155 451.900 110.200 451.855 110.200 451.800 V 445.800 C 110.200 445.745 110.155 445.700 110.100 445.700 H 107.200 C 107.100 445.700 107.200 445.800 107.200 445.700 V 439.900 C 107.200 439.800 107.100 439.900 107.200 439.900 H 110.100 C 110.155 439.900 110.200 439.855 110.200 439.800 V 433.800 C 110.200 433.745 110.155 433.700 110.100 433.700 H 107.200 C 107.100 433.700 107.200 433.800 107.200 433.700 V 427.900 C 107.200 427.800 107.100 427.900 107.200 427.900 H 110.100 C 110.155 427.900 110.200 427.855 110.200 427.800 V 421.800 C 110.200 421.745 110.155 421.700 110.100 421.700 H 107.200 C 107.100 421.700 107.200 421.800 107.200 421.700 V 415.900 C 107.200 415.800 107.100 415.900 107.200 415.900 H 110.100 C 110.155 415.900 110.200 415.855 110.200 415.800 V 409.800 C 110.200 409.745 110.155 409.700 110.100 409.700 H 107.200 C 107.100 409.700 107.200 409.800 107.200 409.700 V 403.900 C 107.200 403.800 107.100 403.900 107.200 403.900 H 110.100 C 110.155 403.900 110.200 403.855 110.200 403.800 V 397.800 C 110.200 397.745 110.155 397.700 110.100 397.700 H 107.200 C 107.100 397.700 107.200 397.800 107.200 397.700 V 391.900 C 107.200 391.800 107.100 391.900 107.200 391.900 H 110.100 C 110.155 391.900 110.200 391.855 110.200 391.800 V 380.800 C 110.200 380.745 110.155 380.700 110.100 380.700 H 107.100 H 13.100 H 10.100 C 10.045 380.700 10.000 380.745 10.000 380.800 V 391.800 C 10.000 391.855 10.045 391.900 10.100 391.900 H 13.000 C 13.100 391.900 13.000 391.800 13.000 391.900 V 397.700 C 13.000 397.800 13.100 397.700 13.000 397.700 H 10.100 C 10.045 397.700 10.000 397.745 10.000 397.800 V 403.800 C 10.000 403.855 10.045 403.900 10.100 403.900 H 13.000 C 13.100 403.900 13.000 403.800 13.000 403.900 V 409.700 C 13.000 409.800 13.100 409.700 13.000 409.700 H 10.100 C 10.045 409.700 10.000 409.745 10.000 409.800 V 415.800 C 10.000 415.855 10.045 415.900 10.100 415.900 H 13.000 C 13.100 415.900 13.000 415.800 13.000 415.900 V 421.700 C 13.000 421.800 13.100 421.700 13.000 421.700 H 10.100 C 10.045 421.700 10.000 421.745 10.000 421.800 V 427.800 C 10.000 427.855 10.045 427.900 10.100 427.900 H 13.000 C 13.100 427.900 13.000 427.800 13.000 427.900 V 433.700 C 13.000 433.800 13.100 433.700 13.000 433.700 H 10.100 C 10.045 433.700 10.000 433.745 10.000 433.800 V 439.800 C 10.000 439.855 10.045 439.900 10.100 439.900 H 13.000 C 13.100 439.900 13.000 439.800 13.000 439.900 V 445.700 C 13.000 445.800 13.100 445.700 13.000 445.700 H 10.100 C 10.045 445.700 10.000 445.745 10.000 445.800 V 451.800 C 10.000 451.855 10.045 451.900 10.100 451.900 H 13.000 C 13.100 451.900 13.000 451.800 13.000 451.900 V 457.700 C 13.000 457.800 13.100 457.700 13.000 457.700 H 10.100 C 10.045 457.700 10.000 457.745 10.000 457.800 V 463.800 C 10.000 463.855 10.045 463.900 10.100 463.900 H 13.000 C 13.100 463.900 13.000 463.800 13.000 463.900 V 469.700 C 13.000 469.800 13.100 469.700 13.000 469.700 H 10.100 C 10.045 469.700 10.000 469.745 10.000 469.800 V 480.800 C 10.000 480.855 10.045 480.900 10.100 480.900 H 13.100 Z" stroke="rgb(0,0,0)" stroke-width="0.20" />
</g>
<g id="p-2" style="fill:none;stroke-linecap:round;stroke-linejoin:round;">
  <path d="M 24.100 376.000 H 21.200 C 21.100 376.000 21.200 376.100 21.200 376.000 V 373.200 C 21.200 373.100 21.100 373.200 21.200 373.200 H 27.000 C 27.100 373.200 27.000 373.100 27.000 373.200 V 376.000 C 27.000 376.100 27.100 376.000 27.000 376.000 H 24.100 Z" stroke="rgb(0,0,255)" stroke-width="0.20" />
  <path d="M 36.100 376.000 H 33.200 C 33.100 376.000 33.200 376.100 33.200 376.000 V 373.200 C 33.200 373.100 33.100 373.200 33.200 373.200 H 39.000 C 39.100 373.200 39.000 373.100 39.000 373.200 V 376.000 C 39.000 376.100 39.100 376.000 39.000 376.000 H 36.100 Z" stroke="rgb(0,0,255)" stroke-width="0.20" />
  <path d="M 48.100 376.000 H 45.200 C 45.100 376.000 45.200 376.100 45.200 376.000 V 373.200 C 45.200 373.100 45.100 373.200 45.200 373.200 H 51.000 C 51.100 373.200 51.000 373.100 51.000 373.200 V 376.000 C 51.000 376.100 51.100 376.000 51.000 376.000 H 48.100 Z" stroke="rgb(0,0,255)" stroke-width="0.20" />
  <path d="M 60.100 376.000 H 57.200 C 57.100 376.000 57.200 376.100 57.200 376.000 V 373.200 C 57.200 373.100 57.100 373.200 57.200 373.200 H 63.000 C 63.100 373.200 63.000 373.100 63.000 373.200 V 376.000 C 63.000 376.100 63.100 376.000 63.000 376.000 H 60.100 Z" stroke="rgb(0,0,255)" stroke-width="0.20" />
  <path d="M 72.100 376.000 H 69.200 C 69.100 376.000 69.200 376.100 69.200 376.000 V 373.200 C 69.200 373.100 69.100 373.200 69.200 373.200 H 75.000 C 75.100 373.200 75.000 373.100 75.000 373.200 V 376.000 C 75.000 376.100 75.100 376.000 75.000 376.000 H 72.100 Z" stroke="rgb(0,0,255)" stroke-width="0.20" />
  <path d="M 84.100 376.000 H 81.200 C 81.100 376.000 81.200 376.100 81.200 376.000 V 373.200 C 81.200 373.100 81.100 373.200 81.200 373.200 H 87.000 C 87.100 373.200 87.000 373.100 87.000 373.200 V 376.000 C 87.000 376.100 87.100 376.000 87.000 376.000 H 84.100 Z" stroke="rgb(0,0,255)" stroke-width="0.20" />
  <path d="M 96.100 376.000 H 93.200 C 93.100 376.000 93.200 376.100 93.200 376.000 V 373.200 C 93.200 373.100 93.100 373.200 93.200 373.200 H 99.000 C 99.100 373.200 99.000 373.100 99.000 373.200 V 376.000 C 99.000 376.100 99.100 376.000 99.000 376.000 H 96.100 Z" stroke="rgb(0,0,255)" stroke-width="0.20" />
  <path d="M 13.100 379.200 H 107.100 H 110.100 C 110.155 379.200 110.200 379.155 110.200 379.100 V 368.100 C 110.200 368.045 110.155 368.000 110.100 368.000 H 107.200 C 107.100 368.000 107.200 368.100 107.200 368.000 V 362.200 C 107.200 362.100 107.100 362.200 107.200 362.200 H 110.100 C 110.155 362.200 110.200 362.155 110.200 362.100 V 356.100 C 110.200 356.045 110.155 356.000 110.100 356.000 H 107.200 C 107.100 356.000 107.200 356.100 107.200 356.000 V 350.200 C 107.200 350.100 107.100 350.200 107.200 350.200 H 110.100 C 110.155 350.200 110.200 350.155 110.200 350.100 V 344.100 C 110.200 344.045 110.155 344.000 110.100 344.000 H 107.200 C 107.100 344.000 107.200 344.100 107.200 344.000 V 338.200 C 107.200 338.100 107.100 338.200 107.200 338.200 H 110.100 C 110.155 338.200 110.200 338.155 110.200 338.100 V 332.100 C 110.200 332.045 110.155 332.000 110.100 332.000 H 107.200 C 107.100 332.000 107.200 332.100 107.200 332.000 V 326.200 C 107.200 326.100 107.100 326.200 107.200 326.200 H 110.100 C 110.155 326.200 110.200 326.155 110.200 326.100 V 320.100 C 110.200 320.045 110.155 320.000 110.100 320.000 H 107.200 C 107.100 320.000 107.200 320.100 107.200 320.000 V 314.200 C 107.200 314.100 107.100 314.200 107.200 314.200 H 110.100 C 110.155 314.200 110.200 314.155 110.200 314.100 V 308.100 C 110.200 308.045 110.155 308.000 110.100 308.000 H 107.200 C 107.100 308.000 107.200 308.100 107.200 308.000 V 302.200 C 107.200 302.100 107.100 302.200 107.200 302.200 H 110.100 C 110.155 302.200 110.200 302.155 110.200 302.100 V 296.100 C 110.200 296.045 110.155 296.000 110.100 296.000 H 107.200 C 107.100 296.000 107.200 296.100 107.200 296.000 V 290.200 C 107.200 290.100 107.100 290.200 107.200 290.200 H 110.100 C 110.155 290.200 110.200 290.155 110.200 290.100 V 279.100 C 110.200 279.045 110.155 279.000 110.100 279.000 H 107.100 H 13.100 H 10.100 C 10.045 279.000 10.000 279.045 10.000 279.100 V 290.100 C 10.000 290.155 10.045 290.200 10.100 290.200 H 13.000 C 13.100 290.200 13.000 290.100 13.000 290.200 V 296.000 C 13.000 296.100 13.100 296.000 13.000 296.000 H 10.100 C 10.045 296.000 10.000 296.045 10.000 296.100 V 302.100 C 10.000 302.155 10.045 302.200 10.100 302.200 H 13.000 C 13.100 302.200 13.000 302.100 13.000 302.200 V 308.000 C 13.000 308.100 13.100 308.000 13.000 308.000 H 10.100 C 10.045 308.000 10.000 308.045 10.000 308.100 V 314.100 C 10.000 314.155 10.045 314.200 10.100 314.200 H 13.000 C 13.100 314.200 13.000 314.100 13.000 314.200 V 320.000 C 13.000 320.100 13.100 320.000 13.000 320.000 H 10.100 C 10.045 320.000 10.000 320.045 10.000 320.100 V 326.100 C 10.000 326.155 10.045 326.200 10.100 326.200 H 13.000 C 13.100 326.200 13.000 326.100 13.000 326.200 V 332.000 C 13.000 332.100 13.100 332.000 13.000 332.000 H 10.100 C 10.045 332.000 10.000 332.045 10.000 332.100 V 338.100 C 10.000 338.155 10.045 338.200 10.100 338.200 H 13.000 C 13.100 338.200 13.000 338.100 13.000 338.200 V 344.000 C 13.000 344.100 13.100 344.000 13.000 344.000 H 10.100 C 10.045 344.000 10.000 344.045 10.000 344.100 V 350.100 C 10.000 350.155 10.045 350.200 10.100 350.200 H 13.000 C 13.100 350.200 13.000 350.100 13.000 350.200 V 356.000 C 13.000 356.100 13.100 356.000 13.000 356.000 H 10.100 C 10.045 356.000 10.000 356.045 10.000 356.100 V 362.100 C 10.000 362.155 10.045 362.200 10.100 362.200 H 13.000 C 13.100 362.200 13.000 362.100 13.000 362.200 V 368.000 C 13.000 368.100 13.100 368.000 13.000 368.000 H 10.100 C 10.045 368.000 10.000 368.045 10.000 368.100 V 379.100 C 10.000 379.155 10.045 379.200 10.100 379.200 H 13.100 Z" stroke="rgb(0,0,0)" stroke-width="0.20" />
</g>
<g id="p-3" style="fill:none;stroke-linecap:round;stroke-linejoin:round;">
  <path d="M 13.100 274.500 H 21.000 C 21.100 274.500 21.000 274.400 21.000 274.500 V 277.400 C 21.000 277.455 21.045 277.500 21.100 277.500 H 27.100 C 27.155 277.500 27.200 277.455 27.200 277.400 V 274.500 C 27.200 274.400 27.100 274.500 27.200 274.500 H 33.000 C 33.100 274.500 33.000 274.400 33.000 274.500 V 277.400 C 33.000 277.455 33.045 277.500 33.100 277.500 H 39.100 C 39.155 277.500 39.200 277.455 39.200 277.400 V 274.500 C 39.200 274.400 39.100 274.500 39.200 274.500 H 45.000 C 45.100 274.500 45.000 274.400 45.000 274.500 V 277.400 C 45.000 277.455 45.045 277.500 45.100 277.500 H 51.100 C 51.155 277.500 51.200 277.455 51.200 277.400 V 274.500 C 51.200 274.400 51.100 274.500 51.200 274.500 H 57.000 C 57.100 274.500 57.000 274.400 57.000 274.500 V 277.400 C 57.000 277.455 57.045 277.500 57.100 277.500 H 63.100 C 63.155 277.500 63.200 277.455 63.200 277.400 V 274.500 C 63.200 274.400 63.100 274.500 63.200 274.500 H 69.000 C 69.100 274.500 69.000 274.400 69.000 274.500 V 277.400 C 69.000 277.455 69.045 277.500 69.100 277.500 H 75.100 C 75.155 277.500 75.200 277.455 75.200 277.400 V 274.500 C 75.200 274.400 75.100 274.500 75.200 274.500 H 81.000 C 81.100 274.500 81.000 274.400 81.000 274.500 V 277.400 C 81.000 277.455 81.045 277.500 81.100 277.500 H 87.100 C 87.155 277.500 87.200 277.455 87.200 277.400 V 274.500 C 87.200 274.400 87.100 274.500 87.200 274.500 H 93.000 C 93.100 274.500 93.000 274.400 93.000 274.500 V 277.400 C 93.000 277.455 93.045 277.500 93.100 277.500 H 99.100 C 99.155 277.500 99.200 277.455 99.200 277.400 V 274.500 C 99.200 274.400 99.100 274.500 99.200 274.500 H 107.100 C 107.155 274.500 107.200 274.455 107.200 274.400 V 268.500 C 107.200 268.400 107.100 268.500 107.200 268.500 H 110.100 C 110.155 268.500 110.200 268.455 110.200 268.400 V 262.400 C 110.200 262.345 110.155 262.300 110.100 262.300 H 107.200 C 107.100 262.300 107.200 262.400 107.200 262.300 V 256.500 C 107.200 256.400 107.100 256.500 107.200 256.500 H 110.100 C 110.155 256.500 110.200 256.455 110.200 256.400 V 250.400 C 110.200 250.345 110.155 250.300 110.100 250.300 H 107.200 C 107.100 250.300 107.200 250.400 107.200 250.300 V 244.500 C 107.200 244.400 107.100 244.500 107.200 244.500 H 110.100 C 110.155 244.500 110.200 244.455 110.200 244.400 V 238.400 C 110.200 238.345 110.155 238.300 110.100 238.300 H 107.200 C 107.100 238.300 107.200 238.400 107.200 238.300 V 232.500 C 107.200 232.400 107.100 232.500 107.200 232.500 H 110.100 C 110.155 232.500 110.200 232.455 110.200 232.400 V 226.400 C 110.200 226.345 110.155 226.300 110.100 226.300 H 107.200 C 107.100 226.300 107.200 226.400 107.200 226.300 V 220.400 C 107.200 220.345 107.155 220.300 107.100 220.300 H 99.200 C 99.100 220.300 99.200 220.400 99.200 220.300 V 217.400 C 99.200 217.345 99.155 217.300 99.100 217.300 H 93.100 C 93.045 217.300 93.000 217.345 93.000 217.400 V 220.300 C 93.000 220.400 93.100 220.300 93.000 220.300 H 87.200 C 87.100 220.300 87.200 220.400 87.200 220.300 V 217.400 C 87.200 217.345 87.155 217.300 87.100 217.300 H 81.100 C 81.045 217.300 81.000 217.345 81.000 217.400 V 220.300 C 81.000 220.400 81.100 220.300 81.000 220.300 H 75.200 C 75.100 220.300 75.200 220.400 75.200 220.300 V 217.400 C 75.200 217.345 75.155 217.300 75.100 217.300 H 69.100 C 69.045 217.300 69.000 217.345 69.000 217.400 V 220.300 C 69.000 220.400 69.100 220.300 69.000 220.300 H 63.200 C 63.100 220.300 63.200 220.400 63.200 220.300 V 217.400 C 63.200 217.345 63.155 217.300 63.100 217.300 H 57.100 C 57.045 217.300 57.000 217.345 57.000 217.400 V 220.300 C 57.000 220.400 57.100 220.300 57.000 220.300 H 51.200 C 51.100 220.300 51.200 220.400 51.200 220.300 V 217.400 C 51.200 217.345 51.155 217.300 51.100 217.300 H 45.100 C 45.045 217.300 45.000 217.345 45.000 217.400 V 220.300 C 45.000 220.400 45.100 220.300 45.000 220.300 H 39.200 C 39.100 220.300 39.200 220.400 39.200 220.300 V 217.400 C 39.200 217.345 39.155 217.300 39.100 217.300 H 33.100 C 33.045 217.300 33.000 217.345 33.000 217.400 V 220.300 C 33.000 220.400 33.100 220.300 33.000 220.300 H 27.200 C 27.100 220.300 27.200 220.400 27.200 220.300 V 217.400 C 27.200 217.345 27.155 217.300 27.100 217.300 H 21.100 C 21.045 217.300 21.000 217.345 21.000 217.400 V 220.300 C 21.000 220.400 21.100 220.300 21.000 220.300 H 13.100 C 13.045 220.300 13.000 220.345 13.000 220.400 V 226.300 C 13.000 226.400 13.100 226.300 13.000 226.300 H 10.100 C 10.045 226.300 10.000 226.345 10.000 226.400 V 232.400 C 10.000 232.455 10.045 232.500 10.100 232.500 H 13.000 C 13.100 232.500 13.000 232.400 13.000 232.500 V 238.300 C 13.000 238.400 13.100 238.300 13.000 238.300 H 10.100 C 10.045 238.300 10.000 238.345 10.000 238.400 V 244.400 C 10.000 244.455 10.045 244.500 10.100 244.500 H 13.000 C 13.100 244.500 13.000 244.400 13.000 244.500 V 250.300 C 13.000 250.400 13.100 250.300 13.000 250.300 H 10.100 C 10.045 250.300 10.000 250.345 10.000 250.400 V 256.400 C 10.000 256.455 10.045 256.500 10.100 256.500 H 13.000 C 13.100 256.500 13.000 256.400 13.000 256.500 V 262.300 C 13.000 262.400 13.100 262.300 13.000 262.300 H 10.100 C 10.045 262.300 10.000 262.345 10.000 262.400 V 268.400 C 10.000 268.455 10.045 268.500 10.100 268.500 H 13.000 C 13.100 268.500 13.000 268.400 13.000 268.500 V 274.400 C 13.000 274.455 13.045 274.500 13.100 274.500 Z" stroke="rgb(0,0,0)" stroke-width="0.20" />
</g>
<g id="p-4" style="fill:none;stroke-linecap:round;stroke-linejoin:round;">
  <path d="M 13.100 212.800 H 21.000 C 21.100 212.800 21.000 212.700 21.000 212.800 V 215.700 C 21.000 215.755 21.045 215.800 21.100 215.800 H 27.100 C 27.155 215.800 27.200 215.755 27.200 215.700 V 212.800 C 27.200 212.700 27.100 212.800 27.200 212.800 H 33.000 C 33.100 212.800 33.000 212.700 33.000 212.800 V 215.700 C 33.000 215.755 33.045 215.800 33.100 215.800 H 39.100 C 39.155 215.800 39.200 215.755 39.200 215.700 V 212.800 C 39.200 212.700 39.100 212.800 39.200 212.800 H 45.000 C 45.100 212.800 45.000 212.700 45.000 212.800 V 215.700 C 45.000 215.755 45.045 215.800 45.100 215.800 H 51.100 C 51.155 215.800 51.200 215.755 51.200 215.700 V 212.800 C 51.200 212.700 51.100 212.800 51.200 212.800 H 57.000 C 57.100 212.800 57.000 212.700 57.000 212.800 V 215.700 C 57.000 215.755 57.045 215.800 57.100 215.800 H 63.100 C 63.155 215.800 63.200 215.755 63.200 215.700 V 212.800 C 63.200 212.700 63.100 212.800 63.200 212.800 H 69.000 C 69.100 212.800 69.000 212.700 69.000 212.800 V 215.700 C 69.000 215.755 69.045 215.800 69.100 215.800 H 75.100 C 75.155 215.800 75.200 215.755 75.200 215.700 V 212.800 C 75.200 212.700 75.100 212.800 75.200 212.800 H 81.000 C 81.100 212.800 81.000 212.700 81.000 212.800 V 215.700 C 81.000 215.755 81.045 215.800 81.100 215.800 H 87.100 C 87.155 215.800 87.200 215.755 87.200 215.700 V 212.800 C 87.200 212.700 87.100 212.800 87.200 212.800 H 93.000 C 93.100 212.800 93.000 212.700 93.000 212.800 V 215.700 C 93.000 215.755 93.045 215.800 93.100 215.800 H 99.100 C 99.155 215.800 99.200 215.755 99.200 215.700 V 212.800 C 99.200 212.700 99.100 212.800 99.200 212.800 H 107.100 C 107.155 212.800 107.200 212.755 107.200 212.700 V 206.800 C 107.200 206.700 107.100 206.800 107.200 206.800 H 110.100 C 110.155 206.800 110.200 206.755 110.200 206.700 V 200.700 C 110.200 200.645 110.155 200.600 110.100 200.600 H 107.200 C 107.100 200.600 107.200 200.700 107.200 200.600 V 194.800 C 107.200 194.700 107.100 194.800 107.200 194.800 H 110.100 C 110.155 194.800 110.200 194.755 110.200 194.700 V 188.700 C 110.200 188.645 110.155 188.600 110.100 188.600 H 107.200 C 107.100 188.600 107.200 188.700 107.200 188.600 V 182.800 C 107.200 182.700 107.100 182.800 107.200 182.800 H 110.100 C 110.155 182.800 110.200 182.755 110.200 182.700 V 176.700 C 110.200 176.645 110.155 176.600 110.100 176.600 H 107.200 C 107.100 176.600 107.200 176.700 107.200 176.600 V 170.800 C 107.200 170.700 107.100 170.800 107.200 170.800 H 110.100 C 110.155 170.800 110.200 170.755 110.200 170.700 V 164.700 C 110.200 164.645 110.155 164.600 110.100 164.600 H 107.200 C 107.100 164.600 107.200 164.700 107.200 164.600 V 158.700 C 107.200 158.645 107.155 158.600 107.100 158.600 H 99.200 C 99.100 158.600 99.200 158.700 99.200 158.600 V 155.700 C 99.200 155.645 99.155 155.600 99.100 155.600 H 93.100 C 93.045 155.600 93.000 155.645 93.000 155.700 V 158.600 C 93.000 158.700 93.100 158.600 93.000 158.600 H 87.200 C 87.100 158.600 87.200 158.700 87.200 158.600 V 155.700 C 87.200 155.645 87.155 155.600 87.100 155.600 H 81.100 C 81.045 155.600 81.000 155.645 81.000 155.700 V 158.600 C 81.000 158.700 81.100 158.600 81.000 158.600 H 75.200 C 75.100 158.600 75.200 158.700 75.200 158.600 V 155.700 C 75.200 155.645 75.155 155.600 75.100 155.600 H 69.100 C 69.045 155.600 69.000 155.645 69.000 155.700 V 158.600 C 69.000 158.700 69.100 158.600 69.000 158.600 H 63.200 C 63.100 158.600 63.200 158.700 63.200 158.600 V 155.700 C 63.200 155.645 63.155 155.600 63.100 155.600 H 57.100 C 57.045 155.600 57.000 155.645 57.000 155.700 V 158.600 C 57.000 158.700 57.100 158.600 57.000 158.600 H 51.200 C 51.100 158.600 51.200 158.700 51.200 158.600 V 155.700 C 51.200 155.645 51.155 155.600 51.100 155.600 H 45.100 C 45.045 155.600 45.000 155.645 45.000 155.700 V 158.600 C 45.000 158.700 45.100 158.600 45.000 158.600 H 39.200 C 39.100 158.600 39.200 158.700 39.200 158.600 V 155.700 C 39.200 155.645 39.155 155.600 39.100 155.600 H 33.100 C 33.045 155.600 33.000 155.645 33.000 155.700 V 158.600 C 33.000 158.700 33.100 158.600 33.000 158.600 H 27.200 C 27.100 158.600 27.200 158.700 27.200 158.600 V 155.700 C 27.200 155.645 27.155 155.600 27.100 155.600 H 21.100 C 21.045 155.600 21.000 155.645 21.000 155.700 V 158.600 C 21.000 158.700 21.100 158.600 21.000 158.600 H 13.100 C 13.045 158.600 13.000 158.645 13.000 158.700 V 164.600 C 13.000 164.700 13.100 164.600 13.000 164.600 H 10.100 C 10.045 164.600 10.000 164.645 10.000 164.700 V 170.700 C 10.000 170.755 10.045 170.800 10.100 170.800 H 13.000 C 13.100 170.800 13.000 170.700 13.000 170.800 V 176.600 C 13.000 176.700 13.100 176.600 13.000 176.600 H 10.100 C 10.045 176.600 10.000 176.645 10.000 176.700 V 182.700 C 10.000 182.755 10.045 182.800 10.100 182.800 H 13.000 C 13.100 182.800 13.000 182.700 13.000 182.800 V 188.600 C 13.000 188.700 13.100 188.600 13.000 188.600 H 10.100 C 10.045 188.600 10.000 188.645 10.000 188.700 V 194.700 C 10.000 194.755 10.045 194.800 10.100 194.800 H 13.000 C 13.100 194.800 13.000 194.700 13.000 194.800 V 200.600 C 13.000 200.700 13.100 200.600 13.000 200.600 H 10.100 C 10.045 200.600 10.000 200.645 10.000 200.700 V 206.700 C 10.000 206.755 10.045 206.800 10.100 206.800 H 13.000 C 13.100 206.800 13.000 206.700 13.000 206.800 V 212.700 C 13.000 212.755 13.045 212.800 13.100 212.800 Z" stroke="rgb(0,0,0)" stroke-width="0.20" />
  <text dominant-baseline="hanging" font-size="4px" style="font-family: sans-serif ; font-weight: normal; font-style: normal; fill: rgb(255,0,0)" text-anchor="middle" transform="matrix( 1.000 0.000 0.000 1.000 60.100 183.800 )">lid top</text>
</g>
<g id="p-5" style="fill:none;stroke-linecap:round;stroke-linejoin:round;">
  <path d="M 13.100 154.100 H 107.100 H 110.100 C 110.155 154.100 110.200 154.055 110.200 154.000 V 149.500 C 110.200 149.445 110.155 149.400 110.100 149.400 H 107.200 C 107.100 149.400 107.200 149.500 107.200 149.400 V 143.600 C 107.200 143.500 107.100 143.600 107.200 143.600 H 110.100 C 110.155 143.600 110.200 143.555 110.200 143.500 V 139.000 C 110.200 138.945 110.155 138.900 110.100 138.900 H 107.100 H 99.100 C 99.045 138.900 99.000 138.945 99.000 139.000 V 141.900 C 99.000 142.000 99.100 141.900 99.000 141.900 H 93.200 C 93.100 141.900 93.200 142.000 93.200 141.900 V 139.000 C 93.200 138.945 93.155 138.900 93.100 138.900 H 87.100 C 87.045 138.900 87.000 138.945 87.000 139.000 V 141.900 C 87.000 142.000 87.100 141.900 87.000 141.900 H 81.200 C 81.100 141.900 81.200 142.000 81.200 141.900 V 139.000 C 81.200 138.945 81.155 138.900 81.100 138.900 H 75.100 C 75.045 138.900 75.000 138.945 75.000 139.000 V 141.900 C 75.000 142.000 75.100 141.900 75.000 141.900 H 69.200 C 69.100 141.900 69.200 142.000 69.200 141.900 V 139.000 C 69.200 138.945 69.155 138.900 69.100 138.900 H 63.100 C 63.045 138.900 63.000 138.945 63.000 139.000 V 141.900 C 63.000 142.000 63.100 141.900 63.000 141.900 H 57.200 C 57.100 141.900 57.200 142.000 57.200 141.900 V 139.000 C 57.200 138.945 57.155 138.900 57.100 138.900 H 51.100 C 51.045 138.900 51.000 138.945 51.000 139.000 V 141.900 C 51.000 142.000 51.100 141.900 51.000 141.900 H 45.200 C 45.100 141.900 45.200 142.000 45.200 141.900 V 139.000 C 45.200 138.945 45.155 138.900 45.100 138.900 H 39.100 C 39.045 138.900 39.000 138.945 39.000 139.000 V 141.900 C 39.000 142.000 39.100 141.900 39.000 141.900 H 33.200 C 33.100 141.900 33.200 142.000 33.200 141.900 V 139.000 C 33.200 138.945 33.155 138.900 33.100 138.900 H 27.100 C 27.045 138.900 27.000 138.945 27.000 139.000 V 141.900 C 27.000 142.000 27.100 141.900 27.000 141.900 H 21.200 C 21.100 141.900 21.200 142.000 21.200 141.900 V 139.000 C 21.200 138.945 21.155 138.900 21.100 138.900 H 13.100 H 10.100 C 10.045 138.900 10.000 138.945 10.000 139.000 V 143.500 C 10.000 143.555 10.045 143.600 10.100 143.600 H 13.000 C 13.100 143.600 13.000 143.500 13.000 143.600 V 149.400 C 13.000 149.500 13.100 149.400 13.000 149.400 H 10.100 C 10.045 149.400 10.000 149.445 10.000 149.500 V 154.000 C 10.000 154.055 10.045 154.100 10.100 154.100 H 13.100 Z" stroke="rgb(0,0,0)" stroke-width="0.20" />
  <text dominant-baseline="hanging" font-size="4px" style="font-family: sans-serif ; font-weight: normal; font-style: normal; fill: rgb(255,0,0)" text-anchor="middle" transform="matrix( 1.000 0.000 0.000 1.000 60.100 144.600 )">lid front</text>
</g>
<g id="p-6" style="fill:none;stroke-linecap:round;stroke-linejoin:round;">
  <path d="M 13.100 137.400 H 107.100 H 110.100 C 110.155 137.400 110.200 137.355 110.200 137.300 V 132.800 C 110.200 132.745 110.155 132.700 110.100 132.700 H 107.200 C 107.100 132.700 107.200 132.800 107.200 132.700 V 126.900 C 107.200 126.800 107.100 126.900 107.200 126.900 H 110.100 C 110.155 126.900 110.200 126.855 110.200 126.800 V 122.300 C 110.200 122.245 110.155 122.200 110.100 122.200 H 107.100 H 99.100 C 99.045 122.200 99.000 122.245 99.000 122.300 V 125.200 C 99.000 125.300 99.100 125.200 99.000 125.200 H 93.200 C 93.100 125.200 93.200 125.300 93.200 125.200 V 122.300 C 93.200 122.245 93.155 122.200 93.100 122.200 H 87.100 C 87.045 122.200 87.000 122.245 87.000 122.300 V 125.200 C 87.000 125.300 87.100 125.200 87.000 125.200 H 81.200 C 81.100 125.200 81.200 125.300 81.200 125.200 V 122.300 C 81.200 122.245 81.155 122.200 81.100 122.200 H 75.100 C 75.045 122.200 75.000 122.245 75.000 122.300 V 125.200 C 75.000 125.300 75.100 125.200 75.000 125.200 H 69.200 C 69.100 125.200 69.200 125.300 69.200 125.200 V 122.300 C 69.200 122.245 69.155 122.200 69.100 122.200 H 63.100 C 63.045 122.200 63.000 122.245 63.000 122.300 V 125.200 C 63.000 125.300 63.100 125.200 63.000 125.200 H 57.200 C 57.100 125.200 57.200 125.300 57.200 125.200 V 122.300 C 57.200 122.245 57.155 122.200 57.100 122.200 H 51.100 C 51.045 122.200 51.000 122.245 51.000 122.300 V 125.200 C 51.000 125.300 51.100 125.200 51.000 125.200 H 45.200 C 45.100 125.200 45.200 125.300 45.200 125.200 V 122.300 C 45.200 122.245 45.155 122.200 45.100 122.200 H 39.100 C 39.045 122.200 39.000 122.245 39.000 122.300 V 125.200 C 39.000 125.300 39.100 125.200 39.000 125.200 H 33.200 C 33.100 125.200 33.200 125.300 33.200 125.200 V 122.300 C 33.200 122.245 33.155 122.200 33.100 122.200 H 27.100 C 27.045 122.200 27.000 122.245 27.000 122.300 V 125.200 C 27.000 125.300 27.100 125.200 27.000 125.200 H 21.200 C 21.100 125.200 21.200 125.300 21.200 125.200 V 122.300 C 21.200 122.245 21.155 122.200 21.100 122.200 H 13.100 H 10.100 C 10.045 122.200 10.000 122.245 10.000 122.300 V 126.800 C 10.000 126.855 10.045 126.900 10.100 126.900 H 13.000 C 13.100 126.900 13.000 126.800 13.000 126.900 V 132.700 C 13.000 132.800 13.100 132.700 13.000 132.700 H 10.100 C 10.045 132.700 10.000 132.745 10.000 132.800 V 137.300 C 10.000 137.355 10.045 137.400 10.100 137.400 H 13.100 Z" stroke="rgb(0,0,0)" stroke-width="0.20" />
  <text dominant-baseline="hanging" font-size="4px" style="font-family: sans-serif ; font-weight: normal; font-style: normal; fill: rgb(255,0,0)" text-anchor="middle" transform="matrix( 1.000 0.000 0.000 1.000 60.100 127.900 )">lid back</text>
</g>
<g id="p-7" style="fill:none;stroke-linecap:round;stroke-linejoin:round;">
  <path d="M 13.100 120.700 H 67.100 C 67.155 120.700 67.200 120.655 67.200 120.600 V 116.200 C 67.200 116.100 67.100 116.200 67.200 116.200 H 70.100 C 70.155 116.200 70.200 116.155 70.200 116.100 V 110.100 C 70.200 110.045 70.155 110.000 70.100 110.000 H 67.200 C 67.100 110.000 67.200 110.100 67.200 110.000 V 105.600 C 67.200 105.545 67.155 105.500 67.100 105.500 H 61.100 C 61.045 105.500 61.000 105.545 61.000 105.600 V 108.500 C 61.000 108.600 61.100 108.500 61.000 108.500 H 55.200 C 55.100 108.500 55.200 108.600 55.200 108.500 V 105.600 C 55.200 105.545 55.155 105.500 55.100 105.500 H 49.100 C 49.045 105.500 49.000 105.545 49.000 105.600 V 108.500 C 49.000 108.600 49.100 108.500 49.000 108.500 H 43.200 C 43.100 108.500 43.200 108.600 43.200 108.500 V 105.600 C 43.200 105.545 43.155 105.500 43.100 105.500 H 37.100 C 37.045 105.500 37.000 105.545 37.000 105.600 V 108.500 C 37.000 108.600 37.100 108.500 37.000 108.500 H 31.200 C 31.100 108.500 31.200 108.600 31.200 108.500 V 105.600 C 31.200 105.545 31.155 105.500 31.100 105.500 H 25.100 C 25.045 105.500 25.000 105.545 25.000 105.600 V 108.500 C 25.000 108.600 25.100 108.500 25.000 108.500 H 19.200 C 19.100 108.500 19.200 108.600 19.200 108.500 V 105.600 C 19.200 105.545 19.155 105.500 19.100 105.500 H 13.100 C 13.045 105.500 13.000 105.545 13.000 105.600 V 110.000 C 13.000 110.100 13.100 110.000 13.000 110.000 H 10.100 C 10.045 110.000 10.000 110.045 10.000 110.100 V 116.100 C 10.000 116.155 10.045 116.200 10.100 116.200 H 13.000 C 13.100 116.200 13.000 116.100 13.000 116.200 V 120.600 C 13.000 120.655 13.045 120.700 13.100 120.700 Z" stroke="rgb(0,0,0)" stroke-width="0.20" />
  <text dominant-baseline="hanging" font-size="4px" style="font-family: sans-serif ; font-weight: normal; font-style: normal; fill: rgb(255,0,0)" text-anchor="middle" transform="matrix( 1.000 0.000 0.000 1.000 40.100 111.200 )">lid left</text>
</g>
<g id="p-8" style="fill:none;stroke-linecap:round;stroke-linejoin:round;">
  <path d="M 13.100 104.000 H 67.100 C 67.155 104.000 67.200 103.955 67.200 103.900 V 99.500 C 67.200 99.400 67.100 99.500 67.200 99.500 H 70.100 C 70.155 99.500 70.200 99.455 70.200 99.400 V 93.400 C 70.200 93.345 70.155 93.300 70.100 93.300 H 67.200 C 67.100 93.300 67.200 93.400 67.200 93.300 V 88.900 C 67.200 88.845 67.155 88.800 67.100 88.800 H 61.100 C 61.045 88.800 61.000 88.845 61.000 88.900 V 91.800 C 61.000 91.900 61.100 91.800 61.000 91.800 H 55.200 C 55.100 91.800 55.200 91.900 55.200 91.800 V 88.900 C 55.200 88.845 55.155 88.800 55.100 88.800 H 49.100 C 49.045 88.800 49.000 88.845 49.000 88.900 V 91.800 C 49.000 91.900 49.100 91.800 49.000 91.800 H 43.200 C 43.100 91.800 43.200 91.900 43.200 91.800 V 88.900 C 43.200 88.845 43.155 88.800 43.100 88.800 H 37.100 C 37.045 88.800 37.000 88.845 37.000 88.900 V 91.800 C 37.000 91.900 37.100 91.800 37.000 91.800 H 31.200 C 31.100 91.800 31.200 91.900 31.200 91.800 V 88.900 C 31.200 88.845 31.155 88.800 31.100 88.800 H 25.100 C 25.045 88.800 25.000 88.845 25.000 88.900 V 91.800 C 25.000 91.900 25.100 91.800 25.000 91.800 H 19.200 C 19.100 91.800 19.200 91.900 19.200 91.800 V 88.900 C 19.200 88.845 19.155 88.800 19.100 88.800 H 13.100 C 13.045 88.800 13.000 88.845 13.000 88.900 V 93.300 C 13.000 93.400 13.100 93.300 13.000 93.300 H 10.100 C 10.045 93.300 10.000 93.345 10.000 93.400 V 99.400 C 10.000 99.455 10.045 99.500 10.100 99.500 H 13.000 C 13.100 99.500 13.000 99.400 13.000 99.500 V 103.900 C 13.000 103.955 13.045 104.000 13.100 104.000 Z" stroke="rgb(0,0,0)" stroke-width="0.20" />
  <text dominant-baseline="hanging" font-size="4px" style="font-family: sans-serif ; font-weight: normal; font-style: normal; fill: rgb(255,0,0)" text-anchor="middle" transform="matrix( 1.000 0.000 0.000 1.000 40.100 94.500 )">lid right</text>
</g>
<g id="p-9" style="fill:none;stroke-linecap:round;stroke-linejoin:round;">
  <path d="M 13.100 87.300 H 19.100 C 19.644 87.300 20.179 87.157 20.650 86.885 C 21.121 86.613 21.513 86.221 21.785 85.750 C 22.057 85.279 22.200 84.744 22.200 84.200 V 69.200 C 22.200 69.145 22.155 69.100 22.100 69.100 H 10.100 C 10.045 69.100 10.000 69.145 10.000 69.200 V 84.200 C 10.000 84.744 10.143 85.279 10.415 85.750 C 10.687 86.221 11.079 86.613 11.550 86.885 C 12.021 87.157 12.556 87.300 13.100 87.300 Z" stroke="rgb(0,0,0)" stroke-width="0.20" />
  <text dominant-baseline="hanging" font-size="4px" style="font-family: sans-serif ; font-weight: normal; font-style: normal; fill: rgb(255,0,0)" text-anchor="middle" transform="matrix( 1.000 0.000 0.000 1.000 16.100 79.100 )">brim</text>
  <text dominant-baseline="hanging" font-size="4px" style="font-family: sans-serif ; font-weight: normal; font-style: normal; fill: rgb(255,0,0)" text-anchor="middle" transform="matrix( 1.000 0.000 0.000 1.000 16.100 73.500 )">lid</text>
</g>
<g id="p-10" style="fill:none;stroke-linecap:round;stroke-linejoin:round;">
  <path d="M 13.100 67.600 H 19.100 C 19.644 67.600 20.179 67.457 20.650 67.185 C 21.121 66.913 21.513 66.521 21.785 66.050 C 22.057 65.579 22.200 65.044 22.200 64.500 V 49.500 C 22.200 49.445 22.155 49.400 22.100 49.400 H 10.100 C 10.045 49.400 10.000 49.445 10.000 49.500 V 64.500 C 10.000 65.044 10.143 65.579 10.415 66.050 C 10.687 66.521 11.079 66.913 11.550 67.185 C 12.021 67.457 12.556 67.600 13.100 67.600 Z" stroke="rgb(0,0,0)" stroke-width="0.20" />
  <text dominant-baseline="hanging" font-size="4px" style="font-family: sans-serif ; font-weight: normal; font-style: normal; fill: rgb(255,0,0)" text-anchor="middle" transform="matrix( 1.000 0.000 0.000 1.000 16.100 59.400 )">brim</text>
  <text dominant-baseline="hanging" font-size="4px" style="font-family: sans-serif ; font-weight: normal; font-style: normal; fill: rgb(255,0,0)" text-anchor="middle" transform="matrix( 1.000 0.000 0.000 1.000 16.100 53.800 )">lid</text>
</g>
<g id="p-11" style="fill:none;stroke-linecap:round;stroke-linejoin:round;">
  <path d="M 13.100 47.900 H 19.100 C 19.644 47.900 20.179 47.757 20.650 47.485 C 21.121 47.213 21.513 46.821 21.785 46.350 C 22.057 45.879 22.200 45.344 22.200 44.800 V 29.800 C 22.200 29.745 22.155 29.700 22.100 29.700 H 10.100 C 10.045 29.700 10.000 29.745 10.000 29.800 V 44.800 C 10.000 45.344 10.143 45.879 10.415 46.350 C 10.687 46.821 11.079 47.213 11.550 47.485 C 12.021 47.757 12.556 47.900 13.100 47.900 Z" stroke="rgb(0,0,0)" stroke-width="0.20" />
  <text dominant-baseline="hanging" font-size="4px" style="font-family: sans-serif ; font-weight: normal; font-style: normal; fill: rgb(255,0,0)" text-anchor="middle" transform="matrix( 1.000 0.000 0.000 1.000 16.100 39.700 )">brim</text>
  <text dominant-baseline="hanging" font-size="4px" style="font-family: sans-serif ; font-weight: normal; font-style: normal; fill: rgb(255,0,0)" text-anchor="middle" transform="matrix( 1.000 0.000 0.000 1.000 16.100 34.100 )">lid</text>
</g>
<g id="p-12" style="fill:none;stroke-linecap:round;stroke-linejoin:round;">
  <path d="M 13.100 28.200 H 19.100 C 19.644 28.200 20.179 28.057 20.650 27.785 C 21.121 27.513 21.513 27.121 21.785 26.650 C 22.057 26.179 22.200 25.644 22.200 25.100 V 10.100 C 22.200 10.045 22.155 10.000 22.100 10.000 H 10.100 C 10.045 10.000 10.000 10.045 10.000 10.100 V 25.100 C 10.000 25.644 10.143 26.179 10.415 26.650 C 10.687 27.121 11.079 27.513 11.550 27.785 C 12.021 28.057 12.556 28.200 13.100 28.200 Z" stroke="rgb(0,0,0)" stroke-width="0.20" />
  <text dominant-baseline="hanging" font-size="4px" style="font-family: sans-serif ; font-weight: normal; font-style: normal; fill: rgb(255,0,0)" text-anchor="middle" transform="matrix( 1.000 0.000 0.000 1.000 16.100 20.000 )">brim</text>
  <text dominant-baseline="hanging" font-size="4px" style="font-family: sans-serif ; font-weight: normal; font-style: normal; fill: rgb(255,0,0)" text-anchor="middle" transform="matrix( 1.000 0.000 0.000 1.000 16.100 14.400 )">lid</text>
</g>
<g id="p-13" style="fill:none;stroke-linecap:round;stroke-linejoin:round;">
  <path d="M 123.800 477.700 H 120.900 C 120.800 477.700 120.900 477.800 120.900 477.700 V 474.900 C 120.900 474.800 120.800 474.900 120.900 474.900 H 126.700 C 126.800 474.900 126.700 474.800 126.700 474.900 V 477.700 C 126.700 477.800 126.800 477.700 126.700 477.700 H 123.800 Z" stroke="rgb(0,0,255)" stroke-width="0.20" />
  <path d="M 135.800 477.700 H 132.900 C 132.800 477.700 132.900 477.800 132.900 477.700 V 474.900 C 132.900 474.800 132.800 474.900 132.900 474.900 H 138.700 C 138.800 474.900 138.700 474.800 138.700 474.900 V 477.700 C 138.700 477.800 138.800 477.700 138.700 477.700 H 135.800 Z" stroke="rgb(0,0,255)" stroke-width="0.20" />
  <path d="M 147.800 477.700 H 144.900 C 144.800 477.700 144.900 477.800 144.900 477.700 V 474.900 C 144.900 474.800 144.800 474.900 144.900 474.900 H 150.700 C 150.800 474.900 150.700 474.800 150.700 474.900 V 477.700 C 150.700 477.800 150.800 477.700 150.700 477.700 H 147.800 Z" stroke="rgb(0,0,255)" stroke-width="0.20" />
  <path d="M 159.800 477.700 H 156.900 C 156.800 477.700 156.900 477.800 156.900 477.700 V 474.900 C 156.900 474.800 156.800 474.900 156.900 474.900 H 162.700 C 162.800 474.900 162.700 474.800 162.700 474.900 V 477.700 C 162.700 477.800 162.800 477.700 162.700 477.700 H 159.800 Z" stroke="rgb(0,0,255)" stroke-width="0.20" />
  <path d="M 114.800 480.900 H 168.800 C 168.855 480.900 168.900 480.855 168.900 480.800 V 469.900 C 168.900 469.800 168.800 469.900 168.900 469.900 H 171.800 C 171.855 469.900 171.900 469.855 171.900 469.800 V 463.800 C 171.900 463.745 171.855 463.700 171.800 463.700 H 168.900 C 168.800 463.700 168.900 463.800 168.900 463.700 V 457.900 C 168.900 457.800 168.800 457.900 168.900 457.900 H 171.800 C 171.855 457.900 171.900 457.855 171.900 457.800 V 451.800 C 171.900 451.745 171.855 451.700 171.800 451.700 H 168.900 C 168.800 451.700 168.900 451.800 168.900 451.700 V 445.900 C 168.900 445.800 168.800 445.900 168.900 445.900 H 171.800 C 171.855 445.900 171.900 445.855 171.900 445.800 V 439.800 C 171.900 439.745 171.855 439.700 171.800 439.700 H 168.900 C 168.800 439.700 168.900 439.800 168.900 439.700 V 433.900 C 168.900 433.800 168.800 433.900 168.900 433.900 H 171.800 C 171.855 433.900 171.900 433.855 171.900 433.800 V 427.800 C 171.900 427.745 171.855 427.700 171.800 427.700 H 168.900 C 168.800 427.700 168.900 427.800 168.900 427.700 V 421.900 C 168.900 421.800 168.800 421.900 168.900 421.900 H 171.800 C 171.855 421.900 171.900 421.855 171.900 421.800 V 415.800 C 171.900 415.745 171.855 415.700 171.800 415.700 H 168.900 C 168.800 415.700 168.900 415.800 168.900 415.700 V 409.900 C 168.900 409.800 168.800 409.900 168.900 409.900 H 171.800 C 171.855 409.900 171.900 409.855 171.900 409.800 V 403.800 C 171.900 403.745 171.855 403.700 171.800 403.700 H 168.900 C 168.800 403.700 168.900 403.800 168.900 403.700 V 397.900 C 168.900 397.800 168.800 397.900 168.900 397.900 H 171.800 C 171.855 397.900 171.900 397.855 171.900 397.800 V 391.800 C 171.900 391.745 171.855 391.700 171.800 391.700 H 168.900 C 168.800 391.700 168.900 391.800 168.900 391.700 V 380.800 C 168.900 380.745 168.855 380.700 168.800 380.700 H 114.800 C 114.745 380.700 114.700 380.745 114.700 380.800 V 391.700 C 114.700 391.800 114.800 391.700 114.700 391.700 H 111.800 C 111.745 391.700 111.700 391.745 111.700 391.800 V 397.800 C 111.700 397.855 111.745 397.900 111.800 397.900 H 114.700 C 114.800 397.900 114.700 397.800 114.700 397.900 V 403.700 C 114.700 403.800 114.800 403.700 114.700 403.700 H 111.800 C 111.745 403.700 111.700 403.745 111.700 403.800 V 409.800 C 111.700 409.855 111.745 409.900 111.800 409.900 H 114.700 C 114.800 409.900 114.700 409.800 114.700 409.900 V 415.700 C 114.700 415.800 114.800 415.700 114.700 415.700 H 111.800 C 111.745 415.700 111.700 415.745 111.700 415.800 V 421.800 C 111.700 421.855 111.745 421.900 111.800 421.900 H 114.700 C 114.800 421.900 114.700 421.800 114.700 421.900 V 427.700 C 114.700 427.800 114.800 427.700 114.700 427.700 H 111.800 C 111.745 427.700 111.700 427.745 111.700 427.800 V 433.800 C 111.700 433.855 111.745 433.900 111.800 433.900 H 114.700 C 114.800 433.900 114.700 433.800 114.700 433.900 V 439.700 C 114.700 439.800 114.800 439.700 114.700 439.700 H 111.800 C 111.745 439.700 111.700 439.745 111.700 439.800 V 445.800 C 111.700 445.855 111.745 445.900 111.800 445.900 H 114.700 C 114.800 445.900 114.700 445.800 114.700 445.900 V 451.700 C 114.700 451.800 114.800 451.700 114.700 451.700 H 111.800 C 111.745 451.700 111.700 451.745 111.700 451.800 V 457.800 C 111.700 457.855 111.745 457.900 111.800 457.900 H 114.700 C 114.800 457.900 114.700 457.800 114.700 457.900 V 463.700 C 114.700 463.800 114.800 463.700 114.700 463.700 H 111.800 C 111.745 463.700 111.700 463.745 111.700 463.800 V 469.800 C 111.700 469.855 111.745 469.900 111.800 469.900 H 114.700 C 114.800 469.900 114.700 469.800 114.700 469.900 V 480.800 C 114.700 480.855 114.745 480.900 114.800 480.900 Z" stroke="rgb(0,0,0)" stroke-width="0.20" />
</g>
<g id="p-14" style="fill:none;stroke-linecap:round;stroke-linejoin:round;">
  <path d="M 123.800 376.000 H 120.900 C 120.800 376.000 120.900 376.100 120.900 376.000 V 373.200 C 120.900 373.100 120.800 373.200 120.900 373.200 H 126.700 C 126.800 373.200 126.700 373.100 126.700 373.200 V 376.000 C 126.700 376.100 126.800 376.000 126.700 376.000 H 123.800 Z" stroke="rgb(0,0,255)" stroke-width="0.20" />
  <path d="M 135.800 376.000 H 132.900 C 132.800 376.000 132.900 376.100 132.900 376.000 V 373.200 C 132.900 373.100 132.800 373.200 132.900 373.200 H 138.700 C 138.800 373.200 138.700 373.100 138.700 373.200 V 376.000 C 138.700 376.100 138.800 376.000 138.700 376.000 H 135.800 Z" stroke="rgb(0,0,255)" stroke-width="0.20" />
  <path d="M 147.800 376.000 H 144.900 C 144.800 376.000 144.900 376.100 144.900 376.000 V 373.200 C 144.900 373.100 144.800 373.200 144.900 373.200 H 150.700 C 150.800 373.200 150.700 373.100 150.700 373.200 V 376.000 C 150.700 376.100 150.800 376.000 150.700 376.000 H 147.800 Z" stroke="rgb(0,0,255)" stroke-width="0.20" />
  <path d="M 159.800 376.000 H 156.900 C 156.800 376.000 156.900 376.100 156.900 376.000 V 373.200 C 156.900 373.100 156.800 373.200 156.900 373.200 H 162.700 C 162.800 373.200 162.700 373.100 162.700 373.200 V 376.000 C 162.700 376.100 162.800 376.000 162.700 376.000 H 159.800 Z" stroke="rgb(0,0,255)" stroke-width="0.20" />
  <path d="M 114.800 379.200 H 168.800 C 168.855 379.200 168.900 379.155 168.900 379.100 V 368.200 C 168.900 368.100 168.800 368.200 168.900 368.200 H 171.800 C 171.855 368.200 171.900 368.155 171.900 368.100 V 362.100 C 171.900 362.045 171.855 362.000 171.800 362.000 H 168.900 C 168.800 362.000 168.900 362.100 168.900 362.000 V 356.200 C 168.900 356.100 168.800 356.200 168.900 356.200 H 171.800 C 171.855 356.200 171.900 356.155 171.900 356.100 V 350.100 C 171.900 350.045 171.855 350.000 171.800 350.000 H 168.900 C 168.800 350.000 168.900 350.100 168.900 350.000 V 344.200 C 168.900 344.100 168.800 344.200 168.900 344.200 H 171.800 C 171.855 344.200 171.900 344.155 171.900 344.100 V 338.100 C 171.900 338.045 171.855 338.000 171.800 338.000 H 168.900 C 168.800 338.000 168.900 338.100 168.900 338.000 V 332.200 C 168.900 332.100 168.800 332.200 168.900 332.200 H 171.800 C 171.855 332.200 171.900 332.155 171.900 332.100 V 326.100 C 171.900 326.045 171.855 326.000 171.800 326.000 H 168.900 C 168.800 326.000 168.900 326.100 168.900 326.000 V 320.200 C 168.900 320.100 168.800 320.200 168.900 320.200 H 171.800 C 171.855 320.200 171.900 320.155 171.900 320.100 V 314.100 C 171.900 314.045 171.855 314.000 171.800 314.000 H 168.900 C 168.800 314.000 168.900 314.100 168.900 314.000 V 308.200 C 168.900 308.100 168.800 308.200 168.900 308.200 H 171.800 C 171.855 308.200 171.900 308.155 171.900 308.100 V 302.100 C 171.900 302.045 171.855 302.000 171.800 302.000 H 168.900 C 168.800 302.000 168.900 302.100 168.900 302.000 V 296.200 C 168.900 296.100 168.800 296.200 168.900 296.200 H 171.800 C 171.855 296.200 171.900 296.155 171.900 296.100 V 290.100 C 171.900 290.045 171.855 290.000 171.800 290.000 H 168.900 C 168.800 290.000 168.900 290.100 168.900 290.000 V 279.100 C 168.900 279.045 168.855 279.000 168.800 279.000 H 114.800 C 114.745 279.000 114.700 279.045 114.700 279.100 V 290.000 C 114.700 290.100 114.800 290.000 114.700 290.000 H 111.800 C 111.745 290.000 111.700 290.045 111.700 290.100 V 296.100 C 111.700 296.155 111.745 296.200 111.800 296.200 H 114.700 C 114.800 296.200 114.700 296.100 114.700 296.200 V 302.000 C 114.700 302.100 114.800 302.000 114.700 302.000 H 111.800 C 111.745 302.000 111.700 302.045 111.700 302.100 V 308.100 C 111.700 308.155 111.745 308.200 111.800 308.200 H 114.700 C 114.800 308.200 114.700 308.100 114.700 308.200 V 314.000 C 114.700 314.100 114.800 314.000 114.700 314.000 H 111.800 C 111.745 314.000 111.700 314.045 111.700 314.100 V 320.100 C 111.700 320.155 111.745 320.200 111.800 320.200 H 114.700 C 114.800 320.200 114.700 320.100 114.700 320.200 V 326.000 C 114.700 326.100 114.800 326.000 114.700 326.000 H 111.800 C 111.745 326.000 111.700 326.045 111.700 326.100 V 332.100 C 111.700 332.155 111.745 332.200 111.800 332.200 H 114.700 C 114.800 332.200 114.700 332.100 114.700 332.200 V 338.000 C 114.700 338.100 114.800 338.000 114.700 338.000 H 111.800 C 111.745 338.000 111.700 338.045 111.700 338.100 V 344.100 C 111.700 344.155 111.745 344.200 111.800 344.200 H 114.700 C 114.800 344.200 114.700 344.100 114.700 344.200 V 350.000 C 114.700 350.100 114.800 350.000 114.700 350.000 H 111.800 C 111.745 350.000 111.700 350.045 111.700 350.100 V 356.100 C 111.700 356.155 111.745 356.200 111.800 356.200 H 114.700 C 114.800 356.200 114.700 356.100 114.700 356.200 V 362.000 C 114.700 362.100 114.800 362.000 114.700 362.000 H 111.800 C 111.745 362.000 111.700 362.045 111.700 362.100 V 368.100 C 111.700 368.155 111.745 368.200 111.800 368.200 H 114.700 C 114.800 368.200 114.700 368.100 114.700 368.200 V 379.100 C 114.700 379.155 114.745 379.200 114.800 379.200 Z" stroke="rgb(0,0,0)" stroke-width="0.20" />
</g>
</svg>