<?xml version='1.0' encoding='utf-8'?>
<svg height="412.70mm" viewBox="0.0 0.0 181.90 412.70" width="181.90mm" xmlns="http://www.w3.org/2000/svg" xmlns:cc="http://creativecommons.org/ns#" xmlns:dc="http://purl.org/dc/elements/1.1/" xmlns:inkscape="http://www.inkscape.org/namespaces/inkscape" xmlns:rdf="http://www.w3.org/1999/02/22-rdf-syntax-ns#" xmlns:svg="http://www.w3.org/2000/svg" xmlns:xlink="http://www.w3.org/1999/xlink">
<!--
ABox - A simple Box


This box is kept simple on purpose. If you need more features have a look at the UniversalBox.


Created with Boxes.py (https://boxes.hackerspace-bamberg.de/)
Command line (remove spaces between dashes): boxes ABox - -y=60 - -Lid_style=flat
-->
<title>ABox</title>
<metadata>
<rdf:RDF><cc:Work>
<dc:title>Box - ABox</dc:title>
<dc:source>boxes ABox --y=60 --Lid_style=flat</dc:source>
<dc:description>A simple Box

This box is kept simple on purpose. If you need more features have a look at the UniversalBox.

Created with Boxes.py (https://boxes.hackerspace-bamberg.de/)
Command line: boxes ABox --y=60 --Lid_style=flat
Command line short: boxes ABox --y=60 --Lid_style=flat
</dc:description>
</cc:Work></rdf:RDF></metadata>
<g id="p-0" style="fill:none;stroke-linecap:round;stroke-linejoin:round;">
  <path d="M 10.100 402.700 H 110.100 V 392.700 H 10.100 V 402.700 Z" stroke="rgb(0,0,0)" stroke-width="0.20" />
  <text dominant-baseline="hanging" font-size="6px" style="font-family: sans-serif ; font-weight: normal; font-style: normal; fill: rgb(255,0,0)" text-anchor="middle" transform="matrix( 1.000 0.000 0.000 1.000 60.100 394.700 )">100.0mm, burn:0.10mm</text>
</g>
<g id="p-1" style="fill:none;stroke-linecap:round;stroke-linejoin:round;">
  <path d="M 24.100 387.800 H 21.200 C 21.100 387.800 21.200 387.900 21.200 387.800 V 385.000 C 21.200 384.900 21.100 385.000 21.200 385.000 H 27.000 C 27.100 385.000 27.000 384.900 27.000 385.000 V 387.800 C 27.000 387.900 27.100 387.800 27.000 387.800 H 24.100 Z" stroke="rgb(0,0,255)" stroke-width="0.20" />
  <path d="M 36.100 387.800 H 33.200 C 33.100 387.800 33.200 387.900 33.200 387.800 V 385.000 C 33.200 384.900 33.100 385.000 33.200 385.000 H 39.000 C 39.100 385.000 39.000 384.900 39.000 385.000 V 387.800 C 39.000 387.900 39.100 387.800 39.000 387.800 H 36.100 Z" stroke="rgb(0,0,255)" stroke-width="0.20" />
  <path d="M 48.100 387.800 H 45.200 C 45.100 387.800 45.200 387.900 45.200 387.800 V 385.000 C 45.200 384.900 45.100 385.000 45.200 385.000 H 51.000 C 51.100 385.000 51.000 384.900 51.000 385.000 V 387.800 C 51.000 387.900 51.100 387.800 51.000 387.800 H 48.100 Z" stroke="rgb(0,0,255)" stroke-width="0.20" />
  <path d="M 60.100 387.800 H 57.200 C 57.100 387.800 57.200 387.900 57.200 387.800 V 385.000 C 57.200 384.900 57.100 385.000 57.200 385.000 H 63.000 C 63.100 385.000 63.000 384.900 63.000 385.000 V 387.800 C 63.000 387.900 63.100 387.800 63.000 387.800 H 60.100 Z" stroke="rgb(0,0,255)" stroke-width="0.20" />
  <path d="M 72.100 387.800 H 69.200 C 69.100 387.800 69.200 387.900 69.200 387.800 V 385.000 C 69.200 384.900 69.100 385.000 69.200 385.000 H 75.000 C 75.100 385.000 75.000 384.900 75.000 385.000 V 387.800 C 75.000 387.900 75.100 387.800 75.000 387.800 H 72.100 Z" stroke="rgb(0,0,255)" stroke-width="0.20" />
  <path d="M 84.100 387.800 H 81.200 C 81.100 387.800 81.200 387.900 81.200 387.800 V 385.000 C 81.200 384.900 81.100 385.000 81.200 385.000 H 87.000 C 87.100 385.000 87.000 384.900 87.000 385.000 V 387.800 C 87.000 387.900 87.100 387.800 87.000 387.800 H 84.100 Z" stroke="rgb(0,0,255)" stroke-width="0.20" />
  <path d="M 96.100 387.800 H 93.200 C 93.100 387.800 93.200 387.900 93.200 387.800 V 385.000 C 93.200 384.900 93.100 385.000 93.200 385.000 H 99.000 C 99.100 385.000 99.000 384.900 99.000 385.000 V 387.800 C 99.000 387.900 99.100 387.800 99.000 387.800 H 96.100 Z" stroke="rgb(0,0,255)" stroke-width="0.20" />
  <path d="M 13.100 391.000 H 107.100 H 110.100 C 110.155 391.000 110.200 390.955 110.200 390.900 V 379.900 C 110.200 379.845 110.155 379.800 110.100 379.800 H 107.200 C 107.100 379.800 107.200 379.900 107.200 379.800 V 374.000 C 107.200 373.900 107.100 374.000 107.200 374.000 H 110.100 C 110.155 374.000 110.200 373.955 110.200 373.900 V 367.900 C 110.200 367.845 110.155 367.800 110.100 367.800 H 107.200 C 107.100 367.800 107.200 367.900 107.200 367.800 V 362.000 C 107.200 361.900 107.100 362.000 107.200 362.000 H 110.100 C 110.155 362.000 110.200 361.955 110.200 361.900 V 355.900 C 110.200 355.845 110.155 355.800 110.100 355.800 H 107.200 C 107.100 355.800 107.200 355.900 107.200 355.800 V 350.000 C 107.200 349.900 107.100 350.000 107.200 350.000 H 110.100 C 110.155 350.000 110.200 349.955 110.200 349.900 V 343.900 C 110.200 343.845 110.155 343.800 110.100 343.800 H 107.200 C 107.100 343.800 107.200 343.900 107.200 343.800 V 338.000 C 107.200 337.900 107.100 338.000 107.200 338.000 H 110.100 C 110.155 338.000 110.200 337.955 110.200 337.900 V 331.900 C 110.200 331.845 110.155 331.800 110.100 331.800 H 107.200 C 107.100 331.800 107.200 331.900 107.200 331.800 V 326.000 C 107.200 325.900 107.100 326.000 107.200 326.000 H 110.100 C 110.155 326.000 110.200 325.955 110.200 325.900 V 319.900 C 110.200 319.845 110.155 319.800 110.100 319.800 H 107.200 C 107.100 319.800 107.200 319.900 107.200 319.800 V 314.000 C 107.200 313.900 107.100 314.000 107.200 314.000 H 110.100 C 110.155 314.000 110.200 313.955 110.200 313.900 V 307.900 C 110.200 307.845 110.155 307.800 110.100 307.800 H 107.200 C 107.100 307.800 107.200 307.900 107.200 307.800 V 302.000 C 107.200 301.900 107.100 302.000 107.200 302.000 H 110.100 C 110.155 302.000 110.200 301.955 110.200 301.900 V 290.900 C 110.200 290.845 110.155 290.800 110.100 290.800 H 107.100 H 13.100 H 10.100 C 10.045 290.800 10.000 290.845 10.000 290.900 V 301.900 C 10.000 301.955 10.045 302.000 10.100 302.000 H 13.000 C 13.100 302.000 13.000 301.900 13.000 302.000 V 307.800 C 13.000 307.900 13.100 307.800 13.000 307.800 H 10.100 C 10.045 307.800 10.000 307.845 10.000 307.900 V 313.900 C 10.000 313.955 10.045 314.000 10.100 314.000 H 13.000 C 13.100 314.000 13.000 313.900 13.000 314.000 V 319.800 C 13.000 319.900 13.100 319.800 13.000 319.800 H 10.100 C 10.045 319.800 10.000 319.845 10.000 319.900 V 325.900 C 10.000 325.955 10.045 326.000 10.100 326.000 H 13.000 C 13.100 326.000 13.000 325.900 13.000 326.000 V 331.800 C 13.000 331.900 13.100 331.800 13.000 331.800 H 10.100 C 10.045 331.800 10.000 331.845 10.000 331.900 V 337.900 C 10.000 337.955 10.045 338.000 10.100 338.000 H 13.000 C 13.100 338.000 13.000 337.900 13.000 338.000 V 343.800 C 13.000 343.900 13.100 343.800 13.000 343.800 H 10.100 C 10.045 343.800 10.000 343.845 10.000 343.900 V 349.900 C 10.000 349.955 10.045 350.000 10.100 350.000 H 13.000 C 13.100 350.000 13.000 349.900 13.000 350.000 V 355.800 C 13.000 355.900 13.100 355.800 13.000 355.800 H 10.100 C 10.045 355.800 10.000 355.845 10.000 355.900 V 361.900 C 10.000 361.955 10.045 362.000 10.100 362.000 H 13.000 C 13.100 362.000 13.000 361.900 13.000 362.000 V 367.800 C 13.000 367.900 13.100 367.800 13.000 367.800 H 10.100 C 10.045 367.800 10.000 367.845 10.000 367.900 V 373.900 C 10.000 373.955 10.045 374.000 10.100 374.000 H 13.000 C 13.100 374.000 13.000 373.900 13.000 374.000 V 379.800 C 13.000 379.900 13.100 379.800 13.000 379.800 H 10.100 C 10.045 379.800 10.000 379.845 10.000 379.900 V 390.900 C 10.000 390.955 10.045 391.000 10.100 391.000 H 13.100 Z" stroke="rgb(0,0,0)" stroke-width="0.20" />
</g>
<g id="p-2" style="fill:none;stroke-linecap:round;stroke-linejoin:round;">
  <path d="M 24.100 286.100 H 21.200 C 21.100 286.100 21.200 286.200 21.200 286.100 V 283.300 C 21.200 283.200 21.100 283.300 21.200 283.300 H 27.000 C 27.100 283.300 27.000 283.200 27.000 283.300 V 286.100 C 27.000 286.200 27.100 286.100 27.000 286.100 H 24.100 Z" stroke="rgb(0,0,255)" stroke-width="0.20" />
  <path d="M 36.100 286.100 H 33.200 C 33.100 286.100 33.200 286.200 33.200 286.100 V 283.300 C 33.200 283.200 33.100 283.300 33.200 283.300 H 39.000 C 39.100 283.300 39.000 283.200 39.000 283.300 V 286.100 C 39.000 286.200 39.100 286.100 39.000 286.100 H 36.100 Z" stroke="rgb(0,0,255)" stroke-width="0.20" />
  <path d="M 48.100 286.100 H 45.200 C 45.100 286.100 45.200 286.200 45.200 286.100 V 283.300 C 45.200 283.200 45.100 283.300 45.200 283.300 H 51.000 C 51.100 283.300 51.000 283.200 51.000 283.300 V 286.100 C 51.000 286.200 51.100 286.100 51.000 286.100 H 48.100 Z" stroke="rgb(0,0,255)" stroke-width="0.20" />
  <path d="M 60.100 286.100 H 57.200 C 57.100 286.100 57.200 286.200 57.200 286.100 V 283.300 C 57.200 283.200 57.100 283.300 57.200 283.300 H 63.000 C 63.100 283.300 63.000 283.200 63.000 283.300 V 286.100 C 63.000 286.200 63.100 286.100 63.000 286.100 H 60.100 Z" stroke="rgb(0,0,255)" stroke-width="0.20" />
  <path d="M 72.100 286.100 H 69.200 C 69.100 286.100 69.200 286.200 69.200 286.100 V 283.300 C 69.200 283.200 69.100 283.300 69.200 283.300 H 75.000 C 75.100 283.300 75.000 283.200 75.000 283.300 V 286.100 C 75.000 286.200 75.100 286.100 75.000 286.100 H 72.100 Z" stroke="rgb(0,0,255)" stroke-width="0.20" />
  <path d="M 84.100 286.100 H 81.200 C 81.100 286.100 81.200 286.200 81.200 286.100 V 283.300 C 81.200 283.200 81.100 283.300 81.200 283.300 H 87.000 C 87.100 283.300 87.000 283.200 87.000 283.300 V 286.100 C 87.000 286.200 87.100 286.100 87.000 286.100 H 84.100 Z" stroke="rgb(0,0,255)" stroke-width="0.20" />
  <path d="M 96.100 286.100 H 93.200 C 93.100 286.100 93.200 286.200 93.200 286.100 V 283.300 C 93.200 283.200 93.100 283.300 93.200 283.300 H 99.000 C 99.100 283.300 99.000 283.200 99.000 283.300 V 286.100 C 99.000 286.200 99.100 286.100 99.000 286.100 H 96.100 Z" stroke="rgb(0,0,255)" stroke-width="0.20" />
  <path d="M 13.100 289.300 H 107.100 H 110.100 C 110.155 289.300 110.200 289.255 110.200 289.200 V 278.200 C 110.200 278.145 110.155 278.100 110.100 278.100 H 107.200 C 107.100 278.100 107.200 278.200 107.200 278.100 V 272.300 C 107.200 272.200 107.100 272.300 107.200 272.300 H 110.100 C 110.155 272.300 110.200 272.255 110.200 272.200 V 266.200 C 110.200 266.145 110.155 266.100 110.100 266.100 H 107.200 C 107.100 266.100 107.200 266.200 107.200 266.100 V 260.300 C 107.200 260.200 107.100 260.300 107.200 260.300 H 110.100 C 110.155 260.300 110.200 260.255 110.200 260.200 V 254.200 C 110.200 254.145 110.155 254.100 110.100 254.100 H 107.200 C 107.100 254.100 107.200 254.200 107.200 254.100 V 248.300 C 107.200 248.200 107.100 248.300 107.200 248.300 H 110.100 C 110.155 248.300 110.200 248.255 110.200 248.200 V 242.200 C 110.200 242.145 110.155 242.100 110.100 242.100 H 107.200 C 107.100 242.100 107.200 242.200 107.200 242.100 V 236.300 C 107.200 236.200 107.100 236.300 107.200 236.300 H 110.100 C 110.155 236.300 110.200 236.255 110.200 236.200 V 230.200 C 110.200 230.145 110.155 230.100 110.100 230.100 H 107.200 C 107.100 230.100 107.200 230.200 107.200 230.100 V 224.300 C 107.200 224.200 107.100 224.300 107.200 224.300 H 110.100 C 110.155 224.300 110.200 224.255 110.200 224.200 V 218.200 C 110.200 218.145 110.155 218.100 110.100 218.100 H 107.200 C 107.100 218.100 107.200 218.200 107.200 218.100 V 212.300 C 107.200 212.200 107.100 212.300 107.200 212.300 H 110.100 C 110.155 212.300 110.200 212.255 110.200 212.200 V 206.200 C 110.200 206.145 110.155 206.100 110.100 206.100 H 107.200 C 107.100 206.100 107.200 206.200 107.200 206.100 V 200.300 C 107.200 200.200 107.100 200.300 107.200 200.300 H 110.100 C 110.155 200.300 110.200 200.255 110.200 200.200 V 189.200 C 110.200 189.145 110.155 189.100 110.100 189.100 H 107.100 H 13.100 H 10.100 C 10.045 189.100 10.000 189.145 10.000 189.200 V 200.200 C 10.000 200.255 10.045 200.300 10.100 200.300 H 13.000 C 13.100 200.300 13.000 200.200 13.000 200.300 V 206.100 C 13.000 206.200 13.100 206.100 13.000 206.100 H 10.100 C 10.045 206.100 10.000 206.145 10.000 206.200 V 212.200 C 10.000 212.255 10.045 212.300 10.100 212.300 H 13.000 C 13.100 212.300 13.000 212.200 13.000 212.300 V 218.100 C 13.000 218.200 13.100 218.100 13.000 218.100 H 10.100 C 10.045 218.100 10.000 218.145 10.000 218.200 V 224.200 C 10.000 224.255 10.045 224.300 10.100 224.300 H 13.000 C 13.100 224.300 13.000 224.200 13.000 224.300 V 230.100 C 13.000 230.200 13.100 230.100 13.000 230.100 H 10.100 C 10.045 230.100 10.000 230.145 10.000 230.200 V 236.200 C 10.000 236.255 10.045 236.300 10.100 236.300 H 13.000 C 13.100 236.300 13.000 236.200 13.000 236.300 V 242.100 C 13.000 242.200 13.100 242.100 13.000 242.100 H 10.100 C 10.045 242.100 10.000 242.145 10.000 242.200 V 248.200 C 10.000 248.255 10.045 248.300 10.100 248.300 H 13.000 C 13.100 248.300 13.000 248.200 13.000 248.300 V 254.100 C 13.000 254.200 13.100 254.100 13.000 254.100 H 10.100 C 10.045 254.100 10.000 254.145 10.000 254.200 V 260.200 C 10.000 260.255 10.045 260.300 10.100 260.300 H 13.000 C 13.100 260.300 13.000 260.200 13.000 260.300 V 266.100 C 13.000 266.200 13.100 266.100 13.000 266.100 H 10.100 C 10.045 266.100 10.000 266.145 10.000 266.200 V 272.200 C 10.000 272.255 10.045 272.300 10.100 272.300 H 13.000 C 13.100 272.300 13.000 272.200 13.000 272.300 V 278.100 C 13.000 278.200 13.100 278.100 13.000 278.100 H 10.100 C 10.045 278.100 10.000 278.145 10.000 278.200 V 289.200 C 10.000 289.255 10.045 289.300 10.100 289.300 H 13.100 Z" stroke="rgb(0,0,0)" stroke-width="0.20" />
</g>
<g id="p-3" style="fill:none;stroke-linecap:round;stroke-linejoin:round;">
  <path d="M 13.100 184.600 H 21.000 C 21.100 184.600 21.000 184.500 21.000 184.600 V 187.500 C 21.000 187.555 21.045 187.600 21.100 187.600 H 27.100 C 27.155 187.600 27.200 187.555 27.200 187.500 V 184.600 C 27.200 184.500 27.100 184.600 27.200 184.600 H 33.000 C 33.100 184.600 33.000 184.500 33.000 184.600 V 187.500 C 33.000 187.555 33.045 187.600 33.100 187.600 H 39.100 C 39.155 187.600 39.200 187.555 39.200 187.500 V 184.600 C 39.200 184.500 39.100 184.600 39.200 184.600 H 45.000 C 45.100 184.600 45.000 184.500 45.000 184.600 V 187.500 C 45.000 187.555 45.045 187.600 45.100 187.600 H 51.100 C 51.155 187.600 51.200 187.555 51.200 187.500 V 184.600 C 51.200 184.500 51.100 184.600 51.200 184.600 H 57.000 C 57.100 184.600 57.000 184.500 57.000 184.600 V 187.500 C 57.000 187.555 57.045 187.600 57.100 187.600 H 63.100 C 63.155 187.600 63.200 187.555 63.200 187.500 V 184.600 C 63.200 184.500 63.100 184.600 63.200 184.600 H 69.000 C 69.100 184.600 69.000 184.500 69.000 184.600 V 187.500 C 69.000 187.555 69.045 187.600 69.100 187.600 H 75.100 C 75.155 187.600 75.200 187.555 75.200 187.500 V 184.600 C 75.200 184.500 75.100 184.600 75.200 184.600 H 81.000 C 81.100 184.600 81.000 184.500 81.000 184.600 V 187.500 C 81.000 187.555 81.045 187.600 81.100 187.600 H 87.100 C 87.155 187.600 87.200 187.555 87.200 187.500 V 184.600 C 87.200 184.500 87.100 184.600 87.200 184.600 H 93.000 C 93.100 184.600 93.000 184.500 93.000 184.600 V 187.500 C 93.000 187.555 93.045 187.600 93.100 187.600 H 99.100 C 99.155 187.600 99.200 187.555 99.200 187.500 V 184.600 C 99.200 184.500 99.100 184.600 99.200 184.600 H 107.100 C 107.155 184.600 107.200 184.555 107.200 184.500 V 178.600 C 107.200 178.500 107.100 178.600 107.200 178.600 H 110.100 C 110.155 178.600 110.200 178.555 110.200 178.500 V 172.500 C 110.200 172.445 110.155 172.400 110.100 172.400 H 107.200 C 107.100 172.400 107.200 172.500 107.200 172.400 V 166.600 C 107.200 166.500 107.100 166.600 107.200 166.600 H 110.100 C 110.155 166.600 110.200 166.555 110.200 166.500 V 160.500 C 110.200 160.445 110.155 160.400 110.100 160.400 H 107.200 C 107.100 160.400 107.200 160.500 107.200 160.400 V 154.600 C 107.200 154.500 107.100 154.600 107.200 154.600 H 110.100 C 110.155 154.600 110.200 154.555 110.200 154.500 V 148.500 C 110.200 148.445 110.155 148.400 110.100 148.400 H 107.200 C 107.100 148.400 107.200 148.500 107.200 148.400 V 142.600 C 107.200 142.500 107.100 142.600 107.200 142.600 H 110.100 C 110.155 142.600 110.200 142.555 110.200 142.500 V 136.500 C 110.200 136.445 110.155 136.400 110.100 136.400 H 107.200 C 107.100 136.400 107.200 136.500 107.200 136.400 V 130.500 C 107.200 130.445 107.155 130.400 107.100 130.400 H 99.200 C 99.100 130.400 99.200 130.500 99.200 130.400 V 127.500 C 99.200 127.445 99.155 127.400 99.100 127.400 H 93.100 C 93.045 127.400 93.000 127.445 93.000 127.500 V 130.400 C 93.000 130.500 93.100 130.400 93.000 130.400 H 87.200 C 87.100 130.400 87.200 130.500 87.200 130.400 V 127.500 C 87.200 127.445 87.155 127.400 87.100 127.400 H 81.100 C 81.045 127.400 81.000 127.445 81.000 127.500 V 130.400 C 81.000 130.500 81.100 130.400 81.000 130.400 H 75.200 C 75.100 130.400 75.200 130.500 75.200 130.400 V 127.500 C 75.200 127.445 75.155 127.400 75.100 127.400 H 69.100 C 69.045 127.400 69.000 127.445 69.000 127.500 V 130.400 C 69.000 130.500 69.100 130.400 69.000 130.400 H 63.200 C 63.100 130.400 63.200 130.500 63.200 130.400 V 127.500 C 63.200 127.445 63.155 127.400 63.100 127.400 H 57.100 C 57.045 127.400 57.000 127.445 57.000 127.500 V 130.400 C 57.000 130.500 57.100 130.400 57.000 130.400 H 51.200 C 51.100 130.400 51.200 130.500 51.200 130.400 V 127.500 C 51.200 127.445 51.155 127.400 51.100 127.400 H 45.100 C 45.045 127.400 45.000 127.445 45.000 127.500 V 130.400 C 45.000 130.500 45.100 130.400 45.000 130.400 H 39.200 C 39.100 130.400 39.200 130.500 39.200 130.400 V 127.500 C 39.200 127.445 39.155 127.400 39.100 127.400 H 33.100 C 33.045 127.400 33.000 127.445 33.000 127.500 V 130.400 C 33.000 130.500 33.100 130.400 33.000 130.400 H 27.200 C 27.100 130.400 27.200 130.500 27.200 130.400 V 127.500 C 27.200 127.445 27.155 127.400 27.100 127.400 H 21.100 C 21.045 127.400 21.000 127.445 21.000 127.500 V 130.400 C 21.000 130.500 21.100 130.400 21.000 130.400 H 13.100 C 13.045 130.400 13.000 130.445 13.000 130.500 V 136.400 C 13.000 136.500 13.100 136.400 13.000 136.400 H 10.100 C 10.045 136.400 10.000 136.445 10.000 136.500 V 142.500 C 10.000 142.555 10.045 142.600 10.100 142.600 H 13.000 C 13.100 142.600 13.000 142.500 13.000 142.600 V 148.400 C 13.000 148.500 13.100 148.400 13.000 148.400 H 10.100 C 10.045 148.400 10.000 148.445 10.000 148.500 V 154.500 C 10.000 154.555 10.045 154.600 10.100 154.600 H 13.000 C 13.100 154.600 13.000 154.500 13.000 154.600 V 160.400 C 13.000 160.500 13.100 160.400 13.000 160.400 H 10.100 C 10.045 160.400 10.000 160.445 10.000 160.500 V 166.500 C 10.000 166.555 10.045 166.600 10.100 166.600 H 13.000 C 13.100 166.600 13.000 166.500 13.000 166.600 V 172.400 C 13.000 172.500 13.100 172.400 13.000 172.400 H 10.100 C 10.045 172.400 10.000 172.445 10.000 172.500 V 178.500 C 10.000 178.555 10.045 178.600 10.100 178.600 H 13.000 C 13.100 178.600 13.000 178.500 13.000 178.600 V 184.500 C 13.000 184.555 13.045 184.600 13.100 184.600 Z" stroke="rgb(0,0,0)" stroke-width="0.20" />
</g>
<g id="p-4" style="fill:none;stroke-linecap:round;stroke-linejoin:round;">
  <path d="M 10.100 125.900 H 104.100 C 104.155 125.900 104.200 125.855 104.200 125.800 V 71.800 C 104.200 71.745 104.155 71.700 104.100 71.700 H 10.100 C 10.045 71.700 10.000 71.745 10.000 71.800 V 125.800 C 10.000 125.855 10.045 125.900 10.100 125.900 Z" stroke="rgb(0,0,0)" stroke-width="0.20" />
  <text dominant-baseline="hanging" font-size="4px" style="font-family: sans-serif ; font-weight: normal; font-style: normal; fill: rgb(255,0,0)" text-anchor="middle" transform="matrix( 1.000 0.000 0.000 1.000 57.100 96.900 )">lid bottom</text>
</g>
<g id="p-5" style="fill:none;stroke-linecap:round;stroke-linejoin:round;">
  <path d="M 13.100 70.200 H 107.100 H 110.100 C 110.155 70.200 110.200 70.155 110.200 70.100 V 67.100 V 13.100 V 10.100 C 110.200 10.045 110.155 10.000 110.100 10.000 H 107.100 H 13.100 H 10.100 C 10.045 10.000 10.000 10.045 10.000 10.100 V 13.100 V 67.100 V 70.100 C 10.000 70.155 10.045 70.200 10.100 70.200 H 13.100 Z" stroke="rgb(0,0,0)" stroke-width="0.20" />
  <text dominant-baseline="hanging" font-size="4px" style="font-family: sans-serif ; font-weight: normal; font-style: normal; fill: rgb(255,0,0)" text-anchor="middle" transform="matrix( 1.000 0.000 0.000 1.000 60.100 38.200 )">lid top</text>
</g>
<g id="p-6" style="fill:none;stroke-linecap:round;stroke-linejoin:round;">
  <path d="M 123.800 387.800 H 120.900 C 120.800 387.800 120.900 387.900 120.900 387.800 V 385.000 C 120.900 384.900 120.800 385.000 120.900 385.000 H 126.700 C 126.800 385.000 126.700 384.900 126.700 385.000 V 387.800 C 126.700 387.900 126.800 387.800 126.700 387.800 H 123.800 Z" stroke="rgb(0,0,255)" stroke-width="0.20" />
  <path d="M 135.800 387.800 H 132.900 C 132.800 387.800 132.900 387.900 132.900 387.800 V 385.000 C 132.900 384.900 132.800 385.000 132.900 385.000 H 138.700 C 138.800 385.000 138.700 384.900 138.700 385.000 V 387.800 C 138.700 387.900 138.800 387.800 138.700 387.800 H 135.800 Z" stroke="rgb(0,0,255)" stroke-width="0.20" />
  <path d="M 147.800 387.800 H 144.900 C 144.800 387.800 144.900 387.900 144.900 387.800 V 385.000 C 144.900 384.900 144.800 385.000 144.900 385.000 H 150.700 C 150.800 385.000 150.700 384.900 150.700 385.000 V 387.800 C 150.700 387.900 150.800 387.800 150.700 387.800 H 147.800 Z" stroke="rgb(0,0,255)" stroke-width="0.20" />
  <path d="M 159.800 387.800 H 156.900 C 156.800 387.800 156.900 387.900 156.900 387.800 V 385.000 C 156.900 384.900 156.800 385.000 156.900 385.000 H 162.700 C 162.800 385.000 162.700 384.900 162.700 385.000 V 387.800 C 162.700 387.900 162.800 387.800 162.700 387.800 H 159.800 Z" stroke="rgb(0,0,255)" stroke-width="0.20" />
  <path d="M 114.800 391.000 H 168.800 C 168.855 391.000 168.900 390.955 168.900 390.900 V 380.000 C 168.900 379.900 168.800 380.000 168.900 380.000 H 171.800 C 171.855 380.000 171.900 379.955 171.900 379.900 V 373.900 C 171.900 373.845 171.855 373.800 171.800 373.800 H 168.900 C 168.800 373.800 168.900 373.900 168.900 373.800 V 368.000 C 168.900 367.900 168.800 368.000 168.900 368.000 H 171.800 C 171.855 368.000 171.900 367.955 171.900 367.900 V 361.900 C 171.900 361.845 171.855 361.800 171.800 361.800 H 168.900 C 168.800 361.800 168.900 361.900 168.900 361.800 V 356.000 C 168.900 355.900 168.800 356.000 168.900 356.000 H 171.800 C 171.855 356.000 171.900 355.955 171.900 355.900 V 349.900 C 171.900 349.845 171.855 349.800 171.800 349.800 H 168.900 C 168.800 349.800 168.900 349.900 168.900 349.800 V 344.000 C 168.900 343.900 168.800 344.000 168.900 344.000 H 171.800 C 171.855 344.000 171.900 343.955 171.900 343.900 V 337.900 C 171.900 337.845 171.855 337.800 171.800 337.800 H 168.900 C 168.800 337.800 168.900 337.900 168.900 337.800 V 332.000 C 168.900 331.900 168.800 332.000 168.900 332.000 H 171.800 C 171.855 332.000 171.900 331.955 171.900 331.900 V 325.900 C 171.900 325.845 171.855 325.800 171.800 325.800 H 168.900 C 168.800 325.800 168.900 325.900 168.900 325.800 V 320.000 C 168.900 319.900 168.800 320.000 168.900 320.000 H 171.800 C 171.855 320.000 171.900 319.955 171.900 319.900 V 313.900 C 171.900 313.845 171.855 313.800 171.800 313.800 H 168.900 C 168.800 313.800 168.900 313.900 168.900 313.800 V 308.000 C 168.900 307.900 168.800 308.000 168.900 308.000 H 171.800 C 171.855 308.000 171.900 307.955 171.900 307.900 V 301.900 C 171.900 301.845 171.855 301.800 171.800 301.800 H 168.900 C 168.800 301.800 168.900 301.900 168.900 301.800 V 290.900 C 168.900 290.845 168.855 290.800 168.800 290.800 H 114.800 C 114.745 290.800 114.700 290.845 114.700 290.900 V 301.800 C 114.700 301.900 114.800 301.800 114.700 301.800 H 111.800 C 111.745 301.800 111.700 301.845 111.700 301.900 V 307.900 C 111.700 307.955 111.745 308.000 111.800 308.000 H 114.700 C 114.800 308.000 114.700 307.900 114.700 308.000 V 313.800 C 114.700 313.900 114.800 313.800 114.700 313.800 H 111.800 C 111.745 313.800 111.700 313.845 111.700 313.900 V 319.900 C 111.700 319.955 111.745 320.000 111.800 320.000 H 114.700 C 114.800 320.000 114.700 319.900 114.700 320.000 V 325.800 C 114.700 325.900 114.800 325.800 114.700 325.800 H 111.800 C 111.745 325.800 111.700 325.845 111.700 325.900 V 331.900 C 111.700 331.955 111.745 332.000 111.800 332.000 H 114.700 C 114.800 332.000 114.700 331.900 114.700 332.000 V 337.800 C 114.700 337.900 114.800 337.800 114.700 337.800 H 111.800 C 111.745 337.800 111.700 337.845 111.700 337.900 V 343.900 C 111.700 343.955 111.745 344.000 111.800 344.000 H 114.700 C 114.800 344.000 114.700 343.900 114.700 344.000 V 349.800 C 114.700 349.900 114.800 349.800 114.700 349.800 H 111.800 C 111.745 349.800 111.700 349.845 111.700 349.900 V 355.900 C 111.700 355.955 111.745 356.000 111.800 356.000 H 114.700 C 114.800 356.000 114.700 355.900 114.700 356.000 V 361.800 C 114.700 361.900 114.800 361.800 114.700 361.800 H 111.800 C 111.745 361.800 111.700 361.845 111.700 361.900 V 367.900 C 111.700 367.955 111.745 368.000 111.800 368.000 H 114.700 C 114.800 368.000 114.700 367.900 114.700 368.000 V 373.800 C 114.700 373.900 114.800 373.800 114.700 373.800 H 111.800 C 111.745 373.800 111.700 373.845 111.700 373.900 V 379.900 C 111.700 379.955 111.745 380.000 111.800 380.000 H 114.700 C 114.800 380.000 114.700 379.900 114.700 380.000 V 390.900 C 114.700 390.955 114.745 391.000 114.800 391.000 Z" stroke="rgb(0,0,0)" stroke-width="0.20" />
</g>
<g id="p-7" style="fill:none;stroke-linecap:round;stroke-linejoin:round;">
  <path d="M 123.800 286.100 H 120.900 C 120.800 286.100 120.900 286.200 120.900 286.100 V 283.300 C 120.900 283.200 120.800 283.300 120.900 283.300 H 126.700 C 126.800 283.300 126.700 283.200 126.700 283.300 V 286.100 C 126.700 286.200 126.800 286.100 126.700 286.100 H 123.800 Z" stroke="rgb(0,0,255)" stroke-width="0.20" />
  <path d="M 135.800 286.100 H 132.900 C 132.800 286.100 132.900 286.200 132.900 286.100 V 283.300 C 132.900 283.200 132.800 283.300 132.900 283.300 H 138.700 C 138.800 283.300 138.700 283.200 138.700 283.300 V 286.100 C 138.700 286.200 138.800 286.100 138.700 286.100 H 135.800 Z" stroke="rgb(0,0,255)" stroke-width="0.20" />
  <path d="M 147.800 286.100 H 144.900 C 144.800 286.100 144.900 286.200 144.900 286.100 V 283.300 C 144.900 283.200 144.800 283.300 144.900 283.300 H 150.700 C 150.800 283.300 150.700 283.200 150.700 283.300 V 286.100 C 150.700 286.200 150.800 286.100 150.700 286.100 H 147.800 Z" stroke="rgb(0,0,255)" stroke-width="0.20" />
  <path d="M 159.800 286.100 H 156.900 C 156.800 286.100 156.900 286.200 156.900 286.100 V 283.300 C 156.900 283.200 156.800 283.300 156.900 283.300 H 162.700 C 162.800 283.300 162.700 283.200 162.700 283.300 V 286.100 C 162.700 286.200 162.800 286.100 162.700 286.100 H 159.800 Z" stroke="rgb(0,0,255)" stroke-width="0.20" />
  <path d="M 114.800 289.300 H 168.800 C 168.855 289.300 168.900 289.255 168.900 289.200 V 278.300 C 168.900 278.200 168.800 278.300 168.900 278.300 H 171.800 C 171.855 278.300 171.900 278.255 171.900 278.200 V 272.200 C 171.900 272.145 171.855 272.100 171.800 272.100 H 168.900 C 168.800 272.100 168.900 272.200 168.900 272.100 V 266.300 C 168.900 266.200 168.800 266.300 168.900 266.300 H 171.800 C 171.855 266.300 171.900 266.255 171.900 266.200 V 260.200 C 171.900 260.145 171.855 260.100 171.800 260.100 H 168.900 C 168.800 260.100 168.900 260.200 168.900 260.100 V 254.300 C 168.900 254.200 168.800 254.300 168.900 254.300 H 171.800 C 171.855 254.300 171.900 254.255 171.900 254.200 V 248.200 C 171.900 248.145 171.855 248.100 171.800 248.100 H 168.900 C 168.800 248.100 168.900 248.200 168.900 248.100 V 242.300 C 168.900 242.200 168.800 242.300 168.900 242.300 H 171.800 C 171.855 242.300 171.900 242.255 171.900 242.200 V 236.200 C 171.900 236.145 171.855 236.100 171.800 236.100 H 168.900 C 168.800 236.100 168.900 236.200 168.900 236.100 V 230.300 C 168.900 230.200 168.800 230.300 168.900 230.300 H 171.800 C 171.855 230.300 171.900 230.255 171.900 230.200 V 224.200 C 171.900 224.145 171.855 224.100 171.800 224.100 H 168.900 C 168.800 224.100 168.900 224.200 168.900 224.100 V 218.300 C 168.900 218.200 168.800 218.300 168.900 218.300 H 171.800 C 171.855 218.300 171.900 218.255 171.900 218.200 V 212.200 C 171.900 212.145 171.855 212.100 171.800 212.100 H 168.900 C 168.800 212.100 168.900 212.200 168.900 212.100 V 206.300 C 168.900 206.200 168.800 206.300 168.900 206.300 H 171.800 C 171.855 206.300 171.900 206.255 171.900 206.200 V 200.200 C 171.900 200.145 171.855 200.100 171.800 200.100 H 168.900 C 168.800 200.100 168.900 200.200 168.900 200.100 V 189.200 C 168.900 189.145 168.855 189.100 168.800 189.100 H 114.800 C 114.745 189.100 114.700 189.145 114.700 189.200 V 200.100 C 114.700 200.200 114.800 200.100 114.700 200.100 H 111.800 C 111.745 200.100 111.700 200.145 111.700 200.200 V 206.200 C 111.700 206.255 111.745 206.300 111.800 206.300 H 114.700 C 114.800 206.300 114.700 206.200 114.700 206.300 V 212.100 C 114.700 212.200 114.800 212.100 114.700 212.100 H 111.800 C 111.745 212.100 111.700 212.145 111.700 212.200 V 218.200 C 111.700 218.255 111.745 218.300 111.800 218.300 H 114.700 C 114.800 218.300 114.700 218.200 114.700 218.300 V 224.100 C 114.700 224.200 114.800 224.100 114.700 224.100 H 111.800 C 111.745 224.100 111.700 224.145 111.700 224.200 V 230.200 C 111.700 230.255 111.745 230.300 111.800 230.300 H 114.700 C 114.800 230.300 114.700 230.200 114.700 230.300 V 236.100 C 114.700 236.200 114.800 236.100 114.700 236.100 H 111.800 C 111.745 236.100 111.700 236.145 111.700 236.200 V 242.200 C 111.700 242.255 111.745 242.300 111.800 242.300 H 114.700 C 114.800 242.300 114.700 242.200 114.700 242.300 V 248.100 C 114.700 248.200 114.800 248.100 114.700 248.100 H 111.800 C 111.745 248.100 111.700 248.145 111.700 248.200 V 254.200 C 111.700 254.255 111.745 254.300 111.800 254.300 H 114.700 C 114.800 254.300 114.700 254.200 114.700 254.300 V 260.100 C 114.700 260.200 114.800 260.100 114.700 260.100 H 111.800 C 111.745 260.100 111.700 260.145 111.700 260.200 V 266.200 C 111.700 266.255 111.745 266.300 111.800 266.300 H 114.700 C 114.800 266.300 114.700 266.200 114.700 266.300 V 272.100 C 114.700 272.200 114.800 272.100 114.700 272.100 H 111.800 C 111.745 272.100 111.700 272.145 111.700 272.200 V 278.200 C 111.700 278.255 111.745 278.300 111.800 278.300 H 114.700 C 114.800 278.300 114.700 278.200 114.700 278.300 V 289.200 C 114.700 289.255 114.745 289.300 114.800 289.300 Z" stroke="rgb(0,0,0)" stroke-width="0.20" />
</g>
</svg>