<?xml version='1.0' encoding='utf-8'?>
<svg height="414.70mm" viewBox="0.0 0.0 221.90 414.70" width="221.90mm" xmlns="http://www.w3.org/2000/svg" xmlns:cc="http://creativecommons.org/ns#" xmlns:dc="http://purl.org/dc/elements/1.1/" xmlns:inkscape="http://www.inkscape.org/namespaces/inkscape" xmlns:rdf="http://www.w3.org/1999/02/22-rdf-syntax-ns#" xmlns:svg="http://www.w3.org/2000/svg" xmlns:xlink="http://www.w3.org/1999/xlink">
<!--
ABox - A simple Box


This box is kept simple on purpose. If you need more features have a look at the UniversalBox.


Created with Boxes.py (https://boxes.hackerspace-bamberg.de/)
Command line (remove spaces between dashes): boxes ABox - -y=60 - -Lid_style=chest
-->
<title>ABox</title>
<metadata>
<rdf:RDF><cc:Work>
<dc:title>Box - ABox</dc:title>
<dc:source>boxes ABox --y=60 --Lid_style=chest</dc:source>
<dc:description>A simple Box

This box is kept simple on purpose. If you need more features have a look at the UniversalBox.

Created with Boxes.py (https://boxes.hackerspace-bamberg.de/)
Command line: boxes ABox --y=60 --Lid_style=chest
Command line short: boxes ABox --y=60 --Lid_style=chest
</dc:description>
</cc:Work></rdf:RDF></metadata>
<g id="p-0" style="fill:none;stroke-linecap:round;stroke-linejoin:round;">
  <path d="M 10.100 404.700 H 110.100 V 394.700 H 10.100 V 404.700 Z" stroke="rgb(0,0,0)" stroke-width="0.20" />
  <text dominant-baseline="hanging" font-size="6px" style="font-family: sans-serif ; font-weight: normal; font-style: normal; fill: rgb(255,0,0)" text-anchor="middle" transform="matrix( 1.000 0.000 0.000 1.000 60.100 396.700 )">100.0mm, burn:0.10mm</text>
</g>
<g id="p-1" style="fill:none;stroke-linecap:round;stroke-linejoin:round;">
  <path d="M 24.100 389.800 H 21.200 C 21.100 389.800 21.200 389.900 21.200 389.800 V 387.000 C 21.200 386.900 21.100 387.000 21.200 387.000 H 27.000 C 27.100 387.000 27.000 386.900 27.000 387.000 V 389.800 C 27.000 389.900 27.100 389.800 27.000 389.800 H 24.100 Z" stroke="rgb(0,0,255)" stroke-width="0.20" />
  <path d="M 36.100 389.800 H 33.200 C 33.100 389.800 33.200 389.900 33.200 389.800 V 387.000 C 33.200 386.900 33.100 387.000 33.200 387.000 H 39.000 C 39.100 387.000 39.000 386.900 39.000 387.000 V 389.800 C 39.000 389.900 39.100 389.800 39.000 389.800 H 36.100 Z" stroke="rgb(0,0,255)" stroke-width="0.20" />
  <path d="M 48.100 389.800 H 45.200 C 45.100 389.800 45.200 389.900 45.200 389.800 V 387.000 C 45.200 386.900 45.100 387.000 45.200 387.000 H 51.000 C 51.100 387.000 51.000 386.900 51.000 387.000 V 389.800 C 51.000 389.900 51.100 389.800 51.000 389.800 H 48.100 Z" stroke="rgb(0,0,255)" stroke-width="0.20" />
  <path d="M 60.100 389.800 H 57.200 C 57.100 389.800 57.200 389.900 57.200 389.800 V 387.000 C 57.200 386.900 57.100 387.000 57.200 387.000 H 63.000 C 63.100 387.000 63.000 386.900 63.000 387.000 V 389.800 C 63.000 389.900 63.100 389.800 63.000 389.800 H 60.100 Z" stroke="rgb(0,0,255)" stroke-width="0.20" />
  <path d="M 72.100 389.800 H 69.200 C 69.100 389.800 69.200 389.900 69.200 389.800 V 387.000 C 69.200 386.900 69.100 387.000 69.200 387.000 H 75.000 C 75.100 387.000 75.000 386.900 75.000 387.000 V 389.800 C 75.000 389.900 75.100 389.800 75.000 389.800 H 72.100 Z" stroke="rgb(0,0,255)" stroke-width="0.20" />
  <path d="M 84.100 389.800 H 81.200 C 81.100 389.800 81.200 389.900 81.200 389.800 V 387.000 C 81.200 386.900 81.100 387.000 81.200 387.000 H 87.000 C 87.100 387.000 87.000 386.900 87.000 387.000 V 389.800 C 87.000 389.900 87.100 389.800 87.000 389.800 H 84.100 Z" stroke="rgb(0,0,255)" stroke-width="0.20" />
  <path d="M 96.100 389.800 H 93.200 C 93.100 389.800 93.200 389.900 93.200 389.800 V 387.000 C 93.200 386.900 93.100 387.000 93.200 387.000 H 99.000 C 99.100 387.000 99.000 386.900 99.000 387.000 V 389.800 C 99.000 389.900 99.100 389.800 99.000 389.800 H 96.100 Z" stroke="rgb(0,0,255)" stroke-width="0.20" />
  <path d="M 13.100 393.000 H 107.100 H 110.100 C 110.155 393.000 110.200 392.955 110.200 392.900 V 381.900 C 110.200 381.845 110.155 381.800 110.100 381.800 H 107.200 C 107.100 381.800 107.200 381.900 107.200 381.800 V 376.000 C 107.200 375.900 107.100 376.000 107.200 376.000 H 110.100 C 110.155 376.000 110.200 375.955 110.200 375.900 V 369.900 C 110.200 369.845 110.155 369.800 110.100 369.800 H 107.200 C 107.100 369.800 107.200 369.900 107.200 369.800 V 364.000 C 107.200 363.900 107.100 364.000 107.200 364.000 H 110.100 C 110.155 364.000 110.200 363.955 110.200 363.900 V 357.900 C 110.200 357.845 110.155 357.800 110.100 357.800 H 107.200 C 107.100 357.800 107.200 357.900 107.200 357.800 V 352.000 C 107.200 351.900 107.100 352.000 107.200 352.000 H 110.100 C 110.155 352.000 110.200 351.955 110.200 351.900 V 345.900 C 110.200 345.845 110.155 345.800 110.100 345.800 H 107.200 C 107.100 345.800 107.200 345.900 107.200 345.800 V 340.000 C 107.200 339.900 107.100 340.000 107.200 340.000 H 110.100 C 110.155 340.000 110.200 339.955 110.200 339.900 V 333.900 C 110.200 333.845 110.155 333.800 110.100 333.800 H 107.200 C 107.100 333.800 107.200 333.900 107.200 333.800 V 328.000 C 107.200 327.900 107.100 328.000 107.200 328.000 H 110.100 C 110.155 328.000 110.200 327.955 110.200 327.900 V 321.900 C 110.200 321.845 110.155 321.800 110.100 321.800 H 107.200 C 107.100 321.800 107.200 321.900 107.200 321.800 V 316.000 C 107.200 315.900 107.100 316.000 107.200 316.000 H 110.100 C 110.155 316.000 110.200 315.955 110.200 315.900 V 309.900 C 110.200 309.845 110.155 309.800 110.100 309.800 H 107.200 C 107.100 309.800 107.200 309.900 107.200 309.800 V 304.000 C 107.200 303.900 107.100 304.000 107.200 304.000 H 110.100 C 110.155 304.000 110.200 303.955 110.200 303.900 V 292.900 C 110.200 292.845 110.155 292.800 110.100 292.800 H 107.100 H 13.100 H 10.100 C 10.045 292.800 10.000 292.845 10.000 292.900 V 303.900 C 10.000 303.955 10.045 304.000 10.100 304.000 H 13.000 C 13.100 304.000 13.000 303.900 13.000 304.000 V 309.800 C 13.000 309.900 13.100 309.800 13.000 309.800 H 10.100 C 10.045 309.800 10.000 309.845 10.000 309.900 V 315.900 C 10.000 315.955 10.045 316.000 10.100 316.000 H 13.000 C 13.100 316.000 13.000 315.900 13.000 316.000 V 321.800 C 13.000 321.900 13.100 321.800 13.000 321.800 H 10.100 C 10.045 321.800 10.000 321.845 10.000 321.900 V 327.900 C 10.000 327.955 10.045 328.000 10.100 328.000 H 13.000 C 13.100 328.000 13.000 327.900 13.000 328.000 V 333.800 C 13.000 333.900 13.100 333.800 13.000 333.800 H 10.100 C 10.045 333.800 10.000 333.845 10.000 333.900 V 339.900 C 10.000 339.955 10.045 340.000 10.100 340.000 H 13.000 C 13.100 340.000 13.000 339.900 13.000 340.000 V 345.800 C 13.000 345.900 13.100 345.800 13.000 345.800 H 10.100 C 10.045 345.800 10.000 345.845 10.000 345.900 V 351.900 C 10.000 351.955 10.045 352.000 10.100 352.000 H 13.000 C 13.100 352.000 13.000 351.900 13.000 352.000 V 357.800 C 13.000 357.900 13.100 357.800 13.000 357.800 H 10.100 C 10.045 357.800 10.000 357.845 10.000 357.900 V 363.900 C 10.000 363.955 10.045 364.000 10.100 364.000 H 13.000 C 13.100 364.000 13.000 363.900 13.000 364.000 V 369.800 C 13.000 369.900 13.100 369.800 13.000 369.800 H 10.100 C 10.045 369.800 10.000 369.845 10.000 369.900 V 375.900 C 10.000 375.955 10.045 376.000 10.100 376.000 H 13.000 C 13.100 376.000 13.000 375.900 13.000 376.000 V 381.800 C 13.000 381.900 13.100 381.800 13.000 381.800 H 10.100 C 10.045 381.800 10.000 381.845 10.000 381.900 V 392.900 C 10.000 392.955 10.045 393.000 10.100 393.000 H 13.100 Z" stroke="rgb(0,0,0)" stroke-width="0.20" />
</g>
<g id="p-2" style="fill:none;stroke-linecap:round;stroke-linejoin:round;">
  <path d="M 24.100 288.100 H 21.200 C 21.100 288.100 21.200 288.200 21.200 288.100 V 285.300 C 21.200 285.200 21.100 285.300 21.200 285.300 H 27.000 C 27.100 285.300 27.000 285.200 27.000 285.300 V 288.100 C 27.000 288.200 27.100 288.100 27.000 288.100 H 24.100 Z" stroke="rgb(0,0,255)" stroke-width="0.20" />
  <path d="M 36.100 288.100 H 33.200 C 33.100 288.100 33.200 288.200 33.200 288.100 V 285.300 C 33.200 285.200 33.100 285.300 33.200 285.300 H 39.000 C 39.100 285.300 39.000 285.200 39.000 285.300 V 288.100 C 39.000 288.200 39.100 288.100 39.000 288.100 H 36.100 Z" stroke="rgb(0,0,255)" stroke-width="0.20" />
  <path d="M 48.100 288.100 H 45.200 C 45.100 288.100 45.200 288.200 45.200 288.100 V 285.300 C 45.200 285.200 45.100 285.300 45.200 285.300 H 51.000 C 51.100 285.300 51.000 285.200 51.000 285.300 V 288.100 C 51.000 288.200 51.100 288.100 51.000 288.100 H 48.100 Z" stroke="rgb(0,0,255)" stroke-width="0.20" />
  <path d="M 60.100 288.100 H 57.200 C 57.100 288.100 57.200 288.200 57.200 288.100 V 285.300 C 57.200 285.200 57.100 285.300 57.200 285.300 H 63.000 C 63.100 285.300 63.000 285.200 63.000 285.300 V 288.100 C 63.000 288.200 63.100 288.100 63.000 288.100 H 60.100 Z" stroke="rgb(0,0,255)" stroke-width="0.20" />
  <path d="M 72.100 288.100 H 69.200 C 69.100 288.100 69.200 288.200 69.200 288.100 V 285.300 C 69.200 285.200 69.100 285.300 69.200 285.300 H 75.000 C 75.100 285.300 75.000 285.200 75.000 285.300 V 288.100 C 75.000 288.200 75.100 288.100 75.000 288.100 H 72.100 Z" stroke="rgb(0,0,255)" stroke-width="0.20" />
  <path d="M 84.100 288.100 H 81.200 C 81.100 288.100 81.200 288.200 81.200 288.100 V 285.300 C 81.200 285.200 81.100 285.300 81.200 285.300 H 87.000 C 87.100 285.300 87.000 285.200 87.000 285.300 V 288.100 C 87.000 288.200 87.100 288.100 87.000 288.100 H 84.100 Z" stroke="rgb(0,0,255)" stroke-width="0.20" />
  <path d="M 96.100 288.100 H 93.200 C 93.100 288.100 93.200 288.200 93.200 288.100 V 285.300 C 93.200 285.200 93.100 285.300 93.200 285.300 H 99.000 C 99.100 285.300 99.000 285.200 99.000 285.300 V 288.100 C 99.000 288.200 99.100 288.100 99.000 288.100 H 96.100 Z" stroke="rgb(0,0,255)" stroke-width="0.20" />
  <path d="M 13.100 291.300 H 107.100 H 110.100 C 110.155 291.300 110.200 291.255 110.200 291.200 V 280.200 C 110.200 280.145 110.155 280.100 110.100 280.100 H 107.200 C 107.100 280.100 107.200 280.200 107.200 280.100 V 274.300 C 107.200 274.200 107.100 274.300 107.200 274.300 H 110.100 C 110.155 274.300 110.200 274.255 110.200 274.200 V 268.200 C 110.200 268.145 110.155 268.100 110.100 268.100 H 107.200 C 107.100 268.100 107.200 268.200 107.200 268.100 V 262.300 C 107.200 262.200 107.100 262.300 107.200 262.300 H 110.100 C 110.155 262.300 110.200 262.255 110.200 262.200 V 256.200 C 110.200 256.145 110.155 256.100 110.100 256.100 H 107.200 C 107.100 256.100 107.200 256.200 107.200 256.100 V 250.300 C 107.200 250.200 107.100 250.300 107.200 250.300 H 110.100 C 110.155 250.300 110.200 250.255 110.200 250.200 V 244.200 C 110.200 244.145 110.155 244.100 110.100 244.100 H 107.200 C 107.100 244.100 107.200 244.200 107.200 244.100 V 238.300 C 107.200 238.200 107.100 238.300 107.200 238.300 H 110.100 C 110.155 238.300 110.200 238.255 110.200 238.200 V 232.200 C 110.200 232.145 110.155 232.100 110.100 232.100 H 107.200 C 107.100 232.100 107.200 232.200 107.200 232.100 V 226.300 C 107.200 226.200 107.100 226.300 107.200 226.300 H 110.100 C 110.155 226.300 110.200 226.255 110.200 226.200 V 220.200 C 110.200 220.145 110.155 220.100 110.100 220.100 H 107.200 C 107.100 220.100 107.200 220.200 107.200 220.100 V 214.300 C 107.200 214.200 107.100 214.300 107.200 214.300 H 110.100 C 110.155 214.300 110.200 214.255 110.200 214.200 V 208.200 C 110.200 208.145 110.155 208.100 110.100 208.100 H 107.200 C 107.100 208.100 107.200 208.200 107.200 208.100 V 202.300 C 107.200 202.200 107.100 202.300 107.200 202.300 H 110.100 C 110.155 202.300 110.200 202.255 110.200 202.200 V 191.200 C 110.200 191.145 110.155 191.100 110.100 191.100 H 107.100 H 13.100 H 10.100 C 10.045 191.100 10.000 191.145 10.000 191.200 V 202.200 C 10.000 202.255 10.045 202.300 10.100 202.300 H 13.000 C 13.100 202.300 13.000 202.200 13.000 202.300 V 208.100 C 13.000 208.200 13.100 208.100 13.000 208.100 H 10.100 C 10.045 208.100 10.000 208.145 10.000 208.200 V 214.200 C 10.000 214.255 10.045 214.300 10.100 214.300 H 13.000 C 13.100 214.300 13.000 214.200 13.000 214.300 V 220.100 C 13.000 220.200 13.100 220.100 13.000 220.100 H 10.100 C 10.045 220.100 10.000 220.145 10.000 220.200 V 226.200 C 10.000 226.255 10.045 226.300 10.100 226.300 H 13.000 C 13.100 226.300 13.000 226.200 13.000 226.300 V 232.100 C 13.000 232.200 13.100 232.100 13.000 232.100 H 10.100 C 10.045 232.100 10.000 232.145 10.000 232.200 V 238.200 C 10.000 238.255 10.045 238.300 10.100 238.300 H 13.000 C 13.100 238.300 13.000 238.200 13.000 238.300 V 244.100 C 13.000 244.200 13.100 244.100 13.000 244.100 H 10.100 C 10.045 244.100 10.000 244.145 10.000 244.200 V 250.200 C 10.000 250.255 10.045 250.300 10.100 250.300 H 13.000 C 13.100 250.300 13.000 250.200 13.000 250.300 V 256.100 C 13.000 256.200 13.100 256.100 13.000 256.100 H 10.100 C 10.045 256.100 10.000 256.145 10.000 256.200 V 262.200 C 10.000 262.255 10.045 262.300 10.100 262.300 H 13.000 C 13.100 262.300 13.000 262.200 13.000 262.300 V 268.100 C 13.000 268.200 13.100 268.100 13.000 268.100 H 10.100 C 10.045 268.100 10.000 268.145 10.000 268.200 V 274.200 C 10.000 274.255 10.045 274.300 10.100 274.300 H 13.000 C 13.100 274.300 13.000 274.200 13.000 274.300 V 280.100 C 13.000 280.200 13.100 280.100 13.000 280.100 H 10.100 C 10.045 280.100 10.000 280.145 10.000 280.200 V 291.200 C 10.000 291.255 10.045 291.300 10.100 291.300 H 13.100 Z" stroke="rgb(0,0,0)" stroke-width="0.20" />
</g>
<g id="p-3" style="fill:none;stroke-linecap:round;stroke-linejoin:round;">
  <path d="M 13.100 186.600 H 21.000 C 21.100 186.600 21.000 186.500 21.000 186.600 V 189.500 C 21.000 189.555 21.045 189.600 21.100 189.600 H 27.100 C 27.155 189.600 27.200 189.555 27.200 189.500 V 186.600 C 27.200 186.500 27.100 186.600 27.200 186.600 H 33.000 C 33.100 186.600 33.000 186.500 33.000 186.600 V 189.500 C 33.000 189.555 33.045 189.600 33.100 189.600 H 39.100 C 39.155 189.600 39.200 189.555 39.200 189.500 V 186.600 C 39.200 186.500 39.100 186.600 39.200 186.600 H 45.000 C 45.100 186.600 45.000 186.500 45.000 186.600 V 189.500 C 45.000 189.555 45.045 189.600 45.100 189.600 H 51.100 C 51.155 189.600 51.200 189.555 51.200 189.500 V 186.600 C 51.200 186.500 51.100 186.600 51.200 186.600 H 57.000 C 57.100 186.600 57.000 186.500 57.000 186.600 V 189.500 C 57.000 189.555 57.045 189.600 57.100 189.600 H 63.100 C 63.155 189.600 63.200 189.555 63.200 189.500 V 186.600 C 63.200 186.500 63.100 186.600 63.200 186.600 H 69.000 C 69.100 186.600 69.000 186.500 69.000 186.600 V 189.500 C 69.000 189.555 69.045 189.600 69.100 189.600 H 75.100 C 75.155 189.600 75.200 189.555 75.200 189.500 V 186.600 C 75.200 186.500 75.100 186.600 75.200 186.600 H 81.000 C 81.100 186.600 81.000 186.500 81.000 186.600 V 189.500 C 81.000 189.555 81.045 189.600 81.100 189.600 H 87.100 C 87.155 189.600 87.200 189.555 87.200 189.500 V 186.600 C 87.200 186.500 87.100 186.600 87.200 186.600 H 93.000 C 93.100 186.600 93.000 186.500 93.000 186.600 V 189.500 C 93.000 189.555 93.045 189.600 93.100 189.600 H 99.100 C 99.155 189.600 99.200 189.555 99.200 189.500 V 186.600 C 99.200 186.500 99.100 186.600 99.200 186.600 H 107.100 C 107.155 186.600 107.200 186.555 107.200 186.500 V 180.600 C 107.200 180.500 107.100 180.600 107.200 180.600 H 110.100 C 110.155 180.600 110.200 180.555 110.200 180.500 V 174.500 C 110.200 174.445 110.155 174.400 110.100 174.400 H 107.200 C 107.100 174.400 107.200 174.500 107.200 174.400 V 168.600 C 107.200 168.500 107.100 168.600 107.200 168.600 H 110.100 C 110.155 168.600 110.200 168.555 110.200 168.500 V 162.500 C 110.200 162.445 110.155 162.400 110.100 162.400 H 107.200 C 107.100 162.400 107.200 162.500 107.200 162.400 V 156.600 C 107.200 156.500 107.100 156.600 107.200 156.600 H 110.100 C 110.155 156.600 110.200 156.555 110.200 156.500 V 150.500 C 110.200 150.445 110.155 150.400 110.100 150.400 H 107.200 C 107.100 150.400 107.200 150.500 107.200 150.400 V 144.600 C 107.200 144.500 107.100 144.600 107.200 144.600 H 110.100 C 110.155 144.600 110.200 144.555 110.200 144.500 V 138.500 C 110.200 138.445 110.155 138.400 110.100 138.400 H 107.200 C 107.100 138.400 107.200 138.500 107.200 138.400 V 132.500 C 107.200 132.445 107.155 132.400 107.100 132.400 H 99.200 C 99.100 132.400 99.200 132.500 99.200 132.400 V 129.500 C 99.200 129.445 99.155 129.400 99.100 129.400 H 93.100 C 93.045 129.400 93.000 129.445 93.000 129.500 V 132.400 C 93.000 132.500 93.100 132.400 93.000 132.400 H 87.200 C 87.100 132.400 87.200 132.500 87.200 132.400 V 129.500 C 87.200 129.445 87.155 129.400 87.100 129.400 H 81.100 C 81.045 129.400 81.000 129.445 81.000 129.500 V 132.400 C 81.000 132.500 81.100 132.400 81.000 132.400 H 75.200 C 75.100 132.400 75.200 132.500 75.200 132.400 V 129.500 C 75.200 129.445 75.155 129.400 75.100 129.400 H 69.100 C 69.045 129.400 69.000 129.445 69.000 129.500 V 132.400 C 69.000 132.500 69.100 132.400 69.000 132.400 H 63.200 C 63.100 132.400 63.200 132.500 63.200 132.400 V 129.500 C 63.200 129.445 63.155 129.400 63.100 129.400 H 57.100 C 57.045 129.400 57.000 129.445 57.000 129.500 V 132.400 C 57.000 132.500 57.100 132.400 57.000 132.400 H 51.200 C 51.100 132.400 51.200 132.500 51.200 132.400 V 129.500 C 51.200 129.445 51.155 129.400 51.100 129.400 H 45.100 C 45.045 129.400 45.000 129.445 45.000 129.500 V 132.400 C 45.000 132.500 45.100 132.400 45.000 132.400 H 39.200 C 39.100 132.400 39.200 132.500 39.200 132.400 V 129.500 C 39.200 129.445 39.155 129.400 39.100 129.400 H 33.100 C 33.045 129.400 33.000 129.445 33.000 129.500 V 132.400 C 33.000 132.500 33.100 132.400 33.000 132.400 H 27.200 C 27.100 132.400 27.200 132.500 27.200 132.400 V 129.500 C 27.200 129.445 27.155 129.400 27.100 129.400 H 21.100 C 21.045 129.400 21.000 129.445 21.000 129.500 V 132.400 C 21.000 132.500 21.100 132.400 21.000 132.400 H 13.100 C 13.045 132.400 13.000 132.445 13.000 132.500 V 138.400 C 13.000 138.500 13.100 138.400 13.000 138.400 H 10.100 C 10.045 138.400 10.000 138.445 10.000 138.500 V 144.500 C 10.000 144.555 10.045 144.600 10.100 144.600 H 13.000 C 13.100 144.600 13.000 144.500 13.000 144.600 V 150.400 C 13.000 150.500 13.100 150.400 13.000 150.400 H 10.100 C 10.045 150.400 10.000 150.445 10.000 150.500 V 156.500 C 10.000 156.555 10.045 156.600 10.100 156.600 H 13.000 C 13.100 156.600 13.000 156.500 13.000 156.600 V 162.400 C 13.000 162.500 13.100 162.400 13.000 162.400 H 10.100 C 10.045 162.400 10.000 162.445 10.000 162.500 V 168.500 C 10.000 168.555 10.045 168.600 10.100 168.600 H 13.000 C 13.100 168.600 13.000 168.500 13.000 168.600 V 174.400 C 13.000 174.500 13.100 174.400 13.000 174.400 H 10.100 C 10.045 174.400 10.000 174.445 10.000 174.500 V 180.500 C 10.000 180.555 10.045 180.600 10.100 180.600 H 13.000 C 13.100 180.600 13.000 180.500 13.000 180.600 V 186.500 C 13.000 186.555 13.045 186.600 13.100 186.600 Z" stroke="rgb(0,0,0)" stroke-width="0.20" />
</g>
<g id="p-4" style="fill:none;stroke-linecap:round;stroke-linejoin:round;">
  <path d="M 13.100 127.900 H 107.100 C 107.155 127.900 107.200 127.855 107.200 127.800 V 124.900 C 107.200 124.800 107.100 124.900 107.200 124.900 H 110.100 C 110.155 124.900 110.200 124.855 110.200 124.800 V 121.800 C 110.200 121.745 110.155 121.700 110.100 121.700 H 107.200 C 107.100 121.700 107.200 121.800 107.200 121.700 V 118.800 C 107.200 110.532 105.024 102.410 100.890 95.250 C 96.756 88.090 90.810 82.144 83.650 78.010 C 76.490 73.876 68.368 71.700 60.100 71.700 C 51.832 71.700 43.710 73.876 36.550 78.010 C 29.390 82.144 23.444 88.090 19.310 95.250 C 15.176 102.410 13.000 110.532 13.000 118.800 V 121.700 C 13.000 121.800 13.100 121.700 13.000 121.700 H 10.100 C 10.045 121.700 10.000 121.745 10.000 121.800 V 124.800 C 10.000 124.855 10.045 124.900 10.100 124.900 H 13.000 C 13.100 124.900 13.000 124.800 13.000 124.900 V 127.800 C 13.000 127.855 13.045 127.900 13.100 127.900 Z" stroke="rgb(0,0,0)" stroke-width="0.20" />
  <text dominant-baseline="hanging" font-size="4px" style="font-family: sans-serif ; font-weight: normal; font-style: normal; fill: rgb(255,0,0)" text-anchor="middle" transform="matrix( 1.000 0.000 0.000 1.000 60.100 97.900 )">lid right</text>
</g>
<g id="p-5" style="fill:none;stroke-linecap:round;stroke-linejoin:round;">
  <path d="M 114.800 127.900 H 208.800 C 208.855 127.900 208.900 127.855 208.900 127.800 V 124.900 C 208.900 124.800 208.800 124.900 208.900 124.900 H 211.800 C 211.855 124.900 211.900 124.855 211.900 124.800 V 121.800 C 211.900 121.745 211.855 121.700 211.800 121.700 H 208.900 C 208.800 121.700 208.900 121.800 208.900 121.700 V 118.800 C 208.900 110.532 206.724 102.410 202.590 95.250 C 198.456 88.090 192.510 82.144 185.350 78.010 C 178.190 73.876 170.068 71.700 161.800 71.700 C 153.532 71.700 145.410 73.876 138.250 78.010 C 131.090 82.144 125.144 88.090 121.010 95.250 C 116.876 102.410 114.700 110.532 114.700 118.800 V 121.700 C 114.700 121.800 114.800 121.700 114.700 121.700 H 111.800 C 111.745 121.700 111.700 121.745 111.700 121.800 V 124.800 C 111.700 124.855 111.745 124.900 111.800 124.900 H 114.700 C 114.800 124.900 114.700 124.800 114.700 124.900 V 127.800 C 114.700 127.855 114.745 127.900 114.800 127.900 Z" stroke="rgb(0,0,0)" stroke-width="0.20" />
  <text dominant-baseline="hanging" font-size="4px" style="font-family: sans-serif ; font-weight: normal; font-style: normal; fill: rgb(255,0,0)" text-anchor="middle" transform="matrix( 1.000 0.000 0.000 1.000 161.800 97.900 )">lid left</text>
</g>
<g id="p-6" style="fill:none;stroke-linecap:round;stroke-linejoin:round;">
  <path d="M 10.100 70.200 H 13.100 C 13.155 70.200 13.200 70.155 13.200 70.100 V 67.200 C 13.200 67.100 13.100 67.200 13.200 67.200 H 16.000 C 16.100 67.200 16.000 67.100 16.000 67.200 V 70.100 C 16.000 70.155 16.045 70.200 16.100 70.200 H 19.100 H 166.755 H 169.755 C 169.810 70.200 169.855 70.155 169.855 70.100 V 67.200 C 169.855 67.100 169.755 67.200 169.855 67.200 H 172.655 C 172.755 67.200 172.655 67.100 172.655 67.200 V 70.100 C 172.655 70.155 172.700 70.200 172.755 70.200 H 175.755 C 175.810 70.200 175.855 70.155 175.855 70.100 V 10.100 C 175.855 10.045 175.810 10.000 175.755 10.000 H 172.755 C 172.700 10.000 172.655 10.045 172.655 10.100 V 13.000 C 172.655 13.100 172.755 13.000 172.655 13.000 H 169.855 C 169.755 13.000 169.855 13.100 169.855 13.000 V 10.100 C 169.855 10.045 169.810 10.000 169.755 10.000 H 166.755 H 19.100 H 16.100 C 16.045 10.000 16.000 10.045 16.000 10.100 V 13.000 C 16.000 13.100 16.100 13.000 16.000 13.000 H 13.200 C 13.100 13.000 13.200 13.100 13.200 13.000 V 10.100 C 13.200 10.045 13.155 10.000 13.100 10.000 H 10.100 C 10.045 10.000 10.000 10.045 10.000 10.100 V 70.100 C 10.000 70.155 10.045 70.200 10.100 70.200 Z" stroke="rgb(0,0,0)" stroke-width="0.20" />
  <path d="M 20.927 70.200 V 51.133 M 20.927 48.133 V 13.000 M 22.427 10.000 V 29.067 M 22.427 32.067 V 67.200 M 23.927 70.200 V 51.133 M 23.927 48.133 V 13.000 M 25.427 10.000 V 29.067 M 25.427 32.067 V 67.200 M 26.927 70.200 V 51.133 M 26.927 48.133 V 13.000 M 28.427 10.000 V 29.067 M 28.427 32.067 V 67.200 M 29.927 70.200 V 51.133 M 29.927 48.133 V 13.000 M 31.427 10.000 V 29.067 M 31.427 32.067 V 67.200 M 32.927 70.200 V 51.133 M 32.927 48.133 V 13.000 M 34.427 10.000 V 29.067 M 34.427 32.067 V 67.200 M 35.927 70.200 V 51.133 M 35.927 48.133 V 13.000 M 37.427 10.000 V 29.067 M 37.427 32.067 V 67.200 M 38.927 70.200 V 51.133 M 38.927 48.133 V 13.000 M 40.427 10.000 V 29.067 M 40.427 32.067 V 67.200 M 41.927 70.200 V 51.133 M 41.927 48.133 V 13.000 M 43.427 10.000 V 29.067 M 43.427 32.067 V 67.200 M 44.927 70.200 V 51.133 M 44.927 48.133 V 13.000 M 46.427 10.000 V 29.067 M 46.427 32.067 V 67.200 M 47.927 70.200 V 51.133 M 47.927 48.133 V 13.000 M 49.427 10.000 V 29.067 M 49.427 32.067 V 67.200 M 50.927 70.200 V 51.133 M 50.927 48.133 V 13.000 M 52.427 10.000 V 29.067 M 52.427 32.067 V 67.200 M 53.927 70.200 V 51.133 M 53.927 48.133 V 13.000 M 55.427 10.000 V 29.067 M 55.427 32.067 V 67.200 M 56.927 70.200 V 51.133 M 56.927 48.133 V 13.000 M 58.427 10.000 V 29.067 M 58.427 32.067 V 67.200 M 59.927 70.200 V 51.133 M 59.927 48.133 V 13.000 M 61.427 10.000 V 29.067 M 61.427 32.067 V 67.200 M 62.927 70.200 V 51.133 M 62.927 48.133 V 13.000 M 64.427 10.000 V 29.067 M 64.427 32.067 V 67.200 M 65.927 70.200 V 51.133 M 65.927 48.133 V 13.000 M 67.427 10.000 V 29.067 M 67.427 32.067 V 67.200 M 68.927 70.200 V 51.133 M 68.927 48.133 V 13.000 M 70.427 10.000 V 29.067 M 70.427 32.067 V 67.200 M 71.927 70.200 V 51.133 M 71.927 48.133 V 13.000 M 73.427 10.000 V 29.067 M 73.427 32.067 V 67.200 M 74.927 70.200 V 51.133 M 74.927 48.133 V 13.000 M 76.427 10.000 V 29.067 M 76.427 32.067 V 67.200 M 77.927 70.200 V 51.133 M 77.927 48.133 V 13.000 M 79.427 10.000 V 29.067 M 79.427 32.067 V 67.200 M 80.927 70.200 V 51.133 M 80.927 48.133 V 13.000 M 82.427 10.000 V 29.067 M 82.427 32.067 V 67.200 M 83.927 70.200 V 51.133 M 83.927 48.133 V 13.000 M 85.427 10.000 V 29.067 M 85.427 32.067 V 67.200 M 86.927 70.200 V 51.133 M 86.927 48.133 V 13.000 M 88.427 10.000 V 29.067 M 88.427 32.067 V 67.200 M 89.927 70.200 V 51.133 M 89.927 48.133 V 13.000 M 91.427 10.000 V 29.067 M 91.427 32.067 V 67.200 M 92.927 70.200 V 51.133 M 92.927 48.133 V 13.000 M 94.427 10.000 V 29.067 M 94.427 32.067 V 67.200 M 95.927 70.200 V 51.133 M 95.927 48.133 V 13.000 M 97.427 10.000 V 29.067 M 97.427 32.067 V 67.200 M 98.927 70.200 V 51.133 M 98.927 48.133 V 13.000 M 100.427 10.000 V 29.067 M 100.427 32.067 V 67.200 M 101.927 70.200 V 51.133 M 101.927 48.133 V 13.000 M 103.427 10.000 V 29.067 M 103.427 32.067 V 67.200 M 104.927 70.200 V 51.133 M 104.927 48.133 V 13.000 M 106.427 10.000 V 29.067 M 106.427 32.067 V 67.200 M 107.927 70.200 V 51.133 M 107.927 48.133 V 13.000 M 109.427 10.000 V 29.067 M 109.427 32.067 V 67.200 M 110.927 70.200 V 51.133 M 110.927 48.133 V 13.000 M 112.427 10.000 V 29.067 M 112.427 32.067 V 67.200 M 113.927 70.200 V 51.133 M 113.927 48.133 V 13.000 M 115.427 10.000 V 29.067 M 115.427 32.067 V 67.200 M 116.927 70.200 V 51.133 M 116.927 48.133 V 13.000 M 118.427 10.000 V 29.067 M 118.427 32.067 V 67.200 M 119.927 70.200 V 51.133 M 119.927 48.133 V 13.000 M 121.427 10.000 V 29.067 M 121.427 32.067 V 67.200 M 122.927 70.200 V 51.133 M 122.927 48.133 V 13.000 M 124.427 10.000 V 29.067 M 124.427 32.067 V 67.200 M 125.927 70.200 V 51.133 M 125.927 48.133 V 13.000 M 127.427 10.000 V 29.067 M 127.427 32.067 V 67.200 M 128.927 70.200 V 51.133 M 128.927 48.133 V 13.000 M 130.427 10.000 V 29.067 M 130.427 32.067 V 67.200 M 131.927 70.200 V 51.133 M 131.927 48.133 V 13.000 M 133.427 10.000 V 29.067 M 133.427 32.067 V 67.200 M 134.927 70.200 V 51.133 M 134.927 48.133 V 13.000 M 136.427 10.000 V 29.067 M 136.427 32.067 V 67.200 M 137.927 70.200 V 51.133 M 137.927 48.133 V 13.000 M 139.427 10.000 V 29.067 M 139.427 32.067 V 67.200 M 140.927 70.200 V 51.133 M 140.927 48.133 V 13.000 M 142.427 10.000 V 29.067 M 142.427 32.067 V 67.200 M 143.927 70.200 V 51.133 M 143.927 48.133 V 13.000 M 145.427 10.000 V 29.067 M 145.427 32.067 V 67.200 M 146.927 70.200 V 51.133 M 146.927 48.133 V 13.000 M 148.427 10.000 V 29.067 M 148.427 32.067 V 67.200 M 149.927 70.200 V 51.133 M 149.927 48.133 V 13.000 M 151.427 10.000 V 29.067 M 151.427 32.067 V 67.200 M 152.927 70.200 V 51.133 M 152.927 48.133 V 13.000 M 154.427 10.000 V 29.067 M 154.427 32.067 V 67.200 M 155.927 70.200 V 51.133 M 155.927 48.133 V 13.000 M 157.427 10.000 V 29.067 M 157.427 32.067 V 67.200 M 158.927 70.200 V 51.133 M 158.927 48.133 V 13.000 M 160.427 10.000 V 29.067 M 160.427 32.067 V 67.200 M 161.927 70.200 V 51.133 M 161.927 48.133 V 13.000 M 163.427 10.000 V 29.067 M 163.427 32.067 V 67.200 M 164.927 70.200 V 51.133 M 164.927 48.133 V 13.000" stroke="rgb(0,0,0)" stroke-width="0.20" />
  <text dominant-baseline="hanging" font-size="4px" style="font-family: sans-serif ; font-weight: normal; font-style: normal; fill: rgb(255,0,0)" text-anchor="middle" transform="matrix( 1.000 0.000 0.000 1.000 92.927 38.200 )">lid top</text>
</g>
<g id="p-7" style="fill:none;stroke-linecap:round;stroke-linejoin:round;">
  <path d="M 123.800 389.800 H 120.900 C 120.800 389.800 120.900 389.900 120.900 389.800 V 387.000 C 120.900 386.900 120.800 387.000 120.900 387.000 H 126.700 C 126.800 387.000 126.700 386.900 126.700 387.000 V 389.800 C 126.700 389.900 126.800 389.800 126.700 389.800 H 123.800 Z" stroke="rgb(0,0,255)" stroke-width="0.20" />
  <path d="M 135.800 389.800 H 132.900 C 132.800 389.800 132.900 389.900 132.900 389.800 V 387.000 C 132.900 386.900 132.800 387.000 132.900 387.000 H 138.700 C 138.800 387.000 138.700 386.900 138.700 387.000 V 389.800 C 138.700 389.900 138.800 389.800 138.700 389.800 H 135.800 Z" stroke="rgb(0,0,255)" stroke-width="0.20" />
  <path d="M 147.800 389.800 H 144.900 C 144.800 389.800 144.900 389.900 144.900 389.800 V 387.000 C 144.900 386.900 144.800 387.000 144.900 387.000 H 150.700 C 150.800 387.000 150.700 386.900 150.700 387.000 V 389.800 C 150.700 389.900 150.800 389.800 150.700 389.800 H 147.800 Z" stroke="rgb(0,0,255)" stroke-width="0.20" />
  <path d="M 159.800 389.800 H 156.900 C 156.800 389.800 156.900 389.900 156.900 389.800 V 387.000 C 156.900 386.900 156.800 387.000 156.900 387.000 H 162.700 C 162.800 387.000 162.700 386.900 162.700 387.000 V 389.800 C 162.700 389.900 162.800 389.800 162.700 389.800 H 159.800 Z" stroke="rgb(0,0,255)" stroke-width="0.20" />
  <path d="M 114.800 393.000 H 168.800 C 168.855 393.000 168.900 392.955 168.900 392.900 V 382.000 C 168.900 381.900 168.800 382.000 168.900 382.000 H 171.800 C 171.855 382.000 171.900 381.955 171.900 381.900 V 375.900 C 171.900 375.845 171.855 375.800 171.800 375.800 H 168.900 C 168.800 375.800 168.900 375.900 168.900 375.800 V 370.000 C 168.900 369.900 168.800 370.000 168.900 370.000 H 171.800 C 171.855 370.000 171.900 369.955 171.900 369.900 V 363.900 C 171.900 363.845 171.855 363.800 171.800 363.800 H 168.900 C 168.800 363.800 168.900 363.900 168.900 363.800 V 358.000 C 168.900 357.900 168.800 358.000 168.900 358.000 H 171.800 C 171.855 358.000 171.900 357.955 171.900 357.900 V 351.900 C 171.900 351.845 171.855 351.800 171.800 351.800 H 168.900 C 168.800 351.800 168.900 351.900 168.900 351.800 V 346.000 C 168.900 345.900 168.800 346.000 168.900 346.000 H 171.800 C 171.855 346.000 171.900 345.955 171.900 345.900 V 339.900 C 171.900 339.845 171.855 339.800 171.800 339.800 H 168.900 C 168.800 339.800 168.900 339.900 168.900 339.800 V 334.000 C 168.900 333.900 168.800 334.000 168.900 334.000 H 171.800 C 171.855 334.000 171.900 333.955 171.900 333.900 V 327.900 C 171.900 327.845 171.855 327.800 171.800 327.800 H 168.900 C 168.800 327.800 168.900 327.900 168.900 327.800 V 322.000 C 168.900 321.900 168.800 322.000 168.900 322.000 H 171.800 C 171.855 322.000 171.900 321.955 171.900 321.900 V 315.900 C 171.900 315.845 171.855 315.800 171.800 315.800 H 168.900 C 168.800 315.800 168.900 315.900 168.900 315.800 V 310.000 C 168.900 309.900 168.800 310.000 168.900 310.000 H 171.800 C 171.855 310.000 171.900 309.955 171.900 309.900 V 303.900 C 171.900 303.845 171.855 303.800 171.800 303.800 H 168.900 C 168.800 303.800 168.900 303.900 168.900 303.800 V 292.900 C 168.900 292.845 168.855 292.800 168.800 292.800 H 114.800 C 114.745 292.800 114.700 292.845 114.700 292.900 V 303.800 C 114.700 303.900 114.800 303.800 114.700 303.800 H 111.800 C 111.745 303.800 111.700 303.845 111.700 303.900 V 309.900 C 111.700 309.955 111.745 310.000 111.800 310.000 H 114.700 C 114.800 310.000 114.700 309.900 114.700 310.000 V 315.800 C 114.700 315.900 114.800 315.800 114.700 315.800 H 111.800 C 111.745 315.800 111.700 315.845 111.700 315.900 V 321.900 C 111.700 321.955 111.745 322.000 111.800 322.000 H 114.700 C 114.800 322.000 114.700 321.900 114.700 322.000 V 327.800 C 114.700 327.900 114.800 327.800 114.700 327.800 H 111.800 C 111.745 327.800 111.700 327.845 111.700 327.900 V 333.900 C 111.700 333.955 111.745 334.000 111.800 334.000 H 114.700 C 114.800 334.000 114.700 333.900 114.700 334.000 V 339.800 C 114.700 339.900 114.800 339.800 114.700 339.800 H 111.800 C 111.745 339.800 111.700 339.845 111.700 339.900 V 345.900 C 111.700 345.955 111.745 346.000 111.800 346.000 H 114.700 C 114.800 346.000 114.700 345.900 114.700 346.000 V 351.800 C 114.700 351.900 114.800 351.800 114.700 351.800 H 111.800 C 111.745 351.800 111.700 351.845 111.700 351.900 V 357.900 C 111.700 357.955 111.745 358.000 111.800 358.000 H 114.700 C 114.800 358.000 114.700 357.900 114.700 358.000 V 363.800 C 114.700 363.900 114.800 363.800 114.700 363.800 H 111.800 C 111.745 363.800 111.700 363.845 111.700 363.900 V 369.900 C 111.700 369.955 111.745 370.000 111.800 370.000 H 114.700 C 114.800 370.000 114.700 369.900 114.700 370.000 V 375.800 C 114.700 375.900 114.800 375.800 114.700 375.800 H 111.800 C 111.745 375.800 111.700 375.845 111.700 375.900 V 381.900 C 111.700 381.955 111.745 382.000 111.800 382.000 H 114.700 C 114.800 382.000 114.700 381.900 114.700 382.000 V 392.900 C 114.700 392.955 114.745 393.000 114.800 393.000 Z" stroke="rgb(0,0,0)" stroke-width="0.20" />
</g>
<g id="p-8" style="fill:none;stroke-linecap:round;stroke-linejoin:round;">
  <path d="M 123.800 288.100 H 120.900 C 120.800 288.100 120.900 288.200 120.900 288.100 V 285.300 C 120.900 285.200 120.800 285.300 120.900 285.300 H 126.700 C 126.800 285.300 126.700 285.200 126.700 285.300 V 288.100 C 126.700 288.200 126.800 288.100 126.700 288.100 H 123.800 Z" stroke="rgb(0,0,255)" stroke-width="0.20" />
  <path d="M 135.800 288.100 H 132.900 C 132.800 288.100 132.900 288.200 132.900 288.100 V 285.300 C 132.900 285.200 132.800 285.300 132.900 285.300 H 138.700 C 138.800 285.300 138.700 285.200 138.700 285.300 V 288.100 C 138.700 288.200 138.800 288.100 138.700 288.100 H 135.800 Z" stroke="rgb(0,0,255)" stroke-width="0.20" />
  <path d="M 147.800 288.100 H 144.900 C 144.800 288.100 144.900 288.200 144.900 288.100 V 285.300 C 144.900 285.200 144.800 285.300 144.900 285.300 H 150.700 C 150.800 285.300 150.700 285.200 150.700 285.300 V 288.100 C 150.700 288.200 150.800 288.100 150.700 288.100 H 147.800 Z" stroke="rgb(0,0,255)" stroke-width="0.20" />
  <path d="M 159.800 288.100 H 156.900 C 156.800 288.100 156.900 288.200 156.900 288.100 V 285.300 C 156.900 285.200 156.800 285.300 156.900 285.300 H 162.700 C 162.800 285.300 162.700 285.200 162.700 285.300 V 288.100 C 162.700 288.200 162.800 288.100 162.700 288.100 H 159.800 Z" stroke="rgb(0,0,255)" stroke-width="0.20" />
  <path d="M 114.800 291.300 H 168.800 C 168.855 291.300 168.900 291.255 168.900 291.200 V 280.300 C 168.900 280.200 168.800 280.300 168.900 280.300 H 171.800 C 171.855 280.300 171.900 280.255 171.900 280.200 V 274.200 C 171.900 274.145 171.855 274.100 171.800 274.100 H 168.900 C 168.800 274.100 168.900 274.200 168.900 274.100 V 268.300 C 168.900 268.200 168.800 268.300 168.900 268.300 H 171.800 C 171.855 268.300 171.900 268.255 171.900 268.200 V 262.200 C 171.900 262.145 171.855 262.100 171.800 262.100 H 168.900 C 168.800 262.100 168.900 262.200 168.900 262.100 V 256.300 C 168.900 256.200 168.800 256.300 168.900 256.300 H 171.800 C 171.855 256.300 171.900 256.255 171.900 256.200 V 250.200 C 171.900 250.145 171.855 250.100 171.800 250.100 H 168.900 C 168.800 250.100 168.900 250.200 168.900 250.100 V 244.300 C 168.900 244.200 168.800 244.300 168.900 244.300 H 171.800 C 171.855 244.300 171.900 244.255 171.900 244.200 V 238.200 C 171.900 238.145 171.855 238.100 171.800 238.100 H 168.900 C 168.800 238.100 168.900 238.200 168.900 238.100 V 232.300 C 168.900 232.200 168.800 232.300 168.900 232.300 H 171.800 C 171.855 232.300 171.900 232.255 171.900 232.200 V 226.200 C 171.900 226.145 171.855 226.100 171.800 226.100 H 168.900 C 168.800 226.100 168.900 226.200 168.900 226.100 V 220.300 C 168.900 220.200 168.800 220.300 168.900 220.300 H 171.800 C 171.855 220.300 171.900 220.255 171.900 220.200 V 214.200 C 171.900 214.145 171.855 214.100 171.800 214.100 H 168.900 C 168.800 214.100 168.900 214.200 168.900 214.100 V 208.300 C 168.900 208.200 168.800 208.300 168.900 208.300 H 171.800 C 171.855 208.300 171.900 208.255 171.900 208.200 V 202.200 C 171.900 202.145 171.855 202.100 171.800 202.100 H 168.900 C 168.800 202.100 168.900 202.200 168.900 202.100 V 191.200 C 168.900 191.145 168.855 191.100 168.800 191.100 H 114.800 C 114.745 191.100 114.700 191.145 114.700 191.200 V 202.100 C 114.700 202.200 114.800 202.100 114.700 202.100 H 111.800 C 111.745 202.100 111.700 202.145 111.700 202.200 V 208.200 C 111.700 208.255 111.745 208.300 111.800 208.300 H 114.700 C 114.800 208.300 114.700 208.200 114.700 208.300 V 214.100 C 114.700 214.200 114.800 214.100 114.700 214.100 H 111.800 C 111.745 214.100 111.700 214.145 111.700 214.200 V 220.200 C 111.700 220.255 111.745 220.300 111.800 220.300 H 114.700 C 114.800 220.300 114.700 220.200 114.700 220.300 V 226.100 C 114.700 226.200 114.800 226.100 114.700 226.100 H 111.800 C 111.745 226.100 111.700 226.145 111.700 226.200 V 232.200 C 111.700 232.255 111.745 232.300 111.800 232.300 H 114.700 C 114.800 232.300 114.700 232.200 114.700 232.300 V 238.100 C 114.700 238.200 114.800 238.100 114.700 238.100 H 111.800 C 111.745 238.100 111.700 238.145 111.700 238.200 V 244.200 C 111.700 244.255 111.745 244.300 111.800 244.300 H 114.700 C 114.800 244.300 114.700 244.200 114.700 244.300 V 250.100 C 114.700 250.200 114.800 250.100 114.700 250.100 H 111.800 C 111.745 250.100 111.700 250.145 111.700 250.200 V 256.200 C 111.700 256.255 111.745 256.300 111.800 256.300 H 114.700 C 114.800 256.300 114.700 256.200 114.700 256.300 V 262.100 C 114.700 262.200 114.800 262.100 114.700 262.100 H 111.800 C 111.745 262.100 111.700 262.145 111.700 262.200 V 268.200 C 111.700 268.255 111.745 268.300 111.800 268.300 H 114.700 C 114.800 268.300 114.700 268.200 114.700 268.300 V 274.100 C 114.700 274.200 114.800 274.100 114.700 274.100 H 111.800 C 111.745 274.100 111.700 274.145 111.700 274.200 V 280.200 C 111.700 280.255 111.745 280.300 111.800 280.300 H 114.700 C 114.800 280.300 114.700 280.200 114.700 280.300 V 291.200 C 114.700 291.255 114.745 291.300 114.800 291.300 Z" stroke="rgb(0,0,0)" stroke-width="0.20" />
</g>
</svg>