<?xml version='1.0' encoding='utf-8'?>
<svg height="364.70mm" viewBox="0.0 0.0 192.90 364.70" width="192.90mm" xmlns="http://www.w3.org/2000/svg" xmlns:cc="http://creativecommons.org/ns#" xmlns:dc="http://purl.org/dc/elements/1.1/" xmlns:inkscape="http://www.inkscape.org/namespaces/inkscape" xmlns:rdf="http://www.w3.org/1999/02/22-rdf-syntax-ns#" xmlns:svg="http://www.w3.org/2000/svg" xmlns:xlink="http://www.w3.org/1999/xlink">
<!--
ABox - A simple Box


This box is kept simple on purpose. If you need more features have a look at the UniversalBox.


Created with Boxes.py (https://boxes.hackerspace-bamberg.de/)
Command line (remove spaces between dashes): boxes ABox - -y=60 - -Lid_style=fangbrim
-->
<title>ABox</title>
<metadata>
<rdf:RDF><cc:Work>
<dc:title>Box - ABox</dc:title>
<dc:source>boxes ABox --y=60 --Lid_style=fangbrim</dc:source>
<dc:description>A simple Box

This box is kept simple on purpose. If you need more features have a look at the UniversalBox.

Created with Boxes.py (https://boxes.hackerspace-bamberg.de/)
Command line: boxes ABox --y=60 --Lid_style=fangbrim
Command line short: boxes ABox --y=60 --Lid_style=fangbrim
</dc:description>
</cc:Work></rdf:RDF></metadata>
<g id="p-0" style="fill:none;stroke-linecap:round;stroke-linejoin:round;">
  <path d="M 21.100 354.700 H 121.100 V 344.700 H 21.100 V 354.700 Z" stroke="rgb(0,0,0)" stroke-width="0.20" />
  <text dominant-baseline="hanging" font-size="6px" style="font-family: sans-serif ; font-weight: normal; font-style: normal; fill: rgb(255,0,0)" text-anchor="middle" transform="matrix( 1.000 0.000 0.000 1.000 71.100 346.700 )">100.0mm, burn:0.10mm</text>
</g>
<g id="p-1" style="fill:none;stroke-linecap:round;stroke-linejoin:round;">
  <path d="M 35.100 339.800 H 32.200 C 32.100 339.800 32.200 339.900 32.200 339.800 V 337.000 C 32.200 336.900 32.100 337.000 32.200 337.000 H 38.000 C 38.100 337.000 38.000 336.900 38.000 337.000 V 339.800 C 38.000 339.900 38.100 339.800 38.000 339.800 H 35.100 Z" stroke="rgb(0,0,255)" stroke-width="0.20" />
  <path d="M 47.100 339.800 H 44.200 C 44.100 339.800 44.200 339.900 44.200 339.800 V 337.000 C 44.200 336.900 44.100 337.000 44.200 337.000 H 50.000 C 50.100 337.000 50.000 336.900 50.000 337.000 V 339.800 C 50.000 339.900 50.100 339.800 50.000 339.800 H 47.100 Z" stroke="rgb(0,0,255)" stroke-width="0.20" />
  <path d="M 59.100 339.800 H 56.200 C 56.100 339.800 56.200 339.900 56.200 339.800 V 337.000 C 56.200 336.900 56.100 337.000 56.200 337.000 H 62.000 C 62.100 337.000 62.000 336.900 62.000 337.000 V 339.800 C 62.000 339.900 62.100 339.800 62.000 339.800 H 59.100 Z" stroke="rgb(0,0,255)" stroke-width="0.20" />
  <path d="M 71.100 339.800 H 68.200 C 68.100 339.800 68.200 339.900 68.200 339.800 V 337.000 C 68.200 336.900 68.100 337.000 68.200 337.000 H 74.000 C 74.100 337.000 74.000 336.900 74.000 337.000 V 339.800 C 74.000 339.900 74.100 339.800 74.000 339.800 H 71.100 Z" stroke="rgb(0,0,255)" stroke-width="0.20" />
  <path d="M 83.100 339.800 H 80.200 C 80.100 339.800 80.200 339.900 80.200 339.800 V 337.000 C 80.200 336.900 80.100 337.000 80.200 337.000 H 86.000 C 86.100 337.000 86.000 336.900 86.000 337.000 V 339.800 C 86.000 339.900 86.100 339.800 86.000 339.800 H 83.100 Z" stroke="rgb(0,0,255)" stroke-width="0.20" />
  <path d="M 95.100 339.800 H 92.200 C 92.100 339.800 92.200 339.900 92.200 339.800 V 337.000 C 92.200 336.900 92.100 337.000 92.200 337.000 H 98.000 C 98.100 337.000 98.000 336.900 98.000 337.000 V 339.800 C 98.000 339.900 98.100 339.800 98.000 339.800 H 95.100 Z" stroke="rgb(0,0,255)" stroke-width="0.20" />
  <path d="M 107.100 339.800 H 104.200 C 104.100 339.800 104.200 339.900 104.200 339.800 V 337.000 C 104.200 336.900 104.100 337.000 104.200 337.000 H 110.000 C 110.100 337.000 110.000 336.900 110.000 337.000 V 339.800 C 110.000 339.900 110.100 339.800 110.000 339.800 H 107.100 Z" stroke="rgb(0,0,255)" stroke-width="0.20" />
  <path d="M 24.100 343.000 H 118.100 H 121.100 C 121.155 343.000 121.200 342.955 121.200 342.900 V 331.900 C 121.200 331.845 121.155 331.800 121.100 331.800 H 118.200 C 118.100 331.800 118.200 331.900 118.200 331.800 V 326.000 C 118.200 325.900 118.100 326.000 118.200 326.000 H 121.100 C 121.155 326.000 121.200 325.955 121.200 325.900 V 319.900 C 121.200 319.845 121.155 319.800 121.100 319.800 H 118.200 C 118.100 319.800 118.200 319.900 118.200 319.800 V 314.000 C 118.200 313.900 118.100 314.000 118.200 314.000 H 121.100 C 121.155 314.000 121.200 313.955 121.200 313.900 V 307.900 C 121.200 307.845 121.155 307.800 121.100 307.800 H 118.200 C 118.100 307.800 118.200 307.900 118.200 307.800 V 302.000 C 118.200 301.900 118.100 302.000 118.200 302.000 H 121.100 C 121.155 302.000 121.200 301.955 121.200 301.900 V 295.900 C 121.200 295.845 121.155 295.800 121.100 295.800 H 118.200 C 118.100 295.800 118.200 295.900 118.200 295.800 V 290.000 C 118.200 289.900 118.100 290.000 118.200 290.000 H 121.100 C 121.155 290.000 121.200 289.955 121.200 289.900 V 283.900 C 121.200 283.845 121.155 283.800 121.100 283.800 H 118.200 C 118.100 283.800 118.200 283.900 118.200 283.800 V 278.000 C 118.200 277.900 118.100 278.000 118.200 278.000 H 121.100 C 121.155 278.000 121.200 277.955 121.200 277.900 V 271.900 C 121.200 271.845 121.155 271.800 121.100 271.800 H 118.200 C 118.100 271.800 118.200 271.900 118.200 271.800 V 266.000 C 118.200 265.900 118.100 266.000 118.200 266.000 H 121.100 C 121.155 266.000 121.200 265.955 121.200 265.900 V 259.900 C 121.200 259.845 121.155 259.800 121.100 259.800 H 118.200 C 118.100 259.800 118.200 259.900 118.200 259.800 V 254.000 C 118.200 253.900 118.100 254.000 118.200 254.000 H 121.100 C 121.155 254.000 121.200 253.955 121.200 253.900 V 242.900 C 121.200 242.845 121.155 242.800 121.100 242.800 H 118.100 H 24.100 H 21.100 C 21.045 242.800 21.000 242.845 21.000 242.900 V 253.900 C 21.000 253.955 21.045 254.000 21.100 254.000 H 24.000 C 24.100 254.000 24.000 253.900 24.000 254.000 V 259.800 C 24.000 259.900 24.100 259.800 24.000 259.800 H 21.100 C 21.045 259.800 21.000 259.845 21.000 259.900 V 265.900 C 21.000 265.955 21.045 266.000 21.100 266.000 H 24.000 C 24.100 266.000 24.000 265.900 24.000 266.000 V 271.800 C 24.000 271.900 24.100 271.800 24.000 271.800 H 21.100 C 21.045 271.800 21.000 271.845 21.000 271.900 V 277.900 C 21.000 277.955 21.045 278.000 21.100 278.000 H 24.000 C 24.100 278.000 24.000 277.900 24.000 278.000 V 283.800 C 24.000 283.900 24.100 283.800 24.000 283.800 H 21.100 C 21.045 283.800 21.000 283.845 21.000 283.900 V 289.900 C 21.000 289.955 21.045 290.000 21.100 290.000 H 24.000 C 24.100 290.000 24.000 289.900 24.000 290.000 V 295.800 C 24.000 295.900 24.100 295.800 24.000 295.800 H 21.100 C 21.045 295.800 21.000 295.845 21.000 295.900 V 301.900 C 21.000 301.955 21.045 302.000 21.100 302.000 H 24.000 C 24.100 302.000 24.000 301.900 24.000 302.000 V 307.800 C 24.000 307.900 24.100 307.800 24.000 307.800 H 21.100 C 21.045 307.800 21.000 307.845 21.000 307.900 V 313.900 C 21.000 313.955 21.045 314.000 21.100 314.000 H 24.000 C 24.100 314.000 24.000 313.900 24.000 314.000 V 319.800 C 24.000 319.900 24.100 319.800 24.000 319.800 H 21.100 C 21.045 319.800 21.000 319.845 21.000 319.900 V 325.900 C 21.000 325.955 21.045 326.000 21.100 326.000 H 24.000 C 24.100 326.000 24.000 325.900 24.000 326.000 V 331.800 C 24.000 331.900 24.100 331.800 24.000 331.800 H 21.100 C 21.045 331.800 21.000 331.845 21.000 331.900 V 342.900 C 21.000 342.955 21.045 343.000 21.100 343.000 H 24.100 Z" stroke="rgb(0,0,0)" stroke-width="0.20" />
</g>
<g id="p-2" style="fill:none;stroke-linecap:round;stroke-linejoin:round;">
  <path d="M 35.100 238.100 H 32.200 C 32.100 238.100 32.200 238.200 32.200 238.100 V 235.300 C 32.200 235.200 32.100 235.300 32.200 235.300 H 38.000 C 38.100 235.300 38.000 235.200 38.000 235.300 V 238.100 C 38.000 238.200 38.100 238.100 38.000 238.100 H 35.100 Z" stroke="rgb(0,0,255)" stroke-width="0.20" />
  <path d="M 47.100 238.100 H 44.200 C 44.100 238.100 44.200 238.200 44.200 238.100 V 235.300 C 44.200 235.200 44.100 235.300 44.200 235.300 H 50.000 C 50.100 235.300 50.000 235.200 50.000 235.300 V 238.100 C 50.000 238.200 50.100 238.100 50.000 238.100 H 47.100 Z" stroke="rgb(0,0,255)" stroke-width="0.20" />
  <path d="M 59.100 238.100 H 56.200 C 56.100 238.100 56.200 238.200 56.200 238.100 V 235.300 C 56.200 235.200 56.100 235.300 56.200 235.300 H 62.000 C 62.100 235.300 62.000 235.200 62.000 235.300 V 238.100 C 62.000 238.200 62.100 238.100 62.000 238.100 H 59.100 Z" stroke="rgb(0,0,255)" stroke-width="0.20" />
  <path d="M 71.100 238.100 H 68.200 C 68.100 238.100 68.200 238.200 68.200 238.100 V 235.300 C 68.200 235.200 68.100 235.300 68.200 235.300 H 74.000 C 74.100 235.300 74.000 235.200 74.000 235.300 V 238.100 C 74.000 238.200 74.100 238.100 74.000 238.100 H 71.100 Z" stroke="rgb(0,0,255)" stroke-width="0.20" />
  <path d="M 83.100 238.100 H 80.200 C 80.100 238.100 80.200 238.200 80.200 238.100 V 235.300 C 80.200 235.200 80.100 235.300 80.200 235.300 H 86.000 C 86.100 235.300 86.000 235.200 86.000 235.300 V 238.100 C 86.000 238.200 86.100 238.100 86.000 238.100 H 83.100 Z" stroke="rgb(0,0,255)" stroke-width="0.20" />
  <path d="M 95.100 238.100 H 92.200 C 92.100 238.100 92.200 238.200 92.200 238.100 V 235.300 C 92.200 235.200 92.100 235.300 92.200 235.300 H 98.000 C 98.100 235.300 98.000 235.200 98.000 235.300 V 238.100 C 98.000 238.200 98.100 238.100 98.000 238.100 H 95.100 Z" stroke="rgb(0,0,255)" stroke-width="0.20" />
  <path d="M 107.100 238.100 H 104.200 C 104.100 238.100 104.200 238.200 104.200 238.100 V 235.300 C 104.200 235.200 104.100 235.300 104.200 235.300 H 110.000 C 110.100 235.300 110.000 235.200 110.000 235.300 V 238.100 C 110.000 238.200 110.100 238.100 110.000 238.100 H 107.100 Z" stroke="rgb(0,0,255)" stroke-width="0.20" />
  <path d="M 24.100 241.300 H 118.100 H 121.100 C 121.155 241.300 121.200 241.255 121.200 241.200 V 230.200 C 121.200 230.145 121.155 230.100 121.100 230.100 H 118.200 C 118.100 230.100 118.200 230.200 118.200 230.100 V 224.300 C 118.200 224.200 118.100 224.300 118.200 224.300 H 121.100 C 121.155 224.300 121.200 224.255 121.200 224.200 V 218.200 C 121.200 218.145 121.155 218.100 121.100 218.100 H 118.200 C 118.100 218.100 118.200 218.200 118.200 218.100 V 212.300 C 118.200 212.200 118.100 212.300 118.200 212.300 H 121.100 C 121.155 212.300 121.200 212.255 121.200 212.200 V 206.200 C 121.200 206.145 121.155 206.100 121.100 206.100 H 118.200 C 118.100 206.100 118.200 206.200 118.200 206.100 V 200.300 C 118.200 200.200 118.100 200.300 118.200 200.300 H 121.100 C 121.155 200.300 121.200 200.255 121.200 200.200 V 194.200 C 121.200 194.145 121.155 194.100 121.100 194.100 H 118.200 C 118.100 194.100 118.200 194.200 118.200 194.100 V 188.300 C 118.200 188.200 118.100 188.300 118.200 188.300 H 121.100 C 121.155 188.300 121.200 188.255 121.200 188.200 V 182.200 C 121.200 182.145 121.155 182.100 121.100 182.100 H 118.200 C 118.100 182.100 118.200 182.200 118.200 182.100 V 176.300 C 118.200 176.200 118.100 176.300 118.200 176.300 H 121.100 C 121.155 176.300 121.200 176.255 121.200 176.200 V 170.200 C 121.200 170.145 121.155 170.100 121.100 170.100 H 118.200 C 118.100 170.100 118.200 170.200 118.200 170.100 V 164.300 C 118.200 164.200 118.100 164.300 118.200 164.300 H 121.100 C 121.155 164.300 121.200 164.255 121.200 164.200 V 158.200 C 121.200 158.145 121.155 158.100 121.100 158.100 H 118.200 C 118.100 158.100 118.200 158.200 118.200 158.100 V 152.300 C 118.200 152.200 118.100 152.300 118.200 152.300 H 121.100 C 121.155 152.300 121.200 152.255 121.200 152.200 V 141.200 C 121.200 141.145 121.155 141.100 121.100 141.100 H 118.100 H 24.100 H 21.100 C 21.045 141.100 21.000 141.145 21.000 141.200 V 152.200 C 21.000 152.255 21.045 152.300 21.100 152.300 H 24.000 C 24.100 152.300 24.000 152.200 24.000 152.300 V 158.100 C 24.000 158.200 24.100 158.100 24.000 158.100 H 21.100 C 21.045 158.100 21.000 158.145 21.000 158.200 V 164.200 C 21.000 164.255 21.045 164.300 21.100 164.300 H 24.000 C 24.100 164.300 24.000 164.200 24.000 164.300 V 170.100 C 24.000 170.200 24.100 170.100 24.000 170.100 H 21.100 C 21.045 170.100 21.000 170.145 21.000 170.200 V 176.200 C 21.000 176.255 21.045 176.300 21.100 176.300 H 24.000 C 24.100 176.300 24.000 176.200 24.000 176.300 V 182.100 C 24.000 182.200 24.100 182.100 24.000 182.100 H 21.100 C 21.045 182.100 21.000 182.145 21.000 182.200 V 188.200 C 21.000 188.255 21.045 188.300 21.100 188.300 H 24.000 C 24.100 188.300 24.000 188.200 24.000 188.300 V 194.100 C 24.000 194.200 24.100 194.100 24.000 194.100 H 21.100 C 21.045 194.100 21.000 194.145 21.000 194.200 V 200.200 C 21.000 200.255 21.045 200.300 21.100 200.300 H 24.000 C 24.100 200.300 24.000 200.200 24.000 200.300 V 206.100 C 24.000 206.200 24.100 206.100 24.000 206.100 H 21.100 C 21.045 206.100 21.000 206.145 21.000 206.200 V 212.200 C 21.000 212.255 21.045 212.300 21.100 212.300 H 24.000 C 24.100 212.300 24.000 212.200 24.000 212.300 V 218.100 C 24.000 218.200 24.100 218.100 24.000 218.100 H 21.100 C 21.045 218.100 21.000 218.145 21.000 218.200 V 224.200 C 21.000 224.255 21.045 224.300 21.100 224.300 H 24.000 C 24.100 224.300 24.000 224.200 24.000 224.300 V 230.100 C 24.000 230.200 24.100 230.100 24.000 230.100 H 21.100 C 21.045 230.100 21.000 230.145 21.000 230.200 V 241.200 C 21.000 241.255 21.045 241.300 21.100 241.300 H 24.100 Z" stroke="rgb(0,0,0)" stroke-width="0.20" />
</g>
<g id="p-3" style="fill:none;stroke-linecap:round;stroke-linejoin:round;">
  <path d="M 24.100 136.600 H 32.000 C 32.100 136.600 32.000 136.500 32.000 136.600 V 139.500 C 32.000 139.555 32.045 139.600 32.100 139.600 H 38.100 C 38.155 139.600 38.200 139.555 38.200 139.500 V 136.600 C 38.200 136.500 38.100 136.600 38.200 136.600 H 44.000 C 44.100 136.600 44.000 136.500 44.000 136.600 V 139.500 C 44.000 139.555 44.045 139.600 44.100 139.600 H 50.100 C 50.155 139.600 50.200 139.555 50.200 139.500 V 136.600 C 50.200 136.500 50.100 136.600 50.200 136.600 H 56.000 C 56.100 136.600 56.000 136.500 56.000 136.600 V 139.500 C 56.000 139.555 56.045 139.600 56.100 139.600 H 62.100 C 62.155 139.600 62.200 139.555 62.200 139.500 V 136.600 C 62.200 136.500 62.100 136.600 62.200 136.600 H 68.000 C 68.100 136.600 68.000 136.500 68.000 136.600 V 139.500 C 68.000 139.555 68.045 139.600 68.100 139.600 H 74.100 C 74.155 139.600 74.200 139.555 74.200 139.500 V 136.600 C 74.200 136.500 74.100 136.600 74.200 136.600 H 80.000 C 80.100 136.600 80.000 136.500 80.000 136.600 V 139.500 C 80.000 139.555 80.045 139.600 80.100 139.600 H 86.100 C 86.155 139.600 86.200 139.555 86.200 139.500 V 136.600 C 86.200 136.500 86.100 136.600 86.200 136.600 H 92.000 C 92.100 136.600 92.000 136.500 92.000 136.600 V 139.500 C 92.000 139.555 92.045 139.600 92.100 139.600 H 98.100 C 98.155 139.600 98.200 139.555 98.200 139.500 V 136.600 C 98.200 136.500 98.100 136.600 98.200 136.600 H 104.000 C 104.100 136.600 104.000 136.500 104.000 136.600 V 139.500 C 104.000 139.555 104.045 139.600 104.100 139.600 H 110.100 C 110.155 139.600 110.200 139.555 110.200 139.500 V 136.600 C 110.200 136.500 110.100 136.600 110.200 136.600 H 118.100 C 118.155 136.600 118.200 136.555 118.200 136.500 V 130.600 C 118.200 130.500 118.100 130.600 118.200 130.600 H 121.100 C 121.155 130.600 121.200 130.555 121.200 130.500 V 124.500 C 121.200 124.445 121.155 124.400 121.100 124.400 H 118.200 C 118.100 124.400 118.200 124.500 118.200 124.400 V 118.600 C 118.200 118.500 118.100 118.600 118.200 118.600 H 121.100 C 121.155 118.600 121.200 118.555 121.200 118.500 V 112.500 C 121.200 112.445 121.155 112.400 121.100 112.400 H 118.200 C 118.100 112.400 118.200 112.500 118.200 112.400 V 106.600 C 118.200 106.500 118.100 106.600 118.200 106.600 H 121.100 C 121.155 106.600 121.200 106.555 121.200 106.500 V 100.500 C 121.200 100.445 121.155 100.400 121.100 100.400 H 118.200 C 118.100 100.400 118.200 100.500 118.200 100.400 V 94.600 C 118.200 94.500 118.100 94.600 118.200 94.600 H 121.100 C 121.155 94.600 121.200 94.555 121.200 94.500 V 88.500 C 121.200 88.445 121.155 88.400 121.100 88.400 H 118.200 C 118.100 88.400 118.200 88.500 118.200 88.400 V 82.500 C 118.200 82.445 118.155 82.400 118.100 82.400 H 110.200 C 110.100 82.400 110.200 82.500 110.200 82.400 V 79.500 C 110.200 79.445 110.155 79.400 110.100 79.400 H 104.100 C 104.045 79.400 104.000 79.445 104.000 79.500 V 82.400 C 104.000 82.500 104.100 82.400 104.000 82.400 H 98.200 C 98.100 82.400 98.200 82.500 98.200 82.400 V 79.500 C 98.200 79.445 98.155 79.400 98.100 79.400 H 92.100 C 92.045 79.400 92.000 79.445 92.000 79.500 V 82.400 C 92.000 82.500 92.100 82.400 92.000 82.400 H 86.200 C 86.100 82.400 86.200 82.500 86.200 82.400 V 79.500 C 86.200 79.445 86.155 79.400 86.100 79.400 H 80.100 C 80.045 79.400 80.000 79.445 80.000 79.500 V 82.400 C 80.000 82.500 80.100 82.400 80.000 82.400 H 74.200 C 74.100 82.400 74.200 82.500 74.200 82.400 V 79.500 C 74.200 79.445 74.155 79.400 74.100 79.400 H 68.100 C 68.045 79.400 68.000 79.445 68.000 79.500 V 82.400 C 68.000 82.500 68.100 82.400 68.000 82.400 H 62.200 C 62.100 82.400 62.200 82.500 62.200 82.400 V 79.500 C 62.200 79.445 62.155 79.400 62.100 79.400 H 56.100 C 56.045 79.400 56.000 79.445 56.000 79.500 V 82.400 C 56.000 82.500 56.100 82.400 56.000 82.400 H 50.200 C 50.100 82.400 50.200 82.500 50.200 82.400 V 79.500 C 50.200 79.445 50.155 79.400 50.100 79.400 H 44.100 C 44.045 79.400 44.000 79.445 44.000 79.500 V 82.400 C 44.000 82.500 44.100 82.400 44.000 82.400 H 38.200 C 38.100 82.400 38.200 82.500 38.200 82.400 V 79.500 C 38.200 79.445 38.155 79.400 38.100 79.400 H 32.100 C 32.045 79.400 32.000 79.445 32.000 79.500 V 82.400 C 32.000 82.500 32.100 82.400 32.000 82.400 H 24.100 C 24.045 82.400 24.000 82.445 24.000 82.500 V 88.400 C 24.000 88.500 24.100 88.400 24.000 88.400 H 21.100 C 21.045 88.400 21.000 88.445 21.000 88.500 V 94.500 C 21.000 94.555 21.045 94.600 21.100 94.600 H 24.000 C 24.100 94.600 24.000 94.500 24.000 94.600 V 100.400 C 24.000 100.500 24.100 100.400 24.000 100.400 H 21.100 C 21.045 100.400 21.000 100.445 21.000 100.500 V 106.500 C 21.000 106.555 21.045 106.600 21.100 106.600 H 24.000 C 24.100 106.600 24.000 106.500 24.000 106.600 V 112.400 C 24.000 112.500 24.100 112.400 24.000 112.400 H 21.100 C 21.045 112.400 21.000 112.445 21.000 112.500 V 118.500 C 21.000 118.555 21.045 118.600 21.100 118.600 H 24.000 C 24.100 118.600 24.000 118.500 24.000 118.600 V 124.400 C 24.000 124.500 24.100 124.400 24.000 124.400 H 21.100 C 21.045 124.400 21.000 124.445 21.000 124.500 V 130.500 C 21.000 130.555 21.045 130.600 21.100 130.600 H 24.000 C 24.100 130.600 24.000 130.500 24.000 130.600 V 136.500 C 24.000 136.555 24.045 136.600 24.100 136.600 Z" stroke="rgb(0,0,0)" stroke-width="0.20" />
</g>
<g id="p-4" style="fill:none;stroke-linecap:round;stroke-linejoin:round;">
  <path d="M 26.050 74.250 H 24.650 C 24.550 74.250 24.650 74.350 24.650 74.250 V 71.450 C 24.650 71.350 24.550 71.450 24.650 71.450 H 27.450 C 27.550 71.450 27.450 71.350 27.450 71.450 V 74.250 C 27.450 74.350 27.550 74.250 27.450 74.250 H 26.050 Z" stroke="rgb(0,0,255)" stroke-width="0.20" />
  <path d="M 116.150 74.250 H 114.750 C 114.650 74.250 114.750 74.350 114.750 74.250 V 71.450 C 114.750 71.350 114.650 71.450 114.750 71.450 H 117.550 C 117.650 71.450 117.550 71.350 117.550 71.450 V 74.250 C 117.550 74.350 117.650 74.250 117.550 74.250 H 116.150 Z" stroke="rgb(0,0,255)" stroke-width="0.20" />
  <path d="M 26.050 24.150 H 24.650 C 24.550 24.150 24.650 24.250 24.650 24.150 V 21.350 C 24.650 21.250 24.550 21.350 24.650 21.350 H 27.450 C 27.550 21.350 27.450 21.250 27.450 21.350 V 24.150 C 27.450 24.250 27.550 24.150 27.450 24.150 H 26.050 Z" stroke="rgb(0,0,255)" stroke-width="0.20" />
  <path d="M 116.150 24.150 H 114.750 C 114.650 24.150 114.750 24.250 114.750 24.150 V 21.350 C 114.750 21.250 114.650 21.350 114.750 21.350 H 117.550 C 117.650 21.350 117.550 21.250 117.550 21.350 V 24.150 C 117.550 24.250 117.650 24.150 117.550 24.150 H 116.150 Z" stroke="rgb(0,0,255)" stroke-width="0.20" />
  <path d="M 24.100 77.900 H 118.100 H 121.100 C 121.155 77.900 121.200 77.855 121.200 77.800 V 74.800 V 20.800 V 17.800 C 121.200 17.745 121.155 17.700 121.100 17.700 H 118.100 H 24.100 H 21.100 C 21.045 17.700 21.000 17.745 21.000 17.800 V 20.800 V 74.800 V 77.800 C 21.000 77.855 21.045 77.900 21.100 77.900 H 24.100 Z" stroke="rgb(0,0,0)" stroke-width="0.20" />
  <text dominant-baseline="hanging" font-size="4px" style="font-family: sans-serif ; font-weight: normal; font-style: normal; fill: rgb(255,0,0)" text-anchor="middle" transform="matrix( 1.000 0.000 0.000 1.000 71.100 45.900 )">lid top</text>
</g>
<g id="p-5" style="fill:none;stroke-linecap:round;stroke-linejoin:round;">
  <path d="M 21.100 16.200 H 24.100 C 24.155 16.200 24.200 16.155 24.200 16.100 V 10.100 C 24.200 10.045 24.155 10.000 24.100 10.000 H 21.100 C 21.045 10.000 21.000 10.045 21.000 10.100 V 16.100 C 21.000 16.155 21.045 16.200 21.100 16.200 Z" stroke="rgb(0,0,0)" stroke-width="0.20" />
  <text dominant-baseline="hanging" font-size="4px" style="font-family: sans-serif ; font-weight: normal; font-style: normal; fill: rgb(255,0,0)" text-anchor="middle" transform="matrix( 1.000 0.000 0.000 1.000 22.600 11.200 )">lid fangs</text>
</g>
<g id="p-6" style="fill:none;stroke-linecap:round;stroke-linejoin:round;">
  <path d="M 25.800 16.200 H 28.800 C 28.855 16.200 28.900 16.155 28.900 16.100 V 10.100 C 28.900 10.045 28.855 10.000 28.800 10.000 H 25.800 C 25.745 10.000 25.700 10.045 25.700 10.100 V 16.100 C 25.700 16.155 25.745 16.200 25.800 16.200 Z" stroke="rgb(0,0,0)" stroke-width="0.20" />
</g>
<g id="p-7" style="fill:none;stroke-linecap:round;stroke-linejoin:round;">
  <path d="M 30.500 16.200 H 33.500 C 33.555 16.200 33.600 16.155 33.600 16.100 V 10.100 C 33.600 10.045 33.555 10.000 33.500 10.000 H 30.500 C 30.445 10.000 30.400 10.045 30.400 10.100 V 16.100 C 30.400 16.155 30.445 16.200 30.500 16.200 Z" stroke="rgb(0,0,0)" stroke-width="0.20" />
</g>
<g id="p-8" style="fill:none;stroke-linecap:round;stroke-linejoin:round;">
  <path d="M 35.200 16.200 H 38.200 C 38.255 16.200 38.300 16.155 38.300 16.100 V 10.100 C 38.300 10.045 38.255 10.000 38.200 10.000 H 35.200 C 35.145 10.000 35.100 10.045 35.100 10.100 V 16.100 C 35.100 16.155 35.145 16.200 35.200 16.200 Z" stroke="rgb(0,0,0)" stroke-width="0.20" />
</g>
<g id="p-9" style="fill:none;stroke-linecap:round;stroke-linejoin:round;">
  <path d="M 134.800 339.800 H 131.900 C 131.800 339.800 131.900 339.900 131.900 339.800 V 337.000 C 131.900 336.900 131.800 337.000 131.900 337.000 H 137.700 C 137.800 337.000 137.700 336.900 137.700 337.000 V 339.800 C 137.700 339.900 137.800 339.800 137.700 339.800 H 134.800 Z" stroke="rgb(0,0,255)" stroke-width="0.20" />
  <path d="M 146.800 339.800 H 143.900 C 143.800 339.800 143.900 339.900 143.900 339.800 V 337.000 C 143.900 336.900 143.800 337.000 143.900 337.000 H 149.700 C 149.800 337.000 149.700 336.900 149.700 337.000 V 339.800 C 149.700 339.900 149.800 339.800 149.700 339.800 H 146.800 Z" stroke="rgb(0,0,255)" stroke-width="0.20" />
  <path d="M 158.800 339.800 H 155.900 C 155.800 339.800 155.900 339.900 155.900 339.800 V 337.000 C 155.900 336.900 155.800 337.000 155.900 337.000 H 161.700 C 161.800 337.000 161.700 336.900 161.700 337.000 V 339.800 C 161.700 339.900 161.800 339.800 161.700 339.800 H 158.800 Z" stroke="rgb(0,0,255)" stroke-width="0.20" />
  <path d="M 170.800 339.800 H 167.900 C 167.800 339.800 167.900 339.900 167.900 339.800 V 337.000 C 167.900 336.900 167.800 337.000 167.900 337.000 H 173.700 C 173.800 337.000 173.700 336.900 173.700 337.000 V 339.800 C 173.700 339.900 173.800 339.800 173.700 339.800 H 170.800 Z" stroke="rgb(0,0,255)" stroke-width="0.20" />
  <path d="M 125.800 343.000 H 179.800 C 179.855 343.000 179.900 342.955 179.900 342.900 V 332.000 C 179.900 331.900 179.800 332.000 179.900 332.000 H 182.800 C 182.855 332.000 182.900 331.955 182.900 331.900 V 325.900 C 182.900 325.845 182.855 325.800 182.800 325.800 H 179.900 C 179.800 325.800 179.900 325.900 179.900 325.800 V 320.000 C 179.900 319.900 179.800 320.000 179.900 320.000 H 182.800 C 182.855 320.000 182.900 319.955 182.900 319.900 V 313.900 C 182.900 313.845 182.855 313.800 182.800 313.800 H 179.900 C 179.800 313.800 179.900 313.900 179.900 313.800 V 308.000 C 179.900 307.900 179.800 308.000 179.900 308.000 H 182.800 C 182.855 308.000 182.900 307.955 182.900 307.900 V 301.900 C 182.900 301.845 182.855 301.800 182.800 301.800 H 179.900 C 179.800 301.800 179.900 301.900 179.900 301.800 V 296.000 C 179.900 295.900 179.800 296.000 179.900 296.000 H 182.800 C 182.855 296.000 182.900 295.955 182.900 295.900 V 289.900 C 182.900 289.845 182.855 289.800 182.800 289.800 H 179.900 C 179.800 289.800 179.900 289.900 179.900 289.800 V 284.000 C 179.900 283.900 179.800 284.000 179.900 284.000 H 182.800 C 182.855 284.000 182.900 283.955 182.900 283.900 V 277.900 C 182.900 277.845 182.855 277.800 182.800 277.800 H 179.900 C 179.800 277.800 179.900 277.900 179.900 277.800 V 272.000 C 179.900 271.900 179.800 272.000 179.900 272.000 H 182.800 C 182.855 272.000 182.900 271.955 182.900 271.900 V 265.900 C 182.900 265.845 182.855 265.800 182.800 265.800 H 179.900 C 179.800 265.800 179.900 265.900 179.900 265.800 V 260.000 C 179.900 259.900 179.800 260.000 179.900 260.000 H 182.800 C 182.855 260.000 182.900 259.955 182.900 259.900 V 253.900 C 182.900 253.845 182.855 253.800 182.800 253.800 H 179.900 C 179.800 253.800 179.900 253.900 179.900 253.800 V 242.900 C 179.900 242.845 179.855 242.800 179.800 242.800 H 125.800 C 125.745 242.800 125.700 242.845 125.700 242.900 V 253.800 C 125.700 253.900 125.800 253.800 125.700 253.800 H 122.800 C 122.745 253.800 122.700 253.845 122.700 253.900 V 259.900 C 122.700 259.955 122.745 260.000 122.800 260.000 H 125.700 C 125.800 260.000 125.700 259.900 125.700 260.000 V 265.800 C 125.700 265.900 125.800 265.800 125.700 265.800 H 122.800 C 122.745 265.800 122.700 265.845 122.700 265.900 V 271.900 C 122.700 271.955 122.745 272.000 122.800 272.000 H 125.700 C 125.800 272.000 125.700 271.900 125.700 272.000 V 277.800 C 125.700 277.900 125.800 277.800 125.700 277.800 H 122.800 C 122.745 277.800 122.700 277.845 122.700 277.900 V 283.900 C 122.700 283.955 122.745 284.000 122.800 284.000 H 125.700 C 125.800 284.000 125.700 283.900 125.700 284.000 V 289.800 C 125.700 289.900 125.800 289.800 125.700 289.800 H 122.800 C 122.745 289.800 122.700 289.845 122.700 289.900 V 295.900 C 122.700 295.955 122.745 296.000 122.800 296.000 H 125.700 C 125.800 296.000 125.700 295.900 125.700 296.000 V 301.800 C 125.700 301.900 125.800 301.800 125.700 301.800 H 122.800 C 122.745 301.800 122.700 301.845 122.700 301.900 V 307.900 C 122.700 307.955 122.745 308.000 122.800 308.000 H 125.700 C 125.800 308.000 125.700 307.900 125.700 308.000 V 313.800 C 125.700 313.900 125.800 313.800 125.700 313.800 H 122.800 C 122.745 313.800 122.700 313.845 122.700 313.900 V 319.900 C 122.700 319.955 122.745 320.000 122.800 320.000 H 125.700 C 125.800 320.000 125.700 319.900 125.700 320.000 V 325.800 C 125.700 325.900 125.800 325.800 125.700 325.800 H 122.800 C 122.745 325.800 122.700 325.845 122.700 325.900 V 331.900 C 122.700 331.955 122.745 332.000 122.800 332.000 H 125.700 C 125.800 332.000 125.700 331.900 125.700 332.000 V 342.900 C 125.700 342.955 125.745 343.000 125.800 343.000 Z" stroke="rgb(0,0,0)" stroke-width="0.20" />
</g>
<g id="p-10" style="fill:none;stroke-linecap:round;stroke-linejoin:round;">
  <path d="M 134.800 238.100 H 131.900 C 131.800 238.100 131.900 238.200 131.900 238.100 V 235.300 C 131.900 235.200 131.800 235.300 131.900 235.300 H 137.700 C 137.800 235.300 137.700 235.200 137.700 235.300 V 238.100 C 137.700 238.200 137.800 238.100 137.700 238.100 H 134.800 Z" stroke="rgb(0,0,255)" stroke-width="0.20" />
  <path d="M 146.800 238.100 H 143.900 C 143.800 238.100 143.900 238.200 143.900 238.100 V 235.300 C 143.900 235.200 143.800 235.300 143.900 235.300 H 149.700 C 149.800 235.300 149.700 235.200 149.700 235.300 V 238.100 C 149.700 238.200 149.800 238.100 149.700 238.100 H 146.800 Z" stroke="rgb(0,0,255)" stroke-width="0.20" />
  <path d="M 158.800 238.100 H 155.900 C 155.800 238.100 155.900 238.200 155.900 238.100 V 235.300 C 155.900 235.200 155.800 235.300 155.900 235.300 H 161.700 C 161.800 235.300 161.700 235.200 161.700 235.300 V 238.100 C 161.700 238.200 161.800 238.100 161.700 238.100 H 158.800 Z" stroke="rgb(0,0,255)" stroke-width="0.20" />
  <path d="M 170.800 238.100 H 167.900 C 167.800 238.100 167.900 238.200 167.900 238.100 V 235.300 C 167.900 235.200 167.800 235.300 167.900 235.300 H 173.700 C 173.800 235.300 173.700 235.200 173.700 235.300 V 238.100 C 173.700 238.200 173.800 238.100 173.700 238.100 H 170.800 Z" stroke="rgb(0,0,255)" stroke-width="0.20" />
  <path d="M 125.800 241.300 H 179.800 C 179.855 241.300 179.900 241.255 179.900 241.200 V 230.300 C 179.900 230.200 179.800 230.300 179.900 230.300 H 182.800 C 182.855 230.300 182.900 230.255 182.900 230.200 V 224.200 C 182.900 224.145 182.855 224.100 182.800 224.100 H 179.900 C 179.800 224.100 179.900 224.200 179.900 224.100 V 218.300 C 179.900 218.200 179.800 218.300 179.900 218.300 H 182.800 C 182.855 218.300 182.900 218.255 182.900 218.200 V 212.200 C 182.900 212.145 182.855 212.100 182.800 212.100 H 179.900 C 179.800 212.100 179.900 212.200 179.900 212.100 V 206.300 C 179.900 206.200 179.800 206.300 179.900 206.300 H 182.800 C 182.855 206.300 182.900 206.255 182.900 206.200 V 200.200 C 182.900 200.145 182.855 200.100 182.800 200.100 H 179.900 C 179.800 200.100 179.900 200.200 179.900 200.100 V 194.300 C 179.900 194.200 179.800 194.300 179.900 194.300 H 182.800 C 182.855 194.300 182.900 194.255 182.900 194.200 V 188.200 C 182.900 188.145 182.855 188.100 182.800 188.100 H 179.900 C 179.800 188.100 179.900 188.200 179.900 188.100 V 182.300 C 179.900 182.200 179.800 182.300 179.900 182.300 H 182.800 C 182.855 182.300 182.900 182.255 182.900 182.200 V 176.200 C 182.900 176.145 182.855 176.100 182.800 176.100 H 179.900 C 179.800 176.100 179.900 176.200 179.900 176.100 V 170.300 C 179.900 170.200 179.800 170.300 179.900 170.300 H 182.800 C 182.855 170.300 182.900 170.255 182.900 170.200 V 164.200 C 182.900 164.145 182.855 164.100 182.800 164.100 H 179.900 C 179.800 164.100 179.900 164.200 179.900 164.100 V 158.300 C 179.900 158.200 179.800 158.300 179.900 158.300 H 182.800 C 182.855 158.300 182.900 158.255 182.900 158.200 V 152.200 C 182.900 152.145 182.855 152.100 182.800 152.100 H 179.900 C 179.800 152.100 179.900 152.200 179.900 152.100 V 141.200 C 179.900 141.145 179.855 141.100 179.800 141.100 H 125.800 C 125.745 141.100 125.700 141.145 125.700 141.200 V 152.100 C 125.700 152.200 125.800 152.100 125.700 152.100 H 122.800 C 122.745 152.100 122.700 152.145 122.700 152.200 V 158.200 C 122.700 158.255 122.745 158.300 122.800 158.300 H 125.700 C 125.800 158.300 125.700 158.200 125.700 158.300 V 164.100 C 125.700 164.200 125.800 164.100 125.700 164.100 H 122.800 C 122.745 164.100 122.700 164.145 122.700 164.200 V 170.200 C 122.700 170.255 122.745 170.300 122.800 170.300 H 125.700 C 125.800 170.300 125.700 170.200 125.700 170.300 V 176.100 C 125.700 176.200 125.800 176.100 125.700 176.100 H 122.800 C 122.745 176.100 122.700 176.145 122.700 176.200 V 182.200 C 122.700 182.255 122.745 182.300 122.800 182.300 H 125.700 C 125.800 182.300 125.700 182.200 125.700 182.300 V 188.100 C 125.700 188.200 125.800 188.100 125.700 188.100 H 122.800 C 122.745 188.100 122.700 188.145 122.700 188.200 V 194.200 C 122.700 194.255 122.745 194.300 122.800 194.300 H 125.700 C 125.800 194.300 125.700 194.200 125.700 194.300 V 200.100 C 125.700 200.200 125.800 200.100 125.700 200.100 H 122.800 C 122.745 200.100 122.700 200.145 122.700 200.200 V 206.200 C 122.700 206.255 122.745 206.300 122.800 206.300 H 125.700 C 125.800 206.300 125.700 206.200 125.700 206.300 V 212.100 C 125.700 212.200 125.800 212.100 125.700 212.100 H 122.800 C 122.745 212.100 122.700 212.145 122.700 212.200 V 218.200 C 122.700 218.255 122.745 218.300 122.800 218.300 H 125.700 C 125.800 218.300 125.700 218.200 125.700 218.300 V 224.100 C 125.700 224.200 125.800 224.100 125.700 224.100 H 122.800 C 122.745 224.100 122.700 224.145 122.700 224.200 V 230.200 C 122.700 230.255 122.745 230.300 122.800 230.300 H 125.700 C 125.800 230.300 125.700 230.200 125.700 230.300 V 241.200 C 125.700 241.255 125.745 241.300 125.800 241.300 Z" stroke="rgb(0,0,0)" stroke-width="0.20" />
</g>
</svg>