<?xml version='1.0' encoding='utf-8'?>
<svg height="236.60mm" viewBox="0.0 0.0 369.14 236.60" width="369.14mm" xmlns="http://www.w3.org/2000/svg" xmlns:cc="http://creativecommons.org/ns#" xmlns:dc="http://purl.org/dc/elements/1.1/" xmlns:inkscape="http://www.inkscape.org/namespaces/inkscape" xmlns:rdf="http://www.w3.org/1999/02/22-rdf-syntax-ns#" xmlns:svg="http://www.w3.org/2000/svg" xmlns:xlink="http://www.w3.org/1999/xlink">
<!--
AngledBox - Box with both ends cornered

Created with Boxes.py (https://festi.info/boxes.py)
Command line (remove spaces between dashes): boxes AngledBox
-->
<title>AngledBox</title>
<metadata>
<rdf:RDF><cc:Work>
<dc:title>Box - AngledBox</dc:title>
<dc:source>boxes AngledBox</dc:source>
<dc:description>Box with both ends cornered

Created with Boxes.py (https://festi.info/boxes.py)
Command line: boxes AngledBox
Command line short: boxes AngledBox
</dc:description>
</cc:Work></rdf:RDF></metadata>
<g id="p-0" style="fill:none;stroke-linecap:round;stroke-linejoin:round;">
  <path d="M 18.800 226.600 H 118.800 V 216.600 H 18.800 V 226.600 Z" stroke="rgb(0,0,0)" stroke-width="0.20" />
  <text dominant-baseline="hanging" font-size="8px" style="font-family: sans-serif ; font-weight: normal; font-style: normal; fill: rgb(255,0,0)" text-anchor="middle" transform="matrix( 1.000 0.000 0.000 1.000 68.800 217.600 )">100.00mm, burn:0.10mm</text>
</g>
<g id="p-1" style="fill:none;stroke-linecap:round;stroke-linejoin:round;">
  <text dominant-baseline="hanging" font-size="4px" style="font-family: sans-serif ; font-weight: normal; font-style: normal; fill: rgb(255,0,0)" text-anchor="middle" transform="matrix( 1.000 0.000 0.000 1.000 68.800 162.900 )">Bottom</text><path d="M 56.206 211.900 H 65.700 C 65.800 211.900 65.700 211.800 65.700 211.900 V 214.800 C 65.700 214.855 65.745 214.900 65.800 214.900 H 71.800 C 71.855 214.900 71.900 214.855 71.900 214.800 V 211.900 C 71.900 211.800 71.800 211.900 71.900 211.900 H 81.394 C 81.411 211.900 81.428 211.895 81.444 211.887 L 89.665 207.140 C 89.752 207.090 89.615 207.053 89.665 207.140 L 91.115 209.651 C 91.143 209.699 91.204 209.715 91.252 209.688 L 96.448 206.688 C 96.496 206.660 96.512 206.599 96.485 206.551 L 95.035 204.040 C 94.985 203.953 94.948 204.090 95.035 204.040 L 103.256 199.293 C 103.272 199.284 103.284 199.272 103.293 199.256 L 108.040 191.035 C 108.090 190.948 107.953 190.985 108.040 191.035 L 110.551 192.485 C 110.599 192.512 110.660 192.496 110.688 192.448 L 113.688 187.252 C 113.715 187.204 113.699 187.143 113.651 187.115 L 111.140 185.665 C 111.053 185.615 111.090 185.752 111.140 185.665 L 115.887 177.444 C 115.895 177.428 115.900 177.411 115.900 177.394 V 167.900 C 115.900 167.800 115.800 167.900 115.900 167.900 H 118.800 C 118.855 167.900 118.900 167.855 118.900 167.800 V 161.800 C 118.900 161.745 118.855 161.700 118.800 161.700 H 115.900 C 115.800 161.700 115.900 161.800 115.900 161.700 V 152.206 C 115.900 152.189 115.895 152.172 115.887 152.156 L 111.140 143.935 C 111.090 143.848 111.053 143.985 111.140 143.935 L 113.651 142.485 C 113.699 142.457 113.715 142.396 113.688 142.348 L 110.688 137.152 C 110.660 137.104 110.599 137.088 110.551 137.115 L 108.040 138.565 C 107.953 138.615 108.090 138.652 108.040 138.565 L 103.293 130.344 C 103.284 130.328 103.272 130.316 103.256 130.307 L 95.035 125.560 C 94.948 125.510 94.985 125.647 95.035 125.560 L 96.485 123.049 C 96.512 123.001 96.496 122.940 96.448 122.912 L 91.252 119.912 C 91.204 119.885 91.143 119.901 91.115 119.949 L 89.665 122.460 C 89.615 122.547 89.752 122.510 89.665 122.460 L 81.444 117.713 C 81.428 117.705 81.411 117.700 81.394 117.700 H 71.900 C 71.800 117.700 71.900 117.800 71.900 117.700 V 114.800 C 71.900 114.745 71.855 114.700 71.800 114.700 H 65.800 C 65.745 114.700 65.700 114.745 65.700 114.800 V 117.700 C 65.700 117.800 65.800 117.700 65.700 117.700 H 56.206 C 56.189 117.700 56.172 117.705 56.156 117.713 L 47.935 122.460 C 47.848 122.510 47.985 122.547 47.935 122.460 L 46.485 119.949 C 46.457 119.901 46.396 119.885 46.348 119.912 L 41.152 122.912 C 41.104 122.940 41.088 123.001 41.115 123.049 L 42.565 125.560 C 42.615 125.647 42.652 125.510 42.565 125.560 L 34.344 130.307 C 34.328 130.316 34.316 130.328 34.307 130.344 L 29.560 138.565 C 29.510 138.652 29.647 138.615 29.560 138.565 L 27.049 137.115 C 27.001 137.088 26.940 137.104 26.912 137.152 L 23.912 142.348 C 23.885 142.396 23.901 142.457 23.949 142.485 L 26.460 143.935 C 26.547 143.985 26.510 143.848 26.460 143.935 L 21.713 152.156 C 21.705 152.172 21.700 152.189 21.700 152.206 V 161.700 C 21.700 161.800 21.800 161.700 21.700 161.700 H 18.800 C 18.745 161.700 18.700 161.745 18.700 161.800 V 167.800 C 18.700 167.855 18.745 167.900 18.800 167.900 H 21.700 C 21.800 167.900 21.700 167.800 21.700 167.900 V 177.394 C 21.700 177.411 21.705 177.428 21.713 177.444 L 26.460 185.665 C 26.510 185.752 26.547 185.615 26.460 185.665 L 23.949 187.115 C 23.901 187.143 23.885 187.204 23.912 187.252 L 26.912 192.448 C 26.940 192.496 27.001 192.512 27.049 192.485 L 29.560 191.035 C 29.647 190.985 29.510 190.948 29.560 191.035 L 34.307 199.256 C 34.316 199.272 34.328 199.284 34.344 199.293 L 42.565 204.040 C 42.652 204.090 42.615 203.953 42.565 204.040 L 41.115 206.551 C 41.088 206.599 41.104 206.660 41.152 206.688 L 46.348 209.688 C 46.396 209.715 46.457 209.699 46.485 209.651 L 47.935 207.140 C 47.985 207.053 47.848 207.090 47.935 207.140 L 56.156 211.887 C 56.172 211.895 56.189 211.900 56.206 211.900" stroke="rgb(0,0,0)" stroke-width="0.20" />
</g>
<g id="p-2" style="fill:none;stroke-linecap:round;stroke-linejoin:round;">
  <path d="M 32.197 110.000 H 29.297 C 29.197 110.000 29.297 110.100 29.297 110.000 V 107.200 C 29.297 107.100 29.197 107.200 29.297 107.200 H 35.097 C 35.197 107.200 35.097 107.100 35.097 107.200 V 110.000 C 35.097 110.100 35.197 110.000 35.097 110.000 H 32.197 Z" stroke="rgb(0,0,255)" stroke-width="0.20" />
  <text dominant-baseline="hanging" font-size="4px" style="font-family: sans-serif ; font-weight: normal; font-style: normal; fill: rgb(255,0,0)" text-anchor="middle" transform="matrix( 1.000 0.000 0.000 1.000 32.197 59.700 )">wall 1</text><path d="M 19.604 113.200 H 44.791 H 45.595 C 45.650 113.200 45.695 113.155 45.695 113.100 V 107.100 V 97.600 C 45.695 97.545 45.650 97.500 45.595 97.500 H 44.195 C 44.095 97.500 44.195 97.600 44.195 97.500 V 91.700 C 44.195 91.600 44.095 91.700 44.195 91.700 H 45.595 C 45.650 91.700 45.695 91.655 45.695 91.600 V 85.600 C 45.695 85.545 45.650 85.500 45.595 85.500 H 44.195 C 44.095 85.500 44.195 85.600 44.195 85.500 V 79.700 C 44.195 79.600 44.095 79.700 44.195 79.700 H 45.595 C 45.650 79.700 45.695 79.655 45.695 79.600 V 73.600 C 45.695 73.545 45.650 73.500 45.595 73.500 H 44.195 C 44.095 73.500 44.195 73.600 44.195 73.500 V 67.700 C 44.195 67.600 44.095 67.700 44.195 67.700 H 45.595 C 45.650 67.700 45.695 67.655 45.695 67.600 V 61.600 C 45.695 61.545 45.650 61.500 45.595 61.500 H 44.195 C 44.095 61.500 44.195 61.600 44.195 61.500 V 55.700 C 44.195 55.600 44.095 55.700 44.195 55.700 H 45.595 C 45.650 55.700 45.695 55.655 45.695 55.600 V 49.600 C 45.695 49.545 45.650 49.500 45.595 49.500 H 44.195 C 44.095 49.500 44.195 49.600 44.195 49.500 V 43.700 C 44.195 43.600 44.095 43.700 44.195 43.700 H 45.595 C 45.650 43.700 45.695 43.655 45.695 43.600 V 37.600 C 45.695 37.545 45.650 37.500 45.595 37.500 H 44.195 C 44.095 37.500 44.195 37.600 44.195 37.500 V 31.700 C 44.195 31.600 44.095 31.700 44.195 31.700 H 45.595 C 45.650 31.700 45.695 31.655 45.695 31.600 V 25.600 C 45.695 25.545 45.650 25.500 45.595 25.500 H 44.195 C 44.095 25.500 44.195 25.600 44.195 25.500 V 19.700 C 44.195 19.600 44.095 19.700 44.195 19.700 H 45.595 C 45.650 19.700 45.695 19.655 45.695 19.600 V 10.100 C 45.695 10.045 45.650 10.000 45.595 10.000 H 44.791 H 19.604 H 18.800 C 18.745 10.000 18.700 10.045 18.700 10.100 V 19.600 C 18.700 19.655 18.745 19.700 18.800 19.700 H 20.200 C 20.300 19.700 20.200 19.600 20.200 19.700 V 25.500 C 20.200 25.600 20.300 25.500 20.200 25.500 H 18.800 C 18.745 25.500 18.700 25.545 18.700 25.600 V 31.600 C 18.700 31.655 18.745 31.700 18.800 31.700 H 20.200 C 20.300 31.700 20.200 31.600 20.200 31.700 V 37.500 C 20.200 37.600 20.300 37.500 20.200 37.500 H 18.800 C 18.745 37.500 18.700 37.545 18.700 37.600 V 43.600 C 18.700 43.655 18.745 43.700 18.800 43.700 H 20.200 C 20.300 43.700 20.200 43.600 20.200 43.700 V 49.500 C 20.200 49.600 20.300 49.500 20.200 49.500 H 18.800 C 18.745 49.500 18.700 49.545 18.700 49.600 V 55.600 C 18.700 55.655 18.745 55.700 18.800 55.700 H 20.200 C 20.300 55.700 20.200 55.600 20.200 55.700 V 61.500 C 20.200 61.600 20.300 61.500 20.200 61.500 H 18.800 C 18.745 61.500 18.700 61.545 18.700 61.600 V 67.600 C 18.700 67.655 18.745 67.700 18.800 67.700 H 20.200 C 20.300 67.700 20.200 67.600 20.200 67.700 V 73.500 C 20.200 73.600 20.300 73.500 20.200 73.500 H 18.800 C 18.745 73.500 18.700 73.545 18.700 73.600 V 79.600 C 18.700 79.655 18.745 79.700 18.800 79.700 H 20.200 C 20.300 79.700 20.200 79.600 20.200 79.700 V 85.500 C 20.200 85.600 20.300 85.500 20.200 85.500 H 18.800 C 18.745 85.500 18.700 85.545 18.700 85.600 V 91.600 C 18.700 91.655 18.745 91.700 18.800 91.700 H 20.200 C 20.300 91.700 20.200 91.600 20.200 91.700 V 97.500 C 20.200 97.600 20.300 97.500 20.200 97.500 H 18.800 C 18.745 97.500 18.700 97.545 18.700 97.600 V 107.100 V 113.100 C 18.700 113.155 18.745 113.200 18.800 113.200 H 19.604" stroke="rgb(0,0,0)" stroke-width="0.20" />
</g>
<g id="p-3" style="fill:none;stroke-linecap:round;stroke-linejoin:round;">
  <path d="M 60.692 110.000 H 57.792 C 57.692 110.000 57.792 110.100 57.792 110.000 V 107.200 C 57.792 107.100 57.692 107.200 57.792 107.200 H 63.592 C 63.692 107.200 63.592 107.100 63.592 107.200 V 110.000 C 63.592 110.100 63.692 110.000 63.592 110.000 H 60.692 Z" stroke="rgb(0,0,255)" stroke-width="0.20" />
  <text dominant-baseline="hanging" font-size="4px" style="font-family: sans-serif ; font-weight: normal; font-style: normal; fill: rgb(255,0,0)" text-anchor="middle" transform="matrix( 1.000 0.000 0.000 1.000 60.692 59.700 )">wall 2</text><path d="M 48.099 113.200 H 73.286 H 72.590 C 72.645 113.200 72.690 113.155 72.690 113.100 V 107.100 V 97.700 C 72.690 97.600 72.590 97.700 72.690 97.700 H 74.090 C 74.145 97.700 74.190 97.655 74.190 97.600 V 91.600 C 74.190 91.545 74.145 91.500 74.090 91.500 H 72.690 C 72.590 91.500 72.690 91.600 72.690 91.500 V 85.700 C 72.690 85.600 72.590 85.700 72.690 85.700 H 74.090 C 74.145 85.700 74.190 85.655 74.190 85.600 V 79.600 C 74.190 79.545 74.145 79.500 74.090 79.500 H 72.690 C 72.590 79.500 72.690 79.600 72.690 79.500 V 73.700 C 72.690 73.600 72.590 73.700 72.690 73.700 H 74.090 C 74.145 73.700 74.190 73.655 74.190 73.600 V 67.600 C 74.190 67.545 74.145 67.500 74.090 67.500 H 72.690 C 72.590 67.500 72.690 67.600 72.690 67.500 V 61.700 C 72.690 61.600 72.590 61.700 72.690 61.700 H 74.090 C 74.145 61.700 74.190 61.655 74.190 61.600 V 55.600 C 74.190 55.545 74.145 55.500 74.090 55.500 H 72.690 C 72.590 55.500 72.690 55.600 72.690 55.500 V 49.700 C 72.690 49.600 72.590 49.700 72.690 49.700 H 74.090 C 74.145 49.700 74.190 49.655 74.190 49.600 V 43.600 C 74.190 43.545 74.145 43.500 74.090 43.500 H 72.690 C 72.590 43.500 72.690 43.600 72.690 43.500 V 37.700 C 72.690 37.600 72.590 37.700 72.690 37.700 H 74.090 C 74.145 37.700 74.190 37.655 74.190 37.600 V 31.600 C 74.190 31.545 74.145 31.500 74.090 31.500 H 72.690 C 72.590 31.500 72.690 31.600 72.690 31.500 V 25.700 C 72.690 25.600 72.590 25.700 72.690 25.700 H 74.090 C 74.145 25.700 74.190 25.655 74.190 25.600 V 19.600 C 74.190 19.545 74.145 19.500 74.090 19.500 H 72.690 C 72.590 19.500 72.690 19.600 72.690 19.500 V 10.100 C 72.690 10.045 72.645 10.000 72.590 10.000 H 73.286 H 48.099 H 48.795 C 48.740 10.000 48.695 10.045 48.695 10.100 V 19.500 C 48.695 19.600 48.795 19.500 48.695 19.500 H 47.295 C 47.240 19.500 47.195 19.545 47.195 19.600 V 25.600 C 47.195 25.655 47.240 25.700 47.295 25.700 H 48.695 C 48.795 25.700 48.695 25.600 48.695 25.700 V 31.500 C 48.695 31.600 48.795 31.500 48.695 31.500 H 47.295 C 47.240 31.500 47.195 31.545 47.195 31.600 V 37.600 C 47.195 37.655 47.240 37.700 47.295 37.700 H 48.695 C 48.795 37.700 48.695 37.600 48.695 37.700 V 43.500 C 48.695 43.600 48.795 43.500 48.695 43.500 H 47.295 C 47.240 43.500 47.195 43.545 47.195 43.600 V 49.600 C 47.195 49.655 47.240 49.700 47.295 49.700 H 48.695 C 48.795 49.700 48.695 49.600 48.695 49.700 V 55.500 C 48.695 55.600 48.795 55.500 48.695 55.500 H 47.295 C 47.240 55.500 47.195 55.545 47.195 55.600 V 61.600 C 47.195 61.655 47.240 61.700 47.295 61.700 H 48.695 C 48.795 61.700 48.695 61.600 48.695 61.700 V 67.500 C 48.695 67.600 48.795 67.500 48.695 67.500 H 47.295 C 47.240 67.500 47.195 67.545 47.195 67.600 V 73.600 C 47.195 73.655 47.240 73.700 47.295 73.700 H 48.695 C 48.795 73.700 48.695 73.600 48.695 73.700 V 79.500 C 48.695 79.600 48.795 79.500 48.695 79.500 H 47.295 C 47.240 79.500 47.195 79.545 47.195 79.600 V 85.600 C 47.195 85.655 47.240 85.700 47.295 85.700 H 48.695 C 48.795 85.700 48.695 85.600 48.695 85.700 V 91.500 C 48.695 91.600 48.795 91.500 48.695 91.500 H 47.295 C 47.240 91.500 47.195 91.545 47.195 91.600 V 97.600 C 47.195 97.655 47.240 97.700 47.295 97.700 H 48.695 C 48.795 97.700 48.695 97.600 48.695 97.700 V 107.100 V 113.100 C 48.695 113.155 48.740 113.200 48.795 113.200 H 48.099" stroke="rgb(0,0,0)" stroke-width="0.20" />
</g>
<g id="p-4" style="fill:none;stroke-linecap:round;stroke-linejoin:round;">
  <path d="M 89.187 110.000 H 86.287 C 86.187 110.000 86.287 110.100 86.287 110.000 V 107.200 C 86.287 107.100 86.187 107.200 86.287 107.200 H 92.087 C 92.187 107.200 92.087 107.100 92.087 107.200 V 110.000 C 92.087 110.100 92.187 110.000 92.087 110.000 H 89.187 Z" stroke="rgb(0,0,255)" stroke-width="0.20" />
  <text dominant-baseline="hanging" font-size="4px" style="font-family: sans-serif ; font-weight: normal; font-style: normal; fill: rgb(255,0,0)" text-anchor="middle" transform="matrix( 1.000 0.000 0.000 1.000 89.187 59.700 )">wall 3</text><path d="M 76.594 113.200 H 101.781 H 102.585 C 102.640 113.200 102.685 113.155 102.685 113.100 V 107.100 V 97.600 C 102.685 97.545 102.640 97.500 102.585 97.500 H 101.185 C 101.085 97.500 101.185 97.600 101.185 97.500 V 91.700 C 101.185 91.600 101.085 91.700 101.185 91.700 H 102.585 C 102.640 91.700 102.685 91.655 102.685 91.600 V 85.600 C 102.685 85.545 102.640 85.500 102.585 85.500 H 101.185 C 101.085 85.500 101.185 85.600 101.185 85.500 V 79.700 C 101.185 79.600 101.085 79.700 101.185 79.700 H 102.585 C 102.640 79.700 102.685 79.655 102.685 79.600 V 73.600 C 102.685 73.545 102.640 73.500 102.585 73.500 H 101.185 C 101.085 73.500 101.185 73.600 101.185 73.500 V 67.700 C 101.185 67.600 101.085 67.700 101.185 67.700 H 102.585 C 102.640 67.700 102.685 67.655 102.685 67.600 V 61.600 C 102.685 61.545 102.640 61.500 102.585 61.500 H 101.185 C 101.085 61.500 101.185 61.600 101.185 61.500 V 55.700 C 101.185 55.600 101.085 55.700 101.185 55.700 H 102.585 C 102.640 55.700 102.685 55.655 102.685 55.600 V 49.600 C 102.685 49.545 102.640 49.500 102.585 49.500 H 101.185 C 101.085 49.500 101.185 49.600 101.185 49.500 V 43.700 C 101.185 43.600 101.085 43.700 101.185 43.700 H 102.585 C 102.640 43.700 102.685 43.655 102.685 43.600 V 37.600 C 102.685 37.545 102.640 37.500 102.585 37.500 H 101.185 C 101.085 37.500 101.185 37.600 101.185 37.500 V 31.700 C 101.185 31.600 101.085 31.700 101.185 31.700 H 102.585 C 102.640 31.700 102.685 31.655 102.685 31.600 V 25.600 C 102.685 25.545 102.640 25.500 102.585 25.500 H 101.185 C 101.085 25.500 101.185 25.600 101.185 25.500 V 19.700 C 101.185 19.600 101.085 19.700 101.185 19.700 H 102.585 C 102.640 19.700 102.685 19.655 102.685 19.600 V 10.100 C 102.685 10.045 102.640 10.000 102.585 10.000 H 101.781 H 76.594 H 75.790 C 75.735 10.000 75.690 10.045 75.690 10.100 V 19.600 C 75.690 19.655 75.735 19.700 75.790 19.700 H 77.190 C 77.290 19.700 77.190 19.600 77.190 19.700 V 25.500 C 77.190 25.600 77.290 25.500 77.190 25.500 H 75.790 C 75.735 25.500 75.690 25.545 75.690 25.600 V 31.600 C 75.690 31.655 75.735 31.700 75.790 31.700 H 77.190 C 77.290 31.700 77.190 31.600 77.190 31.700 V 37.500 C 77.190 37.600 77.290 37.500 77.190 37.500 H 75.790 C 75.735 37.500 75.690 37.545 75.690 37.600 V 43.600 C 75.690 43.655 75.735 43.700 75.790 43.700 H 77.190 C 77.290 43.700 77.190 43.600 77.190 43.700 V 49.500 C 77.190 49.600 77.290 49.500 77.190 49.500 H 75.790 C 75.735 49.500 75.690 49.545 75.690 49.600 V 55.600 C 75.690 55.655 75.735 55.700 75.790 55.700 H 77.190 C 77.290 55.700 77.190 55.600 77.190 55.700 V 61.500 C 77.190 61.600 77.290 61.500 77.190 61.500 H 75.790 C 75.735 61.500 75.690 61.545 75.690 61.600 V 67.600 C 75.690 67.655 75.735 67.700 75.790 67.700 H 77.190 C 77.290 67.700 77.190 67.600 77.190 67.700 V 73.500 C 77.190 73.600 77.290 73.500 77.190 73.500 H 75.790 C 75.735 73.500 75.690 73.545 75.690 73.600 V 79.600 C 75.690 79.655 75.735 79.700 75.790 79.700 H 77.190 C 77.290 79.700 77.190 79.600 77.190 79.700 V 85.500 C 77.190 85.600 77.290 85.500 77.190 85.500 H 75.790 C 75.735 85.500 75.690 85.545 75.690 85.600 V 91.600 C 75.690 91.655 75.735 91.700 75.790 91.700 H 77.190 C 77.290 91.700 77.190 91.600 77.190 91.700 V 97.500 C 77.190 97.600 77.290 97.500 77.190 97.500 H 75.790 C 75.735 97.500 75.690 97.545 75.690 97.600 V 107.100 V 113.100 C 75.690 113.155 75.735 113.200 75.790 113.200 H 76.594" stroke="rgb(0,0,0)" stroke-width="0.20" />
</g>
<g id="p-5" style="fill:none;stroke-linecap:round;stroke-linejoin:round;">
  <path d="M 117.682 110.000 H 114.782 C 114.682 110.000 114.782 110.100 114.782 110.000 V 107.200 C 114.782 107.100 114.682 107.200 114.782 107.200 H 120.582 C 120.682 107.200 120.582 107.100 120.582 107.200 V 110.000 C 120.582 110.100 120.682 110.000 120.582 110.000 H 117.682 Z" stroke="rgb(0,0,255)" stroke-width="0.20" />
  <text dominant-baseline="hanging" font-size="4px" style="font-family: sans-serif ; font-weight: normal; font-style: normal; fill: rgb(255,0,0)" text-anchor="middle" transform="matrix( 1.000 0.000 0.000 1.000 117.682 59.700 )">wall 4</text><path d="M 105.089 113.200 H 130.276 H 129.580 C 129.635 113.200 129.680 113.155 129.680 113.100 V 107.100 V 97.700 C 129.680 97.600 129.580 97.700 129.680 97.700 H 131.080 C 131.135 97.700 131.180 97.655 131.180 97.600 V 91.600 C 131.180 91.545 131.135 91.500 131.080 91.500 H 129.680 C 129.580 91.500 129.680 91.600 129.680 91.500 V 85.700 C 129.680 85.600 129.580 85.700 129.680 85.700 H 131.080 C 131.135 85.700 131.180 85.655 131.180 85.600 V 79.600 C 131.180 79.545 131.135 79.500 131.080 79.500 H 129.680 C 129.580 79.500 129.680 79.600 129.680 79.500 V 73.700 C 129.680 73.600 129.580 73.700 129.680 73.700 H 131.080 C 131.135 73.700 131.180 73.655 131.180 73.600 V 67.600 C 131.180 67.545 131.135 67.500 131.080 67.500 H 129.680 C 129.580 67.500 129.680 67.600 129.680 67.500 V 61.700 C 129.680 61.600 129.580 61.700 129.680 61.700 H 131.080 C 131.135 61.700 131.180 61.655 131.180 61.600 V 55.600 C 131.180 55.545 131.135 55.500 131.080 55.500 H 129.680 C 129.580 55.500 129.680 55.600 129.680 55.500 V 49.700 C 129.680 49.600 129.580 49.700 129.680 49.700 H 131.080 C 131.135 49.700 131.180 49.655 131.180 49.600 V 43.600 C 131.180 43.545 131.135 43.500 131.080 43.500 H 129.680 C 129.580 43.500 129.680 43.600 129.680 43.500 V 37.700 C 129.680 37.600 129.580 37.700 129.680 37.700 H 131.080 C 131.135 37.700 131.180 37.655 131.180 37.600 V 31.600 C 131.180 31.545 131.135 31.500 131.080 31.500 H 129.680 C 129.580 31.500 129.680 31.600 129.680 31.500 V 25.700 C 129.680 25.600 129.580 25.700 129.680 25.700 H 131.080 C 131.135 25.700 131.180 25.655 131.180 25.600 V 19.600 C 131.180 19.545 131.135 19.500 131.080 19.500 H 129.680 C 129.580 19.500 129.680 19.600 129.680 19.500 V 10.100 C 129.680 10.045 129.635 10.000 129.580 10.000 H 130.276 H 105.089 H 105.785 C 105.730 10.000 105.685 10.045 105.685 10.100 V 19.500 C 105.685 19.600 105.785 19.500 105.685 19.500 H 104.285 C 104.230 19.500 104.185 19.545 104.185 19.600 V 25.600 C 104.185 25.655 104.230 25.700 104.285 25.700 H 105.685 C 105.785 25.700 105.685 25.600 105.685 25.700 V 31.500 C 105.685 31.600 105.785 31.500 105.685 31.500 H 104.285 C 104.230 31.500 104.185 31.545 104.185 31.600 V 37.600 C 104.185 37.655 104.230 37.700 104.285 37.700 H 105.685 C 105.785 37.700 105.685 37.600 105.685 37.700 V 43.500 C 105.685 43.600 105.785 43.500 105.685 43.500 H 104.285 C 104.230 43.500 104.185 43.545 104.185 43.600 V 49.600 C 104.185 49.655 104.230 49.700 104.285 49.700 H 105.685 C 105.785 49.700 105.685 49.600 105.685 49.700 V 55.500 C 105.685 55.600 105.785 55.500 105.685 55.500 H 104.285 C 104.230 55.500 104.185 55.545 104.185 55.600 V 61.600 C 104.185 61.655 104.230 61.700 104.285 61.700 H 105.685 C 105.785 61.700 105.685 61.600 105.685 61.700 V 67.500 C 105.685 67.600 105.785 67.500 105.685 67.500 H 104.285 C 104.230 67.500 104.185 67.545 104.185 67.600 V 73.600 C 104.185 73.655 104.230 73.700 104.285 73.700 H 105.685 C 105.785 73.700 105.685 73.600 105.685 73.700 V 79.500 C 105.685 79.600 105.785 79.500 105.685 79.500 H 104.285 C 104.230 79.500 104.185 79.545 104.185 79.600 V 85.600 C 104.185 85.655 104.230 85.700 104.285 85.700 H 105.685 C 105.785 85.700 105.685 85.600 105.685 85.700 V 91.500 C 105.685 91.600 105.785 91.500 105.685 91.500 H 104.285 C 104.230 91.500 104.185 91.545 104.185 91.600 V 97.600 C 104.185 97.655 104.230 97.700 104.285 97.700 H 105.685 C 105.785 97.700 105.685 97.600 105.685 97.700 V 107.100 V 113.100 C 105.685 113.155 105.730 113.200 105.785 113.200 H 105.089" stroke="rgb(0,0,0)" stroke-width="0.20" />
</g>
<g id="p-6" style="fill:none;stroke-linecap:round;stroke-linejoin:round;">
  <path d="M 146.177 110.000 H 143.277 C 143.177 110.000 143.277 110.100 143.277 110.000 V 107.200 C 143.277 107.100 143.177 107.200 143.277 107.200 H 149.077 C 149.177 107.200 149.077 107.100 149.077 107.200 V 110.000 C 149.077 110.100 149.177 110.000 149.077 110.000 H 146.177 Z" stroke="rgb(0,0,255)" stroke-width="0.20" />
  <text dominant-baseline="hanging" font-size="4px" style="font-family: sans-serif ; font-weight: normal; font-style: normal; fill: rgb(255,0,0)" text-anchor="middle" transform="matrix( 1.000 0.000 0.000 1.000 146.177 59.700 )">wall 5</text><path d="M 133.584 113.200 H 158.771 H 159.575 C 159.630 113.200 159.675 113.155 159.675 113.100 V 107.100 V 97.600 C 159.675 97.545 159.630 97.500 159.575 97.500 H 158.175 C 158.075 97.500 158.175 97.600 158.175 97.500 V 91.700 C 158.175 91.600 158.075 91.700 158.175 91.700 H 159.575 C 159.630 91.700 159.675 91.655 159.675 91.600 V 85.600 C 159.675 85.545 159.630 85.500 159.575 85.500 H 158.175 C 158.075 85.500 158.175 85.600 158.175 85.500 V 79.700 C 158.175 79.600 158.075 79.700 158.175 79.700 H 159.575 C 159.630 79.700 159.675 79.655 159.675 79.600 V 73.600 C 159.675 73.545 159.630 73.500 159.575 73.500 H 158.175 C 158.075 73.500 158.175 73.600 158.175 73.500 V 67.700 C 158.175 67.600 158.075 67.700 158.175 67.700 H 159.575 C 159.630 67.700 159.675 67.655 159.675 67.600 V 61.600 C 159.675 61.545 159.630 61.500 159.575 61.500 H 158.175 C 158.075 61.500 158.175 61.600 158.175 61.500 V 55.700 C 158.175 55.600 158.075 55.700 158.175 55.700 H 159.575 C 159.630 55.700 159.675 55.655 159.675 55.600 V 49.600 C 159.675 49.545 159.630 49.500 159.575 49.500 H 158.175 C 158.075 49.500 158.175 49.600 158.175 49.500 V 43.700 C 158.175 43.600 158.075 43.700 158.175 43.700 H 159.575 C 159.630 43.700 159.675 43.655 159.675 43.600 V 37.600 C 159.675 37.545 159.630 37.500 159.575 37.500 H 158.175 C 158.075 37.500 158.175 37.600 158.175 37.500 V 31.700 C 158.175 31.600 158.075 31.700 158.175 31.700 H 159.575 C 159.630 31.700 159.675 31.655 159.675 31.600 V 25.600 C 159.675 25.545 159.630 25.500 159.575 25.500 H 158.175 C 158.075 25.500 158.175 25.600 158.175 25.500 V 19.700 C 158.175 19.600 158.075 19.700 158.175 19.700 H 159.575 C 159.630 19.700 159.675 19.655 159.675 19.600 V 10.100 C 159.675 10.045 159.630 10.000 159.575 10.000 H 158.771 H 133.584 H 132.780 C 132.724 10.000 132.680 10.045 132.680 10.100 V 19.600 C 132.680 19.655 132.724 19.700 132.780 19.700 H 134.180 C 134.280 19.700 134.180 19.600 134.180 19.700 V 25.500 C 134.180 25.600 134.280 25.500 134.180 25.500 H 132.780 C 132.724 25.500 132.680 25.545 132.680 25.600 V 31.600 C 132.680 31.655 132.724 31.700 132.780 31.700 H 134.180 C 134.280 31.700 134.180 31.600 134.180 31.700 V 37.500 C 134.180 37.600 134.280 37.500 134.180 37.500 H 132.780 C 132.724 37.500 132.680 37.545 132.680 37.600 V 43.600 C 132.680 43.655 132.724 43.700 132.780 43.700 H 134.180 C 134.280 43.700 134.180 43.600 134.180 43.700 V 49.500 C 134.180 49.600 134.280 49.500 134.180 49.500 H 132.780 C 132.724 49.500 132.680 49.545 132.680 49.600 V 55.600 C 132.680 55.655 132.724 55.700 132.780 55.700 H 134.180 C 134.280 55.700 134.180 55.600 134.180 55.700 V 61.500 C 134.180 61.600 134.280 61.500 134.180 61.500 H 132.780 C 132.724 61.500 132.680 61.545 132.680 61.600 V 67.600 C 132.680 67.655 132.724 67.700 132.780 67.700 H 134.180 C 134.280 67.700 134.180 67.600 134.180 67.700 V 73.500 C 134.180 73.600 134.280 73.500 134.180 73.500 H 132.780 C 132.724 73.500 132.680 73.545 132.680 73.600 V 79.600 C 132.680 79.655 132.724 79.700 132.780 79.700 H 134.180 C 134.280 79.700 134.180 79.600 134.180 79.700 V 85.500 C 134.180 85.600 134.280 85.500 134.180 85.500 H 132.780 C 132.724 85.500 132.680 85.545 132.680 85.600 V 91.600 C 132.680 91.655 132.724 91.700 132.780 91.700 H 134.180 C 134.280 91.700 134.180 91.600 134.180 91.700 V 97.500 C 134.180 97.600 134.280 97.500 134.180 97.500 H 132.780 C 132.724 97.500 132.680 97.545 132.680 97.600 V 107.100 V 113.100 C 132.680 113.155 132.724 113.200 132.780 113.200 H 133.584" stroke="rgb(0,0,0)" stroke-width="0.20" />
</g>
<g id="p-7" style="fill:none;stroke-linecap:round;stroke-linejoin:round;">
  <path d="M 174.672 110.000 H 171.772 C 171.672 110.000 171.772 110.100 171.772 110.000 V 107.200 C 171.772 107.100 171.672 107.200 171.772 107.200 H 177.572 C 177.672 107.200 177.572 107.100 177.572 107.200 V 110.000 C 177.572 110.100 177.672 110.000 177.572 110.000 H 174.672 Z" stroke="rgb(0,0,255)" stroke-width="0.20" />
  <text dominant-baseline="hanging" font-size="4px" style="font-family: sans-serif ; font-weight: normal; font-style: normal; fill: rgb(255,0,0)" text-anchor="middle" transform="matrix( 1.000 0.000 0.000 1.000 174.672 59.700 )">wall 6</text><path d="M 162.078 113.200 H 187.266 H 186.570 C 186.625 113.200 186.670 113.155 186.670 113.100 V 107.100 V 97.700 C 186.670 97.600 186.570 97.700 186.670 97.700 H 188.070 C 188.125 97.700 188.170 97.655 188.170 97.600 V 91.600 C 188.170 91.545 188.125 91.500 188.070 91.500 H 186.670 C 186.570 91.500 186.670 91.600 186.670 91.500 V 85.700 C 186.670 85.600 186.570 85.700 186.670 85.700 H 188.070 C 188.125 85.700 188.170 85.655 188.170 85.600 V 79.600 C 188.170 79.545 188.125 79.500 188.070 79.500 H 186.670 C 186.570 79.500 186.670 79.600 186.670 79.500 V 73.700 C 186.670 73.600 186.570 73.700 186.670 73.700 H 188.070 C 188.125 73.700 188.170 73.655 188.170 73.600 V 67.600 C 188.170 67.545 188.125 67.500 188.070 67.500 H 186.670 C 186.570 67.500 186.670 67.600 186.670 67.500 V 61.700 C 186.670 61.600 186.570 61.700 186.670 61.700 H 188.070 C 188.125 61.700 188.170 61.655 188.170 61.600 V 55.600 C 188.170 55.545 188.125 55.500 188.070 55.500 H 186.670 C 186.570 55.500 186.670 55.600 186.670 55.500 V 49.700 C 186.670 49.600 186.570 49.700 186.670 49.700 H 188.070 C 188.125 49.700 188.170 49.655 188.170 49.600 V 43.600 C 188.170 43.545 188.125 43.500 188.070 43.500 H 186.670 C 186.570 43.500 186.670 43.600 186.670 43.500 V 37.700 C 186.670 37.600 186.570 37.700 186.670 37.700 H 188.070 C 188.125 37.700 188.170 37.655 188.170 37.600 V 31.600 C 188.170 31.545 188.125 31.500 188.070 31.500 H 186.670 C 186.570 31.500 186.670 31.600 186.670 31.500 V 25.700 C 186.670 25.600 186.570 25.700 186.670 25.700 H 188.070 C 188.125 25.700 188.170 25.655 188.170 25.600 V 19.600 C 188.170 19.545 188.125 19.500 188.070 19.500 H 186.670 C 186.570 19.500 186.670 19.600 186.670 19.500 V 10.100 C 186.670 10.045 186.625 10.000 186.570 10.000 H 187.266 H 162.078 H 162.775 C 162.719 10.000 162.675 10.045 162.675 10.100 V 19.500 C 162.675 19.600 162.775 19.500 162.675 19.500 H 161.275 C 161.219 19.500 161.175 19.545 161.175 19.600 V 25.600 C 161.175 25.655 161.219 25.700 161.275 25.700 H 162.675 C 162.775 25.700 162.675 25.600 162.675 25.700 V 31.500 C 162.675 31.600 162.775 31.500 162.675 31.500 H 161.275 C 161.219 31.500 161.175 31.545 161.175 31.600 V 37.600 C 161.175 37.655 161.219 37.700 161.275 37.700 H 162.675 C 162.775 37.700 162.675 37.600 162.675 37.700 V 43.500 C 162.675 43.600 162.775 43.500 162.675 43.500 H 161.275 C 161.219 43.500 161.175 43.545 161.175 43.600 V 49.600 C 161.175 49.655 161.219 49.700 161.275 49.700 H 162.675 C 162.775 49.700 162.675 49.600 162.675 49.700 V 55.500 C 162.675 55.600 162.775 55.500 162.675 55.500 H 161.275 C 161.219 55.500 161.175 55.545 161.175 55.600 V 61.600 C 161.175 61.655 161.219 61.700 161.275 61.700 H 162.675 C 162.775 61.700 162.675 61.600 162.675 61.700 V 67.500 C 162.675 67.600 162.775 67.500 162.675 67.500 H 161.275 C 161.219 67.500 161.175 67.545 161.175 67.600 V 73.600 C 161.175 73.655 161.219 73.700 161.275 73.700 H 162.675 C 162.775 73.700 162.675 73.600 162.675 73.700 V 79.500 C 162.675 79.600 162.775 79.500 162.675 79.500 H 161.275 C 161.219 79.500 161.175 79.545 161.175 79.600 V 85.600 C 161.175 85.655 161.219 85.700 161.275 85.700 H 162.675 C 162.775 85.700 162.675 85.600 162.675 85.700 V 91.500 C 162.675 91.600 162.775 91.500 162.675 91.500 H 161.275 C 161.219 91.500 161.175 91.545 161.175 91.600 V 97.600 C 161.175 97.655 161.219 97.700 161.275 97.700 H 162.675 C 162.775 97.700 162.675 97.600 162.675 97.700 V 107.100 V 113.100 C 162.675 113.155 162.719 113.200 162.775 113.200 H 162.078" stroke="rgb(0,0,0)" stroke-width="0.20" />
</g>
<g id="p-8" style="fill:none;stroke-linecap:round;stroke-linejoin:round;">
  <path d="M 203.167 110.000 H 200.267 C 200.167 110.000 200.267 110.100 200.267 110.000 V 107.200 C 200.267 107.100 200.167 107.200 200.267 107.200 H 206.067 C 206.167 107.200 206.067 107.100 206.067 107.200 V 110.000 C 206.067 110.100 206.167 110.000 206.067 110.000 H 203.167 Z" stroke="rgb(0,0,255)" stroke-width="0.20" />
  <text dominant-baseline="hanging" font-size="4px" style="font-family: sans-serif ; font-weight: normal; font-style: normal; fill: rgb(255,0,0)" text-anchor="middle" transform="matrix( 1.000 0.000 0.000 1.000 203.167 59.700 )">wall 7</text><path d="M 190.573 113.200 H 215.761 H 216.564 C 216.620 113.200 216.664 113.155 216.664 113.100 V 107.100 V 97.600 C 216.664 97.545 216.620 97.500 216.564 97.500 H 215.164 C 215.064 97.500 215.164 97.600 215.164 97.500 V 91.700 C 215.164 91.600 215.064 91.700 215.164 91.700 H 216.564 C 216.620 91.700 216.664 91.655 216.664 91.600 V 85.600 C 216.664 85.545 216.620 85.500 216.564 85.500 H 215.164 C 215.064 85.500 215.164 85.600 215.164 85.500 V 79.700 C 215.164 79.600 215.064 79.700 215.164 79.700 H 216.564 C 216.620 79.700 216.664 79.655 216.664 79.600 V 73.600 C 216.664 73.545 216.620 73.500 216.564 73.500 H 215.164 C 215.064 73.500 215.164 73.600 215.164 73.500 V 67.700 C 215.164 67.600 215.064 67.700 215.164 67.700 H 216.564 C 216.620 67.700 216.664 67.655 216.664 67.600 V 61.600 C 216.664 61.545 216.620 61.500 216.564 61.500 H 215.164 C 215.064 61.500 215.164 61.600 215.164 61.500 V 55.700 C 215.164 55.600 215.064 55.700 215.164 55.700 H 216.564 C 216.620 55.700 216.664 55.655 216.664 55.600 V 49.600 C 216.664 49.545 216.620 49.500 216.564 49.500 H 215.164 C 215.064 49.500 215.164 49.600 215.164 49.500 V 43.700 C 215.164 43.600 215.064 43.700 215.164 43.700 H 216.564 C 216.620 43.700 216.664 43.655 216.664 43.600 V 37.600 C 216.664 37.545 216.620 37.500 216.564 37.500 H 215.164 C 215.064 37.500 215.164 37.600 215.164 37.500 V 31.700 C 215.164 31.600 215.064 31.700 215.164 31.700 H 216.564 C 216.620 31.700 216.664 31.655 216.664 31.600 V 25.600 C 216.664 25.545 216.620 25.500 216.564 25.500 H 215.164 C 215.064 25.500 215.164 25.600 215.164 25.500 V 19.700 C 215.164 19.600 215.064 19.700 215.164 19.700 H 216.564 C 216.620 19.700 216.664 19.655 216.664 19.600 V 10.100 C 216.664 10.045 216.620 10.000 216.564 10.000 H 215.761 H 190.573 H 189.770 C 189.714 10.000 189.670 10.045 189.670 10.100 V 19.600 C 189.670 19.655 189.714 19.700 189.770 19.700 H 191.170 C 191.270 19.700 191.170 19.600 191.170 19.700 V 25.500 C 191.170 25.600 191.270 25.500 191.170 25.500 H 189.770 C 189.714 25.500 189.670 25.545 189.670 25.600 V 31.600 C 189.670 31.655 189.714 31.700 189.770 31.700 H 191.170 C 191.270 31.700 191.170 31.600 191.170 31.700 V 37.500 C 191.170 37.600 191.270 37.500 191.170 37.500 H 189.770 C 189.714 37.500 189.670 37.545 189.670 37.600 V 43.600 C 189.670 43.655 189.714 43.700 189.770 43.700 H 191.170 C 191.270 43.700 191.170 43.600 191.170 43.700 V 49.500 C 191.170 49.600 191.270 49.500 191.170 49.500 H 189.770 C 189.714 49.500 189.670 49.545 189.670 49.600 V 55.600 C 189.670 55.655 189.714 55.700 189.770 55.700 H 191.170 C 191.270 55.700 191.170 55.600 191.170 55.700 V 61.500 C 191.170 61.600 191.270 61.500 191.170 61.500 H 189.770 C 189.714 61.500 189.670 61.545 189.670 61.600 V 67.600 C 189.670 67.655 189.714 67.700 189.770 67.700 H 191.170 C 191.270 67.700 191.170 67.600 191.170 67.700 V 73.500 C 191.170 73.600 191.270 73.500 191.170 73.500 H 189.770 C 189.714 73.500 189.670 73.545 189.670 73.600 V 79.600 C 189.670 79.655 189.714 79.700 189.770 79.700 H 191.170 C 191.270 79.700 191.170 79.600 191.170 79.700 V 85.500 C 191.170 85.600 191.270 85.500 191.170 85.500 H 189.770 C 189.714 85.500 189.670 85.545 189.670 85.600 V 91.600 C 189.670 91.655 189.714 91.700 189.770 91.700 H 191.170 C 191.270 91.700 191.170 91.600 191.170 91.700 V 97.500 C 191.170 97.600 191.270 97.500 191.170 97.500 H 189.770 C 189.714 97.500 189.670 97.545 189.670 97.600 V 107.100 V 113.100 C 189.670 113.155 189.714 113.200 189.770 113.200 H 190.573" stroke="rgb(0,0,0)" stroke-width="0.20" />
</g>
<g id="p-9" style="fill:none;stroke-linecap:round;stroke-linejoin:round;">
  <path d="M 231.662 110.000 H 228.762 C 228.662 110.000 228.762 110.100 228.762 110.000 V 107.200 C 228.762 107.100 228.662 107.200 228.762 107.200 H 234.562 C 234.662 107.200 234.562 107.100 234.562 107.200 V 110.000 C 234.562 110.100 234.662 110.000 234.562 110.000 H 231.662 Z" stroke="rgb(0,0,255)" stroke-width="0.20" />
  <text dominant-baseline="hanging" font-size="4px" style="font-family: sans-serif ; font-weight: normal; font-style: normal; fill: rgb(255,0,0)" text-anchor="middle" transform="matrix( 1.000 0.000 0.000 1.000 231.662 59.700 )">wall 8</text><path d="M 219.068 113.200 H 244.256 H 243.559 C 243.615 113.200 243.659 113.155 243.659 113.100 V 107.100 V 97.700 C 243.659 97.600 243.559 97.700 243.659 97.700 H 245.059 C 245.115 97.700 245.159 97.655 245.159 97.600 V 91.600 C 245.159 91.545 245.115 91.500 245.059 91.500 H 243.659 C 243.559 91.500 243.659 91.600 243.659 91.500 V 85.700 C 243.659 85.600 243.559 85.700 243.659 85.700 H 245.059 C 245.115 85.700 245.159 85.655 245.159 85.600 V 79.600 C 245.159 79.545 245.115 79.500 245.059 79.500 H 243.659 C 243.559 79.500 243.659 79.600 243.659 79.500 V 73.700 C 243.659 73.600 243.559 73.700 243.659 73.700 H 245.059 C 245.115 73.700 245.159 73.655 245.159 73.600 V 67.600 C 245.159 67.545 245.115 67.500 245.059 67.500 H 243.659 C 243.559 67.500 243.659 67.600 243.659 67.500 V 61.700 C 243.659 61.600 243.559 61.700 243.659 61.700 H 245.059 C 245.115 61.700 245.159 61.655 245.159 61.600 V 55.600 C 245.159 55.545 245.115 55.500 245.059 55.500 H 243.659 C 243.559 55.500 243.659 55.600 243.659 55.500 V 49.700 C 243.659 49.600 243.559 49.700 243.659 49.700 H 245.059 C 245.115 49.700 245.159 49.655 245.159 49.600 V 43.600 C 245.159 43.545 245.115 43.500 245.059 43.500 H 243.659 C 243.559 43.500 243.659 43.600 243.659 43.500 V 37.700 C 243.659 37.600 243.559 37.700 243.659 37.700 H 245.059 C 245.115 37.700 245.159 37.655 245.159 37.600 V 31.600 C 245.159 31.545 245.115 31.500 245.059 31.500 H 243.659 C 243.559 31.500 243.659 31.600 243.659 31.500 V 25.700 C 243.659 25.600 243.559 25.700 243.659 25.700 H 245.059 C 245.115 25.700 245.159 25.655 245.159 25.600 V 19.600 C 245.159 19.545 245.115 19.500 245.059 19.500 H 243.659 C 243.559 19.500 243.659 19.600 243.659 19.500 V 10.100 C 243.659 10.045 243.615 10.000 243.559 10.000 H 244.256 H 219.068 H 219.764 C 219.709 10.000 219.664 10.045 219.664 10.100 V 19.500 C 219.664 19.600 219.764 19.500 219.664 19.500 H 218.264 C 218.209 19.500 218.164 19.545 218.164 19.600 V 25.600 C 218.164 25.655 218.209 25.700 218.264 25.700 H 219.664 C 219.764 25.700 219.664 25.600 219.664 25.700 V 31.500 C 219.664 31.600 219.764 31.500 219.664 31.500 H 218.264 C 218.209 31.500 218.164 31.545 218.164 31.600 V 37.600 C 218.164 37.655 218.209 37.700 218.264 37.700 H 219.664 C 219.764 37.700 219.664 37.600 219.664 37.700 V 43.500 C 219.664 43.600 219.764 43.500 219.664 43.500 H 218.264 C 218.209 43.500 218.164 43.545 218.164 43.600 V 49.600 C 218.164 49.655 218.209 49.700 218.264 49.700 H 219.664 C 219.764 49.700 219.664 49.600 219.664 49.700 V 55.500 C 219.664 55.600 219.764 55.500 219.664 55.500 H 218.264 C 218.209 55.500 218.164 55.545 218.164 55.600 V 61.600 C 218.164 61.655 218.209 61.700 218.264 61.700 H 219.664 C 219.764 61.700 219.664 61.600 219.664 61.700 V 67.500 C 219.664 67.600 219.764 67.500 219.664 67.500 H 218.264 C 218.209 67.500 218.164 67.545 218.164 67.600 V 73.600 C 218.164 73.655 218.209 73.700 218.264 73.700 H 219.664 C 219.764 73.700 219.664 73.600 219.664 73.700 V 79.500 C 219.664 79.600 219.764 79.500 219.664 79.500 H 218.264 C 218.209 79.500 218.164 79.545 218.164 79.600 V 85.600 C 218.164 85.655 218.209 85.700 218.264 85.700 H 219.664 C 219.764 85.700 219.664 85.600 219.664 85.700 V 91.500 C 219.664 91.600 219.764 91.500 219.664 91.500 H 218.264 C 218.209 91.500 218.164 91.545 218.164 91.600 V 97.600 C 218.164 97.655 218.209 97.700 218.264 97.700 H 219.664 C 219.764 97.700 219.664 97.600 219.664 97.700 V 107.100 V 113.100 C 219.664 113.155 219.709 113.200 219.764 113.200 H 219.068" stroke="rgb(0,0,0)" stroke-width="0.20" />
</g>
<g id="p-10" style="fill:none;stroke-linecap:round;stroke-linejoin:round;">
  <path d="M 260.157 110.000 H 257.257 C 257.157 110.000 257.257 110.100 257.257 110.000 V 107.200 C 257.257 107.100 257.157 107.200 257.257 107.200 H 263.057 C 263.157 107.200 263.057 107.100 263.057 107.200 V 110.000 C 263.057 110.100 263.157 110.000 263.057 110.000 H 260.157 Z" stroke="rgb(0,0,255)" stroke-width="0.20" />
  <text dominant-baseline="hanging" font-size="4px" style="font-family: sans-serif ; font-weight: normal; font-style: normal; fill: rgb(255,0,0)" text-anchor="middle" transform="matrix( 1.000 0.000 0.000 1.000 260.157 59.700 )">wall 9</text><path d="M 247.563 113.200 H 272.750 H 273.554 C 273.610 113.200 273.654 113.155 273.654 113.100 V 107.100 V 97.600 C 273.654 97.545 273.610 97.500 273.554 97.500 H 272.154 C 272.054 97.500 272.154 97.600 272.154 97.500 V 91.700 C 272.154 91.600 272.054 91.700 272.154 91.700 H 273.554 C 273.610 91.700 273.654 91.655 273.654 91.600 V 85.600 C 273.654 85.545 273.610 85.500 273.554 85.500 H 272.154 C 272.054 85.500 272.154 85.600 272.154 85.500 V 79.700 C 272.154 79.600 272.054 79.700 272.154 79.700 H 273.554 C 273.610 79.700 273.654 79.655 273.654 79.600 V 73.600 C 273.654 73.545 273.610 73.500 273.554 73.500 H 272.154 C 272.054 73.500 272.154 73.600 272.154 73.500 V 67.700 C 272.154 67.600 272.054 67.700 272.154 67.700 H 273.554 C 273.610 67.700 273.654 67.655 273.654 67.600 V 61.600 C 273.654 61.545 273.610 61.500 273.554 61.500 H 272.154 C 272.054 61.500 272.154 61.600 272.154 61.500 V 55.700 C 272.154 55.600 272.054 55.700 272.154 55.700 H 273.554 C 273.610 55.700 273.654 55.655 273.654 55.600 V 49.600 C 273.654 49.545 273.610 49.500 273.554 49.500 H 272.154 C 272.054 49.500 272.154 49.600 272.154 49.500 V 43.700 C 272.154 43.600 272.054 43.700 272.154 43.700 H 273.554 C 273.610 43.700 273.654 43.655 273.654 43.600 V 37.600 C 273.654 37.545 273.610 37.500 273.554 37.500 H 272.154 C 272.054 37.500 272.154 37.600 272.154 37.500 V 31.700 C 272.154 31.600 272.054 31.700 272.154 31.700 H 273.554 C 273.610 31.700 273.654 31.655 273.654 31.600 V 25.600 C 273.654 25.545 273.610 25.500 273.554 25.500 H 272.154 C 272.054 25.500 272.154 25.600 272.154 25.500 V 19.700 C 272.154 19.600 272.054 19.700 272.154 19.700 H 273.554 C 273.610 19.700 273.654 19.655 273.654 19.600 V 10.100 C 273.654 10.045 273.610 10.000 273.554 10.000 H 272.750 H 247.563 H 246.759 C 246.704 10.000 246.659 10.045 246.659 10.100 V 19.600 C 246.659 19.655 246.704 19.700 246.759 19.700 H 248.159 C 248.259 19.700 248.159 19.600 248.159 19.700 V 25.500 C 248.159 25.600 248.259 25.500 248.159 25.500 H 246.759 C 246.704 25.500 246.659 25.545 246.659 25.600 V 31.600 C 246.659 31.655 246.704 31.700 246.759 31.700 H 248.159 C 248.259 31.700 248.159 31.600 248.159 31.700 V 37.500 C 248.159 37.600 248.259 37.500 248.159 37.500 H 246.759 C 246.704 37.500 246.659 37.545 246.659 37.600 V 43.600 C 246.659 43.655 246.704 43.700 246.759 43.700 H 248.159 C 248.259 43.700 248.159 43.600 248.159 43.700 V 49.500 C 248.159 49.600 248.259 49.500 248.159 49.500 H 246.759 C 246.704 49.500 246.659 49.545 246.659 49.600 V 55.600 C 246.659 55.655 246.704 55.700 246.759 55.700 H 248.159 C 248.259 55.700 248.159 55.600 248.159 55.700 V 61.500 C 248.159 61.600 248.259 61.500 248.159 61.500 H 246.759 C 246.704 61.500 246.659 61.545 246.659 61.600 V 67.600 C 246.659 67.655 246.704 67.700 246.759 67.700 H 248.159 C 248.259 67.700 248.159 67.600 248.159 67.700 V 73.500 C 248.159 73.600 248.259 73.500 248.159 73.500 H 246.759 C 246.704 73.500 246.659 73.545 246.659 73.600 V 79.600 C 246.659 79.655 246.704 79.700 246.759 79.700 H 248.159 C 248.259 79.700 248.159 79.600 248.159 79.700 V 85.500 C 248.159 85.600 248.259 85.500 248.159 85.500 H 246.759 C 246.704 85.500 246.659 85.545 246.659 85.600 V 91.600 C 246.659 91.655 246.704 91.700 246.759 91.700 H 248.159 C 248.259 91.700 248.159 91.600 248.159 91.700 V 97.500 C 248.159 97.600 248.259 97.500 248.159 97.500 H 246.759 C 246.704 97.500 246.659 97.545 246.659 97.600 V 107.100 V 113.100 C 246.659 113.155 246.704 113.200 246.759 113.200 H 247.563" stroke="rgb(0,0,0)" stroke-width="0.20" />
</g>
<g id="p-11" style="fill:none;stroke-linecap:round;stroke-linejoin:round;">
  <path d="M 288.652 110.000 H 285.752 C 285.652 110.000 285.752 110.100 285.752 110.000 V 107.200 C 285.752 107.100 285.652 107.200 285.752 107.200 H 291.552 C 291.652 107.200 291.552 107.100 291.552 107.200 V 110.000 C 291.552 110.100 291.652 110.000 291.552 110.000 H 288.652 Z" stroke="rgb(0,0,255)" stroke-width="0.20" />
  <text dominant-baseline="hanging" font-size="4px" style="font-family: sans-serif ; font-weight: normal; font-style: normal; fill: rgb(255,0,0)" text-anchor="middle" transform="matrix( 1.000 0.000 0.000 1.000 288.652 59.700 )">wall 10</text><path d="M 276.058 113.200 H 301.245 H 300.549 C 300.604 113.200 300.649 113.155 300.649 113.100 V 107.100 V 97.700 C 300.649 97.600 300.549 97.700 300.649 97.700 H 302.049 C 302.104 97.700 302.149 97.655 302.149 97.600 V 91.600 C 302.149 91.545 302.104 91.500 302.049 91.500 H 300.649 C 300.549 91.500 300.649 91.600 300.649 91.500 V 85.700 C 300.649 85.600 300.549 85.700 300.649 85.700 H 302.049 C 302.104 85.700 302.149 85.655 302.149 85.600 V 79.600 C 302.149 79.545 302.104 79.500 302.049 79.500 H 300.649 C 300.549 79.500 300.649 79.600 300.649 79.500 V 73.700 C 300.649 73.600 300.549 73.700 300.649 73.700 H 302.049 C 302.104 73.700 302.149 73.655 302.149 73.600 V 67.600 C 302.149 67.545 302.104 67.500 302.049 67.500 H 300.649 C 300.549 67.500 300.649 67.600 300.649 67.500 V 61.700 C 300.649 61.600 300.549 61.700 300.649 61.700 H 302.049 C 302.104 61.700 302.149 61.655 302.149 61.600 V 55.600 C 302.149 55.545 302.104 55.500 302.049 55.500 H 300.649 C 300.549 55.500 300.649 55.600 300.649 55.500 V 49.700 C 300.649 49.600 300.549 49.700 300.649 49.700 H 302.049 C 302.104 49.700 302.149 49.655 302.149 49.600 V 43.600 C 302.149 43.545 302.104 43.500 302.049 43.500 H 300.649 C 300.549 43.500 300.649 43.600 300.649 43.500 V 37.700 C 300.649 37.600 300.549 37.700 300.649 37.700 H 302.049 C 302.104 37.700 302.149 37.655 302.149 37.600 V 31.600 C 302.149 31.545 302.104 31.500 302.049 31.500 H 300.649 C 300.549 31.500 300.649 31.600 300.649 31.500 V 25.700 C 300.649 25.600 300.549 25.700 300.649 25.700 H 302.049 C 302.104 25.700 302.149 25.655 302.149 25.600 V 19.600 C 302.149 19.545 302.104 19.500 302.049 19.500 H 300.649 C 300.549 19.500 300.649 19.600 300.649 19.500 V 10.100 C 300.649 10.045 300.604 10.000 300.549 10.000 H 301.245 H 276.058 H 276.754 C 276.699 10.000 276.654 10.045 276.654 10.100 V 19.500 C 276.654 19.600 276.754 19.500 276.654 19.500 H 275.254 C 275.199 19.500 275.154 19.545 275.154 19.600 V 25.600 C 275.154 25.655 275.199 25.700 275.254 25.700 H 276.654 C 276.754 25.700 276.654 25.600 276.654 25.700 V 31.500 C 276.654 31.600 276.754 31.500 276.654 31.500 H 275.254 C 275.199 31.500 275.154 31.545 275.154 31.600 V 37.600 C 275.154 37.655 275.199 37.700 275.254 37.700 H 276.654 C 276.754 37.700 276.654 37.600 276.654 37.700 V 43.500 C 276.654 43.600 276.754 43.500 276.654 43.500 H 275.254 C 275.199 43.500 275.154 43.545 275.154 43.600 V 49.600 C 275.154 49.655 275.199 49.700 275.254 49.700 H 276.654 C 276.754 49.700 276.654 49.600 276.654 49.700 V 55.500 C 276.654 55.600 276.754 55.500 276.654 55.500 H 275.254 C 275.199 55.500 275.154 55.545 275.154 55.600 V 61.600 C 275.154 61.655 275.199 61.700 275.254 61.700 H 276.654 C 276.754 61.700 276.654 61.600 276.654 61.700 V 67.500 C 276.654 67.600 276.754 67.500 276.654 67.500 H 275.254 C 275.199 67.500 275.154 67.545 275.154 67.600 V 73.600 C 275.154 73.655 275.199 73.700 275.254 73.700 H 276.654 C 276.754 73.700 276.654 73.600 276.654 73.700 V 79.500 C 276.654 79.600 276.754 79.500 276.654 79.500 H 275.254 C 275.199 79.500 275.154 79.545 275.154 79.600 V 85.600 C 275.154 85.655 275.199 85.700 275.254 85.700 H 276.654 C 276.754 85.700 276.654 85.600 276.654 85.700 V 91.500 C 276.654 91.600 276.754 91.500 276.654 91.500 H 275.254 C 275.199 91.500 275.154 91.545 275.154 91.600 V 97.600 C 275.154 97.655 275.199 97.700 275.254 97.700 H 276.654 C 276.754 97.700 276.654 97.600 276.654 97.700 V 107.100 V 113.100 C 276.654 113.155 276.699 113.200 276.754 113.200 H 276.058" stroke="rgb(0,0,0)" stroke-width="0.20" />
</g>
<g id="p-12" style="fill:none;stroke-linecap:round;stroke-linejoin:round;">
  <path d="M 317.147 110.000 H 314.247 C 314.147 110.000 314.247 110.100 314.247 110.000 V 107.200 C 314.247 107.100 314.147 107.200 314.247 107.200 H 320.047 C 320.147 107.200 320.047 107.100 320.047 107.200 V 110.000 C 320.047 110.100 320.147 110.000 320.047 110.000 H 317.147 Z" stroke="rgb(0,0,255)" stroke-width="0.20" />
  <text dominant-baseline="hanging" font-size="4px" style="font-family: sans-serif ; font-weight: normal; font-style: normal; fill: rgb(255,0,0)" text-anchor="middle" transform="matrix( 1.000 0.000 0.000 1.000 317.147 59.700 )">wall 11</text><path d="M 304.553 113.200 H 329.740 H 330.544 C 330.599 113.200 330.644 113.155 330.644 113.100 V 107.100 V 97.600 C 330.644 97.545 330.599 97.500 330.544 97.500 H 329.144 C 329.044 97.500 329.144 97.600 329.144 97.500 V 91.700 C 329.144 91.600 329.044 91.700 329.144 91.700 H 330.544 C 330.599 91.700 330.644 91.655 330.644 91.600 V 85.600 C 330.644 85.545 330.599 85.500 330.544 85.500 H 329.144 C 329.044 85.500 329.144 85.600 329.144 85.500 V 79.700 C 329.144 79.600 329.044 79.700 329.144 79.700 H 330.544 C 330.599 79.700 330.644 79.655 330.644 79.600 V 73.600 C 330.644 73.545 330.599 73.500 330.544 73.500 H 329.144 C 329.044 73.500 329.144 73.600 329.144 73.500 V 67.700 C 329.144 67.600 329.044 67.700 329.144 67.700 H 330.544 C 330.599 67.700 330.644 67.655 330.644 67.600 V 61.600 C 330.644 61.545 330.599 61.500 330.544 61.500 H 329.144 C 329.044 61.500 329.144 61.600 329.144 61.500 V 55.700 C 329.144 55.600 329.044 55.700 329.144 55.700 H 330.544 C 330.599 55.700 330.644 55.655 330.644 55.600 V 49.600 C 330.644 49.545 330.599 49.500 330.544 49.500 H 329.144 C 329.044 49.500 329.144 49.600 329.144 49.500 V 43.700 C 329.144 43.600 329.044 43.700 329.144 43.700 H 330.544 C 330.599 43.700 330.644 43.655 330.644 43.600 V 37.600 C 330.644 37.545 330.599 37.500 330.544 37.500 H 329.144 C 329.044 37.500 329.144 37.600 329.144 37.500 V 31.700 C 329.144 31.600 329.044 31.700 329.144 31.700 H 330.544 C 330.599 31.700 330.644 31.655 330.644 31.600 V 25.600 C 330.644 25.545 330.599 25.500 330.544 25.500 H 329.144 C 329.044 25.500 329.144 25.600 329.144 25.500 V 19.700 C 329.144 19.600 329.044 19.700 329.144 19.700 H 330.544 C 330.599 19.700 330.644 19.655 330.644 19.600 V 10.100 C 330.644 10.045 330.599 10.000 330.544 10.000 H 329.740 H 304.553 H 303.749 C 303.694 10.000 303.649 10.045 303.649 10.100 V 19.600 C 303.649 19.655 303.694 19.700 303.749 19.700 H 305.149 C 305.249 19.700 305.149 19.600 305.149 19.700 V 25.500 C 305.149 25.600 305.249 25.500 305.149 25.500 H 303.749 C 303.694 25.500 303.649 25.545 303.649 25.600 V 31.600 C 303.649 31.655 303.694 31.700 303.749 31.700 H 305.149 C 305.249 31.700 305.149 31.600 305.149 31.700 V 37.500 C 305.149 37.600 305.249 37.500 305.149 37.500 H 303.749 C 303.694 37.500 303.649 37.545 303.649 37.600 V 43.600 C 303.649 43.655 303.694 43.700 303.749 43.700 H 305.149 C 305.249 43.700 305.149 43.600 305.149 43.700 V 49.500 C 305.149 49.600 305.249 49.500 305.149 49.500 H 303.749 C 303.694 49.500 303.649 49.545 303.649 49.600 V 55.600 C 303.649 55.655 303.694 55.700 303.749 55.700 H 305.149 C 305.249 55.700 305.149 55.600 305.149 55.700 V 61.500 C 305.149 61.600 305.249 61.500 305.149 61.500 H 303.749 C 303.694 61.500 303.649 61.545 303.649 61.600 V 67.600 C 303.649 67.655 303.694 67.700 303.749 67.700 H 305.149 C 305.249 67.700 305.149 67.600 305.149 67.700 V 73.500 C 305.149 73.600 305.249 73.500 305.149 73.500 H 303.749 C 303.694 73.500 303.649 73.545 303.649 73.600 V 79.600 C 303.649 79.655 303.694 79.700 303.749 79.700 H 305.149 C 305.249 79.700 305.149 79.600 305.149 79.700 V 85.500 C 305.149 85.600 305.249 85.500 305.149 85.500 H 303.749 C 303.694 85.500 303.649 85.545 303.649 85.600 V 91.600 C 303.649 91.655 303.694 91.700 303.749 91.700 H 305.149 C 305.249 91.700 305.149 91.600 305.149 91.700 V 97.500 C 305.149 97.600 305.249 97.500 305.149 97.500 H 303.749 C 303.694 97.500 303.649 97.545 303.649 97.600 V 107.100 V 113.100 C 303.649 113.155 303.694 113.200 303.749 113.200 H 304.553" stroke="rgb(0,0,0)" stroke-width="0.20" />
</g>
<g id="p-13" style="fill:none;stroke-linecap:round;stroke-linejoin:round;">
  <path d="M 345.642 110.000 H 342.742 C 342.642 110.000 342.742 110.100 342.742 110.000 V 107.200 C 342.742 107.100 342.642 107.200 342.742 107.200 H 348.542 C 348.642 107.200 348.542 107.100 348.542 107.200 V 110.000 C 348.542 110.100 348.642 110.000 348.542 110.000 H 345.642 Z" stroke="rgb(0,0,255)" stroke-width="0.20" />
  <text dominant-baseline="hanging" font-size="4px" style="font-family: sans-serif ; font-weight: normal; font-style: normal; fill: rgb(255,0,0)" text-anchor="middle" transform="matrix( 1.000 0.000 0.000 1.000 345.642 59.700 )">wall 12</text><path d="M 333.048 113.200 H 358.235 H 357.539 C 357.594 113.200 357.639 113.155 357.639 113.100 V 107.100 V 97.700 C 357.639 97.600 357.539 97.700 357.639 97.700 H 359.039 C 359.094 97.700 359.139 97.655 359.139 97.600 V 91.600 C 359.139 91.545 359.094 91.500 359.039 91.500 H 357.639 C 357.539 91.500 357.639 91.600 357.639 91.500 V 85.700 C 357.639 85.600 357.539 85.700 357.639 85.700 H 359.039 C 359.094 85.700 359.139 85.655 359.139 85.600 V 79.600 C 359.139 79.545 359.094 79.500 359.039 79.500 H 357.639 C 357.539 79.500 357.639 79.600 357.639 79.500 V 73.700 C 357.639 73.600 357.539 73.700 357.639 73.700 H 359.039 C 359.094 73.700 359.139 73.655 359.139 73.600 V 67.600 C 359.139 67.545 359.094 67.500 359.039 67.500 H 357.639 C 357.539 67.500 357.639 67.600 357.639 67.500 V 61.700 C 357.639 61.600 357.539 61.700 357.639 61.700 H 359.039 C 359.094 61.700 359.139 61.655 359.139 61.600 V 55.600 C 359.139 55.545 359.094 55.500 359.039 55.500 H 357.639 C 357.539 55.500 357.639 55.600 357.639 55.500 V 49.700 C 357.639 49.600 357.539 49.700 357.639 49.700 H 359.039 C 359.094 49.700 359.139 49.655 359.139 49.600 V 43.600 C 359.139 43.545 359.094 43.500 359.039 43.500 H 357.639 C 357.539 43.500 357.639 43.600 357.639 43.500 V 37.700 C 357.639 37.600 357.539 37.700 357.639 37.700 H 359.039 C 359.094 37.700 359.139 37.655 359.139 37.600 V 31.600 C 359.139 31.545 359.094 31.500 359.039 31.500 H 357.639 C 357.539 31.500 357.639 31.600 357.639 31.500 V 25.700 C 357.639 25.600 357.539 25.700 357.639 25.700 H 359.039 C 359.094 25.700 359.139 25.655 359.139 25.600 V 19.600 C 359.139 19.545 359.094 19.500 359.039 19.500 H 357.639 C 357.539 19.500 357.639 19.600 357.639 19.500 V 10.100 C 357.639 10.045 357.594 10.000 357.539 10.000 H 358.235 H 333.048 H 333.744 C 333.689 10.000 333.644 10.045 333.644 10.100 V 19.500 C 333.644 19.600 333.744 19.500 333.644 19.500 H 332.244 C 332.189 19.500 332.144 19.545 332.144 19.600 V 25.600 C 332.144 25.655 332.189 25.700 332.244 25.700 H 333.644 C 333.744 25.700 333.644 25.600 333.644 25.700 V 31.500 C 333.644 31.600 333.744 31.500 333.644 31.500 H 332.244 C 332.189 31.500 332.144 31.545 332.144 31.600 V 37.600 C 332.144 37.655 332.189 37.700 332.244 37.700 H 333.644 C 333.744 37.700 333.644 37.600 333.644 37.700 V 43.500 C 333.644 43.600 333.744 43.500 333.644 43.500 H 332.244 C 332.189 43.500 332.144 43.545 332.144 43.600 V 49.600 C 332.144 49.655 332.189 49.700 332.244 49.700 H 333.644 C 333.744 49.700 333.644 49.600 333.644 49.700 V 55.500 C 333.644 55.600 333.744 55.500 333.644 55.500 H 332.244 C 332.189 55.500 332.144 55.545 332.144 55.600 V 61.600 C 332.144 61.655 332.189 61.700 332.244 61.700 H 333.644 C 333.744 61.700 333.644 61.600 333.644 61.700 V 67.500 C 333.644 67.600 333.744 67.500 333.644 67.500 H 332.244 C 332.189 67.500 332.144 67.545 332.144 67.600 V 73.600 C 332.144 73.655 332.189 73.700 332.244 73.700 H 333.644 C 333.744 73.700 333.644 73.600 333.644 73.700 V 79.500 C 333.644 79.600 333.744 79.500 333.644 79.500 H 332.244 C 332.189 79.500 332.144 79.545 332.144 79.600 V 85.600 C 332.144 85.655 332.189 85.700 332.244 85.700 H 333.644 C 333.744 85.700 333.644 85.600 333.644 85.700 V 91.500 C 333.644 91.600 333.744 91.500 333.644 91.500 H 332.244 C 332.189 91.500 332.144 91.545 332.144 91.600 V 97.600 C 332.144 97.655 332.189 97.700 332.244 97.700 H 333.644 C 333.744 97.700 333.644 97.600 333.644 97.700 V 107.100 V 113.100 C 333.644 113.155 333.689 113.200 333.744 113.200 H 333.048" stroke="rgb(0,0,0)" stroke-width="0.20" />
</g>
</svg>