<?xml version='1.0' encoding='utf-8'?>
<svg height="341.30mm" viewBox="0.0 0.0 236.60 341.30" width="236.60mm" xmlns="http://www.w3.org/2000/svg" xmlns:cc="http://creativecommons.org/ns#" xmlns:dc="http://purl.org/dc/elements/1.1/" xmlns:inkscape="http://www.inkscape.org/namespaces/inkscape" xmlns:rdf="http://www.w3.org/1999/02/22-rdf-syntax-ns#" xmlns:svg="http://www.w3.org/2000/svg" xmlns:xlink="http://www.w3.org/1999/xlink">
<!--
BasedBox - Fully closed box on a base


This box is more of a building block than a finished item.
Use a vector graphics program (like Inkscape) to add holes or adjust the base
plate. The width of the "brim" can also be adjusted with the **edge_width**
 parameter in the **Finger Joints Settings**.

See ClosedBox for variant without a base.



Created with Boxes.py (https://festi.info/boxes.py)
Command line (remove spaces between dashes): boxes BasedBox
-->
<title>BasedBox</title>
<metadata>
<rdf:RDF><cc:Work>
<dc:title>Box - BasedBox</dc:title>
<dc:source>boxes BasedBox</dc:source>
<dc:description>Fully closed box on a base

This box is more of a building block than a finished item.
Use a vector graphics program (like Inkscape) to add holes or adjust the base
plate. The width of the "brim" can also be adjusted with the **edge_width**
 parameter in the **Finger Joints Settings**.

See ClosedBox for variant without a base.


Created with Boxes.py (https://festi.info/boxes.py)
Command line: boxes BasedBox
Command line short: boxes BasedBox
</dc:description>
</cc:Work></rdf:RDF></metadata>
<g id="p-0" style="fill:none;stroke-linecap:round;stroke-linejoin:round;">
  <path d="M 18.800 331.300 H 118.800 V 321.300 H 18.800 V 331.300 Z" stroke="rgb(0,0,0)" stroke-width="0.20" />
  <text dominant-baseline="hanging" font-size="8px" style="font-family: sans-serif ; font-weight: normal; font-style: normal; fill: rgb(255,0,0)" text-anchor="middle" transform="matrix( 1.000 0.000 0.000 1.000 68.800 322.300 )">100.00mm, burn:0.10mm</text>
</g>
<g id="p-1" style="fill:none;stroke-linecap:round;stroke-linejoin:round;">
  <text dominant-baseline="hanging" font-size="4px" style="font-family: sans-serif ; font-weight: normal; font-style: normal; fill: rgb(255,0,0)" text-anchor="middle" transform="matrix( 1.000 0.000 0.000 1.000 68.800 267.600 )">Wall 1</text><path d="M 21.800 316.600 H 29.700 C 29.800 316.600 29.700 316.500 29.700 316.600 V 319.500 C 29.700 319.555 29.745 319.600 29.800 319.600 H 35.800 C 35.855 319.600 35.900 319.555 35.900 319.500 V 316.600 C 35.900 316.500 35.800 316.600 35.900 316.600 H 41.700 C 41.800 316.600 41.700 316.500 41.700 316.600 V 319.500 C 41.700 319.555 41.745 319.600 41.800 319.600 H 47.800 C 47.855 319.600 47.900 319.555 47.900 319.500 V 316.600 C 47.900 316.500 47.800 316.600 47.900 316.600 H 53.700 C 53.800 316.600 53.700 316.500 53.700 316.600 V 319.500 C 53.700 319.555 53.745 319.600 53.800 319.600 H 59.800 C 59.855 319.600 59.900 319.555 59.900 319.500 V 316.600 C 59.900 316.500 59.800 316.600 59.900 316.600 H 65.700 C 65.800 316.600 65.700 316.500 65.700 316.600 V 319.500 C 65.700 319.555 65.745 319.600 65.800 319.600 H 71.800 C 71.855 319.600 71.900 319.555 71.900 319.500 V 316.600 C 71.900 316.500 71.800 316.600 71.900 316.600 H 77.700 C 77.800 316.600 77.700 316.500 77.700 316.600 V 319.500 C 77.700 319.555 77.745 319.600 77.800 319.600 H 83.800 C 83.855 319.600 83.900 319.555 83.900 319.500 V 316.600 C 83.900 316.500 83.800 316.600 83.900 316.600 H 89.700 C 89.800 316.600 89.700 316.500 89.700 316.600 V 319.500 C 89.700 319.555 89.745 319.600 89.800 319.600 H 95.800 C 95.855 319.600 95.900 319.555 95.900 319.500 V 316.600 C 95.900 316.500 95.800 316.600 95.900 316.600 H 101.700 C 101.800 316.600 101.700 316.500 101.700 316.600 V 319.500 C 101.700 319.555 101.745 319.600 101.800 319.600 H 107.800 C 107.855 319.600 107.900 319.555 107.900 319.500 V 316.600 C 107.900 316.500 107.800 316.600 107.900 316.600 H 115.800 H 118.800 C 118.855 316.600 118.900 316.555 118.900 316.500 V 308.500 C 118.900 308.445 118.855 308.400 118.800 308.400 H 115.900 C 115.800 308.400 115.900 308.500 115.900 308.400 V 302.600 C 115.900 302.500 115.800 302.600 115.900 302.600 H 118.800 C 118.855 302.600 118.900 302.555 118.900 302.500 V 296.500 C 118.900 296.445 118.855 296.400 118.800 296.400 H 115.900 C 115.800 296.400 115.900 296.500 115.900 296.400 V 290.600 C 115.900 290.500 115.800 290.600 115.900 290.600 H 118.800 C 118.855 290.600 118.900 290.555 118.900 290.500 V 284.500 C 118.900 284.445 118.855 284.400 118.800 284.400 H 115.900 C 115.800 284.400 115.900 284.500 115.900 284.400 V 278.600 C 115.900 278.500 115.800 278.600 115.900 278.600 H 118.800 C 118.855 278.600 118.900 278.555 118.900 278.500 V 272.500 C 118.900 272.445 118.855 272.400 118.800 272.400 H 115.900 C 115.800 272.400 115.900 272.500 115.900 272.400 V 266.600 C 115.900 266.500 115.800 266.600 115.900 266.600 H 118.800 C 118.855 266.600 118.900 266.555 118.900 266.500 V 260.500 C 118.900 260.445 118.855 260.400 118.800 260.400 H 115.900 C 115.800 260.400 115.900 260.500 115.900 260.400 V 254.600 C 115.900 254.500 115.800 254.600 115.900 254.600 H 118.800 C 118.855 254.600 118.900 254.555 118.900 254.500 V 248.500 C 118.900 248.445 118.855 248.400 118.800 248.400 H 115.900 C 115.800 248.400 115.900 248.500 115.900 248.400 V 242.600 C 115.900 242.500 115.800 242.600 115.900 242.600 H 118.800 C 118.855 242.600 118.900 242.555 118.900 242.500 V 236.500 C 118.900 236.445 118.855 236.400 118.800 236.400 H 115.900 C 115.800 236.400 115.900 236.500 115.900 236.400 V 230.600 C 115.900 230.500 115.800 230.600 115.900 230.600 H 118.800 C 118.855 230.600 118.900 230.555 118.900 230.500 V 222.500 V 219.500 C 118.900 219.445 118.855 219.400 118.800 219.400 H 115.800 H 107.800 C 107.745 219.400 107.700 219.445 107.700 219.500 V 222.400 C 107.700 222.500 107.800 222.400 107.700 222.400 H 101.900 C 101.800 222.400 101.900 222.500 101.900 222.400 V 219.500 C 101.900 219.445 101.855 219.400 101.800 219.400 H 95.800 C 95.745 219.400 95.700 219.445 95.700 219.500 V 222.400 C 95.700 222.500 95.800 222.400 95.700 222.400 H 89.900 C 89.800 222.400 89.900 222.500 89.900 222.400 V 219.500 C 89.900 219.445 89.855 219.400 89.800 219.400 H 83.800 C 83.745 219.400 83.700 219.445 83.700 219.500 V 222.400 C 83.700 222.500 83.800 222.400 83.700 222.400 H 77.900 C 77.800 222.400 77.900 222.500 77.900 222.400 V 219.500 C 77.900 219.445 77.855 219.400 77.800 219.400 H 71.800 C 71.745 219.400 71.700 219.445 71.700 219.500 V 222.400 C 71.700 222.500 71.800 222.400 71.700 222.400 H 65.900 C 65.800 222.400 65.900 222.500 65.900 222.400 V 219.500 C 65.900 219.445 65.855 219.400 65.800 219.400 H 59.800 C 59.745 219.400 59.700 219.445 59.700 219.500 V 222.400 C 59.700 222.500 59.800 222.400 59.700 222.400 H 53.900 C 53.800 222.400 53.900 222.500 53.900 222.400 V 219.500 C 53.900 219.445 53.855 219.400 53.800 219.400 H 47.800 C 47.745 219.400 47.700 219.445 47.700 219.500 V 222.400 C 47.700 222.500 47.800 222.400 47.700 222.400 H 41.900 C 41.800 222.400 41.900 222.500 41.900 222.400 V 219.500 C 41.900 219.445 41.855 219.400 41.800 219.400 H 35.800 C 35.745 219.400 35.700 219.445 35.700 219.500 V 222.400 C 35.700 222.500 35.800 222.400 35.700 222.400 H 29.900 C 29.800 222.400 29.900 222.500 29.900 222.400 V 219.500 C 29.900 219.445 29.855 219.400 29.800 219.400 H 21.800 H 18.800 C 18.745 219.400 18.700 219.445 18.700 219.500 V 222.500 V 230.500 C 18.700 230.555 18.745 230.600 18.800 230.600 H 21.700 C 21.800 230.600 21.700 230.500 21.700 230.600 V 236.400 C 21.700 236.500 21.800 236.400 21.700 236.400 H 18.800 C 18.745 236.400 18.700 236.445 18.700 236.500 V 242.500 C 18.700 242.555 18.745 242.600 18.800 242.600 H 21.700 C 21.800 242.600 21.700 242.500 21.700 242.600 V 248.400 C 21.700 248.500 21.800 248.400 21.700 248.400 H 18.800 C 18.745 248.400 18.700 248.445 18.700 248.500 V 254.500 C 18.700 254.555 18.745 254.600 18.800 254.600 H 21.700 C 21.800 254.600 21.700 254.500 21.700 254.600 V 260.400 C 21.700 260.500 21.800 260.400 21.700 260.400 H 18.800 C 18.745 260.400 18.700 260.445 18.700 260.500 V 266.500 C 18.700 266.555 18.745 266.600 18.800 266.600 H 21.700 C 21.800 266.600 21.700 266.500 21.700 266.600 V 272.400 C 21.700 272.500 21.800 272.400 21.700 272.400 H 18.800 C 18.745 272.400 18.700 272.445 18.700 272.500 V 278.500 C 18.700 278.555 18.745 278.600 18.800 278.600 H 21.700 C 21.800 278.600 21.700 278.500 21.700 278.600 V 284.400 C 21.700 284.500 21.800 284.400 21.700 284.400 H 18.800 C 18.745 284.400 18.700 284.445 18.700 284.500 V 290.500 C 18.700 290.555 18.745 290.600 18.800 290.600 H 21.700 C 21.800 290.600 21.700 290.500 21.700 290.600 V 296.400 C 21.700 296.500 21.800 296.400 21.700 296.400 H 18.800 C 18.745 296.400 18.700 296.445 18.700 296.500 V 302.500 C 18.700 302.555 18.745 302.600 18.800 302.600 H 21.700 C 21.800 302.600 21.700 302.500 21.700 302.600 V 308.400 C 21.700 308.500 21.800 308.400 21.700 308.400 H 18.800 C 18.745 308.400 18.700 308.445 18.700 308.500 V 316.500 C 18.700 316.555 18.745 316.600 18.800 316.600 H 21.800" stroke="rgb(0,0,0)" stroke-width="0.20" />
</g>
<g id="p-2" style="fill:none;stroke-linecap:round;stroke-linejoin:round;">
  <text dominant-baseline="hanging" font-size="4px" style="font-family: sans-serif ; font-weight: normal; font-style: normal; fill: rgb(255,0,0)" text-anchor="middle" transform="matrix( 1.000 0.000 0.000 1.000 170.500 267.600 )">Wall 2</text><path d="M 123.500 316.600 H 131.400 C 131.500 316.600 131.400 316.500 131.400 316.600 V 319.500 C 131.400 319.555 131.445 319.600 131.500 319.600 H 137.500 C 137.555 319.600 137.600 319.555 137.600 319.500 V 316.600 C 137.600 316.500 137.500 316.600 137.600 316.600 H 143.400 C 143.500 316.600 143.400 316.500 143.400 316.600 V 319.500 C 143.400 319.555 143.445 319.600 143.500 319.600 H 149.500 C 149.555 319.600 149.600 319.555 149.600 319.500 V 316.600 C 149.600 316.500 149.500 316.600 149.600 316.600 H 155.400 C 155.500 316.600 155.400 316.500 155.400 316.600 V 319.500 C 155.400 319.555 155.445 319.600 155.500 319.600 H 161.500 C 161.555 319.600 161.600 319.555 161.600 319.500 V 316.600 C 161.600 316.500 161.500 316.600 161.600 316.600 H 167.400 C 167.500 316.600 167.400 316.500 167.400 316.600 V 319.500 C 167.400 319.555 167.445 319.600 167.500 319.600 H 173.500 C 173.555 319.600 173.600 319.555 173.600 319.500 V 316.600 C 173.600 316.500 173.500 316.600 173.600 316.600 H 179.400 C 179.500 316.600 179.400 316.500 179.400 316.600 V 319.500 C 179.400 319.555 179.445 319.600 179.500 319.600 H 185.500 C 185.555 319.600 185.600 319.555 185.600 319.500 V 316.600 C 185.600 316.500 185.500 316.600 185.600 316.600 H 191.400 C 191.500 316.600 191.400 316.500 191.400 316.600 V 319.500 C 191.400 319.555 191.445 319.600 191.500 319.600 H 197.500 C 197.555 319.600 197.600 319.555 197.600 319.500 V 316.600 C 197.600 316.500 197.500 316.600 197.600 316.600 H 203.400 C 203.500 316.600 203.400 316.500 203.400 316.600 V 319.500 C 203.400 319.555 203.445 319.600 203.500 319.600 H 209.500 C 209.555 319.600 209.600 319.555 209.600 319.500 V 316.600 C 209.600 316.500 209.500 316.600 209.600 316.600 H 217.500 C 217.555 316.600 217.600 316.555 217.600 316.500 V 308.600 C 217.600 308.500 217.500 308.600 217.600 308.600 H 220.500 C 220.555 308.600 220.600 308.555 220.600 308.500 V 302.500 C 220.600 302.445 220.555 302.400 220.500 302.400 H 217.600 C 217.500 302.400 217.600 302.500 217.600 302.400 V 296.600 C 217.600 296.500 217.500 296.600 217.600 296.600 H 220.500 C 220.555 296.600 220.600 296.555 220.600 296.500 V 290.500 C 220.600 290.445 220.555 290.400 220.500 290.400 H 217.600 C 217.500 290.400 217.600 290.500 217.600 290.400 V 284.600 C 217.600 284.500 217.500 284.600 217.600 284.600 H 220.500 C 220.555 284.600 220.600 284.555 220.600 284.500 V 278.500 C 220.600 278.445 220.555 278.400 220.500 278.400 H 217.600 C 217.500 278.400 217.600 278.500 217.600 278.400 V 272.600 C 217.600 272.500 217.500 272.600 217.600 272.600 H 220.500 C 220.555 272.600 220.600 272.555 220.600 272.500 V 266.500 C 220.600 266.445 220.555 266.400 220.500 266.400 H 217.600 C 217.500 266.400 217.600 266.500 217.600 266.400 V 260.600 C 217.600 260.500 217.500 260.600 217.600 260.600 H 220.500 C 220.555 260.600 220.600 260.555 220.600 260.500 V 254.500 C 220.600 254.445 220.555 254.400 220.500 254.400 H 217.600 C 217.500 254.400 217.600 254.500 217.600 254.400 V 248.600 C 217.600 248.500 217.500 248.600 217.600 248.600 H 220.500 C 220.555 248.600 220.600 248.555 220.600 248.500 V 242.500 C 220.600 242.445 220.555 242.400 220.500 242.400 H 217.600 C 217.500 242.400 217.600 242.500 217.600 242.400 V 236.600 C 217.600 236.500 217.500 236.600 217.600 236.600 H 220.500 C 220.555 236.600 220.600 236.555 220.600 236.500 V 230.500 C 220.600 230.445 220.555 230.400 220.500 230.400 H 217.600 C 217.500 230.400 217.600 230.500 217.600 230.400 V 222.500 V 219.500 C 217.600 219.445 217.555 219.400 217.500 219.400 H 209.500 C 209.445 219.400 209.400 219.445 209.400 219.500 V 222.400 C 209.400 222.500 209.500 222.400 209.400 222.400 H 203.600 C 203.500 222.400 203.600 222.500 203.600 222.400 V 219.500 C 203.600 219.445 203.555 219.400 203.500 219.400 H 197.500 C 197.445 219.400 197.400 219.445 197.400 219.500 V 222.400 C 197.400 222.500 197.500 222.400 197.400 222.400 H 191.600 C 191.500 222.400 191.600 222.500 191.600 222.400 V 219.500 C 191.600 219.445 191.555 219.400 191.500 219.400 H 185.500 C 185.445 219.400 185.400 219.445 185.400 219.500 V 222.400 C 185.400 222.500 185.500 222.400 185.400 222.400 H 179.600 C 179.500 222.400 179.600 222.500 179.600 222.400 V 219.500 C 179.600 219.445 179.555 219.400 179.500 219.400 H 173.500 C 173.445 219.400 173.400 219.445 173.400 219.500 V 222.400 C 173.400 222.500 173.500 222.400 173.400 222.400 H 167.600 C 167.500 222.400 167.600 222.500 167.600 222.400 V 219.500 C 167.600 219.445 167.555 219.400 167.500 219.400 H 161.500 C 161.445 219.400 161.400 219.445 161.400 219.500 V 222.400 C 161.400 222.500 161.500 222.400 161.400 222.400 H 155.600 C 155.500 222.400 155.600 222.500 155.600 222.400 V 219.500 C 155.600 219.445 155.555 219.400 155.500 219.400 H 149.500 C 149.445 219.400 149.400 219.445 149.400 219.500 V 222.400 C 149.400 222.500 149.500 222.400 149.400 222.400 H 143.600 C 143.500 222.400 143.600 222.500 143.600 222.400 V 219.500 C 143.600 219.445 143.555 219.400 143.500 219.400 H 137.500 C 137.445 219.400 137.400 219.445 137.400 219.500 V 222.400 C 137.400 222.500 137.500 222.400 137.400 222.400 H 131.600 C 131.500 222.400 131.600 222.500 131.600 222.400 V 219.500 C 131.600 219.445 131.555 219.400 131.500 219.400 H 123.500 C 123.445 219.400 123.400 219.445 123.400 219.500 V 222.500 V 230.400 C 123.400 230.500 123.500 230.400 123.400 230.400 H 120.500 C 120.445 230.400 120.400 230.445 120.400 230.500 V 236.500 C 120.400 236.555 120.445 236.600 120.500 236.600 H 123.400 C 123.500 236.600 123.400 236.500 123.400 236.600 V 242.400 C 123.400 242.500 123.500 242.400 123.400 242.400 H 120.500 C 120.445 242.400 120.400 242.445 120.400 242.500 V 248.500 C 120.400 248.555 120.445 248.600 120.500 248.600 H 123.400 C 123.500 248.600 123.400 248.500 123.400 248.600 V 254.400 C 123.400 254.500 123.500 254.400 123.400 254.400 H 120.500 C 120.445 254.400 120.400 254.445 120.400 254.500 V 260.500 C 120.400 260.555 120.445 260.600 120.500 260.600 H 123.400 C 123.500 260.600 123.400 260.500 123.400 260.600 V 266.400 C 123.400 266.500 123.500 266.400 123.400 266.400 H 120.500 C 120.445 266.400 120.400 266.445 120.400 266.500 V 272.500 C 120.400 272.555 120.445 272.600 120.500 272.600 H 123.400 C 123.500 272.600 123.400 272.500 123.400 272.600 V 278.400 C 123.400 278.500 123.500 278.400 123.400 278.400 H 120.500 C 120.445 278.400 120.400 278.445 120.400 278.500 V 284.500 C 120.400 284.555 120.445 284.600 120.500 284.600 H 123.400 C 123.500 284.600 123.400 284.500 123.400 284.600 V 290.400 C 123.400 290.500 123.500 290.400 123.400 290.400 H 120.500 C 120.445 290.400 120.400 290.445 120.400 290.500 V 296.500 C 120.400 296.555 120.445 296.600 120.500 296.600 H 123.400 C 123.500 296.600 123.400 296.500 123.400 296.600 V 302.400 C 123.400 302.500 123.500 302.400 123.400 302.400 H 120.500 C 120.445 302.400 120.400 302.445 120.400 302.500 V 308.500 C 120.400 308.555 120.445 308.600 120.500 308.600 H 123.400 C 123.500 308.600 123.400 308.500 123.400 308.600 V 316.500 C 123.400 316.555 123.445 316.600 123.500 316.600" stroke="rgb(0,0,0)" stroke-width="0.20" />
</g>
<g id="p-3" style="fill:none;stroke-linecap:round;stroke-linejoin:round;">
  <text dominant-baseline="hanging" font-size="4px" style="font-family: sans-serif ; font-weight: normal; font-style: normal; fill: rgb(255,0,0)" text-anchor="middle" transform="matrix( 1.000 0.000 0.000 1.000 170.500 165.900 )">Wall 4</text><path d="M 123.500 214.900 H 131.400 C 131.500 214.900 131.400 214.800 131.400 214.900 V 217.800 C 131.400 217.855 131.445 217.900 131.500 217.900 H 137.500 C 137.555 217.900 137.600 217.855 137.600 217.800 V 214.900 C 137.600 214.800 137.500 214.900 137.600 214.900 H 143.400 C 143.500 214.900 143.400 214.800 143.400 214.900 V 217.800 C 143.400 217.855 143.445 217.900 143.500 217.900 H 149.500 C 149.555 217.900 149.600 217.855 149.600 217.800 V 214.900 C 149.600 214.800 149.500 214.900 149.600 214.900 H 155.400 C 155.500 214.900 155.400 214.800 155.400 214.900 V 217.800 C 155.400 217.855 155.445 217.900 155.500 217.900 H 161.500 C 161.555 217.900 161.600 217.855 161.600 217.800 V 214.900 C 161.600 214.800 161.500 214.900 161.600 214.900 H 167.400 C 167.500 214.900 167.400 214.800 167.400 214.900 V 217.800 C 167.400 217.855 167.445 217.900 167.500 217.900 H 173.500 C 173.555 217.900 173.600 217.855 173.600 217.800 V 214.900 C 173.600 214.800 173.500 214.900 173.600 214.900 H 179.400 C 179.500 214.900 179.400 214.800 179.400 214.900 V 217.800 C 179.400 217.855 179.445 217.900 179.500 217.900 H 185.500 C 185.555 217.900 185.600 217.855 185.600 217.800 V 214.900 C 185.600 214.800 185.500 214.900 185.600 214.900 H 191.400 C 191.500 214.900 191.400 214.800 191.400 214.900 V 217.800 C 191.400 217.855 191.445 217.900 191.500 217.900 H 197.500 C 197.555 217.900 197.600 217.855 197.600 217.800 V 214.900 C 197.600 214.800 197.500 214.900 197.600 214.900 H 203.400 C 203.500 214.900 203.400 214.800 203.400 214.900 V 217.800 C 203.400 217.855 203.445 217.900 203.500 217.900 H 209.500 C 209.555 217.900 209.600 217.855 209.600 217.800 V 214.900 C 209.600 214.800 209.500 214.900 209.600 214.900 H 217.500 C 217.555 214.900 217.600 214.855 217.600 214.800 V 206.900 C 217.600 206.800 217.500 206.900 217.600 206.900 H 220.500 C 220.555 206.900 220.600 206.855 220.600 206.800 V 200.800 C 220.600 200.745 220.555 200.700 220.500 200.700 H 217.600 C 217.500 200.700 217.600 200.800 217.600 200.700 V 194.900 C 217.600 194.800 217.500 194.900 217.600 194.900 H 220.500 C 220.555 194.900 220.600 194.855 220.600 194.800 V 188.800 C 220.600 188.745 220.555 188.700 220.500 188.700 H 217.600 C 217.500 188.700 217.600 188.800 217.600 188.700 V 182.900 C 217.600 182.800 217.500 182.900 217.600 182.900 H 220.500 C 220.555 182.900 220.600 182.855 220.600 182.800 V 176.800 C 220.600 176.745 220.555 176.700 220.500 176.700 H 217.600 C 217.500 176.700 217.600 176.800 217.600 176.700 V 170.900 C 217.600 170.800 217.500 170.900 217.600 170.900 H 220.500 C 220.555 170.900 220.600 170.855 220.600 170.800 V 164.800 C 220.600 164.745 220.555 164.700 220.500 164.700 H 217.600 C 217.500 164.700 217.600 164.800 217.600 164.700 V 158.900 C 217.600 158.800 217.500 158.900 217.600 158.900 H 220.500 C 220.555 158.900 220.600 158.855 220.600 158.800 V 152.800 C 220.600 152.745 220.555 152.700 220.500 152.700 H 217.600 C 217.500 152.700 217.600 152.800 217.600 152.700 V 146.900 C 217.600 146.800 217.500 146.900 217.600 146.900 H 220.500 C 220.555 146.900 220.600 146.855 220.600 146.800 V 140.800 C 220.600 140.745 220.555 140.700 220.500 140.700 H 217.600 C 217.500 140.700 217.600 140.800 217.600 140.700 V 134.900 C 217.600 134.800 217.500 134.900 217.600 134.900 H 220.500 C 220.555 134.900 220.600 134.855 220.600 134.800 V 128.800 C 220.600 128.745 220.555 128.700 220.500 128.700 H 217.600 C 217.500 128.700 217.600 128.800 217.600 128.700 V 120.800 V 117.800 C 217.600 117.745 217.555 117.700 217.500 117.700 H 209.500 C 209.445 117.700 209.400 117.745 209.400 117.800 V 120.700 C 209.400 120.800 209.500 120.700 209.400 120.700 H 203.600 C 203.500 120.700 203.600 120.800 203.600 120.700 V 117.800 C 203.600 117.745 203.555 117.700 203.500 117.700 H 197.500 C 197.445 117.700 197.400 117.745 197.400 117.800 V 120.700 C 197.400 120.800 197.500 120.700 197.400 120.700 H 191.600 C 191.500 120.700 191.600 120.800 191.600 120.700 V 117.800 C 191.600 117.745 191.555 117.700 191.500 117.700 H 185.500 C 185.445 117.700 185.400 117.745 185.400 117.800 V 120.700 C 185.400 120.800 185.500 120.700 185.400 120.700 H 179.600 C 179.500 120.700 179.600 120.800 179.600 120.700 V 117.800 C 179.600 117.745 179.555 117.700 179.500 117.700 H 173.500 C 173.445 117.700 173.400 117.745 173.400 117.800 V 120.700 C 173.400 120.800 173.500 120.700 173.400 120.700 H 167.600 C 167.500 120.700 167.600 120.800 167.600 120.700 V 117.800 C 167.600 117.745 167.555 117.700 167.500 117.700 H 161.500 C 161.445 117.700 161.400 117.745 161.400 117.800 V 120.700 C 161.400 120.800 161.500 120.700 161.400 120.700 H 155.600 C 155.500 120.700 155.600 120.800 155.600 120.700 V 117.800 C 155.600 117.745 155.555 117.700 155.500 117.700 H 149.500 C 149.445 117.700 149.400 117.745 149.400 117.800 V 120.700 C 149.400 120.800 149.500 120.700 149.400 120.700 H 143.600 C 143.500 120.700 143.600 120.800 143.600 120.700 V 117.800 C 143.600 117.745 143.555 117.700 143.500 117.700 H 137.500 C 137.445 117.700 137.400 117.745 137.400 117.800 V 120.700 C 137.400 120.800 137.500 120.700 137.400 120.700 H 131.600 C 131.500 120.700 131.600 120.800 131.600 120.700 V 117.800 C 131.600 117.745 131.555 117.700 131.500 117.700 H 123.500 C 123.445 117.700 123.400 117.745 123.400 117.800 V 120.800 V 128.700 C 123.400 128.800 123.500 128.700 123.400 128.700 H 120.500 C 120.445 128.700 120.400 128.745 120.400 128.800 V 134.800 C 120.400 134.855 120.445 134.900 120.500 134.900 H 123.400 C 123.500 134.900 123.400 134.800 123.400 134.900 V 140.700 C 123.400 140.800 123.500 140.700 123.400 140.700 H 120.500 C 120.445 140.700 120.400 140.745 120.400 140.800 V 146.800 C 120.400 146.855 120.445 146.900 120.500 146.900 H 123.400 C 123.500 146.900 123.400 146.800 123.400 146.900 V 152.700 C 123.400 152.800 123.500 152.700 123.400 152.700 H 120.500 C 120.445 152.700 120.400 152.745 120.400 152.800 V 158.800 C 120.400 158.855 120.445 158.900 120.500 158.900 H 123.400 C 123.500 158.900 123.400 158.800 123.400 158.900 V 164.700 C 123.400 164.800 123.500 164.700 123.400 164.700 H 120.500 C 120.445 164.700 120.400 164.745 120.400 164.800 V 170.800 C 120.400 170.855 120.445 170.900 120.500 170.900 H 123.400 C 123.500 170.900 123.400 170.800 123.400 170.900 V 176.700 C 123.400 176.800 123.500 176.700 123.400 176.700 H 120.500 C 120.445 176.700 120.400 176.745 120.400 176.800 V 182.800 C 120.400 182.855 120.445 182.900 120.500 182.900 H 123.400 C 123.500 182.900 123.400 182.800 123.400 182.900 V 188.700 C 123.400 188.800 123.500 188.700 123.400 188.700 H 120.500 C 120.445 188.700 120.400 188.745 120.400 188.800 V 194.800 C 120.400 194.855 120.445 194.900 120.500 194.900 H 123.400 C 123.500 194.900 123.400 194.800 123.400 194.900 V 200.700 C 123.400 200.800 123.500 200.700 123.400 200.700 H 120.500 C 120.445 200.700 120.400 200.745 120.400 200.800 V 206.800 C 120.400 206.855 120.445 206.900 120.500 206.900 H 123.400 C 123.500 206.900 123.400 206.800 123.400 206.900 V 214.800 C 123.400 214.855 123.445 214.900 123.500 214.900" stroke="rgb(0,0,0)" stroke-width="0.20" />
</g>
<g id="p-4" style="fill:none;stroke-linecap:round;stroke-linejoin:round;">
  <text dominant-baseline="hanging" font-size="4px" style="font-family: sans-serif ; font-weight: normal; font-style: normal; fill: rgb(255,0,0)" text-anchor="middle" transform="matrix( 1.000 0.000 0.000 1.000 68.800 165.900 )">Wall 3</text><path d="M 21.800 214.900 H 29.700 C 29.800 214.900 29.700 214.800 29.700 214.900 V 217.800 C 29.700 217.855 29.745 217.900 29.800 217.900 H 35.800 C 35.855 217.900 35.900 217.855 35.900 217.800 V 214.900 C 35.900 214.800 35.800 214.900 35.900 214.900 H 41.700 C 41.800 214.900 41.700 214.800 41.700 214.900 V 217.800 C 41.700 217.855 41.745 217.900 41.800 217.900 H 47.800 C 47.855 217.900 47.900 217.855 47.900 217.800 V 214.900 C 47.900 214.800 47.800 214.900 47.900 214.900 H 53.700 C 53.800 214.900 53.700 214.800 53.700 214.900 V 217.800 C 53.700 217.855 53.745 217.900 53.800 217.900 H 59.800 C 59.855 217.900 59.900 217.855 59.900 217.800 V 214.900 C 59.900 214.800 59.800 214.900 59.900 214.900 H 65.700 C 65.800 214.900 65.700 214.800 65.700 214.900 V 217.800 C 65.700 217.855 65.745 217.900 65.800 217.900 H 71.800 C 71.855 217.900 71.900 217.855 71.900 217.800 V 214.900 C 71.900 214.800 71.800 214.900 71.900 214.900 H 77.700 C 77.800 214.900 77.700 214.800 77.700 214.900 V 217.800 C 77.700 217.855 77.745 217.900 77.800 217.900 H 83.800 C 83.855 217.900 83.900 217.855 83.900 217.800 V 214.900 C 83.900 214.800 83.800 214.900 83.900 214.900 H 89.700 C 89.800 214.900 89.700 214.800 89.700 214.900 V 217.800 C 89.700 217.855 89.745 217.900 89.800 217.900 H 95.800 C 95.855 217.900 95.900 217.855 95.900 217.800 V 214.900 C 95.900 214.800 95.800 214.900 95.900 214.900 H 101.700 C 101.800 214.900 101.700 214.800 101.700 214.900 V 217.800 C 101.700 217.855 101.745 217.900 101.800 217.900 H 107.800 C 107.855 217.900 107.900 217.855 107.900 217.800 V 214.900 C 107.900 214.800 107.800 214.900 107.900 214.900 H 115.800 H 118.800 C 118.855 214.900 118.900 214.855 118.900 214.800 V 206.800 C 118.900 206.745 118.855 206.700 118.800 206.700 H 115.900 C 115.800 206.700 115.900 206.800 115.900 206.700 V 200.900 C 115.900 200.800 115.800 200.900 115.900 200.900 H 118.800 C 118.855 200.900 118.900 200.855 118.900 200.800 V 194.800 C 118.900 194.745 118.855 194.700 118.800 194.700 H 115.900 C 115.800 194.700 115.900 194.800 115.900 194.700 V 188.900 C 115.900 188.800 115.800 188.900 115.900 188.900 H 118.800 C 118.855 188.900 118.900 188.855 118.900 188.800 V 182.800 C 118.900 182.745 118.855 182.700 118.800 182.700 H 115.900 C 115.800 182.700 115.900 182.800 115.900 182.700 V 176.900 C 115.900 176.800 115.800 176.900 115.900 176.900 H 118.800 C 118.855 176.900 118.900 176.855 118.900 176.800 V 170.800 C 118.900 170.745 118.855 170.700 118.800 170.700 H 115.900 C 115.800 170.700 115.900 170.800 115.900 170.700 V 164.900 C 115.900 164.800 115.800 164.900 115.900 164.900 H 118.800 C 118.855 164.900 118.900 164.855 118.900 164.800 V 158.800 C 118.900 158.745 118.855 158.700 118.800 158.700 H 115.900 C 115.800 158.700 115.900 158.800 115.900 158.700 V 152.900 C 115.900 152.800 115.800 152.900 115.900 152.900 H 118.800 C 118.855 152.900 118.900 152.855 118.900 152.800 V 146.800 C 118.900 146.745 118.855 146.700 118.800 146.700 H 115.900 C 115.800 146.700 115.900 146.800 115.900 146.700 V 140.900 C 115.900 140.800 115.800 140.900 115.900 140.900 H 118.800 C 118.855 140.900 118.900 140.855 118.900 140.800 V 134.800 C 118.900 134.745 118.855 134.700 118.800 134.700 H 115.900 C 115.800 134.700 115.900 134.800 115.900 134.700 V 128.900 C 115.900 128.800 115.800 128.900 115.900 128.900 H 118.800 C 118.855 128.900 118.900 128.855 118.900 128.800 V 120.800 V 117.800 C 118.900 117.745 118.855 117.700 118.800 117.700 H 115.800 H 107.800 C 107.745 117.700 107.700 117.745 107.700 117.800 V 120.700 C 107.700 120.800 107.800 120.700 107.700 120.700 H 101.900 C 101.800 120.700 101.900 120.800 101.900 120.700 V 117.800 C 101.900 117.745 101.855 117.700 101.800 117.700 H 95.800 C 95.745 117.700 95.700 117.745 95.700 117.800 V 120.700 C 95.700 120.800 95.800 120.700 95.700 120.700 H 89.900 C 89.800 120.700 89.900 120.800 89.900 120.700 V 117.800 C 89.900 117.745 89.855 117.700 89.800 117.700 H 83.800 C 83.745 117.700 83.700 117.745 83.700 117.800 V 120.700 C 83.700 120.800 83.800 120.700 83.700 120.700 H 77.900 C 77.800 120.700 77.900 120.800 77.900 120.700 V 117.800 C 77.900 117.745 77.855 117.700 77.800 117.700 H 71.800 C 71.745 117.700 71.700 117.745 71.700 117.800 V 120.700 C 71.700 120.800 71.800 120.700 71.700 120.700 H 65.900 C 65.800 120.700 65.900 120.800 65.900 120.700 V 117.800 C 65.900 117.745 65.855 117.700 65.800 117.700 H 59.800 C 59.745 117.700 59.700 117.745 59.700 117.800 V 120.700 C 59.700 120.800 59.800 120.700 59.700 120.700 H 53.900 C 53.800 120.700 53.900 120.800 53.900 120.700 V 117.800 C 53.900 117.745 53.855 117.700 53.800 117.700 H 47.800 C 47.745 117.700 47.700 117.745 47.700 117.800 V 120.700 C 47.700 120.800 47.800 120.700 47.700 120.700 H 41.900 C 41.800 120.700 41.900 120.800 41.900 120.700 V 117.800 C 41.900 117.745 41.855 117.700 41.800 117.700 H 35.800 C 35.745 117.700 35.700 117.745 35.700 117.800 V 120.700 C 35.700 120.800 35.800 120.700 35.700 120.700 H 29.900 C 29.800 120.700 29.900 120.800 29.900 120.700 V 117.800 C 29.900 117.745 29.855 117.700 29.800 117.700 H 21.800 H 18.800 C 18.745 117.700 18.700 117.745 18.700 117.800 V 120.800 V 128.800 C 18.700 128.855 18.745 128.900 18.800 128.900 H 21.700 C 21.800 128.900 21.700 128.800 21.700 128.900 V 134.700 C 21.700 134.800 21.800 134.700 21.700 134.700 H 18.800 C 18.745 134.700 18.700 134.745 18.700 134.800 V 140.800 C 18.700 140.855 18.745 140.900 18.800 140.900 H 21.700 C 21.800 140.900 21.700 140.800 21.700 140.900 V 146.700 C 21.700 146.800 21.800 146.700 21.700 146.700 H 18.800 C 18.745 146.700 18.700 146.745 18.700 146.800 V 152.800 C 18.700 152.855 18.745 152.900 18.800 152.900 H 21.700 C 21.800 152.900 21.700 152.800 21.700 152.900 V 158.700 C 21.700 158.800 21.800 158.700 21.700 158.700 H 18.800 C 18.745 158.700 18.700 158.745 18.700 158.800 V 164.800 C 18.700 164.855 18.745 164.900 18.800 164.900 H 21.700 C 21.800 164.900 21.700 164.800 21.700 164.900 V 170.700 C 21.700 170.800 21.800 170.700 21.700 170.700 H 18.800 C 18.745 170.700 18.700 170.745 18.700 170.800 V 176.800 C 18.700 176.855 18.745 176.900 18.800 176.900 H 21.700 C 21.800 176.900 21.700 176.800 21.700 176.900 V 182.700 C 21.700 182.800 21.800 182.700 21.700 182.700 H 18.800 C 18.745 182.700 18.700 182.745 18.700 182.800 V 188.800 C 18.700 188.855 18.745 188.900 18.800 188.900 H 21.700 C 21.800 188.900 21.700 188.800 21.700 188.900 V 194.700 C 21.700 194.800 21.800 194.700 21.700 194.700 H 18.800 C 18.745 194.700 18.700 194.745 18.700 194.800 V 200.800 C 18.700 200.855 18.745 200.900 18.800 200.900 H 21.700 C 21.800 200.900 21.700 200.800 21.700 200.900 V 206.700 C 21.700 206.800 21.800 206.700 21.700 206.700 H 18.800 C 18.745 206.700 18.700 206.745 18.700 206.800 V 214.800 C 18.700 214.855 18.745 214.900 18.800 214.900 H 21.800" stroke="rgb(0,0,0)" stroke-width="0.20" />
</g>
<g id="p-5" style="fill:none;stroke-linecap:round;stroke-linejoin:round;">
  <text dominant-baseline="hanging" font-size="4px" style="font-family: sans-serif ; font-weight: normal; font-style: normal; fill: rgb(255,0,0)" text-anchor="middle" transform="matrix( 1.000 0.000 0.000 1.000 68.800 64.200 )">Top</text><path d="M 21.800 113.200 H 29.700 C 29.800 113.200 29.700 113.100 29.700 113.200 V 116.100 C 29.700 116.155 29.745 116.200 29.800 116.200 H 35.800 C 35.855 116.200 35.900 116.155 35.900 116.100 V 113.200 C 35.900 113.100 35.800 113.200 35.900 113.200 H 41.700 C 41.800 113.200 41.700 113.100 41.700 113.200 V 116.100 C 41.700 116.155 41.745 116.200 41.800 116.200 H 47.800 C 47.855 116.200 47.900 116.155 47.900 116.100 V 113.200 C 47.900 113.100 47.800 113.200 47.900 113.200 H 53.700 C 53.800 113.200 53.700 113.100 53.700 113.200 V 116.100 C 53.700 116.155 53.745 116.200 53.800 116.200 H 59.800 C 59.855 116.200 59.900 116.155 59.900 116.100 V 113.200 C 59.900 113.100 59.800 113.200 59.900 113.200 H 65.700 C 65.800 113.200 65.700 113.100 65.700 113.200 V 116.100 C 65.700 116.155 65.745 116.200 65.800 116.200 H 71.800 C 71.855 116.200 71.900 116.155 71.900 116.100 V 113.200 C 71.900 113.100 71.800 113.200 71.900 113.200 H 77.700 C 77.800 113.200 77.700 113.100 77.700 113.200 V 116.100 C 77.700 116.155 77.745 116.200 77.800 116.200 H 83.800 C 83.855 116.200 83.900 116.155 83.900 116.100 V 113.200 C 83.900 113.100 83.800 113.200 83.900 113.200 H 89.700 C 89.800 113.200 89.700 113.100 89.700 113.200 V 116.100 C 89.700 116.155 89.745 116.200 89.800 116.200 H 95.800 C 95.855 116.200 95.900 116.155 95.900 116.100 V 113.200 C 95.900 113.100 95.800 113.200 95.900 113.200 H 101.700 C 101.800 113.200 101.700 113.100 101.700 113.200 V 116.100 C 101.700 116.155 101.745 116.200 101.800 116.200 H 107.800 C 107.855 116.200 107.900 116.155 107.900 116.100 V 113.200 C 107.900 113.100 107.800 113.200 107.900 113.200 H 115.800 C 115.855 113.200 115.900 113.155 115.900 113.100 V 105.200 C 115.900 105.100 115.800 105.200 115.900 105.200 H 118.800 C 118.855 105.200 118.900 105.155 118.900 105.100 V 99.100 C 118.900 99.045 118.855 99.000 118.800 99.000 H 115.900 C 115.800 99.000 115.900 99.100 115.900 99.000 V 93.200 C 115.900 93.100 115.800 93.200 115.900 93.200 H 118.800 C 118.855 93.200 118.900 93.155 118.900 93.100 V 87.100 C 118.900 87.045 118.855 87.000 118.800 87.000 H 115.900 C 115.800 87.000 115.900 87.100 115.900 87.000 V 81.200 C 115.900 81.100 115.800 81.200 115.900 81.200 H 118.800 C 118.855 81.200 118.900 81.155 118.900 81.100 V 75.100 C 118.900 75.045 118.855 75.000 118.800 75.000 H 115.900 C 115.800 75.000 115.900 75.100 115.900 75.000 V 69.200 C 115.900 69.100 115.800 69.200 115.900 69.200 H 118.800 C 118.855 69.200 118.900 69.155 118.900 69.100 V 63.100 C 118.900 63.045 118.855 63.000 118.800 63.000 H 115.900 C 115.800 63.000 115.900 63.100 115.900 63.000 V 57.200 C 115.900 57.100 115.800 57.200 115.900 57.200 H 118.800 C 118.855 57.200 118.900 57.155 118.900 57.100 V 51.100 C 118.900 51.045 118.855 51.000 118.800 51.000 H 115.900 C 115.800 51.000 115.900 51.100 115.900 51.000 V 45.200 C 115.900 45.100 115.800 45.200 115.900 45.200 H 118.800 C 118.855 45.200 118.900 45.155 118.900 45.100 V 39.100 C 118.900 39.045 118.855 39.000 118.800 39.000 H 115.900 C 115.800 39.000 115.900 39.100 115.900 39.000 V 33.200 C 115.900 33.100 115.800 33.200 115.900 33.200 H 118.800 C 118.855 33.200 118.900 33.155 118.900 33.100 V 27.100 C 118.900 27.045 118.855 27.000 118.800 27.000 H 115.900 C 115.800 27.000 115.900 27.100 115.900 27.000 V 19.100 C 115.900 19.045 115.855 19.000 115.800 19.000 H 107.900 C 107.800 19.000 107.900 19.100 107.900 19.000 V 16.100 C 107.900 16.045 107.855 16.000 107.800 16.000 H 101.800 C 101.745 16.000 101.700 16.045 101.700 16.100 V 19.000 C 101.700 19.100 101.800 19.000 101.700 19.000 H 95.900 C 95.800 19.000 95.900 19.100 95.900 19.000 V 16.100 C 95.900 16.045 95.855 16.000 95.800 16.000 H 89.800 C 89.745 16.000 89.700 16.045 89.700 16.100 V 19.000 C 89.700 19.100 89.800 19.000 89.700 19.000 H 83.900 C 83.800 19.000 83.900 19.100 83.900 19.000 V 16.100 C 83.900 16.045 83.855 16.000 83.800 16.000 H 77.800 C 77.745 16.000 77.700 16.045 77.700 16.100 V 19.000 C 77.700 19.100 77.800 19.000 77.700 19.000 H 71.900 C 71.800 19.000 71.900 19.100 71.900 19.000 V 16.100 C 71.900 16.045 71.855 16.000 71.800 16.000 H 65.800 C 65.745 16.000 65.700 16.045 65.700 16.100 V 19.000 C 65.700 19.100 65.800 19.000 65.700 19.000 H 59.900 C 59.800 19.000 59.900 19.100 59.900 19.000 V 16.100 C 59.900 16.045 59.855 16.000 59.800 16.000 H 53.800 C 53.745 16.000 53.700 16.045 53.700 16.100 V 19.000 C 53.700 19.100 53.800 19.000 53.700 19.000 H 47.900 C 47.800 19.000 47.900 19.100 47.900 19.000 V 16.100 C 47.900 16.045 47.855 16.000 47.800 16.000 H 41.800 C 41.745 16.000 41.700 16.045 41.700 16.100 V 19.000 C 41.700 19.100 41.800 19.000 41.700 19.000 H 35.900 C 35.800 19.000 35.900 19.100 35.900 19.000 V 16.100 C 35.900 16.045 35.855 16.000 35.800 16.000 H 29.800 C 29.745 16.000 29.700 16.045 29.700 16.100 V 19.000 C 29.700 19.100 29.800 19.000 29.700 19.000 H 21.800 C 21.745 19.000 21.700 19.045 21.700 19.100 V 27.000 C 21.700 27.100 21.800 27.000 21.700 27.000 H 18.800 C 18.745 27.000 18.700 27.045 18.700 27.100 V 33.100 C 18.700 33.155 18.745 33.200 18.800 33.200 H 21.700 C 21.800 33.200 21.700 33.100 21.700 33.200 V 39.000 C 21.700 39.100 21.800 39.000 21.700 39.000 H 18.800 C 18.745 39.000 18.700 39.045 18.700 39.100 V 45.100 C 18.700 45.155 18.745 45.200 18.800 45.200 H 21.700 C 21.800 45.200 21.700 45.100 21.700 45.200 V 51.000 C 21.700 51.100 21.800 51.000 21.700 51.000 H 18.800 C 18.745 51.000 18.700 51.045 18.700 51.100 V 57.100 C 18.700 57.155 18.745 57.200 18.800 57.200 H 21.700 C 21.800 57.200 21.700 57.100 21.700 57.200 V 63.000 C 21.700 63.100 21.800 63.000 21.700 63.000 H 18.800 C 18.745 63.000 18.700 63.045 18.700 63.100 V 69.100 C 18.700 69.155 18.745 69.200 18.800 69.200 H 21.700 C 21.800 69.200 21.700 69.100 21.700 69.200 V 75.000 C 21.700 75.100 21.800 75.000 21.700 75.000 H 18.800 C 18.745 75.000 18.700 75.045 18.700 75.100 V 81.100 C 18.700 81.155 18.745 81.200 18.800 81.200 H 21.700 C 21.800 81.200 21.700 81.100 21.700 81.200 V 87.000 C 21.700 87.100 21.800 87.000 21.700 87.000 H 18.800 C 18.745 87.000 18.700 87.045 18.700 87.100 V 93.100 C 18.700 93.155 18.745 93.200 18.800 93.200 H 21.700 C 21.800 93.200 21.700 93.100 21.700 93.200 V 99.000 C 21.700 99.100 21.800 99.000 21.700 99.000 H 18.800 C 18.745 99.000 18.700 99.045 18.700 99.100 V 105.100 C 18.700 105.155 18.745 105.200 18.800 105.200 H 21.700 C 21.800 105.200 21.700 105.100 21.700 105.200 V 113.100 C 21.700 113.155 21.745 113.200 21.800 113.200" stroke="rgb(0,0,0)" stroke-width="0.20" />
</g>
<g id="p-6" style="fill:none;stroke-linecap:round;stroke-linejoin:round;">
  <path d="M 137.500 113.000 H 134.600 C 134.500 113.000 134.600 113.100 134.600 113.000 V 110.200 C 134.600 110.100 134.500 110.200 134.600 110.200 H 140.400 C 140.500 110.200 140.400 110.100 140.400 110.200 V 113.000 C 140.400 113.100 140.500 113.000 140.400 113.000 H 137.500 Z" stroke="rgb(0,0,255)" stroke-width="0.20" />
  <path d="M 149.500 113.000 H 146.600 C 146.500 113.000 146.600 113.100 146.600 113.000 V 110.200 C 146.600 110.100 146.500 110.200 146.600 110.200 H 152.400 C 152.500 110.200 152.400 110.100 152.400 110.200 V 113.000 C 152.400 113.100 152.500 113.000 152.400 113.000 H 149.500 Z" stroke="rgb(0,0,255)" stroke-width="0.20" />
  <path d="M 161.500 113.000 H 158.600 C 158.500 113.000 158.600 113.100 158.600 113.000 V 110.200 C 158.600 110.100 158.500 110.200 158.600 110.200 H 164.400 C 164.500 110.200 164.400 110.100 164.400 110.200 V 113.000 C 164.400 113.100 164.500 113.000 164.400 113.000 H 161.500 Z" stroke="rgb(0,0,255)" stroke-width="0.20" />
  <path d="M 173.500 113.000 H 170.600 C 170.500 113.000 170.600 113.100 170.600 113.000 V 110.200 C 170.600 110.100 170.500 110.200 170.600 110.200 H 176.400 C 176.500 110.200 176.400 110.100 176.400 110.200 V 113.000 C 176.400 113.100 176.500 113.000 176.400 113.000 H 173.500 Z" stroke="rgb(0,0,255)" stroke-width="0.20" />
  <path d="M 185.500 113.000 H 182.600 C 182.500 113.000 182.600 113.100 182.600 113.000 V 110.200 C 182.600 110.100 182.500 110.200 182.600 110.200 H 188.400 C 188.500 110.200 188.400 110.100 188.400 110.200 V 113.000 C 188.400 113.100 188.500 113.000 188.400 113.000 H 185.500 Z" stroke="rgb(0,0,255)" stroke-width="0.20" />
  <path d="M 197.500 113.000 H 194.600 C 194.500 113.000 194.600 113.100 194.600 113.000 V 110.200 C 194.600 110.100 194.500 110.200 194.600 110.200 H 200.400 C 200.500 110.200 200.400 110.100 200.400 110.200 V 113.000 C 200.400 113.100 200.500 113.000 200.400 113.000 H 197.500 Z" stroke="rgb(0,0,255)" stroke-width="0.20" />
  <path d="M 209.500 113.000 H 206.600 C 206.500 113.000 206.600 113.100 206.600 113.000 V 110.200 C 206.600 110.100 206.500 110.200 206.600 110.200 H 212.400 C 212.500 110.200 212.400 110.100 212.400 110.200 V 113.000 C 212.400 113.100 212.500 113.000 212.400 113.000 H 209.500 Z" stroke="rgb(0,0,255)" stroke-width="0.20" />
  <text dominant-baseline="hanging" font-size="4px" style="font-family: sans-serif ; font-weight: normal; font-style: normal; fill: rgb(255,0,0)" text-anchor="middle" transform="matrix( 1.000 0.000 0.000 1.000 173.500 61.200 )">Base</text><path d="M 126.500 116.200 H 220.500 H 226.500 C 226.555 116.200 226.600 116.155 226.600 116.100 V 110.100 V 16.100 V 10.100 C 226.600 10.045 226.555 10.000 226.500 10.000 H 220.500 H 126.500 H 120.500 C 120.445 10.000 120.400 10.045 120.400 10.100 V 16.100 V 110.100 V 116.100 C 120.400 116.155 120.445 116.200 120.500 116.200 H 126.500" stroke="rgb(0,0,0)" stroke-width="0.20" />
  <path d="M 223.400 99.100 V 102.000 C 223.400 102.100 223.500 102.000 223.400 102.000 H 220.600 C 220.500 102.000 220.600 102.100 220.600 102.000 V 96.200 C 220.600 96.100 220.500 96.200 220.600 96.200 H 223.400 C 223.500 96.200 223.400 96.100 223.400 96.200 V 99.100 Z" stroke="rgb(0,0,255)" stroke-width="0.20" />
  <path d="M 223.400 87.100 V 90.000 C 223.400 90.100 223.500 90.000 223.400 90.000 H 220.600 C 220.500 90.000 220.600 90.100 220.600 90.000 V 84.200 C 220.600 84.100 220.500 84.200 220.600 84.200 H 223.400 C 223.500 84.200 223.400 84.100 223.400 84.200 V 87.100 Z" stroke="rgb(0,0,255)" stroke-width="0.20" />
  <path d="M 223.400 75.100 V 78.000 C 223.400 78.100 223.500 78.000 223.400 78.000 H 220.600 C 220.500 78.000 220.600 78.100 220.600 78.000 V 72.200 C 220.600 72.100 220.500 72.200 220.600 72.200 H 223.400 C 223.500 72.200 223.400 72.100 223.400 72.200 V 75.100 Z" stroke="rgb(0,0,255)" stroke-width="0.20" />
  <path d="M 223.400 63.100 V 66.000 C 223.400 66.100 223.500 66.000 223.400 66.000 H 220.600 C 220.500 66.000 220.600 66.100 220.600 66.000 V 60.200 C 220.600 60.100 220.500 60.200 220.600 60.200 H 223.400 C 223.500 60.200 223.400 60.100 223.400 60.200 V 63.100 Z" stroke="rgb(0,0,255)" stroke-width="0.20" />
  <path d="M 223.400 51.100 V 54.000 C 223.400 54.100 223.500 54.000 223.400 54.000 H 220.600 C 220.500 54.000 220.600 54.100 220.600 54.000 V 48.200 C 220.600 48.100 220.500 48.200 220.600 48.200 H 223.400 C 223.500 48.200 223.400 48.100 223.400 48.200 V 51.100 Z" stroke="rgb(0,0,255)" stroke-width="0.20" />
  <path d="M 223.400 39.100 V 42.000 C 223.400 42.100 223.500 42.000 223.400 42.000 H 220.600 C 220.500 42.000 220.600 42.100 220.600 42.000 V 36.200 C 220.600 36.100 220.500 36.200 220.600 36.200 H 223.400 C 223.500 36.200 223.400 36.100 223.400 36.200 V 39.100 Z" stroke="rgb(0,0,255)" stroke-width="0.20" />
  <path d="M 223.400 27.100 V 30.000 C 223.400 30.100 223.500 30.000 223.400 30.000 H 220.600 C 220.500 30.000 220.600 30.100 220.600 30.000 V 24.200 C 220.600 24.100 220.500 24.200 220.600 24.200 H 223.400 C 223.500 24.200 223.400 24.100 223.400 24.200 V 27.100 Z" stroke="rgb(0,0,255)" stroke-width="0.20" />
  <path d="M 209.500 13.200 H 212.400 C 212.500 13.200 212.400 13.100 212.400 13.200 V 16.000 C 212.400 16.100 212.500 16.000 212.400 16.000 H 206.600 C 206.500 16.000 206.600 16.100 206.600 16.000 V 13.200 C 206.600 13.100 206.500 13.200 206.600 13.200 H 209.500 Z" stroke="rgb(0,0,255)" stroke-width="0.20" />
  <path d="M 197.500 13.200 H 200.400 C 200.500 13.200 200.400 13.100 200.400 13.200 V 16.000 C 200.400 16.100 200.500 16.000 200.400 16.000 H 194.600 C 194.500 16.000 194.600 16.100 194.600 16.000 V 13.200 C 194.600 13.100 194.500 13.200 194.600 13.200 H 197.500 Z" stroke="rgb(0,0,255)" stroke-width="0.20" />
  <path d="M 185.500 13.200 H 188.400 C 188.500 13.200 188.400 13.100 188.400 13.200 V 16.000 C 188.400 16.100 188.500 16.000 188.400 16.000 H 182.600 C 182.500 16.000 182.600 16.100 182.600 16.000 V 13.200 C 182.600 13.100 182.500 13.200 182.600 13.200 H 185.500 Z" stroke="rgb(0,0,255)" stroke-width="0.20" />
  <path d="M 173.500 13.200 H 176.400 C 176.500 13.200 176.400 13.100 176.400 13.200 V 16.000 C 176.400 16.100 176.500 16.000 176.400 16.000 H 170.600 C 170.500 16.000 170.600 16.100 170.600 16.000 V 13.200 C 170.600 13.100 170.500 13.200 170.600 13.200 H 173.500 Z" stroke="rgb(0,0,255)" stroke-width="0.20" />
  <path d="M 161.500 13.200 H 164.400 C 164.500 13.200 164.400 13.100 164.400 13.200 V 16.000 C 164.400 16.100 164.500 16.000 164.400 16.000 H 158.600 C 158.500 16.000 158.600 16.100 158.600 16.000 V 13.200 C 158.600 13.100 158.500 13.200 158.600 13.200 H 161.500 Z" stroke="rgb(0,0,255)" stroke-width="0.20" />
  <path d="M 149.500 13.200 H 152.400 C 152.500 13.200 152.400 13.100 152.400 13.200 V 16.000 C 152.400 16.100 152.500 16.000 152.400 16.000 H 146.600 C 146.500 16.000 146.600 16.100 146.600 16.000 V 13.200 C 146.600 13.100 146.500 13.200 146.600 13.200 H 149.500 Z" stroke="rgb(0,0,255)" stroke-width="0.20" />
  <path d="M 137.500 13.200 H 140.400 C 140.500 13.200 140.400 13.100 140.400 13.200 V 16.000 C 140.400 16.100 140.500 16.000 140.400 16.000 H 134.600 C 134.500 16.000 134.600 16.100 134.600 16.000 V 13.200 C 134.600 13.100 134.500 13.200 134.600 13.200 H 137.500 Z" stroke="rgb(0,0,255)" stroke-width="0.20" />
  <path d="M 123.600 27.100 V 24.200 C 123.600 24.100 123.500 24.200 123.600 24.200 H 126.400 C 126.500 24.200 126.400 24.100 126.400 24.200 V 30.000 C 126.400 30.100 126.500 30.000 126.400 30.000 H 123.600 C 123.500 30.000 123.600 30.100 123.600 30.000 V 27.100 Z" stroke="rgb(0,0,255)" stroke-width="0.20" />
  <path d="M 123.600 39.100 V 36.200 C 123.600 36.100 123.500 36.200 123.600 36.200 H 126.400 C 126.500 36.200 126.400 36.100 126.400 36.200 V 42.000 C 126.400 42.100 126.500 42.000 126.400 42.000 H 123.600 C 123.500 42.000 123.600 42.100 123.600 42.000 V 39.100 Z" stroke="rgb(0,0,255)" stroke-width="0.20" />
  <path d="M 123.600 51.100 V 48.200 C 123.600 48.100 123.500 48.200 123.600 48.200 H 126.400 C 126.500 48.200 126.400 48.100 126.400 48.200 V 54.000 C 126.400 54.100 126.500 54.000 126.400 54.000 H 123.600 C 123.500 54.000 123.600 54.100 123.600 54.000 V 51.100 Z" stroke="rgb(0,0,255)" stroke-width="0.20" />
  <path d="M 123.600 63.100 V 60.200 C 123.600 60.100 123.500 60.200 123.600 60.200 H 126.400 C 126.500 60.200 126.400 60.100 126.400 60.200 V 66.000 C 126.400 66.100 126.500 66.000 126.400 66.000 H 123.600 C 123.500 66.000 123.600 66.100 123.600 66.000 V 63.100 Z" stroke="rgb(0,0,255)" stroke-width="0.20" />
  <path d="M 123.600 75.100 V 72.200 C 123.600 72.100 123.500 72.200 123.600 72.200 H 126.400 C 126.500 72.200 126.400 72.100 126.400 72.200 V 78.000 C 126.400 78.100 126.500 78.000 126.400 78.000 H 123.600 C 123.500 78.000 123.600 78.100 123.600 78.000 V 75.100 Z" stroke="rgb(0,0,255)" stroke-width="0.20" />
  <path d="M 123.600 87.100 V 84.200 C 123.600 84.100 123.500 84.200 123.600 84.200 H 126.400 C 126.500 84.200 126.400 84.100 126.400 84.200 V 90.000 C 126.400 90.100 126.500 90.000 126.400 90.000 H 123.600 C 123.500 90.000 123.600 90.100 123.600 90.000 V 87.100 Z" stroke="rgb(0,0,255)" stroke-width="0.20" />
  <path d="M 123.600 99.100 V 96.200 C 123.600 96.100 123.500 96.200 123.600 96.200 H 126.400 C 126.500 96.200 126.400 96.100 126.400 96.200 V 102.000 C 126.400 102.100 126.500 102.000 126.400 102.000 H 123.600 C 123.500 102.000 123.600 102.100 123.600 102.000 V 99.100 Z" stroke="rgb(0,0,255)" stroke-width="0.20" />
</g>
</svg>