<?xml version='1.0' encoding='utf-8'?>
<svg height="81.54mm" viewBox="0.0 0.0 285.70 81.54" width="285.70mm" xmlns="http://www.w3.org/2000/svg" xmlns:cc="http://creativecommons.org/ns#" xmlns:dc="http://purl.org/dc/elements/1.1/" xmlns:inkscape="http://www.inkscape.org/namespaces/inkscape" xmlns:rdf="http://www.w3.org/1999/02/22-rdf-syntax-ns#" xmlns:svg="http://www.w3.org/2000/svg" xmlns:xlink="http://www.w3.org/1999/xlink">
<!--
BayonetBox - Round box made from layers with twist on top


Glue together - all outside rings to the bottom, all inside rings to the top.


Created with Boxes.py (https://festi.info/boxes.py)
Command line (remove spaces between dashes): boxes BayonetBox
-->
<title>BayonetBox</title>
<metadata>
<rdf:RDF><cc:Work>
<dc:title>Box - BayonetBox</dc:title>
<dc:source>boxes BayonetBox</dc:source>
<dc:description>Round box made from layers with twist on top

Glue together - all outside rings to the bottom, all inside rings to the top.

Created with Boxes.py (https://festi.info/boxes.py)
Command line: boxes BayonetBox
Command line short: boxes BayonetBox
</dc:description>
</cc:Work></rdf:RDF></metadata>
<g id="p-0" style="fill:none;stroke-linecap:round;stroke-linejoin:round;">
  <path d="M 18.800 71.545 H 118.800 V 61.545 H 18.800 V 71.545 Z" stroke="rgb(0,0,0)" stroke-width="0.20" />
  <text dominant-baseline="hanging" font-size="8px" style="font-family: sans-serif ; font-weight: normal; font-style: normal; fill: rgb(255,0,0)" text-anchor="middle" transform="matrix( 1.000 0.000 0.000 1.000 68.800 62.545 )">100.00mm, burn:0.10mm</text>
</g>
<g id="p-1" style="fill:none;stroke-linecap:round;stroke-linejoin:round;">
  <path d="M 67.700 34.845 C 67.700 34.921 67.678 34.996 67.637 35.061 C 67.595 35.125 67.536 35.177 67.466 35.208 C 67.396 35.240 67.319 35.251 67.243 35.240 C 67.167 35.230 67.096 35.197 67.038 35.147 C 66.980 35.097 66.938 35.031 66.916 34.957 C 66.895 34.884 66.895 34.805 66.916 34.732 C 66.938 34.658 66.980 34.592 67.038 34.542 C 67.096 34.492 67.167 34.460 67.243 34.449 C 67.319 34.438 67.396 34.449 67.466 34.481 C 67.536 34.513 67.595 34.564 67.637 34.628 C 67.678 34.693 67.700 34.768 67.700 34.845 Z" stroke="rgb(0,0,255)" stroke-width="0.20" />
  <path d="M 31.850 14.147 C 31.916 14.108 31.992 14.090 32.069 14.093 C 32.146 14.097 32.220 14.123 32.282 14.167 C 32.344 14.212 32.393 14.273 32.421 14.344 C 32.450 14.415 32.457 14.493 32.443 14.569 C 32.428 14.644 32.392 14.713 32.339 14.769 C 32.287 14.824 32.219 14.864 32.144 14.882 C 32.070 14.900 31.992 14.896 31.919 14.871 C 31.847 14.846 31.783 14.800 31.736 14.740 C 31.688 14.680 31.659 14.607 31.652 14.531 C 31.645 14.455 31.659 14.378 31.694 14.310 C 31.730 14.241 31.784 14.185 31.850 14.147 Z" stroke="rgb(0,0,255)" stroke-width="0.20" />
  <path d="M 31.850 55.543 C 31.784 55.504 31.730 55.448 31.694 55.379 C 31.659 55.311 31.645 55.234 31.652 55.158 C 31.659 55.082 31.688 55.009 31.736 54.949 C 31.783 54.889 31.847 54.843 31.919 54.818 C 31.992 54.793 32.070 54.789 32.144 54.807 C 32.219 54.825 32.287 54.865 32.339 54.920 C 32.392 54.976 32.428 55.045 32.443 55.120 C 32.457 55.196 32.450 55.274 32.421 55.345 C 32.393 55.416 32.344 55.477 32.282 55.522 C 32.220 55.566 32.146 55.592 32.069 55.596 C 31.992 55.599 31.916 55.581 31.850 55.543 Z" stroke="rgb(0,0,255)" stroke-width="0.20" />
  <path d="M 68.900 34.845 C 68.900 30.033 67.517 25.322 64.915 21.274 C 62.314 17.227 58.604 14.012 54.227 12.013 C 49.850 10.014 44.991 9.315 40.228 10.000 C 35.465 10.685 30.999 12.724 27.363 15.875 C 23.726 19.026 21.072 23.156 19.717 27.773 C 18.361 32.390 18.361 37.299 19.717 41.916 C 21.072 46.533 23.726 50.663 27.363 53.814 C 30.999 56.965 35.465 59.004 40.228 59.689 C 44.991 60.374 49.850 59.675 54.227 57.676 C 58.604 55.677 62.314 52.463 64.915 48.415 C 67.517 44.367 68.900 39.656 68.900 34.845 Z" stroke="rgb(0,0,0)" stroke-width="0.20" />
</g>
<g id="p-2" style="fill:none;stroke-linecap:round;stroke-linejoin:round;">
  <path d="M 119.400 34.845 C 119.400 34.921 119.378 34.996 119.337 35.061 C 119.295 35.125 119.236 35.177 119.166 35.208 C 119.096 35.240 119.019 35.251 118.943 35.240 C 118.867 35.230 118.796 35.197 118.738 35.147 C 118.680 35.097 118.638 35.031 118.616 34.957 C 118.595 34.884 118.595 34.805 118.616 34.732 C 118.638 34.658 118.680 34.592 118.738 34.542 C 118.796 34.492 118.867 34.460 118.943 34.449 C 119.019 34.438 119.096 34.449 119.166 34.481 C 119.236 34.513 119.295 34.564 119.337 34.628 C 119.378 34.693 119.400 34.768 119.400 34.845 Z" stroke="rgb(0,0,255)" stroke-width="0.20" />
  <path d="M 83.550 14.147 C 83.616 14.108 83.692 14.090 83.769 14.093 C 83.846 14.097 83.920 14.123 83.982 14.167 C 84.044 14.212 84.093 14.273 84.121 14.344 C 84.150 14.415 84.157 14.493 84.143 14.569 C 84.128 14.644 84.092 14.713 84.039 14.769 C 83.987 14.824 83.919 14.864 83.844 14.882 C 83.770 14.900 83.692 14.896 83.619 14.871 C 83.547 14.846 83.483 14.800 83.436 14.740 C 83.388 14.680 83.359 14.607 83.352 14.531 C 83.345 14.455 83.359 14.378 83.394 14.310 C 83.430 14.241 83.484 14.185 83.550 14.147 Z" stroke="rgb(0,0,255)" stroke-width="0.20" />
  <path d="M 83.550 55.543 C 83.484 55.504 83.430 55.448 83.394 55.379 C 83.359 55.311 83.345 55.234 83.352 55.158 C 83.359 55.082 83.388 55.009 83.436 54.949 C 83.483 54.889 83.547 54.843 83.619 54.818 C 83.692 54.793 83.770 54.789 83.844 54.807 C 83.919 54.825 83.987 54.865 84.039 54.920 C 84.092 54.976 84.128 55.045 84.143 55.120 C 84.157 55.196 84.150 55.274 84.121 55.345 C 84.093 55.416 84.044 55.477 83.982 55.522 C 83.920 55.566 83.846 55.592 83.769 55.596 C 83.692 55.599 83.616 55.581 83.550 55.543 Z" stroke="rgb(0,0,255)" stroke-width="0.20" />
  <path d="M 115.900 34.845 C 115.900 38.755 114.776 42.584 112.662 45.874 C 110.547 49.164 107.532 51.776 103.974 53.401 C 100.417 55.026 96.468 55.593 92.597 55.037 C 88.726 54.480 85.096 52.823 82.141 50.262 C 79.185 47.701 77.028 44.344 75.926 40.592 C 74.825 36.840 74.825 32.850 75.926 29.097 C 77.028 25.345 79.185 21.988 82.141 19.427 C 85.096 16.866 88.726 15.209 92.597 14.652 C 96.468 14.096 100.417 14.663 103.974 16.288 C 107.532 17.913 110.547 20.525 112.662 23.815 C 114.776 27.105 115.900 30.934 115.900 34.845 Z" stroke="rgb(0,0,255)" stroke-width="0.20" />
  <path d="M 120.600 34.845 C 120.600 30.033 119.217 25.322 116.615 21.274 C 114.014 17.227 110.304 14.012 105.927 12.013 C 101.550 10.014 96.691 9.315 91.928 10.000 C 87.165 10.685 82.699 12.724 79.063 15.875 C 75.426 19.026 72.772 23.156 71.417 27.773 C 70.061 32.390 70.061 37.299 71.417 41.916 C 72.772 46.533 75.426 50.663 79.063 53.814 C 82.699 56.965 87.165 59.004 91.928 59.689 C 96.691 60.374 101.550 59.675 105.927 57.676 C 110.304 55.677 114.014 52.463 116.615 48.415 C 119.217 44.367 120.600 39.656 120.600 34.845 Z" stroke="rgb(0,0,0)" stroke-width="0.20" />
</g>
<g id="p-3" style="fill:none;stroke-linecap:round;stroke-linejoin:round;">
  <path d="M 171.100 34.845 C 171.100 34.921 171.078 34.996 171.037 35.061 C 170.995 35.125 170.936 35.177 170.866 35.208 C 170.796 35.240 170.719 35.251 170.643 35.240 C 170.567 35.230 170.496 35.197 170.438 35.147 C 170.380 35.097 170.338 35.031 170.316 34.957 C 170.295 34.884 170.295 34.805 170.316 34.732 C 170.338 34.658 170.380 34.592 170.438 34.542 C 170.496 34.492 170.567 34.460 170.643 34.449 C 170.719 34.438 170.796 34.449 170.866 34.481 C 170.936 34.513 170.995 34.564 171.037 34.628 C 171.078 34.693 171.100 34.768 171.100 34.845 Z" stroke="rgb(0,0,255)" stroke-width="0.20" />
  <path d="M 135.250 14.147 C 135.316 14.108 135.392 14.090 135.469 14.093 C 135.546 14.097 135.620 14.123 135.682 14.167 C 135.744 14.212 135.793 14.273 135.821 14.344 C 135.850 14.415 135.857 14.493 135.843 14.569 C 135.828 14.644 135.792 14.713 135.739 14.769 C 135.687 14.824 135.619 14.864 135.544 14.882 C 135.470 14.900 135.392 14.896 135.319 14.871 C 135.247 14.846 135.183 14.800 135.136 14.740 C 135.088 14.680 135.059 14.607 135.052 14.531 C 135.045 14.455 135.059 14.378 135.094 14.310 C 135.130 14.241 135.184 14.185 135.250 14.147 Z" stroke="rgb(0,0,255)" stroke-width="0.20" />
  <path d="M 135.250 55.543 C 135.184 55.504 135.130 55.448 135.094 55.379 C 135.059 55.311 135.045 55.234 135.052 55.158 C 135.059 55.082 135.088 55.009 135.136 54.949 C 135.183 54.889 135.247 54.843 135.319 54.818 C 135.392 54.793 135.470 54.789 135.544 54.807 C 135.619 54.825 135.687 54.865 135.739 54.920 C 135.792 54.976 135.828 55.045 135.843 55.120 C 135.857 55.196 135.850 55.274 135.821 55.345 C 135.793 55.416 135.744 55.477 135.682 55.522 C 135.620 55.566 135.546 55.592 135.469 55.596 C 135.392 55.599 135.316 55.581 135.250 55.543 Z" stroke="rgb(0,0,255)" stroke-width="0.20" />
  <path d="M 166.450 34.845 C 166.450 34.921 166.428 34.996 166.387 35.061 C 166.345 35.125 166.286 35.177 166.216 35.208 C 166.146 35.240 166.069 35.251 165.993 35.240 C 165.917 35.230 165.846 35.197 165.788 35.147 C 165.730 35.097 165.688 35.031 165.666 34.957 C 165.645 34.884 165.645 34.805 165.666 34.732 C 165.688 34.658 165.730 34.592 165.788 34.542 C 165.846 34.492 165.917 34.460 165.993 34.449 C 166.069 34.438 166.146 34.449 166.216 34.481 C 166.286 34.513 166.345 34.564 166.387 34.628 C 166.428 34.693 166.450 34.768 166.450 34.845 Z" stroke="rgb(0,0,255)" stroke-width="0.20" />
  <path d="M 137.575 18.174 C 137.641 18.135 137.717 18.117 137.794 18.120 C 137.871 18.124 137.945 18.150 138.007 18.194 C 138.069 18.239 138.118 18.300 138.146 18.371 C 138.175 18.442 138.182 18.520 138.168 18.596 C 138.153 18.671 138.117 18.740 138.064 18.796 C 138.012 18.851 137.944 18.891 137.869 18.909 C 137.795 18.927 137.717 18.923 137.644 18.898 C 137.572 18.873 137.508 18.827 137.461 18.767 C 137.413 18.707 137.384 18.634 137.377 18.558 C 137.370 18.482 137.384 18.405 137.419 18.337 C 137.455 18.268 137.509 18.212 137.575 18.174 Z" stroke="rgb(0,0,255)" stroke-width="0.20" />
  <path d="M 137.575 51.516 C 137.509 51.477 137.455 51.421 137.419 51.352 C 137.384 51.284 137.370 51.207 137.377 51.131 C 137.384 51.055 137.413 50.982 137.461 50.922 C 137.508 50.862 137.572 50.816 137.644 50.791 C 137.717 50.766 137.795 50.762 137.869 50.780 C 137.944 50.798 138.012 50.838 138.064 50.893 C 138.117 50.949 138.153 51.018 138.168 51.093 C 138.182 51.169 138.175 51.247 138.146 51.318 C 138.118 51.389 138.069 51.450 138.007 51.495 C 137.945 51.539 137.871 51.565 137.794 51.569 C 137.717 51.572 137.641 51.554 137.575 51.516 Z" stroke="rgb(0,0,255)" stroke-width="0.20" />
  <path d="M 164.600 34.845 C 164.600 38.180 163.641 41.446 161.838 44.252 C 160.034 47.058 157.462 49.286 154.428 50.672 C 151.394 52.058 148.025 52.542 144.724 52.067 C 141.422 51.593 138.326 50.179 135.805 47.995 C 133.285 45.810 131.445 42.947 130.505 39.747 C 129.565 36.546 129.565 33.143 130.505 29.942 C 131.445 26.742 133.285 23.879 135.805 21.694 C 138.326 19.510 141.422 18.096 144.724 17.622 C 148.025 17.147 151.394 17.631 154.428 19.017 C 157.462 20.403 160.034 22.631 161.838 25.437 C 163.641 28.244 164.600 31.509 164.600 34.845 Z" stroke="rgb(0,0,255)" stroke-width="0.20" />
  <path d="M 167.700 34.845 C 167.700 37.703 167.099 40.530 165.936 43.142 C 165.914 43.192 165.937 43.252 165.987 43.274 L 167.357 43.884 C 167.307 43.862 167.284 43.803 167.307 43.752 C 166.684 45.150 165.917 46.479 165.017 47.717 C 165.050 47.672 165.112 47.662 165.157 47.695 L 163.944 46.813 C 163.899 46.781 163.836 46.791 163.804 46.835 C 162.124 49.148 159.976 51.082 157.500 52.511 C 157.452 52.539 157.436 52.600 157.463 52.648 L 158.213 53.947 C 158.186 53.899 158.202 53.838 158.250 53.810 C 156.925 54.576 155.523 55.200 154.067 55.673 C 154.120 55.656 154.176 55.684 154.193 55.737 L 153.730 54.310 C 153.713 54.258 153.656 54.229 153.604 54.246 C 150.885 55.129 148.011 55.432 145.168 55.133 C 145.113 55.127 145.063 55.167 145.058 55.222 L 144.901 56.714 C 144.907 56.659 144.956 56.619 145.011 56.625 C 143.489 56.465 141.988 56.146 140.533 55.673 C 140.585 55.690 140.614 55.746 140.597 55.799 L 141.060 54.372 C 141.077 54.320 141.049 54.263 140.996 54.246 C 138.277 53.363 135.774 51.918 133.650 50.005 C 133.609 49.968 133.545 49.971 133.509 50.012 L 132.505 51.127 C 132.542 51.086 132.605 51.082 132.646 51.119 C 131.509 50.095 130.482 48.955 129.583 47.717 C 129.615 47.762 129.605 47.824 129.560 47.857 L 130.774 46.975 C 130.819 46.943 130.829 46.880 130.796 46.835 C 129.116 44.522 127.940 41.882 127.346 39.086 C 127.334 39.032 127.281 38.997 127.227 39.009 L 125.760 39.321 C 125.814 39.309 125.867 39.344 125.879 39.398 C 125.560 37.901 125.400 36.375 125.400 34.845 C 125.400 34.900 125.355 34.945 125.300 34.945 H 126.800 C 126.855 34.945 126.900 34.900 126.900 34.845 C 126.900 31.986 127.501 29.159 128.664 26.547 C 128.686 26.497 128.663 26.438 128.613 26.415 L 127.243 25.805 C 127.293 25.827 127.316 25.887 127.293 25.937 C 127.916 24.539 128.683 23.210 129.583 21.972 C 129.550 22.017 129.488 22.027 129.443 21.994 L 130.656 22.876 C 130.701 22.908 130.764 22.898 130.796 22.854 C 132.476 20.541 134.624 18.607 137.100 17.178 C 137.148 17.150 137.164 17.089 137.137 17.041 L 136.387 15.742 C 136.414 15.790 136.398 15.851 136.350 15.879 C 137.675 15.113 139.077 14.489 140.533 14.016 C 140.480 14.033 140.424 14.005 140.407 13.952 L 140.870 15.379 C 140.887 15.431 140.944 15.460 140.996 15.443 C 143.715 14.560 146.589 14.257 149.432 14.556 C 149.487 14.562 149.537 14.522 149.542 14.467 L 149.699 12.975 C 149.693 13.030 149.644 13.070 149.589 13.064 C 151.111 13.224 152.612 13.543 154.067 14.016 C 154.015 13.999 153.986 13.943 154.003 13.890 L 153.540 15.317 C 153.523 15.369 153.551 15.426 153.604 15.443 C 156.323 16.326 158.826 17.771 160.950 19.684 C 160.991 19.721 161.055 19.718 161.091 19.677 L 162.095 18.562 C 162.058 18.603 161.995 18.607 161.954 18.570 C 163.091 19.594 164.118 20.734 165.017 21.972 C 164.985 21.927 164.995 21.865 165.040 21.832 L 163.826 22.714 C 163.781 22.746 163.771 22.809 163.804 22.854 C 165.484 25.167 166.660 27.807 167.254 30.603 C 167.266 30.657 167.319 30.692 167.373 30.680 L 168.840 30.368 C 168.786 30.380 168.733 30.345 168.721 30.291 C 169.040 31.788 169.200 33.314 169.200 34.845 C 169.200 34.789 169.245 34.745 169.300 34.745 H 167.800 C 167.745 34.745 167.700 34.789 167.700 34.845 Z M 167.850 34.845 C 167.850 36.280 167.699 37.713 167.401 39.117 C 167.389 39.171 167.424 39.224 167.478 39.236 L 168.945 39.548 C 168.891 39.536 168.857 39.483 168.868 39.429 C 168.226 42.452 166.955 45.305 165.139 47.805 C 165.171 47.761 165.234 47.751 165.279 47.783 L 164.065 46.901 C 164.020 46.869 163.958 46.879 163.925 46.924 C 163.081 48.085 162.118 49.155 161.051 50.116 C 161.010 50.153 161.006 50.216 161.043 50.257 L 162.047 51.372 C 162.010 51.331 162.013 51.268 162.054 51.231 C 159.758 53.299 157.053 54.860 154.114 55.815 C 154.166 55.798 154.223 55.827 154.240 55.880 L 153.776 54.453 C 153.759 54.400 153.703 54.372 153.650 54.389 C 152.285 54.832 150.876 55.132 149.448 55.282 C 149.393 55.288 149.353 55.337 149.359 55.392 L 149.516 56.884 C 149.510 56.829 149.550 56.779 149.605 56.774 C 146.532 57.097 143.425 56.770 140.486 55.815 C 140.539 55.832 140.567 55.889 140.550 55.941 L 141.014 54.515 C 141.031 54.462 141.002 54.406 140.950 54.389 C 139.584 53.945 138.269 53.359 137.025 52.641 C 136.977 52.614 136.916 52.630 136.888 52.678 L 136.138 53.977 C 136.166 53.929 136.227 53.913 136.275 53.940 C 133.599 52.395 131.277 50.305 129.461 47.805 C 129.494 47.850 129.484 47.912 129.439 47.945 L 130.653 47.063 C 130.697 47.031 130.707 46.968 130.675 46.924 C 129.831 45.762 129.111 44.515 128.527 43.203 C 128.504 43.153 128.445 43.130 128.395 43.152 L 127.024 43.762 C 127.075 43.740 127.134 43.763 127.156 43.813 C 125.899 40.990 125.250 37.935 125.250 34.845 C 125.250 34.900 125.205 34.945 125.150 34.945 H 126.650 C 126.705 34.945 126.750 34.900 126.750 34.845 C 126.750 33.409 126.901 31.977 127.199 30.572 C 127.211 30.518 127.176 30.465 127.122 30.453 L 125.655 30.141 C 125.709 30.153 125.743 30.206 125.732 30.260 C 126.374 27.238 127.645 24.384 129.461 21.884 C 129.429 21.929 129.366 21.938 129.321 21.906 L 130.535 22.788 C 130.580 22.820 130.642 22.810 130.675 22.766 C 131.519 21.604 132.482 20.534 133.549 19.573 C 133.590 19.536 133.594 19.473 133.557 19.432 L 132.553 18.317 C 132.590 18.358 132.587 18.421 132.546 18.458 C 134.842 16.391 137.547 14.829 140.486 13.874 C 140.434 13.891 140.377 13.862 140.360 13.810 L 140.824 15.236 C 140.841 15.289 140.897 15.317 140.950 15.300 C 142.315 14.857 143.724 14.557 145.152 14.407 C 145.207 14.401 145.247 14.352 145.241 14.297 L 145.084 12.805 C 145.090 12.860 145.050 12.910 144.995 12.915 C 148.068 12.592 151.175 12.919 154.114 13.874 C 154.061 13.857 154.033 13.800 154.050 13.748 L 153.586 15.174 C 153.569 15.227 153.598 15.283 153.650 15.300 C 155.016 15.744 156.331 16.330 157.575 17.048 C 157.623 17.075 157.684 17.059 157.712 17.011 L 158.462 15.712 C 158.434 15.760 158.373 15.776 158.325 15.749 C 161.001 17.294 163.323 19.384 165.139 21.884 C 165.106 21.839 165.116 21.777 165.161 21.744 L 163.947 22.626 C 163.903 22.658 163.893 22.721 163.925 22.766 C 164.769 23.927 165.489 25.174 166.073 26.486 C 166.096 26.537 166.155 26.559 166.205 26.537 L 167.576 25.927 C 167.525 25.949 167.466 25.926 167.444 25.876 C 168.701 28.699 169.350 31.754 169.350 34.845 C 169.350 34.789 169.395 34.745 169.450 34.745 H 167.950 C 167.895 34.745 167.850 34.789 167.850 34.845 Z M 172.300 34.845 C 172.300 30.033 170.917 25.322 168.315 21.274 C 165.714 17.227 162.004 14.012 157.627 12.013 C 153.250 10.014 148.391 9.315 143.628 10.000 C 138.865 10.685 134.399 12.724 130.763 15.875 C 127.126 19.026 124.472 23.156 123.117 27.773 C 121.761 32.390 121.761 37.299 123.117 41.916 C 124.472 46.533 127.126 50.663 130.763 53.814 C 134.399 56.965 138.865 59.004 143.628 59.689 C 148.391 60.374 153.250 59.675 157.627 57.676 C 162.004 55.677 165.714 52.463 168.315 48.415 C 170.917 44.367 172.300 39.656 172.300 34.845 Z" stroke="rgb(0,0,0)" stroke-width="0.20" />
</g>
<g id="p-4" style="fill:none;stroke-linecap:round;stroke-linejoin:round;">
  <path d="M 216.300 34.845 C 216.300 38.180 215.341 41.446 213.538 44.252 C 211.734 47.058 209.162 49.286 206.128 50.672 C 203.094 52.058 199.725 52.542 196.424 52.067 C 193.122 51.593 190.026 50.179 187.505 47.995 C 184.985 45.810 183.145 42.947 182.205 39.747 C 181.265 36.546 181.265 33.143 182.205 29.942 C 183.145 26.742 184.985 23.879 187.505 21.694 C 190.026 19.510 193.122 18.096 196.424 17.622 C 199.725 17.147 203.094 17.631 206.128 19.017 C 209.162 20.403 211.734 22.631 213.538 25.437 C 215.341 28.244 216.300 31.509 216.300 34.845 Z" stroke="rgb(0,0,255)" stroke-width="0.20" />
  <path d="M 219.300 34.845 C 219.300 38.755 218.176 42.584 216.062 45.874 C 213.947 49.164 210.932 51.776 207.374 53.401 C 203.817 55.026 199.868 55.593 195.997 55.037 C 192.126 54.480 188.496 52.823 185.541 50.262 C 182.585 47.701 180.428 44.344 179.326 40.592 C 178.225 36.840 178.225 32.850 179.326 29.097 C 180.428 25.345 182.585 21.988 185.541 19.427 C 188.496 16.866 192.126 15.209 195.997 14.652 C 199.868 14.096 203.817 14.663 207.374 16.288 C 210.932 17.913 213.947 20.525 216.062 23.815 C 218.176 27.105 219.300 30.934 219.300 34.845 Z" stroke="rgb(0,0,255)" stroke-width="0.20" />
  <path d="M 222.800 34.845 C 222.800 34.921 222.778 34.996 222.737 35.061 C 222.695 35.125 222.636 35.177 222.566 35.208 C 222.496 35.240 222.419 35.251 222.343 35.240 C 222.267 35.230 222.196 35.197 222.138 35.147 C 222.080 35.097 222.038 35.031 222.016 34.957 C 221.995 34.884 221.995 34.805 222.016 34.732 C 222.038 34.658 222.080 34.592 222.138 34.542 C 222.196 34.492 222.267 34.460 222.343 34.449 C 222.419 34.438 222.496 34.449 222.566 34.481 C 222.636 34.513 222.695 34.564 222.737 34.628 C 222.778 34.693 222.800 34.768 222.800 34.845 Z" stroke="rgb(0,0,255)" stroke-width="0.20" />
  <path d="M 218.150 34.845 C 218.150 34.921 218.128 34.996 218.087 35.061 C 218.045 35.125 217.986 35.177 217.916 35.208 C 217.846 35.240 217.769 35.251 217.693 35.240 C 217.617 35.230 217.546 35.197 217.488 35.147 C 217.430 35.097 217.388 35.031 217.366 34.957 C 217.345 34.884 217.345 34.805 217.366 34.732 C 217.388 34.658 217.430 34.592 217.488 34.542 C 217.546 34.492 217.617 34.460 217.693 34.449 C 217.769 34.438 217.846 34.449 217.916 34.481 C 217.986 34.513 218.045 34.564 218.087 34.628 C 218.128 34.693 218.150 34.768 218.150 34.845 Z" stroke="rgb(0,0,255)" stroke-width="0.20" />
  <path d="M 186.950 14.147 C 187.016 14.108 187.092 14.090 187.169 14.093 C 187.246 14.097 187.320 14.123 187.382 14.167 C 187.444 14.212 187.493 14.273 187.521 14.344 C 187.550 14.415 187.557 14.493 187.543 14.569 C 187.528 14.644 187.492 14.713 187.439 14.769 C 187.387 14.824 187.319 14.864 187.244 14.882 C 187.170 14.900 187.092 14.896 187.019 14.871 C 186.947 14.846 186.883 14.800 186.836 14.740 C 186.788 14.680 186.759 14.607 186.752 14.531 C 186.745 14.455 186.759 14.378 186.794 14.310 C 186.830 14.241 186.884 14.185 186.950 14.147 Z" stroke="rgb(0,0,255)" stroke-width="0.20" />
  <path d="M 189.275 18.174 C 189.341 18.135 189.417 18.117 189.494 18.120 C 189.571 18.124 189.645 18.150 189.707 18.194 C 189.769 18.239 189.818 18.300 189.846 18.371 C 189.875 18.442 189.882 18.520 189.868 18.596 C 189.853 18.671 189.817 18.740 189.764 18.796 C 189.712 18.851 189.644 18.891 189.569 18.909 C 189.495 18.927 189.417 18.923 189.344 18.898 C 189.272 18.873 189.208 18.827 189.161 18.767 C 189.113 18.707 189.084 18.634 189.077 18.558 C 189.070 18.482 189.084 18.405 189.119 18.337 C 189.155 18.268 189.209 18.212 189.275 18.174 Z" stroke="rgb(0,0,255)" stroke-width="0.20" />
  <path d="M 186.950 55.543 C 186.884 55.504 186.830 55.448 186.794 55.379 C 186.759 55.311 186.745 55.234 186.752 55.158 C 186.759 55.082 186.788 55.009 186.836 54.949 C 186.883 54.889 186.947 54.843 187.019 54.818 C 187.092 54.793 187.170 54.789 187.244 54.807 C 187.319 54.825 187.387 54.865 187.439 54.920 C 187.492 54.976 187.528 55.045 187.543 55.120 C 187.557 55.196 187.550 55.274 187.521 55.345 C 187.493 55.416 187.444 55.477 187.382 55.522 C 187.320 55.566 187.246 55.592 187.169 55.596 C 187.092 55.599 187.016 55.581 186.950 55.543 Z" stroke="rgb(0,0,255)" stroke-width="0.20" />
  <path d="M 189.275 51.516 C 189.209 51.477 189.155 51.421 189.119 51.352 C 189.084 51.284 189.070 51.207 189.077 51.131 C 189.084 51.055 189.113 50.982 189.161 50.922 C 189.208 50.862 189.272 50.816 189.344 50.791 C 189.417 50.766 189.495 50.762 189.569 50.780 C 189.644 50.798 189.712 50.838 189.764 50.893 C 189.817 50.949 189.853 51.018 189.868 51.093 C 189.882 51.169 189.875 51.247 189.846 51.318 C 189.818 51.389 189.769 51.450 189.707 51.495 C 189.645 51.539 189.571 51.565 189.494 51.569 C 189.417 51.572 189.341 51.554 189.275 51.516 Z" stroke="rgb(0,0,255)" stroke-width="0.20" />
  <path d="M 219.400 34.845 C 219.400 37.652 218.825 40.429 217.710 43.006 C 217.688 43.057 217.711 43.115 217.762 43.137 L 219.139 43.733 C 219.088 43.711 219.065 43.652 219.086 43.602 C 218.444 45.087 217.640 46.496 216.689 47.805 C 216.721 47.761 216.784 47.751 216.829 47.783 L 215.615 46.901 C 215.570 46.869 215.508 46.879 215.475 46.924 C 213.825 49.195 211.727 51.104 209.311 52.533 C 209.263 52.561 209.248 52.622 209.276 52.670 L 210.039 53.961 C 210.011 53.913 210.027 53.852 210.074 53.824 C 208.682 54.647 207.203 55.315 205.664 55.815 C 205.716 55.798 205.773 55.827 205.790 55.880 L 205.326 54.453 C 205.309 54.400 205.253 54.372 205.200 54.389 C 202.530 55.256 199.711 55.568 196.916 55.303 C 196.861 55.298 196.812 55.338 196.807 55.393 L 196.666 56.887 C 196.671 56.832 196.720 56.791 196.775 56.797 C 195.164 56.644 193.575 56.315 192.036 55.815 C 192.089 55.832 192.117 55.889 192.100 55.941 L 192.564 54.515 C 192.581 54.462 192.552 54.406 192.500 54.389 C 189.830 53.521 187.366 52.116 185.260 50.259 C 185.219 50.223 185.155 50.227 185.119 50.268 L 184.127 51.393 C 184.163 51.352 184.227 51.348 184.268 51.384 C 183.054 50.314 181.962 49.114 181.011 47.805 C 181.044 47.850 181.034 47.912 180.989 47.945 L 182.203 47.063 C 182.247 47.031 182.257 46.968 182.225 46.924 C 180.575 44.652 179.407 42.067 178.795 39.327 C 178.783 39.273 178.729 39.240 178.676 39.252 L 177.212 39.579 C 177.266 39.567 177.319 39.601 177.331 39.655 C 176.978 38.076 176.800 36.462 176.800 34.845 C 176.800 34.900 176.755 34.945 176.700 34.945 H 178.200 C 178.255 34.945 178.300 34.900 178.300 34.845 C 178.300 32.037 178.875 29.260 179.990 26.683 C 180.012 26.632 179.989 26.574 179.938 26.552 L 178.561 25.956 C 178.612 25.978 178.635 26.037 178.614 26.087 C 179.256 24.602 180.060 23.193 181.011 21.884 C 180.979 21.929 180.916 21.938 180.871 21.906 L 182.085 22.788 C 182.130 22.820 182.192 22.810 182.225 22.766 C 183.875 20.494 185.973 18.585 188.389 17.156 C 188.437 17.128 188.452 17.067 188.424 17.019 L 187.661 15.728 C 187.689 15.776 187.673 15.837 187.626 15.865 C 189.018 15.042 190.497 14.374 192.036 13.874 C 191.984 13.891 191.927 13.862 191.910 13.810 L 192.374 15.236 C 192.391 15.289 192.447 15.317 192.500 15.300 C 195.170 14.433 197.989 14.122 200.784 14.386 C 200.839 14.391 200.888 14.351 200.893 14.296 L 201.034 12.802 C 201.029 12.857 200.980 12.898 200.925 12.892 C 202.536 13.045 204.125 13.374 205.664 13.874 C 205.611 13.857 205.583 13.800 205.600 13.748 L 205.136 15.174 C 205.119 15.227 205.148 15.283 205.200 15.300 C 207.870 16.168 210.334 17.573 212.440 19.430 C 212.481 19.466 212.545 19.462 212.581 19.421 L 213.573 18.296 C 213.537 18.337 213.473 18.341 213.432 18.305 C 214.646 19.375 215.738 20.575 216.689 21.884 C 216.656 21.839 216.666 21.777 216.711 21.744 L 215.497 22.626 C 215.453 22.658 215.443 22.721 215.475 22.766 C 217.125 25.037 218.293 27.622 218.905 30.362 C 218.917 30.416 218.971 30.449 219.024 30.437 L 220.488 30.110 C 220.434 30.122 220.381 30.088 220.369 30.034 C 220.722 31.613 220.900 33.227 220.900 34.845 C 220.900 34.789 220.945 34.745 221.000 34.745 H 219.500 C 219.445 34.745 219.400 34.789 219.400 34.845 Z M 224.000 34.845 C 224.000 30.033 222.617 25.322 220.015 21.274 C 217.414 17.227 213.704 14.012 209.327 12.013 C 204.950 10.014 200.091 9.315 195.328 10.000 C 190.565 10.685 186.099 12.724 182.463 15.875 C 178.826 19.026 176.172 23.156 174.817 27.773 C 173.461 32.390 173.461 37.299 174.817 41.916 C 176.172 46.533 178.826 50.663 182.463 53.814 C 186.099 56.965 190.565 59.004 195.328 59.689 C 200.091 60.374 204.950 59.675 209.327 57.676 C 213.704 55.677 217.414 52.463 220.015 48.415 C 222.617 44.367 224.000 39.656 224.000 34.845 Z" stroke="rgb(0,0,0)" stroke-width="0.20" />
</g>
<g id="p-5" style="fill:none;stroke-linecap:round;stroke-linejoin:round;">
  <path d="M 269.850 34.845 C 269.850 34.921 269.828 34.996 269.787 35.061 C 269.745 35.125 269.686 35.177 269.616 35.208 C 269.546 35.240 269.469 35.251 269.393 35.240 C 269.317 35.230 269.246 35.197 269.188 35.147 C 269.130 35.097 269.088 35.031 269.066 34.957 C 269.045 34.884 269.045 34.805 269.066 34.732 C 269.088 34.658 269.130 34.592 269.188 34.542 C 269.246 34.492 269.317 34.460 269.393 34.449 C 269.469 34.438 269.546 34.449 269.616 34.481 C 269.686 34.513 269.745 34.564 269.787 34.628 C 269.828 34.693 269.850 34.768 269.850 34.845 Z" stroke="rgb(0,0,255)" stroke-width="0.20" />
  <path d="M 240.975 18.174 C 241.041 18.135 241.117 18.117 241.194 18.120 C 241.271 18.124 241.345 18.150 241.407 18.194 C 241.469 18.239 241.518 18.300 241.546 18.371 C 241.575 18.442 241.582 18.520 241.568 18.596 C 241.553 18.671 241.517 18.740 241.464 18.796 C 241.412 18.851 241.344 18.891 241.269 18.909 C 241.195 18.927 241.117 18.923 241.044 18.898 C 240.972 18.873 240.908 18.827 240.861 18.767 C 240.813 18.707 240.784 18.634 240.777 18.558 C 240.770 18.482 240.784 18.405 240.819 18.337 C 240.855 18.268 240.909 18.212 240.975 18.174 Z" stroke="rgb(0,0,255)" stroke-width="0.20" />
  <path d="M 240.975 51.516 C 240.909 51.477 240.855 51.421 240.819 51.352 C 240.784 51.284 240.770 51.207 240.777 51.131 C 240.784 51.055 240.813 50.982 240.861 50.922 C 240.908 50.862 240.972 50.816 241.044 50.791 C 241.117 50.766 241.195 50.762 241.269 50.780 C 241.344 50.798 241.412 50.838 241.464 50.893 C 241.517 50.949 241.553 51.018 241.568 51.093 C 241.582 51.169 241.575 51.247 241.546 51.318 C 241.518 51.389 241.469 51.450 241.407 51.495 C 241.345 51.539 241.271 51.565 241.194 51.569 C 241.117 51.572 241.041 51.554 240.975 51.516 Z" stroke="rgb(0,0,255)" stroke-width="0.20" />
  <path d="M 275.700 34.845 C 275.700 30.033 274.317 25.322 271.715 21.274 C 269.114 17.227 265.404 14.012 261.027 12.013 C 256.650 10.014 251.791 9.315 247.028 10.000 C 242.265 10.685 237.799 12.724 234.163 15.875 C 230.526 19.026 227.872 23.156 226.517 27.773 C 225.161 32.390 225.161 37.299 226.517 41.916 C 227.872 46.533 230.526 50.663 234.163 53.814 C 237.799 56.965 242.265 59.004 247.028 59.689 C 251.791 60.374 256.650 59.675 261.027 57.676 C 265.404 55.677 269.114 52.463 271.715 48.415 C 274.317 44.367 275.700 39.656 275.700 34.845 Z" stroke="rgb(0,0,0)" stroke-width="0.20" />
</g>
</svg>