<?xml version='1.0' encoding='utf-8'?>
<svg height="101.90mm" viewBox="0.0 0.0 178.70 101.90" width="178.70mm" xmlns="http://www.w3.org/2000/svg" xmlns:cc="http://creativecommons.org/ns#" xmlns:dc="http://purl.org/dc/elements/1.1/" xmlns:inkscape="http://www.inkscape.org/namespaces/inkscape" xmlns:rdf="http://www.w3.org/1999/02/22-rdf-syntax-ns#" xmlns:svg="http://www.w3.org/2000/svg" xmlns:xlink="http://www.w3.org/1999/xlink">
<!--
BeeQueenCage - Cage box to house a bee queen


Cage box to house a bee queen.
The default opening on top is suitable for a Nicot queen-rearing cell cup block (CNE2) or a cork plug.
This makes the cage suitable as a hatching cage.

Holes can be configured per side. The default value of 3.0mm is suitable as air holes, but this can be changed to
produce queen excluders (4.2mm) or drone excluders (5.2mm). Some space should be left closed to provide cover for
the young queen against aggressive worker bees.

If required a plug can be added to close the top opening.
By default it contains a inner cutout to fit a Nicot cell cup (CNE3) making it a wooden alternative to the
plastic Nicot cell cup block (CNE2).



Created with Boxes.py (https://boxes.hackerspace-bamberg.de/)
Command line (remove spaces between dashes): boxes BeeQueenCage
-->
<title>BeeQueenCage</title>
<metadata>
<rdf:RDF><cc:Work>
<dc:title>Beekeeping - BeeQueenCage</dc:title>
<dc:source>boxes BeeQueenCage</dc:source>
<dc:description>Cage box to house a bee queen

Cage box to house a bee queen.
The default opening on top is suitable for a Nicot queen-rearing cell cup block (CNE2) or a cork plug.
This makes the cage suitable as a hatching cage.

Holes can be configured per side. The default value of 3.0mm is suitable as air holes, but this can be changed to
produce queen excluders (4.2mm) or drone excluders (5.2mm). Some space should be left closed to provide cover for
the young queen against aggressive worker bees.

If required a plug can be added to close the top opening.
By default it contains a inner cutout to fit a Nicot cell cup (CNE3) making it a wooden alternative to the
plastic Nicot cell cup block (CNE2).


Created with Boxes.py (https://boxes.hackerspace-bamberg.de/)
Command line: boxes BeeQueenCage
Command line short: boxes BeeQueenCage
</dc:description>
</cc:Work></rdf:RDF></metadata>
<g id="p-0" style="fill:none;stroke-linecap:round;stroke-linejoin:round;">
  <path d="M 10.100 91.900 H 110.100 V 81.900 H 10.100 V 91.900 Z" stroke="rgb(0,0,0)" stroke-width="0.20" />
  <text dominant-baseline="hanging" font-size="6px" style="font-family: sans-serif ; font-weight: normal; font-style: normal; fill: rgb(255,0,0)" text-anchor="middle" transform="matrix( 1.000 0.000 0.000 1.000 60.100 83.900 )">100.0mm, burn:0.10mm</text>
</g>
<g id="p-1" style="fill:none;stroke-linecap:round;stroke-linejoin:round;">
  <path d="M 22.600 53.250 H 18.100 C 17.942 53.250 17.787 53.208 17.650 53.129 C 17.513 53.050 17.400 52.937 17.321 52.800 C 17.242 52.663 17.200 52.508 17.200 52.350 V 51.350 C 17.200 51.192 17.242 51.037 17.321 50.900 C 17.400 50.763 17.513 50.650 17.650 50.571 C 17.787 50.492 17.942 50.450 18.100 50.450 H 27.100 C 27.258 50.450 27.413 50.492 27.550 50.571 C 27.687 50.650 27.800 50.763 27.879 50.900 C 27.958 51.037 28.000 51.192 28.000 51.350 V 52.350 C 28.000 52.508 27.958 52.663 27.879 52.800 C 27.800 52.937 27.687 53.050 27.550 53.129 C 27.413 53.208 27.258 53.250 27.100 53.250 H 22.600 Z" stroke="rgb(0,0,255)" stroke-width="0.20" />
  <path d="M 22.600 48.750 H 18.100 C 17.942 48.750 17.787 48.708 17.650 48.629 C 17.513 48.550 17.400 48.437 17.321 48.300 C 17.242 48.163 17.200 48.008 17.200 47.850 V 46.850 C 17.200 46.692 17.242 46.537 17.321 46.400 C 17.400 46.263 17.513 46.150 17.650 46.071 C 17.787 45.992 17.942 45.950 18.100 45.950 H 27.100 C 27.258 45.950 27.413 45.992 27.550 46.071 C 27.687 46.150 27.800 46.263 27.879 46.400 C 27.958 46.537 28.000 46.692 28.000 46.850 V 47.850 C 28.000 48.008 27.958 48.163 27.879 48.300 C 27.800 48.437 27.687 48.550 27.550 48.629 C 27.413 48.708 27.258 48.750 27.100 48.750 H 22.600 Z" stroke="rgb(0,0,255)" stroke-width="0.20" />
  <path d="M 22.600 44.250 H 18.100 C 17.942 44.250 17.787 44.208 17.650 44.129 C 17.513 44.050 17.400 43.937 17.321 43.800 C 17.242 43.663 17.200 43.508 17.200 43.350 V 42.350 C 17.200 42.192 17.242 42.037 17.321 41.900 C 17.400 41.763 17.513 41.650 17.650 41.571 C 17.787 41.492 17.942 41.450 18.100 41.450 H 27.100 C 27.258 41.450 27.413 41.492 27.550 41.571 C 27.687 41.650 27.800 41.763 27.879 41.900 C 27.958 42.037 28.000 42.192 28.000 42.350 V 43.350 C 28.000 43.508 27.958 43.663 27.879 43.800 C 27.800 43.937 27.687 44.050 27.550 44.129 C 27.413 44.208 27.258 44.250 27.100 44.250 H 22.600 Z" stroke="rgb(0,0,255)" stroke-width="0.20" />
  <path d="M 22.600 39.750 H 18.100 C 17.942 39.750 17.787 39.708 17.650 39.629 C 17.513 39.550 17.400 39.437 17.321 39.300 C 17.242 39.163 17.200 39.008 17.200 38.850 V 37.850 C 17.200 37.692 17.242 37.537 17.321 37.400 C 17.400 37.263 17.513 37.150 17.650 37.071 C 17.787 36.992 17.942 36.950 18.100 36.950 H 27.100 C 27.258 36.950 27.413 36.992 27.550 37.071 C 27.687 37.150 27.800 37.263 27.879 37.400 C 27.958 37.537 28.000 37.692 28.000 37.850 V 38.850 C 28.000 39.008 27.958 39.163 27.879 39.300 C 27.800 39.437 27.687 39.550 27.550 39.629 C 27.413 39.708 27.258 39.750 27.100 39.750 H 22.600 Z" stroke="rgb(0,0,255)" stroke-width="0.20" />
  <path d="M 22.600 35.250 H 18.100 C 17.942 35.250 17.787 35.208 17.650 35.129 C 17.513 35.050 17.400 34.937 17.321 34.800 C 17.242 34.663 17.200 34.508 17.200 34.350 V 33.350 C 17.200 33.192 17.242 33.037 17.321 32.900 C 17.400 32.763 17.513 32.650 17.650 32.571 C 17.787 32.492 17.942 32.450 18.100 32.450 H 27.100 C 27.258 32.450 27.413 32.492 27.550 32.571 C 27.687 32.650 27.800 32.763 27.879 32.900 C 27.958 33.037 28.000 33.192 28.000 33.350 V 34.350 C 28.000 34.508 27.958 34.663 27.879 34.800 C 27.800 34.937 27.687 35.050 27.550 35.129 C 27.413 35.208 27.258 35.250 27.100 35.250 H 22.600 Z" stroke="rgb(0,0,255)" stroke-width="0.20" />
  <path d="M 22.600 30.750 H 18.100 C 17.942 30.750 17.787 30.708 17.650 30.629 C 17.513 30.550 17.400 30.437 17.321 30.300 C 17.242 30.163 17.200 30.008 17.200 29.850 V 28.850 C 17.200 28.692 17.242 28.537 17.321 28.400 C 17.400 28.263 17.513 28.150 17.650 28.071 C 17.787 27.992 17.942 27.950 18.100 27.950 H 27.100 C 27.258 27.950 27.413 27.992 27.550 28.071 C 27.687 28.150 27.800 28.263 27.879 28.400 C 27.958 28.537 28.000 28.692 28.000 28.850 V 29.850 C 28.000 30.008 27.958 30.163 27.879 30.300 C 27.800 30.437 27.687 30.550 27.550 30.629 C 27.413 30.708 27.258 30.750 27.100 30.750 H 22.600 Z" stroke="rgb(0,0,255)" stroke-width="0.20" />
  <path d="M 22.600 26.250 H 18.100 C 17.942 26.250 17.787 26.208 17.650 26.129 C 17.513 26.050 17.400 25.937 17.321 25.800 C 17.242 25.663 17.200 25.508 17.200 25.350 V 24.350 C 17.200 24.192 17.242 24.037 17.321 23.900 C 17.400 23.763 17.513 23.650 17.650 23.571 C 17.787 23.492 17.942 23.450 18.100 23.450 H 27.100 C 27.258 23.450 27.413 23.492 27.550 23.571 C 27.687 23.650 27.800 23.763 27.879 23.900 C 27.958 24.037 28.000 24.192 28.000 24.350 V 25.350 C 28.000 25.508 27.958 25.663 27.879 25.800 C 27.800 25.937 27.687 26.050 27.550 26.129 C 27.413 26.208 27.258 26.250 27.100 26.250 H 22.600 Z" stroke="rgb(0,0,255)" stroke-width="0.20" />
  <path d="M 22.600 21.750 H 18.100 C 17.942 21.750 17.787 21.708 17.650 21.629 C 17.513 21.550 17.400 21.437 17.321 21.300 C 17.242 21.163 17.200 21.008 17.200 20.850 V 19.850 C 17.200 19.692 17.242 19.537 17.321 19.400 C 17.400 19.263 17.513 19.150 17.650 19.071 C 17.787 18.992 17.942 18.950 18.100 18.950 H 27.100 C 27.258 18.950 27.413 18.992 27.550 19.071 C 27.687 19.150 27.800 19.263 27.879 19.400 C 27.958 19.537 28.000 19.692 28.000 19.850 V 20.850 C 28.000 21.008 27.958 21.163 27.879 21.300 C 27.800 21.437 27.687 21.550 27.550 21.629 C 27.413 21.708 27.258 21.750 27.100 21.750 H 22.600 Z" stroke="rgb(0,0,255)" stroke-width="0.20" />
  <path d="M 13.100 80.200 H 19.600 C 19.655 80.200 19.700 80.155 19.700 80.100 V 77.200 C 19.700 77.100 19.600 77.200 19.700 77.200 H 25.500 C 25.600 77.200 25.500 77.100 25.500 77.200 V 80.100 C 25.500 80.155 25.545 80.200 25.600 80.200 H 32.100 H 35.100 C 35.155 80.200 35.200 80.155 35.200 80.100 V 77.100 V 66.100 C 35.200 66.045 35.155 66.000 35.100 66.000 H 32.200 C 32.100 66.000 32.200 66.100 32.200 66.000 V 60.200 C 32.200 60.100 32.100 60.200 32.200 60.200 H 35.100 C 35.155 60.200 35.200 60.155 35.200 60.100 V 54.100 C 35.200 54.045 35.155 54.000 35.100 54.000 H 32.200 C 32.100 54.000 32.200 54.100 32.200 54.000 V 48.200 C 32.200 48.100 32.100 48.200 32.200 48.200 H 35.100 C 35.155 48.200 35.200 48.155 35.200 48.100 V 42.100 C 35.200 42.045 35.155 42.000 35.100 42.000 H 32.200 C 32.100 42.000 32.200 42.100 32.200 42.000 V 36.200 C 32.200 36.100 32.100 36.200 32.200 36.200 H 35.100 C 35.155 36.200 35.200 36.155 35.200 36.100 V 30.100 C 35.200 30.045 35.155 30.000 35.100 30.000 H 32.200 C 32.100 30.000 32.200 30.100 32.200 30.000 V 24.200 C 32.200 24.100 32.100 24.200 32.200 24.200 H 35.100 C 35.155 24.200 35.200 24.155 35.200 24.100 V 13.100 V 10.100 C 35.200 10.045 35.155 10.000 35.100 10.000 H 32.100 H 25.600 C 25.545 10.000 25.500 10.045 25.500 10.100 V 13.000 C 25.500 13.100 25.600 13.000 25.500 13.000 H 19.700 C 19.600 13.000 19.700 13.100 19.700 13.000 V 10.100 C 19.700 10.045 19.655 10.000 19.600 10.000 H 13.100 H 10.100 C 10.045 10.000 10.000 10.045 10.000 10.100 V 13.100 V 24.100 C 10.000 24.155 10.045 24.200 10.100 24.200 H 13.000 C 13.100 24.200 13.000 24.100 13.000 24.200 V 30.000 C 13.000 30.100 13.100 30.000 13.000 30.000 H 10.100 C 10.045 30.000 10.000 30.045 10.000 30.100 V 36.100 C 10.000 36.155 10.045 36.200 10.100 36.200 H 13.000 C 13.100 36.200 13.000 36.100 13.000 36.200 V 42.000 C 13.000 42.100 13.100 42.000 13.000 42.000 H 10.100 C 10.045 42.000 10.000 42.045 10.000 42.100 V 48.100 C 10.000 48.155 10.045 48.200 10.100 48.200 H 13.000 C 13.100 48.200 13.000 48.100 13.000 48.200 V 54.000 C 13.000 54.100 13.100 54.000 13.000 54.000 H 10.100 C 10.045 54.000 10.000 54.045 10.000 54.100 V 60.100 C 10.000 60.155 10.045 60.200 10.100 60.200 H 13.000 C 13.100 60.200 13.000 60.100 13.000 60.200 V 66.000 C 13.000 66.100 13.100 66.000 13.000 66.000 H 10.100 C 10.045 66.000 10.000 66.045 10.000 66.100 V 77.100 V 80.100 C 10.000 80.155 10.045 80.200 10.100 80.200 H 13.100 Z" stroke="rgb(0,0,0)" stroke-width="0.20" />
  <text dominant-baseline="hanging" font-size="4px" style="font-family: sans-serif ; font-weight: normal; font-style: normal; fill: rgb(255,0,0)" text-anchor="middle" transform="matrix( 1.000 0.000 0.000 1.000 22.600 43.200 )">Front</text>
</g>
<g id="p-2" style="fill:none;stroke-linecap:round;stroke-linejoin:round;">
  <path d="M 49.300 53.250 H 44.800 C 44.642 53.250 44.487 53.208 44.350 53.129 C 44.213 53.050 44.100 52.937 44.021 52.800 C 43.942 52.663 43.900 52.508 43.900 52.350 V 51.350 C 43.900 51.192 43.942 51.037 44.021 50.900 C 44.100 50.763 44.213 50.650 44.350 50.571 C 44.487 50.492 44.642 50.450 44.800 50.450 H 53.800 C 53.958 50.450 54.113 50.492 54.250 50.571 C 54.387 50.650 54.500 50.763 54.579 50.900 C 54.658 51.037 54.700 51.192 54.700 51.350 V 52.350 C 54.700 52.508 54.658 52.663 54.579 52.800 C 54.500 52.937 54.387 53.050 54.250 53.129 C 54.113 53.208 53.958 53.250 53.800 53.250 H 49.300 Z" stroke="rgb(0,0,255)" stroke-width="0.20" />
  <path d="M 49.300 48.750 H 44.800 C 44.642 48.750 44.487 48.708 44.350 48.629 C 44.213 48.550 44.100 48.437 44.021 48.300 C 43.942 48.163 43.900 48.008 43.900 47.850 V 46.850 C 43.900 46.692 43.942 46.537 44.021 46.400 C 44.100 46.263 44.213 46.150 44.350 46.071 C 44.487 45.992 44.642 45.950 44.800 45.950 H 53.800 C 53.958 45.950 54.113 45.992 54.250 46.071 C 54.387 46.150 54.500 46.263 54.579 46.400 C 54.658 46.537 54.700 46.692 54.700 46.850 V 47.850 C 54.700 48.008 54.658 48.163 54.579 48.300 C 54.500 48.437 54.387 48.550 54.250 48.629 C 54.113 48.708 53.958 48.750 53.800 48.750 H 49.300 Z" stroke="rgb(0,0,255)" stroke-width="0.20" />
  <path d="M 49.300 44.250 H 44.800 C 44.642 44.250 44.487 44.208 44.350 44.129 C 44.213 44.050 44.100 43.937 44.021 43.800 C 43.942 43.663 43.900 43.508 43.900 43.350 V 42.350 C 43.900 42.192 43.942 42.037 44.021 41.900 C 44.100 41.763 44.213 41.650 44.350 41.571 C 44.487 41.492 44.642 41.450 44.800 41.450 H 53.800 C 53.958 41.450 54.113 41.492 54.250 41.571 C 54.387 41.650 54.500 41.763 54.579 41.900 C 54.658 42.037 54.700 42.192 54.700 42.350 V 43.350 C 54.700 43.508 54.658 43.663 54.579 43.800 C 54.500 43.937 54.387 44.050 54.250 44.129 C 54.113 44.208 53.958 44.250 53.800 44.250 H 49.300 Z" stroke="rgb(0,0,255)" stroke-width="0.20" />
  <path d="M 49.300 39.750 H 44.800 C 44.642 39.750 44.487 39.708 44.350 39.629 C 44.213 39.550 44.100 39.437 44.021 39.300 C 43.942 39.163 43.900 39.008 43.900 38.850 V 37.850 C 43.900 37.692 43.942 37.537 44.021 37.400 C 44.100 37.263 44.213 37.150 44.350 37.071 C 44.487 36.992 44.642 36.950 44.800 36.950 H 53.800 C 53.958 36.950 54.113 36.992 54.250 37.071 C 54.387 37.150 54.500 37.263 54.579 37.400 C 54.658 37.537 54.700 37.692 54.700 37.850 V 38.850 C 54.700 39.008 54.658 39.163 54.579 39.300 C 54.500 39.437 54.387 39.550 54.250 39.629 C 54.113 39.708 53.958 39.750 53.800 39.750 H 49.300 Z" stroke="rgb(0,0,255)" stroke-width="0.20" />
  <path d="M 49.300 35.250 H 44.800 C 44.642 35.250 44.487 35.208 44.350 35.129 C 44.213 35.050 44.100 34.937 44.021 34.800 C 43.942 34.663 43.900 34.508 43.900 34.350 V 33.350 C 43.900 33.192 43.942 33.037 44.021 32.900 C 44.100 32.763 44.213 32.650 44.350 32.571 C 44.487 32.492 44.642 32.450 44.800 32.450 H 53.800 C 53.958 32.450 54.113 32.492 54.250 32.571 C 54.387 32.650 54.500 32.763 54.579 32.900 C 54.658 33.037 54.700 33.192 54.700 33.350 V 34.350 C 54.700 34.508 54.658 34.663 54.579 34.800 C 54.500 34.937 54.387 35.050 54.250 35.129 C 54.113 35.208 53.958 35.250 53.800 35.250 H 49.300 Z" stroke="rgb(0,0,255)" stroke-width="0.20" />
  <path d="M 49.300 30.750 H 44.800 C 44.642 30.750 44.487 30.708 44.350 30.629 C 44.213 30.550 44.100 30.437 44.021 30.300 C 43.942 30.163 43.900 30.008 43.900 29.850 V 28.850 C 43.900 28.692 43.942 28.537 44.021 28.400 C 44.100 28.263 44.213 28.150 44.350 28.071 C 44.487 27.992 44.642 27.950 44.800 27.950 H 53.800 C 53.958 27.950 54.113 27.992 54.250 28.071 C 54.387 28.150 54.500 28.263 54.579 28.400 C 54.658 28.537 54.700 28.692 54.700 28.850 V 29.850 C 54.700 30.008 54.658 30.163 54.579 30.300 C 54.500 30.437 54.387 30.550 54.250 30.629 C 54.113 30.708 53.958 30.750 53.800 30.750 H 49.300 Z" stroke="rgb(0,0,255)" stroke-width="0.20" />
  <path d="M 49.300 26.250 H 44.800 C 44.642 26.250 44.487 26.208 44.350 26.129 C 44.213 26.050 44.100 25.937 44.021 25.800 C 43.942 25.663 43.900 25.508 43.900 25.350 V 24.350 C 43.900 24.192 43.942 24.037 44.021 23.900 C 44.100 23.763 44.213 23.650 44.350 23.571 C 44.487 23.492 44.642 23.450 44.800 23.450 H 53.800 C 53.958 23.450 54.113 23.492 54.250 23.571 C 54.387 23.650 54.500 23.763 54.579 23.900 C 54.658 24.037 54.700 24.192 54.700 24.350 V 25.350 C 54.700 25.508 54.658 25.663 54.579 25.800 C 54.500 25.937 54.387 26.050 54.250 26.129 C 54.113 26.208 53.958 26.250 53.800 26.250 H 49.300 Z" stroke="rgb(0,0,255)" stroke-width="0.20" />
  <path d="M 49.300 21.750 H 44.800 C 44.642 21.750 44.487 21.708 44.350 21.629 C 44.213 21.550 44.100 21.437 44.021 21.300 C 43.942 21.163 43.900 21.008 43.900 20.850 V 19.850 C 43.900 19.692 43.942 19.537 44.021 19.400 C 44.100 19.263 44.213 19.150 44.350 19.071 C 44.487 18.992 44.642 18.950 44.800 18.950 H 53.800 C 53.958 18.950 54.113 18.992 54.250 19.071 C 54.387 19.150 54.500 19.263 54.579 19.400 C 54.658 19.537 54.700 19.692 54.700 19.850 V 20.850 C 54.700 21.008 54.658 21.163 54.579 21.300 C 54.500 21.437 54.387 21.550 54.250 21.629 C 54.113 21.708 53.958 21.750 53.800 21.750 H 49.300 Z" stroke="rgb(0,0,255)" stroke-width="0.20" />
  <path d="M 39.800 80.200 H 46.300 C 46.355 80.200 46.400 80.155 46.400 80.100 V 77.200 C 46.400 77.100 46.300 77.200 46.400 77.200 H 52.200 C 52.300 77.200 52.200 77.100 52.200 77.200 V 80.100 C 52.200 80.155 52.245 80.200 52.300 80.200 H 58.800 H 61.800 C 61.855 80.200 61.900 80.155 61.900 80.100 V 77.100 V 66.100 C 61.900 66.045 61.855 66.000 61.800 66.000 H 58.900 C 58.800 66.000 58.900 66.100 58.900 66.000 V 60.200 C 58.900 60.100 58.800 60.200 58.900 60.200 H 61.800 C 61.855 60.200 61.900 60.155 61.900 60.100 V 54.100 C 61.900 54.045 61.855 54.000 61.800 54.000 H 58.900 C 58.800 54.000 58.900 54.100 58.900 54.000 V 48.200 C 58.900 48.100 58.800 48.200 58.900 48.200 H 61.800 C 61.855 48.200 61.900 48.155 61.900 48.100 V 42.100 C 61.900 42.045 61.855 42.000 61.800 42.000 H 58.900 C 58.800 42.000 58.900 42.100 58.900 42.000 V 36.200 C 58.900 36.100 58.800 36.200 58.900 36.200 H 61.800 C 61.855 36.200 61.900 36.155 61.900 36.100 V 30.100 C 61.900 30.045 61.855 30.000 61.800 30.000 H 58.900 C 58.800 30.000 58.900 30.100 58.900 30.000 V 24.200 C 58.900 24.100 58.800 24.200 58.900 24.200 H 61.800 C 61.855 24.200 61.900 24.155 61.900 24.100 V 13.100 V 10.100 C 61.900 10.045 61.855 10.000 61.800 10.000 H 58.800 H 52.300 C 52.245 10.000 52.200 10.045 52.200 10.100 V 13.000 C 52.200 13.100 52.300 13.000 52.200 13.000 H 46.400 C 46.300 13.000 46.400 13.100 46.400 13.000 V 10.100 C 46.400 10.045 46.355 10.000 46.300 10.000 H 39.800 H 36.800 C 36.745 10.000 36.700 10.045 36.700 10.100 V 13.100 V 24.100 C 36.700 24.155 36.745 24.200 36.800 24.200 H 39.700 C 39.800 24.200 39.700 24.100 39.700 24.200 V 30.000 C 39.700 30.100 39.800 30.000 39.700 30.000 H 36.800 C 36.745 30.000 36.700 30.045 36.700 30.100 V 36.100 C 36.700 36.155 36.745 36.200 36.800 36.200 H 39.700 C 39.800 36.200 39.700 36.100 39.700 36.200 V 42.000 C 39.700 42.100 39.800 42.000 39.700 42.000 H 36.800 C 36.745 42.000 36.700 42.045 36.700 42.100 V 48.100 C 36.700 48.155 36.745 48.200 36.800 48.200 H 39.700 C 39.800 48.200 39.700 48.100 39.700 48.200 V 54.000 C 39.700 54.100 39.800 54.000 39.700 54.000 H 36.800 C 36.745 54.000 36.700 54.045 36.700 54.100 V 60.100 C 36.700 60.155 36.745 60.200 36.800 60.200 H 39.700 C 39.800 60.200 39.700 60.100 39.700 60.200 V 66.000 C 39.700 66.100 39.800 66.000 39.700 66.000 H 36.800 C 36.745 66.000 36.700 66.045 36.700 66.100 V 77.100 V 80.100 C 36.700 80.155 36.745 80.200 36.800 80.200 H 39.800 Z" stroke="rgb(0,0,0)" stroke-width="0.20" />
  <text dominant-baseline="hanging" font-size="4px" style="font-family: sans-serif ; font-weight: normal; font-style: normal; fill: rgb(255,0,0)" text-anchor="middle" transform="matrix( 1.000 0.000 0.000 1.000 49.300 43.200 )">Back</text>
</g>
<g id="p-3" style="fill:none;stroke-linecap:round;stroke-linejoin:round;">
  <path d="M 76.000 53.250 H 71.500 C 71.342 53.250 71.187 53.208 71.050 53.129 C 70.913 53.050 70.800 52.937 70.721 52.800 C 70.642 52.663 70.600 52.508 70.600 52.350 V 51.350 C 70.600 51.192 70.642 51.037 70.721 50.900 C 70.800 50.763 70.913 50.650 71.050 50.571 C 71.187 50.492 71.342 50.450 71.500 50.450 H 80.500 C 80.658 50.450 80.813 50.492 80.950 50.571 C 81.087 50.650 81.200 50.763 81.279 50.900 C 81.358 51.037 81.400 51.192 81.400 51.350 V 52.350 C 81.400 52.508 81.358 52.663 81.279 52.800 C 81.200 52.937 81.087 53.050 80.950 53.129 C 80.813 53.208 80.658 53.250 80.500 53.250 H 76.000 Z" stroke="rgb(0,0,255)" stroke-width="0.20" />
  <path d="M 76.000 48.750 H 71.500 C 71.342 48.750 71.187 48.708 71.050 48.629 C 70.913 48.550 70.800 48.437 70.721 48.300 C 70.642 48.163 70.600 48.008 70.600 47.850 V 46.850 C 70.600 46.692 70.642 46.537 70.721 46.400 C 70.800 46.263 70.913 46.150 71.050 46.071 C 71.187 45.992 71.342 45.950 71.500 45.950 H 80.500 C 80.658 45.950 80.813 45.992 80.950 46.071 C 81.087 46.150 81.200 46.263 81.279 46.400 C 81.358 46.537 81.400 46.692 81.400 46.850 V 47.850 C 81.400 48.008 81.358 48.163 81.279 48.300 C 81.200 48.437 81.087 48.550 80.950 48.629 C 80.813 48.708 80.658 48.750 80.500 48.750 H 76.000 Z" stroke="rgb(0,0,255)" stroke-width="0.20" />
  <path d="M 76.000 44.250 H 71.500 C 71.342 44.250 71.187 44.208 71.050 44.129 C 70.913 44.050 70.800 43.937 70.721 43.800 C 70.642 43.663 70.600 43.508 70.600 43.350 V 42.350 C 70.600 42.192 70.642 42.037 70.721 41.900 C 70.800 41.763 70.913 41.650 71.050 41.571 C 71.187 41.492 71.342 41.450 71.500 41.450 H 80.500 C 80.658 41.450 80.813 41.492 80.950 41.571 C 81.087 41.650 81.200 41.763 81.279 41.900 C 81.358 42.037 81.400 42.192 81.400 42.350 V 43.350 C 81.400 43.508 81.358 43.663 81.279 43.800 C 81.200 43.937 81.087 44.050 80.950 44.129 C 80.813 44.208 80.658 44.250 80.500 44.250 H 76.000 Z" stroke="rgb(0,0,255)" stroke-width="0.20" />
  <path d="M 76.000 39.750 H 71.500 C 71.342 39.750 71.187 39.708 71.050 39.629 C 70.913 39.550 70.800 39.437 70.721 39.300 C 70.642 39.163 70.600 39.008 70.600 38.850 V 37.850 C 70.600 37.692 70.642 37.537 70.721 37.400 C 70.800 37.263 70.913 37.150 71.050 37.071 C 71.187 36.992 71.342 36.950 71.500 36.950 H 80.500 C 80.658 36.950 80.813 36.992 80.950 37.071 C 81.087 37.150 81.200 37.263 81.279 37.400 C 81.358 37.537 81.400 37.692 81.400 37.850 V 38.850 C 81.400 39.008 81.358 39.163 81.279 39.300 C 81.200 39.437 81.087 39.550 80.950 39.629 C 80.813 39.708 80.658 39.750 80.500 39.750 H 76.000 Z" stroke="rgb(0,0,255)" stroke-width="0.20" />
  <path d="M 76.000 35.250 H 71.500 C 71.342 35.250 71.187 35.208 71.050 35.129 C 70.913 35.050 70.800 34.937 70.721 34.800 C 70.642 34.663 70.600 34.508 70.600 34.350 V 33.350 C 70.600 33.192 70.642 33.037 70.721 32.900 C 70.800 32.763 70.913 32.650 71.050 32.571 C 71.187 32.492 71.342 32.450 71.500 32.450 H 80.500 C 80.658 32.450 80.813 32.492 80.950 32.571 C 81.087 32.650 81.200 32.763 81.279 32.900 C 81.358 33.037 81.400 33.192 81.400 33.350 V 34.350 C 81.400 34.508 81.358 34.663 81.279 34.800 C 81.200 34.937 81.087 35.050 80.950 35.129 C 80.813 35.208 80.658 35.250 80.500 35.250 H 76.000 Z" stroke="rgb(0,0,255)" stroke-width="0.20" />
  <path d="M 76.000 30.750 H 71.500 C 71.342 30.750 71.187 30.708 71.050 30.629 C 70.913 30.550 70.800 30.437 70.721 30.300 C 70.642 30.163 70.600 30.008 70.600 29.850 V 28.850 C 70.600 28.692 70.642 28.537 70.721 28.400 C 70.800 28.263 70.913 28.150 71.050 28.071 C 71.187 27.992 71.342 27.950 71.500 27.950 H 80.500 C 80.658 27.950 80.813 27.992 80.950 28.071 C 81.087 28.150 81.200 28.263 81.279 28.400 C 81.358 28.537 81.400 28.692 81.400 28.850 V 29.850 C 81.400 30.008 81.358 30.163 81.279 30.300 C 81.200 30.437 81.087 30.550 80.950 30.629 C 80.813 30.708 80.658 30.750 80.500 30.750 H 76.000 Z" stroke="rgb(0,0,255)" stroke-width="0.20" />
  <path d="M 76.000 26.250 H 71.500 C 71.342 26.250 71.187 26.208 71.050 26.129 C 70.913 26.050 70.800 25.937 70.721 25.800 C 70.642 25.663 70.600 25.508 70.600 25.350 V 24.350 C 70.600 24.192 70.642 24.037 70.721 23.900 C 70.800 23.763 70.913 23.650 71.050 23.571 C 71.187 23.492 71.342 23.450 71.500 23.450 H 80.500 C 80.658 23.450 80.813 23.492 80.950 23.571 C 81.087 23.650 81.200 23.763 81.279 23.900 C 81.358 24.037 81.400 24.192 81.400 24.350 V 25.350 C 81.400 25.508 81.358 25.663 81.279 25.800 C 81.200 25.937 81.087 26.050 80.950 26.129 C 80.813 26.208 80.658 26.250 80.500 26.250 H 76.000 Z" stroke="rgb(0,0,255)" stroke-width="0.20" />
  <path d="M 76.000 21.750 H 71.500 C 71.342 21.750 71.187 21.708 71.050 21.629 C 70.913 21.550 70.800 21.437 70.721 21.300 C 70.642 21.163 70.600 21.008 70.600 20.850 V 19.850 C 70.600 19.692 70.642 19.537 70.721 19.400 C 70.800 19.263 70.913 19.150 71.050 19.071 C 71.187 18.992 71.342 18.950 71.500 18.950 H 80.500 C 80.658 18.950 80.813 18.992 80.950 19.071 C 81.087 19.150 81.200 19.263 81.279 19.400 C 81.358 19.537 81.400 19.692 81.400 19.850 V 20.850 C 81.400 21.008 81.358 21.163 81.279 21.300 C 81.200 21.437 81.087 21.550 80.950 21.629 C 80.813 21.708 80.658 21.750 80.500 21.750 H 76.000 Z" stroke="rgb(0,0,255)" stroke-width="0.20" />
  <path d="M 66.500 80.200 H 73.000 C 73.055 80.200 73.100 80.155 73.100 80.100 V 77.200 C 73.100 77.100 73.000 77.200 73.100 77.200 H 78.900 C 79.000 77.200 78.900 77.100 78.900 77.200 V 80.100 C 78.900 80.155 78.945 80.200 79.000 80.200 H 85.500 C 85.555 80.200 85.600 80.155 85.600 80.100 V 77.100 V 66.200 C 85.600 66.100 85.500 66.200 85.600 66.200 H 88.500 C 88.555 66.200 88.600 66.155 88.600 66.100 V 60.100 C 88.600 60.045 88.555 60.000 88.500 60.000 H 85.600 C 85.500 60.000 85.600 60.100 85.600 60.000 V 54.200 C 85.600 54.100 85.500 54.200 85.600 54.200 H 88.500 C 88.555 54.200 88.600 54.155 88.600 54.100 V 48.100 C 88.600 48.045 88.555 48.000 88.500 48.000 H 85.600 C 85.500 48.000 85.600 48.100 85.600 48.000 V 42.200 C 85.600 42.100 85.500 42.200 85.600 42.200 H 88.500 C 88.555 42.200 88.600 42.155 88.600 42.100 V 36.100 C 88.600 36.045 88.555 36.000 88.500 36.000 H 85.600 C 85.500 36.000 85.600 36.100 85.600 36.000 V 30.200 C 85.600 30.100 85.500 30.200 85.600 30.200 H 88.500 C 88.555 30.200 88.600 30.155 88.600 30.100 V 24.100 C 88.600 24.045 88.555 24.000 88.500 24.000 H 85.600 C 85.500 24.000 85.600 24.100 85.600 24.000 V 13.100 V 10.100 C 85.600 10.045 85.555 10.000 85.500 10.000 H 79.000 C 78.945 10.000 78.900 10.045 78.900 10.100 V 13.000 C 78.900 13.100 79.000 13.000 78.900 13.000 H 73.100 C 73.000 13.000 73.100 13.100 73.100 13.000 V 10.100 C 73.100 10.045 73.055 10.000 73.000 10.000 H 66.500 C 66.445 10.000 66.400 10.045 66.400 10.100 V 13.100 V 24.000 C 66.400 24.100 66.500 24.000 66.400 24.000 H 63.500 C 63.445 24.000 63.400 24.045 63.400 24.100 V 30.100 C 63.400 30.155 63.445 30.200 63.500 30.200 H 66.400 C 66.500 30.200 66.400 30.100 66.400 30.200 V 36.000 C 66.400 36.100 66.500 36.000 66.400 36.000 H 63.500 C 63.445 36.000 63.400 36.045 63.400 36.100 V 42.100 C 63.400 42.155 63.445 42.200 63.500 42.200 H 66.400 C 66.500 42.200 66.400 42.100 66.400 42.200 V 48.000 C 66.400 48.100 66.500 48.000 66.400 48.000 H 63.500 C 63.445 48.000 63.400 48.045 63.400 48.100 V 54.100 C 63.400 54.155 63.445 54.200 63.500 54.200 H 66.400 C 66.500 54.200 66.400 54.100 66.400 54.200 V 60.000 C 66.400 60.100 66.500 60.000 66.400 60.000 H 63.500 C 63.445 60.000 63.400 60.045 63.400 60.100 V 66.100 C 63.400 66.155 63.445 66.200 63.500 66.200 H 66.400 C 66.500 66.200 66.400 66.100 66.400 66.200 V 77.100 V 80.100 C 66.400 80.155 66.445 80.200 66.500 80.200 Z" stroke="rgb(0,0,0)" stroke-width="0.20" />
  <text dominant-baseline="hanging" font-size="4px" style="font-family: sans-serif ; font-weight: normal; font-style: normal; fill: rgb(255,0,0)" text-anchor="middle" transform="matrix( 1.000 0.000 0.000 1.000 76.000 43.200 )">Left</text>
</g>
<g id="p-4" style="fill:none;stroke-linecap:round;stroke-linejoin:round;">
  <path d="M 102.700 53.250 H 98.200 C 98.042 53.250 97.887 53.208 97.750 53.129 C 97.613 53.050 97.500 52.937 97.421 52.800 C 97.342 52.663 97.300 52.508 97.300 52.350 V 51.350 C 97.300 51.192 97.342 51.037 97.421 50.900 C 97.500 50.763 97.613 50.650 97.750 50.571 C 97.887 50.492 98.042 50.450 98.200 50.450 H 107.200 C 107.358 50.450 107.513 50.492 107.650 50.571 C 107.787 50.650 107.900 50.763 107.979 50.900 C 108.058 51.037 108.100 51.192 108.100 51.350 V 52.350 C 108.100 52.508 108.058 52.663 107.979 52.800 C 107.900 52.937 107.787 53.050 107.650 53.129 C 107.513 53.208 107.358 53.250 107.200 53.250 H 102.700 Z" stroke="rgb(0,0,255)" stroke-width="0.20" />
  <path d="M 102.700 48.750 H 98.200 C 98.042 48.750 97.887 48.708 97.750 48.629 C 97.613 48.550 97.500 48.437 97.421 48.300 C 97.342 48.163 97.300 48.008 97.300 47.850 V 46.850 C 97.300 46.692 97.342 46.537 97.421 46.400 C 97.500 46.263 97.613 46.150 97.750 46.071 C 97.887 45.992 98.042 45.950 98.200 45.950 H 107.200 C 107.358 45.950 107.513 45.992 107.650 46.071 C 107.787 46.150 107.900 46.263 107.979 46.400 C 108.058 46.537 108.100 46.692 108.100 46.850 V 47.850 C 108.100 48.008 108.058 48.163 107.979 48.300 C 107.900 48.437 107.787 48.550 107.650 48.629 C 107.513 48.708 107.358 48.750 107.200 48.750 H 102.700 Z" stroke="rgb(0,0,255)" stroke-width="0.20" />
  <path d="M 102.700 44.250 H 98.200 C 98.042 44.250 97.887 44.208 97.750 44.129 C 97.613 44.050 97.500 43.937 97.421 43.800 C 97.342 43.663 97.300 43.508 97.300 43.350 V 42.350 C 97.300 42.192 97.342 42.037 97.421 41.900 C 97.500 41.763 97.613 41.650 97.750 41.571 C 97.887 41.492 98.042 41.450 98.200 41.450 H 107.200 C 107.358 41.450 107.513 41.492 107.650 41.571 C 107.787 41.650 107.900 41.763 107.979 41.900 C 108.058 42.037 108.100 42.192 108.100 42.350 V 43.350 C 108.100 43.508 108.058 43.663 107.979 43.800 C 107.900 43.937 107.787 44.050 107.650 44.129 C 107.513 44.208 107.358 44.250 107.200 44.250 H 102.700 Z" stroke="rgb(0,0,255)" stroke-width="0.20" />
  <path d="M 102.700 39.750 H 98.200 C 98.042 39.750 97.887 39.708 97.750 39.629 C 97.613 39.550 97.500 39.437 97.421 39.300 C 97.342 39.163 97.300 39.008 97.300 38.850 V 37.850 C 97.300 37.692 97.342 37.537 97.421 37.400 C 97.500 37.263 97.613 37.150 97.750 37.071 C 97.887 36.992 98.042 36.950 98.200 36.950 H 107.200 C 107.358 36.950 107.513 36.992 107.650 37.071 C 107.787 37.150 107.900 37.263 107.979 37.400 C 108.058 37.537 108.100 37.692 108.100 37.850 V 38.850 C 108.100 39.008 108.058 39.163 107.979 39.300 C 107.900 39.437 107.787 39.550 107.650 39.629 C 107.513 39.708 107.358 39.750 107.200 39.750 H 102.700 Z" stroke="rgb(0,0,255)" stroke-width="0.20" />
  <path d="M 102.700 35.250 H 98.200 C 98.042 35.250 97.887 35.208 97.750 35.129 C 97.613 35.050 97.500 34.937 97.421 34.800 C 97.342 34.663 97.300 34.508 97.300 34.350 V 33.350 C 97.300 33.192 97.342 33.037 97.421 32.900 C 97.500 32.763 97.613 32.650 97.750 32.571 C 97.887 32.492 98.042 32.450 98.200 32.450 H 107.200 C 107.358 32.450 107.513 32.492 107.650 32.571 C 107.787 32.650 107.900 32.763 107.979 32.900 C 108.058 33.037 108.100 33.192 108.100 33.350 V 34.350 C 108.100 34.508 108.058 34.663 107.979 34.800 C 107.900 34.937 107.787 35.050 107.650 35.129 C 107.513 35.208 107.358 35.250 107.200 35.250 H 102.700 Z" stroke="rgb(0,0,255)" stroke-width="0.20" />
  <path d="M 102.700 30.750 H 98.200 C 98.042 30.750 97.887 30.708 97.750 30.629 C 97.613 30.550 97.500 30.437 97.421 30.300 C 97.342 30.163 97.300 30.008 97.300 29.850 V 28.850 C 97.300 28.692 97.342 28.537 97.421 28.400 C 97.500 28.263 97.613 28.150 97.750 28.071 C 97.887 27.992 98.042 27.950 98.200 27.950 H 107.200 C 107.358 27.950 107.513 27.992 107.650 28.071 C 107.787 28.150 107.900 28.263 107.979 28.400 C 108.058 28.537 108.100 28.692 108.100 28.850 V 29.850 C 108.100 30.008 108.058 30.163 107.979 30.300 C 107.900 30.437 107.787 30.550 107.650 30.629 C 107.513 30.708 107.358 30.750 107.200 30.750 H 102.700 Z" stroke="rgb(0,0,255)" stroke-width="0.20" />
  <path d="M 102.700 26.250 H 98.200 C 98.042 26.250 97.887 26.208 97.750 26.129 C 97.613 26.050 97.500 25.937 97.421 25.800 C 97.342 25.663 97.300 25.508 97.300 25.350 V 24.350 C 97.300 24.192 97.342 24.037 97.421 23.900 C 97.500 23.763 97.613 23.650 97.750 23.571 C 97.887 23.492 98.042 23.450 98.200 23.450 H 107.200 C 107.358 23.450 107.513 23.492 107.650 23.571 C 107.787 23.650 107.900 23.763 107.979 23.900 C 108.058 24.037 108.100 24.192 108.100 24.350 V 25.350 C 108.100 25.508 108.058 25.663 107.979 25.800 C 107.900 25.937 107.787 26.050 107.650 26.129 C 107.513 26.208 107.358 26.250 107.200 26.250 H 102.700 Z" stroke="rgb(0,0,255)" stroke-width="0.20" />
  <path d="M 102.700 21.750 H 98.200 C 98.042 21.750 97.887 21.708 97.750 21.629 C 97.613 21.550 97.500 21.437 97.421 21.300 C 97.342 21.163 97.300 21.008 97.300 20.850 V 19.850 C 97.300 19.692 97.342 19.537 97.421 19.400 C 97.500 19.263 97.613 19.150 97.750 19.071 C 97.887 18.992 98.042 18.950 98.200 18.950 H 107.200 C 107.358 18.950 107.513 18.992 107.650 19.071 C 107.787 19.150 107.900 19.263 107.979 19.400 C 108.058 19.537 108.100 19.692 108.100 19.850 V 20.850 C 108.100 21.008 108.058 21.163 107.979 21.300 C 107.900 21.437 107.787 21.550 107.650 21.629 C 107.513 21.708 107.358 21.750 107.200 21.750 H 102.700 Z" stroke="rgb(0,0,255)" stroke-width="0.20" />
  <path d="M 93.200 80.200 H 99.700 C 99.755 80.200 99.800 80.155 99.800 80.100 V 77.200 C 99.800 77.100 99.700 77.200 99.800 77.200 H 105.600 C 105.700 77.200 105.600 77.100 105.600 77.200 V 80.100 C 105.600 80.155 105.645 80.200 105.700 80.200 H 112.200 C 112.255 80.200 112.300 80.155 112.300 80.100 V 77.100 V 66.200 C 112.300 66.100 112.200 66.200 112.300 66.200 H 115.200 C 115.255 66.200 115.300 66.155 115.300 66.100 V 60.100 C 115.300 60.045 115.255 60.000 115.200 60.000 H 112.300 C 112.200 60.000 112.300 60.100 112.300 60.000 V 54.200 C 112.300 54.100 112.200 54.200 112.300 54.200 H 115.200 C 115.255 54.200 115.300 54.155 115.300 54.100 V 48.100 C 115.300 48.045 115.255 48.000 115.200 48.000 H 112.300 C 112.200 48.000 112.300 48.100 112.300 48.000 V 42.200 C 112.300 42.100 112.200 42.200 112.300 42.200 H 115.200 C 115.255 42.200 115.300 42.155 115.300 42.100 V 36.100 C 115.300 36.045 115.255 36.000 115.200 36.000 H 112.300 C 112.200 36.000 112.300 36.100 112.300 36.000 V 30.200 C 112.300 30.100 112.200 30.200 112.300 30.200 H 115.200 C 115.255 30.200 115.300 30.155 115.300 30.100 V 24.100 C 115.300 24.045 115.255 24.000 115.200 24.000 H 112.300 C 112.200 24.000 112.300 24.100 112.300 24.000 V 13.100 V 10.100 C 112.300 10.045 112.255 10.000 112.200 10.000 H 105.700 C 105.645 10.000 105.600 10.045 105.600 10.100 V 13.000 C 105.600 13.100 105.700 13.000 105.600 13.000 H 99.800 C 99.700 13.000 99.800 13.100 99.800 13.000 V 10.100 C 99.800 10.045 99.755 10.000 99.700 10.000 H 93.200 C 93.145 10.000 93.100 10.045 93.100 10.100 V 13.100 V 24.000 C 93.100 24.100 93.200 24.000 93.100 24.000 H 90.200 C 90.145 24.000 90.100 24.045 90.100 24.100 V 30.100 C 90.100 30.155 90.145 30.200 90.200 30.200 H 93.100 C 93.200 30.200 93.100 30.100 93.100 30.200 V 36.000 C 93.100 36.100 93.200 36.000 93.100 36.000 H 90.200 C 90.145 36.000 90.100 36.045 90.100 36.100 V 42.100 C 90.100 42.155 90.145 42.200 90.200 42.200 H 93.100 C 93.200 42.200 93.100 42.100 93.100 42.200 V 48.000 C 93.100 48.100 93.200 48.000 93.100 48.000 H 90.200 C 90.145 48.000 90.100 48.045 90.100 48.100 V 54.100 C 90.100 54.155 90.145 54.200 90.200 54.200 H 93.100 C 93.200 54.200 93.100 54.100 93.100 54.200 V 60.000 C 93.100 60.100 93.200 60.000 93.100 60.000 H 90.200 C 90.145 60.000 90.100 60.045 90.100 60.100 V 66.100 C 90.100 66.155 90.145 66.200 90.200 66.200 H 93.100 C 93.200 66.200 93.100 66.100 93.100 66.200 V 77.100 V 80.100 C 93.100 80.155 93.145 80.200 93.200 80.200 Z" stroke="rgb(0,0,0)" stroke-width="0.20" />
  <text dominant-baseline="hanging" font-size="4px" style="font-family: sans-serif ; font-weight: normal; font-style: normal; fill: rgb(255,0,0)" text-anchor="middle" transform="matrix( 1.000 0.000 0.000 1.000 102.700 43.200 )">Right</text>
</g>
<g id="p-5" style="fill:none;stroke-linecap:round;stroke-linejoin:round;">
  <path d="M 137.800 67.600 C 137.800 69.210 137.337 70.787 136.467 72.141 C 135.596 73.496 134.354 74.572 132.889 75.241 C 131.425 75.910 129.798 76.144 128.205 75.915 C 126.611 75.685 125.116 75.003 123.899 73.948 C 122.682 72.894 121.794 71.512 121.340 69.967 C 120.887 68.421 120.887 66.779 121.340 65.233 C 121.794 63.688 122.682 62.306 123.899 61.252 C 125.116 60.197 126.611 59.515 128.205 59.285 C 129.798 59.056 131.425 59.290 132.889 59.959 C 134.354 60.628 135.596 61.704 136.467 63.059 C 137.337 64.413 137.800 65.990 137.800 67.600 Z" stroke="rgb(0,0,255)" stroke-width="0.20" />
  <path d="M 119.900 77.200 H 126.300 C 126.400 77.200 126.300 77.100 126.300 77.200 V 80.100 C 126.300 80.155 126.345 80.200 126.400 80.200 H 132.400 C 132.455 80.200 132.500 80.155 132.500 80.100 V 77.200 C 132.500 77.100 132.400 77.200 132.500 77.200 H 138.900 C 138.955 77.200 139.000 77.155 139.000 77.100 V 70.700 C 139.000 70.600 138.900 70.700 139.000 70.700 H 141.900 C 141.955 70.700 142.000 70.655 142.000 70.600 V 64.600 C 142.000 64.545 141.955 64.500 141.900 64.500 H 139.000 C 138.900 64.500 139.000 64.600 139.000 64.500 V 58.100 C 139.000 58.045 138.955 58.000 138.900 58.000 H 132.500 C 132.400 58.000 132.500 58.100 132.500 58.000 V 55.100 C 132.500 55.045 132.455 55.000 132.400 55.000 H 126.400 C 126.345 55.000 126.300 55.045 126.300 55.100 V 58.000 C 126.300 58.100 126.400 58.000 126.300 58.000 H 119.900 C 119.845 58.000 119.800 58.045 119.800 58.100 V 64.500 C 119.800 64.600 119.900 64.500 119.800 64.500 H 116.900 C 116.845 64.500 116.800 64.545 116.800 64.600 V 70.600 C 116.800 70.655 116.845 70.700 116.900 70.700 H 119.800 C 119.900 70.700 119.800 70.600 119.800 70.700 V 77.100 C 119.800 77.155 119.845 77.200 119.900 77.200 Z" stroke="rgb(0,0,0)" stroke-width="0.20" />
  <text dominant-baseline="hanging" font-size="4px" style="font-family: sans-serif ; font-weight: normal; font-style: normal; fill: rgb(255,0,0)" text-anchor="middle" transform="matrix( 1.000 0.000 0.000 1.000 129.400 65.700 )">Top</text>
</g>
<g id="p-6" style="fill:none;stroke-linecap:round;stroke-linejoin:round;">
  <path d="M 119.900 50.500 H 126.300 C 126.400 50.500 126.300 50.400 126.300 50.500 V 53.400 C 126.300 53.455 126.345 53.500 126.400 53.500 H 132.400 C 132.455 53.500 132.500 53.455 132.500 53.400 V 50.500 C 132.500 50.400 132.400 50.500 132.500 50.500 H 138.900 C 138.955 50.500 139.000 50.455 139.000 50.400 V 44.000 C 139.000 43.900 138.900 44.000 139.000 44.000 H 141.900 C 141.955 44.000 142.000 43.955 142.000 43.900 V 37.900 C 142.000 37.845 141.955 37.800 141.900 37.800 H 139.000 C 138.900 37.800 139.000 37.900 139.000 37.800 V 31.400 C 139.000 31.345 138.955 31.300 138.900 31.300 H 132.500 C 132.400 31.300 132.500 31.400 132.500 31.300 V 28.400 C 132.500 28.345 132.455 28.300 132.400 28.300 H 126.400 C 126.345 28.300 126.300 28.345 126.300 28.400 V 31.300 C 126.300 31.400 126.400 31.300 126.300 31.300 H 119.900 C 119.845 31.300 119.800 31.345 119.800 31.400 V 37.800 C 119.800 37.900 119.900 37.800 119.800 37.800 H 116.900 C 116.845 37.800 116.800 37.845 116.800 37.900 V 43.900 C 116.800 43.955 116.845 44.000 116.900 44.000 H 119.800 C 119.900 44.000 119.800 43.900 119.800 44.000 V 50.400 C 119.800 50.455 119.845 50.500 119.900 50.500 Z" stroke="rgb(0,0,0)" stroke-width="0.20" />
  <text dominant-baseline="hanging" font-size="4px" style="font-family: sans-serif ; font-weight: normal; font-style: normal; fill: rgb(255,0,0)" text-anchor="middle" transform="matrix( 1.000 0.000 0.000 1.000 129.400 39.000 )">Bottom</text>
</g>
<g id="p-7" style="fill:none;stroke-linecap:round;stroke-linejoin:round;">
  <path d="M 164.500 67.700 C 164.500 69.310 164.037 70.887 163.167 72.241 C 162.296 73.596 161.054 74.672 159.589 75.341 C 158.125 76.010 156.498 76.244 154.905 76.015 C 153.311 75.785 151.816 75.103 150.599 74.048 C 149.382 72.994 148.494 71.612 148.040 70.067 C 147.587 68.521 147.587 66.879 148.040 65.333 C 148.494 63.788 149.382 62.406 150.599 61.352 C 151.816 60.297 153.311 59.615 154.905 59.385 C 156.498 59.156 158.125 59.390 159.589 60.059 C 161.054 60.728 162.296 61.804 163.167 63.159 C 164.037 64.513 164.500 66.090 164.500 67.700 Z" stroke="rgb(0,255,0)" stroke-width="0.20" />
  <path d="M 168.700 67.700 C 168.700 65.285 168.006 62.920 166.700 60.888 C 165.394 58.856 163.531 57.242 161.334 56.239 C 159.137 55.235 156.698 54.884 154.307 55.228 C 151.916 55.572 149.674 56.596 147.849 58.178 C 146.023 59.759 144.691 61.833 144.010 64.150 C 143.330 66.468 143.330 68.932 144.010 71.250 C 144.691 73.567 146.023 75.641 147.849 77.222 C 149.674 78.804 151.916 79.828 154.307 80.172 C 156.698 80.516 159.137 80.165 161.334 79.161 C 163.531 78.158 165.394 76.544 166.700 74.512 C 168.006 72.480 168.700 70.115 168.700 67.700 Z" stroke="rgb(0,0,0)" stroke-width="0.20" />
  <text dominant-baseline="hanging" font-size="4px" style="font-family: sans-serif ; font-weight: normal; font-style: normal; fill: rgb(255,0,0)" text-anchor="middle" transform="matrix( 1.000 0.000 0.000 1.000 156.100 68.500 )">Top</text>
  <text dominant-baseline="hanging" font-size="4px" style="font-family: sans-serif ; font-weight: normal; font-style: normal; fill: rgb(255,0,0)" text-anchor="middle" transform="matrix( 1.000 0.000 0.000 1.000 156.100 62.900 )">Plug</text>
</g>
<g id="p-8" style="fill:none;stroke-linecap:round;stroke-linejoin:round;">
  <path d="M 156.825 45.000 C 156.825 45.906 156.565 46.793 156.075 47.555 C 155.585 48.317 154.887 48.922 154.063 49.298 C 153.239 49.674 152.324 49.806 151.428 49.677 C 150.531 49.548 149.690 49.164 149.006 48.571 C 148.321 47.978 147.822 47.200 147.566 46.331 C 147.311 45.462 147.311 44.538 147.566 43.669 C 147.822 42.800 148.321 42.022 149.006 41.429 C 149.690 40.836 150.531 40.452 151.428 40.323 C 152.324 40.194 153.239 40.326 154.063 40.702 C 154.887 41.078 155.585 41.683 156.075 42.445 C 156.565 43.207 156.825 44.094 156.825 45.000 Z" stroke="rgb(0,0,255)" stroke-width="0.20" />
  <path d="M 160.700 45.000 C 160.700 43.351 160.226 41.737 159.335 40.350 C 158.443 38.964 157.172 37.862 155.673 37.177 C 154.173 36.492 152.508 36.253 150.876 36.488 C 149.244 36.722 147.714 37.421 146.468 38.501 C 145.222 39.580 144.313 40.995 143.848 42.577 C 143.384 44.159 143.384 45.841 143.848 47.423 C 144.313 49.005 145.222 50.420 146.468 51.499 C 147.714 52.579 149.244 53.278 150.876 53.512 C 152.508 53.747 154.173 53.508 155.673 52.823 C 157.172 52.138 158.443 51.036 159.335 49.650 C 160.226 48.263 160.700 46.649 160.700 45.000 Z" stroke="rgb(0,0,0)" stroke-width="0.20" />
  <text dominant-baseline="hanging" font-size="4px" style="font-family: sans-serif ; font-weight: normal; font-style: normal; fill: rgb(255,0,0)" text-anchor="middle" transform="matrix( 1.000 0.000 0.000 1.000 152.100 45.800 )">Bottom</text>
  <text dominant-baseline="hanging" font-size="4px" style="font-family: sans-serif ; font-weight: normal; font-style: normal; fill: rgb(255,0,0)" text-anchor="middle" transform="matrix( 1.000 0.000 0.000 1.000 152.100 40.200 )">Plug</text>
</g>
</svg>