<?xml version='1.0' encoding='utf-8'?>
<svg height="353.33mm" viewBox="0.0 0.0 525.93 353.33" width="525.93mm" xmlns="http://www.w3.org/2000/svg" xmlns:cc="http://creativecommons.org/ns#" xmlns:dc="http://purl.org/dc/elements/1.1/" xmlns:inkscape="http://www.inkscape.org/namespaces/inkscape" xmlns:rdf="http://www.w3.org/1999/02/22-rdf-syntax-ns#" xmlns:svg="http://www.w3.org/2000/svg" xmlns:xlink="http://www.w3.org/1999/xlink">
<!--
BookHolder - Angled display stand for books, ring files, flyers, postcards, or business cards.



Smaller versions for postcards (with a small ledge) and for business cards:

![BookHolder minis (front)](static/samples/BookHolder-minis.jpg)

![BookHolder minis (side)](static/samples/BookHolder-minis-side.jpg)

BookHolder with default parameters (A4 size, landscape, back_support):

![BookHolder (back)](static/samples/BookHolder-back.jpg)



Created with Boxes.py (https://boxes.hackerspace-bamberg.de/)
Command line (remove spaces between dashes): boxes BookHolder
-->
<title>BookHolder</title>
<metadata>
<rdf:RDF><cc:Work>
<dc:title>Misc - BookHolder</dc:title>
<dc:source>boxes BookHolder</dc:source>
<dc:description>Angled display stand for books, ring files, flyers, postcards, or business cards.


Smaller versions for postcards (with a small ledge) and for business cards:

![BookHolder minis (front)](static/samples/BookHolder-minis.jpg)

![BookHolder minis (side)](static/samples/BookHolder-minis-side.jpg)

BookHolder with default parameters (A4 size, landscape, back_support):

![BookHolder (back)](static/samples/BookHolder-back.jpg)


Created with Boxes.py (https://boxes.hackerspace-bamberg.de/)
Command line: boxes BookHolder
Command line short: boxes BookHolder
</dc:description>
</cc:Work></rdf:RDF></metadata>
<g id="p-0" style="fill:none;stroke-linecap:round;stroke-linejoin:round;">
  <path d="M 10.100 343.330 H 110.100 V 333.330 H 10.100 V 343.330 Z" stroke="rgb(0,0,0)" stroke-width="0.20" />
  <text dominant-baseline="hanging" font-size="6px" style="font-family: sans-serif ; font-weight: normal; font-style: normal; fill: rgb(255,0,0)" text-anchor="middle" transform="matrix( 1.000 0.000 0.000 1.000 60.100 335.330 )">100.0mm, burn:0.10mm</text>
</g>
<g id="p-1" style="fill:none;stroke-linecap:round;stroke-linejoin:round;">
  <path d="M 13.100 331.630 H 304.100 C 304.155 331.630 304.200 331.585 304.200 331.530 V 321.630 C 304.200 321.530 304.100 321.630 304.200 321.630 H 307.100 C 307.155 321.630 307.200 321.585 307.200 321.530 V 315.530 C 307.200 315.475 307.155 315.430 307.100 315.430 H 304.200 C 304.100 315.430 304.200 315.530 304.200 315.430 V 309.630 C 304.200 309.530 304.100 309.630 304.200 309.630 H 307.100 C 307.155 309.630 307.200 309.585 307.200 309.530 V 303.530 C 307.200 303.475 307.155 303.430 307.100 303.430 H 304.200 C 304.100 303.430 304.200 303.530 304.200 303.430 V 297.630 C 304.200 297.530 304.100 297.630 304.200 297.630 H 307.100 C 307.155 297.630 307.200 297.585 307.200 297.530 V 291.530 C 307.200 291.475 307.155 291.430 307.100 291.430 H 304.200 C 304.100 291.430 304.200 291.530 304.200 291.430 V 281.530 C 304.200 281.475 304.155 281.430 304.100 281.430 H 13.100 C 13.045 281.430 13.000 281.475 13.000 281.530 V 291.430 C 13.000 291.530 13.100 291.430 13.000 291.430 H 10.100 C 10.045 291.430 10.000 291.475 10.000 291.530 V 297.530 C 10.000 297.585 10.045 297.630 10.100 297.630 H 13.000 C 13.100 297.630 13.000 297.530 13.000 297.630 V 303.430 C 13.000 303.530 13.100 303.430 13.000 303.430 H 10.100 C 10.045 303.430 10.000 303.475 10.000 303.530 V 309.530 C 10.000 309.585 10.045 309.630 10.100 309.630 H 13.000 C 13.100 309.630 13.000 309.530 13.000 309.630 V 315.430 C 13.000 315.530 13.100 315.430 13.000 315.430 H 10.100 C 10.045 315.430 10.000 315.475 10.000 315.530 V 321.530 C 10.000 321.585 10.045 321.630 10.100 321.630 H 13.000 C 13.100 321.630 13.000 321.530 13.000 321.630 V 331.530 C 13.000 331.585 13.045 331.630 13.100 331.630 Z" stroke="rgb(0,0,0)" stroke-width="0.20" />
  <text dominant-baseline="hanging" font-size="4px" style="font-family: sans-serif ; font-weight: normal; font-style: normal; fill: rgb(255,0,0)" text-anchor="middle" transform="matrix( 1.000 0.000 0.000 1.000 158.600 304.630 )">back support</text>
</g>
<g id="p-2" style="fill:none;stroke-linecap:round;stroke-linejoin:round;">
  <path d="M 13.100 279.930 H 304.100 C 304.155 279.930 304.200 279.885 304.200 279.830 V 268.930 C 304.200 268.830 304.100 268.930 304.200 268.930 H 307.100 C 307.155 268.930 307.200 268.885 307.200 268.830 V 262.830 C 307.200 262.775 307.155 262.730 307.100 262.730 H 304.200 C 304.100 262.730 304.200 262.830 304.200 262.730 V 256.930 C 304.200 256.830 304.100 256.930 304.200 256.930 H 307.100 C 307.155 256.930 307.200 256.885 307.200 256.830 V 250.830 C 307.200 250.775 307.155 250.730 307.100 250.730 H 304.200 C 304.100 250.730 304.200 250.830 304.200 250.730 V 239.830 V 236.830 C 304.200 236.775 304.155 236.730 304.100 236.730 H 293.600 C 293.545 236.730 293.500 236.775 293.500 236.830 V 239.730 C 293.500 239.830 293.600 239.730 293.500 239.730 H 287.700 C 287.600 239.730 287.700 239.830 287.700 239.730 V 236.830 C 287.700 236.775 287.655 236.730 287.600 236.730 H 281.600 C 281.545 236.730 281.500 236.775 281.500 236.830 V 239.730 C 281.500 239.830 281.600 239.730 281.500 239.730 H 275.700 C 275.600 239.730 275.700 239.830 275.700 239.730 V 236.830 C 275.700 236.775 275.655 236.730 275.600 236.730 H 269.600 C 269.545 236.730 269.500 236.775 269.500 236.830 V 239.730 C 269.500 239.830 269.600 239.730 269.500 239.730 H 263.700 C 263.600 239.730 263.700 239.830 263.700 239.730 V 236.830 C 263.700 236.775 263.655 236.730 263.600 236.730 H 257.600 C 257.545 236.730 257.500 236.775 257.500 236.830 V 239.730 C 257.500 239.830 257.600 239.730 257.500 239.730 H 251.700 C 251.600 239.730 251.700 239.830 251.700 239.730 V 236.830 C 251.700 236.775 251.655 236.730 251.600 236.730 H 245.600 C 245.545 236.730 245.500 236.775 245.500 236.830 V 239.730 C 245.500 239.830 245.600 239.730 245.500 239.730 H 239.700 C 239.600 239.730 239.700 239.830 239.700 239.730 V 236.830 C 239.700 236.775 239.655 236.730 239.600 236.730 H 233.600 C 233.545 236.730 233.500 236.775 233.500 236.830 V 239.730 C 233.500 239.830 233.600 239.730 233.500 239.730 H 227.700 C 227.600 239.730 227.700 239.830 227.700 239.730 V 236.830 C 227.700 236.775 227.655 236.730 227.600 236.730 H 221.600 C 221.545 236.730 221.500 236.775 221.500 236.830 V 239.730 C 221.500 239.830 221.600 239.730 221.500 239.730 H 215.700 C 215.600 239.730 215.700 239.830 215.700 239.730 V 236.830 C 215.700 236.775 215.655 236.730 215.600 236.730 H 209.600 C 209.545 236.730 209.500 236.775 209.500 236.830 V 239.730 C 209.500 239.830 209.600 239.730 209.500 239.730 H 203.700 C 203.600 239.730 203.700 239.830 203.700 239.730 V 236.830 C 203.700 236.775 203.655 236.730 203.600 236.730 H 197.600 C 197.545 236.730 197.500 236.775 197.500 236.830 V 239.730 C 197.500 239.830 197.600 239.730 197.500 239.730 H 191.700 C 191.600 239.730 191.700 239.830 191.700 239.730 V 236.830 C 191.700 236.775 191.655 236.730 191.600 236.730 H 185.600 C 185.545 236.730 185.500 236.775 185.500 236.830 V 239.730 C 185.500 239.830 185.600 239.730 185.500 239.730 H 179.700 C 179.600 239.730 179.700 239.830 179.700 239.730 V 236.830 C 179.700 236.775 179.655 236.730 179.600 236.730 H 173.600 C 173.545 236.730 173.500 236.775 173.500 236.830 V 239.730 C 173.500 239.830 173.600 239.730 173.500 239.730 H 167.700 C 167.600 239.730 167.700 239.830 167.700 239.730 V 236.830 C 167.700 236.775 167.655 236.730 167.600 236.730 H 161.600 C 161.545 236.730 161.500 236.775 161.500 236.830 V 239.730 C 161.500 239.830 161.600 239.730 161.500 239.730 H 155.700 C 155.600 239.730 155.700 239.830 155.700 239.730 V 236.830 C 155.700 236.775 155.655 236.730 155.600 236.730 H 149.600 C 149.545 236.730 149.500 236.775 149.500 236.830 V 239.730 C 149.500 239.830 149.600 239.730 149.500 239.730 H 143.700 C 143.600 239.730 143.700 239.830 143.700 239.730 V 236.830 C 143.700 236.775 143.655 236.730 143.600 236.730 H 137.600 C 137.545 236.730 137.500 236.775 137.500 236.830 V 239.730 C 137.500 239.830 137.600 239.730 137.500 239.730 H 131.700 C 131.600 239.730 131.700 239.830 131.700 239.730 V 236.830 C 131.700 236.775 131.655 236.730 131.600 236.730 H 125.600 C 125.545 236.730 125.500 236.775 125.500 236.830 V 239.730 C 125.500 239.830 125.600 239.730 125.500 239.730 H 119.700 C 119.600 239.730 119.700 239.830 119.700 239.730 V 236.830 C 119.700 236.775 119.655 236.730 119.600 236.730 H 113.600 C 113.545 236.730 113.500 236.775 113.500 236.830 V 239.730 C 113.500 239.830 113.600 239.730 113.500 239.730 H 107.700 C 107.600 239.730 107.700 239.830 107.700 239.730 V 236.830 C 107.700 236.775 107.655 236.730 107.600 236.730 H 101.600 C 101.545 236.730 101.500 236.775 101.500 236.830 V 239.730 C 101.500 239.830 101.600 239.730 101.500 239.730 H 95.700 C 95.600 239.730 95.700 239.830 95.700 239.730 V 236.830 C 95.700 236.775 95.655 236.730 95.600 236.730 H 89.600 C 89.545 236.730 89.500 236.775 89.500 236.830 V 239.730 C 89.500 239.830 89.600 239.730 89.500 239.730 H 83.700 C 83.600 239.730 83.700 239.830 83.700 239.730 V 236.830 C 83.700 236.775 83.655 236.730 83.600 236.730 H 77.600 C 77.545 236.730 77.500 236.775 77.500 236.830 V 239.730 C 77.500 239.830 77.600 239.730 77.500 239.730 H 71.700 C 71.600 239.730 71.700 239.830 71.700 239.730 V 236.830 C 71.700 236.775 71.655 236.730 71.600 236.730 H 65.600 C 65.545 236.730 65.500 236.775 65.500 236.830 V 239.730 C 65.500 239.830 65.600 239.730 65.500 239.730 H 59.700 C 59.600 239.730 59.700 239.830 59.700 239.730 V 236.830 C 59.700 236.775 59.655 236.730 59.600 236.730 H 53.600 C 53.545 236.730 53.500 236.775 53.500 236.830 V 239.730 C 53.500 239.830 53.600 239.730 53.500 239.730 H 47.700 C 47.600 239.730 47.700 239.830 47.700 239.730 V 236.830 C 47.700 236.775 47.655 236.730 47.600 236.730 H 41.600 C 41.545 236.730 41.500 236.775 41.500 236.830 V 239.730 C 41.500 239.830 41.600 239.730 41.500 239.730 H 35.700 C 35.600 239.730 35.700 239.830 35.700 239.730 V 236.830 C 35.700 236.775 35.655 236.730 35.600 236.730 H 29.600 C 29.545 236.730 29.500 236.775 29.500 236.830 V 239.730 C 29.500 239.830 29.600 239.730 29.500 239.730 H 23.700 C 23.600 239.730 23.700 239.830 23.700 239.730 V 236.830 C 23.700 236.775 23.655 236.730 23.600 236.730 H 13.100 C 13.045 236.730 13.000 236.775 13.000 236.830 V 239.830 V 250.730 C 13.000 250.830 13.100 250.730 13.000 250.730 H 10.100 C 10.045 250.730 10.000 250.775 10.000 250.830 V 256.830 C 10.000 256.885 10.045 256.930 10.100 256.930 H 13.000 C 13.100 256.930 13.000 256.830 13.000 256.930 V 262.730 C 13.000 262.830 13.100 262.730 13.000 262.730 H 10.100 C 10.045 262.730 10.000 262.775 10.000 262.830 V 268.830 C 10.000 268.885 10.045 268.930 10.100 268.930 H 13.000 C 13.100 268.930 13.000 268.830 13.000 268.930 V 279.830 C 13.000 279.885 13.045 279.930 13.100 279.930 Z" stroke="rgb(0,0,0)" stroke-width="0.20" />
  <text dominant-baseline="hanging" font-size="4px" style="font-family: sans-serif ; font-weight: normal; font-style: normal; fill: rgb(255,0,0)" text-anchor="middle" transform="matrix( 1.000 0.000 0.000 1.000 158.600 256.430 )">book bottom</text>
</g>
<g id="p-3" style="fill:none;stroke-linecap:round;stroke-linejoin:round;">
  <path d="M 13.100 232.230 H 23.500 C 23.600 232.230 23.500 232.130 23.500 232.230 V 235.130 C 23.500 235.185 23.545 235.230 23.600 235.230 H 29.600 C 29.655 235.230 29.700 235.185 29.700 235.130 V 232.230 C 29.700 232.130 29.600 232.230 29.700 232.230 H 35.500 C 35.600 232.230 35.500 232.130 35.500 232.230 V 235.130 C 35.500 235.185 35.545 235.230 35.600 235.230 H 41.600 C 41.655 235.230 41.700 235.185 41.700 235.130 V 232.230 C 41.700 232.130 41.600 232.230 41.700 232.230 H 47.500 C 47.600 232.230 47.500 232.130 47.500 232.230 V 235.130 C 47.500 235.185 47.545 235.230 47.600 235.230 H 53.600 C 53.655 235.230 53.700 235.185 53.700 235.130 V 232.230 C 53.700 232.130 53.600 232.230 53.700 232.230 H 59.500 C 59.600 232.230 59.500 232.130 59.500 232.230 V 235.130 C 59.500 235.185 59.545 235.230 59.600 235.230 H 65.600 C 65.655 235.230 65.700 235.185 65.700 235.130 V 232.230 C 65.700 232.130 65.600 232.230 65.700 232.230 H 71.500 C 71.600 232.230 71.500 232.130 71.500 232.230 V 235.130 C 71.500 235.185 71.545 235.230 71.600 235.230 H 77.600 C 77.655 235.230 77.700 235.185 77.700 235.130 V 232.230 C 77.700 232.130 77.600 232.230 77.700 232.230 H 83.500 C 83.600 232.230 83.500 232.130 83.500 232.230 V 235.130 C 83.500 235.185 83.545 235.230 83.600 235.230 H 89.600 C 89.655 235.230 89.700 235.185 89.700 235.130 V 232.230 C 89.700 232.130 89.600 232.230 89.700 232.230 H 95.500 C 95.600 232.230 95.500 232.130 95.500 232.230 V 235.130 C 95.500 235.185 95.545 235.230 95.600 235.230 H 101.600 C 101.655 235.230 101.700 235.185 101.700 235.130 V 232.230 C 101.700 232.130 101.600 232.230 101.700 232.230 H 107.500 C 107.600 232.230 107.500 232.130 107.500 232.230 V 235.130 C 107.500 235.185 107.545 235.230 107.600 235.230 H 113.600 C 113.655 235.230 113.700 235.185 113.700 235.130 V 232.230 C 113.700 232.130 113.600 232.230 113.700 232.230 H 119.500 C 119.600 232.230 119.500 232.130 119.500 232.230 V 235.130 C 119.500 235.185 119.545 235.230 119.600 235.230 H 125.600 C 125.655 235.230 125.700 235.185 125.700 235.130 V 232.230 C 125.700 232.130 125.600 232.230 125.700 232.230 H 131.500 C 131.600 232.230 131.500 232.130 131.500 232.230 V 235.130 C 131.500 235.185 131.545 235.230 131.600 235.230 H 137.600 C 137.655 235.230 137.700 235.185 137.700 235.130 V 232.230 C 137.700 232.130 137.600 232.230 137.700 232.230 H 143.500 C 143.600 232.230 143.500 232.130 143.500 232.230 V 235.130 C 143.500 235.185 143.545 235.230 143.600 235.230 H 149.600 C 149.655 235.230 149.700 235.185 149.700 235.130 V 232.230 C 149.700 232.130 149.600 232.230 149.700 232.230 H 155.500 C 155.600 232.230 155.500 232.130 155.500 232.230 V 235.130 C 155.500 235.185 155.545 235.230 155.600 235.230 H 161.600 C 161.655 235.230 161.700 235.185 161.700 235.130 V 232.230 C 161.700 232.130 161.600 232.230 161.700 232.230 H 167.500 C 167.600 232.230 167.500 232.130 167.500 232.230 V 235.130 C 167.500 235.185 167.545 235.230 167.600 235.230 H 173.600 C 173.655 235.230 173.700 235.185 173.700 235.130 V 232.230 C 173.700 232.130 173.600 232.230 173.700 232.230 H 179.500 C 179.600 232.230 179.500 232.130 179.500 232.230 V 235.130 C 179.500 235.185 179.545 235.230 179.600 235.230 H 185.600 C 185.655 235.230 185.700 235.185 185.700 235.130 V 232.230 C 185.700 232.130 185.600 232.230 185.700 232.230 H 191.500 C 191.600 232.230 191.500 232.130 191.500 232.230 V 235.130 C 191.500 235.185 191.545 235.230 191.600 235.230 H 197.600 C 197.655 235.230 197.700 235.185 197.700 235.130 V 232.230 C 197.700 232.130 197.600 232.230 197.700 232.230 H 203.500 C 203.600 232.230 203.500 232.130 203.500 232.230 V 235.130 C 203.500 235.185 203.545 235.230 203.600 235.230 H 209.600 C 209.655 235.230 209.700 235.185 209.700 235.130 V 232.230 C 209.700 232.130 209.600 232.230 209.700 232.230 H 215.500 C 215.600 232.230 215.500 232.130 215.500 232.230 V 235.130 C 215.500 235.185 215.545 235.230 215.600 235.230 H 221.600 C 221.655 235.230 221.700 235.185 221.700 235.130 V 232.230 C 221.700 232.130 221.600 232.230 221.700 232.230 H 227.500 C 227.600 232.230 227.500 232.130 227.500 232.230 V 235.130 C 227.500 235.185 227.545 235.230 227.600 235.230 H 233.600 C 233.655 235.230 233.700 235.185 233.700 235.130 V 232.230 C 233.700 232.130 233.600 232.230 233.700 232.230 H 239.500 C 239.600 232.230 239.500 232.130 239.500 232.230 V 235.130 C 239.500 235.185 239.545 235.230 239.600 235.230 H 245.600 C 245.655 235.230 245.700 235.185 245.700 235.130 V 232.230 C 245.700 232.130 245.600 232.230 245.700 232.230 H 251.500 C 251.600 232.230 251.500 232.130 251.500 232.230 V 235.130 C 251.500 235.185 251.545 235.230 251.600 235.230 H 257.600 C 257.655 235.230 257.700 235.185 257.700 235.130 V 232.230 C 257.700 232.130 257.600 232.230 257.700 232.230 H 263.500 C 263.600 232.230 263.500 232.130 263.500 232.230 V 235.130 C 263.500 235.185 263.545 235.230 263.600 235.230 H 269.600 C 269.655 235.230 269.700 235.185 269.700 235.130 V 232.230 C 269.700 232.130 269.600 232.230 269.700 232.230 H 275.500 C 275.600 232.230 275.500 232.130 275.500 232.230 V 235.130 C 275.500 235.185 275.545 235.230 275.600 235.230 H 281.600 C 281.655 235.230 281.700 235.185 281.700 235.130 V 232.230 C 281.700 232.130 281.600 232.230 281.700 232.230 H 287.500 C 287.600 232.230 287.500 232.130 287.500 232.230 V 235.130 C 287.500 235.185 287.545 235.230 287.600 235.230 H 293.600 C 293.655 235.230 293.700 235.185 293.700 235.130 V 232.230 C 293.700 232.130 293.600 232.230 293.700 232.230 H 304.100 C 304.155 232.230 304.200 232.185 304.200 232.130 V 226.230 C 304.200 226.130 304.100 226.230 304.200 226.230 H 307.100 C 307.155 226.230 307.200 226.185 307.200 226.130 V 220.130 C 307.200 220.075 307.155 220.030 307.100 220.030 H 304.200 C 304.100 220.030 304.200 220.130 304.200 220.030 V 214.230 C 304.200 214.130 304.100 214.230 304.200 214.230 H 307.100 C 307.155 214.230 307.200 214.185 307.200 214.130 V 208.130 C 307.200 208.075 307.155 208.030 307.100 208.030 H 304.200 C 304.100 208.030 304.200 208.130 304.200 208.030 V 202.230 C 304.200 202.130 304.100 202.230 304.200 202.230 H 307.100 C 307.155 202.230 307.200 202.185 307.200 202.130 V 196.130 C 307.200 196.075 307.155 196.030 307.100 196.030 H 304.200 C 304.100 196.030 304.200 196.130 304.200 196.030 V 190.230 C 304.200 190.130 304.100 190.230 304.200 190.230 H 307.100 C 307.155 190.230 307.200 190.185 307.200 190.130 V 184.130 C 307.200 184.075 307.155 184.030 307.100 184.030 H 304.200 C 304.100 184.030 304.200 184.130 304.200 184.030 V 178.230 C 304.200 178.130 304.100 178.230 304.200 178.230 H 307.100 C 307.155 178.230 307.200 178.185 307.200 178.130 V 172.130 C 307.200 172.075 307.155 172.030 307.100 172.030 H 304.200 C 304.100 172.030 304.200 172.130 304.200 172.030 V 166.230 C 304.200 166.130 304.100 166.230 304.200 166.230 H 307.100 C 307.155 166.230 307.200 166.185 307.200 166.130 V 160.130 C 307.200 160.075 307.155 160.030 307.100 160.030 H 304.200 C 304.100 160.030 304.200 160.130 304.200 160.030 V 154.230 C 304.200 154.130 304.100 154.230 304.200 154.230 H 307.100 C 307.155 154.230 307.200 154.185 307.200 154.130 V 148.130 C 307.200 148.075 307.155 148.030 307.100 148.030 H 304.200 C 304.100 148.030 304.200 148.130 304.200 148.030 V 142.230 C 304.200 142.130 304.100 142.230 304.200 142.230 H 307.100 C 307.155 142.230 307.200 142.185 307.200 142.130 V 136.130 C 307.200 136.075 307.155 136.030 307.100 136.030 H 304.200 C 304.100 136.030 304.200 136.130 304.200 136.030 V 130.230 C 304.200 130.130 304.100 130.230 304.200 130.230 H 307.100 C 307.155 130.230 307.200 130.185 307.200 130.130 V 124.130 C 307.200 124.075 307.155 124.030 307.100 124.030 H 304.200 C 304.100 124.030 304.200 124.130 304.200 124.030 V 118.230 C 304.200 118.130 304.100 118.230 304.200 118.230 H 307.100 C 307.155 118.230 307.200 118.185 307.200 118.130 V 112.130 C 307.200 112.075 307.155 112.030 307.100 112.030 H 304.200 C 304.100 112.030 304.200 112.130 304.200 112.030 V 106.230 C 304.200 106.130 304.100 106.230 304.200 106.230 H 307.100 C 307.155 106.230 307.200 106.185 307.200 106.130 V 100.130 C 307.200 100.075 307.155 100.030 307.100 100.030 H 304.200 C 304.100 100.030 304.200 100.130 304.200 100.030 V 94.230 C 304.200 94.130 304.100 94.230 304.200 94.230 H 307.100 C 307.155 94.230 307.200 94.185 307.200 94.130 V 88.130 C 307.200 88.075 307.155 88.030 307.100 88.030 H 304.200 C 304.100 88.030 304.200 88.130 304.200 88.030 V 82.230 C 304.200 82.130 304.100 82.230 304.200 82.230 H 307.100 C 307.155 82.230 307.200 82.185 307.200 82.130 V 76.130 C 307.200 76.075 307.155 76.030 307.100 76.030 H 304.200 C 304.100 76.030 304.200 76.130 304.200 76.030 V 70.230 C 304.200 70.130 304.100 70.230 304.200 70.230 H 307.100 C 307.155 70.230 307.200 70.185 307.200 70.130 V 64.130 C 307.200 64.075 307.155 64.030 307.100 64.030 H 304.200 C 304.100 64.030 304.200 64.130 304.200 64.030 V 58.230 C 304.200 58.130 304.100 58.230 304.200 58.230 H 307.100 C 307.155 58.230 307.200 58.185 307.200 58.130 V 52.130 C 307.200 52.075 307.155 52.030 307.100 52.030 H 304.200 C 304.100 52.030 304.200 52.130 304.200 52.030 V 46.230 C 304.200 46.130 304.100 46.230 304.200 46.230 H 307.100 C 307.155 46.230 307.200 46.185 307.200 46.130 V 40.130 C 307.200 40.075 307.155 40.030 307.100 40.030 H 304.200 C 304.100 40.030 304.200 40.130 304.200 40.030 V 34.230 C 304.200 34.130 304.100 34.230 304.200 34.230 H 307.100 C 307.155 34.230 307.200 34.185 307.200 34.130 V 28.130 C 307.200 28.075 307.155 28.030 307.100 28.030 H 304.200 C 304.100 28.030 304.200 28.130 304.200 28.030 V 22.130 C 304.200 22.075 304.155 22.030 304.100 22.030 H 13.100 C 13.045 22.030 13.000 22.075 13.000 22.130 V 28.030 C 13.000 28.130 13.100 28.030 13.000 28.030 H 10.100 C 10.045 28.030 10.000 28.075 10.000 28.130 V 34.130 C 10.000 34.185 10.045 34.230 10.100 34.230 H 13.000 C 13.100 34.230 13.000 34.130 13.000 34.230 V 40.030 C 13.000 40.130 13.100 40.030 13.000 40.030 H 10.100 C 10.045 40.030 10.000 40.075 10.000 40.130 V 46.130 C 10.000 46.185 10.045 46.230 10.100 46.230 H 13.000 C 13.100 46.230 13.000 46.130 13.000 46.230 V 52.030 C 13.000 52.130 13.100 52.030 13.000 52.030 H 10.100 C 10.045 52.030 10.000 52.075 10.000 52.130 V 58.130 C 10.000 58.185 10.045 58.230 10.100 58.230 H 13.000 C 13.100 58.230 13.000 58.130 13.000 58.230 V 64.030 C 13.000 64.130 13.100 64.030 13.000 64.030 H 10.100 C 10.045 64.030 10.000 64.075 10.000 64.130 V 70.130 C 10.000 70.185 10.045 70.230 10.100 70.230 H 13.000 C 13.100 70.230 13.000 70.130 13.000 70.230 V 76.030 C 13.000 76.130 13.100 76.030 13.000 76.030 H 10.100 C 10.045 76.030 10.000 76.075 10.000 76.130 V 82.130 C 10.000 82.185 10.045 82.230 10.100 82.230 H 13.000 C 13.100 82.230 13.000 82.130 13.000 82.230 V 88.030 C 13.000 88.130 13.100 88.030 13.000 88.030 H 10.100 C 10.045 88.030 10.000 88.075 10.000 88.130 V 94.130 C 10.000 94.185 10.045 94.230 10.100 94.230 H 13.000 C 13.100 94.230 13.000 94.130 13.000 94.230 V 100.030 C 13.000 100.130 13.100 100.030 13.000 100.030 H 10.100 C 10.045 100.030 10.000 100.075 10.000 100.130 V 106.130 C 10.000 106.185 10.045 106.230 10.100 106.230 H 13.000 C 13.100 106.230 13.000 106.130 13.000 106.230 V 112.030 C 13.000 112.130 13.100 112.030 13.000 112.030 H 10.100 C 10.045 112.030 10.000 112.075 10.000 112.130 V 118.130 C 10.000 118.185 10.045 118.230 10.100 118.230 H 13.000 C 13.100 118.230 13.000 118.130 13.000 118.230 V 124.030 C 13.000 124.130 13.100 124.030 13.000 124.030 H 10.100 C 10.045 124.030 10.000 124.075 10.000 124.130 V 130.130 C 10.000 130.185 10.045 130.230 10.100 130.230 H 13.000 C 13.100 130.230 13.000 130.130 13.000 130.230 V 136.030 C 13.000 136.130 13.100 136.030 13.000 136.030 H 10.100 C 10.045 136.030 10.000 136.075 10.000 136.130 V 142.130 C 10.000 142.185 10.045 142.230 10.100 142.230 H 13.000 C 13.100 142.230 13.000 142.130 13.000 142.230 V 148.030 C 13.000 148.130 13.100 148.030 13.000 148.030 H 10.100 C 10.045 148.030 10.000 148.075 10.000 148.130 V 154.130 C 10.000 154.185 10.045 154.230 10.100 154.230 H 13.000 C 13.100 154.230 13.000 154.130 13.000 154.230 V 160.030 C 13.000 160.130 13.100 160.030 13.000 160.030 H 10.100 C 10.045 160.030 10.000 160.075 10.000 160.130 V 166.130 C 10.000 166.185 10.045 166.230 10.100 166.230 H 13.000 C 13.100 166.230 13.000 166.130 13.000 166.230 V 172.030 C 13.000 172.130 13.100 172.030 13.000 172.030 H 10.100 C 10.045 172.030 10.000 172.075 10.000 172.130 V 178.130 C 10.000 178.185 10.045 178.230 10.100 178.230 H 13.000 C 13.100 178.230 13.000 178.130 13.000 178.230 V 184.030 C 13.000 184.130 13.100 184.030 13.000 184.030 H 10.100 C 10.045 184.030 10.000 184.075 10.000 184.130 V 190.130 C 10.000 190.185 10.045 190.230 10.100 190.230 H 13.000 C 13.100 190.230 13.000 190.130 13.000 190.230 V 196.030 C 13.000 196.130 13.100 196.030 13.000 196.030 H 10.100 C 10.045 196.030 10.000 196.075 10.000 196.130 V 202.130 C 10.000 202.185 10.045 202.230 10.100 202.230 H 13.000 C 13.100 202.230 13.000 202.130 13.000 202.230 V 208.030 C 13.000 208.130 13.100 208.030 13.000 208.030 H 10.100 C 10.045 208.030 10.000 208.075 10.000 208.130 V 214.130 C 10.000 214.185 10.045 214.230 10.100 214.230 H 13.000 C 13.100 214.230 13.000 214.130 13.000 214.230 V 220.030 C 13.000 220.130 13.100 220.030 13.000 220.030 H 10.100 C 10.045 220.030 10.000 220.075 10.000 220.130 V 226.130 C 10.000 226.185 10.045 226.230 10.100 226.230 H 13.000 C 13.100 226.230 13.000 226.130 13.000 226.230 V 232.130 C 13.000 232.185 13.045 232.230 13.100 232.230 Z" stroke="rgb(0,0,0)" stroke-width="0.20" />
  <text dominant-baseline="hanging" font-size="4px" style="font-family: sans-serif ; font-weight: normal; font-style: normal; fill: rgb(255,0,0)" text-anchor="middle" transform="matrix( 1.000 0.000 0.000 1.000 158.600 126.730 )">book back</text>
</g>
<g id="p-4" style="fill:none;stroke-linecap:round;stroke-linejoin:round;">
  <path d="M 308.800 235.230 H 411.463 C 411.518 235.230 411.563 235.185 411.563 235.130 V 13.062 C 411.563 12.463 411.390 11.876 411.063 11.373 C 410.737 10.871 410.272 10.474 409.724 10.230 C 409.177 9.986 408.570 9.906 407.978 10.000 C 407.386 10.094 406.834 10.357 406.389 10.758 C 405.944 11.159 405.624 11.681 405.469 12.259 L 403.916 18.055 C 403.902 18.108 403.933 18.163 403.987 18.178 L 406.788 18.928 C 406.884 18.954 406.814 18.832 406.788 18.928 L 405.287 24.530 C 405.261 24.627 405.383 24.556 405.287 24.530 L 402.486 23.780 C 402.432 23.766 402.377 23.797 402.363 23.851 L 400.810 29.646 C 400.796 29.700 400.828 29.754 400.881 29.769 L 403.682 30.519 C 403.779 30.545 403.708 30.423 403.682 30.519 L 402.181 36.122 C 402.155 36.218 402.277 36.147 402.181 36.122 L 399.380 35.371 C 399.326 35.357 399.272 35.388 399.257 35.442 L 397.704 41.237 C 397.690 41.291 397.722 41.345 397.775 41.360 L 400.576 42.110 C 400.673 42.136 400.602 42.014 400.576 42.110 L 399.075 47.713 C 399.049 47.809 399.172 47.739 399.075 47.713 L 396.274 46.962 C 396.221 46.948 396.166 46.979 396.151 47.033 L 394.598 52.828 C 394.584 52.882 394.616 52.937 394.669 52.951 L 397.470 53.701 C 397.567 53.727 397.496 53.605 397.470 53.701 L 395.969 59.304 C 395.943 59.400 396.066 59.330 395.969 59.304 L 393.168 58.553 C 393.115 58.539 393.060 58.571 393.046 58.624 L 391.493 64.419 C 391.478 64.473 391.510 64.528 391.563 64.542 L 394.365 65.293 C 394.461 65.318 394.390 65.196 394.365 65.293 L 392.863 70.895 C 392.838 70.992 392.960 70.921 392.863 70.895 L 390.062 70.144 C 390.009 70.130 389.954 70.162 389.940 70.215 L 388.387 76.011 C 388.373 76.064 388.404 76.119 388.458 76.133 L 391.259 76.884 C 391.355 76.910 391.285 76.787 391.259 76.884 L 389.758 82.486 C 389.732 82.583 389.854 82.512 389.758 82.486 L 386.956 81.735 C 386.903 81.721 386.848 81.753 386.834 81.806 L 385.281 87.602 C 385.267 87.655 385.298 87.710 385.352 87.724 L 388.153 88.475 C 388.249 88.501 388.179 88.378 388.153 88.475 L 386.652 94.077 C 386.626 94.174 386.748 94.103 386.652 94.077 L 383.851 93.327 C 383.797 93.312 383.742 93.344 383.728 93.397 L 382.175 99.193 C 382.161 99.246 382.193 99.301 382.246 99.315 L 385.047 100.066 C 385.144 100.092 385.073 99.969 385.047 100.066 L 383.546 105.668 C 383.520 105.765 383.643 105.694 383.546 105.668 L 380.745 104.918 C 380.691 104.903 380.637 104.935 380.622 104.988 L 379.069 110.784 C 379.055 110.837 379.087 110.892 379.140 110.906 L 381.941 111.657 C 382.038 111.683 381.967 111.560 381.941 111.657 L 380.440 117.259 C 380.414 117.356 380.537 117.285 380.440 117.259 L 377.639 116.509 C 377.586 116.494 377.531 116.526 377.516 116.579 L 375.964 122.375 C 375.949 122.428 375.981 122.483 376.034 122.498 L 378.835 123.248 C 378.932 123.274 378.861 123.151 378.835 123.248 L 377.334 128.850 C 377.308 128.947 377.431 128.876 377.334 128.850 L 374.533 128.100 C 374.480 128.086 374.425 128.117 374.411 128.171 L 372.858 133.966 C 372.843 134.019 372.875 134.074 372.928 134.089 L 375.730 134.839 C 375.826 134.865 375.755 134.743 375.730 134.839 L 374.228 140.442 C 374.203 140.538 374.325 140.467 374.228 140.442 L 371.427 139.691 C 371.374 139.677 371.319 139.708 371.305 139.762 L 369.752 145.557 C 369.738 145.611 369.769 145.665 369.823 145.680 L 372.624 146.430 C 372.720 146.456 372.650 146.334 372.624 146.430 L 371.123 152.033 C 371.097 152.129 371.219 152.059 371.123 152.033 L 368.321 151.282 C 368.268 151.268 368.213 151.299 368.199 151.353 L 366.646 157.148 C 366.632 157.202 366.663 157.257 366.717 157.271 L 369.518 158.021 C 369.615 158.047 369.544 157.925 369.518 158.021 L 368.017 163.624 C 367.991 163.720 368.113 163.650 368.017 163.624 L 365.216 162.873 C 365.162 162.859 365.107 162.891 365.093 162.944 L 363.540 168.739 C 363.526 168.793 363.558 168.848 363.611 168.862 L 366.412 169.613 C 366.509 169.638 366.438 169.516 366.412 169.613 L 364.911 175.215 C 364.885 175.311 365.008 175.241 364.911 175.215 L 362.110 174.464 C 362.056 174.450 362.002 174.482 361.987 174.535 L 360.434 180.331 C 360.420 180.384 360.452 180.439 360.505 180.453 L 363.306 181.204 C 363.403 181.230 363.332 181.107 363.306 181.204 L 361.805 186.806 C 361.779 186.903 361.902 186.832 361.805 186.806 L 359.004 186.055 C 358.951 186.041 358.896 186.073 358.881 186.126 L 357.329 191.922 C 357.314 191.975 357.346 192.030 357.399 192.044 L 360.200 192.795 C 360.297 192.821 360.226 192.698 360.200 192.795 L 358.699 198.397 C 358.673 198.494 358.796 198.423 358.699 198.397 L 355.898 197.647 C 355.845 197.632 355.790 197.664 355.776 197.717 L 354.223 203.513 C 354.208 203.566 354.240 203.621 354.293 203.635 L 357.095 204.386 C 357.191 204.412 357.121 204.289 357.095 204.386 L 355.593 209.988 C 355.568 210.085 355.690 210.014 355.593 209.988 L 352.792 209.238 C 352.739 209.223 352.684 209.255 352.670 209.308 L 351.143 215.007 C 351.117 215.104 351.239 215.033 351.143 215.007 L 340.614 212.186 C 340.561 212.172 340.506 212.204 340.492 212.257 L 339.741 215.058 C 339.715 215.155 339.838 215.084 339.741 215.058 L 334.139 213.557 C 334.042 213.531 334.113 213.654 334.139 213.557 L 334.889 210.756 C 334.904 210.702 334.872 210.648 334.819 210.633 L 329.023 209.080 C 328.970 209.066 328.915 209.098 328.901 209.151 L 328.150 211.952 C 328.124 212.049 328.247 211.978 328.150 211.952 L 322.548 210.451 C 322.451 210.425 322.522 210.548 322.548 210.451 L 323.298 207.650 C 323.313 207.597 323.281 207.542 323.228 207.527 L 312.602 204.680 C 311.988 204.516 311.338 204.544 310.740 204.762 C 310.142 204.979 309.626 205.376 309.261 205.897 C 308.896 206.418 308.700 207.039 308.700 207.675 V 235.130 C 308.700 235.185 308.745 235.230 308.800 235.230 Z" stroke="rgb(0,0,0)" stroke-width="0.20" />
  <path d="M 406.963 202.130 V 205.030 C 406.963 205.130 407.063 205.030 406.963 205.030 H 404.163 C 404.063 205.030 404.163 205.130 404.163 205.030 V 199.230 C 404.163 199.130 404.063 199.230 404.163 199.230 H 406.963 C 407.063 199.230 406.963 199.130 406.963 199.230 V 202.130 Z" stroke="rgb(0,0,255)" stroke-width="0.20" />
  <path d="M 406.963 190.130 V 193.030 C 406.963 193.130 407.063 193.030 406.963 193.030 H 404.163 C 404.063 193.030 404.163 193.130 404.163 193.030 V 187.230 C 404.163 187.130 404.063 187.230 404.163 187.230 H 406.963 C 407.063 187.230 406.963 187.130 406.963 187.230 V 190.130 Z" stroke="rgb(0,0,255)" stroke-width="0.20" />
  <path d="M 406.963 178.130 V 181.030 C 406.963 181.130 407.063 181.030 406.963 181.030 H 404.163 C 404.063 181.030 404.163 181.130 404.163 181.030 V 175.230 C 404.163 175.130 404.063 175.230 404.163 175.230 H 406.963 C 407.063 175.230 406.963 175.130 406.963 175.230 V 178.130 Z" stroke="rgb(0,0,255)" stroke-width="0.20" />
</g>
<g id="p-5" style="fill:none;stroke-linecap:round;stroke-linejoin:round;">
  <path d="M 413.163 235.230 H 515.827 C 515.882 235.230 515.927 235.185 515.927 235.130 V 13.062 C 515.927 12.463 515.753 11.876 515.426 11.373 C 515.100 10.871 514.635 10.474 514.087 10.230 C 513.540 9.986 512.934 9.906 512.342 10.000 C 511.750 10.094 511.198 10.357 510.752 10.758 C 510.307 11.159 509.987 11.681 509.832 12.259 L 508.279 18.055 C 508.265 18.108 508.297 18.163 508.350 18.178 L 511.151 18.928 C 511.248 18.954 511.177 18.832 511.151 18.928 L 509.650 24.530 C 509.624 24.627 509.747 24.556 509.650 24.530 L 506.849 23.780 C 506.795 23.766 506.741 23.797 506.726 23.851 L 505.173 29.646 C 505.159 29.700 505.191 29.754 505.244 29.769 L 508.045 30.519 C 508.142 30.545 508.071 30.423 508.045 30.519 L 506.544 36.122 C 506.518 36.218 506.641 36.147 506.544 36.122 L 503.743 35.371 C 503.690 35.357 503.635 35.388 503.621 35.442 L 502.068 41.237 C 502.053 41.291 502.085 41.345 502.138 41.360 L 504.939 42.110 C 505.036 42.136 504.965 42.014 504.939 42.110 L 503.438 47.713 C 503.412 47.809 503.535 47.739 503.438 47.713 L 500.637 46.962 C 500.584 46.948 500.529 46.979 500.515 47.033 L 498.962 52.828 C 498.947 52.882 498.979 52.937 499.032 52.951 L 501.834 53.701 C 501.930 53.727 501.860 53.605 501.834 53.701 L 500.333 59.304 C 500.307 59.400 500.429 59.330 500.333 59.304 L 497.531 58.553 C 497.478 58.539 497.423 58.571 497.409 58.624 L 495.856 64.419 C 495.842 64.473 495.873 64.528 495.927 64.542 L 498.728 65.293 C 498.824 65.318 498.754 65.196 498.728 65.293 L 497.227 70.895 C 497.201 70.992 497.323 70.921 497.227 70.895 L 494.425 70.144 C 494.372 70.130 494.317 70.162 494.303 70.215 L 492.750 76.011 C 492.736 76.064 492.767 76.119 492.821 76.133 L 495.622 76.884 C 495.719 76.910 495.648 76.787 495.622 76.884 L 494.121 82.486 C 494.095 82.583 494.217 82.512 494.121 82.486 L 491.320 81.735 C 491.266 81.721 491.211 81.753 491.197 81.806 L 489.644 87.602 C 489.630 87.655 489.662 87.710 489.715 87.724 L 492.516 88.475 C 492.613 88.501 492.542 88.378 492.516 88.475 L 491.015 94.077 C 490.989 94.174 491.112 94.103 491.015 94.077 L 488.214 93.327 C 488.160 93.312 488.106 93.344 488.091 93.397 L 486.538 99.193 C 486.524 99.246 486.556 99.301 486.609 99.315 L 489.410 100.066 C 489.507 100.092 489.436 99.969 489.410 100.066 L 487.909 105.668 C 487.883 105.765 488.006 105.694 487.909 105.668 L 485.108 104.918 C 485.055 104.903 485.000 104.935 484.986 104.988 L 483.433 110.784 C 483.418 110.837 483.450 110.892 483.503 110.906 L 486.305 111.657 C 486.401 111.683 486.330 111.560 486.305 111.657 L 484.803 117.259 C 484.777 117.356 484.900 117.285 484.803 117.259 L 482.002 116.509 C 481.949 116.494 481.894 116.526 481.880 116.579 L 480.327 122.375 C 480.312 122.428 480.344 122.483 480.398 122.498 L 483.199 123.248 C 483.295 123.274 483.225 123.151 483.199 123.248 L 481.698 128.850 C 481.672 128.947 481.794 128.876 481.698 128.850 L 478.896 128.100 C 478.843 128.086 478.788 128.117 478.774 128.171 L 477.221 133.966 C 477.207 134.019 477.238 134.074 477.292 134.089 L 480.093 134.839 C 480.189 134.865 480.119 134.743 480.093 134.839 L 478.592 140.442 C 478.566 140.538 478.688 140.467 478.592 140.442 L 475.791 139.691 C 475.737 139.677 475.682 139.708 475.668 139.762 L 474.115 145.557 C 474.101 145.611 474.133 145.665 474.186 145.680 L 476.987 146.430 C 477.084 146.456 477.013 146.334 476.987 146.430 L 475.486 152.033 C 475.460 152.129 475.582 152.059 475.486 152.033 L 472.685 151.282 C 472.631 151.268 472.577 151.299 472.562 151.353 L 471.009 157.148 C 470.995 157.202 471.027 157.257 471.080 157.271 L 473.881 158.021 C 473.978 158.047 473.907 157.925 473.881 158.021 L 472.380 163.624 C 472.354 163.720 472.477 163.650 472.380 163.624 L 469.579 162.873 C 469.526 162.859 469.471 162.891 469.456 162.944 L 467.903 168.739 C 467.889 168.793 467.921 168.848 467.974 168.862 L 470.775 169.613 C 470.872 169.638 470.801 169.516 470.775 169.613 L 469.274 175.215 C 469.248 175.311 469.371 175.241 469.274 175.215 L 466.473 174.464 C 466.420 174.450 466.365 174.482 466.351 174.535 L 464.798 180.331 C 464.783 180.384 464.815 180.439 464.868 180.453 L 467.670 181.204 C 467.766 181.230 467.695 181.107 467.670 181.204 L 466.168 186.806 C 466.143 186.903 466.265 186.832 466.168 186.806 L 463.367 186.055 C 463.314 186.041 463.259 186.073 463.245 186.126 L 461.692 191.922 C 461.678 191.975 461.709 192.030 461.763 192.044 L 464.564 192.795 C 464.660 192.821 464.590 192.698 464.564 192.795 L 463.063 198.397 C 463.037 198.494 463.159 198.423 463.063 198.397 L 460.261 197.647 C 460.208 197.632 460.153 197.664 460.139 197.717 L 458.586 203.513 C 458.572 203.566 458.603 203.621 458.657 203.635 L 461.458 204.386 C 461.554 204.412 461.484 204.289 461.458 204.386 L 459.957 209.988 C 459.931 210.085 460.053 210.014 459.957 209.988 L 457.156 209.238 C 457.102 209.223 457.047 209.255 457.033 209.308 L 455.506 215.007 C 455.480 215.104 455.603 215.033 455.506 215.007 L 444.977 212.186 C 444.924 212.172 444.869 212.204 444.855 212.257 L 444.104 215.058 C 444.079 215.155 444.201 215.084 444.104 215.058 L 438.502 213.557 C 438.405 213.531 438.476 213.654 438.502 213.557 L 439.253 210.756 C 439.267 210.702 439.235 210.648 439.182 210.633 L 433.386 209.080 C 433.333 209.066 433.278 209.098 433.264 209.151 L 432.513 211.952 C 432.487 212.049 432.610 211.978 432.513 211.952 L 426.911 210.451 C 426.814 210.425 426.885 210.548 426.911 210.451 L 427.662 207.650 C 427.676 207.597 427.644 207.542 427.591 207.527 L 416.966 204.680 C 416.351 204.516 415.701 204.544 415.103 204.762 C 414.505 204.979 413.989 205.376 413.624 205.897 C 413.259 206.418 413.063 207.039 413.063 207.675 V 235.130 C 413.063 235.185 413.108 235.230 413.163 235.230 Z" stroke="rgb(0,0,0)" stroke-width="0.20" />
  <path d="M 511.327 202.130 V 205.030 C 511.327 205.130 511.427 205.030 511.327 205.030 H 508.527 C 508.427 205.030 508.527 205.130 508.527 205.030 V 199.230 C 508.527 199.130 508.427 199.230 508.527 199.230 H 511.327 C 511.427 199.230 511.327 199.130 511.327 199.230 V 202.130 Z" stroke="rgb(0,0,255)" stroke-width="0.20" />
  <path d="M 511.327 190.130 V 193.030 C 511.327 193.130 511.427 193.030 511.327 193.030 H 508.527 C 508.427 193.030 508.527 193.130 508.527 193.030 V 187.230 C 508.527 187.130 508.427 187.230 508.527 187.230 H 511.327 C 511.427 187.230 511.327 187.130 511.327 187.230 V 190.130 Z" stroke="rgb(0,0,255)" stroke-width="0.20" />
  <path d="M 511.327 178.130 V 181.030 C 511.327 181.130 511.427 181.030 511.327 181.030 H 508.527 C 508.427 181.030 508.527 181.130 508.527 181.030 V 175.230 C 508.527 175.130 508.427 175.230 508.527 175.230 H 511.327 C 511.427 175.230 511.327 175.130 511.327 175.230 V 178.130 Z" stroke="rgb(0,0,255)" stroke-width="0.20" />
</g>
</svg>