<?xml version='1.0' encoding='utf-8'?>
<svg height="214.98mm" viewBox="0.0 0.0 277.90 214.98" width="277.90mm" xmlns="http://www.w3.org/2000/svg" xmlns:cc="http://creativecommons.org/ns#" xmlns:dc="http://purl.org/dc/elements/1.1/" xmlns:inkscape="http://www.inkscape.org/namespaces/inkscape" xmlns:rdf="http://www.w3.org/1999/02/22-rdf-syntax-ns#" xmlns:svg="http://www.w3.org/2000/svg" xmlns:xlink="http://www.w3.org/1999/xlink">
<!--
BottleStack - Stack bottles in a fridge


When rendered with the "double" option the parts with the double slots get connected the shorter beams in the asymmetrical slots.

Without the "double" option the stand is a bit more narrow.



Created with Boxes.py (https://festi.info/boxes.py)
Command line (remove spaces between dashes): boxes BottleStack
-->
<title>BottleStack</title>
<metadata>
<rdf:RDF><cc:Work>
<dc:title>Misc - BottleStack</dc:title>
<dc:source>boxes BottleStack</dc:source>
<dc:description>Stack bottles in a fridge

When rendered with the "double" option the parts with the double slots get connected the shorter beams in the asymmetrical slots.

Without the "double" option the stand is a bit more narrow.


Created with Boxes.py (https://festi.info/boxes.py)
Command line: boxes BottleStack
Command line short: boxes BottleStack
</dc:description>
</cc:Work></rdf:RDF></metadata>
<g id="p-0" style="fill:none;stroke-linecap:round;stroke-linejoin:round;">
  <path d="M 18.800 204.976 H 118.800 V 194.976 H 18.800 V 204.976 Z" stroke="rgb(0,0,0)" stroke-width="0.20" />
  <text dominant-baseline="hanging" font-size="8px" style="font-family: sans-serif ; font-weight: normal; font-style: normal; fill: rgb(255,0,0)" text-anchor="middle" transform="matrix( 1.000 0.000 0.000 1.000 68.800 195.976 )">100.00mm, burn:0.10mm</text>
</g>
<g id="p-1" style="fill:none;stroke-linecap:round;stroke-linejoin:round;">
  <path d="M 18.800 193.276 H 21.800 C 21.855 193.276 21.900 193.231 21.900 193.176 V 190.276 C 21.900 190.176 21.800 190.276 21.900 190.276 H 24.700 C 24.800 190.276 24.700 190.176 24.700 190.276 V 193.176 C 24.700 193.231 24.745 193.276 24.800 193.276 H 101.800 C 101.855 193.276 101.900 193.231 101.900 193.176 V 190.276 C 101.900 190.176 101.800 190.276 101.900 190.276 H 104.700 C 104.800 190.276 104.700 190.176 104.700 190.276 V 193.176 C 104.700 193.231 104.745 193.276 104.800 193.276 H 181.800 C 181.855 193.276 181.900 193.231 181.900 193.176 V 190.276 C 181.900 190.176 181.800 190.276 181.900 190.276 H 184.700 C 184.800 190.276 184.700 190.176 184.700 190.276 V 193.176 C 184.700 193.231 184.745 193.276 184.800 193.276 H 261.800 C 261.855 193.276 261.900 193.231 261.900 193.176 V 190.276 C 261.900 190.176 261.800 190.276 261.900 190.276 H 264.700 C 264.800 190.276 264.700 190.176 264.700 190.276 V 193.176 C 264.700 193.231 264.745 193.276 264.800 193.276 H 267.800 C 267.855 193.276 267.900 193.231 267.900 193.176 V 171.582 C 267.900 170.775 267.687 169.981 267.284 169.282 C 266.880 168.583 266.299 168.002 265.600 167.598 C 264.901 167.195 264.107 166.982 263.300 166.982 C 262.196 166.982 261.112 167.273 260.156 167.824 C 259.200 168.376 258.406 169.170 257.854 170.126 C 254.352 176.192 249.316 181.229 243.250 184.730 C 237.184 188.232 230.304 190.076 223.300 190.076 C 216.296 190.076 209.416 188.232 203.350 184.730 C 197.284 181.229 192.248 176.192 188.746 170.126 C 188.194 169.170 187.400 168.376 186.444 167.824 C 185.488 167.273 184.404 166.982 183.300 166.982 C 182.196 166.982 181.112 167.273 180.156 167.824 C 179.200 168.376 178.406 169.170 177.854 170.126 C 174.352 176.192 169.316 181.229 163.250 184.730 C 157.184 188.232 150.304 190.076 143.300 190.076 C 136.296 190.076 129.416 188.232 123.350 184.730 C 117.284 181.229 112.248 176.192 108.746 170.126 C 108.194 169.170 107.400 168.376 106.444 167.824 C 105.488 167.273 104.404 166.982 103.300 166.982 C 102.196 166.982 101.112 167.273 100.156 167.824 C 99.200 168.376 98.406 169.170 97.854 170.126 C 94.352 176.192 89.316 181.229 83.250 184.730 C 77.184 188.232 70.304 190.076 63.300 190.076 C 56.296 190.076 49.416 188.232 43.350 184.730 C 37.284 181.229 32.248 176.192 28.746 170.126 C 28.194 169.170 27.400 168.376 26.444 167.824 C 25.488 167.273 24.404 166.982 23.300 166.982 C 22.493 166.982 21.699 167.195 21.000 167.598 C 20.301 168.002 19.720 168.583 19.316 169.282 C 18.913 169.981 18.700 170.775 18.700 171.582 V 193.176 C 18.700 193.231 18.745 193.276 18.800 193.276 Z" stroke="rgb(0,0,0)" stroke-width="0.20" />
</g>
<g id="p-2" style="fill:none;stroke-linecap:round;stroke-linejoin:round;">
  <path d="M 18.800 162.482 H 21.800 C 21.855 162.482 21.900 162.437 21.900 162.382 V 159.482 C 21.900 159.382 21.800 159.482 21.900 159.482 H 24.700 C 24.800 159.482 24.700 159.382 24.700 159.482 V 162.382 C 24.700 162.437 24.745 162.482 24.800 162.482 H 101.800 C 101.855 162.482 101.900 162.437 101.900 162.382 V 159.482 C 101.900 159.382 101.800 159.482 101.900 159.482 H 104.700 C 104.800 159.482 104.700 159.382 104.700 159.482 V 162.382 C 104.700 162.437 104.745 162.482 104.800 162.482 H 181.800 C 181.855 162.482 181.900 162.437 181.900 162.382 V 159.482 C 181.900 159.382 181.800 159.482 181.900 159.482 H 184.700 C 184.800 159.482 184.700 159.382 184.700 159.482 V 162.382 C 184.700 162.437 184.745 162.482 184.800 162.482 H 261.800 C 261.855 162.482 261.900 162.437 261.900 162.382 V 159.482 C 261.900 159.382 261.800 159.482 261.900 159.482 H 264.700 C 264.800 159.482 264.700 159.382 264.700 159.482 V 162.382 C 264.700 162.437 264.745 162.482 264.800 162.482 H 267.800 C 267.855 162.482 267.900 162.437 267.900 162.382 V 140.788 C 267.900 139.981 267.687 139.187 267.284 138.488 C 266.880 137.789 266.299 137.208 265.600 136.804 C 264.901 136.401 264.107 136.188 263.300 136.188 C 262.196 136.188 261.112 136.479 260.156 137.030 C 259.200 137.582 258.406 138.376 257.854 139.332 C 254.352 145.398 249.316 150.434 243.250 153.936 C 237.184 157.438 230.304 159.282 223.300 159.282 C 216.296 159.282 209.416 157.438 203.350 153.936 C 197.284 150.434 192.248 145.398 188.746 139.332 C 188.194 138.376 187.400 137.582 186.444 137.030 C 185.488 136.479 184.404 136.188 183.300 136.188 C 182.196 136.188 181.112 136.479 180.156 137.030 C 179.200 137.582 178.406 138.376 177.854 139.332 C 174.352 145.398 169.316 150.434 163.250 153.936 C 157.184 157.438 150.304 159.282 143.300 159.282 C 136.296 159.282 129.416 157.438 123.350 153.936 C 117.284 150.434 112.248 145.398 108.746 139.332 C 108.194 138.376 107.400 137.582 106.444 137.030 C 105.488 136.479 104.404 136.188 103.300 136.188 C 102.196 136.188 101.112 136.479 100.156 137.030 C 99.200 137.582 98.406 138.376 97.854 139.332 C 94.352 145.398 89.316 150.434 83.250 153.936 C 77.184 157.438 70.304 159.282 63.300 159.282 C 56.296 159.282 49.416 157.438 43.350 153.936 C 37.284 150.434 32.248 145.398 28.746 139.332 C 28.194 138.376 27.400 137.582 26.444 137.030 C 25.488 136.479 24.404 136.188 23.300 136.188 C 22.493 136.188 21.699 136.401 21.000 136.804 C 20.301 137.208 19.720 137.789 19.316 138.488 C 18.913 139.187 18.700 139.981 18.700 140.788 V 162.382 C 18.700 162.437 18.745 162.482 18.800 162.482 Z" stroke="rgb(0,0,0)" stroke-width="0.20" />
</g>
<g id="p-3" style="fill:none;stroke-linecap:round;stroke-linejoin:round;">
  <path d="M 18.800 131.688 H 21.650 C 21.705 131.688 21.750 131.643 21.750 131.588 V 125.688 C 21.750 125.588 21.650 125.688 21.750 125.688 H 24.850 C 24.950 125.688 24.850 125.588 24.850 125.688 V 131.588 C 24.850 131.643 24.895 131.688 24.950 131.688 H 27.800 C 27.855 131.688 27.900 131.643 27.900 131.588 V 128.688 C 27.900 128.588 27.800 128.688 27.900 128.688 H 30.700 C 30.800 128.688 30.700 128.588 30.700 128.688 V 131.588 C 30.700 131.643 30.745 131.688 30.800 131.688 H 95.800 C 95.855 131.688 95.900 131.643 95.900 131.588 V 128.688 C 95.900 128.588 95.800 128.688 95.900 128.688 H 98.700 C 98.800 128.688 98.700 128.588 98.700 128.688 V 131.588 C 98.700 131.643 98.745 131.688 98.800 131.688 H 101.650 C 101.705 131.688 101.750 131.643 101.750 131.588 V 125.688 C 101.750 125.588 101.650 125.688 101.750 125.688 H 104.850 C 104.950 125.688 104.850 125.588 104.850 125.688 V 131.588 C 104.850 131.643 104.895 131.688 104.950 131.688 H 175.800 C 175.855 131.688 175.900 131.643 175.900 131.588 V 128.688 C 175.900 128.588 175.800 128.688 175.900 128.688 H 178.700 C 178.800 128.688 178.700 128.588 178.700 128.688 V 131.588 C 178.700 131.643 178.745 131.688 178.800 131.688 H 181.650 C 181.705 131.688 181.750 131.643 181.750 131.588 V 125.688 C 181.750 125.588 181.650 125.688 181.750 125.688 H 184.850 C 184.950 125.688 184.850 125.588 184.850 125.688 V 131.588 C 184.850 131.643 184.895 131.688 184.950 131.688 H 255.800 C 255.855 131.688 255.900 131.643 255.900 131.588 V 128.688 C 255.900 128.588 255.800 128.688 255.900 128.688 H 258.700 C 258.800 128.688 258.700 128.588 258.700 128.688 V 131.588 C 258.700 131.643 258.745 131.688 258.800 131.688 H 261.650 C 261.705 131.688 261.750 131.643 261.750 131.588 V 125.688 C 261.750 125.588 261.650 125.688 261.750 125.688 H 264.850 C 264.950 125.688 264.850 125.588 264.850 125.688 V 131.588 C 264.850 131.643 264.895 131.688 264.950 131.688 H 267.800 C 267.855 131.688 267.900 131.643 267.900 131.588 V 109.994 C 267.900 109.187 267.687 108.393 267.284 107.694 C 266.880 106.995 266.299 106.414 265.600 106.010 C 264.901 105.607 264.107 105.394 263.300 105.394 C 262.196 105.394 261.112 105.685 260.156 106.236 C 259.200 106.788 258.406 107.582 257.854 108.538 C 254.352 114.604 249.316 119.640 243.250 123.142 C 237.184 126.644 230.304 128.488 223.300 128.488 C 216.296 128.488 209.416 126.644 203.350 123.142 C 197.284 119.640 192.248 114.604 188.746 108.538 C 188.194 107.582 187.400 106.788 186.444 106.236 C 185.488 105.685 184.404 105.394 183.300 105.394 C 182.196 105.394 181.112 105.685 180.156 106.236 C 179.200 106.788 178.406 107.582 177.854 108.538 C 174.352 114.604 169.316 119.640 163.250 123.142 C 157.184 126.644 150.304 128.488 143.300 128.488 C 136.296 128.488 129.416 126.644 123.350 123.142 C 117.284 119.640 112.248 114.604 108.746 108.538 C 108.194 107.582 107.400 106.788 106.444 106.236 C 105.488 105.685 104.404 105.394 103.300 105.394 C 102.196 105.394 101.112 105.685 100.156 106.236 C 99.200 106.788 98.406 107.582 97.854 108.538 C 94.352 114.604 89.316 119.640 83.250 123.142 C 77.184 126.644 70.304 128.488 63.300 128.488 C 56.296 128.488 49.416 126.644 43.350 123.142 C 37.284 119.640 32.248 114.604 28.746 108.538 C 28.194 107.582 27.400 106.788 26.444 106.236 C 25.488 105.685 24.404 105.394 23.300 105.394 C 22.493 105.394 21.699 105.607 21.000 106.010 C 20.301 106.414 19.720 106.995 19.316 107.694 C 18.913 108.393 18.700 109.187 18.700 109.994 V 131.588 C 18.700 131.643 18.745 131.688 18.800 131.688 Z" stroke="rgb(0,0,0)" stroke-width="0.20" />
</g>
<g id="p-4" style="fill:none;stroke-linecap:round;stroke-linejoin:round;">
  <path d="M 18.800 100.894 H 21.650 C 21.705 100.894 21.750 100.849 21.750 100.794 V 94.894 C 21.750 94.794 21.650 94.894 21.750 94.894 H 24.850 C 24.950 94.894 24.850 94.794 24.850 94.894 V 100.794 C 24.850 100.849 24.895 100.894 24.950 100.894 H 27.800 C 27.855 100.894 27.900 100.849 27.900 100.794 V 97.894 C 27.900 97.794 27.800 97.894 27.900 97.894 H 30.700 C 30.800 97.894 30.700 97.794 30.700 97.894 V 100.794 C 30.700 100.849 30.745 100.894 30.800 100.894 H 95.800 C 95.855 100.894 95.900 100.849 95.900 100.794 V 97.894 C 95.900 97.794 95.800 97.894 95.900 97.894 H 98.700 C 98.800 97.894 98.700 97.794 98.700 97.894 V 100.794 C 98.700 100.849 98.745 100.894 98.800 100.894 H 101.650 C 101.705 100.894 101.750 100.849 101.750 100.794 V 94.894 C 101.750 94.794 101.650 94.894 101.750 94.894 H 104.850 C 104.950 94.894 104.850 94.794 104.850 94.894 V 100.794 C 104.850 100.849 104.895 100.894 104.950 100.894 H 175.800 C 175.855 100.894 175.900 100.849 175.900 100.794 V 97.894 C 175.900 97.794 175.800 97.894 175.900 97.894 H 178.700 C 178.800 97.894 178.700 97.794 178.700 97.894 V 100.794 C 178.700 100.849 178.745 100.894 178.800 100.894 H 181.650 C 181.705 100.894 181.750 100.849 181.750 100.794 V 94.894 C 181.750 94.794 181.650 94.894 181.750 94.894 H 184.850 C 184.950 94.894 184.850 94.794 184.850 94.894 V 100.794 C 184.850 100.849 184.895 100.894 184.950 100.894 H 255.800 C 255.855 100.894 255.900 100.849 255.900 100.794 V 97.894 C 255.900 97.794 255.800 97.894 255.900 97.894 H 258.700 C 258.800 97.894 258.700 97.794 258.700 97.894 V 100.794 C 258.700 100.849 258.745 100.894 258.800 100.894 H 261.650 C 261.705 100.894 261.750 100.849 261.750 100.794 V 94.894 C 261.750 94.794 261.650 94.894 261.750 94.894 H 264.850 C 264.950 94.894 264.850 94.794 264.850 94.894 V 100.794 C 264.850 100.849 264.895 100.894 264.950 100.894 H 267.800 C 267.855 100.894 267.900 100.849 267.900 100.794 V 79.200 C 267.900 78.393 267.687 77.599 267.284 76.900 C 266.880 76.201 266.299 75.620 265.600 75.216 C 264.901 74.813 264.107 74.600 263.300 74.600 C 262.196 74.600 261.112 74.891 260.156 75.442 C 259.200 75.994 258.406 76.788 257.854 77.744 C 254.352 83.810 249.316 88.846 243.250 92.348 C 237.184 95.850 230.304 97.694 223.300 97.694 C 216.296 97.694 209.416 95.850 203.350 92.348 C 197.284 88.846 192.248 83.810 188.746 77.744 C 188.194 76.788 187.400 75.994 186.444 75.442 C 185.488 74.891 184.404 74.600 183.300 74.600 C 182.196 74.600 181.112 74.891 180.156 75.442 C 179.200 75.994 178.406 76.788 177.854 77.744 C 174.352 83.810 169.316 88.846 163.250 92.348 C 157.184 95.850 150.304 97.694 143.300 97.694 C 136.296 97.694 129.416 95.850 123.350 92.348 C 117.284 88.846 112.248 83.810 108.746 77.744 C 108.194 76.788 107.400 75.994 106.444 75.442 C 105.488 74.891 104.404 74.600 103.300 74.600 C 102.196 74.600 101.112 74.891 100.156 75.442 C 99.200 75.994 98.406 76.788 97.854 77.744 C 94.352 83.810 89.316 88.846 83.250 92.348 C 77.184 95.850 70.304 97.694 63.300 97.694 C 56.296 97.694 49.416 95.850 43.350 92.348 C 37.284 88.846 32.248 83.810 28.746 77.744 C 28.194 76.788 27.400 75.994 26.444 75.442 C 25.488 74.891 24.404 74.600 23.300 74.600 C 22.493 74.600 21.699 74.813 21.000 75.216 C 20.301 75.620 19.720 76.201 19.316 76.900 C 18.913 77.599 18.700 78.393 18.700 79.200 V 100.794 C 18.700 100.849 18.745 100.894 18.800 100.894 Z" stroke="rgb(0,0,0)" stroke-width="0.20" />
</g>
<g id="p-5" style="fill:none;stroke-linecap:round;stroke-linejoin:round;">
  <path d="M 21.800 70.100 H 101.800 C 102.344 70.100 102.879 69.957 103.350 69.685 C 103.821 69.413 104.213 69.021 104.485 68.550 C 104.757 68.079 104.900 67.544 104.900 67.000 C 104.900 66.456 104.757 65.921 104.485 65.450 C 104.213 64.979 103.821 64.587 103.350 64.315 C 102.879 64.043 102.344 63.900 101.800 63.900 C 101.745 63.900 101.700 63.945 101.700 64.000 V 66.900 C 101.700 67.000 101.800 66.900 101.700 66.900 H 98.900 C 98.800 66.900 98.900 67.000 98.900 66.900 V 64.000 C 98.900 63.945 98.855 63.900 98.800 63.900 H 24.800 C 24.745 63.900 24.700 63.945 24.700 64.000 V 66.900 C 24.700 67.000 24.800 66.900 24.700 66.900 H 21.900 C 21.800 66.900 21.900 67.000 21.900 66.900 V 64.000 C 21.900 63.945 21.855 63.900 21.800 63.900 C 21.256 63.900 20.721 64.043 20.250 64.315 C 19.779 64.587 19.387 64.979 19.115 65.450 C 18.843 65.921 18.700 66.456 18.700 67.000 C 18.700 67.544 18.843 68.079 19.115 68.550 C 19.387 69.021 19.779 69.413 20.250 69.685 C 20.721 69.957 21.256 70.100 21.800 70.100 Z" stroke="rgb(0,0,0)" stroke-width="0.20" />
</g>
<g id="p-6" style="fill:none;stroke-linecap:round;stroke-linejoin:round;">
  <path d="M 21.800 62.400 H 101.800 C 102.344 62.400 102.879 62.257 103.350 61.985 C 103.821 61.713 104.213 61.321 104.485 60.850 C 104.757 60.379 104.900 59.844 104.900 59.300 C 104.900 58.756 104.757 58.221 104.485 57.750 C 104.213 57.279 103.821 56.887 103.350 56.615 C 102.879 56.343 102.344 56.200 101.800 56.200 C 101.745 56.200 101.700 56.245 101.700 56.300 V 59.200 C 101.700 59.300 101.800 59.200 101.700 59.200 H 98.900 C 98.800 59.200 98.900 59.300 98.900 59.200 V 56.300 C 98.900 56.245 98.855 56.200 98.800 56.200 H 24.800 C 24.745 56.200 24.700 56.245 24.700 56.300 V 59.200 C 24.700 59.300 24.800 59.200 24.700 59.200 H 21.900 C 21.800 59.200 21.900 59.300 21.900 59.200 V 56.300 C 21.900 56.245 21.855 56.200 21.800 56.200 C 21.256 56.200 20.721 56.343 20.250 56.615 C 19.779 56.887 19.387 57.279 19.115 57.750 C 18.843 58.221 18.700 58.756 18.700 59.300 C 18.700 59.844 18.843 60.379 19.115 60.850 C 19.387 61.321 19.779 61.713 20.250 61.985 C 20.721 62.257 21.256 62.400 21.800 62.400 Z" stroke="rgb(0,0,0)" stroke-width="0.20" />
</g>
<g id="p-7" style="fill:none;stroke-linecap:round;stroke-linejoin:round;">
  <path d="M 21.800 54.700 H 101.800 C 102.344 54.700 102.879 54.557 103.350 54.285 C 103.821 54.013 104.213 53.621 104.485 53.150 C 104.757 52.679 104.900 52.144 104.900 51.600 C 104.900 51.056 104.757 50.521 104.485 50.050 C 104.213 49.579 103.821 49.187 103.350 48.915 C 102.879 48.643 102.344 48.500 101.800 48.500 C 101.745 48.500 101.700 48.545 101.700 48.600 V 51.500 C 101.700 51.600 101.800 51.500 101.700 51.500 H 98.900 C 98.800 51.500 98.900 51.600 98.900 51.500 V 48.600 C 98.900 48.545 98.855 48.500 98.800 48.500 H 24.800 C 24.745 48.500 24.700 48.545 24.700 48.600 V 51.500 C 24.700 51.600 24.800 51.500 24.700 51.500 H 21.900 C 21.800 51.500 21.900 51.600 21.900 51.500 V 48.600 C 21.900 48.545 21.855 48.500 21.800 48.500 C 21.256 48.500 20.721 48.643 20.250 48.915 C 19.779 49.187 19.387 49.579 19.115 50.050 C 18.843 50.521 18.700 51.056 18.700 51.600 C 18.700 52.144 18.843 52.679 19.115 53.150 C 19.387 53.621 19.779 54.013 20.250 54.285 C 20.721 54.557 21.256 54.700 21.800 54.700 Z" stroke="rgb(0,0,0)" stroke-width="0.20" />
</g>
<g id="p-8" style="fill:none;stroke-linecap:round;stroke-linejoin:round;">
  <path d="M 21.800 47.000 H 101.800 C 102.344 47.000 102.879 46.857 103.350 46.585 C 103.821 46.313 104.213 45.921 104.485 45.450 C 104.757 44.979 104.900 44.444 104.900 43.900 C 104.900 43.356 104.757 42.821 104.485 42.350 C 104.213 41.879 103.821 41.487 103.350 41.215 C 102.879 40.943 102.344 40.800 101.800 40.800 C 101.745 40.800 101.700 40.845 101.700 40.900 V 43.800 C 101.700 43.900 101.800 43.800 101.700 43.800 H 98.900 C 98.800 43.800 98.900 43.900 98.900 43.800 V 40.900 C 98.900 40.845 98.855 40.800 98.800 40.800 H 24.800 C 24.745 40.800 24.700 40.845 24.700 40.900 V 43.800 C 24.700 43.900 24.800 43.800 24.700 43.800 H 21.900 C 21.800 43.800 21.900 43.900 21.900 43.800 V 40.900 C 21.900 40.845 21.855 40.800 21.800 40.800 C 21.256 40.800 20.721 40.943 20.250 41.215 C 19.779 41.487 19.387 41.879 19.115 42.350 C 18.843 42.821 18.700 43.356 18.700 43.900 C 18.700 44.444 18.843 44.979 19.115 45.450 C 19.387 45.921 19.779 46.313 20.250 46.585 C 20.721 46.857 21.256 47.000 21.800 47.000 Z" stroke="rgb(0,0,0)" stroke-width="0.20" />
</g>
<g id="p-9" style="fill:none;stroke-linecap:round;stroke-linejoin:round;">
  <path d="M 21.800 39.300 H 92.800 C 92.855 39.300 92.900 39.255 92.900 39.200 V 36.200 C 92.900 36.145 92.855 36.100 92.800 36.100 H 89.900 C 89.800 36.100 89.900 36.200 89.900 36.100 V 33.200 C 89.900 33.145 89.855 33.100 89.800 33.100 H 24.800 C 24.745 33.100 24.700 33.145 24.700 33.200 V 36.100 C 24.700 36.200 24.800 36.100 24.700 36.100 H 21.800 C 21.745 36.100 21.700 36.145 21.700 36.200 V 39.200 C 21.700 39.255 21.745 39.300 21.800 39.300 Z" stroke="rgb(0,0,0)" stroke-width="0.20" />
</g>
<g id="p-10" style="fill:none;stroke-linecap:round;stroke-linejoin:round;">
  <path d="M 21.800 31.600 H 92.800 C 92.855 31.600 92.900 31.555 92.900 31.500 V 28.500 C 92.900 28.445 92.855 28.400 92.800 28.400 H 89.900 C 89.800 28.400 89.900 28.500 89.900 28.400 V 25.500 C 89.900 25.445 89.855 25.400 89.800 25.400 H 24.800 C 24.745 25.400 24.700 25.445 24.700 25.500 V 28.400 C 24.700 28.500 24.800 28.400 24.700 28.400 H 21.800 C 21.745 28.400 21.700 28.445 21.700 28.500 V 31.500 C 21.700 31.555 21.745 31.600 21.800 31.600 Z" stroke="rgb(0,0,0)" stroke-width="0.20" />
</g>
<g id="p-11" style="fill:none;stroke-linecap:round;stroke-linejoin:round;">
  <path d="M 21.800 23.900 H 92.800 C 92.855 23.900 92.900 23.855 92.900 23.800 V 20.800 C 92.900 20.745 92.855 20.700 92.800 20.700 H 89.900 C 89.800 20.700 89.900 20.800 89.900 20.700 V 17.800 C 89.900 17.745 89.855 17.700 89.800 17.700 H 24.800 C 24.745 17.700 24.700 17.745 24.700 17.800 V 20.700 C 24.700 20.800 24.800 20.700 24.700 20.700 H 21.800 C 21.745 20.700 21.700 20.745 21.700 20.800 V 23.800 C 21.700 23.855 21.745 23.900 21.800 23.900 Z" stroke="rgb(0,0,0)" stroke-width="0.20" />
</g>
<g id="p-12" style="fill:none;stroke-linecap:round;stroke-linejoin:round;">
  <path d="M 21.800 16.200 H 92.800 C 92.855 16.200 92.900 16.155 92.900 16.100 V 13.100 C 92.900 13.045 92.855 13.000 92.800 13.000 H 89.900 C 89.800 13.000 89.900 13.100 89.900 13.000 V 10.100 C 89.900 10.045 89.855 10.000 89.800 10.000 H 24.800 C 24.745 10.000 24.700 10.045 24.700 10.100 V 13.000 C 24.700 13.100 24.800 13.000 24.700 13.000 H 21.800 C 21.745 13.000 21.700 13.045 21.700 13.100 V 16.100 C 21.700 16.155 21.745 16.200 21.800 16.200 Z" stroke="rgb(0,0,0)" stroke-width="0.20" />
</g>
</svg>