<?xml version='1.0' encoding='utf-8'?>
<svg height="214.98mm" viewBox="0.0 0.0 269.20 214.98" width="269.20mm" xmlns="http://www.w3.org/2000/svg" xmlns:cc="http://creativecommons.org/ns#" xmlns:dc="http://purl.org/dc/elements/1.1/" xmlns:inkscape="http://www.inkscape.org/namespaces/inkscape" xmlns:rdf="http://www.w3.org/1999/02/22-rdf-syntax-ns#" xmlns:svg="http://www.w3.org/2000/svg" xmlns:xlink="http://www.w3.org/1999/xlink">
<!--
BottleStack - Stack bottles in a fridge


When rendered with the "double" option the parts with the double slots get connected the shorter beams in the asymmetrical slots.

Without the "double" option the stand is a bit narrower.

![Empty stack](static/samples/BottleStack-2.jpg)



Created with Boxes.py (https://boxes.hackerspace-bamberg.de/)
Command line (remove spaces between dashes): boxes BottleStack
-->
<title>BottleStack</title>
<metadata>
<rdf:RDF><cc:Work>
<dc:title>Misc - BottleStack</dc:title>
<dc:source>boxes BottleStack</dc:source>
<dc:description>Stack bottles in a fridge

When rendered with the "double" option the parts with the double slots get connected the shorter beams in the asymmetrical slots.

Without the "double" option the stand is a bit narrower.

![Empty stack](static/samples/BottleStack-2.jpg)


Created with Boxes.py (https://boxes.hackerspace-bamberg.de/)
Command line: boxes BottleStack
Command line short: boxes BottleStack
</dc:description>
</cc:Work></rdf:RDF></metadata>
<g id="p-0" style="fill:none;stroke-linecap:round;stroke-linejoin:round;">
  <path d="M 10.100 204.976 H 110.100 V 194.976 H 10.100 V 204.976 Z" stroke="rgb(0,0,0)" stroke-width="0.20" />
  <text dominant-baseline="hanging" font-size="6px" style="font-family: sans-serif ; font-weight: normal; font-style: normal; fill: rgb(255,0,0)" text-anchor="middle" transform="matrix( 1.000 0.000 0.000 1.000 60.100 196.976 )">100.0mm, burn:0.10mm</text>
</g>
<g id="p-1" style="fill:none;stroke-linecap:round;stroke-linejoin:round;">
  <path d="M 10.100 193.276 H 13.100 C 13.155 193.276 13.200 193.231 13.200 193.176 V 190.276 C 13.200 190.176 13.100 190.276 13.200 190.276 H 16.000 C 16.100 190.276 16.000 190.176 16.000 190.276 V 193.176 C 16.000 193.231 16.045 193.276 16.100 193.276 H 93.100 C 93.155 193.276 93.200 193.231 93.200 193.176 V 190.276 C 93.200 190.176 93.100 190.276 93.200 190.276 H 96.000 C 96.100 190.276 96.000 190.176 96.000 190.276 V 193.176 C 96.000 193.231 96.045 193.276 96.100 193.276 H 173.100 C 173.155 193.276 173.200 193.231 173.200 193.176 V 190.276 C 173.200 190.176 173.100 190.276 173.200 190.276 H 176.000 C 176.100 190.276 176.000 190.176 176.000 190.276 V 193.176 C 176.000 193.231 176.045 193.276 176.100 193.276 H 253.100 C 253.155 193.276 253.200 193.231 253.200 193.176 V 190.276 C 253.200 190.176 253.100 190.276 253.200 190.276 H 256.000 C 256.100 190.276 256.000 190.176 256.000 190.276 V 193.176 C 256.000 193.231 256.045 193.276 256.100 193.276 H 259.100 C 259.155 193.276 259.200 193.231 259.200 193.176 V 171.582 C 259.200 170.775 258.987 169.981 258.584 169.282 C 258.180 168.583 257.599 168.002 256.900 167.598 C 256.201 167.195 255.407 166.982 254.600 166.982 C 253.496 166.982 252.412 167.273 251.456 167.824 C 250.500 168.376 249.706 169.170 249.154 170.126 C 245.652 176.192 240.616 181.229 234.550 184.730 C 228.484 188.232 221.604 190.076 214.600 190.076 C 207.596 190.076 200.716 188.232 194.650 184.730 C 188.584 181.229 183.548 176.192 180.046 170.126 C 179.494 169.170 178.700 168.376 177.744 167.824 C 176.788 167.273 175.704 166.982 174.600 166.982 C 173.496 166.982 172.412 167.273 171.456 167.824 C 170.500 168.376 169.706 169.170 169.154 170.126 C 165.652 176.192 160.616 181.229 154.550 184.730 C 148.484 188.232 141.604 190.076 134.600 190.076 C 127.596 190.076 120.716 188.232 114.650 184.730 C 108.584 181.229 103.548 176.192 100.046 170.126 C 99.494 169.170 98.700 168.376 97.744 167.824 C 96.788 167.273 95.704 166.982 94.600 166.982 C 93.496 166.982 92.412 167.273 91.456 167.824 C 90.500 168.376 89.706 169.170 89.154 170.126 C 85.652 176.192 80.616 181.229 74.550 184.730 C 68.484 188.232 61.604 190.076 54.600 190.076 C 47.596 190.076 40.716 188.232 34.650 184.730 C 28.584 181.229 23.548 176.192 20.046 170.126 C 19.494 169.170 18.700 168.376 17.744 167.824 C 16.788 167.273 15.704 166.982 14.600 166.982 C 13.793 166.982 12.999 167.195 12.300 167.598 C 11.601 168.002 11.020 168.583 10.616 169.282 C 10.213 169.981 10.000 170.775 10.000 171.582 V 193.176 C 10.000 193.231 10.045 193.276 10.100 193.276 Z" stroke="rgb(0,0,0)" stroke-width="0.20" />
</g>
<g id="p-2" style="fill:none;stroke-linecap:round;stroke-linejoin:round;">
  <path d="M 10.100 162.482 H 13.100 C 13.155 162.482 13.200 162.437 13.200 162.382 V 159.482 C 13.200 159.382 13.100 159.482 13.200 159.482 H 16.000 C 16.100 159.482 16.000 159.382 16.000 159.482 V 162.382 C 16.000 162.437 16.045 162.482 16.100 162.482 H 93.100 C 93.155 162.482 93.200 162.437 93.200 162.382 V 159.482 C 93.200 159.382 93.100 159.482 93.200 159.482 H 96.000 C 96.100 159.482 96.000 159.382 96.000 159.482 V 162.382 C 96.000 162.437 96.045 162.482 96.100 162.482 H 173.100 C 173.155 162.482 173.200 162.437 173.200 162.382 V 159.482 C 173.200 159.382 173.100 159.482 173.200 159.482 H 176.000 C 176.100 159.482 176.000 159.382 176.000 159.482 V 162.382 C 176.000 162.437 176.045 162.482 176.100 162.482 H 253.100 C 253.155 162.482 253.200 162.437 253.200 162.382 V 159.482 C 253.200 159.382 253.100 159.482 253.200 159.482 H 256.000 C 256.100 159.482 256.000 159.382 256.000 159.482 V 162.382 C 256.000 162.437 256.045 162.482 256.100 162.482 H 259.100 C 259.155 162.482 259.200 162.437 259.200 162.382 V 140.788 C 259.200 139.981 258.987 139.187 258.584 138.488 C 258.180 137.789 257.599 137.208 256.900 136.804 C 256.201 136.401 255.407 136.188 254.600 136.188 C 253.496 136.188 252.412 136.479 251.456 137.030 C 250.500 137.582 249.706 138.376 249.154 139.332 C 245.652 145.398 240.616 150.434 234.550 153.936 C 228.484 157.438 221.604 159.282 214.600 159.282 C 207.596 159.282 200.716 157.438 194.650 153.936 C 188.584 150.434 183.548 145.398 180.046 139.332 C 179.494 138.376 178.700 137.582 177.744 137.030 C 176.788 136.479 175.704 136.188 174.600 136.188 C 173.496 136.188 172.412 136.479 171.456 137.030 C 170.500 137.582 169.706 138.376 169.154 139.332 C 165.652 145.398 160.616 150.434 154.550 153.936 C 148.484 157.438 141.604 159.282 134.600 159.282 C 127.596 159.282 120.716 157.438 114.650 153.936 C 108.584 150.434 103.548 145.398 100.046 139.332 C 99.494 138.376 98.700 137.582 97.744 137.030 C 96.788 136.479 95.704 136.188 94.600 136.188 C 93.496 136.188 92.412 136.479 91.456 137.030 C 90.500 137.582 89.706 138.376 89.154 139.332 C 85.652 145.398 80.616 150.434 74.550 153.936 C 68.484 157.438 61.604 159.282 54.600 159.282 C 47.596 159.282 40.716 157.438 34.650 153.936 C 28.584 150.434 23.548 145.398 20.046 139.332 C 19.494 138.376 18.700 137.582 17.744 137.030 C 16.788 136.479 15.704 136.188 14.600 136.188 C 13.793 136.188 12.999 136.401 12.300 136.804 C 11.601 137.208 11.020 137.789 10.616 138.488 C 10.213 139.187 10.000 139.981 10.000 140.788 V 162.382 C 10.000 162.437 10.045 162.482 10.100 162.482 Z" stroke="rgb(0,0,0)" stroke-width="0.20" />
</g>
<g id="p-3" style="fill:none;stroke-linecap:round;stroke-linejoin:round;">
  <path d="M 10.100 131.688 H 12.950 C 13.005 131.688 13.050 131.643 13.050 131.588 V 125.688 C 13.050 125.588 12.950 125.688 13.050 125.688 H 16.150 C 16.250 125.688 16.150 125.588 16.150 125.688 V 131.588 C 16.150 131.643 16.195 131.688 16.250 131.688 H 19.100 C 19.155 131.688 19.200 131.643 19.200 131.588 V 128.688 C 19.200 128.588 19.100 128.688 19.200 128.688 H 22.000 C 22.100 128.688 22.000 128.588 22.000 128.688 V 131.588 C 22.000 131.643 22.045 131.688 22.100 131.688 H 87.100 C 87.155 131.688 87.200 131.643 87.200 131.588 V 128.688 C 87.200 128.588 87.100 128.688 87.200 128.688 H 90.000 C 90.100 128.688 90.000 128.588 90.000 128.688 V 131.588 C 90.000 131.643 90.045 131.688 90.100 131.688 H 92.950 C 93.005 131.688 93.050 131.643 93.050 131.588 V 125.688 C 93.050 125.588 92.950 125.688 93.050 125.688 H 96.150 C 96.250 125.688 96.150 125.588 96.150 125.688 V 131.588 C 96.150 131.643 96.195 131.688 96.250 131.688 H 167.100 C 167.155 131.688 167.200 131.643 167.200 131.588 V 128.688 C 167.200 128.588 167.100 128.688 167.200 128.688 H 170.000 C 170.100 128.688 170.000 128.588 170.000 128.688 V 131.588 C 170.000 131.643 170.045 131.688 170.100 131.688 H 172.950 C 173.005 131.688 173.050 131.643 173.050 131.588 V 125.688 C 173.050 125.588 172.950 125.688 173.050 125.688 H 176.150 C 176.250 125.688 176.150 125.588 176.150 125.688 V 131.588 C 176.150 131.643 176.195 131.688 176.250 131.688 H 247.100 C 247.155 131.688 247.200 131.643 247.200 131.588 V 128.688 C 247.200 128.588 247.100 128.688 247.200 128.688 H 250.000 C 250.100 128.688 250.000 128.588 250.000 128.688 V 131.588 C 250.000 131.643 250.045 131.688 250.100 131.688 H 252.950 C 253.005 131.688 253.050 131.643 253.050 131.588 V 125.688 C 253.050 125.588 252.950 125.688 253.050 125.688 H 256.150 C 256.250 125.688 256.150 125.588 256.150 125.688 V 131.588 C 256.150 131.643 256.195 131.688 256.250 131.688 H 259.100 C 259.155 131.688 259.200 131.643 259.200 131.588 V 109.994 C 259.200 109.187 258.987 108.393 258.584 107.694 C 258.180 106.995 257.599 106.414 256.900 106.010 C 256.201 105.607 255.407 105.394 254.600 105.394 C 253.496 105.394 252.412 105.685 251.456 106.236 C 250.500 106.788 249.706 107.582 249.154 108.538 C 245.652 114.604 240.616 119.640 234.550 123.142 C 228.484 126.644 221.604 128.488 214.600 128.488 C 207.596 128.488 200.716 126.644 194.650 123.142 C 188.584 119.640 183.548 114.604 180.046 108.538 C 179.494 107.582 178.700 106.788 177.744 106.236 C 176.788 105.685 175.704 105.394 174.600 105.394 C 173.496 105.394 172.412 105.685 171.456 106.236 C 170.500 106.788 169.706 107.582 169.154 108.538 C 165.652 114.604 160.616 119.640 154.550 123.142 C 148.484 126.644 141.604 128.488 134.600 128.488 C 127.596 128.488 120.716 126.644 114.650 123.142 C 108.584 119.640 103.548 114.604 100.046 108.538 C 99.494 107.582 98.700 106.788 97.744 106.236 C 96.788 105.685 95.704 105.394 94.600 105.394 C 93.496 105.394 92.412 105.685 91.456 106.236 C 90.500 106.788 89.706 107.582 89.154 108.538 C 85.652 114.604 80.616 119.640 74.550 123.142 C 68.484 126.644 61.604 128.488 54.600 128.488 C 47.596 128.488 40.716 126.644 34.650 123.142 C 28.584 119.640 23.548 114.604 20.046 108.538 C 19.494 107.582 18.700 106.788 17.744 106.236 C 16.788 105.685 15.704 105.394 14.600 105.394 C 13.793 105.394 12.999 105.607 12.300 106.010 C 11.601 106.414 11.020 106.995 10.616 107.694 C 10.213 108.393 10.000 109.187 10.000 109.994 V 131.588 C 10.000 131.643 10.045 131.688 10.100 131.688 Z" stroke="rgb(0,0,0)" stroke-width="0.20" />
</g>
<g id="p-4" style="fill:none;stroke-linecap:round;stroke-linejoin:round;">
  <path d="M 10.100 100.894 H 12.950 C 13.005 100.894 13.050 100.849 13.050 100.794 V 94.894 C 13.050 94.794 12.950 94.894 13.050 94.894 H 16.150 C 16.250 94.894 16.150 94.794 16.150 94.894 V 100.794 C 16.150 100.849 16.195 100.894 16.250 100.894 H 19.100 C 19.155 100.894 19.200 100.849 19.200 100.794 V 97.894 C 19.200 97.794 19.100 97.894 19.200 97.894 H 22.000 C 22.100 97.894 22.000 97.794 22.000 97.894 V 100.794 C 22.000 100.849 22.045 100.894 22.100 100.894 H 87.100 C 87.155 100.894 87.200 100.849 87.200 100.794 V 97.894 C 87.200 97.794 87.100 97.894 87.200 97.894 H 90.000 C 90.100 97.894 90.000 97.794 90.000 97.894 V 100.794 C 90.000 100.849 90.045 100.894 90.100 100.894 H 92.950 C 93.005 100.894 93.050 100.849 93.050 100.794 V 94.894 C 93.050 94.794 92.950 94.894 93.050 94.894 H 96.150 C 96.250 94.894 96.150 94.794 96.150 94.894 V 100.794 C 96.150 100.849 96.195 100.894 96.250 100.894 H 167.100 C 167.155 100.894 167.200 100.849 167.200 100.794 V 97.894 C 167.200 97.794 167.100 97.894 167.200 97.894 H 170.000 C 170.100 97.894 170.000 97.794 170.000 97.894 V 100.794 C 170.000 100.849 170.045 100.894 170.100 100.894 H 172.950 C 173.005 100.894 173.050 100.849 173.050 100.794 V 94.894 C 173.050 94.794 172.950 94.894 173.050 94.894 H 176.150 C 176.250 94.894 176.150 94.794 176.150 94.894 V 100.794 C 176.150 100.849 176.195 100.894 176.250 100.894 H 247.100 C 247.155 100.894 247.200 100.849 247.200 100.794 V 97.894 C 247.200 97.794 247.100 97.894 247.200 97.894 H 250.000 C 250.100 97.894 250.000 97.794 250.000 97.894 V 100.794 C 250.000 100.849 250.045 100.894 250.100 100.894 H 252.950 C 253.005 100.894 253.050 100.849 253.050 100.794 V 94.894 C 253.050 94.794 252.950 94.894 253.050 94.894 H 256.150 C 256.250 94.894 256.150 94.794 256.150 94.894 V 100.794 C 256.150 100.849 256.195 100.894 256.250 100.894 H 259.100 C 259.155 100.894 259.200 100.849 259.200 100.794 V 79.200 C 259.200 78.393 258.987 77.599 258.584 76.900 C 258.180 76.201 257.599 75.620 256.900 75.216 C 256.201 74.813 255.407 74.600 254.600 74.600 C 253.496 74.600 252.412 74.891 251.456 75.442 C 250.500 75.994 249.706 76.788 249.154 77.744 C 245.652 83.810 240.616 88.846 234.550 92.348 C 228.484 95.850 221.604 97.694 214.600 97.694 C 207.596 97.694 200.716 95.850 194.650 92.348 C 188.584 88.846 183.548 83.810 180.046 77.744 C 179.494 76.788 178.700 75.994 177.744 75.442 C 176.788 74.891 175.704 74.600 174.600 74.600 C 173.496 74.600 172.412 74.891 171.456 75.442 C 170.500 75.994 169.706 76.788 169.154 77.744 C 165.652 83.810 160.616 88.846 154.550 92.348 C 148.484 95.850 141.604 97.694 134.600 97.694 C 127.596 97.694 120.716 95.850 114.650 92.348 C 108.584 88.846 103.548 83.810 100.046 77.744 C 99.494 76.788 98.700 75.994 97.744 75.442 C 96.788 74.891 95.704 74.600 94.600 74.600 C 93.496 74.600 92.412 74.891 91.456 75.442 C 90.500 75.994 89.706 76.788 89.154 77.744 C 85.652 83.810 80.616 88.846 74.550 92.348 C 68.484 95.850 61.604 97.694 54.600 97.694 C 47.596 97.694 40.716 95.850 34.650 92.348 C 28.584 88.846 23.548 83.810 20.046 77.744 C 19.494 76.788 18.700 75.994 17.744 75.442 C 16.788 74.891 15.704 74.600 14.600 74.600 C 13.793 74.600 12.999 74.813 12.300 75.216 C 11.601 75.620 11.020 76.201 10.616 76.900 C 10.213 77.599 10.000 78.393 10.000 79.200 V 100.794 C 10.000 100.849 10.045 100.894 10.100 100.894 Z" stroke="rgb(0,0,0)" stroke-width="0.20" />
</g>
<g id="p-5" style="fill:none;stroke-linecap:round;stroke-linejoin:round;">
  <path d="M 13.100 70.100 H 93.100 C 93.644 70.100 94.179 69.957 94.650 69.685 C 95.121 69.413 95.513 69.021 95.785 68.550 C 96.057 68.079 96.200 67.544 96.200 67.000 C 96.200 66.456 96.057 65.921 95.785 65.450 C 95.513 64.979 95.121 64.587 94.650 64.315 C 94.179 64.043 93.644 63.900 93.100 63.900 C 93.045 63.900 93.000 63.945 93.000 64.000 V 66.900 C 93.000 67.000 93.100 66.900 93.000 66.900 H 90.200 C 90.100 66.900 90.200 67.000 90.200 66.900 V 64.000 C 90.200 63.945 90.155 63.900 90.100 63.900 H 16.100 C 16.045 63.900 16.000 63.945 16.000 64.000 V 66.900 C 16.000 67.000 16.100 66.900 16.000 66.900 H 13.200 C 13.100 66.900 13.200 67.000 13.200 66.900 V 64.000 C 13.200 63.945 13.155 63.900 13.100 63.900 C 12.556 63.900 12.021 64.043 11.550 64.315 C 11.079 64.587 10.687 64.979 10.415 65.450 C 10.143 65.921 10.000 66.456 10.000 67.000 C 10.000 67.544 10.143 68.079 10.415 68.550 C 10.687 69.021 11.079 69.413 11.550 69.685 C 12.021 69.957 12.556 70.100 13.100 70.100 Z" stroke="rgb(0,0,0)" stroke-width="0.20" />
</g>
<g id="p-6" style="fill:none;stroke-linecap:round;stroke-linejoin:round;">
  <path d="M 13.100 62.400 H 93.100 C 93.644 62.400 94.179 62.257 94.650 61.985 C 95.121 61.713 95.513 61.321 95.785 60.850 C 96.057 60.379 96.200 59.844 96.200 59.300 C 96.200 58.756 96.057 58.221 95.785 57.750 C 95.513 57.279 95.121 56.887 94.650 56.615 C 94.179 56.343 93.644 56.200 93.100 56.200 C 93.045 56.200 93.000 56.245 93.000 56.300 V 59.200 C 93.000 59.300 93.100 59.200 93.000 59.200 H 90.200 C 90.100 59.200 90.200 59.300 90.200 59.200 V 56.300 C 90.200 56.245 90.155 56.200 90.100 56.200 H 16.100 C 16.045 56.200 16.000 56.245 16.000 56.300 V 59.200 C 16.000 59.300 16.100 59.200 16.000 59.200 H 13.200 C 13.100 59.200 13.200 59.300 13.200 59.200 V 56.300 C 13.200 56.245 13.155 56.200 13.100 56.200 C 12.556 56.200 12.021 56.343 11.550 56.615 C 11.079 56.887 10.687 57.279 10.415 57.750 C 10.143 58.221 10.000 58.756 10.000 59.300 C 10.000 59.844 10.143 60.379 10.415 60.850 C 10.687 61.321 11.079 61.713 11.550 61.985 C 12.021 62.257 12.556 62.400 13.100 62.400 Z" stroke="rgb(0,0,0)" stroke-width="0.20" />
</g>
<g id="p-7" style="fill:none;stroke-linecap:round;stroke-linejoin:round;">
  <path d="M 13.100 54.700 H 93.100 C 93.644 54.700 94.179 54.557 94.650 54.285 C 95.121 54.013 95.513 53.621 95.785 53.150 C 96.057 52.679 96.200 52.144 96.200 51.600 C 96.200 51.056 96.057 50.521 95.785 50.050 C 95.513 49.579 95.121 49.187 94.650 48.915 C 94.179 48.643 93.644 48.500 93.100 48.500 C 93.045 48.500 93.000 48.545 93.000 48.600 V 51.500 C 93.000 51.600 93.100 51.500 93.000 51.500 H 90.200 C 90.100 51.500 90.200 51.600 90.200 51.500 V 48.600 C 90.200 48.545 90.155 48.500 90.100 48.500 H 16.100 C 16.045 48.500 16.000 48.545 16.000 48.600 V 51.500 C 16.000 51.600 16.100 51.500 16.000 51.500 H 13.200 C 13.100 51.500 13.200 51.600 13.200 51.500 V 48.600 C 13.200 48.545 13.155 48.500 13.100 48.500 C 12.556 48.500 12.021 48.643 11.550 48.915 C 11.079 49.187 10.687 49.579 10.415 50.050 C 10.143 50.521 10.000 51.056 10.000 51.600 C 10.000 52.144 10.143 52.679 10.415 53.150 C 10.687 53.621 11.079 54.013 11.550 54.285 C 12.021 54.557 12.556 54.700 13.100 54.700 Z" stroke="rgb(0,0,0)" stroke-width="0.20" />
</g>
<g id="p-8" style="fill:none;stroke-linecap:round;stroke-linejoin:round;">
  <path d="M 13.100 47.000 H 93.100 C 93.644 47.000 94.179 46.857 94.650 46.585 C 95.121 46.313 95.513 45.921 95.785 45.450 C 96.057 44.979 96.200 44.444 96.200 43.900 C 96.200 43.356 96.057 42.821 95.785 42.350 C 95.513 41.879 95.121 41.487 94.650 41.215 C 94.179 40.943 93.644 40.800 93.100 40.800 C 93.045 40.800 93.000 40.845 93.000 40.900 V 43.800 C 93.000 43.900 93.100 43.800 93.000 43.800 H 90.200 C 90.100 43.800 90.200 43.900 90.200 43.800 V 40.900 C 90.200 40.845 90.155 40.800 90.100 40.800 H 16.100 C 16.045 40.800 16.000 40.845 16.000 40.900 V 43.800 C 16.000 43.900 16.100 43.800 16.000 43.800 H 13.200 C 13.100 43.800 13.200 43.900 13.200 43.800 V 40.900 C 13.200 40.845 13.155 40.800 13.100 40.800 C 12.556 40.800 12.021 40.943 11.550 41.215 C 11.079 41.487 10.687 41.879 10.415 42.350 C 10.143 42.821 10.000 43.356 10.000 43.900 C 10.000 44.444 10.143 44.979 10.415 45.450 C 10.687 45.921 11.079 46.313 11.550 46.585 C 12.021 46.857 12.556 47.000 13.100 47.000 Z" stroke="rgb(0,0,0)" stroke-width="0.20" />
</g>
<g id="p-9" style="fill:none;stroke-linecap:round;stroke-linejoin:round;">
  <path d="M 13.100 39.300 H 84.100 C 84.155 39.300 84.200 39.255 84.200 39.200 V 36.200 C 84.200 36.145 84.155 36.100 84.100 36.100 H 81.200 C 81.100 36.100 81.200 36.200 81.200 36.100 V 33.200 C 81.200 33.145 81.155 33.100 81.100 33.100 H 16.100 C 16.045 33.100 16.000 33.145 16.000 33.200 V 36.100 C 16.000 36.200 16.100 36.100 16.000 36.100 H 13.100 C 13.045 36.100 13.000 36.145 13.000 36.200 V 39.200 C 13.000 39.255 13.045 39.300 13.100 39.300 Z" stroke="rgb(0,0,0)" stroke-width="0.20" />
</g>
<g id="p-10" style="fill:none;stroke-linecap:round;stroke-linejoin:round;">
  <path d="M 13.100 31.600 H 84.100 C 84.155 31.600 84.200 31.555 84.200 31.500 V 28.500 C 84.200 28.445 84.155 28.400 84.100 28.400 H 81.200 C 81.100 28.400 81.200 28.500 81.200 28.400 V 25.500 C 81.200 25.445 81.155 25.400 81.100 25.400 H 16.100 C 16.045 25.400 16.000 25.445 16.000 25.500 V 28.400 C 16.000 28.500 16.100 28.400 16.000 28.400 H 13.100 C 13.045 28.400 13.000 28.445 13.000 28.500 V 31.500 C 13.000 31.555 13.045 31.600 13.100 31.600 Z" stroke="rgb(0,0,0)" stroke-width="0.20" />
</g>
<g id="p-11" style="fill:none;stroke-linecap:round;stroke-linejoin:round;">
  <path d="M 13.100 23.900 H 84.100 C 84.155 23.900 84.200 23.855 84.200 23.800 V 20.800 C 84.200 20.745 84.155 20.700 84.100 20.700 H 81.200 C 81.100 20.700 81.200 20.800 81.200 20.700 V 17.800 C 81.200 17.745 81.155 17.700 81.100 17.700 H 16.100 C 16.045 17.700 16.000 17.745 16.000 17.800 V 20.700 C 16.000 20.800 16.100 20.700 16.000 20.700 H 13.100 C 13.045 20.700 13.000 20.745 13.000 20.800 V 23.800 C 13.000 23.855 13.045 23.900 13.100 23.900 Z" stroke="rgb(0,0,0)" stroke-width="0.20" />
</g>
<g id="p-12" style="fill:none;stroke-linecap:round;stroke-linejoin:round;">
  <path d="M 13.100 16.200 H 84.100 C 84.155 16.200 84.200 16.155 84.200 16.100 V 13.100 C 84.200 13.045 84.155 13.000 84.100 13.000 H 81.200 C 81.100 13.000 81.200 13.100 81.200 13.000 V 10.100 C 81.200 10.045 81.155 10.000 81.100 10.000 H 16.100 C 16.045 10.000 16.000 10.045 16.000 10.100 V 13.000 C 16.000 13.100 16.100 13.000 16.000 13.000 H 13.100 C 13.045 13.000 13.000 13.045 13.000 13.100 V 16.100 C 13.000 16.155 13.045 16.200 13.100 16.200 Z" stroke="rgb(0,0,0)" stroke-width="0.20" />
</g>
</svg>