<?xml version="1.0" encoding="UTF-8"?>
<svg xmlns="http://www.w3.org/2000/svg" xmlns:xlink="http://www.w3.org/1999/xlink" width="1082.834646pt" height="1247.244064pt" viewBox="0 0 1082.834646 1247.244064" version="1.1">
<g id="surface1">
<path style=" stroke:none;fill-rule:nonzero;fill:rgb(100%,100%,100%);fill-opacity:1;" d="M 0 1247.242188 L 3069.453125 1247.242188 L 3069.453125 -2288.253906 L 0 -2288.253906 Z "/>
<path style="fill:none;stroke-width:0.1;stroke-linecap:butt;stroke-linejoin:miter;stroke:rgb(0%,0%,0%);stroke-opacity:1;stroke-miterlimit:10;" d="M 2.100575 2.099859 L 6.099642 2.099859 M 6.099642 2.099859 L 22.100043 2.099859 C 22.127604 2.099859 22.149653 2.121908 22.149653 2.149468 M 22.149653 2.149468 L 22.149653 6.149913 C 22.149653 6.122353 22.127604 6.100304 22.100043 6.100304 M 22.100043 6.100304 L 34.1 6.100304 C 34.072439 6.100304 34.050391 6.122353 34.050391 6.149913 M 34.050391 6.149913 L 34.050391 2.149468 C 34.050391 2.121908 34.072439 2.099859 34.1 2.099859 M 34.1 2.099859 L 46.099957 2.099859 C 46.127517 2.099859 46.149566 2.121908 46.149566 2.149468 M 46.149566 2.149468 L 46.149566 6.149913 C 46.149566 6.122353 46.127517 6.100304 46.099957 6.100304 M 46.099957 6.100304 L 58.099913 6.100304 C 58.072352 6.100304 58.050304 6.122353 58.050304 6.149913 M 58.050304 6.149913 L 58.050304 2.149468 C 58.050304 2.121908 58.072352 2.099859 58.099913 2.099859 M 58.099913 2.099859 L 70.09987 2.099859 C 70.127431 2.099859 70.149479 2.121908 70.149479 2.149468 M 70.149479 2.149468 L 70.149479 6.149913 C 70.149479 6.122353 70.127431 6.100304 70.09987 6.100304 M 70.09987 6.100304 L 82.099826 6.100304 C 82.072266 6.100304 82.050217 6.122353 82.050217 6.149913 M 82.050217 6.149913 L 82.050217 2.149468 C 82.050217 2.121908 82.072266 2.099859 82.099826 2.099859 M 82.099826 2.099859 L 94.099783 2.099859 C 94.127344 2.099859 94.149392 2.121908 94.149392 2.149468 M 94.149392 2.149468 L 94.149392 6.149913 C 94.149392 6.122353 94.127344 6.100304 94.099783 6.100304 M 94.099783 6.100304 L 106.09974 6.100304 C 106.072179 6.100304 106.05013 6.122353 106.05013 6.149913 M 106.05013 6.149913 L 106.05013 2.149468 C 106.05013 2.121908 106.072179 2.099859 106.09974 2.099859 M 106.09974 2.099859 L 118.099696 2.099859 C 118.127257 2.099859 118.149306 2.121908 118.149306 2.149468 M 118.149306 2.149468 L 118.149306 6.149913 C 118.149306 6.122353 118.127257 6.100304 118.099696 6.100304 M 118.099696 6.100304 L 130.099653 6.100304 C 130.072092 6.100304 130.050043 6.122353 130.050043 6.149913 M 130.050043 6.149913 L 130.050043 2.149468 C 130.050043 2.121908 130.072092 2.099859 130.099653 2.099859 M 130.099653 2.099859 L 146.100054 2.099859 M 146.100054 2.099859 L 150.100499 2.099859 C 150.12806 2.099859 150.150109 2.121908 150.150109 2.149468 M 150.150109 2.149468 L 150.150109 6.149913 M 150.150109 6.149913 L 150.150109 13.150347 C 150.150109 13.177908 150.12806 13.199957 150.100499 13.199957 M 150.100499 13.199957 L 146.100054 13.199957 C 146.127615 13.199957 146.149664 13.177908 146.149664 13.150347 M 146.149664 13.150347 L 146.149664 25.150304 C 146.149664 25.122743 146.127615 25.100695 146.100054 25.100695 M 146.100054 25.100695 L 150.100499 25.100695 C 150.12806 25.100695 150.150109 25.122743 150.150109 25.150304 M 150.150109 25.150304 L 150.150109 37.150261 C 150.150109 37.177821 150.12806 37.19987 150.100499 37.19987 M 150.100499 37.19987 L 146.100054 37.19987 C 146.127615 37.19987 146.149664 37.177821 146.149664 37.150261 M 146.149664 37.150261 L 146.149664 49.150217 C 146.149664 49.122656 146.127615 49.100608 146.100054 49.100608 M 146.100054 49.100608 L 150.100499 49.100608 C 150.12806 49.100608 150.150109 49.122656 150.150109 49.150217 M 150.150109 49.150217 L 150.150109 56.150651 M 150.150109 56.150651 L 150.150109 60.151096 C 150.150109 60.178657 150.12806 60.200705 150.100499 60.200705 M 150.100499 60.200705 L 146.100054 60.200705 M 146.100054 60.200705 L 130.099653 60.200705 C 130.072092 60.200705 130.050043 60.178657 130.050043 60.151096 M 130.050043 60.151096 L 130.050043 56.150651 C 130.050043 56.178212 130.072092 56.200261 130.099653 56.200261 M 130.099653 56.200261 L 118.099696 56.200261 C 118.127257 56.200261 118.149306 56.178212 118.149306 56.150651 M 118.149306 56.150651 L 118.149306 60.151096 C 118.149306 60.178657 118.127257 60.200705 118.099696 60.200705 M 118.099696 60.200705 L 106.09974 60.200705 C 106.072179 60.200705 106.05013 60.178657 106.05013 60.151096 M 106.05013 60.151096 L 106.05013 56.150651 C 106.05013 56.178212 106.072179 56.200261 106.09974 56.200261 M 106.09974 56.200261 L 94.099783 56.200261 C 94.127344 56.200261 94.149392 56.178212 94.149392 56.150651 M 94.149392 56.150651 L 94.149392 60.151096 C 94.149392 60.178657 94.127344 60.200705 94.099783 60.200705 M 94.099783 60.200705 L 82.099826 60.200705 C 82.072266 60.200705 82.050217 60.178657 82.050217 60.151096 M 82.050217 60.151096 L 82.050217 56.150651 C 82.050217 56.178212 82.072266 56.200261 82.099826 56.200261 M 82.099826 56.200261 L 70.09987 56.200261 C 70.127431 56.200261 70.149479 56.178212 70.149479 56.150651 M 70.149479 56.150651 L 70.149479 60.151096 C 70.149479 60.178657 70.127431 60.200705 70.09987 60.200705 M 70.09987 60.200705 L 58.099913 60.200705 C 58.072352 60.200705 58.050304 60.178657 58.050304 60.151096 M 58.050304 60.151096 L 58.050304 56.150651 C 58.050304 56.178212 58.072352 56.200261 58.099913 56.200261 M 58.099913 56.200261 L 46.099957 56.200261 C 46.127517 56.200261 46.149566 56.178212 46.149566 56.150651 M 46.149566 56.150651 L 46.149566 60.151096 C 46.149566 60.178657 46.127517 60.200705 46.099957 60.200705 M 46.099957 60.200705 L 34.1 60.200705 C 34.072439 60.200705 34.050391 60.178657 34.050391 60.151096 M 34.050391 60.151096 L 34.050391 56.150651 C 34.050391 56.178212 34.072439 56.200261 34.1 56.200261 M 34.1 56.200261 L 22.100043 56.200261 C 22.127604 56.200261 22.149653 56.178212 22.149653 56.150651 M 22.149653 56.150651 L 22.149653 60.151096 C 22.149653 60.178657 22.127604 60.200705 22.100043 60.200705 M 22.100043 60.200705 L 6.099642 60.200705 M 6.099642 60.200705 L 2.099197 60.200705 C 2.071636 60.200705 2.049588 60.178657 2.049588 60.151096 M 2.049588 60.151096 L 2.049588 56.150651 M 2.049588 56.150651 L 2.049588 49.150217 C 2.049588 49.122656 2.071636 49.100608 2.099197 49.100608 M 2.099197 49.100608 L 6.099642 49.100608 C 6.072081 49.100608 6.050033 49.122656 6.050033 49.150217 M 6.050033 49.150217 L 6.050033 37.150261 C 6.050033 37.177821 6.072081 37.19987 6.099642 37.19987 M 6.099642 37.19987 L 2.099197 37.19987 C 2.071636 37.19987 2.049588 37.177821 2.049588 37.150261 M 2.049588 37.150261 L 2.049588 25.150304 C 2.049588 25.122743 2.071636 25.100695 2.099197 25.100695 M 2.099197 25.100695 L 6.099642 25.100695 C 6.072081 25.100695 6.050033 25.122743 6.050033 25.150304 M 6.050033 25.150304 L 6.050033 13.150347 C 6.050033 13.177908 6.072081 13.199957 6.099642 13.199957 M 6.099642 13.199957 L 2.099197 13.199957 C 2.071636 13.199957 2.049588 13.177908 2.049588 13.150347 M 2.049588 13.150347 L 2.049588 6.149913 M 2.049588 6.149913 L 2.049588 2.149468 C 2.049588 2.121908 2.071636 2.099859 2.099197 2.099859 " transform="matrix(2.834646,0,0,-2.834646,11.338583,1235.905481)"/>
<path style="fill:none;stroke-width:0.1;stroke-linecap:butt;stroke-linejoin:miter;stroke:rgb(0%,0%,0%);stroke-opacity:1;stroke-miterlimit:10;" d="M 6.099826 2.099859 L 6.099826 2.099859 M 6.099826 2.099859 L 17.099327 2.099859 C 17.126888 2.099859 17.148937 2.121908 17.148937 2.149468 M 17.148937 2.149468 L 17.148937 6.149913 C 17.148937 6.122353 17.126888 6.100304 17.099327 6.100304 M 17.099327 6.100304 L 29.099284 6.100304 C 29.071723 6.100304 29.049674 6.122353 29.049674 6.149913 M 29.049674 6.149913 L 29.049674 2.149468 C 29.049674 2.121908 29.071723 2.099859 29.099284 2.099859 M 29.099284 2.099859 L 41.09924 2.099859 C 41.126801 2.099859 41.14885 2.121908 41.14885 2.149468 M 41.14885 2.149468 L 41.14885 6.149913 C 41.14885 6.122353 41.126801 6.100304 41.09924 6.100304 M 41.09924 6.100304 L 53.099197 6.100304 C 53.071636 6.100304 53.049588 6.122353 53.049588 6.149913 M 53.049588 6.149913 L 53.049588 2.149468 C 53.049588 2.121908 53.071636 2.099859 53.099197 2.099859 M 53.099197 2.099859 L 65.099154 2.099859 C 65.126714 2.099859 65.148763 2.121908 65.148763 2.149468 M 65.148763 2.149468 L 65.148763 6.149913 C 65.148763 6.122353 65.126714 6.100304 65.099154 6.100304 M 65.099154 6.100304 L 77.09911 6.100304 C 77.071549 6.100304 77.049501 6.122353 77.049501 6.149913 M 77.049501 6.149913 L 77.049501 2.149468 C 77.049501 2.121908 77.071549 2.099859 77.09911 2.099859 M 77.09911 2.099859 L 89.099067 2.099859 C 89.126628 2.099859 89.148676 2.121908 89.148676 2.149468 M 89.148676 2.149468 L 89.148676 6.149913 C 89.148676 6.122353 89.126628 6.100304 89.099067 6.100304 M 89.099067 6.100304 L 101.099023 6.100304 C 101.071463 6.100304 101.049414 6.122353 101.049414 6.149913 M 101.049414 6.149913 L 101.049414 2.149468 C 101.049414 2.121908 101.071463 2.099859 101.099023 2.099859 M 101.099023 2.099859 L 113.09898 2.099859 C 113.126541 2.099859 113.148589 2.121908 113.148589 2.149468 M 113.148589 2.149468 L 113.148589 6.149913 C 113.148589 6.122353 113.126541 6.100304 113.09898 6.100304 M 113.09898 6.100304 L 125.098937 6.100304 C 125.071376 6.100304 125.049327 6.122353 125.049327 6.149913 M 125.049327 6.149913 L 125.049327 2.149468 C 125.049327 2.121908 125.071376 2.099859 125.098937 2.099859 M 125.098937 2.099859 L 137.098893 2.099859 C 137.126454 2.099859 137.148503 2.121908 137.148503 2.149468 M 137.148503 2.149468 L 137.148503 6.149913 C 137.148503 6.122353 137.126454 6.100304 137.098893 6.100304 M 137.098893 6.100304 L 149.09885 6.100304 C 149.071289 6.100304 149.04924 6.122353 149.04924 6.149913 M 149.04924 6.149913 L 149.04924 2.149468 C 149.04924 2.121908 149.071289 2.099859 149.09885 2.099859 M 149.09885 2.099859 L 161.098806 2.099859 C 161.126367 2.099859 161.148416 2.121908 161.148416 2.149468 M 161.148416 2.149468 L 161.148416 6.149913 C 161.148416 6.122353 161.126367 6.100304 161.098806 6.100304 M 161.098806 6.100304 L 173.098763 6.100304 C 173.071202 6.100304 173.049154 6.122353 173.049154 6.149913 M 173.049154 6.149913 L 173.049154 2.149468 C 173.049154 2.121908 173.071202 2.099859 173.098763 2.099859 M 173.098763 2.099859 L 185.09872 2.099859 C 185.12628 2.099859 185.148329 2.121908 185.148329 2.149468 M 185.148329 2.149468 L 185.148329 6.149913 C 185.148329 6.122353 185.12628 6.100304 185.09872 6.100304 M 185.09872 6.100304 L 197.098676 6.100304 C 197.071115 6.100304 197.049067 6.122353 197.049067 6.149913 M 197.049067 6.149913 L 197.049067 2.149468 C 197.049067 2.121908 197.071115 2.099859 197.098676 2.099859 M 197.098676 2.099859 L 208.098177 2.099859 M 208.098177 2.099859 C 208.125738 2.099859 208.147786 2.121908 208.147786 2.149468 M 208.147786 2.149468 L 208.147786 6.149913 M 208.147786 6.149913 L 208.147786 13.150347 C 208.147786 13.122787 208.125738 13.100738 208.098177 13.100738 M 208.098177 13.100738 L 212.098622 13.100738 C 212.126183 13.100738 212.148231 13.122787 212.148231 13.150347 M 212.148231 13.150347 L 212.148231 25.150304 C 212.148231 25.177865 212.126183 25.199913 212.098622 25.199913 M 212.098622 25.199913 L 208.098177 25.199913 C 208.125738 25.199913 208.147786 25.177865 208.147786 25.150304 M 208.147786 25.150304 L 208.147786 37.150261 C 208.147786 37.1227 208.125738 37.100651 208.098177 37.100651 M 208.098177 37.100651 L 212.098622 37.100651 C 212.126183 37.100651 212.148231 37.1227 212.148231 37.150261 M 212.148231 37.150261 L 212.148231 49.150217 C 212.148231 49.177778 212.126183 49.199826 212.098622 49.199826 M 212.098622 49.199826 L 208.098177 49.199826 C 208.125738 49.199826 208.147786 49.177778 208.147786 49.150217 M 208.147786 49.150217 L 208.147786 56.150651 M 208.147786 56.150651 L 208.147786 60.151096 C 208.147786 60.178657 208.125738 60.200705 208.098177 60.200705 M 208.098177 60.200705 L 208.098177 60.200705 M 208.098177 60.200705 L 197.098676 60.200705 C 197.071115 60.200705 197.049067 60.178657 197.049067 60.151096 M 197.049067 60.151096 L 197.049067 56.150651 C 197.049067 56.178212 197.071115 56.200261 197.098676 56.200261 M 197.098676 56.200261 L 185.09872 56.200261 C 185.12628 56.200261 185.148329 56.178212 185.148329 56.150651 M 185.148329 56.150651 L 185.148329 60.151096 C 185.148329 60.178657 185.12628 60.200705 185.09872 60.200705 M 185.09872 60.200705 L 173.098763 60.200705 C 173.071202 60.200705 173.049154 60.178657 173.049154 60.151096 M 173.049154 60.151096 L 173.049154 56.150651 C 173.049154 56.178212 173.071202 56.200261 173.098763 56.200261 M 173.098763 56.200261 L 161.098806 56.200261 C 161.126367 56.200261 161.148416 56.178212 161.148416 56.150651 M 161.148416 56.150651 L 161.148416 60.151096 C 161.148416 60.178657 161.126367 60.200705 161.098806 60.200705 M 161.098806 60.200705 L 149.09885 60.200705 C 149.071289 60.200705 149.04924 60.178657 149.04924 60.151096 M 149.04924 60.151096 L 149.04924 56.150651 C 149.04924 56.178212 149.071289 56.200261 149.09885 56.200261 M 149.09885 56.200261 L 137.098893 56.200261 C 137.126454 56.200261 137.148503 56.178212 137.148503 56.150651 M 137.148503 56.150651 L 137.148503 60.151096 C 137.148503 60.178657 137.126454 60.200705 137.098893 60.200705 M 137.098893 60.200705 L 125.098937 60.200705 C 125.071376 60.200705 125.049327 60.178657 125.049327 60.151096 M 125.049327 60.151096 L 125.049327 56.150651 C 125.049327 56.178212 125.071376 56.200261 125.098937 56.200261 M 125.098937 56.200261 L 113.09898 56.200261 C 113.126541 56.200261 113.148589 56.178212 113.148589 56.150651 M 113.148589 56.150651 L 113.148589 60.151096 C 113.148589 60.178657 113.126541 60.200705 113.09898 60.200705 M 113.09898 60.200705 L 101.099023 60.200705 C 101.071463 60.200705 101.049414 60.178657 101.049414 60.151096 M 101.049414 60.151096 L 101.049414 56.150651 C 101.049414 56.178212 101.071463 56.200261 101.099023 56.200261 M 101.099023 56.200261 L 89.099067 56.200261 C 89.126628 56.200261 89.148676 56.178212 89.148676 56.150651 M 89.148676 56.150651 L 89.148676 60.151096 C 89.148676 60.178657 89.126628 60.200705 89.099067 60.200705 M 89.099067 60.200705 L 77.09911 60.200705 C 77.071549 60.200705 77.049501 60.178657 77.049501 60.151096 M 77.049501 60.151096 L 77.049501 56.150651 C 77.049501 56.178212 77.071549 56.200261 77.09911 56.200261 M 77.09911 56.200261 L 65.099154 56.200261 C 65.126714 56.200261 65.148763 56.178212 65.148763 56.150651 M 65.148763 56.150651 L 65.148763 60.151096 C 65.148763 60.178657 65.126714 60.200705 65.099154 60.200705 M 65.099154 60.200705 L 53.099197 60.200705 C 53.071636 60.200705 53.049588 60.178657 53.049588 60.151096 M 53.049588 60.151096 L 53.049588 56.150651 C 53.049588 56.178212 53.071636 56.200261 53.099197 56.200261 M 53.099197 56.200261 L 41.09924 56.200261 C 41.126801 56.200261 41.14885 56.178212 41.14885 56.150651 M 41.14885 56.150651 L 41.14885 60.151096 C 41.14885 60.178657 41.126801 60.200705 41.09924 60.200705 M 41.09924 60.200705 L 29.099284 60.200705 C 29.071723 60.200705 29.049674 60.178657 29.049674 60.151096 M 29.049674 60.151096 L 29.049674 56.150651 C 29.049674 56.178212 29.071723 56.200261 29.099284 56.200261 M 29.099284 56.200261 L 17.099327 56.200261 C 17.126888 56.200261 17.148937 56.178212 17.148937 56.150651 M 17.148937 56.150651 L 17.148937 60.151096 C 17.148937 60.178657 17.126888 60.200705 17.099327 60.200705 M 17.099327 60.200705 L 6.099826 60.200705 M 6.099826 60.200705 C 6.072266 60.200705 6.050217 60.178657 6.050217 60.151096 M 6.050217 60.151096 L 6.050217 56.150651 M 6.050217 56.150651 L 6.050217 49.150217 C 6.050217 49.177778 6.072266 49.199826 6.099826 49.199826 M 6.099826 49.199826 L 2.099382 49.199826 C 2.071821 49.199826 2.049772 49.177778 2.049772 49.150217 M 2.049772 49.150217 L 2.049772 37.150261 C 2.049772 37.1227 2.071821 37.100651 2.099382 37.100651 M 2.099382 37.100651 L 6.099826 37.100651 C 6.072266 37.100651 6.050217 37.1227 6.050217 37.150261 M 6.050217 37.150261 L 6.050217 25.150304 C 6.050217 25.177865 6.072266 25.199913 6.099826 25.199913 M 6.099826 25.199913 L 2.099382 25.199913 C 2.071821 25.199913 2.049772 25.177865 2.049772 25.150304 M 2.049772 25.150304 L 2.049772 13.150347 C 2.049772 13.122787 2.071821 13.100738 2.099382 13.100738 M 2.099382 13.100738 L 6.099826 13.100738 C 6.072266 13.100738 6.050217 13.122787 6.050217 13.150347 M 6.050217 13.150347 L 6.050217 6.149913 M 6.050217 6.149913 L 6.050217 2.149468 C 6.050217 2.121908 6.072266 2.099859 6.099826 2.099859 " transform="matrix(2.834646,0,0,-2.834646,442.771654,1235.905481)"/>
<path style="fill:none;stroke-width:0.1;stroke-linecap:butt;stroke-linejoin:miter;stroke:rgb(0%,0%,0%);stroke-opacity:1;stroke-miterlimit:10;" d="M 6.099826 2.100369 L 6.099826 2.100369 M 6.099826 2.100369 L 17.099327 2.100369 C 17.126888 2.100369 17.148937 2.122418 17.148937 2.149978 M 17.148937 2.149978 L 17.148937 6.150423 C 17.148937 6.122863 17.126888 6.100814 17.099327 6.100814 M 17.099327 6.100814 L 29.099284 6.100814 C 29.071723 6.100814 29.049674 6.122863 29.049674 6.150423 M 29.049674 6.150423 L 29.049674 2.149978 C 29.049674 2.122418 29.071723 2.100369 29.099284 2.100369 M 29.099284 2.100369 L 41.09924 2.100369 C 41.126801 2.100369 41.14885 2.122418 41.14885 2.149978 M 41.14885 2.149978 L 41.14885 6.150423 C 41.14885 6.122863 41.126801 6.100814 41.09924 6.100814 M 41.09924 6.100814 L 53.099197 6.100814 C 53.071636 6.100814 53.049588 6.122863 53.049588 6.150423 M 53.049588 6.150423 L 53.049588 2.149978 C 53.049588 2.122418 53.071636 2.100369 53.099197 2.100369 M 53.099197 2.100369 L 65.099154 2.100369 C 65.126714 2.100369 65.148763 2.122418 65.148763 2.149978 M 65.148763 2.149978 L 65.148763 6.150423 C 65.148763 6.122863 65.126714 6.100814 65.099154 6.100814 M 65.099154 6.100814 L 77.09911 6.100814 C 77.071549 6.100814 77.049501 6.122863 77.049501 6.150423 M 77.049501 6.150423 L 77.049501 2.149978 C 77.049501 2.122418 77.071549 2.100369 77.09911 2.100369 M 77.09911 2.100369 L 89.099067 2.100369 C 89.126628 2.100369 89.148676 2.122418 89.148676 2.149978 M 89.148676 2.149978 L 89.148676 6.150423 C 89.148676 6.122863 89.126628 6.100814 89.099067 6.100814 M 89.099067 6.100814 L 101.099023 6.100814 C 101.071463 6.100814 101.049414 6.122863 101.049414 6.150423 M 101.049414 6.150423 L 101.049414 2.149978 C 101.049414 2.122418 101.071463 2.100369 101.099023 2.100369 M 101.099023 2.100369 L 113.09898 2.100369 C 113.126541 2.100369 113.148589 2.122418 113.148589 2.149978 M 113.148589 2.149978 L 113.148589 6.150423 C 113.148589 6.122863 113.126541 6.100814 113.09898 6.100814 M 113.09898 6.100814 L 125.098937 6.100814 C 125.071376 6.100814 125.049327 6.122863 125.049327 6.150423 M 125.049327 6.150423 L 125.049327 2.149978 C 125.049327 2.122418 125.071376 2.100369 125.098937 2.100369 M 125.098937 2.100369 L 137.098893 2.100369 C 137.126454 2.100369 137.148503 2.122418 137.148503 2.149978 M 137.148503 2.149978 L 137.148503 6.150423 C 137.148503 6.122863 137.126454 6.100814 137.098893 6.100814 M 137.098893 6.100814 L 149.09885 6.100814 C 149.071289 6.100814 149.04924 6.122863 149.04924 6.150423 M 149.04924 6.150423 L 149.04924 2.149978 C 149.04924 2.122418 149.071289 2.100369 149.09885 2.100369 M 149.09885 2.100369 L 161.098806 2.100369 C 161.126367 2.100369 161.148416 2.122418 161.148416 2.149978 M 161.148416 2.149978 L 161.148416 6.150423 C 161.148416 6.122863 161.126367 6.100814 161.098806 6.100814 M 161.098806 6.100814 L 173.098763 6.100814 C 173.071202 6.100814 173.049154 6.122863 173.049154 6.150423 M 173.049154 6.150423 L 173.049154 2.149978 C 173.049154 2.122418 173.071202 2.100369 173.098763 2.100369 M 173.098763 2.100369 L 185.09872 2.100369 C 185.12628 2.100369 185.148329 2.122418 185.148329 2.149978 M 185.148329 2.149978 L 185.148329 6.150423 C 185.148329 6.122863 185.12628 6.100814 185.09872 6.100814 M 185.09872 6.100814 L 197.098676 6.100814 C 197.071115 6.100814 197.049067 6.122863 197.049067 6.150423 M 197.049067 6.150423 L 197.049067 2.149978 C 197.049067 2.122418 197.071115 2.100369 197.098676 2.100369 M 197.098676 2.100369 L 208.098177 2.100369 M 208.098177 2.100369 C 208.125738 2.100369 208.147786 2.122418 208.147786 2.149978 M 208.147786 2.149978 L 208.147786 6.150423 M 208.147786 6.150423 L 208.147786 13.150857 C 208.147786 13.123297 208.125738 13.101248 208.098177 13.101248 M 208.098177 13.101248 L 212.098622 13.101248 C 212.126183 13.101248 212.148231 13.123297 212.148231 13.150857 M 212.148231 13.150857 L 212.148231 25.150814 C 212.148231 25.178375 212.126183 25.200423 212.098622 25.200423 M 212.098622 25.200423 L 208.098177 25.200423 C 208.125738 25.200423 208.147786 25.178375 208.147786 25.150814 M 208.147786 25.150814 L 208.147786 37.15077 C 208.147786 37.12321 208.125738 37.101161 208.098177 37.101161 M 208.098177 37.101161 L 212.098622 37.101161 C 212.126183 37.101161 212.148231 37.12321 212.148231 37.15077 M 212.148231 37.15077 L 212.148231 49.150727 C 212.148231 49.178288 212.126183 49.200336 212.098622 49.200336 M 212.098622 49.200336 L 208.098177 49.200336 C 208.125738 49.200336 208.147786 49.178288 208.147786 49.150727 M 208.147786 49.150727 L 208.147786 56.151161 M 208.147786 56.151161 L 208.147786 60.151606 C 208.147786 60.179167 208.125738 60.201215 208.098177 60.201215 M 208.098177 60.201215 L 208.098177 60.201215 M 208.098177 60.201215 L 197.098676 60.201215 C 197.071115 60.201215 197.049067 60.179167 197.049067 60.151606 M 197.049067 60.151606 L 197.049067 56.151161 C 197.049067 56.178722 197.071115 56.20077 197.098676 56.20077 M 197.098676 56.20077 L 185.09872 56.20077 C 185.12628 56.20077 185.148329 56.178722 185.148329 56.151161 M 185.148329 56.151161 L 185.148329 60.151606 C 185.148329 60.179167 185.12628 60.201215 185.09872 60.201215 M 185.09872 60.201215 L 173.098763 60.201215 C 173.071202 60.201215 173.049154 60.179167 173.049154 60.151606 M 173.049154 60.151606 L 173.049154 56.151161 C 173.049154 56.178722 173.071202 56.20077 173.098763 56.20077 M 173.098763 56.20077 L 161.098806 56.20077 C 161.126367 56.20077 161.148416 56.178722 161.148416 56.151161 M 161.148416 56.151161 L 161.148416 60.151606 C 161.148416 60.179167 161.126367 60.201215 161.098806 60.201215 M 161.098806 60.201215 L 149.09885 60.201215 C 149.071289 60.201215 149.04924 60.179167 149.04924 60.151606 M 149.04924 60.151606 L 149.04924 56.151161 C 149.04924 56.178722 149.071289 56.20077 149.09885 56.20077 M 149.09885 56.20077 L 137.098893 56.20077 C 137.126454 56.20077 137.148503 56.178722 137.148503 56.151161 M 137.148503 56.151161 L 137.148503 60.151606 C 137.148503 60.179167 137.126454 60.201215 137.098893 60.201215 M 137.098893 60.201215 L 125.098937 60.201215 C 125.071376 60.201215 125.049327 60.179167 125.049327 60.151606 M 125.049327 60.151606 L 125.049327 56.151161 C 125.049327 56.178722 125.071376 56.20077 125.098937 56.20077 M 125.098937 56.20077 L 113.09898 56.20077 C 113.126541 56.20077 113.148589 56.178722 113.148589 56.151161 M 113.148589 56.151161 L 113.148589 60.151606 C 113.148589 60.179167 113.126541 60.201215 113.09898 60.201215 M 113.09898 60.201215 L 101.099023 60.201215 C 101.071463 60.201215 101.049414 60.179167 101.049414 60.151606 M 101.049414 60.151606 L 101.049414 56.151161 C 101.049414 56.178722 101.071463 56.20077 101.099023 56.20077 M 101.099023 56.20077 L 89.099067 56.20077 C 89.126628 56.20077 89.148676 56.178722 89.148676 56.151161 M 89.148676 56.151161 L 89.148676 60.151606 C 89.148676 60.179167 89.126628 60.201215 89.099067 60.201215 M 89.099067 60.201215 L 77.09911 60.201215 C 77.071549 60.201215 77.049501 60.179167 77.049501 60.151606 M 77.049501 60.151606 L 77.049501 56.151161 C 77.049501 56.178722 77.071549 56.20077 77.09911 56.20077 M 77.09911 56.20077 L 65.099154 56.20077 C 65.126714 56.20077 65.148763 56.178722 65.148763 56.151161 M 65.148763 56.151161 L 65.148763 60.151606 C 65.148763 60.179167 65.126714 60.201215 65.099154 60.201215 M 65.099154 60.201215 L 53.099197 60.201215 C 53.071636 60.201215 53.049588 60.179167 53.049588 60.151606 M 53.049588 60.151606 L 53.049588 56.151161 C 53.049588 56.178722 53.071636 56.20077 53.099197 56.20077 M 53.099197 56.20077 L 41.09924 56.20077 C 41.126801 56.20077 41.14885 56.178722 41.14885 56.151161 M 41.14885 56.151161 L 41.14885 60.151606 C 41.14885 60.179167 41.126801 60.201215 41.09924 60.201215 M 41.09924 60.201215 L 29.099284 60.201215 C 29.071723 60.201215 29.049674 60.179167 29.049674 60.151606 M 29.049674 60.151606 L 29.049674 56.151161 C 29.049674 56.178722 29.071723 56.20077 29.099284 56.20077 M 29.099284 56.20077 L 17.099327 56.20077 C 17.126888 56.20077 17.148937 56.178722 17.148937 56.151161 M 17.148937 56.151161 L 17.148937 60.151606 C 17.148937 60.179167 17.126888 60.201215 17.099327 60.201215 M 17.099327 60.201215 L 6.099826 60.201215 M 6.099826 60.201215 C 6.072266 60.201215 6.050217 60.179167 6.050217 60.151606 M 6.050217 60.151606 L 6.050217 56.151161 M 6.050217 56.151161 L 6.050217 49.150727 C 6.050217 49.178288 6.072266 49.200336 6.099826 49.200336 M 6.099826 49.200336 L 2.099382 49.200336 C 2.071821 49.200336 2.049772 49.178288 2.049772 49.150727 M 2.049772 49.150727 L 2.049772 37.15077 C 2.049772 37.12321 2.071821 37.101161 2.099382 37.101161 M 2.099382 37.101161 L 6.099826 37.101161 C 6.072266 37.101161 6.050217 37.12321 6.050217 37.15077 M 6.050217 37.15077 L 6.050217 25.150814 C 6.050217 25.178375 6.072266 25.200423 6.099826 25.200423 M 6.099826 25.200423 L 2.099382 25.200423 C 2.071821 25.200423 2.049772 25.178375 2.049772 25.150814 M 2.049772 25.150814 L 2.049772 13.150857 C 2.049772 13.123297 2.071821 13.101248 2.099382 13.101248 M 2.099382 13.101248 L 6.099826 13.101248 C 6.072266 13.101248 6.050217 13.123297 6.050217 13.150857 M 6.050217 13.150857 L 6.050217 6.150423 M 6.050217 6.150423 L 6.050217 2.149978 C 6.050217 2.122418 6.072266 2.100369 6.099826 2.100369 " transform="matrix(2.834646,0,0,-2.834646,442.771654,1059.590521)"/>
<path style="fill:none;stroke-width:0.1;stroke-linecap:butt;stroke-linejoin:miter;stroke:rgb(0%,0%,0%);stroke-opacity:1;stroke-miterlimit:10;" d="M 2.100575 2.100369 L 6.099642 2.100369 M 6.099642 2.100369 L 22.100043 2.100369 C 22.127604 2.100369 22.149653 2.122418 22.149653 2.149978 M 22.149653 2.149978 L 22.149653 6.150423 C 22.149653 6.122863 22.127604 6.100814 22.100043 6.100814 M 22.100043 6.100814 L 34.1 6.100814 C 34.072439 6.100814 34.050391 6.122863 34.050391 6.150423 M 34.050391 6.150423 L 34.050391 2.149978 C 34.050391 2.122418 34.072439 2.100369 34.1 2.100369 M 34.1 2.100369 L 46.099957 2.100369 C 46.127517 2.100369 46.149566 2.122418 46.149566 2.149978 M 46.149566 2.149978 L 46.149566 6.150423 C 46.149566 6.122863 46.127517 6.100814 46.099957 6.100814 M 46.099957 6.100814 L 58.099913 6.100814 C 58.072352 6.100814 58.050304 6.122863 58.050304 6.150423 M 58.050304 6.150423 L 58.050304 2.149978 C 58.050304 2.122418 58.072352 2.100369 58.099913 2.100369 M 58.099913 2.100369 L 70.09987 2.100369 C 70.127431 2.100369 70.149479 2.122418 70.149479 2.149978 M 70.149479 2.149978 L 70.149479 6.150423 C 70.149479 6.122863 70.127431 6.100814 70.09987 6.100814 M 70.09987 6.100814 L 82.099826 6.100814 C 82.072266 6.100814 82.050217 6.122863 82.050217 6.150423 M 82.050217 6.150423 L 82.050217 2.149978 C 82.050217 2.122418 82.072266 2.100369 82.099826 2.100369 M 82.099826 2.100369 L 94.099783 2.100369 C 94.127344 2.100369 94.149392 2.122418 94.149392 2.149978 M 94.149392 2.149978 L 94.149392 6.150423 C 94.149392 6.122863 94.127344 6.100814 94.099783 6.100814 M 94.099783 6.100814 L 106.09974 6.100814 C 106.072179 6.100814 106.05013 6.122863 106.05013 6.150423 M 106.05013 6.150423 L 106.05013 2.149978 C 106.05013 2.122418 106.072179 2.100369 106.09974 2.100369 M 106.09974 2.100369 L 118.099696 2.100369 C 118.127257 2.100369 118.149306 2.122418 118.149306 2.149978 M 118.149306 2.149978 L 118.149306 6.150423 C 118.149306 6.122863 118.127257 6.100814 118.099696 6.100814 M 118.099696 6.100814 L 130.099653 6.100814 C 130.072092 6.100814 130.050043 6.122863 130.050043 6.150423 M 130.050043 6.150423 L 130.050043 2.149978 C 130.050043 2.122418 130.072092 2.100369 130.099653 2.100369 M 130.099653 2.100369 L 146.100054 2.100369 M 146.100054 2.100369 L 150.100499 2.100369 C 150.12806 2.100369 150.150109 2.122418 150.150109 2.149978 M 150.150109 2.149978 L 150.150109 6.150423 M 150.150109 6.150423 L 150.150109 13.150857 C 150.150109 13.178418 150.12806 13.200467 150.100499 13.200467 M 150.100499 13.200467 L 146.100054 13.200467 C 146.127615 13.200467 146.149664 13.178418 146.149664 13.150857 M 146.149664 13.150857 L 146.149664 25.150814 C 146.149664 25.123253 146.127615 25.101205 146.100054 25.101205 M 146.100054 25.101205 L 150.100499 25.101205 C 150.12806 25.101205 150.150109 25.123253 150.150109 25.150814 M 150.150109 25.150814 L 150.150109 37.15077 C 150.150109 37.178331 150.12806 37.20038 150.100499 37.20038 M 150.100499 37.20038 L 146.100054 37.20038 C 146.127615 37.20038 146.149664 37.178331 146.149664 37.15077 M 146.149664 37.15077 L 146.149664 49.150727 C 146.149664 49.123166 146.127615 49.101118 146.100054 49.101118 M 146.100054 49.101118 L 150.100499 49.101118 C 150.12806 49.101118 150.150109 49.123166 150.150109 49.150727 M 150.150109 49.150727 L 150.150109 56.151161 M 150.150109 56.151161 L 150.150109 60.151606 C 150.150109 60.179167 150.12806 60.201215 150.100499 60.201215 M 150.100499 60.201215 L 146.100054 60.201215 M 146.100054 60.201215 L 130.099653 60.201215 C 130.072092 60.201215 130.050043 60.179167 130.050043 60.151606 M 130.050043 60.151606 L 130.050043 56.151161 C 130.050043 56.178722 130.072092 56.20077 130.099653 56.20077 M 130.099653 56.20077 L 118.099696 56.20077 C 118.127257 56.20077 118.149306 56.178722 118.149306 56.151161 M 118.149306 56.151161 L 118.149306 60.151606 C 118.149306 60.179167 118.127257 60.201215 118.099696 60.201215 M 118.099696 60.201215 L 106.09974 60.201215 C 106.072179 60.201215 106.05013 60.179167 106.05013 60.151606 M 106.05013 60.151606 L 106.05013 56.151161 C 106.05013 56.178722 106.072179 56.20077 106.09974 56.20077 M 106.09974 56.20077 L 94.099783 56.20077 C 94.127344 56.20077 94.149392 56.178722 94.149392 56.151161 M 94.149392 56.151161 L 94.149392 60.151606 C 94.149392 60.179167 94.127344 60.201215 94.099783 60.201215 M 94.099783 60.201215 L 82.099826 60.201215 C 82.072266 60.201215 82.050217 60.179167 82.050217 60.151606 M 82.050217 60.151606 L 82.050217 56.151161 C 82.050217 56.178722 82.072266 56.20077 82.099826 56.20077 M 82.099826 56.20077 L 70.09987 56.20077 C 70.127431 56.20077 70.149479 56.178722 70.149479 56.151161 M 70.149479 56.151161 L 70.149479 60.151606 C 70.149479 60.179167 70.127431 60.201215 70.09987 60.201215 M 70.09987 60.201215 L 58.099913 60.201215 C 58.072352 60.201215 58.050304 60.179167 58.050304 60.151606 M 58.050304 60.151606 L 58.050304 56.151161 C 58.050304 56.178722 58.072352 56.20077 58.099913 56.20077 M 58.099913 56.20077 L 46.099957 56.20077 C 46.127517 56.20077 46.149566 56.178722 46.149566 56.151161 M 46.149566 56.151161 L 46.149566 60.151606 C 46.149566 60.179167 46.127517 60.201215 46.099957 60.201215 M 46.099957 60.201215 L 34.1 60.201215 C 34.072439 60.201215 34.050391 60.179167 34.050391 60.151606 M 34.050391 60.151606 L 34.050391 56.151161 C 34.050391 56.178722 34.072439 56.20077 34.1 56.20077 M 34.1 56.20077 L 22.100043 56.20077 C 22.127604 56.20077 22.149653 56.178722 22.149653 56.151161 M 22.149653 56.151161 L 22.149653 60.151606 C 22.149653 60.179167 22.127604 60.201215 22.100043 60.201215 M 22.100043 60.201215 L 6.099642 60.201215 M 6.099642 60.201215 L 2.099197 60.201215 C 2.071636 60.201215 2.049588 60.179167 2.049588 60.151606 M 2.049588 60.151606 L 2.049588 56.151161 M 2.049588 56.151161 L 2.049588 49.150727 C 2.049588 49.123166 2.071636 49.101118 2.099197 49.101118 M 2.099197 49.101118 L 6.099642 49.101118 C 6.072081 49.101118 6.050033 49.123166 6.050033 49.150727 M 6.050033 49.150727 L 6.050033 37.15077 C 6.050033 37.178331 6.072081 37.20038 6.099642 37.20038 M 6.099642 37.20038 L 2.099197 37.20038 C 2.071636 37.20038 2.049588 37.178331 2.049588 37.15077 M 2.049588 37.15077 L 2.049588 25.150814 C 2.049588 25.123253 2.071636 25.101205 2.099197 25.101205 M 2.099197 25.101205 L 6.099642 25.101205 C 6.072081 25.101205 6.050033 25.123253 6.050033 25.150814 M 6.050033 25.150814 L 6.050033 13.150857 C 6.050033 13.178418 6.072081 13.200467 6.099642 13.200467 M 6.099642 13.200467 L 2.099197 13.200467 C 2.071636 13.200467 2.049588 13.178418 2.049588 13.150857 M 2.049588 13.150857 L 2.049588 6.150423 M 2.049588 6.150423 L 2.049588 2.149978 C 2.049588 2.122418 2.071636 2.100369 2.099197 2.100369 " transform="matrix(2.834646,0,0,-2.834646,11.338583,1059.590521)"/>
<path style="fill:none;stroke-width:0.1;stroke-linecap:butt;stroke-linejoin:miter;stroke:rgb(0%,0%,0%);stroke-opacity:1;stroke-miterlimit:10;" d="M 6.099642 6.099946 L 6.099642 6.099946 M 6.099642 6.099946 L 22.100043 6.099946 C 22.072483 6.099946 22.050434 6.121994 22.050434 6.149555 M 22.050434 6.149555 L 22.050434 2.14911 C 22.050434 2.12155 22.072483 2.099501 22.100043 2.099501 M 22.100043 2.099501 L 34.1 2.099501 C 34.127561 2.099501 34.149609 2.12155 34.149609 2.14911 M 34.149609 2.14911 L 34.149609 6.149555 C 34.149609 6.121994 34.127561 6.099946 34.1 6.099946 M 34.1 6.099946 L 46.099957 6.099946 C 46.072396 6.099946 46.050347 6.121994 46.050347 6.149555 M 46.050347 6.149555 L 46.050347 2.14911 C 46.050347 2.12155 46.072396 2.099501 46.099957 2.099501 M 46.099957 2.099501 L 58.099913 2.099501 C 58.127474 2.099501 58.149523 2.12155 58.149523 2.14911 M 58.149523 2.14911 L 58.149523 6.149555 C 58.149523 6.121994 58.127474 6.099946 58.099913 6.099946 M 58.099913 6.099946 L 70.09987 6.099946 C 70.072309 6.099946 70.05026 6.121994 70.05026 6.149555 M 70.05026 6.149555 L 70.05026 2.14911 C 70.05026 2.12155 70.072309 2.099501 70.09987 2.099501 M 70.09987 2.099501 L 82.099826 2.099501 C 82.127387 2.099501 82.149436 2.12155 82.149436 2.14911 M 82.149436 2.14911 L 82.149436 6.149555 C 82.149436 6.121994 82.127387 6.099946 82.099826 6.099946 M 82.099826 6.099946 L 94.099783 6.099946 C 94.072222 6.099946 94.050174 6.121994 94.050174 6.149555 M 94.050174 6.149555 L 94.050174 2.14911 C 94.050174 2.12155 94.072222 2.099501 94.099783 2.099501 M 94.099783 2.099501 L 106.09974 2.099501 C 106.1273 2.099501 106.149349 2.12155 106.149349 2.14911 M 106.149349 2.14911 L 106.149349 6.149555 C 106.149349 6.121994 106.1273 6.099946 106.09974 6.099946 M 106.09974 6.099946 L 118.099696 6.099946 C 118.072135 6.099946 118.050087 6.121994 118.050087 6.149555 M 118.050087 6.149555 L 118.050087 2.14911 C 118.050087 2.12155 118.072135 2.099501 118.099696 2.099501 M 118.099696 2.099501 L 130.099653 2.099501 C 130.127214 2.099501 130.149262 2.12155 130.149262 2.14911 M 130.149262 2.14911 L 130.149262 6.149555 C 130.149262 6.121994 130.127214 6.099946 130.099653 6.099946 M 130.099653 6.099946 L 146.100054 6.099946 M 146.100054 6.099946 C 146.127615 6.099946 146.149664 6.121994 146.149664 6.149555 M 146.149664 6.149555 L 146.149664 6.149555 M 146.149664 6.149555 L 146.149664 17.149056 C 146.149664 17.121495 146.127615 17.099447 146.100054 17.099447 M 146.100054 17.099447 L 150.100499 17.099447 C 150.12806 17.099447 150.150109 17.121495 150.150109 17.149056 M 150.150109 17.149056 L 150.150109 29.149013 C 150.150109 29.176573 150.12806 29.198622 150.100499 29.198622 M 150.100499 29.198622 L 146.100054 29.198622 C 146.127615 29.198622 146.149664 29.176573 146.149664 29.149013 M 146.149664 29.149013 L 146.149664 41.148969 C 146.149664 41.121409 146.127615 41.09936 146.100054 41.09936 M 146.100054 41.09936 L 150.100499 41.09936 C 150.12806 41.09936 150.150109 41.121409 150.150109 41.148969 M 150.150109 41.148969 L 150.150109 53.148926 C 150.150109 53.176487 150.12806 53.198535 150.100499 53.198535 M 150.100499 53.198535 L 146.100054 53.198535 C 146.127615 53.198535 146.149664 53.176487 146.149664 53.148926 M 146.149664 53.148926 L 146.149664 65.148882 C 146.149664 65.121322 146.127615 65.099273 146.100054 65.099273 M 146.100054 65.099273 L 150.100499 65.099273 C 150.12806 65.099273 150.150109 65.121322 150.150109 65.148882 M 150.150109 65.148882 L 150.150109 77.148839 C 150.150109 77.1764 150.12806 77.198448 150.100499 77.198448 M 150.100499 77.198448 L 146.100054 77.198448 C 146.127615 77.198448 146.149664 77.1764 146.149664 77.148839 M 146.149664 77.148839 L 146.149664 89.148796 C 146.149664 89.121235 146.127615 89.099186 146.100054 89.099186 M 146.100054 89.099186 L 150.100499 89.099186 C 150.12806 89.099186 150.150109 89.121235 150.150109 89.148796 M 150.150109 89.148796 L 150.150109 101.148752 C 150.150109 101.176313 150.12806 101.198362 150.100499 101.198362 M 150.100499 101.198362 L 146.100054 101.198362 C 146.127615 101.198362 146.149664 101.176313 146.149664 101.148752 M 146.149664 101.148752 L 146.149664 113.148709 C 146.149664 113.121148 146.127615 113.099099 146.100054 113.099099 M 146.100054 113.099099 L 150.100499 113.099099 C 150.12806 113.099099 150.150109 113.121148 150.150109 113.148709 M 150.150109 113.148709 L 150.150109 125.148665 C 150.150109 125.176226 150.12806 125.198275 150.100499 125.198275 M 150.100499 125.198275 L 146.100054 125.198275 C 146.127615 125.198275 146.149664 125.176226 146.149664 125.148665 M 146.149664 125.148665 L 146.149664 137.148622 C 146.149664 137.121061 146.127615 137.099013 146.100054 137.099013 M 146.100054 137.099013 L 150.100499 137.099013 C 150.12806 137.099013 150.150109 137.121061 150.150109 137.148622 M 150.150109 137.148622 L 150.150109 149.148579 C 150.150109 149.176139 150.12806 149.198188 150.100499 149.198188 M 150.100499 149.198188 L 146.100054 149.198188 C 146.127615 149.198188 146.149664 149.176139 146.149664 149.148579 M 146.149664 149.148579 L 146.149664 161.148535 C 146.149664 161.120974 146.127615 161.098926 146.100054 161.098926 M 146.100054 161.098926 L 150.100499 161.098926 C 150.12806 161.098926 150.150109 161.120974 150.150109 161.148535 M 150.150109 161.148535 L 150.150109 173.148492 C 150.150109 173.176053 150.12806 173.198101 150.100499 173.198101 M 150.100499 173.198101 L 146.100054 173.198101 C 146.127615 173.198101 146.149664 173.176053 146.149664 173.148492 M 146.149664 173.148492 L 146.149664 185.148448 C 146.149664 185.120888 146.127615 185.098839 146.100054 185.098839 M 146.100054 185.098839 L 150.100499 185.098839 C 150.12806 185.098839 150.150109 185.120888 150.150109 185.148448 M 150.150109 185.148448 L 150.150109 197.148405 C 150.150109 197.175966 150.12806 197.198014 150.100499 197.198014 M 150.100499 197.198014 L 146.100054 197.198014 C 146.127615 197.198014 146.149664 197.175966 146.149664 197.148405 M 146.149664 197.148405 L 146.149664 208.147906 M 146.149664 208.147906 C 146.149664 208.175467 146.127615 208.197515 146.100054 208.197515 M 146.100054 208.197515 L 146.100054 208.197515 M 146.100054 208.197515 L 130.099653 208.197515 C 130.127214 208.197515 130.149262 208.175467 130.149262 208.147906 M 130.149262 208.147906 L 130.149262 212.148351 C 130.149262 212.175912 130.127214 212.19796 130.099653 212.19796 M 130.099653 212.19796 L 118.099696 212.19796 C 118.072135 212.19796 118.050087 212.175912 118.050087 212.148351 M 118.050087 212.148351 L 118.050087 208.147906 C 118.050087 208.175467 118.072135 208.197515 118.099696 208.197515 M 118.099696 208.197515 L 106.09974 208.197515 C 106.1273 208.197515 106.149349 208.175467 106.149349 208.147906 M 106.149349 208.147906 L 106.149349 212.148351 C 106.149349 212.175912 106.1273 212.19796 106.09974 212.19796 M 106.09974 212.19796 L 94.099783 212.19796 C 94.072222 212.19796 94.050174 212.175912 94.050174 212.148351 M 94.050174 212.148351 L 94.050174 208.147906 C 94.050174 208.175467 94.072222 208.197515 94.099783 208.197515 M 94.099783 208.197515 L 82.099826 208.197515 C 82.127387 208.197515 82.149436 208.175467 82.149436 208.147906 M 82.149436 208.147906 L 82.149436 212.148351 C 82.149436 212.175912 82.127387 212.19796 82.099826 212.19796 M 82.099826 212.19796 L 70.09987 212.19796 C 70.072309 212.19796 70.05026 212.175912 70.05026 212.148351 M 70.05026 212.148351 L 70.05026 208.147906 C 70.05026 208.175467 70.072309 208.197515 70.09987 208.197515 M 70.09987 208.197515 L 58.099913 208.197515 C 58.127474 208.197515 58.149523 208.175467 58.149523 208.147906 M 58.149523 208.147906 L 58.149523 212.148351 C 58.149523 212.175912 58.127474 212.19796 58.099913 212.19796 M 58.099913 212.19796 L 46.099957 212.19796 C 46.072396 212.19796 46.050347 212.175912 46.050347 212.148351 M 46.050347 212.148351 L 46.050347 208.147906 C 46.050347 208.175467 46.072396 208.197515 46.099957 208.197515 M 46.099957 208.197515 L 34.1 208.197515 C 34.127561 208.197515 34.149609 208.175467 34.149609 208.147906 M 34.149609 208.147906 L 34.149609 212.148351 C 34.149609 212.175912 34.127561 212.19796 34.1 212.19796 M 34.1 212.19796 L 22.100043 212.19796 C 22.072483 212.19796 22.050434 212.175912 22.050434 212.148351 M 22.050434 212.148351 L 22.050434 208.147906 C 22.050434 208.175467 22.072483 208.197515 22.100043 208.197515 M 22.100043 208.197515 L 6.099642 208.197515 M 6.099642 208.197515 C 6.072081 208.197515 6.050033 208.175467 6.050033 208.147906 M 6.050033 208.147906 L 6.050033 208.147906 M 6.050033 208.147906 L 6.050033 197.148405 C 6.050033 197.175966 6.072081 197.198014 6.099642 197.198014 M 6.099642 197.198014 L 2.099197 197.198014 C 2.071636 197.198014 2.049588 197.175966 2.049588 197.148405 M 2.049588 197.148405 L 2.049588 185.148448 C 2.049588 185.120888 2.071636 185.098839 2.099197 185.098839 M 2.099197 185.098839 L 6.099642 185.098839 C 6.072081 185.098839 6.050033 185.120888 6.050033 185.148448 M 6.050033 185.148448 L 6.050033 173.148492 C 6.050033 173.176053 6.072081 173.198101 6.099642 173.198101 M 6.099642 173.198101 L 2.099197 173.198101 C 2.071636 173.198101 2.049588 173.176053 2.049588 173.148492 M 2.049588 173.148492 L 2.049588 161.148535 C 2.049588 161.120974 2.071636 161.098926 2.099197 161.098926 M 2.099197 161.098926 L 6.099642 161.098926 C 6.072081 161.098926 6.050033 161.120974 6.050033 161.148535 M 6.050033 161.148535 L 6.050033 149.148579 C 6.050033 149.176139 6.072081 149.198188 6.099642 149.198188 M 6.099642 149.198188 L 2.099197 149.198188 C 2.071636 149.198188 2.049588 149.176139 2.049588 149.148579 M 2.049588 149.148579 L 2.049588 137.148622 C 2.049588 137.121061 2.071636 137.099013 2.099197 137.099013 M 2.099197 137.099013 L 6.099642 137.099013 C 6.072081 137.099013 6.050033 137.121061 6.050033 137.148622 M 6.050033 137.148622 L 6.050033 125.148665 C 6.050033 125.176226 6.072081 125.198275 6.099642 125.198275 M 6.099642 125.198275 L 2.099197 125.198275 C 2.071636 125.198275 2.049588 125.176226 2.049588 125.148665 M 2.049588 125.148665 L 2.049588 113.148709 C 2.049588 113.121148 2.071636 113.099099 2.099197 113.099099 M 2.099197 113.099099 L 6.099642 113.099099 C 6.072081 113.099099 6.050033 113.121148 6.050033 113.148709 M 6.050033 113.148709 L 6.050033 101.148752 C 6.050033 101.176313 6.072081 101.198362 6.099642 101.198362 M 6.099642 101.198362 L 2.099197 101.198362 C 2.071636 101.198362 2.049588 101.176313 2.049588 101.148752 M 2.049588 101.148752 L 2.049588 89.148796 C 2.049588 89.121235 2.071636 89.099186 2.099197 89.099186 M 2.099197 89.099186 L 6.099642 89.099186 C 6.072081 89.099186 6.050033 89.121235 6.050033 89.148796 M 6.050033 89.148796 L 6.050033 77.148839 C 6.050033 77.1764 6.072081 77.198448 6.099642 77.198448 M 6.099642 77.198448 L 2.099197 77.198448 C 2.071636 77.198448 2.049588 77.1764 2.049588 77.148839 M 2.049588 77.148839 L 2.049588 65.148882 C 2.049588 65.121322 2.071636 65.099273 2.099197 65.099273 M 2.099197 65.099273 L 6.099642 65.099273 C 6.072081 65.099273 6.050033 65.121322 6.050033 65.148882 M 6.050033 65.148882 L 6.050033 53.148926 C 6.050033 53.176487 6.072081 53.198535 6.099642 53.198535 M 6.099642 53.198535 L 2.099197 53.198535 C 2.071636 53.198535 2.049588 53.176487 2.049588 53.148926 M 2.049588 53.148926 L 2.049588 41.148969 C 2.049588 41.121409 2.071636 41.09936 2.099197 41.09936 M 2.099197 41.09936 L 6.099642 41.09936 C 6.072081 41.09936 6.050033 41.121409 6.050033 41.148969 M 6.050033 41.148969 L 6.050033 29.149013 C 6.050033 29.176573 6.072081 29.198622 6.099642 29.198622 M 6.099642 29.198622 L 2.099197 29.198622 C 2.071636 29.198622 2.049588 29.176573 2.049588 29.149013 M 2.049588 29.149013 L 2.049588 17.149056 C 2.049588 17.121495 2.071636 17.099447 2.099197 17.099447 M 2.099197 17.099447 L 6.099642 17.099447 C 6.072081 17.099447 6.050033 17.121495 6.050033 17.149056 M 6.050033 17.149056 L 6.050033 6.149555 M 6.050033 6.149555 C 6.050033 6.121994 6.072081 6.099946 6.099642 6.099946 " transform="matrix(2.834646,0,0,-2.834646,11.338583,883.27556)"/>
<path style="fill:none;stroke-width:0.1;stroke-linecap:butt;stroke-linejoin:miter;stroke:rgb(0%,0%,0%);stroke-opacity:1;stroke-miterlimit:10;" d="M 6.099826 6.099946 L 6.099826 6.099946 M 6.099826 6.099946 L 22.100228 6.099946 C 22.072667 6.099946 22.050618 6.121994 22.050618 6.149555 M 22.050618 6.149555 L 22.050618 2.14911 C 22.050618 2.12155 22.072667 2.099501 22.100228 2.099501 M 22.100228 2.099501 L 34.100184 2.099501 C 34.127745 2.099501 34.149794 2.12155 34.149794 2.14911 M 34.149794 2.14911 L 34.149794 6.149555 C 34.149794 6.121994 34.127745 6.099946 34.100184 6.099946 M 34.100184 6.099946 L 46.100141 6.099946 C 46.07258 6.099946 46.050532 6.121994 46.050532 6.149555 M 46.050532 6.149555 L 46.050532 2.14911 C 46.050532 2.12155 46.07258 2.099501 46.100141 2.099501 M 46.100141 2.099501 L 58.100098 2.099501 C 58.127658 2.099501 58.149707 2.12155 58.149707 2.14911 M 58.149707 2.14911 L 58.149707 6.149555 C 58.149707 6.121994 58.127658 6.099946 58.100098 6.099946 M 58.100098 6.099946 L 70.100054 6.099946 C 70.072493 6.099946 70.050445 6.121994 70.050445 6.149555 M 70.050445 6.149555 L 70.050445 2.14911 C 70.050445 2.12155 70.072493 2.099501 70.100054 2.099501 M 70.100054 2.099501 L 82.100011 2.099501 C 82.127572 2.099501 82.14962 2.12155 82.14962 2.14911 M 82.14962 2.14911 L 82.14962 6.149555 C 82.14962 6.121994 82.127572 6.099946 82.100011 6.099946 M 82.100011 6.099946 L 94.099967 6.099946 C 94.072407 6.099946 94.050358 6.121994 94.050358 6.149555 M 94.050358 6.149555 L 94.050358 2.14911 C 94.050358 2.12155 94.072407 2.099501 94.099967 2.099501 M 94.099967 2.099501 L 106.099924 2.099501 C 106.127485 2.099501 106.149533 2.12155 106.149533 2.14911 M 106.149533 2.14911 L 106.149533 6.149555 C 106.149533 6.121994 106.127485 6.099946 106.099924 6.099946 M 106.099924 6.099946 L 118.099881 6.099946 C 118.07232 6.099946 118.050271 6.121994 118.050271 6.149555 M 118.050271 6.149555 L 118.050271 2.14911 C 118.050271 2.12155 118.07232 2.099501 118.099881 2.099501 M 118.099881 2.099501 L 130.099837 2.099501 C 130.127398 2.099501 130.149447 2.12155 130.149447 2.14911 M 130.149447 2.14911 L 130.149447 6.149555 C 130.149447 6.121994 130.127398 6.099946 130.099837 6.099946 M 130.099837 6.099946 L 146.100239 6.099946 M 146.100239 6.099946 C 146.127799 6.099946 146.149848 6.121994 146.149848 6.149555 M 146.149848 6.149555 L 146.149848 6.149555 M 146.149848 6.149555 L 146.149848 17.149056 C 146.149848 17.121495 146.127799 17.099447 146.100239 17.099447 M 146.100239 17.099447 L 150.100684 17.099447 C 150.128244 17.099447 150.150293 17.121495 150.150293 17.149056 M 150.150293 17.149056 L 150.150293 29.149013 C 150.150293 29.176573 150.128244 29.198622 150.100684 29.198622 M 150.100684 29.198622 L 146.100239 29.198622 C 146.127799 29.198622 146.149848 29.176573 146.149848 29.149013 M 146.149848 29.149013 L 146.149848 41.148969 C 146.149848 41.121409 146.127799 41.09936 146.100239 41.09936 M 146.100239 41.09936 L 150.100684 41.09936 C 150.128244 41.09936 150.150293 41.121409 150.150293 41.148969 M 150.150293 41.148969 L 150.150293 53.148926 C 150.150293 53.176487 150.128244 53.198535 150.100684 53.198535 M 150.100684 53.198535 L 146.100239 53.198535 C 146.127799 53.198535 146.149848 53.176487 146.149848 53.148926 M 146.149848 53.148926 L 146.149848 65.148882 C 146.149848 65.121322 146.127799 65.099273 146.100239 65.099273 M 146.100239 65.099273 L 150.100684 65.099273 C 150.128244 65.099273 150.150293 65.121322 150.150293 65.148882 M 150.150293 65.148882 L 150.150293 77.148839 C 150.150293 77.1764 150.128244 77.198448 150.100684 77.198448 M 150.100684 77.198448 L 146.100239 77.198448 C 146.127799 77.198448 146.149848 77.1764 146.149848 77.148839 M 146.149848 77.148839 L 146.149848 89.148796 C 146.149848 89.121235 146.127799 89.099186 146.100239 89.099186 M 146.100239 89.099186 L 150.100684 89.099186 C 150.128244 89.099186 150.150293 89.121235 150.150293 89.148796 M 150.150293 89.148796 L 150.150293 101.148752 C 150.150293 101.176313 150.128244 101.198362 150.100684 101.198362 M 150.100684 101.198362 L 146.100239 101.198362 C 146.127799 101.198362 146.149848 101.176313 146.149848 101.148752 M 146.149848 101.148752 L 146.149848 113.148709 C 146.149848 113.121148 146.127799 113.099099 146.100239 113.099099 M 146.100239 113.099099 L 150.100684 113.099099 C 150.128244 113.099099 150.150293 113.121148 150.150293 113.148709 M 150.150293 113.148709 L 150.150293 125.148665 C 150.150293 125.176226 150.128244 125.198275 150.100684 125.198275 M 150.100684 125.198275 L 146.100239 125.198275 C 146.127799 125.198275 146.149848 125.176226 146.149848 125.148665 M 146.149848 125.148665 L 146.149848 137.148622 C 146.149848 137.121061 146.127799 137.099013 146.100239 137.099013 M 146.100239 137.099013 L 150.100684 137.099013 C 150.128244 137.099013 150.150293 137.121061 150.150293 137.148622 M 150.150293 137.148622 L 150.150293 149.148579 C 150.150293 149.176139 150.128244 149.198188 150.100684 149.198188 M 150.100684 149.198188 L 146.100239 149.198188 C 146.127799 149.198188 146.149848 149.176139 146.149848 149.148579 M 146.149848 149.148579 L 146.149848 161.148535 C 146.149848 161.120974 146.127799 161.098926 146.100239 161.098926 M 146.100239 161.098926 L 150.100684 161.098926 C 150.128244 161.098926 150.150293 161.120974 150.150293 161.148535 M 150.150293 161.148535 L 150.150293 173.148492 C 150.150293 173.176053 150.128244 173.198101 150.100684 173.198101 M 150.100684 173.198101 L 146.100239 173.198101 C 146.127799 173.198101 146.149848 173.176053 146.149848 173.148492 M 146.149848 173.148492 L 146.149848 185.148448 C 146.149848 185.120888 146.127799 185.098839 146.100239 185.098839 M 146.100239 185.098839 L 150.100684 185.098839 C 150.128244 185.098839 150.150293 185.120888 150.150293 185.148448 M 150.150293 185.148448 L 150.150293 197.148405 C 150.150293 197.175966 150.128244 197.198014 150.100684 197.198014 M 150.100684 197.198014 L 146.100239 197.198014 C 146.127799 197.198014 146.149848 197.175966 146.149848 197.148405 M 146.149848 197.148405 L 146.149848 208.147906 M 146.149848 208.147906 C 146.149848 208.175467 146.127799 208.197515 146.100239 208.197515 M 146.100239 208.197515 L 146.100239 208.197515 M 146.100239 208.197515 L 130.099837 208.197515 C 130.127398 208.197515 130.149447 208.175467 130.149447 208.147906 M 130.149447 208.147906 L 130.149447 212.148351 C 130.149447 212.175912 130.127398 212.19796 130.099837 212.19796 M 130.099837 212.19796 L 118.099881 212.19796 C 118.07232 212.19796 118.050271 212.175912 118.050271 212.148351 M 118.050271 212.148351 L 118.050271 208.147906 C 118.050271 208.175467 118.07232 208.197515 118.099881 208.197515 M 118.099881 208.197515 L 106.099924 208.197515 C 106.127485 208.197515 106.149533 208.175467 106.149533 208.147906 M 106.149533 208.147906 L 106.149533 212.148351 C 106.149533 212.175912 106.127485 212.19796 106.099924 212.19796 M 106.099924 212.19796 L 94.099967 212.19796 C 94.072407 212.19796 94.050358 212.175912 94.050358 212.148351 M 94.050358 212.148351 L 94.050358 208.147906 C 94.050358 208.175467 94.072407 208.197515 94.099967 208.197515 M 94.099967 208.197515 L 82.100011 208.197515 C 82.127572 208.197515 82.14962 208.175467 82.14962 208.147906 M 82.14962 208.147906 L 82.14962 212.148351 C 82.14962 212.175912 82.127572 212.19796 82.100011 212.19796 M 82.100011 212.19796 L 70.100054 212.19796 C 70.072493 212.19796 70.050445 212.175912 70.050445 212.148351 M 70.050445 212.148351 L 70.050445 208.147906 C 70.050445 208.175467 70.072493 208.197515 70.100054 208.197515 M 70.100054 208.197515 L 58.100098 208.197515 C 58.127658 208.197515 58.149707 208.175467 58.149707 208.147906 M 58.149707 208.147906 L 58.149707 212.148351 C 58.149707 212.175912 58.127658 212.19796 58.100098 212.19796 M 58.100098 212.19796 L 46.100141 212.19796 C 46.07258 212.19796 46.050532 212.175912 46.050532 212.148351 M 46.050532 212.148351 L 46.050532 208.147906 C 46.050532 208.175467 46.07258 208.197515 46.100141 208.197515 M 46.100141 208.197515 L 34.100184 208.197515 C 34.127745 208.197515 34.149794 208.175467 34.149794 208.147906 M 34.149794 208.147906 L 34.149794 212.148351 C 34.149794 212.175912 34.127745 212.19796 34.100184 212.19796 M 34.100184 212.19796 L 22.100228 212.19796 C 22.072667 212.19796 22.050618 212.175912 22.050618 212.148351 M 22.050618 212.148351 L 22.050618 208.147906 C 22.050618 208.175467 22.072667 208.197515 22.100228 208.197515 M 22.100228 208.197515 L 6.099826 208.197515 M 6.099826 208.197515 C 6.072266 208.197515 6.050217 208.175467 6.050217 208.147906 M 6.050217 208.147906 L 6.050217 208.147906 M 6.050217 208.147906 L 6.050217 197.148405 C 6.050217 197.175966 6.072266 197.198014 6.099826 197.198014 M 6.099826 197.198014 L 2.099382 197.198014 C 2.071821 197.198014 2.049772 197.175966 2.049772 197.148405 M 2.049772 197.148405 L 2.049772 185.148448 C 2.049772 185.120888 2.071821 185.098839 2.099382 185.098839 M 2.099382 185.098839 L 6.099826 185.098839 C 6.072266 185.098839 6.050217 185.120888 6.050217 185.148448 M 6.050217 185.148448 L 6.050217 173.148492 C 6.050217 173.176053 6.072266 173.198101 6.099826 173.198101 M 6.099826 173.198101 L 2.099382 173.198101 C 2.071821 173.198101 2.049772 173.176053 2.049772 173.148492 M 2.049772 173.148492 L 2.049772 161.148535 C 2.049772 161.120974 2.071821 161.098926 2.099382 161.098926 M 2.099382 161.098926 L 6.099826 161.098926 C 6.072266 161.098926 6.050217 161.120974 6.050217 161.148535 M 6.050217 161.148535 L 6.050217 149.148579 C 6.050217 149.176139 6.072266 149.198188 6.099826 149.198188 M 6.099826 149.198188 L 2.099382 149.198188 C 2.071821 149.198188 2.049772 149.176139 2.049772 149.148579 M 2.049772 149.148579 L 2.049772 137.148622 C 2.049772 137.121061 2.071821 137.099013 2.099382 137.099013 M 2.099382 137.099013 L 6.099826 137.099013 C 6.072266 137.099013 6.050217 137.121061 6.050217 137.148622 M 6.050217 137.148622 L 6.050217 125.148665 C 6.050217 125.176226 6.072266 125.198275 6.099826 125.198275 M 6.099826 125.198275 L 2.099382 125.198275 C 2.071821 125.198275 2.049772 125.176226 2.049772 125.148665 M 2.049772 125.148665 L 2.049772 113.148709 C 2.049772 113.121148 2.071821 113.099099 2.099382 113.099099 M 2.099382 113.099099 L 6.099826 113.099099 C 6.072266 113.099099 6.050217 113.121148 6.050217 113.148709 M 6.050217 113.148709 L 6.050217 101.148752 C 6.050217 101.176313 6.072266 101.198362 6.099826 101.198362 M 6.099826 101.198362 L 2.099382 101.198362 C 2.071821 101.198362 2.049772 101.176313 2.049772 101.148752 M 2.049772 101.148752 L 2.049772 89.148796 C 2.049772 89.121235 2.071821 89.099186 2.099382 89.099186 M 2.099382 89.099186 L 6.099826 89.099186 C 6.072266 89.099186 6.050217 89.121235 6.050217 89.148796 M 6.050217 89.148796 L 6.050217 77.148839 C 6.050217 77.1764 6.072266 77.198448 6.099826 77.198448 M 6.099826 77.198448 L 2.099382 77.198448 C 2.071821 77.198448 2.049772 77.1764 2.049772 77.148839 M 2.049772 77.148839 L 2.049772 65.148882 C 2.049772 65.121322 2.071821 65.099273 2.099382 65.099273 M 2.099382 65.099273 L 6.099826 65.099273 C 6.072266 65.099273 6.050217 65.121322 6.050217 65.148882 M 6.050217 65.148882 L 6.050217 53.148926 C 6.050217 53.176487 6.072266 53.198535 6.099826 53.198535 M 6.099826 53.198535 L 2.099382 53.198535 C 2.071821 53.198535 2.049772 53.176487 2.049772 53.148926 M 2.049772 53.148926 L 2.049772 41.148969 C 2.049772 41.121409 2.071821 41.09936 2.099382 41.09936 M 2.099382 41.09936 L 6.099826 41.09936 C 6.072266 41.09936 6.050217 41.121409 6.050217 41.148969 M 6.050217 41.148969 L 6.050217 29.149013 C 6.050217 29.176573 6.072266 29.198622 6.099826 29.198622 M 6.099826 29.198622 L 2.099382 29.198622 C 2.071821 29.198622 2.049772 29.176573 2.049772 29.149013 M 2.049772 29.149013 L 2.049772 17.149056 C 2.049772 17.121495 2.071821 17.099447 2.099382 17.099447 M 2.099382 17.099447 L 6.099826 17.099447 C 6.072266 17.099447 6.050217 17.121495 6.050217 17.149056 M 6.050217 17.149056 L 6.050217 6.149555 M 6.050217 6.149555 C 6.050217 6.121994 6.072266 6.099946 6.099826 6.099946 " transform="matrix(2.834646,0,0,-2.834646,442.771654,883.27556)"/>
</g>
</svg>
