<?xml version="1.0" encoding="UTF-8"?>
<svg xmlns="http://www.w3.org/2000/svg" xmlns:xlink="http://www.w3.org/1999/xlink" width="140mm" height="240mm" viewBox="0 0 140 240" version="1.1">
<g id="surface1">
<path style="fill:none;stroke-width:0.1;stroke-linecap:butt;stroke-linejoin:miter;stroke:rgb(0%,0%,0%);stroke-opacity:1;stroke-miterlimit:10;" d="M 2.101562 2.101562 L 6.101562 2.101562 M 13.152344 6.152344 L 25.050781 6.152344 L 25.050781 10.050781 L 13.152344 10.050781 Z M 37.152344 6.152344 L 49.050781 6.152344 L 49.050781 10.050781 L 37.152344 10.050781 Z M 6.101562 2.101562 L 56.101562 2.101562 M 56.101562 2.101562 L 60.101562 2.101562 C 60.128906 2.101562 60.152344 2.125 60.152344 2.152344 M 60.152344 2.152344 L 60.152344 10.152344 M 60.152344 10.152344 L 60.152344 27.152344 C 60.152344 27.179688 60.128906 27.203125 60.101562 27.203125 M 60.101562 27.203125 L 56.101562 27.203125 C 56.128906 27.203125 56.152344 27.179688 56.152344 27.152344 M 56.152344 27.152344 L 56.152344 39.152344 C 56.152344 39.125 56.128906 39.101562 56.101562 39.101562 M 56.101562 39.101562 L 60.101562 39.101562 C 60.128906 39.101562 60.152344 39.125 60.152344 39.152344 M 60.152344 39.152344 L 60.152344 51.152344 C 60.152344 51.179688 60.128906 51.203125 60.101562 51.203125 M 60.101562 51.203125 L 56.101562 51.203125 C 56.128906 51.203125 56.152344 51.179688 56.152344 51.152344 M 56.152344 51.152344 L 56.152344 63.152344 C 56.152344 63.125 56.128906 63.101562 56.101562 63.101562 M 56.101562 63.101562 L 60.101562 63.101562 C 60.128906 63.101562 60.152344 63.125 60.152344 63.152344 M 60.152344 63.152344 L 60.152344 80.152344 M 60.152344 80.152344 C 60.152344 80.179688 60.128906 80.203125 60.101562 80.203125 M 60.101562 80.203125 L 56.101562 80.203125 M 56.101562 80.203125 L 6.101562 80.203125 M 6.101562 80.203125 L 2.101562 80.203125 C 2.074219 80.203125 2.050781 80.179688 2.050781 80.152344 M 2.050781 80.152344 L 2.050781 80.152344 M 2.050781 80.152344 L 2.050781 63.152344 C 2.050781 63.125 2.074219 63.101562 2.101562 63.101562 M 2.101562 63.101562 L 6.101562 63.101562 C 6.074219 63.101562 6.050781 63.125 6.050781 63.152344 M 6.050781 63.152344 L 6.050781 51.152344 C 6.050781 51.179688 6.074219 51.203125 6.101562 51.203125 M 6.101562 51.203125 L 2.101562 51.203125 C 2.074219 51.203125 2.050781 51.179688 2.050781 51.152344 M 2.050781 51.152344 L 2.050781 39.152344 C 2.050781 39.125 2.074219 39.101562 2.101562 39.101562 M 2.101562 39.101562 L 6.101562 39.101562 C 6.074219 39.101562 6.050781 39.125 6.050781 39.152344 M 6.050781 39.152344 L 6.050781 27.152344 C 6.050781 27.179688 6.074219 27.203125 6.101562 27.203125 M 6.101562 27.203125 L 2.101562 27.203125 C 2.074219 27.203125 2.050781 27.179688 2.050781 27.152344 M 2.050781 27.152344 L 2.050781 10.152344 M 2.050781 10.152344 L 2.050781 2.152344 C 2.050781 2.125 2.074219 2.101562 2.101562 2.101562 " transform="matrix(1,0,0,-1,4,236)"/>
<path style="fill:none;stroke-width:0.1;stroke-linecap:butt;stroke-linejoin:miter;stroke:rgb(0%,0%,0%);stroke-opacity:1;stroke-miterlimit:10;" d="M 6.100781 2.101562 L 6.100781 2.101562 M 13.151562 6.152344 L 25.05 6.152344 L 25.05 10.050781 L 13.151562 10.050781 Z M 37.151562 6.152344 L 49.05 6.152344 L 49.05 10.050781 L 37.151562 10.050781 Z M 6.100781 2.101562 L 56.100781 2.101562 M 56.100781 2.101562 C 56.128125 2.101562 56.151562 2.125 56.151562 2.152344 M 56.151562 2.152344 L 56.151562 10.152344 M 56.151562 10.152344 L 56.151562 27.152344 C 56.151562 27.125 56.128125 27.101562 56.100781 27.101562 M 56.100781 27.101562 L 60.100781 27.101562 C 60.128125 27.101562 60.151562 27.125 60.151562 27.152344 M 60.151562 27.152344 L 60.151562 39.152344 C 60.151562 39.179688 60.128125 39.203125 60.100781 39.203125 M 60.100781 39.203125 L 56.100781 39.203125 C 56.128125 39.203125 56.151562 39.179688 56.151562 39.152344 M 56.151562 39.152344 L 56.151562 51.152344 C 56.151562 51.125 56.128125 51.101562 56.100781 51.101562 M 56.100781 51.101562 L 60.100781 51.101562 C 60.128125 51.101562 60.151562 51.125 60.151562 51.152344 M 60.151562 51.152344 L 60.151562 63.152344 C 60.151562 63.179688 60.128125 63.203125 60.100781 63.203125 M 60.100781 63.203125 L 56.100781 63.203125 C 56.128125 63.203125 56.151562 63.179688 56.151562 63.152344 M 56.151562 63.152344 L 56.151562 80.152344 M 56.151562 80.152344 C 56.151562 80.179688 56.128125 80.203125 56.100781 80.203125 M 56.100781 80.203125 L 56.100781 80.203125 M 56.100781 80.203125 L 6.100781 80.203125 M 6.100781 80.203125 C 6.073437 80.203125 6.05 80.179688 6.05 80.152344 M 6.05 80.152344 L 6.05 80.152344 M 6.05 80.152344 L 6.05 63.152344 C 6.05 63.179688 6.073437 63.203125 6.100781 63.203125 M 6.100781 63.203125 L 2.100781 63.203125 C 2.073437 63.203125 2.05 63.179688 2.05 63.152344 M 2.05 63.152344 L 2.05 51.152344 C 2.05 51.125 2.073437 51.101562 2.100781 51.101562 M 2.100781 51.101562 L 6.100781 51.101562 C 6.073437 51.101562 6.05 51.125 6.05 51.152344 M 6.05 51.152344 L 6.05 39.152344 C 6.05 39.179688 6.073437 39.203125 6.100781 39.203125 M 6.100781 39.203125 L 2.100781 39.203125 C 2.073437 39.203125 2.05 39.179688 2.05 39.152344 M 2.05 39.152344 L 2.05 27.152344 C 2.05 27.125 2.073437 27.101562 2.100781 27.101562 M 2.100781 27.101562 L 6.100781 27.101562 C 6.073437 27.101562 6.05 27.125 6.05 27.152344 M 6.05 27.152344 L 6.05 10.152344 M 6.05 10.152344 L 6.05 2.152344 C 6.05 2.125 6.073437 2.101562 6.100781 2.101562 " transform="matrix(1,0,0,-1,66.2,236)"/>
<path style="fill:none;stroke-width:0.1;stroke-linecap:butt;stroke-linejoin:miter;stroke:rgb(0%,0%,0%);stroke-opacity:1;stroke-miterlimit:10;" d="M 6.100781 2.100781 L 6.100781 2.100781 M 13.151562 6.151563 L 25.05 6.151563 L 25.05 10.05 L 13.151562 10.05 Z M 37.151562 6.151563 L 49.05 6.151563 L 49.05 10.05 L 37.151562 10.05 Z M 6.100781 2.100781 L 56.100781 2.100781 M 56.100781 2.100781 C 56.128125 2.100781 56.151562 2.124219 56.151562 2.151563 M 56.151562 2.151563 L 56.151562 10.151563 M 56.151562 10.151563 L 56.151562 27.151563 C 56.151562 27.124219 56.128125 27.100781 56.100781 27.100781 M 56.100781 27.100781 L 60.100781 27.100781 C 60.128125 27.100781 60.151562 27.124219 60.151562 27.151563 M 60.151562 27.151563 L 60.151562 39.151563 C 60.151562 39.178906 60.128125 39.202344 60.100781 39.202344 M 60.100781 39.202344 L 56.100781 39.202344 C 56.128125 39.202344 56.151562 39.178906 56.151562 39.151563 M 56.151562 39.151563 L 56.151562 51.151563 C 56.151562 51.124219 56.128125 51.100781 56.100781 51.100781 M 56.100781 51.100781 L 60.100781 51.100781 C 60.128125 51.100781 60.151562 51.124219 60.151562 51.151563 M 60.151562 51.151563 L 60.151562 63.151563 C 60.151562 63.178906 60.128125 63.202344 60.100781 63.202344 M 60.100781 63.202344 L 56.100781 63.202344 C 56.128125 63.202344 56.151562 63.178906 56.151562 63.151563 M 56.151562 63.151563 L 56.151562 80.151563 M 56.151562 80.151563 C 56.151562 80.178906 56.128125 80.202344 56.100781 80.202344 M 56.100781 80.202344 L 56.100781 80.202344 M 56.100781 80.202344 L 6.100781 80.202344 M 6.100781 80.202344 C 6.073437 80.202344 6.05 80.178906 6.05 80.151563 M 6.05 80.151563 L 6.05 80.151563 M 6.05 80.151563 L 6.05 63.151563 C 6.05 63.178906 6.073437 63.202344 6.100781 63.202344 M 6.100781 63.202344 L 2.100781 63.202344 C 2.073437 63.202344 2.05 63.178906 2.05 63.151563 M 2.05 63.151563 L 2.05 51.151563 C 2.05 51.124219 2.073437 51.100781 2.100781 51.100781 M 2.100781 51.100781 L 6.100781 51.100781 C 6.073437 51.100781 6.05 51.124219 6.05 51.151563 M 6.05 51.151563 L 6.05 39.151563 C 6.05 39.178906 6.073437 39.202344 6.100781 39.202344 M 6.100781 39.202344 L 2.100781 39.202344 C 2.073437 39.202344 2.05 39.178906 2.05 39.151563 M 2.05 39.151563 L 2.05 27.151563 C 2.05 27.124219 2.073437 27.100781 2.100781 27.100781 M 2.100781 27.100781 L 6.100781 27.100781 C 6.073437 27.100781 6.05 27.124219 6.05 27.151563 M 6.05 27.151563 L 6.05 10.151563 M 6.05 10.151563 L 6.05 2.151563 C 6.05 2.124219 6.073437 2.100781 6.100781 2.100781 " transform="matrix(1,0,0,-1,66.2,153.8)"/>
<path style="fill:none;stroke-width:0.1;stroke-linecap:butt;stroke-linejoin:miter;stroke:rgb(0%,0%,0%);stroke-opacity:1;stroke-miterlimit:10;" d="M 2.101562 2.100781 L 6.101562 2.100781 M 13.152344 6.151563 L 25.050781 6.151563 L 25.050781 10.05 L 13.152344 10.05 Z M 37.152344 6.151563 L 49.050781 6.151563 L 49.050781 10.05 L 37.152344 10.05 Z M 6.101562 2.100781 L 56.101562 2.100781 M 56.101562 2.100781 L 60.101562 2.100781 C 60.128906 2.100781 60.152344 2.124219 60.152344 2.151563 M 60.152344 2.151563 L 60.152344 10.151563 M 60.152344 10.151563 L 60.152344 27.151563 C 60.152344 27.178906 60.128906 27.202344 60.101562 27.202344 M 60.101562 27.202344 L 56.101562 27.202344 C 56.128906 27.202344 56.152344 27.178906 56.152344 27.151563 M 56.152344 27.151563 L 56.152344 39.151563 C 56.152344 39.124219 56.128906 39.100781 56.101562 39.100781 M 56.101562 39.100781 L 60.101562 39.100781 C 60.128906 39.100781 60.152344 39.124219 60.152344 39.151563 M 60.152344 39.151563 L 60.152344 51.151563 C 60.152344 51.178906 60.128906 51.202344 60.101562 51.202344 M 60.101562 51.202344 L 56.101562 51.202344 C 56.128906 51.202344 56.152344 51.178906 56.152344 51.151563 M 56.152344 51.151563 L 56.152344 63.151563 C 56.152344 63.124219 56.128906 63.100781 56.101562 63.100781 M 56.101562 63.100781 L 60.101562 63.100781 C 60.128906 63.100781 60.152344 63.124219 60.152344 63.151563 M 60.152344 63.151563 L 60.152344 80.151563 M 60.152344 80.151563 C 60.152344 80.178906 60.128906 80.202344 60.101562 80.202344 M 60.101562 80.202344 L 56.101562 80.202344 M 56.101562 80.202344 L 6.101562 80.202344 M 6.101562 80.202344 L 2.101562 80.202344 C 2.074219 80.202344 2.050781 80.178906 2.050781 80.151563 M 2.050781 80.151563 L 2.050781 80.151563 M 2.050781 80.151563 L 2.050781 63.151563 C 2.050781 63.124219 2.074219 63.100781 2.101562 63.100781 M 2.101562 63.100781 L 6.101562 63.100781 C 6.074219 63.100781 6.050781 63.124219 6.050781 63.151563 M 6.050781 63.151563 L 6.050781 51.151563 C 6.050781 51.178906 6.074219 51.202344 6.101562 51.202344 M 6.101562 51.202344 L 2.101562 51.202344 C 2.074219 51.202344 2.050781 51.178906 2.050781 51.151563 M 2.050781 51.151563 L 2.050781 39.151563 C 2.050781 39.124219 2.074219 39.100781 2.101562 39.100781 M 2.101562 39.100781 L 6.101562 39.100781 C 6.074219 39.100781 6.050781 39.124219 6.050781 39.151563 M 6.050781 39.151563 L 6.050781 27.151563 C 6.050781 27.178906 6.074219 27.202344 6.101562 27.202344 M 6.101562 27.202344 L 2.101562 27.202344 C 2.074219 27.202344 2.050781 27.178906 2.050781 27.151563 M 2.050781 27.151563 L 2.050781 10.151563 M 2.050781 10.151563 L 2.050781 2.151563 C 2.050781 2.124219 2.074219 2.100781 2.101562 2.100781 " transform="matrix(1,0,0,-1,4,153.8)"/>
<path style="fill:none;stroke-width:0.1;stroke-linecap:butt;stroke-linejoin:miter;stroke:rgb(0%,0%,0%);stroke-opacity:1;stroke-miterlimit:10;" d="M 6.101562 6.1 L 6.101562 6.1 M 6.101562 6.1 L 13.101562 6.1 C 13.074219 6.1 13.050781 6.123438 13.050781 6.150781 M 13.050781 6.150781 L 13.050781 2.150781 C 13.050781 2.123438 13.074219 2.1 13.101562 2.1 M 13.101562 2.1 L 25.101562 2.1 C 25.128906 2.1 25.152344 2.123438 25.152344 2.150781 M 25.152344 2.150781 L 25.152344 6.150781 C 25.152344 6.123438 25.128906 6.1 25.101562 6.1 M 25.101562 6.1 L 37.101562 6.1 C 37.074219 6.1 37.050781 6.123438 37.050781 6.150781 M 37.050781 6.150781 L 37.050781 2.150781 C 37.050781 2.123438 37.074219 2.1 37.101562 2.1 M 37.101562 2.1 L 49.101562 2.1 C 49.128906 2.1 49.152344 2.123438 49.152344 2.150781 M 49.152344 2.150781 L 49.152344 6.150781 C 49.152344 6.123438 49.128906 6.1 49.101562 6.1 M 49.101562 6.1 L 56.101562 6.1 M 56.101562 6.1 C 56.128906 6.1 56.152344 6.123438 56.152344 6.150781 M 56.152344 6.150781 L 56.152344 6.150781 M 56.152344 6.150781 L 56.152344 13.150781 C 56.152344 13.123438 56.128906 13.1 56.101562 13.1 M 56.101562 13.1 L 60.101562 13.1 C 60.128906 13.1 60.152344 13.123438 60.152344 13.150781 M 60.152344 13.150781 L 60.152344 25.150781 C 60.152344 25.178125 60.128906 25.201563 60.101562 25.201563 M 60.101562 25.201563 L 56.101562 25.201563 C 56.128906 25.201563 56.152344 25.178125 56.152344 25.150781 M 56.152344 25.150781 L 56.152344 37.150781 C 56.152344 37.123438 56.128906 37.1 56.101562 37.1 M 56.101562 37.1 L 60.101562 37.1 C 60.128906 37.1 60.152344 37.123438 60.152344 37.150781 M 60.152344 37.150781 L 60.152344 49.150781 C 60.152344 49.178125 60.128906 49.201563 60.101562 49.201563 M 60.101562 49.201563 L 56.101562 49.201563 C 56.128906 49.201563 56.152344 49.178125 56.152344 49.150781 M 56.152344 49.150781 L 56.152344 56.150781 M 56.152344 56.150781 C 56.152344 56.178125 56.128906 56.201563 56.101562 56.201563 M 56.101562 56.201563 L 56.101562 56.201563 M 56.101562 56.201563 L 49.101562 56.201563 C 49.128906 56.201563 49.152344 56.178125 49.152344 56.150781 M 49.152344 56.150781 L 49.152344 60.150781 C 49.152344 60.178125 49.128906 60.201563 49.101562 60.201563 M 49.101562 60.201563 L 37.101562 60.201563 C 37.074219 60.201563 37.050781 60.178125 37.050781 60.150781 M 37.050781 60.150781 L 37.050781 56.150781 C 37.050781 56.178125 37.074219 56.201563 37.101562 56.201563 M 37.101562 56.201563 L 25.101562 56.201563 C 25.128906 56.201563 25.152344 56.178125 25.152344 56.150781 M 25.152344 56.150781 L 25.152344 60.150781 C 25.152344 60.178125 25.128906 60.201563 25.101562 60.201563 M 25.101562 60.201563 L 13.101562 60.201563 C 13.074219 60.201563 13.050781 60.178125 13.050781 60.150781 M 13.050781 60.150781 L 13.050781 56.150781 C 13.050781 56.178125 13.074219 56.201563 13.101562 56.201563 M 13.101562 56.201563 L 6.101562 56.201563 M 6.101562 56.201563 C 6.074219 56.201563 6.050781 56.178125 6.050781 56.150781 M 6.050781 56.150781 L 6.050781 56.150781 M 6.050781 56.150781 L 6.050781 49.150781 C 6.050781 49.178125 6.074219 49.201563 6.101562 49.201563 M 6.101562 49.201563 L 2.101562 49.201563 C 2.074219 49.201563 2.050781 49.178125 2.050781 49.150781 M 2.050781 49.150781 L 2.050781 37.150781 C 2.050781 37.123438 2.074219 37.1 2.101562 37.1 M 2.101562 37.1 L 6.101562 37.1 C 6.074219 37.1 6.050781 37.123438 6.050781 37.150781 M 6.050781 37.150781 L 6.050781 25.150781 C 6.050781 25.178125 6.074219 25.201563 6.101562 25.201563 M 6.101562 25.201563 L 2.101562 25.201563 C 2.074219 25.201563 2.050781 25.178125 2.050781 25.150781 M 2.050781 25.150781 L 2.050781 13.150781 C 2.050781 13.123438 2.074219 13.1 2.101562 13.1 M 2.101562 13.1 L 6.101562 13.1 C 6.074219 13.1 6.050781 13.123438 6.050781 13.150781 M 6.050781 13.150781 L 6.050781 6.150781 M 6.050781 6.150781 C 6.050781 6.123438 6.074219 6.1 6.101562 6.1 " transform="matrix(1,0,0,-1,4,71.6)"/>
</g>
</svg>
