<?xml version='1.0' encoding='utf-8'?>
<svg height="137.06mm" viewBox="0.0 0.0 449.37 137.06" width="449.37mm" xmlns="http://www.w3.org/2000/svg" xmlns:cc="http://creativecommons.org/ns#" xmlns:dc="http://purl.org/dc/elements/1.1/" xmlns:inkscape="http://www.inkscape.org/namespaces/inkscape" xmlns:rdf="http://www.w3.org/1999/02/22-rdf-syntax-ns#" xmlns:svg="http://www.w3.org/2000/svg" xmlns:xlink="http://www.w3.org/1999/xlink">
<!--
BurnTest - Test different burn values


This generator will make shapes that you can use to select
optimal value for burn parameter for other generators. After burning try to
attach sides with the same value and use best fitting one on real projects.
In this generator set burn in the Default Settings to the lowest value
to be tested. To get an idea cut a rectangle with known nominal size and
measure the shrinkage due to the width of the laser cut. Now you can
measure the burn value that you should use in other generators. It is half
the difference of the overall size as shrinkage is occurring on both
sides. You can use the reference rectangle as it is rendered without burn
correction.

See also LBeam that can serve as compact BurnTest and FlexTest for testing flex settings.



Created with Boxes.py (https://festi.info/boxes.py)
Command line (remove spaces between dashes): boxes BurnTest
-->
<title>BurnTest</title>
<metadata>
<rdf:RDF><cc:Work>
<dc:title>Part - BurnTest</dc:title>
<dc:source>boxes BurnTest</dc:source>
<dc:description>Test different burn values

This generator will make shapes that you can use to select
optimal value for burn parameter for other generators. After burning try to
attach sides with the same value and use best fitting one on real projects.
In this generator set burn in the Default Settings to the lowest value
to be tested. To get an idea cut a rectangle with known nominal size and
measure the shrinkage due to the width of the laser cut. Now you can
measure the burn value that you should use in other generators. It is half
the difference of the overall size as shrinkage is occurring on both
sides. You can use the reference rectangle as it is rendered without burn
correction.

See also LBeam that can serve as compact BurnTest and FlexTest for testing flex settings.


Created with Boxes.py (https://festi.info/boxes.py)
Command line: boxes BurnTest
Command line short: boxes BurnTest
</dc:description>
</cc:Work></rdf:RDF></metadata>
<g id="p-0" style="fill:none;stroke-linecap:round;stroke-linejoin:round;">
  <path d="M 10.980 127.060 H 110.980 V 117.060 H 10.980 V 127.060 Z" stroke="rgb(0,0,0)" stroke-width="0.20" />
  <text dominant-baseline="hanging" font-size="6px" style="font-family: sans-serif ; font-weight: normal; font-style: normal; fill: rgb(255,0,0)" text-anchor="middle" transform="matrix( 1.000 0.000 0.000 1.000 60.980 119.060 )">100.0mm, burn:0.10mm</text>
</g>
<g id="p-1" style="fill:none;stroke-linecap:round;stroke-linejoin:round;">
  <text dominant-baseline="hanging" font-size="10px" style="font-family: sans-serif ; font-weight: normal; font-style: normal; fill: rgb(0,255,0)" text-anchor="middle" transform="matrix( 1.000 0.000 0.000 1.000 63.130 100.210 )">0.100mm</text><text dominant-baseline="hanging" font-size="10px" style="font-family: sans-serif ; font-weight: normal; font-style: normal; fill: rgb(0,255,0)" text-anchor="middle" transform="matrix( 0.000 -1.000 1.000 0.000 100.230 63.110 )">0.110mm</text><text dominant-baseline="hanging" font-size="10px" style="font-family: sans-serif ; font-weight: normal; font-style: normal; fill: rgb(0,255,0)" text-anchor="middle" transform="matrix( -1.000 0.000 -0.000 -1.000 63.120 26.000 )">0.120mm</text><text dominant-baseline="hanging" font-size="10px" style="font-family: sans-serif ; font-weight: normal; font-style: normal; fill: rgb(0,255,0)" text-anchor="middle" transform="matrix( 0.000 1.000 -1.000 0.000 26.000 63.120 )">0.130mm</text><text dominant-baseline="hanging" font-size="10px" style="font-family: sans-serif ; font-weight: normal; font-style: normal; fill: rgb(0,255,0)" text-anchor="middle" transform="matrix( 1.000 0.000 0.000 1.000 170.830 103.250 )">0.100mm</text><text dominant-baseline="hanging" font-size="10px" style="font-family: sans-serif ; font-weight: normal; font-style: normal; fill: rgb(0,255,0)" text-anchor="middle" transform="matrix( 0.000 -1.000 1.000 0.000 210.930 63.150 )">0.110mm</text><text dominant-baseline="hanging" font-size="10px" style="font-family: sans-serif ; font-weight: normal; font-style: normal; fill: rgb(0,255,0)" text-anchor="middle" transform="matrix( -1.000 0.000 -0.000 -1.000 170.820 23.040 )">0.120mm</text><text dominant-baseline="hanging" font-size="10px" style="font-family: sans-serif ; font-weight: normal; font-style: normal; fill: rgb(0,255,0)" text-anchor="middle" transform="matrix( 0.000 1.000 -1.000 0.000 130.700 63.160 )">0.130mm</text><text dominant-baseline="hanging" font-size="10px" style="font-family: sans-serif ; font-weight: normal; font-style: normal; fill: rgb(0,255,0)" text-anchor="middle" transform="matrix( 1.000 0.000 0.000 1.000 278.530 100.290 )">0.140mm</text><text dominant-baseline="hanging" font-size="10px" style="font-family: sans-serif ; font-weight: normal; font-style: normal; fill: rgb(0,255,0)" text-anchor="middle" transform="matrix( 0.000 -1.000 1.000 0.000 315.670 63.150 )">0.150mm</text><text dominant-baseline="hanging" font-size="10px" style="font-family: sans-serif ; font-weight: normal; font-style: normal; fill: rgb(0,255,0)" text-anchor="middle" transform="matrix( -1.000 0.000 -0.000 -1.000 278.520 26.000 )">0.160mm</text><text dominant-baseline="hanging" font-size="10px" style="font-family: sans-serif ; font-weight: normal; font-style: normal; fill: rgb(0,255,0)" text-anchor="middle" transform="matrix( 0.000 1.000 -1.000 0.000 241.360 63.160 )">0.170mm</text><text dominant-baseline="hanging" font-size="10px" style="font-family: sans-serif ; font-weight: normal; font-style: normal; fill: rgb(0,255,0)" text-anchor="middle" transform="matrix( 1.000 0.000 0.000 1.000 386.230 103.330 )">0.140mm</text><text dominant-baseline="hanging" font-size="10px" style="font-family: sans-serif ; font-weight: normal; font-style: normal; fill: rgb(0,255,0)" text-anchor="middle" transform="matrix( 0.000 -1.000 1.000 0.000 426.370 63.190 )">0.150mm</text><text dominant-baseline="hanging" font-size="10px" style="font-family: sans-serif ; font-weight: normal; font-style: normal; fill: rgb(0,255,0)" text-anchor="middle" transform="matrix( -1.000 0.000 -0.000 -1.000 386.220 23.040 )">0.160mm</text><text dominant-baseline="hanging" font-size="10px" style="font-family: sans-serif ; font-weight: normal; font-style: normal; fill: rgb(0,255,0)" text-anchor="middle" transform="matrix( 0.000 1.000 -1.000 0.000 346.060 63.200 )">0.170mm</text><path d="M 13.130 113.210 H 24.030 C 24.130 113.210 24.030 113.110 24.030 113.210 V 116.110 C 24.030 116.165 24.075 116.210 24.130 116.210 H 30.130 C 30.185 116.210 30.230 116.165 30.230 116.110 V 113.210 C 30.230 113.110 30.130 113.210 30.230 113.210 H 36.030 C 36.130 113.210 36.030 113.110 36.030 113.210 V 116.110 C 36.030 116.165 36.075 116.210 36.130 116.210 H 42.130 C 42.185 116.210 42.230 116.165 42.230 116.110 V 113.210 C 42.230 113.110 42.130 113.210 42.230 113.210 H 48.030 C 48.130 113.210 48.030 113.110 48.030 113.210 V 116.110 C 48.030 116.165 48.075 116.210 48.130 116.210 H 54.130 C 54.185 116.210 54.230 116.165 54.230 116.110 V 113.210 C 54.230 113.110 54.130 113.210 54.230 113.210 H 60.030 C 60.130 113.210 60.030 113.110 60.030 113.210 V 116.110 C 60.030 116.165 60.075 116.210 60.130 116.210 H 66.130 C 66.185 116.210 66.230 116.165 66.230 116.110 V 113.210 C 66.230 113.110 66.130 113.210 66.230 113.210 H 72.030 C 72.130 113.210 72.030 113.110 72.030 113.210 V 116.110 C 72.030 116.165 72.075 116.210 72.130 116.210 H 78.130 C 78.185 116.210 78.230 116.165 78.230 116.110 V 113.210 C 78.230 113.110 78.130 113.210 78.230 113.210 H 84.030 C 84.130 113.210 84.030 113.110 84.030 113.210 V 116.110 C 84.030 116.165 84.075 116.210 84.130 116.210 H 90.130 C 90.185 116.210 90.230 116.165 90.230 116.110 V 113.210 C 90.230 113.110 90.130 113.210 90.230 113.210 H 96.030 C 96.130 113.210 96.030 113.110 96.030 113.210 V 116.110 C 96.030 116.165 96.075 116.210 96.130 116.210 H 102.130 C 102.185 116.210 102.230 116.165 102.230 116.110 V 113.210 C 102.230 113.110 102.130 113.210 102.230 113.210 H 113.130 C 113.185 113.210 113.230 113.165 113.230 113.110 M 113.230 113.110 V 102.220 C 113.230 102.110 113.120 102.220 113.230 102.220 H 116.120 C 116.181 102.220 116.230 102.171 116.230 102.110 V 96.110 C 116.230 96.049 116.181 96.000 116.120 96.000 H 113.230 C 113.120 96.000 113.230 96.110 113.230 96.000 V 90.220 C 113.230 90.110 113.120 90.220 113.230 90.220 H 116.120 C 116.181 90.220 116.230 90.171 116.230 90.110 V 84.110 C 116.230 84.049 116.181 84.000 116.120 84.000 H 113.230 C 113.120 84.000 113.230 84.110 113.230 84.000 V 78.220 C 113.230 78.110 113.120 78.220 113.230 78.220 H 116.120 C 116.181 78.220 116.230 78.171 116.230 78.110 V 72.110 C 116.230 72.049 116.181 72.000 116.120 72.000 H 113.230 C 113.120 72.000 113.230 72.110 113.230 72.000 V 66.220 C 113.230 66.110 113.120 66.220 113.230 66.220 H 116.120 C 116.181 66.220 116.230 66.171 116.230 66.110 V 60.110 C 116.230 60.049 116.181 60.000 116.120 60.000 H 113.230 C 113.120 60.000 113.230 60.110 113.230 60.000 V 54.220 C 113.230 54.110 113.120 54.220 113.230 54.220 H 116.120 C 116.181 54.220 116.230 54.171 116.230 54.110 V 48.110 C 116.230 48.049 116.181 48.000 116.120 48.000 H 113.230 C 113.120 48.000 113.230 48.110 113.230 48.000 V 42.220 C 113.230 42.110 113.120 42.220 113.230 42.220 H 116.120 C 116.181 42.220 116.230 42.171 116.230 42.110 V 36.110 C 116.230 36.049 116.181 36.000 116.120 36.000 H 113.230 C 113.120 36.000 113.230 36.110 113.230 36.000 V 30.220 C 113.230 30.110 113.120 30.220 113.230 30.220 H 116.120 C 116.181 30.220 116.230 30.171 116.230 30.110 V 24.110 C 116.230 24.049 116.181 24.000 116.120 24.000 H 113.230 C 113.120 24.000 113.230 24.110 113.230 24.000 V 13.110 C 113.230 13.049 113.181 13.000 113.120 13.000 M 113.120 13.000 H 102.240 C 102.120 13.000 102.240 13.120 102.240 13.000 V 10.120 C 102.240 10.054 102.186 10.000 102.120 10.000 H 96.120 C 96.054 10.000 96.000 10.054 96.000 10.120 V 13.000 C 96.000 13.120 96.120 13.000 96.000 13.000 H 90.240 C 90.120 13.000 90.240 13.120 90.240 13.000 V 10.120 C 90.240 10.054 90.186 10.000 90.120 10.000 H 84.120 C 84.054 10.000 84.000 10.054 84.000 10.120 V 13.000 C 84.000 13.120 84.120 13.000 84.000 13.000 H 78.240 C 78.120 13.000 78.240 13.120 78.240 13.000 V 10.120 C 78.240 10.054 78.186 10.000 78.120 10.000 H 72.120 C 72.054 10.000 72.000 10.054 72.000 10.120 V 13.000 C 72.000 13.120 72.120 13.000 72.000 13.000 H 66.240 C 66.120 13.000 66.240 13.120 66.240 13.000 V 10.120 C 66.240 10.054 66.186 10.000 66.120 10.000 H 60.120 C 60.054 10.000 60.000 10.054 60.000 10.120 V 13.000 C 60.000 13.120 60.120 13.000 60.000 13.000 H 54.240 C 54.120 13.000 54.240 13.120 54.240 13.000 V 10.120 C 54.240 10.054 54.186 10.000 54.120 10.000 H 48.120 C 48.054 10.000 48.000 10.054 48.000 10.120 V 13.000 C 48.000 13.120 48.120 13.000 48.000 13.000 H 42.240 C 42.120 13.000 42.240 13.120 42.240 13.000 V 10.120 C 42.240 10.054 42.186 10.000 42.120 10.000 H 36.120 C 36.054 10.000 36.000 10.054 36.000 10.120 V 13.000 C 36.000 13.120 36.120 13.000 36.000 13.000 H 30.240 C 30.120 13.000 30.240 13.120 30.240 13.000 V 10.120 C 30.240 10.054 30.186 10.000 30.120 10.000 H 24.120 C 24.054 10.000 24.000 10.054 24.000 10.120 V 13.000 C 24.000 13.120 24.120 13.000 24.000 13.000 H 13.120 C 13.054 13.000 13.000 13.054 13.000 13.120 M 13.000 13.120 V 23.990 C 13.000 24.120 13.130 23.990 13.000 23.990 H 10.130 C 10.058 23.990 10.000 24.048 10.000 24.120 V 30.120 C 10.000 30.192 10.058 30.250 10.130 30.250 H 13.000 C 13.130 30.250 13.000 30.120 13.000 30.250 V 35.990 C 13.000 36.120 13.130 35.990 13.000 35.990 H 10.130 C 10.058 35.990 10.000 36.048 10.000 36.120 V 42.120 C 10.000 42.192 10.058 42.250 10.130 42.250 H 13.000 C 13.130 42.250 13.000 42.120 13.000 42.250 V 47.990 C 13.000 48.120 13.130 47.990 13.000 47.990 H 10.130 C 10.058 47.990 10.000 48.048 10.000 48.120 V 54.120 C 10.000 54.192 10.058 54.250 10.130 54.250 H 13.000 C 13.130 54.250 13.000 54.120 13.000 54.250 V 59.990 C 13.000 60.120 13.130 59.990 13.000 59.990 H 10.130 C 10.058 59.990 10.000 60.048 10.000 60.120 V 66.120 C 10.000 66.192 10.058 66.250 10.130 66.250 H 13.000 C 13.130 66.250 13.000 66.120 13.000 66.250 V 71.990 C 13.000 72.120 13.130 71.990 13.000 71.990 H 10.130 C 10.058 71.990 10.000 72.048 10.000 72.120 V 78.120 C 10.000 78.192 10.058 78.250 10.130 78.250 H 13.000 C 13.130 78.250 13.000 78.120 13.000 78.250 V 83.990 C 13.000 84.120 13.130 83.990 13.000 83.990 H 10.130 C 10.058 83.990 10.000 84.048 10.000 84.120 V 90.120 C 10.000 90.192 10.058 90.250 10.130 90.250 H 13.000 C 13.130 90.250 13.000 90.120 13.000 90.250 V 95.990 C 13.000 96.120 13.130 95.990 13.000 95.990 H 10.130 C 10.058 95.990 10.000 96.048 10.000 96.120 V 102.120 C 10.000 102.192 10.058 102.250 10.130 102.250 H 13.000 C 13.130 102.250 13.000 102.120 13.000 102.250 V 113.120 C 13.000 113.192 13.058 113.250 13.130 113.250 M 120.830 116.250 H 131.830 C 131.885 116.250 131.930 116.205 131.930 116.150 V 113.250 C 131.930 113.150 131.830 113.250 131.930 113.250 H 137.730 C 137.830 113.250 137.730 113.150 137.730 113.250 V 116.150 C 137.730 116.205 137.775 116.250 137.830 116.250 H 143.830 C 143.885 116.250 143.930 116.205 143.930 116.150 V 113.250 C 143.930 113.150 143.830 113.250 143.930 113.250 H 149.730 C 149.830 113.250 149.730 113.150 149.730 113.250 V 116.150 C 149.730 116.205 149.775 116.250 149.830 116.250 H 155.830 C 155.885 116.250 155.930 116.205 155.930 116.150 V 113.250 C 155.930 113.150 155.830 113.250 155.930 113.250 H 161.730 C 161.830 113.250 161.730 113.150 161.730 113.250 V 116.150 C 161.730 116.205 161.775 116.250 161.830 116.250 H 167.830 C 167.885 116.250 167.930 116.205 167.930 116.150 V 113.250 C 167.930 113.150 167.830 113.250 167.930 113.250 H 173.730 C 173.830 113.250 173.730 113.150 173.730 113.250 V 116.150 C 173.730 116.205 173.775 116.250 173.830 116.250 H 179.830 C 179.885 116.250 179.930 116.205 179.930 116.150 V 113.250 C 179.930 113.150 179.830 113.250 179.930 113.250 H 185.730 C 185.830 113.250 185.730 113.150 185.730 113.250 V 116.150 C 185.730 116.205 185.775 116.250 185.830 116.250 H 191.830 C 191.885 116.250 191.930 116.205 191.930 116.150 V 113.250 C 191.930 113.150 191.830 113.250 191.930 113.250 H 197.730 C 197.830 113.250 197.730 113.150 197.730 113.250 V 116.150 C 197.730 116.205 197.775 116.250 197.830 116.250 H 203.830 C 203.885 116.250 203.930 116.205 203.930 116.150 V 113.250 C 203.930 113.150 203.830 113.250 203.930 113.250 H 209.730 C 209.830 113.250 209.730 113.150 209.730 113.250 V 116.150 C 209.730 116.205 209.775 116.250 209.830 116.250 H 220.830 H 223.830 C 223.885 116.250 223.930 116.205 223.930 116.150 V 113.150 M 223.930 113.150 V 102.150 C 223.930 102.089 223.881 102.040 223.820 102.040 H 220.930 C 220.820 102.040 220.930 102.150 220.930 102.040 V 96.260 C 220.930 96.150 220.820 96.260 220.930 96.260 H 223.820 C 223.881 96.260 223.930 96.211 223.930 96.150 V 90.150 C 223.930 90.089 223.881 90.040 223.820 90.040 H 220.930 C 220.820 90.040 220.930 90.150 220.930 90.040 V 84.260 C 220.930 84.150 220.820 84.260 220.930 84.260 H 223.820 C 223.881 84.260 223.930 84.211 223.930 84.150 V 78.150 C 223.930 78.089 223.881 78.040 223.820 78.040 H 220.930 C 220.820 78.040 220.930 78.150 220.930 78.040 V 72.260 C 220.930 72.150 220.820 72.260 220.930 72.260 H 223.820 C 223.881 72.260 223.930 72.211 223.930 72.150 V 66.150 C 223.930 66.089 223.881 66.040 223.820 66.040 H 220.930 C 220.820 66.040 220.930 66.150 220.930 66.040 V 60.260 C 220.930 60.150 220.820 60.260 220.930 60.260 H 223.820 C 223.881 60.260 223.930 60.211 223.930 60.150 V 54.150 C 223.930 54.089 223.881 54.040 223.820 54.040 H 220.930 C 220.820 54.040 220.930 54.150 220.930 54.040 V 48.260 C 220.930 48.150 220.820 48.260 220.930 48.260 H 223.820 C 223.881 48.260 223.930 48.211 223.930 48.150 V 42.150 C 223.930 42.089 223.881 42.040 223.820 42.040 H 220.930 C 220.820 42.040 220.930 42.150 220.930 42.040 V 36.260 C 220.930 36.150 220.820 36.260 220.930 36.260 H 223.820 C 223.881 36.260 223.930 36.211 223.930 36.150 V 30.150 C 223.930 30.089 223.881 30.040 223.820 30.040 H 220.930 C 220.820 30.040 220.930 30.150 220.930 30.040 V 24.260 C 220.930 24.150 220.820 24.260 220.930 24.260 H 223.820 C 223.881 24.260 223.930 24.211 223.930 24.150 V 13.150 V 10.150 C 223.930 10.089 223.881 10.040 223.820 10.040 H 220.820 M 220.820 10.040 H 209.820 C 209.754 10.040 209.700 10.094 209.700 10.160 V 13.040 C 209.700 13.160 209.820 13.040 209.700 13.040 H 203.940 C 203.820 13.040 203.940 13.160 203.940 13.040 V 10.160 C 203.940 10.094 203.886 10.040 203.820 10.040 H 197.820 C 197.754 10.040 197.700 10.094 197.700 10.160 V 13.040 C 197.700 13.160 197.820 13.040 197.700 13.040 H 191.940 C 191.820 13.040 191.940 13.160 191.940 13.040 V 10.160 C 191.940 10.094 191.886 10.040 191.820 10.040 H 185.820 C 185.754 10.040 185.700 10.094 185.700 10.160 V 13.040 C 185.700 13.160 185.820 13.040 185.700 13.040 H 179.940 C 179.820 13.040 179.940 13.160 179.940 13.040 V 10.160 C 179.940 10.094 179.886 10.040 179.820 10.040 H 173.820 C 173.754 10.040 173.700 10.094 173.700 10.160 V 13.040 C 173.700 13.160 173.820 13.040 173.700 13.040 H 167.940 C 167.820 13.040 167.940 13.160 167.940 13.040 V 10.160 C 167.940 10.094 167.886 10.040 167.820 10.040 H 161.820 C 161.754 10.040 161.700 10.094 161.700 10.160 V 13.040 C 161.700 13.160 161.820 13.040 161.700 13.040 H 155.940 C 155.820 13.040 155.940 13.160 155.940 13.040 V 10.160 C 155.940 10.094 155.886 10.040 155.820 10.040 H 149.820 C 149.754 10.040 149.700 10.094 149.700 10.160 V 13.040 C 149.700 13.160 149.820 13.040 149.700 13.040 H 143.940 C 143.820 13.040 143.940 13.160 143.940 13.040 V 10.160 C 143.940 10.094 143.886 10.040 143.820 10.040 H 137.820 C 137.754 10.040 137.700 10.094 137.700 10.160 V 13.040 C 137.700 13.160 137.820 13.040 137.700 13.040 H 131.940 C 131.820 13.040 131.940 13.160 131.940 13.040 V 10.160 C 131.940 10.094 131.886 10.040 131.820 10.040 H 120.820 H 117.820 C 117.754 10.040 117.700 10.094 117.700 10.160 V 13.160 M 117.700 13.160 V 24.160 C 117.700 24.232 117.758 24.290 117.830 24.290 H 120.700 C 120.830 24.290 120.700 24.160 120.700 24.290 V 30.030 C 120.700 30.160 120.830 30.030 120.700 30.030 H 117.830 C 117.758 30.030 117.700 30.088 117.700 30.160 V 36.160 C 117.700 36.232 117.758 36.290 117.830 36.290 H 120.700 C 120.830 36.290 120.700 36.160 120.700 36.290 V 42.030 C 120.700 42.160 120.830 42.030 120.700 42.030 H 117.830 C 117.758 42.030 117.700 42.088 117.700 42.160 V 48.160 C 117.700 48.232 117.758 48.290 117.830 48.290 H 120.700 C 120.830 48.290 120.700 48.160 120.700 48.290 V 54.030 C 120.700 54.160 120.830 54.030 120.700 54.030 H 117.830 C 117.758 54.030 117.700 54.088 117.700 54.160 V 60.160 C 117.700 60.232 117.758 60.290 117.830 60.290 H 120.700 C 120.830 60.290 120.700 60.160 120.700 60.290 V 66.030 C 120.700 66.160 120.830 66.030 120.700 66.030 H 117.830 C 117.758 66.030 117.700 66.088 117.700 66.160 V 72.160 C 117.700 72.232 117.758 72.290 117.830 72.290 H 120.700 C 120.830 72.290 120.700 72.160 120.700 72.290 V 78.030 C 120.700 78.160 120.830 78.030 120.700 78.030 H 117.830 C 117.758 78.030 117.700 78.088 117.700 78.160 V 84.160 C 117.700 84.232 117.758 84.290 117.830 84.290 H 120.700 C 120.830 84.290 120.700 84.160 120.700 84.290 V 90.030 C 120.700 90.160 120.830 90.030 120.700 90.030 H 117.830 C 117.758 90.030 117.700 90.088 117.700 90.160 V 96.160 C 117.700 96.232 117.758 96.290 117.830 96.290 H 120.700 C 120.830 96.290 120.700 96.160 120.700 96.290 V 102.030 C 120.700 102.160 120.830 102.030 120.700 102.030 H 117.830 C 117.758 102.030 117.700 102.088 117.700 102.160 V 113.160 V 116.160 C 117.700 116.232 117.758 116.290 117.830 116.290 H 120.830 M 228.530 113.290 H 239.390 C 239.530 113.290 239.390 113.150 239.390 113.290 V 116.150 C 239.390 116.227 239.453 116.290 239.530 116.290 H 245.530 C 245.607 116.290 245.670 116.227 245.670 116.150 V 113.290 C 245.670 113.150 245.530 113.290 245.670 113.290 H 251.390 C 251.530 113.290 251.390 113.150 251.390 113.290 V 116.150 C 251.390 116.227 251.453 116.290 251.530 116.290 H 257.530 C 257.607 116.290 257.670 116.227 257.670 116.150 V 113.290 C 257.670 113.150 257.530 113.290 257.670 113.290 H 263.390 C 263.530 113.290 263.390 113.150 263.390 113.290 V 116.150 C 263.390 116.227 263.453 116.290 263.530 116.290 H 269.530 C 269.607 116.290 269.670 116.227 269.670 116.150 V 113.290 C 269.670 113.150 269.530 113.290 269.670 113.290 H 275.390 C 275.530 113.290 275.390 113.150 275.390 113.290 V 116.150 C 275.390 116.227 275.453 116.290 275.530 116.290 H 281.530 C 281.607 116.290 281.670 116.227 281.670 116.150 V 113.290 C 281.670 113.150 281.530 113.290 281.670 113.290 H 287.390 C 287.530 113.290 287.390 113.150 287.390 113.290 V 116.150 C 287.390 116.227 287.453 116.290 287.530 116.290 H 293.530 C 293.607 116.290 293.670 116.227 293.670 116.150 V 113.290 C 293.670 113.150 293.530 113.290 293.670 113.290 H 299.390 C 299.530 113.290 299.390 113.150 299.390 113.290 V 116.150 C 299.390 116.227 299.453 116.290 299.530 116.290 H 305.530 C 305.607 116.290 305.670 116.227 305.670 116.150 V 113.290 C 305.670 113.150 305.530 113.290 305.670 113.290 H 311.390 C 311.530 113.290 311.390 113.150 311.390 113.290 V 116.150 C 311.390 116.227 311.453 116.290 311.530 116.290 H 317.530 C 317.607 116.290 317.670 116.227 317.670 116.150 V 113.290 C 317.670 113.150 317.530 113.290 317.670 113.290 H 328.530 C 328.607 113.290 328.670 113.227 328.670 113.150 M 328.670 113.150 V 102.150 C 328.670 102.233 328.603 102.300 328.520 102.300 H 331.520 C 331.603 102.300 331.670 102.233 331.670 102.150 V 96.150 C 331.670 96.067 331.603 96.000 331.520 96.000 H 328.520 C 328.603 96.000 328.670 96.067 328.670 96.150 V 90.150 C 328.670 90.233 328.603 90.300 328.520 90.300 H 331.520 C 331.603 90.300 331.670 90.233 331.670 90.150 V 84.150 C 331.670 84.067 331.603 84.000 331.520 84.000 H 328.520 C 328.603 84.000 328.670 84.067 328.670 84.150 V 78.150 C 328.670 78.233 328.603 78.300 328.520 78.300 H 331.520 C 331.603 78.300 331.670 78.233 331.670 78.150 V 72.150 C 331.670 72.067 331.603 72.000 331.520 72.000 H 328.520 C 328.603 72.000 328.670 72.067 328.670 72.150 V 66.150 C 328.670 66.233 328.603 66.300 328.520 66.300 H 331.520 C 331.603 66.300 331.670 66.233 331.670 66.150 V 60.150 C 331.670 60.067 331.603 60.000 331.520 60.000 H 328.520 C 328.603 60.000 328.670 60.067 328.670 60.150 V 54.150 C 328.670 54.233 328.603 54.300 328.520 54.300 H 331.520 C 331.603 54.300 331.670 54.233 331.670 54.150 V 48.150 C 331.670 48.067 331.603 48.000 331.520 48.000 H 328.520 C 328.603 48.000 328.670 48.067 328.670 48.150 V 42.150 C 328.670 42.233 328.603 42.300 328.520 42.300 H 331.520 C 331.603 42.300 331.670 42.233 331.670 42.150 V 36.150 C 331.670 36.067 331.603 36.000 331.520 36.000 H 328.520 C 328.603 36.000 328.670 36.067 328.670 36.150 V 30.150 C 328.670 30.233 328.603 30.300 328.520 30.300 H 331.520 C 331.603 30.300 331.670 30.233 331.670 30.150 V 24.150 C 331.670 24.067 331.603 24.000 331.520 24.000 H 328.520 C 328.603 24.000 328.670 24.067 328.670 24.150 V 13.150 C 328.670 13.067 328.603 13.000 328.520 13.000 M 328.520 13.000 H 317.520 C 317.608 13.000 317.680 13.072 317.680 13.160 V 10.160 C 317.680 10.072 317.608 10.000 317.520 10.000 H 311.520 C 311.432 10.000 311.360 10.072 311.360 10.160 V 13.160 C 311.360 13.072 311.432 13.000 311.520 13.000 H 305.520 C 305.608 13.000 305.680 13.072 305.680 13.160 V 10.160 C 305.680 10.072 305.608 10.000 305.520 10.000 H 299.520 C 299.432 10.000 299.360 10.072 299.360 10.160 V 13.160 C 299.360 13.072 299.432 13.000 299.520 13.000 H 293.520 C 293.608 13.000 293.680 13.072 293.680 13.160 V 10.160 C 293.680 10.072 293.608 10.000 293.520 10.000 H 287.520 C 287.432 10.000 287.360 10.072 287.360 10.160 V 13.160 C 287.360 13.072 287.432 13.000 287.520 13.000 H 281.520 C 281.608 13.000 281.680 13.072 281.680 13.160 V 10.160 C 281.680 10.072 281.608 10.000 281.520 10.000 H 275.520 C 275.432 10.000 275.360 10.072 275.360 10.160 V 13.160 C 275.360 13.072 275.432 13.000 275.520 13.000 H 269.520 C 269.608 13.000 269.680 13.072 269.680 13.160 V 10.160 C 269.680 10.072 269.608 10.000 269.520 10.000 H 263.520 C 263.432 10.000 263.360 10.072 263.360 10.160 V 13.160 C 263.360 13.072 263.432 13.000 263.520 13.000 H 257.520 C 257.608 13.000 257.680 13.072 257.680 13.160 V 10.160 C 257.680 10.072 257.608 10.000 257.520 10.000 H 251.520 C 251.432 10.000 251.360 10.072 251.360 10.160 V 13.160 C 251.360 13.072 251.432 13.000 251.520 13.000 H 245.520 C 245.608 13.000 245.680 13.072 245.680 13.160 V 10.160 C 245.680 10.072 245.608 10.000 245.520 10.000 H 239.520 C 239.432 10.000 239.360 10.072 239.360 10.160 V 13.160 C 239.360 13.072 239.432 13.000 239.520 13.000 H 228.520 C 228.432 13.000 228.360 13.072 228.360 13.160 M 228.360 13.160 V 24.160 C 228.360 24.066 228.436 23.990 228.530 23.990 H 225.530 C 225.436 23.990 225.360 24.066 225.360 24.160 V 30.160 C 225.360 30.254 225.436 30.330 225.530 30.330 H 228.530 C 228.436 30.330 228.360 30.254 228.360 30.160 V 36.160 C 228.360 36.066 228.436 35.990 228.530 35.990 H 225.530 C 225.436 35.990 225.360 36.066 225.360 36.160 V 42.160 C 225.360 42.254 225.436 42.330 225.530 42.330 H 228.530 C 228.436 42.330 228.360 42.254 228.360 42.160 V 48.160 C 228.360 48.066 228.436 47.990 228.530 47.990 H 225.530 C 225.436 47.990 225.360 48.066 225.360 48.160 V 54.160 C 225.360 54.254 225.436 54.330 225.530 54.330 H 228.530 C 228.436 54.330 228.360 54.254 228.360 54.160 V 60.160 C 228.360 60.066 228.436 59.990 228.530 59.990 H 225.530 C 225.436 59.990 225.360 60.066 225.360 60.160 V 66.160 C 225.360 66.254 225.436 66.330 225.530 66.330 H 228.530 C 228.436 66.330 228.360 66.254 228.360 66.160 V 72.160 C 228.360 72.066 228.436 71.990 228.530 71.990 H 225.530 C 225.436 71.990 225.360 72.066 225.360 72.160 V 78.160 C 225.360 78.254 225.436 78.330 225.530 78.330 H 228.530 C 228.436 78.330 228.360 78.254 228.360 78.160 V 84.160 C 228.360 84.066 228.436 83.990 228.530 83.990 H 225.530 C 225.436 83.990 225.360 84.066 225.360 84.160 V 90.160 C 225.360 90.254 225.436 90.330 225.530 90.330 H 228.530 C 228.436 90.330 228.360 90.254 228.360 90.160 V 96.160 C 228.360 96.066 228.436 95.990 228.530 95.990 H 225.530 C 225.436 95.990 225.360 96.066 225.360 96.160 V 102.160 C 225.360 102.254 225.436 102.330 225.530 102.330 H 228.530 C 228.436 102.330 228.360 102.254 228.360 102.160 V 113.160 C 228.360 113.254 228.436 113.330 228.530 113.330 M 336.230 116.330 H 347.230 C 347.307 116.330 347.370 116.267 347.370 116.190 V 113.330 C 347.370 113.190 347.230 113.330 347.370 113.330 H 353.090 C 353.230 113.330 353.090 113.190 353.090 113.330 V 116.190 C 353.090 116.267 353.153 116.330 353.230 116.330 H 359.230 C 359.307 116.330 359.370 116.267 359.370 116.190 V 113.330 C 359.370 113.190 359.230 113.330 359.370 113.330 H 365.090 C 365.230 113.330 365.090 113.190 365.090 113.330 V 116.190 C 365.090 116.267 365.153 116.330 365.230 116.330 H 371.230 C 371.307 116.330 371.370 116.267 371.370 116.190 V 113.330 C 371.370 113.190 371.230 113.330 371.370 113.330 H 377.090 C 377.230 113.330 377.090 113.190 377.090 113.330 V 116.190 C 377.090 116.267 377.153 116.330 377.230 116.330 H 383.230 C 383.307 116.330 383.370 116.267 383.370 116.190 V 113.330 C 383.370 113.190 383.230 113.330 383.370 113.330 H 389.090 C 389.230 113.330 389.090 113.190 389.090 113.330 V 116.190 C 389.090 116.267 389.153 116.330 389.230 116.330 H 395.230 C 395.307 116.330 395.370 116.267 395.370 116.190 V 113.330 C 395.370 113.190 395.230 113.330 395.370 113.330 H 401.090 C 401.230 113.330 401.090 113.190 401.090 113.330 V 116.190 C 401.090 116.267 401.153 116.330 401.230 116.330 H 407.230 C 407.307 116.330 407.370 116.267 407.370 116.190 V 113.330 C 407.370 113.190 407.230 113.330 407.370 113.330 H 413.090 C 413.230 113.330 413.090 113.190 413.090 113.330 V 116.190 C 413.090 116.267 413.153 116.330 413.230 116.330 H 419.230 C 419.307 116.330 419.370 116.267 419.370 116.190 V 113.330 C 419.370 113.190 419.230 113.330 419.370 113.330 H 425.090 C 425.230 113.330 425.090 113.190 425.090 113.330 V 116.190 C 425.090 116.267 425.153 116.330 425.230 116.330 H 436.230 H 439.230 C 439.307 116.330 439.370 116.267 439.370 116.190 V 113.190 M 439.370 113.190 V 102.190 C 439.370 102.107 439.303 102.040 439.220 102.040 H 436.220 C 436.303 102.040 436.370 102.107 436.370 102.190 V 96.190 C 436.370 96.273 436.303 96.340 436.220 96.340 H 439.220 C 439.303 96.340 439.370 96.273 439.370 96.190 V 90.190 C 439.370 90.107 439.303 90.040 439.220 90.040 H 436.220 C 436.303 90.040 436.370 90.107 436.370 90.190 V 84.190 C 436.370 84.273 436.303 84.340 436.220 84.340 H 439.220 C 439.303 84.340 439.370 84.273 439.370 84.190 V 78.190 C 439.370 78.107 439.303 78.040 439.220 78.040 H 436.220 C 436.303 78.040 436.370 78.107 436.370 78.190 V 72.190 C 436.370 72.273 436.303 72.340 436.220 72.340 H 439.220 C 439.303 72.340 439.370 72.273 439.370 72.190 V 66.190 C 439.370 66.107 439.303 66.040 439.220 66.040 H 436.220 C 436.303 66.040 436.370 66.107 436.370 66.190 V 60.190 C 436.370 60.273 436.303 60.340 436.220 60.340 H 439.220 C 439.303 60.340 439.370 60.273 439.370 60.190 V 54.190 C 439.370 54.107 439.303 54.040 439.220 54.040 H 436.220 C 436.303 54.040 436.370 54.107 436.370 54.190 V 48.190 C 436.370 48.273 436.303 48.340 436.220 48.340 H 439.220 C 439.303 48.340 439.370 48.273 439.370 48.190 V 42.190 C 439.370 42.107 439.303 42.040 439.220 42.040 H 436.220 C 436.303 42.040 436.370 42.107 436.370 42.190 V 36.190 C 436.370 36.273 436.303 36.340 436.220 36.340 H 439.220 C 439.303 36.340 439.370 36.273 439.370 36.190 V 30.190 C 439.370 30.107 439.303 30.040 439.220 30.040 H 436.220 C 436.303 30.040 436.370 30.107 436.370 30.190 V 24.190 C 436.370 24.273 436.303 24.340 436.220 24.340 H 439.220 C 439.303 24.340 439.370 24.273 439.370 24.190 V 13.190 V 10.190 C 439.370 10.107 439.303 10.040 439.220 10.040 H 436.220 M 436.220 10.040 H 425.220 C 425.132 10.040 425.060 10.112 425.060 10.200 V 13.200 C 425.060 13.112 425.132 13.040 425.220 13.040 H 419.220 C 419.308 13.040 419.380 13.112 419.380 13.200 V 10.200 C 419.380 10.112 419.308 10.040 419.220 10.040 H 413.220 C 413.132 10.040 413.060 10.112 413.060 10.200 V 13.200 C 413.060 13.112 413.132 13.040 413.220 13.040 H 407.220 C 407.308 13.040 407.380 13.112 407.380 13.200 V 10.200 C 407.380 10.112 407.308 10.040 407.220 10.040 H 401.220 C 401.132 10.040 401.060 10.112 401.060 10.200 V 13.200 C 401.060 13.112 401.132 13.040 401.220 13.040 H 395.220 C 395.308 13.040 395.380 13.112 395.380 13.200 V 10.200 C 395.380 10.112 395.308 10.040 395.220 10.040 H 389.220 C 389.132 10.040 389.060 10.112 389.060 10.200 V 13.200 C 389.060 13.112 389.132 13.040 389.220 13.040 H 383.220 C 383.308 13.040 383.380 13.112 383.380 13.200 V 10.200 C 383.380 10.112 383.308 10.040 383.220 10.040 H 377.220 C 377.132 10.040 377.060 10.112 377.060 10.200 V 13.200 C 377.060 13.112 377.132 13.040 377.220 13.040 H 371.220 C 371.308 13.040 371.380 13.112 371.380 13.200 V 10.200 C 371.380 10.112 371.308 10.040 371.220 10.040 H 365.220 C 365.132 10.040 365.060 10.112 365.060 10.200 V 13.200 C 365.060 13.112 365.132 13.040 365.220 13.040 H 359.220 C 359.308 13.040 359.380 13.112 359.380 13.200 V 10.200 C 359.380 10.112 359.308 10.040 359.220 10.040 H 353.220 C 353.132 10.040 353.060 10.112 353.060 10.200 V 13.200 C 353.060 13.112 353.132 13.040 353.220 13.040 H 347.220 C 347.308 13.040 347.380 13.112 347.380 13.200 V 10.200 C 347.380 10.112 347.308 10.040 347.220 10.040 H 336.220 H 333.220 C 333.132 10.040 333.060 10.112 333.060 10.200 V 13.200 M 333.060 13.200 V 24.200 C 333.060 24.294 333.136 24.370 333.230 24.370 H 336.230 C 336.136 24.370 336.060 24.294 336.060 24.200 V 30.200 C 336.060 30.106 336.136 30.030 336.230 30.030 H 333.230 C 333.136 30.030 333.060 30.106 333.060 30.200 V 36.200 C 333.060 36.294 333.136 36.370 333.230 36.370 H 336.230 C 336.136 36.370 336.060 36.294 336.060 36.200 V 42.200 C 336.060 42.106 336.136 42.030 336.230 42.030 H 333.230 C 333.136 42.030 333.060 42.106 333.060 42.200 V 48.200 C 333.060 48.294 333.136 48.370 333.230 48.370 H 336.230 C 336.136 48.370 336.060 48.294 336.060 48.200 V 54.200 C 336.060 54.106 336.136 54.030 336.230 54.030 H 333.230 C 333.136 54.030 333.060 54.106 333.060 54.200 V 60.200 C 333.060 60.294 333.136 60.370 333.230 60.370 H 336.230 C 336.136 60.370 336.060 60.294 336.060 60.200 V 66.200 C 336.060 66.106 336.136 66.030 336.230 66.030 H 333.230 C 333.136 66.030 333.060 66.106 333.060 66.200 V 72.200 C 333.060 72.294 333.136 72.370 333.230 72.370 H 336.230 C 336.136 72.370 336.060 72.294 336.060 72.200 V 78.200 C 336.060 78.106 336.136 78.030 336.230 78.030 H 333.230 C 333.136 78.030 333.060 78.106 333.060 78.200 V 84.200 C 333.060 84.294 333.136 84.370 333.230 84.370 H 336.230 C 336.136 84.370 336.060 84.294 336.060 84.200 V 90.200 C 336.060 90.106 336.136 90.030 336.230 90.030 H 333.230 C 333.136 90.030 333.060 90.106 333.060 90.200 V 96.200 C 333.060 96.294 333.136 96.370 333.230 96.370 H 336.230 C 336.136 96.370 336.060 96.294 336.060 96.200 V 102.200 C 336.060 102.106 336.136 102.030 336.230 102.030 H 333.230 C 333.136 102.030 333.060 102.106 333.060 102.200 V 113.200 V 116.200 C 333.060 116.294 333.136 116.370 333.230 116.370 H 336.230" stroke="rgb(0,0,0)" stroke-width="0.20" />
</g>
</svg>