<?xml version='1.0' encoding='utf-8'?>
<svg height="493.10mm" viewBox="0.0 0.0 583.90 493.10" width="583.90mm" xmlns="http://www.w3.org/2000/svg" xmlns:cc="http://creativecommons.org/ns#" xmlns:dc="http://purl.org/dc/elements/1.1/" xmlns:inkscape="http://www.inkscape.org/namespaces/inkscape" xmlns:rdf="http://www.w3.org/1999/02/22-rdf-syntax-ns#" xmlns:svg="http://www.w3.org/2000/svg" xmlns:xlink="http://www.w3.org/1999/xlink">
<!--
CardBox - Box for storage of playing cards, with versatile options



### Description
Versatile Box for Storage of playing cards. Multiple different styles of storage are supported, e.g. a flat storage or a trading card deck box style storage. See images for ideas.

#### Building instructions
Place inner walls on floor first (if any). Then add the outer walls. Glue the two walls without finger joins to the inside of the side walls. Make sure there is no squeeze out on top, as this is going to form the rail for the lid.

Add the top of the rails to the sides (front open) or to the back and front (right side open) and the grip rail to the lid.
Details of the lid and rails
![Details](static/samples/CardBox-detail.jpg)
Whole box (early version still missing grip rail on the lid):



Created with Boxes.py (https://boxes.hackerspace-bamberg.de/)
Command line (remove spaces between dashes): boxes CardBox
-->
<title>CardBox</title>
<metadata>
<rdf:RDF><cc:Work>
<dc:title>Box - CardBox</dc:title>
<dc:source>boxes CardBox</dc:source>
<dc:description>Box for storage of playing cards, with versatile options


### Description
Versatile Box for Storage of playing cards. Multiple different styles of storage are supported, e.g. a flat storage or a trading card deck box style storage. See images for ideas.

#### Building instructions
Place inner walls on floor first (if any). Then add the outer walls. Glue the two walls without finger joins to the inside of the side walls. Make sure there is no squeeze out on top, as this is going to form the rail for the lid.

Add the top of the rails to the sides (front open) or to the back and front (right side open) and the grip rail to the lid.
Details of the lid and rails
![Details](static/samples/CardBox-detail.jpg)
Whole box (early version still missing grip rail on the lid):


Created with Boxes.py (https://boxes.hackerspace-bamberg.de/)
Command line: boxes CardBox
Command line short: boxes CardBox
</dc:description>
</cc:Work></rdf:RDF></metadata>
<g id="p-0" style="fill:none;stroke-linecap:round;stroke-linejoin:round;">
  <path d="M 10.100 483.100 H 110.100 V 473.100 H 10.100 V 483.100 Z" stroke="rgb(0,0,0)" stroke-width="0.20" />
  <text dominant-baseline="hanging" font-size="6px" style="font-family: sans-serif ; font-weight: normal; font-style: normal; fill: rgb(255,0,0)" text-anchor="middle" transform="matrix( 1.000 0.000 0.000 1.000 60.100 475.100 )">100.0mm, burn:0.10mm</text>
</g>
<g id="p-1" style="fill:none;stroke-linecap:round;stroke-linejoin:round;">
  <text dominant-baseline="hanging" font-size="4px" style="font-family: sans-serif ; font-weight: normal; font-style: normal; fill: rgb(255,0,0)" text-anchor="middle" transform="matrix( 1.000 0.000 0.000 1.000 147.300 433.900 )">Lid</text><path d="M 10.100 471.400 H 284.500 C 284.555 471.400 284.600 471.355 284.600 471.300 V 403.300 V 400.300 C 284.600 400.245 284.555 400.200 284.500 400.200 H 276.300 C 276.245 400.200 276.200 400.245 276.200 400.300 V 403.200 C 276.200 403.300 276.300 403.200 276.200 403.200 H 270.400 C 270.300 403.200 270.400 403.300 270.400 403.200 V 400.300 C 270.400 400.245 270.355 400.200 270.300 400.200 H 264.300 C 264.245 400.200 264.200 400.245 264.200 400.300 V 403.200 C 264.200 403.300 264.300 403.200 264.200 403.200 H 258.400 C 258.300 403.200 258.400 403.300 258.400 403.200 V 400.300 C 258.400 400.245 258.355 400.200 258.300 400.200 H 252.300 C 252.245 400.200 252.200 400.245 252.200 400.300 V 403.200 C 252.200 403.300 252.300 403.200 252.200 403.200 H 246.400 C 246.300 403.200 246.400 403.300 246.400 403.200 V 400.300 C 246.400 400.245 246.355 400.200 246.300 400.200 H 240.300 C 240.245 400.200 240.200 400.245 240.200 400.300 V 403.200 C 240.200 403.300 240.300 403.200 240.200 403.200 H 234.400 C 234.300 403.200 234.400 403.300 234.400 403.200 V 400.300 C 234.400 400.245 234.355 400.200 234.300 400.200 H 228.300 C 228.245 400.200 228.200 400.245 228.200 400.300 V 403.200 C 228.200 403.300 228.300 403.200 228.200 403.200 H 222.400 C 222.300 403.200 222.400 403.300 222.400 403.200 V 400.300 C 222.400 400.245 222.355 400.200 222.300 400.200 H 216.300 C 216.245 400.200 216.200 400.245 216.200 400.300 V 403.200 C 216.200 403.300 216.300 403.200 216.200 403.200 H 210.400 C 210.300 403.200 210.400 403.300 210.400 403.200 V 400.300 C 210.400 400.245 210.355 400.200 210.300 400.200 H 204.300 C 204.245 400.200 204.200 400.245 204.200 400.300 V 403.200 C 204.200 403.300 204.300 403.200 204.200 403.200 H 198.400 C 198.300 403.200 198.400 403.300 198.400 403.200 V 400.300 C 198.400 400.245 198.355 400.200 198.300 400.200 H 192.300 C 192.245 400.200 192.200 400.245 192.200 400.300 V 403.200 C 192.200 403.300 192.300 403.200 192.200 403.200 H 186.400 C 186.300 403.200 186.400 403.300 186.400 403.200 V 400.300 C 186.400 400.245 186.355 400.200 186.300 400.200 H 180.300 C 180.245 400.200 180.200 400.245 180.200 400.300 V 403.200 C 180.200 403.300 180.300 403.200 180.200 403.200 H 174.400 C 174.300 403.200 174.400 403.300 174.400 403.200 V 400.300 C 174.400 400.245 174.355 400.200 174.300 400.200 H 168.300 C 168.245 400.200 168.200 400.245 168.200 400.300 V 403.200 C 168.200 403.300 168.300 403.200 168.200 403.200 H 162.400 C 162.300 403.200 162.400 403.300 162.400 403.200 V 400.300 C 162.400 400.245 162.355 400.200 162.300 400.200 H 156.300 C 156.245 400.200 156.200 400.245 156.200 400.300 V 403.200 C 156.200 403.300 156.300 403.200 156.200 403.200 H 150.400 C 150.300 403.200 150.400 403.300 150.400 403.200 V 400.300 C 150.400 400.245 150.355 400.200 150.300 400.200 H 144.300 C 144.245 400.200 144.200 400.245 144.200 400.300 V 403.200 C 144.200 403.300 144.300 403.200 144.200 403.200 H 138.400 C 138.300 403.200 138.400 403.300 138.400 403.200 V 400.300 C 138.400 400.245 138.355 400.200 138.300 400.200 H 132.300 C 132.245 400.200 132.200 400.245 132.200 400.300 V 403.200 C 132.200 403.300 132.300 403.200 132.200 403.200 H 126.400 C 126.300 403.200 126.400 403.300 126.400 403.200 V 400.300 C 126.400 400.245 126.355 400.200 126.300 400.200 H 120.300 C 120.245 400.200 120.200 400.245 120.200 400.300 V 403.200 C 120.200 403.300 120.300 403.200 120.200 403.200 H 114.400 C 114.300 403.200 114.400 403.300 114.400 403.200 V 400.300 C 114.400 400.245 114.355 400.200 114.300 400.200 H 108.300 C 108.245 400.200 108.200 400.245 108.200 400.300 V 403.200 C 108.200 403.300 108.300 403.200 108.200 403.200 H 102.400 C 102.300 403.200 102.400 403.300 102.400 403.200 V 400.300 C 102.400 400.245 102.355 400.200 102.300 400.200 H 96.300 C 96.245 400.200 96.200 400.245 96.200 400.300 V 403.200 C 96.200 403.300 96.300 403.200 96.200 403.200 H 90.400 C 90.300 403.200 90.400 403.300 90.400 403.200 V 400.300 C 90.400 400.245 90.355 400.200 90.300 400.200 H 84.300 C 84.245 400.200 84.200 400.245 84.200 400.300 V 403.200 C 84.200 403.300 84.300 403.200 84.200 403.200 H 78.400 C 78.300 403.200 78.400 403.300 78.400 403.200 V 400.300 C 78.400 400.245 78.355 400.200 78.300 400.200 H 72.300 C 72.245 400.200 72.200 400.245 72.200 400.300 V 403.200 C 72.200 403.300 72.300 403.200 72.200 403.200 H 66.400 C 66.300 403.200 66.400 403.300 66.400 403.200 V 400.300 C 66.400 400.245 66.355 400.200 66.300 400.200 H 60.300 C 60.245 400.200 60.200 400.245 60.200 400.300 V 403.200 C 60.200 403.300 60.300 403.200 60.200 403.200 H 54.400 C 54.300 403.200 54.400 403.300 54.400 403.200 V 400.300 C 54.400 400.245 54.355 400.200 54.300 400.200 H 48.300 C 48.245 400.200 48.200 400.245 48.200 400.300 V 403.200 C 48.200 403.300 48.300 403.200 48.200 403.200 H 42.400 C 42.300 403.200 42.400 403.300 42.400 403.200 V 400.300 C 42.400 400.245 42.355 400.200 42.300 400.200 H 36.300 C 36.245 400.200 36.200 400.245 36.200 400.300 V 403.200 C 36.200 403.300 36.300 403.200 36.200 403.200 H 30.400 C 30.300 403.200 30.400 403.300 30.400 403.200 V 400.300 C 30.400 400.245 30.355 400.200 30.300 400.200 H 24.300 C 24.245 400.200 24.200 400.245 24.200 400.300 V 403.200 C 24.200 403.300 24.300 403.200 24.200 403.200 H 18.400 C 18.300 403.200 18.400 403.300 18.400 403.200 V 400.300 C 18.400 400.245 18.355 400.200 18.300 400.200 H 10.100 C 10.045 400.200 10.000 400.245 10.000 400.300 V 403.300 V 471.300 C 10.000 471.355 10.045 471.400 10.100 471.400" stroke="rgb(0,0,0)" stroke-width="0.20" />
</g>
<g id="p-2" style="fill:none;stroke-linecap:round;stroke-linejoin:round;">
  <path d="M 360.100 458.300 V 461.200 C 360.100 461.300 360.200 461.200 360.100 461.200 H 357.300 C 357.200 461.200 357.300 461.300 357.300 461.200 V 455.400 C 357.300 455.300 357.200 455.400 357.300 455.400 H 360.100 C 360.200 455.400 360.100 455.300 360.100 455.400 V 458.300 Z" stroke="rgb(0,0,255)" stroke-width="0.20" />
  <path d="M 360.100 446.300 V 449.200 C 360.100 449.300 360.200 449.200 360.100 449.200 H 357.300 C 357.200 449.200 357.300 449.300 357.300 449.200 V 443.400 C 357.300 443.300 357.200 443.400 357.300 443.400 H 360.100 C 360.200 443.400 360.100 443.300 360.100 443.400 V 446.300 Z" stroke="rgb(0,0,255)" stroke-width="0.20" />
  <path d="M 360.100 434.300 V 437.200 C 360.100 437.300 360.200 437.200 360.100 437.200 H 357.300 C 357.200 437.200 357.300 437.300 357.300 437.200 V 431.400 C 357.300 431.300 357.200 431.400 357.300 431.400 H 360.100 C 360.200 431.400 360.100 431.300 360.100 431.400 V 434.300 Z" stroke="rgb(0,0,255)" stroke-width="0.20" />
  <path d="M 360.100 422.300 V 425.200 C 360.100 425.300 360.200 425.200 360.100 425.200 H 357.300 C 357.200 425.200 357.300 425.300 357.300 425.200 V 419.400 C 357.300 419.300 357.200 419.400 357.300 419.400 H 360.100 C 360.200 419.400 360.100 419.300 360.100 419.400 V 422.300 Z" stroke="rgb(0,0,255)" stroke-width="0.20" />
  <path d="M 360.100 410.300 V 413.200 C 360.100 413.300 360.200 413.200 360.100 413.200 H 357.300 C 357.200 413.200 357.300 413.300 357.300 413.200 V 407.400 C 357.300 407.300 357.200 407.400 357.300 407.400 H 360.100 C 360.200 407.400 360.100 407.300 360.100 407.400 V 410.300 Z" stroke="rgb(0,0,255)" stroke-width="0.20" />
  <path d="M 428.100 458.300 V 461.200 C 428.100 461.300 428.200 461.200 428.100 461.200 H 425.300 C 425.200 461.200 425.300 461.300 425.300 461.200 V 455.400 C 425.300 455.300 425.200 455.400 425.300 455.400 H 428.100 C 428.200 455.400 428.100 455.300 428.100 455.400 V 458.300 Z" stroke="rgb(0,0,255)" stroke-width="0.20" />
  <path d="M 428.100 446.300 V 449.200 C 428.100 449.300 428.200 449.200 428.100 449.200 H 425.300 C 425.200 449.200 425.300 449.300 425.300 449.200 V 443.400 C 425.300 443.300 425.200 443.400 425.300 443.400 H 428.100 C 428.200 443.400 428.100 443.300 428.100 443.400 V 446.300 Z" stroke="rgb(0,0,255)" stroke-width="0.20" />
  <path d="M 428.100 434.300 V 437.200 C 428.100 437.300 428.200 437.200 428.100 437.200 H 425.300 C 425.200 437.200 425.300 437.300 425.300 437.200 V 431.400 C 425.300 431.300 425.200 431.400 425.300 431.400 H 428.100 C 428.200 431.400 428.100 431.300 428.100 431.400 V 434.300 Z" stroke="rgb(0,0,255)" stroke-width="0.20" />
  <path d="M 428.100 422.300 V 425.200 C 428.100 425.300 428.200 425.200 428.100 425.200 H 425.300 C 425.200 425.200 425.300 425.300 425.300 425.200 V 419.400 C 425.300 419.300 425.200 419.400 425.300 419.400 H 428.100 C 428.200 419.400 428.100 419.300 428.100 419.400 V 422.300 Z" stroke="rgb(0,0,255)" stroke-width="0.20" />
  <path d="M 428.100 410.300 V 413.200 C 428.100 413.300 428.200 413.200 428.100 413.200 H 425.300 C 425.200 413.200 425.300 413.300 425.300 413.200 V 407.400 C 425.300 407.300 425.200 407.400 425.300 407.400 H 428.100 C 428.200 407.400 428.100 407.300 428.100 407.400 V 410.300 Z" stroke="rgb(0,0,255)" stroke-width="0.20" />
  <path d="M 496.100 458.300 V 461.200 C 496.100 461.300 496.200 461.200 496.100 461.200 H 493.300 C 493.200 461.200 493.300 461.300 493.300 461.200 V 455.400 C 493.300 455.300 493.200 455.400 493.300 455.400 H 496.100 C 496.200 455.400 496.100 455.300 496.100 455.400 V 458.300 Z" stroke="rgb(0,0,255)" stroke-width="0.20" />
  <path d="M 496.100 446.300 V 449.200 C 496.100 449.300 496.200 449.200 496.100 449.200 H 493.300 C 493.200 449.200 493.300 449.300 493.300 449.200 V 443.400 C 493.300 443.300 493.200 443.400 493.300 443.400 H 496.100 C 496.200 443.400 496.100 443.300 496.100 443.400 V 446.300 Z" stroke="rgb(0,0,255)" stroke-width="0.20" />
  <path d="M 496.100 434.300 V 437.200 C 496.100 437.300 496.200 437.200 496.100 437.200 H 493.300 C 493.200 437.200 493.300 437.300 493.300 437.200 V 431.400 C 493.300 431.300 493.200 431.400 493.300 431.400 H 496.100 C 496.200 431.400 496.100 431.300 496.100 431.400 V 434.300 Z" stroke="rgb(0,0,255)" stroke-width="0.20" />
  <path d="M 496.100 422.300 V 425.200 C 496.100 425.300 496.200 425.200 496.100 425.200 H 493.300 C 493.200 425.200 493.300 425.300 493.300 425.200 V 419.400 C 493.300 419.300 493.200 419.400 493.300 419.400 H 496.100 C 496.200 419.400 496.100 419.300 496.100 419.400 V 422.300 Z" stroke="rgb(0,0,255)" stroke-width="0.20" />
  <path d="M 496.100 410.300 V 413.200 C 496.100 413.300 496.200 413.200 496.100 413.200 H 493.300 C 493.200 413.200 493.300 413.300 493.300 413.200 V 407.400 C 493.300 407.300 493.200 407.400 493.300 407.400 H 496.100 C 496.200 407.400 496.100 407.300 496.100 407.400 V 410.300 Z" stroke="rgb(0,0,255)" stroke-width="0.20" />
  <text dominant-baseline="hanging" font-size="4px" style="font-family: sans-serif ; font-weight: normal; font-style: normal; fill: rgb(255,0,0)" text-anchor="middle" transform="matrix( 1.000 0.000 0.000 1.000 426.700 432.400 )">Bottom</text><path d="M 289.200 468.400 H 297.600 C 297.700 468.400 297.600 468.300 297.600 468.400 V 471.300 C 297.600 471.355 297.645 471.400 297.700 471.400 H 303.700 C 303.755 471.400 303.800 471.355 303.800 471.300 V 468.400 C 303.800 468.300 303.700 468.400 303.800 468.400 H 309.600 C 309.700 468.400 309.600 468.300 309.600 468.400 V 471.300 C 309.600 471.355 309.645 471.400 309.700 471.400 H 315.700 C 315.755 471.400 315.800 471.355 315.800 471.300 V 468.400 C 315.800 468.300 315.700 468.400 315.800 468.400 H 321.600 C 321.700 468.400 321.600 468.300 321.600 468.400 V 471.300 C 321.600 471.355 321.645 471.400 321.700 471.400 H 327.700 C 327.755 471.400 327.800 471.355 327.800 471.300 V 468.400 C 327.800 468.300 327.700 468.400 327.800 468.400 H 333.600 C 333.700 468.400 333.600 468.300 333.600 468.400 V 471.300 C 333.600 471.355 333.645 471.400 333.700 471.400 H 339.700 C 339.755 471.400 339.800 471.355 339.800 471.300 V 468.400 C 339.800 468.300 339.700 468.400 339.800 468.400 H 345.600 C 345.700 468.400 345.600 468.300 345.600 468.400 V 471.300 C 345.600 471.355 345.645 471.400 345.700 471.400 H 351.700 C 351.755 471.400 351.800 471.355 351.800 471.300 V 468.400 C 351.800 468.300 351.700 468.400 351.800 468.400 H 357.600 C 357.700 468.400 357.600 468.300 357.600 468.400 V 471.300 C 357.600 471.355 357.645 471.400 357.700 471.400 H 363.700 C 363.755 471.400 363.800 471.355 363.800 471.300 V 468.400 C 363.800 468.300 363.700 468.400 363.800 468.400 H 369.600 C 369.700 468.400 369.600 468.300 369.600 468.400 V 471.300 C 369.600 471.355 369.645 471.400 369.700 471.400 H 375.700 C 375.755 471.400 375.800 471.355 375.800 471.300 V 468.400 C 375.800 468.300 375.700 468.400 375.800 468.400 H 381.600 C 381.700 468.400 381.600 468.300 381.600 468.400 V 471.300 C 381.600 471.355 381.645 471.400 381.700 471.400 H 387.700 C 387.755 471.400 387.800 471.355 387.800 471.300 V 468.400 C 387.800 468.300 387.700 468.400 387.800 468.400 H 393.600 C 393.700 468.400 393.600 468.300 393.600 468.400 V 471.300 C 393.600 471.355 393.645 471.400 393.700 471.400 H 399.700 C 399.755 471.400 399.800 471.355 399.800 471.300 V 468.400 C 399.800 468.300 399.700 468.400 399.800 468.400 H 405.600 C 405.700 468.400 405.600 468.300 405.600 468.400 V 471.300 C 405.600 471.355 405.645 471.400 405.700 471.400 H 411.700 C 411.755 471.400 411.800 471.355 411.800 471.300 V 468.400 C 411.800 468.300 411.700 468.400 411.800 468.400 H 417.600 C 417.700 468.400 417.600 468.300 417.600 468.400 V 471.300 C 417.600 471.355 417.645 471.400 417.700 471.400 H 423.700 C 423.755 471.400 423.800 471.355 423.800 471.300 V 468.400 C 423.800 468.300 423.700 468.400 423.800 468.400 H 429.600 C 429.700 468.400 429.600 468.300 429.600 468.400 V 471.300 C 429.600 471.355 429.645 471.400 429.700 471.400 H 435.700 C 435.755 471.400 435.800 471.355 435.800 471.300 V 468.400 C 435.800 468.300 435.700 468.400 435.800 468.400 H 441.600 C 441.700 468.400 441.600 468.300 441.600 468.400 V 471.300 C 441.600 471.355 441.645 471.400 441.700 471.400 H 447.700 C 447.755 471.400 447.800 471.355 447.800 471.300 V 468.400 C 447.800 468.300 447.700 468.400 447.800 468.400 H 453.600 C 453.700 468.400 453.600 468.300 453.600 468.400 V 471.300 C 453.600 471.355 453.645 471.400 453.700 471.400 H 459.700 C 459.755 471.400 459.800 471.355 459.800 471.300 V 468.400 C 459.800 468.300 459.700 468.400 459.800 468.400 H 465.600 C 465.700 468.400 465.600 468.300 465.600 468.400 V 471.300 C 465.600 471.355 465.645 471.400 465.700 471.400 H 471.700 C 471.755 471.400 471.800 471.355 471.800 471.300 V 468.400 C 471.800 468.300 471.700 468.400 471.800 468.400 H 477.600 C 477.700 468.400 477.600 468.300 477.600 468.400 V 471.300 C 477.600 471.355 477.645 471.400 477.700 471.400 H 483.700 C 483.755 471.400 483.800 471.355 483.800 471.300 V 468.400 C 483.800 468.300 483.700 468.400 483.800 468.400 H 489.600 C 489.700 468.400 489.600 468.300 489.600 468.400 V 471.300 C 489.600 471.355 489.645 471.400 489.700 471.400 H 495.700 C 495.755 471.400 495.800 471.355 495.800 471.300 V 468.400 C 495.800 468.300 495.700 468.400 495.800 468.400 H 501.600 C 501.700 468.400 501.600 468.300 501.600 468.400 V 471.300 C 501.600 471.355 501.645 471.400 501.700 471.400 H 507.700 C 507.755 471.400 507.800 471.355 507.800 471.300 V 468.400 C 507.800 468.300 507.700 468.400 507.800 468.400 H 513.600 C 513.700 468.400 513.600 468.300 513.600 468.400 V 471.300 C 513.600 471.355 513.645 471.400 513.700 471.400 H 519.700 C 519.755 471.400 519.800 471.355 519.800 471.300 V 468.400 C 519.800 468.300 519.700 468.400 519.800 468.400 H 525.600 C 525.700 468.400 525.600 468.300 525.600 468.400 V 471.300 C 525.600 471.355 525.645 471.400 525.700 471.400 H 531.700 C 531.755 471.400 531.800 471.355 531.800 471.300 V 468.400 C 531.800 468.300 531.700 468.400 531.800 468.400 H 537.600 C 537.700 468.400 537.600 468.300 537.600 468.400 V 471.300 C 537.600 471.355 537.645 471.400 537.700 471.400 H 543.700 C 543.755 471.400 543.800 471.355 543.800 471.300 V 468.400 C 543.800 468.300 543.700 468.400 543.800 468.400 H 549.600 C 549.700 468.400 549.600 468.300 549.600 468.400 V 471.300 C 549.600 471.355 549.645 471.400 549.700 471.400 H 555.700 C 555.755 471.400 555.800 471.355 555.800 471.300 V 468.400 C 555.800 468.300 555.700 468.400 555.800 468.400 H 564.200 C 564.255 468.400 564.300 468.355 564.300 468.300 V 461.400 C 564.300 461.300 564.200 461.400 564.300 461.400 H 567.200 C 567.255 461.400 567.300 461.355 567.300 461.300 V 455.300 C 567.300 455.245 567.255 455.200 567.200 455.200 H 564.300 C 564.200 455.200 564.300 455.300 564.300 455.200 V 449.400 C 564.300 449.300 564.200 449.400 564.300 449.400 H 567.200 C 567.255 449.400 567.300 449.355 567.300 449.300 V 443.300 C 567.300 443.245 567.255 443.200 567.200 443.200 H 564.300 C 564.200 443.200 564.300 443.300 564.300 443.200 V 437.400 C 564.300 437.300 564.200 437.400 564.300 437.400 H 567.200 C 567.255 437.400 567.300 437.355 567.300 437.300 V 431.300 C 567.300 431.245 567.255 431.200 567.200 431.200 H 564.300 C 564.200 431.200 564.300 431.300 564.300 431.200 V 425.400 C 564.300 425.300 564.200 425.400 564.300 425.400 H 567.200 C 567.255 425.400 567.300 425.355 567.300 425.300 V 419.300 C 567.300 419.245 567.255 419.200 567.200 419.200 H 564.300 C 564.200 419.200 564.300 419.300 564.300 419.200 V 413.400 C 564.300 413.300 564.200 413.400 564.300 413.400 H 567.200 C 567.255 413.400 567.300 413.355 567.300 413.300 V 407.300 C 567.300 407.245 567.255 407.200 567.200 407.200 H 564.300 C 564.200 407.200 564.300 407.300 564.300 407.200 V 400.300 C 564.300 400.245 564.255 400.200 564.200 400.200 H 555.800 C 555.700 400.200 555.800 400.300 555.800 400.200 V 397.300 C 555.800 397.245 555.755 397.200 555.700 397.200 H 549.700 C 549.645 397.200 549.600 397.245 549.600 397.300 V 400.200 C 549.600 400.300 549.700 400.200 549.600 400.200 H 543.800 C 543.700 400.200 543.800 400.300 543.800 400.200 V 397.300 C 543.800 397.245 543.755 397.200 543.700 397.200 H 537.700 C 537.645 397.200 537.600 397.245 537.600 397.300 V 400.200 C 537.600 400.300 537.700 400.200 537.600 400.200 H 531.800 C 531.700 400.200 531.800 400.300 531.800 400.200 V 397.300 C 531.800 397.245 531.755 397.200 531.700 397.200 H 525.700 C 525.645 397.200 525.600 397.245 525.600 397.300 V 400.200 C 525.600 400.300 525.700 400.200 525.600 400.200 H 519.800 C 519.700 400.200 519.800 400.300 519.800 400.200 V 397.300 C 519.800 397.245 519.755 397.200 519.700 397.200 H 513.700 C 513.645 397.200 513.600 397.245 513.600 397.300 V 400.200 C 513.600 400.300 513.700 400.200 513.600 400.200 H 507.800 C 507.700 400.200 507.800 400.300 507.800 400.200 V 397.300 C 507.800 397.245 507.755 397.200 507.700 397.200 H 501.700 C 501.645 397.200 501.600 397.245 501.600 397.300 V 400.200 C 501.600 400.300 501.700 400.200 501.600 400.200 H 495.800 C 495.700 400.200 495.800 400.300 495.800 400.200 V 397.300 C 495.800 397.245 495.755 397.200 495.700 397.200 H 489.700 C 489.645 397.200 489.600 397.245 489.600 397.300 V 400.200 C 489.600 400.300 489.700 400.200 489.600 400.200 H 483.800 C 483.700 400.200 483.800 400.300 483.800 400.200 V 397.300 C 483.800 397.245 483.755 397.200 483.700 397.200 H 477.700 C 477.645 397.200 477.600 397.245 477.600 397.300 V 400.200 C 477.600 400.300 477.700 400.200 477.600 400.200 H 471.800 C 471.700 400.200 471.800 400.300 471.800 400.200 V 397.300 C 471.800 397.245 471.755 397.200 471.700 397.200 H 465.700 C 465.645 397.200 465.600 397.245 465.600 397.300 V 400.200 C 465.600 400.300 465.700 400.200 465.600 400.200 H 459.800 C 459.700 400.200 459.800 400.300 459.800 400.200 V 397.300 C 459.800 397.245 459.755 397.200 459.700 397.200 H 453.700 C 453.645 397.200 453.600 397.245 453.600 397.300 V 400.200 C 453.600 400.300 453.700 400.200 453.600 400.200 H 447.800 C 447.700 400.200 447.800 400.300 447.800 400.200 V 397.300 C 447.800 397.245 447.755 397.200 447.700 397.200 H 441.700 C 441.645 397.200 441.600 397.245 441.600 397.300 V 400.200 C 441.600 400.300 441.700 400.200 441.600 400.200 H 435.800 C 435.700 400.200 435.800 400.300 435.800 400.200 V 397.300 C 435.800 397.245 435.755 397.200 435.700 397.200 H 429.700 C 429.645 397.200 429.600 397.245 429.600 397.300 V 400.200 C 429.600 400.300 429.700 400.200 429.600 400.200 H 423.800 C 423.700 400.200 423.800 400.300 423.800 400.200 V 397.300 C 423.800 397.245 423.755 397.200 423.700 397.200 H 417.700 C 417.645 397.200 417.600 397.245 417.600 397.300 V 400.200 C 417.600 400.300 417.700 400.200 417.600 400.200 H 411.800 C 411.700 400.200 411.800 400.300 411.800 400.200 V 397.300 C 411.800 397.245 411.755 397.200 411.700 397.200 H 405.700 C 405.645 397.200 405.600 397.245 405.600 397.300 V 400.200 C 405.600 400.300 405.700 400.200 405.600 400.200 H 399.800 C 399.700 400.200 399.800 400.300 399.800 400.200 V 397.300 C 399.800 397.245 399.755 397.200 399.700 397.200 H 393.700 C 393.645 397.200 393.600 397.245 393.600 397.300 V 400.200 C 393.600 400.300 393.700 400.200 393.600 400.200 H 387.800 C 387.700 400.200 387.800 400.300 387.800 400.200 V 397.300 C 387.800 397.245 387.755 397.200 387.700 397.200 H 381.700 C 381.645 397.200 381.600 397.245 381.600 397.300 V 400.200 C 381.600 400.300 381.700 400.200 381.600 400.200 H 375.800 C 375.700 400.200 375.800 400.300 375.800 400.200 V 397.300 C 375.800 397.245 375.755 397.200 375.700 397.200 H 369.700 C 369.645 397.200 369.600 397.245 369.600 397.300 V 400.200 C 369.600 400.300 369.700 400.200 369.600 400.200 H 363.800 C 363.700 400.200 363.800 400.300 363.800 400.200 V 397.300 C 363.800 397.245 363.755 397.200 363.700 397.200 H 357.700 C 357.645 397.200 357.600 397.245 357.600 397.300 V 400.200 C 357.600 400.300 357.700 400.200 357.600 400.200 H 351.800 C 351.700 400.200 351.800 400.300 351.800 400.200 V 397.300 C 351.800 397.245 351.755 397.200 351.700 397.200 H 345.700 C 345.645 397.200 345.600 397.245 345.600 397.300 V 400.200 C 345.600 400.300 345.700 400.200 345.600 400.200 H 339.800 C 339.700 400.200 339.800 400.300 339.800 400.200 V 397.300 C 339.800 397.245 339.755 397.200 339.700 397.200 H 333.700 C 333.645 397.200 333.600 397.245 333.600 397.300 V 400.200 C 333.600 400.300 333.700 400.200 333.600 400.200 H 327.800 C 327.700 400.200 327.800 400.300 327.800 400.200 V 397.300 C 327.800 397.245 327.755 397.200 327.700 397.200 H 321.700 C 321.645 397.200 321.600 397.245 321.600 397.300 V 400.200 C 321.600 400.300 321.700 400.200 321.600 400.200 H 315.800 C 315.700 400.200 315.800 400.300 315.800 400.200 V 397.300 C 315.800 397.245 315.755 397.200 315.700 397.200 H 309.700 C 309.645 397.200 309.600 397.245 309.600 397.300 V 400.200 C 309.600 400.300 309.700 400.200 309.600 400.200 H 303.800 C 303.700 400.200 303.800 400.300 303.800 400.200 V 397.300 C 303.800 397.245 303.755 397.200 303.700 397.200 H 297.700 C 297.645 397.200 297.600 397.245 297.600 397.300 V 400.200 C 297.600 400.300 297.700 400.200 297.600 400.200 H 289.200 C 289.145 400.200 289.100 400.245 289.100 400.300 V 407.200 C 289.100 407.300 289.200 407.200 289.100 407.200 H 286.200 C 286.145 407.200 286.100 407.245 286.100 407.300 V 413.300 C 286.100 413.355 286.145 413.400 286.200 413.400 H 289.100 C 289.200 413.400 289.100 413.300 289.100 413.400 V 419.200 C 289.100 419.300 289.200 419.200 289.100 419.200 H 286.200 C 286.145 419.200 286.100 419.245 286.100 419.300 V 425.300 C 286.100 425.355 286.145 425.400 286.200 425.400 H 289.100 C 289.200 425.400 289.100 425.300 289.100 425.400 V 431.200 C 289.100 431.300 289.200 431.200 289.100 431.200 H 286.200 C 286.145 431.200 286.100 431.245 286.100 431.300 V 437.300 C 286.100 437.355 286.145 437.400 286.200 437.400 H 289.100 C 289.200 437.400 289.100 437.300 289.100 437.400 V 443.200 C 289.100 443.300 289.200 443.200 289.100 443.200 H 286.200 C 286.145 443.200 286.100 443.245 286.100 443.300 V 449.300 C 286.100 449.355 286.145 449.400 286.200 449.400 H 289.100 C 289.200 449.400 289.100 449.300 289.100 449.400 V 455.200 C 289.100 455.300 289.200 455.200 289.100 455.200 H 286.200 C 286.145 455.200 286.100 455.245 286.100 455.300 V 461.300 C 286.100 461.355 286.145 461.400 286.200 461.400 H 289.100 C 289.200 461.400 289.100 461.300 289.100 461.400 V 468.300 C 289.100 468.355 289.145 468.400 289.200 468.400" stroke="rgb(0,0,0)" stroke-width="0.20" />
</g>
<g id="p-3" style="fill:none;stroke-linecap:round;stroke-linejoin:round;">
  <text dominant-baseline="hanging" font-size="4px" style="font-family: sans-serif ; font-weight: normal; font-style: normal; fill: rgb(255,0,0)" text-anchor="middle" transform="matrix( 1.000 0.000 0.000 1.000 150.300 393.700 )">Lid Lip</text><path d="M 13.100 395.700 H 21.200 C 21.300 395.700 21.200 395.600 21.200 395.700 V 398.600 C 21.200 398.655 21.245 398.700 21.300 398.700 H 27.300 C 27.355 398.700 27.400 398.655 27.400 398.600 V 395.700 C 27.400 395.600 27.300 395.700 27.400 395.700 H 33.200 C 33.300 395.700 33.200 395.600 33.200 395.700 V 398.600 C 33.200 398.655 33.245 398.700 33.300 398.700 H 39.300 C 39.355 398.700 39.400 398.655 39.400 398.600 V 395.700 C 39.400 395.600 39.300 395.700 39.400 395.700 H 45.200 C 45.300 395.700 45.200 395.600 45.200 395.700 V 398.600 C 45.200 398.655 45.245 398.700 45.300 398.700 H 51.300 C 51.355 398.700 51.400 398.655 51.400 398.600 V 395.700 C 51.400 395.600 51.300 395.700 51.400 395.700 H 57.200 C 57.300 395.700 57.200 395.600 57.200 395.700 V 398.600 C 57.200 398.655 57.245 398.700 57.300 398.700 H 63.300 C 63.355 398.700 63.400 398.655 63.400 398.600 V 395.700 C 63.400 395.600 63.300 395.700 63.400 395.700 H 69.200 C 69.300 395.700 69.200 395.600 69.200 395.700 V 398.600 C 69.200 398.655 69.245 398.700 69.300 398.700 H 75.300 C 75.355 398.700 75.400 398.655 75.400 398.600 V 395.700 C 75.400 395.600 75.300 395.700 75.400 395.700 H 81.200 C 81.300 395.700 81.200 395.600 81.200 395.700 V 398.600 C 81.200 398.655 81.245 398.700 81.300 398.700 H 87.300 C 87.355 398.700 87.400 398.655 87.400 398.600 V 395.700 C 87.400 395.600 87.300 395.700 87.400 395.700 H 93.200 C 93.300 395.700 93.200 395.600 93.200 395.700 V 398.600 C 93.200 398.655 93.245 398.700 93.300 398.700 H 99.300 C 99.355 398.700 99.400 398.655 99.400 398.600 V 395.700 C 99.400 395.600 99.300 395.700 99.400 395.700 H 105.200 C 105.300 395.700 105.200 395.600 105.200 395.700 V 398.600 C 105.200 398.655 105.245 398.700 105.300 398.700 H 111.300 C 111.355 398.700 111.400 398.655 111.400 398.600 V 395.700 C 111.400 395.600 111.300 395.700 111.400 395.700 H 117.200 C 117.300 395.700 117.200 395.600 117.200 395.700 V 398.600 C 117.200 398.655 117.245 398.700 117.300 398.700 H 123.300 C 123.355 398.700 123.400 398.655 123.400 398.600 V 395.700 C 123.400 395.600 123.300 395.700 123.400 395.700 H 129.200 C 129.300 395.700 129.200 395.600 129.200 395.700 V 398.600 C 129.200 398.655 129.245 398.700 129.300 398.700 H 135.300 C 135.355 398.700 135.400 398.655 135.400 398.600 V 395.700 C 135.400 395.600 135.300 395.700 135.400 395.700 H 141.200 C 141.300 395.700 141.200 395.600 141.200 395.700 V 398.600 C 141.200 398.655 141.245 398.700 141.300 398.700 H 147.300 C 147.355 398.700 147.400 398.655 147.400 398.600 V 395.700 C 147.400 395.600 147.300 395.700 147.400 395.700 H 153.200 C 153.300 395.700 153.200 395.600 153.200 395.700 V 398.600 C 153.200 398.655 153.245 398.700 153.300 398.700 H 159.300 C 159.355 398.700 159.400 398.655 159.400 398.600 V 395.700 C 159.400 395.600 159.300 395.700 159.400 395.700 H 165.200 C 165.300 395.700 165.200 395.600 165.200 395.700 V 398.600 C 165.200 398.655 165.245 398.700 165.300 398.700 H 171.300 C 171.355 398.700 171.400 398.655 171.400 398.600 V 395.700 C 171.400 395.600 171.300 395.700 171.400 395.700 H 177.200 C 177.300 395.700 177.200 395.600 177.200 395.700 V 398.600 C 177.200 398.655 177.245 398.700 177.300 398.700 H 183.300 C 183.355 398.700 183.400 398.655 183.400 398.600 V 395.700 C 183.400 395.600 183.300 395.700 183.400 395.700 H 189.200 C 189.300 395.700 189.200 395.600 189.200 395.700 V 398.600 C 189.200 398.655 189.245 398.700 189.300 398.700 H 195.300 C 195.355 398.700 195.400 398.655 195.400 398.600 V 395.700 C 195.400 395.600 195.300 395.700 195.400 395.700 H 201.200 C 201.300 395.700 201.200 395.600 201.200 395.700 V 398.600 C 201.200 398.655 201.245 398.700 201.300 398.700 H 207.300 C 207.355 398.700 207.400 398.655 207.400 398.600 V 395.700 C 207.400 395.600 207.300 395.700 207.400 395.700 H 213.200 C 213.300 395.700 213.200 395.600 213.200 395.700 V 398.600 C 213.200 398.655 213.245 398.700 213.300 398.700 H 219.300 C 219.355 398.700 219.400 398.655 219.400 398.600 V 395.700 C 219.400 395.600 219.300 395.700 219.400 395.700 H 225.200 C 225.300 395.700 225.200 395.600 225.200 395.700 V 398.600 C 225.200 398.655 225.245 398.700 225.300 398.700 H 231.300 C 231.355 398.700 231.400 398.655 231.400 398.600 V 395.700 C 231.400 395.600 231.300 395.700 231.400 395.700 H 237.200 C 237.300 395.700 237.200 395.600 237.200 395.700 V 398.600 C 237.200 398.655 237.245 398.700 237.300 398.700 H 243.300 C 243.355 398.700 243.400 398.655 243.400 398.600 V 395.700 C 243.400 395.600 243.300 395.700 243.400 395.700 H 249.200 C 249.300 395.700 249.200 395.600 249.200 395.700 V 398.600 C 249.200 398.655 249.245 398.700 249.300 398.700 H 255.300 C 255.355 398.700 255.400 398.655 255.400 398.600 V 395.700 C 255.400 395.600 255.300 395.700 255.400 395.700 H 261.200 C 261.300 395.700 261.200 395.600 261.200 395.700 V 398.600 C 261.200 398.655 261.245 398.700 261.300 398.700 H 267.300 C 267.355 398.700 267.400 398.655 267.400 398.600 V 395.700 C 267.400 395.600 267.300 395.700 267.400 395.700 H 273.200 C 273.300 395.700 273.200 395.600 273.200 395.700 V 398.600 C 273.200 398.655 273.245 398.700 273.300 398.700 H 279.300 C 279.355 398.700 279.400 398.655 279.400 398.600 V 395.700 C 279.400 395.600 279.300 395.700 279.400 395.700 H 287.500 H 290.500 C 290.555 395.700 290.600 395.655 290.600 395.600 V 392.600 C 290.600 392.545 290.555 392.500 290.500 392.500 H 287.500 H 13.100 H 10.100 C 10.045 392.500 10.000 392.545 10.000 392.600 V 395.600 C 10.000 395.655 10.045 395.700 10.100 395.700 H 13.100" stroke="rgb(0,0,0)" stroke-width="0.20" />
</g>
<g id="p-4" style="fill:none;stroke-linecap:round;stroke-linejoin:round;">
  <path d="M 84.000 377.900 V 380.800 C 84.000 380.900 84.100 380.800 84.000 380.800 H 81.200 C 81.100 380.800 81.200 380.900 81.200 380.800 V 375.000 C 81.200 374.900 81.100 375.000 81.200 375.000 H 84.000 C 84.100 375.000 84.000 374.900 84.000 375.000 V 377.900 Z" stroke="rgb(0,0,255)" stroke-width="0.20" />
  <path d="M 84.000 365.900 V 368.800 C 84.000 368.900 84.100 368.800 84.000 368.800 H 81.200 C 81.100 368.800 81.200 368.900 81.200 368.800 V 363.000 C 81.200 362.900 81.100 363.000 81.200 363.000 H 84.000 C 84.100 363.000 84.000 362.900 84.000 363.000 V 365.900 Z" stroke="rgb(0,0,255)" stroke-width="0.20" />
  <path d="M 84.000 353.900 V 356.800 C 84.000 356.900 84.100 356.800 84.000 356.800 H 81.200 C 81.100 356.800 81.200 356.900 81.200 356.800 V 351.000 C 81.200 350.900 81.100 351.000 81.200 351.000 H 84.000 C 84.100 351.000 84.000 350.900 84.000 351.000 V 353.900 Z" stroke="rgb(0,0,255)" stroke-width="0.20" />
  <path d="M 84.000 341.900 V 344.800 C 84.000 344.900 84.100 344.800 84.000 344.800 H 81.200 C 81.100 344.800 81.200 344.900 81.200 344.800 V 339.000 C 81.200 338.900 81.100 339.000 81.200 339.000 H 84.000 C 84.100 339.000 84.000 338.900 84.000 339.000 V 341.900 Z" stroke="rgb(0,0,255)" stroke-width="0.20" />
  <path d="M 84.000 329.900 V 332.800 C 84.000 332.900 84.100 332.800 84.000 332.800 H 81.200 C 81.100 332.800 81.200 332.900 81.200 332.800 V 327.000 C 81.200 326.900 81.100 327.000 81.200 327.000 H 84.000 C 84.100 327.000 84.000 326.900 84.000 327.000 V 329.900 Z" stroke="rgb(0,0,255)" stroke-width="0.20" />
  <path d="M 84.000 317.900 V 320.800 C 84.000 320.900 84.100 320.800 84.000 320.800 H 81.200 C 81.100 320.800 81.200 320.900 81.200 320.800 V 315.000 C 81.200 314.900 81.100 315.000 81.200 315.000 H 84.000 C 84.100 315.000 84.000 314.900 84.000 315.000 V 317.900 Z" stroke="rgb(0,0,255)" stroke-width="0.20" />
  <path d="M 84.000 305.900 V 308.800 C 84.000 308.900 84.100 308.800 84.000 308.800 H 81.200 C 81.100 308.800 81.200 308.900 81.200 308.800 V 303.000 C 81.200 302.900 81.100 303.000 81.200 303.000 H 84.000 C 84.100 303.000 84.000 302.900 84.000 303.000 V 305.900 Z" stroke="rgb(0,0,255)" stroke-width="0.20" />
  <path d="M 152.000 377.900 V 380.800 C 152.000 380.900 152.100 380.800 152.000 380.800 H 149.200 C 149.100 380.800 149.200 380.900 149.200 380.800 V 375.000 C 149.200 374.900 149.100 375.000 149.200 375.000 H 152.000 C 152.100 375.000 152.000 374.900 152.000 375.000 V 377.900 Z" stroke="rgb(0,0,255)" stroke-width="0.20" />
  <path d="M 152.000 365.900 V 368.800 C 152.000 368.900 152.100 368.800 152.000 368.800 H 149.200 C 149.100 368.800 149.200 368.900 149.200 368.800 V 363.000 C 149.200 362.900 149.100 363.000 149.200 363.000 H 152.000 C 152.100 363.000 152.000 362.900 152.000 363.000 V 365.900 Z" stroke="rgb(0,0,255)" stroke-width="0.20" />
  <path d="M 152.000 353.900 V 356.800 C 152.000 356.900 152.100 356.800 152.000 356.800 H 149.200 C 149.100 356.800 149.200 356.900 149.200 356.800 V 351.000 C 149.200 350.900 149.100 351.000 149.200 351.000 H 152.000 C 152.100 351.000 152.000 350.900 152.000 351.000 V 353.900 Z" stroke="rgb(0,0,255)" stroke-width="0.20" />
  <path d="M 152.000 341.900 V 344.800 C 152.000 344.900 152.100 344.800 152.000 344.800 H 149.200 C 149.100 344.800 149.200 344.900 149.200 344.800 V 339.000 C 149.200 338.900 149.100 339.000 149.200 339.000 H 152.000 C 152.100 339.000 152.000 338.900 152.000 339.000 V 341.900 Z" stroke="rgb(0,0,255)" stroke-width="0.20" />
  <path d="M 152.000 329.900 V 332.800 C 152.000 332.900 152.100 332.800 152.000 332.800 H 149.200 C 149.100 332.800 149.200 332.900 149.200 332.800 V 327.000 C 149.200 326.900 149.100 327.000 149.200 327.000 H 152.000 C 152.100 327.000 152.000 326.900 152.000 327.000 V 329.900 Z" stroke="rgb(0,0,255)" stroke-width="0.20" />
  <path d="M 152.000 317.900 V 320.800 C 152.000 320.900 152.100 320.800 152.000 320.800 H 149.200 C 149.100 320.800 149.200 320.900 149.200 320.800 V 315.000 C 149.200 314.900 149.100 315.000 149.200 315.000 H 152.000 C 152.100 315.000 152.000 314.900 152.000 315.000 V 317.900 Z" stroke="rgb(0,0,255)" stroke-width="0.20" />
  <path d="M 152.000 305.900 V 308.800 C 152.000 308.900 152.100 308.800 152.000 308.800 H 149.200 C 149.100 308.800 149.200 308.900 149.200 308.800 V 303.000 C 149.200 302.900 149.100 303.000 149.200 303.000 H 152.000 C 152.100 303.000 152.000 302.900 152.000 303.000 V 305.900 Z" stroke="rgb(0,0,255)" stroke-width="0.20" />
  <path d="M 220.000 377.900 V 380.800 C 220.000 380.900 220.100 380.800 220.000 380.800 H 217.200 C 217.100 380.800 217.200 380.900 217.200 380.800 V 375.000 C 217.200 374.900 217.100 375.000 217.200 375.000 H 220.000 C 220.100 375.000 220.000 374.900 220.000 375.000 V 377.900 Z" stroke="rgb(0,0,255)" stroke-width="0.20" />
  <path d="M 220.000 365.900 V 368.800 C 220.000 368.900 220.100 368.800 220.000 368.800 H 217.200 C 217.100 368.800 217.200 368.900 217.200 368.800 V 363.000 C 217.200 362.900 217.100 363.000 217.200 363.000 H 220.000 C 220.100 363.000 220.000 362.900 220.000 363.000 V 365.900 Z" stroke="rgb(0,0,255)" stroke-width="0.20" />
  <path d="M 220.000 353.900 V 356.800 C 220.000 356.900 220.100 356.800 220.000 356.800 H 217.200 C 217.100 356.800 217.200 356.900 217.200 356.800 V 351.000 C 217.200 350.900 217.100 351.000 217.200 351.000 H 220.000 C 220.100 351.000 220.000 350.900 220.000 351.000 V 353.900 Z" stroke="rgb(0,0,255)" stroke-width="0.20" />
  <path d="M 220.000 341.900 V 344.800 C 220.000 344.900 220.100 344.800 220.000 344.800 H 217.200 C 217.100 344.800 217.200 344.900 217.200 344.800 V 339.000 C 217.200 338.900 217.100 339.000 217.200 339.000 H 220.000 C 220.100 339.000 220.000 338.900 220.000 339.000 V 341.900 Z" stroke="rgb(0,0,255)" stroke-width="0.20" />
  <path d="M 220.000 329.900 V 332.800 C 220.000 332.900 220.100 332.800 220.000 332.800 H 217.200 C 217.100 332.800 217.200 332.900 217.200 332.800 V 327.000 C 217.200 326.900 217.100 327.000 217.200 327.000 H 220.000 C 220.100 327.000 220.000 326.900 220.000 327.000 V 329.900 Z" stroke="rgb(0,0,255)" stroke-width="0.20" />
  <path d="M 220.000 317.900 V 320.800 C 220.000 320.900 220.100 320.800 220.000 320.800 H 217.200 C 217.100 320.800 217.200 320.900 217.200 320.800 V 315.000 C 217.200 314.900 217.100 315.000 217.200 315.000 H 220.000 C 220.100 315.000 220.000 314.900 220.000 315.000 V 317.900 Z" stroke="rgb(0,0,255)" stroke-width="0.20" />
  <path d="M 220.000 305.900 V 308.800 C 220.000 308.900 220.100 308.800 220.000 308.800 H 217.200 C 217.100 308.800 217.200 308.900 217.200 308.800 V 303.000 C 217.200 302.900 217.100 303.000 217.200 303.000 H 220.000 C 220.100 303.000 220.000 302.900 220.000 303.000 V 305.900 Z" stroke="rgb(0,0,255)" stroke-width="0.20" />
  <text dominant-baseline="hanging" font-size="4px" style="font-family: sans-serif ; font-weight: normal; font-style: normal; fill: rgb(255,0,0)" text-anchor="middle" transform="matrix( 1.000 0.000 0.000 1.000 150.600 338.500 )">Back</text><path d="M 13.100 391.000 H 21.600 C 21.655 391.000 21.700 390.955 21.700 390.900 V 388.000 C 21.700 387.900 21.600 388.000 21.700 388.000 H 27.500 C 27.600 388.000 27.500 387.900 27.500 388.000 V 390.900 C 27.500 390.955 27.545 391.000 27.600 391.000 H 33.600 C 33.655 391.000 33.700 390.955 33.700 390.900 V 388.000 C 33.700 387.900 33.600 388.000 33.700 388.000 H 39.500 C 39.600 388.000 39.500 387.900 39.500 388.000 V 390.900 C 39.500 390.955 39.545 391.000 39.600 391.000 H 45.600 C 45.655 391.000 45.700 390.955 45.700 390.900 V 388.000 C 45.700 387.900 45.600 388.000 45.700 388.000 H 51.500 C 51.600 388.000 51.500 387.900 51.500 388.000 V 390.900 C 51.500 390.955 51.545 391.000 51.600 391.000 H 57.600 C 57.655 391.000 57.700 390.955 57.700 390.900 V 388.000 C 57.700 387.900 57.600 388.000 57.700 388.000 H 63.500 C 63.600 388.000 63.500 387.900 63.500 388.000 V 390.900 C 63.500 390.955 63.545 391.000 63.600 391.000 H 69.600 C 69.655 391.000 69.700 390.955 69.700 390.900 V 388.000 C 69.700 387.900 69.600 388.000 69.700 388.000 H 75.500 C 75.600 388.000 75.500 387.900 75.500 388.000 V 390.900 C 75.500 390.955 75.545 391.000 75.600 391.000 H 81.600 C 81.655 391.000 81.700 390.955 81.700 390.900 V 388.000 C 81.700 387.900 81.600 388.000 81.700 388.000 H 87.500 C 87.600 388.000 87.500 387.900 87.500 388.000 V 390.900 C 87.500 390.955 87.545 391.000 87.600 391.000 H 93.600 C 93.655 391.000 93.700 390.955 93.700 390.900 V 388.000 C 93.700 387.900 93.600 388.000 93.700 388.000 H 99.500 C 99.600 388.000 99.500 387.900 99.500 388.000 V 390.900 C 99.500 390.955 99.545 391.000 99.600 391.000 H 105.600 C 105.655 391.000 105.700 390.955 105.700 390.900 V 388.000 C 105.700 387.900 105.600 388.000 105.700 388.000 H 111.500 C 111.600 388.000 111.500 387.900 111.500 388.000 V 390.900 C 111.500 390.955 111.545 391.000 111.600 391.000 H 117.600 C 117.655 391.000 117.700 390.955 117.700 390.900 V 388.000 C 117.700 387.900 117.600 388.000 117.700 388.000 H 123.500 C 123.600 388.000 123.500 387.900 123.500 388.000 V 390.900 C 123.500 390.955 123.545 391.000 123.600 391.000 H 129.600 C 129.655 391.000 129.700 390.955 129.700 390.900 V 388.000 C 129.700 387.900 129.600 388.000 129.700 388.000 H 135.500 C 135.600 388.000 135.500 387.900 135.500 388.000 V 390.900 C 135.500 390.955 135.545 391.000 135.600 391.000 H 141.600 C 141.655 391.000 141.700 390.955 141.700 390.900 V 388.000 C 141.700 387.900 141.600 388.000 141.700 388.000 H 147.500 C 147.600 388.000 147.500 387.900 147.500 388.000 V 390.900 C 147.500 390.955 147.545 391.000 147.600 391.000 H 153.600 C 153.655 391.000 153.700 390.955 153.700 390.900 V 388.000 C 153.700 387.900 153.600 388.000 153.700 388.000 H 159.500 C 159.600 388.000 159.500 387.900 159.500 388.000 V 390.900 C 159.500 390.955 159.545 391.000 159.600 391.000 H 165.600 C 165.655 391.000 165.700 390.955 165.700 390.900 V 388.000 C 165.700 387.900 165.600 388.000 165.700 388.000 H 171.500 C 171.600 388.000 171.500 387.900 171.500 388.000 V 390.900 C 171.500 390.955 171.545 391.000 171.600 391.000 H 177.600 C 177.655 391.000 177.700 390.955 177.700 390.900 V 388.000 C 177.700 387.900 177.600 388.000 177.700 388.000 H 183.500 C 183.600 388.000 183.500 387.900 183.500 388.000 V 390.900 C 183.500 390.955 183.545 391.000 183.600 391.000 H 189.600 C 189.655 391.000 189.700 390.955 189.700 390.900 V 388.000 C 189.700 387.900 189.600 388.000 189.700 388.000 H 195.500 C 195.600 388.000 195.500 387.900 195.500 388.000 V 390.900 C 195.500 390.955 195.545 391.000 195.600 391.000 H 201.600 C 201.655 391.000 201.700 390.955 201.700 390.900 V 388.000 C 201.700 387.900 201.600 388.000 201.700 388.000 H 207.500 C 207.600 388.000 207.500 387.900 207.500 388.000 V 390.900 C 207.500 390.955 207.545 391.000 207.600 391.000 H 213.600 C 213.655 391.000 213.700 390.955 213.700 390.900 V 388.000 C 213.700 387.900 213.600 388.000 213.700 388.000 H 219.500 C 219.600 388.000 219.500 387.900 219.500 388.000 V 390.900 C 219.500 390.955 219.545 391.000 219.600 391.000 H 225.600 C 225.655 391.000 225.700 390.955 225.700 390.900 V 388.000 C 225.700 387.900 225.600 388.000 225.700 388.000 H 231.500 C 231.600 388.000 231.500 387.900 231.500 388.000 V 390.900 C 231.500 390.955 231.545 391.000 231.600 391.000 H 237.600 C 237.655 391.000 237.700 390.955 237.700 390.900 V 388.000 C 237.700 387.900 237.600 388.000 237.700 388.000 H 243.500 C 243.600 388.000 243.500 387.900 243.500 388.000 V 390.900 C 243.500 390.955 243.545 391.000 243.600 391.000 H 249.600 C 249.655 391.000 249.700 390.955 249.700 390.900 V 388.000 C 249.700 387.900 249.600 388.000 249.700 388.000 H 255.500 C 255.600 388.000 255.500 387.900 255.500 388.000 V 390.900 C 255.500 390.955 255.545 391.000 255.600 391.000 H 261.600 C 261.655 391.000 261.700 390.955 261.700 390.900 V 388.000 C 261.700 387.900 261.600 388.000 261.700 388.000 H 267.500 C 267.600 388.000 267.500 387.900 267.500 388.000 V 390.900 C 267.500 390.955 267.545 391.000 267.600 391.000 H 273.600 C 273.655 391.000 273.700 390.955 273.700 390.900 V 388.000 C 273.700 387.900 273.600 388.000 273.700 388.000 H 279.500 C 279.600 388.000 279.500 387.900 279.500 388.000 V 390.900 C 279.500 390.955 279.545 391.000 279.600 391.000 H 288.100 H 291.100 C 291.155 391.000 291.200 390.955 291.200 390.900 V 387.900 V 379.400 C 291.200 379.345 291.155 379.300 291.100 379.300 H 288.200 C 288.100 379.300 288.200 379.400 288.200 379.300 V 373.500 C 288.200 373.400 288.100 373.500 288.200 373.500 H 291.100 C 291.155 373.500 291.200 373.455 291.200 373.400 V 367.400 C 291.200 367.345 291.155 367.300 291.100 367.300 H 288.200 C 288.100 367.300 288.200 367.400 288.200 367.300 V 361.500 C 288.200 361.400 288.100 361.500 288.200 361.500 H 291.100 C 291.155 361.500 291.200 361.455 291.200 361.400 V 355.400 C 291.200 355.345 291.155 355.300 291.100 355.300 H 288.200 C 288.100 355.300 288.200 355.400 288.200 355.300 V 349.500 C 288.200 349.400 288.100 349.500 288.200 349.500 H 291.100 C 291.155 349.500 291.200 349.455 291.200 349.400 V 343.400 C 291.200 343.345 291.155 343.300 291.100 343.300 H 288.200 C 288.100 343.300 288.200 343.400 288.200 343.300 V 337.500 C 288.200 337.400 288.100 337.500 288.200 337.500 H 291.100 C 291.155 337.500 291.200 337.455 291.200 337.400 V 331.400 C 291.200 331.345 291.155 331.300 291.100 331.300 H 288.200 C 288.100 331.300 288.200 331.400 288.200 331.300 V 325.500 C 288.200 325.400 288.100 325.500 288.200 325.500 H 291.100 C 291.155 325.500 291.200 325.455 291.200 325.400 V 319.400 C 291.200 319.345 291.155 319.300 291.100 319.300 H 288.200 C 288.100 319.300 288.200 319.400 288.200 319.300 V 313.500 C 288.200 313.400 288.100 313.500 288.200 313.500 H 291.100 C 291.155 313.500 291.200 313.455 291.200 313.400 V 307.400 C 291.200 307.345 291.155 307.300 291.100 307.300 H 288.200 C 288.100 307.300 288.200 307.400 288.200 307.300 V 301.500 C 288.200 301.400 288.100 301.500 288.200 301.500 H 291.100 C 291.155 301.500 291.200 301.455 291.200 301.400 V 292.900 V 289.900 C 291.200 289.845 291.155 289.800 291.100 289.800 H 288.100 H 13.100 H 10.100 C 10.045 289.800 10.000 289.845 10.000 289.900 V 292.900 V 301.400 C 10.000 301.455 10.045 301.500 10.100 301.500 H 13.000 C 13.100 301.500 13.000 301.400 13.000 301.500 V 307.300 C 13.000 307.400 13.100 307.300 13.000 307.300 H 10.100 C 10.045 307.300 10.000 307.345 10.000 307.400 V 313.400 C 10.000 313.455 10.045 313.500 10.100 313.500 H 13.000 C 13.100 313.500 13.000 313.400 13.000 313.500 V 319.300 C 13.000 319.400 13.100 319.300 13.000 319.300 H 10.100 C 10.045 319.300 10.000 319.345 10.000 319.400 V 325.400 C 10.000 325.455 10.045 325.500 10.100 325.500 H 13.000 C 13.100 325.500 13.000 325.400 13.000 325.500 V 331.300 C 13.000 331.400 13.100 331.300 13.000 331.300 H 10.100 C 10.045 331.300 10.000 331.345 10.000 331.400 V 337.400 C 10.000 337.455 10.045 337.500 10.100 337.500 H 13.000 C 13.100 337.500 13.000 337.400 13.000 337.500 V 343.300 C 13.000 343.400 13.100 343.300 13.000 343.300 H 10.100 C 10.045 343.300 10.000 343.345 10.000 343.400 V 349.400 C 10.000 349.455 10.045 349.500 10.100 349.500 H 13.000 C 13.100 349.500 13.000 349.400 13.000 349.500 V 355.300 C 13.000 355.400 13.100 355.300 13.000 355.300 H 10.100 C 10.045 355.300 10.000 355.345 10.000 355.400 V 361.400 C 10.000 361.455 10.045 361.500 10.100 361.500 H 13.000 C 13.100 361.500 13.000 361.400 13.000 361.500 V 367.300 C 13.000 367.400 13.100 367.300 13.000 367.300 H 10.100 C 10.045 367.300 10.000 367.345 10.000 367.400 V 373.400 C 10.000 373.455 10.045 373.500 10.100 373.500 H 13.000 C 13.100 373.500 13.000 373.400 13.000 373.500 V 379.300 C 13.000 379.400 13.100 379.300 13.000 379.300 H 10.100 C 10.045 379.300 10.000 379.345 10.000 379.400 V 387.900 V 390.900 C 10.000 390.955 10.045 391.000 10.100 391.000 H 13.100" stroke="rgb(0,0,0)" stroke-width="0.20" />
</g>
<g id="p-5" style="fill:none;stroke-linecap:round;stroke-linejoin:round;">
  <path d="M 366.700 377.900 V 380.800 C 366.700 380.900 366.800 380.800 366.700 380.800 H 363.900 C 363.800 380.800 363.900 380.900 363.900 380.800 V 375.000 C 363.900 374.900 363.800 375.000 363.900 375.000 H 366.700 C 366.800 375.000 366.700 374.900 366.700 375.000 V 377.900 Z" stroke="rgb(0,0,255)" stroke-width="0.20" />
  <path d="M 366.700 365.900 V 368.800 C 366.700 368.900 366.800 368.800 366.700 368.800 H 363.900 C 363.800 368.800 363.900 368.900 363.900 368.800 V 363.000 C 363.900 362.900 363.800 363.000 363.900 363.000 H 366.700 C 366.800 363.000 366.700 362.900 366.700 363.000 V 365.900 Z" stroke="rgb(0,0,255)" stroke-width="0.20" />
  <path d="M 366.700 353.900 V 356.800 C 366.700 356.900 366.800 356.800 366.700 356.800 H 363.900 C 363.800 356.800 363.900 356.900 363.900 356.800 V 351.000 C 363.900 350.900 363.800 351.000 363.900 351.000 H 366.700 C 366.800 351.000 366.700 350.900 366.700 351.000 V 353.900 Z" stroke="rgb(0,0,255)" stroke-width="0.20" />
  <path d="M 366.700 341.900 V 344.800 C 366.700 344.900 366.800 344.800 366.700 344.800 H 363.900 C 363.800 344.800 363.900 344.900 363.900 344.800 V 339.000 C 363.900 338.900 363.800 339.000 363.900 339.000 H 366.700 C 366.800 339.000 366.700 338.900 366.700 339.000 V 341.900 Z" stroke="rgb(0,0,255)" stroke-width="0.20" />
  <path d="M 366.700 329.900 V 332.800 C 366.700 332.900 366.800 332.800 366.700 332.800 H 363.900 C 363.800 332.800 363.900 332.900 363.900 332.800 V 327.000 C 363.900 326.900 363.800 327.000 363.900 327.000 H 366.700 C 366.800 327.000 366.700 326.900 366.700 327.000 V 329.900 Z" stroke="rgb(0,0,255)" stroke-width="0.20" />
  <path d="M 366.700 317.900 V 320.800 C 366.700 320.900 366.800 320.800 366.700 320.800 H 363.900 C 363.800 320.800 363.900 320.900 363.900 320.800 V 315.000 C 363.900 314.900 363.800 315.000 363.900 315.000 H 366.700 C 366.800 315.000 366.700 314.900 366.700 315.000 V 317.900 Z" stroke="rgb(0,0,255)" stroke-width="0.20" />
  <path d="M 366.700 305.900 V 308.800 C 366.700 308.900 366.800 308.800 366.700 308.800 H 363.900 C 363.800 308.800 363.900 308.900 363.900 308.800 V 303.000 C 363.900 302.900 363.800 303.000 363.900 303.000 H 366.700 C 366.800 303.000 366.700 302.900 366.700 303.000 V 305.900 Z" stroke="rgb(0,0,255)" stroke-width="0.20" />
  <path d="M 434.700 377.900 V 380.800 C 434.700 380.900 434.800 380.800 434.700 380.800 H 431.900 C 431.800 380.800 431.900 380.900 431.900 380.800 V 375.000 C 431.900 374.900 431.800 375.000 431.900 375.000 H 434.700 C 434.800 375.000 434.700 374.900 434.700 375.000 V 377.900 Z" stroke="rgb(0,0,255)" stroke-width="0.20" />
  <path d="M 434.700 365.900 V 368.800 C 434.700 368.900 434.800 368.800 434.700 368.800 H 431.900 C 431.800 368.800 431.900 368.900 431.900 368.800 V 363.000 C 431.900 362.900 431.800 363.000 431.900 363.000 H 434.700 C 434.800 363.000 434.700 362.900 434.700 363.000 V 365.900 Z" stroke="rgb(0,0,255)" stroke-width="0.20" />
  <path d="M 434.700 353.900 V 356.800 C 434.700 356.900 434.800 356.800 434.700 356.800 H 431.900 C 431.800 356.800 431.900 356.900 431.900 356.800 V 351.000 C 431.900 350.900 431.800 351.000 431.900 351.000 H 434.700 C 434.800 351.000 434.700 350.900 434.700 351.000 V 353.900 Z" stroke="rgb(0,0,255)" stroke-width="0.20" />
  <path d="M 434.700 341.900 V 344.800 C 434.700 344.900 434.800 344.800 434.700 344.800 H 431.900 C 431.800 344.800 431.900 344.900 431.900 344.800 V 339.000 C 431.900 338.900 431.800 339.000 431.900 339.000 H 434.700 C 434.800 339.000 434.700 338.900 434.700 339.000 V 341.900 Z" stroke="rgb(0,0,255)" stroke-width="0.20" />
  <path d="M 434.700 329.900 V 332.800 C 434.700 332.900 434.800 332.800 434.700 332.800 H 431.900 C 431.800 332.800 431.900 332.900 431.900 332.800 V 327.000 C 431.900 326.900 431.800 327.000 431.900 327.000 H 434.700 C 434.800 327.000 434.700 326.900 434.700 327.000 V 329.900 Z" stroke="rgb(0,0,255)" stroke-width="0.20" />
  <path d="M 434.700 317.900 V 320.800 C 434.700 320.900 434.800 320.800 434.700 320.800 H 431.900 C 431.800 320.800 431.900 320.900 431.900 320.800 V 315.000 C 431.900 314.900 431.800 315.000 431.900 315.000 H 434.700 C 434.800 315.000 434.700 314.900 434.700 315.000 V 317.900 Z" stroke="rgb(0,0,255)" stroke-width="0.20" />
  <path d="M 434.700 305.900 V 308.800 C 434.700 308.900 434.800 308.800 434.700 308.800 H 431.900 C 431.800 308.800 431.900 308.900 431.900 308.800 V 303.000 C 431.900 302.900 431.800 303.000 431.900 303.000 H 434.700 C 434.800 303.000 434.700 302.900 434.700 303.000 V 305.900 Z" stroke="rgb(0,0,255)" stroke-width="0.20" />
  <path d="M 502.700 377.900 V 380.800 C 502.700 380.900 502.800 380.800 502.700 380.800 H 499.900 C 499.800 380.800 499.900 380.900 499.900 380.800 V 375.000 C 499.900 374.900 499.800 375.000 499.900 375.000 H 502.700 C 502.800 375.000 502.700 374.900 502.700 375.000 V 377.900 Z" stroke="rgb(0,0,255)" stroke-width="0.20" />
  <path d="M 502.700 365.900 V 368.800 C 502.700 368.900 502.800 368.800 502.700 368.800 H 499.900 C 499.800 368.800 499.900 368.900 499.900 368.800 V 363.000 C 499.900 362.900 499.800 363.000 499.900 363.000 H 502.700 C 502.800 363.000 502.700 362.900 502.700 363.000 V 365.900 Z" stroke="rgb(0,0,255)" stroke-width="0.20" />
  <path d="M 502.700 353.900 V 356.800 C 502.700 356.900 502.800 356.800 502.700 356.800 H 499.900 C 499.800 356.800 499.900 356.900 499.900 356.800 V 351.000 C 499.900 350.900 499.800 351.000 499.900 351.000 H 502.700 C 502.800 351.000 502.700 350.900 502.700 351.000 V 353.900 Z" stroke="rgb(0,0,255)" stroke-width="0.20" />
  <path d="M 502.700 341.900 V 344.800 C 502.700 344.900 502.800 344.800 502.700 344.800 H 499.900 C 499.800 344.800 499.900 344.900 499.900 344.800 V 339.000 C 499.900 338.900 499.800 339.000 499.900 339.000 H 502.700 C 502.800 339.000 502.700 338.900 502.700 339.000 V 341.900 Z" stroke="rgb(0,0,255)" stroke-width="0.20" />
  <path d="M 502.700 329.900 V 332.800 C 502.700 332.900 502.800 332.800 502.700 332.800 H 499.900 C 499.800 332.800 499.900 332.900 499.900 332.800 V 327.000 C 499.900 326.900 499.800 327.000 499.900 327.000 H 502.700 C 502.800 327.000 502.700 326.900 502.700 327.000 V 329.900 Z" stroke="rgb(0,0,255)" stroke-width="0.20" />
  <path d="M 502.700 317.900 V 320.800 C 502.700 320.900 502.800 320.800 502.700 320.800 H 499.900 C 499.800 320.800 499.900 320.900 499.900 320.800 V 315.000 C 499.900 314.900 499.800 315.000 499.900 315.000 H 502.700 C 502.800 315.000 502.700 314.900 502.700 315.000 V 317.900 Z" stroke="rgb(0,0,255)" stroke-width="0.20" />
  <path d="M 502.700 305.900 V 308.800 C 502.700 308.900 502.800 308.800 502.700 308.800 H 499.900 C 499.800 308.800 499.900 308.900 499.900 308.800 V 303.000 C 499.900 302.900 499.800 303.000 499.900 303.000 H 502.700 C 502.800 303.000 502.700 302.900 502.700 303.000 V 305.900 Z" stroke="rgb(0,0,255)" stroke-width="0.20" />
  <text dominant-baseline="hanging" font-size="4px" style="font-family: sans-serif ; font-weight: normal; font-style: normal; fill: rgb(255,0,0)" text-anchor="middle" transform="matrix( 1.000 0.000 0.000 1.000 433.300 340.000 )">Front</text><path d="M 295.800 391.000 H 304.300 C 304.355 391.000 304.400 390.955 304.400 390.900 V 388.000 C 304.400 387.900 304.300 388.000 304.400 388.000 H 310.200 C 310.300 388.000 310.200 387.900 310.200 388.000 V 390.900 C 310.200 390.955 310.245 391.000 310.300 391.000 H 316.300 C 316.355 391.000 316.400 390.955 316.400 390.900 V 388.000 C 316.400 387.900 316.300 388.000 316.400 388.000 H 322.200 C 322.300 388.000 322.200 387.900 322.200 388.000 V 390.900 C 322.200 390.955 322.245 391.000 322.300 391.000 H 328.300 C 328.355 391.000 328.400 390.955 328.400 390.900 V 388.000 C 328.400 387.900 328.300 388.000 328.400 388.000 H 334.200 C 334.300 388.000 334.200 387.900 334.200 388.000 V 390.900 C 334.200 390.955 334.245 391.000 334.300 391.000 H 340.300 C 340.355 391.000 340.400 390.955 340.400 390.900 V 388.000 C 340.400 387.900 340.300 388.000 340.400 388.000 H 346.200 C 346.300 388.000 346.200 387.900 346.200 388.000 V 390.900 C 346.200 390.955 346.245 391.000 346.300 391.000 H 352.300 C 352.355 391.000 352.400 390.955 352.400 390.900 V 388.000 C 352.400 387.900 352.300 388.000 352.400 388.000 H 358.200 C 358.300 388.000 358.200 387.900 358.200 388.000 V 390.900 C 358.200 390.955 358.245 391.000 358.300 391.000 H 364.300 C 364.355 391.000 364.400 390.955 364.400 390.900 V 388.000 C 364.400 387.900 364.300 388.000 364.400 388.000 H 370.200 C 370.300 388.000 370.200 387.900 370.200 388.000 V 390.900 C 370.200 390.955 370.245 391.000 370.300 391.000 H 376.300 C 376.355 391.000 376.400 390.955 376.400 390.900 V 388.000 C 376.400 387.900 376.300 388.000 376.400 388.000 H 382.200 C 382.300 388.000 382.200 387.900 382.200 388.000 V 390.900 C 382.200 390.955 382.245 391.000 382.300 391.000 H 388.300 C 388.355 391.000 388.400 390.955 388.400 390.900 V 388.000 C 388.400 387.900 388.300 388.000 388.400 388.000 H 394.200 C 394.300 388.000 394.200 387.900 394.200 388.000 V 390.900 C 394.200 390.955 394.245 391.000 394.300 391.000 H 400.300 C 400.355 391.000 400.400 390.955 400.400 390.900 V 388.000 C 400.400 387.900 400.300 388.000 400.400 388.000 H 406.200 C 406.300 388.000 406.200 387.900 406.200 388.000 V 390.900 C 406.200 390.955 406.245 391.000 406.300 391.000 H 412.300 C 412.355 391.000 412.400 390.955 412.400 390.900 V 388.000 C 412.400 387.900 412.300 388.000 412.400 388.000 H 418.200 C 418.300 388.000 418.200 387.900 418.200 388.000 V 390.900 C 418.200 390.955 418.245 391.000 418.300 391.000 H 424.300 C 424.355 391.000 424.400 390.955 424.400 390.900 V 388.000 C 424.400 387.900 424.300 388.000 424.400 388.000 H 430.200 C 430.300 388.000 430.200 387.900 430.200 388.000 V 390.900 C 430.200 390.955 430.245 391.000 430.300 391.000 H 436.300 C 436.355 391.000 436.400 390.955 436.400 390.900 V 388.000 C 436.400 387.900 436.300 388.000 436.400 388.000 H 442.200 C 442.300 388.000 442.200 387.900 442.200 388.000 V 390.900 C 442.200 390.955 442.245 391.000 442.300 391.000 H 448.300 C 448.355 391.000 448.400 390.955 448.400 390.900 V 388.000 C 448.400 387.900 448.300 388.000 448.400 388.000 H 454.200 C 454.300 388.000 454.200 387.900 454.200 388.000 V 390.900 C 454.200 390.955 454.245 391.000 454.300 391.000 H 460.300 C 460.355 391.000 460.400 390.955 460.400 390.900 V 388.000 C 460.400 387.900 460.300 388.000 460.400 388.000 H 466.200 C 466.300 388.000 466.200 387.900 466.200 388.000 V 390.900 C 466.200 390.955 466.245 391.000 466.300 391.000 H 472.300 C 472.355 391.000 472.400 390.955 472.400 390.900 V 388.000 C 472.400 387.900 472.300 388.000 472.400 388.000 H 478.200 C 478.300 388.000 478.200 387.900 478.200 388.000 V 390.900 C 478.200 390.955 478.245 391.000 478.300 391.000 H 484.300 C 484.355 391.000 484.400 390.955 484.400 390.900 V 388.000 C 484.400 387.900 484.300 388.000 484.400 388.000 H 490.200 C 490.300 388.000 490.200 387.900 490.200 388.000 V 390.900 C 490.200 390.955 490.245 391.000 490.300 391.000 H 496.300 C 496.355 391.000 496.400 390.955 496.400 390.900 V 388.000 C 496.400 387.900 496.300 388.000 496.400 388.000 H 502.200 C 502.300 388.000 502.200 387.900 502.200 388.000 V 390.900 C 502.200 390.955 502.245 391.000 502.300 391.000 H 508.300 C 508.355 391.000 508.400 390.955 508.400 390.900 V 388.000 C 508.400 387.900 508.300 388.000 508.400 388.000 H 514.200 C 514.300 388.000 514.200 387.900 514.200 388.000 V 390.900 C 514.200 390.955 514.245 391.000 514.300 391.000 H 520.300 C 520.355 391.000 520.400 390.955 520.400 390.900 V 388.000 C 520.400 387.900 520.300 388.000 520.400 388.000 H 526.200 C 526.300 388.000 526.200 387.900 526.200 388.000 V 390.900 C 526.200 390.955 526.245 391.000 526.300 391.000 H 532.300 C 532.355 391.000 532.400 390.955 532.400 390.900 V 388.000 C 532.400 387.900 532.300 388.000 532.400 388.000 H 538.200 C 538.300 388.000 538.200 387.900 538.200 388.000 V 390.900 C 538.200 390.955 538.245 391.000 538.300 391.000 H 544.300 C 544.355 391.000 544.400 390.955 544.400 390.900 V 388.000 C 544.400 387.900 544.300 388.000 544.400 388.000 H 550.200 C 550.300 388.000 550.200 387.900 550.200 388.000 V 390.900 C 550.200 390.955 550.245 391.000 550.300 391.000 H 556.300 C 556.355 391.000 556.400 390.955 556.400 390.900 V 388.000 C 556.400 387.900 556.300 388.000 556.400 388.000 H 562.200 C 562.300 388.000 562.200 387.900 562.200 388.000 V 390.900 C 562.200 390.955 562.245 391.000 562.300 391.000 H 570.800 H 573.800 C 573.855 391.000 573.900 390.955 573.900 390.900 V 387.900 V 379.400 C 573.900 379.345 573.855 379.300 573.800 379.300 H 570.900 C 570.800 379.300 570.900 379.400 570.900 379.300 V 373.500 C 570.900 373.400 570.800 373.500 570.900 373.500 H 573.800 C 573.855 373.500 573.900 373.455 573.900 373.400 V 367.400 C 573.900 367.345 573.855 367.300 573.800 367.300 H 570.900 C 570.800 367.300 570.900 367.400 570.900 367.300 V 361.500 C 570.900 361.400 570.800 361.500 570.900 361.500 H 573.800 C 573.855 361.500 573.900 361.455 573.900 361.400 V 355.400 C 573.900 355.345 573.855 355.300 573.800 355.300 H 570.900 C 570.800 355.300 570.900 355.400 570.900 355.300 V 349.500 C 570.900 349.400 570.800 349.500 570.900 349.500 H 573.800 C 573.855 349.500 573.900 349.455 573.900 349.400 V 343.400 C 573.900 343.345 573.855 343.300 573.800 343.300 H 570.900 C 570.800 343.300 570.900 343.400 570.900 343.300 V 337.500 C 570.900 337.400 570.800 337.500 570.900 337.500 H 573.800 C 573.855 337.500 573.900 337.455 573.900 337.400 V 331.400 C 573.900 331.345 573.855 331.300 573.800 331.300 H 570.900 C 570.800 331.300 570.900 331.400 570.900 331.300 V 325.500 C 570.900 325.400 570.800 325.500 570.900 325.500 H 573.800 C 573.855 325.500 573.900 325.455 573.900 325.400 V 319.400 C 573.900 319.345 573.855 319.300 573.800 319.300 H 570.900 C 570.800 319.300 570.900 319.400 570.900 319.300 V 313.500 C 570.900 313.400 570.800 313.500 570.900 313.500 H 573.800 C 573.855 313.500 573.900 313.455 573.900 313.400 V 307.400 C 573.900 307.345 573.855 307.300 573.800 307.300 H 570.900 C 570.800 307.300 570.900 307.400 570.900 307.300 V 301.500 C 570.900 301.400 570.800 301.500 570.900 301.500 H 573.800 C 573.855 301.500 573.900 301.455 573.900 301.400 V 292.900 C 573.900 292.845 573.855 292.800 573.800 292.800 H 570.800 C 570.745 292.800 570.700 292.845 570.700 292.900 V 295.800 C 570.700 295.900 570.800 295.800 570.700 295.800 H 295.900 C 295.800 295.800 295.900 295.900 295.900 295.800 V 292.900 C 295.900 292.845 295.855 292.800 295.800 292.800 H 292.800 C 292.745 292.800 292.700 292.845 292.700 292.900 V 301.400 C 292.700 301.455 292.745 301.500 292.800 301.500 H 295.700 C 295.800 301.500 295.700 301.400 295.700 301.500 V 307.300 C 295.700 307.400 295.800 307.300 295.700 307.300 H 292.800 C 292.745 307.300 292.700 307.345 292.700 307.400 V 313.400 C 292.700 313.455 292.745 313.500 292.800 313.500 H 295.700 C 295.800 313.500 295.700 313.400 295.700 313.500 V 319.300 C 295.700 319.400 295.800 319.300 295.700 319.300 H 292.800 C 292.745 319.300 292.700 319.345 292.700 319.400 V 325.400 C 292.700 325.455 292.745 325.500 292.800 325.500 H 295.700 C 295.800 325.500 295.700 325.400 295.700 325.500 V 331.300 C 295.700 331.400 295.800 331.300 295.700 331.300 H 292.800 C 292.745 331.300 292.700 331.345 292.700 331.400 V 337.400 C 292.700 337.455 292.745 337.500 292.800 337.500 H 295.700 C 295.800 337.500 295.700 337.400 295.700 337.500 V 343.300 C 295.700 343.400 295.800 343.300 295.700 343.300 H 292.800 C 292.745 343.300 292.700 343.345 292.700 343.400 V 349.400 C 292.700 349.455 292.745 349.500 292.800 349.500 H 295.700 C 295.800 349.500 295.700 349.400 295.700 349.500 V 355.300 C 295.700 355.400 295.800 355.300 295.700 355.300 H 292.800 C 292.745 355.300 292.700 355.345 292.700 355.400 V 361.400 C 292.700 361.455 292.745 361.500 292.800 361.500 H 295.700 C 295.800 361.500 295.700 361.400 295.700 361.500 V 367.300 C 295.700 367.400 295.800 367.300 295.700 367.300 H 292.800 C 292.745 367.300 292.700 367.345 292.700 367.400 V 373.400 C 292.700 373.455 292.745 373.500 292.800 373.500 H 295.700 C 295.800 373.500 295.700 373.400 295.700 373.500 V 379.300 C 295.700 379.400 295.800 379.300 295.700 379.300 H 292.800 C 292.745 379.300 292.700 379.345 292.700 379.400 V 387.900 V 390.900 C 292.700 390.955 292.745 391.000 292.800 391.000 H 295.800" stroke="rgb(0,0,0)" stroke-width="0.20" />
</g>
<g id="p-6" style="fill:none;stroke-linecap:round;stroke-linejoin:round;">
  <text dominant-baseline="hanging" font-size="4px" style="font-family: sans-serif ; font-weight: normal; font-style: normal; fill: rgb(255,0,0)" text-anchor="middle" transform="matrix( 1.000 0.000 0.000 1.000 47.100 235.800 )">Outer Side Left</text><path d="M 13.100 288.300 H 20.100 C 20.155 288.300 20.200 288.255 20.200 288.200 V 285.300 C 20.200 285.200 20.100 285.300 20.200 285.300 H 26.000 C 26.100 285.300 26.000 285.200 26.000 285.300 V 288.200 C 26.000 288.255 26.045 288.300 26.100 288.300 H 32.100 C 32.155 288.300 32.200 288.255 32.200 288.200 V 285.300 C 32.200 285.200 32.100 285.300 32.200 285.300 H 38.000 C 38.100 285.300 38.000 285.200 38.000 285.300 V 288.200 C 38.000 288.255 38.045 288.300 38.100 288.300 H 44.100 C 44.155 288.300 44.200 288.255 44.200 288.200 V 285.300 C 44.200 285.200 44.100 285.300 44.200 285.300 H 50.000 C 50.100 285.300 50.000 285.200 50.000 285.300 V 288.200 C 50.000 288.255 50.045 288.300 50.100 288.300 H 56.100 C 56.155 288.300 56.200 288.255 56.200 288.200 V 285.300 C 56.200 285.200 56.100 285.300 56.200 285.300 H 62.000 C 62.100 285.300 62.000 285.200 62.000 285.300 V 288.200 C 62.000 288.255 62.045 288.300 62.100 288.300 H 68.100 C 68.155 288.300 68.200 288.255 68.200 288.200 V 285.300 C 68.200 285.200 68.100 285.300 68.200 285.300 H 74.000 C 74.100 285.300 74.000 285.200 74.000 285.300 V 288.200 C 74.000 288.255 74.045 288.300 74.100 288.300 H 81.100 C 81.155 288.300 81.200 288.255 81.200 288.200 V 285.200 V 276.800 C 81.200 276.700 81.100 276.800 81.200 276.800 H 84.100 C 84.155 276.800 84.200 276.755 84.200 276.700 V 270.700 C 84.200 270.645 84.155 270.600 84.100 270.600 H 81.200 C 81.100 270.600 81.200 270.700 81.200 270.600 V 264.800 C 81.200 264.700 81.100 264.800 81.200 264.800 H 84.100 C 84.155 264.800 84.200 264.755 84.200 264.700 V 258.700 C 84.200 258.645 84.155 258.600 84.100 258.600 H 81.200 C 81.100 258.600 81.200 258.700 81.200 258.600 V 252.800 C 81.200 252.700 81.100 252.800 81.200 252.800 H 84.100 C 84.155 252.800 84.200 252.755 84.200 252.700 V 246.700 C 84.200 246.645 84.155 246.600 84.100 246.600 H 81.200 C 81.100 246.600 81.200 246.700 81.200 246.600 V 240.800 C 81.200 240.700 81.100 240.800 81.200 240.800 H 84.100 C 84.155 240.800 84.200 240.755 84.200 240.700 V 234.700 C 84.200 234.645 84.155 234.600 84.100 234.600 H 81.200 C 81.100 234.600 81.200 234.700 81.200 234.600 V 228.800 C 81.200 228.700 81.100 228.800 81.200 228.800 H 84.100 C 84.155 228.800 84.200 228.755 84.200 228.700 V 222.700 C 84.200 222.645 84.155 222.600 84.100 222.600 H 81.200 C 81.100 222.600 81.200 222.700 81.200 222.600 V 216.800 C 81.200 216.700 81.100 216.800 81.200 216.800 H 84.100 C 84.155 216.800 84.200 216.755 84.200 216.700 V 210.700 C 84.200 210.645 84.155 210.600 84.100 210.600 H 81.200 C 81.100 210.600 81.200 210.700 81.200 210.600 V 204.800 C 81.200 204.700 81.100 204.800 81.200 204.800 H 84.100 C 84.155 204.800 84.200 204.755 84.200 204.700 V 198.700 C 84.200 198.645 84.155 198.600 84.100 198.600 H 81.200 C 81.100 198.600 81.200 198.700 81.200 198.600 V 190.200 V 187.200 C 81.200 187.145 81.155 187.100 81.100 187.100 H 74.100 C 74.045 187.100 74.000 187.145 74.000 187.200 V 190.100 C 74.000 190.200 74.100 190.100 74.000 190.100 H 68.200 C 68.100 190.100 68.200 190.200 68.200 190.100 V 187.200 C 68.200 187.145 68.155 187.100 68.100 187.100 H 62.100 C 62.045 187.100 62.000 187.145 62.000 187.200 V 190.100 C 62.000 190.200 62.100 190.100 62.000 190.100 H 56.200 C 56.100 190.100 56.200 190.200 56.200 190.100 V 187.200 C 56.200 187.145 56.155 187.100 56.100 187.100 H 50.100 C 50.045 187.100 50.000 187.145 50.000 187.200 V 190.100 C 50.000 190.200 50.100 190.100 50.000 190.100 H 44.200 C 44.100 190.100 44.200 190.200 44.200 190.100 V 187.200 C 44.200 187.145 44.155 187.100 44.100 187.100 H 38.100 C 38.045 187.100 38.000 187.145 38.000 187.200 V 190.100 C 38.000 190.200 38.100 190.100 38.000 190.100 H 32.200 C 32.100 190.100 32.200 190.200 32.200 190.100 V 187.200 C 32.200 187.145 32.155 187.100 32.100 187.100 H 26.100 C 26.045 187.100 26.000 187.145 26.000 187.200 V 190.100 C 26.000 190.200 26.100 190.100 26.000 190.100 H 20.200 C 20.100 190.100 20.200 190.200 20.200 190.100 V 187.200 C 20.200 187.145 20.155 187.100 20.100 187.100 H 13.100 C 13.045 187.100 13.000 187.145 13.000 187.200 V 190.200 V 198.600 C 13.000 198.700 13.100 198.600 13.000 198.600 H 10.100 C 10.045 198.600 10.000 198.645 10.000 198.700 V 204.700 C 10.000 204.755 10.045 204.800 10.100 204.800 H 13.000 C 13.100 204.800 13.000 204.700 13.000 204.800 V 210.600 C 13.000 210.700 13.100 210.600 13.000 210.600 H 10.100 C 10.045 210.600 10.000 210.645 10.000 210.700 V 216.700 C 10.000 216.755 10.045 216.800 10.100 216.800 H 13.000 C 13.100 216.800 13.000 216.700 13.000 216.800 V 222.600 C 13.000 222.700 13.100 222.600 13.000 222.600 H 10.100 C 10.045 222.600 10.000 222.645 10.000 222.700 V 228.700 C 10.000 228.755 10.045 228.800 10.100 228.800 H 13.000 C 13.100 228.800 13.000 228.700 13.000 228.800 V 234.600 C 13.000 234.700 13.100 234.600 13.000 234.600 H 10.100 C 10.045 234.600 10.000 234.645 10.000 234.700 V 240.700 C 10.000 240.755 10.045 240.800 10.100 240.800 H 13.000 C 13.100 240.800 13.000 240.700 13.000 240.800 V 246.600 C 13.000 246.700 13.100 246.600 13.000 246.600 H 10.100 C 10.045 246.600 10.000 246.645 10.000 246.700 V 252.700 C 10.000 252.755 10.045 252.800 10.100 252.800 H 13.000 C 13.100 252.800 13.000 252.700 13.000 252.800 V 258.600 C 13.000 258.700 13.100 258.600 13.000 258.600 H 10.100 C 10.045 258.600 10.000 258.645 10.000 258.700 V 264.700 C 10.000 264.755 10.045 264.800 10.100 264.800 H 13.000 C 13.100 264.800 13.000 264.700 13.000 264.800 V 270.600 C 13.000 270.700 13.100 270.600 13.000 270.600 H 10.100 C 10.045 270.600 10.000 270.645 10.000 270.700 V 276.700 C 10.000 276.755 10.045 276.800 10.100 276.800 H 13.000 C 13.100 276.800 13.000 276.700 13.000 276.800 V 285.200 V 288.200 C 13.000 288.255 13.045 288.300 13.100 288.300" stroke="rgb(0,0,0)" stroke-width="0.20" />
</g>
<g id="p-7" style="fill:none;stroke-linecap:round;stroke-linejoin:round;">
  <text dominant-baseline="hanging" font-size="4px" style="font-family: sans-serif ; font-weight: normal; font-style: normal; fill: rgb(255,0,0)" text-anchor="middle" transform="matrix( 1.000 0.000 0.000 1.000 122.800 235.800 )">Outer Side Right</text><path d="M 88.800 288.300 H 95.800 C 95.855 288.300 95.900 288.255 95.900 288.200 V 285.300 C 95.900 285.200 95.800 285.300 95.900 285.300 H 101.700 C 101.800 285.300 101.700 285.200 101.700 285.300 V 288.200 C 101.700 288.255 101.745 288.300 101.800 288.300 H 107.800 C 107.855 288.300 107.900 288.255 107.900 288.200 V 285.300 C 107.900 285.200 107.800 285.300 107.900 285.300 H 113.700 C 113.800 285.300 113.700 285.200 113.700 285.300 V 288.200 C 113.700 288.255 113.745 288.300 113.800 288.300 H 119.800 C 119.855 288.300 119.900 288.255 119.900 288.200 V 285.300 C 119.900 285.200 119.800 285.300 119.900 285.300 H 125.700 C 125.800 285.300 125.700 285.200 125.700 285.300 V 288.200 C 125.700 288.255 125.745 288.300 125.800 288.300 H 131.800 C 131.855 288.300 131.900 288.255 131.900 288.200 V 285.300 C 131.900 285.200 131.800 285.300 131.900 285.300 H 137.700 C 137.800 285.300 137.700 285.200 137.700 285.300 V 288.200 C 137.700 288.255 137.745 288.300 137.800 288.300 H 143.800 C 143.855 288.300 143.900 288.255 143.900 288.200 V 285.300 C 143.900 285.200 143.800 285.300 143.900 285.300 H 149.700 C 149.800 285.300 149.700 285.200 149.700 285.300 V 288.200 C 149.700 288.255 149.745 288.300 149.800 288.300 H 156.800 C 156.855 288.300 156.900 288.255 156.900 288.200 V 285.200 V 276.800 C 156.900 276.700 156.800 276.800 156.900 276.800 H 159.800 C 159.855 276.800 159.900 276.755 159.900 276.700 V 270.700 C 159.900 270.645 159.855 270.600 159.800 270.600 H 156.900 C 156.800 270.600 156.900 270.700 156.900 270.600 V 264.800 C 156.900 264.700 156.800 264.800 156.900 264.800 H 159.800 C 159.855 264.800 159.900 264.755 159.900 264.700 V 258.700 C 159.900 258.645 159.855 258.600 159.800 258.600 H 156.900 C 156.800 258.600 156.900 258.700 156.900 258.600 V 252.800 C 156.900 252.700 156.800 252.800 156.900 252.800 H 159.800 C 159.855 252.800 159.900 252.755 159.900 252.700 V 246.700 C 159.900 246.645 159.855 246.600 159.800 246.600 H 156.900 C 156.800 246.600 156.900 246.700 156.900 246.600 V 240.800 C 156.900 240.700 156.800 240.800 156.900 240.800 H 159.800 C 159.855 240.800 159.900 240.755 159.900 240.700 V 234.700 C 159.900 234.645 159.855 234.600 159.800 234.600 H 156.900 C 156.800 234.600 156.900 234.700 156.900 234.600 V 228.800 C 156.900 228.700 156.800 228.800 156.900 228.800 H 159.800 C 159.855 228.800 159.900 228.755 159.900 228.700 V 222.700 C 159.900 222.645 159.855 222.600 159.800 222.600 H 156.900 C 156.800 222.600 156.900 222.700 156.900 222.600 V 216.800 C 156.900 216.700 156.800 216.800 156.900 216.800 H 159.800 C 159.855 216.800 159.900 216.755 159.900 216.700 V 210.700 C 159.900 210.645 159.855 210.600 159.800 210.600 H 156.900 C 156.800 210.600 156.900 210.700 156.900 210.600 V 204.800 C 156.900 204.700 156.800 204.800 156.900 204.800 H 159.800 C 159.855 204.800 159.900 204.755 159.900 204.700 V 198.700 C 159.900 198.645 159.855 198.600 159.800 198.600 H 156.900 C 156.800 198.600 156.900 198.700 156.900 198.600 V 190.200 V 187.200 C 156.900 187.145 156.855 187.100 156.800 187.100 H 149.800 C 149.745 187.100 149.700 187.145 149.700 187.200 V 190.100 C 149.700 190.200 149.800 190.100 149.700 190.100 H 143.900 C 143.800 190.100 143.900 190.200 143.900 190.100 V 187.200 C 143.900 187.145 143.855 187.100 143.800 187.100 H 137.800 C 137.745 187.100 137.700 187.145 137.700 187.200 V 190.100 C 137.700 190.200 137.800 190.100 137.700 190.100 H 131.900 C 131.800 190.100 131.900 190.200 131.900 190.100 V 187.200 C 131.900 187.145 131.855 187.100 131.800 187.100 H 125.800 C 125.745 187.100 125.700 187.145 125.700 187.200 V 190.100 C 125.700 190.200 125.800 190.100 125.700 190.100 H 119.900 C 119.800 190.100 119.900 190.200 119.900 190.100 V 187.200 C 119.900 187.145 119.855 187.100 119.800 187.100 H 113.800 C 113.745 187.100 113.700 187.145 113.700 187.200 V 190.100 C 113.700 190.200 113.800 190.100 113.700 190.100 H 107.900 C 107.800 190.100 107.900 190.200 107.900 190.100 V 187.200 C 107.900 187.145 107.855 187.100 107.800 187.100 H 101.800 C 101.745 187.100 101.700 187.145 101.700 187.200 V 190.100 C 101.700 190.200 101.800 190.100 101.700 190.100 H 95.900 C 95.800 190.100 95.900 190.200 95.900 190.100 V 187.200 C 95.900 187.145 95.855 187.100 95.800 187.100 H 88.800 C 88.745 187.100 88.700 187.145 88.700 187.200 V 190.200 V 198.600 C 88.700 198.700 88.800 198.600 88.700 198.600 H 85.800 C 85.745 198.600 85.700 198.645 85.700 198.700 V 204.700 C 85.700 204.755 85.745 204.800 85.800 204.800 H 88.700 C 88.800 204.800 88.700 204.700 88.700 204.800 V 210.600 C 88.700 210.700 88.800 210.600 88.700 210.600 H 85.800 C 85.745 210.600 85.700 210.645 85.700 210.700 V 216.700 C 85.700 216.755 85.745 216.800 85.800 216.800 H 88.700 C 88.800 216.800 88.700 216.700 88.700 216.800 V 222.600 C 88.700 222.700 88.800 222.600 88.700 222.600 H 85.800 C 85.745 222.600 85.700 222.645 85.700 222.700 V 228.700 C 85.700 228.755 85.745 228.800 85.800 228.800 H 88.700 C 88.800 228.800 88.700 228.700 88.700 228.800 V 234.600 C 88.700 234.700 88.800 234.600 88.700 234.600 H 85.800 C 85.745 234.600 85.700 234.645 85.700 234.700 V 240.700 C 85.700 240.755 85.745 240.800 85.800 240.800 H 88.700 C 88.800 240.800 88.700 240.700 88.700 240.800 V 246.600 C 88.700 246.700 88.800 246.600 88.700 246.600 H 85.800 C 85.745 246.600 85.700 246.645 85.700 246.700 V 252.700 C 85.700 252.755 85.745 252.800 85.800 252.800 H 88.700 C 88.800 252.800 88.700 252.700 88.700 252.800 V 258.600 C 88.700 258.700 88.800 258.600 88.700 258.600 H 85.800 C 85.745 258.600 85.700 258.645 85.700 258.700 V 264.700 C 85.700 264.755 85.745 264.800 85.800 264.800 H 88.700 C 88.800 264.800 88.700 264.700 88.700 264.800 V 270.600 C 88.700 270.700 88.800 270.600 88.700 270.600 H 85.800 C 85.745 270.600 85.700 270.645 85.700 270.700 V 276.700 C 85.700 276.755 85.745 276.800 85.800 276.800 H 88.700 C 88.800 276.800 88.700 276.700 88.700 276.800 V 285.200 V 288.200 C 88.700 288.255 88.745 288.300 88.800 288.300" stroke="rgb(0,0,0)" stroke-width="0.20" />
</g>
<g id="p-8" style="fill:none;stroke-linecap:round;stroke-linejoin:round;">
  <text dominant-baseline="hanging" font-size="4px" style="font-family: sans-serif ; font-weight: normal; font-style: normal; fill: rgb(255,0,0)" text-anchor="middle" transform="matrix( 1.000 0.000 0.000 1.000 44.100 137.600 )">Inner Side Left</text><path d="M 10.100 185.600 H 34.100 C 34.155 185.600 34.200 185.555 34.200 185.500 V 172.500 C 34.200 170.762 34.657 169.055 35.526 167.550 C 36.395 166.045 37.645 164.795 39.150 163.926 C 40.655 163.057 42.362 162.600 44.100 162.600 C 45.838 162.600 47.545 163.057 49.050 163.926 C 50.555 164.795 51.805 166.045 52.674 167.550 C 53.543 169.055 54.000 170.762 54.000 172.500 V 185.500 C 54.000 185.555 54.045 185.600 54.100 185.600 H 78.100 C 78.155 185.600 78.200 185.555 78.200 185.500 V 93.500 C 78.200 93.445 78.155 93.400 78.100 93.400 H 10.100 C 10.045 93.400 10.000 93.445 10.000 93.500 V 185.500 C 10.000 185.555 10.045 185.600 10.100 185.600" stroke="rgb(0,0,0)" stroke-width="0.20" />
</g>
<g id="p-9" style="fill:none;stroke-linecap:round;stroke-linejoin:round;">
  <text dominant-baseline="hanging" font-size="4px" style="font-family: sans-serif ; font-weight: normal; font-style: normal; fill: rgb(255,0,0)" text-anchor="middle" transform="matrix( 1.000 0.000 0.000 1.000 113.800 137.600 )">Inner Side Right</text><path d="M 79.800 185.600 H 103.800 C 103.855 185.600 103.900 185.555 103.900 185.500 V 172.500 C 103.900 170.762 104.357 169.055 105.226 167.550 C 106.095 166.045 107.345 164.795 108.850 163.926 C 110.355 163.057 112.062 162.600 113.800 162.600 C 115.538 162.600 117.245 163.057 118.750 163.926 C 120.255 164.795 121.505 166.045 122.374 167.550 C 123.243 169.055 123.700 170.762 123.700 172.500 V 185.500 C 123.700 185.555 123.745 185.600 123.800 185.600 H 147.800 C 147.855 185.600 147.900 185.555 147.900 185.500 V 93.500 C 147.900 93.445 147.855 93.400 147.800 93.400 H 79.800 C 79.745 93.400 79.700 93.445 79.700 93.500 V 185.500 C 79.700 185.555 79.745 185.600 79.800 185.600" stroke="rgb(0,0,0)" stroke-width="0.20" />
</g>
<g id="p-10" style="fill:none;stroke-linecap:round;stroke-linejoin:round;">
  <text dominant-baseline="hanging" font-size="4px" style="font-family: sans-serif ; font-weight: normal; font-style: normal; fill: rgb(255,0,0)" text-anchor="middle" transform="matrix( 1.000 0.000 0.000 1.000 44.100 86.900 )">Lip Left</text><path d="M 10.100 91.900 H 78.100 C 78.155 91.900 78.200 91.855 78.200 91.800 V 88.800 C 78.200 88.745 78.155 88.700 78.100 88.700 H 71.200 C 71.100 88.700 71.200 88.800 71.200 88.700 V 85.800 C 71.200 85.745 71.155 85.700 71.100 85.700 H 65.100 C 65.045 85.700 65.000 85.745 65.000 85.800 V 88.700 C 65.000 88.800 65.100 88.700 65.000 88.700 H 59.200 C 59.100 88.700 59.200 88.800 59.200 88.700 V 85.800 C 59.200 85.745 59.155 85.700 59.100 85.700 H 53.100 C 53.045 85.700 53.000 85.745 53.000 85.800 V 88.700 C 53.000 88.800 53.100 88.700 53.000 88.700 H 47.200 C 47.100 88.700 47.200 88.800 47.200 88.700 V 85.800 C 47.200 85.745 47.155 85.700 47.100 85.700 H 41.100 C 41.045 85.700 41.000 85.745 41.000 85.800 V 88.700 C 41.000 88.800 41.100 88.700 41.000 88.700 H 35.200 C 35.100 88.700 35.200 88.800 35.200 88.700 V 85.800 C 35.200 85.745 35.155 85.700 35.100 85.700 H 29.100 C 29.045 85.700 29.000 85.745 29.000 85.800 V 88.700 C 29.000 88.800 29.100 88.700 29.000 88.700 H 23.200 C 23.100 88.700 23.200 88.800 23.200 88.700 V 85.800 C 23.200 85.745 23.155 85.700 23.100 85.700 H 17.100 C 17.045 85.700 17.000 85.745 17.000 85.800 V 88.700 C 17.000 88.800 17.100 88.700 17.000 88.700 H 10.100 C 10.045 88.700 10.000 88.745 10.000 88.800 V 91.800 C 10.000 91.855 10.045 91.900 10.100 91.900" stroke="rgb(0,0,0)" stroke-width="0.20" />
</g>
<g id="p-11" style="fill:none;stroke-linecap:round;stroke-linejoin:round;">
  <text dominant-baseline="hanging" font-size="4px" style="font-family: sans-serif ; font-weight: normal; font-style: normal; fill: rgb(255,0,0)" text-anchor="middle" transform="matrix( 1.000 0.000 0.000 1.000 113.800 86.900 )">Lip Right</text><path d="M 79.800 88.900 H 86.700 C 86.800 88.900 86.700 88.800 86.700 88.900 V 91.800 C 86.700 91.855 86.745 91.900 86.800 91.900 H 92.800 C 92.855 91.900 92.900 91.855 92.900 91.800 V 88.900 C 92.900 88.800 92.800 88.900 92.900 88.900 H 98.700 C 98.800 88.900 98.700 88.800 98.700 88.900 V 91.800 C 98.700 91.855 98.745 91.900 98.800 91.900 H 104.800 C 104.855 91.900 104.900 91.855 104.900 91.800 V 88.900 C 104.900 88.800 104.800 88.900 104.900 88.900 H 110.700 C 110.800 88.900 110.700 88.800 110.700 88.900 V 91.800 C 110.700 91.855 110.745 91.900 110.800 91.900 H 116.800 C 116.855 91.900 116.900 91.855 116.900 91.800 V 88.900 C 116.900 88.800 116.800 88.900 116.900 88.900 H 122.700 C 122.800 88.900 122.700 88.800 122.700 88.900 V 91.800 C 122.700 91.855 122.745 91.900 122.800 91.900 H 128.800 C 128.855 91.900 128.900 91.855 128.900 91.800 V 88.900 C 128.900 88.800 128.800 88.900 128.900 88.900 H 134.700 C 134.800 88.900 134.700 88.800 134.700 88.900 V 91.800 C 134.700 91.855 134.745 91.900 134.800 91.900 H 140.800 C 140.855 91.900 140.900 91.855 140.900 91.800 V 88.900 C 140.900 88.800 140.800 88.900 140.900 88.900 H 147.800 C 147.855 88.900 147.900 88.855 147.900 88.800 V 85.800 C 147.900 85.745 147.855 85.700 147.800 85.700 H 79.800 C 79.745 85.700 79.700 85.745 79.700 85.800 V 88.800 C 79.700 88.855 79.745 88.900 79.800 88.900" stroke="rgb(0,0,0)" stroke-width="0.20" />
</g>
<g id="p-12" style="fill:none;stroke-linecap:round;stroke-linejoin:round;">
  <text dominant-baseline="hanging" font-size="4px" style="font-family: sans-serif ; font-weight: normal; font-style: normal; fill: rgb(255,0,0)" text-anchor="middle" transform="matrix( 1.000 0.000 0.000 1.000 57.600 45.200 )">Divider</text><path d="M 13.100 81.200 H 20.000 C 20.100 81.200 20.000 81.100 20.000 81.200 V 84.100 C 20.000 84.155 20.045 84.200 20.100 84.200 H 26.100 C 26.155 84.200 26.200 84.155 26.200 84.100 V 81.200 C 26.200 81.100 26.100 81.200 26.200 81.200 H 32.000 C 32.100 81.200 32.000 81.100 32.000 81.200 V 84.100 C 32.000 84.155 32.045 84.200 32.100 84.200 H 38.100 C 38.155 84.200 38.200 84.155 38.200 84.100 V 81.200 C 38.200 81.100 38.100 81.200 38.200 81.200 H 44.000 C 44.100 81.200 44.000 81.100 44.000 81.200 V 84.100 C 44.000 84.155 44.045 84.200 44.100 84.200 H 50.100 C 50.155 84.200 50.200 84.155 50.200 84.100 V 81.200 C 50.200 81.100 50.100 81.200 50.200 81.200 H 56.000 C 56.100 81.200 56.000 81.100 56.000 81.200 V 84.100 C 56.000 84.155 56.045 84.200 56.100 84.200 H 62.100 C 62.155 84.200 62.200 84.155 62.200 84.100 V 81.200 C 62.200 81.100 62.100 81.200 62.200 81.200 H 68.000 C 68.100 81.200 68.000 81.100 68.000 81.200 V 84.100 C 68.000 84.155 68.045 84.200 68.100 84.200 H 74.100 C 74.155 84.200 74.200 84.155 74.200 84.100 V 81.200 C 74.200 81.100 74.100 81.200 74.200 81.200 H 80.000 C 80.100 81.200 80.000 81.100 80.000 81.200 V 84.100 C 80.000 84.155 80.045 84.200 80.100 84.200 H 86.100 C 86.155 84.200 86.200 84.155 86.200 84.100 V 81.200 C 86.200 81.100 86.100 81.200 86.200 81.200 H 92.000 C 92.100 81.200 92.000 81.100 92.000 81.200 V 84.100 C 92.000 84.155 92.045 84.200 92.100 84.200 H 98.100 C 98.155 84.200 98.200 84.155 98.200 84.100 V 81.200 C 98.200 81.100 98.100 81.200 98.200 81.200 H 105.100 C 105.155 81.200 105.200 81.155 105.200 81.100 V 57.100 C 105.200 57.045 105.155 57.000 105.100 57.000 H 92.100 C 90.362 57.000 88.655 56.543 87.150 55.674 C 85.645 54.805 84.395 53.555 83.526 52.050 C 82.657 50.545 82.200 48.838 82.200 47.100 C 82.200 45.362 82.657 43.655 83.526 42.150 C 84.395 40.645 85.645 39.395 87.150 38.526 C 88.655 37.657 90.362 37.200 92.100 37.200 H 105.100 C 105.155 37.200 105.200 37.155 105.200 37.100 V 13.100 C 105.200 13.045 105.155 13.000 105.100 13.000 H 98.200 C 98.100 13.000 98.200 13.100 98.200 13.000 V 10.100 C 98.200 10.045 98.155 10.000 98.100 10.000 H 92.100 C 92.045 10.000 92.000 10.045 92.000 10.100 V 13.000 C 92.000 13.100 92.100 13.000 92.000 13.000 H 86.200 C 86.100 13.000 86.200 13.100 86.200 13.000 V 10.100 C 86.200 10.045 86.155 10.000 86.100 10.000 H 80.100 C 80.045 10.000 80.000 10.045 80.000 10.100 V 13.000 C 80.000 13.100 80.100 13.000 80.000 13.000 H 74.200 C 74.100 13.000 74.200 13.100 74.200 13.000 V 10.100 C 74.200 10.045 74.155 10.000 74.100 10.000 H 68.100 C 68.045 10.000 68.000 10.045 68.000 10.100 V 13.000 C 68.000 13.100 68.100 13.000 68.000 13.000 H 62.200 C 62.100 13.000 62.200 13.100 62.200 13.000 V 10.100 C 62.200 10.045 62.155 10.000 62.100 10.000 H 56.100 C 56.045 10.000 56.000 10.045 56.000 10.100 V 13.000 C 56.000 13.100 56.100 13.000 56.000 13.000 H 50.200 C 50.100 13.000 50.200 13.100 50.200 13.000 V 10.100 C 50.200 10.045 50.155 10.000 50.100 10.000 H 44.100 C 44.045 10.000 44.000 10.045 44.000 10.100 V 13.000 C 44.000 13.100 44.100 13.000 44.000 13.000 H 38.200 C 38.100 13.000 38.200 13.100 38.200 13.000 V 10.100 C 38.200 10.045 38.155 10.000 38.100 10.000 H 32.100 C 32.045 10.000 32.000 10.045 32.000 10.100 V 13.000 C 32.000 13.100 32.100 13.000 32.000 13.000 H 26.200 C 26.100 13.000 26.200 13.100 26.200 13.000 V 10.100 C 26.200 10.045 26.155 10.000 26.100 10.000 H 20.100 C 20.045 10.000 20.000 10.045 20.000 10.100 V 13.000 C 20.000 13.100 20.100 13.000 20.000 13.000 H 13.100 C 13.045 13.000 13.000 13.045 13.000 13.100 V 20.000 C 13.000 20.100 13.100 20.000 13.000 20.000 H 10.100 C 10.045 20.000 10.000 20.045 10.000 20.100 V 26.100 C 10.000 26.155 10.045 26.200 10.100 26.200 H 13.000 C 13.100 26.200 13.000 26.100 13.000 26.200 V 32.000 C 13.000 32.100 13.100 32.000 13.000 32.000 H 10.100 C 10.045 32.000 10.000 32.045 10.000 32.100 V 38.100 C 10.000 38.155 10.045 38.200 10.100 38.200 H 13.000 C 13.100 38.200 13.000 38.100 13.000 38.200 V 44.000 C 13.000 44.100 13.100 44.000 13.000 44.000 H 10.100 C 10.045 44.000 10.000 44.045 10.000 44.100 V 50.100 C 10.000 50.155 10.045 50.200 10.100 50.200 H 13.000 C 13.100 50.200 13.000 50.100 13.000 50.200 V 56.000 C 13.000 56.100 13.100 56.000 13.000 56.000 H 10.100 C 10.045 56.000 10.000 56.045 10.000 56.100 V 62.100 C 10.000 62.155 10.045 62.200 10.100 62.200 H 13.000 C 13.100 62.200 13.000 62.100 13.000 62.200 V 68.000 C 13.000 68.100 13.100 68.000 13.000 68.000 H 10.100 C 10.045 68.000 10.000 68.045 10.000 68.100 V 74.100 C 10.000 74.155 10.045 74.200 10.100 74.200 H 13.000 C 13.100 74.200 13.000 74.100 13.000 74.200 V 81.100 C 13.000 81.155 13.045 81.200 13.100 81.200" stroke="rgb(0,0,0)" stroke-width="0.20" />
</g>
<g id="p-13" style="fill:none;stroke-linecap:round;stroke-linejoin:round;">
  <text dominant-baseline="hanging" font-size="4px" style="font-family: sans-serif ; font-weight: normal; font-style: normal; fill: rgb(255,0,0)" text-anchor="middle" transform="matrix( 1.000 0.000 0.000 1.000 154.300 45.200 )">Divider</text><path d="M 109.800 81.200 H 116.700 C 116.800 81.200 116.700 81.100 116.700 81.200 V 84.100 C 116.700 84.155 116.745 84.200 116.800 84.200 H 122.800 C 122.855 84.200 122.900 84.155 122.900 84.100 V 81.200 C 122.900 81.100 122.800 81.200 122.900 81.200 H 128.700 C 128.800 81.200 128.700 81.100 128.700 81.200 V 84.100 C 128.700 84.155 128.745 84.200 128.800 84.200 H 134.800 C 134.855 84.200 134.900 84.155 134.900 84.100 V 81.200 C 134.900 81.100 134.800 81.200 134.900 81.200 H 140.700 C 140.800 81.200 140.700 81.100 140.700 81.200 V 84.100 C 140.700 84.155 140.745 84.200 140.800 84.200 H 146.800 C 146.855 84.200 146.900 84.155 146.900 84.100 V 81.200 C 146.900 81.100 146.800 81.200 146.900 81.200 H 152.700 C 152.800 81.200 152.700 81.100 152.700 81.200 V 84.100 C 152.700 84.155 152.745 84.200 152.800 84.200 H 158.800 C 158.855 84.200 158.900 84.155 158.900 84.100 V 81.200 C 158.900 81.100 158.800 81.200 158.900 81.200 H 164.700 C 164.800 81.200 164.700 81.100 164.700 81.200 V 84.100 C 164.700 84.155 164.745 84.200 164.800 84.200 H 170.800 C 170.855 84.200 170.900 84.155 170.900 84.100 V 81.200 C 170.900 81.100 170.800 81.200 170.900 81.200 H 176.700 C 176.800 81.200 176.700 81.100 176.700 81.200 V 84.100 C 176.700 84.155 176.745 84.200 176.800 84.200 H 182.800 C 182.855 84.200 182.900 84.155 182.900 84.100 V 81.200 C 182.900 81.100 182.800 81.200 182.900 81.200 H 188.700 C 188.800 81.200 188.700 81.100 188.700 81.200 V 84.100 C 188.700 84.155 188.745 84.200 188.800 84.200 H 194.800 C 194.855 84.200 194.900 84.155 194.900 84.100 V 81.200 C 194.900 81.100 194.800 81.200 194.900 81.200 H 201.800 C 201.855 81.200 201.900 81.155 201.900 81.100 V 57.100 C 201.900 57.045 201.855 57.000 201.800 57.000 H 188.800 C 187.062 57.000 185.355 56.543 183.850 55.674 C 182.345 54.805 181.095 53.555 180.226 52.050 C 179.357 50.545 178.900 48.838 178.900 47.100 C 178.900 45.362 179.357 43.655 180.226 42.150 C 181.095 40.645 182.345 39.395 183.850 38.526 C 185.355 37.657 187.062 37.200 188.800 37.200 H 201.800 C 201.855 37.200 201.900 37.155 201.900 37.100 V 13.100 C 201.900 13.045 201.855 13.000 201.800 13.000 H 194.900 C 194.800 13.000 194.900 13.100 194.900 13.000 V 10.100 C 194.900 10.045 194.855 10.000 194.800 10.000 H 188.800 C 188.745 10.000 188.700 10.045 188.700 10.100 V 13.000 C 188.700 13.100 188.800 13.000 188.700 13.000 H 182.900 C 182.800 13.000 182.900 13.100 182.900 13.000 V 10.100 C 182.900 10.045 182.855 10.000 182.800 10.000 H 176.800 C 176.745 10.000 176.700 10.045 176.700 10.100 V 13.000 C 176.700 13.100 176.800 13.000 176.700 13.000 H 170.900 C 170.800 13.000 170.900 13.100 170.900 13.000 V 10.100 C 170.900 10.045 170.855 10.000 170.800 10.000 H 164.800 C 164.745 10.000 164.700 10.045 164.700 10.100 V 13.000 C 164.700 13.100 164.800 13.000 164.700 13.000 H 158.900 C 158.800 13.000 158.900 13.100 158.900 13.000 V 10.100 C 158.900 10.045 158.855 10.000 158.800 10.000 H 152.800 C 152.745 10.000 152.700 10.045 152.700 10.100 V 13.000 C 152.700 13.100 152.800 13.000 152.700 13.000 H 146.900 C 146.800 13.000 146.900 13.100 146.900 13.000 V 10.100 C 146.900 10.045 146.855 10.000 146.800 10.000 H 140.800 C 140.745 10.000 140.700 10.045 140.700 10.100 V 13.000 C 140.700 13.100 140.800 13.000 140.700 13.000 H 134.900 C 134.800 13.000 134.900 13.100 134.900 13.000 V 10.100 C 134.900 10.045 134.855 10.000 134.800 10.000 H 128.800 C 128.745 10.000 128.700 10.045 128.700 10.100 V 13.000 C 128.700 13.100 128.800 13.000 128.700 13.000 H 122.900 C 122.800 13.000 122.900 13.100 122.900 13.000 V 10.100 C 122.900 10.045 122.855 10.000 122.800 10.000 H 116.800 C 116.745 10.000 116.700 10.045 116.700 10.100 V 13.000 C 116.700 13.100 116.800 13.000 116.700 13.000 H 109.800 C 109.745 13.000 109.700 13.045 109.700 13.100 V 20.000 C 109.700 20.100 109.800 20.000 109.700 20.000 H 106.800 C 106.745 20.000 106.700 20.045 106.700 20.100 V 26.100 C 106.700 26.155 106.745 26.200 106.800 26.200 H 109.700 C 109.800 26.200 109.700 26.100 109.700 26.200 V 32.000 C 109.700 32.100 109.800 32.000 109.700 32.000 H 106.800 C 106.745 32.000 106.700 32.045 106.700 32.100 V 38.100 C 106.700 38.155 106.745 38.200 106.800 38.200 H 109.700 C 109.800 38.200 109.700 38.100 109.700 38.200 V 44.000 C 109.700 44.100 109.800 44.000 109.700 44.000 H 106.800 C 106.745 44.000 106.700 44.045 106.700 44.100 V 50.100 C 106.700 50.155 106.745 50.200 106.800 50.200 H 109.700 C 109.800 50.200 109.700 50.100 109.700 50.200 V 56.000 C 109.700 56.100 109.800 56.000 109.700 56.000 H 106.800 C 106.745 56.000 106.700 56.045 106.700 56.100 V 62.100 C 106.700 62.155 106.745 62.200 106.800 62.200 H 109.700 C 109.800 62.200 109.700 62.100 109.700 62.200 V 68.000 C 109.700 68.100 109.800 68.000 109.700 68.000 H 106.800 C 106.745 68.000 106.700 68.045 106.700 68.100 V 74.100 C 106.700 74.155 106.745 74.200 106.800 74.200 H 109.700 C 109.800 74.200 109.700 74.100 109.700 74.200 V 81.100 C 109.700 81.155 109.745 81.200 109.800 81.200" stroke="rgb(0,0,0)" stroke-width="0.20" />
</g>
<g id="p-14" style="fill:none;stroke-linecap:round;stroke-linejoin:round;">
  <text dominant-baseline="hanging" font-size="4px" style="font-family: sans-serif ; font-weight: normal; font-style: normal; fill: rgb(255,0,0)" text-anchor="middle" transform="matrix( 1.000 0.000 0.000 1.000 251.000 45.200 )">Divider</text><path d="M 206.500 81.200 H 213.400 C 213.500 81.200 213.400 81.100 213.400 81.200 V 84.100 C 213.400 84.155 213.445 84.200 213.500 84.200 H 219.500 C 219.555 84.200 219.600 84.155 219.600 84.100 V 81.200 C 219.600 81.100 219.500 81.200 219.600 81.200 H 225.400 C 225.500 81.200 225.400 81.100 225.400 81.200 V 84.100 C 225.400 84.155 225.445 84.200 225.500 84.200 H 231.500 C 231.555 84.200 231.600 84.155 231.600 84.100 V 81.200 C 231.600 81.100 231.500 81.200 231.600 81.200 H 237.400 C 237.500 81.200 237.400 81.100 237.400 81.200 V 84.100 C 237.400 84.155 237.445 84.200 237.500 84.200 H 243.500 C 243.555 84.200 243.600 84.155 243.600 84.100 V 81.200 C 243.600 81.100 243.500 81.200 243.600 81.200 H 249.400 C 249.500 81.200 249.400 81.100 249.400 81.200 V 84.100 C 249.400 84.155 249.445 84.200 249.500 84.200 H 255.500 C 255.555 84.200 255.600 84.155 255.600 84.100 V 81.200 C 255.600 81.100 255.500 81.200 255.600 81.200 H 261.400 C 261.500 81.200 261.400 81.100 261.400 81.200 V 84.100 C 261.400 84.155 261.445 84.200 261.500 84.200 H 267.500 C 267.555 84.200 267.600 84.155 267.600 84.100 V 81.200 C 267.600 81.100 267.500 81.200 267.600 81.200 H 273.400 C 273.500 81.200 273.400 81.100 273.400 81.200 V 84.100 C 273.400 84.155 273.445 84.200 273.500 84.200 H 279.500 C 279.555 84.200 279.600 84.155 279.600 84.100 V 81.200 C 279.600 81.100 279.500 81.200 279.600 81.200 H 285.400 C 285.500 81.200 285.400 81.100 285.400 81.200 V 84.100 C 285.400 84.155 285.445 84.200 285.500 84.200 H 291.500 C 291.555 84.200 291.600 84.155 291.600 84.100 V 81.200 C 291.600 81.100 291.500 81.200 291.600 81.200 H 298.500 C 298.555 81.200 298.600 81.155 298.600 81.100 V 57.100 C 298.600 57.045 298.555 57.000 298.500 57.000 H 285.500 C 283.762 57.000 282.055 56.543 280.550 55.674 C 279.045 54.805 277.795 53.555 276.926 52.050 C 276.057 50.545 275.600 48.838 275.600 47.100 C 275.600 45.362 276.057 43.655 276.926 42.150 C 277.795 40.645 279.045 39.395 280.550 38.526 C 282.055 37.657 283.762 37.200 285.500 37.200 H 298.500 C 298.555 37.200 298.600 37.155 298.600 37.100 V 13.100 C 298.600 13.045 298.555 13.000 298.500 13.000 H 291.600 C 291.500 13.000 291.600 13.100 291.600 13.000 V 10.100 C 291.600 10.045 291.555 10.000 291.500 10.000 H 285.500 C 285.445 10.000 285.400 10.045 285.400 10.100 V 13.000 C 285.400 13.100 285.500 13.000 285.400 13.000 H 279.600 C 279.500 13.000 279.600 13.100 279.600 13.000 V 10.100 C 279.600 10.045 279.555 10.000 279.500 10.000 H 273.500 C 273.445 10.000 273.400 10.045 273.400 10.100 V 13.000 C 273.400 13.100 273.500 13.000 273.400 13.000 H 267.600 C 267.500 13.000 267.600 13.100 267.600 13.000 V 10.100 C 267.600 10.045 267.555 10.000 267.500 10.000 H 261.500 C 261.445 10.000 261.400 10.045 261.400 10.100 V 13.000 C 261.400 13.100 261.500 13.000 261.400 13.000 H 255.600 C 255.500 13.000 255.600 13.100 255.600 13.000 V 10.100 C 255.600 10.045 255.555 10.000 255.500 10.000 H 249.500 C 249.445 10.000 249.400 10.045 249.400 10.100 V 13.000 C 249.400 13.100 249.500 13.000 249.400 13.000 H 243.600 C 243.500 13.000 243.600 13.100 243.600 13.000 V 10.100 C 243.600 10.045 243.555 10.000 243.500 10.000 H 237.500 C 237.445 10.000 237.400 10.045 237.400 10.100 V 13.000 C 237.400 13.100 237.500 13.000 237.400 13.000 H 231.600 C 231.500 13.000 231.600 13.100 231.600 13.000 V 10.100 C 231.600 10.045 231.555 10.000 231.500 10.000 H 225.500 C 225.445 10.000 225.400 10.045 225.400 10.100 V 13.000 C 225.400 13.100 225.500 13.000 225.400 13.000 H 219.600 C 219.500 13.000 219.600 13.100 219.600 13.000 V 10.100 C 219.600 10.045 219.555 10.000 219.500 10.000 H 213.500 C 213.445 10.000 213.400 10.045 213.400 10.100 V 13.000 C 213.400 13.100 213.500 13.000 213.400 13.000 H 206.500 C 206.445 13.000 206.400 13.045 206.400 13.100 V 20.000 C 206.400 20.100 206.500 20.000 206.400 20.000 H 203.500 C 203.445 20.000 203.400 20.045 203.400 20.100 V 26.100 C 203.400 26.155 203.445 26.200 203.500 26.200 H 206.400 C 206.500 26.200 206.400 26.100 206.400 26.200 V 32.000 C 206.400 32.100 206.500 32.000 206.400 32.000 H 203.500 C 203.445 32.000 203.400 32.045 203.400 32.100 V 38.100 C 203.400 38.155 203.445 38.200 203.500 38.200 H 206.400 C 206.500 38.200 206.400 38.100 206.400 38.200 V 44.000 C 206.400 44.100 206.500 44.000 206.400 44.000 H 203.500 C 203.445 44.000 203.400 44.045 203.400 44.100 V 50.100 C 203.400 50.155 203.445 50.200 203.500 50.200 H 206.400 C 206.500 50.200 206.400 50.100 206.400 50.200 V 56.000 C 206.400 56.100 206.500 56.000 206.400 56.000 H 203.500 C 203.445 56.000 203.400 56.045 203.400 56.100 V 62.100 C 203.400 62.155 203.445 62.200 203.500 62.200 H 206.400 C 206.500 62.200 206.400 62.100 206.400 62.200 V 68.000 C 206.400 68.100 206.500 68.000 206.400 68.000 H 203.500 C 203.445 68.000 203.400 68.045 203.400 68.100 V 74.100 C 203.400 74.155 203.445 74.200 203.500 74.200 H 206.400 C 206.500 74.200 206.400 74.100 206.400 74.200 V 81.100 C 206.400 81.155 206.445 81.200 206.500 81.200" stroke="rgb(0,0,0)" stroke-width="0.20" />
</g>
</svg>