<?xml version='1.0' encoding='utf-8'?>
<svg height="398.91mm" viewBox="0.0 0.0 244.90 398.91" width="244.90mm" xmlns="http://www.w3.org/2000/svg" xmlns:cc="http://creativecommons.org/ns#" xmlns:dc="http://purl.org/dc/elements/1.1/" xmlns:inkscape="http://www.inkscape.org/namespaces/inkscape" xmlns:rdf="http://www.w3.org/1999/02/22-rdf-syntax-ns#" xmlns:svg="http://www.w3.org/2000/svg" xmlns:xlink="http://www.w3.org/1999/xlink">
<!--
CardHolder - Shelf for holding (multiple) piles of playing cards / notes

Created with Boxes.py (https://festi.info/boxes.py)
Command line (remove spaces between dashes): boxes CardHolder
-->
<title>CardHolder</title>
<metadata>
<rdf:RDF><cc:Work>
<dc:title>Shelf - CardHolder</dc:title>
<dc:source>boxes CardHolder</dc:source>
<dc:description>Shelf for holding (multiple) piles of playing cards / notes

Created with Boxes.py (https://festi.info/boxes.py)
Command line: boxes CardHolder
Command line short: boxes CardHolder
</dc:description>
</cc:Work></rdf:RDF></metadata>
<g id="p-0" style="fill:none;stroke-linecap:round;stroke-linejoin:round;">
  <path d="M 18.800 388.910 H 118.800 V 378.910 H 18.800 V 388.910 Z" stroke="rgb(0,0,0)" stroke-width="0.20" />
  <text dominant-baseline="hanging" font-size="8px" style="font-family: sans-serif ; font-weight: normal; font-style: normal; fill: rgb(255,0,0)" text-anchor="middle" transform="matrix( 1.000 0.000 0.000 1.000 68.800 379.910 )">100.00mm, burn:0.10mm</text>
</g>
<g id="p-1" style="fill:none;stroke-linecap:round;stroke-linejoin:round;">
  <path d="M 110.855 367.165 L 113.731 367.543 C 113.830 367.556 113.744 367.444 113.731 367.543 L 113.365 370.319 C 113.352 370.418 113.464 370.332 113.365 370.319 L 107.615 369.562 C 107.516 369.549 107.602 369.661 107.615 369.562 L 107.980 366.786 C 107.993 366.687 107.881 366.773 107.980 366.786 L 110.855 367.165 Z" stroke="rgb(0,0,255)" stroke-width="0.20" />
  <path d="M 98.958 365.598 L 101.833 365.977 C 101.932 365.990 101.846 365.878 101.833 365.977 L 101.468 368.753 C 101.455 368.852 101.567 368.766 101.468 368.753 L 95.717 367.996 C 95.618 367.983 95.704 368.095 95.717 367.996 L 96.083 365.220 C 96.096 365.121 95.984 365.207 96.083 365.220 L 98.958 365.598 Z" stroke="rgb(0,0,255)" stroke-width="0.20" />
  <path d="M 87.061 364.032 L 89.936 364.410 C 90.035 364.424 89.949 364.311 89.936 364.410 L 89.570 367.186 C 89.557 367.286 89.670 367.200 89.570 367.186 L 83.820 366.429 C 83.721 366.416 83.807 366.529 83.820 366.429 L 84.186 363.653 C 84.199 363.554 84.086 363.640 84.186 363.653 L 87.061 364.032 Z" stroke="rgb(0,0,255)" stroke-width="0.20" />
  <path d="M 75.163 362.466 L 78.039 362.844 C 78.138 362.857 78.052 362.745 78.039 362.844 L 77.673 365.620 C 77.660 365.719 77.772 365.633 77.673 365.620 L 71.923 364.863 C 71.824 364.850 71.910 364.962 71.923 364.863 L 72.288 362.087 C 72.301 361.988 72.189 362.074 72.288 362.087 L 75.163 362.466 Z" stroke="rgb(0,0,255)" stroke-width="0.20" />
  <path d="M 63.266 360.899 L 66.141 361.278 C 66.240 361.291 66.154 361.179 66.141 361.278 L 65.776 364.054 C 65.763 364.153 65.875 364.067 65.776 364.054 L 60.025 363.297 C 59.926 363.284 60.012 363.396 60.025 363.297 L 60.391 360.521 C 60.404 360.422 60.292 360.508 60.391 360.521 L 63.266 360.899 Z" stroke="rgb(0,0,255)" stroke-width="0.20" />
  <path d="M 51.369 359.333 L 54.244 359.712 C 54.343 359.725 54.257 359.612 54.244 359.712 L 53.878 362.488 C 53.865 362.587 53.978 362.501 53.878 362.488 L 48.128 361.731 C 48.029 361.717 48.115 361.830 48.128 361.731 L 48.494 358.954 C 48.507 358.855 48.394 358.941 48.494 358.954 L 51.369 359.333 Z" stroke="rgb(0,0,255)" stroke-width="0.20" />
  <path d="M 39.471 357.767 L 42.347 358.145 C 42.446 358.158 42.360 358.046 42.347 358.145 L 41.981 360.921 C 41.968 361.020 42.080 360.934 41.981 360.921 L 36.231 360.164 C 36.132 360.151 36.218 360.263 36.231 360.164 L 36.596 357.388 C 36.609 357.289 36.497 357.375 36.596 357.388 L 39.471 357.767 Z" stroke="rgb(0,0,255)" stroke-width="0.20" />
  <path d="M 27.574 356.200 L 30.449 356.579 C 30.548 356.592 30.462 356.480 30.449 356.579 L 30.084 359.355 C 30.071 359.454 30.183 359.368 30.084 359.355 L 24.333 358.598 C 24.234 358.585 24.320 358.697 24.333 358.598 L 24.699 355.822 C 24.712 355.723 24.600 355.809 24.699 355.822 L 27.574 356.200 Z" stroke="rgb(0,0,255)" stroke-width="0.20" />
  <path d="M 18.800 377.210 H 30.800 C 31.871 377.210 32.923 376.928 33.850 376.392 C 34.777 375.857 35.547 375.087 36.083 374.160 C 36.601 373.263 37.345 372.518 38.242 372.000 C 39.139 371.482 40.157 371.210 41.192 371.210 H 96.408 C 97.443 371.210 98.461 371.482 99.358 372.000 C 100.255 372.518 100.999 373.263 101.517 374.160 C 102.053 375.087 102.823 375.857 103.750 376.392 C 104.677 376.928 105.729 377.210 106.800 377.210 H 118.800 H 121.800 C 121.855 377.210 121.900 377.165 121.900 377.110 V 373.083 C 121.900 373.028 121.855 372.983 121.800 372.983 H 118.900 C 118.800 372.983 118.900 373.083 118.900 372.983 V 367.183 C 118.900 367.083 118.800 367.183 118.900 367.183 H 121.800 C 121.855 367.183 121.900 367.139 121.900 367.083 V 361.083 C 121.900 361.028 121.855 360.983 121.800 360.983 H 118.900 C 118.800 360.983 118.900 361.083 118.900 360.983 V 355.183 C 118.900 355.083 118.800 355.183 118.900 355.183 H 121.800 C 121.855 355.183 121.900 355.139 121.900 355.083 V 349.083 C 121.900 349.028 121.855 348.983 121.800 348.983 H 118.900 C 118.800 348.983 118.900 349.083 118.900 348.983 V 343.183 C 118.900 343.083 118.800 343.183 118.900 343.183 H 121.800 C 121.855 343.183 121.900 343.139 121.900 343.083 V 337.083 C 121.900 337.028 121.855 336.983 121.800 336.983 H 118.900 C 118.800 336.983 118.900 337.083 118.900 336.983 V 331.183 C 118.900 331.083 118.800 331.183 118.900 331.183 H 121.800 C 121.855 331.183 121.900 331.139 121.900 331.083 V 325.083 C 121.900 325.028 121.855 324.983 121.800 324.983 H 118.900 C 118.800 324.983 118.900 325.083 118.900 324.983 V 319.183 C 118.900 319.083 118.800 319.183 118.900 319.183 H 121.800 C 121.855 319.183 121.900 319.139 121.900 319.083 V 315.057 C 121.900 315.002 121.855 314.957 121.800 314.957 H 118.800 H 106.800 C 105.764 314.957 104.747 314.684 103.850 314.167 C 102.953 313.649 102.208 312.904 101.690 312.007 C 101.155 311.080 100.385 310.310 99.458 309.774 C 98.530 309.239 97.478 308.957 96.408 308.957 H 41.192 C 40.122 308.957 39.070 309.239 38.142 309.774 C 37.215 310.310 36.445 311.080 35.910 312.007 C 35.392 312.904 34.647 313.649 33.750 314.167 C 32.853 314.684 31.836 314.957 30.800 314.957 H 18.800 C 18.745 314.957 18.700 315.002 18.700 315.057 V 377.110 C 18.700 377.165 18.745 377.210 18.800 377.210 Z" stroke="rgb(0,0,0)" stroke-width="0.20" />
</g>
<g id="p-2" style="fill:none;stroke-linecap:round;stroke-linejoin:round;">
  <path d="M 29.745 297.412 L 26.869 297.790 C 26.770 297.804 26.856 297.691 26.869 297.790 L 27.235 300.567 C 27.248 300.666 27.136 300.580 27.235 300.567 L 32.985 299.809 C 33.084 299.796 32.998 299.909 32.985 299.809 L 32.620 297.033 C 32.607 296.934 32.719 297.020 32.620 297.033 L 29.745 297.412 Z" stroke="rgb(0,0,255)" stroke-width="0.20" />
  <path d="M 41.642 295.846 L 38.767 296.224 C 38.668 296.237 38.754 296.125 38.767 296.224 L 39.132 299.000 C 39.145 299.099 39.033 299.013 39.132 299.000 L 44.883 298.243 C 44.982 298.230 44.896 298.342 44.883 298.243 L 44.517 295.467 C 44.504 295.368 44.616 295.454 44.517 295.467 L 41.642 295.846 Z" stroke="rgb(0,0,255)" stroke-width="0.20" />
  <path d="M 53.539 294.279 L 50.664 294.658 C 50.565 294.671 50.651 294.559 50.664 294.658 L 51.030 297.434 C 51.043 297.533 50.930 297.447 51.030 297.434 L 56.780 296.677 C 56.879 296.664 56.793 296.776 56.780 296.677 L 56.414 293.901 C 56.401 293.802 56.514 293.888 56.414 293.901 L 53.539 294.279 Z" stroke="rgb(0,0,255)" stroke-width="0.20" />
  <path d="M 65.437 292.713 L 62.561 293.092 C 62.462 293.105 62.548 292.992 62.561 293.092 L 62.927 295.868 C 62.940 295.967 62.828 295.881 62.927 295.868 L 68.677 295.111 C 68.776 295.097 68.690 295.210 68.677 295.111 L 68.312 292.334 C 68.299 292.235 68.411 292.321 68.312 292.334 L 65.437 292.713 Z" stroke="rgb(0,0,255)" stroke-width="0.20" />
  <path d="M 77.334 291.147 L 74.459 291.525 C 74.360 291.538 74.446 291.426 74.459 291.525 L 74.824 294.301 C 74.837 294.400 74.725 294.314 74.824 294.301 L 80.575 293.544 C 80.674 293.531 80.588 293.643 80.575 293.544 L 80.209 290.768 C 80.196 290.669 80.308 290.755 80.209 290.768 L 77.334 291.147 Z" stroke="rgb(0,0,255)" stroke-width="0.20" />
  <path d="M 89.231 289.580 L 86.356 289.959 C 86.257 289.972 86.343 289.860 86.356 289.959 L 86.722 292.735 C 86.735 292.834 86.622 292.748 86.722 292.735 L 92.472 291.978 C 92.571 291.965 92.485 292.077 92.472 291.978 L 92.106 289.202 C 92.093 289.103 92.206 289.189 92.106 289.202 L 89.231 289.580 Z" stroke="rgb(0,0,255)" stroke-width="0.20" />
  <path d="M 101.129 288.014 L 98.253 288.393 C 98.154 288.406 98.240 288.293 98.253 288.393 L 98.619 291.169 C 98.632 291.268 98.520 291.182 98.619 291.169 L 104.369 290.412 C 104.468 290.399 104.382 290.511 104.369 290.412 L 104.004 287.636 C 103.991 287.536 104.103 287.622 104.004 287.636 L 101.129 288.014 Z" stroke="rgb(0,0,255)" stroke-width="0.20" />
  <path d="M 113.026 286.448 L 110.151 286.826 C 110.052 286.839 110.138 286.727 110.151 286.826 L 110.516 289.602 C 110.529 289.701 110.417 289.615 110.516 289.602 L 116.267 288.845 C 116.366 288.832 116.280 288.944 116.267 288.845 L 115.901 286.069 C 115.888 285.970 116.000 286.056 115.901 286.069 L 113.026 286.448 Z" stroke="rgb(0,0,255)" stroke-width="0.20" />
  <path d="M 121.800 307.457 H 109.800 C 108.729 307.457 107.677 307.175 106.750 306.640 C 105.823 306.104 105.053 305.334 104.517 304.407 C 103.999 303.510 103.255 302.765 102.358 302.247 C 101.461 301.730 100.443 301.457 99.408 301.457 H 44.192 C 43.157 301.457 42.139 301.730 41.242 302.247 C 40.345 302.765 39.601 303.510 39.083 304.407 C 38.547 305.334 37.777 306.104 36.850 306.640 C 35.923 307.175 34.871 307.457 33.800 307.457 H 21.800 H 18.800 C 18.745 307.457 18.700 307.412 18.700 307.357 V 303.331 C 18.700 303.275 18.745 303.231 18.800 303.231 H 21.700 C 21.800 303.231 21.700 303.331 21.700 303.231 V 297.431 C 21.700 297.331 21.800 297.431 21.700 297.431 H 18.800 C 18.745 297.431 18.700 297.386 18.700 297.331 V 291.331 C 18.700 291.275 18.745 291.231 18.800 291.231 H 21.700 C 21.800 291.231 21.700 291.331 21.700 291.231 V 285.431 C 21.700 285.331 21.800 285.431 21.700 285.431 H 18.800 C 18.745 285.431 18.700 285.386 18.700 285.331 V 279.331 C 18.700 279.275 18.745 279.231 18.800 279.231 H 21.700 C 21.800 279.231 21.700 279.331 21.700 279.231 V 273.431 C 21.700 273.331 21.800 273.431 21.700 273.431 H 18.800 C 18.745 273.431 18.700 273.386 18.700 273.331 V 267.331 C 18.700 267.275 18.745 267.231 18.800 267.231 H 21.700 C 21.800 267.231 21.700 267.331 21.700 267.231 V 261.431 C 21.700 261.331 21.800 261.431 21.700 261.431 H 18.800 C 18.745 261.431 18.700 261.386 18.700 261.331 V 255.331 C 18.700 255.275 18.745 255.231 18.800 255.231 H 21.700 C 21.800 255.231 21.700 255.331 21.700 255.231 V 249.431 C 21.700 249.331 21.800 249.431 21.700 249.431 H 18.800 C 18.745 249.431 18.700 249.386 18.700 249.331 V 245.304 C 18.700 245.249 18.745 245.204 18.800 245.204 H 21.800 H 33.800 C 34.836 245.204 35.853 244.932 36.750 244.414 C 37.647 243.896 38.392 243.151 38.910 242.254 C 39.445 241.327 40.215 240.557 41.142 240.022 C 42.070 239.486 43.122 239.204 44.192 239.204 H 99.408 C 100.478 239.204 101.530 239.486 102.458 240.022 C 103.385 240.557 104.155 241.327 104.690 242.254 C 105.208 243.151 105.953 243.896 106.850 244.414 C 107.747 244.932 108.764 245.204 109.800 245.204 H 121.800 C 121.855 245.204 121.900 245.249 121.900 245.304 V 307.357 C 121.900 307.412 121.855 307.457 121.800 307.457 Z" stroke="rgb(0,0,0)" stroke-width="0.20" />
</g>
<g id="p-3" style="fill:none;stroke-linecap:round;stroke-linejoin:round;">
  <path d="M 92.700 229.604 V 232.504 C 92.700 232.604 92.800 232.504 92.700 232.504 H 89.900 C 89.800 232.504 89.900 232.604 89.900 232.504 V 226.704 C 89.900 226.604 89.800 226.704 89.900 226.704 H 92.700 C 92.800 226.704 92.700 226.604 92.700 226.704 V 229.604 Z" stroke="rgb(0,0,255)" stroke-width="0.20" />
  <path d="M 92.700 217.604 V 220.504 C 92.700 220.604 92.800 220.504 92.700 220.504 H 89.900 C 89.800 220.504 89.900 220.604 89.900 220.504 V 214.704 C 89.900 214.604 89.800 214.704 89.900 214.704 H 92.700 C 92.800 214.704 92.700 214.604 92.700 214.704 V 217.604 Z" stroke="rgb(0,0,255)" stroke-width="0.20" />
  <path d="M 92.700 205.604 V 208.504 C 92.700 208.604 92.800 208.504 92.700 208.504 H 89.900 C 89.800 208.504 89.900 208.604 89.900 208.504 V 202.704 C 89.900 202.604 89.800 202.704 89.900 202.704 H 92.700 C 92.800 202.704 92.700 202.604 92.700 202.704 V 205.604 Z" stroke="rgb(0,0,255)" stroke-width="0.20" />
  <path d="M 92.700 193.604 V 196.504 C 92.700 196.604 92.800 196.504 92.700 196.504 H 89.900 C 89.800 196.504 89.900 196.604 89.900 196.504 V 190.704 C 89.900 190.604 89.800 190.704 89.900 190.704 H 92.700 C 92.800 190.704 92.700 190.604 92.700 190.704 V 193.604 Z" stroke="rgb(0,0,255)" stroke-width="0.20" />
  <path d="M 92.700 181.604 V 184.504 C 92.700 184.604 92.800 184.504 92.700 184.504 H 89.900 C 89.800 184.504 89.900 184.604 89.900 184.504 V 178.704 C 89.900 178.604 89.800 178.704 89.900 178.704 H 92.700 C 92.800 178.704 92.700 178.604 92.700 178.704 V 181.604 Z" stroke="rgb(0,0,255)" stroke-width="0.20" />
  <path d="M 92.700 169.604 V 172.504 C 92.700 172.604 92.800 172.504 92.700 172.504 H 89.900 C 89.800 172.504 89.900 172.604 89.900 172.504 V 166.704 C 89.900 166.604 89.800 166.704 89.900 166.704 H 92.700 C 92.800 166.704 92.700 166.604 92.700 166.704 V 169.604 Z" stroke="rgb(0,0,255)" stroke-width="0.20" />
  <path d="M 92.700 157.604 V 160.504 C 92.700 160.604 92.800 160.504 92.700 160.504 H 89.900 C 89.800 160.504 89.900 160.604 89.900 160.504 V 154.704 C 89.900 154.604 89.800 154.704 89.900 154.704 H 92.700 C 92.800 154.704 92.700 154.604 92.700 154.704 V 157.604 Z" stroke="rgb(0,0,255)" stroke-width="0.20" />
  <path d="M 92.700 145.604 V 148.504 C 92.700 148.604 92.800 148.504 92.700 148.504 H 89.900 C 89.800 148.504 89.900 148.604 89.900 148.504 V 142.704 C 89.900 142.604 89.800 142.704 89.900 142.704 H 92.700 C 92.800 142.704 92.700 142.604 92.700 142.704 V 145.604 Z" stroke="rgb(0,0,255)" stroke-width="0.20" />
  <path d="M 163.700 229.604 V 232.504 C 163.700 232.604 163.800 232.504 163.700 232.504 H 160.900 C 160.800 232.504 160.900 232.604 160.900 232.504 V 226.704 C 160.900 226.604 160.800 226.704 160.900 226.704 H 163.700 C 163.800 226.704 163.700 226.604 163.700 226.704 V 229.604 Z" stroke="rgb(0,0,255)" stroke-width="0.20" />
  <path d="M 163.700 217.604 V 220.504 C 163.700 220.604 163.800 220.504 163.700 220.504 H 160.900 C 160.800 220.504 160.900 220.604 160.900 220.504 V 214.704 C 160.900 214.604 160.800 214.704 160.900 214.704 H 163.700 C 163.800 214.704 163.700 214.604 163.700 214.704 V 217.604 Z" stroke="rgb(0,0,255)" stroke-width="0.20" />
  <path d="M 163.700 205.604 V 208.504 C 163.700 208.604 163.800 208.504 163.700 208.504 H 160.900 C 160.800 208.504 160.900 208.604 160.900 208.504 V 202.704 C 160.900 202.604 160.800 202.704 160.900 202.704 H 163.700 C 163.800 202.704 163.700 202.604 163.700 202.704 V 205.604 Z" stroke="rgb(0,0,255)" stroke-width="0.20" />
  <path d="M 163.700 193.604 V 196.504 C 163.700 196.604 163.800 196.504 163.700 196.504 H 160.900 C 160.800 196.504 160.900 196.604 160.900 196.504 V 190.704 C 160.900 190.604 160.800 190.704 160.900 190.704 H 163.700 C 163.800 190.704 163.700 190.604 163.700 190.704 V 193.604 Z" stroke="rgb(0,0,255)" stroke-width="0.20" />
  <path d="M 163.700 181.604 V 184.504 C 163.700 184.604 163.800 184.504 163.700 184.504 H 160.900 C 160.800 184.504 160.900 184.604 160.900 184.504 V 178.704 C 160.900 178.604 160.800 178.704 160.900 178.704 H 163.700 C 163.800 178.704 163.700 178.604 163.700 178.704 V 181.604 Z" stroke="rgb(0,0,255)" stroke-width="0.20" />
  <path d="M 163.700 169.604 V 172.504 C 163.700 172.604 163.800 172.504 163.700 172.504 H 160.900 C 160.800 172.504 160.900 172.604 160.900 172.504 V 166.704 C 160.900 166.604 160.800 166.704 160.900 166.704 H 163.700 C 163.800 166.704 163.700 166.604 163.700 166.704 V 169.604 Z" stroke="rgb(0,0,255)" stroke-width="0.20" />
  <path d="M 163.700 157.604 V 160.504 C 163.700 160.604 163.800 160.504 163.700 160.504 H 160.900 C 160.800 160.504 160.900 160.604 160.900 160.504 V 154.704 C 160.900 154.604 160.800 154.704 160.900 154.704 H 163.700 C 163.800 154.704 163.700 154.604 163.700 154.704 V 157.604 Z" stroke="rgb(0,0,255)" stroke-width="0.20" />
  <path d="M 163.700 145.604 V 148.504 C 163.700 148.604 163.800 148.504 163.700 148.504 H 160.900 C 160.800 148.504 160.900 148.604 160.900 148.504 V 142.704 C 160.900 142.604 160.800 142.704 160.900 142.704 H 163.700 C 163.800 142.704 163.700 142.604 163.700 142.704 V 145.604 Z" stroke="rgb(0,0,255)" stroke-width="0.20" />
  <path d="M 21.800 237.704 H 49.000 C 49.036 237.704 49.069 237.685 49.087 237.654 C 49.767 236.476 50.746 235.497 51.924 234.817 C 53.102 234.137 54.439 233.778 55.800 233.778 C 57.161 233.778 58.498 234.137 59.676 234.817 C 60.854 235.497 61.833 236.476 62.513 237.654 C 62.531 237.685 62.564 237.704 62.600 237.704 H 89.800 H 92.800 H 120.000 C 120.036 237.704 120.069 237.685 120.087 237.654 C 120.767 236.476 121.746 235.497 122.924 234.817 C 124.102 234.137 125.439 233.778 126.800 233.778 C 128.161 233.778 129.498 234.137 130.676 234.817 C 131.854 235.497 132.833 236.476 133.513 237.654 C 133.531 237.685 133.564 237.704 133.600 237.704 H 160.800 H 163.800 H 191.000 C 191.036 237.704 191.069 237.685 191.087 237.654 C 191.767 236.476 192.746 235.497 193.924 234.817 C 195.102 234.137 196.439 233.778 197.800 233.778 C 199.161 233.778 200.498 234.137 201.676 234.817 C 202.854 235.497 203.833 236.476 204.513 237.654 C 204.531 237.685 204.564 237.704 204.600 237.704 H 231.800 C 231.855 237.704 231.900 237.660 231.900 237.604 V 232.704 C 231.900 232.604 231.800 232.704 231.900 232.704 H 234.800 C 234.855 232.704 234.900 232.660 234.900 232.604 V 226.604 C 234.900 226.549 234.855 226.504 234.800 226.504 H 231.900 C 231.800 226.504 231.900 226.604 231.900 226.504 V 220.704 C 231.900 220.604 231.800 220.704 231.900 220.704 H 234.800 C 234.855 220.704 234.900 220.660 234.900 220.604 V 214.604 C 234.900 214.549 234.855 214.504 234.800 214.504 H 231.900 C 231.800 214.504 231.900 214.604 231.900 214.504 V 208.704 C 231.900 208.604 231.800 208.704 231.900 208.704 H 234.800 C 234.855 208.704 234.900 208.660 234.900 208.604 V 202.604 C 234.900 202.549 234.855 202.504 234.800 202.504 H 231.900 C 231.800 202.504 231.900 202.604 231.900 202.504 V 196.704 C 231.900 196.604 231.800 196.704 231.900 196.704 H 234.800 C 234.855 196.704 234.900 196.660 234.900 196.604 V 190.604 C 234.900 190.549 234.855 190.504 234.800 190.504 H 231.900 C 231.800 190.504 231.900 190.604 231.900 190.504 V 184.704 C 231.900 184.604 231.800 184.704 231.900 184.704 H 234.800 C 234.855 184.704 234.900 184.660 234.900 184.604 V 178.604 C 234.900 178.549 234.855 178.504 234.800 178.504 H 231.900 C 231.800 178.504 231.900 178.604 231.900 178.504 V 172.704 C 231.900 172.604 231.800 172.704 231.900 172.704 H 234.800 C 234.855 172.704 234.900 172.660 234.900 172.604 V 166.604 C 234.900 166.549 234.855 166.504 234.800 166.504 H 231.900 C 231.800 166.504 231.900 166.604 231.900 166.504 V 160.704 C 231.900 160.604 231.800 160.704 231.900 160.704 H 234.800 C 234.855 160.704 234.900 160.660 234.900 160.604 V 154.604 C 234.900 154.549 234.855 154.504 234.800 154.504 H 231.900 C 231.800 154.504 231.900 154.604 231.900 154.504 V 148.704 C 231.900 148.604 231.800 148.704 231.900 148.704 H 234.800 C 234.855 148.704 234.900 148.660 234.900 148.604 V 142.604 C 234.900 142.549 234.855 142.504 234.800 142.504 H 231.900 C 231.800 142.504 231.900 142.604 231.900 142.504 V 137.604 C 231.900 137.549 231.855 137.504 231.800 137.504 H 21.800 C 21.745 137.504 21.700 137.549 21.700 137.604 V 142.504 C 21.700 142.604 21.800 142.504 21.700 142.504 H 18.800 C 18.745 142.504 18.700 142.549 18.700 142.604 V 148.604 C 18.700 148.660 18.745 148.704 18.800 148.704 H 21.700 C 21.800 148.704 21.700 148.604 21.700 148.704 V 154.504 C 21.700 154.604 21.800 154.504 21.700 154.504 H 18.800 C 18.745 154.504 18.700 154.549 18.700 154.604 V 160.604 C 18.700 160.660 18.745 160.704 18.800 160.704 H 21.700 C 21.800 160.704 21.700 160.604 21.700 160.704 V 166.504 C 21.700 166.604 21.800 166.504 21.700 166.504 H 18.800 C 18.745 166.504 18.700 166.549 18.700 166.604 V 172.604 C 18.700 172.660 18.745 172.704 18.800 172.704 H 21.700 C 21.800 172.704 21.700 172.604 21.700 172.704 V 178.504 C 21.700 178.604 21.800 178.504 21.700 178.504 H 18.800 C 18.745 178.504 18.700 178.549 18.700 178.604 V 184.604 C 18.700 184.660 18.745 184.704 18.800 184.704 H 21.700 C 21.800 184.704 21.700 184.604 21.700 184.704 V 190.504 C 21.700 190.604 21.800 190.504 21.700 190.504 H 18.800 C 18.745 190.504 18.700 190.549 18.700 190.604 V 196.604 C 18.700 196.660 18.745 196.704 18.800 196.704 H 21.700 C 21.800 196.704 21.700 196.604 21.700 196.704 V 202.504 C 21.700 202.604 21.800 202.504 21.700 202.504 H 18.800 C 18.745 202.504 18.700 202.549 18.700 202.604 V 208.604 C 18.700 208.660 18.745 208.704 18.800 208.704 H 21.700 C 21.800 208.704 21.700 208.604 21.700 208.704 V 214.504 C 21.700 214.604 21.800 214.504 21.700 214.504 H 18.800 C 18.745 214.504 18.700 214.549 18.700 214.604 V 220.604 C 18.700 220.660 18.745 220.704 18.800 220.704 H 21.700 C 21.800 220.704 21.700 220.604 21.700 220.704 V 226.504 C 21.700 226.604 21.800 226.504 21.700 226.504 H 18.800 C 18.745 226.504 18.700 226.549 18.700 226.604 V 232.604 C 18.700 232.660 18.745 232.704 18.800 232.704 H 21.700 C 21.800 232.704 21.700 232.604 21.700 232.704 V 237.604 C 21.700 237.660 21.745 237.704 21.800 237.704 Z" stroke="rgb(0,0,0)" stroke-width="0.20" />
</g>
<g id="p-4" style="fill:none;stroke-linecap:round;stroke-linejoin:round;">
  <path d="M 92.700 118.378 V 121.278 C 92.700 121.378 92.800 121.278 92.700 121.278 H 89.900 C 89.800 121.278 89.900 121.378 89.900 121.278 V 115.478 C 89.900 115.378 89.800 115.478 89.900 115.478 H 92.700 C 92.800 115.478 92.700 115.378 92.700 115.478 V 118.378 Z" stroke="rgb(0,0,255)" stroke-width="0.20" />
  <path d="M 92.700 106.378 V 109.278 C 92.700 109.378 92.800 109.278 92.700 109.278 H 89.900 C 89.800 109.278 89.900 109.378 89.900 109.278 V 103.478 C 89.900 103.378 89.800 103.478 89.900 103.478 H 92.700 C 92.800 103.478 92.700 103.378 92.700 103.478 V 106.378 Z" stroke="rgb(0,0,255)" stroke-width="0.20" />
  <path d="M 92.700 94.378 V 97.278 C 92.700 97.378 92.800 97.278 92.700 97.278 H 89.900 C 89.800 97.278 89.900 97.378 89.900 97.278 V 91.478 C 89.900 91.378 89.800 91.478 89.900 91.478 H 92.700 C 92.800 91.478 92.700 91.378 92.700 91.478 V 94.378 Z" stroke="rgb(0,0,255)" stroke-width="0.20" />
  <path d="M 92.700 82.378 V 85.278 C 92.700 85.378 92.800 85.278 92.700 85.278 H 89.900 C 89.800 85.278 89.900 85.378 89.900 85.278 V 79.478 C 89.900 79.378 89.800 79.478 89.900 79.478 H 92.700 C 92.800 79.478 92.700 79.378 92.700 79.478 V 82.378 Z" stroke="rgb(0,0,255)" stroke-width="0.20" />
  <path d="M 163.700 118.378 V 121.278 C 163.700 121.378 163.800 121.278 163.700 121.278 H 160.900 C 160.800 121.278 160.900 121.378 160.900 121.278 V 115.478 C 160.900 115.378 160.800 115.478 160.900 115.478 H 163.700 C 163.800 115.478 163.700 115.378 163.700 115.478 V 118.378 Z" stroke="rgb(0,0,255)" stroke-width="0.20" />
  <path d="M 163.700 106.378 V 109.278 C 163.700 109.378 163.800 109.278 163.700 109.278 H 160.900 C 160.800 109.278 160.900 109.378 160.900 109.278 V 103.478 C 160.900 103.378 160.800 103.478 160.900 103.478 H 163.700 C 163.800 103.478 163.700 103.378 163.700 103.478 V 106.378 Z" stroke="rgb(0,0,255)" stroke-width="0.20" />
  <path d="M 163.700 94.378 V 97.278 C 163.700 97.378 163.800 97.278 163.700 97.278 H 160.900 C 160.800 97.278 160.900 97.378 160.900 97.278 V 91.478 C 160.900 91.378 160.800 91.478 160.900 91.478 H 163.700 C 163.800 91.478 163.700 91.378 163.700 91.478 V 94.378 Z" stroke="rgb(0,0,255)" stroke-width="0.20" />
  <path d="M 163.700 82.378 V 85.278 C 163.700 85.378 163.800 85.278 163.700 85.278 H 160.900 C 160.800 85.278 160.900 85.378 160.900 85.278 V 79.478 C 160.900 79.378 160.800 79.478 160.900 79.478 H 163.700 C 163.800 79.478 163.700 79.378 163.700 79.478 V 82.378 Z" stroke="rgb(0,0,255)" stroke-width="0.20" />
  <path d="M 21.800 136.004 H 33.800 C 34.871 136.004 35.923 135.723 36.850 135.187 C 37.777 134.652 38.547 133.882 39.083 132.954 C 39.601 132.057 40.345 131.313 41.242 130.795 C 42.139 130.277 43.157 130.004 44.192 130.004 H 209.408 C 210.443 130.004 211.461 130.277 212.358 130.795 C 213.255 131.313 213.999 132.057 214.517 132.954 C 215.053 133.882 215.823 134.652 216.750 135.187 C 217.677 135.723 218.729 136.004 219.800 136.004 H 231.800 C 231.855 136.004 231.900 135.960 231.900 135.904 V 131.978 C 231.900 131.878 231.800 131.978 231.900 131.978 H 234.800 C 234.855 131.978 234.900 131.933 234.900 131.878 V 125.878 C 234.900 125.823 234.855 125.778 234.800 125.778 H 231.900 C 231.800 125.778 231.900 125.878 231.900 125.778 V 119.978 C 231.900 119.878 231.800 119.978 231.900 119.978 H 234.800 C 234.855 119.978 234.900 119.933 234.900 119.878 V 113.878 C 234.900 113.823 234.855 113.778 234.800 113.778 H 231.900 C 231.800 113.778 231.900 113.878 231.900 113.778 V 107.978 C 231.900 107.878 231.800 107.978 231.900 107.978 H 234.800 C 234.855 107.978 234.900 107.933 234.900 107.878 V 101.878 C 234.900 101.823 234.855 101.778 234.800 101.778 H 231.900 C 231.800 101.778 231.900 101.878 231.900 101.778 V 95.978 C 231.900 95.878 231.800 95.978 231.900 95.978 H 234.800 C 234.855 95.978 234.900 95.933 234.900 95.878 V 89.878 C 234.900 89.823 234.855 89.778 234.800 89.778 H 231.900 C 231.800 89.778 231.900 89.878 231.900 89.778 V 83.978 C 231.900 83.878 231.800 83.978 231.900 83.978 H 234.800 C 234.855 83.978 234.900 83.933 234.900 83.878 V 77.878 C 234.900 77.823 234.855 77.778 234.800 77.778 H 231.900 C 231.800 77.778 231.900 77.878 231.900 77.778 V 73.852 C 231.900 73.797 231.855 73.752 231.800 73.752 H 219.800 C 218.764 73.752 217.747 73.479 216.850 72.961 C 215.953 72.443 215.208 71.699 214.690 70.802 C 214.155 69.874 213.385 69.104 212.458 68.569 C 211.530 68.034 210.478 67.752 209.408 67.752 H 44.192 C 43.122 67.752 42.070 68.034 41.142 68.569 C 40.215 69.104 39.445 69.874 38.910 70.802 C 38.392 71.699 37.647 72.443 36.750 72.961 C 35.853 73.479 34.836 73.752 33.800 73.752 H 21.800 C 21.745 73.752 21.700 73.797 21.700 73.852 V 77.778 C 21.700 77.878 21.800 77.778 21.700 77.778 H 18.800 C 18.745 77.778 18.700 77.823 18.700 77.878 V 83.878 C 18.700 83.933 18.745 83.978 18.800 83.978 H 21.700 C 21.800 83.978 21.700 83.878 21.700 83.978 V 89.778 C 21.700 89.878 21.800 89.778 21.700 89.778 H 18.800 C 18.745 89.778 18.700 89.823 18.700 89.878 V 95.878 C 18.700 95.933 18.745 95.978 18.800 95.978 H 21.700 C 21.800 95.978 21.700 95.878 21.700 95.978 V 101.778 C 21.700 101.878 21.800 101.778 21.700 101.778 H 18.800 C 18.745 101.778 18.700 101.823 18.700 101.878 V 107.878 C 18.700 107.933 18.745 107.978 18.800 107.978 H 21.700 C 21.800 107.978 21.700 107.878 21.700 107.978 V 113.778 C 21.700 113.878 21.800 113.778 21.700 113.778 H 18.800 C 18.745 113.778 18.700 113.823 18.700 113.878 V 119.878 C 18.700 119.933 18.745 119.978 18.800 119.978 H 21.700 C 21.800 119.978 21.700 119.878 21.700 119.978 V 125.778 C 21.700 125.878 21.800 125.778 21.700 125.778 H 18.800 C 18.745 125.778 18.700 125.823 18.700 125.878 V 131.878 C 18.700 131.933 18.745 131.978 18.800 131.978 H 21.700 C 21.800 131.978 21.700 131.878 21.700 131.978 V 135.904 C 21.700 135.960 21.745 136.004 21.800 136.004 Z" stroke="rgb(0,0,0)" stroke-width="0.20" />
</g>
<g id="p-5" style="fill:none;stroke-linecap:round;stroke-linejoin:round;">
  <path d="M 21.800 63.252 L 26.658 62.612 C 26.757 62.599 26.645 62.513 26.658 62.612 L 27.037 65.487 C 27.044 65.542 27.094 65.581 27.149 65.573 L 33.097 64.790 C 33.152 64.783 33.191 64.733 33.184 64.678 L 32.805 61.803 C 32.792 61.704 32.706 61.816 32.805 61.803 L 38.555 61.046 C 38.655 61.033 38.542 60.947 38.555 61.046 L 38.934 63.921 C 38.941 63.976 38.991 64.014 39.046 64.007 L 44.995 63.224 C 45.050 63.217 45.088 63.167 45.081 63.112 L 44.702 60.237 C 44.689 60.137 44.603 60.250 44.702 60.237 L 50.453 59.480 C 50.552 59.467 50.440 59.380 50.453 59.480 L 50.831 62.355 C 50.838 62.410 50.889 62.448 50.943 62.441 L 56.892 61.658 C 56.947 61.650 56.985 61.600 56.978 61.545 L 56.600 58.670 C 56.587 58.571 56.501 58.683 56.600 58.670 L 62.350 57.913 C 62.449 57.900 62.337 57.814 62.350 57.913 L 62.729 60.788 C 62.736 60.843 62.786 60.882 62.841 60.875 L 68.789 60.091 C 68.844 60.084 68.883 60.034 68.876 59.979 L 68.497 57.104 C 68.484 57.005 68.398 57.117 68.497 57.104 L 74.247 56.347 C 74.347 56.334 74.234 56.248 74.247 56.347 L 74.626 59.222 C 74.633 59.277 74.683 59.315 74.738 59.308 L 80.687 58.525 C 80.742 58.518 80.780 58.468 80.773 58.413 L 80.394 55.538 C 80.381 55.439 80.295 55.551 80.394 55.538 L 86.145 54.781 C 86.244 54.768 86.132 54.681 86.145 54.781 L 86.523 57.656 C 86.531 57.711 86.581 57.749 86.635 57.742 L 92.584 56.959 C 92.639 56.952 92.677 56.901 92.670 56.847 L 92.292 53.971 C 92.279 53.872 92.193 53.984 92.292 53.971 L 98.042 53.214 C 98.141 53.201 98.029 53.115 98.042 53.214 L 98.421 56.089 C 98.428 56.144 98.478 56.183 98.533 56.176 L 104.482 55.392 C 104.536 55.385 104.575 55.335 104.568 55.280 L 104.189 52.405 C 104.176 52.306 104.090 52.418 104.189 52.405 L 109.939 51.648 C 110.039 51.635 109.926 51.549 109.939 51.648 L 110.318 54.523 C 110.325 54.578 110.375 54.616 110.430 54.609 L 116.379 53.826 C 116.434 53.819 116.472 53.769 116.465 53.714 L 116.086 50.839 C 116.073 50.740 115.987 50.852 116.086 50.839 L 120.944 50.199 C 120.994 50.193 121.031 50.150 121.031 50.100 V 10.100 C 121.031 10.045 120.987 10.000 120.931 10.000 H 21.787 C 21.732 10.000 21.687 10.045 21.687 10.100 V 15.526 C 21.687 15.626 21.787 15.526 21.687 15.526 H 18.787 C 18.732 15.526 18.687 15.571 18.687 15.626 V 21.626 C 18.687 21.682 18.732 21.726 18.787 21.726 H 21.687 C 21.787 21.726 21.687 21.626 21.687 21.726 V 27.526 C 21.687 27.626 21.787 27.526 21.687 27.526 H 18.787 C 18.732 27.526 18.687 27.571 18.687 27.626 V 33.626 C 18.687 33.682 18.732 33.726 18.787 33.726 H 21.687 C 21.787 33.726 21.687 33.626 21.687 33.726 V 39.526 C 21.687 39.626 21.787 39.526 21.687 39.526 H 18.787 C 18.732 39.526 18.687 39.571 18.687 39.626 V 45.626 C 18.687 45.682 18.732 45.726 18.787 45.726 H 21.687 C 21.787 45.726 21.687 45.626 21.687 45.726 V 51.526 C 21.687 51.626 21.787 51.526 21.687 51.526 H 18.787 C 18.732 51.526 18.687 51.571 18.687 51.626 V 57.626 C 18.687 57.682 18.732 57.726 18.787 57.726 H 21.687 C 21.787 57.726 21.687 57.626 21.687 57.726 V 63.153" stroke="rgb(0,0,0)" stroke-width="0.20" />
</g>
<g id="p-6" style="fill:none;stroke-linecap:round;stroke-linejoin:round;">
  <path d="M 126.500 63.252 L 131.358 62.612 C 131.457 62.599 131.345 62.513 131.358 62.612 L 131.737 65.487 C 131.744 65.542 131.794 65.581 131.849 65.573 L 137.797 64.790 C 137.852 64.783 137.891 64.733 137.884 64.678 L 137.505 61.803 C 137.492 61.704 137.406 61.816 137.505 61.803 L 143.255 61.046 C 143.355 61.033 143.242 60.947 143.255 61.046 L 143.634 63.921 C 143.641 63.976 143.691 64.014 143.746 64.007 L 149.695 63.224 C 149.750 63.217 149.788 63.167 149.781 63.112 L 149.402 60.237 C 149.389 60.137 149.303 60.250 149.402 60.237 L 155.153 59.480 C 155.252 59.467 155.140 59.380 155.153 59.480 L 155.531 62.355 C 155.538 62.410 155.589 62.448 155.643 62.441 L 161.592 61.658 C 161.647 61.650 161.685 61.600 161.678 61.545 L 161.300 58.670 C 161.287 58.571 161.201 58.683 161.300 58.670 L 167.050 57.913 C 167.149 57.900 167.037 57.814 167.050 57.913 L 167.429 60.788 C 167.436 60.843 167.486 60.882 167.541 60.875 L 173.489 60.091 C 173.544 60.084 173.583 60.034 173.576 59.979 L 173.197 57.104 C 173.184 57.005 173.098 57.117 173.197 57.104 L 178.947 56.347 C 179.047 56.334 178.934 56.248 178.947 56.347 L 179.326 59.222 C 179.333 59.277 179.383 59.315 179.438 59.308 L 185.387 58.525 C 185.442 58.518 185.480 58.468 185.473 58.413 L 185.094 55.538 C 185.081 55.439 184.995 55.551 185.094 55.538 L 190.845 54.781 C 190.944 54.768 190.832 54.681 190.845 54.781 L 191.223 57.656 C 191.231 57.711 191.281 57.749 191.335 57.742 L 197.284 56.959 C 197.339 56.952 197.377 56.901 197.370 56.847 L 196.992 53.971 C 196.979 53.872 196.893 53.984 196.992 53.971 L 202.742 53.214 C 202.841 53.201 202.729 53.115 202.742 53.214 L 203.121 56.089 C 203.128 56.144 203.178 56.183 203.233 56.176 L 209.182 55.392 C 209.236 55.385 209.275 55.335 209.268 55.280 L 208.889 52.405 C 208.876 52.306 208.790 52.418 208.889 52.405 L 214.639 51.648 C 214.739 51.635 214.626 51.549 214.639 51.648 L 215.018 54.523 C 215.025 54.578 215.075 54.616 215.130 54.609 L 221.079 53.826 C 221.134 53.819 221.172 53.769 221.165 53.714 L 220.786 50.839 C 220.773 50.740 220.687 50.852 220.786 50.839 L 225.644 50.199 C 225.694 50.193 225.731 50.150 225.731 50.100 V 10.100 C 225.731 10.045 225.687 10.000 225.631 10.000 H 126.487 C 126.432 10.000 126.387 10.045 126.387 10.100 V 15.526 C 126.387 15.626 126.487 15.526 126.387 15.526 H 123.487 C 123.432 15.526 123.387 15.571 123.387 15.626 V 21.626 C 123.387 21.682 123.432 21.726 123.487 21.726 H 126.387 C 126.487 21.726 126.387 21.626 126.387 21.726 V 27.526 C 126.387 27.626 126.487 27.526 126.387 27.526 H 123.487 C 123.432 27.526 123.387 27.571 123.387 27.626 V 33.626 C 123.387 33.682 123.432 33.726 123.487 33.726 H 126.387 C 126.487 33.726 126.387 33.626 126.387 33.726 V 39.526 C 126.387 39.626 126.487 39.526 126.387 39.526 H 123.487 C 123.432 39.526 123.387 39.571 123.387 39.626 V 45.626 C 123.387 45.682 123.432 45.726 123.487 45.726 H 126.387 C 126.487 45.726 126.387 45.626 126.387 45.726 V 51.526 C 126.387 51.626 126.487 51.526 126.387 51.526 H 123.487 C 123.432 51.526 123.387 51.571 123.387 51.626 V 57.626 C 123.387 57.682 123.432 57.726 123.487 57.726 H 126.387 C 126.487 57.726 126.387 57.626 126.387 57.726 V 63.153" stroke="rgb(0,0,0)" stroke-width="0.20" />
</g>
</svg>