<?xml version='1.0' encoding='utf-8'?>
<svg height="225.30mm" viewBox="0.0 0.0 122.20 225.30" width="122.20mm" xmlns="http://www.w3.org/2000/svg" xmlns:cc="http://creativecommons.org/ns#" xmlns:dc="http://purl.org/dc/elements/1.1/" xmlns:inkscape="http://www.inkscape.org/namespaces/inkscape" xmlns:rdf="http://www.w3.org/1999/02/22-rdf-syntax-ns#" xmlns:svg="http://www.w3.org/2000/svg" xmlns:xlink="http://www.w3.org/1999/xlink">
<!--
ClosedBox - Fully closed box


This box is more of a building block than a finished item.
Use a vector graphics program (like Inkscape) to add holes or adjust the base
plate.

See BasedBox for variant with a base.


Created with Boxes.py (https://festi.info/boxes.py)
-->
<title>ClosedBox</title>
<metadata>
<rdf:RDF><cc:Work>
<dc:title>Box - ClosedBox</dc:title>
<dc:description>Fully closed box

This box is more of a building block than a finished item.
Use a vector graphics program (like Inkscape) to add holes or adjust the base
plate.

See BasedBox for variant with a base.

Created with Boxes.py (https://festi.info/boxes.py)
</dc:description>
</cc:Work></rdf:RDF></metadata>
<g id="p-0" style="fill:none;stroke-linecap:round;stroke-linejoin:round;">
  <path d="M 10.400 215.300 H 110.400 V 205.300 H 10.400 V 215.300 Z" stroke="rgb(0,0,0)" stroke-width="0.20" />
  <text dominant-baseline="hanging" font-size="8px" style="font-family: sans-serif ; font-weight: normal; font-style: normal; fill: rgb(255,0,0)" text-anchor="middle" transform="matrix( 1.000 0.000 0.000 1.000 60.400 206.300 )">100mm, burn:0.10mm</text>
</g>
<g id="p-1" style="fill:none;stroke-linecap:round;stroke-linejoin:round;">
  <text dominant-baseline="hanging" font-size="4px" style="font-family: sans-serif ; font-weight: normal; font-style: normal; fill: rgb(255,0,0)" text-anchor="middle" transform="matrix( 1.000 0.000 0.000 1.000 35.400 166.600 )">Wall 1</text><path d="M 13.400 203.600 H 20.400 C 20.455 203.600 20.500 203.555 20.500 203.500 V 200.600 C 20.500 200.500 20.400 200.600 20.500 200.600 H 26.300 C 26.400 200.600 26.300 200.500 26.300 200.600 V 203.500 C 26.300 203.555 26.345 203.600 26.400 203.600 H 32.400 C 32.455 203.600 32.500 203.555 32.500 203.500 V 200.600 C 32.500 200.500 32.400 200.600 32.500 200.600 H 38.300 C 38.400 200.600 38.300 200.500 38.300 200.600 V 203.500 C 38.300 203.555 38.345 203.600 38.400 203.600 H 44.400 C 44.455 203.600 44.500 203.555 44.500 203.500 V 200.600 C 44.500 200.500 44.400 200.600 44.500 200.600 H 50.300 C 50.400 200.600 50.300 200.500 50.300 200.600 V 203.500 C 50.300 203.555 50.345 203.600 50.400 203.600 H 57.400 H 60.400 C 60.455 203.600 60.500 203.555 60.500 203.500 V 200.500 V 189.500 C 60.500 189.445 60.455 189.400 60.400 189.400 H 57.500 C 57.400 189.400 57.500 189.500 57.500 189.400 V 183.600 C 57.500 183.500 57.400 183.600 57.500 183.600 H 60.400 C 60.455 183.600 60.500 183.555 60.500 183.500 V 177.500 C 60.500 177.445 60.455 177.400 60.400 177.400 H 57.500 C 57.400 177.400 57.500 177.500 57.500 177.400 V 171.600 C 57.500 171.500 57.400 171.600 57.500 171.600 H 60.400 C 60.455 171.600 60.500 171.555 60.500 171.500 V 165.500 C 60.500 165.445 60.455 165.400 60.400 165.400 H 57.500 C 57.400 165.400 57.500 165.500 57.500 165.400 V 159.600 C 57.500 159.500 57.400 159.600 57.500 159.600 H 60.400 C 60.455 159.600 60.500 159.555 60.500 159.500 V 153.500 C 60.500 153.445 60.455 153.400 60.400 153.400 H 57.500 C 57.400 153.400 57.500 153.500 57.500 153.400 V 147.600 C 57.500 147.500 57.400 147.600 57.500 147.600 H 60.400 C 60.455 147.600 60.500 147.555 60.500 147.500 V 136.500 V 133.500 C 60.500 133.445 60.455 133.400 60.400 133.400 H 57.400 H 50.400 C 50.345 133.400 50.300 133.445 50.300 133.500 V 136.400 C 50.300 136.500 50.400 136.400 50.300 136.400 H 44.500 C 44.400 136.400 44.500 136.500 44.500 136.400 V 133.500 C 44.500 133.445 44.455 133.400 44.400 133.400 H 38.400 C 38.345 133.400 38.300 133.445 38.300 133.500 V 136.400 C 38.300 136.500 38.400 136.400 38.300 136.400 H 32.500 C 32.400 136.400 32.500 136.500 32.500 136.400 V 133.500 C 32.500 133.445 32.455 133.400 32.400 133.400 H 26.400 C 26.345 133.400 26.300 133.445 26.300 133.500 V 136.400 C 26.300 136.500 26.400 136.400 26.300 136.400 H 20.500 C 20.400 136.400 20.500 136.500 20.500 136.400 V 133.500 C 20.500 133.445 20.455 133.400 20.400 133.400 H 13.400 H 10.400 C 10.345 133.400 10.300 133.445 10.300 133.500 V 136.500 V 147.500 C 10.300 147.555 10.345 147.600 10.400 147.600 H 13.300 C 13.400 147.600 13.300 147.500 13.300 147.600 V 153.400 C 13.300 153.500 13.400 153.400 13.300 153.400 H 10.400 C 10.345 153.400 10.300 153.445 10.300 153.500 V 159.500 C 10.300 159.555 10.345 159.600 10.400 159.600 H 13.300 C 13.400 159.600 13.300 159.500 13.300 159.600 V 165.400 C 13.300 165.500 13.400 165.400 13.300 165.400 H 10.400 C 10.345 165.400 10.300 165.445 10.300 165.500 V 171.500 C 10.300 171.555 10.345 171.600 10.400 171.600 H 13.300 C 13.400 171.600 13.300 171.500 13.300 171.600 V 177.400 C 13.300 177.500 13.400 177.400 13.300 177.400 H 10.400 C 10.345 177.400 10.300 177.445 10.300 177.500 V 183.500 C 10.300 183.555 10.345 183.600 10.400 183.600 H 13.300 C 13.400 183.600 13.300 183.500 13.300 183.600 V 189.400 C 13.300 189.500 13.400 189.400 13.300 189.400 H 10.400 C 10.345 189.400 10.300 189.445 10.300 189.500 V 200.500 V 203.500 C 10.300 203.555 10.345 203.600 10.400 203.600 H 13.400" stroke="rgb(0,0,0)" stroke-width="0.20" />
</g>
<g id="p-2" style="fill:none;stroke-linecap:round;stroke-linejoin:round;">
  <text dominant-baseline="hanging" font-size="4px" style="font-family: sans-serif ; font-weight: normal; font-style: normal; fill: rgb(255,0,0)" text-anchor="middle" transform="matrix( 1.000 0.000 0.000 1.000 87.100 166.600 )">Wall 2</text><path d="M 65.100 203.600 H 72.100 C 72.155 203.600 72.200 203.555 72.200 203.500 V 200.600 C 72.200 200.500 72.100 200.600 72.200 200.600 H 78.000 C 78.100 200.600 78.000 200.500 78.000 200.600 V 203.500 C 78.000 203.555 78.045 203.600 78.100 203.600 H 84.100 C 84.155 203.600 84.200 203.555 84.200 203.500 V 200.600 C 84.200 200.500 84.100 200.600 84.200 200.600 H 90.000 C 90.100 200.600 90.000 200.500 90.000 200.600 V 203.500 C 90.000 203.555 90.045 203.600 90.100 203.600 H 96.100 C 96.155 203.600 96.200 203.555 96.200 203.500 V 200.600 C 96.200 200.500 96.100 200.600 96.200 200.600 H 102.000 C 102.100 200.600 102.000 200.500 102.000 200.600 V 203.500 C 102.000 203.555 102.045 203.600 102.100 203.600 H 109.100 C 109.155 203.600 109.200 203.555 109.200 203.500 V 200.500 V 189.600 C 109.200 189.500 109.100 189.600 109.200 189.600 H 112.100 C 112.155 189.600 112.200 189.555 112.200 189.500 V 183.500 C 112.200 183.445 112.155 183.400 112.100 183.400 H 109.200 C 109.100 183.400 109.200 183.500 109.200 183.400 V 177.600 C 109.200 177.500 109.100 177.600 109.200 177.600 H 112.100 C 112.155 177.600 112.200 177.555 112.200 177.500 V 171.500 C 112.200 171.445 112.155 171.400 112.100 171.400 H 109.200 C 109.100 171.400 109.200 171.500 109.200 171.400 V 165.600 C 109.200 165.500 109.100 165.600 109.200 165.600 H 112.100 C 112.155 165.600 112.200 165.555 112.200 165.500 V 159.500 C 112.200 159.445 112.155 159.400 112.100 159.400 H 109.200 C 109.100 159.400 109.200 159.500 109.200 159.400 V 153.600 C 109.200 153.500 109.100 153.600 109.200 153.600 H 112.100 C 112.155 153.600 112.200 153.555 112.200 153.500 V 147.500 C 112.200 147.445 112.155 147.400 112.100 147.400 H 109.200 C 109.100 147.400 109.200 147.500 109.200 147.400 V 136.500 V 133.500 C 109.200 133.445 109.155 133.400 109.100 133.400 H 102.100 C 102.045 133.400 102.000 133.445 102.000 133.500 V 136.400 C 102.000 136.500 102.100 136.400 102.000 136.400 H 96.200 C 96.100 136.400 96.200 136.500 96.200 136.400 V 133.500 C 96.200 133.445 96.155 133.400 96.100 133.400 H 90.100 C 90.045 133.400 90.000 133.445 90.000 133.500 V 136.400 C 90.000 136.500 90.100 136.400 90.000 136.400 H 84.200 C 84.100 136.400 84.200 136.500 84.200 136.400 V 133.500 C 84.200 133.445 84.155 133.400 84.100 133.400 H 78.100 C 78.045 133.400 78.000 133.445 78.000 133.500 V 136.400 C 78.000 136.500 78.100 136.400 78.000 136.400 H 72.200 C 72.100 136.400 72.200 136.500 72.200 136.400 V 133.500 C 72.200 133.445 72.155 133.400 72.100 133.400 H 65.100 C 65.045 133.400 65.000 133.445 65.000 133.500 V 136.500 V 147.400 C 65.000 147.500 65.100 147.400 65.000 147.400 H 62.100 C 62.045 147.400 62.000 147.445 62.000 147.500 V 153.500 C 62.000 153.555 62.045 153.600 62.100 153.600 H 65.000 C 65.100 153.600 65.000 153.500 65.000 153.600 V 159.400 C 65.000 159.500 65.100 159.400 65.000 159.400 H 62.100 C 62.045 159.400 62.000 159.445 62.000 159.500 V 165.500 C 62.000 165.555 62.045 165.600 62.100 165.600 H 65.000 C 65.100 165.600 65.000 165.500 65.000 165.600 V 171.400 C 65.000 171.500 65.100 171.400 65.000 171.400 H 62.100 C 62.045 171.400 62.000 171.445 62.000 171.500 V 177.500 C 62.000 177.555 62.045 177.600 62.100 177.600 H 65.000 C 65.100 177.600 65.000 177.500 65.000 177.600 V 183.400 C 65.000 183.500 65.100 183.400 65.000 183.400 H 62.100 C 62.045 183.400 62.000 183.445 62.000 183.500 V 189.500 C 62.000 189.555 62.045 189.600 62.100 189.600 H 65.000 C 65.100 189.600 65.000 189.500 65.000 189.600 V 200.500 V 203.500 C 65.000 203.555 65.045 203.600 65.100 203.600" stroke="rgb(0,0,0)" stroke-width="0.20" />
</g>
<g id="p-3" style="fill:none;stroke-linecap:round;stroke-linejoin:round;">
  <text dominant-baseline="hanging" font-size="4px" style="font-family: sans-serif ; font-weight: normal; font-style: normal; fill: rgb(255,0,0)" text-anchor="middle" transform="matrix( 1.000 0.000 0.000 1.000 87.100 94.900 )">Wall 4</text><path d="M 65.100 131.900 H 72.100 C 72.155 131.900 72.200 131.855 72.200 131.800 V 128.900 C 72.200 128.800 72.100 128.900 72.200 128.900 H 78.000 C 78.100 128.900 78.000 128.800 78.000 128.900 V 131.800 C 78.000 131.855 78.045 131.900 78.100 131.900 H 84.100 C 84.155 131.900 84.200 131.855 84.200 131.800 V 128.900 C 84.200 128.800 84.100 128.900 84.200 128.900 H 90.000 C 90.100 128.900 90.000 128.800 90.000 128.900 V 131.800 C 90.000 131.855 90.045 131.900 90.100 131.900 H 96.100 C 96.155 131.900 96.200 131.855 96.200 131.800 V 128.900 C 96.200 128.800 96.100 128.900 96.200 128.900 H 102.000 C 102.100 128.900 102.000 128.800 102.000 128.900 V 131.800 C 102.000 131.855 102.045 131.900 102.100 131.900 H 109.100 C 109.155 131.900 109.200 131.855 109.200 131.800 V 128.800 V 117.900 C 109.200 117.800 109.100 117.900 109.200 117.900 H 112.100 C 112.155 117.900 112.200 117.855 112.200 117.800 V 111.800 C 112.200 111.745 112.155 111.700 112.100 111.700 H 109.200 C 109.100 111.700 109.200 111.800 109.200 111.700 V 105.900 C 109.200 105.800 109.100 105.900 109.200 105.900 H 112.100 C 112.155 105.900 112.200 105.855 112.200 105.800 V 99.800 C 112.200 99.745 112.155 99.700 112.100 99.700 H 109.200 C 109.100 99.700 109.200 99.800 109.200 99.700 V 93.900 C 109.200 93.800 109.100 93.900 109.200 93.900 H 112.100 C 112.155 93.900 112.200 93.855 112.200 93.800 V 87.800 C 112.200 87.745 112.155 87.700 112.100 87.700 H 109.200 C 109.100 87.700 109.200 87.800 109.200 87.700 V 81.900 C 109.200 81.800 109.100 81.900 109.200 81.900 H 112.100 C 112.155 81.900 112.200 81.855 112.200 81.800 V 75.800 C 112.200 75.745 112.155 75.700 112.100 75.700 H 109.200 C 109.100 75.700 109.200 75.800 109.200 75.700 V 64.800 V 61.800 C 109.200 61.745 109.155 61.700 109.100 61.700 H 102.100 C 102.045 61.700 102.000 61.745 102.000 61.800 V 64.700 C 102.000 64.800 102.100 64.700 102.000 64.700 H 96.200 C 96.100 64.700 96.200 64.800 96.200 64.700 V 61.800 C 96.200 61.745 96.155 61.700 96.100 61.700 H 90.100 C 90.045 61.700 90.000 61.745 90.000 61.800 V 64.700 C 90.000 64.800 90.100 64.700 90.000 64.700 H 84.200 C 84.100 64.700 84.200 64.800 84.200 64.700 V 61.800 C 84.200 61.745 84.155 61.700 84.100 61.700 H 78.100 C 78.045 61.700 78.000 61.745 78.000 61.800 V 64.700 C 78.000 64.800 78.100 64.700 78.000 64.700 H 72.200 C 72.100 64.700 72.200 64.800 72.200 64.700 V 61.800 C 72.200 61.745 72.155 61.700 72.100 61.700 H 65.100 C 65.045 61.700 65.000 61.745 65.000 61.800 V 64.800 V 75.700 C 65.000 75.800 65.100 75.700 65.000 75.700 H 62.100 C 62.045 75.700 62.000 75.745 62.000 75.800 V 81.800 C 62.000 81.855 62.045 81.900 62.100 81.900 H 65.000 C 65.100 81.900 65.000 81.800 65.000 81.900 V 87.700 C 65.000 87.800 65.100 87.700 65.000 87.700 H 62.100 C 62.045 87.700 62.000 87.745 62.000 87.800 V 93.800 C 62.000 93.855 62.045 93.900 62.100 93.900 H 65.000 C 65.100 93.900 65.000 93.800 65.000 93.900 V 99.700 C 65.000 99.800 65.100 99.700 65.000 99.700 H 62.100 C 62.045 99.700 62.000 99.745 62.000 99.800 V 105.800 C 62.000 105.855 62.045 105.900 62.100 105.900 H 65.000 C 65.100 105.900 65.000 105.800 65.000 105.900 V 111.700 C 65.000 111.800 65.100 111.700 65.000 111.700 H 62.100 C 62.045 111.700 62.000 111.745 62.000 111.800 V 117.800 C 62.000 117.855 62.045 117.900 62.100 117.900 H 65.000 C 65.100 117.900 65.000 117.800 65.000 117.900 V 128.800 V 131.800 C 65.000 131.855 65.045 131.900 65.100 131.900" stroke="rgb(0,0,0)" stroke-width="0.20" />
</g>
<g id="p-4" style="fill:none;stroke-linecap:round;stroke-linejoin:round;">
  <text dominant-baseline="hanging" font-size="4px" style="font-family: sans-serif ; font-weight: normal; font-style: normal; fill: rgb(255,0,0)" text-anchor="middle" transform="matrix( 1.000 0.000 0.000 1.000 35.400 94.900 )">Wall 3</text><path d="M 13.400 131.900 H 20.400 C 20.455 131.900 20.500 131.855 20.500 131.800 V 128.900 C 20.500 128.800 20.400 128.900 20.500 128.900 H 26.300 C 26.400 128.900 26.300 128.800 26.300 128.900 V 131.800 C 26.300 131.855 26.345 131.900 26.400 131.900 H 32.400 C 32.455 131.900 32.500 131.855 32.500 131.800 V 128.900 C 32.500 128.800 32.400 128.900 32.500 128.900 H 38.300 C 38.400 128.900 38.300 128.800 38.300 128.900 V 131.800 C 38.300 131.855 38.345 131.900 38.400 131.900 H 44.400 C 44.455 131.900 44.500 131.855 44.500 131.800 V 128.900 C 44.500 128.800 44.400 128.900 44.500 128.900 H 50.300 C 50.400 128.900 50.300 128.800 50.300 128.900 V 131.800 C 50.300 131.855 50.345 131.900 50.400 131.900 H 57.400 H 60.400 C 60.455 131.900 60.500 131.855 60.500 131.800 V 128.800 V 117.800 C 60.500 117.745 60.455 117.700 60.400 117.700 H 57.500 C 57.400 117.700 57.500 117.800 57.500 117.700 V 111.900 C 57.500 111.800 57.400 111.900 57.500 111.900 H 60.400 C 60.455 111.900 60.500 111.855 60.500 111.800 V 105.800 C 60.500 105.745 60.455 105.700 60.400 105.700 H 57.500 C 57.400 105.700 57.500 105.800 57.500 105.700 V 99.900 C 57.500 99.800 57.400 99.900 57.500 99.900 H 60.400 C 60.455 99.900 60.500 99.855 60.500 99.800 V 93.800 C 60.500 93.745 60.455 93.700 60.400 93.700 H 57.500 C 57.400 93.700 57.500 93.800 57.500 93.700 V 87.900 C 57.500 87.800 57.400 87.900 57.500 87.900 H 60.400 C 60.455 87.900 60.500 87.855 60.500 87.800 V 81.800 C 60.500 81.745 60.455 81.700 60.400 81.700 H 57.500 C 57.400 81.700 57.500 81.800 57.500 81.700 V 75.900 C 57.500 75.800 57.400 75.900 57.500 75.900 H 60.400 C 60.455 75.900 60.500 75.855 60.500 75.800 V 64.800 V 61.800 C 60.500 61.745 60.455 61.700 60.400 61.700 H 57.400 H 50.400 C 50.345 61.700 50.300 61.745 50.300 61.800 V 64.700 C 50.300 64.800 50.400 64.700 50.300 64.700 H 44.500 C 44.400 64.700 44.500 64.800 44.500 64.700 V 61.800 C 44.500 61.745 44.455 61.700 44.400 61.700 H 38.400 C 38.345 61.700 38.300 61.745 38.300 61.800 V 64.700 C 38.300 64.800 38.400 64.700 38.300 64.700 H 32.500 C 32.400 64.700 32.500 64.800 32.500 64.700 V 61.800 C 32.500 61.745 32.455 61.700 32.400 61.700 H 26.400 C 26.345 61.700 26.300 61.745 26.300 61.800 V 64.700 C 26.300 64.800 26.400 64.700 26.300 64.700 H 20.500 C 20.400 64.700 20.500 64.800 20.500 64.700 V 61.800 C 20.500 61.745 20.455 61.700 20.400 61.700 H 13.400 H 10.400 C 10.345 61.700 10.300 61.745 10.300 61.800 V 64.800 V 75.800 C 10.300 75.855 10.345 75.900 10.400 75.900 H 13.300 C 13.400 75.900 13.300 75.800 13.300 75.900 V 81.700 C 13.300 81.800 13.400 81.700 13.300 81.700 H 10.400 C 10.345 81.700 10.300 81.745 10.300 81.800 V 87.800 C 10.300 87.855 10.345 87.900 10.400 87.900 H 13.300 C 13.400 87.900 13.300 87.800 13.300 87.900 V 93.700 C 13.300 93.800 13.400 93.700 13.300 93.700 H 10.400 C 10.345 93.700 10.300 93.745 10.300 93.800 V 99.800 C 10.300 99.855 10.345 99.900 10.400 99.900 H 13.300 C 13.400 99.900 13.300 99.800 13.300 99.900 V 105.700 C 13.300 105.800 13.400 105.700 13.300 105.700 H 10.400 C 10.345 105.700 10.300 105.745 10.300 105.800 V 111.800 C 10.300 111.855 10.345 111.900 10.400 111.900 H 13.300 C 13.400 111.900 13.300 111.800 13.300 111.900 V 117.700 C 13.300 117.800 13.400 117.700 13.300 117.700 H 10.400 C 10.345 117.700 10.300 117.745 10.300 117.800 V 128.800 V 131.800 C 10.300 131.855 10.345 131.900 10.400 131.900 H 13.400" stroke="rgb(0,0,0)" stroke-width="0.20" />
</g>
<g id="p-5" style="fill:none;stroke-linecap:round;stroke-linejoin:round;">
  <text dominant-baseline="hanging" font-size="4px" style="font-family: sans-serif ; font-weight: normal; font-style: normal; fill: rgb(255,0,0)" text-anchor="middle" transform="matrix( 1.000 0.000 0.000 1.000 35.400 33.200 )">Top</text><path d="M 13.400 57.200 H 20.300 C 20.400 57.200 20.300 57.100 20.300 57.200 V 60.100 C 20.300 60.155 20.345 60.200 20.400 60.200 H 26.400 C 26.455 60.200 26.500 60.155 26.500 60.100 V 57.200 C 26.500 57.100 26.400 57.200 26.500 57.200 H 32.300 C 32.400 57.200 32.300 57.100 32.300 57.200 V 60.100 C 32.300 60.155 32.345 60.200 32.400 60.200 H 38.400 C 38.455 60.200 38.500 60.155 38.500 60.100 V 57.200 C 38.500 57.100 38.400 57.200 38.500 57.200 H 44.300 C 44.400 57.200 44.300 57.100 44.300 57.200 V 60.100 C 44.300 60.155 44.345 60.200 44.400 60.200 H 50.400 C 50.455 60.200 50.500 60.155 50.500 60.100 V 57.200 C 50.500 57.100 50.400 57.200 50.500 57.200 H 57.400 C 57.455 57.200 57.500 57.155 57.500 57.100 V 50.200 C 57.500 50.100 57.400 50.200 57.500 50.200 H 60.400 C 60.455 50.200 60.500 50.155 60.500 50.100 V 44.100 C 60.500 44.045 60.455 44.000 60.400 44.000 H 57.500 C 57.400 44.000 57.500 44.100 57.500 44.000 V 38.200 C 57.500 38.100 57.400 38.200 57.500 38.200 H 60.400 C 60.455 38.200 60.500 38.155 60.500 38.100 V 32.100 C 60.500 32.045 60.455 32.000 60.400 32.000 H 57.500 C 57.400 32.000 57.500 32.100 57.500 32.000 V 26.200 C 57.500 26.100 57.400 26.200 57.500 26.200 H 60.400 C 60.455 26.200 60.500 26.155 60.500 26.100 V 20.100 C 60.500 20.045 60.455 20.000 60.400 20.000 H 57.500 C 57.400 20.000 57.500 20.100 57.500 20.000 V 13.100 C 57.500 13.045 57.455 13.000 57.400 13.000 H 50.500 C 50.400 13.000 50.500 13.100 50.500 13.000 V 10.100 C 50.500 10.045 50.455 10.000 50.400 10.000 H 44.400 C 44.345 10.000 44.300 10.045 44.300 10.100 V 13.000 C 44.300 13.100 44.400 13.000 44.300 13.000 H 38.500 C 38.400 13.000 38.500 13.100 38.500 13.000 V 10.100 C 38.500 10.045 38.455 10.000 38.400 10.000 H 32.400 C 32.345 10.000 32.300 10.045 32.300 10.100 V 13.000 C 32.300 13.100 32.400 13.000 32.300 13.000 H 26.500 C 26.400 13.000 26.500 13.100 26.500 13.000 V 10.100 C 26.500 10.045 26.455 10.000 26.400 10.000 H 20.400 C 20.345 10.000 20.300 10.045 20.300 10.100 V 13.000 C 20.300 13.100 20.400 13.000 20.300 13.000 H 13.400 C 13.345 13.000 13.300 13.045 13.300 13.100 V 20.000 C 13.300 20.100 13.400 20.000 13.300 20.000 H 10.400 C 10.345 20.000 10.300 20.045 10.300 20.100 V 26.100 C 10.300 26.155 10.345 26.200 10.400 26.200 H 13.300 C 13.400 26.200 13.300 26.100 13.300 26.200 V 32.000 C 13.300 32.100 13.400 32.000 13.300 32.000 H 10.400 C 10.345 32.000 10.300 32.045 10.300 32.100 V 38.100 C 10.300 38.155 10.345 38.200 10.400 38.200 H 13.300 C 13.400 38.200 13.300 38.100 13.300 38.200 V 44.000 C 13.300 44.100 13.400 44.000 13.300 44.000 H 10.400 C 10.345 44.000 10.300 44.045 10.300 44.100 V 50.100 C 10.300 50.155 10.345 50.200 10.400 50.200 H 13.300 C 13.400 50.200 13.300 50.100 13.300 50.200 V 57.100 C 13.300 57.155 13.345 57.200 13.400 57.200" stroke="rgb(0,0,0)" stroke-width="0.20" />
</g>
<g id="p-6" style="fill:none;stroke-linecap:round;stroke-linejoin:round;">
  <text dominant-baseline="hanging" font-size="4px" style="font-family: sans-serif ; font-weight: normal; font-style: normal; fill: rgb(255,0,0)" text-anchor="middle" transform="matrix( 1.000 0.000 0.000 1.000 87.100 33.200 )">Bottom</text><path d="M 65.100 57.200 H 72.000 C 72.100 57.200 72.000 57.100 72.000 57.200 V 60.100 C 72.000 60.155 72.045 60.200 72.100 60.200 H 78.100 C 78.155 60.200 78.200 60.155 78.200 60.100 V 57.200 C 78.200 57.100 78.100 57.200 78.200 57.200 H 84.000 C 84.100 57.200 84.000 57.100 84.000 57.200 V 60.100 C 84.000 60.155 84.045 60.200 84.100 60.200 H 90.100 C 90.155 60.200 90.200 60.155 90.200 60.100 V 57.200 C 90.200 57.100 90.100 57.200 90.200 57.200 H 96.000 C 96.100 57.200 96.000 57.100 96.000 57.200 V 60.100 C 96.000 60.155 96.045 60.200 96.100 60.200 H 102.100 C 102.155 60.200 102.200 60.155 102.200 60.100 V 57.200 C 102.200 57.100 102.100 57.200 102.200 57.200 H 109.100 C 109.155 57.200 109.200 57.155 109.200 57.100 V 50.200 C 109.200 50.100 109.100 50.200 109.200 50.200 H 112.100 C 112.155 50.200 112.200 50.155 112.200 50.100 V 44.100 C 112.200 44.045 112.155 44.000 112.100 44.000 H 109.200 C 109.100 44.000 109.200 44.100 109.200 44.000 V 38.200 C 109.200 38.100 109.100 38.200 109.200 38.200 H 112.100 C 112.155 38.200 112.200 38.155 112.200 38.100 V 32.100 C 112.200 32.045 112.155 32.000 112.100 32.000 H 109.200 C 109.100 32.000 109.200 32.100 109.200 32.000 V 26.200 C 109.200 26.100 109.100 26.200 109.200 26.200 H 112.100 C 112.155 26.200 112.200 26.155 112.200 26.100 V 20.100 C 112.200 20.045 112.155 20.000 112.100 20.000 H 109.200 C 109.100 20.000 109.200 20.100 109.200 20.000 V 13.100 C 109.200 13.045 109.155 13.000 109.100 13.000 H 102.200 C 102.100 13.000 102.200 13.100 102.200 13.000 V 10.100 C 102.200 10.045 102.155 10.000 102.100 10.000 H 96.100 C 96.045 10.000 96.000 10.045 96.000 10.100 V 13.000 C 96.000 13.100 96.100 13.000 96.000 13.000 H 90.200 C 90.100 13.000 90.200 13.100 90.200 13.000 V 10.100 C 90.200 10.045 90.155 10.000 90.100 10.000 H 84.100 C 84.045 10.000 84.000 10.045 84.000 10.100 V 13.000 C 84.000 13.100 84.100 13.000 84.000 13.000 H 78.200 C 78.100 13.000 78.200 13.100 78.200 13.000 V 10.100 C 78.200 10.045 78.155 10.000 78.100 10.000 H 72.100 C 72.045 10.000 72.000 10.045 72.000 10.100 V 13.000 C 72.000 13.100 72.100 13.000 72.000 13.000 H 65.100 C 65.045 13.000 65.000 13.045 65.000 13.100 V 20.000 C 65.000 20.100 65.100 20.000 65.000 20.000 H 62.100 C 62.045 20.000 62.000 20.045 62.000 20.100 V 26.100 C 62.000 26.155 62.045 26.200 62.100 26.200 H 65.000 C 65.100 26.200 65.000 26.100 65.000 26.200 V 32.000 C 65.000 32.100 65.100 32.000 65.000 32.000 H 62.100 C 62.045 32.000 62.000 32.045 62.000 32.100 V 38.100 C 62.000 38.155 62.045 38.200 62.100 38.200 H 65.000 C 65.100 38.200 65.000 38.100 65.000 38.200 V 44.000 C 65.000 44.100 65.100 44.000 65.000 44.000 H 62.100 C 62.045 44.000 62.000 44.045 62.000 44.100 V 50.100 C 62.000 50.155 62.045 50.200 62.100 50.200 H 65.000 C 65.100 50.200 65.000 50.100 65.000 50.200 V 57.100 C 65.000 57.155 65.045 57.200 65.100 57.200" stroke="rgb(0,0,0)" stroke-width="0.20" />
</g>
</svg>
