<?xml version='1.0' encoding='utf-8'?>
<svg height="335.30mm" viewBox="0.0 0.0 221.90 335.30" width="221.90mm" xmlns="http://www.w3.org/2000/svg" xmlns:cc="http://creativecommons.org/ns#" xmlns:dc="http://purl.org/dc/elements/1.1/" xmlns:inkscape="http://www.inkscape.org/namespaces/inkscape" xmlns:rdf="http://www.w3.org/1999/02/22-rdf-syntax-ns#" xmlns:svg="http://www.w3.org/2000/svg" xmlns:xlink="http://www.w3.org/1999/xlink">
<!--
ClosedBox - Fully closed box


This box is more of a building block than a finished item.
Use a vector graphics program (like Inkscape) to add holes or adjust the base
plate.

See BasedBox for variant with a base.


Created with Boxes.py (https://boxes.hackerspace-bamberg.de/)
Command line (remove spaces between dashes): boxes ClosedBox
-->
<title>ClosedBox</title>
<metadata>
<rdf:RDF><cc:Work>
<dc:title>Box - ClosedBox</dc:title>
<dc:source>boxes ClosedBox</dc:source>
<dc:description>Fully closed box

This box is more of a building block than a finished item.
Use a vector graphics program (like Inkscape) to add holes or adjust the base
plate.

See BasedBox for variant with a base.

Created with Boxes.py (https://boxes.hackerspace-bamberg.de/)
Command line: boxes ClosedBox
Command line short: boxes ClosedBox
</dc:description>
</cc:Work></rdf:RDF></metadata>
<g id="p-0" style="fill:none;stroke-linecap:round;stroke-linejoin:round;">
  <path d="M 10.100 325.300 H 110.100 V 315.300 H 10.100 V 325.300 Z" stroke="rgb(0,0,0)" stroke-width="0.20" />
  <text dominant-baseline="hanging" font-size="6px" style="font-family: sans-serif ; font-weight: normal; font-style: normal; fill: rgb(255,0,0)" text-anchor="middle" transform="matrix( 1.000 0.000 0.000 1.000 60.100 317.300 )">100.0mm, burn:0.10mm</text>
</g>
<g id="p-1" style="fill:none;stroke-linecap:round;stroke-linejoin:round;">
  <path d="M 13.100 313.600 H 21.100 C 21.155 313.600 21.200 313.555 21.200 313.500 V 310.600 C 21.200 310.500 21.100 310.600 21.200 310.600 H 27.000 C 27.100 310.600 27.000 310.500 27.000 310.600 V 313.500 C 27.000 313.555 27.045 313.600 27.100 313.600 H 33.100 C 33.155 313.600 33.200 313.555 33.200 313.500 V 310.600 C 33.200 310.500 33.100 310.600 33.200 310.600 H 39.000 C 39.100 310.600 39.000 310.500 39.000 310.600 V 313.500 C 39.000 313.555 39.045 313.600 39.100 313.600 H 45.100 C 45.155 313.600 45.200 313.555 45.200 313.500 V 310.600 C 45.200 310.500 45.100 310.600 45.200 310.600 H 51.000 C 51.100 310.600 51.000 310.500 51.000 310.600 V 313.500 C 51.000 313.555 51.045 313.600 51.100 313.600 H 57.100 C 57.155 313.600 57.200 313.555 57.200 313.500 V 310.600 C 57.200 310.500 57.100 310.600 57.200 310.600 H 63.000 C 63.100 310.600 63.000 310.500 63.000 310.600 V 313.500 C 63.000 313.555 63.045 313.600 63.100 313.600 H 69.100 C 69.155 313.600 69.200 313.555 69.200 313.500 V 310.600 C 69.200 310.500 69.100 310.600 69.200 310.600 H 75.000 C 75.100 310.600 75.000 310.500 75.000 310.600 V 313.500 C 75.000 313.555 75.045 313.600 75.100 313.600 H 81.100 C 81.155 313.600 81.200 313.555 81.200 313.500 V 310.600 C 81.200 310.500 81.100 310.600 81.200 310.600 H 87.000 C 87.100 310.600 87.000 310.500 87.000 310.600 V 313.500 C 87.000 313.555 87.045 313.600 87.100 313.600 H 93.100 C 93.155 313.600 93.200 313.555 93.200 313.500 V 310.600 C 93.200 310.500 93.100 310.600 93.200 310.600 H 99.000 C 99.100 310.600 99.000 310.500 99.000 310.600 V 313.500 C 99.000 313.555 99.045 313.600 99.100 313.600 H 107.100 H 110.100 C 110.155 313.600 110.200 313.555 110.200 313.500 V 310.500 V 302.500 C 110.200 302.445 110.155 302.400 110.100 302.400 H 107.200 C 107.100 302.400 107.200 302.500 107.200 302.400 V 296.600 C 107.200 296.500 107.100 296.600 107.200 296.600 H 110.100 C 110.155 296.600 110.200 296.555 110.200 296.500 V 290.500 C 110.200 290.445 110.155 290.400 110.100 290.400 H 107.200 C 107.100 290.400 107.200 290.500 107.200 290.400 V 284.600 C 107.200 284.500 107.100 284.600 107.200 284.600 H 110.100 C 110.155 284.600 110.200 284.555 110.200 284.500 V 278.500 C 110.200 278.445 110.155 278.400 110.100 278.400 H 107.200 C 107.100 278.400 107.200 278.500 107.200 278.400 V 272.600 C 107.200 272.500 107.100 272.600 107.200 272.600 H 110.100 C 110.155 272.600 110.200 272.555 110.200 272.500 V 266.500 C 110.200 266.445 110.155 266.400 110.100 266.400 H 107.200 C 107.100 266.400 107.200 266.500 107.200 266.400 V 260.600 C 107.200 260.500 107.100 260.600 107.200 260.600 H 110.100 C 110.155 260.600 110.200 260.555 110.200 260.500 V 254.500 C 110.200 254.445 110.155 254.400 110.100 254.400 H 107.200 C 107.100 254.400 107.200 254.500 107.200 254.400 V 248.600 C 107.200 248.500 107.100 248.600 107.200 248.600 H 110.100 C 110.155 248.600 110.200 248.555 110.200 248.500 V 242.500 C 110.200 242.445 110.155 242.400 110.100 242.400 H 107.200 C 107.100 242.400 107.200 242.500 107.200 242.400 V 236.600 C 107.200 236.500 107.100 236.600 107.200 236.600 H 110.100 C 110.155 236.600 110.200 236.555 110.200 236.500 V 230.500 C 110.200 230.445 110.155 230.400 110.100 230.400 H 107.200 C 107.100 230.400 107.200 230.500 107.200 230.400 V 224.600 C 107.200 224.500 107.100 224.600 107.200 224.600 H 110.100 C 110.155 224.600 110.200 224.555 110.200 224.500 V 216.500 V 213.500 C 110.200 213.445 110.155 213.400 110.100 213.400 H 107.100 H 99.100 C 99.045 213.400 99.000 213.445 99.000 213.500 V 216.400 C 99.000 216.500 99.100 216.400 99.000 216.400 H 93.200 C 93.100 216.400 93.200 216.500 93.200 216.400 V 213.500 C 93.200 213.445 93.155 213.400 93.100 213.400 H 87.100 C 87.045 213.400 87.000 213.445 87.000 213.500 V 216.400 C 87.000 216.500 87.100 216.400 87.000 216.400 H 81.200 C 81.100 216.400 81.200 216.500 81.200 216.400 V 213.500 C 81.200 213.445 81.155 213.400 81.100 213.400 H 75.100 C 75.045 213.400 75.000 213.445 75.000 213.500 V 216.400 C 75.000 216.500 75.100 216.400 75.000 216.400 H 69.200 C 69.100 216.400 69.200 216.500 69.200 216.400 V 213.500 C 69.200 213.445 69.155 213.400 69.100 213.400 H 63.100 C 63.045 213.400 63.000 213.445 63.000 213.500 V 216.400 C 63.000 216.500 63.100 216.400 63.000 216.400 H 57.200 C 57.100 216.400 57.200 216.500 57.200 216.400 V 213.500 C 57.200 213.445 57.155 213.400 57.100 213.400 H 51.100 C 51.045 213.400 51.000 213.445 51.000 213.500 V 216.400 C 51.000 216.500 51.100 216.400 51.000 216.400 H 45.200 C 45.100 216.400 45.200 216.500 45.200 216.400 V 213.500 C 45.200 213.445 45.155 213.400 45.100 213.400 H 39.100 C 39.045 213.400 39.000 213.445 39.000 213.500 V 216.400 C 39.000 216.500 39.100 216.400 39.000 216.400 H 33.200 C 33.100 216.400 33.200 216.500 33.200 216.400 V 213.500 C 33.200 213.445 33.155 213.400 33.100 213.400 H 27.100 C 27.045 213.400 27.000 213.445 27.000 213.500 V 216.400 C 27.000 216.500 27.100 216.400 27.000 216.400 H 21.200 C 21.100 216.400 21.200 216.500 21.200 216.400 V 213.500 C 21.200 213.445 21.155 213.400 21.100 213.400 H 13.100 H 10.100 C 10.045 213.400 10.000 213.445 10.000 213.500 V 216.500 V 224.500 C 10.000 224.555 10.045 224.600 10.100 224.600 H 13.000 C 13.100 224.600 13.000 224.500 13.000 224.600 V 230.400 C 13.000 230.500 13.100 230.400 13.000 230.400 H 10.100 C 10.045 230.400 10.000 230.445 10.000 230.500 V 236.500 C 10.000 236.555 10.045 236.600 10.100 236.600 H 13.000 C 13.100 236.600 13.000 236.500 13.000 236.600 V 242.400 C 13.000 242.500 13.100 242.400 13.000 242.400 H 10.100 C 10.045 242.400 10.000 242.445 10.000 242.500 V 248.500 C 10.000 248.555 10.045 248.600 10.100 248.600 H 13.000 C 13.100 248.600 13.000 248.500 13.000 248.600 V 254.400 C 13.000 254.500 13.100 254.400 13.000 254.400 H 10.100 C 10.045 254.400 10.000 254.445 10.000 254.500 V 260.500 C 10.000 260.555 10.045 260.600 10.100 260.600 H 13.000 C 13.100 260.600 13.000 260.500 13.000 260.600 V 266.400 C 13.000 266.500 13.100 266.400 13.000 266.400 H 10.100 C 10.045 266.400 10.000 266.445 10.000 266.500 V 272.500 C 10.000 272.555 10.045 272.600 10.100 272.600 H 13.000 C 13.100 272.600 13.000 272.500 13.000 272.600 V 278.400 C 13.000 278.500 13.100 278.400 13.000 278.400 H 10.100 C 10.045 278.400 10.000 278.445 10.000 278.500 V 284.500 C 10.000 284.555 10.045 284.600 10.100 284.600 H 13.000 C 13.100 284.600 13.000 284.500 13.000 284.600 V 290.400 C 13.000 290.500 13.100 290.400 13.000 290.400 H 10.100 C 10.045 290.400 10.000 290.445 10.000 290.500 V 296.500 C 10.000 296.555 10.045 296.600 10.100 296.600 H 13.000 C 13.100 296.600 13.000 296.500 13.000 296.600 V 302.400 C 13.000 302.500 13.100 302.400 13.000 302.400 H 10.100 C 10.045 302.400 10.000 302.445 10.000 302.500 V 310.500 V 313.500 C 10.000 313.555 10.045 313.600 10.100 313.600 H 13.100 Z" stroke="rgb(0,0,0)" stroke-width="0.20" />
  <text dominant-baseline="hanging" font-size="4px" style="font-family: sans-serif ; font-weight: normal; font-style: normal; fill: rgb(255,0,0)" text-anchor="middle" transform="matrix( 1.000 0.000 0.000 1.000 60.100 261.600 )">Wall 1</text>
</g>
<g id="p-2" style="fill:none;stroke-linecap:round;stroke-linejoin:round;">
  <path d="M 114.800 313.600 H 122.800 C 122.855 313.600 122.900 313.555 122.900 313.500 V 310.600 C 122.900 310.500 122.800 310.600 122.900 310.600 H 128.700 C 128.800 310.600 128.700 310.500 128.700 310.600 V 313.500 C 128.700 313.555 128.745 313.600 128.800 313.600 H 134.800 C 134.855 313.600 134.900 313.555 134.900 313.500 V 310.600 C 134.900 310.500 134.800 310.600 134.900 310.600 H 140.700 C 140.800 310.600 140.700 310.500 140.700 310.600 V 313.500 C 140.700 313.555 140.745 313.600 140.800 313.600 H 146.800 C 146.855 313.600 146.900 313.555 146.900 313.500 V 310.600 C 146.900 310.500 146.800 310.600 146.900 310.600 H 152.700 C 152.800 310.600 152.700 310.500 152.700 310.600 V 313.500 C 152.700 313.555 152.745 313.600 152.800 313.600 H 158.800 C 158.855 313.600 158.900 313.555 158.900 313.500 V 310.600 C 158.900 310.500 158.800 310.600 158.900 310.600 H 164.700 C 164.800 310.600 164.700 310.500 164.700 310.600 V 313.500 C 164.700 313.555 164.745 313.600 164.800 313.600 H 170.800 C 170.855 313.600 170.900 313.555 170.900 313.500 V 310.600 C 170.900 310.500 170.800 310.600 170.900 310.600 H 176.700 C 176.800 310.600 176.700 310.500 176.700 310.600 V 313.500 C 176.700 313.555 176.745 313.600 176.800 313.600 H 182.800 C 182.855 313.600 182.900 313.555 182.900 313.500 V 310.600 C 182.900 310.500 182.800 310.600 182.900 310.600 H 188.700 C 188.800 310.600 188.700 310.500 188.700 310.600 V 313.500 C 188.700 313.555 188.745 313.600 188.800 313.600 H 194.800 C 194.855 313.600 194.900 313.555 194.900 313.500 V 310.600 C 194.900 310.500 194.800 310.600 194.900 310.600 H 200.700 C 200.800 310.600 200.700 310.500 200.700 310.600 V 313.500 C 200.700 313.555 200.745 313.600 200.800 313.600 H 208.800 C 208.855 313.600 208.900 313.555 208.900 313.500 V 310.500 V 302.600 C 208.900 302.500 208.800 302.600 208.900 302.600 H 211.800 C 211.855 302.600 211.900 302.555 211.900 302.500 V 296.500 C 211.900 296.445 211.855 296.400 211.800 296.400 H 208.900 C 208.800 296.400 208.900 296.500 208.900 296.400 V 290.600 C 208.900 290.500 208.800 290.600 208.900 290.600 H 211.800 C 211.855 290.600 211.900 290.555 211.900 290.500 V 284.500 C 211.900 284.445 211.855 284.400 211.800 284.400 H 208.900 C 208.800 284.400 208.900 284.500 208.900 284.400 V 278.600 C 208.900 278.500 208.800 278.600 208.900 278.600 H 211.800 C 211.855 278.600 211.900 278.555 211.900 278.500 V 272.500 C 211.900 272.445 211.855 272.400 211.800 272.400 H 208.900 C 208.800 272.400 208.900 272.500 208.900 272.400 V 266.600 C 208.900 266.500 208.800 266.600 208.900 266.600 H 211.800 C 211.855 266.600 211.900 266.555 211.900 266.500 V 260.500 C 211.900 260.445 211.855 260.400 211.800 260.400 H 208.900 C 208.800 260.400 208.900 260.500 208.900 260.400 V 254.600 C 208.900 254.500 208.800 254.600 208.900 254.600 H 211.800 C 211.855 254.600 211.900 254.555 211.900 254.500 V 248.500 C 211.900 248.445 211.855 248.400 211.800 248.400 H 208.900 C 208.800 248.400 208.900 248.500 208.900 248.400 V 242.600 C 208.900 242.500 208.800 242.600 208.900 242.600 H 211.800 C 211.855 242.600 211.900 242.555 211.900 242.500 V 236.500 C 211.900 236.445 211.855 236.400 211.800 236.400 H 208.900 C 208.800 236.400 208.900 236.500 208.900 236.400 V 230.600 C 208.900 230.500 208.800 230.600 208.900 230.600 H 211.800 C 211.855 230.600 211.900 230.555 211.900 230.500 V 224.500 C 211.900 224.445 211.855 224.400 211.800 224.400 H 208.900 C 208.800 224.400 208.900 224.500 208.900 224.400 V 216.500 V 213.500 C 208.900 213.445 208.855 213.400 208.800 213.400 H 200.800 C 200.745 213.400 200.700 213.445 200.700 213.500 V 216.400 C 200.700 216.500 200.800 216.400 200.700 216.400 H 194.900 C 194.800 216.400 194.900 216.500 194.900 216.400 V 213.500 C 194.900 213.445 194.855 213.400 194.800 213.400 H 188.800 C 188.745 213.400 188.700 213.445 188.700 213.500 V 216.400 C 188.700 216.500 188.800 216.400 188.700 216.400 H 182.900 C 182.800 216.400 182.900 216.500 182.900 216.400 V 213.500 C 182.900 213.445 182.855 213.400 182.800 213.400 H 176.800 C 176.745 213.400 176.700 213.445 176.700 213.500 V 216.400 C 176.700 216.500 176.800 216.400 176.700 216.400 H 170.900 C 170.800 216.400 170.900 216.500 170.900 216.400 V 213.500 C 170.900 213.445 170.855 213.400 170.800 213.400 H 164.800 C 164.745 213.400 164.700 213.445 164.700 213.500 V 216.400 C 164.700 216.500 164.800 216.400 164.700 216.400 H 158.900 C 158.800 216.400 158.900 216.500 158.900 216.400 V 213.500 C 158.900 213.445 158.855 213.400 158.800 213.400 H 152.800 C 152.745 213.400 152.700 213.445 152.700 213.500 V 216.400 C 152.700 216.500 152.800 216.400 152.700 216.400 H 146.900 C 146.800 216.400 146.900 216.500 146.900 216.400 V 213.500 C 146.900 213.445 146.855 213.400 146.800 213.400 H 140.800 C 140.745 213.400 140.700 213.445 140.700 213.500 V 216.400 C 140.700 216.500 140.800 216.400 140.700 216.400 H 134.900 C 134.800 216.400 134.900 216.500 134.900 216.400 V 213.500 C 134.900 213.445 134.855 213.400 134.800 213.400 H 128.800 C 128.745 213.400 128.700 213.445 128.700 213.500 V 216.400 C 128.700 216.500 128.800 216.400 128.700 216.400 H 122.900 C 122.800 216.400 122.900 216.500 122.900 216.400 V 213.500 C 122.900 213.445 122.855 213.400 122.800 213.400 H 114.800 C 114.745 213.400 114.700 213.445 114.700 213.500 V 216.500 V 224.400 C 114.700 224.500 114.800 224.400 114.700 224.400 H 111.800 C 111.745 224.400 111.700 224.445 111.700 224.500 V 230.500 C 111.700 230.555 111.745 230.600 111.800 230.600 H 114.700 C 114.800 230.600 114.700 230.500 114.700 230.600 V 236.400 C 114.700 236.500 114.800 236.400 114.700 236.400 H 111.800 C 111.745 236.400 111.700 236.445 111.700 236.500 V 242.500 C 111.700 242.555 111.745 242.600 111.800 242.600 H 114.700 C 114.800 242.600 114.700 242.500 114.700 242.600 V 248.400 C 114.700 248.500 114.800 248.400 114.700 248.400 H 111.800 C 111.745 248.400 111.700 248.445 111.700 248.500 V 254.500 C 111.700 254.555 111.745 254.600 111.800 254.600 H 114.700 C 114.800 254.600 114.700 254.500 114.700 254.600 V 260.400 C 114.700 260.500 114.800 260.400 114.700 260.400 H 111.800 C 111.745 260.400 111.700 260.445 111.700 260.500 V 266.500 C 111.700 266.555 111.745 266.600 111.800 266.600 H 114.700 C 114.800 266.600 114.700 266.500 114.700 266.600 V 272.400 C 114.700 272.500 114.800 272.400 114.700 272.400 H 111.800 C 111.745 272.400 111.700 272.445 111.700 272.500 V 278.500 C 111.700 278.555 111.745 278.600 111.800 278.600 H 114.700 C 114.800 278.600 114.700 278.500 114.700 278.600 V 284.400 C 114.700 284.500 114.800 284.400 114.700 284.400 H 111.800 C 111.745 284.400 111.700 284.445 111.700 284.500 V 290.500 C 111.700 290.555 111.745 290.600 111.800 290.600 H 114.700 C 114.800 290.600 114.700 290.500 114.700 290.600 V 296.400 C 114.700 296.500 114.800 296.400 114.700 296.400 H 111.800 C 111.745 296.400 111.700 296.445 111.700 296.500 V 302.500 C 111.700 302.555 111.745 302.600 111.800 302.600 H 114.700 C 114.800 302.600 114.700 302.500 114.700 302.600 V 310.500 V 313.500 C 114.700 313.555 114.745 313.600 114.800 313.600 Z" stroke="rgb(0,0,0)" stroke-width="0.20" />
  <text dominant-baseline="hanging" font-size="4px" style="font-family: sans-serif ; font-weight: normal; font-style: normal; fill: rgb(255,0,0)" text-anchor="middle" transform="matrix( 1.000 0.000 0.000 1.000 161.800 261.600 )">Wall 2</text>
</g>
<g id="p-3" style="fill:none;stroke-linecap:round;stroke-linejoin:round;">
  <path d="M 114.800 211.900 H 122.800 C 122.855 211.900 122.900 211.855 122.900 211.800 V 208.900 C 122.900 208.800 122.800 208.900 122.900 208.900 H 128.700 C 128.800 208.900 128.700 208.800 128.700 208.900 V 211.800 C 128.700 211.855 128.745 211.900 128.800 211.900 H 134.800 C 134.855 211.900 134.900 211.855 134.900 211.800 V 208.900 C 134.900 208.800 134.800 208.900 134.900 208.900 H 140.700 C 140.800 208.900 140.700 208.800 140.700 208.900 V 211.800 C 140.700 211.855 140.745 211.900 140.800 211.900 H 146.800 C 146.855 211.900 146.900 211.855 146.900 211.800 V 208.900 C 146.900 208.800 146.800 208.900 146.900 208.900 H 152.700 C 152.800 208.900 152.700 208.800 152.700 208.900 V 211.800 C 152.700 211.855 152.745 211.900 152.800 211.900 H 158.800 C 158.855 211.900 158.900 211.855 158.900 211.800 V 208.900 C 158.900 208.800 158.800 208.900 158.900 208.900 H 164.700 C 164.800 208.900 164.700 208.800 164.700 208.900 V 211.800 C 164.700 211.855 164.745 211.900 164.800 211.900 H 170.800 C 170.855 211.900 170.900 211.855 170.900 211.800 V 208.900 C 170.900 208.800 170.800 208.900 170.900 208.900 H 176.700 C 176.800 208.900 176.700 208.800 176.700 208.900 V 211.800 C 176.700 211.855 176.745 211.900 176.800 211.900 H 182.800 C 182.855 211.900 182.900 211.855 182.900 211.800 V 208.900 C 182.900 208.800 182.800 208.900 182.900 208.900 H 188.700 C 188.800 208.900 188.700 208.800 188.700 208.900 V 211.800 C 188.700 211.855 188.745 211.900 188.800 211.900 H 194.800 C 194.855 211.900 194.900 211.855 194.900 211.800 V 208.900 C 194.900 208.800 194.800 208.900 194.900 208.900 H 200.700 C 200.800 208.900 200.700 208.800 200.700 208.900 V 211.800 C 200.700 211.855 200.745 211.900 200.800 211.900 H 208.800 C 208.855 211.900 208.900 211.855 208.900 211.800 V 208.800 V 200.900 C 208.900 200.800 208.800 200.900 208.900 200.900 H 211.800 C 211.855 200.900 211.900 200.855 211.900 200.800 V 194.800 C 211.900 194.745 211.855 194.700 211.800 194.700 H 208.900 C 208.800 194.700 208.900 194.800 208.900 194.700 V 188.900 C 208.900 188.800 208.800 188.900 208.900 188.900 H 211.800 C 211.855 188.900 211.900 188.855 211.900 188.800 V 182.800 C 211.900 182.745 211.855 182.700 211.800 182.700 H 208.900 C 208.800 182.700 208.900 182.800 208.900 182.700 V 176.900 C 208.900 176.800 208.800 176.900 208.900 176.900 H 211.800 C 211.855 176.900 211.900 176.855 211.900 176.800 V 170.800 C 211.900 170.745 211.855 170.700 211.800 170.700 H 208.900 C 208.800 170.700 208.900 170.800 208.900 170.700 V 164.900 C 208.900 164.800 208.800 164.900 208.900 164.900 H 211.800 C 211.855 164.900 211.900 164.855 211.900 164.800 V 158.800 C 211.900 158.745 211.855 158.700 211.800 158.700 H 208.900 C 208.800 158.700 208.900 158.800 208.900 158.700 V 152.900 C 208.900 152.800 208.800 152.900 208.900 152.900 H 211.800 C 211.855 152.900 211.900 152.855 211.900 152.800 V 146.800 C 211.900 146.745 211.855 146.700 211.800 146.700 H 208.900 C 208.800 146.700 208.900 146.800 208.900 146.700 V 140.900 C 208.900 140.800 208.800 140.900 208.900 140.900 H 211.800 C 211.855 140.900 211.900 140.855 211.900 140.800 V 134.800 C 211.900 134.745 211.855 134.700 211.800 134.700 H 208.900 C 208.800 134.700 208.900 134.800 208.900 134.700 V 128.900 C 208.900 128.800 208.800 128.900 208.900 128.900 H 211.800 C 211.855 128.900 211.900 128.855 211.900 128.800 V 122.800 C 211.900 122.745 211.855 122.700 211.800 122.700 H 208.900 C 208.800 122.700 208.900 122.800 208.900 122.700 V 114.800 V 111.800 C 208.900 111.745 208.855 111.700 208.800 111.700 H 200.800 C 200.745 111.700 200.700 111.745 200.700 111.800 V 114.700 C 200.700 114.800 200.800 114.700 200.700 114.700 H 194.900 C 194.800 114.700 194.900 114.800 194.900 114.700 V 111.800 C 194.900 111.745 194.855 111.700 194.800 111.700 H 188.800 C 188.745 111.700 188.700 111.745 188.700 111.800 V 114.700 C 188.700 114.800 188.800 114.700 188.700 114.700 H 182.900 C 182.800 114.700 182.900 114.800 182.900 114.700 V 111.800 C 182.900 111.745 182.855 111.700 182.800 111.700 H 176.800 C 176.745 111.700 176.700 111.745 176.700 111.800 V 114.700 C 176.700 114.800 176.800 114.700 176.700 114.700 H 170.900 C 170.800 114.700 170.900 114.800 170.900 114.700 V 111.800 C 170.900 111.745 170.855 111.700 170.800 111.700 H 164.800 C 164.745 111.700 164.700 111.745 164.700 111.800 V 114.700 C 164.700 114.800 164.800 114.700 164.700 114.700 H 158.900 C 158.800 114.700 158.900 114.800 158.900 114.700 V 111.800 C 158.900 111.745 158.855 111.700 158.800 111.700 H 152.800 C 152.745 111.700 152.700 111.745 152.700 111.800 V 114.700 C 152.700 114.800 152.800 114.700 152.700 114.700 H 146.900 C 146.800 114.700 146.900 114.800 146.900 114.700 V 111.800 C 146.900 111.745 146.855 111.700 146.800 111.700 H 140.800 C 140.745 111.700 140.700 111.745 140.700 111.800 V 114.700 C 140.700 114.800 140.800 114.700 140.700 114.700 H 134.900 C 134.800 114.700 134.900 114.800 134.900 114.700 V 111.800 C 134.900 111.745 134.855 111.700 134.800 111.700 H 128.800 C 128.745 111.700 128.700 111.745 128.700 111.800 V 114.700 C 128.700 114.800 128.800 114.700 128.700 114.700 H 122.900 C 122.800 114.700 122.900 114.800 122.900 114.700 V 111.800 C 122.900 111.745 122.855 111.700 122.800 111.700 H 114.800 C 114.745 111.700 114.700 111.745 114.700 111.800 V 114.800 V 122.700 C 114.700 122.800 114.800 122.700 114.700 122.700 H 111.800 C 111.745 122.700 111.700 122.745 111.700 122.800 V 128.800 C 111.700 128.855 111.745 128.900 111.800 128.900 H 114.700 C 114.800 128.900 114.700 128.800 114.700 128.900 V 134.700 C 114.700 134.800 114.800 134.700 114.700 134.700 H 111.800 C 111.745 134.700 111.700 134.745 111.700 134.800 V 140.800 C 111.700 140.855 111.745 140.900 111.800 140.900 H 114.700 C 114.800 140.900 114.700 140.800 114.700 140.900 V 146.700 C 114.700 146.800 114.800 146.700 114.700 146.700 H 111.800 C 111.745 146.700 111.700 146.745 111.700 146.800 V 152.800 C 111.700 152.855 111.745 152.900 111.800 152.900 H 114.700 C 114.800 152.900 114.700 152.800 114.700 152.900 V 158.700 C 114.700 158.800 114.800 158.700 114.700 158.700 H 111.800 C 111.745 158.700 111.700 158.745 111.700 158.800 V 164.800 C 111.700 164.855 111.745 164.900 111.800 164.900 H 114.700 C 114.800 164.900 114.700 164.800 114.700 164.900 V 170.700 C 114.700 170.800 114.800 170.700 114.700 170.700 H 111.800 C 111.745 170.700 111.700 170.745 111.700 170.800 V 176.800 C 111.700 176.855 111.745 176.900 111.800 176.900 H 114.700 C 114.800 176.900 114.700 176.800 114.700 176.900 V 182.700 C 114.700 182.800 114.800 182.700 114.700 182.700 H 111.800 C 111.745 182.700 111.700 182.745 111.700 182.800 V 188.800 C 111.700 188.855 111.745 188.900 111.800 188.900 H 114.700 C 114.800 188.900 114.700 188.800 114.700 188.900 V 194.700 C 114.700 194.800 114.800 194.700 114.700 194.700 H 111.800 C 111.745 194.700 111.700 194.745 111.700 194.800 V 200.800 C 111.700 200.855 111.745 200.900 111.800 200.900 H 114.700 C 114.800 200.900 114.700 200.800 114.700 200.900 V 208.800 V 211.800 C 114.700 211.855 114.745 211.900 114.800 211.900 Z" stroke="rgb(0,0,0)" stroke-width="0.20" />
  <text dominant-baseline="hanging" font-size="4px" style="font-family: sans-serif ; font-weight: normal; font-style: normal; fill: rgb(255,0,0)" text-anchor="middle" transform="matrix( 1.000 0.000 0.000 1.000 161.800 159.900 )">Wall 4</text>
</g>
<g id="p-4" style="fill:none;stroke-linecap:round;stroke-linejoin:round;">
  <path d="M 13.100 211.900 H 21.100 C 21.155 211.900 21.200 211.855 21.200 211.800 V 208.900 C 21.200 208.800 21.100 208.900 21.200 208.900 H 27.000 C 27.100 208.900 27.000 208.800 27.000 208.900 V 211.800 C 27.000 211.855 27.045 211.900 27.100 211.900 H 33.100 C 33.155 211.900 33.200 211.855 33.200 211.800 V 208.900 C 33.200 208.800 33.100 208.900 33.200 208.900 H 39.000 C 39.100 208.900 39.000 208.800 39.000 208.900 V 211.800 C 39.000 211.855 39.045 211.900 39.100 211.900 H 45.100 C 45.155 211.900 45.200 211.855 45.200 211.800 V 208.900 C 45.200 208.800 45.100 208.900 45.200 208.900 H 51.000 C 51.100 208.900 51.000 208.800 51.000 208.900 V 211.800 C 51.000 211.855 51.045 211.900 51.100 211.900 H 57.100 C 57.155 211.900 57.200 211.855 57.200 211.800 V 208.900 C 57.200 208.800 57.100 208.900 57.200 208.900 H 63.000 C 63.100 208.900 63.000 208.800 63.000 208.900 V 211.800 C 63.000 211.855 63.045 211.900 63.100 211.900 H 69.100 C 69.155 211.900 69.200 211.855 69.200 211.800 V 208.900 C 69.200 208.800 69.100 208.900 69.200 208.900 H 75.000 C 75.100 208.900 75.000 208.800 75.000 208.900 V 211.800 C 75.000 211.855 75.045 211.900 75.100 211.900 H 81.100 C 81.155 211.900 81.200 211.855 81.200 211.800 V 208.900 C 81.200 208.800 81.100 208.900 81.200 208.900 H 87.000 C 87.100 208.900 87.000 208.800 87.000 208.900 V 211.800 C 87.000 211.855 87.045 211.900 87.100 211.900 H 93.100 C 93.155 211.900 93.200 211.855 93.200 211.800 V 208.900 C 93.200 208.800 93.100 208.900 93.200 208.900 H 99.000 C 99.100 208.900 99.000 208.800 99.000 208.900 V 211.800 C 99.000 211.855 99.045 211.900 99.100 211.900 H 107.100 H 110.100 C 110.155 211.900 110.200 211.855 110.200 211.800 V 208.800 V 200.800 C 110.200 200.745 110.155 200.700 110.100 200.700 H 107.200 C 107.100 200.700 107.200 200.800 107.200 200.700 V 194.900 C 107.200 194.800 107.100 194.900 107.200 194.900 H 110.100 C 110.155 194.900 110.200 194.855 110.200 194.800 V 188.800 C 110.200 188.745 110.155 188.700 110.100 188.700 H 107.200 C 107.100 188.700 107.200 188.800 107.200 188.700 V 182.900 C 107.200 182.800 107.100 182.900 107.200 182.900 H 110.100 C 110.155 182.900 110.200 182.855 110.200 182.800 V 176.800 C 110.200 176.745 110.155 176.700 110.100 176.700 H 107.200 C 107.100 176.700 107.200 176.800 107.200 176.700 V 170.900 C 107.200 170.800 107.100 170.900 107.200 170.900 H 110.100 C 110.155 170.900 110.200 170.855 110.200 170.800 V 164.800 C 110.200 164.745 110.155 164.700 110.100 164.700 H 107.200 C 107.100 164.700 107.200 164.800 107.200 164.700 V 158.900 C 107.200 158.800 107.100 158.900 107.200 158.900 H 110.100 C 110.155 158.900 110.200 158.855 110.200 158.800 V 152.800 C 110.200 152.745 110.155 152.700 110.100 152.700 H 107.200 C 107.100 152.700 107.200 152.800 107.200 152.700 V 146.900 C 107.200 146.800 107.100 146.900 107.200 146.900 H 110.100 C 110.155 146.900 110.200 146.855 110.200 146.800 V 140.800 C 110.200 140.745 110.155 140.700 110.100 140.700 H 107.200 C 107.100 140.700 107.200 140.800 107.200 140.700 V 134.900 C 107.200 134.800 107.100 134.900 107.200 134.900 H 110.100 C 110.155 134.900 110.200 134.855 110.200 134.800 V 128.800 C 110.200 128.745 110.155 128.700 110.100 128.700 H 107.200 C 107.100 128.700 107.200 128.800 107.200 128.700 V 122.900 C 107.200 122.800 107.100 122.900 107.200 122.900 H 110.100 C 110.155 122.900 110.200 122.855 110.200 122.800 V 114.800 V 111.800 C 110.200 111.745 110.155 111.700 110.100 111.700 H 107.100 H 99.100 C 99.045 111.700 99.000 111.745 99.000 111.800 V 114.700 C 99.000 114.800 99.100 114.700 99.000 114.700 H 93.200 C 93.100 114.700 93.200 114.800 93.200 114.700 V 111.800 C 93.200 111.745 93.155 111.700 93.100 111.700 H 87.100 C 87.045 111.700 87.000 111.745 87.000 111.800 V 114.700 C 87.000 114.800 87.100 114.700 87.000 114.700 H 81.200 C 81.100 114.700 81.200 114.800 81.200 114.700 V 111.800 C 81.200 111.745 81.155 111.700 81.100 111.700 H 75.100 C 75.045 111.700 75.000 111.745 75.000 111.800 V 114.700 C 75.000 114.800 75.100 114.700 75.000 114.700 H 69.200 C 69.100 114.700 69.200 114.800 69.200 114.700 V 111.800 C 69.200 111.745 69.155 111.700 69.100 111.700 H 63.100 C 63.045 111.700 63.000 111.745 63.000 111.800 V 114.700 C 63.000 114.800 63.100 114.700 63.000 114.700 H 57.200 C 57.100 114.700 57.200 114.800 57.200 114.700 V 111.800 C 57.200 111.745 57.155 111.700 57.100 111.700 H 51.100 C 51.045 111.700 51.000 111.745 51.000 111.800 V 114.700 C 51.000 114.800 51.100 114.700 51.000 114.700 H 45.200 C 45.100 114.700 45.200 114.800 45.200 114.700 V 111.800 C 45.200 111.745 45.155 111.700 45.100 111.700 H 39.100 C 39.045 111.700 39.000 111.745 39.000 111.800 V 114.700 C 39.000 114.800 39.100 114.700 39.000 114.700 H 33.200 C 33.100 114.700 33.200 114.800 33.200 114.700 V 111.800 C 33.200 111.745 33.155 111.700 33.100 111.700 H 27.100 C 27.045 111.700 27.000 111.745 27.000 111.800 V 114.700 C 27.000 114.800 27.100 114.700 27.000 114.700 H 21.200 C 21.100 114.700 21.200 114.800 21.200 114.700 V 111.800 C 21.200 111.745 21.155 111.700 21.100 111.700 H 13.100 H 10.100 C 10.045 111.700 10.000 111.745 10.000 111.800 V 114.800 V 122.800 C 10.000 122.855 10.045 122.900 10.100 122.900 H 13.000 C 13.100 122.900 13.000 122.800 13.000 122.900 V 128.700 C 13.000 128.800 13.100 128.700 13.000 128.700 H 10.100 C 10.045 128.700 10.000 128.745 10.000 128.800 V 134.800 C 10.000 134.855 10.045 134.900 10.100 134.900 H 13.000 C 13.100 134.900 13.000 134.800 13.000 134.900 V 140.700 C 13.000 140.800 13.100 140.700 13.000 140.700 H 10.100 C 10.045 140.700 10.000 140.745 10.000 140.800 V 146.800 C 10.000 146.855 10.045 146.900 10.100 146.900 H 13.000 C 13.100 146.900 13.000 146.800 13.000 146.900 V 152.700 C 13.000 152.800 13.100 152.700 13.000 152.700 H 10.100 C 10.045 152.700 10.000 152.745 10.000 152.800 V 158.800 C 10.000 158.855 10.045 158.900 10.100 158.900 H 13.000 C 13.100 158.900 13.000 158.800 13.000 158.900 V 164.700 C 13.000 164.800 13.100 164.700 13.000 164.700 H 10.100 C 10.045 164.700 10.000 164.745 10.000 164.800 V 170.800 C 10.000 170.855 10.045 170.900 10.100 170.900 H 13.000 C 13.100 170.900 13.000 170.800 13.000 170.900 V 176.700 C 13.000 176.800 13.100 176.700 13.000 176.700 H 10.100 C 10.045 176.700 10.000 176.745 10.000 176.800 V 182.800 C 10.000 182.855 10.045 182.900 10.100 182.900 H 13.000 C 13.100 182.900 13.000 182.800 13.000 182.900 V 188.700 C 13.000 188.800 13.100 188.700 13.000 188.700 H 10.100 C 10.045 188.700 10.000 188.745 10.000 188.800 V 194.800 C 10.000 194.855 10.045 194.900 10.100 194.900 H 13.000 C 13.100 194.900 13.000 194.800 13.000 194.900 V 200.700 C 13.000 200.800 13.100 200.700 13.000 200.700 H 10.100 C 10.045 200.700 10.000 200.745 10.000 200.800 V 208.800 V 211.800 C 10.000 211.855 10.045 211.900 10.100 211.900 H 13.100 Z" stroke="rgb(0,0,0)" stroke-width="0.20" />
  <text dominant-baseline="hanging" font-size="4px" style="font-family: sans-serif ; font-weight: normal; font-style: normal; fill: rgb(255,0,0)" text-anchor="middle" transform="matrix( 1.000 0.000 0.000 1.000 60.100 159.900 )">Wall 3</text>
</g>
<g id="p-5" style="fill:none;stroke-linecap:round;stroke-linejoin:round;">
  <path d="M 13.100 107.200 H 21.000 C 21.100 107.200 21.000 107.100 21.000 107.200 V 110.100 C 21.000 110.155 21.045 110.200 21.100 110.200 H 27.100 C 27.155 110.200 27.200 110.155 27.200 110.100 V 107.200 C 27.200 107.100 27.100 107.200 27.200 107.200 H 33.000 C 33.100 107.200 33.000 107.100 33.000 107.200 V 110.100 C 33.000 110.155 33.045 110.200 33.100 110.200 H 39.100 C 39.155 110.200 39.200 110.155 39.200 110.100 V 107.200 C 39.200 107.100 39.100 107.200 39.200 107.200 H 45.000 C 45.100 107.200 45.000 107.100 45.000 107.200 V 110.100 C 45.000 110.155 45.045 110.200 45.100 110.200 H 51.100 C 51.155 110.200 51.200 110.155 51.200 110.100 V 107.200 C 51.200 107.100 51.100 107.200 51.200 107.200 H 57.000 C 57.100 107.200 57.000 107.100 57.000 107.200 V 110.100 C 57.000 110.155 57.045 110.200 57.100 110.200 H 63.100 C 63.155 110.200 63.200 110.155 63.200 110.100 V 107.200 C 63.200 107.100 63.100 107.200 63.200 107.200 H 69.000 C 69.100 107.200 69.000 107.100 69.000 107.200 V 110.100 C 69.000 110.155 69.045 110.200 69.100 110.200 H 75.100 C 75.155 110.200 75.200 110.155 75.200 110.100 V 107.200 C 75.200 107.100 75.100 107.200 75.200 107.200 H 81.000 C 81.100 107.200 81.000 107.100 81.000 107.200 V 110.100 C 81.000 110.155 81.045 110.200 81.100 110.200 H 87.100 C 87.155 110.200 87.200 110.155 87.200 110.100 V 107.200 C 87.200 107.100 87.100 107.200 87.200 107.200 H 93.000 C 93.100 107.200 93.000 107.100 93.000 107.200 V 110.100 C 93.000 110.155 93.045 110.200 93.100 110.200 H 99.100 C 99.155 110.200 99.200 110.155 99.200 110.100 V 107.200 C 99.200 107.100 99.100 107.200 99.200 107.200 H 107.100 C 107.155 107.200 107.200 107.155 107.200 107.100 V 99.200 C 107.200 99.100 107.100 99.200 107.200 99.200 H 110.100 C 110.155 99.200 110.200 99.155 110.200 99.100 V 93.100 C 110.200 93.045 110.155 93.000 110.100 93.000 H 107.200 C 107.100 93.000 107.200 93.100 107.200 93.000 V 87.200 C 107.200 87.100 107.100 87.200 107.200 87.200 H 110.100 C 110.155 87.200 110.200 87.155 110.200 87.100 V 81.100 C 110.200 81.045 110.155 81.000 110.100 81.000 H 107.200 C 107.100 81.000 107.200 81.100 107.200 81.000 V 75.200 C 107.200 75.100 107.100 75.200 107.200 75.200 H 110.100 C 110.155 75.200 110.200 75.155 110.200 75.100 V 69.100 C 110.200 69.045 110.155 69.000 110.100 69.000 H 107.200 C 107.100 69.000 107.200 69.100 107.200 69.000 V 63.200 C 107.200 63.100 107.100 63.200 107.200 63.200 H 110.100 C 110.155 63.200 110.200 63.155 110.200 63.100 V 57.100 C 110.200 57.045 110.155 57.000 110.100 57.000 H 107.200 C 107.100 57.000 107.200 57.100 107.200 57.000 V 51.200 C 107.200 51.100 107.100 51.200 107.200 51.200 H 110.100 C 110.155 51.200 110.200 51.155 110.200 51.100 V 45.100 C 110.200 45.045 110.155 45.000 110.100 45.000 H 107.200 C 107.100 45.000 107.200 45.100 107.200 45.000 V 39.200 C 107.200 39.100 107.100 39.200 107.200 39.200 H 110.100 C 110.155 39.200 110.200 39.155 110.200 39.100 V 33.100 C 110.200 33.045 110.155 33.000 110.100 33.000 H 107.200 C 107.100 33.000 107.200 33.100 107.200 33.000 V 27.200 C 107.200 27.100 107.100 27.200 107.200 27.200 H 110.100 C 110.155 27.200 110.200 27.155 110.200 27.100 V 21.100 C 110.200 21.045 110.155 21.000 110.100 21.000 H 107.200 C 107.100 21.000 107.200 21.100 107.200 21.000 V 13.100 C 107.200 13.045 107.155 13.000 107.100 13.000 H 99.200 C 99.100 13.000 99.200 13.100 99.200 13.000 V 10.100 C 99.200 10.045 99.155 10.000 99.100 10.000 H 93.100 C 93.045 10.000 93.000 10.045 93.000 10.100 V 13.000 C 93.000 13.100 93.100 13.000 93.000 13.000 H 87.200 C 87.100 13.000 87.200 13.100 87.200 13.000 V 10.100 C 87.200 10.045 87.155 10.000 87.100 10.000 H 81.100 C 81.045 10.000 81.000 10.045 81.000 10.100 V 13.000 C 81.000 13.100 81.100 13.000 81.000 13.000 H 75.200 C 75.100 13.000 75.200 13.100 75.200 13.000 V 10.100 C 75.200 10.045 75.155 10.000 75.100 10.000 H 69.100 C 69.045 10.000 69.000 10.045 69.000 10.100 V 13.000 C 69.000 13.100 69.100 13.000 69.000 13.000 H 63.200 C 63.100 13.000 63.200 13.100 63.200 13.000 V 10.100 C 63.200 10.045 63.155 10.000 63.100 10.000 H 57.100 C 57.045 10.000 57.000 10.045 57.000 10.100 V 13.000 C 57.000 13.100 57.100 13.000 57.000 13.000 H 51.200 C 51.100 13.000 51.200 13.100 51.200 13.000 V 10.100 C 51.200 10.045 51.155 10.000 51.100 10.000 H 45.100 C 45.045 10.000 45.000 10.045 45.000 10.100 V 13.000 C 45.000 13.100 45.100 13.000 45.000 13.000 H 39.200 C 39.100 13.000 39.200 13.100 39.200 13.000 V 10.100 C 39.200 10.045 39.155 10.000 39.100 10.000 H 33.100 C 33.045 10.000 33.000 10.045 33.000 10.100 V 13.000 C 33.000 13.100 33.100 13.000 33.000 13.000 H 27.200 C 27.100 13.000 27.200 13.100 27.200 13.000 V 10.100 C 27.200 10.045 27.155 10.000 27.100 10.000 H 21.100 C 21.045 10.000 21.000 10.045 21.000 10.100 V 13.000 C 21.000 13.100 21.100 13.000 21.000 13.000 H 13.100 C 13.045 13.000 13.000 13.045 13.000 13.100 V 21.000 C 13.000 21.100 13.100 21.000 13.000 21.000 H 10.100 C 10.045 21.000 10.000 21.045 10.000 21.100 V 27.100 C 10.000 27.155 10.045 27.200 10.100 27.200 H 13.000 C 13.100 27.200 13.000 27.100 13.000 27.200 V 33.000 C 13.000 33.100 13.100 33.000 13.000 33.000 H 10.100 C 10.045 33.000 10.000 33.045 10.000 33.100 V 39.100 C 10.000 39.155 10.045 39.200 10.100 39.200 H 13.000 C 13.100 39.200 13.000 39.100 13.000 39.200 V 45.000 C 13.000 45.100 13.100 45.000 13.000 45.000 H 10.100 C 10.045 45.000 10.000 45.045 10.000 45.100 V 51.100 C 10.000 51.155 10.045 51.200 10.100 51.200 H 13.000 C 13.100 51.200 13.000 51.100 13.000 51.200 V 57.000 C 13.000 57.100 13.100 57.000 13.000 57.000 H 10.100 C 10.045 57.000 10.000 57.045 10.000 57.100 V 63.100 C 10.000 63.155 10.045 63.200 10.100 63.200 H 13.000 C 13.100 63.200 13.000 63.100 13.000 63.200 V 69.000 C 13.000 69.100 13.100 69.000 13.000 69.000 H 10.100 C 10.045 69.000 10.000 69.045 10.000 69.100 V 75.100 C 10.000 75.155 10.045 75.200 10.100 75.200 H 13.000 C 13.100 75.200 13.000 75.100 13.000 75.200 V 81.000 C 13.000 81.100 13.100 81.000 13.000 81.000 H 10.100 C 10.045 81.000 10.000 81.045 10.000 81.100 V 87.100 C 10.000 87.155 10.045 87.200 10.100 87.200 H 13.000 C 13.100 87.200 13.000 87.100 13.000 87.200 V 93.000 C 13.000 93.100 13.100 93.000 13.000 93.000 H 10.100 C 10.045 93.000 10.000 93.045 10.000 93.100 V 99.100 C 10.000 99.155 10.045 99.200 10.100 99.200 H 13.000 C 13.100 99.200 13.000 99.100 13.000 99.200 V 107.100 C 13.000 107.155 13.045 107.200 13.100 107.200 Z" stroke="rgb(0,0,0)" stroke-width="0.20" />
  <text dominant-baseline="hanging" font-size="4px" style="font-family: sans-serif ; font-weight: normal; font-style: normal; fill: rgb(255,0,0)" text-anchor="middle" transform="matrix( 1.000 0.000 0.000 1.000 60.100 58.200 )">Top</text>
</g>
<g id="p-6" style="fill:none;stroke-linecap:round;stroke-linejoin:round;">
  <path d="M 114.800 107.200 H 122.700 C 122.800 107.200 122.700 107.100 122.700 107.200 V 110.100 C 122.700 110.155 122.745 110.200 122.800 110.200 H 128.800 C 128.855 110.200 128.900 110.155 128.900 110.100 V 107.200 C 128.900 107.100 128.800 107.200 128.900 107.200 H 134.700 C 134.800 107.200 134.700 107.100 134.700 107.200 V 110.100 C 134.700 110.155 134.745 110.200 134.800 110.200 H 140.800 C 140.855 110.200 140.900 110.155 140.900 110.100 V 107.200 C 140.900 107.100 140.800 107.200 140.900 107.200 H 146.700 C 146.800 107.200 146.700 107.100 146.700 107.200 V 110.100 C 146.700 110.155 146.745 110.200 146.800 110.200 H 152.800 C 152.855 110.200 152.900 110.155 152.900 110.100 V 107.200 C 152.900 107.100 152.800 107.200 152.900 107.200 H 158.700 C 158.800 107.200 158.700 107.100 158.700 107.200 V 110.100 C 158.700 110.155 158.745 110.200 158.800 110.200 H 164.800 C 164.855 110.200 164.900 110.155 164.900 110.100 V 107.200 C 164.900 107.100 164.800 107.200 164.900 107.200 H 170.700 C 170.800 107.200 170.700 107.100 170.700 107.200 V 110.100 C 170.700 110.155 170.745 110.200 170.800 110.200 H 176.800 C 176.855 110.200 176.900 110.155 176.900 110.100 V 107.200 C 176.900 107.100 176.800 107.200 176.900 107.200 H 182.700 C 182.800 107.200 182.700 107.100 182.700 107.200 V 110.100 C 182.700 110.155 182.745 110.200 182.800 110.200 H 188.800 C 188.855 110.200 188.900 110.155 188.900 110.100 V 107.200 C 188.900 107.100 188.800 107.200 188.900 107.200 H 194.700 C 194.800 107.200 194.700 107.100 194.700 107.200 V 110.100 C 194.700 110.155 194.745 110.200 194.800 110.200 H 200.800 C 200.855 110.200 200.900 110.155 200.900 110.100 V 107.200 C 200.900 107.100 200.800 107.200 200.900 107.200 H 208.800 C 208.855 107.200 208.900 107.155 208.900 107.100 V 99.200 C 208.900 99.100 208.800 99.200 208.900 99.200 H 211.800 C 211.855 99.200 211.900 99.155 211.900 99.100 V 93.100 C 211.900 93.045 211.855 93.000 211.800 93.000 H 208.900 C 208.800 93.000 208.900 93.100 208.900 93.000 V 87.200 C 208.900 87.100 208.800 87.200 208.900 87.200 H 211.800 C 211.855 87.200 211.900 87.155 211.900 87.100 V 81.100 C 211.900 81.045 211.855 81.000 211.800 81.000 H 208.900 C 208.800 81.000 208.900 81.100 208.900 81.000 V 75.200 C 208.900 75.100 208.800 75.200 208.900 75.200 H 211.800 C 211.855 75.200 211.900 75.155 211.900 75.100 V 69.100 C 211.900 69.045 211.855 69.000 211.800 69.000 H 208.900 C 208.800 69.000 208.900 69.100 208.900 69.000 V 63.200 C 208.900 63.100 208.800 63.200 208.900 63.200 H 211.800 C 211.855 63.200 211.900 63.155 211.900 63.100 V 57.100 C 211.900 57.045 211.855 57.000 211.800 57.000 H 208.900 C 208.800 57.000 208.900 57.100 208.900 57.000 V 51.200 C 208.900 51.100 208.800 51.200 208.900 51.200 H 211.800 C 211.855 51.200 211.900 51.155 211.900 51.100 V 45.100 C 211.900 45.045 211.855 45.000 211.800 45.000 H 208.900 C 208.800 45.000 208.900 45.100 208.900 45.000 V 39.200 C 208.900 39.100 208.800 39.200 208.900 39.200 H 211.800 C 211.855 39.200 211.900 39.155 211.900 39.100 V 33.100 C 211.900 33.045 211.855 33.000 211.800 33.000 H 208.900 C 208.800 33.000 208.900 33.100 208.900 33.000 V 27.200 C 208.900 27.100 208.800 27.200 208.900 27.200 H 211.800 C 211.855 27.200 211.900 27.155 211.900 27.100 V 21.100 C 211.900 21.045 211.855 21.000 211.800 21.000 H 208.900 C 208.800 21.000 208.900 21.100 208.900 21.000 V 13.100 C 208.900 13.045 208.855 13.000 208.800 13.000 H 200.900 C 200.800 13.000 200.900 13.100 200.900 13.000 V 10.100 C 200.900 10.045 200.855 10.000 200.800 10.000 H 194.800 C 194.745 10.000 194.700 10.045 194.700 10.100 V 13.000 C 194.700 13.100 194.800 13.000 194.700 13.000 H 188.900 C 188.800 13.000 188.900 13.100 188.900 13.000 V 10.100 C 188.900 10.045 188.855 10.000 188.800 10.000 H 182.800 C 182.745 10.000 182.700 10.045 182.700 10.100 V 13.000 C 182.700 13.100 182.800 13.000 182.700 13.000 H 176.900 C 176.800 13.000 176.900 13.100 176.900 13.000 V 10.100 C 176.900 10.045 176.855 10.000 176.800 10.000 H 170.800 C 170.745 10.000 170.700 10.045 170.700 10.100 V 13.000 C 170.700 13.100 170.800 13.000 170.700 13.000 H 164.900 C 164.800 13.000 164.900 13.100 164.900 13.000 V 10.100 C 164.900 10.045 164.855 10.000 164.800 10.000 H 158.800 C 158.745 10.000 158.700 10.045 158.700 10.100 V 13.000 C 158.700 13.100 158.800 13.000 158.700 13.000 H 152.900 C 152.800 13.000 152.900 13.100 152.900 13.000 V 10.100 C 152.900 10.045 152.855 10.000 152.800 10.000 H 146.800 C 146.745 10.000 146.700 10.045 146.700 10.100 V 13.000 C 146.700 13.100 146.800 13.000 146.700 13.000 H 140.900 C 140.800 13.000 140.900 13.100 140.900 13.000 V 10.100 C 140.900 10.045 140.855 10.000 140.800 10.000 H 134.800 C 134.745 10.000 134.700 10.045 134.700 10.100 V 13.000 C 134.700 13.100 134.800 13.000 134.700 13.000 H 128.900 C 128.800 13.000 128.900 13.100 128.900 13.000 V 10.100 C 128.900 10.045 128.855 10.000 128.800 10.000 H 122.800 C 122.745 10.000 122.700 10.045 122.700 10.100 V 13.000 C 122.700 13.100 122.800 13.000 122.700 13.000 H 114.800 C 114.745 13.000 114.700 13.045 114.700 13.100 V 21.000 C 114.700 21.100 114.800 21.000 114.700 21.000 H 111.800 C 111.745 21.000 111.700 21.045 111.700 21.100 V 27.100 C 111.700 27.155 111.745 27.200 111.800 27.200 H 114.700 C 114.800 27.200 114.700 27.100 114.700 27.200 V 33.000 C 114.700 33.100 114.800 33.000 114.700 33.000 H 111.800 C 111.745 33.000 111.700 33.045 111.700 33.100 V 39.100 C 111.700 39.155 111.745 39.200 111.800 39.200 H 114.700 C 114.800 39.200 114.700 39.100 114.700 39.200 V 45.000 C 114.700 45.100 114.800 45.000 114.700 45.000 H 111.800 C 111.745 45.000 111.700 45.045 111.700 45.100 V 51.100 C 111.700 51.155 111.745 51.200 111.800 51.200 H 114.700 C 114.800 51.200 114.700 51.100 114.700 51.200 V 57.000 C 114.700 57.100 114.800 57.000 114.700 57.000 H 111.800 C 111.745 57.000 111.700 57.045 111.700 57.100 V 63.100 C 111.700 63.155 111.745 63.200 111.800 63.200 H 114.700 C 114.800 63.200 114.700 63.100 114.700 63.200 V 69.000 C 114.700 69.100 114.800 69.000 114.700 69.000 H 111.800 C 111.745 69.000 111.700 69.045 111.700 69.100 V 75.100 C 111.700 75.155 111.745 75.200 111.800 75.200 H 114.700 C 114.800 75.200 114.700 75.100 114.700 75.200 V 81.000 C 114.700 81.100 114.800 81.000 114.700 81.000 H 111.800 C 111.745 81.000 111.700 81.045 111.700 81.100 V 87.100 C 111.700 87.155 111.745 87.200 111.800 87.200 H 114.700 C 114.800 87.200 114.700 87.100 114.700 87.200 V 93.000 C 114.700 93.100 114.800 93.000 114.700 93.000 H 111.800 C 111.745 93.000 111.700 93.045 111.700 93.100 V 99.100 C 111.700 99.155 111.745 99.200 111.800 99.200 H 114.700 C 114.800 99.200 114.700 99.100 114.700 99.200 V 107.100 C 114.700 107.155 114.745 107.200 114.800 107.200 Z" stroke="rgb(0,0,0)" stroke-width="0.20" />
  <text dominant-baseline="hanging" font-size="4px" style="font-family: sans-serif ; font-weight: normal; font-style: normal; fill: rgb(255,0,0)" text-anchor="middle" transform="matrix( 1.000 0.000 0.000 1.000 161.800 58.200 )">Bottom</text>
</g>
</svg>