<?xml version='1.0' encoding='utf-8'?>
<svg height="253.10mm" viewBox="0.0 0.0 587.30 253.10" width="587.30mm" xmlns="http://www.w3.org/2000/svg" xmlns:cc="http://creativecommons.org/ns#" xmlns:dc="http://purl.org/dc/elements/1.1/" xmlns:inkscape="http://www.inkscape.org/namespaces/inkscape" xmlns:rdf="http://www.w3.org/1999/02/22-rdf-syntax-ns#" xmlns:svg="http://www.w3.org/2000/svg" xmlns:xlink="http://www.w3.org/1999/xlink">
<!--
CoffeeCapsuleHolder - 
    Coffee capsule holder
    



    You can store your coffee capsule near your espresso machine with this. It works both vertically, or upside down under a shelf.



Created with Boxes.py (https://festi.info/boxes.py)
Command line (remove spaces between dashes): boxes CoffeeCapsuleHolder
-->
<title>CoffeeCapsuleHolder</title>
<metadata>
<rdf:RDF><cc:Work>
<dc:title>Misc - CoffeeCapsuleHolder</dc:title>
<dc:source>boxes CoffeeCapsuleHolder</dc:source>
<dc:description>
    Coffee capsule holder
    


    You can store your coffee capsule near your espresso machine with this. It works both vertically, or upside down under a shelf.


Created with Boxes.py (https://festi.info/boxes.py)
Command line: boxes CoffeeCapsuleHolder
Command line short: boxes CoffeeCapsuleHolder
</dc:description>
</cc:Work></rdf:RDF></metadata>
<g id="p-0" style="fill:none;stroke-linecap:round;stroke-linejoin:round;">
  <path d="M 18.800 243.100 H 118.800 V 233.100 H 18.800 V 243.100 Z" stroke="rgb(0,0,0)" stroke-width="0.20" />
  <text dominant-baseline="hanging" font-size="8px" style="font-family: sans-serif ; font-weight: normal; font-style: normal; fill: rgb(255,0,0)" text-anchor="middle" transform="matrix( 1.000 0.000 0.000 1.000 68.800 234.100 )">100.00mm, burn:0.10mm</text>
</g>
<g id="p-1" style="fill:none;stroke-linecap:round;stroke-linejoin:round;">
  <path d="M 21.800 231.400 H 200.800 C 201.344 231.400 201.879 231.257 202.350 230.985 C 202.821 230.713 203.213 230.321 203.485 229.850 C 203.757 229.379 203.900 228.844 203.900 228.300 V 13.100 C 203.900 12.556 203.757 12.021 203.485 11.550 C 203.213 11.079 202.821 10.687 202.350 10.415 C 201.879 10.143 201.344 10.000 200.800 10.000 H 21.800 C 21.256 10.000 20.721 10.143 20.250 10.415 C 19.779 10.687 19.387 11.079 19.115 11.550 C 18.843 12.021 18.700 12.556 18.700 13.100 V 228.300 C 18.700 228.844 18.843 229.379 19.115 229.850 C 19.387 230.321 19.779 230.713 20.250 230.985 C 20.721 231.257 21.256 231.400 21.800 231.400 Z M 25.700 35.600 C 25.700 37.870 26.094 40.123 26.865 42.258 C 27.636 44.393 28.773 46.378 30.223 48.124 C 30.208 48.106 30.200 48.083 30.200 48.060 V 206.439 C 30.200 209.090 30.898 211.693 32.223 213.989 C 33.548 216.284 35.455 218.191 37.750 219.516 C 40.045 220.841 42.649 221.539 45.300 221.539 C 47.951 221.539 50.555 220.841 52.850 219.516 C 55.145 218.191 57.052 216.284 58.377 213.989 C 59.702 211.693 60.400 209.090 60.400 206.439 V 48.060 C 60.400 48.083 60.392 48.106 60.377 48.124 C 61.827 46.378 62.964 44.393 63.735 42.258 C 64.506 40.123 64.900 37.870 64.900 35.600 C 64.900 32.159 63.994 28.780 62.274 25.800 C 60.554 22.820 58.080 20.346 55.100 18.626 C 52.120 16.906 48.741 16.000 45.300 16.000 C 41.859 16.000 38.480 16.906 35.500 18.626 C 32.520 20.346 30.046 22.820 28.326 25.800 C 26.606 28.780 25.700 32.159 25.700 35.600 Z M 69.700 35.600 C 69.700 37.870 70.094 40.123 70.865 42.258 C 71.636 44.393 72.773 46.378 74.223 48.124 C 74.208 48.106 74.200 48.083 74.200 48.060 V 206.439 C 74.200 209.090 74.898 211.693 76.223 213.989 C 77.548 216.284 79.455 218.191 81.750 219.516 C 84.045 220.841 86.649 221.539 89.300 221.539 C 91.951 221.539 94.555 220.841 96.850 219.516 C 99.145 218.191 101.052 216.284 102.377 213.989 C 103.702 211.693 104.400 209.090 104.400 206.439 V 48.060 C 104.400 48.083 104.392 48.106 104.377 48.124 C 105.827 46.378 106.964 44.393 107.735 42.258 C 108.506 40.123 108.900 37.870 108.900 35.600 C 108.900 32.159 107.994 28.780 106.274 25.800 C 104.554 22.820 102.080 20.346 99.100 18.626 C 96.120 16.906 92.741 16.000 89.300 16.000 C 85.859 16.000 82.480 16.906 79.500 18.626 C 76.520 20.346 74.046 22.820 72.326 25.800 C 70.606 28.780 69.700 32.159 69.700 35.600 Z M 113.700 35.600 C 113.700 37.870 114.094 40.123 114.865 42.258 C 115.636 44.393 116.773 46.378 118.223 48.124 C 118.208 48.106 118.200 48.083 118.200 48.060 V 206.439 C 118.200 209.090 118.898 211.693 120.223 213.989 C 121.548 216.284 123.455 218.191 125.750 219.516 C 128.045 220.841 130.649 221.539 133.300 221.539 C 135.951 221.539 138.555 220.841 140.850 219.516 C 143.145 218.191 145.052 216.284 146.377 213.989 C 147.702 211.693 148.400 209.090 148.400 206.439 V 48.060 C 148.400 48.083 148.392 48.106 148.377 48.124 C 149.827 46.378 150.964 44.393 151.735 42.258 C 152.506 40.123 152.900 37.870 152.900 35.600 C 152.900 32.159 151.994 28.780 150.274 25.800 C 148.554 22.820 146.080 20.346 143.100 18.626 C 140.120 16.906 136.741 16.000 133.300 16.000 C 129.859 16.000 126.480 16.906 123.500 18.626 C 120.520 20.346 118.046 22.820 116.326 25.800 C 114.606 28.780 113.700 32.159 113.700 35.600 Z M 157.700 35.600 C 157.700 37.870 158.094 40.123 158.865 42.258 C 159.636 44.393 160.773 46.378 162.223 48.124 C 162.208 48.106 162.200 48.083 162.200 48.060 V 206.439 C 162.200 209.090 162.898 211.693 164.223 213.989 C 165.548 216.284 167.455 218.191 169.750 219.516 C 172.045 220.841 174.649 221.539 177.300 221.539 C 179.951 221.539 182.555 220.841 184.850 219.516 C 187.145 218.191 189.052 216.284 190.377 213.989 C 191.702 211.693 192.400 209.090 192.400 206.439 V 48.060 C 192.400 48.083 192.392 48.106 192.377 48.124 C 193.827 46.378 194.964 44.393 195.735 42.258 C 196.506 40.123 196.900 37.870 196.900 35.600 C 196.900 32.159 195.994 28.780 194.274 25.800 C 192.554 22.820 190.080 20.346 187.100 18.626 C 184.120 16.906 180.741 16.000 177.300 16.000 C 173.859 16.000 170.480 16.906 167.500 18.626 C 164.520 20.346 162.046 22.820 160.326 25.800 C 158.606 28.780 157.700 32.159 157.700 35.600 Z" stroke="rgb(0,0,0)" stroke-width="0.20" />
  <path d="M 28.200 225.300 C 28.200 225.952 28.013 226.590 27.660 227.138 C 27.308 227.687 26.805 228.122 26.212 228.393 C 25.620 228.664 24.961 228.758 24.316 228.665 C 23.671 228.573 23.066 228.296 22.573 227.870 C 22.081 227.443 21.721 226.883 21.538 226.258 C 21.354 225.632 21.354 224.968 21.538 224.342 C 21.721 223.717 22.081 223.157 22.573 222.730 C 23.066 222.304 23.671 222.027 24.316 221.935 C 24.961 221.842 25.620 221.936 26.212 222.207 C 26.805 222.478 27.308 222.913 27.660 223.462 C 28.013 224.010 28.200 224.648 28.200 225.300 Z" stroke="rgb(0,0,255)" stroke-width="0.20" />
  <path d="M 28.200 16.100 C 28.200 16.752 28.013 17.390 27.660 17.938 C 27.308 18.487 26.805 18.922 26.212 19.193 C 25.620 19.464 24.961 19.558 24.316 19.465 C 23.671 19.373 23.066 19.096 22.573 18.670 C 22.081 18.243 21.721 17.683 21.538 17.058 C 21.354 16.432 21.354 15.768 21.538 15.142 C 21.721 14.517 22.081 13.957 22.573 13.530 C 23.066 13.104 23.671 12.827 24.316 12.735 C 24.961 12.642 25.620 12.736 26.212 13.007 C 26.805 13.278 27.308 13.713 27.660 14.262 C 28.013 14.810 28.200 15.448 28.200 16.100 Z" stroke="rgb(0,0,255)" stroke-width="0.20" />
  <path d="M 201.200 225.300 C 201.200 225.952 201.013 226.590 200.660 227.138 C 200.308 227.687 199.805 228.122 199.212 228.393 C 198.620 228.664 197.961 228.758 197.316 228.665 C 196.671 228.573 196.066 228.296 195.573 227.870 C 195.081 227.443 194.721 226.883 194.538 226.258 C 194.354 225.632 194.354 224.968 194.538 224.342 C 194.721 223.717 195.081 223.157 195.573 222.730 C 196.066 222.304 196.671 222.027 197.316 221.935 C 197.961 221.842 198.620 221.936 199.212 222.207 C 199.805 222.478 200.308 222.913 200.660 223.462 C 201.013 224.010 201.200 224.648 201.200 225.300 Z" stroke="rgb(0,0,255)" stroke-width="0.20" />
  <path d="M 201.200 16.100 C 201.200 16.752 201.013 17.390 200.660 17.938 C 200.308 18.487 199.805 18.922 199.212 19.193 C 198.620 19.464 197.961 19.558 197.316 19.465 C 196.671 19.373 196.066 19.096 195.573 18.670 C 195.081 18.243 194.721 17.683 194.538 17.058 C 194.354 16.432 194.354 15.768 194.538 15.142 C 194.721 14.517 195.081 13.957 195.573 13.530 C 196.066 13.104 196.671 12.827 197.316 12.735 C 197.961 12.642 198.620 12.736 199.212 13.007 C 199.805 13.278 200.308 13.713 200.660 14.262 C 201.013 14.810 201.200 15.448 201.200 16.100 Z" stroke="rgb(0,0,255)" stroke-width="0.20" />
</g>
<g id="p-2" style="fill:none;stroke-linecap:round;stroke-linejoin:round;">
  <path d="M 208.500 231.400 H 387.500 C 388.044 231.400 388.579 231.257 389.050 230.985 C 389.521 230.713 389.913 230.321 390.185 229.850 C 390.457 229.379 390.600 228.844 390.600 228.300 V 13.100 C 390.600 12.556 390.457 12.021 390.185 11.550 C 389.913 11.079 389.521 10.687 389.050 10.415 C 388.579 10.143 388.044 10.000 387.500 10.000 H 208.500 C 207.956 10.000 207.421 10.143 206.950 10.415 C 206.479 10.687 206.087 11.079 205.815 11.550 C 205.543 12.021 205.400 12.556 205.400 13.100 V 228.300 C 205.400 228.844 205.543 229.379 205.815 229.850 C 206.087 230.321 206.479 230.713 206.950 230.985 C 207.421 231.257 207.956 231.400 208.500 231.400 Z M 212.400 35.600 V 205.800 C 212.400 209.241 213.306 212.620 215.026 215.600 C 216.746 218.580 219.220 221.054 222.200 222.774 C 225.180 224.494 228.559 225.400 232.000 225.400 C 235.441 225.400 238.820 224.494 241.800 222.774 C 244.780 221.054 247.254 218.580 248.974 215.600 C 250.694 212.620 251.600 209.241 251.600 205.800 V 35.600 C 251.600 32.159 250.694 28.780 248.974 25.800 C 247.254 22.820 244.780 20.346 241.800 18.626 C 238.820 16.906 235.441 16.000 232.000 16.000 C 228.559 16.000 225.180 16.906 222.200 18.626 C 219.220 20.346 216.746 22.820 215.026 25.800 C 213.306 28.780 212.400 32.159 212.400 35.600 Z M 256.400 35.600 V 205.800 C 256.400 209.241 257.306 212.620 259.026 215.600 C 260.746 218.580 263.220 221.054 266.200 222.774 C 269.180 224.494 272.559 225.400 276.000 225.400 C 279.441 225.400 282.820 224.494 285.800 222.774 C 288.780 221.054 291.254 218.580 292.974 215.600 C 294.694 212.620 295.600 209.241 295.600 205.800 V 35.600 C 295.600 32.159 294.694 28.780 292.974 25.800 C 291.254 22.820 288.780 20.346 285.800 18.626 C 282.820 16.906 279.441 16.000 276.000 16.000 C 272.559 16.000 269.180 16.906 266.200 18.626 C 263.220 20.346 260.746 22.820 259.026 25.800 C 257.306 28.780 256.400 32.159 256.400 35.600 Z M 300.400 35.600 V 205.800 C 300.400 209.241 301.306 212.620 303.026 215.600 C 304.746 218.580 307.220 221.054 310.200 222.774 C 313.180 224.494 316.559 225.400 320.000 225.400 C 323.441 225.400 326.820 224.494 329.800 222.774 C 332.780 221.054 335.254 218.580 336.974 215.600 C 338.694 212.620 339.600 209.241 339.600 205.800 V 35.600 C 339.600 32.159 338.694 28.780 336.974 25.800 C 335.254 22.820 332.780 20.346 329.800 18.626 C 326.820 16.906 323.441 16.000 320.000 16.000 C 316.559 16.000 313.180 16.906 310.200 18.626 C 307.220 20.346 304.746 22.820 303.026 25.800 C 301.306 28.780 300.400 32.159 300.400 35.600 Z M 344.400 35.600 V 205.800 C 344.400 209.241 345.306 212.620 347.026 215.600 C 348.746 218.580 351.220 221.054 354.200 222.774 C 357.180 224.494 360.559 225.400 364.000 225.400 C 367.441 225.400 370.820 224.494 373.800 222.774 C 376.780 221.054 379.254 218.580 380.974 215.600 C 382.694 212.620 383.600 209.241 383.600 205.800 V 35.600 C 383.600 32.159 382.694 28.780 380.974 25.800 C 379.254 22.820 376.780 20.346 373.800 18.626 C 370.820 16.906 367.441 16.000 364.000 16.000 C 360.559 16.000 357.180 16.906 354.200 18.626 C 351.220 20.346 348.746 22.820 347.026 25.800 C 345.306 28.780 344.400 32.159 344.400 35.600 Z" stroke="rgb(0,0,0)" stroke-width="0.20" />
  <path d="M 213.150 225.300 C 213.150 225.616 213.059 225.926 212.888 226.192 C 212.717 226.458 212.473 226.669 212.185 226.801 C 211.898 226.932 211.578 226.978 211.265 226.933 C 210.952 226.888 210.659 226.754 210.419 226.547 C 210.180 226.340 210.006 226.068 209.917 225.765 C 209.828 225.461 209.828 225.139 209.917 224.835 C 210.006 224.532 210.180 224.260 210.419 224.053 C 210.659 223.846 210.952 223.712 211.265 223.667 C 211.578 223.622 211.898 223.668 212.185 223.799 C 212.473 223.931 212.717 224.142 212.888 224.408 C 213.059 224.674 213.150 224.984 213.150 225.300 Z" stroke="rgb(0,0,255)" stroke-width="0.20" />
  <path d="M 213.150 16.100 C 213.150 16.416 213.059 16.726 212.888 16.992 C 212.717 17.258 212.473 17.469 212.185 17.601 C 211.898 17.732 211.578 17.778 211.265 17.733 C 210.952 17.688 210.659 17.554 210.419 17.347 C 210.180 17.140 210.006 16.868 209.917 16.565 C 209.828 16.261 209.828 15.939 209.917 15.635 C 210.006 15.332 210.180 15.060 210.419 14.853 C 210.659 14.646 210.952 14.512 211.265 14.467 C 211.578 14.422 211.898 14.468 212.185 14.599 C 212.473 14.731 212.717 14.942 212.888 15.208 C 213.059 15.474 213.150 15.784 213.150 16.100 Z" stroke="rgb(0,0,255)" stroke-width="0.20" />
  <path d="M 386.150 225.300 C 386.150 225.616 386.059 225.926 385.888 226.192 C 385.717 226.458 385.473 226.669 385.185 226.801 C 384.898 226.932 384.578 226.978 384.265 226.933 C 383.952 226.888 383.659 226.754 383.419 226.547 C 383.180 226.340 383.006 226.068 382.917 225.765 C 382.828 225.461 382.828 225.139 382.917 224.835 C 383.006 224.532 383.180 224.260 383.419 224.053 C 383.659 223.846 383.952 223.712 384.265 223.667 C 384.578 223.622 384.898 223.668 385.185 223.799 C 385.473 223.931 385.717 224.142 385.888 224.408 C 386.059 224.674 386.150 224.984 386.150 225.300 Z" stroke="rgb(0,0,255)" stroke-width="0.20" />
  <path d="M 386.150 16.100 C 386.150 16.416 386.059 16.726 385.888 16.992 C 385.717 17.258 385.473 17.469 385.185 17.601 C 384.898 17.732 384.578 17.778 384.265 17.733 C 383.952 17.688 383.659 17.554 383.419 17.347 C 383.180 17.140 383.006 16.868 382.917 16.565 C 382.828 16.261 382.828 15.939 382.917 15.635 C 383.006 15.332 383.180 15.060 383.419 14.853 C 383.659 14.646 383.952 14.512 384.265 14.467 C 384.578 14.422 384.898 14.468 385.185 14.599 C 385.473 14.731 385.717 14.942 385.888 15.208 C 386.059 15.474 386.150 15.784 386.150 16.100 Z" stroke="rgb(0,0,255)" stroke-width="0.20" />
</g>
<g id="p-3" style="fill:none;stroke-linecap:round;stroke-linejoin:round;">
  <path d="M 395.200 231.400 H 574.200 C 574.744 231.400 575.279 231.257 575.750 230.985 C 576.221 230.713 576.613 230.321 576.885 229.850 C 577.157 229.379 577.300 228.844 577.300 228.300 V 13.100 C 577.300 12.556 577.157 12.021 576.885 11.550 C 576.613 11.079 576.221 10.687 575.750 10.415 C 575.279 10.143 574.744 10.000 574.200 10.000 H 395.200 C 394.656 10.000 394.121 10.143 393.650 10.415 C 393.179 10.687 392.787 11.079 392.515 11.550 C 392.243 12.021 392.100 12.556 392.100 13.100 V 228.300 C 392.100 228.844 392.243 229.379 392.515 229.850 C 392.787 230.321 393.179 230.713 393.650 230.985 C 394.121 231.257 394.656 231.400 395.200 231.400 Z" stroke="rgb(0,0,0)" stroke-width="0.20" />
  <path d="M 399.850 225.300 C 399.850 225.616 399.759 225.926 399.588 226.192 C 399.417 226.458 399.173 226.669 398.885 226.801 C 398.598 226.932 398.278 226.978 397.965 226.933 C 397.652 226.888 397.359 226.754 397.119 226.547 C 396.880 226.340 396.706 226.068 396.617 225.765 C 396.528 225.461 396.528 225.139 396.617 224.835 C 396.706 224.532 396.880 224.260 397.119 224.053 C 397.359 223.846 397.652 223.712 397.965 223.667 C 398.278 223.622 398.598 223.668 398.885 223.799 C 399.173 223.931 399.417 224.142 399.588 224.408 C 399.759 224.674 399.850 224.984 399.850 225.300 Z" stroke="rgb(0,0,255)" stroke-width="0.20" />
  <path d="M 399.850 16.100 C 399.850 16.416 399.759 16.726 399.588 16.992 C 399.417 17.258 399.173 17.469 398.885 17.601 C 398.598 17.732 398.278 17.778 397.965 17.733 C 397.652 17.688 397.359 17.554 397.119 17.347 C 396.880 17.140 396.706 16.868 396.617 16.565 C 396.528 16.261 396.528 15.939 396.617 15.635 C 396.706 15.332 396.880 15.060 397.119 14.853 C 397.359 14.646 397.652 14.512 397.965 14.467 C 398.278 14.422 398.598 14.468 398.885 14.599 C 399.173 14.731 399.417 14.942 399.588 15.208 C 399.759 15.474 399.850 15.784 399.850 16.100 Z" stroke="rgb(0,0,255)" stroke-width="0.20" />
  <path d="M 572.850 225.300 C 572.850 225.616 572.759 225.926 572.588 226.192 C 572.417 226.458 572.173 226.669 571.885 226.801 C 571.598 226.932 571.278 226.978 570.965 226.933 C 570.652 226.888 570.359 226.754 570.119 226.547 C 569.880 226.340 569.706 226.068 569.617 225.765 C 569.528 225.461 569.528 225.139 569.617 224.835 C 569.706 224.532 569.880 224.260 570.119 224.053 C 570.359 223.846 570.652 223.712 570.965 223.667 C 571.278 223.622 571.598 223.668 571.885 223.799 C 572.173 223.931 572.417 224.142 572.588 224.408 C 572.759 224.674 572.850 224.984 572.850 225.300 Z" stroke="rgb(0,0,255)" stroke-width="0.20" />
  <path d="M 572.850 16.100 C 572.850 16.416 572.759 16.726 572.588 16.992 C 572.417 17.258 572.173 17.469 571.885 17.601 C 571.598 17.732 571.278 17.778 570.965 17.733 C 570.652 17.688 570.359 17.554 570.119 17.347 C 569.880 17.140 569.706 16.868 569.617 16.565 C 569.528 16.261 569.528 15.939 569.617 15.635 C 569.706 15.332 569.880 15.060 570.119 14.853 C 570.359 14.646 570.652 14.512 570.965 14.467 C 571.278 14.422 571.598 14.468 571.885 14.599 C 572.173 14.731 572.417 14.942 572.588 15.208 C 572.759 15.474 572.850 15.784 572.850 16.100 Z" stroke="rgb(0,0,255)" stroke-width="0.20" />
</g>
</svg>