<?xml version='1.0' encoding='utf-8'?>
<svg height="253.10mm" viewBox="0.0 0.0 578.60 253.10" width="578.60mm" xmlns="http://www.w3.org/2000/svg" xmlns:cc="http://creativecommons.org/ns#" xmlns:dc="http://purl.org/dc/elements/1.1/" xmlns:inkscape="http://www.inkscape.org/namespaces/inkscape" xmlns:rdf="http://www.w3.org/1999/02/22-rdf-syntax-ns#" xmlns:svg="http://www.w3.org/2000/svg" xmlns:xlink="http://www.w3.org/1999/xlink">
<!--
CoffeeCapsuleHolder - 
    Coffee capsule holder
    



    You can store your coffee capsule near your espresso machine with this. It works both vertically, or upside down under a shelf.



Created with Boxes.py (https://festi.info/boxes.py)
Command line (remove spaces between dashes): boxes CoffeeCapsuleHolder
-->
<title>CoffeeCapsuleHolder</title>
<metadata>
<rdf:RDF><cc:Work>
<dc:title>Misc - CoffeeCapsuleHolder</dc:title>
<dc:source>boxes CoffeeCapsuleHolder</dc:source>
<dc:description>
    Coffee capsule holder
    


    You can store your coffee capsule near your espresso machine with this. It works both vertically, or upside down under a shelf.


Created with Boxes.py (https://festi.info/boxes.py)
Command line: boxes CoffeeCapsuleHolder
Command line short: boxes CoffeeCapsuleHolder
</dc:description>
</cc:Work></rdf:RDF></metadata>
<g id="p-0" style="fill:none;stroke-linecap:round;stroke-linejoin:round;">
  <path d="M 10.100 243.100 H 110.100 V 233.100 H 10.100 V 243.100 Z" stroke="rgb(0,0,0)" stroke-width="0.20" />
  <text dominant-baseline="hanging" font-size="6px" style="font-family: sans-serif ; font-weight: normal; font-style: normal; fill: rgb(255,0,0)" text-anchor="middle" transform="matrix( 1.000 0.000 0.000 1.000 60.100 235.100 )">100.0mm, burn:0.10mm</text>
</g>
<g id="p-1" style="fill:none;stroke-linecap:round;stroke-linejoin:round;">
  <path d="M 13.100 231.400 H 192.100 C 192.644 231.400 193.179 231.257 193.650 230.985 C 194.121 230.713 194.513 230.321 194.785 229.850 C 195.057 229.379 195.200 228.844 195.200 228.300 V 13.100 C 195.200 12.556 195.057 12.021 194.785 11.550 C 194.513 11.079 194.121 10.687 193.650 10.415 C 193.179 10.143 192.644 10.000 192.100 10.000 H 13.100 C 12.556 10.000 12.021 10.143 11.550 10.415 C 11.079 10.687 10.687 11.079 10.415 11.550 C 10.143 12.021 10.000 12.556 10.000 13.100 V 228.300 C 10.000 228.844 10.143 229.379 10.415 229.850 C 10.687 230.321 11.079 230.713 11.550 230.985 C 12.021 231.257 12.556 231.400 13.100 231.400 Z M 17.000 35.600 C 17.000 37.870 17.394 40.123 18.165 42.258 C 18.936 44.393 20.073 46.378 21.523 48.124 C 21.508 48.106 21.500 48.083 21.500 48.060 V 206.439 C 21.500 209.090 22.198 211.693 23.523 213.989 C 24.848 216.284 26.755 218.191 29.050 219.516 C 31.345 220.841 33.949 221.539 36.600 221.539 C 39.251 221.539 41.855 220.841 44.150 219.516 C 46.445 218.191 48.352 216.284 49.677 213.989 C 51.002 211.693 51.700 209.090 51.700 206.439 V 48.060 C 51.700 48.083 51.692 48.106 51.677 48.124 C 53.127 46.378 54.264 44.393 55.035 42.258 C 55.806 40.123 56.200 37.870 56.200 35.600 C 56.200 32.159 55.294 28.780 53.574 25.800 C 51.854 22.820 49.380 20.346 46.400 18.626 C 43.420 16.906 40.041 16.000 36.600 16.000 C 33.159 16.000 29.780 16.906 26.800 18.626 C 23.820 20.346 21.346 22.820 19.626 25.800 C 17.906 28.780 17.000 32.159 17.000 35.600 Z M 61.000 35.600 C 61.000 37.870 61.394 40.123 62.165 42.258 C 62.936 44.393 64.073 46.378 65.523 48.124 C 65.508 48.106 65.500 48.083 65.500 48.060 V 206.439 C 65.500 209.090 66.198 211.693 67.523 213.989 C 68.848 216.284 70.755 218.191 73.050 219.516 C 75.345 220.841 77.949 221.539 80.600 221.539 C 83.251 221.539 85.855 220.841 88.150 219.516 C 90.445 218.191 92.352 216.284 93.677 213.989 C 95.002 211.693 95.700 209.090 95.700 206.439 V 48.060 C 95.700 48.083 95.692 48.106 95.677 48.124 C 97.127 46.378 98.264 44.393 99.035 42.258 C 99.806 40.123 100.200 37.870 100.200 35.600 C 100.200 32.159 99.294 28.780 97.574 25.800 C 95.854 22.820 93.380 20.346 90.400 18.626 C 87.420 16.906 84.041 16.000 80.600 16.000 C 77.159 16.000 73.780 16.906 70.800 18.626 C 67.820 20.346 65.346 22.820 63.626 25.800 C 61.906 28.780 61.000 32.159 61.000 35.600 Z M 105.000 35.600 C 105.000 37.870 105.394 40.123 106.165 42.258 C 106.936 44.393 108.073 46.378 109.523 48.124 C 109.508 48.106 109.500 48.083 109.500 48.060 V 206.439 C 109.500 209.090 110.198 211.693 111.523 213.989 C 112.848 216.284 114.755 218.191 117.050 219.516 C 119.345 220.841 121.949 221.539 124.600 221.539 C 127.251 221.539 129.855 220.841 132.150 219.516 C 134.445 218.191 136.352 216.284 137.677 213.989 C 139.002 211.693 139.700 209.090 139.700 206.439 V 48.060 C 139.700 48.083 139.692 48.106 139.677 48.124 C 141.127 46.378 142.264 44.393 143.035 42.258 C 143.806 40.123 144.200 37.870 144.200 35.600 C 144.200 32.159 143.294 28.780 141.574 25.800 C 139.854 22.820 137.380 20.346 134.400 18.626 C 131.420 16.906 128.041 16.000 124.600 16.000 C 121.159 16.000 117.780 16.906 114.800 18.626 C 111.820 20.346 109.346 22.820 107.626 25.800 C 105.906 28.780 105.000 32.159 105.000 35.600 Z M 149.000 35.600 C 149.000 37.870 149.394 40.123 150.165 42.258 C 150.936 44.393 152.073 46.378 153.523 48.124 C 153.508 48.106 153.500 48.083 153.500 48.060 V 206.439 C 153.500 209.090 154.198 211.693 155.523 213.989 C 156.848 216.284 158.755 218.191 161.050 219.516 C 163.345 220.841 165.949 221.539 168.600 221.539 C 171.251 221.539 173.855 220.841 176.150 219.516 C 178.445 218.191 180.352 216.284 181.677 213.989 C 183.002 211.693 183.700 209.090 183.700 206.439 V 48.060 C 183.700 48.083 183.692 48.106 183.677 48.124 C 185.127 46.378 186.264 44.393 187.035 42.258 C 187.806 40.123 188.200 37.870 188.200 35.600 C 188.200 32.159 187.294 28.780 185.574 25.800 C 183.854 22.820 181.380 20.346 178.400 18.626 C 175.420 16.906 172.041 16.000 168.600 16.000 C 165.159 16.000 161.780 16.906 158.800 18.626 C 155.820 20.346 153.346 22.820 151.626 25.800 C 149.906 28.780 149.000 32.159 149.000 35.600 Z" stroke="rgb(0,0,0)" stroke-width="0.20" />
  <path d="M 19.500 225.300 C 19.500 225.952 19.313 226.590 18.960 227.138 C 18.608 227.687 18.105 228.122 17.512 228.393 C 16.920 228.664 16.261 228.758 15.616 228.665 C 14.971 228.573 14.366 228.296 13.873 227.870 C 13.381 227.443 13.021 226.883 12.838 226.258 C 12.654 225.632 12.654 224.968 12.838 224.342 C 13.021 223.717 13.381 223.157 13.873 222.730 C 14.366 222.304 14.971 222.027 15.616 221.935 C 16.261 221.842 16.920 221.936 17.512 222.207 C 18.105 222.478 18.608 222.913 18.960 223.462 C 19.313 224.010 19.500 224.648 19.500 225.300 Z" stroke="rgb(0,0,255)" stroke-width="0.20" />
  <path d="M 19.500 16.100 C 19.500 16.752 19.313 17.390 18.960 17.938 C 18.608 18.487 18.105 18.922 17.512 19.193 C 16.920 19.464 16.261 19.558 15.616 19.465 C 14.971 19.373 14.366 19.096 13.873 18.670 C 13.381 18.243 13.021 17.683 12.838 17.058 C 12.654 16.432 12.654 15.768 12.838 15.142 C 13.021 14.517 13.381 13.957 13.873 13.530 C 14.366 13.104 14.971 12.827 15.616 12.735 C 16.261 12.642 16.920 12.736 17.512 13.007 C 18.105 13.278 18.608 13.713 18.960 14.262 C 19.313 14.810 19.500 15.448 19.500 16.100 Z" stroke="rgb(0,0,255)" stroke-width="0.20" />
  <path d="M 192.500 225.300 C 192.500 225.952 192.313 226.590 191.960 227.138 C 191.608 227.687 191.105 228.122 190.512 228.393 C 189.920 228.664 189.261 228.758 188.616 228.665 C 187.971 228.573 187.366 228.296 186.873 227.870 C 186.381 227.443 186.021 226.883 185.838 226.258 C 185.654 225.632 185.654 224.968 185.838 224.342 C 186.021 223.717 186.381 223.157 186.873 222.730 C 187.366 222.304 187.971 222.027 188.616 221.935 C 189.261 221.842 189.920 221.936 190.512 222.207 C 191.105 222.478 191.608 222.913 191.960 223.462 C 192.313 224.010 192.500 224.648 192.500 225.300 Z" stroke="rgb(0,0,255)" stroke-width="0.20" />
  <path d="M 192.500 16.100 C 192.500 16.752 192.313 17.390 191.960 17.938 C 191.608 18.487 191.105 18.922 190.512 19.193 C 189.920 19.464 189.261 19.558 188.616 19.465 C 187.971 19.373 187.366 19.096 186.873 18.670 C 186.381 18.243 186.021 17.683 185.838 17.058 C 185.654 16.432 185.654 15.768 185.838 15.142 C 186.021 14.517 186.381 13.957 186.873 13.530 C 187.366 13.104 187.971 12.827 188.616 12.735 C 189.261 12.642 189.920 12.736 190.512 13.007 C 191.105 13.278 191.608 13.713 191.960 14.262 C 192.313 14.810 192.500 15.448 192.500 16.100 Z" stroke="rgb(0,0,255)" stroke-width="0.20" />
</g>
<g id="p-2" style="fill:none;stroke-linecap:round;stroke-linejoin:round;">
  <path d="M 199.800 231.400 H 378.800 C 379.344 231.400 379.879 231.257 380.350 230.985 C 380.821 230.713 381.213 230.321 381.485 229.850 C 381.757 229.379 381.900 228.844 381.900 228.300 V 13.100 C 381.900 12.556 381.757 12.021 381.485 11.550 C 381.213 11.079 380.821 10.687 380.350 10.415 C 379.879 10.143 379.344 10.000 378.800 10.000 H 199.800 C 199.256 10.000 198.721 10.143 198.250 10.415 C 197.779 10.687 197.387 11.079 197.115 11.550 C 196.843 12.021 196.700 12.556 196.700 13.100 V 228.300 C 196.700 228.844 196.843 229.379 197.115 229.850 C 197.387 230.321 197.779 230.713 198.250 230.985 C 198.721 231.257 199.256 231.400 199.800 231.400 Z M 203.700 35.600 V 205.800 C 203.700 209.241 204.606 212.620 206.326 215.600 C 208.046 218.580 210.520 221.054 213.500 222.774 C 216.480 224.494 219.859 225.400 223.300 225.400 C 226.741 225.400 230.120 224.494 233.100 222.774 C 236.080 221.054 238.554 218.580 240.274 215.600 C 241.994 212.620 242.900 209.241 242.900 205.800 V 35.600 C 242.900 32.159 241.994 28.780 240.274 25.800 C 238.554 22.820 236.080 20.346 233.100 18.626 C 230.120 16.906 226.741 16.000 223.300 16.000 C 219.859 16.000 216.480 16.906 213.500 18.626 C 210.520 20.346 208.046 22.820 206.326 25.800 C 204.606 28.780 203.700 32.159 203.700 35.600 Z M 247.700 35.600 V 205.800 C 247.700 209.241 248.606 212.620 250.326 215.600 C 252.046 218.580 254.520 221.054 257.500 222.774 C 260.480 224.494 263.859 225.400 267.300 225.400 C 270.741 225.400 274.120 224.494 277.100 222.774 C 280.080 221.054 282.554 218.580 284.274 215.600 C 285.994 212.620 286.900 209.241 286.900 205.800 V 35.600 C 286.900 32.159 285.994 28.780 284.274 25.800 C 282.554 22.820 280.080 20.346 277.100 18.626 C 274.120 16.906 270.741 16.000 267.300 16.000 C 263.859 16.000 260.480 16.906 257.500 18.626 C 254.520 20.346 252.046 22.820 250.326 25.800 C 248.606 28.780 247.700 32.159 247.700 35.600 Z M 291.700 35.600 V 205.800 C 291.700 209.241 292.606 212.620 294.326 215.600 C 296.046 218.580 298.520 221.054 301.500 222.774 C 304.480 224.494 307.859 225.400 311.300 225.400 C 314.741 225.400 318.120 224.494 321.100 222.774 C 324.080 221.054 326.554 218.580 328.274 215.600 C 329.994 212.620 330.900 209.241 330.900 205.800 V 35.600 C 330.900 32.159 329.994 28.780 328.274 25.800 C 326.554 22.820 324.080 20.346 321.100 18.626 C 318.120 16.906 314.741 16.000 311.300 16.000 C 307.859 16.000 304.480 16.906 301.500 18.626 C 298.520 20.346 296.046 22.820 294.326 25.800 C 292.606 28.780 291.700 32.159 291.700 35.600 Z M 335.700 35.600 V 205.800 C 335.700 209.241 336.606 212.620 338.326 215.600 C 340.046 218.580 342.520 221.054 345.500 222.774 C 348.480 224.494 351.859 225.400 355.300 225.400 C 358.741 225.400 362.120 224.494 365.100 222.774 C 368.080 221.054 370.554 218.580 372.274 215.600 C 373.994 212.620 374.900 209.241 374.900 205.800 V 35.600 C 374.900 32.159 373.994 28.780 372.274 25.800 C 370.554 22.820 368.080 20.346 365.100 18.626 C 362.120 16.906 358.741 16.000 355.300 16.000 C 351.859 16.000 348.480 16.906 345.500 18.626 C 342.520 20.346 340.046 22.820 338.326 25.800 C 336.606 28.780 335.700 32.159 335.700 35.600 Z" stroke="rgb(0,0,0)" stroke-width="0.20" />
  <path d="M 204.450 225.300 C 204.450 225.616 204.359 225.926 204.188 226.192 C 204.017 226.458 203.773 226.669 203.485 226.801 C 203.198 226.932 202.878 226.978 202.565 226.933 C 202.252 226.888 201.959 226.754 201.719 226.547 C 201.480 226.340 201.306 226.068 201.217 225.765 C 201.128 225.461 201.128 225.139 201.217 224.835 C 201.306 224.532 201.480 224.260 201.719 224.053 C 201.959 223.846 202.252 223.712 202.565 223.667 C 202.878 223.622 203.198 223.668 203.485 223.799 C 203.773 223.931 204.017 224.142 204.188 224.408 C 204.359 224.674 204.450 224.984 204.450 225.300 Z" stroke="rgb(0,0,255)" stroke-width="0.20" />
  <path d="M 204.450 16.100 C 204.450 16.416 204.359 16.726 204.188 16.992 C 204.017 17.258 203.773 17.469 203.485 17.601 C 203.198 17.732 202.878 17.778 202.565 17.733 C 202.252 17.688 201.959 17.554 201.719 17.347 C 201.480 17.140 201.306 16.868 201.217 16.565 C 201.128 16.261 201.128 15.939 201.217 15.635 C 201.306 15.332 201.480 15.060 201.719 14.853 C 201.959 14.646 202.252 14.512 202.565 14.467 C 202.878 14.422 203.198 14.468 203.485 14.599 C 203.773 14.731 204.017 14.942 204.188 15.208 C 204.359 15.474 204.450 15.784 204.450 16.100 Z" stroke="rgb(0,0,255)" stroke-width="0.20" />
  <path d="M 377.450 225.300 C 377.450 225.616 377.359 225.926 377.188 226.192 C 377.017 226.458 376.773 226.669 376.485 226.801 C 376.198 226.932 375.878 226.978 375.565 226.933 C 375.252 226.888 374.959 226.754 374.719 226.547 C 374.480 226.340 374.306 226.068 374.217 225.765 C 374.128 225.461 374.128 225.139 374.217 224.835 C 374.306 224.532 374.480 224.260 374.719 224.053 C 374.959 223.846 375.252 223.712 375.565 223.667 C 375.878 223.622 376.198 223.668 376.485 223.799 C 376.773 223.931 377.017 224.142 377.188 224.408 C 377.359 224.674 377.450 224.984 377.450 225.300 Z" stroke="rgb(0,0,255)" stroke-width="0.20" />
  <path d="M 377.450 16.100 C 377.450 16.416 377.359 16.726 377.188 16.992 C 377.017 17.258 376.773 17.469 376.485 17.601 C 376.198 17.732 375.878 17.778 375.565 17.733 C 375.252 17.688 374.959 17.554 374.719 17.347 C 374.480 17.140 374.306 16.868 374.217 16.565 C 374.128 16.261 374.128 15.939 374.217 15.635 C 374.306 15.332 374.480 15.060 374.719 14.853 C 374.959 14.646 375.252 14.512 375.565 14.467 C 375.878 14.422 376.198 14.468 376.485 14.599 C 376.773 14.731 377.017 14.942 377.188 15.208 C 377.359 15.474 377.450 15.784 377.450 16.100 Z" stroke="rgb(0,0,255)" stroke-width="0.20" />
</g>
<g id="p-3" style="fill:none;stroke-linecap:round;stroke-linejoin:round;">
  <path d="M 386.500 231.400 H 565.500 C 566.044 231.400 566.579 231.257 567.050 230.985 C 567.521 230.713 567.913 230.321 568.185 229.850 C 568.457 229.379 568.600 228.844 568.600 228.300 V 13.100 C 568.600 12.556 568.457 12.021 568.185 11.550 C 567.913 11.079 567.521 10.687 567.050 10.415 C 566.579 10.143 566.044 10.000 565.500 10.000 H 386.500 C 385.956 10.000 385.421 10.143 384.950 10.415 C 384.479 10.687 384.087 11.079 383.815 11.550 C 383.543 12.021 383.400 12.556 383.400 13.100 V 228.300 C 383.400 228.844 383.543 229.379 383.815 229.850 C 384.087 230.321 384.479 230.713 384.950 230.985 C 385.421 231.257 385.956 231.400 386.500 231.400 Z" stroke="rgb(0,0,0)" stroke-width="0.20" />
  <path d="M 391.150 225.300 C 391.150 225.616 391.059 225.926 390.888 226.192 C 390.717 226.458 390.473 226.669 390.185 226.801 C 389.898 226.932 389.578 226.978 389.265 226.933 C 388.952 226.888 388.659 226.754 388.419 226.547 C 388.180 226.340 388.006 226.068 387.917 225.765 C 387.828 225.461 387.828 225.139 387.917 224.835 C 388.006 224.532 388.180 224.260 388.419 224.053 C 388.659 223.846 388.952 223.712 389.265 223.667 C 389.578 223.622 389.898 223.668 390.185 223.799 C 390.473 223.931 390.717 224.142 390.888 224.408 C 391.059 224.674 391.150 224.984 391.150 225.300 Z" stroke="rgb(0,0,255)" stroke-width="0.20" />
  <path d="M 391.150 16.100 C 391.150 16.416 391.059 16.726 390.888 16.992 C 390.717 17.258 390.473 17.469 390.185 17.601 C 389.898 17.732 389.578 17.778 389.265 17.733 C 388.952 17.688 388.659 17.554 388.419 17.347 C 388.180 17.140 388.006 16.868 387.917 16.565 C 387.828 16.261 387.828 15.939 387.917 15.635 C 388.006 15.332 388.180 15.060 388.419 14.853 C 388.659 14.646 388.952 14.512 389.265 14.467 C 389.578 14.422 389.898 14.468 390.185 14.599 C 390.473 14.731 390.717 14.942 390.888 15.208 C 391.059 15.474 391.150 15.784 391.150 16.100 Z" stroke="rgb(0,0,255)" stroke-width="0.20" />
  <path d="M 564.150 225.300 C 564.150 225.616 564.059 225.926 563.888 226.192 C 563.717 226.458 563.473 226.669 563.185 226.801 C 562.898 226.932 562.578 226.978 562.265 226.933 C 561.952 226.888 561.659 226.754 561.419 226.547 C 561.180 226.340 561.006 226.068 560.917 225.765 C 560.828 225.461 560.828 225.139 560.917 224.835 C 561.006 224.532 561.180 224.260 561.419 224.053 C 561.659 223.846 561.952 223.712 562.265 223.667 C 562.578 223.622 562.898 223.668 563.185 223.799 C 563.473 223.931 563.717 224.142 563.888 224.408 C 564.059 224.674 564.150 224.984 564.150 225.300 Z" stroke="rgb(0,0,255)" stroke-width="0.20" />
  <path d="M 564.150 16.100 C 564.150 16.416 564.059 16.726 563.888 16.992 C 563.717 17.258 563.473 17.469 563.185 17.601 C 562.898 17.732 562.578 17.778 562.265 17.733 C 561.952 17.688 561.659 17.554 561.419 17.347 C 561.180 17.140 561.006 16.868 560.917 16.565 C 560.828 16.261 560.828 15.939 560.917 15.635 C 561.006 15.332 561.180 15.060 561.419 14.853 C 561.659 14.646 561.952 14.512 562.265 14.467 C 562.578 14.422 562.898 14.468 563.185 14.599 C 563.473 14.731 563.717 14.942 563.888 15.208 C 564.059 15.474 564.150 15.784 564.150 16.100 Z" stroke="rgb(0,0,255)" stroke-width="0.20" />
</g>
</svg>