<?xml version='1.0' encoding='utf-8'?>
<svg height="137.90mm" viewBox="0.0 0.0 635.67 137.90" width="635.67mm" xmlns="http://www.w3.org/2000/svg" xmlns:cc="http://creativecommons.org/ns#" xmlns:dc="http://purl.org/dc/elements/1.1/" xmlns:inkscape="http://www.inkscape.org/namespaces/inkscape" xmlns:rdf="http://www.w3.org/1999/02/22-rdf-syntax-ns#" xmlns:svg="http://www.w3.org/2000/svg" xmlns:xlink="http://www.w3.org/1999/xlink">
<!--
Console - Console with slanted panel




Console Arcade Stick

![Front](static/samples/ConsoleArcadeStickFront.jpg)
![Back](static/samples/ConsoleArcadeStickBack.jpg)
![Inside](static/samples/ConsoleArcadeStickInside.jpg)

Keyboard enclosure:



Created with Boxes.py (https://boxes.hackerspace-bamberg.de/)
Command line (remove spaces between dashes): boxes Console
-->
<title>Console</title>
<metadata>
<rdf:RDF><cc:Work>
<dc:title>Box - Console</dc:title>
<dc:source>boxes Console</dc:source>
<dc:description>Console with slanted panel



Console Arcade Stick

![Front](static/samples/ConsoleArcadeStickFront.jpg)
![Back](static/samples/ConsoleArcadeStickBack.jpg)
![Inside](static/samples/ConsoleArcadeStickInside.jpg)

Keyboard enclosure:


Created with Boxes.py (https://boxes.hackerspace-bamberg.de/)
Command line: boxes Console
Command line short: boxes Console
</dc:description>
</cc:Work></rdf:RDF></metadata>
<g id="p-0" style="fill:none;stroke-linecap:round;stroke-linejoin:round;">
  <path d="M 10.100 127.900 H 110.100 V 117.900 H 10.100 V 127.900 Z" stroke="rgb(0,0,0)" stroke-width="0.20" />
  <text dominant-baseline="hanging" font-size="6px" style="font-family: sans-serif ; font-weight: normal; font-style: normal; fill: rgb(255,0,0)" text-anchor="middle" transform="matrix( 1.000 0.000 0.000 1.000 60.100 119.900 )">100.0mm, burn:0.10mm</text>
</g>
<g id="p-1" style="fill:none;stroke-linecap:round;stroke-linejoin:round;">
  <path d="M 13.100 113.200 H 18.000 C 18.100 113.200 18.000 113.100 18.000 113.200 V 116.100 C 18.000 116.155 18.045 116.200 18.100 116.200 H 24.100 C 24.155 116.200 24.200 116.155 24.200 116.100 V 113.200 C 24.200 113.100 24.100 113.200 24.200 113.200 H 30.000 C 30.100 113.200 30.000 113.100 30.000 113.200 V 116.100 C 30.000 116.155 30.045 116.200 30.100 116.200 H 36.100 C 36.155 116.200 36.200 116.155 36.200 116.100 V 113.200 C 36.200 113.100 36.100 113.200 36.200 113.200 H 42.000 C 42.100 113.200 42.000 113.100 42.000 113.200 V 116.100 C 42.000 116.155 42.045 116.200 42.100 116.200 H 48.100 C 48.155 116.200 48.200 116.155 48.200 116.100 V 113.200 C 48.200 113.100 48.100 113.200 48.200 113.200 H 54.000 C 54.100 113.200 54.000 113.100 54.000 113.200 V 116.100 C 54.000 116.155 54.045 116.200 54.100 116.200 H 60.100 C 60.155 116.200 60.200 116.155 60.200 116.100 V 113.200 C 60.200 113.100 60.100 113.200 60.200 113.200 H 66.000 C 66.100 113.200 66.000 113.100 66.000 113.200 V 116.100 C 66.000 116.155 66.045 116.200 66.100 116.200 H 72.100 C 72.155 116.200 72.200 116.155 72.200 116.100 V 113.200 C 72.200 113.100 72.100 113.200 72.200 113.200 H 78.000 C 78.100 113.200 78.000 113.100 78.000 113.200 V 116.100 C 78.000 116.155 78.045 116.200 78.100 116.200 H 84.100 C 84.155 116.200 84.200 116.155 84.200 116.100 V 113.200 C 84.200 113.100 84.100 113.200 84.200 113.200 H 90.000 C 90.100 113.200 90.000 113.100 90.000 113.200 V 116.100 C 90.000 116.155 90.045 116.200 90.100 116.200 H 96.100 C 96.155 116.200 96.200 116.155 96.200 116.100 V 113.200 C 96.200 113.100 96.100 113.200 96.200 113.200 H 102.000 C 102.100 113.200 102.000 113.100 102.000 113.200 V 116.100 C 102.000 116.155 102.045 116.200 102.100 116.200 H 108.100 C 108.155 116.200 108.200 116.155 108.200 116.100 V 113.200 C 108.200 113.100 108.100 113.200 108.200 113.200 H 113.100 C 113.155 113.200 113.200 113.155 113.200 113.100 V 107.200 C 113.200 107.100 113.100 107.200 113.200 107.200 H 116.100 C 116.155 107.200 116.200 107.155 116.200 107.100 V 101.100 C 116.200 101.045 116.155 101.000 116.100 101.000 H 113.200 C 113.100 101.000 113.200 101.100 113.200 101.000 V 95.200 C 113.200 95.100 113.100 95.200 113.200 95.200 H 116.100 C 116.155 95.200 116.200 95.155 116.200 95.100 V 89.100 C 116.200 89.045 116.155 89.000 116.100 89.000 H 113.200 C 113.100 89.000 113.200 89.100 113.200 89.000 V 83.100 C 113.200 83.076 113.192 83.054 113.177 83.036 L 108.941 77.988 C 108.877 77.911 108.865 78.052 108.941 77.988 L 111.163 76.124 C 111.205 76.088 111.210 76.025 111.175 75.983 L 107.318 71.387 C 107.283 71.345 107.220 71.339 107.177 71.374 L 104.956 73.239 C 104.879 73.303 105.020 73.315 104.956 73.239 L 101.228 68.796 C 101.163 68.719 101.151 68.860 101.228 68.796 L 103.449 66.931 C 103.491 66.896 103.497 66.833 103.462 66.791 L 99.605 62.194 C 99.569 62.152 99.506 62.146 99.464 62.182 L 97.242 64.046 C 97.166 64.110 97.307 64.123 97.242 64.046 L 93.514 59.603 C 93.450 59.526 93.438 59.667 93.514 59.603 L 95.736 57.739 C 95.778 57.703 95.784 57.640 95.748 57.598 L 91.891 53.002 C 91.856 52.959 91.793 52.954 91.750 52.989 L 89.529 54.854 C 89.452 54.918 89.593 54.930 89.529 54.854 L 85.801 50.410 C 85.736 50.334 85.724 50.475 85.801 50.410 L 88.022 48.546 C 88.065 48.511 88.070 48.448 88.035 48.405 L 84.178 43.809 C 84.142 43.767 84.079 43.761 84.037 43.797 L 81.815 45.661 C 81.739 45.725 81.880 45.738 81.815 45.661 L 78.087 41.218 C 78.023 41.141 78.011 41.282 78.087 41.218 L 80.309 39.354 C 80.351 39.318 80.357 39.255 80.321 39.213 L 76.464 34.617 C 76.429 34.574 76.366 34.569 76.324 34.604 L 74.102 36.468 C 74.025 36.533 74.166 36.545 74.102 36.468 L 70.374 32.025 C 70.310 31.949 70.297 32.090 70.374 32.025 L 72.595 30.161 C 72.638 30.126 72.643 30.063 72.608 30.020 L 68.751 25.424 C 68.715 25.382 68.652 25.376 68.610 25.412 L 66.389 27.276 C 66.312 27.340 66.453 27.353 66.389 27.276 L 62.660 22.833 C 62.596 22.756 62.584 22.897 62.660 22.833 L 64.882 20.969 C 64.924 20.933 64.930 20.870 64.894 20.828 L 61.038 16.232 C 61.002 16.189 60.939 16.184 60.897 16.219 L 58.675 18.083 C 58.599 18.148 58.739 18.160 58.675 18.083 L 54.440 13.036 C 54.421 13.013 54.393 13.000 54.363 13.000 H 48.832 C 48.732 13.000 48.832 13.100 48.832 13.000 V 10.100 C 48.832 10.045 48.787 10.000 48.732 10.000 H 42.732 C 42.676 10.000 42.632 10.045 42.632 10.100 V 13.000 C 42.632 13.100 42.732 13.000 42.632 13.000 H 36.832 C 36.732 13.000 36.832 13.100 36.832 13.000 V 10.100 C 36.832 10.045 36.787 10.000 36.732 10.000 H 30.732 C 30.676 10.000 30.632 10.045 30.632 10.100 V 13.000 C 30.632 13.100 30.732 13.000 30.632 13.000 H 24.832 C 24.732 13.000 24.832 13.100 24.832 13.000 V 10.100 C 24.832 10.045 24.787 10.000 24.732 10.000 H 18.732 C 18.676 10.000 18.632 10.045 18.632 10.100 V 13.000 C 18.632 13.100 18.732 13.000 18.632 13.000 H 13.100 C 13.045 13.000 13.000 13.045 13.000 13.100 V 18.000 C 13.000 18.100 13.100 18.000 13.000 18.000 H 10.100 C 10.045 18.000 10.000 18.045 10.000 18.100 V 24.100 C 10.000 24.155 10.045 24.200 10.100 24.200 H 13.000 C 13.100 24.200 13.000 24.100 13.000 24.200 V 30.000 C 13.000 30.100 13.100 30.000 13.000 30.000 H 10.100 C 10.045 30.000 10.000 30.045 10.000 30.100 V 36.100 C 10.000 36.155 10.045 36.200 10.100 36.200 H 13.000 C 13.100 36.200 13.000 36.100 13.000 36.200 V 42.000 C 13.000 42.100 13.100 42.000 13.000 42.000 H 10.100 C 10.045 42.000 10.000 42.045 10.000 42.100 V 48.100 C 10.000 48.155 10.045 48.200 10.100 48.200 H 13.000 C 13.100 48.200 13.000 48.100 13.000 48.200 V 54.000 C 13.000 54.100 13.100 54.000 13.000 54.000 H 10.100 C 10.045 54.000 10.000 54.045 10.000 54.100 V 60.100 C 10.000 60.155 10.045 60.200 10.100 60.200 H 13.000 C 13.100 60.200 13.000 60.100 13.000 60.200 V 66.000 C 13.000 66.100 13.100 66.000 13.000 66.000 H 10.100 C 10.045 66.000 10.000 66.045 10.000 66.100 V 72.100 C 10.000 72.155 10.045 72.200 10.100 72.200 H 13.000 C 13.100 72.200 13.000 72.100 13.000 72.200 V 78.000 C 13.000 78.100 13.100 78.000 13.000 78.000 H 10.100 C 10.045 78.000 10.000 78.045 10.000 78.100 V 84.100 C 10.000 84.155 10.045 84.200 10.100 84.200 H 13.000 C 13.100 84.200 13.000 84.100 13.000 84.200 V 90.000 C 13.000 90.100 13.100 90.000 13.000 90.000 H 10.100 C 10.045 90.000 10.000 90.045 10.000 90.100 V 96.100 C 10.000 96.155 10.045 96.200 10.100 96.200 H 13.000 C 13.100 96.200 13.000 96.100 13.000 96.200 V 102.000 C 13.000 102.100 13.100 102.000 13.000 102.000 H 10.100 C 10.045 102.000 10.000 102.045 10.000 102.100 V 108.100 C 10.000 108.155 10.045 108.200 10.100 108.200 H 13.000 C 13.100 108.200 13.000 108.100 13.000 108.200 V 113.100 C 13.000 113.155 13.045 113.200 13.100 113.200 Z" stroke="rgb(0,0,0)" stroke-width="0.20" />
</g>
<g id="p-2" style="fill:none;stroke-linecap:round;stroke-linejoin:round;">
  <path d="M 120.800 113.200 H 125.700 C 125.800 113.200 125.700 113.100 125.700 113.200 V 116.100 C 125.700 116.155 125.745 116.200 125.800 116.200 H 131.800 C 131.855 116.200 131.900 116.155 131.900 116.100 V 113.200 C 131.900 113.100 131.800 113.200 131.900 113.200 H 137.700 C 137.800 113.200 137.700 113.100 137.700 113.200 V 116.100 C 137.700 116.155 137.745 116.200 137.800 116.200 H 143.800 C 143.855 116.200 143.900 116.155 143.900 116.100 V 113.200 C 143.900 113.100 143.800 113.200 143.900 113.200 H 149.700 C 149.800 113.200 149.700 113.100 149.700 113.200 V 116.100 C 149.700 116.155 149.745 116.200 149.800 116.200 H 155.800 C 155.855 116.200 155.900 116.155 155.900 116.100 V 113.200 C 155.900 113.100 155.800 113.200 155.900 113.200 H 161.700 C 161.800 113.200 161.700 113.100 161.700 113.200 V 116.100 C 161.700 116.155 161.745 116.200 161.800 116.200 H 167.800 C 167.855 116.200 167.900 116.155 167.900 116.100 V 113.200 C 167.900 113.100 167.800 113.200 167.900 113.200 H 173.700 C 173.800 113.200 173.700 113.100 173.700 113.200 V 116.100 C 173.700 116.155 173.745 116.200 173.800 116.200 H 179.800 C 179.855 116.200 179.900 116.155 179.900 116.100 V 113.200 C 179.900 113.100 179.800 113.200 179.900 113.200 H 185.700 C 185.800 113.200 185.700 113.100 185.700 113.200 V 116.100 C 185.700 116.155 185.745 116.200 185.800 116.200 H 191.800 C 191.855 116.200 191.900 116.155 191.900 116.100 V 113.200 C 191.900 113.100 191.800 113.200 191.900 113.200 H 197.700 C 197.800 113.200 197.700 113.100 197.700 113.200 V 116.100 C 197.700 116.155 197.745 116.200 197.800 116.200 H 203.800 C 203.855 116.200 203.900 116.155 203.900 116.100 V 113.200 C 203.900 113.100 203.800 113.200 203.900 113.200 H 209.700 C 209.800 113.200 209.700 113.100 209.700 113.200 V 116.100 C 209.700 116.155 209.745 116.200 209.800 116.200 H 215.800 C 215.855 116.200 215.900 116.155 215.900 116.100 V 113.200 C 215.900 113.100 215.800 113.200 215.900 113.200 H 220.800 C 220.855 113.200 220.900 113.155 220.900 113.100 V 107.200 C 220.900 107.100 220.800 107.200 220.900 107.200 H 223.800 C 223.855 107.200 223.900 107.155 223.900 107.100 V 101.100 C 223.900 101.045 223.855 101.000 223.800 101.000 H 220.900 C 220.800 101.000 220.900 101.100 220.900 101.000 V 95.200 C 220.900 95.100 220.800 95.200 220.900 95.200 H 223.800 C 223.855 95.200 223.900 95.155 223.900 95.100 V 89.100 C 223.900 89.045 223.855 89.000 223.800 89.000 H 220.900 C 220.800 89.000 220.900 89.100 220.900 89.000 V 83.100 C 220.900 83.076 220.892 83.054 220.877 83.036 L 216.641 77.988 C 216.577 77.911 216.565 78.052 216.641 77.988 L 218.863 76.124 C 218.905 76.088 218.910 76.025 218.875 75.983 L 215.018 71.387 C 214.983 71.345 214.920 71.339 214.877 71.374 L 212.656 73.239 C 212.579 73.303 212.720 73.315 212.656 73.239 L 208.928 68.796 C 208.863 68.719 208.851 68.860 208.928 68.796 L 211.149 66.931 C 211.191 66.896 211.197 66.833 211.162 66.791 L 207.305 62.194 C 207.269 62.152 207.206 62.146 207.164 62.182 L 204.942 64.046 C 204.866 64.110 205.007 64.123 204.942 64.046 L 201.214 59.603 C 201.150 59.526 201.138 59.667 201.214 59.603 L 203.436 57.739 C 203.478 57.703 203.484 57.640 203.448 57.598 L 199.591 53.002 C 199.556 52.959 199.493 52.954 199.450 52.989 L 197.229 54.854 C 197.152 54.918 197.293 54.930 197.229 54.854 L 193.501 50.410 C 193.436 50.334 193.424 50.475 193.501 50.410 L 195.722 48.546 C 195.765 48.511 195.770 48.448 195.735 48.405 L 191.878 43.809 C 191.842 43.767 191.779 43.761 191.737 43.797 L 189.515 45.661 C 189.439 45.725 189.580 45.738 189.515 45.661 L 185.787 41.218 C 185.723 41.141 185.711 41.282 185.787 41.218 L 188.009 39.354 C 188.051 39.318 188.057 39.255 188.021 39.213 L 184.164 34.617 C 184.129 34.574 184.066 34.569 184.024 34.604 L 181.802 36.468 C 181.725 36.533 181.866 36.545 181.802 36.468 L 178.074 32.025 C 178.010 31.949 177.997 32.090 178.074 32.025 L 180.295 30.161 C 180.338 30.126 180.343 30.063 180.308 30.020 L 176.451 25.424 C 176.415 25.382 176.352 25.376 176.310 25.412 L 174.089 27.276 C 174.012 27.340 174.153 27.353 174.089 27.276 L 170.360 22.833 C 170.296 22.756 170.284 22.897 170.360 22.833 L 172.582 20.969 C 172.624 20.933 172.630 20.870 172.594 20.828 L 168.738 16.232 C 168.702 16.189 168.639 16.184 168.597 16.219 L 166.375 18.083 C 166.299 18.148 166.439 18.160 166.375 18.083 L 162.140 13.036 C 162.121 13.013 162.093 13.000 162.063 13.000 H 156.532 C 156.432 13.000 156.532 13.100 156.532 13.000 V 10.100 C 156.532 10.045 156.487 10.000 156.432 10.000 H 150.432 C 150.376 10.000 150.332 10.045 150.332 10.100 V 13.000 C 150.332 13.100 150.432 13.000 150.332 13.000 H 144.532 C 144.432 13.000 144.532 13.100 144.532 13.000 V 10.100 C 144.532 10.045 144.487 10.000 144.432 10.000 H 138.432 C 138.376 10.000 138.332 10.045 138.332 10.100 V 13.000 C 138.332 13.100 138.432 13.000 138.332 13.000 H 132.532 C 132.432 13.000 132.532 13.100 132.532 13.000 V 10.100 C 132.532 10.045 132.487 10.000 132.432 10.000 H 126.432 C 126.376 10.000 126.332 10.045 126.332 10.100 V 13.000 C 126.332 13.100 126.432 13.000 126.332 13.000 H 120.800 C 120.745 13.000 120.700 13.045 120.700 13.100 V 18.000 C 120.700 18.100 120.800 18.000 120.700 18.000 H 117.800 C 117.745 18.000 117.700 18.045 117.700 18.100 V 24.100 C 117.700 24.155 117.745 24.200 117.800 24.200 H 120.700 C 120.800 24.200 120.700 24.100 120.700 24.200 V 30.000 C 120.700 30.100 120.800 30.000 120.700 30.000 H 117.800 C 117.745 30.000 117.700 30.045 117.700 30.100 V 36.100 C 117.700 36.155 117.745 36.200 117.800 36.200 H 120.700 C 120.800 36.200 120.700 36.100 120.700 36.200 V 42.000 C 120.700 42.100 120.800 42.000 120.700 42.000 H 117.800 C 117.745 42.000 117.700 42.045 117.700 42.100 V 48.100 C 117.700 48.155 117.745 48.200 117.800 48.200 H 120.700 C 120.800 48.200 120.700 48.100 120.700 48.200 V 54.000 C 120.700 54.100 120.800 54.000 120.700 54.000 H 117.800 C 117.745 54.000 117.700 54.045 117.700 54.100 V 60.100 C 117.700 60.155 117.745 60.200 117.800 60.200 H 120.700 C 120.800 60.200 120.700 60.100 120.700 60.200 V 66.000 C 120.700 66.100 120.800 66.000 120.700 66.000 H 117.800 C 117.745 66.000 117.700 66.045 117.700 66.100 V 72.100 C 117.700 72.155 117.745 72.200 117.800 72.200 H 120.700 C 120.800 72.200 120.700 72.100 120.700 72.200 V 78.000 C 120.700 78.100 120.800 78.000 120.700 78.000 H 117.800 C 117.745 78.000 117.700 78.045 117.700 78.100 V 84.100 C 117.700 84.155 117.745 84.200 117.800 84.200 H 120.700 C 120.800 84.200 120.700 84.100 120.700 84.200 V 90.000 C 120.700 90.100 120.800 90.000 120.700 90.000 H 117.800 C 117.745 90.000 117.700 90.045 117.700 90.100 V 96.100 C 117.700 96.155 117.745 96.200 117.800 96.200 H 120.700 C 120.800 96.200 120.700 96.100 120.700 96.200 V 102.000 C 120.700 102.100 120.800 102.000 120.700 102.000 H 117.800 C 117.745 102.000 117.700 102.045 117.700 102.100 V 108.100 C 117.700 108.155 117.745 108.200 117.800 108.200 H 120.700 C 120.800 108.200 120.700 108.100 120.700 108.200 V 113.100 C 120.700 113.155 120.745 113.200 120.800 113.200 Z" stroke="rgb(0,0,0)" stroke-width="0.20" />
</g>
<g id="p-3" style="fill:none;stroke-linecap:round;stroke-linejoin:round;">
  <path d="M 229.350 117.050 H 234.350 C 234.405 117.050 234.450 117.005 234.450 116.950 V 114.050 C 234.450 113.950 234.350 114.050 234.450 114.050 H 240.250 C 240.350 114.050 240.250 113.950 240.250 114.050 V 116.950 C 240.250 117.005 240.295 117.050 240.350 117.050 H 246.350 C 246.405 117.050 246.450 117.005 246.450 116.950 V 114.050 C 246.450 113.950 246.350 114.050 246.450 114.050 H 252.250 C 252.350 114.050 252.250 113.950 252.250 114.050 V 116.950 C 252.250 117.005 252.295 117.050 252.350 117.050 H 258.350 C 258.405 117.050 258.450 117.005 258.450 116.950 V 114.050 C 258.450 113.950 258.350 114.050 258.450 114.050 H 264.250 C 264.350 114.050 264.250 113.950 264.250 114.050 V 116.950 C 264.250 117.005 264.295 117.050 264.350 117.050 H 270.350 C 270.405 117.050 270.450 117.005 270.450 116.950 V 114.050 C 270.450 113.950 270.350 114.050 270.450 114.050 H 276.250 C 276.350 114.050 276.250 113.950 276.250 114.050 V 116.950 C 276.250 117.005 276.295 117.050 276.350 117.050 H 282.350 C 282.405 117.050 282.450 117.005 282.450 116.950 V 114.050 C 282.450 113.950 282.350 114.050 282.450 114.050 H 288.250 C 288.350 114.050 288.250 113.950 288.250 114.050 V 116.950 C 288.250 117.005 288.295 117.050 288.350 117.050 H 294.350 C 294.405 117.050 294.450 117.005 294.450 116.950 V 114.050 C 294.450 113.950 294.350 114.050 294.450 114.050 H 300.250 C 300.350 114.050 300.250 113.950 300.250 114.050 V 116.950 C 300.250 117.005 300.295 117.050 300.350 117.050 H 306.350 C 306.405 117.050 306.450 117.005 306.450 116.950 V 114.050 C 306.450 113.950 306.350 114.050 306.450 114.050 H 312.250 C 312.350 114.050 312.250 113.950 312.250 114.050 V 116.950 C 312.250 117.005 312.295 117.050 312.350 117.050 H 318.350 C 318.405 117.050 318.450 117.005 318.450 116.950 V 114.050 C 318.450 113.950 318.350 114.050 318.450 114.050 H 324.250 C 324.350 114.050 324.250 113.950 324.250 114.050 V 116.950 C 324.250 117.005 324.295 117.050 324.350 117.050 H 329.350 H 332.350 C 332.405 117.050 332.450 117.005 332.450 116.950 V 113.950 V 108.950 C 332.450 108.895 332.405 108.850 332.350 108.850 H 329.450 C 329.350 108.850 329.450 108.950 329.450 108.850 V 103.050 C 329.450 102.950 329.350 103.050 329.450 103.050 H 332.350 C 332.405 103.050 332.450 103.005 332.450 102.950 V 96.950 C 332.450 96.895 332.405 96.850 332.350 96.850 H 329.450 C 329.350 96.850 329.450 96.950 329.450 96.850 V 91.050 C 329.450 90.950 329.350 91.050 329.450 91.050 H 332.350 C 332.405 91.050 332.450 91.005 332.450 90.950 V 84.950 C 332.450 84.895 332.405 84.850 332.350 84.850 H 329.450 C 329.350 84.850 329.450 84.950 329.450 84.850 V 79.050 C 329.450 78.950 329.350 79.050 329.450 79.050 H 332.350 C 332.405 79.050 332.450 79.005 332.450 78.950 V 72.950 C 332.450 72.895 332.405 72.850 332.350 72.850 H 329.450 C 329.350 72.850 329.450 72.950 329.450 72.850 V 67.050 C 329.450 66.950 329.350 67.050 329.450 67.050 H 332.350 C 332.405 67.050 332.450 67.005 332.450 66.950 V 60.950 C 332.450 60.895 332.405 60.850 332.350 60.850 H 329.450 C 329.350 60.850 329.450 60.950 329.450 60.850 V 55.050 C 329.450 54.950 329.350 55.050 329.450 55.050 H 332.350 C 332.405 55.050 332.450 55.005 332.450 54.950 V 48.950 C 332.450 48.895 332.405 48.850 332.350 48.850 H 329.450 C 329.350 48.850 329.450 48.950 329.450 48.850 V 43.050 C 329.450 42.950 329.350 43.050 329.450 43.050 H 332.350 C 332.405 43.050 332.450 43.005 332.450 42.950 V 36.950 C 332.450 36.895 332.405 36.850 332.350 36.850 H 329.450 C 329.350 36.850 329.450 36.950 329.450 36.850 V 31.050 C 329.450 30.950 329.350 31.050 329.450 31.050 H 332.350 C 332.405 31.050 332.450 31.005 332.450 30.950 V 24.950 C 332.450 24.895 332.405 24.850 332.350 24.850 H 329.450 C 329.350 24.850 329.450 24.950 329.450 24.850 V 19.050 C 329.450 18.950 329.350 19.050 329.450 19.050 H 332.350 C 332.405 19.050 332.450 19.005 332.450 18.950 V 13.950 V 10.950 C 332.450 10.895 332.405 10.850 332.350 10.850 H 329.350 H 324.350 C 324.295 10.850 324.250 10.895 324.250 10.950 V 13.850 C 324.250 13.950 324.350 13.850 324.250 13.850 H 318.450 C 318.350 13.850 318.450 13.950 318.450 13.850 V 10.950 C 318.450 10.895 318.405 10.850 318.350 10.850 H 312.350 C 312.295 10.850 312.250 10.895 312.250 10.950 V 13.850 C 312.250 13.950 312.350 13.850 312.250 13.850 H 306.450 C 306.350 13.850 306.450 13.950 306.450 13.850 V 10.950 C 306.450 10.895 306.405 10.850 306.350 10.850 H 300.350 C 300.295 10.850 300.250 10.895 300.250 10.950 V 13.850 C 300.250 13.950 300.350 13.850 300.250 13.850 H 294.450 C 294.350 13.850 294.450 13.950 294.450 13.850 V 10.950 C 294.450 10.895 294.405 10.850 294.350 10.850 H 288.350 C 288.295 10.850 288.250 10.895 288.250 10.950 V 13.850 C 288.250 13.950 288.350 13.850 288.250 13.850 H 282.450 C 282.350 13.850 282.450 13.950 282.450 13.850 V 10.950 C 282.450 10.895 282.405 10.850 282.350 10.850 H 276.350 C 276.295 10.850 276.250 10.895 276.250 10.950 V 13.850 C 276.250 13.950 276.350 13.850 276.250 13.850 H 270.450 C 270.350 13.850 270.450 13.950 270.450 13.850 V 10.950 C 270.450 10.895 270.405 10.850 270.350 10.850 H 264.350 C 264.295 10.850 264.250 10.895 264.250 10.950 V 13.850 C 264.250 13.950 264.350 13.850 264.250 13.850 H 258.450 C 258.350 13.850 258.450 13.950 258.450 13.850 V 10.950 C 258.450 10.895 258.405 10.850 258.350 10.850 H 252.350 C 252.295 10.850 252.250 10.895 252.250 10.950 V 13.850 C 252.250 13.950 252.350 13.850 252.250 13.850 H 246.450 C 246.350 13.850 246.450 13.950 246.450 13.850 V 10.950 C 246.450 10.895 246.405 10.850 246.350 10.850 H 240.350 C 240.295 10.850 240.250 10.895 240.250 10.950 V 13.850 C 240.250 13.950 240.350 13.850 240.250 13.850 H 234.450 C 234.350 13.850 234.450 13.950 234.450 13.850 V 10.950 C 234.450 10.895 234.405 10.850 234.350 10.850 H 229.350 H 226.350 C 226.295 10.850 226.250 10.895 226.250 10.950 V 13.950 V 18.950 C 226.250 19.005 226.295 19.050 226.350 19.050 H 229.250 C 229.350 19.050 229.250 18.950 229.250 19.050 V 24.850 C 229.250 24.950 229.350 24.850 229.250 24.850 H 226.350 C 226.295 24.850 226.250 24.895 226.250 24.950 V 30.950 C 226.250 31.005 226.295 31.050 226.350 31.050 H 229.250 C 229.350 31.050 229.250 30.950 229.250 31.050 V 36.850 C 229.250 36.950 229.350 36.850 229.250 36.850 H 226.350 C 226.295 36.850 226.250 36.895 226.250 36.950 V 42.950 C 226.250 43.005 226.295 43.050 226.350 43.050 H 229.250 C 229.350 43.050 229.250 42.950 229.250 43.050 V 48.850 C 229.250 48.950 229.350 48.850 229.250 48.850 H 226.350 C 226.295 48.850 226.250 48.895 226.250 48.950 V 54.950 C 226.250 55.005 226.295 55.050 226.350 55.050 H 229.250 C 229.350 55.050 229.250 54.950 229.250 55.050 V 60.850 C 229.250 60.950 229.350 60.850 229.250 60.850 H 226.350 C 226.295 60.850 226.250 60.895 226.250 60.950 V 66.950 C 226.250 67.005 226.295 67.050 226.350 67.050 H 229.250 C 229.350 67.050 229.250 66.950 229.250 67.050 V 72.850 C 229.250 72.950 229.350 72.850 229.250 72.850 H 226.350 C 226.295 72.850 226.250 72.895 226.250 72.950 V 78.950 C 226.250 79.005 226.295 79.050 226.350 79.050 H 229.250 C 229.350 79.050 229.250 78.950 229.250 79.050 V 84.850 C 229.250 84.950 229.350 84.850 229.250 84.850 H 226.350 C 226.295 84.850 226.250 84.895 226.250 84.950 V 90.950 C 226.250 91.005 226.295 91.050 226.350 91.050 H 229.250 C 229.350 91.050 229.250 90.950 229.250 91.050 V 96.850 C 229.250 96.950 229.350 96.850 229.250 96.850 H 226.350 C 226.295 96.850 226.250 96.895 226.250 96.950 V 102.950 C 226.250 103.005 226.295 103.050 226.350 103.050 H 229.250 C 229.350 103.050 229.250 102.950 229.250 103.050 V 108.850 C 229.250 108.950 229.350 108.850 229.250 108.850 H 226.350 C 226.295 108.850 226.250 108.895 226.250 108.950 V 113.950 V 116.950 C 226.250 117.005 226.295 117.050 226.350 117.050 H 229.350 Z" stroke="rgb(0,0,0)" stroke-width="0.20" />
  <path d="M 338.750 117.050 H 344.750 C 344.805 117.050 344.850 117.005 344.850 116.950 V 114.050 C 344.850 113.950 344.750 114.050 344.850 114.050 H 350.650 C 350.750 114.050 350.650 113.950 350.650 114.050 V 116.950 C 350.650 117.005 350.695 117.050 350.750 117.050 H 356.750 C 356.805 117.050 356.850 117.005 356.850 116.950 V 114.050 C 356.850 113.950 356.750 114.050 356.850 114.050 H 362.650 C 362.750 114.050 362.650 113.950 362.650 114.050 V 116.950 C 362.650 117.005 362.695 117.050 362.750 117.050 H 368.750 H 367.914 C 367.969 117.050 368.014 117.005 368.014 116.950 V 113.950 V 109.050 C 368.014 108.950 367.914 109.050 368.014 109.050 H 369.842 C 369.897 109.050 369.942 109.005 369.942 108.950 V 102.950 C 369.942 102.895 369.897 102.850 369.842 102.850 H 368.014 C 367.914 102.850 368.014 102.950 368.014 102.850 V 97.050 C 368.014 96.950 367.914 97.050 368.014 97.050 H 369.842 C 369.897 97.050 369.942 97.005 369.942 96.950 V 90.950 C 369.942 90.895 369.897 90.850 369.842 90.850 H 368.014 C 367.914 90.850 368.014 90.950 368.014 90.850 V 85.050 C 368.014 84.950 367.914 85.050 368.014 85.050 H 369.842 C 369.897 85.050 369.942 85.005 369.942 84.950 V 78.950 C 369.942 78.895 369.897 78.850 369.842 78.850 H 368.014 C 367.914 78.850 368.014 78.950 368.014 78.850 V 73.050 C 368.014 72.950 367.914 73.050 368.014 73.050 H 369.842 C 369.897 73.050 369.942 73.005 369.942 72.950 V 66.950 C 369.942 66.895 369.897 66.850 369.842 66.850 H 368.014 C 367.914 66.850 368.014 66.950 368.014 66.850 V 61.050 C 368.014 60.950 367.914 61.050 368.014 61.050 H 369.842 C 369.897 61.050 369.942 61.005 369.942 60.950 V 54.950 C 369.942 54.895 369.897 54.850 369.842 54.850 H 368.014 C 367.914 54.850 368.014 54.950 368.014 54.850 V 49.050 C 368.014 48.950 367.914 49.050 368.014 49.050 H 369.842 C 369.897 49.050 369.942 49.005 369.942 48.950 V 42.950 C 369.942 42.895 369.897 42.850 369.842 42.850 H 368.014 C 367.914 42.850 368.014 42.950 368.014 42.850 V 37.050 C 368.014 36.950 367.914 37.050 368.014 37.050 H 369.842 C 369.897 37.050 369.942 37.005 369.942 36.950 V 30.950 C 369.942 30.895 369.897 30.850 369.842 30.850 H 368.014 C 367.914 30.850 368.014 30.950 368.014 30.850 V 25.050 C 368.014 24.950 367.914 25.050 368.014 25.050 H 369.842 C 369.897 25.050 369.942 25.005 369.942 24.950 V 18.950 C 369.942 18.895 369.897 18.850 369.842 18.850 H 368.014 C 367.914 18.850 368.014 18.950 368.014 18.850 V 13.950 V 10.950 C 368.014 10.895 367.969 10.850 367.914 10.850 H 368.750 H 362.750 C 362.695 10.850 362.650 10.895 362.650 10.950 V 13.850 C 362.650 13.950 362.750 13.850 362.650 13.850 H 356.850 C 356.750 13.850 356.850 13.950 356.850 13.850 V 10.950 C 356.850 10.895 356.805 10.850 356.750 10.850 H 350.750 C 350.695 10.850 350.650 10.895 350.650 10.950 V 13.850 C 350.650 13.950 350.750 13.850 350.650 13.850 H 344.850 C 344.750 13.850 344.850 13.950 344.850 13.850 V 10.950 C 344.850 10.895 344.805 10.850 344.750 10.850 H 338.750 C 338.695 10.850 338.650 10.895 338.650 10.950 V 13.950 V 18.850 C 338.650 18.950 338.750 18.850 338.650 18.850 H 335.750 C 335.695 18.850 335.650 18.895 335.650 18.950 V 24.950 C 335.650 25.005 335.695 25.050 335.750 25.050 H 338.650 C 338.750 25.050 338.650 24.950 338.650 25.050 V 30.850 C 338.650 30.950 338.750 30.850 338.650 30.850 H 335.750 C 335.695 30.850 335.650 30.895 335.650 30.950 V 36.950 C 335.650 37.005 335.695 37.050 335.750 37.050 H 338.650 C 338.750 37.050 338.650 36.950 338.650 37.050 V 42.850 C 338.650 42.950 338.750 42.850 338.650 42.850 H 335.750 C 335.695 42.850 335.650 42.895 335.650 42.950 V 48.950 C 335.650 49.005 335.695 49.050 335.750 49.050 H 338.650 C 338.750 49.050 338.650 48.950 338.650 49.050 V 54.850 C 338.650 54.950 338.750 54.850 338.650 54.850 H 335.750 C 335.695 54.850 335.650 54.895 335.650 54.950 V 60.950 C 335.650 61.005 335.695 61.050 335.750 61.050 H 338.650 C 338.750 61.050 338.650 60.950 338.650 61.050 V 66.850 C 338.650 66.950 338.750 66.850 338.650 66.850 H 335.750 C 335.695 66.850 335.650 66.895 335.650 66.950 V 72.950 C 335.650 73.005 335.695 73.050 335.750 73.050 H 338.650 C 338.750 73.050 338.650 72.950 338.650 73.050 V 78.850 C 338.650 78.950 338.750 78.850 338.650 78.850 H 335.750 C 335.695 78.850 335.650 78.895 335.650 78.950 V 84.950 C 335.650 85.005 335.695 85.050 335.750 85.050 H 338.650 C 338.750 85.050 338.650 84.950 338.650 85.050 V 90.850 C 338.650 90.950 338.750 90.850 338.650 90.850 H 335.750 C 335.695 90.850 335.650 90.895 335.650 90.950 V 96.950 C 335.650 97.005 335.695 97.050 335.750 97.050 H 338.650 C 338.750 97.050 338.650 96.950 338.650 97.050 V 102.850 C 338.650 102.950 338.750 102.850 338.650 102.850 H 335.750 C 335.695 102.850 335.650 102.895 335.650 102.950 V 108.950 C 335.650 109.005 335.695 109.050 335.750 109.050 H 338.650 C 338.750 109.050 338.650 108.950 338.650 109.050 V 113.950 V 116.950 C 338.650 117.005 338.695 117.050 338.750 117.050 Z" stroke="rgb(0,0,0)" stroke-width="0.20" />
  <path d="M 374.334 117.050 H 381.023 C 381.078 117.050 381.123 117.005 381.123 116.950 V 114.050 C 381.123 113.950 381.023 114.050 381.123 114.050 H 386.923 C 387.023 114.050 386.923 113.950 386.923 114.050 V 116.950 C 386.923 117.005 386.968 117.050 387.023 117.050 H 393.023 C 393.078 117.050 393.123 117.005 393.123 116.950 V 114.050 C 393.123 113.950 393.023 114.050 393.123 114.050 H 398.923 C 399.023 114.050 398.923 113.950 398.923 114.050 V 116.950 C 398.923 117.005 398.968 117.050 399.023 117.050 H 405.023 C 405.078 117.050 405.123 117.005 405.123 116.950 V 114.050 C 405.123 113.950 405.023 114.050 405.123 114.050 H 410.923 C 411.023 114.050 410.923 113.950 410.923 114.050 V 116.950 C 410.923 117.005 410.968 117.050 411.023 117.050 H 417.023 C 417.078 117.050 417.123 117.005 417.123 116.950 V 114.050 C 417.123 113.950 417.023 114.050 417.123 114.050 H 422.923 C 423.023 114.050 422.923 113.950 422.923 114.050 V 116.950 C 422.923 117.005 422.968 117.050 423.023 117.050 H 429.023 C 429.078 117.050 429.123 117.005 429.123 116.950 V 114.050 C 429.123 113.950 429.023 114.050 429.123 114.050 H 434.923 C 435.023 114.050 434.923 113.950 434.923 114.050 V 116.950 C 434.923 117.005 434.968 117.050 435.023 117.050 H 441.023 C 441.078 117.050 441.123 117.005 441.123 116.950 V 114.050 C 441.123 113.950 441.023 114.050 441.123 114.050 H 446.923 C 447.023 114.050 446.923 113.950 446.923 114.050 V 116.950 C 446.923 117.005 446.968 117.050 447.023 117.050 H 453.023 C 453.078 117.050 453.123 117.005 453.123 116.950 V 114.050 C 453.123 113.950 453.023 114.050 453.123 114.050 H 458.923 C 459.023 114.050 458.923 113.950 458.923 114.050 V 116.950 C 458.923 117.005 458.968 117.050 459.023 117.050 H 465.712 H 467.111 C 467.166 117.050 467.211 117.005 467.211 116.950 V 113.950 V 108.950 C 467.211 108.895 467.166 108.850 467.111 108.850 H 464.913 C 464.813 108.850 464.913 108.950 464.913 108.850 V 103.050 C 464.913 102.950 464.813 103.050 464.913 103.050 H 467.111 C 467.166 103.050 467.211 103.005 467.211 102.950 V 96.950 C 467.211 96.895 467.166 96.850 467.111 96.850 H 464.913 C 464.813 96.850 464.913 96.950 464.913 96.850 V 91.050 C 464.913 90.950 464.813 91.050 464.913 91.050 H 467.111 C 467.166 91.050 467.211 91.005 467.211 90.950 V 84.950 C 467.211 84.895 467.166 84.850 467.111 84.850 H 464.913 C 464.813 84.850 464.913 84.950 464.913 84.850 V 79.050 C 464.913 78.950 464.813 79.050 464.913 79.050 H 467.111 C 467.166 79.050 467.211 79.005 467.211 78.950 V 72.950 C 467.211 72.895 467.166 72.850 467.111 72.850 H 464.913 C 464.813 72.850 464.913 72.950 464.913 72.850 V 67.050 C 464.913 66.950 464.813 67.050 464.913 67.050 H 467.111 C 467.166 67.050 467.211 67.005 467.211 66.950 V 60.950 C 467.211 60.895 467.166 60.850 467.111 60.850 H 464.913 C 464.813 60.850 464.913 60.950 464.913 60.850 V 55.050 C 464.913 54.950 464.813 55.050 464.913 55.050 H 467.111 C 467.166 55.050 467.211 55.005 467.211 54.950 V 48.950 C 467.211 48.895 467.166 48.850 467.111 48.850 H 464.913 C 464.813 48.850 464.913 48.950 464.913 48.850 V 43.050 C 464.913 42.950 464.813 43.050 464.913 43.050 H 467.111 C 467.166 43.050 467.211 43.005 467.211 42.950 V 36.950 C 467.211 36.895 467.166 36.850 467.111 36.850 H 464.913 C 464.813 36.850 464.913 36.950 464.913 36.850 V 31.050 C 464.913 30.950 464.813 31.050 464.913 31.050 H 467.111 C 467.166 31.050 467.211 31.005 467.211 30.950 V 24.950 C 467.211 24.895 467.166 24.850 467.111 24.850 H 464.913 C 464.813 24.850 464.913 24.950 464.913 24.850 V 19.050 C 464.913 18.950 464.813 19.050 464.913 19.050 H 467.111 C 467.166 19.050 467.211 19.005 467.211 18.950 V 13.950 V 10.950 C 467.211 10.895 467.166 10.850 467.111 10.850 H 465.712 H 459.023 C 458.968 10.850 458.923 10.895 458.923 10.950 V 13.850 C 458.923 13.950 459.023 13.850 458.923 13.850 H 453.123 C 453.023 13.850 453.123 13.950 453.123 13.850 V 10.950 C 453.123 10.895 453.078 10.850 453.023 10.850 H 447.023 C 446.968 10.850 446.923 10.895 446.923 10.950 V 13.850 C 446.923 13.950 447.023 13.850 446.923 13.850 H 441.123 C 441.023 13.850 441.123 13.950 441.123 13.850 V 10.950 C 441.123 10.895 441.078 10.850 441.023 10.850 H 435.023 C 434.968 10.850 434.923 10.895 434.923 10.950 V 13.850 C 434.923 13.950 435.023 13.850 434.923 13.850 H 429.123 C 429.023 13.850 429.123 13.950 429.123 13.850 V 10.950 C 429.123 10.895 429.078 10.850 429.023 10.850 H 423.023 C 422.968 10.850 422.923 10.895 422.923 10.950 V 13.850 C 422.923 13.950 423.023 13.850 422.923 13.850 H 417.123 C 417.023 13.850 417.123 13.950 417.123 13.850 V 10.950 C 417.123 10.895 417.078 10.850 417.023 10.850 H 411.023 C 410.968 10.850 410.923 10.895 410.923 10.950 V 13.850 C 410.923 13.950 411.023 13.850 410.923 13.850 H 405.123 C 405.023 13.850 405.123 13.950 405.123 13.850 V 10.950 C 405.123 10.895 405.078 10.850 405.023 10.850 H 399.023 C 398.968 10.850 398.923 10.895 398.923 10.950 V 13.850 C 398.923 13.950 399.023 13.850 398.923 13.850 H 393.123 C 393.023 13.850 393.123 13.950 393.123 13.850 V 10.950 C 393.123 10.895 393.078 10.850 393.023 10.850 H 387.023 C 386.968 10.850 386.923 10.895 386.923 10.950 V 13.850 C 386.923 13.950 387.023 13.850 386.923 13.850 H 381.123 C 381.023 13.850 381.123 13.950 381.123 13.850 V 10.950 C 381.123 10.895 381.078 10.850 381.023 10.850 H 374.334 H 373.242 C 373.187 10.850 373.142 10.895 373.142 10.950 V 13.950 V 18.950 C 373.142 19.005 373.187 19.050 373.242 19.050 H 375.070 C 375.170 19.050 375.070 18.950 375.070 19.050 V 24.850 C 375.070 24.950 375.170 24.850 375.070 24.850 H 373.242 C 373.187 24.850 373.142 24.895 373.142 24.950 V 30.950 C 373.142 31.005 373.187 31.050 373.242 31.050 H 375.070 C 375.170 31.050 375.070 30.950 375.070 31.050 V 36.850 C 375.070 36.950 375.170 36.850 375.070 36.850 H 373.242 C 373.187 36.850 373.142 36.895 373.142 36.950 V 42.950 C 373.142 43.005 373.187 43.050 373.242 43.050 H 375.070 C 375.170 43.050 375.070 42.950 375.070 43.050 V 48.850 C 375.070 48.950 375.170 48.850 375.070 48.850 H 373.242 C 373.187 48.850 373.142 48.895 373.142 48.950 V 54.950 C 373.142 55.005 373.187 55.050 373.242 55.050 H 375.070 C 375.170 55.050 375.070 54.950 375.070 55.050 V 60.850 C 375.070 60.950 375.170 60.850 375.070 60.850 H 373.242 C 373.187 60.850 373.142 60.895 373.142 60.950 V 66.950 C 373.142 67.005 373.187 67.050 373.242 67.050 H 375.070 C 375.170 67.050 375.070 66.950 375.070 67.050 V 72.850 C 375.070 72.950 375.170 72.850 375.070 72.850 H 373.242 C 373.187 72.850 373.142 72.895 373.142 72.950 V 78.950 C 373.142 79.005 373.187 79.050 373.242 79.050 H 375.070 C 375.170 79.050 375.070 78.950 375.070 79.050 V 84.850 C 375.070 84.950 375.170 84.850 375.070 84.850 H 373.242 C 373.187 84.850 373.142 84.895 373.142 84.950 V 90.950 C 373.142 91.005 373.187 91.050 373.242 91.050 H 375.070 C 375.170 91.050 375.070 90.950 375.070 91.050 V 96.850 C 375.070 96.950 375.170 96.850 375.070 96.850 H 373.242 C 373.187 96.850 373.142 96.895 373.142 96.950 V 102.950 C 373.142 103.005 373.187 103.050 373.242 103.050 H 375.070 C 375.170 103.050 375.070 102.950 375.070 103.050 V 108.850 C 375.070 108.950 375.170 108.850 375.070 108.850 H 373.242 C 373.187 108.850 373.142 108.895 373.142 108.950 V 113.950 V 116.950 C 373.142 117.005 373.187 117.050 373.242 117.050 H 374.334 Z" stroke="rgb(0,0,0)" stroke-width="0.20" />
  <path d="M 471.910 117.050 H 477.542 C 477.597 117.050 477.642 117.005 477.642 116.950 V 114.050 C 477.642 113.950 477.542 114.050 477.642 114.050 H 483.442 C 483.542 114.050 483.442 113.950 483.442 114.050 V 116.950 C 483.442 117.005 483.486 117.050 483.542 117.050 H 489.542 C 489.597 117.050 489.642 117.005 489.642 116.950 V 114.050 C 489.642 113.950 489.542 114.050 489.642 114.050 H 495.442 C 495.542 114.050 495.442 113.950 495.442 114.050 V 116.950 C 495.442 117.005 495.486 117.050 495.542 117.050 H 501.542 C 501.597 117.050 501.642 117.005 501.642 116.950 V 114.050 C 501.642 113.950 501.542 114.050 501.642 114.050 H 507.442 C 507.542 114.050 507.442 113.950 507.442 114.050 V 116.950 C 507.442 117.005 507.486 117.050 507.542 117.050 H 513.173 C 513.228 117.050 513.273 117.005 513.273 116.950 V 113.950 V 109.050 C 513.273 108.950 513.173 109.050 513.273 109.050 H 516.173 C 516.228 109.050 516.273 109.005 516.273 108.950 V 102.950 C 516.273 102.895 516.228 102.850 516.173 102.850 H 513.273 C 513.173 102.850 513.273 102.950 513.273 102.850 V 97.050 C 513.273 96.950 513.173 97.050 513.273 97.050 H 516.173 C 516.228 97.050 516.273 97.005 516.273 96.950 V 90.950 C 516.273 90.895 516.228 90.850 516.173 90.850 H 513.273 C 513.173 90.850 513.273 90.950 513.273 90.850 V 85.050 C 513.273 84.950 513.173 85.050 513.273 85.050 H 516.173 C 516.228 85.050 516.273 85.005 516.273 84.950 V 78.950 C 516.273 78.895 516.228 78.850 516.173 78.850 H 513.273 C 513.173 78.850 513.273 78.950 513.273 78.850 V 73.050 C 513.273 72.950 513.173 73.050 513.273 73.050 H 516.173 C 516.228 73.050 516.273 73.005 516.273 72.950 V 66.950 C 516.273 66.895 516.228 66.850 516.173 66.850 H 513.273 C 513.173 66.850 513.273 66.950 513.273 66.850 V 61.050 C 513.273 60.950 513.173 61.050 513.273 61.050 H 516.173 C 516.228 61.050 516.273 61.005 516.273 60.950 V 54.950 C 516.273 54.895 516.228 54.850 516.173 54.850 H 513.273 C 513.173 54.850 513.273 54.950 513.273 54.850 V 49.050 C 513.273 48.950 513.173 49.050 513.273 49.050 H 516.173 C 516.228 49.050 516.273 49.005 516.273 48.950 V 42.950 C 516.273 42.895 516.228 42.850 516.173 42.850 H 513.273 C 513.173 42.850 513.273 42.950 513.273 42.850 V 37.050 C 513.273 36.950 513.173 37.050 513.273 37.050 H 516.173 C 516.228 37.050 516.273 37.005 516.273 36.950 V 30.950 C 516.273 30.895 516.228 30.850 516.173 30.850 H 513.273 C 513.173 30.850 513.273 30.950 513.273 30.850 V 25.050 C 513.273 24.950 513.173 25.050 513.273 25.050 H 516.173 C 516.228 25.050 516.273 25.005 516.273 24.950 V 18.950 C 516.273 18.895 516.228 18.850 516.173 18.850 H 513.273 C 513.173 18.850 513.273 18.950 513.273 18.850 V 13.950 V 10.950 C 513.273 10.895 513.228 10.850 513.173 10.850 H 507.542 C 507.486 10.850 507.442 10.895 507.442 10.950 V 13.850 C 507.442 13.950 507.542 13.850 507.442 13.850 H 501.642 C 501.542 13.850 501.642 13.950 501.642 13.850 V 10.950 C 501.642 10.895 501.597 10.850 501.542 10.850 H 495.542 C 495.486 10.850 495.442 10.895 495.442 10.950 V 13.850 C 495.442 13.950 495.542 13.850 495.442 13.850 H 489.642 C 489.542 13.850 489.642 13.950 489.642 13.850 V 10.950 C 489.642 10.895 489.597 10.850 489.542 10.850 H 483.542 C 483.486 10.850 483.442 10.895 483.442 10.950 V 13.850 C 483.442 13.950 483.542 13.850 483.442 13.850 H 477.642 C 477.542 13.850 477.642 13.950 477.642 13.850 V 10.950 C 477.642 10.895 477.597 10.850 477.542 10.850 H 471.910 H 472.809 C 472.754 10.850 472.709 10.895 472.709 10.950 V 13.950 V 18.850 C 472.709 18.950 472.809 18.850 472.709 18.850 H 470.511 C 470.456 18.850 470.411 18.895 470.411 18.950 V 24.950 C 470.411 25.005 470.456 25.050 470.511 25.050 H 472.709 C 472.809 25.050 472.709 24.950 472.709 25.050 V 30.850 C 472.709 30.950 472.809 30.850 472.709 30.850 H 470.511 C 470.456 30.850 470.411 30.895 470.411 30.950 V 36.950 C 470.411 37.005 470.456 37.050 470.511 37.050 H 472.709 C 472.809 37.050 472.709 36.950 472.709 37.050 V 42.850 C 472.709 42.950 472.809 42.850 472.709 42.850 H 470.511 C 470.456 42.850 470.411 42.895 470.411 42.950 V 48.950 C 470.411 49.005 470.456 49.050 470.511 49.050 H 472.709 C 472.809 49.050 472.709 48.950 472.709 49.050 V 54.850 C 472.709 54.950 472.809 54.850 472.709 54.850 H 470.511 C 470.456 54.850 470.411 54.895 470.411 54.950 V 60.950 C 470.411 61.005 470.456 61.050 470.511 61.050 H 472.709 C 472.809 61.050 472.709 60.950 472.709 61.050 V 66.850 C 472.709 66.950 472.809 66.850 472.709 66.850 H 470.511 C 470.456 66.850 470.411 66.895 470.411 66.950 V 72.950 C 470.411 73.005 470.456 73.050 470.511 73.050 H 472.709 C 472.809 73.050 472.709 72.950 472.709 73.050 V 78.850 C 472.709 78.950 472.809 78.850 472.709 78.850 H 470.511 C 470.456 78.850 470.411 78.895 470.411 78.950 V 84.950 C 470.411 85.005 470.456 85.050 470.511 85.050 H 472.709 C 472.809 85.050 472.709 84.950 472.709 85.050 V 90.850 C 472.709 90.950 472.809 90.850 472.709 90.850 H 470.511 C 470.456 90.850 470.411 90.895 470.411 90.950 V 96.950 C 470.411 97.005 470.456 97.050 470.511 97.050 H 472.709 C 472.809 97.050 472.709 96.950 472.709 97.050 V 102.850 C 472.709 102.950 472.809 102.850 472.709 102.850 H 470.511 C 470.456 102.850 470.411 102.895 470.411 102.950 V 108.950 C 470.411 109.005 470.456 109.050 470.511 109.050 H 472.709 C 472.809 109.050 472.709 108.950 472.709 109.050 V 113.950 V 116.950 C 472.709 117.005 472.754 117.050 472.809 117.050 H 471.910 Z" stroke="rgb(0,0,0)" stroke-width="0.20" />
  <path d="M 522.573 117.050 H 527.573 C 527.628 117.050 527.673 117.005 527.673 116.950 V 114.050 C 527.673 113.950 527.573 114.050 527.673 114.050 H 533.473 C 533.573 114.050 533.473 113.950 533.473 114.050 V 116.950 C 533.473 117.005 533.518 117.050 533.573 117.050 H 539.573 C 539.628 117.050 539.673 117.005 539.673 116.950 V 114.050 C 539.673 113.950 539.573 114.050 539.673 114.050 H 545.473 C 545.573 114.050 545.473 113.950 545.473 114.050 V 116.950 C 545.473 117.005 545.518 117.050 545.573 117.050 H 551.573 C 551.628 117.050 551.673 117.005 551.673 116.950 V 114.050 C 551.673 113.950 551.573 114.050 551.673 114.050 H 557.473 C 557.573 114.050 557.473 113.950 557.473 114.050 V 116.950 C 557.473 117.005 557.518 117.050 557.573 117.050 H 563.573 C 563.628 117.050 563.673 117.005 563.673 116.950 V 114.050 C 563.673 113.950 563.573 114.050 563.673 114.050 H 569.473 C 569.573 114.050 569.473 113.950 569.473 114.050 V 116.950 C 569.473 117.005 569.518 117.050 569.573 117.050 H 575.573 C 575.628 117.050 575.673 117.005 575.673 116.950 V 114.050 C 575.673 113.950 575.573 114.050 575.673 114.050 H 581.473 C 581.573 114.050 581.473 113.950 581.473 114.050 V 116.950 C 581.473 117.005 581.518 117.050 581.573 117.050 H 587.573 C 587.628 117.050 587.673 117.005 587.673 116.950 V 114.050 C 587.673 113.950 587.573 114.050 587.673 114.050 H 593.473 C 593.573 114.050 593.473 113.950 593.473 114.050 V 116.950 C 593.473 117.005 593.518 117.050 593.573 117.050 H 599.573 C 599.628 117.050 599.673 117.005 599.673 116.950 V 114.050 C 599.673 113.950 599.573 114.050 599.673 114.050 H 605.473 C 605.573 114.050 605.473 113.950 605.473 114.050 V 116.950 C 605.473 117.005 605.518 117.050 605.573 117.050 H 611.573 C 611.628 117.050 611.673 117.005 611.673 116.950 V 114.050 C 611.673 113.950 611.573 114.050 611.673 114.050 H 617.473 C 617.573 114.050 617.473 113.950 617.473 114.050 V 116.950 C 617.473 117.005 617.518 117.050 617.573 117.050 H 622.573 C 622.628 117.050 622.673 117.005 622.673 116.950 V 113.950 V 109.050 C 622.673 108.950 622.573 109.050 622.673 109.050 H 625.573 C 625.628 109.050 625.673 109.005 625.673 108.950 V 102.950 C 625.673 102.895 625.628 102.850 625.573 102.850 H 622.673 C 622.573 102.850 622.673 102.950 622.673 102.850 V 97.050 C 622.673 96.950 622.573 97.050 622.673 97.050 H 625.573 C 625.628 97.050 625.673 97.005 625.673 96.950 V 90.950 C 625.673 90.895 625.628 90.850 625.573 90.850 H 622.673 C 622.573 90.850 622.673 90.950 622.673 90.850 V 85.050 C 622.673 84.950 622.573 85.050 622.673 85.050 H 625.573 C 625.628 85.050 625.673 85.005 625.673 84.950 V 78.950 C 625.673 78.895 625.628 78.850 625.573 78.850 H 622.673 C 622.573 78.850 622.673 78.950 622.673 78.850 V 73.050 C 622.673 72.950 622.573 73.050 622.673 73.050 H 625.573 C 625.628 73.050 625.673 73.005 625.673 72.950 V 66.950 C 625.673 66.895 625.628 66.850 625.573 66.850 H 622.673 C 622.573 66.850 622.673 66.950 622.673 66.850 V 61.050 C 622.673 60.950 622.573 61.050 622.673 61.050 H 625.573 C 625.628 61.050 625.673 61.005 625.673 60.950 V 54.950 C 625.673 54.895 625.628 54.850 625.573 54.850 H 622.673 C 622.573 54.850 622.673 54.950 622.673 54.850 V 49.050 C 622.673 48.950 622.573 49.050 622.673 49.050 H 625.573 C 625.628 49.050 625.673 49.005 625.673 48.950 V 42.950 C 625.673 42.895 625.628 42.850 625.573 42.850 H 622.673 C 622.573 42.850 622.673 42.950 622.673 42.850 V 37.050 C 622.673 36.950 622.573 37.050 622.673 37.050 H 625.573 C 625.628 37.050 625.673 37.005 625.673 36.950 V 30.950 C 625.673 30.895 625.628 30.850 625.573 30.850 H 622.673 C 622.573 30.850 622.673 30.950 622.673 30.850 V 25.050 C 622.673 24.950 622.573 25.050 622.673 25.050 H 625.573 C 625.628 25.050 625.673 25.005 625.673 24.950 V 18.950 C 625.673 18.895 625.628 18.850 625.573 18.850 H 622.673 C 622.573 18.850 622.673 18.950 622.673 18.850 V 13.950 V 10.950 C 622.673 10.895 622.628 10.850 622.573 10.850 H 617.573 C 617.518 10.850 617.473 10.895 617.473 10.950 V 13.850 C 617.473 13.950 617.573 13.850 617.473 13.850 H 611.673 C 611.573 13.850 611.673 13.950 611.673 13.850 V 10.950 C 611.673 10.895 611.628 10.850 611.573 10.850 H 605.573 C 605.518 10.850 605.473 10.895 605.473 10.950 V 13.850 C 605.473 13.950 605.573 13.850 605.473 13.850 H 599.673 C 599.573 13.850 599.673 13.950 599.673 13.850 V 10.950 C 599.673 10.895 599.628 10.850 599.573 10.850 H 593.573 C 593.518 10.850 593.473 10.895 593.473 10.950 V 13.850 C 593.473 13.950 593.573 13.850 593.473 13.850 H 587.673 C 587.573 13.850 587.673 13.950 587.673 13.850 V 10.950 C 587.673 10.895 587.628 10.850 587.573 10.850 H 581.573 C 581.518 10.850 581.473 10.895 581.473 10.950 V 13.850 C 581.473 13.950 581.573 13.850 581.473 13.850 H 575.673 C 575.573 13.850 575.673 13.950 575.673 13.850 V 10.950 C 575.673 10.895 575.628 10.850 575.573 10.850 H 569.573 C 569.518 10.850 569.473 10.895 569.473 10.950 V 13.850 C 569.473 13.950 569.573 13.850 569.473 13.850 H 563.673 C 563.573 13.850 563.673 13.950 563.673 13.850 V 10.950 C 563.673 10.895 563.628 10.850 563.573 10.850 H 557.573 C 557.518 10.850 557.473 10.895 557.473 10.950 V 13.850 C 557.473 13.950 557.573 13.850 557.473 13.850 H 551.673 C 551.573 13.850 551.673 13.950 551.673 13.850 V 10.950 C 551.673 10.895 551.628 10.850 551.573 10.850 H 545.573 C 545.518 10.850 545.473 10.895 545.473 10.950 V 13.850 C 545.473 13.950 545.573 13.850 545.473 13.850 H 539.673 C 539.573 13.850 539.673 13.950 539.673 13.850 V 10.950 C 539.673 10.895 539.628 10.850 539.573 10.850 H 533.573 C 533.518 10.850 533.473 10.895 533.473 10.950 V 13.850 C 533.473 13.950 533.573 13.850 533.473 13.850 H 527.673 C 527.573 13.850 527.673 13.950 527.673 13.850 V 10.950 C 527.673 10.895 527.628 10.850 527.573 10.850 H 522.573 H 519.573 C 519.518 10.850 519.473 10.895 519.473 10.950 V 13.950 V 18.950 C 519.473 19.005 519.518 19.050 519.573 19.050 H 522.473 C 522.573 19.050 522.473 18.950 522.473 19.050 V 24.850 C 522.473 24.950 522.573 24.850 522.473 24.850 H 519.573 C 519.518 24.850 519.473 24.895 519.473 24.950 V 30.950 C 519.473 31.005 519.518 31.050 519.573 31.050 H 522.473 C 522.573 31.050 522.473 30.950 522.473 31.050 V 36.850 C 522.473 36.950 522.573 36.850 522.473 36.850 H 519.573 C 519.518 36.850 519.473 36.895 519.473 36.950 V 42.950 C 519.473 43.005 519.518 43.050 519.573 43.050 H 522.473 C 522.573 43.050 522.473 42.950 522.473 43.050 V 48.850 C 522.473 48.950 522.573 48.850 522.473 48.850 H 519.573 C 519.518 48.850 519.473 48.895 519.473 48.950 V 54.950 C 519.473 55.005 519.518 55.050 519.573 55.050 H 522.473 C 522.573 55.050 522.473 54.950 522.473 55.050 V 60.850 C 522.473 60.950 522.573 60.850 522.473 60.850 H 519.573 C 519.518 60.850 519.473 60.895 519.473 60.950 V 66.950 C 519.473 67.005 519.518 67.050 519.573 67.050 H 522.473 C 522.573 67.050 522.473 66.950 522.473 67.050 V 72.850 C 522.473 72.950 522.573 72.850 522.473 72.850 H 519.573 C 519.518 72.850 519.473 72.895 519.473 72.950 V 78.950 C 519.473 79.005 519.518 79.050 519.573 79.050 H 522.473 C 522.573 79.050 522.473 78.950 522.473 79.050 V 84.850 C 522.473 84.950 522.573 84.850 522.473 84.850 H 519.573 C 519.518 84.850 519.473 84.895 519.473 84.950 V 90.950 C 519.473 91.005 519.518 91.050 519.573 91.050 H 522.473 C 522.573 91.050 522.473 90.950 522.473 91.050 V 96.850 C 522.473 96.950 522.573 96.850 522.473 96.850 H 519.573 C 519.518 96.850 519.473 96.895 519.473 96.950 V 102.950 C 519.473 103.005 519.518 103.050 519.573 103.050 H 522.473 C 522.573 103.050 522.473 102.950 522.473 103.050 V 108.850 C 522.473 108.950 522.573 108.850 522.473 108.850 H 519.573 C 519.518 108.850 519.473 108.895 519.473 108.950 V 113.950 V 116.950 C 519.473 117.005 519.518 117.050 519.573 117.050 H 522.573 Z" stroke="rgb(0,0,0)" stroke-width="0.20" />
</g>
</svg>