<?xml version='1.0' encoding='utf-8'?>
<svg height="137.90mm" viewBox="0.0 0.0 644.37 137.90" width="644.37mm" xmlns="http://www.w3.org/2000/svg" xmlns:cc="http://creativecommons.org/ns#" xmlns:dc="http://purl.org/dc/elements/1.1/" xmlns:inkscape="http://www.inkscape.org/namespaces/inkscape" xmlns:rdf="http://www.w3.org/1999/02/22-rdf-syntax-ns#" xmlns:svg="http://www.w3.org/2000/svg" xmlns:xlink="http://www.w3.org/1999/xlink">
<!--
Console - Console with slanted panel




Console Arcade Stick

![Front](static/samples/ConsoleArcadeStickFront.jpg)
![Back](static/samples/ConsoleArcadeStickBack.jpg)
![Inside](static/samples/ConsoleArcadeStickInside.jpg)

Keyboard enclosure:



Created with Boxes.py (https://festi.info/boxes.py)
Command line (remove spaces between dashes): boxes Console
-->
<title>Console</title>
<metadata>
<rdf:RDF><cc:Work>
<dc:title>Box - Console</dc:title>
<dc:source>boxes Console</dc:source>
<dc:description>Console with slanted panel



Console Arcade Stick

![Front](static/samples/ConsoleArcadeStickFront.jpg)
![Back](static/samples/ConsoleArcadeStickBack.jpg)
![Inside](static/samples/ConsoleArcadeStickInside.jpg)

Keyboard enclosure:


Created with Boxes.py (https://festi.info/boxes.py)
Command line: boxes Console
Command line short: boxes Console
</dc:description>
</cc:Work></rdf:RDF></metadata>
<g id="p-0" style="fill:none;stroke-linecap:round;stroke-linejoin:round;">
  <path d="M 18.800 127.900 H 118.800 V 117.900 H 18.800 V 127.900 Z" stroke="rgb(0,0,0)" stroke-width="0.20" />
  <text dominant-baseline="hanging" font-size="8px" style="font-family: sans-serif ; font-weight: normal; font-style: normal; fill: rgb(255,0,0)" text-anchor="middle" transform="matrix( 1.000 0.000 0.000 1.000 68.800 118.900 )">100.00mm, burn:0.10mm</text>
</g>
<g id="p-1" style="fill:none;stroke-linecap:round;stroke-linejoin:round;">
  <path d="M 21.800 113.200 H 26.700 C 26.800 113.200 26.700 113.100 26.700 113.200 V 116.100 C 26.700 116.155 26.745 116.200 26.800 116.200 H 32.800 C 32.855 116.200 32.900 116.155 32.900 116.100 V 113.200 C 32.900 113.100 32.800 113.200 32.900 113.200 H 38.700 C 38.800 113.200 38.700 113.100 38.700 113.200 V 116.100 C 38.700 116.155 38.745 116.200 38.800 116.200 H 44.800 C 44.855 116.200 44.900 116.155 44.900 116.100 V 113.200 C 44.900 113.100 44.800 113.200 44.900 113.200 H 50.700 C 50.800 113.200 50.700 113.100 50.700 113.200 V 116.100 C 50.700 116.155 50.745 116.200 50.800 116.200 H 56.800 C 56.855 116.200 56.900 116.155 56.900 116.100 V 113.200 C 56.900 113.100 56.800 113.200 56.900 113.200 H 62.700 C 62.800 113.200 62.700 113.100 62.700 113.200 V 116.100 C 62.700 116.155 62.745 116.200 62.800 116.200 H 68.800 C 68.855 116.200 68.900 116.155 68.900 116.100 V 113.200 C 68.900 113.100 68.800 113.200 68.900 113.200 H 74.700 C 74.800 113.200 74.700 113.100 74.700 113.200 V 116.100 C 74.700 116.155 74.745 116.200 74.800 116.200 H 80.800 C 80.855 116.200 80.900 116.155 80.900 116.100 V 113.200 C 80.900 113.100 80.800 113.200 80.900 113.200 H 86.700 C 86.800 113.200 86.700 113.100 86.700 113.200 V 116.100 C 86.700 116.155 86.745 116.200 86.800 116.200 H 92.800 C 92.855 116.200 92.900 116.155 92.900 116.100 V 113.200 C 92.900 113.100 92.800 113.200 92.900 113.200 H 98.700 C 98.800 113.200 98.700 113.100 98.700 113.200 V 116.100 C 98.700 116.155 98.745 116.200 98.800 116.200 H 104.800 C 104.855 116.200 104.900 116.155 104.900 116.100 V 113.200 C 104.900 113.100 104.800 113.200 104.900 113.200 H 110.700 C 110.800 113.200 110.700 113.100 110.700 113.200 V 116.100 C 110.700 116.155 110.745 116.200 110.800 116.200 H 116.800 C 116.855 116.200 116.900 116.155 116.900 116.100 V 113.200 C 116.900 113.100 116.800 113.200 116.900 113.200 H 121.800 C 121.855 113.200 121.900 113.155 121.900 113.100 V 107.200 C 121.900 107.100 121.800 107.200 121.900 107.200 H 124.800 C 124.855 107.200 124.900 107.155 124.900 107.100 V 101.100 C 124.900 101.045 124.855 101.000 124.800 101.000 H 121.900 C 121.800 101.000 121.900 101.100 121.900 101.000 V 95.200 C 121.900 95.100 121.800 95.200 121.900 95.200 H 124.800 C 124.855 95.200 124.900 95.155 124.900 95.100 V 89.100 C 124.900 89.045 124.855 89.000 124.800 89.000 H 121.900 C 121.800 89.000 121.900 89.100 121.900 89.000 V 83.100 C 121.900 83.076 121.892 83.054 121.877 83.036 L 117.641 77.988 C 117.577 77.911 117.565 78.052 117.641 77.988 L 119.863 76.124 C 119.905 76.088 119.910 76.025 119.875 75.983 L 116.018 71.387 C 115.983 71.345 115.920 71.339 115.877 71.374 L 113.656 73.239 C 113.579 73.303 113.720 73.315 113.656 73.239 L 109.928 68.796 C 109.863 68.719 109.851 68.860 109.928 68.796 L 112.149 66.931 C 112.191 66.896 112.197 66.833 112.162 66.791 L 108.305 62.194 C 108.269 62.152 108.206 62.146 108.164 62.182 L 105.942 64.046 C 105.866 64.110 106.007 64.123 105.942 64.046 L 102.214 59.603 C 102.150 59.526 102.138 59.667 102.214 59.603 L 104.436 57.739 C 104.478 57.703 104.484 57.640 104.448 57.598 L 100.591 53.002 C 100.556 52.959 100.493 52.954 100.450 52.989 L 98.229 54.854 C 98.152 54.918 98.293 54.930 98.229 54.854 L 94.501 50.410 C 94.436 50.334 94.424 50.475 94.501 50.410 L 96.722 48.546 C 96.765 48.511 96.770 48.448 96.735 48.405 L 92.878 43.809 C 92.842 43.767 92.779 43.761 92.737 43.797 L 90.515 45.661 C 90.439 45.725 90.580 45.738 90.515 45.661 L 86.787 41.218 C 86.723 41.141 86.711 41.282 86.787 41.218 L 89.009 39.354 C 89.051 39.318 89.057 39.255 89.021 39.213 L 85.164 34.617 C 85.129 34.574 85.066 34.569 85.024 34.604 L 82.802 36.468 C 82.725 36.533 82.866 36.545 82.802 36.468 L 79.074 32.025 C 79.010 31.949 78.997 32.090 79.074 32.025 L 81.295 30.161 C 81.338 30.126 81.343 30.063 81.308 30.020 L 77.451 25.424 C 77.415 25.382 77.352 25.376 77.310 25.412 L 75.089 27.276 C 75.012 27.340 75.153 27.353 75.089 27.276 L 71.360 22.833 C 71.296 22.756 71.284 22.897 71.360 22.833 L 73.582 20.969 C 73.624 20.933 73.630 20.870 73.594 20.828 L 69.738 16.232 C 69.702 16.189 69.639 16.184 69.597 16.219 L 67.375 18.083 C 67.299 18.148 67.439 18.160 67.375 18.083 L 63.140 13.036 C 63.121 13.013 63.093 13.000 63.063 13.000 H 57.532 C 57.432 13.000 57.532 13.100 57.532 13.000 V 10.100 C 57.532 10.045 57.487 10.000 57.432 10.000 H 51.432 C 51.376 10.000 51.332 10.045 51.332 10.100 V 13.000 C 51.332 13.100 51.432 13.000 51.332 13.000 H 45.532 C 45.432 13.000 45.532 13.100 45.532 13.000 V 10.100 C 45.532 10.045 45.487 10.000 45.432 10.000 H 39.432 C 39.376 10.000 39.332 10.045 39.332 10.100 V 13.000 C 39.332 13.100 39.432 13.000 39.332 13.000 H 33.532 C 33.432 13.000 33.532 13.100 33.532 13.000 V 10.100 C 33.532 10.045 33.487 10.000 33.432 10.000 H 27.432 C 27.376 10.000 27.332 10.045 27.332 10.100 V 13.000 C 27.332 13.100 27.432 13.000 27.332 13.000 H 21.800 C 21.745 13.000 21.700 13.045 21.700 13.100 V 18.000 C 21.700 18.100 21.800 18.000 21.700 18.000 H 18.800 C 18.745 18.000 18.700 18.045 18.700 18.100 V 24.100 C 18.700 24.155 18.745 24.200 18.800 24.200 H 21.700 C 21.800 24.200 21.700 24.100 21.700 24.200 V 30.000 C 21.700 30.100 21.800 30.000 21.700 30.000 H 18.800 C 18.745 30.000 18.700 30.045 18.700 30.100 V 36.100 C 18.700 36.155 18.745 36.200 18.800 36.200 H 21.700 C 21.800 36.200 21.700 36.100 21.700 36.200 V 42.000 C 21.700 42.100 21.800 42.000 21.700 42.000 H 18.800 C 18.745 42.000 18.700 42.045 18.700 42.100 V 48.100 C 18.700 48.155 18.745 48.200 18.800 48.200 H 21.700 C 21.800 48.200 21.700 48.100 21.700 48.200 V 54.000 C 21.700 54.100 21.800 54.000 21.700 54.000 H 18.800 C 18.745 54.000 18.700 54.045 18.700 54.100 V 60.100 C 18.700 60.155 18.745 60.200 18.800 60.200 H 21.700 C 21.800 60.200 21.700 60.100 21.700 60.200 V 66.000 C 21.700 66.100 21.800 66.000 21.700 66.000 H 18.800 C 18.745 66.000 18.700 66.045 18.700 66.100 V 72.100 C 18.700 72.155 18.745 72.200 18.800 72.200 H 21.700 C 21.800 72.200 21.700 72.100 21.700 72.200 V 78.000 C 21.700 78.100 21.800 78.000 21.700 78.000 H 18.800 C 18.745 78.000 18.700 78.045 18.700 78.100 V 84.100 C 18.700 84.155 18.745 84.200 18.800 84.200 H 21.700 C 21.800 84.200 21.700 84.100 21.700 84.200 V 90.000 C 21.700 90.100 21.800 90.000 21.700 90.000 H 18.800 C 18.745 90.000 18.700 90.045 18.700 90.100 V 96.100 C 18.700 96.155 18.745 96.200 18.800 96.200 H 21.700 C 21.800 96.200 21.700 96.100 21.700 96.200 V 102.000 C 21.700 102.100 21.800 102.000 21.700 102.000 H 18.800 C 18.745 102.000 18.700 102.045 18.700 102.100 V 108.100 C 18.700 108.155 18.745 108.200 18.800 108.200 H 21.700 C 21.800 108.200 21.700 108.100 21.700 108.200 V 113.100 C 21.700 113.155 21.745 113.200 21.800 113.200 Z" stroke="rgb(0,0,0)" stroke-width="0.20" />
</g>
<g id="p-2" style="fill:none;stroke-linecap:round;stroke-linejoin:round;">
  <path d="M 129.500 113.200 H 134.400 C 134.500 113.200 134.400 113.100 134.400 113.200 V 116.100 C 134.400 116.155 134.445 116.200 134.500 116.200 H 140.500 C 140.555 116.200 140.600 116.155 140.600 116.100 V 113.200 C 140.600 113.100 140.500 113.200 140.600 113.200 H 146.400 C 146.500 113.200 146.400 113.100 146.400 113.200 V 116.100 C 146.400 116.155 146.445 116.200 146.500 116.200 H 152.500 C 152.555 116.200 152.600 116.155 152.600 116.100 V 113.200 C 152.600 113.100 152.500 113.200 152.600 113.200 H 158.400 C 158.500 113.200 158.400 113.100 158.400 113.200 V 116.100 C 158.400 116.155 158.445 116.200 158.500 116.200 H 164.500 C 164.555 116.200 164.600 116.155 164.600 116.100 V 113.200 C 164.600 113.100 164.500 113.200 164.600 113.200 H 170.400 C 170.500 113.200 170.400 113.100 170.400 113.200 V 116.100 C 170.400 116.155 170.445 116.200 170.500 116.200 H 176.500 C 176.555 116.200 176.600 116.155 176.600 116.100 V 113.200 C 176.600 113.100 176.500 113.200 176.600 113.200 H 182.400 C 182.500 113.200 182.400 113.100 182.400 113.200 V 116.100 C 182.400 116.155 182.445 116.200 182.500 116.200 H 188.500 C 188.555 116.200 188.600 116.155 188.600 116.100 V 113.200 C 188.600 113.100 188.500 113.200 188.600 113.200 H 194.400 C 194.500 113.200 194.400 113.100 194.400 113.200 V 116.100 C 194.400 116.155 194.445 116.200 194.500 116.200 H 200.500 C 200.555 116.200 200.600 116.155 200.600 116.100 V 113.200 C 200.600 113.100 200.500 113.200 200.600 113.200 H 206.400 C 206.500 113.200 206.400 113.100 206.400 113.200 V 116.100 C 206.400 116.155 206.445 116.200 206.500 116.200 H 212.500 C 212.555 116.200 212.600 116.155 212.600 116.100 V 113.200 C 212.600 113.100 212.500 113.200 212.600 113.200 H 218.400 C 218.500 113.200 218.400 113.100 218.400 113.200 V 116.100 C 218.400 116.155 218.445 116.200 218.500 116.200 H 224.500 C 224.555 116.200 224.600 116.155 224.600 116.100 V 113.200 C 224.600 113.100 224.500 113.200 224.600 113.200 H 229.500 C 229.555 113.200 229.600 113.155 229.600 113.100 V 107.200 C 229.600 107.100 229.500 107.200 229.600 107.200 H 232.500 C 232.555 107.200 232.600 107.155 232.600 107.100 V 101.100 C 232.600 101.045 232.555 101.000 232.500 101.000 H 229.600 C 229.500 101.000 229.600 101.100 229.600 101.000 V 95.200 C 229.600 95.100 229.500 95.200 229.600 95.200 H 232.500 C 232.555 95.200 232.600 95.155 232.600 95.100 V 89.100 C 232.600 89.045 232.555 89.000 232.500 89.000 H 229.600 C 229.500 89.000 229.600 89.100 229.600 89.000 V 83.100 C 229.600 83.076 229.592 83.054 229.577 83.036 L 225.341 77.988 C 225.277 77.911 225.265 78.052 225.341 77.988 L 227.563 76.124 C 227.605 76.088 227.610 76.025 227.575 75.983 L 223.718 71.387 C 223.683 71.345 223.620 71.339 223.577 71.374 L 221.356 73.239 C 221.279 73.303 221.420 73.315 221.356 73.239 L 217.628 68.796 C 217.563 68.719 217.551 68.860 217.628 68.796 L 219.849 66.931 C 219.891 66.896 219.897 66.833 219.862 66.791 L 216.005 62.194 C 215.969 62.152 215.906 62.146 215.864 62.182 L 213.642 64.046 C 213.566 64.110 213.707 64.123 213.642 64.046 L 209.914 59.603 C 209.850 59.526 209.838 59.667 209.914 59.603 L 212.136 57.739 C 212.178 57.703 212.184 57.640 212.148 57.598 L 208.291 53.002 C 208.256 52.959 208.193 52.954 208.150 52.989 L 205.929 54.854 C 205.852 54.918 205.993 54.930 205.929 54.854 L 202.201 50.410 C 202.136 50.334 202.124 50.475 202.201 50.410 L 204.422 48.546 C 204.465 48.511 204.470 48.448 204.435 48.405 L 200.578 43.809 C 200.542 43.767 200.479 43.761 200.437 43.797 L 198.215 45.661 C 198.139 45.725 198.280 45.738 198.215 45.661 L 194.487 41.218 C 194.423 41.141 194.411 41.282 194.487 41.218 L 196.709 39.354 C 196.751 39.318 196.757 39.255 196.721 39.213 L 192.864 34.617 C 192.829 34.574 192.766 34.569 192.724 34.604 L 190.502 36.468 C 190.425 36.533 190.566 36.545 190.502 36.468 L 186.774 32.025 C 186.710 31.949 186.697 32.090 186.774 32.025 L 188.995 30.161 C 189.038 30.126 189.043 30.063 189.008 30.020 L 185.151 25.424 C 185.115 25.382 185.052 25.376 185.010 25.412 L 182.789 27.276 C 182.712 27.340 182.853 27.353 182.789 27.276 L 179.060 22.833 C 178.996 22.756 178.984 22.897 179.060 22.833 L 181.282 20.969 C 181.324 20.933 181.330 20.870 181.294 20.828 L 177.438 16.232 C 177.402 16.189 177.339 16.184 177.297 16.219 L 175.075 18.083 C 174.999 18.148 175.139 18.160 175.075 18.083 L 170.840 13.036 C 170.821 13.013 170.793 13.000 170.763 13.000 H 165.232 C 165.132 13.000 165.232 13.100 165.232 13.000 V 10.100 C 165.232 10.045 165.187 10.000 165.132 10.000 H 159.132 C 159.076 10.000 159.032 10.045 159.032 10.100 V 13.000 C 159.032 13.100 159.132 13.000 159.032 13.000 H 153.232 C 153.132 13.000 153.232 13.100 153.232 13.000 V 10.100 C 153.232 10.045 153.187 10.000 153.132 10.000 H 147.132 C 147.076 10.000 147.032 10.045 147.032 10.100 V 13.000 C 147.032 13.100 147.132 13.000 147.032 13.000 H 141.232 C 141.132 13.000 141.232 13.100 141.232 13.000 V 10.100 C 141.232 10.045 141.187 10.000 141.132 10.000 H 135.132 C 135.076 10.000 135.032 10.045 135.032 10.100 V 13.000 C 135.032 13.100 135.132 13.000 135.032 13.000 H 129.500 C 129.445 13.000 129.400 13.045 129.400 13.100 V 18.000 C 129.400 18.100 129.500 18.000 129.400 18.000 H 126.500 C 126.445 18.000 126.400 18.045 126.400 18.100 V 24.100 C 126.400 24.155 126.445 24.200 126.500 24.200 H 129.400 C 129.500 24.200 129.400 24.100 129.400 24.200 V 30.000 C 129.400 30.100 129.500 30.000 129.400 30.000 H 126.500 C 126.445 30.000 126.400 30.045 126.400 30.100 V 36.100 C 126.400 36.155 126.445 36.200 126.500 36.200 H 129.400 C 129.500 36.200 129.400 36.100 129.400 36.200 V 42.000 C 129.400 42.100 129.500 42.000 129.400 42.000 H 126.500 C 126.445 42.000 126.400 42.045 126.400 42.100 V 48.100 C 126.400 48.155 126.445 48.200 126.500 48.200 H 129.400 C 129.500 48.200 129.400 48.100 129.400 48.200 V 54.000 C 129.400 54.100 129.500 54.000 129.400 54.000 H 126.500 C 126.445 54.000 126.400 54.045 126.400 54.100 V 60.100 C 126.400 60.155 126.445 60.200 126.500 60.200 H 129.400 C 129.500 60.200 129.400 60.100 129.400 60.200 V 66.000 C 129.400 66.100 129.500 66.000 129.400 66.000 H 126.500 C 126.445 66.000 126.400 66.045 126.400 66.100 V 72.100 C 126.400 72.155 126.445 72.200 126.500 72.200 H 129.400 C 129.500 72.200 129.400 72.100 129.400 72.200 V 78.000 C 129.400 78.100 129.500 78.000 129.400 78.000 H 126.500 C 126.445 78.000 126.400 78.045 126.400 78.100 V 84.100 C 126.400 84.155 126.445 84.200 126.500 84.200 H 129.400 C 129.500 84.200 129.400 84.100 129.400 84.200 V 90.000 C 129.400 90.100 129.500 90.000 129.400 90.000 H 126.500 C 126.445 90.000 126.400 90.045 126.400 90.100 V 96.100 C 126.400 96.155 126.445 96.200 126.500 96.200 H 129.400 C 129.500 96.200 129.400 96.100 129.400 96.200 V 102.000 C 129.400 102.100 129.500 102.000 129.400 102.000 H 126.500 C 126.445 102.000 126.400 102.045 126.400 102.100 V 108.100 C 126.400 108.155 126.445 108.200 126.500 108.200 H 129.400 C 129.500 108.200 129.400 108.100 129.400 108.200 V 113.100 C 129.400 113.155 129.445 113.200 129.500 113.200 Z" stroke="rgb(0,0,0)" stroke-width="0.20" />
</g>
<g id="p-3" style="fill:none;stroke-linecap:round;stroke-linejoin:round;">
  <path d="M 238.050 117.050 H 243.050 C 243.105 117.050 243.150 117.005 243.150 116.950 V 114.050 C 243.150 113.950 243.050 114.050 243.150 114.050 H 248.950 C 249.050 114.050 248.950 113.950 248.950 114.050 V 116.950 C 248.950 117.005 248.995 117.050 249.050 117.050 H 255.050 C 255.105 117.050 255.150 117.005 255.150 116.950 V 114.050 C 255.150 113.950 255.050 114.050 255.150 114.050 H 260.950 C 261.050 114.050 260.950 113.950 260.950 114.050 V 116.950 C 260.950 117.005 260.995 117.050 261.050 117.050 H 267.050 C 267.105 117.050 267.150 117.005 267.150 116.950 V 114.050 C 267.150 113.950 267.050 114.050 267.150 114.050 H 272.950 C 273.050 114.050 272.950 113.950 272.950 114.050 V 116.950 C 272.950 117.005 272.995 117.050 273.050 117.050 H 279.050 C 279.105 117.050 279.150 117.005 279.150 116.950 V 114.050 C 279.150 113.950 279.050 114.050 279.150 114.050 H 284.950 C 285.050 114.050 284.950 113.950 284.950 114.050 V 116.950 C 284.950 117.005 284.995 117.050 285.050 117.050 H 291.050 C 291.105 117.050 291.150 117.005 291.150 116.950 V 114.050 C 291.150 113.950 291.050 114.050 291.150 114.050 H 296.950 C 297.050 114.050 296.950 113.950 296.950 114.050 V 116.950 C 296.950 117.005 296.995 117.050 297.050 117.050 H 303.050 C 303.105 117.050 303.150 117.005 303.150 116.950 V 114.050 C 303.150 113.950 303.050 114.050 303.150 114.050 H 308.950 C 309.050 114.050 308.950 113.950 308.950 114.050 V 116.950 C 308.950 117.005 308.995 117.050 309.050 117.050 H 315.050 C 315.105 117.050 315.150 117.005 315.150 116.950 V 114.050 C 315.150 113.950 315.050 114.050 315.150 114.050 H 320.950 C 321.050 114.050 320.950 113.950 320.950 114.050 V 116.950 C 320.950 117.005 320.995 117.050 321.050 117.050 H 327.050 C 327.105 117.050 327.150 117.005 327.150 116.950 V 114.050 C 327.150 113.950 327.050 114.050 327.150 114.050 H 332.950 C 333.050 114.050 332.950 113.950 332.950 114.050 V 116.950 C 332.950 117.005 332.995 117.050 333.050 117.050 H 338.050 H 341.050 C 341.105 117.050 341.150 117.005 341.150 116.950 V 113.950 V 108.950 C 341.150 108.895 341.105 108.850 341.050 108.850 H 338.150 C 338.050 108.850 338.150 108.950 338.150 108.850 V 103.050 C 338.150 102.950 338.050 103.050 338.150 103.050 H 341.050 C 341.105 103.050 341.150 103.005 341.150 102.950 V 96.950 C 341.150 96.895 341.105 96.850 341.050 96.850 H 338.150 C 338.050 96.850 338.150 96.950 338.150 96.850 V 91.050 C 338.150 90.950 338.050 91.050 338.150 91.050 H 341.050 C 341.105 91.050 341.150 91.005 341.150 90.950 V 84.950 C 341.150 84.895 341.105 84.850 341.050 84.850 H 338.150 C 338.050 84.850 338.150 84.950 338.150 84.850 V 79.050 C 338.150 78.950 338.050 79.050 338.150 79.050 H 341.050 C 341.105 79.050 341.150 79.005 341.150 78.950 V 72.950 C 341.150 72.895 341.105 72.850 341.050 72.850 H 338.150 C 338.050 72.850 338.150 72.950 338.150 72.850 V 67.050 C 338.150 66.950 338.050 67.050 338.150 67.050 H 341.050 C 341.105 67.050 341.150 67.005 341.150 66.950 V 60.950 C 341.150 60.895 341.105 60.850 341.050 60.850 H 338.150 C 338.050 60.850 338.150 60.950 338.150 60.850 V 55.050 C 338.150 54.950 338.050 55.050 338.150 55.050 H 341.050 C 341.105 55.050 341.150 55.005 341.150 54.950 V 48.950 C 341.150 48.895 341.105 48.850 341.050 48.850 H 338.150 C 338.050 48.850 338.150 48.950 338.150 48.850 V 43.050 C 338.150 42.950 338.050 43.050 338.150 43.050 H 341.050 C 341.105 43.050 341.150 43.005 341.150 42.950 V 36.950 C 341.150 36.895 341.105 36.850 341.050 36.850 H 338.150 C 338.050 36.850 338.150 36.950 338.150 36.850 V 31.050 C 338.150 30.950 338.050 31.050 338.150 31.050 H 341.050 C 341.105 31.050 341.150 31.005 341.150 30.950 V 24.950 C 341.150 24.895 341.105 24.850 341.050 24.850 H 338.150 C 338.050 24.850 338.150 24.950 338.150 24.850 V 19.050 C 338.150 18.950 338.050 19.050 338.150 19.050 H 341.050 C 341.105 19.050 341.150 19.005 341.150 18.950 V 13.950 V 10.950 C 341.150 10.895 341.105 10.850 341.050 10.850 H 338.050 H 333.050 C 332.995 10.850 332.950 10.895 332.950 10.950 V 13.850 C 332.950 13.950 333.050 13.850 332.950 13.850 H 327.150 C 327.050 13.850 327.150 13.950 327.150 13.850 V 10.950 C 327.150 10.895 327.105 10.850 327.050 10.850 H 321.050 C 320.995 10.850 320.950 10.895 320.950 10.950 V 13.850 C 320.950 13.950 321.050 13.850 320.950 13.850 H 315.150 C 315.050 13.850 315.150 13.950 315.150 13.850 V 10.950 C 315.150 10.895 315.105 10.850 315.050 10.850 H 309.050 C 308.995 10.850 308.950 10.895 308.950 10.950 V 13.850 C 308.950 13.950 309.050 13.850 308.950 13.850 H 303.150 C 303.050 13.850 303.150 13.950 303.150 13.850 V 10.950 C 303.150 10.895 303.105 10.850 303.050 10.850 H 297.050 C 296.995 10.850 296.950 10.895 296.950 10.950 V 13.850 C 296.950 13.950 297.050 13.850 296.950 13.850 H 291.150 C 291.050 13.850 291.150 13.950 291.150 13.850 V 10.950 C 291.150 10.895 291.105 10.850 291.050 10.850 H 285.050 C 284.995 10.850 284.950 10.895 284.950 10.950 V 13.850 C 284.950 13.950 285.050 13.850 284.950 13.850 H 279.150 C 279.050 13.850 279.150 13.950 279.150 13.850 V 10.950 C 279.150 10.895 279.105 10.850 279.050 10.850 H 273.050 C 272.995 10.850 272.950 10.895 272.950 10.950 V 13.850 C 272.950 13.950 273.050 13.850 272.950 13.850 H 267.150 C 267.050 13.850 267.150 13.950 267.150 13.850 V 10.950 C 267.150 10.895 267.105 10.850 267.050 10.850 H 261.050 C 260.995 10.850 260.950 10.895 260.950 10.950 V 13.850 C 260.950 13.950 261.050 13.850 260.950 13.850 H 255.150 C 255.050 13.850 255.150 13.950 255.150 13.850 V 10.950 C 255.150 10.895 255.105 10.850 255.050 10.850 H 249.050 C 248.995 10.850 248.950 10.895 248.950 10.950 V 13.850 C 248.950 13.950 249.050 13.850 248.950 13.850 H 243.150 C 243.050 13.850 243.150 13.950 243.150 13.850 V 10.950 C 243.150 10.895 243.105 10.850 243.050 10.850 H 238.050 H 235.050 C 234.995 10.850 234.950 10.895 234.950 10.950 V 13.950 V 18.950 C 234.950 19.005 234.995 19.050 235.050 19.050 H 237.950 C 238.050 19.050 237.950 18.950 237.950 19.050 V 24.850 C 237.950 24.950 238.050 24.850 237.950 24.850 H 235.050 C 234.995 24.850 234.950 24.895 234.950 24.950 V 30.950 C 234.950 31.005 234.995 31.050 235.050 31.050 H 237.950 C 238.050 31.050 237.950 30.950 237.950 31.050 V 36.850 C 237.950 36.950 238.050 36.850 237.950 36.850 H 235.050 C 234.995 36.850 234.950 36.895 234.950 36.950 V 42.950 C 234.950 43.005 234.995 43.050 235.050 43.050 H 237.950 C 238.050 43.050 237.950 42.950 237.950 43.050 V 48.850 C 237.950 48.950 238.050 48.850 237.950 48.850 H 235.050 C 234.995 48.850 234.950 48.895 234.950 48.950 V 54.950 C 234.950 55.005 234.995 55.050 235.050 55.050 H 237.950 C 238.050 55.050 237.950 54.950 237.950 55.050 V 60.850 C 237.950 60.950 238.050 60.850 237.950 60.850 H 235.050 C 234.995 60.850 234.950 60.895 234.950 60.950 V 66.950 C 234.950 67.005 234.995 67.050 235.050 67.050 H 237.950 C 238.050 67.050 237.950 66.950 237.950 67.050 V 72.850 C 237.950 72.950 238.050 72.850 237.950 72.850 H 235.050 C 234.995 72.850 234.950 72.895 234.950 72.950 V 78.950 C 234.950 79.005 234.995 79.050 235.050 79.050 H 237.950 C 238.050 79.050 237.950 78.950 237.950 79.050 V 84.850 C 237.950 84.950 238.050 84.850 237.950 84.850 H 235.050 C 234.995 84.850 234.950 84.895 234.950 84.950 V 90.950 C 234.950 91.005 234.995 91.050 235.050 91.050 H 237.950 C 238.050 91.050 237.950 90.950 237.950 91.050 V 96.850 C 237.950 96.950 238.050 96.850 237.950 96.850 H 235.050 C 234.995 96.850 234.950 96.895 234.950 96.950 V 102.950 C 234.950 103.005 234.995 103.050 235.050 103.050 H 237.950 C 238.050 103.050 237.950 102.950 237.950 103.050 V 108.850 C 237.950 108.950 238.050 108.850 237.950 108.850 H 235.050 C 234.995 108.850 234.950 108.895 234.950 108.950 V 113.950 V 116.950 C 234.950 117.005 234.995 117.050 235.050 117.050 H 238.050 Z" stroke="rgb(0,0,0)" stroke-width="0.20" />
  <path d="M 347.450 117.050 H 353.450 C 353.505 117.050 353.550 117.005 353.550 116.950 V 114.050 C 353.550 113.950 353.450 114.050 353.550 114.050 H 359.350 C 359.450 114.050 359.350 113.950 359.350 114.050 V 116.950 C 359.350 117.005 359.395 117.050 359.450 117.050 H 365.450 C 365.505 117.050 365.550 117.005 365.550 116.950 V 114.050 C 365.550 113.950 365.450 114.050 365.550 114.050 H 371.350 C 371.450 114.050 371.350 113.950 371.350 114.050 V 116.950 C 371.350 117.005 371.395 117.050 371.450 117.050 H 377.450 H 376.614 C 376.669 117.050 376.714 117.005 376.714 116.950 V 113.950 V 109.050 C 376.714 108.950 376.614 109.050 376.714 109.050 H 378.542 C 378.597 109.050 378.642 109.005 378.642 108.950 V 102.950 C 378.642 102.895 378.597 102.850 378.542 102.850 H 376.714 C 376.614 102.850 376.714 102.950 376.714 102.850 V 97.050 C 376.714 96.950 376.614 97.050 376.714 97.050 H 378.542 C 378.597 97.050 378.642 97.005 378.642 96.950 V 90.950 C 378.642 90.895 378.597 90.850 378.542 90.850 H 376.714 C 376.614 90.850 376.714 90.950 376.714 90.850 V 85.050 C 376.714 84.950 376.614 85.050 376.714 85.050 H 378.542 C 378.597 85.050 378.642 85.005 378.642 84.950 V 78.950 C 378.642 78.895 378.597 78.850 378.542 78.850 H 376.714 C 376.614 78.850 376.714 78.950 376.714 78.850 V 73.050 C 376.714 72.950 376.614 73.050 376.714 73.050 H 378.542 C 378.597 73.050 378.642 73.005 378.642 72.950 V 66.950 C 378.642 66.895 378.597 66.850 378.542 66.850 H 376.714 C 376.614 66.850 376.714 66.950 376.714 66.850 V 61.050 C 376.714 60.950 376.614 61.050 376.714 61.050 H 378.542 C 378.597 61.050 378.642 61.005 378.642 60.950 V 54.950 C 378.642 54.895 378.597 54.850 378.542 54.850 H 376.714 C 376.614 54.850 376.714 54.950 376.714 54.850 V 49.050 C 376.714 48.950 376.614 49.050 376.714 49.050 H 378.542 C 378.597 49.050 378.642 49.005 378.642 48.950 V 42.950 C 378.642 42.895 378.597 42.850 378.542 42.850 H 376.714 C 376.614 42.850 376.714 42.950 376.714 42.850 V 37.050 C 376.714 36.950 376.614 37.050 376.714 37.050 H 378.542 C 378.597 37.050 378.642 37.005 378.642 36.950 V 30.950 C 378.642 30.895 378.597 30.850 378.542 30.850 H 376.714 C 376.614 30.850 376.714 30.950 376.714 30.850 V 25.050 C 376.714 24.950 376.614 25.050 376.714 25.050 H 378.542 C 378.597 25.050 378.642 25.005 378.642 24.950 V 18.950 C 378.642 18.895 378.597 18.850 378.542 18.850 H 376.714 C 376.614 18.850 376.714 18.950 376.714 18.850 V 13.950 V 10.950 C 376.714 10.895 376.669 10.850 376.614 10.850 H 377.450 H 371.450 C 371.395 10.850 371.350 10.895 371.350 10.950 V 13.850 C 371.350 13.950 371.450 13.850 371.350 13.850 H 365.550 C 365.450 13.850 365.550 13.950 365.550 13.850 V 10.950 C 365.550 10.895 365.505 10.850 365.450 10.850 H 359.450 C 359.395 10.850 359.350 10.895 359.350 10.950 V 13.850 C 359.350 13.950 359.450 13.850 359.350 13.850 H 353.550 C 353.450 13.850 353.550 13.950 353.550 13.850 V 10.950 C 353.550 10.895 353.505 10.850 353.450 10.850 H 347.450 C 347.395 10.850 347.350 10.895 347.350 10.950 V 13.950 V 18.850 C 347.350 18.950 347.450 18.850 347.350 18.850 H 344.450 C 344.395 18.850 344.350 18.895 344.350 18.950 V 24.950 C 344.350 25.005 344.395 25.050 344.450 25.050 H 347.350 C 347.450 25.050 347.350 24.950 347.350 25.050 V 30.850 C 347.350 30.950 347.450 30.850 347.350 30.850 H 344.450 C 344.395 30.850 344.350 30.895 344.350 30.950 V 36.950 C 344.350 37.005 344.395 37.050 344.450 37.050 H 347.350 C 347.450 37.050 347.350 36.950 347.350 37.050 V 42.850 C 347.350 42.950 347.450 42.850 347.350 42.850 H 344.450 C 344.395 42.850 344.350 42.895 344.350 42.950 V 48.950 C 344.350 49.005 344.395 49.050 344.450 49.050 H 347.350 C 347.450 49.050 347.350 48.950 347.350 49.050 V 54.850 C 347.350 54.950 347.450 54.850 347.350 54.850 H 344.450 C 344.395 54.850 344.350 54.895 344.350 54.950 V 60.950 C 344.350 61.005 344.395 61.050 344.450 61.050 H 347.350 C 347.450 61.050 347.350 60.950 347.350 61.050 V 66.850 C 347.350 66.950 347.450 66.850 347.350 66.850 H 344.450 C 344.395 66.850 344.350 66.895 344.350 66.950 V 72.950 C 344.350 73.005 344.395 73.050 344.450 73.050 H 347.350 C 347.450 73.050 347.350 72.950 347.350 73.050 V 78.850 C 347.350 78.950 347.450 78.850 347.350 78.850 H 344.450 C 344.395 78.850 344.350 78.895 344.350 78.950 V 84.950 C 344.350 85.005 344.395 85.050 344.450 85.050 H 347.350 C 347.450 85.050 347.350 84.950 347.350 85.050 V 90.850 C 347.350 90.950 347.450 90.850 347.350 90.850 H 344.450 C 344.395 90.850 344.350 90.895 344.350 90.950 V 96.950 C 344.350 97.005 344.395 97.050 344.450 97.050 H 347.350 C 347.450 97.050 347.350 96.950 347.350 97.050 V 102.850 C 347.350 102.950 347.450 102.850 347.350 102.850 H 344.450 C 344.395 102.850 344.350 102.895 344.350 102.950 V 108.950 C 344.350 109.005 344.395 109.050 344.450 109.050 H 347.350 C 347.450 109.050 347.350 108.950 347.350 109.050 V 113.950 V 116.950 C 347.350 117.005 347.395 117.050 347.450 117.050 Z" stroke="rgb(0,0,0)" stroke-width="0.20" />
  <path d="M 384.942 117.050 H 391.631 C 391.686 117.050 391.731 117.005 391.731 116.950 V 114.050 C 391.731 113.950 391.631 114.050 391.731 114.050 H 397.531 C 397.631 114.050 397.531 113.950 397.531 114.050 V 116.950 C 397.531 117.005 397.576 117.050 397.631 117.050 H 403.631 C 403.686 117.050 403.731 117.005 403.731 116.950 V 114.050 C 403.731 113.950 403.631 114.050 403.731 114.050 H 409.531 C 409.631 114.050 409.531 113.950 409.531 114.050 V 116.950 C 409.531 117.005 409.576 117.050 409.631 117.050 H 415.631 C 415.686 117.050 415.731 117.005 415.731 116.950 V 114.050 C 415.731 113.950 415.631 114.050 415.731 114.050 H 421.531 C 421.631 114.050 421.531 113.950 421.531 114.050 V 116.950 C 421.531 117.005 421.576 117.050 421.631 117.050 H 427.631 C 427.686 117.050 427.731 117.005 427.731 116.950 V 114.050 C 427.731 113.950 427.631 114.050 427.731 114.050 H 433.531 C 433.631 114.050 433.531 113.950 433.531 114.050 V 116.950 C 433.531 117.005 433.576 117.050 433.631 117.050 H 439.631 C 439.686 117.050 439.731 117.005 439.731 116.950 V 114.050 C 439.731 113.950 439.631 114.050 439.731 114.050 H 445.531 C 445.631 114.050 445.531 113.950 445.531 114.050 V 116.950 C 445.531 117.005 445.576 117.050 445.631 117.050 H 451.631 C 451.686 117.050 451.731 117.005 451.731 116.950 V 114.050 C 451.731 113.950 451.631 114.050 451.731 114.050 H 457.531 C 457.631 114.050 457.531 113.950 457.531 114.050 V 116.950 C 457.531 117.005 457.576 117.050 457.631 117.050 H 463.631 C 463.686 117.050 463.731 117.005 463.731 116.950 V 114.050 C 463.731 113.950 463.631 114.050 463.731 114.050 H 469.531 C 469.631 114.050 469.531 113.950 469.531 114.050 V 116.950 C 469.531 117.005 469.576 117.050 469.631 117.050 H 476.320 H 477.719 C 477.775 117.050 477.819 117.005 477.819 116.950 V 113.950 V 108.950 C 477.819 108.895 477.775 108.850 477.719 108.850 H 475.521 C 475.421 108.850 475.521 108.950 475.521 108.850 V 103.050 C 475.521 102.950 475.421 103.050 475.521 103.050 H 477.719 C 477.775 103.050 477.819 103.005 477.819 102.950 V 96.950 C 477.819 96.895 477.775 96.850 477.719 96.850 H 475.521 C 475.421 96.850 475.521 96.950 475.521 96.850 V 91.050 C 475.521 90.950 475.421 91.050 475.521 91.050 H 477.719 C 477.775 91.050 477.819 91.005 477.819 90.950 V 84.950 C 477.819 84.895 477.775 84.850 477.719 84.850 H 475.521 C 475.421 84.850 475.521 84.950 475.521 84.850 V 79.050 C 475.521 78.950 475.421 79.050 475.521 79.050 H 477.719 C 477.775 79.050 477.819 79.005 477.819 78.950 V 72.950 C 477.819 72.895 477.775 72.850 477.719 72.850 H 475.521 C 475.421 72.850 475.521 72.950 475.521 72.850 V 67.050 C 475.521 66.950 475.421 67.050 475.521 67.050 H 477.719 C 477.775 67.050 477.819 67.005 477.819 66.950 V 60.950 C 477.819 60.895 477.775 60.850 477.719 60.850 H 475.521 C 475.421 60.850 475.521 60.950 475.521 60.850 V 55.050 C 475.521 54.950 475.421 55.050 475.521 55.050 H 477.719 C 477.775 55.050 477.819 55.005 477.819 54.950 V 48.950 C 477.819 48.895 477.775 48.850 477.719 48.850 H 475.521 C 475.421 48.850 475.521 48.950 475.521 48.850 V 43.050 C 475.521 42.950 475.421 43.050 475.521 43.050 H 477.719 C 477.775 43.050 477.819 43.005 477.819 42.950 V 36.950 C 477.819 36.895 477.775 36.850 477.719 36.850 H 475.521 C 475.421 36.850 475.521 36.950 475.521 36.850 V 31.050 C 475.521 30.950 475.421 31.050 475.521 31.050 H 477.719 C 477.775 31.050 477.819 31.005 477.819 30.950 V 24.950 C 477.819 24.895 477.775 24.850 477.719 24.850 H 475.521 C 475.421 24.850 475.521 24.950 475.521 24.850 V 19.050 C 475.521 18.950 475.421 19.050 475.521 19.050 H 477.719 C 477.775 19.050 477.819 19.005 477.819 18.950 V 13.950 V 10.950 C 477.819 10.895 477.775 10.850 477.719 10.850 H 476.320 H 469.631 C 469.576 10.850 469.531 10.895 469.531 10.950 V 13.850 C 469.531 13.950 469.631 13.850 469.531 13.850 H 463.731 C 463.631 13.850 463.731 13.950 463.731 13.850 V 10.950 C 463.731 10.895 463.686 10.850 463.631 10.850 H 457.631 C 457.576 10.850 457.531 10.895 457.531 10.950 V 13.850 C 457.531 13.950 457.631 13.850 457.531 13.850 H 451.731 C 451.631 13.850 451.731 13.950 451.731 13.850 V 10.950 C 451.731 10.895 451.686 10.850 451.631 10.850 H 445.631 C 445.576 10.850 445.531 10.895 445.531 10.950 V 13.850 C 445.531 13.950 445.631 13.850 445.531 13.850 H 439.731 C 439.631 13.850 439.731 13.950 439.731 13.850 V 10.950 C 439.731 10.895 439.686 10.850 439.631 10.850 H 433.631 C 433.576 10.850 433.531 10.895 433.531 10.950 V 13.850 C 433.531 13.950 433.631 13.850 433.531 13.850 H 427.731 C 427.631 13.850 427.731 13.950 427.731 13.850 V 10.950 C 427.731 10.895 427.686 10.850 427.631 10.850 H 421.631 C 421.576 10.850 421.531 10.895 421.531 10.950 V 13.850 C 421.531 13.950 421.631 13.850 421.531 13.850 H 415.731 C 415.631 13.850 415.731 13.950 415.731 13.850 V 10.950 C 415.731 10.895 415.686 10.850 415.631 10.850 H 409.631 C 409.576 10.850 409.531 10.895 409.531 10.950 V 13.850 C 409.531 13.950 409.631 13.850 409.531 13.850 H 403.731 C 403.631 13.850 403.731 13.950 403.731 13.850 V 10.950 C 403.731 10.895 403.686 10.850 403.631 10.850 H 397.631 C 397.576 10.850 397.531 10.895 397.531 10.950 V 13.850 C 397.531 13.950 397.631 13.850 397.531 13.850 H 391.731 C 391.631 13.850 391.731 13.950 391.731 13.850 V 10.950 C 391.731 10.895 391.686 10.850 391.631 10.850 H 384.942 H 383.850 C 383.795 10.850 383.750 10.895 383.750 10.950 V 13.950 V 18.950 C 383.750 19.005 383.795 19.050 383.850 19.050 H 385.678 C 385.778 19.050 385.678 18.950 385.678 19.050 V 24.850 C 385.678 24.950 385.778 24.850 385.678 24.850 H 383.850 C 383.795 24.850 383.750 24.895 383.750 24.950 V 30.950 C 383.750 31.005 383.795 31.050 383.850 31.050 H 385.678 C 385.778 31.050 385.678 30.950 385.678 31.050 V 36.850 C 385.678 36.950 385.778 36.850 385.678 36.850 H 383.850 C 383.795 36.850 383.750 36.895 383.750 36.950 V 42.950 C 383.750 43.005 383.795 43.050 383.850 43.050 H 385.678 C 385.778 43.050 385.678 42.950 385.678 43.050 V 48.850 C 385.678 48.950 385.778 48.850 385.678 48.850 H 383.850 C 383.795 48.850 383.750 48.895 383.750 48.950 V 54.950 C 383.750 55.005 383.795 55.050 383.850 55.050 H 385.678 C 385.778 55.050 385.678 54.950 385.678 55.050 V 60.850 C 385.678 60.950 385.778 60.850 385.678 60.850 H 383.850 C 383.795 60.850 383.750 60.895 383.750 60.950 V 66.950 C 383.750 67.005 383.795 67.050 383.850 67.050 H 385.678 C 385.778 67.050 385.678 66.950 385.678 67.050 V 72.850 C 385.678 72.950 385.778 72.850 385.678 72.850 H 383.850 C 383.795 72.850 383.750 72.895 383.750 72.950 V 78.950 C 383.750 79.005 383.795 79.050 383.850 79.050 H 385.678 C 385.778 79.050 385.678 78.950 385.678 79.050 V 84.850 C 385.678 84.950 385.778 84.850 385.678 84.850 H 383.850 C 383.795 84.850 383.750 84.895 383.750 84.950 V 90.950 C 383.750 91.005 383.795 91.050 383.850 91.050 H 385.678 C 385.778 91.050 385.678 90.950 385.678 91.050 V 96.850 C 385.678 96.950 385.778 96.850 385.678 96.850 H 383.850 C 383.795 96.850 383.750 96.895 383.750 96.950 V 102.950 C 383.750 103.005 383.795 103.050 383.850 103.050 H 385.678 C 385.778 103.050 385.678 102.950 385.678 103.050 V 108.850 C 385.678 108.950 385.778 108.850 385.678 108.850 H 383.850 C 383.795 108.850 383.750 108.895 383.750 108.950 V 113.950 V 116.950 C 383.750 117.005 383.795 117.050 383.850 117.050 H 384.942 Z" stroke="rgb(0,0,0)" stroke-width="0.20" />
  <path d="M 482.211 117.050 H 487.843 C 487.898 117.050 487.943 117.005 487.943 116.950 V 114.050 C 487.943 113.950 487.843 114.050 487.943 114.050 H 493.743 C 493.843 114.050 493.743 113.950 493.743 114.050 V 116.950 C 493.743 117.005 493.788 117.050 493.843 117.050 H 499.843 C 499.898 117.050 499.943 117.005 499.943 116.950 V 114.050 C 499.943 113.950 499.843 114.050 499.943 114.050 H 505.743 C 505.843 114.050 505.743 113.950 505.743 114.050 V 116.950 C 505.743 117.005 505.788 117.050 505.843 117.050 H 511.843 C 511.898 117.050 511.943 117.005 511.943 116.950 V 114.050 C 511.943 113.950 511.843 114.050 511.943 114.050 H 517.743 C 517.843 114.050 517.743 113.950 517.743 114.050 V 116.950 C 517.743 117.005 517.788 117.050 517.843 117.050 H 523.474 C 523.530 117.050 523.574 117.005 523.574 116.950 V 113.950 V 109.050 C 523.574 108.950 523.474 109.050 523.574 109.050 H 526.474 C 526.530 109.050 526.574 109.005 526.574 108.950 V 102.950 C 526.574 102.895 526.530 102.850 526.474 102.850 H 523.574 C 523.474 102.850 523.574 102.950 523.574 102.850 V 97.050 C 523.574 96.950 523.474 97.050 523.574 97.050 H 526.474 C 526.530 97.050 526.574 97.005 526.574 96.950 V 90.950 C 526.574 90.895 526.530 90.850 526.474 90.850 H 523.574 C 523.474 90.850 523.574 90.950 523.574 90.850 V 85.050 C 523.574 84.950 523.474 85.050 523.574 85.050 H 526.474 C 526.530 85.050 526.574 85.005 526.574 84.950 V 78.950 C 526.574 78.895 526.530 78.850 526.474 78.850 H 523.574 C 523.474 78.850 523.574 78.950 523.574 78.850 V 73.050 C 523.574 72.950 523.474 73.050 523.574 73.050 H 526.474 C 526.530 73.050 526.574 73.005 526.574 72.950 V 66.950 C 526.574 66.895 526.530 66.850 526.474 66.850 H 523.574 C 523.474 66.850 523.574 66.950 523.574 66.850 V 61.050 C 523.574 60.950 523.474 61.050 523.574 61.050 H 526.474 C 526.530 61.050 526.574 61.005 526.574 60.950 V 54.950 C 526.574 54.895 526.530 54.850 526.474 54.850 H 523.574 C 523.474 54.850 523.574 54.950 523.574 54.850 V 49.050 C 523.574 48.950 523.474 49.050 523.574 49.050 H 526.474 C 526.530 49.050 526.574 49.005 526.574 48.950 V 42.950 C 526.574 42.895 526.530 42.850 526.474 42.850 H 523.574 C 523.474 42.850 523.574 42.950 523.574 42.850 V 37.050 C 523.574 36.950 523.474 37.050 523.574 37.050 H 526.474 C 526.530 37.050 526.574 37.005 526.574 36.950 V 30.950 C 526.574 30.895 526.530 30.850 526.474 30.850 H 523.574 C 523.474 30.850 523.574 30.950 523.574 30.850 V 25.050 C 523.574 24.950 523.474 25.050 523.574 25.050 H 526.474 C 526.530 25.050 526.574 25.005 526.574 24.950 V 18.950 C 526.574 18.895 526.530 18.850 526.474 18.850 H 523.574 C 523.474 18.850 523.574 18.950 523.574 18.850 V 13.950 V 10.950 C 523.574 10.895 523.530 10.850 523.474 10.850 H 517.843 C 517.788 10.850 517.743 10.895 517.743 10.950 V 13.850 C 517.743 13.950 517.843 13.850 517.743 13.850 H 511.943 C 511.843 13.850 511.943 13.950 511.943 13.850 V 10.950 C 511.943 10.895 511.898 10.850 511.843 10.850 H 505.843 C 505.788 10.850 505.743 10.895 505.743 10.950 V 13.850 C 505.743 13.950 505.843 13.850 505.743 13.850 H 499.943 C 499.843 13.850 499.943 13.950 499.943 13.850 V 10.950 C 499.943 10.895 499.898 10.850 499.843 10.850 H 493.843 C 493.788 10.850 493.743 10.895 493.743 10.950 V 13.850 C 493.743 13.950 493.843 13.850 493.743 13.850 H 487.943 C 487.843 13.850 487.943 13.950 487.943 13.850 V 10.950 C 487.943 10.895 487.898 10.850 487.843 10.850 H 482.211 H 483.110 C 483.055 10.850 483.010 10.895 483.010 10.950 V 13.950 V 18.850 C 483.010 18.950 483.110 18.850 483.010 18.850 H 480.812 C 480.757 18.850 480.712 18.895 480.712 18.950 V 24.950 C 480.712 25.005 480.757 25.050 480.812 25.050 H 483.010 C 483.110 25.050 483.010 24.950 483.010 25.050 V 30.850 C 483.010 30.950 483.110 30.850 483.010 30.850 H 480.812 C 480.757 30.850 480.712 30.895 480.712 30.950 V 36.950 C 480.712 37.005 480.757 37.050 480.812 37.050 H 483.010 C 483.110 37.050 483.010 36.950 483.010 37.050 V 42.850 C 483.010 42.950 483.110 42.850 483.010 42.850 H 480.812 C 480.757 42.850 480.712 42.895 480.712 42.950 V 48.950 C 480.712 49.005 480.757 49.050 480.812 49.050 H 483.010 C 483.110 49.050 483.010 48.950 483.010 49.050 V 54.850 C 483.010 54.950 483.110 54.850 483.010 54.850 H 480.812 C 480.757 54.850 480.712 54.895 480.712 54.950 V 60.950 C 480.712 61.005 480.757 61.050 480.812 61.050 H 483.010 C 483.110 61.050 483.010 60.950 483.010 61.050 V 66.850 C 483.010 66.950 483.110 66.850 483.010 66.850 H 480.812 C 480.757 66.850 480.712 66.895 480.712 66.950 V 72.950 C 480.712 73.005 480.757 73.050 480.812 73.050 H 483.010 C 483.110 73.050 483.010 72.950 483.010 73.050 V 78.850 C 483.010 78.950 483.110 78.850 483.010 78.850 H 480.812 C 480.757 78.850 480.712 78.895 480.712 78.950 V 84.950 C 480.712 85.005 480.757 85.050 480.812 85.050 H 483.010 C 483.110 85.050 483.010 84.950 483.010 85.050 V 90.850 C 483.010 90.950 483.110 90.850 483.010 90.850 H 480.812 C 480.757 90.850 480.712 90.895 480.712 90.950 V 96.950 C 480.712 97.005 480.757 97.050 480.812 97.050 H 483.010 C 483.110 97.050 483.010 96.950 483.010 97.050 V 102.850 C 483.010 102.950 483.110 102.850 483.010 102.850 H 480.812 C 480.757 102.850 480.712 102.895 480.712 102.950 V 108.950 C 480.712 109.005 480.757 109.050 480.812 109.050 H 483.010 C 483.110 109.050 483.010 108.950 483.010 109.050 V 113.950 V 116.950 C 483.010 117.005 483.055 117.050 483.110 117.050 H 482.211 Z" stroke="rgb(0,0,0)" stroke-width="0.20" />
  <path d="M 531.273 117.050 H 536.273 C 536.328 117.050 536.373 117.005 536.373 116.950 V 114.050 C 536.373 113.950 536.273 114.050 536.373 114.050 H 542.173 C 542.273 114.050 542.173 113.950 542.173 114.050 V 116.950 C 542.173 117.005 542.218 117.050 542.273 117.050 H 548.273 C 548.328 117.050 548.373 117.005 548.373 116.950 V 114.050 C 548.373 113.950 548.273 114.050 548.373 114.050 H 554.173 C 554.273 114.050 554.173 113.950 554.173 114.050 V 116.950 C 554.173 117.005 554.218 117.050 554.273 117.050 H 560.273 C 560.328 117.050 560.373 117.005 560.373 116.950 V 114.050 C 560.373 113.950 560.273 114.050 560.373 114.050 H 566.173 C 566.273 114.050 566.173 113.950 566.173 114.050 V 116.950 C 566.173 117.005 566.218 117.050 566.273 117.050 H 572.273 C 572.328 117.050 572.373 117.005 572.373 116.950 V 114.050 C 572.373 113.950 572.273 114.050 572.373 114.050 H 578.173 C 578.273 114.050 578.173 113.950 578.173 114.050 V 116.950 C 578.173 117.005 578.218 117.050 578.273 117.050 H 584.273 C 584.328 117.050 584.373 117.005 584.373 116.950 V 114.050 C 584.373 113.950 584.273 114.050 584.373 114.050 H 590.173 C 590.273 114.050 590.173 113.950 590.173 114.050 V 116.950 C 590.173 117.005 590.218 117.050 590.273 117.050 H 596.273 C 596.328 117.050 596.373 117.005 596.373 116.950 V 114.050 C 596.373 113.950 596.273 114.050 596.373 114.050 H 602.173 C 602.273 114.050 602.173 113.950 602.173 114.050 V 116.950 C 602.173 117.005 602.218 117.050 602.273 117.050 H 608.273 C 608.328 117.050 608.373 117.005 608.373 116.950 V 114.050 C 608.373 113.950 608.273 114.050 608.373 114.050 H 614.173 C 614.273 114.050 614.173 113.950 614.173 114.050 V 116.950 C 614.173 117.005 614.218 117.050 614.273 117.050 H 620.273 C 620.328 117.050 620.373 117.005 620.373 116.950 V 114.050 C 620.373 113.950 620.273 114.050 620.373 114.050 H 626.173 C 626.273 114.050 626.173 113.950 626.173 114.050 V 116.950 C 626.173 117.005 626.218 117.050 626.273 117.050 H 631.273 C 631.328 117.050 631.373 117.005 631.373 116.950 V 113.950 V 109.050 C 631.373 108.950 631.273 109.050 631.373 109.050 H 634.273 C 634.328 109.050 634.373 109.005 634.373 108.950 V 102.950 C 634.373 102.895 634.328 102.850 634.273 102.850 H 631.373 C 631.273 102.850 631.373 102.950 631.373 102.850 V 97.050 C 631.373 96.950 631.273 97.050 631.373 97.050 H 634.273 C 634.328 97.050 634.373 97.005 634.373 96.950 V 90.950 C 634.373 90.895 634.328 90.850 634.273 90.850 H 631.373 C 631.273 90.850 631.373 90.950 631.373 90.850 V 85.050 C 631.373 84.950 631.273 85.050 631.373 85.050 H 634.273 C 634.328 85.050 634.373 85.005 634.373 84.950 V 78.950 C 634.373 78.895 634.328 78.850 634.273 78.850 H 631.373 C 631.273 78.850 631.373 78.950 631.373 78.850 V 73.050 C 631.373 72.950 631.273 73.050 631.373 73.050 H 634.273 C 634.328 73.050 634.373 73.005 634.373 72.950 V 66.950 C 634.373 66.895 634.328 66.850 634.273 66.850 H 631.373 C 631.273 66.850 631.373 66.950 631.373 66.850 V 61.050 C 631.373 60.950 631.273 61.050 631.373 61.050 H 634.273 C 634.328 61.050 634.373 61.005 634.373 60.950 V 54.950 C 634.373 54.895 634.328 54.850 634.273 54.850 H 631.373 C 631.273 54.850 631.373 54.950 631.373 54.850 V 49.050 C 631.373 48.950 631.273 49.050 631.373 49.050 H 634.273 C 634.328 49.050 634.373 49.005 634.373 48.950 V 42.950 C 634.373 42.895 634.328 42.850 634.273 42.850 H 631.373 C 631.273 42.850 631.373 42.950 631.373 42.850 V 37.050 C 631.373 36.950 631.273 37.050 631.373 37.050 H 634.273 C 634.328 37.050 634.373 37.005 634.373 36.950 V 30.950 C 634.373 30.895 634.328 30.850 634.273 30.850 H 631.373 C 631.273 30.850 631.373 30.950 631.373 30.850 V 25.050 C 631.373 24.950 631.273 25.050 631.373 25.050 H 634.273 C 634.328 25.050 634.373 25.005 634.373 24.950 V 18.950 C 634.373 18.895 634.328 18.850 634.273 18.850 H 631.373 C 631.273 18.850 631.373 18.950 631.373 18.850 V 13.950 V 10.950 C 631.373 10.895 631.328 10.850 631.273 10.850 H 626.273 C 626.218 10.850 626.173 10.895 626.173 10.950 V 13.850 C 626.173 13.950 626.273 13.850 626.173 13.850 H 620.373 C 620.273 13.850 620.373 13.950 620.373 13.850 V 10.950 C 620.373 10.895 620.328 10.850 620.273 10.850 H 614.273 C 614.218 10.850 614.173 10.895 614.173 10.950 V 13.850 C 614.173 13.950 614.273 13.850 614.173 13.850 H 608.373 C 608.273 13.850 608.373 13.950 608.373 13.850 V 10.950 C 608.373 10.895 608.328 10.850 608.273 10.850 H 602.273 C 602.218 10.850 602.173 10.895 602.173 10.950 V 13.850 C 602.173 13.950 602.273 13.850 602.173 13.850 H 596.373 C 596.273 13.850 596.373 13.950 596.373 13.850 V 10.950 C 596.373 10.895 596.328 10.850 596.273 10.850 H 590.273 C 590.218 10.850 590.173 10.895 590.173 10.950 V 13.850 C 590.173 13.950 590.273 13.850 590.173 13.850 H 584.373 C 584.273 13.850 584.373 13.950 584.373 13.850 V 10.950 C 584.373 10.895 584.328 10.850 584.273 10.850 H 578.273 C 578.218 10.850 578.173 10.895 578.173 10.950 V 13.850 C 578.173 13.950 578.273 13.850 578.173 13.850 H 572.373 C 572.273 13.850 572.373 13.950 572.373 13.850 V 10.950 C 572.373 10.895 572.328 10.850 572.273 10.850 H 566.273 C 566.218 10.850 566.173 10.895 566.173 10.950 V 13.850 C 566.173 13.950 566.273 13.850 566.173 13.850 H 560.373 C 560.273 13.850 560.373 13.950 560.373 13.850 V 10.950 C 560.373 10.895 560.328 10.850 560.273 10.850 H 554.273 C 554.218 10.850 554.173 10.895 554.173 10.950 V 13.850 C 554.173 13.950 554.273 13.850 554.173 13.850 H 548.373 C 548.273 13.850 548.373 13.950 548.373 13.850 V 10.950 C 548.373 10.895 548.328 10.850 548.273 10.850 H 542.273 C 542.218 10.850 542.173 10.895 542.173 10.950 V 13.850 C 542.173 13.950 542.273 13.850 542.173 13.850 H 536.373 C 536.273 13.850 536.373 13.950 536.373 13.850 V 10.950 C 536.373 10.895 536.328 10.850 536.273 10.850 H 531.273 H 528.273 C 528.218 10.850 528.173 10.895 528.173 10.950 V 13.950 V 18.950 C 528.173 19.005 528.218 19.050 528.273 19.050 H 531.173 C 531.273 19.050 531.173 18.950 531.173 19.050 V 24.850 C 531.173 24.950 531.273 24.850 531.173 24.850 H 528.273 C 528.218 24.850 528.173 24.895 528.173 24.950 V 30.950 C 528.173 31.005 528.218 31.050 528.273 31.050 H 531.173 C 531.273 31.050 531.173 30.950 531.173 31.050 V 36.850 C 531.173 36.950 531.273 36.850 531.173 36.850 H 528.273 C 528.218 36.850 528.173 36.895 528.173 36.950 V 42.950 C 528.173 43.005 528.218 43.050 528.273 43.050 H 531.173 C 531.273 43.050 531.173 42.950 531.173 43.050 V 48.850 C 531.173 48.950 531.273 48.850 531.173 48.850 H 528.273 C 528.218 48.850 528.173 48.895 528.173 48.950 V 54.950 C 528.173 55.005 528.218 55.050 528.273 55.050 H 531.173 C 531.273 55.050 531.173 54.950 531.173 55.050 V 60.850 C 531.173 60.950 531.273 60.850 531.173 60.850 H 528.273 C 528.218 60.850 528.173 60.895 528.173 60.950 V 66.950 C 528.173 67.005 528.218 67.050 528.273 67.050 H 531.173 C 531.273 67.050 531.173 66.950 531.173 67.050 V 72.850 C 531.173 72.950 531.273 72.850 531.173 72.850 H 528.273 C 528.218 72.850 528.173 72.895 528.173 72.950 V 78.950 C 528.173 79.005 528.218 79.050 528.273 79.050 H 531.173 C 531.273 79.050 531.173 78.950 531.173 79.050 V 84.850 C 531.173 84.950 531.273 84.850 531.173 84.850 H 528.273 C 528.218 84.850 528.173 84.895 528.173 84.950 V 90.950 C 528.173 91.005 528.218 91.050 528.273 91.050 H 531.173 C 531.273 91.050 531.173 90.950 531.173 91.050 V 96.850 C 531.173 96.950 531.273 96.850 531.173 96.850 H 528.273 C 528.218 96.850 528.173 96.895 528.173 96.950 V 102.950 C 528.173 103.005 528.218 103.050 528.273 103.050 H 531.173 C 531.273 103.050 531.173 102.950 531.173 103.050 V 108.850 C 531.173 108.950 531.273 108.850 531.173 108.850 H 528.273 C 528.218 108.850 528.173 108.895 528.173 108.950 V 113.950 V 116.950 C 528.173 117.005 528.218 117.050 528.273 117.050 H 531.273 Z" stroke="rgb(0,0,0)" stroke-width="0.20" />
</g>
</svg>