<?xml version='1.0' encoding='utf-8'?>
<svg height="547.00mm" viewBox="0.0 0.0 333.90 547.00" width="333.90mm" xmlns="http://www.w3.org/2000/svg" xmlns:cc="http://creativecommons.org/ns#" xmlns:dc="http://purl.org/dc/elements/1.1/" xmlns:inkscape="http://www.inkscape.org/namespaces/inkscape" xmlns:rdf="http://www.w3.org/1999/02/22-rdf-syntax-ns#" xmlns:svg="http://www.w3.org/2000/svg" xmlns:xlink="http://www.w3.org/1999/xlink">
<!--
Crate - Crate with handles. Can be made stackable. Can produce additional mask to put patterns onto crate walls


Pattern mask can be used in your editor to cut out from some pattern section that will be added to walls.


Created with Boxes.py (https://boxes.hackerspace-bamberg.de/)
Command line (remove spaces between dashes): boxes Crate
-->
<title>Crate</title>
<metadata>
<rdf:RDF><cc:Work>
<dc:title>Box - Crate</dc:title>
<dc:source>boxes Crate</dc:source>
<dc:description>Crate with handles. Can be made stackable. Can produce additional mask to put patterns onto crate walls

Pattern mask can be used in your editor to cut out from some pattern section that will be added to walls.

Created with Boxes.py (https://boxes.hackerspace-bamberg.de/)
Command line: boxes Crate
Command line short: boxes Crate
</dc:description>
</cc:Work></rdf:RDF></metadata>
<g id="p-0" style="fill:none;stroke-linecap:round;stroke-linejoin:round;">
  <path d="M 10.100 537.000 H 110.100 V 527.000 H 10.100 V 537.000 Z" stroke="rgb(0,0,0)" stroke-width="0.20" />
  <text dominant-baseline="hanging" font-size="6px" style="font-family: sans-serif ; font-weight: normal; font-style: normal; fill: rgb(255,0,0)" text-anchor="middle" transform="matrix( 1.000 0.000 0.000 1.000 60.100 529.000 )">100.0mm, burn:0.10mm</text>
</g>
<g id="p-1" style="fill:none;stroke-linecap:round;stroke-linejoin:round;">
  <text dominant-baseline="hanging" font-size="4px" style="font-family: sans-serif ; font-weight: normal; font-style: normal; fill: rgb(255,0,0)" text-anchor="middle" transform="matrix( 1.000 0.000 0.000 1.000 113.100 445.300 )">Bottom</text><path d="M 13.100 522.300 H 20.000 C 20.100 522.300 20.000 522.200 20.000 522.300 V 525.200 C 20.000 525.255 20.045 525.300 20.100 525.300 H 26.100 C 26.155 525.300 26.200 525.255 26.200 525.200 V 522.300 C 26.200 522.200 26.100 522.300 26.200 522.300 H 32.000 C 32.100 522.300 32.000 522.200 32.000 522.300 V 525.200 C 32.000 525.255 32.045 525.300 32.100 525.300 H 38.100 C 38.155 525.300 38.200 525.255 38.200 525.200 V 522.300 C 38.200 522.200 38.100 522.300 38.200 522.300 H 44.000 C 44.100 522.300 44.000 522.200 44.000 522.300 V 525.200 C 44.000 525.255 44.045 525.300 44.100 525.300 H 50.100 C 50.155 525.300 50.200 525.255 50.200 525.200 V 522.300 C 50.200 522.200 50.100 522.300 50.200 522.300 H 56.000 C 56.100 522.300 56.000 522.200 56.000 522.300 V 525.200 C 56.000 525.255 56.045 525.300 56.100 525.300 H 62.100 C 62.155 525.300 62.200 525.255 62.200 525.200 V 522.300 C 62.200 522.200 62.100 522.300 62.200 522.300 H 68.000 C 68.100 522.300 68.000 522.200 68.000 522.300 V 525.200 C 68.000 525.255 68.045 525.300 68.100 525.300 H 74.100 C 74.155 525.300 74.200 525.255 74.200 525.200 V 522.300 C 74.200 522.200 74.100 522.300 74.200 522.300 H 80.000 C 80.100 522.300 80.000 522.200 80.000 522.300 V 525.200 C 80.000 525.255 80.045 525.300 80.100 525.300 H 86.100 C 86.155 525.300 86.200 525.255 86.200 525.200 V 522.300 C 86.200 522.200 86.100 522.300 86.200 522.300 H 92.000 C 92.100 522.300 92.000 522.200 92.000 522.300 V 525.200 C 92.000 525.255 92.045 525.300 92.100 525.300 H 98.100 C 98.155 525.300 98.200 525.255 98.200 525.200 V 522.300 C 98.200 522.200 98.100 522.300 98.200 522.300 H 104.000 C 104.100 522.300 104.000 522.200 104.000 522.300 V 525.200 C 104.000 525.255 104.045 525.300 104.100 525.300 H 110.100 C 110.155 525.300 110.200 525.255 110.200 525.200 V 522.300 C 110.200 522.200 110.100 522.300 110.200 522.300 H 116.000 C 116.100 522.300 116.000 522.200 116.000 522.300 V 525.200 C 116.000 525.255 116.045 525.300 116.100 525.300 H 122.100 C 122.155 525.300 122.200 525.255 122.200 525.200 V 522.300 C 122.200 522.200 122.100 522.300 122.200 522.300 H 128.000 C 128.100 522.300 128.000 522.200 128.000 522.300 V 525.200 C 128.000 525.255 128.045 525.300 128.100 525.300 H 134.100 C 134.155 525.300 134.200 525.255 134.200 525.200 V 522.300 C 134.200 522.200 134.100 522.300 134.200 522.300 H 140.000 C 140.100 522.300 140.000 522.200 140.000 522.300 V 525.200 C 140.000 525.255 140.045 525.300 140.100 525.300 H 146.100 C 146.155 525.300 146.200 525.255 146.200 525.200 V 522.300 C 146.200 522.200 146.100 522.300 146.200 522.300 H 152.000 C 152.100 522.300 152.000 522.200 152.000 522.300 V 525.200 C 152.000 525.255 152.045 525.300 152.100 525.300 H 158.100 C 158.155 525.300 158.200 525.255 158.200 525.200 V 522.300 C 158.200 522.200 158.100 522.300 158.200 522.300 H 164.000 C 164.100 522.300 164.000 522.200 164.000 522.300 V 525.200 C 164.000 525.255 164.045 525.300 164.100 525.300 H 170.100 C 170.155 525.300 170.200 525.255 170.200 525.200 V 522.300 C 170.200 522.200 170.100 522.300 170.200 522.300 H 176.000 C 176.100 522.300 176.000 522.200 176.000 522.300 V 525.200 C 176.000 525.255 176.045 525.300 176.100 525.300 H 182.100 C 182.155 525.300 182.200 525.255 182.200 525.200 V 522.300 C 182.200 522.200 182.100 522.300 182.200 522.300 H 188.000 C 188.100 522.300 188.000 522.200 188.000 522.300 V 525.200 C 188.000 525.255 188.045 525.300 188.100 525.300 H 194.100 C 194.155 525.300 194.200 525.255 194.200 525.200 V 522.300 C 194.200 522.200 194.100 522.300 194.200 522.300 H 200.000 C 200.100 522.300 200.000 522.200 200.000 522.300 V 525.200 C 200.000 525.255 200.045 525.300 200.100 525.300 H 206.100 C 206.155 525.300 206.200 525.255 206.200 525.200 V 522.300 C 206.200 522.200 206.100 522.300 206.200 522.300 H 213.100 C 213.155 522.300 213.200 522.255 213.200 522.200 V 516.300 C 213.200 516.200 213.100 516.300 213.200 516.300 H 216.100 C 216.155 516.300 216.200 516.255 216.200 516.200 V 510.200 C 216.200 510.145 216.155 510.100 216.100 510.100 H 213.200 C 213.100 510.100 213.200 510.200 213.200 510.100 V 504.300 C 213.200 504.200 213.100 504.300 213.200 504.300 H 216.100 C 216.155 504.300 216.200 504.255 216.200 504.200 V 498.200 C 216.200 498.145 216.155 498.100 216.100 498.100 H 213.200 C 213.100 498.100 213.200 498.200 213.200 498.100 V 492.300 C 213.200 492.200 213.100 492.300 213.200 492.300 H 216.100 C 216.155 492.300 216.200 492.255 216.200 492.200 V 486.200 C 216.200 486.145 216.155 486.100 216.100 486.100 H 213.200 C 213.100 486.100 213.200 486.200 213.200 486.100 V 480.300 C 213.200 480.200 213.100 480.300 213.200 480.300 H 216.100 C 216.155 480.300 216.200 480.255 216.200 480.200 V 474.200 C 216.200 474.145 216.155 474.100 216.100 474.100 H 213.200 C 213.100 474.100 213.200 474.200 213.200 474.100 V 468.300 C 213.200 468.200 213.100 468.300 213.200 468.300 H 216.100 C 216.155 468.300 216.200 468.255 216.200 468.200 V 462.200 C 216.200 462.145 216.155 462.100 216.100 462.100 H 213.200 C 213.100 462.100 213.200 462.200 213.200 462.100 V 456.300 C 213.200 456.200 213.100 456.300 213.200 456.300 H 216.100 C 216.155 456.300 216.200 456.255 216.200 456.200 V 450.200 C 216.200 450.145 216.155 450.100 216.100 450.100 H 213.200 C 213.100 450.100 213.200 450.200 213.200 450.100 V 444.300 C 213.200 444.200 213.100 444.300 213.200 444.300 H 216.100 C 216.155 444.300 216.200 444.255 216.200 444.200 V 438.200 C 216.200 438.145 216.155 438.100 216.100 438.100 H 213.200 C 213.100 438.100 213.200 438.200 213.200 438.100 V 432.300 C 213.200 432.200 213.100 432.300 213.200 432.300 H 216.100 C 216.155 432.300 216.200 432.255 216.200 432.200 V 426.200 C 216.200 426.145 216.155 426.100 216.100 426.100 H 213.200 C 213.100 426.100 213.200 426.200 213.200 426.100 V 420.300 C 213.200 420.200 213.100 420.300 213.200 420.300 H 216.100 C 216.155 420.300 216.200 420.255 216.200 420.200 V 414.200 C 216.200 414.145 216.155 414.100 216.100 414.100 H 213.200 C 213.100 414.100 213.200 414.200 213.200 414.100 V 408.300 C 213.200 408.200 213.100 408.300 213.200 408.300 H 216.100 C 216.155 408.300 216.200 408.255 216.200 408.200 V 402.200 C 216.200 402.145 216.155 402.100 216.100 402.100 H 213.200 C 213.100 402.100 213.200 402.200 213.200 402.100 V 396.300 C 213.200 396.200 213.100 396.300 213.200 396.300 H 216.100 C 216.155 396.300 216.200 396.255 216.200 396.200 V 390.200 C 216.200 390.145 216.155 390.100 216.100 390.100 H 213.200 C 213.100 390.100 213.200 390.200 213.200 390.100 V 384.300 C 213.200 384.200 213.100 384.300 213.200 384.300 H 216.100 C 216.155 384.300 216.200 384.255 216.200 384.200 V 378.200 C 216.200 378.145 216.155 378.100 216.100 378.100 H 213.200 C 213.100 378.100 213.200 378.200 213.200 378.100 V 372.200 C 213.200 372.145 213.155 372.100 213.100 372.100 H 206.200 C 206.100 372.100 206.200 372.200 206.200 372.100 V 369.200 C 206.200 369.145 206.155 369.100 206.100 369.100 H 200.100 C 200.045 369.100 200.000 369.145 200.000 369.200 V 372.100 C 200.000 372.200 200.100 372.100 200.000 372.100 H 194.200 C 194.100 372.100 194.200 372.200 194.200 372.100 V 369.200 C 194.200 369.145 194.155 369.100 194.100 369.100 H 188.100 C 188.045 369.100 188.000 369.145 188.000 369.200 V 372.100 C 188.000 372.200 188.100 372.100 188.000 372.100 H 182.200 C 182.100 372.100 182.200 372.200 182.200 372.100 V 369.200 C 182.200 369.145 182.155 369.100 182.100 369.100 H 176.100 C 176.045 369.100 176.000 369.145 176.000 369.200 V 372.100 C 176.000 372.200 176.100 372.100 176.000 372.100 H 170.200 C 170.100 372.100 170.200 372.200 170.200 372.100 V 369.200 C 170.200 369.145 170.155 369.100 170.100 369.100 H 164.100 C 164.045 369.100 164.000 369.145 164.000 369.200 V 372.100 C 164.000 372.200 164.100 372.100 164.000 372.100 H 158.200 C 158.100 372.100 158.200 372.200 158.200 372.100 V 369.200 C 158.200 369.145 158.155 369.100 158.100 369.100 H 152.100 C 152.045 369.100 152.000 369.145 152.000 369.200 V 372.100 C 152.000 372.200 152.100 372.100 152.000 372.100 H 146.200 C 146.100 372.100 146.200 372.200 146.200 372.100 V 369.200 C 146.200 369.145 146.155 369.100 146.100 369.100 H 140.100 C 140.045 369.100 140.000 369.145 140.000 369.200 V 372.100 C 140.000 372.200 140.100 372.100 140.000 372.100 H 134.200 C 134.100 372.100 134.200 372.200 134.200 372.100 V 369.200 C 134.200 369.145 134.155 369.100 134.100 369.100 H 128.100 C 128.045 369.100 128.000 369.145 128.000 369.200 V 372.100 C 128.000 372.200 128.100 372.100 128.000 372.100 H 122.200 C 122.100 372.100 122.200 372.200 122.200 372.100 V 369.200 C 122.200 369.145 122.155 369.100 122.100 369.100 H 116.100 C 116.045 369.100 116.000 369.145 116.000 369.200 V 372.100 C 116.000 372.200 116.100 372.100 116.000 372.100 H 110.200 C 110.100 372.100 110.200 372.200 110.200 372.100 V 369.200 C 110.200 369.145 110.155 369.100 110.100 369.100 H 104.100 C 104.045 369.100 104.000 369.145 104.000 369.200 V 372.100 C 104.000 372.200 104.100 372.100 104.000 372.100 H 98.200 C 98.100 372.100 98.200 372.200 98.200 372.100 V 369.200 C 98.200 369.145 98.155 369.100 98.100 369.100 H 92.100 C 92.045 369.100 92.000 369.145 92.000 369.200 V 372.100 C 92.000 372.200 92.100 372.100 92.000 372.100 H 86.200 C 86.100 372.100 86.200 372.200 86.200 372.100 V 369.200 C 86.200 369.145 86.155 369.100 86.100 369.100 H 80.100 C 80.045 369.100 80.000 369.145 80.000 369.200 V 372.100 C 80.000 372.200 80.100 372.100 80.000 372.100 H 74.200 C 74.100 372.100 74.200 372.200 74.200 372.100 V 369.200 C 74.200 369.145 74.155 369.100 74.100 369.100 H 68.100 C 68.045 369.100 68.000 369.145 68.000 369.200 V 372.100 C 68.000 372.200 68.100 372.100 68.000 372.100 H 62.200 C 62.100 372.100 62.200 372.200 62.200 372.100 V 369.200 C 62.200 369.145 62.155 369.100 62.100 369.100 H 56.100 C 56.045 369.100 56.000 369.145 56.000 369.200 V 372.100 C 56.000 372.200 56.100 372.100 56.000 372.100 H 50.200 C 50.100 372.100 50.200 372.200 50.200 372.100 V 369.200 C 50.200 369.145 50.155 369.100 50.100 369.100 H 44.100 C 44.045 369.100 44.000 369.145 44.000 369.200 V 372.100 C 44.000 372.200 44.100 372.100 44.000 372.100 H 38.200 C 38.100 372.100 38.200 372.200 38.200 372.100 V 369.200 C 38.200 369.145 38.155 369.100 38.100 369.100 H 32.100 C 32.045 369.100 32.000 369.145 32.000 369.200 V 372.100 C 32.000 372.200 32.100 372.100 32.000 372.100 H 26.200 C 26.100 372.100 26.200 372.200 26.200 372.100 V 369.200 C 26.200 369.145 26.155 369.100 26.100 369.100 H 20.100 C 20.045 369.100 20.000 369.145 20.000 369.200 V 372.100 C 20.000 372.200 20.100 372.100 20.000 372.100 H 13.100 C 13.045 372.100 13.000 372.145 13.000 372.200 V 378.100 C 13.000 378.200 13.100 378.100 13.000 378.100 H 10.100 C 10.045 378.100 10.000 378.145 10.000 378.200 V 384.200 C 10.000 384.255 10.045 384.300 10.100 384.300 H 13.000 C 13.100 384.300 13.000 384.200 13.000 384.300 V 390.100 C 13.000 390.200 13.100 390.100 13.000 390.100 H 10.100 C 10.045 390.100 10.000 390.145 10.000 390.200 V 396.200 C 10.000 396.255 10.045 396.300 10.100 396.300 H 13.000 C 13.100 396.300 13.000 396.200 13.000 396.300 V 402.100 C 13.000 402.200 13.100 402.100 13.000 402.100 H 10.100 C 10.045 402.100 10.000 402.145 10.000 402.200 V 408.200 C 10.000 408.255 10.045 408.300 10.100 408.300 H 13.000 C 13.100 408.300 13.000 408.200 13.000 408.300 V 414.100 C 13.000 414.200 13.100 414.100 13.000 414.100 H 10.100 C 10.045 414.100 10.000 414.145 10.000 414.200 V 420.200 C 10.000 420.255 10.045 420.300 10.100 420.300 H 13.000 C 13.100 420.300 13.000 420.200 13.000 420.300 V 426.100 C 13.000 426.200 13.100 426.100 13.000 426.100 H 10.100 C 10.045 426.100 10.000 426.145 10.000 426.200 V 432.200 C 10.000 432.255 10.045 432.300 10.100 432.300 H 13.000 C 13.100 432.300 13.000 432.200 13.000 432.300 V 438.100 C 13.000 438.200 13.100 438.100 13.000 438.100 H 10.100 C 10.045 438.100 10.000 438.145 10.000 438.200 V 444.200 C 10.000 444.255 10.045 444.300 10.100 444.300 H 13.000 C 13.100 444.300 13.000 444.200 13.000 444.300 V 450.100 C 13.000 450.200 13.100 450.100 13.000 450.100 H 10.100 C 10.045 450.100 10.000 450.145 10.000 450.200 V 456.200 C 10.000 456.255 10.045 456.300 10.100 456.300 H 13.000 C 13.100 456.300 13.000 456.200 13.000 456.300 V 462.100 C 13.000 462.200 13.100 462.100 13.000 462.100 H 10.100 C 10.045 462.100 10.000 462.145 10.000 462.200 V 468.200 C 10.000 468.255 10.045 468.300 10.100 468.300 H 13.000 C 13.100 468.300 13.000 468.200 13.000 468.300 V 474.100 C 13.000 474.200 13.100 474.100 13.000 474.100 H 10.100 C 10.045 474.100 10.000 474.145 10.000 474.200 V 480.200 C 10.000 480.255 10.045 480.300 10.100 480.300 H 13.000 C 13.100 480.300 13.000 480.200 13.000 480.300 V 486.100 C 13.000 486.200 13.100 486.100 13.000 486.100 H 10.100 C 10.045 486.100 10.000 486.145 10.000 486.200 V 492.200 C 10.000 492.255 10.045 492.300 10.100 492.300 H 13.000 C 13.100 492.300 13.000 492.200 13.000 492.300 V 498.100 C 13.000 498.200 13.100 498.100 13.000 498.100 H 10.100 C 10.045 498.100 10.000 498.145 10.000 498.200 V 504.200 C 10.000 504.255 10.045 504.300 10.100 504.300 H 13.000 C 13.100 504.300 13.000 504.200 13.000 504.300 V 510.100 C 13.000 510.200 13.100 510.100 13.000 510.100 H 10.100 C 10.045 510.100 10.000 510.145 10.000 510.200 V 516.200 C 10.000 516.255 10.045 516.300 10.100 516.300 H 13.000 C 13.100 516.300 13.000 516.200 13.000 516.300 V 522.200 C 13.000 522.255 13.045 522.300 13.100 522.300" stroke="rgb(0,0,0)" stroke-width="0.20" />
</g>
<g id="p-2" style="fill:none;stroke-linecap:round;stroke-linejoin:round;">
  <path d="M 23.100 358.500 H 20.200 C 20.100 358.500 20.200 358.600 20.200 358.500 V 355.700 C 20.200 355.600 20.100 355.700 20.200 355.700 H 26.000 C 26.100 355.700 26.000 355.600 26.000 355.700 V 358.500 C 26.000 358.600 26.100 358.500 26.000 358.500 H 23.100 Z" stroke="rgb(0,0,255)" stroke-width="0.20" />
  <path d="M 35.100 358.500 H 32.200 C 32.100 358.500 32.200 358.600 32.200 358.500 V 355.700 C 32.200 355.600 32.100 355.700 32.200 355.700 H 38.000 C 38.100 355.700 38.000 355.600 38.000 355.700 V 358.500 C 38.000 358.600 38.100 358.500 38.000 358.500 H 35.100 Z" stroke="rgb(0,0,255)" stroke-width="0.20" />
  <path d="M 47.100 358.500 H 44.200 C 44.100 358.500 44.200 358.600 44.200 358.500 V 355.700 C 44.200 355.600 44.100 355.700 44.200 355.700 H 50.000 C 50.100 355.700 50.000 355.600 50.000 355.700 V 358.500 C 50.000 358.600 50.100 358.500 50.000 358.500 H 47.100 Z" stroke="rgb(0,0,255)" stroke-width="0.20" />
  <path d="M 59.100 358.500 H 56.200 C 56.100 358.500 56.200 358.600 56.200 358.500 V 355.700 C 56.200 355.600 56.100 355.700 56.200 355.700 H 62.000 C 62.100 355.700 62.000 355.600 62.000 355.700 V 358.500 C 62.000 358.600 62.100 358.500 62.000 358.500 H 59.100 Z" stroke="rgb(0,0,255)" stroke-width="0.20" />
  <path d="M 71.100 358.500 H 68.200 C 68.100 358.500 68.200 358.600 68.200 358.500 V 355.700 C 68.200 355.600 68.100 355.700 68.200 355.700 H 74.000 C 74.100 355.700 74.000 355.600 74.000 355.700 V 358.500 C 74.000 358.600 74.100 358.500 74.000 358.500 H 71.100 Z" stroke="rgb(0,0,255)" stroke-width="0.20" />
  <path d="M 83.100 358.500 H 80.200 C 80.100 358.500 80.200 358.600 80.200 358.500 V 355.700 C 80.200 355.600 80.100 355.700 80.200 355.700 H 86.000 C 86.100 355.700 86.000 355.600 86.000 355.700 V 358.500 C 86.000 358.600 86.100 358.500 86.000 358.500 H 83.100 Z" stroke="rgb(0,0,255)" stroke-width="0.20" />
  <path d="M 95.100 358.500 H 92.200 C 92.100 358.500 92.200 358.600 92.200 358.500 V 355.700 C 92.200 355.600 92.100 355.700 92.200 355.700 H 98.000 C 98.100 355.700 98.000 355.600 98.000 355.700 V 358.500 C 98.000 358.600 98.100 358.500 98.000 358.500 H 95.100 Z" stroke="rgb(0,0,255)" stroke-width="0.20" />
  <path d="M 107.100 358.500 H 104.200 C 104.100 358.500 104.200 358.600 104.200 358.500 V 355.700 C 104.200 355.600 104.100 355.700 104.200 355.700 H 110.000 C 110.100 355.700 110.000 355.600 110.000 355.700 V 358.500 C 110.000 358.600 110.100 358.500 110.000 358.500 H 107.100 Z" stroke="rgb(0,0,255)" stroke-width="0.20" />
  <path d="M 119.100 358.500 H 116.200 C 116.100 358.500 116.200 358.600 116.200 358.500 V 355.700 C 116.200 355.600 116.100 355.700 116.200 355.700 H 122.000 C 122.100 355.700 122.000 355.600 122.000 355.700 V 358.500 C 122.000 358.600 122.100 358.500 122.000 358.500 H 119.100 Z" stroke="rgb(0,0,255)" stroke-width="0.20" />
  <path d="M 131.100 358.500 H 128.200 C 128.100 358.500 128.200 358.600 128.200 358.500 V 355.700 C 128.200 355.600 128.100 355.700 128.200 355.700 H 134.000 C 134.100 355.700 134.000 355.600 134.000 355.700 V 358.500 C 134.000 358.600 134.100 358.500 134.000 358.500 H 131.100 Z" stroke="rgb(0,0,255)" stroke-width="0.20" />
  <path d="M 143.100 358.500 H 140.200 C 140.100 358.500 140.200 358.600 140.200 358.500 V 355.700 C 140.200 355.600 140.100 355.700 140.200 355.700 H 146.000 C 146.100 355.700 146.000 355.600 146.000 355.700 V 358.500 C 146.000 358.600 146.100 358.500 146.000 358.500 H 143.100 Z" stroke="rgb(0,0,255)" stroke-width="0.20" />
  <path d="M 155.100 358.500 H 152.200 C 152.100 358.500 152.200 358.600 152.200 358.500 V 355.700 C 152.200 355.600 152.100 355.700 152.200 355.700 H 158.000 C 158.100 355.700 158.000 355.600 158.000 355.700 V 358.500 C 158.000 358.600 158.100 358.500 158.000 358.500 H 155.100 Z" stroke="rgb(0,0,255)" stroke-width="0.20" />
  <path d="M 167.100 358.500 H 164.200 C 164.100 358.500 164.200 358.600 164.200 358.500 V 355.700 C 164.200 355.600 164.100 355.700 164.200 355.700 H 170.000 C 170.100 355.700 170.000 355.600 170.000 355.700 V 358.500 C 170.000 358.600 170.100 358.500 170.000 358.500 H 167.100 Z" stroke="rgb(0,0,255)" stroke-width="0.20" />
  <path d="M 179.100 358.500 H 176.200 C 176.100 358.500 176.200 358.600 176.200 358.500 V 355.700 C 176.200 355.600 176.100 355.700 176.200 355.700 H 182.000 C 182.100 355.700 182.000 355.600 182.000 355.700 V 358.500 C 182.000 358.600 182.100 358.500 182.000 358.500 H 179.100 Z" stroke="rgb(0,0,255)" stroke-width="0.20" />
  <path d="M 191.100 358.500 H 188.200 C 188.100 358.500 188.200 358.600 188.200 358.500 V 355.700 C 188.200 355.600 188.100 355.700 188.200 355.700 H 194.000 C 194.100 355.700 194.000 355.600 194.000 355.700 V 358.500 C 194.000 358.600 194.100 358.500 194.000 358.500 H 191.100 Z" stroke="rgb(0,0,255)" stroke-width="0.20" />
  <path d="M 203.100 358.500 H 200.200 C 200.100 358.500 200.200 358.600 200.200 358.500 V 355.700 C 200.200 355.600 200.100 355.700 200.200 355.700 H 206.000 C 206.100 355.700 206.000 355.600 206.000 355.700 V 358.500 C 206.000 358.600 206.100 358.500 206.000 358.500 H 203.100 Z" stroke="rgb(0,0,255)" stroke-width="0.20" />
  <text dominant-baseline="hanging" font-size="4px" style="font-family: sans-serif ; font-weight: normal; font-style: normal; fill: rgb(255,0,0)" text-anchor="middle" transform="matrix( 1.000 0.000 0.000 1.000 113.100 306.600 )">side1</text><path d="M 13.100 367.600 H 25.100 C 26.171 367.600 27.223 367.318 28.150 366.783 C 29.077 366.247 29.847 365.477 30.383 364.550 C 30.901 363.653 31.645 362.908 32.542 362.390 C 33.439 361.873 34.457 361.600 35.492 361.600 H 190.708 C 191.743 361.600 192.761 361.873 193.658 362.390 C 194.555 362.908 195.299 363.653 195.817 364.550 C 196.353 365.477 197.123 366.247 198.050 366.783 C 198.977 367.318 200.029 367.600 201.100 367.600 H 213.100 H 216.100 C 216.155 367.600 216.200 367.555 216.200 367.500 V 355.500 V 344.500 C 216.200 344.445 216.155 344.400 216.100 344.400 H 213.200 C 213.100 344.400 213.200 344.500 213.200 344.400 V 338.600 C 213.200 338.500 213.100 338.600 213.200 338.600 H 216.100 C 216.155 338.600 216.200 338.555 216.200 338.500 V 332.500 C 216.200 332.445 216.155 332.400 216.100 332.400 H 213.200 C 213.100 332.400 213.200 332.500 213.200 332.400 V 326.600 C 213.200 326.500 213.100 326.600 213.200 326.600 H 216.100 C 216.155 326.600 216.200 326.555 216.200 326.500 V 320.500 C 216.200 320.445 216.155 320.400 216.100 320.400 H 213.200 C 213.100 320.400 213.200 320.500 213.200 320.400 V 314.600 C 213.200 314.500 213.100 314.600 213.200 314.600 H 216.100 C 216.155 314.600 216.200 314.555 216.200 314.500 V 308.500 C 216.200 308.445 216.155 308.400 216.100 308.400 H 213.200 C 213.100 308.400 213.200 308.500 213.200 308.400 V 302.600 C 213.200 302.500 213.100 302.600 213.200 302.600 H 216.100 C 216.155 302.600 216.200 302.555 216.200 302.500 V 296.500 C 216.200 296.445 216.155 296.400 216.100 296.400 H 213.200 C 213.100 296.400 213.200 296.500 213.200 296.400 V 290.600 C 213.200 290.500 213.100 290.600 213.200 290.600 H 216.100 C 216.155 290.600 216.200 290.555 216.200 290.500 V 284.500 C 216.200 284.445 216.155 284.400 216.100 284.400 H 213.200 C 213.100 284.400 213.200 284.500 213.200 284.400 V 278.600 C 213.200 278.500 213.100 278.600 213.200 278.600 H 216.100 C 216.155 278.600 216.200 278.555 216.200 278.500 V 272.500 C 216.200 272.445 216.155 272.400 216.100 272.400 H 213.200 C 213.100 272.400 213.200 272.500 213.200 272.400 V 266.600 C 213.200 266.500 213.100 266.600 213.200 266.600 H 216.100 C 216.155 266.600 216.200 266.555 216.200 266.500 V 255.500 C 216.200 255.445 216.155 255.400 216.100 255.400 H 213.100 H 201.100 C 200.064 255.400 199.047 255.127 198.150 254.610 C 197.253 254.092 196.508 253.347 195.990 252.450 C 195.455 251.523 194.685 250.753 193.758 250.217 C 192.830 249.682 191.778 249.400 190.708 249.400 H 35.492 C 34.422 249.400 33.370 249.682 32.442 250.217 C 31.515 250.753 30.745 251.523 30.210 252.450 C 29.692 253.347 28.947 254.092 28.050 254.610 C 27.153 255.127 26.136 255.400 25.100 255.400 H 13.100 H 10.100 C 10.045 255.400 10.000 255.445 10.000 255.500 V 266.500 C 10.000 266.555 10.045 266.600 10.100 266.600 H 13.000 C 13.100 266.600 13.000 266.500 13.000 266.600 V 272.400 C 13.000 272.500 13.100 272.400 13.000 272.400 H 10.100 C 10.045 272.400 10.000 272.445 10.000 272.500 V 278.500 C 10.000 278.555 10.045 278.600 10.100 278.600 H 13.000 C 13.100 278.600 13.000 278.500 13.000 278.600 V 284.400 C 13.000 284.500 13.100 284.400 13.000 284.400 H 10.100 C 10.045 284.400 10.000 284.445 10.000 284.500 V 290.500 C 10.000 290.555 10.045 290.600 10.100 290.600 H 13.000 C 13.100 290.600 13.000 290.500 13.000 290.600 V 296.400 C 13.000 296.500 13.100 296.400 13.000 296.400 H 10.100 C 10.045 296.400 10.000 296.445 10.000 296.500 V 302.500 C 10.000 302.555 10.045 302.600 10.100 302.600 H 13.000 C 13.100 302.600 13.000 302.500 13.000 302.600 V 308.400 C 13.000 308.500 13.100 308.400 13.000 308.400 H 10.100 C 10.045 308.400 10.000 308.445 10.000 308.500 V 314.500 C 10.000 314.555 10.045 314.600 10.100 314.600 H 13.000 C 13.100 314.600 13.000 314.500 13.000 314.600 V 320.400 C 13.000 320.500 13.100 320.400 13.000 320.400 H 10.100 C 10.045 320.400 10.000 320.445 10.000 320.500 V 326.500 C 10.000 326.555 10.045 326.600 10.100 326.600 H 13.000 C 13.100 326.600 13.000 326.500 13.000 326.600 V 332.400 C 13.000 332.500 13.100 332.400 13.000 332.400 H 10.100 C 10.045 332.400 10.000 332.445 10.000 332.500 V 338.500 C 10.000 338.555 10.045 338.600 10.100 338.600 H 13.000 C 13.100 338.600 13.000 338.500 13.000 338.600 V 344.400 C 13.000 344.500 13.100 344.400 13.000 344.400 H 10.100 C 10.045 344.400 10.000 344.445 10.000 344.500 V 355.500 V 367.500 C 10.000 367.555 10.045 367.600 10.100 367.600 H 13.100" stroke="rgb(0,0,0)" stroke-width="0.20" />
  <path d="M 113.100 259.600 H 150.600 C 152.777 259.600 154.915 260.173 156.800 261.261 C 158.685 262.350 160.250 263.915 161.339 265.800 C 162.427 267.685 163.000 269.823 163.000 272.000 C 163.000 274.177 162.427 276.315 161.339 278.200 C 160.250 280.085 158.685 281.650 156.800 282.739 C 154.915 283.827 152.777 284.400 150.600 284.400 H 75.600 C 73.423 284.400 71.285 283.827 69.400 282.739 C 67.515 281.650 65.950 280.085 64.861 278.200 C 63.773 276.315 63.200 274.177 63.200 272.000 C 63.200 269.823 63.773 267.685 64.861 265.800 C 65.950 263.915 67.515 262.350 69.400 261.261 C 71.285 260.173 73.423 259.600 75.600 259.600 H 113.100 Z" stroke="rgb(0,0,255)" stroke-width="0.20" />
</g>
<g id="p-3" style="fill:none;stroke-linecap:round;stroke-linejoin:round;">
  <path d="M 23.100 238.800 H 20.200 C 20.100 238.800 20.200 238.900 20.200 238.800 V 236.000 C 20.200 235.900 20.100 236.000 20.200 236.000 H 26.000 C 26.100 236.000 26.000 235.900 26.000 236.000 V 238.800 C 26.000 238.900 26.100 238.800 26.000 238.800 H 23.100 Z" stroke="rgb(0,0,255)" stroke-width="0.20" />
  <path d="M 35.100 238.800 H 32.200 C 32.100 238.800 32.200 238.900 32.200 238.800 V 236.000 C 32.200 235.900 32.100 236.000 32.200 236.000 H 38.000 C 38.100 236.000 38.000 235.900 38.000 236.000 V 238.800 C 38.000 238.900 38.100 238.800 38.000 238.800 H 35.100 Z" stroke="rgb(0,0,255)" stroke-width="0.20" />
  <path d="M 47.100 238.800 H 44.200 C 44.100 238.800 44.200 238.900 44.200 238.800 V 236.000 C 44.200 235.900 44.100 236.000 44.200 236.000 H 50.000 C 50.100 236.000 50.000 235.900 50.000 236.000 V 238.800 C 50.000 238.900 50.100 238.800 50.000 238.800 H 47.100 Z" stroke="rgb(0,0,255)" stroke-width="0.20" />
  <path d="M 59.100 238.800 H 56.200 C 56.100 238.800 56.200 238.900 56.200 238.800 V 236.000 C 56.200 235.900 56.100 236.000 56.200 236.000 H 62.000 C 62.100 236.000 62.000 235.900 62.000 236.000 V 238.800 C 62.000 238.900 62.100 238.800 62.000 238.800 H 59.100 Z" stroke="rgb(0,0,255)" stroke-width="0.20" />
  <path d="M 71.100 238.800 H 68.200 C 68.100 238.800 68.200 238.900 68.200 238.800 V 236.000 C 68.200 235.900 68.100 236.000 68.200 236.000 H 74.000 C 74.100 236.000 74.000 235.900 74.000 236.000 V 238.800 C 74.000 238.900 74.100 238.800 74.000 238.800 H 71.100 Z" stroke="rgb(0,0,255)" stroke-width="0.20" />
  <path d="M 83.100 238.800 H 80.200 C 80.100 238.800 80.200 238.900 80.200 238.800 V 236.000 C 80.200 235.900 80.100 236.000 80.200 236.000 H 86.000 C 86.100 236.000 86.000 235.900 86.000 236.000 V 238.800 C 86.000 238.900 86.100 238.800 86.000 238.800 H 83.100 Z" stroke="rgb(0,0,255)" stroke-width="0.20" />
  <path d="M 95.100 238.800 H 92.200 C 92.100 238.800 92.200 238.900 92.200 238.800 V 236.000 C 92.200 235.900 92.100 236.000 92.200 236.000 H 98.000 C 98.100 236.000 98.000 235.900 98.000 236.000 V 238.800 C 98.000 238.900 98.100 238.800 98.000 238.800 H 95.100 Z" stroke="rgb(0,0,255)" stroke-width="0.20" />
  <path d="M 107.100 238.800 H 104.200 C 104.100 238.800 104.200 238.900 104.200 238.800 V 236.000 C 104.200 235.900 104.100 236.000 104.200 236.000 H 110.000 C 110.100 236.000 110.000 235.900 110.000 236.000 V 238.800 C 110.000 238.900 110.100 238.800 110.000 238.800 H 107.100 Z" stroke="rgb(0,0,255)" stroke-width="0.20" />
  <path d="M 119.100 238.800 H 116.200 C 116.100 238.800 116.200 238.900 116.200 238.800 V 236.000 C 116.200 235.900 116.100 236.000 116.200 236.000 H 122.000 C 122.100 236.000 122.000 235.900 122.000 236.000 V 238.800 C 122.000 238.900 122.100 238.800 122.000 238.800 H 119.100 Z" stroke="rgb(0,0,255)" stroke-width="0.20" />
  <path d="M 131.100 238.800 H 128.200 C 128.100 238.800 128.200 238.900 128.200 238.800 V 236.000 C 128.200 235.900 128.100 236.000 128.200 236.000 H 134.000 C 134.100 236.000 134.000 235.900 134.000 236.000 V 238.800 C 134.000 238.900 134.100 238.800 134.000 238.800 H 131.100 Z" stroke="rgb(0,0,255)" stroke-width="0.20" />
  <path d="M 143.100 238.800 H 140.200 C 140.100 238.800 140.200 238.900 140.200 238.800 V 236.000 C 140.200 235.900 140.100 236.000 140.200 236.000 H 146.000 C 146.100 236.000 146.000 235.900 146.000 236.000 V 238.800 C 146.000 238.900 146.100 238.800 146.000 238.800 H 143.100 Z" stroke="rgb(0,0,255)" stroke-width="0.20" />
  <path d="M 155.100 238.800 H 152.200 C 152.100 238.800 152.200 238.900 152.200 238.800 V 236.000 C 152.200 235.900 152.100 236.000 152.200 236.000 H 158.000 C 158.100 236.000 158.000 235.900 158.000 236.000 V 238.800 C 158.000 238.900 158.100 238.800 158.000 238.800 H 155.100 Z" stroke="rgb(0,0,255)" stroke-width="0.20" />
  <path d="M 167.100 238.800 H 164.200 C 164.100 238.800 164.200 238.900 164.200 238.800 V 236.000 C 164.200 235.900 164.100 236.000 164.200 236.000 H 170.000 C 170.100 236.000 170.000 235.900 170.000 236.000 V 238.800 C 170.000 238.900 170.100 238.800 170.000 238.800 H 167.100 Z" stroke="rgb(0,0,255)" stroke-width="0.20" />
  <path d="M 179.100 238.800 H 176.200 C 176.100 238.800 176.200 238.900 176.200 238.800 V 236.000 C 176.200 235.900 176.100 236.000 176.200 236.000 H 182.000 C 182.100 236.000 182.000 235.900 182.000 236.000 V 238.800 C 182.000 238.900 182.100 238.800 182.000 238.800 H 179.100 Z" stroke="rgb(0,0,255)" stroke-width="0.20" />
  <path d="M 191.100 238.800 H 188.200 C 188.100 238.800 188.200 238.900 188.200 238.800 V 236.000 C 188.200 235.900 188.100 236.000 188.200 236.000 H 194.000 C 194.100 236.000 194.000 235.900 194.000 236.000 V 238.800 C 194.000 238.900 194.100 238.800 194.000 238.800 H 191.100 Z" stroke="rgb(0,0,255)" stroke-width="0.20" />
  <path d="M 203.100 238.800 H 200.200 C 200.100 238.800 200.200 238.900 200.200 238.800 V 236.000 C 200.200 235.900 200.100 236.000 200.200 236.000 H 206.000 C 206.100 236.000 206.000 235.900 206.000 236.000 V 238.800 C 206.000 238.900 206.100 238.800 206.000 238.800 H 203.100 Z" stroke="rgb(0,0,255)" stroke-width="0.20" />
  <text dominant-baseline="hanging" font-size="4px" style="font-family: sans-serif ; font-weight: normal; font-style: normal; fill: rgb(255,0,0)" text-anchor="middle" transform="matrix( 1.000 0.000 0.000 1.000 113.100 186.900 )">side2</text><path d="M 13.100 247.900 H 25.100 C 26.171 247.900 27.223 247.618 28.150 247.083 C 29.077 246.547 29.847 245.777 30.383 244.850 C 30.901 243.953 31.645 243.208 32.542 242.690 C 33.439 242.173 34.457 241.900 35.492 241.900 H 190.708 C 191.743 241.900 192.761 242.173 193.658 242.690 C 194.555 243.208 195.299 243.953 195.817 244.850 C 196.353 245.777 197.123 246.547 198.050 247.083 C 198.977 247.618 200.029 247.900 201.100 247.900 H 213.100 H 216.100 C 216.155 247.900 216.200 247.855 216.200 247.800 V 235.800 V 224.800 C 216.200 224.745 216.155 224.700 216.100 224.700 H 213.200 C 213.100 224.700 213.200 224.800 213.200 224.700 V 218.900 C 213.200 218.800 213.100 218.900 213.200 218.900 H 216.100 C 216.155 218.900 216.200 218.855 216.200 218.800 V 212.800 C 216.200 212.745 216.155 212.700 216.100 212.700 H 213.200 C 213.100 212.700 213.200 212.800 213.200 212.700 V 206.900 C 213.200 206.800 213.100 206.900 213.200 206.900 H 216.100 C 216.155 206.900 216.200 206.855 216.200 206.800 V 200.800 C 216.200 200.745 216.155 200.700 216.100 200.700 H 213.200 C 213.100 200.700 213.200 200.800 213.200 200.700 V 194.900 C 213.200 194.800 213.100 194.900 213.200 194.900 H 216.100 C 216.155 194.900 216.200 194.855 216.200 194.800 V 188.800 C 216.200 188.745 216.155 188.700 216.100 188.700 H 213.200 C 213.100 188.700 213.200 188.800 213.200 188.700 V 182.900 C 213.200 182.800 213.100 182.900 213.200 182.900 H 216.100 C 216.155 182.900 216.200 182.855 216.200 182.800 V 176.800 C 216.200 176.745 216.155 176.700 216.100 176.700 H 213.200 C 213.100 176.700 213.200 176.800 213.200 176.700 V 170.900 C 213.200 170.800 213.100 170.900 213.200 170.900 H 216.100 C 216.155 170.900 216.200 170.855 216.200 170.800 V 164.800 C 216.200 164.745 216.155 164.700 216.100 164.700 H 213.200 C 213.100 164.700 213.200 164.800 213.200 164.700 V 158.900 C 213.200 158.800 213.100 158.900 213.200 158.900 H 216.100 C 216.155 158.900 216.200 158.855 216.200 158.800 V 152.800 C 216.200 152.745 216.155 152.700 216.100 152.700 H 213.200 C 213.100 152.700 213.200 152.800 213.200 152.700 V 146.900 C 213.200 146.800 213.100 146.900 213.200 146.900 H 216.100 C 216.155 146.900 216.200 146.855 216.200 146.800 V 135.800 C 216.200 135.745 216.155 135.700 216.100 135.700 H 213.100 H 201.100 C 200.064 135.700 199.047 135.427 198.150 134.910 C 197.253 134.392 196.508 133.647 195.990 132.750 C 195.455 131.823 194.685 131.053 193.758 130.517 C 192.830 129.982 191.778 129.700 190.708 129.700 H 35.492 C 34.422 129.700 33.370 129.982 32.442 130.517 C 31.515 131.053 30.745 131.823 30.210 132.750 C 29.692 133.647 28.947 134.392 28.050 134.910 C 27.153 135.427 26.136 135.700 25.100 135.700 H 13.100 H 10.100 C 10.045 135.700 10.000 135.745 10.000 135.800 V 146.800 C 10.000 146.855 10.045 146.900 10.100 146.900 H 13.000 C 13.100 146.900 13.000 146.800 13.000 146.900 V 152.700 C 13.000 152.800 13.100 152.700 13.000 152.700 H 10.100 C 10.045 152.700 10.000 152.745 10.000 152.800 V 158.800 C 10.000 158.855 10.045 158.900 10.100 158.900 H 13.000 C 13.100 158.900 13.000 158.800 13.000 158.900 V 164.700 C 13.000 164.800 13.100 164.700 13.000 164.700 H 10.100 C 10.045 164.700 10.000 164.745 10.000 164.800 V 170.800 C 10.000 170.855 10.045 170.900 10.100 170.900 H 13.000 C 13.100 170.900 13.000 170.800 13.000 170.900 V 176.700 C 13.000 176.800 13.100 176.700 13.000 176.700 H 10.100 C 10.045 176.700 10.000 176.745 10.000 176.800 V 182.800 C 10.000 182.855 10.045 182.900 10.100 182.900 H 13.000 C 13.100 182.900 13.000 182.800 13.000 182.900 V 188.700 C 13.000 188.800 13.100 188.700 13.000 188.700 H 10.100 C 10.045 188.700 10.000 188.745 10.000 188.800 V 194.800 C 10.000 194.855 10.045 194.900 10.100 194.900 H 13.000 C 13.100 194.900 13.000 194.800 13.000 194.900 V 200.700 C 13.000 200.800 13.100 200.700 13.000 200.700 H 10.100 C 10.045 200.700 10.000 200.745 10.000 200.800 V 206.800 C 10.000 206.855 10.045 206.900 10.100 206.900 H 13.000 C 13.100 206.900 13.000 206.800 13.000 206.900 V 212.700 C 13.000 212.800 13.100 212.700 13.000 212.700 H 10.100 C 10.045 212.700 10.000 212.745 10.000 212.800 V 218.800 C 10.000 218.855 10.045 218.900 10.100 218.900 H 13.000 C 13.100 218.900 13.000 218.800 13.000 218.900 V 224.700 C 13.000 224.800 13.100 224.700 13.000 224.700 H 10.100 C 10.045 224.700 10.000 224.745 10.000 224.800 V 235.800 V 247.800 C 10.000 247.855 10.045 247.900 10.100 247.900 H 13.100" stroke="rgb(0,0,0)" stroke-width="0.20" />
  <path d="M 113.100 139.900 H 150.600 C 152.777 139.900 154.915 140.473 156.800 141.561 C 158.685 142.650 160.250 144.215 161.339 146.100 C 162.427 147.985 163.000 150.123 163.000 152.300 C 163.000 154.477 162.427 156.615 161.339 158.500 C 160.250 160.385 158.685 161.950 156.800 163.039 C 154.915 164.127 152.777 164.700 150.600 164.700 H 75.600 C 73.423 164.700 71.285 164.127 69.400 163.039 C 67.515 161.950 65.950 160.385 64.861 158.500 C 63.773 156.615 63.200 154.477 63.200 152.300 C 63.200 150.123 63.773 147.985 64.861 146.100 C 65.950 144.215 67.515 142.650 69.400 141.561 C 71.285 140.473 73.423 139.900 75.600 139.900 H 113.100 Z" stroke="rgb(0,0,255)" stroke-width="0.20" />
</g>
<g id="p-4" style="fill:none;stroke-linecap:round;stroke-linejoin:round;">
  <path d="M 22.100 119.100 H 19.200 C 19.100 119.100 19.200 119.200 19.200 119.100 V 116.300 C 19.200 116.200 19.100 116.300 19.200 116.300 H 25.000 C 25.100 116.300 25.000 116.200 25.000 116.300 V 119.100 C 25.000 119.200 25.100 119.100 25.000 119.100 H 22.100 Z" stroke="rgb(0,0,255)" stroke-width="0.20" />
  <path d="M 34.100 119.100 H 31.200 C 31.100 119.100 31.200 119.200 31.200 119.100 V 116.300 C 31.200 116.200 31.100 116.300 31.200 116.300 H 37.000 C 37.100 116.300 37.000 116.200 37.000 116.300 V 119.100 C 37.000 119.200 37.100 119.100 37.000 119.100 H 34.100 Z" stroke="rgb(0,0,255)" stroke-width="0.20" />
  <path d="M 46.100 119.100 H 43.200 C 43.100 119.100 43.200 119.200 43.200 119.100 V 116.300 C 43.200 116.200 43.100 116.300 43.200 116.300 H 49.000 C 49.100 116.300 49.000 116.200 49.000 116.300 V 119.100 C 49.000 119.200 49.100 119.100 49.000 119.100 H 46.100 Z" stroke="rgb(0,0,255)" stroke-width="0.20" />
  <path d="M 58.100 119.100 H 55.200 C 55.100 119.100 55.200 119.200 55.200 119.100 V 116.300 C 55.200 116.200 55.100 116.300 55.200 116.300 H 61.000 C 61.100 116.300 61.000 116.200 61.000 116.300 V 119.100 C 61.000 119.200 61.100 119.100 61.000 119.100 H 58.100 Z" stroke="rgb(0,0,255)" stroke-width="0.20" />
  <path d="M 70.100 119.100 H 67.200 C 67.100 119.100 67.200 119.200 67.200 119.100 V 116.300 C 67.200 116.200 67.100 116.300 67.200 116.300 H 73.000 C 73.100 116.300 73.000 116.200 73.000 116.300 V 119.100 C 73.000 119.200 73.100 119.100 73.000 119.100 H 70.100 Z" stroke="rgb(0,0,255)" stroke-width="0.20" />
  <path d="M 82.100 119.100 H 79.200 C 79.100 119.100 79.200 119.200 79.200 119.100 V 116.300 C 79.200 116.200 79.100 116.300 79.200 116.300 H 85.000 C 85.100 116.300 85.000 116.200 85.000 116.300 V 119.100 C 85.000 119.200 85.100 119.100 85.000 119.100 H 82.100 Z" stroke="rgb(0,0,255)" stroke-width="0.20" />
  <path d="M 94.100 119.100 H 91.200 C 91.100 119.100 91.200 119.200 91.200 119.100 V 116.300 C 91.200 116.200 91.100 116.300 91.200 116.300 H 97.000 C 97.100 116.300 97.000 116.200 97.000 116.300 V 119.100 C 97.000 119.200 97.100 119.100 97.000 119.100 H 94.100 Z" stroke="rgb(0,0,255)" stroke-width="0.20" />
  <path d="M 106.100 119.100 H 103.200 C 103.100 119.100 103.200 119.200 103.200 119.100 V 116.300 C 103.200 116.200 103.100 116.300 103.200 116.300 H 109.000 C 109.100 116.300 109.000 116.200 109.000 116.300 V 119.100 C 109.000 119.200 109.100 119.100 109.000 119.100 H 106.100 Z" stroke="rgb(0,0,255)" stroke-width="0.20" />
  <path d="M 118.100 119.100 H 115.200 C 115.100 119.100 115.200 119.200 115.200 119.100 V 116.300 C 115.200 116.200 115.100 116.300 115.200 116.300 H 121.000 C 121.100 116.300 121.000 116.200 121.000 116.300 V 119.100 C 121.000 119.200 121.100 119.100 121.000 119.100 H 118.100 Z" stroke="rgb(0,0,255)" stroke-width="0.20" />
  <path d="M 130.100 119.100 H 127.200 C 127.100 119.100 127.200 119.200 127.200 119.100 V 116.300 C 127.200 116.200 127.100 116.300 127.200 116.300 H 133.000 C 133.100 116.300 133.000 116.200 133.000 116.300 V 119.100 C 133.000 119.200 133.100 119.100 133.000 119.100 H 130.100 Z" stroke="rgb(0,0,255)" stroke-width="0.20" />
  <path d="M 142.100 119.100 H 139.200 C 139.100 119.100 139.200 119.200 139.200 119.100 V 116.300 C 139.200 116.200 139.100 116.300 139.200 116.300 H 145.000 C 145.100 116.300 145.000 116.200 145.000 116.300 V 119.100 C 145.000 119.200 145.100 119.100 145.000 119.100 H 142.100 Z" stroke="rgb(0,0,255)" stroke-width="0.20" />
  <path d="M 154.100 119.100 H 151.200 C 151.100 119.100 151.200 119.200 151.200 119.100 V 116.300 C 151.200 116.200 151.100 116.300 151.200 116.300 H 157.000 C 157.100 116.300 157.000 116.200 157.000 116.300 V 119.100 C 157.000 119.200 157.100 119.100 157.000 119.100 H 154.100 Z" stroke="rgb(0,0,255)" stroke-width="0.20" />
  <text dominant-baseline="hanging" font-size="4px" style="font-family: sans-serif ; font-weight: normal; font-style: normal; fill: rgb(255,0,0)" text-anchor="middle" transform="matrix( 1.000 0.000 0.000 1.000 88.100 67.200 )">front</text><path d="M 13.100 128.200 H 25.100 C 26.171 128.200 27.223 127.918 28.150 127.383 C 29.077 126.847 29.847 126.077 30.383 125.150 C 30.901 124.253 31.645 123.508 32.542 122.990 C 33.439 122.473 34.457 122.200 35.492 122.200 H 140.708 C 141.743 122.200 142.761 122.473 143.658 122.990 C 144.555 123.508 145.299 124.253 145.817 125.150 C 146.353 126.077 147.123 126.847 148.050 127.383 C 148.977 127.918 150.029 128.200 151.100 128.200 H 163.100 C 163.155 128.200 163.200 128.155 163.200 128.100 V 116.100 V 105.200 C 163.200 105.100 163.100 105.200 163.200 105.200 H 166.100 C 166.155 105.200 166.200 105.155 166.200 105.100 V 99.100 C 166.200 99.045 166.155 99.000 166.100 99.000 H 163.200 C 163.100 99.000 163.200 99.100 163.200 99.000 V 93.200 C 163.200 93.100 163.100 93.200 163.200 93.200 H 166.100 C 166.155 93.200 166.200 93.155 166.200 93.100 V 87.100 C 166.200 87.045 166.155 87.000 166.100 87.000 H 163.200 C 163.100 87.000 163.200 87.100 163.200 87.000 V 81.200 C 163.200 81.100 163.100 81.200 163.200 81.200 H 166.100 C 166.155 81.200 166.200 81.155 166.200 81.100 V 75.100 C 166.200 75.045 166.155 75.000 166.100 75.000 H 163.200 C 163.100 75.000 163.200 75.100 163.200 75.000 V 69.200 C 163.200 69.100 163.100 69.200 163.200 69.200 H 166.100 C 166.155 69.200 166.200 69.155 166.200 69.100 V 63.100 C 166.200 63.045 166.155 63.000 166.100 63.000 H 163.200 C 163.100 63.000 163.200 63.100 163.200 63.000 V 57.200 C 163.200 57.100 163.100 57.200 163.200 57.200 H 166.100 C 166.155 57.200 166.200 57.155 166.200 57.100 V 51.100 C 166.200 51.045 166.155 51.000 166.100 51.000 H 163.200 C 163.100 51.000 163.200 51.100 163.200 51.000 V 45.200 C 163.200 45.100 163.100 45.200 163.200 45.200 H 166.100 C 166.155 45.200 166.200 45.155 166.200 45.100 V 39.100 C 166.200 39.045 166.155 39.000 166.100 39.000 H 163.200 C 163.100 39.000 163.200 39.100 163.200 39.000 V 33.200 C 163.200 33.100 163.100 33.200 163.200 33.200 H 166.100 C 166.155 33.200 166.200 33.155 166.200 33.100 V 27.100 C 166.200 27.045 166.155 27.000 166.100 27.000 H 163.200 C 163.100 27.000 163.200 27.100 163.200 27.000 V 16.100 C 163.200 16.045 163.155 16.000 163.100 16.000 H 151.100 C 150.064 16.000 149.047 15.727 148.150 15.210 C 147.253 14.692 146.508 13.947 145.990 13.050 C 145.455 12.123 144.685 11.353 143.758 10.817 C 142.830 10.282 141.778 10.000 140.708 10.000 H 35.492 C 34.422 10.000 33.370 10.282 32.442 10.817 C 31.515 11.353 30.745 12.123 30.210 13.050 C 29.692 13.947 28.947 14.692 28.050 15.210 C 27.153 15.727 26.136 16.000 25.100 16.000 H 13.100 C 13.045 16.000 13.000 16.045 13.000 16.100 V 27.000 C 13.000 27.100 13.100 27.000 13.000 27.000 H 10.100 C 10.045 27.000 10.000 27.045 10.000 27.100 V 33.100 C 10.000 33.155 10.045 33.200 10.100 33.200 H 13.000 C 13.100 33.200 13.000 33.100 13.000 33.200 V 39.000 C 13.000 39.100 13.100 39.000 13.000 39.000 H 10.100 C 10.045 39.000 10.000 39.045 10.000 39.100 V 45.100 C 10.000 45.155 10.045 45.200 10.100 45.200 H 13.000 C 13.100 45.200 13.000 45.100 13.000 45.200 V 51.000 C 13.000 51.100 13.100 51.000 13.000 51.000 H 10.100 C 10.045 51.000 10.000 51.045 10.000 51.100 V 57.100 C 10.000 57.155 10.045 57.200 10.100 57.200 H 13.000 C 13.100 57.200 13.000 57.100 13.000 57.200 V 63.000 C 13.000 63.100 13.100 63.000 13.000 63.000 H 10.100 C 10.045 63.000 10.000 63.045 10.000 63.100 V 69.100 C 10.000 69.155 10.045 69.200 10.100 69.200 H 13.000 C 13.100 69.200 13.000 69.100 13.000 69.200 V 75.000 C 13.000 75.100 13.100 75.000 13.000 75.000 H 10.100 C 10.045 75.000 10.000 75.045 10.000 75.100 V 81.100 C 10.000 81.155 10.045 81.200 10.100 81.200 H 13.000 C 13.100 81.200 13.000 81.100 13.000 81.200 V 87.000 C 13.000 87.100 13.100 87.000 13.000 87.000 H 10.100 C 10.045 87.000 10.000 87.045 10.000 87.100 V 93.100 C 10.000 93.155 10.045 93.200 10.100 93.200 H 13.000 C 13.100 93.200 13.000 93.100 13.000 93.200 V 99.000 C 13.000 99.100 13.100 99.000 13.000 99.000 H 10.100 C 10.045 99.000 10.000 99.045 10.000 99.100 V 105.100 C 10.000 105.155 10.045 105.200 10.100 105.200 H 13.000 C 13.100 105.200 13.000 105.100 13.000 105.200 V 116.100 V 128.100 C 13.000 128.155 13.045 128.200 13.100 128.200" stroke="rgb(0,0,0)" stroke-width="0.20" />
  <path d="M 88.100 20.200 H 125.600 C 127.777 20.200 129.915 20.773 131.800 21.861 C 133.685 22.950 135.250 24.515 136.339 26.400 C 137.427 28.285 138.000 30.423 138.000 32.600 C 138.000 34.777 137.427 36.915 136.339 38.800 C 135.250 40.685 133.685 42.250 131.800 43.339 C 129.915 44.427 127.777 45.000 125.600 45.000 H 50.600 C 48.423 45.000 46.285 44.427 44.400 43.339 C 42.515 42.250 40.950 40.685 39.861 38.800 C 38.773 36.915 38.200 34.777 38.200 32.600 C 38.200 30.423 38.773 28.285 39.861 26.400 C 40.950 24.515 42.515 22.950 44.400 21.861 C 46.285 20.773 48.423 20.200 50.600 20.200 H 88.100 Z" stroke="rgb(0,0,255)" stroke-width="0.20" />
</g>
<g id="p-5" style="fill:none;stroke-linecap:round;stroke-linejoin:round;">
  <path d="M 179.800 119.100 H 176.900 C 176.800 119.100 176.900 119.200 176.900 119.100 V 116.300 C 176.900 116.200 176.800 116.300 176.900 116.300 H 182.700 C 182.800 116.300 182.700 116.200 182.700 116.300 V 119.100 C 182.700 119.200 182.800 119.100 182.700 119.100 H 179.800 Z" stroke="rgb(0,0,255)" stroke-width="0.20" />
  <path d="M 191.800 119.100 H 188.900 C 188.800 119.100 188.900 119.200 188.900 119.100 V 116.300 C 188.900 116.200 188.800 116.300 188.900 116.300 H 194.700 C 194.800 116.300 194.700 116.200 194.700 116.300 V 119.100 C 194.700 119.200 194.800 119.100 194.700 119.100 H 191.800 Z" stroke="rgb(0,0,255)" stroke-width="0.20" />
  <path d="M 203.800 119.100 H 200.900 C 200.800 119.100 200.900 119.200 200.900 119.100 V 116.300 C 200.900 116.200 200.800 116.300 200.900 116.300 H 206.700 C 206.800 116.300 206.700 116.200 206.700 116.300 V 119.100 C 206.700 119.200 206.800 119.100 206.700 119.100 H 203.800 Z" stroke="rgb(0,0,255)" stroke-width="0.20" />
  <path d="M 215.800 119.100 H 212.900 C 212.800 119.100 212.900 119.200 212.900 119.100 V 116.300 C 212.900 116.200 212.800 116.300 212.900 116.300 H 218.700 C 218.800 116.300 218.700 116.200 218.700 116.300 V 119.100 C 218.700 119.200 218.800 119.100 218.700 119.100 H 215.800 Z" stroke="rgb(0,0,255)" stroke-width="0.20" />
  <path d="M 227.800 119.100 H 224.900 C 224.800 119.100 224.900 119.200 224.900 119.100 V 116.300 C 224.900 116.200 224.800 116.300 224.900 116.300 H 230.700 C 230.800 116.300 230.700 116.200 230.700 116.300 V 119.100 C 230.700 119.200 230.800 119.100 230.700 119.100 H 227.800 Z" stroke="rgb(0,0,255)" stroke-width="0.20" />
  <path d="M 239.800 119.100 H 236.900 C 236.800 119.100 236.900 119.200 236.900 119.100 V 116.300 C 236.900 116.200 236.800 116.300 236.900 116.300 H 242.700 C 242.800 116.300 242.700 116.200 242.700 116.300 V 119.100 C 242.700 119.200 242.800 119.100 242.700 119.100 H 239.800 Z" stroke="rgb(0,0,255)" stroke-width="0.20" />
  <path d="M 251.800 119.100 H 248.900 C 248.800 119.100 248.900 119.200 248.900 119.100 V 116.300 C 248.900 116.200 248.800 116.300 248.900 116.300 H 254.700 C 254.800 116.300 254.700 116.200 254.700 116.300 V 119.100 C 254.700 119.200 254.800 119.100 254.700 119.100 H 251.800 Z" stroke="rgb(0,0,255)" stroke-width="0.20" />
  <path d="M 263.800 119.100 H 260.900 C 260.800 119.100 260.900 119.200 260.900 119.100 V 116.300 C 260.900 116.200 260.800 116.300 260.900 116.300 H 266.700 C 266.800 116.300 266.700 116.200 266.700 116.300 V 119.100 C 266.700 119.200 266.800 119.100 266.700 119.100 H 263.800 Z" stroke="rgb(0,0,255)" stroke-width="0.20" />
  <path d="M 275.800 119.100 H 272.900 C 272.800 119.100 272.900 119.200 272.900 119.100 V 116.300 C 272.900 116.200 272.800 116.300 272.900 116.300 H 278.700 C 278.800 116.300 278.700 116.200 278.700 116.300 V 119.100 C 278.700 119.200 278.800 119.100 278.700 119.100 H 275.800 Z" stroke="rgb(0,0,255)" stroke-width="0.20" />
  <path d="M 287.800 119.100 H 284.900 C 284.800 119.100 284.900 119.200 284.900 119.100 V 116.300 C 284.900 116.200 284.800 116.300 284.900 116.300 H 290.700 C 290.800 116.300 290.700 116.200 290.700 116.300 V 119.100 C 290.700 119.200 290.800 119.100 290.700 119.100 H 287.800 Z" stroke="rgb(0,0,255)" stroke-width="0.20" />
  <path d="M 299.800 119.100 H 296.900 C 296.800 119.100 296.900 119.200 296.900 119.100 V 116.300 C 296.900 116.200 296.800 116.300 296.900 116.300 H 302.700 C 302.800 116.300 302.700 116.200 302.700 116.300 V 119.100 C 302.700 119.200 302.800 119.100 302.700 119.100 H 299.800 Z" stroke="rgb(0,0,255)" stroke-width="0.20" />
  <path d="M 311.800 119.100 H 308.900 C 308.800 119.100 308.900 119.200 308.900 119.100 V 116.300 C 308.900 116.200 308.800 116.300 308.900 116.300 H 314.700 C 314.800 116.300 314.700 116.200 314.700 116.300 V 119.100 C 314.700 119.200 314.800 119.100 314.700 119.100 H 311.800 Z" stroke="rgb(0,0,255)" stroke-width="0.20" />
  <text dominant-baseline="hanging" font-size="4px" style="font-family: sans-serif ; font-weight: normal; font-style: normal; fill: rgb(255,0,0)" text-anchor="middle" transform="matrix( 1.000 0.000 0.000 1.000 245.800 67.200 )">back</text><path d="M 170.800 128.200 H 182.800 C 183.871 128.200 184.923 127.918 185.850 127.383 C 186.777 126.847 187.547 126.077 188.083 125.150 C 188.601 124.253 189.345 123.508 190.242 122.990 C 191.139 122.473 192.157 122.200 193.192 122.200 H 298.408 C 299.443 122.200 300.461 122.473 301.358 122.990 C 302.255 123.508 302.999 124.253 303.517 125.150 C 304.053 126.077 304.823 126.847 305.750 127.383 C 306.677 127.918 307.729 128.200 308.800 128.200 H 320.800 C 320.855 128.200 320.900 128.155 320.900 128.100 V 116.100 V 105.200 C 320.900 105.100 320.800 105.200 320.900 105.200 H 323.800 C 323.855 105.200 323.900 105.155 323.900 105.100 V 99.100 C 323.900 99.045 323.855 99.000 323.800 99.000 H 320.900 C 320.800 99.000 320.900 99.100 320.900 99.000 V 93.200 C 320.900 93.100 320.800 93.200 320.900 93.200 H 323.800 C 323.855 93.200 323.900 93.155 323.900 93.100 V 87.100 C 323.900 87.045 323.855 87.000 323.800 87.000 H 320.900 C 320.800 87.000 320.900 87.100 320.900 87.000 V 81.200 C 320.900 81.100 320.800 81.200 320.900 81.200 H 323.800 C 323.855 81.200 323.900 81.155 323.900 81.100 V 75.100 C 323.900 75.045 323.855 75.000 323.800 75.000 H 320.900 C 320.800 75.000 320.900 75.100 320.900 75.000 V 69.200 C 320.900 69.100 320.800 69.200 320.900 69.200 H 323.800 C 323.855 69.200 323.900 69.155 323.900 69.100 V 63.100 C 323.900 63.045 323.855 63.000 323.800 63.000 H 320.900 C 320.800 63.000 320.900 63.100 320.900 63.000 V 57.200 C 320.900 57.100 320.800 57.200 320.900 57.200 H 323.800 C 323.855 57.200 323.900 57.155 323.900 57.100 V 51.100 C 323.900 51.045 323.855 51.000 323.800 51.000 H 320.900 C 320.800 51.000 320.900 51.100 320.900 51.000 V 45.200 C 320.900 45.100 320.800 45.200 320.900 45.200 H 323.800 C 323.855 45.200 323.900 45.155 323.900 45.100 V 39.100 C 323.900 39.045 323.855 39.000 323.800 39.000 H 320.900 C 320.800 39.000 320.900 39.100 320.900 39.000 V 33.200 C 320.900 33.100 320.800 33.200 320.900 33.200 H 323.800 C 323.855 33.200 323.900 33.155 323.900 33.100 V 27.100 C 323.900 27.045 323.855 27.000 323.800 27.000 H 320.900 C 320.800 27.000 320.900 27.100 320.900 27.000 V 16.100 C 320.900 16.045 320.855 16.000 320.800 16.000 H 308.800 C 307.764 16.000 306.747 15.727 305.850 15.210 C 304.953 14.692 304.208 13.947 303.690 13.050 C 303.155 12.123 302.385 11.353 301.458 10.817 C 300.530 10.282 299.478 10.000 298.408 10.000 H 193.192 C 192.122 10.000 191.070 10.282 190.142 10.817 C 189.215 11.353 188.445 12.123 187.910 13.050 C 187.392 13.947 186.647 14.692 185.750 15.210 C 184.853 15.727 183.836 16.000 182.800 16.000 H 170.800 C 170.745 16.000 170.700 16.045 170.700 16.100 V 27.000 C 170.700 27.100 170.800 27.000 170.700 27.000 H 167.800 C 167.745 27.000 167.700 27.045 167.700 27.100 V 33.100 C 167.700 33.155 167.745 33.200 167.800 33.200 H 170.700 C 170.800 33.200 170.700 33.100 170.700 33.200 V 39.000 C 170.700 39.100 170.800 39.000 170.700 39.000 H 167.800 C 167.745 39.000 167.700 39.045 167.700 39.100 V 45.100 C 167.700 45.155 167.745 45.200 167.800 45.200 H 170.700 C 170.800 45.200 170.700 45.100 170.700 45.200 V 51.000 C 170.700 51.100 170.800 51.000 170.700 51.000 H 167.800 C 167.745 51.000 167.700 51.045 167.700 51.100 V 57.100 C 167.700 57.155 167.745 57.200 167.800 57.200 H 170.700 C 170.800 57.200 170.700 57.100 170.700 57.200 V 63.000 C 170.700 63.100 170.800 63.000 170.700 63.000 H 167.800 C 167.745 63.000 167.700 63.045 167.700 63.100 V 69.100 C 167.700 69.155 167.745 69.200 167.800 69.200 H 170.700 C 170.800 69.200 170.700 69.100 170.700 69.200 V 75.000 C 170.700 75.100 170.800 75.000 170.700 75.000 H 167.800 C 167.745 75.000 167.700 75.045 167.700 75.100 V 81.100 C 167.700 81.155 167.745 81.200 167.800 81.200 H 170.700 C 170.800 81.200 170.700 81.100 170.700 81.200 V 87.000 C 170.700 87.100 170.800 87.000 170.700 87.000 H 167.800 C 167.745 87.000 167.700 87.045 167.700 87.100 V 93.100 C 167.700 93.155 167.745 93.200 167.800 93.200 H 170.700 C 170.800 93.200 170.700 93.100 170.700 93.200 V 99.000 C 170.700 99.100 170.800 99.000 170.700 99.000 H 167.800 C 167.745 99.000 167.700 99.045 167.700 99.100 V 105.100 C 167.700 105.155 167.745 105.200 167.800 105.200 H 170.700 C 170.800 105.200 170.700 105.100 170.700 105.200 V 116.100 V 128.100 C 170.700 128.155 170.745 128.200 170.800 128.200" stroke="rgb(0,0,0)" stroke-width="0.20" />
  <path d="M 245.800 20.200 H 283.300 C 285.477 20.200 287.615 20.773 289.500 21.861 C 291.385 22.950 292.950 24.515 294.039 26.400 C 295.127 28.285 295.700 30.423 295.700 32.600 C 295.700 34.777 295.127 36.915 294.039 38.800 C 292.950 40.685 291.385 42.250 289.500 43.339 C 287.615 44.427 285.477 45.000 283.300 45.000 H 208.300 C 206.123 45.000 203.985 44.427 202.100 43.339 C 200.215 42.250 198.650 40.685 197.561 38.800 C 196.473 36.915 195.900 34.777 195.900 32.600 C 195.900 30.423 196.473 28.285 197.561 26.400 C 198.650 24.515 200.215 22.950 202.100 21.861 C 203.985 20.773 206.123 20.200 208.300 20.200 H 245.800 Z" stroke="rgb(0,0,255)" stroke-width="0.20" />
</g>
</svg>