<?xml version='1.0' encoding='utf-8'?>
<svg height="111.90mm" viewBox="0.0 0.0 279.73 111.90" width="279.73mm" xmlns="http://www.w3.org/2000/svg" xmlns:cc="http://creativecommons.org/ns#" xmlns:dc="http://purl.org/dc/elements/1.1/" xmlns:inkscape="http://www.inkscape.org/namespaces/inkscape" xmlns:rdf="http://www.w3.org/1999/02/22-rdf-syntax-ns#" xmlns:svg="http://www.w3.org/2000/svg" xmlns:xlink="http://www.w3.org/1999/xlink">
<!--
Desksign - Simple diagonal plate with stands to show name or message.


Text to be engraved can be generated by inputting the label and fontsize fields.
                  height represents the area that can be used for writing text, does not match the actual
                  height when standing. Generated text is put in the center. Currently only a single
                  line of text is supported.


Created with Boxes.py (https://festi.info/boxes.py)
Command line (remove spaces between dashes): boxes Desksign
-->
<title>Desksign</title>
<metadata>
<rdf:RDF><cc:Work>
<dc:title>Misc - Desksign</dc:title>
<dc:source>boxes Desksign</dc:source>
<dc:description>Simple diagonal plate with stands to show name or message.

Text to be engraved can be generated by inputting the label and fontsize fields.
                  height represents the area that can be used for writing text, does not match the actual
                  height when standing. Generated text is put in the center. Currently only a single
                  line of text is supported.

Created with Boxes.py (https://festi.info/boxes.py)
Command line: boxes Desksign
Command line short: boxes Desksign
</dc:description>
</cc:Work></rdf:RDF></metadata>
<g id="p-0" style="fill:none;stroke-linecap:round;stroke-linejoin:round;">
  <path d="M 18.800 101.900 H 118.800 V 91.900 H 18.800 V 101.900 Z" stroke="rgb(0,0,0)" stroke-width="0.20" />
  <text dominant-baseline="hanging" font-size="8px" style="font-family: sans-serif ; font-weight: normal; font-style: normal; fill: rgb(255,0,0)" text-anchor="middle" transform="matrix( 1.000 0.000 0.000 1.000 68.800 92.900 )">100.00mm, burn:0.10mm</text>
</g>
<g id="p-1" style="fill:none;stroke-linecap:round;stroke-linejoin:round;">
  <path d="M 24.800 90.200 H 174.800 H 180.800 C 180.855 90.200 180.900 90.155 180.900 90.100 V 10.100 C 180.900 10.045 180.855 10.000 180.800 10.000 H 174.800 H 24.800 H 18.800 C 18.745 10.000 18.700 10.045 18.700 10.100 V 90.100 C 18.700 90.155 18.745 90.200 18.800 90.200 H 24.800 Z" stroke="rgb(0,0,0)" stroke-width="0.20" />
  <path d="M 177.700 80.100 V 83.000 C 177.700 83.100 177.800 83.000 177.700 83.000 H 174.900 C 174.800 83.000 174.900 83.100 174.900 83.000 V 77.200 C 174.900 77.100 174.800 77.200 174.900 77.200 H 177.700 C 177.800 77.200 177.700 77.100 177.700 77.200 V 80.100 Z" stroke="rgb(0,0,255)" stroke-width="0.20" />
  <path d="M 177.700 68.100 V 71.000 C 177.700 71.100 177.800 71.000 177.700 71.000 H 174.900 C 174.800 71.000 174.900 71.100 174.900 71.000 V 65.200 C 174.900 65.100 174.800 65.200 174.900 65.200 H 177.700 C 177.800 65.200 177.700 65.100 177.700 65.200 V 68.100 Z" stroke="rgb(0,0,255)" stroke-width="0.20" />
  <path d="M 177.700 56.100 V 59.000 C 177.700 59.100 177.800 59.000 177.700 59.000 H 174.900 C 174.800 59.000 174.900 59.100 174.900 59.000 V 53.200 C 174.900 53.100 174.800 53.200 174.900 53.200 H 177.700 C 177.800 53.200 177.700 53.100 177.700 53.200 V 56.100 Z" stroke="rgb(0,0,255)" stroke-width="0.20" />
  <path d="M 177.700 44.100 V 47.000 C 177.700 47.100 177.800 47.000 177.700 47.000 H 174.900 C 174.800 47.000 174.900 47.100 174.900 47.000 V 41.200 C 174.900 41.100 174.800 41.200 174.900 41.200 H 177.700 C 177.800 41.200 177.700 41.100 177.700 41.200 V 44.100 Z" stroke="rgb(0,0,255)" stroke-width="0.20" />
  <path d="M 177.700 32.100 V 35.000 C 177.700 35.100 177.800 35.000 177.700 35.000 H 174.900 C 174.800 35.000 174.900 35.100 174.900 35.000 V 29.200 C 174.900 29.100 174.800 29.200 174.900 29.200 H 177.700 C 177.800 29.200 177.700 29.100 177.700 29.200 V 32.100 Z" stroke="rgb(0,0,255)" stroke-width="0.20" />
  <path d="M 177.700 20.100 V 23.000 C 177.700 23.100 177.800 23.000 177.700 23.000 H 174.900 C 174.800 23.000 174.900 23.100 174.900 23.000 V 17.200 C 174.900 17.100 174.800 17.200 174.900 17.200 H 177.700 C 177.800 17.200 177.700 17.100 177.700 17.200 V 20.100 Z" stroke="rgb(0,0,255)" stroke-width="0.20" />
  <path d="M 21.900 20.100 V 17.200 C 21.900 17.100 21.800 17.200 21.900 17.200 H 24.700 C 24.800 17.200 24.700 17.100 24.700 17.200 V 23.000 C 24.700 23.100 24.800 23.000 24.700 23.000 H 21.900 C 21.800 23.000 21.900 23.100 21.900 23.000 V 20.100 Z" stroke="rgb(0,0,255)" stroke-width="0.20" />
  <path d="M 21.900 32.100 V 29.200 C 21.900 29.100 21.800 29.200 21.900 29.200 H 24.700 C 24.800 29.200 24.700 29.100 24.700 29.200 V 35.000 C 24.700 35.100 24.800 35.000 24.700 35.000 H 21.900 C 21.800 35.000 21.900 35.100 21.900 35.000 V 32.100 Z" stroke="rgb(0,0,255)" stroke-width="0.20" />
  <path d="M 21.900 44.100 V 41.200 C 21.900 41.100 21.800 41.200 21.900 41.200 H 24.700 C 24.800 41.200 24.700 41.100 24.700 41.200 V 47.000 C 24.700 47.100 24.800 47.000 24.700 47.000 H 21.900 C 21.800 47.000 21.900 47.100 21.900 47.000 V 44.100 Z" stroke="rgb(0,0,255)" stroke-width="0.20" />
  <path d="M 21.900 56.100 V 53.200 C 21.900 53.100 21.800 53.200 21.900 53.200 H 24.700 C 24.800 53.200 24.700 53.100 24.700 53.200 V 59.000 C 24.700 59.100 24.800 59.000 24.700 59.000 H 21.900 C 21.800 59.000 21.900 59.100 21.900 59.000 V 56.100 Z" stroke="rgb(0,0,255)" stroke-width="0.20" />
  <path d="M 21.900 68.100 V 65.200 C 21.900 65.100 21.800 65.200 21.900 65.200 H 24.700 C 24.800 65.200 24.700 65.100 24.700 65.200 V 71.000 C 24.700 71.100 24.800 71.000 24.700 71.000 H 21.900 C 21.800 71.000 21.900 71.100 21.900 71.000 V 68.100 Z" stroke="rgb(0,0,255)" stroke-width="0.20" />
  <path d="M 21.900 80.100 V 77.200 C 21.900 77.100 21.800 77.200 21.900 77.200 H 24.700 C 24.800 77.200 24.700 77.100 24.700 77.200 V 83.000 C 24.700 83.100 24.800 83.000 24.700 83.000 H 21.900 C 21.800 83.000 21.900 83.100 21.900 83.000 V 80.100 Z" stroke="rgb(0,0,255)" stroke-width="0.20" />
</g>
<g id="p-2" style="fill:none;stroke-linecap:round;stroke-linejoin:round;">
  <path d="M 187.927 90.200 H 227.927 C 227.982 90.200 228.027 90.155 228.027 90.100 V 20.818 C 228.027 20.763 227.982 20.718 227.927 20.718 C 227.891 20.718 227.858 20.737 227.840 20.768 L 224.390 26.744 C 224.340 26.830 224.477 26.794 224.390 26.744 L 221.879 25.294 C 221.831 25.266 221.770 25.282 221.742 25.330 L 218.742 30.526 C 218.715 30.574 218.731 30.635 218.779 30.663 L 221.290 32.113 C 221.377 32.163 221.340 32.026 221.290 32.113 L 218.390 37.136 C 218.340 37.222 218.477 37.186 218.390 37.136 L 215.879 35.686 C 215.831 35.658 215.770 35.675 215.742 35.722 L 212.742 40.919 C 212.715 40.966 212.731 41.028 212.779 41.055 L 215.290 42.505 C 215.377 42.555 215.340 42.419 215.290 42.505 L 212.390 47.528 C 212.340 47.615 212.477 47.578 212.390 47.528 L 209.879 46.078 C 209.831 46.051 209.770 46.067 209.742 46.115 L 206.742 51.311 C 206.715 51.359 206.731 51.420 206.779 51.448 L 209.290 52.898 C 209.377 52.948 209.340 52.811 209.290 52.898 L 206.390 57.920 C 206.340 58.007 206.477 57.970 206.390 57.920 L 203.879 56.470 C 203.831 56.443 203.770 56.459 203.742 56.507 L 200.742 61.703 C 200.715 61.751 200.731 61.812 200.779 61.840 L 203.290 63.290 C 203.377 63.340 203.340 63.203 203.290 63.290 L 200.390 68.313 C 200.340 68.399 200.477 68.363 200.390 68.313 L 197.879 66.863 C 197.831 66.835 197.770 66.852 197.742 66.899 L 194.742 72.096 C 194.715 72.143 194.731 72.205 194.779 72.232 L 197.290 73.682 C 197.377 73.732 197.340 73.596 197.290 73.682 L 194.390 78.705 C 194.340 78.792 194.477 78.755 194.390 78.705 L 191.879 77.255 C 191.831 77.227 191.770 77.244 191.742 77.292 L 188.742 82.488 C 188.715 82.536 188.731 82.597 188.779 82.624 L 191.290 84.074 C 191.377 84.124 191.340 83.988 191.290 84.074 L 187.840 90.050 C 187.832 90.065 187.827 90.082 187.827 90.100 C 187.827 90.155 187.872 90.200 187.927 90.200 Z" stroke="rgb(0,0,0)" stroke-width="0.20" />
</g>
<g id="p-3" style="fill:none;stroke-linecap:round;stroke-linejoin:round;">
  <path d="M 269.627 90.200 H 229.627 C 229.572 90.200 229.527 90.155 229.527 90.100 V 20.818 C 229.527 20.763 229.572 20.718 229.627 20.718 C 229.663 20.718 229.696 20.737 229.714 20.768 L 233.164 26.744 C 233.214 26.830 233.077 26.794 233.164 26.744 L 235.675 25.294 C 235.723 25.266 235.784 25.282 235.812 25.330 L 238.812 30.526 C 238.839 30.574 238.823 30.635 238.775 30.663 L 236.264 32.113 C 236.177 32.163 236.214 32.026 236.264 32.113 L 239.164 37.136 C 239.214 37.222 239.077 37.186 239.164 37.136 L 241.675 35.686 C 241.723 35.658 241.784 35.675 241.812 35.722 L 244.812 40.919 C 244.839 40.966 244.823 41.028 244.775 41.055 L 242.264 42.505 C 242.177 42.555 242.214 42.419 242.264 42.505 L 245.164 47.528 C 245.214 47.615 245.077 47.578 245.164 47.528 L 247.675 46.078 C 247.723 46.051 247.784 46.067 247.812 46.115 L 250.812 51.311 C 250.839 51.359 250.823 51.420 250.775 51.448 L 248.264 52.898 C 248.177 52.948 248.214 52.811 248.264 52.898 L 251.164 57.920 C 251.214 58.007 251.077 57.970 251.164 57.920 L 253.675 56.470 C 253.723 56.443 253.784 56.459 253.812 56.507 L 256.812 61.703 C 256.839 61.751 256.823 61.812 256.775 61.840 L 254.264 63.290 C 254.177 63.340 254.214 63.203 254.264 63.290 L 257.164 68.313 C 257.214 68.399 257.077 68.363 257.164 68.313 L 259.675 66.863 C 259.723 66.835 259.784 66.852 259.812 66.899 L 262.812 72.096 C 262.839 72.143 262.823 72.205 262.775 72.232 L 260.264 73.682 C 260.177 73.732 260.214 73.596 260.264 73.682 L 263.164 78.705 C 263.214 78.792 263.077 78.755 263.164 78.705 L 265.675 77.255 C 265.723 77.227 265.784 77.244 265.812 77.292 L 268.812 82.488 C 268.839 82.536 268.823 82.597 268.775 82.624 L 266.264 84.074 C 266.177 84.124 266.214 83.988 266.264 84.074 L 269.714 90.050 C 269.722 90.065 269.727 90.082 269.727 90.100 C 269.727 90.155 269.682 90.200 269.627 90.200 Z" stroke="rgb(0,0,0)" stroke-width="0.20" />
</g>
</svg>