<?xml version='1.0' encoding='utf-8'?>
<svg height="312.40mm" viewBox="0.0 0.0 239.43 312.40" width="239.43mm" xmlns="http://www.w3.org/2000/svg" xmlns:cc="http://creativecommons.org/ns#" xmlns:dc="http://purl.org/dc/elements/1.1/" xmlns:inkscape="http://www.inkscape.org/namespaces/inkscape" xmlns:rdf="http://www.w3.org/1999/02/22-rdf-syntax-ns#" xmlns:svg="http://www.w3.org/2000/svg" xmlns:xlink="http://www.w3.org/1999/xlink">
<!--
DiceBox - Box with lid and integraded hinge for storing dice

Created with Boxes.py (https://festi.info/boxes.py)
Command line (remove spaces between dashes): boxes DiceBox
-->
<title>DiceBox</title>
<metadata>
<rdf:RDF><cc:Work>
<dc:title>Box - DiceBox</dc:title>
<dc:source>boxes DiceBox</dc:source>
<dc:description>Box with lid and integraded hinge for storing dice

Created with Boxes.py (https://festi.info/boxes.py)
Command line: boxes DiceBox
Command line short: boxes DiceBox
</dc:description>
</cc:Work></rdf:RDF></metadata>
<g id="p-0" style="fill:none;stroke-linecap:round;stroke-linejoin:round;">
  <path d="M 18.800 302.400 H 118.800 V 292.400 H 18.800 V 302.400 Z" stroke="rgb(0,0,0)" stroke-width="0.20" />
  <text dominant-baseline="hanging" font-size="8px" style="font-family: sans-serif ; font-weight: normal; font-style: normal; fill: rgb(255,0,0)" text-anchor="middle" transform="matrix( 1.000 0.000 0.000 1.000 68.800 293.400 )">100.00mm, burn:0.10mm</text>
</g>
<g id="p-1" style="fill:none;stroke-linecap:round;stroke-linejoin:round;">
  <path d="M 79.930 231.345 L 71.250 226.334 C 70.490 225.895 69.628 225.664 68.750 225.664 C 67.872 225.664 67.010 225.895 66.250 226.334 L 57.570 231.345 C 56.810 231.784 56.179 232.415 55.740 233.175 C 55.301 233.935 55.070 234.797 55.070 235.675 V 245.698 C 55.070 246.576 55.301 247.438 55.740 248.198 C 56.179 248.958 56.810 249.589 57.570 250.028 L 66.250 255.040 C 67.010 255.478 67.872 255.709 68.750 255.709 C 69.628 255.709 70.490 255.478 71.250 255.040 L 79.930 250.028 C 80.690 249.589 81.321 248.958 81.760 248.198 C 82.199 247.438 82.430 246.576 82.430 245.698 V 235.675 C 82.430 234.797 82.199 233.935 81.760 233.175 C 81.321 232.415 80.690 231.784 79.930 231.345 Z" stroke="rgb(0,0,255)" stroke-width="0.20" />
  <path d="M 110.263 231.345 L 101.583 226.334 C 100.823 225.895 99.961 225.664 99.083 225.664 C 98.206 225.664 97.343 225.895 96.583 226.334 L 87.903 231.345 C 87.143 231.784 86.512 232.415 86.073 233.175 C 85.634 233.935 85.403 234.797 85.403 235.675 V 245.698 C 85.403 246.576 85.634 247.438 86.073 248.198 C 86.512 248.958 87.143 249.589 87.903 250.028 L 96.583 255.040 C 97.343 255.478 98.206 255.709 99.083 255.709 C 99.961 255.709 100.823 255.478 101.583 255.040 L 110.263 250.028 C 111.023 249.589 111.655 248.958 112.094 248.198 C 112.532 247.438 112.763 246.576 112.763 245.698 V 235.675 C 112.763 234.797 112.532 233.935 112.094 233.175 C 111.655 232.415 111.023 231.784 110.263 231.345 Z" stroke="rgb(0,0,255)" stroke-width="0.20" />
  <path d="M 95.097 205.076 L 86.417 200.064 C 85.657 199.625 84.794 199.394 83.917 199.394 C 83.039 199.394 82.177 199.625 81.417 200.064 L 72.737 205.076 C 71.977 205.514 71.345 206.146 70.906 206.906 C 70.468 207.666 70.237 208.528 70.237 209.406 V 219.429 C 70.237 220.306 70.468 221.169 70.906 221.929 C 71.345 222.689 71.977 223.320 72.737 223.759 L 81.417 228.770 C 82.177 229.209 83.039 229.440 83.917 229.440 C 84.794 229.440 85.657 229.209 86.417 228.770 L 95.097 223.759 C 95.857 223.320 96.488 222.689 96.927 221.929 C 97.366 221.169 97.597 220.306 97.597 219.429 V 209.406 C 97.597 208.528 97.366 207.666 96.927 206.906 C 96.488 206.146 95.857 205.514 95.097 205.076 Z" stroke="rgb(0,0,255)" stroke-width="0.20" />
  <path d="M 64.763 205.076 L 56.083 200.064 C 55.323 199.625 54.461 199.394 53.583 199.394 C 52.706 199.394 51.843 199.625 51.083 200.064 L 42.403 205.076 C 41.643 205.514 41.012 206.146 40.573 206.906 C 40.134 207.666 39.903 208.528 39.903 209.406 V 219.429 C 39.903 220.306 40.134 221.169 40.573 221.929 C 41.012 222.689 41.643 223.320 42.403 223.759 L 51.083 228.770 C 51.843 229.209 52.706 229.440 53.583 229.440 C 54.461 229.440 55.323 229.209 56.083 228.770 L 64.763 223.759 C 65.523 223.320 66.155 222.689 66.594 221.929 C 67.032 221.169 67.263 220.306 67.263 219.429 V 209.406 C 67.263 208.528 67.032 207.666 66.594 206.906 C 66.155 206.146 65.523 205.514 64.763 205.076 Z" stroke="rgb(0,0,255)" stroke-width="0.20" />
  <path d="M 49.597 231.345 L 40.917 226.334 C 40.157 225.895 39.294 225.664 38.417 225.664 C 37.539 225.664 36.677 225.895 35.917 226.334 L 27.237 231.345 C 26.477 231.784 25.845 232.415 25.406 233.175 C 24.968 233.935 24.737 234.797 24.737 235.675 V 245.698 C 24.737 246.576 24.968 247.438 25.406 248.198 C 25.845 248.958 26.477 249.589 27.237 250.028 L 35.917 255.040 C 36.677 255.478 37.539 255.709 38.417 255.709 C 39.294 255.709 40.157 255.478 40.917 255.040 L 49.597 250.028 C 50.357 249.589 50.988 248.958 51.427 248.198 C 51.866 247.438 52.097 246.576 52.097 245.698 V 235.675 C 52.097 234.797 51.866 233.935 51.427 233.175 C 50.988 232.415 50.357 231.784 49.597 231.345 Z" stroke="rgb(0,0,255)" stroke-width="0.20" />
  <path d="M 64.763 257.614 L 56.083 252.603 C 55.323 252.164 54.461 251.933 53.583 251.933 C 52.706 251.933 51.843 252.164 51.083 252.603 L 42.403 257.614 C 41.643 258.053 41.012 258.685 40.573 259.445 C 40.134 260.205 39.903 261.067 39.903 261.945 V 271.967 C 39.903 272.845 40.134 273.707 40.573 274.467 C 41.012 275.228 41.643 275.859 42.403 276.298 L 51.083 281.309 C 51.843 281.748 52.706 281.979 53.583 281.979 C 54.461 281.979 55.323 281.748 56.083 281.309 L 64.763 276.298 C 65.523 275.859 66.155 275.228 66.594 274.467 C 67.032 273.707 67.263 272.845 67.263 271.967 V 261.945 C 67.263 261.067 67.032 260.205 66.594 259.445 C 66.155 258.685 65.523 258.053 64.763 257.614 Z" stroke="rgb(0,0,255)" stroke-width="0.20" />
  <path d="M 95.097 257.614 L 86.417 252.603 C 85.657 252.164 84.794 251.933 83.917 251.933 C 83.039 251.933 82.177 252.164 81.417 252.603 L 72.737 257.614 C 71.977 258.053 71.345 258.685 70.906 259.445 C 70.468 260.205 70.237 261.067 70.237 261.945 V 271.967 C 70.237 272.845 70.468 273.707 70.906 274.467 C 71.345 275.228 71.977 275.859 72.737 276.298 L 81.417 281.309 C 82.177 281.748 83.039 281.979 83.917 281.979 C 84.794 281.979 85.657 281.748 86.417 281.309 L 95.097 276.298 C 95.857 275.859 96.488 275.228 96.927 274.467 C 97.366 273.707 97.597 272.845 97.597 271.967 V 261.945 C 97.597 261.067 97.366 260.205 96.927 259.445 C 96.488 258.685 95.857 258.053 95.097 257.614 Z" stroke="rgb(0,0,255)" stroke-width="0.20" />
  <path d="M 30.700 281.600 C 30.700 282.156 30.540 282.700 30.240 283.168 C 29.939 283.636 29.510 284.007 29.005 284.238 C 28.499 284.469 27.938 284.550 27.387 284.470 C 26.837 284.391 26.321 284.156 25.901 283.792 C 25.481 283.428 25.174 282.950 25.017 282.417 C 24.861 281.884 24.861 281.316 25.017 280.783 C 25.174 280.250 25.481 279.772 25.901 279.408 C 26.321 279.044 26.837 278.809 27.387 278.730 C 27.938 278.650 28.499 278.731 29.005 278.962 C 29.510 279.193 29.939 279.564 30.240 280.032 C 30.540 280.500 30.700 281.044 30.700 281.600 Z" stroke="rgb(0,0,255)" stroke-width="0.20" />
  <path d="M 112.700 281.600 C 112.700 282.156 112.540 282.700 112.240 283.168 C 111.939 283.636 111.510 284.007 111.005 284.238 C 110.499 284.469 109.938 284.550 109.387 284.470 C 108.837 284.391 108.321 284.156 107.901 283.792 C 107.481 283.428 107.174 282.950 107.017 282.417 C 106.861 281.884 106.861 281.316 107.017 280.783 C 107.174 280.250 107.481 279.772 107.901 279.408 C 108.321 279.044 108.837 278.809 109.387 278.730 C 109.938 278.650 110.499 278.731 111.005 278.962 C 111.510 279.193 111.939 279.564 112.240 280.032 C 112.540 280.500 112.700 281.044 112.700 281.600 Z" stroke="rgb(0,0,255)" stroke-width="0.20" />
  <path d="M 21.800 287.700 H 29.700 C 29.800 287.700 29.700 287.600 29.700 287.700 V 290.600 C 29.700 290.655 29.745 290.700 29.800 290.700 H 35.800 C 35.855 290.700 35.900 290.655 35.900 290.600 V 287.700 C 35.900 287.600 35.800 287.700 35.900 287.700 H 41.700 C 41.800 287.700 41.700 287.600 41.700 287.700 V 290.600 C 41.700 290.655 41.745 290.700 41.800 290.700 H 47.800 C 47.855 290.700 47.900 290.655 47.900 290.600 V 287.700 C 47.900 287.600 47.800 287.700 47.900 287.700 H 53.700 C 53.800 287.700 53.700 287.600 53.700 287.700 V 290.600 C 53.700 290.655 53.745 290.700 53.800 290.700 H 59.800 C 59.855 290.700 59.900 290.655 59.900 290.600 V 287.700 C 59.900 287.600 59.800 287.700 59.900 287.700 H 65.700 C 65.800 287.700 65.700 287.600 65.700 287.700 V 290.600 C 65.700 290.655 65.745 290.700 65.800 290.700 H 71.800 C 71.855 290.700 71.900 290.655 71.900 290.600 V 287.700 C 71.900 287.600 71.800 287.700 71.900 287.700 H 77.700 C 77.800 287.700 77.700 287.600 77.700 287.700 V 290.600 C 77.700 290.655 77.745 290.700 77.800 290.700 H 83.800 C 83.855 290.700 83.900 290.655 83.900 290.600 V 287.700 C 83.900 287.600 83.800 287.700 83.900 287.700 H 89.700 C 89.800 287.700 89.700 287.600 89.700 287.700 V 290.600 C 89.700 290.655 89.745 290.700 89.800 290.700 H 95.800 C 95.855 290.700 95.900 290.655 95.900 290.600 V 287.700 C 95.900 287.600 95.800 287.700 95.900 287.700 H 101.700 C 101.800 287.700 101.700 287.600 101.700 287.700 V 290.600 C 101.700 290.655 101.745 290.700 101.800 290.700 H 107.800 C 107.855 290.700 107.900 290.655 107.900 290.600 V 287.700 C 107.900 287.600 107.800 287.700 107.900 287.700 H 115.800 C 115.855 287.700 115.900 287.655 115.900 287.600 V 276.700 C 115.900 276.600 115.800 276.700 115.900 276.700 H 118.800 C 118.855 276.700 118.900 276.655 118.900 276.600 V 270.600 C 118.900 270.545 118.855 270.500 118.800 270.500 H 115.900 C 115.800 270.500 115.900 270.600 115.900 270.500 V 264.700 C 115.900 264.600 115.800 264.700 115.900 264.700 H 118.800 C 118.855 264.700 118.900 264.655 118.900 264.600 V 258.600 C 118.900 258.545 118.855 258.500 118.800 258.500 H 115.900 C 115.800 258.500 115.900 258.600 115.900 258.500 V 252.700 C 115.900 252.600 115.800 252.700 115.900 252.700 H 118.800 C 118.855 252.700 118.900 252.655 118.900 252.600 V 246.600 C 118.900 246.545 118.855 246.500 118.800 246.500 H 115.900 C 115.800 246.500 115.900 246.600 115.900 246.500 V 240.700 C 115.900 240.600 115.800 240.700 115.900 240.700 H 118.800 C 118.855 240.700 118.900 240.655 118.900 240.600 V 234.600 C 118.900 234.545 118.855 234.500 118.800 234.500 H 115.900 C 115.800 234.500 115.900 234.600 115.900 234.500 V 228.700 C 115.900 228.600 115.800 228.700 115.900 228.700 H 118.800 C 118.855 228.700 118.900 228.655 118.900 228.600 V 222.600 C 118.900 222.545 118.855 222.500 118.800 222.500 H 115.900 C 115.800 222.500 115.900 222.600 115.900 222.500 V 216.700 C 115.900 216.600 115.800 216.700 115.900 216.700 H 118.800 C 118.855 216.700 118.900 216.655 118.900 216.600 V 210.600 C 118.900 210.545 118.855 210.500 118.800 210.500 H 115.900 C 115.800 210.500 115.900 210.600 115.900 210.500 V 199.600 V 193.600 C 115.900 193.545 115.855 193.500 115.800 193.500 H 107.900 C 107.800 193.500 107.900 193.600 107.900 193.500 V 190.600 C 107.900 190.545 107.855 190.500 107.800 190.500 H 101.800 C 101.745 190.500 101.700 190.545 101.700 190.600 V 193.500 C 101.700 193.600 101.800 193.500 101.700 193.500 H 95.900 C 95.800 193.500 95.900 193.600 95.900 193.500 V 190.600 C 95.900 190.545 95.855 190.500 95.800 190.500 H 89.800 C 89.745 190.500 89.700 190.545 89.700 190.600 V 193.500 C 89.700 193.600 89.800 193.500 89.700 193.500 H 83.900 C 83.800 193.500 83.900 193.600 83.900 193.500 V 190.600 C 83.900 190.545 83.855 190.500 83.800 190.500 H 77.800 C 77.745 190.500 77.700 190.545 77.700 190.600 V 193.500 C 77.700 193.600 77.800 193.500 77.700 193.500 H 71.900 C 71.800 193.500 71.900 193.600 71.900 193.500 V 190.600 C 71.900 190.545 71.855 190.500 71.800 190.500 H 65.800 C 65.745 190.500 65.700 190.545 65.700 190.600 V 193.500 C 65.700 193.600 65.800 193.500 65.700 193.500 H 59.900 C 59.800 193.500 59.900 193.600 59.900 193.500 V 190.600 C 59.900 190.545 59.855 190.500 59.800 190.500 H 53.800 C 53.745 190.500 53.700 190.545 53.700 190.600 V 193.500 C 53.700 193.600 53.800 193.500 53.700 193.500 H 47.900 C 47.800 193.500 47.900 193.600 47.900 193.500 V 190.600 C 47.900 190.545 47.855 190.500 47.800 190.500 H 41.800 C 41.745 190.500 41.700 190.545 41.700 190.600 V 193.500 C 41.700 193.600 41.800 193.500 41.700 193.500 H 35.900 C 35.800 193.500 35.900 193.600 35.900 193.500 V 190.600 C 35.900 190.545 35.855 190.500 35.800 190.500 H 29.800 C 29.745 190.500 29.700 190.545 29.700 190.600 V 193.500 C 29.700 193.600 29.800 193.500 29.700 193.500 H 21.800 C 21.745 193.500 21.700 193.545 21.700 193.600 V 199.600 V 210.500 C 21.700 210.600 21.800 210.500 21.700 210.500 H 18.800 C 18.745 210.500 18.700 210.545 18.700 210.600 V 216.600 C 18.700 216.655 18.745 216.700 18.800 216.700 H 21.700 C 21.800 216.700 21.700 216.600 21.700 216.700 V 222.500 C 21.700 222.600 21.800 222.500 21.700 222.500 H 18.800 C 18.745 222.500 18.700 222.545 18.700 222.600 V 228.600 C 18.700 228.655 18.745 228.700 18.800 228.700 H 21.700 C 21.800 228.700 21.700 228.600 21.700 228.700 V 234.500 C 21.700 234.600 21.800 234.500 21.700 234.500 H 18.800 C 18.745 234.500 18.700 234.545 18.700 234.600 V 240.600 C 18.700 240.655 18.745 240.700 18.800 240.700 H 21.700 C 21.800 240.700 21.700 240.600 21.700 240.700 V 246.500 C 21.700 246.600 21.800 246.500 21.700 246.500 H 18.800 C 18.745 246.500 18.700 246.545 18.700 246.600 V 252.600 C 18.700 252.655 18.745 252.700 18.800 252.700 H 21.700 C 21.800 252.700 21.700 252.600 21.700 252.700 V 258.500 C 21.700 258.600 21.800 258.500 21.700 258.500 H 18.800 C 18.745 258.500 18.700 258.545 18.700 258.600 V 264.600 C 18.700 264.655 18.745 264.700 18.800 264.700 H 21.700 C 21.800 264.700 21.700 264.600 21.700 264.700 V 270.500 C 21.700 270.600 21.800 270.500 21.700 270.500 H 18.800 C 18.745 270.500 18.700 270.545 18.700 270.600 V 276.600 C 18.700 276.655 18.745 276.700 18.800 276.700 H 21.700 C 21.800 276.700 21.700 276.600 21.700 276.700 V 287.600 C 21.700 287.655 21.745 287.700 21.800 287.700 Z" stroke="rgb(0,0,0)" stroke-width="0.20" />
</g>
<g id="p-2" style="fill:none;stroke-linecap:round;stroke-linejoin:round;">
  <path d="M 79.930 129.645 L 71.250 124.634 C 70.490 124.195 69.628 123.964 68.750 123.964 C 67.872 123.964 67.010 124.195 66.250 124.634 L 57.570 129.645 C 56.810 130.084 56.179 130.715 55.740 131.475 C 55.301 132.235 55.070 133.097 55.070 133.975 V 143.998 C 55.070 144.876 55.301 145.738 55.740 146.498 C 56.179 147.258 56.810 147.889 57.570 148.328 L 66.250 153.340 C 67.010 153.778 67.872 154.009 68.750 154.009 C 69.628 154.009 70.490 153.778 71.250 153.340 L 79.930 148.328 C 80.690 147.889 81.321 147.258 81.760 146.498 C 82.199 145.738 82.430 144.876 82.430 143.998 V 133.975 C 82.430 133.097 82.199 132.235 81.760 131.475 C 81.321 130.715 80.690 130.084 79.930 129.645 Z" stroke="rgb(0,0,255)" stroke-width="0.20" />
  <path d="M 110.263 129.645 L 101.583 124.634 C 100.823 124.195 99.961 123.964 99.083 123.964 C 98.206 123.964 97.343 124.195 96.583 124.634 L 87.903 129.645 C 87.143 130.084 86.512 130.715 86.073 131.475 C 85.634 132.235 85.403 133.097 85.403 133.975 V 143.998 C 85.403 144.876 85.634 145.738 86.073 146.498 C 86.512 147.258 87.143 147.889 87.903 148.328 L 96.583 153.340 C 97.343 153.778 98.206 154.009 99.083 154.009 C 99.961 154.009 100.823 153.778 101.583 153.340 L 110.263 148.328 C 111.023 147.889 111.655 147.258 112.094 146.498 C 112.532 145.738 112.763 144.876 112.763 143.998 V 133.975 C 112.763 133.097 112.532 132.235 112.094 131.475 C 111.655 130.715 111.023 130.084 110.263 129.645 Z" stroke="rgb(0,0,255)" stroke-width="0.20" />
  <path d="M 95.097 103.376 L 86.417 98.364 C 85.657 97.925 84.794 97.694 83.917 97.694 C 83.039 97.694 82.177 97.925 81.417 98.364 L 72.737 103.376 C 71.977 103.814 71.345 104.446 70.906 105.206 C 70.468 105.966 70.237 106.828 70.237 107.706 V 117.729 C 70.237 118.606 70.468 119.469 70.906 120.229 C 71.345 120.989 71.977 121.620 72.737 122.059 L 81.417 127.070 C 82.177 127.509 83.039 127.740 83.917 127.740 C 84.794 127.740 85.657 127.509 86.417 127.070 L 95.097 122.059 C 95.857 121.620 96.488 120.989 96.927 120.229 C 97.366 119.469 97.597 118.606 97.597 117.729 V 107.706 C 97.597 106.828 97.366 105.966 96.927 105.206 C 96.488 104.446 95.857 103.814 95.097 103.376 Z" stroke="rgb(0,0,255)" stroke-width="0.20" />
  <path d="M 64.763 103.376 L 56.083 98.364 C 55.323 97.925 54.461 97.694 53.583 97.694 C 52.706 97.694 51.843 97.925 51.083 98.364 L 42.403 103.376 C 41.643 103.814 41.012 104.446 40.573 105.206 C 40.134 105.966 39.903 106.828 39.903 107.706 V 117.729 C 39.903 118.606 40.134 119.469 40.573 120.229 C 41.012 120.989 41.643 121.620 42.403 122.059 L 51.083 127.070 C 51.843 127.509 52.706 127.740 53.583 127.740 C 54.461 127.740 55.323 127.509 56.083 127.070 L 64.763 122.059 C 65.523 121.620 66.155 120.989 66.594 120.229 C 67.032 119.469 67.263 118.606 67.263 117.729 V 107.706 C 67.263 106.828 67.032 105.966 66.594 105.206 C 66.155 104.446 65.523 103.814 64.763 103.376 Z" stroke="rgb(0,0,255)" stroke-width="0.20" />
  <path d="M 49.597 129.645 L 40.917 124.634 C 40.157 124.195 39.294 123.964 38.417 123.964 C 37.539 123.964 36.677 124.195 35.917 124.634 L 27.237 129.645 C 26.477 130.084 25.845 130.715 25.406 131.475 C 24.968 132.235 24.737 133.097 24.737 133.975 V 143.998 C 24.737 144.876 24.968 145.738 25.406 146.498 C 25.845 147.258 26.477 147.889 27.237 148.328 L 35.917 153.340 C 36.677 153.778 37.539 154.009 38.417 154.009 C 39.294 154.009 40.157 153.778 40.917 153.340 L 49.597 148.328 C 50.357 147.889 50.988 147.258 51.427 146.498 C 51.866 145.738 52.097 144.876 52.097 143.998 V 133.975 C 52.097 133.097 51.866 132.235 51.427 131.475 C 50.988 130.715 50.357 130.084 49.597 129.645 Z" stroke="rgb(0,0,255)" stroke-width="0.20" />
  <path d="M 64.763 155.914 L 56.083 150.903 C 55.323 150.464 54.461 150.233 53.583 150.233 C 52.706 150.233 51.843 150.464 51.083 150.903 L 42.403 155.914 C 41.643 156.353 41.012 156.985 40.573 157.745 C 40.134 158.505 39.903 159.367 39.903 160.245 V 170.267 C 39.903 171.145 40.134 172.007 40.573 172.767 C 41.012 173.528 41.643 174.159 42.403 174.598 L 51.083 179.609 C 51.843 180.048 52.706 180.279 53.583 180.279 C 54.461 180.279 55.323 180.048 56.083 179.609 L 64.763 174.598 C 65.523 174.159 66.155 173.528 66.594 172.767 C 67.032 172.007 67.263 171.145 67.263 170.267 V 160.245 C 67.263 159.367 67.032 158.505 66.594 157.745 C 66.155 156.985 65.523 156.353 64.763 155.914 Z" stroke="rgb(0,0,255)" stroke-width="0.20" />
  <path d="M 95.097 155.914 L 86.417 150.903 C 85.657 150.464 84.794 150.233 83.917 150.233 C 83.039 150.233 82.177 150.464 81.417 150.903 L 72.737 155.914 C 71.977 156.353 71.345 156.985 70.906 157.745 C 70.468 158.505 70.237 159.367 70.237 160.245 V 170.267 C 70.237 171.145 70.468 172.007 70.906 172.767 C 71.345 173.528 71.977 174.159 72.737 174.598 L 81.417 179.609 C 82.177 180.048 83.039 180.279 83.917 180.279 C 84.794 180.279 85.657 180.048 86.417 179.609 L 95.097 174.598 C 95.857 174.159 96.488 173.528 96.927 172.767 C 97.366 172.007 97.597 171.145 97.597 170.267 V 160.245 C 97.597 159.367 97.366 158.505 96.927 157.745 C 96.488 156.985 95.857 156.353 95.097 155.914 Z" stroke="rgb(0,0,255)" stroke-width="0.20" />
  <path d="M 30.700 179.900 C 30.700 180.456 30.540 181.000 30.240 181.468 C 29.939 181.936 29.510 182.307 29.005 182.538 C 28.499 182.769 27.938 182.850 27.387 182.770 C 26.837 182.691 26.321 182.456 25.901 182.092 C 25.481 181.728 25.174 181.250 25.017 180.717 C 24.861 180.184 24.861 179.616 25.017 179.083 C 25.174 178.550 25.481 178.072 25.901 177.708 C 26.321 177.344 26.837 177.109 27.387 177.030 C 27.938 176.950 28.499 177.031 29.005 177.262 C 29.510 177.493 29.939 177.864 30.240 178.332 C 30.540 178.800 30.700 179.344 30.700 179.900 Z" stroke="rgb(0,0,255)" stroke-width="0.20" />
  <path d="M 112.700 179.900 C 112.700 180.456 112.540 181.000 112.240 181.468 C 111.939 181.936 111.510 182.307 111.005 182.538 C 110.499 182.769 109.938 182.850 109.387 182.770 C 108.837 182.691 108.321 182.456 107.901 182.092 C 107.481 181.728 107.174 181.250 107.017 180.717 C 106.861 180.184 106.861 179.616 107.017 179.083 C 107.174 178.550 107.481 178.072 107.901 177.708 C 108.321 177.344 108.837 177.109 109.387 177.030 C 109.938 176.950 110.499 177.031 111.005 177.262 C 111.510 177.493 111.939 177.864 112.240 178.332 C 112.540 178.800 112.700 179.344 112.700 179.900 Z" stroke="rgb(0,0,255)" stroke-width="0.20" />
  <path d="M 21.800 186.000 H 29.700 C 29.800 186.000 29.700 185.900 29.700 186.000 V 188.900 C 29.700 188.955 29.745 189.000 29.800 189.000 H 35.800 C 35.855 189.000 35.900 188.955 35.900 188.900 V 186.000 C 35.900 185.900 35.800 186.000 35.900 186.000 H 41.700 C 41.800 186.000 41.700 185.900 41.700 186.000 V 188.900 C 41.700 188.955 41.745 189.000 41.800 189.000 H 47.800 C 47.855 189.000 47.900 188.955 47.900 188.900 V 186.000 C 47.900 185.900 47.800 186.000 47.900 186.000 H 53.700 C 53.800 186.000 53.700 185.900 53.700 186.000 V 188.900 C 53.700 188.955 53.745 189.000 53.800 189.000 H 59.800 C 59.855 189.000 59.900 188.955 59.900 188.900 V 186.000 C 59.900 185.900 59.800 186.000 59.900 186.000 H 65.700 C 65.800 186.000 65.700 185.900 65.700 186.000 V 188.900 C 65.700 188.955 65.745 189.000 65.800 189.000 H 71.800 C 71.855 189.000 71.900 188.955 71.900 188.900 V 186.000 C 71.900 185.900 71.800 186.000 71.900 186.000 H 77.700 C 77.800 186.000 77.700 185.900 77.700 186.000 V 188.900 C 77.700 188.955 77.745 189.000 77.800 189.000 H 83.800 C 83.855 189.000 83.900 188.955 83.900 188.900 V 186.000 C 83.900 185.900 83.800 186.000 83.900 186.000 H 89.700 C 89.800 186.000 89.700 185.900 89.700 186.000 V 188.900 C 89.700 188.955 89.745 189.000 89.800 189.000 H 95.800 C 95.855 189.000 95.900 188.955 95.900 188.900 V 186.000 C 95.900 185.900 95.800 186.000 95.900 186.000 H 101.700 C 101.800 186.000 101.700 185.900 101.700 186.000 V 188.900 C 101.700 188.955 101.745 189.000 101.800 189.000 H 107.800 C 107.855 189.000 107.900 188.955 107.900 188.900 V 186.000 C 107.900 185.900 107.800 186.000 107.900 186.000 H 115.800 C 115.855 186.000 115.900 185.955 115.900 185.900 V 175.000 C 115.900 174.900 115.800 175.000 115.900 175.000 H 118.800 C 118.855 175.000 118.900 174.955 118.900 174.900 V 168.900 C 118.900 168.845 118.855 168.800 118.800 168.800 H 115.900 C 115.800 168.800 115.900 168.900 115.900 168.800 V 163.000 C 115.900 162.900 115.800 163.000 115.900 163.000 H 118.800 C 118.855 163.000 118.900 162.955 118.900 162.900 V 156.900 C 118.900 156.845 118.855 156.800 118.800 156.800 H 115.900 C 115.800 156.800 115.900 156.900 115.900 156.800 V 151.000 C 115.900 150.900 115.800 151.000 115.900 151.000 H 118.800 C 118.855 151.000 118.900 150.955 118.900 150.900 V 144.900 C 118.900 144.845 118.855 144.800 118.800 144.800 H 115.900 C 115.800 144.800 115.900 144.900 115.900 144.800 V 139.000 C 115.900 138.900 115.800 139.000 115.900 139.000 H 118.800 C 118.855 139.000 118.900 138.955 118.900 138.900 V 132.900 C 118.900 132.845 118.855 132.800 118.800 132.800 H 115.900 C 115.800 132.800 115.900 132.900 115.900 132.800 V 127.000 C 115.900 126.900 115.800 127.000 115.900 127.000 H 118.800 C 118.855 127.000 118.900 126.955 118.900 126.900 V 120.900 C 118.900 120.845 118.855 120.800 118.800 120.800 H 115.900 C 115.800 120.800 115.900 120.900 115.900 120.800 V 115.000 C 115.900 114.900 115.800 115.000 115.900 115.000 H 118.800 C 118.855 115.000 118.900 114.955 118.900 114.900 V 108.900 C 118.900 108.845 118.855 108.800 118.800 108.800 H 115.900 C 115.800 108.800 115.900 108.900 115.900 108.800 V 97.900 V 91.900 C 115.900 91.845 115.855 91.800 115.800 91.800 H 107.900 C 107.800 91.800 107.900 91.900 107.900 91.800 V 88.900 C 107.900 88.845 107.855 88.800 107.800 88.800 H 101.800 C 101.745 88.800 101.700 88.845 101.700 88.900 V 91.800 C 101.700 91.900 101.800 91.800 101.700 91.800 H 95.900 C 95.800 91.800 95.900 91.900 95.900 91.800 V 88.900 C 95.900 88.845 95.855 88.800 95.800 88.800 H 89.800 C 89.745 88.800 89.700 88.845 89.700 88.900 V 91.800 C 89.700 91.900 89.800 91.800 89.700 91.800 H 83.900 C 83.800 91.800 83.900 91.900 83.900 91.800 V 88.900 C 83.900 88.845 83.855 88.800 83.800 88.800 H 77.800 C 77.745 88.800 77.700 88.845 77.700 88.900 V 91.800 C 77.700 91.900 77.800 91.800 77.700 91.800 H 71.900 C 71.800 91.800 71.900 91.900 71.900 91.800 V 88.900 C 71.900 88.845 71.855 88.800 71.800 88.800 H 65.800 C 65.745 88.800 65.700 88.845 65.700 88.900 V 91.800 C 65.700 91.900 65.800 91.800 65.700 91.800 H 59.900 C 59.800 91.800 59.900 91.900 59.900 91.800 V 88.900 C 59.900 88.845 59.855 88.800 59.800 88.800 H 53.800 C 53.745 88.800 53.700 88.845 53.700 88.900 V 91.800 C 53.700 91.900 53.800 91.800 53.700 91.800 H 47.900 C 47.800 91.800 47.900 91.900 47.900 91.800 V 88.900 C 47.900 88.845 47.855 88.800 47.800 88.800 H 41.800 C 41.745 88.800 41.700 88.845 41.700 88.900 V 91.800 C 41.700 91.900 41.800 91.800 41.700 91.800 H 35.900 C 35.800 91.800 35.900 91.900 35.900 91.800 V 88.900 C 35.900 88.845 35.855 88.800 35.800 88.800 H 29.800 C 29.745 88.800 29.700 88.845 29.700 88.900 V 91.800 C 29.700 91.900 29.800 91.800 29.700 91.800 H 21.800 C 21.745 91.800 21.700 91.845 21.700 91.900 V 97.900 V 108.800 C 21.700 108.900 21.800 108.800 21.700 108.800 H 18.800 C 18.745 108.800 18.700 108.845 18.700 108.900 V 114.900 C 18.700 114.955 18.745 115.000 18.800 115.000 H 21.700 C 21.800 115.000 21.700 114.900 21.700 115.000 V 120.800 C 21.700 120.900 21.800 120.800 21.700 120.800 H 18.800 C 18.745 120.800 18.700 120.845 18.700 120.900 V 126.900 C 18.700 126.955 18.745 127.000 18.800 127.000 H 21.700 C 21.800 127.000 21.700 126.900 21.700 127.000 V 132.800 C 21.700 132.900 21.800 132.800 21.700 132.800 H 18.800 C 18.745 132.800 18.700 132.845 18.700 132.900 V 138.900 C 18.700 138.955 18.745 139.000 18.800 139.000 H 21.700 C 21.800 139.000 21.700 138.900 21.700 139.000 V 144.800 C 21.700 144.900 21.800 144.800 21.700 144.800 H 18.800 C 18.745 144.800 18.700 144.845 18.700 144.900 V 150.900 C 18.700 150.955 18.745 151.000 18.800 151.000 H 21.700 C 21.800 151.000 21.700 150.900 21.700 151.000 V 156.800 C 21.700 156.900 21.800 156.800 21.700 156.800 H 18.800 C 18.745 156.800 18.700 156.845 18.700 156.900 V 162.900 C 18.700 162.955 18.745 163.000 18.800 163.000 H 21.700 C 21.800 163.000 21.700 162.900 21.700 163.000 V 168.800 C 21.700 168.900 21.800 168.800 21.700 168.800 H 18.800 C 18.745 168.800 18.700 168.845 18.700 168.900 V 174.900 C 18.700 174.955 18.745 175.000 18.800 175.000 H 21.700 C 21.800 175.000 21.700 174.900 21.700 175.000 V 185.900 C 21.700 185.955 21.745 186.000 21.800 186.000 Z" stroke="rgb(0,0,0)" stroke-width="0.20" />
</g>
<g id="p-3" style="fill:none;stroke-linecap:round;stroke-linejoin:round;">
  <path d="M 21.800 87.300 H 29.800 C 29.855 87.300 29.900 87.255 29.900 87.200 V 84.300 C 29.900 84.200 29.800 84.300 29.900 84.300 H 35.700 C 35.800 84.300 35.700 84.200 35.700 84.300 V 87.200 C 35.700 87.255 35.745 87.300 35.800 87.300 H 41.800 C 41.855 87.300 41.900 87.255 41.900 87.200 V 84.300 C 41.900 84.200 41.800 84.300 41.900 84.300 H 47.700 C 47.800 84.300 47.700 84.200 47.700 84.300 V 87.200 C 47.700 87.255 47.745 87.300 47.800 87.300 H 53.800 C 53.855 87.300 53.900 87.255 53.900 87.200 V 84.300 C 53.900 84.200 53.800 84.300 53.900 84.300 H 59.700 C 59.800 84.300 59.700 84.200 59.700 84.300 V 87.200 C 59.700 87.255 59.745 87.300 59.800 87.300 H 65.800 C 65.855 87.300 65.900 87.255 65.900 87.200 V 84.300 C 65.900 84.200 65.800 84.300 65.900 84.300 H 71.700 C 71.800 84.300 71.700 84.200 71.700 84.300 V 87.200 C 71.700 87.255 71.745 87.300 71.800 87.300 H 77.800 C 77.855 87.300 77.900 87.255 77.900 87.200 V 84.300 C 77.900 84.200 77.800 84.300 77.900 84.300 H 83.700 C 83.800 84.300 83.700 84.200 83.700 84.300 V 87.200 C 83.700 87.255 83.745 87.300 83.800 87.300 H 89.800 C 89.855 87.300 89.900 87.255 89.900 87.200 V 84.300 C 89.900 84.200 89.800 84.300 89.900 84.300 H 95.700 C 95.800 84.300 95.700 84.200 95.700 84.300 V 87.200 C 95.700 87.255 95.745 87.300 95.800 87.300 H 101.800 C 101.855 87.300 101.900 87.255 101.900 87.200 V 84.300 C 101.900 84.200 101.800 84.300 101.900 84.300 H 107.700 C 107.800 84.300 107.700 84.200 107.700 84.300 V 87.200 C 107.700 87.255 107.745 87.300 107.800 87.300 H 115.800 H 118.800 C 118.855 87.300 118.900 87.255 118.900 87.200 V 81.200 C 118.900 81.145 118.855 81.100 118.800 81.100 H 115.900 C 115.800 81.100 115.900 81.200 115.900 81.100 V 75.300 C 115.900 75.200 115.800 75.300 115.900 75.300 H 118.800 C 118.855 75.300 118.900 75.255 118.900 75.200 V 69.200 C 118.900 69.145 118.855 69.100 118.800 69.100 H 115.800 H 107.800 C 107.745 69.100 107.700 69.145 107.700 69.200 V 72.100 C 107.700 72.200 107.800 72.100 107.700 72.100 H 101.900 C 101.800 72.100 101.900 72.200 101.900 72.100 V 69.200 C 101.900 69.145 101.855 69.100 101.800 69.100 H 95.800 C 95.745 69.100 95.700 69.145 95.700 69.200 V 72.100 C 95.700 72.200 95.800 72.100 95.700 72.100 H 89.900 C 89.800 72.100 89.900 72.200 89.900 72.100 V 69.200 C 89.900 69.145 89.855 69.100 89.800 69.100 H 83.800 C 83.745 69.100 83.700 69.145 83.700 69.200 V 72.100 C 83.700 72.200 83.800 72.100 83.700 72.100 H 77.900 C 77.800 72.100 77.900 72.200 77.900 72.100 V 69.200 C 77.900 69.145 77.855 69.100 77.800 69.100 H 71.800 C 71.745 69.100 71.700 69.145 71.700 69.200 V 72.100 C 71.700 72.200 71.800 72.100 71.700 72.100 H 65.900 C 65.800 72.100 65.900 72.200 65.900 72.100 V 69.200 C 65.900 69.145 65.855 69.100 65.800 69.100 H 59.800 C 59.745 69.100 59.700 69.145 59.700 69.200 V 72.100 C 59.700 72.200 59.800 72.100 59.700 72.100 H 53.900 C 53.800 72.100 53.900 72.200 53.900 72.100 V 69.200 C 53.900 69.145 53.855 69.100 53.800 69.100 H 47.800 C 47.745 69.100 47.700 69.145 47.700 69.200 V 72.100 C 47.700 72.200 47.800 72.100 47.700 72.100 H 41.900 C 41.800 72.100 41.900 72.200 41.900 72.100 V 69.200 C 41.900 69.145 41.855 69.100 41.800 69.100 H 35.800 C 35.745 69.100 35.700 69.145 35.700 69.200 V 72.100 C 35.700 72.200 35.800 72.100 35.700 72.100 H 29.900 C 29.800 72.100 29.900 72.200 29.900 72.100 V 69.200 C 29.900 69.145 29.855 69.100 29.800 69.100 H 21.800 H 18.800 C 18.745 69.100 18.700 69.145 18.700 69.200 V 75.200 C 18.700 75.255 18.745 75.300 18.800 75.300 H 21.700 C 21.800 75.300 21.700 75.200 21.700 75.300 V 81.100 C 21.700 81.200 21.800 81.100 21.700 81.100 H 18.800 C 18.745 81.100 18.700 81.145 18.700 81.200 V 87.200 C 18.700 87.255 18.745 87.300 18.800 87.300 H 21.800 Z" stroke="rgb(0,0,0)" stroke-width="0.20" />
</g>
<g id="p-4" style="fill:none;stroke-linecap:round;stroke-linejoin:round;">
  <path d="M 21.800 67.600 H 29.800 C 29.855 67.600 29.900 67.555 29.900 67.500 V 64.600 C 29.900 64.500 29.800 64.600 29.900 64.600 H 35.700 C 35.800 64.600 35.700 64.500 35.700 64.600 V 67.500 C 35.700 67.555 35.745 67.600 35.800 67.600 H 41.800 C 41.855 67.600 41.900 67.555 41.900 67.500 V 64.600 C 41.900 64.500 41.800 64.600 41.900 64.600 H 47.700 C 47.800 64.600 47.700 64.500 47.700 64.600 V 67.500 C 47.700 67.555 47.745 67.600 47.800 67.600 H 53.800 C 53.855 67.600 53.900 67.555 53.900 67.500 V 64.600 C 53.900 64.500 53.800 64.600 53.900 64.600 H 59.700 C 59.800 64.600 59.700 64.500 59.700 64.600 V 67.500 C 59.700 67.555 59.745 67.600 59.800 67.600 H 65.800 C 65.855 67.600 65.900 67.555 65.900 67.500 V 64.600 C 65.900 64.500 65.800 64.600 65.900 64.600 H 71.700 C 71.800 64.600 71.700 64.500 71.700 64.600 V 67.500 C 71.700 67.555 71.745 67.600 71.800 67.600 H 77.800 C 77.855 67.600 77.900 67.555 77.900 67.500 V 64.600 C 77.900 64.500 77.800 64.600 77.900 64.600 H 83.700 C 83.800 64.600 83.700 64.500 83.700 64.600 V 67.500 C 83.700 67.555 83.745 67.600 83.800 67.600 H 89.800 C 89.855 67.600 89.900 67.555 89.900 67.500 V 64.600 C 89.900 64.500 89.800 64.600 89.900 64.600 H 95.700 C 95.800 64.600 95.700 64.500 95.700 64.600 V 67.500 C 95.700 67.555 95.745 67.600 95.800 67.600 H 101.800 C 101.855 67.600 101.900 67.555 101.900 67.500 V 64.600 C 101.900 64.500 101.800 64.600 101.900 64.600 H 107.700 C 107.800 64.600 107.700 64.500 107.700 64.600 V 67.500 C 107.700 67.555 107.745 67.600 107.800 67.600 H 115.800 C 115.855 67.600 115.900 67.555 115.900 67.500 V 64.500 V 58.600 C 115.900 58.500 115.800 58.600 115.900 58.600 H 118.800 C 118.855 58.600 118.900 58.555 118.900 58.500 V 57.000 C 118.900 56.945 118.855 56.900 118.800 56.900 H 115.900 C 115.800 56.900 115.900 57.000 115.900 56.900 V 54.100 C 115.900 54.000 115.800 54.100 115.900 54.100 H 118.800 C 118.855 54.100 118.900 54.055 118.900 54.000 V 52.500 V 49.500 C 118.900 49.445 118.855 49.400 118.800 49.400 H 115.800 H 107.800 C 107.745 49.400 107.700 49.445 107.700 49.500 V 52.400 C 107.700 52.500 107.800 52.400 107.700 52.400 H 101.900 C 101.800 52.400 101.900 52.500 101.900 52.400 V 49.500 C 101.900 49.445 101.855 49.400 101.800 49.400 H 95.800 C 95.745 49.400 95.700 49.445 95.700 49.500 V 52.400 C 95.700 52.500 95.800 52.400 95.700 52.400 H 89.900 C 89.800 52.400 89.900 52.500 89.900 52.400 V 49.500 C 89.900 49.445 89.855 49.400 89.800 49.400 H 83.800 C 83.745 49.400 83.700 49.445 83.700 49.500 V 52.400 C 83.700 52.500 83.800 52.400 83.700 52.400 H 77.900 C 77.800 52.400 77.900 52.500 77.900 52.400 V 49.500 C 77.900 49.445 77.855 49.400 77.800 49.400 H 71.800 C 71.745 49.400 71.700 49.445 71.700 49.500 V 52.400 C 71.700 52.500 71.800 52.400 71.700 52.400 H 65.900 C 65.800 52.400 65.900 52.500 65.900 52.400 V 49.500 C 65.900 49.445 65.855 49.400 65.800 49.400 H 59.800 C 59.745 49.400 59.700 49.445 59.700 49.500 V 52.400 C 59.700 52.500 59.800 52.400 59.700 52.400 H 53.900 C 53.800 52.400 53.900 52.500 53.900 52.400 V 49.500 C 53.900 49.445 53.855 49.400 53.800 49.400 H 47.800 C 47.745 49.400 47.700 49.445 47.700 49.500 V 52.400 C 47.700 52.500 47.800 52.400 47.700 52.400 H 41.900 C 41.800 52.400 41.900 52.500 41.900 52.400 V 49.500 C 41.900 49.445 41.855 49.400 41.800 49.400 H 35.800 C 35.745 49.400 35.700 49.445 35.700 49.500 V 52.400 C 35.700 52.500 35.800 52.400 35.700 52.400 H 29.900 C 29.800 52.400 29.900 52.500 29.900 52.400 V 49.500 C 29.900 49.445 29.855 49.400 29.800 49.400 H 21.800 H 18.800 C 18.745 49.400 18.700 49.445 18.700 49.500 V 52.500 V 54.000 C 18.700 54.055 18.745 54.100 18.800 54.100 H 21.700 C 21.800 54.100 21.700 54.000 21.700 54.100 V 56.900 C 21.700 57.000 21.800 56.900 21.700 56.900 H 18.800 C 18.745 56.900 18.700 56.945 18.700 57.000 V 58.500 C 18.700 58.555 18.745 58.600 18.800 58.600 H 21.700 C 21.800 58.600 21.700 58.500 21.700 58.600 V 64.500 V 67.500 C 21.700 67.555 21.745 67.600 21.800 67.600 Z" stroke="rgb(0,0,0)" stroke-width="0.20" />
</g>
<g id="p-5" style="fill:none;stroke-linecap:round;stroke-linejoin:round;">
  <path d="M 21.800 47.900 H 29.800 C 29.855 47.900 29.900 47.855 29.900 47.800 V 44.900 C 29.900 44.800 29.800 44.900 29.900 44.900 H 35.700 C 35.800 44.900 35.700 44.800 35.700 44.900 V 47.800 C 35.700 47.855 35.745 47.900 35.800 47.900 H 41.800 C 41.855 47.900 41.900 47.855 41.900 47.800 V 44.900 C 41.900 44.800 41.800 44.900 41.900 44.900 H 47.700 C 47.800 44.900 47.700 44.800 47.700 44.900 V 47.800 C 47.700 47.855 47.745 47.900 47.800 47.900 H 53.800 C 53.855 47.900 53.900 47.855 53.900 47.800 V 44.900 C 53.900 44.800 53.800 44.900 53.900 44.900 H 59.700 C 59.800 44.900 59.700 44.800 59.700 44.900 V 47.800 C 59.700 47.855 59.745 47.900 59.800 47.900 H 65.800 C 65.855 47.900 65.900 47.855 65.900 47.800 V 44.900 C 65.900 44.800 65.800 44.900 65.900 44.900 H 71.700 C 71.800 44.900 71.700 44.800 71.700 44.900 V 47.800 C 71.700 47.855 71.745 47.900 71.800 47.900 H 77.800 C 77.855 47.900 77.900 47.855 77.900 47.800 V 44.900 C 77.900 44.800 77.800 44.900 77.900 44.900 H 83.700 C 83.800 44.900 83.700 44.800 83.700 44.900 V 47.800 C 83.700 47.855 83.745 47.900 83.800 47.900 H 89.800 C 89.855 47.900 89.900 47.855 89.900 47.800 V 44.900 C 89.900 44.800 89.800 44.900 89.900 44.900 H 95.700 C 95.800 44.900 95.700 44.800 95.700 44.900 V 47.800 C 95.700 47.855 95.745 47.900 95.800 47.900 H 101.800 C 101.855 47.900 101.900 47.855 101.900 47.800 V 44.900 C 101.900 44.800 101.800 44.900 101.900 44.900 H 107.700 C 107.800 44.900 107.700 44.800 107.700 44.900 V 47.800 C 107.700 47.855 107.745 47.900 107.800 47.900 H 115.800 H 118.800 C 118.855 47.900 118.900 47.855 118.900 47.800 V 41.800 C 118.900 41.745 118.855 41.700 118.800 41.700 H 115.900 C 115.800 41.700 115.900 41.800 115.900 41.700 V 35.900 C 115.900 35.800 115.800 35.900 115.900 35.900 H 118.800 C 118.855 35.900 118.900 35.855 118.900 35.800 V 29.800 C 118.900 29.745 118.855 29.700 118.800 29.700 H 115.800 H 107.800 C 107.745 29.700 107.700 29.745 107.700 29.800 V 32.700 C 107.700 32.800 107.800 32.700 107.700 32.700 H 101.900 C 101.800 32.700 101.900 32.800 101.900 32.700 V 29.800 C 101.900 29.745 101.855 29.700 101.800 29.700 H 95.800 C 95.745 29.700 95.700 29.745 95.700 29.800 V 32.700 C 95.700 32.800 95.800 32.700 95.700 32.700 H 89.900 C 89.800 32.700 89.900 32.800 89.900 32.700 V 29.800 C 89.900 29.745 89.855 29.700 89.800 29.700 H 83.800 C 83.745 29.700 83.700 29.745 83.700 29.800 V 32.700 C 83.700 32.800 83.800 32.700 83.700 32.700 H 77.900 C 77.800 32.700 77.900 32.800 77.900 32.700 V 29.800 C 77.900 29.745 77.855 29.700 77.800 29.700 H 71.800 C 71.745 29.700 71.700 29.745 71.700 29.800 V 32.700 C 71.700 32.800 71.800 32.700 71.700 32.700 H 65.900 C 65.800 32.700 65.900 32.800 65.900 32.700 V 29.800 C 65.900 29.745 65.855 29.700 65.800 29.700 H 59.800 C 59.745 29.700 59.700 29.745 59.700 29.800 V 32.700 C 59.700 32.800 59.800 32.700 59.700 32.700 H 53.900 C 53.800 32.700 53.900 32.800 53.900 32.700 V 29.800 C 53.900 29.745 53.855 29.700 53.800 29.700 H 47.800 C 47.745 29.700 47.700 29.745 47.700 29.800 V 32.700 C 47.700 32.800 47.800 32.700 47.700 32.700 H 41.900 C 41.800 32.700 41.900 32.800 41.900 32.700 V 29.800 C 41.900 29.745 41.855 29.700 41.800 29.700 H 35.800 C 35.745 29.700 35.700 29.745 35.700 29.800 V 32.700 C 35.700 32.800 35.800 32.700 35.700 32.700 H 29.900 C 29.800 32.700 29.900 32.800 29.900 32.700 V 29.800 C 29.900 29.745 29.855 29.700 29.800 29.700 H 21.800 H 18.800 C 18.745 29.700 18.700 29.745 18.700 29.800 V 35.800 C 18.700 35.855 18.745 35.900 18.800 35.900 H 21.700 C 21.800 35.900 21.700 35.800 21.700 35.900 V 41.700 C 21.700 41.800 21.800 41.700 21.700 41.700 H 18.800 C 18.745 41.700 18.700 41.745 18.700 41.800 V 47.800 C 18.700 47.855 18.745 47.900 18.800 47.900 H 21.800 Z" stroke="rgb(0,0,0)" stroke-width="0.20" />
</g>
<g id="p-6" style="fill:none;stroke-linecap:round;stroke-linejoin:round;">
  <path d="M 21.800 28.200 H 29.800 C 29.855 28.200 29.900 28.155 29.900 28.100 V 25.200 C 29.900 25.100 29.800 25.200 29.900 25.200 H 35.700 C 35.800 25.200 35.700 25.100 35.700 25.200 V 28.100 C 35.700 28.155 35.745 28.200 35.800 28.200 H 41.800 C 41.855 28.200 41.900 28.155 41.900 28.100 V 25.200 C 41.900 25.100 41.800 25.200 41.900 25.200 H 47.700 C 47.800 25.200 47.700 25.100 47.700 25.200 V 28.100 C 47.700 28.155 47.745 28.200 47.800 28.200 H 53.800 C 53.855 28.200 53.900 28.155 53.900 28.100 V 25.200 C 53.900 25.100 53.800 25.200 53.900 25.200 H 59.700 C 59.800 25.200 59.700 25.100 59.700 25.200 V 28.100 C 59.700 28.155 59.745 28.200 59.800 28.200 H 65.800 C 65.855 28.200 65.900 28.155 65.900 28.100 V 25.200 C 65.900 25.100 65.800 25.200 65.900 25.200 H 71.700 C 71.800 25.200 71.700 25.100 71.700 25.200 V 28.100 C 71.700 28.155 71.745 28.200 71.800 28.200 H 77.800 C 77.855 28.200 77.900 28.155 77.900 28.100 V 25.200 C 77.900 25.100 77.800 25.200 77.900 25.200 H 83.700 C 83.800 25.200 83.700 25.100 83.700 25.200 V 28.100 C 83.700 28.155 83.745 28.200 83.800 28.200 H 89.800 C 89.855 28.200 89.900 28.155 89.900 28.100 V 25.200 C 89.900 25.100 89.800 25.200 89.900 25.200 H 95.700 C 95.800 25.200 95.700 25.100 95.700 25.200 V 28.100 C 95.700 28.155 95.745 28.200 95.800 28.200 H 101.800 C 101.855 28.200 101.900 28.155 101.900 28.100 V 25.200 C 101.900 25.100 101.800 25.200 101.900 25.200 H 107.700 C 107.800 25.200 107.700 25.100 107.700 25.200 V 28.100 C 107.700 28.155 107.745 28.200 107.800 28.200 H 115.800 H 118.800 C 118.855 28.200 118.900 28.155 118.900 28.100 V 25.100 V 23.675 C 118.900 23.620 118.855 23.575 118.800 23.575 H 115.900 C 115.800 23.575 115.900 23.675 115.900 23.575 V 20.925 C 115.900 20.825 115.800 20.925 115.900 20.925 H 118.800 C 118.855 20.925 118.900 20.880 118.900 20.825 V 19.400 C 118.900 19.345 118.855 19.300 118.800 19.300 H 115.900 C 115.800 19.300 115.900 19.400 115.900 19.300 V 14.990 C 115.900 14.890 115.800 14.990 115.900 14.990 H 118.800 C 118.855 14.990 118.900 14.945 118.900 14.890 V 10.400 C 118.900 10.345 118.855 10.300 118.800 10.300 H 115.800 H 107.800 C 107.745 10.300 107.700 10.345 107.700 10.400 V 13.300 C 107.700 13.400 107.800 13.300 107.700 13.300 H 101.900 C 101.800 13.300 101.900 13.400 101.900 13.300 V 10.400 C 101.900 10.345 101.855 10.300 101.800 10.300 H 95.800 C 95.745 10.300 95.700 10.345 95.700 10.400 V 13.300 C 95.700 13.400 95.800 13.300 95.700 13.300 H 89.900 C 89.800 13.300 89.900 13.400 89.900 13.300 V 10.400 C 89.900 10.345 89.855 10.300 89.800 10.300 H 83.800 C 83.745 10.300 83.700 10.345 83.700 10.400 V 13.300 C 83.700 13.400 83.800 13.300 83.700 13.300 H 77.900 C 77.800 13.300 77.900 13.400 77.900 13.300 V 10.400 C 77.900 10.345 77.855 10.300 77.800 10.300 H 71.800 C 71.745 10.300 71.700 10.345 71.700 10.400 V 13.300 C 71.700 13.400 71.800 13.300 71.700 13.300 H 65.900 C 65.800 13.300 65.900 13.400 65.900 13.300 V 10.400 C 65.900 10.345 65.855 10.300 65.800 10.300 H 59.800 C 59.745 10.300 59.700 10.345 59.700 10.400 V 13.300 C 59.700 13.400 59.800 13.300 59.700 13.300 H 53.900 C 53.800 13.300 53.900 13.400 53.900 13.300 V 10.400 C 53.900 10.345 53.855 10.300 53.800 10.300 H 47.800 C 47.745 10.300 47.700 10.345 47.700 10.400 V 13.300 C 47.700 13.400 47.800 13.300 47.700 13.300 H 41.900 C 41.800 13.300 41.900 13.400 41.900 13.300 V 10.400 C 41.900 10.345 41.855 10.300 41.800 10.300 H 35.800 C 35.745 10.300 35.700 10.345 35.700 10.400 V 13.300 C 35.700 13.400 35.800 13.300 35.700 13.300 H 29.900 C 29.800 13.300 29.900 13.400 29.900 13.300 V 10.400 C 29.900 10.345 29.855 10.300 29.800 10.300 H 21.800 H 18.800 C 18.745 10.300 18.700 10.345 18.700 10.400 V 14.890 C 18.700 14.945 18.745 14.990 18.800 14.990 H 21.700 C 21.800 14.990 21.700 14.890 21.700 14.990 V 19.300 C 21.700 19.400 21.800 19.300 21.700 19.300 H 18.800 C 18.745 19.300 18.700 19.345 18.700 19.400 V 20.825 C 18.700 20.880 18.745 20.925 18.800 20.925 H 21.700 C 21.800 20.925 21.700 20.825 21.700 20.925 V 23.575 C 21.700 23.675 21.800 23.575 21.700 23.575 H 18.800 C 18.745 23.575 18.700 23.620 18.700 23.675 V 25.100 V 28.100 C 18.700 28.155 18.745 28.200 18.800 28.200 H 21.800 Z" stroke="rgb(0,0,0)" stroke-width="0.20" />
</g>
<g id="p-7" style="fill:none;stroke-linecap:round;stroke-linejoin:round;">
  <path d="M 123.500 287.700 H 131.400 C 131.500 287.700 131.400 287.600 131.400 287.700 V 290.600 C 131.400 290.655 131.445 290.700 131.500 290.700 H 137.500 C 137.555 290.700 137.600 290.655 137.600 290.600 V 287.700 C 137.600 287.600 137.500 287.700 137.600 287.700 H 143.400 C 143.500 287.700 143.400 287.600 143.400 287.700 V 290.600 C 143.400 290.655 143.445 290.700 143.500 290.700 H 149.500 C 149.555 290.700 149.600 290.655 149.600 290.600 V 287.700 C 149.600 287.600 149.500 287.700 149.600 287.700 H 155.400 C 155.500 287.700 155.400 287.600 155.400 287.700 V 290.600 C 155.400 290.655 155.445 290.700 155.500 290.700 H 161.500 C 161.555 290.700 161.600 290.655 161.600 290.600 V 287.700 C 161.600 287.600 161.500 287.700 161.600 287.700 H 167.400 C 167.500 287.700 167.400 287.600 167.400 287.700 V 290.600 C 167.400 290.655 167.445 290.700 167.500 290.700 H 173.500 C 173.555 290.700 173.600 290.655 173.600 290.600 V 287.700 C 173.600 287.600 173.500 287.700 173.600 287.700 H 179.400 C 179.500 287.700 179.400 287.600 179.400 287.700 V 290.600 C 179.400 290.655 179.445 290.700 179.500 290.700 H 185.500 C 185.555 290.700 185.600 290.655 185.600 290.600 V 287.700 C 185.600 287.600 185.500 287.700 185.600 287.700 H 191.400 C 191.500 287.700 191.400 287.600 191.400 287.700 V 290.600 C 191.400 290.655 191.445 290.700 191.500 290.700 H 197.500 C 197.555 290.700 197.600 290.655 197.600 290.600 V 287.700 C 197.600 287.600 197.500 287.700 197.600 287.700 H 203.400 C 203.500 287.700 203.400 287.600 203.400 287.700 V 290.600 C 203.400 290.655 203.445 290.700 203.500 290.700 H 209.500 C 209.555 290.700 209.600 290.655 209.600 290.600 V 287.700 C 209.600 287.600 209.500 287.700 209.600 287.700 H 217.500 C 217.555 287.700 217.600 287.655 217.600 287.600 V 279.700 C 217.600 279.600 217.500 279.700 217.600 279.700 H 220.500 C 220.555 279.700 220.600 279.655 220.600 279.600 V 273.600 C 220.600 273.545 220.555 273.500 220.500 273.500 H 217.600 C 217.500 273.500 217.600 273.600 217.600 273.500 V 267.700 C 217.600 267.600 217.500 267.700 217.600 267.700 H 220.500 C 220.555 267.700 220.600 267.655 220.600 267.600 V 261.600 C 220.600 261.545 220.555 261.500 220.500 261.500 H 217.600 C 217.500 261.500 217.600 261.600 217.600 261.500 V 255.700 C 217.600 255.600 217.500 255.700 217.600 255.700 H 220.500 C 220.555 255.700 220.600 255.655 220.600 255.600 V 249.600 C 220.600 249.545 220.555 249.500 220.500 249.500 H 217.600 C 217.500 249.500 217.600 249.600 217.600 249.500 V 243.700 C 217.600 243.600 217.500 243.700 217.600 243.700 H 220.500 C 220.555 243.700 220.600 243.655 220.600 243.600 V 237.600 C 220.600 237.545 220.555 237.500 220.500 237.500 H 217.600 C 217.500 237.500 217.600 237.600 217.600 237.500 V 231.700 C 217.600 231.600 217.500 231.700 217.600 231.700 H 220.500 C 220.555 231.700 220.600 231.655 220.600 231.600 V 225.600 C 220.600 225.545 220.555 225.500 220.500 225.500 H 217.600 C 217.500 225.500 217.600 225.600 217.600 225.500 V 219.700 C 217.600 219.600 217.500 219.700 217.600 219.700 H 220.500 C 220.555 219.700 220.600 219.655 220.600 219.600 V 213.600 C 220.600 213.545 220.555 213.500 220.500 213.500 H 217.600 C 217.500 213.500 217.600 213.600 217.600 213.500 V 207.700 C 217.600 207.600 217.500 207.700 217.600 207.700 H 220.500 C 220.555 207.700 220.600 207.655 220.600 207.600 V 201.600 C 220.600 201.545 220.555 201.500 220.500 201.500 H 217.600 C 217.500 201.500 217.600 201.600 217.600 201.500 V 193.600 C 217.600 193.545 217.555 193.500 217.500 193.500 H 209.600 C 209.500 193.500 209.600 193.600 209.600 193.500 V 190.600 C 209.600 190.545 209.555 190.500 209.500 190.500 H 203.500 C 203.445 190.500 203.400 190.545 203.400 190.600 V 193.500 C 203.400 193.600 203.500 193.500 203.400 193.500 H 197.600 C 197.500 193.500 197.600 193.600 197.600 193.500 V 190.600 C 197.600 190.545 197.555 190.500 197.500 190.500 H 191.500 C 191.445 190.500 191.400 190.545 191.400 190.600 V 193.500 C 191.400 193.600 191.500 193.500 191.400 193.500 H 185.600 C 185.500 193.500 185.600 193.600 185.600 193.500 V 190.600 C 185.600 190.545 185.555 190.500 185.500 190.500 H 179.500 C 179.445 190.500 179.400 190.545 179.400 190.600 V 193.500 C 179.400 193.600 179.500 193.500 179.400 193.500 H 173.600 C 173.500 193.500 173.600 193.600 173.600 193.500 V 190.600 C 173.600 190.545 173.555 190.500 173.500 190.500 H 167.500 C 167.445 190.500 167.400 190.545 167.400 190.600 V 193.500 C 167.400 193.600 167.500 193.500 167.400 193.500 H 161.600 C 161.500 193.500 161.600 193.600 161.600 193.500 V 190.600 C 161.600 190.545 161.555 190.500 161.500 190.500 H 155.500 C 155.445 190.500 155.400 190.545 155.400 190.600 V 193.500 C 155.400 193.600 155.500 193.500 155.400 193.500 H 149.600 C 149.500 193.500 149.600 193.600 149.600 193.500 V 190.600 C 149.600 190.545 149.555 190.500 149.500 190.500 H 143.500 C 143.445 190.500 143.400 190.545 143.400 190.600 V 193.500 C 143.400 193.600 143.500 193.500 143.400 193.500 H 137.600 C 137.500 193.500 137.600 193.600 137.600 193.500 V 190.600 C 137.600 190.545 137.555 190.500 137.500 190.500 H 131.500 C 131.445 190.500 131.400 190.545 131.400 190.600 V 193.500 C 131.400 193.600 131.500 193.500 131.400 193.500 H 123.500 C 123.445 193.500 123.400 193.545 123.400 193.600 V 201.500 C 123.400 201.600 123.500 201.500 123.400 201.500 H 120.500 C 120.445 201.500 120.400 201.545 120.400 201.600 V 207.600 C 120.400 207.655 120.445 207.700 120.500 207.700 H 123.400 C 123.500 207.700 123.400 207.600 123.400 207.700 V 213.500 C 123.400 213.600 123.500 213.500 123.400 213.500 H 120.500 C 120.445 213.500 120.400 213.545 120.400 213.600 V 219.600 C 120.400 219.655 120.445 219.700 120.500 219.700 H 123.400 C 123.500 219.700 123.400 219.600 123.400 219.700 V 225.500 C 123.400 225.600 123.500 225.500 123.400 225.500 H 120.500 C 120.445 225.500 120.400 225.545 120.400 225.600 V 231.600 C 120.400 231.655 120.445 231.700 120.500 231.700 H 123.400 C 123.500 231.700 123.400 231.600 123.400 231.700 V 237.500 C 123.400 237.600 123.500 237.500 123.400 237.500 H 120.500 C 120.445 237.500 120.400 237.545 120.400 237.600 V 243.600 C 120.400 243.655 120.445 243.700 120.500 243.700 H 123.400 C 123.500 243.700 123.400 243.600 123.400 243.700 V 249.500 C 123.400 249.600 123.500 249.500 123.400 249.500 H 120.500 C 120.445 249.500 120.400 249.545 120.400 249.600 V 255.600 C 120.400 255.655 120.445 255.700 120.500 255.700 H 123.400 C 123.500 255.700 123.400 255.600 123.400 255.700 V 261.500 C 123.400 261.600 123.500 261.500 123.400 261.500 H 120.500 C 120.445 261.500 120.400 261.545 120.400 261.600 V 267.600 C 120.400 267.655 120.445 267.700 120.500 267.700 H 123.400 C 123.500 267.700 123.400 267.600 123.400 267.700 V 273.500 C 123.400 273.600 123.500 273.500 123.400 273.500 H 120.500 C 120.445 273.500 120.400 273.545 120.400 273.600 V 279.600 C 120.400 279.655 120.445 279.700 120.500 279.700 H 123.400 C 123.500 279.700 123.400 279.600 123.400 279.700 V 287.600 C 123.400 287.655 123.445 287.700 123.500 287.700 Z" stroke="rgb(0,0,0)" stroke-width="0.20" />
</g>
<g id="p-8" style="fill:none;stroke-linecap:round;stroke-linejoin:round;">
  <path d="M 123.500 186.000 H 131.400 C 131.500 186.000 131.400 185.900 131.400 186.000 V 188.900 C 131.400 188.955 131.445 189.000 131.500 189.000 H 137.500 C 137.555 189.000 137.600 188.955 137.600 188.900 V 186.000 C 137.600 185.900 137.500 186.000 137.600 186.000 H 143.400 C 143.500 186.000 143.400 185.900 143.400 186.000 V 188.900 C 143.400 188.955 143.445 189.000 143.500 189.000 H 149.500 C 149.555 189.000 149.600 188.955 149.600 188.900 V 186.000 C 149.600 185.900 149.500 186.000 149.600 186.000 H 155.400 C 155.500 186.000 155.400 185.900 155.400 186.000 V 188.900 C 155.400 188.955 155.445 189.000 155.500 189.000 H 161.500 C 161.555 189.000 161.600 188.955 161.600 188.900 V 186.000 C 161.600 185.900 161.500 186.000 161.600 186.000 H 167.400 C 167.500 186.000 167.400 185.900 167.400 186.000 V 188.900 C 167.400 188.955 167.445 189.000 167.500 189.000 H 173.500 C 173.555 189.000 173.600 188.955 173.600 188.900 V 186.000 C 173.600 185.900 173.500 186.000 173.600 186.000 H 179.400 C 179.500 186.000 179.400 185.900 179.400 186.000 V 188.900 C 179.400 188.955 179.445 189.000 179.500 189.000 H 185.500 C 185.555 189.000 185.600 188.955 185.600 188.900 V 186.000 C 185.600 185.900 185.500 186.000 185.600 186.000 H 191.400 C 191.500 186.000 191.400 185.900 191.400 186.000 V 188.900 C 191.400 188.955 191.445 189.000 191.500 189.000 H 197.500 C 197.555 189.000 197.600 188.955 197.600 188.900 V 186.000 C 197.600 185.900 197.500 186.000 197.600 186.000 H 203.400 C 203.500 186.000 203.400 185.900 203.400 186.000 V 188.900 C 203.400 188.955 203.445 189.000 203.500 189.000 H 209.500 C 209.555 189.000 209.600 188.955 209.600 188.900 V 186.000 C 209.600 185.900 209.500 186.000 209.600 186.000 H 217.500 C 217.555 186.000 217.600 185.955 217.600 185.900 V 178.000 C 217.600 177.900 217.500 178.000 217.600 178.000 H 220.500 C 220.555 178.000 220.600 177.955 220.600 177.900 V 171.900 C 220.600 171.845 220.555 171.800 220.500 171.800 H 217.600 C 217.500 171.800 217.600 171.900 217.600 171.800 V 166.000 C 217.600 165.900 217.500 166.000 217.600 166.000 H 220.500 C 220.555 166.000 220.600 165.955 220.600 165.900 V 159.900 C 220.600 159.845 220.555 159.800 220.500 159.800 H 217.600 C 217.500 159.800 217.600 159.900 217.600 159.800 V 154.000 C 217.600 153.900 217.500 154.000 217.600 154.000 H 220.500 C 220.555 154.000 220.600 153.955 220.600 153.900 V 147.900 C 220.600 147.845 220.555 147.800 220.500 147.800 H 217.600 C 217.500 147.800 217.600 147.900 217.600 147.800 V 142.000 C 217.600 141.900 217.500 142.000 217.600 142.000 H 220.500 C 220.555 142.000 220.600 141.955 220.600 141.900 V 135.900 C 220.600 135.845 220.555 135.800 220.500 135.800 H 217.600 C 217.500 135.800 217.600 135.900 217.600 135.800 V 130.000 C 217.600 129.900 217.500 130.000 217.600 130.000 H 220.500 C 220.555 130.000 220.600 129.955 220.600 129.900 V 123.900 C 220.600 123.845 220.555 123.800 220.500 123.800 H 217.600 C 217.500 123.800 217.600 123.900 217.600 123.800 V 118.000 C 217.600 117.900 217.500 118.000 217.600 118.000 H 220.500 C 220.555 118.000 220.600 117.955 220.600 117.900 V 111.900 C 220.600 111.845 220.555 111.800 220.500 111.800 H 217.600 C 217.500 111.800 217.600 111.900 217.600 111.800 V 106.000 C 217.600 105.900 217.500 106.000 217.600 106.000 H 220.500 C 220.555 106.000 220.600 105.955 220.600 105.900 V 99.900 C 220.600 99.845 220.555 99.800 220.500 99.800 H 217.600 C 217.500 99.800 217.600 99.900 217.600 99.800 V 91.900 C 217.600 91.845 217.555 91.800 217.500 91.800 H 209.600 C 209.500 91.800 209.600 91.900 209.600 91.800 V 88.900 C 209.600 88.845 209.555 88.800 209.500 88.800 H 203.500 C 203.445 88.800 203.400 88.845 203.400 88.900 V 91.800 C 203.400 91.900 203.500 91.800 203.400 91.800 H 197.600 C 197.500 91.800 197.600 91.900 197.600 91.800 V 88.900 C 197.600 88.845 197.555 88.800 197.500 88.800 H 191.500 C 191.445 88.800 191.400 88.845 191.400 88.900 V 91.800 C 191.400 91.900 191.500 91.800 191.400 91.800 H 185.600 C 185.500 91.800 185.600 91.900 185.600 91.800 V 88.900 C 185.600 88.845 185.555 88.800 185.500 88.800 H 179.500 C 179.445 88.800 179.400 88.845 179.400 88.900 V 91.800 C 179.400 91.900 179.500 91.800 179.400 91.800 H 173.600 C 173.500 91.800 173.600 91.900 173.600 91.800 V 88.900 C 173.600 88.845 173.555 88.800 173.500 88.800 H 167.500 C 167.445 88.800 167.400 88.845 167.400 88.900 V 91.800 C 167.400 91.900 167.500 91.800 167.400 91.800 H 161.600 C 161.500 91.800 161.600 91.900 161.600 91.800 V 88.900 C 161.600 88.845 161.555 88.800 161.500 88.800 H 155.500 C 155.445 88.800 155.400 88.845 155.400 88.900 V 91.800 C 155.400 91.900 155.500 91.800 155.400 91.800 H 149.600 C 149.500 91.800 149.600 91.900 149.600 91.800 V 88.900 C 149.600 88.845 149.555 88.800 149.500 88.800 H 143.500 C 143.445 88.800 143.400 88.845 143.400 88.900 V 91.800 C 143.400 91.900 143.500 91.800 143.400 91.800 H 137.600 C 137.500 91.800 137.600 91.900 137.600 91.800 V 88.900 C 137.600 88.845 137.555 88.800 137.500 88.800 H 131.500 C 131.445 88.800 131.400 88.845 131.400 88.900 V 91.800 C 131.400 91.900 131.500 91.800 131.400 91.800 H 123.500 C 123.445 91.800 123.400 91.845 123.400 91.900 V 99.800 C 123.400 99.900 123.500 99.800 123.400 99.800 H 120.500 C 120.445 99.800 120.400 99.845 120.400 99.900 V 105.900 C 120.400 105.955 120.445 106.000 120.500 106.000 H 123.400 C 123.500 106.000 123.400 105.900 123.400 106.000 V 111.800 C 123.400 111.900 123.500 111.800 123.400 111.800 H 120.500 C 120.445 111.800 120.400 111.845 120.400 111.900 V 117.900 C 120.400 117.955 120.445 118.000 120.500 118.000 H 123.400 C 123.500 118.000 123.400 117.900 123.400 118.000 V 123.800 C 123.400 123.900 123.500 123.800 123.400 123.800 H 120.500 C 120.445 123.800 120.400 123.845 120.400 123.900 V 129.900 C 120.400 129.955 120.445 130.000 120.500 130.000 H 123.400 C 123.500 130.000 123.400 129.900 123.400 130.000 V 135.800 C 123.400 135.900 123.500 135.800 123.400 135.800 H 120.500 C 120.445 135.800 120.400 135.845 120.400 135.900 V 141.900 C 120.400 141.955 120.445 142.000 120.500 142.000 H 123.400 C 123.500 142.000 123.400 141.900 123.400 142.000 V 147.800 C 123.400 147.900 123.500 147.800 123.400 147.800 H 120.500 C 120.445 147.800 120.400 147.845 120.400 147.900 V 153.900 C 120.400 153.955 120.445 154.000 120.500 154.000 H 123.400 C 123.500 154.000 123.400 153.900 123.400 154.000 V 159.800 C 123.400 159.900 123.500 159.800 123.400 159.800 H 120.500 C 120.445 159.800 120.400 159.845 120.400 159.900 V 165.900 C 120.400 165.955 120.445 166.000 120.500 166.000 H 123.400 C 123.500 166.000 123.400 165.900 123.400 166.000 V 171.800 C 123.400 171.900 123.500 171.800 123.400 171.800 H 120.500 C 120.445 171.800 120.400 171.845 120.400 171.900 V 177.900 C 120.400 177.955 120.445 178.000 120.500 178.000 H 123.400 C 123.500 178.000 123.400 177.900 123.400 178.000 V 185.900 C 123.400 185.955 123.445 186.000 123.500 186.000 Z" stroke="rgb(0,0,0)" stroke-width="0.20" />
</g>
<g id="p-9" style="fill:none;stroke-linecap:round;stroke-linejoin:round;">
  <path d="M 123.500 87.300 H 131.500 C 131.555 87.300 131.600 87.255 131.600 87.200 V 84.300 C 131.600 84.200 131.500 84.300 131.600 84.300 H 137.400 C 137.500 84.300 137.400 84.200 137.400 84.300 V 87.200 C 137.400 87.255 137.445 87.300 137.500 87.300 H 143.500 C 143.555 87.300 143.600 87.255 143.600 87.200 V 84.300 C 143.600 84.200 143.500 84.300 143.600 84.300 H 149.400 C 149.500 84.300 149.400 84.200 149.400 84.300 V 87.200 C 149.400 87.255 149.445 87.300 149.500 87.300 H 155.500 C 155.555 87.300 155.600 87.255 155.600 87.200 V 84.300 C 155.600 84.200 155.500 84.300 155.600 84.300 H 161.400 C 161.500 84.300 161.400 84.200 161.400 84.300 V 87.200 C 161.400 87.255 161.445 87.300 161.500 87.300 H 167.500 C 167.555 87.300 167.600 87.255 167.600 87.200 V 84.300 C 167.600 84.200 167.500 84.300 167.600 84.300 H 173.400 C 173.500 84.300 173.400 84.200 173.400 84.300 V 87.200 C 173.400 87.255 173.445 87.300 173.500 87.300 H 179.500 C 179.555 87.300 179.600 87.255 179.600 87.200 V 84.300 C 179.600 84.200 179.500 84.300 179.600 84.300 H 185.400 C 185.500 84.300 185.400 84.200 185.400 84.300 V 87.200 C 185.400 87.255 185.445 87.300 185.500 87.300 H 191.500 C 191.555 87.300 191.600 87.255 191.600 87.200 V 84.300 C 191.600 84.200 191.500 84.300 191.600 84.300 H 197.400 C 197.500 84.300 197.400 84.200 197.400 84.300 V 87.200 C 197.400 87.255 197.445 87.300 197.500 87.300 H 203.500 C 203.555 87.300 203.600 87.255 203.600 87.200 V 84.300 C 203.600 84.200 203.500 84.300 203.600 84.300 H 209.400 C 209.500 84.300 209.400 84.200 209.400 84.300 V 87.200 C 209.400 87.255 209.445 87.300 209.500 87.300 H 217.500 C 217.555 87.300 217.600 87.255 217.600 87.200 V 84.200 V 82.875 C 217.600 82.775 217.500 82.875 217.600 82.875 H 220.500 C 220.555 82.875 220.600 82.830 220.600 82.775 V 79.925 C 220.600 79.870 220.555 79.825 220.500 79.825 H 217.600 C 217.500 79.825 217.600 79.925 217.600 79.825 V 78.500 C 217.600 78.445 217.555 78.400 217.500 78.400 C 217.518 78.400 217.535 78.405 217.550 78.413 C 217.565 78.422 217.578 78.435 217.587 78.450 C 217.595 78.465 217.600 78.482 217.600 78.500 C 217.600 78.518 217.595 78.535 217.587 78.550 C 217.578 78.565 217.565 78.578 217.550 78.587 C 217.535 78.595 217.518 78.600 217.500 78.600 H 220.500 C 220.482 78.600 220.465 78.595 220.450 78.587 C 220.435 78.578 220.422 78.565 220.413 78.550 C 220.405 78.535 220.400 78.518 220.400 78.500 C 220.400 78.482 220.405 78.465 220.413 78.450 C 220.422 78.435 220.435 78.422 220.450 78.413 C 220.465 78.405 220.482 78.400 220.500 78.400 C 218.885 78.400 217.299 77.975 215.900 77.167 C 214.501 76.360 213.340 75.199 212.533 73.800 C 211.725 72.401 211.300 70.815 211.300 69.200 C 211.300 69.145 211.255 69.100 211.200 69.100 H 211.500 H 200.500 C 200.445 69.100 200.400 69.145 200.400 69.200 V 72.100 C 200.400 72.200 200.500 72.100 200.400 72.100 H 194.600 C 194.500 72.100 194.600 72.200 194.600 72.100 V 69.200 C 194.600 69.145 194.555 69.100 194.500 69.100 H 188.500 C 188.445 69.100 188.400 69.145 188.400 69.200 V 72.100 C 188.400 72.200 188.500 72.100 188.400 72.100 H 182.600 C 182.500 72.100 182.600 72.200 182.600 72.100 V 69.200 C 182.600 69.145 182.555 69.100 182.500 69.100 H 176.500 C 176.445 69.100 176.400 69.145 176.400 69.200 V 72.100 C 176.400 72.200 176.500 72.100 176.400 72.100 H 170.600 C 170.500 72.100 170.600 72.200 170.600 72.100 V 69.200 C 170.600 69.145 170.555 69.100 170.500 69.100 H 164.500 C 164.445 69.100 164.400 69.145 164.400 69.200 V 72.100 C 164.400 72.200 164.500 72.100 164.400 72.100 H 158.600 C 158.500 72.100 158.600 72.200 158.600 72.100 V 69.200 C 158.600 69.145 158.555 69.100 158.500 69.100 H 152.500 C 152.445 69.100 152.400 69.145 152.400 69.200 V 72.100 C 152.400 72.200 152.500 72.100 152.400 72.100 H 146.600 C 146.500 72.100 146.600 72.200 146.600 72.100 V 69.200 C 146.600 69.145 146.555 69.100 146.500 69.100 H 140.500 C 140.445 69.100 140.400 69.145 140.400 69.200 V 72.100 C 140.400 72.200 140.500 72.100 140.400 72.100 H 134.600 C 134.500 72.100 134.600 72.200 134.600 72.100 V 69.200 C 134.600 69.145 134.555 69.100 134.500 69.100 H 123.500 C 123.445 69.100 123.400 69.145 123.400 69.200 V 75.100 C 123.400 75.200 123.500 75.100 123.400 75.100 H 120.500 C 120.445 75.100 120.400 75.145 120.400 75.200 V 81.200 C 120.400 81.255 120.445 81.300 120.500 81.300 H 123.400 C 123.500 81.300 123.400 81.200 123.400 81.300 V 87.200 C 123.400 87.255 123.445 87.300 123.500 87.300 Z" stroke="rgb(0,0,0)" stroke-width="0.20" />
</g>
<g id="p-10" style="fill:none;stroke-linecap:round;stroke-linejoin:round;">
  <path d="M 226.400 67.600 C 226.400 68.731 226.075 69.838 225.463 70.790 C 224.852 71.741 223.980 72.497 222.951 72.967 C 221.922 73.437 220.780 73.601 219.660 73.440 C 218.541 73.279 217.491 72.800 216.636 72.059 C 215.782 71.318 215.158 70.347 214.839 69.262 C 214.520 68.177 214.520 67.023 214.839 65.938 C 215.158 64.853 215.782 63.882 216.636 63.141 C 217.491 62.400 218.541 61.921 219.660 61.760 C 220.780 61.599 221.922 61.763 222.951 62.233 C 223.980 62.703 224.852 63.459 225.463 64.410 C 226.075 65.362 226.400 66.469 226.400 67.600 Z" stroke="rgb(0,0,255)" stroke-width="0.20" />
  <path d="M 219.000 71.990 H 217.600 C 217.500 71.990 217.600 72.090 217.600 71.990 V 67.700 C 217.600 67.600 217.500 67.700 217.600 67.700 H 220.400 C 220.500 67.700 220.400 67.600 220.400 67.700 V 71.990 C 220.400 72.090 220.500 71.990 220.400 71.990 H 219.000 Z" stroke="rgb(0,0,255)" stroke-width="0.20" />
  <path d="M 123.500 67.600 H 134.500 C 134.555 67.600 134.600 67.555 134.600 67.500 V 64.600 C 134.600 64.500 134.500 64.600 134.600 64.600 H 140.400 C 140.500 64.600 140.400 64.500 140.400 64.600 V 67.500 C 140.400 67.555 140.445 67.600 140.500 67.600 H 146.500 C 146.555 67.600 146.600 67.555 146.600 67.500 V 64.600 C 146.600 64.500 146.500 64.600 146.600 64.600 H 152.400 C 152.500 64.600 152.400 64.500 152.400 64.600 V 67.500 C 152.400 67.555 152.445 67.600 152.500 67.600 H 158.500 C 158.555 67.600 158.600 67.555 158.600 67.500 V 64.600 C 158.600 64.500 158.500 64.600 158.600 64.600 H 164.400 C 164.500 64.600 164.400 64.500 164.400 64.600 V 67.500 C 164.400 67.555 164.445 67.600 164.500 67.600 H 170.500 C 170.555 67.600 170.600 67.555 170.600 67.500 V 64.600 C 170.600 64.500 170.500 64.600 170.600 64.600 H 176.400 C 176.500 64.600 176.400 64.500 176.400 64.600 V 67.500 C 176.400 67.555 176.445 67.600 176.500 67.600 H 182.500 C 182.555 67.600 182.600 67.555 182.600 67.500 V 64.600 C 182.600 64.500 182.500 64.600 182.600 64.600 H 188.400 C 188.500 64.600 188.400 64.500 188.400 64.600 V 67.500 C 188.400 67.555 188.445 67.600 188.500 67.600 H 194.500 C 194.555 67.600 194.600 67.555 194.600 67.500 V 64.600 C 194.600 64.500 194.500 64.600 194.600 64.600 H 200.400 C 200.500 64.600 200.400 64.500 200.400 64.600 V 67.500 C 200.400 67.555 200.445 67.600 200.500 67.600 H 211.500 C 211.445 67.600 211.400 67.555 211.400 67.500 C 211.400 69.300 211.934 71.059 212.934 72.556 C 213.934 74.052 215.355 75.219 217.018 75.907 C 218.680 76.596 220.510 76.776 222.275 76.425 C 224.041 76.074 225.662 75.207 226.935 73.935 C 228.207 72.662 229.074 71.041 229.425 69.275 C 229.776 67.510 229.596 65.680 228.907 64.018 C 228.219 62.355 227.052 60.934 225.556 59.934 C 224.059 58.934 222.300 58.400 220.500 58.400 H 217.500 C 217.518 58.400 217.535 58.405 217.550 58.413 C 217.565 58.422 217.578 58.435 217.587 58.450 C 217.595 58.465 217.600 58.482 217.600 58.500 C 217.600 58.518 217.595 58.535 217.587 58.550 C 217.578 58.565 217.565 58.578 217.550 58.587 C 217.535 58.595 217.518 58.600 217.500 58.600 C 217.555 58.600 217.600 58.555 217.600 58.500 V 57.100 C 217.600 57.000 217.500 57.100 217.600 57.100 H 220.500 C 220.555 57.100 220.600 57.055 220.600 57.000 V 54.000 C 220.600 53.945 220.555 53.900 220.500 53.900 H 217.600 C 217.500 53.900 217.600 54.000 217.600 53.900 V 52.500 V 49.500 C 217.600 49.445 217.555 49.400 217.500 49.400 H 209.500 C 209.445 49.400 209.400 49.445 209.400 49.500 V 52.400 C 209.400 52.500 209.500 52.400 209.400 52.400 H 203.600 C 203.500 52.400 203.600 52.500 203.600 52.400 V 49.500 C 203.600 49.445 203.555 49.400 203.500 49.400 H 197.500 C 197.445 49.400 197.400 49.445 197.400 49.500 V 52.400 C 197.400 52.500 197.500 52.400 197.400 52.400 H 191.600 C 191.500 52.400 191.600 52.500 191.600 52.400 V 49.500 C 191.600 49.445 191.555 49.400 191.500 49.400 H 185.500 C 185.445 49.400 185.400 49.445 185.400 49.500 V 52.400 C 185.400 52.500 185.500 52.400 185.400 52.400 H 179.600 C 179.500 52.400 179.600 52.500 179.600 52.400 V 49.500 C 179.600 49.445 179.555 49.400 179.500 49.400 H 173.500 C 173.445 49.400 173.400 49.445 173.400 49.500 V 52.400 C 173.400 52.500 173.500 52.400 173.400 52.400 H 167.600 C 167.500 52.400 167.600 52.500 167.600 52.400 V 49.500 C 167.600 49.445 167.555 49.400 167.500 49.400 H 161.500 C 161.445 49.400 161.400 49.445 161.400 49.500 V 52.400 C 161.400 52.500 161.500 52.400 161.400 52.400 H 155.600 C 155.500 52.400 155.600 52.500 155.600 52.400 V 49.500 C 155.600 49.445 155.555 49.400 155.500 49.400 H 149.500 C 149.445 49.400 149.400 49.445 149.400 49.500 V 52.400 C 149.400 52.500 149.500 52.400 149.400 52.400 H 143.600 C 143.500 52.400 143.600 52.500 143.600 52.400 V 49.500 C 143.600 49.445 143.555 49.400 143.500 49.400 H 137.500 C 137.445 49.400 137.400 49.445 137.400 49.500 V 52.400 C 137.400 52.500 137.500 52.400 137.400 52.400 H 131.600 C 131.500 52.400 131.600 52.500 131.600 52.400 V 49.500 C 131.600 49.445 131.555 49.400 131.500 49.400 H 123.500 C 123.445 49.400 123.400 49.445 123.400 49.500 V 55.400 C 123.400 55.500 123.500 55.400 123.400 55.400 H 120.500 C 120.445 55.400 120.400 55.445 120.400 55.500 V 61.500 C 120.400 61.555 120.445 61.600 120.500 61.600 H 123.400 C 123.500 61.600 123.400 61.500 123.400 61.600 V 67.500 C 123.400 67.555 123.445 67.600 123.500 67.600 Z" stroke="rgb(0,0,0)" stroke-width="0.20" />
</g>
<g id="p-11" style="fill:none;stroke-linecap:round;stroke-linejoin:round;">
  <path d="M 123.500 47.900 H 131.500 C 131.555 47.900 131.600 47.855 131.600 47.800 V 44.900 C 131.600 44.800 131.500 44.900 131.600 44.900 H 137.400 C 137.500 44.900 137.400 44.800 137.400 44.900 V 47.800 C 137.400 47.855 137.445 47.900 137.500 47.900 H 143.500 C 143.555 47.900 143.600 47.855 143.600 47.800 V 44.900 C 143.600 44.800 143.500 44.900 143.600 44.900 H 149.400 C 149.500 44.900 149.400 44.800 149.400 44.900 V 47.800 C 149.400 47.855 149.445 47.900 149.500 47.900 H 155.500 C 155.555 47.900 155.600 47.855 155.600 47.800 V 44.900 C 155.600 44.800 155.500 44.900 155.600 44.900 H 161.400 C 161.500 44.900 161.400 44.800 161.400 44.900 V 47.800 C 161.400 47.855 161.445 47.900 161.500 47.900 H 167.500 C 167.555 47.900 167.600 47.855 167.600 47.800 V 44.900 C 167.600 44.800 167.500 44.900 167.600 44.900 H 173.400 C 173.500 44.900 173.400 44.800 173.400 44.900 V 47.800 C 173.400 47.855 173.445 47.900 173.500 47.900 H 179.500 C 179.555 47.900 179.600 47.855 179.600 47.800 V 44.900 C 179.600 44.800 179.500 44.900 179.600 44.900 H 185.400 C 185.500 44.900 185.400 44.800 185.400 44.900 V 47.800 C 185.400 47.855 185.445 47.900 185.500 47.900 H 191.500 C 191.555 47.900 191.600 47.855 191.600 47.800 V 44.900 C 191.600 44.800 191.500 44.900 191.600 44.900 H 197.400 C 197.500 44.900 197.400 44.800 197.400 44.900 V 47.800 C 197.400 47.855 197.445 47.900 197.500 47.900 H 203.500 C 203.555 47.900 203.600 47.855 203.600 47.800 V 44.900 C 203.600 44.800 203.500 44.900 203.600 44.900 H 209.400 C 209.500 44.900 209.400 44.800 209.400 44.900 V 47.800 C 209.400 47.855 209.445 47.900 209.500 47.900 H 217.500 C 217.555 47.900 217.600 47.855 217.600 47.800 V 44.800 V 43.400 C 217.600 43.300 217.500 43.400 217.600 43.400 H 220.500 C 220.555 43.400 220.600 43.355 220.600 43.300 V 40.300 C 220.600 40.245 220.555 40.200 220.500 40.200 H 217.600 C 217.500 40.200 217.600 40.300 217.600 40.200 V 38.800 C 217.600 38.745 217.555 38.700 217.500 38.700 C 217.518 38.700 217.535 38.705 217.550 38.713 C 217.565 38.722 217.578 38.735 217.587 38.750 C 217.595 38.765 217.600 38.782 217.600 38.800 C 217.600 38.818 217.595 38.835 217.587 38.850 C 217.578 38.865 217.565 38.878 217.550 38.887 C 217.535 38.895 217.518 38.900 217.500 38.900 H 220.500 C 222.300 38.900 224.059 38.366 225.556 37.366 C 227.052 36.366 228.219 34.945 228.907 33.282 C 229.596 31.620 229.776 29.790 229.425 28.025 C 229.074 26.259 228.207 24.638 226.935 23.365 C 225.662 22.093 224.041 21.226 222.275 20.875 C 220.510 20.524 218.680 20.704 217.018 21.393 C 215.355 22.081 213.934 23.248 212.934 24.744 C 211.934 26.241 211.400 28.000 211.400 29.800 C 211.400 29.745 211.445 29.700 211.500 29.700 H 200.500 C 200.445 29.700 200.400 29.745 200.400 29.800 V 32.700 C 200.400 32.800 200.500 32.700 200.400 32.700 H 194.600 C 194.500 32.700 194.600 32.800 194.600 32.700 V 29.800 C 194.600 29.745 194.555 29.700 194.500 29.700 H 188.500 C 188.445 29.700 188.400 29.745 188.400 29.800 V 32.700 C 188.400 32.800 188.500 32.700 188.400 32.700 H 182.600 C 182.500 32.700 182.600 32.800 182.600 32.700 V 29.800 C 182.600 29.745 182.555 29.700 182.500 29.700 H 176.500 C 176.445 29.700 176.400 29.745 176.400 29.800 V 32.700 C 176.400 32.800 176.500 32.700 176.400 32.700 H 170.600 C 170.500 32.700 170.600 32.800 170.600 32.700 V 29.800 C 170.600 29.745 170.555 29.700 170.500 29.700 H 164.500 C 164.445 29.700 164.400 29.745 164.400 29.800 V 32.700 C 164.400 32.800 164.500 32.700 164.400 32.700 H 158.600 C 158.500 32.700 158.600 32.800 158.600 32.700 V 29.800 C 158.600 29.745 158.555 29.700 158.500 29.700 H 152.500 C 152.445 29.700 152.400 29.745 152.400 29.800 V 32.700 C 152.400 32.800 152.500 32.700 152.400 32.700 H 146.600 C 146.500 32.700 146.600 32.800 146.600 32.700 V 29.800 C 146.600 29.745 146.555 29.700 146.500 29.700 H 140.500 C 140.445 29.700 140.400 29.745 140.400 29.800 V 32.700 C 140.400 32.800 140.500 32.700 140.400 32.700 H 134.600 C 134.500 32.700 134.600 32.800 134.600 32.700 V 29.800 C 134.600 29.745 134.555 29.700 134.500 29.700 H 123.500 C 123.445 29.700 123.400 29.745 123.400 29.800 V 35.700 C 123.400 35.800 123.500 35.700 123.400 35.700 H 120.500 C 120.445 35.700 120.400 35.745 120.400 35.800 V 41.800 C 120.400 41.855 120.445 41.900 120.500 41.900 H 123.400 C 123.500 41.900 123.400 41.800 123.400 41.900 V 47.800 C 123.400 47.855 123.445 47.900 123.500 47.900 Z" stroke="rgb(0,0,0)" stroke-width="0.20" />
  <path d="M 214.600 29.700 C 214.600 28.569 214.925 27.462 215.537 26.510 C 216.148 25.559 217.020 24.803 218.049 24.333 C 219.078 23.863 220.220 23.699 221.340 23.860 C 222.459 24.021 223.509 24.500 224.364 25.241 C 225.218 25.982 225.842 26.953 226.161 28.038 C 226.480 29.123 226.480 30.277 226.161 31.362 C 225.842 32.447 225.218 33.418 224.364 34.159 C 223.509 34.900 222.459 35.379 221.340 35.540 C 220.220 35.701 219.078 35.537 218.049 35.067 C 217.020 34.597 216.148 33.841 215.537 32.890 C 214.925 31.938 214.600 30.831 214.600 29.700 Z" stroke="rgb(0,0,255)" stroke-width="0.20" />
  <path d="M 219.000 25.310 H 220.400 C 220.500 25.310 220.400 25.210 220.400 25.310 V 29.600 C 220.400 29.700 220.500 29.600 220.400 29.600 H 217.600 C 217.500 29.600 217.600 29.700 217.600 29.600 V 25.310 C 217.600 25.210 217.500 25.310 217.600 25.310 H 219.000 Z" stroke="rgb(0,0,255)" stroke-width="0.20" />
</g>
<g id="p-12" style="fill:none;stroke-linecap:round;stroke-linejoin:round;">
  <path d="M 123.500 28.200 H 134.500 C 134.555 28.200 134.600 28.155 134.600 28.100 V 25.200 C 134.600 25.100 134.500 25.200 134.600 25.200 H 140.400 C 140.500 25.200 140.400 25.100 140.400 25.200 V 28.100 C 140.400 28.155 140.445 28.200 140.500 28.200 H 146.500 C 146.555 28.200 146.600 28.155 146.600 28.100 V 25.200 C 146.600 25.100 146.500 25.200 146.600 25.200 H 152.400 C 152.500 25.200 152.400 25.100 152.400 25.200 V 28.100 C 152.400 28.155 152.445 28.200 152.500 28.200 H 158.500 C 158.555 28.200 158.600 28.155 158.600 28.100 V 25.200 C 158.600 25.100 158.500 25.200 158.600 25.200 H 164.400 C 164.500 25.200 164.400 25.100 164.400 25.200 V 28.100 C 164.400 28.155 164.445 28.200 164.500 28.200 H 170.500 C 170.555 28.200 170.600 28.155 170.600 28.100 V 25.200 C 170.600 25.100 170.500 25.200 170.600 25.200 H 176.400 C 176.500 25.200 176.400 25.100 176.400 25.200 V 28.100 C 176.400 28.155 176.445 28.200 176.500 28.200 H 182.500 C 182.555 28.200 182.600 28.155 182.600 28.100 V 25.200 C 182.600 25.100 182.500 25.200 182.600 25.200 H 188.400 C 188.500 25.200 188.400 25.100 188.400 25.200 V 28.100 C 188.400 28.155 188.445 28.200 188.500 28.200 H 194.500 C 194.555 28.200 194.600 28.155 194.600 28.100 V 25.200 C 194.600 25.100 194.500 25.200 194.600 25.200 H 200.400 C 200.500 25.200 200.400 25.100 200.400 25.200 V 28.100 C 200.400 28.155 200.445 28.200 200.500 28.200 H 211.500 H 211.200 C 211.255 28.200 211.300 28.155 211.300 28.100 C 211.300 26.485 211.725 24.899 212.533 23.500 C 213.340 22.101 214.501 20.940 215.900 20.133 C 217.299 19.325 218.885 18.900 220.500 18.900 C 220.482 18.900 220.465 18.895 220.450 18.887 C 220.435 18.878 220.422 18.865 220.413 18.850 C 220.405 18.835 220.400 18.818 220.400 18.800 C 220.400 18.782 220.405 18.765 220.413 18.750 C 220.422 18.735 220.435 18.722 220.450 18.713 C 220.465 18.705 220.482 18.700 220.500 18.700 H 217.500 C 217.518 18.700 217.535 18.705 217.550 18.713 C 217.565 18.722 217.578 18.735 217.587 18.750 C 217.595 18.765 217.600 18.782 217.600 18.800 C 217.600 18.818 217.595 18.835 217.587 18.850 C 217.578 18.865 217.565 18.878 217.550 18.887 C 217.535 18.895 217.518 18.900 217.500 18.900 C 217.555 18.900 217.600 18.855 217.600 18.800 V 17.475 C 217.600 17.375 217.500 17.475 217.600 17.475 H 220.500 C 220.555 17.475 220.600 17.430 220.600 17.375 V 14.525 C 220.600 14.470 220.555 14.425 220.500 14.425 H 217.600 C 217.500 14.425 217.600 14.525 217.600 14.425 V 13.100 V 10.100 C 217.600 10.045 217.555 10.000 217.500 10.000 H 209.500 C 209.445 10.000 209.400 10.045 209.400 10.100 V 13.000 C 209.400 13.100 209.500 13.000 209.400 13.000 H 203.600 C 203.500 13.000 203.600 13.100 203.600 13.000 V 10.100 C 203.600 10.045 203.555 10.000 203.500 10.000 H 197.500 C 197.445 10.000 197.400 10.045 197.400 10.100 V 13.000 C 197.400 13.100 197.500 13.000 197.400 13.000 H 191.600 C 191.500 13.000 191.600 13.100 191.600 13.000 V 10.100 C 191.600 10.045 191.555 10.000 191.500 10.000 H 185.500 C 185.445 10.000 185.400 10.045 185.400 10.100 V 13.000 C 185.400 13.100 185.500 13.000 185.400 13.000 H 179.600 C 179.500 13.000 179.600 13.100 179.600 13.000 V 10.100 C 179.600 10.045 179.555 10.000 179.500 10.000 H 173.500 C 173.445 10.000 173.400 10.045 173.400 10.100 V 13.000 C 173.400 13.100 173.500 13.000 173.400 13.000 H 167.600 C 167.500 13.000 167.600 13.100 167.600 13.000 V 10.100 C 167.600 10.045 167.555 10.000 167.500 10.000 H 161.500 C 161.445 10.000 161.400 10.045 161.400 10.100 V 13.000 C 161.400 13.100 161.500 13.000 161.400 13.000 H 155.600 C 155.500 13.000 155.600 13.100 155.600 13.000 V 10.100 C 155.600 10.045 155.555 10.000 155.500 10.000 H 149.500 C 149.445 10.000 149.400 10.045 149.400 10.100 V 13.000 C 149.400 13.100 149.500 13.000 149.400 13.000 H 143.600 C 143.500 13.000 143.600 13.100 143.600 13.000 V 10.100 C 143.600 10.045 143.555 10.000 143.500 10.000 H 137.500 C 137.445 10.000 137.400 10.045 137.400 10.100 V 13.000 C 137.400 13.100 137.500 13.000 137.400 13.000 H 131.600 C 131.500 13.000 131.600 13.100 131.600 13.000 V 10.100 C 131.600 10.045 131.555 10.000 131.500 10.000 H 123.500 C 123.445 10.000 123.400 10.045 123.400 10.100 V 16.000 C 123.400 16.100 123.500 16.000 123.400 16.000 H 120.500 C 120.445 16.000 120.400 16.045 120.400 16.100 V 22.100 C 120.400 22.155 120.445 22.200 120.500 22.200 H 123.400 C 123.500 22.200 123.400 22.100 123.400 22.200 V 28.100 C 123.400 28.155 123.445 28.200 123.500 28.200 Z" stroke="rgb(0,0,0)" stroke-width="0.20" />
</g>
</svg>