<?xml version='1.0' encoding='utf-8'?>
<svg height="237.90mm" viewBox="0.0 0.0 600.32 237.90" width="600.32mm" xmlns="http://www.w3.org/2000/svg" xmlns:cc="http://creativecommons.org/ns#" xmlns:dc="http://purl.org/dc/elements/1.1/" xmlns:inkscape="http://www.inkscape.org/namespaces/inkscape" xmlns:rdf="http://www.w3.org/1999/02/22-rdf-syntax-ns#" xmlns:svg="http://www.w3.org/2000/svg" xmlns:xlink="http://www.w3.org/1999/xlink">
<!--
DiscRack - A rack for storing disk-shaped objects vertically next to each other

Created with Boxes.py (https://festi.info/boxes.py)
Command line (remove spaces between dashes): boxes DiscRack
-->
<title>DiscRack</title>
<metadata>
<rdf:RDF><cc:Work>
<dc:title>Shelf - DiscRack</dc:title>
<dc:source>boxes DiscRack</dc:source>
<dc:description>A rack for storing disk-shaped objects vertically next to each other

Created with Boxes.py (https://festi.info/boxes.py)
Command line: boxes DiscRack
Command line short: boxes DiscRack
</dc:description>
</cc:Work></rdf:RDF></metadata>
<g id="p-0" style="fill:none;stroke-linecap:round;stroke-linejoin:round;">
  <path d="M 18.800 227.900 H 118.800 V 217.900 H 18.800 V 227.900 Z" stroke="rgb(0,0,0)" stroke-width="0.20" />
  <text dominant-baseline="hanging" font-size="8px" style="font-family: sans-serif ; font-weight: normal; font-style: normal; fill: rgb(255,0,0)" text-anchor="middle" transform="matrix( 1.000 0.000 0.000 1.000 68.800 218.900 )">100.00mm, burn:0.10mm</text>
</g>
<g id="p-1" style="fill:none;stroke-linecap:round;stroke-linejoin:round;">
  <path d="M 121.941 205.519 L 124.699 206.415 C 124.794 206.446 124.730 206.320 124.699 206.415 L 123.834 209.078 C 123.803 209.173 123.929 209.109 123.834 209.078 L 118.317 207.285 C 118.222 207.255 118.286 207.381 118.317 207.285 L 119.183 204.622 C 119.214 204.527 119.088 204.592 119.183 204.622 L 121.941 205.519 Z" stroke="rgb(0,0,255)" stroke-width="0.20" />
  <path d="M 110.528 201.810 L 113.286 202.707 C 113.381 202.737 113.317 202.611 113.286 202.707 L 112.421 205.370 C 112.390 205.465 112.516 205.400 112.421 205.370 L 106.905 203.577 C 106.810 203.546 106.874 203.672 106.905 203.577 L 107.770 200.914 C 107.801 200.819 107.675 200.883 107.770 200.914 L 110.528 201.810 Z" stroke="rgb(0,0,255)" stroke-width="0.20" />
  <path d="M 99.115 198.102 L 101.873 198.998 C 101.969 199.029 101.904 198.903 101.873 198.998 L 101.008 201.661 C 100.977 201.756 101.103 201.692 101.008 201.661 L 95.492 199.869 C 95.397 199.838 95.461 199.964 95.492 199.869 L 96.357 197.206 C 96.388 197.111 96.262 197.175 96.357 197.206 L 99.115 198.102 Z" stroke="rgb(0,0,255)" stroke-width="0.20" />
  <path d="M 87.703 194.394 L 90.461 195.290 C 90.556 195.321 90.492 195.195 90.461 195.290 L 89.595 197.953 C 89.565 198.048 89.691 197.984 89.595 197.953 L 84.079 196.161 C 83.984 196.130 84.048 196.256 84.079 196.161 L 84.945 193.498 C 84.976 193.403 84.849 193.467 84.945 193.498 L 87.703 194.394 Z" stroke="rgb(0,0,255)" stroke-width="0.20" />
  <path d="M 76.290 190.686 L 79.048 191.582 C 79.143 191.613 79.079 191.487 79.048 191.582 L 78.183 194.245 C 78.152 194.340 78.278 194.276 78.183 194.245 L 72.667 192.453 C 72.572 192.422 72.636 192.548 72.667 192.453 L 73.532 189.790 C 73.563 189.695 73.437 189.759 73.532 189.790 L 76.290 190.686 Z" stroke="rgb(0,0,255)" stroke-width="0.20" />
  <path d="M 64.877 186.978 L 67.635 187.874 C 67.730 187.905 67.666 187.779 67.635 187.874 L 66.770 190.537 C 66.739 190.632 66.865 190.568 66.770 190.537 L 61.254 188.744 C 61.159 188.713 61.223 188.839 61.254 188.744 L 62.119 186.081 C 62.150 185.986 62.024 186.051 62.119 186.081 L 64.877 186.978 Z" stroke="rgb(0,0,255)" stroke-width="0.20" />
  <path d="M 53.465 183.269 L 56.223 184.166 C 56.318 184.196 56.254 184.070 56.223 184.166 L 55.357 186.828 C 55.327 186.924 55.453 186.859 55.357 186.828 L 49.841 185.036 C 49.746 185.005 49.810 185.131 49.841 185.036 L 50.707 182.373 C 50.737 182.278 50.611 182.342 50.707 182.373 L 53.465 183.269 Z" stroke="rgb(0,0,255)" stroke-width="0.20" />
  <path d="M 42.052 179.561 L 44.810 180.457 C 44.905 180.488 44.841 180.362 44.810 180.457 L 43.945 183.120 C 43.914 183.215 44.040 183.151 43.945 183.120 L 38.429 181.328 C 38.334 181.297 38.398 181.423 38.429 181.328 L 39.294 178.665 C 39.325 178.570 39.199 178.634 39.294 178.665 L 42.052 179.561 Z" stroke="rgb(0,0,255)" stroke-width="0.20" />
  <path d="M 30.639 175.853 L 33.397 176.749 C 33.492 176.780 33.428 176.654 33.397 176.749 L 32.532 179.412 C 32.501 179.507 32.627 179.443 32.532 179.412 L 27.016 177.620 C 26.921 177.589 26.985 177.715 27.016 177.620 L 27.881 174.957 C 27.912 174.862 27.786 174.926 27.881 174.957 L 30.639 175.853 Z" stroke="rgb(0,0,255)" stroke-width="0.20" />
  <path d="M 138.502 201.168 L 137.606 203.926 C 137.575 204.021 137.701 203.957 137.606 203.926 L 134.943 203.061 C 134.848 203.030 134.912 203.156 134.943 203.061 L 136.735 197.545 C 136.766 197.450 136.640 197.514 136.735 197.545 L 139.398 198.410 C 139.493 198.441 139.429 198.315 139.398 198.410 L 138.502 201.168 Z" stroke="rgb(0,0,255)" stroke-width="0.20" />
  <path d="M 142.210 189.755 L 141.314 192.513 C 141.283 192.609 141.409 192.544 141.314 192.513 L 138.651 191.648 C 138.556 191.617 138.620 191.743 138.651 191.648 L 140.443 186.132 C 140.474 186.037 140.348 186.101 140.443 186.132 L 143.106 186.997 C 143.201 187.028 143.137 186.902 143.106 186.997 L 142.210 189.755 Z" stroke="rgb(0,0,255)" stroke-width="0.20" />
  <path d="M 145.918 178.343 L 145.022 181.101 C 144.991 181.196 145.117 181.132 145.022 181.101 L 142.359 180.236 C 142.264 180.205 142.328 180.331 142.359 180.236 L 144.152 174.719 C 144.182 174.624 144.056 174.689 144.152 174.719 L 146.814 175.585 C 146.910 175.616 146.845 175.490 146.814 175.585 L 145.918 178.343 Z" stroke="rgb(0,0,255)" stroke-width="0.20" />
  <path d="M 149.627 166.930 L 148.730 169.688 C 148.699 169.783 148.825 169.719 148.730 169.688 L 146.067 168.823 C 145.972 168.792 146.037 168.918 146.067 168.823 L 147.860 163.307 C 147.891 163.212 147.765 163.276 147.860 163.307 L 150.523 164.172 C 150.618 164.203 150.554 164.077 150.523 164.172 L 149.627 166.930 Z" stroke="rgb(0,0,255)" stroke-width="0.20" />
  <path d="M 153.335 155.517 L 152.439 158.275 C 152.408 158.371 152.534 158.306 152.439 158.275 L 149.776 157.410 C 149.681 157.379 149.745 157.505 149.776 157.410 L 151.568 151.894 C 151.599 151.799 151.473 151.863 151.568 151.894 L 154.231 152.759 C 154.326 152.790 154.262 152.664 154.231 152.759 L 153.335 155.517 Z" stroke="rgb(0,0,255)" stroke-width="0.20" />
  <path d="M 157.043 144.105 L 156.147 146.863 C 156.116 146.958 156.242 146.894 156.147 146.863 L 153.484 145.998 C 153.389 145.967 153.453 146.093 153.484 145.998 L 155.276 140.481 C 155.307 140.386 155.181 140.450 155.276 140.481 L 157.939 141.347 C 158.034 141.378 157.970 141.252 157.939 141.347 L 157.043 144.105 Z" stroke="rgb(0,0,255)" stroke-width="0.20" />
  <path d="M 160.751 132.692 L 159.855 135.450 C 159.824 135.545 159.950 135.481 159.855 135.450 L 157.192 134.585 C 157.097 134.554 157.161 134.680 157.192 134.585 L 158.984 129.069 C 159.015 128.974 158.889 129.038 158.984 129.069 L 161.647 129.934 C 161.742 129.965 161.678 129.839 161.647 129.934 L 160.751 132.692 Z" stroke="rgb(0,0,255)" stroke-width="0.20" />
  <path d="M 164.459 121.279 L 163.563 124.037 C 163.532 124.133 163.658 124.068 163.563 124.037 L 160.900 123.172 C 160.805 123.141 160.869 123.267 160.900 123.172 L 162.693 117.656 C 162.723 117.561 162.597 117.625 162.693 117.656 L 165.355 118.521 C 165.451 118.552 165.386 118.426 165.355 118.521 L 164.459 121.279 Z" stroke="rgb(0,0,255)" stroke-width="0.20" />
  <path d="M 168.168 109.867 L 167.271 112.625 C 167.241 112.720 167.367 112.656 167.271 112.625 L 164.608 111.759 C 164.513 111.729 164.578 111.855 164.608 111.759 L 166.401 106.243 C 166.432 106.148 166.306 106.212 166.401 106.243 L 169.064 107.109 C 169.159 107.140 169.095 107.014 169.064 107.109 L 168.168 109.867 Z" stroke="rgb(0,0,255)" stroke-width="0.20" />
  <path d="M 171.876 98.454 L 170.980 101.212 C 170.949 101.307 171.075 101.243 170.980 101.212 L 168.317 100.347 C 168.222 100.316 168.286 100.442 168.317 100.347 L 170.109 94.831 C 170.140 94.736 170.014 94.800 170.109 94.831 L 172.772 95.696 C 172.867 95.727 172.803 95.601 172.772 95.696 L 171.876 98.454 Z" stroke="rgb(0,0,255)" stroke-width="0.20" />
  <path d="M 18.800 216.200 H 174.800 C 174.855 216.200 174.900 216.155 174.900 216.100 V 60.100 C 174.900 60.045 174.855 60.000 174.800 60.000 H 18.800 C 18.745 60.000 18.700 60.045 18.700 60.100 V 216.100 C 18.700 216.155 18.745 216.200 18.800 216.200 Z" stroke="rgb(0,0,0)" stroke-width="0.20" />
</g>
<g id="p-2" style="fill:none;stroke-linecap:round;stroke-linejoin:round;">
  <path d="M 229.359 205.519 L 226.601 206.415 C 226.506 206.446 226.570 206.320 226.601 206.415 L 227.466 209.078 C 227.497 209.173 227.371 209.109 227.466 209.078 L 232.983 207.285 C 233.078 207.255 233.014 207.381 232.983 207.285 L 232.117 204.622 C 232.086 204.527 232.212 204.592 232.117 204.622 L 229.359 205.519 Z" stroke="rgb(0,0,255)" stroke-width="0.20" />
  <path d="M 240.772 201.810 L 238.014 202.707 C 237.919 202.737 237.983 202.611 238.014 202.707 L 238.879 205.370 C 238.910 205.465 238.784 205.400 238.879 205.370 L 244.395 203.577 C 244.490 203.546 244.426 203.672 244.395 203.577 L 243.530 200.914 C 243.499 200.819 243.625 200.883 243.530 200.914 L 240.772 201.810 Z" stroke="rgb(0,0,255)" stroke-width="0.20" />
  <path d="M 252.185 198.102 L 249.427 198.998 C 249.331 199.029 249.396 198.903 249.427 198.998 L 250.292 201.661 C 250.323 201.756 250.197 201.692 250.292 201.661 L 255.808 199.869 C 255.903 199.838 255.839 199.964 255.808 199.869 L 254.943 197.206 C 254.912 197.111 255.038 197.175 254.943 197.206 L 252.185 198.102 Z" stroke="rgb(0,0,255)" stroke-width="0.20" />
  <path d="M 263.597 194.394 L 260.839 195.290 C 260.744 195.321 260.808 195.195 260.839 195.290 L 261.705 197.953 C 261.735 198.048 261.609 197.984 261.705 197.953 L 267.221 196.161 C 267.316 196.130 267.252 196.256 267.221 196.161 L 266.355 193.498 C 266.324 193.403 266.451 193.467 266.355 193.498 L 263.597 194.394 Z" stroke="rgb(0,0,255)" stroke-width="0.20" />
  <path d="M 275.010 190.686 L 272.252 191.582 C 272.157 191.613 272.221 191.487 272.252 191.582 L 273.117 194.245 C 273.148 194.340 273.022 194.276 273.117 194.245 L 278.633 192.453 C 278.728 192.422 278.664 192.548 278.633 192.453 L 277.768 189.790 C 277.737 189.695 277.863 189.759 277.768 189.790 L 275.010 190.686 Z" stroke="rgb(0,0,255)" stroke-width="0.20" />
  <path d="M 286.423 186.978 L 283.665 187.874 C 283.570 187.905 283.634 187.779 283.665 187.874 L 284.530 190.537 C 284.561 190.632 284.435 190.568 284.530 190.537 L 290.046 188.744 C 290.141 188.713 290.077 188.839 290.046 188.744 L 289.181 186.081 C 289.150 185.986 289.276 186.051 289.181 186.081 L 286.423 186.978 Z" stroke="rgb(0,0,255)" stroke-width="0.20" />
  <path d="M 297.835 183.269 L 295.077 184.166 C 294.982 184.196 295.046 184.070 295.077 184.166 L 295.943 186.828 C 295.973 186.924 295.847 186.859 295.943 186.828 L 301.459 185.036 C 301.554 185.005 301.490 185.131 301.459 185.036 L 300.593 182.373 C 300.563 182.278 300.689 182.342 300.593 182.373 L 297.835 183.269 Z" stroke="rgb(0,0,255)" stroke-width="0.20" />
  <path d="M 309.248 179.561 L 306.490 180.457 C 306.395 180.488 306.459 180.362 306.490 180.457 L 307.355 183.120 C 307.386 183.215 307.260 183.151 307.355 183.120 L 312.871 181.328 C 312.966 181.297 312.902 181.423 312.871 181.328 L 312.006 178.665 C 311.975 178.570 312.101 178.634 312.006 178.665 L 309.248 179.561 Z" stroke="rgb(0,0,255)" stroke-width="0.20" />
  <path d="M 320.661 175.853 L 317.903 176.749 C 317.808 176.780 317.872 176.654 317.903 176.749 L 318.768 179.412 C 318.799 179.507 318.673 179.443 318.768 179.412 L 324.284 177.620 C 324.379 177.589 324.315 177.715 324.284 177.620 L 323.419 174.957 C 323.388 174.862 323.514 174.926 323.419 174.957 L 320.661 175.853 Z" stroke="rgb(0,0,255)" stroke-width="0.20" />
  <path d="M 212.798 201.168 L 213.694 203.926 C 213.725 204.021 213.599 203.957 213.694 203.926 L 216.357 203.061 C 216.452 203.030 216.388 203.156 216.357 203.061 L 214.565 197.545 C 214.534 197.450 214.660 197.514 214.565 197.545 L 211.902 198.410 C 211.807 198.441 211.871 198.315 211.902 198.410 L 212.798 201.168 Z" stroke="rgb(0,0,255)" stroke-width="0.20" />
  <path d="M 209.090 189.755 L 209.986 192.513 C 210.017 192.609 209.891 192.544 209.986 192.513 L 212.649 191.648 C 212.744 191.617 212.680 191.743 212.649 191.648 L 210.857 186.132 C 210.826 186.037 210.952 186.101 210.857 186.132 L 208.194 186.997 C 208.099 187.028 208.163 186.902 208.194 186.997 L 209.090 189.755 Z" stroke="rgb(0,0,255)" stroke-width="0.20" />
  <path d="M 205.382 178.343 L 206.278 181.101 C 206.309 181.196 206.183 181.132 206.278 181.101 L 208.941 180.236 C 209.036 180.205 208.972 180.331 208.941 180.236 L 207.148 174.719 C 207.118 174.624 207.244 174.689 207.148 174.719 L 204.486 175.585 C 204.390 175.616 204.455 175.490 204.486 175.585 L 205.382 178.343 Z" stroke="rgb(0,0,255)" stroke-width="0.20" />
  <path d="M 201.673 166.930 L 202.570 169.688 C 202.601 169.783 202.475 169.719 202.570 169.688 L 205.233 168.823 C 205.328 168.792 205.263 168.918 205.233 168.823 L 203.440 163.307 C 203.409 163.212 203.535 163.276 203.440 163.307 L 200.777 164.172 C 200.682 164.203 200.746 164.077 200.777 164.172 L 201.673 166.930 Z" stroke="rgb(0,0,255)" stroke-width="0.20" />
  <path d="M 197.965 155.517 L 198.861 158.275 C 198.892 158.371 198.766 158.306 198.861 158.275 L 201.524 157.410 C 201.619 157.379 201.555 157.505 201.524 157.410 L 199.732 151.894 C 199.701 151.799 199.827 151.863 199.732 151.894 L 197.069 152.759 C 196.974 152.790 197.038 152.664 197.069 152.759 L 197.965 155.517 Z" stroke="rgb(0,0,255)" stroke-width="0.20" />
  <path d="M 194.257 144.105 L 195.153 146.863 C 195.184 146.958 195.058 146.894 195.153 146.863 L 197.816 145.998 C 197.911 145.967 197.847 146.093 197.816 145.998 L 196.024 140.481 C 195.993 140.386 196.119 140.450 196.024 140.481 L 193.361 141.347 C 193.266 141.378 193.330 141.252 193.361 141.347 L 194.257 144.105 Z" stroke="rgb(0,0,255)" stroke-width="0.20" />
  <path d="M 190.549 132.692 L 191.445 135.450 C 191.476 135.545 191.350 135.481 191.445 135.450 L 194.108 134.585 C 194.203 134.554 194.139 134.680 194.108 134.585 L 192.316 129.069 C 192.285 128.974 192.411 129.038 192.316 129.069 L 189.653 129.934 C 189.558 129.965 189.622 129.839 189.653 129.934 L 190.549 132.692 Z" stroke="rgb(0,0,255)" stroke-width="0.20" />
  <path d="M 186.841 121.279 L 187.737 124.037 C 187.768 124.133 187.642 124.068 187.737 124.037 L 190.400 123.172 C 190.495 123.141 190.431 123.267 190.400 123.172 L 188.607 117.656 C 188.577 117.561 188.703 117.625 188.607 117.656 L 185.945 118.521 C 185.849 118.552 185.914 118.426 185.945 118.521 L 186.841 121.279 Z" stroke="rgb(0,0,255)" stroke-width="0.20" />
  <path d="M 183.132 109.867 L 184.029 112.625 C 184.059 112.720 183.933 112.656 184.029 112.625 L 186.692 111.759 C 186.787 111.729 186.722 111.855 186.692 111.759 L 184.899 106.243 C 184.868 106.148 184.994 106.212 184.899 106.243 L 182.236 107.109 C 182.141 107.140 182.205 107.014 182.236 107.109 L 183.132 109.867 Z" stroke="rgb(0,0,255)" stroke-width="0.20" />
  <path d="M 179.424 98.454 L 180.320 101.212 C 180.351 101.307 180.225 101.243 180.320 101.212 L 182.983 100.347 C 183.078 100.316 183.014 100.442 182.983 100.347 L 181.191 94.831 C 181.160 94.736 181.286 94.800 181.191 94.831 L 178.528 95.696 C 178.433 95.727 178.497 95.601 178.528 95.696 L 179.424 98.454 Z" stroke="rgb(0,0,255)" stroke-width="0.20" />
  <path d="M 332.500 216.200 H 176.500 C 176.445 216.200 176.400 216.155 176.400 216.100 V 60.100 C 176.400 60.045 176.445 60.000 176.500 60.000 H 332.500 C 332.555 60.000 332.600 60.045 332.600 60.100 V 216.100 C 332.600 216.155 332.555 216.200 332.500 216.200 Z" stroke="rgb(0,0,0)" stroke-width="0.20" />
</g>
<g id="p-3" style="fill:none;stroke-linecap:round;stroke-linejoin:round;">
  <path d="M 396.963 205.500 H 347.455 C 347.355 205.500 347.455 205.600 347.455 205.500 V 200.700 C 347.455 200.600 347.355 200.700 347.455 200.700 H 446.470 C 446.570 200.700 446.470 200.600 446.470 200.700 V 205.500 C 446.470 205.600 446.570 205.500 446.470 205.500 H 396.963 Z" stroke="rgb(0,0,255)" stroke-width="0.20" />
  <path d="M 396.963 185.500 H 347.455 C 347.355 185.500 347.455 185.600 347.455 185.500 V 180.700 C 347.455 180.600 347.355 180.700 347.455 180.700 H 446.470 C 446.570 180.700 446.470 180.600 446.470 180.700 V 185.500 C 446.470 185.600 446.570 185.500 446.470 185.500 H 396.963 Z" stroke="rgb(0,0,255)" stroke-width="0.20" />
  <path d="M 396.963 165.500 H 347.455 C 347.355 165.500 347.455 165.600 347.455 165.500 V 160.700 C 347.455 160.600 347.355 160.700 347.455 160.700 H 446.470 C 446.570 160.700 446.470 160.600 446.470 160.700 V 165.500 C 446.470 165.600 446.570 165.500 446.470 165.500 H 396.963 Z" stroke="rgb(0,0,255)" stroke-width="0.20" />
  <path d="M 396.963 145.500 H 347.455 C 347.355 145.500 347.455 145.600 347.455 145.500 V 140.700 C 347.455 140.600 347.355 140.700 347.455 140.700 H 446.470 C 446.570 140.700 446.470 140.600 446.470 140.700 V 145.500 C 446.470 145.600 446.570 145.500 446.470 145.500 H 396.963 Z" stroke="rgb(0,0,255)" stroke-width="0.20" />
  <path d="M 396.963 125.500 H 347.455 C 347.355 125.500 347.455 125.600 347.455 125.500 V 120.700 C 347.455 120.600 347.355 120.700 347.455 120.700 H 446.470 C 446.570 120.700 446.470 120.600 446.470 120.700 V 125.500 C 446.470 125.600 446.570 125.500 446.470 125.500 H 396.963 Z" stroke="rgb(0,0,255)" stroke-width="0.20" />
  <path d="M 396.963 105.500 H 347.455 C 347.355 105.500 347.455 105.600 347.455 105.500 V 100.700 C 347.455 100.600 347.355 100.700 347.455 100.700 H 446.470 C 446.570 100.700 446.470 100.600 446.470 100.700 V 105.500 C 446.470 105.600 446.570 105.500 446.470 105.500 H 396.963 Z" stroke="rgb(0,0,255)" stroke-width="0.20" />
  <path d="M 396.963 85.500 H 347.455 C 347.355 85.500 347.455 85.600 347.455 85.500 V 80.700 C 347.455 80.600 347.355 80.700 347.455 80.700 H 446.470 C 446.570 80.700 446.470 80.600 446.470 80.700 V 85.500 C 446.470 85.600 446.570 85.500 446.470 85.500 H 396.963 Z" stroke="rgb(0,0,255)" stroke-width="0.20" />
  <path d="M 396.963 65.500 H 347.455 C 347.355 65.500 347.455 65.600 347.455 65.500 V 60.700 C 347.455 60.600 347.355 60.700 347.455 60.700 H 446.470 C 446.570 60.700 446.470 60.600 446.470 60.700 V 65.500 C 446.470 65.600 446.570 65.500 446.470 65.500 H 396.963 Z" stroke="rgb(0,0,255)" stroke-width="0.20" />
  <path d="M 396.963 45.500 H 347.455 C 347.355 45.500 347.455 45.600 347.455 45.500 V 40.700 C 347.455 40.600 347.355 40.700 347.455 40.700 H 446.470 C 446.570 40.700 446.470 40.600 446.470 40.700 V 45.500 C 446.470 45.600 446.570 45.500 446.470 45.500 H 396.963 Z" stroke="rgb(0,0,255)" stroke-width="0.20" />
  <path d="M 396.963 25.500 H 347.455 C 347.355 25.500 347.455 25.600 347.455 25.500 V 20.700 C 347.455 20.600 347.355 20.700 347.455 20.700 H 446.470 C 446.570 20.700 446.470 20.600 446.470 20.700 V 25.500 C 446.470 25.600 446.570 25.500 446.470 25.500 H 396.963 Z" stroke="rgb(0,0,255)" stroke-width="0.20" />
  <path d="M 334.200 213.200 H 342.606 C 342.706 213.200 342.606 213.100 342.606 213.200 V 216.100 C 342.606 216.155 342.651 216.200 342.706 216.200 H 348.706 C 348.762 216.200 348.806 216.155 348.806 216.100 V 213.200 C 348.806 213.100 348.706 213.200 348.806 213.200 H 354.606 C 354.706 213.200 354.606 213.100 354.606 213.200 V 216.100 C 354.606 216.155 354.651 216.200 354.706 216.200 H 360.706 C 360.762 216.200 360.806 216.155 360.806 216.100 V 213.200 C 360.806 213.100 360.706 213.200 360.806 213.200 H 366.606 C 366.706 213.200 366.606 213.100 366.606 213.200 V 216.100 C 366.606 216.155 366.651 216.200 366.706 216.200 H 372.706 C 372.762 216.200 372.806 216.155 372.806 216.100 V 213.200 C 372.806 213.100 372.706 213.200 372.806 213.200 H 378.606 C 378.706 213.200 378.606 213.100 378.606 213.200 V 216.100 C 378.606 216.155 378.651 216.200 378.706 216.200 H 384.706 C 384.762 216.200 384.806 216.155 384.806 216.100 V 213.200 C 384.806 213.100 384.706 213.200 384.806 213.200 H 390.606 C 390.706 213.200 390.606 213.100 390.606 213.200 V 216.100 C 390.606 216.155 390.651 216.200 390.706 216.200 H 396.706 C 396.762 216.200 396.806 216.155 396.806 216.100 V 213.200 C 396.806 213.100 396.706 213.200 396.806 213.200 H 402.606 C 402.706 213.200 402.606 213.100 402.606 213.200 V 216.100 C 402.606 216.155 402.651 216.200 402.706 216.200 H 408.706 C 408.762 216.200 408.806 216.155 408.806 216.100 V 213.200 C 408.806 213.100 408.706 213.200 408.806 213.200 H 414.606 C 414.706 213.200 414.606 213.100 414.606 213.200 V 216.100 C 414.606 216.155 414.651 216.200 414.706 216.200 H 420.706 C 420.762 216.200 420.806 216.155 420.806 216.100 V 213.200 C 420.806 213.100 420.706 213.200 420.806 213.200 H 426.606 C 426.706 213.200 426.606 213.100 426.606 213.200 V 216.100 C 426.606 216.155 426.651 216.200 426.706 216.200 H 432.706 C 432.762 216.200 432.806 216.155 432.806 216.100 V 213.200 C 432.806 213.100 432.706 213.200 432.806 213.200 H 438.606 C 438.706 213.200 438.606 213.100 438.606 213.200 V 216.100 C 438.606 216.155 438.651 216.200 438.706 216.200 H 444.706 C 444.762 216.200 444.806 216.155 444.806 216.100 V 213.200 C 444.806 213.100 444.706 213.200 444.806 213.200 H 453.213 C 453.268 213.200 453.313 213.155 453.313 213.100 V 206.200 C 453.313 206.100 453.213 206.200 453.313 206.200 H 456.213 C 456.268 206.200 456.313 206.155 456.313 206.100 V 200.100 C 456.313 200.045 456.268 200.000 456.213 200.000 H 453.313 C 453.213 200.000 453.313 200.100 453.313 200.000 V 194.200 C 453.313 194.100 453.213 194.200 453.313 194.200 H 456.213 C 456.268 194.200 456.313 194.155 456.313 194.100 V 188.100 C 456.313 188.045 456.268 188.000 456.213 188.000 H 453.313 C 453.213 188.000 453.313 188.100 453.313 188.000 V 182.200 C 453.313 182.100 453.213 182.200 453.313 182.200 H 456.213 C 456.268 182.200 456.313 182.155 456.313 182.100 V 176.100 C 456.313 176.045 456.268 176.000 456.213 176.000 H 453.313 C 453.213 176.000 453.313 176.100 453.313 176.000 V 170.200 C 453.313 170.100 453.213 170.200 453.313 170.200 H 456.213 C 456.268 170.200 456.313 170.155 456.313 170.100 V 164.100 C 456.313 164.045 456.268 164.000 456.213 164.000 H 453.313 C 453.213 164.000 453.313 164.100 453.313 164.000 V 158.200 C 453.313 158.100 453.213 158.200 453.313 158.200 H 456.213 C 456.268 158.200 456.313 158.155 456.313 158.100 V 152.100 C 456.313 152.045 456.268 152.000 456.213 152.000 H 453.313 C 453.213 152.000 453.313 152.100 453.313 152.000 V 146.200 C 453.313 146.100 453.213 146.200 453.313 146.200 H 456.213 C 456.268 146.200 456.313 146.155 456.313 146.100 V 140.100 C 456.313 140.045 456.268 140.000 456.213 140.000 H 453.313 C 453.213 140.000 453.313 140.100 453.313 140.000 V 134.200 C 453.313 134.100 453.213 134.200 453.313 134.200 H 456.213 C 456.268 134.200 456.313 134.155 456.313 134.100 V 128.100 C 456.313 128.045 456.268 128.000 456.213 128.000 H 453.313 C 453.213 128.000 453.313 128.100 453.313 128.000 V 122.200 C 453.313 122.100 453.213 122.200 453.313 122.200 H 456.213 C 456.268 122.200 456.313 122.155 456.313 122.100 V 116.100 C 456.313 116.045 456.268 116.000 456.213 116.000 H 453.313 C 453.213 116.000 453.313 116.100 453.313 116.000 V 110.200 C 453.313 110.100 453.213 110.200 453.313 110.200 H 456.213 C 456.268 110.200 456.313 110.155 456.313 110.100 V 104.100 C 456.313 104.045 456.268 104.000 456.213 104.000 H 453.313 C 453.213 104.000 453.313 104.100 453.313 104.000 V 98.200 C 453.313 98.100 453.213 98.200 453.313 98.200 H 456.213 C 456.268 98.200 456.313 98.155 456.313 98.100 V 92.100 C 456.313 92.045 456.268 92.000 456.213 92.000 H 453.313 C 453.213 92.000 453.313 92.100 453.313 92.000 V 86.200 C 453.313 86.100 453.213 86.200 453.313 86.200 H 456.213 C 456.268 86.200 456.313 86.155 456.313 86.100 V 80.100 C 456.313 80.045 456.268 80.000 456.213 80.000 H 453.313 C 453.213 80.000 453.313 80.100 453.313 80.000 V 74.200 C 453.313 74.100 453.213 74.200 453.313 74.200 H 456.213 C 456.268 74.200 456.313 74.155 456.313 74.100 V 68.100 C 456.313 68.045 456.268 68.000 456.213 68.000 H 453.313 C 453.213 68.000 453.313 68.100 453.313 68.000 V 62.200 C 453.313 62.100 453.213 62.200 453.313 62.200 H 456.213 C 456.268 62.200 456.313 62.155 456.313 62.100 V 56.100 C 456.313 56.045 456.268 56.000 456.213 56.000 H 453.313 C 453.213 56.000 453.313 56.100 453.313 56.000 V 50.200 C 453.313 50.100 453.213 50.200 453.313 50.200 H 456.213 C 456.268 50.200 456.313 50.155 456.313 50.100 V 44.100 C 456.313 44.045 456.268 44.000 456.213 44.000 H 453.313 C 453.213 44.000 453.313 44.100 453.313 44.000 V 38.200 C 453.313 38.100 453.213 38.200 453.313 38.200 H 456.213 C 456.268 38.200 456.313 38.155 456.313 38.100 V 32.100 C 456.313 32.045 456.268 32.000 456.213 32.000 H 453.313 C 453.213 32.000 453.313 32.100 453.313 32.000 V 26.200 C 453.313 26.100 453.213 26.200 453.313 26.200 H 456.213 C 456.268 26.200 456.313 26.155 456.313 26.100 V 20.100 C 456.313 20.045 456.268 20.000 456.213 20.000 H 453.313 C 453.213 20.000 453.313 20.100 453.313 20.000 V 13.100 C 453.313 13.045 453.268 13.000 453.213 13.000 H 444.806 C 444.706 13.000 444.806 13.100 444.806 13.000 V 10.100 C 444.806 10.045 444.762 10.000 444.706 10.000 H 438.706 C 438.651 10.000 438.606 10.045 438.606 10.100 V 13.000 C 438.606 13.100 438.706 13.000 438.606 13.000 H 432.806 C 432.706 13.000 432.806 13.100 432.806 13.000 V 10.100 C 432.806 10.045 432.762 10.000 432.706 10.000 H 426.706 C 426.651 10.000 426.606 10.045 426.606 10.100 V 13.000 C 426.606 13.100 426.706 13.000 426.606 13.000 H 420.806 C 420.706 13.000 420.806 13.100 420.806 13.000 V 10.100 C 420.806 10.045 420.762 10.000 420.706 10.000 H 414.706 C 414.651 10.000 414.606 10.045 414.606 10.100 V 13.000 C 414.606 13.100 414.706 13.000 414.606 13.000 H 408.806 C 408.706 13.000 408.806 13.100 408.806 13.000 V 10.100 C 408.806 10.045 408.762 10.000 408.706 10.000 H 402.706 C 402.651 10.000 402.606 10.045 402.606 10.100 V 13.000 C 402.606 13.100 402.706 13.000 402.606 13.000 H 396.806 C 396.706 13.000 396.806 13.100 396.806 13.000 V 10.100 C 396.806 10.045 396.762 10.000 396.706 10.000 H 390.706 C 390.651 10.000 390.606 10.045 390.606 10.100 V 13.000 C 390.606 13.100 390.706 13.000 390.606 13.000 H 384.806 C 384.706 13.000 384.806 13.100 384.806 13.000 V 10.100 C 384.806 10.045 384.762 10.000 384.706 10.000 H 378.706 C 378.651 10.000 378.606 10.045 378.606 10.100 V 13.000 C 378.606 13.100 378.706 13.000 378.606 13.000 H 372.806 C 372.706 13.000 372.806 13.100 372.806 13.000 V 10.100 C 372.806 10.045 372.762 10.000 372.706 10.000 H 366.706 C 366.651 10.000 366.606 10.045 366.606 10.100 V 13.000 C 366.606 13.100 366.706 13.000 366.606 13.000 H 360.806 C 360.706 13.000 360.806 13.100 360.806 13.000 V 10.100 C 360.806 10.045 360.762 10.000 360.706 10.000 H 354.706 C 354.651 10.000 354.606 10.045 354.606 10.100 V 13.000 C 354.606 13.100 354.706 13.000 354.606 13.000 H 348.806 C 348.706 13.000 348.806 13.100 348.806 13.000 V 10.100 C 348.806 10.045 348.762 10.000 348.706 10.000 H 342.706 C 342.651 10.000 342.606 10.045 342.606 10.100 V 13.000 C 342.606 13.100 342.706 13.000 342.606 13.000 H 334.200 C 334.145 13.000 334.100 13.045 334.100 13.100 V 213.100 C 334.100 213.155 334.145 213.200 334.200 213.200 Z" stroke="rgb(0,0,0)" stroke-width="0.20" />
</g>
<g id="p-4" style="fill:none;stroke-linecap:round;stroke-linejoin:round;">
  <path d="M 520.163 205.500 H 470.655 C 470.555 205.500 470.655 205.600 470.655 205.500 V 200.700 C 470.655 200.600 470.555 200.700 470.655 200.700 H 569.670 C 569.770 200.700 569.670 200.600 569.670 200.700 V 205.500 C 569.670 205.600 569.770 205.500 569.670 205.500 H 520.163 Z" stroke="rgb(0,0,255)" stroke-width="0.20" />
  <path d="M 520.163 185.500 H 470.655 C 470.555 185.500 470.655 185.600 470.655 185.500 V 180.700 C 470.655 180.600 470.555 180.700 470.655 180.700 H 569.670 C 569.770 180.700 569.670 180.600 569.670 180.700 V 185.500 C 569.670 185.600 569.770 185.500 569.670 185.500 H 520.163 Z" stroke="rgb(0,0,255)" stroke-width="0.20" />
  <path d="M 520.163 165.500 H 470.655 C 470.555 165.500 470.655 165.600 470.655 165.500 V 160.700 C 470.655 160.600 470.555 160.700 470.655 160.700 H 569.670 C 569.770 160.700 569.670 160.600 569.670 160.700 V 165.500 C 569.670 165.600 569.770 165.500 569.670 165.500 H 520.163 Z" stroke="rgb(0,0,255)" stroke-width="0.20" />
  <path d="M 520.163 145.500 H 470.655 C 470.555 145.500 470.655 145.600 470.655 145.500 V 140.700 C 470.655 140.600 470.555 140.700 470.655 140.700 H 569.670 C 569.770 140.700 569.670 140.600 569.670 140.700 V 145.500 C 569.670 145.600 569.770 145.500 569.670 145.500 H 520.163 Z" stroke="rgb(0,0,255)" stroke-width="0.20" />
  <path d="M 520.163 125.500 H 470.655 C 470.555 125.500 470.655 125.600 470.655 125.500 V 120.700 C 470.655 120.600 470.555 120.700 470.655 120.700 H 569.670 C 569.770 120.700 569.670 120.600 569.670 120.700 V 125.500 C 569.670 125.600 569.770 125.500 569.670 125.500 H 520.163 Z" stroke="rgb(0,0,255)" stroke-width="0.20" />
  <path d="M 520.163 105.500 H 470.655 C 470.555 105.500 470.655 105.600 470.655 105.500 V 100.700 C 470.655 100.600 470.555 100.700 470.655 100.700 H 569.670 C 569.770 100.700 569.670 100.600 569.670 100.700 V 105.500 C 569.670 105.600 569.770 105.500 569.670 105.500 H 520.163 Z" stroke="rgb(0,0,255)" stroke-width="0.20" />
  <path d="M 520.163 85.500 H 470.655 C 470.555 85.500 470.655 85.600 470.655 85.500 V 80.700 C 470.655 80.600 470.555 80.700 470.655 80.700 H 569.670 C 569.770 80.700 569.670 80.600 569.670 80.700 V 85.500 C 569.670 85.600 569.770 85.500 569.670 85.500 H 520.163 Z" stroke="rgb(0,0,255)" stroke-width="0.20" />
  <path d="M 520.163 65.500 H 470.655 C 470.555 65.500 470.655 65.600 470.655 65.500 V 60.700 C 470.655 60.600 470.555 60.700 470.655 60.700 H 569.670 C 569.770 60.700 569.670 60.600 569.670 60.700 V 65.500 C 569.670 65.600 569.770 65.500 569.670 65.500 H 520.163 Z" stroke="rgb(0,0,255)" stroke-width="0.20" />
  <path d="M 520.163 45.500 H 470.655 C 470.555 45.500 470.655 45.600 470.655 45.500 V 40.700 C 470.655 40.600 470.555 40.700 470.655 40.700 H 569.670 C 569.770 40.700 569.670 40.600 569.670 40.700 V 45.500 C 569.670 45.600 569.770 45.500 569.670 45.500 H 520.163 Z" stroke="rgb(0,0,255)" stroke-width="0.20" />
  <path d="M 520.163 25.500 H 470.655 C 470.555 25.500 470.655 25.600 470.655 25.500 V 20.700 C 470.655 20.600 470.555 20.700 470.655 20.700 H 569.670 C 569.770 20.700 569.670 20.600 569.670 20.700 V 25.500 C 569.670 25.600 569.770 25.500 569.670 25.500 H 520.163 Z" stroke="rgb(0,0,255)" stroke-width="0.20" />
  <path d="M 463.913 213.200 H 469.968 C 470.068 213.200 469.968 213.100 469.968 213.200 V 216.100 C 469.968 216.155 470.013 216.200 470.068 216.200 H 476.068 C 476.123 216.200 476.168 216.155 476.168 216.100 V 213.200 C 476.168 213.100 476.068 213.200 476.168 213.200 H 481.968 C 482.068 213.200 481.968 213.100 481.968 213.200 V 216.100 C 481.968 216.155 482.013 216.200 482.068 216.200 H 488.068 C 488.123 216.200 488.168 216.155 488.168 216.100 V 213.200 C 488.168 213.100 488.068 213.200 488.168 213.200 H 493.968 C 494.068 213.200 493.968 213.100 493.968 213.200 V 216.100 C 493.968 216.155 494.013 216.200 494.068 216.200 H 500.068 C 500.123 216.200 500.168 216.155 500.168 216.100 V 213.200 C 500.168 213.100 500.068 213.200 500.168 213.200 H 505.968 C 506.068 213.200 505.968 213.100 505.968 213.200 V 216.100 C 505.968 216.155 506.013 216.200 506.068 216.200 H 512.068 C 512.123 216.200 512.168 216.155 512.168 216.100 V 213.200 C 512.168 213.100 512.068 213.200 512.168 213.200 H 517.968 C 518.068 213.200 517.968 213.100 517.968 213.200 V 216.100 C 517.968 216.155 518.013 216.200 518.068 216.200 H 524.068 C 524.123 216.200 524.168 216.155 524.168 216.100 V 213.200 C 524.168 213.100 524.068 213.200 524.168 213.200 H 529.968 C 530.068 213.200 529.968 213.100 529.968 213.200 V 216.100 C 529.968 216.155 530.013 216.200 530.068 216.200 H 536.068 C 536.123 216.200 536.168 216.155 536.168 216.100 V 213.200 C 536.168 213.100 536.068 213.200 536.168 213.200 H 541.968 C 542.068 213.200 541.968 213.100 541.968 213.200 V 216.100 C 541.968 216.155 542.013 216.200 542.068 216.200 H 548.068 C 548.123 216.200 548.168 216.155 548.168 216.100 V 213.200 C 548.168 213.100 548.068 213.200 548.168 213.200 H 553.968 C 554.068 213.200 553.968 213.100 553.968 213.200 V 216.100 C 553.968 216.155 554.013 216.200 554.068 216.200 H 560.068 C 560.123 216.200 560.168 216.155 560.168 216.100 V 213.200 C 560.168 213.100 560.068 213.200 560.168 213.200 H 565.968 C 566.068 213.200 565.968 213.100 565.968 213.200 V 216.100 C 565.968 216.155 566.013 216.200 566.068 216.200 H 572.068 C 572.123 216.200 572.168 216.155 572.168 216.100 V 213.200 C 572.168 213.100 572.068 213.200 572.168 213.200 H 577.968 C 578.068 213.200 577.968 213.100 577.968 213.200 V 216.100 C 577.968 216.155 578.013 216.200 578.068 216.200 H 584.068 C 584.123 216.200 584.168 216.155 584.168 216.100 V 213.200 C 584.168 213.100 584.068 213.200 584.168 213.200 H 590.223 C 590.278 213.200 590.323 213.155 590.323 213.100 V 13.100 C 590.323 13.045 590.278 13.000 590.223 13.000 H 584.168 C 584.068 13.000 584.168 13.100 584.168 13.000 V 10.100 C 584.168 10.045 584.123 10.000 584.068 10.000 H 578.068 C 578.013 10.000 577.968 10.045 577.968 10.100 V 13.000 C 577.968 13.100 578.068 13.000 577.968 13.000 H 572.168 C 572.068 13.000 572.168 13.100 572.168 13.000 V 10.100 C 572.168 10.045 572.123 10.000 572.068 10.000 H 566.068 C 566.013 10.000 565.968 10.045 565.968 10.100 V 13.000 C 565.968 13.100 566.068 13.000 565.968 13.000 H 560.168 C 560.068 13.000 560.168 13.100 560.168 13.000 V 10.100 C 560.168 10.045 560.123 10.000 560.068 10.000 H 554.068 C 554.013 10.000 553.968 10.045 553.968 10.100 V 13.000 C 553.968 13.100 554.068 13.000 553.968 13.000 H 548.168 C 548.068 13.000 548.168 13.100 548.168 13.000 V 10.100 C 548.168 10.045 548.123 10.000 548.068 10.000 H 542.068 C 542.013 10.000 541.968 10.045 541.968 10.100 V 13.000 C 541.968 13.100 542.068 13.000 541.968 13.000 H 536.168 C 536.068 13.000 536.168 13.100 536.168 13.000 V 10.100 C 536.168 10.045 536.123 10.000 536.068 10.000 H 530.068 C 530.013 10.000 529.968 10.045 529.968 10.100 V 13.000 C 529.968 13.100 530.068 13.000 529.968 13.000 H 524.168 C 524.068 13.000 524.168 13.100 524.168 13.000 V 10.100 C 524.168 10.045 524.123 10.000 524.068 10.000 H 518.068 C 518.013 10.000 517.968 10.045 517.968 10.100 V 13.000 C 517.968 13.100 518.068 13.000 517.968 13.000 H 512.168 C 512.068 13.000 512.168 13.100 512.168 13.000 V 10.100 C 512.168 10.045 512.123 10.000 512.068 10.000 H 506.068 C 506.013 10.000 505.968 10.045 505.968 10.100 V 13.000 C 505.968 13.100 506.068 13.000 505.968 13.000 H 500.168 C 500.068 13.000 500.168 13.100 500.168 13.000 V 10.100 C 500.168 10.045 500.123 10.000 500.068 10.000 H 494.068 C 494.013 10.000 493.968 10.045 493.968 10.100 V 13.000 C 493.968 13.100 494.068 13.000 493.968 13.000 H 488.168 C 488.068 13.000 488.168 13.100 488.168 13.000 V 10.100 C 488.168 10.045 488.123 10.000 488.068 10.000 H 482.068 C 482.013 10.000 481.968 10.045 481.968 10.100 V 13.000 C 481.968 13.100 482.068 13.000 481.968 13.000 H 476.168 C 476.068 13.000 476.168 13.100 476.168 13.000 V 10.100 C 476.168 10.045 476.123 10.000 476.068 10.000 H 470.068 C 470.013 10.000 469.968 10.045 469.968 10.100 V 13.000 C 469.968 13.100 470.068 13.000 469.968 13.000 H 463.913 H 457.913 C 457.857 13.000 457.813 13.045 457.813 13.100 V 213.100 C 457.813 213.155 457.857 213.200 457.913 213.200 H 463.913 Z" stroke="rgb(0,0,0)" stroke-width="0.20" />
  <path d="M 461.013 23.100 V 20.200 C 461.013 20.100 460.913 20.200 461.013 20.200 H 463.813 C 463.913 20.200 463.813 20.100 463.813 20.200 V 26.000 C 463.813 26.100 463.913 26.000 463.813 26.000 H 461.013 C 460.913 26.000 461.013 26.100 461.013 26.000 V 23.100 Z" stroke="rgb(0,0,255)" stroke-width="0.20" />
  <path d="M 461.013 35.100 V 32.200 C 461.013 32.100 460.913 32.200 461.013 32.200 H 463.813 C 463.913 32.200 463.813 32.100 463.813 32.200 V 38.000 C 463.813 38.100 463.913 38.000 463.813 38.000 H 461.013 C 460.913 38.000 461.013 38.100 461.013 38.000 V 35.100 Z" stroke="rgb(0,0,255)" stroke-width="0.20" />
  <path d="M 461.013 47.100 V 44.200 C 461.013 44.100 460.913 44.200 461.013 44.200 H 463.813 C 463.913 44.200 463.813 44.100 463.813 44.200 V 50.000 C 463.813 50.100 463.913 50.000 463.813 50.000 H 461.013 C 460.913 50.000 461.013 50.100 461.013 50.000 V 47.100 Z" stroke="rgb(0,0,255)" stroke-width="0.20" />
  <path d="M 461.013 59.100 V 56.200 C 461.013 56.100 460.913 56.200 461.013 56.200 H 463.813 C 463.913 56.200 463.813 56.100 463.813 56.200 V 62.000 C 463.813 62.100 463.913 62.000 463.813 62.000 H 461.013 C 460.913 62.000 461.013 62.100 461.013 62.000 V 59.100 Z" stroke="rgb(0,0,255)" stroke-width="0.20" />
  <path d="M 461.013 71.100 V 68.200 C 461.013 68.100 460.913 68.200 461.013 68.200 H 463.813 C 463.913 68.200 463.813 68.100 463.813 68.200 V 74.000 C 463.813 74.100 463.913 74.000 463.813 74.000 H 461.013 C 460.913 74.000 461.013 74.100 461.013 74.000 V 71.100 Z" stroke="rgb(0,0,255)" stroke-width="0.20" />
  <path d="M 461.013 83.100 V 80.200 C 461.013 80.100 460.913 80.200 461.013 80.200 H 463.813 C 463.913 80.200 463.813 80.100 463.813 80.200 V 86.000 C 463.813 86.100 463.913 86.000 463.813 86.000 H 461.013 C 460.913 86.000 461.013 86.100 461.013 86.000 V 83.100 Z" stroke="rgb(0,0,255)" stroke-width="0.20" />
  <path d="M 461.013 95.100 V 92.200 C 461.013 92.100 460.913 92.200 461.013 92.200 H 463.813 C 463.913 92.200 463.813 92.100 463.813 92.200 V 98.000 C 463.813 98.100 463.913 98.000 463.813 98.000 H 461.013 C 460.913 98.000 461.013 98.100 461.013 98.000 V 95.100 Z" stroke="rgb(0,0,255)" stroke-width="0.20" />
  <path d="M 461.013 107.100 V 104.200 C 461.013 104.100 460.913 104.200 461.013 104.200 H 463.813 C 463.913 104.200 463.813 104.100 463.813 104.200 V 110.000 C 463.813 110.100 463.913 110.000 463.813 110.000 H 461.013 C 460.913 110.000 461.013 110.100 461.013 110.000 V 107.100 Z" stroke="rgb(0,0,255)" stroke-width="0.20" />
  <path d="M 461.013 119.100 V 116.200 C 461.013 116.100 460.913 116.200 461.013 116.200 H 463.813 C 463.913 116.200 463.813 116.100 463.813 116.200 V 122.000 C 463.813 122.100 463.913 122.000 463.813 122.000 H 461.013 C 460.913 122.000 461.013 122.100 461.013 122.000 V 119.100 Z" stroke="rgb(0,0,255)" stroke-width="0.20" />
  <path d="M 461.013 131.100 V 128.200 C 461.013 128.100 460.913 128.200 461.013 128.200 H 463.813 C 463.913 128.200 463.813 128.100 463.813 128.200 V 134.000 C 463.813 134.100 463.913 134.000 463.813 134.000 H 461.013 C 460.913 134.000 461.013 134.100 461.013 134.000 V 131.100 Z" stroke="rgb(0,0,255)" stroke-width="0.20" />
  <path d="M 461.013 143.100 V 140.200 C 461.013 140.100 460.913 140.200 461.013 140.200 H 463.813 C 463.913 140.200 463.813 140.100 463.813 140.200 V 146.000 C 463.813 146.100 463.913 146.000 463.813 146.000 H 461.013 C 460.913 146.000 461.013 146.100 461.013 146.000 V 143.100 Z" stroke="rgb(0,0,255)" stroke-width="0.20" />
  <path d="M 461.013 155.100 V 152.200 C 461.013 152.100 460.913 152.200 461.013 152.200 H 463.813 C 463.913 152.200 463.813 152.100 463.813 152.200 V 158.000 C 463.813 158.100 463.913 158.000 463.813 158.000 H 461.013 C 460.913 158.000 461.013 158.100 461.013 158.000 V 155.100 Z" stroke="rgb(0,0,255)" stroke-width="0.20" />
  <path d="M 461.013 167.100 V 164.200 C 461.013 164.100 460.913 164.200 461.013 164.200 H 463.813 C 463.913 164.200 463.813 164.100 463.813 164.200 V 170.000 C 463.813 170.100 463.913 170.000 463.813 170.000 H 461.013 C 460.913 170.000 461.013 170.100 461.013 170.000 V 167.100 Z" stroke="rgb(0,0,255)" stroke-width="0.20" />
  <path d="M 461.013 179.100 V 176.200 C 461.013 176.100 460.913 176.200 461.013 176.200 H 463.813 C 463.913 176.200 463.813 176.100 463.813 176.200 V 182.000 C 463.813 182.100 463.913 182.000 463.813 182.000 H 461.013 C 460.913 182.000 461.013 182.100 461.013 182.000 V 179.100 Z" stroke="rgb(0,0,255)" stroke-width="0.20" />
  <path d="M 461.013 191.100 V 188.200 C 461.013 188.100 460.913 188.200 461.013 188.200 H 463.813 C 463.913 188.200 463.813 188.100 463.813 188.200 V 194.000 C 463.813 194.100 463.913 194.000 463.813 194.000 H 461.013 C 460.913 194.000 461.013 194.100 461.013 194.000 V 191.100 Z" stroke="rgb(0,0,255)" stroke-width="0.20" />
  <path d="M 461.013 203.100 V 200.200 C 461.013 200.100 460.913 200.200 461.013 200.200 H 463.813 C 463.913 200.200 463.813 200.100 463.813 200.200 V 206.000 C 463.813 206.100 463.913 206.000 463.813 206.000 H 461.013 C 460.913 206.000 461.013 206.100 461.013 206.000 V 203.100 Z" stroke="rgb(0,0,255)" stroke-width="0.20" />
</g>
</svg>