<?xml version='1.0' encoding='utf-8'?>
<svg height="339.30mm" viewBox="0.0 0.0 238.60 339.30" width="238.60mm" xmlns="http://www.w3.org/2000/svg" xmlns:cc="http://creativecommons.org/ns#" xmlns:dc="http://purl.org/dc/elements/1.1/" xmlns:inkscape="http://www.inkscape.org/namespaces/inkscape" xmlns:rdf="http://www.w3.org/1999/02/22-rdf-syntax-ns#" xmlns:svg="http://www.w3.org/2000/svg" xmlns:xlink="http://www.w3.org/1999/xlink">
<!--
DisplayCase - Fully closed box intended to be cut from transparent acrylics and to serve as a display case.

Created with Boxes.py (https://festi.info/boxes.py)
Command line (remove spaces between dashes): boxes DisplayCase
-->
<title>DisplayCase</title>
<metadata>
<rdf:RDF><cc:Work>
<dc:title>Box - DisplayCase</dc:title>
<dc:source>boxes DisplayCase</dc:source>
<dc:description>Fully closed box intended to be cut from transparent acrylics and to serve as a display case.

Created with Boxes.py (https://festi.info/boxes.py)
Command line: boxes DisplayCase
Command line short: boxes DisplayCase
</dc:description>
</cc:Work></rdf:RDF></metadata>
<g id="p-0" style="fill:none;stroke-linecap:round;stroke-linejoin:round;">
  <path d="M 18.800 329.300 H 118.800 V 319.300 H 18.800 V 329.300 Z" stroke="rgb(0,0,0)" stroke-width="0.20" />
  <text dominant-baseline="hanging" font-size="8px" style="font-family: sans-serif ; font-weight: normal; font-style: normal; fill: rgb(255,0,0)" text-anchor="middle" transform="matrix( 1.000 0.000 0.000 1.000 68.800 320.300 )">100.00mm, burn:0.10mm</text>
</g>
<g id="p-1" style="fill:none;stroke-linecap:round;stroke-linejoin:round;">
  <text dominant-baseline="hanging" font-size="4px" style="font-family: sans-serif ; font-weight: normal; font-style: normal; fill: rgb(255,0,0)" text-anchor="middle" transform="matrix( 1.000 0.000 0.000 1.000 68.800 265.600 )">Wall 1</text><path d="M 21.800 314.600 H 29.700 C 29.800 314.600 29.700 314.500 29.700 314.600 V 317.500 C 29.700 317.555 29.745 317.600 29.800 317.600 H 35.800 C 35.855 317.600 35.900 317.555 35.900 317.500 V 314.600 C 35.900 314.500 35.800 314.600 35.900 314.600 H 41.700 C 41.800 314.600 41.700 314.500 41.700 314.600 V 317.500 C 41.700 317.555 41.745 317.600 41.800 317.600 H 47.800 C 47.855 317.600 47.900 317.555 47.900 317.500 V 314.600 C 47.900 314.500 47.800 314.600 47.900 314.600 H 53.700 C 53.800 314.600 53.700 314.500 53.700 314.600 V 317.500 C 53.700 317.555 53.745 317.600 53.800 317.600 H 59.800 C 59.855 317.600 59.900 317.555 59.900 317.500 V 314.600 C 59.900 314.500 59.800 314.600 59.900 314.600 H 65.700 C 65.800 314.600 65.700 314.500 65.700 314.600 V 317.500 C 65.700 317.555 65.745 317.600 65.800 317.600 H 71.800 C 71.855 317.600 71.900 317.555 71.900 317.500 V 314.600 C 71.900 314.500 71.800 314.600 71.900 314.600 H 77.700 C 77.800 314.600 77.700 314.500 77.700 314.600 V 317.500 C 77.700 317.555 77.745 317.600 77.800 317.600 H 83.800 C 83.855 317.600 83.900 317.555 83.900 317.500 V 314.600 C 83.900 314.500 83.800 314.600 83.900 314.600 H 89.700 C 89.800 314.600 89.700 314.500 89.700 314.600 V 317.500 C 89.700 317.555 89.745 317.600 89.800 317.600 H 95.800 C 95.855 317.600 95.900 317.555 95.900 317.500 V 314.600 C 95.900 314.500 95.800 314.600 95.900 314.600 H 101.700 C 101.800 314.600 101.700 314.500 101.700 314.600 V 317.500 C 101.700 317.555 101.745 317.600 101.800 317.600 H 107.800 C 107.855 317.600 107.900 317.555 107.900 317.500 V 314.600 C 107.900 314.500 107.800 314.600 107.900 314.600 H 115.800 C 115.855 314.600 115.900 314.555 115.900 314.500 V 306.600 C 115.900 306.500 115.800 306.600 115.900 306.600 H 118.800 C 118.855 306.600 118.900 306.555 118.900 306.500 V 300.500 C 118.900 300.445 118.855 300.400 118.800 300.400 H 115.900 C 115.800 300.400 115.900 300.500 115.900 300.400 V 294.600 C 115.900 294.500 115.800 294.600 115.900 294.600 H 118.800 C 118.855 294.600 118.900 294.555 118.900 294.500 V 288.500 C 118.900 288.445 118.855 288.400 118.800 288.400 H 115.900 C 115.800 288.400 115.900 288.500 115.900 288.400 V 282.600 C 115.900 282.500 115.800 282.600 115.900 282.600 H 118.800 C 118.855 282.600 118.900 282.555 118.900 282.500 V 276.500 C 118.900 276.445 118.855 276.400 118.800 276.400 H 115.900 C 115.800 276.400 115.900 276.500 115.900 276.400 V 270.600 C 115.900 270.500 115.800 270.600 115.900 270.600 H 118.800 C 118.855 270.600 118.900 270.555 118.900 270.500 V 264.500 C 118.900 264.445 118.855 264.400 118.800 264.400 H 115.900 C 115.800 264.400 115.900 264.500 115.900 264.400 V 258.600 C 115.900 258.500 115.800 258.600 115.900 258.600 H 118.800 C 118.855 258.600 118.900 258.555 118.900 258.500 V 252.500 C 118.900 252.445 118.855 252.400 118.800 252.400 H 115.900 C 115.800 252.400 115.900 252.500 115.900 252.400 V 246.600 C 115.900 246.500 115.800 246.600 115.900 246.600 H 118.800 C 118.855 246.600 118.900 246.555 118.900 246.500 V 240.500 C 118.900 240.445 118.855 240.400 118.800 240.400 H 115.900 C 115.800 240.400 115.900 240.500 115.900 240.400 V 234.600 C 115.900 234.500 115.800 234.600 115.900 234.600 H 118.800 C 118.855 234.600 118.900 234.555 118.900 234.500 V 228.500 C 118.900 228.445 118.855 228.400 118.800 228.400 H 115.900 C 115.800 228.400 115.900 228.500 115.900 228.400 V 220.500 C 115.900 220.445 115.855 220.400 115.800 220.400 H 107.900 C 107.800 220.400 107.900 220.500 107.900 220.400 V 217.500 C 107.900 217.445 107.855 217.400 107.800 217.400 H 101.800 C 101.745 217.400 101.700 217.445 101.700 217.500 V 220.400 C 101.700 220.500 101.800 220.400 101.700 220.400 H 95.900 C 95.800 220.400 95.900 220.500 95.900 220.400 V 217.500 C 95.900 217.445 95.855 217.400 95.800 217.400 H 89.800 C 89.745 217.400 89.700 217.445 89.700 217.500 V 220.400 C 89.700 220.500 89.800 220.400 89.700 220.400 H 83.900 C 83.800 220.400 83.900 220.500 83.900 220.400 V 217.500 C 83.900 217.445 83.855 217.400 83.800 217.400 H 77.800 C 77.745 217.400 77.700 217.445 77.700 217.500 V 220.400 C 77.700 220.500 77.800 220.400 77.700 220.400 H 71.900 C 71.800 220.400 71.900 220.500 71.900 220.400 V 217.500 C 71.900 217.445 71.855 217.400 71.800 217.400 H 65.800 C 65.745 217.400 65.700 217.445 65.700 217.500 V 220.400 C 65.700 220.500 65.800 220.400 65.700 220.400 H 59.900 C 59.800 220.400 59.900 220.500 59.900 220.400 V 217.500 C 59.900 217.445 59.855 217.400 59.800 217.400 H 53.800 C 53.745 217.400 53.700 217.445 53.700 217.500 V 220.400 C 53.700 220.500 53.800 220.400 53.700 220.400 H 47.900 C 47.800 220.400 47.900 220.500 47.900 220.400 V 217.500 C 47.900 217.445 47.855 217.400 47.800 217.400 H 41.800 C 41.745 217.400 41.700 217.445 41.700 217.500 V 220.400 C 41.700 220.500 41.800 220.400 41.700 220.400 H 35.900 C 35.800 220.400 35.900 220.500 35.900 220.400 V 217.500 C 35.900 217.445 35.855 217.400 35.800 217.400 H 29.800 C 29.745 217.400 29.700 217.445 29.700 217.500 V 220.400 C 29.700 220.500 29.800 220.400 29.700 220.400 H 21.800 C 21.745 220.400 21.700 220.445 21.700 220.500 V 228.400 C 21.700 228.500 21.800 228.400 21.700 228.400 H 18.800 C 18.745 228.400 18.700 228.445 18.700 228.500 V 234.500 C 18.700 234.555 18.745 234.600 18.800 234.600 H 21.700 C 21.800 234.600 21.700 234.500 21.700 234.600 V 240.400 C 21.700 240.500 21.800 240.400 21.700 240.400 H 18.800 C 18.745 240.400 18.700 240.445 18.700 240.500 V 246.500 C 18.700 246.555 18.745 246.600 18.800 246.600 H 21.700 C 21.800 246.600 21.700 246.500 21.700 246.600 V 252.400 C 21.700 252.500 21.800 252.400 21.700 252.400 H 18.800 C 18.745 252.400 18.700 252.445 18.700 252.500 V 258.500 C 18.700 258.555 18.745 258.600 18.800 258.600 H 21.700 C 21.800 258.600 21.700 258.500 21.700 258.600 V 264.400 C 21.700 264.500 21.800 264.400 21.700 264.400 H 18.800 C 18.745 264.400 18.700 264.445 18.700 264.500 V 270.500 C 18.700 270.555 18.745 270.600 18.800 270.600 H 21.700 C 21.800 270.600 21.700 270.500 21.700 270.600 V 276.400 C 21.700 276.500 21.800 276.400 21.700 276.400 H 18.800 C 18.745 276.400 18.700 276.445 18.700 276.500 V 282.500 C 18.700 282.555 18.745 282.600 18.800 282.600 H 21.700 C 21.800 282.600 21.700 282.500 21.700 282.600 V 288.400 C 21.700 288.500 21.800 288.400 21.700 288.400 H 18.800 C 18.745 288.400 18.700 288.445 18.700 288.500 V 294.500 C 18.700 294.555 18.745 294.600 18.800 294.600 H 21.700 C 21.800 294.600 21.700 294.500 21.700 294.600 V 300.400 C 21.700 300.500 21.800 300.400 21.700 300.400 H 18.800 C 18.745 300.400 18.700 300.445 18.700 300.500 V 306.500 C 18.700 306.555 18.745 306.600 18.800 306.600 H 21.700 C 21.800 306.600 21.700 306.500 21.700 306.600 V 314.500 C 21.700 314.555 21.745 314.600 21.800 314.600" stroke="rgb(0,0,0)" stroke-width="0.20" />
</g>
<g id="p-2" style="fill:none;stroke-linecap:round;stroke-linejoin:round;">
  <text dominant-baseline="hanging" font-size="4px" style="font-family: sans-serif ; font-weight: normal; font-style: normal; fill: rgb(255,0,0)" text-anchor="middle" transform="matrix( 1.000 0.000 0.000 1.000 170.500 265.600 )">Wall 2</text><path d="M 123.500 314.600 H 131.400 C 131.500 314.600 131.400 314.500 131.400 314.600 V 317.500 C 131.400 317.555 131.445 317.600 131.500 317.600 H 137.500 C 137.555 317.600 137.600 317.555 137.600 317.500 V 314.600 C 137.600 314.500 137.500 314.600 137.600 314.600 H 143.400 C 143.500 314.600 143.400 314.500 143.400 314.600 V 317.500 C 143.400 317.555 143.445 317.600 143.500 317.600 H 149.500 C 149.555 317.600 149.600 317.555 149.600 317.500 V 314.600 C 149.600 314.500 149.500 314.600 149.600 314.600 H 155.400 C 155.500 314.600 155.400 314.500 155.400 314.600 V 317.500 C 155.400 317.555 155.445 317.600 155.500 317.600 H 161.500 C 161.555 317.600 161.600 317.555 161.600 317.500 V 314.600 C 161.600 314.500 161.500 314.600 161.600 314.600 H 167.400 C 167.500 314.600 167.400 314.500 167.400 314.600 V 317.500 C 167.400 317.555 167.445 317.600 167.500 317.600 H 173.500 C 173.555 317.600 173.600 317.555 173.600 317.500 V 314.600 C 173.600 314.500 173.500 314.600 173.600 314.600 H 179.400 C 179.500 314.600 179.400 314.500 179.400 314.600 V 317.500 C 179.400 317.555 179.445 317.600 179.500 317.600 H 185.500 C 185.555 317.600 185.600 317.555 185.600 317.500 V 314.600 C 185.600 314.500 185.500 314.600 185.600 314.600 H 191.400 C 191.500 314.600 191.400 314.500 191.400 314.600 V 317.500 C 191.400 317.555 191.445 317.600 191.500 317.600 H 197.500 C 197.555 317.600 197.600 317.555 197.600 317.500 V 314.600 C 197.600 314.500 197.500 314.600 197.600 314.600 H 203.400 C 203.500 314.600 203.400 314.500 203.400 314.600 V 317.500 C 203.400 317.555 203.445 317.600 203.500 317.600 H 209.500 C 209.555 317.600 209.600 317.555 209.600 317.500 V 314.600 C 209.600 314.500 209.500 314.600 209.600 314.600 H 217.500 H 220.500 C 220.555 314.600 220.600 314.555 220.600 314.500 V 306.500 C 220.600 306.445 220.555 306.400 220.500 306.400 H 217.600 C 217.500 306.400 217.600 306.500 217.600 306.400 V 300.600 C 217.600 300.500 217.500 300.600 217.600 300.600 H 220.500 C 220.555 300.600 220.600 300.555 220.600 300.500 V 294.500 C 220.600 294.445 220.555 294.400 220.500 294.400 H 217.600 C 217.500 294.400 217.600 294.500 217.600 294.400 V 288.600 C 217.600 288.500 217.500 288.600 217.600 288.600 H 220.500 C 220.555 288.600 220.600 288.555 220.600 288.500 V 282.500 C 220.600 282.445 220.555 282.400 220.500 282.400 H 217.600 C 217.500 282.400 217.600 282.500 217.600 282.400 V 276.600 C 217.600 276.500 217.500 276.600 217.600 276.600 H 220.500 C 220.555 276.600 220.600 276.555 220.600 276.500 V 270.500 C 220.600 270.445 220.555 270.400 220.500 270.400 H 217.600 C 217.500 270.400 217.600 270.500 217.600 270.400 V 264.600 C 217.600 264.500 217.500 264.600 217.600 264.600 H 220.500 C 220.555 264.600 220.600 264.555 220.600 264.500 V 258.500 C 220.600 258.445 220.555 258.400 220.500 258.400 H 217.600 C 217.500 258.400 217.600 258.500 217.600 258.400 V 252.600 C 217.600 252.500 217.500 252.600 217.600 252.600 H 220.500 C 220.555 252.600 220.600 252.555 220.600 252.500 V 246.500 C 220.600 246.445 220.555 246.400 220.500 246.400 H 217.600 C 217.500 246.400 217.600 246.500 217.600 246.400 V 240.600 C 217.600 240.500 217.500 240.600 217.600 240.600 H 220.500 C 220.555 240.600 220.600 240.555 220.600 240.500 V 234.500 C 220.600 234.445 220.555 234.400 220.500 234.400 H 217.600 C 217.500 234.400 217.600 234.500 217.600 234.400 V 228.600 C 217.600 228.500 217.500 228.600 217.600 228.600 H 220.500 C 220.555 228.600 220.600 228.555 220.600 228.500 V 220.500 C 220.600 220.445 220.555 220.400 220.500 220.400 H 217.500 H 209.600 C 209.500 220.400 209.600 220.500 209.600 220.400 V 217.500 C 209.600 217.445 209.555 217.400 209.500 217.400 H 203.500 C 203.445 217.400 203.400 217.445 203.400 217.500 V 220.400 C 203.400 220.500 203.500 220.400 203.400 220.400 H 197.600 C 197.500 220.400 197.600 220.500 197.600 220.400 V 217.500 C 197.600 217.445 197.555 217.400 197.500 217.400 H 191.500 C 191.445 217.400 191.400 217.445 191.400 217.500 V 220.400 C 191.400 220.500 191.500 220.400 191.400 220.400 H 185.600 C 185.500 220.400 185.600 220.500 185.600 220.400 V 217.500 C 185.600 217.445 185.555 217.400 185.500 217.400 H 179.500 C 179.445 217.400 179.400 217.445 179.400 217.500 V 220.400 C 179.400 220.500 179.500 220.400 179.400 220.400 H 173.600 C 173.500 220.400 173.600 220.500 173.600 220.400 V 217.500 C 173.600 217.445 173.555 217.400 173.500 217.400 H 167.500 C 167.445 217.400 167.400 217.445 167.400 217.500 V 220.400 C 167.400 220.500 167.500 220.400 167.400 220.400 H 161.600 C 161.500 220.400 161.600 220.500 161.600 220.400 V 217.500 C 161.600 217.445 161.555 217.400 161.500 217.400 H 155.500 C 155.445 217.400 155.400 217.445 155.400 217.500 V 220.400 C 155.400 220.500 155.500 220.400 155.400 220.400 H 149.600 C 149.500 220.400 149.600 220.500 149.600 220.400 V 217.500 C 149.600 217.445 149.555 217.400 149.500 217.400 H 143.500 C 143.445 217.400 143.400 217.445 143.400 217.500 V 220.400 C 143.400 220.500 143.500 220.400 143.400 220.400 H 137.600 C 137.500 220.400 137.600 220.500 137.600 220.400 V 217.500 C 137.600 217.445 137.555 217.400 137.500 217.400 H 131.500 C 131.445 217.400 131.400 217.445 131.400 217.500 V 220.400 C 131.400 220.500 131.500 220.400 131.400 220.400 H 123.500 H 120.500 C 120.445 220.400 120.400 220.445 120.400 220.500 V 228.500 C 120.400 228.555 120.445 228.600 120.500 228.600 H 123.400 C 123.500 228.600 123.400 228.500 123.400 228.600 V 234.400 C 123.400 234.500 123.500 234.400 123.400 234.400 H 120.500 C 120.445 234.400 120.400 234.445 120.400 234.500 V 240.500 C 120.400 240.555 120.445 240.600 120.500 240.600 H 123.400 C 123.500 240.600 123.400 240.500 123.400 240.600 V 246.400 C 123.400 246.500 123.500 246.400 123.400 246.400 H 120.500 C 120.445 246.400 120.400 246.445 120.400 246.500 V 252.500 C 120.400 252.555 120.445 252.600 120.500 252.600 H 123.400 C 123.500 252.600 123.400 252.500 123.400 252.600 V 258.400 C 123.400 258.500 123.500 258.400 123.400 258.400 H 120.500 C 120.445 258.400 120.400 258.445 120.400 258.500 V 264.500 C 120.400 264.555 120.445 264.600 120.500 264.600 H 123.400 C 123.500 264.600 123.400 264.500 123.400 264.600 V 270.400 C 123.400 270.500 123.500 270.400 123.400 270.400 H 120.500 C 120.445 270.400 120.400 270.445 120.400 270.500 V 276.500 C 120.400 276.555 120.445 276.600 120.500 276.600 H 123.400 C 123.500 276.600 123.400 276.500 123.400 276.600 V 282.400 C 123.400 282.500 123.500 282.400 123.400 282.400 H 120.500 C 120.445 282.400 120.400 282.445 120.400 282.500 V 288.500 C 120.400 288.555 120.445 288.600 120.500 288.600 H 123.400 C 123.500 288.600 123.400 288.500 123.400 288.600 V 294.400 C 123.400 294.500 123.500 294.400 123.400 294.400 H 120.500 C 120.445 294.400 120.400 294.445 120.400 294.500 V 300.500 C 120.400 300.555 120.445 300.600 120.500 300.600 H 123.400 C 123.500 300.600 123.400 300.500 123.400 300.600 V 306.400 C 123.400 306.500 123.500 306.400 123.400 306.400 H 120.500 C 120.445 306.400 120.400 306.445 120.400 306.500 V 314.500 C 120.400 314.555 120.445 314.600 120.500 314.600 H 123.500" stroke="rgb(0,0,0)" stroke-width="0.20" />
</g>
<g id="p-3" style="fill:none;stroke-linecap:round;stroke-linejoin:round;">
  <text dominant-baseline="hanging" font-size="4px" style="font-family: sans-serif ; font-weight: normal; font-style: normal; fill: rgb(255,0,0)" text-anchor="middle" transform="matrix( 1.000 0.000 0.000 1.000 170.500 163.900 )">Wall 4</text><path d="M 123.500 212.900 H 131.400 C 131.500 212.900 131.400 212.800 131.400 212.900 V 215.800 C 131.400 215.855 131.445 215.900 131.500 215.900 H 137.500 C 137.555 215.900 137.600 215.855 137.600 215.800 V 212.900 C 137.600 212.800 137.500 212.900 137.600 212.900 H 143.400 C 143.500 212.900 143.400 212.800 143.400 212.900 V 215.800 C 143.400 215.855 143.445 215.900 143.500 215.900 H 149.500 C 149.555 215.900 149.600 215.855 149.600 215.800 V 212.900 C 149.600 212.800 149.500 212.900 149.600 212.900 H 155.400 C 155.500 212.900 155.400 212.800 155.400 212.900 V 215.800 C 155.400 215.855 155.445 215.900 155.500 215.900 H 161.500 C 161.555 215.900 161.600 215.855 161.600 215.800 V 212.900 C 161.600 212.800 161.500 212.900 161.600 212.900 H 167.400 C 167.500 212.900 167.400 212.800 167.400 212.900 V 215.800 C 167.400 215.855 167.445 215.900 167.500 215.900 H 173.500 C 173.555 215.900 173.600 215.855 173.600 215.800 V 212.900 C 173.600 212.800 173.500 212.900 173.600 212.900 H 179.400 C 179.500 212.900 179.400 212.800 179.400 212.900 V 215.800 C 179.400 215.855 179.445 215.900 179.500 215.900 H 185.500 C 185.555 215.900 185.600 215.855 185.600 215.800 V 212.900 C 185.600 212.800 185.500 212.900 185.600 212.900 H 191.400 C 191.500 212.900 191.400 212.800 191.400 212.900 V 215.800 C 191.400 215.855 191.445 215.900 191.500 215.900 H 197.500 C 197.555 215.900 197.600 215.855 197.600 215.800 V 212.900 C 197.600 212.800 197.500 212.900 197.600 212.900 H 203.400 C 203.500 212.900 203.400 212.800 203.400 212.900 V 215.800 C 203.400 215.855 203.445 215.900 203.500 215.900 H 209.500 C 209.555 215.900 209.600 215.855 209.600 215.800 V 212.900 C 209.600 212.800 209.500 212.900 209.600 212.900 H 217.500 H 220.500 C 220.555 212.900 220.600 212.855 220.600 212.800 V 204.800 C 220.600 204.745 220.555 204.700 220.500 204.700 H 217.600 C 217.500 204.700 217.600 204.800 217.600 204.700 V 198.900 C 217.600 198.800 217.500 198.900 217.600 198.900 H 220.500 C 220.555 198.900 220.600 198.855 220.600 198.800 V 192.800 C 220.600 192.745 220.555 192.700 220.500 192.700 H 217.600 C 217.500 192.700 217.600 192.800 217.600 192.700 V 186.900 C 217.600 186.800 217.500 186.900 217.600 186.900 H 220.500 C 220.555 186.900 220.600 186.855 220.600 186.800 V 180.800 C 220.600 180.745 220.555 180.700 220.500 180.700 H 217.600 C 217.500 180.700 217.600 180.800 217.600 180.700 V 174.900 C 217.600 174.800 217.500 174.900 217.600 174.900 H 220.500 C 220.555 174.900 220.600 174.855 220.600 174.800 V 168.800 C 220.600 168.745 220.555 168.700 220.500 168.700 H 217.600 C 217.500 168.700 217.600 168.800 217.600 168.700 V 162.900 C 217.600 162.800 217.500 162.900 217.600 162.900 H 220.500 C 220.555 162.900 220.600 162.855 220.600 162.800 V 156.800 C 220.600 156.745 220.555 156.700 220.500 156.700 H 217.600 C 217.500 156.700 217.600 156.800 217.600 156.700 V 150.900 C 217.600 150.800 217.500 150.900 217.600 150.900 H 220.500 C 220.555 150.900 220.600 150.855 220.600 150.800 V 144.800 C 220.600 144.745 220.555 144.700 220.500 144.700 H 217.600 C 217.500 144.700 217.600 144.800 217.600 144.700 V 138.900 C 217.600 138.800 217.500 138.900 217.600 138.900 H 220.500 C 220.555 138.900 220.600 138.855 220.600 138.800 V 132.800 C 220.600 132.745 220.555 132.700 220.500 132.700 H 217.600 C 217.500 132.700 217.600 132.800 217.600 132.700 V 126.900 C 217.600 126.800 217.500 126.900 217.600 126.900 H 220.500 C 220.555 126.900 220.600 126.855 220.600 126.800 V 118.800 C 220.600 118.745 220.555 118.700 220.500 118.700 H 217.500 H 209.600 C 209.500 118.700 209.600 118.800 209.600 118.700 V 115.800 C 209.600 115.745 209.555 115.700 209.500 115.700 H 203.500 C 203.445 115.700 203.400 115.745 203.400 115.800 V 118.700 C 203.400 118.800 203.500 118.700 203.400 118.700 H 197.600 C 197.500 118.700 197.600 118.800 197.600 118.700 V 115.800 C 197.600 115.745 197.555 115.700 197.500 115.700 H 191.500 C 191.445 115.700 191.400 115.745 191.400 115.800 V 118.700 C 191.400 118.800 191.500 118.700 191.400 118.700 H 185.600 C 185.500 118.700 185.600 118.800 185.600 118.700 V 115.800 C 185.600 115.745 185.555 115.700 185.500 115.700 H 179.500 C 179.445 115.700 179.400 115.745 179.400 115.800 V 118.700 C 179.400 118.800 179.500 118.700 179.400 118.700 H 173.600 C 173.500 118.700 173.600 118.800 173.600 118.700 V 115.800 C 173.600 115.745 173.555 115.700 173.500 115.700 H 167.500 C 167.445 115.700 167.400 115.745 167.400 115.800 V 118.700 C 167.400 118.800 167.500 118.700 167.400 118.700 H 161.600 C 161.500 118.700 161.600 118.800 161.600 118.700 V 115.800 C 161.600 115.745 161.555 115.700 161.500 115.700 H 155.500 C 155.445 115.700 155.400 115.745 155.400 115.800 V 118.700 C 155.400 118.800 155.500 118.700 155.400 118.700 H 149.600 C 149.500 118.700 149.600 118.800 149.600 118.700 V 115.800 C 149.600 115.745 149.555 115.700 149.500 115.700 H 143.500 C 143.445 115.700 143.400 115.745 143.400 115.800 V 118.700 C 143.400 118.800 143.500 118.700 143.400 118.700 H 137.600 C 137.500 118.700 137.600 118.800 137.600 118.700 V 115.800 C 137.600 115.745 137.555 115.700 137.500 115.700 H 131.500 C 131.445 115.700 131.400 115.745 131.400 115.800 V 118.700 C 131.400 118.800 131.500 118.700 131.400 118.700 H 123.500 H 120.500 C 120.445 118.700 120.400 118.745 120.400 118.800 V 126.800 C 120.400 126.855 120.445 126.900 120.500 126.900 H 123.400 C 123.500 126.900 123.400 126.800 123.400 126.900 V 132.700 C 123.400 132.800 123.500 132.700 123.400 132.700 H 120.500 C 120.445 132.700 120.400 132.745 120.400 132.800 V 138.800 C 120.400 138.855 120.445 138.900 120.500 138.900 H 123.400 C 123.500 138.900 123.400 138.800 123.400 138.900 V 144.700 C 123.400 144.800 123.500 144.700 123.400 144.700 H 120.500 C 120.445 144.700 120.400 144.745 120.400 144.800 V 150.800 C 120.400 150.855 120.445 150.900 120.500 150.900 H 123.400 C 123.500 150.900 123.400 150.800 123.400 150.900 V 156.700 C 123.400 156.800 123.500 156.700 123.400 156.700 H 120.500 C 120.445 156.700 120.400 156.745 120.400 156.800 V 162.800 C 120.400 162.855 120.445 162.900 120.500 162.900 H 123.400 C 123.500 162.900 123.400 162.800 123.400 162.900 V 168.700 C 123.400 168.800 123.500 168.700 123.400 168.700 H 120.500 C 120.445 168.700 120.400 168.745 120.400 168.800 V 174.800 C 120.400 174.855 120.445 174.900 120.500 174.900 H 123.400 C 123.500 174.900 123.400 174.800 123.400 174.900 V 180.700 C 123.400 180.800 123.500 180.700 123.400 180.700 H 120.500 C 120.445 180.700 120.400 180.745 120.400 180.800 V 186.800 C 120.400 186.855 120.445 186.900 120.500 186.900 H 123.400 C 123.500 186.900 123.400 186.800 123.400 186.900 V 192.700 C 123.400 192.800 123.500 192.700 123.400 192.700 H 120.500 C 120.445 192.700 120.400 192.745 120.400 192.800 V 198.800 C 120.400 198.855 120.445 198.900 120.500 198.900 H 123.400 C 123.500 198.900 123.400 198.800 123.400 198.900 V 204.700 C 123.400 204.800 123.500 204.700 123.400 204.700 H 120.500 C 120.445 204.700 120.400 204.745 120.400 204.800 V 212.800 C 120.400 212.855 120.445 212.900 120.500 212.900 H 123.500" stroke="rgb(0,0,0)" stroke-width="0.20" />
</g>
<g id="p-4" style="fill:none;stroke-linecap:round;stroke-linejoin:round;">
  <text dominant-baseline="hanging" font-size="4px" style="font-family: sans-serif ; font-weight: normal; font-style: normal; fill: rgb(255,0,0)" text-anchor="middle" transform="matrix( 1.000 0.000 0.000 1.000 68.800 163.900 )">Wall 3</text><path d="M 21.800 212.900 H 29.700 C 29.800 212.900 29.700 212.800 29.700 212.900 V 215.800 C 29.700 215.855 29.745 215.900 29.800 215.900 H 35.800 C 35.855 215.900 35.900 215.855 35.900 215.800 V 212.900 C 35.900 212.800 35.800 212.900 35.900 212.900 H 41.700 C 41.800 212.900 41.700 212.800 41.700 212.900 V 215.800 C 41.700 215.855 41.745 215.900 41.800 215.900 H 47.800 C 47.855 215.900 47.900 215.855 47.900 215.800 V 212.900 C 47.900 212.800 47.800 212.900 47.900 212.900 H 53.700 C 53.800 212.900 53.700 212.800 53.700 212.900 V 215.800 C 53.700 215.855 53.745 215.900 53.800 215.900 H 59.800 C 59.855 215.900 59.900 215.855 59.900 215.800 V 212.900 C 59.900 212.800 59.800 212.900 59.900 212.900 H 65.700 C 65.800 212.900 65.700 212.800 65.700 212.900 V 215.800 C 65.700 215.855 65.745 215.900 65.800 215.900 H 71.800 C 71.855 215.900 71.900 215.855 71.900 215.800 V 212.900 C 71.900 212.800 71.800 212.900 71.900 212.900 H 77.700 C 77.800 212.900 77.700 212.800 77.700 212.900 V 215.800 C 77.700 215.855 77.745 215.900 77.800 215.900 H 83.800 C 83.855 215.900 83.900 215.855 83.900 215.800 V 212.900 C 83.900 212.800 83.800 212.900 83.900 212.900 H 89.700 C 89.800 212.900 89.700 212.800 89.700 212.900 V 215.800 C 89.700 215.855 89.745 215.900 89.800 215.900 H 95.800 C 95.855 215.900 95.900 215.855 95.900 215.800 V 212.900 C 95.900 212.800 95.800 212.900 95.900 212.900 H 101.700 C 101.800 212.900 101.700 212.800 101.700 212.900 V 215.800 C 101.700 215.855 101.745 215.900 101.800 215.900 H 107.800 C 107.855 215.900 107.900 215.855 107.900 215.800 V 212.900 C 107.900 212.800 107.800 212.900 107.900 212.900 H 115.800 C 115.855 212.900 115.900 212.855 115.900 212.800 V 204.900 C 115.900 204.800 115.800 204.900 115.900 204.900 H 118.800 C 118.855 204.900 118.900 204.855 118.900 204.800 V 198.800 C 118.900 198.745 118.855 198.700 118.800 198.700 H 115.900 C 115.800 198.700 115.900 198.800 115.900 198.700 V 192.900 C 115.900 192.800 115.800 192.900 115.900 192.900 H 118.800 C 118.855 192.900 118.900 192.855 118.900 192.800 V 186.800 C 118.900 186.745 118.855 186.700 118.800 186.700 H 115.900 C 115.800 186.700 115.900 186.800 115.900 186.700 V 180.900 C 115.900 180.800 115.800 180.900 115.900 180.900 H 118.800 C 118.855 180.900 118.900 180.855 118.900 180.800 V 174.800 C 118.900 174.745 118.855 174.700 118.800 174.700 H 115.900 C 115.800 174.700 115.900 174.800 115.900 174.700 V 168.900 C 115.900 168.800 115.800 168.900 115.900 168.900 H 118.800 C 118.855 168.900 118.900 168.855 118.900 168.800 V 162.800 C 118.900 162.745 118.855 162.700 118.800 162.700 H 115.900 C 115.800 162.700 115.900 162.800 115.900 162.700 V 156.900 C 115.900 156.800 115.800 156.900 115.900 156.900 H 118.800 C 118.855 156.900 118.900 156.855 118.900 156.800 V 150.800 C 118.900 150.745 118.855 150.700 118.800 150.700 H 115.900 C 115.800 150.700 115.900 150.800 115.900 150.700 V 144.900 C 115.900 144.800 115.800 144.900 115.900 144.900 H 118.800 C 118.855 144.900 118.900 144.855 118.900 144.800 V 138.800 C 118.900 138.745 118.855 138.700 118.800 138.700 H 115.900 C 115.800 138.700 115.900 138.800 115.900 138.700 V 132.900 C 115.900 132.800 115.800 132.900 115.900 132.900 H 118.800 C 118.855 132.900 118.900 132.855 118.900 132.800 V 126.800 C 118.900 126.745 118.855 126.700 118.800 126.700 H 115.900 C 115.800 126.700 115.900 126.800 115.900 126.700 V 118.800 C 115.900 118.745 115.855 118.700 115.800 118.700 H 107.900 C 107.800 118.700 107.900 118.800 107.900 118.700 V 115.800 C 107.900 115.745 107.855 115.700 107.800 115.700 H 101.800 C 101.745 115.700 101.700 115.745 101.700 115.800 V 118.700 C 101.700 118.800 101.800 118.700 101.700 118.700 H 95.900 C 95.800 118.700 95.900 118.800 95.900 118.700 V 115.800 C 95.900 115.745 95.855 115.700 95.800 115.700 H 89.800 C 89.745 115.700 89.700 115.745 89.700 115.800 V 118.700 C 89.700 118.800 89.800 118.700 89.700 118.700 H 83.900 C 83.800 118.700 83.900 118.800 83.900 118.700 V 115.800 C 83.900 115.745 83.855 115.700 83.800 115.700 H 77.800 C 77.745 115.700 77.700 115.745 77.700 115.800 V 118.700 C 77.700 118.800 77.800 118.700 77.700 118.700 H 71.900 C 71.800 118.700 71.900 118.800 71.900 118.700 V 115.800 C 71.900 115.745 71.855 115.700 71.800 115.700 H 65.800 C 65.745 115.700 65.700 115.745 65.700 115.800 V 118.700 C 65.700 118.800 65.800 118.700 65.700 118.700 H 59.900 C 59.800 118.700 59.900 118.800 59.900 118.700 V 115.800 C 59.900 115.745 59.855 115.700 59.800 115.700 H 53.800 C 53.745 115.700 53.700 115.745 53.700 115.800 V 118.700 C 53.700 118.800 53.800 118.700 53.700 118.700 H 47.900 C 47.800 118.700 47.900 118.800 47.900 118.700 V 115.800 C 47.900 115.745 47.855 115.700 47.800 115.700 H 41.800 C 41.745 115.700 41.700 115.745 41.700 115.800 V 118.700 C 41.700 118.800 41.800 118.700 41.700 118.700 H 35.900 C 35.800 118.700 35.900 118.800 35.900 118.700 V 115.800 C 35.900 115.745 35.855 115.700 35.800 115.700 H 29.800 C 29.745 115.700 29.700 115.745 29.700 115.800 V 118.700 C 29.700 118.800 29.800 118.700 29.700 118.700 H 21.800 C 21.745 118.700 21.700 118.745 21.700 118.800 V 126.700 C 21.700 126.800 21.800 126.700 21.700 126.700 H 18.800 C 18.745 126.700 18.700 126.745 18.700 126.800 V 132.800 C 18.700 132.855 18.745 132.900 18.800 132.900 H 21.700 C 21.800 132.900 21.700 132.800 21.700 132.900 V 138.700 C 21.700 138.800 21.800 138.700 21.700 138.700 H 18.800 C 18.745 138.700 18.700 138.745 18.700 138.800 V 144.800 C 18.700 144.855 18.745 144.900 18.800 144.900 H 21.700 C 21.800 144.900 21.700 144.800 21.700 144.900 V 150.700 C 21.700 150.800 21.800 150.700 21.700 150.700 H 18.800 C 18.745 150.700 18.700 150.745 18.700 150.800 V 156.800 C 18.700 156.855 18.745 156.900 18.800 156.900 H 21.700 C 21.800 156.900 21.700 156.800 21.700 156.900 V 162.700 C 21.700 162.800 21.800 162.700 21.700 162.700 H 18.800 C 18.745 162.700 18.700 162.745 18.700 162.800 V 168.800 C 18.700 168.855 18.745 168.900 18.800 168.900 H 21.700 C 21.800 168.900 21.700 168.800 21.700 168.900 V 174.700 C 21.700 174.800 21.800 174.700 21.700 174.700 H 18.800 C 18.745 174.700 18.700 174.745 18.700 174.800 V 180.800 C 18.700 180.855 18.745 180.900 18.800 180.900 H 21.700 C 21.800 180.900 21.700 180.800 21.700 180.900 V 186.700 C 21.700 186.800 21.800 186.700 21.700 186.700 H 18.800 C 18.745 186.700 18.700 186.745 18.700 186.800 V 192.800 C 18.700 192.855 18.745 192.900 18.800 192.900 H 21.700 C 21.800 192.900 21.700 192.800 21.700 192.900 V 198.700 C 21.700 198.800 21.800 198.700 21.700 198.700 H 18.800 C 18.745 198.700 18.700 198.745 18.700 198.800 V 204.800 C 18.700 204.855 18.745 204.900 18.800 204.900 H 21.700 C 21.800 204.900 21.700 204.800 21.700 204.900 V 212.800 C 21.700 212.855 21.745 212.900 21.800 212.900" stroke="rgb(0,0,0)" stroke-width="0.20" />
</g>
<g id="p-5" style="fill:none;stroke-linecap:round;stroke-linejoin:round;">
  <path d="M 34.800 112.100 H 31.900 C 31.800 112.100 31.900 112.200 31.900 112.100 V 109.300 C 31.900 109.200 31.800 109.300 31.900 109.300 H 37.700 C 37.800 109.300 37.700 109.200 37.700 109.300 V 112.100 C 37.700 112.200 37.800 112.100 37.700 112.100 H 34.800 Z" stroke="rgb(0,0,255)" stroke-width="0.20" />
  <path d="M 46.800 112.100 H 43.900 C 43.800 112.100 43.900 112.200 43.900 112.100 V 109.300 C 43.900 109.200 43.800 109.300 43.900 109.300 H 49.700 C 49.800 109.300 49.700 109.200 49.700 109.300 V 112.100 C 49.700 112.200 49.800 112.100 49.700 112.100 H 46.800 Z" stroke="rgb(0,0,255)" stroke-width="0.20" />
  <path d="M 58.800 112.100 H 55.900 C 55.800 112.100 55.900 112.200 55.900 112.100 V 109.300 C 55.900 109.200 55.800 109.300 55.900 109.300 H 61.700 C 61.800 109.300 61.700 109.200 61.700 109.300 V 112.100 C 61.700 112.200 61.800 112.100 61.700 112.100 H 58.800 Z" stroke="rgb(0,0,255)" stroke-width="0.20" />
  <path d="M 70.800 112.100 H 67.900 C 67.800 112.100 67.900 112.200 67.900 112.100 V 109.300 C 67.900 109.200 67.800 109.300 67.900 109.300 H 73.700 C 73.800 109.300 73.700 109.200 73.700 109.300 V 112.100 C 73.700 112.200 73.800 112.100 73.700 112.100 H 70.800 Z" stroke="rgb(0,0,255)" stroke-width="0.20" />
  <path d="M 82.800 112.100 H 79.900 C 79.800 112.100 79.900 112.200 79.900 112.100 V 109.300 C 79.900 109.200 79.800 109.300 79.900 109.300 H 85.700 C 85.800 109.300 85.700 109.200 85.700 109.300 V 112.100 C 85.700 112.200 85.800 112.100 85.700 112.100 H 82.800 Z" stroke="rgb(0,0,255)" stroke-width="0.20" />
  <path d="M 94.800 112.100 H 91.900 C 91.800 112.100 91.900 112.200 91.900 112.100 V 109.300 C 91.900 109.200 91.800 109.300 91.900 109.300 H 97.700 C 97.800 109.300 97.700 109.200 97.700 109.300 V 112.100 C 97.700 112.200 97.800 112.100 97.700 112.100 H 94.800 Z" stroke="rgb(0,0,255)" stroke-width="0.20" />
  <path d="M 106.800 112.100 H 103.900 C 103.800 112.100 103.900 112.200 103.900 112.100 V 109.300 C 103.900 109.200 103.800 109.300 103.900 109.300 H 109.700 C 109.800 109.300 109.700 109.200 109.700 109.300 V 112.100 C 109.700 112.200 109.800 112.100 109.700 112.100 H 106.800 Z" stroke="rgb(0,0,255)" stroke-width="0.20" />
  <text dominant-baseline="hanging" font-size="4px" style="font-family: sans-serif ; font-weight: normal; font-style: normal; fill: rgb(255,0,0)" text-anchor="middle" transform="matrix( 1.000 0.000 0.000 1.000 70.800 60.200 )">Top</text><path d="M 18.800 114.200 H 122.800 C 122.855 114.200 122.900 114.155 122.900 114.100 V 10.100 C 122.900 10.045 122.855 10.000 122.800 10.000 H 18.800 C 18.745 10.000 18.700 10.045 18.700 10.100 V 114.100 C 18.700 114.155 18.745 114.200 18.800 114.200" stroke="rgb(0,0,0)" stroke-width="0.20" />
  <path d="M 120.800 98.100 V 101.000 C 120.800 101.100 120.900 101.000 120.800 101.000 H 118.000 C 117.900 101.000 118.000 101.100 118.000 101.000 V 95.200 C 118.000 95.100 117.900 95.200 118.000 95.200 H 120.800 C 120.900 95.200 120.800 95.100 120.800 95.200 V 98.100 Z" stroke="rgb(0,0,255)" stroke-width="0.20" />
  <path d="M 120.800 86.100 V 89.000 C 120.800 89.100 120.900 89.000 120.800 89.000 H 118.000 C 117.900 89.000 118.000 89.100 118.000 89.000 V 83.200 C 118.000 83.100 117.900 83.200 118.000 83.200 H 120.800 C 120.900 83.200 120.800 83.100 120.800 83.200 V 86.100 Z" stroke="rgb(0,0,255)" stroke-width="0.20" />
  <path d="M 120.800 74.100 V 77.000 C 120.800 77.100 120.900 77.000 120.800 77.000 H 118.000 C 117.900 77.000 118.000 77.100 118.000 77.000 V 71.200 C 118.000 71.100 117.900 71.200 118.000 71.200 H 120.800 C 120.900 71.200 120.800 71.100 120.800 71.200 V 74.100 Z" stroke="rgb(0,0,255)" stroke-width="0.20" />
  <path d="M 120.800 62.100 V 65.000 C 120.800 65.100 120.900 65.000 120.800 65.000 H 118.000 C 117.900 65.000 118.000 65.100 118.000 65.000 V 59.200 C 118.000 59.100 117.900 59.200 118.000 59.200 H 120.800 C 120.900 59.200 120.800 59.100 120.800 59.200 V 62.100 Z" stroke="rgb(0,0,255)" stroke-width="0.20" />
  <path d="M 120.800 50.100 V 53.000 C 120.800 53.100 120.900 53.000 120.800 53.000 H 118.000 C 117.900 53.000 118.000 53.100 118.000 53.000 V 47.200 C 118.000 47.100 117.900 47.200 118.000 47.200 H 120.800 C 120.900 47.200 120.800 47.100 120.800 47.200 V 50.100 Z" stroke="rgb(0,0,255)" stroke-width="0.20" />
  <path d="M 120.800 38.100 V 41.000 C 120.800 41.100 120.900 41.000 120.800 41.000 H 118.000 C 117.900 41.000 118.000 41.100 118.000 41.000 V 35.200 C 118.000 35.100 117.900 35.200 118.000 35.200 H 120.800 C 120.900 35.200 120.800 35.100 120.800 35.200 V 38.100 Z" stroke="rgb(0,0,255)" stroke-width="0.20" />
  <path d="M 120.800 26.100 V 29.000 C 120.800 29.100 120.900 29.000 120.800 29.000 H 118.000 C 117.900 29.000 118.000 29.100 118.000 29.000 V 23.200 C 118.000 23.100 117.900 23.200 118.000 23.200 H 120.800 C 120.900 23.200 120.800 23.100 120.800 23.200 V 26.100 Z" stroke="rgb(0,0,255)" stroke-width="0.20" />
  <path d="M 106.800 12.100 H 109.700 C 109.800 12.100 109.700 12.000 109.700 12.100 V 14.900 C 109.700 15.000 109.800 14.900 109.700 14.900 H 103.900 C 103.800 14.900 103.900 15.000 103.900 14.900 V 12.100 C 103.900 12.000 103.800 12.100 103.900 12.100 H 106.800 Z" stroke="rgb(0,0,255)" stroke-width="0.20" />
  <path d="M 94.800 12.100 H 97.700 C 97.800 12.100 97.700 12.000 97.700 12.100 V 14.900 C 97.700 15.000 97.800 14.900 97.700 14.900 H 91.900 C 91.800 14.900 91.900 15.000 91.900 14.900 V 12.100 C 91.900 12.000 91.800 12.100 91.900 12.100 H 94.800 Z" stroke="rgb(0,0,255)" stroke-width="0.20" />
  <path d="M 82.800 12.100 H 85.700 C 85.800 12.100 85.700 12.000 85.700 12.100 V 14.900 C 85.700 15.000 85.800 14.900 85.700 14.900 H 79.900 C 79.800 14.900 79.900 15.000 79.900 14.900 V 12.100 C 79.900 12.000 79.800 12.100 79.900 12.100 H 82.800 Z" stroke="rgb(0,0,255)" stroke-width="0.20" />
  <path d="M 70.800 12.100 H 73.700 C 73.800 12.100 73.700 12.000 73.700 12.100 V 14.900 C 73.700 15.000 73.800 14.900 73.700 14.900 H 67.900 C 67.800 14.900 67.900 15.000 67.900 14.900 V 12.100 C 67.900 12.000 67.800 12.100 67.900 12.100 H 70.800 Z" stroke="rgb(0,0,255)" stroke-width="0.20" />
  <path d="M 58.800 12.100 H 61.700 C 61.800 12.100 61.700 12.000 61.700 12.100 V 14.900 C 61.700 15.000 61.800 14.900 61.700 14.900 H 55.900 C 55.800 14.900 55.900 15.000 55.900 14.900 V 12.100 C 55.900 12.000 55.800 12.100 55.900 12.100 H 58.800 Z" stroke="rgb(0,0,255)" stroke-width="0.20" />
  <path d="M 46.800 12.100 H 49.700 C 49.800 12.100 49.700 12.000 49.700 12.100 V 14.900 C 49.700 15.000 49.800 14.900 49.700 14.900 H 43.900 C 43.800 14.900 43.900 15.000 43.900 14.900 V 12.100 C 43.900 12.000 43.800 12.100 43.900 12.100 H 46.800 Z" stroke="rgb(0,0,255)" stroke-width="0.20" />
  <path d="M 34.800 12.100 H 37.700 C 37.800 12.100 37.700 12.000 37.700 12.100 V 14.900 C 37.700 15.000 37.800 14.900 37.700 14.900 H 31.900 C 31.800 14.900 31.900 15.000 31.900 14.900 V 12.100 C 31.900 12.000 31.800 12.100 31.900 12.100 H 34.800 Z" stroke="rgb(0,0,255)" stroke-width="0.20" />
  <path d="M 20.800 26.100 V 23.200 C 20.800 23.100 20.700 23.200 20.800 23.200 H 23.600 C 23.700 23.200 23.600 23.100 23.600 23.200 V 29.000 C 23.600 29.100 23.700 29.000 23.600 29.000 H 20.800 C 20.700 29.000 20.800 29.100 20.800 29.000 V 26.100 Z" stroke="rgb(0,0,255)" stroke-width="0.20" />
  <path d="M 20.800 38.100 V 35.200 C 20.800 35.100 20.700 35.200 20.800 35.200 H 23.600 C 23.700 35.200 23.600 35.100 23.600 35.200 V 41.000 C 23.600 41.100 23.700 41.000 23.600 41.000 H 20.800 C 20.700 41.000 20.800 41.100 20.800 41.000 V 38.100 Z" stroke="rgb(0,0,255)" stroke-width="0.20" />
  <path d="M 20.800 50.100 V 47.200 C 20.800 47.100 20.700 47.200 20.800 47.200 H 23.600 C 23.700 47.200 23.600 47.100 23.600 47.200 V 53.000 C 23.600 53.100 23.700 53.000 23.600 53.000 H 20.800 C 20.700 53.000 20.800 53.100 20.800 53.000 V 50.100 Z" stroke="rgb(0,0,255)" stroke-width="0.20" />
  <path d="M 20.800 62.100 V 59.200 C 20.800 59.100 20.700 59.200 20.800 59.200 H 23.600 C 23.700 59.200 23.600 59.100 23.600 59.200 V 65.000 C 23.600 65.100 23.700 65.000 23.600 65.000 H 20.800 C 20.700 65.000 20.800 65.100 20.800 65.000 V 62.100 Z" stroke="rgb(0,0,255)" stroke-width="0.20" />
  <path d="M 20.800 74.100 V 71.200 C 20.800 71.100 20.700 71.200 20.800 71.200 H 23.600 C 23.700 71.200 23.600 71.100 23.600 71.200 V 77.000 C 23.600 77.100 23.700 77.000 23.600 77.000 H 20.800 C 20.700 77.000 20.800 77.100 20.800 77.000 V 74.100 Z" stroke="rgb(0,0,255)" stroke-width="0.20" />
  <path d="M 20.800 86.100 V 83.200 C 20.800 83.100 20.700 83.200 20.800 83.200 H 23.600 C 23.700 83.200 23.600 83.100 23.600 83.200 V 89.000 C 23.600 89.100 23.700 89.000 23.600 89.000 H 20.800 C 20.700 89.000 20.800 89.100 20.800 89.000 V 86.100 Z" stroke="rgb(0,0,255)" stroke-width="0.20" />
  <path d="M 20.800 98.100 V 95.200 C 20.800 95.100 20.700 95.200 20.800 95.200 H 23.600 C 23.700 95.200 23.600 95.100 23.600 95.200 V 101.000 C 23.600 101.100 23.700 101.000 23.600 101.000 H 20.800 C 20.700 101.000 20.800 101.100 20.800 101.000 V 98.100 Z" stroke="rgb(0,0,255)" stroke-width="0.20" />
</g>
<g id="p-6" style="fill:none;stroke-linecap:round;stroke-linejoin:round;">
  <path d="M 140.500 112.100 H 137.600 C 137.500 112.100 137.600 112.200 137.600 112.100 V 109.300 C 137.600 109.200 137.500 109.300 137.600 109.300 H 143.400 C 143.500 109.300 143.400 109.200 143.400 109.300 V 112.100 C 143.400 112.200 143.500 112.100 143.400 112.100 H 140.500 Z" stroke="rgb(0,0,255)" stroke-width="0.20" />
  <path d="M 152.500 112.100 H 149.600 C 149.500 112.100 149.600 112.200 149.600 112.100 V 109.300 C 149.600 109.200 149.500 109.300 149.600 109.300 H 155.400 C 155.500 109.300 155.400 109.200 155.400 109.300 V 112.100 C 155.400 112.200 155.500 112.100 155.400 112.100 H 152.500 Z" stroke="rgb(0,0,255)" stroke-width="0.20" />
  <path d="M 164.500 112.100 H 161.600 C 161.500 112.100 161.600 112.200 161.600 112.100 V 109.300 C 161.600 109.200 161.500 109.300 161.600 109.300 H 167.400 C 167.500 109.300 167.400 109.200 167.400 109.300 V 112.100 C 167.400 112.200 167.500 112.100 167.400 112.100 H 164.500 Z" stroke="rgb(0,0,255)" stroke-width="0.20" />
  <path d="M 176.500 112.100 H 173.600 C 173.500 112.100 173.600 112.200 173.600 112.100 V 109.300 C 173.600 109.200 173.500 109.300 173.600 109.300 H 179.400 C 179.500 109.300 179.400 109.200 179.400 109.300 V 112.100 C 179.400 112.200 179.500 112.100 179.400 112.100 H 176.500 Z" stroke="rgb(0,0,255)" stroke-width="0.20" />
  <path d="M 188.500 112.100 H 185.600 C 185.500 112.100 185.600 112.200 185.600 112.100 V 109.300 C 185.600 109.200 185.500 109.300 185.600 109.300 H 191.400 C 191.500 109.300 191.400 109.200 191.400 109.300 V 112.100 C 191.400 112.200 191.500 112.100 191.400 112.100 H 188.500 Z" stroke="rgb(0,0,255)" stroke-width="0.20" />
  <path d="M 200.500 112.100 H 197.600 C 197.500 112.100 197.600 112.200 197.600 112.100 V 109.300 C 197.600 109.200 197.500 109.300 197.600 109.300 H 203.400 C 203.500 109.300 203.400 109.200 203.400 109.300 V 112.100 C 203.400 112.200 203.500 112.100 203.400 112.100 H 200.500 Z" stroke="rgb(0,0,255)" stroke-width="0.20" />
  <path d="M 212.500 112.100 H 209.600 C 209.500 112.100 209.600 112.200 209.600 112.100 V 109.300 C 209.600 109.200 209.500 109.300 209.600 109.300 H 215.400 C 215.500 109.300 215.400 109.200 215.400 109.300 V 112.100 C 215.400 112.200 215.500 112.100 215.400 112.100 H 212.500 Z" stroke="rgb(0,0,255)" stroke-width="0.20" />
  <text dominant-baseline="hanging" font-size="4px" style="font-family: sans-serif ; font-weight: normal; font-style: normal; fill: rgb(255,0,0)" text-anchor="middle" transform="matrix( 1.000 0.000 0.000 1.000 176.500 60.200 )">Bottom</text><path d="M 124.500 114.200 H 228.500 C 228.555 114.200 228.600 114.155 228.600 114.100 V 10.100 C 228.600 10.045 228.555 10.000 228.500 10.000 H 124.500 C 124.445 10.000 124.400 10.045 124.400 10.100 V 114.100 C 124.400 114.155 124.445 114.200 124.500 114.200" stroke="rgb(0,0,0)" stroke-width="0.20" />
  <path d="M 226.500 98.100 V 101.000 C 226.500 101.100 226.600 101.000 226.500 101.000 H 223.700 C 223.600 101.000 223.700 101.100 223.700 101.000 V 95.200 C 223.700 95.100 223.600 95.200 223.700 95.200 H 226.500 C 226.600 95.200 226.500 95.100 226.500 95.200 V 98.100 Z" stroke="rgb(0,0,255)" stroke-width="0.20" />
  <path d="M 226.500 86.100 V 89.000 C 226.500 89.100 226.600 89.000 226.500 89.000 H 223.700 C 223.600 89.000 223.700 89.100 223.700 89.000 V 83.200 C 223.700 83.100 223.600 83.200 223.700 83.200 H 226.500 C 226.600 83.200 226.500 83.100 226.500 83.200 V 86.100 Z" stroke="rgb(0,0,255)" stroke-width="0.20" />
  <path d="M 226.500 74.100 V 77.000 C 226.500 77.100 226.600 77.000 226.500 77.000 H 223.700 C 223.600 77.000 223.700 77.100 223.700 77.000 V 71.200 C 223.700 71.100 223.600 71.200 223.700 71.200 H 226.500 C 226.600 71.200 226.500 71.100 226.500 71.200 V 74.100 Z" stroke="rgb(0,0,255)" stroke-width="0.20" />
  <path d="M 226.500 62.100 V 65.000 C 226.500 65.100 226.600 65.000 226.500 65.000 H 223.700 C 223.600 65.000 223.700 65.100 223.700 65.000 V 59.200 C 223.700 59.100 223.600 59.200 223.700 59.200 H 226.500 C 226.600 59.200 226.500 59.100 226.500 59.200 V 62.100 Z" stroke="rgb(0,0,255)" stroke-width="0.20" />
  <path d="M 226.500 50.100 V 53.000 C 226.500 53.100 226.600 53.000 226.500 53.000 H 223.700 C 223.600 53.000 223.700 53.100 223.700 53.000 V 47.200 C 223.700 47.100 223.600 47.200 223.700 47.200 H 226.500 C 226.600 47.200 226.500 47.100 226.500 47.200 V 50.100 Z" stroke="rgb(0,0,255)" stroke-width="0.20" />
  <path d="M 226.500 38.100 V 41.000 C 226.500 41.100 226.600 41.000 226.500 41.000 H 223.700 C 223.600 41.000 223.700 41.100 223.700 41.000 V 35.200 C 223.700 35.100 223.600 35.200 223.700 35.200 H 226.500 C 226.600 35.200 226.500 35.100 226.500 35.200 V 38.100 Z" stroke="rgb(0,0,255)" stroke-width="0.20" />
  <path d="M 226.500 26.100 V 29.000 C 226.500 29.100 226.600 29.000 226.500 29.000 H 223.700 C 223.600 29.000 223.700 29.100 223.700 29.000 V 23.200 C 223.700 23.100 223.600 23.200 223.700 23.200 H 226.500 C 226.600 23.200 226.500 23.100 226.500 23.200 V 26.100 Z" stroke="rgb(0,0,255)" stroke-width="0.20" />
  <path d="M 212.500 12.100 H 215.400 C 215.500 12.100 215.400 12.000 215.400 12.100 V 14.900 C 215.400 15.000 215.500 14.900 215.400 14.900 H 209.600 C 209.500 14.900 209.600 15.000 209.600 14.900 V 12.100 C 209.600 12.000 209.500 12.100 209.600 12.100 H 212.500 Z" stroke="rgb(0,0,255)" stroke-width="0.20" />
  <path d="M 200.500 12.100 H 203.400 C 203.500 12.100 203.400 12.000 203.400 12.100 V 14.900 C 203.400 15.000 203.500 14.900 203.400 14.900 H 197.600 C 197.500 14.900 197.600 15.000 197.600 14.900 V 12.100 C 197.600 12.000 197.500 12.100 197.600 12.100 H 200.500 Z" stroke="rgb(0,0,255)" stroke-width="0.20" />
  <path d="M 188.500 12.100 H 191.400 C 191.500 12.100 191.400 12.000 191.400 12.100 V 14.900 C 191.400 15.000 191.500 14.900 191.400 14.900 H 185.600 C 185.500 14.900 185.600 15.000 185.600 14.900 V 12.100 C 185.600 12.000 185.500 12.100 185.600 12.100 H 188.500 Z" stroke="rgb(0,0,255)" stroke-width="0.20" />
  <path d="M 176.500 12.100 H 179.400 C 179.500 12.100 179.400 12.000 179.400 12.100 V 14.900 C 179.400 15.000 179.500 14.900 179.400 14.900 H 173.600 C 173.500 14.900 173.600 15.000 173.600 14.900 V 12.100 C 173.600 12.000 173.500 12.100 173.600 12.100 H 176.500 Z" stroke="rgb(0,0,255)" stroke-width="0.20" />
  <path d="M 164.500 12.100 H 167.400 C 167.500 12.100 167.400 12.000 167.400 12.100 V 14.900 C 167.400 15.000 167.500 14.900 167.400 14.900 H 161.600 C 161.500 14.900 161.600 15.000 161.600 14.900 V 12.100 C 161.600 12.000 161.500 12.100 161.600 12.100 H 164.500 Z" stroke="rgb(0,0,255)" stroke-width="0.20" />
  <path d="M 152.500 12.100 H 155.400 C 155.500 12.100 155.400 12.000 155.400 12.100 V 14.900 C 155.400 15.000 155.500 14.900 155.400 14.900 H 149.600 C 149.500 14.900 149.600 15.000 149.600 14.900 V 12.100 C 149.600 12.000 149.500 12.100 149.600 12.100 H 152.500 Z" stroke="rgb(0,0,255)" stroke-width="0.20" />
  <path d="M 140.500 12.100 H 143.400 C 143.500 12.100 143.400 12.000 143.400 12.100 V 14.900 C 143.400 15.000 143.500 14.900 143.400 14.900 H 137.600 C 137.500 14.900 137.600 15.000 137.600 14.900 V 12.100 C 137.600 12.000 137.500 12.100 137.600 12.100 H 140.500 Z" stroke="rgb(0,0,255)" stroke-width="0.20" />
  <path d="M 126.500 26.100 V 23.200 C 126.500 23.100 126.400 23.200 126.500 23.200 H 129.300 C 129.400 23.200 129.300 23.100 129.300 23.200 V 29.000 C 129.300 29.100 129.400 29.000 129.300 29.000 H 126.500 C 126.400 29.000 126.500 29.100 126.500 29.000 V 26.100 Z" stroke="rgb(0,0,255)" stroke-width="0.20" />
  <path d="M 126.500 38.100 V 35.200 C 126.500 35.100 126.400 35.200 126.500 35.200 H 129.300 C 129.400 35.200 129.300 35.100 129.300 35.200 V 41.000 C 129.300 41.100 129.400 41.000 129.300 41.000 H 126.500 C 126.400 41.000 126.500 41.100 126.500 41.000 V 38.100 Z" stroke="rgb(0,0,255)" stroke-width="0.20" />
  <path d="M 126.500 50.100 V 47.200 C 126.500 47.100 126.400 47.200 126.500 47.200 H 129.300 C 129.400 47.200 129.300 47.100 129.300 47.200 V 53.000 C 129.300 53.100 129.400 53.000 129.300 53.000 H 126.500 C 126.400 53.000 126.500 53.100 126.500 53.000 V 50.100 Z" stroke="rgb(0,0,255)" stroke-width="0.20" />
  <path d="M 126.500 62.100 V 59.200 C 126.500 59.100 126.400 59.200 126.500 59.200 H 129.300 C 129.400 59.200 129.300 59.100 129.300 59.200 V 65.000 C 129.300 65.100 129.400 65.000 129.300 65.000 H 126.500 C 126.400 65.000 126.500 65.100 126.500 65.000 V 62.100 Z" stroke="rgb(0,0,255)" stroke-width="0.20" />
  <path d="M 126.500 74.100 V 71.200 C 126.500 71.100 126.400 71.200 126.500 71.200 H 129.300 C 129.400 71.200 129.300 71.100 129.300 71.200 V 77.000 C 129.300 77.100 129.400 77.000 129.300 77.000 H 126.500 C 126.400 77.000 126.500 77.100 126.500 77.000 V 74.100 Z" stroke="rgb(0,0,255)" stroke-width="0.20" />
  <path d="M 126.500 86.100 V 83.200 C 126.500 83.100 126.400 83.200 126.500 83.200 H 129.300 C 129.400 83.200 129.300 83.100 129.300 83.200 V 89.000 C 129.300 89.100 129.400 89.000 129.300 89.000 H 126.500 C 126.400 89.000 126.500 89.100 126.500 89.000 V 86.100 Z" stroke="rgb(0,0,255)" stroke-width="0.20" />
  <path d="M 126.500 98.100 V 95.200 C 126.500 95.100 126.400 95.200 126.500 95.200 H 129.300 C 129.400 95.200 129.300 95.100 129.300 95.200 V 101.000 C 129.300 101.100 129.400 101.000 129.300 101.000 H 126.500 C 126.400 101.000 126.500 101.100 126.500 101.000 V 98.100 Z" stroke="rgb(0,0,255)" stroke-width="0.20" />
</g>
</svg>