<?xml version='1.0' encoding='utf-8'?>
<svg height="422.75mm" viewBox="0.0 0.0 170.20 422.75" width="170.20mm" xmlns="http://www.w3.org/2000/svg" xmlns:cc="http://creativecommons.org/ns#" xmlns:dc="http://purl.org/dc/elements/1.1/" xmlns:inkscape="http://www.inkscape.org/namespaces/inkscape" xmlns:rdf="http://www.w3.org/1999/02/22-rdf-syntax-ns#" xmlns:svg="http://www.w3.org/2000/svg" xmlns:xlink="http://www.w3.org/1999/xlink">
<!--
Display - Display for flyers or leaflets

Created with Boxes.py (https://festi.info/boxes.py)
Command line (remove spaces between dashes): boxes Display
-->
<title>Display</title>
<metadata>
<rdf:RDF><cc:Work>
<dc:title>Misc - Display</dc:title>
<dc:source>boxes Display</dc:source>
<dc:description>Display for flyers or leaflets

Created with Boxes.py (https://festi.info/boxes.py)
Command line: boxes Display
Command line short: boxes Display
</dc:description>
</cc:Work></rdf:RDF></metadata>
<g id="p-0" style="fill:none;stroke-linecap:round;stroke-linejoin:round;">
  <path d="M 10.950 412.750 H 110.950 V 402.750 H 10.950 V 412.750 Z" stroke="rgb(0,0,0)" stroke-width="0.20" />
  <text dominant-baseline="hanging" font-size="6px" style="font-family: sans-serif ; font-weight: normal; font-style: normal; fill: rgb(255,0,0)" text-anchor="middle" transform="matrix( 1.000 0.000 0.000 1.000 60.950 404.750 )">100.0mm, burn:0.10mm</text>
</g>
<g id="p-1" style="fill:none;stroke-linecap:round;stroke-linejoin:round;">
  <path d="M 15.950 401.050 H 63.450 H 110.950 C 111.845 401.050 112.725 400.814 113.500 400.367 C 114.275 399.919 114.919 399.275 115.367 398.500 C 115.814 397.725 116.050 396.845 116.050 395.950 V 255.950 C 116.050 255.055 115.814 254.175 115.367 253.400 C 114.919 252.625 114.275 251.981 113.500 251.533 C 112.725 251.086 111.845 250.850 110.950 250.850 H 15.950 C 15.055 250.850 14.175 251.086 13.400 251.533 C 12.625 251.981 11.981 252.625 11.533 253.400 C 11.086 254.175 10.850 255.055 10.850 255.950 V 395.950 C 10.850 396.845 11.086 397.725 11.533 398.500 C 11.981 399.275 12.625 399.919 13.400 400.367 C 14.175 400.814 15.055 401.050 15.950 401.050 Z" stroke="rgb(0,0,0)" stroke-width="0.20" />
</g>
<g id="p-2" style="fill:none;stroke-linecap:round;stroke-linejoin:round;">
  <path d="M 85.100 212.050 H 32.550 C 32.450 212.050 32.550 212.150 32.550 212.050 V 208.350 C 32.550 208.250 32.450 208.350 32.550 208.350 H 137.650 C 137.750 208.350 137.650 208.250 137.650 208.350 V 212.050 C 137.650 212.150 137.750 212.050 137.650 212.050 H 85.100 Z" stroke="rgb(0,0,255)" stroke-width="0.20" />
  <path d="M 15.100 250.200 H 155.100 C 155.995 250.200 156.875 249.964 157.650 249.517 C 158.425 249.069 159.069 248.425 159.517 247.650 C 159.964 246.875 160.200 245.995 160.200 245.100 V 15.100 C 160.200 14.205 159.964 13.325 159.517 12.550 C 159.069 11.775 158.425 11.131 157.650 10.683 C 156.875 10.236 155.995 10.000 155.100 10.000 H 15.100 C 14.205 10.000 13.325 10.236 12.550 10.683 C 11.775 11.131 11.131 11.775 10.683 12.550 C 10.236 13.325 10.000 14.205 10.000 15.100 V 245.100 C 10.000 245.995 10.236 246.875 10.683 247.650 C 11.131 248.425 11.775 249.069 12.550 249.517 C 13.325 249.964 14.205 250.200 15.100 250.200 Z" stroke="rgb(0,0,0)" stroke-width="0.20" />
</g>
</svg>