<?xml version='1.0' encoding='utf-8'?>
<svg height="1019.37mm" viewBox="0.0 0.0 420.20 1019.37" width="420.20mm" xmlns="http://www.w3.org/2000/svg" xmlns:cc="http://creativecommons.org/ns#" xmlns:dc="http://purl.org/dc/elements/1.1/" xmlns:inkscape="http://www.inkscape.org/namespaces/inkscape" xmlns:rdf="http://www.w3.org/1999/02/22-rdf-syntax-ns#" xmlns:svg="http://www.w3.org/2000/svg" xmlns:xlink="http://www.w3.org/1999/xlink">
<!--
DisplayShelf - Shelf with slanted floors

Created with Boxes.py (https://boxes.hackerspace-bamberg.de/)
Command line (remove spaces between dashes): boxes DisplayShelf
-->
<title>DisplayShelf</title>
<metadata>
<rdf:RDF><cc:Work>
<dc:title>Shelf - DisplayShelf</dc:title>
<dc:source>boxes DisplayShelf</dc:source>
<dc:description>Shelf with slanted floors

Created with Boxes.py (https://boxes.hackerspace-bamberg.de/)
Command line: boxes DisplayShelf
Command line short: boxes DisplayShelf
</dc:description>
</cc:Work></rdf:RDF></metadata>
<g id="p-0" style="fill:none;stroke-linecap:round;stroke-linejoin:round;">
  <path d="M 10.100 1009.373 H 110.100 V 999.373 H 10.100 V 1009.373 Z" stroke="rgb(0,0,0)" stroke-width="0.20" />
  <text dominant-baseline="hanging" font-size="6px" style="font-family: sans-serif ; font-weight: normal; font-style: normal; fill: rgb(255,0,0)" text-anchor="middle" transform="matrix( 1.000 0.000 0.000 1.000 60.100 1001.373 )">100.0mm, burn:0.10mm</text>
</g>
<g id="p-1" style="fill:none;stroke-linecap:round;stroke-linejoin:round;">
  <path d="M 21.924 953.189 L 19.413 951.739 C 19.326 951.689 19.363 951.825 19.413 951.739 L 20.813 949.314 C 20.863 949.227 20.726 949.264 20.813 949.314 L 25.836 952.214 C 25.922 952.264 25.886 952.127 25.836 952.214 L 24.436 954.639 C 24.386 954.725 24.522 954.689 24.436 954.639 L 21.924 953.189 Z" stroke="rgb(0,0,255)" stroke-width="0.20" />
  <path d="M 32.316 959.189 L 29.805 957.739 C 29.718 957.689 29.755 957.825 29.805 957.739 L 31.205 955.314 C 31.255 955.227 31.118 955.264 31.205 955.314 L 36.228 958.214 C 36.314 958.264 36.278 958.127 36.228 958.214 L 34.828 960.639 C 34.778 960.725 34.914 960.689 34.828 960.639 L 32.316 959.189 Z" stroke="rgb(0,0,255)" stroke-width="0.20" />
  <path d="M 42.709 965.189 L 40.197 963.739 C 40.111 963.689 40.147 963.825 40.197 963.739 L 41.597 961.314 C 41.647 961.227 41.511 961.264 41.597 961.314 L 46.620 964.214 C 46.707 964.264 46.670 964.127 46.620 964.214 L 45.220 966.639 C 45.170 966.725 45.307 966.689 45.220 966.639 L 42.709 965.189 Z" stroke="rgb(0,0,255)" stroke-width="0.20" />
  <path d="M 53.101 971.189 L 50.589 969.739 C 50.503 969.689 50.539 969.825 50.589 969.739 L 51.989 967.314 C 52.039 967.227 51.903 967.264 51.989 967.314 L 57.012 970.214 C 57.099 970.264 57.062 970.127 57.012 970.214 L 55.612 972.639 C 55.562 972.725 55.699 972.689 55.612 972.639 L 53.101 971.189 Z" stroke="rgb(0,0,255)" stroke-width="0.20" />
  <path d="M 63.493 977.189 L 60.982 975.739 C 60.895 975.689 60.932 975.825 60.982 975.739 L 62.382 973.314 C 62.432 973.227 62.295 973.264 62.382 973.314 L 67.405 976.214 C 67.491 976.264 67.455 976.127 67.405 976.214 L 66.005 978.639 C 65.955 978.725 66.091 978.689 66.005 978.639 L 63.493 977.189 Z" stroke="rgb(0,0,255)" stroke-width="0.20" />
  <path d="M 73.886 983.189 L 71.374 981.739 C 71.287 981.689 71.324 981.825 71.374 981.739 L 72.774 979.314 C 72.824 979.227 72.687 979.264 72.774 979.314 L 77.797 982.214 C 77.884 982.264 77.847 982.127 77.797 982.214 L 76.397 984.639 C 76.347 984.725 76.484 984.689 76.397 984.639 L 73.886 983.189 Z" stroke="rgb(0,0,255)" stroke-width="0.20" />
  <path d="M 84.278 989.189 L 81.766 987.739 C 81.680 987.689 81.716 987.825 81.766 987.739 L 83.166 985.314 C 83.216 985.227 83.080 985.264 83.166 985.314 L 88.189 988.214 C 88.276 988.264 88.239 988.127 88.189 988.214 L 86.789 990.639 C 86.739 990.725 86.876 990.689 86.789 990.639 L 84.278 989.189 Z" stroke="rgb(0,0,255)" stroke-width="0.20" />
  <path d="M 105.013 986.265 L 103.563 988.776 C 103.513 988.863 103.650 988.826 103.563 988.776 L 101.139 987.376 C 101.052 987.326 101.089 987.463 101.139 987.376 L 104.039 982.353 C 104.089 982.267 103.952 982.303 104.039 982.353 L 106.463 983.753 C 106.550 983.803 106.513 983.667 106.463 983.753 L 105.013 986.265 Z" stroke="rgb(0,0,255)" stroke-width="0.20" />
  <path d="M 21.924 854.666 L 19.413 853.216 C 19.326 853.166 19.363 853.303 19.413 853.216 L 20.813 850.791 C 20.863 850.705 20.726 850.741 20.813 850.791 L 25.836 853.691 C 25.922 853.741 25.886 853.605 25.836 853.691 L 24.436 856.116 C 24.386 856.203 24.522 856.166 24.436 856.116 L 21.924 854.666 Z" stroke="rgb(0,0,255)" stroke-width="0.20" />
  <path d="M 32.316 860.666 L 29.805 859.216 C 29.718 859.166 29.755 859.303 29.805 859.216 L 31.205 856.791 C 31.255 856.705 31.118 856.741 31.205 856.791 L 36.228 859.691 C 36.314 859.741 36.278 859.605 36.228 859.691 L 34.828 862.116 C 34.778 862.203 34.914 862.166 34.828 862.116 L 32.316 860.666 Z" stroke="rgb(0,0,255)" stroke-width="0.20" />
  <path d="M 42.709 866.666 L 40.197 865.216 C 40.111 865.166 40.147 865.303 40.197 865.216 L 41.597 862.791 C 41.647 862.705 41.511 862.741 41.597 862.791 L 46.620 865.691 C 46.707 865.741 46.670 865.605 46.620 865.691 L 45.220 868.116 C 45.170 868.203 45.307 868.166 45.220 868.116 L 42.709 866.666 Z" stroke="rgb(0,0,255)" stroke-width="0.20" />
  <path d="M 53.101 872.666 L 50.589 871.216 C 50.503 871.166 50.539 871.303 50.589 871.216 L 51.989 868.791 C 52.039 868.705 51.903 868.741 51.989 868.791 L 57.012 871.691 C 57.099 871.741 57.062 871.605 57.012 871.691 L 55.612 874.116 C 55.562 874.203 55.699 874.166 55.612 874.116 L 53.101 872.666 Z" stroke="rgb(0,0,255)" stroke-width="0.20" />
  <path d="M 63.493 878.666 L 60.982 877.216 C 60.895 877.166 60.932 877.303 60.982 877.216 L 62.382 874.791 C 62.432 874.705 62.295 874.741 62.382 874.791 L 67.405 877.691 C 67.491 877.741 67.455 877.605 67.405 877.691 L 66.005 880.116 C 65.955 880.203 66.091 880.166 66.005 880.116 L 63.493 878.666 Z" stroke="rgb(0,0,255)" stroke-width="0.20" />
  <path d="M 73.886 884.666 L 71.374 883.216 C 71.287 883.166 71.324 883.303 71.374 883.216 L 72.774 880.791 C 72.824 880.705 72.687 880.741 72.774 880.791 L 77.797 883.691 C 77.884 883.741 77.847 883.605 77.797 883.691 L 76.397 886.116 C 76.347 886.203 76.484 886.166 76.397 886.116 L 73.886 884.666 Z" stroke="rgb(0,0,255)" stroke-width="0.20" />
  <path d="M 84.278 890.666 L 81.766 889.216 C 81.680 889.166 81.716 889.303 81.766 889.216 L 83.166 886.791 C 83.216 886.705 83.080 886.741 83.166 886.791 L 88.189 889.691 C 88.276 889.741 88.239 889.605 88.189 889.691 L 86.789 892.116 C 86.739 892.203 86.876 892.166 86.789 892.116 L 84.278 890.666 Z" stroke="rgb(0,0,255)" stroke-width="0.20" />
  <path d="M 105.013 887.742 L 103.563 890.254 C 103.513 890.340 103.650 890.304 103.563 890.254 L 101.139 888.854 C 101.052 888.804 101.089 888.940 101.139 888.854 L 104.039 883.831 C 104.089 883.744 103.952 883.781 104.039 883.831 L 106.463 885.231 C 106.550 885.281 106.513 885.144 106.463 885.231 L 105.013 887.742 Z" stroke="rgb(0,0,255)" stroke-width="0.20" />
  <path d="M 21.924 756.144 L 19.413 754.694 C 19.326 754.644 19.363 754.780 19.413 754.694 L 20.813 752.269 C 20.863 752.182 20.726 752.219 20.813 752.269 L 25.836 755.169 C 25.922 755.219 25.886 755.082 25.836 755.169 L 24.436 757.594 C 24.386 757.680 24.522 757.644 24.436 757.594 L 21.924 756.144 Z" stroke="rgb(0,0,255)" stroke-width="0.20" />
  <path d="M 32.316 762.144 L 29.805 760.694 C 29.718 760.644 29.755 760.780 29.805 760.694 L 31.205 758.269 C 31.255 758.182 31.118 758.219 31.205 758.269 L 36.228 761.169 C 36.314 761.219 36.278 761.082 36.228 761.169 L 34.828 763.594 C 34.778 763.680 34.914 763.644 34.828 763.594 L 32.316 762.144 Z" stroke="rgb(0,0,255)" stroke-width="0.20" />
  <path d="M 42.709 768.144 L 40.197 766.694 C 40.111 766.644 40.147 766.780 40.197 766.694 L 41.597 764.269 C 41.647 764.182 41.511 764.219 41.597 764.269 L 46.620 767.169 C 46.707 767.219 46.670 767.082 46.620 767.169 L 45.220 769.594 C 45.170 769.680 45.307 769.644 45.220 769.594 L 42.709 768.144 Z" stroke="rgb(0,0,255)" stroke-width="0.20" />
  <path d="M 53.101 774.144 L 50.589 772.694 C 50.503 772.644 50.539 772.780 50.589 772.694 L 51.989 770.269 C 52.039 770.182 51.903 770.219 51.989 770.269 L 57.012 773.169 C 57.099 773.219 57.062 773.082 57.012 773.169 L 55.612 775.594 C 55.562 775.680 55.699 775.644 55.612 775.594 L 53.101 774.144 Z" stroke="rgb(0,0,255)" stroke-width="0.20" />
  <path d="M 63.493 780.144 L 60.982 778.694 C 60.895 778.644 60.932 778.780 60.982 778.694 L 62.382 776.269 C 62.432 776.182 62.295 776.219 62.382 776.269 L 67.405 779.169 C 67.491 779.219 67.455 779.082 67.405 779.169 L 66.005 781.594 C 65.955 781.680 66.091 781.644 66.005 781.594 L 63.493 780.144 Z" stroke="rgb(0,0,255)" stroke-width="0.20" />
  <path d="M 73.886 786.144 L 71.374 784.694 C 71.287 784.644 71.324 784.780 71.374 784.694 L 72.774 782.269 C 72.824 782.182 72.687 782.219 72.774 782.269 L 77.797 785.169 C 77.884 785.219 77.847 785.082 77.797 785.169 L 76.397 787.594 C 76.347 787.680 76.484 787.644 76.397 787.594 L 73.886 786.144 Z" stroke="rgb(0,0,255)" stroke-width="0.20" />
  <path d="M 84.278 792.144 L 81.766 790.694 C 81.680 790.644 81.716 790.780 81.766 790.694 L 83.166 788.269 C 83.216 788.182 83.080 788.219 83.166 788.269 L 88.189 791.169 C 88.276 791.219 88.239 791.082 88.189 791.169 L 86.789 793.594 C 86.739 793.680 86.876 793.644 86.789 793.594 L 84.278 792.144 Z" stroke="rgb(0,0,255)" stroke-width="0.20" />
  <path d="M 105.013 789.220 L 103.563 791.731 C 103.513 791.818 103.650 791.781 103.563 791.731 L 101.139 790.331 C 101.052 790.281 101.089 790.418 101.139 790.331 L 104.039 785.308 C 104.089 785.221 103.952 785.258 104.039 785.308 L 106.463 786.708 C 106.550 786.758 106.513 786.621 106.463 786.708 L 105.013 789.220 Z" stroke="rgb(0,0,255)" stroke-width="0.20" />
  <path d="M 10.100 997.673 H 110.100 C 110.155 997.673 110.200 997.628 110.200 997.573 V 697.573 C 110.200 697.518 110.155 697.473 110.100 697.473 H 10.100 C 10.045 697.473 10.000 697.518 10.000 697.573 V 997.573 C 10.000 997.628 10.045 997.673 10.100 997.673 Z" stroke="rgb(0,0,0)" stroke-width="0.20" />
  <text dominant-baseline="hanging" font-size="4px" style="font-family: sans-serif ; font-weight: normal; font-style: normal; fill: rgb(255,0,0)" text-anchor="middle" transform="matrix( 1.000 0.000 0.000 1.000 60.100 845.673 )">left side</text>
</g>
<g id="p-2" style="fill:none;stroke-linecap:round;stroke-linejoin:round;">
  <path d="M 21.924 651.489 L 19.413 650.039 C 19.326 649.989 19.363 650.125 19.413 650.039 L 20.813 647.614 C 20.863 647.527 20.726 647.564 20.813 647.614 L 25.836 650.514 C 25.922 650.564 25.886 650.427 25.836 650.514 L 24.436 652.939 C 24.386 653.025 24.522 652.989 24.436 652.939 L 21.924 651.489 Z" stroke="rgb(0,0,255)" stroke-width="0.20" />
  <path d="M 32.316 657.489 L 29.805 656.039 C 29.718 655.989 29.755 656.125 29.805 656.039 L 31.205 653.614 C 31.255 653.527 31.118 653.564 31.205 653.614 L 36.228 656.514 C 36.314 656.564 36.278 656.427 36.228 656.514 L 34.828 658.939 C 34.778 659.025 34.914 658.989 34.828 658.939 L 32.316 657.489 Z" stroke="rgb(0,0,255)" stroke-width="0.20" />
  <path d="M 42.709 663.489 L 40.197 662.039 C 40.111 661.989 40.147 662.125 40.197 662.039 L 41.597 659.614 C 41.647 659.527 41.511 659.564 41.597 659.614 L 46.620 662.514 C 46.707 662.564 46.670 662.427 46.620 662.514 L 45.220 664.939 C 45.170 665.025 45.307 664.989 45.220 664.939 L 42.709 663.489 Z" stroke="rgb(0,0,255)" stroke-width="0.20" />
  <path d="M 53.101 669.489 L 50.589 668.039 C 50.503 667.989 50.539 668.125 50.589 668.039 L 51.989 665.614 C 52.039 665.527 51.903 665.564 51.989 665.614 L 57.012 668.514 C 57.099 668.564 57.062 668.427 57.012 668.514 L 55.612 670.939 C 55.562 671.025 55.699 670.989 55.612 670.939 L 53.101 669.489 Z" stroke="rgb(0,0,255)" stroke-width="0.20" />
  <path d="M 63.493 675.489 L 60.982 674.039 C 60.895 673.989 60.932 674.125 60.982 674.039 L 62.382 671.614 C 62.432 671.527 62.295 671.564 62.382 671.614 L 67.405 674.514 C 67.491 674.564 67.455 674.427 67.405 674.514 L 66.005 676.939 C 65.955 677.025 66.091 676.989 66.005 676.939 L 63.493 675.489 Z" stroke="rgb(0,0,255)" stroke-width="0.20" />
  <path d="M 73.886 681.489 L 71.374 680.039 C 71.287 679.989 71.324 680.125 71.374 680.039 L 72.774 677.614 C 72.824 677.527 72.687 677.564 72.774 677.614 L 77.797 680.514 C 77.884 680.564 77.847 680.427 77.797 680.514 L 76.397 682.939 C 76.347 683.025 76.484 682.989 76.397 682.939 L 73.886 681.489 Z" stroke="rgb(0,0,255)" stroke-width="0.20" />
  <path d="M 84.278 687.489 L 81.766 686.039 C 81.680 685.989 81.716 686.125 81.766 686.039 L 83.166 683.614 C 83.216 683.527 83.080 683.564 83.166 683.614 L 88.189 686.514 C 88.276 686.564 88.239 686.427 88.189 686.514 L 86.789 688.939 C 86.739 689.025 86.876 688.989 86.789 688.939 L 84.278 687.489 Z" stroke="rgb(0,0,255)" stroke-width="0.20" />
  <path d="M 105.013 684.565 L 103.563 687.076 C 103.513 687.163 103.650 687.126 103.563 687.076 L 101.139 685.676 C 101.052 685.626 101.089 685.763 101.139 685.676 L 104.039 680.653 C 104.089 680.567 103.952 680.603 104.039 680.653 L 106.463 682.053 C 106.550 682.103 106.513 681.967 106.463 682.053 L 105.013 684.565 Z" stroke="rgb(0,0,255)" stroke-width="0.20" />
  <path d="M 21.924 552.966 L 19.413 551.516 C 19.326 551.466 19.363 551.603 19.413 551.516 L 20.813 549.091 C 20.863 549.005 20.726 549.041 20.813 549.091 L 25.836 551.991 C 25.922 552.041 25.886 551.905 25.836 551.991 L 24.436 554.416 C 24.386 554.503 24.522 554.466 24.436 554.416 L 21.924 552.966 Z" stroke="rgb(0,0,255)" stroke-width="0.20" />
  <path d="M 32.316 558.966 L 29.805 557.516 C 29.718 557.466 29.755 557.603 29.805 557.516 L 31.205 555.091 C 31.255 555.005 31.118 555.041 31.205 555.091 L 36.228 557.991 C 36.314 558.041 36.278 557.905 36.228 557.991 L 34.828 560.416 C 34.778 560.503 34.914 560.466 34.828 560.416 L 32.316 558.966 Z" stroke="rgb(0,0,255)" stroke-width="0.20" />
  <path d="M 42.709 564.966 L 40.197 563.516 C 40.111 563.466 40.147 563.603 40.197 563.516 L 41.597 561.091 C 41.647 561.005 41.511 561.041 41.597 561.091 L 46.620 563.991 C 46.707 564.041 46.670 563.905 46.620 563.991 L 45.220 566.416 C 45.170 566.503 45.307 566.466 45.220 566.416 L 42.709 564.966 Z" stroke="rgb(0,0,255)" stroke-width="0.20" />
  <path d="M 53.101 570.966 L 50.589 569.516 C 50.503 569.466 50.539 569.603 50.589 569.516 L 51.989 567.091 C 52.039 567.005 51.903 567.041 51.989 567.091 L 57.012 569.991 C 57.099 570.041 57.062 569.905 57.012 569.991 L 55.612 572.416 C 55.562 572.503 55.699 572.466 55.612 572.416 L 53.101 570.966 Z" stroke="rgb(0,0,255)" stroke-width="0.20" />
  <path d="M 63.493 576.966 L 60.982 575.516 C 60.895 575.466 60.932 575.603 60.982 575.516 L 62.382 573.091 C 62.432 573.005 62.295 573.041 62.382 573.091 L 67.405 575.991 C 67.491 576.041 67.455 575.905 67.405 575.991 L 66.005 578.416 C 65.955 578.503 66.091 578.466 66.005 578.416 L 63.493 576.966 Z" stroke="rgb(0,0,255)" stroke-width="0.20" />
  <path d="M 73.886 582.966 L 71.374 581.516 C 71.287 581.466 71.324 581.603 71.374 581.516 L 72.774 579.091 C 72.824 579.005 72.687 579.041 72.774 579.091 L 77.797 581.991 C 77.884 582.041 77.847 581.905 77.797 581.991 L 76.397 584.416 C 76.347 584.503 76.484 584.466 76.397 584.416 L 73.886 582.966 Z" stroke="rgb(0,0,255)" stroke-width="0.20" />
  <path d="M 84.278 588.966 L 81.766 587.516 C 81.680 587.466 81.716 587.603 81.766 587.516 L 83.166 585.091 C 83.216 585.005 83.080 585.041 83.166 585.091 L 88.189 587.991 C 88.276 588.041 88.239 587.905 88.189 587.991 L 86.789 590.416 C 86.739 590.503 86.876 590.466 86.789 590.416 L 84.278 588.966 Z" stroke="rgb(0,0,255)" stroke-width="0.20" />
  <path d="M 105.013 586.042 L 103.563 588.554 C 103.513 588.640 103.650 588.604 103.563 588.554 L 101.139 587.154 C 101.052 587.104 101.089 587.240 101.139 587.154 L 104.039 582.131 C 104.089 582.044 103.952 582.081 104.039 582.131 L 106.463 583.531 C 106.550 583.581 106.513 583.444 106.463 583.531 L 105.013 586.042 Z" stroke="rgb(0,0,255)" stroke-width="0.20" />
  <path d="M 21.924 454.444 L 19.413 452.994 C 19.326 452.944 19.363 453.080 19.413 452.994 L 20.813 450.569 C 20.863 450.482 20.726 450.519 20.813 450.569 L 25.836 453.469 C 25.922 453.519 25.886 453.382 25.836 453.469 L 24.436 455.894 C 24.386 455.980 24.522 455.944 24.436 455.894 L 21.924 454.444 Z" stroke="rgb(0,0,255)" stroke-width="0.20" />
  <path d="M 32.316 460.444 L 29.805 458.994 C 29.718 458.944 29.755 459.080 29.805 458.994 L 31.205 456.569 C 31.255 456.482 31.118 456.519 31.205 456.569 L 36.228 459.469 C 36.314 459.519 36.278 459.382 36.228 459.469 L 34.828 461.894 C 34.778 461.980 34.914 461.944 34.828 461.894 L 32.316 460.444 Z" stroke="rgb(0,0,255)" stroke-width="0.20" />
  <path d="M 42.709 466.444 L 40.197 464.994 C 40.111 464.944 40.147 465.080 40.197 464.994 L 41.597 462.569 C 41.647 462.482 41.511 462.519 41.597 462.569 L 46.620 465.469 C 46.707 465.519 46.670 465.382 46.620 465.469 L 45.220 467.894 C 45.170 467.980 45.307 467.944 45.220 467.894 L 42.709 466.444 Z" stroke="rgb(0,0,255)" stroke-width="0.20" />
  <path d="M 53.101 472.444 L 50.589 470.994 C 50.503 470.944 50.539 471.080 50.589 470.994 L 51.989 468.569 C 52.039 468.482 51.903 468.519 51.989 468.569 L 57.012 471.469 C 57.099 471.519 57.062 471.382 57.012 471.469 L 55.612 473.894 C 55.562 473.980 55.699 473.944 55.612 473.894 L 53.101 472.444 Z" stroke="rgb(0,0,255)" stroke-width="0.20" />
  <path d="M 63.493 478.444 L 60.982 476.994 C 60.895 476.944 60.932 477.080 60.982 476.994 L 62.382 474.569 C 62.432 474.482 62.295 474.519 62.382 474.569 L 67.405 477.469 C 67.491 477.519 67.455 477.382 67.405 477.469 L 66.005 479.894 C 65.955 479.980 66.091 479.944 66.005 479.894 L 63.493 478.444 Z" stroke="rgb(0,0,255)" stroke-width="0.20" />
  <path d="M 73.886 484.444 L 71.374 482.994 C 71.287 482.944 71.324 483.080 71.374 482.994 L 72.774 480.569 C 72.824 480.482 72.687 480.519 72.774 480.569 L 77.797 483.469 C 77.884 483.519 77.847 483.382 77.797 483.469 L 76.397 485.894 C 76.347 485.980 76.484 485.944 76.397 485.894 L 73.886 484.444 Z" stroke="rgb(0,0,255)" stroke-width="0.20" />
  <path d="M 84.278 490.444 L 81.766 488.994 C 81.680 488.944 81.716 489.080 81.766 488.994 L 83.166 486.569 C 83.216 486.482 83.080 486.519 83.166 486.569 L 88.189 489.469 C 88.276 489.519 88.239 489.382 88.189 489.469 L 86.789 491.894 C 86.739 491.980 86.876 491.944 86.789 491.894 L 84.278 490.444 Z" stroke="rgb(0,0,255)" stroke-width="0.20" />
  <path d="M 105.013 487.520 L 103.563 490.031 C 103.513 490.118 103.650 490.081 103.563 490.031 L 101.139 488.631 C 101.052 488.581 101.089 488.718 101.139 488.631 L 104.039 483.608 C 104.089 483.521 103.952 483.558 104.039 483.608 L 106.463 485.008 C 106.550 485.058 106.513 484.921 106.463 485.008 L 105.013 487.520 Z" stroke="rgb(0,0,255)" stroke-width="0.20" />
  <path d="M 10.100 695.973 H 110.100 C 110.155 695.973 110.200 695.928 110.200 695.873 V 395.873 C 110.200 395.818 110.155 395.773 110.100 395.773 H 10.100 C 10.045 395.773 10.000 395.818 10.000 395.873 V 695.873 C 10.000 695.928 10.045 695.973 10.100 695.973 Z" stroke="rgb(0,0,0)" stroke-width="0.20" />
  <text dominant-baseline="hanging" font-size="4px" style="font-family: sans-serif ; font-weight: normal; font-style: normal; fill: rgb(255,0,0)" text-anchor="middle" transform="matrix( 1.000 0.000 0.000 1.000 60.100 543.973 )">right side</text>
</g>
<g id="p-3" style="fill:none;stroke-linecap:round;stroke-linejoin:round;">
  <path d="M 13.100 391.273 H 21.000 C 21.100 391.273 21.000 391.173 21.000 391.273 V 394.173 C 21.000 394.228 21.045 394.273 21.100 394.273 H 27.100 C 27.155 394.273 27.200 394.228 27.200 394.173 V 391.273 C 27.200 391.173 27.100 391.273 27.200 391.273 H 33.000 C 33.100 391.273 33.000 391.173 33.000 391.273 V 394.173 C 33.000 394.228 33.045 394.273 33.100 394.273 H 39.100 C 39.155 394.273 39.200 394.228 39.200 394.173 V 391.273 C 39.200 391.173 39.100 391.273 39.200 391.273 H 45.000 C 45.100 391.273 45.000 391.173 45.000 391.273 V 394.173 C 45.000 394.228 45.045 394.273 45.100 394.273 H 51.100 C 51.155 394.273 51.200 394.228 51.200 394.173 V 391.273 C 51.200 391.173 51.100 391.273 51.200 391.273 H 57.000 C 57.100 391.273 57.000 391.173 57.000 391.273 V 394.173 C 57.000 394.228 57.045 394.273 57.100 394.273 H 63.100 C 63.155 394.273 63.200 394.228 63.200 394.173 V 391.273 C 63.200 391.173 63.100 391.273 63.200 391.273 H 69.000 C 69.100 391.273 69.000 391.173 69.000 391.273 V 394.173 C 69.000 394.228 69.045 394.273 69.100 394.273 H 75.100 C 75.155 394.273 75.200 394.228 75.200 394.173 V 391.273 C 75.200 391.173 75.100 391.273 75.200 391.273 H 81.000 C 81.100 391.273 81.000 391.173 81.000 391.273 V 394.173 C 81.000 394.228 81.045 394.273 81.100 394.273 H 87.100 C 87.155 394.273 87.200 394.228 87.200 394.173 V 391.273 C 87.200 391.173 87.100 391.273 87.200 391.273 H 93.000 C 93.100 391.273 93.000 391.173 93.000 391.273 V 394.173 C 93.000 394.228 93.045 394.273 93.100 394.273 H 99.100 C 99.155 394.273 99.200 394.228 99.200 394.173 V 391.273 C 99.200 391.173 99.100 391.273 99.200 391.273 H 105.000 C 105.100 391.273 105.000 391.173 105.000 391.273 V 394.173 C 105.000 394.228 105.045 394.273 105.100 394.273 H 111.100 C 111.155 394.273 111.200 394.228 111.200 394.173 V 391.273 C 111.200 391.173 111.100 391.273 111.200 391.273 H 117.000 C 117.100 391.273 117.000 391.173 117.000 391.273 V 394.173 C 117.000 394.228 117.045 394.273 117.100 394.273 H 123.100 C 123.155 394.273 123.200 394.228 123.200 394.173 V 391.273 C 123.200 391.173 123.100 391.273 123.200 391.273 H 129.000 C 129.100 391.273 129.000 391.173 129.000 391.273 V 394.173 C 129.000 394.228 129.045 394.273 129.100 394.273 H 135.100 C 135.155 394.273 135.200 394.228 135.200 394.173 V 391.273 C 135.200 391.173 135.100 391.273 135.200 391.273 H 141.000 C 141.100 391.273 141.000 391.173 141.000 391.273 V 394.173 C 141.000 394.228 141.045 394.273 141.100 394.273 H 147.100 C 147.155 394.273 147.200 394.228 147.200 394.173 V 391.273 C 147.200 391.173 147.100 391.273 147.200 391.273 H 153.000 C 153.100 391.273 153.000 391.173 153.000 391.273 V 394.173 C 153.000 394.228 153.045 394.273 153.100 394.273 H 159.100 C 159.155 394.273 159.200 394.228 159.200 394.173 V 391.273 C 159.200 391.173 159.100 391.273 159.200 391.273 H 165.000 C 165.100 391.273 165.000 391.173 165.000 391.273 V 394.173 C 165.000 394.228 165.045 394.273 165.100 394.273 H 171.100 C 171.155 394.273 171.200 394.228 171.200 394.173 V 391.273 C 171.200 391.173 171.100 391.273 171.200 391.273 H 177.000 C 177.100 391.273 177.000 391.173 177.000 391.273 V 394.173 C 177.000 394.228 177.045 394.273 177.100 394.273 H 183.100 C 183.155 394.273 183.200 394.228 183.200 394.173 V 391.273 C 183.200 391.173 183.100 391.273 183.200 391.273 H 189.000 C 189.100 391.273 189.000 391.173 189.000 391.273 V 394.173 C 189.000 394.228 189.045 394.273 189.100 394.273 H 195.100 C 195.155 394.273 195.200 394.228 195.200 394.173 V 391.273 C 195.200 391.173 195.100 391.273 195.200 391.273 H 201.000 C 201.100 391.273 201.000 391.173 201.000 391.273 V 394.173 C 201.000 394.228 201.045 394.273 201.100 394.273 H 207.100 C 207.155 394.273 207.200 394.228 207.200 394.173 V 391.273 C 207.200 391.173 207.100 391.273 207.200 391.273 H 213.000 C 213.100 391.273 213.000 391.173 213.000 391.273 V 394.173 C 213.000 394.228 213.045 394.273 213.100 394.273 H 219.100 C 219.155 394.273 219.200 394.228 219.200 394.173 V 391.273 C 219.200 391.173 219.100 391.273 219.200 391.273 H 225.000 C 225.100 391.273 225.000 391.173 225.000 391.273 V 394.173 C 225.000 394.228 225.045 394.273 225.100 394.273 H 231.100 C 231.155 394.273 231.200 394.228 231.200 394.173 V 391.273 C 231.200 391.173 231.100 391.273 231.200 391.273 H 237.000 C 237.100 391.273 237.000 391.173 237.000 391.273 V 394.173 C 237.000 394.228 237.045 394.273 237.100 394.273 H 243.100 C 243.155 394.273 243.200 394.228 243.200 394.173 V 391.273 C 243.200 391.173 243.100 391.273 243.200 391.273 H 249.000 C 249.100 391.273 249.000 391.173 249.000 391.273 V 394.173 C 249.000 394.228 249.045 394.273 249.100 394.273 H 255.100 C 255.155 394.273 255.200 394.228 255.200 394.173 V 391.273 C 255.200 391.173 255.100 391.273 255.200 391.273 H 261.000 C 261.100 391.273 261.000 391.173 261.000 391.273 V 394.173 C 261.000 394.228 261.045 394.273 261.100 394.273 H 267.100 C 267.155 394.273 267.200 394.228 267.200 394.173 V 391.273 C 267.200 391.173 267.100 391.273 267.200 391.273 H 273.000 C 273.100 391.273 273.000 391.173 273.000 391.273 V 394.173 C 273.000 394.228 273.045 394.273 273.100 394.273 H 279.100 C 279.155 394.273 279.200 394.228 279.200 394.173 V 391.273 C 279.200 391.173 279.100 391.273 279.200 391.273 H 285.000 C 285.100 391.273 285.000 391.173 285.000 391.273 V 394.173 C 285.000 394.228 285.045 394.273 285.100 394.273 H 291.100 C 291.155 394.273 291.200 394.228 291.200 394.173 V 391.273 C 291.200 391.173 291.100 391.273 291.200 391.273 H 297.000 C 297.100 391.273 297.000 391.173 297.000 391.273 V 394.173 C 297.000 394.228 297.045 394.273 297.100 394.273 H 303.100 C 303.155 394.273 303.200 394.228 303.200 394.173 V 391.273 C 303.200 391.173 303.100 391.273 303.200 391.273 H 309.000 C 309.100 391.273 309.000 391.173 309.000 391.273 V 394.173 C 309.000 394.228 309.045 394.273 309.100 394.273 H 315.100 C 315.155 394.273 315.200 394.228 315.200 394.173 V 391.273 C 315.200 391.173 315.100 391.273 315.200 391.273 H 321.000 C 321.100 391.273 321.000 391.173 321.000 391.273 V 394.173 C 321.000 394.228 321.045 394.273 321.100 394.273 H 327.100 C 327.155 394.273 327.200 394.228 327.200 394.173 V 391.273 C 327.200 391.173 327.100 391.273 327.200 391.273 H 333.000 C 333.100 391.273 333.000 391.173 333.000 391.273 V 394.173 C 333.000 394.228 333.045 394.273 333.100 394.273 H 339.100 C 339.155 394.273 339.200 394.228 339.200 394.173 V 391.273 C 339.200 391.173 339.100 391.273 339.200 391.273 H 345.000 C 345.100 391.273 345.000 391.173 345.000 391.273 V 394.173 C 345.000 394.228 345.045 394.273 345.100 394.273 H 351.100 C 351.155 394.273 351.200 394.228 351.200 394.173 V 391.273 C 351.200 391.173 351.100 391.273 351.200 391.273 H 357.000 C 357.100 391.273 357.000 391.173 357.000 391.273 V 394.173 C 357.000 394.228 357.045 394.273 357.100 394.273 H 363.100 C 363.155 394.273 363.200 394.228 363.200 394.173 V 391.273 C 363.200 391.173 363.100 391.273 363.200 391.273 H 369.000 C 369.100 391.273 369.000 391.173 369.000 391.273 V 394.173 C 369.000 394.228 369.045 394.273 369.100 394.273 H 375.100 C 375.155 394.273 375.200 394.228 375.200 394.173 V 391.273 C 375.200 391.173 375.100 391.273 375.200 391.273 H 381.000 C 381.100 391.273 381.000 391.173 381.000 391.273 V 394.173 C 381.000 394.228 381.045 394.273 381.100 394.273 H 387.100 C 387.155 394.273 387.200 394.228 387.200 394.173 V 391.273 C 387.200 391.173 387.100 391.273 387.200 391.273 H 393.000 C 393.100 391.273 393.000 391.173 393.000 391.273 V 394.173 C 393.000 394.228 393.045 394.273 393.100 394.273 H 399.100 C 399.155 394.273 399.200 394.228 399.200 394.173 V 391.273 C 399.200 391.173 399.100 391.273 399.200 391.273 H 407.100 C 407.155 391.273 407.200 391.228 407.200 391.173 V 380.677 C 407.200 380.577 407.100 380.677 407.200 380.677 H 410.100 C 410.155 380.677 410.200 380.633 410.200 380.577 V 374.577 C 410.200 374.522 410.155 374.477 410.100 374.477 H 407.200 C 407.100 374.477 407.200 374.577 407.200 374.477 V 368.677 C 407.200 368.577 407.100 368.677 407.200 368.677 H 410.100 C 410.155 368.677 410.200 368.633 410.200 368.577 V 362.577 C 410.200 362.522 410.155 362.477 410.100 362.477 H 407.200 C 407.100 362.477 407.200 362.577 407.200 362.477 V 356.677 C 407.200 356.577 407.100 356.677 407.200 356.677 H 410.100 C 410.155 356.677 410.200 356.633 410.200 356.577 V 350.577 C 410.200 350.522 410.155 350.477 410.100 350.477 H 407.200 C 407.100 350.477 407.200 350.577 407.200 350.477 V 344.677 C 407.200 344.577 407.100 344.677 407.200 344.677 H 410.100 C 410.155 344.677 410.200 344.633 410.200 344.577 V 338.577 C 410.200 338.522 410.155 338.477 410.100 338.477 H 407.200 C 407.100 338.477 407.200 338.577 407.200 338.477 V 332.677 C 407.200 332.577 407.100 332.677 407.200 332.677 H 410.100 C 410.155 332.677 410.200 332.633 410.200 332.577 V 326.577 C 410.200 326.522 410.155 326.477 410.100 326.477 H 407.200 C 407.100 326.477 407.200 326.577 407.200 326.477 V 320.677 C 407.200 320.577 407.100 320.677 407.200 320.677 H 410.100 C 410.155 320.677 410.200 320.633 410.200 320.577 V 314.577 C 410.200 314.522 410.155 314.477 410.100 314.477 H 407.200 C 407.100 314.477 407.200 314.577 407.200 314.477 V 308.677 C 407.200 308.577 407.100 308.677 407.200 308.677 H 410.100 C 410.155 308.677 410.200 308.633 410.200 308.577 V 302.577 C 410.200 302.522 410.155 302.477 410.100 302.477 H 407.200 C 407.100 302.477 407.200 302.577 407.200 302.477 V 291.982 C 407.200 291.927 407.155 291.882 407.100 291.882 H 13.100 C 13.045 291.882 13.000 291.927 13.000 291.982 V 302.477 C 13.000 302.577 13.100 302.477 13.000 302.477 H 10.100 C 10.045 302.477 10.000 302.522 10.000 302.577 V 308.577 C 10.000 308.633 10.045 308.677 10.100 308.677 H 13.000 C 13.100 308.677 13.000 308.577 13.000 308.677 V 314.477 C 13.000 314.577 13.100 314.477 13.000 314.477 H 10.100 C 10.045 314.477 10.000 314.522 10.000 314.577 V 320.577 C 10.000 320.633 10.045 320.677 10.100 320.677 H 13.000 C 13.100 320.677 13.000 320.577 13.000 320.677 V 326.477 C 13.000 326.577 13.100 326.477 13.000 326.477 H 10.100 C 10.045 326.477 10.000 326.522 10.000 326.577 V 332.577 C 10.000 332.633 10.045 332.677 10.100 332.677 H 13.000 C 13.100 332.677 13.000 332.577 13.000 332.677 V 338.477 C 13.000 338.577 13.100 338.477 13.000 338.477 H 10.100 C 10.045 338.477 10.000 338.522 10.000 338.577 V 344.577 C 10.000 344.633 10.045 344.677 10.100 344.677 H 13.000 C 13.100 344.677 13.000 344.577 13.000 344.677 V 350.477 C 13.000 350.577 13.100 350.477 13.000 350.477 H 10.100 C 10.045 350.477 10.000 350.522 10.000 350.577 V 356.577 C 10.000 356.633 10.045 356.677 10.100 356.677 H 13.000 C 13.100 356.677 13.000 356.577 13.000 356.677 V 362.477 C 13.000 362.577 13.100 362.477 13.000 362.477 H 10.100 C 10.045 362.477 10.000 362.522 10.000 362.577 V 368.577 C 10.000 368.633 10.045 368.677 10.100 368.677 H 13.000 C 13.100 368.677 13.000 368.577 13.000 368.677 V 374.477 C 13.000 374.577 13.100 374.477 13.000 374.477 H 10.100 C 10.045 374.477 10.000 374.522 10.000 374.577 V 380.577 C 10.000 380.633 10.045 380.677 10.100 380.677 H 13.000 C 13.100 380.677 13.000 380.577 13.000 380.677 V 391.173 C 13.000 391.228 13.045 391.273 13.100 391.273 Z" stroke="rgb(0,0,0)" stroke-width="0.20" />
  <text dominant-baseline="hanging" font-size="4px" style="font-family: sans-serif ; font-weight: normal; font-style: normal; fill: rgb(255,0,0)" text-anchor="middle" transform="matrix( 1.000 0.000 0.000 1.000 210.100 341.177 )">shelf 1</text>
</g>
<g id="p-4" style="fill:none;stroke-linecap:round;stroke-linejoin:round;">
  <path d="M 13.100 290.382 H 21.100 C 21.155 290.382 21.200 290.337 21.200 290.282 V 287.382 C 21.200 287.282 21.100 287.382 21.200 287.382 H 27.000 C 27.100 287.382 27.000 287.282 27.000 287.382 V 290.282 C 27.000 290.337 27.045 290.382 27.100 290.382 H 33.100 C 33.155 290.382 33.200 290.337 33.200 290.282 V 287.382 C 33.200 287.282 33.100 287.382 33.200 287.382 H 39.000 C 39.100 287.382 39.000 287.282 39.000 287.382 V 290.282 C 39.000 290.337 39.045 290.382 39.100 290.382 H 45.100 C 45.155 290.382 45.200 290.337 45.200 290.282 V 287.382 C 45.200 287.282 45.100 287.382 45.200 287.382 H 51.000 C 51.100 287.382 51.000 287.282 51.000 287.382 V 290.282 C 51.000 290.337 51.045 290.382 51.100 290.382 H 57.100 C 57.155 290.382 57.200 290.337 57.200 290.282 V 287.382 C 57.200 287.282 57.100 287.382 57.200 287.382 H 63.000 C 63.100 287.382 63.000 287.282 63.000 287.382 V 290.282 C 63.000 290.337 63.045 290.382 63.100 290.382 H 69.100 C 69.155 290.382 69.200 290.337 69.200 290.282 V 287.382 C 69.200 287.282 69.100 287.382 69.200 287.382 H 75.000 C 75.100 287.382 75.000 287.282 75.000 287.382 V 290.282 C 75.000 290.337 75.045 290.382 75.100 290.382 H 81.100 C 81.155 290.382 81.200 290.337 81.200 290.282 V 287.382 C 81.200 287.282 81.100 287.382 81.200 287.382 H 87.000 C 87.100 287.382 87.000 287.282 87.000 287.382 V 290.282 C 87.000 290.337 87.045 290.382 87.100 290.382 H 93.100 C 93.155 290.382 93.200 290.337 93.200 290.282 V 287.382 C 93.200 287.282 93.100 287.382 93.200 287.382 H 99.000 C 99.100 287.382 99.000 287.282 99.000 287.382 V 290.282 C 99.000 290.337 99.045 290.382 99.100 290.382 H 105.100 C 105.155 290.382 105.200 290.337 105.200 290.282 V 287.382 C 105.200 287.282 105.100 287.382 105.200 287.382 H 111.000 C 111.100 287.382 111.000 287.282 111.000 287.382 V 290.282 C 111.000 290.337 111.045 290.382 111.100 290.382 H 117.100 C 117.155 290.382 117.200 290.337 117.200 290.282 V 287.382 C 117.200 287.282 117.100 287.382 117.200 287.382 H 123.000 C 123.100 287.382 123.000 287.282 123.000 287.382 V 290.282 C 123.000 290.337 123.045 290.382 123.100 290.382 H 129.100 C 129.155 290.382 129.200 290.337 129.200 290.282 V 287.382 C 129.200 287.282 129.100 287.382 129.200 287.382 H 135.000 C 135.100 287.382 135.000 287.282 135.000 287.382 V 290.282 C 135.000 290.337 135.045 290.382 135.100 290.382 H 141.100 C 141.155 290.382 141.200 290.337 141.200 290.282 V 287.382 C 141.200 287.282 141.100 287.382 141.200 287.382 H 147.000 C 147.100 287.382 147.000 287.282 147.000 287.382 V 290.282 C 147.000 290.337 147.045 290.382 147.100 290.382 H 153.100 C 153.155 290.382 153.200 290.337 153.200 290.282 V 287.382 C 153.200 287.282 153.100 287.382 153.200 287.382 H 159.000 C 159.100 287.382 159.000 287.282 159.000 287.382 V 290.282 C 159.000 290.337 159.045 290.382 159.100 290.382 H 165.100 C 165.155 290.382 165.200 290.337 165.200 290.282 V 287.382 C 165.200 287.282 165.100 287.382 165.200 287.382 H 171.000 C 171.100 287.382 171.000 287.282 171.000 287.382 V 290.282 C 171.000 290.337 171.045 290.382 171.100 290.382 H 177.100 C 177.155 290.382 177.200 290.337 177.200 290.282 V 287.382 C 177.200 287.282 177.100 287.382 177.200 287.382 H 183.000 C 183.100 287.382 183.000 287.282 183.000 287.382 V 290.282 C 183.000 290.337 183.045 290.382 183.100 290.382 H 189.100 C 189.155 290.382 189.200 290.337 189.200 290.282 V 287.382 C 189.200 287.282 189.100 287.382 189.200 287.382 H 195.000 C 195.100 287.382 195.000 287.282 195.000 287.382 V 290.282 C 195.000 290.337 195.045 290.382 195.100 290.382 H 201.100 C 201.155 290.382 201.200 290.337 201.200 290.282 V 287.382 C 201.200 287.282 201.100 287.382 201.200 287.382 H 207.000 C 207.100 287.382 207.000 287.282 207.000 287.382 V 290.282 C 207.000 290.337 207.045 290.382 207.100 290.382 H 213.100 C 213.155 290.382 213.200 290.337 213.200 290.282 V 287.382 C 213.200 287.282 213.100 287.382 213.200 287.382 H 219.000 C 219.100 287.382 219.000 287.282 219.000 287.382 V 290.282 C 219.000 290.337 219.045 290.382 219.100 290.382 H 225.100 C 225.155 290.382 225.200 290.337 225.200 290.282 V 287.382 C 225.200 287.282 225.100 287.382 225.200 287.382 H 231.000 C 231.100 287.382 231.000 287.282 231.000 287.382 V 290.282 C 231.000 290.337 231.045 290.382 231.100 290.382 H 237.100 C 237.155 290.382 237.200 290.337 237.200 290.282 V 287.382 C 237.200 287.282 237.100 287.382 237.200 287.382 H 243.000 C 243.100 287.382 243.000 287.282 243.000 287.382 V 290.282 C 243.000 290.337 243.045 290.382 243.100 290.382 H 249.100 C 249.155 290.382 249.200 290.337 249.200 290.282 V 287.382 C 249.200 287.282 249.100 287.382 249.200 287.382 H 255.000 C 255.100 287.382 255.000 287.282 255.000 287.382 V 290.282 C 255.000 290.337 255.045 290.382 255.100 290.382 H 261.100 C 261.155 290.382 261.200 290.337 261.200 290.282 V 287.382 C 261.200 287.282 261.100 287.382 261.200 287.382 H 267.000 C 267.100 287.382 267.000 287.282 267.000 287.382 V 290.282 C 267.000 290.337 267.045 290.382 267.100 290.382 H 273.100 C 273.155 290.382 273.200 290.337 273.200 290.282 V 287.382 C 273.200 287.282 273.100 287.382 273.200 287.382 H 279.000 C 279.100 287.382 279.000 287.282 279.000 287.382 V 290.282 C 279.000 290.337 279.045 290.382 279.100 290.382 H 285.100 C 285.155 290.382 285.200 290.337 285.200 290.282 V 287.382 C 285.200 287.282 285.100 287.382 285.200 287.382 H 291.000 C 291.100 287.382 291.000 287.282 291.000 287.382 V 290.282 C 291.000 290.337 291.045 290.382 291.100 290.382 H 297.100 C 297.155 290.382 297.200 290.337 297.200 290.282 V 287.382 C 297.200 287.282 297.100 287.382 297.200 287.382 H 303.000 C 303.100 287.382 303.000 287.282 303.000 287.382 V 290.282 C 303.000 290.337 303.045 290.382 303.100 290.382 H 309.100 C 309.155 290.382 309.200 290.337 309.200 290.282 V 287.382 C 309.200 287.282 309.100 287.382 309.200 287.382 H 315.000 C 315.100 287.382 315.000 287.282 315.000 287.382 V 290.282 C 315.000 290.337 315.045 290.382 315.100 290.382 H 321.100 C 321.155 290.382 321.200 290.337 321.200 290.282 V 287.382 C 321.200 287.282 321.100 287.382 321.200 287.382 H 327.000 C 327.100 287.382 327.000 287.282 327.000 287.382 V 290.282 C 327.000 290.337 327.045 290.382 327.100 290.382 H 333.100 C 333.155 290.382 333.200 290.337 333.200 290.282 V 287.382 C 333.200 287.282 333.100 287.382 333.200 287.382 H 339.000 C 339.100 287.382 339.000 287.282 339.000 287.382 V 290.282 C 339.000 290.337 339.045 290.382 339.100 290.382 H 345.100 C 345.155 290.382 345.200 290.337 345.200 290.282 V 287.382 C 345.200 287.282 345.100 287.382 345.200 287.382 H 351.000 C 351.100 287.382 351.000 287.282 351.000 287.382 V 290.282 C 351.000 290.337 351.045 290.382 351.100 290.382 H 357.100 C 357.155 290.382 357.200 290.337 357.200 290.282 V 287.382 C 357.200 287.282 357.100 287.382 357.200 287.382 H 363.000 C 363.100 287.382 363.000 287.282 363.000 287.382 V 290.282 C 363.000 290.337 363.045 290.382 363.100 290.382 H 369.100 C 369.155 290.382 369.200 290.337 369.200 290.282 V 287.382 C 369.200 287.282 369.100 287.382 369.200 287.382 H 375.000 C 375.100 287.382 375.000 287.282 375.000 287.382 V 290.282 C 375.000 290.337 375.045 290.382 375.100 290.382 H 381.100 C 381.155 290.382 381.200 290.337 381.200 290.282 V 287.382 C 381.200 287.282 381.100 287.382 381.200 287.382 H 387.000 C 387.100 287.382 387.000 287.282 387.000 287.382 V 290.282 C 387.000 290.337 387.045 290.382 387.100 290.382 H 393.100 C 393.155 290.382 393.200 290.337 393.200 290.282 V 287.382 C 393.200 287.282 393.100 287.382 393.200 287.382 H 399.000 C 399.100 287.382 399.000 287.282 399.000 287.382 V 290.282 C 399.000 290.337 399.045 290.382 399.100 290.382 H 407.100 C 407.155 290.382 407.200 290.337 407.200 290.282 V 287.282 V 280.382 C 407.200 280.282 407.100 280.382 407.200 280.382 H 410.100 C 410.155 280.382 410.200 280.337 410.200 280.282 V 274.282 C 410.200 274.227 410.155 274.182 410.100 274.182 H 407.200 C 407.100 274.182 407.200 274.282 407.200 274.182 V 267.282 C 407.200 267.227 407.155 267.182 407.100 267.182 H 13.100 C 13.045 267.182 13.000 267.227 13.000 267.282 V 274.182 C 13.000 274.282 13.100 274.182 13.000 274.182 H 10.100 C 10.045 274.182 10.000 274.227 10.000 274.282 V 280.282 C 10.000 280.337 10.045 280.382 10.100 280.382 H 13.000 C 13.100 280.382 13.000 280.282 13.000 280.382 V 287.282 V 290.282 C 13.000 290.337 13.045 290.382 13.100 290.382 Z" stroke="rgb(0,0,0)" stroke-width="0.20" />
  <text dominant-baseline="hanging" font-size="4px" style="font-family: sans-serif ; font-weight: normal; font-style: normal; fill: rgb(255,0,0)" text-anchor="middle" transform="matrix( 1.000 0.000 0.000 1.000 210.100 276.882 )">front lip 1</text>
</g>
<g id="p-5" style="fill:none;stroke-linecap:round;stroke-linejoin:round;">
  <path d="M 13.100 262.682 H 21.000 C 21.100 262.682 21.000 262.582 21.000 262.682 V 265.582 C 21.000 265.637 21.045 265.682 21.100 265.682 H 27.100 C 27.155 265.682 27.200 265.637 27.200 265.582 V 262.682 C 27.200 262.582 27.100 262.682 27.200 262.682 H 33.000 C 33.100 262.682 33.000 262.582 33.000 262.682 V 265.582 C 33.000 265.637 33.045 265.682 33.100 265.682 H 39.100 C 39.155 265.682 39.200 265.637 39.200 265.582 V 262.682 C 39.200 262.582 39.100 262.682 39.200 262.682 H 45.000 C 45.100 262.682 45.000 262.582 45.000 262.682 V 265.582 C 45.000 265.637 45.045 265.682 45.100 265.682 H 51.100 C 51.155 265.682 51.200 265.637 51.200 265.582 V 262.682 C 51.200 262.582 51.100 262.682 51.200 262.682 H 57.000 C 57.100 262.682 57.000 262.582 57.000 262.682 V 265.582 C 57.000 265.637 57.045 265.682 57.100 265.682 H 63.100 C 63.155 265.682 63.200 265.637 63.200 265.582 V 262.682 C 63.200 262.582 63.100 262.682 63.200 262.682 H 69.000 C 69.100 262.682 69.000 262.582 69.000 262.682 V 265.582 C 69.000 265.637 69.045 265.682 69.100 265.682 H 75.100 C 75.155 265.682 75.200 265.637 75.200 265.582 V 262.682 C 75.200 262.582 75.100 262.682 75.200 262.682 H 81.000 C 81.100 262.682 81.000 262.582 81.000 262.682 V 265.582 C 81.000 265.637 81.045 265.682 81.100 265.682 H 87.100 C 87.155 265.682 87.200 265.637 87.200 265.582 V 262.682 C 87.200 262.582 87.100 262.682 87.200 262.682 H 93.000 C 93.100 262.682 93.000 262.582 93.000 262.682 V 265.582 C 93.000 265.637 93.045 265.682 93.100 265.682 H 99.100 C 99.155 265.682 99.200 265.637 99.200 265.582 V 262.682 C 99.200 262.582 99.100 262.682 99.200 262.682 H 105.000 C 105.100 262.682 105.000 262.582 105.000 262.682 V 265.582 C 105.000 265.637 105.045 265.682 105.100 265.682 H 111.100 C 111.155 265.682 111.200 265.637 111.200 265.582 V 262.682 C 111.200 262.582 111.100 262.682 111.200 262.682 H 117.000 C 117.100 262.682 117.000 262.582 117.000 262.682 V 265.582 C 117.000 265.637 117.045 265.682 117.100 265.682 H 123.100 C 123.155 265.682 123.200 265.637 123.200 265.582 V 262.682 C 123.200 262.582 123.100 262.682 123.200 262.682 H 129.000 C 129.100 262.682 129.000 262.582 129.000 262.682 V 265.582 C 129.000 265.637 129.045 265.682 129.100 265.682 H 135.100 C 135.155 265.682 135.200 265.637 135.200 265.582 V 262.682 C 135.200 262.582 135.100 262.682 135.200 262.682 H 141.000 C 141.100 262.682 141.000 262.582 141.000 262.682 V 265.582 C 141.000 265.637 141.045 265.682 141.100 265.682 H 147.100 C 147.155 265.682 147.200 265.637 147.200 265.582 V 262.682 C 147.200 262.582 147.100 262.682 147.200 262.682 H 153.000 C 153.100 262.682 153.000 262.582 153.000 262.682 V 265.582 C 153.000 265.637 153.045 265.682 153.100 265.682 H 159.100 C 159.155 265.682 159.200 265.637 159.200 265.582 V 262.682 C 159.200 262.582 159.100 262.682 159.200 262.682 H 165.000 C 165.100 262.682 165.000 262.582 165.000 262.682 V 265.582 C 165.000 265.637 165.045 265.682 165.100 265.682 H 171.100 C 171.155 265.682 171.200 265.637 171.200 265.582 V 262.682 C 171.200 262.582 171.100 262.682 171.200 262.682 H 177.000 C 177.100 262.682 177.000 262.582 177.000 262.682 V 265.582 C 177.000 265.637 177.045 265.682 177.100 265.682 H 183.100 C 183.155 265.682 183.200 265.637 183.200 265.582 V 262.682 C 183.200 262.582 183.100 262.682 183.200 262.682 H 189.000 C 189.100 262.682 189.000 262.582 189.000 262.682 V 265.582 C 189.000 265.637 189.045 265.682 189.100 265.682 H 195.100 C 195.155 265.682 195.200 265.637 195.200 265.582 V 262.682 C 195.200 262.582 195.100 262.682 195.200 262.682 H 201.000 C 201.100 262.682 201.000 262.582 201.000 262.682 V 265.582 C 201.000 265.637 201.045 265.682 201.100 265.682 H 207.100 C 207.155 265.682 207.200 265.637 207.200 265.582 V 262.682 C 207.200 262.582 207.100 262.682 207.200 262.682 H 213.000 C 213.100 262.682 213.000 262.582 213.000 262.682 V 265.582 C 213.000 265.637 213.045 265.682 213.100 265.682 H 219.100 C 219.155 265.682 219.200 265.637 219.200 265.582 V 262.682 C 219.200 262.582 219.100 262.682 219.200 262.682 H 225.000 C 225.100 262.682 225.000 262.582 225.000 262.682 V 265.582 C 225.000 265.637 225.045 265.682 225.100 265.682 H 231.100 C 231.155 265.682 231.200 265.637 231.200 265.582 V 262.682 C 231.200 262.582 231.100 262.682 231.200 262.682 H 237.000 C 237.100 262.682 237.000 262.582 237.000 262.682 V 265.582 C 237.000 265.637 237.045 265.682 237.100 265.682 H 243.100 C 243.155 265.682 243.200 265.637 243.200 265.582 V 262.682 C 243.200 262.582 243.100 262.682 243.200 262.682 H 249.000 C 249.100 262.682 249.000 262.582 249.000 262.682 V 265.582 C 249.000 265.637 249.045 265.682 249.100 265.682 H 255.100 C 255.155 265.682 255.200 265.637 255.200 265.582 V 262.682 C 255.200 262.582 255.100 262.682 255.200 262.682 H 261.000 C 261.100 262.682 261.000 262.582 261.000 262.682 V 265.582 C 261.000 265.637 261.045 265.682 261.100 265.682 H 267.100 C 267.155 265.682 267.200 265.637 267.200 265.582 V 262.682 C 267.200 262.582 267.100 262.682 267.200 262.682 H 273.000 C 273.100 262.682 273.000 262.582 273.000 262.682 V 265.582 C 273.000 265.637 273.045 265.682 273.100 265.682 H 279.100 C 279.155 265.682 279.200 265.637 279.200 265.582 V 262.682 C 279.200 262.582 279.100 262.682 279.200 262.682 H 285.000 C 285.100 262.682 285.000 262.582 285.000 262.682 V 265.582 C 285.000 265.637 285.045 265.682 285.100 265.682 H 291.100 C 291.155 265.682 291.200 265.637 291.200 265.582 V 262.682 C 291.200 262.582 291.100 262.682 291.200 262.682 H 297.000 C 297.100 262.682 297.000 262.582 297.000 262.682 V 265.582 C 297.000 265.637 297.045 265.682 297.100 265.682 H 303.100 C 303.155 265.682 303.200 265.637 303.200 265.582 V 262.682 C 303.200 262.582 303.100 262.682 303.200 262.682 H 309.000 C 309.100 262.682 309.000 262.582 309.000 262.682 V 265.582 C 309.000 265.637 309.045 265.682 309.100 265.682 H 315.100 C 315.155 265.682 315.200 265.637 315.200 265.582 V 262.682 C 315.200 262.582 315.100 262.682 315.200 262.682 H 321.000 C 321.100 262.682 321.000 262.582 321.000 262.682 V 265.582 C 321.000 265.637 321.045 265.682 321.100 265.682 H 327.100 C 327.155 265.682 327.200 265.637 327.200 265.582 V 262.682 C 327.200 262.582 327.100 262.682 327.200 262.682 H 333.000 C 333.100 262.682 333.000 262.582 333.000 262.682 V 265.582 C 333.000 265.637 333.045 265.682 333.100 265.682 H 339.100 C 339.155 265.682 339.200 265.637 339.200 265.582 V 262.682 C 339.200 262.582 339.100 262.682 339.200 262.682 H 345.000 C 345.100 262.682 345.000 262.582 345.000 262.682 V 265.582 C 345.000 265.637 345.045 265.682 345.100 265.682 H 351.100 C 351.155 265.682 351.200 265.637 351.200 265.582 V 262.682 C 351.200 262.582 351.100 262.682 351.200 262.682 H 357.000 C 357.100 262.682 357.000 262.582 357.000 262.682 V 265.582 C 357.000 265.637 357.045 265.682 357.100 265.682 H 363.100 C 363.155 265.682 363.200 265.637 363.200 265.582 V 262.682 C 363.200 262.582 363.100 262.682 363.200 262.682 H 369.000 C 369.100 262.682 369.000 262.582 369.000 262.682 V 265.582 C 369.000 265.637 369.045 265.682 369.100 265.682 H 375.100 C 375.155 265.682 375.200 265.637 375.200 265.582 V 262.682 C 375.200 262.582 375.100 262.682 375.200 262.682 H 381.000 C 381.100 262.682 381.000 262.582 381.000 262.682 V 265.582 C 381.000 265.637 381.045 265.682 381.100 265.682 H 387.100 C 387.155 265.682 387.200 265.637 387.200 265.582 V 262.682 C 387.200 262.582 387.100 262.682 387.200 262.682 H 393.000 C 393.100 262.682 393.000 262.582 393.000 262.682 V 265.582 C 393.000 265.637 393.045 265.682 393.100 265.682 H 399.100 C 399.155 265.682 399.200 265.637 399.200 265.582 V 262.682 C 399.200 262.582 399.100 262.682 399.200 262.682 H 407.100 C 407.155 262.682 407.200 262.637 407.200 262.582 V 252.086 C 407.200 251.986 407.100 252.086 407.200 252.086 H 410.100 C 410.155 252.086 410.200 252.042 410.200 251.986 V 245.986 C 410.200 245.931 410.155 245.886 410.100 245.886 H 407.200 C 407.100 245.886 407.200 245.986 407.200 245.886 V 240.086 C 407.200 239.986 407.100 240.086 407.200 240.086 H 410.100 C 410.155 240.086 410.200 240.042 410.200 239.986 V 233.986 C 410.200 233.931 410.155 233.886 410.100 233.886 H 407.200 C 407.100 233.886 407.200 233.986 407.200 233.886 V 228.086 C 407.200 227.986 407.100 228.086 407.200 228.086 H 410.100 C 410.155 228.086 410.200 228.042 410.200 227.986 V 221.986 C 410.200 221.931 410.155 221.886 410.100 221.886 H 407.200 C 407.100 221.886 407.200 221.986 407.200 221.886 V 216.086 C 407.200 215.986 407.100 216.086 407.200 216.086 H 410.100 C 410.155 216.086 410.200 216.042 410.200 215.986 V 209.986 C 410.200 209.931 410.155 209.886 410.100 209.886 H 407.200 C 407.100 209.886 407.200 209.986 407.200 209.886 V 204.086 C 407.200 203.986 407.100 204.086 407.200 204.086 H 410.100 C 410.155 204.086 410.200 204.042 410.200 203.986 V 197.986 C 410.200 197.931 410.155 197.886 410.100 197.886 H 407.200 C 407.100 197.886 407.200 197.986 407.200 197.886 V 192.086 C 407.200 191.986 407.100 192.086 407.200 192.086 H 410.100 C 410.155 192.086 410.200 192.042 410.200 191.986 V 185.986 C 410.200 185.931 410.155 185.886 410.100 185.886 H 407.200 C 407.100 185.886 407.200 185.986 407.200 185.886 V 180.086 C 407.200 179.986 407.100 180.086 407.200 180.086 H 410.100 C 410.155 180.086 410.200 180.042 410.200 179.986 V 173.986 C 410.200 173.931 410.155 173.886 410.100 173.886 H 407.200 C 407.100 173.886 407.200 173.986 407.200 173.886 V 163.391 C 407.200 163.336 407.155 163.291 407.100 163.291 H 13.100 C 13.045 163.291 13.000 163.336 13.000 163.391 V 173.886 C 13.000 173.986 13.100 173.886 13.000 173.886 H 10.100 C 10.045 173.886 10.000 173.931 10.000 173.986 V 179.986 C 10.000 180.042 10.045 180.086 10.100 180.086 H 13.000 C 13.100 180.086 13.000 179.986 13.000 180.086 V 185.886 C 13.000 185.986 13.100 185.886 13.000 185.886 H 10.100 C 10.045 185.886 10.000 185.931 10.000 185.986 V 191.986 C 10.000 192.042 10.045 192.086 10.100 192.086 H 13.000 C 13.100 192.086 13.000 191.986 13.000 192.086 V 197.886 C 13.000 197.986 13.100 197.886 13.000 197.886 H 10.100 C 10.045 197.886 10.000 197.931 10.000 197.986 V 203.986 C 10.000 204.042 10.045 204.086 10.100 204.086 H 13.000 C 13.100 204.086 13.000 203.986 13.000 204.086 V 209.886 C 13.000 209.986 13.100 209.886 13.000 209.886 H 10.100 C 10.045 209.886 10.000 209.931 10.000 209.986 V 215.986 C 10.000 216.042 10.045 216.086 10.100 216.086 H 13.000 C 13.100 216.086 13.000 215.986 13.000 216.086 V 221.886 C 13.000 221.986 13.100 221.886 13.000 221.886 H 10.100 C 10.045 221.886 10.000 221.931 10.000 221.986 V 227.986 C 10.000 228.042 10.045 228.086 10.100 228.086 H 13.000 C 13.100 228.086 13.000 227.986 13.000 228.086 V 233.886 C 13.000 233.986 13.100 233.886 13.000 233.886 H 10.100 C 10.045 233.886 10.000 233.931 10.000 233.986 V 239.986 C 10.000 240.042 10.045 240.086 10.100 240.086 H 13.000 C 13.100 240.086 13.000 239.986 13.000 240.086 V 245.886 C 13.000 245.986 13.100 245.886 13.000 245.886 H 10.100 C 10.045 245.886 10.000 245.931 10.000 245.986 V 251.986 C 10.000 252.042 10.045 252.086 10.100 252.086 H 13.000 C 13.100 252.086 13.000 251.986 13.000 252.086 V 262.582 C 13.000 262.637 13.045 262.682 13.100 262.682 Z" stroke="rgb(0,0,0)" stroke-width="0.20" />
  <text dominant-baseline="hanging" font-size="4px" style="font-family: sans-serif ; font-weight: normal; font-style: normal; fill: rgb(255,0,0)" text-anchor="middle" transform="matrix( 1.000 0.000 0.000 1.000 210.100 212.586 )">shelf 2</text>
</g>
<g id="p-6" style="fill:none;stroke-linecap:round;stroke-linejoin:round;">
  <path d="M 13.100 161.791 H 21.100 C 21.155 161.791 21.200 161.746 21.200 161.691 V 158.791 C 21.200 158.691 21.100 158.791 21.200 158.791 H 27.000 C 27.100 158.791 27.000 158.691 27.000 158.791 V 161.691 C 27.000 161.746 27.045 161.791 27.100 161.791 H 33.100 C 33.155 161.791 33.200 161.746 33.200 161.691 V 158.791 C 33.200 158.691 33.100 158.791 33.200 158.791 H 39.000 C 39.100 158.791 39.000 158.691 39.000 158.791 V 161.691 C 39.000 161.746 39.045 161.791 39.100 161.791 H 45.100 C 45.155 161.791 45.200 161.746 45.200 161.691 V 158.791 C 45.200 158.691 45.100 158.791 45.200 158.791 H 51.000 C 51.100 158.791 51.000 158.691 51.000 158.791 V 161.691 C 51.000 161.746 51.045 161.791 51.100 161.791 H 57.100 C 57.155 161.791 57.200 161.746 57.200 161.691 V 158.791 C 57.200 158.691 57.100 158.791 57.200 158.791 H 63.000 C 63.100 158.791 63.000 158.691 63.000 158.791 V 161.691 C 63.000 161.746 63.045 161.791 63.100 161.791 H 69.100 C 69.155 161.791 69.200 161.746 69.200 161.691 V 158.791 C 69.200 158.691 69.100 158.791 69.200 158.791 H 75.000 C 75.100 158.791 75.000 158.691 75.000 158.791 V 161.691 C 75.000 161.746 75.045 161.791 75.100 161.791 H 81.100 C 81.155 161.791 81.200 161.746 81.200 161.691 V 158.791 C 81.200 158.691 81.100 158.791 81.200 158.791 H 87.000 C 87.100 158.791 87.000 158.691 87.000 158.791 V 161.691 C 87.000 161.746 87.045 161.791 87.100 161.791 H 93.100 C 93.155 161.791 93.200 161.746 93.200 161.691 V 158.791 C 93.200 158.691 93.100 158.791 93.200 158.791 H 99.000 C 99.100 158.791 99.000 158.691 99.000 158.791 V 161.691 C 99.000 161.746 99.045 161.791 99.100 161.791 H 105.100 C 105.155 161.791 105.200 161.746 105.200 161.691 V 158.791 C 105.200 158.691 105.100 158.791 105.200 158.791 H 111.000 C 111.100 158.791 111.000 158.691 111.000 158.791 V 161.691 C 111.000 161.746 111.045 161.791 111.100 161.791 H 117.100 C 117.155 161.791 117.200 161.746 117.200 161.691 V 158.791 C 117.200 158.691 117.100 158.791 117.200 158.791 H 123.000 C 123.100 158.791 123.000 158.691 123.000 158.791 V 161.691 C 123.000 161.746 123.045 161.791 123.100 161.791 H 129.100 C 129.155 161.791 129.200 161.746 129.200 161.691 V 158.791 C 129.200 158.691 129.100 158.791 129.200 158.791 H 135.000 C 135.100 158.791 135.000 158.691 135.000 158.791 V 161.691 C 135.000 161.746 135.045 161.791 135.100 161.791 H 141.100 C 141.155 161.791 141.200 161.746 141.200 161.691 V 158.791 C 141.200 158.691 141.100 158.791 141.200 158.791 H 147.000 C 147.100 158.791 147.000 158.691 147.000 158.791 V 161.691 C 147.000 161.746 147.045 161.791 147.100 161.791 H 153.100 C 153.155 161.791 153.200 161.746 153.200 161.691 V 158.791 C 153.200 158.691 153.100 158.791 153.200 158.791 H 159.000 C 159.100 158.791 159.000 158.691 159.000 158.791 V 161.691 C 159.000 161.746 159.045 161.791 159.100 161.791 H 165.100 C 165.155 161.791 165.200 161.746 165.200 161.691 V 158.791 C 165.200 158.691 165.100 158.791 165.200 158.791 H 171.000 C 171.100 158.791 171.000 158.691 171.000 158.791 V 161.691 C 171.000 161.746 171.045 161.791 171.100 161.791 H 177.100 C 177.155 161.791 177.200 161.746 177.200 161.691 V 158.791 C 177.200 158.691 177.100 158.791 177.200 158.791 H 183.000 C 183.100 158.791 183.000 158.691 183.000 158.791 V 161.691 C 183.000 161.746 183.045 161.791 183.100 161.791 H 189.100 C 189.155 161.791 189.200 161.746 189.200 161.691 V 158.791 C 189.200 158.691 189.100 158.791 189.200 158.791 H 195.000 C 195.100 158.791 195.000 158.691 195.000 158.791 V 161.691 C 195.000 161.746 195.045 161.791 195.100 161.791 H 201.100 C 201.155 161.791 201.200 161.746 201.200 161.691 V 158.791 C 201.200 158.691 201.100 158.791 201.200 158.791 H 207.000 C 207.100 158.791 207.000 158.691 207.000 158.791 V 161.691 C 207.000 161.746 207.045 161.791 207.100 161.791 H 213.100 C 213.155 161.791 213.200 161.746 213.200 161.691 V 158.791 C 213.200 158.691 213.100 158.791 213.200 158.791 H 219.000 C 219.100 158.791 219.000 158.691 219.000 158.791 V 161.691 C 219.000 161.746 219.045 161.791 219.100 161.791 H 225.100 C 225.155 161.791 225.200 161.746 225.200 161.691 V 158.791 C 225.200 158.691 225.100 158.791 225.200 158.791 H 231.000 C 231.100 158.791 231.000 158.691 231.000 158.791 V 161.691 C 231.000 161.746 231.045 161.791 231.100 161.791 H 237.100 C 237.155 161.791 237.200 161.746 237.200 161.691 V 158.791 C 237.200 158.691 237.100 158.791 237.200 158.791 H 243.000 C 243.100 158.791 243.000 158.691 243.000 158.791 V 161.691 C 243.000 161.746 243.045 161.791 243.100 161.791 H 249.100 C 249.155 161.791 249.200 161.746 249.200 161.691 V 158.791 C 249.200 158.691 249.100 158.791 249.200 158.791 H 255.000 C 255.100 158.791 255.000 158.691 255.000 158.791 V 161.691 C 255.000 161.746 255.045 161.791 255.100 161.791 H 261.100 C 261.155 161.791 261.200 161.746 261.200 161.691 V 158.791 C 261.200 158.691 261.100 158.791 261.200 158.791 H 267.000 C 267.100 158.791 267.000 158.691 267.000 158.791 V 161.691 C 267.000 161.746 267.045 161.791 267.100 161.791 H 273.100 C 273.155 161.791 273.200 161.746 273.200 161.691 V 158.791 C 273.200 158.691 273.100 158.791 273.200 158.791 H 279.000 C 279.100 158.791 279.000 158.691 279.000 158.791 V 161.691 C 279.000 161.746 279.045 161.791 279.100 161.791 H 285.100 C 285.155 161.791 285.200 161.746 285.200 161.691 V 158.791 C 285.200 158.691 285.100 158.791 285.200 158.791 H 291.000 C 291.100 158.791 291.000 158.691 291.000 158.791 V 161.691 C 291.000 161.746 291.045 161.791 291.100 161.791 H 297.100 C 297.155 161.791 297.200 161.746 297.200 161.691 V 158.791 C 297.200 158.691 297.100 158.791 297.200 158.791 H 303.000 C 303.100 158.791 303.000 158.691 303.000 158.791 V 161.691 C 303.000 161.746 303.045 161.791 303.100 161.791 H 309.100 C 309.155 161.791 309.200 161.746 309.200 161.691 V 158.791 C 309.200 158.691 309.100 158.791 309.200 158.791 H 315.000 C 315.100 158.791 315.000 158.691 315.000 158.791 V 161.691 C 315.000 161.746 315.045 161.791 315.100 161.791 H 321.100 C 321.155 161.791 321.200 161.746 321.200 161.691 V 158.791 C 321.200 158.691 321.100 158.791 321.200 158.791 H 327.000 C 327.100 158.791 327.000 158.691 327.000 158.791 V 161.691 C 327.000 161.746 327.045 161.791 327.100 161.791 H 333.100 C 333.155 161.791 333.200 161.746 333.200 161.691 V 158.791 C 333.200 158.691 333.100 158.791 333.200 158.791 H 339.000 C 339.100 158.791 339.000 158.691 339.000 158.791 V 161.691 C 339.000 161.746 339.045 161.791 339.100 161.791 H 345.100 C 345.155 161.791 345.200 161.746 345.200 161.691 V 158.791 C 345.200 158.691 345.100 158.791 345.200 158.791 H 351.000 C 351.100 158.791 351.000 158.691 351.000 158.791 V 161.691 C 351.000 161.746 351.045 161.791 351.100 161.791 H 357.100 C 357.155 161.791 357.200 161.746 357.200 161.691 V 158.791 C 357.200 158.691 357.100 158.791 357.200 158.791 H 363.000 C 363.100 158.791 363.000 158.691 363.000 158.791 V 161.691 C 363.000 161.746 363.045 161.791 363.100 161.791 H 369.100 C 369.155 161.791 369.200 161.746 369.200 161.691 V 158.791 C 369.200 158.691 369.100 158.791 369.200 158.791 H 375.000 C 375.100 158.791 375.000 158.691 375.000 158.791 V 161.691 C 375.000 161.746 375.045 161.791 375.100 161.791 H 381.100 C 381.155 161.791 381.200 161.746 381.200 161.691 V 158.791 C 381.200 158.691 381.100 158.791 381.200 158.791 H 387.000 C 387.100 158.791 387.000 158.691 387.000 158.791 V 161.691 C 387.000 161.746 387.045 161.791 387.100 161.791 H 393.100 C 393.155 161.791 393.200 161.746 393.200 161.691 V 158.791 C 393.200 158.691 393.100 158.791 393.200 158.791 H 399.000 C 399.100 158.791 399.000 158.691 399.000 158.791 V 161.691 C 399.000 161.746 399.045 161.791 399.100 161.791 H 407.100 C 407.155 161.791 407.200 161.746 407.200 161.691 V 158.691 V 151.791 C 407.200 151.691 407.100 151.791 407.200 151.791 H 410.100 C 410.155 151.791 410.200 151.746 410.200 151.691 V 145.691 C 410.200 145.636 410.155 145.591 410.100 145.591 H 407.200 C 407.100 145.591 407.200 145.691 407.200 145.591 V 138.691 C 407.200 138.636 407.155 138.591 407.100 138.591 H 13.100 C 13.045 138.591 13.000 138.636 13.000 138.691 V 145.591 C 13.000 145.691 13.100 145.591 13.000 145.591 H 10.100 C 10.045 145.591 10.000 145.636 10.000 145.691 V 151.691 C 10.000 151.746 10.045 151.791 10.100 151.791 H 13.000 C 13.100 151.791 13.000 151.691 13.000 151.791 V 158.691 V 161.691 C 13.000 161.746 13.045 161.791 13.100 161.791 Z" stroke="rgb(0,0,0)" stroke-width="0.20" />
  <text dominant-baseline="hanging" font-size="4px" style="font-family: sans-serif ; font-weight: normal; font-style: normal; fill: rgb(255,0,0)" text-anchor="middle" transform="matrix( 1.000 0.000 0.000 1.000 210.100 148.291 )">front lip 2</text>
</g>
<g id="p-7" style="fill:none;stroke-linecap:round;stroke-linejoin:round;">
  <path d="M 13.100 134.091 H 21.000 C 21.100 134.091 21.000 133.991 21.000 134.091 V 136.991 C 21.000 137.046 21.045 137.091 21.100 137.091 H 27.100 C 27.155 137.091 27.200 137.046 27.200 136.991 V 134.091 C 27.200 133.991 27.100 134.091 27.200 134.091 H 33.000 C 33.100 134.091 33.000 133.991 33.000 134.091 V 136.991 C 33.000 137.046 33.045 137.091 33.100 137.091 H 39.100 C 39.155 137.091 39.200 137.046 39.200 136.991 V 134.091 C 39.200 133.991 39.100 134.091 39.200 134.091 H 45.000 C 45.100 134.091 45.000 133.991 45.000 134.091 V 136.991 C 45.000 137.046 45.045 137.091 45.100 137.091 H 51.100 C 51.155 137.091 51.200 137.046 51.200 136.991 V 134.091 C 51.200 133.991 51.100 134.091 51.200 134.091 H 57.000 C 57.100 134.091 57.000 133.991 57.000 134.091 V 136.991 C 57.000 137.046 57.045 137.091 57.100 137.091 H 63.100 C 63.155 137.091 63.200 137.046 63.200 136.991 V 134.091 C 63.200 133.991 63.100 134.091 63.200 134.091 H 69.000 C 69.100 134.091 69.000 133.991 69.000 134.091 V 136.991 C 69.000 137.046 69.045 137.091 69.100 137.091 H 75.100 C 75.155 137.091 75.200 137.046 75.200 136.991 V 134.091 C 75.200 133.991 75.100 134.091 75.200 134.091 H 81.000 C 81.100 134.091 81.000 133.991 81.000 134.091 V 136.991 C 81.000 137.046 81.045 137.091 81.100 137.091 H 87.100 C 87.155 137.091 87.200 137.046 87.200 136.991 V 134.091 C 87.200 133.991 87.100 134.091 87.200 134.091 H 93.000 C 93.100 134.091 93.000 133.991 93.000 134.091 V 136.991 C 93.000 137.046 93.045 137.091 93.100 137.091 H 99.100 C 99.155 137.091 99.200 137.046 99.200 136.991 V 134.091 C 99.200 133.991 99.100 134.091 99.200 134.091 H 105.000 C 105.100 134.091 105.000 133.991 105.000 134.091 V 136.991 C 105.000 137.046 105.045 137.091 105.100 137.091 H 111.100 C 111.155 137.091 111.200 137.046 111.200 136.991 V 134.091 C 111.200 133.991 111.100 134.091 111.200 134.091 H 117.000 C 117.100 134.091 117.000 133.991 117.000 134.091 V 136.991 C 117.000 137.046 117.045 137.091 117.100 137.091 H 123.100 C 123.155 137.091 123.200 137.046 123.200 136.991 V 134.091 C 123.200 133.991 123.100 134.091 123.200 134.091 H 129.000 C 129.100 134.091 129.000 133.991 129.000 134.091 V 136.991 C 129.000 137.046 129.045 137.091 129.100 137.091 H 135.100 C 135.155 137.091 135.200 137.046 135.200 136.991 V 134.091 C 135.200 133.991 135.100 134.091 135.200 134.091 H 141.000 C 141.100 134.091 141.000 133.991 141.000 134.091 V 136.991 C 141.000 137.046 141.045 137.091 141.100 137.091 H 147.100 C 147.155 137.091 147.200 137.046 147.200 136.991 V 134.091 C 147.200 133.991 147.100 134.091 147.200 134.091 H 153.000 C 153.100 134.091 153.000 133.991 153.000 134.091 V 136.991 C 153.000 137.046 153.045 137.091 153.100 137.091 H 159.100 C 159.155 137.091 159.200 137.046 159.200 136.991 V 134.091 C 159.200 133.991 159.100 134.091 159.200 134.091 H 165.000 C 165.100 134.091 165.000 133.991 165.000 134.091 V 136.991 C 165.000 137.046 165.045 137.091 165.100 137.091 H 171.100 C 171.155 137.091 171.200 137.046 171.200 136.991 V 134.091 C 171.200 133.991 171.100 134.091 171.200 134.091 H 177.000 C 177.100 134.091 177.000 133.991 177.000 134.091 V 136.991 C 177.000 137.046 177.045 137.091 177.100 137.091 H 183.100 C 183.155 137.091 183.200 137.046 183.200 136.991 V 134.091 C 183.200 133.991 183.100 134.091 183.200 134.091 H 189.000 C 189.100 134.091 189.000 133.991 189.000 134.091 V 136.991 C 189.000 137.046 189.045 137.091 189.100 137.091 H 195.100 C 195.155 137.091 195.200 137.046 195.200 136.991 V 134.091 C 195.200 133.991 195.100 134.091 195.200 134.091 H 201.000 C 201.100 134.091 201.000 133.991 201.000 134.091 V 136.991 C 201.000 137.046 201.045 137.091 201.100 137.091 H 207.100 C 207.155 137.091 207.200 137.046 207.200 136.991 V 134.091 C 207.200 133.991 207.100 134.091 207.200 134.091 H 213.000 C 213.100 134.091 213.000 133.991 213.000 134.091 V 136.991 C 213.000 137.046 213.045 137.091 213.100 137.091 H 219.100 C 219.155 137.091 219.200 137.046 219.200 136.991 V 134.091 C 219.200 133.991 219.100 134.091 219.200 134.091 H 225.000 C 225.100 134.091 225.000 133.991 225.000 134.091 V 136.991 C 225.000 137.046 225.045 137.091 225.100 137.091 H 231.100 C 231.155 137.091 231.200 137.046 231.200 136.991 V 134.091 C 231.200 133.991 231.100 134.091 231.200 134.091 H 237.000 C 237.100 134.091 237.000 133.991 237.000 134.091 V 136.991 C 237.000 137.046 237.045 137.091 237.100 137.091 H 243.100 C 243.155 137.091 243.200 137.046 243.200 136.991 V 134.091 C 243.200 133.991 243.100 134.091 243.200 134.091 H 249.000 C 249.100 134.091 249.000 133.991 249.000 134.091 V 136.991 C 249.000 137.046 249.045 137.091 249.100 137.091 H 255.100 C 255.155 137.091 255.200 137.046 255.200 136.991 V 134.091 C 255.200 133.991 255.100 134.091 255.200 134.091 H 261.000 C 261.100 134.091 261.000 133.991 261.000 134.091 V 136.991 C 261.000 137.046 261.045 137.091 261.100 137.091 H 267.100 C 267.155 137.091 267.200 137.046 267.200 136.991 V 134.091 C 267.200 133.991 267.100 134.091 267.200 134.091 H 273.000 C 273.100 134.091 273.000 133.991 273.000 134.091 V 136.991 C 273.000 137.046 273.045 137.091 273.100 137.091 H 279.100 C 279.155 137.091 279.200 137.046 279.200 136.991 V 134.091 C 279.200 133.991 279.100 134.091 279.200 134.091 H 285.000 C 285.100 134.091 285.000 133.991 285.000 134.091 V 136.991 C 285.000 137.046 285.045 137.091 285.100 137.091 H 291.100 C 291.155 137.091 291.200 137.046 291.200 136.991 V 134.091 C 291.200 133.991 291.100 134.091 291.200 134.091 H 297.000 C 297.100 134.091 297.000 133.991 297.000 134.091 V 136.991 C 297.000 137.046 297.045 137.091 297.100 137.091 H 303.100 C 303.155 137.091 303.200 137.046 303.200 136.991 V 134.091 C 303.200 133.991 303.100 134.091 303.200 134.091 H 309.000 C 309.100 134.091 309.000 133.991 309.000 134.091 V 136.991 C 309.000 137.046 309.045 137.091 309.100 137.091 H 315.100 C 315.155 137.091 315.200 137.046 315.200 136.991 V 134.091 C 315.200 133.991 315.100 134.091 315.200 134.091 H 321.000 C 321.100 134.091 321.000 133.991 321.000 134.091 V 136.991 C 321.000 137.046 321.045 137.091 321.100 137.091 H 327.100 C 327.155 137.091 327.200 137.046 327.200 136.991 V 134.091 C 327.200 133.991 327.100 134.091 327.200 134.091 H 333.000 C 333.100 134.091 333.000 133.991 333.000 134.091 V 136.991 C 333.000 137.046 333.045 137.091 333.100 137.091 H 339.100 C 339.155 137.091 339.200 137.046 339.200 136.991 V 134.091 C 339.200 133.991 339.100 134.091 339.200 134.091 H 345.000 C 345.100 134.091 345.000 133.991 345.000 134.091 V 136.991 C 345.000 137.046 345.045 137.091 345.100 137.091 H 351.100 C 351.155 137.091 351.200 137.046 351.200 136.991 V 134.091 C 351.200 133.991 351.100 134.091 351.200 134.091 H 357.000 C 357.100 134.091 357.000 133.991 357.000 134.091 V 136.991 C 357.000 137.046 357.045 137.091 357.100 137.091 H 363.100 C 363.155 137.091 363.200 137.046 363.200 136.991 V 134.091 C 363.200 133.991 363.100 134.091 363.200 134.091 H 369.000 C 369.100 134.091 369.000 133.991 369.000 134.091 V 136.991 C 369.000 137.046 369.045 137.091 369.100 137.091 H 375.100 C 375.155 137.091 375.200 137.046 375.200 136.991 V 134.091 C 375.200 133.991 375.100 134.091 375.200 134.091 H 381.000 C 381.100 134.091 381.000 133.991 381.000 134.091 V 136.991 C 381.000 137.046 381.045 137.091 381.100 137.091 H 387.100 C 387.155 137.091 387.200 137.046 387.200 136.991 V 134.091 C 387.200 133.991 387.100 134.091 387.200 134.091 H 393.000 C 393.100 134.091 393.000 133.991 393.000 134.091 V 136.991 C 393.000 137.046 393.045 137.091 393.100 137.091 H 399.100 C 399.155 137.091 399.200 137.046 399.200 136.991 V 134.091 C 399.200 133.991 399.100 134.091 399.200 134.091 H 407.100 C 407.155 134.091 407.200 134.046 407.200 133.991 V 123.495 C 407.200 123.395 407.100 123.495 407.200 123.495 H 410.100 C 410.155 123.495 410.200 123.451 410.200 123.395 V 117.395 C 410.200 117.340 410.155 117.295 410.100 117.295 H 407.200 C 407.100 117.295 407.200 117.395 407.200 117.295 V 111.495 C 407.200 111.395 407.100 111.495 407.200 111.495 H 410.100 C 410.155 111.495 410.200 111.451 410.200 111.395 V 105.395 C 410.200 105.340 410.155 105.295 410.100 105.295 H 407.200 C 407.100 105.295 407.200 105.395 407.200 105.295 V 99.495 C 407.200 99.395 407.100 99.495 407.200 99.495 H 410.100 C 410.155 99.495 410.200 99.451 410.200 99.395 V 93.395 C 410.200 93.340 410.155 93.295 410.100 93.295 H 407.200 C 407.100 93.295 407.200 93.395 407.200 93.295 V 87.495 C 407.200 87.395 407.100 87.495 407.200 87.495 H 410.100 C 410.155 87.495 410.200 87.451 410.200 87.395 V 81.395 C 410.200 81.340 410.155 81.295 410.100 81.295 H 407.200 C 407.100 81.295 407.200 81.395 407.200 81.295 V 75.495 C 407.200 75.395 407.100 75.495 407.200 75.495 H 410.100 C 410.155 75.495 410.200 75.451 410.200 75.395 V 69.395 C 410.200 69.340 410.155 69.295 410.100 69.295 H 407.200 C 407.100 69.295 407.200 69.395 407.200 69.295 V 63.495 C 407.200 63.395 407.100 63.495 407.200 63.495 H 410.100 C 410.155 63.495 410.200 63.451 410.200 63.395 V 57.395 C 410.200 57.340 410.155 57.295 410.100 57.295 H 407.200 C 407.100 57.295 407.200 57.395 407.200 57.295 V 51.495 C 407.200 51.395 407.100 51.495 407.200 51.495 H 410.100 C 410.155 51.495 410.200 51.451 410.200 51.395 V 45.395 C 410.200 45.340 410.155 45.295 410.100 45.295 H 407.200 C 407.100 45.295 407.200 45.395 407.200 45.295 V 34.800 C 407.200 34.745 407.155 34.700 407.100 34.700 H 13.100 C 13.045 34.700 13.000 34.745 13.000 34.800 V 45.295 C 13.000 45.395 13.100 45.295 13.000 45.295 H 10.100 C 10.045 45.295 10.000 45.340 10.000 45.395 V 51.395 C 10.000 51.451 10.045 51.495 10.100 51.495 H 13.000 C 13.100 51.495 13.000 51.395 13.000 51.495 V 57.295 C 13.000 57.395 13.100 57.295 13.000 57.295 H 10.100 C 10.045 57.295 10.000 57.340 10.000 57.395 V 63.395 C 10.000 63.451 10.045 63.495 10.100 63.495 H 13.000 C 13.100 63.495 13.000 63.395 13.000 63.495 V 69.295 C 13.000 69.395 13.100 69.295 13.000 69.295 H 10.100 C 10.045 69.295 10.000 69.340 10.000 69.395 V 75.395 C 10.000 75.451 10.045 75.495 10.100 75.495 H 13.000 C 13.100 75.495 13.000 75.395 13.000 75.495 V 81.295 C 13.000 81.395 13.100 81.295 13.000 81.295 H 10.100 C 10.045 81.295 10.000 81.340 10.000 81.395 V 87.395 C 10.000 87.451 10.045 87.495 10.100 87.495 H 13.000 C 13.100 87.495 13.000 87.395 13.000 87.495 V 93.295 C 13.000 93.395 13.100 93.295 13.000 93.295 H 10.100 C 10.045 93.295 10.000 93.340 10.000 93.395 V 99.395 C 10.000 99.451 10.045 99.495 10.100 99.495 H 13.000 C 13.100 99.495 13.000 99.395 13.000 99.495 V 105.295 C 13.000 105.395 13.100 105.295 13.000 105.295 H 10.100 C 10.045 105.295 10.000 105.340 10.000 105.395 V 111.395 C 10.000 111.451 10.045 111.495 10.100 111.495 H 13.000 C 13.100 111.495 13.000 111.395 13.000 111.495 V 117.295 C 13.000 117.395 13.100 117.295 13.000 117.295 H 10.100 C 10.045 117.295 10.000 117.340 10.000 117.395 V 123.395 C 10.000 123.451 10.045 123.495 10.100 123.495 H 13.000 C 13.100 123.495 13.000 123.395 13.000 123.495 V 133.991 C 13.000 134.046 13.045 134.091 13.100 134.091 Z" stroke="rgb(0,0,0)" stroke-width="0.20" />
  <text dominant-baseline="hanging" font-size="4px" style="font-family: sans-serif ; font-weight: normal; font-style: normal; fill: rgb(255,0,0)" text-anchor="middle" transform="matrix( 1.000 0.000 0.000 1.000 210.100 83.995 )">shelf 3</text>
</g>
<g id="p-8" style="fill:none;stroke-linecap:round;stroke-linejoin:round;">
  <path d="M 13.100 33.200 H 21.100 C 21.155 33.200 21.200 33.155 21.200 33.100 V 30.200 C 21.200 30.100 21.100 30.200 21.200 30.200 H 27.000 C 27.100 30.200 27.000 30.100 27.000 30.200 V 33.100 C 27.000 33.155 27.045 33.200 27.100 33.200 H 33.100 C 33.155 33.200 33.200 33.155 33.200 33.100 V 30.200 C 33.200 30.100 33.100 30.200 33.200 30.200 H 39.000 C 39.100 30.200 39.000 30.100 39.000 30.200 V 33.100 C 39.000 33.155 39.045 33.200 39.100 33.200 H 45.100 C 45.155 33.200 45.200 33.155 45.200 33.100 V 30.200 C 45.200 30.100 45.100 30.200 45.200 30.200 H 51.000 C 51.100 30.200 51.000 30.100 51.000 30.200 V 33.100 C 51.000 33.155 51.045 33.200 51.100 33.200 H 57.100 C 57.155 33.200 57.200 33.155 57.200 33.100 V 30.200 C 57.200 30.100 57.100 30.200 57.200 30.200 H 63.000 C 63.100 30.200 63.000 30.100 63.000 30.200 V 33.100 C 63.000 33.155 63.045 33.200 63.100 33.200 H 69.100 C 69.155 33.200 69.200 33.155 69.200 33.100 V 30.200 C 69.200 30.100 69.100 30.200 69.200 30.200 H 75.000 C 75.100 30.200 75.000 30.100 75.000 30.200 V 33.100 C 75.000 33.155 75.045 33.200 75.100 33.200 H 81.100 C 81.155 33.200 81.200 33.155 81.200 33.100 V 30.200 C 81.200 30.100 81.100 30.200 81.200 30.200 H 87.000 C 87.100 30.200 87.000 30.100 87.000 30.200 V 33.100 C 87.000 33.155 87.045 33.200 87.100 33.200 H 93.100 C 93.155 33.200 93.200 33.155 93.200 33.100 V 30.200 C 93.200 30.100 93.100 30.200 93.200 30.200 H 99.000 C 99.100 30.200 99.000 30.100 99.000 30.200 V 33.100 C 99.000 33.155 99.045 33.200 99.100 33.200 H 105.100 C 105.155 33.200 105.200 33.155 105.200 33.100 V 30.200 C 105.200 30.100 105.100 30.200 105.200 30.200 H 111.000 C 111.100 30.200 111.000 30.100 111.000 30.200 V 33.100 C 111.000 33.155 111.045 33.200 111.100 33.200 H 117.100 C 117.155 33.200 117.200 33.155 117.200 33.100 V 30.200 C 117.200 30.100 117.100 30.200 117.200 30.200 H 123.000 C 123.100 30.200 123.000 30.100 123.000 30.200 V 33.100 C 123.000 33.155 123.045 33.200 123.100 33.200 H 129.100 C 129.155 33.200 129.200 33.155 129.200 33.100 V 30.200 C 129.200 30.100 129.100 30.200 129.200 30.200 H 135.000 C 135.100 30.200 135.000 30.100 135.000 30.200 V 33.100 C 135.000 33.155 135.045 33.200 135.100 33.200 H 141.100 C 141.155 33.200 141.200 33.155 141.200 33.100 V 30.200 C 141.200 30.100 141.100 30.200 141.200 30.200 H 147.000 C 147.100 30.200 147.000 30.100 147.000 30.200 V 33.100 C 147.000 33.155 147.045 33.200 147.100 33.200 H 153.100 C 153.155 33.200 153.200 33.155 153.200 33.100 V 30.200 C 153.200 30.100 153.100 30.200 153.200 30.200 H 159.000 C 159.100 30.200 159.000 30.100 159.000 30.200 V 33.100 C 159.000 33.155 159.045 33.200 159.100 33.200 H 165.100 C 165.155 33.200 165.200 33.155 165.200 33.100 V 30.200 C 165.200 30.100 165.100 30.200 165.200 30.200 H 171.000 C 171.100 30.200 171.000 30.100 171.000 30.200 V 33.100 C 171.000 33.155 171.045 33.200 171.100 33.200 H 177.100 C 177.155 33.200 177.200 33.155 177.200 33.100 V 30.200 C 177.200 30.100 177.100 30.200 177.200 30.200 H 183.000 C 183.100 30.200 183.000 30.100 183.000 30.200 V 33.100 C 183.000 33.155 183.045 33.200 183.100 33.200 H 189.100 C 189.155 33.200 189.200 33.155 189.200 33.100 V 30.200 C 189.200 30.100 189.100 30.200 189.200 30.200 H 195.000 C 195.100 30.200 195.000 30.100 195.000 30.200 V 33.100 C 195.000 33.155 195.045 33.200 195.100 33.200 H 201.100 C 201.155 33.200 201.200 33.155 201.200 33.100 V 30.200 C 201.200 30.100 201.100 30.200 201.200 30.200 H 207.000 C 207.100 30.200 207.000 30.100 207.000 30.200 V 33.100 C 207.000 33.155 207.045 33.200 207.100 33.200 H 213.100 C 213.155 33.200 213.200 33.155 213.200 33.100 V 30.200 C 213.200 30.100 213.100 30.200 213.200 30.200 H 219.000 C 219.100 30.200 219.000 30.100 219.000 30.200 V 33.100 C 219.000 33.155 219.045 33.200 219.100 33.200 H 225.100 C 225.155 33.200 225.200 33.155 225.200 33.100 V 30.200 C 225.200 30.100 225.100 30.200 225.200 30.200 H 231.000 C 231.100 30.200 231.000 30.100 231.000 30.200 V 33.100 C 231.000 33.155 231.045 33.200 231.100 33.200 H 237.100 C 237.155 33.200 237.200 33.155 237.200 33.100 V 30.200 C 237.200 30.100 237.100 30.200 237.200 30.200 H 243.000 C 243.100 30.200 243.000 30.100 243.000 30.200 V 33.100 C 243.000 33.155 243.045 33.200 243.100 33.200 H 249.100 C 249.155 33.200 249.200 33.155 249.200 33.100 V 30.200 C 249.200 30.100 249.100 30.200 249.200 30.200 H 255.000 C 255.100 30.200 255.000 30.100 255.000 30.200 V 33.100 C 255.000 33.155 255.045 33.200 255.100 33.200 H 261.100 C 261.155 33.200 261.200 33.155 261.200 33.100 V 30.200 C 261.200 30.100 261.100 30.200 261.200 30.200 H 267.000 C 267.100 30.200 267.000 30.100 267.000 30.200 V 33.100 C 267.000 33.155 267.045 33.200 267.100 33.200 H 273.100 C 273.155 33.200 273.200 33.155 273.200 33.100 V 30.200 C 273.200 30.100 273.100 30.200 273.200 30.200 H 279.000 C 279.100 30.200 279.000 30.100 279.000 30.200 V 33.100 C 279.000 33.155 279.045 33.200 279.100 33.200 H 285.100 C 285.155 33.200 285.200 33.155 285.200 33.100 V 30.200 C 285.200 30.100 285.100 30.200 285.200 30.200 H 291.000 C 291.100 30.200 291.000 30.100 291.000 30.200 V 33.100 C 291.000 33.155 291.045 33.200 291.100 33.200 H 297.100 C 297.155 33.200 297.200 33.155 297.200 33.100 V 30.200 C 297.200 30.100 297.100 30.200 297.200 30.200 H 303.000 C 303.100 30.200 303.000 30.100 303.000 30.200 V 33.100 C 303.000 33.155 303.045 33.200 303.100 33.200 H 309.100 C 309.155 33.200 309.200 33.155 309.200 33.100 V 30.200 C 309.200 30.100 309.100 30.200 309.200 30.200 H 315.000 C 315.100 30.200 315.000 30.100 315.000 30.200 V 33.100 C 315.000 33.155 315.045 33.200 315.100 33.200 H 321.100 C 321.155 33.200 321.200 33.155 321.200 33.100 V 30.200 C 321.200 30.100 321.100 30.200 321.200 30.200 H 327.000 C 327.100 30.200 327.000 30.100 327.000 30.200 V 33.100 C 327.000 33.155 327.045 33.200 327.100 33.200 H 333.100 C 333.155 33.200 333.200 33.155 333.200 33.100 V 30.200 C 333.200 30.100 333.100 30.200 333.200 30.200 H 339.000 C 339.100 30.200 339.000 30.100 339.000 30.200 V 33.100 C 339.000 33.155 339.045 33.200 339.100 33.200 H 345.100 C 345.155 33.200 345.200 33.155 345.200 33.100 V 30.200 C 345.200 30.100 345.100 30.200 345.200 30.200 H 351.000 C 351.100 30.200 351.000 30.100 351.000 30.200 V 33.100 C 351.000 33.155 351.045 33.200 351.100 33.200 H 357.100 C 357.155 33.200 357.200 33.155 357.200 33.100 V 30.200 C 357.200 30.100 357.100 30.200 357.200 30.200 H 363.000 C 363.100 30.200 363.000 30.100 363.000 30.200 V 33.100 C 363.000 33.155 363.045 33.200 363.100 33.200 H 369.100 C 369.155 33.200 369.200 33.155 369.200 33.100 V 30.200 C 369.200 30.100 369.100 30.200 369.200 30.200 H 375.000 C 375.100 30.200 375.000 30.100 375.000 30.200 V 33.100 C 375.000 33.155 375.045 33.200 375.100 33.200 H 381.100 C 381.155 33.200 381.200 33.155 381.200 33.100 V 30.200 C 381.200 30.100 381.100 30.200 381.200 30.200 H 387.000 C 387.100 30.200 387.000 30.100 387.000 30.200 V 33.100 C 387.000 33.155 387.045 33.200 387.100 33.200 H 393.100 C 393.155 33.200 393.200 33.155 393.200 33.100 V 30.200 C 393.200 30.100 393.100 30.200 393.200 30.200 H 399.000 C 399.100 30.200 399.000 30.100 399.000 30.200 V 33.100 C 399.000 33.155 399.045 33.200 399.100 33.200 H 407.100 C 407.155 33.200 407.200 33.155 407.200 33.100 V 30.100 V 23.200 C 407.200 23.100 407.100 23.200 407.200 23.200 H 410.100 C 410.155 23.200 410.200 23.155 410.200 23.100 V 17.100 C 410.200 17.045 410.155 17.000 410.100 17.000 H 407.200 C 407.100 17.000 407.200 17.100 407.200 17.000 V 10.100 C 407.200 10.045 407.155 10.000 407.100 10.000 H 13.100 C 13.045 10.000 13.000 10.045 13.000 10.100 V 17.000 C 13.000 17.100 13.100 17.000 13.000 17.000 H 10.100 C 10.045 17.000 10.000 17.045 10.000 17.100 V 23.100 C 10.000 23.155 10.045 23.200 10.100 23.200 H 13.000 C 13.100 23.200 13.000 23.100 13.000 23.200 V 30.100 V 33.100 C 13.000 33.155 13.045 33.200 13.100 33.200 Z" stroke="rgb(0,0,0)" stroke-width="0.20" />
  <text dominant-baseline="hanging" font-size="4px" style="font-family: sans-serif ; font-weight: normal; font-style: normal; fill: rgb(255,0,0)" text-anchor="middle" transform="matrix( 1.000 0.000 0.000 1.000 210.100 19.700 )">front lip 3</text>
</g>
</svg>