<?xml version='1.0' encoding='utf-8'?>
<svg height="339.30mm" viewBox="0.0 0.0 229.90 339.30" width="229.90mm" xmlns="http://www.w3.org/2000/svg" xmlns:cc="http://creativecommons.org/ns#" xmlns:dc="http://purl.org/dc/elements/1.1/" xmlns:inkscape="http://www.inkscape.org/namespaces/inkscape" xmlns:rdf="http://www.w3.org/1999/02/22-rdf-syntax-ns#" xmlns:svg="http://www.w3.org/2000/svg" xmlns:xlink="http://www.w3.org/1999/xlink">
<!--
DisplayCase - Fully closed box intended to be cut from transparent acrylics and to serve as a display case.

Created with Boxes.py (https://boxes.hackerspace-bamberg.de/)
Command line (remove spaces between dashes): boxes DisplayCase
-->
<title>DisplayCase</title>
<metadata>
<rdf:RDF><cc:Work>
<dc:title>Box - DisplayCase</dc:title>
<dc:source>boxes DisplayCase</dc:source>
<dc:description>Fully closed box intended to be cut from transparent acrylics and to serve as a display case.

Created with Boxes.py (https://boxes.hackerspace-bamberg.de/)
Command line: boxes DisplayCase
Command line short: boxes DisplayCase
</dc:description>
</cc:Work></rdf:RDF></metadata>
<g id="p-0" style="fill:none;stroke-linecap:round;stroke-linejoin:round;">
  <path d="M 10.100 329.300 H 110.100 V 319.300 H 10.100 V 329.300 Z" stroke="rgb(0,0,0)" stroke-width="0.20" />
  <text dominant-baseline="hanging" font-size="6px" style="font-family: sans-serif ; font-weight: normal; font-style: normal; fill: rgb(255,0,0)" text-anchor="middle" transform="matrix( 1.000 0.000 0.000 1.000 60.100 321.300 )">100.0mm, burn:0.10mm</text>
</g>
<g id="p-1" style="fill:none;stroke-linecap:round;stroke-linejoin:round;">
  <path d="M 13.100 314.600 H 21.000 C 21.100 314.600 21.000 314.500 21.000 314.600 V 317.500 C 21.000 317.555 21.045 317.600 21.100 317.600 H 27.100 C 27.155 317.600 27.200 317.555 27.200 317.500 V 314.600 C 27.200 314.500 27.100 314.600 27.200 314.600 H 33.000 C 33.100 314.600 33.000 314.500 33.000 314.600 V 317.500 C 33.000 317.555 33.045 317.600 33.100 317.600 H 39.100 C 39.155 317.600 39.200 317.555 39.200 317.500 V 314.600 C 39.200 314.500 39.100 314.600 39.200 314.600 H 45.000 C 45.100 314.600 45.000 314.500 45.000 314.600 V 317.500 C 45.000 317.555 45.045 317.600 45.100 317.600 H 51.100 C 51.155 317.600 51.200 317.555 51.200 317.500 V 314.600 C 51.200 314.500 51.100 314.600 51.200 314.600 H 57.000 C 57.100 314.600 57.000 314.500 57.000 314.600 V 317.500 C 57.000 317.555 57.045 317.600 57.100 317.600 H 63.100 C 63.155 317.600 63.200 317.555 63.200 317.500 V 314.600 C 63.200 314.500 63.100 314.600 63.200 314.600 H 69.000 C 69.100 314.600 69.000 314.500 69.000 314.600 V 317.500 C 69.000 317.555 69.045 317.600 69.100 317.600 H 75.100 C 75.155 317.600 75.200 317.555 75.200 317.500 V 314.600 C 75.200 314.500 75.100 314.600 75.200 314.600 H 81.000 C 81.100 314.600 81.000 314.500 81.000 314.600 V 317.500 C 81.000 317.555 81.045 317.600 81.100 317.600 H 87.100 C 87.155 317.600 87.200 317.555 87.200 317.500 V 314.600 C 87.200 314.500 87.100 314.600 87.200 314.600 H 93.000 C 93.100 314.600 93.000 314.500 93.000 314.600 V 317.500 C 93.000 317.555 93.045 317.600 93.100 317.600 H 99.100 C 99.155 317.600 99.200 317.555 99.200 317.500 V 314.600 C 99.200 314.500 99.100 314.600 99.200 314.600 H 107.100 C 107.155 314.600 107.200 314.555 107.200 314.500 V 306.600 C 107.200 306.500 107.100 306.600 107.200 306.600 H 110.100 C 110.155 306.600 110.200 306.555 110.200 306.500 V 300.500 C 110.200 300.445 110.155 300.400 110.100 300.400 H 107.200 C 107.100 300.400 107.200 300.500 107.200 300.400 V 294.600 C 107.200 294.500 107.100 294.600 107.200 294.600 H 110.100 C 110.155 294.600 110.200 294.555 110.200 294.500 V 288.500 C 110.200 288.445 110.155 288.400 110.100 288.400 H 107.200 C 107.100 288.400 107.200 288.500 107.200 288.400 V 282.600 C 107.200 282.500 107.100 282.600 107.200 282.600 H 110.100 C 110.155 282.600 110.200 282.555 110.200 282.500 V 276.500 C 110.200 276.445 110.155 276.400 110.100 276.400 H 107.200 C 107.100 276.400 107.200 276.500 107.200 276.400 V 270.600 C 107.200 270.500 107.100 270.600 107.200 270.600 H 110.100 C 110.155 270.600 110.200 270.555 110.200 270.500 V 264.500 C 110.200 264.445 110.155 264.400 110.100 264.400 H 107.200 C 107.100 264.400 107.200 264.500 107.200 264.400 V 258.600 C 107.200 258.500 107.100 258.600 107.200 258.600 H 110.100 C 110.155 258.600 110.200 258.555 110.200 258.500 V 252.500 C 110.200 252.445 110.155 252.400 110.100 252.400 H 107.200 C 107.100 252.400 107.200 252.500 107.200 252.400 V 246.600 C 107.200 246.500 107.100 246.600 107.200 246.600 H 110.100 C 110.155 246.600 110.200 246.555 110.200 246.500 V 240.500 C 110.200 240.445 110.155 240.400 110.100 240.400 H 107.200 C 107.100 240.400 107.200 240.500 107.200 240.400 V 234.600 C 107.200 234.500 107.100 234.600 107.200 234.600 H 110.100 C 110.155 234.600 110.200 234.555 110.200 234.500 V 228.500 C 110.200 228.445 110.155 228.400 110.100 228.400 H 107.200 C 107.100 228.400 107.200 228.500 107.200 228.400 V 220.500 C 107.200 220.445 107.155 220.400 107.100 220.400 H 99.200 C 99.100 220.400 99.200 220.500 99.200 220.400 V 217.500 C 99.200 217.445 99.155 217.400 99.100 217.400 H 93.100 C 93.045 217.400 93.000 217.445 93.000 217.500 V 220.400 C 93.000 220.500 93.100 220.400 93.000 220.400 H 87.200 C 87.100 220.400 87.200 220.500 87.200 220.400 V 217.500 C 87.200 217.445 87.155 217.400 87.100 217.400 H 81.100 C 81.045 217.400 81.000 217.445 81.000 217.500 V 220.400 C 81.000 220.500 81.100 220.400 81.000 220.400 H 75.200 C 75.100 220.400 75.200 220.500 75.200 220.400 V 217.500 C 75.200 217.445 75.155 217.400 75.100 217.400 H 69.100 C 69.045 217.400 69.000 217.445 69.000 217.500 V 220.400 C 69.000 220.500 69.100 220.400 69.000 220.400 H 63.200 C 63.100 220.400 63.200 220.500 63.200 220.400 V 217.500 C 63.200 217.445 63.155 217.400 63.100 217.400 H 57.100 C 57.045 217.400 57.000 217.445 57.000 217.500 V 220.400 C 57.000 220.500 57.100 220.400 57.000 220.400 H 51.200 C 51.100 220.400 51.200 220.500 51.200 220.400 V 217.500 C 51.200 217.445 51.155 217.400 51.100 217.400 H 45.100 C 45.045 217.400 45.000 217.445 45.000 217.500 V 220.400 C 45.000 220.500 45.100 220.400 45.000 220.400 H 39.200 C 39.100 220.400 39.200 220.500 39.200 220.400 V 217.500 C 39.200 217.445 39.155 217.400 39.100 217.400 H 33.100 C 33.045 217.400 33.000 217.445 33.000 217.500 V 220.400 C 33.000 220.500 33.100 220.400 33.000 220.400 H 27.200 C 27.100 220.400 27.200 220.500 27.200 220.400 V 217.500 C 27.200 217.445 27.155 217.400 27.100 217.400 H 21.100 C 21.045 217.400 21.000 217.445 21.000 217.500 V 220.400 C 21.000 220.500 21.100 220.400 21.000 220.400 H 13.100 C 13.045 220.400 13.000 220.445 13.000 220.500 V 228.400 C 13.000 228.500 13.100 228.400 13.000 228.400 H 10.100 C 10.045 228.400 10.000 228.445 10.000 228.500 V 234.500 C 10.000 234.555 10.045 234.600 10.100 234.600 H 13.000 C 13.100 234.600 13.000 234.500 13.000 234.600 V 240.400 C 13.000 240.500 13.100 240.400 13.000 240.400 H 10.100 C 10.045 240.400 10.000 240.445 10.000 240.500 V 246.500 C 10.000 246.555 10.045 246.600 10.100 246.600 H 13.000 C 13.100 246.600 13.000 246.500 13.000 246.600 V 252.400 C 13.000 252.500 13.100 252.400 13.000 252.400 H 10.100 C 10.045 252.400 10.000 252.445 10.000 252.500 V 258.500 C 10.000 258.555 10.045 258.600 10.100 258.600 H 13.000 C 13.100 258.600 13.000 258.500 13.000 258.600 V 264.400 C 13.000 264.500 13.100 264.400 13.000 264.400 H 10.100 C 10.045 264.400 10.000 264.445 10.000 264.500 V 270.500 C 10.000 270.555 10.045 270.600 10.100 270.600 H 13.000 C 13.100 270.600 13.000 270.500 13.000 270.600 V 276.400 C 13.000 276.500 13.100 276.400 13.000 276.400 H 10.100 C 10.045 276.400 10.000 276.445 10.000 276.500 V 282.500 C 10.000 282.555 10.045 282.600 10.100 282.600 H 13.000 C 13.100 282.600 13.000 282.500 13.000 282.600 V 288.400 C 13.000 288.500 13.100 288.400 13.000 288.400 H 10.100 C 10.045 288.400 10.000 288.445 10.000 288.500 V 294.500 C 10.000 294.555 10.045 294.600 10.100 294.600 H 13.000 C 13.100 294.600 13.000 294.500 13.000 294.600 V 300.400 C 13.000 300.500 13.100 300.400 13.000 300.400 H 10.100 C 10.045 300.400 10.000 300.445 10.000 300.500 V 306.500 C 10.000 306.555 10.045 306.600 10.100 306.600 H 13.000 C 13.100 306.600 13.000 306.500 13.000 306.600 V 314.500 C 13.000 314.555 13.045 314.600 13.100 314.600 Z" stroke="rgb(0,0,0)" stroke-width="0.20" />
  <text dominant-baseline="hanging" font-size="4px" style="font-family: sans-serif ; font-weight: normal; font-style: normal; fill: rgb(255,0,0)" text-anchor="middle" transform="matrix( 1.000 0.000 0.000 1.000 60.100 265.600 )">Wall 1</text>
</g>
<g id="p-2" style="fill:none;stroke-linecap:round;stroke-linejoin:round;">
  <path d="M 114.800 314.600 H 122.700 C 122.800 314.600 122.700 314.500 122.700 314.600 V 317.500 C 122.700 317.555 122.745 317.600 122.800 317.600 H 128.800 C 128.855 317.600 128.900 317.555 128.900 317.500 V 314.600 C 128.900 314.500 128.800 314.600 128.900 314.600 H 134.700 C 134.800 314.600 134.700 314.500 134.700 314.600 V 317.500 C 134.700 317.555 134.745 317.600 134.800 317.600 H 140.800 C 140.855 317.600 140.900 317.555 140.900 317.500 V 314.600 C 140.900 314.500 140.800 314.600 140.900 314.600 H 146.700 C 146.800 314.600 146.700 314.500 146.700 314.600 V 317.500 C 146.700 317.555 146.745 317.600 146.800 317.600 H 152.800 C 152.855 317.600 152.900 317.555 152.900 317.500 V 314.600 C 152.900 314.500 152.800 314.600 152.900 314.600 H 158.700 C 158.800 314.600 158.700 314.500 158.700 314.600 V 317.500 C 158.700 317.555 158.745 317.600 158.800 317.600 H 164.800 C 164.855 317.600 164.900 317.555 164.900 317.500 V 314.600 C 164.900 314.500 164.800 314.600 164.900 314.600 H 170.700 C 170.800 314.600 170.700 314.500 170.700 314.600 V 317.500 C 170.700 317.555 170.745 317.600 170.800 317.600 H 176.800 C 176.855 317.600 176.900 317.555 176.900 317.500 V 314.600 C 176.900 314.500 176.800 314.600 176.900 314.600 H 182.700 C 182.800 314.600 182.700 314.500 182.700 314.600 V 317.500 C 182.700 317.555 182.745 317.600 182.800 317.600 H 188.800 C 188.855 317.600 188.900 317.555 188.900 317.500 V 314.600 C 188.900 314.500 188.800 314.600 188.900 314.600 H 194.700 C 194.800 314.600 194.700 314.500 194.700 314.600 V 317.500 C 194.700 317.555 194.745 317.600 194.800 317.600 H 200.800 C 200.855 317.600 200.900 317.555 200.900 317.500 V 314.600 C 200.900 314.500 200.800 314.600 200.900 314.600 H 208.800 H 211.800 C 211.855 314.600 211.900 314.555 211.900 314.500 V 306.500 C 211.900 306.445 211.855 306.400 211.800 306.400 H 208.900 C 208.800 306.400 208.900 306.500 208.900 306.400 V 300.600 C 208.900 300.500 208.800 300.600 208.900 300.600 H 211.800 C 211.855 300.600 211.900 300.555 211.900 300.500 V 294.500 C 211.900 294.445 211.855 294.400 211.800 294.400 H 208.900 C 208.800 294.400 208.900 294.500 208.900 294.400 V 288.600 C 208.900 288.500 208.800 288.600 208.900 288.600 H 211.800 C 211.855 288.600 211.900 288.555 211.900 288.500 V 282.500 C 211.900 282.445 211.855 282.400 211.800 282.400 H 208.900 C 208.800 282.400 208.900 282.500 208.900 282.400 V 276.600 C 208.900 276.500 208.800 276.600 208.900 276.600 H 211.800 C 211.855 276.600 211.900 276.555 211.900 276.500 V 270.500 C 211.900 270.445 211.855 270.400 211.800 270.400 H 208.900 C 208.800 270.400 208.900 270.500 208.900 270.400 V 264.600 C 208.900 264.500 208.800 264.600 208.900 264.600 H 211.800 C 211.855 264.600 211.900 264.555 211.900 264.500 V 258.500 C 211.900 258.445 211.855 258.400 211.800 258.400 H 208.900 C 208.800 258.400 208.900 258.500 208.900 258.400 V 252.600 C 208.900 252.500 208.800 252.600 208.900 252.600 H 211.800 C 211.855 252.600 211.900 252.555 211.900 252.500 V 246.500 C 211.900 246.445 211.855 246.400 211.800 246.400 H 208.900 C 208.800 246.400 208.900 246.500 208.900 246.400 V 240.600 C 208.900 240.500 208.800 240.600 208.900 240.600 H 211.800 C 211.855 240.600 211.900 240.555 211.900 240.500 V 234.500 C 211.900 234.445 211.855 234.400 211.800 234.400 H 208.900 C 208.800 234.400 208.900 234.500 208.900 234.400 V 228.600 C 208.900 228.500 208.800 228.600 208.900 228.600 H 211.800 C 211.855 228.600 211.900 228.555 211.900 228.500 V 220.500 C 211.900 220.445 211.855 220.400 211.800 220.400 H 208.800 H 200.900 C 200.800 220.400 200.900 220.500 200.900 220.400 V 217.500 C 200.900 217.445 200.855 217.400 200.800 217.400 H 194.800 C 194.745 217.400 194.700 217.445 194.700 217.500 V 220.400 C 194.700 220.500 194.800 220.400 194.700 220.400 H 188.900 C 188.800 220.400 188.900 220.500 188.900 220.400 V 217.500 C 188.900 217.445 188.855 217.400 188.800 217.400 H 182.800 C 182.745 217.400 182.700 217.445 182.700 217.500 V 220.400 C 182.700 220.500 182.800 220.400 182.700 220.400 H 176.900 C 176.800 220.400 176.900 220.500 176.900 220.400 V 217.500 C 176.900 217.445 176.855 217.400 176.800 217.400 H 170.800 C 170.745 217.400 170.700 217.445 170.700 217.500 V 220.400 C 170.700 220.500 170.800 220.400 170.700 220.400 H 164.900 C 164.800 220.400 164.900 220.500 164.900 220.400 V 217.500 C 164.900 217.445 164.855 217.400 164.800 217.400 H 158.800 C 158.745 217.400 158.700 217.445 158.700 217.500 V 220.400 C 158.700 220.500 158.800 220.400 158.700 220.400 H 152.900 C 152.800 220.400 152.900 220.500 152.900 220.400 V 217.500 C 152.900 217.445 152.855 217.400 152.800 217.400 H 146.800 C 146.745 217.400 146.700 217.445 146.700 217.500 V 220.400 C 146.700 220.500 146.800 220.400 146.700 220.400 H 140.900 C 140.800 220.400 140.900 220.500 140.900 220.400 V 217.500 C 140.900 217.445 140.855 217.400 140.800 217.400 H 134.800 C 134.745 217.400 134.700 217.445 134.700 217.500 V 220.400 C 134.700 220.500 134.800 220.400 134.700 220.400 H 128.900 C 128.800 220.400 128.900 220.500 128.900 220.400 V 217.500 C 128.900 217.445 128.855 217.400 128.800 217.400 H 122.800 C 122.745 217.400 122.700 217.445 122.700 217.500 V 220.400 C 122.700 220.500 122.800 220.400 122.700 220.400 H 114.800 H 111.800 C 111.745 220.400 111.700 220.445 111.700 220.500 V 228.500 C 111.700 228.555 111.745 228.600 111.800 228.600 H 114.700 C 114.800 228.600 114.700 228.500 114.700 228.600 V 234.400 C 114.700 234.500 114.800 234.400 114.700 234.400 H 111.800 C 111.745 234.400 111.700 234.445 111.700 234.500 V 240.500 C 111.700 240.555 111.745 240.600 111.800 240.600 H 114.700 C 114.800 240.600 114.700 240.500 114.700 240.600 V 246.400 C 114.700 246.500 114.800 246.400 114.700 246.400 H 111.800 C 111.745 246.400 111.700 246.445 111.700 246.500 V 252.500 C 111.700 252.555 111.745 252.600 111.800 252.600 H 114.700 C 114.800 252.600 114.700 252.500 114.700 252.600 V 258.400 C 114.700 258.500 114.800 258.400 114.700 258.400 H 111.800 C 111.745 258.400 111.700 258.445 111.700 258.500 V 264.500 C 111.700 264.555 111.745 264.600 111.800 264.600 H 114.700 C 114.800 264.600 114.700 264.500 114.700 264.600 V 270.400 C 114.700 270.500 114.800 270.400 114.700 270.400 H 111.800 C 111.745 270.400 111.700 270.445 111.700 270.500 V 276.500 C 111.700 276.555 111.745 276.600 111.800 276.600 H 114.700 C 114.800 276.600 114.700 276.500 114.700 276.600 V 282.400 C 114.700 282.500 114.800 282.400 114.700 282.400 H 111.800 C 111.745 282.400 111.700 282.445 111.700 282.500 V 288.500 C 111.700 288.555 111.745 288.600 111.800 288.600 H 114.700 C 114.800 288.600 114.700 288.500 114.700 288.600 V 294.400 C 114.700 294.500 114.800 294.400 114.700 294.400 H 111.800 C 111.745 294.400 111.700 294.445 111.700 294.500 V 300.500 C 111.700 300.555 111.745 300.600 111.800 300.600 H 114.700 C 114.800 300.600 114.700 300.500 114.700 300.600 V 306.400 C 114.700 306.500 114.800 306.400 114.700 306.400 H 111.800 C 111.745 306.400 111.700 306.445 111.700 306.500 V 314.500 C 111.700 314.555 111.745 314.600 111.800 314.600 H 114.800 Z" stroke="rgb(0,0,0)" stroke-width="0.20" />
  <text dominant-baseline="hanging" font-size="4px" style="font-family: sans-serif ; font-weight: normal; font-style: normal; fill: rgb(255,0,0)" text-anchor="middle" transform="matrix( 1.000 0.000 0.000 1.000 161.800 265.600 )">Wall 2</text>
</g>
<g id="p-3" style="fill:none;stroke-linecap:round;stroke-linejoin:round;">
  <path d="M 114.800 212.900 H 122.700 C 122.800 212.900 122.700 212.800 122.700 212.900 V 215.800 C 122.700 215.855 122.745 215.900 122.800 215.900 H 128.800 C 128.855 215.900 128.900 215.855 128.900 215.800 V 212.900 C 128.900 212.800 128.800 212.900 128.900 212.900 H 134.700 C 134.800 212.900 134.700 212.800 134.700 212.900 V 215.800 C 134.700 215.855 134.745 215.900 134.800 215.900 H 140.800 C 140.855 215.900 140.900 215.855 140.900 215.800 V 212.900 C 140.900 212.800 140.800 212.900 140.900 212.900 H 146.700 C 146.800 212.900 146.700 212.800 146.700 212.900 V 215.800 C 146.700 215.855 146.745 215.900 146.800 215.900 H 152.800 C 152.855 215.900 152.900 215.855 152.900 215.800 V 212.900 C 152.900 212.800 152.800 212.900 152.900 212.900 H 158.700 C 158.800 212.900 158.700 212.800 158.700 212.900 V 215.800 C 158.700 215.855 158.745 215.900 158.800 215.900 H 164.800 C 164.855 215.900 164.900 215.855 164.900 215.800 V 212.900 C 164.900 212.800 164.800 212.900 164.900 212.900 H 170.700 C 170.800 212.900 170.700 212.800 170.700 212.900 V 215.800 C 170.700 215.855 170.745 215.900 170.800 215.900 H 176.800 C 176.855 215.900 176.900 215.855 176.900 215.800 V 212.900 C 176.900 212.800 176.800 212.900 176.900 212.900 H 182.700 C 182.800 212.900 182.700 212.800 182.700 212.900 V 215.800 C 182.700 215.855 182.745 215.900 182.800 215.900 H 188.800 C 188.855 215.900 188.900 215.855 188.900 215.800 V 212.900 C 188.900 212.800 188.800 212.900 188.900 212.900 H 194.700 C 194.800 212.900 194.700 212.800 194.700 212.900 V 215.800 C 194.700 215.855 194.745 215.900 194.800 215.900 H 200.800 C 200.855 215.900 200.900 215.855 200.900 215.800 V 212.900 C 200.900 212.800 200.800 212.900 200.900 212.900 H 208.800 H 211.800 C 211.855 212.900 211.900 212.855 211.900 212.800 V 204.800 C 211.900 204.745 211.855 204.700 211.800 204.700 H 208.900 C 208.800 204.700 208.900 204.800 208.900 204.700 V 198.900 C 208.900 198.800 208.800 198.900 208.900 198.900 H 211.800 C 211.855 198.900 211.900 198.855 211.900 198.800 V 192.800 C 211.900 192.745 211.855 192.700 211.800 192.700 H 208.900 C 208.800 192.700 208.900 192.800 208.900 192.700 V 186.900 C 208.900 186.800 208.800 186.900 208.900 186.900 H 211.800 C 211.855 186.900 211.900 186.855 211.900 186.800 V 180.800 C 211.900 180.745 211.855 180.700 211.800 180.700 H 208.900 C 208.800 180.700 208.900 180.800 208.900 180.700 V 174.900 C 208.900 174.800 208.800 174.900 208.900 174.900 H 211.800 C 211.855 174.900 211.900 174.855 211.900 174.800 V 168.800 C 211.900 168.745 211.855 168.700 211.800 168.700 H 208.900 C 208.800 168.700 208.900 168.800 208.900 168.700 V 162.900 C 208.900 162.800 208.800 162.900 208.900 162.900 H 211.800 C 211.855 162.900 211.900 162.855 211.900 162.800 V 156.800 C 211.900 156.745 211.855 156.700 211.800 156.700 H 208.900 C 208.800 156.700 208.900 156.800 208.900 156.700 V 150.900 C 208.900 150.800 208.800 150.900 208.900 150.900 H 211.800 C 211.855 150.900 211.900 150.855 211.900 150.800 V 144.800 C 211.900 144.745 211.855 144.700 211.800 144.700 H 208.900 C 208.800 144.700 208.900 144.800 208.900 144.700 V 138.900 C 208.900 138.800 208.800 138.900 208.900 138.900 H 211.800 C 211.855 138.900 211.900 138.855 211.900 138.800 V 132.800 C 211.900 132.745 211.855 132.700 211.800 132.700 H 208.900 C 208.800 132.700 208.900 132.800 208.900 132.700 V 126.900 C 208.900 126.800 208.800 126.900 208.900 126.900 H 211.800 C 211.855 126.900 211.900 126.855 211.900 126.800 V 118.800 C 211.900 118.745 211.855 118.700 211.800 118.700 H 208.800 H 200.900 C 200.800 118.700 200.900 118.800 200.900 118.700 V 115.800 C 200.900 115.745 200.855 115.700 200.800 115.700 H 194.800 C 194.745 115.700 194.700 115.745 194.700 115.800 V 118.700 C 194.700 118.800 194.800 118.700 194.700 118.700 H 188.900 C 188.800 118.700 188.900 118.800 188.900 118.700 V 115.800 C 188.900 115.745 188.855 115.700 188.800 115.700 H 182.800 C 182.745 115.700 182.700 115.745 182.700 115.800 V 118.700 C 182.700 118.800 182.800 118.700 182.700 118.700 H 176.900 C 176.800 118.700 176.900 118.800 176.900 118.700 V 115.800 C 176.900 115.745 176.855 115.700 176.800 115.700 H 170.800 C 170.745 115.700 170.700 115.745 170.700 115.800 V 118.700 C 170.700 118.800 170.800 118.700 170.700 118.700 H 164.900 C 164.800 118.700 164.900 118.800 164.900 118.700 V 115.800 C 164.900 115.745 164.855 115.700 164.800 115.700 H 158.800 C 158.745 115.700 158.700 115.745 158.700 115.800 V 118.700 C 158.700 118.800 158.800 118.700 158.700 118.700 H 152.900 C 152.800 118.700 152.900 118.800 152.900 118.700 V 115.800 C 152.900 115.745 152.855 115.700 152.800 115.700 H 146.800 C 146.745 115.700 146.700 115.745 146.700 115.800 V 118.700 C 146.700 118.800 146.800 118.700 146.700 118.700 H 140.900 C 140.800 118.700 140.900 118.800 140.900 118.700 V 115.800 C 140.900 115.745 140.855 115.700 140.800 115.700 H 134.800 C 134.745 115.700 134.700 115.745 134.700 115.800 V 118.700 C 134.700 118.800 134.800 118.700 134.700 118.700 H 128.900 C 128.800 118.700 128.900 118.800 128.900 118.700 V 115.800 C 128.900 115.745 128.855 115.700 128.800 115.700 H 122.800 C 122.745 115.700 122.700 115.745 122.700 115.800 V 118.700 C 122.700 118.800 122.800 118.700 122.700 118.700 H 114.800 H 111.800 C 111.745 118.700 111.700 118.745 111.700 118.800 V 126.800 C 111.700 126.855 111.745 126.900 111.800 126.900 H 114.700 C 114.800 126.900 114.700 126.800 114.700 126.900 V 132.700 C 114.700 132.800 114.800 132.700 114.700 132.700 H 111.800 C 111.745 132.700 111.700 132.745 111.700 132.800 V 138.800 C 111.700 138.855 111.745 138.900 111.800 138.900 H 114.700 C 114.800 138.900 114.700 138.800 114.700 138.900 V 144.700 C 114.700 144.800 114.800 144.700 114.700 144.700 H 111.800 C 111.745 144.700 111.700 144.745 111.700 144.800 V 150.800 C 111.700 150.855 111.745 150.900 111.800 150.900 H 114.700 C 114.800 150.900 114.700 150.800 114.700 150.900 V 156.700 C 114.700 156.800 114.800 156.700 114.700 156.700 H 111.800 C 111.745 156.700 111.700 156.745 111.700 156.800 V 162.800 C 111.700 162.855 111.745 162.900 111.800 162.900 H 114.700 C 114.800 162.900 114.700 162.800 114.700 162.900 V 168.700 C 114.700 168.800 114.800 168.700 114.700 168.700 H 111.800 C 111.745 168.700 111.700 168.745 111.700 168.800 V 174.800 C 111.700 174.855 111.745 174.900 111.800 174.900 H 114.700 C 114.800 174.900 114.700 174.800 114.700 174.900 V 180.700 C 114.700 180.800 114.800 180.700 114.700 180.700 H 111.800 C 111.745 180.700 111.700 180.745 111.700 180.800 V 186.800 C 111.700 186.855 111.745 186.900 111.800 186.900 H 114.700 C 114.800 186.900 114.700 186.800 114.700 186.900 V 192.700 C 114.700 192.800 114.800 192.700 114.700 192.700 H 111.800 C 111.745 192.700 111.700 192.745 111.700 192.800 V 198.800 C 111.700 198.855 111.745 198.900 111.800 198.900 H 114.700 C 114.800 198.900 114.700 198.800 114.700 198.900 V 204.700 C 114.700 204.800 114.800 204.700 114.700 204.700 H 111.800 C 111.745 204.700 111.700 204.745 111.700 204.800 V 212.800 C 111.700 212.855 111.745 212.900 111.800 212.900 H 114.800 Z" stroke="rgb(0,0,0)" stroke-width="0.20" />
  <text dominant-baseline="hanging" font-size="4px" style="font-family: sans-serif ; font-weight: normal; font-style: normal; fill: rgb(255,0,0)" text-anchor="middle" transform="matrix( 1.000 0.000 0.000 1.000 161.800 163.900 )">Wall 4</text>
</g>
<g id="p-4" style="fill:none;stroke-linecap:round;stroke-linejoin:round;">
  <path d="M 13.100 212.900 H 21.000 C 21.100 212.900 21.000 212.800 21.000 212.900 V 215.800 C 21.000 215.855 21.045 215.900 21.100 215.900 H 27.100 C 27.155 215.900 27.200 215.855 27.200 215.800 V 212.900 C 27.200 212.800 27.100 212.900 27.200 212.900 H 33.000 C 33.100 212.900 33.000 212.800 33.000 212.900 V 215.800 C 33.000 215.855 33.045 215.900 33.100 215.900 H 39.100 C 39.155 215.900 39.200 215.855 39.200 215.800 V 212.900 C 39.200 212.800 39.100 212.900 39.200 212.900 H 45.000 C 45.100 212.900 45.000 212.800 45.000 212.900 V 215.800 C 45.000 215.855 45.045 215.900 45.100 215.900 H 51.100 C 51.155 215.900 51.200 215.855 51.200 215.800 V 212.900 C 51.200 212.800 51.100 212.900 51.200 212.900 H 57.000 C 57.100 212.900 57.000 212.800 57.000 212.900 V 215.800 C 57.000 215.855 57.045 215.900 57.100 215.900 H 63.100 C 63.155 215.900 63.200 215.855 63.200 215.800 V 212.900 C 63.200 212.800 63.100 212.900 63.200 212.900 H 69.000 C 69.100 212.900 69.000 212.800 69.000 212.900 V 215.800 C 69.000 215.855 69.045 215.900 69.100 215.900 H 75.100 C 75.155 215.900 75.200 215.855 75.200 215.800 V 212.900 C 75.200 212.800 75.100 212.900 75.200 212.900 H 81.000 C 81.100 212.900 81.000 212.800 81.000 212.900 V 215.800 C 81.000 215.855 81.045 215.900 81.100 215.900 H 87.100 C 87.155 215.900 87.200 215.855 87.200 215.800 V 212.900 C 87.200 212.800 87.100 212.900 87.200 212.900 H 93.000 C 93.100 212.900 93.000 212.800 93.000 212.900 V 215.800 C 93.000 215.855 93.045 215.900 93.100 215.900 H 99.100 C 99.155 215.900 99.200 215.855 99.200 215.800 V 212.900 C 99.200 212.800 99.100 212.900 99.200 212.900 H 107.100 C 107.155 212.900 107.200 212.855 107.200 212.800 V 204.900 C 107.200 204.800 107.100 204.900 107.200 204.900 H 110.100 C 110.155 204.900 110.200 204.855 110.200 204.800 V 198.800 C 110.200 198.745 110.155 198.700 110.100 198.700 H 107.200 C 107.100 198.700 107.200 198.800 107.200 198.700 V 192.900 C 107.200 192.800 107.100 192.900 107.200 192.900 H 110.100 C 110.155 192.900 110.200 192.855 110.200 192.800 V 186.800 C 110.200 186.745 110.155 186.700 110.100 186.700 H 107.200 C 107.100 186.700 107.200 186.800 107.200 186.700 V 180.900 C 107.200 180.800 107.100 180.900 107.200 180.900 H 110.100 C 110.155 180.900 110.200 180.855 110.200 180.800 V 174.800 C 110.200 174.745 110.155 174.700 110.100 174.700 H 107.200 C 107.100 174.700 107.200 174.800 107.200 174.700 V 168.900 C 107.200 168.800 107.100 168.900 107.200 168.900 H 110.100 C 110.155 168.900 110.200 168.855 110.200 168.800 V 162.800 C 110.200 162.745 110.155 162.700 110.100 162.700 H 107.200 C 107.100 162.700 107.200 162.800 107.200 162.700 V 156.900 C 107.200 156.800 107.100 156.900 107.200 156.900 H 110.100 C 110.155 156.900 110.200 156.855 110.200 156.800 V 150.800 C 110.200 150.745 110.155 150.700 110.100 150.700 H 107.200 C 107.100 150.700 107.200 150.800 107.200 150.700 V 144.900 C 107.200 144.800 107.100 144.900 107.200 144.900 H 110.100 C 110.155 144.900 110.200 144.855 110.200 144.800 V 138.800 C 110.200 138.745 110.155 138.700 110.100 138.700 H 107.200 C 107.100 138.700 107.200 138.800 107.200 138.700 V 132.900 C 107.200 132.800 107.100 132.900 107.200 132.900 H 110.100 C 110.155 132.900 110.200 132.855 110.200 132.800 V 126.800 C 110.200 126.745 110.155 126.700 110.100 126.700 H 107.200 C 107.100 126.700 107.200 126.800 107.200 126.700 V 118.800 C 107.200 118.745 107.155 118.700 107.100 118.700 H 99.200 C 99.100 118.700 99.200 118.800 99.200 118.700 V 115.800 C 99.200 115.745 99.155 115.700 99.100 115.700 H 93.100 C 93.045 115.700 93.000 115.745 93.000 115.800 V 118.700 C 93.000 118.800 93.100 118.700 93.000 118.700 H 87.200 C 87.100 118.700 87.200 118.800 87.200 118.700 V 115.800 C 87.200 115.745 87.155 115.700 87.100 115.700 H 81.100 C 81.045 115.700 81.000 115.745 81.000 115.800 V 118.700 C 81.000 118.800 81.100 118.700 81.000 118.700 H 75.200 C 75.100 118.700 75.200 118.800 75.200 118.700 V 115.800 C 75.200 115.745 75.155 115.700 75.100 115.700 H 69.100 C 69.045 115.700 69.000 115.745 69.000 115.800 V 118.700 C 69.000 118.800 69.100 118.700 69.000 118.700 H 63.200 C 63.100 118.700 63.200 118.800 63.200 118.700 V 115.800 C 63.200 115.745 63.155 115.700 63.100 115.700 H 57.100 C 57.045 115.700 57.000 115.745 57.000 115.800 V 118.700 C 57.000 118.800 57.100 118.700 57.000 118.700 H 51.200 C 51.100 118.700 51.200 118.800 51.200 118.700 V 115.800 C 51.200 115.745 51.155 115.700 51.100 115.700 H 45.100 C 45.045 115.700 45.000 115.745 45.000 115.800 V 118.700 C 45.000 118.800 45.100 118.700 45.000 118.700 H 39.200 C 39.100 118.700 39.200 118.800 39.200 118.700 V 115.800 C 39.200 115.745 39.155 115.700 39.100 115.700 H 33.100 C 33.045 115.700 33.000 115.745 33.000 115.800 V 118.700 C 33.000 118.800 33.100 118.700 33.000 118.700 H 27.200 C 27.100 118.700 27.200 118.800 27.200 118.700 V 115.800 C 27.200 115.745 27.155 115.700 27.100 115.700 H 21.100 C 21.045 115.700 21.000 115.745 21.000 115.800 V 118.700 C 21.000 118.800 21.100 118.700 21.000 118.700 H 13.100 C 13.045 118.700 13.000 118.745 13.000 118.800 V 126.700 C 13.000 126.800 13.100 126.700 13.000 126.700 H 10.100 C 10.045 126.700 10.000 126.745 10.000 126.800 V 132.800 C 10.000 132.855 10.045 132.900 10.100 132.900 H 13.000 C 13.100 132.900 13.000 132.800 13.000 132.900 V 138.700 C 13.000 138.800 13.100 138.700 13.000 138.700 H 10.100 C 10.045 138.700 10.000 138.745 10.000 138.800 V 144.800 C 10.000 144.855 10.045 144.900 10.100 144.900 H 13.000 C 13.100 144.900 13.000 144.800 13.000 144.900 V 150.700 C 13.000 150.800 13.100 150.700 13.000 150.700 H 10.100 C 10.045 150.700 10.000 150.745 10.000 150.800 V 156.800 C 10.000 156.855 10.045 156.900 10.100 156.900 H 13.000 C 13.100 156.900 13.000 156.800 13.000 156.900 V 162.700 C 13.000 162.800 13.100 162.700 13.000 162.700 H 10.100 C 10.045 162.700 10.000 162.745 10.000 162.800 V 168.800 C 10.000 168.855 10.045 168.900 10.100 168.900 H 13.000 C 13.100 168.900 13.000 168.800 13.000 168.900 V 174.700 C 13.000 174.800 13.100 174.700 13.000 174.700 H 10.100 C 10.045 174.700 10.000 174.745 10.000 174.800 V 180.800 C 10.000 180.855 10.045 180.900 10.100 180.900 H 13.000 C 13.100 180.900 13.000 180.800 13.000 180.900 V 186.700 C 13.000 186.800 13.100 186.700 13.000 186.700 H 10.100 C 10.045 186.700 10.000 186.745 10.000 186.800 V 192.800 C 10.000 192.855 10.045 192.900 10.100 192.900 H 13.000 C 13.100 192.900 13.000 192.800 13.000 192.900 V 198.700 C 13.000 198.800 13.100 198.700 13.000 198.700 H 10.100 C 10.045 198.700 10.000 198.745 10.000 198.800 V 204.800 C 10.000 204.855 10.045 204.900 10.100 204.900 H 13.000 C 13.100 204.900 13.000 204.800 13.000 204.900 V 212.800 C 13.000 212.855 13.045 212.900 13.100 212.900 Z" stroke="rgb(0,0,0)" stroke-width="0.20" />
  <text dominant-baseline="hanging" font-size="4px" style="font-family: sans-serif ; font-weight: normal; font-style: normal; fill: rgb(255,0,0)" text-anchor="middle" transform="matrix( 1.000 0.000 0.000 1.000 60.100 163.900 )">Wall 3</text>
</g>
<g id="p-5" style="fill:none;stroke-linecap:round;stroke-linejoin:round;">
  <path d="M 26.100 112.100 H 23.200 C 23.100 112.100 23.200 112.200 23.200 112.100 V 109.300 C 23.200 109.200 23.100 109.300 23.200 109.300 H 29.000 C 29.100 109.300 29.000 109.200 29.000 109.300 V 112.100 C 29.000 112.200 29.100 112.100 29.000 112.100 H 26.100 Z" stroke="rgb(0,0,255)" stroke-width="0.20" />
  <path d="M 38.100 112.100 H 35.200 C 35.100 112.100 35.200 112.200 35.200 112.100 V 109.300 C 35.200 109.200 35.100 109.300 35.200 109.300 H 41.000 C 41.100 109.300 41.000 109.200 41.000 109.300 V 112.100 C 41.000 112.200 41.100 112.100 41.000 112.100 H 38.100 Z" stroke="rgb(0,0,255)" stroke-width="0.20" />
  <path d="M 50.100 112.100 H 47.200 C 47.100 112.100 47.200 112.200 47.200 112.100 V 109.300 C 47.200 109.200 47.100 109.300 47.200 109.300 H 53.000 C 53.100 109.300 53.000 109.200 53.000 109.300 V 112.100 C 53.000 112.200 53.100 112.100 53.000 112.100 H 50.100 Z" stroke="rgb(0,0,255)" stroke-width="0.20" />
  <path d="M 62.100 112.100 H 59.200 C 59.100 112.100 59.200 112.200 59.200 112.100 V 109.300 C 59.200 109.200 59.100 109.300 59.200 109.300 H 65.000 C 65.100 109.300 65.000 109.200 65.000 109.300 V 112.100 C 65.000 112.200 65.100 112.100 65.000 112.100 H 62.100 Z" stroke="rgb(0,0,255)" stroke-width="0.20" />
  <path d="M 74.100 112.100 H 71.200 C 71.100 112.100 71.200 112.200 71.200 112.100 V 109.300 C 71.200 109.200 71.100 109.300 71.200 109.300 H 77.000 C 77.100 109.300 77.000 109.200 77.000 109.300 V 112.100 C 77.000 112.200 77.100 112.100 77.000 112.100 H 74.100 Z" stroke="rgb(0,0,255)" stroke-width="0.20" />
  <path d="M 86.100 112.100 H 83.200 C 83.100 112.100 83.200 112.200 83.200 112.100 V 109.300 C 83.200 109.200 83.100 109.300 83.200 109.300 H 89.000 C 89.100 109.300 89.000 109.200 89.000 109.300 V 112.100 C 89.000 112.200 89.100 112.100 89.000 112.100 H 86.100 Z" stroke="rgb(0,0,255)" stroke-width="0.20" />
  <path d="M 98.100 112.100 H 95.200 C 95.100 112.100 95.200 112.200 95.200 112.100 V 109.300 C 95.200 109.200 95.100 109.300 95.200 109.300 H 101.000 C 101.100 109.300 101.000 109.200 101.000 109.300 V 112.100 C 101.000 112.200 101.100 112.100 101.000 112.100 H 98.100 Z" stroke="rgb(0,0,255)" stroke-width="0.20" />
  <path d="M 10.100 114.200 H 114.100 C 114.155 114.200 114.200 114.155 114.200 114.100 V 10.100 C 114.200 10.045 114.155 10.000 114.100 10.000 H 10.100 C 10.045 10.000 10.000 10.045 10.000 10.100 V 114.100 C 10.000 114.155 10.045 114.200 10.100 114.200 Z" stroke="rgb(0,0,0)" stroke-width="0.20" />
  <path d="M 112.100 98.100 V 101.000 C 112.100 101.100 112.200 101.000 112.100 101.000 H 109.300 C 109.200 101.000 109.300 101.100 109.300 101.000 V 95.200 C 109.300 95.100 109.200 95.200 109.300 95.200 H 112.100 C 112.200 95.200 112.100 95.100 112.100 95.200 V 98.100 Z" stroke="rgb(0,0,255)" stroke-width="0.20" />
  <path d="M 112.100 86.100 V 89.000 C 112.100 89.100 112.200 89.000 112.100 89.000 H 109.300 C 109.200 89.000 109.300 89.100 109.300 89.000 V 83.200 C 109.300 83.100 109.200 83.200 109.300 83.200 H 112.100 C 112.200 83.200 112.100 83.100 112.100 83.200 V 86.100 Z" stroke="rgb(0,0,255)" stroke-width="0.20" />
  <path d="M 112.100 74.100 V 77.000 C 112.100 77.100 112.200 77.000 112.100 77.000 H 109.300 C 109.200 77.000 109.300 77.100 109.300 77.000 V 71.200 C 109.300 71.100 109.200 71.200 109.300 71.200 H 112.100 C 112.200 71.200 112.100 71.100 112.100 71.200 V 74.100 Z" stroke="rgb(0,0,255)" stroke-width="0.20" />
  <path d="M 112.100 62.100 V 65.000 C 112.100 65.100 112.200 65.000 112.100 65.000 H 109.300 C 109.200 65.000 109.300 65.100 109.300 65.000 V 59.200 C 109.300 59.100 109.200 59.200 109.300 59.200 H 112.100 C 112.200 59.200 112.100 59.100 112.100 59.200 V 62.100 Z" stroke="rgb(0,0,255)" stroke-width="0.20" />
  <path d="M 112.100 50.100 V 53.000 C 112.100 53.100 112.200 53.000 112.100 53.000 H 109.300 C 109.200 53.000 109.300 53.100 109.300 53.000 V 47.200 C 109.300 47.100 109.200 47.200 109.300 47.200 H 112.100 C 112.200 47.200 112.100 47.100 112.100 47.200 V 50.100 Z" stroke="rgb(0,0,255)" stroke-width="0.20" />
  <path d="M 112.100 38.100 V 41.000 C 112.100 41.100 112.200 41.000 112.100 41.000 H 109.300 C 109.200 41.000 109.300 41.100 109.300 41.000 V 35.200 C 109.300 35.100 109.200 35.200 109.300 35.200 H 112.100 C 112.200 35.200 112.100 35.100 112.100 35.200 V 38.100 Z" stroke="rgb(0,0,255)" stroke-width="0.20" />
  <path d="M 112.100 26.100 V 29.000 C 112.100 29.100 112.200 29.000 112.100 29.000 H 109.300 C 109.200 29.000 109.300 29.100 109.300 29.000 V 23.200 C 109.300 23.100 109.200 23.200 109.300 23.200 H 112.100 C 112.200 23.200 112.100 23.100 112.100 23.200 V 26.100 Z" stroke="rgb(0,0,255)" stroke-width="0.20" />
  <path d="M 98.100 12.100 H 101.000 C 101.100 12.100 101.000 12.000 101.000 12.100 V 14.900 C 101.000 15.000 101.100 14.900 101.000 14.900 H 95.200 C 95.100 14.900 95.200 15.000 95.200 14.900 V 12.100 C 95.200 12.000 95.100 12.100 95.200 12.100 H 98.100 Z" stroke="rgb(0,0,255)" stroke-width="0.20" />
  <path d="M 86.100 12.100 H 89.000 C 89.100 12.100 89.000 12.000 89.000 12.100 V 14.900 C 89.000 15.000 89.100 14.900 89.000 14.900 H 83.200 C 83.100 14.900 83.200 15.000 83.200 14.900 V 12.100 C 83.200 12.000 83.100 12.100 83.200 12.100 H 86.100 Z" stroke="rgb(0,0,255)" stroke-width="0.20" />
  <path d="M 74.100 12.100 H 77.000 C 77.100 12.100 77.000 12.000 77.000 12.100 V 14.900 C 77.000 15.000 77.100 14.900 77.000 14.900 H 71.200 C 71.100 14.900 71.200 15.000 71.200 14.900 V 12.100 C 71.200 12.000 71.100 12.100 71.200 12.100 H 74.100 Z" stroke="rgb(0,0,255)" stroke-width="0.20" />
  <path d="M 62.100 12.100 H 65.000 C 65.100 12.100 65.000 12.000 65.000 12.100 V 14.900 C 65.000 15.000 65.100 14.900 65.000 14.900 H 59.200 C 59.100 14.900 59.200 15.000 59.200 14.900 V 12.100 C 59.200 12.000 59.100 12.100 59.200 12.100 H 62.100 Z" stroke="rgb(0,0,255)" stroke-width="0.20" />
  <path d="M 50.100 12.100 H 53.000 C 53.100 12.100 53.000 12.000 53.000 12.100 V 14.900 C 53.000 15.000 53.100 14.900 53.000 14.900 H 47.200 C 47.100 14.900 47.200 15.000 47.200 14.900 V 12.100 C 47.200 12.000 47.100 12.100 47.200 12.100 H 50.100 Z" stroke="rgb(0,0,255)" stroke-width="0.20" />
  <path d="M 38.100 12.100 H 41.000 C 41.100 12.100 41.000 12.000 41.000 12.100 V 14.900 C 41.000 15.000 41.100 14.900 41.000 14.900 H 35.200 C 35.100 14.900 35.200 15.000 35.200 14.900 V 12.100 C 35.200 12.000 35.100 12.100 35.200 12.100 H 38.100 Z" stroke="rgb(0,0,255)" stroke-width="0.20" />
  <path d="M 26.100 12.100 H 29.000 C 29.100 12.100 29.000 12.000 29.000 12.100 V 14.900 C 29.000 15.000 29.100 14.900 29.000 14.900 H 23.200 C 23.100 14.900 23.200 15.000 23.200 14.900 V 12.100 C 23.200 12.000 23.100 12.100 23.200 12.100 H 26.100 Z" stroke="rgb(0,0,255)" stroke-width="0.20" />
  <path d="M 12.100 26.100 V 23.200 C 12.100 23.100 12.000 23.200 12.100 23.200 H 14.900 C 15.000 23.200 14.900 23.100 14.900 23.200 V 29.000 C 14.900 29.100 15.000 29.000 14.900 29.000 H 12.100 C 12.000 29.000 12.100 29.100 12.100 29.000 V 26.100 Z" stroke="rgb(0,0,255)" stroke-width="0.20" />
  <path d="M 12.100 38.100 V 35.200 C 12.100 35.100 12.000 35.200 12.100 35.200 H 14.900 C 15.000 35.200 14.900 35.100 14.900 35.200 V 41.000 C 14.900 41.100 15.000 41.000 14.900 41.000 H 12.100 C 12.000 41.000 12.100 41.100 12.100 41.000 V 38.100 Z" stroke="rgb(0,0,255)" stroke-width="0.20" />
  <path d="M 12.100 50.100 V 47.200 C 12.100 47.100 12.000 47.200 12.100 47.200 H 14.900 C 15.000 47.200 14.900 47.100 14.900 47.200 V 53.000 C 14.900 53.100 15.000 53.000 14.900 53.000 H 12.100 C 12.000 53.000 12.100 53.100 12.100 53.000 V 50.100 Z" stroke="rgb(0,0,255)" stroke-width="0.20" />
  <path d="M 12.100 62.100 V 59.200 C 12.100 59.100 12.000 59.200 12.100 59.200 H 14.900 C 15.000 59.200 14.900 59.100 14.900 59.200 V 65.000 C 14.900 65.100 15.000 65.000 14.900 65.000 H 12.100 C 12.000 65.000 12.100 65.100 12.100 65.000 V 62.100 Z" stroke="rgb(0,0,255)" stroke-width="0.20" />
  <path d="M 12.100 74.100 V 71.200 C 12.100 71.100 12.000 71.200 12.100 71.200 H 14.900 C 15.000 71.200 14.900 71.100 14.900 71.200 V 77.000 C 14.900 77.100 15.000 77.000 14.900 77.000 H 12.100 C 12.000 77.000 12.100 77.100 12.100 77.000 V 74.100 Z" stroke="rgb(0,0,255)" stroke-width="0.20" />
  <path d="M 12.100 86.100 V 83.200 C 12.100 83.100 12.000 83.200 12.100 83.200 H 14.900 C 15.000 83.200 14.900 83.100 14.900 83.200 V 89.000 C 14.900 89.100 15.000 89.000 14.900 89.000 H 12.100 C 12.000 89.000 12.100 89.100 12.100 89.000 V 86.100 Z" stroke="rgb(0,0,255)" stroke-width="0.20" />
  <path d="M 12.100 98.100 V 95.200 C 12.100 95.100 12.000 95.200 12.100 95.200 H 14.900 C 15.000 95.200 14.900 95.100 14.900 95.200 V 101.000 C 14.900 101.100 15.000 101.000 14.900 101.000 H 12.100 C 12.000 101.000 12.100 101.100 12.100 101.000 V 98.100 Z" stroke="rgb(0,0,255)" stroke-width="0.20" />
  <text dominant-baseline="hanging" font-size="4px" style="font-family: sans-serif ; font-weight: normal; font-style: normal; fill: rgb(255,0,0)" text-anchor="middle" transform="matrix( 1.000 0.000 0.000 1.000 62.100 60.200 )">Top</text>
</g>
<g id="p-6" style="fill:none;stroke-linecap:round;stroke-linejoin:round;">
  <path d="M 131.800 112.100 H 128.900 C 128.800 112.100 128.900 112.200 128.900 112.100 V 109.300 C 128.900 109.200 128.800 109.300 128.900 109.300 H 134.700 C 134.800 109.300 134.700 109.200 134.700 109.300 V 112.100 C 134.700 112.200 134.800 112.100 134.700 112.100 H 131.800 Z" stroke="rgb(0,0,255)" stroke-width="0.20" />
  <path d="M 143.800 112.100 H 140.900 C 140.800 112.100 140.900 112.200 140.900 112.100 V 109.300 C 140.900 109.200 140.800 109.300 140.900 109.300 H 146.700 C 146.800 109.300 146.700 109.200 146.700 109.300 V 112.100 C 146.700 112.200 146.800 112.100 146.700 112.100 H 143.800 Z" stroke="rgb(0,0,255)" stroke-width="0.20" />
  <path d="M 155.800 112.100 H 152.900 C 152.800 112.100 152.900 112.200 152.900 112.100 V 109.300 C 152.900 109.200 152.800 109.300 152.900 109.300 H 158.700 C 158.800 109.300 158.700 109.200 158.700 109.300 V 112.100 C 158.700 112.200 158.800 112.100 158.700 112.100 H 155.800 Z" stroke="rgb(0,0,255)" stroke-width="0.20" />
  <path d="M 167.800 112.100 H 164.900 C 164.800 112.100 164.900 112.200 164.900 112.100 V 109.300 C 164.900 109.200 164.800 109.300 164.900 109.300 H 170.700 C 170.800 109.300 170.700 109.200 170.700 109.300 V 112.100 C 170.700 112.200 170.800 112.100 170.700 112.100 H 167.800 Z" stroke="rgb(0,0,255)" stroke-width="0.20" />
  <path d="M 179.800 112.100 H 176.900 C 176.800 112.100 176.900 112.200 176.900 112.100 V 109.300 C 176.900 109.200 176.800 109.300 176.900 109.300 H 182.700 C 182.800 109.300 182.700 109.200 182.700 109.300 V 112.100 C 182.700 112.200 182.800 112.100 182.700 112.100 H 179.800 Z" stroke="rgb(0,0,255)" stroke-width="0.20" />
  <path d="M 191.800 112.100 H 188.900 C 188.800 112.100 188.900 112.200 188.900 112.100 V 109.300 C 188.900 109.200 188.800 109.300 188.900 109.300 H 194.700 C 194.800 109.300 194.700 109.200 194.700 109.300 V 112.100 C 194.700 112.200 194.800 112.100 194.700 112.100 H 191.800 Z" stroke="rgb(0,0,255)" stroke-width="0.20" />
  <path d="M 203.800 112.100 H 200.900 C 200.800 112.100 200.900 112.200 200.900 112.100 V 109.300 C 200.900 109.200 200.800 109.300 200.900 109.300 H 206.700 C 206.800 109.300 206.700 109.200 206.700 109.300 V 112.100 C 206.700 112.200 206.800 112.100 206.700 112.100 H 203.800 Z" stroke="rgb(0,0,255)" stroke-width="0.20" />
  <path d="M 115.800 114.200 H 219.800 C 219.855 114.200 219.900 114.155 219.900 114.100 V 10.100 C 219.900 10.045 219.855 10.000 219.800 10.000 H 115.800 C 115.745 10.000 115.700 10.045 115.700 10.100 V 114.100 C 115.700 114.155 115.745 114.200 115.800 114.200 Z" stroke="rgb(0,0,0)" stroke-width="0.20" />
  <path d="M 217.800 98.100 V 101.000 C 217.800 101.100 217.900 101.000 217.800 101.000 H 215.000 C 214.900 101.000 215.000 101.100 215.000 101.000 V 95.200 C 215.000 95.100 214.900 95.200 215.000 95.200 H 217.800 C 217.900 95.200 217.800 95.100 217.800 95.200 V 98.100 Z" stroke="rgb(0,0,255)" stroke-width="0.20" />
  <path d="M 217.800 86.100 V 89.000 C 217.800 89.100 217.900 89.000 217.800 89.000 H 215.000 C 214.900 89.000 215.000 89.100 215.000 89.000 V 83.200 C 215.000 83.100 214.900 83.200 215.000 83.200 H 217.800 C 217.900 83.200 217.800 83.100 217.800 83.200 V 86.100 Z" stroke="rgb(0,0,255)" stroke-width="0.20" />
  <path d="M 217.800 74.100 V 77.000 C 217.800 77.100 217.900 77.000 217.800 77.000 H 215.000 C 214.900 77.000 215.000 77.100 215.000 77.000 V 71.200 C 215.000 71.100 214.900 71.200 215.000 71.200 H 217.800 C 217.900 71.200 217.800 71.100 217.800 71.200 V 74.100 Z" stroke="rgb(0,0,255)" stroke-width="0.20" />
  <path d="M 217.800 62.100 V 65.000 C 217.800 65.100 217.900 65.000 217.800 65.000 H 215.000 C 214.900 65.000 215.000 65.100 215.000 65.000 V 59.200 C 215.000 59.100 214.900 59.200 215.000 59.200 H 217.800 C 217.900 59.200 217.800 59.100 217.800 59.200 V 62.100 Z" stroke="rgb(0,0,255)" stroke-width="0.20" />
  <path d="M 217.800 50.100 V 53.000 C 217.800 53.100 217.900 53.000 217.800 53.000 H 215.000 C 214.900 53.000 215.000 53.100 215.000 53.000 V 47.200 C 215.000 47.100 214.900 47.200 215.000 47.200 H 217.800 C 217.900 47.200 217.800 47.100 217.800 47.200 V 50.100 Z" stroke="rgb(0,0,255)" stroke-width="0.20" />
  <path d="M 217.800 38.100 V 41.000 C 217.800 41.100 217.900 41.000 217.800 41.000 H 215.000 C 214.900 41.000 215.000 41.100 215.000 41.000 V 35.200 C 215.000 35.100 214.900 35.200 215.000 35.200 H 217.800 C 217.900 35.200 217.800 35.100 217.800 35.200 V 38.100 Z" stroke="rgb(0,0,255)" stroke-width="0.20" />
  <path d="M 217.800 26.100 V 29.000 C 217.800 29.100 217.900 29.000 217.800 29.000 H 215.000 C 214.900 29.000 215.000 29.100 215.000 29.000 V 23.200 C 215.000 23.100 214.900 23.200 215.000 23.200 H 217.800 C 217.900 23.200 217.800 23.100 217.800 23.200 V 26.100 Z" stroke="rgb(0,0,255)" stroke-width="0.20" />
  <path d="M 203.800 12.100 H 206.700 C 206.800 12.100 206.700 12.000 206.700 12.100 V 14.900 C 206.700 15.000 206.800 14.900 206.700 14.900 H 200.900 C 200.800 14.900 200.900 15.000 200.900 14.900 V 12.100 C 200.900 12.000 200.800 12.100 200.900 12.100 H 203.800 Z" stroke="rgb(0,0,255)" stroke-width="0.20" />
  <path d="M 191.800 12.100 H 194.700 C 194.800 12.100 194.700 12.000 194.700 12.100 V 14.900 C 194.700 15.000 194.800 14.900 194.700 14.900 H 188.900 C 188.800 14.900 188.900 15.000 188.900 14.900 V 12.100 C 188.900 12.000 188.800 12.100 188.900 12.100 H 191.800 Z" stroke="rgb(0,0,255)" stroke-width="0.20" />
  <path d="M 179.800 12.100 H 182.700 C 182.800 12.100 182.700 12.000 182.700 12.100 V 14.900 C 182.700 15.000 182.800 14.900 182.700 14.900 H 176.900 C 176.800 14.900 176.900 15.000 176.900 14.900 V 12.100 C 176.900 12.000 176.800 12.100 176.900 12.100 H 179.800 Z" stroke="rgb(0,0,255)" stroke-width="0.20" />
  <path d="M 167.800 12.100 H 170.700 C 170.800 12.100 170.700 12.000 170.700 12.100 V 14.900 C 170.700 15.000 170.800 14.900 170.700 14.900 H 164.900 C 164.800 14.900 164.900 15.000 164.900 14.900 V 12.100 C 164.900 12.000 164.800 12.100 164.900 12.100 H 167.800 Z" stroke="rgb(0,0,255)" stroke-width="0.20" />
  <path d="M 155.800 12.100 H 158.700 C 158.800 12.100 158.700 12.000 158.700 12.100 V 14.900 C 158.700 15.000 158.800 14.900 158.700 14.900 H 152.900 C 152.800 14.900 152.900 15.000 152.900 14.900 V 12.100 C 152.900 12.000 152.800 12.100 152.900 12.100 H 155.800 Z" stroke="rgb(0,0,255)" stroke-width="0.20" />
  <path d="M 143.800 12.100 H 146.700 C 146.800 12.100 146.700 12.000 146.700 12.100 V 14.900 C 146.700 15.000 146.800 14.900 146.700 14.900 H 140.900 C 140.800 14.900 140.900 15.000 140.900 14.900 V 12.100 C 140.900 12.000 140.800 12.100 140.900 12.100 H 143.800 Z" stroke="rgb(0,0,255)" stroke-width="0.20" />
  <path d="M 131.800 12.100 H 134.700 C 134.800 12.100 134.700 12.000 134.700 12.100 V 14.900 C 134.700 15.000 134.800 14.900 134.700 14.900 H 128.900 C 128.800 14.900 128.900 15.000 128.900 14.900 V 12.100 C 128.900 12.000 128.800 12.100 128.900 12.100 H 131.800 Z" stroke="rgb(0,0,255)" stroke-width="0.20" />
  <path d="M 117.800 26.100 V 23.200 C 117.800 23.100 117.700 23.200 117.800 23.200 H 120.600 C 120.700 23.200 120.600 23.100 120.600 23.200 V 29.000 C 120.600 29.100 120.700 29.000 120.600 29.000 H 117.800 C 117.700 29.000 117.800 29.100 117.800 29.000 V 26.100 Z" stroke="rgb(0,0,255)" stroke-width="0.20" />
  <path d="M 117.800 38.100 V 35.200 C 117.800 35.100 117.700 35.200 117.800 35.200 H 120.600 C 120.700 35.200 120.600 35.100 120.600 35.200 V 41.000 C 120.600 41.100 120.700 41.000 120.600 41.000 H 117.800 C 117.700 41.000 117.800 41.100 117.800 41.000 V 38.100 Z" stroke="rgb(0,0,255)" stroke-width="0.20" />
  <path d="M 117.800 50.100 V 47.200 C 117.800 47.100 117.700 47.200 117.800 47.200 H 120.600 C 120.700 47.200 120.600 47.100 120.600 47.200 V 53.000 C 120.600 53.100 120.700 53.000 120.600 53.000 H 117.800 C 117.700 53.000 117.800 53.100 117.800 53.000 V 50.100 Z" stroke="rgb(0,0,255)" stroke-width="0.20" />
  <path d="M 117.800 62.100 V 59.200 C 117.800 59.100 117.700 59.200 117.800 59.200 H 120.600 C 120.700 59.200 120.600 59.100 120.600 59.200 V 65.000 C 120.600 65.100 120.700 65.000 120.600 65.000 H 117.800 C 117.700 65.000 117.800 65.100 117.800 65.000 V 62.100 Z" stroke="rgb(0,0,255)" stroke-width="0.20" />
  <path d="M 117.800 74.100 V 71.200 C 117.800 71.100 117.700 71.200 117.800 71.200 H 120.600 C 120.700 71.200 120.600 71.100 120.600 71.200 V 77.000 C 120.600 77.100 120.700 77.000 120.600 77.000 H 117.800 C 117.700 77.000 117.800 77.100 117.800 77.000 V 74.100 Z" stroke="rgb(0,0,255)" stroke-width="0.20" />
  <path d="M 117.800 86.100 V 83.200 C 117.800 83.100 117.700 83.200 117.800 83.200 H 120.600 C 120.700 83.200 120.600 83.100 120.600 83.200 V 89.000 C 120.600 89.100 120.700 89.000 120.600 89.000 H 117.800 C 117.700 89.000 117.800 89.100 117.800 89.000 V 86.100 Z" stroke="rgb(0,0,255)" stroke-width="0.20" />
  <path d="M 117.800 98.100 V 95.200 C 117.800 95.100 117.700 95.200 117.800 95.200 H 120.600 C 120.700 95.200 120.600 95.100 120.600 95.200 V 101.000 C 120.600 101.100 120.700 101.000 120.600 101.000 H 117.800 C 117.700 101.000 117.800 101.100 117.800 101.000 V 98.100 Z" stroke="rgb(0,0,255)" stroke-width="0.20" />
  <text dominant-baseline="hanging" font-size="4px" style="font-family: sans-serif ; font-weight: normal; font-style: normal; fill: rgb(255,0,0)" text-anchor="middle" transform="matrix( 1.000 0.000 0.000 1.000 167.800 60.200 )">Bottom</text>
</g>
</svg>