<?xml version='1.0' encoding='utf-8'?>
<svg height="640.40mm" viewBox="0.0 0.0 339.90 640.40" width="339.90mm" xmlns="http://www.w3.org/2000/svg" xmlns:cc="http://creativecommons.org/ns#" xmlns:dc="http://purl.org/dc/elements/1.1/" xmlns:inkscape="http://www.inkscape.org/namespaces/inkscape" xmlns:rdf="http://www.w3.org/1999/02/22-rdf-syntax-ns#" xmlns:svg="http://www.w3.org/2000/svg" xmlns:xlink="http://www.w3.org/1999/xlink">
<!--
DividerTray - Divider tray - rows and dividers



Adding '0:' at the start of the sy parameter adds a slot at the very back. Adding ':0' at the end of sy adds a slot meeting the bottom at the very front. This is especially useful if slot angle is set above zero.

There are 4 different sets of dividers rendered:

* With asymmetric tabs so the tabs fit on top of each other
* With tabs of half wall thickness that can go side by side
* With tabs of a full wall thickness
* One single divider spanning across all columns

You will likely need to cut each of the dividers you want multiple times.



Created with Boxes.py (https://festi.info/boxes.py)
Command line (remove spaces between dashes): boxes DividerTray
-->
<title>DividerTray</title>
<metadata>
<rdf:RDF><cc:Work>
<dc:title>Tray - DividerTray</dc:title>
<dc:source>boxes DividerTray</dc:source>
<dc:description>Divider tray - rows and dividers


Adding '0:' at the start of the sy parameter adds a slot at the very back. Adding ':0' at the end of sy adds a slot meeting the bottom at the very front. This is especially useful if slot angle is set above zero.

There are 4 different sets of dividers rendered:

* With asymmetric tabs so the tabs fit on top of each other
* With tabs of half wall thickness that can go side by side
* With tabs of a full wall thickness
* One single divider spanning across all columns

You will likely need to cut each of the dividers you want multiple times.


Created with Boxes.py (https://festi.info/boxes.py)
Command line: boxes DividerTray
Command line short: boxes DividerTray
</dc:description>
</cc:Work></rdf:RDF></metadata>
<g id="p-0" style="fill:none;stroke-linecap:round;stroke-linejoin:round;">
  <path d="M 18.800 630.400 H 118.800 V 620.400 H 18.800 V 630.400 Z" stroke="rgb(0,0,0)" stroke-width="0.20" />
  <text dominant-baseline="hanging" font-size="8px" style="font-family: sans-serif ; font-weight: normal; font-style: normal; fill: rgb(255,0,0)" text-anchor="middle" transform="matrix( 1.000 0.000 0.000 1.000 68.800 621.400 )">100.00mm, burn:0.10mm</text>
</g>
<g id="p-1" style="fill:none;stroke-linecap:round;stroke-linejoin:round;">
  <path d="M 70.700 604.600 V 607.500 C 70.700 607.600 70.800 607.500 70.700 607.500 H 67.900 C 67.800 607.500 67.900 607.600 67.900 607.500 V 601.700 C 67.900 601.600 67.800 601.700 67.900 601.700 H 70.700 C 70.800 601.700 70.700 601.600 70.700 601.700 V 604.600 Z" stroke="rgb(0,0,255)" stroke-width="0.20" />
  <path d="M 70.700 592.600 V 595.500 C 70.700 595.600 70.800 595.500 70.700 595.500 H 67.900 C 67.800 595.500 67.900 595.600 67.900 595.500 V 589.700 C 67.900 589.600 67.800 589.700 67.900 589.700 H 70.700 C 70.800 589.700 70.700 589.600 70.700 589.700 V 592.600 Z" stroke="rgb(0,0,255)" stroke-width="0.20" />
  <path d="M 70.700 580.600 V 583.500 C 70.700 583.600 70.800 583.500 70.700 583.500 H 67.900 C 67.800 583.500 67.900 583.600 67.900 583.500 V 577.700 C 67.900 577.600 67.800 577.700 67.900 577.700 H 70.700 C 70.800 577.700 70.700 577.600 70.700 577.700 V 580.600 Z" stroke="rgb(0,0,255)" stroke-width="0.20" />
  <path d="M 70.700 568.600 V 571.500 C 70.700 571.600 70.800 571.500 70.700 571.500 H 67.900 C 67.800 571.500 67.900 571.600 67.900 571.500 V 565.700 C 67.900 565.600 67.800 565.700 67.900 565.700 H 70.700 C 70.800 565.700 70.700 565.600 70.700 565.700 V 568.600 Z" stroke="rgb(0,0,255)" stroke-width="0.20" />
  <path d="M 70.700 556.600 V 559.500 C 70.700 559.600 70.800 559.500 70.700 559.500 H 67.900 C 67.800 559.500 67.900 559.600 67.900 559.500 V 553.700 C 67.900 553.600 67.800 553.700 67.900 553.700 H 70.700 C 70.800 553.700 70.700 553.600 70.700 553.700 V 556.600 Z" stroke="rgb(0,0,255)" stroke-width="0.20" />
  <path d="M 70.700 544.600 V 547.500 C 70.700 547.600 70.800 547.500 70.700 547.500 H 67.900 C 67.800 547.500 67.900 547.600 67.900 547.500 V 541.700 C 67.900 541.600 67.800 541.700 67.900 541.700 H 70.700 C 70.800 541.700 70.700 541.600 70.700 541.700 V 544.600 Z" stroke="rgb(0,0,255)" stroke-width="0.20" />
  <path d="M 70.700 532.600 V 535.500 C 70.700 535.600 70.800 535.500 70.700 535.500 H 67.900 C 67.800 535.500 67.900 535.600 67.900 535.500 V 529.700 C 67.900 529.600 67.800 529.700 67.900 529.700 H 70.700 C 70.800 529.700 70.700 529.600 70.700 529.700 V 532.600 Z" stroke="rgb(0,0,255)" stroke-width="0.20" />
  <path d="M 119.700 604.600 V 607.500 C 119.700 607.600 119.800 607.500 119.700 607.500 H 116.900 C 116.800 607.500 116.900 607.600 116.900 607.500 V 601.700 C 116.900 601.600 116.800 601.700 116.900 601.700 H 119.700 C 119.800 601.700 119.700 601.600 119.700 601.700 V 604.600 Z" stroke="rgb(0,0,255)" stroke-width="0.20" />
  <path d="M 119.700 592.600 V 595.500 C 119.700 595.600 119.800 595.500 119.700 595.500 H 116.900 C 116.800 595.500 116.900 595.600 116.900 595.500 V 589.700 C 116.900 589.600 116.800 589.700 116.900 589.700 H 119.700 C 119.800 589.700 119.700 589.600 119.700 589.700 V 592.600 Z" stroke="rgb(0,0,255)" stroke-width="0.20" />
  <path d="M 119.700 580.600 V 583.500 C 119.700 583.600 119.800 583.500 119.700 583.500 H 116.900 C 116.800 583.500 116.900 583.600 116.900 583.500 V 577.700 C 116.900 577.600 116.800 577.700 116.900 577.700 H 119.700 C 119.800 577.700 119.700 577.600 119.700 577.700 V 580.600 Z" stroke="rgb(0,0,255)" stroke-width="0.20" />
  <path d="M 119.700 568.600 V 571.500 C 119.700 571.600 119.800 571.500 119.700 571.500 H 116.900 C 116.800 571.500 116.900 571.600 116.900 571.500 V 565.700 C 116.900 565.600 116.800 565.700 116.900 565.700 H 119.700 C 119.800 565.700 119.700 565.600 119.700 565.700 V 568.600 Z" stroke="rgb(0,0,255)" stroke-width="0.20" />
  <path d="M 119.700 556.600 V 559.500 C 119.700 559.600 119.800 559.500 119.700 559.500 H 116.900 C 116.800 559.500 116.900 559.600 116.900 559.500 V 553.700 C 116.900 553.600 116.800 553.700 116.900 553.700 H 119.700 C 119.800 553.700 119.700 553.600 119.700 553.700 V 556.600 Z" stroke="rgb(0,0,255)" stroke-width="0.20" />
  <path d="M 119.700 544.600 V 547.500 C 119.700 547.600 119.800 547.500 119.700 547.500 H 116.900 C 116.800 547.500 116.900 547.600 116.900 547.500 V 541.700 C 116.900 541.600 116.800 541.700 116.900 541.700 H 119.700 C 119.800 541.700 119.700 541.600 119.700 541.700 V 544.600 Z" stroke="rgb(0,0,255)" stroke-width="0.20" />
  <path d="M 119.700 532.600 V 535.500 C 119.700 535.600 119.800 535.500 119.700 535.500 H 116.900 C 116.800 535.500 116.900 535.600 116.900 535.500 V 529.700 C 116.900 529.600 116.800 529.700 116.900 529.700 H 119.700 C 119.800 529.700 119.700 529.600 119.700 529.700 V 532.600 Z" stroke="rgb(0,0,255)" stroke-width="0.20" />
  <text dominant-baseline="hanging" font-size="4px" style="font-family: sans-serif ; font-weight: normal; font-style: normal; fill: rgb(255,0,0)" text-anchor="middle" transform="matrix( 1.000 0.000 0.000 1.000 93.800 566.700 )">Back</text><path d="M 21.800 618.700 H 165.800 H 168.800 C 168.855 618.700 168.900 618.655 168.900 618.600 V 607.600 C 168.900 607.545 168.855 607.500 168.800 607.500 H 165.900 C 165.800 607.500 165.900 607.600 165.900 607.500 V 601.700 C 165.900 601.600 165.800 601.700 165.900 601.700 H 168.800 C 168.855 601.700 168.900 601.655 168.900 601.600 V 595.600 C 168.900 595.545 168.855 595.500 168.800 595.500 H 165.900 C 165.800 595.500 165.900 595.600 165.900 595.500 V 589.700 C 165.900 589.600 165.800 589.700 165.900 589.700 H 168.800 C 168.855 589.700 168.900 589.655 168.900 589.600 V 583.600 C 168.900 583.545 168.855 583.500 168.800 583.500 H 165.900 C 165.800 583.500 165.900 583.600 165.900 583.500 V 577.700 C 165.900 577.600 165.800 577.700 165.900 577.700 H 168.800 C 168.855 577.700 168.900 577.655 168.900 577.600 V 571.600 C 168.900 571.545 168.855 571.500 168.800 571.500 H 165.900 C 165.800 571.500 165.900 571.600 165.900 571.500 V 565.700 C 165.900 565.600 165.800 565.700 165.900 565.700 H 168.800 C 168.855 565.700 168.900 565.655 168.900 565.600 V 559.600 C 168.900 559.545 168.855 559.500 168.800 559.500 H 165.900 C 165.800 559.500 165.900 559.600 165.900 559.500 V 553.700 C 165.900 553.600 165.800 553.700 165.900 553.700 H 168.800 C 168.855 553.700 168.900 553.655 168.900 553.600 V 547.600 C 168.900 547.545 168.855 547.500 168.800 547.500 H 165.900 C 165.800 547.500 165.900 547.600 165.900 547.500 V 541.700 C 165.900 541.600 165.800 541.700 165.900 541.700 H 168.800 C 168.855 541.700 168.900 541.655 168.900 541.600 V 535.600 C 168.900 535.545 168.855 535.500 168.800 535.500 H 165.900 C 165.800 535.500 165.900 535.600 165.900 535.500 V 529.700 C 165.900 529.600 165.800 529.700 165.900 529.700 H 168.800 C 168.855 529.700 168.900 529.655 168.900 529.600 V 518.600 C 168.900 518.545 168.855 518.500 168.800 518.500 H 165.800 H 156.467 C 156.274 518.500 156.084 518.551 155.917 518.647 C 155.749 518.744 155.611 518.883 155.514 519.050 C 155.417 519.217 155.367 519.407 155.367 519.600 V 525.600 C 155.367 526.987 155.002 528.349 154.308 529.550 C 153.615 530.751 152.618 531.748 151.417 532.442 C 150.216 533.135 148.853 533.500 147.467 533.500 H 138.133 C 136.747 533.500 135.384 533.135 134.183 532.442 C 132.982 531.748 131.985 530.751 131.292 529.550 C 130.598 528.349 130.233 526.987 130.233 525.600 V 519.600 C 130.233 519.407 130.183 519.217 130.086 519.050 C 129.989 518.883 129.851 518.744 129.683 518.647 C 129.516 518.551 129.326 518.500 129.133 518.500 H 119.800 H 116.800 H 107.467 C 107.274 518.500 107.084 518.551 106.917 518.647 C 106.749 518.744 106.611 518.883 106.514 519.050 C 106.417 519.217 106.367 519.407 106.367 519.600 V 525.600 C 106.367 526.987 106.002 528.349 105.308 529.550 C 104.615 530.751 103.618 531.748 102.417 532.442 C 101.216 533.135 99.853 533.500 98.467 533.500 H 89.133 C 87.747 533.500 86.384 533.135 85.183 532.442 C 83.982 531.748 82.985 530.751 82.292 529.550 C 81.598 528.349 81.233 526.987 81.233 525.600 V 519.600 C 81.233 519.407 81.183 519.217 81.086 519.050 C 80.989 518.883 80.851 518.744 80.683 518.647 C 80.516 518.551 80.326 518.500 80.133 518.500 H 70.800 H 67.800 H 58.467 C 58.274 518.500 58.084 518.551 57.917 518.647 C 57.749 518.744 57.611 518.883 57.514 519.050 C 57.417 519.217 57.367 519.407 57.367 519.600 V 525.600 C 57.367 526.987 57.002 528.349 56.308 529.550 C 55.615 530.751 54.618 531.748 53.417 532.442 C 52.216 533.135 50.853 533.500 49.467 533.500 H 40.133 C 38.747 533.500 37.384 533.135 36.183 532.442 C 34.982 531.748 33.985 530.751 33.292 529.550 C 32.598 528.349 32.233 526.987 32.233 525.600 V 519.600 C 32.233 519.407 32.183 519.217 32.086 519.050 C 31.989 518.883 31.851 518.744 31.683 518.647 C 31.516 518.551 31.326 518.500 31.133 518.500 H 21.800 H 18.800 C 18.745 518.500 18.700 518.545 18.700 518.600 V 529.600 C 18.700 529.655 18.745 529.700 18.800 529.700 H 21.700 C 21.800 529.700 21.700 529.600 21.700 529.700 V 535.500 C 21.700 535.600 21.800 535.500 21.700 535.500 H 18.800 C 18.745 535.500 18.700 535.545 18.700 535.600 V 541.600 C 18.700 541.655 18.745 541.700 18.800 541.700 H 21.700 C 21.800 541.700 21.700 541.600 21.700 541.700 V 547.500 C 21.700 547.600 21.800 547.500 21.700 547.500 H 18.800 C 18.745 547.500 18.700 547.545 18.700 547.600 V 553.600 C 18.700 553.655 18.745 553.700 18.800 553.700 H 21.700 C 21.800 553.700 21.700 553.600 21.700 553.700 V 559.500 C 21.700 559.600 21.800 559.500 21.700 559.500 H 18.800 C 18.745 559.500 18.700 559.545 18.700 559.600 V 565.600 C 18.700 565.655 18.745 565.700 18.800 565.700 H 21.700 C 21.800 565.700 21.700 565.600 21.700 565.700 V 571.500 C 21.700 571.600 21.800 571.500 21.700 571.500 H 18.800 C 18.745 571.500 18.700 571.545 18.700 571.600 V 577.600 C 18.700 577.655 18.745 577.700 18.800 577.700 H 21.700 C 21.800 577.700 21.700 577.600 21.700 577.700 V 583.500 C 21.700 583.600 21.800 583.500 21.700 583.500 H 18.800 C 18.745 583.500 18.700 583.545 18.700 583.600 V 589.600 C 18.700 589.655 18.745 589.700 18.800 589.700 H 21.700 C 21.800 589.700 21.700 589.600 21.700 589.700 V 595.500 C 21.700 595.600 21.800 595.500 21.700 595.500 H 18.800 C 18.745 595.500 18.700 595.545 18.700 595.600 V 601.600 C 18.700 601.655 18.745 601.700 18.800 601.700 H 21.700 C 21.800 601.700 21.700 601.600 21.700 601.700 V 607.500 C 21.700 607.600 21.800 607.500 21.700 607.500 H 18.800 C 18.745 607.500 18.700 607.545 18.700 607.600 V 618.600 C 18.700 618.655 18.745 618.700 18.800 618.700 H 21.800" stroke="rgb(0,0,0)" stroke-width="0.20" />
</g>
<g id="p-2" style="fill:none;stroke-linecap:round;stroke-linejoin:round;">
  <path d="M 70.700 502.900 V 505.800 C 70.700 505.900 70.800 505.800 70.700 505.800 H 67.900 C 67.800 505.800 67.900 505.900 67.900 505.800 V 500.000 C 67.900 499.900 67.800 500.000 67.900 500.000 H 70.700 C 70.800 500.000 70.700 499.900 70.700 500.000 V 502.900 Z" stroke="rgb(0,0,255)" stroke-width="0.20" />
  <path d="M 70.700 490.900 V 493.800 C 70.700 493.900 70.800 493.800 70.700 493.800 H 67.900 C 67.800 493.800 67.900 493.900 67.900 493.800 V 488.000 C 67.900 487.900 67.800 488.000 67.900 488.000 H 70.700 C 70.800 488.000 70.700 487.900 70.700 488.000 V 490.900 Z" stroke="rgb(0,0,255)" stroke-width="0.20" />
  <path d="M 70.700 478.900 V 481.800 C 70.700 481.900 70.800 481.800 70.700 481.800 H 67.900 C 67.800 481.800 67.900 481.900 67.900 481.800 V 476.000 C 67.900 475.900 67.800 476.000 67.900 476.000 H 70.700 C 70.800 476.000 70.700 475.900 70.700 476.000 V 478.900 Z" stroke="rgb(0,0,255)" stroke-width="0.20" />
  <path d="M 70.700 466.900 V 469.800 C 70.700 469.900 70.800 469.800 70.700 469.800 H 67.900 C 67.800 469.800 67.900 469.900 67.900 469.800 V 464.000 C 67.900 463.900 67.800 464.000 67.900 464.000 H 70.700 C 70.800 464.000 70.700 463.900 70.700 464.000 V 466.900 Z" stroke="rgb(0,0,255)" stroke-width="0.20" />
  <path d="M 70.700 454.900 V 457.800 C 70.700 457.900 70.800 457.800 70.700 457.800 H 67.900 C 67.800 457.800 67.900 457.900 67.900 457.800 V 452.000 C 67.900 451.900 67.800 452.000 67.900 452.000 H 70.700 C 70.800 452.000 70.700 451.900 70.700 452.000 V 454.900 Z" stroke="rgb(0,0,255)" stroke-width="0.20" />
  <path d="M 70.700 442.900 V 445.800 C 70.700 445.900 70.800 445.800 70.700 445.800 H 67.900 C 67.800 445.800 67.900 445.900 67.900 445.800 V 440.000 C 67.900 439.900 67.800 440.000 67.900 440.000 H 70.700 C 70.800 440.000 70.700 439.900 70.700 440.000 V 442.900 Z" stroke="rgb(0,0,255)" stroke-width="0.20" />
  <path d="M 70.700 430.900 V 433.800 C 70.700 433.900 70.800 433.800 70.700 433.800 H 67.900 C 67.800 433.800 67.900 433.900 67.900 433.800 V 428.000 C 67.900 427.900 67.800 428.000 67.900 428.000 H 70.700 C 70.800 428.000 70.700 427.900 70.700 428.000 V 430.900 Z" stroke="rgb(0,0,255)" stroke-width="0.20" />
  <path d="M 119.700 502.900 V 505.800 C 119.700 505.900 119.800 505.800 119.700 505.800 H 116.900 C 116.800 505.800 116.900 505.900 116.900 505.800 V 500.000 C 116.900 499.900 116.800 500.000 116.900 500.000 H 119.700 C 119.800 500.000 119.700 499.900 119.700 500.000 V 502.900 Z" stroke="rgb(0,0,255)" stroke-width="0.20" />
  <path d="M 119.700 490.900 V 493.800 C 119.700 493.900 119.800 493.800 119.700 493.800 H 116.900 C 116.800 493.800 116.900 493.900 116.900 493.800 V 488.000 C 116.900 487.900 116.800 488.000 116.900 488.000 H 119.700 C 119.800 488.000 119.700 487.900 119.700 488.000 V 490.900 Z" stroke="rgb(0,0,255)" stroke-width="0.20" />
  <path d="M 119.700 478.900 V 481.800 C 119.700 481.900 119.800 481.800 119.700 481.800 H 116.900 C 116.800 481.800 116.900 481.900 116.900 481.800 V 476.000 C 116.900 475.900 116.800 476.000 116.900 476.000 H 119.700 C 119.800 476.000 119.700 475.900 119.700 476.000 V 478.900 Z" stroke="rgb(0,0,255)" stroke-width="0.20" />
  <path d="M 119.700 466.900 V 469.800 C 119.700 469.900 119.800 469.800 119.700 469.800 H 116.900 C 116.800 469.800 116.900 469.900 116.900 469.800 V 464.000 C 116.900 463.900 116.800 464.000 116.900 464.000 H 119.700 C 119.800 464.000 119.700 463.900 119.700 464.000 V 466.900 Z" stroke="rgb(0,0,255)" stroke-width="0.20" />
  <path d="M 119.700 454.900 V 457.800 C 119.700 457.900 119.800 457.800 119.700 457.800 H 116.900 C 116.800 457.800 116.900 457.900 116.900 457.800 V 452.000 C 116.900 451.900 116.800 452.000 116.900 452.000 H 119.700 C 119.800 452.000 119.700 451.900 119.700 452.000 V 454.900 Z" stroke="rgb(0,0,255)" stroke-width="0.20" />
  <path d="M 119.700 442.900 V 445.800 C 119.700 445.900 119.800 445.800 119.700 445.800 H 116.900 C 116.800 445.800 116.900 445.900 116.900 445.800 V 440.000 C 116.900 439.900 116.800 440.000 116.900 440.000 H 119.700 C 119.800 440.000 119.700 439.900 119.700 440.000 V 442.900 Z" stroke="rgb(0,0,255)" stroke-width="0.20" />
  <path d="M 119.700 430.900 V 433.800 C 119.700 433.900 119.800 433.800 119.700 433.800 H 116.900 C 116.800 433.800 116.900 433.900 116.900 433.800 V 428.000 C 116.900 427.900 116.800 428.000 116.900 428.000 H 119.700 C 119.800 428.000 119.700 427.900 119.700 428.000 V 430.900 Z" stroke="rgb(0,0,255)" stroke-width="0.20" />
  <text dominant-baseline="hanging" font-size="4px" style="font-family: sans-serif ; font-weight: normal; font-style: normal; fill: rgb(255,0,0)" text-anchor="middle" transform="matrix( 1.000 0.000 0.000 1.000 93.800 465.000 )">Front</text><path d="M 21.800 517.000 H 165.800 H 168.800 C 168.855 517.000 168.900 516.955 168.900 516.900 V 505.900 C 168.900 505.845 168.855 505.800 168.800 505.800 H 165.900 C 165.800 505.800 165.900 505.900 165.900 505.800 V 500.000 C 165.900 499.900 165.800 500.000 165.900 500.000 H 168.800 C 168.855 500.000 168.900 499.955 168.900 499.900 V 493.900 C 168.900 493.845 168.855 493.800 168.800 493.800 H 165.900 C 165.800 493.800 165.900 493.900 165.900 493.800 V 488.000 C 165.900 487.900 165.800 488.000 165.900 488.000 H 168.800 C 168.855 488.000 168.900 487.955 168.900 487.900 V 481.900 C 168.900 481.845 168.855 481.800 168.800 481.800 H 165.900 C 165.800 481.800 165.900 481.900 165.900 481.800 V 476.000 C 165.900 475.900 165.800 476.000 165.900 476.000 H 168.800 C 168.855 476.000 168.900 475.955 168.900 475.900 V 469.900 C 168.900 469.845 168.855 469.800 168.800 469.800 H 165.900 C 165.800 469.800 165.900 469.900 165.900 469.800 V 464.000 C 165.900 463.900 165.800 464.000 165.900 464.000 H 168.800 C 168.855 464.000 168.900 463.955 168.900 463.900 V 457.900 C 168.900 457.845 168.855 457.800 168.800 457.800 H 165.900 C 165.800 457.800 165.900 457.900 165.900 457.800 V 452.000 C 165.900 451.900 165.800 452.000 165.900 452.000 H 168.800 C 168.855 452.000 168.900 451.955 168.900 451.900 V 445.900 C 168.900 445.845 168.855 445.800 168.800 445.800 H 165.900 C 165.800 445.800 165.900 445.900 165.900 445.800 V 440.000 C 165.900 439.900 165.800 440.000 165.900 440.000 H 168.800 C 168.855 440.000 168.900 439.955 168.900 439.900 V 433.900 C 168.900 433.845 168.855 433.800 168.800 433.800 H 165.900 C 165.800 433.800 165.900 433.900 165.900 433.800 V 428.000 C 165.900 427.900 165.800 428.000 165.900 428.000 H 168.800 C 168.855 428.000 168.900 427.955 168.900 427.900 V 416.900 C 168.900 416.845 168.855 416.800 168.800 416.800 H 165.800 H 156.467 C 156.274 416.800 156.084 416.851 155.917 416.947 C 155.749 417.044 155.611 417.183 155.514 417.350 C 155.417 417.517 155.367 417.707 155.367 417.900 V 423.900 C 155.367 425.287 155.002 426.649 154.308 427.850 C 153.615 429.051 152.618 430.048 151.417 430.742 C 150.216 431.435 148.853 431.800 147.467 431.800 H 138.133 C 136.747 431.800 135.384 431.435 134.183 430.742 C 132.982 430.048 131.985 429.051 131.292 427.850 C 130.598 426.649 130.233 425.287 130.233 423.900 V 417.900 C 130.233 417.707 130.183 417.517 130.086 417.350 C 129.989 417.183 129.851 417.044 129.683 416.947 C 129.516 416.851 129.326 416.800 129.133 416.800 H 119.800 H 116.800 H 107.467 C 107.274 416.800 107.084 416.851 106.917 416.947 C 106.749 417.044 106.611 417.183 106.514 417.350 C 106.417 417.517 106.367 417.707 106.367 417.900 V 423.900 C 106.367 425.287 106.002 426.649 105.308 427.850 C 104.615 429.051 103.618 430.048 102.417 430.742 C 101.216 431.435 99.853 431.800 98.467 431.800 H 89.133 C 87.747 431.800 86.384 431.435 85.183 430.742 C 83.982 430.048 82.985 429.051 82.292 427.850 C 81.598 426.649 81.233 425.287 81.233 423.900 V 417.900 C 81.233 417.707 81.183 417.517 81.086 417.350 C 80.989 417.183 80.851 417.044 80.683 416.947 C 80.516 416.851 80.326 416.800 80.133 416.800 H 70.800 H 67.800 H 58.467 C 58.274 416.800 58.084 416.851 57.917 416.947 C 57.749 417.044 57.611 417.183 57.514 417.350 C 57.417 417.517 57.367 417.707 57.367 417.900 V 423.900 C 57.367 425.287 57.002 426.649 56.308 427.850 C 55.615 429.051 54.618 430.048 53.417 430.742 C 52.216 431.435 50.853 431.800 49.467 431.800 H 40.133 C 38.747 431.800 37.384 431.435 36.183 430.742 C 34.982 430.048 33.985 429.051 33.292 427.850 C 32.598 426.649 32.233 425.287 32.233 423.900 V 417.900 C 32.233 417.707 32.183 417.517 32.086 417.350 C 31.989 417.183 31.851 417.044 31.683 416.947 C 31.516 416.851 31.326 416.800 31.133 416.800 H 21.800 H 18.800 C 18.745 416.800 18.700 416.845 18.700 416.900 V 427.900 C 18.700 427.955 18.745 428.000 18.800 428.000 H 21.700 C 21.800 428.000 21.700 427.900 21.700 428.000 V 433.800 C 21.700 433.900 21.800 433.800 21.700 433.800 H 18.800 C 18.745 433.800 18.700 433.845 18.700 433.900 V 439.900 C 18.700 439.955 18.745 440.000 18.800 440.000 H 21.700 C 21.800 440.000 21.700 439.900 21.700 440.000 V 445.800 C 21.700 445.900 21.800 445.800 21.700 445.800 H 18.800 C 18.745 445.800 18.700 445.845 18.700 445.900 V 451.900 C 18.700 451.955 18.745 452.000 18.800 452.000 H 21.700 C 21.800 452.000 21.700 451.900 21.700 452.000 V 457.800 C 21.700 457.900 21.800 457.800 21.700 457.800 H 18.800 C 18.745 457.800 18.700 457.845 18.700 457.900 V 463.900 C 18.700 463.955 18.745 464.000 18.800 464.000 H 21.700 C 21.800 464.000 21.700 463.900 21.700 464.000 V 469.800 C 21.700 469.900 21.800 469.800 21.700 469.800 H 18.800 C 18.745 469.800 18.700 469.845 18.700 469.900 V 475.900 C 18.700 475.955 18.745 476.000 18.800 476.000 H 21.700 C 21.800 476.000 21.700 475.900 21.700 476.000 V 481.800 C 21.700 481.900 21.800 481.800 21.700 481.800 H 18.800 C 18.745 481.800 18.700 481.845 18.700 481.900 V 487.900 C 18.700 487.955 18.745 488.000 18.800 488.000 H 21.700 C 21.800 488.000 21.700 487.900 21.700 488.000 V 493.800 C 21.700 493.900 21.800 493.800 21.700 493.800 H 18.800 C 18.745 493.800 18.700 493.845 18.700 493.900 V 499.900 C 18.700 499.955 18.745 500.000 18.800 500.000 H 21.700 C 21.800 500.000 21.700 499.900 21.700 500.000 V 505.800 C 21.700 505.900 21.800 505.800 21.700 505.800 H 18.800 C 18.745 505.800 18.700 505.845 18.700 505.900 V 516.900 C 18.700 516.955 18.745 517.000 18.800 517.000 H 21.800" stroke="rgb(0,0,0)" stroke-width="0.20" />
</g>
<g id="p-3" style="fill:none;stroke-linecap:round;stroke-linejoin:round;">
  <text dominant-baseline="hanging" font-size="4px" style="font-family: sans-serif ; font-weight: normal; font-style: normal; fill: rgb(255,0,0)" text-anchor="middle" transform="matrix( 1.000 0.000 0.000 1.000 93.800 363.300 )">Sidepiece 1</text><path d="M 21.800 415.300 H 165.800 C 165.855 415.300 165.900 415.255 165.900 415.200 V 404.300 C 165.900 404.200 165.800 404.300 165.900 404.300 H 168.800 C 168.855 404.300 168.900 404.255 168.900 404.200 V 398.200 C 168.900 398.145 168.855 398.100 168.800 398.100 H 165.900 C 165.800 398.100 165.900 398.200 165.900 398.100 V 392.300 C 165.900 392.200 165.800 392.300 165.900 392.300 H 168.800 C 168.855 392.300 168.900 392.255 168.900 392.200 V 386.200 C 168.900 386.145 168.855 386.100 168.800 386.100 H 165.900 C 165.800 386.100 165.900 386.200 165.900 386.100 V 380.300 C 165.900 380.200 165.800 380.300 165.900 380.300 H 168.800 C 168.855 380.300 168.900 380.255 168.900 380.200 V 374.200 C 168.900 374.145 168.855 374.100 168.800 374.100 H 165.900 C 165.800 374.100 165.900 374.200 165.900 374.100 V 368.300 C 165.900 368.200 165.800 368.300 165.900 368.300 H 168.800 C 168.855 368.300 168.900 368.255 168.900 368.200 V 362.200 C 168.900 362.145 168.855 362.100 168.800 362.100 H 165.900 C 165.800 362.100 165.900 362.200 165.900 362.100 V 356.300 C 165.900 356.200 165.800 356.300 165.900 356.300 H 168.800 C 168.855 356.300 168.900 356.255 168.900 356.200 V 350.200 C 168.900 350.145 168.855 350.100 168.800 350.100 H 165.900 C 165.800 350.100 165.900 350.200 165.900 350.100 V 344.300 C 165.900 344.200 165.800 344.300 165.900 344.300 H 168.800 C 168.855 344.300 168.900 344.255 168.900 344.200 V 338.200 C 168.900 338.145 168.855 338.100 168.800 338.100 H 165.900 C 165.800 338.100 165.900 338.200 165.900 338.100 V 332.300 C 165.900 332.200 165.800 332.300 165.900 332.300 H 168.800 C 168.855 332.300 168.900 332.255 168.900 332.200 V 326.200 C 168.900 326.145 168.855 326.100 168.800 326.100 H 165.900 C 165.800 326.100 165.900 326.200 165.900 326.100 V 315.200 C 165.900 315.145 165.855 315.100 165.800 315.100 H 121.933 C 121.565 315.100 121.203 315.197 120.883 315.381 C 120.564 315.566 120.299 315.831 120.115 316.150 C 119.930 316.469 119.833 316.831 119.833 317.200 V 335.100 C 119.833 335.200 119.933 335.100 119.833 335.100 H 116.833 C 116.733 335.100 116.833 335.200 116.833 335.100 V 317.200 C 116.833 316.831 116.736 316.469 116.552 316.150 C 116.368 315.831 116.103 315.566 115.783 315.381 C 115.464 315.197 115.102 315.100 114.733 315.100 H 72.867 C 72.498 315.100 72.136 315.197 71.817 315.381 C 71.497 315.566 71.232 315.831 71.048 316.150 C 70.864 316.469 70.767 316.831 70.767 317.200 V 335.100 C 70.767 335.200 70.867 335.100 70.767 335.100 H 67.767 C 67.667 335.100 67.767 335.200 67.767 335.100 V 317.200 C 67.767 316.831 67.670 316.469 67.485 316.150 C 67.301 315.831 67.036 315.566 66.717 315.381 C 66.397 315.197 66.035 315.100 65.667 315.100 H 21.800 C 21.745 315.100 21.700 315.145 21.700 315.200 V 326.100 C 21.700 326.200 21.800 326.100 21.700 326.100 H 18.800 C 18.745 326.100 18.700 326.145 18.700 326.200 V 332.200 C 18.700 332.255 18.745 332.300 18.800 332.300 H 21.700 C 21.800 332.300 21.700 332.200 21.700 332.300 V 338.100 C 21.700 338.200 21.800 338.100 21.700 338.100 H 18.800 C 18.745 338.100 18.700 338.145 18.700 338.200 V 344.200 C 18.700 344.255 18.745 344.300 18.800 344.300 H 21.700 C 21.800 344.300 21.700 344.200 21.700 344.300 V 350.100 C 21.700 350.200 21.800 350.100 21.700 350.100 H 18.800 C 18.745 350.100 18.700 350.145 18.700 350.200 V 356.200 C 18.700 356.255 18.745 356.300 18.800 356.300 H 21.700 C 21.800 356.300 21.700 356.200 21.700 356.300 V 362.100 C 21.700 362.200 21.800 362.100 21.700 362.100 H 18.800 C 18.745 362.100 18.700 362.145 18.700 362.200 V 368.200 C 18.700 368.255 18.745 368.300 18.800 368.300 H 21.700 C 21.800 368.300 21.700 368.200 21.700 368.300 V 374.100 C 21.700 374.200 21.800 374.100 21.700 374.100 H 18.800 C 18.745 374.100 18.700 374.145 18.700 374.200 V 380.200 C 18.700 380.255 18.745 380.300 18.800 380.300 H 21.700 C 21.800 380.300 21.700 380.200 21.700 380.300 V 386.100 C 21.700 386.200 21.800 386.100 21.700 386.100 H 18.800 C 18.745 386.100 18.700 386.145 18.700 386.200 V 392.200 C 18.700 392.255 18.745 392.300 18.800 392.300 H 21.700 C 21.800 392.300 21.700 392.200 21.700 392.300 V 398.100 C 21.700 398.200 21.800 398.100 21.700 398.100 H 18.800 C 18.745 398.100 18.700 398.145 18.700 398.200 V 404.200 C 18.700 404.255 18.745 404.300 18.800 404.300 H 21.700 C 21.800 404.300 21.700 404.200 21.700 404.300 V 415.200 C 21.700 415.255 21.745 415.300 21.800 415.300" stroke="rgb(0,0,0)" stroke-width="0.20" />
</g>
<g id="p-4" style="fill:none;stroke-linecap:round;stroke-linejoin:round;">
  <text dominant-baseline="hanging" font-size="4px" style="font-family: sans-serif ; font-weight: normal; font-style: normal; fill: rgb(255,0,0)" text-anchor="middle" transform="matrix( 1.000 0.000 0.000 1.000 93.800 261.600 )">Sidepiece 2</text><path d="M 21.800 313.600 H 165.800 C 165.855 313.600 165.900 313.555 165.900 313.500 V 302.600 C 165.900 302.500 165.800 302.600 165.900 302.600 H 168.800 C 168.855 302.600 168.900 302.555 168.900 302.500 V 296.500 C 168.900 296.445 168.855 296.400 168.800 296.400 H 165.900 C 165.800 296.400 165.900 296.500 165.900 296.400 V 290.600 C 165.900 290.500 165.800 290.600 165.900 290.600 H 168.800 C 168.855 290.600 168.900 290.555 168.900 290.500 V 284.500 C 168.900 284.445 168.855 284.400 168.800 284.400 H 165.900 C 165.800 284.400 165.900 284.500 165.900 284.400 V 278.600 C 165.900 278.500 165.800 278.600 165.900 278.600 H 168.800 C 168.855 278.600 168.900 278.555 168.900 278.500 V 272.500 C 168.900 272.445 168.855 272.400 168.800 272.400 H 165.900 C 165.800 272.400 165.900 272.500 165.900 272.400 V 266.600 C 165.900 266.500 165.800 266.600 165.900 266.600 H 168.800 C 168.855 266.600 168.900 266.555 168.900 266.500 V 260.500 C 168.900 260.445 168.855 260.400 168.800 260.400 H 165.900 C 165.800 260.400 165.900 260.500 165.900 260.400 V 254.600 C 165.900 254.500 165.800 254.600 165.900 254.600 H 168.800 C 168.855 254.600 168.900 254.555 168.900 254.500 V 248.500 C 168.900 248.445 168.855 248.400 168.800 248.400 H 165.900 C 165.800 248.400 165.900 248.500 165.900 248.400 V 242.600 C 165.900 242.500 165.800 242.600 165.900 242.600 H 168.800 C 168.855 242.600 168.900 242.555 168.900 242.500 V 236.500 C 168.900 236.445 168.855 236.400 168.800 236.400 H 165.900 C 165.800 236.400 165.900 236.500 165.900 236.400 V 230.600 C 165.900 230.500 165.800 230.600 165.900 230.600 H 168.800 C 168.855 230.600 168.900 230.555 168.900 230.500 V 224.500 C 168.900 224.445 168.855 224.400 168.800 224.400 H 165.900 C 165.800 224.400 165.900 224.500 165.900 224.400 V 213.500 C 165.900 213.445 165.855 213.400 165.800 213.400 H 121.933 C 121.565 213.400 121.203 213.497 120.883 213.681 C 120.564 213.866 120.299 214.131 120.115 214.450 C 119.930 214.769 119.833 215.131 119.833 215.500 V 233.400 C 119.833 233.500 119.933 233.400 119.833 233.400 H 116.833 C 116.733 233.400 116.833 233.500 116.833 233.400 V 215.500 C 116.833 215.131 116.736 214.769 116.552 214.450 C 116.368 214.131 116.103 213.866 115.783 213.681 C 115.464 213.497 115.102 213.400 114.733 213.400 H 72.867 C 72.498 213.400 72.136 213.497 71.817 213.681 C 71.497 213.866 71.232 214.131 71.048 214.450 C 70.864 214.769 70.767 215.131 70.767 215.500 V 233.400 C 70.767 233.500 70.867 233.400 70.767 233.400 H 67.767 C 67.667 233.400 67.767 233.500 67.767 233.400 V 215.500 C 67.767 215.131 67.670 214.769 67.485 214.450 C 67.301 214.131 67.036 213.866 66.717 213.681 C 66.397 213.497 66.035 213.400 65.667 213.400 H 21.800 C 21.745 213.400 21.700 213.445 21.700 213.500 V 224.400 C 21.700 224.500 21.800 224.400 21.700 224.400 H 18.800 C 18.745 224.400 18.700 224.445 18.700 224.500 V 230.500 C 18.700 230.555 18.745 230.600 18.800 230.600 H 21.700 C 21.800 230.600 21.700 230.500 21.700 230.600 V 236.400 C 21.700 236.500 21.800 236.400 21.700 236.400 H 18.800 C 18.745 236.400 18.700 236.445 18.700 236.500 V 242.500 C 18.700 242.555 18.745 242.600 18.800 242.600 H 21.700 C 21.800 242.600 21.700 242.500 21.700 242.600 V 248.400 C 21.700 248.500 21.800 248.400 21.700 248.400 H 18.800 C 18.745 248.400 18.700 248.445 18.700 248.500 V 254.500 C 18.700 254.555 18.745 254.600 18.800 254.600 H 21.700 C 21.800 254.600 21.700 254.500 21.700 254.600 V 260.400 C 21.700 260.500 21.800 260.400 21.700 260.400 H 18.800 C 18.745 260.400 18.700 260.445 18.700 260.500 V 266.500 C 18.700 266.555 18.745 266.600 18.800 266.600 H 21.700 C 21.800 266.600 21.700 266.500 21.700 266.600 V 272.400 C 21.700 272.500 21.800 272.400 21.700 272.400 H 18.800 C 18.745 272.400 18.700 272.445 18.700 272.500 V 278.500 C 18.700 278.555 18.745 278.600 18.800 278.600 H 21.700 C 21.800 278.600 21.700 278.500 21.700 278.600 V 284.400 C 21.700 284.500 21.800 284.400 21.700 284.400 H 18.800 C 18.745 284.400 18.700 284.445 18.700 284.500 V 290.500 C 18.700 290.555 18.745 290.600 18.800 290.600 H 21.700 C 21.800 290.600 21.700 290.500 21.700 290.600 V 296.400 C 21.700 296.500 21.800 296.400 21.700 296.400 H 18.800 C 18.745 296.400 18.700 296.445 18.700 296.500 V 302.500 C 18.700 302.555 18.745 302.600 18.800 302.600 H 21.700 C 21.800 302.600 21.700 302.500 21.700 302.600 V 313.500 C 21.700 313.555 21.745 313.600 21.800 313.600" stroke="rgb(0,0,0)" stroke-width="0.20" />
</g>
<g id="p-5" style="fill:none;stroke-linecap:round;stroke-linejoin:round;">
  <text dominant-baseline="hanging" font-size="4px" style="font-family: sans-serif ; font-weight: normal; font-style: normal; fill: rgb(255,0,0)" text-anchor="middle" transform="matrix( 1.000 0.000 0.000 1.000 93.800 159.900 )">Sidepiece 3</text><path d="M 21.800 211.900 H 165.800 C 165.855 211.900 165.900 211.855 165.900 211.800 V 200.900 C 165.900 200.800 165.800 200.900 165.900 200.900 H 168.800 C 168.855 200.900 168.900 200.855 168.900 200.800 V 194.800 C 168.900 194.745 168.855 194.700 168.800 194.700 H 165.900 C 165.800 194.700 165.900 194.800 165.900 194.700 V 188.900 C 165.900 188.800 165.800 188.900 165.900 188.900 H 168.800 C 168.855 188.900 168.900 188.855 168.900 188.800 V 182.800 C 168.900 182.745 168.855 182.700 168.800 182.700 H 165.900 C 165.800 182.700 165.900 182.800 165.900 182.700 V 176.900 C 165.900 176.800 165.800 176.900 165.900 176.900 H 168.800 C 168.855 176.900 168.900 176.855 168.900 176.800 V 170.800 C 168.900 170.745 168.855 170.700 168.800 170.700 H 165.900 C 165.800 170.700 165.900 170.800 165.900 170.700 V 164.900 C 165.900 164.800 165.800 164.900 165.900 164.900 H 168.800 C 168.855 164.900 168.900 164.855 168.900 164.800 V 158.800 C 168.900 158.745 168.855 158.700 168.800 158.700 H 165.900 C 165.800 158.700 165.900 158.800 165.900 158.700 V 152.900 C 165.900 152.800 165.800 152.900 165.900 152.900 H 168.800 C 168.855 152.900 168.900 152.855 168.900 152.800 V 146.800 C 168.900 146.745 168.855 146.700 168.800 146.700 H 165.900 C 165.800 146.700 165.900 146.800 165.900 146.700 V 140.900 C 165.900 140.800 165.800 140.900 165.900 140.900 H 168.800 C 168.855 140.900 168.900 140.855 168.900 140.800 V 134.800 C 168.900 134.745 168.855 134.700 168.800 134.700 H 165.900 C 165.800 134.700 165.900 134.800 165.900 134.700 V 128.900 C 165.900 128.800 165.800 128.900 165.900 128.900 H 168.800 C 168.855 128.900 168.900 128.855 168.900 128.800 V 122.800 C 168.900 122.745 168.855 122.700 168.800 122.700 H 165.900 C 165.800 122.700 165.900 122.800 165.900 122.700 V 111.800 C 165.900 111.745 165.855 111.700 165.800 111.700 H 121.933 C 121.565 111.700 121.203 111.797 120.883 111.981 C 120.564 112.166 120.299 112.431 120.115 112.750 C 119.930 113.069 119.833 113.431 119.833 113.800 V 131.700 C 119.833 131.800 119.933 131.700 119.833 131.700 H 116.833 C 116.733 131.700 116.833 131.800 116.833 131.700 V 113.800 C 116.833 113.431 116.736 113.069 116.552 112.750 C 116.368 112.431 116.103 112.166 115.783 111.981 C 115.464 111.797 115.102 111.700 114.733 111.700 H 72.867 C 72.498 111.700 72.136 111.797 71.817 111.981 C 71.497 112.166 71.232 112.431 71.048 112.750 C 70.864 113.069 70.767 113.431 70.767 113.800 V 131.700 C 70.767 131.800 70.867 131.700 70.767 131.700 H 67.767 C 67.667 131.700 67.767 131.800 67.767 131.700 V 113.800 C 67.767 113.431 67.670 113.069 67.485 112.750 C 67.301 112.431 67.036 112.166 66.717 111.981 C 66.397 111.797 66.035 111.700 65.667 111.700 H 21.800 C 21.745 111.700 21.700 111.745 21.700 111.800 V 122.700 C 21.700 122.800 21.800 122.700 21.700 122.700 H 18.800 C 18.745 122.700 18.700 122.745 18.700 122.800 V 128.800 C 18.700 128.855 18.745 128.900 18.800 128.900 H 21.700 C 21.800 128.900 21.700 128.800 21.700 128.900 V 134.700 C 21.700 134.800 21.800 134.700 21.700 134.700 H 18.800 C 18.745 134.700 18.700 134.745 18.700 134.800 V 140.800 C 18.700 140.855 18.745 140.900 18.800 140.900 H 21.700 C 21.800 140.900 21.700 140.800 21.700 140.900 V 146.700 C 21.700 146.800 21.800 146.700 21.700 146.700 H 18.800 C 18.745 146.700 18.700 146.745 18.700 146.800 V 152.800 C 18.700 152.855 18.745 152.900 18.800 152.900 H 21.700 C 21.800 152.900 21.700 152.800 21.700 152.900 V 158.700 C 21.700 158.800 21.800 158.700 21.700 158.700 H 18.800 C 18.745 158.700 18.700 158.745 18.700 158.800 V 164.800 C 18.700 164.855 18.745 164.900 18.800 164.900 H 21.700 C 21.800 164.900 21.700 164.800 21.700 164.900 V 170.700 C 21.700 170.800 21.800 170.700 21.700 170.700 H 18.800 C 18.745 170.700 18.700 170.745 18.700 170.800 V 176.800 C 18.700 176.855 18.745 176.900 18.800 176.900 H 21.700 C 21.800 176.900 21.700 176.800 21.700 176.900 V 182.700 C 21.700 182.800 21.800 182.700 21.700 182.700 H 18.800 C 18.745 182.700 18.700 182.745 18.700 182.800 V 188.800 C 18.700 188.855 18.745 188.900 18.800 188.900 H 21.700 C 21.800 188.900 21.700 188.800 21.700 188.900 V 194.700 C 21.700 194.800 21.800 194.700 21.700 194.700 H 18.800 C 18.745 194.700 18.700 194.745 18.700 194.800 V 200.800 C 18.700 200.855 18.745 200.900 18.800 200.900 H 21.700 C 21.800 200.900 21.700 200.800 21.700 200.900 V 211.800 C 21.700 211.855 21.745 211.900 21.800 211.900" stroke="rgb(0,0,0)" stroke-width="0.20" />
</g>
<g id="p-6" style="fill:none;stroke-linecap:round;stroke-linejoin:round;">
  <text dominant-baseline="hanging" font-size="4px" style="font-family: sans-serif ; font-weight: normal; font-style: normal; fill: rgb(255,0,0)" text-anchor="middle" transform="matrix( 1.000 0.000 0.000 1.000 93.800 58.200 )">Sidepiece 4</text><path d="M 21.800 110.200 H 165.800 C 165.855 110.200 165.900 110.155 165.900 110.100 V 99.200 C 165.900 99.100 165.800 99.200 165.900 99.200 H 168.800 C 168.855 99.200 168.900 99.155 168.900 99.100 V 93.100 C 168.900 93.045 168.855 93.000 168.800 93.000 H 165.900 C 165.800 93.000 165.900 93.100 165.900 93.000 V 87.200 C 165.900 87.100 165.800 87.200 165.900 87.200 H 168.800 C 168.855 87.200 168.900 87.155 168.900 87.100 V 81.100 C 168.900 81.045 168.855 81.000 168.800 81.000 H 165.900 C 165.800 81.000 165.900 81.100 165.900 81.000 V 75.200 C 165.900 75.100 165.800 75.200 165.900 75.200 H 168.800 C 168.855 75.200 168.900 75.155 168.900 75.100 V 69.100 C 168.900 69.045 168.855 69.000 168.800 69.000 H 165.900 C 165.800 69.000 165.900 69.100 165.900 69.000 V 63.200 C 165.900 63.100 165.800 63.200 165.900 63.200 H 168.800 C 168.855 63.200 168.900 63.155 168.900 63.100 V 57.100 C 168.900 57.045 168.855 57.000 168.800 57.000 H 165.900 C 165.800 57.000 165.900 57.100 165.900 57.000 V 51.200 C 165.900 51.100 165.800 51.200 165.900 51.200 H 168.800 C 168.855 51.200 168.900 51.155 168.900 51.100 V 45.100 C 168.900 45.045 168.855 45.000 168.800 45.000 H 165.900 C 165.800 45.000 165.900 45.100 165.900 45.000 V 39.200 C 165.900 39.100 165.800 39.200 165.900 39.200 H 168.800 C 168.855 39.200 168.900 39.155 168.900 39.100 V 33.100 C 168.900 33.045 168.855 33.000 168.800 33.000 H 165.900 C 165.800 33.000 165.900 33.100 165.900 33.000 V 27.200 C 165.900 27.100 165.800 27.200 165.900 27.200 H 168.800 C 168.855 27.200 168.900 27.155 168.900 27.100 V 21.100 C 168.900 21.045 168.855 21.000 168.800 21.000 H 165.900 C 165.800 21.000 165.900 21.100 165.900 21.000 V 10.100 C 165.900 10.045 165.855 10.000 165.800 10.000 H 121.933 C 121.565 10.000 121.203 10.097 120.883 10.281 C 120.564 10.466 120.299 10.731 120.115 11.050 C 119.930 11.369 119.833 11.731 119.833 12.100 V 30.000 C 119.833 30.100 119.933 30.000 119.833 30.000 H 116.833 C 116.733 30.000 116.833 30.100 116.833 30.000 V 12.100 C 116.833 11.731 116.736 11.369 116.552 11.050 C 116.368 10.731 116.103 10.466 115.783 10.281 C 115.464 10.097 115.102 10.000 114.733 10.000 H 72.867 C 72.498 10.000 72.136 10.097 71.817 10.281 C 71.497 10.466 71.232 10.731 71.048 11.050 C 70.864 11.369 70.767 11.731 70.767 12.100 V 30.000 C 70.767 30.100 70.867 30.000 70.767 30.000 H 67.767 C 67.667 30.000 67.767 30.100 67.767 30.000 V 12.100 C 67.767 11.731 67.670 11.369 67.485 11.050 C 67.301 10.731 67.036 10.466 66.717 10.281 C 66.397 10.097 66.035 10.000 65.667 10.000 H 21.800 C 21.745 10.000 21.700 10.045 21.700 10.100 V 21.000 C 21.700 21.100 21.800 21.000 21.700 21.000 H 18.800 C 18.745 21.000 18.700 21.045 18.700 21.100 V 27.100 C 18.700 27.155 18.745 27.200 18.800 27.200 H 21.700 C 21.800 27.200 21.700 27.100 21.700 27.200 V 33.000 C 21.700 33.100 21.800 33.000 21.700 33.000 H 18.800 C 18.745 33.000 18.700 33.045 18.700 33.100 V 39.100 C 18.700 39.155 18.745 39.200 18.800 39.200 H 21.700 C 21.800 39.200 21.700 39.100 21.700 39.200 V 45.000 C 21.700 45.100 21.800 45.000 21.700 45.000 H 18.800 C 18.745 45.000 18.700 45.045 18.700 45.100 V 51.100 C 18.700 51.155 18.745 51.200 18.800 51.200 H 21.700 C 21.800 51.200 21.700 51.100 21.700 51.200 V 57.000 C 21.700 57.100 21.800 57.000 21.700 57.000 H 18.800 C 18.745 57.000 18.700 57.045 18.700 57.100 V 63.100 C 18.700 63.155 18.745 63.200 18.800 63.200 H 21.700 C 21.800 63.200 21.700 63.100 21.700 63.200 V 69.000 C 21.700 69.100 21.800 69.000 21.700 69.000 H 18.800 C 18.745 69.000 18.700 69.045 18.700 69.100 V 75.100 C 18.700 75.155 18.745 75.200 18.800 75.200 H 21.700 C 21.800 75.200 21.700 75.100 21.700 75.200 V 81.000 C 21.700 81.100 21.800 81.000 21.700 81.000 H 18.800 C 18.745 81.000 18.700 81.045 18.700 81.100 V 87.100 C 18.700 87.155 18.745 87.200 18.800 87.200 H 21.700 C 21.800 87.200 21.700 87.100 21.700 87.200 V 93.000 C 21.700 93.100 21.800 93.000 21.700 93.000 H 18.800 C 18.745 93.000 18.700 93.045 18.700 93.100 V 99.100 C 18.700 99.155 18.745 99.200 18.800 99.200 H 21.700 C 21.800 99.200 21.700 99.100 21.700 99.200 V 110.100 C 21.700 110.155 21.745 110.200 21.800 110.200" stroke="rgb(0,0,0)" stroke-width="0.20" />
</g>
<g id="p-7" style="fill:none;stroke-linecap:round;stroke-linejoin:round;">
  <text dominant-baseline="hanging" font-size="4px" style="font-family: sans-serif ; font-weight: normal; font-style: normal; fill: rgb(255,0,0)" text-anchor="middle" transform="matrix( 1.000 0.000 0.000 1.000 245.500 566.700 )">Divider</text><path d="M 170.500 618.700 H 173.450 H 182.783 C 182.976 618.700 183.166 618.649 183.333 618.553 C 183.501 618.456 183.639 618.317 183.736 618.150 C 183.833 617.983 183.883 617.793 183.883 617.600 V 611.600 C 183.883 610.213 184.248 608.851 184.942 607.650 C 185.635 606.449 186.632 605.452 187.833 604.758 C 189.034 604.065 190.397 603.700 191.783 603.700 H 201.117 C 202.503 603.700 203.866 604.065 205.067 604.758 C 206.268 605.452 207.265 606.449 207.958 607.650 C 208.652 608.851 209.017 610.213 209.017 611.600 V 617.600 C 209.017 617.793 209.067 617.983 209.164 618.150 C 209.261 618.317 209.399 618.456 209.567 618.553 C 209.734 618.649 209.924 618.700 210.117 618.700 H 219.450 H 222.450 H 231.783 C 231.976 618.700 232.166 618.649 232.333 618.553 C 232.501 618.456 232.639 618.317 232.736 618.150 C 232.833 617.983 232.883 617.793 232.883 617.600 V 611.600 C 232.883 610.213 233.248 608.851 233.942 607.650 C 234.635 606.449 235.632 605.452 236.833 604.758 C 238.034 604.065 239.397 603.700 240.783 603.700 H 250.117 C 251.503 603.700 252.866 604.065 254.067 604.758 C 255.268 605.452 256.265 606.449 256.958 607.650 C 257.652 608.851 258.017 610.213 258.017 611.600 V 617.600 C 258.017 617.793 258.067 617.983 258.164 618.150 C 258.261 618.317 258.399 618.456 258.567 618.553 C 258.734 618.649 258.924 618.700 259.117 618.700 H 268.450 H 271.450 H 280.783 C 280.976 618.700 281.166 618.649 281.333 618.553 C 281.501 618.456 281.639 618.317 281.736 618.150 C 281.833 617.983 281.883 617.793 281.883 617.600 V 611.600 C 281.883 610.213 282.248 608.851 282.942 607.650 C 283.635 606.449 284.632 605.452 285.833 604.758 C 287.034 604.065 288.397 603.700 289.783 603.700 H 299.117 C 300.503 603.700 301.866 604.065 303.067 604.758 C 304.268 605.452 305.265 606.449 305.958 607.650 C 306.652 608.851 307.017 610.213 307.017 611.600 V 617.600 C 307.017 617.793 307.067 617.983 307.164 618.150 C 307.261 618.317 307.399 618.456 307.567 618.553 C 307.734 618.649 307.924 618.700 308.117 618.700 H 317.450 H 320.400 C 320.455 618.700 320.500 618.655 320.500 618.600 V 598.600 C 320.500 598.545 320.455 598.500 320.400 598.500 H 317.500 C 317.400 598.500 317.500 598.600 317.500 598.500 V 518.600 C 317.500 518.545 317.455 518.500 317.400 518.500 H 271.500 C 271.445 518.500 271.400 518.545 271.400 518.600 V 598.500 C 271.400 598.600 271.500 598.500 271.400 598.500 H 268.500 C 268.400 598.500 268.500 598.600 268.500 598.500 V 518.600 C 268.500 518.545 268.455 518.500 268.400 518.500 H 222.500 C 222.445 518.500 222.400 518.545 222.400 518.600 V 598.500 C 222.400 598.600 222.500 598.500 222.400 598.500 H 219.500 C 219.400 598.500 219.500 598.600 219.500 598.500 V 518.600 C 219.500 518.545 219.455 518.500 219.400 518.500 H 173.500 C 173.445 518.500 173.400 518.545 173.400 518.600 V 598.500 C 173.400 598.600 173.500 598.500 173.400 598.500 H 170.500 C 170.445 598.500 170.400 598.545 170.400 598.600 V 618.600 C 170.400 618.655 170.445 618.700 170.500 618.700" stroke="rgb(0,0,0)" stroke-width="0.20" />
</g>
<g id="p-8" style="fill:none;stroke-linecap:round;stroke-linejoin:round;">
  <text dominant-baseline="hanging" font-size="4px" style="font-family: sans-serif ; font-weight: normal; font-style: normal; fill: rgb(255,0,0)" text-anchor="middle" transform="matrix( 1.000 0.000 0.000 1.000 196.500 465.000 )">Divider</text><path d="M 170.500 517.000 H 173.450 H 182.783 C 182.976 517.000 183.166 516.949 183.333 516.853 C 183.501 516.756 183.639 516.617 183.736 516.450 C 183.833 516.283 183.883 516.093 183.883 515.900 V 509.900 C 183.883 508.513 184.248 507.151 184.942 505.950 C 185.635 504.749 186.632 503.752 187.833 503.058 C 189.034 502.365 190.397 502.000 191.783 502.000 H 201.117 C 202.503 502.000 203.866 502.365 205.067 503.058 C 206.268 503.752 207.265 504.749 207.958 505.950 C 208.652 507.151 209.017 508.513 209.017 509.900 V 515.900 C 209.017 516.093 209.067 516.283 209.164 516.450 C 209.261 516.617 209.399 516.756 209.567 516.853 C 209.734 516.949 209.924 517.000 210.117 517.000 H 219.450 H 222.400 C 222.455 517.000 222.500 516.955 222.500 516.900 V 496.900 C 222.500 496.845 222.455 496.800 222.400 496.800 H 219.500 C 219.400 496.800 219.500 496.900 219.500 496.800 V 416.900 C 219.500 416.845 219.455 416.800 219.400 416.800 H 173.500 C 173.445 416.800 173.400 416.845 173.400 416.900 V 496.800 C 173.400 496.900 173.500 496.800 173.400 496.800 H 170.500 C 170.445 496.800 170.400 496.845 170.400 496.900 V 516.900 C 170.400 516.955 170.445 517.000 170.500 517.000" stroke="rgb(0,0,0)" stroke-width="0.20" />
</g>
<g id="p-9" style="fill:none;stroke-linecap:round;stroke-linejoin:round;">
  <text dominant-baseline="hanging" font-size="4px" style="font-family: sans-serif ; font-weight: normal; font-style: normal; fill: rgb(255,0,0)" text-anchor="middle" transform="matrix( 1.000 0.000 0.000 1.000 250.200 465.000 )">Divider</text><path d="M 224.200 517.000 H 227.150 H 236.483 C 236.676 517.000 236.866 516.949 237.033 516.853 C 237.201 516.756 237.339 516.617 237.436 516.450 C 237.533 516.283 237.583 516.093 237.583 515.900 V 509.900 C 237.583 508.513 237.948 507.151 238.642 505.950 C 239.335 504.749 240.332 503.752 241.533 503.058 C 242.734 502.365 244.097 502.000 245.483 502.000 H 254.817 C 256.203 502.000 257.566 502.365 258.767 503.058 C 259.968 503.752 260.965 504.749 261.658 505.950 C 262.352 507.151 262.717 508.513 262.717 509.900 V 515.900 C 262.717 516.093 262.767 516.283 262.864 516.450 C 262.961 516.617 263.099 516.756 263.267 516.853 C 263.434 516.949 263.624 517.000 263.817 517.000 H 273.150 H 276.100 C 276.155 517.000 276.200 516.955 276.200 516.900 V 496.900 C 276.200 496.845 276.155 496.800 276.100 496.800 H 273.200 C 273.100 496.800 273.200 496.900 273.200 496.800 V 416.900 C 273.200 416.845 273.155 416.800 273.100 416.800 H 227.200 C 227.145 416.800 227.100 416.845 227.100 416.900 V 496.800 C 227.100 496.900 227.200 496.800 227.100 496.800 H 224.200 C 224.145 496.800 224.100 496.845 224.100 496.900 V 516.900 C 224.100 516.955 224.145 517.000 224.200 517.000" stroke="rgb(0,0,0)" stroke-width="0.20" />
</g>
<g id="p-10" style="fill:none;stroke-linecap:round;stroke-linejoin:round;">
  <text dominant-baseline="hanging" font-size="4px" style="font-family: sans-serif ; font-weight: normal; font-style: normal; fill: rgb(255,0,0)" text-anchor="middle" transform="matrix( 1.000 0.000 0.000 1.000 303.900 465.000 )">Divider</text><path d="M 277.900 517.000 H 280.850 H 290.183 C 290.376 517.000 290.566 516.949 290.733 516.853 C 290.901 516.756 291.039 516.617 291.136 516.450 C 291.233 516.283 291.283 516.093 291.283 515.900 V 509.900 C 291.283 508.513 291.648 507.151 292.342 505.950 C 293.035 504.749 294.032 503.752 295.233 503.058 C 296.434 502.365 297.797 502.000 299.183 502.000 H 308.517 C 309.903 502.000 311.266 502.365 312.467 503.058 C 313.668 503.752 314.665 504.749 315.358 505.950 C 316.052 507.151 316.417 508.513 316.417 509.900 V 515.900 C 316.417 516.093 316.467 516.283 316.564 516.450 C 316.661 516.617 316.799 516.756 316.967 516.853 C 317.134 516.949 317.324 517.000 317.517 517.000 H 326.850 H 329.800 C 329.855 517.000 329.900 516.955 329.900 516.900 V 496.900 C 329.900 496.845 329.855 496.800 329.800 496.800 H 326.900 C 326.800 496.800 326.900 496.900 326.900 496.800 V 416.900 C 326.900 416.845 326.855 416.800 326.800 416.800 H 280.900 C 280.845 416.800 280.800 416.845 280.800 416.900 V 496.800 C 280.800 496.900 280.900 496.800 280.800 496.800 H 277.900 C 277.845 496.800 277.800 496.845 277.800 496.900 V 516.900 C 277.800 516.955 277.845 517.000 277.900 517.000" stroke="rgb(0,0,0)" stroke-width="0.20" />
</g>
<g id="p-11" style="fill:none;stroke-linecap:round;stroke-linejoin:round;">
  <text dominant-baseline="hanging" font-size="4px" style="font-family: sans-serif ; font-weight: normal; font-style: normal; fill: rgb(255,0,0)" text-anchor="middle" transform="matrix( 1.000 0.000 0.000 1.000 195.000 363.300 )">Divider</text><path d="M 170.500 415.300 H 171.950 H 181.283 C 181.476 415.300 181.666 415.249 181.833 415.153 C 182.001 415.056 182.139 414.917 182.236 414.750 C 182.333 414.583 182.383 414.393 182.383 414.200 V 408.200 C 182.383 406.813 182.748 405.451 183.442 404.250 C 184.135 403.049 185.132 402.052 186.333 401.358 C 187.534 400.665 188.897 400.300 190.283 400.300 H 199.617 C 201.003 400.300 202.366 400.665 203.567 401.358 C 204.768 402.052 205.765 403.049 206.458 404.250 C 207.152 405.451 207.517 406.813 207.517 408.200 V 414.200 C 207.517 414.393 207.567 414.583 207.664 414.750 C 207.761 414.917 207.899 415.056 208.067 415.153 C 208.234 415.249 208.424 415.300 208.617 415.300 H 217.950 H 219.400 C 219.455 415.300 219.500 415.255 219.500 415.200 V 395.200 C 219.500 395.145 219.455 395.100 219.400 395.100 H 218.000 C 217.900 395.100 218.000 395.200 218.000 395.100 V 315.200 C 218.000 315.145 217.955 315.100 217.900 315.100 H 172.000 C 171.945 315.100 171.900 315.145 171.900 315.200 V 395.100 C 171.900 395.200 172.000 395.100 171.900 395.100 H 170.500 C 170.445 395.100 170.400 395.145 170.400 395.200 V 415.200 C 170.400 415.255 170.445 415.300 170.500 415.300" stroke="rgb(0,0,0)" stroke-width="0.20" />
</g>
<g id="p-12" style="fill:none;stroke-linecap:round;stroke-linejoin:round;">
  <text dominant-baseline="hanging" font-size="4px" style="font-family: sans-serif ; font-weight: normal; font-style: normal; fill: rgb(255,0,0)" text-anchor="middle" transform="matrix( 1.000 0.000 0.000 1.000 245.700 363.300 )">Divider</text><path d="M 221.200 415.300 H 222.650 H 231.983 C 232.176 415.300 232.366 415.249 232.533 415.153 C 232.701 415.056 232.839 414.917 232.936 414.750 C 233.033 414.583 233.083 414.393 233.083 414.200 V 408.200 C 233.083 406.813 233.448 405.451 234.142 404.250 C 234.835 403.049 235.832 402.052 237.033 401.358 C 238.234 400.665 239.597 400.300 240.983 400.300 H 250.317 C 251.703 400.300 253.066 400.665 254.267 401.358 C 255.468 402.052 256.465 403.049 257.158 404.250 C 257.852 405.451 258.217 406.813 258.217 408.200 V 414.200 C 258.217 414.393 258.267 414.583 258.364 414.750 C 258.461 414.917 258.599 415.056 258.767 415.153 C 258.934 415.249 259.124 415.300 259.317 415.300 H 268.650 H 270.100 C 270.155 415.300 270.200 415.255 270.200 415.200 V 395.200 C 270.200 395.145 270.155 395.100 270.100 395.100 H 268.700 C 268.600 395.100 268.700 395.200 268.700 395.100 V 315.200 C 268.700 315.145 268.655 315.100 268.600 315.100 H 222.700 C 222.645 315.100 222.600 315.145 222.600 315.200 V 395.100 C 222.600 395.200 222.700 395.100 222.600 395.100 H 221.200 C 221.145 395.100 221.100 395.145 221.100 395.200 V 415.200 C 221.100 415.255 221.145 415.300 221.200 415.300" stroke="rgb(0,0,0)" stroke-width="0.20" />
</g>
<g id="p-13" style="fill:none;stroke-linecap:round;stroke-linejoin:round;">
  <text dominant-baseline="hanging" font-size="4px" style="font-family: sans-serif ; font-weight: normal; font-style: normal; fill: rgb(255,0,0)" text-anchor="middle" transform="matrix( 1.000 0.000 0.000 1.000 296.400 363.300 )">Divider</text><path d="M 271.900 415.300 H 273.350 H 282.683 C 282.876 415.300 283.066 415.249 283.233 415.153 C 283.401 415.056 283.539 414.917 283.636 414.750 C 283.733 414.583 283.783 414.393 283.783 414.200 V 408.200 C 283.783 406.813 284.148 405.451 284.842 404.250 C 285.535 403.049 286.532 402.052 287.733 401.358 C 288.934 400.665 290.297 400.300 291.683 400.300 H 301.017 C 302.403 400.300 303.766 400.665 304.967 401.358 C 306.168 402.052 307.165 403.049 307.858 404.250 C 308.552 405.451 308.917 406.813 308.917 408.200 V 414.200 C 308.917 414.393 308.967 414.583 309.064 414.750 C 309.161 414.917 309.299 415.056 309.467 415.153 C 309.634 415.249 309.824 415.300 310.017 415.300 H 319.350 H 320.800 C 320.855 415.300 320.900 415.255 320.900 415.200 V 395.200 C 320.900 395.145 320.855 395.100 320.800 395.100 H 319.400 C 319.300 395.100 319.400 395.200 319.400 395.100 V 315.200 C 319.400 315.145 319.355 315.100 319.300 315.100 H 273.400 C 273.345 315.100 273.300 315.145 273.300 315.200 V 395.100 C 273.300 395.200 273.400 395.100 273.300 395.100 H 271.900 C 271.845 395.100 271.800 395.145 271.800 395.200 V 415.200 C 271.800 415.255 271.845 415.300 271.900 415.300" stroke="rgb(0,0,0)" stroke-width="0.20" />
</g>
<g id="p-14" style="fill:none;stroke-linecap:round;stroke-linejoin:round;">
  <text dominant-baseline="hanging" font-size="4px" style="font-family: sans-serif ; font-weight: normal; font-style: normal; fill: rgb(255,0,0)" text-anchor="middle" transform="matrix( 1.000 0.000 0.000 1.000 196.500 261.600 )">Divider</text><path d="M 173.450 313.600 H 182.783 C 182.976 313.600 183.166 313.549 183.333 313.453 C 183.501 313.356 183.639 313.217 183.736 313.050 C 183.833 312.883 183.883 312.693 183.883 312.500 V 306.500 C 183.883 305.113 184.248 303.751 184.942 302.550 C 185.635 301.349 186.632 300.352 187.833 299.658 C 189.034 298.965 190.397 298.600 191.783 298.600 H 201.117 C 202.503 298.600 203.866 298.965 205.067 299.658 C 206.268 300.352 207.265 301.349 207.958 302.550 C 208.652 303.751 209.017 305.113 209.017 306.500 V 312.500 C 209.017 312.693 209.067 312.883 209.164 313.050 C 209.261 313.217 209.399 313.356 209.567 313.453 C 209.734 313.549 209.924 313.600 210.117 313.600 H 219.450 H 222.400 C 222.455 313.600 222.500 313.555 222.500 313.500 V 303.550 C 222.500 303.495 222.455 303.450 222.400 303.450 H 219.500 C 219.400 303.450 219.500 303.550 219.500 303.450 V 213.500 C 219.500 213.445 219.455 213.400 219.400 213.400 H 173.500 C 173.445 213.400 173.400 213.445 173.400 213.500 V 293.400 C 173.400 293.500 173.500 293.400 173.400 293.400 H 170.500 C 170.445 293.400 170.400 293.445 170.400 293.500 V 303.500 C 170.400 303.555 170.445 303.600 170.500 303.600 H 173.350 C 173.450 303.600 173.350 303.500 173.350 303.600 V 313.500 C 173.350 313.555 173.395 313.600 173.450 313.600" stroke="rgb(0,0,0)" stroke-width="0.20" />
</g>
<g id="p-15" style="fill:none;stroke-linecap:round;stroke-linejoin:round;">
  <text dominant-baseline="hanging" font-size="4px" style="font-family: sans-serif ; font-weight: normal; font-style: normal; fill: rgb(255,0,0)" text-anchor="middle" transform="matrix( 1.000 0.000 0.000 1.000 247.200 259.900 )">Divider</text><path d="M 224.150 311.900 H 233.483 C 233.676 311.900 233.866 311.849 234.033 311.753 C 234.201 311.656 234.339 311.517 234.436 311.350 C 234.533 311.183 234.583 310.993 234.583 310.800 V 304.800 C 234.583 303.413 234.948 302.051 235.642 300.850 C 236.335 299.649 237.332 298.652 238.533 297.958 C 239.734 297.265 241.097 296.900 242.483 296.900 H 251.817 C 253.203 296.900 254.566 297.265 255.767 297.958 C 256.968 298.652 257.965 299.649 258.658 300.850 C 259.352 302.051 259.717 303.413 259.717 304.800 V 310.800 C 259.717 310.993 259.767 311.183 259.864 311.350 C 259.961 311.517 260.099 311.656 260.267 311.753 C 260.434 311.849 260.624 311.900 260.817 311.900 H 270.150 H 273.100 C 273.155 311.900 273.200 311.855 273.200 311.800 V 301.850 C 273.200 301.795 273.155 301.750 273.100 301.750 H 270.200 C 270.100 301.750 270.200 301.850 270.200 301.750 V 211.800 C 270.200 211.745 270.155 211.700 270.100 211.700 H 224.200 C 224.145 211.700 224.100 211.745 224.100 211.800 V 291.700 C 224.100 291.800 224.200 291.700 224.100 291.700 H 221.200 C 221.145 291.700 221.100 291.745 221.100 291.800 V 301.800 C 221.100 301.855 221.145 301.900 221.200 301.900 H 224.050 C 224.150 301.900 224.050 301.800 224.050 301.900 V 311.800 C 224.050 311.855 224.095 311.900 224.150 311.900" stroke="rgb(0,0,0)" stroke-width="0.20" />
</g>
<g id="p-16" style="fill:none;stroke-linecap:round;stroke-linejoin:round;">
  <text dominant-baseline="hanging" font-size="4px" style="font-family: sans-serif ; font-weight: normal; font-style: normal; fill: rgb(255,0,0)" text-anchor="middle" transform="matrix( 1.000 0.000 0.000 1.000 297.900 258.200 )">Divider</text><path d="M 274.850 310.200 H 284.183 C 284.376 310.200 284.566 310.149 284.733 310.053 C 284.901 309.956 285.039 309.817 285.136 309.650 C 285.233 309.483 285.283 309.293 285.283 309.100 V 303.100 C 285.283 301.713 285.648 300.351 286.342 299.150 C 287.035 297.949 288.032 296.952 289.233 296.258 C 290.434 295.565 291.797 295.200 293.183 295.200 H 302.517 C 303.903 295.200 305.266 295.565 306.467 296.258 C 307.668 296.952 308.665 297.949 309.358 299.150 C 310.052 300.351 310.417 301.713 310.417 303.100 V 309.100 C 310.417 309.293 310.467 309.483 310.564 309.650 C 310.661 309.817 310.799 309.956 310.967 310.053 C 311.134 310.149 311.324 310.200 311.517 310.200 H 320.850 H 323.800 C 323.855 310.200 323.900 310.155 323.900 310.100 V 300.150 C 323.900 300.095 323.855 300.050 323.800 300.050 H 320.900 C 320.800 300.050 320.900 300.150 320.900 300.050 V 210.100 C 320.900 210.045 320.855 210.000 320.800 210.000 H 274.900 C 274.845 210.000 274.800 210.045 274.800 210.100 V 290.000 C 274.800 290.100 274.900 290.000 274.800 290.000 H 271.900 C 271.845 290.000 271.800 290.045 271.800 290.100 V 300.100 C 271.800 300.155 271.845 300.200 271.900 300.200 H 274.750 C 274.850 300.200 274.750 300.100 274.750 300.200 V 310.100 C 274.750 310.155 274.795 310.200 274.850 310.200" stroke="rgb(0,0,0)" stroke-width="0.20" />
</g>
</svg>