<?xml version='1.0' encoding='utf-8'?>
<svg height="459.40mm" viewBox="0.0 0.0 534.40 459.40" width="534.40mm" xmlns="http://www.w3.org/2000/svg" xmlns:cc="http://creativecommons.org/ns#" xmlns:dc="http://purl.org/dc/elements/1.1/" xmlns:inkscape="http://www.inkscape.org/namespaces/inkscape" xmlns:rdf="http://www.w3.org/1999/02/22-rdf-syntax-ns#" xmlns:svg="http://www.w3.org/2000/svg" xmlns:xlink="http://www.w3.org/1999/xlink">
<!--
DrillStand - Box for drills with each compartment of a different height


Note: `sh` gives the height of the rows front to back. It though should have the same number of entries as `sy`. These heights are the one on the left side and increase throughout the row. To have each compartment a bit higher than the previous one the steps in `sh` should be a bit bigger than `extra_height`.

Assembly:

![Parts](static/samples/DrillStand-drawing.png)

Start with putting the slots of the inner walls together. Be especially careful with adding the bottom. It is always asymmetrical and flush with the right/lower side while being a little short on the left/higher side to not protrude into the side wall.

|      |      |
| - - - - | - - - - |
| ![Assembly inner walls](static/samples/DrillStand-assembly-1.jpg) | ![Assembly bottom](static/samples/DrillStand-assembly-2.jpg) |
| Then add the front and the back wall. | Add the very left and right walls last. |
| ![Assembly front and back](static/samples/DrillStand-assembly-3.jpg) | ![Assembly side walls](static/samples/DrillStand-assembly-4.jpg) |



Created with Boxes.py (https://boxes.hackerspace-bamberg.de/)
Command line (remove spaces between dashes): boxes DrillStand
-->
<title>DrillStand</title>
<metadata>
<rdf:RDF><cc:Work>
<dc:title>Misc - DrillStand</dc:title>
<dc:source>boxes DrillStand</dc:source>
<dc:description>Box for drills with each compartment of a different height

Note: `sh` gives the height of the rows front to back. It though should have the same number of entries as `sy`. These heights are the one on the left side and increase throughout the row. To have each compartment a bit higher than the previous one the steps in `sh` should be a bit bigger than `extra_height`.

Assembly:

![Parts](static/samples/DrillStand-drawing.png)

Start with putting the slots of the inner walls together. Be especially careful with adding the bottom. It is always asymmetrical and flush with the right/lower side while being a little short on the left/higher side to not protrude into the side wall.

|      |      |
| ---- | ---- |
| ![Assembly inner walls](static/samples/DrillStand-assembly-1.jpg) | ![Assembly bottom](static/samples/DrillStand-assembly-2.jpg) |
| Then add the front and the back wall. | Add the very left and right walls last. |
| ![Assembly front and back](static/samples/DrillStand-assembly-3.jpg) | ![Assembly side walls](static/samples/DrillStand-assembly-4.jpg) |


Created with Boxes.py (https://boxes.hackerspace-bamberg.de/)
Command line: boxes DrillStand
Command line short: boxes DrillStand
</dc:description>
</cc:Work></rdf:RDF></metadata>
<g id="p-0" style="fill:none;stroke-linecap:round;stroke-linejoin:round;">
  <path d="M 10.100 449.400 H 110.100 V 439.400 H 10.100 V 449.400 Z" stroke="rgb(0,0,0)" stroke-width="0.20" />
  <text dominant-baseline="hanging" font-size="6px" style="font-family: sans-serif ; font-weight: normal; font-style: normal; fill: rgb(255,0,0)" text-anchor="middle" transform="matrix( 1.000 0.000 0.000 1.000 60.100 441.400 )">100.0mm, burn:0.10mm</text>
</g>
<g id="p-1" style="fill:none;stroke-linecap:round;stroke-linejoin:round;">
  <path d="M 13.100 422.700 L 13.372 422.725 L 178.100 437.700 C 178.103 437.700 178.106 437.700 178.109 437.700 C 178.164 437.700 178.209 437.656 178.209 437.600 V 431.700 C 178.209 431.600 178.109 431.700 178.209 431.700 H 181.109 C 181.164 431.700 181.209 431.656 181.209 431.600 V 420.600 C 181.209 420.545 181.164 420.500 181.109 420.500 H 178.209 C 178.109 420.500 178.209 420.600 178.209 420.500 V 414.700 C 178.209 414.600 178.109 414.700 178.209 414.700 H 181.109 C 181.164 414.700 181.209 414.656 181.209 414.600 V 408.600 C 181.209 408.545 181.164 408.500 181.109 408.500 H 178.209 C 178.109 408.500 178.209 408.600 178.209 408.500 V 402.700 C 178.209 402.600 178.109 402.700 178.209 402.700 H 181.109 C 181.164 402.700 181.209 402.656 181.209 402.600 V 391.600 C 181.209 391.545 181.164 391.500 181.109 391.500 H 178.109 H 13.109 H 10.109 C 10.054 391.500 10.009 391.545 10.009 391.600 V 401.100 C 10.009 401.156 10.054 401.200 10.109 401.200 H 13.009 C 13.109 401.200 13.009 401.100 13.009 401.200 V 407.000 C 13.009 407.100 13.109 407.000 13.009 407.000 H 10.109 C 10.054 407.000 10.009 407.045 10.009 407.100 V 416.600 C 10.009 416.656 10.054 416.700 10.109 416.700 H 13.009 C 13.109 416.700 13.009 416.600 13.009 416.700 V 422.600 C 13.009 422.656 13.054 422.700 13.109 422.700" stroke="rgb(0,0,0)" stroke-width="0.20" />
  <path d="M 23.905 420.588 L 21.017 420.325 C 20.917 420.316 21.008 420.425 21.017 420.325 L 21.270 417.537 C 21.279 417.437 21.171 417.528 21.270 417.537 L 27.046 418.062 C 27.146 418.071 27.055 417.962 27.046 418.062 L 26.793 420.851 C 26.784 420.950 26.892 420.860 26.793 420.851 L 23.905 420.588 Z" stroke="rgb(0,0,255)" stroke-width="0.20" />
  <path d="M 35.855 421.674 L 32.967 421.412 C 32.868 421.403 32.958 421.511 32.967 421.412 L 33.221 418.623 C 33.230 418.524 33.121 418.614 33.221 418.623 L 38.997 419.149 C 39.097 419.158 39.006 419.049 38.997 419.149 L 38.744 421.937 C 38.734 422.037 38.843 421.946 38.744 421.937 L 35.855 421.674 Z" stroke="rgb(0,0,255)" stroke-width="0.20" />
  <path d="M 47.806 422.761 L 44.918 422.498 C 44.819 422.489 44.909 422.598 44.918 422.498 L 45.172 419.710 C 45.181 419.610 45.072 419.701 45.172 419.710 L 50.948 420.235 C 51.047 420.244 50.957 420.135 50.948 420.235 L 50.694 423.023 C 50.685 423.123 50.794 423.032 50.694 423.023 L 47.806 422.761 Z" stroke="rgb(0,0,255)" stroke-width="0.20" />
  <path d="M 59.757 423.847 L 56.869 423.585 C 56.769 423.576 56.860 423.684 56.869 423.585 L 57.122 420.796 C 57.131 420.697 57.023 420.787 57.122 420.796 L 62.898 421.321 C 62.998 421.330 62.908 421.222 62.898 421.321 L 62.645 424.110 C 62.636 424.209 62.745 424.119 62.645 424.110 L 59.757 423.847 Z" stroke="rgb(0,0,255)" stroke-width="0.20" />
  <path d="M 71.708 424.934 L 68.820 424.671 C 68.720 424.662 68.810 424.771 68.820 424.671 L 69.073 421.883 C 69.082 421.783 68.973 421.874 69.073 421.883 L 74.849 422.408 C 74.949 422.417 74.858 422.308 74.849 422.408 L 74.596 425.196 C 74.587 425.296 74.695 425.205 74.596 425.196 L 71.708 424.934 Z" stroke="rgb(0,0,255)" stroke-width="0.20" />
  <path d="M 83.658 426.020 L 80.770 425.758 C 80.671 425.749 80.761 425.857 80.770 425.758 L 81.024 422.969 C 81.033 422.870 80.924 422.960 81.024 422.969 L 86.800 423.494 C 86.900 423.503 86.809 423.395 86.800 423.494 L 86.546 426.283 C 86.537 426.382 86.646 426.292 86.546 426.283 L 83.658 426.020 Z" stroke="rgb(0,0,255)" stroke-width="0.20" />
  <path d="M 95.609 427.107 L 92.721 426.844 C 92.621 426.835 92.712 426.944 92.721 426.844 L 92.974 424.056 C 92.984 423.956 92.875 424.046 92.974 424.056 L 98.751 424.581 C 98.850 424.590 98.760 424.481 98.751 424.581 L 98.497 427.369 C 98.488 427.469 98.597 427.378 98.497 427.369 L 95.609 427.107 Z" stroke="rgb(0,0,255)" stroke-width="0.20" />
  <path d="M 107.560 428.193 L 104.672 427.930 C 104.572 427.921 104.663 428.030 104.672 427.930 L 104.925 425.142 C 104.934 425.042 104.826 425.133 104.925 425.142 L 110.701 425.667 C 110.801 425.676 110.710 425.567 110.701 425.667 L 110.448 428.456 C 110.439 428.555 110.547 428.465 110.448 428.456 L 107.560 428.193 Z" stroke="rgb(0,0,255)" stroke-width="0.20" />
  <path d="M 119.510 429.279 L 116.622 429.017 C 116.523 429.008 116.613 429.116 116.622 429.017 L 116.876 426.228 C 116.885 426.129 116.776 426.219 116.876 426.228 L 122.652 426.754 C 122.752 426.763 122.661 426.654 122.652 426.754 L 122.399 429.542 C 122.390 429.642 122.498 429.551 122.399 429.542 L 119.510 429.279 Z" stroke="rgb(0,0,255)" stroke-width="0.20" />
  <path d="M 131.461 430.366 L 128.573 430.103 C 128.474 430.094 128.564 430.203 128.573 430.103 L 128.827 427.315 C 128.836 427.215 128.727 427.306 128.827 427.315 L 134.603 427.840 C 134.702 427.849 134.612 427.740 134.603 427.840 L 134.349 430.628 C 134.340 430.728 134.449 430.637 134.349 430.628 L 131.461 430.366 Z" stroke="rgb(0,0,255)" stroke-width="0.20" />
  <path d="M 143.412 431.452 L 140.524 431.190 C 140.424 431.181 140.515 431.289 140.524 431.190 L 140.777 428.401 C 140.786 428.302 140.678 428.392 140.777 428.401 L 146.554 428.926 C 146.653 428.935 146.563 428.827 146.554 428.926 L 146.300 431.715 C 146.291 431.814 146.400 431.724 146.300 431.715 L 143.412 431.452 Z" stroke="rgb(0,0,255)" stroke-width="0.20" />
  <path d="M 155.363 432.539 L 152.475 432.276 C 152.375 432.267 152.466 432.376 152.475 432.276 L 152.728 429.488 C 152.737 429.388 152.628 429.479 152.728 429.488 L 158.504 430.013 C 158.604 430.022 158.513 429.913 158.504 430.013 L 158.251 432.801 C 158.242 432.901 158.350 432.810 158.251 432.801 L 155.363 432.539 Z" stroke="rgb(0,0,255)" stroke-width="0.20" />
  <path d="M 167.313 433.625 L 164.425 433.363 C 164.326 433.354 164.416 433.462 164.425 433.363 L 164.679 430.574 C 164.688 430.475 164.579 430.565 164.679 430.574 L 170.455 431.099 C 170.555 431.108 170.464 431.000 170.455 431.099 L 170.201 433.888 C 170.192 433.987 170.301 433.897 170.201 433.888 L 167.313 433.625 Z" stroke="rgb(0,0,255)" stroke-width="0.20" />
  <path d="M 38.209 405.237 V 402.337 C 38.209 402.237 38.109 402.337 38.209 402.337 H 41.009 C 41.109 402.337 41.009 402.237 41.009 402.337 V 408.137 C 41.009 408.237 41.109 408.137 41.009 408.137 H 38.209 C 38.109 408.137 38.209 408.237 38.209 408.137 V 405.237 Z" stroke="rgb(0,0,255)" stroke-width="0.20" />
  <path d="M 66.209 406.510 V 403.610 C 66.209 403.510 66.109 403.610 66.209 403.610 H 69.009 C 69.109 403.610 69.009 403.510 69.009 403.610 V 409.410 C 69.009 409.510 69.109 409.410 69.009 409.410 H 66.209 C 66.109 409.410 66.209 409.510 66.209 409.410 V 406.510 Z" stroke="rgb(0,0,255)" stroke-width="0.20" />
  <path d="M 94.209 401.782 V 398.882 C 94.209 398.782 94.109 398.882 94.209 398.882 H 97.009 C 97.109 398.882 97.009 398.782 97.009 398.882 V 404.682 C 97.009 404.782 97.109 404.682 97.009 404.682 H 94.209 C 94.109 404.682 94.209 404.782 94.209 404.682 V 401.782 Z" stroke="rgb(0,0,255)" stroke-width="0.20" />
  <path d="M 94.209 413.782 V 410.882 C 94.209 410.782 94.109 410.882 94.209 410.882 H 97.009 C 97.109 410.882 97.009 410.782 97.009 410.882 V 416.682 C 97.009 416.782 97.109 416.682 97.009 416.682 H 94.209 C 94.109 416.682 94.209 416.782 94.209 416.682 V 413.782 Z" stroke="rgb(0,0,255)" stroke-width="0.20" />
  <path d="M 122.209 403.055 V 400.155 C 122.209 400.055 122.109 400.155 122.209 400.155 H 125.009 C 125.109 400.155 125.009 400.055 125.009 400.155 V 405.955 C 125.009 406.055 125.109 405.955 125.009 405.955 H 122.209 C 122.109 405.955 122.209 406.055 122.209 405.955 V 403.055 Z" stroke="rgb(0,0,255)" stroke-width="0.20" />
  <path d="M 122.209 415.055 V 412.155 C 122.209 412.055 122.109 412.155 122.209 412.155 H 125.009 C 125.109 412.155 125.009 412.055 125.009 412.155 V 417.955 C 125.009 418.055 125.109 417.955 125.009 417.955 H 122.209 C 122.109 417.955 122.209 418.055 122.209 417.955 V 415.055 Z" stroke="rgb(0,0,255)" stroke-width="0.20" />
  <path d="M 150.209 404.328 V 401.428 C 150.209 401.328 150.109 401.428 150.209 401.428 H 153.009 C 153.109 401.428 153.009 401.328 153.009 401.428 V 407.228 C 153.009 407.328 153.109 407.228 153.009 407.228 H 150.209 C 150.109 407.228 150.209 407.328 150.209 407.228 V 404.328 Z" stroke="rgb(0,0,255)" stroke-width="0.20" />
  <path d="M 150.209 416.328 V 413.428 C 150.209 413.328 150.109 413.428 150.209 413.428 H 153.009 C 153.109 413.428 153.009 413.328 153.009 413.428 V 419.228 C 153.009 419.328 153.109 419.228 153.009 419.228 H 150.209 C 150.109 419.228 150.209 419.328 150.209 419.228 V 416.328 Z" stroke="rgb(0,0,255)" stroke-width="0.20" />
</g>
<g id="p-2" style="fill:none;stroke-linecap:round;stroke-linejoin:round;">
  <path d="M 13.100 372.000 L 22.513 372.856 C 22.612 372.865 22.522 372.756 22.513 372.856 L 22.250 375.744 C 22.245 375.799 22.286 375.847 22.341 375.852 L 28.316 376.396 C 28.371 376.401 28.420 376.360 28.425 376.305 L 28.687 373.417 C 28.696 373.317 28.588 373.408 28.687 373.417 L 38.100 374.273 C 38.159 374.278 38.209 374.232 38.209 374.173 V 358.850 C 38.209 358.750 38.109 358.850 38.209 358.850 H 41.009 C 41.109 358.850 41.009 358.750 41.009 358.850 V 374.446 C 41.009 374.498 41.048 374.541 41.100 374.545 L 50.513 375.401 C 50.612 375.410 50.522 375.302 50.513 375.401 L 50.250 378.289 C 50.245 378.344 50.286 378.393 50.341 378.398 L 56.316 378.941 C 56.371 378.946 56.420 378.906 56.425 378.851 L 56.687 375.962 C 56.696 375.863 56.588 375.953 56.687 375.962 L 66.100 376.818 C 66.159 376.824 66.209 376.777 66.209 376.719 V 358.850 C 66.209 358.750 66.109 358.850 66.209 358.850 H 69.009 C 69.109 358.850 69.009 358.750 69.009 358.850 V 376.991 C 69.009 377.043 69.048 377.086 69.100 377.091 L 78.513 377.947 C 78.612 377.956 78.522 377.847 78.513 377.947 L 78.250 380.835 C 78.245 380.890 78.286 380.938 78.341 380.943 L 84.316 381.487 C 84.371 381.492 84.420 381.451 84.425 381.396 L 84.687 378.508 C 84.696 378.408 84.588 378.499 84.687 378.508 L 94.100 379.364 C 94.159 379.369 94.209 379.323 94.209 379.264 V 358.850 C 94.209 358.750 94.109 358.850 94.209 358.850 H 97.009 C 97.109 358.850 97.009 358.750 97.009 358.850 V 379.537 C 97.009 379.588 97.048 379.632 97.100 379.636 L 106.513 380.492 C 106.612 380.501 106.522 380.392 106.513 380.492 L 106.250 383.380 C 106.245 383.435 106.286 383.484 106.341 383.489 L 112.316 384.032 C 112.371 384.037 112.420 383.996 112.425 383.941 L 112.687 381.053 C 112.696 380.954 112.588 381.044 112.687 381.053 L 122.100 381.909 C 122.159 381.914 122.209 381.868 122.209 381.810 V 358.850 C 122.209 358.750 122.109 358.850 122.209 358.850 H 125.009 C 125.109 358.850 125.009 358.750 125.009 358.850 V 382.082 C 125.009 382.134 125.048 382.177 125.100 382.182 L 134.513 383.038 C 134.612 383.047 134.522 382.938 134.513 383.038 L 134.250 385.926 C 134.245 385.981 134.286 386.029 134.341 386.034 L 140.316 386.577 C 140.371 386.582 140.420 386.542 140.425 386.487 L 140.687 383.599 C 140.696 383.499 140.588 383.590 140.687 383.599 L 150.100 384.455 C 150.159 384.460 150.209 384.414 150.209 384.355 V 358.850 C 150.209 358.750 150.109 358.850 150.209 358.850 H 153.009 C 153.109 358.850 153.009 358.750 153.009 358.850 V 384.628 C 153.009 384.679 153.048 384.723 153.100 384.727 L 162.513 385.583 C 162.612 385.592 162.522 385.483 162.513 385.583 L 162.250 388.471 C 162.245 388.526 162.286 388.575 162.341 388.580 L 168.316 389.123 C 168.371 389.128 168.420 389.087 168.425 389.032 L 168.687 386.144 C 168.696 386.045 168.588 386.135 168.687 386.144 L 178.100 387.000 C 178.159 387.005 178.209 386.959 178.209 386.900 V 380.500 C 178.209 380.400 178.109 380.500 178.209 380.500 H 181.109 C 181.164 380.500 181.209 380.456 181.209 380.400 V 374.400 C 181.209 374.345 181.164 374.300 181.109 374.300 H 178.209 C 178.109 374.300 178.209 374.400 178.209 374.300 V 368.500 C 178.209 368.400 178.109 368.500 178.209 368.500 H 181.109 C 181.164 368.500 181.209 368.456 181.209 368.400 V 362.400 C 181.209 362.345 181.164 362.300 181.109 362.300 H 178.209 C 178.109 362.300 178.209 362.400 178.209 362.300 V 356.500 C 178.209 356.400 178.109 356.500 178.209 356.500 H 181.109 C 181.164 356.500 181.209 356.456 181.209 356.400 V 350.400 C 181.209 350.345 181.164 350.300 181.109 350.300 H 178.209 C 178.109 350.300 178.209 350.400 178.209 350.300 V 344.500 C 178.209 344.400 178.109 344.500 178.209 344.500 H 181.109 C 181.164 344.500 181.209 344.456 181.209 344.400 V 338.400 C 181.209 338.345 181.164 338.300 181.109 338.300 H 178.209 C 178.109 338.300 178.209 338.400 178.209 338.300 V 331.900 C 178.209 331.845 178.164 331.800 178.109 331.800 H 13.109 C 13.054 331.800 13.009 331.845 13.009 331.900 V 342.800 C 13.009 342.900 13.109 342.800 13.009 342.800 H 10.109 C 10.054 342.800 10.009 342.845 10.009 342.900 V 348.900 C 10.009 348.956 10.054 349.000 10.109 349.000 H 13.009 C 13.109 349.000 13.009 348.900 13.009 349.000 V 354.800 C 13.009 354.900 13.109 354.800 13.009 354.800 H 10.109 C 10.054 354.800 10.009 354.845 10.009 354.900 V 360.900 C 10.009 360.956 10.054 361.000 10.109 361.000 H 13.009 C 13.109 361.000 13.009 360.900 13.009 361.000 V 371.900 C 13.009 371.959 13.060 372.005 13.118 372.000" stroke="rgb(0,0,0)" stroke-width="0.20" />
</g>
<g id="p-3" style="fill:none;stroke-linecap:round;stroke-linejoin:round;">
  <path d="M 13.100 312.300 L 22.513 313.156 C 22.612 313.165 22.522 313.056 22.513 313.156 L 22.250 316.044 C 22.245 316.099 22.286 316.147 22.341 316.152 L 28.316 316.696 C 28.371 316.701 28.420 316.660 28.425 316.605 L 28.687 313.717 C 28.696 313.617 28.588 313.708 28.687 313.717 L 38.100 314.573 C 38.159 314.578 38.209 314.532 38.209 314.473 V 284.150 C 38.209 284.050 38.109 284.150 38.209 284.150 H 41.009 C 41.109 284.150 41.009 284.050 41.009 284.150 V 314.746 C 41.009 314.798 41.048 314.841 41.100 314.845 L 50.513 315.701 C 50.612 315.710 50.522 315.602 50.513 315.701 L 50.250 318.589 C 50.245 318.644 50.286 318.693 50.341 318.698 L 56.316 319.241 C 56.371 319.246 56.420 319.206 56.425 319.151 L 56.687 316.262 C 56.696 316.163 56.588 316.253 56.687 316.262 L 66.100 317.118 C 66.159 317.124 66.209 317.077 66.209 317.019 V 284.150 C 66.209 284.050 66.109 284.150 66.209 284.150 H 69.009 C 69.109 284.150 69.009 284.050 69.009 284.150 V 317.291 C 69.009 317.343 69.048 317.386 69.100 317.391 L 78.513 318.247 C 78.612 318.256 78.522 318.147 78.513 318.247 L 78.250 321.135 C 78.245 321.190 78.286 321.238 78.341 321.243 L 84.316 321.787 C 84.371 321.792 84.420 321.751 84.425 321.696 L 84.687 318.808 C 84.696 318.708 84.588 318.799 84.687 318.808 L 94.100 319.664 C 94.159 319.669 94.209 319.623 94.209 319.564 V 284.150 C 94.209 284.050 94.109 284.150 94.209 284.150 H 97.009 C 97.109 284.150 97.009 284.050 97.009 284.150 V 319.837 C 97.009 319.888 97.048 319.932 97.100 319.936 L 106.513 320.792 C 106.612 320.801 106.522 320.692 106.513 320.792 L 106.250 323.680 C 106.245 323.735 106.286 323.784 106.341 323.789 L 112.316 324.332 C 112.371 324.337 112.420 324.296 112.425 324.241 L 112.687 321.353 C 112.696 321.254 112.588 321.344 112.687 321.353 L 122.100 322.209 C 122.159 322.214 122.209 322.168 122.209 322.110 V 284.150 C 122.209 284.050 122.109 284.150 122.209 284.150 H 125.009 C 125.109 284.150 125.009 284.050 125.009 284.150 V 322.382 C 125.009 322.434 125.048 322.477 125.100 322.482 L 134.513 323.338 C 134.612 323.347 134.522 323.238 134.513 323.338 L 134.250 326.226 C 134.245 326.281 134.286 326.329 134.341 326.334 L 140.316 326.877 C 140.371 326.882 140.420 326.842 140.425 326.787 L 140.687 323.899 C 140.696 323.799 140.588 323.890 140.687 323.899 L 150.100 324.755 C 150.159 324.760 150.209 324.714 150.209 324.655 V 284.150 C 150.209 284.050 150.109 284.150 150.209 284.150 H 153.009 C 153.109 284.150 153.009 284.050 153.009 284.150 V 324.928 C 153.009 324.979 153.048 325.023 153.100 325.027 L 162.513 325.883 C 162.612 325.892 162.522 325.783 162.513 325.883 L 162.250 328.771 C 162.245 328.826 162.286 328.875 162.341 328.880 L 168.316 329.423 C 168.371 329.428 168.420 329.387 168.425 329.332 L 168.687 326.444 C 168.696 326.345 168.588 326.435 168.687 326.444 L 178.100 327.300 C 178.159 327.305 178.209 327.259 178.209 327.200 V 316.800 C 178.209 316.700 178.109 316.800 178.209 316.800 H 181.109 C 181.164 316.800 181.209 316.756 181.209 316.700 V 310.700 C 181.209 310.645 181.164 310.600 181.109 310.600 H 178.209 C 178.109 310.600 178.209 310.700 178.209 310.600 V 304.800 C 178.209 304.700 178.109 304.800 178.209 304.800 H 181.109 C 181.164 304.800 181.209 304.756 181.209 304.700 V 298.700 C 181.209 298.645 181.164 298.600 181.109 298.600 H 178.209 C 178.109 298.600 178.209 298.700 178.209 298.600 V 292.800 C 178.209 292.700 178.109 292.800 178.209 292.800 H 181.109 C 181.164 292.800 181.209 292.756 181.209 292.700 V 286.700 C 181.209 286.645 181.164 286.600 181.109 286.600 H 178.209 C 178.109 286.600 178.209 286.700 178.209 286.600 V 280.800 C 178.209 280.700 178.109 280.800 178.209 280.800 H 181.109 C 181.164 280.800 181.209 280.756 181.209 280.700 V 274.700 C 181.209 274.645 181.164 274.600 181.109 274.600 H 178.209 C 178.109 274.600 178.209 274.700 178.209 274.600 V 268.800 C 178.209 268.700 178.109 268.800 178.209 268.800 H 181.109 C 181.164 268.800 181.209 268.756 181.209 268.700 V 262.700 C 181.209 262.645 181.164 262.600 181.109 262.600 H 178.209 C 178.109 262.600 178.209 262.700 178.209 262.600 V 252.200 C 178.209 252.145 178.164 252.100 178.109 252.100 H 13.109 C 13.054 252.100 13.009 252.145 13.009 252.200 V 261.100 C 13.009 261.200 13.109 261.100 13.009 261.100 H 10.109 C 10.054 261.100 10.009 261.145 10.009 261.200 V 267.200 C 10.009 267.256 10.054 267.300 10.109 267.300 H 13.009 C 13.109 267.300 13.009 267.200 13.009 267.300 V 273.100 C 13.009 273.200 13.109 273.100 13.009 273.100 H 10.109 C 10.054 273.100 10.009 273.145 10.009 273.200 V 279.200 C 10.009 279.256 10.054 279.300 10.109 279.300 H 13.009 C 13.109 279.300 13.009 279.200 13.009 279.300 V 285.100 C 13.009 285.200 13.109 285.100 13.009 285.100 H 10.109 C 10.054 285.100 10.009 285.145 10.009 285.200 V 291.200 C 10.009 291.256 10.054 291.300 10.109 291.300 H 13.009 C 13.109 291.300 13.009 291.200 13.009 291.300 V 297.100 C 13.009 297.200 13.109 297.100 13.009 297.100 H 10.109 C 10.054 297.100 10.009 297.145 10.009 297.200 V 303.200 C 10.009 303.256 10.054 303.300 10.109 303.300 H 13.009 C 13.109 303.300 13.009 303.200 13.009 303.300 V 312.200 C 13.009 312.259 13.060 312.305 13.118 312.300" stroke="rgb(0,0,0)" stroke-width="0.20" />
</g>
<g id="p-4" style="fill:none;stroke-linecap:round;stroke-linejoin:round;">
  <path d="M 13.100 235.600 L 13.372 235.625 L 178.100 250.600 C 178.103 250.600 178.106 250.600 178.109 250.600 C 178.164 250.600 178.209 250.556 178.209 250.500 V 244.500 C 178.209 244.556 178.164 244.600 178.109 244.600 C 178.164 244.600 178.209 244.556 178.209 244.500 V 234.100 C 178.209 234.000 178.109 234.100 178.209 234.100 H 181.109 C 181.164 234.100 181.209 234.056 181.209 234.000 V 228.000 C 181.209 227.945 181.164 227.900 181.109 227.900 H 178.209 C 178.109 227.900 178.209 228.000 178.209 227.900 V 222.100 C 178.209 222.000 178.109 222.100 178.209 222.100 H 181.109 C 181.164 222.100 181.209 222.056 181.209 222.000 V 216.000 C 181.209 215.945 181.164 215.900 181.109 215.900 H 178.209 C 178.109 215.900 178.209 216.000 178.209 215.900 V 210.100 C 178.209 210.000 178.109 210.100 178.209 210.100 H 181.109 C 181.164 210.100 181.209 210.056 181.209 210.000 V 204.000 C 181.209 203.945 181.164 203.900 181.109 203.900 H 178.209 C 178.109 203.900 178.209 204.000 178.209 203.900 V 198.100 C 178.209 198.000 178.109 198.100 178.209 198.100 H 181.109 C 181.164 198.100 181.209 198.056 181.209 198.000 V 192.000 C 181.209 191.945 181.164 191.900 181.109 191.900 H 178.209 C 178.109 191.900 178.209 192.000 178.209 191.900 V 186.100 C 178.209 186.000 178.109 186.100 178.209 186.100 H 181.109 C 181.164 186.100 181.209 186.056 181.209 186.000 V 180.000 C 181.209 179.945 181.164 179.900 181.109 179.900 H 178.209 C 178.109 179.900 178.209 180.000 178.209 179.900 V 169.500 C 178.209 169.445 178.164 169.400 178.109 169.400 H 13.109 C 13.054 169.400 13.009 169.445 13.009 169.500 V 178.400 C 13.009 178.500 13.109 178.400 13.009 178.400 H 10.109 C 10.054 178.400 10.009 178.445 10.009 178.500 V 184.500 C 10.009 184.556 10.054 184.600 10.109 184.600 H 13.009 C 13.109 184.600 13.009 184.500 13.009 184.600 V 190.400 C 13.009 190.500 13.109 190.400 13.009 190.400 H 10.109 C 10.054 190.400 10.009 190.445 10.009 190.500 V 196.500 C 10.009 196.556 10.054 196.600 10.109 196.600 H 13.009 C 13.109 196.600 13.009 196.500 13.009 196.600 V 202.400 C 13.009 202.500 13.109 202.400 13.009 202.400 H 10.109 C 10.054 202.400 10.009 202.445 10.009 202.500 V 208.500 C 10.009 208.556 10.054 208.600 10.109 208.600 H 13.009 C 13.109 208.600 13.009 208.500 13.009 208.600 V 214.400 C 13.009 214.500 13.109 214.400 13.009 214.400 H 10.109 C 10.054 214.400 10.009 214.445 10.009 214.500 V 220.500 C 10.009 220.556 10.054 220.600 10.109 220.600 H 13.009 C 13.109 220.600 13.009 220.500 13.009 220.600 V 229.500 C 13.009 229.556 13.054 229.600 13.109 229.600 C 13.054 229.600 13.009 229.556 13.009 229.500 V 235.500 C 13.009 235.556 13.054 235.600 13.109 235.600" stroke="rgb(0,0,0)" stroke-width="0.20" />
  <path d="M 23.905 233.488 L 21.017 233.225 C 20.917 233.216 21.008 233.325 21.017 233.225 L 21.270 230.437 C 21.279 230.337 21.171 230.428 21.270 230.437 L 27.046 230.962 C 27.146 230.971 27.055 230.862 27.046 230.962 L 26.793 233.751 C 26.784 233.850 26.892 233.760 26.793 233.751 L 23.905 233.488 Z" stroke="rgb(0,0,255)" stroke-width="0.20" />
  <path d="M 35.855 234.574 L 32.967 234.312 C 32.868 234.303 32.958 234.411 32.967 234.312 L 33.221 231.523 C 33.230 231.424 33.121 231.514 33.221 231.523 L 38.997 232.049 C 39.097 232.058 39.006 231.949 38.997 232.049 L 38.744 234.837 C 38.734 234.937 38.843 234.846 38.744 234.837 L 35.855 234.574 Z" stroke="rgb(0,0,255)" stroke-width="0.20" />
  <path d="M 47.806 235.661 L 44.918 235.398 C 44.819 235.389 44.909 235.498 44.918 235.398 L 45.172 232.610 C 45.181 232.510 45.072 232.601 45.172 232.610 L 50.948 233.135 C 51.047 233.144 50.957 233.035 50.948 233.135 L 50.694 235.923 C 50.685 236.023 50.794 235.932 50.694 235.923 L 47.806 235.661 Z" stroke="rgb(0,0,255)" stroke-width="0.20" />
  <path d="M 59.757 236.747 L 56.869 236.485 C 56.769 236.476 56.860 236.584 56.869 236.485 L 57.122 233.696 C 57.131 233.597 57.023 233.687 57.122 233.696 L 62.898 234.221 C 62.998 234.230 62.908 234.122 62.898 234.221 L 62.645 237.010 C 62.636 237.109 62.745 237.019 62.645 237.010 L 59.757 236.747 Z" stroke="rgb(0,0,255)" stroke-width="0.20" />
  <path d="M 71.708 237.834 L 68.820 237.571 C 68.720 237.562 68.810 237.671 68.820 237.571 L 69.073 234.783 C 69.082 234.683 68.973 234.774 69.073 234.783 L 74.849 235.308 C 74.949 235.317 74.858 235.208 74.849 235.308 L 74.596 238.096 C 74.587 238.196 74.695 238.105 74.596 238.096 L 71.708 237.834 Z" stroke="rgb(0,0,255)" stroke-width="0.20" />
  <path d="M 83.658 238.920 L 80.770 238.658 C 80.671 238.649 80.761 238.757 80.770 238.658 L 81.024 235.869 C 81.033 235.770 80.924 235.860 81.024 235.869 L 86.800 236.394 C 86.900 236.403 86.809 236.295 86.800 236.394 L 86.546 239.183 C 86.537 239.282 86.646 239.192 86.546 239.183 L 83.658 238.920 Z" stroke="rgb(0,0,255)" stroke-width="0.20" />
  <path d="M 95.609 240.007 L 92.721 239.744 C 92.621 239.735 92.712 239.844 92.721 239.744 L 92.974 236.956 C 92.984 236.856 92.875 236.946 92.974 236.956 L 98.751 237.481 C 98.850 237.490 98.760 237.381 98.751 237.481 L 98.497 240.269 C 98.488 240.369 98.597 240.278 98.497 240.269 L 95.609 240.007 Z" stroke="rgb(0,0,255)" stroke-width="0.20" />
  <path d="M 107.560 241.093 L 104.672 240.830 C 104.572 240.821 104.663 240.930 104.672 240.830 L 104.925 238.042 C 104.934 237.942 104.826 238.033 104.925 238.042 L 110.701 238.567 C 110.801 238.576 110.710 238.467 110.701 238.567 L 110.448 241.356 C 110.439 241.455 110.547 241.365 110.448 241.356 L 107.560 241.093 Z" stroke="rgb(0,0,255)" stroke-width="0.20" />
  <path d="M 119.510 242.179 L 116.622 241.917 C 116.523 241.908 116.613 242.016 116.622 241.917 L 116.876 239.128 C 116.885 239.029 116.776 239.119 116.876 239.128 L 122.652 239.654 C 122.752 239.663 122.661 239.554 122.652 239.654 L 122.399 242.442 C 122.390 242.542 122.498 242.451 122.399 242.442 L 119.510 242.179 Z" stroke="rgb(0,0,255)" stroke-width="0.20" />
  <path d="M 131.461 243.266 L 128.573 243.003 C 128.474 242.994 128.564 243.103 128.573 243.003 L 128.827 240.215 C 128.836 240.115 128.727 240.206 128.827 240.215 L 134.603 240.740 C 134.702 240.749 134.612 240.640 134.603 240.740 L 134.349 243.528 C 134.340 243.628 134.449 243.537 134.349 243.528 L 131.461 243.266 Z" stroke="rgb(0,0,255)" stroke-width="0.20" />
  <path d="M 143.412 244.352 L 140.524 244.090 C 140.424 244.081 140.515 244.189 140.524 244.090 L 140.777 241.301 C 140.786 241.202 140.678 241.292 140.777 241.301 L 146.554 241.826 C 146.653 241.835 146.563 241.727 146.554 241.826 L 146.300 244.615 C 146.291 244.714 146.400 244.624 146.300 244.615 L 143.412 244.352 Z" stroke="rgb(0,0,255)" stroke-width="0.20" />
  <path d="M 155.363 245.439 L 152.475 245.176 C 152.375 245.167 152.466 245.276 152.475 245.176 L 152.728 242.388 C 152.737 242.288 152.628 242.379 152.728 242.388 L 158.504 242.913 C 158.604 242.922 158.513 242.813 158.504 242.913 L 158.251 245.701 C 158.242 245.801 158.350 245.710 158.251 245.701 L 155.363 245.439 Z" stroke="rgb(0,0,255)" stroke-width="0.20" />
  <path d="M 167.313 246.525 L 164.425 246.263 C 164.326 246.254 164.416 246.362 164.425 246.263 L 164.679 243.474 C 164.688 243.375 164.579 243.465 164.679 243.474 L 170.455 243.999 C 170.555 244.008 170.464 243.900 170.455 243.999 L 170.201 246.788 C 170.192 246.887 170.301 246.797 170.201 246.788 L 167.313 246.525 Z" stroke="rgb(0,0,255)" stroke-width="0.20" />
  <path d="M 38.209 182.637 V 179.737 C 38.209 179.637 38.109 179.737 38.209 179.737 H 41.009 C 41.109 179.737 41.009 179.637 41.009 179.737 V 185.537 C 41.009 185.637 41.109 185.537 41.009 185.537 H 38.209 C 38.109 185.537 38.209 185.637 38.209 185.537 V 182.637 Z" stroke="rgb(0,0,255)" stroke-width="0.20" />
  <path d="M 38.209 194.637 V 191.737 C 38.209 191.637 38.109 191.737 38.209 191.737 H 41.009 C 41.109 191.737 41.009 191.637 41.009 191.737 V 197.537 C 41.009 197.637 41.109 197.537 41.009 197.537 H 38.209 C 38.109 197.537 38.209 197.637 38.209 197.537 V 194.637 Z" stroke="rgb(0,0,255)" stroke-width="0.20" />
  <path d="M 38.209 206.637 V 203.737 C 38.209 203.637 38.109 203.737 38.209 203.737 H 41.009 C 41.109 203.737 41.009 203.637 41.009 203.737 V 209.537 C 41.009 209.637 41.109 209.537 41.009 209.537 H 38.209 C 38.109 209.537 38.209 209.637 38.209 209.537 V 206.637 Z" stroke="rgb(0,0,255)" stroke-width="0.20" />
  <path d="M 38.209 218.637 V 215.737 C 38.209 215.637 38.109 215.737 38.209 215.737 H 41.009 C 41.109 215.737 41.009 215.637 41.009 215.737 V 221.537 C 41.009 221.637 41.109 221.537 41.009 221.537 H 38.209 C 38.109 221.537 38.209 221.637 38.209 221.537 V 218.637 Z" stroke="rgb(0,0,255)" stroke-width="0.20" />
  <path d="M 66.209 183.910 V 181.010 C 66.209 180.910 66.109 181.010 66.209 181.010 H 69.009 C 69.109 181.010 69.009 180.910 69.009 181.010 V 186.810 C 69.009 186.910 69.109 186.810 69.009 186.810 H 66.209 C 66.109 186.810 66.209 186.910 66.209 186.810 V 183.910 Z" stroke="rgb(0,0,255)" stroke-width="0.20" />
  <path d="M 66.209 195.910 V 193.010 C 66.209 192.910 66.109 193.010 66.209 193.010 H 69.009 C 69.109 193.010 69.009 192.910 69.009 193.010 V 198.810 C 69.009 198.910 69.109 198.810 69.009 198.810 H 66.209 C 66.109 198.810 66.209 198.910 66.209 198.810 V 195.910 Z" stroke="rgb(0,0,255)" stroke-width="0.20" />
  <path d="M 66.209 207.910 V 205.010 C 66.209 204.910 66.109 205.010 66.209 205.010 H 69.009 C 69.109 205.010 69.009 204.910 69.009 205.010 V 210.810 C 69.009 210.910 69.109 210.810 69.009 210.810 H 66.209 C 66.109 210.810 66.209 210.910 66.209 210.810 V 207.910 Z" stroke="rgb(0,0,255)" stroke-width="0.20" />
  <path d="M 66.209 219.910 V 217.010 C 66.209 216.910 66.109 217.010 66.209 217.010 H 69.009 C 69.109 217.010 69.009 216.910 69.009 217.010 V 222.810 C 69.009 222.910 69.109 222.810 69.009 222.810 H 66.209 C 66.109 222.810 66.209 222.910 66.209 222.810 V 219.910 Z" stroke="rgb(0,0,255)" stroke-width="0.20" />
  <path d="M 94.209 179.182 V 176.282 C 94.209 176.182 94.109 176.282 94.209 176.282 H 97.009 C 97.109 176.282 97.009 176.182 97.009 176.282 V 182.082 C 97.009 182.182 97.109 182.082 97.009 182.082 H 94.209 C 94.109 182.082 94.209 182.182 94.209 182.082 V 179.182 Z" stroke="rgb(0,0,255)" stroke-width="0.20" />
  <path d="M 94.209 191.182 V 188.282 C 94.209 188.182 94.109 188.282 94.209 188.282 H 97.009 C 97.109 188.282 97.009 188.182 97.009 188.282 V 194.082 C 97.009 194.182 97.109 194.082 97.009 194.082 H 94.209 C 94.109 194.082 94.209 194.182 94.209 194.082 V 191.182 Z" stroke="rgb(0,0,255)" stroke-width="0.20" />
  <path d="M 94.209 203.182 V 200.282 C 94.209 200.182 94.109 200.282 94.209 200.282 H 97.009 C 97.109 200.282 97.009 200.182 97.009 200.282 V 206.082 C 97.009 206.182 97.109 206.082 97.009 206.082 H 94.209 C 94.109 206.082 94.209 206.182 94.209 206.082 V 203.182 Z" stroke="rgb(0,0,255)" stroke-width="0.20" />
  <path d="M 94.209 215.182 V 212.282 C 94.209 212.182 94.109 212.282 94.209 212.282 H 97.009 C 97.109 212.282 97.009 212.182 97.009 212.282 V 218.082 C 97.009 218.182 97.109 218.082 97.009 218.082 H 94.209 C 94.109 218.082 94.209 218.182 94.209 218.082 V 215.182 Z" stroke="rgb(0,0,255)" stroke-width="0.20" />
  <path d="M 94.209 227.182 V 224.282 C 94.209 224.182 94.109 224.282 94.209 224.282 H 97.009 C 97.109 224.282 97.009 224.182 97.009 224.282 V 230.082 C 97.009 230.182 97.109 230.082 97.009 230.082 H 94.209 C 94.109 230.082 94.209 230.182 94.209 230.082 V 227.182 Z" stroke="rgb(0,0,255)" stroke-width="0.20" />
  <path d="M 122.209 180.455 V 177.555 C 122.209 177.455 122.109 177.555 122.209 177.555 H 125.009 C 125.109 177.555 125.009 177.455 125.009 177.555 V 183.355 C 125.009 183.455 125.109 183.355 125.009 183.355 H 122.209 C 122.109 183.355 122.209 183.455 122.209 183.355 V 180.455 Z" stroke="rgb(0,0,255)" stroke-width="0.20" />
  <path d="M 122.209 192.455 V 189.555 C 122.209 189.455 122.109 189.555 122.209 189.555 H 125.009 C 125.109 189.555 125.009 189.455 125.009 189.555 V 195.355 C 125.009 195.455 125.109 195.355 125.009 195.355 H 122.209 C 122.109 195.355 122.209 195.455 122.209 195.355 V 192.455 Z" stroke="rgb(0,0,255)" stroke-width="0.20" />
  <path d="M 122.209 204.455 V 201.555 C 122.209 201.455 122.109 201.555 122.209 201.555 H 125.009 C 125.109 201.555 125.009 201.455 125.009 201.555 V 207.355 C 125.009 207.455 125.109 207.355 125.009 207.355 H 122.209 C 122.109 207.355 122.209 207.455 122.209 207.355 V 204.455 Z" stroke="rgb(0,0,255)" stroke-width="0.20" />
  <path d="M 122.209 216.455 V 213.555 C 122.209 213.455 122.109 213.555 122.209 213.555 H 125.009 C 125.109 213.555 125.009 213.455 125.009 213.555 V 219.355 C 125.009 219.455 125.109 219.355 125.009 219.355 H 122.209 C 122.109 219.355 122.209 219.455 122.209 219.355 V 216.455 Z" stroke="rgb(0,0,255)" stroke-width="0.20" />
  <path d="M 122.209 228.455 V 225.555 C 122.209 225.455 122.109 225.555 122.209 225.555 H 125.009 C 125.109 225.555 125.009 225.455 125.009 225.555 V 231.355 C 125.009 231.455 125.109 231.355 125.009 231.355 H 122.209 C 122.109 231.355 122.209 231.455 122.209 231.355 V 228.455 Z" stroke="rgb(0,0,255)" stroke-width="0.20" />
  <path d="M 150.209 181.728 V 178.828 C 150.209 178.728 150.109 178.828 150.209 178.828 H 153.009 C 153.109 178.828 153.009 178.728 153.009 178.828 V 184.628 C 153.009 184.728 153.109 184.628 153.009 184.628 H 150.209 C 150.109 184.628 150.209 184.728 150.209 184.628 V 181.728 Z" stroke="rgb(0,0,255)" stroke-width="0.20" />
  <path d="M 150.209 193.728 V 190.828 C 150.209 190.728 150.109 190.828 150.209 190.828 H 153.009 C 153.109 190.828 153.009 190.728 153.009 190.828 V 196.628 C 153.009 196.728 153.109 196.628 153.009 196.628 H 150.209 C 150.109 196.628 150.209 196.728 150.209 196.628 V 193.728 Z" stroke="rgb(0,0,255)" stroke-width="0.20" />
  <path d="M 150.209 205.728 V 202.828 C 150.209 202.728 150.109 202.828 150.209 202.828 H 153.009 C 153.109 202.828 153.009 202.728 153.009 202.828 V 208.628 C 153.009 208.728 153.109 208.628 153.009 208.628 H 150.209 C 150.109 208.628 150.209 208.728 150.209 208.628 V 205.728 Z" stroke="rgb(0,0,255)" stroke-width="0.20" />
  <path d="M 150.209 217.728 V 214.828 C 150.209 214.728 150.109 214.828 150.209 214.828 H 153.009 C 153.109 214.828 153.009 214.728 153.009 214.828 V 220.628 C 153.009 220.728 153.109 220.628 153.009 220.628 H 150.209 C 150.109 220.628 150.209 220.728 150.209 220.628 V 217.728 Z" stroke="rgb(0,0,255)" stroke-width="0.20" />
  <path d="M 150.209 229.728 V 226.828 C 150.209 226.728 150.109 226.828 150.209 226.828 H 153.009 C 153.109 226.828 153.009 226.728 153.009 226.828 V 232.628 C 153.009 232.728 153.109 232.628 153.009 232.628 H 150.209 C 150.109 232.628 150.209 232.728 150.209 232.628 V 229.728 Z" stroke="rgb(0,0,255)" stroke-width="0.20" />
</g>
<g id="p-5" style="fill:none;stroke-linecap:round;stroke-linejoin:round;">
  <path d="M 22.379 154.700 H 19.479 C 19.379 154.700 19.479 154.800 19.479 154.700 V 151.900 C 19.479 151.800 19.379 151.900 19.479 151.900 H 25.279 C 25.379 151.900 25.279 151.800 25.279 151.900 V 154.700 C 25.279 154.800 25.379 154.700 25.279 154.700 H 22.379 Z" stroke="rgb(0,0,255)" stroke-width="0.20" />
  <path d="M 50.494 154.700 H 47.594 C 47.494 154.700 47.594 154.800 47.594 154.700 V 151.900 C 47.594 151.800 47.494 151.900 47.594 151.900 H 53.394 C 53.494 151.900 53.394 151.800 53.394 151.900 V 154.700 C 53.394 154.800 53.494 154.700 53.394 154.700 H 50.494 Z" stroke="rgb(0,0,255)" stroke-width="0.20" />
  <path d="M 78.610 154.700 H 75.710 C 75.610 154.700 75.710 154.800 75.710 154.700 V 151.900 C 75.710 151.800 75.610 151.900 75.710 151.900 H 81.510 C 81.610 151.900 81.510 151.800 81.510 151.900 V 154.700 C 81.510 154.800 81.610 154.700 81.510 154.700 H 78.610 Z" stroke="rgb(0,0,255)" stroke-width="0.20" />
  <path d="M 106.725 154.700 H 103.825 C 103.725 154.700 103.825 154.800 103.825 154.700 V 151.900 C 103.825 151.800 103.725 151.900 103.825 151.900 H 109.625 C 109.725 151.900 109.625 151.800 109.625 151.900 V 154.700 C 109.625 154.800 109.725 154.700 109.625 154.700 H 106.725 Z" stroke="rgb(0,0,255)" stroke-width="0.20" />
  <path d="M 134.841 154.700 H 131.941 C 131.841 154.700 131.941 154.800 131.941 154.700 V 151.900 C 131.941 151.800 131.841 151.900 131.941 151.900 H 137.741 C 137.841 151.900 137.741 151.800 137.741 151.900 V 154.700 C 137.741 154.800 137.841 154.700 137.741 154.700 H 134.841 Z" stroke="rgb(0,0,255)" stroke-width="0.20" />
  <path d="M 162.956 154.700 H 160.056 C 159.956 154.700 160.056 154.800 160.056 154.700 V 151.900 C 160.056 151.800 159.956 151.900 160.056 151.900 H 165.856 C 165.956 151.900 165.856 151.800 165.856 151.900 V 154.700 C 165.856 154.800 165.956 154.700 165.856 154.700 H 162.956 Z" stroke="rgb(0,0,255)" stroke-width="0.20" />
  <path d="M 22.379 131.700 H 19.479 C 19.379 131.700 19.479 131.800 19.479 131.700 V 128.900 C 19.479 128.800 19.379 128.900 19.479 128.900 H 25.279 C 25.379 128.900 25.279 128.800 25.279 128.900 V 131.700 C 25.279 131.800 25.379 131.700 25.279 131.700 H 22.379 Z" stroke="rgb(0,0,255)" stroke-width="0.20" />
  <path d="M 50.494 131.700 H 47.594 C 47.494 131.700 47.594 131.800 47.594 131.700 V 128.900 C 47.594 128.800 47.494 128.900 47.594 128.900 H 53.394 C 53.494 128.900 53.394 128.800 53.394 128.900 V 131.700 C 53.394 131.800 53.494 131.700 53.394 131.700 H 50.494 Z" stroke="rgb(0,0,255)" stroke-width="0.20" />
  <path d="M 78.610 131.700 H 75.710 C 75.610 131.700 75.710 131.800 75.710 131.700 V 128.900 C 75.710 128.800 75.610 128.900 75.710 128.900 H 81.510 C 81.610 128.900 81.510 128.800 81.510 128.900 V 131.700 C 81.510 131.800 81.610 131.700 81.510 131.700 H 78.610 Z" stroke="rgb(0,0,255)" stroke-width="0.20" />
  <path d="M 106.725 131.700 H 103.825 C 103.725 131.700 103.825 131.800 103.825 131.700 V 128.900 C 103.825 128.800 103.725 128.900 103.825 128.900 H 109.625 C 109.725 128.900 109.625 128.800 109.625 128.900 V 131.700 C 109.625 131.800 109.725 131.700 109.625 131.700 H 106.725 Z" stroke="rgb(0,0,255)" stroke-width="0.20" />
  <path d="M 134.841 131.700 H 131.941 C 131.841 131.700 131.941 131.800 131.941 131.700 V 128.900 C 131.941 128.800 131.841 128.900 131.941 128.900 H 137.741 C 137.841 128.900 137.741 128.800 137.741 128.900 V 131.700 C 137.741 131.800 137.841 131.700 137.741 131.700 H 134.841 Z" stroke="rgb(0,0,255)" stroke-width="0.20" />
  <path d="M 162.956 131.700 H 160.056 C 159.956 131.700 160.056 131.800 160.056 131.700 V 128.900 C 160.056 128.800 159.956 128.900 160.056 128.900 H 165.856 C 165.956 128.900 165.856 128.800 165.856 128.900 V 131.700 C 165.856 131.800 165.956 131.700 165.856 131.700 H 162.956 Z" stroke="rgb(0,0,255)" stroke-width="0.20" />
  <path d="M 10.100 164.900 H 17.704 C 17.804 164.900 17.704 164.800 17.704 164.900 V 167.800 C 17.704 167.855 17.749 167.900 17.804 167.900 H 23.804 C 23.859 167.900 23.904 167.855 23.904 167.800 V 164.900 C 23.904 164.800 23.804 164.900 23.904 164.900 H 29.704 C 29.804 164.900 29.704 164.800 29.704 164.900 V 167.800 C 29.704 167.855 29.749 167.900 29.804 167.900 H 35.804 C 35.859 167.900 35.904 167.855 35.904 167.800 V 164.900 C 35.904 164.800 35.804 164.900 35.904 164.900 H 41.704 C 41.804 164.900 41.704 164.800 41.704 164.900 V 167.800 C 41.704 167.855 41.749 167.900 41.804 167.900 H 47.804 C 47.859 167.900 47.904 167.855 47.904 167.800 V 164.900 C 47.904 164.800 47.804 164.900 47.904 164.900 H 53.704 C 53.804 164.900 53.704 164.800 53.704 164.900 V 167.800 C 53.704 167.855 53.749 167.900 53.804 167.900 H 59.804 C 59.859 167.900 59.904 167.855 59.904 167.800 V 164.900 C 59.904 164.800 59.804 164.900 59.904 164.900 H 65.704 C 65.804 164.900 65.704 164.800 65.704 164.900 V 167.800 C 65.704 167.855 65.749 167.900 65.804 167.900 H 71.804 C 71.859 167.900 71.904 167.855 71.904 167.800 V 164.900 C 71.904 164.800 71.804 164.900 71.904 164.900 H 77.704 C 77.804 164.900 77.704 164.800 77.704 164.900 V 167.800 C 77.704 167.855 77.749 167.900 77.804 167.900 H 83.804 C 83.859 167.900 83.904 167.855 83.904 167.800 V 164.900 C 83.904 164.800 83.804 164.900 83.904 164.900 H 89.704 C 89.804 164.900 89.704 164.800 89.704 164.900 V 167.800 C 89.704 167.855 89.749 167.900 89.804 167.900 H 95.804 C 95.859 167.900 95.904 167.855 95.904 167.800 V 164.900 C 95.904 164.800 95.804 164.900 95.904 164.900 H 101.704 C 101.804 164.900 101.704 164.800 101.704 164.900 V 167.800 C 101.704 167.855 101.749 167.900 101.804 167.900 H 107.804 C 107.859 167.900 107.904 167.855 107.904 167.800 V 164.900 C 107.904 164.800 107.804 164.900 107.904 164.900 H 113.704 C 113.804 164.900 113.704 164.800 113.704 164.900 V 167.800 C 113.704 167.855 113.749 167.900 113.804 167.900 H 119.804 C 119.859 167.900 119.904 167.855 119.904 167.800 V 164.900 C 119.904 164.800 119.804 164.900 119.904 164.900 H 125.704 C 125.804 164.900 125.704 164.800 125.704 164.900 V 167.800 C 125.704 167.855 125.749 167.900 125.804 167.900 H 131.804 C 131.859 167.900 131.904 167.855 131.904 167.800 V 164.900 C 131.904 164.800 131.804 164.900 131.904 164.900 H 137.704 C 137.804 164.900 137.704 164.800 137.704 164.900 V 167.800 C 137.704 167.855 137.749 167.900 137.804 167.900 H 143.804 C 143.859 167.900 143.904 167.855 143.904 167.800 V 164.900 C 143.904 164.800 143.804 164.900 143.904 164.900 H 149.704 C 149.804 164.900 149.704 164.800 149.704 164.900 V 167.800 C 149.704 167.855 149.749 167.900 149.804 167.900 H 155.804 C 155.859 167.900 155.904 167.855 155.904 167.800 V 164.900 C 155.904 164.800 155.804 164.900 155.904 164.900 H 161.704 C 161.804 164.900 161.704 164.800 161.704 164.900 V 167.800 C 161.704 167.855 161.749 167.900 161.804 167.900 H 167.804 C 167.859 167.900 167.904 167.855 167.904 167.800 V 164.900 C 167.904 164.800 167.804 164.900 167.904 164.900 H 175.508 C 175.563 164.900 175.608 164.855 175.608 164.800 V 98.800 C 175.608 98.745 175.563 98.700 175.508 98.700 H 167.904 C 167.804 98.700 167.904 98.800 167.904 98.700 V 95.800 C 167.904 95.745 167.859 95.700 167.804 95.700 H 161.804 C 161.749 95.700 161.704 95.745 161.704 95.800 V 98.700 C 161.704 98.800 161.804 98.700 161.704 98.700 H 155.904 C 155.804 98.700 155.904 98.800 155.904 98.700 V 95.800 C 155.904 95.745 155.859 95.700 155.804 95.700 H 149.804 C 149.749 95.700 149.704 95.745 149.704 95.800 V 98.700 C 149.704 98.800 149.804 98.700 149.704 98.700 H 143.904 C 143.804 98.700 143.904 98.800 143.904 98.700 V 95.800 C 143.904 95.745 143.859 95.700 143.804 95.700 H 137.804 C 137.749 95.700 137.704 95.745 137.704 95.800 V 98.700 C 137.704 98.800 137.804 98.700 137.704 98.700 H 131.904 C 131.804 98.700 131.904 98.800 131.904 98.700 V 95.800 C 131.904 95.745 131.859 95.700 131.804 95.700 H 125.804 C 125.749 95.700 125.704 95.745 125.704 95.800 V 98.700 C 125.704 98.800 125.804 98.700 125.704 98.700 H 119.904 C 119.804 98.700 119.904 98.800 119.904 98.700 V 95.800 C 119.904 95.745 119.859 95.700 119.804 95.700 H 113.804 C 113.749 95.700 113.704 95.745 113.704 95.800 V 98.700 C 113.704 98.800 113.804 98.700 113.704 98.700 H 107.904 C 107.804 98.700 107.904 98.800 107.904 98.700 V 95.800 C 107.904 95.745 107.859 95.700 107.804 95.700 H 101.804 C 101.749 95.700 101.704 95.745 101.704 95.800 V 98.700 C 101.704 98.800 101.804 98.700 101.704 98.700 H 95.904 C 95.804 98.700 95.904 98.800 95.904 98.700 V 95.800 C 95.904 95.745 95.859 95.700 95.804 95.700 H 89.804 C 89.749 95.700 89.704 95.745 89.704 95.800 V 98.700 C 89.704 98.800 89.804 98.700 89.704 98.700 H 83.904 C 83.804 98.700 83.904 98.800 83.904 98.700 V 95.800 C 83.904 95.745 83.859 95.700 83.804 95.700 H 77.804 C 77.749 95.700 77.704 95.745 77.704 95.800 V 98.700 C 77.704 98.800 77.804 98.700 77.704 98.700 H 71.904 C 71.804 98.700 71.904 98.800 71.904 98.700 V 95.800 C 71.904 95.745 71.859 95.700 71.804 95.700 H 65.804 C 65.749 95.700 65.704 95.745 65.704 95.800 V 98.700 C 65.704 98.800 65.804 98.700 65.704 98.700 H 59.904 C 59.804 98.700 59.904 98.800 59.904 98.700 V 95.800 C 59.904 95.745 59.859 95.700 59.804 95.700 H 53.804 C 53.749 95.700 53.704 95.745 53.704 95.800 V 98.700 C 53.704 98.800 53.804 98.700 53.704 98.700 H 47.904 C 47.804 98.700 47.904 98.800 47.904 98.700 V 95.800 C 47.904 95.745 47.859 95.700 47.804 95.700 H 41.804 C 41.749 95.700 41.704 95.745 41.704 95.800 V 98.700 C 41.704 98.800 41.804 98.700 41.704 98.700 H 35.904 C 35.804 98.700 35.904 98.800 35.904 98.700 V 95.800 C 35.904 95.745 35.859 95.700 35.804 95.700 H 29.804 C 29.749 95.700 29.704 95.745 29.704 95.800 V 98.700 C 29.704 98.800 29.804 98.700 29.704 98.700 H 23.904 C 23.804 98.700 23.904 98.800 23.904 98.700 V 95.800 C 23.904 95.745 23.859 95.700 23.804 95.700 H 17.804 C 17.749 95.700 17.704 95.745 17.704 95.800 V 98.700 C 17.704 98.800 17.804 98.700 17.704 98.700 H 10.100 C 10.045 98.700 10.000 98.745 10.000 98.800 V 164.800 C 10.000 164.855 10.045 164.900 10.100 164.900 Z" stroke="rgb(0,0,0)" stroke-width="0.20" />
</g>
<g id="p-6" style="fill:none;stroke-linecap:round;stroke-linejoin:round;">
  <path d="M 10.100 94.200 H 19.100 C 19.644 94.200 20.179 94.057 20.650 93.785 C 21.121 93.513 21.513 93.121 21.785 92.650 C 22.039 92.209 22.405 91.843 22.846 91.589 C 23.287 91.334 23.787 91.200 24.296 91.200 H 67.904 C 68.413 91.200 68.913 91.334 69.354 91.589 C 69.795 91.843 70.161 92.209 70.415 92.650 C 70.687 93.121 71.079 93.513 71.550 93.785 C 72.021 94.057 72.556 94.200 73.100 94.200 H 82.100 C 82.155 94.200 82.200 94.155 82.200 94.100 V 91.100 V 70.100 V 61.100 C 82.200 61.045 82.155 61.000 82.100 61.000 H 79.200 C 79.100 61.000 79.200 61.100 79.200 61.000 V 55.200 C 79.200 55.100 79.100 55.200 79.200 55.200 H 82.100 C 82.155 55.200 82.200 55.155 82.200 55.100 V 49.100 C 82.200 49.045 82.155 49.000 82.100 49.000 H 79.200 C 79.100 49.000 79.200 49.100 79.200 49.000 V 43.200 C 79.200 43.100 79.100 43.200 79.200 43.200 H 82.100 C 82.155 43.200 82.200 43.155 82.200 43.100 V 37.100 C 82.200 37.045 82.155 37.000 82.100 37.000 H 79.200 C 79.100 37.000 79.200 37.100 79.200 37.000 V 31.200 C 79.200 31.100 79.100 31.200 79.200 31.200 H 82.100 C 82.155 31.200 82.200 31.155 82.200 31.100 V 25.100 C 82.200 25.045 82.155 25.000 82.100 25.000 H 79.200 C 79.100 25.000 79.200 25.100 79.200 25.000 V 19.200 C 79.200 19.100 79.100 19.200 79.200 19.200 H 82.100 C 82.155 19.200 82.200 19.155 82.200 19.100 V 10.100 C 82.200 10.045 82.155 10.000 82.100 10.000 H 79.100 H 49.100 H 46.100 C 46.045 10.000 46.000 10.045 46.000 10.100 V 30.000 C 46.000 30.100 46.100 30.000 46.000 30.000 H 26.100 H 23.100 C 23.045 30.000 23.000 30.045 23.000 30.100 V 45.000 C 23.000 45.100 23.100 45.000 23.000 45.000 H 13.100 C 13.045 45.000 13.000 45.045 13.000 45.100 V 54.500 C 13.000 54.600 13.100 54.500 13.000 54.500 H 10.100 C 10.045 54.500 10.000 54.545 10.000 54.600 V 60.600 C 10.000 60.655 10.045 60.700 10.100 60.700 H 13.000 C 13.100 60.700 13.000 60.600 13.000 60.700 V 70.000 C 13.000 70.100 13.100 70.000 13.000 70.000 H 10.100 C 10.045 70.000 10.000 70.045 10.000 70.100 V 91.100 V 94.100 C 10.000 94.155 10.045 94.200 10.100 94.200 Z" stroke="rgb(0,0,0)" stroke-width="0.20" />
  <path d="M 46.200 22.100 V 19.200 C 46.200 19.100 46.100 19.200 46.200 19.200 H 49.000 C 49.100 19.200 49.000 19.100 49.000 19.200 V 25.000 C 49.000 25.100 49.100 25.000 49.000 25.000 H 46.200 C 46.100 25.000 46.200 25.100 46.200 25.000 V 22.100 Z" stroke="rgb(0,0,255)" stroke-width="0.20" />
  <path d="M 46.200 34.100 V 31.200 C 46.200 31.100 46.100 31.200 46.200 31.200 H 49.000 C 49.100 31.200 49.000 31.100 49.000 31.200 V 37.000 C 49.000 37.100 49.100 37.000 49.000 37.000 H 46.200 C 46.100 37.000 46.200 37.100 46.200 37.000 V 34.100 Z" stroke="rgb(0,0,255)" stroke-width="0.20" />
  <path d="M 46.200 46.100 V 43.200 C 46.200 43.100 46.100 43.200 46.200 43.200 H 49.000 C 49.100 43.200 49.000 43.100 49.000 43.200 V 49.000 C 49.000 49.100 49.100 49.000 49.000 49.000 H 46.200 C 46.100 49.000 46.200 49.100 46.200 49.000 V 46.100 Z" stroke="rgb(0,0,255)" stroke-width="0.20" />
  <path d="M 46.200 58.100 V 55.200 C 46.200 55.100 46.100 55.200 46.200 55.200 H 49.000 C 49.100 55.200 49.000 55.100 49.000 55.200 V 61.000 C 49.000 61.100 49.100 61.000 49.000 61.000 H 46.200 C 46.100 61.000 46.200 61.100 46.200 61.000 V 58.100 Z" stroke="rgb(0,0,255)" stroke-width="0.20" />
  <path d="M 23.200 44.100 V 41.200 C 23.200 41.100 23.100 41.200 23.200 41.200 H 26.000 C 26.100 41.200 26.000 41.100 26.000 41.200 V 47.000 C 26.000 47.100 26.100 47.000 26.000 47.000 H 23.200 C 23.100 47.000 23.200 47.100 23.200 47.000 V 44.100 Z" stroke="rgb(0,0,255)" stroke-width="0.20" />
  <path d="M 23.200 56.100 V 53.200 C 23.200 53.100 23.100 53.200 23.200 53.200 H 26.000 C 26.100 53.200 26.000 53.100 26.000 53.200 V 59.000 C 26.000 59.100 26.100 59.000 26.000 59.000 H 23.200 C 23.100 59.000 23.200 59.100 23.200 59.000 V 56.100 Z" stroke="rgb(0,0,255)" stroke-width="0.20" />
</g>
<g id="p-7" style="fill:none;stroke-linecap:round;stroke-linejoin:round;">
  <path d="M 86.800 94.200 H 152.800 C 152.855 94.200 152.900 94.155 152.900 94.100 V 84.064 C 152.900 83.964 152.800 84.064 152.900 84.064 H 155.800 C 155.855 84.064 155.900 84.019 155.900 83.964 V 77.964 C 155.900 77.908 155.855 77.864 155.800 77.864 H 152.900 C 152.800 77.864 152.900 77.964 152.900 77.864 V 72.064 C 152.900 71.964 152.800 72.064 152.900 72.064 H 155.800 C 155.855 72.064 155.900 72.019 155.900 71.964 V 65.964 C 155.900 65.908 155.855 65.864 155.800 65.864 H 152.900 C 152.800 65.864 152.900 65.964 152.900 65.864 V 60.064 C 152.900 59.964 152.800 60.064 152.900 60.064 H 155.800 C 155.855 60.064 155.900 60.019 155.900 59.964 V 53.964 C 155.900 53.908 155.855 53.864 155.800 53.864 H 152.900 C 152.800 53.864 152.900 53.964 152.900 53.864 V 48.064 C 152.900 47.964 152.800 48.064 152.900 48.064 H 155.800 C 155.855 48.064 155.900 48.019 155.900 47.964 V 41.964 C 155.900 41.908 155.855 41.864 155.800 41.864 H 152.900 C 152.800 41.864 152.900 41.964 152.900 41.864 V 31.827 C 152.900 31.772 152.855 31.727 152.800 31.727 H 122.800 C 122.745 31.727 122.700 31.772 122.700 31.827 V 63.727 C 122.700 63.827 122.800 63.727 122.700 63.727 H 119.900 C 119.800 63.727 119.900 63.827 119.900 63.727 V 51.827 C 119.900 51.772 119.855 51.727 119.800 51.727 H 99.800 C 99.745 51.727 99.700 51.772 99.700 51.827 V 78.727 C 99.700 78.827 99.800 78.727 99.700 78.727 H 96.900 C 96.800 78.727 96.900 78.827 96.900 78.727 V 66.827 C 96.900 66.772 96.855 66.727 96.800 66.727 H 86.800 C 86.745 66.727 86.700 66.772 86.700 66.827 V 77.364 C 86.700 77.464 86.800 77.364 86.700 77.364 H 83.800 C 83.745 77.364 83.700 77.408 83.700 77.464 V 83.464 C 83.700 83.519 83.745 83.564 83.800 83.564 H 86.700 C 86.800 83.564 86.700 83.464 86.700 83.564 V 94.100 C 86.700 94.155 86.745 94.200 86.800 94.200 Z" stroke="rgb(0,0,0)" stroke-width="0.20" />
</g>
<g id="p-8" style="fill:none;stroke-linecap:round;stroke-linejoin:round;">
  <path d="M 160.500 94.200 H 226.500 C 226.555 94.200 226.600 94.155 226.600 94.100 V 82.791 C 226.600 82.691 226.500 82.791 226.600 82.791 H 229.500 C 229.555 82.791 229.600 82.746 229.600 82.691 V 76.691 C 229.600 76.636 229.555 76.591 229.500 76.591 H 226.600 C 226.500 76.591 226.600 76.691 226.600 76.591 V 70.791 C 226.600 70.691 226.500 70.791 226.600 70.791 H 229.500 C 229.555 70.791 229.600 70.746 229.600 70.691 V 64.691 C 229.600 64.636 229.555 64.591 229.500 64.591 H 226.600 C 226.500 64.591 226.600 64.691 226.600 64.591 V 58.791 C 226.600 58.691 226.500 58.791 226.600 58.791 H 229.500 C 229.555 58.791 229.600 58.746 229.600 58.691 V 52.691 C 229.600 52.636 229.555 52.591 229.500 52.591 H 226.600 C 226.500 52.591 226.600 52.691 226.600 52.591 V 46.791 C 226.600 46.691 226.500 46.791 226.600 46.791 H 229.500 C 229.555 46.791 229.600 46.746 229.600 46.691 V 40.691 C 229.600 40.636 229.555 40.591 229.500 40.591 H 226.600 C 226.500 40.591 226.600 40.691 226.600 40.591 V 29.282 C 226.600 29.227 226.555 29.182 226.500 29.182 H 196.500 C 196.445 29.182 196.400 29.227 196.400 29.282 V 61.182 C 196.400 61.282 196.500 61.182 196.400 61.182 H 193.600 C 193.500 61.182 193.600 61.282 193.600 61.182 V 49.282 C 193.600 49.227 193.555 49.182 193.500 49.182 H 173.500 C 173.445 49.182 173.400 49.227 173.400 49.282 V 76.182 C 173.400 76.282 173.500 76.182 173.400 76.182 H 170.600 C 170.500 76.182 170.600 76.282 170.600 76.182 V 64.282 C 170.600 64.227 170.555 64.182 170.500 64.182 H 160.500 C 160.445 64.182 160.400 64.227 160.400 64.282 V 76.091 C 160.400 76.191 160.500 76.091 160.400 76.091 H 157.500 C 157.445 76.091 157.400 76.136 157.400 76.191 V 82.191 C 157.400 82.246 157.445 82.291 157.500 82.291 H 160.400 C 160.500 82.291 160.400 82.191 160.400 82.291 V 94.100 C 160.400 94.155 160.445 94.200 160.500 94.200 Z" stroke="rgb(0,0,0)" stroke-width="0.20" />
</g>
<g id="p-9" style="fill:none;stroke-linecap:round;stroke-linejoin:round;">
  <path d="M 234.200 94.200 H 300.200 C 300.255 94.200 300.300 94.155 300.300 94.100 V 87.518 C 300.300 87.418 300.200 87.518 300.300 87.518 H 303.200 C 303.255 87.518 303.300 87.473 303.300 87.418 V 81.418 C 303.300 81.363 303.255 81.318 303.200 81.318 H 300.300 C 300.200 81.318 300.300 81.418 300.300 81.318 V 75.518 C 300.300 75.418 300.200 75.518 300.300 75.518 H 303.200 C 303.255 75.518 303.300 75.473 303.300 75.418 V 69.418 C 303.300 69.363 303.255 69.318 303.200 69.318 H 300.300 C 300.200 69.318 300.300 69.418 300.300 69.318 V 63.518 C 300.300 63.418 300.200 63.518 300.300 63.518 H 303.200 C 303.255 63.518 303.300 63.473 303.300 63.418 V 57.418 C 303.300 57.363 303.255 57.318 303.200 57.318 H 300.300 C 300.200 57.318 300.300 57.418 300.300 57.318 V 51.518 C 300.300 51.418 300.200 51.518 300.300 51.518 H 303.200 C 303.255 51.518 303.300 51.473 303.300 51.418 V 45.418 C 303.300 45.363 303.255 45.318 303.200 45.318 H 300.300 C 300.200 45.318 300.300 45.418 300.300 45.318 V 39.518 C 300.300 39.418 300.200 39.518 300.300 39.518 H 303.200 C 303.255 39.518 303.300 39.473 303.300 39.418 V 33.418 C 303.300 33.363 303.255 33.318 303.200 33.318 H 300.300 C 300.200 33.318 300.300 33.418 300.300 33.318 V 26.736 C 300.300 26.681 300.255 26.636 300.200 26.636 H 270.200 C 270.145 26.636 270.100 26.681 270.100 26.736 V 58.636 C 270.100 58.736 270.200 58.636 270.100 58.636 H 267.300 C 267.200 58.636 267.300 58.736 267.300 58.636 V 46.736 C 267.300 46.681 267.255 46.636 267.200 46.636 H 247.200 C 247.145 46.636 247.100 46.681 247.100 46.736 V 73.636 C 247.100 73.736 247.200 73.636 247.100 73.636 H 244.300 C 244.200 73.636 244.300 73.736 244.300 73.636 V 61.736 C 244.300 61.681 244.255 61.636 244.200 61.636 H 234.200 C 234.145 61.636 234.100 61.681 234.100 61.736 V 68.818 C 234.100 68.918 234.200 68.818 234.100 68.818 H 231.200 C 231.145 68.818 231.100 68.863 231.100 68.918 V 74.918 C 231.100 74.973 231.145 75.018 231.200 75.018 H 234.100 C 234.200 75.018 234.100 74.918 234.100 75.018 V 80.818 C 234.100 80.918 234.200 80.818 234.100 80.818 H 231.200 C 231.145 80.818 231.100 80.863 231.100 80.918 V 86.918 C 231.100 86.973 231.145 87.018 231.200 87.018 H 234.100 C 234.200 87.018 234.100 86.918 234.100 87.018 V 94.100 C 234.100 94.155 234.145 94.200 234.200 94.200 Z" stroke="rgb(0,0,0)" stroke-width="0.20" />
</g>
<g id="p-10" style="fill:none;stroke-linecap:round;stroke-linejoin:round;">
  <path d="M 307.900 94.200 H 373.900 C 373.955 94.200 374.000 94.155 374.000 94.100 V 86.245 C 374.000 86.145 373.900 86.245 374.000 86.245 H 376.900 C 376.955 86.245 377.000 86.201 377.000 86.145 V 80.145 C 377.000 80.090 376.955 80.045 376.900 80.045 H 374.000 C 373.900 80.045 374.000 80.145 374.000 80.045 V 74.245 C 374.000 74.145 373.900 74.245 374.000 74.245 H 376.900 C 376.955 74.245 377.000 74.201 377.000 74.145 V 68.145 C 377.000 68.090 376.955 68.045 376.900 68.045 H 374.000 C 373.900 68.045 374.000 68.145 374.000 68.045 V 62.245 C 374.000 62.145 373.900 62.245 374.000 62.245 H 376.900 C 376.955 62.245 377.000 62.201 377.000 62.145 V 56.145 C 377.000 56.090 376.955 56.045 376.900 56.045 H 374.000 C 373.900 56.045 374.000 56.145 374.000 56.045 V 50.245 C 374.000 50.145 373.900 50.245 374.000 50.245 H 376.900 C 376.955 50.245 377.000 50.201 377.000 50.145 V 44.145 C 377.000 44.090 376.955 44.045 376.900 44.045 H 374.000 C 373.900 44.045 374.000 44.145 374.000 44.045 V 38.245 C 374.000 38.145 373.900 38.245 374.000 38.245 H 376.900 C 376.955 38.245 377.000 38.201 377.000 38.145 V 32.145 C 377.000 32.090 376.955 32.045 376.900 32.045 H 374.000 C 373.900 32.045 374.000 32.145 374.000 32.045 V 24.191 C 374.000 24.136 373.955 24.091 373.900 24.091 H 343.900 C 343.845 24.091 343.800 24.136 343.800 24.191 V 56.091 C 343.800 56.191 343.900 56.091 343.800 56.091 H 341.000 C 340.900 56.091 341.000 56.191 341.000 56.091 V 44.191 C 341.000 44.136 340.955 44.091 340.900 44.091 H 320.900 C 320.845 44.091 320.800 44.136 320.800 44.191 V 71.091 C 320.800 71.191 320.900 71.091 320.800 71.091 H 318.000 C 317.900 71.091 318.000 71.191 318.000 71.091 V 59.191 C 318.000 59.136 317.955 59.091 317.900 59.091 H 307.900 C 307.845 59.091 307.800 59.136 307.800 59.191 V 67.545 C 307.800 67.645 307.900 67.545 307.800 67.545 H 304.900 C 304.845 67.545 304.800 67.590 304.800 67.645 V 73.645 C 304.800 73.701 304.845 73.745 304.900 73.745 H 307.800 C 307.900 73.745 307.800 73.645 307.800 73.745 V 79.545 C 307.800 79.645 307.900 79.545 307.800 79.545 H 304.900 C 304.845 79.545 304.800 79.590 304.800 79.645 V 85.645 C 304.800 85.701 304.845 85.745 304.900 85.745 H 307.800 C 307.900 85.745 307.800 85.645 307.800 85.745 V 94.100 C 307.800 94.155 307.845 94.200 307.900 94.200 Z" stroke="rgb(0,0,0)" stroke-width="0.20" />
</g>
<g id="p-11" style="fill:none;stroke-linecap:round;stroke-linejoin:round;">
  <path d="M 381.600 94.200 H 447.600 C 447.655 94.200 447.700 94.155 447.700 94.100 V 84.973 C 447.700 84.873 447.600 84.973 447.700 84.973 H 450.600 C 450.655 84.973 450.700 84.928 450.700 84.873 V 78.873 C 450.700 78.817 450.655 78.773 450.600 78.773 H 447.700 C 447.600 78.773 447.700 78.873 447.700 78.773 V 72.973 C 447.700 72.873 447.600 72.973 447.700 72.973 H 450.600 C 450.655 72.973 450.700 72.928 450.700 72.873 V 66.873 C 450.700 66.817 450.655 66.773 450.600 66.773 H 447.700 C 447.600 66.773 447.700 66.873 447.700 66.773 V 60.973 C 447.700 60.873 447.600 60.973 447.700 60.973 H 450.600 C 450.655 60.973 450.700 60.928 450.700 60.873 V 54.873 C 450.700 54.817 450.655 54.773 450.600 54.773 H 447.700 C 447.600 54.773 447.700 54.873 447.700 54.773 V 48.973 C 447.700 48.873 447.600 48.973 447.700 48.973 H 450.600 C 450.655 48.973 450.700 48.928 450.700 48.873 V 42.873 C 450.700 42.817 450.655 42.773 450.600 42.773 H 447.700 C 447.600 42.773 447.700 42.873 447.700 42.773 V 36.973 C 447.700 36.873 447.600 36.973 447.700 36.973 H 450.600 C 450.655 36.973 450.700 36.928 450.700 36.873 V 30.873 C 450.700 30.817 450.655 30.773 450.600 30.773 H 447.700 C 447.600 30.773 447.700 30.873 447.700 30.773 V 21.645 C 447.700 21.590 447.655 21.545 447.600 21.545 H 417.600 C 417.545 21.545 417.500 21.590 417.500 21.645 V 53.545 C 417.500 53.645 417.600 53.545 417.500 53.545 H 414.700 C 414.600 53.545 414.700 53.645 414.700 53.545 V 41.645 C 414.700 41.590 414.655 41.545 414.600 41.545 H 394.600 C 394.545 41.545 394.500 41.590 394.500 41.645 V 68.545 C 394.500 68.645 394.600 68.545 394.500 68.545 H 391.700 C 391.600 68.545 391.700 68.645 391.700 68.545 V 56.645 C 391.700 56.590 391.655 56.545 391.600 56.545 H 381.600 C 381.545 56.545 381.500 56.590 381.500 56.645 V 66.273 C 381.500 66.373 381.600 66.273 381.500 66.273 H 378.600 C 378.545 66.273 378.500 66.317 378.500 66.373 V 72.373 C 378.500 72.428 378.545 72.473 378.600 72.473 H 381.500 C 381.600 72.473 381.500 72.373 381.500 72.473 V 78.273 C 381.500 78.373 381.600 78.273 381.500 78.273 H 378.600 C 378.545 78.273 378.500 78.317 378.500 78.373 V 84.373 C 378.500 84.428 378.545 84.473 378.600 84.473 H 381.500 C 381.600 84.473 381.500 84.373 381.500 84.473 V 94.100 C 381.500 94.155 381.545 94.200 381.600 94.200 Z" stroke="rgb(0,0,0)" stroke-width="0.20" />
</g>
<g id="p-12" style="fill:none;stroke-linecap:round;stroke-linejoin:round;">
  <path d="M 452.300 94.200 H 461.300 C 461.844 94.200 462.379 94.057 462.850 93.785 C 463.321 93.513 463.713 93.121 463.985 92.650 C 464.239 92.209 464.605 91.843 465.046 91.589 C 465.487 91.334 465.987 91.200 466.496 91.200 H 510.104 C 510.613 91.200 511.113 91.334 511.554 91.589 C 511.995 91.843 512.361 92.209 512.615 92.650 C 512.887 93.121 513.279 93.513 513.750 93.785 C 514.221 94.057 514.756 94.200 515.300 94.200 H 524.300 C 524.355 94.200 524.400 94.155 524.400 94.100 V 91.100 V 85.100 V 74.600 C 524.400 74.545 524.355 74.500 524.300 74.500 H 521.400 C 521.300 74.500 521.400 74.600 521.400 74.500 V 68.700 C 521.400 68.600 521.300 68.700 521.400 68.700 H 524.300 C 524.355 68.700 524.400 68.655 524.400 68.600 V 62.600 C 524.400 62.545 524.355 62.500 524.300 62.500 H 521.400 C 521.300 62.500 521.400 62.600 521.400 62.500 V 56.700 C 521.400 56.600 521.300 56.700 521.400 56.700 H 524.300 C 524.355 56.700 524.400 56.655 524.400 56.600 V 50.600 C 524.400 50.545 524.355 50.500 524.300 50.500 H 521.400 C 521.300 50.500 521.400 50.600 521.400 50.500 V 44.700 C 521.400 44.600 521.300 44.700 521.400 44.700 H 524.300 C 524.355 44.700 524.400 44.655 524.400 44.600 V 38.600 C 524.400 38.545 524.355 38.500 524.300 38.500 H 521.400 C 521.300 38.500 521.400 38.600 521.400 38.500 V 32.700 C 521.400 32.600 521.300 32.700 521.400 32.700 H 524.300 C 524.355 32.700 524.400 32.655 524.400 32.600 V 26.600 C 524.400 26.545 524.355 26.500 524.300 26.500 H 521.400 C 521.300 26.500 521.400 26.600 521.400 26.500 V 20.700 C 521.400 20.600 521.300 20.700 521.400 20.700 H 524.300 C 524.355 20.700 524.400 20.655 524.400 20.600 V 10.100 C 524.400 10.045 524.355 10.000 524.300 10.000 H 521.300 H 491.300 H 488.300 C 488.245 10.000 488.200 10.045 488.200 10.100 V 30.000 C 488.200 30.100 488.300 30.000 488.200 30.000 H 468.300 H 465.300 C 465.245 30.000 465.200 30.045 465.200 30.100 V 45.000 C 465.200 45.100 465.300 45.000 465.200 45.000 H 455.300 C 455.245 45.000 455.200 45.045 455.200 45.100 V 56.000 C 455.200 56.100 455.300 56.000 455.200 56.000 H 452.300 C 452.245 56.000 452.200 56.045 452.200 56.100 V 62.100 C 452.200 62.155 452.245 62.200 452.300 62.200 H 455.200 C 455.300 62.200 455.200 62.100 455.200 62.200 V 68.000 C 455.200 68.100 455.300 68.000 455.200 68.000 H 452.300 C 452.245 68.000 452.200 68.045 452.200 68.100 V 74.100 C 452.200 74.155 452.245 74.200 452.300 74.200 H 455.200 C 455.300 74.200 455.200 74.100 455.200 74.200 V 85.000 C 455.200 85.100 455.300 85.000 455.200 85.000 H 452.300 C 452.245 85.000 452.200 85.045 452.200 85.100 V 91.100 V 94.100 C 452.200 94.155 452.245 94.200 452.300 94.200 Z" stroke="rgb(0,0,0)" stroke-width="0.20" />
  <path d="M 488.400 23.600 V 20.700 C 488.400 20.600 488.300 20.700 488.400 20.700 H 491.200 C 491.300 20.700 491.200 20.600 491.200 20.700 V 26.500 C 491.200 26.600 491.300 26.500 491.200 26.500 H 488.400 C 488.300 26.500 488.400 26.600 488.400 26.500 V 23.600 Z" stroke="rgb(0,0,255)" stroke-width="0.20" />
  <path d="M 488.400 35.600 V 32.700 C 488.400 32.600 488.300 32.700 488.400 32.700 H 491.200 C 491.300 32.700 491.200 32.600 491.200 32.700 V 38.500 C 491.200 38.600 491.300 38.500 491.200 38.500 H 488.400 C 488.300 38.500 488.400 38.600 488.400 38.500 V 35.600 Z" stroke="rgb(0,0,255)" stroke-width="0.20" />
  <path d="M 488.400 47.600 V 44.700 C 488.400 44.600 488.300 44.700 488.400 44.700 H 491.200 C 491.300 44.700 491.200 44.600 491.200 44.700 V 50.500 C 491.200 50.600 491.300 50.500 491.200 50.500 H 488.400 C 488.300 50.500 488.400 50.600 488.400 50.500 V 47.600 Z" stroke="rgb(0,0,255)" stroke-width="0.20" />
  <path d="M 488.400 59.600 V 56.700 C 488.400 56.600 488.300 56.700 488.400 56.700 H 491.200 C 491.300 56.700 491.200 56.600 491.200 56.700 V 62.500 C 491.200 62.600 491.300 62.500 491.200 62.500 H 488.400 C 488.300 62.500 488.400 62.600 488.400 62.500 V 59.600 Z" stroke="rgb(0,0,255)" stroke-width="0.20" />
  <path d="M 488.400 71.600 V 68.700 C 488.400 68.600 488.300 68.700 488.400 68.700 H 491.200 C 491.300 68.700 491.200 68.600 491.200 68.700 V 74.500 C 491.200 74.600 491.300 74.500 491.200 74.500 H 488.400 C 488.300 74.500 488.400 74.600 488.400 74.500 V 71.600 Z" stroke="rgb(0,0,255)" stroke-width="0.20" />
  <path d="M 465.400 39.600 V 36.700 C 465.400 36.600 465.300 36.700 465.400 36.700 H 468.200 C 468.300 36.700 468.200 36.600 468.200 36.700 V 42.500 C 468.200 42.600 468.300 42.500 468.200 42.500 H 465.400 C 465.300 42.500 465.400 42.600 465.400 42.500 V 39.600 Z" stroke="rgb(0,0,255)" stroke-width="0.20" />
  <path d="M 465.400 51.600 V 48.700 C 465.400 48.600 465.300 48.700 465.400 48.700 H 468.200 C 468.300 48.700 468.200 48.600 468.200 48.700 V 54.500 C 468.200 54.600 468.300 54.500 468.200 54.500 H 465.400 C 465.300 54.500 465.400 54.600 465.400 54.500 V 51.600 Z" stroke="rgb(0,0,255)" stroke-width="0.20" />
  <path d="M 465.400 63.600 V 60.700 C 465.400 60.600 465.300 60.700 465.400 60.700 H 468.200 C 468.300 60.700 468.200 60.600 468.200 60.700 V 66.500 C 468.200 66.600 468.300 66.500 468.200 66.500 H 465.400 C 465.300 66.500 465.400 66.600 465.400 66.500 V 63.600 Z" stroke="rgb(0,0,255)" stroke-width="0.20" />
  <path d="M 465.400 75.600 V 72.700 C 465.400 72.600 465.300 72.700 465.400 72.700 H 468.200 C 468.300 72.700 468.200 72.600 468.200 72.700 V 78.500 C 468.200 78.600 468.300 78.500 468.200 78.500 H 465.400 C 465.300 78.500 465.400 78.600 465.400 78.500 V 75.600 Z" stroke="rgb(0,0,255)" stroke-width="0.20" />
</g>
</svg>