<?xml version='1.0' encoding='utf-8'?>
<svg height="725.28mm" viewBox="0.0 0.0 172.19 725.28" width="172.19mm" xmlns="http://www.w3.org/2000/svg" xmlns:cc="http://creativecommons.org/ns#" xmlns:dc="http://purl.org/dc/elements/1.1/" xmlns:inkscape="http://www.inkscape.org/namespaces/inkscape" xmlns:rdf="http://www.w3.org/1999/02/22-rdf-syntax-ns#" xmlns:svg="http://www.w3.org/2000/svg" xmlns:xlink="http://www.w3.org/1999/xlink">
<!--
EngravingFrame - A frame for an engraving ; can be either standing or hanging, both in portrait or landscape


This box is a frame for an engraving.


Created with Boxes.py (https://boxes.hackerspace-bamberg.de/)
Command line (remove spaces between dashes): boxes EngravingFrame
-->
<title>EngravingFrame</title>
<metadata>
<rdf:RDF><cc:Work>
<dc:title>Box - EngravingFrame</dc:title>
<dc:source>boxes EngravingFrame</dc:source>
<dc:description>A frame for an engraving ; can be either standing or hanging, both in portrait or landscape

This box is a frame for an engraving.

Created with Boxes.py (https://boxes.hackerspace-bamberg.de/)
Command line: boxes EngravingFrame
Command line short: boxes EngravingFrame
</dc:description>
</cc:Work></rdf:RDF></metadata>
<g id="p-0" style="fill:none;stroke-linecap:round;stroke-linejoin:round;">
  <path d="M 22.090 715.281 H 122.090 V 705.281 H 22.090 V 715.281 Z" stroke="rgb(0,0,0)" stroke-width="0.20" />
  <text dominant-baseline="hanging" font-size="6px" style="font-family: sans-serif ; font-weight: normal; font-style: normal; fill: rgb(255,0,0)" text-anchor="middle" transform="matrix( 1.000 0.000 0.000 1.000 72.090 707.281 )">100.0mm, burn:0.10mm</text>
</g>
<g id="p-1" style="fill:none;stroke-linecap:round;stroke-linejoin:round;">
  <path d="M 92.090 683.481 H 47.090 C 46.230 683.481 45.385 683.254 44.640 682.824 C 43.895 682.394 43.277 681.776 42.847 681.031 C 42.417 680.286 42.190 679.441 42.190 678.581 V 588.581 C 42.190 587.721 42.417 586.876 42.847 586.131 C 43.277 585.386 43.895 584.767 44.640 584.337 C 45.385 583.907 46.230 583.681 47.090 583.681 H 137.090 C 137.950 583.681 138.795 583.907 139.540 584.337 C 140.285 584.767 140.904 585.386 141.334 586.131 C 141.764 586.876 141.990 587.721 141.990 588.581 V 678.581 C 141.990 679.441 141.764 680.286 141.334 681.031 C 140.904 681.776 140.285 682.394 139.540 682.824 C 138.795 683.254 137.950 683.481 137.090 683.481 H 92.090 Z" stroke="rgb(0,0,255)" stroke-width="0.20" />
  <path d="M 27.090 703.581 H 157.090 C 157.985 703.581 158.865 703.345 159.640 702.898 C 160.415 702.450 161.059 701.806 161.507 701.031 C 161.955 700.256 162.190 699.376 162.190 698.481 V 568.481 C 162.190 567.586 161.955 566.706 161.507 565.931 C 161.059 565.156 160.415 564.512 159.640 564.064 C 158.865 563.616 157.985 563.381 157.090 563.381 H 27.090 C 26.195 563.381 25.315 563.616 24.540 564.064 C 23.765 564.512 23.121 565.156 22.673 565.931 C 22.226 566.706 21.990 567.586 21.990 568.481 V 698.481 C 21.990 699.376 22.226 700.256 22.673 701.031 C 23.121 701.806 23.765 702.450 24.540 702.898 C 25.315 703.345 26.195 703.581 27.090 703.581 Z" stroke="rgb(0,0,0)" stroke-width="0.20" />
  <text dominant-baseline="hanging" font-size="4px" style="font-family: sans-serif ; font-weight: normal; font-style: normal; fill: rgb(255,0,0)" text-anchor="middle" transform="matrix( 1.000 0.000 0.000 1.000 92.090 631.581 )">frame cover</text>
</g>
<g id="p-2" style="fill:none;stroke-linecap:round;stroke-linejoin:round;">
  <path d="M 92.090 541.781 H 47.090 C 46.230 541.781 45.385 541.554 44.640 541.124 C 43.895 540.694 43.277 540.076 42.847 539.331 C 42.417 538.586 42.190 537.741 42.190 536.881 V 446.881 C 42.190 446.021 42.417 445.176 42.847 444.431 C 43.277 443.686 43.895 443.067 44.640 442.637 C 45.385 442.207 46.230 441.981 47.090 441.981 H 137.090 C 137.950 441.981 138.795 442.207 139.540 442.637 C 140.285 443.067 140.904 443.686 141.334 444.431 C 141.764 445.176 141.990 446.021 141.990 446.881 V 536.881 C 141.990 537.741 141.764 538.586 141.334 539.331 C 140.904 540.076 140.285 540.694 139.540 541.124 C 138.795 541.554 137.950 541.781 137.090 541.781 H 92.090 Z" stroke="rgb(0,0,255)" stroke-width="0.20" />
  <path d="M 50.090 548.281 H 47.190 C 47.090 548.281 47.190 548.381 47.190 548.281 V 545.481 C 47.190 545.381 47.090 545.481 47.190 545.481 H 52.990 C 53.090 545.481 52.990 545.381 52.990 545.481 V 548.281 C 52.990 548.381 53.090 548.281 52.990 548.281 H 50.090 Z" stroke="rgb(0,0,255)" stroke-width="0.20" />
  <path d="M 62.090 548.281 H 59.190 C 59.090 548.281 59.190 548.381 59.190 548.281 V 545.481 C 59.190 545.381 59.090 545.481 59.190 545.481 H 64.990 C 65.090 545.481 64.990 545.381 64.990 545.481 V 548.281 C 64.990 548.381 65.090 548.281 64.990 548.281 H 62.090 Z" stroke="rgb(0,0,255)" stroke-width="0.20" />
  <path d="M 74.090 548.281 H 71.190 C 71.090 548.281 71.190 548.381 71.190 548.281 V 545.481 C 71.190 545.381 71.090 545.481 71.190 545.481 H 76.990 C 77.090 545.481 76.990 545.381 76.990 545.481 V 548.281 C 76.990 548.381 77.090 548.281 76.990 548.281 H 74.090 Z" stroke="rgb(0,0,255)" stroke-width="0.20" />
  <path d="M 86.090 548.281 H 83.190 C 83.090 548.281 83.190 548.381 83.190 548.281 V 545.481 C 83.190 545.381 83.090 545.481 83.190 545.481 H 88.990 C 89.090 545.481 88.990 545.381 88.990 545.481 V 548.281 C 88.990 548.381 89.090 548.281 88.990 548.281 H 86.090 Z" stroke="rgb(0,0,255)" stroke-width="0.20" />
  <path d="M 98.090 548.281 H 95.190 C 95.090 548.281 95.190 548.381 95.190 548.281 V 545.481 C 95.190 545.381 95.090 545.481 95.190 545.481 H 100.990 C 101.090 545.481 100.990 545.381 100.990 545.481 V 548.281 C 100.990 548.381 101.090 548.281 100.990 548.281 H 98.090 Z" stroke="rgb(0,0,255)" stroke-width="0.20" />
  <path d="M 110.090 548.281 H 107.190 C 107.090 548.281 107.190 548.381 107.190 548.281 V 545.481 C 107.190 545.381 107.090 545.481 107.190 545.481 H 112.990 C 113.090 545.481 112.990 545.381 112.990 545.481 V 548.281 C 112.990 548.381 113.090 548.281 112.990 548.281 H 110.090 Z" stroke="rgb(0,0,255)" stroke-width="0.20" />
  <path d="M 122.090 548.281 H 119.190 C 119.090 548.281 119.190 548.381 119.190 548.281 V 545.481 C 119.190 545.381 119.090 545.481 119.190 545.481 H 124.990 C 125.090 545.481 124.990 545.381 124.990 545.481 V 548.281 C 124.990 548.381 125.090 548.281 124.990 548.281 H 122.090 Z" stroke="rgb(0,0,255)" stroke-width="0.20" />
  <path d="M 134.090 548.281 H 131.190 C 131.090 548.281 131.190 548.381 131.190 548.281 V 545.481 C 131.190 545.381 131.090 545.481 131.190 545.481 H 136.990 C 137.090 545.481 136.990 545.381 136.990 545.481 V 548.281 C 136.990 548.381 137.090 548.281 136.990 548.281 H 134.090 Z" stroke="rgb(0,0,255)" stroke-width="0.20" />
  <path d="M 38.490 533.881 V 536.781 C 38.490 536.881 38.590 536.781 38.490 536.781 H 35.690 C 35.590 536.781 35.690 536.881 35.690 536.781 V 530.981 C 35.690 530.881 35.590 530.981 35.690 530.981 H 38.490 C 38.590 530.981 38.490 530.881 38.490 530.981 V 533.881 Z" stroke="rgb(0,0,255)" stroke-width="0.20" />
  <path d="M 38.490 521.881 V 524.781 C 38.490 524.881 38.590 524.781 38.490 524.781 H 35.690 C 35.590 524.781 35.690 524.881 35.690 524.781 V 518.981 C 35.690 518.881 35.590 518.981 35.690 518.981 H 38.490 C 38.590 518.981 38.490 518.881 38.490 518.981 V 521.881 Z" stroke="rgb(0,0,255)" stroke-width="0.20" />
  <path d="M 38.490 509.881 V 512.781 C 38.490 512.881 38.590 512.781 38.490 512.781 H 35.690 C 35.590 512.781 35.690 512.881 35.690 512.781 V 506.981 C 35.690 506.881 35.590 506.981 35.690 506.981 H 38.490 C 38.590 506.981 38.490 506.881 38.490 506.981 V 509.881 Z" stroke="rgb(0,0,255)" stroke-width="0.20" />
  <path d="M 38.490 497.881 V 500.781 C 38.490 500.881 38.590 500.781 38.490 500.781 H 35.690 C 35.590 500.781 35.690 500.881 35.690 500.781 V 494.981 C 35.690 494.881 35.590 494.981 35.690 494.981 H 38.490 C 38.590 494.981 38.490 494.881 38.490 494.981 V 497.881 Z" stroke="rgb(0,0,255)" stroke-width="0.20" />
  <path d="M 38.490 485.881 V 488.781 C 38.490 488.881 38.590 488.781 38.490 488.781 H 35.690 C 35.590 488.781 35.690 488.881 35.690 488.781 V 482.981 C 35.690 482.881 35.590 482.981 35.690 482.981 H 38.490 C 38.590 482.981 38.490 482.881 38.490 482.981 V 485.881 Z" stroke="rgb(0,0,255)" stroke-width="0.20" />
  <path d="M 38.490 473.881 V 476.781 C 38.490 476.881 38.590 476.781 38.490 476.781 H 35.690 C 35.590 476.781 35.690 476.881 35.690 476.781 V 470.981 C 35.690 470.881 35.590 470.981 35.690 470.981 H 38.490 C 38.590 470.981 38.490 470.881 38.490 470.981 V 473.881 Z" stroke="rgb(0,0,255)" stroke-width="0.20" />
  <path d="M 38.490 461.881 V 464.781 C 38.490 464.881 38.590 464.781 38.490 464.781 H 35.690 C 35.590 464.781 35.690 464.881 35.690 464.781 V 458.981 C 35.690 458.881 35.590 458.981 35.690 458.981 H 38.490 C 38.590 458.981 38.490 458.881 38.490 458.981 V 461.881 Z" stroke="rgb(0,0,255)" stroke-width="0.20" />
  <path d="M 38.490 449.881 V 452.781 C 38.490 452.881 38.590 452.781 38.490 452.781 H 35.690 C 35.590 452.781 35.690 452.881 35.690 452.781 V 446.981 C 35.690 446.881 35.590 446.981 35.690 446.981 H 38.490 C 38.590 446.981 38.490 446.881 38.490 446.981 V 449.881 Z" stroke="rgb(0,0,255)" stroke-width="0.20" />
  <path d="M 148.490 533.881 V 536.781 C 148.490 536.881 148.590 536.781 148.490 536.781 H 145.690 C 145.590 536.781 145.690 536.881 145.690 536.781 V 530.981 C 145.690 530.881 145.590 530.981 145.690 530.981 H 148.490 C 148.590 530.981 148.490 530.881 148.490 530.981 V 533.881 Z" stroke="rgb(0,0,255)" stroke-width="0.20" />
  <path d="M 148.490 521.881 V 524.781 C 148.490 524.881 148.590 524.781 148.490 524.781 H 145.690 C 145.590 524.781 145.690 524.881 145.690 524.781 V 518.981 C 145.690 518.881 145.590 518.981 145.690 518.981 H 148.490 C 148.590 518.981 148.490 518.881 148.490 518.981 V 521.881 Z" stroke="rgb(0,0,255)" stroke-width="0.20" />
  <path d="M 148.490 509.881 V 512.781 C 148.490 512.881 148.590 512.781 148.490 512.781 H 145.690 C 145.590 512.781 145.690 512.881 145.690 512.781 V 506.981 C 145.690 506.881 145.590 506.981 145.690 506.981 H 148.490 C 148.590 506.981 148.490 506.881 148.490 506.981 V 509.881 Z" stroke="rgb(0,0,255)" stroke-width="0.20" />
  <path d="M 148.490 497.881 V 500.781 C 148.490 500.881 148.590 500.781 148.490 500.781 H 145.690 C 145.590 500.781 145.690 500.881 145.690 500.781 V 494.981 C 145.690 494.881 145.590 494.981 145.690 494.981 H 148.490 C 148.590 494.981 148.490 494.881 148.490 494.981 V 497.881 Z" stroke="rgb(0,0,255)" stroke-width="0.20" />
  <path d="M 148.490 485.881 V 488.781 C 148.490 488.881 148.590 488.781 148.490 488.781 H 145.690 C 145.590 488.781 145.690 488.881 145.690 488.781 V 482.981 C 145.690 482.881 145.590 482.981 145.690 482.981 H 148.490 C 148.590 482.981 148.490 482.881 148.490 482.981 V 485.881 Z" stroke="rgb(0,0,255)" stroke-width="0.20" />
  <path d="M 148.490 473.881 V 476.781 C 148.490 476.881 148.590 476.781 148.490 476.781 H 145.690 C 145.590 476.781 145.690 476.881 145.690 476.781 V 470.981 C 145.690 470.881 145.590 470.981 145.690 470.981 H 148.490 C 148.590 470.981 148.490 470.881 148.490 470.981 V 473.881 Z" stroke="rgb(0,0,255)" stroke-width="0.20" />
  <path d="M 148.490 461.881 V 464.781 C 148.490 464.881 148.590 464.781 148.490 464.781 H 145.690 C 145.590 464.781 145.690 464.881 145.690 464.781 V 458.981 C 145.690 458.881 145.590 458.981 145.690 458.981 H 148.490 C 148.590 458.981 148.490 458.881 148.490 458.981 V 461.881 Z" stroke="rgb(0,0,255)" stroke-width="0.20" />
  <path d="M 148.490 449.881 V 452.781 C 148.490 452.881 148.590 452.781 148.490 452.781 H 145.690 C 145.590 452.781 145.690 452.881 145.690 452.781 V 446.981 C 145.690 446.881 145.590 446.981 145.690 446.981 H 148.490 C 148.590 446.981 148.490 446.881 148.490 446.981 V 449.881 Z" stroke="rgb(0,0,255)" stroke-width="0.20" />
  <path d="M 27.090 561.881 H 157.090 C 157.985 561.881 158.865 561.645 159.640 561.198 C 160.415 560.750 161.059 560.106 161.507 559.331 C 161.955 558.556 162.190 557.676 162.190 556.781 V 426.781 C 162.190 425.886 161.955 425.006 161.507 424.231 C 161.059 423.456 160.415 422.812 159.640 422.364 C 158.865 421.916 157.985 421.681 157.090 421.681 H 27.090 C 26.195 421.681 25.315 421.916 24.540 422.364 C 23.765 422.812 23.121 423.456 22.673 424.231 C 22.226 425.006 21.990 425.886 21.990 426.781 V 556.781 C 21.990 557.676 22.226 558.556 22.673 559.331 C 23.121 560.106 23.765 560.750 24.540 561.198 C 25.315 561.645 26.195 561.881 27.090 561.881 Z" stroke="rgb(0,0,0)" stroke-width="0.20" />
  <text dominant-baseline="hanging" font-size="4px" style="font-family: sans-serif ; font-weight: normal; font-style: normal; fill: rgb(255,0,0)" text-anchor="middle" transform="matrix( 1.000 0.000 0.000 1.000 92.090 489.881 )">frame plate</text>
</g>
<g id="p-3" style="fill:none;stroke-linecap:round;stroke-linejoin:round;">
  <path d="M 25.090 420.181 H 28.090 C 28.145 420.181 28.190 420.136 28.190 420.081 V 417.181 C 28.190 417.081 28.090 417.181 28.190 417.181 H 36.590 C 36.645 417.181 36.690 417.136 36.690 417.081 V 414.181 C 36.690 414.081 36.590 414.181 36.690 414.181 H 42.490 C 42.590 414.181 42.490 414.081 42.490 414.181 V 417.081 C 42.490 417.136 42.535 417.181 42.590 417.181 H 48.590 C 48.645 417.181 48.690 417.136 48.690 417.081 V 414.181 C 48.690 414.081 48.590 414.181 48.690 414.181 H 54.490 C 54.590 414.181 54.490 414.081 54.490 414.181 V 417.081 C 54.490 417.136 54.535 417.181 54.590 417.181 H 60.590 C 60.645 417.181 60.690 417.136 60.690 417.081 V 414.181 C 60.690 414.081 60.590 414.181 60.690 414.181 H 66.490 C 66.590 414.181 66.490 414.081 66.490 414.181 V 417.081 C 66.490 417.136 66.535 417.181 66.590 417.181 H 72.590 C 72.645 417.181 72.690 417.136 72.690 417.081 V 414.181 C 72.690 414.081 72.590 414.181 72.690 414.181 H 78.490 C 78.590 414.181 78.490 414.081 78.490 414.181 V 417.081 C 78.490 417.136 78.535 417.181 78.590 417.181 H 84.590 C 84.645 417.181 84.690 417.136 84.690 417.081 V 414.181 C 84.690 414.081 84.590 414.181 84.690 414.181 H 90.490 C 90.590 414.181 90.490 414.081 90.490 414.181 V 417.081 C 90.490 417.136 90.535 417.181 90.590 417.181 H 96.590 C 96.645 417.181 96.690 417.136 96.690 417.081 V 414.181 C 96.690 414.081 96.590 414.181 96.690 414.181 H 102.490 C 102.590 414.181 102.490 414.081 102.490 414.181 V 417.081 C 102.490 417.136 102.535 417.181 102.590 417.181 H 108.590 C 108.645 417.181 108.690 417.136 108.690 417.081 V 414.181 C 108.690 414.081 108.590 414.181 108.690 414.181 H 114.490 C 114.590 414.181 114.490 414.081 114.490 414.181 V 417.081 C 114.490 417.136 114.535 417.181 114.590 417.181 H 120.590 C 120.645 417.181 120.690 417.136 120.690 417.081 V 414.181 C 120.690 414.081 120.590 414.181 120.690 414.181 H 126.490 C 126.590 414.181 126.490 414.081 126.490 414.181 V 417.081 C 126.490 417.136 126.535 417.181 126.590 417.181 H 134.990 C 135.090 417.181 134.990 417.081 134.990 417.181 V 420.081 C 134.990 420.136 135.035 420.181 135.090 420.181 H 138.090 C 138.145 420.181 138.190 420.136 138.190 420.081 V 417.181 C 138.190 417.081 138.090 417.181 138.190 417.181 H 141.090 C 141.145 417.181 141.190 417.136 141.190 417.081 V 414.081 C 141.190 414.026 141.145 413.981 141.090 413.981 H 138.190 C 138.090 413.981 138.190 414.081 138.190 413.981 V 405.581 C 138.190 405.526 138.145 405.481 138.090 405.481 H 135.190 C 135.090 405.481 135.190 405.581 135.190 405.481 V 399.681 C 135.190 399.581 135.090 399.681 135.190 399.681 H 138.090 C 138.145 399.681 138.190 399.636 138.190 399.581 V 393.581 C 138.190 393.526 138.145 393.481 138.090 393.481 H 135.190 C 135.090 393.481 135.190 393.581 135.190 393.481 V 387.681 C 135.190 387.581 135.090 387.681 135.190 387.681 H 138.090 C 138.145 387.681 138.190 387.636 138.190 387.581 V 381.581 C 138.190 381.526 138.145 381.481 138.090 381.481 H 135.190 C 135.090 381.481 135.190 381.581 135.190 381.481 V 375.681 C 135.190 375.581 135.090 375.681 135.190 375.681 H 138.090 C 138.145 375.681 138.190 375.636 138.190 375.581 V 369.581 C 138.190 369.526 138.145 369.481 138.090 369.481 H 135.190 C 135.090 369.481 135.190 369.581 135.190 369.481 V 363.681 C 135.190 363.581 135.090 363.681 135.190 363.681 H 138.090 C 138.145 363.681 138.190 363.636 138.190 363.581 V 357.581 C 138.190 357.526 138.145 357.481 138.090 357.481 H 135.190 C 135.090 357.481 135.190 357.581 135.190 357.481 V 351.681 C 135.190 351.581 135.090 351.681 135.190 351.681 H 138.090 C 138.145 351.681 138.190 351.636 138.190 351.581 V 345.581 C 138.190 345.526 138.145 345.481 138.090 345.481 H 135.190 C 135.090 345.481 135.190 345.581 135.190 345.481 V 339.681 C 135.190 339.581 135.090 339.681 135.190 339.681 H 138.090 C 138.145 339.681 138.190 339.636 138.190 339.581 V 333.581 C 138.190 333.526 138.145 333.481 138.090 333.481 H 135.190 C 135.090 333.481 135.190 333.581 135.190 333.481 V 327.681 C 135.190 327.581 135.090 327.681 135.190 327.681 H 138.090 C 138.145 327.681 138.190 327.636 138.190 327.581 V 321.581 C 138.190 321.526 138.145 321.481 138.090 321.481 H 135.190 C 135.090 321.481 135.190 321.581 135.190 321.481 V 315.681 C 135.190 315.581 135.090 315.681 135.190 315.681 H 138.090 C 138.145 315.681 138.190 315.636 138.190 315.581 V 307.181 C 138.190 307.081 138.090 307.181 138.190 307.181 H 141.090 C 141.145 307.181 141.190 307.136 141.190 307.081 V 304.081 C 141.190 304.026 141.145 303.981 141.090 303.981 H 138.190 C 138.090 303.981 138.190 304.081 138.190 303.981 V 301.081 C 138.190 301.026 138.145 300.981 138.090 300.981 H 135.090 C 135.035 300.981 134.990 301.026 134.990 301.081 V 303.981 C 134.990 304.081 135.090 303.981 134.990 303.981 H 28.190 C 28.090 303.981 28.190 304.081 28.190 303.981 V 301.081 C 28.190 301.026 28.145 300.981 28.090 300.981 H 25.090 C 25.035 300.981 24.990 301.026 24.990 301.081 V 303.981 C 24.990 304.081 25.090 303.981 24.990 303.981 H 22.090 C 22.035 303.981 21.990 304.026 21.990 304.081 V 307.081 C 21.990 307.136 22.035 307.181 22.090 307.181 H 24.990 C 25.090 307.181 24.990 307.081 24.990 307.181 V 315.581 C 24.990 315.636 25.035 315.681 25.090 315.681 H 27.990 C 28.090 315.681 27.990 315.581 27.990 315.681 V 321.481 C 27.990 321.581 28.090 321.481 27.990 321.481 H 25.090 C 25.035 321.481 24.990 321.526 24.990 321.581 V 327.581 C 24.990 327.636 25.035 327.681 25.090 327.681 H 27.990 C 28.090 327.681 27.990 327.581 27.990 327.681 V 333.481 C 27.990 333.581 28.090 333.481 27.990 333.481 H 25.090 C 25.035 333.481 24.990 333.526 24.990 333.581 V 339.581 C 24.990 339.636 25.035 339.681 25.090 339.681 H 27.990 C 28.090 339.681 27.990 339.581 27.990 339.681 V 345.481 C 27.990 345.581 28.090 345.481 27.990 345.481 H 25.090 C 25.035 345.481 24.990 345.526 24.990 345.581 V 351.581 C 24.990 351.636 25.035 351.681 25.090 351.681 H 27.990 C 28.090 351.681 27.990 351.581 27.990 351.681 V 357.481 C 27.990 357.581 28.090 357.481 27.990 357.481 H 25.090 C 25.035 357.481 24.990 357.526 24.990 357.581 V 363.581 C 24.990 363.636 25.035 363.681 25.090 363.681 H 27.990 C 28.090 363.681 27.990 363.581 27.990 363.681 V 369.481 C 27.990 369.581 28.090 369.481 27.990 369.481 H 25.090 C 25.035 369.481 24.990 369.526 24.990 369.581 V 375.581 C 24.990 375.636 25.035 375.681 25.090 375.681 H 27.990 C 28.090 375.681 27.990 375.581 27.990 375.681 V 381.481 C 27.990 381.581 28.090 381.481 27.990 381.481 H 25.090 C 25.035 381.481 24.990 381.526 24.990 381.581 V 387.581 C 24.990 387.636 25.035 387.681 25.090 387.681 H 27.990 C 28.090 387.681 27.990 387.581 27.990 387.681 V 393.481 C 27.990 393.581 28.090 393.481 27.990 393.481 H 25.090 C 25.035 393.481 24.990 393.526 24.990 393.581 V 399.581 C 24.990 399.636 25.035 399.681 25.090 399.681 H 27.990 C 28.090 399.681 27.990 399.581 27.990 399.681 V 405.481 C 27.990 405.581 28.090 405.481 27.990 405.481 H 25.090 C 25.035 405.481 24.990 405.526 24.990 405.581 V 413.981 C 24.990 414.081 25.090 413.981 24.990 413.981 H 22.090 C 22.035 413.981 21.990 414.026 21.990 414.081 V 417.081 C 21.990 417.136 22.035 417.181 22.090 417.181 H 24.990 C 25.090 417.181 24.990 417.081 24.990 417.181 V 420.081 C 24.990 420.136 25.035 420.181 25.090 420.181 Z" stroke="rgb(0,0,0)" stroke-width="0.20" />
  <text dominant-baseline="hanging" font-size="4px" style="font-family: sans-serif ; font-weight: normal; font-style: normal; fill: rgb(255,0,0)" text-anchor="middle" transform="matrix( 1.000 0.000 0.000 1.000 81.590 358.681 )">back plate</text>
</g>
<g id="p-4" style="fill:none;stroke-linecap:round;stroke-linejoin:round;">
  <path d="M 25.090 296.481 H 33.490 C 33.590 296.481 33.490 296.381 33.490 296.481 V 299.381 C 33.490 299.436 33.535 299.481 33.590 299.481 H 39.590 C 39.645 299.481 39.690 299.436 39.690 299.381 V 296.481 C 39.690 296.381 39.590 296.481 39.690 296.481 H 45.490 C 45.590 296.481 45.490 296.381 45.490 296.481 V 299.381 C 45.490 299.436 45.535 299.481 45.590 299.481 H 51.590 C 51.645 299.481 51.690 299.436 51.690 299.381 V 296.481 C 51.690 296.381 51.590 296.481 51.690 296.481 H 57.490 C 57.590 296.481 57.490 296.381 57.490 296.481 V 299.381 C 57.490 299.436 57.535 299.481 57.590 299.481 H 63.590 C 63.645 299.481 63.690 299.436 63.690 299.381 V 296.481 C 63.690 296.381 63.590 296.481 63.690 296.481 H 69.490 C 69.590 296.481 69.490 296.381 69.490 296.481 V 299.381 C 69.490 299.436 69.535 299.481 69.590 299.481 H 75.590 C 75.645 299.481 75.690 299.436 75.690 299.381 V 296.481 C 75.690 296.381 75.590 296.481 75.690 296.481 H 81.490 C 81.590 296.481 81.490 296.381 81.490 296.481 V 299.381 C 81.490 299.436 81.535 299.481 81.590 299.481 H 87.590 C 87.645 299.481 87.690 299.436 87.690 299.381 V 296.481 C 87.690 296.381 87.590 296.481 87.690 296.481 H 93.490 C 93.590 296.481 93.490 296.381 93.490 296.481 V 299.381 C 93.490 299.436 93.535 299.481 93.590 299.481 H 99.590 C 99.645 299.481 99.690 299.436 99.690 299.381 V 296.481 C 99.690 296.381 99.590 296.481 99.690 296.481 H 105.490 C 105.590 296.481 105.490 296.381 105.490 296.481 V 299.381 C 105.490 299.436 105.535 299.481 105.590 299.481 H 111.590 C 111.645 299.481 111.690 299.436 111.690 299.381 V 296.481 C 111.690 296.381 111.590 296.481 111.690 296.481 H 117.490 C 117.590 296.481 117.490 296.381 117.490 296.481 V 299.381 C 117.490 299.436 117.535 299.481 117.590 299.481 H 123.590 C 123.645 299.481 123.690 299.436 123.690 299.381 V 296.481 C 123.690 296.381 123.590 296.481 123.690 296.481 H 132.090 H 135.090 C 135.145 296.481 135.190 296.436 135.190 296.381 V 290.381 C 135.190 290.326 135.145 290.281 135.090 290.281 H 132.090 H 123.690 C 123.590 290.281 123.690 290.381 123.690 290.281 V 287.381 C 123.690 287.326 123.645 287.281 123.590 287.281 H 117.590 C 117.535 287.281 117.490 287.326 117.490 287.381 V 290.281 C 117.490 290.381 117.590 290.281 117.490 290.281 H 111.690 C 111.590 290.281 111.690 290.381 111.690 290.281 V 287.381 C 111.690 287.326 111.645 287.281 111.590 287.281 H 105.590 C 105.535 287.281 105.490 287.326 105.490 287.381 V 290.281 C 105.490 290.381 105.590 290.281 105.490 290.281 H 99.690 C 99.590 290.281 99.690 290.381 99.690 290.281 V 287.381 C 99.690 287.326 99.645 287.281 99.590 287.281 H 93.590 C 93.535 287.281 93.490 287.326 93.490 287.381 V 290.281 C 93.490 290.381 93.590 290.281 93.490 290.281 H 87.690 C 87.590 290.281 87.690 290.381 87.690 290.281 V 287.381 C 87.690 287.326 87.645 287.281 87.590 287.281 H 81.590 C 81.535 287.281 81.490 287.326 81.490 287.381 V 290.281 C 81.490 290.381 81.590 290.281 81.490 290.281 H 75.690 C 75.590 290.281 75.690 290.381 75.690 290.281 V 287.381 C 75.690 287.326 75.645 287.281 75.590 287.281 H 69.590 C 69.535 287.281 69.490 287.326 69.490 287.381 V 290.281 C 69.490 290.381 69.590 290.281 69.490 290.281 H 63.690 C 63.590 290.281 63.690 290.381 63.690 290.281 V 287.381 C 63.690 287.326 63.645 287.281 63.590 287.281 H 57.590 C 57.535 287.281 57.490 287.326 57.490 287.381 V 290.281 C 57.490 290.381 57.590 290.281 57.490 290.281 H 51.690 C 51.590 290.281 51.690 290.381 51.690 290.281 V 287.381 C 51.690 287.326 51.645 287.281 51.590 287.281 H 45.590 C 45.535 287.281 45.490 287.326 45.490 287.381 V 290.281 C 45.490 290.381 45.590 290.281 45.490 290.281 H 39.690 C 39.590 290.281 39.690 290.381 39.690 290.281 V 287.381 C 39.690 287.326 39.645 287.281 39.590 287.281 H 33.590 C 33.535 287.281 33.490 287.326 33.490 287.381 V 290.281 C 33.490 290.381 33.590 290.281 33.490 290.281 H 25.090 H 22.090 C 22.035 290.281 21.990 290.326 21.990 290.381 V 296.381 C 21.990 296.436 22.035 296.481 22.090 296.481 H 25.090 Z" stroke="rgb(0,0,0)" stroke-width="0.20" />
  <text dominant-baseline="hanging" font-size="4px" style="font-family: sans-serif ; font-weight: normal; font-style: normal; fill: rgb(255,0,0)" text-anchor="middle" transform="matrix( 1.000 0.000 0.000 1.000 78.590 291.481 )">side</text>
</g>
<g id="p-5" style="fill:none;stroke-linecap:round;stroke-linejoin:round;">
  <path d="M 132.090 282.781 H 123.690 C 123.590 282.781 123.690 282.681 123.690 282.781 V 285.681 C 123.690 285.736 123.645 285.781 123.590 285.781 H 117.590 C 117.535 285.781 117.490 285.736 117.490 285.681 V 282.781 C 117.490 282.681 117.590 282.781 117.490 282.781 H 111.690 C 111.590 282.781 111.690 282.681 111.690 282.781 V 285.681 C 111.690 285.736 111.645 285.781 111.590 285.781 H 105.590 C 105.535 285.781 105.490 285.736 105.490 285.681 V 282.781 C 105.490 282.681 105.590 282.781 105.490 282.781 H 99.690 C 99.590 282.781 99.690 282.681 99.690 282.781 V 285.681 C 99.690 285.736 99.645 285.781 99.590 285.781 H 93.590 C 93.535 285.781 93.490 285.736 93.490 285.681 V 282.781 C 93.490 282.681 93.590 282.781 93.490 282.781 H 87.690 C 87.590 282.781 87.690 282.681 87.690 282.781 V 285.681 C 87.690 285.736 87.645 285.781 87.590 285.781 H 81.590 C 81.535 285.781 81.490 285.736 81.490 285.681 V 282.781 C 81.490 282.681 81.590 282.781 81.490 282.781 H 75.690 C 75.590 282.781 75.690 282.681 75.690 282.781 V 285.681 C 75.690 285.736 75.645 285.781 75.590 285.781 H 69.590 C 69.535 285.781 69.490 285.736 69.490 285.681 V 282.781 C 69.490 282.681 69.590 282.781 69.490 282.781 H 63.690 C 63.590 282.781 63.690 282.681 63.690 282.781 V 285.681 C 63.690 285.736 63.645 285.781 63.590 285.781 H 57.590 C 57.535 285.781 57.490 285.736 57.490 285.681 V 282.781 C 57.490 282.681 57.590 282.781 57.490 282.781 H 51.690 C 51.590 282.781 51.690 282.681 51.690 282.781 V 285.681 C 51.690 285.736 51.645 285.781 51.590 285.781 H 45.590 C 45.535 285.781 45.490 285.736 45.490 285.681 V 282.781 C 45.490 282.681 45.590 282.781 45.490 282.781 H 39.690 C 39.590 282.781 39.690 282.681 39.690 282.781 V 285.681 C 39.690 285.736 39.645 285.781 39.590 285.781 H 33.590 C 33.535 285.781 33.490 285.736 33.490 285.681 V 282.781 C 33.490 282.681 33.590 282.781 33.490 282.781 H 25.090 H 22.090 C 22.035 282.781 21.990 282.736 21.990 282.681 V 276.681 C 21.990 276.626 22.035 276.581 22.090 276.581 H 25.090 H 33.490 C 33.590 276.581 33.490 276.681 33.490 276.581 V 273.681 C 33.490 273.626 33.535 273.581 33.590 273.581 H 39.590 C 39.645 273.581 39.690 273.626 39.690 273.681 V 276.581 C 39.690 276.681 39.590 276.581 39.690 276.581 H 45.490 C 45.590 276.581 45.490 276.681 45.490 276.581 V 273.681 C 45.490 273.626 45.535 273.581 45.590 273.581 H 51.590 C 51.645 273.581 51.690 273.626 51.690 273.681 V 276.581 C 51.690 276.681 51.590 276.581 51.690 276.581 H 57.490 C 57.590 276.581 57.490 276.681 57.490 276.581 V 273.681 C 57.490 273.626 57.535 273.581 57.590 273.581 H 63.590 C 63.645 273.581 63.690 273.626 63.690 273.681 V 276.581 C 63.690 276.681 63.590 276.581 63.690 276.581 H 69.490 C 69.590 276.581 69.490 276.681 69.490 276.581 V 273.681 C 69.490 273.626 69.535 273.581 69.590 273.581 H 75.590 C 75.645 273.581 75.690 273.626 75.690 273.681 V 276.581 C 75.690 276.681 75.590 276.581 75.690 276.581 H 81.490 C 81.590 276.581 81.490 276.681 81.490 276.581 V 273.681 C 81.490 273.626 81.535 273.581 81.590 273.581 H 87.590 C 87.645 273.581 87.690 273.626 87.690 273.681 V 276.581 C 87.690 276.681 87.590 276.581 87.690 276.581 H 93.490 C 93.590 276.581 93.490 276.681 93.490 276.581 V 273.681 C 93.490 273.626 93.535 273.581 93.590 273.581 H 99.590 C 99.645 273.581 99.690 273.626 99.690 273.681 V 276.581 C 99.690 276.681 99.590 276.581 99.690 276.581 H 105.490 C 105.590 276.581 105.490 276.681 105.490 276.581 V 273.681 C 105.490 273.626 105.535 273.581 105.590 273.581 H 111.590 C 111.645 273.581 111.690 273.626 111.690 273.681 V 276.581 C 111.690 276.681 111.590 276.581 111.690 276.581 H 117.490 C 117.590 276.581 117.490 276.681 117.490 276.581 V 273.681 C 117.490 273.626 117.535 273.581 117.590 273.581 H 123.590 C 123.645 273.581 123.690 273.626 123.690 273.681 V 276.581 C 123.690 276.681 123.590 276.581 123.690 276.581 H 132.090 H 135.090 C 135.145 276.581 135.190 276.626 135.190 276.681 V 282.681 C 135.190 282.736 135.145 282.781 135.090 282.781 H 132.090 Z" stroke="rgb(0,0,0)" stroke-width="0.20" />
  <text dominant-baseline="hanging" font-size="4px" style="font-family: sans-serif ; font-weight: normal; font-style: normal; fill: rgb(255,0,0)" text-anchor="middle" transform="matrix( 1.000 0.000 0.000 1.000 78.590 277.781 )">side</text>
</g>
<g id="p-6" style="fill:none;stroke-linecap:round;stroke-linejoin:round;">
  <path d="M 22.090 269.081 H 30.490 C 30.590 269.081 30.490 268.981 30.490 269.081 V 271.981 C 30.490 272.036 30.535 272.081 30.590 272.081 H 36.590 C 36.645 272.081 36.690 272.036 36.690 271.981 V 269.081 C 36.690 268.981 36.590 269.081 36.690 269.081 H 42.490 C 42.590 269.081 42.490 268.981 42.490 269.081 V 271.981 C 42.490 272.036 42.535 272.081 42.590 272.081 H 48.590 C 48.645 272.081 48.690 272.036 48.690 271.981 V 269.081 C 48.690 268.981 48.590 269.081 48.690 269.081 H 54.490 C 54.590 269.081 54.490 268.981 54.490 269.081 V 271.981 C 54.490 272.036 54.535 272.081 54.590 272.081 H 60.590 C 60.645 272.081 60.690 272.036 60.690 271.981 V 269.081 C 60.690 268.981 60.590 269.081 60.690 269.081 H 66.490 C 66.590 269.081 66.490 268.981 66.490 269.081 V 271.981 C 66.490 272.036 66.535 272.081 66.590 272.081 H 72.590 C 72.645 272.081 72.690 272.036 72.690 271.981 V 269.081 C 72.690 268.981 72.590 269.081 72.690 269.081 H 78.490 C 78.590 269.081 78.490 268.981 78.490 269.081 V 271.981 C 78.490 272.036 78.535 272.081 78.590 272.081 H 84.590 C 84.645 272.081 84.690 272.036 84.690 271.981 V 269.081 C 84.690 268.981 84.590 269.081 84.690 269.081 H 90.490 C 90.590 269.081 90.490 268.981 90.490 269.081 V 271.981 C 90.490 272.036 90.535 272.081 90.590 272.081 H 96.590 C 96.645 272.081 96.690 272.036 96.690 271.981 V 269.081 C 96.690 268.981 96.590 269.081 96.690 269.081 H 102.490 C 102.590 269.081 102.490 268.981 102.490 269.081 V 271.981 C 102.490 272.036 102.535 272.081 102.590 272.081 H 108.590 C 108.645 272.081 108.690 272.036 108.690 271.981 V 269.081 C 108.690 268.981 108.590 269.081 108.690 269.081 H 114.490 C 114.590 269.081 114.490 268.981 114.490 269.081 V 271.981 C 114.490 272.036 114.535 272.081 114.590 272.081 H 120.590 C 120.645 272.081 120.690 272.036 120.690 271.981 V 269.081 C 120.690 268.981 120.590 269.081 120.690 269.081 H 129.090 C 129.145 269.081 129.190 269.036 129.190 268.981 V 262.981 C 129.190 262.926 129.145 262.881 129.090 262.881 H 120.690 C 120.590 262.881 120.690 262.981 120.690 262.881 V 259.981 C 120.690 259.926 120.645 259.881 120.590 259.881 H 114.590 C 114.535 259.881 114.490 259.926 114.490 259.981 V 262.881 C 114.490 262.981 114.590 262.881 114.490 262.881 H 108.690 C 108.590 262.881 108.690 262.981 108.690 262.881 V 259.981 C 108.690 259.926 108.645 259.881 108.590 259.881 H 102.590 C 102.535 259.881 102.490 259.926 102.490 259.981 V 262.881 C 102.490 262.981 102.590 262.881 102.490 262.881 H 96.690 C 96.590 262.881 96.690 262.981 96.690 262.881 V 259.981 C 96.690 259.926 96.645 259.881 96.590 259.881 H 90.590 C 90.535 259.881 90.490 259.926 90.490 259.981 V 262.881 C 90.490 262.981 90.590 262.881 90.490 262.881 H 84.690 C 84.590 262.881 84.690 262.981 84.690 262.881 V 259.981 C 84.690 259.926 84.645 259.881 84.590 259.881 H 78.590 C 78.535 259.881 78.490 259.926 78.490 259.981 V 262.881 C 78.490 262.981 78.590 262.881 78.490 262.881 H 72.690 C 72.590 262.881 72.690 262.981 72.690 262.881 V 259.981 C 72.690 259.926 72.645 259.881 72.590 259.881 H 66.590 C 66.535 259.881 66.490 259.926 66.490 259.981 V 262.881 C 66.490 262.981 66.590 262.881 66.490 262.881 H 60.690 C 60.590 262.881 60.690 262.981 60.690 262.881 V 259.981 C 60.690 259.926 60.645 259.881 60.590 259.881 H 54.590 C 54.535 259.881 54.490 259.926 54.490 259.981 V 262.881 C 54.490 262.981 54.590 262.881 54.490 262.881 H 48.690 C 48.590 262.881 48.690 262.981 48.690 262.881 V 259.981 C 48.690 259.926 48.645 259.881 48.590 259.881 H 42.590 C 42.535 259.881 42.490 259.926 42.490 259.981 V 262.881 C 42.490 262.981 42.590 262.881 42.490 262.881 H 36.690 C 36.590 262.881 36.690 262.981 36.690 262.881 V 259.981 C 36.690 259.926 36.645 259.881 36.590 259.881 H 30.590 C 30.535 259.881 30.490 259.926 30.490 259.981 V 262.881 C 30.490 262.981 30.590 262.881 30.490 262.881 H 22.090 C 22.035 262.881 21.990 262.926 21.990 262.981 V 268.981 C 21.990 269.036 22.035 269.081 22.090 269.081 Z" stroke="rgb(0,0,0)" stroke-width="0.20" />
  <text dominant-baseline="hanging" font-size="4px" style="font-family: sans-serif ; font-weight: normal; font-style: normal; fill: rgb(255,0,0)" text-anchor="middle" transform="matrix( 1.000 0.000 0.000 1.000 75.590 264.081 )">bottom</text>
</g>
<g id="p-7" style="fill:none;stroke-linecap:round;stroke-linejoin:round;">
  <path d="M 75.090 255.281 H 25.190 C 25.090 255.281 25.190 255.381 25.190 255.281 V 155.481 C 25.190 155.381 25.090 155.481 25.190 155.481 H 124.990 C 125.090 155.481 124.990 155.381 124.990 155.481 V 255.281 C 124.990 255.381 125.090 255.281 124.990 255.281 H 75.090 Z" stroke="rgb(255,0,0)" stroke-width="0.20" />
  <path d="M 25.090 258.381 H 125.090 C 125.634 258.381 126.169 258.238 126.640 257.966 C 127.111 257.693 127.503 257.302 127.775 256.831 C 128.047 256.360 128.190 255.825 128.190 255.281 V 155.281 C 128.190 154.737 128.047 154.202 127.775 153.731 C 127.503 153.260 127.111 152.868 126.640 152.596 C 126.169 152.324 125.634 152.181 125.090 152.181 H 25.090 C 24.546 152.181 24.011 152.324 23.540 152.596 C 23.069 152.868 22.678 153.260 22.406 153.731 C 22.133 154.202 21.990 154.737 21.990 155.281 V 255.281 C 21.990 255.825 22.133 256.360 22.406 256.831 C 22.678 257.302 23.069 257.693 23.540 257.966 C 24.011 258.238 24.546 258.381 25.090 258.381 Z" stroke="rgb(0,0,0)" stroke-width="0.20" />
  <text dominant-baseline="hanging" font-size="4px" style="font-family: sans-serif ; font-weight: normal; font-style: normal; fill: rgb(255,0,0)" text-anchor="middle" transform="matrix( 1.000 0.000 0.000 1.000 75.090 203.381 )">engraving plate</text>
</g>
<g id="p-8" style="fill:none;stroke-linecap:round;stroke-linejoin:round;">
  <path d="M 35.385 144.581 H 32.485 C 32.385 144.581 32.485 144.681 32.485 144.581 V 141.781 C 32.485 141.681 32.385 141.781 32.485 141.781 H 38.285 C 38.385 141.781 38.285 141.681 38.285 141.781 V 144.581 C 38.285 144.681 38.385 144.581 38.285 144.581 H 35.385 Z" stroke="rgb(0,0,255)" stroke-width="0.20" />
  <path d="M 22.090 150.681 H 54.681 C 55.225 150.681 55.759 150.538 56.231 150.266 C 56.702 149.993 57.093 149.602 57.365 149.131 C 57.637 148.660 57.781 148.125 57.781 147.581 V 138.581 C 57.781 138.037 57.637 137.502 57.365 137.031 C 57.093 136.560 56.702 136.168 56.231 135.896 C 55.759 135.624 55.225 135.481 54.681 135.481 H 22.090 C 21.546 135.481 21.011 135.624 20.540 135.896 C 20.069 136.168 19.678 136.560 19.406 137.031 C 19.133 137.502 18.990 138.037 18.990 138.581 V 147.581 C 18.990 148.125 19.133 148.660 19.406 149.131 C 19.678 149.602 20.069 149.993 20.540 150.266 C 21.011 150.538 21.546 150.681 22.090 150.681 Z" stroke="rgb(0,0,0)" stroke-width="0.20" />
  <text dominant-baseline="hanging" font-size="4px" style="font-family: sans-serif ; font-weight: normal; font-style: normal; fill: rgb(255,0,0)" text-anchor="middle" transform="matrix( 1.000 0.000 0.000 1.000 38.385 141.181 )">foot</text>
</g>
<g id="p-9" style="fill:none;stroke-linecap:round;stroke-linejoin:round;">
  <path d="M 35.385 127.881 H 32.485 C 32.385 127.881 32.485 127.981 32.485 127.881 V 125.081 C 32.485 124.981 32.385 125.081 32.485 125.081 H 38.285 C 38.385 125.081 38.285 124.981 38.285 125.081 V 127.881 C 38.285 127.981 38.385 127.881 38.285 127.881 H 35.385 Z" stroke="rgb(0,0,255)" stroke-width="0.20" />
  <path d="M 22.090 133.981 H 54.681 C 55.225 133.981 55.759 133.838 56.231 133.566 C 56.702 133.293 57.093 132.902 57.365 132.431 C 57.637 131.960 57.781 131.425 57.781 130.881 V 121.881 C 57.781 121.337 57.637 120.802 57.365 120.331 C 57.093 119.860 56.702 119.468 56.231 119.196 C 55.759 118.924 55.225 118.781 54.681 118.781 H 22.090 C 21.546 118.781 21.011 118.924 20.540 119.196 C 20.069 119.468 19.678 119.860 19.406 120.331 C 19.133 120.802 18.990 121.337 18.990 121.881 V 130.881 C 18.990 131.425 19.133 131.960 19.406 132.431 C 19.678 132.902 20.069 133.293 20.540 133.566 C 21.011 133.838 21.546 133.981 22.090 133.981 Z" stroke="rgb(0,0,0)" stroke-width="0.20" />
  <text dominant-baseline="hanging" font-size="4px" style="font-family: sans-serif ; font-weight: normal; font-style: normal; fill: rgb(255,0,0)" text-anchor="middle" transform="matrix( 1.000 0.000 0.000 1.000 38.385 124.481 )">foot</text>
</g>
<g id="p-10" style="fill:none;stroke-linecap:round;stroke-linejoin:round;">
  <path d="M 26.590 114.681 H 24.690 C 24.590 114.681 24.690 114.781 24.690 114.681 V 110.881 C 24.690 110.781 24.590 110.881 24.690 110.881 H 28.490 C 28.590 110.881 28.490 110.781 28.490 110.881 V 114.681 C 28.490 114.781 28.590 114.681 28.490 114.681 H 26.590 Z" stroke="rgb(0,0,255)" stroke-width="0.20" />
  <path d="M 22.090 117.281 H 48.310 C 48.365 117.281 48.410 117.236 48.410 117.181 V 114.131 C 48.410 114.076 48.365 114.031 48.310 114.031 H 38.800 C 38.700 114.031 38.800 114.131 38.800 114.031 V 111.331 C 38.800 111.231 38.700 111.331 38.800 111.331 H 48.310 C 48.365 111.331 48.410 111.286 48.410 111.231 V 108.181 C 48.410 108.126 48.365 108.081 48.310 108.081 H 22.090 C 22.035 108.081 21.990 108.126 21.990 108.181 V 117.181 C 21.990 117.236 22.035 117.281 22.090 117.281 Z" stroke="rgb(0,0,0)" stroke-width="0.20" />
  <text dominant-baseline="hanging" font-size="4px" style="font-family: sans-serif ; font-weight: normal; font-style: normal; fill: rgb(255,0,0)" text-anchor="middle" transform="matrix( 1.000 0.000 0.000 1.000 35.200 110.781 )">support horizontal</text>
</g>
<g id="p-11" style="fill:none;stroke-linecap:round;stroke-linejoin:round;">
  <path d="M 26.590 103.981 H 24.690 C 24.590 103.981 24.690 104.081 24.690 103.981 V 100.181 C 24.690 100.081 24.590 100.181 24.690 100.181 H 28.490 C 28.590 100.181 28.490 100.081 28.490 100.181 V 103.981 C 28.490 104.081 28.590 103.981 28.490 103.981 H 26.590 Z" stroke="rgb(0,0,255)" stroke-width="0.20" />
  <path d="M 22.090 106.581 H 48.310 C 48.365 106.581 48.410 106.536 48.410 106.481 V 103.431 C 48.410 103.376 48.365 103.331 48.310 103.331 H 38.800 C 38.700 103.331 38.800 103.431 38.800 103.331 V 100.631 C 38.800 100.531 38.700 100.631 38.800 100.631 H 48.310 C 48.365 100.631 48.410 100.586 48.410 100.531 V 97.481 C 48.410 97.426 48.365 97.381 48.310 97.381 H 22.090 C 22.035 97.381 21.990 97.426 21.990 97.481 V 106.481 C 21.990 106.536 22.035 106.581 22.090 106.581 Z" stroke="rgb(0,0,0)" stroke-width="0.20" />
  <text dominant-baseline="hanging" font-size="4px" style="font-family: sans-serif ; font-weight: normal; font-style: normal; fill: rgb(255,0,0)" text-anchor="middle" transform="matrix( 1.000 0.000 0.000 1.000 35.200 100.081 )">support horizontal</text>
</g>
<g id="p-12" style="fill:none;stroke-linecap:round;stroke-linejoin:round;">
  <path d="M 22.090 95.881 H 131.140 C 131.195 95.881 131.240 95.836 131.240 95.781 V 86.271 C 131.240 86.171 131.140 86.271 131.240 86.271 H 133.940 C 134.040 86.271 133.940 86.171 133.940 86.271 V 95.781 C 133.940 95.836 133.985 95.881 134.040 95.881 H 140.666 C 140.728 95.881 140.775 95.825 140.764 95.763 L 138.994 85.723 C 138.976 85.625 138.895 85.741 138.994 85.723 L 141.850 85.220 C 141.904 85.210 141.940 85.158 141.931 85.104 L 140.889 79.195 C 140.879 79.140 140.827 79.104 140.773 79.114 L 137.917 79.617 C 137.819 79.635 137.935 79.716 137.917 79.617 L 136.147 69.577 C 136.137 69.523 136.085 69.486 136.031 69.496 L 127.118 71.067 C 127.064 71.077 127.028 71.129 127.037 71.183 L 127.541 74.039 C 127.558 74.138 127.639 74.022 127.541 74.039 L 124.882 74.508 C 124.783 74.525 124.899 74.607 124.882 74.508 L 124.378 71.652 C 124.369 71.598 124.317 71.561 124.262 71.571 L 29.845 88.219 C 29.791 88.229 29.754 88.281 29.764 88.335 L 30.267 91.191 C 30.285 91.290 30.366 91.174 30.267 91.191 L 27.608 91.660 C 27.510 91.677 27.626 91.758 27.608 91.660 L 27.105 88.804 C 27.095 88.750 27.043 88.713 26.989 88.723 L 23.985 89.253 C 23.449 89.347 22.948 89.581 22.531 89.931 C 22.114 90.281 21.797 90.734 21.611 91.245 C 21.424 91.757 21.376 92.308 21.471 92.844 L 21.992 95.798 C 22.000 95.846 22.042 95.881 22.090 95.881 Z" stroke="rgb(0,0,0)" stroke-width="0.20" />
  <text dominant-baseline="hanging" font-size="4px" style="font-family: sans-serif ; font-weight: normal; font-style: normal; fill: rgb(255,0,0)" text-anchor="middle" transform="matrix( 1.000 0.000 0.000 1.000 81.378 80.586 )">support vertical</text>
</g>
<g id="p-13" style="fill:none;stroke-linecap:round;stroke-linejoin:round;">
  <path d="M 22.090 67.590 H 131.140 C 131.195 67.590 131.240 67.546 131.240 67.490 V 57.981 C 131.240 57.881 131.140 57.981 131.240 57.981 H 133.940 C 134.040 57.981 133.940 57.881 133.940 57.981 V 67.490 C 133.940 67.546 133.985 67.590 134.040 67.590 H 140.666 C 140.728 67.590 140.775 67.534 140.764 67.473 L 138.994 57.433 C 138.976 57.334 138.895 57.450 138.994 57.433 L 141.850 56.929 C 141.904 56.920 141.940 56.868 141.931 56.813 L 140.889 50.904 C 140.879 50.850 140.827 50.814 140.773 50.823 L 137.917 51.327 C 137.819 51.344 137.935 51.425 137.917 51.327 L 136.147 41.287 C 136.137 41.232 136.085 41.196 136.031 41.205 L 127.118 42.777 C 127.064 42.787 127.028 42.838 127.037 42.893 L 127.541 45.749 C 127.558 45.847 127.639 45.731 127.541 45.749 L 124.882 46.218 C 124.783 46.235 124.899 46.316 124.882 46.218 L 124.378 43.362 C 124.369 43.307 124.317 43.271 124.262 43.281 L 29.845 59.929 C 29.791 59.939 29.754 59.990 29.764 60.045 L 30.267 62.901 C 30.285 62.999 30.366 62.883 30.267 62.901 L 27.608 63.370 C 27.510 63.387 27.626 63.468 27.608 63.370 L 27.105 60.514 C 27.095 60.459 27.043 60.423 26.989 60.433 L 23.985 60.962 C 23.449 61.057 22.948 61.291 22.531 61.640 C 22.114 61.990 21.797 62.443 21.611 62.955 C 21.424 63.466 21.376 64.017 21.471 64.553 L 21.992 67.508 C 22.000 67.556 22.042 67.590 22.090 67.590 Z" stroke="rgb(0,0,0)" stroke-width="0.20" />
  <text dominant-baseline="hanging" font-size="4px" style="font-family: sans-serif ; font-weight: normal; font-style: normal; fill: rgb(255,0,0)" text-anchor="middle" transform="matrix( 1.000 0.000 0.000 1.000 81.378 52.295 )">support vertical</text>
</g>
<g id="p-14" style="fill:none;stroke-linecap:round;stroke-linejoin:round;">
  <path d="M 22.090 39.300 H 141.090 C 141.634 39.300 142.169 39.157 142.640 38.885 C 143.111 38.613 143.503 38.221 143.775 37.750 C 144.047 37.279 144.190 36.744 144.190 36.200 C 144.190 35.656 144.047 35.121 143.775 34.650 C 143.503 34.179 143.111 33.787 142.640 33.515 C 142.169 33.243 141.634 33.100 141.090 33.100 H 138.040 C 137.985 33.100 137.940 33.145 137.940 33.200 V 36.100 C 137.940 36.200 138.040 36.100 137.940 36.100 H 135.240 C 135.140 36.100 135.240 36.200 135.240 36.100 V 33.200 C 135.240 33.145 135.195 33.100 135.140 33.100 H 28.040 C 27.985 33.100 27.940 33.145 27.940 33.200 V 36.100 C 27.940 36.200 28.040 36.100 27.940 36.100 H 25.240 C 25.140 36.100 25.240 36.200 25.240 36.100 V 33.200 C 25.240 33.145 25.195 33.100 25.140 33.100 H 22.090 C 21.546 33.100 21.011 33.243 20.540 33.515 C 20.069 33.787 19.678 34.179 19.406 34.650 C 19.133 35.121 18.990 35.656 18.990 36.200 C 18.990 36.744 19.133 37.279 19.406 37.750 C 19.678 38.221 20.069 38.613 20.540 38.885 C 21.011 39.157 21.546 39.300 22.090 39.300 Z" stroke="rgb(0,0,0)" stroke-width="0.20" />
  <text dominant-baseline="hanging" font-size="4px" style="font-family: sans-serif ; font-weight: normal; font-style: normal; fill: rgb(255,0,0)" text-anchor="middle" transform="matrix( 1.000 0.000 0.000 1.000 81.590 34.300 )">spacer width</text>
</g>
<g id="p-15" style="fill:none;stroke-linecap:round;stroke-linejoin:round;">
  <path d="M 22.090 31.600 H 141.090 C 141.634 31.600 142.169 31.457 142.640 31.185 C 143.111 30.913 143.503 30.521 143.775 30.050 C 144.047 29.579 144.190 29.044 144.190 28.500 C 144.190 27.956 144.047 27.421 143.775 26.950 C 143.503 26.479 143.111 26.087 142.640 25.815 C 142.169 25.543 141.634 25.400 141.090 25.400 H 138.040 C 137.985 25.400 137.940 25.445 137.940 25.500 V 28.400 C 137.940 28.500 138.040 28.400 137.940 28.400 H 135.240 C 135.140 28.400 135.240 28.500 135.240 28.400 V 25.500 C 135.240 25.445 135.195 25.400 135.140 25.400 H 28.040 C 27.985 25.400 27.940 25.445 27.940 25.500 V 28.400 C 27.940 28.500 28.040 28.400 27.940 28.400 H 25.240 C 25.140 28.400 25.240 28.500 25.240 28.400 V 25.500 C 25.240 25.445 25.195 25.400 25.140 25.400 H 22.090 C 21.546 25.400 21.011 25.543 20.540 25.815 C 20.069 26.087 19.678 26.479 19.406 26.950 C 19.133 27.421 18.990 27.956 18.990 28.500 C 18.990 29.044 19.133 29.579 19.406 30.050 C 19.678 30.521 20.069 30.913 20.540 31.185 C 21.011 31.457 21.546 31.600 22.090 31.600 Z" stroke="rgb(0,0,0)" stroke-width="0.20" />
  <text dominant-baseline="hanging" font-size="4px" style="font-family: sans-serif ; font-weight: normal; font-style: normal; fill: rgb(255,0,0)" text-anchor="middle" transform="matrix( 1.000 0.000 0.000 1.000 81.590 26.600 )">spacer width</text>
</g>
<g id="p-16" style="fill:none;stroke-linecap:round;stroke-linejoin:round;">
  <path d="M 22.090 23.900 H 141.090 C 141.634 23.900 142.169 23.757 142.640 23.485 C 143.111 23.213 143.503 22.821 143.775 22.350 C 144.047 21.879 144.190 21.344 144.190 20.800 C 144.190 20.256 144.047 19.721 143.775 19.250 C 143.503 18.779 143.111 18.387 142.640 18.115 C 142.169 17.843 141.634 17.700 141.090 17.700 H 138.040 C 137.985 17.700 137.940 17.745 137.940 17.800 V 20.700 C 137.940 20.800 138.040 20.700 137.940 20.700 H 135.240 C 135.140 20.700 135.240 20.800 135.240 20.700 V 17.800 C 135.240 17.745 135.195 17.700 135.140 17.700 H 28.040 C 27.985 17.700 27.940 17.745 27.940 17.800 V 20.700 C 27.940 20.800 28.040 20.700 27.940 20.700 H 25.240 C 25.140 20.700 25.240 20.800 25.240 20.700 V 17.800 C 25.240 17.745 25.195 17.700 25.140 17.700 H 22.090 C 21.546 17.700 21.011 17.843 20.540 18.115 C 20.069 18.387 19.678 18.779 19.406 19.250 C 19.133 19.721 18.990 20.256 18.990 20.800 C 18.990 21.344 19.133 21.879 19.406 22.350 C 19.678 22.821 20.069 23.213 20.540 23.485 C 21.011 23.757 21.546 23.900 22.090 23.900 Z" stroke="rgb(0,0,0)" stroke-width="0.20" />
  <text dominant-baseline="hanging" font-size="4px" style="font-family: sans-serif ; font-weight: normal; font-style: normal; fill: rgb(255,0,0)" text-anchor="middle" transform="matrix( 1.000 0.000 0.000 1.000 81.590 18.900 )">spacer height</text>
</g>
<g id="p-17" style="fill:none;stroke-linecap:round;stroke-linejoin:round;">
  <path d="M 22.090 16.200 H 141.090 C 141.634 16.200 142.169 16.057 142.640 15.785 C 143.111 15.513 143.503 15.121 143.775 14.650 C 144.047 14.179 144.190 13.644 144.190 13.100 C 144.190 12.556 144.047 12.021 143.775 11.550 C 143.503 11.079 143.111 10.687 142.640 10.415 C 142.169 10.143 141.634 10.000 141.090 10.000 H 138.040 C 137.985 10.000 137.940 10.045 137.940 10.100 V 13.000 C 137.940 13.100 138.040 13.000 137.940 13.000 H 135.240 C 135.140 13.000 135.240 13.100 135.240 13.000 V 10.100 C 135.240 10.045 135.195 10.000 135.140 10.000 H 28.040 C 27.985 10.000 27.940 10.045 27.940 10.100 V 13.000 C 27.940 13.100 28.040 13.000 27.940 13.000 H 25.240 C 25.140 13.000 25.240 13.100 25.240 13.000 V 10.100 C 25.240 10.045 25.195 10.000 25.140 10.000 H 22.090 C 21.546 10.000 21.011 10.143 20.540 10.415 C 20.069 10.687 19.678 11.079 19.406 11.550 C 19.133 12.021 18.990 12.556 18.990 13.100 C 18.990 13.644 19.133 14.179 19.406 14.650 C 19.678 15.121 20.069 15.513 20.540 15.785 C 21.011 16.057 21.546 16.200 22.090 16.200 Z" stroke="rgb(0,0,0)" stroke-width="0.20" />
  <text dominant-baseline="hanging" font-size="4px" style="font-family: sans-serif ; font-weight: normal; font-style: normal; fill: rgb(255,0,0)" text-anchor="middle" transform="matrix( 1.000 0.000 0.000 1.000 81.590 11.200 )">spacer height</text>
</g>
</svg>