<?xml version='1.0' encoding='utf-8'?>
<svg height="238.60mm" viewBox="0.0 0.0 357.92 238.60" width="357.92mm" xmlns="http://www.w3.org/2000/svg" xmlns:cc="http://creativecommons.org/ns#" xmlns:dc="http://purl.org/dc/elements/1.1/" xmlns:inkscape="http://www.inkscape.org/namespaces/inkscape" xmlns:rdf="http://www.w3.org/1999/02/22-rdf-syntax-ns#" xmlns:svg="http://www.w3.org/2000/svg" xmlns:xlink="http://www.w3.org/1999/xlink">
<!--
FlexBox3 - Box with living hinge

Created with Boxes.py (https://festi.info/boxes.py)
Command line (remove spaces between dashes): boxes FlexBox3
-->
<title>FlexBox3</title>
<metadata>
<rdf:RDF><cc:Work>
<dc:title>FlexBox - FlexBox3</dc:title>
<dc:source>boxes FlexBox3</dc:source>
<dc:description>Box with living hinge

Created with Boxes.py (https://festi.info/boxes.py)
Command line: boxes FlexBox3
Command line short: boxes FlexBox3
</dc:description>
</cc:Work></rdf:RDF></metadata>
<g id="p-0" style="fill:none;stroke-linecap:round;stroke-linejoin:round;">
  <path d="M 10.100 228.600 H 110.100 V 218.600 H 10.100 V 228.600 Z" stroke="rgb(0,0,0)" stroke-width="0.20" />
  <text dominant-baseline="hanging" font-size="6px" style="font-family: sans-serif ; font-weight: normal; font-style: normal; fill: rgb(255,0,0)" text-anchor="middle" transform="matrix( 1.000 0.000 0.000 1.000 60.100 220.600 )">100.0mm, burn:0.10mm</text>
</g>
<g id="p-1" style="fill:none;stroke-linecap:round;stroke-linejoin:round;">
  <path d="M 13.100 212.900 H 16.100 C 16.155 212.900 16.200 212.855 16.200 212.800 V 209.900 C 16.200 209.800 16.100 209.900 16.200 209.900 H 22.000 C 22.100 209.900 22.000 209.800 22.000 209.900 V 212.800 C 22.000 212.855 22.045 212.900 22.100 212.900 H 28.100 C 28.155 212.900 28.200 212.855 28.200 212.800 V 209.900 C 28.200 209.800 28.100 209.900 28.200 209.900 H 34.000 C 34.100 209.900 34.000 209.800 34.000 209.900 V 212.800 C 34.000 212.855 34.045 212.900 34.100 212.900 H 40.100 C 40.155 212.900 40.200 212.855 40.200 212.800 V 209.900 C 40.200 209.800 40.100 209.900 40.200 209.900 H 46.000 C 46.100 209.900 46.000 209.800 46.000 209.900 V 212.800 C 46.000 212.855 46.045 212.900 46.100 212.900 H 52.100 C 52.155 212.900 52.200 212.855 52.200 212.800 V 209.900 C 52.200 209.800 52.100 209.900 52.200 209.900 H 58.000 C 58.100 209.900 58.000 209.800 58.000 209.900 V 212.800 C 58.000 212.855 58.045 212.900 58.100 212.900 H 64.100 C 64.155 212.900 64.200 212.855 64.200 212.800 V 209.900 C 64.200 209.800 64.100 209.900 64.200 209.900 H 70.000 C 70.100 209.900 70.000 209.800 70.000 209.900 V 212.800 C 70.000 212.855 70.045 212.900 70.100 212.900 H 76.100 C 76.155 212.900 76.200 212.855 76.200 212.800 V 209.900 C 76.200 209.800 76.100 209.900 76.200 209.900 H 82.000 C 82.100 209.900 82.000 209.800 82.000 209.900 V 212.800 C 82.000 212.855 82.045 212.900 82.100 212.900 H 88.100 C 88.155 212.900 88.200 212.855 88.200 212.800 V 209.900 C 88.200 209.800 88.100 209.900 88.200 209.900 H 94.000 C 94.100 209.900 94.000 209.800 94.000 209.900 V 212.800 C 94.000 212.855 94.045 212.900 94.100 212.900 H 97.100 H 111.923 C 112.023 212.900 111.923 212.800 111.923 212.900 V 213.800 C 111.923 213.855 111.967 213.900 112.023 213.900 H 116.423 C 116.523 213.900 116.423 213.800 116.423 213.900 V 216.800 C 116.423 216.855 116.467 216.900 116.523 216.900 H 122.523 C 122.578 216.900 122.623 216.855 122.623 216.800 V 213.900 C 122.623 213.800 122.523 213.900 122.623 213.900 H 128.423 C 128.523 213.900 128.423 213.800 128.423 213.900 V 216.800 C 128.423 216.855 128.467 216.900 128.523 216.900 H 134.523 C 134.578 216.900 134.623 216.855 134.623 216.800 V 213.900 C 134.623 213.800 134.523 213.900 134.623 213.900 H 140.423 C 140.523 213.900 140.423 213.800 140.423 213.900 V 216.800 C 140.423 216.855 140.467 216.900 140.523 216.900 H 146.523 C 146.578 216.900 146.623 216.855 146.623 216.800 V 213.900 C 146.623 213.800 146.523 213.900 146.623 213.900 H 152.423 C 152.523 213.900 152.423 213.800 152.423 213.900 V 216.800 C 152.423 216.855 152.467 216.900 152.523 216.900 H 158.523 C 158.578 216.900 158.623 216.855 158.623 216.800 V 213.900 C 158.623 213.800 158.523 213.900 158.623 213.900 H 164.423 C 164.523 213.900 164.423 213.800 164.423 213.900 V 216.800 C 164.423 216.855 164.467 216.900 164.523 216.900 H 170.523 C 170.578 216.900 170.623 216.855 170.623 216.800 V 213.900 C 170.623 213.800 170.523 213.900 170.623 213.900 H 176.423 C 176.523 213.900 176.423 213.800 176.423 213.900 V 216.800 C 176.423 216.855 176.467 216.900 176.523 216.900 H 182.523 C 182.578 216.900 182.623 216.855 182.623 216.800 V 213.900 C 182.623 213.800 182.523 213.900 182.623 213.900 H 188.423 C 188.523 213.900 188.423 213.800 188.423 213.900 V 216.800 C 188.423 216.855 188.467 216.900 188.523 216.900 H 194.523 C 194.578 216.900 194.623 216.855 194.623 216.800 V 213.900 C 194.623 213.800 194.523 213.900 194.623 213.900 H 199.023 C 199.078 213.900 199.123 213.855 199.123 213.800 V 207.900 C 199.123 207.800 199.023 207.900 199.123 207.900 H 202.023 C 202.078 207.900 202.123 207.855 202.123 207.800 V 201.800 C 202.123 201.745 202.078 201.700 202.023 201.700 H 199.123 C 199.023 201.700 199.123 201.800 199.123 201.700 V 195.900 C 199.123 195.800 199.023 195.900 199.123 195.900 H 202.023 C 202.078 195.900 202.123 195.855 202.123 195.800 V 189.800 C 202.123 189.745 202.078 189.700 202.023 189.700 H 199.123 C 199.023 189.700 199.123 189.800 199.123 189.700 V 183.900 C 199.123 183.800 199.023 183.900 199.123 183.900 H 202.023 C 202.078 183.900 202.123 183.855 202.123 183.800 V 177.800 C 202.123 177.745 202.078 177.700 202.023 177.700 H 199.123 C 199.023 177.700 199.123 177.800 199.123 177.700 V 171.900 C 199.123 171.800 199.023 171.900 199.123 171.900 H 202.023 C 202.078 171.900 202.123 171.855 202.123 171.800 V 165.800 C 202.123 165.745 202.078 165.700 202.023 165.700 H 199.123 C 199.023 165.700 199.123 165.800 199.123 165.700 V 159.900 C 199.123 159.800 199.023 159.900 199.123 159.900 H 202.023 C 202.078 159.900 202.123 159.855 202.123 159.800 V 153.800 C 202.123 153.745 202.078 153.700 202.023 153.700 H 199.123 C 199.023 153.700 199.123 153.800 199.123 153.700 V 147.900 C 199.123 147.800 199.023 147.900 199.123 147.900 H 202.023 C 202.078 147.900 202.123 147.855 202.123 147.800 V 141.800 C 202.123 141.745 202.078 141.700 202.023 141.700 H 199.123 C 199.023 141.700 199.123 141.800 199.123 141.700 V 135.900 C 199.123 135.800 199.023 135.900 199.123 135.900 H 202.023 C 202.078 135.900 202.123 135.855 202.123 135.800 V 129.800 C 202.123 129.745 202.078 129.700 202.023 129.700 H 199.123 C 199.023 129.700 199.123 129.800 199.123 129.700 V 123.900 C 199.123 123.800 199.023 123.900 199.123 123.900 H 202.023 C 202.078 123.900 202.123 123.855 202.123 123.800 V 117.800 C 202.123 117.745 202.078 117.700 202.023 117.700 H 199.123 C 199.023 117.700 199.123 117.800 199.123 117.700 V 111.800 C 199.123 111.745 199.078 111.700 199.023 111.700 H 194.623 C 194.523 111.700 194.623 111.800 194.623 111.700 V 108.800 C 194.623 108.745 194.578 108.700 194.523 108.700 H 188.523 C 188.467 108.700 188.423 108.745 188.423 108.800 V 111.700 C 188.423 111.800 188.523 111.700 188.423 111.700 H 182.623 C 182.523 111.700 182.623 111.800 182.623 111.700 V 108.800 C 182.623 108.745 182.578 108.700 182.523 108.700 H 176.523 C 176.467 108.700 176.423 108.745 176.423 108.800 V 111.700 C 176.423 111.800 176.523 111.700 176.423 111.700 H 170.623 C 170.523 111.700 170.623 111.800 170.623 111.700 V 108.800 C 170.623 108.745 170.578 108.700 170.523 108.700 H 164.523 C 164.467 108.700 164.423 108.745 164.423 108.800 V 111.700 C 164.423 111.800 164.523 111.700 164.423 111.700 H 158.623 C 158.523 111.700 158.623 111.800 158.623 111.700 V 108.800 C 158.623 108.745 158.578 108.700 158.523 108.700 H 152.523 C 152.467 108.700 152.423 108.745 152.423 108.800 V 111.700 C 152.423 111.800 152.523 111.700 152.423 111.700 H 146.623 C 146.523 111.700 146.623 111.800 146.623 111.700 V 108.800 C 146.623 108.745 146.578 108.700 146.523 108.700 H 140.523 C 140.467 108.700 140.423 108.745 140.423 108.800 V 111.700 C 140.423 111.800 140.523 111.700 140.423 111.700 H 134.623 C 134.523 111.700 134.623 111.800 134.623 111.700 V 108.800 C 134.623 108.745 134.578 108.700 134.523 108.700 H 128.523 C 128.467 108.700 128.423 108.745 128.423 108.800 V 111.700 C 128.423 111.800 128.523 111.700 128.423 111.700 H 122.623 C 122.523 111.700 122.623 111.800 122.623 111.700 V 108.800 C 122.623 108.745 122.578 108.700 122.523 108.700 H 116.523 C 116.467 108.700 116.423 108.745 116.423 108.800 V 111.700 C 116.423 111.800 116.523 111.700 116.423 111.700 H 112.023 C 111.967 111.700 111.923 111.745 111.923 111.800 V 112.700 C 111.923 112.800 112.023 112.700 111.923 112.700 H 97.100 H 94.100 C 94.045 112.700 94.000 112.745 94.000 112.800 V 115.700 C 94.000 115.800 94.100 115.700 94.000 115.700 H 88.200 C 88.100 115.700 88.200 115.800 88.200 115.700 V 112.800 C 88.200 112.745 88.155 112.700 88.100 112.700 H 82.100 C 82.045 112.700 82.000 112.745 82.000 112.800 V 115.700 C 82.000 115.800 82.100 115.700 82.000 115.700 H 76.200 C 76.100 115.700 76.200 115.800 76.200 115.700 V 112.800 C 76.200 112.745 76.155 112.700 76.100 112.700 H 70.100 C 70.045 112.700 70.000 112.745 70.000 112.800 V 115.700 C 70.000 115.800 70.100 115.700 70.000 115.700 H 64.200 C 64.100 115.700 64.200 115.800 64.200 115.700 V 112.800 C 64.200 112.745 64.155 112.700 64.100 112.700 H 58.100 C 58.045 112.700 58.000 112.745 58.000 112.800 V 115.700 C 58.000 115.800 58.100 115.700 58.000 115.700 H 52.200 C 52.100 115.700 52.200 115.800 52.200 115.700 V 112.800 C 52.200 112.745 52.155 112.700 52.100 112.700 H 46.100 C 46.045 112.700 46.000 112.745 46.000 112.800 V 115.700 C 46.000 115.800 46.100 115.700 46.000 115.700 H 40.200 C 40.100 115.700 40.200 115.800 40.200 115.700 V 112.800 C 40.200 112.745 40.155 112.700 40.100 112.700 H 34.100 C 34.045 112.700 34.000 112.745 34.000 112.800 V 115.700 C 34.000 115.800 34.100 115.700 34.000 115.700 H 28.200 C 28.100 115.700 28.200 115.800 28.200 115.700 V 112.800 C 28.200 112.745 28.155 112.700 28.100 112.700 H 22.100 C 22.045 112.700 22.000 112.745 22.000 112.800 V 115.700 C 22.000 115.800 22.100 115.700 22.000 115.700 H 16.200 C 16.100 115.700 16.200 115.800 16.200 115.700 V 112.800 C 16.200 112.745 16.155 112.700 16.100 112.700 H 13.100 C 13.045 112.700 13.000 112.745 13.000 112.800 V 115.800 V 123.700 C 13.000 123.800 13.100 123.700 13.000 123.700 H 10.100 C 10.045 123.700 10.000 123.745 10.000 123.800 V 129.800 C 10.000 129.855 10.045 129.900 10.100 129.900 H 13.000 C 13.100 129.900 13.000 129.800 13.000 129.900 V 135.700 C 13.000 135.800 13.100 135.700 13.000 135.700 H 10.100 C 10.045 135.700 10.000 135.745 10.000 135.800 V 141.800 C 10.000 141.855 10.045 141.900 10.100 141.900 H 13.000 C 13.100 141.900 13.000 141.800 13.000 141.900 V 147.700 C 13.000 147.800 13.100 147.700 13.000 147.700 H 10.100 C 10.045 147.700 10.000 147.745 10.000 147.800 V 153.800 C 10.000 153.855 10.045 153.900 10.100 153.900 H 13.000 C 13.100 153.900 13.000 153.800 13.000 153.900 V 159.700 C 13.000 159.800 13.100 159.700 13.000 159.700 H 10.100 C 10.045 159.700 10.000 159.745 10.000 159.800 V 165.800 C 10.000 165.855 10.045 165.900 10.100 165.900 H 13.000 C 13.100 165.900 13.000 165.800 13.000 165.900 V 171.700 C 13.000 171.800 13.100 171.700 13.000 171.700 H 10.100 C 10.045 171.700 10.000 171.745 10.000 171.800 V 177.800 C 10.000 177.855 10.045 177.900 10.100 177.900 H 13.000 C 13.100 177.900 13.000 177.800 13.000 177.900 V 183.700 C 13.000 183.800 13.100 183.700 13.000 183.700 H 10.100 C 10.045 183.700 10.000 183.745 10.000 183.800 V 189.800 C 10.000 189.855 10.045 189.900 10.100 189.900 H 13.000 C 13.100 189.900 13.000 189.800 13.000 189.900 V 195.700 C 13.000 195.800 13.100 195.700 13.000 195.700 H 10.100 C 10.045 195.700 10.000 195.745 10.000 195.800 V 201.800 C 10.000 201.855 10.045 201.900 10.100 201.900 H 13.000 C 13.100 201.900 13.000 201.800 13.000 201.900 V 209.800 V 212.800 C 13.000 212.855 13.045 212.900 13.100 212.900 Z" stroke="rgb(0,0,0)" stroke-width="0.20" />
  <path d="M 99.311 212.900 V 196.700 M 99.311 193.700 V 164.300 M 99.311 161.300 V 131.900 M 99.311 128.900 V 112.700 M 100.811 115.700 V 145.100 M 100.811 148.100 V 177.500 M 100.811 180.500 V 209.900 M 102.311 212.900 V 196.700 M 102.311 193.700 V 164.300 M 102.311 161.300 V 131.900 M 102.311 128.900 V 112.700 M 103.811 115.700 V 145.100 M 103.811 148.100 V 177.500 M 103.811 180.500 V 209.900 M 105.311 212.900 V 196.700 M 105.311 193.700 V 164.300 M 105.311 161.300 V 131.900 M 105.311 128.900 V 112.700 M 106.811 115.700 V 145.100 M 106.811 148.100 V 177.500 M 106.811 180.500 V 209.900 M 108.311 212.900 V 196.700 M 108.311 193.700 V 164.300 M 108.311 161.300 V 131.900 M 108.311 128.900 V 112.700 M 109.811 115.700 V 145.100 M 109.811 148.100 V 177.500 M 109.811 180.500 V 209.900" stroke="rgb(0,0,0)" stroke-width="0.20" />
</g>
<g id="p-2" style="fill:none;stroke-linecap:round;stroke-linejoin:round;">
  <path d="M 206.723 216.900 H 214.723 C 214.778 216.900 214.823 216.855 214.823 216.800 V 213.900 C 214.823 213.800 214.723 213.900 214.823 213.900 H 220.623 C 220.723 213.900 220.623 213.800 220.623 213.900 V 216.800 C 220.623 216.855 220.667 216.900 220.723 216.900 H 226.723 C 226.778 216.900 226.823 216.855 226.823 216.800 V 213.900 C 226.823 213.800 226.723 213.900 226.823 213.900 H 232.623 C 232.723 213.900 232.623 213.800 232.623 213.900 V 216.800 C 232.623 216.855 232.667 216.900 232.723 216.900 H 238.723 C 238.778 216.900 238.823 216.855 238.823 216.800 V 213.900 C 238.823 213.800 238.723 213.900 238.823 213.900 H 244.623 C 244.723 213.900 244.623 213.800 244.623 213.900 V 216.800 C 244.623 216.855 244.667 216.900 244.723 216.900 H 250.723 C 250.778 216.900 250.823 216.855 250.823 216.800 V 213.900 C 250.823 213.800 250.723 213.900 250.823 213.900 H 256.623 C 256.723 213.900 256.623 213.800 256.623 213.900 V 216.800 C 256.623 216.855 256.667 216.900 256.723 216.900 H 262.723 C 262.778 216.900 262.823 216.855 262.823 216.800 V 213.900 C 262.823 213.800 262.723 213.900 262.823 213.900 H 268.623 C 268.723 213.900 268.623 213.800 268.623 213.900 V 216.800 C 268.623 216.855 268.667 216.900 268.723 216.900 H 274.723 C 274.778 216.900 274.823 216.855 274.823 216.800 V 213.900 C 274.823 213.800 274.723 213.900 274.823 213.900 H 280.623 C 280.723 213.900 280.623 213.800 280.623 213.900 V 216.800 C 280.623 216.855 280.667 216.900 280.723 216.900 H 286.723 C 286.778 216.900 286.823 216.855 286.823 216.800 V 213.900 C 286.823 213.800 286.723 213.900 286.823 213.900 H 292.623 C 292.723 213.900 292.623 213.800 292.623 213.900 V 216.800 C 292.623 216.855 292.667 216.900 292.723 216.900 H 300.723 H 303.723 C 303.778 216.900 303.823 216.855 303.823 216.800 V 213.800 V 205.800 C 303.823 205.745 303.778 205.700 303.723 205.700 H 300.823 C 300.723 205.700 300.823 205.800 300.823 205.700 V 199.900 C 300.823 199.800 300.723 199.900 300.823 199.900 H 303.723 C 303.778 199.900 303.823 199.855 303.823 199.800 V 193.800 C 303.823 193.745 303.778 193.700 303.723 193.700 H 300.823 C 300.723 193.700 300.823 193.800 300.823 193.700 V 187.900 C 300.823 187.800 300.723 187.900 300.823 187.900 H 303.723 C 303.778 187.900 303.823 187.855 303.823 187.800 V 181.800 C 303.823 181.745 303.778 181.700 303.723 181.700 H 300.823 C 300.723 181.700 300.823 181.800 300.823 181.700 V 175.900 C 300.823 175.800 300.723 175.900 300.823 175.900 H 303.723 C 303.778 175.900 303.823 175.855 303.823 175.800 V 169.800 C 303.823 169.745 303.778 169.700 303.723 169.700 H 300.823 C 300.723 169.700 300.823 169.800 300.823 169.700 V 163.900 C 300.823 163.800 300.723 163.900 300.823 163.900 H 303.723 C 303.778 163.900 303.823 163.855 303.823 163.800 V 157.800 C 303.823 157.745 303.778 157.700 303.723 157.700 H 300.823 C 300.723 157.700 300.823 157.800 300.823 157.700 V 151.900 C 300.823 151.800 300.723 151.900 300.823 151.900 H 303.723 C 303.778 151.900 303.823 151.855 303.823 151.800 V 145.800 C 303.823 145.745 303.778 145.700 303.723 145.700 H 300.823 C 300.723 145.700 300.823 145.800 300.823 145.700 V 139.900 C 300.823 139.800 300.723 139.900 300.823 139.900 H 303.723 C 303.778 139.900 303.823 139.855 303.823 139.800 V 133.800 C 303.823 133.745 303.778 133.700 303.723 133.700 H 300.823 C 300.723 133.700 300.823 133.800 300.823 133.700 V 127.900 C 300.823 127.800 300.723 127.900 300.823 127.900 H 303.723 C 303.778 127.900 303.823 127.855 303.823 127.800 V 119.800 V 116.800 C 303.823 116.745 303.778 116.700 303.723 116.700 H 300.723 H 292.723 C 292.667 116.700 292.623 116.745 292.623 116.800 V 119.700 C 292.623 119.800 292.723 119.700 292.623 119.700 H 286.823 C 286.723 119.700 286.823 119.800 286.823 119.700 V 116.800 C 286.823 116.745 286.778 116.700 286.723 116.700 H 280.723 C 280.667 116.700 280.623 116.745 280.623 116.800 V 119.700 C 280.623 119.800 280.723 119.700 280.623 119.700 H 274.823 C 274.723 119.700 274.823 119.800 274.823 119.700 V 116.800 C 274.823 116.745 274.778 116.700 274.723 116.700 H 268.723 C 268.667 116.700 268.623 116.745 268.623 116.800 V 119.700 C 268.623 119.800 268.723 119.700 268.623 119.700 H 262.823 C 262.723 119.700 262.823 119.800 262.823 119.700 V 116.800 C 262.823 116.745 262.778 116.700 262.723 116.700 H 256.723 C 256.667 116.700 256.623 116.745 256.623 116.800 V 119.700 C 256.623 119.800 256.723 119.700 256.623 119.700 H 250.823 C 250.723 119.700 250.823 119.800 250.823 119.700 V 116.800 C 250.823 116.745 250.778 116.700 250.723 116.700 H 244.723 C 244.667 116.700 244.623 116.745 244.623 116.800 V 119.700 C 244.623 119.800 244.723 119.700 244.623 119.700 H 238.823 C 238.723 119.700 238.823 119.800 238.823 119.700 V 116.800 C 238.823 116.745 238.778 116.700 238.723 116.700 H 232.723 C 232.667 116.700 232.623 116.745 232.623 116.800 V 119.700 C 232.623 119.800 232.723 119.700 232.623 119.700 H 226.823 C 226.723 119.700 226.823 119.800 226.823 119.700 V 116.800 C 226.823 116.745 226.778 116.700 226.723 116.700 H 220.723 C 220.667 116.700 220.623 116.745 220.623 116.800 V 119.700 C 220.623 119.800 220.723 119.700 220.623 119.700 H 214.823 C 214.723 119.700 214.823 119.800 214.823 119.700 V 116.800 C 214.823 116.745 214.778 116.700 214.723 116.700 H 206.723 H 203.723 C 203.667 116.700 203.623 116.745 203.623 116.800 V 119.800 V 127.800 C 203.623 127.855 203.667 127.900 203.723 127.900 H 206.623 C 206.723 127.900 206.623 127.800 206.623 127.900 V 133.700 C 206.623 133.800 206.723 133.700 206.623 133.700 H 203.723 C 203.667 133.700 203.623 133.745 203.623 133.800 V 139.800 C 203.623 139.855 203.667 139.900 203.723 139.900 H 206.623 C 206.723 139.900 206.623 139.800 206.623 139.900 V 145.700 C 206.623 145.800 206.723 145.700 206.623 145.700 H 203.723 C 203.667 145.700 203.623 145.745 203.623 145.800 V 151.800 C 203.623 151.855 203.667 151.900 203.723 151.900 H 206.623 C 206.723 151.900 206.623 151.800 206.623 151.900 V 157.700 C 206.623 157.800 206.723 157.700 206.623 157.700 H 203.723 C 203.667 157.700 203.623 157.745 203.623 157.800 V 163.800 C 203.623 163.855 203.667 163.900 203.723 163.900 H 206.623 C 206.723 163.900 206.623 163.800 206.623 163.900 V 169.700 C 206.623 169.800 206.723 169.700 206.623 169.700 H 203.723 C 203.667 169.700 203.623 169.745 203.623 169.800 V 175.800 C 203.623 175.855 203.667 175.900 203.723 175.900 H 206.623 C 206.723 175.900 206.623 175.800 206.623 175.900 V 181.700 C 206.623 181.800 206.723 181.700 206.623 181.700 H 203.723 C 203.667 181.700 203.623 181.745 203.623 181.800 V 187.800 C 203.623 187.855 203.667 187.900 203.723 187.900 H 206.623 C 206.723 187.900 206.623 187.800 206.623 187.900 V 193.700 C 206.623 193.800 206.723 193.700 206.623 193.700 H 203.723 C 203.667 193.700 203.623 193.745 203.623 193.800 V 199.800 C 203.623 199.855 203.667 199.900 203.723 199.900 H 206.623 C 206.723 199.900 206.623 199.800 206.623 199.900 V 205.700 C 206.623 205.800 206.723 205.700 206.623 205.700 H 203.723 C 203.667 205.700 203.623 205.745 203.623 205.800 V 213.800 V 216.800 C 203.623 216.855 203.667 216.900 203.723 216.900 H 206.723 Z" stroke="rgb(0,0,0)" stroke-width="0.20" />
</g>
<g id="p-3" style="fill:none;stroke-linecap:round;stroke-linejoin:round;">
  <path d="M 308.423 216.900 H 311.923 C 311.978 216.900 312.023 216.855 312.023 216.800 V 213.900 C 312.023 213.800 311.923 213.900 312.023 213.900 H 314.823 C 314.923 213.900 314.823 213.800 314.823 213.900 V 216.800 C 314.823 216.855 314.867 216.900 314.923 216.900 H 318.423 C 318.478 216.900 318.523 216.855 318.523 216.800 V 213.800 V 111.800 V 108.800 C 318.523 108.745 318.478 108.700 318.423 108.700 H 314.923 C 314.867 108.700 314.823 108.745 314.823 108.800 V 111.700 C 314.823 111.800 314.923 111.700 314.823 111.700 H 312.023 C 311.923 111.700 312.023 111.800 312.023 111.700 V 108.800 C 312.023 108.745 311.978 108.700 311.923 108.700 H 308.423 H 305.423 C 305.367 108.700 305.323 108.745 305.323 108.800 V 111.800 V 117.800 C 305.323 117.855 305.367 117.900 305.423 117.900 H 308.323 C 308.423 117.900 308.323 117.800 308.323 117.900 V 123.700 C 308.323 123.800 308.423 123.700 308.323 123.700 H 305.423 C 305.367 123.700 305.323 123.745 305.323 123.800 V 129.800 C 305.323 129.855 305.367 129.900 305.423 129.900 H 308.323 C 308.423 129.900 308.323 129.800 308.323 129.900 V 135.700 C 308.323 135.800 308.423 135.700 308.323 135.700 H 305.423 C 305.367 135.700 305.323 135.745 305.323 135.800 V 141.800 C 305.323 141.855 305.367 141.900 305.423 141.900 H 308.323 C 308.423 141.900 308.323 141.800 308.323 141.900 V 147.700 C 308.323 147.800 308.423 147.700 308.323 147.700 H 305.423 C 305.367 147.700 305.323 147.745 305.323 147.800 V 153.800 C 305.323 153.855 305.367 153.900 305.423 153.900 H 308.323 C 308.423 153.900 308.323 153.800 308.323 153.900 V 159.700 C 308.323 159.800 308.423 159.700 308.323 159.700 H 305.423 C 305.367 159.700 305.323 159.745 305.323 159.800 V 165.800 C 305.323 165.855 305.367 165.900 305.423 165.900 H 308.323 C 308.423 165.900 308.323 165.800 308.323 165.900 V 171.700 C 308.323 171.800 308.423 171.700 308.323 171.700 H 305.423 C 305.367 171.700 305.323 171.745 305.323 171.800 V 177.800 C 305.323 177.855 305.367 177.900 305.423 177.900 H 308.323 C 308.423 177.900 308.323 177.800 308.323 177.900 V 183.700 C 308.323 183.800 308.423 183.700 308.323 183.700 H 305.423 C 305.367 183.700 305.323 183.745 305.323 183.800 V 189.800 C 305.323 189.855 305.367 189.900 305.423 189.900 H 308.323 C 308.423 189.900 308.323 189.800 308.323 189.900 V 195.700 C 308.323 195.800 308.423 195.700 308.323 195.700 H 305.423 C 305.367 195.700 305.323 195.745 305.323 195.800 V 201.800 C 305.323 201.855 305.367 201.900 305.423 201.900 H 308.323 C 308.423 201.900 308.323 201.800 308.323 201.900 V 207.700 C 308.323 207.800 308.423 207.700 308.323 207.700 H 305.423 C 305.367 207.700 305.323 207.745 305.323 207.800 V 213.800 V 216.800 C 305.323 216.855 305.367 216.900 305.423 216.900 H 308.423 Z" stroke="rgb(0,0,0)" stroke-width="0.20" />
</g>
<g id="p-4" style="fill:none;stroke-linecap:round;stroke-linejoin:round;">
  <path d="M 320.123 216.900 C 322.422 216.900 324.681 216.295 326.673 215.145 C 328.664 213.995 330.318 212.341 331.467 210.350 C 332.617 208.359 333.223 206.100 333.223 203.800 V 199.300 C 333.223 199.245 333.178 199.200 333.123 199.200 H 330.223 C 330.123 199.200 330.223 199.300 330.223 199.200 V 193.400 C 330.223 193.300 330.123 193.400 330.223 193.400 H 333.123 C 333.178 193.400 333.223 193.355 333.223 193.300 V 187.300 C 333.223 187.245 333.178 187.200 333.123 187.200 H 330.223 C 330.123 187.200 330.223 187.300 330.223 187.200 V 181.400 C 330.223 181.300 330.123 181.400 330.223 181.400 H 333.123 C 333.178 181.400 333.223 181.355 333.223 181.300 V 175.300 C 333.223 175.245 333.178 175.200 333.123 175.200 H 330.223 C 330.123 175.200 330.223 175.300 330.223 175.200 V 169.400 C 330.223 169.300 330.123 169.400 330.223 169.400 H 333.123 C 333.178 169.400 333.223 169.355 333.223 169.300 V 163.300 C 333.223 163.245 333.178 163.200 333.123 163.200 H 330.223 C 330.123 163.200 330.223 163.300 330.223 163.200 V 157.400 C 330.223 157.300 330.123 157.400 330.223 157.400 H 333.123 C 333.178 157.400 333.223 157.355 333.223 157.300 V 151.300 C 333.223 151.245 333.178 151.200 333.123 151.200 H 330.223 C 330.123 151.200 330.223 151.300 330.223 151.200 V 145.400 C 330.223 145.300 330.123 145.400 330.223 145.400 H 333.123 C 333.178 145.400 333.223 145.355 333.223 145.300 V 139.300 C 333.223 139.245 333.178 139.200 333.123 139.200 H 330.223 C 330.123 139.200 330.223 139.300 330.223 139.200 V 133.400 C 330.223 133.300 330.123 133.400 330.223 133.400 H 333.123 C 333.178 133.400 333.223 133.355 333.223 133.300 V 127.300 C 333.223 127.245 333.178 127.200 333.123 127.200 H 330.223 C 330.123 127.200 330.223 127.300 330.223 127.200 V 121.400 C 330.223 121.300 330.123 121.400 330.223 121.400 H 333.123 C 333.178 121.400 333.223 121.355 333.223 121.300 V 116.800 C 333.223 116.745 333.178 116.700 333.123 116.700 H 330.123 H 326.723 C 326.623 116.700 326.723 116.800 326.723 116.700 V 113.800 C 326.723 113.745 326.678 113.700 326.623 113.700 H 323.623 C 323.567 113.700 323.523 113.745 323.523 113.800 V 116.700 C 323.523 116.800 323.623 116.700 323.523 116.700 H 320.123 C 320.067 116.700 320.023 116.745 320.023 116.800 V 216.800 C 320.023 216.855 320.067 216.900 320.123 216.900 Z" stroke="rgb(0,0,0)" stroke-width="0.20" />
</g>
<g id="p-5" style="fill:none;stroke-linecap:round;stroke-linejoin:round;">
  <path d="M 347.823 216.900 C 345.523 216.900 343.264 216.295 341.273 215.145 C 339.281 213.995 337.627 212.341 336.478 210.350 C 335.328 208.359 334.723 206.100 334.723 203.800 V 199.300 C 334.723 199.245 334.767 199.200 334.823 199.200 H 337.723 C 337.823 199.200 337.723 199.300 337.723 199.200 V 193.400 C 337.723 193.300 337.823 193.400 337.723 193.400 H 334.823 C 334.767 193.400 334.723 193.355 334.723 193.300 V 187.300 C 334.723 187.245 334.767 187.200 334.823 187.200 H 337.723 C 337.823 187.200 337.723 187.300 337.723 187.200 V 181.400 C 337.723 181.300 337.823 181.400 337.723 181.400 H 334.823 C 334.767 181.400 334.723 181.355 334.723 181.300 V 175.300 C 334.723 175.245 334.767 175.200 334.823 175.200 H 337.723 C 337.823 175.200 337.723 175.300 337.723 175.200 V 169.400 C 337.723 169.300 337.823 169.400 337.723 169.400 H 334.823 C 334.767 169.400 334.723 169.355 334.723 169.300 V 163.300 C 334.723 163.245 334.767 163.200 334.823 163.200 H 337.723 C 337.823 163.200 337.723 163.300 337.723 163.200 V 157.400 C 337.723 157.300 337.823 157.400 337.723 157.400 H 334.823 C 334.767 157.400 334.723 157.355 334.723 157.300 V 151.300 C 334.723 151.245 334.767 151.200 334.823 151.200 H 337.723 C 337.823 151.200 337.723 151.300 337.723 151.200 V 145.400 C 337.723 145.300 337.823 145.400 337.723 145.400 H 334.823 C 334.767 145.400 334.723 145.355 334.723 145.300 V 139.300 C 334.723 139.245 334.767 139.200 334.823 139.200 H 337.723 C 337.823 139.200 337.723 139.300 337.723 139.200 V 133.400 C 337.723 133.300 337.823 133.400 337.723 133.400 H 334.823 C 334.767 133.400 334.723 133.355 334.723 133.300 V 127.300 C 334.723 127.245 334.767 127.200 334.823 127.200 H 337.723 C 337.823 127.200 337.723 127.300 337.723 127.200 V 121.400 C 337.723 121.300 337.823 121.400 337.723 121.400 H 334.823 C 334.767 121.400 334.723 121.355 334.723 121.300 V 116.800 C 334.723 116.745 334.767 116.700 334.823 116.700 H 337.823 H 341.223 C 341.323 116.700 341.223 116.800 341.223 116.700 V 113.800 C 341.223 113.745 341.267 113.700 341.323 113.700 H 344.323 C 344.378 113.700 344.423 113.745 344.423 113.800 V 116.700 C 344.423 116.800 344.323 116.700 344.423 116.700 H 347.823 C 347.878 116.700 347.923 116.745 347.923 116.800 V 216.800 C 347.923 216.855 347.878 216.900 347.823 216.900 Z" stroke="rgb(0,0,0)" stroke-width="0.20" />
</g>
<g id="p-6" style="fill:none;stroke-linecap:round;stroke-linejoin:round;">
  <path d="M 13.100 104.200 H 21.000 C 21.100 104.200 21.000 104.100 21.000 104.200 V 107.100 C 21.000 107.155 21.045 107.200 21.100 107.200 H 27.100 C 27.155 107.200 27.200 107.155 27.200 107.100 V 104.200 C 27.200 104.100 27.100 104.200 27.200 104.200 H 33.000 C 33.100 104.200 33.000 104.100 33.000 104.200 V 107.100 C 33.000 107.155 33.045 107.200 33.100 107.200 H 39.100 C 39.155 107.200 39.200 107.155 39.200 107.100 V 104.200 C 39.200 104.100 39.100 104.200 39.200 104.200 H 45.000 C 45.100 104.200 45.000 104.100 45.000 104.200 V 107.100 C 45.000 107.155 45.045 107.200 45.100 107.200 H 51.100 C 51.155 107.200 51.200 107.155 51.200 107.100 V 104.200 C 51.200 104.100 51.100 104.200 51.200 104.200 H 57.000 C 57.100 104.200 57.000 104.100 57.000 104.200 V 107.100 C 57.000 107.155 57.045 107.200 57.100 107.200 H 63.100 C 63.155 107.200 63.200 107.155 63.200 107.100 V 104.200 C 63.200 104.100 63.100 104.200 63.200 104.200 H 69.000 C 69.100 104.200 69.000 104.100 69.000 104.200 V 107.100 C 69.000 107.155 69.045 107.200 69.100 107.200 H 75.100 C 75.155 107.200 75.200 107.155 75.200 107.100 V 104.200 C 75.200 104.100 75.100 104.200 75.200 104.200 H 81.000 C 81.100 104.200 81.000 104.100 81.000 104.200 V 107.100 C 81.000 107.155 81.045 107.200 81.100 107.200 H 87.100 C 87.155 107.200 87.200 107.155 87.200 107.100 V 104.200 C 87.200 104.100 87.100 104.200 87.200 104.200 H 93.000 C 93.100 104.200 93.000 104.100 93.000 104.200 V 107.100 C 93.000 107.155 93.045 107.200 93.100 107.200 H 99.100 C 99.155 107.200 99.200 107.155 99.200 107.100 V 104.200 C 99.200 104.100 99.100 104.200 99.200 104.200 H 107.100 C 107.155 104.200 107.200 104.155 107.200 104.100 V 101.200 C 107.200 101.100 107.100 101.200 107.200 101.200 H 110.100 C 110.155 101.200 110.200 101.155 110.200 101.100 V 95.100 C 110.200 95.045 110.155 95.000 110.100 95.000 H 107.200 C 107.100 95.000 107.200 95.100 107.200 95.000 V 89.200 C 107.200 89.100 107.100 89.200 107.200 89.200 H 110.100 C 110.155 89.200 110.200 89.155 110.200 89.100 V 83.100 C 110.200 83.045 110.155 83.000 110.100 83.000 H 107.200 C 107.100 83.000 107.200 83.100 107.200 83.000 V 77.200 C 107.200 77.100 107.100 77.200 107.200 77.200 H 110.100 C 110.155 77.200 110.200 77.155 110.200 77.100 V 71.100 C 110.200 71.045 110.155 71.000 110.100 71.000 H 107.200 C 107.100 71.000 107.200 71.100 107.200 71.000 V 65.200 C 107.200 65.100 107.100 65.200 107.200 65.200 H 110.100 C 110.155 65.200 110.200 65.155 110.200 65.100 V 59.100 C 110.200 59.045 110.155 59.000 110.100 59.000 H 107.200 C 107.100 59.000 107.200 59.100 107.200 59.000 V 53.200 C 107.200 53.100 107.100 53.200 107.200 53.200 H 110.100 C 110.155 53.200 110.200 53.155 110.200 53.100 V 47.100 C 110.200 47.045 110.155 47.000 110.100 47.000 H 107.200 C 107.100 47.000 107.200 47.100 107.200 47.000 V 41.200 C 107.200 41.100 107.100 41.200 107.200 41.200 H 110.100 C 110.155 41.200 110.200 41.155 110.200 41.100 V 35.100 C 110.200 35.045 110.155 35.000 110.100 35.000 H 107.200 C 107.100 35.000 107.200 35.100 107.200 35.000 V 29.200 C 107.200 29.100 107.100 29.200 107.200 29.200 H 110.100 C 110.155 29.200 110.200 29.155 110.200 29.100 V 23.100 C 110.200 23.045 110.155 23.000 110.100 23.000 H 107.200 C 107.100 23.000 107.200 23.100 107.200 23.000 V 20.100 C 107.200 18.327 106.733 16.585 105.847 15.050 C 104.960 13.515 103.685 12.240 102.150 11.353 C 100.615 10.467 98.873 10.000 97.100 10.000 H 13.100 C 13.045 10.000 13.000 10.045 13.000 10.100 V 18.000 C 13.000 18.100 13.100 18.000 13.000 18.000 H 10.100 C 10.045 18.000 10.000 18.045 10.000 18.100 V 24.100 C 10.000 24.155 10.045 24.200 10.100 24.200 H 13.000 C 13.100 24.200 13.000 24.100 13.000 24.200 V 30.000 C 13.000 30.100 13.100 30.000 13.000 30.000 H 10.100 C 10.045 30.000 10.000 30.045 10.000 30.100 V 36.100 C 10.000 36.155 10.045 36.200 10.100 36.200 H 13.000 C 13.100 36.200 13.000 36.100 13.000 36.200 V 42.000 C 13.000 42.100 13.100 42.000 13.000 42.000 H 10.100 C 10.045 42.000 10.000 42.045 10.000 42.100 V 48.100 C 10.000 48.155 10.045 48.200 10.100 48.200 H 13.000 C 13.100 48.200 13.000 48.100 13.000 48.200 V 54.000 C 13.000 54.100 13.100 54.000 13.000 54.000 H 10.100 C 10.045 54.000 10.000 54.045 10.000 54.100 V 60.100 C 10.000 60.155 10.045 60.200 10.100 60.200 H 13.000 C 13.100 60.200 13.000 60.100 13.000 60.200 V 66.000 C 13.000 66.100 13.100 66.000 13.000 66.000 H 10.100 C 10.045 66.000 10.000 66.045 10.000 66.100 V 72.100 C 10.000 72.155 10.045 72.200 10.100 72.200 H 13.000 C 13.100 72.200 13.000 72.100 13.000 72.200 V 78.000 C 13.000 78.100 13.100 78.000 13.000 78.000 H 10.100 C 10.045 78.000 10.000 78.045 10.000 78.100 V 84.100 C 10.000 84.155 10.045 84.200 10.100 84.200 H 13.000 C 13.100 84.200 13.000 84.100 13.000 84.200 V 90.000 C 13.000 90.100 13.100 90.000 13.000 90.000 H 10.100 C 10.045 90.000 10.000 90.045 10.000 90.100 V 96.100 C 10.000 96.155 10.045 96.200 10.100 96.200 H 13.000 C 13.100 96.200 13.000 96.100 13.000 96.200 V 104.100 C 13.000 104.155 13.045 104.200 13.100 104.200 Z" stroke="rgb(0,0,0)" stroke-width="0.20" />
</g>
<g id="p-7" style="fill:none;stroke-linecap:round;stroke-linejoin:round;">
  <path d="M 208.800 104.200 H 200.900 C 200.800 104.200 200.900 104.100 200.900 104.200 V 107.100 C 200.900 107.155 200.855 107.200 200.800 107.200 H 194.800 C 194.745 107.200 194.700 107.155 194.700 107.100 V 104.200 C 194.700 104.100 194.800 104.200 194.700 104.200 H 188.900 C 188.800 104.200 188.900 104.100 188.900 104.200 V 107.100 C 188.900 107.155 188.855 107.200 188.800 107.200 H 182.800 C 182.745 107.200 182.700 107.155 182.700 107.100 V 104.200 C 182.700 104.100 182.800 104.200 182.700 104.200 H 176.900 C 176.800 104.200 176.900 104.100 176.900 104.200 V 107.100 C 176.900 107.155 176.855 107.200 176.800 107.200 H 170.800 C 170.745 107.200 170.700 107.155 170.700 107.100 V 104.200 C 170.700 104.100 170.800 104.200 170.700 104.200 H 164.900 C 164.800 104.200 164.900 104.100 164.900 104.200 V 107.100 C 164.900 107.155 164.855 107.200 164.800 107.200 H 158.800 C 158.745 107.200 158.700 107.155 158.700 107.100 V 104.200 C 158.700 104.100 158.800 104.200 158.700 104.200 H 152.900 C 152.800 104.200 152.900 104.100 152.900 104.200 V 107.100 C 152.900 107.155 152.855 107.200 152.800 107.200 H 146.800 C 146.745 107.200 146.700 107.155 146.700 107.100 V 104.200 C 146.700 104.100 146.800 104.200 146.700 104.200 H 140.900 C 140.800 104.200 140.900 104.100 140.900 104.200 V 107.100 C 140.900 107.155 140.855 107.200 140.800 107.200 H 134.800 C 134.745 107.200 134.700 107.155 134.700 107.100 V 104.200 C 134.700 104.100 134.800 104.200 134.700 104.200 H 128.900 C 128.800 104.200 128.900 104.100 128.900 104.200 V 107.100 C 128.900 107.155 128.855 107.200 128.800 107.200 H 122.800 C 122.745 107.200 122.700 107.155 122.700 107.100 V 104.200 C 122.700 104.100 122.800 104.200 122.700 104.200 H 114.800 C 114.745 104.200 114.700 104.155 114.700 104.100 V 101.200 C 114.700 101.100 114.800 101.200 114.700 101.200 H 111.800 C 111.745 101.200 111.700 101.155 111.700 101.100 V 95.100 C 111.700 95.045 111.745 95.000 111.800 95.000 H 114.700 C 114.800 95.000 114.700 95.100 114.700 95.000 V 89.200 C 114.700 89.100 114.800 89.200 114.700 89.200 H 111.800 C 111.745 89.200 111.700 89.155 111.700 89.100 V 83.100 C 111.700 83.045 111.745 83.000 111.800 83.000 H 114.700 C 114.800 83.000 114.700 83.100 114.700 83.000 V 77.200 C 114.700 77.100 114.800 77.200 114.700 77.200 H 111.800 C 111.745 77.200 111.700 77.155 111.700 77.100 V 71.100 C 111.700 71.045 111.745 71.000 111.800 71.000 H 114.700 C 114.800 71.000 114.700 71.100 114.700 71.000 V 65.200 C 114.700 65.100 114.800 65.200 114.700 65.200 H 111.800 C 111.745 65.200 111.700 65.155 111.700 65.100 V 59.100 C 111.700 59.045 111.745 59.000 111.800 59.000 H 114.700 C 114.800 59.000 114.700 59.100 114.700 59.000 V 53.200 C 114.700 53.100 114.800 53.200 114.700 53.200 H 111.800 C 111.745 53.200 111.700 53.155 111.700 53.100 V 47.100 C 111.700 47.045 111.745 47.000 111.800 47.000 H 114.700 C 114.800 47.000 114.700 47.100 114.700 47.000 V 41.200 C 114.700 41.100 114.800 41.200 114.700 41.200 H 111.800 C 111.745 41.200 111.700 41.155 111.700 41.100 V 35.100 C 111.700 35.045 111.745 35.000 111.800 35.000 H 114.700 C 114.800 35.000 114.700 35.100 114.700 35.000 V 29.200 C 114.700 29.100 114.800 29.200 114.700 29.200 H 111.800 C 111.745 29.200 111.700 29.155 111.700 29.100 V 23.100 C 111.700 23.045 111.745 23.000 111.800 23.000 H 114.700 C 114.800 23.000 114.700 23.100 114.700 23.000 V 20.100 C 114.700 18.327 115.167 16.585 116.053 15.050 C 116.940 13.515 118.215 12.240 119.750 11.353 C 121.285 10.467 123.027 10.000 124.800 10.000 H 208.800 C 208.855 10.000 208.900 10.045 208.900 10.100 V 18.000 C 208.900 18.100 208.800 18.000 208.900 18.000 H 211.800 C 211.855 18.000 211.900 18.045 211.900 18.100 V 24.100 C 211.900 24.155 211.855 24.200 211.800 24.200 H 208.900 C 208.800 24.200 208.900 24.100 208.900 24.200 V 30.000 C 208.900 30.100 208.800 30.000 208.900 30.000 H 211.800 C 211.855 30.000 211.900 30.045 211.900 30.100 V 36.100 C 211.900 36.155 211.855 36.200 211.800 36.200 H 208.900 C 208.800 36.200 208.900 36.100 208.900 36.200 V 42.000 C 208.900 42.100 208.800 42.000 208.900 42.000 H 211.800 C 211.855 42.000 211.900 42.045 211.900 42.100 V 48.100 C 211.900 48.155 211.855 48.200 211.800 48.200 H 208.900 C 208.800 48.200 208.900 48.100 208.900 48.200 V 54.000 C 208.900 54.100 208.800 54.000 208.900 54.000 H 211.800 C 211.855 54.000 211.900 54.045 211.900 54.100 V 60.100 C 211.900 60.155 211.855 60.200 211.800 60.200 H 208.900 C 208.800 60.200 208.900 60.100 208.900 60.200 V 66.000 C 208.900 66.100 208.800 66.000 208.900 66.000 H 211.800 C 211.855 66.000 211.900 66.045 211.900 66.100 V 72.100 C 211.900 72.155 211.855 72.200 211.800 72.200 H 208.900 C 208.800 72.200 208.900 72.100 208.900 72.200 V 78.000 C 208.900 78.100 208.800 78.000 208.900 78.000 H 211.800 C 211.855 78.000 211.900 78.045 211.900 78.100 V 84.100 C 211.900 84.155 211.855 84.200 211.800 84.200 H 208.900 C 208.800 84.200 208.900 84.100 208.900 84.200 V 90.000 C 208.900 90.100 208.800 90.000 208.900 90.000 H 211.800 C 211.855 90.000 211.900 90.045 211.900 90.100 V 96.100 C 211.900 96.155 211.855 96.200 211.800 96.200 H 208.900 C 208.800 96.200 208.900 96.100 208.900 96.200 V 104.100 C 208.900 104.155 208.855 104.200 208.800 104.200 Z" stroke="rgb(0,0,0)" stroke-width="0.20" />
</g>
<g id="p-8" style="fill:none;stroke-linecap:round;stroke-linejoin:round;">
  <path d="M 216.500 104.200 H 224.400 C 224.500 104.200 224.400 104.100 224.400 104.200 V 107.100 C 224.400 107.155 224.445 107.200 224.500 107.200 H 230.500 C 230.555 107.200 230.600 107.155 230.600 107.100 V 104.200 C 230.600 104.100 230.500 104.200 230.600 104.200 H 236.400 C 236.500 104.200 236.400 104.100 236.400 104.200 V 107.100 C 236.400 107.155 236.445 107.200 236.500 107.200 H 242.500 C 242.555 107.200 242.600 107.155 242.600 107.100 V 104.200 C 242.600 104.100 242.500 104.200 242.600 104.200 H 248.400 C 248.500 104.200 248.400 104.100 248.400 104.200 V 107.100 C 248.400 107.155 248.445 107.200 248.500 107.200 H 254.500 C 254.555 107.200 254.600 107.155 254.600 107.100 V 104.200 C 254.600 104.100 254.500 104.200 254.600 104.200 H 260.400 C 260.500 104.200 260.400 104.100 260.400 104.200 V 107.100 C 260.400 107.155 260.445 107.200 260.500 107.200 H 266.500 C 266.555 107.200 266.600 107.155 266.600 107.100 V 104.200 C 266.600 104.100 266.500 104.200 266.600 104.200 H 272.400 C 272.500 104.200 272.400 104.100 272.400 104.200 V 107.100 C 272.400 107.155 272.445 107.200 272.500 107.200 H 278.500 C 278.555 107.200 278.600 107.155 278.600 107.100 V 104.200 C 278.600 104.100 278.500 104.200 278.600 104.200 H 284.400 C 284.500 104.200 284.400 104.100 284.400 104.200 V 107.100 C 284.400 107.155 284.445 107.200 284.500 107.200 H 290.500 C 290.555 107.200 290.600 107.155 290.600 107.100 V 104.200 C 290.600 104.100 290.500 104.200 290.600 104.200 H 296.400 C 296.500 104.200 296.400 104.100 296.400 104.200 V 107.100 C 296.400 107.155 296.445 107.200 296.500 107.200 H 302.500 C 302.555 107.200 302.600 107.155 302.600 107.100 V 104.200 C 302.600 104.100 302.500 104.200 302.600 104.200 H 310.500 H 313.500 C 313.555 104.200 313.600 104.155 313.600 104.100 V 96.100 C 313.600 96.045 313.555 96.000 313.500 96.000 H 310.600 C 310.500 96.000 310.600 96.100 310.600 96.000 V 90.200 C 310.600 90.100 310.500 90.200 310.600 90.200 H 313.500 C 313.555 90.200 313.600 90.155 313.600 90.100 V 84.100 C 313.600 84.045 313.555 84.000 313.500 84.000 H 310.600 C 310.500 84.000 310.600 84.100 310.600 84.000 V 78.200 C 310.600 78.100 310.500 78.200 310.600 78.200 H 313.500 C 313.555 78.200 313.600 78.155 313.600 78.100 V 72.100 C 313.600 72.045 313.555 72.000 313.500 72.000 H 310.600 C 310.500 72.000 310.600 72.100 310.600 72.000 V 66.200 C 310.600 66.100 310.500 66.200 310.600 66.200 H 313.500 C 313.555 66.200 313.600 66.155 313.600 66.100 V 60.100 C 313.600 60.045 313.555 60.000 313.500 60.000 H 310.600 C 310.500 60.000 310.600 60.100 310.600 60.000 V 54.200 C 310.600 54.100 310.500 54.200 310.600 54.200 H 313.500 C 313.555 54.200 313.600 54.155 313.600 54.100 V 48.100 C 313.600 48.045 313.555 48.000 313.500 48.000 H 310.600 C 310.500 48.000 310.600 48.100 310.600 48.000 V 42.200 C 310.600 42.100 310.500 42.200 310.600 42.200 H 313.500 C 313.555 42.200 313.600 42.155 313.600 42.100 V 36.100 C 313.600 36.045 313.555 36.000 313.500 36.000 H 310.600 C 310.500 36.000 310.600 36.100 310.600 36.000 V 30.200 C 310.600 30.100 310.500 30.200 310.600 30.200 H 313.500 C 313.555 30.200 313.600 30.155 313.600 30.100 V 24.100 C 313.600 24.045 313.555 24.000 313.500 24.000 H 310.600 C 310.500 24.000 310.600 24.100 310.600 24.000 V 18.200 C 310.600 18.100 310.500 18.200 310.600 18.200 H 313.500 C 313.555 18.200 313.600 18.155 313.600 18.100 V 10.100 C 313.600 10.045 313.555 10.000 313.500 10.000 H 310.500 H 216.500 H 213.500 C 213.445 10.000 213.400 10.045 213.400 10.100 V 18.100 C 213.400 18.155 213.445 18.200 213.500 18.200 H 216.400 C 216.500 18.200 216.400 18.100 216.400 18.200 V 24.000 C 216.400 24.100 216.500 24.000 216.400 24.000 H 213.500 C 213.445 24.000 213.400 24.045 213.400 24.100 V 30.100 C 213.400 30.155 213.445 30.200 213.500 30.200 H 216.400 C 216.500 30.200 216.400 30.100 216.400 30.200 V 36.000 C 216.400 36.100 216.500 36.000 216.400 36.000 H 213.500 C 213.445 36.000 213.400 36.045 213.400 36.100 V 42.100 C 213.400 42.155 213.445 42.200 213.500 42.200 H 216.400 C 216.500 42.200 216.400 42.100 216.400 42.200 V 48.000 C 216.400 48.100 216.500 48.000 216.400 48.000 H 213.500 C 213.445 48.000 213.400 48.045 213.400 48.100 V 54.100 C 213.400 54.155 213.445 54.200 213.500 54.200 H 216.400 C 216.500 54.200 216.400 54.100 216.400 54.200 V 60.000 C 216.400 60.100 216.500 60.000 216.400 60.000 H 213.500 C 213.445 60.000 213.400 60.045 213.400 60.100 V 66.100 C 213.400 66.155 213.445 66.200 213.500 66.200 H 216.400 C 216.500 66.200 216.400 66.100 216.400 66.200 V 72.000 C 216.400 72.100 216.500 72.000 216.400 72.000 H 213.500 C 213.445 72.000 213.400 72.045 213.400 72.100 V 78.100 C 213.400 78.155 213.445 78.200 213.500 78.200 H 216.400 C 216.500 78.200 216.400 78.100 216.400 78.200 V 84.000 C 216.400 84.100 216.500 84.000 216.400 84.000 H 213.500 C 213.445 84.000 213.400 84.045 213.400 84.100 V 90.100 C 213.400 90.155 213.445 90.200 213.500 90.200 H 216.400 C 216.500 90.200 216.400 90.100 216.400 90.200 V 96.000 C 216.400 96.100 216.500 96.000 216.400 96.000 H 213.500 C 213.445 96.000 213.400 96.045 213.400 96.100 V 104.100 C 213.400 104.155 213.445 104.200 213.500 104.200 H 216.500 Z" stroke="rgb(0,0,0)" stroke-width="0.20" />
</g>
</svg>