<?xml version="1.0" encoding="UTF-8"?>
<svg xmlns="http://www.w3.org/2000/svg" xmlns:xlink="http://www.w3.org/1999/xlink" width="636.917274pt" height="439.370068pt" viewBox="0 0 636.917274 439.370068" version="1.1">
<g id="surface1">
<path style=" stroke:none;fill-rule:nonzero;fill:rgb(100%,100%,100%);fill-opacity:1;" d="M 0 439.371094 L 1805.433594 439.371094 L 1805.433594 -806.085938 L 0 -806.085938 Z "/>
<path style="fill:none;stroke-width:0.1;stroke-linecap:butt;stroke-linejoin:miter;stroke:rgb(0%,0%,0%);stroke-opacity:1;stroke-miterlimit:10;" d="M -92.84513 5.002756 L -86.845152 5.002756 C -86.817591 5.002756 -86.795543 5.024805 -86.795543 5.052365 M -86.795543 5.052365 L -86.795543 8.052355 C -86.795543 8.024794 -86.817591 8.002745 -86.845152 8.002745 M -86.845152 8.002745 L -80.845174 8.002745 C -80.872734 8.002745 -80.894783 8.024794 -80.894783 8.052355 M -80.894783 8.052355 L -80.894783 5.052365 C -80.894783 5.024805 -80.872734 5.002756 -80.845174 5.002756 M -80.845174 5.002756 L -74.845195 5.002756 C -74.817635 5.002756 -74.795586 5.024805 -74.795586 5.052365 M -74.795586 5.052365 L -74.795586 8.052355 C -74.795586 8.024794 -74.817635 8.002745 -74.845195 8.002745 M -74.845195 8.002745 L -68.845217 8.002745 C -68.872778 8.002745 -68.894826 8.024794 -68.894826 8.052355 M -68.894826 8.052355 L -68.894826 5.052365 C -68.894826 5.024805 -68.872778 5.002756 -68.845217 5.002756 M -68.845217 5.002756 L -62.845239 5.002756 M -62.172756 61.102691 L -62.172756 43.403168 M -62.172756 40.403179 L -62.172756 8.002745 M -60.672072 5.002756 L -60.672072 22.702279 M -60.672072 25.702268 L -60.672072 58.102702 M -59.172767 61.102691 L -59.172767 43.403168 M -59.172767 40.403179 L -59.172767 8.002745 M -57.672083 5.002756 L -57.672083 22.702279 M -57.672083 25.702268 L -57.672083 58.102702 M -56.172778 61.102691 L -56.172778 43.403168 M -56.172778 40.403179 L -56.172778 8.002745 M -54.672094 5.002756 L -54.672094 22.702279 M -54.672094 25.702268 L -54.672094 58.102702 M -53.172789 61.102691 L -53.172789 43.403168 M -53.172789 40.403179 L -53.172789 8.002745 M -51.672105 5.002756 L -51.672105 22.702279 M -51.672105 25.702268 L -51.672105 58.102702 M -50.172799 61.102691 L -50.172799 43.403168 M -50.172799 40.403179 L -50.172799 8.002745 M -48.672116 5.002756 L -48.672116 22.702279 M -48.672116 25.702268 L -48.672116 58.102702 M -47.17281 61.102691 L -47.17281 43.403168 M -47.17281 40.403179 L -47.17281 8.002745 M -45.672127 5.002756 L -45.672127 22.702279 M -45.672127 25.702268 L -45.672127 58.102702 M -44.172821 61.102691 L -44.172821 43.403168 M -44.172821 40.403179 L -44.172821 8.002745 M -42.672138 5.002756 L -42.672138 22.702279 M -42.672138 25.702268 L -42.672138 58.102702 M -41.172832 61.102691 L -41.172832 43.403168 M -41.172832 40.403179 L -41.172832 8.002745 M -39.672148 5.002756 L -39.672148 22.702279 M -39.672148 25.702268 L -39.672148 58.102702 M -38.172843 61.102691 L -38.172843 43.403168 M -38.172843 40.403179 L -38.172843 8.002745 M -36.672159 5.002756 L -36.672159 22.702279 M -36.672159 25.702268 L -36.672159 58.102702 M -35.172854 61.102691 L -35.172854 43.403168 M -35.172854 40.403179 L -35.172854 8.002745 M -62.845239 5.002756 L -32.999688 5.002756 C -33.027248 5.002756 -33.049297 5.024805 -33.049297 5.052365 M -33.049297 5.052365 L -33.049297 4.05191 C -33.049297 4.024349 -33.027248 4.0023 -32.999688 4.0023 M -32.999688 4.0023 L -26.499481 4.0023 C -26.527042 4.0023 -26.549091 4.024349 -26.549091 4.05191 M -26.549091 4.05191 L -26.549091 1.051921 C -26.549091 1.02436 -26.527042 1.002311 -26.499481 1.002311 M -26.499481 1.002311 L -20.499503 1.002311 C -20.471942 1.002311 -20.449894 1.02436 -20.449894 1.051921 M -20.449894 1.051921 L -20.449894 4.05191 C -20.449894 4.024349 -20.471942 4.0023 -20.499503 4.0023 M -20.499503 4.0023 L -14.499525 4.0023 C -14.527086 4.0023 -14.549134 4.024349 -14.549134 4.05191 M -14.549134 4.05191 L -14.549134 1.051921 C -14.549134 1.02436 -14.527086 1.002311 -14.499525 1.002311 M -14.499525 1.002311 L -8.499546 1.002311 C -8.471986 1.002311 -8.449937 1.02436 -8.449937 1.051921 M -8.449937 1.051921 L -8.449937 4.05191 C -8.449937 4.024349 -8.471986 4.0023 -8.499546 4.0023 M -8.499546 4.0023 L -1.99934 4.0023 C -1.97178 4.0023 -1.949731 4.024349 -1.949731 4.05191 M -1.949731 4.05191 L -1.949731 12.051421 C -1.949731 12.023861 -1.97178 12.001812 -1.99934 12.001812 M -1.99934 12.001812 L 1.000649 12.001812 C 1.02821 12.001812 1.050258 12.023861 1.050258 12.051421 M 1.050258 12.051421 L 1.050258 18.0514 C 1.050258 18.078961 1.02821 18.101009 1.000649 18.101009 M 1.000649 18.101009 L -1.99934 18.101009 C -1.97178 18.101009 -1.949731 18.078961 -1.949731 18.0514 M -1.949731 18.0514 L -1.949731 24.051378 C -1.949731 24.023817 -1.97178 24.001769 -1.99934 24.001769 M -1.99934 24.001769 L 1.000649 24.001769 C 1.02821 24.001769 1.050258 24.023817 1.050258 24.051378 M 1.050258 24.051378 L 1.050258 30.051356 C 1.050258 30.078917 1.02821 30.100966 1.000649 30.100966 M 1.000649 30.100966 L -1.99934 30.100966 C -1.97178 30.100966 -1.949731 30.078917 -1.949731 30.051356 M -1.949731 30.051356 L -1.949731 36.051335 C -1.949731 36.023774 -1.97178 36.001725 -1.99934 36.001725 M -1.99934 36.001725 L 1.000649 36.001725 C 1.02821 36.001725 1.050258 36.023774 1.050258 36.051335 M 1.050258 36.051335 L 1.050258 42.051313 C 1.050258 42.078874 1.02821 42.100922 1.000649 42.100922 M 1.000649 42.100922 L -1.99934 42.100922 C -1.97178 42.100922 -1.949731 42.078874 -1.949731 42.051313 M -1.949731 42.051313 L -1.949731 48.051291 C -1.949731 48.02373 -1.97178 48.001682 -1.99934 48.001682 M -1.99934 48.001682 L 1.000649 48.001682 C 1.02821 48.001682 1.050258 48.02373 1.050258 48.051291 M 1.050258 48.051291 L 1.050258 54.05127 C 1.050258 54.07883 1.02821 54.100879 1.000649 54.100879 M 1.000649 54.100879 L -1.99934 54.100879 C -1.97178 54.100879 -1.949731 54.07883 -1.949731 54.05127 M -1.949731 54.05127 L -1.949731 62.050781 C -1.949731 62.078342 -1.97178 62.100391 -1.99934 62.100391 M -1.99934 62.100391 L -8.499546 62.100391 C -8.471986 62.100391 -8.449937 62.078342 -8.449937 62.050781 M -8.449937 62.050781 L -8.449937 65.05077 C -8.449937 65.078331 -8.471986 65.10038 -8.499546 65.10038 M -8.499546 65.10038 L -14.499525 65.10038 C -14.527086 65.10038 -14.549134 65.078331 -14.549134 65.05077 M -14.549134 65.05077 L -14.549134 62.050781 C -14.549134 62.078342 -14.527086 62.100391 -14.499525 62.100391 M -14.499525 62.100391 L -20.499503 62.100391 C -20.471942 62.100391 -20.449894 62.078342 -20.449894 62.050781 M -20.449894 62.050781 L -20.449894 65.05077 C -20.449894 65.078331 -20.471942 65.10038 -20.499503 65.10038 M -20.499503 65.10038 L -26.499481 65.10038 C -26.527042 65.10038 -26.549091 65.078331 -26.549091 65.05077 M -26.549091 65.05077 L -26.549091 62.050781 C -26.549091 62.078342 -26.527042 62.100391 -26.499481 62.100391 M -26.499481 62.100391 L -32.999688 62.100391 C -33.027248 62.100391 -33.049297 62.078342 -33.049297 62.050781 M -33.049297 62.050781 L -33.049297 61.050326 C -33.049297 61.077886 -33.027248 61.099935 -32.999688 61.099935 M -32.999688 61.099935 L -62.845239 61.099935 M -62.845239 61.099935 L -68.845217 61.099935 C -68.872778 61.099935 -68.894826 61.077886 -68.894826 61.050326 M -68.894826 61.050326 L -68.894826 58.050336 C -68.894826 58.077897 -68.872778 58.099946 -68.845217 58.099946 M -68.845217 58.099946 L -74.845195 58.099946 C -74.817635 58.099946 -74.795586 58.077897 -74.795586 58.050336 M -74.795586 58.050336 L -74.795586 61.050326 C -74.795586 61.077886 -74.817635 61.099935 -74.845195 61.099935 M -74.845195 61.099935 L -80.845174 61.099935 C -80.872734 61.099935 -80.894783 61.077886 -80.894783 61.050326 M -80.894783 61.050326 L -80.894783 58.050336 C -80.894783 58.077897 -80.872734 58.099946 -80.845174 58.099946 M -80.845174 58.099946 L -86.845152 58.099946 C -86.817591 58.099946 -86.795543 58.077897 -86.795543 58.050336 M -86.795543 58.050336 L -86.795543 61.050326 C -86.795543 61.077886 -86.817591 61.099935 -86.845152 61.099935 M -86.845152 61.099935 L -92.84513 61.099935 C -92.872691 61.099935 -92.89474 61.077886 -92.89474 61.050326 M -92.89474 61.050326 L -92.89474 58.050336 M -92.89474 58.050336 L -92.89474 54.049891 C -92.89474 54.077452 -92.872691 54.099501 -92.84513 54.099501 M -92.84513 54.099501 L -95.845119 54.099501 C -95.87268 54.099501 -95.894729 54.077452 -95.894729 54.049891 M -95.894729 54.049891 L -95.894729 48.049913 C -95.894729 48.022352 -95.87268 48.000304 -95.845119 48.000304 M -95.845119 48.000304 L -92.84513 48.000304 C -92.872691 48.000304 -92.89474 48.022352 -92.89474 48.049913 M -92.89474 48.049913 L -92.89474 42.049935 C -92.89474 42.077496 -92.872691 42.099544 -92.84513 42.099544 M -92.84513 42.099544 L -95.845119 42.099544 C -95.87268 42.099544 -95.894729 42.077496 -95.894729 42.049935 M -95.894729 42.049935 L -95.894729 36.049957 C -95.894729 36.022396 -95.87268 36.000347 -95.845119 36.000347 M -95.845119 36.000347 L -92.84513 36.000347 C -92.872691 36.000347 -92.89474 36.022396 -92.89474 36.049957 M -92.89474 36.049957 L -92.89474 30.049978 C -92.89474 30.077539 -92.872691 30.099588 -92.84513 30.099588 M -92.84513 30.099588 L -95.845119 30.099588 C -95.87268 30.099588 -95.894729 30.077539 -95.894729 30.049978 M -95.894729 30.049978 L -95.894729 24.05 C -95.894729 24.022439 -95.87268 24.000391 -95.845119 24.000391 M -95.845119 24.000391 L -92.84513 24.000391 C -92.872691 24.000391 -92.89474 24.022439 -92.89474 24.05 M -92.89474 24.05 L -92.89474 18.050022 C -92.89474 18.077582 -92.872691 18.099631 -92.84513 18.099631 M -92.84513 18.099631 L -95.845119 18.099631 C -95.87268 18.099631 -95.894729 18.077582 -95.894729 18.050022 M -95.894729 18.050022 L -95.894729 12.050043 C -95.894729 12.022483 -95.87268 12.000434 -95.845119 12.000434 M -95.845119 12.000434 L -92.84513 12.000434 C -92.872691 12.000434 -92.89474 12.022483 -92.89474 12.050043 M -92.89474 12.050043 L -92.89474 8.049599 M -92.89474 8.049599 L -92.89474 5.049609 C -92.89474 5.022049 -92.872691 5 -92.84513 5 M 1.600095 1.60038 L 4.600085 1.60038 M 4.600085 1.60038 L 8.60053 1.60038 C 8.62809 1.60038 8.650139 1.622428 8.650139 1.649989 M 8.650139 1.649989 L 8.650139 4.649978 C 8.650139 4.622418 8.62809 4.600369 8.60053 4.600369 M 8.60053 4.600369 L 14.600508 4.600369 C 14.572947 4.600369 14.550898 4.622418 14.550898 4.649978 M 14.550898 4.649978 L 14.550898 1.649989 C 14.550898 1.622428 14.572947 1.60038 14.600508 1.60038 M 14.600508 1.60038 L 20.600486 1.60038 C 20.628047 1.60038 20.650095 1.622428 20.650095 1.649989 M 20.650095 1.649989 L 20.650095 4.649978 C 20.650095 4.622418 20.628047 4.600369 20.600486 4.600369 M 20.600486 4.600369 L 26.600464 4.600369 C 26.572904 4.600369 26.550855 4.622418 26.550855 4.649978 M 26.550855 4.649978 L 26.550855 1.649989 C 26.550855 1.622428 26.572904 1.60038 26.600464 1.60038 M 26.600464 1.60038 L 32.600443 1.60038 C 32.628003 1.60038 32.650052 1.622428 32.650052 1.649989 M 32.650052 1.649989 L 32.650052 4.649978 C 32.650052 4.622418 32.628003 4.600369 32.600443 4.600369 M 32.600443 4.600369 L 38.600421 4.600369 C 38.57286 4.600369 38.550812 4.622418 38.550812 4.649978 M 38.550812 4.649978 L 38.550812 1.649989 C 38.550812 1.622428 38.57286 1.60038 38.600421 1.60038 M 38.600421 1.60038 L 44.600399 1.60038 C 44.62796 1.60038 44.650009 1.622428 44.650009 1.649989 M 44.650009 1.649989 L 44.650009 4.649978 C 44.650009 4.622418 44.62796 4.600369 44.600399 4.600369 M 44.600399 4.600369 L 50.600378 4.600369 C 50.572817 4.600369 50.550768 4.622418 50.550768 4.649978 M 50.550768 4.649978 L 50.550768 1.649989 C 50.550768 1.622428 50.572817 1.60038 50.600378 1.60038 M 50.600378 1.60038 L 54.600822 1.60038 M 54.600822 1.60038 L 57.600812 1.60038 C 57.628372 1.60038 57.650421 1.622428 57.650421 1.649989 M 57.650421 1.649989 L 57.650421 4.649978 M 57.650421 4.649978 L 57.650421 8.650423 C 57.650421 8.677984 57.628372 8.700033 57.600812 8.700033 M 57.600812 8.700033 L 54.600822 8.700033 C 54.628383 8.700033 54.650432 8.677984 54.650432 8.650423 M 54.650432 8.650423 L 54.650432 14.650401 C 54.650432 14.622841 54.628383 14.600792 54.600822 14.600792 M 54.600822 14.600792 L 57.600812 14.600792 C 57.628372 14.600792 57.650421 14.622841 57.650421 14.650401 M 57.650421 14.650401 L 57.650421 20.65038 C 57.650421 20.677941 57.628372 20.699989 57.600812 20.699989 M 57.600812 20.699989 L 54.600822 20.699989 C 54.628383 20.699989 54.650432 20.677941 54.650432 20.65038 M 54.650432 20.65038 L 54.650432 26.650358 C 54.650432 26.622797 54.628383 26.600749 54.600822 26.600749 M 54.600822 26.600749 L 57.600812 26.600749 C 57.628372 26.600749 57.650421 26.622797 57.650421 26.650358 M 57.650421 26.650358 L 57.650421 32.650336 C 57.650421 32.677897 57.628372 32.699946 57.600812 32.699946 M 57.600812 32.699946 L 54.600822 32.699946 C 54.628383 32.699946 54.650432 32.677897 54.650432 32.650336 M 54.650432 32.650336 L 54.650432 38.650315 C 54.650432 38.622754 54.628383 38.600705 54.600822 38.600705 M 54.600822 38.600705 L 57.600812 38.600705 C 57.628372 38.600705 57.650421 38.622754 57.650421 38.650315 M 57.650421 38.650315 L 57.650421 44.650293 C 57.650421 44.677854 57.628372 44.699902 57.600812 44.699902 M 57.600812 44.699902 L 54.600822 44.699902 C 54.628383 44.699902 54.650432 44.677854 54.650432 44.650293 M 54.650432 44.650293 L 54.650432 50.650271 C 54.650432 50.622711 54.628383 50.600662 54.600822 50.600662 M 54.600822 50.600662 L 57.600812 50.600662 C 57.628372 50.600662 57.650421 50.622711 57.650421 50.650271 M 57.650421 50.650271 L 57.650421 54.650716 M 57.650421 54.650716 L 57.650421 57.650705 C 57.650421 57.678266 57.628372 57.700315 57.600812 57.700315 M 57.600812 57.700315 L 54.600822 57.700315 M 54.600822 57.700315 L 50.600378 57.700315 C 50.572817 57.700315 50.550768 57.678266 50.550768 57.650705 M 50.550768 57.650705 L 50.550768 54.650716 C 50.550768 54.678277 50.572817 54.700326 50.600378 54.700326 M 50.600378 54.700326 L 44.600399 54.700326 C 44.62796 54.700326 44.650009 54.678277 44.650009 54.650716 M 44.650009 54.650716 L 44.650009 57.650705 C 44.650009 57.678266 44.62796 57.700315 44.600399 57.700315 M 44.600399 57.700315 L 38.600421 57.700315 C 38.57286 57.700315 38.550812 57.678266 38.550812 57.650705 M 38.550812 57.650705 L 38.550812 54.650716 C 38.550812 54.678277 38.57286 54.700326 38.600421 54.700326 M 38.600421 54.700326 L 32.600443 54.700326 C 32.628003 54.700326 32.650052 54.678277 32.650052 54.650716 M 32.650052 54.650716 L 32.650052 57.650705 C 32.650052 57.678266 32.628003 57.700315 32.600443 57.700315 M 32.600443 57.700315 L 26.600464 57.700315 C 26.572904 57.700315 26.550855 57.678266 26.550855 57.650705 M 26.550855 57.650705 L 26.550855 54.650716 C 26.550855 54.678277 26.572904 54.700326 26.600464 54.700326 M 26.600464 54.700326 L 20.600486 54.700326 C 20.628047 54.700326 20.650095 54.678277 20.650095 54.650716 M 20.650095 54.650716 L 20.650095 57.650705 C 20.650095 57.678266 20.628047 57.700315 20.600486 57.700315 M 20.600486 57.700315 L 14.600508 57.700315 C 14.572947 57.700315 14.550898 57.678266 14.550898 57.650705 M 14.550898 57.650705 L 14.550898 54.650716 C 14.550898 54.678277 14.572947 54.700326 14.600508 54.700326 M 14.600508 54.700326 L 8.60053 54.700326 C 8.62809 54.700326 8.650139 54.678277 8.650139 54.650716 M 8.650139 54.650716 L 8.650139 57.650705 C 8.650139 57.678266 8.62809 57.700315 8.60053 57.700315 M 8.60053 57.700315 L 4.600085 57.700315 M 4.600085 57.700315 L 1.600095 57.700315 C 1.572535 57.700315 1.550486 57.678266 1.550486 57.650705 M 1.550486 57.650705 L 1.550486 54.650716 M 1.550486 54.650716 L 1.550486 50.650271 C 1.550486 50.622711 1.572535 50.600662 1.600095 50.600662 M 1.600095 50.600662 L 4.600085 50.600662 C 4.572524 50.600662 4.550475 50.622711 4.550475 50.650271 M 4.550475 50.650271 L 4.550475 44.650293 C 4.550475 44.677854 4.572524 44.699902 4.600085 44.699902 M 4.600085 44.699902 L 1.600095 44.699902 C 1.572535 44.699902 1.550486 44.677854 1.550486 44.650293 M 1.550486 44.650293 L 1.550486 38.650315 C 1.550486 38.622754 1.572535 38.600705 1.600095 38.600705 M 1.600095 38.600705 L 4.600085 38.600705 C 4.572524 38.600705 4.550475 38.622754 4.550475 38.650315 M 4.550475 38.650315 L 4.550475 32.650336 C 4.550475 32.677897 4.572524 32.699946 4.600085 32.699946 M 4.600085 32.699946 L 1.600095 32.699946 C 1.572535 32.699946 1.550486 32.677897 1.550486 32.650336 M 1.550486 32.650336 L 1.550486 26.650358 C 1.550486 26.622797 1.572535 26.600749 1.600095 26.600749 M 1.600095 26.600749 L 4.600085 26.600749 C 4.572524 26.600749 4.550475 26.622797 4.550475 26.650358 M 4.550475 26.650358 L 4.550475 20.65038 C 4.550475 20.677941 4.572524 20.699989 4.600085 20.699989 M 4.600085 20.699989 L 1.600095 20.699989 C 1.572535 20.699989 1.550486 20.677941 1.550486 20.65038 M 1.550486 20.65038 L 1.550486 14.650401 C 1.550486 14.622841 1.572535 14.600792 1.600095 14.600792 M 1.600095 14.600792 L 4.600085 14.600792 C 4.572524 14.600792 4.550475 14.622841 4.550475 14.650401 M 4.550475 14.650401 L 4.550475 8.650423 C 4.550475 8.677984 4.572524 8.700033 4.600085 8.700033 M 4.600085 8.700033 L 1.600095 8.700033 C 1.572535 8.700033 1.550486 8.677984 1.550486 8.650423 M 1.550486 8.650423 L 1.550486 4.649978 M 1.550486 4.649978 L 1.550486 1.649989 C 1.550486 1.622428 1.572535 1.60038 1.600095 1.60038 " transform="matrix(2.834646,0.000000000000000694,0.000000000000000694,-2.834646,280.190859,439.376353)"/>
<path style="fill:none;stroke-width:0.1;stroke-linecap:butt;stroke-linejoin:miter;stroke:rgb(0%,0%,0%);stroke-opacity:1;stroke-miterlimit:10;" d="M 1.600616 1.60038 L 4.600605 1.60038 M 4.600605 1.60038 L 8.100822 1.60038 C 8.128383 1.60038 8.150432 1.622428 8.150432 1.649989 M 8.150432 1.649989 L 8.150432 4.649978 C 8.150432 4.622418 8.128383 4.600369 8.100822 4.600369 M 8.100822 4.600369 L 11.100812 4.600369 C 11.073251 4.600369 11.051202 4.622418 11.051202 4.649978 M 11.051202 4.649978 L 11.051202 1.649989 C 11.051202 1.622428 11.073251 1.60038 11.100812 1.60038 M 11.100812 1.60038 L 14.601029 1.60038 M 14.601029 1.60038 C 14.628589 1.60038 14.650638 1.622428 14.650638 1.649989 M 14.650638 1.649989 L 14.650638 4.649978 M 14.650638 4.649978 L 14.650638 62.650228 M 14.650638 62.650228 L 14.650638 65.650217 C 14.650638 65.677778 14.628589 65.699826 14.601029 65.699826 M 14.601029 65.699826 L 14.601029 65.699826 M 14.601029 65.699826 L 11.100812 65.699826 C 11.073251 65.699826 11.051202 65.677778 11.051202 65.650217 M 11.051202 65.650217 L 11.051202 62.650228 C 11.051202 62.677789 11.073251 62.699837 11.100812 62.699837 M 11.100812 62.699837 L 8.100822 62.699837 C 8.128383 62.699837 8.150432 62.677789 8.150432 62.650228 M 8.150432 62.650228 L 8.150432 65.650217 C 8.150432 65.677778 8.128383 65.699826 8.100822 65.699826 M 8.100822 65.699826 L 4.600605 65.699826 M 4.600605 65.699826 L 1.600616 65.699826 C 1.573056 65.699826 1.551007 65.677778 1.551007 65.650217 M 1.551007 65.650217 L 1.551007 62.650228 M 1.551007 62.650228 L 1.551007 54.650716 C 1.551007 54.623155 1.573056 54.601107 1.600616 54.601107 M 1.600616 54.601107 L 4.600605 54.601107 C 4.573045 54.601107 4.550996 54.623155 4.550996 54.650716 M 4.550996 54.650716 L 4.550996 48.650738 C 4.550996 48.678299 4.573045 48.700347 4.600605 48.700347 M 4.600605 48.700347 L 1.600616 48.700347 C 1.573056 48.700347 1.551007 48.678299 1.551007 48.650738 M 1.551007 48.650738 L 1.551007 42.65076 C 1.551007 42.623199 1.573056 42.60115 1.600616 42.60115 M 1.600616 42.60115 L 4.600605 42.60115 C 4.573045 42.60115 4.550996 42.623199 4.550996 42.65076 M 4.550996 42.65076 L 4.550996 36.650781 C 4.550996 36.678342 4.573045 36.700391 4.600605 36.700391 M 4.600605 36.700391 L 1.600616 36.700391 C 1.573056 36.700391 1.551007 36.678342 1.551007 36.650781 M 1.551007 36.650781 L 1.551007 30.650803 C 1.551007 30.623242 1.573056 30.601194 1.600616 30.601194 M 1.600616 30.601194 L 4.600605 30.601194 C 4.573045 30.601194 4.550996 30.623242 4.550996 30.650803 M 4.550996 30.650803 L 4.550996 24.650825 C 4.550996 24.678385 4.573045 24.700434 4.600605 24.700434 M 4.600605 24.700434 L 1.600616 24.700434 C 1.573056 24.700434 1.551007 24.678385 1.551007 24.650825 M 1.551007 24.650825 L 1.551007 18.650846 C 1.551007 18.623286 1.573056 18.601237 1.600616 18.601237 M 1.600616 18.601237 L 4.600605 18.601237 C 4.573045 18.601237 4.550996 18.623286 4.550996 18.650846 M 4.550996 18.650846 L 4.550996 12.650868 C 4.550996 12.678429 4.573045 12.700477 4.600605 12.700477 M 4.600605 12.700477 L 1.600616 12.700477 C 1.573056 12.700477 1.551007 12.678429 1.551007 12.650868 M 1.551007 12.650868 L 1.551007 4.651356 M 1.551007 4.651356 L 1.551007 1.651367 C 1.551007 1.623806 1.573056 1.601758 1.600616 1.601758 " transform="matrix(2.834646,0.000000000000000694,0.000000000000000694,-2.834646,448.001882,439.376353)"/>
<path style="fill:none;stroke-width:0.1;stroke-linecap:butt;stroke-linejoin:miter;stroke:rgb(0%,0%,0%);stroke-opacity:1;stroke-miterlimit:10;" d="M 56.244651 -65.001751 C 63.45179 -65.001751 69.294672 -59.158869 69.294672 -51.951729 M 69.294672 -51.951729 L 69.294672 -38.951317 M 69.294672 -38.951317 L 69.294672 -32.951338 C 69.294672 -32.923778 69.272624 -32.901729 69.245063 -32.901729 M 69.245063 -32.901729 L 66.245074 -32.901729 C 66.272635 -32.901729 66.294683 -32.923778 66.294683 -32.951338 M 66.294683 -32.951338 L 66.294683 -26.95136 C 66.294683 -26.978921 66.272635 -27.00097 66.245074 -27.00097 M 66.245074 -27.00097 L 69.245063 -27.00097 C 69.272624 -27.00097 69.294672 -26.978921 69.294672 -26.95136 M 69.294672 -26.95136 L 69.294672 -20.951382 C 69.294672 -20.923821 69.272624 -20.901772 69.245063 -20.901772 M 69.245063 -20.901772 L 66.245074 -20.901772 C 66.272635 -20.901772 66.294683 -20.923821 66.294683 -20.951382 M 66.294683 -20.951382 L 66.294683 -14.951404 C 66.294683 -14.978964 66.272635 -15.001013 66.245074 -15.001013 M 66.245074 -15.001013 L 69.245063 -15.001013 C 69.272624 -15.001013 69.294672 -14.978964 69.294672 -14.951404 M 69.294672 -14.951404 L 69.294672 -8.951425 M 69.294672 -8.951425 C 69.294672 -8.923864 69.272624 -8.901816 69.245063 -8.901816 M 69.245063 -8.901816 L 66.245074 -8.901816 M 66.245074 -8.901816 L 62.744857 -8.901816 C 62.772418 -8.901816 62.794466 -8.923864 62.794466 -8.951425 M 62.794466 -8.951425 L 62.794466 -5.951436 C 62.794466 -5.923875 62.772418 -5.901827 62.744857 -5.901827 M 62.744857 -5.901827 L 59.744868 -5.901827 C 59.717307 -5.901827 59.695258 -5.923875 59.695258 -5.951436 M 59.695258 -5.951436 L 59.695258 -8.951425 C 59.695258 -8.923864 59.717307 -8.901816 59.744868 -8.901816 M 59.744868 -8.901816 L 56.244651 -8.901816 M 56.244651 -8.901816 C 56.21709 -8.901816 56.195041 -8.923864 56.195041 -8.951425 M 56.195041 -8.951425 L 56.195041 -8.951425 M 56.195041 -8.951425 L 56.195041 -64.950763 M 85.245464 -65.001751 C 78.038325 -65.001751 72.195443 -59.158869 72.195443 -51.951729 M 72.195443 -51.951729 L 72.195443 -38.951317 M 72.195443 -38.951317 L 72.195443 -32.951338 C 72.195443 -32.923778 72.217491 -32.901729 72.245052 -32.901729 M 72.245052 -32.901729 L 75.245041 -32.901729 C 75.21748 -32.901729 75.195432 -32.923778 75.195432 -32.951338 M 75.195432 -32.951338 L 75.195432 -26.95136 C 75.195432 -26.978921 75.21748 -27.00097 75.245041 -27.00097 M 75.245041 -27.00097 L 72.245052 -27.00097 C 72.217491 -27.00097 72.195443 -26.978921 72.195443 -26.95136 M 72.195443 -26.95136 L 72.195443 -20.951382 C 72.195443 -20.923821 72.217491 -20.901772 72.245052 -20.901772 M 72.245052 -20.901772 L 75.245041 -20.901772 C 75.21748 -20.901772 75.195432 -20.923821 75.195432 -20.951382 M 75.195432 -20.951382 L 75.195432 -14.951404 C 75.195432 -14.978964 75.21748 -15.001013 75.245041 -15.001013 M 75.245041 -15.001013 L 72.245052 -15.001013 C 72.217491 -15.001013 72.195443 -14.978964 72.195443 -14.951404 M 72.195443 -14.951404 L 72.195443 -8.951425 M 72.195443 -8.951425 C 72.195443 -8.923864 72.217491 -8.901816 72.245052 -8.901816 M 72.245052 -8.901816 L 75.245041 -8.901816 M 75.245041 -8.901816 L 78.745258 -8.901816 C 78.717697 -8.901816 78.695649 -8.923864 78.695649 -8.951425 M 78.695649 -8.951425 L 78.695649 -5.951436 C 78.695649 -5.923875 78.717697 -5.901827 78.745258 -5.901827 M 78.745258 -5.901827 L 81.745247 -5.901827 C 81.772808 -5.901827 81.794857 -5.923875 81.794857 -5.951436 M 81.794857 -5.951436 L 81.794857 -8.951425 C 81.794857 -8.923864 81.772808 -8.901816 81.745247 -8.901816 M 81.745247 -8.901816 L 85.245464 -8.901816 M 85.245464 -8.901816 C 85.273025 -8.901816 85.295074 -8.923864 85.295074 -8.951425 M 85.295074 -8.951425 L 85.295074 -8.951425 M 85.295074 -8.951425 L 85.295074 -64.950763 M -115.000022 0.999389 L -110.999577 0.999389 C -111.027138 0.999389 -111.049186 1.021437 -111.049186 1.048998 M -111.049186 1.048998 L -111.049186 -1.950991 C -111.049186 -1.978552 -111.027138 -2.000601 -110.999577 -2.000601 M -110.999577 -2.000601 L -104.999599 -2.000601 C -104.972038 -2.000601 -104.949989 -1.978552 -104.949989 -1.950991 M -104.949989 -1.950991 L -104.949989 1.048998 C -104.949989 1.021437 -104.972038 0.999389 -104.999599 0.999389 M -104.999599 0.999389 L -98.99962 0.999389 C -99.027181 0.999389 -99.04923 1.021437 -99.04923 1.048998 M -99.04923 1.048998 L -99.04923 -1.950991 C -99.04923 -1.978552 -99.027181 -2.000601 -98.99962 -2.000601 M -98.99962 -2.000601 L -92.999642 -2.000601 C -92.972081 -2.000601 -92.950033 -1.978552 -92.950033 -1.950991 M -92.950033 -1.950991 L -92.950033 1.048998 C -92.950033 1.021437 -92.972081 0.999389 -92.999642 0.999389 M -92.999642 0.999389 L -86.999664 0.999389 C -87.027224 0.999389 -87.049273 1.021437 -87.049273 1.048998 M -87.049273 1.048998 L -87.049273 -1.950991 C -87.049273 -1.978552 -87.027224 -2.000601 -86.999664 -2.000601 M -86.999664 -2.000601 L -80.999685 -2.000601 C -80.972125 -2.000601 -80.950076 -1.978552 -80.950076 -1.950991 M -80.950076 -1.950991 L -80.950076 1.048998 C -80.950076 1.021437 -80.972125 0.999389 -80.999685 0.999389 M -80.999685 0.999389 L -74.999707 0.999389 C -75.027268 0.999389 -75.049316 1.021437 -75.049316 1.048998 M -75.049316 1.048998 L -75.049316 -1.950991 C -75.049316 -1.978552 -75.027268 -2.000601 -74.999707 -2.000601 M -74.999707 -2.000601 L -68.999729 -2.000601 C -68.972168 -2.000601 -68.950119 -1.978552 -68.950119 -1.950991 M -68.950119 -1.950991 L -68.950119 1.048998 C -68.950119 1.021437 -68.972168 0.999389 -68.999729 0.999389 M -68.999729 0.999389 L -64.999284 0.999389 C -64.971723 0.999389 -64.949674 1.021437 -64.949674 1.048998 M -64.949674 1.048998 L -64.949674 7.048976 C -64.949674 7.021415 -64.971723 6.999367 -64.999284 6.999367 M -64.999284 6.999367 L -61.999295 6.999367 C -61.971734 6.999367 -61.949685 7.021415 -61.949685 7.048976 M -61.949685 7.048976 L -61.949685 13.048955 C -61.949685 13.076515 -61.971734 13.098564 -61.999295 13.098564 M -61.999295 13.098564 L -64.999284 13.098564 C -64.971723 13.098564 -64.949674 13.076515 -64.949674 13.048955 M -64.949674 13.048955 L -64.949674 19.048933 C -64.949674 19.021372 -64.971723 18.999323 -64.999284 18.999323 M -64.999284 18.999323 L -61.999295 18.999323 C -61.971734 18.999323 -61.949685 19.021372 -61.949685 19.048933 M -61.949685 19.048933 L -61.949685 25.048911 C -61.949685 25.076472 -61.971734 25.098521 -61.999295 25.098521 M -61.999295 25.098521 L -64.999284 25.098521 C -64.971723 25.098521 -64.949674 25.076472 -64.949674 25.048911 M -64.949674 25.048911 L -64.949674 31.048889 C -64.949674 42.122804 -73.926215 51.099345 -85.00013 51.099345 M -85.00013 51.099345 L -115.000022 51.099345 C -115.027582 51.099345 -115.049631 51.077297 -115.049631 51.049736 M -115.049631 51.049736 L -115.049631 47.049291 C -115.049631 47.076852 -115.027582 47.0989 -115.000022 47.0989 M -115.000022 47.0989 L -118.000011 47.0989 C -118.027572 47.0989 -118.04962 47.076852 -118.04962 47.049291 M -118.04962 47.049291 L -118.04962 41.049313 C -118.04962 41.021752 -118.027572 40.999703 -118.000011 40.999703 M -118.000011 40.999703 L -115.000022 40.999703 C -115.027582 40.999703 -115.049631 41.021752 -115.049631 41.049313 M -115.049631 41.049313 L -115.049631 35.049334 C -115.049631 35.076895 -115.027582 35.098944 -115.000022 35.098944 M -115.000022 35.098944 L -118.000011 35.098944 C -118.027572 35.098944 -118.04962 35.076895 -118.04962 35.049334 M -118.04962 35.049334 L -118.04962 29.049356 C -118.04962 29.021795 -118.027572 28.999747 -118.000011 28.999747 M -118.000011 28.999747 L -115.000022 28.999747 C -115.027582 28.999747 -115.049631 29.021795 -115.049631 29.049356 M -115.049631 29.049356 L -115.049631 23.049378 C -115.049631 23.076938 -115.027582 23.098987 -115.000022 23.098987 M -115.000022 23.098987 L -118.000011 23.098987 C -118.027572 23.098987 -118.04962 23.076938 -118.04962 23.049378 M -118.04962 23.049378 L -118.04962 17.049399 C -118.04962 17.021839 -118.027572 16.99979 -118.000011 16.99979 M -118.000011 16.99979 L -115.000022 16.99979 C -115.027582 16.99979 -115.049631 17.021839 -115.049631 17.049399 M -115.049631 17.049399 L -115.049631 11.049421 C -115.049631 11.076982 -115.027582 11.09903 -115.000022 11.09903 M -115.000022 11.09903 L -118.000011 11.09903 C -118.027572 11.09903 -118.04962 11.076982 -118.04962 11.049421 M -118.04962 11.049421 L -118.04962 5.049443 C -118.04962 5.021882 -118.027572 4.999833 -118.000011 4.999833 M -118.000011 4.999833 L -115.000022 4.999833 C -115.027582 4.999833 -115.049631 5.021882 -115.049631 5.049443 M -115.049631 5.049443 L -115.049631 1.048998 C -115.049631 1.021437 -115.027582 0.999389 -115.000022 0.999389 M -5.999957 3.0003 L -10.000401 3.0003 C -9.972841 3.0003 -9.950792 3.022349 -9.950792 3.049909 M -9.950792 3.049909 L -9.950792 0.0499203 C -9.950792 0.0223595 -9.972841 0.000310881 -10.000401 0.000310881 M -10.000401 0.000310881 L -16.00038 0.000310881 C -16.027941 0.000310881 -16.049989 0.0223595 -16.049989 0.0499203 M -16.049989 0.0499203 L -16.049989 3.049909 C -16.049989 3.022349 -16.027941 3.0003 -16.00038 3.0003 M -16.00038 3.0003 L -22.000358 3.0003 C -21.972797 3.0003 -21.950749 3.022349 -21.950749 3.049909 M -21.950749 3.049909 L -21.950749 0.0499203 C -21.950749 0.0223595 -21.972797 0.000310881 -22.000358 0.000310881 M -22.000358 0.000310881 L -28.000336 0.000310881 C -28.027897 0.000310881 -28.049946 0.0223595 -28.049946 0.0499203 M -28.049946 0.0499203 L -28.049946 3.049909 C -28.049946 3.022349 -28.027897 3.0003 -28.000336 3.0003 M -28.000336 3.0003 L -34.000315 3.0003 C -33.972754 3.0003 -33.950705 3.022349 -33.950705 3.049909 M -33.950705 3.049909 L -33.950705 0.0499203 C -33.950705 0.0223595 -33.972754 0.000310881 -34.000315 0.000310881 M -34.000315 0.000310881 L -40.000293 0.000310881 C -40.027854 0.000310881 -40.049902 0.0223595 -40.049902 0.0499203 M -40.049902 0.0499203 L -40.049902 3.049909 C -40.049902 3.022349 -40.027854 3.0003 -40.000293 3.0003 M -40.000293 3.0003 L -46.000271 3.0003 C -45.972711 3.0003 -45.950662 3.022349 -45.950662 3.049909 M -45.950662 3.049909 L -45.950662 0.0499203 C -45.950662 0.0223595 -45.972711 0.000310881 -46.000271 0.000310881 M -46.000271 0.000310881 L -52.00025 0.000310881 C -52.02781 0.000310881 -52.049859 0.0223595 -52.049859 0.0499203 M -52.049859 0.0499203 L -52.049859 3.049909 C -52.049859 3.022349 -52.02781 3.0003 -52.00025 3.0003 M -52.00025 3.0003 L -56.000694 3.0003 C -56.028255 3.0003 -56.050304 3.022349 -56.050304 3.049909 M -56.050304 3.049909 L -56.050304 9.049888 C -56.050304 9.022327 -56.028255 9.000278 -56.000694 9.000278 M -56.000694 9.000278 L -59.000684 9.000278 C -59.028244 9.000278 -59.050293 9.022327 -59.050293 9.049888 M -59.050293 9.049888 L -59.050293 15.049866 C -59.050293 15.077427 -59.028244 15.099475 -59.000684 15.099475 M -59.000684 15.099475 L -56.000694 15.099475 C -56.028255 15.099475 -56.050304 15.077427 -56.050304 15.049866 M -56.050304 15.049866 L -56.050304 21.049844 C -56.050304 21.022284 -56.028255 21.000235 -56.000694 21.000235 M -56.000694 21.000235 L -59.000684 21.000235 C -59.028244 21.000235 -59.050293 21.022284 -59.050293 21.049844 M -59.050293 21.049844 L -59.050293 27.049823 C -59.050293 27.077383 -59.028244 27.099432 -59.000684 27.099432 M -59.000684 27.099432 L -56.000694 27.099432 C -56.028255 27.099432 -56.050304 27.077383 -56.050304 27.049823 M -56.050304 27.049823 L -56.050304 33.049801 C -56.050304 44.123716 -47.073763 53.100257 -35.999848 53.100257 M -35.999848 53.100257 L -5.999957 53.100257 C -5.972396 53.100257 -5.950347 53.078208 -5.950347 53.050647 M -5.950347 53.050647 L -5.950347 49.050202 C -5.950347 49.077763 -5.972396 49.099812 -5.999957 49.099812 M -5.999957 49.099812 L -2.999967 49.099812 C -2.972407 49.099812 -2.950358 49.077763 -2.950358 49.050202 M -2.950358 49.050202 L -2.950358 43.050224 C -2.950358 43.022663 -2.972407 43.000615 -2.999967 43.000615 M -2.999967 43.000615 L -5.999957 43.000615 C -5.972396 43.000615 -5.950347 43.022663 -5.950347 43.050224 M -5.950347 43.050224 L -5.950347 37.050246 C -5.950347 37.077807 -5.972396 37.099855 -5.999957 37.099855 M -5.999957 37.099855 L -2.999967 37.099855 C -2.972407 37.099855 -2.950358 37.077807 -2.950358 37.050246 M -2.950358 37.050246 L -2.950358 31.050267 C -2.950358 31.022707 -2.972407 31.000658 -2.999967 31.000658 M -2.999967 31.000658 L -5.999957 31.000658 C -5.972396 31.000658 -5.950347 31.022707 -5.950347 31.050267 M -5.950347 31.050267 L -5.950347 25.050289 C -5.950347 25.07785 -5.972396 25.099899 -5.999957 25.099899 M -5.999957 25.099899 L -2.999967 25.099899 C -2.972407 25.099899 -2.950358 25.07785 -2.950358 25.050289 M -2.950358 25.050289 L -2.950358 19.050311 C -2.950358 19.02275 -2.972407 19.000702 -2.999967 19.000702 M -2.999967 19.000702 L -5.999957 19.000702 C -5.972396 19.000702 -5.950347 19.02275 -5.950347 19.050311 M -5.950347 19.050311 L -5.950347 13.050333 C -5.950347 13.077893 -5.972396 13.099942 -5.999957 13.099942 M -5.999957 13.099942 L -2.999967 13.099942 C -2.972407 13.099942 -2.950358 13.077893 -2.950358 13.050333 M -2.950358 13.050333 L -2.950358 7.050354 C -2.950358 7.022794 -2.972407 7.000745 -2.999967 7.000745 M -2.999967 7.000745 L -5.999957 7.000745 C -5.972396 7.000745 -5.950347 7.022794 -5.950347 7.050354 M -5.950347 7.050354 L -5.950347 3.049909 C -5.950347 3.022349 -5.972396 3.0003 -5.999957 3.0003 M 1.599924 4.600202 L 4.599913 4.600202 M 4.599913 4.600202 L 8.600358 4.600202 C 8.572797 4.600202 8.550749 4.622251 8.550749 4.649812 M 8.550749 4.649812 L 8.550749 1.649823 C 8.550749 1.622262 8.572797 1.600213 8.600358 1.600213 M 8.600358 1.600213 L 14.600336 1.600213 C 14.627897 1.600213 14.649946 1.622262 14.649946 1.649823 M 14.649946 1.649823 L 14.649946 4.649812 C 14.649946 4.622251 14.627897 4.600202 14.600336 4.600202 M 14.600336 4.600202 L 20.600315 4.600202 C 20.572754 4.600202 20.550705 4.622251 20.550705 4.649812 M 20.550705 4.649812 L 20.550705 1.649823 C 20.550705 1.622262 20.572754 1.600213 20.600315 1.600213 M 20.600315 1.600213 L 26.600293 1.600213 C 26.627854 1.600213 26.649902 1.622262 26.649902 1.649823 M 26.649902 1.649823 L 26.649902 4.649812 C 26.649902 4.622251 26.627854 4.600202 26.600293 4.600202 M 26.600293 4.600202 L 32.600271 4.600202 C 32.572711 4.600202 32.550662 4.622251 32.550662 4.649812 M 32.550662 4.649812 L 32.550662 1.649823 C 32.550662 1.622262 32.572711 1.600213 32.600271 1.600213 M 32.600271 1.600213 L 38.60025 1.600213 C 38.62781 1.600213 38.649859 1.622262 38.649859 1.649823 M 38.649859 1.649823 L 38.649859 4.649812 C 38.649859 4.622251 38.62781 4.600202 38.60025 4.600202 M 38.60025 4.600202 L 44.600228 4.600202 C 44.572667 4.600202 44.550618 4.622251 44.550618 4.649812 M 44.550618 4.649812 L 44.550618 1.649823 C 44.550618 1.622262 44.572667 1.600213 44.600228 1.600213 M 44.600228 1.600213 L 50.600206 1.600213 C 50.627767 1.600213 50.649816 1.622262 50.649816 1.649823 M 50.649816 1.649823 L 50.649816 4.649812 C 50.649816 4.622251 50.627767 4.600202 50.600206 4.600202 M 50.600206 4.600202 L 54.600651 4.600202 M 54.600651 4.600202 L 57.60064 4.600202 C 57.628201 4.600202 57.65025 4.622251 57.65025 4.649812 M 57.65025 4.649812 L 57.65025 4.649812 M 57.65025 4.649812 L 57.65025 8.650257 C 57.65025 8.677817 57.628201 8.699866 57.60064 8.699866 M 57.60064 8.699866 L 54.600651 8.699866 C 54.628212 8.699866 54.65026 8.677817 54.65026 8.650257 M 54.65026 8.650257 L 54.65026 14.650235 C 54.65026 14.622674 54.628212 14.600626 54.600651 14.600626 M 54.600651 14.600626 L 57.60064 14.600626 C 57.628201 14.600626 57.65025 14.622674 57.65025 14.650235 M 57.65025 14.650235 L 57.65025 20.650213 C 57.65025 20.677774 57.628201 20.699823 57.60064 20.699823 M 57.60064 20.699823 L 54.600651 20.699823 C 54.628212 20.699823 54.65026 20.677774 54.65026 20.650213 M 54.65026 20.650213 L 54.65026 26.650192 C 54.65026 26.622631 54.628212 26.600582 54.600651 26.600582 M 54.600651 26.600582 L 57.60064 26.600582 C 57.628201 26.600582 57.65025 26.622631 57.65025 26.650192 M 57.65025 26.650192 L 57.65025 32.65017 C 57.65025 32.677731 57.628201 32.699779 57.60064 32.699779 M 57.60064 32.699779 L 54.600651 32.699779 C 54.628212 32.699779 54.65026 32.677731 54.65026 32.65017 M 54.65026 32.65017 L 54.65026 38.650148 C 54.65026 38.622587 54.628212 38.600539 54.600651 38.600539 M 54.600651 38.600539 L 57.60064 38.600539 C 57.628201 38.600539 57.65025 38.622587 57.65025 38.650148 M 57.65025 38.650148 L 57.65025 44.650126 C 57.65025 44.677687 57.628201 44.699736 57.60064 44.699736 M 57.60064 44.699736 L 54.600651 44.699736 C 54.628212 44.699736 54.65026 44.677687 54.65026 44.650126 M 54.65026 44.650126 L 54.65026 50.650105 C 54.65026 50.622544 54.628212 50.600495 54.600651 50.600495 M 54.600651 50.600495 L 57.60064 50.600495 C 57.628201 50.600495 57.65025 50.622544 57.65025 50.650105 M 57.65025 50.650105 L 57.65025 54.65055 M 57.65025 54.65055 C 57.65025 54.67811 57.628201 54.700159 57.60064 54.700159 M 57.60064 54.700159 L 54.600651 54.700159 M 54.600651 54.700159 L 4.601291 54.700159 M 4.601291 54.700159 L 1.601302 54.700159 C 1.573741 54.700159 1.551693 54.67811 1.551693 54.65055 M 1.551693 54.65055 L 1.551693 54.65055 M 1.551693 54.65055 L 1.551693 50.650105 C 1.551693 50.622544 1.573741 50.600495 1.601302 50.600495 M 1.601302 50.600495 L 4.601291 50.600495 C 4.57373 50.600495 4.551682 50.622544 4.551682 50.650105 M 4.551682 50.650105 L 4.551682 44.650126 C 4.551682 44.677687 4.57373 44.699736 4.601291 44.699736 M 4.601291 44.699736 L 1.601302 44.699736 C 1.573741 44.699736 1.551693 44.677687 1.551693 44.650126 M 1.551693 44.650126 L 1.551693 38.650148 C 1.551693 38.622587 1.573741 38.600539 1.601302 38.600539 M 1.601302 38.600539 L 4.601291 38.600539 C 4.57373 38.600539 4.551682 38.622587 4.551682 38.650148 M 4.551682 38.650148 L 4.551682 32.65017 C 4.551682 32.677731 4.57373 32.699779 4.601291 32.699779 M 4.601291 32.699779 L 1.601302 32.699779 C 1.573741 32.699779 1.551693 32.677731 1.551693 32.65017 M 1.551693 32.65017 L 1.551693 26.650192 C 1.551693 26.622631 1.573741 26.600582 1.601302 26.600582 M 1.601302 26.600582 L 4.601291 26.600582 C 4.57373 26.600582 4.551682 26.622631 4.551682 26.650192 M 4.551682 26.650192 L 4.551682 20.650213 C 4.551682 20.677774 4.57373 20.699823 4.601291 20.699823 M 4.601291 20.699823 L 1.601302 20.699823 C 1.573741 20.699823 1.551693 20.677774 1.551693 20.650213 M 1.551693 20.650213 L 1.551693 14.650235 C 1.551693 14.622674 1.573741 14.600626 1.601302 14.600626 M 1.601302 14.600626 L 4.601291 14.600626 C 4.57373 14.600626 4.551682 14.622674 4.551682 14.650235 M 4.551682 14.650235 L 4.551682 8.650257 C 4.551682 8.677817 4.57373 8.699866 4.601291 8.699866 M 4.601291 8.699866 L 1.601302 8.699866 C 1.573741 8.699866 1.551693 8.677817 1.551693 8.650257 M 1.551693 8.650257 L 1.551693 4.649812 M 1.551693 4.649812 C 1.551693 4.622251 1.573741 4.600202 1.601302 4.600202 " transform="matrix(2.834646,0,0,-2.834646,342.992126,246.614162)"/>
</g>
</svg>
