<?xml version='1.0' encoding='utf-8'?>
<svg height="182.10mm" viewBox="0.0 0.0 302.16 182.10" width="302.16mm" xmlns="http://www.w3.org/2000/svg" xmlns:cc="http://creativecommons.org/ns#" xmlns:dc="http://purl.org/dc/elements/1.1/" xmlns:inkscape="http://www.inkscape.org/namespaces/inkscape" xmlns:rdf="http://www.w3.org/1999/02/22-rdf-syntax-ns#" xmlns:svg="http://www.w3.org/2000/svg" xmlns:xlink="http://www.w3.org/1999/xlink">
<!--
FlexBox - Box with living hinge and round corners

Created with Boxes.py (https://festi.info/boxes.py)
-->
<title>FlexBox</title>
<metadata>
<rdf:RDF><cc:Work>
<dc:title>FlexBox - FlexBox</dc:title>
<dc:description>Box with living hinge and round corners

Created with Boxes.py (https://festi.info/boxes.py)
</dc:description>
</cc:Work></rdf:RDF></metadata>
<g id="p-0" style="fill:none;stroke-linecap:round;stroke-linejoin:round;">
  <path d="M 10.400 172.100 H 110.400 V 162.100 H 10.400 V 172.100 Z" stroke="rgb(0,0,0)" stroke-width="0.20" />
  <text dominant-baseline="hanging" font-size="8px" style="font-family: sans-serif ; font-weight: normal; font-style: normal; fill: rgb(255,0,0)" text-anchor="middle" transform="matrix( 1.000 0.000 0.000 1.000 60.400 163.100 )">100mm, burn:0.10mm</text>
</g>
<g id="p-1" style="fill:none;stroke-linecap:round;stroke-linejoin:round;">
  <path d="M 10.400 159.650 H 16.400 C 16.455 159.650 16.500 159.605 16.500 159.550 V 156.650 C 16.500 156.550 16.400 156.650 16.500 156.650 H 22.300 C 22.400 156.650 22.300 156.550 22.300 156.650 V 159.550 C 22.300 159.605 22.345 159.650 22.400 159.650 H 28.400 C 28.455 159.650 28.500 159.605 28.500 159.550 V 156.650 C 28.500 156.550 28.400 156.650 28.500 156.650 H 34.300 C 34.400 156.650 34.300 156.550 34.300 156.650 V 159.550 C 34.300 159.605 34.345 159.650 34.400 159.650 H 40.400 H 71.816 H 80.816 C 80.871 159.650 80.916 159.605 80.916 159.550 V 156.650 C 80.916 156.550 80.816 156.650 80.916 156.650 H 86.716 C 86.816 156.650 86.716 156.550 86.716 156.650 V 159.550 C 86.716 159.605 86.761 159.650 86.816 159.650 H 95.816 H 127.232 H 133.232 C 133.287 159.650 133.332 159.605 133.332 159.550 V 156.650 C 133.332 156.550 133.232 156.650 133.332 156.650 H 139.132 C 139.232 156.650 139.132 156.550 139.132 156.650 V 159.550 C 139.132 159.605 139.177 159.650 139.232 159.650 H 145.232 C 145.287 159.650 145.332 159.605 145.332 159.550 V 156.650 C 145.332 156.550 145.232 156.650 145.332 156.650 H 151.132 C 151.232 156.650 151.132 156.550 151.132 156.650 V 159.550 C 151.132 159.605 151.177 159.650 151.232 159.650 H 157.232 C 157.287 159.650 157.332 159.605 157.332 159.550 V 156.650 C 157.332 156.550 157.232 156.650 157.332 156.650 H 163.132 C 163.232 156.650 163.132 156.550 163.132 156.650 V 159.550 C 163.132 159.605 163.177 159.650 163.232 159.650 H 169.232 C 169.287 159.650 169.332 159.605 169.332 159.550 V 156.650 C 169.332 156.550 169.232 156.650 169.332 156.650 H 175.132 C 175.232 156.650 175.132 156.550 175.132 156.650 V 159.550 C 175.132 159.605 175.177 159.650 175.232 159.650 H 181.232 H 212.648 H 236.648 H 268.064 C 268.119 159.650 268.164 159.605 268.164 159.550 V 156.350 C 268.164 156.250 268.064 156.350 268.164 156.350 H 280.564 C 280.664 156.350 280.564 156.250 280.564 156.350 V 159.550 C 280.564 159.699 280.603 159.846 280.678 159.975 C 280.752 160.104 280.859 160.212 280.989 160.286 C 281.118 160.361 281.264 160.400 281.414 160.400 C 281.540 160.400 281.664 160.367 281.773 160.304 C 281.882 160.241 281.973 160.150 282.036 160.041 C 282.099 159.931 282.132 159.807 282.132 159.681 C 282.132 159.590 282.156 159.501 282.202 159.422 C 282.247 159.343 282.313 159.278 282.392 159.232 C 282.471 159.186 282.560 159.163 282.651 159.163 C 282.742 159.163 282.832 159.186 282.911 159.232 C 282.989 159.278 283.055 159.343 283.100 159.422 C 283.146 159.501 283.170 159.590 283.170 159.681 C 283.170 159.807 283.203 159.931 283.266 160.041 C 283.329 160.150 283.420 160.241 283.529 160.304 C 283.639 160.367 283.763 160.400 283.889 160.400 C 284.015 160.400 284.139 160.367 284.248 160.304 C 284.357 160.241 284.448 160.150 284.511 160.041 C 284.574 159.931 284.607 159.807 284.607 159.681 C 284.607 159.590 284.631 159.501 284.677 159.422 C 284.722 159.343 284.788 159.278 284.867 159.232 C 284.946 159.186 285.035 159.163 285.126 159.163 C 285.217 159.163 285.307 159.186 285.386 159.232 C 285.464 159.278 285.530 159.343 285.575 159.422 C 285.621 159.501 285.645 159.590 285.645 159.681 C 285.645 159.807 285.678 159.931 285.741 160.041 C 285.804 160.150 285.895 160.241 286.004 160.304 C 286.114 160.367 286.238 160.400 286.364 160.400 C 286.490 160.400 286.614 160.367 286.723 160.304 C 286.832 160.241 286.923 160.150 286.986 160.041 C 287.049 159.931 287.082 159.807 287.082 159.681 C 287.082 159.590 287.106 159.501 287.152 159.422 C 287.197 159.343 287.263 159.278 287.342 159.232 C 287.421 159.186 287.510 159.163 287.601 159.163 C 287.692 159.163 287.782 159.186 287.861 159.232 C 287.939 159.278 288.005 159.343 288.050 159.422 C 288.096 159.501 288.120 159.590 288.120 159.681 C 288.120 159.807 288.153 159.931 288.216 160.041 C 288.279 160.150 288.370 160.241 288.479 160.304 C 288.589 160.367 288.713 160.400 288.839 160.400 C 288.965 160.400 289.089 160.367 289.198 160.304 C 289.307 160.241 289.398 160.150 289.461 160.041 C 289.524 159.931 289.557 159.807 289.557 159.681 C 289.557 159.590 289.581 159.501 289.627 159.422 C 289.672 159.343 289.738 159.278 289.817 159.232 C 289.896 159.186 289.985 159.163 290.076 159.163 C 290.167 159.163 290.257 159.186 290.336 159.232 C 290.414 159.278 290.480 159.343 290.525 159.422 C 290.571 159.501 290.595 159.590 290.595 159.681 C 290.595 159.807 290.628 159.931 290.691 160.041 C 290.754 160.150 290.845 160.241 290.954 160.304 C 291.064 160.367 291.188 160.400 291.314 160.400 C 291.463 160.400 291.609 160.361 291.739 160.286 C 291.868 160.212 291.975 160.104 292.050 159.975 C 292.124 159.846 292.164 159.699 292.164 159.550 V 109.550 C 292.164 109.401 292.124 109.254 292.050 109.125 C 291.975 108.996 291.868 108.888 291.739 108.814 C 291.609 108.739 291.463 108.700 291.314 108.700 C 291.188 108.700 291.064 108.733 290.954 108.796 C 290.845 108.859 290.754 108.950 290.691 109.059 C 290.628 109.169 290.595 109.293 290.595 109.419 C 290.595 109.510 290.571 109.599 290.525 109.678 C 290.480 109.757 290.414 109.822 290.336 109.868 C 290.257 109.914 290.167 109.938 290.076 109.938 C 289.985 109.938 289.896 109.914 289.817 109.868 C 289.738 109.822 289.672 109.757 289.627 109.678 C 289.581 109.599 289.557 109.510 289.557 109.419 C 289.557 109.293 289.524 109.169 289.461 109.059 C 289.398 108.950 289.307 108.859 289.198 108.796 C 289.089 108.733 288.965 108.700 288.839 108.700 C 288.713 108.700 288.589 108.733 288.479 108.796 C 288.370 108.859 288.279 108.950 288.216 109.059 C 288.153 109.169 288.120 109.293 288.120 109.419 C 288.120 109.510 288.096 109.599 288.050 109.678 C 288.005 109.757 287.939 109.822 287.861 109.868 C 287.782 109.914 287.692 109.938 287.601 109.938 C 287.510 109.938 287.421 109.914 287.342 109.868 C 287.263 109.822 287.197 109.757 287.152 109.678 C 287.106 109.599 287.082 109.510 287.082 109.419 C 287.082 109.293 287.049 109.169 286.986 109.059 C 286.923 108.950 286.832 108.859 286.723 108.796 C 286.614 108.733 286.490 108.700 286.364 108.700 C 286.238 108.700 286.114 108.733 286.004 108.796 C 285.895 108.859 285.804 108.950 285.741 109.059 C 285.678 109.169 285.645 109.293 285.645 109.419 C 285.645 109.510 285.621 109.599 285.575 109.678 C 285.530 109.757 285.464 109.822 285.386 109.868 C 285.307 109.914 285.217 109.938 285.126 109.938 C 285.035 109.938 284.946 109.914 284.867 109.868 C 284.788 109.822 284.722 109.757 284.677 109.678 C 284.631 109.599 284.607 109.510 284.607 109.419 C 284.607 109.293 284.574 109.169 284.511 109.059 C 284.448 108.950 284.357 108.859 284.248 108.796 C 284.139 108.733 284.015 108.700 283.889 108.700 C 283.763 108.700 283.639 108.733 283.529 108.796 C 283.420 108.859 283.329 108.950 283.266 109.059 C 283.203 109.169 283.170 109.293 283.170 109.419 C 283.170 109.510 283.146 109.599 283.100 109.678 C 283.055 109.757 282.989 109.822 282.911 109.868 C 282.832 109.914 282.742 109.937 282.651 109.937 C 282.560 109.937 282.471 109.914 282.392 109.868 C 282.313 109.822 282.247 109.757 282.202 109.678 C 282.156 109.599 282.132 109.510 282.132 109.419 C 282.132 109.293 282.099 109.169 282.036 109.059 C 281.973 108.950 281.882 108.859 281.773 108.796 C 281.664 108.733 281.540 108.700 281.414 108.700 C 281.264 108.700 281.118 108.739 280.989 108.814 C 280.859 108.888 280.752 108.996 280.678 109.125 C 280.603 109.254 280.564 109.401 280.564 109.550 V 112.750 C 280.564 112.850 280.664 112.750 280.564 112.750 H 268.164 C 268.064 112.750 268.164 112.850 268.164 112.750 V 109.550 C 268.164 109.495 268.119 109.450 268.064 109.450 H 236.648 H 212.648 H 181.232 H 175.232 C 175.177 109.450 175.132 109.495 175.132 109.550 V 112.450 C 175.132 112.550 175.232 112.450 175.132 112.450 H 169.332 C 169.232 112.450 169.332 112.550 169.332 112.450 V 109.550 C 169.332 109.495 169.287 109.450 169.232 109.450 H 163.232 C 163.177 109.450 163.132 109.495 163.132 109.550 V 112.450 C 163.132 112.550 163.232 112.450 163.132 112.450 H 157.332 C 157.232 112.450 157.332 112.550 157.332 112.450 V 109.550 C 157.332 109.495 157.287 109.450 157.232 109.450 H 151.232 C 151.177 109.450 151.132 109.495 151.132 109.550 V 112.450 C 151.132 112.550 151.232 112.450 151.132 112.450 H 145.332 C 145.232 112.450 145.332 112.550 145.332 112.450 V 109.550 C 145.332 109.495 145.287 109.450 145.232 109.450 H 139.232 C 139.177 109.450 139.132 109.495 139.132 109.550 V 112.450 C 139.132 112.550 139.232 112.450 139.132 112.450 H 133.332 C 133.232 112.450 133.332 112.550 133.332 112.450 V 109.550 C 133.332 109.495 133.287 109.450 133.232 109.450 H 127.232 H 95.816 H 86.816 C 86.761 109.450 86.716 109.495 86.716 109.550 V 112.450 C 86.716 112.550 86.816 112.450 86.716 112.450 H 80.916 C 80.816 112.450 80.916 112.550 80.916 112.450 V 109.550 C 80.916 109.495 80.871 109.450 80.816 109.450 H 71.816 H 40.400 H 34.400 C 34.345 109.450 34.300 109.495 34.300 109.550 V 112.450 C 34.300 112.550 34.400 112.450 34.300 112.450 H 28.500 C 28.400 112.450 28.500 112.550 28.500 112.450 V 109.550 C 28.500 109.495 28.455 109.450 28.400 109.450 H 22.400 C 22.345 109.450 22.300 109.495 22.300 109.550 V 112.450 C 22.300 112.550 22.400 112.450 22.300 112.450 H 16.500 C 16.400 112.450 16.500 112.550 16.500 112.450 V 109.550 C 16.500 109.495 16.455 109.450 16.400 109.450 H 10.400 C 10.345 109.450 10.300 109.495 10.300 109.550 V 159.550 C 10.300 159.605 10.345 159.650 10.400 159.650 Z" stroke="rgb(0,0,0)" stroke-width="0.20" />
  <path d="M 42.608 159.650 V 143.917 M 42.608 140.917 V 112.450 M 44.108 109.450 V 125.183 M 44.108 128.183 V 156.650 M 45.608 159.650 V 143.917 M 45.608 140.917 V 112.450 M 47.108 109.450 V 125.183 M 47.108 128.183 V 156.650 M 48.608 159.650 V 143.917 M 48.608 140.917 V 112.450 M 50.108 109.450 V 125.183 M 50.108 128.183 V 156.650 M 51.608 159.650 V 143.917 M 51.608 140.917 V 112.450 M 53.108 109.450 V 125.183 M 53.108 128.183 V 156.650 M 54.608 159.650 V 143.917 M 54.608 140.917 V 112.450 M 56.108 109.450 V 125.183 M 56.108 128.183 V 156.650 M 57.608 159.650 V 143.917 M 57.608 140.917 V 112.450 M 59.108 109.450 V 125.183 M 59.108 128.183 V 156.650 M 60.608 159.650 V 143.917 M 60.608 140.917 V 112.450 M 62.108 109.450 V 125.183 M 62.108 128.183 V 156.650 M 63.608 159.650 V 143.917 M 63.608 140.917 V 112.450 M 65.108 109.450 V 125.183 M 65.108 128.183 V 156.650 M 66.608 159.650 V 143.917 M 66.608 140.917 V 112.450 M 68.108 109.450 V 125.183 M 68.108 128.183 V 156.650 M 69.608 159.650 V 143.917 M 69.608 140.917 V 112.450" stroke="rgb(0,0,0)" stroke-width="0.20" />
  <path d="M 98.024 159.650 V 143.917 M 98.024 140.917 V 112.450 M 99.524 109.450 V 125.183 M 99.524 128.183 V 156.650 M 101.024 159.650 V 143.917 M 101.024 140.917 V 112.450 M 102.524 109.450 V 125.183 M 102.524 128.183 V 156.650 M 104.024 159.650 V 143.917 M 104.024 140.917 V 112.450 M 105.524 109.450 V 125.183 M 105.524 128.183 V 156.650 M 107.024 159.650 V 143.917 M 107.024 140.917 V 112.450 M 108.524 109.450 V 125.183 M 108.524 128.183 V 156.650 M 110.024 159.650 V 143.917 M 110.024 140.917 V 112.450 M 111.524 109.450 V 125.183 M 111.524 128.183 V 156.650 M 113.024 159.650 V 143.917 M 113.024 140.917 V 112.450 M 114.524 109.450 V 125.183 M 114.524 128.183 V 156.650 M 116.024 159.650 V 143.917 M 116.024 140.917 V 112.450 M 117.524 109.450 V 125.183 M 117.524 128.183 V 156.650 M 119.024 159.650 V 143.917 M 119.024 140.917 V 112.450 M 120.524 109.450 V 125.183 M 120.524 128.183 V 156.650 M 122.024 159.650 V 143.917 M 122.024 140.917 V 112.450 M 123.524 109.450 V 125.183 M 123.524 128.183 V 156.650 M 125.024 159.650 V 143.917 M 125.024 140.917 V 112.450" stroke="rgb(0,0,0)" stroke-width="0.20" />
  <path d="M 183.440 159.650 V 143.917 M 183.440 140.917 V 112.450 M 184.940 109.450 V 125.183 M 184.940 128.183 V 156.650 M 186.440 159.650 V 143.917 M 186.440 140.917 V 112.450 M 187.940 109.450 V 125.183 M 187.940 128.183 V 156.650 M 189.440 159.650 V 143.917 M 189.440 140.917 V 112.450 M 190.940 109.450 V 125.183 M 190.940 128.183 V 156.650 M 192.440 159.650 V 143.917 M 192.440 140.917 V 112.450 M 193.940 109.450 V 125.183 M 193.940 128.183 V 156.650 M 195.440 159.650 V 143.917 M 195.440 140.917 V 112.450 M 196.940 109.450 V 125.183 M 196.940 128.183 V 156.650 M 198.440 159.650 V 143.917 M 198.440 140.917 V 112.450 M 199.940 109.450 V 125.183 M 199.940 128.183 V 156.650 M 201.440 159.650 V 143.917 M 201.440 140.917 V 112.450 M 202.940 109.450 V 125.183 M 202.940 128.183 V 156.650 M 204.440 159.650 V 143.917 M 204.440 140.917 V 112.450 M 205.940 109.450 V 125.183 M 205.940 128.183 V 156.650 M 207.440 159.650 V 143.917 M 207.440 140.917 V 112.450 M 208.940 109.450 V 125.183 M 208.940 128.183 V 156.650 M 210.440 159.650 V 143.917 M 210.440 140.917 V 112.450" stroke="rgb(0,0,0)" stroke-width="0.20" />
  <path d="M 238.856 159.650 V 143.917 M 238.856 140.917 V 112.450 M 240.356 109.450 V 125.183 M 240.356 128.183 V 156.650 M 241.856 159.650 V 143.917 M 241.856 140.917 V 112.450 M 243.356 109.450 V 125.183 M 243.356 128.183 V 156.650 M 244.856 159.650 V 143.917 M 244.856 140.917 V 112.450 M 246.356 109.450 V 125.183 M 246.356 128.183 V 156.650 M 247.856 159.650 V 143.917 M 247.856 140.917 V 112.450 M 249.356 109.450 V 125.183 M 249.356 128.183 V 156.650 M 250.856 159.650 V 143.917 M 250.856 140.917 V 112.450 M 252.356 109.450 V 125.183 M 252.356 128.183 V 156.650 M 253.856 159.650 V 143.917 M 253.856 140.917 V 112.450 M 255.356 109.450 V 125.183 M 255.356 128.183 V 156.650 M 256.856 159.650 V 143.917 M 256.856 140.917 V 112.450 M 258.356 109.450 V 125.183 M 258.356 128.183 V 156.650 M 259.856 159.650 V 143.917 M 259.856 140.917 V 112.450 M 261.356 109.450 V 125.183 M 261.356 128.183 V 156.650 M 262.856 159.650 V 143.917 M 262.856 140.917 V 112.450 M 264.356 109.450 V 125.183 M 264.356 128.183 V 156.650 M 265.856 159.650 V 143.917 M 265.856 140.917 V 112.450" stroke="rgb(0,0,0)" stroke-width="0.20" />
</g>
<g id="p-2" style="fill:none;stroke-linecap:round;stroke-linejoin:round;">
  <path d="M 33.400 104.200 H 42.300 C 42.400 104.200 42.300 104.100 42.300 104.200 V 107.100 C 42.300 107.155 42.345 107.200 42.400 107.200 H 48.400 C 48.455 107.200 48.500 107.155 48.500 107.100 V 104.200 C 48.500 104.100 48.400 104.200 48.500 104.200 H 57.400 C 60.928 104.200 64.394 103.271 67.450 101.507 C 70.506 99.743 73.043 97.206 74.807 94.150 C 76.571 91.094 77.500 87.628 77.500 84.100 V 78.200 C 77.500 78.100 77.400 78.200 77.500 78.200 H 80.400 C 80.455 78.200 80.500 78.155 80.500 78.100 V 72.100 C 80.500 72.045 80.455 72.000 80.400 72.000 H 77.500 C 77.400 72.000 77.500 72.100 77.500 72.000 V 66.200 C 77.500 66.100 77.400 66.200 77.500 66.200 H 80.400 C 80.455 66.200 80.500 66.155 80.500 66.100 V 60.100 C 80.500 60.045 80.455 60.000 80.400 60.000 H 77.500 C 77.400 60.000 77.500 60.100 77.500 60.000 V 54.200 C 77.500 54.100 77.400 54.200 77.500 54.200 H 80.400 C 80.455 54.200 80.500 54.155 80.500 54.100 V 48.100 C 80.500 48.045 80.455 48.000 80.400 48.000 H 77.500 C 77.400 48.000 77.500 48.100 77.500 48.000 V 42.200 C 77.500 42.100 77.400 42.200 77.500 42.200 H 80.400 C 80.455 42.200 80.500 42.155 80.500 42.100 V 36.100 C 80.500 36.045 80.455 36.000 80.400 36.000 H 77.500 C 77.400 36.000 77.500 36.100 77.500 36.000 V 30.100 C 77.500 26.572 76.571 23.106 74.807 20.050 C 73.043 16.994 70.506 14.457 67.450 12.693 C 64.394 10.929 60.928 10.000 57.400 10.000 H 33.400 C 29.872 10.000 26.406 10.929 23.350 12.693 C 20.294 14.457 17.757 16.994 15.993 20.050 C 14.229 23.106 13.300 26.572 13.300 30.100 C 13.300 30.045 13.345 30.000 13.400 30.000 H 10.400 C 10.345 30.000 10.300 30.045 10.300 30.100 V 42.100 C 10.300 42.155 10.345 42.200 10.400 42.200 H 13.300 C 13.400 42.200 13.300 42.100 13.300 42.200 V 54.100 V 60.000 C 13.300 60.100 13.400 60.000 13.300 60.000 H 10.400 C 10.345 60.000 10.300 60.045 10.300 60.100 V 66.100 C 10.300 66.155 10.345 66.200 10.400 66.200 H 13.300 C 13.400 66.200 13.300 66.100 13.300 66.200 V 72.000 C 13.300 72.100 13.400 72.000 13.300 72.000 H 10.400 C 10.345 72.000 10.300 72.045 10.300 72.100 V 78.100 C 10.300 78.155 10.345 78.200 10.400 78.200 H 13.300 C 13.400 78.200 13.300 78.100 13.300 78.200 V 84.100 C 13.300 87.628 14.229 91.094 15.993 94.150 C 17.757 97.206 20.294 99.743 23.350 101.507 C 26.406 103.271 29.872 104.200 33.400 104.200 Z" stroke="rgb(0,0,0)" stroke-width="0.20" />
</g>
<g id="p-3" style="fill:none;stroke-linecap:round;stroke-linejoin:round;">
  <path d="M 129.100 104.200 H 120.200 C 120.100 104.200 120.200 104.100 120.200 104.200 V 107.100 C 120.200 107.155 120.155 107.200 120.100 107.200 H 114.100 C 114.045 107.200 114.000 107.155 114.000 107.100 V 104.200 C 114.000 104.100 114.100 104.200 114.000 104.200 H 105.100 C 101.572 104.200 98.106 103.271 95.050 101.507 C 91.994 99.743 89.457 97.206 87.693 94.150 C 85.929 91.094 85.000 87.628 85.000 84.100 V 78.200 C 85.000 78.100 85.100 78.200 85.000 78.200 H 82.100 C 82.045 78.200 82.000 78.155 82.000 78.100 V 72.100 C 82.000 72.045 82.045 72.000 82.100 72.000 H 85.000 C 85.100 72.000 85.000 72.100 85.000 72.000 V 66.200 C 85.000 66.100 85.100 66.200 85.000 66.200 H 82.100 C 82.045 66.200 82.000 66.155 82.000 66.100 V 60.100 C 82.000 60.045 82.045 60.000 82.100 60.000 H 85.000 C 85.100 60.000 85.000 60.100 85.000 60.000 V 54.200 C 85.000 54.100 85.100 54.200 85.000 54.200 H 82.100 C 82.045 54.200 82.000 54.155 82.000 54.100 V 48.100 C 82.000 48.045 82.045 48.000 82.100 48.000 H 85.000 C 85.100 48.000 85.000 48.100 85.000 48.000 V 42.200 C 85.000 42.100 85.100 42.200 85.000 42.200 H 82.100 C 82.045 42.200 82.000 42.155 82.000 42.100 V 36.100 C 82.000 36.045 82.045 36.000 82.100 36.000 H 85.000 C 85.100 36.000 85.000 36.100 85.000 36.000 V 30.100 C 85.000 26.572 85.929 23.106 87.693 20.050 C 89.457 16.994 91.994 14.457 95.050 12.693 C 98.106 10.929 101.572 10.000 105.100 10.000 H 129.100 C 132.628 10.000 136.094 10.929 139.150 12.693 C 142.206 14.457 144.743 16.994 146.507 20.050 C 148.271 23.106 149.200 26.572 149.200 30.100 C 149.200 30.045 149.155 30.000 149.100 30.000 H 152.100 C 152.155 30.000 152.200 30.045 152.200 30.100 V 42.100 C 152.200 42.155 152.155 42.200 152.100 42.200 H 149.200 C 149.100 42.200 149.200 42.100 149.200 42.200 V 54.100 V 60.000 C 149.200 60.100 149.100 60.000 149.200 60.000 H 152.100 C 152.155 60.000 152.200 60.045 152.200 60.100 V 66.100 C 152.200 66.155 152.155 66.200 152.100 66.200 H 149.200 C 149.100 66.200 149.200 66.100 149.200 66.200 V 72.000 C 149.200 72.100 149.100 72.000 149.200 72.000 H 152.100 C 152.155 72.000 152.200 72.045 152.200 72.100 V 78.100 C 152.200 78.155 152.155 78.200 152.100 78.200 H 149.200 C 149.100 78.200 149.200 78.100 149.200 78.200 V 84.100 C 149.200 87.628 148.271 91.094 146.507 94.150 C 144.743 97.206 142.206 99.743 139.150 101.507 C 136.094 103.271 132.628 104.200 129.100 104.200 Z" stroke="rgb(0,0,0)" stroke-width="0.20" />
</g>
</svg>
