<?xml version='1.0' encoding='utf-8'?>
<svg height="195.10mm" viewBox="0.0 0.0 278.55 195.10" width="278.55mm" xmlns="http://www.w3.org/2000/svg" xmlns:cc="http://creativecommons.org/ns#" xmlns:dc="http://purl.org/dc/elements/1.1/" xmlns:inkscape="http://www.inkscape.org/namespaces/inkscape" xmlns:rdf="http://www.w3.org/1999/02/22-rdf-syntax-ns#" xmlns:svg="http://www.w3.org/2000/svg" xmlns:xlink="http://www.w3.org/1999/xlink">
<!--
FlexBox5 - Box with living hinge and round corners

Created with Boxes.py (https://festi.info/boxes.py)
Command line (remove spaces between dashes): boxes FlexBox5
-->
<title>FlexBox5</title>
<metadata>
<rdf:RDF><cc:Work>
<dc:title>FlexBox - FlexBox5</dc:title>
<dc:source>boxes FlexBox5</dc:source>
<dc:description>Box with living hinge and round corners

Created with Boxes.py (https://festi.info/boxes.py)
Command line: boxes FlexBox5
Command line short: boxes FlexBox5
</dc:description>
</cc:Work></rdf:RDF></metadata>
<g id="p-0" style="fill:none;stroke-linecap:round;stroke-linejoin:round;">
  <path d="M 18.800 185.100 H 118.800 V 175.100 H 18.800 V 185.100 Z" stroke="rgb(0,0,0)" stroke-width="0.20" />
  <text dominant-baseline="hanging" font-size="8px" style="font-family: sans-serif ; font-weight: normal; font-style: normal; fill: rgb(255,0,0)" text-anchor="middle" transform="matrix( 1.000 0.000 0.000 1.000 68.800 176.100 )">100.00mm, burn:0.10mm</text>
</g>
<g id="p-1" style="fill:none;stroke-linecap:round;stroke-linejoin:round;">
  <path d="M 18.800 172.650 H 23.800 C 23.855 172.650 23.900 172.605 23.900 172.550 V 169.650 C 23.900 169.550 23.800 169.650 23.900 169.650 H 29.700 C 29.800 169.650 29.700 169.550 29.700 169.650 V 172.550 C 29.700 172.605 29.745 172.650 29.800 172.650 H 34.800 H 119.623 H 130.623 C 130.678 172.650 130.723 172.605 130.723 172.550 V 169.650 C 130.723 169.550 130.623 169.650 130.723 169.650 H 136.523 C 136.623 169.650 136.523 169.550 136.523 169.650 V 172.550 C 136.523 172.605 136.568 172.650 136.623 172.650 H 142.623 C 142.678 172.650 142.723 172.605 142.723 172.550 V 169.650 C 142.723 169.550 142.623 169.650 142.723 169.650 H 148.523 C 148.623 169.650 148.523 169.550 148.523 169.650 V 172.550 C 148.523 172.605 148.568 172.650 148.623 172.650 H 159.623 H 244.446 C 244.501 172.650 244.546 172.605 244.546 172.550 V 169.350 C 244.546 169.250 244.446 169.350 244.546 169.350 H 256.946 C 257.046 169.350 256.946 169.250 256.946 169.350 V 172.550 C 256.946 172.699 256.985 172.846 257.060 172.975 C 257.134 173.104 257.242 173.212 257.371 173.286 C 257.500 173.361 257.647 173.400 257.796 173.400 C 257.922 173.400 258.046 173.367 258.155 173.304 C 258.265 173.241 258.355 173.150 258.418 173.041 C 258.482 172.931 258.515 172.807 258.515 172.681 C 258.515 172.590 258.539 172.501 258.584 172.422 C 258.630 172.343 258.695 172.278 258.774 172.232 C 258.853 172.186 258.942 172.163 259.034 172.163 C 259.125 172.163 259.214 172.186 259.293 172.232 C 259.372 172.278 259.437 172.343 259.483 172.422 C 259.528 172.501 259.552 172.590 259.552 172.681 C 259.552 172.807 259.585 172.931 259.649 173.041 C 259.712 173.150 259.802 173.241 259.912 173.304 C 260.021 173.367 260.145 173.400 260.271 173.400 C 260.397 173.400 260.521 173.367 260.630 173.304 C 260.740 173.241 260.830 173.150 260.893 173.041 C 260.957 172.931 260.990 172.807 260.990 172.681 C 260.990 172.590 261.014 172.501 261.059 172.422 C 261.105 172.343 261.170 172.278 261.249 172.232 C 261.328 172.186 261.417 172.163 261.509 172.163 C 261.600 172.163 261.689 172.186 261.768 172.232 C 261.847 172.278 261.912 172.343 261.958 172.422 C 262.003 172.501 262.027 172.590 262.027 172.681 C 262.027 172.807 262.060 172.931 262.124 173.041 C 262.187 173.150 262.277 173.241 262.387 173.304 C 262.496 173.367 262.620 173.400 262.746 173.400 C 262.872 173.400 262.996 173.367 263.105 173.304 C 263.215 173.241 263.305 173.150 263.368 173.041 C 263.432 172.931 263.465 172.807 263.465 172.681 C 263.465 172.590 263.489 172.501 263.534 172.422 C 263.580 172.343 263.645 172.278 263.724 172.232 C 263.803 172.186 263.892 172.163 263.984 172.163 C 264.075 172.163 264.164 172.186 264.243 172.232 C 264.322 172.278 264.387 172.343 264.433 172.422 C 264.478 172.501 264.502 172.590 264.502 172.681 C 264.502 172.807 264.535 172.931 264.599 173.041 C 264.662 173.150 264.752 173.241 264.862 173.304 C 264.971 173.367 265.095 173.400 265.221 173.400 C 265.347 173.400 265.471 173.367 265.580 173.304 C 265.690 173.241 265.780 173.150 265.843 173.041 C 265.907 172.931 265.940 172.807 265.940 172.681 C 265.940 172.590 265.964 172.501 266.009 172.422 C 266.055 172.343 266.120 172.278 266.199 172.232 C 266.278 172.186 266.367 172.163 266.459 172.163 C 266.550 172.163 266.639 172.186 266.718 172.232 C 266.797 172.278 266.862 172.343 266.908 172.422 C 266.953 172.501 266.977 172.590 266.977 172.681 C 266.977 172.807 267.010 172.931 267.074 173.041 C 267.137 173.150 267.227 173.241 267.337 173.304 C 267.446 173.367 267.570 173.400 267.696 173.400 C 267.845 173.400 267.992 173.361 268.121 173.286 C 268.250 173.212 268.358 173.104 268.432 172.975 C 268.507 172.846 268.546 172.699 268.546 172.550 V 72.550 C 268.546 72.401 268.507 72.254 268.432 72.125 C 268.358 71.996 268.250 71.888 268.121 71.814 C 267.992 71.739 267.845 71.700 267.696 71.700 C 267.570 71.700 267.446 71.733 267.337 71.796 C 267.227 71.859 267.137 71.950 267.074 72.059 C 267.010 72.169 266.977 72.293 266.977 72.419 C 266.977 72.510 266.953 72.599 266.908 72.678 C 266.862 72.757 266.797 72.822 266.718 72.868 C 266.639 72.914 266.550 72.938 266.459 72.938 C 266.367 72.938 266.278 72.914 266.199 72.868 C 266.120 72.822 266.055 72.757 266.009 72.678 C 265.964 72.599 265.940 72.510 265.940 72.419 C 265.940 72.293 265.907 72.169 265.843 72.059 C 265.780 71.950 265.690 71.859 265.580 71.796 C 265.471 71.733 265.347 71.700 265.221 71.700 C 265.095 71.700 264.971 71.733 264.862 71.796 C 264.752 71.859 264.662 71.950 264.599 72.059 C 264.535 72.169 264.502 72.293 264.502 72.419 C 264.502 72.510 264.478 72.599 264.433 72.678 C 264.387 72.757 264.322 72.822 264.243 72.868 C 264.164 72.914 264.075 72.938 263.984 72.938 C 263.892 72.938 263.803 72.914 263.724 72.868 C 263.645 72.822 263.580 72.757 263.534 72.678 C 263.489 72.599 263.465 72.510 263.465 72.419 C 263.465 72.293 263.432 72.169 263.368 72.059 C 263.305 71.950 263.215 71.859 263.105 71.796 C 262.996 71.733 262.872 71.700 262.746 71.700 C 262.620 71.700 262.496 71.733 262.387 71.796 C 262.277 71.859 262.187 71.950 262.124 72.059 C 262.060 72.169 262.027 72.293 262.027 72.419 C 262.027 72.510 262.003 72.599 261.958 72.678 C 261.912 72.757 261.847 72.822 261.768 72.868 C 261.689 72.914 261.600 72.938 261.509 72.938 C 261.417 72.938 261.328 72.914 261.249 72.868 C 261.170 72.822 261.105 72.757 261.059 72.678 C 261.014 72.599 260.990 72.510 260.990 72.419 C 260.990 72.293 260.957 72.169 260.893 72.059 C 260.830 71.950 260.740 71.859 260.630 71.796 C 260.521 71.733 260.397 71.700 260.271 71.700 C 260.145 71.700 260.021 71.733 259.912 71.796 C 259.802 71.859 259.712 71.950 259.649 72.059 C 259.585 72.169 259.552 72.293 259.552 72.419 C 259.552 72.510 259.528 72.599 259.483 72.678 C 259.437 72.757 259.372 72.822 259.293 72.868 C 259.214 72.914 259.125 72.937 259.034 72.937 C 258.942 72.937 258.853 72.914 258.774 72.868 C 258.695 72.822 258.630 72.757 258.584 72.678 C 258.539 72.599 258.515 72.510 258.515 72.419 C 258.515 72.293 258.482 72.169 258.418 72.059 C 258.355 71.950 258.265 71.859 258.155 71.796 C 258.046 71.733 257.922 71.700 257.796 71.700 C 257.647 71.700 257.500 71.739 257.371 71.814 C 257.242 71.888 257.134 71.996 257.060 72.125 C 256.985 72.254 256.946 72.401 256.946 72.550 V 75.750 C 256.946 75.850 257.046 75.750 256.946 75.750 H 244.546 C 244.446 75.750 244.546 75.850 244.546 75.750 V 72.550 C 244.546 72.495 244.501 72.450 244.446 72.450 H 159.623 H 148.623 C 148.568 72.450 148.523 72.495 148.523 72.550 V 75.450 C 148.523 75.550 148.623 75.450 148.523 75.450 H 142.723 C 142.623 75.450 142.723 75.550 142.723 75.450 V 72.550 C 142.723 72.495 142.678 72.450 142.623 72.450 H 136.623 C 136.568 72.450 136.523 72.495 136.523 72.550 V 75.450 C 136.523 75.550 136.623 75.450 136.523 75.450 H 130.723 C 130.623 75.450 130.723 75.550 130.723 75.450 V 72.550 C 130.723 72.495 130.678 72.450 130.623 72.450 H 119.623 H 34.800 H 29.800 C 29.745 72.450 29.700 72.495 29.700 72.550 V 75.450 C 29.700 75.550 29.800 75.450 29.700 75.450 H 23.900 C 23.800 75.450 23.900 75.550 23.900 75.450 V 72.550 C 23.900 72.495 23.855 72.450 23.800 72.450 H 18.800 C 18.745 72.450 18.700 72.495 18.700 72.550 V 172.550 C 18.700 172.605 18.745 172.650 18.800 172.650 Z" stroke="rgb(0,0,0)" stroke-width="0.20" />
  <path d="M 36.712 172.650 V 156.450 M 36.712 153.450 V 124.050 M 36.712 121.050 V 91.650 M 36.712 88.650 V 72.450 M 38.212 75.450 V 104.850 M 38.212 107.850 V 137.250 M 38.212 140.250 V 169.650 M 39.712 172.650 V 156.450 M 39.712 153.450 V 124.050 M 39.712 121.050 V 91.650 M 39.712 88.650 V 72.450 M 41.212 75.450 V 104.850 M 41.212 107.850 V 137.250 M 41.212 140.250 V 169.650 M 42.712 172.650 V 156.450 M 42.712 153.450 V 124.050 M 42.712 121.050 V 91.650 M 42.712 88.650 V 72.450 M 44.212 75.450 V 104.850 M 44.212 107.850 V 137.250 M 44.212 140.250 V 169.650 M 45.712 172.650 V 156.450 M 45.712 153.450 V 124.050 M 45.712 121.050 V 91.650 M 45.712 88.650 V 72.450 M 47.212 75.450 V 104.850 M 47.212 107.850 V 137.250 M 47.212 140.250 V 169.650 M 48.712 172.650 V 156.450 M 48.712 153.450 V 124.050 M 48.712 121.050 V 91.650 M 48.712 88.650 V 72.450 M 50.212 75.450 V 104.850 M 50.212 107.850 V 137.250 M 50.212 140.250 V 169.650 M 51.712 172.650 V 156.450 M 51.712 153.450 V 124.050 M 51.712 121.050 V 91.650 M 51.712 88.650 V 72.450 M 53.212 75.450 V 104.850 M 53.212 107.850 V 137.250 M 53.212 140.250 V 169.650 M 54.712 172.650 V 156.450 M 54.712 153.450 V 124.050 M 54.712 121.050 V 91.650 M 54.712 88.650 V 72.450 M 56.212 75.450 V 104.850 M 56.212 107.850 V 137.250 M 56.212 140.250 V 169.650 M 57.712 172.650 V 156.450 M 57.712 153.450 V 124.050 M 57.712 121.050 V 91.650 M 57.712 88.650 V 72.450 M 59.212 75.450 V 104.850 M 59.212 107.850 V 137.250 M 59.212 140.250 V 169.650 M 60.712 172.650 V 156.450 M 60.712 153.450 V 124.050 M 60.712 121.050 V 91.650 M 60.712 88.650 V 72.450 M 62.212 75.450 V 104.850 M 62.212 107.850 V 137.250 M 62.212 140.250 V 169.650 M 63.712 172.650 V 156.450 M 63.712 153.450 V 124.050 M 63.712 121.050 V 91.650 M 63.712 88.650 V 72.450 M 65.212 75.450 V 104.850 M 65.212 107.850 V 137.250 M 65.212 140.250 V 169.650 M 66.712 172.650 V 156.450 M 66.712 153.450 V 124.050 M 66.712 121.050 V 91.650 M 66.712 88.650 V 72.450 M 68.212 75.450 V 104.850 M 68.212 107.850 V 137.250 M 68.212 140.250 V 169.650 M 69.712 172.650 V 156.450 M 69.712 153.450 V 124.050 M 69.712 121.050 V 91.650 M 69.712 88.650 V 72.450 M 71.212 75.450 V 104.850 M 71.212 107.850 V 137.250 M 71.212 140.250 V 169.650 M 72.712 172.650 V 156.450 M 72.712 153.450 V 124.050 M 72.712 121.050 V 91.650 M 72.712 88.650 V 72.450 M 74.212 75.450 V 104.850 M 74.212 107.850 V 137.250 M 74.212 140.250 V 169.650 M 75.712 172.650 V 156.450 M 75.712 153.450 V 124.050 M 75.712 121.050 V 91.650 M 75.712 88.650 V 72.450 M 77.212 75.450 V 104.850 M 77.212 107.850 V 137.250 M 77.212 140.250 V 169.650 M 78.712 172.650 V 156.450 M 78.712 153.450 V 124.050 M 78.712 121.050 V 91.650 M 78.712 88.650 V 72.450 M 80.212 75.450 V 104.850 M 80.212 107.850 V 137.250 M 80.212 140.250 V 169.650 M 81.712 172.650 V 156.450 M 81.712 153.450 V 124.050 M 81.712 121.050 V 91.650 M 81.712 88.650 V 72.450 M 83.212 75.450 V 104.850 M 83.212 107.850 V 137.250 M 83.212 140.250 V 169.650 M 84.712 172.650 V 156.450 M 84.712 153.450 V 124.050 M 84.712 121.050 V 91.650 M 84.712 88.650 V 72.450 M 86.212 75.450 V 104.850 M 86.212 107.850 V 137.250 M 86.212 140.250 V 169.650 M 87.712 172.650 V 156.450 M 87.712 153.450 V 124.050 M 87.712 121.050 V 91.650 M 87.712 88.650 V 72.450 M 89.212 75.450 V 104.850 M 89.212 107.850 V 137.250 M 89.212 140.250 V 169.650 M 90.712 172.650 V 156.450 M 90.712 153.450 V 124.050 M 90.712 121.050 V 91.650 M 90.712 88.650 V 72.450 M 92.212 75.450 V 104.850 M 92.212 107.850 V 137.250 M 92.212 140.250 V 169.650 M 93.712 172.650 V 156.450 M 93.712 153.450 V 124.050 M 93.712 121.050 V 91.650 M 93.712 88.650 V 72.450 M 95.212 75.450 V 104.850 M 95.212 107.850 V 137.250 M 95.212 140.250 V 169.650 M 96.712 172.650 V 156.450 M 96.712 153.450 V 124.050 M 96.712 121.050 V 91.650 M 96.712 88.650 V 72.450 M 98.212 75.450 V 104.850 M 98.212 107.850 V 137.250 M 98.212 140.250 V 169.650 M 99.712 172.650 V 156.450 M 99.712 153.450 V 124.050 M 99.712 121.050 V 91.650 M 99.712 88.650 V 72.450 M 101.212 75.450 V 104.850 M 101.212 107.850 V 137.250 M 101.212 140.250 V 169.650 M 102.712 172.650 V 156.450 M 102.712 153.450 V 124.050 M 102.712 121.050 V 91.650 M 102.712 88.650 V 72.450 M 104.212 75.450 V 104.850 M 104.212 107.850 V 137.250 M 104.212 140.250 V 169.650 M 105.712 172.650 V 156.450 M 105.712 153.450 V 124.050 M 105.712 121.050 V 91.650 M 105.712 88.650 V 72.450 M 107.212 75.450 V 104.850 M 107.212 107.850 V 137.250 M 107.212 140.250 V 169.650 M 108.712 172.650 V 156.450 M 108.712 153.450 V 124.050 M 108.712 121.050 V 91.650 M 108.712 88.650 V 72.450 M 110.212 75.450 V 104.850 M 110.212 107.850 V 137.250 M 110.212 140.250 V 169.650 M 111.712 172.650 V 156.450 M 111.712 153.450 V 124.050 M 111.712 121.050 V 91.650 M 111.712 88.650 V 72.450 M 113.212 75.450 V 104.850 M 113.212 107.850 V 137.250 M 113.212 140.250 V 169.650 M 114.712 172.650 V 156.450 M 114.712 153.450 V 124.050 M 114.712 121.050 V 91.650 M 114.712 88.650 V 72.450 M 116.212 75.450 V 104.850 M 116.212 107.850 V 137.250 M 116.212 140.250 V 169.650 M 117.712 172.650 V 156.450 M 117.712 153.450 V 124.050 M 117.712 121.050 V 91.650 M 117.712 88.650 V 72.450" stroke="rgb(0,0,0)" stroke-width="0.20" />
  <path d="M 161.535 172.650 V 156.450 M 161.535 153.450 V 124.050 M 161.535 121.050 V 91.650 M 161.535 88.650 V 72.450 M 163.035 75.450 V 104.850 M 163.035 107.850 V 137.250 M 163.035 140.250 V 169.650 M 164.535 172.650 V 156.450 M 164.535 153.450 V 124.050 M 164.535 121.050 V 91.650 M 164.535 88.650 V 72.450 M 166.035 75.450 V 104.850 M 166.035 107.850 V 137.250 M 166.035 140.250 V 169.650 M 167.535 172.650 V 156.450 M 167.535 153.450 V 124.050 M 167.535 121.050 V 91.650 M 167.535 88.650 V 72.450 M 169.035 75.450 V 104.850 M 169.035 107.850 V 137.250 M 169.035 140.250 V 169.650 M 170.535 172.650 V 156.450 M 170.535 153.450 V 124.050 M 170.535 121.050 V 91.650 M 170.535 88.650 V 72.450 M 172.035 75.450 V 104.850 M 172.035 107.850 V 137.250 M 172.035 140.250 V 169.650 M 173.535 172.650 V 156.450 M 173.535 153.450 V 124.050 M 173.535 121.050 V 91.650 M 173.535 88.650 V 72.450 M 175.035 75.450 V 104.850 M 175.035 107.850 V 137.250 M 175.035 140.250 V 169.650 M 176.535 172.650 V 156.450 M 176.535 153.450 V 124.050 M 176.535 121.050 V 91.650 M 176.535 88.650 V 72.450 M 178.035 75.450 V 104.850 M 178.035 107.850 V 137.250 M 178.035 140.250 V 169.650 M 179.535 172.650 V 156.450 M 179.535 153.450 V 124.050 M 179.535 121.050 V 91.650 M 179.535 88.650 V 72.450 M 181.035 75.450 V 104.850 M 181.035 107.850 V 137.250 M 181.035 140.250 V 169.650 M 182.535 172.650 V 156.450 M 182.535 153.450 V 124.050 M 182.535 121.050 V 91.650 M 182.535 88.650 V 72.450 M 184.035 75.450 V 104.850 M 184.035 107.850 V 137.250 M 184.035 140.250 V 169.650 M 185.535 172.650 V 156.450 M 185.535 153.450 V 124.050 M 185.535 121.050 V 91.650 M 185.535 88.650 V 72.450 M 187.035 75.450 V 104.850 M 187.035 107.850 V 137.250 M 187.035 140.250 V 169.650 M 188.535 172.650 V 156.450 M 188.535 153.450 V 124.050 M 188.535 121.050 V 91.650 M 188.535 88.650 V 72.450 M 190.035 75.450 V 104.850 M 190.035 107.850 V 137.250 M 190.035 140.250 V 169.650 M 191.535 172.650 V 156.450 M 191.535 153.450 V 124.050 M 191.535 121.050 V 91.650 M 191.535 88.650 V 72.450 M 193.035 75.450 V 104.850 M 193.035 107.850 V 137.250 M 193.035 140.250 V 169.650 M 194.535 172.650 V 156.450 M 194.535 153.450 V 124.050 M 194.535 121.050 V 91.650 M 194.535 88.650 V 72.450 M 196.035 75.450 V 104.850 M 196.035 107.850 V 137.250 M 196.035 140.250 V 169.650 M 197.535 172.650 V 156.450 M 197.535 153.450 V 124.050 M 197.535 121.050 V 91.650 M 197.535 88.650 V 72.450 M 199.035 75.450 V 104.850 M 199.035 107.850 V 137.250 M 199.035 140.250 V 169.650 M 200.535 172.650 V 156.450 M 200.535 153.450 V 124.050 M 200.535 121.050 V 91.650 M 200.535 88.650 V 72.450 M 202.035 75.450 V 104.850 M 202.035 107.850 V 137.250 M 202.035 140.250 V 169.650 M 203.535 172.650 V 156.450 M 203.535 153.450 V 124.050 M 203.535 121.050 V 91.650 M 203.535 88.650 V 72.450 M 205.035 75.450 V 104.850 M 205.035 107.850 V 137.250 M 205.035 140.250 V 169.650 M 206.535 172.650 V 156.450 M 206.535 153.450 V 124.050 M 206.535 121.050 V 91.650 M 206.535 88.650 V 72.450 M 208.035 75.450 V 104.850 M 208.035 107.850 V 137.250 M 208.035 140.250 V 169.650 M 209.535 172.650 V 156.450 M 209.535 153.450 V 124.050 M 209.535 121.050 V 91.650 M 209.535 88.650 V 72.450 M 211.035 75.450 V 104.850 M 211.035 107.850 V 137.250 M 211.035 140.250 V 169.650 M 212.535 172.650 V 156.450 M 212.535 153.450 V 124.050 M 212.535 121.050 V 91.650 M 212.535 88.650 V 72.450 M 214.035 75.450 V 104.850 M 214.035 107.850 V 137.250 M 214.035 140.250 V 169.650 M 215.535 172.650 V 156.450 M 215.535 153.450 V 124.050 M 215.535 121.050 V 91.650 M 215.535 88.650 V 72.450 M 217.035 75.450 V 104.850 M 217.035 107.850 V 137.250 M 217.035 140.250 V 169.650 M 218.535 172.650 V 156.450 M 218.535 153.450 V 124.050 M 218.535 121.050 V 91.650 M 218.535 88.650 V 72.450 M 220.035 75.450 V 104.850 M 220.035 107.850 V 137.250 M 220.035 140.250 V 169.650 M 221.535 172.650 V 156.450 M 221.535 153.450 V 124.050 M 221.535 121.050 V 91.650 M 221.535 88.650 V 72.450 M 223.035 75.450 V 104.850 M 223.035 107.850 V 137.250 M 223.035 140.250 V 169.650 M 224.535 172.650 V 156.450 M 224.535 153.450 V 124.050 M 224.535 121.050 V 91.650 M 224.535 88.650 V 72.450 M 226.035 75.450 V 104.850 M 226.035 107.850 V 137.250 M 226.035 140.250 V 169.650 M 227.535 172.650 V 156.450 M 227.535 153.450 V 124.050 M 227.535 121.050 V 91.650 M 227.535 88.650 V 72.450 M 229.035 75.450 V 104.850 M 229.035 107.850 V 137.250 M 229.035 140.250 V 169.650 M 230.535 172.650 V 156.450 M 230.535 153.450 V 124.050 M 230.535 121.050 V 91.650 M 230.535 88.650 V 72.450 M 232.035 75.450 V 104.850 M 232.035 107.850 V 137.250 M 232.035 140.250 V 169.650 M 233.535 172.650 V 156.450 M 233.535 153.450 V 124.050 M 233.535 121.050 V 91.650 M 233.535 88.650 V 72.450 M 235.035 75.450 V 104.850 M 235.035 107.850 V 137.250 M 235.035 140.250 V 169.650 M 236.535 172.650 V 156.450 M 236.535 153.450 V 124.050 M 236.535 121.050 V 91.650 M 236.535 88.650 V 72.450 M 238.035 75.450 V 104.850 M 238.035 107.850 V 137.250 M 238.035 140.250 V 169.650 M 239.535 172.650 V 156.450 M 239.535 153.450 V 124.050 M 239.535 121.050 V 91.650 M 239.535 88.650 V 72.450 M 241.035 75.450 V 104.850 M 241.035 107.850 V 137.250 M 241.035 140.250 V 169.650 M 242.535 172.650 V 156.450 M 242.535 153.450 V 124.050 M 242.535 121.050 V 91.650 M 242.535 88.650 V 72.450" stroke="rgb(0,0,0)" stroke-width="0.20" />
</g>
<g id="p-2" style="fill:none;stroke-linecap:round;stroke-linejoin:round;">
  <path d="M 45.800 67.200 H 56.700 C 56.800 67.200 56.700 67.100 56.700 67.200 V 70.100 C 56.700 70.155 56.745 70.200 56.800 70.200 H 62.800 C 62.855 70.200 62.900 70.155 62.900 70.100 V 67.200 C 62.900 67.100 62.800 67.200 62.900 67.200 H 68.700 C 68.800 67.200 68.700 67.100 68.700 67.200 V 70.100 C 68.700 70.155 68.745 70.200 68.800 70.200 H 74.800 C 74.855 70.200 74.900 70.155 74.900 70.100 V 67.200 C 74.900 67.100 74.800 67.200 74.900 67.200 H 85.800 C 90.557 67.200 95.230 65.948 99.350 63.569 C 103.470 61.191 106.891 57.770 109.269 53.650 C 111.648 49.530 112.900 44.857 112.900 40.100 C 112.900 35.343 111.648 30.670 109.269 26.550 C 106.891 22.430 103.470 19.009 99.350 16.631 C 95.230 14.252 90.557 13.000 85.800 13.000 C 85.855 13.000 85.900 13.045 85.900 13.100 V 10.100 C 85.900 10.045 85.855 10.000 85.800 10.000 H 73.800 C 73.745 10.000 73.700 10.045 73.700 10.100 V 13.000 C 73.700 13.100 73.800 13.000 73.700 13.000 H 61.800 H 56.900 C 56.800 13.000 56.900 13.100 56.900 13.000 V 10.100 C 56.900 10.045 56.855 10.000 56.800 10.000 H 50.800 C 50.745 10.000 50.700 10.045 50.700 10.100 V 13.000 C 50.700 13.100 50.800 13.000 50.700 13.000 H 45.800 C 41.043 13.000 36.370 14.252 32.250 16.631 C 28.130 19.009 24.709 22.430 22.331 26.550 C 19.952 30.670 18.700 35.343 18.700 40.100 C 18.700 44.857 19.952 49.530 22.331 53.650 C 24.709 57.770 28.130 61.191 32.250 63.569 C 36.370 65.948 41.043 67.200 45.800 67.200 Z" stroke="rgb(0,0,0)" stroke-width="0.20" />
</g>
<g id="p-3" style="fill:none;stroke-linecap:round;stroke-linejoin:round;">
  <path d="M 181.500 67.200 H 170.600 C 170.500 67.200 170.600 67.100 170.600 67.200 V 70.100 C 170.600 70.155 170.555 70.200 170.500 70.200 H 164.500 C 164.445 70.200 164.400 70.155 164.400 70.100 V 67.200 C 164.400 67.100 164.500 67.200 164.400 67.200 H 158.600 C 158.500 67.200 158.600 67.100 158.600 67.200 V 70.100 C 158.600 70.155 158.555 70.200 158.500 70.200 H 152.500 C 152.445 70.200 152.400 70.155 152.400 70.100 V 67.200 C 152.400 67.100 152.500 67.200 152.400 67.200 H 141.500 C 136.743 67.200 132.070 65.948 127.950 63.569 C 123.830 61.191 120.409 57.770 118.031 53.650 C 115.652 49.530 114.400 44.857 114.400 40.100 C 114.400 35.343 115.652 30.670 118.031 26.550 C 120.409 22.430 123.830 19.009 127.950 16.631 C 132.070 14.252 136.743 13.000 141.500 13.000 C 141.445 13.000 141.400 13.045 141.400 13.100 V 10.100 C 141.400 10.045 141.445 10.000 141.500 10.000 H 153.500 C 153.555 10.000 153.600 10.045 153.600 10.100 V 13.000 C 153.600 13.100 153.500 13.000 153.600 13.000 H 165.500 H 170.400 C 170.500 13.000 170.400 13.100 170.400 13.000 V 10.100 C 170.400 10.045 170.445 10.000 170.500 10.000 H 176.500 C 176.555 10.000 176.600 10.045 176.600 10.100 V 13.000 C 176.600 13.100 176.500 13.000 176.600 13.000 H 181.500 C 186.257 13.000 190.930 14.252 195.050 16.631 C 199.170 19.009 202.591 22.430 204.969 26.550 C 207.348 30.670 208.600 35.343 208.600 40.100 C 208.600 44.857 207.348 49.530 204.969 53.650 C 202.591 57.770 199.170 61.191 195.050 63.569 C 190.930 65.948 186.257 67.200 181.500 67.200 Z" stroke="rgb(0,0,0)" stroke-width="0.20" />
</g>
</svg>