<?xml version='1.0' encoding='utf-8'?>
<svg height="235.10mm" viewBox="0.0 0.0 344.92 235.10" width="344.92mm" xmlns="http://www.w3.org/2000/svg" xmlns:cc="http://creativecommons.org/ns#" xmlns:dc="http://purl.org/dc/elements/1.1/" xmlns:inkscape="http://www.inkscape.org/namespaces/inkscape" xmlns:rdf="http://www.w3.org/1999/02/22-rdf-syntax-ns#" xmlns:svg="http://www.w3.org/2000/svg" xmlns:xlink="http://www.w3.org/1999/xlink">
<!--
FlexBox2 - Box with living hinge and top corners rounded

Created with Boxes.py (https://boxes.hackerspace-bamberg.de/)
Command line (remove spaces between dashes): boxes FlexBox2
-->
<title>FlexBox2</title>
<metadata>
<rdf:RDF><cc:Work>
<dc:title>FlexBox - FlexBox2</dc:title>
<dc:source>boxes FlexBox2</dc:source>
<dc:description>Box with living hinge and top corners rounded

Created with Boxes.py (https://boxes.hackerspace-bamberg.de/)
Command line: boxes FlexBox2
Command line short: boxes FlexBox2
</dc:description>
</cc:Work></rdf:RDF></metadata>
<g id="p-0" style="fill:none;stroke-linecap:round;stroke-linejoin:round;">
  <path d="M 10.000 225.100 H 110.000 V 215.100 H 10.000 V 225.100 Z" stroke="rgb(0,0,0)" stroke-width="0.20" />
  <text dominant-baseline="hanging" font-size="6px" style="font-family: sans-serif ; font-weight: normal; font-style: normal; fill: rgb(255,0,0)" text-anchor="middle" transform="matrix( 1.000 0.000 0.000 1.000 60.000 217.100 )">100.0mm, burn:0.10mm</text>
</g>
<g id="p-1" style="fill:none;stroke-linecap:round;stroke-linejoin:round;">
  <path d="M 19.000 209.650 H 25.500 C 25.555 209.650 25.600 209.605 25.600 209.550 V 206.650 C 25.600 206.550 25.500 206.650 25.600 206.650 H 31.400 C 31.500 206.650 31.400 206.550 31.400 206.650 V 209.550 C 31.400 209.605 31.445 209.650 31.500 209.650 H 37.500 C 37.555 209.650 37.600 209.605 37.600 209.550 V 206.650 C 37.600 206.550 37.500 206.650 37.600 206.650 H 43.400 C 43.500 206.650 43.400 206.550 43.400 206.650 V 209.550 C 43.400 209.605 43.445 209.650 43.500 209.650 H 49.500 C 49.555 209.650 49.600 209.605 49.600 209.550 V 206.650 C 49.600 206.550 49.500 206.650 49.600 206.650 H 55.400 C 55.500 206.650 55.400 206.550 55.400 206.650 V 209.550 C 55.400 209.605 55.445 209.650 55.500 209.650 H 61.500 C 61.555 209.650 61.600 209.605 61.600 209.550 V 206.650 C 61.600 206.550 61.500 206.650 61.600 206.650 H 67.400 C 67.500 206.650 67.400 206.550 67.400 206.650 V 209.550 C 67.400 209.605 67.445 209.650 67.500 209.650 H 73.500 C 73.555 209.650 73.600 209.605 73.600 209.550 V 206.650 C 73.600 206.550 73.500 206.650 73.600 206.650 H 79.400 C 79.500 206.650 79.400 206.550 79.400 206.650 V 209.550 C 79.400 209.605 79.445 209.650 79.500 209.650 H 85.500 C 85.555 209.650 85.600 209.605 85.600 209.550 V 206.650 C 85.600 206.550 85.500 206.650 85.600 206.650 H 91.400 C 91.500 206.650 91.400 206.550 91.400 206.650 V 209.550 C 91.400 209.605 91.445 209.650 91.500 209.650 H 98.000 H 121.562 H 185.562 H 209.124 C 209.179 209.650 209.224 209.605 209.224 209.550 V 206.350 C 209.224 206.250 209.124 206.350 209.224 206.350 H 221.624 C 221.724 206.350 221.624 206.250 221.624 206.350 V 209.550 C 221.624 209.699 221.663 209.846 221.738 209.975 C 221.812 210.104 221.920 210.212 222.049 210.286 C 222.178 210.361 222.325 210.400 222.474 210.400 C 222.600 210.400 222.724 210.367 222.833 210.304 C 222.943 210.241 223.033 210.150 223.096 210.041 C 223.159 209.931 223.193 209.807 223.193 209.681 C 223.193 209.590 223.217 209.501 223.262 209.422 C 223.308 209.343 223.373 209.278 223.452 209.232 C 223.531 209.186 223.620 209.163 223.711 209.163 C 223.802 209.163 223.892 209.186 223.971 209.232 C 224.050 209.278 224.115 209.343 224.161 209.422 C 224.206 209.501 224.230 209.590 224.230 209.681 C 224.230 209.807 224.263 209.931 224.326 210.041 C 224.390 210.150 224.480 210.241 224.590 210.304 C 224.699 210.367 224.823 210.400 224.949 210.400 C 225.075 210.400 225.199 210.367 225.308 210.304 C 225.418 210.241 225.508 210.150 225.571 210.041 C 225.634 209.931 225.668 209.807 225.668 209.681 C 225.668 209.590 225.692 209.501 225.737 209.422 C 225.783 209.343 225.848 209.278 225.927 209.232 C 226.006 209.186 226.095 209.163 226.186 209.163 C 226.277 209.163 226.367 209.186 226.446 209.232 C 226.525 209.278 226.590 209.343 226.636 209.422 C 226.681 209.501 226.705 209.590 226.705 209.681 C 226.705 209.807 226.738 209.931 226.801 210.041 C 226.865 210.150 226.955 210.241 227.065 210.304 C 227.174 210.367 227.298 210.400 227.424 210.400 C 227.550 210.400 227.674 210.367 227.783 210.304 C 227.893 210.241 227.983 210.150 228.046 210.041 C 228.109 209.931 228.143 209.807 228.143 209.681 C 228.143 209.590 228.167 209.501 228.212 209.422 C 228.258 209.343 228.323 209.278 228.402 209.232 C 228.481 209.186 228.570 209.163 228.661 209.163 C 228.752 209.163 228.842 209.186 228.921 209.232 C 229.000 209.278 229.065 209.343 229.111 209.422 C 229.156 209.501 229.180 209.590 229.180 209.681 C 229.180 209.807 229.213 209.931 229.276 210.041 C 229.340 210.150 229.430 210.241 229.540 210.304 C 229.649 210.367 229.773 210.400 229.899 210.400 C 230.025 210.400 230.149 210.367 230.258 210.304 C 230.368 210.241 230.458 210.150 230.521 210.041 C 230.584 209.931 230.618 209.807 230.618 209.681 C 230.618 209.590 230.642 209.501 230.687 209.422 C 230.733 209.343 230.798 209.278 230.877 209.232 C 230.956 209.186 231.045 209.163 231.136 209.163 C 231.227 209.163 231.317 209.186 231.396 209.232 C 231.475 209.278 231.540 209.343 231.586 209.422 C 231.631 209.501 231.655 209.590 231.655 209.681 C 231.655 209.807 231.688 209.931 231.751 210.041 C 231.815 210.150 231.905 210.241 232.015 210.304 C 232.124 210.367 232.248 210.400 232.374 210.400 C 232.523 210.400 232.670 210.361 232.799 210.286 C 232.928 210.212 233.035 210.104 233.110 209.975 C 233.185 209.846 233.224 209.699 233.224 209.550 V 109.550 C 233.224 109.401 233.185 109.254 233.110 109.125 C 233.035 108.996 232.928 108.888 232.799 108.814 C 232.670 108.739 232.523 108.700 232.374 108.700 C 232.248 108.700 232.124 108.733 232.015 108.796 C 231.905 108.859 231.815 108.950 231.751 109.059 C 231.688 109.169 231.655 109.293 231.655 109.419 C 231.655 109.510 231.631 109.599 231.586 109.678 C 231.540 109.757 231.475 109.822 231.396 109.868 C 231.317 109.914 231.227 109.938 231.136 109.938 C 231.045 109.938 230.956 109.914 230.877 109.868 C 230.798 109.822 230.733 109.757 230.687 109.678 C 230.642 109.599 230.618 109.510 230.618 109.419 C 230.618 109.293 230.584 109.169 230.521 109.059 C 230.458 108.950 230.368 108.859 230.258 108.796 C 230.149 108.733 230.025 108.700 229.899 108.700 C 229.773 108.700 229.649 108.733 229.540 108.796 C 229.430 108.859 229.340 108.950 229.276 109.059 C 229.213 109.169 229.180 109.293 229.180 109.419 C 229.180 109.510 229.156 109.599 229.111 109.678 C 229.065 109.757 229.000 109.822 228.921 109.868 C 228.842 109.914 228.752 109.938 228.661 109.938 C 228.570 109.938 228.481 109.914 228.402 109.868 C 228.323 109.822 228.258 109.757 228.212 109.678 C 228.167 109.599 228.143 109.510 228.143 109.419 C 228.143 109.293 228.109 109.169 228.046 109.059 C 227.983 108.950 227.893 108.859 227.783 108.796 C 227.674 108.733 227.550 108.700 227.424 108.700 C 227.298 108.700 227.174 108.733 227.065 108.796 C 226.955 108.859 226.865 108.950 226.801 109.059 C 226.738 109.169 226.705 109.293 226.705 109.419 C 226.705 109.510 226.681 109.599 226.636 109.678 C 226.590 109.757 226.525 109.822 226.446 109.868 C 226.367 109.914 226.277 109.938 226.186 109.938 C 226.095 109.938 226.006 109.914 225.927 109.868 C 225.848 109.822 225.783 109.757 225.737 109.678 C 225.692 109.599 225.668 109.510 225.668 109.419 C 225.668 109.293 225.634 109.169 225.571 109.059 C 225.508 108.950 225.418 108.859 225.308 108.796 C 225.199 108.733 225.075 108.700 224.949 108.700 C 224.823 108.700 224.699 108.733 224.590 108.796 C 224.480 108.859 224.390 108.950 224.326 109.059 C 224.263 109.169 224.230 109.293 224.230 109.419 C 224.230 109.510 224.206 109.599 224.161 109.678 C 224.115 109.757 224.050 109.822 223.971 109.868 C 223.892 109.914 223.802 109.937 223.711 109.937 C 223.620 109.937 223.531 109.914 223.452 109.868 C 223.373 109.822 223.308 109.757 223.262 109.678 C 223.217 109.599 223.193 109.510 223.193 109.419 C 223.193 109.293 223.159 109.169 223.096 109.059 C 223.033 108.950 222.943 108.859 222.833 108.796 C 222.724 108.733 222.600 108.700 222.474 108.700 C 222.325 108.700 222.178 108.739 222.049 108.814 C 221.920 108.888 221.812 108.996 221.738 109.125 C 221.663 109.254 221.624 109.401 221.624 109.550 V 112.750 C 221.624 112.850 221.724 112.750 221.624 112.750 H 209.224 C 209.124 112.750 209.224 112.850 209.224 112.750 V 109.550 C 209.224 109.495 209.179 109.450 209.124 109.450 H 185.562 H 121.562 H 98.000 H 91.500 C 91.445 109.450 91.400 109.495 91.400 109.550 V 112.450 C 91.400 112.550 91.500 112.450 91.400 112.450 H 85.600 C 85.500 112.450 85.600 112.550 85.600 112.450 V 109.550 C 85.600 109.495 85.555 109.450 85.500 109.450 H 79.500 C 79.445 109.450 79.400 109.495 79.400 109.550 V 112.450 C 79.400 112.550 79.500 112.450 79.400 112.450 H 73.600 C 73.500 112.450 73.600 112.550 73.600 112.450 V 109.550 C 73.600 109.495 73.555 109.450 73.500 109.450 H 67.500 C 67.445 109.450 67.400 109.495 67.400 109.550 V 112.450 C 67.400 112.550 67.500 112.450 67.400 112.450 H 61.600 C 61.500 112.450 61.600 112.550 61.600 112.450 V 109.550 C 61.600 109.495 61.555 109.450 61.500 109.450 H 55.500 C 55.445 109.450 55.400 109.495 55.400 109.550 V 112.450 C 55.400 112.550 55.500 112.450 55.400 112.450 H 49.600 C 49.500 112.450 49.600 112.550 49.600 112.450 V 109.550 C 49.600 109.495 49.555 109.450 49.500 109.450 H 43.500 C 43.445 109.450 43.400 109.495 43.400 109.550 V 112.450 C 43.400 112.550 43.500 112.450 43.400 112.450 H 37.600 C 37.500 112.450 37.600 112.550 37.600 112.450 V 109.550 C 37.600 109.495 37.555 109.450 37.500 109.450 H 31.500 C 31.445 109.450 31.400 109.495 31.400 109.550 V 112.450 C 31.400 112.550 31.500 112.450 31.400 112.450 H 25.600 C 25.500 112.450 25.600 112.550 25.600 112.450 V 109.550 C 25.600 109.495 25.555 109.450 25.500 109.450 H 19.000 C 18.945 109.450 18.900 109.495 18.900 109.550 V 112.550 V 120.450 C 18.900 120.550 19.000 120.450 18.900 120.450 H 16.000 C 15.945 120.450 15.900 120.495 15.900 120.550 V 126.550 C 15.900 126.605 15.945 126.650 16.000 126.650 H 18.900 C 19.000 126.650 18.900 126.550 18.900 126.650 V 132.450 C 18.900 132.550 19.000 132.450 18.900 132.450 H 16.000 C 15.945 132.450 15.900 132.495 15.900 132.550 V 138.550 C 15.900 138.605 15.945 138.650 16.000 138.650 H 18.900 C 19.000 138.650 18.900 138.550 18.900 138.650 V 144.450 C 18.900 144.550 19.000 144.450 18.900 144.450 H 16.000 C 15.945 144.450 15.900 144.495 15.900 144.550 V 150.550 C 15.900 150.605 15.945 150.650 16.000 150.650 H 18.900 C 19.000 150.650 18.900 150.550 18.900 150.650 V 156.450 C 18.900 156.550 19.000 156.450 18.900 156.450 H 16.000 C 15.945 156.450 15.900 156.495 15.900 156.550 V 162.550 C 15.900 162.605 15.945 162.650 16.000 162.650 H 18.900 C 19.000 162.650 18.900 162.550 18.900 162.650 V 168.450 C 18.900 168.550 19.000 168.450 18.900 168.450 H 16.000 C 15.945 168.450 15.900 168.495 15.900 168.550 V 174.550 C 15.900 174.605 15.945 174.650 16.000 174.650 H 18.900 C 19.000 174.650 18.900 174.550 18.900 174.650 V 180.450 C 18.900 180.550 19.000 180.450 18.900 180.450 H 16.000 C 15.945 180.450 15.900 180.495 15.900 180.550 V 186.550 C 15.900 186.605 15.945 186.650 16.000 186.650 H 18.900 C 19.000 186.650 18.900 186.550 18.900 186.650 V 192.450 C 18.900 192.550 19.000 192.450 18.900 192.450 H 16.000 C 15.945 192.450 15.900 192.495 15.900 192.550 V 198.550 C 15.900 198.605 15.945 198.650 16.000 198.650 H 18.900 C 19.000 198.650 18.900 198.550 18.900 198.650 V 206.550 V 209.550 C 18.900 209.605 18.945 209.650 19.000 209.650 Z" stroke="rgb(0,0,0)" stroke-width="0.20" />
  <path d="M 100.031 209.650 V 193.450 M 100.031 190.450 V 161.050 M 100.031 158.050 V 128.650 M 100.031 125.650 V 109.450 M 101.531 112.450 V 141.850 M 101.531 144.850 V 174.250 M 101.531 177.250 V 206.650 M 103.031 209.650 V 193.450 M 103.031 190.450 V 161.050 M 103.031 158.050 V 128.650 M 103.031 125.650 V 109.450 M 104.531 112.450 V 141.850 M 104.531 144.850 V 174.250 M 104.531 177.250 V 206.650 M 106.031 209.650 V 193.450 M 106.031 190.450 V 161.050 M 106.031 158.050 V 128.650 M 106.031 125.650 V 109.450 M 107.531 112.450 V 141.850 M 107.531 144.850 V 174.250 M 107.531 177.250 V 206.650 M 109.031 209.650 V 193.450 M 109.031 190.450 V 161.050 M 109.031 158.050 V 128.650 M 109.031 125.650 V 109.450 M 110.531 112.450 V 141.850 M 110.531 144.850 V 174.250 M 110.531 177.250 V 206.650 M 112.031 209.650 V 193.450 M 112.031 190.450 V 161.050 M 112.031 158.050 V 128.650 M 112.031 125.650 V 109.450 M 113.531 112.450 V 141.850 M 113.531 144.850 V 174.250 M 113.531 177.250 V 206.650 M 115.031 209.650 V 193.450 M 115.031 190.450 V 161.050 M 115.031 158.050 V 128.650 M 115.031 125.650 V 109.450 M 116.531 112.450 V 141.850 M 116.531 144.850 V 174.250 M 116.531 177.250 V 206.650 M 118.031 209.650 V 193.450 M 118.031 190.450 V 161.050 M 118.031 158.050 V 128.650 M 118.031 125.650 V 109.450 M 119.531 112.450 V 141.850 M 119.531 144.850 V 174.250 M 119.531 177.250 V 206.650" stroke="rgb(0,0,0)" stroke-width="0.20" />
  <path d="M 187.593 209.650 V 193.450 M 187.593 190.450 V 161.050 M 187.593 158.050 V 128.650 M 187.593 125.650 V 109.450 M 189.093 112.450 V 141.850 M 189.093 144.850 V 174.250 M 189.093 177.250 V 206.650 M 190.593 209.650 V 193.450 M 190.593 190.450 V 161.050 M 190.593 158.050 V 128.650 M 190.593 125.650 V 109.450 M 192.093 112.450 V 141.850 M 192.093 144.850 V 174.250 M 192.093 177.250 V 206.650 M 193.593 209.650 V 193.450 M 193.593 190.450 V 161.050 M 193.593 158.050 V 128.650 M 193.593 125.650 V 109.450 M 195.093 112.450 V 141.850 M 195.093 144.850 V 174.250 M 195.093 177.250 V 206.650 M 196.593 209.650 V 193.450 M 196.593 190.450 V 161.050 M 196.593 158.050 V 128.650 M 196.593 125.650 V 109.450 M 198.093 112.450 V 141.850 M 198.093 144.850 V 174.250 M 198.093 177.250 V 206.650 M 199.593 209.650 V 193.450 M 199.593 190.450 V 161.050 M 199.593 158.050 V 128.650 M 199.593 125.650 V 109.450 M 201.093 112.450 V 141.850 M 201.093 144.850 V 174.250 M 201.093 177.250 V 206.650 M 202.593 209.650 V 193.450 M 202.593 190.450 V 161.050 M 202.593 158.050 V 128.650 M 202.593 125.650 V 109.450 M 204.093 112.450 V 141.850 M 204.093 144.850 V 174.250 M 204.093 177.250 V 206.650 M 205.593 209.650 V 193.450 M 205.593 190.450 V 161.050 M 205.593 158.050 V 128.650 M 205.593 125.650 V 109.450 M 207.093 112.450 V 141.850 M 207.093 144.850 V 174.250 M 207.093 177.250 V 206.650" stroke="rgb(0,0,0)" stroke-width="0.20" />
</g>
<g id="p-2" style="fill:none;stroke-linecap:round;stroke-linejoin:round;">
  <path d="M 237.824 210.400 H 245.824 C 245.879 210.400 245.924 210.355 245.924 210.300 V 207.400 C 245.924 207.300 245.824 207.400 245.924 207.400 H 251.724 C 251.824 207.400 251.724 207.300 251.724 207.400 V 210.300 C 251.724 210.355 251.769 210.400 251.824 210.400 H 257.824 C 257.879 210.400 257.924 210.355 257.924 210.300 V 207.400 C 257.924 207.300 257.824 207.400 257.924 207.400 H 263.724 C 263.824 207.400 263.724 207.300 263.724 207.400 V 210.300 C 263.724 210.355 263.769 210.400 263.824 210.400 H 269.824 C 269.879 210.400 269.924 210.355 269.924 210.300 V 207.400 C 269.924 207.300 269.824 207.400 269.924 207.400 H 275.724 C 275.824 207.400 275.724 207.300 275.724 207.400 V 210.300 C 275.724 210.355 275.769 210.400 275.824 210.400 H 281.824 C 281.879 210.400 281.924 210.355 281.924 210.300 V 207.400 C 281.924 207.300 281.824 207.400 281.924 207.400 H 287.724 C 287.824 207.400 287.724 207.300 287.724 207.400 V 210.300 C 287.724 210.355 287.769 210.400 287.824 210.400 H 293.824 C 293.879 210.400 293.924 210.355 293.924 210.300 V 207.400 C 293.924 207.300 293.824 207.400 293.924 207.400 H 299.724 C 299.824 207.400 299.724 207.300 299.724 207.400 V 210.300 C 299.724 210.355 299.769 210.400 299.824 210.400 H 305.824 C 305.879 210.400 305.924 210.355 305.924 210.300 V 207.400 C 305.924 207.300 305.824 207.400 305.924 207.400 H 311.724 C 311.824 207.400 311.724 207.300 311.724 207.400 V 210.300 C 311.724 210.355 311.769 210.400 311.824 210.400 H 317.824 C 317.879 210.400 317.924 210.355 317.924 210.300 V 207.400 C 317.924 207.300 317.824 207.400 317.924 207.400 H 323.724 C 323.824 207.400 323.724 207.300 323.724 207.400 V 210.300 C 323.724 210.355 323.769 210.400 323.824 210.400 H 331.824 H 334.824 C 334.879 210.400 334.924 210.355 334.924 210.300 V 207.300 V 199.300 C 334.924 199.245 334.879 199.200 334.824 199.200 H 331.924 C 331.824 199.200 331.924 199.300 331.924 199.200 V 193.400 C 331.924 193.300 331.824 193.400 331.924 193.400 H 334.824 C 334.879 193.400 334.924 193.355 334.924 193.300 V 187.300 C 334.924 187.245 334.879 187.200 334.824 187.200 H 331.924 C 331.824 187.200 331.924 187.300 331.924 187.200 V 181.400 C 331.924 181.300 331.824 181.400 331.924 181.400 H 334.824 C 334.879 181.400 334.924 181.355 334.924 181.300 V 175.300 C 334.924 175.245 334.879 175.200 334.824 175.200 H 331.924 C 331.824 175.200 331.924 175.300 331.924 175.200 V 169.400 C 331.924 169.300 331.824 169.400 331.924 169.400 H 334.824 C 334.879 169.400 334.924 169.355 334.924 169.300 V 163.300 C 334.924 163.245 334.879 163.200 334.824 163.200 H 331.924 C 331.824 163.200 331.924 163.300 331.924 163.200 V 157.400 C 331.924 157.300 331.824 157.400 331.924 157.400 H 334.824 C 334.879 157.400 334.924 157.355 334.924 157.300 V 151.300 C 334.924 151.245 334.879 151.200 334.824 151.200 H 331.924 C 331.824 151.200 331.924 151.300 331.924 151.200 V 145.400 C 331.924 145.300 331.824 145.400 331.924 145.400 H 334.824 C 334.879 145.400 334.924 145.355 334.924 145.300 V 139.300 C 334.924 139.245 334.879 139.200 334.824 139.200 H 331.924 C 331.824 139.200 331.924 139.300 331.924 139.200 V 133.400 C 331.924 133.300 331.824 133.400 331.924 133.400 H 334.824 C 334.879 133.400 334.924 133.355 334.924 133.300 V 127.300 C 334.924 127.245 334.879 127.200 334.824 127.200 H 331.924 C 331.824 127.200 331.924 127.300 331.924 127.200 V 121.400 C 331.924 121.300 331.824 121.400 331.924 121.400 H 334.824 C 334.879 121.400 334.924 121.355 334.924 121.300 V 113.300 V 110.300 C 334.924 110.245 334.879 110.200 334.824 110.200 H 331.824 H 323.824 C 323.769 110.200 323.724 110.245 323.724 110.300 V 113.200 C 323.724 113.300 323.824 113.200 323.724 113.200 H 317.924 C 317.824 113.200 317.924 113.300 317.924 113.200 V 110.300 C 317.924 110.245 317.879 110.200 317.824 110.200 H 311.824 C 311.769 110.200 311.724 110.245 311.724 110.300 V 113.200 C 311.724 113.300 311.824 113.200 311.724 113.200 H 305.924 C 305.824 113.200 305.924 113.300 305.924 113.200 V 110.300 C 305.924 110.245 305.879 110.200 305.824 110.200 H 299.824 C 299.769 110.200 299.724 110.245 299.724 110.300 V 113.200 C 299.724 113.300 299.824 113.200 299.724 113.200 H 293.924 C 293.824 113.200 293.924 113.300 293.924 113.200 V 110.300 C 293.924 110.245 293.879 110.200 293.824 110.200 H 287.824 C 287.769 110.200 287.724 110.245 287.724 110.300 V 113.200 C 287.724 113.300 287.824 113.200 287.724 113.200 H 281.924 C 281.824 113.200 281.924 113.300 281.924 113.200 V 110.300 C 281.924 110.245 281.879 110.200 281.824 110.200 H 275.824 C 275.769 110.200 275.724 110.245 275.724 110.300 V 113.200 C 275.724 113.300 275.824 113.200 275.724 113.200 H 269.924 C 269.824 113.200 269.924 113.300 269.924 113.200 V 110.300 C 269.924 110.245 269.879 110.200 269.824 110.200 H 263.824 C 263.769 110.200 263.724 110.245 263.724 110.300 V 113.200 C 263.724 113.300 263.824 113.200 263.724 113.200 H 257.924 C 257.824 113.200 257.924 113.300 257.924 113.200 V 110.300 C 257.924 110.245 257.879 110.200 257.824 110.200 H 251.824 C 251.769 110.200 251.724 110.245 251.724 110.300 V 113.200 C 251.724 113.300 251.824 113.200 251.724 113.200 H 245.924 C 245.824 113.200 245.924 113.300 245.924 113.200 V 110.300 C 245.924 110.245 245.879 110.200 245.824 110.200 H 237.824 H 234.824 C 234.769 110.200 234.724 110.245 234.724 110.300 V 113.300 V 121.300 C 234.724 121.355 234.769 121.400 234.824 121.400 H 237.724 C 237.824 121.400 237.724 121.300 237.724 121.400 V 127.200 C 237.724 127.300 237.824 127.200 237.724 127.200 H 234.824 C 234.769 127.200 234.724 127.245 234.724 127.300 V 133.300 C 234.724 133.355 234.769 133.400 234.824 133.400 H 237.724 C 237.824 133.400 237.724 133.300 237.724 133.400 V 139.200 C 237.724 139.300 237.824 139.200 237.724 139.200 H 234.824 C 234.769 139.200 234.724 139.245 234.724 139.300 V 145.300 C 234.724 145.355 234.769 145.400 234.824 145.400 H 237.724 C 237.824 145.400 237.724 145.300 237.724 145.400 V 151.200 C 237.724 151.300 237.824 151.200 237.724 151.200 H 234.824 C 234.769 151.200 234.724 151.245 234.724 151.300 V 157.300 C 234.724 157.355 234.769 157.400 234.824 157.400 H 237.724 C 237.824 157.400 237.724 157.300 237.724 157.400 V 163.200 C 237.724 163.300 237.824 163.200 237.724 163.200 H 234.824 C 234.769 163.200 234.724 163.245 234.724 163.300 V 169.300 C 234.724 169.355 234.769 169.400 234.824 169.400 H 237.724 C 237.824 169.400 237.724 169.300 237.724 169.400 V 175.200 C 237.724 175.300 237.824 175.200 237.724 175.200 H 234.824 C 234.769 175.200 234.724 175.245 234.724 175.300 V 181.300 C 234.724 181.355 234.769 181.400 234.824 181.400 H 237.724 C 237.824 181.400 237.724 181.300 237.724 181.400 V 187.200 C 237.724 187.300 237.824 187.200 237.724 187.200 H 234.824 C 234.769 187.200 234.724 187.245 234.724 187.300 V 193.300 C 234.724 193.355 234.769 193.400 234.824 193.400 H 237.724 C 237.824 193.400 237.724 193.300 237.724 193.400 V 199.200 C 237.724 199.300 237.824 199.200 237.724 199.200 H 234.824 C 234.769 199.200 234.724 199.245 234.724 199.300 V 207.300 V 210.300 C 234.724 210.355 234.769 210.400 234.824 210.400 H 237.824 Z" stroke="rgb(0,0,0)" stroke-width="0.20" />
</g>
<g id="p-3" style="fill:none;stroke-linecap:round;stroke-linejoin:round;">
  <path d="M 19.000 104.200 H 26.900 C 27.000 104.200 26.900 104.100 26.900 104.200 V 107.100 C 26.900 107.155 26.945 107.200 27.000 107.200 H 33.000 C 33.055 107.200 33.100 107.155 33.100 107.100 V 104.200 C 33.100 104.100 33.000 104.200 33.100 104.200 H 38.900 C 39.000 104.200 38.900 104.100 38.900 104.200 V 107.100 C 38.900 107.155 38.945 107.200 39.000 107.200 H 45.000 C 45.055 107.200 45.100 107.155 45.100 107.100 V 104.200 C 45.100 104.100 45.000 104.200 45.100 104.200 H 50.900 C 51.000 104.200 50.900 104.100 50.900 104.200 V 107.100 C 50.900 107.155 50.945 107.200 51.000 107.200 H 57.000 C 57.055 107.200 57.100 107.155 57.100 107.100 V 104.200 C 57.100 104.100 57.000 104.200 57.100 104.200 H 62.900 C 63.000 104.200 62.900 104.100 62.900 104.200 V 107.100 C 62.900 107.155 62.945 107.200 63.000 107.200 H 69.000 C 69.055 107.200 69.100 107.155 69.100 107.100 V 104.200 C 69.100 104.100 69.000 104.200 69.100 104.200 H 74.900 C 75.000 104.200 74.900 104.100 74.900 104.200 V 107.100 C 74.900 107.155 74.945 107.200 75.000 107.200 H 81.000 C 81.055 107.200 81.100 107.155 81.100 107.100 V 104.200 C 81.100 104.100 81.000 104.200 81.100 104.200 H 86.900 C 87.000 104.200 86.900 104.100 86.900 104.200 V 107.100 C 86.900 107.155 86.945 107.200 87.000 107.200 H 93.000 C 93.055 107.200 93.100 107.155 93.100 107.100 V 104.200 C 93.100 104.100 93.000 104.200 93.100 104.200 H 98.900 C 99.000 104.200 98.900 104.100 98.900 104.200 V 107.100 C 98.900 107.155 98.945 107.200 99.000 107.200 H 105.000 C 105.055 107.200 105.100 107.155 105.100 107.100 V 104.200 C 105.100 104.100 105.000 104.200 105.100 104.200 H 113.000 C 113.055 104.200 113.100 104.155 113.100 104.100 V 97.700 C 113.100 97.600 113.000 97.700 113.100 97.700 H 116.000 C 116.055 97.700 116.100 97.655 116.100 97.600 V 91.600 C 116.100 91.545 116.055 91.500 116.000 91.500 H 113.100 C 113.000 91.500 113.100 91.600 113.100 91.500 V 85.700 C 113.100 85.600 113.000 85.700 113.100 85.700 H 116.000 C 116.055 85.700 116.100 85.655 116.100 85.600 V 79.600 C 116.100 79.545 116.055 79.500 116.000 79.500 H 113.100 C 113.000 79.500 113.100 79.600 113.100 79.500 V 73.700 C 113.100 73.600 113.000 73.700 113.100 73.700 H 116.000 C 116.055 73.700 116.100 73.655 116.100 73.600 V 67.600 C 116.100 67.545 116.055 67.500 116.000 67.500 H 113.100 C 113.000 67.500 113.100 67.600 113.100 67.500 V 61.700 C 113.100 61.600 113.000 61.700 113.100 61.700 H 116.000 C 116.055 61.700 116.100 61.655 116.100 61.600 V 55.600 C 116.100 55.545 116.055 55.500 116.000 55.500 H 113.100 C 113.000 55.500 113.100 55.600 113.100 55.500 V 49.700 C 113.100 49.600 113.000 49.700 113.100 49.700 H 116.000 C 116.055 49.700 116.100 49.655 116.100 49.600 V 43.600 C 116.100 43.545 116.055 43.500 116.000 43.500 H 113.100 C 113.000 43.500 113.100 43.600 113.100 43.500 V 37.700 C 113.100 37.600 113.000 37.700 113.100 37.700 H 116.000 C 116.055 37.700 116.100 37.655 116.100 37.600 V 31.600 C 116.100 31.545 116.055 31.500 116.000 31.500 H 113.100 C 113.000 31.500 113.100 31.600 113.100 31.500 V 25.100 C 113.100 22.449 112.402 19.845 111.077 17.550 C 109.752 15.255 107.845 13.348 105.550 12.023 C 103.255 10.698 100.651 10.000 98.000 10.000 H 34.000 C 31.349 10.000 28.745 10.698 26.450 12.023 C 24.155 13.348 22.248 15.255 20.923 17.550 C 19.598 19.845 18.900 22.449 18.900 25.100 C 18.900 25.045 18.945 25.000 19.000 25.000 H 16.000 C 15.945 25.000 15.900 25.045 15.900 25.100 V 37.100 C 15.900 37.155 15.945 37.200 16.000 37.200 H 18.900 C 19.000 37.200 18.900 37.100 18.900 37.200 V 49.100 V 55.500 C 18.900 55.600 19.000 55.500 18.900 55.500 H 16.000 C 15.945 55.500 15.900 55.545 15.900 55.600 V 61.600 C 15.900 61.655 15.945 61.700 16.000 61.700 H 18.900 C 19.000 61.700 18.900 61.600 18.900 61.700 V 67.500 C 18.900 67.600 19.000 67.500 18.900 67.500 H 16.000 C 15.945 67.500 15.900 67.545 15.900 67.600 V 73.600 C 15.900 73.655 15.945 73.700 16.000 73.700 H 18.900 C 19.000 73.700 18.900 73.600 18.900 73.700 V 79.500 C 18.900 79.600 19.000 79.500 18.900 79.500 H 16.000 C 15.945 79.500 15.900 79.545 15.900 79.600 V 85.600 C 15.900 85.655 15.945 85.700 16.000 85.700 H 18.900 C 19.000 85.700 18.900 85.600 18.900 85.700 V 91.500 C 18.900 91.600 19.000 91.500 18.900 91.500 H 16.000 C 15.945 91.500 15.900 91.545 15.900 91.600 V 97.600 C 15.900 97.655 15.945 97.700 16.000 97.700 H 18.900 C 19.000 97.700 18.900 97.600 18.900 97.700 V 104.100 C 18.900 104.155 18.945 104.200 19.000 104.200 Z" stroke="rgb(0,0,0)" stroke-width="0.20" />
</g>
<g id="p-4" style="fill:none;stroke-linecap:round;stroke-linejoin:round;">
  <path d="M 214.700 104.200 H 206.800 C 206.700 104.200 206.800 104.100 206.800 104.200 V 107.100 C 206.800 107.155 206.755 107.200 206.700 107.200 H 200.700 C 200.645 107.200 200.600 107.155 200.600 107.100 V 104.200 C 200.600 104.100 200.700 104.200 200.600 104.200 H 194.800 C 194.700 104.200 194.800 104.100 194.800 104.200 V 107.100 C 194.800 107.155 194.755 107.200 194.700 107.200 H 188.700 C 188.645 107.200 188.600 107.155 188.600 107.100 V 104.200 C 188.600 104.100 188.700 104.200 188.600 104.200 H 182.800 C 182.700 104.200 182.800 104.100 182.800 104.200 V 107.100 C 182.800 107.155 182.755 107.200 182.700 107.200 H 176.700 C 176.645 107.200 176.600 107.155 176.600 107.100 V 104.200 C 176.600 104.100 176.700 104.200 176.600 104.200 H 170.800 C 170.700 104.200 170.800 104.100 170.800 104.200 V 107.100 C 170.800 107.155 170.755 107.200 170.700 107.200 H 164.700 C 164.645 107.200 164.600 107.155 164.600 107.100 V 104.200 C 164.600 104.100 164.700 104.200 164.600 104.200 H 158.800 C 158.700 104.200 158.800 104.100 158.800 104.200 V 107.100 C 158.800 107.155 158.755 107.200 158.700 107.200 H 152.700 C 152.645 107.200 152.600 107.155 152.600 107.100 V 104.200 C 152.600 104.100 152.700 104.200 152.600 104.200 H 146.800 C 146.700 104.200 146.800 104.100 146.800 104.200 V 107.100 C 146.800 107.155 146.755 107.200 146.700 107.200 H 140.700 C 140.645 107.200 140.600 107.155 140.600 107.100 V 104.200 C 140.600 104.100 140.700 104.200 140.600 104.200 H 134.800 C 134.700 104.200 134.800 104.100 134.800 104.200 V 107.100 C 134.800 107.155 134.755 107.200 134.700 107.200 H 128.700 C 128.645 107.200 128.600 107.155 128.600 107.100 V 104.200 C 128.600 104.100 128.700 104.200 128.600 104.200 H 120.700 C 120.645 104.200 120.600 104.155 120.600 104.100 V 97.700 C 120.600 97.600 120.700 97.700 120.600 97.700 H 117.700 C 117.645 97.700 117.600 97.655 117.600 97.600 V 91.600 C 117.600 91.545 117.645 91.500 117.700 91.500 H 120.600 C 120.700 91.500 120.600 91.600 120.600 91.500 V 85.700 C 120.600 85.600 120.700 85.700 120.600 85.700 H 117.700 C 117.645 85.700 117.600 85.655 117.600 85.600 V 79.600 C 117.600 79.545 117.645 79.500 117.700 79.500 H 120.600 C 120.700 79.500 120.600 79.600 120.600 79.500 V 73.700 C 120.600 73.600 120.700 73.700 120.600 73.700 H 117.700 C 117.645 73.700 117.600 73.655 117.600 73.600 V 67.600 C 117.600 67.545 117.645 67.500 117.700 67.500 H 120.600 C 120.700 67.500 120.600 67.600 120.600 67.500 V 61.700 C 120.600 61.600 120.700 61.700 120.600 61.700 H 117.700 C 117.645 61.700 117.600 61.655 117.600 61.600 V 55.600 C 117.600 55.545 117.645 55.500 117.700 55.500 H 120.600 C 120.700 55.500 120.600 55.600 120.600 55.500 V 49.700 C 120.600 49.600 120.700 49.700 120.600 49.700 H 117.700 C 117.645 49.700 117.600 49.655 117.600 49.600 V 43.600 C 117.600 43.545 117.645 43.500 117.700 43.500 H 120.600 C 120.700 43.500 120.600 43.600 120.600 43.500 V 37.700 C 120.600 37.600 120.700 37.700 120.600 37.700 H 117.700 C 117.645 37.700 117.600 37.655 117.600 37.600 V 31.600 C 117.600 31.545 117.645 31.500 117.700 31.500 H 120.600 C 120.700 31.500 120.600 31.600 120.600 31.500 V 25.100 C 120.600 22.449 121.298 19.845 122.623 17.550 C 123.948 15.255 125.855 13.348 128.150 12.023 C 130.445 10.698 133.049 10.000 135.700 10.000 H 199.700 C 202.351 10.000 204.955 10.698 207.250 12.023 C 209.545 13.348 211.452 15.255 212.777 17.550 C 214.102 19.845 214.800 22.449 214.800 25.100 C 214.800 25.045 214.755 25.000 214.700 25.000 H 217.700 C 217.755 25.000 217.800 25.045 217.800 25.100 V 37.100 C 217.800 37.155 217.755 37.200 217.700 37.200 H 214.800 C 214.700 37.200 214.800 37.100 214.800 37.200 V 49.100 V 55.500 C 214.800 55.600 214.700 55.500 214.800 55.500 H 217.700 C 217.755 55.500 217.800 55.545 217.800 55.600 V 61.600 C 217.800 61.655 217.755 61.700 217.700 61.700 H 214.800 C 214.700 61.700 214.800 61.600 214.800 61.700 V 67.500 C 214.800 67.600 214.700 67.500 214.800 67.500 H 217.700 C 217.755 67.500 217.800 67.545 217.800 67.600 V 73.600 C 217.800 73.655 217.755 73.700 217.700 73.700 H 214.800 C 214.700 73.700 214.800 73.600 214.800 73.700 V 79.500 C 214.800 79.600 214.700 79.500 214.800 79.500 H 217.700 C 217.755 79.500 217.800 79.545 217.800 79.600 V 85.600 C 217.800 85.655 217.755 85.700 217.700 85.700 H 214.800 C 214.700 85.700 214.800 85.600 214.800 85.700 V 91.500 C 214.800 91.600 214.700 91.500 214.800 91.500 H 217.700 C 217.755 91.500 217.800 91.545 217.800 91.600 V 97.600 C 217.800 97.655 217.755 97.700 217.700 97.700 H 214.800 C 214.700 97.700 214.800 97.600 214.800 97.700 V 104.100 C 214.800 104.155 214.755 104.200 214.700 104.200 Z" stroke="rgb(0,0,0)" stroke-width="0.20" />
</g>
<g id="p-5" style="fill:none;stroke-linecap:round;stroke-linejoin:round;">
  <path d="M 222.400 104.200 H 230.300 C 230.400 104.200 230.300 104.100 230.300 104.200 V 107.100 C 230.300 107.155 230.345 107.200 230.400 107.200 H 236.400 C 236.455 107.200 236.500 107.155 236.500 107.100 V 104.200 C 236.500 104.100 236.400 104.200 236.500 104.200 H 242.300 C 242.400 104.200 242.300 104.100 242.300 104.200 V 107.100 C 242.300 107.155 242.345 107.200 242.400 107.200 H 248.400 C 248.455 107.200 248.500 107.155 248.500 107.100 V 104.200 C 248.500 104.100 248.400 104.200 248.500 104.200 H 254.300 C 254.400 104.200 254.300 104.100 254.300 104.200 V 107.100 C 254.300 107.155 254.345 107.200 254.400 107.200 H 260.400 C 260.455 107.200 260.500 107.155 260.500 107.100 V 104.200 C 260.500 104.100 260.400 104.200 260.500 104.200 H 266.300 C 266.400 104.200 266.300 104.100 266.300 104.200 V 107.100 C 266.300 107.155 266.345 107.200 266.400 107.200 H 272.400 C 272.455 107.200 272.500 107.155 272.500 107.100 V 104.200 C 272.500 104.100 272.400 104.200 272.500 104.200 H 278.300 C 278.400 104.200 278.300 104.100 278.300 104.200 V 107.100 C 278.300 107.155 278.345 107.200 278.400 107.200 H 284.400 C 284.455 107.200 284.500 107.155 284.500 107.100 V 104.200 C 284.500 104.100 284.400 104.200 284.500 104.200 H 290.300 C 290.400 104.200 290.300 104.100 290.300 104.200 V 107.100 C 290.300 107.155 290.345 107.200 290.400 107.200 H 296.400 C 296.455 107.200 296.500 107.155 296.500 107.100 V 104.200 C 296.500 104.100 296.400 104.200 296.500 104.200 H 302.300 C 302.400 104.200 302.300 104.100 302.300 104.200 V 107.100 C 302.300 107.155 302.345 107.200 302.400 107.200 H 308.400 C 308.455 107.200 308.500 107.155 308.500 107.100 V 104.200 C 308.500 104.100 308.400 104.200 308.500 104.200 H 316.400 H 319.400 C 319.455 104.200 319.500 104.155 319.500 104.100 V 97.600 C 319.500 97.545 319.455 97.500 319.400 97.500 H 316.500 C 316.400 97.500 316.500 97.600 316.500 97.500 V 91.700 C 316.500 91.600 316.400 91.700 316.500 91.700 H 319.400 C 319.455 91.700 319.500 91.655 319.500 91.600 V 85.600 C 319.500 85.545 319.455 85.500 319.400 85.500 H 316.500 C 316.400 85.500 316.500 85.600 316.500 85.500 V 79.700 C 316.500 79.600 316.400 79.700 316.500 79.700 H 319.400 C 319.455 79.700 319.500 79.655 319.500 79.600 V 73.600 C 319.500 73.545 319.455 73.500 319.400 73.500 H 316.500 C 316.400 73.500 316.500 73.600 316.500 73.500 V 67.700 C 316.500 67.600 316.400 67.700 316.500 67.700 H 319.400 C 319.455 67.700 319.500 67.655 319.500 67.600 V 61.600 C 319.500 61.545 319.455 61.500 319.400 61.500 H 316.500 C 316.400 61.500 316.500 61.600 316.500 61.500 V 55.700 C 316.500 55.600 316.400 55.700 316.500 55.700 H 319.400 C 319.455 55.700 319.500 55.655 319.500 55.600 V 49.100 C 319.500 49.045 319.455 49.000 319.400 49.000 H 316.400 H 222.400 H 219.400 C 219.345 49.000 219.300 49.045 219.300 49.100 V 55.600 C 219.300 55.655 219.345 55.700 219.400 55.700 H 222.300 C 222.400 55.700 222.300 55.600 222.300 55.700 V 61.500 C 222.300 61.600 222.400 61.500 222.300 61.500 H 219.400 C 219.345 61.500 219.300 61.545 219.300 61.600 V 67.600 C 219.300 67.655 219.345 67.700 219.400 67.700 H 222.300 C 222.400 67.700 222.300 67.600 222.300 67.700 V 73.500 C 222.300 73.600 222.400 73.500 222.300 73.500 H 219.400 C 219.345 73.500 219.300 73.545 219.300 73.600 V 79.600 C 219.300 79.655 219.345 79.700 219.400 79.700 H 222.300 C 222.400 79.700 222.300 79.600 222.300 79.700 V 85.500 C 222.300 85.600 222.400 85.500 222.300 85.500 H 219.400 C 219.345 85.500 219.300 85.545 219.300 85.600 V 91.600 C 219.300 91.655 219.345 91.700 219.400 91.700 H 222.300 C 222.400 91.700 222.300 91.600 222.300 91.700 V 97.500 C 222.300 97.600 222.400 97.500 222.300 97.500 H 219.400 C 219.345 97.500 219.300 97.545 219.300 97.600 V 104.100 C 219.300 104.155 219.345 104.200 219.400 104.200 H 222.400 Z" stroke="rgb(0,0,0)" stroke-width="0.20" />
</g>
</svg>