<?xml version="1.0" encoding="UTF-8"?>
<svg xmlns="http://www.w3.org/2000/svg" xmlns:xlink="http://www.w3.org/1999/xlink" width="619.482944pt" height="510.236208pt" viewBox="0 0 619.482944 510.236208" version="1.1">
<g id="surface1">
<path style=" stroke:none;fill-rule:nonzero;fill:rgb(100%,100%,100%);fill-opacity:1;" d="M 0 510.234375 L 1756.015625 510.234375 L 1756.015625 -936.105469 L 0 -936.105469 Z "/>
<path style="fill:none;stroke-width:0.1;stroke-linecap:butt;stroke-linejoin:miter;stroke:rgb(0%,0%,0%);stroke-opacity:1;stroke-miterlimit:10;" d="M -150.539816 0 L -147.539827 0 C -147.512266 0 -147.490218 0.0220486 -147.490218 0.0496094 M -147.490218 0.0496094 L -147.490218 3.049599 C -147.490218 3.022038 -147.512266 2.999989 -147.539827 2.999989 M -147.539827 2.999989 L -144.539838 2.999989 C -144.567399 2.999989 -144.589447 3.022038 -144.589447 3.049599 M -144.589447 3.049599 L -144.589447 0.0496094 C -144.589447 0.0220486 -144.567399 0 -144.539838 0 M -144.539838 0 L -141.539849 0 C -141.512288 0 -141.49024 0.0220486 -141.49024 0.0496094 M -141.49024 0.0496094 L -141.49024 3.049599 C -141.49024 3.022038 -141.512288 2.999989 -141.539849 2.999989 M -141.539849 2.999989 L -138.53986 2.999989 C -138.567421 2.999989 -138.589469 3.022038 -138.589469 3.049599 M -138.589469 3.049599 L -138.589469 0.0496094 C -138.589469 0.0220486 -138.567421 0 -138.53986 0 M -138.53986 0 L -135.539871 0 C -135.51231 0 -135.490261 0.0220486 -135.490261 0.0496094 M -135.490261 0.0496094 L -135.490261 3.049599 C -135.490261 3.022038 -135.51231 2.999989 -135.539871 2.999989 M -135.539871 2.999989 L -132.539881 2.999989 C -132.567442 2.999989 -132.589491 3.022038 -132.589491 3.049599 M -132.589491 3.049599 L -132.589491 0.0496094 C -132.589491 0.0220486 -132.567442 0 -132.539881 0 M -132.539881 0 L -129.539892 0 C -129.512332 0 -129.490283 0.0220486 -129.490283 0.0496094 M -129.490283 0.0496094 L -129.490283 3.049599 C -129.490283 3.022038 -129.512332 2.999989 -129.539892 2.999989 M -129.539892 2.999989 L -126.539903 2.999989 C -126.567464 2.999989 -126.589513 3.022038 -126.589513 3.049599 M -126.589513 3.049599 L -126.589513 0.0496094 C -126.589513 0.0220486 -126.567464 0 -126.539903 0 M -126.539903 0 L -123.539914 0 C -123.512353 0 -123.490305 0.0220486 -123.490305 0.0496094 M -123.490305 0.0496094 L -123.490305 3.049599 C -123.490305 3.022038 -123.512353 2.999989 -123.539914 2.999989 M -123.539914 2.999989 L -120.539925 2.999989 C -120.567486 2.999989 -120.589534 3.022038 -120.589534 3.049599 M -120.589534 3.049599 L -120.589534 0.0496094 C -120.589534 0.0220486 -120.567486 0 -120.539925 0 M -120.539925 0 L -117.539936 0 C -117.512375 0 -117.490326 0.0220486 -117.490326 0.0496094 M -117.490326 0.0496094 L -117.490326 3.049599 C -117.490326 3.022038 -117.512375 2.999989 -117.539936 2.999989 M -117.539936 2.999989 L -114.539947 2.999989 C -114.567507 2.999989 -114.589556 3.022038 -114.589556 3.049599 M -114.589556 3.049599 L -114.589556 0.0496094 C -114.589556 0.0220486 -114.567507 0 -114.539947 0 M -114.539947 0 L -111.539957 0 C -111.512397 0 -111.490348 0.0220486 -111.490348 0.0496094 M -111.490348 0.0496094 L -111.490348 3.049599 C -111.490348 3.022038 -111.512397 2.999989 -111.539957 2.999989 M -111.539957 2.999989 L -108.539968 2.999989 C -108.567529 2.999989 -108.589578 3.022038 -108.589578 3.049599 M -108.589578 3.049599 L -108.589578 0.0496094 C -108.589578 0.0220486 -108.567529 0 -108.539968 0 M -108.539968 0 L -105.539979 0 M -105.269884 56.099935 L -105.269884 38.400412 M -105.269884 35.400423 L -105.269884 2.999989 M -103.770578 0 L -103.770578 17.699523 M -103.770578 20.699512 L -103.770578 53.099946 M -102.269894 56.099935 L -102.269894 38.400412 M -102.269894 35.400423 L -102.269894 2.999989 M -100.770589 0 L -100.770589 17.699523 M -100.770589 20.699512 L -100.770589 53.099946 M -99.269905 56.099935 L -99.269905 38.400412 M -99.269905 35.400423 L -99.269905 2.999989 M -97.7706 0.000000000000028422 L -97.7706 17.699523 M -97.7706 20.699512 L -97.7706 53.099946 M -96.269916 56.099935 L -96.269916 38.400412 M -96.269916 35.400423 L -96.269916 2.999989 M -94.770611 0.000000000000028422 L -94.770611 17.699523 M -94.770611 20.699512 L -94.770611 53.099946 M -93.269927 56.099935 L -93.269927 38.400412 M -93.269927 35.400423 L -93.269927 2.999989 M -91.770621 0.000000000000028422 L -91.770621 17.699523 M -91.770621 20.699512 L -91.770621 53.099946 M -90.269938 56.099935 L -90.269938 38.400412 M -90.269938 35.400423 L -90.269938 2.999989 M -88.770632 0.000000000000028422 L -88.770632 17.699523 M -88.770632 20.699512 L -88.770632 53.099946 M -87.269949 56.099935 L -87.269949 38.400412 M -87.269949 35.400423 L -87.269949 2.999989 M -85.770643 0.000000000000028422 L -85.770643 17.699523 M -85.770643 20.699512 L -85.770643 53.099946 M -84.26996 56.099935 L -84.26996 38.400412 M -84.26996 35.400423 L -84.26996 2.999989 M -82.770654 0.000000000000028422 L -82.770654 17.699523 M -82.770654 20.699512 L -82.770654 53.099946 M -81.26997 56.099935 L -81.26997 38.400412 M -81.26997 35.400423 L -81.26997 2.999989 M -79.770665 0.000000000000028422 L -79.770665 17.699523 M -79.770665 20.699512 L -79.770665 53.099946 M -78.269981 56.099935 L -78.269981 38.400412 M -78.269981 35.400423 L -78.269981 2.999989 M -76.770676 0.000000000000028422 L -76.770676 17.699523 M -76.770676 20.699512 L -76.770676 53.099946 M -75.269992 56.099935 L -75.269992 38.400412 M -75.269992 35.400423 L -75.269992 2.999989 M -73.770687 0.000000000000028422 L -73.770687 17.699523 M -73.770687 20.699512 L -73.770687 53.099946 M -72.270003 56.099935 L -72.270003 38.400412 M -72.270003 35.400423 L -72.270003 2.999989 M -70.770697 0.000000000000028422 L -70.770697 17.699523 M -70.770697 20.699512 L -70.770697 53.099946 M -69.270014 56.099935 L -69.270014 38.400412 M -69.270014 35.400423 L -69.270014 2.999989 M -67.770708 0.000000000000028422 L -67.770708 17.699523 M -67.770708 20.699512 L -67.770708 53.099946 M -66.270025 56.099935 L -66.270025 38.400412 M -66.270025 35.400423 L -66.270025 2.999989 M -64.770719 0.000000000000028422 L -64.770719 17.699523 M -64.770719 20.699512 L -64.770719 53.099946 M -63.270036 56.099935 L -63.270036 38.400412 M -63.270036 35.400423 L -63.270036 2.999989 M -61.77073 0.000000000000028422 L -61.77073 17.699523 M -61.77073 20.699512 L -61.77073 53.099946 M -60.270046 56.099935 L -60.270046 38.400412 M -60.270046 35.400423 L -60.270046 2.999989 M -58.770741 0.000000000000028422 L -58.770741 17.699523 M -58.770741 20.699512 L -58.770741 53.099946 M -57.270057 56.099935 L -57.270057 38.400412 M -57.270057 35.400423 L -57.270057 2.999989 M -55.770752 0.000000000000028422 L -55.770752 17.699523 M -55.770752 20.699512 L -55.770752 53.099946 M -54.270068 56.099935 L -54.270068 38.400412 M -54.270068 35.400423 L -54.270068 2.999989 M -52.769384 0.000000000000028422 L -52.769384 17.699523 M -52.769384 20.699512 L -52.769384 53.099946 M -51.270079 56.099935 L -51.270079 38.400412 M -51.270079 35.400423 L -51.270079 2.999989 M -49.769395 0.000000000000028422 L -49.769395 17.699523 M -49.769395 20.699512 L -49.769395 53.099946 M -48.27009 56.099935 L -48.27009 38.400412 M -48.27009 35.400423 L -48.27009 2.999989 M -46.769406 0.000000000000028422 L -46.769406 17.699523 M -46.769406 20.699512 L -46.769406 53.099946 M -45.270101 56.099935 L -45.270101 38.400412 M -45.270101 35.400423 L -45.270101 2.999989 M -43.769417 0.000000000000028422 L -43.769417 17.699523 M -43.769417 20.699512 L -43.769417 53.099946 M -42.270111 56.099935 L -42.270111 38.400412 M -42.270111 35.400423 L -42.270111 2.999989 M -40.769428 0.000000000000028422 L -40.769428 17.699523 M -40.769428 20.699512 L -40.769428 53.099946 M -39.270122 56.099935 L -39.270122 38.400412 M -39.270122 35.400423 L -39.270122 2.999989 M -37.769439 0.000000000000028422 L -37.769439 17.699523 M -37.769439 20.699512 L -37.769439 53.099946 M -36.270133 56.099935 L -36.270133 38.400412 M -36.270133 35.400423 L -36.270133 2.999989 M -34.76945 0.000000000000028422 L -34.76945 17.699523 M -34.76945 20.699512 L -34.76945 53.099946 M -33.270144 56.099935 L -33.270144 38.400412 M -33.270144 35.400423 L -33.270144 2.999989 M -31.76946 0.000000000000028422 L -31.76946 17.699523 M -31.76946 20.699512 L -31.76946 53.099946 M -30.270155 56.099935 L -30.270155 38.400412 M -30.270155 35.400423 L -30.270155 2.999989 M -28.769471 0.000000000000028422 L -28.769471 17.699523 M -28.769471 20.699512 L -28.769471 53.099946 M -105.539979 0 L -27.00007 0.000000000000028422 C -26.972509 0.000000000000028422 -26.950461 0.0220486 -26.950461 0.0496094 M -26.950461 0.0496094 L -26.950461 3.350011 C -26.950461 3.32245 -26.972509 3.300401 -27.00007 3.300401 M -27.00007 3.300401 L -14.400667 3.300401 C -14.428228 3.300401 -14.450276 3.32245 -14.450276 3.350011 M -14.450276 3.350011 L -14.450276 0.0496094 C -14.450276 -0.392741 -14.091986 -0.751031 -13.649636 -0.751031 C -13.280322 -0.751031 -12.981288 -0.451997 -12.981288 -0.0826823 C -12.981288 0.675239 -11.844406 0.675239 -11.844406 -0.0826823 C -11.844406 -0.451997 -11.545372 -0.751031 -11.176058 -0.751031 C -10.806743 -0.751031 -10.507709 -0.451997 -10.507709 -0.0826823 C -10.507709 0.675239 -9.370828 0.675239 -9.370828 -0.0826823 C -9.370828 -0.451997 -9.071793 -0.751031 -8.702479 -0.751031 C -8.333165 -0.751031 -8.034131 -0.451997 -8.034131 -0.0826823 C -8.034131 0.675239 -6.897249 0.675239 -6.897249 -0.0826823 C -6.897249 -0.451997 -6.598215 -0.751031 -6.228901 -0.751031 C -5.859586 -0.751031 -5.560552 -0.451997 -5.560552 -0.0826823 C -5.560552 0.675239 -4.423671 0.675239 -4.423671 -0.0826823 C -4.423671 -0.451997 -4.124636 -0.751031 -3.755322 -0.751031 C -3.312972 -0.751031 -2.954682 -0.392741 -2.954682 0.0496094 M -2.954682 0.0496094 L -2.954682 56.048947 C -2.954682 56.491298 -3.312972 56.849588 -3.755322 56.849588 C -4.124636 56.849588 -4.423671 56.550553 -4.423671 56.181239 C -4.423671 55.423318 -5.560552 55.423318 -5.560552 56.181239 C -5.560552 56.550553 -5.859586 56.849588 -6.228901 56.849588 C -6.598215 56.849588 -6.897249 56.550553 -6.897249 56.181239 C -6.897249 55.423318 -8.034131 55.423318 -8.034131 56.181239 C -8.034131 56.550553 -8.333165 56.849588 -8.702479 56.849588 C -9.071793 56.849588 -9.370828 56.550553 -9.370828 56.181239 C -9.370828 55.423318 -10.507709 55.423318 -10.507709 56.181239 C -10.507709 56.550553 -10.806743 56.849588 -11.176058 56.849588 C -11.545372 56.849588 -11.844406 56.550553 -11.844406 56.181239 C -11.844406 55.423318 -12.981288 55.423318 -12.981288 56.181239 C -12.981288 56.550553 -13.280322 56.849588 -13.649636 56.849588 C -14.091986 56.849588 -14.450276 56.491298 -14.450276 56.048947 M -14.450276 56.048947 L -14.450276 52.748546 C -14.450276 52.776107 -14.428228 52.798155 -14.400667 52.798155 M -14.400667 52.798155 L -27.00007 52.798155 C -26.972509 52.798155 -26.950461 52.776107 -26.950461 52.748546 M -26.950461 52.748546 L -26.950461 56.048947 C -26.950461 56.076508 -26.972509 56.098557 -27.00007 56.098557 M -27.00007 56.098557 L -66.270025 56.098557 M -66.270025 56.098557 L -66.270025 56.098557 M -66.270025 56.098557 L -105.539979 56.098557 M -105.539979 56.098557 L -108.539968 56.098557 C -108.567529 56.098557 -108.589578 56.076508 -108.589578 56.048947 M -108.589578 56.048947 L -108.589578 53.048958 C -108.589578 53.076519 -108.567529 53.098568 -108.539968 53.098568 M -108.539968 53.098568 L -111.539957 53.098568 C -111.512397 53.098568 -111.490348 53.076519 -111.490348 53.048958 M -111.490348 53.048958 L -111.490348 56.048947 C -111.490348 56.076508 -111.512397 56.098557 -111.539957 56.098557 M -111.539957 56.098557 L -114.539947 56.098557 C -114.567507 56.098557 -114.589556 56.076508 -114.589556 56.048947 M -114.589556 56.048947 L -114.589556 53.048958 C -114.589556 53.076519 -114.567507 53.098568 -114.539947 53.098568 M -114.539947 53.098568 L -117.539936 53.098568 C -117.512375 53.098568 -117.490326 53.076519 -117.490326 53.048958 M -117.490326 53.048958 L -117.490326 56.048947 C -117.490326 56.076508 -117.512375 56.098557 -117.539936 56.098557 M -117.539936 56.098557 L -120.539925 56.098557 C -120.567486 56.098557 -120.589534 56.076508 -120.589534 56.048947 M -120.589534 56.048947 L -120.589534 53.048958 C -120.589534 53.076519 -120.567486 53.098568 -120.539925 53.098568 M -120.539925 53.098568 L -123.539914 53.098568 C -123.512353 53.098568 -123.490305 53.076519 -123.490305 53.048958 M -123.490305 53.048958 L -123.490305 56.048947 C -123.490305 56.076508 -123.512353 56.098557 -123.539914 56.098557 M -123.539914 56.098557 L -126.539903 56.098557 C -126.567464 56.098557 -126.589513 56.076508 -126.589513 56.048947 M -126.589513 56.048947 L -126.589513 53.048958 C -126.589513 53.076519 -126.567464 53.098568 -126.539903 53.098568 M -126.539903 53.098568 L -129.539892 53.098568 C -129.512332 53.098568 -129.490283 53.076519 -129.490283 53.048958 M -129.490283 53.048958 L -129.490283 56.048947 C -129.490283 56.076508 -129.512332 56.098557 -129.539892 56.098557 M -129.539892 56.098557 L -132.539881 56.098557 C -132.567442 56.098557 -132.589491 56.076508 -132.589491 56.048947 M -132.589491 56.048947 L -132.589491 53.048958 C -132.589491 53.076519 -132.567442 53.098568 -132.539881 53.098568 M -132.539881 53.098568 L -135.539871 53.098568 C -135.51231 53.098568 -135.490261 53.076519 -135.490261 53.048958 M -135.490261 53.048958 L -135.490261 56.048947 C -135.490261 56.076508 -135.51231 56.098557 -135.539871 56.098557 M -135.539871 56.098557 L -138.53986 56.098557 C -138.567421 56.098557 -138.589469 56.076508 -138.589469 56.048947 M -138.589469 56.048947 L -138.589469 53.048958 C -138.589469 53.076519 -138.567421 53.098568 -138.53986 53.098568 M -138.53986 53.098568 L -141.539849 53.098568 C -141.512288 53.098568 -141.49024 53.076519 -141.49024 53.048958 M -141.49024 53.048958 L -141.49024 56.048947 C -141.49024 56.076508 -141.512288 56.098557 -141.539849 56.098557 M -141.539849 56.098557 L -144.539838 56.098557 C -144.567399 56.098557 -144.589447 56.076508 -144.589447 56.048947 M -144.589447 56.048947 L -144.589447 53.048958 C -144.589447 53.076519 -144.567399 53.098568 -144.539838 53.098568 M -144.539838 53.098568 L -147.539827 53.098568 C -147.512266 53.098568 -147.490218 53.076519 -147.490218 53.048958 M -147.490218 53.048958 L -147.490218 56.048947 C -147.490218 56.076508 -147.512266 56.098557 -147.539827 56.098557 M -147.539827 56.098557 L -150.539816 56.098557 C -150.567377 56.098557 -150.589426 56.076508 -150.589426 56.048947 M -150.589426 56.048947 L -150.589426 53.048958 M -150.589426 53.048958 L -150.589426 47.549208 C -150.589426 47.576769 -150.567377 47.598817 -150.539816 47.598817 M -150.539816 47.598817 L -153.539805 47.598817 C -153.567366 47.598817 -153.589415 47.576769 -153.589415 47.549208 M -153.589415 47.549208 L -153.589415 44.549219 C -153.589415 44.521658 -153.567366 44.499609 -153.539805 44.499609 M -153.539805 44.499609 L -150.539816 44.499609 C -150.567377 44.499609 -150.589426 44.521658 -150.589426 44.549219 M -150.589426 44.549219 L -150.589426 41.54923 C -150.589426 41.57679 -150.567377 41.598839 -150.539816 41.598839 M -150.539816 41.598839 L -153.539805 41.598839 C -153.567366 41.598839 -153.589415 41.57679 -153.589415 41.54923 M -153.589415 41.54923 L -153.589415 38.54924 C -153.589415 38.52168 -153.567366 38.499631 -153.539805 38.499631 M -153.539805 38.499631 L -150.539816 38.499631 C -150.567377 38.499631 -150.589426 38.52168 -150.589426 38.54924 M -150.589426 38.54924 L -150.589426 35.549251 C -150.589426 35.576812 -150.567377 35.598861 -150.539816 35.598861 M -150.539816 35.598861 L -153.539805 35.598861 C -153.567366 35.598861 -153.589415 35.576812 -153.589415 35.549251 M -153.589415 35.549251 L -153.589415 32.549262 C -153.589415 32.521701 -153.567366 32.499653 -153.539805 32.499653 M -153.539805 32.499653 L -150.539816 32.499653 C -150.567377 32.499653 -150.589426 32.521701 -150.589426 32.549262 M -150.589426 32.549262 L -150.589426 29.549273 C -150.589426 29.576834 -150.567377 29.598882 -150.539816 29.598882 M -150.539816 29.598882 L -153.539805 29.598882 C -153.567366 29.598882 -153.589415 29.576834 -153.589415 29.549273 M -153.589415 29.549273 L -153.589415 26.549284 C -153.589415 26.521723 -153.567366 26.499674 -153.539805 26.499674 M -153.539805 26.499674 L -150.539816 26.499674 C -150.567377 26.499674 -150.589426 26.521723 -150.589426 26.549284 M -150.589426 26.549284 L -150.589426 23.549295 C -150.589426 23.576855 -150.567377 23.598904 -150.539816 23.598904 M -150.539816 23.598904 L -153.539805 23.598904 C -153.567366 23.598904 -153.589415 23.576855 -153.589415 23.549295 M -153.589415 23.549295 L -153.589415 20.549306 C -153.589415 20.521745 -153.567366 20.499696 -153.539805 20.499696 M -153.539805 20.499696 L -150.539816 20.499696 C -150.567377 20.499696 -150.589426 20.521745 -150.589426 20.549306 M -150.589426 20.549306 L -150.589426 17.549316 C -150.589426 17.576877 -150.567377 17.598926 -150.539816 17.598926 M -150.539816 17.598926 L -153.539805 17.598926 C -153.567366 17.598926 -153.589415 17.576877 -153.589415 17.549316 M -153.589415 17.549316 L -153.589415 14.549327 C -153.589415 14.521766 -153.567366 14.499718 -153.539805 14.499718 M -153.539805 14.499718 L -150.539816 14.499718 C -150.567377 14.499718 -150.589426 14.521766 -150.589426 14.549327 M -150.589426 14.549327 L -150.589426 11.549338 C -150.589426 11.576899 -150.567377 11.598947 -150.539816 11.598947 M -150.539816 11.598947 L -153.539805 11.598947 C -153.567366 11.598947 -153.589415 11.576899 -153.589415 11.549338 M -153.589415 11.549338 L -153.589415 8.549349 C -153.589415 8.521788 -153.567366 8.49974 -153.539805 8.49974 M -153.539805 8.49974 L -150.539816 8.49974 C -150.567377 8.49974 -150.589426 8.521788 -150.589426 8.549349 M -150.589426 8.549349 L -150.589426 3.049599 M -150.589426 3.049599 L -150.589426 0.0496094 C -150.589426 0.0220486 -150.567377 0 -150.539816 0 M 1.599734 1.599902 L 4.599724 1.599902 M 4.599724 1.599902 L 10.099474 1.599902 C 10.127035 1.599902 10.149083 1.621951 10.149083 1.649512 M 10.149083 1.649512 L 10.149083 4.649501 C 10.149083 4.62194 10.127035 4.599891 10.099474 4.599891 M 10.099474 4.599891 L 13.099463 4.599891 C 13.071902 4.599891 13.049854 4.62194 13.049854 4.649501 M 13.049854 4.649501 L 13.049854 1.649512 C 13.049854 1.621951 13.071902 1.599902 13.099463 1.599902 M 13.099463 1.599902 L 16.099452 1.599902 C 16.127013 1.599902 16.149062 1.621951 16.149062 1.649512 M 16.149062 1.649512 L 16.149062 4.649501 C 16.149062 4.62194 16.127013 4.599891 16.099452 4.599891 M 16.099452 4.599891 L 19.099441 4.599891 C 19.071881 4.599891 19.049832 4.62194 19.049832 4.649501 M 19.049832 4.649501 L 19.049832 1.649512 C 19.049832 1.621951 19.071881 1.599902 19.099441 1.599902 M 19.099441 1.599902 L 22.099431 1.599902 C 22.126991 1.599902 22.14904 1.621951 22.14904 1.649512 M 22.14904 1.649512 L 22.14904 4.649501 C 22.14904 4.62194 22.126991 4.599891 22.099431 4.599891 M 22.099431 4.599891 L 25.09942 4.599891 C 25.071859 4.599891 25.04981 4.62194 25.04981 4.649501 M 25.04981 4.649501 L 25.04981 1.649512 C 25.04981 1.621951 25.071859 1.599902 25.09942 1.599902 M 25.09942 1.599902 L 28.099409 1.599902 C 28.12697 1.599902 28.149018 1.621951 28.149018 1.649512 M 28.149018 1.649512 L 28.149018 4.649501 C 28.149018 4.62194 28.12697 4.599891 28.099409 4.599891 M 28.099409 4.599891 L 31.099398 4.599891 C 31.071837 4.599891 31.049789 4.62194 31.049789 4.649501 M 31.049789 4.649501 L 31.049789 1.649512 C 31.049789 1.621951 31.071837 1.599902 31.099398 1.599902 M 31.099398 1.599902 L 34.099387 1.599902 C 34.126948 1.599902 34.148997 1.621951 34.148997 1.649512 M 34.148997 1.649512 L 34.148997 4.649501 C 34.148997 4.62194 34.126948 4.599891 34.099387 4.599891 M 34.099387 4.599891 L 37.099376 4.599891 C 37.071816 4.599891 37.049767 4.62194 37.049767 4.649501 M 37.049767 4.649501 L 37.049767 1.649512 C 37.049767 1.621951 37.071816 1.599902 37.099376 1.599902 M 37.099376 1.599902 L 40.099366 1.599902 C 40.126926 1.599902 40.148975 1.621951 40.148975 1.649512 M 40.148975 1.649512 L 40.148975 4.649501 C 40.148975 4.62194 40.126926 4.599891 40.099366 4.599891 M 40.099366 4.599891 L 43.099355 4.599891 C 43.071794 4.599891 43.049745 4.62194 43.049745 4.649501 M 43.049745 4.649501 L 43.049745 1.649512 C 43.049745 1.621951 43.071794 1.599902 43.099355 1.599902 M 43.099355 1.599902 L 46.099344 1.599902 C 46.126905 1.599902 46.148953 1.621951 46.148953 1.649512 M 46.148953 1.649512 L 46.148953 4.649501 C 46.148953 4.62194 46.126905 4.599891 46.099344 4.599891 M 46.099344 4.599891 L 49.099333 4.599891 C 49.071772 4.599891 49.049724 4.62194 49.049724 4.649501 M 49.049724 4.649501 L 49.049724 1.649512 C 49.049724 1.621951 49.071772 1.599902 49.099333 1.599902 M 49.099333 1.599902 L 54.599083 1.599902 M 54.599083 1.599902 L 57.599073 1.599902 C 57.626633 1.599902 57.648682 1.621951 57.648682 1.649512 M 57.648682 1.649512 L 57.648682 4.649501 M 57.648682 4.649501 L 57.648682 10.149251 C 57.648682 10.176812 57.626633 10.198861 57.599073 10.198861 M 57.599073 10.198861 L 54.599083 10.198861 C 54.626644 10.198861 54.648693 10.176812 54.648693 10.149251 M 54.648693 10.149251 L 54.648693 13.14924 C 54.648693 13.12168 54.626644 13.099631 54.599083 13.099631 M 54.599083 13.099631 L 57.599073 13.099631 C 57.626633 13.099631 57.648682 13.12168 57.648682 13.14924 M 57.648682 13.14924 L 57.648682 16.14923 C 57.648682 16.17679 57.626633 16.198839 57.599073 16.198839 M 57.599073 16.198839 L 54.599083 16.198839 C 54.626644 16.198839 54.648693 16.17679 54.648693 16.14923 M 54.648693 16.14923 L 54.648693 19.149219 C 54.648693 19.121658 54.626644 19.099609 54.599083 19.099609 M 54.599083 19.099609 L 57.599073 19.099609 C 57.626633 19.099609 57.648682 19.121658 57.648682 19.149219 M 57.648682 19.149219 L 57.648682 22.149208 C 57.648682 22.176769 57.626633 22.198817 57.599073 22.198817 M 57.599073 22.198817 L 54.599083 22.198817 C 54.626644 22.198817 54.648693 22.176769 54.648693 22.149208 M 54.648693 22.149208 L 54.648693 25.149197 C 54.648693 25.121636 54.626644 25.099588 54.599083 25.099588 M 54.599083 25.099588 L 57.599073 25.099588 C 57.626633 25.099588 57.648682 25.121636 57.648682 25.149197 M 57.648682 25.149197 L 57.648682 28.149186 C 57.648682 28.176747 57.626633 28.198796 57.599073 28.198796 M 57.599073 28.198796 L 54.599083 28.198796 C 54.626644 28.198796 54.648693 28.176747 54.648693 28.149186 M 54.648693 28.149186 L 54.648693 31.149175 C 54.648693 31.121615 54.626644 31.099566 54.599083 31.099566 M 54.599083 31.099566 L 57.599073 31.099566 C 57.626633 31.099566 57.648682 31.121615 57.648682 31.149175 M 57.648682 31.149175 L 57.648682 34.149164 C 57.648682 34.176725 57.626633 34.198774 57.599073 34.198774 M 57.599073 34.198774 L 54.599083 34.198774 C 54.626644 34.198774 54.648693 34.176725 54.648693 34.149164 M 54.648693 34.149164 L 54.648693 37.149154 C 54.648693 37.121593 54.626644 37.099544 54.599083 37.099544 M 54.599083 37.099544 L 57.599073 37.099544 C 57.626633 37.099544 57.648682 37.121593 57.648682 37.149154 M 57.648682 37.149154 L 57.648682 40.149143 C 57.648682 40.176704 57.626633 40.198752 57.599073 40.198752 M 57.599073 40.198752 L 54.599083 40.198752 C 54.626644 40.198752 54.648693 40.176704 54.648693 40.149143 M 54.648693 40.149143 L 54.648693 43.149132 C 54.648693 43.121571 54.626644 43.099523 54.599083 43.099523 M 54.599083 43.099523 L 57.599073 43.099523 C 57.626633 43.099523 57.648682 43.121571 57.648682 43.149132 M 57.648682 43.149132 L 57.648682 46.149121 C 57.648682 46.176682 57.626633 46.19873 57.599073 46.19873 M 57.599073 46.19873 L 54.599083 46.19873 C 54.626644 46.19873 54.648693 46.176682 54.648693 46.149121 M 54.648693 46.149121 L 54.648693 49.14911 C 54.648693 49.121549 54.626644 49.099501 54.599083 49.099501 M 54.599083 49.099501 L 57.599073 49.099501 C 57.626633 49.099501 57.648682 49.121549 57.648682 49.14911 M 57.648682 49.14911 L 57.648682 54.648861 M 57.648682 54.648861 L 57.648682 57.64885 C 57.648682 57.676411 57.626633 57.698459 57.599073 57.698459 M 57.599073 57.698459 L 54.599083 57.698459 M 54.599083 57.698459 L 49.099333 57.698459 C 49.071772 57.698459 49.049724 57.676411 49.049724 57.64885 M 49.049724 57.64885 L 49.049724 54.648861 C 49.049724 54.676421 49.071772 54.69847 49.099333 54.69847 M 49.099333 54.69847 L 46.099344 54.69847 C 46.126905 54.69847 46.148953 54.676421 46.148953 54.648861 M 46.148953 54.648861 L 46.148953 57.64885 C 46.148953 57.676411 46.126905 57.698459 46.099344 57.698459 M 46.099344 57.698459 L 43.099355 57.698459 C 43.071794 57.698459 43.049745 57.676411 43.049745 57.64885 M 43.049745 57.64885 L 43.049745 54.648861 C 43.049745 54.676421 43.071794 54.69847 43.099355 54.69847 M 43.099355 54.69847 L 40.099366 54.69847 C 40.126926 54.69847 40.148975 54.676421 40.148975 54.648861 M 40.148975 54.648861 L 40.148975 57.64885 C 40.148975 57.676411 40.126926 57.698459 40.099366 57.698459 M 40.099366 57.698459 L 37.099376 57.698459 C 37.071816 57.698459 37.049767 57.676411 37.049767 57.64885 M 37.049767 57.64885 L 37.049767 54.648861 C 37.049767 54.676421 37.071816 54.69847 37.099376 54.69847 M 37.099376 54.69847 L 34.099387 54.69847 C 34.126948 54.69847 34.148997 54.676421 34.148997 54.648861 M 34.148997 54.648861 L 34.148997 57.64885 C 34.148997 57.676411 34.126948 57.698459 34.099387 57.698459 M 34.099387 57.698459 L 31.099398 57.698459 C 31.071837 57.698459 31.049789 57.676411 31.049789 57.64885 M 31.049789 57.64885 L 31.049789 54.648861 C 31.049789 54.676421 31.071837 54.69847 31.099398 54.69847 M 31.099398 54.69847 L 28.099409 54.69847 C 28.12697 54.69847 28.149018 54.676421 28.149018 54.648861 M 28.149018 54.648861 L 28.149018 57.64885 C 28.149018 57.676411 28.12697 57.698459 28.099409 57.698459 M 28.099409 57.698459 L 25.09942 57.698459 C 25.071859 57.698459 25.04981 57.676411 25.04981 57.64885 M 25.04981 57.64885 L 25.04981 54.648861 C 25.04981 54.676421 25.071859 54.69847 25.09942 54.69847 M 25.09942 54.69847 L 22.099431 54.69847 C 22.126991 54.69847 22.14904 54.676421 22.14904 54.648861 M 22.14904 54.648861 L 22.14904 57.64885 C 22.14904 57.676411 22.126991 57.698459 22.099431 57.698459 M 22.099431 57.698459 L 19.099441 57.698459 C 19.071881 57.698459 19.049832 57.676411 19.049832 57.64885 M 19.049832 57.64885 L 19.049832 54.648861 C 19.049832 54.676421 19.071881 54.69847 19.099441 54.69847 M 19.099441 54.69847 L 16.099452 54.69847 C 16.127013 54.69847 16.149062 54.676421 16.149062 54.648861 M 16.149062 54.648861 L 16.149062 57.64885 C 16.149062 57.676411 16.127013 57.698459 16.099452 57.698459 M 16.099452 57.698459 L 13.099463 57.698459 C 13.071902 57.698459 13.049854 57.676411 13.049854 57.64885 M 13.049854 57.64885 L 13.049854 54.648861 C 13.049854 54.676421 13.071902 54.69847 13.099463 54.69847 M 13.099463 54.69847 L 10.099474 54.69847 C 10.127035 54.69847 10.149083 54.676421 10.149083 54.648861 M 10.149083 54.648861 L 10.149083 57.64885 C 10.149083 57.676411 10.127035 57.698459 10.099474 57.698459 M 10.099474 57.698459 L 4.599724 57.698459 M 4.599724 57.698459 L 1.599734 57.698459 C 1.572174 57.698459 1.550125 57.676411 1.550125 57.64885 M 1.550125 57.64885 L 1.550125 54.648861 M 1.550125 54.648861 L 1.550125 49.14911 C 1.550125 49.121549 1.572174 49.099501 1.599734 49.099501 M 1.599734 49.099501 L 4.599724 49.099501 C 4.572163 49.099501 4.550114 49.121549 4.550114 49.14911 M 4.550114 49.14911 L 4.550114 46.149121 C 4.550114 46.176682 4.572163 46.19873 4.599724 46.19873 M 4.599724 46.19873 L 1.599734 46.19873 C 1.572174 46.19873 1.550125 46.176682 1.550125 46.149121 M 1.550125 46.149121 L 1.550125 43.149132 C 1.550125 43.121571 1.572174 43.099523 1.599734 43.099523 M 1.599734 43.099523 L 4.599724 43.099523 C 4.572163 43.099523 4.550114 43.121571 4.550114 43.149132 M 4.550114 43.149132 L 4.550114 40.149143 C 4.550114 40.176704 4.572163 40.198752 4.599724 40.198752 M 4.599724 40.198752 L 1.599734 40.198752 C 1.572174 40.198752 1.550125 40.176704 1.550125 40.149143 M 1.550125 40.149143 L 1.550125 37.149154 C 1.550125 37.121593 1.572174 37.099544 1.599734 37.099544 M 1.599734 37.099544 L 4.599724 37.099544 C 4.572163 37.099544 4.550114 37.121593 4.550114 37.149154 M 4.550114 37.149154 L 4.550114 34.149164 C 4.550114 34.176725 4.572163 34.198774 4.599724 34.198774 M 4.599724 34.198774 L 1.599734 34.198774 C 1.572174 34.198774 1.550125 34.176725 1.550125 34.149164 M 1.550125 34.149164 L 1.550125 31.149175 C 1.550125 31.121615 1.572174 31.099566 1.599734 31.099566 M 1.599734 31.099566 L 4.599724 31.099566 C 4.572163 31.099566 4.550114 31.121615 4.550114 31.149175 M 4.550114 31.149175 L 4.550114 28.149186 C 4.550114 28.176747 4.572163 28.198796 4.599724 28.198796 M 4.599724 28.198796 L 1.599734 28.198796 C 1.572174 28.198796 1.550125 28.176747 1.550125 28.149186 M 1.550125 28.149186 L 1.550125 25.149197 C 1.550125 25.121636 1.572174 25.099588 1.599734 25.099588 M 1.599734 25.099588 L 4.599724 25.099588 C 4.572163 25.099588 4.550114 25.121636 4.550114 25.149197 M 4.550114 25.149197 L 4.550114 22.149208 C 4.550114 22.176769 4.572163 22.198817 4.599724 22.198817 M 4.599724 22.198817 L 1.599734 22.198817 C 1.572174 22.198817 1.550125 22.176769 1.550125 22.149208 M 1.550125 22.149208 L 1.550125 19.149219 C 1.550125 19.121658 1.572174 19.099609 1.599734 19.099609 M 1.599734 19.099609 L 4.599724 19.099609 C 4.572163 19.099609 4.550114 19.121658 4.550114 19.149219 M 4.550114 19.149219 L 4.550114 16.14923 C 4.550114 16.17679 4.572163 16.198839 4.599724 16.198839 M 4.599724 16.198839 L 1.599734 16.198839 C 1.572174 16.198839 1.550125 16.17679 1.550125 16.14923 M 1.550125 16.14923 L 1.550125 13.14924 C 1.550125 13.12168 1.572174 13.099631 1.599734 13.099631 M 1.599734 13.099631 L 4.599724 13.099631 C 4.572163 13.099631 4.550114 13.12168 4.550114 13.14924 M 4.550114 13.14924 L 4.550114 10.149251 C 4.550114 10.176812 4.572163 10.198861 4.599724 10.198861 M 4.599724 10.198861 L 1.599734 10.198861 C 1.572174 10.198861 1.550125 10.176812 1.550125 10.149251 M 1.550125 10.149251 L 1.550125 4.649501 M 1.550125 4.649501 L 1.550125 1.649512 C 1.550125 1.621951 1.572174 1.599902 1.599734 1.599902 " transform="matrix(2.834646,0.000000000000000694,0.000000000000000694,-2.834646,443.734851,501.730469)"/>
<path style="fill:none;stroke-width:0.1;stroke-linecap:butt;stroke-linejoin:miter;stroke:rgb(0%,0%,0%);stroke-opacity:1;stroke-miterlimit:10;" d="M -115.000022 -0.0000478028 L -109.500271 -0.0000478028 C -109.527832 -0.0000478028 -109.549881 0.0220008 -109.549881 0.0495616 M -109.549881 0.0495616 L -109.549881 -2.950428 C -109.549881 -2.977988 -109.527832 -3.000037 -109.500271 -3.000037 M -109.500271 -3.000037 L -106.500282 -3.000037 C -106.472721 -3.000037 -106.450673 -2.977988 -106.450673 -2.950428 M -106.450673 -2.950428 L -106.450673 0.0495616 C -106.450673 0.0220008 -106.472721 -0.0000478028 -106.500282 -0.0000478028 M -106.500282 -0.0000478028 L -103.500293 -0.0000478028 C -103.527854 -0.0000478028 -103.549902 0.0220008 -103.549902 0.0495616 M -103.549902 0.0495616 L -103.549902 -2.950428 C -103.549902 -2.977988 -103.527854 -3.000037 -103.500293 -3.000037 M -103.500293 -3.000037 L -100.500304 -3.000037 C -100.472743 -3.000037 -100.450694 -2.977988 -100.450694 -2.950428 M -100.450694 -2.950428 L -100.450694 0.0495616 C -100.450694 0.0220008 -100.472743 -0.0000478028 -100.500304 -0.0000478028 M -100.500304 -0.0000478028 L -97.500315 -0.0000478028 C -97.527875 -0.0000478028 -97.549924 0.0220008 -97.549924 0.0495616 M -97.549924 0.0495616 L -97.549924 -2.950428 C -97.549924 -2.977988 -97.527875 -3.000037 -97.500315 -3.000037 M -97.500315 -3.000037 L -94.500326 -3.000037 C -94.472765 -3.000037 -94.450716 -2.977988 -94.450716 -2.950428 M -94.450716 -2.950428 L -94.450716 0.0495616 C -94.450716 0.0220008 -94.472765 -0.0000478028 -94.500326 -0.0000478028 M -94.500326 -0.0000478028 L -91.500336 -0.0000478028 C -91.527897 -0.0000478028 -91.549946 0.0220008 -91.549946 0.0495616 M -91.549946 0.0495616 L -91.549946 -2.950428 C -91.549946 -2.977988 -91.527897 -3.000037 -91.500336 -3.000037 M -91.500336 -3.000037 L -88.500347 -3.000037 C -88.472786 -3.000037 -88.450738 -2.977988 -88.450738 -2.950428 M -88.450738 -2.950428 L -88.450738 0.0495616 C -88.450738 0.0220008 -88.472786 -0.0000478028 -88.500347 -0.0000478028 M -88.500347 -0.0000478028 L -85.500358 -0.0000478028 C -85.527919 -0.0000478028 -85.549967 0.0220008 -85.549967 0.0495616 M -85.549967 0.0495616 L -85.549967 -2.950428 C -85.549967 -2.977988 -85.527919 -3.000037 -85.500358 -3.000037 M -85.500358 -3.000037 L -82.500369 -3.000037 C -82.472808 -3.000037 -82.45076 -2.977988 -82.45076 -2.950428 M -82.45076 -2.950428 L -82.45076 0.0495616 C -82.45076 0.0220008 -82.472808 -0.0000478028 -82.500369 -0.0000478028 M -82.500369 -0.0000478028 L -79.50038 -0.0000478028 C -79.527941 -0.0000478028 -79.549989 0.0220008 -79.549989 0.0495616 M -79.549989 0.0495616 L -79.549989 -2.950428 C -79.549989 -2.977988 -79.527941 -3.000037 -79.50038 -3.000037 M -79.50038 -3.000037 L -76.500391 -3.000037 C -76.47283 -3.000037 -76.450781 -2.977988 -76.450781 -2.950428 M -76.450781 -2.950428 L -76.450781 0.0495616 C -76.450781 0.0220008 -76.47283 -0.0000478028 -76.500391 -0.0000478028 M -76.500391 -0.0000478028 L -73.500401 -0.0000478028 C -73.527962 -0.0000478028 -73.550011 0.0220008 -73.550011 0.0495616 M -73.550011 0.0495616 L -73.550011 -2.950428 C -73.550011 -2.977988 -73.527962 -3.000037 -73.500401 -3.000037 M -73.500401 -3.000037 L -70.500412 -3.000037 C -70.472852 -3.000037 -70.450803 -2.977988 -70.450803 -2.950428 M -70.450803 -2.950428 L -70.450803 0.0495616 C -70.450803 0.0220008 -70.472852 -0.0000478028 -70.500412 -0.0000478028 M -70.500412 -0.0000478028 L -65.000662 -0.0000478028 C -64.973101 -0.0000478028 -64.951053 0.0220008 -64.951053 0.0495616 M -64.951053 0.0495616 L -64.951053 3.049551 C -64.951053 3.02199 -64.973101 2.999941 -65.000662 2.999941 M -65.000662 2.999941 L -62.000673 2.999941 C -61.973112 2.999941 -61.951063 3.02199 -61.951063 3.049551 M -61.951063 3.049551 L -61.951063 6.04954 C -61.951063 6.077101 -61.973112 6.099149 -62.000673 6.099149 M -62.000673 6.099149 L -65.000662 6.099149 C -64.973101 6.099149 -64.951053 6.077101 -64.951053 6.04954 M -64.951053 6.04954 L -64.951053 9.049529 C -64.951053 9.021968 -64.973101 8.99992 -65.000662 8.99992 M -65.000662 8.99992 L -62.000673 8.99992 C -61.973112 8.99992 -61.951063 9.021968 -61.951063 9.049529 M -61.951063 9.049529 L -61.951063 12.049518 C -61.951063 12.077079 -61.973112 12.099128 -62.000673 12.099128 M -62.000673 12.099128 L -65.000662 12.099128 C -64.973101 12.099128 -64.951053 12.077079 -64.951053 12.049518 M -64.951053 12.049518 L -64.951053 15.049507 C -64.951053 15.021947 -64.973101 14.999898 -65.000662 14.999898 M -65.000662 14.999898 L -62.000673 14.999898 C -61.973112 14.999898 -61.951063 15.021947 -61.951063 15.049507 M -61.951063 15.049507 L -61.951063 18.049496 C -61.951063 18.077057 -61.973112 18.099106 -62.000673 18.099106 M -62.000673 18.099106 L -65.000662 18.099106 C -64.973101 18.099106 -64.951053 18.077057 -64.951053 18.049496 M -64.951053 18.049496 L -64.951053 21.049486 C -64.951053 21.021925 -64.973101 20.999876 -65.000662 20.999876 M -65.000662 20.999876 L -62.000673 20.999876 C -61.973112 20.999876 -61.951063 21.021925 -61.951063 21.049486 M -61.951063 21.049486 L -61.951063 24.049475 C -61.951063 24.077036 -61.973112 24.099084 -62.000673 24.099084 M -62.000673 24.099084 L -65.000662 24.099084 C -64.973101 24.099084 -64.951053 24.077036 -64.951053 24.049475 M -64.951053 24.049475 L -64.951053 27.049464 C -64.951053 27.021903 -64.973101 26.999855 -65.000662 26.999855 M -65.000662 26.999855 L -62.000673 26.999855 C -61.973112 26.999855 -61.951063 27.021903 -61.951063 27.049464 M -61.951063 27.049464 L -61.951063 30.049453 C -61.951063 30.077014 -61.973112 30.099062 -62.000673 30.099062 M -62.000673 30.099062 L -65.000662 30.099062 C -64.973101 30.099062 -64.951053 30.077014 -64.951053 30.049453 M -64.951053 30.049453 L -64.951053 33.049442 C -64.951053 33.021881 -64.973101 32.999833 -65.000662 32.999833 M -65.000662 32.999833 L -62.000673 32.999833 C -61.973112 32.999833 -61.951063 33.021881 -61.951063 33.049442 M -61.951063 33.049442 L -61.951063 36.049431 C -61.951063 36.076992 -61.973112 36.099041 -62.000673 36.099041 M -62.000673 36.099041 L -65.000662 36.099041 C -64.973101 36.099041 -64.951053 36.076992 -64.951053 36.049431 M -64.951053 36.049431 L -64.951053 39.049421 C -64.951053 39.02186 -64.973101 38.999811 -65.000662 38.999811 M -65.000662 38.999811 L -62.000673 38.999811 C -61.973112 38.999811 -61.951063 39.02186 -61.951063 39.049421 M -61.951063 39.049421 L -61.951063 42.04941 C -61.951063 42.07697 -61.973112 42.099019 -62.000673 42.099019 M -62.000673 42.099019 L -65.000662 42.099019 C -64.973101 42.099019 -64.951053 42.07697 -64.951053 42.04941 M -64.951053 42.04941 L -64.951053 45.049399 C -64.951053 58.883524 -76.166905 70.099377 -90.001031 70.099377 M -90.001031 70.099377 C -103.835156 70.099377 -115.051009 58.883524 -115.051009 45.049399 M -115.0014 45.049399 L -115.051009 45.049399 C -115.051009 45.07696 -115.028961 45.099008 -115.0014 45.099008 M -115.0014 45.099008 L -118.001389 45.099008 C -118.02895 45.099008 -118.050998 45.07696 -118.050998 45.049399 M -118.050998 45.049399 L -118.050998 33.049442 C -118.050998 33.021881 -118.02895 32.999833 -118.001389 32.999833 M -118.001389 32.999833 L -115.0014 32.999833 C -115.028961 32.999833 -115.051009 33.021881 -115.051009 33.049442 M -115.051009 33.049442 L -115.051009 21.099095 M -115.051009 21.099095 L -115.051009 18.099106 C -115.051009 18.126667 -115.028961 18.148715 -115.0014 18.148715 M -115.0014 18.148715 L -118.001389 18.148715 C -118.02895 18.148715 -118.050998 18.126667 -118.050998 18.099106 M -118.050998 18.099106 L -118.050998 15.099117 C -118.050998 15.071556 -118.02895 15.049507 -118.001389 15.049507 M -118.001389 15.049507 L -115.0014 15.049507 C -115.028961 15.049507 -115.051009 15.071556 -115.051009 15.099117 M -115.051009 15.099117 L -115.051009 12.099128 C -115.051009 12.126688 -115.028961 12.148737 -115.0014 12.148737 M -115.0014 12.148737 L -118.001389 12.148737 C -118.02895 12.148737 -118.050998 12.126688 -118.050998 12.099128 M -118.050998 12.099128 L -118.050998 9.099138 C -118.050998 9.071578 -118.02895 9.049529 -118.001389 9.049529 M -118.001389 9.049529 L -115.0014 9.049529 C -115.028961 9.049529 -115.051009 9.071578 -115.051009 9.099138 M -115.051009 9.099138 L -115.051009 6.099149 C -115.051009 6.12671 -115.028961 6.148759 -115.0014 6.148759 M -115.0014 6.148759 L -118.001389 6.148759 C -118.02895 6.148759 -118.050998 6.12671 -118.050998 6.099149 M -118.050998 6.099149 L -118.050998 3.09916 C -118.050998 3.071599 -118.02895 3.049551 -118.001389 3.049551 M -118.001389 3.049551 L -115.0014 3.049551 C -115.028961 3.049551 -115.051009 3.071599 -115.051009 3.09916 M -115.051009 3.09916 L -115.051009 0.0991709 C -115.051009 0.0716102 -115.028961 0.0495616 -115.0014 0.0495616 M -5.999957 -0.0000478028 L -11.499707 -0.0000478028 C -11.472146 -0.0000478028 -11.450098 0.0220008 -11.450098 0.0495616 M -11.450098 0.0495616 L -11.450098 -2.950428 C -11.450098 -2.977988 -11.472146 -3.000037 -11.499707 -3.000037 M -11.499707 -3.000037 L -14.499696 -3.000037 C -14.527257 -3.000037 -14.549306 -2.977988 -14.549306 -2.950428 M -14.549306 -2.950428 L -14.549306 0.0495616 C -14.549306 0.0220008 -14.527257 -0.0000478028 -14.499696 -0.0000478028 M -14.499696 -0.0000478028 L -17.499685 -0.0000478028 C -17.472125 -0.0000478028 -17.450076 0.0220008 -17.450076 0.0495616 M -17.450076 0.0495616 L -17.450076 -2.950428 C -17.450076 -2.977988 -17.472125 -3.000037 -17.499685 -3.000037 M -17.499685 -3.000037 L -20.499674 -3.000037 C -20.527235 -3.000037 -20.549284 -2.977988 -20.549284 -2.950428 M -20.549284 -2.950428 L -20.549284 0.0495616 C -20.549284 0.0220008 -20.527235 -0.0000478028 -20.499674 -0.0000478028 M -20.499674 -0.0000478028 L -23.499664 -0.0000478028 C -23.472103 -0.0000478028 -23.450054 0.0220008 -23.450054 0.0495616 M -23.450054 0.0495616 L -23.450054 -2.950428 C -23.450054 -2.977988 -23.472103 -3.000037 -23.499664 -3.000037 M -23.499664 -3.000037 L -26.499653 -3.000037 C -26.527214 -3.000037 -26.549262 -2.977988 -26.549262 -2.950428 M -26.549262 -2.950428 L -26.549262 0.0495616 C -26.549262 0.0220008 -26.527214 -0.0000478028 -26.499653 -0.0000478028 M -26.499653 -0.0000478028 L -29.499642 -0.0000478028 C -29.472081 -0.0000478028 -29.450033 0.0220008 -29.450033 0.0495616 M -29.450033 0.0495616 L -29.450033 -2.950428 C -29.450033 -2.977988 -29.472081 -3.000037 -29.499642 -3.000037 M -29.499642 -3.000037 L -32.499631 -3.000037 C -32.527192 -3.000037 -32.54924 -2.977988 -32.54924 -2.950428 M -32.54924 -2.950428 L -32.54924 0.0495616 C -32.54924 0.0220008 -32.527192 -0.0000478028 -32.499631 -0.0000478028 M -32.499631 -0.0000478028 L -35.49962 -0.0000478028 C -35.472059 -0.0000478028 -35.450011 0.0220008 -35.450011 0.0495616 M -35.450011 0.0495616 L -35.450011 -2.950428 C -35.450011 -2.977988 -35.472059 -3.000037 -35.49962 -3.000037 M -35.49962 -3.000037 L -38.499609 -3.000037 C -38.52717 -3.000037 -38.549219 -2.977988 -38.549219 -2.950428 M -38.549219 -2.950428 L -38.549219 0.0495616 C -38.549219 0.0220008 -38.52717 -0.0000478028 -38.499609 -0.0000478028 M -38.499609 -0.0000478028 L -41.499599 -0.0000478028 C -41.472038 -0.0000478028 -41.449989 0.0220008 -41.449989 0.0495616 M -41.449989 0.0495616 L -41.449989 -2.950428 C -41.449989 -2.977988 -41.472038 -3.000037 -41.499599 -3.000037 M -41.499599 -3.000037 L -44.499588 -3.000037 C -44.527148 -3.000037 -44.549197 -2.977988 -44.549197 -2.950428 M -44.549197 -2.950428 L -44.549197 0.0495616 C -44.549197 0.0220008 -44.527148 -0.0000478028 -44.499588 -0.0000478028 M -44.499588 -0.0000478028 L -47.499577 -0.0000478028 C -47.472016 -0.0000478028 -47.449967 0.0220008 -47.449967 0.0495616 M -47.449967 0.0495616 L -47.449967 -2.950428 C -47.449967 -2.977988 -47.472016 -3.000037 -47.499577 -3.000037 M -47.499577 -3.000037 L -50.499566 -3.000037 C -50.527127 -3.000037 -50.549175 -2.977988 -50.549175 -2.950428 M -50.549175 -2.950428 L -50.549175 0.0495616 C -50.549175 0.0220008 -50.527127 -0.0000478028 -50.499566 -0.0000478028 M -50.499566 -0.0000478028 L -55.999316 -0.0000478028 C -56.026877 -0.0000478028 -56.048926 0.0220008 -56.048926 0.0495616 M -56.048926 0.0495616 L -56.048926 3.049551 C -56.048926 3.02199 -56.026877 2.999941 -55.999316 2.999941 M -55.999316 2.999941 L -58.999306 2.999941 C -59.026866 2.999941 -59.048915 3.02199 -59.048915 3.049551 M -59.048915 3.049551 L -59.048915 6.04954 C -59.048915 6.077101 -59.026866 6.099149 -58.999306 6.099149 M -58.999306 6.099149 L -55.999316 6.099149 C -56.026877 6.099149 -56.048926 6.077101 -56.048926 6.04954 M -56.048926 6.04954 L -56.048926 9.049529 C -56.048926 9.021968 -56.026877 8.99992 -55.999316 8.99992 M -55.999316 8.99992 L -58.999306 8.99992 C -59.026866 8.99992 -59.048915 9.021968 -59.048915 9.049529 M -59.048915 9.049529 L -59.048915 12.049518 C -59.048915 12.077079 -59.026866 12.099128 -58.999306 12.099128 M -58.999306 12.099128 L -55.999316 12.099128 C -56.026877 12.099128 -56.048926 12.077079 -56.048926 12.049518 M -56.048926 12.049518 L -56.048926 15.049507 C -56.048926 15.021947 -56.026877 14.999898 -55.999316 14.999898 M -55.999316 14.999898 L -58.999306 14.999898 C -59.026866 14.999898 -59.048915 15.021947 -59.048915 15.049507 M -59.048915 15.049507 L -59.048915 18.049496 C -59.048915 18.077057 -59.026866 18.099106 -58.999306 18.099106 M -58.999306 18.099106 L -55.999316 18.099106 C -56.026877 18.099106 -56.048926 18.077057 -56.048926 18.049496 M -56.048926 18.049496 L -56.048926 21.049486 C -56.048926 21.021925 -56.026877 20.999876 -55.999316 20.999876 M -55.999316 20.999876 L -58.999306 20.999876 C -59.026866 20.999876 -59.048915 21.021925 -59.048915 21.049486 M -59.048915 21.049486 L -59.048915 24.049475 C -59.048915 24.077036 -59.026866 24.099084 -58.999306 24.099084 M -58.999306 24.099084 L -55.999316 24.099084 C -56.026877 24.099084 -56.048926 24.077036 -56.048926 24.049475 M -56.048926 24.049475 L -56.048926 27.049464 C -56.048926 27.021903 -56.026877 26.999855 -55.999316 26.999855 M -55.999316 26.999855 L -58.999306 26.999855 C -59.026866 26.999855 -59.048915 27.021903 -59.048915 27.049464 M -59.048915 27.049464 L -59.048915 30.049453 C -59.048915 30.077014 -59.026866 30.099062 -58.999306 30.099062 M -58.999306 30.099062 L -55.999316 30.099062 C -56.026877 30.099062 -56.048926 30.077014 -56.048926 30.049453 M -56.048926 30.049453 L -56.048926 33.049442 C -56.048926 33.021881 -56.026877 32.999833 -55.999316 32.999833 M -55.999316 32.999833 L -58.999306 32.999833 C -59.026866 32.999833 -59.048915 33.021881 -59.048915 33.049442 M -59.048915 33.049442 L -59.048915 36.049431 C -59.048915 36.076992 -59.026866 36.099041 -58.999306 36.099041 M -58.999306 36.099041 L -55.999316 36.099041 C -56.026877 36.099041 -56.048926 36.076992 -56.048926 36.049431 M -56.048926 36.049431 L -56.048926 39.049421 C -56.048926 39.02186 -56.026877 38.999811 -55.999316 38.999811 M -55.999316 38.999811 L -58.999306 38.999811 C -59.026866 38.999811 -59.048915 39.02186 -59.048915 39.049421 M -59.048915 39.049421 L -59.048915 42.04941 C -59.048915 42.07697 -59.026866 42.099019 -58.999306 42.099019 M -58.999306 42.099019 L -55.999316 42.099019 C -56.026877 42.099019 -56.048926 42.07697 -56.048926 42.04941 M -56.048926 42.04941 L -56.048926 45.049399 C -56.048926 58.883524 -44.833073 70.099377 -30.998947 70.099377 M -30.998947 70.099377 C -17.164822 70.099377 -5.948969 58.883524 -5.948969 45.049399 M -5.998579 45.049399 L -5.948969 45.049399 C -5.948969 45.07696 -5.971018 45.099008 -5.998579 45.099008 M -5.998579 45.099008 L -2.998589 45.099008 C -2.971029 45.099008 -2.94898 45.07696 -2.94898 45.049399 M -2.94898 45.049399 L -2.94898 33.049442 C -2.94898 33.021881 -2.971029 32.999833 -2.998589 32.999833 M -2.998589 32.999833 L -5.998579 32.999833 C -5.971018 32.999833 -5.948969 33.021881 -5.948969 33.049442 M -5.948969 33.049442 L -5.948969 21.099095 M -5.948969 21.099095 L -5.948969 18.099106 C -5.948969 18.126667 -5.971018 18.148715 -5.998579 18.148715 M -5.998579 18.148715 L -2.998589 18.148715 C -2.971029 18.148715 -2.94898 18.126667 -2.94898 18.099106 M -2.94898 18.099106 L -2.94898 15.099117 C -2.94898 15.071556 -2.971029 15.049507 -2.998589 15.049507 M -2.998589 15.049507 L -5.998579 15.049507 C -5.971018 15.049507 -5.948969 15.071556 -5.948969 15.099117 M -5.948969 15.099117 L -5.948969 12.099128 C -5.948969 12.126688 -5.971018 12.148737 -5.998579 12.148737 M -5.998579 12.148737 L -2.998589 12.148737 C -2.971029 12.148737 -2.94898 12.126688 -2.94898 12.099128 M -2.94898 12.099128 L -2.94898 9.099138 C -2.94898 9.071578 -2.971029 9.049529 -2.998589 9.049529 M -2.998589 9.049529 L -5.998579 9.049529 C -5.971018 9.049529 -5.948969 9.071578 -5.948969 9.099138 M -5.948969 9.099138 L -5.948969 6.099149 C -5.948969 6.12671 -5.971018 6.148759 -5.998579 6.148759 M -5.998579 6.148759 L -2.998589 6.148759 C -2.971029 6.148759 -2.94898 6.12671 -2.94898 6.099149 M -2.94898 6.099149 L -2.94898 3.09916 C -2.94898 3.071599 -2.971029 3.049551 -2.998589 3.049551 M -2.998589 3.049551 L -5.998579 3.049551 C -5.971018 3.049551 -5.948969 3.071599 -5.948969 3.09916 M -5.948969 3.09916 L -5.948969 0.0991709 C -5.948969 0.0716102 -5.971018 0.0495616 -5.998579 0.0495616 M 1.599924 4.599844 L 4.599913 4.599844 M 4.599913 4.599844 L 10.099664 4.599844 C 10.072103 4.599844 10.050054 4.621892 10.050054 4.649453 M 10.050054 4.649453 L 10.050054 1.649464 C 10.050054 1.621903 10.072103 1.599855 10.099664 1.599855 M 10.099664 1.599855 L 13.099653 1.599855 C 13.127214 1.599855 13.149262 1.621903 13.149262 1.649464 M 13.149262 1.649464 L 13.149262 4.649453 C 13.149262 4.621892 13.127214 4.599844 13.099653 4.599844 M 13.099653 4.599844 L 16.099642 4.599844 C 16.072081 4.599844 16.050033 4.621892 16.050033 4.649453 M 16.050033 4.649453 L 16.050033 1.649464 C 16.050033 1.621903 16.072081 1.599855 16.099642 1.599855 M 16.099642 1.599855 L 19.099631 1.599855 C 19.127192 1.599855 19.14924 1.621903 19.14924 1.649464 M 19.14924 1.649464 L 19.14924 4.649453 C 19.14924 4.621892 19.127192 4.599844 19.099631 4.599844 M 19.099631 4.599844 L 22.09962 4.599844 C 22.072059 4.599844 22.050011 4.621892 22.050011 4.649453 M 22.050011 4.649453 L 22.050011 1.649464 C 22.050011 1.621903 22.072059 1.599855 22.09962 1.599855 M 22.09962 1.599855 L 25.099609 1.599855 C 25.12717 1.599855 25.149219 1.621903 25.149219 1.649464 M 25.149219 1.649464 L 25.149219 4.649453 C 25.149219 4.621892 25.12717 4.599844 25.099609 4.599844 M 25.099609 4.599844 L 28.099599 4.599844 C 28.072038 4.599844 28.049989 4.621892 28.049989 4.649453 M 28.049989 4.649453 L 28.049989 1.649464 C 28.049989 1.621903 28.072038 1.599855 28.099599 1.599855 M 28.099599 1.599855 L 31.099588 1.599855 C 31.127148 1.599855 31.149197 1.621903 31.149197 1.649464 M 31.149197 1.649464 L 31.149197 4.649453 C 31.149197 4.621892 31.127148 4.599844 31.099588 4.599844 M 31.099588 4.599844 L 34.099577 4.599844 C 34.072016 4.599844 34.049967 4.621892 34.049967 4.649453 M 34.049967 4.649453 L 34.049967 1.649464 C 34.049967 1.621903 34.072016 1.599855 34.099577 1.599855 M 34.099577 1.599855 L 37.099566 1.599855 C 37.127127 1.599855 37.149175 1.621903 37.149175 1.649464 M 37.149175 1.649464 L 37.149175 4.649453 C 37.149175 4.621892 37.127127 4.599844 37.099566 4.599844 M 37.099566 4.599844 L 40.099555 4.599844 C 40.071994 4.599844 40.049946 4.621892 40.049946 4.649453 M 40.049946 4.649453 L 40.049946 1.649464 C 40.049946 1.621903 40.071994 1.599855 40.099555 1.599855 M 40.099555 1.599855 L 43.099544 1.599855 C 43.127105 1.599855 43.149154 1.621903 43.149154 1.649464 M 43.149154 1.649464 L 43.149154 4.649453 C 43.149154 4.621892 43.127105 4.599844 43.099544 4.599844 M 43.099544 4.599844 L 46.099533 4.599844 C 46.071973 4.599844 46.049924 4.621892 46.049924 4.649453 M 46.049924 4.649453 L 46.049924 1.649464 C 46.049924 1.621903 46.071973 1.599855 46.099533 1.599855 M 46.099533 1.599855 L 49.099523 1.599855 C 49.127083 1.599855 49.149132 1.621903 49.149132 1.649464 M 49.149132 1.649464 L 49.149132 4.649453 C 49.149132 4.621892 49.127083 4.599844 49.099523 4.599844 M 49.099523 4.599844 L 54.599273 4.599844 M 54.599273 4.599844 L 57.599262 4.599844 C 57.626823 4.599844 57.648872 4.621892 57.648872 4.649453 M 57.648872 4.649453 L 57.648872 4.649453 M 57.648872 4.649453 L 57.648872 7.649442 C 57.648872 7.677003 57.626823 7.699052 57.599262 7.699052 M 57.599262 7.699052 L 54.599273 7.699052 C 54.626834 7.699052 54.648882 7.677003 54.648882 7.649442 M 54.648882 7.649442 L 54.648882 10.649431 C 54.648882 10.621871 54.626834 10.599822 54.599273 10.599822 M 54.599273 10.599822 L 57.599262 10.599822 C 57.626823 10.599822 57.648872 10.621871 57.648872 10.649431 M 57.648872 10.649431 L 57.648872 13.649421 C 57.648872 13.676981 57.626823 13.69903 57.599262 13.69903 M 57.599262 13.69903 L 54.599273 13.69903 C 54.626834 13.69903 54.648882 13.676981 54.648882 13.649421 M 54.648882 13.649421 L 54.648882 16.64941 C 54.648882 16.621849 54.626834 16.5998 54.599273 16.5998 M 54.599273 16.5998 L 57.599262 16.5998 C 57.626823 16.5998 57.648872 16.621849 57.648872 16.64941 M 57.648872 16.64941 L 57.648872 19.649399 C 57.648872 19.67696 57.626823 19.699008 57.599262 19.699008 M 57.599262 19.699008 L 54.599273 19.699008 C 54.626834 19.699008 54.648882 19.67696 54.648882 19.649399 M 54.648882 19.649399 L 54.648882 22.649388 C 54.648882 22.621827 54.626834 22.599779 54.599273 22.599779 M 54.599273 22.599779 L 57.599262 22.599779 C 57.626823 22.599779 57.648872 22.621827 57.648872 22.649388 M 57.648872 22.649388 L 57.648872 25.649377 M 57.648872 25.649377 C 57.648872 25.676938 57.626823 25.698986 57.599262 25.698986 M 57.599262 25.698986 L 54.599273 25.698986 M 54.599273 25.698986 L 4.599913 25.698986 M 4.599913 25.698986 L 1.599924 25.698986 C 1.572363 25.698986 1.550315 25.676938 1.550315 25.649377 M 1.550315 25.649377 L 1.550315 25.649377 M 1.550315 25.649377 L 1.550315 22.649388 C 1.550315 22.621827 1.572363 22.599779 1.599924 22.599779 M 1.599924 22.599779 L 4.599913 22.599779 C 4.572352 22.599779 4.550304 22.621827 4.550304 22.649388 M 4.550304 22.649388 L 4.550304 19.649399 C 4.550304 19.67696 4.572352 19.699008 4.599913 19.699008 M 4.599913 19.699008 L 1.599924 19.699008 C 1.572363 19.699008 1.550315 19.67696 1.550315 19.649399 M 1.550315 19.649399 L 1.550315 16.64941 C 1.550315 16.621849 1.572363 16.5998 1.599924 16.5998 M 1.599924 16.5998 L 4.599913 16.5998 C 4.572352 16.5998 4.550304 16.621849 4.550304 16.64941 M 4.550304 16.64941 L 4.550304 13.649421 C 4.550304 13.676981 4.572352 13.69903 4.599913 13.69903 M 4.599913 13.69903 L 1.599924 13.69903 C 1.572363 13.69903 1.550315 13.676981 1.550315 13.649421 M 1.550315 13.649421 L 1.550315 10.649431 C 1.550315 10.621871 1.572363 10.599822 1.599924 10.599822 M 1.599924 10.599822 L 4.599913 10.599822 C 4.572352 10.599822 4.550304 10.621871 4.550304 10.649431 M 4.550304 10.649431 L 4.550304 7.649442 C 4.550304 7.677003 4.572352 7.699052 4.599913 7.699052 M 4.599913 7.699052 L 1.599924 7.699052 C 1.572363 7.699052 1.550315 7.677003 1.550315 7.649442 M 1.550315 7.649442 L 1.550315 4.649453 M 1.550315 4.649453 C 1.550315 4.621892 1.572363 4.599844 1.599924 4.599844 " transform="matrix(2.834646,0,0,-2.834646,342.992126,325.984239)"/>
</g>
</svg>
