<?xml version="1.0" encoding="UTF-8"?>
<svg xmlns="http://www.w3.org/2000/svg" xmlns:xlink="http://www.w3.org/1999/xlink" width="304.767695mm" height="182mm" viewBox="0 0 304.767695 182" version="1.1">
<g id="surface1">
<path style="fill:none;stroke-width:0.1;stroke-linecap:butt;stroke-linejoin:miter;stroke:rgb(0%,0%,0%);stroke-opacity:1;stroke-miterlimit:10;" d="M -158.767695 6 L -151.767695 6 C -151.740352 6 -151.716914 6.023438 -151.716914 6.050781 M -151.716914 6.050781 L -151.716914 10.050781 C -151.716914 10.023438 -151.740352 10 -151.767695 10 M -151.767695 10 L -143.767695 10 C -143.795039 10 -143.818477 10.023438 -143.818477 10.050781 M -143.818477 10.050781 L -143.818477 6.050781 C -143.818477 6.023438 -143.795039 6 -143.767695 6 M -143.767695 6 L -135.767695 6 C -135.740352 6 -135.716914 6.023438 -135.716914 6.050781 M -135.716914 6.050781 L -135.716914 10.050781 C -135.716914 10.023438 -135.740352 10 -135.767695 10 M -135.767695 10 L -127.767695 10 C -127.795039 10 -127.818477 10.023438 -127.818477 10.050781 M -127.818477 10.050781 L -127.818477 6.050781 C -127.818477 6.023438 -127.795039 6 -127.767695 6 M -127.767695 6 L -119.767695 6 C -119.740352 6 -119.716914 6.023438 -119.716914 6.050781 M -119.716914 6.050781 L -119.716914 10.050781 C -119.716914 10.023438 -119.740352 10 -119.767695 10 M -119.767695 10 L -111.767695 10 C -111.795039 10 -111.818477 10.023438 -111.818477 10.050781 M -111.818477 10.050781 L -111.818477 6.050781 C -111.818477 6.023438 -111.795039 6 -111.767695 6 M -111.767695 6 L -103.767695 6 C -103.740352 6 -103.716914 6.023438 -103.716914 6.050781 M -103.716914 6.050781 L -103.716914 10.050781 C -103.716914 10.023438 -103.740352 10 -103.767695 10 M -103.767695 10 L -95.767695 10 C -95.795039 10 -95.818477 10.023438 -95.818477 10.050781 M -95.818477 10.050781 L -95.818477 6.050781 C -95.818477 6.023438 -95.795039 6 -95.767695 6 M -95.767695 6 L -88.767695 6 M -88.384883 60.101563 L -88.384883 10 M -86.384883 6 L -86.384883 33.050781 M -86.384883 37.050781 L -86.384883 64.101563 M -84.384883 60.101563 L -84.384883 10 M -82.384883 6 L -82.384883 33.050781 M -82.384883 37.050781 L -82.384883 64.101563 M -80.384883 60.101563 L -80.384883 10 M -78.384883 6 L -78.384883 33.050781 M -78.384883 37.050781 L -78.384883 64.101563 M -76.384883 60.101563 L -76.384883 10 M -74.384883 6 L -74.384883 33.050781 M -74.384883 37.050781 L -74.384883 64.101563 M -72.384883 60.101563 L -72.384883 10 M -70.384883 6 L -70.384883 33.050781 M -70.384883 37.050781 L -70.384883 64.101563 M -68.384883 60.101563 L -68.384883 10 M -66.384883 6 L -66.384883 33.050781 M -66.384883 37.050781 L -66.384883 64.101563 M -64.384883 60.101563 L -64.384883 10 M -62.384883 6 L -62.384883 33.050781 M -62.384883 37.050781 L -62.384883 64.101563 M -60.384883 60.101563 L -60.384883 10 M -58.384883 6 L -58.384883 33.050781 M -58.384883 37.050781 L -58.384883 64.101563 M -56.384883 60.101563 L -56.384883 10 M -54.384883 6 L -54.384883 33.050781 M -54.384883 37.050781 L -54.384883 64.101563 M -52.384883 60.101563 L -52.384883 10 M -50.384883 6 L -50.384883 33.050781 M -50.384883 37.050781 L -50.384883 64.101563 M -48.384883 60.101563 L -48.384883 10 M -46.384883 6 L -46.384883 33.050781 M -46.384883 37.050781 L -46.384883 64.101563 M -88.767695 6 L -43.998164 6 C -44.025508 6 -44.048945 6.023438 -44.048945 6.050781 M -44.048945 6.050781 L -44.048945 5.050781 C -44.048945 5.023438 -44.025508 5 -43.998164 5 M -43.998164 5 L -35.498164 5 C -35.525508 5 -35.548945 5.023438 -35.548945 5.050781 M -35.548945 5.050781 L -35.548945 1.050781 C -35.548945 1.023438 -35.525508 1 -35.498164 1 M -35.498164 1 L -27.498164 1 C -27.47082 1 -27.447383 1.023438 -27.447383 1.050781 M -27.447383 1.050781 L -27.447383 5.050781 C -27.447383 5.023438 -27.47082 5 -27.498164 5 M -27.498164 5 L -19.498164 5 C -19.525508 5 -19.548945 5.023438 -19.548945 5.050781 M -19.548945 5.050781 L -19.548945 1.050781 C -19.548945 1.023438 -19.525508 1 -19.498164 1 M -19.498164 1 L -11.498164 1 C -11.47082 1 -11.447383 1.023438 -11.447383 1.050781 M -11.447383 1.050781 L -11.447383 5.050781 C -11.447383 5.023438 -11.47082 5 -11.498164 5 M -11.498164 5 L -2.998164 5 C -2.97082 5 -2.947383 5.023438 -2.947383 5.050781 M -2.947383 5.050781 L -2.947383 15.050781 C -2.947383 15.023438 -2.97082 15 -2.998164 15 M -2.998164 15 L 1.001836 15 C 1.02918 15 1.052617 15.023438 1.052617 15.050781 M 1.052617 15.050781 L 1.052617 23.050781 C 1.052617 23.078125 1.02918 23.101563 1.001836 23.101563 M 1.001836 23.101563 L -2.998164 23.101563 C -2.97082 23.101563 -2.947383 23.078125 -2.947383 23.050781 M -2.947383 23.050781 L -2.947383 31.050781 C -2.947383 31.023438 -2.97082 31 -2.998164 31 M -2.998164 31 L 1.001836 31 C 1.02918 31 1.052617 31.023438 1.052617 31.050781 M 1.052617 31.050781 L 1.052617 39.050781 C 1.052617 39.078125 1.02918 39.101563 1.001836 39.101563 M 1.001836 39.101563 L -2.998164 39.101563 C -2.97082 39.101563 -2.947383 39.078125 -2.947383 39.050781 M -2.947383 39.050781 L -2.947383 47.050781 C -2.947383 47.023438 -2.97082 47 -2.998164 47 M -2.998164 47 L 1.001836 47 C 1.02918 47 1.052617 47.023438 1.052617 47.050781 M 1.052617 47.050781 L 1.052617 55.050781 C 1.052617 55.078125 1.02918 55.101563 1.001836 55.101563 M 1.001836 55.101563 L -2.998164 55.101563 C -2.97082 55.101563 -2.947383 55.078125 -2.947383 55.050781 M -2.947383 55.050781 L -2.947383 65.050781 C -2.947383 65.078125 -2.97082 65.101563 -2.998164 65.101563 M -2.998164 65.101563 L -11.498164 65.101563 C -11.47082 65.101563 -11.447383 65.078125 -11.447383 65.050781 M -11.447383 65.050781 L -11.447383 69.050781 C -11.447383 69.078125 -11.47082 69.101563 -11.498164 69.101563 M -11.498164 69.101563 L -19.498164 69.101563 C -19.525508 69.101563 -19.548945 69.078125 -19.548945 69.050781 M -19.548945 69.050781 L -19.548945 65.050781 C -19.548945 65.078125 -19.525508 65.101563 -19.498164 65.101563 M -19.498164 65.101563 L -27.498164 65.101563 C -27.47082 65.101563 -27.447383 65.078125 -27.447383 65.050781 M -27.447383 65.050781 L -27.447383 69.050781 C -27.447383 69.078125 -27.47082 69.101563 -27.498164 69.101563 M -27.498164 69.101563 L -35.498164 69.101563 C -35.525508 69.101563 -35.548945 69.078125 -35.548945 69.050781 M -35.548945 69.050781 L -35.548945 65.050781 C -35.548945 65.078125 -35.525508 65.101563 -35.498164 65.101563 M -35.498164 65.101563 L -43.998164 65.101563 C -44.025508 65.101563 -44.048945 65.078125 -44.048945 65.050781 M -44.048945 65.050781 L -44.048945 64.050781 C -44.048945 64.078125 -44.025508 64.101563 -43.998164 64.101563 M -43.998164 64.101563 L -88.767695 64.101563 M -88.767695 64.101563 L -95.767695 64.101563 C -95.795039 64.101563 -95.818477 64.078125 -95.818477 64.050781 M -95.818477 64.050781 L -95.818477 60.050781 C -95.818477 60.078125 -95.795039 60.101563 -95.767695 60.101563 M -95.767695 60.101563 L -103.767695 60.101563 C -103.740352 60.101563 -103.716914 60.078125 -103.716914 60.050781 M -103.716914 60.050781 L -103.716914 64.050781 C -103.716914 64.078125 -103.740352 64.101563 -103.767695 64.101563 M -103.767695 64.101563 L -111.767695 64.101563 C -111.795039 64.101563 -111.818477 64.078125 -111.818477 64.050781 M -111.818477 64.050781 L -111.818477 60.050781 C -111.818477 60.078125 -111.795039 60.101563 -111.767695 60.101563 M -111.767695 60.101563 L -119.767695 60.101563 C -119.740352 60.101563 -119.716914 60.078125 -119.716914 60.050781 M -119.716914 60.050781 L -119.716914 64.050781 C -119.716914 64.078125 -119.740352 64.101563 -119.767695 64.101563 M -119.767695 64.101563 L -127.767695 64.101563 C -127.795039 64.101563 -127.818477 64.078125 -127.818477 64.050781 M -127.818477 64.050781 L -127.818477 60.050781 C -127.818477 60.078125 -127.795039 60.101563 -127.767695 60.101563 M -127.767695 60.101563 L -135.767695 60.101563 C -135.740352 60.101563 -135.716914 60.078125 -135.716914 60.050781 M -135.716914 60.050781 L -135.716914 64.050781 C -135.716914 64.078125 -135.740352 64.101563 -135.767695 64.101563 M -135.767695 64.101563 L -143.767695 64.101562 C -143.795039 64.101562 -143.818477 64.078125 -143.818477 64.050781 M -143.818477 64.050781 L -143.818477 60.050781 C -143.818477 60.078125 -143.795039 60.101562 -143.767695 60.101562 M -143.767695 60.101562 L -151.767695 60.101562 C -151.740352 60.101562 -151.716914 60.078125 -151.716914 60.050781 M -151.716914 60.050781 L -151.716914 64.050781 C -151.716914 64.078125 -151.740352 64.101562 -151.767695 64.101562 M -151.767695 64.101562 L -158.767695 64.101562 C -158.795039 64.101562 -158.818477 64.078125 -158.818477 64.050781 M -158.818477 64.050781 L -158.818477 60.050781 M -158.818477 60.050781 L -158.818477 55.050781 C -158.818477 55.078125 -158.795039 55.101562 -158.767695 55.101562 M -158.767695 55.101562 L -162.767695 55.101562 C -162.795039 55.101562 -162.818477 55.078125 -162.818477 55.050781 M -162.818477 55.050781 L -162.818477 47.050781 C -162.818477 47.023438 -162.795039 47 -162.767695 47 M -162.767695 47 L -158.767695 47 C -158.795039 47 -158.818477 47.023438 -158.818477 47.050781 M -158.818477 47.050781 L -158.818477 39.050781 C -158.818477 39.078125 -158.795039 39.101562 -158.767695 39.101562 M -158.767695 39.101562 L -162.767695 39.101562 C -162.795039 39.101562 -162.818477 39.078125 -162.818477 39.050781 M -162.818477 39.050781 L -162.818477 31.050781 C -162.818477 31.023438 -162.795039 31 -162.767695 31 M -162.767695 31 L -158.767695 31 C -158.795039 31 -158.818477 31.023438 -158.818477 31.050781 M -158.818477 31.050781 L -158.818477 23.050781 C -158.818477 23.078125 -158.795039 23.101562 -158.767695 23.101562 M -158.767695 23.101562 L -162.767695 23.101562 C -162.795039 23.101562 -162.818477 23.078125 -162.818477 23.050781 M -162.818477 23.050781 L -162.818477 15.050781 C -162.818477 15.023438 -162.795039 15 -162.767695 15 M -162.767695 15 L -158.767695 15 C -158.795039 15 -158.818477 15.023438 -158.818477 15.050781 M -158.818477 15.050781 L -158.818477 10.050781 M -158.818477 10.050781 L -158.818477 6.050781 C -158.818477 6.023438 -158.795039 6 -158.767695 6 M 2.099492 2.101563 L 6.099492 2.101563 M 6.099492 2.101563 L 13.099492 2.101563 C 13.126836 2.101563 13.150273 2.125 13.150273 2.152344 M 13.150273 2.152344 L 13.150273 6.152344 C 13.150273 6.125 13.126836 6.101563 13.099492 6.101563 M 13.099492 6.101563 L 21.099492 6.101563 C 21.072148 6.101563 21.048711 6.125 21.048711 6.152344 M 21.048711 6.152344 L 21.048711 2.152344 C 21.048711 2.125 21.072148 2.101563 21.099492 2.101563 M 21.099492 2.101563 L 29.099492 2.101563 C 29.126836 2.101563 29.150273 2.125 29.150273 2.152344 M 29.150273 2.152344 L 29.150273 6.152344 C 29.150273 6.125 29.126836 6.101563 29.099492 6.101563 M 29.099492 6.101563 L 37.099492 6.101563 C 37.072148 6.101563 37.048711 6.125 37.048711 6.152344 M 37.048711 6.152344 L 37.048711 2.152344 C 37.048711 2.125 37.072148 2.101563 37.099492 2.101563 M 37.099492 2.101563 L 45.099492 2.101563 C 45.126836 2.101563 45.150273 2.125 45.150273 2.152344 M 45.150273 2.152344 L 45.150273 6.152344 C 45.150273 6.125 45.126836 6.101563 45.099492 6.101563 M 45.099492 6.101563 L 53.099492 6.101563 C 53.072148 6.101563 53.048711 6.125 53.048711 6.152344 M 53.048711 6.152344 L 53.048711 2.152344 C 53.048711 2.125 53.072148 2.101563 53.099492 2.101563 M 53.099492 2.101563 L 61.099492 2.101563 C 61.126836 2.101563 61.150273 2.125 61.150273 2.152344 M 61.150273 2.152344 L 61.150273 6.152344 C 61.150273 6.125 61.126836 6.101563 61.099492 6.101563 M 61.099492 6.101563 L 69.099492 6.101563 C 69.072148 6.101563 69.048711 6.125 69.048711 6.152344 M 69.048711 6.152344 L 69.048711 2.152344 C 69.048711 2.125 69.072148 2.101563 69.099492 2.101563 M 69.099492 2.101563 L 76.099492 2.101563 M 76.099492 2.101563 L 80.099492 2.101563 C 80.126836 2.101563 80.150273 2.125 80.150273 2.152344 M 80.150273 2.152344 L 80.150273 6.152344 M 80.150273 6.152344 L 80.150273 11.152344 C 80.150273 11.179688 80.126836 11.203125 80.099492 11.203125 M 80.099492 11.203125 L 76.099492 11.203125 C 76.126836 11.203125 76.150273 11.179688 76.150273 11.152344 M 76.150273 11.152344 L 76.150273 19.152344 C 76.150273 19.125 76.126836 19.101563 76.099492 19.101563 M 76.099492 19.101563 L 80.099492 19.101563 C 80.126836 19.101563 80.150273 19.125 80.150273 19.152344 M 80.150273 19.152344 L 80.150273 27.152344 C 80.150273 27.179688 80.126836 27.203125 80.099492 27.203125 M 80.099492 27.203125 L 76.099492 27.203125 C 76.126836 27.203125 76.150273 27.179688 76.150273 27.152344 M 76.150273 27.152344 L 76.150273 35.152344 C 76.150273 35.125 76.126836 35.101563 76.099492 35.101563 M 76.099492 35.101563 L 80.099492 35.101563 C 80.126836 35.101563 80.150273 35.125 80.150273 35.152344 M 80.150273 35.152344 L 80.150273 43.152344 C 80.150273 43.179688 80.126836 43.203125 80.099492 43.203125 M 80.099492 43.203125 L 76.099492 43.203125 C 76.126836 43.203125 76.150273 43.179688 76.150273 43.152344 M 76.150273 43.152344 L 76.150273 51.152344 C 76.150273 51.125 76.126836 51.101563 76.099492 51.101563 M 76.099492 51.101563 L 80.099492 51.101563 C 80.126836 51.101563 80.150273 51.125 80.150273 51.152344 M 80.150273 51.152344 L 80.150273 56.152344 M 80.150273 56.152344 L 80.150273 60.152344 C 80.150273 60.179688 80.126836 60.203125 80.099492 60.203125 M 80.099492 60.203125 L 76.099492 60.203125 M 76.099492 60.203125 L 69.099492 60.203125 C 69.072148 60.203125 69.048711 60.179688 69.048711 60.152344 M 69.048711 60.152344 L 69.048711 56.152344 C 69.048711 56.179688 69.072148 56.203125 69.099492 56.203125 M 69.099492 56.203125 L 61.099492 56.203125 C 61.126836 56.203125 61.150273 56.179688 61.150273 56.152344 M 61.150273 56.152344 L 61.150273 60.152344 C 61.150273 60.179688 61.126836 60.203125 61.099492 60.203125 M 61.099492 60.203125 L 53.099492 60.203125 C 53.072148 60.203125 53.048711 60.179688 53.048711 60.152344 M 53.048711 60.152344 L 53.048711 56.152344 C 53.048711 56.179688 53.072148 56.203125 53.099492 56.203125 M 53.099492 56.203125 L 45.099492 56.203125 C 45.126836 56.203125 45.150273 56.179688 45.150273 56.152344 M 45.150273 56.152344 L 45.150273 60.152344 C 45.150273 60.179688 45.126836 60.203125 45.099492 60.203125 M 45.099492 60.203125 L 37.099492 60.203125 C 37.072148 60.203125 37.048711 60.179688 37.048711 60.152344 M 37.048711 60.152344 L 37.048711 56.152344 C 37.048711 56.179688 37.072148 56.203125 37.099492 56.203125 M 37.099492 56.203125 L 29.099492 56.203125 C 29.126836 56.203125 29.150273 56.179688 29.150273 56.152344 M 29.150273 56.152344 L 29.150273 60.152344 C 29.150273 60.179688 29.126836 60.203125 29.099492 60.203125 M 29.099492 60.203125 L 21.099492 60.203125 C 21.072148 60.203125 21.048711 60.179688 21.048711 60.152344 M 21.048711 60.152344 L 21.048711 56.152344 C 21.048711 56.179688 21.072148 56.203125 21.099492 56.203125 M 21.099492 56.203125 L 13.099492 56.203125 C 13.126836 56.203125 13.150273 56.179688 13.150273 56.152344 M 13.150273 56.152344 L 13.150273 60.152344 C 13.150273 60.179688 13.126836 60.203125 13.099492 60.203125 M 13.099492 60.203125 L 6.099492 60.203125 M 6.099492 60.203125 L 2.099492 60.203125 C 2.072148 60.203125 2.048711 60.179688 2.048711 60.152344 M 2.048711 60.152344 L 2.048711 56.152344 M 2.048711 56.152344 L 2.048711 51.152344 C 2.048711 51.125 2.072148 51.101563 2.099492 51.101563 M 2.099492 51.101563 L 6.099492 51.101563 C 6.072148 51.101563 6.048711 51.125 6.048711 51.152344 M 6.048711 51.152344 L 6.048711 43.152344 C 6.048711 43.179688 6.072148 43.203125 6.099492 43.203125 M 6.099492 43.203125 L 2.099492 43.203125 C 2.072148 43.203125 2.048711 43.179688 2.048711 43.152344 M 2.048711 43.152344 L 2.048711 35.152344 C 2.048711 35.125 2.072148 35.101563 2.099492 35.101563 M 2.099492 35.101563 L 6.099492 35.101563 C 6.072148 35.101563 6.048711 35.125 6.048711 35.152344 M 6.048711 35.152344 L 6.048711 27.152344 C 6.048711 27.179688 6.072148 27.203125 6.099492 27.203125 M 6.099492 27.203125 L 2.099492 27.203125 C 2.072148 27.203125 2.048711 27.179688 2.048711 27.152344 M 2.048711 27.152344 L 2.048711 19.152344 C 2.048711 19.125 2.072148 19.101563 2.099492 19.101563 M 2.099492 19.101563 L 6.099492 19.101563 C 6.072148 19.101563 6.048711 19.125 6.048711 19.152344 M 6.048711 19.152344 L 6.048711 11.152344 C 6.048711 11.179688 6.072148 11.203125 6.099492 11.203125 M 6.099492 11.203125 L 2.099492 11.203125 C 2.072148 11.203125 2.048711 11.179688 2.048711 11.152344 M 2.048711 11.152344 L 2.048711 6.152344 M 2.048711 6.152344 L 2.048711 2.152344 C 2.048711 2.125 2.072148 2.101563 2.099492 2.101563 " transform="matrix(1,0.000000000000000245,0.000000000000000245,-1,166.767695,182)"/>
<path style="fill:none;stroke-width:0.1;stroke-linecap:butt;stroke-linejoin:miter;stroke:rgb(0%,0%,0%);stroke-opacity:1;stroke-miterlimit:10;" d="M 2.098711 2.101563 L 6.098711 2.101563 M 6.098711 2.101563 L 8.098711 2.101563 C 8.126055 2.101563 8.149492 2.125 8.149492 2.152344 M 8.149492 2.152344 L 8.149492 6.152344 C 8.149492 6.125 8.126055 6.101563 8.098711 6.101563 M 8.098711 6.101563 L 12.098711 6.101563 C 12.071367 6.101563 12.04793 6.125 12.04793 6.152344 M 12.04793 6.152344 L 12.04793 2.152344 C 12.04793 2.125 12.071367 2.101563 12.098711 2.101563 M 12.098711 2.101563 L 14.098711 2.101563 M 14.098711 2.101563 C 14.126055 2.101563 14.149492 2.125 14.149492 2.152344 M 14.149492 2.152344 L 14.149492 6.152344 M 14.149492 6.152344 L 14.149492 66.152344 M 14.149492 66.152344 L 14.149492 70.152344 C 14.149492 70.179688 14.126055 70.203125 14.098711 70.203125 M 14.098711 70.203125 L 14.098711 70.203125 M 14.098711 70.203125 L 12.098711 70.203125 C 12.071367 70.203125 12.04793 70.179688 12.04793 70.152344 M 12.04793 70.152344 L 12.04793 66.152344 C 12.04793 66.179688 12.071367 66.203125 12.098711 66.203125 M 12.098711 66.203125 L 8.098711 66.203125 C 8.126055 66.203125 8.149492 66.179688 8.149492 66.152344 M 8.149492 66.152344 L 8.149492 70.152344 C 8.149492 70.179688 8.126055 70.203125 8.098711 70.203125 M 8.098711 70.203125 L 6.098711 70.203125 M 6.098711 70.203125 L 2.098711 70.203125 C 2.071367 70.203125 2.04793 70.179688 2.04793 70.152344 M 2.04793 70.152344 L 2.04793 66.152344 M 2.04793 66.152344 L 2.04793 56.152344 C 2.04793 56.125 2.071367 56.101563 2.098711 56.101563 M 2.098711 56.101563 L 6.098711 56.101563 C 6.071367 56.101563 6.04793 56.125 6.04793 56.152344 M 6.04793 56.152344 L 6.04793 48.152344 C 6.04793 48.179688 6.071367 48.203125 6.098711 48.203125 M 6.098711 48.203125 L 2.098711 48.203125 C 2.071367 48.203125 2.04793 48.179688 2.04793 48.152344 M 2.04793 48.152344 L 2.04793 40.152344 C 2.04793 40.125 2.071367 40.101563 2.098711 40.101563 M 2.098711 40.101563 L 6.098711 40.101563 C 6.071367 40.101563 6.04793 40.125 6.04793 40.152344 M 6.04793 40.152344 L 6.04793 32.152344 C 6.04793 32.179688 6.071367 32.203125 6.098711 32.203125 M 6.098711 32.203125 L 2.098711 32.203125 C 2.071367 32.203125 2.04793 32.179688 2.04793 32.152344 M 2.04793 32.152344 L 2.04793 24.152344 C 2.04793 24.125 2.071367 24.101563 2.098711 24.101563 M 2.098711 24.101563 L 6.098711 24.101563 C 6.071367 24.101563 6.04793 24.125 6.04793 24.152344 M 6.04793 24.152344 L 6.04793 16.152344 C 6.04793 16.179688 6.071367 16.203125 6.098711 16.203125 M 6.098711 16.203125 L 2.098711 16.203125 C 2.071367 16.203125 2.04793 16.179688 2.04793 16.152344 M 2.04793 16.152344 L 2.04793 6.152344 M 2.04793 6.152344 L 2.04793 2.152344 C 2.04793 2.125 2.071367 2.101563 2.098711 2.101563 " transform="matrix(1,0.000000000000000245,0.000000000000000245,-1,248.967695,182)"/>
<path style="fill:none;stroke-width:0.1;stroke-linecap:butt;stroke-linejoin:miter;stroke:rgb(0%,0%,0%);stroke-opacity:1;stroke-miterlimit:10;" d="M 101.167969 -68 C 107.824219 -68 113.21875 -62.605469 113.21875 -55.949219 M 113.21875 -55.949219 L 113.21875 -29.949219 M 113.21875 -29.949219 L 113.21875 -21.949219 C 113.21875 -21.921875 113.195312 -21.898438 113.167969 -21.898438 M 113.167969 -21.898438 L 109.167969 -21.898438 C 109.195312 -21.898438 109.21875 -21.921875 109.21875 -21.949219 M 109.21875 -21.949219 L 109.21875 -13.949219 C 109.21875 -13.976562 109.195312 -14 109.167969 -14 M 109.167969 -14 L 113.167969 -14 C 113.195312 -14 113.21875 -13.976562 113.21875 -13.949219 M 113.21875 -13.949219 L 113.21875 -5.949219 C 113.21875 -5.921875 113.195312 -5.898438 113.167969 -5.898438 M 113.167969 -5.898438 L 109.167969 -5.898438 C 109.195312 -5.898438 109.21875 -5.921875 109.21875 -5.949219 M 109.21875 -5.949219 L 109.21875 2.050781 C 109.21875 2.023438 109.195312 2 109.167969 2 M 109.167969 2 L 113.167969 2 C 113.195312 2 113.21875 2.023438 113.21875 2.050781 M 113.21875 2.050781 L 113.21875 10.050781 M 113.21875 10.050781 C 113.21875 10.078125 113.195312 10.101562 113.167969 10.101562 M 113.167969 10.101562 L 109.167969 10.101562 M 109.167969 10.101562 L 107.167969 10.101562 C 107.195312 10.101562 107.21875 10.078125 107.21875 10.050781 M 107.21875 10.050781 L 107.21875 14.050781 C 107.21875 14.078125 107.195312 14.101562 107.167969 14.101562 M 107.167969 14.101562 L 103.167969 14.101562 C 103.140625 14.101562 103.117188 14.078125 103.117188 14.050781 M 103.117188 14.050781 L 103.117188 10.050781 C 103.117188 10.078125 103.140625 10.101562 103.167969 10.101562 M 103.167969 10.101562 L 101.167969 10.101562 M 101.167969 10.101562 C 101.140625 10.101562 101.117188 10.078125 101.117188 10.050781 M 101.117188 10.050781 L 101.117188 10.050781 M 101.117188 10.050781 L 101.117188 -67.949219 M 129.167969 -68 C 122.511719 -68 117.117188 -62.605469 117.117188 -55.949219 M 117.117188 -55.949219 L 117.117188 -29.949219 M 117.117188 -29.949219 L 117.117188 -21.949219 C 117.117188 -21.921875 117.140625 -21.898438 117.167969 -21.898438 M 117.167969 -21.898438 L 121.167969 -21.898438 C 121.140625 -21.898438 121.117188 -21.921875 121.117188 -21.949219 M 121.117188 -21.949219 L 121.117188 -13.949219 C 121.117188 -13.976562 121.140625 -14 121.167969 -14 M 121.167969 -14 L 117.167969 -14 C 117.140625 -14 117.117188 -13.976562 117.117188 -13.949219 M 117.117188 -13.949219 L 117.117188 -5.949219 C 117.117188 -5.921875 117.140625 -5.898438 117.167969 -5.898438 M 117.167969 -5.898438 L 121.167969 -5.898438 C 121.140625 -5.898438 121.117188 -5.921875 121.117188 -5.949219 M 121.117188 -5.949219 L 121.117188 2.050781 C 121.117188 2.023438 121.140625 2 121.167969 2 M 121.167969 2 L 117.167969 2 C 117.140625 2 117.117188 2.023438 117.117188 2.050781 M 117.117188 2.050781 L 117.117188 10.050781 M 117.117188 10.050781 C 117.117188 10.078125 117.140625 10.101562 117.167969 10.101562 M 117.167969 10.101562 L 121.167969 10.101562 M 121.167969 10.101562 L 123.167969 10.101562 C 123.140625 10.101562 123.117188 10.078125 123.117188 10.050781 M 123.117188 10.050781 L 123.117188 14.050781 C 123.117188 14.078125 123.140625 14.101562 123.167969 14.101562 M 123.167969 14.101562 L 127.167969 14.101562 C 127.195312 14.101562 127.21875 14.078125 127.21875 14.050781 M 127.21875 14.050781 L 127.21875 10.050781 C 127.21875 10.078125 127.195312 10.101562 127.167969 10.101562 M 127.167969 10.101562 L 129.167969 10.101562 M 129.167969 10.101562 C 129.195312 10.101562 129.21875 10.078125 129.21875 10.050781 M 129.21875 10.050781 L 129.21875 10.050781 M 129.21875 10.050781 L 129.21875 -67.949219 M -160 2 L -155 2 C -155.027344 2 -155.050781 2.023438 -155.050781 2.050781 M -155.050781 2.050781 L -155.050781 -1.949219 C -155.050781 -1.976562 -155.027344 -2 -155 -2 M -155 -2 L -151 -2 C -150.972656 -2 -150.949219 -1.976562 -150.949219 -1.949219 M -150.949219 -1.949219 L -150.949219 2.050781 C -150.949219 2.023438 -150.972656 2 -151 2 M -151 2 L -147 2 C -147.027344 2 -147.050781 2.023438 -147.050781 2.050781 M -147.050781 2.050781 L -147.050781 -1.949219 C -147.050781 -1.976562 -147.027344 -2 -147 -2 M -147 -2 L -143 -2 C -142.972656 -2 -142.949219 -1.976562 -142.949219 -1.949219 M -142.949219 -1.949219 L -142.949219 2.050781 C -142.949219 2.023438 -142.972656 2 -143 2 M -143 2 L -139 2 C -139.027344 2 -139.050781 2.023438 -139.050781 2.050781 M -139.050781 2.050781 L -139.050781 -1.949219 C -139.050781 -1.976562 -139.027344 -2 -139 -2 M -139 -2 L -135 -2 C -134.972656 -2 -134.949219 -1.976562 -134.949219 -1.949219 M -134.949219 -1.949219 L -134.949219 2.050781 C -134.949219 2.023438 -134.972656 2 -135 2 M -135 2 L -131 2 C -131.027344 2 -131.050781 2.023438 -131.050781 2.050781 M -131.050781 2.050781 L -131.050781 -1.949219 C -131.050781 -1.976562 -131.027344 -2 -131 -2 M -131 -2 L -127 -2 C -126.972656 -2 -126.949219 -1.976562 -126.949219 -1.949219 M -126.949219 -1.949219 L -126.949219 2.050781 C -126.949219 2.023438 -126.972656 2 -127 2 M -127 2 L -123 2 C -123.027344 2 -123.050781 2.023438 -123.050781 2.050781 M -123.050781 2.050781 L -123.050781 -1.949219 C -123.050781 -1.976562 -123.027344 -2 -123 -2 M -123 -2 L -119 -2 C -118.972656 -2 -118.949219 -1.976562 -118.949219 -1.949219 M -118.949219 -1.949219 L -118.949219 2.050781 C -118.949219 2.023438 -118.972656 2 -119 2 M -119 2 L -115 2 C -115.027344 2 -115.050781 2.023438 -115.050781 2.050781 M -115.050781 2.050781 L -115.050781 -1.949219 C -115.050781 -1.976562 -115.027344 -2 -115 -2 M -115 -2 L -111 -2 C -110.972656 -2 -110.949219 -1.976562 -110.949219 -1.949219 M -110.949219 -1.949219 L -110.949219 2.050781 C -110.949219 2.023438 -110.972656 2 -111 2 M -111 2 L -107 2 C -107.027344 2 -107.050781 2.023438 -107.050781 2.050781 M -107.050781 2.050781 L -107.050781 -1.949219 C -107.050781 -1.976562 -107.027344 -2 -107 -2 M -107 -2 L -103 -2 C -102.972656 -2 -102.949219 -1.976562 -102.949219 -1.949219 M -102.949219 -1.949219 L -102.949219 2.050781 C -102.949219 2.023438 -102.972656 2 -103 2 M -103 2 L -99 2 C -99.027344 2 -99.050781 2.023438 -99.050781 2.050781 M -99.050781 2.050781 L -99.050781 -1.949219 C -99.050781 -1.976562 -99.027344 -2 -99 -2 M -99 -2 L -95 -2 C -94.972656 -2 -94.949219 -1.976562 -94.949219 -1.949219 M -94.949219 -1.949219 L -94.949219 2.050781 C -94.949219 2.023438 -94.972656 2 -95 2 M -95 2 L -90 2 C -89.972656 2 -89.949219 2.023438 -89.949219 2.050781 M -89.949219 2.050781 L -89.949219 7.050781 C -89.949219 7.023438 -89.972656 7 -90 7 M -90 7 L -86 7 C -85.972656 7 -85.949219 7.023438 -85.949219 7.050781 M -85.949219 7.050781 L -85.949219 11.050781 C -85.949219 11.078125 -85.972656 11.101562 -86 11.101562 M -86 11.101562 L -90 11.101562 C -89.972656 11.101562 -89.949219 11.078125 -89.949219 11.050781 M -89.949219 11.050781 L -89.949219 15.050781 C -89.949219 15.023438 -89.972656 15 -90 15 M -90 15 L -86 15 C -85.972656 15 -85.949219 15.023438 -85.949219 15.050781 M -85.949219 15.050781 L -85.949219 19.050781 C -85.949219 19.078125 -85.972656 19.101562 -86 19.101562 M -86 19.101562 L -90 19.101562 C -89.972656 19.101562 -89.949219 19.078125 -89.949219 19.050781 M -89.949219 19.050781 L -89.949219 23.050781 C -89.949219 23.023438 -89.972656 23 -90 23 M -90 23 L -86 23 C -85.972656 23 -85.949219 23.023438 -85.949219 23.050781 M -85.949219 23.050781 L -85.949219 27.050781 C -85.949219 27.078125 -85.972656 27.101562 -86 27.101562 M -86 27.101562 L -90 27.101562 C -89.972656 27.101562 -89.949219 27.078125 -89.949219 27.050781 M -89.949219 27.050781 L -89.949219 31.050781 C -89.949219 31.023438 -89.972656 31 -90 31 M -90 31 L -86 31 C -85.972656 31 -85.949219 31.023438 -85.949219 31.050781 M -85.949219 31.050781 L -85.949219 35.050781 C -85.949219 35.078125 -85.972656 35.101562 -86 35.101562 M -86 35.101562 L -90 35.101562 C -89.972656 35.101562 -89.949219 35.078125 -89.949219 35.050781 M -89.949219 35.050781 L -89.949219 39.050781 C -89.949219 39.023438 -89.972656 39 -90 39 M -90 39 L -86 39 C -85.972656 39 -85.949219 39.023438 -85.949219 39.050781 M -85.949219 39.050781 L -85.949219 43.050781 C -85.949219 43.078125 -85.972656 43.101562 -86 43.101562 M -86 43.101562 L -90 43.101562 C -89.972656 43.101562 -89.949219 43.078125 -89.949219 43.050781 M -89.949219 43.050781 L -89.949219 47.050781 C -89.949219 47.023438 -89.972656 47 -90 47 M -90 47 L -86 47 C -85.972656 47 -85.949219 47.023438 -85.949219 47.050781 M -85.949219 47.050781 L -85.949219 51.050781 C -85.949219 51.078125 -85.972656 51.101562 -86 51.101562 M -86 51.101562 L -90 51.101562 C -89.972656 51.101562 -89.949219 51.078125 -89.949219 51.050781 M -89.949219 51.050781 L -89.949219 55.050781 C -89.949219 55.023438 -89.972656 55 -90 55 M -90 55 L -86 55 C -85.972656 55 -85.949219 55.023438 -85.949219 55.050781 M -85.949219 55.050781 L -85.949219 59.050781 C -85.949219 59.078125 -85.972656 59.101562 -86 59.101562 M -86 59.101562 L -90 59.101562 C -89.972656 59.101562 -89.949219 59.078125 -89.949219 59.050781 M -89.949219 59.050781 L -89.949219 63.050781 C -89.949219 63.023438 -89.972656 63 -90 63 M -90 63 L -86 63 C -85.972656 63 -85.949219 63.023438 -85.949219 63.050781 M -85.949219 63.050781 L -85.949219 67.050781 C -85.949219 67.078125 -85.972656 67.101562 -86 67.101562 M -86 67.101562 L -90 67.101562 C -89.972656 67.101562 -89.949219 67.078125 -89.949219 67.050781 M -89.949219 67.050781 L -89.949219 72.050781 C -89.949219 88.648438 -103.402344 102.101562 -120 102.101562 M -120 102.101562 L -160 102.101562 C -160.027344 102.101562 -160.050781 102.078125 -160.050781 102.050781 M -160.050781 102.050781 L -160.050781 98.050781 C -160.050781 98.078125 -160.027344 98.101562 -160 98.101562 M -160 98.101562 L -164 98.101562 C -164.027344 98.101562 -164.050781 98.078125 -164.050781 98.050781 M -164.050781 98.050781 L -164.050781 94.050781 C -164.050781 94.023438 -164.027344 94 -164 94 M -164 94 L -160 94 C -160.027344 94 -160.050781 94.023438 -160.050781 94.050781 M -160.050781 94.050781 L -160.050781 90.050781 C -160.050781 90.078125 -160.027344 90.101562 -160 90.101562 M -160 90.101562 L -164 90.101562 C -164.027344 90.101562 -164.050781 90.078125 -164.050781 90.050781 M -164.050781 90.050781 L -164.050781 86.050781 C -164.050781 86.023438 -164.027344 86 -164 86 M -164 86 L -160 86 C -160.027344 86 -160.050781 86.023438 -160.050781 86.050781 M -160.050781 86.050781 L -160.050781 82.050781 C -160.050781 82.078125 -160.027344 82.101562 -160 82.101562 M -160 82.101562 L -164 82.101562 C -164.027344 82.101562 -164.050781 82.078125 -164.050781 82.050781 M -164.050781 82.050781 L -164.050781 78.050781 C -164.050781 78.023438 -164.027344 78 -164 78 M -164 78 L -160 78 C -160.027344 78 -160.050781 78.023438 -160.050781 78.050781 M -160.050781 78.050781 L -160.050781 74.050781 C -160.050781 74.078125 -160.027344 74.101562 -160 74.101562 M -160 74.101562 L -164 74.101562 C -164.027344 74.101562 -164.050781 74.078125 -164.050781 74.050781 M -164.050781 74.050781 L -164.050781 70.050781 C -164.050781 70.023438 -164.027344 70 -164 70 M -164 70 L -160 70 C -160.027344 70 -160.050781 70.023438 -160.050781 70.050781 M -160.050781 70.050781 L -160.050781 66.050781 C -160.050781 66.078125 -160.027344 66.101562 -160 66.101562 M -160 66.101562 L -164 66.101562 C -164.027344 66.101562 -164.050781 66.078125 -164.050781 66.050781 M -164.050781 66.050781 L -164.050781 62.050781 C -164.050781 62.023438 -164.027344 62 -164 62 M -164 62 L -160 62 C -160.027344 62 -160.050781 62.023438 -160.050781 62.050781 M -160.050781 62.050781 L -160.050781 58.050781 C -160.050781 58.078125 -160.027344 58.101562 -160 58.101562 M -160 58.101562 L -164 58.101562 C -164.027344 58.101562 -164.050781 58.078125 -164.050781 58.050781 M -164.050781 58.050781 L -164.050781 54.050781 C -164.050781 54.023438 -164.027344 54 -164 54 M -164 54 L -160 54 C -160.027344 54 -160.050781 54.023438 -160.050781 54.050781 M -160.050781 54.050781 L -160.050781 50.050781 C -160.050781 50.078125 -160.027344 50.101562 -160 50.101562 M -160 50.101562 L -164 50.101562 C -164.027344 50.101562 -164.050781 50.078125 -164.050781 50.050781 M -164.050781 50.050781 L -164.050781 46.050781 C -164.050781 46.023438 -164.027344 46 -164 46 M -164 46 L -160 46 C -160.027344 46 -160.050781 46.023438 -160.050781 46.050781 M -160.050781 46.050781 L -160.050781 42.050781 C -160.050781 42.078125 -160.027344 42.101562 -160 42.101562 M -160 42.101562 L -164 42.101562 C -164.027344 42.101562 -164.050781 42.078125 -164.050781 42.050781 M -164.050781 42.050781 L -164.050781 38.050781 C -164.050781 38.023438 -164.027344 38 -164 38 M -164 38 L -160 38 C -160.027344 38 -160.050781 38.023438 -160.050781 38.050781 M -160.050781 38.050781 L -160.050781 34.050781 C -160.050781 34.078125 -160.027344 34.101562 -160 34.101562 M -160 34.101562 L -164 34.101562 C -164.027344 34.101562 -164.050781 34.078125 -164.050781 34.050781 M -164.050781 34.050781 L -164.050781 30.050781 C -164.050781 30.023438 -164.027344 30 -164 30 M -164 30 L -160 30 C -160.027344 30 -160.050781 30.023438 -160.050781 30.050781 M -160.050781 30.050781 L -160.050781 26.050781 C -160.050781 26.078125 -160.027344 26.101562 -160 26.101562 M -160 26.101562 L -164 26.101562 C -164.027344 26.101562 -164.050781 26.078125 -164.050781 26.050781 M -164.050781 26.050781 L -164.050781 22.050781 C -164.050781 22.023438 -164.027344 22 -164 22 M -164 22 L -160 22 C -160.027344 22 -160.050781 22.023438 -160.050781 22.050781 M -160.050781 22.050781 L -160.050781 18.050781 C -160.050781 18.078125 -160.027344 18.101562 -160 18.101562 M -160 18.101562 L -164 18.101562 C -164.027344 18.101562 -164.050781 18.078125 -164.050781 18.050781 M -164.050781 18.050781 L -164.050781 14.050781 C -164.050781 14.023438 -164.027344 14 -164 14 M -164 14 L -160 14 C -160.027344 14 -160.050781 14.023438 -160.050781 14.050781 M -160.050781 14.050781 L -160.050781 10.050781 C -160.050781 10.078125 -160.027344 10.101562 -160 10.101562 M -160 10.101562 L -164 10.101562 C -164.027344 10.101562 -164.050781 10.078125 -164.050781 10.050781 M -164.050781 10.050781 L -164.050781 6.050781 C -164.050781 6.023438 -164.027344 6 -164 6 M -164 6 L -160 6 C -160.027344 6 -160.050781 6.023438 -160.050781 6.050781 M -160.050781 6.050781 L -160.050781 2.050781 C -160.050781 2.023438 -160.027344 2 -160 2 M -8 4 L -13 4 C -12.972656 4 -12.949219 4.023438 -12.949219 4.050781 M -12.949219 4.050781 L -12.949219 0.0507812 C -12.949219 0.0234375 -12.972656 0 -13 0 M -13 0 L -17 0 C -17.027344 0 -17.050781 0.0234375 -17.050781 0.0507812 M -17.050781 0.0507812 L -17.050781 4.050781 C -17.050781 4.023438 -17.027344 4 -17 4 M -17 4 L -21 4 C -20.972656 4 -20.949219 4.023438 -20.949219 4.050781 M -20.949219 4.050781 L -20.949219 0.0507812 C -20.949219 0.0234375 -20.972656 0 -21 0 M -21 0 L -25 0 C -25.027344 0 -25.050781 0.0234375 -25.050781 0.0507812 M -25.050781 0.0507812 L -25.050781 4.050781 C -25.050781 4.023438 -25.027344 4 -25 4 M -25 4 L -29 4 C -28.972656 4 -28.949219 4.023438 -28.949219 4.050781 M -28.949219 4.050781 L -28.949219 0.0507812 C -28.949219 0.0234375 -28.972656 0 -29 0 M -29 0 L -33 0 C -33.027344 0 -33.050781 0.0234375 -33.050781 0.0507812 M -33.050781 0.0507812 L -33.050781 4.050781 C -33.050781 4.023438 -33.027344 4 -33 4 M -33 4 L -37 4 C -36.972656 4 -36.949219 4.023438 -36.949219 4.050781 M -36.949219 4.050781 L -36.949219 0.0507812 C -36.949219 0.0234375 -36.972656 0 -37 0 M -37 0 L -41 0 C -41.027344 0 -41.050781 0.0234375 -41.050781 0.0507812 M -41.050781 0.0507812 L -41.050781 4.050781 C -41.050781 4.023438 -41.027344 4 -41 4 M -41 4 L -45 4 C -44.972656 4 -44.949219 4.023438 -44.949219 4.050781 M -44.949219 4.050781 L -44.949219 0.0507812 C -44.949219 0.0234375 -44.972656 0 -45 0 M -45 0 L -49 0 C -49.027344 0 -49.050781 0.0234375 -49.050781 0.0507812 M -49.050781 0.0507812 L -49.050781 4.050781 C -49.050781 4.023438 -49.027344 4 -49 4 M -49 4 L -53 4 C -52.972656 4 -52.949219 4.023438 -52.949219 4.050781 M -52.949219 4.050781 L -52.949219 0.0507812 C -52.949219 0.0234375 -52.972656 0 -53 0 M -53 0 L -57 0 C -57.027344 0 -57.050781 0.0234375 -57.050781 0.0507812 M -57.050781 0.0507812 L -57.050781 4.050781 C -57.050781 4.023438 -57.027344 4 -57 4 M -57 4 L -61 4 C -60.972656 4 -60.949219 4.023438 -60.949219 4.050781 M -60.949219 4.050781 L -60.949219 0.0507812 C -60.949219 0.0234375 -60.972656 0 -61 0 M -61 0 L -65 0 C -65.027344 0 -65.050781 0.0234375 -65.050781 0.0507812 M -65.050781 0.0507812 L -65.050781 4.050781 C -65.050781 4.023438 -65.027344 4 -65 4 M -65 4 L -69 4 C -68.972656 4 -68.949219 4.023438 -68.949219 4.050781 M -68.949219 4.050781 L -68.949219 0.0507812 C -68.949219 0.0234375 -68.972656 0 -69 0 M -69 0 L -73 0 C -73.027344 0 -73.050781 0.0234375 -73.050781 0.0507812 M -73.050781 0.0507812 L -73.050781 4.050781 C -73.050781 4.023438 -73.027344 4 -73 4 M -73 4 L -78 4 C -78.027344 4 -78.050781 4.023438 -78.050781 4.050781 M -78.050781 4.050781 L -78.050781 9.050781 C -78.050781 9.023438 -78.027344 9 -78 9 M -78 9 L -82 9 C -82.027344 9 -82.050781 9.023438 -82.050781 9.050781 M -82.050781 9.050781 L -82.050781 13.050781 C -82.050781 13.078125 -82.027344 13.101562 -82 13.101562 M -82 13.101562 L -78 13.101562 C -78.027344 13.101562 -78.050781 13.078125 -78.050781 13.050781 M -78.050781 13.050781 L -78.050781 17.050781 C -78.050781 17.023438 -78.027344 17 -78 17 M -78 17 L -82 17 C -82.027344 17 -82.050781 17.023438 -82.050781 17.050781 M -82.050781 17.050781 L -82.050781 21.050781 C -82.050781 21.078125 -82.027344 21.101562 -82 21.101562 M -82 21.101562 L -78 21.101562 C -78.027344 21.101562 -78.050781 21.078125 -78.050781 21.050781 M -78.050781 21.050781 L -78.050781 25.050781 C -78.050781 25.023438 -78.027344 25 -78 25 M -78 25 L -82 25 C -82.027344 25 -82.050781 25.023438 -82.050781 25.050781 M -82.050781 25.050781 L -82.050781 29.050781 C -82.050781 29.078125 -82.027344 29.101562 -82 29.101562 M -82 29.101562 L -78 29.101562 C -78.027344 29.101562 -78.050781 29.078125 -78.050781 29.050781 M -78.050781 29.050781 L -78.050781 33.050781 C -78.050781 33.023438 -78.027344 33 -78 33 M -78 33 L -82 33 C -82.027344 33 -82.050781 33.023438 -82.050781 33.050781 M -82.050781 33.050781 L -82.050781 37.050781 C -82.050781 37.078125 -82.027344 37.101562 -82 37.101562 M -82 37.101562 L -78 37.101562 C -78.027344 37.101562 -78.050781 37.078125 -78.050781 37.050781 M -78.050781 37.050781 L -78.050781 41.050781 C -78.050781 41.023438 -78.027344 41 -78 41 M -78 41 L -82 41 C -82.027344 41 -82.050781 41.023438 -82.050781 41.050781 M -82.050781 41.050781 L -82.050781 45.050781 C -82.050781 45.078125 -82.027344 45.101562 -82 45.101562 M -82 45.101562 L -78 45.101562 C -78.027344 45.101562 -78.050781 45.078125 -78.050781 45.050781 M -78.050781 45.050781 L -78.050781 49.050781 C -78.050781 49.023438 -78.027344 49 -78 49 M -78 49 L -82 49 C -82.027344 49 -82.050781 49.023438 -82.050781 49.050781 M -82.050781 49.050781 L -82.050781 53.050781 C -82.050781 53.078125 -82.027344 53.101562 -82 53.101562 M -82 53.101562 L -78 53.101562 C -78.027344 53.101562 -78.050781 53.078125 -78.050781 53.050781 M -78.050781 53.050781 L -78.050781 57.050781 C -78.050781 57.023438 -78.027344 57 -78 57 M -78 57 L -82 57 C -82.027344 57 -82.050781 57.023438 -82.050781 57.050781 M -82.050781 57.050781 L -82.050781 61.050781 C -82.050781 61.078125 -82.027344 61.101562 -82 61.101562 M -82 61.101562 L -78 61.101562 C -78.027344 61.101562 -78.050781 61.078125 -78.050781 61.050781 M -78.050781 61.050781 L -78.050781 65.050781 C -78.050781 65.023438 -78.027344 65 -78 65 M -78 65 L -82 65 C -82.027344 65 -82.050781 65.023438 -82.050781 65.050781 M -82.050781 65.050781 L -82.050781 69.050781 C -82.050781 69.078125 -82.027344 69.101562 -82 69.101562 M -82 69.101562 L -78 69.101562 C -78.027344 69.101562 -78.050781 69.078125 -78.050781 69.050781 M -78.050781 69.050781 L -78.050781 74.050781 C -78.050781 90.648438 -64.597656 104.101562 -48 104.101562 M -48 104.101562 L -8 104.101562 C -7.972656 104.101562 -7.949219 104.078125 -7.949219 104.050781 M -7.949219 104.050781 L -7.949219 100.050781 C -7.949219 100.078125 -7.972656 100.101562 -8 100.101562 M -8 100.101562 L -4 100.101562 C -3.972656 100.101562 -3.949219 100.078125 -3.949219 100.050781 M -3.949219 100.050781 L -3.949219 96.050781 C -3.949219 96.023438 -3.972656 96 -4 96 M -4 96 L -8 96 C -7.972656 96 -7.949219 96.023438 -7.949219 96.050781 M -7.949219 96.050781 L -7.949219 92.050781 C -7.949219 92.078125 -7.972656 92.101562 -8 92.101562 M -8 92.101562 L -4 92.101562 C -3.972656 92.101562 -3.949219 92.078125 -3.949219 92.050781 M -3.949219 92.050781 L -3.949219 88.050781 C -3.949219 88.023438 -3.972656 88 -4 88 M -4 88 L -8 88 C -7.972656 88 -7.949219 88.023438 -7.949219 88.050781 M -7.949219 88.050781 L -7.949219 84.050781 C -7.949219 84.078125 -7.972656 84.101562 -8 84.101562 M -8 84.101562 L -4 84.101562 C -3.972656 84.101562 -3.949219 84.078125 -3.949219 84.050781 M -3.949219 84.050781 L -3.949219 80.050781 C -3.949219 80.023438 -3.972656 80 -4 80 M -4 80 L -8 80 C -7.972656 80 -7.949219 80.023438 -7.949219 80.050781 M -7.949219 80.050781 L -7.949219 76.050781 C -7.949219 76.078125 -7.972656 76.101562 -8 76.101562 M -8 76.101562 L -4 76.101562 C -3.972656 76.101562 -3.949219 76.078125 -3.949219 76.050781 M -3.949219 76.050781 L -3.949219 72.050781 C -3.949219 72.023438 -3.972656 72 -4 72 M -4 72 L -8 72 C -7.972656 72 -7.949219 72.023438 -7.949219 72.050781 M -7.949219 72.050781 L -7.949219 68.050781 C -7.949219 68.078125 -7.972656 68.101562 -8 68.101562 M -8 68.101562 L -4 68.101562 C -3.972656 68.101562 -3.949219 68.078125 -3.949219 68.050781 M -3.949219 68.050781 L -3.949219 64.050781 C -3.949219 64.023438 -3.972656 64 -4 64 M -4 64 L -8 64 C -7.972656 64 -7.949219 64.023438 -7.949219 64.050781 M -7.949219 64.050781 L -7.949219 60.050781 C -7.949219 60.078125 -7.972656 60.101562 -8 60.101562 M -8 60.101562 L -4 60.101562 C -3.972656 60.101562 -3.949219 60.078125 -3.949219 60.050781 M -3.949219 60.050781 L -3.949219 56.050781 C -3.949219 56.023438 -3.972656 56 -4 56 M -4 56 L -8 56 C -7.972656 56 -7.949219 56.023438 -7.949219 56.050781 M -7.949219 56.050781 L -7.949219 52.050781 C -7.949219 52.078125 -7.972656 52.101562 -8 52.101562 M -8 52.101562 L -4 52.101562 C -3.972656 52.101562 -3.949219 52.078125 -3.949219 52.050781 M -3.949219 52.050781 L -3.949219 48.050781 C -3.949219 48.023438 -3.972656 48 -4 48 M -4 48 L -8 48 C -7.972656 48 -7.949219 48.023438 -7.949219 48.050781 M -7.949219 48.050781 L -7.949219 44.050781 C -7.949219 44.078125 -7.972656 44.101562 -8 44.101562 M -8 44.101562 L -4 44.101562 C -3.972656 44.101562 -3.949219 44.078125 -3.949219 44.050781 M -3.949219 44.050781 L -3.949219 40.050781 C -3.949219 40.023438 -3.972656 40 -4 40 M -4 40 L -8 40 C -7.972656 40 -7.949219 40.023438 -7.949219 40.050781 M -7.949219 40.050781 L -7.949219 36.050781 C -7.949219 36.078125 -7.972656 36.101562 -8 36.101562 M -8 36.101562 L -4 36.101562 C -3.972656 36.101562 -3.949219 36.078125 -3.949219 36.050781 M -3.949219 36.050781 L -3.949219 32.050781 C -3.949219 32.023438 -3.972656 32 -4 32 M -4 32 L -8 32 C -7.972656 32 -7.949219 32.023438 -7.949219 32.050781 M -7.949219 32.050781 L -7.949219 28.050781 C -7.949219 28.078125 -7.972656 28.101562 -8 28.101562 M -8 28.101562 L -4 28.101562 C -3.972656 28.101562 -3.949219 28.078125 -3.949219 28.050781 M -3.949219 28.050781 L -3.949219 24.050781 C -3.949219 24.023438 -3.972656 24 -4 24 M -4 24 L -8 24 C -7.972656 24 -7.949219 24.023438 -7.949219 24.050781 M -7.949219 24.050781 L -7.949219 20.050781 C -7.949219 20.078125 -7.972656 20.101562 -8 20.101562 M -8 20.101562 L -4 20.101562 C -3.972656 20.101562 -3.949219 20.078125 -3.949219 20.050781 M -3.949219 20.050781 L -3.949219 16.050781 C -3.949219 16.023438 -3.972656 16 -4 16 M -4 16 L -8 16 C -7.972656 16 -7.949219 16.023438 -7.949219 16.050781 M -7.949219 16.050781 L -7.949219 12.050781 C -7.949219 12.078125 -7.972656 12.101562 -8 12.101562 M -8 12.101562 L -4 12.101562 C -3.972656 12.101562 -3.949219 12.078125 -3.949219 12.050781 M -3.949219 12.050781 L -3.949219 8.050781 C -3.949219 8.023438 -3.972656 8 -4 8 M -4 8 L -8 8 C -7.972656 8 -7.949219 8.023438 -7.949219 8.050781 M -7.949219 8.050781 L -7.949219 4.050781 C -7.949219 4.023438 -7.972656 4 -8 4 M 2.101562 6.101562 L 6.101562 6.101562 M 6.101562 6.101562 L 11.101562 6.101562 C 11.074219 6.101562 11.050781 6.125 11.050781 6.152344 M 11.050781 6.152344 L 11.050781 2.152344 C 11.050781 2.125 11.074219 2.101562 11.101562 2.101562 M 11.101562 2.101562 L 19.101562 2.101562 C 19.128906 2.101562 19.152344 2.125 19.152344 2.152344 M 19.152344 2.152344 L 19.152344 6.152344 C 19.152344 6.125 19.128906 6.101562 19.101562 6.101562 M 19.101562 6.101562 L 27.101562 6.101562 C 27.074219 6.101562 27.050781 6.125 27.050781 6.152344 M 27.050781 6.152344 L 27.050781 2.152344 C 27.050781 2.125 27.074219 2.101562 27.101562 2.101562 M 27.101562 2.101562 L 35.101562 2.101562 C 35.128906 2.101562 35.152344 2.125 35.152344 2.152344 M 35.152344 2.152344 L 35.152344 6.152344 C 35.152344 6.125 35.128906 6.101562 35.101562 6.101562 M 35.101562 6.101562 L 43.101562 6.101562 C 43.074219 6.101562 43.050781 6.125 43.050781 6.152344 M 43.050781 6.152344 L 43.050781 2.152344 C 43.050781 2.125 43.074219 2.101562 43.101562 2.101562 M 43.101562 2.101562 L 51.101562 2.101562 C 51.128906 2.101562 51.152344 2.125 51.152344 2.152344 M 51.152344 2.152344 L 51.152344 6.152344 C 51.152344 6.125 51.128906 6.101562 51.101562 6.101562 M 51.101562 6.101562 L 56.101562 6.101562 M 56.101562 6.101562 L 60.101562 6.101562 C 60.128906 6.101562 60.152344 6.125 60.152344 6.152344 M 60.152344 6.152344 L 60.152344 6.152344 M 60.152344 6.152344 L 60.152344 12.152344 C 60.152344 12.179688 60.128906 12.203125 60.101562 12.203125 M 60.101562 12.203125 L 56.101562 12.203125 C 56.128906 12.203125 56.152344 12.179688 56.152344 12.152344 M 56.152344 12.152344 L 56.152344 20.152344 C 56.152344 20.125 56.128906 20.101562 56.101562 20.101562 M 56.101562 20.101562 L 60.101562 20.101562 C 60.128906 20.101562 60.152344 20.125 60.152344 20.152344 M 60.152344 20.152344 L 60.152344 28.152344 C 60.152344 28.179688 60.128906 28.203125 60.101562 28.203125 M 60.101562 28.203125 L 56.101562 28.203125 C 56.128906 28.203125 56.152344 28.179688 56.152344 28.152344 M 56.152344 28.152344 L 56.152344 36.152344 C 56.152344 36.125 56.128906 36.101562 56.101562 36.101562 M 56.101562 36.101562 L 60.101562 36.101562 C 60.128906 36.101562 60.152344 36.125 60.152344 36.152344 M 60.152344 36.152344 L 60.152344 44.152344 C 60.152344 44.179688 60.128906 44.203125 60.101562 44.203125 M 60.101562 44.203125 L 56.101562 44.203125 C 56.128906 44.203125 56.152344 44.179688 56.152344 44.152344 M 56.152344 44.152344 L 56.152344 52.152344 C 56.152344 52.125 56.128906 52.101562 56.101562 52.101562 M 56.101562 52.101562 L 60.101562 52.101562 C 60.128906 52.101562 60.152344 52.125 60.152344 52.152344 M 60.152344 52.152344 L 60.152344 60.152344 C 60.152344 60.179688 60.128906 60.203125 60.101562 60.203125 M 60.101562 60.203125 L 56.101562 60.203125 C 56.128906 60.203125 56.152344 60.179688 56.152344 60.152344 M 56.152344 60.152344 L 56.152344 68.152344 C 56.152344 68.125 56.128906 68.101562 56.101562 68.101562 M 56.101562 68.101562 L 60.101562 68.101562 C 60.128906 68.101562 60.152344 68.125 60.152344 68.152344 M 60.152344 68.152344 L 60.152344 76.152344 C 60.152344 76.179688 60.128906 76.203125 60.101562 76.203125 M 60.101562 76.203125 L 56.101562 76.203125 C 56.128906 76.203125 56.152344 76.179688 56.152344 76.152344 M 56.152344 76.152344 L 56.152344 84.152344 C 56.152344 84.125 56.128906 84.101562 56.101562 84.101562 M 56.101562 84.101562 L 60.101562 84.101562 C 60.128906 84.101562 60.152344 84.125 60.152344 84.152344 M 60.152344 84.152344 L 60.152344 92.152344 C 60.152344 92.179688 60.128906 92.203125 60.101562 92.203125 M 60.101562 92.203125 L 56.101562 92.203125 C 56.128906 92.203125 56.152344 92.179688 56.152344 92.152344 M 56.152344 92.152344 L 56.152344 100.152344 C 56.152344 100.125 56.128906 100.101562 56.101562 100.101562 M 56.101562 100.101562 L 60.101562 100.101562 C 60.128906 100.101562 60.152344 100.125 60.152344 100.152344 M 60.152344 100.152344 L 60.152344 106.152344 M 60.152344 106.152344 C 60.152344 106.179688 60.128906 106.203125 60.101562 106.203125 M 60.101562 106.203125 L 56.101562 106.203125 M 56.101562 106.203125 L 6.101562 106.203125 M 6.101562 106.203125 L 2.101562 106.203125 C 2.074219 106.203125 2.050781 106.179688 2.050781 106.152344 M 2.050781 106.152344 L 2.050781 106.152344 M 2.050781 106.152344 L 2.050781 100.152344 C 2.050781 100.125 2.074219 100.101562 2.101562 100.101562 M 2.101562 100.101562 L 6.101562 100.101562 C 6.074219 100.101562 6.050781 100.125 6.050781 100.152344 M 6.050781 100.152344 L 6.050781 92.152344 C 6.050781 92.179688 6.074219 92.203125 6.101562 92.203125 M 6.101562 92.203125 L 2.101562 92.203125 C 2.074219 92.203125 2.050781 92.179688 2.050781 92.152344 M 2.050781 92.152344 L 2.050781 84.152344 C 2.050781 84.125 2.074219 84.101562 2.101562 84.101562 M 2.101562 84.101562 L 6.101562 84.101562 C 6.074219 84.101562 6.050781 84.125 6.050781 84.152344 M 6.050781 84.152344 L 6.050781 76.152344 C 6.050781 76.179688 6.074219 76.203125 6.101562 76.203125 M 6.101562 76.203125 L 2.101562 76.203125 C 2.074219 76.203125 2.050781 76.179688 2.050781 76.152344 M 2.050781 76.152344 L 2.050781 68.152344 C 2.050781 68.125 2.074219 68.101562 2.101562 68.101562 M 2.101562 68.101562 L 6.101562 68.101562 C 6.074219 68.101562 6.050781 68.125 6.050781 68.152344 M 6.050781 68.152344 L 6.050781 60.152344 C 6.050781 60.179688 6.074219 60.203125 6.101562 60.203125 M 6.101562 60.203125 L 2.101562 60.203125 C 2.074219 60.203125 2.050781 60.179688 2.050781 60.152344 M 2.050781 60.152344 L 2.050781 52.152344 C 2.050781 52.125 2.074219 52.101562 2.101562 52.101562 M 2.101562 52.101562 L 6.101562 52.101562 C 6.074219 52.101562 6.050781 52.125 6.050781 52.152344 M 6.050781 52.152344 L 6.050781 44.152344 C 6.050781 44.179688 6.074219 44.203125 6.101562 44.203125 M 6.101562 44.203125 L 2.101562 44.203125 C 2.074219 44.203125 2.050781 44.179688 2.050781 44.152344 M 2.050781 44.152344 L 2.050781 36.152344 C 2.050781 36.125 2.074219 36.101562 2.101562 36.101562 M 2.101562 36.101562 L 6.101562 36.101562 C 6.074219 36.101562 6.050781 36.125 6.050781 36.152344 M 6.050781 36.152344 L 6.050781 28.152344 C 6.050781 28.179688 6.074219 28.203125 6.101562 28.203125 M 6.101562 28.203125 L 2.101562 28.203125 C 2.074219 28.203125 2.050781 28.179688 2.050781 28.152344 M 2.050781 28.152344 L 2.050781 20.152344 C 2.050781 20.125 2.074219 20.101562 2.101562 20.101562 M 2.101562 20.101562 L 6.101562 20.101562 C 6.074219 20.101562 6.050781 20.125 6.050781 20.152344 M 6.050781 20.152344 L 6.050781 12.152344 C 6.050781 12.179688 6.074219 12.203125 6.101562 12.203125 M 6.101562 12.203125 L 2.101562 12.203125 C 2.074219 12.203125 2.050781 12.179688 2.050781 12.152344 M 2.050781 12.152344 L 2.050781 6.152344 M 2.050781 6.152344 C 2.050781 6.125 2.074219 6.101562 2.101562 6.101562 " transform="matrix(1,0,0,-1,168,110)"/>
</g>
</svg>
