<?xml version='1.0' encoding='utf-8'?>
<svg height="188.60mm" viewBox="0.0 0.0 282.07 188.60" width="282.07mm" xmlns="http://www.w3.org/2000/svg" xmlns:cc="http://creativecommons.org/ns#" xmlns:dc="http://purl.org/dc/elements/1.1/" xmlns:inkscape="http://www.inkscape.org/namespaces/inkscape" xmlns:rdf="http://www.w3.org/1999/02/22-rdf-syntax-ns#" xmlns:svg="http://www.w3.org/2000/svg" xmlns:xlink="http://www.w3.org/1999/xlink">
<!--
FlexBox3 - Box with living hinge

Created with Boxes.py (https://festi.info/boxes.py)
-->
<title>FlexBox3</title>
<metadata>
<rdf:RDF><cc:Work>
<dc:title>FlexBox - FlexBox3</dc:title>
<dc:description>Box with living hinge

Created with Boxes.py (https://festi.info/boxes.py)
</dc:description>
</cc:Work></rdf:RDF></metadata>
<g id="p-0" style="fill:none;stroke-linecap:round;stroke-linejoin:round;">
  <path d="M 10.400 178.600 H 110.400 V 168.600 H 10.400 V 178.600 Z" stroke="rgb(0,0,0)" stroke-width="0.20" />
  <text dominant-baseline="hanging" font-size="8px" style="font-family: sans-serif ; font-weight: normal; font-style: normal; fill: rgb(255,0,0)" text-anchor="middle" transform="matrix( 1.000 0.000 0.000 1.000 60.400 169.600 )">100mm, burn:0.10mm</text>
</g>
<g id="p-1" style="fill:none;stroke-linecap:round;stroke-linejoin:round;">
  <path d="M 13.400 162.900 H 18.400 C 18.455 162.900 18.500 162.855 18.500 162.800 V 159.900 C 18.500 159.800 18.400 159.900 18.500 159.900 H 24.300 C 24.400 159.900 24.300 159.800 24.300 159.900 V 162.800 C 24.300 162.855 24.345 162.900 24.400 162.900 H 30.400 C 30.455 162.900 30.500 162.855 30.500 162.800 V 159.900 C 30.500 159.800 30.400 159.900 30.500 159.900 H 36.300 C 36.400 159.900 36.300 159.800 36.300 159.900 V 162.800 C 36.300 162.855 36.345 162.900 36.400 162.900 H 42.400 C 42.455 162.900 42.500 162.855 42.500 162.800 V 159.900 C 42.500 159.800 42.400 159.900 42.500 159.900 H 48.300 C 48.400 159.900 48.300 159.800 48.300 159.900 V 162.800 C 48.300 162.855 48.345 162.900 48.400 162.900 H 54.400 C 54.455 162.900 54.500 162.855 54.500 162.800 V 159.900 C 54.500 159.800 54.400 159.900 54.500 159.900 H 60.300 C 60.400 159.900 60.300 159.800 60.300 159.900 V 162.800 C 60.300 162.855 60.345 162.900 60.400 162.900 H 66.400 C 66.455 162.900 66.500 162.855 66.500 162.800 V 159.900 C 66.500 159.800 66.400 159.900 66.500 159.900 H 72.300 C 72.400 159.900 72.300 159.800 72.300 159.900 V 162.800 C 72.300 162.855 72.345 162.900 72.400 162.900 H 77.400 H 122.068 C 122.168 162.900 122.068 162.800 122.068 162.900 V 163.800 C 122.068 163.855 122.112 163.900 122.168 163.900 H 125.568 C 125.668 163.900 125.568 163.800 125.568 163.900 V 166.800 C 125.568 166.855 125.612 166.900 125.668 166.900 H 131.668 C 131.723 166.900 131.768 166.855 131.768 166.800 V 163.900 C 131.768 163.800 131.668 163.900 131.768 163.900 H 137.568 C 137.668 163.900 137.568 163.800 137.568 163.900 V 166.800 C 137.568 166.855 137.612 166.900 137.668 166.900 H 143.668 C 143.723 166.900 143.768 166.855 143.768 166.800 V 163.900 C 143.768 163.800 143.668 163.900 143.768 163.900 H 149.568 C 149.668 163.900 149.568 163.800 149.568 163.900 V 166.800 C 149.568 166.855 149.612 166.900 149.668 166.900 H 155.668 C 155.723 166.900 155.768 166.855 155.768 166.800 V 163.900 C 155.768 163.800 155.668 163.900 155.768 163.900 H 159.168 C 159.223 163.900 159.268 163.855 159.268 163.800 V 158.900 C 159.268 158.800 159.168 158.900 159.268 158.900 H 162.168 C 162.223 158.900 162.268 158.855 162.268 158.800 V 152.800 C 162.268 152.745 162.223 152.700 162.168 152.700 H 159.268 C 159.168 152.700 159.268 152.800 159.268 152.700 V 146.900 C 159.268 146.800 159.168 146.900 159.268 146.900 H 162.168 C 162.223 146.900 162.268 146.855 162.268 146.800 V 140.800 C 162.268 140.745 162.223 140.700 162.168 140.700 H 159.268 C 159.168 140.700 159.268 140.800 159.268 140.700 V 134.900 C 159.268 134.800 159.168 134.900 159.268 134.900 H 162.168 C 162.223 134.900 162.268 134.855 162.268 134.800 V 128.800 C 162.268 128.745 162.223 128.700 162.168 128.700 H 159.268 C 159.168 128.700 159.268 128.800 159.268 128.700 V 122.900 C 159.268 122.800 159.168 122.900 159.268 122.900 H 162.168 C 162.223 122.900 162.268 122.855 162.268 122.800 V 116.800 C 162.268 116.745 162.223 116.700 162.168 116.700 H 159.268 C 159.168 116.700 159.268 116.800 159.268 116.700 V 111.800 C 159.268 111.745 159.223 111.700 159.168 111.700 H 155.768 C 155.668 111.700 155.768 111.800 155.768 111.700 V 108.800 C 155.768 108.745 155.723 108.700 155.668 108.700 H 149.668 C 149.612 108.700 149.568 108.745 149.568 108.800 V 111.700 C 149.568 111.800 149.668 111.700 149.568 111.700 H 143.768 C 143.668 111.700 143.768 111.800 143.768 111.700 V 108.800 C 143.768 108.745 143.723 108.700 143.668 108.700 H 137.668 C 137.612 108.700 137.568 108.745 137.568 108.800 V 111.700 C 137.568 111.800 137.668 111.700 137.568 111.700 H 131.768 C 131.668 111.700 131.768 111.800 131.768 111.700 V 108.800 C 131.768 108.745 131.723 108.700 131.668 108.700 H 125.668 C 125.612 108.700 125.568 108.745 125.568 108.800 V 111.700 C 125.568 111.800 125.668 111.700 125.568 111.700 H 122.168 C 122.112 111.700 122.068 111.745 122.068 111.800 V 112.700 C 122.068 112.800 122.168 112.700 122.068 112.700 H 77.400 H 72.400 C 72.345 112.700 72.300 112.745 72.300 112.800 V 115.700 C 72.300 115.800 72.400 115.700 72.300 115.700 H 66.500 C 66.400 115.700 66.500 115.800 66.500 115.700 V 112.800 C 66.500 112.745 66.455 112.700 66.400 112.700 H 60.400 C 60.345 112.700 60.300 112.745 60.300 112.800 V 115.700 C 60.300 115.800 60.400 115.700 60.300 115.700 H 54.500 C 54.400 115.700 54.500 115.800 54.500 115.700 V 112.800 C 54.500 112.745 54.455 112.700 54.400 112.700 H 48.400 C 48.345 112.700 48.300 112.745 48.300 112.800 V 115.700 C 48.300 115.800 48.400 115.700 48.300 115.700 H 42.500 C 42.400 115.700 42.500 115.800 42.500 115.700 V 112.800 C 42.500 112.745 42.455 112.700 42.400 112.700 H 36.400 C 36.345 112.700 36.300 112.745 36.300 112.800 V 115.700 C 36.300 115.800 36.400 115.700 36.300 115.700 H 30.500 C 30.400 115.700 30.500 115.800 30.500 115.700 V 112.800 C 30.500 112.745 30.455 112.700 30.400 112.700 H 24.400 C 24.345 112.700 24.300 112.745 24.300 112.800 V 115.700 C 24.300 115.800 24.400 115.700 24.300 115.700 H 18.500 C 18.400 115.700 18.500 115.800 18.500 115.700 V 112.800 C 18.500 112.745 18.455 112.700 18.400 112.700 H 13.400 C 13.345 112.700 13.300 112.745 13.300 112.800 V 115.800 V 122.700 C 13.300 122.800 13.400 122.700 13.300 122.700 H 10.400 C 10.345 122.700 10.300 122.745 10.300 122.800 V 128.800 C 10.300 128.855 10.345 128.900 10.400 128.900 H 13.300 C 13.400 128.900 13.300 128.800 13.300 128.900 V 134.700 C 13.300 134.800 13.400 134.700 13.300 134.700 H 10.400 C 10.345 134.700 10.300 134.745 10.300 134.800 V 140.800 C 10.300 140.855 10.345 140.900 10.400 140.900 H 13.300 C 13.400 140.900 13.300 140.800 13.300 140.900 V 146.700 C 13.300 146.800 13.400 146.700 13.300 146.700 H 10.400 C 10.345 146.700 10.300 146.745 10.300 146.800 V 152.800 C 10.300 152.855 10.345 152.900 10.400 152.900 H 13.300 C 13.400 152.900 13.300 152.800 13.300 152.900 V 159.800 V 162.800 C 13.300 162.855 13.345 162.900 13.400 162.900 Z" stroke="rgb(0,0,0)" stroke-width="0.20" />
  <path d="M 79.534 162.900 V 147.167 M 79.534 144.167 V 115.700 M 81.034 112.700 V 128.433 M 81.034 131.433 V 159.900 M 82.534 162.900 V 147.167 M 82.534 144.167 V 115.700 M 84.034 112.700 V 128.433 M 84.034 131.433 V 159.900 M 85.534 162.900 V 147.167 M 85.534 144.167 V 115.700 M 87.034 112.700 V 128.433 M 87.034 131.433 V 159.900 M 88.534 162.900 V 147.167 M 88.534 144.167 V 115.700 M 90.034 112.700 V 128.433 M 90.034 131.433 V 159.900 M 91.534 162.900 V 147.167 M 91.534 144.167 V 115.700 M 93.034 112.700 V 128.433 M 93.034 131.433 V 159.900 M 94.534 162.900 V 147.167 M 94.534 144.167 V 115.700 M 96.034 112.700 V 128.433 M 96.034 131.433 V 159.900 M 97.534 162.900 V 147.167 M 97.534 144.167 V 115.700 M 99.034 112.700 V 128.433 M 99.034 131.433 V 159.900 M 100.534 162.900 V 147.167 M 100.534 144.167 V 115.700 M 102.034 112.700 V 128.433 M 102.034 131.433 V 159.900 M 103.534 162.900 V 147.167 M 103.534 144.167 V 115.700 M 105.034 112.700 V 128.433 M 105.034 131.433 V 159.900 M 106.534 162.900 V 147.167 M 106.534 144.167 V 115.700 M 108.034 112.700 V 128.433 M 108.034 131.433 V 159.900 M 109.534 162.900 V 147.167 M 109.534 144.167 V 115.700 M 111.034 112.700 V 128.433 M 111.034 131.433 V 159.900 M 112.534 162.900 V 147.167 M 112.534 144.167 V 115.700 M 114.034 112.700 V 128.433 M 114.034 131.433 V 159.900 M 115.534 162.900 V 147.167 M 115.534 144.167 V 115.700 M 117.034 112.700 V 128.433 M 117.034 131.433 V 159.900 M 118.534 162.900 V 147.167 M 118.534 144.167 V 115.700 M 120.034 112.700 V 128.433 M 120.034 131.433 V 159.900" stroke="rgb(0,0,0)" stroke-width="0.20" />
</g>
<g id="p-2" style="fill:none;stroke-linecap:round;stroke-linejoin:round;">
  <path d="M 166.868 166.900 H 171.868 C 171.923 166.900 171.968 166.855 171.968 166.800 V 163.900 C 171.968 163.800 171.868 163.900 171.968 163.900 H 177.768 C 177.868 163.900 177.768 163.800 177.768 163.900 V 166.800 C 177.768 166.855 177.812 166.900 177.868 166.900 H 183.868 C 183.923 166.900 183.968 166.855 183.968 166.800 V 163.900 C 183.968 163.800 183.868 163.900 183.968 163.900 H 189.768 C 189.868 163.900 189.768 163.800 189.768 163.900 V 166.800 C 189.768 166.855 189.812 166.900 189.868 166.900 H 195.868 C 195.923 166.900 195.968 166.855 195.968 166.800 V 163.900 C 195.968 163.800 195.868 163.900 195.968 163.900 H 201.768 C 201.868 163.900 201.768 163.800 201.768 163.900 V 166.800 C 201.768 166.855 201.812 166.900 201.868 166.900 H 207.868 C 207.923 166.900 207.968 166.855 207.968 166.800 V 163.900 C 207.968 163.800 207.868 163.900 207.968 163.900 H 213.768 C 213.868 163.900 213.768 163.800 213.768 163.900 V 166.800 C 213.768 166.855 213.812 166.900 213.868 166.900 H 219.868 C 219.923 166.900 219.968 166.855 219.968 166.800 V 163.900 C 219.968 163.800 219.868 163.900 219.968 163.900 H 225.768 C 225.868 163.900 225.768 163.800 225.768 163.900 V 166.800 C 225.768 166.855 225.812 166.900 225.868 166.900 H 230.868 H 233.868 C 233.923 166.900 233.968 166.855 233.968 166.800 V 163.800 V 156.800 C 233.968 156.745 233.923 156.700 233.868 156.700 H 230.968 C 230.868 156.700 230.968 156.800 230.968 156.700 V 150.900 C 230.968 150.800 230.868 150.900 230.968 150.900 H 233.868 C 233.923 150.900 233.968 150.855 233.968 150.800 V 144.800 C 233.968 144.745 233.923 144.700 233.868 144.700 H 230.968 C 230.868 144.700 230.968 144.800 230.968 144.700 V 138.900 C 230.968 138.800 230.868 138.900 230.968 138.900 H 233.868 C 233.923 138.900 233.968 138.855 233.968 138.800 V 132.800 C 233.968 132.745 233.923 132.700 233.868 132.700 H 230.968 C 230.868 132.700 230.968 132.800 230.968 132.700 V 126.900 C 230.968 126.800 230.868 126.900 230.968 126.900 H 233.868 C 233.923 126.900 233.968 126.855 233.968 126.800 V 119.800 V 116.800 C 233.968 116.745 233.923 116.700 233.868 116.700 H 230.868 H 225.868 C 225.812 116.700 225.768 116.745 225.768 116.800 V 119.700 C 225.768 119.800 225.868 119.700 225.768 119.700 H 219.968 C 219.868 119.700 219.968 119.800 219.968 119.700 V 116.800 C 219.968 116.745 219.923 116.700 219.868 116.700 H 213.868 C 213.812 116.700 213.768 116.745 213.768 116.800 V 119.700 C 213.768 119.800 213.868 119.700 213.768 119.700 H 207.968 C 207.868 119.700 207.968 119.800 207.968 119.700 V 116.800 C 207.968 116.745 207.923 116.700 207.868 116.700 H 201.868 C 201.812 116.700 201.768 116.745 201.768 116.800 V 119.700 C 201.768 119.800 201.868 119.700 201.768 119.700 H 195.968 C 195.868 119.700 195.968 119.800 195.968 119.700 V 116.800 C 195.968 116.745 195.923 116.700 195.868 116.700 H 189.868 C 189.812 116.700 189.768 116.745 189.768 116.800 V 119.700 C 189.768 119.800 189.868 119.700 189.768 119.700 H 183.968 C 183.868 119.700 183.968 119.800 183.968 119.700 V 116.800 C 183.968 116.745 183.923 116.700 183.868 116.700 H 177.868 C 177.812 116.700 177.768 116.745 177.768 116.800 V 119.700 C 177.768 119.800 177.868 119.700 177.768 119.700 H 171.968 C 171.868 119.700 171.968 119.800 171.968 119.700 V 116.800 C 171.968 116.745 171.923 116.700 171.868 116.700 H 166.868 H 163.868 C 163.812 116.700 163.768 116.745 163.768 116.800 V 119.800 V 126.800 C 163.768 126.855 163.812 126.900 163.868 126.900 H 166.768 C 166.868 126.900 166.768 126.800 166.768 126.900 V 132.700 C 166.768 132.800 166.868 132.700 166.768 132.700 H 163.868 C 163.812 132.700 163.768 132.745 163.768 132.800 V 138.800 C 163.768 138.855 163.812 138.900 163.868 138.900 H 166.768 C 166.868 138.900 166.768 138.800 166.768 138.900 V 144.700 C 166.768 144.800 166.868 144.700 166.768 144.700 H 163.868 C 163.812 144.700 163.768 144.745 163.768 144.800 V 150.800 C 163.768 150.855 163.812 150.900 163.868 150.900 H 166.768 C 166.868 150.900 166.768 150.800 166.768 150.900 V 156.700 C 166.768 156.800 166.868 156.700 166.768 156.700 H 163.868 C 163.812 156.700 163.768 156.745 163.768 156.800 V 163.800 V 166.800 C 163.768 166.855 163.812 166.900 163.868 166.900 H 166.868 Z" stroke="rgb(0,0,0)" stroke-width="0.20" />
</g>
<g id="p-3" style="fill:none;stroke-linecap:round;stroke-linejoin:round;">
  <path d="M 238.568 166.900 H 241.068 C 241.123 166.900 241.168 166.855 241.168 166.800 V 163.900 C 241.168 163.800 241.068 163.900 241.168 163.900 H 243.968 C 244.068 163.900 243.968 163.800 243.968 163.900 V 166.800 C 243.968 166.855 244.012 166.900 244.068 166.900 H 246.568 C 246.623 166.900 246.668 166.855 246.668 166.800 V 163.800 V 111.800 V 108.800 C 246.668 108.745 246.623 108.700 246.568 108.700 H 244.068 C 244.012 108.700 243.968 108.745 243.968 108.800 V 111.700 C 243.968 111.800 244.068 111.700 243.968 111.700 H 241.168 C 241.068 111.700 241.168 111.800 241.168 111.700 V 108.800 C 241.168 108.745 241.123 108.700 241.068 108.700 H 238.568 H 235.568 C 235.512 108.700 235.468 108.745 235.468 108.800 V 111.800 V 116.800 C 235.468 116.855 235.512 116.900 235.568 116.900 H 238.468 C 238.568 116.900 238.468 116.800 238.468 116.900 V 122.700 C 238.468 122.800 238.568 122.700 238.468 122.700 H 235.568 C 235.512 122.700 235.468 122.745 235.468 122.800 V 128.800 C 235.468 128.855 235.512 128.900 235.568 128.900 H 238.468 C 238.568 128.900 238.468 128.800 238.468 128.900 V 134.700 C 238.468 134.800 238.568 134.700 238.468 134.700 H 235.568 C 235.512 134.700 235.468 134.745 235.468 134.800 V 140.800 C 235.468 140.855 235.512 140.900 235.568 140.900 H 238.468 C 238.568 140.900 238.468 140.800 238.468 140.900 V 146.700 C 238.468 146.800 238.568 146.700 238.468 146.700 H 235.568 C 235.512 146.700 235.468 146.745 235.468 146.800 V 152.800 C 235.468 152.855 235.512 152.900 235.568 152.900 H 238.468 C 238.568 152.900 238.468 152.800 238.468 152.900 V 158.700 C 238.468 158.800 238.568 158.700 238.468 158.700 H 235.568 C 235.512 158.700 235.468 158.745 235.468 158.800 V 163.800 V 166.800 C 235.468 166.855 235.512 166.900 235.568 166.900 H 238.568 Z" stroke="rgb(0,0,0)" stroke-width="0.20" />
</g>
<g id="p-4" style="fill:none;stroke-linecap:round;stroke-linejoin:round;">
  <path d="M 248.268 166.900 C 248.292 166.900 248.316 166.891 248.334 166.875 C 251.806 163.770 254.582 159.968 256.484 155.716 C 258.385 151.465 259.368 146.860 259.368 142.203 V 138.703 C 259.368 138.648 259.323 138.603 259.268 138.603 H 256.368 C 256.268 138.603 256.368 138.703 256.368 138.603 V 132.803 C 256.368 132.703 256.268 132.803 256.368 132.803 H 259.268 C 259.323 132.803 259.368 132.758 259.368 132.703 V 126.703 C 259.368 126.648 259.323 126.603 259.268 126.603 H 256.368 C 256.268 126.603 256.368 126.703 256.368 126.603 V 120.803 C 256.368 120.703 256.268 120.803 256.368 120.803 H 259.268 C 259.323 120.803 259.368 120.758 259.368 120.703 V 114.703 C 259.368 114.648 259.323 114.603 259.268 114.603 H 256.368 C 256.268 114.603 256.368 114.703 256.368 114.603 V 108.803 C 256.368 108.703 256.268 108.803 256.368 108.803 H 259.268 C 259.323 108.803 259.368 108.758 259.368 108.703 V 105.203 C 259.368 105.148 259.323 105.103 259.268 105.103 H 256.268 H 253.868 C 253.768 105.103 253.868 105.203 253.868 105.103 V 102.203 C 253.868 102.148 253.823 102.103 253.768 102.103 H 250.768 C 250.712 102.103 250.668 102.148 250.668 102.203 V 105.103 C 250.668 105.203 250.768 105.103 250.668 105.103 H 248.268 C 248.212 105.103 248.168 105.148 248.168 105.203 V 166.800 C 248.168 166.855 248.212 166.900 248.268 166.900 Z" stroke="rgb(0,0,0)" stroke-width="0.20" />
</g>
<g id="p-5" style="fill:none;stroke-linecap:round;stroke-linejoin:round;">
  <path d="M 271.968 166.900 C 271.943 166.900 271.919 166.891 271.901 166.875 C 268.430 163.770 265.653 159.968 263.752 155.716 C 261.850 151.465 260.868 146.860 260.868 142.203 V 138.703 C 260.868 138.648 260.912 138.603 260.968 138.603 H 263.868 C 263.968 138.603 263.868 138.703 263.868 138.603 V 132.803 C 263.868 132.703 263.968 132.803 263.868 132.803 H 260.968 C 260.912 132.803 260.868 132.758 260.868 132.703 V 126.703 C 260.868 126.648 260.912 126.603 260.968 126.603 H 263.868 C 263.968 126.603 263.868 126.703 263.868 126.603 V 120.803 C 263.868 120.703 263.968 120.803 263.868 120.803 H 260.968 C 260.912 120.803 260.868 120.758 260.868 120.703 V 114.703 C 260.868 114.648 260.912 114.603 260.968 114.603 H 263.868 C 263.968 114.603 263.868 114.703 263.868 114.603 V 108.803 C 263.868 108.703 263.968 108.803 263.868 108.803 H 260.968 C 260.912 108.803 260.868 108.758 260.868 108.703 V 105.203 C 260.868 105.148 260.912 105.103 260.968 105.103 H 263.968 H 266.368 C 266.468 105.103 266.368 105.203 266.368 105.103 V 102.203 C 266.368 102.148 266.412 102.103 266.468 102.103 H 269.468 C 269.523 102.103 269.568 102.148 269.568 102.203 V 105.103 C 269.568 105.203 269.468 105.103 269.568 105.103 H 271.968 C 272.023 105.103 272.068 105.148 272.068 105.203 V 166.800 C 272.068 166.855 272.023 166.900 271.968 166.900 Z" stroke="rgb(0,0,0)" stroke-width="0.20" />
</g>
<g id="p-6" style="fill:none;stroke-linecap:round;stroke-linejoin:round;">
  <path d="M 13.400 104.200 H 18.300 C 18.400 104.200 18.300 104.100 18.300 104.200 V 107.100 C 18.300 107.155 18.345 107.200 18.400 107.200 H 24.400 C 24.455 107.200 24.500 107.155 24.500 107.100 V 104.200 C 24.500 104.100 24.400 104.200 24.500 104.200 H 30.300 C 30.400 104.200 30.300 104.100 30.300 104.200 V 107.100 C 30.300 107.155 30.345 107.200 30.400 107.200 H 36.400 C 36.455 107.200 36.500 107.155 36.500 107.100 V 104.200 C 36.500 104.100 36.400 104.200 36.500 104.200 H 42.300 C 42.400 104.200 42.300 104.100 42.300 104.200 V 107.100 C 42.300 107.155 42.345 107.200 42.400 107.200 H 48.400 C 48.455 107.200 48.500 107.155 48.500 107.100 V 104.200 C 48.500 104.100 48.400 104.200 48.500 104.200 H 54.300 C 54.400 104.200 54.300 104.100 54.300 104.200 V 107.100 C 54.300 107.155 54.345 107.200 54.400 107.200 H 60.400 C 60.455 107.200 60.500 107.155 60.500 107.100 V 104.200 C 60.500 104.100 60.400 104.200 60.500 104.200 H 66.300 C 66.400 104.200 66.300 104.100 66.300 104.200 V 107.100 C 66.300 107.155 66.345 107.200 66.400 107.200 H 72.400 C 72.455 107.200 72.500 107.155 72.500 107.100 V 104.200 C 72.500 104.100 72.400 104.200 72.500 104.200 H 77.400 C 77.455 104.200 77.500 104.155 77.500 104.100 V 99.200 C 77.500 99.100 77.400 99.200 77.500 99.200 H 80.400 C 80.455 99.200 80.500 99.155 80.500 99.100 V 93.100 C 80.500 93.045 80.455 93.000 80.400 93.000 H 77.500 C 77.400 93.000 77.500 93.100 77.500 93.000 V 87.200 C 77.500 87.100 77.400 87.200 77.500 87.200 H 80.400 C 80.455 87.200 80.500 87.155 80.500 87.100 V 81.100 C 80.500 81.045 80.455 81.000 80.400 81.000 H 77.500 C 77.400 81.000 77.500 81.100 77.500 81.000 V 75.200 C 77.500 75.100 77.400 75.200 77.500 75.200 H 80.400 C 80.455 75.200 80.500 75.155 80.500 75.100 V 69.100 C 80.500 69.045 80.455 69.000 80.400 69.000 H 77.500 C 77.400 69.000 77.500 69.100 77.500 69.000 V 63.200 C 77.500 63.100 77.400 63.200 77.500 63.200 H 80.400 C 80.455 63.200 80.500 63.155 80.500 63.100 V 57.100 C 80.500 57.045 80.455 57.000 80.400 57.000 H 77.500 C 77.400 57.000 77.500 57.100 77.500 57.000 V 51.200 C 77.500 51.100 77.400 51.200 77.500 51.200 H 80.400 C 80.455 51.200 80.500 51.155 80.500 51.100 V 45.100 C 80.500 45.045 80.455 45.000 80.400 45.000 H 77.500 C 77.400 45.000 77.500 45.100 77.500 45.000 V 40.100 C 77.500 34.816 76.109 29.626 73.467 25.050 C 70.826 20.474 67.026 16.674 62.450 14.033 C 57.874 11.391 52.684 10.000 47.400 10.000 H 13.400 C 13.345 10.000 13.300 10.045 13.300 10.100 V 18.000 C 13.300 18.100 13.400 18.000 13.300 18.000 H 10.400 C 10.345 18.000 10.300 18.045 10.300 18.100 V 24.100 C 10.300 24.155 10.345 24.200 10.400 24.200 H 13.300 C 13.400 24.200 13.300 24.100 13.300 24.200 V 30.000 C 13.300 30.100 13.400 30.000 13.300 30.000 H 10.400 C 10.345 30.000 10.300 30.045 10.300 30.100 V 36.100 C 10.300 36.155 10.345 36.200 10.400 36.200 H 13.300 C 13.400 36.200 13.300 36.100 13.300 36.200 V 42.000 C 13.300 42.100 13.400 42.000 13.300 42.000 H 10.400 C 10.345 42.000 10.300 42.045 10.300 42.100 V 48.100 C 10.300 48.155 10.345 48.200 10.400 48.200 H 13.300 C 13.400 48.200 13.300 48.100 13.300 48.200 V 54.000 C 13.300 54.100 13.400 54.000 13.300 54.000 H 10.400 C 10.345 54.000 10.300 54.045 10.300 54.100 V 60.100 C 10.300 60.155 10.345 60.200 10.400 60.200 H 13.300 C 13.400 60.200 13.300 60.100 13.300 60.200 V 66.000 C 13.300 66.100 13.400 66.000 13.300 66.000 H 10.400 C 10.345 66.000 10.300 66.045 10.300 66.100 V 72.100 C 10.300 72.155 10.345 72.200 10.400 72.200 H 13.300 C 13.400 72.200 13.300 72.100 13.300 72.200 V 78.000 C 13.300 78.100 13.400 78.000 13.300 78.000 H 10.400 C 10.345 78.000 10.300 78.045 10.300 78.100 V 84.100 C 10.300 84.155 10.345 84.200 10.400 84.200 H 13.300 C 13.400 84.200 13.300 84.100 13.300 84.200 V 90.000 C 13.300 90.100 13.400 90.000 13.300 90.000 H 10.400 C 10.345 90.000 10.300 90.045 10.300 90.100 V 96.100 C 10.300 96.155 10.345 96.200 10.400 96.200 H 13.300 C 13.400 96.200 13.300 96.100 13.300 96.200 V 104.100 C 13.300 104.155 13.345 104.200 13.400 104.200 Z" stroke="rgb(0,0,0)" stroke-width="0.20" />
</g>
<g id="p-7" style="fill:none;stroke-linecap:round;stroke-linejoin:round;">
  <path d="M 149.100 104.200 H 144.200 C 144.100 104.200 144.200 104.100 144.200 104.200 V 107.100 C 144.200 107.155 144.155 107.200 144.100 107.200 H 138.100 C 138.045 107.200 138.000 107.155 138.000 107.100 V 104.200 C 138.000 104.100 138.100 104.200 138.000 104.200 H 132.200 C 132.100 104.200 132.200 104.100 132.200 104.200 V 107.100 C 132.200 107.155 132.155 107.200 132.100 107.200 H 126.100 C 126.045 107.200 126.000 107.155 126.000 107.100 V 104.200 C 126.000 104.100 126.100 104.200 126.000 104.200 H 120.200 C 120.100 104.200 120.200 104.100 120.200 104.200 V 107.100 C 120.200 107.155 120.155 107.200 120.100 107.200 H 114.100 C 114.045 107.200 114.000 107.155 114.000 107.100 V 104.200 C 114.000 104.100 114.100 104.200 114.000 104.200 H 108.200 C 108.100 104.200 108.200 104.100 108.200 104.200 V 107.100 C 108.200 107.155 108.155 107.200 108.100 107.200 H 102.100 C 102.045 107.200 102.000 107.155 102.000 107.100 V 104.200 C 102.000 104.100 102.100 104.200 102.000 104.200 H 96.200 C 96.100 104.200 96.200 104.100 96.200 104.200 V 107.100 C 96.200 107.155 96.155 107.200 96.100 107.200 H 90.100 C 90.045 107.200 90.000 107.155 90.000 107.100 V 104.200 C 90.000 104.100 90.100 104.200 90.000 104.200 H 85.100 C 85.045 104.200 85.000 104.155 85.000 104.100 V 99.200 C 85.000 99.100 85.100 99.200 85.000 99.200 H 82.100 C 82.045 99.200 82.000 99.155 82.000 99.100 V 93.100 C 82.000 93.045 82.045 93.000 82.100 93.000 H 85.000 C 85.100 93.000 85.000 93.100 85.000 93.000 V 87.200 C 85.000 87.100 85.100 87.200 85.000 87.200 H 82.100 C 82.045 87.200 82.000 87.155 82.000 87.100 V 81.100 C 82.000 81.045 82.045 81.000 82.100 81.000 H 85.000 C 85.100 81.000 85.000 81.100 85.000 81.000 V 75.200 C 85.000 75.100 85.100 75.200 85.000 75.200 H 82.100 C 82.045 75.200 82.000 75.155 82.000 75.100 V 69.100 C 82.000 69.045 82.045 69.000 82.100 69.000 H 85.000 C 85.100 69.000 85.000 69.100 85.000 69.000 V 63.200 C 85.000 63.100 85.100 63.200 85.000 63.200 H 82.100 C 82.045 63.200 82.000 63.155 82.000 63.100 V 57.100 C 82.000 57.045 82.045 57.000 82.100 57.000 H 85.000 C 85.100 57.000 85.000 57.100 85.000 57.000 V 51.200 C 85.000 51.100 85.100 51.200 85.000 51.200 H 82.100 C 82.045 51.200 82.000 51.155 82.000 51.100 V 45.100 C 82.000 45.045 82.045 45.000 82.100 45.000 H 85.000 C 85.100 45.000 85.000 45.100 85.000 45.000 V 40.100 C 85.000 34.816 86.391 29.626 89.033 25.050 C 91.674 20.474 95.474 16.674 100.050 14.033 C 104.626 11.391 109.816 10.000 115.100 10.000 H 149.100 C 149.155 10.000 149.200 10.045 149.200 10.100 V 18.000 C 149.200 18.100 149.100 18.000 149.200 18.000 H 152.100 C 152.155 18.000 152.200 18.045 152.200 18.100 V 24.100 C 152.200 24.155 152.155 24.200 152.100 24.200 H 149.200 C 149.100 24.200 149.200 24.100 149.200 24.200 V 30.000 C 149.200 30.100 149.100 30.000 149.200 30.000 H 152.100 C 152.155 30.000 152.200 30.045 152.200 30.100 V 36.100 C 152.200 36.155 152.155 36.200 152.100 36.200 H 149.200 C 149.100 36.200 149.200 36.100 149.200 36.200 V 42.000 C 149.200 42.100 149.100 42.000 149.200 42.000 H 152.100 C 152.155 42.000 152.200 42.045 152.200 42.100 V 48.100 C 152.200 48.155 152.155 48.200 152.100 48.200 H 149.200 C 149.100 48.200 149.200 48.100 149.200 48.200 V 54.000 C 149.200 54.100 149.100 54.000 149.200 54.000 H 152.100 C 152.155 54.000 152.200 54.045 152.200 54.100 V 60.100 C 152.200 60.155 152.155 60.200 152.100 60.200 H 149.200 C 149.100 60.200 149.200 60.100 149.200 60.200 V 66.000 C 149.200 66.100 149.100 66.000 149.200 66.000 H 152.100 C 152.155 66.000 152.200 66.045 152.200 66.100 V 72.100 C 152.200 72.155 152.155 72.200 152.100 72.200 H 149.200 C 149.100 72.200 149.200 72.100 149.200 72.200 V 78.000 C 149.200 78.100 149.100 78.000 149.200 78.000 H 152.100 C 152.155 78.000 152.200 78.045 152.200 78.100 V 84.100 C 152.200 84.155 152.155 84.200 152.100 84.200 H 149.200 C 149.100 84.200 149.200 84.100 149.200 84.200 V 90.000 C 149.200 90.100 149.100 90.000 149.200 90.000 H 152.100 C 152.155 90.000 152.200 90.045 152.200 90.100 V 96.100 C 152.200 96.155 152.155 96.200 152.100 96.200 H 149.200 C 149.100 96.200 149.200 96.100 149.200 96.200 V 104.100 C 149.200 104.155 149.155 104.200 149.100 104.200 Z" stroke="rgb(0,0,0)" stroke-width="0.20" />
</g>
<g id="p-8" style="fill:none;stroke-linecap:round;stroke-linejoin:round;">
  <path d="M 156.800 104.200 H 163.700 C 163.800 104.200 163.700 104.100 163.700 104.200 V 107.100 C 163.700 107.155 163.745 107.200 163.800 107.200 H 169.800 C 169.855 107.200 169.900 107.155 169.900 107.100 V 104.200 C 169.900 104.100 169.800 104.200 169.900 104.200 H 175.700 C 175.800 104.200 175.700 104.100 175.700 104.200 V 107.100 C 175.700 107.155 175.745 107.200 175.800 107.200 H 181.800 C 181.855 107.200 181.900 107.155 181.900 107.100 V 104.200 C 181.900 104.100 181.800 104.200 181.900 104.200 H 187.700 C 187.800 104.200 187.700 104.100 187.700 104.200 V 107.100 C 187.700 107.155 187.745 107.200 187.800 107.200 H 193.800 C 193.855 107.200 193.900 107.155 193.900 107.100 V 104.200 C 193.900 104.100 193.800 104.200 193.900 104.200 H 200.800 H 203.800 C 203.855 104.200 203.900 104.155 203.900 104.100 V 96.100 C 203.900 96.045 203.855 96.000 203.800 96.000 H 200.900 C 200.800 96.000 200.900 96.100 200.900 96.000 V 90.200 C 200.900 90.100 200.800 90.200 200.900 90.200 H 203.800 C 203.855 90.200 203.900 90.155 203.900 90.100 V 84.100 C 203.900 84.045 203.855 84.000 203.800 84.000 H 200.900 C 200.800 84.000 200.900 84.100 200.900 84.000 V 78.200 C 200.900 78.100 200.800 78.200 200.900 78.200 H 203.800 C 203.855 78.200 203.900 78.155 203.900 78.100 V 72.100 C 203.900 72.045 203.855 72.000 203.800 72.000 H 200.900 C 200.800 72.000 200.900 72.100 200.900 72.000 V 66.200 C 200.900 66.100 200.800 66.200 200.900 66.200 H 203.800 C 203.855 66.200 203.900 66.155 203.900 66.100 V 60.100 C 203.900 60.045 203.855 60.000 203.800 60.000 H 200.900 C 200.800 60.000 200.900 60.100 200.900 60.000 V 54.200 C 200.900 54.100 200.800 54.200 200.900 54.200 H 203.800 C 203.855 54.200 203.900 54.155 203.900 54.100 V 48.100 C 203.900 48.045 203.855 48.000 203.800 48.000 H 200.900 C 200.800 48.000 200.900 48.100 200.900 48.000 V 42.200 C 200.900 42.100 200.800 42.200 200.900 42.200 H 203.800 C 203.855 42.200 203.900 42.155 203.900 42.100 V 36.100 C 203.900 36.045 203.855 36.000 203.800 36.000 H 200.900 C 200.800 36.000 200.900 36.100 200.900 36.000 V 30.200 C 200.900 30.100 200.800 30.200 200.900 30.200 H 203.800 C 203.855 30.200 203.900 30.155 203.900 30.100 V 24.100 C 203.900 24.045 203.855 24.000 203.800 24.000 H 200.900 C 200.800 24.000 200.900 24.100 200.900 24.000 V 18.200 C 200.900 18.100 200.800 18.200 200.900 18.200 H 203.800 C 203.855 18.200 203.900 18.155 203.900 18.100 V 10.100 C 203.900 10.045 203.855 10.000 203.800 10.000 H 200.800 H 156.800 H 153.800 C 153.745 10.000 153.700 10.045 153.700 10.100 V 18.100 C 153.700 18.155 153.745 18.200 153.800 18.200 H 156.700 C 156.800 18.200 156.700 18.100 156.700 18.200 V 24.000 C 156.700 24.100 156.800 24.000 156.700 24.000 H 153.800 C 153.745 24.000 153.700 24.045 153.700 24.100 V 30.100 C 153.700 30.155 153.745 30.200 153.800 30.200 H 156.700 C 156.800 30.200 156.700 30.100 156.700 30.200 V 36.000 C 156.700 36.100 156.800 36.000 156.700 36.000 H 153.800 C 153.745 36.000 153.700 36.045 153.700 36.100 V 42.100 C 153.700 42.155 153.745 42.200 153.800 42.200 H 156.700 C 156.800 42.200 156.700 42.100 156.700 42.200 V 48.000 C 156.700 48.100 156.800 48.000 156.700 48.000 H 153.800 C 153.745 48.000 153.700 48.045 153.700 48.100 V 54.100 C 153.700 54.155 153.745 54.200 153.800 54.200 H 156.700 C 156.800 54.200 156.700 54.100 156.700 54.200 V 60.000 C 156.700 60.100 156.800 60.000 156.700 60.000 H 153.800 C 153.745 60.000 153.700 60.045 153.700 60.100 V 66.100 C 153.700 66.155 153.745 66.200 153.800 66.200 H 156.700 C 156.800 66.200 156.700 66.100 156.700 66.200 V 72.000 C 156.700 72.100 156.800 72.000 156.700 72.000 H 153.800 C 153.745 72.000 153.700 72.045 153.700 72.100 V 78.100 C 153.700 78.155 153.745 78.200 153.800 78.200 H 156.700 C 156.800 78.200 156.700 78.100 156.700 78.200 V 84.000 C 156.700 84.100 156.800 84.000 156.700 84.000 H 153.800 C 153.745 84.000 153.700 84.045 153.700 84.100 V 90.100 C 153.700 90.155 153.745 90.200 153.800 90.200 H 156.700 C 156.800 90.200 156.700 90.100 156.700 90.200 V 96.000 C 156.700 96.100 156.800 96.000 156.700 96.000 H 153.800 C 153.745 96.000 153.700 96.045 153.700 96.100 V 104.100 C 153.700 104.155 153.745 104.200 153.800 104.200 H 156.800 Z" stroke="rgb(0,0,0)" stroke-width="0.20" />
</g>
</svg>
