<?xml version='1.0' encoding='utf-8'?>
<svg height="195.10mm" viewBox="0.0 0.0 269.85 195.10" width="269.85mm" xmlns="http://www.w3.org/2000/svg" xmlns:cc="http://creativecommons.org/ns#" xmlns:dc="http://purl.org/dc/elements/1.1/" xmlns:inkscape="http://www.inkscape.org/namespaces/inkscape" xmlns:rdf="http://www.w3.org/1999/02/22-rdf-syntax-ns#" xmlns:svg="http://www.w3.org/2000/svg" xmlns:xlink="http://www.w3.org/1999/xlink">
<!--
FlexBox5 - Box with living hinge and round corners

Created with Boxes.py (https://festi.info/boxes.py)
Command line (remove spaces between dashes): boxes FlexBox5
-->
<title>FlexBox5</title>
<metadata>
<rdf:RDF><cc:Work>
<dc:title>FlexBox - FlexBox5</dc:title>
<dc:source>boxes FlexBox5</dc:source>
<dc:description>Box with living hinge and round corners

Created with Boxes.py (https://festi.info/boxes.py)
Command line: boxes FlexBox5
Command line short: boxes FlexBox5
</dc:description>
</cc:Work></rdf:RDF></metadata>
<g id="p-0" style="fill:none;stroke-linecap:round;stroke-linejoin:round;">
  <path d="M 10.100 185.100 H 110.100 V 175.100 H 10.100 V 185.100 Z" stroke="rgb(0,0,0)" stroke-width="0.20" />
  <text dominant-baseline="hanging" font-size="6px" style="font-family: sans-serif ; font-weight: normal; font-style: normal; fill: rgb(255,0,0)" text-anchor="middle" transform="matrix( 1.000 0.000 0.000 1.000 60.100 177.100 )">100.0mm, burn:0.10mm</text>
</g>
<g id="p-1" style="fill:none;stroke-linecap:round;stroke-linejoin:round;">
  <path d="M 10.100 172.650 H 15.100 C 15.155 172.650 15.200 172.605 15.200 172.550 V 169.650 C 15.200 169.550 15.100 169.650 15.200 169.650 H 21.000 C 21.100 169.650 21.000 169.550 21.000 169.650 V 172.550 C 21.000 172.605 21.045 172.650 21.100 172.650 H 26.100 H 110.923 H 121.923 C 121.978 172.650 122.023 172.605 122.023 172.550 V 169.650 C 122.023 169.550 121.923 169.650 122.023 169.650 H 127.823 C 127.923 169.650 127.823 169.550 127.823 169.650 V 172.550 C 127.823 172.605 127.868 172.650 127.923 172.650 H 133.923 C 133.978 172.650 134.023 172.605 134.023 172.550 V 169.650 C 134.023 169.550 133.923 169.650 134.023 169.650 H 139.823 C 139.923 169.650 139.823 169.550 139.823 169.650 V 172.550 C 139.823 172.605 139.868 172.650 139.923 172.650 H 150.923 H 235.746 C 235.801 172.650 235.846 172.605 235.846 172.550 V 169.350 C 235.846 169.250 235.746 169.350 235.846 169.350 H 248.246 C 248.346 169.350 248.246 169.250 248.246 169.350 V 172.550 C 248.246 172.699 248.285 172.846 248.360 172.975 C 248.434 173.104 248.542 173.212 248.671 173.286 C 248.800 173.361 248.947 173.400 249.096 173.400 C 249.222 173.400 249.346 173.367 249.455 173.304 C 249.565 173.241 249.655 173.150 249.718 173.041 C 249.782 172.931 249.815 172.807 249.815 172.681 C 249.815 172.590 249.839 172.501 249.884 172.422 C 249.930 172.343 249.995 172.278 250.074 172.232 C 250.153 172.186 250.242 172.163 250.334 172.163 C 250.425 172.163 250.514 172.186 250.593 172.232 C 250.672 172.278 250.737 172.343 250.783 172.422 C 250.828 172.501 250.852 172.590 250.852 172.681 C 250.852 172.807 250.885 172.931 250.949 173.041 C 251.012 173.150 251.102 173.241 251.212 173.304 C 251.321 173.367 251.445 173.400 251.571 173.400 C 251.697 173.400 251.821 173.367 251.930 173.304 C 252.040 173.241 252.130 173.150 252.193 173.041 C 252.257 172.931 252.290 172.807 252.290 172.681 C 252.290 172.590 252.314 172.501 252.359 172.422 C 252.405 172.343 252.470 172.278 252.549 172.232 C 252.628 172.186 252.717 172.163 252.809 172.163 C 252.900 172.163 252.989 172.186 253.068 172.232 C 253.147 172.278 253.212 172.343 253.258 172.422 C 253.303 172.501 253.327 172.590 253.327 172.681 C 253.327 172.807 253.360 172.931 253.424 173.041 C 253.487 173.150 253.577 173.241 253.687 173.304 C 253.796 173.367 253.920 173.400 254.046 173.400 C 254.172 173.400 254.296 173.367 254.405 173.304 C 254.515 173.241 254.605 173.150 254.668 173.041 C 254.732 172.931 254.765 172.807 254.765 172.681 C 254.765 172.590 254.789 172.501 254.834 172.422 C 254.880 172.343 254.945 172.278 255.024 172.232 C 255.103 172.186 255.192 172.163 255.284 172.163 C 255.375 172.163 255.464 172.186 255.543 172.232 C 255.622 172.278 255.687 172.343 255.733 172.422 C 255.778 172.501 255.802 172.590 255.802 172.681 C 255.802 172.807 255.835 172.931 255.899 173.041 C 255.962 173.150 256.052 173.241 256.162 173.304 C 256.271 173.367 256.395 173.400 256.521 173.400 C 256.647 173.400 256.771 173.367 256.880 173.304 C 256.990 173.241 257.080 173.150 257.143 173.041 C 257.207 172.931 257.240 172.807 257.240 172.681 C 257.240 172.590 257.264 172.501 257.309 172.422 C 257.355 172.343 257.420 172.278 257.499 172.232 C 257.578 172.186 257.667 172.163 257.759 172.163 C 257.850 172.163 257.939 172.186 258.018 172.232 C 258.097 172.278 258.162 172.343 258.208 172.422 C 258.253 172.501 258.277 172.590 258.277 172.681 C 258.277 172.807 258.310 172.931 258.374 173.041 C 258.437 173.150 258.527 173.241 258.637 173.304 C 258.746 173.367 258.870 173.400 258.996 173.400 C 259.145 173.400 259.292 173.361 259.421 173.286 C 259.550 173.212 259.658 173.104 259.732 172.975 C 259.807 172.846 259.846 172.699 259.846 172.550 V 72.550 C 259.846 72.401 259.807 72.254 259.732 72.125 C 259.658 71.996 259.550 71.888 259.421 71.814 C 259.292 71.739 259.145 71.700 258.996 71.700 C 258.870 71.700 258.746 71.733 258.637 71.796 C 258.527 71.859 258.437 71.950 258.374 72.059 C 258.310 72.169 258.277 72.293 258.277 72.419 C 258.277 72.510 258.253 72.599 258.208 72.678 C 258.162 72.757 258.097 72.822 258.018 72.868 C 257.939 72.914 257.850 72.938 257.759 72.938 C 257.667 72.938 257.578 72.914 257.499 72.868 C 257.420 72.822 257.355 72.757 257.309 72.678 C 257.264 72.599 257.240 72.510 257.240 72.419 C 257.240 72.293 257.207 72.169 257.143 72.059 C 257.080 71.950 256.990 71.859 256.880 71.796 C 256.771 71.733 256.647 71.700 256.521 71.700 C 256.395 71.700 256.271 71.733 256.162 71.796 C 256.052 71.859 255.962 71.950 255.899 72.059 C 255.835 72.169 255.802 72.293 255.802 72.419 C 255.802 72.510 255.778 72.599 255.733 72.678 C 255.687 72.757 255.622 72.822 255.543 72.868 C 255.464 72.914 255.375 72.938 255.284 72.938 C 255.192 72.938 255.103 72.914 255.024 72.868 C 254.945 72.822 254.880 72.757 254.834 72.678 C 254.789 72.599 254.765 72.510 254.765 72.419 C 254.765 72.293 254.732 72.169 254.668 72.059 C 254.605 71.950 254.515 71.859 254.405 71.796 C 254.296 71.733 254.172 71.700 254.046 71.700 C 253.920 71.700 253.796 71.733 253.687 71.796 C 253.577 71.859 253.487 71.950 253.424 72.059 C 253.360 72.169 253.327 72.293 253.327 72.419 C 253.327 72.510 253.303 72.599 253.258 72.678 C 253.212 72.757 253.147 72.822 253.068 72.868 C 252.989 72.914 252.900 72.938 252.809 72.938 C 252.717 72.938 252.628 72.914 252.549 72.868 C 252.470 72.822 252.405 72.757 252.359 72.678 C 252.314 72.599 252.290 72.510 252.290 72.419 C 252.290 72.293 252.257 72.169 252.193 72.059 C 252.130 71.950 252.040 71.859 251.930 71.796 C 251.821 71.733 251.697 71.700 251.571 71.700 C 251.445 71.700 251.321 71.733 251.212 71.796 C 251.102 71.859 251.012 71.950 250.949 72.059 C 250.885 72.169 250.852 72.293 250.852 72.419 C 250.852 72.510 250.828 72.599 250.783 72.678 C 250.737 72.757 250.672 72.822 250.593 72.868 C 250.514 72.914 250.425 72.937 250.334 72.937 C 250.242 72.937 250.153 72.914 250.074 72.868 C 249.995 72.822 249.930 72.757 249.884 72.678 C 249.839 72.599 249.815 72.510 249.815 72.419 C 249.815 72.293 249.782 72.169 249.718 72.059 C 249.655 71.950 249.565 71.859 249.455 71.796 C 249.346 71.733 249.222 71.700 249.096 71.700 C 248.947 71.700 248.800 71.739 248.671 71.814 C 248.542 71.888 248.434 71.996 248.360 72.125 C 248.285 72.254 248.246 72.401 248.246 72.550 V 75.750 C 248.246 75.850 248.346 75.750 248.246 75.750 H 235.846 C 235.746 75.750 235.846 75.850 235.846 75.750 V 72.550 C 235.846 72.495 235.801 72.450 235.746 72.450 H 150.923 H 139.923 C 139.868 72.450 139.823 72.495 139.823 72.550 V 75.450 C 139.823 75.550 139.923 75.450 139.823 75.450 H 134.023 C 133.923 75.450 134.023 75.550 134.023 75.450 V 72.550 C 134.023 72.495 133.978 72.450 133.923 72.450 H 127.923 C 127.868 72.450 127.823 72.495 127.823 72.550 V 75.450 C 127.823 75.550 127.923 75.450 127.823 75.450 H 122.023 C 121.923 75.450 122.023 75.550 122.023 75.450 V 72.550 C 122.023 72.495 121.978 72.450 121.923 72.450 H 110.923 H 26.100 H 21.100 C 21.045 72.450 21.000 72.495 21.000 72.550 V 75.450 C 21.000 75.550 21.100 75.450 21.000 75.450 H 15.200 C 15.100 75.450 15.200 75.550 15.200 75.450 V 72.550 C 15.200 72.495 15.155 72.450 15.100 72.450 H 10.100 C 10.045 72.450 10.000 72.495 10.000 72.550 V 172.550 C 10.000 172.605 10.045 172.650 10.100 172.650 Z" stroke="rgb(0,0,0)" stroke-width="0.20" />
  <path d="M 28.012 172.650 V 156.450 M 28.012 153.450 V 124.050 M 28.012 121.050 V 91.650 M 28.012 88.650 V 72.450 M 29.512 75.450 V 104.850 M 29.512 107.850 V 137.250 M 29.512 140.250 V 169.650 M 31.012 172.650 V 156.450 M 31.012 153.450 V 124.050 M 31.012 121.050 V 91.650 M 31.012 88.650 V 72.450 M 32.512 75.450 V 104.850 M 32.512 107.850 V 137.250 M 32.512 140.250 V 169.650 M 34.012 172.650 V 156.450 M 34.012 153.450 V 124.050 M 34.012 121.050 V 91.650 M 34.012 88.650 V 72.450 M 35.512 75.450 V 104.850 M 35.512 107.850 V 137.250 M 35.512 140.250 V 169.650 M 37.012 172.650 V 156.450 M 37.012 153.450 V 124.050 M 37.012 121.050 V 91.650 M 37.012 88.650 V 72.450 M 38.512 75.450 V 104.850 M 38.512 107.850 V 137.250 M 38.512 140.250 V 169.650 M 40.012 172.650 V 156.450 M 40.012 153.450 V 124.050 M 40.012 121.050 V 91.650 M 40.012 88.650 V 72.450 M 41.512 75.450 V 104.850 M 41.512 107.850 V 137.250 M 41.512 140.250 V 169.650 M 43.012 172.650 V 156.450 M 43.012 153.450 V 124.050 M 43.012 121.050 V 91.650 M 43.012 88.650 V 72.450 M 44.512 75.450 V 104.850 M 44.512 107.850 V 137.250 M 44.512 140.250 V 169.650 M 46.012 172.650 V 156.450 M 46.012 153.450 V 124.050 M 46.012 121.050 V 91.650 M 46.012 88.650 V 72.450 M 47.512 75.450 V 104.850 M 47.512 107.850 V 137.250 M 47.512 140.250 V 169.650 M 49.012 172.650 V 156.450 M 49.012 153.450 V 124.050 M 49.012 121.050 V 91.650 M 49.012 88.650 V 72.450 M 50.512 75.450 V 104.850 M 50.512 107.850 V 137.250 M 50.512 140.250 V 169.650 M 52.012 172.650 V 156.450 M 52.012 153.450 V 124.050 M 52.012 121.050 V 91.650 M 52.012 88.650 V 72.450 M 53.512 75.450 V 104.850 M 53.512 107.850 V 137.250 M 53.512 140.250 V 169.650 M 55.012 172.650 V 156.450 M 55.012 153.450 V 124.050 M 55.012 121.050 V 91.650 M 55.012 88.650 V 72.450 M 56.512 75.450 V 104.850 M 56.512 107.850 V 137.250 M 56.512 140.250 V 169.650 M 58.012 172.650 V 156.450 M 58.012 153.450 V 124.050 M 58.012 121.050 V 91.650 M 58.012 88.650 V 72.450 M 59.512 75.450 V 104.850 M 59.512 107.850 V 137.250 M 59.512 140.250 V 169.650 M 61.012 172.650 V 156.450 M 61.012 153.450 V 124.050 M 61.012 121.050 V 91.650 M 61.012 88.650 V 72.450 M 62.512 75.450 V 104.850 M 62.512 107.850 V 137.250 M 62.512 140.250 V 169.650 M 64.012 172.650 V 156.450 M 64.012 153.450 V 124.050 M 64.012 121.050 V 91.650 M 64.012 88.650 V 72.450 M 65.512 75.450 V 104.850 M 65.512 107.850 V 137.250 M 65.512 140.250 V 169.650 M 67.012 172.650 V 156.450 M 67.012 153.450 V 124.050 M 67.012 121.050 V 91.650 M 67.012 88.650 V 72.450 M 68.512 75.450 V 104.850 M 68.512 107.850 V 137.250 M 68.512 140.250 V 169.650 M 70.012 172.650 V 156.450 M 70.012 153.450 V 124.050 M 70.012 121.050 V 91.650 M 70.012 88.650 V 72.450 M 71.512 75.450 V 104.850 M 71.512 107.850 V 137.250 M 71.512 140.250 V 169.650 M 73.012 172.650 V 156.450 M 73.012 153.450 V 124.050 M 73.012 121.050 V 91.650 M 73.012 88.650 V 72.450 M 74.512 75.450 V 104.850 M 74.512 107.850 V 137.250 M 74.512 140.250 V 169.650 M 76.012 172.650 V 156.450 M 76.012 153.450 V 124.050 M 76.012 121.050 V 91.650 M 76.012 88.650 V 72.450 M 77.512 75.450 V 104.850 M 77.512 107.850 V 137.250 M 77.512 140.250 V 169.650 M 79.012 172.650 V 156.450 M 79.012 153.450 V 124.050 M 79.012 121.050 V 91.650 M 79.012 88.650 V 72.450 M 80.512 75.450 V 104.850 M 80.512 107.850 V 137.250 M 80.512 140.250 V 169.650 M 82.012 172.650 V 156.450 M 82.012 153.450 V 124.050 M 82.012 121.050 V 91.650 M 82.012 88.650 V 72.450 M 83.512 75.450 V 104.850 M 83.512 107.850 V 137.250 M 83.512 140.250 V 169.650 M 85.012 172.650 V 156.450 M 85.012 153.450 V 124.050 M 85.012 121.050 V 91.650 M 85.012 88.650 V 72.450 M 86.512 75.450 V 104.850 M 86.512 107.850 V 137.250 M 86.512 140.250 V 169.650 M 88.012 172.650 V 156.450 M 88.012 153.450 V 124.050 M 88.012 121.050 V 91.650 M 88.012 88.650 V 72.450 M 89.512 75.450 V 104.850 M 89.512 107.850 V 137.250 M 89.512 140.250 V 169.650 M 91.012 172.650 V 156.450 M 91.012 153.450 V 124.050 M 91.012 121.050 V 91.650 M 91.012 88.650 V 72.450 M 92.512 75.450 V 104.850 M 92.512 107.850 V 137.250 M 92.512 140.250 V 169.650 M 94.012 172.650 V 156.450 M 94.012 153.450 V 124.050 M 94.012 121.050 V 91.650 M 94.012 88.650 V 72.450 M 95.512 75.450 V 104.850 M 95.512 107.850 V 137.250 M 95.512 140.250 V 169.650 M 97.012 172.650 V 156.450 M 97.012 153.450 V 124.050 M 97.012 121.050 V 91.650 M 97.012 88.650 V 72.450 M 98.512 75.450 V 104.850 M 98.512 107.850 V 137.250 M 98.512 140.250 V 169.650 M 100.012 172.650 V 156.450 M 100.012 153.450 V 124.050 M 100.012 121.050 V 91.650 M 100.012 88.650 V 72.450 M 101.512 75.450 V 104.850 M 101.512 107.850 V 137.250 M 101.512 140.250 V 169.650 M 103.012 172.650 V 156.450 M 103.012 153.450 V 124.050 M 103.012 121.050 V 91.650 M 103.012 88.650 V 72.450 M 104.512 75.450 V 104.850 M 104.512 107.850 V 137.250 M 104.512 140.250 V 169.650 M 106.012 172.650 V 156.450 M 106.012 153.450 V 124.050 M 106.012 121.050 V 91.650 M 106.012 88.650 V 72.450 M 107.512 75.450 V 104.850 M 107.512 107.850 V 137.250 M 107.512 140.250 V 169.650 M 109.012 172.650 V 156.450 M 109.012 153.450 V 124.050 M 109.012 121.050 V 91.650 M 109.012 88.650 V 72.450" stroke="rgb(0,0,0)" stroke-width="0.20" />
  <path d="M 152.835 172.650 V 156.450 M 152.835 153.450 V 124.050 M 152.835 121.050 V 91.650 M 152.835 88.650 V 72.450 M 154.335 75.450 V 104.850 M 154.335 107.850 V 137.250 M 154.335 140.250 V 169.650 M 155.835 172.650 V 156.450 M 155.835 153.450 V 124.050 M 155.835 121.050 V 91.650 M 155.835 88.650 V 72.450 M 157.335 75.450 V 104.850 M 157.335 107.850 V 137.250 M 157.335 140.250 V 169.650 M 158.835 172.650 V 156.450 M 158.835 153.450 V 124.050 M 158.835 121.050 V 91.650 M 158.835 88.650 V 72.450 M 160.335 75.450 V 104.850 M 160.335 107.850 V 137.250 M 160.335 140.250 V 169.650 M 161.835 172.650 V 156.450 M 161.835 153.450 V 124.050 M 161.835 121.050 V 91.650 M 161.835 88.650 V 72.450 M 163.335 75.450 V 104.850 M 163.335 107.850 V 137.250 M 163.335 140.250 V 169.650 M 164.835 172.650 V 156.450 M 164.835 153.450 V 124.050 M 164.835 121.050 V 91.650 M 164.835 88.650 V 72.450 M 166.335 75.450 V 104.850 M 166.335 107.850 V 137.250 M 166.335 140.250 V 169.650 M 167.835 172.650 V 156.450 M 167.835 153.450 V 124.050 M 167.835 121.050 V 91.650 M 167.835 88.650 V 72.450 M 169.335 75.450 V 104.850 M 169.335 107.850 V 137.250 M 169.335 140.250 V 169.650 M 170.835 172.650 V 156.450 M 170.835 153.450 V 124.050 M 170.835 121.050 V 91.650 M 170.835 88.650 V 72.450 M 172.335 75.450 V 104.850 M 172.335 107.850 V 137.250 M 172.335 140.250 V 169.650 M 173.835 172.650 V 156.450 M 173.835 153.450 V 124.050 M 173.835 121.050 V 91.650 M 173.835 88.650 V 72.450 M 175.335 75.450 V 104.850 M 175.335 107.850 V 137.250 M 175.335 140.250 V 169.650 M 176.835 172.650 V 156.450 M 176.835 153.450 V 124.050 M 176.835 121.050 V 91.650 M 176.835 88.650 V 72.450 M 178.335 75.450 V 104.850 M 178.335 107.850 V 137.250 M 178.335 140.250 V 169.650 M 179.835 172.650 V 156.450 M 179.835 153.450 V 124.050 M 179.835 121.050 V 91.650 M 179.835 88.650 V 72.450 M 181.335 75.450 V 104.850 M 181.335 107.850 V 137.250 M 181.335 140.250 V 169.650 M 182.835 172.650 V 156.450 M 182.835 153.450 V 124.050 M 182.835 121.050 V 91.650 M 182.835 88.650 V 72.450 M 184.335 75.450 V 104.850 M 184.335 107.850 V 137.250 M 184.335 140.250 V 169.650 M 185.835 172.650 V 156.450 M 185.835 153.450 V 124.050 M 185.835 121.050 V 91.650 M 185.835 88.650 V 72.450 M 187.335 75.450 V 104.850 M 187.335 107.850 V 137.250 M 187.335 140.250 V 169.650 M 188.835 172.650 V 156.450 M 188.835 153.450 V 124.050 M 188.835 121.050 V 91.650 M 188.835 88.650 V 72.450 M 190.335 75.450 V 104.850 M 190.335 107.850 V 137.250 M 190.335 140.250 V 169.650 M 191.835 172.650 V 156.450 M 191.835 153.450 V 124.050 M 191.835 121.050 V 91.650 M 191.835 88.650 V 72.450 M 193.335 75.450 V 104.850 M 193.335 107.850 V 137.250 M 193.335 140.250 V 169.650 M 194.835 172.650 V 156.450 M 194.835 153.450 V 124.050 M 194.835 121.050 V 91.650 M 194.835 88.650 V 72.450 M 196.335 75.450 V 104.850 M 196.335 107.850 V 137.250 M 196.335 140.250 V 169.650 M 197.835 172.650 V 156.450 M 197.835 153.450 V 124.050 M 197.835 121.050 V 91.650 M 197.835 88.650 V 72.450 M 199.335 75.450 V 104.850 M 199.335 107.850 V 137.250 M 199.335 140.250 V 169.650 M 200.835 172.650 V 156.450 M 200.835 153.450 V 124.050 M 200.835 121.050 V 91.650 M 200.835 88.650 V 72.450 M 202.335 75.450 V 104.850 M 202.335 107.850 V 137.250 M 202.335 140.250 V 169.650 M 203.835 172.650 V 156.450 M 203.835 153.450 V 124.050 M 203.835 121.050 V 91.650 M 203.835 88.650 V 72.450 M 205.335 75.450 V 104.850 M 205.335 107.850 V 137.250 M 205.335 140.250 V 169.650 M 206.835 172.650 V 156.450 M 206.835 153.450 V 124.050 M 206.835 121.050 V 91.650 M 206.835 88.650 V 72.450 M 208.335 75.450 V 104.850 M 208.335 107.850 V 137.250 M 208.335 140.250 V 169.650 M 209.835 172.650 V 156.450 M 209.835 153.450 V 124.050 M 209.835 121.050 V 91.650 M 209.835 88.650 V 72.450 M 211.335 75.450 V 104.850 M 211.335 107.850 V 137.250 M 211.335 140.250 V 169.650 M 212.835 172.650 V 156.450 M 212.835 153.450 V 124.050 M 212.835 121.050 V 91.650 M 212.835 88.650 V 72.450 M 214.335 75.450 V 104.850 M 214.335 107.850 V 137.250 M 214.335 140.250 V 169.650 M 215.835 172.650 V 156.450 M 215.835 153.450 V 124.050 M 215.835 121.050 V 91.650 M 215.835 88.650 V 72.450 M 217.335 75.450 V 104.850 M 217.335 107.850 V 137.250 M 217.335 140.250 V 169.650 M 218.835 172.650 V 156.450 M 218.835 153.450 V 124.050 M 218.835 121.050 V 91.650 M 218.835 88.650 V 72.450 M 220.335 75.450 V 104.850 M 220.335 107.850 V 137.250 M 220.335 140.250 V 169.650 M 221.835 172.650 V 156.450 M 221.835 153.450 V 124.050 M 221.835 121.050 V 91.650 M 221.835 88.650 V 72.450 M 223.335 75.450 V 104.850 M 223.335 107.850 V 137.250 M 223.335 140.250 V 169.650 M 224.835 172.650 V 156.450 M 224.835 153.450 V 124.050 M 224.835 121.050 V 91.650 M 224.835 88.650 V 72.450 M 226.335 75.450 V 104.850 M 226.335 107.850 V 137.250 M 226.335 140.250 V 169.650 M 227.835 172.650 V 156.450 M 227.835 153.450 V 124.050 M 227.835 121.050 V 91.650 M 227.835 88.650 V 72.450 M 229.335 75.450 V 104.850 M 229.335 107.850 V 137.250 M 229.335 140.250 V 169.650 M 230.835 172.650 V 156.450 M 230.835 153.450 V 124.050 M 230.835 121.050 V 91.650 M 230.835 88.650 V 72.450 M 232.335 75.450 V 104.850 M 232.335 107.850 V 137.250 M 232.335 140.250 V 169.650 M 233.835 172.650 V 156.450 M 233.835 153.450 V 124.050 M 233.835 121.050 V 91.650 M 233.835 88.650 V 72.450" stroke="rgb(0,0,0)" stroke-width="0.20" />
</g>
<g id="p-2" style="fill:none;stroke-linecap:round;stroke-linejoin:round;">
  <path d="M 37.100 67.200 H 48.000 C 48.100 67.200 48.000 67.100 48.000 67.200 V 70.100 C 48.000 70.155 48.045 70.200 48.100 70.200 H 54.100 C 54.155 70.200 54.200 70.155 54.200 70.100 V 67.200 C 54.200 67.100 54.100 67.200 54.200 67.200 H 60.000 C 60.100 67.200 60.000 67.100 60.000 67.200 V 70.100 C 60.000 70.155 60.045 70.200 60.100 70.200 H 66.100 C 66.155 70.200 66.200 70.155 66.200 70.100 V 67.200 C 66.200 67.100 66.100 67.200 66.200 67.200 H 77.100 C 81.857 67.200 86.530 65.948 90.650 63.569 C 94.770 61.191 98.191 57.770 100.569 53.650 C 102.948 49.530 104.200 44.857 104.200 40.100 C 104.200 35.343 102.948 30.670 100.569 26.550 C 98.191 22.430 94.770 19.009 90.650 16.631 C 86.530 14.252 81.857 13.000 77.100 13.000 C 77.155 13.000 77.200 13.045 77.200 13.100 V 10.100 C 77.200 10.045 77.155 10.000 77.100 10.000 H 65.100 C 65.045 10.000 65.000 10.045 65.000 10.100 V 13.000 C 65.000 13.100 65.100 13.000 65.000 13.000 H 53.100 H 48.200 C 48.100 13.000 48.200 13.100 48.200 13.000 V 10.100 C 48.200 10.045 48.155 10.000 48.100 10.000 H 42.100 C 42.045 10.000 42.000 10.045 42.000 10.100 V 13.000 C 42.000 13.100 42.100 13.000 42.000 13.000 H 37.100 C 32.343 13.000 27.670 14.252 23.550 16.631 C 19.430 19.009 16.009 22.430 13.631 26.550 C 11.252 30.670 10.000 35.343 10.000 40.100 C 10.000 44.857 11.252 49.530 13.631 53.650 C 16.009 57.770 19.430 61.191 23.550 63.569 C 27.670 65.948 32.343 67.200 37.100 67.200 Z" stroke="rgb(0,0,0)" stroke-width="0.20" />
</g>
<g id="p-3" style="fill:none;stroke-linecap:round;stroke-linejoin:round;">
  <path d="M 172.800 67.200 H 161.900 C 161.800 67.200 161.900 67.100 161.900 67.200 V 70.100 C 161.900 70.155 161.855 70.200 161.800 70.200 H 155.800 C 155.745 70.200 155.700 70.155 155.700 70.100 V 67.200 C 155.700 67.100 155.800 67.200 155.700 67.200 H 149.900 C 149.800 67.200 149.900 67.100 149.900 67.200 V 70.100 C 149.900 70.155 149.855 70.200 149.800 70.200 H 143.800 C 143.745 70.200 143.700 70.155 143.700 70.100 V 67.200 C 143.700 67.100 143.800 67.200 143.700 67.200 H 132.800 C 128.043 67.200 123.370 65.948 119.250 63.569 C 115.130 61.191 111.709 57.770 109.331 53.650 C 106.952 49.530 105.700 44.857 105.700 40.100 C 105.700 35.343 106.952 30.670 109.331 26.550 C 111.709 22.430 115.130 19.009 119.250 16.631 C 123.370 14.252 128.043 13.000 132.800 13.000 C 132.745 13.000 132.700 13.045 132.700 13.100 V 10.100 C 132.700 10.045 132.745 10.000 132.800 10.000 H 144.800 C 144.855 10.000 144.900 10.045 144.900 10.100 V 13.000 C 144.900 13.100 144.800 13.000 144.900 13.000 H 156.800 H 161.700 C 161.800 13.000 161.700 13.100 161.700 13.000 V 10.100 C 161.700 10.045 161.745 10.000 161.800 10.000 H 167.800 C 167.855 10.000 167.900 10.045 167.900 10.100 V 13.000 C 167.900 13.100 167.800 13.000 167.900 13.000 H 172.800 C 177.557 13.000 182.230 14.252 186.350 16.631 C 190.470 19.009 193.891 22.430 196.269 26.550 C 198.648 30.670 199.900 35.343 199.900 40.100 C 199.900 44.857 198.648 49.530 196.269 53.650 C 193.891 57.770 190.470 61.191 186.350 63.569 C 182.230 65.948 177.557 67.200 172.800 67.200 Z" stroke="rgb(0,0,0)" stroke-width="0.20" />
</g>
</svg>