<?xml version='1.0' encoding='utf-8'?>
<svg height="235.10mm" viewBox="0.0 0.0 320.60 235.10" width="320.60mm" xmlns="http://www.w3.org/2000/svg" xmlns:cc="http://creativecommons.org/ns#" xmlns:dc="http://purl.org/dc/elements/1.1/" xmlns:inkscape="http://www.inkscape.org/namespaces/inkscape" xmlns:rdf="http://www.w3.org/1999/02/22-rdf-syntax-ns#" xmlns:svg="http://www.w3.org/2000/svg" xmlns:xlink="http://www.w3.org/1999/xlink">
<!--
FlexBox4 - Box with living hinge and left corners rounded

Created with Boxes.py (https://festi.info/boxes.py)
Command line (remove spaces between dashes): boxes FlexBox4
-->
<title>FlexBox4</title>
<metadata>
<rdf:RDF><cc:Work>
<dc:title>FlexBox - FlexBox4</dc:title>
<dc:source>boxes FlexBox4</dc:source>
<dc:description>Box with living hinge and left corners rounded

Created with Boxes.py (https://festi.info/boxes.py)
Command line: boxes FlexBox4
Command line short: boxes FlexBox4
</dc:description>
</cc:Work></rdf:RDF></metadata>
<g id="p-0" style="fill:none;stroke-linecap:round;stroke-linejoin:round;">
  <path d="M 10.100 225.100 H 110.100 V 215.100 H 10.100 V 225.100 Z" stroke="rgb(0,0,0)" stroke-width="0.20" />
  <text dominant-baseline="hanging" font-size="6px" style="font-family: sans-serif ; font-weight: normal; font-style: normal; fill: rgb(255,0,0)" text-anchor="middle" transform="matrix( 1.000 0.000 0.000 1.000 60.100 217.100 )">100.0mm, burn:0.10mm</text>
</g>
<g id="p-1" style="fill:none;stroke-linecap:round;stroke-linejoin:round;">
  <path d="M 13.100 212.650 H 19.600 C 19.655 212.650 19.700 212.605 19.700 212.550 V 209.650 C 19.700 209.550 19.600 209.650 19.700 209.650 H 25.500 C 25.600 209.650 25.500 209.550 25.500 209.650 V 212.550 C 25.500 212.605 25.545 212.650 25.600 212.650 H 31.600 C 31.655 212.650 31.700 212.605 31.700 212.550 V 209.650 C 31.700 209.550 31.600 209.650 31.700 209.650 H 37.500 C 37.600 209.650 37.500 209.550 37.500 209.650 V 212.550 C 37.500 212.605 37.545 212.650 37.600 212.650 H 43.600 C 43.655 212.650 43.700 212.605 43.700 212.550 V 209.650 C 43.700 209.550 43.600 209.650 43.700 209.650 H 49.500 C 49.600 209.650 49.500 209.550 49.500 209.650 V 212.550 C 49.500 212.605 49.545 212.650 49.600 212.650 H 55.600 C 55.655 212.650 55.700 212.605 55.700 212.550 V 209.650 C 55.700 209.550 55.600 209.650 55.700 209.650 H 61.500 C 61.600 209.650 61.500 209.550 61.500 209.650 V 212.550 C 61.500 212.605 61.545 212.650 61.600 212.650 H 67.600 C 67.655 212.650 67.700 212.605 67.700 212.550 V 209.650 C 67.700 209.550 67.600 209.650 67.700 209.650 H 73.500 C 73.600 209.650 73.500 209.550 73.500 209.650 V 212.550 C 73.500 212.605 73.545 212.650 73.600 212.650 H 79.600 C 79.655 212.650 79.700 212.605 79.700 212.550 V 209.650 C 79.700 209.550 79.600 209.650 79.700 209.650 H 85.500 C 85.600 209.650 85.500 209.550 85.500 209.650 V 212.550 C 85.500 212.605 85.545 212.650 85.600 212.650 H 92.100 H 115.662 H 179.662 H 203.224 H 258.224 C 258.279 212.650 258.324 212.605 258.324 212.550 V 209.350 C 258.324 209.250 258.224 209.350 258.324 209.350 H 270.724 C 270.824 209.350 270.724 209.250 270.724 209.350 V 212.550 C 270.724 212.699 270.763 212.846 270.838 212.975 C 270.912 213.104 271.020 213.212 271.149 213.286 C 271.278 213.361 271.425 213.400 271.574 213.400 C 271.705 213.400 271.833 213.366 271.946 213.300 C 272.060 213.235 272.154 213.141 272.219 213.028 C 272.284 212.914 272.319 212.786 272.319 212.655 C 272.319 212.559 272.344 212.465 272.392 212.382 C 272.440 212.300 272.509 212.231 272.591 212.183 C 272.674 212.135 272.768 212.110 272.864 212.110 C 272.960 212.110 273.054 212.135 273.136 212.183 C 273.219 212.231 273.288 212.300 273.336 212.382 C 273.384 212.465 273.409 212.559 273.409 212.655 C 273.409 212.786 273.443 212.914 273.509 213.028 C 273.574 213.141 273.668 213.235 273.781 213.300 C 273.895 213.366 274.023 213.400 274.154 213.400 C 274.285 213.400 274.413 213.366 274.526 213.300 C 274.640 213.235 274.734 213.141 274.799 213.028 C 274.864 212.914 274.899 212.786 274.899 212.655 C 274.899 212.559 274.924 212.465 274.972 212.382 C 275.020 212.300 275.089 212.231 275.171 212.183 C 275.254 212.135 275.348 212.110 275.444 212.110 C 275.540 212.110 275.634 212.135 275.716 212.183 C 275.799 212.231 275.868 212.300 275.916 212.383 C 275.964 212.465 275.989 212.559 275.989 212.655 C 275.989 212.786 276.023 212.914 276.089 213.028 C 276.154 213.141 276.248 213.235 276.361 213.300 C 276.475 213.366 276.603 213.400 276.734 213.400 C 276.865 213.400 276.993 213.366 277.106 213.300 C 277.220 213.235 277.314 213.141 277.379 213.028 C 277.444 212.914 277.479 212.786 277.479 212.655 C 277.479 212.559 277.504 212.465 277.552 212.383 C 277.600 212.300 277.669 212.231 277.751 212.183 C 277.834 212.135 277.928 212.110 278.024 212.110 C 278.120 212.110 278.214 212.135 278.296 212.183 C 278.379 212.231 278.448 212.300 278.496 212.383 C 278.544 212.465 278.569 212.559 278.569 212.655 C 278.569 212.786 278.603 212.914 278.669 213.028 C 278.734 213.141 278.828 213.235 278.941 213.300 C 279.055 213.366 279.183 213.400 279.314 213.400 C 279.445 213.400 279.573 213.366 279.686 213.300 C 279.800 213.235 279.894 213.141 279.959 213.028 C 280.024 212.914 280.059 212.786 280.059 212.655 C 280.059 212.559 280.084 212.465 280.132 212.383 C 280.180 212.300 280.249 212.231 280.331 212.183 C 280.414 212.135 280.508 212.110 280.604 212.110 C 280.700 212.110 280.794 212.135 280.876 212.183 C 280.959 212.231 281.028 212.300 281.076 212.383 C 281.124 212.465 281.149 212.559 281.149 212.655 C 281.149 212.786 281.183 212.914 281.249 213.028 C 281.314 213.141 281.408 213.235 281.521 213.300 C 281.635 213.366 281.763 213.400 281.894 213.400 C 282.025 213.400 282.153 213.366 282.266 213.300 C 282.380 213.235 282.474 213.141 282.539 213.028 C 282.604 212.914 282.639 212.786 282.639 212.655 C 282.639 212.559 282.664 212.465 282.712 212.383 C 282.760 212.300 282.829 212.231 282.911 212.183 C 282.994 212.135 283.088 212.110 283.184 212.110 C 283.280 212.110 283.374 212.135 283.456 212.183 C 283.539 212.231 283.608 212.300 283.656 212.383 C 283.704 212.465 283.729 212.559 283.729 212.655 C 283.729 212.786 283.763 212.914 283.829 213.028 C 283.894 213.141 283.988 213.235 284.101 213.300 C 284.215 213.366 284.343 213.400 284.474 213.400 C 284.623 213.400 284.770 213.361 284.899 213.286 C 285.028 213.212 285.135 213.104 285.210 212.975 C 285.285 212.846 285.324 212.699 285.324 212.550 V 112.550 C 285.324 112.401 285.285 112.254 285.210 112.125 C 285.135 111.996 285.028 111.888 284.899 111.814 C 284.770 111.739 284.623 111.700 284.474 111.700 C 284.343 111.700 284.215 111.734 284.101 111.800 C 283.988 111.865 283.894 111.959 283.829 112.073 C 283.763 112.186 283.729 112.314 283.729 112.445 C 283.729 112.541 283.704 112.635 283.656 112.718 C 283.608 112.800 283.539 112.869 283.456 112.917 C 283.374 112.965 283.280 112.990 283.184 112.990 C 283.088 112.990 282.994 112.965 282.911 112.917 C 282.829 112.869 282.760 112.800 282.712 112.718 C 282.664 112.635 282.639 112.541 282.639 112.445 C 282.639 112.314 282.604 112.186 282.539 112.073 C 282.474 111.959 282.380 111.865 282.266 111.800 C 282.153 111.734 282.025 111.700 281.894 111.700 C 281.763 111.700 281.635 111.734 281.521 111.800 C 281.408 111.865 281.314 111.959 281.249 112.073 C 281.183 112.186 281.149 112.314 281.149 112.445 C 281.149 112.541 281.124 112.635 281.076 112.718 C 281.028 112.800 280.959 112.869 280.876 112.917 C 280.794 112.965 280.700 112.990 280.604 112.990 C 280.508 112.990 280.414 112.965 280.331 112.917 C 280.249 112.869 280.180 112.800 280.132 112.718 C 280.084 112.635 280.059 112.541 280.059 112.445 C 280.059 112.314 280.024 112.186 279.959 112.073 C 279.894 111.959 279.800 111.865 279.686 111.800 C 279.573 111.734 279.445 111.700 279.314 111.700 C 279.183 111.700 279.055 111.734 278.941 111.800 C 278.828 111.865 278.734 111.959 278.669 112.072 C 278.603 112.186 278.569 112.314 278.569 112.445 C 278.569 112.541 278.544 112.635 278.496 112.717 C 278.448 112.800 278.379 112.869 278.296 112.917 C 278.214 112.965 278.120 112.990 278.024 112.990 C 277.928 112.990 277.834 112.965 277.751 112.917 C 277.669 112.869 277.600 112.800 277.552 112.717 C 277.504 112.635 277.479 112.541 277.479 112.445 C 277.479 112.314 277.444 112.186 277.379 112.072 C 277.314 111.959 277.220 111.865 277.106 111.800 C 276.993 111.734 276.865 111.700 276.734 111.700 C 276.603 111.700 276.475 111.734 276.361 111.800 C 276.248 111.865 276.154 111.959 276.089 112.072 C 276.023 112.186 275.989 112.314 275.989 112.445 C 275.989 112.541 275.964 112.635 275.916 112.717 C 275.868 112.800 275.799 112.869 275.716 112.917 C 275.634 112.965 275.540 112.990 275.444 112.990 C 275.348 112.990 275.254 112.965 275.171 112.917 C 275.089 112.869 275.020 112.800 274.972 112.717 C 274.924 112.635 274.899 112.541 274.899 112.445 C 274.899 112.314 274.864 112.186 274.799 112.072 C 274.734 111.959 274.640 111.865 274.526 111.800 C 274.413 111.734 274.285 111.700 274.154 111.700 C 274.023 111.700 273.895 111.734 273.781 111.800 C 273.668 111.865 273.574 111.959 273.509 112.072 C 273.443 112.186 273.409 112.314 273.409 112.445 C 273.409 112.541 273.384 112.635 273.336 112.717 C 273.288 112.800 273.219 112.869 273.136 112.917 C 273.054 112.965 272.960 112.990 272.864 112.990 C 272.768 112.990 272.674 112.965 272.591 112.917 C 272.509 112.869 272.440 112.800 272.392 112.717 C 272.344 112.635 272.319 112.541 272.319 112.445 C 272.319 112.314 272.284 112.186 272.219 112.072 C 272.154 111.959 272.060 111.865 271.946 111.800 C 271.833 111.734 271.705 111.700 271.574 111.700 C 271.425 111.700 271.278 111.739 271.149 111.814 C 271.020 111.888 270.912 111.996 270.838 112.125 C 270.763 112.254 270.724 112.401 270.724 112.550 V 115.750 C 270.724 115.850 270.824 115.750 270.724 115.750 H 258.324 C 258.224 115.750 258.324 115.850 258.324 115.750 V 112.550 C 258.324 112.495 258.279 112.450 258.224 112.450 H 203.224 H 179.662 H 115.662 H 92.100 H 85.600 C 85.545 112.450 85.500 112.495 85.500 112.550 V 115.450 C 85.500 115.550 85.600 115.450 85.500 115.450 H 79.700 C 79.600 115.450 79.700 115.550 79.700 115.450 V 112.550 C 79.700 112.495 79.655 112.450 79.600 112.450 H 73.600 C 73.545 112.450 73.500 112.495 73.500 112.550 V 115.450 C 73.500 115.550 73.600 115.450 73.500 115.450 H 67.700 C 67.600 115.450 67.700 115.550 67.700 115.450 V 112.550 C 67.700 112.495 67.655 112.450 67.600 112.450 H 61.600 C 61.545 112.450 61.500 112.495 61.500 112.550 V 115.450 C 61.500 115.550 61.600 115.450 61.500 115.450 H 55.700 C 55.600 115.450 55.700 115.550 55.700 115.450 V 112.550 C 55.700 112.495 55.655 112.450 55.600 112.450 H 49.600 C 49.545 112.450 49.500 112.495 49.500 112.550 V 115.450 C 49.500 115.550 49.600 115.450 49.500 115.450 H 43.700 C 43.600 115.450 43.700 115.550 43.700 115.450 V 112.550 C 43.700 112.495 43.655 112.450 43.600 112.450 H 37.600 C 37.545 112.450 37.500 112.495 37.500 112.550 V 115.450 C 37.500 115.550 37.600 115.450 37.500 115.450 H 31.700 C 31.600 115.450 31.700 115.550 31.700 115.450 V 112.550 C 31.700 112.495 31.655 112.450 31.600 112.450 H 25.600 C 25.545 112.450 25.500 112.495 25.500 112.550 V 115.450 C 25.500 115.550 25.600 115.450 25.500 115.450 H 19.700 C 19.600 115.450 19.700 115.550 19.700 115.450 V 112.550 C 19.700 112.495 19.655 112.450 19.600 112.450 H 13.100 C 13.045 112.450 13.000 112.495 13.000 112.550 V 115.550 V 123.450 C 13.000 123.550 13.100 123.450 13.000 123.450 H 10.100 C 10.045 123.450 10.000 123.495 10.000 123.550 V 129.550 C 10.000 129.605 10.045 129.650 10.100 129.650 H 13.000 C 13.100 129.650 13.000 129.550 13.000 129.650 V 135.450 C 13.000 135.550 13.100 135.450 13.000 135.450 H 10.100 C 10.045 135.450 10.000 135.495 10.000 135.550 V 141.550 C 10.000 141.605 10.045 141.650 10.100 141.650 H 13.000 C 13.100 141.650 13.000 141.550 13.000 141.650 V 147.450 C 13.000 147.550 13.100 147.450 13.000 147.450 H 10.100 C 10.045 147.450 10.000 147.495 10.000 147.550 V 153.550 C 10.000 153.605 10.045 153.650 10.100 153.650 H 13.000 C 13.100 153.650 13.000 153.550 13.000 153.650 V 159.450 C 13.000 159.550 13.100 159.450 13.000 159.450 H 10.100 C 10.045 159.450 10.000 159.495 10.000 159.550 V 165.550 C 10.000 165.605 10.045 165.650 10.100 165.650 H 13.000 C 13.100 165.650 13.000 165.550 13.000 165.650 V 171.450 C 13.000 171.550 13.100 171.450 13.000 171.450 H 10.100 C 10.045 171.450 10.000 171.495 10.000 171.550 V 177.550 C 10.000 177.605 10.045 177.650 10.100 177.650 H 13.000 C 13.100 177.650 13.000 177.550 13.000 177.650 V 183.450 C 13.000 183.550 13.100 183.450 13.000 183.450 H 10.100 C 10.045 183.450 10.000 183.495 10.000 183.550 V 189.550 C 10.000 189.605 10.045 189.650 10.100 189.650 H 13.000 C 13.100 189.650 13.000 189.550 13.000 189.650 V 195.450 C 13.000 195.550 13.100 195.450 13.000 195.450 H 10.100 C 10.045 195.450 10.000 195.495 10.000 195.550 V 201.550 C 10.000 201.605 10.045 201.650 10.100 201.650 H 13.000 C 13.100 201.650 13.000 201.550 13.000 201.650 V 209.550 V 212.550 C 13.000 212.605 13.045 212.650 13.100 212.650 Z" stroke="rgb(0,0,0)" stroke-width="0.20" />
  <path d="M 94.131 212.650 V 196.450 M 94.131 193.450 V 164.050 M 94.131 161.050 V 131.650 M 94.131 128.650 V 112.450 M 95.631 115.450 V 144.850 M 95.631 147.850 V 177.250 M 95.631 180.250 V 209.650 M 97.131 212.650 V 196.450 M 97.131 193.450 V 164.050 M 97.131 161.050 V 131.650 M 97.131 128.650 V 112.450 M 98.631 115.450 V 144.850 M 98.631 147.850 V 177.250 M 98.631 180.250 V 209.650 M 100.131 212.650 V 196.450 M 100.131 193.450 V 164.050 M 100.131 161.050 V 131.650 M 100.131 128.650 V 112.450 M 101.631 115.450 V 144.850 M 101.631 147.850 V 177.250 M 101.631 180.250 V 209.650 M 103.131 212.650 V 196.450 M 103.131 193.450 V 164.050 M 103.131 161.050 V 131.650 M 103.131 128.650 V 112.450 M 104.631 115.450 V 144.850 M 104.631 147.850 V 177.250 M 104.631 180.250 V 209.650 M 106.131 212.650 V 196.450 M 106.131 193.450 V 164.050 M 106.131 161.050 V 131.650 M 106.131 128.650 V 112.450 M 107.631 115.450 V 144.850 M 107.631 147.850 V 177.250 M 107.631 180.250 V 209.650 M 109.131 212.650 V 196.450 M 109.131 193.450 V 164.050 M 109.131 161.050 V 131.650 M 109.131 128.650 V 112.450 M 110.631 115.450 V 144.850 M 110.631 147.850 V 177.250 M 110.631 180.250 V 209.650 M 112.131 212.650 V 196.450 M 112.131 193.450 V 164.050 M 112.131 161.050 V 131.650 M 112.131 128.650 V 112.450 M 113.631 115.450 V 144.850 M 113.631 147.850 V 177.250 M 113.631 180.250 V 209.650" stroke="rgb(0,0,0)" stroke-width="0.20" />
  <path d="M 181.693 212.650 V 196.450 M 181.693 193.450 V 164.050 M 181.693 161.050 V 131.650 M 181.693 128.650 V 112.450 M 183.193 115.450 V 144.850 M 183.193 147.850 V 177.250 M 183.193 180.250 V 209.650 M 184.693 212.650 V 196.450 M 184.693 193.450 V 164.050 M 184.693 161.050 V 131.650 M 184.693 128.650 V 112.450 M 186.193 115.450 V 144.850 M 186.193 147.850 V 177.250 M 186.193 180.250 V 209.650 M 187.693 212.650 V 196.450 M 187.693 193.450 V 164.050 M 187.693 161.050 V 131.650 M 187.693 128.650 V 112.450 M 189.193 115.450 V 144.850 M 189.193 147.850 V 177.250 M 189.193 180.250 V 209.650 M 190.693 212.650 V 196.450 M 190.693 193.450 V 164.050 M 190.693 161.050 V 131.650 M 190.693 128.650 V 112.450 M 192.193 115.450 V 144.850 M 192.193 147.850 V 177.250 M 192.193 180.250 V 209.650 M 193.693 212.650 V 196.450 M 193.693 193.450 V 164.050 M 193.693 161.050 V 131.650 M 193.693 128.650 V 112.450 M 195.193 115.450 V 144.850 M 195.193 147.850 V 177.250 M 195.193 180.250 V 209.650 M 196.693 212.650 V 196.450 M 196.693 193.450 V 164.050 M 196.693 161.050 V 131.650 M 196.693 128.650 V 112.450 M 198.193 115.450 V 144.850 M 198.193 147.850 V 177.250 M 198.193 180.250 V 209.650 M 199.693 212.650 V 196.450 M 199.693 193.450 V 164.050 M 199.693 161.050 V 131.650 M 199.693 128.650 V 112.450 M 201.193 115.450 V 144.850 M 201.193 147.850 V 177.250 M 201.193 180.250 V 209.650" stroke="rgb(0,0,0)" stroke-width="0.20" />
</g>
<g id="p-2" style="fill:none;stroke-linecap:round;stroke-linejoin:round;">
  <path d="M 13.100 107.200 H 21.000 C 21.100 107.200 21.000 107.100 21.000 107.200 V 110.100 C 21.000 110.155 21.045 110.200 21.100 110.200 H 27.100 C 27.155 110.200 27.200 110.155 27.200 110.100 V 107.200 C 27.200 107.100 27.100 107.200 27.200 107.200 H 33.000 C 33.100 107.200 33.000 107.100 33.000 107.200 V 110.100 C 33.000 110.155 33.045 110.200 33.100 110.200 H 39.100 C 39.155 110.200 39.200 110.155 39.200 110.100 V 107.200 C 39.200 107.100 39.100 107.200 39.200 107.200 H 45.000 C 45.100 107.200 45.000 107.100 45.000 107.200 V 110.100 C 45.000 110.155 45.045 110.200 45.100 110.200 H 51.100 C 51.155 110.200 51.200 110.155 51.200 110.100 V 107.200 C 51.200 107.100 51.100 107.200 51.200 107.200 H 57.000 C 57.100 107.200 57.000 107.100 57.000 107.200 V 110.100 C 57.000 110.155 57.045 110.200 57.100 110.200 H 63.100 C 63.155 110.200 63.200 110.155 63.200 110.100 V 107.200 C 63.200 107.100 63.100 107.200 63.200 107.200 H 69.000 C 69.100 107.200 69.000 107.100 69.000 107.200 V 110.100 C 69.000 110.155 69.045 110.200 69.100 110.200 H 75.100 C 75.155 110.200 75.200 110.155 75.200 110.100 V 107.200 C 75.200 107.100 75.100 107.200 75.200 107.200 H 81.000 C 81.100 107.200 81.000 107.100 81.000 107.200 V 110.100 C 81.000 110.155 81.045 110.200 81.100 110.200 H 87.100 C 87.155 110.200 87.200 110.155 87.200 110.100 V 107.200 C 87.200 107.100 87.100 107.200 87.200 107.200 H 93.000 C 93.100 107.200 93.000 107.100 93.000 107.200 V 110.100 C 93.000 110.155 93.045 110.200 93.100 110.200 H 99.100 C 99.155 110.200 99.200 110.155 99.200 110.100 V 107.200 C 99.200 107.100 99.100 107.200 99.200 107.200 H 107.100 C 107.155 107.200 107.200 107.155 107.200 107.100 V 100.700 C 107.200 100.600 107.100 100.700 107.200 100.700 H 110.100 C 110.155 100.700 110.200 100.655 110.200 100.600 V 94.600 C 110.200 94.545 110.155 94.500 110.100 94.500 H 107.200 C 107.100 94.500 107.200 94.600 107.200 94.500 V 88.700 C 107.200 88.600 107.100 88.700 107.200 88.700 H 110.100 C 110.155 88.700 110.200 88.655 110.200 88.600 V 82.600 C 110.200 82.545 110.155 82.500 110.100 82.500 H 107.200 C 107.100 82.500 107.200 82.600 107.200 82.500 V 76.700 C 107.200 76.600 107.100 76.700 107.200 76.700 H 110.100 C 110.155 76.700 110.200 76.655 110.200 76.600 V 70.600 C 110.200 70.545 110.155 70.500 110.100 70.500 H 107.200 C 107.100 70.500 107.200 70.600 107.200 70.500 V 64.700 C 107.200 64.600 107.100 64.700 107.200 64.700 H 110.100 C 110.155 64.700 110.200 64.655 110.200 64.600 V 58.600 C 110.200 58.545 110.155 58.500 110.100 58.500 H 107.200 C 107.100 58.500 107.200 58.600 107.200 58.500 V 52.700 C 107.200 52.600 107.100 52.700 107.200 52.700 H 110.100 C 110.155 52.700 110.200 52.655 110.200 52.600 V 46.600 C 110.200 46.545 110.155 46.500 110.100 46.500 H 107.200 C 107.100 46.500 107.200 46.600 107.200 46.500 V 40.700 C 107.200 40.600 107.100 40.700 107.200 40.700 H 110.100 C 110.155 40.700 110.200 40.655 110.200 40.600 V 34.600 C 110.200 34.545 110.155 34.500 110.100 34.500 H 107.200 C 107.100 34.500 107.200 34.600 107.200 34.500 V 28.100 C 107.200 25.449 106.502 22.845 105.177 20.550 C 103.852 18.255 101.945 16.348 99.650 15.023 C 97.355 13.698 94.751 13.000 92.100 13.000 H 28.100 C 25.449 13.000 22.845 13.698 20.550 15.023 C 18.255 16.348 16.348 18.255 15.023 20.550 C 13.698 22.845 13.000 25.449 13.000 28.100 V 83.000 C 13.000 83.100 13.100 83.000 13.000 83.000 H 10.100 C 10.045 83.000 10.000 83.045 10.000 83.100 V 95.100 C 10.000 95.155 10.045 95.200 10.100 95.200 H 13.000 C 13.100 95.200 13.000 95.100 13.000 95.200 V 107.100 C 13.000 107.155 13.045 107.200 13.100 107.200 Z" stroke="rgb(0,0,0)" stroke-width="0.20" />
</g>
<g id="p-3" style="fill:none;stroke-linecap:round;stroke-linejoin:round;">
  <path d="M 208.800 107.200 H 200.900 C 200.800 107.200 200.900 107.100 200.900 107.200 V 110.100 C 200.900 110.155 200.855 110.200 200.800 110.200 H 194.800 C 194.745 110.200 194.700 110.155 194.700 110.100 V 107.200 C 194.700 107.100 194.800 107.200 194.700 107.200 H 188.900 C 188.800 107.200 188.900 107.100 188.900 107.200 V 110.100 C 188.900 110.155 188.855 110.200 188.800 110.200 H 182.800 C 182.745 110.200 182.700 110.155 182.700 110.100 V 107.200 C 182.700 107.100 182.800 107.200 182.700 107.200 H 176.900 C 176.800 107.200 176.900 107.100 176.900 107.200 V 110.100 C 176.900 110.155 176.855 110.200 176.800 110.200 H 170.800 C 170.745 110.200 170.700 110.155 170.700 110.100 V 107.200 C 170.700 107.100 170.800 107.200 170.700 107.200 H 164.900 C 164.800 107.200 164.900 107.100 164.900 107.200 V 110.100 C 164.900 110.155 164.855 110.200 164.800 110.200 H 158.800 C 158.745 110.200 158.700 110.155 158.700 110.100 V 107.200 C 158.700 107.100 158.800 107.200 158.700 107.200 H 152.900 C 152.800 107.200 152.900 107.100 152.900 107.200 V 110.100 C 152.900 110.155 152.855 110.200 152.800 110.200 H 146.800 C 146.745 110.200 146.700 110.155 146.700 110.100 V 107.200 C 146.700 107.100 146.800 107.200 146.700 107.200 H 140.900 C 140.800 107.200 140.900 107.100 140.900 107.200 V 110.100 C 140.900 110.155 140.855 110.200 140.800 110.200 H 134.800 C 134.745 110.200 134.700 110.155 134.700 110.100 V 107.200 C 134.700 107.100 134.800 107.200 134.700 107.200 H 128.900 C 128.800 107.200 128.900 107.100 128.900 107.200 V 110.100 C 128.900 110.155 128.855 110.200 128.800 110.200 H 122.800 C 122.745 110.200 122.700 110.155 122.700 110.100 V 107.200 C 122.700 107.100 122.800 107.200 122.700 107.200 H 114.800 C 114.745 107.200 114.700 107.155 114.700 107.100 V 100.700 C 114.700 100.600 114.800 100.700 114.700 100.700 H 111.800 C 111.745 100.700 111.700 100.655 111.700 100.600 V 94.600 C 111.700 94.545 111.745 94.500 111.800 94.500 H 114.700 C 114.800 94.500 114.700 94.600 114.700 94.500 V 88.700 C 114.700 88.600 114.800 88.700 114.700 88.700 H 111.800 C 111.745 88.700 111.700 88.655 111.700 88.600 V 82.600 C 111.700 82.545 111.745 82.500 111.800 82.500 H 114.700 C 114.800 82.500 114.700 82.600 114.700 82.500 V 76.700 C 114.700 76.600 114.800 76.700 114.700 76.700 H 111.800 C 111.745 76.700 111.700 76.655 111.700 76.600 V 70.600 C 111.700 70.545 111.745 70.500 111.800 70.500 H 114.700 C 114.800 70.500 114.700 70.600 114.700 70.500 V 64.700 C 114.700 64.600 114.800 64.700 114.700 64.700 H 111.800 C 111.745 64.700 111.700 64.655 111.700 64.600 V 58.600 C 111.700 58.545 111.745 58.500 111.800 58.500 H 114.700 C 114.800 58.500 114.700 58.600 114.700 58.500 V 52.700 C 114.700 52.600 114.800 52.700 114.700 52.700 H 111.800 C 111.745 52.700 111.700 52.655 111.700 52.600 V 46.600 C 111.700 46.545 111.745 46.500 111.800 46.500 H 114.700 C 114.800 46.500 114.700 46.600 114.700 46.500 V 40.700 C 114.700 40.600 114.800 40.700 114.700 40.700 H 111.800 C 111.745 40.700 111.700 40.655 111.700 40.600 V 34.600 C 111.700 34.545 111.745 34.500 111.800 34.500 H 114.700 C 114.800 34.500 114.700 34.600 114.700 34.500 V 28.100 C 114.700 25.449 115.398 22.845 116.723 20.550 C 118.048 18.255 119.955 16.348 122.250 15.023 C 124.545 13.698 127.149 13.000 129.800 13.000 H 193.800 C 196.451 13.000 199.055 13.698 201.350 15.023 C 203.645 16.348 205.552 18.255 206.877 20.550 C 208.202 22.845 208.900 25.449 208.900 28.100 V 83.000 C 208.900 83.100 208.800 83.000 208.900 83.000 H 211.800 C 211.855 83.000 211.900 83.045 211.900 83.100 V 95.100 C 211.900 95.155 211.855 95.200 211.800 95.200 H 208.900 C 208.800 95.200 208.900 95.100 208.900 95.200 V 107.100 C 208.900 107.155 208.855 107.200 208.800 107.200 Z" stroke="rgb(0,0,0)" stroke-width="0.20" />
</g>
<g id="p-4" style="fill:none;stroke-linecap:round;stroke-linejoin:round;">
  <path d="M 216.500 110.200 H 224.500 C 224.555 110.200 224.600 110.155 224.600 110.100 V 107.200 C 224.600 107.100 224.500 107.200 224.600 107.200 H 230.400 C 230.500 107.200 230.400 107.100 230.400 107.200 V 110.100 C 230.400 110.155 230.445 110.200 230.500 110.200 H 236.500 C 236.555 110.200 236.600 110.155 236.600 110.100 V 107.200 C 236.600 107.100 236.500 107.200 236.600 107.200 H 242.400 C 242.500 107.200 242.400 107.100 242.400 107.200 V 110.100 C 242.400 110.155 242.445 110.200 242.500 110.200 H 248.500 C 248.555 110.200 248.600 110.155 248.600 110.100 V 107.200 C 248.600 107.100 248.500 107.200 248.600 107.200 H 254.400 C 254.500 107.200 254.400 107.100 254.400 107.200 V 110.100 C 254.400 110.155 254.445 110.200 254.500 110.200 H 260.500 C 260.555 110.200 260.600 110.155 260.600 110.100 V 107.200 C 260.600 107.100 260.500 107.200 260.600 107.200 H 266.400 C 266.500 107.200 266.400 107.100 266.400 107.200 V 110.100 C 266.400 110.155 266.445 110.200 266.500 110.200 H 272.500 C 272.555 110.200 272.600 110.155 272.600 110.100 V 107.200 C 272.600 107.100 272.500 107.200 272.600 107.200 H 278.400 C 278.500 107.200 278.400 107.100 278.400 107.200 V 110.100 C 278.400 110.155 278.445 110.200 278.500 110.200 H 284.500 C 284.555 110.200 284.600 110.155 284.600 110.100 V 107.200 C 284.600 107.100 284.500 107.200 284.600 107.200 H 290.400 C 290.500 107.200 290.400 107.100 290.400 107.200 V 110.100 C 290.400 110.155 290.445 110.200 290.500 110.200 H 296.500 C 296.555 110.200 296.600 110.155 296.600 110.100 V 107.200 C 296.600 107.100 296.500 107.200 296.600 107.200 H 302.400 C 302.500 107.200 302.400 107.100 302.400 107.200 V 110.100 C 302.400 110.155 302.445 110.200 302.500 110.200 H 310.500 C 310.555 110.200 310.600 110.155 310.600 110.100 V 107.100 V 13.100 V 10.100 C 310.600 10.045 310.555 10.000 310.500 10.000 H 302.500 C 302.445 10.000 302.400 10.045 302.400 10.100 V 13.000 C 302.400 13.100 302.500 13.000 302.400 13.000 H 296.600 C 296.500 13.000 296.600 13.100 296.600 13.000 V 10.100 C 296.600 10.045 296.555 10.000 296.500 10.000 H 290.500 C 290.445 10.000 290.400 10.045 290.400 10.100 V 13.000 C 290.400 13.100 290.500 13.000 290.400 13.000 H 284.600 C 284.500 13.000 284.600 13.100 284.600 13.000 V 10.100 C 284.600 10.045 284.555 10.000 284.500 10.000 H 278.500 C 278.445 10.000 278.400 10.045 278.400 10.100 V 13.000 C 278.400 13.100 278.500 13.000 278.400 13.000 H 272.600 C 272.500 13.000 272.600 13.100 272.600 13.000 V 10.100 C 272.600 10.045 272.555 10.000 272.500 10.000 H 266.500 C 266.445 10.000 266.400 10.045 266.400 10.100 V 13.000 C 266.400 13.100 266.500 13.000 266.400 13.000 H 260.600 C 260.500 13.000 260.600 13.100 260.600 13.000 V 10.100 C 260.600 10.045 260.555 10.000 260.500 10.000 H 254.500 C 254.445 10.000 254.400 10.045 254.400 10.100 V 13.000 C 254.400 13.100 254.500 13.000 254.400 13.000 H 248.600 C 248.500 13.000 248.600 13.100 248.600 13.000 V 10.100 C 248.600 10.045 248.555 10.000 248.500 10.000 H 242.500 C 242.445 10.000 242.400 10.045 242.400 10.100 V 13.000 C 242.400 13.100 242.500 13.000 242.400 13.000 H 236.600 C 236.500 13.000 236.600 13.100 236.600 13.000 V 10.100 C 236.600 10.045 236.555 10.000 236.500 10.000 H 230.500 C 230.445 10.000 230.400 10.045 230.400 10.100 V 13.000 C 230.400 13.100 230.500 13.000 230.400 13.000 H 224.600 C 224.500 13.000 224.600 13.100 224.600 13.000 V 10.100 C 224.600 10.045 224.555 10.000 224.500 10.000 H 216.500 H 213.500 C 213.445 10.000 213.400 10.045 213.400 10.100 V 13.100 V 21.100 C 213.400 21.155 213.445 21.200 213.500 21.200 H 216.400 C 216.500 21.200 216.400 21.100 216.400 21.200 V 27.000 C 216.400 27.100 216.500 27.000 216.400 27.000 H 213.500 C 213.445 27.000 213.400 27.045 213.400 27.100 V 33.100 C 213.400 33.155 213.445 33.200 213.500 33.200 H 216.400 C 216.500 33.200 216.400 33.100 216.400 33.200 V 39.000 C 216.400 39.100 216.500 39.000 216.400 39.000 H 213.500 C 213.445 39.000 213.400 39.045 213.400 39.100 V 45.100 C 213.400 45.155 213.445 45.200 213.500 45.200 H 216.400 C 216.500 45.200 216.400 45.100 216.400 45.200 V 51.000 C 216.400 51.100 216.500 51.000 216.400 51.000 H 213.500 C 213.445 51.000 213.400 51.045 213.400 51.100 V 57.100 C 213.400 57.155 213.445 57.200 213.500 57.200 H 216.400 C 216.500 57.200 216.400 57.100 216.400 57.200 V 63.000 C 216.400 63.100 216.500 63.000 216.400 63.000 H 213.500 C 213.445 63.000 213.400 63.045 213.400 63.100 V 69.100 C 213.400 69.155 213.445 69.200 213.500 69.200 H 216.400 C 216.500 69.200 216.400 69.100 216.400 69.200 V 75.000 C 216.400 75.100 216.500 75.000 216.400 75.000 H 213.500 C 213.445 75.000 213.400 75.045 213.400 75.100 V 81.100 C 213.400 81.155 213.445 81.200 213.500 81.200 H 216.400 C 216.500 81.200 216.400 81.100 216.400 81.200 V 87.000 C 216.400 87.100 216.500 87.000 216.400 87.000 H 213.500 C 213.445 87.000 213.400 87.045 213.400 87.100 V 93.100 C 213.400 93.155 213.445 93.200 213.500 93.200 H 216.400 C 216.500 93.200 216.400 93.100 216.400 93.200 V 99.000 C 216.400 99.100 216.500 99.000 216.400 99.000 H 213.500 C 213.445 99.000 213.400 99.045 213.400 99.100 V 107.100 V 110.100 C 213.400 110.155 213.445 110.200 213.500 110.200 H 216.500 Z" stroke="rgb(0,0,0)" stroke-width="0.20" />
</g>
</svg>