<?xml version='1.0' encoding='utf-8'?>
<svg height="235.10mm" viewBox="0.0 0.0 329.30 235.10" width="329.30mm" xmlns="http://www.w3.org/2000/svg" xmlns:cc="http://creativecommons.org/ns#" xmlns:dc="http://purl.org/dc/elements/1.1/" xmlns:inkscape="http://www.inkscape.org/namespaces/inkscape" xmlns:rdf="http://www.w3.org/1999/02/22-rdf-syntax-ns#" xmlns:svg="http://www.w3.org/2000/svg" xmlns:xlink="http://www.w3.org/1999/xlink">
<!--
FlexBox4 - Box with living hinge and left corners rounded

Created with Boxes.py (https://festi.info/boxes.py)
Command line (remove spaces between dashes): boxes FlexBox4
-->
<title>FlexBox4</title>
<metadata>
<rdf:RDF><cc:Work>
<dc:title>FlexBox - FlexBox4</dc:title>
<dc:source>boxes FlexBox4</dc:source>
<dc:description>Box with living hinge and left corners rounded

Created with Boxes.py (https://festi.info/boxes.py)
Command line: boxes FlexBox4
Command line short: boxes FlexBox4
</dc:description>
</cc:Work></rdf:RDF></metadata>
<g id="p-0" style="fill:none;stroke-linecap:round;stroke-linejoin:round;">
  <path d="M 18.800 225.100 H 118.800 V 215.100 H 18.800 V 225.100 Z" stroke="rgb(0,0,0)" stroke-width="0.20" />
  <text dominant-baseline="hanging" font-size="8px" style="font-family: sans-serif ; font-weight: normal; font-style: normal; fill: rgb(255,0,0)" text-anchor="middle" transform="matrix( 1.000 0.000 0.000 1.000 68.800 216.100 )">100.00mm, burn:0.10mm</text>
</g>
<g id="p-1" style="fill:none;stroke-linecap:round;stroke-linejoin:round;">
  <path d="M 21.800 212.650 H 28.300 C 28.355 212.650 28.400 212.605 28.400 212.550 V 209.650 C 28.400 209.550 28.300 209.650 28.400 209.650 H 34.200 C 34.300 209.650 34.200 209.550 34.200 209.650 V 212.550 C 34.200 212.605 34.245 212.650 34.300 212.650 H 40.300 C 40.355 212.650 40.400 212.605 40.400 212.550 V 209.650 C 40.400 209.550 40.300 209.650 40.400 209.650 H 46.200 C 46.300 209.650 46.200 209.550 46.200 209.650 V 212.550 C 46.200 212.605 46.245 212.650 46.300 212.650 H 52.300 C 52.355 212.650 52.400 212.605 52.400 212.550 V 209.650 C 52.400 209.550 52.300 209.650 52.400 209.650 H 58.200 C 58.300 209.650 58.200 209.550 58.200 209.650 V 212.550 C 58.200 212.605 58.245 212.650 58.300 212.650 H 64.300 C 64.355 212.650 64.400 212.605 64.400 212.550 V 209.650 C 64.400 209.550 64.300 209.650 64.400 209.650 H 70.200 C 70.300 209.650 70.200 209.550 70.200 209.650 V 212.550 C 70.200 212.605 70.245 212.650 70.300 212.650 H 76.300 C 76.355 212.650 76.400 212.605 76.400 212.550 V 209.650 C 76.400 209.550 76.300 209.650 76.400 209.650 H 82.200 C 82.300 209.650 82.200 209.550 82.200 209.650 V 212.550 C 82.200 212.605 82.245 212.650 82.300 212.650 H 88.300 C 88.355 212.650 88.400 212.605 88.400 212.550 V 209.650 C 88.400 209.550 88.300 209.650 88.400 209.650 H 94.200 C 94.300 209.650 94.200 209.550 94.200 209.650 V 212.550 C 94.200 212.605 94.245 212.650 94.300 212.650 H 100.800 H 124.362 H 188.362 H 211.924 H 266.924 C 266.979 212.650 267.024 212.605 267.024 212.550 V 209.350 C 267.024 209.250 266.924 209.350 267.024 209.350 H 279.424 C 279.524 209.350 279.424 209.250 279.424 209.350 V 212.550 C 279.424 212.699 279.463 212.846 279.538 212.975 C 279.612 213.104 279.720 213.212 279.849 213.286 C 279.978 213.361 280.125 213.400 280.274 213.400 C 280.405 213.400 280.533 213.366 280.646 213.300 C 280.760 213.235 280.854 213.141 280.919 213.028 C 280.984 212.914 281.019 212.786 281.019 212.655 C 281.019 212.559 281.044 212.465 281.092 212.382 C 281.140 212.300 281.209 212.231 281.291 212.183 C 281.374 212.135 281.468 212.110 281.564 212.110 C 281.660 212.110 281.754 212.135 281.836 212.183 C 281.919 212.231 281.988 212.300 282.036 212.382 C 282.084 212.465 282.109 212.559 282.109 212.655 C 282.109 212.786 282.143 212.914 282.209 213.028 C 282.274 213.141 282.368 213.235 282.481 213.300 C 282.595 213.366 282.723 213.400 282.854 213.400 C 282.985 213.400 283.113 213.366 283.226 213.300 C 283.340 213.235 283.434 213.141 283.499 213.028 C 283.564 212.914 283.599 212.786 283.599 212.655 C 283.599 212.559 283.624 212.465 283.672 212.382 C 283.720 212.300 283.789 212.231 283.871 212.183 C 283.954 212.135 284.048 212.110 284.144 212.110 C 284.240 212.110 284.334 212.135 284.416 212.183 C 284.499 212.231 284.568 212.300 284.616 212.383 C 284.664 212.465 284.689 212.559 284.689 212.655 C 284.689 212.786 284.723 212.914 284.789 213.028 C 284.854 213.141 284.948 213.235 285.061 213.300 C 285.175 213.366 285.303 213.400 285.434 213.400 C 285.565 213.400 285.693 213.366 285.806 213.300 C 285.920 213.235 286.014 213.141 286.079 213.028 C 286.144 212.914 286.179 212.786 286.179 212.655 C 286.179 212.559 286.204 212.465 286.252 212.383 C 286.300 212.300 286.369 212.231 286.451 212.183 C 286.534 212.135 286.628 212.110 286.724 212.110 C 286.820 212.110 286.914 212.135 286.996 212.183 C 287.079 212.231 287.148 212.300 287.196 212.383 C 287.244 212.465 287.269 212.559 287.269 212.655 C 287.269 212.786 287.303 212.914 287.369 213.028 C 287.434 213.141 287.528 213.235 287.641 213.300 C 287.755 213.366 287.883 213.400 288.014 213.400 C 288.145 213.400 288.273 213.366 288.386 213.300 C 288.500 213.235 288.594 213.141 288.659 213.028 C 288.724 212.914 288.759 212.786 288.759 212.655 C 288.759 212.559 288.784 212.465 288.832 212.383 C 288.880 212.300 288.949 212.231 289.031 212.183 C 289.114 212.135 289.208 212.110 289.304 212.110 C 289.400 212.110 289.494 212.135 289.576 212.183 C 289.659 212.231 289.728 212.300 289.776 212.383 C 289.824 212.465 289.849 212.559 289.849 212.655 C 289.849 212.786 289.883 212.914 289.949 213.028 C 290.014 213.141 290.108 213.235 290.221 213.300 C 290.335 213.366 290.463 213.400 290.594 213.400 C 290.725 213.400 290.853 213.366 290.966 213.300 C 291.080 213.235 291.174 213.141 291.239 213.028 C 291.304 212.914 291.339 212.786 291.339 212.655 C 291.339 212.559 291.364 212.465 291.412 212.383 C 291.460 212.300 291.529 212.231 291.611 212.183 C 291.694 212.135 291.788 212.110 291.884 212.110 C 291.980 212.110 292.074 212.135 292.156 212.183 C 292.239 212.231 292.308 212.300 292.356 212.383 C 292.404 212.465 292.429 212.559 292.429 212.655 C 292.429 212.786 292.463 212.914 292.529 213.028 C 292.594 213.141 292.688 213.235 292.801 213.300 C 292.915 213.366 293.043 213.400 293.174 213.400 C 293.323 213.400 293.470 213.361 293.599 213.286 C 293.728 213.212 293.835 213.104 293.910 212.975 C 293.985 212.846 294.024 212.699 294.024 212.550 V 112.550 C 294.024 112.401 293.985 112.254 293.910 112.125 C 293.835 111.996 293.728 111.888 293.599 111.814 C 293.470 111.739 293.323 111.700 293.174 111.700 C 293.043 111.700 292.915 111.734 292.801 111.800 C 292.688 111.865 292.594 111.959 292.529 112.073 C 292.463 112.186 292.429 112.314 292.429 112.445 C 292.429 112.541 292.404 112.635 292.356 112.718 C 292.308 112.800 292.239 112.869 292.156 112.917 C 292.074 112.965 291.980 112.990 291.884 112.990 C 291.788 112.990 291.694 112.965 291.611 112.917 C 291.529 112.869 291.460 112.800 291.412 112.718 C 291.364 112.635 291.339 112.541 291.339 112.445 C 291.339 112.314 291.304 112.186 291.239 112.073 C 291.174 111.959 291.080 111.865 290.966 111.800 C 290.853 111.734 290.725 111.700 290.594 111.700 C 290.463 111.700 290.335 111.734 290.221 111.800 C 290.108 111.865 290.014 111.959 289.949 112.073 C 289.883 112.186 289.849 112.314 289.849 112.445 C 289.849 112.541 289.824 112.635 289.776 112.718 C 289.728 112.800 289.659 112.869 289.576 112.917 C 289.494 112.965 289.400 112.990 289.304 112.990 C 289.208 112.990 289.114 112.965 289.031 112.917 C 288.949 112.869 288.880 112.800 288.832 112.718 C 288.784 112.635 288.759 112.541 288.759 112.445 C 288.759 112.314 288.724 112.186 288.659 112.073 C 288.594 111.959 288.500 111.865 288.386 111.800 C 288.273 111.734 288.145 111.700 288.014 111.700 C 287.883 111.700 287.755 111.734 287.641 111.800 C 287.528 111.865 287.434 111.959 287.369 112.072 C 287.303 112.186 287.269 112.314 287.269 112.445 C 287.269 112.541 287.244 112.635 287.196 112.717 C 287.148 112.800 287.079 112.869 286.996 112.917 C 286.914 112.965 286.820 112.990 286.724 112.990 C 286.628 112.990 286.534 112.965 286.451 112.917 C 286.369 112.869 286.300 112.800 286.252 112.717 C 286.204 112.635 286.179 112.541 286.179 112.445 C 286.179 112.314 286.144 112.186 286.079 112.072 C 286.014 111.959 285.920 111.865 285.806 111.800 C 285.693 111.734 285.565 111.700 285.434 111.700 C 285.303 111.700 285.175 111.734 285.061 111.800 C 284.948 111.865 284.854 111.959 284.789 112.072 C 284.723 112.186 284.689 112.314 284.689 112.445 C 284.689 112.541 284.664 112.635 284.616 112.717 C 284.568 112.800 284.499 112.869 284.416 112.917 C 284.334 112.965 284.240 112.990 284.144 112.990 C 284.048 112.990 283.954 112.965 283.871 112.917 C 283.789 112.869 283.720 112.800 283.672 112.717 C 283.624 112.635 283.599 112.541 283.599 112.445 C 283.599 112.314 283.564 112.186 283.499 112.072 C 283.434 111.959 283.340 111.865 283.226 111.800 C 283.113 111.734 282.985 111.700 282.854 111.700 C 282.723 111.700 282.595 111.734 282.481 111.800 C 282.368 111.865 282.274 111.959 282.209 112.072 C 282.143 112.186 282.109 112.314 282.109 112.445 C 282.109 112.541 282.084 112.635 282.036 112.717 C 281.988 112.800 281.919 112.869 281.836 112.917 C 281.754 112.965 281.660 112.990 281.564 112.990 C 281.468 112.990 281.374 112.965 281.291 112.917 C 281.209 112.869 281.140 112.800 281.092 112.717 C 281.044 112.635 281.019 112.541 281.019 112.445 C 281.019 112.314 280.984 112.186 280.919 112.072 C 280.854 111.959 280.760 111.865 280.646 111.800 C 280.533 111.734 280.405 111.700 280.274 111.700 C 280.125 111.700 279.978 111.739 279.849 111.814 C 279.720 111.888 279.612 111.996 279.538 112.125 C 279.463 112.254 279.424 112.401 279.424 112.550 V 115.750 C 279.424 115.850 279.524 115.750 279.424 115.750 H 267.024 C 266.924 115.750 267.024 115.850 267.024 115.750 V 112.550 C 267.024 112.495 266.979 112.450 266.924 112.450 H 211.924 H 188.362 H 124.362 H 100.800 H 94.300 C 94.245 112.450 94.200 112.495 94.200 112.550 V 115.450 C 94.200 115.550 94.300 115.450 94.200 115.450 H 88.400 C 88.300 115.450 88.400 115.550 88.400 115.450 V 112.550 C 88.400 112.495 88.355 112.450 88.300 112.450 H 82.300 C 82.245 112.450 82.200 112.495 82.200 112.550 V 115.450 C 82.200 115.550 82.300 115.450 82.200 115.450 H 76.400 C 76.300 115.450 76.400 115.550 76.400 115.450 V 112.550 C 76.400 112.495 76.355 112.450 76.300 112.450 H 70.300 C 70.245 112.450 70.200 112.495 70.200 112.550 V 115.450 C 70.200 115.550 70.300 115.450 70.200 115.450 H 64.400 C 64.300 115.450 64.400 115.550 64.400 115.450 V 112.550 C 64.400 112.495 64.355 112.450 64.300 112.450 H 58.300 C 58.245 112.450 58.200 112.495 58.200 112.550 V 115.450 C 58.200 115.550 58.300 115.450 58.200 115.450 H 52.400 C 52.300 115.450 52.400 115.550 52.400 115.450 V 112.550 C 52.400 112.495 52.355 112.450 52.300 112.450 H 46.300 C 46.245 112.450 46.200 112.495 46.200 112.550 V 115.450 C 46.200 115.550 46.300 115.450 46.200 115.450 H 40.400 C 40.300 115.450 40.400 115.550 40.400 115.450 V 112.550 C 40.400 112.495 40.355 112.450 40.300 112.450 H 34.300 C 34.245 112.450 34.200 112.495 34.200 112.550 V 115.450 C 34.200 115.550 34.300 115.450 34.200 115.450 H 28.400 C 28.300 115.450 28.400 115.550 28.400 115.450 V 112.550 C 28.400 112.495 28.355 112.450 28.300 112.450 H 21.800 C 21.745 112.450 21.700 112.495 21.700 112.550 V 115.550 V 123.450 C 21.700 123.550 21.800 123.450 21.700 123.450 H 18.800 C 18.745 123.450 18.700 123.495 18.700 123.550 V 129.550 C 18.700 129.605 18.745 129.650 18.800 129.650 H 21.700 C 21.800 129.650 21.700 129.550 21.700 129.650 V 135.450 C 21.700 135.550 21.800 135.450 21.700 135.450 H 18.800 C 18.745 135.450 18.700 135.495 18.700 135.550 V 141.550 C 18.700 141.605 18.745 141.650 18.800 141.650 H 21.700 C 21.800 141.650 21.700 141.550 21.700 141.650 V 147.450 C 21.700 147.550 21.800 147.450 21.700 147.450 H 18.800 C 18.745 147.450 18.700 147.495 18.700 147.550 V 153.550 C 18.700 153.605 18.745 153.650 18.800 153.650 H 21.700 C 21.800 153.650 21.700 153.550 21.700 153.650 V 159.450 C 21.700 159.550 21.800 159.450 21.700 159.450 H 18.800 C 18.745 159.450 18.700 159.495 18.700 159.550 V 165.550 C 18.700 165.605 18.745 165.650 18.800 165.650 H 21.700 C 21.800 165.650 21.700 165.550 21.700 165.650 V 171.450 C 21.700 171.550 21.800 171.450 21.700 171.450 H 18.800 C 18.745 171.450 18.700 171.495 18.700 171.550 V 177.550 C 18.700 177.605 18.745 177.650 18.800 177.650 H 21.700 C 21.800 177.650 21.700 177.550 21.700 177.650 V 183.450 C 21.700 183.550 21.800 183.450 21.700 183.450 H 18.800 C 18.745 183.450 18.700 183.495 18.700 183.550 V 189.550 C 18.700 189.605 18.745 189.650 18.800 189.650 H 21.700 C 21.800 189.650 21.700 189.550 21.700 189.650 V 195.450 C 21.700 195.550 21.800 195.450 21.700 195.450 H 18.800 C 18.745 195.450 18.700 195.495 18.700 195.550 V 201.550 C 18.700 201.605 18.745 201.650 18.800 201.650 H 21.700 C 21.800 201.650 21.700 201.550 21.700 201.650 V 209.550 V 212.550 C 21.700 212.605 21.745 212.650 21.800 212.650 Z" stroke="rgb(0,0,0)" stroke-width="0.20" />
  <path d="M 102.831 212.650 V 196.450 M 102.831 193.450 V 164.050 M 102.831 161.050 V 131.650 M 102.831 128.650 V 112.450 M 104.331 115.450 V 144.850 M 104.331 147.850 V 177.250 M 104.331 180.250 V 209.650 M 105.831 212.650 V 196.450 M 105.831 193.450 V 164.050 M 105.831 161.050 V 131.650 M 105.831 128.650 V 112.450 M 107.331 115.450 V 144.850 M 107.331 147.850 V 177.250 M 107.331 180.250 V 209.650 M 108.831 212.650 V 196.450 M 108.831 193.450 V 164.050 M 108.831 161.050 V 131.650 M 108.831 128.650 V 112.450 M 110.331 115.450 V 144.850 M 110.331 147.850 V 177.250 M 110.331 180.250 V 209.650 M 111.831 212.650 V 196.450 M 111.831 193.450 V 164.050 M 111.831 161.050 V 131.650 M 111.831 128.650 V 112.450 M 113.331 115.450 V 144.850 M 113.331 147.850 V 177.250 M 113.331 180.250 V 209.650 M 114.831 212.650 V 196.450 M 114.831 193.450 V 164.050 M 114.831 161.050 V 131.650 M 114.831 128.650 V 112.450 M 116.331 115.450 V 144.850 M 116.331 147.850 V 177.250 M 116.331 180.250 V 209.650 M 117.831 212.650 V 196.450 M 117.831 193.450 V 164.050 M 117.831 161.050 V 131.650 M 117.831 128.650 V 112.450 M 119.331 115.450 V 144.850 M 119.331 147.850 V 177.250 M 119.331 180.250 V 209.650 M 120.831 212.650 V 196.450 M 120.831 193.450 V 164.050 M 120.831 161.050 V 131.650 M 120.831 128.650 V 112.450 M 122.331 115.450 V 144.850 M 122.331 147.850 V 177.250 M 122.331 180.250 V 209.650" stroke="rgb(0,0,0)" stroke-width="0.20" />
  <path d="M 190.393 212.650 V 196.450 M 190.393 193.450 V 164.050 M 190.393 161.050 V 131.650 M 190.393 128.650 V 112.450 M 191.893 115.450 V 144.850 M 191.893 147.850 V 177.250 M 191.893 180.250 V 209.650 M 193.393 212.650 V 196.450 M 193.393 193.450 V 164.050 M 193.393 161.050 V 131.650 M 193.393 128.650 V 112.450 M 194.893 115.450 V 144.850 M 194.893 147.850 V 177.250 M 194.893 180.250 V 209.650 M 196.393 212.650 V 196.450 M 196.393 193.450 V 164.050 M 196.393 161.050 V 131.650 M 196.393 128.650 V 112.450 M 197.893 115.450 V 144.850 M 197.893 147.850 V 177.250 M 197.893 180.250 V 209.650 M 199.393 212.650 V 196.450 M 199.393 193.450 V 164.050 M 199.393 161.050 V 131.650 M 199.393 128.650 V 112.450 M 200.893 115.450 V 144.850 M 200.893 147.850 V 177.250 M 200.893 180.250 V 209.650 M 202.393 212.650 V 196.450 M 202.393 193.450 V 164.050 M 202.393 161.050 V 131.650 M 202.393 128.650 V 112.450 M 203.893 115.450 V 144.850 M 203.893 147.850 V 177.250 M 203.893 180.250 V 209.650 M 205.393 212.650 V 196.450 M 205.393 193.450 V 164.050 M 205.393 161.050 V 131.650 M 205.393 128.650 V 112.450 M 206.893 115.450 V 144.850 M 206.893 147.850 V 177.250 M 206.893 180.250 V 209.650 M 208.393 212.650 V 196.450 M 208.393 193.450 V 164.050 M 208.393 161.050 V 131.650 M 208.393 128.650 V 112.450 M 209.893 115.450 V 144.850 M 209.893 147.850 V 177.250 M 209.893 180.250 V 209.650" stroke="rgb(0,0,0)" stroke-width="0.20" />
</g>
<g id="p-2" style="fill:none;stroke-linecap:round;stroke-linejoin:round;">
  <path d="M 21.800 107.200 H 29.700 C 29.800 107.200 29.700 107.100 29.700 107.200 V 110.100 C 29.700 110.155 29.745 110.200 29.800 110.200 H 35.800 C 35.855 110.200 35.900 110.155 35.900 110.100 V 107.200 C 35.900 107.100 35.800 107.200 35.900 107.200 H 41.700 C 41.800 107.200 41.700 107.100 41.700 107.200 V 110.100 C 41.700 110.155 41.745 110.200 41.800 110.200 H 47.800 C 47.855 110.200 47.900 110.155 47.900 110.100 V 107.200 C 47.900 107.100 47.800 107.200 47.900 107.200 H 53.700 C 53.800 107.200 53.700 107.100 53.700 107.200 V 110.100 C 53.700 110.155 53.745 110.200 53.800 110.200 H 59.800 C 59.855 110.200 59.900 110.155 59.900 110.100 V 107.200 C 59.900 107.100 59.800 107.200 59.900 107.200 H 65.700 C 65.800 107.200 65.700 107.100 65.700 107.200 V 110.100 C 65.700 110.155 65.745 110.200 65.800 110.200 H 71.800 C 71.855 110.200 71.900 110.155 71.900 110.100 V 107.200 C 71.900 107.100 71.800 107.200 71.900 107.200 H 77.700 C 77.800 107.200 77.700 107.100 77.700 107.200 V 110.100 C 77.700 110.155 77.745 110.200 77.800 110.200 H 83.800 C 83.855 110.200 83.900 110.155 83.900 110.100 V 107.200 C 83.900 107.100 83.800 107.200 83.900 107.200 H 89.700 C 89.800 107.200 89.700 107.100 89.700 107.200 V 110.100 C 89.700 110.155 89.745 110.200 89.800 110.200 H 95.800 C 95.855 110.200 95.900 110.155 95.900 110.100 V 107.200 C 95.900 107.100 95.800 107.200 95.900 107.200 H 101.700 C 101.800 107.200 101.700 107.100 101.700 107.200 V 110.100 C 101.700 110.155 101.745 110.200 101.800 110.200 H 107.800 C 107.855 110.200 107.900 110.155 107.900 110.100 V 107.200 C 107.900 107.100 107.800 107.200 107.900 107.200 H 115.800 C 115.855 107.200 115.900 107.155 115.900 107.100 V 100.700 C 115.900 100.600 115.800 100.700 115.900 100.700 H 118.800 C 118.855 100.700 118.900 100.655 118.900 100.600 V 94.600 C 118.900 94.545 118.855 94.500 118.800 94.500 H 115.900 C 115.800 94.500 115.900 94.600 115.900 94.500 V 88.700 C 115.900 88.600 115.800 88.700 115.900 88.700 H 118.800 C 118.855 88.700 118.900 88.655 118.900 88.600 V 82.600 C 118.900 82.545 118.855 82.500 118.800 82.500 H 115.900 C 115.800 82.500 115.900 82.600 115.900 82.500 V 76.700 C 115.900 76.600 115.800 76.700 115.900 76.700 H 118.800 C 118.855 76.700 118.900 76.655 118.900 76.600 V 70.600 C 118.900 70.545 118.855 70.500 118.800 70.500 H 115.900 C 115.800 70.500 115.900 70.600 115.900 70.500 V 64.700 C 115.900 64.600 115.800 64.700 115.900 64.700 H 118.800 C 118.855 64.700 118.900 64.655 118.900 64.600 V 58.600 C 118.900 58.545 118.855 58.500 118.800 58.500 H 115.900 C 115.800 58.500 115.900 58.600 115.900 58.500 V 52.700 C 115.900 52.600 115.800 52.700 115.900 52.700 H 118.800 C 118.855 52.700 118.900 52.655 118.900 52.600 V 46.600 C 118.900 46.545 118.855 46.500 118.800 46.500 H 115.900 C 115.800 46.500 115.900 46.600 115.900 46.500 V 40.700 C 115.900 40.600 115.800 40.700 115.900 40.700 H 118.800 C 118.855 40.700 118.900 40.655 118.900 40.600 V 34.600 C 118.900 34.545 118.855 34.500 118.800 34.500 H 115.900 C 115.800 34.500 115.900 34.600 115.900 34.500 V 28.100 C 115.900 25.449 115.202 22.845 113.877 20.550 C 112.552 18.255 110.645 16.348 108.350 15.023 C 106.055 13.698 103.451 13.000 100.800 13.000 H 36.800 C 34.149 13.000 31.545 13.698 29.250 15.023 C 26.955 16.348 25.048 18.255 23.723 20.550 C 22.398 22.845 21.700 25.449 21.700 28.100 V 83.000 C 21.700 83.100 21.800 83.000 21.700 83.000 H 18.800 C 18.745 83.000 18.700 83.045 18.700 83.100 V 95.100 C 18.700 95.155 18.745 95.200 18.800 95.200 H 21.700 C 21.800 95.200 21.700 95.100 21.700 95.200 V 107.100 C 21.700 107.155 21.745 107.200 21.800 107.200 Z" stroke="rgb(0,0,0)" stroke-width="0.20" />
</g>
<g id="p-3" style="fill:none;stroke-linecap:round;stroke-linejoin:round;">
  <path d="M 217.500 107.200 H 209.600 C 209.500 107.200 209.600 107.100 209.600 107.200 V 110.100 C 209.600 110.155 209.555 110.200 209.500 110.200 H 203.500 C 203.445 110.200 203.400 110.155 203.400 110.100 V 107.200 C 203.400 107.100 203.500 107.200 203.400 107.200 H 197.600 C 197.500 107.200 197.600 107.100 197.600 107.200 V 110.100 C 197.600 110.155 197.555 110.200 197.500 110.200 H 191.500 C 191.445 110.200 191.400 110.155 191.400 110.100 V 107.200 C 191.400 107.100 191.500 107.200 191.400 107.200 H 185.600 C 185.500 107.200 185.600 107.100 185.600 107.200 V 110.100 C 185.600 110.155 185.555 110.200 185.500 110.200 H 179.500 C 179.445 110.200 179.400 110.155 179.400 110.100 V 107.200 C 179.400 107.100 179.500 107.200 179.400 107.200 H 173.600 C 173.500 107.200 173.600 107.100 173.600 107.200 V 110.100 C 173.600 110.155 173.555 110.200 173.500 110.200 H 167.500 C 167.445 110.200 167.400 110.155 167.400 110.100 V 107.200 C 167.400 107.100 167.500 107.200 167.400 107.200 H 161.600 C 161.500 107.200 161.600 107.100 161.600 107.200 V 110.100 C 161.600 110.155 161.555 110.200 161.500 110.200 H 155.500 C 155.445 110.200 155.400 110.155 155.400 110.100 V 107.200 C 155.400 107.100 155.500 107.200 155.400 107.200 H 149.600 C 149.500 107.200 149.600 107.100 149.600 107.200 V 110.100 C 149.600 110.155 149.555 110.200 149.500 110.200 H 143.500 C 143.445 110.200 143.400 110.155 143.400 110.100 V 107.200 C 143.400 107.100 143.500 107.200 143.400 107.200 H 137.600 C 137.500 107.200 137.600 107.100 137.600 107.200 V 110.100 C 137.600 110.155 137.555 110.200 137.500 110.200 H 131.500 C 131.445 110.200 131.400 110.155 131.400 110.100 V 107.200 C 131.400 107.100 131.500 107.200 131.400 107.200 H 123.500 C 123.445 107.200 123.400 107.155 123.400 107.100 V 100.700 C 123.400 100.600 123.500 100.700 123.400 100.700 H 120.500 C 120.445 100.700 120.400 100.655 120.400 100.600 V 94.600 C 120.400 94.545 120.445 94.500 120.500 94.500 H 123.400 C 123.500 94.500 123.400 94.600 123.400 94.500 V 88.700 C 123.400 88.600 123.500 88.700 123.400 88.700 H 120.500 C 120.445 88.700 120.400 88.655 120.400 88.600 V 82.600 C 120.400 82.545 120.445 82.500 120.500 82.500 H 123.400 C 123.500 82.500 123.400 82.600 123.400 82.500 V 76.700 C 123.400 76.600 123.500 76.700 123.400 76.700 H 120.500 C 120.445 76.700 120.400 76.655 120.400 76.600 V 70.600 C 120.400 70.545 120.445 70.500 120.500 70.500 H 123.400 C 123.500 70.500 123.400 70.600 123.400 70.500 V 64.700 C 123.400 64.600 123.500 64.700 123.400 64.700 H 120.500 C 120.445 64.700 120.400 64.655 120.400 64.600 V 58.600 C 120.400 58.545 120.445 58.500 120.500 58.500 H 123.400 C 123.500 58.500 123.400 58.600 123.400 58.500 V 52.700 C 123.400 52.600 123.500 52.700 123.400 52.700 H 120.500 C 120.445 52.700 120.400 52.655 120.400 52.600 V 46.600 C 120.400 46.545 120.445 46.500 120.500 46.500 H 123.400 C 123.500 46.500 123.400 46.600 123.400 46.500 V 40.700 C 123.400 40.600 123.500 40.700 123.400 40.700 H 120.500 C 120.445 40.700 120.400 40.655 120.400 40.600 V 34.600 C 120.400 34.545 120.445 34.500 120.500 34.500 H 123.400 C 123.500 34.500 123.400 34.600 123.400 34.500 V 28.100 C 123.400 25.449 124.098 22.845 125.423 20.550 C 126.748 18.255 128.655 16.348 130.950 15.023 C 133.245 13.698 135.849 13.000 138.500 13.000 H 202.500 C 205.151 13.000 207.755 13.698 210.050 15.023 C 212.345 16.348 214.252 18.255 215.577 20.550 C 216.902 22.845 217.600 25.449 217.600 28.100 V 83.000 C 217.600 83.100 217.500 83.000 217.600 83.000 H 220.500 C 220.555 83.000 220.600 83.045 220.600 83.100 V 95.100 C 220.600 95.155 220.555 95.200 220.500 95.200 H 217.600 C 217.500 95.200 217.600 95.100 217.600 95.200 V 107.100 C 217.600 107.155 217.555 107.200 217.500 107.200 Z" stroke="rgb(0,0,0)" stroke-width="0.20" />
</g>
<g id="p-4" style="fill:none;stroke-linecap:round;stroke-linejoin:round;">
  <path d="M 225.200 110.200 H 233.200 C 233.255 110.200 233.300 110.155 233.300 110.100 V 107.200 C 233.300 107.100 233.200 107.200 233.300 107.200 H 239.100 C 239.200 107.200 239.100 107.100 239.100 107.200 V 110.100 C 239.100 110.155 239.145 110.200 239.200 110.200 H 245.200 C 245.255 110.200 245.300 110.155 245.300 110.100 V 107.200 C 245.300 107.100 245.200 107.200 245.300 107.200 H 251.100 C 251.200 107.200 251.100 107.100 251.100 107.200 V 110.100 C 251.100 110.155 251.145 110.200 251.200 110.200 H 257.200 C 257.255 110.200 257.300 110.155 257.300 110.100 V 107.200 C 257.300 107.100 257.200 107.200 257.300 107.200 H 263.100 C 263.200 107.200 263.100 107.100 263.100 107.200 V 110.100 C 263.100 110.155 263.145 110.200 263.200 110.200 H 269.200 C 269.255 110.200 269.300 110.155 269.300 110.100 V 107.200 C 269.300 107.100 269.200 107.200 269.300 107.200 H 275.100 C 275.200 107.200 275.100 107.100 275.100 107.200 V 110.100 C 275.100 110.155 275.145 110.200 275.200 110.200 H 281.200 C 281.255 110.200 281.300 110.155 281.300 110.100 V 107.200 C 281.300 107.100 281.200 107.200 281.300 107.200 H 287.100 C 287.200 107.200 287.100 107.100 287.100 107.200 V 110.100 C 287.100 110.155 287.145 110.200 287.200 110.200 H 293.200 C 293.255 110.200 293.300 110.155 293.300 110.100 V 107.200 C 293.300 107.100 293.200 107.200 293.300 107.200 H 299.100 C 299.200 107.200 299.100 107.100 299.100 107.200 V 110.100 C 299.100 110.155 299.145 110.200 299.200 110.200 H 305.200 C 305.255 110.200 305.300 110.155 305.300 110.100 V 107.200 C 305.300 107.100 305.200 107.200 305.300 107.200 H 311.100 C 311.200 107.200 311.100 107.100 311.100 107.200 V 110.100 C 311.100 110.155 311.145 110.200 311.200 110.200 H 319.200 C 319.255 110.200 319.300 110.155 319.300 110.100 V 107.100 V 13.100 V 10.100 C 319.300 10.045 319.255 10.000 319.200 10.000 H 311.200 C 311.145 10.000 311.100 10.045 311.100 10.100 V 13.000 C 311.100 13.100 311.200 13.000 311.100 13.000 H 305.300 C 305.200 13.000 305.300 13.100 305.300 13.000 V 10.100 C 305.300 10.045 305.255 10.000 305.200 10.000 H 299.200 C 299.145 10.000 299.100 10.045 299.100 10.100 V 13.000 C 299.100 13.100 299.200 13.000 299.100 13.000 H 293.300 C 293.200 13.000 293.300 13.100 293.300 13.000 V 10.100 C 293.300 10.045 293.255 10.000 293.200 10.000 H 287.200 C 287.145 10.000 287.100 10.045 287.100 10.100 V 13.000 C 287.100 13.100 287.200 13.000 287.100 13.000 H 281.300 C 281.200 13.000 281.300 13.100 281.300 13.000 V 10.100 C 281.300 10.045 281.255 10.000 281.200 10.000 H 275.200 C 275.145 10.000 275.100 10.045 275.100 10.100 V 13.000 C 275.100 13.100 275.200 13.000 275.100 13.000 H 269.300 C 269.200 13.000 269.300 13.100 269.300 13.000 V 10.100 C 269.300 10.045 269.255 10.000 269.200 10.000 H 263.200 C 263.145 10.000 263.100 10.045 263.100 10.100 V 13.000 C 263.100 13.100 263.200 13.000 263.100 13.000 H 257.300 C 257.200 13.000 257.300 13.100 257.300 13.000 V 10.100 C 257.300 10.045 257.255 10.000 257.200 10.000 H 251.200 C 251.145 10.000 251.100 10.045 251.100 10.100 V 13.000 C 251.100 13.100 251.200 13.000 251.100 13.000 H 245.300 C 245.200 13.000 245.300 13.100 245.300 13.000 V 10.100 C 245.300 10.045 245.255 10.000 245.200 10.000 H 239.200 C 239.145 10.000 239.100 10.045 239.100 10.100 V 13.000 C 239.100 13.100 239.200 13.000 239.100 13.000 H 233.300 C 233.200 13.000 233.300 13.100 233.300 13.000 V 10.100 C 233.300 10.045 233.255 10.000 233.200 10.000 H 225.200 H 222.200 C 222.145 10.000 222.100 10.045 222.100 10.100 V 13.100 V 21.100 C 222.100 21.155 222.145 21.200 222.200 21.200 H 225.100 C 225.200 21.200 225.100 21.100 225.100 21.200 V 27.000 C 225.100 27.100 225.200 27.000 225.100 27.000 H 222.200 C 222.145 27.000 222.100 27.045 222.100 27.100 V 33.100 C 222.100 33.155 222.145 33.200 222.200 33.200 H 225.100 C 225.200 33.200 225.100 33.100 225.100 33.200 V 39.000 C 225.100 39.100 225.200 39.000 225.100 39.000 H 222.200 C 222.145 39.000 222.100 39.045 222.100 39.100 V 45.100 C 222.100 45.155 222.145 45.200 222.200 45.200 H 225.100 C 225.200 45.200 225.100 45.100 225.100 45.200 V 51.000 C 225.100 51.100 225.200 51.000 225.100 51.000 H 222.200 C 222.145 51.000 222.100 51.045 222.100 51.100 V 57.100 C 222.100 57.155 222.145 57.200 222.200 57.200 H 225.100 C 225.200 57.200 225.100 57.100 225.100 57.200 V 63.000 C 225.100 63.100 225.200 63.000 225.100 63.000 H 222.200 C 222.145 63.000 222.100 63.045 222.100 63.100 V 69.100 C 222.100 69.155 222.145 69.200 222.200 69.200 H 225.100 C 225.200 69.200 225.100 69.100 225.100 69.200 V 75.000 C 225.100 75.100 225.200 75.000 225.100 75.000 H 222.200 C 222.145 75.000 222.100 75.045 222.100 75.100 V 81.100 C 222.100 81.155 222.145 81.200 222.200 81.200 H 225.100 C 225.200 81.200 225.100 81.100 225.100 81.200 V 87.000 C 225.100 87.100 225.200 87.000 225.100 87.000 H 222.200 C 222.145 87.000 222.100 87.045 222.100 87.100 V 93.100 C 222.100 93.155 222.145 93.200 222.200 93.200 H 225.100 C 225.200 93.200 225.100 93.100 225.100 93.200 V 99.000 C 225.100 99.100 225.200 99.000 225.100 99.000 H 222.200 C 222.145 99.000 222.100 99.045 222.100 99.100 V 107.100 V 110.100 C 222.100 110.155 222.145 110.200 222.200 110.200 H 225.200 Z" stroke="rgb(0,0,0)" stroke-width="0.20" />
</g>
</svg>