<?xml version="1.0" encoding="UTF-8"?>
<svg xmlns="http://www.w3.org/2000/svg" xmlns:xlink="http://www.w3.org/1999/xlink" width="552.279269pt" height="396.850384pt" viewBox="0 0 552.279269 396.850384" version="1.1">
<g id="surface1">
<path style=" stroke:none;fill-rule:nonzero;fill:rgb(100%,100%,100%);fill-opacity:1;" d="M 0 396.851562 L 1565.515625 396.851562 L 1565.515625 -728.078125 L 0 -728.078125 Z "/>
<path style="fill:none;stroke-width:0.1;stroke-linecap:butt;stroke-linejoin:miter;stroke:rgb(0%,0%,0%);stroke-opacity:1;stroke-miterlimit:10;" d="M 112 -62 L 109.000011 -62 M 109.000011 -62 L 106.000022 -62 M 105.645866 -5.900065 L 105.645866 -23.599588 M 105.645866 -26.599577 L 105.645866 -59.000011 M 104.14656 -62 L 104.14656 -44.300477 M 104.14656 -41.300488 L 104.14656 -8.900054 M 102.645877 -5.900065 L 102.645877 -23.599588 M 102.645877 -26.599577 L 102.645877 -59.000011 M 101.146571 -62 L 101.146571 -44.300477 M 101.146571 -41.300488 L 101.146571 -8.900054 M 99.645888 -5.900065 L 99.645888 -23.599588 M 99.645888 -26.599577 L 99.645888 -59.000011 M 98.146582 -62 L 98.146582 -44.300477 M 98.146582 -41.300488 L 98.146582 -8.900054 M 96.645898 -5.900065 L 96.645898 -23.599588 M 96.645898 -26.599577 L 96.645898 -59.000011 M 95.146593 -62 L 95.146593 -44.300477 M 95.146593 -41.300488 L 95.146593 -8.900054 M 93.645909 -5.900065 L 93.645909 -23.599588 M 93.645909 -26.599577 L 93.645909 -59.000011 M 92.146604 -62 L 92.146604 -44.300477 M 92.146604 -41.300488 L 92.146604 -8.900054 M 106.000022 -62 L 90.291764 -62 M 90.291764 -62 L 85.791092 -62 C 85.763531 -62 85.741482 -61.977951 85.741482 -61.950391 M 85.741482 -61.950391 L 85.741482 -58.950401 C 85.741482 -58.977962 85.763531 -59.000011 85.791092 -59.000011 M 85.791092 -59.000011 L 82.791102 -59.000011 C 82.818663 -59.000011 82.840712 -58.977962 82.840712 -58.950401 M 82.840712 -58.950401 L 82.840712 -61.950391 C 82.840712 -61.977951 82.818663 -62 82.791102 -62 M 82.791102 -62 L 79.791113 -62 C 79.763553 -62 79.741504 -61.977951 79.741504 -61.950391 M 79.741504 -61.950391 L 79.741504 -58.950401 C 79.741504 -58.977962 79.763553 -59.000011 79.791113 -59.000011 M 79.791113 -59.000011 L 76.791124 -59.000011 C 76.818685 -59.000011 76.840734 -58.977962 76.840734 -58.950401 M 76.840734 -58.950401 L 76.840734 -61.950391 C 76.840734 -61.977951 76.818685 -62 76.791124 -62 M 76.791124 -62 L 73.791135 -62 C 73.763574 -62 73.741526 -61.977951 73.741526 -61.950391 M 73.741526 -61.950391 L 73.741526 -58.950401 C 73.741526 -58.977962 73.763574 -59.000011 73.791135 -59.000011 M 73.791135 -59.000011 L 70.791146 -59.000011 C 70.818707 -59.000011 70.840755 -58.977962 70.840755 -58.950401 M 70.840755 -58.950401 L 70.840755 -61.950391 C 70.840755 -61.977951 70.818707 -62 70.791146 -62 M 70.791146 -62 L 67.791157 -62 C 67.763596 -62 67.741547 -61.977951 67.741547 -61.950391 M 67.741547 -61.950391 L 67.741547 -58.950401 C 67.741547 -58.977962 67.763596 -59.000011 67.791157 -59.000011 M 67.791157 -59.000011 L 64.791168 -59.000011 C 64.818728 -59.000011 64.840777 -58.977962 64.840777 -58.950401 M 64.840777 -58.950401 L 64.840777 -61.950391 C 64.840777 -61.977951 64.818728 -62 64.791168 -62 M 64.791168 -62 L 60.290495 -62 M 59.936339 -5.900065 L 59.936339 -23.599588 M 59.936339 -26.599577 L 59.936339 -59.000011 M 58.437033 -62 L 58.437033 -44.300477 M 58.437033 -41.300488 L 58.437033 -8.900054 M 56.93635 -5.900065 L 56.93635 -23.599588 M 56.93635 -26.599577 L 56.93635 -59.000011 M 55.437044 -62 L 55.437044 -44.300477 M 55.437044 -41.300488 L 55.437044 -8.900054 M 53.936361 -5.900065 L 53.936361 -23.599588 M 53.936361 -26.599577 L 53.936361 -59.000011 M 52.437055 -62 L 52.437055 -44.300477 M 52.437055 -41.300488 L 52.437055 -8.900054 M 50.936372 -5.900065 L 50.936372 -23.599588 M 50.936372 -26.599577 L 50.936372 -59.000011 M 49.437066 -62 L 49.437066 -44.300477 M 49.437066 -41.300488 L 49.437066 -8.900054 M 47.936382 -5.900065 L 47.936382 -23.599588 M 47.936382 -26.599577 L 47.936382 -59.000011 M 46.437077 -62 L 46.437077 -44.300477 M 46.437077 -41.300488 L 46.437077 -8.900054 M 60.290495 -62 L 44.582237 -62 M 44.582237 -62 L 40.081565 -62 C 40.054004 -62 40.031955 -61.977951 40.031955 -61.950391 M 40.031955 -61.950391 L 40.031955 -58.950401 C 40.031955 -58.977962 40.054004 -59.000011 40.081565 -59.000011 M 40.081565 -59.000011 L 37.081576 -59.000011 C 37.109136 -59.000011 37.131185 -58.977962 37.131185 -58.950401 M 37.131185 -58.950401 L 37.131185 -61.950391 C 37.131185 -61.977951 37.109136 -62 37.081576 -62 M 37.081576 -62 L 34.081586 -62 C 34.054026 -62 34.031977 -61.977951 34.031977 -61.950391 M 34.031977 -61.950391 L 34.031977 -58.950401 C 34.031977 -58.977962 34.054026 -59.000011 34.081586 -59.000011 M 34.081586 -59.000011 L 31.081597 -59.000011 C 31.109158 -59.000011 31.131207 -58.977962 31.131207 -58.950401 M 31.131207 -58.950401 L 31.131207 -61.950391 C 31.131207 -61.977951 31.109158 -62 31.081597 -62 M 31.081597 -62 L 28.081608 -62 C 28.054047 -62 28.031999 -61.977951 28.031999 -61.950391 M 28.031999 -61.950391 L 28.031999 -58.950401 C 28.031999 -58.977962 28.054047 -59.000011 28.081608 -59.000011 M 28.081608 -59.000011 L 25.081619 -59.000011 C 25.10918 -59.000011 25.131228 -58.977962 25.131228 -58.950401 M 25.131228 -58.950401 L 25.131228 -61.950391 C 25.131228 -61.977951 25.10918 -62 25.081619 -62 M 25.081619 -62 L 22.08163 -62 C 22.054069 -62 22.03202 -61.977951 22.03202 -61.950391 M 22.03202 -61.950391 L 22.03202 -58.950401 C 22.03202 -58.977962 22.054069 -59.000011 22.08163 -59.000011 M 22.08163 -59.000011 L 19.081641 -59.000011 C 19.109201 -59.000011 19.13125 -58.977962 19.13125 -58.950401 M 19.13125 -58.950401 L 19.13125 -61.950391 C 19.13125 -61.977951 19.109201 -62 19.081641 -62 M 19.081641 -62 L 14.580968 -62 M 14.226812 -5.900065 L 14.226812 -23.599588 M 14.226812 -26.599577 L 14.226812 -59.000011 M 12.727507 -62 L 12.727507 -44.300477 M 12.727507 -41.300488 L 12.727507 -8.900054 M 11.226823 -5.900065 L 11.226823 -23.599588 M 11.226823 -26.599577 L 11.226823 -59.000011 M 9.727517 -62 L 9.727517 -44.300477 M 9.727517 -41.300488 L 9.727517 -8.900054 M 8.226834 -5.900065 L 8.226834 -23.599588 M 8.226834 -26.599577 L 8.226834 -59.000011 M 6.727528 -62 L 6.727528 -44.300477 M 6.727528 -41.300488 L 6.727528 -8.900054 M 5.226845 -5.900065 L 5.226845 -23.599588 M 5.226845 -26.599577 L 5.226845 -59.000011 M 3.727539 -62 L 3.727539 -44.300477 M 3.727539 -41.300488 L 3.727539 -8.900054 M 2.226855 -5.900065 L 2.226855 -23.599588 M 2.226855 -26.599577 L 2.226855 -59.000011 M 0.72755 -62 L 0.72755 -44.300477 M 0.72755 -41.300488 L 0.72755 -8.900054 M 14.580968 -62 L -1.127289 -62 M -1.127289 -62 L -31.127181 -62 M -31.481337 -5.900065 L -31.481337 -23.599588 M -31.481337 -26.599577 L -31.481337 -59.000011 M -32.980642 -62 L -32.980642 -44.300477 M -32.980642 -41.300488 L -32.980642 -8.900054 M -34.481326 -5.900065 L -34.481326 -23.599588 M -34.481326 -26.599577 L -34.481326 -59.000011 M -35.980632 -62 L -35.980632 -44.300477 M -35.980632 -41.300488 L -35.980632 -8.900054 M -37.481315 -5.900065 L -37.481315 -23.599588 M -37.481315 -26.599577 L -37.481315 -59.000011 M -38.980621 -62 L -38.980621 -44.300477 M -38.980621 -41.300488 L -38.980621 -8.900054 M -40.481304 -5.900065 L -40.481304 -23.599588 M -40.481304 -26.599577 L -40.481304 -59.000011 M -41.98061 -62 L -41.98061 -44.300477 M -41.98061 -41.300488 L -41.98061 -8.900054 M -43.481293 -5.900065 L -43.481293 -23.599588 M -43.481293 -26.599577 L -43.481293 -59.000011 M -44.980599 -62 L -44.980599 -44.300477 M -44.980599 -41.300488 L -44.980599 -8.900054 M -31.127181 -62 L -46.835438 -62 C -46.862999 -62 -46.885048 -61.977951 -46.885048 -61.950391 M -46.885048 -61.950391 L -46.885048 -58.649989 C -46.885048 -58.67755 -46.862999 -58.699599 -46.835438 -58.699599 M -46.835438 -58.699599 L -59.434842 -58.699599 C -59.407281 -58.699599 -59.385232 -58.67755 -59.385232 -58.649989 M -59.385232 -58.649989 L -59.385232 -61.950391 C -59.385232 -62.392741 -59.743522 -62.751031 -60.185872 -62.751031 C -60.555187 -62.751031 -60.854221 -62.451997 -60.854221 -62.082682 C -60.854221 -61.324761 -61.991102 -61.324761 -61.991102 -62.082682 C -61.991102 -62.451997 -62.290137 -62.751031 -62.659451 -62.751031 C -63.028765 -62.751031 -63.327799 -62.451997 -63.327799 -62.082682 C -63.327799 -61.324761 -64.464681 -61.324761 -64.464681 -62.082682 C -64.464681 -62.451997 -64.763715 -62.751031 -65.13303 -62.751031 C -65.502344 -62.751031 -65.801378 -62.451997 -65.801378 -62.082682 C -65.801378 -61.324761 -66.93826 -61.324761 -66.93826 -62.082682 C -66.93826 -62.451997 -67.237294 -62.751031 -67.606608 -62.751031 C -67.975922 -62.751031 -68.274957 -62.451997 -68.274957 -62.082682 C -68.274957 -61.324761 -69.411838 -61.324761 -69.411838 -62.082682 C -69.411838 -62.451997 -69.710872 -62.751031 -70.080187 -62.751031 C -70.522537 -62.751031 -70.880827 -62.392741 -70.880827 -61.950391 M -70.880827 -61.950391 L -70.880827 -5.951053 C -70.880827 -5.508702 -70.522537 -5.150412 -70.080187 -5.150412 C -69.710872 -5.150412 -69.411838 -5.449447 -69.411838 -5.818761 C -69.411838 -6.576682 -68.274957 -6.576682 -68.274957 -5.818761 C -68.274957 -5.449447 -67.975922 -5.150412 -67.606608 -5.150412 C -67.237294 -5.150412 -66.93826 -5.449447 -66.93826 -5.818761 C -66.93826 -6.576682 -65.801378 -6.576682 -65.801378 -5.818761 C -65.801378 -5.449447 -65.502344 -5.150412 -65.13303 -5.150412 C -64.763715 -5.150412 -64.464681 -5.449447 -64.464681 -5.818761 C -64.464681 -6.576682 -63.327799 -6.576682 -63.327799 -5.818761 C -63.327799 -5.449447 -63.028765 -5.150412 -62.659451 -5.150412 C -62.290137 -5.150412 -61.991102 -5.449447 -61.991102 -5.818761 C -61.991102 -6.576682 -60.854221 -6.576682 -60.854221 -5.818761 C -60.854221 -5.449447 -60.555187 -5.150412 -60.185872 -5.150412 C -59.743522 -5.150412 -59.385232 -5.508702 -59.385232 -5.951053 M -59.385232 -5.951053 L -59.385232 -9.251454 C -59.385232 -9.223893 -59.407281 -9.201845 -59.434842 -9.201845 M -59.434842 -9.201845 L -46.835438 -9.201845 C -46.862999 -9.201845 -46.885048 -9.223893 -46.885048 -9.251454 M -46.885048 -9.251454 L -46.885048 -5.951053 C -46.885048 -5.923492 -46.862999 -5.901443 -46.835438 -5.901443 M -46.835438 -5.901443 L -31.127181 -5.901443 M -31.127181 -5.901443 L -1.127289 -5.901443 M -1.127289 -5.901443 L 14.580968 -5.901443 M 14.580968 -5.901443 L 19.081641 -5.901443 C 19.109201 -5.901443 19.13125 -5.923492 19.13125 -5.951053 M 19.13125 -5.951053 L 19.13125 -8.951042 C 19.13125 -8.923481 19.109201 -8.901432 19.081641 -8.901432 M 19.081641 -8.901432 L 22.08163 -8.901432 C 22.054069 -8.901432 22.03202 -8.923481 22.03202 -8.951042 M 22.03202 -8.951042 L 22.03202 -5.951053 C 22.03202 -5.923492 22.054069 -5.901443 22.08163 -5.901443 M 22.08163 -5.901443 L 25.081619 -5.901443 C 25.10918 -5.901443 25.131228 -5.923492 25.131228 -5.951053 M 25.131228 -5.951053 L 25.131228 -8.951042 C 25.131228 -8.923481 25.10918 -8.901432 25.081619 -8.901432 M 25.081619 -8.901432 L 28.081608 -8.901432 C 28.054047 -8.901432 28.031999 -8.923481 28.031999 -8.951042 M 28.031999 -8.951042 L 28.031999 -5.951053 C 28.031999 -5.923492 28.054047 -5.901443 28.081608 -5.901443 M 28.081608 -5.901443 L 31.081597 -5.901443 C 31.109158 -5.901443 31.131207 -5.923492 31.131207 -5.951053 M 31.131207 -5.951053 L 31.131207 -8.951042 C 31.131207 -8.923481 31.109158 -8.901432 31.081597 -8.901432 M 31.081597 -8.901432 L 34.081586 -8.901432 C 34.054026 -8.901432 34.031977 -8.923481 34.031977 -8.951042 M 34.031977 -8.951042 L 34.031977 -5.951053 C 34.031977 -5.923492 34.054026 -5.901443 34.081586 -5.901443 M 34.081586 -5.901443 L 37.081576 -5.901443 C 37.109136 -5.901443 37.131185 -5.923492 37.131185 -5.951053 M 37.131185 -5.951053 L 37.131185 -8.951042 C 37.131185 -8.923481 37.109136 -8.901432 37.081576 -8.901432 M 37.081576 -8.901432 L 40.081565 -8.901432 C 40.054004 -8.901432 40.031955 -8.923481 40.031955 -8.951042 M 40.031955 -8.951042 L 40.031955 -5.951053 C 40.031955 -5.923492 40.054004 -5.901443 40.081565 -5.901443 M 40.081565 -5.901443 L 44.582237 -5.901443 M 44.582237 -5.901443 L 60.290495 -5.901443 M 60.290495 -5.901443 L 64.791168 -5.901443 C 64.818728 -5.901443 64.840777 -5.923492 64.840777 -5.951053 M 64.840777 -5.951053 L 64.840777 -8.951042 C 64.840777 -8.923481 64.818728 -8.901432 64.791168 -8.901432 M 64.791168 -8.901432 L 67.791157 -8.901432 C 67.763596 -8.901432 67.741547 -8.923481 67.741547 -8.951042 M 67.741547 -8.951042 L 67.741547 -5.951053 C 67.741547 -5.923492 67.763596 -5.901443 67.791157 -5.901443 M 67.791157 -5.901443 L 70.791146 -5.901443 C 70.818707 -5.901443 70.840755 -5.923492 70.840755 -5.951053 M 70.840755 -5.951053 L 70.840755 -8.951042 C 70.840755 -8.923481 70.818707 -8.901432 70.791146 -8.901432 M 70.791146 -8.901432 L 73.791135 -8.901432 C 73.763574 -8.901432 73.741526 -8.923481 73.741526 -8.951042 M 73.741526 -8.951042 L 73.741526 -5.951053 C 73.741526 -5.923492 73.763574 -5.901443 73.791135 -5.901443 M 73.791135 -5.901443 L 76.791124 -5.901443 C 76.818685 -5.901443 76.840734 -5.923492 76.840734 -5.951053 M 76.840734 -5.951053 L 76.840734 -8.951042 C 76.840734 -8.923481 76.818685 -8.901432 76.791124 -8.901432 M 76.791124 -8.901432 L 79.791113 -8.901432 C 79.763553 -8.901432 79.741504 -8.923481 79.741504 -8.951042 M 79.741504 -8.951042 L 79.741504 -5.951053 C 79.741504 -5.923492 79.763553 -5.901443 79.791113 -5.901443 M 79.791113 -5.901443 L 82.791102 -5.901443 C 82.818663 -5.901443 82.840712 -5.923492 82.840712 -5.951053 M 82.840712 -5.951053 L 82.840712 -8.951042 C 82.840712 -8.923481 82.818663 -8.901432 82.791102 -8.901432 M 82.791102 -8.901432 L 85.791092 -8.901432 C 85.763531 -8.901432 85.741482 -8.923481 85.741482 -8.951042 M 85.741482 -8.951042 L 85.741482 -5.951053 C 85.741482 -5.923492 85.763531 -5.901443 85.791092 -5.901443 M 85.791092 -5.901443 L 90.291764 -5.901443 M 90.291764 -5.901443 L 106.000022 -5.901443 M 106.000022 -5.901443 L 109.000011 -5.901443 M 109.000011 -5.901443 L 112 -5.901443 C 112.027561 -5.901443 112.049609 -5.923492 112.049609 -5.951053 M 112.049609 -5.951053 L 112.049609 -61.950391 C 112.049609 -61.977951 112.027561 -62 112 -62 M 98.999588 -0.000683594 L 94.500293 -0.000683594 C 94.527854 -0.000683594 94.549902 0.021365 94.549902 0.0489258 M 94.549902 0.0489258 L 94.549902 -2.951063 C 94.549902 -2.978624 94.527854 -3.000673 94.500293 -3.000673 M 94.500293 -3.000673 L 91.500304 -3.000673 C 91.472743 -3.000673 91.450694 -2.978624 91.450694 -2.951063 M 91.450694 -2.951063 L 91.450694 0.0489258 C 91.450694 0.021365 91.472743 -0.000683594 91.500304 -0.000683594 M 91.500304 -0.000683594 L 88.500315 -0.000683594 C 88.527875 -0.000683594 88.549924 0.021365 88.549924 0.0489258 M 88.549924 0.0489258 L 88.549924 -2.951063 C 88.549924 -2.978624 88.527875 -3.000673 88.500315 -3.000673 M 88.500315 -3.000673 L 85.500326 -3.000673 C 85.472765 -3.000673 85.450716 -2.978624 85.450716 -2.951063 M 85.450716 -2.951063 L 85.450716 0.0489258 C 85.450716 0.021365 85.472765 -0.000683594 85.500326 -0.000683594 M 85.500326 -0.000683594 L 82.500336 -0.000683594 C 82.527897 -0.000683594 82.549946 0.021365 82.549946 0.0489258 M 82.549946 0.0489258 L 82.549946 -2.951063 C 82.549946 -2.978624 82.527897 -3.000673 82.500336 -3.000673 M 82.500336 -3.000673 L 79.500347 -3.000673 C 79.472786 -3.000673 79.450738 -2.978624 79.450738 -2.951063 M 79.450738 -2.951063 L 79.450738 0.0489258 C 79.450738 0.021365 79.472786 -0.000683594 79.500347 -0.000683594 M 79.500347 -0.000683594 L 76.500358 -0.000683594 C 76.527919 -0.000683594 76.549967 0.021365 76.549967 0.0489258 M 76.549967 0.0489258 L 76.549967 -2.951063 C 76.549967 -2.978624 76.527919 -3.000673 76.500358 -3.000673 M 76.500358 -3.000673 L 73.500369 -3.000673 C 73.472808 -3.000673 73.45076 -2.978624 73.45076 -2.951063 M 73.45076 -2.951063 L 73.45076 0.0489258 C 73.45076 0.021365 73.472808 -0.000683594 73.500369 -0.000683594 M 73.500369 -0.000683594 L 68.999696 -0.000683594 C 63.448958 -0.000683594 58.949664 4.498611 58.949664 10.049349 M 58.949664 10.049349 L 58.949664 14.550022 C 58.949664 14.522461 58.971712 14.500412 58.999273 14.500412 M 58.999273 14.500412 L 55.999284 14.500412 C 55.971723 14.500412 55.949674 14.522461 55.949674 14.550022 M 55.949674 14.550022 L 55.949674 17.550011 C 55.949674 17.577572 55.971723 17.59962 55.999284 17.59962 M 55.999284 17.59962 L 58.999273 17.59962 C 58.971712 17.59962 58.949664 17.577572 58.949664 17.550011 M 58.949664 17.550011 L 58.949664 20.55 C 58.949664 20.522439 58.971712 20.500391 58.999273 20.500391 M 58.999273 20.500391 L 55.999284 20.500391 C 55.971723 20.500391 55.949674 20.522439 55.949674 20.55 M 55.949674 20.55 L 55.949674 23.549989 C 55.949674 23.57755 55.971723 23.599599 55.999284 23.599599 M 55.999284 23.599599 L 58.999273 23.599599 C 58.971712 23.599599 58.949664 23.57755 58.949664 23.549989 M 58.949664 23.549989 L 58.949664 26.549978 C 58.949664 26.522418 58.971712 26.500369 58.999273 26.500369 M 58.999273 26.500369 L 55.999284 26.500369 C 55.971723 26.500369 55.949674 26.522418 55.949674 26.549978 M 55.949674 26.549978 L 55.949674 29.549967 C 55.949674 29.577528 55.971723 29.599577 55.999284 29.599577 M 55.999284 29.599577 L 58.999273 29.599577 C 58.971712 29.599577 58.949664 29.577528 58.949664 29.549967 M 58.949664 29.549967 L 58.949664 32.549957 C 58.949664 32.522396 58.971712 32.500347 58.999273 32.500347 M 58.999273 32.500347 L 55.999284 32.500347 C 55.971723 32.500347 55.949674 32.522396 55.949674 32.549957 M 55.949674 32.549957 L 55.949674 35.549946 C 55.949674 35.577507 55.971723 35.599555 55.999284 35.599555 M 55.999284 35.599555 L 58.999273 35.599555 C 58.971712 35.599555 58.949664 35.577507 58.949664 35.549946 M 58.949664 35.549946 L 58.949664 40.050618 C 58.949664 45.601356 63.448958 50.100651 68.999696 50.100651 M 68.999696 50.100651 L 98.999588 50.100651 C 104.550326 50.100651 109.04962 45.601356 109.04962 40.050618 M 109.000011 40.050618 L 109.04962 40.050618 C 109.04962 40.078179 109.027572 40.100228 109.000011 40.100228 M 109.000011 40.100228 L 112 40.100228 C 112.027561 40.100228 112.049609 40.078179 112.049609 40.050618 M 112.049609 40.050618 L 112.049609 28.050662 C 112.049609 28.023101 112.027561 28.001053 112 28.001053 M 112 28.001053 L 109.000011 28.001053 C 109.027572 28.001053 109.04962 28.023101 109.04962 28.050662 M 109.04962 28.050662 L 109.04962 16.100315 M 109.04962 16.100315 L 109.04962 13.100326 M 109.04962 13.100326 L 109.04962 10.100336 C 109.04962 4.549599 104.550326 0.0503038 98.999588 0.0503038 M 10.000369 -0.000683594 L 14.499664 -0.000683594 C 14.472103 -0.000683594 14.450054 0.021365 14.450054 0.0489258 M 14.450054 0.0489258 L 14.450054 -2.951063 C 14.450054 -2.978624 14.472103 -3.000673 14.499664 -3.000673 M 14.499664 -3.000673 L 17.499653 -3.000673 C 17.527214 -3.000673 17.549262 -2.978624 17.549262 -2.951063 M 17.549262 -2.951063 L 17.549262 0.0489258 C 17.549262 0.021365 17.527214 -0.000683594 17.499653 -0.000683594 M 17.499653 -0.000683594 L 20.499642 -0.000683594 C 20.472081 -0.000683594 20.450033 0.021365 20.450033 0.0489258 M 20.450033 0.0489258 L 20.450033 -2.951063 C 20.450033 -2.978624 20.472081 -3.000673 20.499642 -3.000673 M 20.499642 -3.000673 L 23.499631 -3.000673 C 23.527192 -3.000673 23.54924 -2.978624 23.54924 -2.951063 M 23.54924 -2.951063 L 23.54924 0.0489258 C 23.54924 0.021365 23.527192 -0.000683594 23.499631 -0.000683594 M 23.499631 -0.000683594 L 26.49962 -0.000683594 C 26.472059 -0.000683594 26.450011 0.021365 26.450011 0.0489258 M 26.450011 0.0489258 L 26.450011 -2.951063 C 26.450011 -2.978624 26.472059 -3.000673 26.49962 -3.000673 M 26.49962 -3.000673 L 29.499609 -3.000673 C 29.52717 -3.000673 29.549219 -2.978624 29.549219 -2.951063 M 29.549219 -2.951063 L 29.549219 0.0489258 C 29.549219 0.021365 29.52717 -0.000683594 29.499609 -0.000683594 M 29.499609 -0.000683594 L 32.499599 -0.000683594 C 32.472038 -0.000683594 32.449989 0.021365 32.449989 0.0489258 M 32.449989 0.0489258 L 32.449989 -2.951063 C 32.449989 -2.978624 32.472038 -3.000673 32.499599 -3.000673 M 32.499599 -3.000673 L 35.499588 -3.000673 C 35.527148 -3.000673 35.549197 -2.978624 35.549197 -2.951063 M 35.549197 -2.951063 L 35.549197 0.0489258 C 35.549197 0.021365 35.527148 -0.000683594 35.499588 -0.000683594 M 35.499588 -0.000683594 L 40.00026 -0.000683594 C 45.550998 -0.000683594 50.050293 4.498611 50.050293 10.049349 M 50.050293 10.049349 L 50.050293 14.550022 C 50.050293 14.522461 50.028244 14.500412 50.000684 14.500412 M 50.000684 14.500412 L 53.000673 14.500412 C 53.028234 14.500412 53.050282 14.522461 53.050282 14.550022 M 53.050282 14.550022 L 53.050282 17.550011 C 53.050282 17.577572 53.028234 17.59962 53.000673 17.59962 M 53.000673 17.59962 L 50.000684 17.59962 C 50.028244 17.59962 50.050293 17.577572 50.050293 17.550011 M 50.050293 17.550011 L 50.050293 20.55 C 50.050293 20.522439 50.028244 20.500391 50.000684 20.500391 M 50.000684 20.500391 L 53.000673 20.500391 C 53.028234 20.500391 53.050282 20.522439 53.050282 20.55 M 53.050282 20.55 L 53.050282 23.549989 C 53.050282 23.57755 53.028234 23.599599 53.000673 23.599599 M 53.000673 23.599599 L 50.000684 23.599599 C 50.028244 23.599599 50.050293 23.57755 50.050293 23.549989 M 50.050293 23.549989 L 50.050293 26.549978 C 50.050293 26.522418 50.028244 26.500369 50.000684 26.500369 M 50.000684 26.500369 L 53.000673 26.500369 C 53.028234 26.500369 53.050282 26.522418 53.050282 26.549978 M 53.050282 26.549978 L 53.050282 29.549967 C 53.050282 29.577528 53.028234 29.599577 53.000673 29.599577 M 53.000673 29.599577 L 50.000684 29.599577 C 50.028244 29.599577 50.050293 29.577528 50.050293 29.549967 M 50.050293 29.549967 L 50.050293 32.549957 C 50.050293 32.522396 50.028244 32.500347 50.000684 32.500347 M 50.000684 32.500347 L 53.000673 32.500347 C 53.028234 32.500347 53.050282 32.522396 53.050282 32.549957 M 53.050282 32.549957 L 53.050282 35.549946 C 53.050282 35.577507 53.028234 35.599555 53.000673 35.599555 M 53.000673 35.599555 L 50.000684 35.599555 C 50.028244 35.599555 50.050293 35.577507 50.050293 35.549946 M 50.050293 35.549946 L 50.050293 40.050618 C 50.050293 45.601356 45.550998 50.100651 40.00026 50.100651 M 40.00026 50.100651 L 10.000369 50.100651 C 4.449631 50.100651 -0.0496636 45.601356 -0.0496636 40.050618 M -0.0000542535 40.050618 L -0.0496636 40.050618 C -0.0496636 40.078179 -0.027615 40.100228 -0.0000542535 40.100228 M -0.0000542535 40.100228 L -3.000043 40.100228 C -3.027604 40.100228 -3.049653 40.078179 -3.049653 40.050618 M -3.049653 40.050618 L -3.049653 28.050662 C -3.049653 28.023101 -3.027604 28.001053 -3.000043 28.001053 M -3.000043 28.001053 L -0.0000542535 28.001053 C -0.027615 28.001053 -0.0496636 28.023101 -0.0496636 28.050662 M -0.0496636 28.050662 L -0.0496636 16.100315 M -0.0496636 16.100315 L -0.0496636 13.100326 M -0.0496636 13.100326 L -0.0496636 10.100336 C -0.0496636 4.549599 4.449631 0.0503038 10.000369 0.0503038 " transform="matrix(-2.834646,-0.000000000000000694,0.000000000000000694,-2.834646,325.984221,212.599625)"/>
</g>
</svg>
