<?xml version='1.0' encoding='utf-8'?>
<svg height="134.05mm" viewBox="0.0 0.0 293.88 134.05" width="293.88mm" xmlns="http://www.w3.org/2000/svg" xmlns:cc="http://creativecommons.org/ns#" xmlns:dc="http://purl.org/dc/elements/1.1/" xmlns:inkscape="http://www.inkscape.org/namespaces/inkscape" xmlns:rdf="http://www.w3.org/1999/02/22-rdf-syntax-ns#" xmlns:svg="http://www.w3.org/2000/svg" xmlns:xlink="http://www.w3.org/1999/xlink">
<!--
Folder - Book cover with flex for the spine

Created with Boxes.py (https://festi.info/boxes.py)
Command line (remove spaces between dashes): boxes Folder
-->
<title>Folder</title>
<metadata>
<rdf:RDF><cc:Work>
<dc:title>Misc - Folder</dc:title>
<dc:source>boxes Folder</dc:source>
<dc:description>Book cover with flex for the spine

Created with Boxes.py (https://festi.info/boxes.py)
Command line: boxes Folder
Command line short: boxes Folder
</dc:description>
</cc:Work></rdf:RDF></metadata>
<g id="p-0" style="fill:none;stroke-linecap:round;stroke-linejoin:round;">
  <path d="M 18.800 124.050 H 118.800 V 114.050 H 18.800 V 124.050 Z" stroke="rgb(0,0,0)" stroke-width="0.20" />
  <text dominant-baseline="hanging" font-size="8px" style="font-family: sans-serif ; font-weight: normal; font-style: normal; fill: rgb(255,0,0)" text-anchor="middle" transform="matrix( 1.000 0.000 0.000 1.000 68.800 115.050 )">100.00mm, burn:0.10mm</text>
</g>
<g id="p-1" style="fill:none;stroke-linecap:round;stroke-linejoin:round;">
  <path d="M 30.950 110.200 H 120.950 H 183.782 H 273.782 C 275.555 110.200 277.296 109.733 278.832 108.847 C 280.367 107.960 281.642 106.685 282.529 105.150 C 283.415 103.615 283.882 101.873 283.882 100.100 V 20.100 C 283.882 18.327 283.415 16.585 282.529 15.050 C 281.642 13.515 280.367 12.240 278.832 11.353 C 277.296 10.467 275.555 10.000 273.782 10.000 H 30.950 C 29.177 10.000 27.435 10.467 25.900 11.353 C 24.365 12.240 23.090 13.515 22.203 15.050 C 21.317 16.585 20.850 18.327 20.850 20.100 V 100.100 C 20.850 101.873 21.317 103.615 22.203 105.150 C 23.090 106.685 24.365 107.960 25.900 108.847 C 27.435 109.733 29.177 110.200 30.950 110.200 Z" stroke="rgb(0,0,0)" stroke-width="0.20" />
  <path d="M 123.116 110.200 V 94.000 M 123.116 91.000 V 61.600 M 123.116 58.600 V 29.200 M 123.116 26.200 V 10.000 M 124.616 13.000 V 42.400 M 124.616 45.400 V 74.800 M 124.616 77.800 V 107.200 M 126.116 110.200 V 94.000 M 126.116 91.000 V 61.600 M 126.116 58.600 V 29.200 M 126.116 26.200 V 10.000 M 127.616 13.000 V 42.400 M 127.616 45.400 V 74.800 M 127.616 77.800 V 107.200 M 129.116 110.200 V 94.000 M 129.116 91.000 V 61.600 M 129.116 58.600 V 29.200 M 129.116 26.200 V 10.000 M 130.616 13.000 V 42.400 M 130.616 45.400 V 74.800 M 130.616 77.800 V 107.200 M 132.116 110.200 V 94.000 M 132.116 91.000 V 61.600 M 132.116 58.600 V 29.200 M 132.116 26.200 V 10.000 M 133.616 13.000 V 42.400 M 133.616 45.400 V 74.800 M 133.616 77.800 V 107.200 M 135.116 110.200 V 94.000 M 135.116 91.000 V 61.600 M 135.116 58.600 V 29.200 M 135.116 26.200 V 10.000 M 136.616 13.000 V 42.400 M 136.616 45.400 V 74.800 M 136.616 77.800 V 107.200 M 138.116 110.200 V 94.000 M 138.116 91.000 V 61.600 M 138.116 58.600 V 29.200 M 138.116 26.200 V 10.000 M 139.616 13.000 V 42.400 M 139.616 45.400 V 74.800 M 139.616 77.800 V 107.200 M 141.116 110.200 V 94.000 M 141.116 91.000 V 61.600 M 141.116 58.600 V 29.200 M 141.116 26.200 V 10.000 M 142.616 13.000 V 42.400 M 142.616 45.400 V 74.800 M 142.616 77.800 V 107.200 M 144.116 110.200 V 94.000 M 144.116 91.000 V 61.600 M 144.116 58.600 V 29.200 M 144.116 26.200 V 10.000 M 145.616 13.000 V 42.400 M 145.616 45.400 V 74.800 M 145.616 77.800 V 107.200 M 147.116 110.200 V 94.000 M 147.116 91.000 V 61.600 M 147.116 58.600 V 29.200 M 147.116 26.200 V 10.000 M 148.616 13.000 V 42.400 M 148.616 45.400 V 74.800 M 148.616 77.800 V 107.200 M 150.116 110.200 V 94.000 M 150.116 91.000 V 61.600 M 150.116 58.600 V 29.200 M 150.116 26.200 V 10.000 M 151.616 13.000 V 42.400 M 151.616 45.400 V 74.800 M 151.616 77.800 V 107.200 M 153.116 110.200 V 94.000 M 153.116 91.000 V 61.600 M 153.116 58.600 V 29.200 M 153.116 26.200 V 10.000 M 154.616 13.000 V 42.400 M 154.616 45.400 V 74.800 M 154.616 77.800 V 107.200 M 156.116 110.200 V 94.000 M 156.116 91.000 V 61.600 M 156.116 58.600 V 29.200 M 156.116 26.200 V 10.000 M 157.616 13.000 V 42.400 M 157.616 45.400 V 74.800 M 157.616 77.800 V 107.200 M 159.116 110.200 V 94.000 M 159.116 91.000 V 61.600 M 159.116 58.600 V 29.200 M 159.116 26.200 V 10.000 M 160.616 13.000 V 42.400 M 160.616 45.400 V 74.800 M 160.616 77.800 V 107.200 M 162.116 110.200 V 94.000 M 162.116 91.000 V 61.600 M 162.116 58.600 V 29.200 M 162.116 26.200 V 10.000 M 163.616 13.000 V 42.400 M 163.616 45.400 V 74.800 M 163.616 77.800 V 107.200 M 165.116 110.200 V 94.000 M 165.116 91.000 V 61.600 M 165.116 58.600 V 29.200 M 165.116 26.200 V 10.000 M 166.616 13.000 V 42.400 M 166.616 45.400 V 74.800 M 166.616 77.800 V 107.200 M 168.116 110.200 V 94.000 M 168.116 91.000 V 61.600 M 168.116 58.600 V 29.200 M 168.116 26.200 V 10.000 M 169.616 13.000 V 42.400 M 169.616 45.400 V 74.800 M 169.616 77.800 V 107.200 M 171.116 110.200 V 94.000 M 171.116 91.000 V 61.600 M 171.116 58.600 V 29.200 M 171.116 26.200 V 10.000 M 172.616 13.000 V 42.400 M 172.616 45.400 V 74.800 M 172.616 77.800 V 107.200 M 174.116 110.200 V 94.000 M 174.116 91.000 V 61.600 M 174.116 58.600 V 29.200 M 174.116 26.200 V 10.000 M 175.616 13.000 V 42.400 M 175.616 45.400 V 74.800 M 175.616 77.800 V 107.200 M 177.116 110.200 V 94.000 M 177.116 91.000 V 61.600 M 177.116 58.600 V 29.200 M 177.116 26.200 V 10.000 M 178.616 13.000 V 42.400 M 178.616 45.400 V 74.800 M 178.616 77.800 V 107.200 M 180.116 110.200 V 94.000 M 180.116 91.000 V 61.600 M 180.116 58.600 V 29.200 M 180.116 26.200 V 10.000 M 181.616 13.000 V 42.400 M 181.616 45.400 V 74.800 M 181.616 77.800 V 107.200" stroke="rgb(0,0,0)" stroke-width="0.20" />
</g>
</svg>