<?xml version='1.0' encoding='utf-8'?>
<svg height="274.05mm" viewBox="0.0 0.0 415.48 274.05" width="415.48mm" xmlns="http://www.w3.org/2000/svg" xmlns:cc="http://creativecommons.org/ns#" xmlns:dc="http://purl.org/dc/elements/1.1/" xmlns:inkscape="http://www.inkscape.org/namespaces/inkscape" xmlns:rdf="http://www.w3.org/1999/02/22-rdf-syntax-ns#" xmlns:svg="http://www.w3.org/2000/svg" xmlns:xlink="http://www.w3.org/1999/xlink">
<!--
Folder - Book cover with flex for the spine

Created with Boxes.py (https://festi.info/boxes.py)
-->
<title>Folder</title>
<metadata>
<rdf:RDF><cc:Work>
<dc:title>Misc - Folder</dc:title>
<dc:description>Book cover with flex for the spine

Created with Boxes.py (https://festi.info/boxes.py)
</dc:description>
</cc:Work></rdf:RDF></metadata>
<g id="p-0" style="fill:none;stroke-linecap:round;stroke-linejoin:round;">
  <path d="M 10.400 264.050 H 110.400 V 254.050 H 10.400 V 264.050 Z" stroke="rgb(0,0,0)" stroke-width="0.20" />
  <text dominant-baseline="hanging" font-size="8px" style="font-family: sans-serif ; font-weight: normal; font-style: normal; fill: rgb(255,0,0)" text-anchor="middle" transform="matrix( 1.000 0.000 0.000 1.000 60.400 255.050 )">100mm, burn:0.10mm</text>
</g>
<g id="p-1" style="fill:none;stroke-linecap:round;stroke-linejoin:round;">
  <path d="M 22.550 250.200 H 177.550 H 240.382 H 395.382 C 397.155 250.200 398.896 249.733 400.432 248.847 C 401.967 247.960 403.242 246.685 404.129 245.150 C 405.015 243.615 405.482 241.873 405.482 240.100 V 20.100 C 405.482 18.327 405.015 16.585 404.129 15.050 C 403.242 13.515 401.967 12.240 400.432 11.353 C 398.896 10.467 397.155 10.000 395.382 10.000 H 22.550 C 20.777 10.000 19.035 10.467 17.500 11.353 C 15.965 12.240 14.690 13.515 13.803 15.050 C 12.917 16.585 12.450 18.327 12.450 20.100 V 240.100 C 12.450 241.873 12.917 243.615 13.803 245.150 C 14.690 246.685 15.965 247.960 17.500 248.847 C 19.035 249.733 20.777 250.200 22.550 250.200 Z" stroke="rgb(0,0,0)" stroke-width="0.20" />
  <path d="M 179.716 250.200 V 234.387 M 179.716 231.387 V 202.760 M 179.716 199.760 V 171.133 M 179.716 168.133 V 139.507 M 179.716 136.507 V 107.880 M 179.716 104.880 V 76.253 M 179.716 73.253 V 44.627 M 179.716 41.627 V 13.000 M 181.216 10.000 V 25.813 M 181.216 28.813 V 57.440 M 181.216 60.440 V 89.067 M 181.216 92.067 V 120.693 M 181.216 123.693 V 152.320 M 181.216 155.320 V 183.947 M 181.216 186.947 V 215.573 M 181.216 218.573 V 247.200 M 182.716 250.200 V 234.387 M 182.716 231.387 V 202.760 M 182.716 199.760 V 171.133 M 182.716 168.133 V 139.507 M 182.716 136.507 V 107.880 M 182.716 104.880 V 76.253 M 182.716 73.253 V 44.627 M 182.716 41.627 V 13.000 M 184.216 10.000 V 25.813 M 184.216 28.813 V 57.440 M 184.216 60.440 V 89.067 M 184.216 92.067 V 120.693 M 184.216 123.693 V 152.320 M 184.216 155.320 V 183.947 M 184.216 186.947 V 215.573 M 184.216 218.573 V 247.200 M 185.716 250.200 V 234.387 M 185.716 231.387 V 202.760 M 185.716 199.760 V 171.133 M 185.716 168.133 V 139.507 M 185.716 136.507 V 107.880 M 185.716 104.880 V 76.253 M 185.716 73.253 V 44.627 M 185.716 41.627 V 13.000 M 187.216 10.000 V 25.813 M 187.216 28.813 V 57.440 M 187.216 60.440 V 89.067 M 187.216 92.067 V 120.693 M 187.216 123.693 V 152.320 M 187.216 155.320 V 183.947 M 187.216 186.947 V 215.573 M 187.216 218.573 V 247.200 M 188.716 250.200 V 234.387 M 188.716 231.387 V 202.760 M 188.716 199.760 V 171.133 M 188.716 168.133 V 139.507 M 188.716 136.507 V 107.880 M 188.716 104.880 V 76.253 M 188.716 73.253 V 44.627 M 188.716 41.627 V 13.000 M 190.216 10.000 V 25.813 M 190.216 28.813 V 57.440 M 190.216 60.440 V 89.067 M 190.216 92.067 V 120.693 M 190.216 123.693 V 152.320 M 190.216 155.320 V 183.947 M 190.216 186.947 V 215.573 M 190.216 218.573 V 247.200 M 191.716 250.200 V 234.387 M 191.716 231.387 V 202.760 M 191.716 199.760 V 171.133 M 191.716 168.133 V 139.507 M 191.716 136.507 V 107.880 M 191.716 104.880 V 76.253 M 191.716 73.253 V 44.627 M 191.716 41.627 V 13.000 M 193.216 10.000 V 25.813 M 193.216 28.813 V 57.440 M 193.216 60.440 V 89.067 M 193.216 92.067 V 120.693 M 193.216 123.693 V 152.320 M 193.216 155.320 V 183.947 M 193.216 186.947 V 215.573 M 193.216 218.573 V 247.200 M 194.716 250.200 V 234.387 M 194.716 231.387 V 202.760 M 194.716 199.760 V 171.133 M 194.716 168.133 V 139.507 M 194.716 136.507 V 107.880 M 194.716 104.880 V 76.253 M 194.716 73.253 V 44.627 M 194.716 41.627 V 13.000 M 196.216 10.000 V 25.813 M 196.216 28.813 V 57.440 M 196.216 60.440 V 89.067 M 196.216 92.067 V 120.693 M 196.216 123.693 V 152.320 M 196.216 155.320 V 183.947 M 196.216 186.947 V 215.573 M 196.216 218.573 V 247.200 M 197.716 250.200 V 234.387 M 197.716 231.387 V 202.760 M 197.716 199.760 V 171.133 M 197.716 168.133 V 139.507 M 197.716 136.507 V 107.880 M 197.716 104.880 V 76.253 M 197.716 73.253 V 44.627 M 197.716 41.627 V 13.000 M 199.216 10.000 V 25.813 M 199.216 28.813 V 57.440 M 199.216 60.440 V 89.067 M 199.216 92.067 V 120.693 M 199.216 123.693 V 152.320 M 199.216 155.320 V 183.947 M 199.216 186.947 V 215.573 M 199.216 218.573 V 247.200 M 200.716 250.200 V 234.387 M 200.716 231.387 V 202.760 M 200.716 199.760 V 171.133 M 200.716 168.133 V 139.507 M 200.716 136.507 V 107.880 M 200.716 104.880 V 76.253 M 200.716 73.253 V 44.627 M 200.716 41.627 V 13.000 M 202.216 10.000 V 25.813 M 202.216 28.813 V 57.440 M 202.216 60.440 V 89.067 M 202.216 92.067 V 120.693 M 202.216 123.693 V 152.320 M 202.216 155.320 V 183.947 M 202.216 186.947 V 215.573 M 202.216 218.573 V 247.200 M 203.716 250.200 V 234.387 M 203.716 231.387 V 202.760 M 203.716 199.760 V 171.133 M 203.716 168.133 V 139.507 M 203.716 136.507 V 107.880 M 203.716 104.880 V 76.253 M 203.716 73.253 V 44.627 M 203.716 41.627 V 13.000 M 205.216 10.000 V 25.813 M 205.216 28.813 V 57.440 M 205.216 60.440 V 89.067 M 205.216 92.067 V 120.693 M 205.216 123.693 V 152.320 M 205.216 155.320 V 183.947 M 205.216 186.947 V 215.573 M 205.216 218.573 V 247.200 M 206.716 250.200 V 234.387 M 206.716 231.387 V 202.760 M 206.716 199.760 V 171.133 M 206.716 168.133 V 139.507 M 206.716 136.507 V 107.880 M 206.716 104.880 V 76.253 M 206.716 73.253 V 44.627 M 206.716 41.627 V 13.000 M 208.216 10.000 V 25.813 M 208.216 28.813 V 57.440 M 208.216 60.440 V 89.067 M 208.216 92.067 V 120.693 M 208.216 123.693 V 152.320 M 208.216 155.320 V 183.947 M 208.216 186.947 V 215.573 M 208.216 218.573 V 247.200 M 209.716 250.200 V 234.387 M 209.716 231.387 V 202.760 M 209.716 199.760 V 171.133 M 209.716 168.133 V 139.507 M 209.716 136.507 V 107.880 M 209.716 104.880 V 76.253 M 209.716 73.253 V 44.627 M 209.716 41.627 V 13.000 M 211.216 10.000 V 25.813 M 211.216 28.813 V 57.440 M 211.216 60.440 V 89.067 M 211.216 92.067 V 120.693 M 211.216 123.693 V 152.320 M 211.216 155.320 V 183.947 M 211.216 186.947 V 215.573 M 211.216 218.573 V 247.200 M 212.716 250.200 V 234.387 M 212.716 231.387 V 202.760 M 212.716 199.760 V 171.133 M 212.716 168.133 V 139.507 M 212.716 136.507 V 107.880 M 212.716 104.880 V 76.253 M 212.716 73.253 V 44.627 M 212.716 41.627 V 13.000 M 214.216 10.000 V 25.813 M 214.216 28.813 V 57.440 M 214.216 60.440 V 89.067 M 214.216 92.067 V 120.693 M 214.216 123.693 V 152.320 M 214.216 155.320 V 183.947 M 214.216 186.947 V 215.573 M 214.216 218.573 V 247.200 M 215.716 250.200 V 234.387 M 215.716 231.387 V 202.760 M 215.716 199.760 V 171.133 M 215.716 168.133 V 139.507 M 215.716 136.507 V 107.880 M 215.716 104.880 V 76.253 M 215.716 73.253 V 44.627 M 215.716 41.627 V 13.000 M 217.216 10.000 V 25.813 M 217.216 28.813 V 57.440 M 217.216 60.440 V 89.067 M 217.216 92.067 V 120.693 M 217.216 123.693 V 152.320 M 217.216 155.320 V 183.947 M 217.216 186.947 V 215.573 M 217.216 218.573 V 247.200 M 218.716 250.200 V 234.387 M 218.716 231.387 V 202.760 M 218.716 199.760 V 171.133 M 218.716 168.133 V 139.507 M 218.716 136.507 V 107.880 M 218.716 104.880 V 76.253 M 218.716 73.253 V 44.627 M 218.716 41.627 V 13.000 M 220.216 10.000 V 25.813 M 220.216 28.813 V 57.440 M 220.216 60.440 V 89.067 M 220.216 92.067 V 120.693 M 220.216 123.693 V 152.320 M 220.216 155.320 V 183.947 M 220.216 186.947 V 215.573 M 220.216 218.573 V 247.200 M 221.716 250.200 V 234.387 M 221.716 231.387 V 202.760 M 221.716 199.760 V 171.133 M 221.716 168.133 V 139.507 M 221.716 136.507 V 107.880 M 221.716 104.880 V 76.253 M 221.716 73.253 V 44.627 M 221.716 41.627 V 13.000 M 223.216 10.000 V 25.813 M 223.216 28.813 V 57.440 M 223.216 60.440 V 89.067 M 223.216 92.067 V 120.693 M 223.216 123.693 V 152.320 M 223.216 155.320 V 183.947 M 223.216 186.947 V 215.573 M 223.216 218.573 V 247.200 M 224.716 250.200 V 234.387 M 224.716 231.387 V 202.760 M 224.716 199.760 V 171.133 M 224.716 168.133 V 139.507 M 224.716 136.507 V 107.880 M 224.716 104.880 V 76.253 M 224.716 73.253 V 44.627 M 224.716 41.627 V 13.000 M 226.216 10.000 V 25.813 M 226.216 28.813 V 57.440 M 226.216 60.440 V 89.067 M 226.216 92.067 V 120.693 M 226.216 123.693 V 152.320 M 226.216 155.320 V 183.947 M 226.216 186.947 V 215.573 M 226.216 218.573 V 247.200 M 227.716 250.200 V 234.387 M 227.716 231.387 V 202.760 M 227.716 199.760 V 171.133 M 227.716 168.133 V 139.507 M 227.716 136.507 V 107.880 M 227.716 104.880 V 76.253 M 227.716 73.253 V 44.627 M 227.716 41.627 V 13.000 M 229.216 10.000 V 25.813 M 229.216 28.813 V 57.440 M 229.216 60.440 V 89.067 M 229.216 92.067 V 120.693 M 229.216 123.693 V 152.320 M 229.216 155.320 V 183.947 M 229.216 186.947 V 215.573 M 229.216 218.573 V 247.200 M 230.716 250.200 V 234.387 M 230.716 231.387 V 202.760 M 230.716 199.760 V 171.133 M 230.716 168.133 V 139.507 M 230.716 136.507 V 107.880 M 230.716 104.880 V 76.253 M 230.716 73.253 V 44.627 M 230.716 41.627 V 13.000 M 232.216 10.000 V 25.813 M 232.216 28.813 V 57.440 M 232.216 60.440 V 89.067 M 232.216 92.067 V 120.693 M 232.216 123.693 V 152.320 M 232.216 155.320 V 183.947 M 232.216 186.947 V 215.573 M 232.216 218.573 V 247.200 M 233.716 250.200 V 234.387 M 233.716 231.387 V 202.760 M 233.716 199.760 V 171.133 M 233.716 168.133 V 139.507 M 233.716 136.507 V 107.880 M 233.716 104.880 V 76.253 M 233.716 73.253 V 44.627 M 233.716 41.627 V 13.000 M 235.216 10.000 V 25.813 M 235.216 28.813 V 57.440 M 235.216 60.440 V 89.067 M 235.216 92.067 V 120.693 M 235.216 123.693 V 152.320 M 235.216 155.320 V 183.947 M 235.216 186.947 V 215.573 M 235.216 218.573 V 247.200 M 236.716 250.200 V 234.387 M 236.716 231.387 V 202.760 M 236.716 199.760 V 171.133 M 236.716 168.133 V 139.507 M 236.716 136.507 V 107.880 M 236.716 104.880 V 76.253 M 236.716 73.253 V 44.627 M 236.716 41.627 V 13.000 M 238.216 10.000 V 25.813 M 238.216 28.813 V 57.440 M 238.216 60.440 V 89.067 M 238.216 92.067 V 120.693 M 238.216 123.693 V 152.320 M 238.216 155.320 V 183.947 M 238.216 186.947 V 215.573 M 238.216 218.573 V 247.200" stroke="rgb(0,0,0)" stroke-width="0.20" />
</g>
</svg>
