<?xml version="1.0" encoding="UTF-8"?>
<svg xmlns="http://www.w3.org/2000/svg" xmlns:xlink="http://www.w3.org/1999/xlink" width="1587.401575pt" height="1311.02359pt" viewBox="0 0 1587.401575 1311.02359" version="1.1">
<g id="surface1">
<path style=" stroke:none;fill-rule:nonzero;fill:rgb(100%,100%,100%);fill-opacity:1;" d="M 0 1311.023438 L 4499.722656 1311.023438 L 4499.722656 -2405.265625 L 0 -2405.265625 Z "/>
<path style="fill:none;stroke-width:0.1;stroke-linecap:butt;stroke-linejoin:miter;stroke:rgb(0%,0%,0%);stroke-opacity:1;stroke-miterlimit:10;" d="M -0.00137804 0 L 224.999186 0.000000000000056843 M 225.664779 350.10025 L 225.664779 335.009353 M 225.664779 332.009364 L 225.664779 304.826183 M 225.664779 301.826194 L 225.664779 274.643012 M 225.664779 271.643023 L 225.664779 244.46122 M 225.664779 241.46123 L 225.664779 214.278049 M 225.664779 211.27806 L 225.664779 184.096257 M 225.664779 181.096267 L 225.664779 153.913086 M 225.664779 150.913097 L 225.664779 123.729915 M 225.664779 120.729926 L 225.664779 93.548123 M 225.664779 90.548134 L 225.664779 63.364952 M 225.664779 60.364963 L 225.664779 33.18316 M 225.664779 30.183171 L 225.664779 2.999989 M 227.165462 0.000000000000056843 L 227.165462 15.090896 M 227.165462 18.090885 L 227.165462 45.274067 M 227.165462 48.274056 L 227.165462 75.455859 M 227.165462 78.455849 L 227.165462 105.63903 M 227.165462 108.639019 L 227.165462 135.822201 M 227.165462 138.82219 L 227.165462 166.003993 M 227.165462 169.003982 L 227.165462 196.187164 M 227.165462 199.187153 L 227.165462 226.368956 M 227.165462 229.368945 L 227.165462 256.552127 M 227.165462 259.552116 L 227.165462 286.735297 M 227.165462 289.735286 L 227.165462 316.91709 M 227.165462 319.917079 L 227.165462 347.10026 M 228.664768 350.10025 L 228.664768 335.009353 M 228.664768 332.009364 L 228.664768 304.826183 M 228.664768 301.826194 L 228.664768 274.643012 M 228.664768 271.643023 L 228.664768 244.46122 M 228.664768 241.46123 L 228.664768 214.278049 M 228.664768 211.27806 L 228.664768 184.096257 M 228.664768 181.096267 L 228.664768 153.913086 M 228.664768 150.913097 L 228.664768 123.729915 M 228.664768 120.729926 L 228.664768 93.548123 M 228.664768 90.548134 L 228.664768 63.364952 M 228.664768 60.364963 L 228.664768 33.18316 M 228.664768 30.183171 L 228.664768 2.999989 M 230.165451 0.000000000000056843 L 230.165451 15.090896 M 230.165451 18.090885 L 230.165451 45.274067 M 230.165451 48.274056 L 230.165451 75.455859 M 230.165451 78.455849 L 230.165451 105.63903 M 230.165451 108.639019 L 230.165451 135.822201 M 230.165451 138.82219 L 230.165451 166.003993 M 230.165451 169.003982 L 230.165451 196.187164 M 230.165451 199.187153 L 230.165451 226.368956 M 230.165451 229.368945 L 230.165451 256.552127 M 230.165451 259.552116 L 230.165451 286.735297 M 230.165451 289.735286 L 230.165451 316.91709 M 230.165451 319.917079 L 230.165451 347.10026 M 231.664757 350.10025 L 231.664757 335.009353 M 231.664757 332.009364 L 231.664757 304.826183 M 231.664757 301.826194 L 231.664757 274.643012 M 231.664757 271.643023 L 231.664757 244.46122 M 231.664757 241.46123 L 231.664757 214.278049 M 231.664757 211.27806 L 231.664757 184.096257 M 231.664757 181.096267 L 231.664757 153.913086 M 231.664757 150.913097 L 231.664757 123.729915 M 231.664757 120.729926 L 231.664757 93.548123 M 231.664757 90.548134 L 231.664757 63.364952 M 231.664757 60.364963 L 231.664757 33.18316 M 231.664757 30.183171 L 231.664757 2.999989 M 233.165441 0.000000000000056843 L 233.165441 15.090896 M 233.165441 18.090885 L 233.165441 45.274067 M 233.165441 48.274056 L 233.165441 75.455859 M 233.165441 78.455849 L 233.165441 105.63903 M 233.165441 108.639019 L 233.165441 135.822201 M 233.165441 138.82219 L 233.165441 166.003993 M 233.165441 169.003982 L 233.165441 196.187164 M 233.165441 199.187153 L 233.165441 226.368956 M 233.165441 229.368945 L 233.165441 256.552127 M 233.165441 259.552116 L 233.165441 286.735297 M 233.165441 289.735286 L 233.165441 316.91709 M 233.165441 319.917079 L 233.165441 347.10026 M 234.664746 350.10025 L 234.664746 335.009353 M 234.664746 332.009364 L 234.664746 304.826183 M 234.664746 301.826194 L 234.664746 274.643012 M 234.664746 271.643023 L 234.664746 244.46122 M 234.664746 241.46123 L 234.664746 214.278049 M 234.664746 211.27806 L 234.664746 184.096257 M 234.664746 181.096267 L 234.664746 153.913086 M 234.664746 150.913097 L 234.664746 123.729915 M 234.664746 120.729926 L 234.664746 93.548123 M 234.664746 90.548134 L 234.664746 63.364952 M 234.664746 60.364963 L 234.664746 33.18316 M 234.664746 30.183171 L 234.664746 2.999989 M 236.16543 0.000000000000056843 L 236.16543 15.090896 M 236.16543 18.090885 L 236.16543 45.274067 M 236.16543 48.274056 L 236.16543 75.455859 M 236.16543 78.455849 L 236.16543 105.63903 M 236.16543 108.639019 L 236.16543 135.822201 M 236.16543 138.82219 L 236.16543 166.003993 M 236.16543 169.003982 L 236.16543 196.187164 M 236.16543 199.187153 L 236.16543 226.368956 M 236.16543 229.368945 L 236.16543 256.552127 M 236.16543 259.552116 L 236.16543 286.735297 M 236.16543 289.735286 L 236.16543 316.91709 M 236.16543 319.917079 L 236.16543 347.10026 M 237.664735 350.10025 L 237.664735 335.009353 M 237.664735 332.009364 L 237.664735 304.826183 M 237.664735 301.826194 L 237.664735 274.643012 M 237.664735 271.643023 L 237.664735 244.46122 M 237.664735 241.46123 L 237.664735 214.278049 M 237.664735 211.27806 L 237.664735 184.096257 M 237.664735 181.096267 L 237.664735 153.913086 M 237.664735 150.913097 L 237.664735 123.729915 M 237.664735 120.729926 L 237.664735 93.548123 M 237.664735 90.548134 L 237.664735 63.364952 M 237.664735 60.364963 L 237.664735 33.18316 M 237.664735 30.183171 L 237.664735 2.999989 M 239.165419 0.000000000000056843 L 239.165419 15.090896 M 239.165419 18.090885 L 239.165419 45.274067 M 239.165419 48.274056 L 239.165419 75.455859 M 239.165419 78.455849 L 239.165419 105.63903 M 239.165419 108.639019 L 239.165419 135.822201 M 239.165419 138.82219 L 239.165419 166.003993 M 239.165419 169.003982 L 239.165419 196.187164 M 239.165419 199.187153 L 239.165419 226.368956 M 239.165419 229.368945 L 239.165419 256.552127 M 239.165419 259.552116 L 239.165419 286.735297 M 239.165419 289.735286 L 239.165419 316.91709 M 239.165419 319.917079 L 239.165419 347.10026 M 240.664724 350.10025 L 240.664724 335.009353 M 240.664724 332.009364 L 240.664724 304.826183 M 240.664724 301.826194 L 240.664724 274.643012 M 240.664724 271.643023 L 240.664724 244.46122 M 240.664724 241.46123 L 240.664724 214.278049 M 240.664724 211.27806 L 240.664724 184.096257 M 240.664724 181.096267 L 240.664724 153.913086 M 240.664724 150.913097 L 240.664724 123.729915 M 240.664724 120.729926 L 240.664724 93.548123 M 240.664724 90.548134 L 240.664724 63.364952 M 240.664724 60.364963 L 240.664724 33.18316 M 240.664724 30.183171 L 240.664724 2.999989 M 242.165408 0.000000000000056843 L 242.165408 15.090896 M 242.165408 18.090885 L 242.165408 45.274067 M 242.165408 48.274056 L 242.165408 75.455859 M 242.165408 78.455849 L 242.165408 105.63903 M 242.165408 108.639019 L 242.165408 135.822201 M 242.165408 138.82219 L 242.165408 166.003993 M 242.165408 169.003982 L 242.165408 196.187164 M 242.165408 199.187153 L 242.165408 226.368956 M 242.165408 229.368945 L 242.165408 256.552127 M 242.165408 259.552116 L 242.165408 286.735297 M 242.165408 289.735286 L 242.165408 316.91709 M 242.165408 319.917079 L 242.165408 347.10026 M 243.664714 350.10025 L 243.664714 335.009353 M 243.664714 332.009364 L 243.664714 304.826183 M 243.664714 301.826194 L 243.664714 274.643012 M 243.664714 271.643023 L 243.664714 244.46122 M 243.664714 241.46123 L 243.664714 214.278049 M 243.664714 211.27806 L 243.664714 184.096257 M 243.664714 181.096267 L 243.664714 153.913086 M 243.664714 150.913097 L 243.664714 123.729915 M 243.664714 120.729926 L 243.664714 93.548123 M 243.664714 90.548134 L 243.664714 63.364952 M 243.664714 60.364963 L 243.664714 33.18316 M 243.664714 30.183171 L 243.664714 2.999989 M 245.165397 0.000000000000056843 L 245.165397 15.090896 M 245.165397 18.090885 L 245.165397 45.274067 M 245.165397 48.274056 L 245.165397 75.455859 M 245.165397 78.455849 L 245.165397 105.63903 M 245.165397 108.639019 L 245.165397 135.822201 M 245.165397 138.82219 L 245.165397 166.003993 M 245.165397 169.003982 L 245.165397 196.187164 M 245.165397 199.187153 L 245.165397 226.368956 M 245.165397 229.368945 L 245.165397 256.552127 M 245.165397 259.552116 L 245.165397 286.735297 M 245.165397 289.735286 L 245.165397 316.91709 M 245.165397 319.917079 L 245.165397 347.10026 M 246.664703 350.10025 L 246.664703 335.009353 M 246.664703 332.009364 L 246.664703 304.826183 M 246.664703 301.826194 L 246.664703 274.643012 M 246.664703 271.643023 L 246.664703 244.46122 M 246.664703 241.46123 L 246.664703 214.278049 M 246.664703 211.27806 L 246.664703 184.096257 M 246.664703 181.096267 L 246.664703 153.913086 M 246.664703 150.913097 L 246.664703 123.729915 M 246.664703 120.729926 L 246.664703 93.548123 M 246.664703 90.548134 L 246.664703 63.364952 M 246.664703 60.364963 L 246.664703 33.18316 M 246.664703 30.183171 L 246.664703 2.999989 M 248.165386 0.000000000000056843 L 248.165386 15.090896 M 248.165386 18.090885 L 248.165386 45.274067 M 248.165386 48.274056 L 248.165386 75.455859 M 248.165386 78.455849 L 248.165386 105.63903 M 248.165386 108.639019 L 248.165386 135.822201 M 248.165386 138.82219 L 248.165386 166.003993 M 248.165386 169.003982 L 248.165386 196.187164 M 248.165386 199.187153 L 248.165386 226.368956 M 248.165386 229.368945 L 248.165386 256.552127 M 248.165386 259.552116 L 248.165386 286.735297 M 248.165386 289.735286 L 248.165386 316.91709 M 248.165386 319.917079 L 248.165386 347.10026 M 249.664692 350.10025 L 249.664692 335.009353 M 249.664692 332.009364 L 249.664692 304.826183 M 249.664692 301.826194 L 249.664692 274.643012 M 249.664692 271.643023 L 249.664692 244.46122 M 249.664692 241.46123 L 249.664692 214.278049 M 249.664692 211.27806 L 249.664692 184.096257 M 249.664692 181.096267 L 249.664692 153.913086 M 249.664692 150.913097 L 249.664692 123.729915 M 249.664692 120.729926 L 249.664692 93.548123 M 249.664692 90.548134 L 249.664692 63.364952 M 249.664692 60.364963 L 249.664692 33.18316 M 249.664692 30.183171 L 249.664692 2.999989 M 251.165375 0.000000000000056843 L 251.165375 15.090896 M 251.165375 18.090885 L 251.165375 45.274067 M 251.165375 48.274056 L 251.165375 75.455859 M 251.165375 78.455849 L 251.165375 105.63903 M 251.165375 108.639019 L 251.165375 135.822201 M 251.165375 138.82219 L 251.165375 166.003993 M 251.165375 169.003982 L 251.165375 196.187164 M 251.165375 199.187153 L 251.165375 226.368956 M 251.165375 229.368945 L 251.165375 256.552127 M 251.165375 259.552116 L 251.165375 286.735297 M 251.165375 289.735286 L 251.165375 316.91709 M 251.165375 319.917079 L 251.165375 347.10026 M 252.664681 350.10025 L 252.664681 335.009353 M 252.664681 332.009364 L 252.664681 304.826183 M 252.664681 301.826194 L 252.664681 274.643012 M 252.664681 271.643023 L 252.664681 244.46122 M 252.664681 241.46123 L 252.664681 214.278049 M 252.664681 211.27806 L 252.664681 184.096257 M 252.664681 181.096267 L 252.664681 153.913086 M 252.664681 150.913097 L 252.664681 123.729915 M 252.664681 120.729926 L 252.664681 93.548123 M 252.664681 90.548134 L 252.664681 63.364952 M 252.664681 60.364963 L 252.664681 33.18316 M 252.664681 30.183171 L 252.664681 2.999989 M 254.165365 0.000000000000056843 L 254.165365 15.090896 M 254.165365 18.090885 L 254.165365 45.274067 M 254.165365 48.274056 L 254.165365 75.455859 M 254.165365 78.455849 L 254.165365 105.63903 M 254.165365 108.639019 L 254.165365 135.822201 M 254.165365 138.82219 L 254.165365 166.003993 M 254.165365 169.003982 L 254.165365 196.187164 M 254.165365 199.187153 L 254.165365 226.368956 M 254.165365 229.368945 L 254.165365 256.552127 M 254.165365 259.552116 L 254.165365 286.735297 M 254.165365 289.735286 L 254.165365 316.91709 M 254.165365 319.917079 L 254.165365 347.10026 M 255.66467 350.10025 L 255.66467 335.009353 M 255.66467 332.009364 L 255.66467 304.826183 M 255.66467 301.826194 L 255.66467 274.643012 M 255.66467 271.643023 L 255.66467 244.46122 M 255.66467 241.46123 L 255.66467 214.278049 M 255.66467 211.27806 L 255.66467 184.096257 M 255.66467 181.096267 L 255.66467 153.913086 M 255.66467 150.913097 L 255.66467 123.729915 M 255.66467 120.729926 L 255.66467 93.548123 M 255.66467 90.548134 L 255.66467 63.364952 M 255.66467 60.364963 L 255.66467 33.18316 M 255.66467 30.183171 L 255.66467 2.999989 M 257.165354 0.000000000000056843 L 257.165354 15.090896 M 257.165354 18.090885 L 257.165354 45.274067 M 257.165354 48.274056 L 257.165354 75.455859 M 257.165354 78.455849 L 257.165354 105.63903 M 257.165354 108.639019 L 257.165354 135.822201 M 257.165354 138.82219 L 257.165354 166.003993 M 257.165354 169.003982 L 257.165354 196.187164 M 257.165354 199.187153 L 257.165354 226.368956 M 257.165354 229.368945 L 257.165354 256.552127 M 257.165354 259.552116 L 257.165354 286.735297 M 257.165354 289.735286 L 257.165354 316.91709 M 257.165354 319.917079 L 257.165354 347.10026 M 258.664659 350.10025 L 258.664659 335.009353 M 258.664659 332.009364 L 258.664659 304.826183 M 258.664659 301.826194 L 258.664659 274.643012 M 258.664659 271.643023 L 258.664659 244.46122 M 258.664659 241.46123 L 258.664659 214.278049 M 258.664659 211.27806 L 258.664659 184.096257 M 258.664659 181.096267 L 258.664659 153.913086 M 258.664659 150.913097 L 258.664659 123.729915 M 258.664659 120.729926 L 258.664659 93.548123 M 258.664659 90.548134 L 258.664659 63.364952 M 258.664659 60.364963 L 258.664659 33.18316 M 258.664659 30.183171 L 258.664659 2.999989 M 260.165343 0.000000000000056843 L 260.165343 15.090896 M 260.165343 18.090885 L 260.165343 45.274067 M 260.165343 48.274056 L 260.165343 75.455859 M 260.165343 78.455849 L 260.165343 105.63903 M 260.165343 108.639019 L 260.165343 135.822201 M 260.165343 138.82219 L 260.165343 166.003993 M 260.165343 169.003982 L 260.165343 196.187164 M 260.165343 199.187153 L 260.165343 226.368956 M 260.165343 229.368945 L 260.165343 256.552127 M 260.165343 259.552116 L 260.165343 286.735297 M 260.165343 289.735286 L 260.165343 316.91709 M 260.165343 319.917079 L 260.165343 347.10026 M 261.664648 350.10025 L 261.664648 335.009353 M 261.664648 332.009364 L 261.664648 304.826183 M 261.664648 301.826194 L 261.664648 274.643012 M 261.664648 271.643023 L 261.664648 244.46122 M 261.664648 241.46123 L 261.664648 214.278049 M 261.664648 211.27806 L 261.664648 184.096257 M 261.664648 181.096267 L 261.664648 153.913086 M 261.664648 150.913097 L 261.664648 123.729915 M 261.664648 120.729926 L 261.664648 93.548123 M 261.664648 90.548134 L 261.664648 63.364952 M 261.664648 60.364963 L 261.664648 33.18316 M 261.664648 30.183171 L 261.664648 2.999989 M 263.165332 0.000000000000056843 L 263.165332 15.090896 M 263.165332 18.090885 L 263.165332 45.274067 M 263.165332 48.274056 L 263.165332 75.455859 M 263.165332 78.455849 L 263.165332 105.63903 M 263.165332 108.639019 L 263.165332 135.822201 M 263.165332 138.82219 L 263.165332 166.003993 M 263.165332 169.003982 L 263.165332 196.187164 M 263.165332 199.187153 L 263.165332 226.368956 M 263.165332 229.368945 L 263.165332 256.552127 M 263.165332 259.552116 L 263.165332 286.735297 M 263.165332 289.735286 L 263.165332 316.91709 M 263.165332 319.917079 L 263.165332 347.10026 M 264.664638 350.10025 L 264.664638 335.009353 M 264.664638 332.009364 L 264.664638 304.826183 M 264.664638 301.826194 L 264.664638 274.643012 M 264.664638 271.643023 L 264.664638 244.46122 M 264.664638 241.46123 L 264.664638 214.278049 M 264.664638 211.27806 L 264.664638 184.096257 M 264.664638 181.096267 L 264.664638 153.913086 M 264.664638 150.913097 L 264.664638 123.729915 M 264.664638 120.729926 L 264.664638 93.548123 M 264.664638 90.548134 L 264.664638 63.364952 M 264.664638 60.364963 L 264.664638 33.18316 M 264.664638 30.183171 L 264.664638 2.999989 M 266.165321 0.000000000000056843 L 266.165321 15.090896 M 266.165321 18.090885 L 266.165321 45.274067 M 266.165321 48.274056 L 266.165321 75.455859 M 266.165321 78.455849 L 266.165321 105.63903 M 266.165321 108.639019 L 266.165321 135.822201 M 266.165321 138.82219 L 266.165321 166.003993 M 266.165321 169.003982 L 266.165321 196.187164 M 266.165321 199.187153 L 266.165321 226.368956 M 266.165321 229.368945 L 266.165321 256.552127 M 266.165321 259.552116 L 266.165321 286.735297 M 266.165321 289.735286 L 266.165321 316.91709 M 266.165321 319.917079 L 266.165321 347.10026 M 267.664627 350.10025 L 267.664627 335.009353 M 267.664627 332.009364 L 267.664627 304.826183 M 267.664627 301.826194 L 267.664627 274.643012 M 267.664627 271.643023 L 267.664627 244.46122 M 267.664627 241.46123 L 267.664627 214.278049 M 267.664627 211.27806 L 267.664627 184.096257 M 267.664627 181.096267 L 267.664627 153.913086 M 267.664627 150.913097 L 267.664627 123.729915 M 267.664627 120.729926 L 267.664627 93.548123 M 267.664627 90.548134 L 267.664627 63.364952 M 267.664627 60.364963 L 267.664627 33.18316 M 267.664627 30.183171 L 267.664627 2.999989 M 269.16531 0.000000000000056843 L 269.16531 15.090896 M 269.16531 18.090885 L 269.16531 45.274067 M 269.16531 48.274056 L 269.16531 75.455859 M 269.16531 78.455849 L 269.16531 105.63903 M 269.16531 108.639019 L 269.16531 135.822201 M 269.16531 138.82219 L 269.16531 166.003993 M 269.16531 169.003982 L 269.16531 196.187164 M 269.16531 199.187153 L 269.16531 226.368956 M 269.16531 229.368945 L 269.16531 256.552127 M 269.16531 259.552116 L 269.16531 286.735297 M 269.16531 289.735286 L 269.16531 316.91709 M 269.16531 319.917079 L 269.16531 347.10026 M 270.664616 350.10025 L 270.664616 335.009353 M 270.664616 332.009364 L 270.664616 304.826183 M 270.664616 301.826194 L 270.664616 274.643012 M 270.664616 271.643023 L 270.664616 244.46122 M 270.664616 241.46123 L 270.664616 214.278049 M 270.664616 211.27806 L 270.664616 184.096257 M 270.664616 181.096267 L 270.664616 153.913086 M 270.664616 150.913097 L 270.664616 123.729915 M 270.664616 120.729926 L 270.664616 93.548123 M 270.664616 90.548134 L 270.664616 63.364952 M 270.664616 60.364963 L 270.664616 33.18316 M 270.664616 30.183171 L 270.664616 2.999989 M 272.165299 0.000000000000056843 L 272.165299 15.090896 M 272.165299 18.090885 L 272.165299 45.274067 M 272.165299 48.274056 L 272.165299 75.455859 M 272.165299 78.455849 L 272.165299 105.63903 M 272.165299 108.639019 L 272.165299 135.822201 M 272.165299 138.82219 L 272.165299 166.003993 M 272.165299 169.003982 L 272.165299 196.187164 M 272.165299 199.187153 L 272.165299 226.368956 M 272.165299 229.368945 L 272.165299 256.552127 M 272.165299 259.552116 L 272.165299 286.735297 M 272.165299 289.735286 L 272.165299 316.91709 M 272.165299 319.917079 L 272.165299 347.10026 M 273.664605 350.10025 L 273.664605 335.009353 M 273.664605 332.009364 L 273.664605 304.826183 M 273.664605 301.826194 L 273.664605 274.643012 M 273.664605 271.643023 L 273.664605 244.46122 M 273.664605 241.46123 L 273.664605 214.278049 M 273.664605 211.27806 L 273.664605 184.096257 M 273.664605 181.096267 L 273.664605 153.913086 M 273.664605 150.913097 L 273.664605 123.729915 M 273.664605 120.729926 L 273.664605 93.548123 M 273.664605 90.548134 L 273.664605 63.364952 M 273.664605 60.364963 L 273.664605 33.18316 M 273.664605 30.183171 L 273.664605 2.999989 M 275.165289 0.000000000000056843 L 275.165289 15.090896 M 275.165289 18.090885 L 275.165289 45.274067 M 275.165289 48.274056 L 275.165289 75.455859 M 275.165289 78.455849 L 275.165289 105.63903 M 275.165289 108.639019 L 275.165289 135.822201 M 275.165289 138.82219 L 275.165289 166.003993 M 275.165289 169.003982 L 275.165289 196.187164 M 275.165289 199.187153 L 275.165289 226.368956 M 275.165289 229.368945 L 275.165289 256.552127 M 275.165289 259.552116 L 275.165289 286.735297 M 275.165289 289.735286 L 275.165289 316.91709 M 275.165289 319.917079 L 275.165289 347.10026 M 276.664594 350.10025 L 276.664594 335.009353 M 276.664594 332.009364 L 276.664594 304.826183 M 276.664594 301.826194 L 276.664594 274.643012 M 276.664594 271.643023 L 276.664594 244.46122 M 276.664594 241.46123 L 276.664594 214.278049 M 276.664594 211.27806 L 276.664594 184.096257 M 276.664594 181.096267 L 276.664594 153.913086 M 276.664594 150.913097 L 276.664594 123.729915 M 276.664594 120.729926 L 276.664594 93.548123 M 276.664594 90.548134 L 276.664594 63.364952 M 276.664594 60.364963 L 276.664594 33.18316 M 276.664594 30.183171 L 276.664594 2.999989 M 278.165278 0.000000000000056843 L 278.165278 15.090896 M 278.165278 18.090885 L 278.165278 45.274067 M 278.165278 48.274056 L 278.165278 75.455859 M 278.165278 78.455849 L 278.165278 105.63903 M 278.165278 108.639019 L 278.165278 135.822201 M 278.165278 138.82219 L 278.165278 166.003993 M 278.165278 169.003982 L 278.165278 196.187164 M 278.165278 199.187153 L 278.165278 226.368956 M 278.165278 229.368945 L 278.165278 256.552127 M 278.165278 259.552116 L 278.165278 286.735297 M 278.165278 289.735286 L 278.165278 316.91709 M 278.165278 319.917079 L 278.165278 347.10026 M 279.664583 350.10025 L 279.664583 335.009353 M 279.664583 332.009364 L 279.664583 304.826183 M 279.664583 301.826194 L 279.664583 274.643012 M 279.664583 271.643023 L 279.664583 244.46122 M 279.664583 241.46123 L 279.664583 214.278049 M 279.664583 211.27806 L 279.664583 184.096257 M 279.664583 181.096267 L 279.664583 153.913086 M 279.664583 150.913097 L 279.664583 123.729915 M 279.664583 120.729926 L 279.664583 93.548123 M 279.664583 90.548134 L 279.664583 63.364952 M 279.664583 60.364963 L 279.664583 33.18316 M 279.664583 30.183171 L 279.664583 2.999989 M 281.165267 0.000000000000056843 L 281.165267 15.090896 M 281.165267 18.090885 L 281.165267 45.274067 M 281.165267 48.274056 L 281.165267 75.455859 M 281.165267 78.455849 L 281.165267 105.63903 M 281.165267 108.639019 L 281.165267 135.822201 M 281.165267 138.82219 L 281.165267 166.003993 M 281.165267 169.003982 L 281.165267 196.187164 M 281.165267 199.187153 L 281.165267 226.368956 M 281.165267 229.368945 L 281.165267 256.552127 M 281.165267 259.552116 L 281.165267 286.735297 M 281.165267 289.735286 L 281.165267 316.91709 M 281.165267 319.917079 L 281.165267 347.10026 M 282.664572 350.10025 L 282.664572 335.009353 M 282.664572 332.009364 L 282.664572 304.826183 M 282.664572 301.826194 L 282.664572 274.643012 M 282.664572 271.643023 L 282.664572 244.46122 M 282.664572 241.46123 L 282.664572 214.278049 M 282.664572 211.27806 L 282.664572 184.096257 M 282.664572 181.096267 L 282.664572 153.913086 M 282.664572 150.913097 L 282.664572 123.729915 M 282.664572 120.729926 L 282.664572 93.548123 M 282.664572 90.548134 L 282.664572 63.364952 M 282.664572 60.364963 L 282.664572 33.18316 M 282.664572 30.183171 L 282.664572 2.999989 M 284.165256 0.000000000000056843 L 284.165256 15.090896 M 284.165256 18.090885 L 284.165256 45.274067 M 284.165256 48.274056 L 284.165256 75.455859 M 284.165256 78.455849 L 284.165256 105.63903 M 284.165256 108.639019 L 284.165256 135.822201 M 284.165256 138.82219 L 284.165256 166.003993 M 284.165256 169.003982 L 284.165256 196.187164 M 284.165256 199.187153 L 284.165256 226.368956 M 284.165256 229.368945 L 284.165256 256.552127 M 284.165256 259.552116 L 284.165256 286.735297 M 284.165256 289.735286 L 284.165256 316.91709 M 284.165256 319.917079 L 284.165256 347.10026 M 285.664562 350.10025 L 285.664562 335.009353 M 285.664562 332.009364 L 285.664562 304.826183 M 285.664562 301.826194 L 285.664562 274.643012 M 285.664562 271.643023 L 285.664562 244.46122 M 285.664562 241.46123 L 285.664562 214.278049 M 285.664562 211.27806 L 285.664562 184.096257 M 285.664562 181.096267 L 285.664562 153.913086 M 285.664562 150.913097 L 285.664562 123.729915 M 285.664562 120.729926 L 285.664562 93.548123 M 285.664562 90.548134 L 285.664562 63.364952 M 285.664562 60.364963 L 285.664562 33.18316 M 285.664562 30.183171 L 285.664562 2.999989 M 224.999186 0.000000000000056843 L 287.830838 0.000000000000056843 M 287.830838 0.000000000000056843 L 512.831402 0.000000000000113687 C 521.143728 0.000000000000113687 527.880957 6.738607 527.880957 15.049555 M 527.880957 15.049555 L 527.880957 335.049316 C 527.880957 343.361643 521.14235 350.098872 512.831402 350.098872 M 512.831402 350.098872 L -0.000000000000085265 350.098872 C -8.312326 350.098872 -15.049555 343.360265 -15.049555 335.049316 M -15.049555 335.049316 L -15.049555 15.049555 C -15.049555 6.737229 -8.310948 0 0 0 " transform="matrix(2.834646,0.000000000000000694,0.000000000000000694,-2.834646,51.027344,1302.519531)"/>
</g>
</svg>
