<?xml version='1.0' encoding='utf-8'?>
<svg height="230.40mm" viewBox="0.0 0.0 198.70 230.40" width="198.70mm" xmlns="http://www.w3.org/2000/svg" xmlns:cc="http://creativecommons.org/ns#" xmlns:dc="http://purl.org/dc/elements/1.1/" xmlns:inkscape="http://www.inkscape.org/namespaces/inkscape" xmlns:rdf="http://www.w3.org/1999/02/22-rdf-syntax-ns#" xmlns:svg="http://www.w3.org/2000/svg" xmlns:xlink="http://www.w3.org/1999/xlink">
<!--
GameCounterDual - Dual-wheel board game score counter – one board, two independent spinning rings



A board game score counter with **two independent spinning score wheels** on a
single base board.

Each wheel works exactly like the ring counter (``GameCounterRing``):
a spinning outer ring shows the score; a fixed inner disc carries the pointer.
Both wheels share a common font but have fully independent score ranges,
diameters, and optional gear-tooth (crenel) rims.

**Cut pieces**

* **Board** – rectangular base with two magnet pockets (one per wheel).
* **Ring 1 / Ring 2** – the spinning outer ring of each wheel.

**Assembly**

1. Press a magnet into each pocket on the board.
2. Drop each ring over its magnet pocket; the magnet holds it in place while
   still allowing it to spin freely.
3. Spin the rings to track scores independently.



Created with Boxes.py (https://boxes.hackerspace-bamberg.de/)
Command line (remove spaces between dashes): boxes GameCounterDual
-->
<title>GameCounterDual</title>
<metadata>
<rdf:RDF><cc:Work>
<dc:title>GameAccessory - GameCounterDual</dc:title>
<dc:source>boxes GameCounterDual</dc:source>
<dc:description>Dual-wheel board game score counter – one board, two independent spinning rings


A board game score counter with **two independent spinning score wheels** on a
single base board.

Each wheel works exactly like the ring counter (``GameCounterRing``):
a spinning outer ring shows the score; a fixed inner disc carries the pointer.
Both wheels share a common font but have fully independent score ranges,
diameters, and optional gear-tooth (crenel) rims.

**Cut pieces**

* **Board** – rectangular base with two magnet pockets (one per wheel).
* **Ring 1 / Ring 2** – the spinning outer ring of each wheel.

**Assembly**

1. Press a magnet into each pocket on the board.
2. Drop each ring over its magnet pocket; the magnet holds it in place while
   still allowing it to spin freely.
3. Spin the rings to track scores independently.


Created with Boxes.py (https://boxes.hackerspace-bamberg.de/)
Command line: boxes GameCounterDual
Command line short: boxes GameCounterDual
</dc:description>
</cc:Work></rdf:RDF></metadata>
<g id="p-0" style="fill:none;stroke-linecap:round;stroke-linejoin:round;">
  <path d="M 11.000 220.400 H 111.000 V 210.400 H 11.000 V 220.400 Z" stroke="rgb(0,0,0)" stroke-width="0.20" />
  <text font-size="6px" style="font-family: sans-serif ; font-weight: normal; font-style: normal; fill: rgb(255,0,0)" text-anchor="middle" transform="matrix( 1.000 0.000 0.000 1.000 61.000 217.560 )">100.0mm, burn:0.10mm</text>
</g>
<g id="p-1" style="fill:none;stroke-linecap:round;stroke-linejoin:round;">
  <path d="M 11.000 208.700 H 188.700 V 102.700 H 11.000 V 208.700 Z" stroke="rgb(0,0,0)" stroke-width="0.20" />
  <path d="M 66.400 155.700 C 66.400 156.160 66.268 156.610 66.019 156.998 C 65.770 157.385 65.416 157.692 64.997 157.883 C 64.578 158.074 64.114 158.141 63.658 158.076 C 63.203 158.010 62.776 157.815 62.428 157.514 C 62.081 157.213 61.827 156.818 61.697 156.376 C 61.568 155.935 61.568 155.465 61.697 155.024 C 61.827 154.582 62.081 154.187 62.428 153.886 C 62.776 153.585 63.203 153.390 63.658 153.324 C 64.114 153.259 64.578 153.326 64.997 153.517 C 65.416 153.708 65.770 154.015 66.019 154.402 C 66.268 154.790 66.400 155.240 66.400 155.700 Z" stroke="rgb(0,0,255)" stroke-width="0.20" />
  <path d="M 148.100 155.700 C 148.100 156.160 147.968 156.610 147.719 156.998 C 147.470 157.385 147.116 157.692 146.697 157.883 C 146.278 158.074 145.814 158.141 145.358 158.076 C 144.903 158.010 144.476 157.815 144.128 157.514 C 143.781 157.213 143.527 156.818 143.397 156.376 C 143.268 155.935 143.268 155.465 143.397 155.024 C 143.527 154.582 143.781 154.187 144.128 153.886 C 144.476 153.585 144.903 153.390 145.358 153.324 C 145.814 153.259 146.278 153.326 146.697 153.517 C 147.116 153.708 147.470 154.015 147.719 154.402 C 147.968 154.790 148.100 155.240 148.100 155.700 Z" stroke="rgb(0,0,255)" stroke-width="0.20" />
</g>
<g id="p-2" style="fill:none;stroke-linecap:round;stroke-linejoin:round;">
  <path d="M 101.100 56.000 C 101.100 46.476 98.085 37.196 92.487 29.491 C 86.888 21.786 78.995 16.050 69.937 13.107 C 60.879 10.164 51.121 10.164 42.063 13.107 C 33.005 16.050 25.112 21.786 19.513 29.491 C 13.915 37.196 10.900 46.476 10.900 56.000 C 10.900 65.524 13.915 74.804 19.513 82.509 C 25.112 90.214 33.005 95.950 42.063 98.893 C 51.121 101.836 60.879 101.836 69.937 98.893 C 78.995 95.950 86.888 90.214 92.487 82.509 C 98.085 74.804 101.100 65.524 101.100 56.000 Z" stroke="rgb(0,0,0)" stroke-width="0.20" />
  <path d="M 58.400 56.000 C 58.400 56.460 58.268 56.910 58.019 57.298 C 57.770 57.685 57.416 57.992 56.997 58.183 C 56.578 58.374 56.114 58.441 55.658 58.376 C 55.203 58.310 54.776 58.115 54.428 57.814 C 54.081 57.513 53.827 57.118 53.697 56.676 C 53.568 56.235 53.568 55.765 53.697 55.324 C 53.827 54.882 54.081 54.487 54.428 54.186 C 54.776 53.885 55.203 53.690 55.658 53.624 C 56.114 53.559 56.578 53.626 56.997 53.817 C 57.416 54.008 57.770 54.315 58.019 54.702 C 58.268 55.090 58.400 55.540 58.400 56.000 Z" stroke="rgb(0,0,255)" stroke-width="0.20" />
  <text font-size="10.0px" style="font-family: sans-serif ; font-weight: normal; font-style: normal; fill: rgb(0,255,0)" text-anchor="middle" transform="matrix( 0.000 1.000 -1.000 0.000 11.400 56.000 )">0</text>
  <text font-size="10.0px" style="font-family: sans-serif ; font-weight: normal; font-style: normal; fill: rgb(0,255,0)" text-anchor="middle" transform="matrix( 1.000 0.000 0.000 1.000 56.000 100.600 )">1</text>
  <text font-size="10.0px" style="font-family: sans-serif ; font-weight: normal; font-style: normal; fill: rgb(0,255,0)" text-anchor="middle" transform="matrix( 0.000 -1.000 1.000 0.000 100.600 56.000 )">2</text>
  <text font-size="10.0px" style="font-family: sans-serif ; font-weight: normal; font-style: normal; fill: rgb(0,255,0)" text-anchor="middle" transform="matrix( -1.000 0.000 -0.000 -1.000 56.000 11.400 )">3</text>
  <path d="M 172.800 56.000 C 172.800 48.588 170.453 41.365 166.096 35.369 C 161.740 29.372 155.596 24.908 148.546 22.618 C 141.497 20.327 133.903 20.327 126.854 22.618 C 119.804 24.908 113.660 29.372 109.304 35.369 C 104.947 41.365 102.600 48.588 102.600 56.000 C 102.600 63.412 104.947 70.635 109.304 76.631 C 113.660 82.628 119.804 87.092 126.854 89.382 C 133.903 91.673 141.497 91.673 148.546 89.382 C 155.596 87.092 161.740 82.628 166.096 76.631 C 170.453 70.635 172.800 63.412 172.800 56.000 Z" stroke="rgb(0,0,0)" stroke-width="0.20" />
  <path d="M 140.100 56.000 C 140.100 56.460 139.968 56.910 139.719 57.298 C 139.470 57.685 139.116 57.992 138.697 58.183 C 138.278 58.374 137.814 58.441 137.358 58.376 C 136.903 58.310 136.476 58.115 136.128 57.814 C 135.781 57.513 135.527 57.118 135.397 56.676 C 135.268 56.235 135.268 55.765 135.397 55.324 C 135.527 54.882 135.781 54.487 136.128 54.186 C 136.476 53.885 136.903 53.690 137.358 53.624 C 137.814 53.559 138.278 53.626 138.697 53.817 C 139.116 54.008 139.470 54.315 139.719 54.702 C 139.968 55.090 140.100 55.540 140.100 56.000 Z" stroke="rgb(0,0,255)" stroke-width="0.20" />
  <text font-size="10.0px" style="font-family: sans-serif ; font-weight: normal; font-style: normal; fill: rgb(0,255,0)" text-anchor="middle" transform="matrix( 0.000 1.000 -1.000 0.000 103.100 56.000 )">0</text>
  <text font-size="10.0px" style="font-family: sans-serif ; font-weight: normal; font-style: normal; fill: rgb(0,255,0)" text-anchor="middle" transform="matrix( 0.588 0.809 -0.809 0.588 109.708 76.337 )">1</text>
  <text font-size="10.0px" style="font-family: sans-serif ; font-weight: normal; font-style: normal; fill: rgb(0,255,0)" text-anchor="middle" transform="matrix( 0.951 0.309 -0.309 0.951 127.008 88.907 )">2</text>
  <text font-size="10.0px" style="font-family: sans-serif ; font-weight: normal; font-style: normal; fill: rgb(0,255,0)" text-anchor="middle" transform="matrix( 0.951 -0.309 0.309 0.951 148.392 88.907 )">3</text>
  <text font-size="10.0px" style="font-family: sans-serif ; font-weight: normal; font-style: normal; fill: rgb(0,255,0)" text-anchor="middle" transform="matrix( 0.588 -0.809 0.809 0.588 165.692 76.337 )">4</text>
  <text font-size="10.0px" style="font-family: sans-serif ; font-weight: normal; font-style: normal; fill: rgb(0,255,0)" text-anchor="middle" transform="matrix( 0.000 -1.000 1.000 0.000 172.300 56.000 )">5</text>
  <text font-size="10.0px" style="font-family: sans-serif ; font-weight: normal; font-style: normal; fill: rgb(0,255,0)" text-anchor="middle" transform="matrix( -0.588 -0.809 0.809 -0.588 165.692 35.663 )">6</text>
  <text font-size="10.0px" style="font-family: sans-serif ; font-weight: normal; font-style: normal; fill: rgb(0,255,0)" text-anchor="middle" transform="matrix( -0.951 -0.309 0.309 -0.951 148.392 23.093 )">7</text>
  <text font-size="10.0px" style="font-family: sans-serif ; font-weight: normal; font-style: normal; fill: rgb(0,255,0)" text-anchor="middle" transform="matrix( -0.951 0.309 -0.309 -0.951 127.008 23.093 )">8</text>
  <text font-size="10.0px" style="font-family: sans-serif ; font-weight: normal; font-style: normal; fill: rgb(0,255,0)" text-anchor="middle" transform="matrix( -0.588 0.809 -0.809 -0.588 109.708 35.663 )">9</text>
</g>
</svg>