<?xml version='1.0' encoding='utf-8'?>
<svg height="119.97mm" viewBox="0.0 0.0 120.70 119.97" width="120.70mm" xmlns="http://www.w3.org/2000/svg" xmlns:cc="http://creativecommons.org/ns#" xmlns:dc="http://purl.org/dc/elements/1.1/" xmlns:inkscape="http://www.inkscape.org/namespaces/inkscape" xmlns:rdf="http://www.w3.org/1999/02/22-rdf-syntax-ns#" xmlns:svg="http://www.w3.org/2000/svg" xmlns:xlink="http://www.w3.org/1999/xlink">
<!--
GameCounterDual - Dual-wheel board game score counter – one board, two independent spinning rings



A board game score counter with **two independent spinning score wheels** on a
single base board.

Each wheel works exactly like the ring counter (``GameCounterRing``):
a spinning outer ring shows the score; a fixed inner disc carries the pointer.
Both wheels share a common font but have fully independent score ranges,
diameters, and optional gear-tooth (crenel) rims.

**Cut pieces**

* **Board** – rectangular base with two magnet pockets (one per wheel).
* **Ring 1 / Ring 2** – the spinning outer ring of each wheel.

**Assembly**

1. Press a magnet into each pocket on the board.
2. Drop each ring over its magnet pocket; the magnet holds it in place while
   still allowing it to spin freely.
3. Spin the rings to track scores independently.



Created with Boxes.py (https://boxes.hackerspace-bamberg.de/)
Command line (remove spaces between dashes): boxes GameCounterDual
-->
<title>GameCounterDual</title>
<metadata>
<rdf:RDF><cc:Work>
<dc:title>Game - GameCounterDual</dc:title>
<dc:source>boxes GameCounterDual</dc:source>
<dc:description>Dual-wheel board game score counter – one board, two independent spinning rings


A board game score counter with **two independent spinning score wheels** on a
single base board.

Each wheel works exactly like the ring counter (``GameCounterRing``):
a spinning outer ring shows the score; a fixed inner disc carries the pointer.
Both wheels share a common font but have fully independent score ranges,
diameters, and optional gear-tooth (crenel) rims.

**Cut pieces**

* **Board** – rectangular base with two magnet pockets (one per wheel).
* **Ring 1 / Ring 2** – the spinning outer ring of each wheel.

**Assembly**

1. Press a magnet into each pocket on the board.
2. Drop each ring over its magnet pocket; the magnet holds it in place while
   still allowing it to spin freely.
3. Spin the rings to track scores independently.


Created with Boxes.py (https://boxes.hackerspace-bamberg.de/)
Command line: boxes GameCounterDual
Command line short: boxes GameCounterDual
</dc:description>
</cc:Work></rdf:RDF></metadata>
<g id="p-0" style="fill:none;stroke-linecap:round;stroke-linejoin:round;">
  <path d="M 10.700 109.966 H 110.700 V 99.966 H 10.700 V 109.966 Z" stroke="rgb(0,0,0)" stroke-width="0.20" />
  <text font-size="6px" style="font-family: sans-serif ; font-weight: normal; font-style: normal; fill: rgb(255,0,0)" text-anchor="middle" transform="matrix( 1.000 0.000 0.000 1.000 60.700 107.126 )">100.0mm, burn:0.10mm</text>
</g>
<g id="p-1" style="fill:none;stroke-linecap:round;stroke-linejoin:round;">
  <path d="M 10.700 98.266 H 85.400 V 47.266 H 10.700 V 98.266 Z" stroke="rgb(0,0,0)" stroke-width="0.20" />
  <path d="M 32.100 72.766 C 32.100 73.226 31.968 73.677 31.719 74.064 C 31.470 74.451 31.116 74.758 30.697 74.949 C 30.278 75.141 29.814 75.207 29.358 75.142 C 28.903 75.076 28.476 74.881 28.128 74.580 C 27.781 74.279 27.527 73.884 27.397 73.442 C 27.268 73.001 27.268 72.532 27.397 72.090 C 27.527 71.649 27.781 71.254 28.128 70.953 C 28.476 70.651 28.903 70.456 29.358 70.391 C 29.814 70.325 30.278 70.392 30.697 70.583 C 31.116 70.774 31.470 71.082 31.719 71.469 C 31.968 71.856 32.100 72.306 32.100 72.766 Z" stroke="rgb(0,0,255)" stroke-width="0.20" />
  <path d="M 62.300 72.766 C 62.300 73.226 62.168 73.677 61.919 74.064 C 61.670 74.451 61.316 74.758 60.897 74.949 C 60.478 75.141 60.014 75.207 59.558 75.142 C 59.103 75.076 58.676 74.881 58.328 74.580 C 57.981 74.279 57.727 73.884 57.597 73.442 C 57.468 73.001 57.468 72.532 57.597 72.090 C 57.727 71.649 57.981 71.254 58.328 70.953 C 58.676 70.651 59.103 70.456 59.558 70.391 C 60.014 70.325 60.478 70.392 60.897 70.583 C 61.316 70.774 61.670 71.082 61.919 71.469 C 62.168 71.856 62.300 72.306 62.300 72.766 Z" stroke="rgb(0,0,255)" stroke-width="0.20" />
</g>
<g id="p-2" style="fill:none;stroke-linecap:round;stroke-linejoin:round;">
  <path d="M 16.750 23.117 C 16.100 23.767 15.585 24.538 15.233 25.388 L 11.537 23.857 C 10.421 26.552 10.421 29.581 11.537 32.276 L 15.233 30.745 C 17.400 33.666 18.172 34.182 19.021 34.533 L 17.490 38.229 C 20.186 39.345 23.214 39.345 25.910 38.229 L 24.379 34.533 C 27.300 32.366 27.815 31.594 28.167 30.745 L 31.863 32.276 C 32.979 29.581 32.979 26.552 31.863 23.857 L 28.167 25.388 C 26.000 22.467 25.228 21.951 24.379 21.599 L 25.910 17.904 C 23.214 16.787 20.186 16.787 17.490 17.904 L 19.021 21.599 C 18.172 21.951 17.400 22.467 16.750 23.117 Z" stroke="rgb(0,0,0)" stroke-width="0.20" />
  <path d="M 24.100 28.066 C 24.100 28.526 23.968 28.977 23.719 29.364 C 23.470 29.751 23.116 30.058 22.697 30.249 C 22.278 30.441 21.814 30.507 21.358 30.442 C 20.903 30.376 20.476 30.181 20.128 29.880 C 19.781 29.579 19.527 29.184 19.397 28.742 C 19.268 28.301 19.268 27.832 19.397 27.390 C 19.527 26.949 19.781 26.554 20.128 26.253 C 20.476 25.951 20.903 25.756 21.358 25.691 C 21.814 25.625 22.278 25.692 22.697 25.883 C 23.116 26.074 23.470 26.382 23.719 26.769 C 23.968 27.156 24.100 27.606 24.100 28.066 Z" stroke="rgb(0,0,255)" stroke-width="0.20" />
  <text font-size="7.0px" style="font-family: sans-serif ; font-weight: normal; font-style: normal; fill: rgb(0,255,0)" text-anchor="middle" transform="matrix( 0.000 1.000 -1.000 0.000 10.980 28.066 )">0</text>
  <text font-size="7.0px" style="font-family: sans-serif ; font-weight: normal; font-style: normal; fill: rgb(0,255,0)" text-anchor="middle" transform="matrix( 1.000 0.000 0.000 1.000 21.700 38.786 )">1</text>
  <text font-size="7.0px" style="font-family: sans-serif ; font-weight: normal; font-style: normal; fill: rgb(0,255,0)" text-anchor="middle" transform="matrix( 0.000 -1.000 1.000 0.000 32.420 28.066 )">2</text>
  <text font-size="7.0px" style="font-family: sans-serif ; font-weight: normal; font-style: normal; fill: rgb(0,255,0)" text-anchor="middle" transform="matrix( -1.000 0.000 -0.000 -1.000 21.700 17.346 )">3</text>
  <path d="M 39.061 23.895 C 38.842 24.567 38.677 25.256 38.566 25.954 L 34.615 25.329 C 34.328 27.142 34.328 28.990 34.615 30.804 L 38.566 30.178 C 39.279 32.911 39.550 33.565 39.871 34.195 L 36.307 36.011 C 37.141 37.647 38.227 39.142 39.526 40.441 L 42.354 37.612 C 44.537 39.404 45.141 39.774 45.771 40.095 L 43.955 43.659 C 45.591 44.493 47.349 45.064 49.162 45.351 L 49.788 41.400 C 52.607 41.566 53.313 41.511 54.012 41.400 L 54.638 45.351 C 56.451 45.064 58.209 44.493 59.845 43.659 L 58.029 40.095 C 60.407 38.572 60.946 38.112 61.446 37.612 L 64.274 40.441 C 65.573 39.142 66.659 37.647 67.493 36.011 L 63.929 34.195 C 64.958 31.565 65.123 30.877 65.234 30.178 L 69.185 30.804 C 69.472 28.990 69.472 27.142 69.185 25.329 L 65.234 25.954 C 64.521 23.222 64.250 22.568 63.929 21.937 L 67.493 20.121 C 66.659 18.485 65.573 16.990 64.274 15.692 L 61.446 18.520 C 59.263 16.729 58.659 16.359 58.029 16.038 L 59.845 12.474 C 58.209 11.640 56.451 11.069 54.638 10.782 L 54.012 14.733 C 51.193 14.566 50.487 14.622 49.788 14.733 L 49.162 10.782 C 47.349 11.069 45.591 11.640 43.955 12.474 L 45.771 16.038 C 43.393 17.560 42.854 18.020 42.354 18.520 L 39.526 15.692 C 38.227 16.990 37.141 18.485 36.307 20.121 L 39.871 21.937 C 39.550 22.568 39.279 23.222 39.061 23.895 Z" stroke="rgb(0,0,0)" stroke-width="0.20" />
  <path d="M 54.300 28.066 C 54.300 28.526 54.168 28.977 53.919 29.364 C 53.670 29.751 53.316 30.058 52.897 30.249 C 52.478 30.441 52.014 30.507 51.558 30.442 C 51.103 30.376 50.676 30.181 50.328 29.880 C 49.981 29.579 49.727 29.184 49.597 28.742 C 49.468 28.301 49.468 27.832 49.597 27.390 C 49.727 26.949 49.981 26.554 50.328 26.253 C 50.676 25.951 51.103 25.756 51.558 25.691 C 52.014 25.625 52.478 25.692 52.897 25.883 C 53.316 26.074 53.670 26.382 53.919 26.769 C 54.168 27.156 54.300 27.606 54.300 28.066 Z" stroke="rgb(0,0,255)" stroke-width="0.20" />
  <text font-size="7.0px" style="font-family: sans-serif ; font-weight: normal; font-style: normal; fill: rgb(0,255,0)" text-anchor="middle" transform="matrix( 0.000 1.000 -1.000 0.000 34.680 28.066 )">0</text>
  <text font-size="7.0px" style="font-family: sans-serif ; font-weight: normal; font-style: normal; fill: rgb(0,255,0)" text-anchor="middle" transform="matrix( 0.588 0.809 -0.809 0.588 37.969 38.188 )">1</text>
  <text font-size="7.0px" style="font-family: sans-serif ; font-weight: normal; font-style: normal; fill: rgb(0,255,0)" text-anchor="middle" transform="matrix( 0.951 0.309 -0.309 0.951 46.579 44.444 )">2</text>
  <text font-size="7.0px" style="font-family: sans-serif ; font-weight: normal; font-style: normal; fill: rgb(0,255,0)" text-anchor="middle" transform="matrix( 0.951 -0.309 0.309 0.951 57.221 44.444 )">3</text>
  <text font-size="7.0px" style="font-family: sans-serif ; font-weight: normal; font-style: normal; fill: rgb(0,255,0)" text-anchor="middle" transform="matrix( 0.588 -0.809 0.809 0.588 65.831 38.188 )">4</text>
  <text font-size="7.0px" style="font-family: sans-serif ; font-weight: normal; font-style: normal; fill: rgb(0,255,0)" text-anchor="middle" transform="matrix( 0.000 -1.000 1.000 0.000 69.120 28.066 )">5</text>
  <text font-size="7.0px" style="font-family: sans-serif ; font-weight: normal; font-style: normal; fill: rgb(0,255,0)" text-anchor="middle" transform="matrix( -0.588 -0.809 0.809 -0.588 65.831 17.945 )">6</text>
  <text font-size="7.0px" style="font-family: sans-serif ; font-weight: normal; font-style: normal; fill: rgb(0,255,0)" text-anchor="middle" transform="matrix( -0.951 -0.309 0.309 -0.951 57.221 11.689 )">7</text>
  <text font-size="7.0px" style="font-family: sans-serif ; font-weight: normal; font-style: normal; fill: rgb(0,255,0)" text-anchor="middle" transform="matrix( -0.951 0.309 -0.309 -0.951 46.579 11.689 )">8</text>
  <text font-size="7.0px" style="font-family: sans-serif ; font-weight: normal; font-style: normal; fill: rgb(0,255,0)" text-anchor="middle" transform="matrix( -0.588 0.809 -0.809 -0.588 37.969 17.945 )">9</text>
</g>
</svg>