<?xml version='1.0' encoding='utf-8'?>
<svg height="119.32mm" viewBox="0.0 0.0 120.00 119.32" width="120.00mm" xmlns="http://www.w3.org/2000/svg" xmlns:cc="http://creativecommons.org/ns#" xmlns:dc="http://purl.org/dc/elements/1.1/" xmlns:inkscape="http://www.inkscape.org/namespaces/inkscape" xmlns:rdf="http://www.w3.org/1999/02/22-rdf-syntax-ns#" xmlns:svg="http://www.w3.org/2000/svg" xmlns:xlink="http://www.w3.org/1999/xlink">
<!--
GameCounterDual - Dual-wheel board game score counter – one board, two independent spinning rings



A board game score counter with **two independent spinning score wheels** on a
single base board.

Each wheel works exactly like the ring counter (``GameCounterRing``):
a spinning outer ring shows the score; a fixed inner disc carries the pointer.
Both wheels share a common font but have fully independent score ranges,
diameters, and optional gear-tooth (crenel) rims.

**Cut pieces**

* **Board** – rectangular base with two magnet pockets (one per wheel).
* **Ring 1 / Ring 2** – the spinning outer ring of each wheel.

**Assembly**

1. Press a magnet into each pocket on the board.
2. Drop each ring over its magnet pocket; the magnet holds it in place while
   still allowing it to spin freely.
3. Spin the rings to track scores independently.



Created with Boxes.py (https://boxes.hackerspace-bamberg.de/)
Command line (remove spaces between dashes): boxes GameCounterDual
-->
<title>GameCounterDual</title>
<metadata>
<rdf:RDF><cc:Work>
<dc:title>Game - GameCounterDual</dc:title>
<dc:source>boxes GameCounterDual</dc:source>
<dc:description>Dual-wheel board game score counter – one board, two independent spinning rings


A board game score counter with **two independent spinning score wheels** on a
single base board.

Each wheel works exactly like the ring counter (``GameCounterRing``):
a spinning outer ring shows the score; a fixed inner disc carries the pointer.
Both wheels share a common font but have fully independent score ranges,
diameters, and optional gear-tooth (crenel) rims.

**Cut pieces**

* **Board** – rectangular base with two magnet pockets (one per wheel).
* **Ring 1 / Ring 2** – the spinning outer ring of each wheel.

**Assembly**

1. Press a magnet into each pocket on the board.
2. Drop each ring over its magnet pocket; the magnet holds it in place while
   still allowing it to spin freely.
3. Spin the rings to track scores independently.


Created with Boxes.py (https://boxes.hackerspace-bamberg.de/)
Command line: boxes GameCounterDual
Command line short: boxes GameCounterDual
</dc:description>
</cc:Work></rdf:RDF></metadata>
<g id="p-0" style="fill:none;stroke-linecap:round;stroke-linejoin:round;">
  <path d="M 10.000 109.322 H 110.000 V 99.322 H 10.000 V 109.322 Z" stroke="rgb(0,0,0)" stroke-width="0.20" />
  <text font-size="6px" style="font-family: sans-serif ; font-weight: normal; font-style: normal; fill: rgb(255,0,0)" text-anchor="middle" transform="matrix( 1.000 0.000 0.000 1.000 60.000 106.482 )">100.0mm, burn:0.10mm</text>
</g>
<g id="p-1" style="fill:none;stroke-linecap:round;stroke-linejoin:round;">
  <path d="M 10.000 97.622 H 84.700 V 46.622 H 10.000 V 97.622 Z" stroke="rgb(0,0,0)" stroke-width="0.20" />
  <path d="M 31.400 72.122 C 31.400 72.582 31.268 73.033 31.019 73.420 C 30.770 73.807 30.416 74.114 29.997 74.305 C 29.578 74.497 29.114 74.563 28.658 74.498 C 28.203 74.432 27.776 74.237 27.428 73.936 C 27.081 73.635 26.827 73.240 26.697 72.798 C 26.568 72.357 26.568 71.888 26.697 71.446 C 26.827 71.005 27.081 70.610 27.428 70.309 C 27.776 70.007 28.203 69.812 28.658 69.747 C 29.114 69.681 29.578 69.748 29.997 69.939 C 30.416 70.130 30.770 70.438 31.019 70.825 C 31.268 71.212 31.400 71.662 31.400 72.122 Z" stroke="rgb(0,0,255)" stroke-width="0.20" />
  <path d="M 61.600 72.122 C 61.600 72.582 61.468 73.033 61.219 73.420 C 60.970 73.807 60.616 74.114 60.197 74.305 C 59.778 74.497 59.314 74.563 58.858 74.498 C 58.403 74.432 57.976 74.237 57.628 73.936 C 57.281 73.635 57.027 73.240 56.897 72.798 C 56.768 72.357 56.768 71.888 56.897 71.446 C 57.027 71.005 57.281 70.610 57.628 70.309 C 57.976 70.007 58.403 69.812 58.858 69.747 C 59.314 69.681 59.778 69.748 60.197 69.939 C 60.616 70.130 60.970 70.438 61.219 70.825 C 61.468 71.212 61.600 71.662 61.600 72.122 Z" stroke="rgb(0,0,255)" stroke-width="0.20" />
</g>
<g id="p-2" style="fill:none;stroke-linecap:round;stroke-linejoin:round;">
  <path d="M 16.050 22.473 C 15.531 22.992 15.096 23.590 14.763 24.244 L 11.199 22.428 C 9.600 25.566 9.600 29.279 11.199 32.416 L 14.763 30.600 C 16.570 32.891 17.168 33.326 17.822 33.659 L 16.006 37.223 C 19.143 38.822 22.857 38.822 25.994 37.223 L 24.178 33.659 C 26.469 31.853 26.904 31.255 27.237 30.600 L 30.801 32.416 C 32.400 29.279 32.400 25.566 30.801 22.428 L 27.237 24.244 C 25.430 21.953 24.832 21.519 24.178 21.185 L 25.994 17.621 C 22.857 16.023 19.143 16.023 16.006 17.621 L 17.822 21.185 C 17.168 21.519 16.570 21.953 16.050 22.473 Z" stroke="rgb(0,0,0)" stroke-width="0.20" />
  <path d="M 23.400 27.422 C 23.400 27.882 23.268 28.333 23.019 28.720 C 22.770 29.107 22.416 29.414 21.997 29.605 C 21.578 29.797 21.114 29.863 20.658 29.798 C 20.203 29.732 19.776 29.537 19.428 29.236 C 19.081 28.935 18.827 28.540 18.697 28.098 C 18.568 27.657 18.568 27.188 18.697 26.746 C 18.827 26.305 19.081 25.910 19.428 25.609 C 19.776 25.307 20.203 25.112 20.658 25.047 C 21.114 24.981 21.578 25.048 21.997 25.239 C 22.416 25.430 22.770 25.738 23.019 26.125 C 23.268 26.512 23.400 26.962 23.400 27.422 Z" stroke="rgb(0,0,255)" stroke-width="0.20" />
  <text font-size="7.0px" style="font-family: sans-serif ; font-weight: normal; font-style: normal; fill: rgb(0,255,0)" text-anchor="middle" transform="matrix( -1.000 0.000 -0.000 -1.000 12.800 24.902 )">0</text>
  <text font-size="7.0px" style="font-family: sans-serif ; font-weight: normal; font-style: normal; fill: rgb(0,255,0)" text-anchor="middle" transform="matrix( 0.000 1.000 -1.000 0.000 18.480 35.622 )">1</text>
  <text font-size="7.0px" style="font-family: sans-serif ; font-weight: normal; font-style: normal; fill: rgb(0,255,0)" text-anchor="middle" transform="matrix( 1.000 0.000 0.000 1.000 29.200 29.942 )">2</text>
  <text font-size="7.0px" style="font-family: sans-serif ; font-weight: normal; font-style: normal; fill: rgb(0,255,0)" text-anchor="middle" transform="matrix( 0.000 -1.000 1.000 0.000 23.520 19.222 )">3</text>
  <path d="M 38.361 23.251 C 38.230 23.654 38.118 24.063 38.025 24.477 L 34.121 23.605 C 33.560 26.119 33.560 28.726 34.121 31.240 L 38.025 30.367 C 38.492 31.997 38.642 32.395 38.810 32.784 L 35.139 34.372 C 36.162 36.737 37.695 38.846 39.627 40.549 L 42.272 37.549 C 43.608 38.593 43.963 38.826 44.328 39.042 L 42.292 42.485 C 44.509 43.797 46.989 44.602 49.553 44.845 L 49.930 40.862 C 51.624 40.922 52.048 40.902 52.470 40.862 L 52.847 44.845 C 55.411 44.602 57.891 43.797 60.108 42.485 L 58.072 39.042 C 59.478 38.095 59.810 37.829 60.128 37.549 L 62.773 40.549 C 64.705 38.846 66.238 36.737 67.261 34.372 L 63.590 32.784 C 64.170 31.191 64.282 30.781 64.375 30.367 L 68.279 31.240 C 68.840 28.726 68.840 26.119 68.279 23.605 L 64.375 24.477 C 63.908 22.847 63.758 22.450 63.590 22.061 L 67.261 20.472 C 66.238 18.108 64.705 15.999 62.773 14.295 L 60.128 17.296 C 58.792 16.251 58.437 16.018 58.072 15.802 L 60.108 12.359 C 57.891 11.048 55.411 10.242 52.847 10.000 L 52.470 13.982 C 50.776 13.922 50.352 13.942 49.930 13.982 L 49.553 10.000 C 46.989 10.242 44.509 11.048 42.292 12.359 L 44.328 15.802 C 42.922 16.750 42.590 17.015 42.272 17.296 L 39.627 14.295 C 37.695 15.999 36.162 18.108 35.139 20.472 L 38.810 22.061 C 38.642 22.450 38.492 22.847 38.361 23.251 Z" stroke="rgb(0,0,0)" stroke-width="0.20" />
  <path d="M 53.600 27.422 C 53.600 27.882 53.468 28.333 53.219 28.720 C 52.970 29.107 52.616 29.414 52.197 29.605 C 51.778 29.797 51.314 29.863 50.858 29.798 C 50.403 29.732 49.976 29.537 49.628 29.236 C 49.281 28.935 49.027 28.540 48.897 28.098 C 48.768 27.657 48.768 27.188 48.897 26.746 C 49.027 26.305 49.281 25.910 49.628 25.609 C 49.976 25.307 50.403 25.112 50.858 25.047 C 51.314 24.981 51.778 25.048 52.197 25.239 C 52.616 25.430 52.970 25.738 53.219 26.125 C 53.468 26.512 53.600 26.962 53.600 27.422 Z" stroke="rgb(0,0,255)" stroke-width="0.20" />
  <text font-size="7.0px" style="font-family: sans-serif ; font-weight: normal; font-style: normal; fill: rgb(0,255,0)" text-anchor="middle" transform="matrix( 1.000 0.000 0.000 1.000 36.500 29.942 )">0</text>
  <text font-size="7.0px" style="font-family: sans-serif ; font-weight: normal; font-style: normal; fill: rgb(0,255,0)" text-anchor="middle" transform="matrix( 0.809 -0.588 0.588 0.809 40.789 38.102 )">1</text>
  <text font-size="7.0px" style="font-family: sans-serif ; font-weight: normal; font-style: normal; fill: rgb(0,255,0)" text-anchor="middle" transform="matrix( 0.309 -0.951 0.951 0.309 49.054 42.182 )">2</text>
  <text font-size="7.0px" style="font-family: sans-serif ; font-weight: normal; font-style: normal; fill: rgb(0,255,0)" text-anchor="middle" transform="matrix( -0.309 -0.951 0.951 -0.309 58.139 40.624 )">3</text>
  <text font-size="7.0px" style="font-family: sans-serif ; font-weight: normal; font-style: normal; fill: rgb(0,255,0)" text-anchor="middle" transform="matrix( -0.809 -0.588 0.588 -0.809 64.574 34.024 )">4</text>
  <text font-size="7.0px" style="font-family: sans-serif ; font-weight: normal; font-style: normal; fill: rgb(0,255,0)" text-anchor="middle" transform="matrix( -1.000 0.000 -0.000 -1.000 65.900 24.902 )">5</text>
  <text font-size="7.0px" style="font-family: sans-serif ; font-weight: normal; font-style: normal; fill: rgb(0,255,0)" text-anchor="middle" transform="matrix( -0.809 0.588 -0.588 -0.809 61.611 16.743 )">6</text>
  <text font-size="7.0px" style="font-family: sans-serif ; font-weight: normal; font-style: normal; fill: rgb(0,255,0)" text-anchor="middle" transform="matrix( -0.309 0.951 -0.951 -0.309 53.346 12.663 )">7</text>
  <text font-size="7.0px" style="font-family: sans-serif ; font-weight: normal; font-style: normal; fill: rgb(0,255,0)" text-anchor="middle" transform="matrix( 0.309 0.951 -0.951 0.309 44.261 14.221 )">8</text>
  <text font-size="7.0px" style="font-family: sans-serif ; font-weight: normal; font-style: normal; fill: rgb(0,255,0)" text-anchor="middle" transform="matrix( 0.809 0.588 -0.588 0.809 37.826 20.821 )">9</text>
</g>
</svg>