<?xml version='1.0' encoding='utf-8'?>
<svg height="298.99mm" viewBox="0.0 0.0 197.80 298.99" width="197.80mm" xmlns="http://www.w3.org/2000/svg" xmlns:cc="http://creativecommons.org/ns#" xmlns:dc="http://purl.org/dc/elements/1.1/" xmlns:inkscape="http://www.inkscape.org/namespaces/inkscape" xmlns:rdf="http://www.w3.org/1999/02/22-rdf-syntax-ns#" xmlns:svg="http://www.w3.org/2000/svg" xmlns:xlink="http://www.w3.org/1999/xlink">
<!--
GameCounterDual - Dual-wheel board game score counter – one board, two independent spinning rings



A board game score counter with **two independent spinning score wheels** on a
single base board.

Each wheel works exactly like the ring counter (``GameCounterRing``):
a spinning outer ring shows the score; a fixed inner disc carries the pointer.
Both wheels share a common font but have fully independent score ranges,
diameters, and optional gear-tooth (crenel) rims.

**Cut pieces**

* **Board** – rectangular base with two magnet pockets (one per wheel).
* **Ring 1 / Ring 2** – the spinning outer ring of each wheel.

**Assembly**

1. Press a magnet into each pocket on the board.
2. Drop each ring over its magnet pocket; the magnet holds it in place while
   still allowing it to spin freely.
3. Spin the rings to track scores independently.



Created with Boxes.py (https://boxes.hackerspace-bamberg.de/)
Command line (remove spaces between dashes): boxes GameCounterDual
-->
<title>GameCounterDual</title>
<metadata>
<rdf:RDF><cc:Work>
<dc:title>GameAccessory - GameCounterDual</dc:title>
<dc:source>boxes GameCounterDual</dc:source>
<dc:description>Dual-wheel board game score counter – one board, two independent spinning rings


A board game score counter with **two independent spinning score wheels** on a
single base board.

Each wheel works exactly like the ring counter (``GameCounterRing``):
a spinning outer ring shows the score; a fixed inner disc carries the pointer.
Both wheels share a common font but have fully independent score ranges,
diameters, and optional gear-tooth (crenel) rims.

**Cut pieces**

* **Board** – rectangular base with two magnet pockets (one per wheel).
* **Ring 1 / Ring 2** – the spinning outer ring of each wheel.

**Assembly**

1. Press a magnet into each pocket on the board.
2. Drop each ring over its magnet pocket; the magnet holds it in place while
   still allowing it to spin freely.
3. Spin the rings to track scores independently.


Created with Boxes.py (https://boxes.hackerspace-bamberg.de/)
Command line: boxes GameCounterDual
Command line short: boxes GameCounterDual
</dc:description>
</cc:Work></rdf:RDF></metadata>
<g id="p-0" style="fill:none;stroke-linecap:round;stroke-linejoin:round;">
  <path d="M 10.100 288.993 H 110.100 V 278.993 H 10.100 V 288.993 Z" stroke="rgb(0,0,0)" stroke-width="0.20" />
  <text font-size="6px" style="font-family: sans-serif ; font-weight: normal; font-style: normal; fill: rgb(255,0,0)" text-anchor="middle" transform="matrix( 1.000 0.000 0.000 1.000 60.100 286.153 )">100.0mm, burn:0.10mm</text>
</g>
<g id="p-1" style="fill:none;stroke-linecap:round;stroke-linejoin:round;">
  <path d="M 10.100 277.293 H 187.800 V 171.293 H 10.100 V 277.293 Z" stroke="rgb(0,0,0)" stroke-width="0.20" />
  <path d="M 65.500 224.293 C 65.500 224.753 65.368 225.203 65.119 225.590 C 64.870 225.977 64.516 226.285 64.097 226.476 C 63.678 226.667 63.214 226.734 62.758 226.668 C 62.303 226.603 61.876 226.408 61.528 226.106 C 61.181 225.805 60.927 225.410 60.797 224.969 C 60.668 224.527 60.668 224.058 60.797 223.616 C 60.927 223.175 61.181 222.780 61.528 222.479 C 61.876 222.178 62.303 221.983 62.758 221.917 C 63.214 221.852 63.678 221.918 64.097 222.110 C 64.516 222.301 64.870 222.608 65.119 222.995 C 65.368 223.382 65.500 223.833 65.500 224.293 Z" stroke="rgb(0,0,255)" stroke-width="0.20" />
  <path d="M 147.200 224.293 C 147.200 224.753 147.068 225.203 146.819 225.590 C 146.570 225.977 146.216 226.285 145.797 226.476 C 145.378 226.667 144.914 226.734 144.458 226.668 C 144.003 226.603 143.576 226.408 143.228 226.106 C 142.881 225.805 142.627 225.410 142.497 224.969 C 142.368 224.527 142.368 224.058 142.497 223.616 C 142.627 223.175 142.881 222.780 143.228 222.479 C 143.576 222.178 144.003 221.983 144.458 221.917 C 144.914 221.852 145.378 221.918 145.797 222.110 C 146.216 222.301 146.570 222.608 146.819 222.995 C 147.068 223.382 147.200 223.833 147.200 224.293 Z" stroke="rgb(0,0,255)" stroke-width="0.20" />
</g>
<g id="p-2" style="fill:none;stroke-linecap:round;stroke-linejoin:round;">
  <path d="M 80.200 134.593 C 80.200 127.180 77.853 119.958 73.496 113.961 C 69.140 107.965 62.996 103.501 55.946 101.211 C 48.897 98.920 41.303 98.920 34.254 101.211 C 27.204 103.501 21.060 107.965 16.704 113.961 C 12.347 119.958 10.000 127.180 10.000 134.593 C 10.000 142.005 12.347 149.227 16.704 155.224 C 21.060 161.221 27.204 165.684 34.254 167.975 C 41.303 170.265 48.897 170.265 55.946 167.975 C 62.996 165.684 69.140 161.221 73.496 155.224 C 77.853 149.227 80.200 142.005 80.200 134.593 Z" stroke="rgb(0,0,0)" stroke-width="0.20" />
  <text font-size="10.0px" style="font-family: sans-serif ; font-weight: normal; font-style: normal; fill: rgb(0,255,0)" text-anchor="middle" transform="matrix( 0.000 1.000 -1.000 0.000 64.500 134.593 )">0</text>
  <text font-size="10.0px" style="font-family: sans-serif ; font-weight: normal; font-style: normal; fill: rgb(0,255,0)" text-anchor="middle" transform="matrix( -0.588 0.809 -0.809 -0.588 60.795 145.996 )">1</text>
  <text font-size="10.0px" style="font-family: sans-serif ; font-weight: normal; font-style: normal; fill: rgb(0,255,0)" text-anchor="middle" transform="matrix( -0.951 0.309 -0.309 -0.951 51.095 153.043 )">2</text>
  <text font-size="10.0px" style="font-family: sans-serif ; font-weight: normal; font-style: normal; fill: rgb(0,255,0)" text-anchor="middle" transform="matrix( -0.951 -0.309 0.309 -0.951 39.105 153.043 )">3</text>
  <text font-size="10.0px" style="font-family: sans-serif ; font-weight: normal; font-style: normal; fill: rgb(0,255,0)" text-anchor="middle" transform="matrix( -0.588 -0.809 0.809 -0.588 29.405 145.996 )">4</text>
  <text font-size="10.0px" style="font-family: sans-serif ; font-weight: normal; font-style: normal; fill: rgb(0,255,0)" text-anchor="middle" transform="matrix( 0.000 -1.000 1.000 0.000 25.700 134.593 )">5</text>
  <text font-size="10.0px" style="font-family: sans-serif ; font-weight: normal; font-style: normal; fill: rgb(0,255,0)" text-anchor="middle" transform="matrix( 0.588 -0.809 0.809 0.588 29.405 123.190 )">6</text>
  <text font-size="10.0px" style="font-family: sans-serif ; font-weight: normal; font-style: normal; fill: rgb(0,255,0)" text-anchor="middle" transform="matrix( 0.951 -0.309 0.309 0.951 39.105 116.142 )">7</text>
  <text font-size="10.0px" style="font-family: sans-serif ; font-weight: normal; font-style: normal; fill: rgb(0,255,0)" text-anchor="middle" transform="matrix( 0.951 0.309 -0.309 0.951 51.095 116.142 )">8</text>
  <text font-size="10.0px" style="font-family: sans-serif ; font-weight: normal; font-style: normal; fill: rgb(0,255,0)" text-anchor="middle" transform="matrix( 0.588 0.809 -0.809 0.588 60.795 123.190 )">9</text>
</g>
<g id="p-3" style="fill:none;stroke-linecap:round;stroke-linejoin:round;">
  <path d="M 100.200 52.893 C 100.200 43.368 97.185 34.089 91.587 26.384 C 85.988 18.678 78.095 12.943 69.037 10.000 C 59.979 7.057 50.221 7.057 41.163 10.000 C 32.105 12.943 24.212 18.678 18.613 26.384 C 13.015 34.089 10.000 43.368 10.000 52.893 C 10.000 62.417 13.015 71.697 18.613 79.402 C 24.212 87.107 32.105 92.842 41.163 95.785 C 50.221 98.728 59.979 98.728 69.037 95.785 C 78.095 92.842 85.988 87.107 91.587 79.402 C 97.185 71.697 100.200 62.417 100.200 52.893 Z" stroke="rgb(0,0,0)" stroke-width="0.20" />
  <text font-size="10.0px" style="font-family: sans-serif ; font-weight: normal; font-style: normal; fill: rgb(0,255,0)" text-anchor="middle" transform="matrix( 0.000 1.000 -1.000 0.000 84.500 52.893 )">0</text>
  <text font-size="10.0px" style="font-family: sans-serif ; font-weight: normal; font-style: normal; fill: rgb(0,255,0)" text-anchor="middle" transform="matrix( -1.000 0.000 -0.000 -1.000 55.100 82.293 )">1</text>
  <text font-size="10.0px" style="font-family: sans-serif ; font-weight: normal; font-style: normal; fill: rgb(0,255,0)" text-anchor="middle" transform="matrix( 0.000 -1.000 1.000 0.000 25.700 52.893 )">2</text>
  <text font-size="10.0px" style="font-family: sans-serif ; font-weight: normal; font-style: normal; fill: rgb(0,255,0)" text-anchor="middle" transform="matrix( 1.000 0.000 0.000 1.000 55.100 23.493 )">3</text>
</g>
</svg>