<?xml version='1.0' encoding='utf-8'?>
<svg height="119.59mm" viewBox="0.0 0.0 201.90 119.59" width="201.90mm" xmlns="http://www.w3.org/2000/svg" xmlns:cc="http://creativecommons.org/ns#" xmlns:dc="http://purl.org/dc/elements/1.1/" xmlns:inkscape="http://www.inkscape.org/namespaces/inkscape" xmlns:rdf="http://www.w3.org/1999/02/22-rdf-syntax-ns#" xmlns:svg="http://www.w3.org/2000/svg" xmlns:xlink="http://www.w3.org/1999/xlink">
<!--
GameCounterRing - Ring-dial game point counter – three concentric pieces cut together



A three-piece circular point counter for board games.

All three pieces are laid out **concentrically** in the SVG so they can be
cut in a single laser pass with minimal material waste.

* **Piece A – Outer ring**: the moving frame. Score numbers are engraved
  around the *inner* face. The player spins this disc to select the score.
* **Piece B – Inner disc**: the fixed center. A pointer is engraved near
  the top edge to indicate the current score on the ring.
* **Piece C – Base disc**: a plain disc the same size as the outer ring.
  Piece B is glued to Piece C before assembly. A central magnet pocket can
  be cut in both Piece B and Piece C to hold a round magnet or wod stick for alignment.

**Assembly**
1. Glue Piece B (pointer disc) on top of Piece C (base disc). If
   ``magnet_diameter`` > 0, press a round magnet into the central pocket of
   each piece before gluing.
2. Drop Piece A (ring) on top of the glued B+C stack.
3. The ring spins freely.
4. Spin Piece A to count up / down; Piece B stays fixed.

**Pointer styles**

* ``triangle`` – outlined equilateral-ish triangle pointing toward the ring.
* ``circle``   – small engraved circle at the top of the disc.
* ``rectangle`` – outlined rectangle near the top of the disc.
* ``line``     – single radial line from the disc center to near the edge.



Created with Boxes.py (https://boxes.hackerspace-bamberg.de/)
Command line (remove spaces between dashes): boxes GameCounterRing
-->
<title>GameCounterRing</title>
<metadata>
<rdf:RDF><cc:Work>
<dc:title>GameAccessory - GameCounterRing</dc:title>
<dc:source>boxes GameCounterRing</dc:source>
<dc:description>Ring-dial game point counter – three concentric pieces cut together


A three-piece circular point counter for board games.

All three pieces are laid out **concentrically** in the SVG so they can be
cut in a single laser pass with minimal material waste.

* **Piece A – Outer ring**: the moving frame. Score numbers are engraved
  around the *inner* face. The player spins this disc to select the score.
* **Piece B – Inner disc**: the fixed center. A pointer is engraved near
  the top edge to indicate the current score on the ring.
* **Piece C – Base disc**: a plain disc the same size as the outer ring.
  Piece B is glued to Piece C before assembly. A central magnet pocket can
  be cut in both Piece B and Piece C to hold a round magnet or wod stick for alignment.

**Assembly**
1. Glue Piece B (pointer disc) on top of Piece C (base disc). If
   ``magnet_diameter`` &gt; 0, press a round magnet into the central pocket of
   each piece before gluing.
2. Drop Piece A (ring) on top of the glued B+C stack.
3. The ring spins freely.
4. Spin Piece A to count up / down; Piece B stays fixed.

**Pointer styles**

* ``triangle`` – outlined equilateral-ish triangle pointing toward the ring.
* ``circle``   – small engraved circle at the top of the disc.
* ``rectangle`` – outlined rectangle near the top of the disc.
* ``line``     – single radial line from the disc center to near the edge.


Created with Boxes.py (https://boxes.hackerspace-bamberg.de/)
Command line: boxes GameCounterRing
Command line short: boxes GameCounterRing
</dc:description>
</cc:Work></rdf:RDF></metadata>
<g id="p-0" style="fill:none;stroke-linecap:round;stroke-linejoin:round;">
  <path d="M 10.100 109.593 H 110.100 V 99.593 H 10.100 V 109.593 Z" stroke="rgb(0,0,0)" stroke-width="0.20" />
  <text dominant-baseline="hanging" font-size="6px" style="font-family: sans-serif ; font-weight: normal; font-style: normal; fill: rgb(255,0,0)" text-anchor="middle" transform="matrix( 1.000 0.000 0.000 1.000 60.100 101.593 )">100.0mm, burn:0.10mm</text>
</g>
<g id="p-1" style="fill:none;stroke-linecap:round;stroke-linejoin:round;">
  <path d="M 100.200 52.893 C 100.200 43.368 97.185 34.089 91.587 26.384 C 85.988 18.678 78.095 12.943 69.037 10.000 C 59.979 7.057 50.221 7.057 41.163 10.000 C 32.105 12.943 24.212 18.678 18.613 26.384 C 13.015 34.089 10.000 43.368 10.000 52.893 C 10.000 62.417 13.015 71.697 18.613 79.402 C 24.212 87.107 32.105 92.842 41.163 95.785 C 50.221 98.728 59.979 98.728 69.037 95.785 C 78.095 92.842 85.988 87.107 91.587 79.402 C 97.185 71.697 100.200 62.417 100.200 52.893 Z" stroke="rgb(0,0,0)" stroke-width="0.20" />
  <path d="M 86.700 52.893 C 86.700 58.951 84.959 64.881 81.684 69.977 C 78.408 75.073 73.738 79.120 68.227 81.637 C 62.717 84.154 56.599 85.033 50.603 84.171 C 44.607 83.309 38.985 80.741 34.406 76.774 C 29.828 72.807 26.487 67.608 24.780 61.795 C 23.073 55.983 23.073 49.802 24.780 43.990 C 26.487 38.177 29.828 32.978 34.406 29.011 C 38.985 25.044 44.607 22.476 50.603 21.614 C 56.599 20.752 62.717 21.632 68.227 24.148 C 73.738 26.665 78.408 30.712 81.684 35.808 C 84.959 40.905 86.700 46.835 86.700 52.893 Z" stroke="rgb(0,0,255)" stroke-width="0.20" />
  <text dominant-baseline="hanging" font-size="10.0px" style="font-family: sans-serif ; font-weight: normal; font-style: normal; fill: rgb(0,255,0)" text-anchor="middle" transform="matrix( 0.000 1.000 -1.000 0.000 95.450 52.893 )">0</text>
  <text dominant-baseline="hanging" font-size="10.0px" style="font-family: sans-serif ; font-weight: normal; font-style: normal; fill: rgb(0,255,0)" text-anchor="middle" transform="matrix( -0.588 0.809 -0.809 -0.588 87.744 76.610 )">1</text>
  <text dominant-baseline="hanging" font-size="10.0px" style="font-family: sans-serif ; font-weight: normal; font-style: normal; fill: rgb(0,255,0)" text-anchor="middle" transform="matrix( -0.951 0.309 -0.309 -0.951 67.569 91.268 )">2</text>
  <text dominant-baseline="hanging" font-size="10.0px" style="font-family: sans-serif ; font-weight: normal; font-style: normal; fill: rgb(0,255,0)" text-anchor="middle" transform="matrix( -0.951 -0.309 0.309 -0.951 42.631 91.268 )">3</text>
  <text dominant-baseline="hanging" font-size="10.0px" style="font-family: sans-serif ; font-weight: normal; font-style: normal; fill: rgb(0,255,0)" text-anchor="middle" transform="matrix( -0.588 -0.809 0.809 -0.588 22.456 76.610 )">4</text>
  <text dominant-baseline="hanging" font-size="10.0px" style="font-family: sans-serif ; font-weight: normal; font-style: normal; fill: rgb(0,255,0)" text-anchor="middle" transform="matrix( 0.000 -1.000 1.000 0.000 14.750 52.893 )">5</text>
  <text dominant-baseline="hanging" font-size="10.0px" style="font-family: sans-serif ; font-weight: normal; font-style: normal; fill: rgb(0,255,0)" text-anchor="middle" transform="matrix( 0.588 -0.809 0.809 0.588 22.456 29.176 )">6</text>
  <text dominant-baseline="hanging" font-size="10.0px" style="font-family: sans-serif ; font-weight: normal; font-style: normal; fill: rgb(0,255,0)" text-anchor="middle" transform="matrix( 0.951 -0.309 0.309 0.951 42.631 14.518 )">7</text>
  <text dominant-baseline="hanging" font-size="10.0px" style="font-family: sans-serif ; font-weight: normal; font-style: normal; fill: rgb(0,255,0)" text-anchor="middle" transform="matrix( 0.951 0.309 -0.309 0.951 67.569 14.518 )">8</text>
  <text dominant-baseline="hanging" font-size="10.0px" style="font-family: sans-serif ; font-weight: normal; font-style: normal; fill: rgb(0,255,0)" text-anchor="middle" transform="matrix( 0.588 0.809 -0.809 0.588 87.744 29.176 )">9</text>
  <path d="M 86.800 52.893 C 86.800 46.198 84.681 39.676 80.746 34.260 C 76.811 28.844 71.263 24.813 64.896 22.744 C 58.529 20.675 51.671 20.675 45.304 22.744 C 38.937 24.813 33.389 28.844 29.454 34.260 C 25.519 39.676 23.400 46.198 23.400 52.893 C 23.400 59.587 25.519 66.110 29.454 71.525 C 33.389 76.941 38.937 80.972 45.304 83.041 C 51.671 85.110 58.529 85.110 64.896 83.041 C 71.263 80.972 76.811 76.941 80.746 71.525 C 84.681 66.110 86.800 59.587 86.800 52.893 Z" stroke="rgb(0,0,0)" stroke-width="0.20" />
  <path d="M 56.500 52.893 C 56.500 53.161 56.423 53.424 56.278 53.650 C 56.133 53.875 55.926 54.055 55.682 54.166 C 55.437 54.278 55.166 54.317 54.901 54.278 C 54.635 54.240 54.386 54.126 54.183 53.951 C 53.980 53.775 53.832 53.545 53.757 53.287 C 53.681 53.030 53.681 52.756 53.757 52.498 C 53.832 52.241 53.980 52.010 54.183 51.835 C 54.386 51.659 54.635 51.545 54.901 51.507 C 55.166 51.469 55.437 51.508 55.682 51.619 C 55.926 51.731 56.133 51.910 56.278 52.136 C 56.423 52.362 56.500 52.624 56.500 52.893 Z" stroke="rgb(0,0,255)" stroke-width="0.20" />
  <path d="M 55.100 23.093 L 58.100 29.093 H 52.100 L 55.100 23.093 Z" stroke="rgb(0,255,0)" stroke-width="0.20" />
  <path d="M 191.900 52.893 C 191.900 43.368 188.885 34.089 183.287 26.384 C 177.688 18.678 169.795 12.943 160.737 10.000 C 151.679 7.057 141.921 7.057 132.863 10.000 C 123.805 12.943 115.912 18.678 110.313 26.384 C 104.715 34.089 101.700 43.368 101.700 52.893 C 101.700 62.417 104.715 71.697 110.313 79.402 C 115.912 87.107 123.805 92.842 132.863 95.785 C 141.921 98.728 151.679 98.728 160.737 95.785 C 169.795 92.842 177.688 87.107 183.287 79.402 C 188.885 71.697 191.900 62.417 191.900 52.893 Z" stroke="rgb(0,0,0)" stroke-width="0.20" />
  <path d="M 148.200 52.893 C 148.200 53.161 148.123 53.424 147.978 53.650 C 147.833 53.875 147.626 54.055 147.382 54.166 C 147.137 54.278 146.866 54.317 146.601 54.278 C 146.335 54.240 146.086 54.126 145.883 53.951 C 145.680 53.775 145.532 53.545 145.457 53.287 C 145.381 53.030 145.381 52.756 145.457 52.498 C 145.532 52.241 145.680 52.010 145.883 51.835 C 146.086 51.659 146.335 51.545 146.601 51.507 C 146.866 51.469 147.137 51.508 147.382 51.619 C 147.626 51.731 147.833 51.910 147.978 52.136 C 148.123 52.362 148.200 52.624 148.200 52.893 Z" stroke="rgb(0,0,255)" stroke-width="0.20" />
</g>
</svg>