<?xml version='1.0' encoding='utf-8'?>
<svg height="228.40mm" viewBox="0.0 0.0 197.80 228.40" width="197.80mm" xmlns="http://www.w3.org/2000/svg" xmlns:cc="http://creativecommons.org/ns#" xmlns:dc="http://purl.org/dc/elements/1.1/" xmlns:inkscape="http://www.inkscape.org/namespaces/inkscape" xmlns:rdf="http://www.w3.org/1999/02/22-rdf-syntax-ns#" xmlns:svg="http://www.w3.org/2000/svg" xmlns:xlink="http://www.w3.org/1999/xlink">
<!--
GameCounterDual - Dual-wheel board game score counter – one board, two independent spinning rings



A board game score counter with **two independent spinning score wheels** on a
single base board.

Each wheel works exactly like the ring counter (``GameCounterRing``):
a spinning outer ring shows the score; a fixed inner disc carries the pointer.
Both wheels share a common font but have fully independent score ranges,
diameters, and optional gear-tooth (crenel) rims.

**Cut pieces**

* **Board** – rectangular base with two magnet pockets (one per wheel).
* **Ring 1 / Ring 2** – the spinning outer ring of each wheel.

**Assembly**

1. Press a magnet into each pocket on the board.
2. Drop each ring over its magnet pocket; the magnet holds it in place while
   still allowing it to spin freely.
3. Spin the rings to track scores independently.



Created with Boxes.py (https://boxes.hackerspace-bamberg.de/)
Command line (remove spaces between dashes): boxes GameCounterDual
-->
<title>GameCounterDual</title>
<metadata>
<rdf:RDF><cc:Work>
<dc:title>GameAccessory - GameCounterDual</dc:title>
<dc:source>boxes GameCounterDual</dc:source>
<dc:description>Dual-wheel board game score counter – one board, two independent spinning rings


A board game score counter with **two independent spinning score wheels** on a
single base board.

Each wheel works exactly like the ring counter (``GameCounterRing``):
a spinning outer ring shows the score; a fixed inner disc carries the pointer.
Both wheels share a common font but have fully independent score ranges,
diameters, and optional gear-tooth (crenel) rims.

**Cut pieces**

* **Board** – rectangular base with two magnet pockets (one per wheel).
* **Ring 1 / Ring 2** – the spinning outer ring of each wheel.

**Assembly**

1. Press a magnet into each pocket on the board.
2. Drop each ring over its magnet pocket; the magnet holds it in place while
   still allowing it to spin freely.
3. Spin the rings to track scores independently.


Created with Boxes.py (https://boxes.hackerspace-bamberg.de/)
Command line: boxes GameCounterDual
Command line short: boxes GameCounterDual
</dc:description>
</cc:Work></rdf:RDF></metadata>
<g id="p-0" style="fill:none;stroke-linecap:round;stroke-linejoin:round;">
  <path d="M 10.100 218.400 H 110.100 V 208.400 H 10.100 V 218.400 Z" stroke="rgb(0,0,0)" stroke-width="0.20" />
  <text font-size="6px" style="font-family: sans-serif ; font-weight: normal; font-style: normal; fill: rgb(255,0,0)" text-anchor="middle" transform="matrix( 1.000 0.000 0.000 1.000 60.100 215.560 )">100.0mm, burn:0.10mm</text>
</g>
<g id="p-1" style="fill:none;stroke-linecap:round;stroke-linejoin:round;">
  <path d="M 10.100 206.700 H 187.800 V 100.700 H 10.100 V 206.700 Z" stroke="rgb(0,0,0)" stroke-width="0.20" />
  <path d="M 65.500 153.700 C 65.500 154.160 65.368 154.610 65.119 154.998 C 64.870 155.385 64.516 155.692 64.097 155.883 C 63.678 156.074 63.214 156.141 62.758 156.076 C 62.303 156.010 61.876 155.815 61.528 155.514 C 61.181 155.213 60.927 154.818 60.797 154.376 C 60.668 153.935 60.668 153.465 60.797 153.024 C 60.927 152.582 61.181 152.187 61.528 151.886 C 61.876 151.585 62.303 151.390 62.758 151.324 C 63.214 151.259 63.678 151.326 64.097 151.517 C 64.516 151.708 64.870 152.015 65.119 152.402 C 65.368 152.790 65.500 153.240 65.500 153.700 Z" stroke="rgb(0,0,255)" stroke-width="0.20" />
  <path d="M 147.200 153.700 C 147.200 154.160 147.068 154.610 146.819 154.998 C 146.570 155.385 146.216 155.692 145.797 155.883 C 145.378 156.074 144.914 156.141 144.458 156.076 C 144.003 156.010 143.576 155.815 143.228 155.514 C 142.881 155.213 142.627 154.818 142.497 154.376 C 142.368 153.935 142.368 153.465 142.497 153.024 C 142.627 152.582 142.881 152.187 143.228 151.886 C 143.576 151.585 144.003 151.390 144.458 151.324 C 144.914 151.259 145.378 151.326 145.797 151.517 C 146.216 151.708 146.570 152.015 146.819 152.402 C 147.068 152.790 147.200 153.240 147.200 153.700 Z" stroke="rgb(0,0,255)" stroke-width="0.20" />
</g>
<g id="p-2" style="fill:none;stroke-linecap:round;stroke-linejoin:round;">
  <path d="M 100.200 54.000 C 100.200 44.476 97.185 35.196 91.587 27.491 C 85.988 19.786 78.095 14.050 69.037 11.107 C 59.979 8.164 50.221 8.164 41.163 11.107 C 32.105 14.050 24.212 19.786 18.613 27.491 C 13.015 35.196 10.000 44.476 10.000 54.000 C 10.000 63.524 13.015 72.804 18.613 80.509 C 24.212 88.214 32.105 93.950 41.163 96.893 C 50.221 99.836 59.979 99.836 69.037 96.893 C 78.095 93.950 85.988 88.214 91.587 80.509 C 97.185 72.804 100.200 63.524 100.200 54.000 Z" stroke="rgb(0,0,0)" stroke-width="0.20" />
  <path d="M 57.500 54.000 C 57.500 54.460 57.368 54.910 57.119 55.298 C 56.870 55.685 56.516 55.992 56.097 56.183 C 55.678 56.374 55.214 56.441 54.758 56.376 C 54.303 56.310 53.876 56.115 53.528 55.814 C 53.181 55.513 52.927 55.118 52.797 54.676 C 52.668 54.235 52.668 53.765 52.797 53.324 C 52.927 52.882 53.181 52.487 53.528 52.186 C 53.876 51.885 54.303 51.690 54.758 51.624 C 55.214 51.559 55.678 51.626 56.097 51.817 C 56.516 52.008 56.870 52.315 57.119 52.702 C 57.368 53.090 57.500 53.540 57.500 54.000 Z" stroke="rgb(0,0,255)" stroke-width="0.20" />
  <text font-size="10.0px" style="font-family: sans-serif ; font-weight: normal; font-style: normal; fill: rgb(0,255,0)" text-anchor="middle" transform="matrix( 0.000 1.000 -1.000 0.000 90.500 54.000 )">0</text>
  <text font-size="10.0px" style="font-family: sans-serif ; font-weight: normal; font-style: normal; fill: rgb(0,255,0)" text-anchor="middle" transform="matrix( -1.000 0.000 -0.000 -1.000 55.100 89.400 )">1</text>
  <text font-size="10.0px" style="font-family: sans-serif ; font-weight: normal; font-style: normal; fill: rgb(0,255,0)" text-anchor="middle" transform="matrix( 0.000 -1.000 1.000 0.000 19.700 54.000 )">2</text>
  <text font-size="10.0px" style="font-family: sans-serif ; font-weight: normal; font-style: normal; fill: rgb(0,255,0)" text-anchor="middle" transform="matrix( 1.000 0.000 0.000 1.000 55.100 18.600 )">3</text>
  <path d="M 171.900 54.000 C 171.900 46.588 169.553 39.365 165.196 33.369 C 160.840 27.372 154.696 22.908 147.646 20.618 C 140.597 18.327 133.003 18.327 125.954 20.618 C 118.904 22.908 112.760 27.372 108.404 33.369 C 104.047 39.365 101.700 46.588 101.700 54.000 C 101.700 61.412 104.047 68.635 108.404 74.631 C 112.760 80.628 118.904 85.092 125.954 87.382 C 133.003 89.673 140.597 89.673 147.646 87.382 C 154.696 85.092 160.840 80.628 165.196 74.631 C 169.553 68.635 171.900 61.412 171.900 54.000 Z" stroke="rgb(0,0,0)" stroke-width="0.20" />
  <path d="M 139.200 54.000 C 139.200 54.460 139.068 54.910 138.819 55.298 C 138.570 55.685 138.216 55.992 137.797 56.183 C 137.378 56.374 136.914 56.441 136.458 56.376 C 136.003 56.310 135.576 56.115 135.228 55.814 C 134.881 55.513 134.627 55.118 134.497 54.676 C 134.368 54.235 134.368 53.765 134.497 53.324 C 134.627 52.882 134.881 52.487 135.228 52.186 C 135.576 51.885 136.003 51.690 136.458 51.624 C 136.914 51.559 137.378 51.626 137.797 51.817 C 138.216 52.008 138.570 52.315 138.819 52.702 C 139.068 53.090 139.200 53.540 139.200 54.000 Z" stroke="rgb(0,0,255)" stroke-width="0.20" />
  <text font-size="10.0px" style="font-family: sans-serif ; font-weight: normal; font-style: normal; fill: rgb(0,255,0)" text-anchor="middle" transform="matrix( 0.000 1.000 -1.000 0.000 162.200 54.000 )">0</text>
  <text font-size="10.0px" style="font-family: sans-serif ; font-weight: normal; font-style: normal; fill: rgb(0,255,0)" text-anchor="middle" transform="matrix( -0.588 0.809 -0.809 -0.588 157.349 68.930 )">1</text>
  <text font-size="10.0px" style="font-family: sans-serif ; font-weight: normal; font-style: normal; fill: rgb(0,255,0)" text-anchor="middle" transform="matrix( -0.951 0.309 -0.309 -0.951 144.649 78.157 )">2</text>
  <text font-size="10.0px" style="font-family: sans-serif ; font-weight: normal; font-style: normal; fill: rgb(0,255,0)" text-anchor="middle" transform="matrix( -0.951 -0.309 0.309 -0.951 128.951 78.157 )">3</text>
  <text font-size="10.0px" style="font-family: sans-serif ; font-weight: normal; font-style: normal; fill: rgb(0,255,0)" text-anchor="middle" transform="matrix( -0.588 -0.809 0.809 -0.588 116.251 68.930 )">4</text>
  <text font-size="10.0px" style="font-family: sans-serif ; font-weight: normal; font-style: normal; fill: rgb(0,255,0)" text-anchor="middle" transform="matrix( 0.000 -1.000 1.000 0.000 111.400 54.000 )">5</text>
  <text font-size="10.0px" style="font-family: sans-serif ; font-weight: normal; font-style: normal; fill: rgb(0,255,0)" text-anchor="middle" transform="matrix( 0.588 -0.809 0.809 0.588 116.251 39.070 )">6</text>
  <text font-size="10.0px" style="font-family: sans-serif ; font-weight: normal; font-style: normal; fill: rgb(0,255,0)" text-anchor="middle" transform="matrix( 0.951 -0.309 0.309 0.951 128.951 29.843 )">7</text>
  <text font-size="10.0px" style="font-family: sans-serif ; font-weight: normal; font-style: normal; fill: rgb(0,255,0)" text-anchor="middle" transform="matrix( 0.951 0.309 -0.309 0.951 144.649 29.843 )">8</text>
  <text font-size="10.0px" style="font-family: sans-serif ; font-weight: normal; font-style: normal; fill: rgb(0,255,0)" text-anchor="middle" transform="matrix( 0.588 0.809 -0.809 0.588 157.349 39.070 )">9</text>
</g>
</svg>