<?xml version='1.0' encoding='utf-8'?>
<svg height="217.65mm" viewBox="0.0 0.0 188.00 217.65" width="188.00mm" xmlns="http://www.w3.org/2000/svg" xmlns:cc="http://creativecommons.org/ns#" xmlns:dc="http://purl.org/dc/elements/1.1/" xmlns:inkscape="http://www.inkscape.org/namespaces/inkscape" xmlns:rdf="http://www.w3.org/1999/02/22-rdf-syntax-ns#" xmlns:svg="http://www.w3.org/2000/svg" xmlns:xlink="http://www.w3.org/1999/xlink">
<!--
Gears - Gears

Created with Boxes.py (https://festi.info/boxes.py)
Command line (remove spaces between dashes): boxes Gears
-->
<title>Gears</title>
<metadata>
<rdf:RDF><cc:Work>
<dc:title>Part - Gears</dc:title>
<dc:source>boxes Gears</dc:source>
<dc:description>Gears

Created with Boxes.py (https://festi.info/boxes.py)
Command line: boxes Gears
Command line short: boxes Gears
</dc:description>
</cc:Work></rdf:RDF></metadata>
<g id="p-0" style="fill:none;stroke-linecap:round;stroke-linejoin:round;">
  <path d="M 10.850 207.650 H 110.850 V 197.650 H 10.850 V 207.650 Z" stroke="rgb(0,0,0)" stroke-width="0.20" />
  <text dominant-baseline="hanging" font-size="6px" style="font-family: sans-serif ; font-weight: normal; font-style: normal; fill: rgb(255,0,0)" text-anchor="middle" transform="matrix( 1.000 0.000 0.000 1.000 60.850 199.650 )">100.0mm, burn:0.10mm</text>
</g>
<g id="p-1" style="fill:none;stroke-linecap:round;stroke-linejoin:round;">
  <path d="M 45.900 164.861 C 45.395 165.153 44.814 165.285 44.233 165.242 C 43.652 165.198 43.098 164.981 42.642 164.617 C 42.186 164.254 41.851 163.762 41.679 163.205 C 41.507 162.648 41.507 162.052 41.679 161.495 C 41.851 160.938 42.186 160.446 42.642 160.083 C 43.098 159.719 43.652 159.502 44.233 159.458 C 44.814 159.415 45.395 159.547 45.900 159.839 C 45.869 159.821 45.850 159.788 45.850 159.752 V 164.948" stroke="rgb(0,0,255)" stroke-width="0.20" />
  <path d="M 74.459 164.373 L 75.184 164.314 L 75.909 164.165 L 76.634 163.954 L 77.357 163.691 L 78.136 163.354 L 78.150 162.350 L 78.136 161.346 L 77.357 161.009 L 76.634 160.746 L 75.909 160.535 L 75.184 160.386 L 74.459 160.327 L 74.081 160.351 L 74.007 159.439 L 73.902 158.530 L 74.278 158.480 L 74.976 158.281 L 75.659 157.993 L 76.328 157.645 L 76.987 157.245 L 77.685 156.763 L 77.502 155.775 L 77.293 154.793 L 76.463 154.615 L 75.702 154.498 L 74.951 154.432 L 74.210 154.428 L 73.488 154.511 L 73.122 154.609 L 72.871 153.729 L 72.591 152.857 L 72.949 152.735 L 73.596 152.403 L 74.209 151.988 L 74.798 151.516 L 75.365 150.995 L 75.956 150.387 L 75.585 149.454 L 75.187 148.531 L 74.339 148.518 L 73.570 148.552 L 72.820 148.634 L 72.093 148.774 L 71.401 148.997 L 71.061 149.164 L 70.643 148.350 L 70.198 147.550 L 70.526 147.360 L 71.095 146.908 L 71.616 146.381 L 72.101 145.804 L 72.556 145.182 L 73.017 144.470 L 72.471 143.627 L 71.901 142.800 L 71.067 142.953 L 70.319 143.136 L 69.599 143.363 L 68.913 143.642 L 68.278 143.995 L 67.977 144.226 L 67.408 143.509 L 66.816 142.811 L 67.101 142.561 L 67.571 142.007 L 67.979 141.388 L 68.342 140.727 L 68.667 140.029 L 68.980 139.241 L 68.280 138.520 L 67.559 137.820 L 66.771 138.133 L 66.073 138.458 L 65.412 138.821 L 64.793 139.229 L 64.239 139.699 L 63.989 139.984 L 63.291 139.392 L 62.574 138.823 L 62.805 138.522 L 63.158 137.887 L 63.437 137.201 L 63.664 136.481 L 63.847 135.733 L 64.000 134.899 L 63.173 134.329 L 62.330 133.783 L 61.618 134.244 L 60.996 134.699 L 60.419 135.184 L 59.892 135.705 L 59.440 136.274 L 59.250 136.602 L 58.450 136.157 L 57.636 135.739 L 57.803 135.399 L 58.026 134.707 L 58.166 133.980 L 58.248 133.230 L 58.282 132.461 L 58.269 131.613 L 57.346 131.215 L 56.413 130.844 L 55.805 131.435 L 55.284 132.002 L 54.812 132.591 L 54.397 133.204 L 54.065 133.851 L 53.943 134.209 L 53.071 133.929 L 52.191 133.678 L 52.289 133.312 L 52.372 132.590 L 52.368 131.849 L 52.302 131.098 L 52.185 130.337 L 52.007 129.507 L 51.025 129.298 L 50.037 129.115 L 49.555 129.813 L 49.155 130.472 L 48.807 131.141 L 48.519 131.824 L 48.320 132.522 L 48.270 132.898 L 47.361 132.793 L 46.449 132.719 L 46.473 132.341 L 46.414 131.616 L 46.265 130.891 L 46.054 130.166 L 45.791 129.443 L 45.454 128.664 L 44.450 128.650 L 43.446 128.664 L 43.109 129.443 L 42.846 130.166 L 42.635 130.891 L 42.486 131.616 L 42.427 132.341 L 42.451 132.719 L 41.539 132.793 L 40.630 132.898 L 40.580 132.522 L 40.381 131.824 L 40.093 131.141 L 39.745 130.472 L 39.345 129.813 L 38.863 129.115 L 37.875 129.298 L 36.893 129.507 L 36.715 130.337 L 36.598 131.098 L 36.532 131.849 L 36.528 132.590 L 36.611 133.312 L 36.709 133.678 L 35.829 133.929 L 34.957 134.209 L 34.835 133.851 L 34.503 133.204 L 34.088 132.591 L 33.616 132.002 L 33.095 131.435 L 32.487 130.844 L 31.554 131.215 L 30.631 131.613 L 30.618 132.461 L 30.652 133.230 L 30.734 133.980 L 30.874 134.707 L 31.097 135.399 L 31.264 135.739 L 30.450 136.157 L 29.650 136.602 L 29.460 136.274 L 29.008 135.705 L 28.481 135.184 L 27.904 134.699 L 27.282 134.244 L 26.570 133.783 L 25.727 134.329 L 24.900 134.899 L 25.053 135.733 L 25.236 136.481 L 25.463 137.201 L 25.742 137.887 L 26.095 138.522 L 26.326 138.823 L 25.609 139.392 L 24.911 139.984 L 24.661 139.699 L 24.107 139.229 L 23.488 138.821 L 22.827 138.458 L 22.129 138.133 L 21.341 137.820 L 20.620 138.520 L 19.920 139.241 L 20.233 140.029 L 20.558 140.727 L 20.921 141.388 L 21.329 142.007 L 21.799 142.561 L 22.084 142.811 L 21.492 143.509 L 20.923 144.226 L 20.622 143.995 L 19.987 143.642 L 19.301 143.363 L 18.581 143.136 L 17.833 142.953 L 16.999 142.800 L 16.429 143.627 L 15.883 144.470 L 16.344 145.182 L 16.799 145.804 L 17.284 146.381 L 17.805 146.908 L 18.374 147.360 L 18.702 147.550 L 18.257 148.350 L 17.839 149.164 L 17.499 148.997 L 16.807 148.774 L 16.080 148.634 L 15.330 148.552 L 14.561 148.518 L 13.713 148.531 L 13.315 149.454 L 12.944 150.387 L 13.535 150.995 L 14.102 151.516 L 14.691 151.988 L 15.304 152.403 L 15.951 152.735 L 16.309 152.857 L 16.029 153.729 L 15.778 154.609 L 15.412 154.511 L 14.690 154.428 L 13.949 154.432 L 13.198 154.498 L 12.437 154.615 L 11.607 154.793 L 11.398 155.775 L 11.215 156.763 L 11.913 157.245 L 12.572 157.645 L 13.241 157.993 L 13.924 158.281 L 14.622 158.480 L 14.998 158.530 L 14.893 159.439 L 14.819 160.351 L 14.441 160.327 L 13.716 160.386 L 12.991 160.535 L 12.266 160.746 L 11.543 161.009 L 10.764 161.346 L 10.750 162.350 L 10.764 163.354 L 11.543 163.691 L 12.266 163.954 L 12.991 164.165 L 13.716 164.314 L 14.441 164.373 L 14.819 164.349 L 14.893 165.261 L 14.998 166.170 L 14.622 166.220 L 13.924 166.419 L 13.241 166.707 L 12.572 167.055 L 11.913 167.455 L 11.215 167.937 L 11.398 168.925 L 11.607 169.907 L 12.437 170.085 L 13.198 170.202 L 13.949 170.268 L 14.690 170.272 L 15.412 170.189 L 15.778 170.091 L 16.029 170.971 L 16.309 171.843 L 15.951 171.965 L 15.304 172.297 L 14.691 172.712 L 14.102 173.184 L 13.535 173.705 L 12.944 174.313 L 13.315 175.246 L 13.713 176.169 L 14.561 176.182 L 15.330 176.148 L 16.080 176.066 L 16.807 175.926 L 17.499 175.703 L 17.839 175.536 L 18.257 176.350 L 18.702 177.150 L 18.374 177.340 L 17.805 177.792 L 17.284 178.319 L 16.799 178.896 L 16.344 179.518 L 15.883 180.230 L 16.429 181.073 L 16.999 181.900 L 17.833 181.747 L 18.581 181.564 L 19.301 181.337 L 19.987 181.058 L 20.622 180.705 L 20.923 180.474 L 21.492 181.191 L 22.084 181.889 L 21.799 182.139 L 21.329 182.693 L 20.921 183.312 L 20.558 183.973 L 20.233 184.671 L 19.920 185.459 L 20.620 186.180 L 21.341 186.880 L 22.129 186.567 L 22.827 186.242 L 23.488 185.879 L 24.107 185.471 L 24.661 185.001 L 24.911 184.716 L 25.609 185.308 L 26.326 185.877 L 26.095 186.178 L 25.742 186.813 L 25.463 187.499 L 25.236 188.219 L 25.053 188.967 L 24.900 189.801 L 25.727 190.371 L 26.570 190.917 L 27.282 190.456 L 27.904 190.001 L 28.481 189.516 L 29.008 188.995 L 29.460 188.426 L 29.650 188.098 L 30.450 188.543 L 31.264 188.961 L 31.097 189.301 L 30.874 189.993 L 30.734 190.720 L 30.652 191.470 L 30.618 192.239 L 30.631 193.087 L 31.554 193.485 L 32.487 193.856 L 33.095 193.265 L 33.616 192.698 L 34.088 192.109 L 34.503 191.496 L 34.835 190.849 L 34.957 190.491 L 35.829 190.771 L 36.709 191.022 L 36.611 191.388 L 36.528 192.110 L 36.532 192.851 L 36.598 193.602 L 36.715 194.363 L 36.893 195.193 L 37.875 195.402 L 38.863 195.585 L 39.345 194.887 L 39.745 194.228 L 40.093 193.559 L 40.381 192.876 L 40.580 192.178 L 40.630 191.802 L 41.539 191.907 L 42.451 191.981 L 42.427 192.359 L 42.486 193.084 L 42.635 193.809 L 42.846 194.534 L 43.109 195.257 L 43.446 196.036 L 44.450 196.050 L 45.454 196.036 L 45.791 195.257 L 46.054 194.534 L 46.265 193.809 L 46.414 193.084 L 46.473 192.359 L 46.449 191.981 L 47.361 191.907 L 48.270 191.802 L 48.320 192.178 L 48.519 192.876 L 48.807 193.559 L 49.155 194.228 L 49.555 194.887 L 50.037 195.585 L 51.025 195.402 L 52.007 195.193 L 52.185 194.363 L 52.302 193.602 L 52.368 192.851 L 52.372 192.110 L 52.289 191.388 L 52.191 191.022 L 53.071 190.771 L 53.943 190.491 L 54.065 190.849 L 54.397 191.496 L 54.812 192.109 L 55.284 192.698 L 55.805 193.265 L 56.413 193.856 L 57.346 193.485 L 58.269 193.087 L 58.282 192.239 L 58.248 191.470 L 58.166 190.720 L 58.026 189.993 L 57.803 189.301 L 57.636 188.961 L 58.450 188.543 L 59.250 188.098 L 59.440 188.426 L 59.892 188.995 L 60.419 189.516 L 60.996 190.001 L 61.618 190.456 L 62.330 190.917 L 63.173 190.371 L 64.000 189.801 L 63.847 188.967 L 63.664 188.219 L 63.437 187.499 L 63.158 186.813 L 62.805 186.178 L 62.574 185.877 L 63.291 185.308 L 63.989 184.716 L 64.239 185.001 L 64.793 185.471 L 65.412 185.879 L 66.073 186.242 L 66.771 186.567 L 67.559 186.880 L 68.280 186.180 L 68.980 185.459 L 68.667 184.671 L 68.342 183.973 L 67.979 183.312 L 67.571 182.693 L 67.101 182.139 L 66.816 181.889 L 67.408 181.191 L 67.977 180.474 L 68.278 180.705 L 68.913 181.058 L 69.599 181.337 L 70.319 181.564 L 71.067 181.747 L 71.901 181.900 L 72.471 181.073 L 73.017 180.230 L 72.556 179.518 L 72.101 178.896 L 71.616 178.319 L 71.095 177.792 L 70.526 177.340 L 70.198 177.150 L 70.643 176.350 L 71.061 175.536 L 71.401 175.703 L 72.093 175.926 L 72.820 176.066 L 73.570 176.148 L 74.339 176.182 L 75.187 176.169 L 75.585 175.246 L 75.956 174.313 L 75.365 173.705 L 74.798 173.184 L 74.209 172.712 L 73.596 172.297 L 72.949 171.965 L 72.591 171.843 L 72.871 170.971 L 73.122 170.091 L 73.488 170.189 L 74.210 170.272 L 74.951 170.268 L 75.702 170.202 L 76.463 170.085 L 77.293 169.907 L 77.502 168.925 L 77.685 167.937 L 76.987 167.455 L 76.328 167.055 L 75.659 166.707 L 74.976 166.419 L 74.278 166.220 L 73.902 166.170 L 74.007 165.261 L 74.081 164.349 L 74.459 164.373 Z M 52.783 159.850 H 68.923 C 68.982 159.850 69.028 159.799 69.022 159.740 C 68.625 155.850 67.310 152.110 65.185 148.828 C 63.060 145.545 60.186 142.814 56.800 140.859 C 53.414 138.904 49.612 137.781 45.707 137.582 C 41.802 137.383 37.905 138.114 34.338 139.715 C 34.284 139.739 34.263 139.805 34.292 139.856 L 42.362 153.833 C 42.384 153.872 42.429 153.891 42.472 153.881 C 43.885 153.547 45.359 153.576 46.758 153.965 C 48.157 154.355 49.434 155.093 50.471 156.109 C 51.507 157.126 52.270 158.388 52.687 159.779 C 52.704 159.835 52.767 159.865 52.821 159.842 M 38.118 156.383 L 30.049 142.406 C 30.019 142.355 29.952 142.340 29.903 142.375 C 26.733 144.664 24.152 147.673 22.372 151.154 C 20.592 154.636 19.663 158.490 19.663 162.400 C 19.663 166.310 20.592 170.164 22.372 173.646 C 24.152 177.127 26.733 180.136 29.903 182.425 C 29.952 182.460 30.019 182.445 30.049 182.394 L 38.118 168.417 C 38.140 168.378 38.135 168.330 38.105 168.298 C 37.109 167.241 36.397 165.950 36.035 164.544 C 35.673 163.137 35.673 161.663 36.035 160.256 C 36.397 158.850 37.109 157.559 38.105 156.502 C 38.145 156.459 38.140 156.390 38.093 156.354 M 42.449 170.817 L 34.379 184.794 C 34.349 184.845 34.370 184.911 34.424 184.935 C 37.992 186.536 41.888 187.267 45.793 187.068 C 49.698 186.869 53.500 185.746 56.887 183.791 C 60.273 181.836 63.147 179.105 65.271 175.822 C 67.396 172.540 68.711 168.800 69.109 164.910 C 69.115 164.851 69.068 164.800 69.009 164.800 H 52.870 C 52.826 164.800 52.787 164.829 52.774 164.871 C 52.357 166.262 51.594 167.524 50.557 168.541 C 49.520 169.557 48.243 170.295 46.844 170.685 C 45.446 171.074 43.971 171.103 42.558 170.769 C 42.500 170.756 42.444 170.795 42.436 170.854" stroke="rgb(0,0,0)" stroke-width="0.20" />
</g>
<g id="p-2" style="fill:none;stroke-linecap:round;stroke-linejoin:round;">
  <path d="M 25.900 115.961 C 25.395 116.253 24.814 116.385 24.233 116.342 C 23.652 116.298 23.098 116.081 22.642 115.717 C 22.186 115.354 21.851 114.862 21.679 114.305 C 21.507 113.748 21.507 113.152 21.679 112.595 C 21.851 112.038 22.186 111.546 22.642 111.183 C 23.098 110.819 23.652 110.602 24.233 110.558 C 24.814 110.515 25.395 110.647 25.900 110.939 C 25.869 110.921 25.850 110.888 25.850 110.852 V 116.048" stroke="rgb(0,0,255)" stroke-width="0.20" />
  <path d="M 35.599 115.188 L 35.823 115.192 L 36.049 115.171 L 36.273 115.134 L 36.498 115.083 L 36.723 115.020 L 36.949 114.946 L 37.174 114.860 L 37.399 114.764 L 37.624 114.658 L 37.848 114.542 L 38.119 114.391 L 38.143 113.894 L 38.150 113.450 L 38.143 113.006 L 38.119 112.509 L 37.848 112.358 L 37.624 112.242 L 37.399 112.136 L 37.174 112.040 L 36.949 111.954 L 36.723 111.880 L 36.498 111.817 L 36.273 111.766 L 36.049 111.729 L 35.823 111.708 L 35.599 111.712 L 34.030 111.942 L 33.949 111.487 L 33.820 110.939 L 33.658 110.401 L 33.500 109.966 L 34.974 109.381 L 35.171 109.272 L 35.355 109.141 L 35.531 108.997 L 35.701 108.840 L 35.864 108.673 L 36.022 108.496 L 36.174 108.309 L 36.322 108.113 L 36.463 107.909 L 36.600 107.697 L 36.758 107.430 L 36.530 106.988 L 36.315 106.600 L 36.086 106.219 L 35.817 105.801 L 35.507 105.805 L 35.255 105.817 L 35.007 105.837 L 34.764 105.867 L 34.526 105.905 L 34.294 105.954 L 34.067 106.012 L 33.847 106.080 L 33.634 106.160 L 33.429 106.255 L 33.236 106.370 L 31.992 107.354 L 31.695 107.000 L 31.309 106.591 L 30.900 106.205 L 30.546 105.908 L 31.530 104.664 L 31.645 104.471 L 31.740 104.266 L 31.820 104.053 L 31.888 103.833 L 31.946 103.606 L 31.995 103.374 L 32.033 103.136 L 32.063 102.893 L 32.083 102.645 L 32.095 102.393 L 32.099 102.083 L 31.681 101.814 L 31.300 101.585 L 30.912 101.370 L 30.470 101.142 L 30.203 101.300 L 29.991 101.437 L 29.787 101.578 L 29.591 101.726 L 29.404 101.878 L 29.227 102.036 L 29.060 102.199 L 28.903 102.369 L 28.759 102.545 L 28.628 102.729 L 28.519 102.926 L 27.934 104.400 L 27.499 104.242 L 26.961 104.080 L 26.413 103.951 L 25.958 103.870 L 26.188 102.301 L 26.192 102.077 L 26.171 101.851 L 26.134 101.627 L 26.083 101.402 L 26.020 101.177 L 25.946 100.951 L 25.860 100.726 L 25.764 100.501 L 25.658 100.276 L 25.542 100.052 L 25.391 99.781 L 24.894 99.757 L 24.450 99.750 L 24.006 99.757 L 23.509 99.781 L 23.358 100.052 L 23.242 100.276 L 23.136 100.501 L 23.040 100.726 L 22.954 100.951 L 22.880 101.177 L 22.817 101.402 L 22.766 101.627 L 22.729 101.851 L 22.708 102.077 L 22.712 102.301 L 22.942 103.870 L 22.487 103.951 L 21.939 104.080 L 21.401 104.242 L 20.966 104.400 L 20.381 102.926 L 20.272 102.729 L 20.141 102.545 L 19.997 102.369 L 19.840 102.199 L 19.673 102.036 L 19.496 101.878 L 19.309 101.726 L 19.113 101.578 L 18.909 101.437 L 18.697 101.300 L 18.430 101.142 L 17.988 101.370 L 17.600 101.585 L 17.219 101.814 L 16.801 102.083 L 16.805 102.393 L 16.817 102.645 L 16.837 102.893 L 16.867 103.136 L 16.905 103.374 L 16.954 103.606 L 17.012 103.833 L 17.080 104.053 L 17.160 104.266 L 17.255 104.471 L 17.370 104.664 L 18.354 105.908 L 18.000 106.205 L 17.591 106.591 L 17.205 107.000 L 16.908 107.354 L 15.664 106.370 L 15.471 106.255 L 15.266 106.160 L 15.053 106.080 L 14.833 106.012 L 14.606 105.954 L 14.374 105.905 L 14.136 105.867 L 13.893 105.837 L 13.645 105.817 L 13.393 105.805 L 13.083 105.801 L 12.814 106.219 L 12.585 106.600 L 12.370 106.988 L 12.142 107.430 L 12.300 107.697 L 12.437 107.909 L 12.578 108.113 L 12.726 108.309 L 12.878 108.496 L 13.036 108.673 L 13.199 108.840 L 13.369 108.997 L 13.545 109.141 L 13.729 109.272 L 13.926 109.381 L 15.400 109.966 L 15.242 110.401 L 15.080 110.939 L 14.951 111.487 L 14.870 111.942 L 13.301 111.712 L 13.077 111.708 L 12.851 111.729 L 12.627 111.766 L 12.402 111.817 L 12.177 111.880 L 11.951 111.954 L 11.726 112.040 L 11.501 112.136 L 11.276 112.242 L 11.052 112.358 L 10.781 112.509 L 10.757 113.006 L 10.750 113.450 L 10.757 113.894 L 10.781 114.391 L 11.052 114.542 L 11.276 114.658 L 11.501 114.764 L 11.726 114.860 L 11.951 114.946 L 12.177 115.020 L 12.402 115.083 L 12.627 115.134 L 12.851 115.171 L 13.077 115.192 L 13.301 115.188 L 14.870 114.958 L 14.951 115.413 L 15.080 115.961 L 15.242 116.499 L 15.400 116.934 L 13.926 117.519 L 13.729 117.628 L 13.545 117.759 L 13.369 117.903 L 13.199 118.060 L 13.036 118.227 L 12.878 118.404 L 12.726 118.591 L 12.578 118.787 L 12.437 118.991 L 12.300 119.203 L 12.142 119.470 L 12.370 119.912 L 12.585 120.300 L 12.814 120.681 L 13.083 121.099 L 13.393 121.095 L 13.645 121.083 L 13.893 121.063 L 14.136 121.033 L 14.374 120.995 L 14.606 120.946 L 14.833 120.888 L 15.053 120.820 L 15.266 120.740 L 15.471 120.645 L 15.664 120.530 L 16.908 119.546 L 17.205 119.900 L 17.591 120.309 L 18.000 120.695 L 18.354 120.992 L 17.370 122.236 L 17.255 122.429 L 17.160 122.634 L 17.080 122.847 L 17.012 123.067 L 16.954 123.294 L 16.905 123.526 L 16.867 123.764 L 16.837 124.007 L 16.817 124.255 L 16.805 124.507 L 16.801 124.817 L 17.219 125.086 L 17.600 125.315 L 17.988 125.530 L 18.430 125.758 L 18.697 125.600 L 18.909 125.463 L 19.113 125.322 L 19.309 125.174 L 19.496 125.022 L 19.673 124.864 L 19.840 124.701 L 19.997 124.531 L 20.141 124.355 L 20.272 124.171 L 20.381 123.974 L 20.966 122.500 L 21.401 122.658 L 21.939 122.820 L 22.487 122.949 L 22.942 123.030 L 22.712 124.599 L 22.708 124.823 L 22.729 125.049 L 22.766 125.273 L 22.817 125.498 L 22.880 125.723 L 22.954 125.949 L 23.040 126.174 L 23.136 126.399 L 23.242 126.624 L 23.358 126.848 L 23.509 127.119 L 24.006 127.143 L 24.450 127.150 L 24.894 127.143 L 25.391 127.119 L 25.542 126.848 L 25.658 126.624 L 25.764 126.399 L 25.860 126.174 L 25.946 125.949 L 26.020 125.723 L 26.083 125.498 L 26.134 125.273 L 26.171 125.049 L 26.192 124.823 L 26.188 124.599 L 25.958 123.030 L 26.413 122.949 L 26.961 122.820 L 27.499 122.658 L 27.934 122.500 L 28.519 123.974 L 28.628 124.171 L 28.759 124.355 L 28.903 124.531 L 29.060 124.701 L 29.227 124.864 L 29.404 125.022 L 29.591 125.174 L 29.787 125.322 L 29.991 125.463 L 30.203 125.600 L 30.470 125.758 L 30.912 125.530 L 31.300 125.315 L 31.681 125.086 L 32.099 124.817 L 32.095 124.507 L 32.083 124.255 L 32.063 124.007 L 32.033 123.764 L 31.995 123.526 L 31.946 123.294 L 31.888 123.067 L 31.820 122.847 L 31.740 122.634 L 31.645 122.429 L 31.530 122.236 L 30.546 120.992 L 30.900 120.695 L 31.309 120.309 L 31.695 119.900 L 31.992 119.546 L 33.236 120.530 L 33.429 120.645 L 33.634 120.740 L 33.847 120.820 L 34.067 120.888 L 34.294 120.946 L 34.526 120.995 L 34.764 121.033 L 35.007 121.063 L 35.255 121.083 L 35.507 121.095 L 35.817 121.099 L 36.086 120.681 L 36.315 120.300 L 36.530 119.912 L 36.758 119.470 L 36.600 119.203 L 36.463 118.991 L 36.322 118.787 L 36.174 118.591 L 36.022 118.404 L 35.864 118.227 L 35.701 118.060 L 35.531 117.903 L 35.355 117.759 L 35.171 117.628 L 34.974 117.519 L 33.500 116.934 L 33.658 116.499 L 33.820 115.961 L 33.949 115.413 L 34.030 114.958 L 35.599 115.188 Z" stroke="rgb(0,0,0)" stroke-width="0.20" />
</g>
<g id="p-3" style="fill:none;stroke-linecap:round;stroke-linejoin:round;">
  <path d="M 18.900 93.000 C 18.900 93.556 18.740 94.100 18.440 94.568 C 18.139 95.036 17.710 95.407 17.205 95.638 C 16.699 95.869 16.138 95.950 15.587 95.870 C 15.037 95.791 14.521 95.556 14.101 95.192 C 13.681 94.828 13.374 94.350 13.217 93.817 C 13.061 93.284 13.061 92.716 13.217 92.183 C 13.374 91.650 13.681 91.172 14.101 90.808 C 14.521 90.444 15.037 90.209 15.587 90.130 C 16.138 90.050 16.699 90.131 17.205 90.362 C 17.710 90.593 18.139 90.964 18.440 91.432 C 18.740 91.900 18.900 92.444 18.900 93.000 Z" stroke="rgb(0,0,255)" stroke-width="0.20" />
  <path d="M 62.900 93.000 C 62.900 93.556 62.740 94.100 62.440 94.568 C 62.139 95.036 61.710 95.407 61.205 95.638 C 60.699 95.869 60.138 95.950 59.587 95.870 C 59.037 95.791 58.521 95.556 58.101 95.192 C 57.681 94.828 57.374 94.350 57.217 93.817 C 57.061 93.284 57.061 92.716 57.217 92.183 C 57.374 91.650 57.681 91.172 58.101 90.808 C 58.521 90.444 59.037 90.209 59.587 90.130 C 60.138 90.050 60.699 90.131 61.205 90.362 C 61.710 90.593 62.139 90.964 62.440 91.432 C 62.740 91.900 62.900 92.444 62.900 93.000 Z" stroke="rgb(0,0,255)" stroke-width="0.20" />
  <text dominant-baseline="hanging" font-size="10px" style="font-family: sans-serif ; font-weight: normal; font-style: normal; fill: rgb(0,0,0)" text-anchor="left" transform="matrix( 1.000 0.000 0.000 1.000 10.000 80.000 )" /><text dominant-baseline="hanging" font-size="10px" style="font-family: sans-serif ; font-weight: normal; font-style: normal; fill: rgb(0,0,0)" text-anchor="left" transform="matrix( 1.000 0.000 0.000 1.000 10.000 66.000 )">Axis distance: 44.0mm</text><text dominant-baseline="hanging" font-size="10px" style="font-family: sans-serif ; font-weight: normal; font-style: normal; fill: rgb(0,0,0)" text-anchor="left" transform="matrix( 1.000 0.000 0.000 1.000 10.000 52.000 )">Outer diameter 2: 67.2mm</text><text dominant-baseline="hanging" font-size="10px" style="font-family: sans-serif ; font-weight: normal; font-style: normal; fill: rgb(0,0,0)" text-anchor="left" transform="matrix( 1.000 0.000 0.000 1.000 10.000 38.000 )">Pitch radius 2: 32.0mm</text><text dominant-baseline="hanging" font-size="10px" style="font-family: sans-serif ; font-weight: normal; font-style: normal; fill: rgb(0,0,0)" text-anchor="left" transform="matrix( 1.000 0.000 0.000 1.000 10.000 24.000 )">Outer diameter 1: 27.2mm</text><text dominant-baseline="hanging" font-size="10px" style="font-family: sans-serif ; font-weight: normal; font-style: normal; fill: rgb(0,0,0)" text-anchor="left" transform="matrix( 1.000 0.000 0.000 1.000 10.000 10.000 )">Pitch radius 1: 12.0mm</text>
</g>
</svg>