<?xml version='1.0' encoding='utf-8'?>
<svg height="260.00mm" viewBox="0.0 0.0 245.90 260.00" width="245.90mm" xmlns="http://www.w3.org/2000/svg" xmlns:cc="http://creativecommons.org/ns#" xmlns:dc="http://purl.org/dc/elements/1.1/" xmlns:inkscape="http://www.inkscape.org/namespaces/inkscape" xmlns:rdf="http://www.w3.org/1999/02/22-rdf-syntax-ns#" xmlns:svg="http://www.w3.org/2000/svg" xmlns:xlink="http://www.w3.org/1999/xlink">
<!--
GridfinityBase - A parameterized Gridfinity base


This is a configurable gridfinity base.  This
    design is based on
    <a href="https://www.youtube.com/watch?app=desktop&v=ra_9zU-mnl8">Zach Freedman's Gridfinity system</a>


Created with Boxes.py (https://boxes.hackerspace-bamberg.de/)
Command line (remove spaces between dashes): boxes GridfinityBase
-->
<title>GridfinityBase</title>
<metadata>
<rdf:RDF><cc:Work>
<dc:title>Tray - GridfinityBase</dc:title>
<dc:source>boxes GridfinityBase</dc:source>
<dc:description>A parameterized Gridfinity base

This is a configurable gridfinity base.  This
    design is based on
    &lt;a href="https://www.youtube.com/watch?app=desktop&amp;v=ra_9zU-mnl8"&gt;Zach Freedman's Gridfinity system&lt;/a&gt;

Created with Boxes.py (https://boxes.hackerspace-bamberg.de/)
Command line: boxes GridfinityBase
Command line short: boxes GridfinityBase
</dc:description>
</cc:Work></rdf:RDF></metadata>
<g id="p-0" style="fill:none;stroke-linecap:round;stroke-linejoin:round;">
  <path d="M 10.100 250.000 H 110.100 V 240.000 H 10.100 V 250.000 Z" stroke="rgb(0,0,0)" stroke-width="0.20" />
  <text dominant-baseline="hanging" font-size="6px" style="font-family: sans-serif ; font-weight: normal; font-style: normal; fill: rgb(255,0,0)" text-anchor="middle" transform="matrix( 1.000 0.000 0.000 1.000 60.100 242.000 )">100.0mm, burn:0.10mm</text>
</g>
<g id="p-1" style="fill:none;stroke-linecap:round;stroke-linejoin:round;">
  <path d="M 31.100 236.100 H 13.700 C 13.437 236.100 13.178 236.031 12.950 235.899 C 12.722 235.767 12.533 235.578 12.401 235.350 C 12.269 235.122 12.200 234.863 12.200 234.600 V 199.800 C 12.200 199.537 12.269 199.278 12.401 199.050 C 12.533 198.822 12.722 198.633 12.950 198.501 C 13.178 198.369 13.437 198.300 13.700 198.300 H 48.500 C 48.763 198.300 49.022 198.369 49.250 198.501 C 49.478 198.633 49.667 198.822 49.799 199.050 C 49.931 199.278 50.000 199.537 50.000 199.800 V 234.600 C 50.000 234.863 49.931 235.122 49.799 235.350 C 49.667 235.578 49.478 235.767 49.250 235.899 C 49.022 236.031 48.763 236.100 48.500 236.100 H 31.100 Z" stroke="rgb(0,0,255)" stroke-width="0.20" />
  <path d="M 31.100 194.100 H 13.700 C 13.437 194.100 13.178 194.031 12.950 193.899 C 12.722 193.767 12.533 193.578 12.401 193.350 C 12.269 193.122 12.200 192.863 12.200 192.600 V 157.800 C 12.200 157.537 12.269 157.278 12.401 157.050 C 12.533 156.822 12.722 156.633 12.950 156.501 C 13.178 156.369 13.437 156.300 13.700 156.300 H 48.500 C 48.763 156.300 49.022 156.369 49.250 156.501 C 49.478 156.633 49.667 156.822 49.799 157.050 C 49.931 157.278 50.000 157.537 50.000 157.800 V 192.600 C 50.000 192.863 49.931 193.122 49.799 193.350 C 49.667 193.578 49.478 193.767 49.250 193.899 C 49.022 194.031 48.763 194.100 48.500 194.100 H 31.100 Z" stroke="rgb(0,0,255)" stroke-width="0.20" />
  <path d="M 73.100 236.100 H 55.700 C 55.437 236.100 55.178 236.031 54.950 235.899 C 54.722 235.767 54.533 235.578 54.401 235.350 C 54.269 235.122 54.200 234.863 54.200 234.600 V 199.800 C 54.200 199.537 54.269 199.278 54.401 199.050 C 54.533 198.822 54.722 198.633 54.950 198.501 C 55.178 198.369 55.437 198.300 55.700 198.300 H 90.500 C 90.763 198.300 91.022 198.369 91.250 198.501 C 91.478 198.633 91.667 198.822 91.799 199.050 C 91.931 199.278 92.000 199.537 92.000 199.800 V 234.600 C 92.000 234.863 91.931 235.122 91.799 235.350 C 91.667 235.578 91.478 235.767 91.250 235.899 C 91.022 236.031 90.763 236.100 90.500 236.100 H 73.100 Z" stroke="rgb(0,0,255)" stroke-width="0.20" />
  <path d="M 73.100 194.100 H 55.700 C 55.437 194.100 55.178 194.031 54.950 193.899 C 54.722 193.767 54.533 193.578 54.401 193.350 C 54.269 193.122 54.200 192.863 54.200 192.600 V 157.800 C 54.200 157.537 54.269 157.278 54.401 157.050 C 54.533 156.822 54.722 156.633 54.950 156.501 C 55.178 156.369 55.437 156.300 55.700 156.300 H 90.500 C 90.763 156.300 91.022 156.369 91.250 156.501 C 91.478 156.633 91.667 156.822 91.799 157.050 C 91.931 157.278 92.000 157.537 92.000 157.800 V 192.600 C 92.000 192.863 91.931 193.122 91.799 193.350 C 91.667 193.578 91.478 193.767 91.250 193.899 C 91.022 194.031 90.763 194.100 90.500 194.100 H 73.100 Z" stroke="rgb(0,0,255)" stroke-width="0.20" />
  <path d="M 115.100 236.100 H 97.700 C 97.437 236.100 97.178 236.031 96.950 235.899 C 96.722 235.767 96.533 235.578 96.401 235.350 C 96.269 235.122 96.200 234.863 96.200 234.600 V 199.800 C 96.200 199.537 96.269 199.278 96.401 199.050 C 96.533 198.822 96.722 198.633 96.950 198.501 C 97.178 198.369 97.437 198.300 97.700 198.300 H 132.500 C 132.763 198.300 133.022 198.369 133.250 198.501 C 133.478 198.633 133.667 198.822 133.799 199.050 C 133.931 199.278 134.000 199.537 134.000 199.800 V 234.600 C 134.000 234.863 133.931 235.122 133.799 235.350 C 133.667 235.578 133.478 235.767 133.250 235.899 C 133.022 236.031 132.763 236.100 132.500 236.100 H 115.100 Z" stroke="rgb(0,0,255)" stroke-width="0.20" />
  <path d="M 115.100 194.100 H 97.700 C 97.437 194.100 97.178 194.031 96.950 193.899 C 96.722 193.767 96.533 193.578 96.401 193.350 C 96.269 193.122 96.200 192.863 96.200 192.600 V 157.800 C 96.200 157.537 96.269 157.278 96.401 157.050 C 96.533 156.822 96.722 156.633 96.950 156.501 C 97.178 156.369 97.437 156.300 97.700 156.300 H 132.500 C 132.763 156.300 133.022 156.369 133.250 156.501 C 133.478 156.633 133.667 156.822 133.799 157.050 C 133.931 157.278 134.000 157.537 134.000 157.800 V 192.600 C 134.000 192.863 133.931 193.122 133.799 193.350 C 133.667 193.578 133.478 193.767 133.250 193.899 C 133.022 194.031 132.763 194.100 132.500 194.100 H 115.100 Z" stroke="rgb(0,0,255)" stroke-width="0.20" />
  <path d="M 10.100 238.300 H 136.100 C 136.155 238.300 136.200 238.255 136.200 238.200 V 154.200 C 136.200 154.145 136.155 154.100 136.100 154.100 H 10.100 C 10.045 154.100 10.000 154.145 10.000 154.200 V 238.200 C 10.000 238.255 10.045 238.300 10.100 238.300 Z" stroke="rgb(0,0,0)" stroke-width="0.20" />
</g>
<g id="p-2" style="fill:none;stroke-linecap:round;stroke-linejoin:round;">
  <path d="M 13.100 152.600 H 34.600 C 34.655 152.600 34.700 152.555 34.700 152.500 V 149.600 C 34.700 149.500 34.600 149.600 34.700 149.600 H 46.500 C 46.600 149.600 46.500 149.500 46.500 149.600 V 152.500 C 46.500 152.555 46.545 152.600 46.600 152.600 H 58.600 C 58.655 152.600 58.700 152.555 58.700 152.500 V 149.600 C 58.700 149.500 58.600 149.600 58.700 149.600 H 70.500 C 70.600 149.600 70.500 149.500 70.500 149.600 V 152.500 C 70.500 152.555 70.545 152.600 70.600 152.600 H 82.600 C 82.655 152.600 82.700 152.555 82.700 152.500 V 149.600 C 82.700 149.500 82.600 149.600 82.700 149.600 H 94.500 C 94.600 149.600 94.500 149.500 94.500 149.600 V 152.500 C 94.500 152.555 94.545 152.600 94.600 152.600 H 106.600 C 106.655 152.600 106.700 152.555 106.700 152.500 V 149.600 C 106.700 149.500 106.600 149.600 106.700 149.600 H 118.500 C 118.600 149.600 118.500 149.500 118.500 149.600 V 152.500 C 118.500 152.555 118.545 152.600 118.600 152.600 H 140.100 H 143.100 C 143.155 152.600 143.200 152.555 143.200 152.500 V 146.500 C 143.200 146.445 143.155 146.400 143.100 146.400 H 140.200 C 140.100 146.400 140.200 146.500 140.200 146.400 V 134.600 C 140.200 134.500 140.100 134.600 140.200 134.600 H 143.100 C 143.155 134.600 143.200 134.555 143.200 134.500 V 128.500 C 143.200 128.445 143.155 128.400 143.100 128.400 H 140.100 H 13.100 H 10.100 C 10.045 128.400 10.000 128.445 10.000 128.500 V 134.500 C 10.000 134.555 10.045 134.600 10.100 134.600 H 13.000 C 13.100 134.600 13.000 134.500 13.000 134.600 V 146.400 C 13.000 146.500 13.100 146.400 13.000 146.400 H 10.100 C 10.045 146.400 10.000 146.445 10.000 146.500 V 152.500 C 10.000 152.555 10.045 152.600 10.100 152.600 H 13.100 Z" stroke="rgb(0,0,0)" stroke-width="0.20" />
</g>
<g id="p-3" style="fill:none;stroke-linecap:round;stroke-linejoin:round;">
  <path d="M 147.800 152.600 H 160.300 C 160.355 152.600 160.400 152.555 160.400 152.500 V 149.600 C 160.400 149.500 160.300 149.600 160.400 149.600 H 172.200 C 172.300 149.600 172.200 149.500 172.200 149.600 V 152.500 C 172.200 152.555 172.245 152.600 172.300 152.600 H 184.300 C 184.355 152.600 184.400 152.555 184.400 152.500 V 149.600 C 184.400 149.500 184.300 149.600 184.400 149.600 H 196.200 C 196.300 149.600 196.200 149.500 196.200 149.600 V 152.500 C 196.200 152.555 196.245 152.600 196.300 152.600 H 208.300 C 208.355 152.600 208.400 152.555 208.400 152.500 V 149.600 C 208.400 149.500 208.300 149.600 208.400 149.600 H 220.200 C 220.300 149.600 220.200 149.500 220.200 149.600 V 152.500 C 220.200 152.555 220.245 152.600 220.300 152.600 H 232.800 C 232.855 152.600 232.900 152.555 232.900 152.500 V 146.600 C 232.900 146.500 232.800 146.600 232.900 146.600 H 235.800 C 235.855 146.600 235.900 146.555 235.900 146.500 V 134.500 C 235.900 134.445 235.855 134.400 235.800 134.400 H 232.900 C 232.800 134.400 232.900 134.500 232.900 134.400 V 128.500 C 232.900 128.445 232.855 128.400 232.800 128.400 H 147.800 C 147.745 128.400 147.700 128.445 147.700 128.500 V 134.400 C 147.700 134.500 147.800 134.400 147.700 134.400 H 144.800 C 144.745 134.400 144.700 134.445 144.700 134.500 V 146.500 C 144.700 146.555 144.745 146.600 144.800 146.600 H 147.700 C 147.800 146.600 147.700 146.500 147.700 146.600 V 152.500 C 147.700 152.555 147.745 152.600 147.800 152.600 Z" stroke="rgb(0,0,0)" stroke-width="0.20" />
</g>
<g id="p-4" style="fill:none;stroke-linecap:round;stroke-linejoin:round;">
  <path d="M 147.800 126.900 H 160.300 C 160.355 126.900 160.400 126.855 160.400 126.800 V 123.900 C 160.400 123.800 160.300 123.900 160.400 123.900 H 172.200 C 172.300 123.900 172.200 123.800 172.200 123.900 V 126.800 C 172.200 126.855 172.245 126.900 172.300 126.900 H 184.300 C 184.355 126.900 184.400 126.855 184.400 126.800 V 123.900 C 184.400 123.800 184.300 123.900 184.400 123.900 H 196.200 C 196.300 123.900 196.200 123.800 196.200 123.900 V 126.800 C 196.200 126.855 196.245 126.900 196.300 126.900 H 208.300 C 208.355 126.900 208.400 126.855 208.400 126.800 V 123.900 C 208.400 123.800 208.300 123.900 208.400 123.900 H 220.200 C 220.300 123.900 220.200 123.800 220.200 123.900 V 126.800 C 220.200 126.855 220.245 126.900 220.300 126.900 H 232.800 C 232.855 126.900 232.900 126.855 232.900 126.800 V 120.900 C 232.900 120.800 232.800 120.900 232.900 120.900 H 235.800 C 235.855 120.900 235.900 120.855 235.900 120.800 V 108.800 C 235.900 108.745 235.855 108.700 235.800 108.700 H 232.900 C 232.800 108.700 232.900 108.800 232.900 108.700 V 102.800 C 232.900 102.745 232.855 102.700 232.800 102.700 H 147.800 C 147.745 102.700 147.700 102.745 147.700 102.800 V 108.700 C 147.700 108.800 147.800 108.700 147.700 108.700 H 144.800 C 144.745 108.700 144.700 108.745 144.700 108.800 V 120.800 C 144.700 120.855 144.745 120.900 144.800 120.900 H 147.700 C 147.800 120.900 147.700 120.800 147.700 120.900 V 126.800 C 147.700 126.855 147.745 126.900 147.800 126.900 Z" stroke="rgb(0,0,0)" stroke-width="0.20" />
</g>
<g id="p-5" style="fill:none;stroke-linecap:round;stroke-linejoin:round;">
  <path d="M 13.100 126.900 H 34.600 C 34.655 126.900 34.700 126.855 34.700 126.800 V 123.900 C 34.700 123.800 34.600 123.900 34.700 123.900 H 46.500 C 46.600 123.900 46.500 123.800 46.500 123.900 V 126.800 C 46.500 126.855 46.545 126.900 46.600 126.900 H 58.600 C 58.655 126.900 58.700 126.855 58.700 126.800 V 123.900 C 58.700 123.800 58.600 123.900 58.700 123.900 H 70.500 C 70.600 123.900 70.500 123.800 70.500 123.900 V 126.800 C 70.500 126.855 70.545 126.900 70.600 126.900 H 82.600 C 82.655 126.900 82.700 126.855 82.700 126.800 V 123.900 C 82.700 123.800 82.600 123.900 82.700 123.900 H 94.500 C 94.600 123.900 94.500 123.800 94.500 123.900 V 126.800 C 94.500 126.855 94.545 126.900 94.600 126.900 H 106.600 C 106.655 126.900 106.700 126.855 106.700 126.800 V 123.900 C 106.700 123.800 106.600 123.900 106.700 123.900 H 118.500 C 118.600 123.900 118.500 123.800 118.500 123.900 V 126.800 C 118.500 126.855 118.545 126.900 118.600 126.900 H 140.100 H 143.100 C 143.155 126.900 143.200 126.855 143.200 126.800 V 120.800 C 143.200 120.745 143.155 120.700 143.100 120.700 H 140.200 C 140.100 120.700 140.200 120.800 140.200 120.700 V 108.900 C 140.200 108.800 140.100 108.900 140.200 108.900 H 143.100 C 143.155 108.900 143.200 108.855 143.200 108.800 V 102.800 C 143.200 102.745 143.155 102.700 143.100 102.700 H 140.100 H 13.100 H 10.100 C 10.045 102.700 10.000 102.745 10.000 102.800 V 108.800 C 10.000 108.855 10.045 108.900 10.100 108.900 H 13.000 C 13.100 108.900 13.000 108.800 13.000 108.900 V 120.700 C 13.000 120.800 13.100 120.700 13.000 120.700 H 10.100 C 10.045 120.700 10.000 120.745 10.000 120.800 V 126.800 C 10.000 126.855 10.045 126.900 10.100 126.900 H 13.100 Z" stroke="rgb(0,0,0)" stroke-width="0.20" />
</g>
<g id="p-6" style="fill:none;stroke-linecap:round;stroke-linejoin:round;">
  <path d="M 13.100 98.200 H 34.500 C 34.600 98.200 34.500 98.100 34.500 98.200 V 101.100 C 34.500 101.155 34.545 101.200 34.600 101.200 H 46.600 C 46.655 101.200 46.700 101.155 46.700 101.100 V 98.200 C 46.700 98.100 46.600 98.200 46.700 98.200 H 58.500 C 58.600 98.200 58.500 98.100 58.500 98.200 V 101.100 C 58.500 101.155 58.545 101.200 58.600 101.200 H 70.600 C 70.655 101.200 70.700 101.155 70.700 101.100 V 98.200 C 70.700 98.100 70.600 98.200 70.700 98.200 H 82.500 C 82.600 98.200 82.500 98.100 82.500 98.200 V 101.100 C 82.500 101.155 82.545 101.200 82.600 101.200 H 94.600 C 94.655 101.200 94.700 101.155 94.700 101.100 V 98.200 C 94.700 98.100 94.600 98.200 94.700 98.200 H 106.500 C 106.600 98.200 106.500 98.100 106.500 98.200 V 101.100 C 106.500 101.155 106.545 101.200 106.600 101.200 H 118.600 C 118.655 101.200 118.700 101.155 118.700 101.100 V 98.200 C 118.700 98.100 118.600 98.200 118.700 98.200 H 140.100 C 140.155 98.200 140.200 98.155 140.200 98.100 V 85.700 C 140.200 85.600 140.100 85.700 140.200 85.700 H 143.100 C 143.155 85.700 143.200 85.655 143.200 85.600 V 73.600 C 143.200 73.545 143.155 73.500 143.100 73.500 H 140.200 C 140.100 73.500 140.200 73.600 140.200 73.500 V 61.700 C 140.200 61.600 140.100 61.700 140.200 61.700 H 143.100 C 143.155 61.700 143.200 61.655 143.200 61.600 V 49.600 C 143.200 49.545 143.155 49.500 143.100 49.500 H 140.200 C 140.100 49.500 140.200 49.600 140.200 49.500 V 37.700 C 140.200 37.600 140.100 37.700 140.200 37.700 H 143.100 C 143.155 37.700 143.200 37.655 143.200 37.600 V 25.600 C 143.200 25.545 143.155 25.500 143.100 25.500 H 140.200 C 140.100 25.500 140.200 25.600 140.200 25.500 V 13.100 C 140.200 13.045 140.155 13.000 140.100 13.000 H 118.700 C 118.600 13.000 118.700 13.100 118.700 13.000 V 10.100 C 118.700 10.045 118.655 10.000 118.600 10.000 H 106.600 C 106.545 10.000 106.500 10.045 106.500 10.100 V 13.000 C 106.500 13.100 106.600 13.000 106.500 13.000 H 94.700 C 94.600 13.000 94.700 13.100 94.700 13.000 V 10.100 C 94.700 10.045 94.655 10.000 94.600 10.000 H 82.600 C 82.545 10.000 82.500 10.045 82.500 10.100 V 13.000 C 82.500 13.100 82.600 13.000 82.500 13.000 H 70.700 C 70.600 13.000 70.700 13.100 70.700 13.000 V 10.100 C 70.700 10.045 70.655 10.000 70.600 10.000 H 58.600 C 58.545 10.000 58.500 10.045 58.500 10.100 V 13.000 C 58.500 13.100 58.600 13.000 58.500 13.000 H 46.700 C 46.600 13.000 46.700 13.100 46.700 13.000 V 10.100 C 46.700 10.045 46.655 10.000 46.600 10.000 H 34.600 C 34.545 10.000 34.500 10.045 34.500 10.100 V 13.000 C 34.500 13.100 34.600 13.000 34.500 13.000 H 13.100 C 13.045 13.000 13.000 13.045 13.000 13.100 V 25.500 C 13.000 25.600 13.100 25.500 13.000 25.500 H 10.100 C 10.045 25.500 10.000 25.545 10.000 25.600 V 37.600 C 10.000 37.655 10.045 37.700 10.100 37.700 H 13.000 C 13.100 37.700 13.000 37.600 13.000 37.700 V 49.500 C 13.000 49.600 13.100 49.500 13.000 49.500 H 10.100 C 10.045 49.500 10.000 49.545 10.000 49.600 V 61.600 C 10.000 61.655 10.045 61.700 10.100 61.700 H 13.000 C 13.100 61.700 13.000 61.600 13.000 61.700 V 73.500 C 13.000 73.600 13.100 73.500 13.000 73.500 H 10.100 C 10.045 73.500 10.000 73.545 10.000 73.600 V 85.600 C 10.000 85.655 10.045 85.700 10.100 85.700 H 13.000 C 13.100 85.700 13.000 85.600 13.000 85.700 V 98.100 C 13.000 98.155 13.045 98.200 13.100 98.200 Z" stroke="rgb(0,0,0)" stroke-width="0.20" />
</g>
</svg>