<?xml version='1.0' encoding='utf-8'?>
<svg height="408.90mm" viewBox="0.0 0.0 230.60 408.90" width="230.60mm" xmlns="http://www.w3.org/2000/svg" xmlns:cc="http://creativecommons.org/ns#" xmlns:dc="http://purl.org/dc/elements/1.1/" xmlns:inkscape="http://www.inkscape.org/namespaces/inkscape" xmlns:rdf="http://www.w3.org/1999/02/22-rdf-syntax-ns#" xmlns:svg="http://www.w3.org/2000/svg" xmlns:xlink="http://www.w3.org/1999/xlink">
<!--
HingeBox - Box with lid attached by cabinet hinges


Needs (metal) pins as hinge axles. Pieces of nails will
do fine. They need to be cut to length as they are captured as soon as the
hinges are assembled.

Assemble the box and the lid separately. Then insert the axle into the hinges.
Then attach the hinges on the inside of the box and then connect them to lid.



Created with Boxes.py (https://festi.info/boxes.py)
Command line (remove spaces between dashes): boxes HingeBox
-->
<title>HingeBox</title>
<metadata>
<rdf:RDF><cc:Work>
<dc:title>Box - HingeBox</dc:title>
<dc:source>boxes HingeBox</dc:source>
<dc:description>Box with lid attached by cabinet hinges

Needs (metal) pins as hinge axles. Pieces of nails will
do fine. They need to be cut to length as they are captured as soon as the
hinges are assembled.

Assemble the box and the lid separately. Then insert the axle into the hinges.
Then attach the hinges on the inside of the box and then connect them to lid.


Created with Boxes.py (https://festi.info/boxes.py)
Command line: boxes HingeBox
Command line short: boxes HingeBox
</dc:description>
</cc:Work></rdf:RDF></metadata>
<g id="p-0" style="fill:none;stroke-linecap:round;stroke-linejoin:round;">
  <path d="M 18.800 398.900 H 118.800 V 388.900 H 18.800 V 398.900 Z" stroke="rgb(0,0,0)" stroke-width="0.20" />
  <text dominant-baseline="hanging" font-size="8px" style="font-family: sans-serif ; font-weight: normal; font-style: normal; fill: rgb(255,0,0)" text-anchor="middle" transform="matrix( 1.000 0.000 0.000 1.000 68.800 389.900 )">100.00mm, burn:0.10mm</text>
</g>
<g id="p-1" style="fill:none;stroke-linecap:round;stroke-linejoin:round;">
  <path d="M 21.800 387.200 H 29.800 C 29.855 387.200 29.900 387.155 29.900 387.100 V 384.200 C 29.900 384.100 29.800 384.200 29.900 384.200 H 35.700 C 35.800 384.200 35.700 384.100 35.700 384.200 V 387.100 C 35.700 387.155 35.745 387.200 35.800 387.200 H 41.800 C 41.855 387.200 41.900 387.155 41.900 387.100 V 384.200 C 41.900 384.100 41.800 384.200 41.900 384.200 H 47.700 C 47.800 384.200 47.700 384.100 47.700 384.200 V 387.100 C 47.700 387.155 47.745 387.200 47.800 387.200 H 53.800 C 53.855 387.200 53.900 387.155 53.900 387.100 V 384.200 C 53.900 384.100 53.800 384.200 53.900 384.200 H 59.700 C 59.800 384.200 59.700 384.100 59.700 384.200 V 387.100 C 59.700 387.155 59.745 387.200 59.800 387.200 H 65.800 C 65.855 387.200 65.900 387.155 65.900 387.100 V 384.200 C 65.900 384.100 65.800 384.200 65.900 384.200 H 71.700 C 71.800 384.200 71.700 384.100 71.700 384.200 V 387.100 C 71.700 387.155 71.745 387.200 71.800 387.200 H 77.800 C 77.855 387.200 77.900 387.155 77.900 387.100 V 384.200 C 77.900 384.100 77.800 384.200 77.900 384.200 H 83.700 C 83.800 384.200 83.700 384.100 83.700 384.200 V 387.100 C 83.700 387.155 83.745 387.200 83.800 387.200 H 89.800 C 89.855 387.200 89.900 387.155 89.900 387.100 V 384.200 C 89.900 384.100 89.800 384.200 89.900 384.200 H 95.700 C 95.800 384.200 95.700 384.100 95.700 384.200 V 387.100 C 95.700 387.155 95.745 387.200 95.800 387.200 H 101.800 C 101.855 387.200 101.900 387.155 101.900 387.100 V 384.200 C 101.900 384.100 101.800 384.200 101.900 384.200 H 107.700 C 107.800 384.200 107.700 384.100 107.700 384.200 V 387.100 C 107.700 387.155 107.745 387.200 107.800 387.200 H 115.800 H 118.800 C 118.855 387.200 118.900 387.155 118.900 387.100 V 384.100 V 376.100 C 118.900 376.045 118.855 376.000 118.800 376.000 H 115.900 C 115.800 376.000 115.900 376.100 115.900 376.000 V 370.200 C 115.900 370.100 115.800 370.200 115.900 370.200 H 118.800 C 118.855 370.200 118.900 370.155 118.900 370.100 V 364.100 C 118.900 364.045 118.855 364.000 118.800 364.000 H 115.900 C 115.800 364.000 115.900 364.100 115.900 364.000 V 358.200 C 115.900 358.100 115.800 358.200 115.900 358.200 H 118.800 C 118.855 358.200 118.900 358.155 118.900 358.100 V 352.100 C 118.900 352.045 118.855 352.000 118.800 352.000 H 115.900 C 115.800 352.000 115.900 352.100 115.900 352.000 V 346.200 C 115.900 346.100 115.800 346.200 115.900 346.200 H 118.800 C 118.855 346.200 118.900 346.155 118.900 346.100 V 340.100 C 118.900 340.045 118.855 340.000 118.800 340.000 H 115.900 C 115.800 340.000 115.900 340.100 115.900 340.000 V 334.200 C 115.900 334.100 115.800 334.200 115.900 334.200 H 118.800 C 118.855 334.200 118.900 334.155 118.900 334.100 V 328.100 C 118.900 328.045 118.855 328.000 118.800 328.000 H 115.900 C 115.800 328.000 115.900 328.100 115.900 328.000 V 322.200 C 115.900 322.100 115.800 322.200 115.900 322.200 H 118.800 C 118.855 322.200 118.900 322.155 118.900 322.100 V 316.100 C 118.900 316.045 118.855 316.000 118.800 316.000 H 115.900 C 115.800 316.000 115.900 316.100 115.900 316.000 V 310.200 C 115.900 310.100 115.800 310.200 115.900 310.200 H 118.800 C 118.855 310.200 118.900 310.155 118.900 310.100 V 304.100 C 118.900 304.045 118.855 304.000 118.800 304.000 H 115.900 C 115.800 304.000 115.900 304.100 115.900 304.000 V 298.200 C 115.900 298.100 115.800 298.200 115.900 298.200 H 118.800 C 118.855 298.200 118.900 298.155 118.900 298.100 V 290.100 C 118.900 290.045 118.855 290.000 118.800 290.000 H 115.800 H 21.800 H 18.800 C 18.745 290.000 18.700 290.045 18.700 290.100 V 298.100 C 18.700 298.155 18.745 298.200 18.800 298.200 H 21.700 C 21.800 298.200 21.700 298.100 21.700 298.200 V 304.000 C 21.700 304.100 21.800 304.000 21.700 304.000 H 18.800 C 18.745 304.000 18.700 304.045 18.700 304.100 V 310.100 C 18.700 310.155 18.745 310.200 18.800 310.200 H 21.700 C 21.800 310.200 21.700 310.100 21.700 310.200 V 316.000 C 21.700 316.100 21.800 316.000 21.700 316.000 H 18.800 C 18.745 316.000 18.700 316.045 18.700 316.100 V 322.100 C 18.700 322.155 18.745 322.200 18.800 322.200 H 21.700 C 21.800 322.200 21.700 322.100 21.700 322.200 V 328.000 C 21.700 328.100 21.800 328.000 21.700 328.000 H 18.800 C 18.745 328.000 18.700 328.045 18.700 328.100 V 334.100 C 18.700 334.155 18.745 334.200 18.800 334.200 H 21.700 C 21.800 334.200 21.700 334.100 21.700 334.200 V 340.000 C 21.700 340.100 21.800 340.000 21.700 340.000 H 18.800 C 18.745 340.000 18.700 340.045 18.700 340.100 V 346.100 C 18.700 346.155 18.745 346.200 18.800 346.200 H 21.700 C 21.800 346.200 21.700 346.100 21.700 346.200 V 352.000 C 21.700 352.100 21.800 352.000 21.700 352.000 H 18.800 C 18.745 352.000 18.700 352.045 18.700 352.100 V 358.100 C 18.700 358.155 18.745 358.200 18.800 358.200 H 21.700 C 21.800 358.200 21.700 358.100 21.700 358.200 V 364.000 C 21.700 364.100 21.800 364.000 21.700 364.000 H 18.800 C 18.745 364.000 18.700 364.045 18.700 364.100 V 370.100 C 18.700 370.155 18.745 370.200 18.800 370.200 H 21.700 C 21.800 370.200 21.700 370.100 21.700 370.200 V 376.000 C 21.700 376.100 21.800 376.000 21.700 376.000 H 18.800 C 18.745 376.000 18.700 376.045 18.700 376.100 V 384.100 V 387.100 C 18.700 387.155 18.745 387.200 18.800 387.200 H 21.800 Z" stroke="rgb(0,0,0)" stroke-width="0.20" />
</g>
<g id="p-2" style="fill:none;stroke-linecap:round;stroke-linejoin:round;">
  <path d="M 123.500 387.200 H 131.500 C 131.555 387.200 131.600 387.155 131.600 387.100 V 384.200 C 131.600 384.100 131.500 384.200 131.600 384.200 H 137.400 C 137.500 384.200 137.400 384.100 137.400 384.200 V 387.100 C 137.400 387.155 137.445 387.200 137.500 387.200 H 143.500 C 143.555 387.200 143.600 387.155 143.600 387.100 V 384.200 C 143.600 384.100 143.500 384.200 143.600 384.200 H 149.400 C 149.500 384.200 149.400 384.100 149.400 384.200 V 387.100 C 149.400 387.155 149.445 387.200 149.500 387.200 H 155.500 C 155.555 387.200 155.600 387.155 155.600 387.100 V 384.200 C 155.600 384.100 155.500 384.200 155.600 384.200 H 161.400 C 161.500 384.200 161.400 384.100 161.400 384.200 V 387.100 C 161.400 387.155 161.445 387.200 161.500 387.200 H 167.500 C 167.555 387.200 167.600 387.155 167.600 387.100 V 384.200 C 167.600 384.100 167.500 384.200 167.600 384.200 H 173.400 C 173.500 384.200 173.400 384.100 173.400 384.200 V 387.100 C 173.400 387.155 173.445 387.200 173.500 387.200 H 179.500 C 179.555 387.200 179.600 387.155 179.600 387.100 V 384.200 C 179.600 384.100 179.500 384.200 179.600 384.200 H 185.400 C 185.500 384.200 185.400 384.100 185.400 384.200 V 387.100 C 185.400 387.155 185.445 387.200 185.500 387.200 H 191.500 C 191.555 387.200 191.600 387.155 191.600 387.100 V 384.200 C 191.600 384.100 191.500 384.200 191.600 384.200 H 197.400 C 197.500 384.200 197.400 384.100 197.400 384.200 V 387.100 C 197.400 387.155 197.445 387.200 197.500 387.200 H 203.500 C 203.555 387.200 203.600 387.155 203.600 387.100 V 384.200 C 203.600 384.100 203.500 384.200 203.600 384.200 H 209.400 C 209.500 384.200 209.400 384.100 209.400 384.200 V 387.100 C 209.400 387.155 209.445 387.200 209.500 387.200 H 217.500 C 217.555 387.200 217.600 387.155 217.600 387.100 V 384.100 V 376.200 C 217.600 376.100 217.500 376.200 217.600 376.200 H 220.500 C 220.555 376.200 220.600 376.155 220.600 376.100 V 370.100 C 220.600 370.045 220.555 370.000 220.500 370.000 H 217.600 C 217.500 370.000 217.600 370.100 217.600 370.000 V 364.200 C 217.600 364.100 217.500 364.200 217.600 364.200 H 220.500 C 220.555 364.200 220.600 364.155 220.600 364.100 V 358.100 C 220.600 358.045 220.555 358.000 220.500 358.000 H 217.600 C 217.500 358.000 217.600 358.100 217.600 358.000 V 352.200 C 217.600 352.100 217.500 352.200 217.600 352.200 H 220.500 C 220.555 352.200 220.600 352.155 220.600 352.100 V 346.100 C 220.600 346.045 220.555 346.000 220.500 346.000 H 217.600 C 217.500 346.000 217.600 346.100 217.600 346.000 V 340.200 C 217.600 340.100 217.500 340.200 217.600 340.200 H 220.500 C 220.555 340.200 220.600 340.155 220.600 340.100 V 334.100 C 220.600 334.045 220.555 334.000 220.500 334.000 H 217.600 C 217.500 334.000 217.600 334.100 217.600 334.000 V 328.200 C 217.600 328.100 217.500 328.200 217.600 328.200 H 220.500 C 220.555 328.200 220.600 328.155 220.600 328.100 V 322.100 C 220.600 322.045 220.555 322.000 220.500 322.000 H 217.600 C 217.500 322.000 217.600 322.100 217.600 322.000 V 316.200 C 217.600 316.100 217.500 316.200 217.600 316.200 H 220.500 C 220.555 316.200 220.600 316.155 220.600 316.100 V 310.100 C 220.600 310.045 220.555 310.000 220.500 310.000 H 217.600 C 217.500 310.000 217.600 310.100 217.600 310.000 V 304.200 C 217.600 304.100 217.500 304.200 217.600 304.200 H 220.500 C 220.555 304.200 220.600 304.155 220.600 304.100 V 298.100 C 220.600 298.045 220.555 298.000 220.500 298.000 H 217.600 C 217.500 298.000 217.600 298.100 217.600 298.000 V 290.100 C 217.600 290.045 217.555 290.000 217.500 290.000 H 123.500 C 123.445 290.000 123.400 290.045 123.400 290.100 V 298.000 C 123.400 298.100 123.500 298.000 123.400 298.000 H 120.500 C 120.445 298.000 120.400 298.045 120.400 298.100 V 304.100 C 120.400 304.155 120.445 304.200 120.500 304.200 H 123.400 C 123.500 304.200 123.400 304.100 123.400 304.200 V 310.000 C 123.400 310.100 123.500 310.000 123.400 310.000 H 120.500 C 120.445 310.000 120.400 310.045 120.400 310.100 V 316.100 C 120.400 316.155 120.445 316.200 120.500 316.200 H 123.400 C 123.500 316.200 123.400 316.100 123.400 316.200 V 322.000 C 123.400 322.100 123.500 322.000 123.400 322.000 H 120.500 C 120.445 322.000 120.400 322.045 120.400 322.100 V 328.100 C 120.400 328.155 120.445 328.200 120.500 328.200 H 123.400 C 123.500 328.200 123.400 328.100 123.400 328.200 V 334.000 C 123.400 334.100 123.500 334.000 123.400 334.000 H 120.500 C 120.445 334.000 120.400 334.045 120.400 334.100 V 340.100 C 120.400 340.155 120.445 340.200 120.500 340.200 H 123.400 C 123.500 340.200 123.400 340.100 123.400 340.200 V 346.000 C 123.400 346.100 123.500 346.000 123.400 346.000 H 120.500 C 120.445 346.000 120.400 346.045 120.400 346.100 V 352.100 C 120.400 352.155 120.445 352.200 120.500 352.200 H 123.400 C 123.500 352.200 123.400 352.100 123.400 352.200 V 358.000 C 123.400 358.100 123.500 358.000 123.400 358.000 H 120.500 C 120.445 358.000 120.400 358.045 120.400 358.100 V 364.100 C 120.400 364.155 120.445 364.200 120.500 364.200 H 123.400 C 123.500 364.200 123.400 364.100 123.400 364.200 V 370.000 C 123.400 370.100 123.500 370.000 123.400 370.000 H 120.500 C 120.445 370.000 120.400 370.045 120.400 370.100 V 376.100 C 120.400 376.155 120.445 376.200 120.500 376.200 H 123.400 C 123.500 376.200 123.400 376.100 123.400 376.200 V 384.100 V 387.100 C 123.400 387.155 123.445 387.200 123.500 387.200 Z" stroke="rgb(0,0,0)" stroke-width="0.20" />
</g>
<g id="p-3" style="fill:none;stroke-linecap:round;stroke-linejoin:round;">
  <path d="M 123.500 288.500 H 131.500 C 131.555 288.500 131.600 288.455 131.600 288.400 V 285.500 C 131.600 285.400 131.500 285.500 131.600 285.500 H 137.400 C 137.500 285.500 137.400 285.400 137.400 285.500 V 288.400 C 137.400 288.455 137.445 288.500 137.500 288.500 H 143.500 C 143.555 288.500 143.600 288.455 143.600 288.400 V 285.500 C 143.600 285.400 143.500 285.500 143.600 285.500 H 149.400 C 149.500 285.500 149.400 285.400 149.400 285.500 V 288.400 C 149.400 288.455 149.445 288.500 149.500 288.500 H 155.500 C 155.555 288.500 155.600 288.455 155.600 288.400 V 285.500 C 155.600 285.400 155.500 285.500 155.600 285.500 H 161.400 C 161.500 285.500 161.400 285.400 161.400 285.500 V 288.400 C 161.400 288.455 161.445 288.500 161.500 288.500 H 167.500 C 167.555 288.500 167.600 288.455 167.600 288.400 V 285.500 C 167.600 285.400 167.500 285.500 167.600 285.500 H 173.400 C 173.500 285.500 173.400 285.400 173.400 285.500 V 288.400 C 173.400 288.455 173.445 288.500 173.500 288.500 H 179.500 C 179.555 288.500 179.600 288.455 179.600 288.400 V 285.500 C 179.600 285.400 179.500 285.500 179.600 285.500 H 185.400 C 185.500 285.500 185.400 285.400 185.400 285.500 V 288.400 C 185.400 288.455 185.445 288.500 185.500 288.500 H 191.500 C 191.555 288.500 191.600 288.455 191.600 288.400 V 285.500 C 191.600 285.400 191.500 285.500 191.600 285.500 H 197.400 C 197.500 285.500 197.400 285.400 197.400 285.500 V 288.400 C 197.400 288.455 197.445 288.500 197.500 288.500 H 203.500 C 203.555 288.500 203.600 288.455 203.600 288.400 V 285.500 C 203.600 285.400 203.500 285.500 203.600 285.500 H 209.400 C 209.500 285.500 209.400 285.400 209.400 285.500 V 288.400 C 209.400 288.455 209.445 288.500 209.500 288.500 H 217.500 C 217.555 288.500 217.600 288.455 217.600 288.400 V 285.400 V 277.500 C 217.600 277.400 217.500 277.500 217.600 277.500 H 220.500 C 220.555 277.500 220.600 277.455 220.600 277.400 V 271.400 C 220.600 271.345 220.555 271.300 220.500 271.300 H 217.600 C 217.500 271.300 217.600 271.400 217.600 271.300 V 265.500 C 217.600 265.400 217.500 265.500 217.600 265.500 H 220.500 C 220.555 265.500 220.600 265.455 220.600 265.400 V 259.400 C 220.600 259.345 220.555 259.300 220.500 259.300 H 217.600 C 217.500 259.300 217.600 259.400 217.600 259.300 V 253.500 C 217.600 253.400 217.500 253.500 217.600 253.500 H 220.500 C 220.555 253.500 220.600 253.455 220.600 253.400 V 247.400 C 220.600 247.345 220.555 247.300 220.500 247.300 H 217.600 C 217.500 247.300 217.600 247.400 217.600 247.300 V 241.500 C 217.600 241.400 217.500 241.500 217.600 241.500 H 220.500 C 220.555 241.500 220.600 241.455 220.600 241.400 V 235.400 C 220.600 235.345 220.555 235.300 220.500 235.300 H 217.600 C 217.500 235.300 217.600 235.400 217.600 235.300 V 229.500 C 217.600 229.400 217.500 229.500 217.600 229.500 H 220.500 C 220.555 229.500 220.600 229.455 220.600 229.400 V 223.400 C 220.600 223.345 220.555 223.300 220.500 223.300 H 217.600 C 217.500 223.300 217.600 223.400 217.600 223.300 V 217.500 C 217.600 217.400 217.500 217.500 217.600 217.500 H 220.500 C 220.555 217.500 220.600 217.455 220.600 217.400 V 211.400 C 220.600 211.345 220.555 211.300 220.500 211.300 H 217.600 C 217.500 211.300 217.600 211.400 217.600 211.300 V 205.500 C 217.600 205.400 217.500 205.500 217.600 205.500 H 220.500 C 220.555 205.500 220.600 205.455 220.600 205.400 V 199.400 C 220.600 199.345 220.555 199.300 220.500 199.300 H 217.600 C 217.500 199.300 217.600 199.400 217.600 199.300 V 191.400 C 217.600 191.345 217.555 191.300 217.500 191.300 H 123.500 C 123.445 191.300 123.400 191.345 123.400 191.400 V 199.300 C 123.400 199.400 123.500 199.300 123.400 199.300 H 120.500 C 120.445 199.300 120.400 199.345 120.400 199.400 V 205.400 C 120.400 205.455 120.445 205.500 120.500 205.500 H 123.400 C 123.500 205.500 123.400 205.400 123.400 205.500 V 211.300 C 123.400 211.400 123.500 211.300 123.400 211.300 H 120.500 C 120.445 211.300 120.400 211.345 120.400 211.400 V 217.400 C 120.400 217.455 120.445 217.500 120.500 217.500 H 123.400 C 123.500 217.500 123.400 217.400 123.400 217.500 V 223.300 C 123.400 223.400 123.500 223.300 123.400 223.300 H 120.500 C 120.445 223.300 120.400 223.345 120.400 223.400 V 229.400 C 120.400 229.455 120.445 229.500 120.500 229.500 H 123.400 C 123.500 229.500 123.400 229.400 123.400 229.500 V 235.300 C 123.400 235.400 123.500 235.300 123.400 235.300 H 120.500 C 120.445 235.300 120.400 235.345 120.400 235.400 V 241.400 C 120.400 241.455 120.445 241.500 120.500 241.500 H 123.400 C 123.500 241.500 123.400 241.400 123.400 241.500 V 247.300 C 123.400 247.400 123.500 247.300 123.400 247.300 H 120.500 C 120.445 247.300 120.400 247.345 120.400 247.400 V 253.400 C 120.400 253.455 120.445 253.500 120.500 253.500 H 123.400 C 123.500 253.500 123.400 253.400 123.400 253.500 V 259.300 C 123.400 259.400 123.500 259.300 123.400 259.300 H 120.500 C 120.445 259.300 120.400 259.345 120.400 259.400 V 265.400 C 120.400 265.455 120.445 265.500 120.500 265.500 H 123.400 C 123.500 265.500 123.400 265.400 123.400 265.500 V 271.300 C 123.400 271.400 123.500 271.300 123.400 271.300 H 120.500 C 120.445 271.300 120.400 271.345 120.400 271.400 V 277.400 C 120.400 277.455 120.445 277.500 120.500 277.500 H 123.400 C 123.500 277.500 123.400 277.400 123.400 277.500 V 285.400 V 288.400 C 123.400 288.455 123.445 288.500 123.500 288.500 Z" stroke="rgb(0,0,0)" stroke-width="0.20" />
</g>
<g id="p-4" style="fill:none;stroke-linecap:round;stroke-linejoin:round;">
  <path d="M 21.800 288.500 H 29.800 C 29.855 288.500 29.900 288.455 29.900 288.400 V 285.500 C 29.900 285.400 29.800 285.500 29.900 285.500 H 35.700 C 35.800 285.500 35.700 285.400 35.700 285.500 V 288.400 C 35.700 288.455 35.745 288.500 35.800 288.500 H 41.800 C 41.855 288.500 41.900 288.455 41.900 288.400 V 285.500 C 41.900 285.400 41.800 285.500 41.900 285.500 H 47.700 C 47.800 285.500 47.700 285.400 47.700 285.500 V 288.400 C 47.700 288.455 47.745 288.500 47.800 288.500 H 53.800 C 53.855 288.500 53.900 288.455 53.900 288.400 V 285.500 C 53.900 285.400 53.800 285.500 53.900 285.500 H 59.700 C 59.800 285.500 59.700 285.400 59.700 285.500 V 288.400 C 59.700 288.455 59.745 288.500 59.800 288.500 H 65.800 C 65.855 288.500 65.900 288.455 65.900 288.400 V 285.500 C 65.900 285.400 65.800 285.500 65.900 285.500 H 71.700 C 71.800 285.500 71.700 285.400 71.700 285.500 V 288.400 C 71.700 288.455 71.745 288.500 71.800 288.500 H 77.800 C 77.855 288.500 77.900 288.455 77.900 288.400 V 285.500 C 77.900 285.400 77.800 285.500 77.900 285.500 H 83.700 C 83.800 285.500 83.700 285.400 83.700 285.500 V 288.400 C 83.700 288.455 83.745 288.500 83.800 288.500 H 89.800 C 89.855 288.500 89.900 288.455 89.900 288.400 V 285.500 C 89.900 285.400 89.800 285.500 89.900 285.500 H 95.700 C 95.800 285.500 95.700 285.400 95.700 285.500 V 288.400 C 95.700 288.455 95.745 288.500 95.800 288.500 H 101.800 C 101.855 288.500 101.900 288.455 101.900 288.400 V 285.500 C 101.900 285.400 101.800 285.500 101.900 285.500 H 107.700 C 107.800 285.500 107.700 285.400 107.700 285.500 V 288.400 C 107.700 288.455 107.745 288.500 107.800 288.500 H 115.800 H 118.800 C 118.855 288.500 118.900 288.455 118.900 288.400 V 285.400 V 277.400 C 118.900 277.345 118.855 277.300 118.800 277.300 H 115.900 C 115.800 277.300 115.900 277.400 115.900 277.300 V 271.500 C 115.900 271.400 115.800 271.500 115.900 271.500 H 118.800 C 118.855 271.500 118.900 271.455 118.900 271.400 V 265.400 C 118.900 265.345 118.855 265.300 118.800 265.300 H 115.900 C 115.800 265.300 115.900 265.400 115.900 265.300 V 259.500 C 115.900 259.400 115.800 259.500 115.900 259.500 H 118.800 C 118.855 259.500 118.900 259.455 118.900 259.400 V 253.400 C 118.900 253.345 118.855 253.300 118.800 253.300 H 115.900 C 115.800 253.300 115.900 253.400 115.900 253.300 V 247.500 C 115.900 247.400 115.800 247.500 115.900 247.500 H 118.800 C 118.855 247.500 118.900 247.455 118.900 247.400 V 241.400 C 118.900 241.345 118.855 241.300 118.800 241.300 H 115.900 C 115.800 241.300 115.900 241.400 115.900 241.300 V 235.500 C 115.900 235.400 115.800 235.500 115.900 235.500 H 118.800 C 118.855 235.500 118.900 235.455 118.900 235.400 V 229.400 C 118.900 229.345 118.855 229.300 118.800 229.300 H 115.900 C 115.800 229.300 115.900 229.400 115.900 229.300 V 223.500 C 115.900 223.400 115.800 223.500 115.900 223.500 H 118.800 C 118.855 223.500 118.900 223.455 118.900 223.400 V 217.400 C 118.900 217.345 118.855 217.300 118.800 217.300 H 115.900 C 115.800 217.300 115.900 217.400 115.900 217.300 V 211.500 C 115.900 211.400 115.800 211.500 115.900 211.500 H 118.800 C 118.855 211.500 118.900 211.455 118.900 211.400 V 205.400 C 118.900 205.345 118.855 205.300 118.800 205.300 H 115.900 C 115.800 205.300 115.900 205.400 115.900 205.300 V 199.500 C 115.900 199.400 115.800 199.500 115.900 199.500 H 118.800 C 118.855 199.500 118.900 199.455 118.900 199.400 V 191.400 C 118.900 191.345 118.855 191.300 118.800 191.300 H 115.800 H 109.650 C 109.595 191.300 109.550 191.345 109.550 191.400 V 196.050 V 198.800 C 109.550 198.900 109.650 198.800 109.550 198.800 H 106.750 C 106.650 198.800 106.750 198.900 106.750 198.800 V 196.050 C 106.750 195.995 106.705 195.950 106.650 195.950 H 103.350 C 103.295 195.950 103.250 195.995 103.250 196.050 V 198.800 C 103.250 198.900 103.350 198.800 103.250 198.800 H 100.450 C 100.350 198.800 100.450 198.900 100.450 198.800 V 196.050 C 100.450 195.995 100.405 195.950 100.350 195.950 H 97.050 C 96.995 195.950 96.950 195.995 96.950 196.050 V 198.800 C 96.950 198.900 97.050 198.800 96.950 198.800 H 94.150 C 94.050 198.800 94.150 198.900 94.150 198.800 V 196.050 V 191.400 C 94.150 191.345 94.105 191.300 94.050 191.300 H 87.900 H 49.700 H 43.550 C 43.495 191.300 43.450 191.345 43.450 191.400 V 196.050 V 198.800 C 43.450 198.900 43.550 198.800 43.450 198.800 H 40.650 C 40.550 198.800 40.650 198.900 40.650 198.800 V 196.050 C 40.650 195.995 40.605 195.950 40.550 195.950 H 37.250 C 37.195 195.950 37.150 195.995 37.150 196.050 V 198.800 C 37.150 198.900 37.250 198.800 37.150 198.800 H 34.350 C 34.250 198.800 34.350 198.900 34.350 198.800 V 196.050 C 34.350 195.995 34.305 195.950 34.250 195.950 H 30.950 C 30.895 195.950 30.850 195.995 30.850 196.050 V 198.800 C 30.850 198.900 30.950 198.800 30.850 198.800 H 28.050 C 27.950 198.800 28.050 198.900 28.050 198.800 V 196.050 V 191.400 C 28.050 191.345 28.005 191.300 27.950 191.300 H 21.800 H 18.800 C 18.745 191.300 18.700 191.345 18.700 191.400 V 199.400 C 18.700 199.455 18.745 199.500 18.800 199.500 H 21.700 C 21.800 199.500 21.700 199.400 21.700 199.500 V 205.300 C 21.700 205.400 21.800 205.300 21.700 205.300 H 18.800 C 18.745 205.300 18.700 205.345 18.700 205.400 V 211.400 C 18.700 211.455 18.745 211.500 18.800 211.500 H 21.700 C 21.800 211.500 21.700 211.400 21.700 211.500 V 217.300 C 21.700 217.400 21.800 217.300 21.700 217.300 H 18.800 C 18.745 217.300 18.700 217.345 18.700 217.400 V 223.400 C 18.700 223.455 18.745 223.500 18.800 223.500 H 21.700 C 21.800 223.500 21.700 223.400 21.700 223.500 V 229.300 C 21.700 229.400 21.800 229.300 21.700 229.300 H 18.800 C 18.745 229.300 18.700 229.345 18.700 229.400 V 235.400 C 18.700 235.455 18.745 235.500 18.800 235.500 H 21.700 C 21.800 235.500 21.700 235.400 21.700 235.500 V 241.300 C 21.700 241.400 21.800 241.300 21.700 241.300 H 18.800 C 18.745 241.300 18.700 241.345 18.700 241.400 V 247.400 C 18.700 247.455 18.745 247.500 18.800 247.500 H 21.700 C 21.800 247.500 21.700 247.400 21.700 247.500 V 253.300 C 21.700 253.400 21.800 253.300 21.700 253.300 H 18.800 C 18.745 253.300 18.700 253.345 18.700 253.400 V 259.400 C 18.700 259.455 18.745 259.500 18.800 259.500 H 21.700 C 21.800 259.500 21.700 259.400 21.700 259.500 V 265.300 C 21.700 265.400 21.800 265.300 21.700 265.300 H 18.800 C 18.745 265.300 18.700 265.345 18.700 265.400 V 271.400 C 18.700 271.455 18.745 271.500 18.800 271.500 H 21.700 C 21.800 271.500 21.700 271.400 21.700 271.500 V 277.300 C 21.700 277.400 21.800 277.300 21.700 277.300 H 18.800 C 18.745 277.300 18.700 277.345 18.700 277.400 V 285.400 V 288.400 C 18.700 288.455 18.745 288.500 18.800 288.500 H 21.800 Z" stroke="rgb(0,0,0)" stroke-width="0.20" />
  <path d="M 108.150 201.900 H 109.550 C 109.650 201.900 109.550 201.800 109.550 201.900 V 204.700 C 109.550 204.800 109.650 204.700 109.550 204.700 H 106.750 C 106.650 204.700 106.750 204.800 106.750 204.700 V 201.900 C 106.750 201.800 106.650 201.900 106.750 201.900 H 108.150 Z" stroke="rgb(0,0,255)" stroke-width="0.20" />
  <path d="M 101.850 201.900 H 103.250 C 103.350 201.900 103.250 201.800 103.250 201.900 V 204.700 C 103.250 204.800 103.350 204.700 103.250 204.700 H 100.450 C 100.350 204.700 100.450 204.800 100.450 204.700 V 201.900 C 100.450 201.800 100.350 201.900 100.450 201.900 H 101.850 Z" stroke="rgb(0,0,255)" stroke-width="0.20" />
  <path d="M 95.550 201.900 H 96.950 C 97.050 201.900 96.950 201.800 96.950 201.900 V 204.700 C 96.950 204.800 97.050 204.700 96.950 204.700 H 94.150 C 94.050 204.700 94.150 204.800 94.150 204.700 V 201.900 C 94.150 201.800 94.050 201.900 94.150 201.900 H 95.550 Z" stroke="rgb(0,0,255)" stroke-width="0.20" />
  <path d="M 42.050 201.900 H 43.450 C 43.550 201.900 43.450 201.800 43.450 201.900 V 204.700 C 43.450 204.800 43.550 204.700 43.450 204.700 H 40.650 C 40.550 204.700 40.650 204.800 40.650 204.700 V 201.900 C 40.650 201.800 40.550 201.900 40.650 201.900 H 42.050 Z" stroke="rgb(0,0,255)" stroke-width="0.20" />
  <path d="M 35.750 201.900 H 37.150 C 37.250 201.900 37.150 201.800 37.150 201.900 V 204.700 C 37.150 204.800 37.250 204.700 37.150 204.700 H 34.350 C 34.250 204.700 34.350 204.800 34.350 204.700 V 201.900 C 34.350 201.800 34.250 201.900 34.350 201.900 H 35.750 Z" stroke="rgb(0,0,255)" stroke-width="0.20" />
  <path d="M 29.450 201.900 H 30.850 C 30.950 201.900 30.850 201.800 30.850 201.900 V 204.700 C 30.850 204.800 30.950 204.700 30.850 204.700 H 28.050 C 27.950 204.700 28.050 204.800 28.050 204.700 V 201.900 C 28.050 201.800 27.950 201.900 28.050 201.900 H 29.450 Z" stroke="rgb(0,0,255)" stroke-width="0.20" />
</g>
<g id="p-5" style="fill:none;stroke-linecap:round;stroke-linejoin:round;">
  <path d="M 32.600 179.200 H 31.200 C 31.100 179.200 31.200 179.300 31.200 179.200 V 176.400 C 31.200 176.300 31.100 176.400 31.200 176.400 H 34.000 C 34.100 176.400 34.000 176.300 34.000 176.400 V 179.200 C 34.000 179.300 34.100 179.200 34.000 179.200 H 32.600 Z" stroke="rgb(0,0,255)" stroke-width="0.20" />
  <path d="M 38.900 179.200 H 37.500 C 37.400 179.200 37.500 179.300 37.500 179.200 V 176.400 C 37.500 176.300 37.400 176.400 37.500 176.400 H 40.300 C 40.400 176.400 40.300 176.300 40.300 176.400 V 179.200 C 40.300 179.300 40.400 179.200 40.300 179.200 H 38.900 Z" stroke="rgb(0,0,255)" stroke-width="0.20" />
  <path d="M 21.800 189.800 H 27.800 C 27.855 189.800 27.900 189.755 27.900 189.700 V 185.150 C 27.900 185.050 27.800 185.150 27.900 185.150 H 31.100 C 31.155 185.150 31.200 185.105 31.200 185.050 V 182.300 C 31.200 182.200 31.100 182.300 31.200 182.300 H 34.000 C 34.100 182.300 34.000 182.200 34.000 182.300 V 185.050 C 34.000 185.105 34.045 185.150 34.100 185.150 H 37.400 C 37.455 185.150 37.500 185.105 37.500 185.050 V 182.300 C 37.500 182.200 37.400 182.300 37.500 182.300 H 40.300 C 40.400 182.300 40.300 182.200 40.300 182.300 V 185.050 C 40.300 185.105 40.345 185.150 40.400 185.150 H 43.600 C 43.700 185.150 43.600 185.050 43.600 185.150 V 189.700 C 43.600 189.755 43.645 189.800 43.700 189.800 H 49.700 H 87.900 H 93.900 C 93.955 189.800 94.000 189.755 94.000 189.700 V 185.150 C 94.000 185.050 93.900 185.150 94.000 185.150 H 97.200 C 97.255 185.150 97.300 185.105 97.300 185.050 V 182.300 C 97.300 182.200 97.200 182.300 97.300 182.300 H 100.100 C 100.200 182.300 100.100 182.200 100.100 182.300 V 185.050 C 100.100 185.105 100.145 185.150 100.200 185.150 H 103.500 C 103.555 185.150 103.600 185.105 103.600 185.050 V 182.300 C 103.600 182.200 103.500 182.300 103.600 182.300 H 106.400 C 106.500 182.300 106.400 182.200 106.400 182.300 V 185.050 C 106.400 185.105 106.445 185.150 106.500 185.150 H 109.700 C 109.800 185.150 109.700 185.050 109.700 185.150 V 189.700 C 109.700 189.755 109.745 189.800 109.800 189.800 H 115.800 H 118.800 C 118.855 189.800 118.900 189.755 118.900 189.700 V 182.700 C 118.900 182.645 118.855 182.600 118.800 182.600 H 115.900 C 115.800 182.600 115.900 182.700 115.900 182.600 V 176.800 C 115.900 176.700 115.800 176.800 115.900 176.800 H 118.800 C 118.855 176.800 118.900 176.755 118.900 176.700 V 169.700 V 166.700 C 118.900 166.645 118.855 166.600 118.800 166.600 H 115.800 H 107.800 C 107.745 166.600 107.700 166.645 107.700 166.700 V 169.600 C 107.700 169.700 107.800 169.600 107.700 169.600 H 101.900 C 101.800 169.600 101.900 169.700 101.900 169.600 V 166.700 C 101.900 166.645 101.855 166.600 101.800 166.600 H 95.800 C 95.745 166.600 95.700 166.645 95.700 166.700 V 169.600 C 95.700 169.700 95.800 169.600 95.700 169.600 H 89.900 C 89.800 169.600 89.900 169.700 89.900 169.600 V 166.700 C 89.900 166.645 89.855 166.600 89.800 166.600 H 83.800 C 83.745 166.600 83.700 166.645 83.700 166.700 V 169.600 C 83.700 169.700 83.800 169.600 83.700 169.600 H 77.900 C 77.800 169.600 77.900 169.700 77.900 169.600 V 166.700 C 77.900 166.645 77.855 166.600 77.800 166.600 H 71.800 C 71.745 166.600 71.700 166.645 71.700 166.700 V 169.600 C 71.700 169.700 71.800 169.600 71.700 169.600 H 65.900 C 65.800 169.600 65.900 169.700 65.900 169.600 V 166.700 C 65.900 166.645 65.855 166.600 65.800 166.600 H 59.800 C 59.745 166.600 59.700 166.645 59.700 166.700 V 169.600 C 59.700 169.700 59.800 169.600 59.700 169.600 H 53.900 C 53.800 169.600 53.900 169.700 53.900 169.600 V 166.700 C 53.900 166.645 53.855 166.600 53.800 166.600 H 47.800 C 47.745 166.600 47.700 166.645 47.700 166.700 V 169.600 C 47.700 169.700 47.800 169.600 47.700 169.600 H 41.900 C 41.800 169.600 41.900 169.700 41.900 169.600 V 166.700 C 41.900 166.645 41.855 166.600 41.800 166.600 H 35.800 C 35.745 166.600 35.700 166.645 35.700 166.700 V 169.600 C 35.700 169.700 35.800 169.600 35.700 169.600 H 29.900 C 29.800 169.600 29.900 169.700 29.900 169.600 V 166.700 C 29.900 166.645 29.855 166.600 29.800 166.600 H 21.800 H 18.800 C 18.745 166.600 18.700 166.645 18.700 166.700 V 169.700 V 176.700 C 18.700 176.755 18.745 176.800 18.800 176.800 H 21.700 C 21.800 176.800 21.700 176.700 21.700 176.800 V 182.600 C 21.700 182.700 21.800 182.600 21.700 182.600 H 18.800 C 18.745 182.600 18.700 182.645 18.700 182.700 V 189.700 C 18.700 189.755 18.745 189.800 18.800 189.800 H 21.800 Z" stroke="rgb(0,0,0)" stroke-width="0.20" />
  <path d="M 98.700 179.200 H 97.300 C 97.200 179.200 97.300 179.300 97.300 179.200 V 176.400 C 97.300 176.300 97.200 176.400 97.300 176.400 H 100.100 C 100.200 176.400 100.100 176.300 100.100 176.400 V 179.200 C 100.100 179.300 100.200 179.200 100.100 179.200 H 98.700 Z" stroke="rgb(0,0,255)" stroke-width="0.20" />
  <path d="M 105.000 179.200 H 103.600 C 103.500 179.200 103.600 179.300 103.600 179.200 V 176.400 C 103.600 176.300 103.500 176.400 103.600 176.400 H 106.400 C 106.500 176.400 106.400 176.300 106.400 176.400 V 179.200 C 106.400 179.300 106.500 179.200 106.400 179.200 H 105.000 Z" stroke="rgb(0,0,255)" stroke-width="0.20" />
</g>
<g id="p-6" style="fill:none;stroke-linecap:round;stroke-linejoin:round;">
  <path d="M 123.500 189.800 H 217.500 C 217.555 189.800 217.600 189.755 217.600 189.700 V 182.800 C 217.600 182.700 217.500 182.800 217.600 182.800 H 220.500 C 220.555 182.800 220.600 182.755 220.600 182.700 V 176.700 C 220.600 176.645 220.555 176.600 220.500 176.600 H 217.600 C 217.500 176.600 217.600 176.700 217.600 176.600 V 169.700 V 166.700 C 217.600 166.645 217.555 166.600 217.500 166.600 H 209.500 C 209.445 166.600 209.400 166.645 209.400 166.700 V 169.600 C 209.400 169.700 209.500 169.600 209.400 169.600 H 203.600 C 203.500 169.600 203.600 169.700 203.600 169.600 V 166.700 C 203.600 166.645 203.555 166.600 203.500 166.600 H 197.500 C 197.445 166.600 197.400 166.645 197.400 166.700 V 169.600 C 197.400 169.700 197.500 169.600 197.400 169.600 H 191.600 C 191.500 169.600 191.600 169.700 191.600 169.600 V 166.700 C 191.600 166.645 191.555 166.600 191.500 166.600 H 185.500 C 185.445 166.600 185.400 166.645 185.400 166.700 V 169.600 C 185.400 169.700 185.500 169.600 185.400 169.600 H 179.600 C 179.500 169.600 179.600 169.700 179.600 169.600 V 166.700 C 179.600 166.645 179.555 166.600 179.500 166.600 H 173.500 C 173.445 166.600 173.400 166.645 173.400 166.700 V 169.600 C 173.400 169.700 173.500 169.600 173.400 169.600 H 167.600 C 167.500 169.600 167.600 169.700 167.600 169.600 V 166.700 C 167.600 166.645 167.555 166.600 167.500 166.600 H 161.500 C 161.445 166.600 161.400 166.645 161.400 166.700 V 169.600 C 161.400 169.700 161.500 169.600 161.400 169.600 H 155.600 C 155.500 169.600 155.600 169.700 155.600 169.600 V 166.700 C 155.600 166.645 155.555 166.600 155.500 166.600 H 149.500 C 149.445 166.600 149.400 166.645 149.400 166.700 V 169.600 C 149.400 169.700 149.500 169.600 149.400 169.600 H 143.600 C 143.500 169.600 143.600 169.700 143.600 169.600 V 166.700 C 143.600 166.645 143.555 166.600 143.500 166.600 H 137.500 C 137.445 166.600 137.400 166.645 137.400 166.700 V 169.600 C 137.400 169.700 137.500 169.600 137.400 169.600 H 131.600 C 131.500 169.600 131.600 169.700 131.600 169.600 V 166.700 C 131.600 166.645 131.555 166.600 131.500 166.600 H 123.500 C 123.445 166.600 123.400 166.645 123.400 166.700 V 169.700 V 176.600 C 123.400 176.700 123.500 176.600 123.400 176.600 H 120.500 C 120.445 176.600 120.400 176.645 120.400 176.700 V 182.700 C 120.400 182.755 120.445 182.800 120.500 182.800 H 123.400 C 123.500 182.800 123.400 182.700 123.400 182.800 V 189.700 C 123.400 189.755 123.445 189.800 123.500 189.800 Z" stroke="rgb(0,0,0)" stroke-width="0.20" />
</g>
<g id="p-7" style="fill:none;stroke-linecap:round;stroke-linejoin:round;">
  <path d="M 123.500 165.100 H 217.500 C 217.555 165.100 217.600 165.055 217.600 165.000 V 158.100 C 217.600 158.000 217.500 158.100 217.600 158.100 H 220.500 C 220.555 158.100 220.600 158.055 220.600 158.000 V 152.000 C 220.600 151.945 220.555 151.900 220.500 151.900 H 217.600 C 217.500 151.900 217.600 152.000 217.600 151.900 V 145.000 V 142.000 C 217.600 141.945 217.555 141.900 217.500 141.900 H 209.500 C 209.445 141.900 209.400 141.945 209.400 142.000 V 144.900 C 209.400 145.000 209.500 144.900 209.400 144.900 H 203.600 C 203.500 144.900 203.600 145.000 203.600 144.900 V 142.000 C 203.600 141.945 203.555 141.900 203.500 141.900 H 197.500 C 197.445 141.900 197.400 141.945 197.400 142.000 V 144.900 C 197.400 145.000 197.500 144.900 197.400 144.900 H 191.600 C 191.500 144.900 191.600 145.000 191.600 144.900 V 142.000 C 191.600 141.945 191.555 141.900 191.500 141.900 H 185.500 C 185.445 141.900 185.400 141.945 185.400 142.000 V 144.900 C 185.400 145.000 185.500 144.900 185.400 144.900 H 179.600 C 179.500 144.900 179.600 145.000 179.600 144.900 V 142.000 C 179.600 141.945 179.555 141.900 179.500 141.900 H 173.500 C 173.445 141.900 173.400 141.945 173.400 142.000 V 144.900 C 173.400 145.000 173.500 144.900 173.400 144.900 H 167.600 C 167.500 144.900 167.600 145.000 167.600 144.900 V 142.000 C 167.600 141.945 167.555 141.900 167.500 141.900 H 161.500 C 161.445 141.900 161.400 141.945 161.400 142.000 V 144.900 C 161.400 145.000 161.500 144.900 161.400 144.900 H 155.600 C 155.500 144.900 155.600 145.000 155.600 144.900 V 142.000 C 155.600 141.945 155.555 141.900 155.500 141.900 H 149.500 C 149.445 141.900 149.400 141.945 149.400 142.000 V 144.900 C 149.400 145.000 149.500 144.900 149.400 144.900 H 143.600 C 143.500 144.900 143.600 145.000 143.600 144.900 V 142.000 C 143.600 141.945 143.555 141.900 143.500 141.900 H 137.500 C 137.445 141.900 137.400 141.945 137.400 142.000 V 144.900 C 137.400 145.000 137.500 144.900 137.400 144.900 H 131.600 C 131.500 144.900 131.600 145.000 131.600 144.900 V 142.000 C 131.600 141.945 131.555 141.900 131.500 141.900 H 123.500 C 123.445 141.900 123.400 141.945 123.400 142.000 V 145.000 V 151.900 C 123.400 152.000 123.500 151.900 123.400 151.900 H 120.500 C 120.445 151.900 120.400 151.945 120.400 152.000 V 158.000 C 120.400 158.055 120.445 158.100 120.500 158.100 H 123.400 C 123.500 158.100 123.400 158.000 123.400 158.100 V 165.000 C 123.400 165.055 123.445 165.100 123.500 165.100 Z" stroke="rgb(0,0,0)" stroke-width="0.20" />
</g>
<g id="p-8" style="fill:none;stroke-linecap:round;stroke-linejoin:round;">
  <path d="M 21.800 165.100 H 115.800 H 118.800 C 118.855 165.100 118.900 165.055 118.900 165.000 V 158.000 C 118.900 157.945 118.855 157.900 118.800 157.900 H 115.900 C 115.800 157.900 115.900 158.000 115.900 157.900 V 152.100 C 115.900 152.000 115.800 152.100 115.900 152.100 H 118.800 C 118.855 152.100 118.900 152.055 118.900 152.000 V 145.000 V 142.000 C 118.900 141.945 118.855 141.900 118.800 141.900 H 115.800 H 107.800 C 107.745 141.900 107.700 141.945 107.700 142.000 V 144.900 C 107.700 145.000 107.800 144.900 107.700 144.900 H 101.900 C 101.800 144.900 101.900 145.000 101.900 144.900 V 142.000 C 101.900 141.945 101.855 141.900 101.800 141.900 H 95.800 C 95.745 141.900 95.700 141.945 95.700 142.000 V 144.900 C 95.700 145.000 95.800 144.900 95.700 144.900 H 89.900 C 89.800 144.900 89.900 145.000 89.900 144.900 V 142.000 C 89.900 141.945 89.855 141.900 89.800 141.900 H 83.800 C 83.745 141.900 83.700 141.945 83.700 142.000 V 144.900 C 83.700 145.000 83.800 144.900 83.700 144.900 H 77.900 C 77.800 144.900 77.900 145.000 77.900 144.900 V 142.000 C 77.900 141.945 77.855 141.900 77.800 141.900 H 71.800 C 71.745 141.900 71.700 141.945 71.700 142.000 V 144.900 C 71.700 145.000 71.800 144.900 71.700 144.900 H 65.900 C 65.800 144.900 65.900 145.000 65.900 144.900 V 142.000 C 65.900 141.945 65.855 141.900 65.800 141.900 H 59.800 C 59.745 141.900 59.700 141.945 59.700 142.000 V 144.900 C 59.700 145.000 59.800 144.900 59.700 144.900 H 53.900 C 53.800 144.900 53.900 145.000 53.900 144.900 V 142.000 C 53.900 141.945 53.855 141.900 53.800 141.900 H 47.800 C 47.745 141.900 47.700 141.945 47.700 142.000 V 144.900 C 47.700 145.000 47.800 144.900 47.700 144.900 H 41.900 C 41.800 144.900 41.900 145.000 41.900 144.900 V 142.000 C 41.900 141.945 41.855 141.900 41.800 141.900 H 35.800 C 35.745 141.900 35.700 141.945 35.700 142.000 V 144.900 C 35.700 145.000 35.800 144.900 35.700 144.900 H 29.900 C 29.800 144.900 29.900 145.000 29.900 144.900 V 142.000 C 29.900 141.945 29.855 141.900 29.800 141.900 H 21.800 H 18.800 C 18.745 141.900 18.700 141.945 18.700 142.000 V 145.000 V 152.000 C 18.700 152.055 18.745 152.100 18.800 152.100 H 21.700 C 21.800 152.100 21.700 152.000 21.700 152.100 V 157.900 C 21.700 158.000 21.800 157.900 21.700 157.900 H 18.800 C 18.745 157.900 18.700 157.945 18.700 158.000 V 165.000 C 18.700 165.055 18.745 165.100 18.800 165.100 H 21.800 Z" stroke="rgb(0,0,0)" stroke-width="0.20" />
</g>
<g id="p-9" style="fill:none;stroke-linecap:round;stroke-linejoin:round;">
  <path d="M 123.500 137.400 H 131.400 C 131.500 137.400 131.400 137.300 131.400 137.400 V 140.300 C 131.400 140.355 131.445 140.400 131.500 140.400 H 137.500 C 137.555 140.400 137.600 140.355 137.600 140.300 V 137.400 C 137.600 137.300 137.500 137.400 137.600 137.400 H 143.400 C 143.500 137.400 143.400 137.300 143.400 137.400 V 140.300 C 143.400 140.355 143.445 140.400 143.500 140.400 H 149.500 C 149.555 140.400 149.600 140.355 149.600 140.300 V 137.400 C 149.600 137.300 149.500 137.400 149.600 137.400 H 155.400 C 155.500 137.400 155.400 137.300 155.400 137.400 V 140.300 C 155.400 140.355 155.445 140.400 155.500 140.400 H 161.500 C 161.555 140.400 161.600 140.355 161.600 140.300 V 137.400 C 161.600 137.300 161.500 137.400 161.600 137.400 H 167.400 C 167.500 137.400 167.400 137.300 167.400 137.400 V 140.300 C 167.400 140.355 167.445 140.400 167.500 140.400 H 173.500 C 173.555 140.400 173.600 140.355 173.600 140.300 V 137.400 C 173.600 137.300 173.500 137.400 173.600 137.400 H 179.400 C 179.500 137.400 179.400 137.300 179.400 137.400 V 140.300 C 179.400 140.355 179.445 140.400 179.500 140.400 H 185.500 C 185.555 140.400 185.600 140.355 185.600 140.300 V 137.400 C 185.600 137.300 185.500 137.400 185.600 137.400 H 191.400 C 191.500 137.400 191.400 137.300 191.400 137.400 V 140.300 C 191.400 140.355 191.445 140.400 191.500 140.400 H 197.500 C 197.555 140.400 197.600 140.355 197.600 140.300 V 137.400 C 197.600 137.300 197.500 137.400 197.600 137.400 H 203.400 C 203.500 137.400 203.400 137.300 203.400 137.400 V 140.300 C 203.400 140.355 203.445 140.400 203.500 140.400 H 209.500 C 209.555 140.400 209.600 140.355 209.600 140.300 V 137.400 C 209.600 137.300 209.500 137.400 209.600 137.400 H 217.500 C 217.555 137.400 217.600 137.355 217.600 137.300 V 129.400 C 217.600 129.300 217.500 129.400 217.600 129.400 H 220.500 C 220.555 129.400 220.600 129.355 220.600 129.300 V 123.300 C 220.600 123.245 220.555 123.200 220.500 123.200 H 217.600 C 217.500 123.200 217.600 123.300 217.600 123.200 V 117.400 C 217.600 117.300 217.500 117.400 217.600 117.400 H 220.500 C 220.555 117.400 220.600 117.355 220.600 117.300 V 111.300 C 220.600 111.245 220.555 111.200 220.500 111.200 H 217.600 C 217.500 111.200 217.600 111.300 217.600 111.200 V 105.400 C 217.600 105.300 217.500 105.400 217.600 105.400 H 220.500 C 220.555 105.400 220.600 105.355 220.600 105.300 V 99.300 C 220.600 99.245 220.555 99.200 220.500 99.200 H 217.600 C 217.500 99.200 217.600 99.300 217.600 99.200 V 93.400 C 217.600 93.300 217.500 93.400 217.600 93.400 H 220.500 C 220.555 93.400 220.600 93.355 220.600 93.300 V 87.300 C 220.600 87.245 220.555 87.200 220.500 87.200 H 217.600 C 217.500 87.200 217.600 87.300 217.600 87.200 V 81.400 C 217.600 81.300 217.500 81.400 217.600 81.400 H 220.500 C 220.555 81.400 220.600 81.355 220.600 81.300 V 75.300 C 220.600 75.245 220.555 75.200 220.500 75.200 H 217.600 C 217.500 75.200 217.600 75.300 217.600 75.200 V 69.400 C 217.600 69.300 217.500 69.400 217.600 69.400 H 220.500 C 220.555 69.400 220.600 69.355 220.600 69.300 V 63.300 C 220.600 63.245 220.555 63.200 220.500 63.200 H 217.600 C 217.500 63.200 217.600 63.300 217.600 63.200 V 57.400 C 217.600 57.300 217.500 57.400 217.600 57.400 H 220.500 C 220.555 57.400 220.600 57.355 220.600 57.300 V 51.300 C 220.600 51.245 220.555 51.200 220.500 51.200 H 217.600 C 217.500 51.200 217.600 51.300 217.600 51.200 V 43.300 C 217.600 43.245 217.555 43.200 217.500 43.200 H 209.600 C 209.500 43.200 209.600 43.300 209.600 43.200 V 40.300 C 209.600 40.245 209.555 40.200 209.500 40.200 H 203.500 C 203.445 40.200 203.400 40.245 203.400 40.300 V 43.200 C 203.400 43.300 203.500 43.200 203.400 43.200 H 197.600 C 197.500 43.200 197.600 43.300 197.600 43.200 V 40.300 C 197.600 40.245 197.555 40.200 197.500 40.200 H 191.500 C 191.445 40.200 191.400 40.245 191.400 40.300 V 43.200 C 191.400 43.300 191.500 43.200 191.400 43.200 H 185.600 C 185.500 43.200 185.600 43.300 185.600 43.200 V 40.300 C 185.600 40.245 185.555 40.200 185.500 40.200 H 179.500 C 179.445 40.200 179.400 40.245 179.400 40.300 V 43.200 C 179.400 43.300 179.500 43.200 179.400 43.200 H 173.600 C 173.500 43.200 173.600 43.300 173.600 43.200 V 40.300 C 173.600 40.245 173.555 40.200 173.500 40.200 H 167.500 C 167.445 40.200 167.400 40.245 167.400 40.300 V 43.200 C 167.400 43.300 167.500 43.200 167.400 43.200 H 161.600 C 161.500 43.200 161.600 43.300 161.600 43.200 V 40.300 C 161.600 40.245 161.555 40.200 161.500 40.200 H 155.500 C 155.445 40.200 155.400 40.245 155.400 40.300 V 43.200 C 155.400 43.300 155.500 43.200 155.400 43.200 H 149.600 C 149.500 43.200 149.600 43.300 149.600 43.200 V 40.300 C 149.600 40.245 149.555 40.200 149.500 40.200 H 143.500 C 143.445 40.200 143.400 40.245 143.400 40.300 V 43.200 C 143.400 43.300 143.500 43.200 143.400 43.200 H 137.600 C 137.500 43.200 137.600 43.300 137.600 43.200 V 40.300 C 137.600 40.245 137.555 40.200 137.500 40.200 H 131.500 C 131.445 40.200 131.400 40.245 131.400 40.300 V 43.200 C 131.400 43.300 131.500 43.200 131.400 43.200 H 123.500 C 123.445 43.200 123.400 43.245 123.400 43.300 V 51.200 C 123.400 51.300 123.500 51.200 123.400 51.200 H 120.500 C 120.445 51.200 120.400 51.245 120.400 51.300 V 57.300 C 120.400 57.355 120.445 57.400 120.500 57.400 H 123.400 C 123.500 57.400 123.400 57.300 123.400 57.400 V 63.200 C 123.400 63.300 123.500 63.200 123.400 63.200 H 120.500 C 120.445 63.200 120.400 63.245 120.400 63.300 V 69.300 C 120.400 69.355 120.445 69.400 120.500 69.400 H 123.400 C 123.500 69.400 123.400 69.300 123.400 69.400 V 75.200 C 123.400 75.300 123.500 75.200 123.400 75.200 H 120.500 C 120.445 75.200 120.400 75.245 120.400 75.300 V 81.300 C 120.400 81.355 120.445 81.400 120.500 81.400 H 123.400 C 123.500 81.400 123.400 81.300 123.400 81.400 V 87.200 C 123.400 87.300 123.500 87.200 123.400 87.200 H 120.500 C 120.445 87.200 120.400 87.245 120.400 87.300 V 93.300 C 120.400 93.355 120.445 93.400 120.500 93.400 H 123.400 C 123.500 93.400 123.400 93.300 123.400 93.400 V 99.200 C 123.400 99.300 123.500 99.200 123.400 99.200 H 120.500 C 120.445 99.200 120.400 99.245 120.400 99.300 V 105.300 C 120.400 105.355 120.445 105.400 120.500 105.400 H 123.400 C 123.500 105.400 123.400 105.300 123.400 105.400 V 111.200 C 123.400 111.300 123.500 111.200 123.400 111.200 H 120.500 C 120.445 111.200 120.400 111.245 120.400 111.300 V 117.300 C 120.400 117.355 120.445 117.400 120.500 117.400 H 123.400 C 123.500 117.400 123.400 117.300 123.400 117.400 V 123.200 C 123.400 123.300 123.500 123.200 123.400 123.200 H 120.500 C 120.445 123.200 120.400 123.245 120.400 123.300 V 129.300 C 120.400 129.355 120.445 129.400 120.500 129.400 H 123.400 C 123.500 129.400 123.400 129.300 123.400 129.400 V 137.300 C 123.400 137.355 123.445 137.400 123.500 137.400 Z" stroke="rgb(0,0,0)" stroke-width="0.20" />
</g>
<g id="p-10" style="fill:none;stroke-linecap:round;stroke-linejoin:round;">
  <path d="M 21.800 137.400 H 29.700 C 29.800 137.400 29.700 137.300 29.700 137.400 V 140.300 C 29.700 140.355 29.745 140.400 29.800 140.400 H 35.800 C 35.855 140.400 35.900 140.355 35.900 140.300 V 137.400 C 35.900 137.300 35.800 137.400 35.900 137.400 H 41.700 C 41.800 137.400 41.700 137.300 41.700 137.400 V 140.300 C 41.700 140.355 41.745 140.400 41.800 140.400 H 47.800 C 47.855 140.400 47.900 140.355 47.900 140.300 V 137.400 C 47.900 137.300 47.800 137.400 47.900 137.400 H 53.700 C 53.800 137.400 53.700 137.300 53.700 137.400 V 140.300 C 53.700 140.355 53.745 140.400 53.800 140.400 H 59.800 C 59.855 140.400 59.900 140.355 59.900 140.300 V 137.400 C 59.900 137.300 59.800 137.400 59.900 137.400 H 65.700 C 65.800 137.400 65.700 137.300 65.700 137.400 V 140.300 C 65.700 140.355 65.745 140.400 65.800 140.400 H 71.800 C 71.855 140.400 71.900 140.355 71.900 140.300 V 137.400 C 71.900 137.300 71.800 137.400 71.900 137.400 H 77.700 C 77.800 137.400 77.700 137.300 77.700 137.400 V 140.300 C 77.700 140.355 77.745 140.400 77.800 140.400 H 83.800 C 83.855 140.400 83.900 140.355 83.900 140.300 V 137.400 C 83.900 137.300 83.800 137.400 83.900 137.400 H 89.700 C 89.800 137.400 89.700 137.300 89.700 137.400 V 140.300 C 89.700 140.355 89.745 140.400 89.800 140.400 H 95.800 C 95.855 140.400 95.900 140.355 95.900 140.300 V 137.400 C 95.900 137.300 95.800 137.400 95.900 137.400 H 101.700 C 101.800 137.400 101.700 137.300 101.700 137.400 V 140.300 C 101.700 140.355 101.745 140.400 101.800 140.400 H 107.800 C 107.855 140.400 107.900 140.355 107.900 140.300 V 137.400 C 107.900 137.300 107.800 137.400 107.900 137.400 H 115.800 C 115.855 137.400 115.900 137.355 115.900 137.300 V 129.400 C 115.900 129.300 115.800 129.400 115.900 129.400 H 118.800 C 118.855 129.400 118.900 129.355 118.900 129.300 V 123.300 C 118.900 123.245 118.855 123.200 118.800 123.200 H 115.900 C 115.800 123.200 115.900 123.300 115.900 123.200 V 117.400 C 115.900 117.300 115.800 117.400 115.900 117.400 H 118.800 C 118.855 117.400 118.900 117.355 118.900 117.300 V 111.300 C 118.900 111.245 118.855 111.200 118.800 111.200 H 115.900 C 115.800 111.200 115.900 111.300 115.900 111.200 V 105.400 C 115.900 105.300 115.800 105.400 115.900 105.400 H 118.800 C 118.855 105.400 118.900 105.355 118.900 105.300 V 99.300 C 118.900 99.245 118.855 99.200 118.800 99.200 H 115.900 C 115.800 99.200 115.900 99.300 115.900 99.200 V 93.400 C 115.900 93.300 115.800 93.400 115.900 93.400 H 118.800 C 118.855 93.400 118.900 93.355 118.900 93.300 V 87.300 C 118.900 87.245 118.855 87.200 118.800 87.200 H 115.900 C 115.800 87.200 115.900 87.300 115.900 87.200 V 81.400 C 115.900 81.300 115.800 81.400 115.900 81.400 H 118.800 C 118.855 81.400 118.900 81.355 118.900 81.300 V 75.300 C 118.900 75.245 118.855 75.200 118.800 75.200 H 115.900 C 115.800 75.200 115.900 75.300 115.900 75.200 V 69.400 C 115.900 69.300 115.800 69.400 115.900 69.400 H 118.800 C 118.855 69.400 118.900 69.355 118.900 69.300 V 63.300 C 118.900 63.245 118.855 63.200 118.800 63.200 H 115.900 C 115.800 63.200 115.900 63.300 115.900 63.200 V 57.400 C 115.900 57.300 115.800 57.400 115.900 57.400 H 118.800 C 118.855 57.400 118.900 57.355 118.900 57.300 V 51.300 C 118.900 51.245 118.855 51.200 118.800 51.200 H 115.900 C 115.800 51.200 115.900 51.300 115.900 51.200 V 43.300 C 115.900 43.245 115.855 43.200 115.800 43.200 H 107.900 C 107.800 43.200 107.900 43.300 107.900 43.200 V 40.300 C 107.900 40.245 107.855 40.200 107.800 40.200 H 101.800 C 101.745 40.200 101.700 40.245 101.700 40.300 V 43.200 C 101.700 43.300 101.800 43.200 101.700 43.200 H 95.900 C 95.800 43.200 95.900 43.300 95.900 43.200 V 40.300 C 95.900 40.245 95.855 40.200 95.800 40.200 H 89.800 C 89.745 40.200 89.700 40.245 89.700 40.300 V 43.200 C 89.700 43.300 89.800 43.200 89.700 43.200 H 83.900 C 83.800 43.200 83.900 43.300 83.900 43.200 V 40.300 C 83.900 40.245 83.855 40.200 83.800 40.200 H 77.800 C 77.745 40.200 77.700 40.245 77.700 40.300 V 43.200 C 77.700 43.300 77.800 43.200 77.700 43.200 H 71.900 C 71.800 43.200 71.900 43.300 71.900 43.200 V 40.300 C 71.900 40.245 71.855 40.200 71.800 40.200 H 65.800 C 65.745 40.200 65.700 40.245 65.700 40.300 V 43.200 C 65.700 43.300 65.800 43.200 65.700 43.200 H 59.900 C 59.800 43.200 59.900 43.300 59.900 43.200 V 40.300 C 59.900 40.245 59.855 40.200 59.800 40.200 H 53.800 C 53.745 40.200 53.700 40.245 53.700 40.300 V 43.200 C 53.700 43.300 53.800 43.200 53.700 43.200 H 47.900 C 47.800 43.200 47.900 43.300 47.900 43.200 V 40.300 C 47.900 40.245 47.855 40.200 47.800 40.200 H 41.800 C 41.745 40.200 41.700 40.245 41.700 40.300 V 43.200 C 41.700 43.300 41.800 43.200 41.700 43.200 H 35.900 C 35.800 43.200 35.900 43.300 35.900 43.200 V 40.300 C 35.900 40.245 35.855 40.200 35.800 40.200 H 29.800 C 29.745 40.200 29.700 40.245 29.700 40.300 V 43.200 C 29.700 43.300 29.800 43.200 29.700 43.200 H 21.800 C 21.745 43.200 21.700 43.245 21.700 43.300 V 51.200 C 21.700 51.300 21.800 51.200 21.700 51.200 H 18.800 C 18.745 51.200 18.700 51.245 18.700 51.300 V 57.300 C 18.700 57.355 18.745 57.400 18.800 57.400 H 21.700 C 21.800 57.400 21.700 57.300 21.700 57.400 V 63.200 C 21.700 63.300 21.800 63.200 21.700 63.200 H 18.800 C 18.745 63.200 18.700 63.245 18.700 63.300 V 69.300 C 18.700 69.355 18.745 69.400 18.800 69.400 H 21.700 C 21.800 69.400 21.700 69.300 21.700 69.400 V 75.200 C 21.700 75.300 21.800 75.200 21.700 75.200 H 18.800 C 18.745 75.200 18.700 75.245 18.700 75.300 V 81.300 C 18.700 81.355 18.745 81.400 18.800 81.400 H 21.700 C 21.800 81.400 21.700 81.300 21.700 81.400 V 87.200 C 21.700 87.300 21.800 87.200 21.700 87.200 H 18.800 C 18.745 87.200 18.700 87.245 18.700 87.300 V 93.300 C 18.700 93.355 18.745 93.400 18.800 93.400 H 21.700 C 21.800 93.400 21.700 93.300 21.700 93.400 V 99.200 C 21.700 99.300 21.800 99.200 21.700 99.200 H 18.800 C 18.745 99.200 18.700 99.245 18.700 99.300 V 105.300 C 18.700 105.355 18.745 105.400 18.800 105.400 H 21.700 C 21.800 105.400 21.700 105.300 21.700 105.400 V 111.200 C 21.700 111.300 21.800 111.200 21.700 111.200 H 18.800 C 18.745 111.200 18.700 111.245 18.700 111.300 V 117.300 C 18.700 117.355 18.745 117.400 18.800 117.400 H 21.700 C 21.800 117.400 21.700 117.300 21.700 117.400 V 123.200 C 21.700 123.300 21.800 123.200 21.700 123.200 H 18.800 C 18.745 123.200 18.700 123.245 18.700 123.300 V 129.300 C 18.700 129.355 18.745 129.400 18.800 129.400 H 21.700 C 21.800 129.400 21.700 129.300 21.700 129.400 V 137.300 C 21.700 137.355 21.745 137.400 21.800 137.400 Z" stroke="rgb(0,0,0)" stroke-width="0.20" />
</g>
<g id="p-11" style="fill:none;stroke-linecap:round;stroke-linejoin:round;">
  <path d="M 26.300 34.200 C 26.300 34.488 26.217 34.769 26.062 35.011 C 25.906 35.253 25.685 35.445 25.423 35.564 C 25.162 35.684 24.871 35.726 24.587 35.685 C 24.302 35.644 24.035 35.522 23.818 35.334 C 23.600 35.145 23.442 34.899 23.361 34.623 C 23.280 34.347 23.280 34.053 23.361 33.777 C 23.442 33.501 23.600 33.255 23.818 33.066 C 24.035 32.878 24.302 32.756 24.587 32.715 C 24.871 32.674 25.162 32.716 25.423 32.836 C 25.685 32.955 25.906 33.147 26.062 33.389 C 26.217 33.631 26.300 33.912 26.300 34.200 Z" stroke="rgb(0,0,255)" stroke-width="0.20" />
  <path d="M 24.800 38.700 C 25.607 38.700 26.401 38.487 27.100 38.084 C 27.799 37.680 28.380 37.099 28.784 36.400 C 29.187 35.701 29.400 34.907 29.400 34.100 C 29.400 33.293 29.187 32.499 28.784 31.800 C 28.380 31.101 27.799 30.520 27.100 30.116 C 26.401 29.713 25.607 29.500 24.800 29.500 C 24.855 29.500 24.900 29.545 24.900 29.600 V 26.600 C 24.900 26.545 24.855 26.500 24.800 26.500 H 21.900 C 21.800 26.500 21.900 26.600 21.900 26.500 V 23.700 C 21.900 23.600 21.800 23.700 21.900 23.700 H 24.800 C 24.855 23.700 24.900 23.655 24.900 23.600 V 20.600 C 24.900 20.545 24.855 20.500 24.800 20.500 H 21.800 C 21.256 20.500 20.721 20.643 20.250 20.915 C 19.779 21.187 19.387 21.579 19.115 22.050 C 18.843 22.521 18.700 23.056 18.700 23.600 V 32.600 C 18.700 33.671 18.982 34.723 19.517 35.650 C 20.053 36.577 20.823 37.347 21.750 37.883 C 22.677 38.418 23.729 38.700 24.800 38.700 Z" stroke="rgb(0,0,0)" stroke-width="0.20" />
  <path d="M 25.000 14.500 C 25.000 14.212 25.083 13.931 25.238 13.689 C 25.394 13.447 25.615 13.255 25.877 13.136 C 26.138 13.016 26.429 12.974 26.713 13.015 C 26.998 13.056 27.265 13.178 27.482 13.366 C 27.700 13.555 27.858 13.801 27.939 14.077 C 28.020 14.353 28.020 14.647 27.939 14.923 C 27.858 15.199 27.700 15.445 27.482 15.634 C 27.265 15.822 26.998 15.944 26.713 15.985 C 26.429 16.026 26.138 15.984 25.877 15.864 C 25.615 15.745 25.394 15.553 25.238 15.311 C 25.083 15.069 25.000 14.788 25.000 14.500 Z" stroke="rgb(0,0,255)" stroke-width="0.20" />
  <path d="M 26.500 10.000 C 25.693 10.000 24.899 10.213 24.200 10.616 C 23.501 11.020 22.920 11.601 22.516 12.300 C 22.113 12.999 21.900 13.793 21.900 14.600 C 21.900 15.407 22.113 16.201 22.516 16.900 C 22.920 17.599 23.501 18.180 24.200 18.584 C 24.899 18.987 25.693 19.200 26.500 19.200 C 26.445 19.200 26.400 19.155 26.400 19.100 V 22.100 C 26.400 22.155 26.445 22.200 26.500 22.200 H 29.400 C 29.500 22.200 29.400 22.100 29.400 22.200 V 25.000 C 29.400 25.100 29.500 25.000 29.400 25.000 H 26.500 C 26.445 25.000 26.400 25.045 26.400 25.100 V 28.100 C 26.400 28.155 26.445 28.200 26.500 28.200 H 29.500 C 30.044 28.200 30.579 28.057 31.050 27.785 C 31.521 27.513 31.913 27.121 32.185 26.650 C 32.457 26.179 32.600 25.644 32.600 25.100 V 16.100 C 32.600 15.029 32.318 13.977 31.783 13.050 C 31.247 12.123 30.477 11.353 29.550 10.817 C 28.623 10.282 27.571 10.000 26.500 10.000 Z" stroke="rgb(0,0,0)" stroke-width="0.20" />
  <path d="M 41.700 34.200 C 41.700 34.488 41.617 34.769 41.462 35.011 C 41.306 35.253 41.085 35.445 40.823 35.564 C 40.562 35.684 40.271 35.726 39.987 35.685 C 39.702 35.644 39.435 35.522 39.218 35.334 C 39.000 35.145 38.842 34.899 38.761 34.623 C 38.680 34.347 38.680 34.053 38.761 33.777 C 38.842 33.501 39.000 33.255 39.218 33.066 C 39.435 32.878 39.702 32.756 39.987 32.715 C 40.271 32.674 40.562 32.716 40.823 32.836 C 41.085 32.955 41.306 33.147 41.462 33.389 C 41.617 33.631 41.700 33.912 41.700 34.200 Z" stroke="rgb(0,0,255)" stroke-width="0.20" />
  <path d="M 40.200 38.700 C 41.007 38.700 41.801 38.487 42.500 38.084 C 43.199 37.680 43.780 37.099 44.184 36.400 C 44.587 35.701 44.800 34.907 44.800 34.100 C 44.800 33.293 44.587 32.499 44.184 31.800 C 43.780 31.101 43.199 30.520 42.500 30.116 C 41.801 29.713 41.007 29.500 40.200 29.500 C 40.255 29.500 40.300 29.545 40.300 29.600 V 26.600 C 40.300 26.545 40.255 26.500 40.200 26.500 H 37.300 C 37.200 26.500 37.300 26.600 37.300 26.500 V 23.700 C 37.300 23.600 37.200 23.700 37.300 23.700 H 40.200 C 40.255 23.700 40.300 23.655 40.300 23.600 V 20.600 C 40.300 20.545 40.255 20.500 40.200 20.500 H 37.200 C 36.656 20.500 36.121 20.643 35.650 20.915 C 35.179 21.187 34.787 21.579 34.515 22.050 C 34.243 22.521 34.100 23.056 34.100 23.600 V 32.600 C 34.100 33.671 34.382 34.723 34.917 35.650 C 35.453 36.577 36.223 37.347 37.150 37.883 C 38.077 38.418 39.129 38.700 40.200 38.700 Z" stroke="rgb(0,0,0)" stroke-width="0.20" />
  <path d="M 40.400 14.500 C 40.400 14.212 40.483 13.931 40.638 13.689 C 40.794 13.447 41.015 13.255 41.277 13.136 C 41.538 13.016 41.829 12.974 42.113 13.015 C 42.398 13.056 42.665 13.178 42.882 13.366 C 43.100 13.555 43.258 13.801 43.339 14.077 C 43.420 14.353 43.420 14.647 43.339 14.923 C 43.258 15.199 43.100 15.445 42.882 15.634 C 42.665 15.822 42.398 15.944 42.113 15.985 C 41.829 16.026 41.538 15.984 41.277 15.864 C 41.015 15.745 40.794 15.553 40.638 15.311 C 40.483 15.069 40.400 14.788 40.400 14.500 Z" stroke="rgb(0,0,255)" stroke-width="0.20" />
  <path d="M 41.900 10.000 C 41.093 10.000 40.299 10.213 39.600 10.616 C 38.901 11.020 38.320 11.601 37.916 12.300 C 37.513 12.999 37.300 13.793 37.300 14.600 C 37.300 15.407 37.513 16.201 37.916 16.900 C 38.320 17.599 38.901 18.180 39.600 18.584 C 40.299 18.987 41.093 19.200 41.900 19.200 C 41.845 19.200 41.800 19.155 41.800 19.100 V 22.100 C 41.800 22.155 41.845 22.200 41.900 22.200 H 44.800 C 44.900 22.200 44.800 22.100 44.800 22.200 V 25.000 C 44.800 25.100 44.900 25.000 44.800 25.000 H 41.900 C 41.845 25.000 41.800 25.045 41.800 25.100 V 28.100 C 41.800 28.155 41.845 28.200 41.900 28.200 H 44.900 C 45.444 28.200 45.979 28.057 46.450 27.785 C 46.921 27.513 47.313 27.121 47.585 26.650 C 47.857 26.179 48.000 25.644 48.000 25.100 V 16.100 C 48.000 15.029 47.718 13.977 47.183 13.050 C 46.647 12.123 45.877 11.353 44.950 10.817 C 44.023 10.282 42.971 10.000 41.900 10.000 Z" stroke="rgb(0,0,0)" stroke-width="0.20" />
  <path d="M 57.100 34.200 C 57.100 34.488 57.017 34.769 56.862 35.011 C 56.706 35.253 56.485 35.445 56.223 35.564 C 55.962 35.684 55.671 35.726 55.387 35.685 C 55.102 35.644 54.835 35.522 54.618 35.334 C 54.400 35.145 54.242 34.899 54.161 34.623 C 54.080 34.347 54.080 34.053 54.161 33.777 C 54.242 33.501 54.400 33.255 54.618 33.066 C 54.835 32.878 55.102 32.756 55.387 32.715 C 55.671 32.674 55.962 32.716 56.223 32.836 C 56.485 32.955 56.706 33.147 56.862 33.389 C 57.017 33.631 57.100 33.912 57.100 34.200 Z" stroke="rgb(0,0,255)" stroke-width="0.20" />
  <path d="M 55.600 38.700 C 56.407 38.700 57.201 38.487 57.900 38.084 C 58.599 37.680 59.180 37.099 59.584 36.400 C 59.987 35.701 60.200 34.907 60.200 34.100 C 60.200 33.293 59.987 32.499 59.584 31.800 C 59.180 31.101 58.599 30.520 57.900 30.116 C 57.201 29.713 56.407 29.500 55.600 29.500 C 55.655 29.500 55.700 29.545 55.700 29.600 V 26.600 C 55.700 26.545 55.655 26.500 55.600 26.500 H 52.700 C 52.600 26.500 52.700 26.600 52.700 26.500 V 23.700 C 52.700 23.600 52.600 23.700 52.700 23.700 H 55.600 C 55.655 23.700 55.700 23.655 55.700 23.600 V 20.600 C 55.700 20.545 55.655 20.500 55.600 20.500 H 52.600 C 52.056 20.500 51.521 20.643 51.050 20.915 C 50.579 21.187 50.187 21.579 49.915 22.050 C 49.643 22.521 49.500 23.056 49.500 23.600 V 32.600 C 49.500 33.671 49.782 34.723 50.317 35.650 C 50.853 36.577 51.623 37.347 52.550 37.883 C 53.477 38.418 54.529 38.700 55.600 38.700 Z" stroke="rgb(0,0,0)" stroke-width="0.20" />
  <path d="M 55.800 14.500 C 55.800 14.212 55.883 13.931 56.038 13.689 C 56.194 13.447 56.415 13.255 56.677 13.136 C 56.938 13.016 57.229 12.974 57.513 13.015 C 57.798 13.056 58.065 13.178 58.282 13.366 C 58.500 13.555 58.658 13.801 58.739 14.077 C 58.820 14.353 58.820 14.647 58.739 14.923 C 58.658 15.199 58.500 15.445 58.282 15.634 C 58.065 15.822 57.798 15.944 57.513 15.985 C 57.229 16.026 56.938 15.984 56.677 15.864 C 56.415 15.745 56.194 15.553 56.038 15.311 C 55.883 15.069 55.800 14.788 55.800 14.500 Z" stroke="rgb(0,0,255)" stroke-width="0.20" />
  <path d="M 57.300 10.000 C 56.493 10.000 55.699 10.213 55.000 10.616 C 54.301 11.020 53.720 11.601 53.316 12.300 C 52.913 12.999 52.700 13.793 52.700 14.600 C 52.700 15.407 52.913 16.201 53.316 16.900 C 53.720 17.599 54.301 18.180 55.000 18.584 C 55.699 18.987 56.493 19.200 57.300 19.200 C 57.245 19.200 57.200 19.155 57.200 19.100 V 22.100 C 57.200 22.155 57.245 22.200 57.300 22.200 H 60.200 C 60.300 22.200 60.200 22.100 60.200 22.200 V 25.000 C 60.200 25.100 60.300 25.000 60.200 25.000 H 57.300 C 57.245 25.000 57.200 25.045 57.200 25.100 V 28.100 C 57.200 28.155 57.245 28.200 57.300 28.200 H 60.300 C 60.844 28.200 61.379 28.057 61.850 27.785 C 62.321 27.513 62.713 27.121 62.985 26.650 C 63.257 26.179 63.400 25.644 63.400 25.100 V 16.100 C 63.400 15.029 63.118 13.977 62.583 13.050 C 62.047 12.123 61.277 11.353 60.350 10.817 C 59.423 10.282 58.371 10.000 57.300 10.000 Z" stroke="rgb(0,0,0)" stroke-width="0.20" />
  <path d="M 72.500 34.200 C 72.500 34.488 72.417 34.769 72.262 35.011 C 72.106 35.253 71.885 35.445 71.623 35.564 C 71.362 35.684 71.071 35.726 70.787 35.685 C 70.502 35.644 70.235 35.522 70.018 35.334 C 69.800 35.145 69.642 34.899 69.561 34.623 C 69.480 34.347 69.480 34.053 69.561 33.777 C 69.642 33.501 69.800 33.255 70.018 33.066 C 70.235 32.878 70.502 32.756 70.787 32.715 C 71.071 32.674 71.362 32.716 71.623 32.836 C 71.885 32.955 72.106 33.147 72.262 33.389 C 72.417 33.631 72.500 33.912 72.500 34.200 Z" stroke="rgb(0,0,255)" stroke-width="0.20" />
  <path d="M 71.000 38.700 C 71.807 38.700 72.601 38.487 73.300 38.084 C 73.999 37.680 74.580 37.099 74.984 36.400 C 75.387 35.701 75.600 34.907 75.600 34.100 C 75.600 33.293 75.387 32.499 74.984 31.800 C 74.580 31.101 73.999 30.520 73.300 30.116 C 72.601 29.713 71.807 29.500 71.000 29.500 C 71.055 29.500 71.100 29.545 71.100 29.600 V 26.600 C 71.100 26.545 71.055 26.500 71.000 26.500 H 68.100 C 68.000 26.500 68.100 26.600 68.100 26.500 V 23.700 C 68.100 23.600 68.000 23.700 68.100 23.700 H 71.000 C 71.055 23.700 71.100 23.655 71.100 23.600 V 20.600 C 71.100 20.545 71.055 20.500 71.000 20.500 H 68.000 C 67.456 20.500 66.921 20.643 66.450 20.915 C 65.979 21.187 65.587 21.579 65.315 22.050 C 65.043 22.521 64.900 23.056 64.900 23.600 V 32.600 C 64.900 33.671 65.182 34.723 65.717 35.650 C 66.253 36.577 67.023 37.347 67.950 37.883 C 68.877 38.418 69.929 38.700 71.000 38.700 Z" stroke="rgb(0,0,0)" stroke-width="0.20" />
  <path d="M 71.200 14.500 C 71.200 14.212 71.283 13.931 71.438 13.689 C 71.594 13.447 71.815 13.255 72.077 13.136 C 72.338 13.016 72.629 12.974 72.913 13.015 C 73.198 13.056 73.465 13.178 73.682 13.366 C 73.900 13.555 74.058 13.801 74.139 14.077 C 74.220 14.353 74.220 14.647 74.139 14.923 C 74.058 15.199 73.900 15.445 73.682 15.634 C 73.465 15.822 73.198 15.944 72.913 15.985 C 72.629 16.026 72.338 15.984 72.077 15.864 C 71.815 15.745 71.594 15.553 71.438 15.311 C 71.283 15.069 71.200 14.788 71.200 14.500 Z" stroke="rgb(0,0,255)" stroke-width="0.20" />
  <path d="M 72.700 10.000 C 71.893 10.000 71.099 10.213 70.400 10.616 C 69.701 11.020 69.120 11.601 68.716 12.300 C 68.313 12.999 68.100 13.793 68.100 14.600 C 68.100 15.407 68.313 16.201 68.716 16.900 C 69.120 17.599 69.701 18.180 70.400 18.584 C 71.099 18.987 71.893 19.200 72.700 19.200 C 72.645 19.200 72.600 19.155 72.600 19.100 V 22.100 C 72.600 22.155 72.645 22.200 72.700 22.200 H 75.600 C 75.700 22.200 75.600 22.100 75.600 22.200 V 25.000 C 75.600 25.100 75.700 25.000 75.600 25.000 H 72.700 C 72.645 25.000 72.600 25.045 72.600 25.100 V 28.100 C 72.600 28.155 72.645 28.200 72.700 28.200 H 75.700 C 76.244 28.200 76.779 28.057 77.250 27.785 C 77.721 27.513 78.113 27.121 78.385 26.650 C 78.657 26.179 78.800 25.644 78.800 25.100 V 16.100 C 78.800 15.029 78.518 13.977 77.983 13.050 C 77.447 12.123 76.677 11.353 75.750 10.817 C 74.823 10.282 73.771 10.000 72.700 10.000 Z" stroke="rgb(0,0,0)" stroke-width="0.20" />
  <path d="M 87.900 34.200 C 87.900 34.488 87.817 34.769 87.662 35.011 C 87.506 35.253 87.285 35.445 87.023 35.564 C 86.762 35.684 86.471 35.726 86.187 35.685 C 85.902 35.644 85.635 35.522 85.418 35.334 C 85.200 35.145 85.042 34.899 84.961 34.623 C 84.880 34.347 84.880 34.053 84.961 33.777 C 85.042 33.501 85.200 33.255 85.418 33.066 C 85.635 32.878 85.902 32.756 86.187 32.715 C 86.471 32.674 86.762 32.716 87.023 32.836 C 87.285 32.955 87.506 33.147 87.662 33.389 C 87.817 33.631 87.900 33.912 87.900 34.200 Z" stroke="rgb(0,0,255)" stroke-width="0.20" />
  <path d="M 86.400 38.700 C 87.207 38.700 88.001 38.487 88.700 38.084 C 89.399 37.680 89.980 37.099 90.384 36.400 C 90.787 35.701 91.000 34.907 91.000 34.100 C 91.000 33.293 90.787 32.499 90.384 31.800 C 89.980 31.101 89.399 30.520 88.700 30.116 C 88.001 29.713 87.207 29.500 86.400 29.500 C 86.455 29.500 86.500 29.545 86.500 29.600 V 26.600 C 86.500 26.545 86.455 26.500 86.400 26.500 H 83.500 C 83.400 26.500 83.500 26.600 83.500 26.500 V 23.700 C 83.500 23.600 83.400 23.700 83.500 23.700 H 86.400 C 86.455 23.700 86.500 23.655 86.500 23.600 V 20.600 C 86.500 20.545 86.455 20.500 86.400 20.500 H 83.400 C 82.856 20.500 82.321 20.643 81.850 20.915 C 81.379 21.187 80.987 21.579 80.715 22.050 C 80.443 22.521 80.300 23.056 80.300 23.600 V 32.600 C 80.300 33.671 80.582 34.723 81.117 35.650 C 81.653 36.577 82.423 37.347 83.350 37.883 C 84.277 38.418 85.329 38.700 86.400 38.700 Z" stroke="rgb(0,0,0)" stroke-width="0.20" />
  <path d="M 86.600 14.500 C 86.600 14.212 86.683 13.931 86.838 13.689 C 86.994 13.447 87.215 13.255 87.477 13.136 C 87.738 13.016 88.029 12.974 88.313 13.015 C 88.598 13.056 88.865 13.178 89.082 13.366 C 89.300 13.555 89.458 13.801 89.539 14.077 C 89.620 14.353 89.620 14.647 89.539 14.923 C 89.458 15.199 89.300 15.445 89.082 15.634 C 88.865 15.822 88.598 15.944 88.313 15.985 C 88.029 16.026 87.738 15.984 87.477 15.864 C 87.215 15.745 86.994 15.553 86.838 15.311 C 86.683 15.069 86.600 14.788 86.600 14.500 Z" stroke="rgb(0,0,255)" stroke-width="0.20" />
  <text dominant-baseline="hanging" font-size="4px" style="font-family: sans-serif ; font-weight: normal; font-style: normal; fill: rgb(255,0,0)" text-anchor="middle" transform="matrix( 1.000 0.000 0.000 1.000 33.150 21.700 )">hinges</text><path d="M 88.100 10.000 C 87.293 10.000 86.499 10.213 85.800 10.616 C 85.101 11.020 84.520 11.601 84.116 12.300 C 83.713 12.999 83.500 13.793 83.500 14.600 C 83.500 15.407 83.713 16.201 84.116 16.900 C 84.520 17.599 85.101 18.180 85.800 18.584 C 86.499 18.987 87.293 19.200 88.100 19.200 C 88.045 19.200 88.000 19.155 88.000 19.100 V 22.100 C 88.000 22.155 88.045 22.200 88.100 22.200 H 91.000 C 91.100 22.200 91.000 22.100 91.000 22.200 V 25.000 C 91.000 25.100 91.100 25.000 91.000 25.000 H 88.100 C 88.045 25.000 88.000 25.045 88.000 25.100 V 28.100 C 88.000 28.155 88.045 28.200 88.100 28.200 H 91.100 C 91.644 28.200 92.179 28.057 92.650 27.785 C 93.121 27.513 93.513 27.121 93.785 26.650 C 94.057 26.179 94.200 25.644 94.200 25.100 V 16.100 C 94.200 15.029 93.918 13.977 93.383 13.050 C 92.847 12.123 92.077 11.353 91.150 10.817 C 90.223 10.282 89.171 10.000 88.100 10.000" stroke="rgb(0,0,0)" stroke-width="0.20" />
</g>
</svg>