<?xml version='1.0' encoding='utf-8'?>
<svg height="126.55mm" viewBox="0.0 0.0 120.00 126.55" width="120.00mm" xmlns="http://www.w3.org/2000/svg" xmlns:cc="http://creativecommons.org/ns#" xmlns:dc="http://purl.org/dc/elements/1.1/" xmlns:inkscape="http://www.inkscape.org/namespaces/inkscape" xmlns:rdf="http://www.w3.org/1999/02/22-rdf-syntax-ns#" xmlns:svg="http://www.w3.org/2000/svg" xmlns:xlink="http://www.w3.org/1999/xlink">
<!--
HolePattern - Generate hole patterns in different simple shapes

Created with Boxes.py (https://festi.info/boxes.py)
Command line (remove spaces between dashes): boxes HolePattern
-->
<title>HolePattern</title>
<metadata>
<rdf:RDF><cc:Work>
<dc:title>Holes - HolePattern</dc:title>
<dc:source>boxes HolePattern</dc:source>
<dc:description>Generate hole patterns in different simple shapes

Created with Boxes.py (https://festi.info/boxes.py)
Command line: boxes HolePattern
Command line short: boxes HolePattern
</dc:description>
</cc:Work></rdf:RDF></metadata>
<g id="p-0" style="fill:none;stroke-linecap:round;stroke-linejoin:round;">
  <path d="M 10.000 116.553 H 110.000 V 106.553 H 10.000 V 116.553 Z" stroke="rgb(0,0,0)" stroke-width="0.20" />
  <text dominant-baseline="hanging" font-size="6px" style="font-family: sans-serif ; font-weight: normal; font-style: normal; fill: rgb(255,0,0)" text-anchor="middle" transform="matrix( 1.000 0.000 0.000 1.000 60.000 108.553 )">100.0mm, burn:0.10mm</text>
</g>
<g id="p-1" style="fill:none;stroke-linecap:round;stroke-linejoin:round;">
  <path d="M 18.650 98.734 C 18.650 99.251 18.501 99.758 18.221 100.194 C 17.942 100.629 17.542 100.975 17.072 101.190 C 16.601 101.405 16.078 101.480 15.566 101.406 C 15.053 101.333 14.573 101.113 14.182 100.774 C 13.791 100.435 13.505 99.991 13.359 99.495 C 13.214 98.998 13.214 98.470 13.359 97.973 C 13.505 97.477 13.791 97.032 14.182 96.693 C 14.573 96.354 15.053 96.135 15.566 96.061 C 16.078 95.988 16.601 96.063 17.072 96.278 C 17.542 96.493 17.942 96.839 18.221 97.274 C 18.501 97.710 18.650 98.216 18.650 98.734 Z" stroke="rgb(0,0,255)" stroke-width="0.20" />
  <path d="M 28.250 98.734 C 28.250 99.251 28.101 99.758 27.821 100.194 C 27.542 100.629 27.142 100.975 26.672 101.190 C 26.201 101.405 25.678 101.480 25.166 101.406 C 24.653 101.333 24.173 101.113 23.782 100.774 C 23.391 100.435 23.105 99.991 22.959 99.495 C 22.814 98.998 22.814 98.470 22.959 97.973 C 23.105 97.477 23.391 97.032 23.782 96.693 C 24.173 96.354 24.653 96.135 25.166 96.061 C 25.678 95.988 26.201 96.063 26.672 96.278 C 27.142 96.493 27.542 96.839 27.821 97.274 C 28.101 97.710 28.250 98.216 28.250 98.734 Z" stroke="rgb(0,0,255)" stroke-width="0.20" />
  <path d="M 37.850 98.734 C 37.850 99.251 37.701 99.758 37.421 100.194 C 37.142 100.629 36.742 100.975 36.272 101.190 C 35.801 101.405 35.278 101.480 34.766 101.406 C 34.253 101.333 33.773 101.113 33.382 100.774 C 32.991 100.435 32.705 99.991 32.559 99.495 C 32.414 98.998 32.414 98.470 32.559 97.973 C 32.705 97.477 32.991 97.032 33.382 96.693 C 33.773 96.354 34.253 96.135 34.766 96.061 C 35.278 95.988 35.801 96.063 36.272 96.278 C 36.742 96.493 37.142 96.839 37.421 97.274 C 37.701 97.710 37.850 98.216 37.850 98.734 Z" stroke="rgb(0,0,255)" stroke-width="0.20" />
  <path d="M 47.450 98.734 C 47.450 99.251 47.301 99.758 47.021 100.194 C 46.742 100.629 46.342 100.975 45.872 101.190 C 45.401 101.405 44.878 101.480 44.366 101.406 C 43.853 101.333 43.373 101.113 42.982 100.774 C 42.591 100.435 42.305 99.991 42.159 99.495 C 42.014 98.998 42.014 98.470 42.159 97.973 C 42.305 97.477 42.591 97.032 42.982 96.693 C 43.373 96.354 43.853 96.135 44.366 96.061 C 44.878 95.988 45.401 96.063 45.872 96.278 C 46.342 96.493 46.742 96.839 47.021 97.274 C 47.301 97.710 47.450 98.216 47.450 98.734 Z" stroke="rgb(0,0,255)" stroke-width="0.20" />
  <path d="M 57.050 98.734 C 57.050 99.251 56.901 99.758 56.621 100.194 C 56.342 100.629 55.942 100.975 55.472 101.190 C 55.001 101.405 54.478 101.480 53.966 101.406 C 53.453 101.333 52.973 101.113 52.582 100.774 C 52.191 100.435 51.905 99.991 51.759 99.495 C 51.614 98.998 51.614 98.470 51.759 97.973 C 51.905 97.477 52.191 97.032 52.582 96.693 C 52.973 96.354 53.453 96.135 53.966 96.061 C 54.478 95.988 55.001 96.063 55.472 96.278 C 55.942 96.493 56.342 96.839 56.621 97.274 C 56.901 97.710 57.050 98.216 57.050 98.734 Z" stroke="rgb(0,0,255)" stroke-width="0.20" />
  <path d="M 66.650 98.734 C 66.650 99.251 66.501 99.758 66.221 100.194 C 65.942 100.629 65.542 100.975 65.072 101.190 C 64.601 101.405 64.078 101.480 63.566 101.406 C 63.053 101.333 62.573 101.113 62.182 100.774 C 61.791 100.435 61.505 99.991 61.359 99.495 C 61.214 98.998 61.214 98.470 61.359 97.973 C 61.505 97.477 61.791 97.032 62.182 96.693 C 62.573 96.354 63.053 96.135 63.566 96.061 C 64.078 95.988 64.601 96.063 65.072 96.278 C 65.542 96.493 65.942 96.839 66.221 97.274 C 66.501 97.710 66.650 98.216 66.650 98.734 Z" stroke="rgb(0,0,255)" stroke-width="0.20" />
  <path d="M 76.250 98.734 C 76.250 99.251 76.101 99.758 75.821 100.194 C 75.542 100.629 75.142 100.975 74.672 101.190 C 74.201 101.405 73.678 101.480 73.166 101.406 C 72.653 101.333 72.173 101.113 71.782 100.774 C 71.391 100.435 71.105 99.991 70.959 99.495 C 70.814 98.998 70.814 98.470 70.959 97.973 C 71.105 97.477 71.391 97.032 71.782 96.693 C 72.173 96.354 72.653 96.135 73.166 96.061 C 73.678 95.988 74.201 96.063 74.672 96.278 C 75.142 96.493 75.542 96.839 75.821 97.274 C 76.101 97.710 76.250 98.216 76.250 98.734 Z" stroke="rgb(0,0,255)" stroke-width="0.20" />
  <path d="M 85.850 98.734 C 85.850 99.251 85.701 99.758 85.421 100.194 C 85.142 100.629 84.742 100.975 84.272 101.190 C 83.801 101.405 83.278 101.480 82.766 101.406 C 82.253 101.333 81.773 101.113 81.382 100.774 C 80.991 100.435 80.705 99.991 80.559 99.495 C 80.414 98.998 80.414 98.470 80.559 97.973 C 80.705 97.477 80.991 97.032 81.382 96.693 C 81.773 96.354 82.253 96.135 82.766 96.061 C 83.278 95.988 83.801 96.063 84.272 96.278 C 84.742 96.493 85.142 96.839 85.421 97.274 C 85.701 97.710 85.850 98.216 85.850 98.734 Z" stroke="rgb(0,0,255)" stroke-width="0.20" />
  <path d="M 95.450 98.734 C 95.450 99.251 95.301 99.758 95.021 100.194 C 94.742 100.629 94.342 100.975 93.872 101.190 C 93.401 101.405 92.878 101.480 92.366 101.406 C 91.853 101.333 91.373 101.113 90.982 100.774 C 90.591 100.435 90.305 99.991 90.159 99.495 C 90.014 98.998 90.014 98.470 90.159 97.973 C 90.305 97.477 90.591 97.032 90.982 96.693 C 91.373 96.354 91.853 96.135 92.366 96.061 C 92.878 95.988 93.401 96.063 93.872 96.278 C 94.342 96.493 94.742 96.839 95.021 97.274 C 95.301 97.710 95.450 98.216 95.450 98.734 Z" stroke="rgb(0,0,255)" stroke-width="0.20" />
  <path d="M 105.050 98.734 C 105.050 99.251 104.901 99.758 104.621 100.194 C 104.342 100.629 103.942 100.975 103.472 101.190 C 103.001 101.405 102.478 101.480 101.966 101.406 C 101.453 101.333 100.973 101.113 100.582 100.774 C 100.191 100.435 99.905 99.991 99.759 99.495 C 99.614 98.998 99.614 98.470 99.759 97.973 C 99.905 97.477 100.191 97.032 100.582 96.693 C 100.973 96.354 101.453 96.135 101.966 96.061 C 102.478 95.988 103.001 96.063 103.472 96.278 C 103.942 96.493 104.342 96.839 104.621 97.274 C 104.901 97.710 105.050 98.216 105.050 98.734 Z" stroke="rgb(0,0,255)" stroke-width="0.20" />
  <path d="M 23.450 90.128 C 23.450 90.645 23.301 91.152 23.021 91.587 C 22.742 92.023 22.342 92.369 21.872 92.584 C 21.401 92.799 20.878 92.874 20.366 92.800 C 19.853 92.727 19.373 92.507 18.982 92.168 C 18.591 91.829 18.305 91.385 18.159 90.888 C 18.014 90.392 18.014 89.864 18.159 89.367 C 18.305 88.870 18.591 88.426 18.982 88.087 C 19.373 87.748 19.853 87.529 20.366 87.455 C 20.878 87.382 21.401 87.457 21.872 87.672 C 22.342 87.887 22.742 88.233 23.021 88.668 C 23.301 89.103 23.450 89.610 23.450 90.128 Z" stroke="rgb(0,0,255)" stroke-width="0.20" />
  <path d="M 33.050 90.128 C 33.050 90.645 32.901 91.152 32.621 91.587 C 32.342 92.023 31.942 92.369 31.472 92.584 C 31.001 92.799 30.478 92.874 29.966 92.800 C 29.453 92.727 28.973 92.507 28.582 92.168 C 28.191 91.829 27.905 91.385 27.759 90.888 C 27.614 90.392 27.614 89.864 27.759 89.367 C 27.905 88.870 28.191 88.426 28.582 88.087 C 28.973 87.748 29.453 87.529 29.966 87.455 C 30.478 87.382 31.001 87.457 31.472 87.672 C 31.942 87.887 32.342 88.233 32.621 88.668 C 32.901 89.103 33.050 89.610 33.050 90.128 Z" stroke="rgb(0,0,255)" stroke-width="0.20" />
  <path d="M 42.650 90.128 C 42.650 90.645 42.501 91.152 42.221 91.587 C 41.942 92.023 41.542 92.369 41.072 92.584 C 40.601 92.799 40.078 92.874 39.566 92.800 C 39.053 92.727 38.573 92.507 38.182 92.168 C 37.791 91.829 37.505 91.385 37.359 90.888 C 37.214 90.392 37.214 89.864 37.359 89.367 C 37.505 88.870 37.791 88.426 38.182 88.087 C 38.573 87.748 39.053 87.529 39.566 87.455 C 40.078 87.382 40.601 87.457 41.072 87.672 C 41.542 87.887 41.942 88.233 42.221 88.668 C 42.501 89.103 42.650 89.610 42.650 90.128 Z" stroke="rgb(0,0,255)" stroke-width="0.20" />
  <path d="M 52.250 90.128 C 52.250 90.645 52.101 91.152 51.821 91.587 C 51.542 92.023 51.142 92.369 50.672 92.584 C 50.201 92.799 49.678 92.874 49.166 92.800 C 48.653 92.727 48.173 92.507 47.782 92.168 C 47.391 91.829 47.105 91.385 46.959 90.888 C 46.814 90.392 46.814 89.864 46.959 89.367 C 47.105 88.870 47.391 88.426 47.782 88.087 C 48.173 87.748 48.653 87.529 49.166 87.455 C 49.678 87.382 50.201 87.457 50.672 87.672 C 51.142 87.887 51.542 88.233 51.821 88.668 C 52.101 89.103 52.250 89.610 52.250 90.128 Z" stroke="rgb(0,0,255)" stroke-width="0.20" />
  <path d="M 61.850 90.128 C 61.850 90.645 61.701 91.152 61.421 91.587 C 61.142 92.023 60.742 92.369 60.272 92.584 C 59.801 92.799 59.278 92.874 58.766 92.800 C 58.253 92.727 57.773 92.507 57.382 92.168 C 56.991 91.829 56.705 91.385 56.559 90.888 C 56.414 90.392 56.414 89.864 56.559 89.367 C 56.705 88.870 56.991 88.426 57.382 88.087 C 57.773 87.748 58.253 87.529 58.766 87.455 C 59.278 87.382 59.801 87.457 60.272 87.672 C 60.742 87.887 61.142 88.233 61.421 88.668 C 61.701 89.103 61.850 89.610 61.850 90.128 Z" stroke="rgb(0,0,255)" stroke-width="0.20" />
  <path d="M 71.450 90.128 C 71.450 90.645 71.301 91.152 71.021 91.587 C 70.742 92.023 70.342 92.369 69.872 92.584 C 69.401 92.799 68.878 92.874 68.366 92.800 C 67.853 92.727 67.373 92.507 66.982 92.168 C 66.591 91.829 66.305 91.385 66.159 90.888 C 66.014 90.392 66.014 89.864 66.159 89.367 C 66.305 88.870 66.591 88.426 66.982 88.087 C 67.373 87.748 67.853 87.529 68.366 87.455 C 68.878 87.382 69.401 87.457 69.872 87.672 C 70.342 87.887 70.742 88.233 71.021 88.668 C 71.301 89.103 71.450 89.610 71.450 90.128 Z" stroke="rgb(0,0,255)" stroke-width="0.20" />
  <path d="M 81.050 90.128 C 81.050 90.645 80.901 91.152 80.621 91.587 C 80.342 92.023 79.942 92.369 79.472 92.584 C 79.001 92.799 78.478 92.874 77.966 92.800 C 77.453 92.727 76.973 92.507 76.582 92.168 C 76.191 91.829 75.905 91.385 75.759 90.888 C 75.614 90.392 75.614 89.864 75.759 89.367 C 75.905 88.870 76.191 88.426 76.582 88.087 C 76.973 87.748 77.453 87.529 77.966 87.455 C 78.478 87.382 79.001 87.457 79.472 87.672 C 79.942 87.887 80.342 88.233 80.621 88.668 C 80.901 89.103 81.050 89.610 81.050 90.128 Z" stroke="rgb(0,0,255)" stroke-width="0.20" />
  <path d="M 90.650 90.128 C 90.650 90.645 90.501 91.152 90.221 91.587 C 89.942 92.023 89.542 92.369 89.072 92.584 C 88.601 92.799 88.078 92.874 87.566 92.800 C 87.053 92.727 86.573 92.507 86.182 92.168 C 85.791 91.829 85.505 91.385 85.359 90.888 C 85.214 90.392 85.214 89.864 85.359 89.367 C 85.505 88.870 85.791 88.426 86.182 88.087 C 86.573 87.748 87.053 87.529 87.566 87.455 C 88.078 87.382 88.601 87.457 89.072 87.672 C 89.542 87.887 89.942 88.233 90.221 88.668 C 90.501 89.103 90.650 89.610 90.650 90.128 Z" stroke="rgb(0,0,255)" stroke-width="0.20" />
  <path d="M 100.250 90.128 C 100.250 90.645 100.101 91.152 99.821 91.587 C 99.542 92.023 99.142 92.369 98.672 92.584 C 98.201 92.799 97.678 92.874 97.166 92.800 C 96.653 92.727 96.173 92.507 95.782 92.168 C 95.391 91.829 95.105 91.385 94.959 90.888 C 94.814 90.392 94.814 89.864 94.959 89.367 C 95.105 88.870 95.391 88.426 95.782 88.087 C 96.173 87.748 96.653 87.529 97.166 87.455 C 97.678 87.382 98.201 87.457 98.672 87.672 C 99.142 87.887 99.542 88.233 99.821 88.668 C 100.101 89.103 100.250 89.610 100.250 90.128 Z" stroke="rgb(0,0,255)" stroke-width="0.20" />
  <path d="M 18.650 81.522 C 18.650 82.039 18.501 82.546 18.221 82.981 C 17.942 83.417 17.542 83.763 17.072 83.978 C 16.601 84.193 16.078 84.268 15.566 84.194 C 15.053 84.120 14.573 83.901 14.182 83.562 C 13.791 83.223 13.505 82.779 13.359 82.282 C 13.214 81.786 13.214 81.258 13.359 80.761 C 13.505 80.264 13.791 79.820 14.182 79.481 C 14.573 79.142 15.053 78.923 15.566 78.849 C 16.078 78.775 16.601 78.851 17.072 79.066 C 17.542 79.281 17.942 79.626 18.221 80.062 C 18.501 80.497 18.650 81.004 18.650 81.522 Z" stroke="rgb(0,0,255)" stroke-width="0.20" />
  <path d="M 28.250 81.522 C 28.250 82.039 28.101 82.546 27.821 82.981 C 27.542 83.417 27.142 83.763 26.672 83.978 C 26.201 84.193 25.678 84.268 25.166 84.194 C 24.653 84.120 24.173 83.901 23.782 83.562 C 23.391 83.223 23.105 82.779 22.959 82.282 C 22.814 81.786 22.814 81.258 22.959 80.761 C 23.105 80.264 23.391 79.820 23.782 79.481 C 24.173 79.142 24.653 78.923 25.166 78.849 C 25.678 78.775 26.201 78.851 26.672 79.066 C 27.142 79.281 27.542 79.626 27.821 80.062 C 28.101 80.497 28.250 81.004 28.250 81.522 Z" stroke="rgb(0,0,255)" stroke-width="0.20" />
  <path d="M 37.850 81.522 C 37.850 82.039 37.701 82.546 37.421 82.981 C 37.142 83.417 36.742 83.763 36.272 83.978 C 35.801 84.193 35.278 84.268 34.766 84.194 C 34.253 84.120 33.773 83.901 33.382 83.562 C 32.991 83.223 32.705 82.779 32.559 82.282 C 32.414 81.786 32.414 81.258 32.559 80.761 C 32.705 80.264 32.991 79.820 33.382 79.481 C 33.773 79.142 34.253 78.923 34.766 78.849 C 35.278 78.775 35.801 78.851 36.272 79.066 C 36.742 79.281 37.142 79.626 37.421 80.062 C 37.701 80.497 37.850 81.004 37.850 81.522 Z" stroke="rgb(0,0,255)" stroke-width="0.20" />
  <path d="M 47.450 81.522 C 47.450 82.039 47.301 82.546 47.021 82.981 C 46.742 83.417 46.342 83.763 45.872 83.978 C 45.401 84.193 44.878 84.268 44.366 84.194 C 43.853 84.120 43.373 83.901 42.982 83.562 C 42.591 83.223 42.305 82.779 42.159 82.282 C 42.014 81.786 42.014 81.258 42.159 80.761 C 42.305 80.264 42.591 79.820 42.982 79.481 C 43.373 79.142 43.853 78.923 44.366 78.849 C 44.878 78.775 45.401 78.851 45.872 79.066 C 46.342 79.281 46.742 79.626 47.021 80.062 C 47.301 80.497 47.450 81.004 47.450 81.522 Z" stroke="rgb(0,0,255)" stroke-width="0.20" />
  <path d="M 57.050 81.522 C 57.050 82.039 56.901 82.546 56.621 82.981 C 56.342 83.417 55.942 83.763 55.472 83.978 C 55.001 84.193 54.478 84.268 53.966 84.194 C 53.453 84.120 52.973 83.901 52.582 83.562 C 52.191 83.223 51.905 82.779 51.759 82.282 C 51.614 81.786 51.614 81.258 51.759 80.761 C 51.905 80.264 52.191 79.820 52.582 79.481 C 52.973 79.142 53.453 78.923 53.966 78.849 C 54.478 78.775 55.001 78.851 55.472 79.066 C 55.942 79.281 56.342 79.626 56.621 80.062 C 56.901 80.497 57.050 81.004 57.050 81.522 Z" stroke="rgb(0,0,255)" stroke-width="0.20" />
  <path d="M 66.650 81.522 C 66.650 82.039 66.501 82.546 66.221 82.981 C 65.942 83.417 65.542 83.763 65.072 83.978 C 64.601 84.193 64.078 84.268 63.566 84.194 C 63.053 84.120 62.573 83.901 62.182 83.562 C 61.791 83.223 61.505 82.779 61.359 82.282 C 61.214 81.786 61.214 81.258 61.359 80.761 C 61.505 80.264 61.791 79.820 62.182 79.481 C 62.573 79.142 63.053 78.923 63.566 78.849 C 64.078 78.775 64.601 78.851 65.072 79.066 C 65.542 79.281 65.942 79.626 66.221 80.062 C 66.501 80.497 66.650 81.004 66.650 81.522 Z" stroke="rgb(0,0,255)" stroke-width="0.20" />
  <path d="M 76.250 81.522 C 76.250 82.039 76.101 82.546 75.821 82.981 C 75.542 83.417 75.142 83.763 74.672 83.978 C 74.201 84.193 73.678 84.268 73.166 84.194 C 72.653 84.120 72.173 83.901 71.782 83.562 C 71.391 83.223 71.105 82.779 70.959 82.282 C 70.814 81.786 70.814 81.258 70.959 80.761 C 71.105 80.264 71.391 79.820 71.782 79.481 C 72.173 79.142 72.653 78.923 73.166 78.849 C 73.678 78.775 74.201 78.851 74.672 79.066 C 75.142 79.281 75.542 79.626 75.821 80.062 C 76.101 80.497 76.250 81.004 76.250 81.522 Z" stroke="rgb(0,0,255)" stroke-width="0.20" />
  <path d="M 85.850 81.522 C 85.850 82.039 85.701 82.546 85.421 82.981 C 85.142 83.417 84.742 83.763 84.272 83.978 C 83.801 84.193 83.278 84.268 82.766 84.194 C 82.253 84.120 81.773 83.901 81.382 83.562 C 80.991 83.223 80.705 82.779 80.559 82.282 C 80.414 81.786 80.414 81.258 80.559 80.761 C 80.705 80.264 80.991 79.820 81.382 79.481 C 81.773 79.142 82.253 78.923 82.766 78.849 C 83.278 78.775 83.801 78.851 84.272 79.066 C 84.742 79.281 85.142 79.626 85.421 80.062 C 85.701 80.497 85.850 81.004 85.850 81.522 Z" stroke="rgb(0,0,255)" stroke-width="0.20" />
  <path d="M 95.450 81.522 C 95.450 82.039 95.301 82.546 95.021 82.981 C 94.742 83.417 94.342 83.763 93.872 83.978 C 93.401 84.193 92.878 84.268 92.366 84.194 C 91.853 84.120 91.373 83.901 90.982 83.562 C 90.591 83.223 90.305 82.779 90.159 82.282 C 90.014 81.786 90.014 81.258 90.159 80.761 C 90.305 80.264 90.591 79.820 90.982 79.481 C 91.373 79.142 91.853 78.923 92.366 78.849 C 92.878 78.775 93.401 78.851 93.872 79.066 C 94.342 79.281 94.742 79.626 95.021 80.062 C 95.301 80.497 95.450 81.004 95.450 81.522 Z" stroke="rgb(0,0,255)" stroke-width="0.20" />
  <path d="M 105.050 81.522 C 105.050 82.039 104.901 82.546 104.621 82.981 C 104.342 83.417 103.942 83.763 103.472 83.978 C 103.001 84.193 102.478 84.268 101.966 84.194 C 101.453 84.120 100.973 83.901 100.582 83.562 C 100.191 83.223 99.905 82.779 99.759 82.282 C 99.614 81.786 99.614 81.258 99.759 80.761 C 99.905 80.264 100.191 79.820 100.582 79.481 C 100.973 79.142 101.453 78.923 101.966 78.849 C 102.478 78.775 103.001 78.851 103.472 79.066 C 103.942 79.281 104.342 79.626 104.621 80.062 C 104.901 80.497 105.050 81.004 105.050 81.522 Z" stroke="rgb(0,0,255)" stroke-width="0.20" />
  <path d="M 23.450 72.915 C 23.450 73.433 23.301 73.940 23.021 74.375 C 22.742 74.811 22.342 75.156 21.872 75.371 C 21.401 75.587 20.878 75.662 20.366 75.588 C 19.853 75.514 19.373 75.295 18.982 74.956 C 18.591 74.617 18.305 74.173 18.159 73.676 C 18.014 73.180 18.014 72.651 18.159 72.155 C 18.305 71.658 18.591 71.214 18.982 70.875 C 19.373 70.536 19.853 70.317 20.366 70.243 C 20.878 70.169 21.401 70.244 21.872 70.459 C 22.342 70.674 22.742 71.020 23.021 71.456 C 23.301 71.891 23.450 72.398 23.450 72.915 Z" stroke="rgb(0,0,255)" stroke-width="0.20" />
  <path d="M 33.050 72.915 C 33.050 73.433 32.901 73.940 32.621 74.375 C 32.342 74.811 31.942 75.156 31.472 75.371 C 31.001 75.587 30.478 75.662 29.966 75.588 C 29.453 75.514 28.973 75.295 28.582 74.956 C 28.191 74.617 27.905 74.173 27.759 73.676 C 27.614 73.180 27.614 72.651 27.759 72.155 C 27.905 71.658 28.191 71.214 28.582 70.875 C 28.973 70.536 29.453 70.317 29.966 70.243 C 30.478 70.169 31.001 70.244 31.472 70.459 C 31.942 70.674 32.342 71.020 32.621 71.456 C 32.901 71.891 33.050 72.398 33.050 72.915 Z" stroke="rgb(0,0,255)" stroke-width="0.20" />
  <path d="M 42.650 72.915 C 42.650 73.433 42.501 73.940 42.221 74.375 C 41.942 74.811 41.542 75.156 41.072 75.371 C 40.601 75.587 40.078 75.662 39.566 75.588 C 39.053 75.514 38.573 75.295 38.182 74.956 C 37.791 74.617 37.505 74.173 37.359 73.676 C 37.214 73.180 37.214 72.651 37.359 72.155 C 37.505 71.658 37.791 71.214 38.182 70.875 C 38.573 70.536 39.053 70.317 39.566 70.243 C 40.078 70.169 40.601 70.244 41.072 70.459 C 41.542 70.674 41.942 71.020 42.221 71.456 C 42.501 71.891 42.650 72.398 42.650 72.915 Z" stroke="rgb(0,0,255)" stroke-width="0.20" />
  <path d="M 52.250 72.915 C 52.250 73.433 52.101 73.940 51.821 74.375 C 51.542 74.811 51.142 75.156 50.672 75.371 C 50.201 75.587 49.678 75.662 49.166 75.588 C 48.653 75.514 48.173 75.295 47.782 74.956 C 47.391 74.617 47.105 74.173 46.959 73.676 C 46.814 73.180 46.814 72.651 46.959 72.155 C 47.105 71.658 47.391 71.214 47.782 70.875 C 48.173 70.536 48.653 70.317 49.166 70.243 C 49.678 70.169 50.201 70.244 50.672 70.459 C 51.142 70.674 51.542 71.020 51.821 71.456 C 52.101 71.891 52.250 72.398 52.250 72.915 Z" stroke="rgb(0,0,255)" stroke-width="0.20" />
  <path d="M 61.850 72.915 C 61.850 73.433 61.701 73.940 61.421 74.375 C 61.142 74.811 60.742 75.156 60.272 75.371 C 59.801 75.587 59.278 75.662 58.766 75.588 C 58.253 75.514 57.773 75.295 57.382 74.956 C 56.991 74.617 56.705 74.173 56.559 73.676 C 56.414 73.180 56.414 72.651 56.559 72.155 C 56.705 71.658 56.991 71.214 57.382 70.875 C 57.773 70.536 58.253 70.317 58.766 70.243 C 59.278 70.169 59.801 70.244 60.272 70.459 C 60.742 70.674 61.142 71.020 61.421 71.456 C 61.701 71.891 61.850 72.398 61.850 72.915 Z" stroke="rgb(0,0,255)" stroke-width="0.20" />
  <path d="M 71.450 72.915 C 71.450 73.433 71.301 73.940 71.021 74.375 C 70.742 74.811 70.342 75.156 69.872 75.371 C 69.401 75.587 68.878 75.662 68.366 75.588 C 67.853 75.514 67.373 75.295 66.982 74.956 C 66.591 74.617 66.305 74.173 66.159 73.676 C 66.014 73.180 66.014 72.651 66.159 72.155 C 66.305 71.658 66.591 71.214 66.982 70.875 C 67.373 70.536 67.853 70.317 68.366 70.243 C 68.878 70.169 69.401 70.244 69.872 70.459 C 70.342 70.674 70.742 71.020 71.021 71.456 C 71.301 71.891 71.450 72.398 71.450 72.915 Z" stroke="rgb(0,0,255)" stroke-width="0.20" />
  <path d="M 81.050 72.915 C 81.050 73.433 80.901 73.940 80.621 74.375 C 80.342 74.811 79.942 75.156 79.472 75.371 C 79.001 75.587 78.478 75.662 77.966 75.588 C 77.453 75.514 76.973 75.295 76.582 74.956 C 76.191 74.617 75.905 74.173 75.759 73.676 C 75.614 73.180 75.614 72.651 75.759 72.155 C 75.905 71.658 76.191 71.214 76.582 70.875 C 76.973 70.536 77.453 70.317 77.966 70.243 C 78.478 70.169 79.001 70.244 79.472 70.459 C 79.942 70.674 80.342 71.020 80.621 71.456 C 80.901 71.891 81.050 72.398 81.050 72.915 Z" stroke="rgb(0,0,255)" stroke-width="0.20" />
  <path d="M 90.650 72.915 C 90.650 73.433 90.501 73.940 90.221 74.375 C 89.942 74.811 89.542 75.156 89.072 75.371 C 88.601 75.587 88.078 75.662 87.566 75.588 C 87.053 75.514 86.573 75.295 86.182 74.956 C 85.791 74.617 85.505 74.173 85.359 73.676 C 85.214 73.180 85.214 72.651 85.359 72.155 C 85.505 71.658 85.791 71.214 86.182 70.875 C 86.573 70.536 87.053 70.317 87.566 70.243 C 88.078 70.169 88.601 70.244 89.072 70.459 C 89.542 70.674 89.942 71.020 90.221 71.456 C 90.501 71.891 90.650 72.398 90.650 72.915 Z" stroke="rgb(0,0,255)" stroke-width="0.20" />
  <path d="M 100.250 72.915 C 100.250 73.433 100.101 73.940 99.821 74.375 C 99.542 74.811 99.142 75.156 98.672 75.371 C 98.201 75.587 97.678 75.662 97.166 75.588 C 96.653 75.514 96.173 75.295 95.782 74.956 C 95.391 74.617 95.105 74.173 94.959 73.676 C 94.814 73.180 94.814 72.651 94.959 72.155 C 95.105 71.658 95.391 71.214 95.782 70.875 C 96.173 70.536 96.653 70.317 97.166 70.243 C 97.678 70.169 98.201 70.244 98.672 70.459 C 99.142 70.674 99.542 71.020 99.821 71.456 C 100.101 71.891 100.250 72.398 100.250 72.915 Z" stroke="rgb(0,0,255)" stroke-width="0.20" />
  <path d="M 18.650 64.309 C 18.650 64.827 18.501 65.334 18.221 65.769 C 17.942 66.205 17.542 66.550 17.072 66.765 C 16.601 66.980 16.078 67.056 15.566 66.982 C 15.053 66.908 14.573 66.689 14.182 66.350 C 13.791 66.011 13.505 65.567 13.359 65.070 C 13.214 64.573 13.214 64.045 13.359 63.549 C 13.505 63.052 13.791 62.608 14.182 62.269 C 14.573 61.930 15.053 61.710 15.566 61.637 C 16.078 61.563 16.601 61.638 17.072 61.853 C 17.542 62.068 17.942 62.414 18.221 62.850 C 18.501 63.285 18.650 63.792 18.650 64.309 Z" stroke="rgb(0,0,255)" stroke-width="0.20" />
  <path d="M 28.250 64.309 C 28.250 64.827 28.101 65.334 27.821 65.769 C 27.542 66.205 27.142 66.550 26.672 66.765 C 26.201 66.980 25.678 67.056 25.166 66.982 C 24.653 66.908 24.173 66.689 23.782 66.350 C 23.391 66.011 23.105 65.567 22.959 65.070 C 22.814 64.573 22.814 64.045 22.959 63.549 C 23.105 63.052 23.391 62.608 23.782 62.269 C 24.173 61.930 24.653 61.710 25.166 61.637 C 25.678 61.563 26.201 61.638 26.672 61.853 C 27.142 62.068 27.542 62.414 27.821 62.850 C 28.101 63.285 28.250 63.792 28.250 64.309 Z" stroke="rgb(0,0,255)" stroke-width="0.20" />
  <path d="M 37.850 64.309 C 37.850 64.827 37.701 65.334 37.421 65.769 C 37.142 66.205 36.742 66.550 36.272 66.765 C 35.801 66.980 35.278 67.056 34.766 66.982 C 34.253 66.908 33.773 66.689 33.382 66.350 C 32.991 66.011 32.705 65.567 32.559 65.070 C 32.414 64.573 32.414 64.045 32.559 63.549 C 32.705 63.052 32.991 62.608 33.382 62.269 C 33.773 61.930 34.253 61.710 34.766 61.637 C 35.278 61.563 35.801 61.638 36.272 61.853 C 36.742 62.068 37.142 62.414 37.421 62.850 C 37.701 63.285 37.850 63.792 37.850 64.309 Z" stroke="rgb(0,0,255)" stroke-width="0.20" />
  <path d="M 47.450 64.309 C 47.450 64.827 47.301 65.334 47.021 65.769 C 46.742 66.205 46.342 66.550 45.872 66.765 C 45.401 66.980 44.878 67.056 44.366 66.982 C 43.853 66.908 43.373 66.689 42.982 66.350 C 42.591 66.011 42.305 65.567 42.159 65.070 C 42.014 64.573 42.014 64.045 42.159 63.549 C 42.305 63.052 42.591 62.608 42.982 62.269 C 43.373 61.930 43.853 61.710 44.366 61.637 C 44.878 61.563 45.401 61.638 45.872 61.853 C 46.342 62.068 46.742 62.414 47.021 62.850 C 47.301 63.285 47.450 63.792 47.450 64.309 Z" stroke="rgb(0,0,255)" stroke-width="0.20" />
  <path d="M 57.050 64.309 C 57.050 64.827 56.901 65.334 56.621 65.769 C 56.342 66.205 55.942 66.550 55.472 66.765 C 55.001 66.980 54.478 67.056 53.966 66.982 C 53.453 66.908 52.973 66.689 52.582 66.350 C 52.191 66.011 51.905 65.567 51.759 65.070 C 51.614 64.573 51.614 64.045 51.759 63.549 C 51.905 63.052 52.191 62.608 52.582 62.269 C 52.973 61.930 53.453 61.710 53.966 61.637 C 54.478 61.563 55.001 61.638 55.472 61.853 C 55.942 62.068 56.342 62.414 56.621 62.850 C 56.901 63.285 57.050 63.792 57.050 64.309 Z" stroke="rgb(0,0,255)" stroke-width="0.20" />
  <path d="M 66.650 64.309 C 66.650 64.827 66.501 65.334 66.221 65.769 C 65.942 66.205 65.542 66.550 65.072 66.765 C 64.601 66.980 64.078 67.056 63.566 66.982 C 63.053 66.908 62.573 66.689 62.182 66.350 C 61.791 66.011 61.505 65.567 61.359 65.070 C 61.214 64.573 61.214 64.045 61.359 63.549 C 61.505 63.052 61.791 62.608 62.182 62.269 C 62.573 61.930 63.053 61.710 63.566 61.637 C 64.078 61.563 64.601 61.638 65.072 61.853 C 65.542 62.068 65.942 62.414 66.221 62.850 C 66.501 63.285 66.650 63.792 66.650 64.309 Z" stroke="rgb(0,0,255)" stroke-width="0.20" />
  <path d="M 76.250 64.309 C 76.250 64.827 76.101 65.334 75.821 65.769 C 75.542 66.205 75.142 66.550 74.672 66.765 C 74.201 66.980 73.678 67.056 73.166 66.982 C 72.653 66.908 72.173 66.689 71.782 66.350 C 71.391 66.011 71.105 65.567 70.959 65.070 C 70.814 64.573 70.814 64.045 70.959 63.549 C 71.105 63.052 71.391 62.608 71.782 62.269 C 72.173 61.930 72.653 61.710 73.166 61.637 C 73.678 61.563 74.201 61.638 74.672 61.853 C 75.142 62.068 75.542 62.414 75.821 62.850 C 76.101 63.285 76.250 63.792 76.250 64.309 Z" stroke="rgb(0,0,255)" stroke-width="0.20" />
  <path d="M 85.850 64.309 C 85.850 64.827 85.701 65.334 85.421 65.769 C 85.142 66.205 84.742 66.550 84.272 66.765 C 83.801 66.980 83.278 67.056 82.766 66.982 C 82.253 66.908 81.773 66.689 81.382 66.350 C 80.991 66.011 80.705 65.567 80.559 65.070 C 80.414 64.573 80.414 64.045 80.559 63.549 C 80.705 63.052 80.991 62.608 81.382 62.269 C 81.773 61.930 82.253 61.710 82.766 61.637 C 83.278 61.563 83.801 61.638 84.272 61.853 C 84.742 62.068 85.142 62.414 85.421 62.850 C 85.701 63.285 85.850 63.792 85.850 64.309 Z" stroke="rgb(0,0,255)" stroke-width="0.20" />
  <path d="M 95.450 64.309 C 95.450 64.827 95.301 65.334 95.021 65.769 C 94.742 66.205 94.342 66.550 93.872 66.765 C 93.401 66.980 92.878 67.056 92.366 66.982 C 91.853 66.908 91.373 66.689 90.982 66.350 C 90.591 66.011 90.305 65.567 90.159 65.070 C 90.014 64.573 90.014 64.045 90.159 63.549 C 90.305 63.052 90.591 62.608 90.982 62.269 C 91.373 61.930 91.853 61.710 92.366 61.637 C 92.878 61.563 93.401 61.638 93.872 61.853 C 94.342 62.068 94.742 62.414 95.021 62.850 C 95.301 63.285 95.450 63.792 95.450 64.309 Z" stroke="rgb(0,0,255)" stroke-width="0.20" />
  <path d="M 105.050 64.309 C 105.050 64.827 104.901 65.334 104.621 65.769 C 104.342 66.205 103.942 66.550 103.472 66.765 C 103.001 66.980 102.478 67.056 101.966 66.982 C 101.453 66.908 100.973 66.689 100.582 66.350 C 100.191 66.011 99.905 65.567 99.759 65.070 C 99.614 64.573 99.614 64.045 99.759 63.549 C 99.905 63.052 100.191 62.608 100.582 62.269 C 100.973 61.930 101.453 61.710 101.966 61.637 C 102.478 61.563 103.001 61.638 103.472 61.853 C 103.942 62.068 104.342 62.414 104.621 62.850 C 104.901 63.285 105.050 63.792 105.050 64.309 Z" stroke="rgb(0,0,255)" stroke-width="0.20" />
  <path d="M 23.450 55.703 C 23.450 56.221 23.301 56.728 23.021 57.163 C 22.742 57.598 22.342 57.944 21.872 58.159 C 21.401 58.374 20.878 58.449 20.366 58.376 C 19.853 58.302 19.373 58.083 18.982 57.744 C 18.591 57.405 18.305 56.961 18.159 56.464 C 18.014 55.967 18.014 55.439 18.159 54.943 C 18.305 54.446 18.591 54.002 18.982 53.663 C 19.373 53.324 19.853 53.104 20.366 53.031 C 20.878 52.957 21.401 53.032 21.872 53.247 C 22.342 53.462 22.742 53.808 23.021 54.243 C 23.301 54.679 23.450 55.186 23.450 55.703 Z" stroke="rgb(0,0,255)" stroke-width="0.20" />
  <path d="M 33.050 55.703 C 33.050 56.221 32.901 56.728 32.621 57.163 C 32.342 57.598 31.942 57.944 31.472 58.159 C 31.001 58.374 30.478 58.449 29.966 58.376 C 29.453 58.302 28.973 58.083 28.582 57.744 C 28.191 57.405 27.905 56.961 27.759 56.464 C 27.614 55.967 27.614 55.439 27.759 54.943 C 27.905 54.446 28.191 54.002 28.582 53.663 C 28.973 53.324 29.453 53.104 29.966 53.031 C 30.478 52.957 31.001 53.032 31.472 53.247 C 31.942 53.462 32.342 53.808 32.621 54.243 C 32.901 54.679 33.050 55.186 33.050 55.703 Z" stroke="rgb(0,0,255)" stroke-width="0.20" />
  <path d="M 42.650 55.703 C 42.650 56.221 42.501 56.728 42.221 57.163 C 41.942 57.598 41.542 57.944 41.072 58.159 C 40.601 58.374 40.078 58.449 39.566 58.376 C 39.053 58.302 38.573 58.083 38.182 57.744 C 37.791 57.405 37.505 56.961 37.359 56.464 C 37.214 55.967 37.214 55.439 37.359 54.943 C 37.505 54.446 37.791 54.002 38.182 53.663 C 38.573 53.324 39.053 53.104 39.566 53.031 C 40.078 52.957 40.601 53.032 41.072 53.247 C 41.542 53.462 41.942 53.808 42.221 54.243 C 42.501 54.679 42.650 55.186 42.650 55.703 Z" stroke="rgb(0,0,255)" stroke-width="0.20" />
  <path d="M 52.250 55.703 C 52.250 56.221 52.101 56.728 51.821 57.163 C 51.542 57.598 51.142 57.944 50.672 58.159 C 50.201 58.374 49.678 58.449 49.166 58.376 C 48.653 58.302 48.173 58.083 47.782 57.744 C 47.391 57.405 47.105 56.961 46.959 56.464 C 46.814 55.967 46.814 55.439 46.959 54.943 C 47.105 54.446 47.391 54.002 47.782 53.663 C 48.173 53.324 48.653 53.104 49.166 53.031 C 49.678 52.957 50.201 53.032 50.672 53.247 C 51.142 53.462 51.542 53.808 51.821 54.243 C 52.101 54.679 52.250 55.186 52.250 55.703 Z" stroke="rgb(0,0,255)" stroke-width="0.20" />
  <path d="M 61.850 55.703 C 61.850 56.221 61.701 56.728 61.421 57.163 C 61.142 57.598 60.742 57.944 60.272 58.159 C 59.801 58.374 59.278 58.449 58.766 58.376 C 58.253 58.302 57.773 58.083 57.382 57.744 C 56.991 57.405 56.705 56.961 56.559 56.464 C 56.414 55.967 56.414 55.439 56.559 54.943 C 56.705 54.446 56.991 54.002 57.382 53.663 C 57.773 53.324 58.253 53.104 58.766 53.031 C 59.278 52.957 59.801 53.032 60.272 53.247 C 60.742 53.462 61.142 53.808 61.421 54.243 C 61.701 54.679 61.850 55.186 61.850 55.703 Z" stroke="rgb(0,0,255)" stroke-width="0.20" />
  <path d="M 71.450 55.703 C 71.450 56.221 71.301 56.728 71.021 57.163 C 70.742 57.598 70.342 57.944 69.872 58.159 C 69.401 58.374 68.878 58.449 68.366 58.376 C 67.853 58.302 67.373 58.083 66.982 57.744 C 66.591 57.405 66.305 56.961 66.159 56.464 C 66.014 55.967 66.014 55.439 66.159 54.943 C 66.305 54.446 66.591 54.002 66.982 53.663 C 67.373 53.324 67.853 53.104 68.366 53.031 C 68.878 52.957 69.401 53.032 69.872 53.247 C 70.342 53.462 70.742 53.808 71.021 54.243 C 71.301 54.679 71.450 55.186 71.450 55.703 Z" stroke="rgb(0,0,255)" stroke-width="0.20" />
  <path d="M 81.050 55.703 C 81.050 56.221 80.901 56.728 80.621 57.163 C 80.342 57.598 79.942 57.944 79.472 58.159 C 79.001 58.374 78.478 58.449 77.966 58.376 C 77.453 58.302 76.973 58.083 76.582 57.744 C 76.191 57.405 75.905 56.961 75.759 56.464 C 75.614 55.967 75.614 55.439 75.759 54.943 C 75.905 54.446 76.191 54.002 76.582 53.663 C 76.973 53.324 77.453 53.104 77.966 53.031 C 78.478 52.957 79.001 53.032 79.472 53.247 C 79.942 53.462 80.342 53.808 80.621 54.243 C 80.901 54.679 81.050 55.186 81.050 55.703 Z" stroke="rgb(0,0,255)" stroke-width="0.20" />
  <path d="M 90.650 55.703 C 90.650 56.221 90.501 56.728 90.221 57.163 C 89.942 57.598 89.542 57.944 89.072 58.159 C 88.601 58.374 88.078 58.449 87.566 58.376 C 87.053 58.302 86.573 58.083 86.182 57.744 C 85.791 57.405 85.505 56.961 85.359 56.464 C 85.214 55.967 85.214 55.439 85.359 54.943 C 85.505 54.446 85.791 54.002 86.182 53.663 C 86.573 53.324 87.053 53.104 87.566 53.031 C 88.078 52.957 88.601 53.032 89.072 53.247 C 89.542 53.462 89.942 53.808 90.221 54.243 C 90.501 54.679 90.650 55.186 90.650 55.703 Z" stroke="rgb(0,0,255)" stroke-width="0.20" />
  <path d="M 100.250 55.703 C 100.250 56.221 100.101 56.728 99.821 57.163 C 99.542 57.598 99.142 57.944 98.672 58.159 C 98.201 58.374 97.678 58.449 97.166 58.376 C 96.653 58.302 96.173 58.083 95.782 57.744 C 95.391 57.405 95.105 56.961 94.959 56.464 C 94.814 55.967 94.814 55.439 94.959 54.943 C 95.105 54.446 95.391 54.002 95.782 53.663 C 96.173 53.324 96.653 53.104 97.166 53.031 C 97.678 52.957 98.201 53.032 98.672 53.247 C 99.142 53.462 99.542 53.808 99.821 54.243 C 100.101 54.679 100.250 55.186 100.250 55.703 Z" stroke="rgb(0,0,255)" stroke-width="0.20" />
  <path d="M 18.650 47.097 C 18.650 47.615 18.501 48.121 18.221 48.557 C 17.942 48.992 17.542 49.338 17.072 49.553 C 16.601 49.768 16.078 49.843 15.566 49.770 C 15.053 49.696 14.573 49.477 14.182 49.138 C 13.791 48.799 13.505 48.354 13.359 47.858 C 13.214 47.361 13.214 46.833 13.359 46.336 C 13.505 45.840 13.791 45.396 14.182 45.057 C 14.573 44.718 15.053 44.498 15.566 44.425 C 16.078 44.351 16.601 44.426 17.072 44.641 C 17.542 44.856 17.942 45.202 18.221 45.637 C 18.501 46.073 18.650 46.579 18.650 47.097 Z" stroke="rgb(0,0,255)" stroke-width="0.20" />
  <path d="M 28.250 47.097 C 28.250 47.615 28.101 48.121 27.821 48.557 C 27.542 48.992 27.142 49.338 26.672 49.553 C 26.201 49.768 25.678 49.843 25.166 49.770 C 24.653 49.696 24.173 49.477 23.782 49.138 C 23.391 48.799 23.105 48.354 22.959 47.858 C 22.814 47.361 22.814 46.833 22.959 46.336 C 23.105 45.840 23.391 45.396 23.782 45.057 C 24.173 44.718 24.653 44.498 25.166 44.425 C 25.678 44.351 26.201 44.426 26.672 44.641 C 27.142 44.856 27.542 45.202 27.821 45.637 C 28.101 46.073 28.250 46.579 28.250 47.097 Z" stroke="rgb(0,0,255)" stroke-width="0.20" />
  <path d="M 37.850 47.097 C 37.850 47.615 37.701 48.121 37.421 48.557 C 37.142 48.992 36.742 49.338 36.272 49.553 C 35.801 49.768 35.278 49.843 34.766 49.770 C 34.253 49.696 33.773 49.477 33.382 49.138 C 32.991 48.799 32.705 48.354 32.559 47.858 C 32.414 47.361 32.414 46.833 32.559 46.336 C 32.705 45.840 32.991 45.396 33.382 45.057 C 33.773 44.718 34.253 44.498 34.766 44.425 C 35.278 44.351 35.801 44.426 36.272 44.641 C 36.742 44.856 37.142 45.202 37.421 45.637 C 37.701 46.073 37.850 46.579 37.850 47.097 Z" stroke="rgb(0,0,255)" stroke-width="0.20" />
  <path d="M 47.450 47.097 C 47.450 47.615 47.301 48.121 47.021 48.557 C 46.742 48.992 46.342 49.338 45.872 49.553 C 45.401 49.768 44.878 49.843 44.366 49.770 C 43.853 49.696 43.373 49.477 42.982 49.138 C 42.591 48.799 42.305 48.354 42.159 47.858 C 42.014 47.361 42.014 46.833 42.159 46.336 C 42.305 45.840 42.591 45.396 42.982 45.057 C 43.373 44.718 43.853 44.498 44.366 44.425 C 44.878 44.351 45.401 44.426 45.872 44.641 C 46.342 44.856 46.742 45.202 47.021 45.637 C 47.301 46.073 47.450 46.579 47.450 47.097 Z" stroke="rgb(0,0,255)" stroke-width="0.20" />
  <path d="M 57.050 47.097 C 57.050 47.615 56.901 48.121 56.621 48.557 C 56.342 48.992 55.942 49.338 55.472 49.553 C 55.001 49.768 54.478 49.843 53.966 49.770 C 53.453 49.696 52.973 49.477 52.582 49.138 C 52.191 48.799 51.905 48.354 51.759 47.858 C 51.614 47.361 51.614 46.833 51.759 46.336 C 51.905 45.840 52.191 45.396 52.582 45.057 C 52.973 44.718 53.453 44.498 53.966 44.425 C 54.478 44.351 55.001 44.426 55.472 44.641 C 55.942 44.856 56.342 45.202 56.621 45.637 C 56.901 46.073 57.050 46.579 57.050 47.097 Z" stroke="rgb(0,0,255)" stroke-width="0.20" />
  <path d="M 66.650 47.097 C 66.650 47.615 66.501 48.121 66.221 48.557 C 65.942 48.992 65.542 49.338 65.072 49.553 C 64.601 49.768 64.078 49.843 63.566 49.770 C 63.053 49.696 62.573 49.477 62.182 49.138 C 61.791 48.799 61.505 48.354 61.359 47.858 C 61.214 47.361 61.214 46.833 61.359 46.336 C 61.505 45.840 61.791 45.396 62.182 45.057 C 62.573 44.718 63.053 44.498 63.566 44.425 C 64.078 44.351 64.601 44.426 65.072 44.641 C 65.542 44.856 65.942 45.202 66.221 45.637 C 66.501 46.073 66.650 46.579 66.650 47.097 Z" stroke="rgb(0,0,255)" stroke-width="0.20" />
  <path d="M 76.250 47.097 C 76.250 47.615 76.101 48.121 75.821 48.557 C 75.542 48.992 75.142 49.338 74.672 49.553 C 74.201 49.768 73.678 49.843 73.166 49.770 C 72.653 49.696 72.173 49.477 71.782 49.138 C 71.391 48.799 71.105 48.354 70.959 47.858 C 70.814 47.361 70.814 46.833 70.959 46.336 C 71.105 45.840 71.391 45.396 71.782 45.057 C 72.173 44.718 72.653 44.498 73.166 44.425 C 73.678 44.351 74.201 44.426 74.672 44.641 C 75.142 44.856 75.542 45.202 75.821 45.637 C 76.101 46.073 76.250 46.579 76.250 47.097 Z" stroke="rgb(0,0,255)" stroke-width="0.20" />
  <path d="M 85.850 47.097 C 85.850 47.615 85.701 48.121 85.421 48.557 C 85.142 48.992 84.742 49.338 84.272 49.553 C 83.801 49.768 83.278 49.843 82.766 49.770 C 82.253 49.696 81.773 49.477 81.382 49.138 C 80.991 48.799 80.705 48.354 80.559 47.858 C 80.414 47.361 80.414 46.833 80.559 46.336 C 80.705 45.840 80.991 45.396 81.382 45.057 C 81.773 44.718 82.253 44.498 82.766 44.425 C 83.278 44.351 83.801 44.426 84.272 44.641 C 84.742 44.856 85.142 45.202 85.421 45.637 C 85.701 46.073 85.850 46.579 85.850 47.097 Z" stroke="rgb(0,0,255)" stroke-width="0.20" />
  <path d="M 95.450 47.097 C 95.450 47.615 95.301 48.121 95.021 48.557 C 94.742 48.992 94.342 49.338 93.872 49.553 C 93.401 49.768 92.878 49.843 92.366 49.770 C 91.853 49.696 91.373 49.477 90.982 49.138 C 90.591 48.799 90.305 48.354 90.159 47.858 C 90.014 47.361 90.014 46.833 90.159 46.336 C 90.305 45.840 90.591 45.396 90.982 45.057 C 91.373 44.718 91.853 44.498 92.366 44.425 C 92.878 44.351 93.401 44.426 93.872 44.641 C 94.342 44.856 94.742 45.202 95.021 45.637 C 95.301 46.073 95.450 46.579 95.450 47.097 Z" stroke="rgb(0,0,255)" stroke-width="0.20" />
  <path d="M 105.050 47.097 C 105.050 47.615 104.901 48.121 104.621 48.557 C 104.342 48.992 103.942 49.338 103.472 49.553 C 103.001 49.768 102.478 49.843 101.966 49.770 C 101.453 49.696 100.973 49.477 100.582 49.138 C 100.191 48.799 99.905 48.354 99.759 47.858 C 99.614 47.361 99.614 46.833 99.759 46.336 C 99.905 45.840 100.191 45.396 100.582 45.057 C 100.973 44.718 101.453 44.498 101.966 44.425 C 102.478 44.351 103.001 44.426 103.472 44.641 C 103.942 44.856 104.342 45.202 104.621 45.637 C 104.901 46.073 105.050 46.579 105.050 47.097 Z" stroke="rgb(0,0,255)" stroke-width="0.20" />
  <path d="M 23.450 38.491 C 23.450 39.009 23.301 39.515 23.021 39.951 C 22.742 40.386 22.342 40.732 21.872 40.947 C 21.401 41.162 20.878 41.237 20.366 41.163 C 19.853 41.090 19.373 40.870 18.982 40.531 C 18.591 40.192 18.305 39.748 18.159 39.252 C 18.014 38.755 18.014 38.227 18.159 37.730 C 18.305 37.234 18.591 36.789 18.982 36.450 C 19.373 36.111 19.853 35.892 20.366 35.818 C 20.878 35.745 21.401 35.820 21.872 36.035 C 22.342 36.250 22.742 36.596 23.021 37.031 C 23.301 37.467 23.450 37.973 23.450 38.491 Z" stroke="rgb(0,0,255)" stroke-width="0.20" />
  <path d="M 33.050 38.491 C 33.050 39.009 32.901 39.515 32.621 39.951 C 32.342 40.386 31.942 40.732 31.472 40.947 C 31.001 41.162 30.478 41.237 29.966 41.163 C 29.453 41.090 28.973 40.870 28.582 40.531 C 28.191 40.192 27.905 39.748 27.759 39.252 C 27.614 38.755 27.614 38.227 27.759 37.730 C 27.905 37.234 28.191 36.789 28.582 36.450 C 28.973 36.111 29.453 35.892 29.966 35.818 C 30.478 35.745 31.001 35.820 31.472 36.035 C 31.942 36.250 32.342 36.596 32.621 37.031 C 32.901 37.467 33.050 37.973 33.050 38.491 Z" stroke="rgb(0,0,255)" stroke-width="0.20" />
  <path d="M 42.650 38.491 C 42.650 39.009 42.501 39.515 42.221 39.951 C 41.942 40.386 41.542 40.732 41.072 40.947 C 40.601 41.162 40.078 41.237 39.566 41.163 C 39.053 41.090 38.573 40.870 38.182 40.531 C 37.791 40.192 37.505 39.748 37.359 39.252 C 37.214 38.755 37.214 38.227 37.359 37.730 C 37.505 37.234 37.791 36.789 38.182 36.450 C 38.573 36.111 39.053 35.892 39.566 35.818 C 40.078 35.745 40.601 35.820 41.072 36.035 C 41.542 36.250 41.942 36.596 42.221 37.031 C 42.501 37.467 42.650 37.973 42.650 38.491 Z" stroke="rgb(0,0,255)" stroke-width="0.20" />
  <path d="M 52.250 38.491 C 52.250 39.009 52.101 39.515 51.821 39.951 C 51.542 40.386 51.142 40.732 50.672 40.947 C 50.201 41.162 49.678 41.237 49.166 41.163 C 48.653 41.090 48.173 40.870 47.782 40.531 C 47.391 40.192 47.105 39.748 46.959 39.252 C 46.814 38.755 46.814 38.227 46.959 37.730 C 47.105 37.234 47.391 36.789 47.782 36.450 C 48.173 36.111 48.653 35.892 49.166 35.818 C 49.678 35.745 50.201 35.820 50.672 36.035 C 51.142 36.250 51.542 36.596 51.821 37.031 C 52.101 37.467 52.250 37.973 52.250 38.491 Z" stroke="rgb(0,0,255)" stroke-width="0.20" />
  <path d="M 61.850 38.491 C 61.850 39.009 61.701 39.515 61.421 39.951 C 61.142 40.386 60.742 40.732 60.272 40.947 C 59.801 41.162 59.278 41.237 58.766 41.163 C 58.253 41.090 57.773 40.870 57.382 40.531 C 56.991 40.192 56.705 39.748 56.559 39.252 C 56.414 38.755 56.414 38.227 56.559 37.730 C 56.705 37.234 56.991 36.789 57.382 36.450 C 57.773 36.111 58.253 35.892 58.766 35.818 C 59.278 35.745 59.801 35.820 60.272 36.035 C 60.742 36.250 61.142 36.596 61.421 37.031 C 61.701 37.467 61.850 37.973 61.850 38.491 Z" stroke="rgb(0,0,255)" stroke-width="0.20" />
  <path d="M 71.450 38.491 C 71.450 39.009 71.301 39.515 71.021 39.951 C 70.742 40.386 70.342 40.732 69.872 40.947 C 69.401 41.162 68.878 41.237 68.366 41.163 C 67.853 41.090 67.373 40.870 66.982 40.531 C 66.591 40.192 66.305 39.748 66.159 39.252 C 66.014 38.755 66.014 38.227 66.159 37.730 C 66.305 37.234 66.591 36.789 66.982 36.450 C 67.373 36.111 67.853 35.892 68.366 35.818 C 68.878 35.745 69.401 35.820 69.872 36.035 C 70.342 36.250 70.742 36.596 71.021 37.031 C 71.301 37.467 71.450 37.973 71.450 38.491 Z" stroke="rgb(0,0,255)" stroke-width="0.20" />
  <path d="M 81.050 38.491 C 81.050 39.009 80.901 39.515 80.621 39.951 C 80.342 40.386 79.942 40.732 79.472 40.947 C 79.001 41.162 78.478 41.237 77.966 41.163 C 77.453 41.090 76.973 40.870 76.582 40.531 C 76.191 40.192 75.905 39.748 75.759 39.252 C 75.614 38.755 75.614 38.227 75.759 37.730 C 75.905 37.234 76.191 36.789 76.582 36.450 C 76.973 36.111 77.453 35.892 77.966 35.818 C 78.478 35.745 79.001 35.820 79.472 36.035 C 79.942 36.250 80.342 36.596 80.621 37.031 C 80.901 37.467 81.050 37.973 81.050 38.491 Z" stroke="rgb(0,0,255)" stroke-width="0.20" />
  <path d="M 90.650 38.491 C 90.650 39.009 90.501 39.515 90.221 39.951 C 89.942 40.386 89.542 40.732 89.072 40.947 C 88.601 41.162 88.078 41.237 87.566 41.163 C 87.053 41.090 86.573 40.870 86.182 40.531 C 85.791 40.192 85.505 39.748 85.359 39.252 C 85.214 38.755 85.214 38.227 85.359 37.730 C 85.505 37.234 85.791 36.789 86.182 36.450 C 86.573 36.111 87.053 35.892 87.566 35.818 C 88.078 35.745 88.601 35.820 89.072 36.035 C 89.542 36.250 89.942 36.596 90.221 37.031 C 90.501 37.467 90.650 37.973 90.650 38.491 Z" stroke="rgb(0,0,255)" stroke-width="0.20" />
  <path d="M 100.250 38.491 C 100.250 39.009 100.101 39.515 99.821 39.951 C 99.542 40.386 99.142 40.732 98.672 40.947 C 98.201 41.162 97.678 41.237 97.166 41.163 C 96.653 41.090 96.173 40.870 95.782 40.531 C 95.391 40.192 95.105 39.748 94.959 39.252 C 94.814 38.755 94.814 38.227 94.959 37.730 C 95.105 37.234 95.391 36.789 95.782 36.450 C 96.173 36.111 96.653 35.892 97.166 35.818 C 97.678 35.745 98.201 35.820 98.672 36.035 C 99.142 36.250 99.542 36.596 99.821 37.031 C 100.101 37.467 100.250 37.973 100.250 38.491 Z" stroke="rgb(0,0,255)" stroke-width="0.20" />
  <path d="M 18.650 29.885 C 18.650 30.402 18.501 30.909 18.221 31.345 C 17.942 31.780 17.542 32.126 17.072 32.341 C 16.601 32.556 16.078 32.631 15.566 32.557 C 15.053 32.484 14.573 32.264 14.182 31.925 C 13.791 31.586 13.505 31.142 13.359 30.645 C 13.214 30.149 13.214 29.621 13.359 29.124 C 13.505 28.627 13.791 28.183 14.182 27.844 C 14.573 27.505 15.053 27.286 15.566 27.212 C 16.078 27.139 16.601 27.214 17.072 27.429 C 17.542 27.644 17.942 27.990 18.221 28.425 C 18.501 28.860 18.650 29.367 18.650 29.885 Z" stroke="rgb(0,0,255)" stroke-width="0.20" />
  <path d="M 28.250 29.885 C 28.250 30.402 28.101 30.909 27.821 31.345 C 27.542 31.780 27.142 32.126 26.672 32.341 C 26.201 32.556 25.678 32.631 25.166 32.557 C 24.653 32.484 24.173 32.264 23.782 31.925 C 23.391 31.586 23.105 31.142 22.959 30.645 C 22.814 30.149 22.814 29.621 22.959 29.124 C 23.105 28.627 23.391 28.183 23.782 27.844 C 24.173 27.505 24.653 27.286 25.166 27.212 C 25.678 27.139 26.201 27.214 26.672 27.429 C 27.142 27.644 27.542 27.990 27.821 28.425 C 28.101 28.860 28.250 29.367 28.250 29.885 Z" stroke="rgb(0,0,255)" stroke-width="0.20" />
  <path d="M 37.850 29.885 C 37.850 30.402 37.701 30.909 37.421 31.345 C 37.142 31.780 36.742 32.126 36.272 32.341 C 35.801 32.556 35.278 32.631 34.766 32.557 C 34.253 32.484 33.773 32.264 33.382 31.925 C 32.991 31.586 32.705 31.142 32.559 30.645 C 32.414 30.149 32.414 29.621 32.559 29.124 C 32.705 28.627 32.991 28.183 33.382 27.844 C 33.773 27.505 34.253 27.286 34.766 27.212 C 35.278 27.139 35.801 27.214 36.272 27.429 C 36.742 27.644 37.142 27.990 37.421 28.425 C 37.701 28.860 37.850 29.367 37.850 29.885 Z" stroke="rgb(0,0,255)" stroke-width="0.20" />
  <path d="M 47.450 29.885 C 47.450 30.402 47.301 30.909 47.021 31.345 C 46.742 31.780 46.342 32.126 45.872 32.341 C 45.401 32.556 44.878 32.631 44.366 32.557 C 43.853 32.484 43.373 32.264 42.982 31.925 C 42.591 31.586 42.305 31.142 42.159 30.645 C 42.014 30.149 42.014 29.621 42.159 29.124 C 42.305 28.627 42.591 28.183 42.982 27.844 C 43.373 27.505 43.853 27.286 44.366 27.212 C 44.878 27.139 45.401 27.214 45.872 27.429 C 46.342 27.644 46.742 27.990 47.021 28.425 C 47.301 28.860 47.450 29.367 47.450 29.885 Z" stroke="rgb(0,0,255)" stroke-width="0.20" />
  <path d="M 57.050 29.885 C 57.050 30.402 56.901 30.909 56.621 31.345 C 56.342 31.780 55.942 32.126 55.472 32.341 C 55.001 32.556 54.478 32.631 53.966 32.557 C 53.453 32.484 52.973 32.264 52.582 31.925 C 52.191 31.586 51.905 31.142 51.759 30.645 C 51.614 30.149 51.614 29.621 51.759 29.124 C 51.905 28.627 52.191 28.183 52.582 27.844 C 52.973 27.505 53.453 27.286 53.966 27.212 C 54.478 27.139 55.001 27.214 55.472 27.429 C 55.942 27.644 56.342 27.990 56.621 28.425 C 56.901 28.860 57.050 29.367 57.050 29.885 Z" stroke="rgb(0,0,255)" stroke-width="0.20" />
  <path d="M 66.650 29.885 C 66.650 30.402 66.501 30.909 66.221 31.345 C 65.942 31.780 65.542 32.126 65.072 32.341 C 64.601 32.556 64.078 32.631 63.566 32.557 C 63.053 32.484 62.573 32.264 62.182 31.925 C 61.791 31.586 61.505 31.142 61.359 30.645 C 61.214 30.149 61.214 29.621 61.359 29.124 C 61.505 28.627 61.791 28.183 62.182 27.844 C 62.573 27.505 63.053 27.286 63.566 27.212 C 64.078 27.139 64.601 27.214 65.072 27.429 C 65.542 27.644 65.942 27.990 66.221 28.425 C 66.501 28.860 66.650 29.367 66.650 29.885 Z" stroke="rgb(0,0,255)" stroke-width="0.20" />
  <path d="M 76.250 29.885 C 76.250 30.402 76.101 30.909 75.821 31.345 C 75.542 31.780 75.142 32.126 74.672 32.341 C 74.201 32.556 73.678 32.631 73.166 32.557 C 72.653 32.484 72.173 32.264 71.782 31.925 C 71.391 31.586 71.105 31.142 70.959 30.645 C 70.814 30.149 70.814 29.621 70.959 29.124 C 71.105 28.627 71.391 28.183 71.782 27.844 C 72.173 27.505 72.653 27.286 73.166 27.212 C 73.678 27.139 74.201 27.214 74.672 27.429 C 75.142 27.644 75.542 27.990 75.821 28.425 C 76.101 28.860 76.250 29.367 76.250 29.885 Z" stroke="rgb(0,0,255)" stroke-width="0.20" />
  <path d="M 85.850 29.885 C 85.850 30.402 85.701 30.909 85.421 31.345 C 85.142 31.780 84.742 32.126 84.272 32.341 C 83.801 32.556 83.278 32.631 82.766 32.557 C 82.253 32.484 81.773 32.264 81.382 31.925 C 80.991 31.586 80.705 31.142 80.559 30.645 C 80.414 30.149 80.414 29.621 80.559 29.124 C 80.705 28.627 80.991 28.183 81.382 27.844 C 81.773 27.505 82.253 27.286 82.766 27.212 C 83.278 27.139 83.801 27.214 84.272 27.429 C 84.742 27.644 85.142 27.990 85.421 28.425 C 85.701 28.860 85.850 29.367 85.850 29.885 Z" stroke="rgb(0,0,255)" stroke-width="0.20" />
  <path d="M 95.450 29.885 C 95.450 30.402 95.301 30.909 95.021 31.345 C 94.742 31.780 94.342 32.126 93.872 32.341 C 93.401 32.556 92.878 32.631 92.366 32.557 C 91.853 32.484 91.373 32.264 90.982 31.925 C 90.591 31.586 90.305 31.142 90.159 30.645 C 90.014 30.149 90.014 29.621 90.159 29.124 C 90.305 28.627 90.591 28.183 90.982 27.844 C 91.373 27.505 91.853 27.286 92.366 27.212 C 92.878 27.139 93.401 27.214 93.872 27.429 C 94.342 27.644 94.742 27.990 95.021 28.425 C 95.301 28.860 95.450 29.367 95.450 29.885 Z" stroke="rgb(0,0,255)" stroke-width="0.20" />
  <path d="M 105.050 29.885 C 105.050 30.402 104.901 30.909 104.621 31.345 C 104.342 31.780 103.942 32.126 103.472 32.341 C 103.001 32.556 102.478 32.631 101.966 32.557 C 101.453 32.484 100.973 32.264 100.582 31.925 C 100.191 31.586 99.905 31.142 99.759 30.645 C 99.614 30.149 99.614 29.621 99.759 29.124 C 99.905 28.627 100.191 28.183 100.582 27.844 C 100.973 27.505 101.453 27.286 101.966 27.212 C 102.478 27.139 103.001 27.214 103.472 27.429 C 103.942 27.644 104.342 27.990 104.621 28.425 C 104.901 28.860 105.050 29.367 105.050 29.885 Z" stroke="rgb(0,0,255)" stroke-width="0.20" />
  <path d="M 23.450 21.279 C 23.450 21.796 23.301 22.303 23.021 22.738 C 22.742 23.174 22.342 23.520 21.872 23.735 C 21.401 23.950 20.878 24.025 20.366 23.951 C 19.853 23.878 19.373 23.658 18.982 23.319 C 18.591 22.980 18.305 22.536 18.159 22.039 C 18.014 21.543 18.014 21.015 18.159 20.518 C 18.305 20.021 18.591 19.577 18.982 19.238 C 19.373 18.899 19.853 18.680 20.366 18.606 C 20.878 18.532 21.401 18.608 21.872 18.823 C 22.342 19.038 22.742 19.383 23.021 19.819 C 23.301 20.254 23.450 20.761 23.450 21.279 Z" stroke="rgb(0,0,255)" stroke-width="0.20" />
  <path d="M 33.050 21.279 C 33.050 21.796 32.901 22.303 32.621 22.738 C 32.342 23.174 31.942 23.520 31.472 23.735 C 31.001 23.950 30.478 24.025 29.966 23.951 C 29.453 23.878 28.973 23.658 28.582 23.319 C 28.191 22.980 27.905 22.536 27.759 22.039 C 27.614 21.543 27.614 21.015 27.759 20.518 C 27.905 20.021 28.191 19.577 28.582 19.238 C 28.973 18.899 29.453 18.680 29.966 18.606 C 30.478 18.532 31.001 18.608 31.472 18.823 C 31.942 19.038 32.342 19.383 32.621 19.819 C 32.901 20.254 33.050 20.761 33.050 21.279 Z" stroke="rgb(0,0,255)" stroke-width="0.20" />
  <path d="M 42.650 21.279 C 42.650 21.796 42.501 22.303 42.221 22.738 C 41.942 23.174 41.542 23.520 41.072 23.735 C 40.601 23.950 40.078 24.025 39.566 23.951 C 39.053 23.878 38.573 23.658 38.182 23.319 C 37.791 22.980 37.505 22.536 37.359 22.039 C 37.214 21.543 37.214 21.015 37.359 20.518 C 37.505 20.021 37.791 19.577 38.182 19.238 C 38.573 18.899 39.053 18.680 39.566 18.606 C 40.078 18.532 40.601 18.608 41.072 18.823 C 41.542 19.038 41.942 19.383 42.221 19.819 C 42.501 20.254 42.650 20.761 42.650 21.279 Z" stroke="rgb(0,0,255)" stroke-width="0.20" />
  <path d="M 52.250 21.279 C 52.250 21.796 52.101 22.303 51.821 22.738 C 51.542 23.174 51.142 23.520 50.672 23.735 C 50.201 23.950 49.678 24.025 49.166 23.951 C 48.653 23.878 48.173 23.658 47.782 23.319 C 47.391 22.980 47.105 22.536 46.959 22.039 C 46.814 21.543 46.814 21.015 46.959 20.518 C 47.105 20.021 47.391 19.577 47.782 19.238 C 48.173 18.899 48.653 18.680 49.166 18.606 C 49.678 18.532 50.201 18.608 50.672 18.823 C 51.142 19.038 51.542 19.383 51.821 19.819 C 52.101 20.254 52.250 20.761 52.250 21.279 Z" stroke="rgb(0,0,255)" stroke-width="0.20" />
  <path d="M 61.850 21.279 C 61.850 21.796 61.701 22.303 61.421 22.738 C 61.142 23.174 60.742 23.520 60.272 23.735 C 59.801 23.950 59.278 24.025 58.766 23.951 C 58.253 23.878 57.773 23.658 57.382 23.319 C 56.991 22.980 56.705 22.536 56.559 22.039 C 56.414 21.543 56.414 21.015 56.559 20.518 C 56.705 20.021 56.991 19.577 57.382 19.238 C 57.773 18.899 58.253 18.680 58.766 18.606 C 59.278 18.532 59.801 18.608 60.272 18.823 C 60.742 19.038 61.142 19.383 61.421 19.819 C 61.701 20.254 61.850 20.761 61.850 21.279 Z" stroke="rgb(0,0,255)" stroke-width="0.20" />
  <path d="M 71.450 21.279 C 71.450 21.796 71.301 22.303 71.021 22.738 C 70.742 23.174 70.342 23.520 69.872 23.735 C 69.401 23.950 68.878 24.025 68.366 23.951 C 67.853 23.878 67.373 23.658 66.982 23.319 C 66.591 22.980 66.305 22.536 66.159 22.039 C 66.014 21.543 66.014 21.015 66.159 20.518 C 66.305 20.021 66.591 19.577 66.982 19.238 C 67.373 18.899 67.853 18.680 68.366 18.606 C 68.878 18.532 69.401 18.608 69.872 18.823 C 70.342 19.038 70.742 19.383 71.021 19.819 C 71.301 20.254 71.450 20.761 71.450 21.279 Z" stroke="rgb(0,0,255)" stroke-width="0.20" />
  <path d="M 81.050 21.279 C 81.050 21.796 80.901 22.303 80.621 22.738 C 80.342 23.174 79.942 23.520 79.472 23.735 C 79.001 23.950 78.478 24.025 77.966 23.951 C 77.453 23.878 76.973 23.658 76.582 23.319 C 76.191 22.980 75.905 22.536 75.759 22.039 C 75.614 21.543 75.614 21.015 75.759 20.518 C 75.905 20.021 76.191 19.577 76.582 19.238 C 76.973 18.899 77.453 18.680 77.966 18.606 C 78.478 18.532 79.001 18.608 79.472 18.823 C 79.942 19.038 80.342 19.383 80.621 19.819 C 80.901 20.254 81.050 20.761 81.050 21.279 Z" stroke="rgb(0,0,255)" stroke-width="0.20" />
  <path d="M 90.650 21.279 C 90.650 21.796 90.501 22.303 90.221 22.738 C 89.942 23.174 89.542 23.520 89.072 23.735 C 88.601 23.950 88.078 24.025 87.566 23.951 C 87.053 23.878 86.573 23.658 86.182 23.319 C 85.791 22.980 85.505 22.536 85.359 22.039 C 85.214 21.543 85.214 21.015 85.359 20.518 C 85.505 20.021 85.791 19.577 86.182 19.238 C 86.573 18.899 87.053 18.680 87.566 18.606 C 88.078 18.532 88.601 18.608 89.072 18.823 C 89.542 19.038 89.942 19.383 90.221 19.819 C 90.501 20.254 90.650 20.761 90.650 21.279 Z" stroke="rgb(0,0,255)" stroke-width="0.20" />
  <path d="M 100.250 21.279 C 100.250 21.796 100.101 22.303 99.821 22.738 C 99.542 23.174 99.142 23.520 98.672 23.735 C 98.201 23.950 97.678 24.025 97.166 23.951 C 96.653 23.878 96.173 23.658 95.782 23.319 C 95.391 22.980 95.105 22.536 94.959 22.039 C 94.814 21.543 94.814 21.015 94.959 20.518 C 95.105 20.021 95.391 19.577 95.782 19.238 C 96.173 18.899 96.653 18.680 97.166 18.606 C 97.678 18.532 98.201 18.608 98.672 18.823 C 99.142 19.038 99.542 19.383 99.821 19.819 C 100.101 20.254 100.250 20.761 100.250 21.279 Z" stroke="rgb(0,0,255)" stroke-width="0.20" />
  <path d="M 18.650 12.673 C 18.650 13.190 18.501 13.697 18.221 14.132 C 17.942 14.568 17.542 14.914 17.072 15.129 C 16.601 15.344 16.078 15.419 15.566 15.345 C 15.053 15.271 14.573 15.052 14.182 14.713 C 13.791 14.374 13.505 13.930 13.359 13.433 C 13.214 12.937 13.214 12.408 13.359 11.912 C 13.505 11.415 13.791 10.971 14.182 10.632 C 14.573 10.293 15.053 10.074 15.566 10.000 C 16.078 9.926 16.601 10.001 17.072 10.217 C 17.542 10.432 17.942 10.777 18.221 11.213 C 18.501 11.648 18.650 12.155 18.650 12.673 Z" stroke="rgb(0,0,255)" stroke-width="0.20" />
  <path d="M 28.250 12.673 C 28.250 13.190 28.101 13.697 27.821 14.132 C 27.542 14.568 27.142 14.914 26.672 15.129 C 26.201 15.344 25.678 15.419 25.166 15.345 C 24.653 15.271 24.173 15.052 23.782 14.713 C 23.391 14.374 23.105 13.930 22.959 13.433 C 22.814 12.937 22.814 12.408 22.959 11.912 C 23.105 11.415 23.391 10.971 23.782 10.632 C 24.173 10.293 24.653 10.074 25.166 10.000 C 25.678 9.926 26.201 10.001 26.672 10.217 C 27.142 10.432 27.542 10.777 27.821 11.213 C 28.101 11.648 28.250 12.155 28.250 12.673 Z" stroke="rgb(0,0,255)" stroke-width="0.20" />
  <path d="M 37.850 12.673 C 37.850 13.190 37.701 13.697 37.421 14.132 C 37.142 14.568 36.742 14.914 36.272 15.129 C 35.801 15.344 35.278 15.419 34.766 15.345 C 34.253 15.271 33.773 15.052 33.382 14.713 C 32.991 14.374 32.705 13.930 32.559 13.433 C 32.414 12.937 32.414 12.408 32.559 11.912 C 32.705 11.415 32.991 10.971 33.382 10.632 C 33.773 10.293 34.253 10.074 34.766 10.000 C 35.278 9.926 35.801 10.001 36.272 10.217 C 36.742 10.432 37.142 10.777 37.421 11.213 C 37.701 11.648 37.850 12.155 37.850 12.673 Z" stroke="rgb(0,0,255)" stroke-width="0.20" />
  <path d="M 47.450 12.673 C 47.450 13.190 47.301 13.697 47.021 14.132 C 46.742 14.568 46.342 14.914 45.872 15.129 C 45.401 15.344 44.878 15.419 44.366 15.345 C 43.853 15.271 43.373 15.052 42.982 14.713 C 42.591 14.374 42.305 13.930 42.159 13.433 C 42.014 12.937 42.014 12.408 42.159 11.912 C 42.305 11.415 42.591 10.971 42.982 10.632 C 43.373 10.293 43.853 10.074 44.366 10.000 C 44.878 9.926 45.401 10.001 45.872 10.217 C 46.342 10.432 46.742 10.777 47.021 11.213 C 47.301 11.648 47.450 12.155 47.450 12.673 Z" stroke="rgb(0,0,255)" stroke-width="0.20" />
  <path d="M 57.050 12.673 C 57.050 13.190 56.901 13.697 56.621 14.132 C 56.342 14.568 55.942 14.914 55.472 15.129 C 55.001 15.344 54.478 15.419 53.966 15.345 C 53.453 15.271 52.973 15.052 52.582 14.713 C 52.191 14.374 51.905 13.930 51.759 13.433 C 51.614 12.937 51.614 12.408 51.759 11.912 C 51.905 11.415 52.191 10.971 52.582 10.632 C 52.973 10.293 53.453 10.074 53.966 10.000 C 54.478 9.926 55.001 10.001 55.472 10.217 C 55.942 10.432 56.342 10.777 56.621 11.213 C 56.901 11.648 57.050 12.155 57.050 12.673 Z" stroke="rgb(0,0,255)" stroke-width="0.20" />
  <path d="M 66.650 12.673 C 66.650 13.190 66.501 13.697 66.221 14.132 C 65.942 14.568 65.542 14.914 65.072 15.129 C 64.601 15.344 64.078 15.419 63.566 15.345 C 63.053 15.271 62.573 15.052 62.182 14.713 C 61.791 14.374 61.505 13.930 61.359 13.433 C 61.214 12.937 61.214 12.408 61.359 11.912 C 61.505 11.415 61.791 10.971 62.182 10.632 C 62.573 10.293 63.053 10.074 63.566 10.000 C 64.078 9.926 64.601 10.001 65.072 10.217 C 65.542 10.432 65.942 10.777 66.221 11.213 C 66.501 11.648 66.650 12.155 66.650 12.673 Z" stroke="rgb(0,0,255)" stroke-width="0.20" />
  <path d="M 76.250 12.673 C 76.250 13.190 76.101 13.697 75.821 14.132 C 75.542 14.568 75.142 14.914 74.672 15.129 C 74.201 15.344 73.678 15.419 73.166 15.345 C 72.653 15.271 72.173 15.052 71.782 14.713 C 71.391 14.374 71.105 13.930 70.959 13.433 C 70.814 12.937 70.814 12.408 70.959 11.912 C 71.105 11.415 71.391 10.971 71.782 10.632 C 72.173 10.293 72.653 10.074 73.166 10.000 C 73.678 9.926 74.201 10.001 74.672 10.217 C 75.142 10.432 75.542 10.777 75.821 11.213 C 76.101 11.648 76.250 12.155 76.250 12.673 Z" stroke="rgb(0,0,255)" stroke-width="0.20" />
  <path d="M 85.850 12.673 C 85.850 13.190 85.701 13.697 85.421 14.132 C 85.142 14.568 84.742 14.914 84.272 15.129 C 83.801 15.344 83.278 15.419 82.766 15.345 C 82.253 15.271 81.773 15.052 81.382 14.713 C 80.991 14.374 80.705 13.930 80.559 13.433 C 80.414 12.937 80.414 12.408 80.559 11.912 C 80.705 11.415 80.991 10.971 81.382 10.632 C 81.773 10.293 82.253 10.074 82.766 10.000 C 83.278 9.926 83.801 10.001 84.272 10.217 C 84.742 10.432 85.142 10.777 85.421 11.213 C 85.701 11.648 85.850 12.155 85.850 12.673 Z" stroke="rgb(0,0,255)" stroke-width="0.20" />
  <path d="M 95.450 12.673 C 95.450 13.190 95.301 13.697 95.021 14.132 C 94.742 14.568 94.342 14.914 93.872 15.129 C 93.401 15.344 92.878 15.419 92.366 15.345 C 91.853 15.271 91.373 15.052 90.982 14.713 C 90.591 14.374 90.305 13.930 90.159 13.433 C 90.014 12.937 90.014 12.408 90.159 11.912 C 90.305 11.415 90.591 10.971 90.982 10.632 C 91.373 10.293 91.853 10.074 92.366 10.000 C 92.878 9.926 93.401 10.001 93.872 10.217 C 94.342 10.432 94.742 10.777 95.021 11.213 C 95.301 11.648 95.450 12.155 95.450 12.673 Z" stroke="rgb(0,0,255)" stroke-width="0.20" />
  <path d="M 105.050 12.673 C 105.050 13.190 104.901 13.697 104.621 14.132 C 104.342 14.568 103.942 14.914 103.472 15.129 C 103.001 15.344 102.478 15.419 101.966 15.345 C 101.453 15.271 100.973 15.052 100.582 14.713 C 100.191 14.374 99.905 13.930 99.759 13.433 C 99.614 12.937 99.614 12.408 99.759 11.912 C 99.905 11.415 100.191 10.971 100.582 10.632 C 100.973 10.293 101.453 10.074 101.966 10.000 C 102.478 9.926 103.001 10.001 103.472 10.217 C 103.942 10.432 104.342 10.777 104.621 11.213 C 104.901 11.648 105.050 12.155 105.050 12.673 Z" stroke="rgb(0,0,255)" stroke-width="0.20" />
</g>
</svg>