<?xml version='1.0' encoding='utf-8'?>
<svg height="727.20mm" viewBox="0.0 0.0 137.85 727.20" width="137.85mm" xmlns="http://www.w3.org/2000/svg" xmlns:cc="http://creativecommons.org/ns#" xmlns:dc="http://purl.org/dc/elements/1.1/" xmlns:inkscape="http://www.inkscape.org/namespaces/inkscape" xmlns:rdf="http://www.w3.org/1999/02/22-rdf-syntax-ns#" xmlns:svg="http://www.w3.org/2000/svg" xmlns:xlink="http://www.w3.org/1999/xlink">
<!--
IntegratedHingeBox - Box with lid and integrated hinge.

Created with Boxes.py (https://boxes.hackerspace-bamberg.de/)
Command line (remove spaces between dashes): boxes IntegratedHingeBox
-->
<title>IntegratedHingeBox</title>
<metadata>
<rdf:RDF><cc:Work>
<dc:title>Box - IntegratedHingeBox</dc:title>
<dc:source>boxes IntegratedHingeBox</dc:source>
<dc:description>Box with lid and integrated hinge.

Created with Boxes.py (https://boxes.hackerspace-bamberg.de/)
Command line: boxes IntegratedHingeBox
Command line short: boxes IntegratedHingeBox
</dc:description>
</cc:Work></rdf:RDF></metadata>
<g id="p-0" style="fill:none;stroke-linecap:round;stroke-linejoin:round;">
  <path d="M 18.925 717.200 H 118.925 V 707.200 H 18.925 V 717.200 Z" stroke="rgb(0,0,0)" stroke-width="0.20" />
  <text dominant-baseline="hanging" font-size="6px" style="font-family: sans-serif ; font-weight: normal; font-style: normal; fill: rgb(255,0,0)" text-anchor="middle" transform="matrix( 1.000 0.000 0.000 1.000 68.925 709.200 )">100.0mm, burn:0.10mm</text>
</g>
<g id="p-1" style="fill:none;stroke-linecap:round;stroke-linejoin:round;">
  <path d="M 21.925 705.500 H 29.925 C 29.980 705.500 30.025 705.455 30.025 705.400 V 702.500 C 30.025 702.400 29.925 702.500 30.025 702.500 H 35.825 C 35.925 702.500 35.825 702.400 35.825 702.500 V 705.400 C 35.825 705.455 35.870 705.500 35.925 705.500 H 41.925 C 41.980 705.500 42.025 705.455 42.025 705.400 V 702.500 C 42.025 702.400 41.925 702.500 42.025 702.500 H 47.825 C 47.925 702.500 47.825 702.400 47.825 702.500 V 705.400 C 47.825 705.455 47.870 705.500 47.925 705.500 H 53.925 C 53.980 705.500 54.025 705.455 54.025 705.400 V 702.500 C 54.025 702.400 53.925 702.500 54.025 702.500 H 59.825 C 59.925 702.500 59.825 702.400 59.825 702.500 V 705.400 C 59.825 705.455 59.870 705.500 59.925 705.500 H 65.925 C 65.980 705.500 66.025 705.455 66.025 705.400 V 702.500 C 66.025 702.400 65.925 702.500 66.025 702.500 H 71.825 C 71.925 702.500 71.825 702.400 71.825 702.500 V 705.400 C 71.825 705.455 71.870 705.500 71.925 705.500 H 77.925 C 77.980 705.500 78.025 705.455 78.025 705.400 V 702.500 C 78.025 702.400 77.925 702.500 78.025 702.500 H 83.825 C 83.925 702.500 83.825 702.400 83.825 702.500 V 705.400 C 83.825 705.455 83.870 705.500 83.925 705.500 H 89.925 C 89.980 705.500 90.025 705.455 90.025 705.400 V 702.500 C 90.025 702.400 89.925 702.500 90.025 702.500 H 95.825 C 95.925 702.500 95.825 702.400 95.825 702.500 V 705.400 C 95.825 705.455 95.870 705.500 95.925 705.500 H 101.925 C 101.980 705.500 102.025 705.455 102.025 705.400 V 702.500 C 102.025 702.400 101.925 702.500 102.025 702.500 H 107.825 C 107.925 702.500 107.825 702.400 107.825 702.500 V 705.400 C 107.825 705.455 107.870 705.500 107.925 705.500 H 115.925 C 115.980 705.500 116.025 705.455 116.025 705.400 V 702.400 V 694.500 C 116.025 694.400 115.925 694.500 116.025 694.500 H 118.925 C 118.980 694.500 119.025 694.455 119.025 694.400 V 688.400 C 119.025 688.345 118.980 688.300 118.925 688.300 H 116.025 C 115.925 688.300 116.025 688.400 116.025 688.300 V 682.500 C 116.025 682.400 115.925 682.500 116.025 682.500 H 118.925 C 118.980 682.500 119.025 682.455 119.025 682.400 V 676.400 C 119.025 676.345 118.980 676.300 118.925 676.300 H 116.025 C 115.925 676.300 116.025 676.400 116.025 676.300 V 670.500 C 116.025 670.400 115.925 670.500 116.025 670.500 H 118.925 C 118.980 670.500 119.025 670.455 119.025 670.400 V 664.400 C 119.025 664.345 118.980 664.300 118.925 664.300 H 116.025 C 115.925 664.300 116.025 664.400 116.025 664.300 V 658.500 C 116.025 658.400 115.925 658.500 116.025 658.500 H 118.925 C 118.980 658.500 119.025 658.455 119.025 658.400 V 652.400 C 119.025 652.345 118.980 652.300 118.925 652.300 H 116.025 C 115.925 652.300 116.025 652.400 116.025 652.300 V 646.500 C 116.025 646.400 115.925 646.500 116.025 646.500 H 118.925 C 118.980 646.500 119.025 646.455 119.025 646.400 V 640.400 C 119.025 640.345 118.980 640.300 118.925 640.300 H 116.025 C 115.925 640.300 116.025 640.400 116.025 640.300 V 634.500 C 116.025 634.400 115.925 634.500 116.025 634.500 H 118.925 C 118.980 634.500 119.025 634.455 119.025 634.400 V 628.400 C 119.025 628.345 118.980 628.300 118.925 628.300 H 116.025 C 115.925 628.300 116.025 628.400 116.025 628.300 V 622.500 C 116.025 622.400 115.925 622.500 116.025 622.500 H 118.925 C 118.980 622.500 119.025 622.455 119.025 622.400 V 616.400 C 119.025 616.345 118.980 616.300 118.925 616.300 H 116.025 C 115.925 616.300 116.025 616.400 116.025 616.300 V 608.400 C 116.025 608.345 115.980 608.300 115.925 608.300 H 27.925 C 27.980 608.300 28.025 608.345 28.025 608.400 C 28.025 606.600 27.491 604.841 26.492 603.344 C 25.492 601.848 24.070 600.681 22.408 599.993 C 20.745 599.304 18.915 599.124 17.150 599.475 C 15.385 599.826 13.763 600.693 12.490 601.965 C 11.218 603.238 10.351 604.859 10.000 606.625 C 9.649 608.390 9.829 610.220 10.518 611.882 C 11.207 613.545 12.373 614.966 13.869 615.966 C 15.366 616.966 17.125 617.500 18.925 617.500 H 21.925 C 21.908 617.500 21.890 617.495 21.875 617.487 C 21.860 617.478 21.847 617.465 21.839 617.450 C 21.830 617.435 21.825 617.418 21.825 617.400 C 21.825 617.382 21.830 617.365 21.839 617.350 C 21.847 617.335 21.860 617.322 21.875 617.313 C 21.890 617.305 21.908 617.300 21.925 617.300 C 21.870 617.300 21.825 617.345 21.825 617.400 V 626.800 C 21.825 626.900 21.925 626.800 21.825 626.800 H 18.925 C 18.870 626.800 18.825 626.845 18.825 626.900 V 632.900 C 18.825 632.955 18.870 633.000 18.925 633.000 H 21.825 C 21.925 633.000 21.825 632.900 21.825 633.000 V 638.800 C 21.825 638.900 21.925 638.800 21.825 638.800 H 18.925 C 18.870 638.800 18.825 638.845 18.825 638.900 V 644.900 C 18.825 644.955 18.870 645.000 18.925 645.000 H 21.825 C 21.925 645.000 21.825 644.900 21.825 645.000 V 650.800 C 21.825 650.900 21.925 650.800 21.825 650.800 H 18.925 C 18.870 650.800 18.825 650.845 18.825 650.900 V 656.900 C 18.825 656.955 18.870 657.000 18.925 657.000 H 21.825 C 21.925 657.000 21.825 656.900 21.825 657.000 V 662.800 C 21.825 662.900 21.925 662.800 21.825 662.800 H 18.925 C 18.870 662.800 18.825 662.845 18.825 662.900 V 668.900 C 18.825 668.955 18.870 669.000 18.925 669.000 H 21.825 C 21.925 669.000 21.825 668.900 21.825 669.000 V 674.800 C 21.825 674.900 21.925 674.800 21.825 674.800 H 18.925 C 18.870 674.800 18.825 674.845 18.825 674.900 V 680.900 C 18.825 680.955 18.870 681.000 18.925 681.000 H 21.825 C 21.925 681.000 21.825 680.900 21.825 681.000 V 686.800 C 21.825 686.900 21.925 686.800 21.825 686.800 H 18.925 C 18.870 686.800 18.825 686.845 18.825 686.900 V 692.900 C 18.825 692.955 18.870 693.000 18.925 693.000 H 21.825 C 21.925 693.000 21.825 692.900 21.825 693.000 V 702.400 V 705.400 C 21.825 705.455 21.870 705.500 21.925 705.500 Z" stroke="rgb(0,0,0)" stroke-width="0.20" />
  <path d="M 13.025 608.300 C 13.025 607.169 13.350 606.062 13.962 605.110 C 14.573 604.159 15.445 603.403 16.474 602.933 C 17.503 602.463 18.645 602.299 19.765 602.460 C 20.884 602.621 21.934 603.100 22.789 603.841 C 23.644 604.582 24.267 605.553 24.586 606.638 C 24.905 607.723 24.905 608.877 24.586 609.962 C 24.267 611.047 23.644 612.018 22.789 612.759 C 21.934 613.500 20.884 613.979 19.765 614.140 C 18.645 614.301 17.503 614.137 16.474 613.667 C 15.445 613.197 14.573 612.441 13.962 611.490 C 13.350 610.538 13.025 609.431 13.025 608.300 Z" stroke="rgb(0,0,255)" stroke-width="0.20" />
  <path d="M 20.425 603.910 H 21.825 C 21.925 603.910 21.825 603.810 21.825 603.910 V 608.200 C 21.825 608.300 21.925 608.200 21.825 608.200 H 19.025 C 18.925 608.200 19.025 608.300 19.025 608.200 V 603.910 C 19.025 603.810 18.925 603.910 19.025 603.910 H 20.425 Z" stroke="rgb(0,0,255)" stroke-width="0.20" />
</g>
<g id="p-2" style="fill:none;stroke-linecap:round;stroke-linejoin:round;">
  <path d="M 21.925 597.500 C 21.908 597.500 21.890 597.495 21.875 597.487 C 21.860 597.478 21.847 597.465 21.839 597.450 C 21.830 597.435 21.825 597.418 21.825 597.400 C 21.825 597.382 21.830 597.365 21.839 597.350 C 21.847 597.335 21.860 597.322 21.875 597.313 C 21.890 597.305 21.908 597.300 21.925 597.300 H 18.925 C 18.943 597.300 18.960 597.305 18.975 597.313 C 18.990 597.322 19.003 597.335 19.012 597.350 C 19.021 597.365 19.025 597.382 19.025 597.400 C 19.025 597.418 19.021 597.435 19.012 597.450 C 19.003 597.465 18.990 597.478 18.975 597.487 C 18.960 597.495 18.943 597.500 18.925 597.500 C 20.540 597.500 22.127 597.925 23.525 598.733 C 24.924 599.540 26.085 600.701 26.893 602.100 C 27.700 603.499 28.125 605.085 28.125 606.700 C 28.125 606.755 28.170 606.800 28.225 606.800 H 115.925 C 115.980 606.800 116.025 606.755 116.025 606.700 V 599.800 C 116.025 599.700 115.925 599.800 116.025 599.800 H 118.925 C 118.980 599.800 119.025 599.755 119.025 599.700 V 593.700 C 119.025 593.645 118.980 593.600 118.925 593.600 H 116.025 C 115.925 593.600 116.025 593.700 116.025 593.600 V 586.700 V 583.700 C 116.025 583.645 115.980 583.600 115.925 583.600 H 107.925 C 107.870 583.600 107.825 583.645 107.825 583.700 V 586.600 C 107.825 586.700 107.925 586.600 107.825 586.600 H 102.025 C 101.925 586.600 102.025 586.700 102.025 586.600 V 583.700 C 102.025 583.645 101.980 583.600 101.925 583.600 H 95.925 C 95.870 583.600 95.825 583.645 95.825 583.700 V 586.600 C 95.825 586.700 95.925 586.600 95.825 586.600 H 90.025 C 89.925 586.600 90.025 586.700 90.025 586.600 V 583.700 C 90.025 583.645 89.980 583.600 89.925 583.600 H 83.925 C 83.870 583.600 83.825 583.645 83.825 583.700 V 586.600 C 83.825 586.700 83.925 586.600 83.825 586.600 H 78.025 C 77.925 586.600 78.025 586.700 78.025 586.600 V 583.700 C 78.025 583.645 77.980 583.600 77.925 583.600 H 71.925 C 71.870 583.600 71.825 583.645 71.825 583.700 V 586.600 C 71.825 586.700 71.925 586.600 71.825 586.600 H 66.025 C 65.925 586.600 66.025 586.700 66.025 586.600 V 583.700 C 66.025 583.645 65.980 583.600 65.925 583.600 H 59.925 C 59.870 583.600 59.825 583.645 59.825 583.700 V 586.600 C 59.825 586.700 59.925 586.600 59.825 586.600 H 54.025 C 53.925 586.600 54.025 586.700 54.025 586.600 V 583.700 C 54.025 583.645 53.980 583.600 53.925 583.600 H 47.925 C 47.870 583.600 47.825 583.645 47.825 583.700 V 586.600 C 47.825 586.700 47.925 586.600 47.825 586.600 H 42.025 C 41.925 586.600 42.025 586.700 42.025 586.600 V 583.700 C 42.025 583.645 41.980 583.600 41.925 583.600 H 35.925 C 35.870 583.600 35.825 583.645 35.825 583.700 V 586.600 C 35.825 586.700 35.925 586.600 35.825 586.600 H 30.025 C 29.925 586.600 30.025 586.700 30.025 586.600 V 583.700 C 30.025 583.645 29.980 583.600 29.925 583.600 H 21.925 C 21.870 583.600 21.825 583.645 21.825 583.700 V 586.700 V 588.950 C 21.825 589.050 21.925 588.950 21.825 588.950 H 18.925 C 18.870 588.950 18.825 588.995 18.825 589.050 V 595.050 C 18.825 595.105 18.870 595.150 18.925 595.150 H 21.825 C 21.925 595.150 21.825 595.050 21.825 595.150 V 597.400 C 21.825 597.455 21.870 597.500 21.925 597.500 Z" stroke="rgb(0,0,0)" stroke-width="0.20" />
</g>
<g id="p-3" style="fill:none;stroke-linecap:round;stroke-linejoin:round;">
  <path d="M 21.925 582.100 H 29.925 C 29.980 582.100 30.025 582.055 30.025 582.000 V 579.100 C 30.025 579.000 29.925 579.100 30.025 579.100 H 35.825 C 35.925 579.100 35.825 579.000 35.825 579.100 V 582.000 C 35.825 582.055 35.870 582.100 35.925 582.100 H 41.925 C 41.980 582.100 42.025 582.055 42.025 582.000 V 579.100 C 42.025 579.000 41.925 579.100 42.025 579.100 H 47.825 C 47.925 579.100 47.825 579.000 47.825 579.100 V 582.000 C 47.825 582.055 47.870 582.100 47.925 582.100 H 53.925 C 53.980 582.100 54.025 582.055 54.025 582.000 V 579.100 C 54.025 579.000 53.925 579.100 54.025 579.100 H 59.825 C 59.925 579.100 59.825 579.000 59.825 579.100 V 582.000 C 59.825 582.055 59.870 582.100 59.925 582.100 H 65.925 C 65.980 582.100 66.025 582.055 66.025 582.000 V 579.100 C 66.025 579.000 65.925 579.100 66.025 579.100 H 71.825 C 71.925 579.100 71.825 579.000 71.825 579.100 V 582.000 C 71.825 582.055 71.870 582.100 71.925 582.100 H 77.925 C 77.980 582.100 78.025 582.055 78.025 582.000 V 579.100 C 78.025 579.000 77.925 579.100 78.025 579.100 H 83.825 C 83.925 579.100 83.825 579.000 83.825 579.100 V 582.000 C 83.825 582.055 83.870 582.100 83.925 582.100 H 89.925 C 89.980 582.100 90.025 582.055 90.025 582.000 V 579.100 C 90.025 579.000 89.925 579.100 90.025 579.100 H 95.825 C 95.925 579.100 95.825 579.000 95.825 579.100 V 582.000 C 95.825 582.055 95.870 582.100 95.925 582.100 H 101.925 C 101.980 582.100 102.025 582.055 102.025 582.000 V 579.100 C 102.025 579.000 101.925 579.100 102.025 579.100 H 107.825 C 107.925 579.100 107.825 579.000 107.825 579.100 V 582.000 C 107.825 582.055 107.870 582.100 107.925 582.100 H 115.925 C 115.980 582.100 116.025 582.055 116.025 582.000 V 579.000 V 569.600 C 116.025 569.500 115.925 569.600 116.025 569.600 H 118.925 C 118.980 569.600 119.025 569.555 119.025 569.500 V 563.500 C 119.025 563.445 118.980 563.400 118.925 563.400 H 116.025 C 115.925 563.400 116.025 563.500 116.025 563.400 V 557.600 C 116.025 557.500 115.925 557.600 116.025 557.600 H 118.925 C 118.980 557.600 119.025 557.555 119.025 557.500 V 551.500 C 119.025 551.445 118.980 551.400 118.925 551.400 H 116.025 C 115.925 551.400 116.025 551.500 116.025 551.400 V 545.600 C 116.025 545.500 115.925 545.600 116.025 545.600 H 118.925 C 118.980 545.600 119.025 545.555 119.025 545.500 V 539.500 C 119.025 539.445 118.980 539.400 118.925 539.400 H 116.025 C 115.925 539.400 116.025 539.500 116.025 539.400 V 533.600 C 116.025 533.500 115.925 533.600 116.025 533.600 H 118.925 C 118.980 533.600 119.025 533.555 119.025 533.500 V 527.500 C 119.025 527.445 118.980 527.400 118.925 527.400 H 116.025 C 115.925 527.400 116.025 527.500 116.025 527.400 V 521.600 C 116.025 521.500 115.925 521.600 116.025 521.600 H 118.925 C 118.980 521.600 119.025 521.555 119.025 521.500 V 515.500 C 119.025 515.445 118.980 515.400 118.925 515.400 H 116.025 C 115.925 515.400 116.025 515.500 116.025 515.400 V 509.600 C 116.025 509.500 115.925 509.600 116.025 509.600 H 118.925 C 118.980 509.600 119.025 509.555 119.025 509.500 V 503.500 C 119.025 503.445 118.980 503.400 118.925 503.400 H 116.025 C 115.925 503.400 116.025 503.500 116.025 503.400 V 494.000 C 116.025 493.945 115.980 493.900 115.925 493.900 C 115.943 493.900 115.960 493.905 115.975 493.913 C 115.990 493.922 116.003 493.935 116.012 493.950 C 116.021 493.965 116.025 493.982 116.025 494.000 C 116.025 494.018 116.021 494.035 116.012 494.050 C 116.003 494.065 115.990 494.078 115.975 494.087 C 115.960 494.095 115.943 494.100 115.925 494.100 H 118.925 C 120.725 494.100 122.484 493.566 123.981 492.566 C 125.477 491.566 126.644 490.145 127.332 488.482 C 128.021 486.820 128.201 484.990 127.850 483.225 C 127.499 481.459 126.632 479.838 125.360 478.565 C 124.087 477.293 122.466 476.426 120.700 476.075 C 118.935 475.724 117.106 475.904 115.443 476.593 C 113.780 477.281 112.359 478.448 111.359 479.944 C 110.359 481.441 109.825 483.200 109.825 485.000 C 109.825 484.945 109.870 484.900 109.925 484.900 H 21.925 C 21.870 484.900 21.825 484.945 21.825 485.000 V 492.900 C 21.825 493.000 21.925 492.900 21.825 492.900 H 18.925 C 18.870 492.900 18.825 492.945 18.825 493.000 V 499.000 C 18.825 499.055 18.870 499.100 18.925 499.100 H 21.825 C 21.925 499.100 21.825 499.000 21.825 499.100 V 504.900 C 21.825 505.000 21.925 504.900 21.825 504.900 H 18.925 C 18.870 504.900 18.825 504.945 18.825 505.000 V 511.000 C 18.825 511.055 18.870 511.100 18.925 511.100 H 21.825 C 21.925 511.100 21.825 511.000 21.825 511.100 V 516.900 C 21.825 517.000 21.925 516.900 21.825 516.900 H 18.925 C 18.870 516.900 18.825 516.945 18.825 517.000 V 523.000 C 18.825 523.055 18.870 523.100 18.925 523.100 H 21.825 C 21.925 523.100 21.825 523.000 21.825 523.100 V 528.900 C 21.825 529.000 21.925 528.900 21.825 528.900 H 18.925 C 18.870 528.900 18.825 528.945 18.825 529.000 V 535.000 C 18.825 535.055 18.870 535.100 18.925 535.100 H 21.825 C 21.925 535.100 21.825 535.000 21.825 535.100 V 540.900 C 21.825 541.000 21.925 540.900 21.825 540.900 H 18.925 C 18.870 540.900 18.825 540.945 18.825 541.000 V 547.000 C 18.825 547.055 18.870 547.100 18.925 547.100 H 21.825 C 21.925 547.100 21.825 547.000 21.825 547.100 V 552.900 C 21.825 553.000 21.925 552.900 21.825 552.900 H 18.925 C 18.870 552.900 18.825 552.945 18.825 553.000 V 559.000 C 18.825 559.055 18.870 559.100 18.925 559.100 H 21.825 C 21.925 559.100 21.825 559.000 21.825 559.100 V 564.900 C 21.825 565.000 21.925 564.900 21.825 564.900 H 18.925 C 18.870 564.900 18.825 564.945 18.825 565.000 V 571.000 C 18.825 571.055 18.870 571.100 18.925 571.100 H 21.825 C 21.925 571.100 21.825 571.000 21.825 571.100 V 579.000 V 582.000 C 21.825 582.055 21.870 582.100 21.925 582.100 Z" stroke="rgb(0,0,0)" stroke-width="0.20" />
  <path d="M 113.025 484.900 C 113.025 483.769 113.350 482.662 113.962 481.710 C 114.573 480.759 115.445 480.003 116.474 479.533 C 117.503 479.063 118.645 478.899 119.765 479.060 C 120.884 479.221 121.934 479.700 122.789 480.441 C 123.644 481.182 124.267 482.153 124.586 483.238 C 124.905 484.323 124.905 485.477 124.586 486.562 C 124.267 487.647 123.644 488.618 122.789 489.359 C 121.934 490.100 120.884 490.579 119.765 490.740 C 118.645 490.901 117.503 490.737 116.474 490.267 C 115.445 489.797 114.573 489.041 113.962 488.090 C 113.350 487.138 113.025 486.031 113.025 484.900 Z" stroke="rgb(0,0,255)" stroke-width="0.20" />
  <path d="M 117.425 480.510 H 118.825 C 118.925 480.510 118.825 480.410 118.825 480.510 V 484.800 C 118.825 484.900 118.925 484.800 118.825 484.800 H 116.025 C 115.925 484.800 116.025 484.900 116.025 484.800 V 480.510 C 116.025 480.410 115.925 480.510 116.025 480.510 H 117.425 Z" stroke="rgb(0,0,255)" stroke-width="0.20" />
</g>
<g id="p-4" style="fill:none;stroke-linecap:round;stroke-linejoin:round;">
  <path d="M 21.925 483.400 H 109.625 C 109.680 483.400 109.725 483.355 109.725 483.300 C 109.725 481.685 110.150 480.099 110.958 478.700 C 111.765 477.301 112.927 476.140 114.325 475.333 C 115.724 474.525 117.310 474.100 118.925 474.100 C 118.908 474.100 118.890 474.095 118.875 474.087 C 118.860 474.078 118.847 474.065 118.839 474.050 C 118.830 474.035 118.825 474.018 118.825 474.000 C 118.825 473.982 118.830 473.965 118.839 473.950 C 118.847 473.935 118.860 473.922 118.875 473.913 C 118.890 473.905 118.908 473.900 118.925 473.900 H 115.925 C 115.943 473.900 115.960 473.905 115.975 473.913 C 115.990 473.922 116.003 473.935 116.012 473.950 C 116.021 473.965 116.025 473.982 116.025 474.000 C 116.025 474.018 116.021 474.035 116.012 474.050 C 116.003 474.065 115.990 474.078 115.975 474.087 C 115.960 474.095 115.943 474.100 115.925 474.100 C 115.980 474.100 116.025 474.055 116.025 474.000 V 471.750 C 116.025 471.650 115.925 471.750 116.025 471.750 H 118.925 C 118.980 471.750 119.025 471.705 119.025 471.650 V 465.650 C 119.025 465.595 118.980 465.550 118.925 465.550 H 116.025 C 115.925 465.550 116.025 465.650 116.025 465.550 V 463.300 V 460.300 C 116.025 460.245 115.980 460.200 115.925 460.200 H 107.925 C 107.870 460.200 107.825 460.245 107.825 460.300 V 463.200 C 107.825 463.300 107.925 463.200 107.825 463.200 H 102.025 C 101.925 463.200 102.025 463.300 102.025 463.200 V 460.300 C 102.025 460.245 101.980 460.200 101.925 460.200 H 95.925 C 95.870 460.200 95.825 460.245 95.825 460.300 V 463.200 C 95.825 463.300 95.925 463.200 95.825 463.200 H 90.025 C 89.925 463.200 90.025 463.300 90.025 463.200 V 460.300 C 90.025 460.245 89.980 460.200 89.925 460.200 H 83.925 C 83.870 460.200 83.825 460.245 83.825 460.300 V 463.200 C 83.825 463.300 83.925 463.200 83.825 463.200 H 78.025 C 77.925 463.200 78.025 463.300 78.025 463.200 V 460.300 C 78.025 460.245 77.980 460.200 77.925 460.200 H 71.925 C 71.870 460.200 71.825 460.245 71.825 460.300 V 463.200 C 71.825 463.300 71.925 463.200 71.825 463.200 H 66.025 C 65.925 463.200 66.025 463.300 66.025 463.200 V 460.300 C 66.025 460.245 65.980 460.200 65.925 460.200 H 59.925 C 59.870 460.200 59.825 460.245 59.825 460.300 V 463.200 C 59.825 463.300 59.925 463.200 59.825 463.200 H 54.025 C 53.925 463.200 54.025 463.300 54.025 463.200 V 460.300 C 54.025 460.245 53.980 460.200 53.925 460.200 H 47.925 C 47.870 460.200 47.825 460.245 47.825 460.300 V 463.200 C 47.825 463.300 47.925 463.200 47.825 463.200 H 42.025 C 41.925 463.200 42.025 463.300 42.025 463.200 V 460.300 C 42.025 460.245 41.980 460.200 41.925 460.200 H 35.925 C 35.870 460.200 35.825 460.245 35.825 460.300 V 463.200 C 35.825 463.300 35.925 463.200 35.825 463.200 H 30.025 C 29.925 463.200 30.025 463.300 30.025 463.200 V 460.300 C 30.025 460.245 29.980 460.200 29.925 460.200 H 21.925 C 21.870 460.200 21.825 460.245 21.825 460.300 V 463.300 V 470.200 C 21.825 470.300 21.925 470.200 21.825 470.200 H 18.925 C 18.870 470.200 18.825 470.245 18.825 470.300 V 476.300 C 18.825 476.355 18.870 476.400 18.925 476.400 H 21.825 C 21.925 476.400 21.825 476.300 21.825 476.400 V 483.300 C 21.825 483.355 21.870 483.400 21.925 483.400 Z" stroke="rgb(0,0,0)" stroke-width="0.20" />
</g>
<g id="p-5" style="fill:none;stroke-linecap:round;stroke-linejoin:round;">
  <path d="M 21.925 458.700 H 29.925 C 29.980 458.700 30.025 458.655 30.025 458.600 V 455.700 C 30.025 455.600 29.925 455.700 30.025 455.700 H 35.825 C 35.925 455.700 35.825 455.600 35.825 455.700 V 458.600 C 35.825 458.655 35.870 458.700 35.925 458.700 H 41.925 C 41.980 458.700 42.025 458.655 42.025 458.600 V 455.700 C 42.025 455.600 41.925 455.700 42.025 455.700 H 47.825 C 47.925 455.700 47.825 455.600 47.825 455.700 V 458.600 C 47.825 458.655 47.870 458.700 47.925 458.700 H 53.925 C 53.980 458.700 54.025 458.655 54.025 458.600 V 455.700 C 54.025 455.600 53.925 455.700 54.025 455.700 H 59.825 C 59.925 455.700 59.825 455.600 59.825 455.700 V 458.600 C 59.825 458.655 59.870 458.700 59.925 458.700 H 65.925 C 65.980 458.700 66.025 458.655 66.025 458.600 V 455.700 C 66.025 455.600 65.925 455.700 66.025 455.700 H 71.825 C 71.925 455.700 71.825 455.600 71.825 455.700 V 458.600 C 71.825 458.655 71.870 458.700 71.925 458.700 H 77.925 C 77.980 458.700 78.025 458.655 78.025 458.600 V 455.700 C 78.025 455.600 77.925 455.700 78.025 455.700 H 83.825 C 83.925 455.700 83.825 455.600 83.825 455.700 V 458.600 C 83.825 458.655 83.870 458.700 83.925 458.700 H 89.925 C 89.980 458.700 90.025 458.655 90.025 458.600 V 455.700 C 90.025 455.600 89.925 455.700 90.025 455.700 H 95.825 C 95.925 455.700 95.825 455.600 95.825 455.700 V 458.600 C 95.825 458.655 95.870 458.700 95.925 458.700 H 101.925 C 101.980 458.700 102.025 458.655 102.025 458.600 V 455.700 C 102.025 455.600 101.925 455.700 102.025 455.700 H 107.825 C 107.925 455.700 107.825 455.600 107.825 455.700 V 458.600 C 107.825 458.655 107.870 458.700 107.925 458.700 H 115.925 H 118.925 C 118.980 458.700 119.025 458.655 119.025 458.600 V 455.600 V 447.600 C 119.025 447.545 118.980 447.500 118.925 447.500 H 116.025 C 115.925 447.500 116.025 447.600 116.025 447.500 V 441.700 C 116.025 441.600 115.925 441.700 116.025 441.700 H 118.925 C 118.980 441.700 119.025 441.655 119.025 441.600 V 435.600 C 119.025 435.545 118.980 435.500 118.925 435.500 H 116.025 C 115.925 435.500 116.025 435.600 116.025 435.500 V 429.700 C 116.025 429.600 115.925 429.700 116.025 429.700 H 118.925 C 118.980 429.700 119.025 429.655 119.025 429.600 V 423.600 C 119.025 423.545 118.980 423.500 118.925 423.500 H 116.025 C 115.925 423.500 116.025 423.600 116.025 423.500 V 417.700 C 116.025 417.600 115.925 417.700 116.025 417.700 H 118.925 C 118.980 417.700 119.025 417.655 119.025 417.600 V 411.600 C 119.025 411.545 118.980 411.500 118.925 411.500 H 116.025 C 115.925 411.500 116.025 411.600 116.025 411.500 V 405.700 C 116.025 405.600 115.925 405.700 116.025 405.700 H 118.925 C 118.980 405.700 119.025 405.655 119.025 405.600 V 399.600 C 119.025 399.545 118.980 399.500 118.925 399.500 H 116.025 C 115.925 399.500 116.025 399.600 116.025 399.500 V 393.700 C 116.025 393.600 115.925 393.700 116.025 393.700 H 118.925 C 118.980 393.700 119.025 393.655 119.025 393.600 V 387.600 C 119.025 387.545 118.980 387.500 118.925 387.500 H 116.025 C 115.925 387.500 116.025 387.600 116.025 387.500 V 381.700 C 116.025 381.600 115.925 381.700 116.025 381.700 H 118.925 C 118.980 381.700 119.025 381.655 119.025 381.600 V 375.600 C 119.025 375.545 118.980 375.500 118.925 375.500 H 116.025 C 115.925 375.500 116.025 375.600 116.025 375.500 V 369.700 C 116.025 369.600 115.925 369.700 116.025 369.700 H 118.925 C 118.980 369.700 119.025 369.655 119.025 369.600 V 361.600 C 119.025 361.545 118.980 361.500 118.925 361.500 H 115.925 H 21.925 H 18.925 C 18.870 361.500 18.825 361.545 18.825 361.600 V 369.600 C 18.825 369.655 18.870 369.700 18.925 369.700 H 21.825 C 21.925 369.700 21.825 369.600 21.825 369.700 V 375.500 C 21.825 375.600 21.925 375.500 21.825 375.500 H 18.925 C 18.870 375.500 18.825 375.545 18.825 375.600 V 381.600 C 18.825 381.655 18.870 381.700 18.925 381.700 H 21.825 C 21.925 381.700 21.825 381.600 21.825 381.700 V 387.500 C 21.825 387.600 21.925 387.500 21.825 387.500 H 18.925 C 18.870 387.500 18.825 387.545 18.825 387.600 V 393.600 C 18.825 393.655 18.870 393.700 18.925 393.700 H 21.825 C 21.925 393.700 21.825 393.600 21.825 393.700 V 399.500 C 21.825 399.600 21.925 399.500 21.825 399.500 H 18.925 C 18.870 399.500 18.825 399.545 18.825 399.600 V 405.600 C 18.825 405.655 18.870 405.700 18.925 405.700 H 21.825 C 21.925 405.700 21.825 405.600 21.825 405.700 V 411.500 C 21.825 411.600 21.925 411.500 21.825 411.500 H 18.925 C 18.870 411.500 18.825 411.545 18.825 411.600 V 417.600 C 18.825 417.655 18.870 417.700 18.925 417.700 H 21.825 C 21.925 417.700 21.825 417.600 21.825 417.700 V 423.500 C 21.825 423.600 21.925 423.500 21.825 423.500 H 18.925 C 18.870 423.500 18.825 423.545 18.825 423.600 V 429.600 C 18.825 429.655 18.870 429.700 18.925 429.700 H 21.825 C 21.925 429.700 21.825 429.600 21.825 429.700 V 435.500 C 21.825 435.600 21.925 435.500 21.825 435.500 H 18.925 C 18.870 435.500 18.825 435.545 18.825 435.600 V 441.600 C 18.825 441.655 18.870 441.700 18.925 441.700 H 21.825 C 21.925 441.700 21.825 441.600 21.825 441.700 V 447.500 C 21.825 447.600 21.925 447.500 21.825 447.500 H 18.925 C 18.870 447.500 18.825 447.545 18.825 447.600 V 455.600 V 458.600 C 18.825 458.655 18.870 458.700 18.925 458.700 H 21.925 Z" stroke="rgb(0,0,0)" stroke-width="0.20" />
</g>
<g id="p-6" style="fill:none;stroke-linecap:round;stroke-linejoin:round;">
  <path d="M 21.925 360.000 H 29.925 C 29.980 360.000 30.025 359.955 30.025 359.900 V 357.000 C 30.025 356.900 29.925 357.000 30.025 357.000 H 35.825 C 35.925 357.000 35.825 356.900 35.825 357.000 V 359.900 C 35.825 359.955 35.870 360.000 35.925 360.000 H 41.925 C 41.980 360.000 42.025 359.955 42.025 359.900 V 357.000 C 42.025 356.900 41.925 357.000 42.025 357.000 H 47.825 C 47.925 357.000 47.825 356.900 47.825 357.000 V 359.900 C 47.825 359.955 47.870 360.000 47.925 360.000 H 53.925 C 53.980 360.000 54.025 359.955 54.025 359.900 V 357.000 C 54.025 356.900 53.925 357.000 54.025 357.000 H 59.825 C 59.925 357.000 59.825 356.900 59.825 357.000 V 359.900 C 59.825 359.955 59.870 360.000 59.925 360.000 H 65.925 C 65.980 360.000 66.025 359.955 66.025 359.900 V 357.000 C 66.025 356.900 65.925 357.000 66.025 357.000 H 71.825 C 71.925 357.000 71.825 356.900 71.825 357.000 V 359.900 C 71.825 359.955 71.870 360.000 71.925 360.000 H 77.925 C 77.980 360.000 78.025 359.955 78.025 359.900 V 357.000 C 78.025 356.900 77.925 357.000 78.025 357.000 H 83.825 C 83.925 357.000 83.825 356.900 83.825 357.000 V 359.900 C 83.825 359.955 83.870 360.000 83.925 360.000 H 89.925 C 89.980 360.000 90.025 359.955 90.025 359.900 V 357.000 C 90.025 356.900 89.925 357.000 90.025 357.000 H 95.825 C 95.925 357.000 95.825 356.900 95.825 357.000 V 359.900 C 95.825 359.955 95.870 360.000 95.925 360.000 H 101.925 C 101.980 360.000 102.025 359.955 102.025 359.900 V 357.000 C 102.025 356.900 101.925 357.000 102.025 357.000 H 107.825 C 107.925 357.000 107.825 356.900 107.825 357.000 V 359.900 C 107.825 359.955 107.870 360.000 107.925 360.000 H 115.925 H 118.925 C 118.980 360.000 119.025 359.955 119.025 359.900 V 356.900 V 347.400 C 119.025 347.345 118.980 347.300 118.925 347.300 H 116.025 C 115.925 347.300 116.025 347.400 116.025 347.300 V 341.500 C 116.025 341.400 115.925 341.500 116.025 341.500 H 118.925 C 118.980 341.500 119.025 341.455 119.025 341.400 V 335.400 C 119.025 335.345 118.980 335.300 118.925 335.300 H 116.025 C 115.925 335.300 116.025 335.400 116.025 335.300 V 329.500 C 116.025 329.400 115.925 329.500 116.025 329.500 H 118.925 C 118.980 329.500 119.025 329.455 119.025 329.400 V 323.400 C 119.025 323.345 118.980 323.300 118.925 323.300 H 116.025 C 115.925 323.300 116.025 323.400 116.025 323.300 V 317.500 C 116.025 317.400 115.925 317.500 116.025 317.500 H 118.925 C 118.980 317.500 119.025 317.455 119.025 317.400 V 311.400 C 119.025 311.345 118.980 311.300 118.925 311.300 H 116.025 C 115.925 311.300 116.025 311.400 116.025 311.300 V 305.500 C 116.025 305.400 115.925 305.500 116.025 305.500 H 118.925 C 118.980 305.500 119.025 305.455 119.025 305.400 V 299.400 C 119.025 299.345 118.980 299.300 118.925 299.300 H 116.025 C 115.925 299.300 116.025 299.400 116.025 299.300 V 293.500 C 116.025 293.400 115.925 293.500 116.025 293.500 H 118.925 C 118.980 293.500 119.025 293.455 119.025 293.400 V 287.400 C 119.025 287.345 118.980 287.300 118.925 287.300 H 116.025 C 115.925 287.300 116.025 287.400 116.025 287.300 V 281.500 C 116.025 281.400 115.925 281.500 116.025 281.500 H 118.925 C 118.980 281.500 119.025 281.455 119.025 281.400 V 271.900 C 119.025 271.845 118.980 271.800 118.925 271.800 H 116.025 C 115.925 271.800 116.025 271.900 116.025 271.800 V 262.900 C 116.025 262.845 115.980 262.800 115.925 262.800 H 21.925 C 21.870 262.800 21.825 262.845 21.825 262.900 V 271.800 C 21.825 271.900 21.925 271.800 21.825 271.800 H 18.925 C 18.870 271.800 18.825 271.845 18.825 271.900 V 281.400 C 18.825 281.455 18.870 281.500 18.925 281.500 H 21.825 C 21.925 281.500 21.825 281.400 21.825 281.500 V 287.300 C 21.825 287.400 21.925 287.300 21.825 287.300 H 18.925 C 18.870 287.300 18.825 287.345 18.825 287.400 V 293.400 C 18.825 293.455 18.870 293.500 18.925 293.500 H 21.825 C 21.925 293.500 21.825 293.400 21.825 293.500 V 299.300 C 21.825 299.400 21.925 299.300 21.825 299.300 H 18.925 C 18.870 299.300 18.825 299.345 18.825 299.400 V 305.400 C 18.825 305.455 18.870 305.500 18.925 305.500 H 21.825 C 21.925 305.500 21.825 305.400 21.825 305.500 V 311.300 C 21.825 311.400 21.925 311.300 21.825 311.300 H 18.925 C 18.870 311.300 18.825 311.345 18.825 311.400 V 317.400 C 18.825 317.455 18.870 317.500 18.925 317.500 H 21.825 C 21.925 317.500 21.825 317.400 21.825 317.500 V 323.300 C 21.825 323.400 21.925 323.300 21.825 323.300 H 18.925 C 18.870 323.300 18.825 323.345 18.825 323.400 V 329.400 C 18.825 329.455 18.870 329.500 18.925 329.500 H 21.825 C 21.925 329.500 21.825 329.400 21.825 329.500 V 335.300 C 21.825 335.400 21.925 335.300 21.825 335.300 H 18.925 C 18.870 335.300 18.825 335.345 18.825 335.400 V 341.400 C 18.825 341.455 18.870 341.500 18.925 341.500 H 21.825 C 21.925 341.500 21.825 341.400 21.825 341.500 V 347.300 C 21.825 347.400 21.925 347.300 21.825 347.300 H 18.925 C 18.870 347.300 18.825 347.345 18.825 347.400 V 356.900 V 359.900 C 18.825 359.955 18.870 360.000 18.925 360.000 H 21.925 Z" stroke="rgb(0,0,0)" stroke-width="0.20" />
</g>
<g id="p-7" style="fill:none;stroke-linecap:round;stroke-linejoin:round;">
  <path d="M 21.925 261.300 H 29.925 C 29.980 261.300 30.025 261.255 30.025 261.200 V 258.300 C 30.025 258.200 29.925 258.300 30.025 258.300 H 35.825 C 35.925 258.300 35.825 258.200 35.825 258.300 V 261.200 C 35.825 261.255 35.870 261.300 35.925 261.300 H 41.925 C 41.980 261.300 42.025 261.255 42.025 261.200 V 258.300 C 42.025 258.200 41.925 258.300 42.025 258.300 H 47.825 C 47.925 258.300 47.825 258.200 47.825 258.300 V 261.200 C 47.825 261.255 47.870 261.300 47.925 261.300 H 53.925 C 53.980 261.300 54.025 261.255 54.025 261.200 V 258.300 C 54.025 258.200 53.925 258.300 54.025 258.300 H 59.825 C 59.925 258.300 59.825 258.200 59.825 258.300 V 261.200 C 59.825 261.255 59.870 261.300 59.925 261.300 H 65.925 C 65.980 261.300 66.025 261.255 66.025 261.200 V 258.300 C 66.025 258.200 65.925 258.300 66.025 258.300 H 71.825 C 71.925 258.300 71.825 258.200 71.825 258.300 V 261.200 C 71.825 261.255 71.870 261.300 71.925 261.300 H 77.925 C 77.980 261.300 78.025 261.255 78.025 261.200 V 258.300 C 78.025 258.200 77.925 258.300 78.025 258.300 H 83.825 C 83.925 258.300 83.825 258.200 83.825 258.300 V 261.200 C 83.825 261.255 83.870 261.300 83.925 261.300 H 89.925 C 89.980 261.300 90.025 261.255 90.025 261.200 V 258.300 C 90.025 258.200 89.925 258.300 90.025 258.300 H 95.825 C 95.925 258.300 95.825 258.200 95.825 258.300 V 261.200 C 95.825 261.255 95.870 261.300 95.925 261.300 H 101.925 C 101.980 261.300 102.025 261.255 102.025 261.200 V 258.300 C 102.025 258.200 101.925 258.300 102.025 258.300 H 107.825 C 107.925 258.300 107.825 258.200 107.825 258.300 V 261.200 C 107.825 261.255 107.870 261.300 107.925 261.300 H 115.925 H 118.925 C 118.980 261.300 119.025 261.255 119.025 261.200 V 258.200 V 251.200 C 119.025 251.145 118.980 251.100 118.925 251.100 H 116.025 C 115.925 251.100 116.025 251.200 116.025 251.100 V 245.300 C 116.025 245.200 115.925 245.300 116.025 245.300 H 118.925 C 118.980 245.300 119.025 245.255 119.025 245.200 V 238.200 C 119.025 238.145 118.980 238.100 118.925 238.100 H 115.925 H 21.925 H 18.925 C 18.870 238.100 18.825 238.145 18.825 238.200 V 245.200 C 18.825 245.255 18.870 245.300 18.925 245.300 H 21.825 C 21.925 245.300 21.825 245.200 21.825 245.300 V 251.100 C 21.825 251.200 21.925 251.100 21.825 251.100 H 18.925 C 18.870 251.100 18.825 251.145 18.825 251.200 V 258.200 V 261.200 C 18.825 261.255 18.870 261.300 18.925 261.300 H 21.925 Z" stroke="rgb(0,0,0)" stroke-width="0.20" />
</g>
<g id="p-8" style="fill:none;stroke-linecap:round;stroke-linejoin:round;">
  <path d="M 21.925 236.600 H 29.925 C 29.980 236.600 30.025 236.555 30.025 236.500 V 233.600 C 30.025 233.500 29.925 233.600 30.025 233.600 H 35.825 C 35.925 233.600 35.825 233.500 35.825 233.600 V 236.500 C 35.825 236.555 35.870 236.600 35.925 236.600 H 41.925 C 41.980 236.600 42.025 236.555 42.025 236.500 V 233.600 C 42.025 233.500 41.925 233.600 42.025 233.600 H 47.825 C 47.925 233.600 47.825 233.500 47.825 233.600 V 236.500 C 47.825 236.555 47.870 236.600 47.925 236.600 H 53.925 C 53.980 236.600 54.025 236.555 54.025 236.500 V 233.600 C 54.025 233.500 53.925 233.600 54.025 233.600 H 59.825 C 59.925 233.600 59.825 233.500 59.825 233.600 V 236.500 C 59.825 236.555 59.870 236.600 59.925 236.600 H 65.925 C 65.980 236.600 66.025 236.555 66.025 236.500 V 233.600 C 66.025 233.500 65.925 233.600 66.025 233.600 H 71.825 C 71.925 233.600 71.825 233.500 71.825 233.600 V 236.500 C 71.825 236.555 71.870 236.600 71.925 236.600 H 77.925 C 77.980 236.600 78.025 236.555 78.025 236.500 V 233.600 C 78.025 233.500 77.925 233.600 78.025 233.600 H 83.825 C 83.925 233.600 83.825 233.500 83.825 233.600 V 236.500 C 83.825 236.555 83.870 236.600 83.925 236.600 H 89.925 C 89.980 236.600 90.025 236.555 90.025 236.500 V 233.600 C 90.025 233.500 89.925 233.600 90.025 233.600 H 95.825 C 95.925 233.600 95.825 233.500 95.825 233.600 V 236.500 C 95.825 236.555 95.870 236.600 95.925 236.600 H 101.925 C 101.980 236.600 102.025 236.555 102.025 236.500 V 233.600 C 102.025 233.500 101.925 233.600 102.025 233.600 H 107.825 C 107.925 233.600 107.825 233.500 107.825 233.600 V 236.500 C 107.825 236.555 107.870 236.600 107.925 236.600 H 115.925 H 118.925 C 118.980 236.600 119.025 236.555 119.025 236.500 V 233.500 V 231.150 C 119.025 231.095 118.980 231.050 118.925 231.050 H 116.025 C 115.925 231.050 116.025 231.150 116.025 231.050 V 225.250 C 116.025 225.150 115.925 225.250 116.025 225.250 H 118.925 C 118.980 225.250 119.025 225.205 119.025 225.150 V 222.800 C 119.025 222.745 118.980 222.700 118.925 222.700 H 116.025 C 115.925 222.700 116.025 222.800 116.025 222.700 V 218.090 C 116.025 217.990 115.925 218.090 116.025 218.090 H 118.925 C 118.980 218.090 119.025 218.045 119.025 217.990 V 213.500 C 119.025 213.445 118.980 213.400 118.925 213.400 H 18.925 C 18.870 213.400 18.825 213.445 18.825 213.500 V 217.990 C 18.825 218.045 18.870 218.090 18.925 218.090 H 21.825 C 21.925 218.090 21.825 217.990 21.825 218.090 V 222.700 C 21.825 222.800 21.925 222.700 21.825 222.700 H 18.925 C 18.870 222.700 18.825 222.745 18.825 222.800 V 225.150 C 18.825 225.205 18.870 225.250 18.925 225.250 H 21.825 C 21.925 225.250 21.825 225.150 21.825 225.250 V 231.050 C 21.825 231.150 21.925 231.050 21.825 231.050 H 18.925 C 18.870 231.050 18.825 231.095 18.825 231.150 V 233.500 V 236.500 C 18.825 236.555 18.870 236.600 18.925 236.600 H 21.925 Z" stroke="rgb(0,0,0)" stroke-width="0.20" />
</g>
<g id="p-9" style="fill:none;stroke-linecap:round;stroke-linejoin:round;">
  <path d="M 21.925 208.900 H 29.825 C 29.925 208.900 29.825 208.800 29.825 208.900 V 211.800 C 29.825 211.855 29.870 211.900 29.925 211.900 H 35.925 C 35.980 211.900 36.025 211.855 36.025 211.800 V 208.900 C 36.025 208.800 35.925 208.900 36.025 208.900 H 41.825 C 41.925 208.900 41.825 208.800 41.825 208.900 V 211.800 C 41.825 211.855 41.870 211.900 41.925 211.900 H 47.925 C 47.980 211.900 48.025 211.855 48.025 211.800 V 208.900 C 48.025 208.800 47.925 208.900 48.025 208.900 H 53.825 C 53.925 208.900 53.825 208.800 53.825 208.900 V 211.800 C 53.825 211.855 53.870 211.900 53.925 211.900 H 59.925 C 59.980 211.900 60.025 211.855 60.025 211.800 V 208.900 C 60.025 208.800 59.925 208.900 60.025 208.900 H 65.825 C 65.925 208.900 65.825 208.800 65.825 208.900 V 211.800 C 65.825 211.855 65.870 211.900 65.925 211.900 H 71.925 C 71.980 211.900 72.025 211.855 72.025 211.800 V 208.900 C 72.025 208.800 71.925 208.900 72.025 208.900 H 77.825 C 77.925 208.900 77.825 208.800 77.825 208.900 V 211.800 C 77.825 211.855 77.870 211.900 77.925 211.900 H 83.925 C 83.980 211.900 84.025 211.855 84.025 211.800 V 208.900 C 84.025 208.800 83.925 208.900 84.025 208.900 H 89.825 C 89.925 208.900 89.825 208.800 89.825 208.900 V 211.800 C 89.825 211.855 89.870 211.900 89.925 211.900 H 95.925 C 95.980 211.900 96.025 211.855 96.025 211.800 V 208.900 C 96.025 208.800 95.925 208.900 96.025 208.900 H 101.825 C 101.925 208.900 101.825 208.800 101.825 208.900 V 211.800 C 101.825 211.855 101.870 211.900 101.925 211.900 H 107.925 C 107.980 211.900 108.025 211.855 108.025 211.800 V 208.900 C 108.025 208.800 107.925 208.900 108.025 208.900 H 115.925 C 115.980 208.900 116.025 208.855 116.025 208.800 V 200.900 C 116.025 200.800 115.925 200.900 116.025 200.900 H 118.925 C 118.980 200.900 119.025 200.855 119.025 200.800 V 194.800 C 119.025 194.745 118.980 194.700 118.925 194.700 H 116.025 C 115.925 194.700 116.025 194.800 116.025 194.700 V 188.900 C 116.025 188.800 115.925 188.900 116.025 188.900 H 118.925 C 118.980 188.900 119.025 188.855 119.025 188.800 V 182.800 C 119.025 182.745 118.980 182.700 118.925 182.700 H 116.025 C 115.925 182.700 116.025 182.800 116.025 182.700 V 176.900 C 116.025 176.800 115.925 176.900 116.025 176.900 H 118.925 C 118.980 176.900 119.025 176.855 119.025 176.800 V 170.800 C 119.025 170.745 118.980 170.700 118.925 170.700 H 116.025 C 115.925 170.700 116.025 170.800 116.025 170.700 V 164.900 C 116.025 164.800 115.925 164.900 116.025 164.900 H 118.925 C 118.980 164.900 119.025 164.855 119.025 164.800 V 158.800 C 119.025 158.745 118.980 158.700 118.925 158.700 H 116.025 C 115.925 158.700 116.025 158.800 116.025 158.700 V 152.900 C 116.025 152.800 115.925 152.900 116.025 152.900 H 118.925 C 118.980 152.900 119.025 152.855 119.025 152.800 V 146.800 C 119.025 146.745 118.980 146.700 118.925 146.700 H 116.025 C 115.925 146.700 116.025 146.800 116.025 146.700 V 140.900 C 116.025 140.800 115.925 140.900 116.025 140.900 H 118.925 C 118.980 140.900 119.025 140.855 119.025 140.800 V 134.800 C 119.025 134.745 118.980 134.700 118.925 134.700 H 116.025 C 115.925 134.700 116.025 134.800 116.025 134.700 V 128.900 C 116.025 128.800 115.925 128.900 116.025 128.900 H 118.925 C 118.980 128.900 119.025 128.855 119.025 128.800 V 122.800 C 119.025 122.745 118.980 122.700 118.925 122.700 H 116.025 C 115.925 122.700 116.025 122.800 116.025 122.700 V 114.800 C 116.025 114.745 115.980 114.700 115.925 114.700 H 108.025 C 107.925 114.700 108.025 114.800 108.025 114.700 V 111.800 C 108.025 111.745 107.980 111.700 107.925 111.700 H 101.925 C 101.870 111.700 101.825 111.745 101.825 111.800 V 114.700 C 101.825 114.800 101.925 114.700 101.825 114.700 H 96.025 C 95.925 114.700 96.025 114.800 96.025 114.700 V 111.800 C 96.025 111.745 95.980 111.700 95.925 111.700 H 89.925 C 89.870 111.700 89.825 111.745 89.825 111.800 V 114.700 C 89.825 114.800 89.925 114.700 89.825 114.700 H 84.025 C 83.925 114.700 84.025 114.800 84.025 114.700 V 111.800 C 84.025 111.745 83.980 111.700 83.925 111.700 H 77.925 C 77.870 111.700 77.825 111.745 77.825 111.800 V 114.700 C 77.825 114.800 77.925 114.700 77.825 114.700 H 72.025 C 71.925 114.700 72.025 114.800 72.025 114.700 V 111.800 C 72.025 111.745 71.980 111.700 71.925 111.700 H 65.925 C 65.870 111.700 65.825 111.745 65.825 111.800 V 114.700 C 65.825 114.800 65.925 114.700 65.825 114.700 H 60.025 C 59.925 114.700 60.025 114.800 60.025 114.700 V 111.800 C 60.025 111.745 59.980 111.700 59.925 111.700 H 53.925 C 53.870 111.700 53.825 111.745 53.825 111.800 V 114.700 C 53.825 114.800 53.925 114.700 53.825 114.700 H 48.025 C 47.925 114.700 48.025 114.800 48.025 114.700 V 111.800 C 48.025 111.745 47.980 111.700 47.925 111.700 H 41.925 C 41.870 111.700 41.825 111.745 41.825 111.800 V 114.700 C 41.825 114.800 41.925 114.700 41.825 114.700 H 36.025 C 35.925 114.700 36.025 114.800 36.025 114.700 V 111.800 C 36.025 111.745 35.980 111.700 35.925 111.700 H 29.925 C 29.870 111.700 29.825 111.745 29.825 111.800 V 114.700 C 29.825 114.800 29.925 114.700 29.825 114.700 H 21.925 C 21.870 114.700 21.825 114.745 21.825 114.800 V 122.700 C 21.825 122.800 21.925 122.700 21.825 122.700 H 18.925 C 18.870 122.700 18.825 122.745 18.825 122.800 V 128.800 C 18.825 128.855 18.870 128.900 18.925 128.900 H 21.825 C 21.925 128.900 21.825 128.800 21.825 128.900 V 134.700 C 21.825 134.800 21.925 134.700 21.825 134.700 H 18.925 C 18.870 134.700 18.825 134.745 18.825 134.800 V 140.800 C 18.825 140.855 18.870 140.900 18.925 140.900 H 21.825 C 21.925 140.900 21.825 140.800 21.825 140.900 V 146.700 C 21.825 146.800 21.925 146.700 21.825 146.700 H 18.925 C 18.870 146.700 18.825 146.745 18.825 146.800 V 152.800 C 18.825 152.855 18.870 152.900 18.925 152.900 H 21.825 C 21.925 152.900 21.825 152.800 21.825 152.900 V 158.700 C 21.825 158.800 21.925 158.700 21.825 158.700 H 18.925 C 18.870 158.700 18.825 158.745 18.825 158.800 V 164.800 C 18.825 164.855 18.870 164.900 18.925 164.900 H 21.825 C 21.925 164.900 21.825 164.800 21.825 164.900 V 170.700 C 21.825 170.800 21.925 170.700 21.825 170.700 H 18.925 C 18.870 170.700 18.825 170.745 18.825 170.800 V 176.800 C 18.825 176.855 18.870 176.900 18.925 176.900 H 21.825 C 21.925 176.900 21.825 176.800 21.825 176.900 V 182.700 C 21.825 182.800 21.925 182.700 21.825 182.700 H 18.925 C 18.870 182.700 18.825 182.745 18.825 182.800 V 188.800 C 18.825 188.855 18.870 188.900 18.925 188.900 H 21.825 C 21.925 188.900 21.825 188.800 21.825 188.900 V 194.700 C 21.825 194.800 21.925 194.700 21.825 194.700 H 18.925 C 18.870 194.700 18.825 194.745 18.825 194.800 V 200.800 C 18.825 200.855 18.870 200.900 18.925 200.900 H 21.825 C 21.925 200.900 21.825 200.800 21.825 200.900 V 208.800 C 21.825 208.855 21.870 208.900 21.925 208.900 Z" stroke="rgb(0,0,0)" stroke-width="0.20" />
</g>
<g id="p-10" style="fill:none;stroke-linecap:round;stroke-linejoin:round;">
  <path d="M 21.925 107.200 H 29.825 C 29.925 107.200 29.825 107.100 29.825 107.200 V 110.100 C 29.825 110.155 29.870 110.200 29.925 110.200 H 35.925 C 35.980 110.200 36.025 110.155 36.025 110.100 V 107.200 C 36.025 107.100 35.925 107.200 36.025 107.200 H 41.825 C 41.925 107.200 41.825 107.100 41.825 107.200 V 110.100 C 41.825 110.155 41.870 110.200 41.925 110.200 H 47.925 C 47.980 110.200 48.025 110.155 48.025 110.100 V 107.200 C 48.025 107.100 47.925 107.200 48.025 107.200 H 53.825 C 53.925 107.200 53.825 107.100 53.825 107.200 V 110.100 C 53.825 110.155 53.870 110.200 53.925 110.200 H 59.925 C 59.980 110.200 60.025 110.155 60.025 110.100 V 107.200 C 60.025 107.100 59.925 107.200 60.025 107.200 H 65.825 C 65.925 107.200 65.825 107.100 65.825 107.200 V 110.100 C 65.825 110.155 65.870 110.200 65.925 110.200 H 71.925 C 71.980 110.200 72.025 110.155 72.025 110.100 V 107.200 C 72.025 107.100 71.925 107.200 72.025 107.200 H 77.825 C 77.925 107.200 77.825 107.100 77.825 107.200 V 110.100 C 77.825 110.155 77.870 110.200 77.925 110.200 H 83.925 C 83.980 110.200 84.025 110.155 84.025 110.100 V 107.200 C 84.025 107.100 83.925 107.200 84.025 107.200 H 89.825 C 89.925 107.200 89.825 107.100 89.825 107.200 V 110.100 C 89.825 110.155 89.870 110.200 89.925 110.200 H 95.925 C 95.980 110.200 96.025 110.155 96.025 110.100 V 107.200 C 96.025 107.100 95.925 107.200 96.025 107.200 H 101.825 C 101.925 107.200 101.825 107.100 101.825 107.200 V 110.100 C 101.825 110.155 101.870 110.200 101.925 110.200 H 107.925 C 107.980 110.200 108.025 110.155 108.025 110.100 V 107.200 C 108.025 107.100 107.925 107.200 108.025 107.200 H 115.925 C 115.980 107.200 116.025 107.155 116.025 107.100 V 99.200 C 116.025 99.100 115.925 99.200 116.025 99.200 H 118.925 C 118.980 99.200 119.025 99.155 119.025 99.100 V 93.100 C 119.025 93.045 118.980 93.000 118.925 93.000 H 116.025 C 115.925 93.000 116.025 93.100 116.025 93.000 V 87.200 C 116.025 87.100 115.925 87.200 116.025 87.200 H 118.925 C 118.980 87.200 119.025 87.155 119.025 87.100 V 81.100 C 119.025 81.045 118.980 81.000 118.925 81.000 H 116.025 C 115.925 81.000 116.025 81.100 116.025 81.000 V 75.200 C 116.025 75.100 115.925 75.200 116.025 75.200 H 118.925 C 118.980 75.200 119.025 75.155 119.025 75.100 V 69.100 C 119.025 69.045 118.980 69.000 118.925 69.000 H 116.025 C 115.925 69.000 116.025 69.100 116.025 69.000 V 63.200 C 116.025 63.100 115.925 63.200 116.025 63.200 H 118.925 C 118.980 63.200 119.025 63.155 119.025 63.100 V 57.100 C 119.025 57.045 118.980 57.000 118.925 57.000 H 116.025 C 115.925 57.000 116.025 57.100 116.025 57.000 V 51.200 C 116.025 51.100 115.925 51.200 116.025 51.200 H 118.925 C 118.980 51.200 119.025 51.155 119.025 51.100 V 45.100 C 119.025 45.045 118.980 45.000 118.925 45.000 H 116.025 C 115.925 45.000 116.025 45.100 116.025 45.000 V 39.200 C 116.025 39.100 115.925 39.200 116.025 39.200 H 118.925 C 118.980 39.200 119.025 39.155 119.025 39.100 V 33.100 C 119.025 33.045 118.980 33.000 118.925 33.000 H 116.025 C 115.925 33.000 116.025 33.100 116.025 33.000 V 27.200 C 116.025 27.100 115.925 27.200 116.025 27.200 H 118.925 C 118.980 27.200 119.025 27.155 119.025 27.100 V 21.100 C 119.025 21.045 118.980 21.000 118.925 21.000 H 116.025 C 115.925 21.000 116.025 21.100 116.025 21.000 V 13.100 C 116.025 13.045 115.980 13.000 115.925 13.000 H 108.025 C 107.925 13.000 108.025 13.100 108.025 13.000 V 10.100 C 108.025 10.045 107.980 10.000 107.925 10.000 H 101.925 C 101.870 10.000 101.825 10.045 101.825 10.100 V 13.000 C 101.825 13.100 101.925 13.000 101.825 13.000 H 96.025 C 95.925 13.000 96.025 13.100 96.025 13.000 V 10.100 C 96.025 10.045 95.980 10.000 95.925 10.000 H 89.925 C 89.870 10.000 89.825 10.045 89.825 10.100 V 13.000 C 89.825 13.100 89.925 13.000 89.825 13.000 H 84.025 C 83.925 13.000 84.025 13.100 84.025 13.000 V 10.100 C 84.025 10.045 83.980 10.000 83.925 10.000 H 77.925 C 77.870 10.000 77.825 10.045 77.825 10.100 V 13.000 C 77.825 13.100 77.925 13.000 77.825 13.000 H 72.025 C 71.925 13.000 72.025 13.100 72.025 13.000 V 10.100 C 72.025 10.045 71.980 10.000 71.925 10.000 H 65.925 C 65.870 10.000 65.825 10.045 65.825 10.100 V 13.000 C 65.825 13.100 65.925 13.000 65.825 13.000 H 60.025 C 59.925 13.000 60.025 13.100 60.025 13.000 V 10.100 C 60.025 10.045 59.980 10.000 59.925 10.000 H 53.925 C 53.870 10.000 53.825 10.045 53.825 10.100 V 13.000 C 53.825 13.100 53.925 13.000 53.825 13.000 H 48.025 C 47.925 13.000 48.025 13.100 48.025 13.000 V 10.100 C 48.025 10.045 47.980 10.000 47.925 10.000 H 41.925 C 41.870 10.000 41.825 10.045 41.825 10.100 V 13.000 C 41.825 13.100 41.925 13.000 41.825 13.000 H 36.025 C 35.925 13.000 36.025 13.100 36.025 13.000 V 10.100 C 36.025 10.045 35.980 10.000 35.925 10.000 H 29.925 C 29.870 10.000 29.825 10.045 29.825 10.100 V 13.000 C 29.825 13.100 29.925 13.000 29.825 13.000 H 21.925 C 21.870 13.000 21.825 13.045 21.825 13.100 V 21.000 C 21.825 21.100 21.925 21.000 21.825 21.000 H 18.925 C 18.870 21.000 18.825 21.045 18.825 21.100 V 27.100 C 18.825 27.155 18.870 27.200 18.925 27.200 H 21.825 C 21.925 27.200 21.825 27.100 21.825 27.200 V 33.000 C 21.825 33.100 21.925 33.000 21.825 33.000 H 18.925 C 18.870 33.000 18.825 33.045 18.825 33.100 V 39.100 C 18.825 39.155 18.870 39.200 18.925 39.200 H 21.825 C 21.925 39.200 21.825 39.100 21.825 39.200 V 45.000 C 21.825 45.100 21.925 45.000 21.825 45.000 H 18.925 C 18.870 45.000 18.825 45.045 18.825 45.100 V 51.100 C 18.825 51.155 18.870 51.200 18.925 51.200 H 21.825 C 21.925 51.200 21.825 51.100 21.825 51.200 V 57.000 C 21.825 57.100 21.925 57.000 21.825 57.000 H 18.925 C 18.870 57.000 18.825 57.045 18.825 57.100 V 63.100 C 18.825 63.155 18.870 63.200 18.925 63.200 H 21.825 C 21.925 63.200 21.825 63.100 21.825 63.200 V 69.000 C 21.825 69.100 21.925 69.000 21.825 69.000 H 18.925 C 18.870 69.000 18.825 69.045 18.825 69.100 V 75.100 C 18.825 75.155 18.870 75.200 18.925 75.200 H 21.825 C 21.925 75.200 21.825 75.100 21.825 75.200 V 81.000 C 21.825 81.100 21.925 81.000 21.825 81.000 H 18.925 C 18.870 81.000 18.825 81.045 18.825 81.100 V 87.100 C 18.825 87.155 18.870 87.200 18.925 87.200 H 21.825 C 21.925 87.200 21.825 87.100 21.825 87.200 V 93.000 C 21.825 93.100 21.925 93.000 21.825 93.000 H 18.925 C 18.870 93.000 18.825 93.045 18.825 93.100 V 99.100 C 18.825 99.155 18.870 99.200 18.925 99.200 H 21.825 C 21.925 99.200 21.825 99.100 21.825 99.200 V 107.100 C 21.825 107.155 21.870 107.200 21.925 107.200 Z" stroke="rgb(0,0,0)" stroke-width="0.20" />
</g>
</svg>