<?xml version='1.0' encoding='utf-8'?>
<svg height="726.90mm" viewBox="0.0 0.0 137.85 726.90" width="137.85mm" xmlns="http://www.w3.org/2000/svg" xmlns:cc="http://creativecommons.org/ns#" xmlns:dc="http://purl.org/dc/elements/1.1/" xmlns:inkscape="http://www.inkscape.org/namespaces/inkscape" xmlns:rdf="http://www.w3.org/1999/02/22-rdf-syntax-ns#" xmlns:svg="http://www.w3.org/2000/svg" xmlns:xlink="http://www.w3.org/1999/xlink">
<!--
IntegratedHingeBox - Box with lid and integraded hinge

Created with Boxes.py (https://festi.info/boxes.py)
Command line (remove spaces between dashes): boxes IntegratedHingeBox
-->
<title>IntegratedHingeBox</title>
<metadata>
<rdf:RDF><cc:Work>
<dc:title>Box - IntegratedHingeBox</dc:title>
<dc:source>boxes IntegratedHingeBox</dc:source>
<dc:description>Box with lid and integraded hinge

Created with Boxes.py (https://festi.info/boxes.py)
Command line: boxes IntegratedHingeBox
Command line short: boxes IntegratedHingeBox
</dc:description>
</cc:Work></rdf:RDF></metadata>
<g id="p-0" style="fill:none;stroke-linecap:round;stroke-linejoin:round;">
  <path d="M 18.925 716.900 H 118.925 V 706.900 H 18.925 V 716.900 Z" stroke="rgb(0,0,0)" stroke-width="0.20" />
  <text dominant-baseline="hanging" font-size="8px" style="font-family: sans-serif ; font-weight: normal; font-style: normal; fill: rgb(255,0,0)" text-anchor="middle" transform="matrix( 1.000 0.000 0.000 1.000 68.925 707.900 )">100.00mm, burn:0.10mm</text>
</g>
<g id="p-1" style="fill:none;stroke-linecap:round;stroke-linejoin:round;">
  <path d="M 21.925 705.200 H 29.925 C 29.980 705.200 30.025 705.155 30.025 705.100 V 702.200 C 30.025 702.100 29.925 702.200 30.025 702.200 H 35.825 C 35.925 702.200 35.825 702.100 35.825 702.200 V 705.100 C 35.825 705.155 35.870 705.200 35.925 705.200 H 41.925 C 41.980 705.200 42.025 705.155 42.025 705.100 V 702.200 C 42.025 702.100 41.925 702.200 42.025 702.200 H 47.825 C 47.925 702.200 47.825 702.100 47.825 702.200 V 705.100 C 47.825 705.155 47.870 705.200 47.925 705.200 H 53.925 C 53.980 705.200 54.025 705.155 54.025 705.100 V 702.200 C 54.025 702.100 53.925 702.200 54.025 702.200 H 59.825 C 59.925 702.200 59.825 702.100 59.825 702.200 V 705.100 C 59.825 705.155 59.870 705.200 59.925 705.200 H 65.925 C 65.980 705.200 66.025 705.155 66.025 705.100 V 702.200 C 66.025 702.100 65.925 702.200 66.025 702.200 H 71.825 C 71.925 702.200 71.825 702.100 71.825 702.200 V 705.100 C 71.825 705.155 71.870 705.200 71.925 705.200 H 77.925 C 77.980 705.200 78.025 705.155 78.025 705.100 V 702.200 C 78.025 702.100 77.925 702.200 78.025 702.200 H 83.825 C 83.925 702.200 83.825 702.100 83.825 702.200 V 705.100 C 83.825 705.155 83.870 705.200 83.925 705.200 H 89.925 C 89.980 705.200 90.025 705.155 90.025 705.100 V 702.200 C 90.025 702.100 89.925 702.200 90.025 702.200 H 95.825 C 95.925 702.200 95.825 702.100 95.825 702.200 V 705.100 C 95.825 705.155 95.870 705.200 95.925 705.200 H 101.925 C 101.980 705.200 102.025 705.155 102.025 705.100 V 702.200 C 102.025 702.100 101.925 702.200 102.025 702.200 H 107.825 C 107.925 702.200 107.825 702.100 107.825 702.200 V 705.100 C 107.825 705.155 107.870 705.200 107.925 705.200 H 115.925 C 115.980 705.200 116.025 705.155 116.025 705.100 V 702.100 V 694.200 C 116.025 694.100 115.925 694.200 116.025 694.200 H 118.925 C 118.980 694.200 119.025 694.155 119.025 694.100 V 688.100 C 119.025 688.045 118.980 688.000 118.925 688.000 H 116.025 C 115.925 688.000 116.025 688.100 116.025 688.000 V 682.200 C 116.025 682.100 115.925 682.200 116.025 682.200 H 118.925 C 118.980 682.200 119.025 682.155 119.025 682.100 V 676.100 C 119.025 676.045 118.980 676.000 118.925 676.000 H 116.025 C 115.925 676.000 116.025 676.100 116.025 676.000 V 670.200 C 116.025 670.100 115.925 670.200 116.025 670.200 H 118.925 C 118.980 670.200 119.025 670.155 119.025 670.100 V 664.100 C 119.025 664.045 118.980 664.000 118.925 664.000 H 116.025 C 115.925 664.000 116.025 664.100 116.025 664.000 V 658.200 C 116.025 658.100 115.925 658.200 116.025 658.200 H 118.925 C 118.980 658.200 119.025 658.155 119.025 658.100 V 652.100 C 119.025 652.045 118.980 652.000 118.925 652.000 H 116.025 C 115.925 652.000 116.025 652.100 116.025 652.000 V 646.200 C 116.025 646.100 115.925 646.200 116.025 646.200 H 118.925 C 118.980 646.200 119.025 646.155 119.025 646.100 V 640.100 C 119.025 640.045 118.980 640.000 118.925 640.000 H 116.025 C 115.925 640.000 116.025 640.100 116.025 640.000 V 634.200 C 116.025 634.100 115.925 634.200 116.025 634.200 H 118.925 C 118.980 634.200 119.025 634.155 119.025 634.100 V 628.100 C 119.025 628.045 118.980 628.000 118.925 628.000 H 116.025 C 115.925 628.000 116.025 628.100 116.025 628.000 V 622.200 C 116.025 622.100 115.925 622.200 116.025 622.200 H 118.925 C 118.980 622.200 119.025 622.155 119.025 622.100 V 616.100 C 119.025 616.045 118.980 616.000 118.925 616.000 H 116.025 C 115.925 616.000 116.025 616.100 116.025 616.000 V 608.100 C 116.025 608.045 115.980 608.000 115.925 608.000 H 27.925 C 27.980 608.000 28.025 608.045 28.025 608.100 C 28.025 606.300 27.491 604.541 26.492 603.044 C 25.492 601.548 24.070 600.381 22.408 599.693 C 20.745 599.004 18.915 598.824 17.150 599.175 C 15.385 599.526 13.763 600.393 12.490 601.665 C 11.218 602.938 10.351 604.559 10.000 606.325 C 9.649 608.090 9.829 609.920 10.518 611.582 C 11.207 613.245 12.373 614.666 13.869 615.666 C 15.366 616.666 17.125 617.200 18.925 617.200 H 21.925 C 21.908 617.200 21.890 617.195 21.875 617.187 C 21.860 617.178 21.847 617.165 21.839 617.150 C 21.830 617.135 21.825 617.118 21.825 617.100 C 21.825 617.082 21.830 617.065 21.839 617.050 C 21.847 617.035 21.860 617.022 21.875 617.013 C 21.890 617.005 21.908 617.000 21.925 617.000 C 21.870 617.000 21.825 617.045 21.825 617.100 V 626.500 C 21.825 626.600 21.925 626.500 21.825 626.500 H 18.925 C 18.870 626.500 18.825 626.545 18.825 626.600 V 632.600 C 18.825 632.655 18.870 632.700 18.925 632.700 H 21.825 C 21.925 632.700 21.825 632.600 21.825 632.700 V 638.500 C 21.825 638.600 21.925 638.500 21.825 638.500 H 18.925 C 18.870 638.500 18.825 638.545 18.825 638.600 V 644.600 C 18.825 644.655 18.870 644.700 18.925 644.700 H 21.825 C 21.925 644.700 21.825 644.600 21.825 644.700 V 650.500 C 21.825 650.600 21.925 650.500 21.825 650.500 H 18.925 C 18.870 650.500 18.825 650.545 18.825 650.600 V 656.600 C 18.825 656.655 18.870 656.700 18.925 656.700 H 21.825 C 21.925 656.700 21.825 656.600 21.825 656.700 V 662.500 C 21.825 662.600 21.925 662.500 21.825 662.500 H 18.925 C 18.870 662.500 18.825 662.545 18.825 662.600 V 668.600 C 18.825 668.655 18.870 668.700 18.925 668.700 H 21.825 C 21.925 668.700 21.825 668.600 21.825 668.700 V 674.500 C 21.825 674.600 21.925 674.500 21.825 674.500 H 18.925 C 18.870 674.500 18.825 674.545 18.825 674.600 V 680.600 C 18.825 680.655 18.870 680.700 18.925 680.700 H 21.825 C 21.925 680.700 21.825 680.600 21.825 680.700 V 686.500 C 21.825 686.600 21.925 686.500 21.825 686.500 H 18.925 C 18.870 686.500 18.825 686.545 18.825 686.600 V 692.600 C 18.825 692.655 18.870 692.700 18.925 692.700 H 21.825 C 21.925 692.700 21.825 692.600 21.825 692.700 V 702.100 V 705.100 C 21.825 705.155 21.870 705.200 21.925 705.200 Z" stroke="rgb(0,0,0)" stroke-width="0.20" />
  <path d="M 13.025 608.000 C 13.025 606.869 13.350 605.762 13.962 604.810 C 14.573 603.859 15.445 603.103 16.474 602.633 C 17.503 602.163 18.645 601.999 19.765 602.160 C 20.884 602.321 21.934 602.800 22.789 603.541 C 23.644 604.282 24.267 605.253 24.586 606.338 C 24.905 607.423 24.905 608.577 24.586 609.662 C 24.267 610.747 23.644 611.718 22.789 612.459 C 21.934 613.200 20.884 613.679 19.765 613.840 C 18.645 614.001 17.503 613.837 16.474 613.367 C 15.445 612.897 14.573 612.141 13.962 611.190 C 13.350 610.238 13.025 609.131 13.025 608.000 Z" stroke="rgb(0,0,255)" stroke-width="0.20" />
  <path d="M 20.425 603.610 H 21.825 C 21.925 603.610 21.825 603.510 21.825 603.610 V 607.900 C 21.825 608.000 21.925 607.900 21.825 607.900 H 19.025 C 18.925 607.900 19.025 608.000 19.025 607.900 V 603.610 C 19.025 603.510 18.925 603.610 19.025 603.610 H 20.425 Z" stroke="rgb(0,0,255)" stroke-width="0.20" />
</g>
<g id="p-2" style="fill:none;stroke-linecap:round;stroke-linejoin:round;">
  <path d="M 21.925 597.200 C 21.908 597.200 21.890 597.195 21.875 597.187 C 21.860 597.178 21.847 597.165 21.839 597.150 C 21.830 597.135 21.825 597.118 21.825 597.100 C 21.825 597.082 21.830 597.065 21.839 597.050 C 21.847 597.035 21.860 597.022 21.875 597.013 C 21.890 597.005 21.908 597.000 21.925 597.000 H 18.925 C 18.943 597.000 18.960 597.005 18.975 597.013 C 18.990 597.022 19.003 597.035 19.012 597.050 C 19.021 597.065 19.025 597.082 19.025 597.100 C 19.025 597.118 19.021 597.135 19.012 597.150 C 19.003 597.165 18.990 597.178 18.975 597.187 C 18.960 597.195 18.943 597.200 18.925 597.200 C 20.540 597.200 22.127 597.625 23.525 598.433 C 24.924 599.240 26.085 600.401 26.893 601.800 C 27.700 603.199 28.125 604.785 28.125 606.400 C 28.125 606.455 28.170 606.500 28.225 606.500 H 115.925 C 115.980 606.500 116.025 606.455 116.025 606.400 V 599.500 C 116.025 599.400 115.925 599.500 116.025 599.500 H 118.925 C 118.980 599.500 119.025 599.455 119.025 599.400 V 593.400 C 119.025 593.345 118.980 593.300 118.925 593.300 H 116.025 C 115.925 593.300 116.025 593.400 116.025 593.300 V 586.400 V 583.400 C 116.025 583.345 115.980 583.300 115.925 583.300 H 107.925 C 107.870 583.300 107.825 583.345 107.825 583.400 V 586.300 C 107.825 586.400 107.925 586.300 107.825 586.300 H 102.025 C 101.925 586.300 102.025 586.400 102.025 586.300 V 583.400 C 102.025 583.345 101.980 583.300 101.925 583.300 H 95.925 C 95.870 583.300 95.825 583.345 95.825 583.400 V 586.300 C 95.825 586.400 95.925 586.300 95.825 586.300 H 90.025 C 89.925 586.300 90.025 586.400 90.025 586.300 V 583.400 C 90.025 583.345 89.980 583.300 89.925 583.300 H 83.925 C 83.870 583.300 83.825 583.345 83.825 583.400 V 586.300 C 83.825 586.400 83.925 586.300 83.825 586.300 H 78.025 C 77.925 586.300 78.025 586.400 78.025 586.300 V 583.400 C 78.025 583.345 77.980 583.300 77.925 583.300 H 71.925 C 71.870 583.300 71.825 583.345 71.825 583.400 V 586.300 C 71.825 586.400 71.925 586.300 71.825 586.300 H 66.025 C 65.925 586.300 66.025 586.400 66.025 586.300 V 583.400 C 66.025 583.345 65.980 583.300 65.925 583.300 H 59.925 C 59.870 583.300 59.825 583.345 59.825 583.400 V 586.300 C 59.825 586.400 59.925 586.300 59.825 586.300 H 54.025 C 53.925 586.300 54.025 586.400 54.025 586.300 V 583.400 C 54.025 583.345 53.980 583.300 53.925 583.300 H 47.925 C 47.870 583.300 47.825 583.345 47.825 583.400 V 586.300 C 47.825 586.400 47.925 586.300 47.825 586.300 H 42.025 C 41.925 586.300 42.025 586.400 42.025 586.300 V 583.400 C 42.025 583.345 41.980 583.300 41.925 583.300 H 35.925 C 35.870 583.300 35.825 583.345 35.825 583.400 V 586.300 C 35.825 586.400 35.925 586.300 35.825 586.300 H 30.025 C 29.925 586.300 30.025 586.400 30.025 586.300 V 583.400 C 30.025 583.345 29.980 583.300 29.925 583.300 H 21.925 C 21.870 583.300 21.825 583.345 21.825 583.400 V 586.400 V 588.650 C 21.825 588.750 21.925 588.650 21.825 588.650 H 18.925 C 18.870 588.650 18.825 588.695 18.825 588.750 V 594.750 C 18.825 594.805 18.870 594.850 18.925 594.850 H 21.825 C 21.925 594.850 21.825 594.750 21.825 594.850 V 597.100 C 21.825 597.155 21.870 597.200 21.925 597.200 Z" stroke="rgb(0,0,0)" stroke-width="0.20" />
</g>
<g id="p-3" style="fill:none;stroke-linecap:round;stroke-linejoin:round;">
  <path d="M 21.925 581.800 H 29.925 C 29.980 581.800 30.025 581.755 30.025 581.700 V 578.800 C 30.025 578.700 29.925 578.800 30.025 578.800 H 35.825 C 35.925 578.800 35.825 578.700 35.825 578.800 V 581.700 C 35.825 581.755 35.870 581.800 35.925 581.800 H 41.925 C 41.980 581.800 42.025 581.755 42.025 581.700 V 578.800 C 42.025 578.700 41.925 578.800 42.025 578.800 H 47.825 C 47.925 578.800 47.825 578.700 47.825 578.800 V 581.700 C 47.825 581.755 47.870 581.800 47.925 581.800 H 53.925 C 53.980 581.800 54.025 581.755 54.025 581.700 V 578.800 C 54.025 578.700 53.925 578.800 54.025 578.800 H 59.825 C 59.925 578.800 59.825 578.700 59.825 578.800 V 581.700 C 59.825 581.755 59.870 581.800 59.925 581.800 H 65.925 C 65.980 581.800 66.025 581.755 66.025 581.700 V 578.800 C 66.025 578.700 65.925 578.800 66.025 578.800 H 71.825 C 71.925 578.800 71.825 578.700 71.825 578.800 V 581.700 C 71.825 581.755 71.870 581.800 71.925 581.800 H 77.925 C 77.980 581.800 78.025 581.755 78.025 581.700 V 578.800 C 78.025 578.700 77.925 578.800 78.025 578.800 H 83.825 C 83.925 578.800 83.825 578.700 83.825 578.800 V 581.700 C 83.825 581.755 83.870 581.800 83.925 581.800 H 89.925 C 89.980 581.800 90.025 581.755 90.025 581.700 V 578.800 C 90.025 578.700 89.925 578.800 90.025 578.800 H 95.825 C 95.925 578.800 95.825 578.700 95.825 578.800 V 581.700 C 95.825 581.755 95.870 581.800 95.925 581.800 H 101.925 C 101.980 581.800 102.025 581.755 102.025 581.700 V 578.800 C 102.025 578.700 101.925 578.800 102.025 578.800 H 107.825 C 107.925 578.800 107.825 578.700 107.825 578.800 V 581.700 C 107.825 581.755 107.870 581.800 107.925 581.800 H 115.925 C 115.980 581.800 116.025 581.755 116.025 581.700 V 578.700 V 569.300 C 116.025 569.200 115.925 569.300 116.025 569.300 H 118.925 C 118.980 569.300 119.025 569.255 119.025 569.200 V 563.200 C 119.025 563.145 118.980 563.100 118.925 563.100 H 116.025 C 115.925 563.100 116.025 563.200 116.025 563.100 V 557.300 C 116.025 557.200 115.925 557.300 116.025 557.300 H 118.925 C 118.980 557.300 119.025 557.255 119.025 557.200 V 551.200 C 119.025 551.145 118.980 551.100 118.925 551.100 H 116.025 C 115.925 551.100 116.025 551.200 116.025 551.100 V 545.300 C 116.025 545.200 115.925 545.300 116.025 545.300 H 118.925 C 118.980 545.300 119.025 545.255 119.025 545.200 V 539.200 C 119.025 539.145 118.980 539.100 118.925 539.100 H 116.025 C 115.925 539.100 116.025 539.200 116.025 539.100 V 533.300 C 116.025 533.200 115.925 533.300 116.025 533.300 H 118.925 C 118.980 533.300 119.025 533.255 119.025 533.200 V 527.200 C 119.025 527.145 118.980 527.100 118.925 527.100 H 116.025 C 115.925 527.100 116.025 527.200 116.025 527.100 V 521.300 C 116.025 521.200 115.925 521.300 116.025 521.300 H 118.925 C 118.980 521.300 119.025 521.255 119.025 521.200 V 515.200 C 119.025 515.145 118.980 515.100 118.925 515.100 H 116.025 C 115.925 515.100 116.025 515.200 116.025 515.100 V 509.300 C 116.025 509.200 115.925 509.300 116.025 509.300 H 118.925 C 118.980 509.300 119.025 509.255 119.025 509.200 V 503.200 C 119.025 503.145 118.980 503.100 118.925 503.100 H 116.025 C 115.925 503.100 116.025 503.200 116.025 503.100 V 493.700 C 116.025 493.645 115.980 493.600 115.925 493.600 C 115.943 493.600 115.960 493.605 115.975 493.613 C 115.990 493.622 116.003 493.635 116.012 493.650 C 116.021 493.665 116.025 493.682 116.025 493.700 C 116.025 493.718 116.021 493.735 116.012 493.750 C 116.003 493.765 115.990 493.778 115.975 493.787 C 115.960 493.795 115.943 493.800 115.925 493.800 H 118.925 C 120.725 493.800 122.484 493.266 123.981 492.266 C 125.477 491.266 126.644 489.845 127.332 488.182 C 128.021 486.520 128.201 484.690 127.850 482.925 C 127.499 481.159 126.632 479.538 125.360 478.265 C 124.087 476.993 122.466 476.126 120.700 475.775 C 118.935 475.424 117.106 475.604 115.443 476.293 C 113.780 476.981 112.359 478.148 111.359 479.644 C 110.359 481.141 109.825 482.900 109.825 484.700 C 109.825 484.645 109.870 484.600 109.925 484.600 H 21.925 C 21.870 484.600 21.825 484.645 21.825 484.700 V 492.600 C 21.825 492.700 21.925 492.600 21.825 492.600 H 18.925 C 18.870 492.600 18.825 492.645 18.825 492.700 V 498.700 C 18.825 498.755 18.870 498.800 18.925 498.800 H 21.825 C 21.925 498.800 21.825 498.700 21.825 498.800 V 504.600 C 21.825 504.700 21.925 504.600 21.825 504.600 H 18.925 C 18.870 504.600 18.825 504.645 18.825 504.700 V 510.700 C 18.825 510.755 18.870 510.800 18.925 510.800 H 21.825 C 21.925 510.800 21.825 510.700 21.825 510.800 V 516.600 C 21.825 516.700 21.925 516.600 21.825 516.600 H 18.925 C 18.870 516.600 18.825 516.645 18.825 516.700 V 522.700 C 18.825 522.755 18.870 522.800 18.925 522.800 H 21.825 C 21.925 522.800 21.825 522.700 21.825 522.800 V 528.600 C 21.825 528.700 21.925 528.600 21.825 528.600 H 18.925 C 18.870 528.600 18.825 528.645 18.825 528.700 V 534.700 C 18.825 534.755 18.870 534.800 18.925 534.800 H 21.825 C 21.925 534.800 21.825 534.700 21.825 534.800 V 540.600 C 21.825 540.700 21.925 540.600 21.825 540.600 H 18.925 C 18.870 540.600 18.825 540.645 18.825 540.700 V 546.700 C 18.825 546.755 18.870 546.800 18.925 546.800 H 21.825 C 21.925 546.800 21.825 546.700 21.825 546.800 V 552.600 C 21.825 552.700 21.925 552.600 21.825 552.600 H 18.925 C 18.870 552.600 18.825 552.645 18.825 552.700 V 558.700 C 18.825 558.755 18.870 558.800 18.925 558.800 H 21.825 C 21.925 558.800 21.825 558.700 21.825 558.800 V 564.600 C 21.825 564.700 21.925 564.600 21.825 564.600 H 18.925 C 18.870 564.600 18.825 564.645 18.825 564.700 V 570.700 C 18.825 570.755 18.870 570.800 18.925 570.800 H 21.825 C 21.925 570.800 21.825 570.700 21.825 570.800 V 578.700 V 581.700 C 21.825 581.755 21.870 581.800 21.925 581.800 Z" stroke="rgb(0,0,0)" stroke-width="0.20" />
  <path d="M 113.025 484.600 C 113.025 483.469 113.350 482.362 113.962 481.410 C 114.573 480.459 115.445 479.703 116.474 479.233 C 117.503 478.763 118.645 478.599 119.765 478.760 C 120.884 478.921 121.934 479.400 122.789 480.141 C 123.644 480.882 124.267 481.853 124.586 482.938 C 124.905 484.023 124.905 485.177 124.586 486.262 C 124.267 487.347 123.644 488.318 122.789 489.059 C 121.934 489.800 120.884 490.279 119.765 490.440 C 118.645 490.601 117.503 490.437 116.474 489.967 C 115.445 489.497 114.573 488.741 113.962 487.790 C 113.350 486.838 113.025 485.731 113.025 484.600 Z" stroke="rgb(0,0,255)" stroke-width="0.20" />
  <path d="M 117.425 480.210 H 118.825 C 118.925 480.210 118.825 480.110 118.825 480.210 V 484.500 C 118.825 484.600 118.925 484.500 118.825 484.500 H 116.025 C 115.925 484.500 116.025 484.600 116.025 484.500 V 480.210 C 116.025 480.110 115.925 480.210 116.025 480.210 H 117.425 Z" stroke="rgb(0,0,255)" stroke-width="0.20" />
</g>
<g id="p-4" style="fill:none;stroke-linecap:round;stroke-linejoin:round;">
  <path d="M 21.925 483.100 H 109.625 C 109.680 483.100 109.725 483.055 109.725 483.000 C 109.725 481.385 110.150 479.799 110.958 478.400 C 111.765 477.001 112.927 475.840 114.325 475.033 C 115.724 474.225 117.310 473.800 118.925 473.800 C 118.908 473.800 118.890 473.795 118.875 473.787 C 118.860 473.778 118.847 473.765 118.839 473.750 C 118.830 473.735 118.825 473.718 118.825 473.700 C 118.825 473.682 118.830 473.665 118.839 473.650 C 118.847 473.635 118.860 473.622 118.875 473.613 C 118.890 473.605 118.908 473.600 118.925 473.600 H 115.925 C 115.943 473.600 115.960 473.605 115.975 473.613 C 115.990 473.622 116.003 473.635 116.012 473.650 C 116.021 473.665 116.025 473.682 116.025 473.700 C 116.025 473.718 116.021 473.735 116.012 473.750 C 116.003 473.765 115.990 473.778 115.975 473.787 C 115.960 473.795 115.943 473.800 115.925 473.800 C 115.980 473.800 116.025 473.755 116.025 473.700 V 471.450 C 116.025 471.350 115.925 471.450 116.025 471.450 H 118.925 C 118.980 471.450 119.025 471.405 119.025 471.350 V 465.350 C 119.025 465.295 118.980 465.250 118.925 465.250 H 116.025 C 115.925 465.250 116.025 465.350 116.025 465.250 V 463.000 V 460.000 C 116.025 459.945 115.980 459.900 115.925 459.900 H 107.925 C 107.870 459.900 107.825 459.945 107.825 460.000 V 462.900 C 107.825 463.000 107.925 462.900 107.825 462.900 H 102.025 C 101.925 462.900 102.025 463.000 102.025 462.900 V 460.000 C 102.025 459.945 101.980 459.900 101.925 459.900 H 95.925 C 95.870 459.900 95.825 459.945 95.825 460.000 V 462.900 C 95.825 463.000 95.925 462.900 95.825 462.900 H 90.025 C 89.925 462.900 90.025 463.000 90.025 462.900 V 460.000 C 90.025 459.945 89.980 459.900 89.925 459.900 H 83.925 C 83.870 459.900 83.825 459.945 83.825 460.000 V 462.900 C 83.825 463.000 83.925 462.900 83.825 462.900 H 78.025 C 77.925 462.900 78.025 463.000 78.025 462.900 V 460.000 C 78.025 459.945 77.980 459.900 77.925 459.900 H 71.925 C 71.870 459.900 71.825 459.945 71.825 460.000 V 462.900 C 71.825 463.000 71.925 462.900 71.825 462.900 H 66.025 C 65.925 462.900 66.025 463.000 66.025 462.900 V 460.000 C 66.025 459.945 65.980 459.900 65.925 459.900 H 59.925 C 59.870 459.900 59.825 459.945 59.825 460.000 V 462.900 C 59.825 463.000 59.925 462.900 59.825 462.900 H 54.025 C 53.925 462.900 54.025 463.000 54.025 462.900 V 460.000 C 54.025 459.945 53.980 459.900 53.925 459.900 H 47.925 C 47.870 459.900 47.825 459.945 47.825 460.000 V 462.900 C 47.825 463.000 47.925 462.900 47.825 462.900 H 42.025 C 41.925 462.900 42.025 463.000 42.025 462.900 V 460.000 C 42.025 459.945 41.980 459.900 41.925 459.900 H 35.925 C 35.870 459.900 35.825 459.945 35.825 460.000 V 462.900 C 35.825 463.000 35.925 462.900 35.825 462.900 H 30.025 C 29.925 462.900 30.025 463.000 30.025 462.900 V 460.000 C 30.025 459.945 29.980 459.900 29.925 459.900 H 21.925 C 21.870 459.900 21.825 459.945 21.825 460.000 V 463.000 V 469.900 C 21.825 470.000 21.925 469.900 21.825 469.900 H 18.925 C 18.870 469.900 18.825 469.945 18.825 470.000 V 476.000 C 18.825 476.055 18.870 476.100 18.925 476.100 H 21.825 C 21.925 476.100 21.825 476.000 21.825 476.100 V 483.000 C 21.825 483.055 21.870 483.100 21.925 483.100 Z" stroke="rgb(0,0,0)" stroke-width="0.20" />
</g>
<g id="p-5" style="fill:none;stroke-linecap:round;stroke-linejoin:round;">
  <path d="M 21.925 458.400 H 29.925 C 29.980 458.400 30.025 458.355 30.025 458.300 V 455.400 C 30.025 455.300 29.925 455.400 30.025 455.400 H 35.825 C 35.925 455.400 35.825 455.300 35.825 455.400 V 458.300 C 35.825 458.355 35.870 458.400 35.925 458.400 H 41.925 C 41.980 458.400 42.025 458.355 42.025 458.300 V 455.400 C 42.025 455.300 41.925 455.400 42.025 455.400 H 47.825 C 47.925 455.400 47.825 455.300 47.825 455.400 V 458.300 C 47.825 458.355 47.870 458.400 47.925 458.400 H 53.925 C 53.980 458.400 54.025 458.355 54.025 458.300 V 455.400 C 54.025 455.300 53.925 455.400 54.025 455.400 H 59.825 C 59.925 455.400 59.825 455.300 59.825 455.400 V 458.300 C 59.825 458.355 59.870 458.400 59.925 458.400 H 65.925 C 65.980 458.400 66.025 458.355 66.025 458.300 V 455.400 C 66.025 455.300 65.925 455.400 66.025 455.400 H 71.825 C 71.925 455.400 71.825 455.300 71.825 455.400 V 458.300 C 71.825 458.355 71.870 458.400 71.925 458.400 H 77.925 C 77.980 458.400 78.025 458.355 78.025 458.300 V 455.400 C 78.025 455.300 77.925 455.400 78.025 455.400 H 83.825 C 83.925 455.400 83.825 455.300 83.825 455.400 V 458.300 C 83.825 458.355 83.870 458.400 83.925 458.400 H 89.925 C 89.980 458.400 90.025 458.355 90.025 458.300 V 455.400 C 90.025 455.300 89.925 455.400 90.025 455.400 H 95.825 C 95.925 455.400 95.825 455.300 95.825 455.400 V 458.300 C 95.825 458.355 95.870 458.400 95.925 458.400 H 101.925 C 101.980 458.400 102.025 458.355 102.025 458.300 V 455.400 C 102.025 455.300 101.925 455.400 102.025 455.400 H 107.825 C 107.925 455.400 107.825 455.300 107.825 455.400 V 458.300 C 107.825 458.355 107.870 458.400 107.925 458.400 H 115.925 H 118.925 C 118.980 458.400 119.025 458.355 119.025 458.300 V 455.300 V 447.300 C 119.025 447.245 118.980 447.200 118.925 447.200 H 116.025 C 115.925 447.200 116.025 447.300 116.025 447.200 V 441.400 C 116.025 441.300 115.925 441.400 116.025 441.400 H 118.925 C 118.980 441.400 119.025 441.355 119.025 441.300 V 435.300 C 119.025 435.245 118.980 435.200 118.925 435.200 H 116.025 C 115.925 435.200 116.025 435.300 116.025 435.200 V 429.400 C 116.025 429.300 115.925 429.400 116.025 429.400 H 118.925 C 118.980 429.400 119.025 429.355 119.025 429.300 V 423.300 C 119.025 423.245 118.980 423.200 118.925 423.200 H 116.025 C 115.925 423.200 116.025 423.300 116.025 423.200 V 417.400 C 116.025 417.300 115.925 417.400 116.025 417.400 H 118.925 C 118.980 417.400 119.025 417.355 119.025 417.300 V 411.300 C 119.025 411.245 118.980 411.200 118.925 411.200 H 116.025 C 115.925 411.200 116.025 411.300 116.025 411.200 V 405.400 C 116.025 405.300 115.925 405.400 116.025 405.400 H 118.925 C 118.980 405.400 119.025 405.355 119.025 405.300 V 399.300 C 119.025 399.245 118.980 399.200 118.925 399.200 H 116.025 C 115.925 399.200 116.025 399.300 116.025 399.200 V 393.400 C 116.025 393.300 115.925 393.400 116.025 393.400 H 118.925 C 118.980 393.400 119.025 393.355 119.025 393.300 V 387.300 C 119.025 387.245 118.980 387.200 118.925 387.200 H 116.025 C 115.925 387.200 116.025 387.300 116.025 387.200 V 381.400 C 116.025 381.300 115.925 381.400 116.025 381.400 H 118.925 C 118.980 381.400 119.025 381.355 119.025 381.300 V 375.300 C 119.025 375.245 118.980 375.200 118.925 375.200 H 116.025 C 115.925 375.200 116.025 375.300 116.025 375.200 V 369.400 C 116.025 369.300 115.925 369.400 116.025 369.400 H 118.925 C 118.980 369.400 119.025 369.355 119.025 369.300 V 361.300 C 119.025 361.245 118.980 361.200 118.925 361.200 H 115.925 H 21.925 H 18.925 C 18.870 361.200 18.825 361.245 18.825 361.300 V 369.300 C 18.825 369.355 18.870 369.400 18.925 369.400 H 21.825 C 21.925 369.400 21.825 369.300 21.825 369.400 V 375.200 C 21.825 375.300 21.925 375.200 21.825 375.200 H 18.925 C 18.870 375.200 18.825 375.245 18.825 375.300 V 381.300 C 18.825 381.355 18.870 381.400 18.925 381.400 H 21.825 C 21.925 381.400 21.825 381.300 21.825 381.400 V 387.200 C 21.825 387.300 21.925 387.200 21.825 387.200 H 18.925 C 18.870 387.200 18.825 387.245 18.825 387.300 V 393.300 C 18.825 393.355 18.870 393.400 18.925 393.400 H 21.825 C 21.925 393.400 21.825 393.300 21.825 393.400 V 399.200 C 21.825 399.300 21.925 399.200 21.825 399.200 H 18.925 C 18.870 399.200 18.825 399.245 18.825 399.300 V 405.300 C 18.825 405.355 18.870 405.400 18.925 405.400 H 21.825 C 21.925 405.400 21.825 405.300 21.825 405.400 V 411.200 C 21.825 411.300 21.925 411.200 21.825 411.200 H 18.925 C 18.870 411.200 18.825 411.245 18.825 411.300 V 417.300 C 18.825 417.355 18.870 417.400 18.925 417.400 H 21.825 C 21.925 417.400 21.825 417.300 21.825 417.400 V 423.200 C 21.825 423.300 21.925 423.200 21.825 423.200 H 18.925 C 18.870 423.200 18.825 423.245 18.825 423.300 V 429.300 C 18.825 429.355 18.870 429.400 18.925 429.400 H 21.825 C 21.925 429.400 21.825 429.300 21.825 429.400 V 435.200 C 21.825 435.300 21.925 435.200 21.825 435.200 H 18.925 C 18.870 435.200 18.825 435.245 18.825 435.300 V 441.300 C 18.825 441.355 18.870 441.400 18.925 441.400 H 21.825 C 21.925 441.400 21.825 441.300 21.825 441.400 V 447.200 C 21.825 447.300 21.925 447.200 21.825 447.200 H 18.925 C 18.870 447.200 18.825 447.245 18.825 447.300 V 455.300 V 458.300 C 18.825 458.355 18.870 458.400 18.925 458.400 H 21.925 Z" stroke="rgb(0,0,0)" stroke-width="0.20" />
</g>
<g id="p-6" style="fill:none;stroke-linecap:round;stroke-linejoin:round;">
  <path d="M 21.925 359.700 H 29.925 C 29.980 359.700 30.025 359.655 30.025 359.600 V 356.700 C 30.025 356.600 29.925 356.700 30.025 356.700 H 35.825 C 35.925 356.700 35.825 356.600 35.825 356.700 V 359.600 C 35.825 359.655 35.870 359.700 35.925 359.700 H 41.925 C 41.980 359.700 42.025 359.655 42.025 359.600 V 356.700 C 42.025 356.600 41.925 356.700 42.025 356.700 H 47.825 C 47.925 356.700 47.825 356.600 47.825 356.700 V 359.600 C 47.825 359.655 47.870 359.700 47.925 359.700 H 53.925 C 53.980 359.700 54.025 359.655 54.025 359.600 V 356.700 C 54.025 356.600 53.925 356.700 54.025 356.700 H 59.825 C 59.925 356.700 59.825 356.600 59.825 356.700 V 359.600 C 59.825 359.655 59.870 359.700 59.925 359.700 H 65.925 C 65.980 359.700 66.025 359.655 66.025 359.600 V 356.700 C 66.025 356.600 65.925 356.700 66.025 356.700 H 71.825 C 71.925 356.700 71.825 356.600 71.825 356.700 V 359.600 C 71.825 359.655 71.870 359.700 71.925 359.700 H 77.925 C 77.980 359.700 78.025 359.655 78.025 359.600 V 356.700 C 78.025 356.600 77.925 356.700 78.025 356.700 H 83.825 C 83.925 356.700 83.825 356.600 83.825 356.700 V 359.600 C 83.825 359.655 83.870 359.700 83.925 359.700 H 89.925 C 89.980 359.700 90.025 359.655 90.025 359.600 V 356.700 C 90.025 356.600 89.925 356.700 90.025 356.700 H 95.825 C 95.925 356.700 95.825 356.600 95.825 356.700 V 359.600 C 95.825 359.655 95.870 359.700 95.925 359.700 H 101.925 C 101.980 359.700 102.025 359.655 102.025 359.600 V 356.700 C 102.025 356.600 101.925 356.700 102.025 356.700 H 107.825 C 107.925 356.700 107.825 356.600 107.825 356.700 V 359.600 C 107.825 359.655 107.870 359.700 107.925 359.700 H 115.925 H 118.925 C 118.980 359.700 119.025 359.655 119.025 359.600 V 356.600 V 347.100 C 119.025 347.045 118.980 347.000 118.925 347.000 H 116.025 C 115.925 347.000 116.025 347.100 116.025 347.000 V 341.200 C 116.025 341.100 115.925 341.200 116.025 341.200 H 118.925 C 118.980 341.200 119.025 341.155 119.025 341.100 V 335.100 C 119.025 335.045 118.980 335.000 118.925 335.000 H 116.025 C 115.925 335.000 116.025 335.100 116.025 335.000 V 329.200 C 116.025 329.100 115.925 329.200 116.025 329.200 H 118.925 C 118.980 329.200 119.025 329.155 119.025 329.100 V 323.100 C 119.025 323.045 118.980 323.000 118.925 323.000 H 116.025 C 115.925 323.000 116.025 323.100 116.025 323.000 V 317.200 C 116.025 317.100 115.925 317.200 116.025 317.200 H 118.925 C 118.980 317.200 119.025 317.155 119.025 317.100 V 311.100 C 119.025 311.045 118.980 311.000 118.925 311.000 H 116.025 C 115.925 311.000 116.025 311.100 116.025 311.000 V 305.200 C 116.025 305.100 115.925 305.200 116.025 305.200 H 118.925 C 118.980 305.200 119.025 305.155 119.025 305.100 V 299.100 C 119.025 299.045 118.980 299.000 118.925 299.000 H 116.025 C 115.925 299.000 116.025 299.100 116.025 299.000 V 293.200 C 116.025 293.100 115.925 293.200 116.025 293.200 H 118.925 C 118.980 293.200 119.025 293.155 119.025 293.100 V 287.100 C 119.025 287.045 118.980 287.000 118.925 287.000 H 116.025 C 115.925 287.000 116.025 287.100 116.025 287.000 V 281.200 C 116.025 281.100 115.925 281.200 116.025 281.200 H 118.925 C 118.980 281.200 119.025 281.155 119.025 281.100 V 271.600 C 119.025 271.545 118.980 271.500 118.925 271.500 H 116.025 C 115.925 271.500 116.025 271.600 116.025 271.500 V 262.600 C 116.025 262.545 115.980 262.500 115.925 262.500 H 21.925 C 21.870 262.500 21.825 262.545 21.825 262.600 V 271.500 C 21.825 271.600 21.925 271.500 21.825 271.500 H 18.925 C 18.870 271.500 18.825 271.545 18.825 271.600 V 281.100 C 18.825 281.155 18.870 281.200 18.925 281.200 H 21.825 C 21.925 281.200 21.825 281.100 21.825 281.200 V 287.000 C 21.825 287.100 21.925 287.000 21.825 287.000 H 18.925 C 18.870 287.000 18.825 287.045 18.825 287.100 V 293.100 C 18.825 293.155 18.870 293.200 18.925 293.200 H 21.825 C 21.925 293.200 21.825 293.100 21.825 293.200 V 299.000 C 21.825 299.100 21.925 299.000 21.825 299.000 H 18.925 C 18.870 299.000 18.825 299.045 18.825 299.100 V 305.100 C 18.825 305.155 18.870 305.200 18.925 305.200 H 21.825 C 21.925 305.200 21.825 305.100 21.825 305.200 V 311.000 C 21.825 311.100 21.925 311.000 21.825 311.000 H 18.925 C 18.870 311.000 18.825 311.045 18.825 311.100 V 317.100 C 18.825 317.155 18.870 317.200 18.925 317.200 H 21.825 C 21.925 317.200 21.825 317.100 21.825 317.200 V 323.000 C 21.825 323.100 21.925 323.000 21.825 323.000 H 18.925 C 18.870 323.000 18.825 323.045 18.825 323.100 V 329.100 C 18.825 329.155 18.870 329.200 18.925 329.200 H 21.825 C 21.925 329.200 21.825 329.100 21.825 329.200 V 335.000 C 21.825 335.100 21.925 335.000 21.825 335.000 H 18.925 C 18.870 335.000 18.825 335.045 18.825 335.100 V 341.100 C 18.825 341.155 18.870 341.200 18.925 341.200 H 21.825 C 21.925 341.200 21.825 341.100 21.825 341.200 V 347.000 C 21.825 347.100 21.925 347.000 21.825 347.000 H 18.925 C 18.870 347.000 18.825 347.045 18.825 347.100 V 356.600 V 359.600 C 18.825 359.655 18.870 359.700 18.925 359.700 H 21.925 Z" stroke="rgb(0,0,0)" stroke-width="0.20" />
</g>
<g id="p-7" style="fill:none;stroke-linecap:round;stroke-linejoin:round;">
  <path d="M 21.925 261.000 H 29.925 C 29.980 261.000 30.025 260.955 30.025 260.900 V 258.000 C 30.025 257.900 29.925 258.000 30.025 258.000 H 35.825 C 35.925 258.000 35.825 257.900 35.825 258.000 V 260.900 C 35.825 260.955 35.870 261.000 35.925 261.000 H 41.925 C 41.980 261.000 42.025 260.955 42.025 260.900 V 258.000 C 42.025 257.900 41.925 258.000 42.025 258.000 H 47.825 C 47.925 258.000 47.825 257.900 47.825 258.000 V 260.900 C 47.825 260.955 47.870 261.000 47.925 261.000 H 53.925 C 53.980 261.000 54.025 260.955 54.025 260.900 V 258.000 C 54.025 257.900 53.925 258.000 54.025 258.000 H 59.825 C 59.925 258.000 59.825 257.900 59.825 258.000 V 260.900 C 59.825 260.955 59.870 261.000 59.925 261.000 H 65.925 C 65.980 261.000 66.025 260.955 66.025 260.900 V 258.000 C 66.025 257.900 65.925 258.000 66.025 258.000 H 71.825 C 71.925 258.000 71.825 257.900 71.825 258.000 V 260.900 C 71.825 260.955 71.870 261.000 71.925 261.000 H 77.925 C 77.980 261.000 78.025 260.955 78.025 260.900 V 258.000 C 78.025 257.900 77.925 258.000 78.025 258.000 H 83.825 C 83.925 258.000 83.825 257.900 83.825 258.000 V 260.900 C 83.825 260.955 83.870 261.000 83.925 261.000 H 89.925 C 89.980 261.000 90.025 260.955 90.025 260.900 V 258.000 C 90.025 257.900 89.925 258.000 90.025 258.000 H 95.825 C 95.925 258.000 95.825 257.900 95.825 258.000 V 260.900 C 95.825 260.955 95.870 261.000 95.925 261.000 H 101.925 C 101.980 261.000 102.025 260.955 102.025 260.900 V 258.000 C 102.025 257.900 101.925 258.000 102.025 258.000 H 107.825 C 107.925 258.000 107.825 257.900 107.825 258.000 V 260.900 C 107.825 260.955 107.870 261.000 107.925 261.000 H 115.925 H 118.925 C 118.980 261.000 119.025 260.955 119.025 260.900 V 257.900 V 250.900 C 119.025 250.845 118.980 250.800 118.925 250.800 H 116.025 C 115.925 250.800 116.025 250.900 116.025 250.800 V 245.000 C 116.025 244.900 115.925 245.000 116.025 245.000 H 118.925 C 118.980 245.000 119.025 244.955 119.025 244.900 V 237.900 C 119.025 237.845 118.980 237.800 118.925 237.800 H 115.925 H 21.925 H 18.925 C 18.870 237.800 18.825 237.845 18.825 237.900 V 244.900 C 18.825 244.955 18.870 245.000 18.925 245.000 H 21.825 C 21.925 245.000 21.825 244.900 21.825 245.000 V 250.800 C 21.825 250.900 21.925 250.800 21.825 250.800 H 18.925 C 18.870 250.800 18.825 250.845 18.825 250.900 V 257.900 V 260.900 C 18.825 260.955 18.870 261.000 18.925 261.000 H 21.925 Z" stroke="rgb(0,0,0)" stroke-width="0.20" />
</g>
<g id="p-8" style="fill:none;stroke-linecap:round;stroke-linejoin:round;">
  <path d="M 21.925 236.300 H 29.925 C 29.980 236.300 30.025 236.255 30.025 236.200 V 233.300 C 30.025 233.200 29.925 233.300 30.025 233.300 H 35.825 C 35.925 233.300 35.825 233.200 35.825 233.300 V 236.200 C 35.825 236.255 35.870 236.300 35.925 236.300 H 41.925 C 41.980 236.300 42.025 236.255 42.025 236.200 V 233.300 C 42.025 233.200 41.925 233.300 42.025 233.300 H 47.825 C 47.925 233.300 47.825 233.200 47.825 233.300 V 236.200 C 47.825 236.255 47.870 236.300 47.925 236.300 H 53.925 C 53.980 236.300 54.025 236.255 54.025 236.200 V 233.300 C 54.025 233.200 53.925 233.300 54.025 233.300 H 59.825 C 59.925 233.300 59.825 233.200 59.825 233.300 V 236.200 C 59.825 236.255 59.870 236.300 59.925 236.300 H 65.925 C 65.980 236.300 66.025 236.255 66.025 236.200 V 233.300 C 66.025 233.200 65.925 233.300 66.025 233.300 H 71.825 C 71.925 233.300 71.825 233.200 71.825 233.300 V 236.200 C 71.825 236.255 71.870 236.300 71.925 236.300 H 77.925 C 77.980 236.300 78.025 236.255 78.025 236.200 V 233.300 C 78.025 233.200 77.925 233.300 78.025 233.300 H 83.825 C 83.925 233.300 83.825 233.200 83.825 233.300 V 236.200 C 83.825 236.255 83.870 236.300 83.925 236.300 H 89.925 C 89.980 236.300 90.025 236.255 90.025 236.200 V 233.300 C 90.025 233.200 89.925 233.300 90.025 233.300 H 95.825 C 95.925 233.300 95.825 233.200 95.825 233.300 V 236.200 C 95.825 236.255 95.870 236.300 95.925 236.300 H 101.925 C 101.980 236.300 102.025 236.255 102.025 236.200 V 233.300 C 102.025 233.200 101.925 233.300 102.025 233.300 H 107.825 C 107.925 233.300 107.825 233.200 107.825 233.300 V 236.200 C 107.825 236.255 107.870 236.300 107.925 236.300 H 115.925 H 118.925 C 118.980 236.300 119.025 236.255 119.025 236.200 V 233.200 V 230.850 C 119.025 230.795 118.980 230.750 118.925 230.750 H 116.025 C 115.925 230.750 116.025 230.850 116.025 230.750 V 224.950 C 116.025 224.850 115.925 224.950 116.025 224.950 H 118.925 C 118.980 224.950 119.025 224.905 119.025 224.850 V 222.500 C 119.025 222.445 118.980 222.400 118.925 222.400 H 116.025 C 115.925 222.400 116.025 222.500 116.025 222.400 V 218.090 C 116.025 217.990 115.925 218.090 116.025 218.090 H 118.925 C 118.980 218.090 119.025 218.045 119.025 217.990 V 213.500 C 119.025 213.445 118.980 213.400 118.925 213.400 H 18.925 C 18.870 213.400 18.825 213.445 18.825 213.500 V 217.990 C 18.825 218.045 18.870 218.090 18.925 218.090 H 21.825 C 21.925 218.090 21.825 217.990 21.825 218.090 V 222.400 C 21.825 222.500 21.925 222.400 21.825 222.400 H 18.925 C 18.870 222.400 18.825 222.445 18.825 222.500 V 224.850 C 18.825 224.905 18.870 224.950 18.925 224.950 H 21.825 C 21.925 224.950 21.825 224.850 21.825 224.950 V 230.750 C 21.825 230.850 21.925 230.750 21.825 230.750 H 18.925 C 18.870 230.750 18.825 230.795 18.825 230.850 V 233.200 V 236.200 C 18.825 236.255 18.870 236.300 18.925 236.300 H 21.925 Z" stroke="rgb(0,0,0)" stroke-width="0.20" />
</g>
<g id="p-9" style="fill:none;stroke-linecap:round;stroke-linejoin:round;">
  <path d="M 21.925 208.900 H 29.825 C 29.925 208.900 29.825 208.800 29.825 208.900 V 211.800 C 29.825 211.855 29.870 211.900 29.925 211.900 H 35.925 C 35.980 211.900 36.025 211.855 36.025 211.800 V 208.900 C 36.025 208.800 35.925 208.900 36.025 208.900 H 41.825 C 41.925 208.900 41.825 208.800 41.825 208.900 V 211.800 C 41.825 211.855 41.870 211.900 41.925 211.900 H 47.925 C 47.980 211.900 48.025 211.855 48.025 211.800 V 208.900 C 48.025 208.800 47.925 208.900 48.025 208.900 H 53.825 C 53.925 208.900 53.825 208.800 53.825 208.900 V 211.800 C 53.825 211.855 53.870 211.900 53.925 211.900 H 59.925 C 59.980 211.900 60.025 211.855 60.025 211.800 V 208.900 C 60.025 208.800 59.925 208.900 60.025 208.900 H 65.825 C 65.925 208.900 65.825 208.800 65.825 208.900 V 211.800 C 65.825 211.855 65.870 211.900 65.925 211.900 H 71.925 C 71.980 211.900 72.025 211.855 72.025 211.800 V 208.900 C 72.025 208.800 71.925 208.900 72.025 208.900 H 77.825 C 77.925 208.900 77.825 208.800 77.825 208.900 V 211.800 C 77.825 211.855 77.870 211.900 77.925 211.900 H 83.925 C 83.980 211.900 84.025 211.855 84.025 211.800 V 208.900 C 84.025 208.800 83.925 208.900 84.025 208.900 H 89.825 C 89.925 208.900 89.825 208.800 89.825 208.900 V 211.800 C 89.825 211.855 89.870 211.900 89.925 211.900 H 95.925 C 95.980 211.900 96.025 211.855 96.025 211.800 V 208.900 C 96.025 208.800 95.925 208.900 96.025 208.900 H 101.825 C 101.925 208.900 101.825 208.800 101.825 208.900 V 211.800 C 101.825 211.855 101.870 211.900 101.925 211.900 H 107.925 C 107.980 211.900 108.025 211.855 108.025 211.800 V 208.900 C 108.025 208.800 107.925 208.900 108.025 208.900 H 115.925 C 115.980 208.900 116.025 208.855 116.025 208.800 V 200.900 C 116.025 200.800 115.925 200.900 116.025 200.900 H 118.925 C 118.980 200.900 119.025 200.855 119.025 200.800 V 194.800 C 119.025 194.745 118.980 194.700 118.925 194.700 H 116.025 C 115.925 194.700 116.025 194.800 116.025 194.700 V 188.900 C 116.025 188.800 115.925 188.900 116.025 188.900 H 118.925 C 118.980 188.900 119.025 188.855 119.025 188.800 V 182.800 C 119.025 182.745 118.980 182.700 118.925 182.700 H 116.025 C 115.925 182.700 116.025 182.800 116.025 182.700 V 176.900 C 116.025 176.800 115.925 176.900 116.025 176.900 H 118.925 C 118.980 176.900 119.025 176.855 119.025 176.800 V 170.800 C 119.025 170.745 118.980 170.700 118.925 170.700 H 116.025 C 115.925 170.700 116.025 170.800 116.025 170.700 V 164.900 C 116.025 164.800 115.925 164.900 116.025 164.900 H 118.925 C 118.980 164.900 119.025 164.855 119.025 164.800 V 158.800 C 119.025 158.745 118.980 158.700 118.925 158.700 H 116.025 C 115.925 158.700 116.025 158.800 116.025 158.700 V 152.900 C 116.025 152.800 115.925 152.900 116.025 152.900 H 118.925 C 118.980 152.900 119.025 152.855 119.025 152.800 V 146.800 C 119.025 146.745 118.980 146.700 118.925 146.700 H 116.025 C 115.925 146.700 116.025 146.800 116.025 146.700 V 140.900 C 116.025 140.800 115.925 140.900 116.025 140.900 H 118.925 C 118.980 140.900 119.025 140.855 119.025 140.800 V 134.800 C 119.025 134.745 118.980 134.700 118.925 134.700 H 116.025 C 115.925 134.700 116.025 134.800 116.025 134.700 V 128.900 C 116.025 128.800 115.925 128.900 116.025 128.900 H 118.925 C 118.980 128.900 119.025 128.855 119.025 128.800 V 122.800 C 119.025 122.745 118.980 122.700 118.925 122.700 H 116.025 C 115.925 122.700 116.025 122.800 116.025 122.700 V 114.800 C 116.025 114.745 115.980 114.700 115.925 114.700 H 108.025 C 107.925 114.700 108.025 114.800 108.025 114.700 V 111.800 C 108.025 111.745 107.980 111.700 107.925 111.700 H 101.925 C 101.870 111.700 101.825 111.745 101.825 111.800 V 114.700 C 101.825 114.800 101.925 114.700 101.825 114.700 H 96.025 C 95.925 114.700 96.025 114.800 96.025 114.700 V 111.800 C 96.025 111.745 95.980 111.700 95.925 111.700 H 89.925 C 89.870 111.700 89.825 111.745 89.825 111.800 V 114.700 C 89.825 114.800 89.925 114.700 89.825 114.700 H 84.025 C 83.925 114.700 84.025 114.800 84.025 114.700 V 111.800 C 84.025 111.745 83.980 111.700 83.925 111.700 H 77.925 C 77.870 111.700 77.825 111.745 77.825 111.800 V 114.700 C 77.825 114.800 77.925 114.700 77.825 114.700 H 72.025 C 71.925 114.700 72.025 114.800 72.025 114.700 V 111.800 C 72.025 111.745 71.980 111.700 71.925 111.700 H 65.925 C 65.870 111.700 65.825 111.745 65.825 111.800 V 114.700 C 65.825 114.800 65.925 114.700 65.825 114.700 H 60.025 C 59.925 114.700 60.025 114.800 60.025 114.700 V 111.800 C 60.025 111.745 59.980 111.700 59.925 111.700 H 53.925 C 53.870 111.700 53.825 111.745 53.825 111.800 V 114.700 C 53.825 114.800 53.925 114.700 53.825 114.700 H 48.025 C 47.925 114.700 48.025 114.800 48.025 114.700 V 111.800 C 48.025 111.745 47.980 111.700 47.925 111.700 H 41.925 C 41.870 111.700 41.825 111.745 41.825 111.800 V 114.700 C 41.825 114.800 41.925 114.700 41.825 114.700 H 36.025 C 35.925 114.700 36.025 114.800 36.025 114.700 V 111.800 C 36.025 111.745 35.980 111.700 35.925 111.700 H 29.925 C 29.870 111.700 29.825 111.745 29.825 111.800 V 114.700 C 29.825 114.800 29.925 114.700 29.825 114.700 H 21.925 C 21.870 114.700 21.825 114.745 21.825 114.800 V 122.700 C 21.825 122.800 21.925 122.700 21.825 122.700 H 18.925 C 18.870 122.700 18.825 122.745 18.825 122.800 V 128.800 C 18.825 128.855 18.870 128.900 18.925 128.900 H 21.825 C 21.925 128.900 21.825 128.800 21.825 128.900 V 134.700 C 21.825 134.800 21.925 134.700 21.825 134.700 H 18.925 C 18.870 134.700 18.825 134.745 18.825 134.800 V 140.800 C 18.825 140.855 18.870 140.900 18.925 140.900 H 21.825 C 21.925 140.900 21.825 140.800 21.825 140.900 V 146.700 C 21.825 146.800 21.925 146.700 21.825 146.700 H 18.925 C 18.870 146.700 18.825 146.745 18.825 146.800 V 152.800 C 18.825 152.855 18.870 152.900 18.925 152.900 H 21.825 C 21.925 152.900 21.825 152.800 21.825 152.900 V 158.700 C 21.825 158.800 21.925 158.700 21.825 158.700 H 18.925 C 18.870 158.700 18.825 158.745 18.825 158.800 V 164.800 C 18.825 164.855 18.870 164.900 18.925 164.900 H 21.825 C 21.925 164.900 21.825 164.800 21.825 164.900 V 170.700 C 21.825 170.800 21.925 170.700 21.825 170.700 H 18.925 C 18.870 170.700 18.825 170.745 18.825 170.800 V 176.800 C 18.825 176.855 18.870 176.900 18.925 176.900 H 21.825 C 21.925 176.900 21.825 176.800 21.825 176.900 V 182.700 C 21.825 182.800 21.925 182.700 21.825 182.700 H 18.925 C 18.870 182.700 18.825 182.745 18.825 182.800 V 188.800 C 18.825 188.855 18.870 188.900 18.925 188.900 H 21.825 C 21.925 188.900 21.825 188.800 21.825 188.900 V 194.700 C 21.825 194.800 21.925 194.700 21.825 194.700 H 18.925 C 18.870 194.700 18.825 194.745 18.825 194.800 V 200.800 C 18.825 200.855 18.870 200.900 18.925 200.900 H 21.825 C 21.925 200.900 21.825 200.800 21.825 200.900 V 208.800 C 21.825 208.855 21.870 208.900 21.925 208.900 Z" stroke="rgb(0,0,0)" stroke-width="0.20" />
</g>
<g id="p-10" style="fill:none;stroke-linecap:round;stroke-linejoin:round;">
  <path d="M 21.925 107.200 H 29.825 C 29.925 107.200 29.825 107.100 29.825 107.200 V 110.100 C 29.825 110.155 29.870 110.200 29.925 110.200 H 35.925 C 35.980 110.200 36.025 110.155 36.025 110.100 V 107.200 C 36.025 107.100 35.925 107.200 36.025 107.200 H 41.825 C 41.925 107.200 41.825 107.100 41.825 107.200 V 110.100 C 41.825 110.155 41.870 110.200 41.925 110.200 H 47.925 C 47.980 110.200 48.025 110.155 48.025 110.100 V 107.200 C 48.025 107.100 47.925 107.200 48.025 107.200 H 53.825 C 53.925 107.200 53.825 107.100 53.825 107.200 V 110.100 C 53.825 110.155 53.870 110.200 53.925 110.200 H 59.925 C 59.980 110.200 60.025 110.155 60.025 110.100 V 107.200 C 60.025 107.100 59.925 107.200 60.025 107.200 H 65.825 C 65.925 107.200 65.825 107.100 65.825 107.200 V 110.100 C 65.825 110.155 65.870 110.200 65.925 110.200 H 71.925 C 71.980 110.200 72.025 110.155 72.025 110.100 V 107.200 C 72.025 107.100 71.925 107.200 72.025 107.200 H 77.825 C 77.925 107.200 77.825 107.100 77.825 107.200 V 110.100 C 77.825 110.155 77.870 110.200 77.925 110.200 H 83.925 C 83.980 110.200 84.025 110.155 84.025 110.100 V 107.200 C 84.025 107.100 83.925 107.200 84.025 107.200 H 89.825 C 89.925 107.200 89.825 107.100 89.825 107.200 V 110.100 C 89.825 110.155 89.870 110.200 89.925 110.200 H 95.925 C 95.980 110.200 96.025 110.155 96.025 110.100 V 107.200 C 96.025 107.100 95.925 107.200 96.025 107.200 H 101.825 C 101.925 107.200 101.825 107.100 101.825 107.200 V 110.100 C 101.825 110.155 101.870 110.200 101.925 110.200 H 107.925 C 107.980 110.200 108.025 110.155 108.025 110.100 V 107.200 C 108.025 107.100 107.925 107.200 108.025 107.200 H 115.925 C 115.980 107.200 116.025 107.155 116.025 107.100 V 99.200 C 116.025 99.100 115.925 99.200 116.025 99.200 H 118.925 C 118.980 99.200 119.025 99.155 119.025 99.100 V 93.100 C 119.025 93.045 118.980 93.000 118.925 93.000 H 116.025 C 115.925 93.000 116.025 93.100 116.025 93.000 V 87.200 C 116.025 87.100 115.925 87.200 116.025 87.200 H 118.925 C 118.980 87.200 119.025 87.155 119.025 87.100 V 81.100 C 119.025 81.045 118.980 81.000 118.925 81.000 H 116.025 C 115.925 81.000 116.025 81.100 116.025 81.000 V 75.200 C 116.025 75.100 115.925 75.200 116.025 75.200 H 118.925 C 118.980 75.200 119.025 75.155 119.025 75.100 V 69.100 C 119.025 69.045 118.980 69.000 118.925 69.000 H 116.025 C 115.925 69.000 116.025 69.100 116.025 69.000 V 63.200 C 116.025 63.100 115.925 63.200 116.025 63.200 H 118.925 C 118.980 63.200 119.025 63.155 119.025 63.100 V 57.100 C 119.025 57.045 118.980 57.000 118.925 57.000 H 116.025 C 115.925 57.000 116.025 57.100 116.025 57.000 V 51.200 C 116.025 51.100 115.925 51.200 116.025 51.200 H 118.925 C 118.980 51.200 119.025 51.155 119.025 51.100 V 45.100 C 119.025 45.045 118.980 45.000 118.925 45.000 H 116.025 C 115.925 45.000 116.025 45.100 116.025 45.000 V 39.200 C 116.025 39.100 115.925 39.200 116.025 39.200 H 118.925 C 118.980 39.200 119.025 39.155 119.025 39.100 V 33.100 C 119.025 33.045 118.980 33.000 118.925 33.000 H 116.025 C 115.925 33.000 116.025 33.100 116.025 33.000 V 27.200 C 116.025 27.100 115.925 27.200 116.025 27.200 H 118.925 C 118.980 27.200 119.025 27.155 119.025 27.100 V 21.100 C 119.025 21.045 118.980 21.000 118.925 21.000 H 116.025 C 115.925 21.000 116.025 21.100 116.025 21.000 V 13.100 C 116.025 13.045 115.980 13.000 115.925 13.000 H 108.025 C 107.925 13.000 108.025 13.100 108.025 13.000 V 10.100 C 108.025 10.045 107.980 10.000 107.925 10.000 H 101.925 C 101.870 10.000 101.825 10.045 101.825 10.100 V 13.000 C 101.825 13.100 101.925 13.000 101.825 13.000 H 96.025 C 95.925 13.000 96.025 13.100 96.025 13.000 V 10.100 C 96.025 10.045 95.980 10.000 95.925 10.000 H 89.925 C 89.870 10.000 89.825 10.045 89.825 10.100 V 13.000 C 89.825 13.100 89.925 13.000 89.825 13.000 H 84.025 C 83.925 13.000 84.025 13.100 84.025 13.000 V 10.100 C 84.025 10.045 83.980 10.000 83.925 10.000 H 77.925 C 77.870 10.000 77.825 10.045 77.825 10.100 V 13.000 C 77.825 13.100 77.925 13.000 77.825 13.000 H 72.025 C 71.925 13.000 72.025 13.100 72.025 13.000 V 10.100 C 72.025 10.045 71.980 10.000 71.925 10.000 H 65.925 C 65.870 10.000 65.825 10.045 65.825 10.100 V 13.000 C 65.825 13.100 65.925 13.000 65.825 13.000 H 60.025 C 59.925 13.000 60.025 13.100 60.025 13.000 V 10.100 C 60.025 10.045 59.980 10.000 59.925 10.000 H 53.925 C 53.870 10.000 53.825 10.045 53.825 10.100 V 13.000 C 53.825 13.100 53.925 13.000 53.825 13.000 H 48.025 C 47.925 13.000 48.025 13.100 48.025 13.000 V 10.100 C 48.025 10.045 47.980 10.000 47.925 10.000 H 41.925 C 41.870 10.000 41.825 10.045 41.825 10.100 V 13.000 C 41.825 13.100 41.925 13.000 41.825 13.000 H 36.025 C 35.925 13.000 36.025 13.100 36.025 13.000 V 10.100 C 36.025 10.045 35.980 10.000 35.925 10.000 H 29.925 C 29.870 10.000 29.825 10.045 29.825 10.100 V 13.000 C 29.825 13.100 29.925 13.000 29.825 13.000 H 21.925 C 21.870 13.000 21.825 13.045 21.825 13.100 V 21.000 C 21.825 21.100 21.925 21.000 21.825 21.000 H 18.925 C 18.870 21.000 18.825 21.045 18.825 21.100 V 27.100 C 18.825 27.155 18.870 27.200 18.925 27.200 H 21.825 C 21.925 27.200 21.825 27.100 21.825 27.200 V 33.000 C 21.825 33.100 21.925 33.000 21.825 33.000 H 18.925 C 18.870 33.000 18.825 33.045 18.825 33.100 V 39.100 C 18.825 39.155 18.870 39.200 18.925 39.200 H 21.825 C 21.925 39.200 21.825 39.100 21.825 39.200 V 45.000 C 21.825 45.100 21.925 45.000 21.825 45.000 H 18.925 C 18.870 45.000 18.825 45.045 18.825 45.100 V 51.100 C 18.825 51.155 18.870 51.200 18.925 51.200 H 21.825 C 21.925 51.200 21.825 51.100 21.825 51.200 V 57.000 C 21.825 57.100 21.925 57.000 21.825 57.000 H 18.925 C 18.870 57.000 18.825 57.045 18.825 57.100 V 63.100 C 18.825 63.155 18.870 63.200 18.925 63.200 H 21.825 C 21.925 63.200 21.825 63.100 21.825 63.200 V 69.000 C 21.825 69.100 21.925 69.000 21.825 69.000 H 18.925 C 18.870 69.000 18.825 69.045 18.825 69.100 V 75.100 C 18.825 75.155 18.870 75.200 18.925 75.200 H 21.825 C 21.925 75.200 21.825 75.100 21.825 75.200 V 81.000 C 21.825 81.100 21.925 81.000 21.825 81.000 H 18.925 C 18.870 81.000 18.825 81.045 18.825 81.100 V 87.100 C 18.825 87.155 18.870 87.200 18.925 87.200 H 21.825 C 21.925 87.200 21.825 87.100 21.825 87.200 V 93.000 C 21.825 93.100 21.925 93.000 21.825 93.000 H 18.925 C 18.870 93.000 18.825 93.045 18.825 93.100 V 99.100 C 18.825 99.155 18.870 99.200 18.925 99.200 H 21.825 C 21.925 99.200 21.825 99.100 21.825 99.200 V 107.100 C 21.825 107.155 21.870 107.200 21.925 107.200 Z" stroke="rgb(0,0,0)" stroke-width="0.20" />
</g>
</svg>