<?xml version='1.0' encoding='utf-8'?>
<svg height="137.72mm" viewBox="0.0 0.0 137.60 137.72" width="137.60mm" xmlns="http://www.w3.org/2000/svg" xmlns:cc="http://creativecommons.org/ns#" xmlns:dc="http://purl.org/dc/elements/1.1/" xmlns:inkscape="http://www.inkscape.org/namespaces/inkscape" xmlns:rdf="http://www.w3.org/1999/02/22-rdf-syntax-ns#" xmlns:svg="http://www.w3.org/2000/svg" xmlns:xlink="http://www.w3.org/1999/xlink">
<!--
JigsawPuzzle - Fractal jigsaw puzzle. Still alpha.

Created with Boxes.py (https://festi.info/boxes.py)
Command line (remove spaces between dashes): boxes JigsawPuzzle
-->
<title>JigsawPuzzle</title>
<metadata>
<rdf:RDF><cc:Work>
<dc:title>Misc - JigsawPuzzle</dc:title>
<dc:source>boxes JigsawPuzzle</dc:source>
<dc:description>Fractal jigsaw puzzle. Still alpha.

Created with Boxes.py (https://festi.info/boxes.py)
Command line: boxes JigsawPuzzle
Command line short: boxes JigsawPuzzle
</dc:description>
</cc:Work></rdf:RDF></metadata>
<g id="p-0" style="fill:none;stroke-linecap:round;stroke-linejoin:round;">
  <path d="M 18.800 127.725 H 118.800 V 117.725 H 18.800 V 127.725 Z" stroke="rgb(0,0,0)" stroke-width="0.20" />
  <text dominant-baseline="hanging" font-size="8px" style="font-family: sans-serif ; font-weight: normal; font-style: normal; fill: rgb(255,0,0)" text-anchor="middle" transform="matrix( 1.000 0.000 0.000 1.000 68.800 118.725 )">100.00mm, burn:0.10mm</text>
</g>
<g id="p-1" style="fill:none;stroke-linecap:round;stroke-linejoin:round;">
  <path d="M 27.950 106.875 V 103.750 H 31.075 V 106.875 H 34.200 H 37.325 V 103.750 H 34.200 V 100.625 H 37.325 V 97.500 H 34.200 H 31.075 V 100.625 H 27.950 V 97.500 V 94.375 H 31.075 V 91.250 H 27.950 V 88.125 V 85.000 H 31.075 V 88.125 H 34.200 V 85.000 H 37.325 V 88.125 V 91.250 H 34.200 V 94.375 H 37.325 H 40.450 H 43.575 V 91.250 H 40.450 V 88.125 V 85.000 H 43.575 V 88.125 H 46.700 V 85.000 H 49.825 V 88.125 V 91.250 H 46.700 V 94.375 H 49.825 V 97.500 V 100.625 H 46.700 V 97.500 H 43.575 H 40.450 V 100.625 H 43.575 V 103.750 H 40.450 V 106.875 H 43.575 H 46.700 V 103.750 H 49.825 V 106.875 H 52.950 H 56.075 V 103.750 H 52.950 V 100.625 V 97.500 H 56.075 V 100.625 H 59.200 V 97.500 H 62.325 V 100.625 V 103.750 H 59.200 V 106.875 H 62.325 H 65.450 V 103.750 H 68.575 V 106.875 H 71.700 H 74.825 V 103.750 H 71.700 V 100.625 H 74.825 V 97.500 H 71.700 H 68.575 V 100.625 H 65.450 V 97.500 V 94.375 V 91.250 H 68.575 V 94.375 H 71.700 H 74.825 V 91.250 H 71.700 V 88.125 H 74.825 V 85.000 H 71.700 H 68.575 V 88.125 H 65.450 V 85.000 H 62.325 H 59.200 V 88.125 H 62.325 V 91.250 V 94.375 H 59.200 V 91.250 H 56.075 V 94.375 H 52.950 V 91.250 V 88.125 H 56.075 V 85.000 H 52.950 V 81.875 H 56.075 V 78.750 H 52.950 V 75.625 V 72.500 H 56.075 V 75.625 H 59.200 V 72.500 H 62.325 V 75.625 V 78.750 H 59.200 V 81.875 H 62.325 H 65.450 V 78.750 H 68.575 V 81.875 H 71.700 H 74.825 V 78.750 H 71.700 V 75.625 H 74.825 V 72.500 H 71.700 H 68.575 V 75.625 H 65.450 V 72.500 V 69.375 V 66.250 H 68.575 V 69.375 H 71.700 H 74.825 V 66.250 H 71.700 V 63.125 H 74.825 V 60.000 H 71.700 H 68.575 V 63.125 H 65.450 V 60.000 H 62.325 H 59.200 V 63.125 H 62.325 V 66.250 V 69.375 H 59.200 V 66.250 H 56.075 V 69.375 H 52.950 V 66.250 V 63.125 H 56.075 V 60.000 H 52.950 H 49.825 V 63.125 H 46.700 V 60.000 H 43.575 H 40.450 V 63.125 H 43.575 V 66.250 H 40.450 V 69.375 H 43.575 H 46.700 V 66.250 H 49.825 V 69.375 V 72.500 H 46.700 V 75.625 H 49.825 V 78.750 V 81.875 H 46.700 V 78.750 H 43.575 V 81.875 H 40.450 V 78.750 V 75.625 H 43.575 V 72.500 H 40.450 H 37.325 H 34.200 V 75.625 H 37.325 V 78.750 V 81.875 H 34.200 V 78.750 H 31.075 V 81.875 H 27.950 V 78.750 V 75.625 H 31.075 V 72.500 H 27.950 V 69.375 V 66.250 H 31.075 V 69.375 H 34.200 H 37.325 V 66.250 H 34.200 V 63.125 H 37.325 V 60.000 H 34.200 H 31.075 V 63.125 H 27.950 V 60.000 V 56.875 H 31.075 V 53.750 H 27.950 V 50.625 V 47.500 H 31.075 V 50.625 H 34.200 V 47.500 H 37.325 V 50.625 V 53.750 H 34.200 V 56.875 H 37.325 H 40.450 V 53.750 H 43.575 V 56.875 H 46.700 H 49.825 V 53.750 H 46.700 V 50.625 H 49.825 V 47.500 H 46.700 H 43.575 V 50.625 H 40.450 V 47.500 V 44.375 V 41.250 H 43.575 V 44.375 H 46.700 H 49.825 V 41.250 H 46.700 V 38.125 H 49.825 V 35.000 H 46.700 H 43.575 V 38.125 H 40.450 V 35.000 H 37.325 H 34.200 V 38.125 H 37.325 V 41.250 V 44.375 H 34.200 V 41.250 H 31.075 V 44.375 H 27.950 V 41.250 V 38.125 H 31.075 V 35.000 H 27.950 V 31.875 V 28.750 H 31.075 V 31.875 H 34.200 H 37.325 V 28.750 H 34.200 V 25.625 H 37.325 V 22.500 H 34.200 H 31.075 V 25.625 H 27.950 V 22.500 V 19.375 H 31.075 V 16.250 H 27.950 V 13.125 V 10.000 H 31.075 V 13.125 H 34.200 V 10.000 H 37.325 V 13.125 V 16.250 H 34.200 V 19.375 H 37.325 H 40.450 H 43.575 V 16.250 H 40.450 V 13.125 V 10.000 H 43.575 V 13.125 H 46.700 V 10.000 H 49.825 V 13.125 V 16.250 H 46.700 V 19.375 H 49.825 V 22.500 V 25.625 H 46.700 V 22.500 H 43.575 H 40.450 V 25.625 H 43.575 V 28.750 H 40.450 V 31.875 H 43.575 H 46.700 V 28.750 H 49.825 V 31.875 H 52.950 V 28.750 H 56.075 V 31.875 H 59.200 H 62.325 V 28.750 H 59.200 V 25.625 H 62.325 V 22.500 H 59.200 H 56.075 V 25.625 H 52.950 V 22.500 V 19.375 H 56.075 V 16.250 H 52.950 V 13.125 V 10.000 H 56.075 V 13.125 H 59.200 V 10.000 H 62.325 V 13.125 V 16.250 H 59.200 V 19.375 H 62.325 H 65.450 H 68.575 V 16.250 H 65.450 V 13.125 V 10.000 H 68.575 V 13.125 H 71.700 V 10.000 H 74.825 V 13.125 V 16.250 H 71.700 V 19.375 H 74.825 V 22.500 V 25.625 H 71.700 V 22.500 H 68.575 H 65.450 V 25.625 H 68.575 V 28.750 H 65.450 V 31.875 H 68.575 H 71.700 V 28.750 H 74.825 V 31.875 V 35.000 H 71.700 V 38.125 H 74.825 V 41.250 V 44.375 H 71.700 V 41.250 H 68.575 V 44.375 H 65.450 V 41.250 V 38.125 H 68.575 V 35.000 H 65.450 H 62.325 V 38.125 H 59.200 V 35.000 H 56.075 H 52.950 V 38.125 H 56.075 V 41.250 H 52.950 V 44.375 H 56.075 H 59.200 V 41.250 H 62.325 V 44.375 V 47.500 V 50.625 H 59.200 V 47.500 H 56.075 H 52.950 V 50.625 H 56.075 V 53.750 H 52.950 V 56.875 H 56.075 H 59.200 V 53.750 H 62.325 V 56.875 H 65.450 H 68.575 V 53.750 H 65.450 V 50.625 V 47.500 H 68.575 V 50.625 H 71.700 V 47.500 H 74.825 V 50.625 V 53.750 H 71.700 V 56.875 H 74.825 H 77.950 H 81.075 V 53.750 H 77.950 V 50.625 V 47.500 H 81.075 V 50.625 H 84.200 V 47.500 H 87.325 V 50.625 V 53.750 H 84.200 V 56.875 H 87.325 H 90.450 V 53.750 H 93.575 V 56.875 H 96.700 H 99.825 V 53.750 H 96.700 V 50.625 H 99.825 V 47.500 H 96.700 H 93.575 V 50.625 H 90.450 V 47.500 V 44.375 V 41.250 H 93.575 V 44.375 H 96.700 H 99.825 V 41.250 H 96.700 V 38.125 H 99.825 V 35.000 H 96.700 H 93.575 V 38.125 H 90.450 V 35.000 H 87.325 H 84.200 V 38.125 H 87.325 V 41.250 V 44.375 H 84.200 V 41.250 H 81.075 V 44.375 H 77.950 V 41.250 V 38.125 H 81.075 V 35.000 H 77.950 V 31.875 V 28.750 H 81.075 V 31.875 H 84.200 H 87.325 V 28.750 H 84.200 V 25.625 H 87.325 V 22.500 H 84.200 H 81.075 V 25.625 H 77.950 V 22.500 V 19.375 H 81.075 V 16.250 H 77.950 V 13.125 V 10.000 H 81.075 V 13.125 H 84.200 V 10.000 H 87.325 V 13.125 V 16.250 H 84.200 V 19.375 H 87.325 H 90.450 H 93.575 V 16.250 H 90.450 V 13.125 V 10.000 H 93.575 V 13.125 H 96.700 V 10.000 H 99.825 V 13.125 V 16.250 H 96.700 V 19.375 H 99.825 V 22.500 V 25.625 H 96.700 V 22.500 H 93.575 H 90.450 V 25.625 H 93.575 V 28.750 H 90.450 V 31.875 H 93.575 H 96.700 V 28.750 H 99.825 V 31.875 H 102.950 V 28.750 H 106.075 V 31.875 H 109.200 H 112.325 V 28.750 H 109.200 V 25.625 H 112.325 V 22.500 H 109.200 H 106.075 V 25.625 H 102.950 V 22.500 V 19.375 H 106.075 V 16.250 H 102.950 V 13.125 V 10.000 H 106.075 V 13.125 H 109.200 V 10.000 H 112.325 V 13.125 V 16.250 H 109.200 V 19.375 H 112.325 H 115.450 H 118.575 V 16.250 H 115.450 V 13.125 V 10.000 H 118.575 V 13.125 H 121.700 V 10.000 H 124.825 V 13.125 V 16.250 H 121.700 V 19.375 H 124.825 V 22.500 V 25.625 H 121.700 V 22.500 H 118.575 H 115.450 V 25.625 H 118.575 V 28.750 H 115.450 V 31.875 H 118.575 H 121.700 V 28.750 H 124.825 V 31.875 V 35.000 H 121.700 V 38.125 H 124.825 V 41.250 V 44.375 H 121.700 V 41.250 H 118.575 V 44.375 H 115.450 V 41.250 V 38.125 H 118.575 V 35.000 H 115.450 H 112.325 V 38.125 H 109.200 V 35.000 H 106.075 H 102.950 V 38.125 H 106.075 V 41.250 H 102.950 V 44.375 H 106.075 H 109.200 V 41.250 H 112.325 V 44.375 V 47.500 V 50.625 H 109.200 V 47.500 H 106.075 H 102.950 V 50.625 H 106.075 V 53.750 H 102.950 V 56.875 H 106.075 H 109.200 V 53.750 H 112.325 V 56.875 H 115.450 H 118.575 V 53.750 H 115.450 V 50.625 V 47.500 H 118.575 V 50.625 H 121.700 V 47.500 H 124.825 V 50.625 V 53.750 H 121.700 V 56.875 H 124.825 V 60.000 V 63.125 H 121.700 V 60.000 H 118.575 H 115.450 V 63.125 H 118.575 V 66.250 H 115.450 V 69.375 H 118.575 H 121.700 V 66.250 H 124.825 V 69.375 V 72.500 H 121.700 V 75.625 H 124.825 V 78.750 V 81.875 H 121.700 V 78.750 H 118.575 V 81.875 H 115.450 V 78.750 V 75.625 H 118.575 V 72.500 H 115.450 H 112.325 H 109.200 V 75.625 H 112.325 V 78.750 V 81.875 H 109.200 V 78.750 H 106.075 V 81.875 H 102.950 V 78.750 V 75.625 H 106.075 V 72.500 H 102.950 V 69.375 V 66.250 H 106.075 V 69.375 H 109.200 H 112.325 V 66.250 H 109.200 V 63.125 H 112.325 V 60.000 H 109.200 H 106.075 V 63.125 H 102.950 V 60.000 H 99.825 H 96.700 V 63.125 H 99.825 V 66.250 V 69.375 H 96.700 V 66.250 H 93.575 V 69.375 H 90.450 V 66.250 V 63.125 H 93.575 V 60.000 H 90.450 H 87.325 V 63.125 H 84.200 V 60.000 H 81.075 H 77.950 V 63.125 H 81.075 V 66.250 H 77.950 V 69.375 H 81.075 H 84.200 V 66.250 H 87.325 V 69.375 V 72.500 V 75.625 H 84.200 V 72.500 H 81.075 H 77.950 V 75.625 H 81.075 V 78.750 H 77.950 V 81.875 H 81.075 H 84.200 V 78.750 H 87.325 V 81.875 H 90.450 H 93.575 V 78.750 H 90.450 V 75.625 V 72.500 H 93.575 V 75.625 H 96.700 V 72.500 H 99.825 V 75.625 V 78.750 H 96.700 V 81.875 H 99.825 V 85.000 H 96.700 V 88.125 H 99.825 V 91.250 V 94.375 H 96.700 V 91.250 H 93.575 V 94.375 H 90.450 V 91.250 V 88.125 H 93.575 V 85.000 H 90.450 H 87.325 V 88.125 H 84.200 V 85.000 H 81.075 H 77.950 V 88.125 H 81.075 V 91.250 H 77.950 V 94.375 H 81.075 H 84.200 V 91.250 H 87.325 V 94.375 V 97.500 V 100.625 H 84.200 V 97.500 H 81.075 H 77.950 V 100.625 H 81.075 V 103.750 H 77.950 V 106.875 H 81.075 H 84.200 V 103.750 H 87.325 V 106.875 H 90.450 H 93.575 V 103.750 H 90.450 V 100.625 V 97.500 H 93.575 V 100.625 H 96.700 V 97.500 H 99.825 V 100.625 V 103.750 H 96.700 V 106.875 H 99.825 H 102.950 V 103.750 H 106.075 V 106.875 H 109.200 H 112.325 V 103.750 H 109.200 V 100.625 H 112.325 V 97.500 H 109.200 H 106.075 V 100.625 H 102.950 V 97.500 V 94.375 H 106.075 V 91.250 H 102.950 V 88.125 V 85.000 H 106.075 V 88.125 H 109.200 V 85.000 H 112.325 V 88.125 V 91.250 H 109.200 V 94.375 H 112.325 H 115.450 H 118.575 V 91.250 H 115.450 V 88.125 V 85.000 H 118.575 V 88.125 H 121.700 V 85.000 H 124.825 V 88.125 V 91.250 H 121.700 V 94.375 H 124.825 V 97.500 V 100.625 H 121.700 V 97.500 H 118.575 H 115.450 V 100.625 H 118.575 V 103.750 H 115.450 V 106.875 H 118.575 H 121.700 V 103.750 H 124.825 V 106.875" stroke="rgb(0,0,0)" stroke-width="0.20" />
</g>
</svg>