<?xml version='1.0' encoding='utf-8'?>
<svg height="113.60mm" viewBox="0.0 0.0 184.40 113.60" width="184.40mm" xmlns="http://www.w3.org/2000/svg" xmlns:cc="http://creativecommons.org/ns#" xmlns:dc="http://purl.org/dc/elements/1.1/" xmlns:inkscape="http://www.inkscape.org/namespaces/inkscape" xmlns:rdf="http://www.w3.org/1999/02/22-rdf-syntax-ns#" xmlns:svg="http://www.w3.org/2000/svg" xmlns:xlink="http://www.w3.org/1999/xlink">
<!--
KeyHolder - Wall organizer with hooks for keys or similar small items


Example for a KeyHolder with a slightly larger backplate and 8 hooks. This uses 6mm plywood for extra stability.

Closeup:

![KeyHolder-2](static/samples/KeyHolder-2.jpg)

Full picture:



Created with Boxes.py (https://boxes.hackerspace-bamberg.de/)
Command line (remove spaces between dashes): boxes KeyHolder
-->
<title>KeyHolder</title>
<metadata>
<rdf:RDF><cc:Work>
<dc:title>WallMounted - KeyHolder</dc:title>
<dc:source>boxes KeyHolder</dc:source>
<dc:description>Wall organizer with hooks for keys or similar small items

Example for a KeyHolder with a slightly larger backplate and 8 hooks. This uses 6mm plywood for extra stability.

Closeup:

![KeyHolder-2](static/samples/KeyHolder-2.jpg)

Full picture:


Created with Boxes.py (https://boxes.hackerspace-bamberg.de/)
Command line: boxes KeyHolder
Command line short: boxes KeyHolder
</dc:description>
</cc:Work></rdf:RDF></metadata>
<g id="p-0" style="fill:none;stroke-linecap:round;stroke-linejoin:round;">
  <path d="M 10.100 103.600 H 110.100 V 93.600 H 10.100 V 103.600 Z" stroke="rgb(0,0,0)" stroke-width="0.20" />
  <text dominant-baseline="hanging" font-size="6px" style="font-family: sans-serif ; font-weight: normal; font-style: normal; fill: rgb(255,0,0)" text-anchor="middle" transform="matrix( 1.000 0.000 0.000 1.000 60.100 95.600 )">100.0mm, burn:0.10mm</text>
</g>
<g id="p-1" style="fill:none;stroke-linecap:round;stroke-linejoin:round;">
  <path d="M 18.000 57.800 V 59.200 C 18.000 59.300 18.100 59.200 18.000 59.200 H 15.200 C 15.100 59.200 15.200 59.300 15.200 59.200 V 56.400 C 15.200 56.300 15.100 56.400 15.200 56.400 H 18.000 C 18.100 56.400 18.000 56.300 18.000 56.400 V 57.800 Z" stroke="rgb(0,0,255)" stroke-width="0.20" />
  <path d="M 18.000 51.800 V 53.200 C 18.000 53.300 18.100 53.200 18.000 53.200 H 15.200 C 15.100 53.200 15.200 53.300 15.200 53.200 V 50.400 C 15.200 50.300 15.100 50.400 15.200 50.400 H 18.000 C 18.100 50.400 18.000 50.300 18.000 50.400 V 51.800 Z" stroke="rgb(0,0,255)" stroke-width="0.20" />
  <path d="M 18.000 45.800 V 47.200 C 18.000 47.300 18.100 47.200 18.000 47.200 H 15.200 C 15.100 47.200 15.200 47.300 15.200 47.200 V 44.400 C 15.200 44.300 15.100 44.400 15.200 44.400 H 18.000 C 18.100 44.400 18.000 44.300 18.000 44.400 V 45.800 Z" stroke="rgb(0,0,255)" stroke-width="0.20" />
  <path d="M 41.000 57.800 V 59.200 C 41.000 59.300 41.100 59.200 41.000 59.200 H 38.200 C 38.100 59.200 38.200 59.300 38.200 59.200 V 56.400 C 38.200 56.300 38.100 56.400 38.200 56.400 H 41.000 C 41.100 56.400 41.000 56.300 41.000 56.400 V 57.800 Z" stroke="rgb(0,0,255)" stroke-width="0.20" />
  <path d="M 41.000 51.800 V 53.200 C 41.000 53.300 41.100 53.200 41.000 53.200 H 38.200 C 38.100 53.200 38.200 53.300 38.200 53.200 V 50.400 C 38.200 50.300 38.100 50.400 38.200 50.400 H 41.000 C 41.100 50.400 41.000 50.300 41.000 50.400 V 51.800 Z" stroke="rgb(0,0,255)" stroke-width="0.20" />
  <path d="M 41.000 45.800 V 47.200 C 41.000 47.300 41.100 47.200 41.000 47.200 H 38.200 C 38.100 47.200 38.200 47.300 38.200 47.200 V 44.400 C 38.200 44.300 38.100 44.400 38.200 44.400 H 41.000 C 41.100 44.400 41.000 44.300 41.000 44.400 V 45.800 Z" stroke="rgb(0,0,255)" stroke-width="0.20" />
  <path d="M 64.000 57.800 V 59.200 C 64.000 59.300 64.100 59.200 64.000 59.200 H 61.200 C 61.100 59.200 61.200 59.300 61.200 59.200 V 56.400 C 61.200 56.300 61.100 56.400 61.200 56.400 H 64.000 C 64.100 56.400 64.000 56.300 64.000 56.400 V 57.800 Z" stroke="rgb(0,0,255)" stroke-width="0.20" />
  <path d="M 64.000 51.800 V 53.200 C 64.000 53.300 64.100 53.200 64.000 53.200 H 61.200 C 61.100 53.200 61.200 53.300 61.200 53.200 V 50.400 C 61.200 50.300 61.100 50.400 61.200 50.400 H 64.000 C 64.100 50.400 64.000 50.300 64.000 50.400 V 51.800 Z" stroke="rgb(0,0,255)" stroke-width="0.20" />
  <path d="M 64.000 45.800 V 47.200 C 64.000 47.300 64.100 47.200 64.000 47.200 H 61.200 C 61.100 47.200 61.200 47.300 61.200 47.200 V 44.400 C 61.200 44.300 61.100 44.400 61.200 44.400 H 64.000 C 64.100 44.400 64.000 44.300 64.000 44.400 V 45.800 Z" stroke="rgb(0,0,255)" stroke-width="0.20" />
  <path d="M 87.000 57.800 V 59.200 C 87.000 59.300 87.100 59.200 87.000 59.200 H 84.200 C 84.100 59.200 84.200 59.300 84.200 59.200 V 56.400 C 84.200 56.300 84.100 56.400 84.200 56.400 H 87.000 C 87.100 56.400 87.000 56.300 87.000 56.400 V 57.800 Z" stroke="rgb(0,0,255)" stroke-width="0.20" />
  <path d="M 87.000 51.800 V 53.200 C 87.000 53.300 87.100 53.200 87.000 53.200 H 84.200 C 84.100 53.200 84.200 53.300 84.200 53.200 V 50.400 C 84.200 50.300 84.100 50.400 84.200 50.400 H 87.000 C 87.100 50.400 87.000 50.300 87.000 50.400 V 51.800 Z" stroke="rgb(0,0,255)" stroke-width="0.20" />
  <path d="M 87.000 45.800 V 47.200 C 87.000 47.300 87.100 47.200 87.000 47.200 H 84.200 C 84.100 47.200 84.200 47.300 84.200 47.200 V 44.400 C 84.200 44.300 84.100 44.400 84.200 44.400 H 87.000 C 87.100 44.400 87.000 44.300 87.000 44.400 V 45.800 Z" stroke="rgb(0,0,255)" stroke-width="0.20" />
  <path d="M 110.000 57.800 V 59.200 C 110.000 59.300 110.100 59.200 110.000 59.200 H 107.200 C 107.100 59.200 107.200 59.300 107.200 59.200 V 56.400 C 107.200 56.300 107.100 56.400 107.200 56.400 H 110.000 C 110.100 56.400 110.000 56.300 110.000 56.400 V 57.800 Z" stroke="rgb(0,0,255)" stroke-width="0.20" />
  <path d="M 110.000 51.800 V 53.200 C 110.000 53.300 110.100 53.200 110.000 53.200 H 107.200 C 107.100 53.200 107.200 53.300 107.200 53.200 V 50.400 C 107.200 50.300 107.100 50.400 107.200 50.400 H 110.000 C 110.100 50.400 110.000 50.300 110.000 50.400 V 51.800 Z" stroke="rgb(0,0,255)" stroke-width="0.20" />
  <path d="M 110.000 45.800 V 47.200 C 110.000 47.300 110.100 47.200 110.000 47.200 H 107.200 C 107.100 47.200 107.200 47.300 107.200 47.200 V 44.400 C 107.200 44.300 107.100 44.400 107.200 44.400 H 110.000 C 110.100 44.400 110.000 44.300 110.000 44.400 V 45.800 Z" stroke="rgb(0,0,255)" stroke-width="0.20" />
  <path d="M 133.000 57.800 V 59.200 C 133.000 59.300 133.100 59.200 133.000 59.200 H 130.200 C 130.100 59.200 130.200 59.300 130.200 59.200 V 56.400 C 130.200 56.300 130.100 56.400 130.200 56.400 H 133.000 C 133.100 56.400 133.000 56.300 133.000 56.400 V 57.800 Z" stroke="rgb(0,0,255)" stroke-width="0.20" />
  <path d="M 133.000 51.800 V 53.200 C 133.000 53.300 133.100 53.200 133.000 53.200 H 130.200 C 130.100 53.200 130.200 53.300 130.200 53.200 V 50.400 C 130.200 50.300 130.100 50.400 130.200 50.400 H 133.000 C 133.100 50.400 133.000 50.300 133.000 50.400 V 51.800 Z" stroke="rgb(0,0,255)" stroke-width="0.20" />
  <path d="M 133.000 45.800 V 47.200 C 133.000 47.300 133.100 47.200 133.000 47.200 H 130.200 C 130.100 47.200 130.200 47.300 130.200 47.200 V 44.400 C 130.200 44.300 130.100 44.400 130.200 44.400 H 133.000 C 133.100 44.400 133.000 44.300 133.000 44.400 V 45.800 Z" stroke="rgb(0,0,255)" stroke-width="0.20" />
  <path d="M 156.000 57.800 V 59.200 C 156.000 59.300 156.100 59.200 156.000 59.200 H 153.200 C 153.100 59.200 153.200 59.300 153.200 59.200 V 56.400 C 153.200 56.300 153.100 56.400 153.200 56.400 H 156.000 C 156.100 56.400 156.000 56.300 156.000 56.400 V 57.800 Z" stroke="rgb(0,0,255)" stroke-width="0.20" />
  <path d="M 156.000 51.800 V 53.200 C 156.000 53.300 156.100 53.200 156.000 53.200 H 153.200 C 153.100 53.200 153.200 53.300 153.200 53.200 V 50.400 C 153.200 50.300 153.100 50.400 153.200 50.400 H 156.000 C 156.100 50.400 156.000 50.300 156.000 50.400 V 51.800 Z" stroke="rgb(0,0,255)" stroke-width="0.20" />
  <path d="M 156.000 45.800 V 47.200 C 156.000 47.300 156.100 47.200 156.000 47.200 H 153.200 C 153.100 47.200 153.200 47.300 153.200 47.200 V 44.400 C 153.200 44.300 153.100 44.400 153.200 44.400 H 156.000 C 156.100 44.400 156.000 44.300 156.000 44.400 V 45.800 Z" stroke="rgb(0,0,255)" stroke-width="0.20" />
  <path d="M 10.100 91.900 H 161.100 C 161.155 91.900 161.200 91.855 161.200 91.800 V 31.800 C 161.200 31.745 161.155 31.700 161.100 31.700 H 10.100 C 10.045 31.700 10.000 31.745 10.000 31.800 V 91.800 C 10.000 91.855 10.045 91.900 10.100 91.900 Z" stroke="rgb(0,0,0)" stroke-width="0.20" />
</g>
<g id="p-2" style="fill:none;stroke-linecap:round;stroke-linejoin:round;">
  <path d="M 13.100 30.200 H 18.100 C 18.155 30.200 18.200 30.155 18.200 30.100 C 18.200 30.155 18.155 30.200 18.100 30.200 H 22.100 C 23.873 30.200 25.615 29.733 27.150 28.847 C 28.685 27.960 29.960 26.685 30.847 25.150 C 31.733 23.615 32.200 21.873 32.200 20.100 V 18.600 C 32.200 18.144 32.080 17.695 31.852 17.300 C 31.623 16.905 31.295 16.577 30.900 16.348 C 30.505 16.120 30.056 16.000 29.600 16.000 C 29.144 16.000 28.695 16.120 28.300 16.348 C 27.905 16.577 27.577 16.905 27.348 17.300 C 27.120 17.695 27.000 18.144 27.000 18.600 V 20.100 C 27.000 20.960 26.774 21.805 26.344 22.550 C 25.913 23.295 25.295 23.913 24.550 24.344 C 23.805 24.774 22.960 25.000 22.100 25.000 H 21.100 C 20.854 25.000 20.613 24.935 20.400 24.812 C 20.187 24.690 20.010 24.513 19.888 24.300 C 19.765 24.087 19.700 23.846 19.700 23.600 V 11.600 C 19.700 11.319 19.626 11.043 19.486 10.800 C 19.345 10.557 19.143 10.355 18.900 10.214 C 18.657 10.074 18.381 10.000 18.100 10.000 C 18.155 10.000 18.200 10.045 18.200 10.100 C 18.200 10.045 18.155 10.000 18.100 10.000 H 13.100 C 13.045 10.000 13.000 10.045 13.000 10.100 V 12.500 C 13.000 12.600 13.100 12.500 13.000 12.500 H 10.100 C 10.045 12.500 10.000 12.545 10.000 12.600 V 15.600 C 10.000 15.655 10.045 15.700 10.100 15.700 H 13.000 C 13.100 15.700 13.000 15.600 13.000 15.700 V 18.500 C 13.000 18.600 13.100 18.500 13.000 18.500 H 10.100 C 10.045 18.500 10.000 18.545 10.000 18.600 V 21.600 C 10.000 21.655 10.045 21.700 10.100 21.700 H 13.000 C 13.100 21.700 13.000 21.600 13.000 21.700 V 24.500 C 13.000 24.600 13.100 24.500 13.000 24.500 H 10.100 C 10.045 24.500 10.000 24.545 10.000 24.600 V 27.600 C 10.000 27.655 10.045 27.700 10.100 27.700 H 13.000 C 13.100 27.700 13.000 27.600 13.000 27.700 V 30.100 C 13.000 30.155 13.045 30.200 13.100 30.200 Z" stroke="rgb(0,0,0)" stroke-width="0.20" />
</g>
<g id="p-3" style="fill:none;stroke-linecap:round;stroke-linejoin:round;">
  <path d="M 36.800 30.200 H 41.800 C 41.855 30.200 41.900 30.155 41.900 30.100 C 41.900 30.155 41.855 30.200 41.800 30.200 H 45.800 C 47.573 30.200 49.315 29.733 50.850 28.847 C 52.385 27.960 53.660 26.685 54.547 25.150 C 55.433 23.615 55.900 21.873 55.900 20.100 V 18.600 C 55.900 18.144 55.780 17.695 55.552 17.300 C 55.323 16.905 54.995 16.577 54.600 16.348 C 54.205 16.120 53.756 16.000 53.300 16.000 C 52.844 16.000 52.395 16.120 52.000 16.348 C 51.605 16.577 51.277 16.905 51.048 17.300 C 50.820 17.695 50.700 18.144 50.700 18.600 V 20.100 C 50.700 20.960 50.474 21.805 50.044 22.550 C 49.613 23.295 48.995 23.913 48.250 24.344 C 47.505 24.774 46.660 25.000 45.800 25.000 H 44.800 C 44.554 25.000 44.313 24.935 44.100 24.812 C 43.887 24.690 43.710 24.513 43.588 24.300 C 43.465 24.087 43.400 23.846 43.400 23.600 V 11.600 C 43.400 11.319 43.326 11.043 43.186 10.800 C 43.045 10.557 42.843 10.355 42.600 10.214 C 42.357 10.074 42.081 10.000 41.800 10.000 C 41.855 10.000 41.900 10.045 41.900 10.100 C 41.900 10.045 41.855 10.000 41.800 10.000 H 36.800 C 36.745 10.000 36.700 10.045 36.700 10.100 V 12.500 C 36.700 12.600 36.800 12.500 36.700 12.500 H 33.800 C 33.745 12.500 33.700 12.545 33.700 12.600 V 15.600 C 33.700 15.655 33.745 15.700 33.800 15.700 H 36.700 C 36.800 15.700 36.700 15.600 36.700 15.700 V 18.500 C 36.700 18.600 36.800 18.500 36.700 18.500 H 33.800 C 33.745 18.500 33.700 18.545 33.700 18.600 V 21.600 C 33.700 21.655 33.745 21.700 33.800 21.700 H 36.700 C 36.800 21.700 36.700 21.600 36.700 21.700 V 24.500 C 36.700 24.600 36.800 24.500 36.700 24.500 H 33.800 C 33.745 24.500 33.700 24.545 33.700 24.600 V 27.600 C 33.700 27.655 33.745 27.700 33.800 27.700 H 36.700 C 36.800 27.700 36.700 27.600 36.700 27.700 V 30.100 C 36.700 30.155 36.745 30.200 36.800 30.200 Z" stroke="rgb(0,0,0)" stroke-width="0.20" />
</g>
<g id="p-4" style="fill:none;stroke-linecap:round;stroke-linejoin:round;">
  <path d="M 60.500 30.200 H 65.500 C 65.555 30.200 65.600 30.155 65.600 30.100 C 65.600 30.155 65.555 30.200 65.500 30.200 H 69.500 C 71.273 30.200 73.015 29.733 74.550 28.847 C 76.085 27.960 77.360 26.685 78.247 25.150 C 79.133 23.615 79.600 21.873 79.600 20.100 V 18.600 C 79.600 18.144 79.480 17.695 79.252 17.300 C 79.023 16.905 78.695 16.577 78.300 16.348 C 77.905 16.120 77.456 16.000 77.000 16.000 C 76.544 16.000 76.095 16.120 75.700 16.348 C 75.305 16.577 74.977 16.905 74.748 17.300 C 74.520 17.695 74.400 18.144 74.400 18.600 V 20.100 C 74.400 20.960 74.174 21.805 73.744 22.550 C 73.313 23.295 72.695 23.913 71.950 24.344 C 71.205 24.774 70.360 25.000 69.500 25.000 H 68.500 C 68.254 25.000 68.013 24.935 67.800 24.812 C 67.587 24.690 67.410 24.513 67.288 24.300 C 67.165 24.087 67.100 23.846 67.100 23.600 V 11.600 C 67.100 11.319 67.026 11.043 66.886 10.800 C 66.745 10.557 66.543 10.355 66.300 10.214 C 66.057 10.074 65.781 10.000 65.500 10.000 C 65.555 10.000 65.600 10.045 65.600 10.100 C 65.600 10.045 65.555 10.000 65.500 10.000 H 60.500 C 60.445 10.000 60.400 10.045 60.400 10.100 V 12.500 C 60.400 12.600 60.500 12.500 60.400 12.500 H 57.500 C 57.445 12.500 57.400 12.545 57.400 12.600 V 15.600 C 57.400 15.655 57.445 15.700 57.500 15.700 H 60.400 C 60.500 15.700 60.400 15.600 60.400 15.700 V 18.500 C 60.400 18.600 60.500 18.500 60.400 18.500 H 57.500 C 57.445 18.500 57.400 18.545 57.400 18.600 V 21.600 C 57.400 21.655 57.445 21.700 57.500 21.700 H 60.400 C 60.500 21.700 60.400 21.600 60.400 21.700 V 24.500 C 60.400 24.600 60.500 24.500 60.400 24.500 H 57.500 C 57.445 24.500 57.400 24.545 57.400 24.600 V 27.600 C 57.400 27.655 57.445 27.700 57.500 27.700 H 60.400 C 60.500 27.700 60.400 27.600 60.400 27.700 V 30.100 C 60.400 30.155 60.445 30.200 60.500 30.200 Z" stroke="rgb(0,0,0)" stroke-width="0.20" />
</g>
<g id="p-5" style="fill:none;stroke-linecap:round;stroke-linejoin:round;">
  <path d="M 84.200 30.200 H 89.200 C 89.255 30.200 89.300 30.155 89.300 30.100 C 89.300 30.155 89.255 30.200 89.200 30.200 H 93.200 C 94.973 30.200 96.715 29.733 98.250 28.847 C 99.785 27.960 101.060 26.685 101.947 25.150 C 102.833 23.615 103.300 21.873 103.300 20.100 V 18.600 C 103.300 18.144 103.180 17.695 102.952 17.300 C 102.723 16.905 102.395 16.577 102.000 16.348 C 101.605 16.120 101.156 16.000 100.700 16.000 C 100.244 16.000 99.795 16.120 99.400 16.348 C 99.005 16.577 98.677 16.905 98.448 17.300 C 98.220 17.695 98.100 18.144 98.100 18.600 V 20.100 C 98.100 20.960 97.874 21.805 97.444 22.550 C 97.013 23.295 96.395 23.913 95.650 24.344 C 94.905 24.774 94.060 25.000 93.200 25.000 H 92.200 C 91.954 25.000 91.713 24.935 91.500 24.812 C 91.287 24.690 91.110 24.513 90.988 24.300 C 90.865 24.087 90.800 23.846 90.800 23.600 V 11.600 C 90.800 11.319 90.726 11.043 90.586 10.800 C 90.445 10.557 90.243 10.355 90.000 10.214 C 89.757 10.074 89.481 10.000 89.200 10.000 C 89.255 10.000 89.300 10.045 89.300 10.100 C 89.300 10.045 89.255 10.000 89.200 10.000 H 84.200 C 84.145 10.000 84.100 10.045 84.100 10.100 V 12.500 C 84.100 12.600 84.200 12.500 84.100 12.500 H 81.200 C 81.145 12.500 81.100 12.545 81.100 12.600 V 15.600 C 81.100 15.655 81.145 15.700 81.200 15.700 H 84.100 C 84.200 15.700 84.100 15.600 84.100 15.700 V 18.500 C 84.100 18.600 84.200 18.500 84.100 18.500 H 81.200 C 81.145 18.500 81.100 18.545 81.100 18.600 V 21.600 C 81.100 21.655 81.145 21.700 81.200 21.700 H 84.100 C 84.200 21.700 84.100 21.600 84.100 21.700 V 24.500 C 84.100 24.600 84.200 24.500 84.100 24.500 H 81.200 C 81.145 24.500 81.100 24.545 81.100 24.600 V 27.600 C 81.100 27.655 81.145 27.700 81.200 27.700 H 84.100 C 84.200 27.700 84.100 27.600 84.100 27.700 V 30.100 C 84.100 30.155 84.145 30.200 84.200 30.200 Z" stroke="rgb(0,0,0)" stroke-width="0.20" />
</g>
<g id="p-6" style="fill:none;stroke-linecap:round;stroke-linejoin:round;">
  <path d="M 107.900 30.200 H 112.900 C 112.955 30.200 113.000 30.155 113.000 30.100 C 113.000 30.155 112.955 30.200 112.900 30.200 H 116.900 C 118.673 30.200 120.415 29.733 121.950 28.847 C 123.485 27.960 124.760 26.685 125.647 25.150 C 126.533 23.615 127.000 21.873 127.000 20.100 V 18.600 C 127.000 18.144 126.880 17.695 126.652 17.300 C 126.423 16.905 126.095 16.577 125.700 16.348 C 125.305 16.120 124.856 16.000 124.400 16.000 C 123.944 16.000 123.495 16.120 123.100 16.348 C 122.705 16.577 122.377 16.905 122.148 17.300 C 121.920 17.695 121.800 18.144 121.800 18.600 V 20.100 C 121.800 20.960 121.574 21.805 121.144 22.550 C 120.713 23.295 120.095 23.913 119.350 24.344 C 118.605 24.774 117.760 25.000 116.900 25.000 H 115.900 C 115.654 25.000 115.413 24.935 115.200 24.812 C 114.987 24.690 114.810 24.513 114.688 24.300 C 114.565 24.087 114.500 23.846 114.500 23.600 V 11.600 C 114.500 11.319 114.426 11.043 114.286 10.800 C 114.145 10.557 113.943 10.355 113.700 10.214 C 113.457 10.074 113.181 10.000 112.900 10.000 C 112.955 10.000 113.000 10.045 113.000 10.100 C 113.000 10.045 112.955 10.000 112.900 10.000 H 107.900 C 107.845 10.000 107.800 10.045 107.800 10.100 V 12.500 C 107.800 12.600 107.900 12.500 107.800 12.500 H 104.900 C 104.845 12.500 104.800 12.545 104.800 12.600 V 15.600 C 104.800 15.655 104.845 15.700 104.900 15.700 H 107.800 C 107.900 15.700 107.800 15.600 107.800 15.700 V 18.500 C 107.800 18.600 107.900 18.500 107.800 18.500 H 104.900 C 104.845 18.500 104.800 18.545 104.800 18.600 V 21.600 C 104.800 21.655 104.845 21.700 104.900 21.700 H 107.800 C 107.900 21.700 107.800 21.600 107.800 21.700 V 24.500 C 107.800 24.600 107.900 24.500 107.800 24.500 H 104.900 C 104.845 24.500 104.800 24.545 104.800 24.600 V 27.600 C 104.800 27.655 104.845 27.700 104.900 27.700 H 107.800 C 107.900 27.700 107.800 27.600 107.800 27.700 V 30.100 C 107.800 30.155 107.845 30.200 107.900 30.200 Z" stroke="rgb(0,0,0)" stroke-width="0.20" />
</g>
<g id="p-7" style="fill:none;stroke-linecap:round;stroke-linejoin:round;">
  <path d="M 131.600 30.200 H 136.600 C 136.655 30.200 136.700 30.155 136.700 30.100 C 136.700 30.155 136.655 30.200 136.600 30.200 H 140.600 C 142.373 30.200 144.115 29.733 145.650 28.847 C 147.185 27.960 148.460 26.685 149.347 25.150 C 150.233 23.615 150.700 21.873 150.700 20.100 V 18.600 C 150.700 18.144 150.580 17.695 150.352 17.300 C 150.123 16.905 149.795 16.577 149.400 16.348 C 149.005 16.120 148.556 16.000 148.100 16.000 C 147.644 16.000 147.195 16.120 146.800 16.348 C 146.405 16.577 146.077 16.905 145.848 17.300 C 145.620 17.695 145.500 18.144 145.500 18.600 V 20.100 C 145.500 20.960 145.274 21.805 144.844 22.550 C 144.413 23.295 143.795 23.913 143.050 24.344 C 142.305 24.774 141.460 25.000 140.600 25.000 H 139.600 C 139.354 25.000 139.113 24.935 138.900 24.812 C 138.687 24.690 138.510 24.513 138.388 24.300 C 138.265 24.087 138.200 23.846 138.200 23.600 V 11.600 C 138.200 11.319 138.126 11.043 137.986 10.800 C 137.845 10.557 137.643 10.355 137.400 10.214 C 137.157 10.074 136.881 10.000 136.600 10.000 C 136.655 10.000 136.700 10.045 136.700 10.100 C 136.700 10.045 136.655 10.000 136.600 10.000 H 131.600 C 131.545 10.000 131.500 10.045 131.500 10.100 V 12.500 C 131.500 12.600 131.600 12.500 131.500 12.500 H 128.600 C 128.545 12.500 128.500 12.545 128.500 12.600 V 15.600 C 128.500 15.655 128.545 15.700 128.600 15.700 H 131.500 C 131.600 15.700 131.500 15.600 131.500 15.700 V 18.500 C 131.500 18.600 131.600 18.500 131.500 18.500 H 128.600 C 128.545 18.500 128.500 18.545 128.500 18.600 V 21.600 C 128.500 21.655 128.545 21.700 128.600 21.700 H 131.500 C 131.600 21.700 131.500 21.600 131.500 21.700 V 24.500 C 131.500 24.600 131.600 24.500 131.500 24.500 H 128.600 C 128.545 24.500 128.500 24.545 128.500 24.600 V 27.600 C 128.500 27.655 128.545 27.700 128.600 27.700 H 131.500 C 131.600 27.700 131.500 27.600 131.500 27.700 V 30.100 C 131.500 30.155 131.545 30.200 131.600 30.200 Z" stroke="rgb(0,0,0)" stroke-width="0.20" />
</g>
<g id="p-8" style="fill:none;stroke-linecap:round;stroke-linejoin:round;">
  <path d="M 155.300 30.200 H 160.300 C 160.355 30.200 160.400 30.155 160.400 30.100 C 160.400 30.155 160.355 30.200 160.300 30.200 H 164.300 C 166.073 30.200 167.815 29.733 169.350 28.847 C 170.885 27.960 172.160 26.685 173.047 25.150 C 173.933 23.615 174.400 21.873 174.400 20.100 V 18.600 C 174.400 18.144 174.280 17.695 174.052 17.300 C 173.823 16.905 173.495 16.577 173.100 16.348 C 172.705 16.120 172.256 16.000 171.800 16.000 C 171.344 16.000 170.895 16.120 170.500 16.348 C 170.105 16.577 169.777 16.905 169.548 17.300 C 169.320 17.695 169.200 18.144 169.200 18.600 V 20.100 C 169.200 20.960 168.974 21.805 168.544 22.550 C 168.113 23.295 167.495 23.913 166.750 24.344 C 166.005 24.774 165.160 25.000 164.300 25.000 H 163.300 C 163.054 25.000 162.813 24.935 162.600 24.812 C 162.387 24.690 162.210 24.513 162.088 24.300 C 161.965 24.087 161.900 23.846 161.900 23.600 V 11.600 C 161.900 11.319 161.826 11.043 161.686 10.800 C 161.545 10.557 161.343 10.355 161.100 10.214 C 160.857 10.074 160.581 10.000 160.300 10.000 C 160.355 10.000 160.400 10.045 160.400 10.100 C 160.400 10.045 160.355 10.000 160.300 10.000 H 155.300 C 155.245 10.000 155.200 10.045 155.200 10.100 V 12.500 C 155.200 12.600 155.300 12.500 155.200 12.500 H 152.300 C 152.245 12.500 152.200 12.545 152.200 12.600 V 15.600 C 152.200 15.655 152.245 15.700 152.300 15.700 H 155.200 C 155.300 15.700 155.200 15.600 155.200 15.700 V 18.500 C 155.200 18.600 155.300 18.500 155.200 18.500 H 152.300 C 152.245 18.500 152.200 18.545 152.200 18.600 V 21.600 C 152.200 21.655 152.245 21.700 152.300 21.700 H 155.200 C 155.300 21.700 155.200 21.600 155.200 21.700 V 24.500 C 155.200 24.600 155.300 24.500 155.200 24.500 H 152.300 C 152.245 24.500 152.200 24.545 152.200 24.600 V 27.600 C 152.200 27.655 152.245 27.700 152.300 27.700 H 155.200 C 155.300 27.700 155.200 27.600 155.200 27.700 V 30.100 C 155.200 30.155 155.245 30.200 155.300 30.200 Z" stroke="rgb(0,0,0)" stroke-width="0.20" />
</g>
</svg>