<?xml version='1.0' encoding='utf-8'?>
<svg height="71.90mm" viewBox="0.0 0.0 132.20 71.90" width="132.20mm" xmlns="http://www.w3.org/2000/svg" xmlns:cc="http://creativecommons.org/ns#" xmlns:dc="http://purl.org/dc/elements/1.1/" xmlns:inkscape="http://www.inkscape.org/namespaces/inkscape" xmlns:rdf="http://www.w3.org/1999/02/22-rdf-syntax-ns#" xmlns:svg="http://www.w3.org/2000/svg" xmlns:xlink="http://www.w3.org/1999/xlink">
<!--
Label - Rectangular label with rounded corners, optional inner border line and engraved text.



A flat laser-cut label plate.

* **Outer cut** (black / OUTER_CUT): the perimeter of the label with
  configurable rounded corners – this is the cut-through line.
* **Inner border** (blue / INNER_CUT, optional): a decorative inset line
  parallel to the outer edge – engraved, not cut through.
* **Text** (green / ETCHING): one line of text engraved inside the label,
  with configurable font, size and alignment.


Assembly: none required – this is a single flat piece.



Created with Boxes.py (https://boxes.hackerspace-bamberg.de/)
Command line (remove spaces between dashes): boxes Label
-->
<title>Label</title>
<metadata>
<rdf:RDF><cc:Work>
<dc:title>Deco - Label</dc:title>
<dc:source>boxes Label</dc:source>
<dc:description>Rectangular label with rounded corners, optional inner border line and engraved text.


A flat laser-cut label plate.

* **Outer cut** (black / OUTER_CUT): the perimeter of the label with
  configurable rounded corners – this is the cut-through line.
* **Inner border** (blue / INNER_CUT, optional): a decorative inset line
  parallel to the outer edge – engraved, not cut through.
* **Text** (green / ETCHING): one line of text engraved inside the label,
  with configurable font, size and alignment.


Assembly: none required – this is a single flat piece.


Created with Boxes.py (https://boxes.hackerspace-bamberg.de/)
Command line: boxes Label
Command line short: boxes Label
</dc:description>
</cc:Work></rdf:RDF></metadata>
<g id="p-0" style="fill:none;stroke-linecap:round;stroke-linejoin:round;">
  <path d="M 10.100 61.900 H 110.100 V 51.900 H 10.100 V 61.900 Z" stroke="rgb(0,0,0)" stroke-width="0.20" />
  <text dominant-baseline="hanging" font-size="6px" style="font-family: sans-serif ; font-weight: normal; font-style: normal; fill: rgb(255,0,0)" text-anchor="middle" transform="matrix( 1.000 0.000 0.000 1.000 60.100 53.900 )">100.0mm, burn:0.10mm</text>
</g>
<g id="p-1" style="fill:none;stroke-linecap:round;stroke-linejoin:round;">
  <path d="M 15.100 50.200 H 115.100 C 115.995 50.200 116.875 49.964 117.650 49.517 C 118.425 49.069 119.069 48.425 119.517 47.650 C 119.964 46.875 120.200 45.995 120.200 45.100 V 15.100 C 120.200 14.205 119.964 13.325 119.517 12.550 C 119.069 11.775 118.425 11.131 117.650 10.683 C 116.875 10.236 115.995 10.000 115.100 10.000 H 15.100 C 14.205 10.000 13.325 10.236 12.550 10.683 C 11.775 11.131 11.131 11.775 10.683 12.550 C 10.236 13.325 10.000 14.205 10.000 15.100 V 45.100 C 10.000 45.995 10.236 46.875 10.683 47.650 C 11.131 48.425 11.775 49.069 12.550 49.517 C 13.325 49.964 14.205 50.200 15.100 50.200 Z" stroke="rgb(0,0,0)" stroke-width="0.20" />
  <path d="M 20.100 47.200 H 120.100 C 120.469 47.200 120.831 47.103 121.150 46.919 C 121.469 46.734 121.734 46.469 121.919 46.150 C 122.103 45.831 122.200 45.469 122.200 45.100 V 15.100 C 122.200 14.731 122.103 14.369 121.919 14.050 C 121.734 13.731 121.469 13.466 121.150 13.281 C 120.831 13.097 120.469 13.000 120.100 13.000 H 20.100 C 19.731 13.000 19.369 13.097 19.050 13.281 C 18.731 13.466 18.466 13.731 18.281 14.050 C 18.097 14.369 18.000 14.731 18.000 15.100 V 45.100 C 18.000 45.469 18.097 45.831 18.281 46.150 C 18.466 46.469 18.731 46.734 19.050 46.919 C 19.369 47.103 19.731 47.200 20.100 47.200 Z" stroke="rgb(0,0,255)" stroke-width="0.20" />
  <text dominant-baseline="hanging" font-size="10.0px" style="font-family: sans-serif ; font-weight: normal; font-style: normal; fill: rgb(0,255,0)" text-anchor="middle" transform="matrix( 1.000 0.000 -0.000 1.000 72.100 25.200 )">Label</text>
</g>
</svg>