<?xml version='1.0' encoding='utf-8'?>
<svg height="64.67mm" viewBox="0.0 0.0 120.00 64.67" width="120.00mm" xmlns="http://www.w3.org/2000/svg" xmlns:cc="http://creativecommons.org/ns#" xmlns:dc="http://purl.org/dc/elements/1.1/" xmlns:inkscape="http://www.inkscape.org/namespaces/inkscape" xmlns:rdf="http://www.w3.org/1999/02/22-rdf-syntax-ns#" xmlns:svg="http://www.w3.org/2000/svg" xmlns:xlink="http://www.w3.org/1999/xlink">
<!--
LaserHoldfast - A holdfast for honey comb tables of laser cutters

Created with Boxes.py (https://boxes.hackerspace-bamberg.de/)
Command line (remove spaces between dashes): boxes LaserHoldfast
-->
<title>LaserHoldfast</title>
<metadata>
<rdf:RDF><cc:Work>
<dc:title>Part - LaserHoldfast</dc:title>
<dc:source>boxes LaserHoldfast</dc:source>
<dc:description>A holdfast for honey comb tables of laser cutters

Created with Boxes.py (https://boxes.hackerspace-bamberg.de/)
Command line: boxes LaserHoldfast
Command line short: boxes LaserHoldfast
</dc:description>
</cc:Work></rdf:RDF></metadata>
<g id="p-0" style="fill:none;stroke-linecap:round;stroke-linejoin:round;">
  <path d="M 10.000 54.674 H 110.000 V 44.674 H 10.000 V 54.674 Z" stroke="rgb(0,0,0)" stroke-width="0.20" />
  <text dominant-baseline="hanging" font-size="6px" style="font-family: sans-serif ; font-weight: normal; font-style: normal; fill: rgb(255,0,0)" text-anchor="middle" transform="matrix( 1.000 0.000 0.000 1.000 60.000 46.674 )">100.0mm, burn:0.10mm</text>
</g>
<g id="p-1" style="fill:none;stroke-linecap:round;stroke-linejoin:round;">
  <path d="M 11.797 42.974 H 56.627 C 57.083 42.974 57.532 42.854 57.927 42.626 C 58.322 42.397 58.650 42.069 58.879 41.674 C 59.107 41.279 59.227 40.830 59.227 40.374 C 59.227 39.917 59.107 39.469 58.879 39.074 C 58.650 38.679 58.322 38.350 57.927 38.122 C 57.532 37.894 57.083 37.774 56.627 37.774 H 18.929 H 16.704 C 16.627 37.774 16.724 37.848 16.704 37.774 L 16.128 35.624 L 16.724 37.848 C 14.559 29.769 14.559 21.263 16.724 13.184 C 16.842 12.743 16.842 12.279 16.724 11.838 C 16.605 11.398 16.373 10.996 16.051 10.673 C 15.728 10.350 15.326 10.118 14.885 10.000 C 14.444 9.882 13.980 9.882 13.539 10.000 C 13.098 10.118 12.696 10.350 12.374 10.673 C 12.051 10.996 11.819 11.398 11.701 11.838 C 9.300 20.799 9.300 30.233 11.701 39.194 L 11.598 38.812 L 11.697 39.181 C 11.701 39.194 11.697 39.168 11.697 39.181 V 39.563 V 42.874 C 11.697 42.929 11.742 42.974 11.797 42.974 Z" stroke="rgb(0,0,0)" stroke-width="0.20" />
</g>
</svg>