<?xml version='1.0' encoding='utf-8'?>
<svg height="64.75mm" viewBox="0.0 0.0 120.00 64.75" width="120.00mm" xmlns="http://www.w3.org/2000/svg" xmlns:cc="http://creativecommons.org/ns#" xmlns:dc="http://purl.org/dc/elements/1.1/" xmlns:inkscape="http://www.inkscape.org/namespaces/inkscape" xmlns:rdf="http://www.w3.org/1999/02/22-rdf-syntax-ns#" xmlns:svg="http://www.w3.org/2000/svg" xmlns:xlink="http://www.w3.org/1999/xlink">
<!--
LaserHoldfast - A holdfast for honey comb tables of laser cutters

Created with Boxes.py (https://boxes.hackerspace-bamberg.de/)
Command line (remove spaces between dashes): boxes LaserHoldfast
-->
<title>LaserHoldfast</title>
<metadata>
<rdf:RDF><cc:Work>
<dc:title>Part - LaserHoldfast</dc:title>
<dc:source>boxes LaserHoldfast</dc:source>
<dc:description>A holdfast for honey comb tables of laser cutters

Created with Boxes.py (https://boxes.hackerspace-bamberg.de/)
Command line: boxes LaserHoldfast
Command line short: boxes LaserHoldfast
</dc:description>
</cc:Work></rdf:RDF></metadata>
<g id="p-0" style="fill:none;stroke-linecap:round;stroke-linejoin:round;">
  <path d="M 10.000 54.750 H 110.000 V 44.750 H 10.000 V 54.750 Z" stroke="rgb(0,0,0)" stroke-width="0.20" />
  <text dominant-baseline="hanging" font-size="6px" style="font-family: sans-serif ; font-weight: normal; font-style: normal; fill: rgb(255,0,0)" text-anchor="middle" transform="matrix( 1.000 0.000 0.000 1.000 60.000 46.750 )">100.0mm, burn:0.10mm</text>
</g>
<g id="p-1" style="fill:none;stroke-linecap:round;stroke-linejoin:round;">
  <path d="M 11.994 43.048 H 56.724 C 57.180 43.048 57.628 42.928 58.024 42.700 C 58.419 42.471 58.747 42.143 58.975 41.748 C 59.203 41.353 59.324 40.904 59.324 40.448 C 59.324 39.992 59.203 39.543 58.975 39.148 C 58.747 38.753 58.419 38.425 58.024 38.196 C 57.628 37.968 57.180 37.848 56.724 37.848 H 16.724 C 14.559 29.769 14.559 21.263 16.724 13.184 C 16.842 12.743 16.842 12.279 16.724 11.838 C 16.605 11.398 16.373 10.996 16.051 10.673 C 15.728 10.350 15.326 10.118 14.885 10.000 C 14.444 9.882 13.980 9.882 13.539 10.000 C 13.098 10.118 12.696 10.350 12.374 10.673 C 12.051 10.996 11.819 11.398 11.701 11.838 C 9.300 20.799 9.300 30.233 11.701 39.194 V 42.950 C 11.701 43.005 11.746 43.050 11.802 43.050 L 11.995 43.048 C 11.994 43.048 11.994 43.048 11.994 43.048 Z" stroke="rgb(0,0,0)" stroke-width="0.20" />
</g>
</svg>