<?xml version='1.0' encoding='utf-8'?>
<svg height="95.40mm" viewBox="0.0 0.0 124.60 95.40" width="124.60mm" xmlns="http://www.w3.org/2000/svg" xmlns:cc="http://creativecommons.org/ns#" xmlns:dc="http://purl.org/dc/elements/1.1/" xmlns:inkscape="http://www.inkscape.org/namespaces/inkscape" xmlns:rdf="http://www.w3.org/1999/02/22-rdf-syntax-ns#" xmlns:svg="http://www.w3.org/2000/svg" xmlns:xlink="http://www.w3.org/1999/xlink">
<!--
LaserClamp - A clamp to hold down material to a knife table


You need a tension spring of the proper length to make the clamp work.
Increase extraheight to get more space for the spring and to make the
sliding mechanism less likely to bind. You may need to add some wax on the
parts sliding on each other to reduce friction.



Created with Boxes.py (https://boxes.hackerspace-bamberg.de/)
Command line (remove spaces between dashes): boxes LaserClamp
-->
<title>LaserClamp</title>
<metadata>
<rdf:RDF><cc:Work>
<dc:title>Misc - LaserClamp</dc:title>
<dc:source>boxes LaserClamp</dc:source>
<dc:description>A clamp to hold down material to a knife table

You need a tension spring of the proper length to make the clamp work.
Increase extraheight to get more space for the spring and to make the
sliding mechanism less likely to bind. You may need to add some wax on the
parts sliding on each other to reduce friction.


Created with Boxes.py (https://boxes.hackerspace-bamberg.de/)
Command line: boxes LaserClamp
Command line short: boxes LaserClamp
</dc:description>
</cc:Work></rdf:RDF></metadata>
<g id="p-0" style="fill:none;stroke-linecap:round;stroke-linejoin:round;">
  <path d="M 10.100 85.400 H 110.100 V 75.400 H 10.100 V 85.400 Z" stroke="rgb(0,0,0)" stroke-width="0.20" />
  <text dominant-baseline="hanging" font-size="6px" style="font-family: sans-serif ; font-weight: normal; font-style: normal; fill: rgb(255,0,0)" text-anchor="middle" transform="matrix( 1.000 0.000 0.000 1.000 60.100 77.400 )">100.0mm, burn:0.10mm</text>
</g>
<g id="p-1" style="fill:none;stroke-linecap:round;stroke-linejoin:round;">
  <path d="M 37.100 67.600 H 35.625 C 35.525 67.600 35.625 67.700 35.625 67.600 V 17.800 C 35.625 17.700 35.525 17.800 35.625 17.800 H 38.575 C 38.675 17.800 38.575 17.700 38.575 17.800 V 67.600 C 38.575 67.700 38.675 67.600 38.575 67.600 H 37.100 Z" stroke="rgb(0,0,255)" stroke-width="0.20" />
  <path d="M 34.100 73.700 H 40.100 C 40.644 73.700 41.179 73.557 41.650 73.285 C 42.121 73.013 42.513 72.621 42.785 72.150 C 43.057 71.679 43.200 71.144 43.200 70.600 V 16.100 C 43.200 15.854 43.265 15.613 43.388 15.400 C 43.510 15.187 43.687 15.010 43.900 14.888 C 44.113 14.765 44.354 14.700 44.600 14.700 H 50.600 C 50.545 14.700 50.500 14.655 50.500 14.600 C 50.500 14.881 50.574 15.157 50.714 15.400 C 50.855 15.643 51.057 15.845 51.300 15.986 C 51.543 16.126 51.819 16.200 52.100 16.200 C 52.381 16.200 52.657 16.126 52.900 15.986 C 53.143 15.845 53.345 15.643 53.486 15.400 C 53.626 15.157 53.700 14.881 53.700 14.600 C 53.700 13.793 53.487 12.999 53.084 12.300 C 52.680 11.601 52.099 11.020 51.400 10.616 C 50.701 10.213 49.907 10.000 49.100 10.000 H 22.100 C 19.976 10.000 17.889 10.559 16.050 11.621 C 14.211 12.683 12.683 14.211 11.621 16.050 C 10.559 17.889 10.000 19.976 10.000 22.100 C 10.000 24.224 10.559 26.311 11.621 28.150 C 12.683 29.989 14.211 31.517 16.050 32.579 C 17.889 33.641 19.976 34.200 22.100 34.200 H 28.100 C 28.609 34.200 29.109 34.334 29.550 34.589 C 29.991 34.843 30.357 35.209 30.611 35.650 C 30.866 36.091 31.000 36.591 31.000 37.100 V 70.600 C 31.000 71.144 31.143 71.679 31.415 72.150 C 31.687 72.621 32.079 73.013 32.550 73.285 C 33.021 73.557 33.556 73.700 34.100 73.700 Z" stroke="rgb(0,0,0)" stroke-width="0.20" />
  <path d="M 22.000 29.500 C 20.581 29.500 19.193 29.092 17.999 28.325 C 16.806 27.558 15.858 26.464 15.269 25.174 C 14.679 23.884 14.473 22.451 14.675 21.047 C 14.877 19.643 15.478 18.326 16.407 17.254 C 17.336 16.182 18.554 15.399 19.915 15.000 C 21.276 14.600 22.724 14.600 24.085 15.000 C 25.446 15.399 26.664 16.182 27.593 17.254 C 28.522 18.326 29.123 19.643 29.325 21.047 C 29.527 22.451 29.321 23.884 28.731 25.174 C 28.142 26.464 27.194 27.558 26.001 28.325 C 24.807 29.092 23.419 29.500 22.000 29.500 Z" stroke="rgb(0,0,255)" stroke-width="0.20" />
</g>
<g id="p-2" style="fill:none;stroke-linecap:round;stroke-linejoin:round;">
  <path d="M 64.200 61.200 V 64.100 C 64.200 64.200 64.300 64.100 64.200 64.100 H 61.400 C 61.300 64.100 61.400 64.200 61.400 64.100 V 58.300 C 61.400 58.200 61.300 58.300 61.400 58.300 H 64.200 C 64.300 58.300 64.200 58.200 64.200 58.300 V 61.200 Z" stroke="rgb(0,0,255)" stroke-width="0.20" />
  <path d="M 64.200 49.200 V 52.100 C 64.200 52.200 64.300 52.100 64.200 52.100 H 61.400 C 61.300 52.100 61.400 52.200 61.400 52.100 V 46.300 C 61.400 46.200 61.300 46.300 61.400 46.300 H 64.200 C 64.300 46.300 64.200 46.200 64.200 46.300 V 49.200 Z" stroke="rgb(0,0,255)" stroke-width="0.20" />
  <path d="M 53.800 73.700 H 71.800 H 83.800 C 84.871 73.700 85.923 73.418 86.850 72.883 C 87.777 72.347 88.547 71.577 89.083 70.650 C 89.618 69.723 89.900 68.671 89.900 67.600 V 58.600 C 89.900 58.580 89.894 58.561 89.883 58.544 C 89.872 58.528 89.857 58.515 89.838 58.508 C 89.820 58.500 89.800 58.498 89.780 58.502 C 89.761 58.506 89.743 58.515 89.729 58.529 L 86.729 61.529 C 86.711 61.548 86.700 61.573 86.700 61.600 V 64.500 C 86.700 64.600 86.800 64.500 86.700 64.500 H 68.900 C 68.800 64.500 68.900 64.600 68.900 64.500 V 39.600 C 68.900 39.056 68.757 38.521 68.485 38.050 C 68.213 37.579 67.821 37.187 67.350 36.915 C 66.879 36.643 66.344 36.500 65.800 36.500 H 59.800 C 59.256 36.500 58.721 36.643 58.250 36.915 C 57.779 37.187 57.387 37.579 57.115 38.050 C 56.843 38.521 56.700 39.056 56.700 39.600 V 64.600 C 56.700 65.109 56.566 65.609 56.311 66.050 C 56.057 66.491 55.691 66.857 55.250 67.111 C 54.809 67.366 54.309 67.500 53.800 67.500 H 50.800 C 50.256 67.500 49.721 67.643 49.250 67.915 C 48.779 68.187 48.387 68.579 48.115 69.050 C 47.843 69.521 47.700 70.056 47.700 70.600 C 47.700 71.144 47.843 71.679 48.115 72.150 C 48.387 72.621 48.779 73.013 49.250 73.285 C 49.721 73.557 50.256 73.700 50.800 73.700 C 50.855 73.700 50.900 73.655 50.900 73.600 C 50.900 73.354 50.965 73.113 51.088 72.900 C 51.210 72.687 51.387 72.510 51.600 72.388 C 51.813 72.265 52.054 72.200 52.300 72.200 C 52.546 72.200 52.787 72.265 53.000 72.388 C 53.213 72.510 53.390 72.687 53.512 72.900 C 53.635 73.113 53.700 73.354 53.700 73.600 C 53.700 73.655 53.745 73.700 53.800 73.700 Z" stroke="rgb(0,0,0)" stroke-width="0.20" />
</g>
<g id="p-3" style="fill:none;stroke-linecap:round;stroke-linejoin:round;">
  <path d="M 98.900 61.100 V 64.000 C 98.900 64.100 99.000 64.000 98.900 64.000 H 96.100 C 96.000 64.000 96.100 64.100 96.100 64.000 V 58.200 C 96.100 58.100 96.000 58.200 96.100 58.200 H 98.900 C 99.000 58.200 98.900 58.100 98.900 58.200 V 61.100 Z" stroke="rgb(0,0,255)" stroke-width="0.20" />
  <path d="M 98.900 49.100 V 52.000 C 98.900 52.100 99.000 52.000 98.900 52.000 H 96.100 C 96.000 52.000 96.100 52.100 96.100 52.000 V 46.200 C 96.100 46.100 96.000 46.200 96.100 46.200 H 98.900 C 99.000 46.200 98.900 46.100 98.900 46.200 V 49.100 Z" stroke="rgb(0,0,255)" stroke-width="0.20" />
  <path d="M 94.500 73.700 H 97.500 H 100.500 C 101.044 73.700 101.579 73.557 102.050 73.285 C 102.521 73.013 102.913 72.621 103.185 72.150 C 103.457 71.679 103.600 71.144 103.600 70.600 V 39.600 C 103.600 39.056 103.457 38.521 103.185 38.050 C 102.913 37.579 102.521 37.187 102.050 36.915 C 101.579 36.643 101.044 36.500 100.500 36.500 H 94.500 C 93.956 36.500 93.421 36.643 92.950 36.915 C 92.479 37.187 92.087 37.579 91.815 38.050 C 91.543 38.521 91.400 39.056 91.400 39.600 V 70.600 C 91.400 71.144 91.543 71.679 91.815 72.150 C 92.087 72.621 92.479 73.013 92.950 73.285 C 93.421 73.557 93.956 73.700 94.500 73.700 Z" stroke="rgb(0,0,0)" stroke-width="0.20" />
</g>
<g id="p-4" style="fill:none;stroke-linecap:round;stroke-linejoin:round;">
  <path d="M 108.200 73.700 H 111.500 C 111.555 73.700 111.600 73.655 111.600 73.600 V 70.200 C 111.600 70.100 111.500 70.200 111.600 70.200 H 114.500 C 114.555 70.200 114.600 70.155 114.600 70.100 V 64.100 C 114.600 64.045 114.555 64.000 114.500 64.000 H 111.600 C 111.500 64.000 111.600 64.100 111.600 64.000 V 58.200 C 111.600 58.100 111.500 58.200 111.600 58.200 H 114.500 C 114.555 58.200 114.600 58.155 114.600 58.100 V 52.100 C 114.600 52.045 114.555 52.000 114.500 52.000 H 111.600 C 111.500 52.000 111.600 52.100 111.600 52.000 V 48.600 C 111.600 48.545 111.555 48.500 111.500 48.500 H 108.200 C 108.145 48.500 108.100 48.545 108.100 48.600 V 52.000 C 108.100 52.100 108.200 52.000 108.100 52.000 H 105.200 C 105.145 52.000 105.100 52.045 105.100 52.100 V 58.100 C 105.100 58.155 105.145 58.200 105.200 58.200 H 108.100 C 108.200 58.200 108.100 58.100 108.100 58.200 V 64.000 C 108.100 64.100 108.200 64.000 108.100 64.000 H 105.200 C 105.145 64.000 105.100 64.045 105.100 64.100 V 70.100 C 105.100 70.155 105.145 70.200 105.200 70.200 H 108.100 C 108.200 70.200 108.100 70.100 108.100 70.200 V 73.600 C 108.100 73.655 108.145 73.700 108.200 73.700 Z" stroke="rgb(0,0,0)" stroke-width="0.20" />
</g>
</svg>