<?xml version='1.0' encoding='utf-8'?>
<svg height="64.67mm" viewBox="0.0 0.0 120.00 64.67" width="120.00mm" xmlns="http://www.w3.org/2000/svg" xmlns:cc="http://creativecommons.org/ns#" xmlns:dc="http://purl.org/dc/elements/1.1/" xmlns:inkscape="http://www.inkscape.org/namespaces/inkscape" xmlns:rdf="http://www.w3.org/1999/02/22-rdf-syntax-ns#" xmlns:svg="http://www.w3.org/2000/svg" xmlns:xlink="http://www.w3.org/1999/xlink">
<!--
LaserHoldfast - A holdfast for honey comb tables of laser cutters

Created with Boxes.py (https://boxes.hackerspace-bamberg.de/)
Command line (remove spaces between dashes): boxes LaserHoldfast
-->
<title>LaserHoldfast</title>
<metadata>
<rdf:RDF><cc:Work>
<dc:title>Part - LaserHoldfast</dc:title>
<dc:source>boxes LaserHoldfast</dc:source>
<dc:description>A holdfast for honey comb tables of laser cutters

Created with Boxes.py (https://boxes.hackerspace-bamberg.de/)
Command line: boxes LaserHoldfast
Command line short: boxes LaserHoldfast
</dc:description>
</cc:Work></rdf:RDF></metadata>
<g id="p-0" style="fill:none;stroke-linecap:round;stroke-linejoin:round;">
  <path d="M 10.000 54.674 H 110.000 V 44.674 H 10.000 V 54.674 Z" stroke="rgb(0,0,0)" stroke-width="0.20" />
  <text dominant-baseline="hanging" font-size="6px" style="font-family: sans-serif ; font-weight: normal; font-style: normal; fill: rgb(255,0,0)" text-anchor="middle" transform="matrix( 1.000 0.000 0.000 1.000 60.000 46.674 )">100.0mm, burn:0.10mm</text>
</g>
<g id="p-1" style="fill:none;stroke-linecap:round;stroke-linejoin:round;">
  <path d="M 12.913 42.974 H 57.743 C 58.199 42.974 58.647 42.854 59.043 42.626 C 59.438 42.397 59.766 42.069 59.994 41.674 C 60.223 41.279 60.343 40.830 60.343 40.374 C 60.343 39.917 60.223 39.469 59.994 39.074 C 59.766 38.679 59.438 38.350 59.043 38.122 C 58.647 37.894 58.199 37.774 57.743 37.774 H 17.743 C 17.788 37.774 17.828 37.804 17.839 37.848 C 15.675 29.769 15.675 21.263 17.839 13.184 C 17.957 12.743 17.957 12.279 17.839 11.838 C 17.721 11.398 17.489 10.996 17.166 10.673 C 16.844 10.350 16.442 10.118 16.001 10.000 C 15.560 9.882 15.096 9.882 14.655 10.000 C 14.214 10.118 13.812 10.350 13.489 10.673 C 13.167 10.996 12.935 11.398 12.817 11.838 C 10.416 20.799 10.416 30.233 12.817 39.194 C 12.814 39.185 12.813 39.177 12.813 39.168 V 42.874 C 12.813 42.929 12.858 42.974 12.913 42.974 Z" stroke="rgb(0,0,0)" stroke-width="0.20" />
</g>
</svg>