<?xml version='1.0' encoding='utf-8'?>
<svg height="299.06mm" viewBox="0.0 0.0 1205.20 299.06" width="1205.20mm" xmlns="http://www.w3.org/2000/svg" xmlns:cc="http://creativecommons.org/ns#" xmlns:dc="http://purl.org/dc/elements/1.1/" xmlns:inkscape="http://www.inkscape.org/namespaces/inkscape" xmlns:rdf="http://www.w3.org/1999/02/22-rdf-syntax-ns#" xmlns:svg="http://www.w3.org/2000/svg" xmlns:xlink="http://www.w3.org/1999/xlink">
<!--
LazySusan - Box for storing tipable things on a lazy susan

Created with Boxes.py (https://boxes.hackerspace-bamberg.de/)
Command line (remove spaces between dashes): boxes LazySusan
-->
<title>LazySusan</title>
<metadata>
<rdf:RDF><cc:Work>
<dc:title>FlexBox - LazySusan</dc:title>
<dc:source>boxes LazySusan</dc:source>
<dc:description>Box for storing tipable things on a lazy susan

Created with Boxes.py (https://boxes.hackerspace-bamberg.de/)
Command line: boxes LazySusan
Command line short: boxes LazySusan
</dc:description>
</cc:Work></rdf:RDF></metadata>
<g id="p-0" style="fill:none;stroke-linecap:round;stroke-linejoin:round;">
  <path d="M 10.000 289.058 H 110.000 V 279.058 H 10.000 V 289.058 Z" stroke="rgb(0,0,0)" stroke-width="0.20" />
  <text dominant-baseline="hanging" font-size="6px" style="font-family: sans-serif ; font-weight: normal; font-style: normal; fill: rgb(255,0,0)" text-anchor="middle" transform="matrix( 1.000 0.000 0.000 1.000 60.000 281.058 )">100.0mm, burn:0.10mm</text>
</g>
<g id="p-1" style="fill:none;stroke-linecap:round;stroke-linejoin:round;">
  <path d="M 49.150 273.208 C 49.150 264.979 46.618 256.949 41.898 250.207 C 37.178 243.466 30.498 238.341 22.765 235.526 M 289.150 273.208 C 289.150 215.726 271.465 159.636 238.494 112.549 C 205.524 65.463 158.865 29.660 104.850 10.000 C 104.798 9.981 104.741 10.008 104.722 10.060 L 103.217 14.194 C 103.183 14.288 103.311 14.229 103.217 14.194 L 100.492 13.203 C 100.440 13.184 100.382 13.210 100.364 13.262 L 99.337 16.081 C 99.319 16.133 99.345 16.191 99.397 16.210 L 102.122 17.201 C 102.216 17.236 102.157 17.107 102.122 17.201 L 101.165 19.833 C 101.130 19.927 101.259 19.867 101.165 19.833 L 98.440 18.841 C 98.388 18.822 98.330 18.849 98.311 18.900 L 97.285 21.720 C 97.266 21.771 97.293 21.829 97.345 21.848 L 100.070 22.840 C 100.164 22.874 100.104 22.746 100.070 22.840 L 99.113 25.471 C 99.078 25.565 99.207 25.505 99.113 25.471 L 96.387 24.479 C 96.336 24.460 96.278 24.487 96.259 24.539 L 95.233 27.358 C 95.214 27.410 95.241 27.467 95.293 27.486 L 98.018 28.478 C 98.112 28.512 98.052 28.384 98.018 28.478 L 97.060 31.109 C 97.026 31.203 97.154 31.143 97.060 31.109 L 94.335 30.117 C 94.283 30.098 94.226 30.125 94.207 30.177 L 93.181 32.996 C 93.162 33.048 93.189 33.105 93.241 33.124 L 95.966 34.116 C 96.060 34.150 96.000 34.022 95.966 34.116 L 95.008 36.747 C 94.974 36.841 95.102 36.781 95.008 36.747 L 92.283 35.755 C 92.231 35.736 92.174 35.763 92.155 35.815 L 91.129 38.634 C 91.110 38.686 91.137 38.743 91.189 38.762 L 93.914 39.754 C 94.008 39.788 93.948 39.660 93.914 39.754 L 92.956 42.385 C 92.922 42.479 93.050 42.419 92.956 42.385 L 90.231 41.393 C 90.179 41.374 90.122 41.401 90.103 41.453 L 89.077 44.272 C 89.058 44.324 89.085 44.381 89.137 44.400 L 91.862 45.392 C 91.956 45.426 91.896 45.298 91.862 45.392 L 90.904 48.023 C 90.870 48.117 90.998 48.058 90.904 48.023 L 88.179 47.031 C 88.127 47.013 88.070 47.039 88.051 47.091 L 87.025 49.910 C 87.006 49.962 87.033 50.020 87.084 50.039 L 89.810 51.030 C 89.904 51.065 89.844 50.936 89.810 51.030 L 88.852 53.662 C 88.818 53.755 88.946 53.696 88.852 53.662 L 86.127 52.670 C 86.075 52.651 86.018 52.678 85.999 52.729 L 84.973 55.548 C 84.954 55.600 84.980 55.658 85.032 55.677 L 87.757 56.669 C 87.851 56.703 87.792 56.575 87.757 56.669 L 86.800 59.300 C 86.766 59.394 86.894 59.334 86.800 59.300 L 84.075 58.308 C 84.023 58.289 83.965 58.316 83.947 58.368 L 82.920 61.187 C 82.902 61.239 82.928 61.296 82.980 61.315 L 85.705 62.307 C 85.799 62.341 85.740 62.213 85.705 62.307 L 84.748 64.938 C 84.713 65.032 84.842 64.972 84.748 64.938 L 82.023 63.946 C 81.971 63.927 81.913 63.954 81.894 64.006 L 80.868 66.825 C 80.849 66.877 80.876 66.934 80.928 66.953 L 83.653 67.945 C 83.747 67.979 83.687 67.851 83.653 67.945 L 82.696 70.576 C 82.661 70.670 82.790 70.610 82.696 70.576 L 79.970 69.584 C 79.919 69.565 79.861 69.592 79.842 69.644 L 78.816 72.463 C 78.797 72.515 78.824 72.572 78.876 72.591 L 81.601 73.583 C 81.695 73.617 81.635 73.489 81.601 73.583 L 80.643 76.214 C 80.609 76.308 80.737 76.248 80.643 76.214 L 77.918 75.222 C 77.866 75.203 77.809 75.230 77.790 75.282 L 76.764 78.101 C 76.745 78.153 76.772 78.210 76.824 78.229 L 79.549 79.221 C 79.643 79.255 79.583 79.127 79.549 79.221 L 78.591 81.852 C 78.557 81.946 78.685 81.886 78.591 81.852 L 75.866 80.860 C 75.814 80.842 75.757 80.868 75.738 80.920 L 74.712 83.739 C 74.693 83.791 74.720 83.849 74.772 83.867 L 77.497 84.859 C 77.591 84.894 77.531 84.765 77.497 84.859 L 76.539 87.490 C 76.505 87.584 76.633 87.525 76.539 87.490 L 73.814 86.499 C 73.762 86.480 73.705 86.506 73.686 86.558 L 72.660 89.377 C 72.641 89.429 72.668 89.487 72.720 89.506 L 75.445 90.497 C 75.539 90.532 75.479 90.403 75.445 90.497 L 74.487 93.129 C 74.453 93.223 74.581 93.163 74.487 93.129 L 71.762 92.137 C 71.710 92.118 71.653 92.145 71.634 92.197 L 70.608 95.016 C 70.589 95.067 70.616 95.125 70.668 95.144 L 73.393 96.136 C 73.487 96.170 73.427 96.042 73.393 96.136 L 72.435 98.767 C 72.401 98.861 72.529 98.801 72.435 98.767 L 69.710 97.775 C 69.658 97.756 69.601 97.783 69.582 97.835 L 68.556 100.654 C 68.537 100.706 68.563 100.763 68.615 100.782 L 71.341 101.774 C 71.434 101.808 71.375 101.680 71.341 101.774 L 70.383 104.405 C 70.349 104.499 70.477 104.439 70.383 104.405 L 67.658 103.413 C 67.606 103.394 67.548 103.421 67.530 103.473 L 66.504 106.292 C 66.485 106.344 66.511 106.401 66.563 106.420 L 69.288 107.412 C 69.382 107.446 69.323 107.318 69.288 107.412 L 68.331 110.043 C 68.297 110.137 68.425 110.077 68.331 110.043 L 65.606 109.051 C 65.554 109.032 65.496 109.059 65.477 109.111 L 64.451 111.930 C 64.432 111.982 64.459 112.039 64.511 112.058 L 67.236 113.050 C 67.330 113.084 67.270 112.956 67.236 113.050 L 66.279 115.681 C 66.244 115.775 66.373 115.715 66.279 115.681 L 63.553 114.689 C 63.502 114.670 63.444 114.697 63.425 114.749 L 62.399 117.568 C 62.380 117.620 62.407 117.677 62.459 117.696 L 65.184 118.688 C 65.278 118.722 65.218 118.594 65.184 118.688 L 64.226 121.319 C 64.192 121.413 64.320 121.354 64.226 121.319 L 61.501 120.328 C 61.449 120.309 61.392 120.335 61.373 120.387 L 60.347 123.206 C 60.328 123.258 60.355 123.316 60.407 123.335 L 63.132 124.326 C 63.226 124.361 63.166 124.232 63.132 124.326 L 62.174 126.958 C 62.140 127.051 62.268 126.992 62.174 126.958 L 59.449 125.966 C 59.397 125.947 59.340 125.974 59.321 126.025 L 58.295 128.845 C 58.276 128.896 58.303 128.954 58.355 128.973 L 61.080 129.965 C 61.174 129.999 61.114 129.871 61.080 129.965 L 60.122 132.596 C 60.088 132.690 60.216 132.630 60.122 132.596 L 57.397 131.604 C 57.345 131.585 57.288 131.612 57.269 131.664 L 56.243 134.483 C 56.224 134.535 56.251 134.592 56.303 134.611 L 59.028 135.603 C 59.122 135.637 59.062 135.509 59.028 135.603 L 58.070 138.234 C 58.036 138.328 58.164 138.268 58.070 138.234 L 55.345 137.242 C 55.293 137.223 55.236 137.250 55.217 137.302 L 54.191 140.121 C 54.172 140.173 54.199 140.230 54.251 140.249 L 56.976 141.241 C 57.070 141.275 57.010 141.147 56.976 141.241 L 56.018 143.872 C 55.984 143.966 56.112 143.906 56.018 143.872 L 53.293 142.880 C 53.241 142.861 53.184 142.888 53.165 142.940 L 52.139 145.759 C 52.120 145.811 52.147 145.868 52.198 145.887 L 54.924 146.879 C 55.018 146.913 54.958 146.785 54.924 146.879 L 53.966 149.510 C 53.932 149.604 54.060 149.544 53.966 149.510 L 51.241 148.518 C 51.189 148.499 51.131 148.526 51.113 148.578 L 50.087 151.397 C 50.068 151.449 50.094 151.506 50.146 151.525 L 52.871 152.517 C 52.965 152.551 52.906 152.423 52.871 152.517 L 51.914 155.148 C 51.880 155.242 52.008 155.183 51.914 155.148 L 49.189 154.156 C 49.137 154.138 49.079 154.164 49.060 154.216 L 48.034 157.035 C 48.016 157.087 48.042 157.145 48.094 157.163 L 50.819 158.155 C 50.913 158.190 50.853 158.061 50.819 158.155 L 49.862 160.786 C 49.827 160.880 49.956 160.821 49.862 160.786 L 47.137 159.795 C 47.085 159.776 47.027 159.802 47.008 159.854 L 45.982 162.673 C 45.963 162.725 45.990 162.783 46.042 162.802 L 48.767 163.793 C 48.861 163.828 48.801 163.700 48.767 163.793 L 47.810 166.425 C 47.775 166.519 47.903 166.459 47.810 166.425 L 45.084 165.433 C 45.033 165.414 44.975 165.441 44.956 165.493 L 43.930 168.312 C 43.911 168.364 43.938 168.421 43.990 168.440 L 46.715 169.432 C 46.809 169.466 46.749 169.338 46.715 169.432 L 45.757 172.063 C 45.723 172.157 45.851 172.097 45.757 172.063 L 43.032 171.071 C 42.980 171.052 42.923 171.079 42.904 171.131 L 41.878 173.950 C 41.859 174.002 41.886 174.059 41.938 174.078 L 44.663 175.070 C 44.757 175.104 44.697 174.976 44.663 175.070 L 43.705 177.701 C 43.671 177.795 43.799 177.735 43.705 177.701 L 40.980 176.709 C 40.928 176.690 40.871 176.717 40.852 176.769 L 39.826 179.588 C 39.807 179.640 39.834 179.697 39.886 179.716 L 42.611 180.708 C 42.705 180.742 42.645 180.614 42.611 180.708 L 41.653 183.339 C 41.619 183.433 41.747 183.373 41.653 183.339 L 38.928 182.347 C 38.876 182.328 38.819 182.355 38.800 182.407 L 37.774 185.226 C 37.755 185.278 37.782 185.335 37.834 185.354 L 40.559 186.346 C 40.653 186.380 40.593 186.252 40.559 186.346 L 39.601 188.977 C 39.567 189.071 39.695 189.011 39.601 188.977 L 36.876 187.985 C 36.824 187.966 36.767 187.993 36.748 188.045 L 35.722 190.864 C 35.703 190.916 35.730 190.974 35.781 190.992 L 38.507 191.984 C 38.601 192.018 38.541 191.890 38.507 191.984 L 37.549 194.615 C 37.515 194.709 37.643 194.650 37.549 194.615 L 34.824 193.624 C 34.772 193.605 34.715 193.631 34.696 193.683 L 33.670 196.502 C 33.651 196.554 33.677 196.612 33.729 196.631 L 36.454 197.622 C 36.548 197.657 36.489 197.528 36.454 197.622 L 35.497 200.254 C 35.463 200.348 35.591 200.288 35.497 200.254 L 32.772 199.262 C 32.720 199.243 32.662 199.270 32.644 199.321 L 31.617 202.141 C 31.599 202.192 31.625 202.250 31.677 202.269 L 34.402 203.261 C 34.496 203.295 34.437 203.167 34.402 203.261 L 33.445 205.892 C 33.410 205.986 33.539 205.926 33.445 205.892 L 30.720 204.900 C 30.668 204.881 30.610 204.908 30.591 204.960 L 29.565 207.779 C 29.546 207.831 29.573 207.888 29.625 207.907 L 32.350 208.899 C 32.444 208.933 32.384 208.805 32.350 208.899 L 31.393 211.530 C 31.358 211.624 31.487 211.564 31.393 211.530 L 28.667 210.538 C 28.616 210.519 28.558 210.546 28.539 210.598 L 27.513 213.417 C 27.494 213.469 27.521 213.526 27.573 213.545 L 30.298 214.537 C 30.392 214.571 30.332 214.443 30.298 214.537 L 29.340 217.168 C 29.306 217.262 29.434 217.202 29.340 217.168 L 26.615 216.176 C 26.563 216.157 26.506 216.184 26.487 216.236 L 25.461 219.055 C 25.442 219.107 25.469 219.164 25.521 219.183 L 28.246 220.175 C 28.340 220.209 28.280 220.081 28.246 220.175 L 27.288 222.806 C 27.254 222.900 27.382 222.840 27.288 222.806 L 24.563 221.814 C 24.511 221.795 24.454 221.822 24.435 221.874 L 23.409 224.693 C 23.390 224.745 23.417 224.802 23.469 224.821 L 26.194 225.813 C 26.288 225.847 26.228 225.719 26.194 225.813 L 25.236 228.444 C 25.202 228.538 25.330 228.479 25.236 228.444 L 22.511 227.452 C 22.459 227.434 22.402 227.460 22.383 227.512 L 21.357 230.331 C 21.338 230.383 21.365 230.441 21.417 230.459 L 24.142 231.451 C 24.236 231.486 24.176 231.357 24.142 231.451 L 22.637 235.586 M 49.150 273.208 H 53.550 C 53.650 273.208 53.550 273.108 53.550 273.208 V 276.108 C 53.550 276.163 53.595 276.208 53.650 276.208 H 56.650 C 56.705 276.208 56.750 276.163 56.750 276.108 V 273.208 C 56.750 273.108 56.650 273.208 56.750 273.208 H 59.550 C 59.650 273.208 59.550 273.108 59.550 273.208 V 276.108 C 59.550 276.163 59.595 276.208 59.650 276.208 H 62.650 C 62.705 276.208 62.750 276.163 62.750 276.108 V 273.208 C 62.750 273.108 62.650 273.208 62.750 273.208 H 65.550 C 65.650 273.208 65.550 273.108 65.550 273.208 V 276.108 C 65.550 276.163 65.595 276.208 65.650 276.208 H 68.650 C 68.705 276.208 68.750 276.163 68.750 276.108 V 273.208 C 68.750 273.108 68.650 273.208 68.750 273.208 H 71.550 C 71.650 273.208 71.550 273.108 71.550 273.208 V 276.108 C 71.550 276.163 71.595 276.208 71.650 276.208 H 74.650 C 74.705 276.208 74.750 276.163 74.750 276.108 V 273.208 C 74.750 273.108 74.650 273.208 74.750 273.208 H 77.550 C 77.650 273.208 77.550 273.108 77.550 273.208 V 276.108 C 77.550 276.163 77.595 276.208 77.650 276.208 H 80.650 C 80.705 276.208 80.750 276.163 80.750 276.108 V 273.208 C 80.750 273.108 80.650 273.208 80.750 273.208 H 83.550 C 83.650 273.208 83.550 273.108 83.550 273.208 V 276.108 C 83.550 276.163 83.595 276.208 83.650 276.208 H 86.650 C 86.705 276.208 86.750 276.163 86.750 276.108 V 273.208 C 86.750 273.108 86.650 273.208 86.750 273.208 H 89.550 C 89.650 273.208 89.550 273.108 89.550 273.208 V 276.108 C 89.550 276.163 89.595 276.208 89.650 276.208 H 92.650 C 92.705 276.208 92.750 276.163 92.750 276.108 V 273.208 C 92.750 273.108 92.650 273.208 92.750 273.208 H 95.550 C 95.650 273.208 95.550 273.108 95.550 273.208 V 276.108 C 95.550 276.163 95.595 276.208 95.650 276.208 H 98.650 C 98.705 276.208 98.750 276.163 98.750 276.108 V 273.208 C 98.750 273.108 98.650 273.208 98.750 273.208 H 101.550 C 101.650 273.208 101.550 273.108 101.550 273.208 V 276.108 C 101.550 276.163 101.595 276.208 101.650 276.208 H 104.650 C 104.705 276.208 104.750 276.163 104.750 276.108 V 273.208 C 104.750 273.108 104.650 273.208 104.750 273.208 H 107.550 C 107.650 273.208 107.550 273.108 107.550 273.208 V 276.108 C 107.550 276.163 107.595 276.208 107.650 276.208 H 110.650 C 110.705 276.208 110.750 276.163 110.750 276.108 V 273.208 C 110.750 273.108 110.650 273.208 110.750 273.208 H 113.550 C 113.650 273.208 113.550 273.108 113.550 273.208 V 276.108 C 113.550 276.163 113.595 276.208 113.650 276.208 H 116.650 C 116.705 276.208 116.750 276.163 116.750 276.108 V 273.208 C 116.750 273.108 116.650 273.208 116.750 273.208 H 119.550 C 119.650 273.208 119.550 273.108 119.550 273.208 V 276.108 C 119.550 276.163 119.595 276.208 119.650 276.208 H 122.650 C 122.705 276.208 122.750 276.163 122.750 276.108 V 273.208 C 122.750 273.108 122.650 273.208 122.750 273.208 H 125.550 C 125.650 273.208 125.550 273.108 125.550 273.208 V 276.108 C 125.550 276.163 125.595 276.208 125.650 276.208 H 128.650 C 128.705 276.208 128.750 276.163 128.750 276.108 V 273.208 C 128.750 273.108 128.650 273.208 128.750 273.208 H 131.550 C 131.650 273.208 131.550 273.108 131.550 273.208 V 276.108 C 131.550 276.163 131.595 276.208 131.650 276.208 H 134.650 C 134.705 276.208 134.750 276.163 134.750 276.108 V 273.208 C 134.750 273.108 134.650 273.208 134.750 273.208 H 137.550 C 137.650 273.208 137.550 273.108 137.550 273.208 V 276.108 C 137.550 276.163 137.595 276.208 137.650 276.208 H 140.650 C 140.705 276.208 140.750 276.163 140.750 276.108 V 273.208 C 140.750 273.108 140.650 273.208 140.750 273.208 H 143.550 C 143.650 273.208 143.550 273.108 143.550 273.208 V 276.108 C 143.550 276.163 143.595 276.208 143.650 276.208 H 146.650 C 146.705 276.208 146.750 276.163 146.750 276.108 V 273.208 C 146.750 273.108 146.650 273.208 146.750 273.208 H 149.550 C 149.650 273.208 149.550 273.108 149.550 273.208 V 276.108 C 149.550 276.163 149.595 276.208 149.650 276.208 H 152.650 C 152.705 276.208 152.750 276.163 152.750 276.108 V 273.208 C 152.750 273.108 152.650 273.208 152.750 273.208 H 155.550 C 155.650 273.208 155.550 273.108 155.550 273.208 V 276.108 C 155.550 276.163 155.595 276.208 155.650 276.208 H 158.650 C 158.705 276.208 158.750 276.163 158.750 276.108 V 273.208 C 158.750 273.108 158.650 273.208 158.750 273.208 H 161.550 C 161.650 273.208 161.550 273.108 161.550 273.208 V 276.108 C 161.550 276.163 161.595 276.208 161.650 276.208 H 164.650 C 164.705 276.208 164.750 276.163 164.750 276.108 V 273.208 C 164.750 273.108 164.650 273.208 164.750 273.208 H 167.550 C 167.650 273.208 167.550 273.108 167.550 273.208 V 276.108 C 167.550 276.163 167.595 276.208 167.650 276.208 H 170.650 C 170.705 276.208 170.750 276.163 170.750 276.108 V 273.208 C 170.750 273.108 170.650 273.208 170.750 273.208 H 173.550 C 173.650 273.208 173.550 273.108 173.550 273.208 V 276.108 C 173.550 276.163 173.595 276.208 173.650 276.208 H 176.650 C 176.705 276.208 176.750 276.163 176.750 276.108 V 273.208 C 176.750 273.108 176.650 273.208 176.750 273.208 H 179.550 C 179.650 273.208 179.550 273.108 179.550 273.208 V 276.108 C 179.550 276.163 179.595 276.208 179.650 276.208 H 182.650 C 182.705 276.208 182.750 276.163 182.750 276.108 V 273.208 C 182.750 273.108 182.650 273.208 182.750 273.208 H 185.550 C 185.650 273.208 185.550 273.108 185.550 273.208 V 276.108 C 185.550 276.163 185.595 276.208 185.650 276.208 H 188.650 C 188.705 276.208 188.750 276.163 188.750 276.108 V 273.208 C 188.750 273.108 188.650 273.208 188.750 273.208 H 191.550 C 191.650 273.208 191.550 273.108 191.550 273.208 V 276.108 C 191.550 276.163 191.595 276.208 191.650 276.208 H 194.650 C 194.705 276.208 194.750 276.163 194.750 276.108 V 273.208 C 194.750 273.108 194.650 273.208 194.750 273.208 H 197.550 C 197.650 273.208 197.550 273.108 197.550 273.208 V 276.108 C 197.550 276.163 197.595 276.208 197.650 276.208 H 200.650 C 200.705 276.208 200.750 276.163 200.750 276.108 V 273.208 C 200.750 273.108 200.650 273.208 200.750 273.208 H 203.550 C 203.650 273.208 203.550 273.108 203.550 273.208 V 276.108 C 203.550 276.163 203.595 276.208 203.650 276.208 H 206.650 C 206.705 276.208 206.750 276.163 206.750 276.108 V 273.208 C 206.750 273.108 206.650 273.208 206.750 273.208 H 209.550 C 209.650 273.208 209.550 273.108 209.550 273.208 V 276.108 C 209.550 276.163 209.595 276.208 209.650 276.208 H 212.650 C 212.705 276.208 212.750 276.163 212.750 276.108 V 273.208 C 212.750 273.108 212.650 273.208 212.750 273.208 H 215.550 C 215.650 273.208 215.550 273.108 215.550 273.208 V 276.108 C 215.550 276.163 215.595 276.208 215.650 276.208 H 218.650 C 218.705 276.208 218.750 276.163 218.750 276.108 V 273.208 C 218.750 273.108 218.650 273.208 218.750 273.208 H 221.550 C 221.650 273.208 221.550 273.108 221.550 273.208 V 276.108 C 221.550 276.163 221.595 276.208 221.650 276.208 H 224.650 C 224.705 276.208 224.750 276.163 224.750 276.108 V 273.208 C 224.750 273.108 224.650 273.208 224.750 273.208 H 227.550 C 227.650 273.208 227.550 273.108 227.550 273.208 V 276.108 C 227.550 276.163 227.595 276.208 227.650 276.208 H 230.650 C 230.705 276.208 230.750 276.163 230.750 276.108 V 273.208 C 230.750 273.108 230.650 273.208 230.750 273.208 H 233.550 C 233.650 273.208 233.550 273.108 233.550 273.208 V 276.108 C 233.550 276.163 233.595 276.208 233.650 276.208 H 236.650 C 236.705 276.208 236.750 276.163 236.750 276.108 V 273.208 C 236.750 273.108 236.650 273.208 236.750 273.208 H 239.550 C 239.650 273.208 239.550 273.108 239.550 273.208 V 276.108 C 239.550 276.163 239.595 276.208 239.650 276.208 H 242.650 C 242.705 276.208 242.750 276.163 242.750 276.108 V 273.208 C 242.750 273.108 242.650 273.208 242.750 273.208 H 245.550 C 245.650 273.208 245.550 273.108 245.550 273.208 V 276.108 C 245.550 276.163 245.595 276.208 245.650 276.208 H 248.650 C 248.705 276.208 248.750 276.163 248.750 276.108 V 273.208 C 248.750 273.108 248.650 273.208 248.750 273.208 H 251.550 C 251.650 273.208 251.550 273.108 251.550 273.208 V 276.108 C 251.550 276.163 251.595 276.208 251.650 276.208 H 254.650 C 254.705 276.208 254.750 276.163 254.750 276.108 V 273.208 C 254.750 273.108 254.650 273.208 254.750 273.208 H 257.550 C 257.650 273.208 257.550 273.108 257.550 273.208 V 276.108 C 257.550 276.163 257.595 276.208 257.650 276.208 H 260.650 C 260.705 276.208 260.750 276.163 260.750 276.108 V 273.208 C 260.750 273.108 260.650 273.208 260.750 273.208 H 263.550 C 263.650 273.208 263.550 273.108 263.550 273.208 V 276.108 C 263.550 276.163 263.595 276.208 263.650 276.208 H 266.650 C 266.705 276.208 266.750 276.163 266.750 276.108 V 273.208 C 266.750 273.108 266.650 273.208 266.750 273.208 H 269.550 C 269.650 273.208 269.550 273.108 269.550 273.208 V 276.108 C 269.550 276.163 269.595 276.208 269.650 276.208 H 272.650 C 272.705 276.208 272.750 276.163 272.750 276.108 V 273.208 C 272.750 273.108 272.650 273.208 272.750 273.208 H 275.550 C 275.650 273.208 275.550 273.108 275.550 273.208 V 276.108 C 275.550 276.163 275.595 276.208 275.650 276.208 H 278.650 C 278.705 276.208 278.750 276.163 278.750 276.108 V 273.208 C 278.750 273.108 278.650 273.208 278.750 273.208 H 281.550 C 281.650 273.208 281.550 273.108 281.550 273.208 V 276.108 C 281.550 276.163 281.595 276.208 281.650 276.208 H 284.650 C 284.705 276.208 284.750 276.163 284.750 276.108 V 273.208 C 284.750 273.108 284.650 273.208 284.750 273.208 H 289.150" stroke="rgb(0,0,0)" stroke-width="0.20" />
  <path d="M 295.692 273.208 V 246.008 M 297.192 243.008 V 270.208 M 298.692 273.208 V 246.008 M 300.192 243.008 V 270.208 M 301.692 273.208 V 246.008 M 303.192 243.008 V 270.208 M 304.692 273.208 V 246.008 M 306.192 243.008 V 270.208 M 307.692 273.208 V 246.008 M 309.192 243.008 V 270.208 M 310.692 273.208 V 246.008 M 312.192 243.008 V 270.208 M 313.692 273.208 V 246.008 M 315.192 243.008 V 270.208 M 316.692 273.208 V 246.008 M 318.192 243.008 V 270.208 M 319.692 273.208 V 246.008 M 321.192 243.008 V 270.208 M 322.692 273.208 V 246.008 M 324.192 243.008 V 270.208 M 325.692 273.208 V 246.008 M 327.192 243.008 V 270.208 M 328.692 273.208 V 246.008 M 330.192 243.008 V 270.208 M 331.692 273.208 V 246.008 M 333.192 243.008 V 270.208 M 334.692 273.208 V 246.008 M 336.192 243.008 V 270.208 M 337.692 273.208 V 246.008 M 339.192 243.008 V 270.208 M 340.692 273.208 V 246.008 M 342.192 243.008 V 270.208 M 343.692 273.208 V 246.008 M 345.192 243.008 V 270.208 M 346.692 273.208 V 246.008 M 348.192 243.008 V 270.208 M 349.692 273.208 V 246.008 M 351.192 243.008 V 270.208 M 352.692 273.208 V 246.008 M 354.192 243.008 V 270.208 M 355.692 273.208 V 246.008 M 357.192 243.008 V 270.208 M 358.692 273.208 V 246.008 M 360.192 243.008 V 270.208 M 361.692 273.208 V 246.008 M 363.192 243.008 V 270.208 M 364.692 273.208 V 246.008 M 366.192 243.008 V 270.208 M 367.692 273.208 V 246.008 M 369.192 243.008 V 270.208 M 370.692 273.208 V 246.008 M 372.192 243.008 V 270.208 M 373.692 273.208 V 246.008 M 375.192 243.008 V 270.208 M 376.692 273.208 V 246.008 M 378.192 243.008 V 270.208 M 379.692 273.208 V 246.008 M 381.192 243.008 V 270.208 M 382.692 273.208 V 246.008 M 384.192 243.008 V 270.208 M 385.692 273.208 V 246.008 M 387.192 243.008 V 270.208 M 388.692 273.208 V 246.008 M 390.192 243.008 V 270.208 M 391.692 273.208 V 246.008 M 393.192 243.008 V 270.208 M 394.692 273.208 V 246.008 M 396.192 243.008 V 270.208 M 397.692 273.208 V 246.008 M 399.192 243.008 V 270.208 M 400.692 273.208 V 246.008 M 402.192 243.008 V 270.208 M 403.692 273.208 V 246.008 M 405.192 243.008 V 270.208 M 406.692 273.208 V 246.008 M 408.192 243.008 V 270.208 M 409.692 273.208 V 246.008 M 411.192 243.008 V 270.208 M 412.692 273.208 V 246.008 M 414.192 243.008 V 270.208 M 415.692 273.208 V 246.008 M 417.192 243.008 V 270.208 M 418.692 273.208 V 246.008 M 420.192 243.008 V 270.208 M 421.692 273.208 V 246.008 M 423.192 243.008 V 270.208 M 424.692 273.208 V 246.008 M 426.192 243.008 V 270.208 M 427.692 273.208 V 246.008 M 429.192 243.008 V 270.208 M 430.692 273.208 V 246.008 M 432.192 243.008 V 270.208 M 433.692 273.208 V 246.008 M 435.192 243.008 V 270.208 M 436.692 273.208 V 246.008 M 438.192 243.008 V 270.208 M 439.692 273.208 V 246.008 M 441.192 243.008 V 270.208 M 442.692 273.208 V 246.008 M 444.192 243.008 V 270.208 M 445.692 273.208 V 246.008 M 447.192 243.008 V 270.208 M 448.692 273.208 V 246.008 M 450.192 243.008 V 270.208 M 451.692 273.208 V 246.008 M 453.192 243.008 V 270.208 M 454.692 273.208 V 246.008 M 456.192 243.008 V 270.208 M 457.692 273.208 V 246.008 M 459.192 243.008 V 270.208 M 460.692 273.208 V 246.008 M 462.192 243.008 V 270.208 M 463.692 273.208 V 246.008 M 465.192 243.008 V 270.208 M 466.692 273.208 V 246.008 M 468.192 243.008 V 270.208 M 469.692 273.208 V 246.008 M 471.192 243.008 V 270.208 M 472.692 273.208 V 246.008 M 474.192 243.008 V 270.208 M 475.692 273.208 V 246.008 M 477.192 243.008 V 270.208 M 478.692 273.208 V 246.008 M 480.192 243.008 V 270.208 M 481.692 273.208 V 246.008 M 483.192 243.008 V 270.208 M 484.692 273.208 V 246.008 M 486.192 243.008 V 270.208 M 487.692 273.208 V 246.008 M 489.192 243.008 V 270.208 M 490.692 273.208 V 246.008 M 492.192 243.008 V 270.208 M 493.692 273.208 V 246.008 M 495.192 243.008 V 270.208 M 496.692 273.208 V 246.008 M 498.192 243.008 V 270.208 M 499.692 273.208 V 246.008 M 501.192 243.008 V 270.208 M 502.692 273.208 V 246.008 M 504.192 243.008 V 270.208 M 505.692 273.208 V 246.008 M 507.192 243.008 V 270.208 M 508.692 273.208 V 246.008 M 510.192 243.008 V 270.208 M 511.692 273.208 V 246.008 M 513.192 243.008 V 270.208 M 514.692 273.208 V 246.008 M 516.192 243.008 V 270.208 M 517.692 273.208 V 246.008 M 519.192 243.008 V 270.208 M 520.692 273.208 V 246.008 M 522.192 243.008 V 270.208 M 523.692 273.208 V 246.008 M 525.192 243.008 V 270.208 M 526.692 273.208 V 246.008 M 528.192 243.008 V 270.208 M 529.692 273.208 V 246.008 M 531.192 243.008 V 270.208 M 532.692 273.208 V 246.008 M 534.192 243.008 V 270.208 M 535.692 273.208 V 246.008 M 537.192 243.008 V 270.208 M 538.692 273.208 V 246.008 M 540.192 243.008 V 270.208 M 541.692 273.208 V 246.008 M 543.192 243.008 V 270.208 M 544.692 273.208 V 246.008 M 546.192 243.008 V 270.208 M 547.692 273.208 V 246.008 M 549.192 243.008 V 270.208 M 550.692 273.208 V 246.008 M 552.192 243.008 V 270.208 M 553.692 273.208 V 246.008 M 555.192 243.008 V 270.208 M 556.692 273.208 V 246.008 M 558.192 243.008 V 270.208 M 559.692 273.208 V 246.008 M 561.192 243.008 V 270.208 M 562.692 273.208 V 246.008 M 564.192 243.008 V 270.208 M 565.692 273.208 V 246.008 M 567.192 243.008 V 270.208 M 568.692 273.208 V 246.008 M 570.192 243.008 V 270.208 M 571.692 273.208 V 246.008 M 573.192 243.008 V 270.208 M 574.692 273.208 V 246.008 M 576.192 243.008 V 270.208 M 577.692 273.208 V 246.008 M 579.192 243.008 V 270.208 M 580.692 273.208 V 246.008 M 582.192 243.008 V 270.208 M 583.692 273.208 V 246.008 M 585.192 243.008 V 270.208 M 586.692 273.208 V 246.008 M 588.192 243.008 V 270.208 M 589.692 273.208 V 246.008 M 591.192 243.008 V 270.208 M 592.692 273.208 V 246.008 M 594.192 243.008 V 270.208 M 595.692 273.208 V 246.008 M 597.192 243.008 V 270.208 M 598.692 273.208 V 246.008 M 600.192 243.008 V 270.208 M 601.692 273.208 V 246.008 M 603.192 243.008 V 270.208 M 604.692 273.208 V 246.008 M 606.192 243.008 V 270.208 M 607.692 273.208 V 246.008 M 609.192 243.008 V 270.208 M 610.692 273.208 V 246.008 M 612.192 243.008 V 270.208 M 613.692 273.208 V 246.008 M 615.192 243.008 V 270.208 M 616.692 273.208 V 246.008 M 618.192 243.008 V 270.208 M 619.692 273.208 V 246.008 M 621.192 243.008 V 270.208 M 622.692 273.208 V 246.008 M 624.192 243.008 V 270.208 M 625.692 273.208 V 246.008 M 627.192 243.008 V 270.208 M 628.692 273.208 V 246.008 M 630.192 243.008 V 270.208 M 631.692 273.208 V 246.008 M 633.192 243.008 V 270.208 M 634.692 273.208 V 246.008" stroke="rgb(0,0,0)" stroke-width="0.20" />
  <path d="M 294.150 273.208 H 636.235 C 636.290 273.208 636.335 273.163 636.335 273.108 V 268.708 C 636.335 268.608 636.235 268.708 636.335 268.708 H 639.235 C 639.290 268.708 639.335 268.663 639.335 268.608 V 265.608 C 639.335 265.553 639.290 265.508 639.235 265.508 H 636.335 C 636.235 265.508 636.335 265.608 636.335 265.508 V 262.708 C 636.335 262.608 636.235 262.708 636.335 262.708 H 639.235 C 639.290 262.708 639.335 262.663 639.335 262.608 V 259.608 C 639.335 259.553 639.290 259.508 639.235 259.508 H 636.335 C 636.235 259.508 636.335 259.608 636.335 259.508 V 256.708 C 636.335 256.608 636.235 256.708 636.335 256.708 H 639.235 C 639.290 256.708 639.335 256.663 639.335 256.608 V 253.608 C 639.335 253.553 639.290 253.508 639.235 253.508 H 636.335 C 636.235 253.508 636.335 253.608 636.335 253.508 V 250.708 C 636.335 250.608 636.235 250.708 636.335 250.708 H 639.235 C 639.290 250.708 639.335 250.663 639.335 250.608 V 247.608 C 639.335 247.553 639.290 247.508 639.235 247.508 H 636.335 C 636.235 247.508 636.335 247.608 636.335 247.508 V 243.108 C 636.335 243.053 636.290 243.008 636.235 243.008 H 294.150 C 294.095 243.008 294.050 243.053 294.050 243.108 V 247.508 C 294.050 247.608 294.150 247.508 294.050 247.508 H 291.150 C 291.095 247.508 291.050 247.553 291.050 247.608 V 250.608 C 291.050 250.663 291.095 250.708 291.150 250.708 H 294.050 C 294.150 250.708 294.050 250.608 294.050 250.708 V 253.508 C 294.050 253.608 294.150 253.508 294.050 253.508 H 291.150 C 291.095 253.508 291.050 253.553 291.050 253.608 V 256.608 C 291.050 256.663 291.095 256.708 291.150 256.708 H 294.050 C 294.150 256.708 294.050 256.608 294.050 256.708 V 259.508 C 294.050 259.608 294.150 259.508 294.050 259.508 H 291.150 C 291.095 259.508 291.050 259.553 291.050 259.608 V 262.608 C 291.050 262.663 291.095 262.708 291.150 262.708 H 294.050 C 294.150 262.708 294.050 262.608 294.050 262.708 V 265.508 C 294.050 265.608 294.150 265.508 294.050 265.508 H 291.150 C 291.095 265.508 291.050 265.553 291.050 265.608 V 268.608 C 291.050 268.663 291.095 268.708 291.150 268.708 H 294.050 C 294.150 268.708 294.050 268.608 294.050 268.708 V 273.108" stroke="rgb(0,0,0)" stroke-width="0.20" />
  <path d="M 648.169 273.208 V 246.008 M 649.669 243.008 V 270.208 M 651.169 273.208 V 246.008 M 652.669 243.008 V 270.208 M 654.169 273.208 V 246.008 M 655.669 243.008 V 270.208 M 657.169 273.208 V 246.008 M 658.669 243.008 V 270.208 M 660.169 273.208 V 246.008 M 661.669 243.008 V 270.208 M 663.169 273.208 V 246.008 M 664.669 243.008 V 270.208 M 666.169 273.208 V 246.008 M 667.669 243.008 V 270.208 M 669.169 273.208 V 246.008 M 670.669 243.008 V 270.208 M 672.169 273.208 V 246.008 M 673.669 243.008 V 270.208 M 675.169 273.208 V 246.008 M 676.669 243.008 V 270.208 M 678.169 273.208 V 246.008 M 679.669 243.008 V 270.208 M 681.169 273.208 V 246.008 M 682.669 243.008 V 270.208 M 684.169 273.208 V 246.008 M 685.669 243.008 V 270.208 M 687.169 273.208 V 246.008 M 688.669 243.008 V 270.208 M 690.169 273.208 V 246.008 M 691.669 243.008 V 270.208 M 693.169 273.208 V 246.008" stroke="rgb(0,0,0)" stroke-width="0.20" />
  <path d="M 646.235 273.208 H 695.104 C 695.159 273.208 695.204 273.163 695.204 273.108 V 268.708 C 695.204 268.608 695.104 268.708 695.204 268.708 H 698.104 C 698.159 268.708 698.204 268.663 698.204 268.608 V 265.608 C 698.204 265.553 698.159 265.508 698.104 265.508 H 695.204 C 695.104 265.508 695.204 265.608 695.204 265.508 V 262.708 C 695.204 262.608 695.104 262.708 695.204 262.708 H 698.104 C 698.159 262.708 698.204 262.663 698.204 262.608 V 259.608 C 698.204 259.553 698.159 259.508 698.104 259.508 H 695.204 C 695.104 259.508 695.204 259.608 695.204 259.508 V 256.708 C 695.204 256.608 695.104 256.708 695.204 256.708 H 698.104 C 698.159 256.708 698.204 256.663 698.204 256.608 V 253.608 C 698.204 253.553 698.159 253.508 698.104 253.508 H 695.204 C 695.104 253.508 695.204 253.608 695.204 253.508 V 250.708 C 695.204 250.608 695.104 250.708 695.204 250.708 H 698.104 C 698.159 250.708 698.204 250.663 698.204 250.608 V 247.608 C 698.204 247.553 698.159 247.508 698.104 247.508 H 695.204 C 695.104 247.508 695.204 247.608 695.204 247.508 V 243.108 C 695.204 243.053 695.159 243.008 695.104 243.008 H 646.235 C 646.179 243.008 646.135 243.053 646.135 243.108 V 247.508 C 646.135 247.608 646.235 247.508 646.135 247.508 H 643.235 C 643.179 247.508 643.135 247.553 643.135 247.608 V 250.608 C 643.135 250.663 643.179 250.708 643.235 250.708 H 646.135 C 646.235 250.708 646.135 250.608 646.135 250.708 V 253.508 C 646.135 253.608 646.235 253.508 646.135 253.508 H 643.235 C 643.179 253.508 643.135 253.553 643.135 253.608 V 256.608 C 643.135 256.663 643.179 256.708 643.235 256.708 H 646.135 C 646.235 256.708 646.135 256.608 646.135 256.708 V 259.508 C 646.135 259.608 646.235 259.508 646.135 259.508 H 643.235 C 643.179 259.508 643.135 259.553 643.135 259.608 V 262.608 C 643.135 262.663 643.179 262.708 643.235 262.708 H 646.135 C 646.235 262.708 646.135 262.608 646.135 262.708 V 265.508 C 646.135 265.608 646.235 265.508 646.135 265.508 H 643.235 C 643.179 265.508 643.135 265.553 643.135 265.608 V 268.608 C 643.135 268.663 643.179 268.708 643.235 268.708 H 646.135 C 646.235 268.708 646.135 268.608 646.135 268.708 V 273.108 M 705.104 273.208 H 709.604 C 709.659 273.208 709.704 273.163 709.704 273.108 V 270.208 C 709.704 270.108 709.604 270.208 709.704 270.208 H 712.504 C 712.604 270.208 712.504 270.108 712.504 270.208 V 273.108 C 712.504 273.163 712.549 273.208 712.604 273.208 H 715.604 C 715.659 273.208 715.704 273.163 715.704 273.108 V 270.208 C 715.704 270.108 715.604 270.208 715.704 270.208 H 718.504 C 718.604 270.208 718.504 270.108 718.504 270.208 V 273.108 C 718.504 273.163 718.549 273.208 718.604 273.208 H 721.604 C 721.659 273.208 721.704 273.163 721.704 273.108 V 270.208 C 721.704 270.108 721.604 270.208 721.704 270.208 H 724.504 C 724.604 270.208 724.504 270.108 724.504 270.208 V 273.108 C 724.504 273.163 724.549 273.208 724.604 273.208 H 727.604 C 727.659 273.208 727.704 273.163 727.704 273.108 V 270.208 C 727.704 270.108 727.604 270.208 727.704 270.208 H 730.504 C 730.604 270.208 730.504 270.108 730.504 270.208 V 273.108 C 730.504 273.163 730.549 273.208 730.604 273.208 H 733.604 C 733.659 273.208 733.704 273.163 733.704 273.108 V 270.208 C 733.704 270.108 733.604 270.208 733.704 270.208 H 736.504 C 736.604 270.208 736.504 270.108 736.504 270.208 V 273.108 C 736.504 273.163 736.549 273.208 736.604 273.208 H 739.604 C 739.659 273.208 739.704 273.163 739.704 273.108 V 270.208 C 739.704 270.108 739.604 270.208 739.704 270.208 H 742.504 C 742.604 270.208 742.504 270.108 742.504 270.208 V 273.108 C 742.504 273.163 742.549 273.208 742.604 273.208 H 745.604 C 745.659 273.208 745.704 273.163 745.704 273.108 V 270.208 C 745.704 270.108 745.604 270.208 745.704 270.208 H 748.504 C 748.604 270.208 748.504 270.108 748.504 270.208 V 273.108 C 748.504 273.163 748.549 273.208 748.604 273.208 H 751.604 C 751.659 273.208 751.704 273.163 751.704 273.108 V 270.208 C 751.704 270.108 751.604 270.208 751.704 270.208 H 754.504 C 754.604 270.208 754.504 270.108 754.504 270.208 V 273.108 C 754.504 273.163 754.549 273.208 754.604 273.208 H 757.604 C 757.659 273.208 757.704 273.163 757.704 273.108 V 270.208 C 757.704 270.108 757.604 270.208 757.704 270.208 H 760.504 C 760.604 270.208 760.504 270.108 760.504 270.208 V 273.108 C 760.504 273.163 760.549 273.208 760.604 273.208 H 763.604 C 763.659 273.208 763.704 273.163 763.704 273.108 V 270.208 C 763.704 270.108 763.604 270.208 763.704 270.208 H 766.504 C 766.604 270.208 766.504 270.108 766.504 270.208 V 273.108 C 766.504 273.163 766.549 273.208 766.604 273.208 H 769.604 C 769.659 273.208 769.704 273.163 769.704 273.108 V 270.208 C 769.704 270.108 769.604 270.208 769.704 270.208 H 772.504 C 772.604 270.208 772.504 270.108 772.504 270.208 V 273.108 C 772.504 273.163 772.549 273.208 772.604 273.208 H 775.604 C 775.659 273.208 775.704 273.163 775.704 273.108 V 270.208 C 775.704 270.108 775.604 270.208 775.704 270.208 H 778.504 C 778.604 270.208 778.504 270.108 778.504 270.208 V 273.108 C 778.504 273.163 778.549 273.208 778.604 273.208 H 781.604 C 781.659 273.208 781.704 273.163 781.704 273.108 V 270.208 C 781.704 270.108 781.604 270.208 781.704 270.208 H 784.504 C 784.604 270.208 784.504 270.108 784.504 270.208 V 273.108 C 784.504 273.163 784.549 273.208 784.604 273.208 H 787.604 C 787.659 273.208 787.704 273.163 787.704 273.108 V 270.208 C 787.704 270.108 787.604 270.208 787.704 270.208 H 790.504 C 790.604 270.208 790.504 270.108 790.504 270.208 V 273.108 C 790.504 273.163 790.549 273.208 790.604 273.208 H 793.604 C 793.659 273.208 793.704 273.163 793.704 273.108 V 270.208 C 793.704 270.108 793.604 270.208 793.704 270.208 H 796.504 C 796.604 270.208 796.504 270.108 796.504 270.208 V 273.108 C 796.504 273.163 796.549 273.208 796.604 273.208 H 799.604 C 799.659 273.208 799.704 273.163 799.704 273.108 V 270.208 C 799.704 270.108 799.604 270.208 799.704 270.208 H 802.504 C 802.604 270.208 802.504 270.108 802.504 270.208 V 273.108 C 802.504 273.163 802.549 273.208 802.604 273.208 H 805.604 C 805.659 273.208 805.704 273.163 805.704 273.108 V 270.208 C 805.704 270.108 805.604 270.208 805.704 270.208 H 808.504 C 808.604 270.208 808.504 270.108 808.504 270.208 V 273.108 C 808.504 273.163 808.549 273.208 808.604 273.208 H 811.604 C 811.659 273.208 811.704 273.163 811.704 273.108 V 270.208 C 811.704 270.108 811.604 270.208 811.704 270.208 H 814.504 C 814.604 270.208 814.504 270.108 814.504 270.208 V 273.108 C 814.504 273.163 814.549 273.208 814.604 273.208 H 817.604 C 817.659 273.208 817.704 273.163 817.704 273.108 V 270.208 C 817.704 270.108 817.604 270.208 817.704 270.208 H 820.504 C 820.604 270.208 820.504 270.108 820.504 270.208 V 273.108 C 820.504 273.163 820.549 273.208 820.604 273.208 H 823.604 C 823.659 273.208 823.704 273.163 823.704 273.108 V 270.208 C 823.704 270.108 823.604 270.208 823.704 270.208 H 826.504 C 826.604 270.208 826.504 270.108 826.504 270.208 V 273.108 C 826.504 273.163 826.549 273.208 826.604 273.208 H 829.604 C 829.659 273.208 829.704 273.163 829.704 273.108 V 270.208 C 829.704 270.108 829.604 270.208 829.704 270.208 H 832.504 C 832.604 270.208 832.504 270.108 832.504 270.208 V 273.108 C 832.504 273.163 832.549 273.208 832.604 273.208 H 835.604 C 835.659 273.208 835.704 273.163 835.704 273.108 V 270.208 C 835.704 270.108 835.604 270.208 835.704 270.208 H 838.504 C 838.604 270.208 838.504 270.108 838.504 270.208 V 273.108 C 838.504 273.163 838.549 273.208 838.604 273.208 H 841.604 C 841.659 273.208 841.704 273.163 841.704 273.108 V 270.208 C 841.704 270.108 841.604 270.208 841.704 270.208 H 844.504 C 844.604 270.208 844.504 270.108 844.504 270.208 V 273.108 C 844.504 273.163 844.549 273.208 844.604 273.208 H 847.604 C 847.659 273.208 847.704 273.163 847.704 273.108 V 270.208 C 847.704 270.108 847.604 270.208 847.704 270.208 H 850.504 C 850.604 270.208 850.504 270.108 850.504 270.208 V 273.108 C 850.504 273.163 850.549 273.208 850.604 273.208 H 853.604 C 853.659 273.208 853.704 273.163 853.704 273.108 V 270.208 C 853.704 270.108 853.604 270.208 853.704 270.208 H 856.504 C 856.604 270.208 856.504 270.108 856.504 270.208 V 273.108 C 856.504 273.163 856.549 273.208 856.604 273.208 H 859.604 C 859.659 273.208 859.704 273.163 859.704 273.108 V 270.208 C 859.704 270.108 859.604 270.208 859.704 270.208 H 862.504 C 862.604 270.208 862.504 270.108 862.504 270.208 V 273.108 C 862.504 273.163 862.549 273.208 862.604 273.208 H 865.604 C 865.659 273.208 865.704 273.163 865.704 273.108 V 270.208 C 865.704 270.108 865.604 270.208 865.704 270.208 H 868.504 C 868.604 270.208 868.504 270.108 868.504 270.208 V 273.108 C 868.504 273.163 868.549 273.208 868.604 273.208 H 871.604 C 871.659 273.208 871.704 273.163 871.704 273.108 V 270.208 C 871.704 270.108 871.604 270.208 871.704 270.208 H 874.504 C 874.604 270.208 874.504 270.108 874.504 270.208 V 273.108 C 874.504 273.163 874.549 273.208 874.604 273.208 H 877.604 C 877.659 273.208 877.704 273.163 877.704 273.108 V 270.208 C 877.704 270.108 877.604 270.208 877.704 270.208 H 880.504 C 880.604 270.208 880.504 270.108 880.504 270.208 V 273.108 C 880.504 273.163 880.549 273.208 880.604 273.208 H 883.604 C 883.659 273.208 883.704 273.163 883.704 273.108 V 270.208 C 883.704 270.108 883.604 270.208 883.704 270.208 H 886.504 C 886.604 270.208 886.504 270.108 886.504 270.208 V 273.108 C 886.504 273.163 886.549 273.208 886.604 273.208 H 889.604 C 889.659 273.208 889.704 273.163 889.704 273.108 V 270.208 C 889.704 270.108 889.604 270.208 889.704 270.208 H 892.504 C 892.604 270.208 892.504 270.108 892.504 270.208 V 273.108 C 892.504 273.163 892.549 273.208 892.604 273.208 H 895.604 C 895.659 273.208 895.704 273.163 895.704 273.108 V 270.208 C 895.704 270.108 895.604 270.208 895.704 270.208 H 898.504 C 898.604 270.208 898.504 270.108 898.504 270.208 V 273.108 C 898.504 273.163 898.549 273.208 898.604 273.208 H 901.604 C 901.659 273.208 901.704 273.163 901.704 273.108 V 270.208 C 901.704 270.108 901.604 270.208 901.704 270.208 H 904.504 C 904.604 270.208 904.504 270.108 904.504 270.208 V 273.108 C 904.504 273.163 904.549 273.208 904.604 273.208 H 907.604 C 907.659 273.208 907.704 273.163 907.704 273.108 V 270.208 C 907.704 270.108 907.604 270.208 907.704 270.208 H 910.504 C 910.604 270.208 910.504 270.108 910.504 270.208 V 273.108 C 910.504 273.163 910.549 273.208 910.604 273.208 H 913.604 C 913.659 273.208 913.704 273.163 913.704 273.108 V 270.208 C 913.704 270.108 913.604 270.208 913.704 270.208 H 916.504 C 916.604 270.208 916.504 270.108 916.504 270.208 V 273.108 C 916.504 273.163 916.549 273.208 916.604 273.208 H 919.604 C 919.659 273.208 919.704 273.163 919.704 273.108 V 270.208 C 919.704 270.108 919.604 270.208 919.704 270.208 H 922.504 C 922.604 270.208 922.504 270.108 922.504 270.208 V 273.108 C 922.504 273.163 922.549 273.208 922.604 273.208 H 925.604 C 925.659 273.208 925.704 273.163 925.704 273.108 V 270.208 C 925.704 270.108 925.604 270.208 925.704 270.208 H 928.504 C 928.604 270.208 928.504 270.108 928.504 270.208 V 273.108 C 928.504 273.163 928.549 273.208 928.604 273.208 H 931.604 C 931.659 273.208 931.704 273.163 931.704 273.108 V 270.208 C 931.704 270.108 931.604 270.208 931.704 270.208 H 934.504 C 934.604 270.208 934.504 270.108 934.504 270.208 V 273.108 C 934.504 273.163 934.549 273.208 934.604 273.208 H 937.604 C 937.659 273.208 937.704 273.163 937.704 273.108 V 270.208 C 937.704 270.108 937.604 270.208 937.704 270.208 H 940.504 C 940.604 270.208 940.504 270.108 940.504 270.208 V 273.108 C 940.504 273.163 940.549 273.208 940.604 273.208 H 945.104 C 945.159 273.208 945.204 273.163 945.204 273.108 V 268.608 C 945.204 268.553 945.159 268.508 945.104 268.508 H 942.204 C 942.104 268.508 942.204 268.608 942.204 268.508 V 265.708 C 942.204 265.608 942.104 265.708 942.204 265.708 H 945.104 C 945.159 265.708 945.204 265.663 945.204 265.608 V 262.608 C 945.204 262.553 945.159 262.508 945.104 262.508 H 942.204 C 942.104 262.508 942.204 262.608 942.204 262.508 V 259.708 C 942.204 259.608 942.104 259.708 942.204 259.708 H 945.104 C 945.159 259.708 945.204 259.663 945.204 259.608 V 256.608 C 945.204 256.553 945.159 256.508 945.104 256.508 H 942.204 C 942.104 256.508 942.204 256.608 942.204 256.508 V 253.708 C 942.204 253.608 942.104 253.708 942.204 253.708 H 945.104 C 945.159 253.708 945.204 253.663 945.204 253.608 V 250.608 C 945.204 250.553 945.159 250.508 945.104 250.508 H 942.204 C 942.104 250.508 942.204 250.608 942.204 250.508 V 247.708 C 942.204 247.608 942.104 247.708 942.204 247.708 H 945.104 C 945.159 247.708 945.204 247.663 945.204 247.608 V 243.108 C 945.204 243.053 945.159 243.008 945.104 243.008 H 705.104 C 705.049 243.008 705.004 243.053 705.004 243.108 V 247.608 C 705.004 247.663 705.049 247.708 705.104 247.708 H 708.004 C 708.104 247.708 708.004 247.608 708.004 247.708 V 250.508 C 708.004 250.608 708.104 250.508 708.004 250.508 H 705.104 C 705.049 250.508 705.004 250.553 705.004 250.608 V 253.608 C 705.004 253.663 705.049 253.708 705.104 253.708 H 708.004 C 708.104 253.708 708.004 253.608 708.004 253.708 V 256.508 C 708.004 256.608 708.104 256.508 708.004 256.508 H 705.104 C 705.049 256.508 705.004 256.553 705.004 256.608 V 259.608 C 705.004 259.663 705.049 259.708 705.104 259.708 H 708.004 C 708.104 259.708 708.004 259.608 708.004 259.708 V 262.508 C 708.004 262.608 708.104 262.508 708.004 262.508 H 705.104 C 705.049 262.508 705.004 262.553 705.004 262.608 V 265.608 C 705.004 265.663 705.049 265.708 705.104 265.708 H 708.004 C 708.104 265.708 708.004 265.608 708.004 265.708 V 268.508 C 708.004 268.608 708.104 268.508 708.004 268.508 H 705.104 C 705.049 268.508 705.004 268.553 705.004 268.608 V 273.108 M 955.104 273.208 H 959.604 C 959.659 273.208 959.704 273.163 959.704 273.108 V 270.208 C 959.704 270.108 959.604 270.208 959.704 270.208 H 962.504 C 962.604 270.208 962.504 270.108 962.504 270.208 V 273.108 C 962.504 273.163 962.549 273.208 962.604 273.208 H 965.604 C 965.659 273.208 965.704 273.163 965.704 273.108 V 270.208 C 965.704 270.108 965.604 270.208 965.704 270.208 H 968.504 C 968.604 270.208 968.504 270.108 968.504 270.208 V 273.108 C 968.504 273.163 968.549 273.208 968.604 273.208 H 971.604 C 971.659 273.208 971.704 273.163 971.704 273.108 V 270.208 C 971.704 270.108 971.604 270.208 971.704 270.208 H 974.504 C 974.604 270.208 974.504 270.108 974.504 270.208 V 273.108 C 974.504 273.163 974.549 273.208 974.604 273.208 H 977.604 C 977.659 273.208 977.704 273.163 977.704 273.108 V 270.208 C 977.704 270.108 977.604 270.208 977.704 270.208 H 980.504 C 980.604 270.208 980.504 270.108 980.504 270.208 V 273.108 C 980.504 273.163 980.549 273.208 980.604 273.208 H 983.604 C 983.659 273.208 983.704 273.163 983.704 273.108 V 270.208 C 983.704 270.108 983.604 270.208 983.704 270.208 H 986.504 C 986.604 270.208 986.504 270.108 986.504 270.208 V 273.108 C 986.504 273.163 986.549 273.208 986.604 273.208 H 989.604 C 989.659 273.208 989.704 273.163 989.704 273.108 V 270.208 C 989.704 270.108 989.604 270.208 989.704 270.208 H 992.504 C 992.604 270.208 992.504 270.108 992.504 270.208 V 273.108 C 992.504 273.163 992.549 273.208 992.604 273.208 H 995.604 C 995.659 273.208 995.704 273.163 995.704 273.108 V 270.208 C 995.704 270.108 995.604 270.208 995.704 270.208 H 998.504 C 998.604 270.208 998.504 270.108 998.504 270.208 V 273.108 C 998.504 273.163 998.549 273.208 998.604 273.208 H 1001.604 C 1001.659 273.208 1001.704 273.163 1001.704 273.108 V 270.208 C 1001.704 270.108 1001.604 270.208 1001.704 270.208 H 1004.504 C 1004.604 270.208 1004.504 270.108 1004.504 270.208 V 273.108 C 1004.504 273.163 1004.549 273.208 1004.604 273.208 H 1007.604 C 1007.659 273.208 1007.704 273.163 1007.704 273.108 V 270.208 C 1007.704 270.108 1007.604 270.208 1007.704 270.208 H 1010.504 C 1010.604 270.208 1010.504 270.108 1010.504 270.208 V 273.108 C 1010.504 273.163 1010.549 273.208 1010.604 273.208 H 1013.604 C 1013.659 273.208 1013.704 273.163 1013.704 273.108 V 270.208 C 1013.704 270.108 1013.604 270.208 1013.704 270.208 H 1016.504 C 1016.604 270.208 1016.504 270.108 1016.504 270.208 V 273.108 C 1016.504 273.163 1016.549 273.208 1016.604 273.208 H 1019.604 C 1019.659 273.208 1019.704 273.163 1019.704 273.108 V 270.208 C 1019.704 270.108 1019.604 270.208 1019.704 270.208 H 1022.504 C 1022.604 270.208 1022.504 270.108 1022.504 270.208 V 273.108 C 1022.504 273.163 1022.549 273.208 1022.604 273.208 H 1025.604 C 1025.659 273.208 1025.704 273.163 1025.704 273.108 V 270.208 C 1025.704 270.108 1025.604 270.208 1025.704 270.208 H 1028.504 C 1028.604 270.208 1028.504 270.108 1028.504 270.208 V 273.108 C 1028.504 273.163 1028.549 273.208 1028.604 273.208 H 1031.604 C 1031.659 273.208 1031.704 273.163 1031.704 273.108 V 270.208 C 1031.704 270.108 1031.604 270.208 1031.704 270.208 H 1034.504 C 1034.604 270.208 1034.504 270.108 1034.504 270.208 V 273.108 C 1034.504 273.163 1034.549 273.208 1034.604 273.208 H 1037.604 C 1037.659 273.208 1037.704 273.163 1037.704 273.108 V 270.208 C 1037.704 270.108 1037.604 270.208 1037.704 270.208 H 1040.504 C 1040.604 270.208 1040.504 270.108 1040.504 270.208 V 273.108 C 1040.504 273.163 1040.549 273.208 1040.604 273.208 H 1043.604 C 1043.659 273.208 1043.704 273.163 1043.704 273.108 V 270.208 C 1043.704 270.108 1043.604 270.208 1043.704 270.208 H 1046.504 C 1046.604 270.208 1046.504 270.108 1046.504 270.208 V 273.108 C 1046.504 273.163 1046.549 273.208 1046.604 273.208 H 1049.604 C 1049.659 273.208 1049.704 273.163 1049.704 273.108 V 270.208 C 1049.704 270.108 1049.604 270.208 1049.704 270.208 H 1052.504 C 1052.604 270.208 1052.504 270.108 1052.504 270.208 V 273.108 C 1052.504 273.163 1052.549 273.208 1052.604 273.208 H 1055.604 C 1055.659 273.208 1055.704 273.163 1055.704 273.108 V 270.208 C 1055.704 270.108 1055.604 270.208 1055.704 270.208 H 1058.504 C 1058.604 270.208 1058.504 270.108 1058.504 270.208 V 273.108 C 1058.504 273.163 1058.549 273.208 1058.604 273.208 H 1061.604 C 1061.659 273.208 1061.704 273.163 1061.704 273.108 V 270.208 C 1061.704 270.108 1061.604 270.208 1061.704 270.208 H 1064.504 C 1064.604 270.208 1064.504 270.108 1064.504 270.208 V 273.108 C 1064.504 273.163 1064.549 273.208 1064.604 273.208 H 1067.604 C 1067.659 273.208 1067.704 273.163 1067.704 273.108 V 270.208 C 1067.704 270.108 1067.604 270.208 1067.704 270.208 H 1070.504 C 1070.604 270.208 1070.504 270.108 1070.504 270.208 V 273.108 C 1070.504 273.163 1070.549 273.208 1070.604 273.208 H 1073.604 C 1073.659 273.208 1073.704 273.163 1073.704 273.108 V 270.208 C 1073.704 270.108 1073.604 270.208 1073.704 270.208 H 1076.504 C 1076.604 270.208 1076.504 270.108 1076.504 270.208 V 273.108 C 1076.504 273.163 1076.549 273.208 1076.604 273.208 H 1079.604 C 1079.659 273.208 1079.704 273.163 1079.704 273.108 V 270.208 C 1079.704 270.108 1079.604 270.208 1079.704 270.208 H 1082.504 C 1082.604 270.208 1082.504 270.108 1082.504 270.208 V 273.108 C 1082.504 273.163 1082.549 273.208 1082.604 273.208 H 1085.604 C 1085.659 273.208 1085.704 273.163 1085.704 273.108 V 270.208 C 1085.704 270.108 1085.604 270.208 1085.704 270.208 H 1088.504 C 1088.604 270.208 1088.504 270.108 1088.504 270.208 V 273.108 C 1088.504 273.163 1088.549 273.208 1088.604 273.208 H 1091.604 C 1091.659 273.208 1091.704 273.163 1091.704 273.108 V 270.208 C 1091.704 270.108 1091.604 270.208 1091.704 270.208 H 1094.504 C 1094.604 270.208 1094.504 270.108 1094.504 270.208 V 273.108 C 1094.504 273.163 1094.549 273.208 1094.604 273.208 H 1097.604 C 1097.659 273.208 1097.704 273.163 1097.704 273.108 V 270.208 C 1097.704 270.108 1097.604 270.208 1097.704 270.208 H 1100.504 C 1100.604 270.208 1100.504 270.108 1100.504 270.208 V 273.108 C 1100.504 273.163 1100.549 273.208 1100.604 273.208 H 1103.604 C 1103.659 273.208 1103.704 273.163 1103.704 273.108 V 270.208 C 1103.704 270.108 1103.604 270.208 1103.704 270.208 H 1106.504 C 1106.604 270.208 1106.504 270.108 1106.504 270.208 V 273.108 C 1106.504 273.163 1106.549 273.208 1106.604 273.208 H 1109.604 C 1109.659 273.208 1109.704 273.163 1109.704 273.108 V 270.208 C 1109.704 270.108 1109.604 270.208 1109.704 270.208 H 1112.504 C 1112.604 270.208 1112.504 270.108 1112.504 270.208 V 273.108 C 1112.504 273.163 1112.549 273.208 1112.604 273.208 H 1115.604 C 1115.659 273.208 1115.704 273.163 1115.704 273.108 V 270.208 C 1115.704 270.108 1115.604 270.208 1115.704 270.208 H 1118.504 C 1118.604 270.208 1118.504 270.108 1118.504 270.208 V 273.108 C 1118.504 273.163 1118.549 273.208 1118.604 273.208 H 1121.604 C 1121.659 273.208 1121.704 273.163 1121.704 273.108 V 270.208 C 1121.704 270.108 1121.604 270.208 1121.704 270.208 H 1124.504 C 1124.604 270.208 1124.504 270.108 1124.504 270.208 V 273.108 C 1124.504 273.163 1124.549 273.208 1124.604 273.208 H 1127.604 C 1127.659 273.208 1127.704 273.163 1127.704 273.108 V 270.208 C 1127.704 270.108 1127.604 270.208 1127.704 270.208 H 1130.504 C 1130.604 270.208 1130.504 270.108 1130.504 270.208 V 273.108 C 1130.504 273.163 1130.549 273.208 1130.604 273.208 H 1133.604 C 1133.659 273.208 1133.704 273.163 1133.704 273.108 V 270.208 C 1133.704 270.108 1133.604 270.208 1133.704 270.208 H 1136.504 C 1136.604 270.208 1136.504 270.108 1136.504 270.208 V 273.108 C 1136.504 273.163 1136.549 273.208 1136.604 273.208 H 1139.604 C 1139.659 273.208 1139.704 273.163 1139.704 273.108 V 270.208 C 1139.704 270.108 1139.604 270.208 1139.704 270.208 H 1142.504 C 1142.604 270.208 1142.504 270.108 1142.504 270.208 V 273.108 C 1142.504 273.163 1142.549 273.208 1142.604 273.208 H 1145.604 C 1145.659 273.208 1145.704 273.163 1145.704 273.108 V 270.208 C 1145.704 270.108 1145.604 270.208 1145.704 270.208 H 1148.504 C 1148.604 270.208 1148.504 270.108 1148.504 270.208 V 273.108 C 1148.504 273.163 1148.549 273.208 1148.604 273.208 H 1151.604 C 1151.659 273.208 1151.704 273.163 1151.704 273.108 V 270.208 C 1151.704 270.108 1151.604 270.208 1151.704 270.208 H 1154.504 C 1154.604 270.208 1154.504 270.108 1154.504 270.208 V 273.108 C 1154.504 273.163 1154.549 273.208 1154.604 273.208 H 1157.604 C 1157.659 273.208 1157.704 273.163 1157.704 273.108 V 270.208 C 1157.704 270.108 1157.604 270.208 1157.704 270.208 H 1160.504 C 1160.604 270.208 1160.504 270.108 1160.504 270.208 V 273.108 C 1160.504 273.163 1160.549 273.208 1160.604 273.208 H 1163.604 C 1163.659 273.208 1163.704 273.163 1163.704 273.108 V 270.208 C 1163.704 270.108 1163.604 270.208 1163.704 270.208 H 1166.504 C 1166.604 270.208 1166.504 270.108 1166.504 270.208 V 273.108 C 1166.504 273.163 1166.549 273.208 1166.604 273.208 H 1169.604 C 1169.659 273.208 1169.704 273.163 1169.704 273.108 V 270.208 C 1169.704 270.108 1169.604 270.208 1169.704 270.208 H 1172.504 C 1172.604 270.208 1172.504 270.108 1172.504 270.208 V 273.108 C 1172.504 273.163 1172.549 273.208 1172.604 273.208 H 1175.604 C 1175.659 273.208 1175.704 273.163 1175.704 273.108 V 270.208 C 1175.704 270.108 1175.604 270.208 1175.704 270.208 H 1178.504 C 1178.604 270.208 1178.504 270.108 1178.504 270.208 V 273.108 C 1178.504 273.163 1178.549 273.208 1178.604 273.208 H 1181.604 C 1181.659 273.208 1181.704 273.163 1181.704 273.108 V 270.208 C 1181.704 270.108 1181.604 270.208 1181.704 270.208 H 1184.504 C 1184.604 270.208 1184.504 270.108 1184.504 270.208 V 273.108 C 1184.504 273.163 1184.549 273.208 1184.604 273.208 H 1187.604 C 1187.659 273.208 1187.704 273.163 1187.704 273.108 V 270.208 C 1187.704 270.108 1187.604 270.208 1187.704 270.208 H 1190.504 C 1190.604 270.208 1190.504 270.108 1190.504 270.208 V 273.108 C 1190.504 273.163 1190.549 273.208 1190.604 273.208 H 1195.104 C 1195.159 273.208 1195.204 273.163 1195.204 273.108 V 268.608 C 1195.204 268.553 1195.159 268.508 1195.104 268.508 H 1192.204 C 1192.104 268.508 1192.204 268.608 1192.204 268.508 V 265.708 C 1192.204 265.608 1192.104 265.708 1192.204 265.708 H 1195.104 C 1195.159 265.708 1195.204 265.663 1195.204 265.608 V 262.608 C 1195.204 262.553 1195.159 262.508 1195.104 262.508 H 1192.204 C 1192.104 262.508 1192.204 262.608 1192.204 262.508 V 259.708 C 1192.204 259.608 1192.104 259.708 1192.204 259.708 H 1195.104 C 1195.159 259.708 1195.204 259.663 1195.204 259.608 V 256.608 C 1195.204 256.553 1195.159 256.508 1195.104 256.508 H 1192.204 C 1192.104 256.508 1192.204 256.608 1192.204 256.508 V 253.708 C 1192.204 253.608 1192.104 253.708 1192.204 253.708 H 1195.104 C 1195.159 253.708 1195.204 253.663 1195.204 253.608 V 250.608 C 1195.204 250.553 1195.159 250.508 1195.104 250.508 H 1192.204 C 1192.104 250.508 1192.204 250.608 1192.204 250.508 V 247.708 C 1192.204 247.608 1192.104 247.708 1192.204 247.708 H 1195.104 C 1195.159 247.708 1195.204 247.663 1195.204 247.608 V 243.108 C 1195.204 243.053 1195.159 243.008 1195.104 243.008 H 955.104 C 955.049 243.008 955.004 243.053 955.004 243.108 V 247.608 C 955.004 247.663 955.049 247.708 955.104 247.708 H 958.004 C 958.104 247.708 958.004 247.608 958.004 247.708 V 250.508 C 958.004 250.608 958.104 250.508 958.004 250.508 H 955.104 C 955.049 250.508 955.004 250.553 955.004 250.608 V 253.608 C 955.004 253.663 955.049 253.708 955.104 253.708 H 958.004 C 958.104 253.708 958.004 253.608 958.004 253.708 V 256.508 C 958.004 256.608 958.104 256.508 958.004 256.508 H 955.104 C 955.049 256.508 955.004 256.553 955.004 256.608 V 259.608 C 955.004 259.663 955.049 259.708 955.104 259.708 H 958.004 C 958.104 259.708 958.004 259.608 958.004 259.708 V 262.508 C 958.004 262.608 958.104 262.508 958.004 262.508 H 955.104 C 955.049 262.508 955.004 262.553 955.004 262.608 V 265.608 C 955.004 265.663 955.049 265.708 955.104 265.708 H 958.004 C 958.104 265.708 958.004 265.608 958.004 265.708 V 268.508 C 958.004 268.608 958.104 268.508 958.004 268.508 H 955.104 C 955.049 268.508 955.004 268.553 955.004 268.608 V 273.108" stroke="rgb(0,0,0)" stroke-width="0.20" />
</g>
</svg>