<?xml version='1.0' encoding='utf-8'?>
<svg height="150.60mm" viewBox="0.0 0.0 394.75 150.60" width="394.75mm" xmlns="http://www.w3.org/2000/svg" xmlns:cc="http://creativecommons.org/ns#" xmlns:dc="http://purl.org/dc/elements/1.1/" xmlns:inkscape="http://www.inkscape.org/namespaces/inkscape" xmlns:rdf="http://www.w3.org/1999/02/22-rdf-syntax-ns#" xmlns:svg="http://www.w3.org/2000/svg" xmlns:xlink="http://www.w3.org/1999/xlink">
<!--
LazySusan - Box for storing tipable things on a lazy susan

Created with Boxes.py (https://boxes.hackerspace-bamberg.de/)
Command line (remove spaces between dashes): boxes LazySusan
-->
<title>LazySusan</title>
<metadata>
<rdf:RDF><cc:Work>
<dc:title>FlexBox - LazySusan</dc:title>
<dc:source>boxes LazySusan</dc:source>
<dc:description>Box for storing tipable things on a lazy susan

Created with Boxes.py (https://boxes.hackerspace-bamberg.de/)
Command line: boxes LazySusan
Command line short: boxes LazySusan
</dc:description>
</cc:Work></rdf:RDF></metadata>
<g id="p-0" style="fill:none;stroke-linecap:round;stroke-linejoin:round;">
  <path d="M 54.050 140.600 H 154.050 V 130.600 H 54.050 V 140.600 Z" stroke="rgb(0,0,0)" stroke-width="0.20" />
  <text dominant-baseline="hanging" font-size="6px" style="font-family: sans-serif ; font-weight: normal; font-style: normal; fill: rgb(255,0,0)" text-anchor="middle" transform="matrix( 1.000 0.000 0.000 1.000 104.050 132.600 )">100.0mm, burn:0.10mm</text>
</g>
<g id="p-1" style="fill:none;stroke-linecap:round;stroke-linejoin:round;">
  <path d="M 53.200 124.750 C 53.200 117.711 51.347 110.796 47.828 104.700 C 44.308 98.604 39.246 93.542 33.150 90.022 C 27.054 86.503 20.139 84.650 13.100 84.650 M 103.200 124.750 C 103.200 108.934 99.037 93.397 91.129 79.700 C 83.221 66.003 71.847 54.629 58.150 46.721 C 44.453 38.813 28.916 34.650 13.100 34.650 C 13.045 34.650 13.000 34.695 13.000 34.750 V 40.150 C 13.000 40.250 13.100 40.150 13.000 40.150 H 10.100 C 10.045 40.150 10.000 40.195 10.000 40.250 V 43.250 C 10.000 43.305 10.045 43.350 10.100 43.350 H 13.000 C 13.100 43.350 13.000 43.250 13.000 43.350 V 46.150 C 13.000 46.250 13.100 46.150 13.000 46.150 H 10.100 C 10.045 46.150 10.000 46.195 10.000 46.250 V 49.250 C 10.000 49.305 10.045 49.350 10.100 49.350 H 13.000 C 13.100 49.350 13.000 49.250 13.000 49.350 V 52.150 C 13.000 52.250 13.100 52.150 13.000 52.150 H 10.100 C 10.045 52.150 10.000 52.195 10.000 52.250 V 55.250 C 10.000 55.305 10.045 55.350 10.100 55.350 H 13.000 C 13.100 55.350 13.000 55.250 13.000 55.350 V 58.150 C 13.000 58.250 13.100 58.150 13.000 58.150 H 10.100 C 10.045 58.150 10.000 58.195 10.000 58.250 V 61.250 C 10.000 61.305 10.045 61.350 10.100 61.350 H 13.000 C 13.100 61.350 13.000 61.250 13.000 61.350 V 64.150 C 13.000 64.250 13.100 64.150 13.000 64.150 H 10.100 C 10.045 64.150 10.000 64.195 10.000 64.250 V 67.250 C 10.000 67.305 10.045 67.350 10.100 67.350 H 13.000 C 13.100 67.350 13.000 67.250 13.000 67.350 V 70.150 C 13.000 70.250 13.100 70.150 13.000 70.150 H 10.100 C 10.045 70.150 10.000 70.195 10.000 70.250 V 73.250 C 10.000 73.305 10.045 73.350 10.100 73.350 H 13.000 C 13.100 73.350 13.000 73.250 13.000 73.350 V 76.150 C 13.000 76.250 13.100 76.150 13.000 76.150 H 10.100 C 10.045 76.150 10.000 76.195 10.000 76.250 V 79.250 C 10.000 79.305 10.045 79.350 10.100 79.350 H 13.000 C 13.100 79.350 13.000 79.250 13.000 79.350 V 84.750 M 53.200 124.750 H 58.600 C 58.700 124.750 58.600 124.650 58.600 124.750 V 127.650 C 58.600 127.705 58.645 127.750 58.700 127.750 H 61.700 C 61.755 127.750 61.800 127.705 61.800 127.650 V 124.750 C 61.800 124.650 61.700 124.750 61.800 124.750 H 64.600 C 64.700 124.750 64.600 124.650 64.600 124.750 V 127.650 C 64.600 127.705 64.645 127.750 64.700 127.750 H 67.700 C 67.755 127.750 67.800 127.705 67.800 127.650 V 124.750 C 67.800 124.650 67.700 124.750 67.800 124.750 H 70.600 C 70.700 124.750 70.600 124.650 70.600 124.750 V 127.650 C 70.600 127.705 70.645 127.750 70.700 127.750 H 73.700 C 73.755 127.750 73.800 127.705 73.800 127.650 V 124.750 C 73.800 124.650 73.700 124.750 73.800 124.750 H 76.600 C 76.700 124.750 76.600 124.650 76.600 124.750 V 127.650 C 76.600 127.705 76.645 127.750 76.700 127.750 H 79.700 C 79.755 127.750 79.800 127.705 79.800 127.650 V 124.750 C 79.800 124.650 79.700 124.750 79.800 124.750 H 82.600 C 82.700 124.750 82.600 124.650 82.600 124.750 V 127.650 C 82.600 127.705 82.645 127.750 82.700 127.750 H 85.700 C 85.755 127.750 85.800 127.705 85.800 127.650 V 124.750 C 85.800 124.650 85.700 124.750 85.800 124.750 H 88.600 C 88.700 124.750 88.600 124.650 88.600 124.750 V 127.650 C 88.600 127.705 88.645 127.750 88.700 127.750 H 91.700 C 91.755 127.750 91.800 127.705 91.800 127.650 V 124.750 C 91.800 124.650 91.700 124.750 91.800 124.750 H 94.600 C 94.700 124.750 94.600 124.650 94.600 124.750 V 127.650 C 94.600 127.705 94.645 127.750 94.700 127.750 H 97.700 C 97.755 127.750 97.800 127.705 97.800 127.650 V 124.750 C 97.800 124.650 97.700 124.750 97.800 124.750 H 103.200 M 112.050 123.900 H 253.422 H 256.422 C 256.477 123.900 256.522 123.855 256.522 123.800 V 118.300 C 256.522 118.245 256.477 118.200 256.422 118.200 H 253.522 C 253.422 118.200 253.522 118.300 253.522 118.200 V 115.400 C 253.522 115.300 253.422 115.400 253.522 115.400 H 256.422 C 256.477 115.400 256.522 115.355 256.522 115.300 V 112.300 C 256.522 112.245 256.477 112.200 256.422 112.200 H 253.522 C 253.422 112.200 253.522 112.300 253.522 112.200 V 109.400 C 253.522 109.300 253.422 109.400 253.522 109.400 H 256.422 C 256.477 109.400 256.522 109.355 256.522 109.300 V 106.300 C 256.522 106.245 256.477 106.200 256.422 106.200 H 253.522 C 253.422 106.200 253.522 106.300 253.522 106.200 V 103.400 C 253.522 103.300 253.422 103.400 253.522 103.400 H 256.422 C 256.477 103.400 256.522 103.355 256.522 103.300 V 100.300 C 256.522 100.245 256.477 100.200 256.422 100.200 H 253.522 C 253.422 100.200 253.522 100.300 253.522 100.200 V 97.400 C 253.522 97.300 253.422 97.400 253.522 97.400 H 256.422 C 256.477 97.400 256.522 97.355 256.522 97.300 V 94.300 C 256.522 94.245 256.477 94.200 256.422 94.200 H 253.522 C 253.422 94.200 253.522 94.300 253.522 94.200 V 91.400 C 253.522 91.300 253.422 91.400 253.522 91.400 H 256.422 C 256.477 91.400 256.522 91.355 256.522 91.300 V 88.300 C 256.522 88.245 256.477 88.200 256.422 88.200 H 253.522 C 253.422 88.200 253.522 88.300 253.522 88.200 V 85.400 C 253.522 85.300 253.422 85.400 253.522 85.400 H 256.422 C 256.477 85.400 256.522 85.355 256.522 85.300 V 82.300 C 256.522 82.245 256.477 82.200 256.422 82.200 H 253.522 C 253.422 82.200 253.522 82.300 253.522 82.200 V 79.400 C 253.522 79.300 253.422 79.400 253.522 79.400 H 256.422 C 256.477 79.400 256.522 79.355 256.522 79.300 V 73.800 C 256.522 73.745 256.477 73.700 256.422 73.700 H 253.422 H 112.050 H 109.050 C 108.995 73.700 108.950 73.745 108.950 73.800 V 79.300 C 108.950 79.355 108.995 79.400 109.050 79.400 H 111.950 C 112.050 79.400 111.950 79.300 111.950 79.400 V 82.200 C 111.950 82.300 112.050 82.200 111.950 82.200 H 109.050 C 108.995 82.200 108.950 82.245 108.950 82.300 V 85.300 C 108.950 85.355 108.995 85.400 109.050 85.400 H 111.950 C 112.050 85.400 111.950 85.300 111.950 85.400 V 88.200 C 111.950 88.300 112.050 88.200 111.950 88.200 H 109.050 C 108.995 88.200 108.950 88.245 108.950 88.300 V 91.300 C 108.950 91.355 108.995 91.400 109.050 91.400 H 111.950 C 112.050 91.400 111.950 91.300 111.950 91.400 V 94.200 C 111.950 94.300 112.050 94.200 111.950 94.200 H 109.050 C 108.995 94.200 108.950 94.245 108.950 94.300 V 97.300 C 108.950 97.355 108.995 97.400 109.050 97.400 H 111.950 C 112.050 97.400 111.950 97.300 111.950 97.400 V 100.200 C 111.950 100.300 112.050 100.200 111.950 100.200 H 109.050 C 108.995 100.200 108.950 100.245 108.950 100.300 V 103.300 C 108.950 103.355 108.995 103.400 109.050 103.400 H 111.950 C 112.050 103.400 111.950 103.300 111.950 103.400 V 106.200 C 111.950 106.300 112.050 106.200 111.950 106.200 H 109.050 C 108.995 106.200 108.950 106.245 108.950 106.300 V 109.300 C 108.950 109.355 108.995 109.400 109.050 109.400 H 111.950 C 112.050 109.400 111.950 109.300 111.950 109.400 V 112.200 C 111.950 112.300 112.050 112.200 111.950 112.200 H 109.050 C 108.995 112.200 108.950 112.245 108.950 112.300 V 115.300 C 108.950 115.355 108.995 115.400 109.050 115.400 H 111.950 C 112.050 115.400 111.950 115.300 111.950 115.400 V 118.200 C 111.950 118.300 112.050 118.200 111.950 118.200 H 109.050 C 108.995 118.200 108.950 118.245 108.950 118.300 V 123.800 C 108.950 123.855 108.995 123.900 109.050 123.900 H 112.050 Z" stroke="rgb(0,0,0)" stroke-width="0.20" />
</g>
<g id="p-2" style="fill:none;stroke-linecap:round;stroke-linejoin:round;">
  <path d="M 261.122 123.900 H 323.954 H 326.954 C 327.009 123.900 327.054 123.855 327.054 123.800 V 118.300 C 327.054 118.245 327.009 118.200 326.954 118.200 H 324.054 C 323.954 118.200 324.054 118.300 324.054 118.200 V 115.400 C 324.054 115.300 323.954 115.400 324.054 115.400 H 326.954 C 327.009 115.400 327.054 115.355 327.054 115.300 V 112.300 C 327.054 112.245 327.009 112.200 326.954 112.200 H 324.054 C 323.954 112.200 324.054 112.300 324.054 112.200 V 109.400 C 324.054 109.300 323.954 109.400 324.054 109.400 H 326.954 C 327.009 109.400 327.054 109.355 327.054 109.300 V 106.300 C 327.054 106.245 327.009 106.200 326.954 106.200 H 324.054 C 323.954 106.200 324.054 106.300 324.054 106.200 V 103.400 C 324.054 103.300 323.954 103.400 324.054 103.400 H 326.954 C 327.009 103.400 327.054 103.355 327.054 103.300 V 100.300 C 327.054 100.245 327.009 100.200 326.954 100.200 H 324.054 C 323.954 100.200 324.054 100.300 324.054 100.200 V 97.400 C 324.054 97.300 323.954 97.400 324.054 97.400 H 326.954 C 327.009 97.400 327.054 97.355 327.054 97.300 V 94.300 C 327.054 94.245 327.009 94.200 326.954 94.200 H 324.054 C 323.954 94.200 324.054 94.300 324.054 94.200 V 91.400 C 324.054 91.300 323.954 91.400 324.054 91.400 H 326.954 C 327.009 91.400 327.054 91.355 327.054 91.300 V 88.300 C 327.054 88.245 327.009 88.200 326.954 88.200 H 324.054 C 323.954 88.200 324.054 88.300 324.054 88.200 V 85.400 C 324.054 85.300 323.954 85.400 324.054 85.400 H 326.954 C 327.009 85.400 327.054 85.355 327.054 85.300 V 82.300 C 327.054 82.245 327.009 82.200 326.954 82.200 H 324.054 C 323.954 82.200 324.054 82.300 324.054 82.200 V 79.400 C 324.054 79.300 323.954 79.400 324.054 79.400 H 326.954 C 327.009 79.400 327.054 79.355 327.054 79.300 V 73.800 C 327.054 73.745 327.009 73.700 326.954 73.700 H 323.954 H 261.122 H 258.122 C 258.066 73.700 258.022 73.745 258.022 73.800 V 79.300 C 258.022 79.355 258.066 79.400 258.122 79.400 H 261.022 C 261.122 79.400 261.022 79.300 261.022 79.400 V 82.200 C 261.022 82.300 261.122 82.200 261.022 82.200 H 258.122 C 258.066 82.200 258.022 82.245 258.022 82.300 V 85.300 C 258.022 85.355 258.066 85.400 258.122 85.400 H 261.022 C 261.122 85.400 261.022 85.300 261.022 85.400 V 88.200 C 261.022 88.300 261.122 88.200 261.022 88.200 H 258.122 C 258.066 88.200 258.022 88.245 258.022 88.300 V 91.300 C 258.022 91.355 258.066 91.400 258.122 91.400 H 261.022 C 261.122 91.400 261.022 91.300 261.022 91.400 V 94.200 C 261.022 94.300 261.122 94.200 261.022 94.200 H 258.122 C 258.066 94.200 258.022 94.245 258.022 94.300 V 97.300 C 258.022 97.355 258.066 97.400 258.122 97.400 H 261.022 C 261.122 97.400 261.022 97.300 261.022 97.400 V 100.200 C 261.022 100.300 261.122 100.200 261.022 100.200 H 258.122 C 258.066 100.200 258.022 100.245 258.022 100.300 V 103.300 C 258.022 103.355 258.066 103.400 258.122 103.400 H 261.022 C 261.122 103.400 261.022 103.300 261.022 103.400 V 106.200 C 261.022 106.300 261.122 106.200 261.022 106.200 H 258.122 C 258.066 106.200 258.022 106.245 258.022 106.300 V 109.300 C 258.022 109.355 258.066 109.400 258.122 109.400 H 261.022 C 261.122 109.400 261.022 109.300 261.022 109.400 V 112.200 C 261.022 112.300 261.122 112.200 261.022 112.200 H 258.122 C 258.066 112.200 258.022 112.245 258.022 112.300 V 115.300 C 258.022 115.355 258.066 115.400 258.122 115.400 H 261.022 C 261.122 115.400 261.022 115.300 261.022 115.400 V 118.200 C 261.022 118.300 261.122 118.200 261.022 118.200 H 258.122 C 258.066 118.200 258.022 118.245 258.022 118.300 V 123.800 C 258.022 123.855 258.066 123.900 258.122 123.900 H 261.122 Z" stroke="rgb(0,0,0)" stroke-width="0.20" />
</g>
<g id="p-3" style="fill:none;stroke-linecap:round;stroke-linejoin:round;">
  <path d="M 331.654 123.900 H 337.154 C 337.209 123.900 337.254 123.855 337.254 123.800 V 120.900 C 337.254 120.800 337.154 120.900 337.254 120.900 H 340.054 C 340.154 120.900 340.054 120.800 340.054 120.900 V 123.800 C 340.054 123.855 340.098 123.900 340.154 123.900 H 343.154 C 343.209 123.900 343.254 123.855 343.254 123.800 V 120.900 C 343.254 120.800 343.154 120.900 343.254 120.900 H 346.054 C 346.154 120.900 346.054 120.800 346.054 120.900 V 123.800 C 346.054 123.855 346.098 123.900 346.154 123.900 H 349.154 C 349.209 123.900 349.254 123.855 349.254 123.800 V 120.900 C 349.254 120.800 349.154 120.900 349.254 120.900 H 352.054 C 352.154 120.900 352.054 120.800 352.054 120.900 V 123.800 C 352.054 123.855 352.098 123.900 352.154 123.900 H 355.154 C 355.209 123.900 355.254 123.855 355.254 123.800 V 120.900 C 355.254 120.800 355.154 120.900 355.254 120.900 H 358.054 C 358.154 120.900 358.054 120.800 358.054 120.900 V 123.800 C 358.054 123.855 358.098 123.900 358.154 123.900 H 361.154 C 361.209 123.900 361.254 123.855 361.254 123.800 V 120.900 C 361.254 120.800 361.154 120.900 361.254 120.900 H 364.054 C 364.154 120.900 364.054 120.800 364.054 120.900 V 123.800 C 364.054 123.855 364.098 123.900 364.154 123.900 H 367.154 C 367.209 123.900 367.254 123.855 367.254 123.800 V 120.900 C 367.254 120.800 367.154 120.900 367.254 120.900 H 370.054 C 370.154 120.900 370.054 120.800 370.054 120.900 V 123.800 C 370.054 123.855 370.098 123.900 370.154 123.900 H 373.154 C 373.209 123.900 373.254 123.855 373.254 123.800 V 120.900 C 373.254 120.800 373.154 120.900 373.254 120.900 H 376.054 C 376.154 120.900 376.054 120.800 376.054 120.900 V 123.800 C 376.054 123.855 376.098 123.900 376.154 123.900 H 381.654 C 381.709 123.900 381.754 123.855 381.754 123.800 V 120.800 V 115.400 C 381.754 115.300 381.654 115.400 381.754 115.400 H 384.654 C 384.709 115.400 384.754 115.355 384.754 115.300 V 112.300 C 384.754 112.245 384.709 112.200 384.654 112.200 H 381.754 C 381.654 112.200 381.754 112.300 381.754 112.200 V 109.400 C 381.754 109.300 381.654 109.400 381.754 109.400 H 384.654 C 384.709 109.400 384.754 109.355 384.754 109.300 V 106.300 C 384.754 106.245 384.709 106.200 384.654 106.200 H 381.754 C 381.654 106.200 381.754 106.300 381.754 106.200 V 103.400 C 381.754 103.300 381.654 103.400 381.754 103.400 H 384.654 C 384.709 103.400 384.754 103.355 384.754 103.300 V 100.300 C 384.754 100.245 384.709 100.200 384.654 100.200 H 381.754 C 381.654 100.200 381.754 100.300 381.754 100.200 V 97.400 C 381.754 97.300 381.654 97.400 381.754 97.400 H 384.654 C 384.709 97.400 384.754 97.355 384.754 97.300 V 94.300 C 384.754 94.245 384.709 94.200 384.654 94.200 H 381.754 C 381.654 94.200 381.754 94.300 381.754 94.200 V 91.400 C 381.754 91.300 381.654 91.400 381.754 91.400 H 384.654 C 384.709 91.400 384.754 91.355 384.754 91.300 V 88.300 C 384.754 88.245 384.709 88.200 384.654 88.200 H 381.754 C 381.654 88.200 381.754 88.300 381.754 88.200 V 85.400 C 381.754 85.300 381.654 85.400 381.754 85.400 H 384.654 C 384.709 85.400 384.754 85.355 384.754 85.300 V 82.300 C 384.754 82.245 384.709 82.200 384.654 82.200 H 381.754 C 381.654 82.200 381.754 82.300 381.754 82.200 V 79.400 C 381.754 79.300 381.654 79.400 381.754 79.400 H 384.654 C 384.709 79.400 384.754 79.355 384.754 79.300 V 76.300 C 384.754 76.245 384.709 76.200 384.654 76.200 H 381.754 C 381.654 76.200 381.754 76.300 381.754 76.200 V 70.800 V 67.800 C 381.754 67.745 381.709 67.700 381.654 67.700 H 376.154 C 376.098 67.700 376.054 67.745 376.054 67.800 V 70.700 C 376.054 70.800 376.154 70.700 376.054 70.700 H 373.254 C 373.154 70.700 373.254 70.800 373.254 70.700 V 67.800 C 373.254 67.745 373.209 67.700 373.154 67.700 H 370.154 C 370.098 67.700 370.054 67.745 370.054 67.800 V 70.700 C 370.054 70.800 370.154 70.700 370.054 70.700 H 367.254 C 367.154 70.700 367.254 70.800 367.254 70.700 V 67.800 C 367.254 67.745 367.209 67.700 367.154 67.700 H 364.154 C 364.098 67.700 364.054 67.745 364.054 67.800 V 70.700 C 364.054 70.800 364.154 70.700 364.054 70.700 H 361.254 C 361.154 70.700 361.254 70.800 361.254 70.700 V 67.800 C 361.254 67.745 361.209 67.700 361.154 67.700 H 358.154 C 358.098 67.700 358.054 67.745 358.054 67.800 V 70.700 C 358.054 70.800 358.154 70.700 358.054 70.700 H 355.254 C 355.154 70.700 355.254 70.800 355.254 70.700 V 67.800 C 355.254 67.745 355.209 67.700 355.154 67.700 H 352.154 C 352.098 67.700 352.054 67.745 352.054 67.800 V 70.700 C 352.054 70.800 352.154 70.700 352.054 70.700 H 349.254 C 349.154 70.700 349.254 70.800 349.254 70.700 V 67.800 C 349.254 67.745 349.209 67.700 349.154 67.700 H 346.154 C 346.098 67.700 346.054 67.745 346.054 67.800 V 70.700 C 346.054 70.800 346.154 70.700 346.054 70.700 H 343.254 C 343.154 70.700 343.254 70.800 343.254 70.700 V 67.800 C 343.254 67.745 343.209 67.700 343.154 67.700 H 340.154 C 340.098 67.700 340.054 67.745 340.054 67.800 V 70.700 C 340.054 70.800 340.154 70.700 340.054 70.700 H 337.254 C 337.154 70.700 337.254 70.800 337.254 70.700 V 67.800 C 337.254 67.745 337.209 67.700 337.154 67.700 H 331.654 C 331.598 67.700 331.554 67.745 331.554 67.800 V 70.800 V 76.200 C 331.554 76.300 331.654 76.200 331.554 76.200 H 328.654 C 328.598 76.200 328.554 76.245 328.554 76.300 V 79.300 C 328.554 79.355 328.598 79.400 328.654 79.400 H 331.554 C 331.654 79.400 331.554 79.300 331.554 79.400 V 82.200 C 331.554 82.300 331.654 82.200 331.554 82.200 H 328.654 C 328.598 82.200 328.554 82.245 328.554 82.300 V 85.300 C 328.554 85.355 328.598 85.400 328.654 85.400 H 331.554 C 331.654 85.400 331.554 85.300 331.554 85.400 V 88.200 C 331.554 88.300 331.654 88.200 331.554 88.200 H 328.654 C 328.598 88.200 328.554 88.245 328.554 88.300 V 91.300 C 328.554 91.355 328.598 91.400 328.654 91.400 H 331.554 C 331.654 91.400 331.554 91.300 331.554 91.400 V 94.200 C 331.554 94.300 331.654 94.200 331.554 94.200 H 328.654 C 328.598 94.200 328.554 94.245 328.554 94.300 V 97.300 C 328.554 97.355 328.598 97.400 328.654 97.400 H 331.554 C 331.654 97.400 331.554 97.300 331.554 97.400 V 100.200 C 331.554 100.300 331.654 100.200 331.554 100.200 H 328.654 C 328.598 100.200 328.554 100.245 328.554 100.300 V 103.300 C 328.554 103.355 328.598 103.400 328.654 103.400 H 331.554 C 331.654 103.400 331.554 103.300 331.554 103.400 V 106.200 C 331.554 106.300 331.654 106.200 331.554 106.200 H 328.654 C 328.598 106.200 328.554 106.245 328.554 106.300 V 109.300 C 328.554 109.355 328.598 109.400 328.654 109.400 H 331.554 C 331.654 109.400 331.554 109.300 331.554 109.400 V 112.200 C 331.554 112.300 331.654 112.200 331.554 112.200 H 328.654 C 328.598 112.200 328.554 112.245 328.554 112.300 V 115.300 C 328.554 115.355 328.598 115.400 328.654 115.400 H 331.554 C 331.654 115.400 331.554 115.300 331.554 115.400 V 120.800 V 123.800 C 331.554 123.855 331.598 123.900 331.654 123.900 Z" stroke="rgb(0,0,0)" stroke-width="0.20" />
</g>
<g id="p-4" style="fill:none;stroke-linecap:round;stroke-linejoin:round;">
  <path d="M 331.654 66.200 H 337.154 C 337.209 66.200 337.254 66.155 337.254 66.100 V 63.200 C 337.254 63.100 337.154 63.200 337.254 63.200 H 340.054 C 340.154 63.200 340.054 63.100 340.054 63.200 V 66.100 C 340.054 66.155 340.098 66.200 340.154 66.200 H 343.154 C 343.209 66.200 343.254 66.155 343.254 66.100 V 63.200 C 343.254 63.100 343.154 63.200 343.254 63.200 H 346.054 C 346.154 63.200 346.054 63.100 346.054 63.200 V 66.100 C 346.054 66.155 346.098 66.200 346.154 66.200 H 349.154 C 349.209 66.200 349.254 66.155 349.254 66.100 V 63.200 C 349.254 63.100 349.154 63.200 349.254 63.200 H 352.054 C 352.154 63.200 352.054 63.100 352.054 63.200 V 66.100 C 352.054 66.155 352.098 66.200 352.154 66.200 H 355.154 C 355.209 66.200 355.254 66.155 355.254 66.100 V 63.200 C 355.254 63.100 355.154 63.200 355.254 63.200 H 358.054 C 358.154 63.200 358.054 63.100 358.054 63.200 V 66.100 C 358.054 66.155 358.098 66.200 358.154 66.200 H 361.154 C 361.209 66.200 361.254 66.155 361.254 66.100 V 63.200 C 361.254 63.100 361.154 63.200 361.254 63.200 H 364.054 C 364.154 63.200 364.054 63.100 364.054 63.200 V 66.100 C 364.054 66.155 364.098 66.200 364.154 66.200 H 367.154 C 367.209 66.200 367.254 66.155 367.254 66.100 V 63.200 C 367.254 63.100 367.154 63.200 367.254 63.200 H 370.054 C 370.154 63.200 370.054 63.100 370.054 63.200 V 66.100 C 370.054 66.155 370.098 66.200 370.154 66.200 H 373.154 C 373.209 66.200 373.254 66.155 373.254 66.100 V 63.200 C 373.254 63.100 373.154 63.200 373.254 63.200 H 376.054 C 376.154 63.200 376.054 63.100 376.054 63.200 V 66.100 C 376.054 66.155 376.098 66.200 376.154 66.200 H 381.654 C 381.709 66.200 381.754 66.155 381.754 66.100 V 63.100 V 57.700 C 381.754 57.600 381.654 57.700 381.754 57.700 H 384.654 C 384.709 57.700 384.754 57.655 384.754 57.600 V 54.600 C 384.754 54.545 384.709 54.500 384.654 54.500 H 381.754 C 381.654 54.500 381.754 54.600 381.754 54.500 V 51.700 C 381.754 51.600 381.654 51.700 381.754 51.700 H 384.654 C 384.709 51.700 384.754 51.655 384.754 51.600 V 48.600 C 384.754 48.545 384.709 48.500 384.654 48.500 H 381.754 C 381.654 48.500 381.754 48.600 381.754 48.500 V 45.700 C 381.754 45.600 381.654 45.700 381.754 45.700 H 384.654 C 384.709 45.700 384.754 45.655 384.754 45.600 V 42.600 C 384.754 42.545 384.709 42.500 384.654 42.500 H 381.754 C 381.654 42.500 381.754 42.600 381.754 42.500 V 39.700 C 381.754 39.600 381.654 39.700 381.754 39.700 H 384.654 C 384.709 39.700 384.754 39.655 384.754 39.600 V 36.600 C 384.754 36.545 384.709 36.500 384.654 36.500 H 381.754 C 381.654 36.500 381.754 36.600 381.754 36.500 V 33.700 C 381.754 33.600 381.654 33.700 381.754 33.700 H 384.654 C 384.709 33.700 384.754 33.655 384.754 33.600 V 30.600 C 384.754 30.545 384.709 30.500 384.654 30.500 H 381.754 C 381.654 30.500 381.754 30.600 381.754 30.500 V 27.700 C 381.754 27.600 381.654 27.700 381.754 27.700 H 384.654 C 384.709 27.700 384.754 27.655 384.754 27.600 V 24.600 C 384.754 24.545 384.709 24.500 384.654 24.500 H 381.754 C 381.654 24.500 381.754 24.600 381.754 24.500 V 21.700 C 381.754 21.600 381.654 21.700 381.754 21.700 H 384.654 C 384.709 21.700 384.754 21.655 384.754 21.600 V 18.600 C 384.754 18.545 384.709 18.500 384.654 18.500 H 381.754 C 381.654 18.500 381.754 18.600 381.754 18.500 V 13.100 V 10.100 C 381.754 10.045 381.709 10.000 381.654 10.000 H 376.154 C 376.098 10.000 376.054 10.045 376.054 10.100 V 13.000 C 376.054 13.100 376.154 13.000 376.054 13.000 H 373.254 C 373.154 13.000 373.254 13.100 373.254 13.000 V 10.100 C 373.254 10.045 373.209 10.000 373.154 10.000 H 370.154 C 370.098 10.000 370.054 10.045 370.054 10.100 V 13.000 C 370.054 13.100 370.154 13.000 370.054 13.000 H 367.254 C 367.154 13.000 367.254 13.100 367.254 13.000 V 10.100 C 367.254 10.045 367.209 10.000 367.154 10.000 H 364.154 C 364.098 10.000 364.054 10.045 364.054 10.100 V 13.000 C 364.054 13.100 364.154 13.000 364.054 13.000 H 361.254 C 361.154 13.000 361.254 13.100 361.254 13.000 V 10.100 C 361.254 10.045 361.209 10.000 361.154 10.000 H 358.154 C 358.098 10.000 358.054 10.045 358.054 10.100 V 13.000 C 358.054 13.100 358.154 13.000 358.054 13.000 H 355.254 C 355.154 13.000 355.254 13.100 355.254 13.000 V 10.100 C 355.254 10.045 355.209 10.000 355.154 10.000 H 352.154 C 352.098 10.000 352.054 10.045 352.054 10.100 V 13.000 C 352.054 13.100 352.154 13.000 352.054 13.000 H 349.254 C 349.154 13.000 349.254 13.100 349.254 13.000 V 10.100 C 349.254 10.045 349.209 10.000 349.154 10.000 H 346.154 C 346.098 10.000 346.054 10.045 346.054 10.100 V 13.000 C 346.054 13.100 346.154 13.000 346.054 13.000 H 343.254 C 343.154 13.000 343.254 13.100 343.254 13.000 V 10.100 C 343.254 10.045 343.209 10.000 343.154 10.000 H 340.154 C 340.098 10.000 340.054 10.045 340.054 10.100 V 13.000 C 340.054 13.100 340.154 13.000 340.054 13.000 H 337.254 C 337.154 13.000 337.254 13.100 337.254 13.000 V 10.100 C 337.254 10.045 337.209 10.000 337.154 10.000 H 331.654 C 331.598 10.000 331.554 10.045 331.554 10.100 V 13.100 V 18.500 C 331.554 18.600 331.654 18.500 331.554 18.500 H 328.654 C 328.598 18.500 328.554 18.545 328.554 18.600 V 21.600 C 328.554 21.655 328.598 21.700 328.654 21.700 H 331.554 C 331.654 21.700 331.554 21.600 331.554 21.700 V 24.500 C 331.554 24.600 331.654 24.500 331.554 24.500 H 328.654 C 328.598 24.500 328.554 24.545 328.554 24.600 V 27.600 C 328.554 27.655 328.598 27.700 328.654 27.700 H 331.554 C 331.654 27.700 331.554 27.600 331.554 27.700 V 30.500 C 331.554 30.600 331.654 30.500 331.554 30.500 H 328.654 C 328.598 30.500 328.554 30.545 328.554 30.600 V 33.600 C 328.554 33.655 328.598 33.700 328.654 33.700 H 331.554 C 331.654 33.700 331.554 33.600 331.554 33.700 V 36.500 C 331.554 36.600 331.654 36.500 331.554 36.500 H 328.654 C 328.598 36.500 328.554 36.545 328.554 36.600 V 39.600 C 328.554 39.655 328.598 39.700 328.654 39.700 H 331.554 C 331.654 39.700 331.554 39.600 331.554 39.700 V 42.500 C 331.554 42.600 331.654 42.500 331.554 42.500 H 328.654 C 328.598 42.500 328.554 42.545 328.554 42.600 V 45.600 C 328.554 45.655 328.598 45.700 328.654 45.700 H 331.554 C 331.654 45.700 331.554 45.600 331.554 45.700 V 48.500 C 331.554 48.600 331.654 48.500 331.554 48.500 H 328.654 C 328.598 48.500 328.554 48.545 328.554 48.600 V 51.600 C 328.554 51.655 328.598 51.700 328.654 51.700 H 331.554 C 331.654 51.700 331.554 51.600 331.554 51.700 V 54.500 C 331.554 54.600 331.654 54.500 331.554 54.500 H 328.654 C 328.598 54.500 328.554 54.545 328.554 54.600 V 57.600 C 328.554 57.655 328.598 57.700 328.654 57.700 H 331.554 C 331.654 57.700 331.554 57.600 331.554 57.700 V 63.100 V 66.100 C 331.554 66.155 331.598 66.200 331.654 66.200 Z" stroke="rgb(0,0,0)" stroke-width="0.20" />
</g>
</svg>