<?xml version='1.0' encoding='utf-8'?>
<svg height="697.30mm" viewBox="0.0 0.0 342.05 697.30" width="342.05mm" xmlns="http://www.w3.org/2000/svg" xmlns:cc="http://creativecommons.org/ns#" xmlns:dc="http://purl.org/dc/elements/1.1/" xmlns:inkscape="http://www.inkscape.org/namespaces/inkscape" xmlns:rdf="http://www.w3.org/1999/02/22-rdf-syntax-ns#" xmlns:svg="http://www.w3.org/2000/svg" xmlns:xlink="http://www.w3.org/1999/xlink">
<!--
MagazineFile - Open magazine file

Created with Boxes.py (https://festi.info/boxes.py)
Command line (remove spaces between dashes): boxes MagazineFile
-->
<title>MagazineFile</title>
<metadata>
<rdf:RDF><cc:Work>
<dc:title>Misc - MagazineFile</dc:title>
<dc:source>boxes MagazineFile</dc:source>
<dc:description>Open magazine file

Created with Boxes.py (https://festi.info/boxes.py)
Command line: boxes MagazineFile
Command line short: boxes MagazineFile
</dc:description>
</cc:Work></rdf:RDF></metadata>
<g id="p-0" style="fill:none;stroke-linecap:round;stroke-linejoin:round;">
  <path d="M 10.100 687.300 H 110.100 V 677.300 H 10.100 V 687.300 Z" stroke="rgb(0,0,0)" stroke-width="0.20" />
  <text dominant-baseline="hanging" font-size="6px" style="font-family: sans-serif ; font-weight: normal; font-style: normal; fill: rgb(255,0,0)" text-anchor="middle" transform="matrix( 1.000 0.000 0.000 1.000 60.100 679.300 )">100.0mm, burn:0.10mm</text>
</g>
<g id="p-1" style="fill:none;stroke-linecap:round;stroke-linejoin:round;">
  <path d="M 13.100 675.600 H 24.100 C 24.155 675.600 24.200 675.555 24.200 675.500 V 672.600 C 24.200 672.500 24.100 672.600 24.200 672.600 H 30.000 C 30.100 672.600 30.000 672.500 30.000 672.600 V 675.500 C 30.000 675.555 30.045 675.600 30.100 675.600 H 36.100 C 36.155 675.600 36.200 675.555 36.200 675.500 V 672.600 C 36.200 672.500 36.100 672.600 36.200 672.600 H 42.000 C 42.100 672.600 42.000 672.500 42.000 672.600 V 675.500 C 42.000 675.555 42.045 675.600 42.100 675.600 H 48.100 C 48.155 675.600 48.200 675.555 48.200 675.500 V 672.600 C 48.200 672.500 48.100 672.600 48.200 672.600 H 54.000 C 54.100 672.600 54.000 672.500 54.000 672.600 V 675.500 C 54.000 675.555 54.045 675.600 54.100 675.600 H 60.100 C 60.155 675.600 60.200 675.555 60.200 675.500 V 672.600 C 60.200 672.500 60.100 672.600 60.200 672.600 H 66.000 C 66.100 672.600 66.000 672.500 66.000 672.600 V 675.500 C 66.000 675.555 66.045 675.600 66.100 675.600 H 72.100 C 72.155 675.600 72.200 675.555 72.200 675.500 V 672.600 C 72.200 672.500 72.100 672.600 72.200 672.600 H 78.000 C 78.100 672.600 78.000 672.500 78.000 672.600 V 675.500 C 78.000 675.555 78.045 675.600 78.100 675.600 H 84.100 C 84.155 675.600 84.200 675.555 84.200 675.500 V 672.600 C 84.200 672.500 84.100 672.600 84.200 672.600 H 90.000 C 90.100 672.600 90.000 672.500 90.000 672.600 V 675.500 C 90.000 675.555 90.045 675.600 90.100 675.600 H 96.100 C 96.155 675.600 96.200 675.555 96.200 675.500 V 672.600 C 96.200 672.500 96.100 672.600 96.200 672.600 H 102.000 C 102.100 672.600 102.000 672.500 102.000 672.600 V 675.500 C 102.000 675.555 102.045 675.600 102.100 675.600 H 113.100 C 113.155 675.600 113.200 675.555 113.200 675.500 V 672.500 V 663.600 C 113.200 663.500 113.100 663.600 113.200 663.600 H 116.100 C 116.155 663.600 116.200 663.555 116.200 663.500 V 657.500 C 116.200 657.445 116.155 657.400 116.100 657.400 H 113.200 C 113.100 657.400 113.200 657.500 113.200 657.400 V 651.600 C 113.200 651.500 113.100 651.600 113.200 651.600 H 116.100 C 116.155 651.600 116.200 651.555 116.200 651.500 V 645.500 C 116.200 645.445 116.155 645.400 116.100 645.400 H 113.200 C 113.100 645.400 113.200 645.500 113.200 645.400 V 639.600 C 113.200 639.500 113.100 639.600 113.200 639.600 H 116.100 C 116.155 639.600 116.200 639.555 116.200 639.500 V 633.500 C 116.200 633.445 116.155 633.400 116.100 633.400 H 113.200 C 113.100 633.400 113.200 633.500 113.200 633.400 V 627.600 C 113.200 627.500 113.100 627.600 113.200 627.600 H 116.100 C 116.155 627.600 116.200 627.555 116.200 627.500 V 621.500 C 116.200 621.445 116.155 621.400 116.100 621.400 H 113.200 C 113.100 621.400 113.200 621.500 113.200 621.400 V 615.600 C 113.200 615.500 113.100 615.600 113.200 615.600 H 116.100 C 116.155 615.600 116.200 615.555 116.200 615.500 V 609.500 C 116.200 609.445 116.155 609.400 116.100 609.400 H 113.200 C 113.100 609.400 113.200 609.500 113.200 609.400 V 603.600 C 113.200 603.500 113.100 603.600 113.200 603.600 H 116.100 C 116.155 603.600 116.200 603.555 116.200 603.500 V 597.500 C 116.200 597.445 116.155 597.400 116.100 597.400 H 113.200 C 113.100 597.400 113.200 597.500 113.200 597.400 V 591.600 C 113.200 591.500 113.100 591.600 113.200 591.600 H 116.100 C 116.155 591.600 116.200 591.555 116.200 591.500 V 585.500 C 116.200 585.445 116.155 585.400 116.100 585.400 H 113.200 C 113.100 585.400 113.200 585.500 113.200 585.400 V 579.600 C 113.200 579.500 113.100 579.600 113.200 579.600 H 116.100 C 116.155 579.600 116.200 579.555 116.200 579.500 V 573.500 C 116.200 573.445 116.155 573.400 116.100 573.400 H 113.200 C 113.100 573.400 113.200 573.500 113.200 573.400 V 567.600 C 113.200 567.500 113.100 567.600 113.200 567.600 H 116.100 C 116.155 567.600 116.200 567.555 116.200 567.500 V 561.500 C 116.200 561.445 116.155 561.400 116.100 561.400 H 113.200 C 113.100 561.400 113.200 561.500 113.200 561.400 V 555.600 C 113.200 555.500 113.100 555.600 113.200 555.600 H 116.100 C 116.155 555.600 116.200 555.555 116.200 555.500 V 549.500 C 116.200 549.445 116.155 549.400 116.100 549.400 H 113.200 C 113.100 549.400 113.200 549.500 113.200 549.400 V 543.600 C 113.200 543.500 113.100 543.600 113.200 543.600 H 116.100 C 116.155 543.600 116.200 543.555 116.200 543.500 V 537.500 C 116.200 537.445 116.155 537.400 116.100 537.400 H 113.200 C 113.100 537.400 113.200 537.500 113.200 537.400 V 531.600 C 113.200 531.500 113.100 531.600 113.200 531.600 H 116.100 C 116.155 531.600 116.200 531.555 116.200 531.500 V 525.500 C 116.200 525.445 116.155 525.400 116.100 525.400 H 113.200 C 113.100 525.400 113.200 525.500 113.200 525.400 V 519.600 C 113.200 519.500 113.100 519.600 113.200 519.600 H 116.100 C 116.155 519.600 116.200 519.555 116.200 519.500 V 513.500 C 116.200 513.445 116.155 513.400 116.100 513.400 H 113.200 C 113.100 513.400 113.200 513.500 113.200 513.400 V 507.600 C 113.200 507.500 113.100 507.600 113.200 507.600 H 116.100 C 116.155 507.600 116.200 507.555 116.200 507.500 V 501.500 C 116.200 501.445 116.155 501.400 116.100 501.400 H 113.200 C 113.100 501.400 113.200 501.500 113.200 501.400 V 495.600 C 113.200 495.500 113.100 495.600 113.200 495.600 H 116.100 C 116.155 495.600 116.200 495.555 116.200 495.500 V 489.500 C 116.200 489.445 116.155 489.400 116.100 489.400 H 113.200 C 113.100 489.400 113.200 489.500 113.200 489.400 V 483.600 C 113.200 483.500 113.100 483.600 113.200 483.600 H 116.100 C 116.155 483.600 116.200 483.555 116.200 483.500 V 477.500 C 116.200 477.445 116.155 477.400 116.100 477.400 H 113.200 C 113.100 477.400 113.200 477.500 113.200 477.400 V 471.600 C 113.200 471.500 113.100 471.600 113.200 471.600 H 116.100 C 116.155 471.600 116.200 471.555 116.200 471.500 V 465.500 C 116.200 465.445 116.155 465.400 116.100 465.400 H 113.200 C 113.100 465.400 113.200 465.500 113.200 465.400 V 459.600 C 113.200 459.500 113.100 459.600 113.200 459.600 H 116.100 C 116.155 459.600 116.200 459.555 116.200 459.500 V 453.500 C 116.200 453.445 116.155 453.400 116.100 453.400 H 113.200 C 113.100 453.400 113.200 453.500 113.200 453.400 V 447.600 C 113.200 447.500 113.100 447.600 113.200 447.600 H 116.100 C 116.155 447.600 116.200 447.555 116.200 447.500 V 441.500 C 116.200 441.445 116.155 441.400 116.100 441.400 H 113.200 C 113.100 441.400 113.200 441.500 113.200 441.400 V 435.600 C 113.200 435.500 113.100 435.600 113.200 435.600 H 116.100 C 116.155 435.600 116.200 435.555 116.200 435.500 V 429.500 C 116.200 429.445 116.155 429.400 116.100 429.400 H 113.200 C 113.100 429.400 113.200 429.500 113.200 429.400 V 423.600 C 113.200 423.500 113.100 423.600 113.200 423.600 H 116.100 C 116.155 423.600 116.200 423.555 116.200 423.500 V 417.500 C 116.200 417.445 116.155 417.400 116.100 417.400 H 113.200 C 113.100 417.400 113.200 417.500 113.200 417.400 V 411.600 C 113.200 411.500 113.100 411.600 113.200 411.600 H 116.100 C 116.155 411.600 116.200 411.555 116.200 411.500 V 405.500 C 116.200 405.445 116.155 405.400 116.100 405.400 H 113.200 C 113.100 405.400 113.200 405.500 113.200 405.400 V 399.600 C 113.200 399.500 113.100 399.600 113.200 399.600 H 116.100 C 116.155 399.600 116.200 399.555 116.200 399.500 V 393.500 C 116.200 393.445 116.155 393.400 116.100 393.400 H 113.200 C 113.100 393.400 113.200 393.500 113.200 393.400 V 387.600 C 113.200 387.500 113.100 387.600 113.200 387.600 H 116.100 C 116.155 387.600 116.200 387.555 116.200 387.500 V 381.500 C 116.200 381.445 116.155 381.400 116.100 381.400 H 113.200 C 113.100 381.400 113.200 381.500 113.200 381.400 V 372.500 C 113.200 372.445 113.155 372.400 113.100 372.400 H 13.100 C 13.045 372.400 13.000 372.445 13.000 372.500 V 381.400 C 13.000 381.500 13.100 381.400 13.000 381.400 H 10.100 C 10.045 381.400 10.000 381.445 10.000 381.500 V 387.500 C 10.000 387.555 10.045 387.600 10.100 387.600 H 13.000 C 13.100 387.600 13.000 387.500 13.000 387.600 V 393.400 C 13.000 393.500 13.100 393.400 13.000 393.400 H 10.100 C 10.045 393.400 10.000 393.445 10.000 393.500 V 399.500 C 10.000 399.555 10.045 399.600 10.100 399.600 H 13.000 C 13.100 399.600 13.000 399.500 13.000 399.600 V 405.400 C 13.000 405.500 13.100 405.400 13.000 405.400 H 10.100 C 10.045 405.400 10.000 405.445 10.000 405.500 V 411.500 C 10.000 411.555 10.045 411.600 10.100 411.600 H 13.000 C 13.100 411.600 13.000 411.500 13.000 411.600 V 417.400 C 13.000 417.500 13.100 417.400 13.000 417.400 H 10.100 C 10.045 417.400 10.000 417.445 10.000 417.500 V 423.500 C 10.000 423.555 10.045 423.600 10.100 423.600 H 13.000 C 13.100 423.600 13.000 423.500 13.000 423.600 V 429.400 C 13.000 429.500 13.100 429.400 13.000 429.400 H 10.100 C 10.045 429.400 10.000 429.445 10.000 429.500 V 435.500 C 10.000 435.555 10.045 435.600 10.100 435.600 H 13.000 C 13.100 435.600 13.000 435.500 13.000 435.600 V 441.400 C 13.000 441.500 13.100 441.400 13.000 441.400 H 10.100 C 10.045 441.400 10.000 441.445 10.000 441.500 V 447.500 C 10.000 447.555 10.045 447.600 10.100 447.600 H 13.000 C 13.100 447.600 13.000 447.500 13.000 447.600 V 453.400 C 13.000 453.500 13.100 453.400 13.000 453.400 H 10.100 C 10.045 453.400 10.000 453.445 10.000 453.500 V 459.500 C 10.000 459.555 10.045 459.600 10.100 459.600 H 13.000 C 13.100 459.600 13.000 459.500 13.000 459.600 V 465.400 C 13.000 465.500 13.100 465.400 13.000 465.400 H 10.100 C 10.045 465.400 10.000 465.445 10.000 465.500 V 471.500 C 10.000 471.555 10.045 471.600 10.100 471.600 H 13.000 C 13.100 471.600 13.000 471.500 13.000 471.600 V 477.400 C 13.000 477.500 13.100 477.400 13.000 477.400 H 10.100 C 10.045 477.400 10.000 477.445 10.000 477.500 V 483.500 C 10.000 483.555 10.045 483.600 10.100 483.600 H 13.000 C 13.100 483.600 13.000 483.500 13.000 483.600 V 489.400 C 13.000 489.500 13.100 489.400 13.000 489.400 H 10.100 C 10.045 489.400 10.000 489.445 10.000 489.500 V 495.500 C 10.000 495.555 10.045 495.600 10.100 495.600 H 13.000 C 13.100 495.600 13.000 495.500 13.000 495.600 V 501.400 C 13.000 501.500 13.100 501.400 13.000 501.400 H 10.100 C 10.045 501.400 10.000 501.445 10.000 501.500 V 507.500 C 10.000 507.555 10.045 507.600 10.100 507.600 H 13.000 C 13.100 507.600 13.000 507.500 13.000 507.600 V 513.400 C 13.000 513.500 13.100 513.400 13.000 513.400 H 10.100 C 10.045 513.400 10.000 513.445 10.000 513.500 V 519.500 C 10.000 519.555 10.045 519.600 10.100 519.600 H 13.000 C 13.100 519.600 13.000 519.500 13.000 519.600 V 525.400 C 13.000 525.500 13.100 525.400 13.000 525.400 H 10.100 C 10.045 525.400 10.000 525.445 10.000 525.500 V 531.500 C 10.000 531.555 10.045 531.600 10.100 531.600 H 13.000 C 13.100 531.600 13.000 531.500 13.000 531.600 V 537.400 C 13.000 537.500 13.100 537.400 13.000 537.400 H 10.100 C 10.045 537.400 10.000 537.445 10.000 537.500 V 543.500 C 10.000 543.555 10.045 543.600 10.100 543.600 H 13.000 C 13.100 543.600 13.000 543.500 13.000 543.600 V 549.400 C 13.000 549.500 13.100 549.400 13.000 549.400 H 10.100 C 10.045 549.400 10.000 549.445 10.000 549.500 V 555.500 C 10.000 555.555 10.045 555.600 10.100 555.600 H 13.000 C 13.100 555.600 13.000 555.500 13.000 555.600 V 561.400 C 13.000 561.500 13.100 561.400 13.000 561.400 H 10.100 C 10.045 561.400 10.000 561.445 10.000 561.500 V 567.500 C 10.000 567.555 10.045 567.600 10.100 567.600 H 13.000 C 13.100 567.600 13.000 567.500 13.000 567.600 V 573.400 C 13.000 573.500 13.100 573.400 13.000 573.400 H 10.100 C 10.045 573.400 10.000 573.445 10.000 573.500 V 579.500 C 10.000 579.555 10.045 579.600 10.100 579.600 H 13.000 C 13.100 579.600 13.000 579.500 13.000 579.600 V 585.400 C 13.000 585.500 13.100 585.400 13.000 585.400 H 10.100 C 10.045 585.400 10.000 585.445 10.000 585.500 V 591.500 C 10.000 591.555 10.045 591.600 10.100 591.600 H 13.000 C 13.100 591.600 13.000 591.500 13.000 591.600 V 597.400 C 13.000 597.500 13.100 597.400 13.000 597.400 H 10.100 C 10.045 597.400 10.000 597.445 10.000 597.500 V 603.500 C 10.000 603.555 10.045 603.600 10.100 603.600 H 13.000 C 13.100 603.600 13.000 603.500 13.000 603.600 V 609.400 C 13.000 609.500 13.100 609.400 13.000 609.400 H 10.100 C 10.045 609.400 10.000 609.445 10.000 609.500 V 615.500 C 10.000 615.555 10.045 615.600 10.100 615.600 H 13.000 C 13.100 615.600 13.000 615.500 13.000 615.600 V 621.400 C 13.000 621.500 13.100 621.400 13.000 621.400 H 10.100 C 10.045 621.400 10.000 621.445 10.000 621.500 V 627.500 C 10.000 627.555 10.045 627.600 10.100 627.600 H 13.000 C 13.100 627.600 13.000 627.500 13.000 627.600 V 633.400 C 13.000 633.500 13.100 633.400 13.000 633.400 H 10.100 C 10.045 633.400 10.000 633.445 10.000 633.500 V 639.500 C 10.000 639.555 10.045 639.600 10.100 639.600 H 13.000 C 13.100 639.600 13.000 639.500 13.000 639.600 V 645.400 C 13.000 645.500 13.100 645.400 13.000 645.400 H 10.100 C 10.045 645.400 10.000 645.445 10.000 645.500 V 651.500 C 10.000 651.555 10.045 651.600 10.100 651.600 H 13.000 C 13.100 651.600 13.000 651.500 13.000 651.600 V 657.400 C 13.000 657.500 13.100 657.400 13.000 657.400 H 10.100 C 10.045 657.400 10.000 657.445 10.000 657.500 V 663.500 C 10.000 663.555 10.045 663.600 10.100 663.600 H 13.000 C 13.100 663.600 13.000 663.500 13.000 663.600 V 672.500 V 675.500 C 13.000 675.555 13.045 675.600 13.100 675.600 Z" stroke="rgb(0,0,0)" stroke-width="0.20" />
</g>
<g id="p-2" style="fill:none;stroke-linecap:round;stroke-linejoin:round;">
  <path d="M 13.100 370.900 H 24.100 C 24.155 370.900 24.200 370.855 24.200 370.800 V 367.900 C 24.200 367.800 24.100 367.900 24.200 367.900 H 30.000 C 30.100 367.900 30.000 367.800 30.000 367.900 V 370.800 C 30.000 370.855 30.045 370.900 30.100 370.900 H 36.100 C 36.155 370.900 36.200 370.855 36.200 370.800 V 367.900 C 36.200 367.800 36.100 367.900 36.200 367.900 H 42.000 C 42.100 367.900 42.000 367.800 42.000 367.900 V 370.800 C 42.000 370.855 42.045 370.900 42.100 370.900 H 48.100 C 48.155 370.900 48.200 370.855 48.200 370.800 V 367.900 C 48.200 367.800 48.100 367.900 48.200 367.900 H 54.000 C 54.100 367.900 54.000 367.800 54.000 367.900 V 370.800 C 54.000 370.855 54.045 370.900 54.100 370.900 H 60.100 C 60.155 370.900 60.200 370.855 60.200 370.800 V 367.900 C 60.200 367.800 60.100 367.900 60.200 367.900 H 66.000 C 66.100 367.900 66.000 367.800 66.000 367.900 V 370.800 C 66.000 370.855 66.045 370.900 66.100 370.900 H 72.100 C 72.155 370.900 72.200 370.855 72.200 370.800 V 367.900 C 72.200 367.800 72.100 367.900 72.200 367.900 H 78.000 C 78.100 367.900 78.000 367.800 78.000 367.900 V 370.800 C 78.000 370.855 78.045 370.900 78.100 370.900 H 84.100 C 84.155 370.900 84.200 370.855 84.200 370.800 V 367.900 C 84.200 367.800 84.100 367.900 84.200 367.900 H 90.000 C 90.100 367.900 90.000 367.800 90.000 367.900 V 370.800 C 90.000 370.855 90.045 370.900 90.100 370.900 H 96.100 C 96.155 370.900 96.200 370.855 96.200 370.800 V 367.900 C 96.200 367.800 96.100 367.900 96.200 367.900 H 102.000 C 102.100 367.900 102.000 367.800 102.000 367.900 V 370.800 C 102.000 370.855 102.045 370.900 102.100 370.900 H 113.100 C 113.155 370.900 113.200 370.855 113.200 370.800 V 367.800 V 361.900 C 113.200 361.800 113.100 361.900 113.200 361.900 H 116.100 C 116.155 361.900 116.200 361.855 116.200 361.800 V 355.800 C 116.200 355.745 116.155 355.700 116.100 355.700 H 113.200 C 113.100 355.700 113.200 355.800 113.200 355.700 V 349.900 C 113.200 349.800 113.100 349.900 113.200 349.900 H 116.100 C 116.155 349.900 116.200 349.855 116.200 349.800 V 343.800 C 116.200 343.745 116.155 343.700 116.100 343.700 H 113.200 C 113.100 343.700 113.200 343.800 113.200 343.700 V 337.900 C 113.200 337.800 113.100 337.900 113.200 337.900 H 116.100 C 116.155 337.900 116.200 337.855 116.200 337.800 V 331.800 C 116.200 331.745 116.155 331.700 116.100 331.700 H 113.200 C 113.100 331.700 113.200 331.800 113.200 331.700 V 325.900 C 113.200 325.800 113.100 325.900 113.200 325.900 H 116.100 C 116.155 325.900 116.200 325.855 116.200 325.800 V 319.800 C 116.200 319.745 116.155 319.700 116.100 319.700 H 113.200 C 113.100 319.700 113.200 319.800 113.200 319.700 V 313.900 C 113.200 313.800 113.100 313.900 113.200 313.900 H 116.100 C 116.155 313.900 116.200 313.855 116.200 313.800 V 307.800 C 116.200 307.745 116.155 307.700 116.100 307.700 H 113.200 C 113.100 307.700 113.200 307.800 113.200 307.700 V 301.900 C 113.200 301.800 113.100 301.900 113.200 301.900 H 116.100 C 116.155 301.900 116.200 301.855 116.200 301.800 V 295.800 C 116.200 295.745 116.155 295.700 116.100 295.700 H 113.200 C 113.100 295.700 113.200 295.800 113.200 295.700 V 289.900 C 113.200 289.800 113.100 289.900 113.200 289.900 H 116.100 C 116.155 289.900 116.200 289.855 116.200 289.800 V 283.800 C 116.200 283.745 116.155 283.700 116.100 283.700 H 113.200 C 113.100 283.700 113.200 283.800 113.200 283.700 V 277.900 C 113.200 277.800 113.100 277.900 113.200 277.900 H 116.100 C 116.155 277.900 116.200 277.855 116.200 277.800 V 271.800 C 116.200 271.745 116.155 271.700 116.100 271.700 H 113.200 C 113.100 271.700 113.200 271.800 113.200 271.700 V 265.900 C 113.200 265.800 113.100 265.900 113.200 265.900 H 116.100 C 116.155 265.900 116.200 265.855 116.200 265.800 V 259.800 C 116.200 259.745 116.155 259.700 116.100 259.700 H 113.200 C 113.100 259.700 113.200 259.800 113.200 259.700 V 253.900 C 113.200 253.800 113.100 253.900 113.200 253.900 H 116.100 C 116.155 253.900 116.200 253.855 116.200 253.800 V 247.800 C 116.200 247.745 116.155 247.700 116.100 247.700 H 113.200 C 113.100 247.700 113.200 247.800 113.200 247.700 V 241.900 C 113.200 241.800 113.100 241.900 113.200 241.900 H 116.100 C 116.155 241.900 116.200 241.855 116.200 241.800 V 235.800 C 116.200 235.745 116.155 235.700 116.100 235.700 H 113.200 C 113.100 235.700 113.200 235.800 113.200 235.700 V 229.900 C 113.200 229.800 113.100 229.900 113.200 229.900 H 116.100 C 116.155 229.900 116.200 229.855 116.200 229.800 V 223.800 C 116.200 223.745 116.155 223.700 116.100 223.700 H 113.200 C 113.100 223.700 113.200 223.800 113.200 223.700 V 217.800 C 113.200 217.745 113.155 217.700 113.100 217.700 H 13.100 C 13.045 217.700 13.000 217.745 13.000 217.800 V 223.700 C 13.000 223.800 13.100 223.700 13.000 223.700 H 10.100 C 10.045 223.700 10.000 223.745 10.000 223.800 V 229.800 C 10.000 229.855 10.045 229.900 10.100 229.900 H 13.000 C 13.100 229.900 13.000 229.800 13.000 229.900 V 235.700 C 13.000 235.800 13.100 235.700 13.000 235.700 H 10.100 C 10.045 235.700 10.000 235.745 10.000 235.800 V 241.800 C 10.000 241.855 10.045 241.900 10.100 241.900 H 13.000 C 13.100 241.900 13.000 241.800 13.000 241.900 V 247.700 C 13.000 247.800 13.100 247.700 13.000 247.700 H 10.100 C 10.045 247.700 10.000 247.745 10.000 247.800 V 253.800 C 10.000 253.855 10.045 253.900 10.100 253.900 H 13.000 C 13.100 253.900 13.000 253.800 13.000 253.900 V 259.700 C 13.000 259.800 13.100 259.700 13.000 259.700 H 10.100 C 10.045 259.700 10.000 259.745 10.000 259.800 V 265.800 C 10.000 265.855 10.045 265.900 10.100 265.900 H 13.000 C 13.100 265.900 13.000 265.800 13.000 265.900 V 271.700 C 13.000 271.800 13.100 271.700 13.000 271.700 H 10.100 C 10.045 271.700 10.000 271.745 10.000 271.800 V 277.800 C 10.000 277.855 10.045 277.900 10.100 277.900 H 13.000 C 13.100 277.900 13.000 277.800 13.000 277.900 V 283.700 C 13.000 283.800 13.100 283.700 13.000 283.700 H 10.100 C 10.045 283.700 10.000 283.745 10.000 283.800 V 289.800 C 10.000 289.855 10.045 289.900 10.100 289.900 H 13.000 C 13.100 289.900 13.000 289.800 13.000 289.900 V 295.700 C 13.000 295.800 13.100 295.700 13.000 295.700 H 10.100 C 10.045 295.700 10.000 295.745 10.000 295.800 V 301.800 C 10.000 301.855 10.045 301.900 10.100 301.900 H 13.000 C 13.100 301.900 13.000 301.800 13.000 301.900 V 307.700 C 13.000 307.800 13.100 307.700 13.000 307.700 H 10.100 C 10.045 307.700 10.000 307.745 10.000 307.800 V 313.800 C 10.000 313.855 10.045 313.900 10.100 313.900 H 13.000 C 13.100 313.900 13.000 313.800 13.000 313.900 V 319.700 C 13.000 319.800 13.100 319.700 13.000 319.700 H 10.100 C 10.045 319.700 10.000 319.745 10.000 319.800 V 325.800 C 10.000 325.855 10.045 325.900 10.100 325.900 H 13.000 C 13.100 325.900 13.000 325.800 13.000 325.900 V 331.700 C 13.000 331.800 13.100 331.700 13.000 331.700 H 10.100 C 10.045 331.700 10.000 331.745 10.000 331.800 V 337.800 C 10.000 337.855 10.045 337.900 10.100 337.900 H 13.000 C 13.100 337.900 13.000 337.800 13.000 337.900 V 343.700 C 13.000 343.800 13.100 343.700 13.000 343.700 H 10.100 C 10.045 343.700 10.000 343.745 10.000 343.800 V 349.800 C 10.000 349.855 10.045 349.900 10.100 349.900 H 13.000 C 13.100 349.900 13.000 349.800 13.000 349.900 V 355.700 C 13.000 355.800 13.100 355.700 13.000 355.700 H 10.100 C 10.045 355.700 10.000 355.745 10.000 355.800 V 361.800 C 10.000 361.855 10.045 361.900 10.100 361.900 H 13.000 C 13.100 361.900 13.000 361.800 13.000 361.900 V 367.800 V 370.800 C 13.000 370.855 13.045 370.900 13.100 370.900 Z" stroke="rgb(0,0,0)" stroke-width="0.20" />
</g>
<g id="p-3" style="fill:none;stroke-linecap:round;stroke-linejoin:round;">
  <path d="M 13.100 213.200 H 24.000 C 24.100 213.200 24.000 213.100 24.000 213.200 V 216.100 C 24.000 216.155 24.045 216.200 24.100 216.200 H 30.100 C 30.155 216.200 30.200 216.155 30.200 216.100 V 213.200 C 30.200 213.100 30.100 213.200 30.200 213.200 H 36.000 C 36.100 213.200 36.000 213.100 36.000 213.200 V 216.100 C 36.000 216.155 36.045 216.200 36.100 216.200 H 42.100 C 42.155 216.200 42.200 216.155 42.200 216.100 V 213.200 C 42.200 213.100 42.100 213.200 42.200 213.200 H 48.000 C 48.100 213.200 48.000 213.100 48.000 213.200 V 216.100 C 48.000 216.155 48.045 216.200 48.100 216.200 H 54.100 C 54.155 216.200 54.200 216.155 54.200 216.100 V 213.200 C 54.200 213.100 54.100 213.200 54.200 213.200 H 60.000 C 60.100 213.200 60.000 213.100 60.000 213.200 V 216.100 C 60.000 216.155 60.045 216.200 60.100 216.200 H 66.100 C 66.155 216.200 66.200 216.155 66.200 216.100 V 213.200 C 66.200 213.100 66.100 213.200 66.200 213.200 H 72.000 C 72.100 213.200 72.000 213.100 72.000 213.200 V 216.100 C 72.000 216.155 72.045 216.200 72.100 216.200 H 78.100 C 78.155 216.200 78.200 216.155 78.200 216.100 V 213.200 C 78.200 213.100 78.100 213.200 78.200 213.200 H 84.000 C 84.100 213.200 84.000 213.100 84.000 213.200 V 216.100 C 84.000 216.155 84.045 216.200 84.100 216.200 H 90.100 C 90.155 216.200 90.200 216.155 90.200 216.100 V 213.200 C 90.200 213.100 90.100 213.200 90.200 213.200 H 96.000 C 96.100 213.200 96.000 213.100 96.000 213.200 V 216.100 C 96.000 216.155 96.045 216.200 96.100 216.200 H 102.100 C 102.155 216.200 102.200 216.155 102.200 216.100 V 213.200 C 102.200 213.100 102.100 213.200 102.200 213.200 H 113.100 C 113.155 213.200 113.200 213.155 113.200 213.100 V 206.200 C 113.200 206.100 113.100 206.200 113.200 206.200 H 116.100 C 116.155 206.200 116.200 206.155 116.200 206.100 V 200.100 C 116.200 200.045 116.155 200.000 116.100 200.000 H 113.200 C 113.100 200.000 113.200 200.100 113.200 200.000 V 194.200 C 113.200 194.100 113.100 194.200 113.200 194.200 H 116.100 C 116.155 194.200 116.200 194.155 116.200 194.100 V 188.100 C 116.200 188.045 116.155 188.000 116.100 188.000 H 113.200 C 113.100 188.000 113.200 188.100 113.200 188.000 V 182.200 C 113.200 182.100 113.100 182.200 113.200 182.200 H 116.100 C 116.155 182.200 116.200 182.155 116.200 182.100 V 176.100 C 116.200 176.045 116.155 176.000 116.100 176.000 H 113.200 C 113.100 176.000 113.200 176.100 113.200 176.000 V 170.200 C 113.200 170.100 113.100 170.200 113.200 170.200 H 116.100 C 116.155 170.200 116.200 170.155 116.200 170.100 V 164.100 C 116.200 164.045 116.155 164.000 116.100 164.000 H 113.200 C 113.100 164.000 113.200 164.100 113.200 164.000 V 158.200 C 113.200 158.100 113.100 158.200 113.200 158.200 H 116.100 C 116.155 158.200 116.200 158.155 116.200 158.100 V 152.100 C 116.200 152.045 116.155 152.000 116.100 152.000 H 113.200 C 113.100 152.000 113.200 152.100 113.200 152.000 V 146.200 C 113.200 146.100 113.100 146.200 113.200 146.200 H 116.100 C 116.155 146.200 116.200 146.155 116.200 146.100 V 140.100 C 116.200 140.045 116.155 140.000 116.100 140.000 H 113.200 C 113.100 140.000 113.200 140.100 113.200 140.000 V 134.200 C 113.200 134.100 113.100 134.200 113.200 134.200 H 116.100 C 116.155 134.200 116.200 134.155 116.200 134.100 V 128.100 C 116.200 128.045 116.155 128.000 116.100 128.000 H 113.200 C 113.100 128.000 113.200 128.100 113.200 128.000 V 122.200 C 113.200 122.100 113.100 122.200 113.200 122.200 H 116.100 C 116.155 122.200 116.200 122.155 116.200 122.100 V 116.100 C 116.200 116.045 116.155 116.000 116.100 116.000 H 113.200 C 113.100 116.000 113.200 116.100 113.200 116.000 V 110.200 C 113.200 110.100 113.100 110.200 113.200 110.200 H 116.100 C 116.155 110.200 116.200 110.155 116.200 110.100 V 104.100 C 116.200 104.045 116.155 104.000 116.100 104.000 H 113.200 C 113.100 104.000 113.200 104.100 113.200 104.000 V 98.200 C 113.200 98.100 113.100 98.200 113.200 98.200 H 116.100 C 116.155 98.200 116.200 98.155 116.200 98.100 V 92.100 C 116.200 92.045 116.155 92.000 116.100 92.000 H 113.200 C 113.100 92.000 113.200 92.100 113.200 92.000 V 86.200 C 113.200 86.100 113.100 86.200 113.200 86.200 H 116.100 C 116.155 86.200 116.200 86.155 116.200 86.100 V 80.100 C 116.200 80.045 116.155 80.000 116.100 80.000 H 113.200 C 113.100 80.000 113.200 80.100 113.200 80.000 V 74.200 C 113.200 74.100 113.100 74.200 113.200 74.200 H 116.100 C 116.155 74.200 116.200 74.155 116.200 74.100 V 68.100 C 116.200 68.045 116.155 68.000 116.100 68.000 H 113.200 C 113.100 68.000 113.200 68.100 113.200 68.000 V 62.200 C 113.200 62.100 113.100 62.200 113.200 62.200 H 116.100 C 116.155 62.200 116.200 62.155 116.200 62.100 V 56.100 C 116.200 56.045 116.155 56.000 116.100 56.000 H 113.200 C 113.100 56.000 113.200 56.100 113.200 56.000 V 50.200 C 113.200 50.100 113.100 50.200 113.200 50.200 H 116.100 C 116.155 50.200 116.200 50.155 116.200 50.100 V 44.100 C 116.200 44.045 116.155 44.000 116.100 44.000 H 113.200 C 113.100 44.000 113.200 44.100 113.200 44.000 V 38.200 C 113.200 38.100 113.100 38.200 113.200 38.200 H 116.100 C 116.155 38.200 116.200 38.155 116.200 38.100 V 32.100 C 116.200 32.045 116.155 32.000 116.100 32.000 H 113.200 C 113.100 32.000 113.200 32.100 113.200 32.000 V 26.200 C 113.200 26.100 113.100 26.200 113.200 26.200 H 116.100 C 116.155 26.200 116.200 26.155 116.200 26.100 V 20.100 C 116.200 20.045 116.155 20.000 116.100 20.000 H 113.200 C 113.100 20.000 113.200 20.100 113.200 20.000 V 13.100 C 113.200 13.045 113.155 13.000 113.100 13.000 H 102.200 C 102.100 13.000 102.200 13.100 102.200 13.000 V 10.100 C 102.200 10.045 102.155 10.000 102.100 10.000 H 96.100 C 96.045 10.000 96.000 10.045 96.000 10.100 V 13.000 C 96.000 13.100 96.100 13.000 96.000 13.000 H 90.200 C 90.100 13.000 90.200 13.100 90.200 13.000 V 10.100 C 90.200 10.045 90.155 10.000 90.100 10.000 H 84.100 C 84.045 10.000 84.000 10.045 84.000 10.100 V 13.000 C 84.000 13.100 84.100 13.000 84.000 13.000 H 78.200 C 78.100 13.000 78.200 13.100 78.200 13.000 V 10.100 C 78.200 10.045 78.155 10.000 78.100 10.000 H 72.100 C 72.045 10.000 72.000 10.045 72.000 10.100 V 13.000 C 72.000 13.100 72.100 13.000 72.000 13.000 H 66.200 C 66.100 13.000 66.200 13.100 66.200 13.000 V 10.100 C 66.200 10.045 66.155 10.000 66.100 10.000 H 60.100 C 60.045 10.000 60.000 10.045 60.000 10.100 V 13.000 C 60.000 13.100 60.100 13.000 60.000 13.000 H 54.200 C 54.100 13.000 54.200 13.100 54.200 13.000 V 10.100 C 54.200 10.045 54.155 10.000 54.100 10.000 H 48.100 C 48.045 10.000 48.000 10.045 48.000 10.100 V 13.000 C 48.000 13.100 48.100 13.000 48.000 13.000 H 42.200 C 42.100 13.000 42.200 13.100 42.200 13.000 V 10.100 C 42.200 10.045 42.155 10.000 42.100 10.000 H 36.100 C 36.045 10.000 36.000 10.045 36.000 10.100 V 13.000 C 36.000 13.100 36.100 13.000 36.000 13.000 H 30.200 C 30.100 13.000 30.200 13.100 30.200 13.000 V 10.100 C 30.200 10.045 30.155 10.000 30.100 10.000 H 24.100 C 24.045 10.000 24.000 10.045 24.000 10.100 V 13.000 C 24.000 13.100 24.100 13.000 24.000 13.000 H 13.100 C 13.045 13.000 13.000 13.045 13.000 13.100 V 20.000 C 13.000 20.100 13.100 20.000 13.000 20.000 H 10.100 C 10.045 20.000 10.000 20.045 10.000 20.100 V 26.100 C 10.000 26.155 10.045 26.200 10.100 26.200 H 13.000 C 13.100 26.200 13.000 26.100 13.000 26.200 V 32.000 C 13.000 32.100 13.100 32.000 13.000 32.000 H 10.100 C 10.045 32.000 10.000 32.045 10.000 32.100 V 38.100 C 10.000 38.155 10.045 38.200 10.100 38.200 H 13.000 C 13.100 38.200 13.000 38.100 13.000 38.200 V 44.000 C 13.000 44.100 13.100 44.000 13.000 44.000 H 10.100 C 10.045 44.000 10.000 44.045 10.000 44.100 V 50.100 C 10.000 50.155 10.045 50.200 10.100 50.200 H 13.000 C 13.100 50.200 13.000 50.100 13.000 50.200 V 56.000 C 13.000 56.100 13.100 56.000 13.000 56.000 H 10.100 C 10.045 56.000 10.000 56.045 10.000 56.100 V 62.100 C 10.000 62.155 10.045 62.200 10.100 62.200 H 13.000 C 13.100 62.200 13.000 62.100 13.000 62.200 V 68.000 C 13.000 68.100 13.100 68.000 13.000 68.000 H 10.100 C 10.045 68.000 10.000 68.045 10.000 68.100 V 74.100 C 10.000 74.155 10.045 74.200 10.100 74.200 H 13.000 C 13.100 74.200 13.000 74.100 13.000 74.200 V 80.000 C 13.000 80.100 13.100 80.000 13.000 80.000 H 10.100 C 10.045 80.000 10.000 80.045 10.000 80.100 V 86.100 C 10.000 86.155 10.045 86.200 10.100 86.200 H 13.000 C 13.100 86.200 13.000 86.100 13.000 86.200 V 92.000 C 13.000 92.100 13.100 92.000 13.000 92.000 H 10.100 C 10.045 92.000 10.000 92.045 10.000 92.100 V 98.100 C 10.000 98.155 10.045 98.200 10.100 98.200 H 13.000 C 13.100 98.200 13.000 98.100 13.000 98.200 V 104.000 C 13.000 104.100 13.100 104.000 13.000 104.000 H 10.100 C 10.045 104.000 10.000 104.045 10.000 104.100 V 110.100 C 10.000 110.155 10.045 110.200 10.100 110.200 H 13.000 C 13.100 110.200 13.000 110.100 13.000 110.200 V 116.000 C 13.000 116.100 13.100 116.000 13.000 116.000 H 10.100 C 10.045 116.000 10.000 116.045 10.000 116.100 V 122.100 C 10.000 122.155 10.045 122.200 10.100 122.200 H 13.000 C 13.100 122.200 13.000 122.100 13.000 122.200 V 128.000 C 13.000 128.100 13.100 128.000 13.000 128.000 H 10.100 C 10.045 128.000 10.000 128.045 10.000 128.100 V 134.100 C 10.000 134.155 10.045 134.200 10.100 134.200 H 13.000 C 13.100 134.200 13.000 134.100 13.000 134.200 V 140.000 C 13.000 140.100 13.100 140.000 13.000 140.000 H 10.100 C 10.045 140.000 10.000 140.045 10.000 140.100 V 146.100 C 10.000 146.155 10.045 146.200 10.100 146.200 H 13.000 C 13.100 146.200 13.000 146.100 13.000 146.200 V 152.000 C 13.000 152.100 13.100 152.000 13.000 152.000 H 10.100 C 10.045 152.000 10.000 152.045 10.000 152.100 V 158.100 C 10.000 158.155 10.045 158.200 10.100 158.200 H 13.000 C 13.100 158.200 13.000 158.100 13.000 158.200 V 164.000 C 13.000 164.100 13.100 164.000 13.000 164.000 H 10.100 C 10.045 164.000 10.000 164.045 10.000 164.100 V 170.100 C 10.000 170.155 10.045 170.200 10.100 170.200 H 13.000 C 13.100 170.200 13.000 170.100 13.000 170.200 V 176.000 C 13.000 176.100 13.100 176.000 13.000 176.000 H 10.100 C 10.045 176.000 10.000 176.045 10.000 176.100 V 182.100 C 10.000 182.155 10.045 182.200 10.100 182.200 H 13.000 C 13.100 182.200 13.000 182.100 13.000 182.200 V 188.000 C 13.000 188.100 13.100 188.000 13.000 188.000 H 10.100 C 10.045 188.000 10.000 188.045 10.000 188.100 V 194.100 C 10.000 194.155 10.045 194.200 10.100 194.200 H 13.000 C 13.100 194.200 13.000 194.100 13.000 194.200 V 200.000 C 13.000 200.100 13.100 200.000 13.000 200.000 H 10.100 C 10.045 200.000 10.000 200.045 10.000 200.100 V 206.100 C 10.000 206.155 10.045 206.200 10.100 206.200 H 13.000 C 13.100 206.200 13.000 206.100 13.000 206.200 V 213.100 C 13.000 213.155 13.045 213.200 13.100 213.200 Z" stroke="rgb(0,0,0)" stroke-width="0.20" />
</g>
<g id="p-4" style="fill:none;stroke-linecap:round;stroke-linejoin:round;">
  <path d="M 119.950 673.450 H 122.950 H 129.950 C 130.005 673.450 130.050 673.405 130.050 673.350 V 670.450 C 130.050 670.350 129.950 670.450 130.050 670.450 H 135.850 C 135.950 670.450 135.850 670.350 135.850 670.450 V 673.350 C 135.850 673.405 135.895 673.450 135.950 673.450 H 141.950 C 142.005 673.450 142.050 673.405 142.050 673.350 V 670.450 C 142.050 670.350 141.950 670.450 142.050 670.450 H 147.850 C 147.950 670.450 147.850 670.350 147.850 670.450 V 673.350 C 147.850 673.405 147.895 673.450 147.950 673.450 H 153.950 C 154.005 673.450 154.050 673.405 154.050 673.350 V 670.450 C 154.050 670.350 153.950 670.450 154.050 670.450 H 159.850 C 159.950 670.450 159.850 670.350 159.850 670.450 V 673.350 C 159.850 673.405 159.895 673.450 159.950 673.450 H 165.950 C 166.005 673.450 166.050 673.405 166.050 673.350 V 670.450 C 166.050 670.350 165.950 670.450 166.050 670.450 H 171.850 C 171.950 670.450 171.850 670.350 171.850 670.450 V 673.350 C 171.850 673.405 171.895 673.450 171.950 673.450 H 177.950 C 178.005 673.450 178.050 673.405 178.050 673.350 V 670.450 C 178.050 670.350 177.950 670.450 178.050 670.450 H 183.850 C 183.950 670.450 183.850 670.350 183.850 670.450 V 673.350 C 183.850 673.405 183.895 673.450 183.950 673.450 H 189.950 C 190.005 673.450 190.050 673.405 190.050 673.350 V 670.450 C 190.050 670.350 189.950 670.450 190.050 670.450 H 195.850 C 195.950 670.450 195.850 670.350 195.850 670.450 V 673.350 C 195.850 673.405 195.895 673.450 195.950 673.450 H 201.950 C 202.005 673.450 202.050 673.405 202.050 673.350 V 670.450 C 202.050 670.350 201.950 670.450 202.050 670.450 H 207.850 C 207.950 670.450 207.850 670.350 207.850 670.450 V 673.350 C 207.850 673.405 207.895 673.450 207.950 673.450 H 213.950 C 214.005 673.450 214.050 673.405 214.050 673.350 V 670.450 C 214.050 670.350 213.950 670.450 214.050 670.450 H 219.850 C 219.950 670.450 219.850 670.350 219.850 670.450 V 673.350 C 219.850 673.405 219.895 673.450 219.950 673.450 H 225.950 C 226.005 673.450 226.050 673.405 226.050 673.350 V 670.450 C 226.050 670.350 225.950 670.450 226.050 670.450 H 231.850 C 231.950 670.450 231.850 670.350 231.850 670.450 V 673.350 C 231.850 673.405 231.895 673.450 231.950 673.450 H 237.950 C 238.005 673.450 238.050 673.405 238.050 673.350 V 670.450 C 238.050 670.350 237.950 670.450 238.050 670.450 H 243.850 C 243.950 670.450 243.850 670.350 243.850 670.450 V 673.350 C 243.850 673.405 243.895 673.450 243.950 673.450 H 249.950 C 250.005 673.450 250.050 673.405 250.050 673.350 V 670.450 C 250.050 670.350 249.950 670.450 250.050 670.450 H 255.850 C 255.950 670.450 255.850 670.350 255.850 670.450 V 673.350 C 255.850 673.405 255.895 673.450 255.950 673.450 H 261.950 C 262.005 673.450 262.050 673.405 262.050 673.350 V 670.450 C 262.050 670.350 261.950 670.450 262.050 670.450 H 267.850 C 267.950 670.450 267.850 670.350 267.850 670.450 V 673.350 C 267.850 673.405 267.895 673.450 267.950 673.450 H 273.950 C 274.005 673.450 274.050 673.405 274.050 673.350 V 670.450 C 274.050 670.350 273.950 670.450 274.050 670.450 H 279.850 C 279.950 670.450 279.850 670.350 279.850 670.450 V 673.350 C 279.850 673.405 279.895 673.450 279.950 673.450 H 285.950 C 286.005 673.450 286.050 673.405 286.050 673.350 V 670.450 C 286.050 670.350 285.950 670.450 286.050 670.450 H 291.850 C 291.950 670.450 291.850 670.350 291.850 670.450 V 673.350 C 291.850 673.405 291.895 673.450 291.950 673.450 H 297.950 C 298.005 673.450 298.050 673.405 298.050 673.350 V 670.450 C 298.050 670.350 297.950 670.450 298.050 670.450 H 303.850 C 303.950 670.450 303.850 670.350 303.850 670.450 V 673.350 C 303.850 673.405 303.895 673.450 303.950 673.450 H 309.950 C 310.005 673.450 310.050 673.405 310.050 673.350 V 670.450 C 310.050 670.350 309.950 670.450 310.050 670.450 H 315.850 C 315.950 670.450 315.850 670.350 315.850 670.450 V 673.350 C 315.850 673.405 315.895 673.450 315.950 673.450 H 322.950 H 325.950 C 326.005 673.450 326.050 673.405 326.050 673.350 V 670.350 V 664.350 C 326.050 664.295 326.005 664.250 325.950 664.250 H 323.050 C 322.950 664.250 323.050 664.350 323.050 664.250 V 658.450 C 323.050 658.350 322.950 658.450 323.050 658.450 H 325.950 C 326.005 658.450 326.050 658.405 326.050 658.350 V 652.350 C 326.050 652.295 326.005 652.250 325.950 652.250 H 323.050 C 322.950 652.250 323.050 652.350 323.050 652.250 V 646.450 C 323.050 646.350 322.950 646.450 323.050 646.450 H 325.950 C 326.005 646.450 326.050 646.405 326.050 646.350 V 640.350 C 326.050 640.295 326.005 640.250 325.950 640.250 H 323.050 C 322.950 640.250 323.050 640.350 323.050 640.250 V 634.450 C 323.050 634.350 322.950 634.450 323.050 634.450 H 325.950 C 326.005 634.450 326.050 634.405 326.050 634.350 V 628.350 C 326.050 628.295 326.005 628.250 325.950 628.250 H 323.050 C 322.950 628.250 323.050 628.350 323.050 628.250 V 622.450 C 323.050 622.350 322.950 622.450 323.050 622.450 H 325.950 C 326.005 622.450 326.050 622.405 326.050 622.350 V 616.350 C 326.050 616.295 326.005 616.250 325.950 616.250 H 323.050 C 322.950 616.250 323.050 616.350 323.050 616.250 V 610.450 C 323.050 610.350 322.950 610.450 323.050 610.450 H 325.950 C 326.005 610.450 326.050 610.405 326.050 610.350 V 604.350 C 326.050 604.295 326.005 604.250 325.950 604.250 H 323.050 C 322.950 604.250 323.050 604.350 323.050 604.250 V 598.450 C 323.050 598.350 322.950 598.450 323.050 598.450 H 325.950 C 326.005 598.450 326.050 598.405 326.050 598.350 V 592.350 C 326.050 592.295 326.005 592.250 325.950 592.250 H 323.050 C 322.950 592.250 323.050 592.350 323.050 592.250 V 586.450 C 323.050 586.350 322.950 586.450 323.050 586.450 H 325.950 C 326.005 586.450 326.050 586.405 326.050 586.350 V 580.350 C 326.050 580.295 326.005 580.250 325.950 580.250 H 323.050 C 322.950 580.250 323.050 580.350 323.050 580.250 V 574.450 C 323.050 574.350 322.950 574.450 323.050 574.450 H 325.950 C 326.005 574.450 326.050 574.405 326.050 574.350 V 568.350 C 326.050 568.295 326.005 568.250 325.950 568.250 H 323.050 C 322.950 568.250 323.050 568.350 323.050 568.250 V 562.450 C 323.050 562.350 322.950 562.450 323.050 562.450 H 325.950 C 326.005 562.450 326.050 562.405 326.050 562.350 V 556.350 C 326.050 556.295 326.005 556.250 325.950 556.250 H 323.050 C 322.950 556.250 323.050 556.350 323.050 556.250 V 550.450 C 323.050 550.350 322.950 550.450 323.050 550.450 H 325.950 C 326.005 550.450 326.050 550.405 326.050 550.350 V 544.350 C 326.050 544.295 326.005 544.250 325.950 544.250 H 323.050 C 322.950 544.250 323.050 544.350 323.050 544.250 V 538.450 C 323.050 538.350 322.950 538.450 323.050 538.450 H 325.950 C 326.005 538.450 326.050 538.405 326.050 538.350 V 532.350 C 326.050 532.295 326.005 532.250 325.950 532.250 H 323.050 C 322.950 532.250 323.050 532.350 323.050 532.250 V 526.450 C 323.050 526.350 322.950 526.450 323.050 526.450 H 325.950 C 326.005 526.450 326.050 526.405 326.050 526.350 V 520.350 C 326.050 520.295 326.005 520.250 325.950 520.250 H 322.950 H 297.950 C 284.802 520.250 271.886 516.789 260.500 510.215 C 249.114 503.641 239.659 494.186 233.085 482.800 C 226.511 471.414 223.050 458.498 223.050 445.350 C 223.050 432.167 219.580 419.217 212.989 407.800 C 206.397 396.383 196.917 386.903 185.500 380.311 C 174.083 373.720 161.133 370.250 147.950 370.250 H 122.950 H 119.950 C 119.895 370.250 119.850 370.295 119.850 370.350 V 379.350 C 119.850 379.405 119.895 379.450 119.950 379.450 H 122.850 C 122.950 379.450 122.850 379.350 122.850 379.450 V 385.250 C 122.850 385.350 122.950 385.250 122.850 385.250 H 119.950 C 119.895 385.250 119.850 385.295 119.850 385.350 V 391.350 C 119.850 391.405 119.895 391.450 119.950 391.450 H 122.850 C 122.950 391.450 122.850 391.350 122.850 391.450 V 397.250 C 122.850 397.350 122.950 397.250 122.850 397.250 H 119.950 C 119.895 397.250 119.850 397.295 119.850 397.350 V 403.350 C 119.850 403.405 119.895 403.450 119.950 403.450 H 122.850 C 122.950 403.450 122.850 403.350 122.850 403.450 V 409.250 C 122.850 409.350 122.950 409.250 122.850 409.250 H 119.950 C 119.895 409.250 119.850 409.295 119.850 409.350 V 415.350 C 119.850 415.405 119.895 415.450 119.950 415.450 H 122.850 C 122.950 415.450 122.850 415.350 122.850 415.450 V 421.250 C 122.850 421.350 122.950 421.250 122.850 421.250 H 119.950 C 119.895 421.250 119.850 421.295 119.850 421.350 V 427.350 C 119.850 427.405 119.895 427.450 119.950 427.450 H 122.850 C 122.950 427.450 122.850 427.350 122.850 427.450 V 433.250 C 122.850 433.350 122.950 433.250 122.850 433.250 H 119.950 C 119.895 433.250 119.850 433.295 119.850 433.350 V 439.350 C 119.850 439.405 119.895 439.450 119.950 439.450 H 122.850 C 122.950 439.450 122.850 439.350 122.850 439.450 V 445.250 C 122.850 445.350 122.950 445.250 122.850 445.250 H 119.950 C 119.895 445.250 119.850 445.295 119.850 445.350 V 451.350 C 119.850 451.405 119.895 451.450 119.950 451.450 H 122.850 C 122.950 451.450 122.850 451.350 122.850 451.450 V 457.250 C 122.850 457.350 122.950 457.250 122.850 457.250 H 119.950 C 119.895 457.250 119.850 457.295 119.850 457.350 V 463.350 C 119.850 463.405 119.895 463.450 119.950 463.450 H 122.850 C 122.950 463.450 122.850 463.350 122.850 463.450 V 469.250 C 122.850 469.350 122.950 469.250 122.850 469.250 H 119.950 C 119.895 469.250 119.850 469.295 119.850 469.350 V 475.350 C 119.850 475.405 119.895 475.450 119.950 475.450 H 122.850 C 122.950 475.450 122.850 475.350 122.850 475.450 V 481.250 C 122.850 481.350 122.950 481.250 122.850 481.250 H 119.950 C 119.895 481.250 119.850 481.295 119.850 481.350 V 487.350 C 119.850 487.405 119.895 487.450 119.950 487.450 H 122.850 C 122.950 487.450 122.850 487.350 122.850 487.450 V 493.250 C 122.850 493.350 122.950 493.250 122.850 493.250 H 119.950 C 119.895 493.250 119.850 493.295 119.850 493.350 V 499.350 C 119.850 499.405 119.895 499.450 119.950 499.450 H 122.850 C 122.950 499.450 122.850 499.350 122.850 499.450 V 505.250 C 122.850 505.350 122.950 505.250 122.850 505.250 H 119.950 C 119.895 505.250 119.850 505.295 119.850 505.350 V 511.350 C 119.850 511.405 119.895 511.450 119.950 511.450 H 122.850 C 122.950 511.450 122.850 511.350 122.850 511.450 V 517.250 C 122.850 517.350 122.950 517.250 122.850 517.250 H 119.950 C 119.895 517.250 119.850 517.295 119.850 517.350 V 523.350 C 119.850 523.405 119.895 523.450 119.950 523.450 H 122.850 C 122.950 523.450 122.850 523.350 122.850 523.450 V 529.250 C 122.850 529.350 122.950 529.250 122.850 529.250 H 119.950 C 119.895 529.250 119.850 529.295 119.850 529.350 V 535.350 C 119.850 535.405 119.895 535.450 119.950 535.450 H 122.850 C 122.950 535.450 122.850 535.350 122.850 535.450 V 541.250 C 122.850 541.350 122.950 541.250 122.850 541.250 H 119.950 C 119.895 541.250 119.850 541.295 119.850 541.350 V 547.350 C 119.850 547.405 119.895 547.450 119.950 547.450 H 122.850 C 122.950 547.450 122.850 547.350 122.850 547.450 V 553.250 C 122.850 553.350 122.950 553.250 122.850 553.250 H 119.950 C 119.895 553.250 119.850 553.295 119.850 553.350 V 559.350 C 119.850 559.405 119.895 559.450 119.950 559.450 H 122.850 C 122.950 559.450 122.850 559.350 122.850 559.450 V 565.250 C 122.850 565.350 122.950 565.250 122.850 565.250 H 119.950 C 119.895 565.250 119.850 565.295 119.850 565.350 V 571.350 C 119.850 571.405 119.895 571.450 119.950 571.450 H 122.850 C 122.950 571.450 122.850 571.350 122.850 571.450 V 577.250 C 122.850 577.350 122.950 577.250 122.850 577.250 H 119.950 C 119.895 577.250 119.850 577.295 119.850 577.350 V 583.350 C 119.850 583.405 119.895 583.450 119.950 583.450 H 122.850 C 122.950 583.450 122.850 583.350 122.850 583.450 V 589.250 C 122.850 589.350 122.950 589.250 122.850 589.250 H 119.950 C 119.895 589.250 119.850 589.295 119.850 589.350 V 595.350 C 119.850 595.405 119.895 595.450 119.950 595.450 H 122.850 C 122.950 595.450 122.850 595.350 122.850 595.450 V 601.250 C 122.850 601.350 122.950 601.250 122.850 601.250 H 119.950 C 119.895 601.250 119.850 601.295 119.850 601.350 V 607.350 C 119.850 607.405 119.895 607.450 119.950 607.450 H 122.850 C 122.950 607.450 122.850 607.350 122.850 607.450 V 613.250 C 122.850 613.350 122.950 613.250 122.850 613.250 H 119.950 C 119.895 613.250 119.850 613.295 119.850 613.350 V 619.350 C 119.850 619.405 119.895 619.450 119.950 619.450 H 122.850 C 122.950 619.450 122.850 619.350 122.850 619.450 V 625.250 C 122.850 625.350 122.950 625.250 122.850 625.250 H 119.950 C 119.895 625.250 119.850 625.295 119.850 625.350 V 631.350 C 119.850 631.405 119.895 631.450 119.950 631.450 H 122.850 C 122.950 631.450 122.850 631.350 122.850 631.450 V 637.250 C 122.850 637.350 122.950 637.250 122.850 637.250 H 119.950 C 119.895 637.250 119.850 637.295 119.850 637.350 V 643.350 C 119.850 643.405 119.895 643.450 119.950 643.450 H 122.850 C 122.950 643.450 122.850 643.350 122.850 643.450 V 649.250 C 122.850 649.350 122.950 649.250 122.850 649.250 H 119.950 C 119.895 649.250 119.850 649.295 119.850 649.350 V 655.350 C 119.850 655.405 119.895 655.450 119.950 655.450 H 122.850 C 122.950 655.450 122.850 655.350 122.850 655.450 V 661.250 C 122.850 661.350 122.950 661.250 122.850 661.250 H 119.950 C 119.895 661.250 119.850 661.295 119.850 661.350 V 670.350 V 673.350 C 119.850 673.405 119.895 673.450 119.950 673.450 Z M 331.950 211.450 H 328.950 H 321.950 C 321.895 211.450 321.850 211.495 321.850 211.550 V 214.450 C 321.850 214.550 321.950 214.450 321.850 214.450 H 316.050 C 315.950 214.450 316.050 214.550 316.050 214.450 V 211.550 C 316.050 211.495 316.005 211.450 315.950 211.450 H 309.950 C 309.895 211.450 309.850 211.495 309.850 211.550 V 214.450 C 309.850 214.550 309.950 214.450 309.850 214.450 H 304.050 C 303.950 214.450 304.050 214.550 304.050 214.450 V 211.550 C 304.050 211.495 304.005 211.450 303.950 211.450 H 297.950 C 297.895 211.450 297.850 211.495 297.850 211.550 V 214.450 C 297.850 214.550 297.950 214.450 297.850 214.450 H 292.050 C 291.950 214.450 292.050 214.550 292.050 214.450 V 211.550 C 292.050 211.495 292.005 211.450 291.950 211.450 H 285.950 C 285.895 211.450 285.850 211.495 285.850 211.550 V 214.450 C 285.850 214.550 285.950 214.450 285.850 214.450 H 280.050 C 279.950 214.450 280.050 214.550 280.050 214.450 V 211.550 C 280.050 211.495 280.005 211.450 279.950 211.450 H 273.950 C 273.895 211.450 273.850 211.495 273.850 211.550 V 214.450 C 273.850 214.550 273.950 214.450 273.850 214.450 H 268.050 C 267.950 214.450 268.050 214.550 268.050 214.450 V 211.550 C 268.050 211.495 268.005 211.450 267.950 211.450 H 261.950 C 261.895 211.450 261.850 211.495 261.850 211.550 V 214.450 C 261.850 214.550 261.950 214.450 261.850 214.450 H 256.050 C 255.950 214.450 256.050 214.550 256.050 214.450 V 211.550 C 256.050 211.495 256.005 211.450 255.950 211.450 H 249.950 C 249.895 211.450 249.850 211.495 249.850 211.550 V 214.450 C 249.850 214.550 249.950 214.450 249.850 214.450 H 244.050 C 243.950 214.450 244.050 214.550 244.050 214.450 V 211.550 C 244.050 211.495 244.005 211.450 243.950 211.450 H 237.950 C 237.895 211.450 237.850 211.495 237.850 211.550 V 214.450 C 237.850 214.550 237.950 214.450 237.850 214.450 H 232.050 C 231.950 214.450 232.050 214.550 232.050 214.450 V 211.550 C 232.050 211.495 232.005 211.450 231.950 211.450 H 225.950 C 225.895 211.450 225.850 211.495 225.850 211.550 V 214.450 C 225.850 214.550 225.950 214.450 225.850 214.450 H 220.050 C 219.950 214.450 220.050 214.550 220.050 214.450 V 211.550 C 220.050 211.495 220.005 211.450 219.950 211.450 H 213.950 C 213.895 211.450 213.850 211.495 213.850 211.550 V 214.450 C 213.850 214.550 213.950 214.450 213.850 214.450 H 208.050 C 207.950 214.450 208.050 214.550 208.050 214.450 V 211.550 C 208.050 211.495 208.005 211.450 207.950 211.450 H 201.950 C 201.895 211.450 201.850 211.495 201.850 211.550 V 214.450 C 201.850 214.550 201.950 214.450 201.850 214.450 H 196.050 C 195.950 214.450 196.050 214.550 196.050 214.450 V 211.550 C 196.050 211.495 196.005 211.450 195.950 211.450 H 189.950 C 189.895 211.450 189.850 211.495 189.850 211.550 V 214.450 C 189.850 214.550 189.950 214.450 189.850 214.450 H 184.050 C 183.950 214.450 184.050 214.550 184.050 214.450 V 211.550 C 184.050 211.495 184.005 211.450 183.950 211.450 H 177.950 C 177.895 211.450 177.850 211.495 177.850 211.550 V 214.450 C 177.850 214.550 177.950 214.450 177.850 214.450 H 172.050 C 171.950 214.450 172.050 214.550 172.050 214.450 V 211.550 C 172.050 211.495 172.005 211.450 171.950 211.450 H 165.950 C 165.895 211.450 165.850 211.495 165.850 211.550 V 214.450 C 165.850 214.550 165.950 214.450 165.850 214.450 H 160.050 C 159.950 214.450 160.050 214.550 160.050 214.450 V 211.550 C 160.050 211.495 160.005 211.450 159.950 211.450 H 153.950 C 153.895 211.450 153.850 211.495 153.850 211.550 V 214.450 C 153.850 214.550 153.950 214.450 153.850 214.450 H 148.050 C 147.950 214.450 148.050 214.550 148.050 214.450 V 211.550 C 148.050 211.495 148.005 211.450 147.950 211.450 H 141.950 C 141.895 211.450 141.850 211.495 141.850 211.550 V 214.450 C 141.850 214.550 141.950 214.450 141.850 214.450 H 136.050 C 135.950 214.450 136.050 214.550 136.050 214.450 V 211.550 C 136.050 211.495 136.005 211.450 135.950 211.450 H 128.950 H 125.950 C 125.895 211.450 125.850 211.495 125.850 211.550 V 214.550 V 220.550 C 125.850 220.605 125.895 220.650 125.950 220.650 H 128.850 C 128.950 220.650 128.850 220.550 128.850 220.650 V 226.450 C 128.850 226.550 128.950 226.450 128.850 226.450 H 125.950 C 125.895 226.450 125.850 226.495 125.850 226.550 V 232.550 C 125.850 232.605 125.895 232.650 125.950 232.650 H 128.850 C 128.950 232.650 128.850 232.550 128.850 232.650 V 238.450 C 128.850 238.550 128.950 238.450 128.850 238.450 H 125.950 C 125.895 238.450 125.850 238.495 125.850 238.550 V 244.550 C 125.850 244.605 125.895 244.650 125.950 244.650 H 128.850 C 128.950 244.650 128.850 244.550 128.850 244.650 V 250.450 C 128.850 250.550 128.950 250.450 128.850 250.450 H 125.950 C 125.895 250.450 125.850 250.495 125.850 250.550 V 256.550 C 125.850 256.605 125.895 256.650 125.950 256.650 H 128.850 C 128.950 256.650 128.850 256.550 128.850 256.650 V 262.450 C 128.850 262.550 128.950 262.450 128.850 262.450 H 125.950 C 125.895 262.450 125.850 262.495 125.850 262.550 V 268.550 C 125.850 268.605 125.895 268.650 125.950 268.650 H 128.850 C 128.950 268.650 128.850 268.550 128.850 268.650 V 274.450 C 128.850 274.550 128.950 274.450 128.850 274.450 H 125.950 C 125.895 274.450 125.850 274.495 125.850 274.550 V 280.550 C 125.850 280.605 125.895 280.650 125.950 280.650 H 128.850 C 128.950 280.650 128.850 280.550 128.850 280.650 V 286.450 C 128.850 286.550 128.950 286.450 128.850 286.450 H 125.950 C 125.895 286.450 125.850 286.495 125.850 286.550 V 292.550 C 125.850 292.605 125.895 292.650 125.950 292.650 H 128.850 C 128.950 292.650 128.850 292.550 128.850 292.650 V 298.450 C 128.850 298.550 128.950 298.450 128.850 298.450 H 125.950 C 125.895 298.450 125.850 298.495 125.850 298.550 V 304.550 C 125.850 304.605 125.895 304.650 125.950 304.650 H 128.850 C 128.950 304.650 128.850 304.550 128.850 304.650 V 310.450 C 128.850 310.550 128.950 310.450 128.850 310.450 H 125.950 C 125.895 310.450 125.850 310.495 125.850 310.550 V 316.550 C 125.850 316.605 125.895 316.650 125.950 316.650 H 128.850 C 128.950 316.650 128.850 316.550 128.850 316.650 V 322.450 C 128.850 322.550 128.950 322.450 128.850 322.450 H 125.950 C 125.895 322.450 125.850 322.495 125.850 322.550 V 328.550 C 125.850 328.605 125.895 328.650 125.950 328.650 H 128.850 C 128.950 328.650 128.850 328.550 128.850 328.650 V 334.450 C 128.850 334.550 128.950 334.450 128.850 334.450 H 125.950 C 125.895 334.450 125.850 334.495 125.850 334.550 V 340.550 C 125.850 340.605 125.895 340.650 125.950 340.650 H 128.850 C 128.950 340.650 128.850 340.550 128.850 340.650 V 346.450 C 128.850 346.550 128.950 346.450 128.850 346.450 H 125.950 C 125.895 346.450 125.850 346.495 125.850 346.550 V 352.550 C 125.850 352.605 125.895 352.650 125.950 352.650 H 128.850 C 128.950 352.650 128.850 352.550 128.850 352.650 V 358.450 C 128.850 358.550 128.950 358.450 128.850 358.450 H 125.950 C 125.895 358.450 125.850 358.495 125.850 358.550 V 364.550 C 125.850 364.605 125.895 364.650 125.950 364.650 H 128.950 H 153.950 C 167.098 364.650 180.014 368.111 191.400 374.685 C 202.786 381.259 212.241 390.714 218.815 402.100 C 225.389 413.486 228.850 426.402 228.850 439.550 C 228.850 452.733 232.320 465.683 238.911 477.100 C 245.503 488.517 254.983 497.997 266.400 504.589 C 277.817 511.180 290.767 514.650 303.950 514.650 H 328.950 H 331.950 C 332.005 514.650 332.050 514.605 332.050 514.550 V 505.550 C 332.050 505.495 332.005 505.450 331.950 505.450 H 329.050 C 328.950 505.450 329.050 505.550 329.050 505.450 V 499.650 C 329.050 499.550 328.950 499.650 329.050 499.650 H 331.950 C 332.005 499.650 332.050 499.605 332.050 499.550 V 493.550 C 332.050 493.495 332.005 493.450 331.950 493.450 H 329.050 C 328.950 493.450 329.050 493.550 329.050 493.450 V 487.650 C 329.050 487.550 328.950 487.650 329.050 487.650 H 331.950 C 332.005 487.650 332.050 487.605 332.050 487.550 V 481.550 C 332.050 481.495 332.005 481.450 331.950 481.450 H 329.050 C 328.950 481.450 329.050 481.550 329.050 481.450 V 475.650 C 329.050 475.550 328.950 475.650 329.050 475.650 H 331.950 C 332.005 475.650 332.050 475.605 332.050 475.550 V 469.550 C 332.050 469.495 332.005 469.450 331.950 469.450 H 329.050 C 328.950 469.450 329.050 469.550 329.050 469.450 V 463.650 C 329.050 463.550 328.950 463.650 329.050 463.650 H 331.950 C 332.005 463.650 332.050 463.605 332.050 463.550 V 457.550 C 332.050 457.495 332.005 457.450 331.950 457.450 H 329.050 C 328.950 457.450 329.050 457.550 329.050 457.450 V 451.650 C 329.050 451.550 328.950 451.650 329.050 451.650 H 331.950 C 332.005 451.650 332.050 451.605 332.050 451.550 V 445.550 C 332.050 445.495 332.005 445.450 331.950 445.450 H 329.050 C 328.950 445.450 329.050 445.550 329.050 445.450 V 439.650 C 329.050 439.550 328.950 439.650 329.050 439.650 H 331.950 C 332.005 439.650 332.050 439.605 332.050 439.550 V 433.550 C 332.050 433.495 332.005 433.450 331.950 433.450 H 329.050 C 328.950 433.450 329.050 433.550 329.050 433.450 V 427.650 C 329.050 427.550 328.950 427.650 329.050 427.650 H 331.950 C 332.005 427.650 332.050 427.605 332.050 427.550 V 421.550 C 332.050 421.495 332.005 421.450 331.950 421.450 H 329.050 C 328.950 421.450 329.050 421.550 329.050 421.450 V 415.650 C 329.050 415.550 328.950 415.650 329.050 415.650 H 331.950 C 332.005 415.650 332.050 415.605 332.050 415.550 V 409.550 C 332.050 409.495 332.005 409.450 331.950 409.450 H 329.050 C 328.950 409.450 329.050 409.550 329.050 409.450 V 403.650 C 329.050 403.550 328.950 403.650 329.050 403.650 H 331.950 C 332.005 403.650 332.050 403.605 332.050 403.550 V 397.550 C 332.050 397.495 332.005 397.450 331.950 397.450 H 329.050 C 328.950 397.450 329.050 397.550 329.050 397.450 V 391.650 C 329.050 391.550 328.950 391.650 329.050 391.650 H 331.950 C 332.005 391.650 332.050 391.605 332.050 391.550 V 385.550 C 332.050 385.495 332.005 385.450 331.950 385.450 H 329.050 C 328.950 385.450 329.050 385.550 329.050 385.450 V 379.650 C 329.050 379.550 328.950 379.650 329.050 379.650 H 331.950 C 332.005 379.650 332.050 379.605 332.050 379.550 V 373.550 C 332.050 373.495 332.005 373.450 331.950 373.450 H 329.050 C 328.950 373.450 329.050 373.550 329.050 373.450 V 367.650 C 329.050 367.550 328.950 367.650 329.050 367.650 H 331.950 C 332.005 367.650 332.050 367.605 332.050 367.550 V 361.550 C 332.050 361.495 332.005 361.450 331.950 361.450 H 329.050 C 328.950 361.450 329.050 361.550 329.050 361.450 V 355.650 C 329.050 355.550 328.950 355.650 329.050 355.650 H 331.950 C 332.005 355.650 332.050 355.605 332.050 355.550 V 349.550 C 332.050 349.495 332.005 349.450 331.950 349.450 H 329.050 C 328.950 349.450 329.050 349.550 329.050 349.450 V 343.650 C 329.050 343.550 328.950 343.650 329.050 343.650 H 331.950 C 332.005 343.650 332.050 343.605 332.050 343.550 V 337.550 C 332.050 337.495 332.005 337.450 331.950 337.450 H 329.050 C 328.950 337.450 329.050 337.550 329.050 337.450 V 331.650 C 329.050 331.550 328.950 331.650 329.050 331.650 H 331.950 C 332.005 331.650 332.050 331.605 332.050 331.550 V 325.550 C 332.050 325.495 332.005 325.450 331.950 325.450 H 329.050 C 328.950 325.450 329.050 325.550 329.050 325.450 V 319.650 C 329.050 319.550 328.950 319.650 329.050 319.650 H 331.950 C 332.005 319.650 332.050 319.605 332.050 319.550 V 313.550 C 332.050 313.495 332.005 313.450 331.950 313.450 H 329.050 C 328.950 313.450 329.050 313.550 329.050 313.450 V 307.650 C 329.050 307.550 328.950 307.650 329.050 307.650 H 331.950 C 332.005 307.650 332.050 307.605 332.050 307.550 V 301.550 C 332.050 301.495 332.005 301.450 331.950 301.450 H 329.050 C 328.950 301.450 329.050 301.550 329.050 301.450 V 295.650 C 329.050 295.550 328.950 295.650 329.050 295.650 H 331.950 C 332.005 295.650 332.050 295.605 332.050 295.550 V 289.550 C 332.050 289.495 332.005 289.450 331.950 289.450 H 329.050 C 328.950 289.450 329.050 289.550 329.050 289.450 V 283.650 C 329.050 283.550 328.950 283.650 329.050 283.650 H 331.950 C 332.005 283.650 332.050 283.605 332.050 283.550 V 277.550 C 332.050 277.495 332.005 277.450 331.950 277.450 H 329.050 C 328.950 277.450 329.050 277.550 329.050 277.450 V 271.650 C 329.050 271.550 328.950 271.650 329.050 271.650 H 331.950 C 332.005 271.650 332.050 271.605 332.050 271.550 V 265.550 C 332.050 265.495 332.005 265.450 331.950 265.450 H 329.050 C 328.950 265.450 329.050 265.550 329.050 265.450 V 259.650 C 329.050 259.550 328.950 259.650 329.050 259.650 H 331.950 C 332.005 259.650 332.050 259.605 332.050 259.550 V 253.550 C 332.050 253.495 332.005 253.450 331.950 253.450 H 329.050 C 328.950 253.450 329.050 253.550 329.050 253.450 V 247.650 C 329.050 247.550 328.950 247.650 329.050 247.650 H 331.950 C 332.005 247.650 332.050 247.605 332.050 247.550 V 241.550 C 332.050 241.495 332.005 241.450 331.950 241.450 H 329.050 C 328.950 241.450 329.050 241.550 329.050 241.450 V 235.650 C 329.050 235.550 328.950 235.650 329.050 235.650 H 331.950 C 332.005 235.650 332.050 235.605 332.050 235.550 V 229.550 C 332.050 229.495 332.005 229.450 331.950 229.450 H 329.050 C 328.950 229.450 329.050 229.550 329.050 229.450 V 223.650 C 329.050 223.550 328.950 223.650 329.050 223.650 H 331.950 C 332.005 223.650 332.050 223.605 332.050 223.550 V 214.550 V 211.550 C 332.050 211.495 332.005 211.450 331.950 211.450 Z" stroke="rgb(0,0,0)" stroke-width="0.20" />
</g>
</svg>