<?xml version="1.0" encoding="UTF-8"?>
<svg xmlns="http://www.w3.org/2000/svg" xmlns:xlink="http://www.w3.org/1999/xlink" width="232mm" height="266mm" viewBox="0 0 232 266" version="1.1">
<g id="surface1">
<path style="fill:none;stroke-width:0.1;stroke-linecap:butt;stroke-linejoin:miter;stroke:rgb(0%,0%,0%);stroke-opacity:1;stroke-miterlimit:10;" d="M 6.101562 2.101562 L 6.101562 2.101562 M 6.101562 2.101562 L 20.101562 2.101562 C 20.128906 2.101562 20.152344 2.125 20.152344 2.152344 M 20.152344 2.152344 L 20.152344 6.152344 C 20.152344 6.125 20.128906 6.101562 20.101562 6.101562 M 20.101562 6.101562 L 28.101562 6.101562 C 28.074219 6.101562 28.050781 6.125 28.050781 6.152344 M 28.050781 6.152344 L 28.050781 2.152344 C 28.050781 2.125 28.074219 2.101562 28.101562 2.101562 M 28.101562 2.101562 L 36.101562 2.101562 C 36.128906 2.101562 36.152344 2.125 36.152344 2.152344 M 36.152344 2.152344 L 36.152344 6.152344 C 36.152344 6.125 36.128906 6.101562 36.101562 6.101562 M 36.101562 6.101562 L 44.101562 6.101562 C 44.074219 6.101562 44.050781 6.125 44.050781 6.152344 M 44.050781 6.152344 L 44.050781 2.152344 C 44.050781 2.125 44.074219 2.101562 44.101562 2.101562 M 44.101562 2.101562 L 52.101562 2.101562 C 52.128906 2.101562 52.152344 2.125 52.152344 2.152344 M 52.152344 2.152344 L 52.152344 6.152344 C 52.152344 6.125 52.128906 6.101562 52.101562 6.101562 M 52.101562 6.101562 L 60.101562 6.101562 C 60.074219 6.101562 60.050781 6.125 60.050781 6.152344 M 60.050781 6.152344 L 60.050781 2.152344 C 60.050781 2.125 60.074219 2.101562 60.101562 2.101562 M 60.101562 2.101562 L 68.101562 2.101562 C 68.128906 2.101562 68.152344 2.125 68.152344 2.152344 M 68.152344 2.152344 L 68.152344 6.152344 C 68.152344 6.125 68.128906 6.101562 68.101562 6.101562 M 68.101562 6.101562 L 76.101562 6.101562 C 76.074219 6.101562 76.050781 6.125 76.050781 6.152344 M 76.050781 6.152344 L 76.050781 2.152344 C 76.050781 2.125 76.074219 2.101562 76.101562 2.101562 M 76.101562 2.101562 L 84.101562 2.101562 C 84.128906 2.101562 84.152344 2.125 84.152344 2.152344 M 84.152344 2.152344 L 84.152344 6.152344 C 84.152344 6.125 84.128906 6.101562 84.101562 6.101562 M 84.101562 6.101562 L 92.101562 6.101562 C 92.074219 6.101562 92.050781 6.125 92.050781 6.152344 M 92.050781 6.152344 L 92.050781 2.152344 C 92.050781 2.125 92.074219 2.101562 92.101562 2.101562 M 92.101562 2.101562 L 106.101562 2.101562 M 106.101562 2.101562 C 106.128906 2.101562 106.152344 2.125 106.152344 2.152344 M 106.152344 2.152344 L 106.152344 6.152344 M 106.152344 6.152344 L 106.152344 20.152344 C 106.152344 20.125 106.128906 20.101562 106.101562 20.101562 M 106.101562 20.101562 L 110.101562 20.101562 C 110.128906 20.101562 110.152344 20.125 110.152344 20.152344 M 110.152344 20.152344 L 110.152344 28.152344 C 110.152344 28.179688 110.128906 28.203125 110.101562 28.203125 M 110.101562 28.203125 L 106.101562 28.203125 C 106.128906 28.203125 106.152344 28.179688 106.152344 28.152344 M 106.152344 28.152344 L 106.152344 36.152344 C 106.152344 36.125 106.128906 36.101562 106.101562 36.101562 M 106.101562 36.101562 L 110.101562 36.101562 C 110.128906 36.101562 110.152344 36.125 110.152344 36.152344 M 110.152344 36.152344 L 110.152344 44.152344 C 110.152344 44.179688 110.128906 44.203125 110.101562 44.203125 M 110.101562 44.203125 L 106.101562 44.203125 C 106.128906 44.203125 106.152344 44.179688 106.152344 44.152344 M 106.152344 44.152344 L 106.152344 52.152344 C 106.152344 52.125 106.128906 52.101562 106.101562 52.101562 M 106.101562 52.101562 L 110.101562 52.101562 C 110.128906 52.101562 110.152344 52.125 110.152344 52.152344 M 110.152344 52.152344 L 110.152344 60.152344 C 110.152344 60.179688 110.128906 60.203125 110.101562 60.203125 M 110.101562 60.203125 L 106.101562 60.203125 C 106.128906 60.203125 106.152344 60.179688 106.152344 60.152344 M 106.152344 60.152344 L 106.152344 68.152344 C 106.152344 68.125 106.128906 68.101562 106.101562 68.101562 M 106.101562 68.101562 L 110.101562 68.101562 C 110.128906 68.101562 110.152344 68.125 110.152344 68.152344 M 110.152344 68.152344 L 110.152344 76.152344 C 110.152344 76.179688 110.128906 76.203125 110.101562 76.203125 M 110.101562 76.203125 L 106.101562 76.203125 C 106.128906 76.203125 106.152344 76.179688 106.152344 76.152344 M 106.152344 76.152344 L 106.152344 84.152344 C 106.152344 84.125 106.128906 84.101562 106.101562 84.101562 M 106.101562 84.101562 L 110.101562 84.101562 C 110.128906 84.101562 110.152344 84.125 110.152344 84.152344 M 110.152344 84.152344 L 110.152344 92.152344 C 110.152344 92.179688 110.128906 92.203125 110.101562 92.203125 M 110.101562 92.203125 L 106.101562 92.203125 C 106.128906 92.203125 106.152344 92.179688 106.152344 92.152344 M 106.152344 92.152344 L 106.152344 106.152344 M 106.152344 106.152344 C 106.152344 106.179688 106.128906 106.203125 106.101562 106.203125 M 106.101562 106.203125 L 106.101562 106.203125 M 106.101562 106.203125 L 6.101562 106.203125 M 6.101562 106.203125 C 6.074219 106.203125 6.050781 106.179688 6.050781 106.152344 M 6.050781 106.152344 L 6.050781 106.152344 M 6.050781 106.152344 L 6.050781 92.152344 C 6.050781 92.179688 6.074219 92.203125 6.101562 92.203125 M 6.101562 92.203125 L 2.101562 92.203125 C 2.074219 92.203125 2.050781 92.179688 2.050781 92.152344 M 2.050781 92.152344 L 2.050781 84.152344 C 2.050781 84.125 2.074219 84.101562 2.101562 84.101562 M 2.101562 84.101562 L 6.101562 84.101562 C 6.074219 84.101562 6.050781 84.125 6.050781 84.152344 M 6.050781 84.152344 L 6.050781 76.152344 C 6.050781 76.179688 6.074219 76.203125 6.101562 76.203125 M 6.101562 76.203125 L 2.101562 76.203125 C 2.074219 76.203125 2.050781 76.179688 2.050781 76.152344 M 2.050781 76.152344 L 2.050781 68.152344 C 2.050781 68.125 2.074219 68.101562 2.101562 68.101562 M 2.101562 68.101562 L 6.101562 68.101562 C 6.074219 68.101562 6.050781 68.125 6.050781 68.152344 M 6.050781 68.152344 L 6.050781 60.152344 C 6.050781 60.179688 6.074219 60.203125 6.101562 60.203125 M 6.101562 60.203125 L 2.101562 60.203125 C 2.074219 60.203125 2.050781 60.179688 2.050781 60.152344 M 2.050781 60.152344 L 2.050781 52.152344 C 2.050781 52.125 2.074219 52.101562 2.101562 52.101562 M 2.101562 52.101562 L 6.101562 52.101562 C 6.074219 52.101562 6.050781 52.125 6.050781 52.152344 M 6.050781 52.152344 L 6.050781 44.152344 C 6.050781 44.179688 6.074219 44.203125 6.101562 44.203125 M 6.101562 44.203125 L 2.101562 44.203125 C 2.074219 44.203125 2.050781 44.179688 2.050781 44.152344 M 2.050781 44.152344 L 2.050781 36.152344 C 2.050781 36.125 2.074219 36.101562 2.101562 36.101562 M 2.101562 36.101562 L 6.101562 36.101562 C 6.074219 36.101562 6.050781 36.125 6.050781 36.152344 M 6.050781 36.152344 L 6.050781 28.152344 C 6.050781 28.179688 6.074219 28.203125 6.101562 28.203125 M 6.101562 28.203125 L 2.101562 28.203125 C 2.074219 28.203125 2.050781 28.179688 2.050781 28.152344 M 2.050781 28.152344 L 2.050781 20.152344 C 2.050781 20.125 2.074219 20.101562 2.101562 20.101562 M 2.101562 20.101562 L 6.101562 20.101562 C 6.074219 20.101562 6.050781 20.125 6.050781 20.152344 M 6.050781 20.152344 L 6.050781 6.152344 M 6.050781 6.152344 L 6.050781 2.152344 C 6.050781 2.125 6.074219 2.101562 6.101562 2.101562 " transform="matrix(1,0,0,-1,0,266)"/>
<path style="fill:none;stroke-width:0.1;stroke-linecap:butt;stroke-linejoin:miter;stroke:rgb(0%,0%,0%);stroke-opacity:1;stroke-miterlimit:10;" d="M 6.101562 2.100781 L 6.101562 2.100781 M 6.101562 2.100781 L 20.101562 2.100781 C 20.128906 2.100781 20.152344 2.124219 20.152344 2.151563 M 20.152344 2.151563 L 20.152344 6.151563 C 20.152344 6.124219 20.128906 6.100781 20.101562 6.100781 M 20.101562 6.100781 L 28.101562 6.100781 C 28.074219 6.100781 28.050781 6.124219 28.050781 6.151563 M 28.050781 6.151563 L 28.050781 2.151563 C 28.050781 2.124219 28.074219 2.100781 28.101562 2.100781 M 28.101562 2.100781 L 36.101562 2.100781 C 36.128906 2.100781 36.152344 2.124219 36.152344 2.151563 M 36.152344 2.151563 L 36.152344 6.151563 C 36.152344 6.124219 36.128906 6.100781 36.101562 6.100781 M 36.101562 6.100781 L 44.101562 6.100781 C 44.074219 6.100781 44.050781 6.124219 44.050781 6.151563 M 44.050781 6.151563 L 44.050781 2.151563 C 44.050781 2.124219 44.074219 2.100781 44.101562 2.100781 M 44.101562 2.100781 L 52.101562 2.100781 C 52.128906 2.100781 52.152344 2.124219 52.152344 2.151563 M 52.152344 2.151563 L 52.152344 6.151563 C 52.152344 6.124219 52.128906 6.100781 52.101562 6.100781 M 52.101562 6.100781 L 60.101562 6.100781 C 60.074219 6.100781 60.050781 6.124219 60.050781 6.151563 M 60.050781 6.151563 L 60.050781 2.151563 C 60.050781 2.124219 60.074219 2.100781 60.101562 2.100781 M 60.101562 2.100781 L 68.101562 2.100781 C 68.128906 2.100781 68.152344 2.124219 68.152344 2.151563 M 68.152344 2.151563 L 68.152344 6.151563 C 68.152344 6.124219 68.128906 6.100781 68.101562 6.100781 M 68.101562 6.100781 L 76.101562 6.100781 C 76.074219 6.100781 76.050781 6.124219 76.050781 6.151563 M 76.050781 6.151563 L 76.050781 2.151563 C 76.050781 2.124219 76.074219 2.100781 76.101562 2.100781 M 76.101562 2.100781 L 84.101562 2.100781 C 84.128906 2.100781 84.152344 2.124219 84.152344 2.151563 M 84.152344 2.151563 L 84.152344 6.151563 C 84.152344 6.124219 84.128906 6.100781 84.101562 6.100781 M 84.101562 6.100781 L 92.101562 6.100781 C 92.074219 6.100781 92.050781 6.124219 92.050781 6.151563 M 92.050781 6.151563 L 92.050781 2.151563 C 92.050781 2.124219 92.074219 2.100781 92.101562 2.100781 M 92.101562 2.100781 L 106.101562 2.100781 M 106.101562 2.100781 C 106.128906 2.100781 106.152344 2.124219 106.152344 2.151563 M 106.152344 2.151563 L 106.152344 6.151563 M 106.152344 6.151563 L 106.152344 19.151563 C 106.152344 19.124219 106.128906 19.100781 106.101562 19.100781 M 106.101562 19.100781 L 110.101562 19.100781 C 110.128906 19.100781 110.152344 19.124219 110.152344 19.151563 M 110.152344 19.151563 L 110.152344 27.151563 C 110.152344 27.178906 110.128906 27.202344 110.101562 27.202344 M 110.101562 27.202344 L 106.101562 27.202344 C 106.128906 27.202344 106.152344 27.178906 106.152344 27.151563 M 106.152344 27.151563 L 106.152344 35.151563 C 106.152344 35.124219 106.128906 35.100781 106.101562 35.100781 M 106.101562 35.100781 L 110.101562 35.100781 C 110.128906 35.100781 110.152344 35.124219 110.152344 35.151563 M 110.152344 35.151563 L 110.152344 43.151563 C 110.152344 43.178906 110.128906 43.202344 110.101562 43.202344 M 110.101562 43.202344 L 106.101562 43.202344 C 106.128906 43.202344 106.152344 43.178906 106.152344 43.151563 M 106.152344 43.151563 L 106.152344 56.151563 M 106.152344 56.151563 C 106.152344 56.178906 106.128906 56.202344 106.101562 56.202344 M 106.101562 56.202344 L 106.101562 56.202344 M 106.101562 56.202344 L 6.101562 56.202344 M 6.101562 56.202344 C 6.074219 56.202344 6.050781 56.178906 6.050781 56.151563 M 6.050781 56.151563 L 6.050781 56.151563 M 6.050781 56.151563 L 6.050781 43.151563 C 6.050781 43.178906 6.074219 43.202344 6.101562 43.202344 M 6.101562 43.202344 L 2.101562 43.202344 C 2.074219 43.202344 2.050781 43.178906 2.050781 43.151563 M 2.050781 43.151563 L 2.050781 35.151563 C 2.050781 35.124219 2.074219 35.100781 2.101562 35.100781 M 2.101562 35.100781 L 6.101562 35.100781 C 6.074219 35.100781 6.050781 35.124219 6.050781 35.151563 M 6.050781 35.151563 L 6.050781 27.151563 C 6.050781 27.178906 6.074219 27.202344 6.101562 27.202344 M 6.101562 27.202344 L 2.101562 27.202344 C 2.074219 27.202344 2.050781 27.178906 2.050781 27.151563 M 2.050781 27.151563 L 2.050781 19.151563 C 2.050781 19.124219 2.074219 19.100781 2.101562 19.100781 M 2.101562 19.100781 L 6.101562 19.100781 C 6.074219 19.100781 6.050781 19.124219 6.050781 19.151563 M 6.050781 19.151563 L 6.050781 6.151563 M 6.050781 6.151563 L 6.050781 2.151563 C 6.050781 2.124219 6.074219 2.100781 6.101562 2.100781 " transform="matrix(1,0,0,-1,0,157.8)"/>
<path style="fill:none;stroke-width:0.1;stroke-linecap:butt;stroke-linejoin:miter;stroke:rgb(0%,0%,0%);stroke-opacity:1;stroke-miterlimit:10;" d="M 6.101562 6.1 L 6.101562 6.1 M 6.101562 6.1 L 20.101562 6.1 C 20.074219 6.1 20.050781 6.123438 20.050781 6.150781 M 20.050781 6.150781 L 20.050781 2.150781 C 20.050781 2.123438 20.074219 2.1 20.101562 2.1 M 20.101562 2.1 L 28.101562 2.1 C 28.128906 2.1 28.152344 2.123438 28.152344 2.150781 M 28.152344 2.150781 L 28.152344 6.150781 C 28.152344 6.123438 28.128906 6.1 28.101562 6.1 M 28.101562 6.1 L 36.101562 6.1 C 36.074219 6.1 36.050781 6.123438 36.050781 6.150781 M 36.050781 6.150781 L 36.050781 2.150781 C 36.050781 2.123438 36.074219 2.1 36.101562 2.1 M 36.101562 2.1 L 44.101562 2.1 C 44.128906 2.1 44.152344 2.123438 44.152344 2.150781 M 44.152344 2.150781 L 44.152344 6.150781 C 44.152344 6.123438 44.128906 6.1 44.101562 6.1 M 44.101562 6.1 L 52.101562 6.1 C 52.074219 6.1 52.050781 6.123438 52.050781 6.150781 M 52.050781 6.150781 L 52.050781 2.150781 C 52.050781 2.123438 52.074219 2.1 52.101562 2.1 M 52.101562 2.1 L 60.101562 2.1 C 60.128906 2.1 60.152344 2.123438 60.152344 2.150781 M 60.152344 2.150781 L 60.152344 6.150781 C 60.152344 6.123438 60.128906 6.1 60.101562 6.1 M 60.101562 6.1 L 68.101562 6.1 C 68.074219 6.1 68.050781 6.123438 68.050781 6.150781 M 68.050781 6.150781 L 68.050781 2.150781 C 68.050781 2.123438 68.074219 2.1 68.101562 2.1 M 68.101562 2.1 L 76.101562 2.1 C 76.128906 2.1 76.152344 2.123438 76.152344 2.150781 M 76.152344 2.150781 L 76.152344 6.150781 C 76.152344 6.123438 76.128906 6.1 76.101562 6.1 M 76.101562 6.1 L 84.101562 6.1 C 84.074219 6.1 84.050781 6.123438 84.050781 6.150781 M 84.050781 6.150781 L 84.050781 2.150781 C 84.050781 2.123438 84.074219 2.1 84.101562 2.1 M 84.101562 2.1 L 92.101562 2.1 C 92.128906 2.1 92.152344 2.123438 92.152344 2.150781 M 92.152344 2.150781 L 92.152344 6.150781 C 92.152344 6.123438 92.128906 6.1 92.101562 6.1 M 92.101562 6.1 L 106.101562 6.1 M 106.101562 6.1 C 106.128906 6.1 106.152344 6.123438 106.152344 6.150781 M 106.152344 6.150781 L 106.152344 6.150781 M 106.152344 6.150781 L 106.152344 20.150781 C 106.152344 20.123438 106.128906 20.1 106.101562 20.1 M 106.101562 20.1 L 110.101562 20.1 C 110.128906 20.1 110.152344 20.123438 110.152344 20.150781 M 110.152344 20.150781 L 110.152344 28.150781 C 110.152344 28.178125 110.128906 28.201563 110.101562 28.201563 M 110.101562 28.201563 L 106.101562 28.201563 C 106.128906 28.201563 106.152344 28.178125 106.152344 28.150781 M 106.152344 28.150781 L 106.152344 36.150781 C 106.152344 36.123438 106.128906 36.1 106.101562 36.1 M 106.101562 36.1 L 110.101562 36.1 C 110.128906 36.1 110.152344 36.123438 110.152344 36.150781 M 110.152344 36.150781 L 110.152344 44.150781 C 110.152344 44.178125 110.128906 44.201563 110.101562 44.201563 M 110.101562 44.201563 L 106.101562 44.201563 C 106.128906 44.201563 106.152344 44.178125 106.152344 44.150781 M 106.152344 44.150781 L 106.152344 52.150781 C 106.152344 52.123438 106.128906 52.1 106.101562 52.1 M 106.101562 52.1 L 110.101562 52.1 C 110.128906 52.1 110.152344 52.123438 110.152344 52.150781 M 110.152344 52.150781 L 110.152344 60.150781 C 110.152344 60.178125 110.128906 60.201563 110.101562 60.201563 M 110.101562 60.201563 L 106.101562 60.201563 C 106.128906 60.201563 106.152344 60.178125 106.152344 60.150781 M 106.152344 60.150781 L 106.152344 68.150781 C 106.152344 68.123438 106.128906 68.1 106.101562 68.1 M 106.101562 68.1 L 110.101562 68.1 C 110.128906 68.1 110.152344 68.123438 110.152344 68.150781 M 110.152344 68.150781 L 110.152344 76.150781 C 110.152344 76.178125 110.128906 76.201563 110.101562 76.201563 M 110.101562 76.201563 L 106.101562 76.201563 C 106.128906 76.201563 106.152344 76.178125 106.152344 76.150781 M 106.152344 76.150781 L 106.152344 84.150781 C 106.152344 84.123438 106.128906 84.1 106.101562 84.1 M 106.101562 84.1 L 110.101562 84.1 C 110.128906 84.1 110.152344 84.123438 110.152344 84.150781 M 110.152344 84.150781 L 110.152344 92.150781 C 110.152344 92.178125 110.128906 92.201563 110.101562 92.201563 M 110.101562 92.201563 L 106.101562 92.201563 C 106.128906 92.201563 106.152344 92.178125 106.152344 92.150781 M 106.152344 92.150781 L 106.152344 106.150781 M 106.152344 106.150781 C 106.152344 106.178125 106.128906 106.201563 106.101562 106.201563 M 106.101562 106.201563 L 106.101562 106.201563 M 106.101562 106.201563 L 92.101562 106.201563 C 92.128906 106.201563 92.152344 106.178125 92.152344 106.150781 M 92.152344 106.150781 L 92.152344 110.150781 C 92.152344 110.178125 92.128906 110.201563 92.101562 110.201563 M 92.101562 110.201563 L 84.101562 110.201563 C 84.074219 110.201563 84.050781 110.178125 84.050781 110.150781 M 84.050781 110.150781 L 84.050781 106.150781 C 84.050781 106.178125 84.074219 106.201563 84.101562 106.201563 M 84.101562 106.201563 L 76.101562 106.201563 C 76.128906 106.201563 76.152344 106.178125 76.152344 106.150781 M 76.152344 106.150781 L 76.152344 110.150781 C 76.152344 110.178125 76.128906 110.201563 76.101562 110.201563 M 76.101562 110.201563 L 68.101562 110.201563 C 68.074219 110.201563 68.050781 110.178125 68.050781 110.150781 M 68.050781 110.150781 L 68.050781 106.150781 C 68.050781 106.178125 68.074219 106.201563 68.101562 106.201563 M 68.101562 106.201563 L 60.101562 106.201563 C 60.128906 106.201563 60.152344 106.178125 60.152344 106.150781 M 60.152344 106.150781 L 60.152344 110.150781 C 60.152344 110.178125 60.128906 110.201563 60.101562 110.201563 M 60.101562 110.201563 L 52.101562 110.201563 C 52.074219 110.201563 52.050781 110.178125 52.050781 110.150781 M 52.050781 110.150781 L 52.050781 106.150781 C 52.050781 106.178125 52.074219 106.201563 52.101562 106.201563 M 52.101562 106.201563 L 44.101562 106.201563 C 44.128906 106.201563 44.152344 106.178125 44.152344 106.150781 M 44.152344 106.150781 L 44.152344 110.150781 C 44.152344 110.178125 44.128906 110.201563 44.101562 110.201563 M 44.101562 110.201563 L 36.101562 110.201563 C 36.074219 110.201563 36.050781 110.178125 36.050781 110.150781 M 36.050781 110.150781 L 36.050781 106.150781 C 36.050781 106.178125 36.074219 106.201563 36.101562 106.201563 M 36.101562 106.201563 L 28.101562 106.201563 C 28.128906 106.201563 28.152344 106.178125 28.152344 106.150781 M 28.152344 106.150781 L 28.152344 110.150781 C 28.152344 110.178125 28.128906 110.201563 28.101562 110.201563 M 28.101562 110.201563 L 20.101562 110.201563 C 20.074219 110.201563 20.050781 110.178125 20.050781 110.150781 M 20.050781 110.150781 L 20.050781 106.150781 C 20.050781 106.178125 20.074219 106.201563 20.101562 106.201563 M 20.101562 106.201563 L 6.101562 106.201563 M 6.101562 106.201563 C 6.074219 106.201563 6.050781 106.178125 6.050781 106.150781 M 6.050781 106.150781 L 6.050781 106.150781 M 6.050781 106.150781 L 6.050781 92.150781 C 6.050781 92.178125 6.074219 92.201563 6.101562 92.201563 M 6.101562 92.201563 L 2.101562 92.201563 C 2.074219 92.201563 2.050781 92.178125 2.050781 92.150781 M 2.050781 92.150781 L 2.050781 84.150781 C 2.050781 84.123438 2.074219 84.1 2.101562 84.1 M 2.101562 84.1 L 6.101562 84.1 C 6.074219 84.1 6.050781 84.123438 6.050781 84.150781 M 6.050781 84.150781 L 6.050781 76.150781 C 6.050781 76.178125 6.074219 76.201563 6.101562 76.201563 M 6.101562 76.201563 L 2.101562 76.201563 C 2.074219 76.201563 2.050781 76.178125 2.050781 76.150781 M 2.050781 76.150781 L 2.050781 68.150781 C 2.050781 68.123438 2.074219 68.1 2.101562 68.1 M 2.101562 68.1 L 6.101562 68.1 C 6.074219 68.1 6.050781 68.123438 6.050781 68.150781 M 6.050781 68.150781 L 6.050781 60.150781 C 6.050781 60.178125 6.074219 60.201563 6.101562 60.201563 M 6.101562 60.201563 L 2.101562 60.201563 C 2.074219 60.201563 2.050781 60.178125 2.050781 60.150781 M 2.050781 60.150781 L 2.050781 52.150781 C 2.050781 52.123438 2.074219 52.1 2.101562 52.1 M 2.101562 52.1 L 6.101562 52.1 C 6.074219 52.1 6.050781 52.123438 6.050781 52.150781 M 6.050781 52.150781 L 6.050781 44.150781 C 6.050781 44.178125 6.074219 44.201563 6.101562 44.201563 M 6.101562 44.201563 L 2.101562 44.201563 C 2.074219 44.201563 2.050781 44.178125 2.050781 44.150781 M 2.050781 44.150781 L 2.050781 36.150781 C 2.050781 36.123438 2.074219 36.1 2.101562 36.1 M 2.101562 36.1 L 6.101562 36.1 C 6.074219 36.1 6.050781 36.123438 6.050781 36.150781 M 6.050781 36.150781 L 6.050781 28.150781 C 6.050781 28.178125 6.074219 28.201563 6.101562 28.201563 M 6.101562 28.201563 L 2.101562 28.201563 C 2.074219 28.201563 2.050781 28.178125 2.050781 28.150781 M 2.050781 28.150781 L 2.050781 20.150781 C 2.050781 20.123438 2.074219 20.1 2.101562 20.1 M 2.101562 20.1 L 6.101562 20.1 C 6.074219 20.1 6.050781 20.123438 6.050781 20.150781 M 6.050781 20.150781 L 6.050781 6.150781 M 6.050781 6.150781 C 6.050781 6.123438 6.074219 6.1 6.101562 6.1 " transform="matrix(1,0,0,-1,0,99.6)"/>
<path style="fill:none;stroke-width:0.1;stroke-linecap:butt;stroke-linejoin:miter;stroke:rgb(0%,0%,0%);stroke-opacity:1;stroke-miterlimit:10;" d="M 112 162 L 108 162 M 108 162 L 94 162 C 93.972656 162 93.949219 161.976563 93.949219 161.949219 M 93.949219 161.949219 L 93.949219 157.949219 C 93.949219 157.976563 93.972656 158 94 158 M 94 158 L 86 158 C 86.027344 158 86.050781 157.976563 86.050781 157.949219 M 86.050781 157.949219 L 86.050781 161.949219 C 86.050781 161.976563 86.027344 162 86 162 M 86 162 L 78 162 C 77.972656 162 77.949219 161.976563 77.949219 161.949219 M 77.949219 161.949219 L 77.949219 157.949219 C 77.949219 157.976563 77.972656 158 78 158 M 78 158 L 70 158 C 70.027344 158 70.050781 157.976563 70.050781 157.949219 M 70.050781 157.949219 L 70.050781 161.949219 C 70.050781 161.976563 70.027344 162 70 162 M 70 162 L 62 162 C 61.972656 162 61.949219 161.976563 61.949219 161.949219 M 61.949219 161.949219 L 61.949219 157.949219 C 61.949219 157.976563 61.972656 158 62 158 M 62 158 L 54 158 C 54.027344 158 54.050781 157.976563 54.050781 157.949219 M 54.050781 157.949219 L 54.050781 161.949219 C 54.050781 161.976563 54.027344 162 54 162 M 54 162 L 46 162 C 45.972656 162 45.949219 161.976563 45.949219 161.949219 M 45.949219 161.949219 L 45.949219 157.949219 C 45.949219 157.976563 45.972656 158 46 158 M 46 158 L 38 158 C 38.027344 158 38.050781 157.976563 38.050781 157.949219 M 38.050781 157.949219 L 38.050781 161.949219 C 38.050781 161.976563 38.027344 162 38 162 M 38 162 L 30 162 C 29.972656 162 29.949219 161.976563 29.949219 161.949219 M 29.949219 161.949219 L 29.949219 157.949219 C 29.949219 157.976563 29.972656 158 30 158 M 30 158 L 22 158 C 22.027344 158 22.050781 157.976563 22.050781 157.949219 M 22.050781 157.949219 L 22.050781 161.949219 C 22.050781 161.976563 22.027344 162 22 162 M 22 162 L 8 162 M 8 162 L 4 162 C 3.972656 162 3.949219 161.976563 3.949219 161.949219 M 3.949219 161.949219 L 3.949219 157.949219 M 3.949219 157.949219 L 3.949219 144.949219 C 3.949219 144.921875 3.972656 144.898438 4 144.898438 M 4 144.898438 L 8 144.898438 C 7.972656 144.898438 7.949219 144.921875 7.949219 144.949219 M 7.949219 144.949219 L 7.949219 136.949219 C 7.949219 136.976562 7.972656 137 8 137 M 8 137 L 4 137 C 3.972656 137 3.949219 136.976562 3.949219 136.949219 M 3.949219 136.949219 L 3.949219 128.949219 C 3.949219 128.921875 3.972656 128.898438 4 128.898438 M 4 128.898438 L 8 128.898438 C 7.972656 128.898438 7.949219 128.921875 7.949219 128.949219 M 7.949219 128.949219 L 7.949219 120.949219 C 7.949219 120.976562 7.972656 121 8 121 M 8 121 L 4 121 C 3.972656 121 3.949219 120.976562 3.949219 120.949219 M 3.949219 120.949219 L 3.949219 107.949219 C 3.949219 107.921875 3.972656 107.898438 4 107.898438 M 4 107.898438 L 8 107.898438 M 8 107.898438 L 33 107.898438 C 46.78125 107.898438 57.949219 96.726563 57.949219 82.949219 M 57.949219 82.949219 C 57.949219 69.113281 69.164062 57.898438 83 57.898438 M 83 57.898438 L 108 57.898438 M 108 57.898438 L 112 57.898438 C 112.027344 57.898438 112.050781 57.921875 112.050781 57.949219 M 112.050781 57.949219 L 112.050781 71.949219 C 112.050781 71.976563 112.027344 72 112 72 M 112 72 L 108 72 C 108.027344 72 108.050781 71.976563 108.050781 71.949219 M 108.050781 71.949219 L 108.050781 79.949219 C 108.050781 79.921875 108.027344 79.898438 108 79.898438 M 108 79.898438 L 112 79.898438 C 112.027344 79.898438 112.050781 79.921875 112.050781 79.949219 M 112.050781 79.949219 L 112.050781 87.949219 C 112.050781 87.976563 112.027344 88 112 88 M 112 88 L 108 88 C 108.027344 88 108.050781 87.976563 108.050781 87.949219 M 108.050781 87.949219 L 108.050781 95.949219 C 108.050781 95.921875 108.027344 95.898438 108 95.898438 M 108 95.898438 L 112 95.898438 C 112.027344 95.898438 112.050781 95.921875 112.050781 95.949219 M 112.050781 95.949219 L 112.050781 103.949219 C 112.050781 103.976563 112.027344 104 112 104 M 112 104 L 108 104 C 108.027344 104 108.050781 103.976563 108.050781 103.949219 M 108.050781 103.949219 L 108.050781 111.949219 C 108.050781 111.921875 108.027344 111.898438 108 111.898438 M 108 111.898438 L 112 111.898438 C 112.027344 111.898438 112.050781 111.921875 112.050781 111.949219 M 112.050781 111.949219 L 112.050781 119.949219 C 112.050781 119.976563 112.027344 120 112 120 M 112 120 L 108 120 C 108.027344 120 108.050781 119.976563 108.050781 119.949219 M 108.050781 119.949219 L 108.050781 127.949219 C 108.050781 127.921875 108.027344 127.898438 108 127.898438 M 108 127.898438 L 112 127.898438 C 112.027344 127.898438 112.050781 127.921875 112.050781 127.949219 M 112.050781 127.949219 L 112.050781 135.949219 C 112.050781 135.976563 112.027344 136 112 136 M 112 136 L 108 136 C 108.027344 136 108.050781 135.976563 108.050781 135.949219 M 108.050781 135.949219 L 108.050781 143.949219 C 108.050781 143.921875 108.027344 143.898438 108 143.898438 M 108 143.898438 L 112 143.898438 C 112.027344 143.898438 112.050781 143.921875 112.050781 143.949219 M 112.050781 143.949219 L 112.050781 157.949219 M 112.050781 157.949219 L 112.050781 161.949219 C 112.050781 161.976563 112.027344 162 112 162 M 0 0 L 4 0 M 4 0 L 18 0.000000000000014211 C 18.027344 0.000000000000014211 18.050781 0.0234375 18.050781 0.0507813 M 18.050781 0.0507813 L 18.050781 4.050781 C 18.050781 4.023438 18.027344 4 18 4 M 18 4 L 26 4 C 25.972656 4 25.949219 4.023438 25.949219 4.050781 M 25.949219 4.050781 L 25.949219 0.0507813 C 25.949219 0.0234375 25.972656 0.000000000000014211 26 0.000000000000014211 M 26 0.000000000000014211 L 34 0.000000000000028422 C 34.027344 0.000000000000028422 34.050781 0.0234375 34.050781 0.0507813 M 34.050781 0.0507813 L 34.050781 4.050781 C 34.050781 4.023438 34.027344 4 34 4 M 34 4 L 42 4 C 41.972656 4 41.949219 4.023438 41.949219 4.050781 M 41.949219 4.050781 L 41.949219 0.0507813 C 41.949219 0.0234375 41.972656 0.000000000000028422 42 0.000000000000028422 M 42 0.000000000000028422 L 50 0.000000000000028422 C 50.027344 0.000000000000028422 50.050781 0.0234375 50.050781 0.0507813 M 50.050781 0.0507813 L 50.050781 4.050781 C 50.050781 4.023438 50.027344 4 50 4 M 50 4 L 58 4 C 57.972656 4 57.949219 4.023438 57.949219 4.050781 M 57.949219 4.050781 L 57.949219 0.0507813 C 57.949219 0.0234375 57.972656 0.000000000000042633 58 0.000000000000042633 M 58 0.000000000000042633 L 66 0.000000000000042633 C 66.027344 0.000000000000042633 66.050781 0.0234375 66.050781 0.0507813 M 66.050781 0.0507813 L 66.050781 4.050781 C 66.050781 4.023438 66.027344 4 66 4 M 66 4 L 74 4 C 73.972656 4 73.949219 4.023438 73.949219 4.050781 M 73.949219 4.050781 L 73.949219 0.0507813 C 73.949219 0.0234375 73.972656 0.000000000000042633 74 0.000000000000042633 M 74 0.000000000000042633 L 82 0.000000000000056843 C 82.027344 0.000000000000056843 82.050781 0.0234375 82.050781 0.0507813 M 82.050781 0.0507813 L 82.050781 4.050781 C 82.050781 4.023438 82.027344 4 82 4 M 82 4 L 90 4 C 89.972656 4 89.949219 4.023438 89.949219 4.050781 M 89.949219 4.050781 L 89.949219 0.0507813 C 89.949219 0.0234375 89.972656 0.000000000000056843 90 0.000000000000056843 M 90 0.000000000000056843 L 104 0.000000000000071054 M 104 0.000000000000071054 L 108 0.000000000000071054 C 108.027344 0.000000000000071054 108.050781 0.0234375 108.050781 0.0507813 M 108.050781 0.0507813 L 108.050781 4.050781 M 108.050781 4.050781 L 108.050781 17.050781 C 108.050781 17.078125 108.027344 17.101563 108 17.101563 M 108 17.101563 L 104 17.101563 C 104.027344 17.101563 104.050781 17.078125 104.050781 17.050781 M 104.050781 17.050781 L 104.050781 25.050781 C 104.050781 25.023438 104.027344 25 104 25 M 104 25 L 108 25 C 108.027344 25 108.050781 25.023438 108.050781 25.050781 M 108.050781 25.050781 L 108.050781 33.050781 C 108.050781 33.078125 108.027344 33.101563 108 33.101563 M 108 33.101563 L 104 33.101563 C 104.027344 33.101563 104.050781 33.078125 104.050781 33.050781 M 104.050781 33.050781 L 104.050781 41.050781 C 104.050781 41.023438 104.027344 41 104 41 M 104 41 L 108 41 C 108.027344 41 108.050781 41.023438 108.050781 41.050781 M 108.050781 41.050781 L 108.050781 54.050781 C 108.050781 54.078125 108.027344 54.101563 108 54.101563 M 108 54.101563 L 104 54.101563 M 104 54.101563 L 79 54.101563 C 65.21875 54.101563 54.050781 65.273438 54.050781 79.050781 M 54.050781 79.050781 C 54.050781 92.886719 42.835937 104.101563 29 104.101563 M 29 104.101563 L 4 104.101562 M 4 104.101562 L -0.000000000000056843 104.101562 C -0.0273438 104.101562 -0.0507813 104.078125 -0.0507813 104.050781 M -0.0507813 104.050781 L -0.0507813 90.050781 C -0.0507813 90.023438 -0.0273438 90 -0.000000000000056843 90 M -0.000000000000056843 90 L 4 90 C 3.972656 90 3.949219 90.023438 3.949219 90.050781 M 3.949219 90.050781 L 3.949219 82.050781 C 3.949219 82.078125 3.972656 82.101562 4 82.101562 M 4 82.101562 L -0.000000000000056843 82.101562 C -0.0273438 82.101562 -0.0507813 82.078125 -0.0507813 82.050781 M -0.0507813 82.050781 L -0.0507813 74.050781 C -0.0507813 74.023438 -0.0273438 74 -0.000000000000056843 74 M -0.000000000000056843 74 L 4 74 C 3.972656 74 3.949219 74.023438 3.949219 74.050781 M 3.949219 74.050781 L 3.949219 66.050781 C 3.949219 66.078125 3.972656 66.101562 4 66.101562 M 4 66.101562 L -0.000000000000056843 66.101562 C -0.0273438 66.101562 -0.0507813 66.078125 -0.0507813 66.050781 M -0.0507813 66.050781 L -0.0507813 58.050781 C -0.0507813 58.023438 -0.0273438 58 -0.000000000000028422 58 M -0.000000000000028422 58 L 4 58 C 3.972656 58 3.949219 58.023438 3.949219 58.050781 M 3.949219 58.050781 L 3.949219 50.050781 C 3.949219 50.078125 3.972656 50.101562 4 50.101562 M 4 50.101562 L -0.000000000000028422 50.101562 C -0.0273438 50.101562 -0.0507813 50.078125 -0.0507813 50.050781 M -0.0507813 50.050781 L -0.0507813 42.050781 C -0.0507813 42.023438 -0.0273438 42 -0.000000000000028422 42 M -0.000000000000028422 42 L 4 42 C 3.972656 42 3.949219 42.023438 3.949219 42.050781 M 3.949219 42.050781 L 3.949219 34.050781 C 3.949219 34.078125 3.972656 34.101562 4 34.101562 M 4 34.101562 L -0.000000000000028422 34.101562 C -0.0273438 34.101562 -0.0507813 34.078125 -0.0507813 34.050781 M -0.0507813 34.050781 L -0.0507813 26.050781 C -0.0507813 26.023438 -0.0273438 26 -0.000000000000028422 26 M -0.000000000000028422 26 L 4 26 C 3.972656 26 3.949219 26.023438 3.949219 26.050781 M 3.949219 26.050781 L 3.949219 18.050781 C 3.949219 18.078125 3.972656 18.101562 4 18.101562 M 4 18.101562 L -0.000000000000028422 18.101562 C -0.0273438 18.101562 -0.0507813 18.078125 -0.0507813 18.050781 M -0.0507813 18.050781 L -0.0507812 4.050781 M -0.0507812 4.050781 L -0.0507812 0.0507812 C -0.0507812 0.0234375 -0.0273438 0 0 0 " transform="matrix(-1,-0.000000000000000612,-0.000000000000000612,1,227.199219,101)"/>
</g>
</svg>
