<?xml version='1.0' encoding='utf-8'?>
<svg height="1141.50mm" viewBox="0.0 0.0 234.80 1141.50" width="234.80mm" xmlns="http://www.w3.org/2000/svg" xmlns:cc="http://creativecommons.org/ns#" xmlns:dc="http://purl.org/dc/elements/1.1/" xmlns:inkscape="http://www.inkscape.org/namespaces/inkscape" xmlns:rdf="http://www.w3.org/1999/02/22-rdf-syntax-ns#" xmlns:svg="http://www.w3.org/2000/svg" xmlns:xlink="http://www.w3.org/1999/xlink">
<!--
NightLightBox - Simple decorative lamp with creatively laser cut plates


This is a simple light box with a closed compartment for electronics and the backlighting.


Created with Boxes.py (https://boxes.hackerspace-bamberg.de/)
Command line (remove spaces between dashes): boxes NightLightBox
-->
<title>NightLightBox</title>
<metadata>
<rdf:RDF><cc:Work>
<dc:title>Misc - NightLightBox</dc:title>
<dc:source>boxes NightLightBox</dc:source>
<dc:description>Simple decorative lamp with creatively laser cut plates

This is a simple light box with a closed compartment for electronics and the backlighting.

Created with Boxes.py (https://boxes.hackerspace-bamberg.de/)
Command line: boxes NightLightBox
Command line short: boxes NightLightBox
</dc:description>
</cc:Work></rdf:RDF></metadata>
<g id="p-0" style="fill:none;stroke-linecap:round;stroke-linejoin:round;">
  <path d="M 118.700 1131.500 H 218.700 V 1121.500 H 118.700 V 1131.500 Z" stroke="rgb(0,0,0)" stroke-width="0.20" />
  <text dominant-baseline="hanging" font-size="6px" style="font-family: sans-serif ; font-weight: normal; font-style: normal; fill: rgb(255,0,0)" text-anchor="middle" transform="matrix( 1.000 0.000 0.000 1.000 168.700 1123.500 )">100.0mm, burn:0.10mm</text>
</g>
<g id="p-1" style="fill:none;stroke-linecap:round;stroke-linejoin:round;">
  <path d="M 168.950 1020.700 H 170.350 C 170.450 1020.700 170.350 1020.800 170.350 1020.700 V 1017.900 C 170.350 1017.800 170.450 1017.900 170.350 1017.900 H 167.550 C 167.450 1017.900 167.550 1017.800 167.550 1017.900 V 1020.700 C 167.550 1020.800 167.450 1020.700 167.550 1020.700 H 168.950 Z" stroke="rgb(0,0,255)" stroke-width="0.20" />
  <path d="M 163.050 1089.800 C 163.050 1090.068 163.127 1090.331 163.272 1090.557 C 163.417 1090.783 163.624 1090.962 163.868 1091.073 C 164.113 1091.185 164.384 1091.224 164.649 1091.186 C 164.915 1091.148 165.164 1091.034 165.367 1090.858 C 165.570 1090.682 165.718 1090.452 165.793 1090.194 C 165.869 1089.937 165.869 1089.663 165.793 1089.406 C 165.718 1089.148 165.570 1088.918 165.367 1088.742 C 165.164 1088.566 164.915 1088.452 164.649 1088.414 C 164.384 1088.376 164.113 1088.415 163.868 1088.527 C 163.624 1088.638 163.417 1088.817 163.272 1089.043 C 163.127 1089.269 163.050 1089.532 163.050 1089.800 Z" stroke="rgb(0,0,255)" stroke-width="0.20" />
  <path d="M 213.700 1110.700 H 216.600 C 216.700 1110.700 216.600 1110.800 216.600 1110.700 V 1107.900 C 216.600 1107.800 216.700 1107.900 216.600 1107.900 H 210.800 C 210.700 1107.900 210.800 1107.800 210.800 1107.900 V 1110.700 C 210.800 1110.800 210.700 1110.700 210.800 1110.700 H 213.700 Z" stroke="rgb(0,0,255)" stroke-width="0.20" />
  <path d="M 201.700 1110.700 H 204.600 C 204.700 1110.700 204.600 1110.800 204.600 1110.700 V 1107.900 C 204.600 1107.800 204.700 1107.900 204.600 1107.900 H 198.800 C 198.700 1107.900 198.800 1107.800 198.800 1107.900 V 1110.700 C 198.800 1110.800 198.700 1110.700 198.800 1110.700 H 201.700 Z" stroke="rgb(0,0,255)" stroke-width="0.20" />
  <path d="M 189.700 1110.700 H 192.600 C 192.700 1110.700 192.600 1110.800 192.600 1110.700 V 1107.900 C 192.600 1107.800 192.700 1107.900 192.600 1107.900 H 186.800 C 186.700 1107.900 186.800 1107.800 186.800 1107.900 V 1110.700 C 186.800 1110.800 186.700 1110.700 186.800 1110.700 H 189.700 Z" stroke="rgb(0,0,255)" stroke-width="0.20" />
  <path d="M 177.700 1110.700 H 180.600 C 180.700 1110.700 180.600 1110.800 180.600 1110.700 V 1107.900 C 180.600 1107.800 180.700 1107.900 180.600 1107.900 H 174.800 C 174.700 1107.900 174.800 1107.800 174.800 1107.900 V 1110.700 C 174.800 1110.800 174.700 1110.700 174.800 1110.700 H 177.700 Z" stroke="rgb(0,0,255)" stroke-width="0.20" />
  <path d="M 165.700 1110.700 H 168.600 C 168.700 1110.700 168.600 1110.800 168.600 1110.700 V 1107.900 C 168.600 1107.800 168.700 1107.900 168.600 1107.900 H 162.800 C 162.700 1107.900 162.800 1107.800 162.800 1107.900 V 1110.700 C 162.800 1110.800 162.700 1110.700 162.800 1110.700 H 165.700 Z" stroke="rgb(0,0,255)" stroke-width="0.20" />
  <path d="M 153.700 1110.700 H 156.600 C 156.700 1110.700 156.600 1110.800 156.600 1110.700 V 1107.900 C 156.600 1107.800 156.700 1107.900 156.600 1107.900 H 150.800 C 150.700 1107.900 150.800 1107.800 150.800 1107.900 V 1110.700 C 150.800 1110.800 150.700 1110.700 150.800 1110.700 H 153.700 Z" stroke="rgb(0,0,255)" stroke-width="0.20" />
  <path d="M 141.700 1110.700 H 144.600 C 144.700 1110.700 144.600 1110.800 144.600 1110.700 V 1107.900 C 144.600 1107.800 144.700 1107.900 144.600 1107.900 H 138.800 C 138.700 1107.900 138.800 1107.800 138.800 1107.900 V 1110.700 C 138.800 1110.800 138.700 1110.700 138.800 1110.700 H 141.700 Z" stroke="rgb(0,0,255)" stroke-width="0.20" />
  <path d="M 129.700 1110.700 H 132.600 C 132.700 1110.700 132.600 1110.800 132.600 1110.700 V 1107.900 C 132.600 1107.800 132.700 1107.900 132.600 1107.900 H 126.800 C 126.700 1107.900 126.800 1107.800 126.800 1107.900 V 1110.700 C 126.800 1110.800 126.700 1110.700 126.800 1110.700 H 129.700 Z" stroke="rgb(0,0,255)" stroke-width="0.20" />
  <text dominant-baseline="hanging" font-size="4px" style="font-family: sans-serif ; font-weight: normal; font-style: normal; fill: rgb(255,0,0)" text-anchor="middle" transform="matrix( 1.000 0.000 0.000 1.000 170.200 1056.050 )">left</text><path d="M 221.700 1119.800 H 209.700 C 208.629 1119.800 207.577 1119.518 206.650 1118.983 C 205.723 1118.447 204.953 1117.677 204.417 1116.750 C 203.899 1115.853 203.155 1115.108 202.258 1114.590 C 201.361 1114.073 200.343 1113.800 199.308 1113.800 H 144.092 C 143.057 1113.800 142.039 1114.073 141.142 1114.590 C 140.245 1115.108 139.501 1115.853 138.983 1116.750 C 138.447 1117.677 137.677 1118.447 136.750 1118.983 C 135.823 1119.518 134.771 1119.800 133.700 1119.800 H 121.700 C 121.645 1119.800 121.600 1119.755 121.600 1119.700 V 1107.700 V 1103.050 C 121.600 1102.950 121.700 1103.050 121.600 1103.050 H 118.700 C 118.645 1103.050 118.600 1103.005 118.600 1102.950 V 1096.950 C 118.600 1096.895 118.645 1096.850 118.700 1096.850 H 121.600 C 121.700 1096.850 121.600 1096.950 121.600 1096.850 V 1091.050 C 121.600 1090.950 121.700 1091.050 121.600 1091.050 H 118.700 C 118.645 1091.050 118.600 1091.005 118.600 1090.950 V 1084.950 C 118.600 1084.895 118.645 1084.850 118.700 1084.850 H 121.600 C 121.700 1084.850 121.600 1084.950 121.600 1084.850 V 1079.050 C 121.600 1078.950 121.700 1079.050 121.600 1079.050 H 118.700 C 118.645 1079.050 118.600 1079.005 118.600 1078.950 V 1072.950 C 118.600 1072.895 118.645 1072.850 118.700 1072.850 H 121.600 C 121.700 1072.850 121.600 1072.950 121.600 1072.850 V 1067.050 C 121.600 1066.950 121.700 1067.050 121.600 1067.050 H 118.700 C 118.645 1067.050 118.600 1067.005 118.600 1066.950 V 1060.950 C 118.600 1060.895 118.645 1060.850 118.700 1060.850 H 121.600 C 121.700 1060.850 121.600 1060.950 121.600 1060.850 V 1055.050 C 121.600 1054.950 121.700 1055.050 121.600 1055.050 H 118.700 C 118.645 1055.050 118.600 1055.005 118.600 1054.950 V 1048.950 C 118.600 1048.895 118.645 1048.850 118.700 1048.850 H 121.600 C 121.700 1048.850 121.600 1048.950 121.600 1048.850 V 1043.050 C 121.600 1042.950 121.700 1043.050 121.600 1043.050 H 118.700 C 118.645 1043.050 118.600 1043.005 118.600 1042.950 V 1036.950 C 118.600 1036.895 118.645 1036.850 118.700 1036.850 H 121.600 C 121.700 1036.850 121.600 1036.950 121.600 1036.850 V 1031.050 C 121.600 1030.950 121.700 1031.050 121.600 1031.050 H 118.700 C 118.645 1031.050 118.600 1031.005 118.600 1030.950 V 1024.950 C 118.600 1024.895 118.645 1024.850 118.700 1024.850 H 121.600 C 121.700 1024.850 121.600 1024.950 121.600 1024.850 V 1019.050 C 121.600 1018.950 121.700 1019.050 121.600 1019.050 H 118.700 C 118.645 1019.050 118.600 1019.005 118.600 1018.950 V 1012.950 C 118.600 1012.895 118.645 1012.850 118.700 1012.850 H 121.600 C 121.700 1012.850 121.600 1012.950 121.600 1012.850 V 1008.200 C 121.600 1008.145 121.645 1008.100 121.700 1008.100 C 121.645 1008.100 121.600 1008.145 121.600 1008.200 V 1006.700 C 121.600 1005.498 121.917 1004.316 122.518 1003.275 C 123.119 1002.234 123.984 1001.369 125.025 1000.768 C 126.066 1000.167 127.248 999.850 128.450 999.850 C 129.652 999.850 130.834 1000.167 131.875 1000.768 C 132.916 1001.369 133.781 1002.234 134.382 1003.275 C 134.983 1004.316 135.300 1005.498 135.300 1006.700 C 135.300 1006.946 135.365 1007.187 135.488 1007.400 C 135.610 1007.613 135.787 1007.790 136.000 1007.912 C 136.213 1008.035 136.454 1008.100 136.700 1008.100 H 140.075 C 140.130 1008.100 140.175 1008.145 140.175 1008.200 V 1011.100 C 140.175 1011.200 140.075 1011.100 140.175 1011.100 H 145.975 C 146.075 1011.100 145.975 1011.200 145.975 1011.100 V 1008.200 C 145.975 1008.145 146.020 1008.100 146.075 1008.100 H 152.075 C 152.130 1008.100 152.175 1008.145 152.175 1008.200 V 1011.100 C 152.175 1011.200 152.075 1011.100 152.175 1011.100 H 157.975 C 158.075 1011.100 157.975 1011.200 157.975 1011.100 V 1008.200 C 157.975 1008.145 158.020 1008.100 158.075 1008.100 H 161.450 H 176.700 C 176.755 1008.100 176.800 1008.145 176.800 1008.200 V 1014.600 C 176.800 1014.700 176.700 1014.600 176.800 1014.600 H 182.100 C 182.200 1014.600 182.100 1014.700 182.100 1014.600 V 1008.200 C 182.100 1008.145 182.145 1008.100 182.200 1008.100 H 191.700 C 191.755 1008.100 191.800 1008.145 191.800 1008.200 V 1014.600 C 191.800 1014.700 191.700 1014.600 191.800 1014.600 H 197.100 C 197.200 1014.600 197.100 1014.700 197.100 1014.600 V 1008.200 C 197.100 1008.145 197.145 1008.100 197.200 1008.100 H 206.700 C 206.755 1008.100 206.800 1008.145 206.800 1008.200 V 1014.600 C 206.800 1014.700 206.700 1014.600 206.800 1014.600 H 212.100 C 212.200 1014.600 212.100 1014.700 212.100 1014.600 V 1008.200 C 212.100 1008.145 212.145 1008.100 212.200 1008.100 H 221.700 C 221.755 1008.100 221.800 1008.145 221.800 1008.200 V 1012.850 C 221.800 1012.950 221.700 1012.850 221.800 1012.850 H 224.700 C 224.755 1012.850 224.800 1012.895 224.800 1012.950 V 1018.950 C 224.800 1019.005 224.755 1019.050 224.700 1019.050 H 221.800 C 221.700 1019.050 221.800 1018.950 221.800 1019.050 V 1024.850 C 221.800 1024.950 221.700 1024.850 221.800 1024.850 H 224.700 C 224.755 1024.850 224.800 1024.895 224.800 1024.950 V 1030.950 C 224.800 1031.005 224.755 1031.050 224.700 1031.050 H 221.800 C 221.700 1031.050 221.800 1030.950 221.800 1031.050 V 1036.850 C 221.800 1036.950 221.700 1036.850 221.800 1036.850 H 224.700 C 224.755 1036.850 224.800 1036.895 224.800 1036.950 V 1042.950 C 224.800 1043.005 224.755 1043.050 224.700 1043.050 H 221.800 C 221.700 1043.050 221.800 1042.950 221.800 1043.050 V 1048.850 C 221.800 1048.950 221.700 1048.850 221.800 1048.850 H 224.700 C 224.755 1048.850 224.800 1048.895 224.800 1048.950 V 1054.950 C 224.800 1055.005 224.755 1055.050 224.700 1055.050 H 221.800 C 221.700 1055.050 221.800 1054.950 221.800 1055.050 V 1060.850 C 221.800 1060.950 221.700 1060.850 221.800 1060.850 H 224.700 C 224.755 1060.850 224.800 1060.895 224.800 1060.950 V 1066.950 C 224.800 1067.005 224.755 1067.050 224.700 1067.050 H 221.800 C 221.700 1067.050 221.800 1066.950 221.800 1067.050 V 1072.850 C 221.800 1072.950 221.700 1072.850 221.800 1072.850 H 224.700 C 224.755 1072.850 224.800 1072.895 224.800 1072.950 V 1078.950 C 224.800 1079.005 224.755 1079.050 224.700 1079.050 H 221.800 C 221.700 1079.050 221.800 1078.950 221.800 1079.050 V 1084.850 C 221.800 1084.950 221.700 1084.850 221.800 1084.850 H 224.700 C 224.755 1084.850 224.800 1084.895 224.800 1084.950 V 1090.950 C 224.800 1091.005 224.755 1091.050 224.700 1091.050 H 221.800 C 221.700 1091.050 221.800 1090.950 221.800 1091.050 V 1096.850 C 221.800 1096.950 221.700 1096.850 221.800 1096.850 H 224.700 C 224.755 1096.850 224.800 1096.895 224.800 1096.950 V 1102.950 C 224.800 1103.005 224.755 1103.050 224.700 1103.050 H 221.800 C 221.700 1103.050 221.800 1102.950 221.800 1103.050 V 1107.700 V 1119.700 C 221.800 1119.755 221.755 1119.800 221.700 1119.800" stroke="rgb(0,0,0)" stroke-width="0.20" />
  <path d="M 132.100 1006.600 C 132.100 1005.900 131.899 1005.215 131.521 1004.627 C 131.142 1004.038 130.603 1003.571 129.966 1003.280 C 129.330 1002.989 128.623 1002.888 127.931 1002.987 C 127.238 1003.087 126.589 1003.383 126.060 1003.842 C 125.531 1004.300 125.145 1004.900 124.948 1005.572 C 124.751 1006.243 124.751 1006.957 124.948 1007.628 C 125.145 1008.300 125.531 1008.900 126.060 1009.358 C 126.589 1009.817 127.238 1010.113 127.931 1010.213 C 128.623 1010.312 129.330 1010.211 129.966 1009.920 C 130.603 1009.629 131.142 1009.162 131.521 1008.573 C 131.899 1007.985 132.100 1007.300 132.100 1006.600 Z" stroke="rgb(0,0,255)" stroke-width="0.20" />
  <path d="M 128.450 1005.200 H 127.175 C 127.075 1005.200 127.175 1005.100 127.175 1005.200 V 1008.000 C 127.175 1008.100 127.075 1008.000 127.175 1008.000 H 129.725 C 129.825 1008.000 129.725 1008.100 129.725 1008.000 V 1005.200 C 129.725 1005.100 129.825 1005.200 129.725 1005.200 H 128.450 Z" stroke="rgb(0,0,255)" stroke-width="0.20" />
</g>
<g id="p-2" style="fill:none;stroke-linecap:round;stroke-linejoin:round;">
  <path d="M 66.750 1020.700 H 65.350 C 65.250 1020.700 65.350 1020.800 65.350 1020.700 V 1017.900 C 65.350 1017.800 65.250 1017.900 65.350 1017.900 H 68.150 C 68.250 1017.900 68.150 1017.800 68.150 1017.900 V 1020.700 C 68.150 1020.800 68.250 1020.700 68.150 1020.700 H 66.750 Z" stroke="rgb(0,0,255)" stroke-width="0.20" />
  <path d="M 72.650 1089.800 C 72.650 1090.068 72.573 1090.331 72.428 1090.557 C 72.283 1090.783 72.076 1090.962 71.832 1091.073 C 71.587 1091.185 71.316 1091.224 71.051 1091.186 C 70.785 1091.148 70.536 1091.034 70.333 1090.858 C 70.130 1090.682 69.982 1090.452 69.907 1090.194 C 69.831 1089.937 69.831 1089.663 69.907 1089.406 C 69.982 1089.148 70.130 1088.918 70.333 1088.742 C 70.536 1088.566 70.785 1088.452 71.051 1088.414 C 71.316 1088.376 71.587 1088.415 71.832 1088.527 C 72.076 1088.638 72.283 1088.817 72.428 1089.043 C 72.573 1089.269 72.650 1089.532 72.650 1089.800 Z" stroke="rgb(0,0,255)" stroke-width="0.20" />
  <path d="M 22.000 1110.700 H 19.100 C 19.000 1110.700 19.100 1110.800 19.100 1110.700 V 1107.900 C 19.100 1107.800 19.000 1107.900 19.100 1107.900 H 24.900 C 25.000 1107.900 24.900 1107.800 24.900 1107.900 V 1110.700 C 24.900 1110.800 25.000 1110.700 24.900 1110.700 H 22.000 Z" stroke="rgb(0,0,255)" stroke-width="0.20" />
  <path d="M 34.000 1110.700 H 31.100 C 31.000 1110.700 31.100 1110.800 31.100 1110.700 V 1107.900 C 31.100 1107.800 31.000 1107.900 31.100 1107.900 H 36.900 C 37.000 1107.900 36.900 1107.800 36.900 1107.900 V 1110.700 C 36.900 1110.800 37.000 1110.700 36.900 1110.700 H 34.000 Z" stroke="rgb(0,0,255)" stroke-width="0.20" />
  <path d="M 46.000 1110.700 H 43.100 C 43.000 1110.700 43.100 1110.800 43.100 1110.700 V 1107.900 C 43.100 1107.800 43.000 1107.900 43.100 1107.900 H 48.900 C 49.000 1107.900 48.900 1107.800 48.900 1107.900 V 1110.700 C 48.900 1110.800 49.000 1110.700 48.900 1110.700 H 46.000 Z" stroke="rgb(0,0,255)" stroke-width="0.20" />
  <path d="M 58.000 1110.700 H 55.100 C 55.000 1110.700 55.100 1110.800 55.100 1110.700 V 1107.900 C 55.100 1107.800 55.000 1107.900 55.100 1107.900 H 60.900 C 61.000 1107.900 60.900 1107.800 60.900 1107.900 V 1110.700 C 60.900 1110.800 61.000 1110.700 60.900 1110.700 H 58.000 Z" stroke="rgb(0,0,255)" stroke-width="0.20" />
  <path d="M 70.000 1110.700 H 67.100 C 67.000 1110.700 67.100 1110.800 67.100 1110.700 V 1107.900 C 67.100 1107.800 67.000 1107.900 67.100 1107.900 H 72.900 C 73.000 1107.900 72.900 1107.800 72.900 1107.900 V 1110.700 C 72.900 1110.800 73.000 1110.700 72.900 1110.700 H 70.000 Z" stroke="rgb(0,0,255)" stroke-width="0.20" />
  <path d="M 82.000 1110.700 H 79.100 C 79.000 1110.700 79.100 1110.800 79.100 1110.700 V 1107.900 C 79.100 1107.800 79.000 1107.900 79.100 1107.900 H 84.900 C 85.000 1107.900 84.900 1107.800 84.900 1107.900 V 1110.700 C 84.900 1110.800 85.000 1110.700 84.900 1110.700 H 82.000 Z" stroke="rgb(0,0,255)" stroke-width="0.20" />
  <path d="M 94.000 1110.700 H 91.100 C 91.000 1110.700 91.100 1110.800 91.100 1110.700 V 1107.900 C 91.100 1107.800 91.000 1107.900 91.100 1107.900 H 96.900 C 97.000 1107.900 96.900 1107.800 96.900 1107.900 V 1110.700 C 96.900 1110.800 97.000 1110.700 96.900 1110.700 H 94.000 Z" stroke="rgb(0,0,255)" stroke-width="0.20" />
  <path d="M 106.000 1110.700 H 103.100 C 103.000 1110.700 103.100 1110.800 103.100 1110.700 V 1107.900 C 103.100 1107.800 103.000 1107.900 103.100 1107.900 H 108.900 C 109.000 1107.900 108.900 1107.800 108.900 1107.900 V 1110.700 C 108.900 1110.800 109.000 1110.700 108.900 1110.700 H 106.000 Z" stroke="rgb(0,0,255)" stroke-width="0.20" />
  <text dominant-baseline="hanging" font-size="4px" style="font-family: sans-serif ; font-weight: normal; font-style: normal; fill: rgb(255,0,0)" text-anchor="middle" transform="matrix( 1.000 0.000 0.000 1.000 65.500 1056.050 )">right</text><path d="M 14.000 1119.800 H 26.000 C 27.071 1119.800 28.123 1119.518 29.050 1118.983 C 29.977 1118.447 30.747 1117.677 31.283 1116.750 C 31.801 1115.853 32.545 1115.108 33.442 1114.590 C 34.339 1114.073 35.357 1113.800 36.392 1113.800 H 91.608 C 92.643 1113.800 93.661 1114.073 94.558 1114.590 C 95.455 1115.108 96.199 1115.853 96.717 1116.750 C 97.253 1117.677 98.023 1118.447 98.950 1118.983 C 99.877 1119.518 100.929 1119.800 102.000 1119.800 H 114.000 C 114.055 1119.800 114.100 1119.755 114.100 1119.700 V 1107.700 V 1103.050 C 114.100 1102.950 114.000 1103.050 114.100 1103.050 H 117.000 C 117.055 1103.050 117.100 1103.005 117.100 1102.950 V 1096.950 C 117.100 1096.895 117.055 1096.850 117.000 1096.850 H 114.100 C 114.000 1096.850 114.100 1096.950 114.100 1096.850 V 1091.050 C 114.100 1090.950 114.000 1091.050 114.100 1091.050 H 117.000 C 117.055 1091.050 117.100 1091.005 117.100 1090.950 V 1084.950 C 117.100 1084.895 117.055 1084.850 117.000 1084.850 H 114.100 C 114.000 1084.850 114.100 1084.950 114.100 1084.850 V 1079.050 C 114.100 1078.950 114.000 1079.050 114.100 1079.050 H 117.000 C 117.055 1079.050 117.100 1079.005 117.100 1078.950 V 1072.950 C 117.100 1072.895 117.055 1072.850 117.000 1072.850 H 114.100 C 114.000 1072.850 114.100 1072.950 114.100 1072.850 V 1067.050 C 114.100 1066.950 114.000 1067.050 114.100 1067.050 H 117.000 C 117.055 1067.050 117.100 1067.005 117.100 1066.950 V 1060.950 C 117.100 1060.895 117.055 1060.850 117.000 1060.850 H 114.100 C 114.000 1060.850 114.100 1060.950 114.100 1060.850 V 1055.050 C 114.100 1054.950 114.000 1055.050 114.100 1055.050 H 117.000 C 117.055 1055.050 117.100 1055.005 117.100 1054.950 V 1048.950 C 117.100 1048.895 117.055 1048.850 117.000 1048.850 H 114.100 C 114.000 1048.850 114.100 1048.950 114.100 1048.850 V 1043.050 C 114.100 1042.950 114.000 1043.050 114.100 1043.050 H 117.000 C 117.055 1043.050 117.100 1043.005 117.100 1042.950 V 1036.950 C 117.100 1036.895 117.055 1036.850 117.000 1036.850 H 114.100 C 114.000 1036.850 114.100 1036.950 114.100 1036.850 V 1031.050 C 114.100 1030.950 114.000 1031.050 114.100 1031.050 H 117.000 C 117.055 1031.050 117.100 1031.005 117.100 1030.950 V 1024.950 C 117.100 1024.895 117.055 1024.850 117.000 1024.850 H 114.100 C 114.000 1024.850 114.100 1024.950 114.100 1024.850 V 1019.050 C 114.100 1018.950 114.000 1019.050 114.100 1019.050 H 117.000 C 117.055 1019.050 117.100 1019.005 117.100 1018.950 V 1012.950 C 117.100 1012.895 117.055 1012.850 117.000 1012.850 H 114.100 C 114.000 1012.850 114.100 1012.950 114.100 1012.850 V 1008.200 C 114.100 1008.145 114.055 1008.100 114.000 1008.100 C 114.055 1008.100 114.100 1008.145 114.100 1008.200 V 1006.700 C 114.100 1005.498 113.783 1004.316 113.182 1003.275 C 112.581 1002.234 111.716 1001.369 110.675 1000.768 C 109.634 1000.167 108.452 999.850 107.250 999.850 C 106.048 999.850 104.866 1000.167 103.825 1000.768 C 102.784 1001.369 101.919 1002.234 101.318 1003.275 C 100.717 1004.316 100.400 1005.498 100.400 1006.700 C 100.400 1006.946 100.335 1007.187 100.212 1007.400 C 100.090 1007.613 99.913 1007.790 99.700 1007.912 C 99.487 1008.035 99.246 1008.100 99.000 1008.100 H 95.625 C 95.570 1008.100 95.525 1008.145 95.525 1008.200 V 1011.100 C 95.525 1011.200 95.625 1011.100 95.525 1011.100 H 89.725 C 89.625 1011.100 89.725 1011.200 89.725 1011.100 V 1008.200 C 89.725 1008.145 89.680 1008.100 89.625 1008.100 H 83.625 C 83.570 1008.100 83.525 1008.145 83.525 1008.200 V 1011.100 C 83.525 1011.200 83.625 1011.100 83.525 1011.100 H 77.725 C 77.625 1011.100 77.725 1011.200 77.725 1011.100 V 1008.200 C 77.725 1008.145 77.680 1008.100 77.625 1008.100 H 74.250 H 59.000 C 58.945 1008.100 58.900 1008.145 58.900 1008.200 V 1014.600 C 58.900 1014.700 59.000 1014.600 58.900 1014.600 H 53.600 C 53.500 1014.600 53.600 1014.700 53.600 1014.600 V 1008.200 C 53.600 1008.145 53.555 1008.100 53.500 1008.100 H 44.000 C 43.945 1008.100 43.900 1008.145 43.900 1008.200 V 1014.600 C 43.900 1014.700 44.000 1014.600 43.900 1014.600 H 38.600 C 38.500 1014.600 38.600 1014.700 38.600 1014.600 V 1008.200 C 38.600 1008.145 38.555 1008.100 38.500 1008.100 H 29.000 C 28.945 1008.100 28.900 1008.145 28.900 1008.200 V 1014.600 C 28.900 1014.700 29.000 1014.600 28.900 1014.600 H 23.600 C 23.500 1014.600 23.600 1014.700 23.600 1014.600 V 1008.200 C 23.600 1008.145 23.555 1008.100 23.500 1008.100 H 14.000 C 13.945 1008.100 13.900 1008.145 13.900 1008.200 V 1012.850 C 13.900 1012.950 14.000 1012.850 13.900 1012.850 H 11.000 C 10.945 1012.850 10.900 1012.895 10.900 1012.950 V 1018.950 C 10.900 1019.005 10.945 1019.050 11.000 1019.050 H 13.900 C 14.000 1019.050 13.900 1018.950 13.900 1019.050 V 1024.850 C 13.900 1024.950 14.000 1024.850 13.900 1024.850 H 11.000 C 10.945 1024.850 10.900 1024.895 10.900 1024.950 V 1030.950 C 10.900 1031.005 10.945 1031.050 11.000 1031.050 H 13.900 C 14.000 1031.050 13.900 1030.950 13.900 1031.050 V 1036.850 C 13.900 1036.950 14.000 1036.850 13.900 1036.850 H 11.000 C 10.945 1036.850 10.900 1036.895 10.900 1036.950 V 1042.950 C 10.900 1043.005 10.945 1043.050 11.000 1043.050 H 13.900 C 14.000 1043.050 13.900 1042.950 13.900 1043.050 V 1048.850 C 13.900 1048.950 14.000 1048.850 13.900 1048.850 H 11.000 C 10.945 1048.850 10.900 1048.895 10.900 1048.950 V 1054.950 C 10.900 1055.005 10.945 1055.050 11.000 1055.050 H 13.900 C 14.000 1055.050 13.900 1054.950 13.900 1055.050 V 1060.850 C 13.900 1060.950 14.000 1060.850 13.900 1060.850 H 11.000 C 10.945 1060.850 10.900 1060.895 10.900 1060.950 V 1066.950 C 10.900 1067.005 10.945 1067.050 11.000 1067.050 H 13.900 C 14.000 1067.050 13.900 1066.950 13.900 1067.050 V 1072.850 C 13.900 1072.950 14.000 1072.850 13.900 1072.850 H 11.000 C 10.945 1072.850 10.900 1072.895 10.900 1072.950 V 1078.950 C 10.900 1079.005 10.945 1079.050 11.000 1079.050 H 13.900 C 14.000 1079.050 13.900 1078.950 13.900 1079.050 V 1084.850 C 13.900 1084.950 14.000 1084.850 13.900 1084.850 H 11.000 C 10.945 1084.850 10.900 1084.895 10.900 1084.950 V 1090.950 C 10.900 1091.005 10.945 1091.050 11.000 1091.050 H 13.900 C 14.000 1091.050 13.900 1090.950 13.900 1091.050 V 1096.850 C 13.900 1096.950 14.000 1096.850 13.900 1096.850 H 11.000 C 10.945 1096.850 10.900 1096.895 10.900 1096.950 V 1102.950 C 10.900 1103.005 10.945 1103.050 11.000 1103.050 H 13.900 C 14.000 1103.050 13.900 1102.950 13.900 1103.050 V 1107.700 V 1119.700 C 13.900 1119.755 13.945 1119.800 14.000 1119.800" stroke="rgb(0,0,0)" stroke-width="0.20" />
  <path d="M 103.600 1006.600 C 103.600 1005.900 103.801 1005.215 104.179 1004.627 C 104.558 1004.038 105.097 1003.571 105.734 1003.280 C 106.370 1002.989 107.077 1002.888 107.769 1002.987 C 108.462 1003.087 109.111 1003.383 109.640 1003.842 C 110.169 1004.300 110.555 1004.900 110.752 1005.572 C 110.949 1006.243 110.949 1006.957 110.752 1007.628 C 110.555 1008.300 110.169 1008.900 109.640 1009.358 C 109.111 1009.817 108.462 1010.113 107.769 1010.213 C 107.077 1010.312 106.370 1010.211 105.734 1009.920 C 105.097 1009.629 104.558 1009.162 104.179 1008.573 C 103.801 1007.985 103.600 1007.300 103.600 1006.600 Z" stroke="rgb(0,0,255)" stroke-width="0.20" />
  <path d="M 107.250 1005.200 H 108.525 C 108.625 1005.200 108.525 1005.100 108.525 1005.200 V 1008.000 C 108.525 1008.100 108.625 1008.000 108.525 1008.000 H 105.975 C 105.875 1008.000 105.975 1008.100 105.975 1008.000 V 1005.200 C 105.975 1005.100 105.875 1005.200 105.975 1005.200 H 107.250 Z" stroke="rgb(0,0,255)" stroke-width="0.20" />
</g>
<g id="p-3" style="fill:none;stroke-linecap:round;stroke-linejoin:round;">
  <text dominant-baseline="hanging" font-size="4px" style="font-family: sans-serif ; font-weight: normal; font-style: normal; fill: rgb(255,0,0)" text-anchor="middle" transform="matrix( 1.000 0.000 0.000 1.000 42.000 988.100 )">rail</text><path d="M 14.000 994.600 H 20.900 C 21.000 994.600 20.900 994.500 20.900 994.600 V 997.500 C 20.900 997.555 20.945 997.600 21.000 997.600 H 27.000 C 27.055 997.600 27.100 997.555 27.100 997.500 V 994.600 C 27.100 994.500 27.000 994.600 27.100 994.600 H 32.900 C 33.000 994.600 32.900 994.500 32.900 994.600 V 997.500 C 32.900 997.555 32.945 997.600 33.000 997.600 H 39.000 C 39.055 997.600 39.100 997.555 39.100 997.500 V 994.600 C 39.100 994.500 39.000 994.600 39.100 994.600 H 44.900 C 45.000 994.600 44.900 994.500 44.900 994.600 V 997.500 C 44.900 997.555 44.945 997.600 45.000 997.600 H 51.000 C 51.055 997.600 51.100 997.555 51.100 997.500 V 994.600 C 51.100 994.500 51.000 994.600 51.100 994.600 H 56.900 C 57.000 994.600 56.900 994.500 56.900 994.600 V 997.500 C 56.900 997.555 56.945 997.600 57.000 997.600 H 63.000 C 63.055 997.600 63.100 997.555 63.100 997.500 V 994.600 C 63.100 994.500 63.000 994.600 63.100 994.600 H 70.000 C 70.055 994.600 70.100 994.555 70.100 994.500 V 988.500 C 70.100 988.445 70.055 988.400 70.000 988.400 H 67.250 C 67.195 988.400 67.150 988.445 67.150 988.500 V 991.900 C 67.150 992.000 67.250 991.900 67.150 991.900 H 61.850 C 61.750 991.900 61.850 992.000 61.850 991.900 V 988.500 C 61.850 988.445 61.805 988.400 61.750 988.400 H 52.250 C 52.195 988.400 52.150 988.445 52.150 988.500 V 991.900 C 52.150 992.000 52.250 991.900 52.150 991.900 H 46.850 C 46.750 991.900 46.850 992.000 46.850 991.900 V 988.500 C 46.850 988.445 46.805 988.400 46.750 988.400 H 37.250 C 37.195 988.400 37.150 988.445 37.150 988.500 V 991.900 C 37.150 992.000 37.250 991.900 37.150 991.900 H 31.850 C 31.750 991.900 31.850 992.000 31.850 991.900 V 988.500 C 31.850 988.445 31.805 988.400 31.750 988.400 H 22.250 C 22.195 988.400 22.150 988.445 22.150 988.500 V 991.900 C 22.150 992.000 22.250 991.900 22.150 991.900 H 16.850 C 16.750 991.900 16.850 992.000 16.850 991.900 V 988.500 C 16.850 988.445 16.805 988.400 16.750 988.400 H 14.000 C 13.945 988.400 13.900 988.445 13.900 988.500 V 994.500 C 13.900 994.555 13.945 994.600 14.000 994.600" stroke="rgb(0,0,0)" stroke-width="0.20" />
</g>
<g id="p-4" style="fill:none;stroke-linecap:round;stroke-linejoin:round;">
  <text dominant-baseline="hanging" font-size="4px" style="font-family: sans-serif ; font-weight: normal; font-style: normal; fill: rgb(255,0,0)" text-anchor="middle" transform="matrix( 1.000 0.000 0.000 1.000 42.000 977.400 )">rail</text><path d="M 70.000 983.900 H 63.100 C 63.000 983.900 63.100 983.800 63.100 983.900 V 986.800 C 63.100 986.855 63.055 986.900 63.000 986.900 H 57.000 C 56.945 986.900 56.900 986.855 56.900 986.800 V 983.900 C 56.900 983.800 57.000 983.900 56.900 983.900 H 51.100 C 51.000 983.900 51.100 983.800 51.100 983.900 V 986.800 C 51.100 986.855 51.055 986.900 51.000 986.900 H 45.000 C 44.945 986.900 44.900 986.855 44.900 986.800 V 983.900 C 44.900 983.800 45.000 983.900 44.900 983.900 H 39.100 C 39.000 983.900 39.100 983.800 39.100 983.900 V 986.800 C 39.100 986.855 39.055 986.900 39.000 986.900 H 33.000 C 32.945 986.900 32.900 986.855 32.900 986.800 V 983.900 C 32.900 983.800 33.000 983.900 32.900 983.900 H 27.100 C 27.000 983.900 27.100 983.800 27.100 983.900 V 986.800 C 27.100 986.855 27.055 986.900 27.000 986.900 H 21.000 C 20.945 986.900 20.900 986.855 20.900 986.800 V 983.900 C 20.900 983.800 21.000 983.900 20.900 983.900 H 14.000 C 13.945 983.900 13.900 983.855 13.900 983.800 V 977.800 C 13.900 977.745 13.945 977.700 14.000 977.700 H 16.750 C 16.805 977.700 16.850 977.745 16.850 977.800 V 981.200 C 16.850 981.300 16.750 981.200 16.850 981.200 H 22.150 C 22.250 981.200 22.150 981.300 22.150 981.200 V 977.800 C 22.150 977.745 22.195 977.700 22.250 977.700 H 31.750 C 31.805 977.700 31.850 977.745 31.850 977.800 V 981.200 C 31.850 981.300 31.750 981.200 31.850 981.200 H 37.150 C 37.250 981.200 37.150 981.300 37.150 981.200 V 977.800 C 37.150 977.745 37.195 977.700 37.250 977.700 H 46.750 C 46.805 977.700 46.850 977.745 46.850 977.800 V 981.200 C 46.850 981.300 46.750 981.200 46.850 981.200 H 52.150 C 52.250 981.200 52.150 981.300 52.150 981.200 V 977.800 C 52.150 977.745 52.195 977.700 52.250 977.700 H 61.750 C 61.805 977.700 61.850 977.745 61.850 977.800 V 981.200 C 61.850 981.300 61.750 981.200 61.850 981.200 H 67.150 C 67.250 981.200 67.150 981.300 67.150 981.200 V 977.800 C 67.150 977.745 67.195 977.700 67.250 977.700 H 70.000 C 70.055 977.700 70.100 977.745 70.100 977.800 V 983.800 C 70.100 983.855 70.055 983.900 70.000 983.900" stroke="rgb(0,0,0)" stroke-width="0.20" />
</g>
<g id="p-5" style="fill:none;stroke-linecap:round;stroke-linejoin:round;">
  <path d="M 22.900 953.350 V 956.250 C 22.900 956.350 23.000 956.250 22.900 956.250 H 20.100 C 20.000 956.250 20.100 956.350 20.100 956.250 V 950.450 C 20.100 950.350 20.000 950.450 20.100 950.450 H 22.900 C 23.000 950.450 22.900 950.350 22.900 950.450 V 953.350 Z" stroke="rgb(0,0,255)" stroke-width="0.20" />
  <path d="M 22.900 941.350 V 944.250 C 22.900 944.350 23.000 944.250 22.900 944.250 H 20.100 C 20.000 944.250 20.100 944.350 20.100 944.250 V 938.450 C 20.100 938.350 20.000 938.450 20.100 938.450 H 22.900 C 23.000 938.450 22.900 938.350 22.900 938.450 V 941.350 Z" stroke="rgb(0,0,255)" stroke-width="0.20" />
  <path d="M 22.900 929.350 V 932.250 C 22.900 932.350 23.000 932.250 22.900 932.250 H 20.100 C 20.000 932.250 20.100 932.350 20.100 932.250 V 926.450 C 20.100 926.350 20.000 926.450 20.100 926.450 H 22.900 C 23.000 926.450 22.900 926.350 22.900 926.450 V 929.350 Z" stroke="rgb(0,0,255)" stroke-width="0.20" />
  <path d="M 22.900 917.350 V 920.250 C 22.900 920.350 23.000 920.250 22.900 920.250 H 20.100 C 20.000 920.250 20.100 920.350 20.100 920.250 V 914.450 C 20.100 914.350 20.000 914.450 20.100 914.450 H 22.900 C 23.000 914.450 22.900 914.350 22.900 914.450 V 917.350 Z" stroke="rgb(0,0,255)" stroke-width="0.20" />
  <path d="M 188.400 953.350 V 956.250 C 188.400 956.350 188.500 956.250 188.400 956.250 H 185.600 C 185.500 956.250 185.600 956.350 185.600 956.250 V 950.450 C 185.600 950.350 185.500 950.450 185.600 950.450 H 188.400 C 188.500 950.450 188.400 950.350 188.400 950.450 V 953.350 Z" stroke="rgb(0,0,255)" stroke-width="0.20" />
  <path d="M 188.400 941.350 V 944.250 C 188.400 944.350 188.500 944.250 188.400 944.250 H 185.600 C 185.500 944.250 185.600 944.350 185.600 944.250 V 938.450 C 185.600 938.350 185.500 938.450 185.600 938.450 H 188.400 C 188.500 938.450 188.400 938.350 188.400 938.450 V 941.350 Z" stroke="rgb(0,0,255)" stroke-width="0.20" />
  <path d="M 188.400 929.350 V 932.250 C 188.400 932.350 188.500 932.250 188.400 932.250 H 185.600 C 185.500 932.250 185.600 932.350 185.600 932.250 V 926.450 C 185.600 926.350 185.500 926.450 185.600 926.450 H 188.400 C 188.500 926.450 188.400 926.350 188.400 926.450 V 929.350 Z" stroke="rgb(0,0,255)" stroke-width="0.20" />
  <path d="M 188.400 917.350 V 920.250 C 188.400 920.350 188.500 920.250 188.400 920.250 H 185.600 C 185.500 920.250 185.600 920.350 185.600 920.250 V 914.450 C 185.600 914.350 185.500 914.450 185.600 914.450 H 188.400 C 188.500 914.450 188.400 914.350 188.400 914.450 V 917.350 Z" stroke="rgb(0,0,255)" stroke-width="0.20" />
  <text dominant-baseline="hanging" font-size="4px" style="font-family: sans-serif ; font-weight: normal; font-style: normal; fill: rgb(255,0,0)" text-anchor="middle" transform="matrix( 1.000 0.000 0.000 1.000 104.250 918.200 )">bottom</text><path d="M 17.000 970.200 H 23.150 C 23.250 970.200 23.150 970.100 23.150 970.200 V 973.100 C 23.150 973.155 23.195 973.200 23.250 973.200 H 29.250 C 29.305 973.200 29.350 973.155 29.350 973.100 V 970.200 C 29.350 970.100 29.250 970.200 29.350 970.200 H 35.150 C 35.250 970.200 35.150 970.100 35.150 970.200 V 973.100 C 35.150 973.155 35.195 973.200 35.250 973.200 H 41.250 C 41.305 973.200 41.350 973.155 41.350 973.100 V 970.200 C 41.350 970.100 41.250 970.200 41.350 970.200 H 47.150 C 47.250 970.200 47.150 970.100 47.150 970.200 V 973.100 C 47.150 973.155 47.195 973.200 47.250 973.200 H 53.250 C 53.305 973.200 53.350 973.155 53.350 973.100 V 970.200 C 53.350 970.100 53.250 970.200 53.350 970.200 H 59.150 C 59.250 970.200 59.150 970.100 59.150 970.200 V 973.100 C 59.150 973.155 59.195 973.200 59.250 973.200 H 65.250 C 65.305 973.200 65.350 973.155 65.350 973.100 V 970.200 C 65.350 970.100 65.250 970.200 65.350 970.200 H 71.150 C 71.250 970.200 71.150 970.100 71.150 970.200 V 973.100 C 71.150 973.155 71.195 973.200 71.250 973.200 H 77.250 C 77.305 973.200 77.350 973.155 77.350 973.100 V 970.200 C 77.350 970.100 77.250 970.200 77.350 970.200 H 83.150 C 83.250 970.200 83.150 970.100 83.150 970.200 V 973.100 C 83.150 973.155 83.195 973.200 83.250 973.200 H 89.250 C 89.305 973.200 89.350 973.155 89.350 973.100 V 970.200 C 89.350 970.100 89.250 970.200 89.350 970.200 H 95.150 C 95.250 970.200 95.150 970.100 95.150 970.200 V 973.100 C 95.150 973.155 95.195 973.200 95.250 973.200 H 101.250 C 101.305 973.200 101.350 973.155 101.350 973.100 V 970.200 C 101.350 970.100 101.250 970.200 101.350 970.200 H 107.150 C 107.250 970.200 107.150 970.100 107.150 970.200 V 973.100 C 107.150 973.155 107.195 973.200 107.250 973.200 H 113.250 C 113.305 973.200 113.350 973.155 113.350 973.100 V 970.200 C 113.350 970.100 113.250 970.200 113.350 970.200 H 119.150 C 119.250 970.200 119.150 970.100 119.150 970.200 V 973.100 C 119.150 973.155 119.195 973.200 119.250 973.200 H 125.250 C 125.305 973.200 125.350 973.155 125.350 973.100 V 970.200 C 125.350 970.100 125.250 970.200 125.350 970.200 H 131.150 C 131.250 970.200 131.150 970.100 131.150 970.200 V 973.100 C 131.150 973.155 131.195 973.200 131.250 973.200 H 137.250 C 137.305 973.200 137.350 973.155 137.350 973.100 V 970.200 C 137.350 970.100 137.250 970.200 137.350 970.200 H 143.150 C 143.250 970.200 143.150 970.100 143.150 970.200 V 973.100 C 143.150 973.155 143.195 973.200 143.250 973.200 H 149.250 C 149.305 973.200 149.350 973.155 149.350 973.100 V 970.200 C 149.350 970.100 149.250 970.200 149.350 970.200 H 155.150 C 155.250 970.200 155.150 970.100 155.150 970.200 V 973.100 C 155.150 973.155 155.195 973.200 155.250 973.200 H 161.250 C 161.305 973.200 161.350 973.155 161.350 973.100 V 970.200 C 161.350 970.100 161.250 970.200 161.350 970.200 H 167.150 C 167.250 970.200 167.150 970.100 167.150 970.200 V 973.100 C 167.150 973.155 167.195 973.200 167.250 973.200 H 173.250 C 173.305 973.200 173.350 973.155 173.350 973.100 V 970.200 C 173.350 970.100 173.250 970.200 173.350 970.200 H 179.150 C 179.250 970.200 179.150 970.100 179.150 970.200 V 973.100 C 179.150 973.155 179.195 973.200 179.250 973.200 H 185.250 C 185.305 973.200 185.350 973.155 185.350 973.100 V 970.200 C 185.350 970.100 185.250 970.200 185.350 970.200 H 191.500 C 191.555 970.200 191.600 970.155 191.600 970.100 V 965.200 C 191.600 965.100 191.500 965.200 191.600 965.200 H 194.500 C 194.555 965.200 194.600 965.155 194.600 965.100 V 959.100 C 194.600 959.045 194.555 959.000 194.500 959.000 H 191.600 C 191.500 959.000 191.600 959.100 191.600 959.000 V 953.200 C 191.600 953.100 191.500 953.200 191.600 953.200 H 194.500 C 194.555 953.200 194.600 953.155 194.600 953.100 V 947.100 C 194.600 947.045 194.555 947.000 194.500 947.000 H 191.600 C 191.500 947.000 191.600 947.100 191.600 947.000 V 941.200 C 191.600 941.100 191.500 941.200 191.600 941.200 H 194.500 C 194.555 941.200 194.600 941.155 194.600 941.100 V 935.100 C 194.600 935.045 194.555 935.000 194.500 935.000 H 191.600 C 191.500 935.000 191.600 935.100 191.600 935.000 V 929.200 C 191.600 929.100 191.500 929.200 191.600 929.200 H 194.500 C 194.555 929.200 194.600 929.155 194.600 929.100 V 923.100 C 194.600 923.045 194.555 923.000 194.500 923.000 H 191.600 C 191.500 923.000 191.600 923.100 191.600 923.000 V 917.200 C 191.600 917.100 191.500 917.200 191.600 917.200 H 194.500 C 194.555 917.200 194.600 917.155 194.600 917.100 V 911.100 C 194.600 911.045 194.555 911.000 194.500 911.000 H 191.600 C 191.500 911.000 191.600 911.100 191.600 911.000 V 905.200 C 191.600 905.100 191.500 905.200 191.600 905.200 H 194.500 C 194.555 905.200 194.600 905.155 194.600 905.100 V 899.100 C 194.600 899.045 194.555 899.000 194.500 899.000 H 191.600 C 191.500 899.000 191.600 899.100 191.600 899.000 V 893.200 C 191.600 893.100 191.500 893.200 191.600 893.200 H 194.500 C 194.555 893.200 194.600 893.155 194.600 893.100 V 887.100 C 194.600 887.045 194.555 887.000 194.500 887.000 H 191.600 C 191.500 887.000 191.600 887.100 191.600 887.000 V 881.200 C 191.600 881.100 191.500 881.200 191.600 881.200 H 194.500 C 194.555 881.200 194.600 881.155 194.600 881.100 V 875.100 C 194.600 875.045 194.555 875.000 194.500 875.000 H 191.600 C 191.500 875.000 191.600 875.100 191.600 875.000 V 870.100 C 191.600 870.045 191.555 870.000 191.500 870.000 H 185.350 C 185.250 870.000 185.350 870.100 185.350 870.000 V 867.100 C 185.350 867.045 185.305 867.000 185.250 867.000 H 179.250 C 179.195 867.000 179.150 867.045 179.150 867.100 V 870.000 C 179.150 870.100 179.250 870.000 179.150 870.000 H 173.350 C 173.250 870.000 173.350 870.100 173.350 870.000 V 867.100 C 173.350 867.045 173.305 867.000 173.250 867.000 H 167.250 C 167.195 867.000 167.150 867.045 167.150 867.100 V 870.000 C 167.150 870.100 167.250 870.000 167.150 870.000 H 161.350 C 161.250 870.000 161.350 870.100 161.350 870.000 V 867.100 C 161.350 867.045 161.305 867.000 161.250 867.000 H 155.250 C 155.195 867.000 155.150 867.045 155.150 867.100 V 870.000 C 155.150 870.100 155.250 870.000 155.150 870.000 H 149.350 C 149.250 870.000 149.350 870.100 149.350 870.000 V 867.100 C 149.350 867.045 149.305 867.000 149.250 867.000 H 143.250 C 143.195 867.000 143.150 867.045 143.150 867.100 V 870.000 C 143.150 870.100 143.250 870.000 143.150 870.000 H 137.350 C 137.250 870.000 137.350 870.100 137.350 870.000 V 867.100 C 137.350 867.045 137.305 867.000 137.250 867.000 H 131.250 C 131.195 867.000 131.150 867.045 131.150 867.100 V 870.000 C 131.150 870.100 131.250 870.000 131.150 870.000 H 125.350 C 125.250 870.000 125.350 870.100 125.350 870.000 V 867.100 C 125.350 867.045 125.305 867.000 125.250 867.000 H 119.250 C 119.195 867.000 119.150 867.045 119.150 867.100 V 870.000 C 119.150 870.100 119.250 870.000 119.150 870.000 H 113.350 C 113.250 870.000 113.350 870.100 113.350 870.000 V 867.100 C 113.350 867.045 113.305 867.000 113.250 867.000 H 107.250 C 107.195 867.000 107.150 867.045 107.150 867.100 V 870.000 C 107.150 870.100 107.250 870.000 107.150 870.000 H 101.350 C 101.250 870.000 101.350 870.100 101.350 870.000 V 867.100 C 101.350 867.045 101.305 867.000 101.250 867.000 H 95.250 C 95.195 867.000 95.150 867.045 95.150 867.100 V 870.000 C 95.150 870.100 95.250 870.000 95.150 870.000 H 89.350 C 89.250 870.000 89.350 870.100 89.350 870.000 V 867.100 C 89.350 867.045 89.305 867.000 89.250 867.000 H 83.250 C 83.195 867.000 83.150 867.045 83.150 867.100 V 870.000 C 83.150 870.100 83.250 870.000 83.150 870.000 H 77.350 C 77.250 870.000 77.350 870.100 77.350 870.000 V 867.100 C 77.350 867.045 77.305 867.000 77.250 867.000 H 71.250 C 71.195 867.000 71.150 867.045 71.150 867.100 V 870.000 C 71.150 870.100 71.250 870.000 71.150 870.000 H 65.350 C 65.250 870.000 65.350 870.100 65.350 870.000 V 867.100 C 65.350 867.045 65.305 867.000 65.250 867.000 H 59.250 C 59.195 867.000 59.150 867.045 59.150 867.100 V 870.000 C 59.150 870.100 59.250 870.000 59.150 870.000 H 53.350 C 53.250 870.000 53.350 870.100 53.350 870.000 V 867.100 C 53.350 867.045 53.305 867.000 53.250 867.000 H 47.250 C 47.195 867.000 47.150 867.045 47.150 867.100 V 870.000 C 47.150 870.100 47.250 870.000 47.150 870.000 H 41.350 C 41.250 870.000 41.350 870.100 41.350 870.000 V 867.100 C 41.350 867.045 41.305 867.000 41.250 867.000 H 35.250 C 35.195 867.000 35.150 867.045 35.150 867.100 V 870.000 C 35.150 870.100 35.250 870.000 35.150 870.000 H 29.350 C 29.250 870.000 29.350 870.100 29.350 870.000 V 867.100 C 29.350 867.045 29.305 867.000 29.250 867.000 H 23.250 C 23.195 867.000 23.150 867.045 23.150 867.100 V 870.000 C 23.150 870.100 23.250 870.000 23.150 870.000 H 17.000 C 16.945 870.000 16.900 870.045 16.900 870.100 V 875.000 C 16.900 875.100 17.000 875.000 16.900 875.000 H 14.000 C 13.945 875.000 13.900 875.045 13.900 875.100 V 881.100 C 13.900 881.155 13.945 881.200 14.000 881.200 H 16.900 C 17.000 881.200 16.900 881.100 16.900 881.200 V 887.000 C 16.900 887.100 17.000 887.000 16.900 887.000 H 14.000 C 13.945 887.000 13.900 887.045 13.900 887.100 V 893.100 C 13.900 893.155 13.945 893.200 14.000 893.200 H 16.900 C 17.000 893.200 16.900 893.100 16.900 893.200 V 899.000 C 16.900 899.100 17.000 899.000 16.900 899.000 H 14.000 C 13.945 899.000 13.900 899.045 13.900 899.100 V 905.100 C 13.900 905.155 13.945 905.200 14.000 905.200 H 16.900 C 17.000 905.200 16.900 905.100 16.900 905.200 V 911.000 C 16.900 911.100 17.000 911.000 16.900 911.000 H 14.000 C 13.945 911.000 13.900 911.045 13.900 911.100 V 917.100 C 13.900 917.155 13.945 917.200 14.000 917.200 H 16.900 C 17.000 917.200 16.900 917.100 16.900 917.200 V 923.000 C 16.900 923.100 17.000 923.000 16.900 923.000 H 14.000 C 13.945 923.000 13.900 923.045 13.900 923.100 V 929.100 C 13.900 929.155 13.945 929.200 14.000 929.200 H 16.900 C 17.000 929.200 16.900 929.100 16.900 929.200 V 935.000 C 16.900 935.100 17.000 935.000 16.900 935.000 H 14.000 C 13.945 935.000 13.900 935.045 13.900 935.100 V 941.100 C 13.900 941.155 13.945 941.200 14.000 941.200 H 16.900 C 17.000 941.200 16.900 941.100 16.900 941.200 V 947.000 C 16.900 947.100 17.000 947.000 16.900 947.000 H 14.000 C 13.945 947.000 13.900 947.045 13.900 947.100 V 953.100 C 13.900 953.155 13.945 953.200 14.000 953.200 H 16.900 C 17.000 953.200 16.900 953.100 16.900 953.200 V 959.000 C 16.900 959.100 17.000 959.000 16.900 959.000 H 14.000 C 13.945 959.000 13.900 959.045 13.900 959.100 V 965.100 C 13.900 965.155 13.945 965.200 14.000 965.200 H 16.900 C 17.000 965.200 16.900 965.100 16.900 965.200 V 970.100 C 16.900 970.155 16.945 970.200 17.000 970.200" stroke="rgb(0,0,0)" stroke-width="0.20" />
</g>
<g id="p-6" style="fill:none;stroke-linecap:round;stroke-linejoin:round;">
  <path d="M 37.000 842.300 H 31.350 C 31.250 842.300 31.350 842.400 31.350 842.300 V 834.500 C 31.350 834.400 31.250 834.500 31.350 834.500 H 42.650 C 42.750 834.500 42.650 834.400 42.650 834.500 V 842.300 C 42.650 842.400 42.750 842.300 42.650 842.300 H 37.000 Z" stroke="rgb(0,0,255)" stroke-width="0.20" />
  <path d="M 29.980 838.400 C 29.980 838.668 29.903 838.931 29.758 839.157 C 29.613 839.383 29.406 839.562 29.162 839.673 C 28.917 839.785 28.646 839.824 28.381 839.786 C 28.115 839.748 27.866 839.634 27.663 839.458 C 27.460 839.282 27.312 839.052 27.237 838.794 C 27.161 838.537 27.161 838.263 27.237 838.006 C 27.312 837.748 27.460 837.518 27.663 837.342 C 27.866 837.166 28.115 837.052 28.381 837.014 C 28.646 836.976 28.917 837.015 29.162 837.127 C 29.406 837.238 29.613 837.417 29.758 837.643 C 29.903 837.869 29.980 838.132 29.980 838.400 Z" stroke="rgb(0,0,255)" stroke-width="0.20" />
  <path d="M 46.820 838.400 C 46.820 838.668 46.743 838.931 46.598 839.157 C 46.453 839.383 46.246 839.562 46.002 839.673 C 45.757 839.785 45.486 839.824 45.221 839.786 C 44.955 839.748 44.706 839.634 44.503 839.458 C 44.300 839.282 44.152 839.052 44.077 838.794 C 44.001 838.537 44.001 838.263 44.077 838.006 C 44.152 837.748 44.300 837.518 44.503 837.342 C 44.706 837.166 44.955 837.052 45.221 837.014 C 45.486 836.976 45.757 837.015 46.002 837.127 C 46.246 837.238 46.453 837.417 46.598 837.643 C 46.743 837.869 46.820 838.132 46.820 838.400 Z" stroke="rgb(0,0,255)" stroke-width="0.20" />
  <path d="M 26.250 856.400 H 23.350 C 23.250 856.400 23.350 856.500 23.350 856.400 V 853.600 C 23.350 853.500 23.250 853.600 23.350 853.600 H 29.150 C 29.250 853.600 29.150 853.500 29.150 853.600 V 856.400 C 29.150 856.500 29.250 856.400 29.150 856.400 H 26.250 Z" stroke="rgb(0,0,255)" stroke-width="0.20" />
  <path d="M 38.250 856.400 H 35.350 C 35.250 856.400 35.350 856.500 35.350 856.400 V 853.600 C 35.350 853.500 35.250 853.600 35.350 853.600 H 41.150 C 41.250 853.600 41.150 853.500 41.150 853.600 V 856.400 C 41.150 856.500 41.250 856.400 41.150 856.400 H 38.250 Z" stroke="rgb(0,0,255)" stroke-width="0.20" />
  <path d="M 50.250 856.400 H 47.350 C 47.250 856.400 47.350 856.500 47.350 856.400 V 853.600 C 47.350 853.500 47.250 853.600 47.350 853.600 H 53.150 C 53.250 853.600 53.150 853.500 53.150 853.600 V 856.400 C 53.150 856.500 53.250 856.400 53.150 856.400 H 50.250 Z" stroke="rgb(0,0,255)" stroke-width="0.20" />
  <path d="M 62.250 856.400 H 59.350 C 59.250 856.400 59.350 856.500 59.350 856.400 V 853.600 C 59.350 853.500 59.250 853.600 59.350 853.600 H 65.150 C 65.250 853.600 65.150 853.500 65.150 853.600 V 856.400 C 65.150 856.500 65.250 856.400 65.150 856.400 H 62.250 Z" stroke="rgb(0,0,255)" stroke-width="0.20" />
  <path d="M 74.250 856.400 H 71.350 C 71.250 856.400 71.350 856.500 71.350 856.400 V 853.600 C 71.350 853.500 71.250 853.600 71.350 853.600 H 77.150 C 77.250 853.600 77.150 853.500 77.150 853.600 V 856.400 C 77.150 856.500 77.250 856.400 77.150 856.400 H 74.250 Z" stroke="rgb(0,0,255)" stroke-width="0.20" />
  <path d="M 86.250 856.400 H 83.350 C 83.250 856.400 83.350 856.500 83.350 856.400 V 853.600 C 83.350 853.500 83.250 853.600 83.350 853.600 H 89.150 C 89.250 853.600 89.150 853.500 89.150 853.600 V 856.400 C 89.150 856.500 89.250 856.400 89.150 856.400 H 86.250 Z" stroke="rgb(0,0,255)" stroke-width="0.20" />
  <path d="M 98.250 856.400 H 95.350 C 95.250 856.400 95.350 856.500 95.350 856.400 V 853.600 C 95.350 853.500 95.250 853.600 95.350 853.600 H 101.150 C 101.250 853.600 101.150 853.500 101.150 853.600 V 856.400 C 101.150 856.500 101.250 856.400 101.150 856.400 H 98.250 Z" stroke="rgb(0,0,255)" stroke-width="0.20" />
  <path d="M 110.250 856.400 H 107.350 C 107.250 856.400 107.350 856.500 107.350 856.400 V 853.600 C 107.350 853.500 107.250 853.600 107.350 853.600 H 113.150 C 113.250 853.600 113.150 853.500 113.150 853.600 V 856.400 C 113.150 856.500 113.250 856.400 113.150 856.400 H 110.250 Z" stroke="rgb(0,0,255)" stroke-width="0.20" />
  <path d="M 122.250 856.400 H 119.350 C 119.250 856.400 119.350 856.500 119.350 856.400 V 853.600 C 119.350 853.500 119.250 853.600 119.350 853.600 H 125.150 C 125.250 853.600 125.150 853.500 125.150 853.600 V 856.400 C 125.150 856.500 125.250 856.400 125.150 856.400 H 122.250 Z" stroke="rgb(0,0,255)" stroke-width="0.20" />
  <path d="M 134.250 856.400 H 131.350 C 131.250 856.400 131.350 856.500 131.350 856.400 V 853.600 C 131.350 853.500 131.250 853.600 131.350 853.600 H 137.150 C 137.250 853.600 137.150 853.500 137.150 853.600 V 856.400 C 137.150 856.500 137.250 856.400 137.150 856.400 H 134.250 Z" stroke="rgb(0,0,255)" stroke-width="0.20" />
  <path d="M 146.250 856.400 H 143.350 C 143.250 856.400 143.350 856.500 143.350 856.400 V 853.600 C 143.350 853.500 143.250 853.600 143.350 853.600 H 149.150 C 149.250 853.600 149.150 853.500 149.150 853.600 V 856.400 C 149.150 856.500 149.250 856.400 149.150 856.400 H 146.250 Z" stroke="rgb(0,0,255)" stroke-width="0.20" />
  <path d="M 158.250 856.400 H 155.350 C 155.250 856.400 155.350 856.500 155.350 856.400 V 853.600 C 155.350 853.500 155.250 853.600 155.350 853.600 H 161.150 C 161.250 853.600 161.150 853.500 161.150 853.600 V 856.400 C 161.150 856.500 161.250 856.400 161.150 856.400 H 158.250 Z" stroke="rgb(0,0,255)" stroke-width="0.20" />
  <path d="M 170.250 856.400 H 167.350 C 167.250 856.400 167.350 856.500 167.350 856.400 V 853.600 C 167.350 853.500 167.250 853.600 167.350 853.600 H 173.150 C 173.250 853.600 173.150 853.500 173.150 853.600 V 856.400 C 173.150 856.500 173.250 856.400 173.150 856.400 H 170.250 Z" stroke="rgb(0,0,255)" stroke-width="0.20" />
  <path d="M 182.250 856.400 H 179.350 C 179.250 856.400 179.350 856.500 179.350 856.400 V 853.600 C 179.350 853.500 179.250 853.600 179.350 853.600 H 185.150 C 185.250 853.600 185.150 853.500 185.150 853.600 V 856.400 C 185.150 856.500 185.250 856.400 185.150 856.400 H 182.250 Z" stroke="rgb(0,0,255)" stroke-width="0.20" />
  <text dominant-baseline="hanging" font-size="4px" style="font-family: sans-serif ; font-weight: normal; font-style: normal; fill: rgb(255,0,0)" text-anchor="middle" transform="matrix( 1.000 0.000 0.000 1.000 104.250 807.750 )">back</text><path d="M 17.000 865.500 H 29.000 C 30.071 865.500 31.123 865.218 32.050 864.683 C 32.977 864.147 33.747 863.377 34.283 862.450 C 34.801 861.553 35.545 860.808 36.442 860.290 C 37.339 859.773 38.357 859.500 39.392 859.500 H 169.108 C 170.143 859.500 171.161 859.773 172.058 860.290 C 172.955 860.808 173.699 861.553 174.217 862.450 C 174.753 863.377 175.523 864.147 176.450 864.683 C 177.377 865.218 178.429 865.500 179.500 865.500 H 191.500 H 194.500 C 194.555 865.500 194.600 865.455 194.600 865.400 V 853.400 V 848.650 C 194.600 848.595 194.555 848.550 194.500 848.550 H 191.600 C 191.500 848.550 191.600 848.650 191.600 848.550 V 842.750 C 191.600 842.650 191.500 842.750 191.600 842.750 H 194.500 C 194.555 842.750 194.600 842.705 194.600 842.650 V 836.650 C 194.600 836.595 194.555 836.550 194.500 836.550 H 191.600 C 191.500 836.550 191.600 836.650 191.600 836.550 V 830.750 C 191.600 830.650 191.500 830.750 191.600 830.750 H 194.500 C 194.555 830.750 194.600 830.705 194.600 830.650 V 824.650 C 194.600 824.595 194.555 824.550 194.500 824.550 H 191.600 C 191.500 824.550 191.600 824.650 191.600 824.550 V 818.750 C 191.600 818.650 191.500 818.750 191.600 818.750 H 194.500 C 194.555 818.750 194.600 818.705 194.600 818.650 V 812.650 C 194.600 812.595 194.555 812.550 194.500 812.550 H 191.600 C 191.500 812.550 191.600 812.650 191.600 812.550 V 806.750 C 191.600 806.650 191.500 806.750 191.600 806.750 H 194.500 C 194.555 806.750 194.600 806.705 194.600 806.650 V 800.650 C 194.600 800.595 194.555 800.550 194.500 800.550 H 191.600 C 191.500 800.550 191.600 800.650 191.600 800.550 V 794.750 C 191.600 794.650 191.500 794.750 191.600 794.750 H 194.500 C 194.555 794.750 194.600 794.705 194.600 794.650 V 788.650 C 194.600 788.595 194.555 788.550 194.500 788.550 H 191.600 C 191.500 788.550 191.600 788.650 191.600 788.550 V 782.750 C 191.600 782.650 191.500 782.750 191.600 782.750 H 194.500 C 194.555 782.750 194.600 782.705 194.600 782.650 V 776.650 C 194.600 776.595 194.555 776.550 194.500 776.550 H 191.600 C 191.500 776.550 191.600 776.650 191.600 776.550 V 770.750 C 191.600 770.650 191.500 770.750 191.600 770.750 H 194.500 C 194.555 770.750 194.600 770.705 194.600 770.650 V 764.650 C 194.600 764.595 194.555 764.550 194.500 764.550 H 191.600 C 191.500 764.550 191.600 764.650 191.600 764.550 V 758.750 C 191.600 758.650 191.500 758.750 191.600 758.750 H 194.500 C 194.555 758.750 194.600 758.705 194.600 758.650 V 753.900 C 194.600 753.845 194.555 753.800 194.500 753.800 H 191.500 H 17.000 H 14.000 C 13.945 753.800 13.900 753.845 13.900 753.900 V 758.650 C 13.900 758.705 13.945 758.750 14.000 758.750 H 16.900 C 17.000 758.750 16.900 758.650 16.900 758.750 V 764.550 C 16.900 764.650 17.000 764.550 16.900 764.550 H 14.000 C 13.945 764.550 13.900 764.595 13.900 764.650 V 770.650 C 13.900 770.705 13.945 770.750 14.000 770.750 H 16.900 C 17.000 770.750 16.900 770.650 16.900 770.750 V 776.550 C 16.900 776.650 17.000 776.550 16.900 776.550 H 14.000 C 13.945 776.550 13.900 776.595 13.900 776.650 V 782.650 C 13.900 782.705 13.945 782.750 14.000 782.750 H 16.900 C 17.000 782.750 16.900 782.650 16.900 782.750 V 788.550 C 16.900 788.650 17.000 788.550 16.900 788.550 H 14.000 C 13.945 788.550 13.900 788.595 13.900 788.650 V 794.650 C 13.900 794.705 13.945 794.750 14.000 794.750 H 16.900 C 17.000 794.750 16.900 794.650 16.900 794.750 V 800.550 C 16.900 800.650 17.000 800.550 16.900 800.550 H 14.000 C 13.945 800.550 13.900 800.595 13.900 800.650 V 806.650 C 13.900 806.705 13.945 806.750 14.000 806.750 H 16.900 C 17.000 806.750 16.900 806.650 16.900 806.750 V 812.550 C 16.900 812.650 17.000 812.550 16.900 812.550 H 14.000 C 13.945 812.550 13.900 812.595 13.900 812.650 V 818.650 C 13.900 818.705 13.945 818.750 14.000 818.750 H 16.900 C 17.000 818.750 16.900 818.650 16.900 818.750 V 824.550 C 16.900 824.650 17.000 824.550 16.900 824.550 H 14.000 C 13.945 824.550 13.900 824.595 13.900 824.650 V 830.650 C 13.900 830.705 13.945 830.750 14.000 830.750 H 16.900 C 17.000 830.750 16.900 830.650 16.900 830.750 V 836.550 C 16.900 836.650 17.000 836.550 16.900 836.550 H 14.000 C 13.945 836.550 13.900 836.595 13.900 836.650 V 842.650 C 13.900 842.705 13.945 842.750 14.000 842.750 H 16.900 C 17.000 842.750 16.900 842.650 16.900 842.750 V 848.550 C 16.900 848.650 17.000 848.550 16.900 848.550 H 14.000 C 13.945 848.550 13.900 848.595 13.900 848.650 V 853.400 V 865.400 C 13.900 865.455 13.945 865.500 14.000 865.500 H 17.000" stroke="rgb(0,0,0)" stroke-width="0.20" />
</g>
<g id="p-7" style="fill:none;stroke-linecap:round;stroke-linejoin:round;">
  <path d="M 104.000 728.100 H 29.100 C 29.000 728.100 29.100 728.200 29.100 728.100 V 653.300 C 29.100 653.200 29.000 653.300 29.100 653.300 H 178.900 C 179.000 653.300 178.900 653.200 178.900 653.300 V 728.100 C 178.900 728.200 179.000 728.100 178.900 728.100 H 104.000 Z" stroke="rgb(0,0,255)" stroke-width="0.20" />
  <path d="M 26.250 743.200 H 23.350 C 23.250 743.200 23.350 743.300 23.350 743.200 V 740.400 C 23.350 740.300 23.250 740.400 23.350 740.400 H 29.150 C 29.250 740.400 29.150 740.300 29.150 740.400 V 743.200 C 29.150 743.300 29.250 743.200 29.150 743.200 H 26.250 Z" stroke="rgb(0,0,255)" stroke-width="0.20" />
  <path d="M 38.250 743.200 H 35.350 C 35.250 743.200 35.350 743.300 35.350 743.200 V 740.400 C 35.350 740.300 35.250 740.400 35.350 740.400 H 41.150 C 41.250 740.400 41.150 740.300 41.150 740.400 V 743.200 C 41.150 743.300 41.250 743.200 41.150 743.200 H 38.250 Z" stroke="rgb(0,0,255)" stroke-width="0.20" />
  <path d="M 50.250 743.200 H 47.350 C 47.250 743.200 47.350 743.300 47.350 743.200 V 740.400 C 47.350 740.300 47.250 740.400 47.350 740.400 H 53.150 C 53.250 740.400 53.150 740.300 53.150 740.400 V 743.200 C 53.150 743.300 53.250 743.200 53.150 743.200 H 50.250 Z" stroke="rgb(0,0,255)" stroke-width="0.20" />
  <path d="M 62.250 743.200 H 59.350 C 59.250 743.200 59.350 743.300 59.350 743.200 V 740.400 C 59.350 740.300 59.250 740.400 59.350 740.400 H 65.150 C 65.250 740.400 65.150 740.300 65.150 740.400 V 743.200 C 65.150 743.300 65.250 743.200 65.150 743.200 H 62.250 Z" stroke="rgb(0,0,255)" stroke-width="0.20" />
  <path d="M 74.250 743.200 H 71.350 C 71.250 743.200 71.350 743.300 71.350 743.200 V 740.400 C 71.350 740.300 71.250 740.400 71.350 740.400 H 77.150 C 77.250 740.400 77.150 740.300 77.150 740.400 V 743.200 C 77.150 743.300 77.250 743.200 77.150 743.200 H 74.250 Z" stroke="rgb(0,0,255)" stroke-width="0.20" />
  <path d="M 86.250 743.200 H 83.350 C 83.250 743.200 83.350 743.300 83.350 743.200 V 740.400 C 83.350 740.300 83.250 740.400 83.350 740.400 H 89.150 C 89.250 740.400 89.150 740.300 89.150 740.400 V 743.200 C 89.150 743.300 89.250 743.200 89.150 743.200 H 86.250 Z" stroke="rgb(0,0,255)" stroke-width="0.20" />
  <path d="M 98.250 743.200 H 95.350 C 95.250 743.200 95.350 743.300 95.350 743.200 V 740.400 C 95.350 740.300 95.250 740.400 95.350 740.400 H 101.150 C 101.250 740.400 101.150 740.300 101.150 740.400 V 743.200 C 101.150 743.300 101.250 743.200 101.150 743.200 H 98.250 Z" stroke="rgb(0,0,255)" stroke-width="0.20" />
  <path d="M 110.250 743.200 H 107.350 C 107.250 743.200 107.350 743.300 107.350 743.200 V 740.400 C 107.350 740.300 107.250 740.400 107.350 740.400 H 113.150 C 113.250 740.400 113.150 740.300 113.150 740.400 V 743.200 C 113.150 743.300 113.250 743.200 113.150 743.200 H 110.250 Z" stroke="rgb(0,0,255)" stroke-width="0.20" />
  <path d="M 122.250 743.200 H 119.350 C 119.250 743.200 119.350 743.300 119.350 743.200 V 740.400 C 119.350 740.300 119.250 740.400 119.350 740.400 H 125.150 C 125.250 740.400 125.150 740.300 125.150 740.400 V 743.200 C 125.150 743.300 125.250 743.200 125.150 743.200 H 122.250 Z" stroke="rgb(0,0,255)" stroke-width="0.20" />
  <path d="M 134.250 743.200 H 131.350 C 131.250 743.200 131.350 743.300 131.350 743.200 V 740.400 C 131.350 740.300 131.250 740.400 131.350 740.400 H 137.150 C 137.250 740.400 137.150 740.300 137.150 740.400 V 743.200 C 137.150 743.300 137.250 743.200 137.150 743.200 H 134.250 Z" stroke="rgb(0,0,255)" stroke-width="0.20" />
  <path d="M 146.250 743.200 H 143.350 C 143.250 743.200 143.350 743.300 143.350 743.200 V 740.400 C 143.350 740.300 143.250 740.400 143.350 740.400 H 149.150 C 149.250 740.400 149.150 740.300 149.150 740.400 V 743.200 C 149.150 743.300 149.250 743.200 149.150 743.200 H 146.250 Z" stroke="rgb(0,0,255)" stroke-width="0.20" />
  <path d="M 158.250 743.200 H 155.350 C 155.250 743.200 155.350 743.300 155.350 743.200 V 740.400 C 155.350 740.300 155.250 740.400 155.350 740.400 H 161.150 C 161.250 740.400 161.150 740.300 161.150 740.400 V 743.200 C 161.150 743.300 161.250 743.200 161.150 743.200 H 158.250 Z" stroke="rgb(0,0,255)" stroke-width="0.20" />
  <path d="M 170.250 743.200 H 167.350 C 167.250 743.200 167.350 743.300 167.350 743.200 V 740.400 C 167.350 740.300 167.250 740.400 167.350 740.400 H 173.150 C 173.250 740.400 173.150 740.300 173.150 740.400 V 743.200 C 173.150 743.300 173.250 743.200 173.150 743.200 H 170.250 Z" stroke="rgb(0,0,255)" stroke-width="0.20" />
  <path d="M 182.250 743.200 H 179.350 C 179.250 743.200 179.350 743.300 179.350 743.200 V 740.400 C 179.350 740.300 179.250 740.400 179.350 740.400 H 185.150 C 185.250 740.400 185.150 740.300 185.150 740.400 V 743.200 C 185.150 743.300 185.250 743.200 185.150 743.200 H 182.250 Z" stroke="rgb(0,0,255)" stroke-width="0.20" />
  <text dominant-baseline="hanging" font-size="4px" style="font-family: sans-serif ; font-weight: normal; font-style: normal; fill: rgb(255,0,0)" text-anchor="middle" transform="matrix( 1.000 0.000 0.000 1.000 104.250 694.550 )">front</text><path d="M 17.000 752.300 H 29.000 C 30.071 752.300 31.123 752.018 32.050 751.483 C 32.977 750.947 33.747 750.177 34.283 749.250 C 34.801 748.353 35.545 747.608 36.442 747.090 C 37.339 746.573 38.357 746.300 39.392 746.300 H 169.108 C 170.143 746.300 171.161 746.573 172.058 747.090 C 172.955 747.608 173.699 748.353 174.217 749.250 C 174.753 750.177 175.523 750.947 176.450 751.483 C 177.377 752.018 178.429 752.300 179.500 752.300 H 191.500 H 194.500 C 194.555 752.300 194.600 752.255 194.600 752.200 V 740.200 V 735.450 C 194.600 735.395 194.555 735.350 194.500 735.350 H 191.600 C 191.500 735.350 191.600 735.450 191.600 735.350 V 729.550 C 191.600 729.450 191.500 729.550 191.600 729.550 H 194.500 C 194.555 729.550 194.600 729.505 194.600 729.450 V 723.450 C 194.600 723.395 194.555 723.350 194.500 723.350 H 191.600 C 191.500 723.350 191.600 723.450 191.600 723.350 V 717.550 C 191.600 717.450 191.500 717.550 191.600 717.550 H 194.500 C 194.555 717.550 194.600 717.505 194.600 717.450 V 711.450 C 194.600 711.395 194.555 711.350 194.500 711.350 H 191.600 C 191.500 711.350 191.600 711.450 191.600 711.350 V 705.550 C 191.600 705.450 191.500 705.550 191.600 705.550 H 194.500 C 194.555 705.550 194.600 705.505 194.600 705.450 V 699.450 C 194.600 699.395 194.555 699.350 194.500 699.350 H 191.600 C 191.500 699.350 191.600 699.450 191.600 699.350 V 693.550 C 191.600 693.450 191.500 693.550 191.600 693.550 H 194.500 C 194.555 693.550 194.600 693.505 194.600 693.450 V 687.450 C 194.600 687.395 194.555 687.350 194.500 687.350 H 191.600 C 191.500 687.350 191.600 687.450 191.600 687.350 V 681.550 C 191.600 681.450 191.500 681.550 191.600 681.550 H 194.500 C 194.555 681.550 194.600 681.505 194.600 681.450 V 675.450 C 194.600 675.395 194.555 675.350 194.500 675.350 H 191.600 C 191.500 675.350 191.600 675.450 191.600 675.350 V 669.550 C 191.600 669.450 191.500 669.550 191.600 669.550 H 194.500 C 194.555 669.550 194.600 669.505 194.600 669.450 V 663.450 C 194.600 663.395 194.555 663.350 194.500 663.350 H 191.600 C 191.500 663.350 191.600 663.450 191.600 663.350 V 657.550 C 191.600 657.450 191.500 657.550 191.600 657.550 H 194.500 C 194.555 657.550 194.600 657.505 194.600 657.450 V 651.450 C 194.600 651.395 194.555 651.350 194.500 651.350 H 191.600 C 191.500 651.350 191.600 651.450 191.600 651.350 V 645.550 C 191.600 645.450 191.500 645.550 191.600 645.550 H 194.500 C 194.555 645.550 194.600 645.505 194.600 645.450 V 640.700 C 194.600 640.645 194.555 640.600 194.500 640.600 H 191.500 H 17.000 H 14.000 C 13.945 640.600 13.900 640.645 13.900 640.700 V 645.450 C 13.900 645.505 13.945 645.550 14.000 645.550 H 16.900 C 17.000 645.550 16.900 645.450 16.900 645.550 V 651.350 C 16.900 651.450 17.000 651.350 16.900 651.350 H 14.000 C 13.945 651.350 13.900 651.395 13.900 651.450 V 657.450 C 13.900 657.505 13.945 657.550 14.000 657.550 H 16.900 C 17.000 657.550 16.900 657.450 16.900 657.550 V 663.350 C 16.900 663.450 17.000 663.350 16.900 663.350 H 14.000 C 13.945 663.350 13.900 663.395 13.900 663.450 V 669.450 C 13.900 669.505 13.945 669.550 14.000 669.550 H 16.900 C 17.000 669.550 16.900 669.450 16.900 669.550 V 675.350 C 16.900 675.450 17.000 675.350 16.900 675.350 H 14.000 C 13.945 675.350 13.900 675.395 13.900 675.450 V 681.450 C 13.900 681.505 13.945 681.550 14.000 681.550 H 16.900 C 17.000 681.550 16.900 681.450 16.900 681.550 V 687.350 C 16.900 687.450 17.000 687.350 16.900 687.350 H 14.000 C 13.945 687.350 13.900 687.395 13.900 687.450 V 693.450 C 13.900 693.505 13.945 693.550 14.000 693.550 H 16.900 C 17.000 693.550 16.900 693.450 16.900 693.550 V 699.350 C 16.900 699.450 17.000 699.350 16.900 699.350 H 14.000 C 13.945 699.350 13.900 699.395 13.900 699.450 V 705.450 C 13.900 705.505 13.945 705.550 14.000 705.550 H 16.900 C 17.000 705.550 16.900 705.450 16.900 705.550 V 711.350 C 16.900 711.450 17.000 711.350 16.900 711.350 H 14.000 C 13.945 711.350 13.900 711.395 13.900 711.450 V 717.450 C 13.900 717.505 13.945 717.550 14.000 717.550 H 16.900 C 17.000 717.550 16.900 717.450 16.900 717.550 V 723.350 C 16.900 723.450 17.000 723.350 16.900 723.350 H 14.000 C 13.945 723.350 13.900 723.395 13.900 723.450 V 729.450 C 13.900 729.505 13.945 729.550 14.000 729.550 H 16.900 C 17.000 729.550 16.900 729.450 16.900 729.550 V 735.350 C 16.900 735.450 17.000 735.350 16.900 735.350 H 14.000 C 13.945 735.350 13.900 735.395 13.900 735.450 V 740.200 V 752.200 C 13.900 752.255 13.945 752.300 14.000 752.300 H 17.000" stroke="rgb(0,0,0)" stroke-width="0.20" />
</g>
<g id="p-8" style="fill:none;stroke-linecap:round;stroke-linejoin:round;">
  <text dominant-baseline="hanging" font-size="4px" style="font-family: sans-serif ; font-weight: normal; font-style: normal; fill: rgb(255,0,0)" text-anchor="middle" transform="matrix( 1.000 0.000 0.000 1.000 95.250 621.100 )">elec. comp.</text><path d="M 14.000 639.100 H 188.500 C 188.555 639.100 188.600 639.055 188.600 639.000 V 634.500 V 631.350 C 188.600 631.250 188.500 631.350 188.600 631.350 H 191.500 C 191.555 631.350 191.600 631.305 191.600 631.250 V 625.250 C 191.600 625.195 191.555 625.150 191.500 625.150 H 188.600 C 188.500 625.150 188.600 625.250 188.600 625.150 V 619.350 C 188.600 619.250 188.500 619.350 188.600 619.350 H 191.500 C 191.555 619.350 191.600 619.305 191.600 619.250 V 613.250 C 191.600 613.195 191.555 613.150 191.500 613.150 H 188.600 C 188.500 613.150 188.600 613.250 188.600 613.150 V 610.000 C 188.600 609.945 188.555 609.900 188.500 609.900 H 14.000 C 13.945 609.900 13.900 609.945 13.900 610.000 V 613.150 C 13.900 613.250 14.000 613.150 13.900 613.150 H 11.000 C 10.945 613.150 10.900 613.195 10.900 613.250 V 619.250 C 10.900 619.305 10.945 619.350 11.000 619.350 H 13.900 C 14.000 619.350 13.900 619.250 13.900 619.350 V 625.150 C 13.900 625.250 14.000 625.150 13.900 625.150 H 11.000 C 10.945 625.150 10.900 625.195 10.900 625.250 V 631.250 C 10.900 631.305 10.945 631.350 11.000 631.350 H 13.900 C 14.000 631.350 13.900 631.250 13.900 631.350 V 634.500 V 639.000 C 13.900 639.055 13.945 639.100 14.000 639.100" stroke="rgb(0,0,0)" stroke-width="0.20" />
</g>
<g id="p-9" style="fill:none;stroke-linecap:round;stroke-linejoin:round;">
  <text dominant-baseline="hanging" font-size="4px" style="font-family: sans-serif ; font-weight: normal; font-style: normal; fill: rgb(255,0,0)" text-anchor="middle" transform="matrix( 1.000 0.000 0.000 1.000 17.000 601.900 )">guide</text><path d="M 14.000 605.400 H 20.000 C 20.055 605.400 20.100 605.355 20.100 605.300 V 602.300 C 20.100 602.245 20.055 602.200 20.000 602.200 H 14.000 C 13.945 602.200 13.900 602.245 13.900 602.300 V 605.300 C 13.900 605.355 13.945 605.400 14.000 605.400" stroke="rgb(0,0,0)" stroke-width="0.20" />
</g>
<g id="p-10" style="fill:none;stroke-linecap:round;stroke-linejoin:round;">
  <text dominant-baseline="hanging" font-size="4px" style="font-family: sans-serif ; font-weight: normal; font-style: normal; fill: rgb(255,0,0)" text-anchor="middle" transform="matrix( 1.000 0.000 0.000 1.000 17.000 597.200 )">guide</text><path d="M 14.000 600.700 H 20.000 C 20.055 600.700 20.100 600.655 20.100 600.600 V 597.600 C 20.100 597.545 20.055 597.500 20.000 597.500 H 14.000 C 13.945 597.500 13.900 597.545 13.900 597.600 V 600.600 C 13.900 600.655 13.945 600.700 14.000 600.700" stroke="rgb(0,0,0)" stroke-width="0.20" />
</g>
<g id="p-11" style="fill:none;stroke-linecap:round;stroke-linejoin:round;">
  <text dominant-baseline="hanging" font-size="4px" style="font-family: sans-serif ; font-weight: normal; font-style: normal; fill: rgb(255,0,0)" text-anchor="middle" transform="matrix( 1.000 0.000 0.000 1.000 64.000 502.250 )">lid top</text><path d="M 17.000 593.000 H 102.000 C 102.055 593.000 102.100 592.955 102.100 592.900 V 590.000 C 102.100 589.900 102.000 590.000 102.100 590.000 H 106.500 H 108.775 C 108.875 590.000 108.775 589.900 108.775 590.000 V 592.900 C 108.775 592.955 108.820 593.000 108.875 593.000 H 111.625 C 111.680 593.000 111.725 592.955 111.725 592.900 V 590.000 C 111.725 589.900 111.625 590.000 111.725 590.000 H 114.000 C 114.055 590.000 114.100 589.955 114.100 589.900 V 415.400 C 114.100 415.345 114.055 415.300 114.000 415.300 H 111.725 C 111.625 415.300 111.725 415.400 111.725 415.300 V 412.400 C 111.725 412.345 111.680 412.300 111.625 412.300 H 108.875 C 108.820 412.300 108.775 412.345 108.775 412.400 V 415.300 C 108.775 415.400 108.875 415.300 108.775 415.300 H 106.500 H 102.100 C 102.000 415.300 102.100 415.400 102.100 415.300 V 412.400 C 102.100 412.345 102.055 412.300 102.000 412.300 H 17.000 H 14.000 C 13.945 412.300 13.900 412.345 13.900 412.400 V 415.400 V 589.900 V 592.900 C 13.900 592.955 13.945 593.000 14.000 593.000 H 17.000" stroke="rgb(0,0,0)" stroke-width="0.20" />
</g>
<g id="p-12" style="fill:none;stroke-linecap:round;stroke-linejoin:round;">
  <text dominant-baseline="hanging" font-size="4px" style="font-family: sans-serif ; font-weight: normal; font-style: normal; fill: rgb(255,0,0)" text-anchor="middle" transform="matrix( 1.000 0.000 0.000 1.000 101.000 359.300 )">Diffuser</text><path d="M 14.000 410.800 H 16.500 C 16.555 410.800 16.600 410.755 16.600 410.700 V 407.300 C 16.600 407.200 16.500 407.300 16.600 407.300 H 19.900 C 20.000 407.300 19.900 407.200 19.900 407.300 V 410.700 C 19.900 410.755 19.945 410.800 20.000 410.800 H 181.500 C 181.555 410.800 181.600 410.755 181.600 410.700 V 407.300 C 181.600 407.200 181.500 407.300 181.600 407.300 H 184.900 C 185.000 407.300 184.900 407.200 184.900 407.300 V 410.700 C 184.900 410.755 184.945 410.800 185.000 410.800 H 187.500 C 187.555 410.800 187.600 410.755 187.600 410.700 V 394.200 C 187.600 394.145 187.555 394.100 187.500 394.100 H 184.500 C 184.445 394.100 184.400 394.145 184.400 394.200 V 395.150 C 184.400 395.250 184.500 395.150 184.400 395.150 H 182.500 C 182.400 395.150 182.500 395.250 182.500 395.150 V 394.200 C 182.500 394.145 182.455 394.100 182.400 394.100 H 170.600 C 170.500 394.100 170.600 394.200 170.600 394.100 V 391.300 C 170.600 391.200 170.500 391.300 170.600 391.300 H 182.400 C 182.455 391.300 182.500 391.255 182.500 391.200 V 390.250 C 182.500 390.150 182.400 390.250 182.500 390.250 H 184.400 C 184.500 390.250 184.400 390.150 184.400 390.250 V 391.200 C 184.400 391.255 184.445 391.300 184.500 391.300 H 187.500 C 187.555 391.300 187.600 391.255 187.600 391.200 V 312.200 C 187.600 312.145 187.555 312.100 187.500 312.100 H 14.000 C 13.945 312.100 13.900 312.145 13.900 312.200 V 391.200 C 13.900 391.255 13.945 391.300 14.000 391.300 H 17.000 C 17.055 391.300 17.100 391.255 17.100 391.200 V 390.250 C 17.100 390.150 17.000 390.250 17.100 390.250 H 19.000 C 19.100 390.250 19.000 390.150 19.000 390.250 V 391.200 C 19.000 391.255 19.045 391.300 19.100 391.300 H 30.900 C 31.000 391.300 30.900 391.200 30.900 391.300 V 394.100 C 30.900 394.200 31.000 394.100 30.900 394.100 H 19.100 C 19.045 394.100 19.000 394.145 19.000 394.200 V 395.150 C 19.000 395.250 19.100 395.150 19.000 395.150 H 17.100 C 17.000 395.150 17.100 395.250 17.100 395.150 V 394.200 C 17.100 394.145 17.055 394.100 17.000 394.100 H 14.000 C 13.945 394.100 13.900 394.145 13.900 394.200 V 410.700 C 13.900 410.755 13.945 410.800 14.000 410.800" stroke="rgb(0,0,0)" stroke-width="0.20" />
</g>
<g id="p-13" style="fill:none;stroke-linecap:round;stroke-linejoin:round;">
  <path d="M 104.000 298.000 H 29.100 C 29.000 298.000 29.100 298.100 29.100 298.000 V 223.200 C 29.100 223.100 29.000 223.200 29.100 223.200 H 178.900 C 179.000 223.200 178.900 223.100 178.900 223.200 V 298.000 C 178.900 298.100 179.000 298.000 178.900 298.000 H 104.000 Z" stroke="rgb(255,0,0)" stroke-width="0.20" />
  <text dominant-baseline="hanging" font-size="4px" style="font-family: sans-serif ; font-weight: normal; font-style: normal; fill: rgb(255,0,0)" text-anchor="middle" transform="matrix( 1.000 0.000 0.000 1.000 104.000 261.400 )">engraved art here</text><text dominant-baseline="hanging" font-size="4px" style="font-family: sans-serif ; font-weight: normal; font-style: normal; fill: rgb(255,0,0)" text-anchor="middle" transform="matrix( 1.000 0.000 0.000 1.000 104.000 255.800 )">Insert cut and</text><path d="M 17.250 310.100 H 19.750 C 19.805 310.100 19.850 310.055 19.850 310.000 V 306.600 C 19.850 306.500 19.750 306.600 19.850 306.600 H 23.150 C 23.250 306.600 23.150 306.500 23.150 306.600 V 310.000 C 23.150 310.055 23.195 310.100 23.250 310.100 H 184.750 C 184.805 310.100 184.850 310.055 184.850 310.000 V 306.600 C 184.850 306.500 184.750 306.600 184.850 306.600 H 188.150 C 188.250 306.600 188.150 306.500 188.150 306.600 V 310.000 C 188.150 310.055 188.195 310.100 188.250 310.100 H 190.750 C 190.805 310.100 190.850 310.055 190.850 310.000 V 216.600 C 190.850 216.500 190.750 216.600 190.850 216.600 H 194.000 C 194.055 216.600 194.100 216.555 194.100 216.500 V 211.500 C 194.100 211.445 194.055 211.400 194.000 211.400 H 14.000 C 13.945 211.400 13.900 211.445 13.900 211.500 V 216.500 C 13.900 216.555 13.945 216.600 14.000 216.600 H 17.150 C 17.250 216.600 17.150 216.500 17.150 216.600 V 310.000 C 17.150 310.055 17.195 310.100 17.250 310.100" stroke="rgb(0,0,0)" stroke-width="0.20" />
</g>
<g id="p-14" style="fill:none;stroke-linecap:round;stroke-linejoin:round;">
  <path d="M 104.000 197.300 H 29.100 C 29.000 197.300 29.100 197.400 29.100 197.300 V 122.500 C 29.100 122.400 29.000 122.500 29.100 122.500 H 178.900 C 179.000 122.500 178.900 122.400 178.900 122.500 V 197.300 C 178.900 197.400 179.000 197.300 178.900 197.300 H 104.000 Z" stroke="rgb(255,0,0)" stroke-width="0.20" />
  <text dominant-baseline="hanging" font-size="4px" style="font-family: sans-serif ; font-weight: normal; font-style: normal; fill: rgb(255,0,0)" text-anchor="middle" transform="matrix( 1.000 0.000 0.000 1.000 104.000 160.700 )">engraved art here</text><text dominant-baseline="hanging" font-size="4px" style="font-family: sans-serif ; font-weight: normal; font-style: normal; fill: rgb(255,0,0)" text-anchor="middle" transform="matrix( 1.000 0.000 0.000 1.000 104.000 155.100 )">Insert cut and</text><path d="M 17.250 209.400 H 19.750 C 19.805 209.400 19.850 209.355 19.850 209.300 V 205.900 C 19.850 205.800 19.750 205.900 19.850 205.900 H 23.150 C 23.250 205.900 23.150 205.800 23.150 205.900 V 209.300 C 23.150 209.355 23.195 209.400 23.250 209.400 H 184.750 C 184.805 209.400 184.850 209.355 184.850 209.300 V 205.900 C 184.850 205.800 184.750 205.900 184.850 205.900 H 188.150 C 188.250 205.900 188.150 205.800 188.150 205.900 V 209.300 C 188.150 209.355 188.195 209.400 188.250 209.400 H 190.750 C 190.805 209.400 190.850 209.355 190.850 209.300 V 115.900 C 190.850 115.800 190.750 115.900 190.850 115.900 H 194.000 C 194.055 115.900 194.100 115.855 194.100 115.800 V 110.800 C 194.100 110.745 194.055 110.700 194.000 110.700 H 14.000 C 13.945 110.700 13.900 110.745 13.900 110.800 V 115.800 C 13.900 115.855 13.945 115.900 14.000 115.900 H 17.150 C 17.250 115.900 17.150 115.800 17.150 115.900 V 209.300 C 17.150 209.355 17.195 209.400 17.250 209.400" stroke="rgb(0,0,0)" stroke-width="0.20" />
</g>
<g id="p-15" style="fill:none;stroke-linecap:round;stroke-linejoin:round;">
  <path d="M 104.000 96.600 H 29.100 C 29.000 96.600 29.100 96.700 29.100 96.600 V 21.800 C 29.100 21.700 29.000 21.800 29.100 21.800 H 178.900 C 179.000 21.800 178.900 21.700 178.900 21.800 V 96.600 C 178.900 96.700 179.000 96.600 178.900 96.600 H 104.000 Z" stroke="rgb(255,0,0)" stroke-width="0.20" />
  <text dominant-baseline="hanging" font-size="4px" style="font-family: sans-serif ; font-weight: normal; font-style: normal; fill: rgb(255,0,0)" text-anchor="middle" transform="matrix( 1.000 0.000 0.000 1.000 104.000 60.000 )">engraved art here</text><text dominant-baseline="hanging" font-size="4px" style="font-family: sans-serif ; font-weight: normal; font-style: normal; fill: rgb(255,0,0)" text-anchor="middle" transform="matrix( 1.000 0.000 0.000 1.000 104.000 54.400 )">Insert cut and</text><path d="M 17.250 108.700 H 19.750 C 19.805 108.700 19.850 108.655 19.850 108.600 V 105.200 C 19.850 105.100 19.750 105.200 19.850 105.200 H 23.150 C 23.250 105.200 23.150 105.100 23.150 105.200 V 108.600 C 23.150 108.655 23.195 108.700 23.250 108.700 H 184.750 C 184.805 108.700 184.850 108.655 184.850 108.600 V 105.200 C 184.850 105.100 184.750 105.200 184.850 105.200 H 188.150 C 188.250 105.200 188.150 105.100 188.150 105.200 V 108.600 C 188.150 108.655 188.195 108.700 188.250 108.700 H 190.750 C 190.805 108.700 190.850 108.655 190.850 108.600 V 15.200 C 190.850 15.100 190.750 15.200 190.850 15.200 H 194.000 C 194.055 15.200 194.100 15.155 194.100 15.100 V 10.100 C 194.100 10.045 194.055 10.000 194.000 10.000 H 14.000 C 13.945 10.000 13.900 10.045 13.900 10.100 V 15.100 C 13.900 15.155 13.945 15.200 14.000 15.200 H 17.150 C 17.250 15.200 17.150 15.100 17.150 15.200 V 108.600 C 17.150 108.655 17.195 108.700 17.250 108.700" stroke="rgb(0,0,0)" stroke-width="0.20" />
</g>
</svg>