<?xml version="1.0" encoding="UTF-8"?>
<svg height="1058.00mm" viewBox="0.0 0.0 234.80 1058.00" width="234.80mm" xmlns="http://www.w3.org/2000/svg" xmlns:cc="http://creativecommons.org/ns#" xmlns:dc="http://purl.org/dc/elements/1.1/" xmlns:inkscape="http://www.inkscape.org/namespaces/inkscape" xmlns:rdf="http://www.w3.org/1999/02/22-rdf-syntax-ns#" xmlns:svg="http://www.w3.org/2000/svg" xmlns:xlink="http://www.w3.org/1999/xlink">
<!--
NightLightBox - Simple decorative lamp with creatively laser cut plates


This is a simple light box with a closed compartment for electronics and the backlighting.


Created with Boxes.py (https://boxes.hackerspace-bamberg.de/)
Creation date: 2025-01-09 14:42:44
Command line (remove spaces between dashes): boxes NightLightBox '- -BackExtraHoles=R 20 15 11.5 8\nC 11.58 15 3\nC 28.42 15 3'
Url: http://127.0.0.1:8000/NightLightBox?FingerJoint_style=rectangular&FingerJoint_surroundingspaces=1.0&FingerJoint_bottom_lip=0.0&FingerJoint_edge_width=1.0&FingerJoint_extra_length=0.0&FingerJoint_finger=2.0&FingerJoint_play=0.0&FingerJoint_space=2.0&FingerJoint_width=1.0&Stackable_angle=60&Stackable_bottom_stabilizers=0.0&Stackable_height=2.0&Stackable_holedistance=1.0&Stackable_width=4.0&Hinge_grip_percentage=0&Hinge_outset=0&Hinge_outset=1&Hinge_pinwidth=0.4&Hinge_style=flush&Hinge_axle=2.5&Hinge_grip_length=0&Hinge_hingestrength=1&DiffuserPlateTLockScrewDiameter=3.0&DiffuserPlateTLockScrewLength=20.0&DiffuserPlateTLockNutThickness=2.1&DiffuserPlateTLockNutWidth=5.1&BackExtraHoles=R+20+15+11.5+8%0D%0AC+11.58+15+3%0D%0AC+28.42+15+3&BoxStyle=large+face&PlateVisibleWidth=150.0&PlateVisibleHeight=75.0&WoodPlatesCount=3&WoodPlateThickness=5.0&DiffuserPlateThickness=5.0&BackgroundDepth=40.0&InterPlateSpacing=10&Margin=0.5&thickness=3.0&format=svg&tabs=0.0&qr_code=0&debug=0&labels=0&labels=1&reference=100.0&inner_corners=loop&burn=0.1&language=None&render=1
Url short: http://127.0.0.1:8000/NightLightBox?BackExtraHoles=R+20+15+11.5+8%0D%0AC+11.58+15+3%0D%0AC+28.42+15+3
SettingsUrl: http://127.0.0.1:8000/NightLightBox?FingerJoint_style=rectangular&FingerJoint_surroundingspaces=1.0&FingerJoint_bottom_lip=0.0&FingerJoint_edge_width=1.0&FingerJoint_extra_length=0.0&FingerJoint_finger=2.0&FingerJoint_play=0.0&FingerJoint_space=2.0&FingerJoint_width=1.0&Stackable_angle=60&Stackable_bottom_stabilizers=0.0&Stackable_height=2.0&Stackable_holedistance=1.0&Stackable_width=4.0&Hinge_grip_percentage=0&Hinge_outset=0&Hinge_outset=1&Hinge_pinwidth=0.4&Hinge_style=flush&Hinge_axle=2.5&Hinge_grip_length=0&Hinge_hingestrength=1&DiffuserPlateTLockScrewDiameter=3.0&DiffuserPlateTLockScrewLength=20.0&DiffuserPlateTLockNutThickness=2.1&DiffuserPlateTLockNutWidth=5.1&BackExtraHoles=R+20+15+11.5+8%0D%0AC+11.58+15+3%0D%0AC+28.42+15+3&BoxStyle=large+face&PlateVisibleWidth=150.0&PlateVisibleHeight=75.0&WoodPlatesCount=3&WoodPlateThickness=5.0&DiffuserPlateThickness=5.0&BackgroundDepth=40.0&InterPlateSpacing=10&Margin=0.5&thickness=3.0&format=svg&tabs=0.0&qr_code=0&debug=0&labels=0&labels=1&reference=100.0&inner_corners=loop&burn=0.1&language=None
SettingsUrl short: http://127.0.0.1:8000/NightLightBox?BackExtraHoles=R+20+15+11.5+8%0D%0AC+11.58+15+3%0D%0AC+28.42+15+3
-->
<title>NightLightBox</title>
<metadata>
<rdf:RDF><cc:Work>
<dc:title>Misc - NightLightBox</dc:title>
<dc:date>2025-01-09 14:42:44</dc:date>
<dc:source>http://127.0.0.1:8000/NightLightBox?FingerJoint_style=rectangular&amp;FingerJoint_surroundingspaces=1.0&amp;FingerJoint_bottom_lip=0.0&amp;FingerJoint_edge_width=1.0&amp;FingerJoint_extra_length=0.0&amp;FingerJoint_finger=2.0&amp;FingerJoint_play=0.0&amp;FingerJoint_space=2.0&amp;FingerJoint_width=1.0&amp;Stackable_angle=60&amp;Stackable_bottom_stabilizers=0.0&amp;Stackable_height=2.0&amp;Stackable_holedistance=1.0&amp;Stackable_width=4.0&amp;Hinge_grip_percentage=0&amp;Hinge_outset=0&amp;Hinge_outset=1&amp;Hinge_pinwidth=0.4&amp;Hinge_style=flush&amp;Hinge_axle=2.5&amp;Hinge_grip_length=0&amp;Hinge_hingestrength=1&amp;DiffuserPlateTLockScrewDiameter=3.0&amp;DiffuserPlateTLockScrewLength=20.0&amp;DiffuserPlateTLockNutThickness=2.1&amp;DiffuserPlateTLockNutWidth=5.1&amp;BackExtraHoles=R+20+15+11.5+8%0D%0AC+11.58+15+3%0D%0AC+28.42+15+3&amp;BoxStyle=large+face&amp;PlateVisibleWidth=150.0&amp;PlateVisibleHeight=75.0&amp;WoodPlatesCount=3&amp;WoodPlateThickness=5.0&amp;DiffuserPlateThickness=5.0&amp;BackgroundDepth=40.0&amp;InterPlateSpacing=10&amp;Margin=0.5&amp;thickness=3.0&amp;format=svg&amp;tabs=0.0&amp;qr_code=0&amp;debug=0&amp;labels=0&amp;labels=1&amp;reference=100.0&amp;inner_corners=loop&amp;burn=0.1&amp;language=None&amp;render=1</dc:source>
<dc:source>http://127.0.0.1:8000/NightLightBox?BackExtraHoles=R+20+15+11.5+8%0D%0AC+11.58+15+3%0D%0AC+28.42+15+3</dc:source>
<dc:description>Simple decorative lamp with creatively laser cut plates

This is a simple light box with a closed compartment for electronics and the backlighting.

Created with Boxes.py (https://boxes.hackerspace-bamberg.de/)
Command line: boxes NightLightBox --FingerJoint_style=rectangular --FingerJoint_surroundingspaces=1.0 --FingerJoint_bottom_lip=0.0 --FingerJoint_edge_width=1.0 --FingerJoint_extra_length=0.0 --FingerJoint_finger=2.0 --FingerJoint_play=0.0 --FingerJoint_space=2.0 --FingerJoint_width=1.0 --Stackable_angle=60 --Stackable_bottom_stabilizers=0.0 --Stackable_height=2.0 --Stackable_holedistance=1.0 --Stackable_width=4.0 --Hinge_grip_percentage=0 --Hinge_outset=0 --Hinge_outset=1 --Hinge_pinwidth=0.4 --Hinge_style=flush --Hinge_axle=2.5 --Hinge_grip_length=0 --Hinge_hingestrength=1 --DiffuserPlateTLockScrewDiameter=3.0 --DiffuserPlateTLockScrewLength=20.0 --DiffuserPlateTLockNutThickness=2.1 --DiffuserPlateTLockNutWidth=5.1 '--BackExtraHoles=R 20 15 11.5 8\nC 11.58 15 3\nC 28.42 15 3' '--BoxStyle=large face' --PlateVisibleWidth=150.0 --PlateVisibleHeight=75.0 --WoodPlatesCount=3 --WoodPlateThickness=5.0 --DiffuserPlateThickness=5.0 --BackgroundDepth=40.0 --InterPlateSpacing=10 --Margin=0.5 --thickness=3.0 --format=svg --tabs=0.0 --qr_code=0 --debug=0 --labels=0 --labels=1 --reference=100.0 --inner_corners=loop --burn=0.1
Command line short: boxes NightLightBox '--BackExtraHoles=R 20 15 11.5 8\nC 11.58 15 3\nC 28.42 15 3'
Url: http://127.0.0.1:8000/NightLightBox?FingerJoint_style=rectangular&amp;FingerJoint_surroundingspaces=1.0&amp;FingerJoint_bottom_lip=0.0&amp;FingerJoint_edge_width=1.0&amp;FingerJoint_extra_length=0.0&amp;FingerJoint_finger=2.0&amp;FingerJoint_play=0.0&amp;FingerJoint_space=2.0&amp;FingerJoint_width=1.0&amp;Stackable_angle=60&amp;Stackable_bottom_stabilizers=0.0&amp;Stackable_height=2.0&amp;Stackable_holedistance=1.0&amp;Stackable_width=4.0&amp;Hinge_grip_percentage=0&amp;Hinge_outset=0&amp;Hinge_outset=1&amp;Hinge_pinwidth=0.4&amp;Hinge_style=flush&amp;Hinge_axle=2.5&amp;Hinge_grip_length=0&amp;Hinge_hingestrength=1&amp;DiffuserPlateTLockScrewDiameter=3.0&amp;DiffuserPlateTLockScrewLength=20.0&amp;DiffuserPlateTLockNutThickness=2.1&amp;DiffuserPlateTLockNutWidth=5.1&amp;BackExtraHoles=R+20+15+11.5+8%0D%0AC+11.58+15+3%0D%0AC+28.42+15+3&amp;BoxStyle=large+face&amp;PlateVisibleWidth=150.0&amp;PlateVisibleHeight=75.0&amp;WoodPlatesCount=3&amp;WoodPlateThickness=5.0&amp;DiffuserPlateThickness=5.0&amp;BackgroundDepth=40.0&amp;InterPlateSpacing=10&amp;Margin=0.5&amp;thickness=3.0&amp;format=svg&amp;tabs=0.0&amp;qr_code=0&amp;debug=0&amp;labels=0&amp;labels=1&amp;reference=100.0&amp;inner_corners=loop&amp;burn=0.1&amp;language=None&amp;render=1
Url short: http://127.0.0.1:8000/NightLightBox?BackExtraHoles=R+20+15+11.5+8%0D%0AC+11.58+15+3%0D%0AC+28.42+15+3
SettingsUrl: http://127.0.0.1:8000/NightLightBox?FingerJoint_style=rectangular&amp;FingerJoint_surroundingspaces=1.0&amp;FingerJoint_bottom_lip=0.0&amp;FingerJoint_edge_width=1.0&amp;FingerJoint_extra_length=0.0&amp;FingerJoint_finger=2.0&amp;FingerJoint_play=0.0&amp;FingerJoint_space=2.0&amp;FingerJoint_width=1.0&amp;Stackable_angle=60&amp;Stackable_bottom_stabilizers=0.0&amp;Stackable_height=2.0&amp;Stackable_holedistance=1.0&amp;Stackable_width=4.0&amp;Hinge_grip_percentage=0&amp;Hinge_outset=0&amp;Hinge_outset=1&amp;Hinge_pinwidth=0.4&amp;Hinge_style=flush&amp;Hinge_axle=2.5&amp;Hinge_grip_length=0&amp;Hinge_hingestrength=1&amp;DiffuserPlateTLockScrewDiameter=3.0&amp;DiffuserPlateTLockScrewLength=20.0&amp;DiffuserPlateTLockNutThickness=2.1&amp;DiffuserPlateTLockNutWidth=5.1&amp;BackExtraHoles=R+20+15+11.5+8%0D%0AC+11.58+15+3%0D%0AC+28.42+15+3&amp;BoxStyle=large+face&amp;PlateVisibleWidth=150.0&amp;PlateVisibleHeight=75.0&amp;WoodPlatesCount=3&amp;WoodPlateThickness=5.0&amp;DiffuserPlateThickness=5.0&amp;BackgroundDepth=40.0&amp;InterPlateSpacing=10&amp;Margin=0.5&amp;thickness=3.0&amp;format=svg&amp;tabs=0.0&amp;qr_code=0&amp;debug=0&amp;labels=0&amp;labels=1&amp;reference=100.0&amp;inner_corners=loop&amp;burn=0.1&amp;language=None
SettingsUrl short: http://127.0.0.1:8000/NightLightBox?BackExtraHoles=R+20+15+11.5+8%0D%0AC+11.58+15+3%0D%0AC+28.42+15+3
</dc:description>
</cc:Work></rdf:RDF></metadata>
<g id="p-0" style="fill:none;stroke-linecap:round;stroke-linejoin:round;">
  <path d="M 118.700 1048.000 H 218.700 V 1038.000 H 118.700 V 1048.000 Z" stroke="rgb(0,0,0)" stroke-width="0.20"/>
  <text dominant-baseline="hanging" font-size="6px" style="font-family: sans-serif ; font-weight: normal; font-style: normal; fill: rgb(255,0,0)" text-anchor="middle" transform="matrix( 1.000 0.000 0.000 1.000 168.700 1040.000 )">100.0mm, burn:0.10mm</text>
</g>
<g id="p-1" style="fill:none;stroke-linecap:round;stroke-linejoin:round;">
  <path d="M 168.950 937.200 H 170.350 C 170.450 937.200 170.350 937.300 170.350 937.200 V 934.400 C 170.350 934.300 170.450 934.400 170.350 934.400 H 167.550 C 167.450 934.400 167.550 934.300 167.550 934.400 V 937.200 C 167.550 937.300 167.450 937.200 167.550 937.200 H 168.950 Z" stroke="rgb(0,0,255)" stroke-width="0.20"/>
  <path d="M 163.050 1006.300 C 163.050 1006.568 163.127 1006.831 163.272 1007.057 C 163.417 1007.283 163.624 1007.462 163.868 1007.573 C 164.113 1007.685 164.384 1007.724 164.649 1007.686 C 164.915 1007.648 165.164 1007.534 165.367 1007.358 C 165.570 1007.182 165.718 1006.952 165.793 1006.694 C 165.869 1006.437 165.869 1006.163 165.793 1005.906 C 165.718 1005.648 165.570 1005.418 165.367 1005.242 C 165.164 1005.066 164.915 1004.952 164.649 1004.914 C 164.384 1004.876 164.113 1004.915 163.868 1005.027 C 163.624 1005.138 163.417 1005.317 163.272 1005.543 C 163.127 1005.769 163.050 1006.032 163.050 1006.300 Z" stroke="rgb(0,0,255)" stroke-width="0.20"/>
  <path d="M 213.700 1027.200 H 216.600 C 216.700 1027.200 216.600 1027.300 216.600 1027.200 V 1024.400 C 216.600 1024.300 216.700 1024.400 216.600 1024.400 H 210.800 C 210.700 1024.400 210.800 1024.300 210.800 1024.400 V 1027.200 C 210.800 1027.300 210.700 1027.200 210.800 1027.200 H 213.700 Z" stroke="rgb(0,0,255)" stroke-width="0.20"/>
  <path d="M 201.700 1027.200 H 204.600 C 204.700 1027.200 204.600 1027.300 204.600 1027.200 V 1024.400 C 204.600 1024.300 204.700 1024.400 204.600 1024.400 H 198.800 C 198.700 1024.400 198.800 1024.300 198.800 1024.400 V 1027.200 C 198.800 1027.300 198.700 1027.200 198.800 1027.200 H 201.700 Z" stroke="rgb(0,0,255)" stroke-width="0.20"/>
  <path d="M 189.700 1027.200 H 192.600 C 192.700 1027.200 192.600 1027.300 192.600 1027.200 V 1024.400 C 192.600 1024.300 192.700 1024.400 192.600 1024.400 H 186.800 C 186.700 1024.400 186.800 1024.300 186.800 1024.400 V 1027.200 C 186.800 1027.300 186.700 1027.200 186.800 1027.200 H 189.700 Z" stroke="rgb(0,0,255)" stroke-width="0.20"/>
  <path d="M 177.700 1027.200 H 180.600 C 180.700 1027.200 180.600 1027.300 180.600 1027.200 V 1024.400 C 180.600 1024.300 180.700 1024.400 180.600 1024.400 H 174.800 C 174.700 1024.400 174.800 1024.300 174.800 1024.400 V 1027.200 C 174.800 1027.300 174.700 1027.200 174.800 1027.200 H 177.700 Z" stroke="rgb(0,0,255)" stroke-width="0.20"/>
  <path d="M 165.700 1027.200 H 168.600 C 168.700 1027.200 168.600 1027.300 168.600 1027.200 V 1024.400 C 168.600 1024.300 168.700 1024.400 168.600 1024.400 H 162.800 C 162.700 1024.400 162.800 1024.300 162.800 1024.400 V 1027.200 C 162.800 1027.300 162.700 1027.200 162.800 1027.200 H 165.700 Z" stroke="rgb(0,0,255)" stroke-width="0.20"/>
  <path d="M 153.700 1027.200 H 156.600 C 156.700 1027.200 156.600 1027.300 156.600 1027.200 V 1024.400 C 156.600 1024.300 156.700 1024.400 156.600 1024.400 H 150.800 C 150.700 1024.400 150.800 1024.300 150.800 1024.400 V 1027.200 C 150.800 1027.300 150.700 1027.200 150.800 1027.200 H 153.700 Z" stroke="rgb(0,0,255)" stroke-width="0.20"/>
  <path d="M 141.700 1027.200 H 144.600 C 144.700 1027.200 144.600 1027.300 144.600 1027.200 V 1024.400 C 144.600 1024.300 144.700 1024.400 144.600 1024.400 H 138.800 C 138.700 1024.400 138.800 1024.300 138.800 1024.400 V 1027.200 C 138.800 1027.300 138.700 1027.200 138.800 1027.200 H 141.700 Z" stroke="rgb(0,0,255)" stroke-width="0.20"/>
  <path d="M 129.700 1027.200 H 132.600 C 132.700 1027.200 132.600 1027.300 132.600 1027.200 V 1024.400 C 132.600 1024.300 132.700 1024.400 132.600 1024.400 H 126.800 C 126.700 1024.400 126.800 1024.300 126.800 1024.400 V 1027.200 C 126.800 1027.300 126.700 1027.200 126.800 1027.200 H 129.700 Z" stroke="rgb(0,0,255)" stroke-width="0.20"/>
  <text dominant-baseline="hanging" font-size="4px" style="font-family: sans-serif ; font-weight: normal; font-style: normal; fill: rgb(255,0,0)" text-anchor="middle" transform="matrix( 1.000 0.000 0.000 1.000 170.200 972.550 )">left</text><path d="M 221.700 1036.300 H 209.700 C 208.629 1036.300 207.577 1036.018 206.650 1035.483 C 205.723 1034.947 204.953 1034.177 204.417 1033.250 C 203.899 1032.353 203.155 1031.608 202.258 1031.090 C 201.361 1030.573 200.343 1030.300 199.308 1030.300 H 144.092 C 143.057 1030.300 142.039 1030.573 141.142 1031.090 C 140.245 1031.608 139.501 1032.353 138.983 1033.250 C 138.447 1034.177 137.677 1034.947 136.750 1035.483 C 135.823 1036.018 134.771 1036.300 133.700 1036.300 H 121.700 C 121.645 1036.300 121.600 1036.255 121.600 1036.200 V 1024.200 V 1021.050 C 121.600 1020.950 121.700 1021.050 121.600 1021.050 H 118.700 C 118.645 1021.050 118.600 1021.005 118.600 1020.950 V 1014.950 C 118.600 1014.895 118.645 1014.850 118.700 1014.850 H 121.600 C 121.700 1014.850 121.600 1014.950 121.600 1014.850 V 1009.050 C 121.600 1008.950 121.700 1009.050 121.600 1009.050 H 118.700 C 118.645 1009.050 118.600 1009.005 118.600 1008.950 V 1002.950 C 118.600 1002.895 118.645 1002.850 118.700 1002.850 H 121.600 C 121.700 1002.850 121.600 1002.950 121.600 1002.850 V 997.050 C 121.600 996.950 121.700 997.050 121.600 997.050 H 118.700 C 118.645 997.050 118.600 997.005 118.600 996.950 V 990.950 C 118.600 990.895 118.645 990.850 118.700 990.850 H 121.600 C 121.700 990.850 121.600 990.950 121.600 990.850 V 985.050 C 121.600 984.950 121.700 985.050 121.600 985.050 H 118.700 C 118.645 985.050 118.600 985.005 118.600 984.950 V 978.950 C 118.600 978.895 118.645 978.850 118.700 978.850 H 121.600 C 121.700 978.850 121.600 978.950 121.600 978.850 V 973.050 C 121.600 972.950 121.700 973.050 121.600 973.050 H 118.700 C 118.645 973.050 118.600 973.005 118.600 972.950 V 966.950 C 118.600 966.895 118.645 966.850 118.700 966.850 H 121.600 C 121.700 966.850 121.600 966.950 121.600 966.850 V 961.050 C 121.600 960.950 121.700 961.050 121.600 961.050 H 118.700 C 118.645 961.050 118.600 961.005 118.600 960.950 V 954.950 C 118.600 954.895 118.645 954.850 118.700 954.850 H 121.600 C 121.700 954.850 121.600 954.950 121.600 954.850 V 949.050 C 121.600 948.950 121.700 949.050 121.600 949.050 H 118.700 C 118.645 949.050 118.600 949.005 118.600 948.950 V 942.950 C 118.600 942.895 118.645 942.850 118.700 942.850 H 121.600 C 121.700 942.850 121.600 942.950 121.600 942.850 V 937.050 C 121.600 936.950 121.700 937.050 121.600 937.050 H 118.700 C 118.645 937.050 118.600 937.005 118.600 936.950 V 930.950 C 118.600 930.895 118.645 930.850 118.700 930.850 H 121.600 C 121.700 930.850 121.600 930.950 121.600 930.850 V 927.700 V 924.700 C 121.600 924.645 121.645 924.600 121.700 924.600 C 121.645 924.600 121.600 924.645 121.600 924.700 V 923.200 C 121.600 921.998 121.917 920.816 122.518 919.775 C 123.119 918.734 123.984 917.869 125.025 917.268 C 126.066 916.667 127.248 916.350 128.450 916.350 C 129.652 916.350 130.834 916.667 131.875 917.268 C 132.916 917.869 133.781 918.734 134.382 919.775 C 134.983 920.816 135.300 921.998 135.300 923.200 C 135.300 923.446 135.365 923.687 135.488 923.900 C 135.610 924.113 135.787 924.290 136.000 924.412 C 136.213 924.535 136.454 924.600 136.700 924.600 H 140.075 C 140.130 924.600 140.175 924.645 140.175 924.700 V 927.600 C 140.175 927.700 140.075 927.600 140.175 927.600 H 145.975 C 146.075 927.600 145.975 927.700 145.975 927.600 V 924.700 C 145.975 924.645 146.020 924.600 146.075 924.600 H 152.075 C 152.130 924.600 152.175 924.645 152.175 924.700 V 927.600 C 152.175 927.700 152.075 927.600 152.175 927.600 H 157.975 C 158.075 927.600 157.975 927.700 157.975 927.600 V 924.700 C 157.975 924.645 158.020 924.600 158.075 924.600 H 161.450 H 176.700 C 176.755 924.600 176.800 924.645 176.800 924.700 V 931.100 C 176.800 931.200 176.700 931.100 176.800 931.100 H 182.100 C 182.200 931.100 182.100 931.200 182.100 931.100 V 924.700 C 182.100 924.645 182.145 924.600 182.200 924.600 H 191.700 C 191.755 924.600 191.800 924.645 191.800 924.700 V 931.100 C 191.800 931.200 191.700 931.100 191.800 931.100 H 197.100 C 197.200 931.100 197.100 931.200 197.100 931.100 V 924.700 C 197.100 924.645 197.145 924.600 197.200 924.600 H 206.700 C 206.755 924.600 206.800 924.645 206.800 924.700 V 931.100 C 206.800 931.200 206.700 931.100 206.800 931.100 H 212.100 C 212.200 931.100 212.100 931.200 212.100 931.100 V 924.700 C 212.100 924.645 212.145 924.600 212.200 924.600 H 221.700 C 221.755 924.600 221.800 924.645 221.800 924.700 V 929.350 C 221.800 929.450 221.700 929.350 221.800 929.350 H 224.700 C 224.755 929.350 224.800 929.395 224.800 929.450 V 935.450 C 224.800 935.505 224.755 935.550 224.700 935.550 H 221.800 C 221.700 935.550 221.800 935.450 221.800 935.550 V 941.350 C 221.800 941.450 221.700 941.350 221.800 941.350 H 224.700 C 224.755 941.350 224.800 941.395 224.800 941.450 V 947.450 C 224.800 947.505 224.755 947.550 224.700 947.550 H 221.800 C 221.700 947.550 221.800 947.450 221.800 947.550 V 953.350 C 221.800 953.450 221.700 953.350 221.800 953.350 H 224.700 C 224.755 953.350 224.800 953.395 224.800 953.450 V 959.450 C 224.800 959.505 224.755 959.550 224.700 959.550 H 221.800 C 221.700 959.550 221.800 959.450 221.800 959.550 V 965.350 C 221.800 965.450 221.700 965.350 221.800 965.350 H 224.700 C 224.755 965.350 224.800 965.395 224.800 965.450 V 971.450 C 224.800 971.505 224.755 971.550 224.700 971.550 H 221.800 C 221.700 971.550 221.800 971.450 221.800 971.550 V 977.350 C 221.800 977.450 221.700 977.350 221.800 977.350 H 224.700 C 224.755 977.350 224.800 977.395 224.800 977.450 V 983.450 C 224.800 983.505 224.755 983.550 224.700 983.550 H 221.800 C 221.700 983.550 221.800 983.450 221.800 983.550 V 989.350 C 221.800 989.450 221.700 989.350 221.800 989.350 H 224.700 C 224.755 989.350 224.800 989.395 224.800 989.450 V 995.450 C 224.800 995.505 224.755 995.550 224.700 995.550 H 221.800 C 221.700 995.550 221.800 995.450 221.800 995.550 V 1001.350 C 221.800 1001.450 221.700 1001.350 221.800 1001.350 H 224.700 C 224.755 1001.350 224.800 1001.395 224.800 1001.450 V 1007.450 C 224.800 1007.505 224.755 1007.550 224.700 1007.550 H 221.800 C 221.700 1007.550 221.800 1007.450 221.800 1007.550 V 1013.350 C 221.800 1013.450 221.700 1013.350 221.800 1013.350 H 224.700 C 224.755 1013.350 224.800 1013.395 224.800 1013.450 V 1019.450 C 224.800 1019.505 224.755 1019.550 224.700 1019.550 H 221.800 C 221.700 1019.550 221.800 1019.450 221.800 1019.550 V 1024.200 V 1036.200" stroke="rgb(0,0,0)" stroke-width="0.20"/>
  <path d="M 132.100 923.100 C 132.100 922.400 131.899 921.715 131.521 921.127 C 131.142 920.538 130.603 920.071 129.966 919.780 C 129.330 919.489 128.623 919.388 127.931 919.487 C 127.238 919.587 126.589 919.883 126.060 920.342 C 125.531 920.800 125.145 921.400 124.948 922.072 C 124.751 922.743 124.751 923.457 124.948 924.128 C 125.145 924.800 125.531 925.400 126.060 925.858 C 126.589 926.317 127.238 926.613 127.931 926.713 C 128.623 926.812 129.330 926.711 129.966 926.420 C 130.603 926.129 131.142 925.662 131.521 925.073 C 131.899 924.485 132.100 923.800 132.100 923.100 Z" stroke="rgb(0,0,255)" stroke-width="0.20"/>
  <path d="M 128.450 921.700 H 127.175 C 127.075 921.700 127.175 921.600 127.175 921.700 V 924.500 C 127.175 924.600 127.075 924.500 127.175 924.500 H 129.725 C 129.825 924.500 129.725 924.600 129.725 924.500 V 921.700 C 129.725 921.600 129.825 921.700 129.725 921.700 H 128.450 Z" stroke="rgb(0,0,255)" stroke-width="0.20"/>
</g>
<g id="p-2" style="fill:none;stroke-linecap:round;stroke-linejoin:round;">
  <path d="M 66.750 937.200 H 65.350 C 65.250 937.200 65.350 937.300 65.350 937.200 V 934.400 C 65.350 934.300 65.250 934.400 65.350 934.400 H 68.150 C 68.250 934.400 68.150 934.300 68.150 934.400 V 937.200 C 68.150 937.300 68.250 937.200 68.150 937.200 H 66.750 Z" stroke="rgb(0,0,255)" stroke-width="0.20"/>
  <path d="M 72.650 1006.300 C 72.650 1006.568 72.573 1006.831 72.428 1007.057 C 72.283 1007.283 72.076 1007.462 71.832 1007.573 C 71.587 1007.685 71.316 1007.724 71.051 1007.686 C 70.785 1007.648 70.536 1007.534 70.333 1007.358 C 70.130 1007.182 69.982 1006.952 69.907 1006.694 C 69.831 1006.437 69.831 1006.163 69.907 1005.906 C 69.982 1005.648 70.130 1005.418 70.333 1005.242 C 70.536 1005.066 70.785 1004.952 71.051 1004.914 C 71.316 1004.876 71.587 1004.915 71.832 1005.027 C 72.076 1005.138 72.283 1005.317 72.428 1005.543 C 72.573 1005.769 72.650 1006.032 72.650 1006.300 Z" stroke="rgb(0,0,255)" stroke-width="0.20"/>
  <path d="M 22.000 1027.200 H 19.100 C 19.000 1027.200 19.100 1027.300 19.100 1027.200 V 1024.400 C 19.100 1024.300 19.000 1024.400 19.100 1024.400 H 24.900 C 25.000 1024.400 24.900 1024.300 24.900 1024.400 V 1027.200 C 24.900 1027.300 25.000 1027.200 24.900 1027.200 H 22.000 Z" stroke="rgb(0,0,255)" stroke-width="0.20"/>
  <path d="M 34.000 1027.200 H 31.100 C 31.000 1027.200 31.100 1027.300 31.100 1027.200 V 1024.400 C 31.100 1024.300 31.000 1024.400 31.100 1024.400 H 36.900 C 37.000 1024.400 36.900 1024.300 36.900 1024.400 V 1027.200 C 36.900 1027.300 37.000 1027.200 36.900 1027.200 H 34.000 Z" stroke="rgb(0,0,255)" stroke-width="0.20"/>
  <path d="M 46.000 1027.200 H 43.100 C 43.000 1027.200 43.100 1027.300 43.100 1027.200 V 1024.400 C 43.100 1024.300 43.000 1024.400 43.100 1024.400 H 48.900 C 49.000 1024.400 48.900 1024.300 48.900 1024.400 V 1027.200 C 48.900 1027.300 49.000 1027.200 48.900 1027.200 H 46.000 Z" stroke="rgb(0,0,255)" stroke-width="0.20"/>
  <path d="M 58.000 1027.200 H 55.100 C 55.000 1027.200 55.100 1027.300 55.100 1027.200 V 1024.400 C 55.100 1024.300 55.000 1024.400 55.100 1024.400 H 60.900 C 61.000 1024.400 60.900 1024.300 60.900 1024.400 V 1027.200 C 60.900 1027.300 61.000 1027.200 60.900 1027.200 H 58.000 Z" stroke="rgb(0,0,255)" stroke-width="0.20"/>
  <path d="M 70.000 1027.200 H 67.100 C 67.000 1027.200 67.100 1027.300 67.100 1027.200 V 1024.400 C 67.100 1024.300 67.000 1024.400 67.100 1024.400 H 72.900 C 73.000 1024.400 72.900 1024.300 72.900 1024.400 V 1027.200 C 72.900 1027.300 73.000 1027.200 72.900 1027.200 H 70.000 Z" stroke="rgb(0,0,255)" stroke-width="0.20"/>
  <path d="M 82.000 1027.200 H 79.100 C 79.000 1027.200 79.100 1027.300 79.100 1027.200 V 1024.400 C 79.100 1024.300 79.000 1024.400 79.100 1024.400 H 84.900 C 85.000 1024.400 84.900 1024.300 84.900 1024.400 V 1027.200 C 84.900 1027.300 85.000 1027.200 84.900 1027.200 H 82.000 Z" stroke="rgb(0,0,255)" stroke-width="0.20"/>
  <path d="M 94.000 1027.200 H 91.100 C 91.000 1027.200 91.100 1027.300 91.100 1027.200 V 1024.400 C 91.100 1024.300 91.000 1024.400 91.100 1024.400 H 96.900 C 97.000 1024.400 96.900 1024.300 96.900 1024.400 V 1027.200 C 96.900 1027.300 97.000 1027.200 96.900 1027.200 H 94.000 Z" stroke="rgb(0,0,255)" stroke-width="0.20"/>
  <path d="M 106.000 1027.200 H 103.100 C 103.000 1027.200 103.100 1027.300 103.100 1027.200 V 1024.400 C 103.100 1024.300 103.000 1024.400 103.100 1024.400 H 108.900 C 109.000 1024.400 108.900 1024.300 108.900 1024.400 V 1027.200 C 108.900 1027.300 109.000 1027.200 108.900 1027.200 H 106.000 Z" stroke="rgb(0,0,255)" stroke-width="0.20"/>
  <text dominant-baseline="hanging" font-size="4px" style="font-family: sans-serif ; font-weight: normal; font-style: normal; fill: rgb(255,0,0)" text-anchor="middle" transform="matrix( 1.000 0.000 0.000 1.000 65.500 972.550 )">right</text><path d="M 14.000 1036.300 H 26.000 C 27.071 1036.300 28.123 1036.018 29.050 1035.483 C 29.977 1034.947 30.747 1034.177 31.283 1033.250 C 31.801 1032.353 32.545 1031.608 33.442 1031.090 C 34.339 1030.573 35.357 1030.300 36.392 1030.300 H 91.608 C 92.643 1030.300 93.661 1030.573 94.558 1031.090 C 95.455 1031.608 96.199 1032.353 96.717 1033.250 C 97.253 1034.177 98.023 1034.947 98.950 1035.483 C 99.877 1036.018 100.929 1036.300 102.000 1036.300 H 114.000 C 114.055 1036.300 114.100 1036.255 114.100 1036.200 V 1024.200 V 1021.050 C 114.100 1020.950 114.000 1021.050 114.100 1021.050 H 117.000 C 117.055 1021.050 117.100 1021.005 117.100 1020.950 V 1014.950 C 117.100 1014.895 117.055 1014.850 117.000 1014.850 H 114.100 C 114.000 1014.850 114.100 1014.950 114.100 1014.850 V 1009.050 C 114.100 1008.950 114.000 1009.050 114.100 1009.050 H 117.000 C 117.055 1009.050 117.100 1009.005 117.100 1008.950 V 1002.950 C 117.100 1002.895 117.055 1002.850 117.000 1002.850 H 114.100 C 114.000 1002.850 114.100 1002.950 114.100 1002.850 V 997.050 C 114.100 996.950 114.000 997.050 114.100 997.050 H 117.000 C 117.055 997.050 117.100 997.005 117.100 996.950 V 990.950 C 117.100 990.895 117.055 990.850 117.000 990.850 H 114.100 C 114.000 990.850 114.100 990.950 114.100 990.850 V 985.050 C 114.100 984.950 114.000 985.050 114.100 985.050 H 117.000 C 117.055 985.050 117.100 985.005 117.100 984.950 V 978.950 C 117.100 978.895 117.055 978.850 117.000 978.850 H 114.100 C 114.000 978.850 114.100 978.950 114.100 978.850 V 973.050 C 114.100 972.950 114.000 973.050 114.100 973.050 H 117.000 C 117.055 973.050 117.100 973.005 117.100 972.950 V 966.950 C 117.100 966.895 117.055 966.850 117.000 966.850 H 114.100 C 114.000 966.850 114.100 966.950 114.100 966.850 V 961.050 C 114.100 960.950 114.000 961.050 114.100 961.050 H 117.000 C 117.055 961.050 117.100 961.005 117.100 960.950 V 954.950 C 117.100 954.895 117.055 954.850 117.000 954.850 H 114.100 C 114.000 954.850 114.100 954.950 114.100 954.850 V 949.050 C 114.100 948.950 114.000 949.050 114.100 949.050 H 117.000 C 117.055 949.050 117.100 949.005 117.100 948.950 V 942.950 C 117.100 942.895 117.055 942.850 117.000 942.850 H 114.100 C 114.000 942.850 114.100 942.950 114.100 942.850 V 937.050 C 114.100 936.950 114.000 937.050 114.100 937.050 H 117.000 C 117.055 937.050 117.100 937.005 117.100 936.950 V 930.950 C 117.100 930.895 117.055 930.850 117.000 930.850 H 114.100 C 114.000 930.850 114.100 930.950 114.100 930.850 V 927.700 V 924.700 C 114.100 924.645 114.055 924.600 114.000 924.600 C 114.055 924.600 114.100 924.645 114.100 924.700 V 923.200 C 114.100 921.998 113.783 920.816 113.182 919.775 C 112.581 918.734 111.716 917.869 110.675 917.268 C 109.634 916.667 108.452 916.350 107.250 916.350 C 106.048 916.350 104.866 916.667 103.825 917.268 C 102.784 917.869 101.919 918.734 101.318 919.775 C 100.717 920.816 100.400 921.998 100.400 923.200 C 100.400 923.446 100.335 923.687 100.212 923.900 C 100.090 924.113 99.913 924.290 99.700 924.412 C 99.487 924.535 99.246 924.600 99.000 924.600 H 95.625 C 95.570 924.600 95.525 924.645 95.525 924.700 V 927.600 C 95.525 927.700 95.625 927.600 95.525 927.600 H 89.725 C 89.625 927.600 89.725 927.700 89.725 927.600 V 924.700 C 89.725 924.645 89.680 924.600 89.625 924.600 H 83.625 C 83.570 924.600 83.525 924.645 83.525 924.700 V 927.600 C 83.525 927.700 83.625 927.600 83.525 927.600 H 77.725 C 77.625 927.600 77.725 927.700 77.725 927.600 V 924.700 C 77.725 924.645 77.680 924.600 77.625 924.600 H 74.250 H 59.000 C 58.945 924.600 58.900 924.645 58.900 924.700 V 931.100 C 58.900 931.200 59.000 931.100 58.900 931.100 H 53.600 C 53.500 931.100 53.600 931.200 53.600 931.100 V 924.700 C 53.600 924.645 53.555 924.600 53.500 924.600 H 44.000 C 43.945 924.600 43.900 924.645 43.900 924.700 V 931.100 C 43.900 931.200 44.000 931.100 43.900 931.100 H 38.600 C 38.500 931.100 38.600 931.200 38.600 931.100 V 924.700 C 38.600 924.645 38.555 924.600 38.500 924.600 H 29.000 C 28.945 924.600 28.900 924.645 28.900 924.700 V 931.100 C 28.900 931.200 29.000 931.100 28.900 931.100 H 23.600 C 23.500 931.100 23.600 931.200 23.600 931.100 V 924.700 C 23.600 924.645 23.555 924.600 23.500 924.600 H 14.000 C 13.945 924.600 13.900 924.645 13.900 924.700 V 929.350 C 13.900 929.450 14.000 929.350 13.900 929.350 H 11.000 C 10.945 929.350 10.900 929.395 10.900 929.450 V 935.450 C 10.900 935.505 10.945 935.550 11.000 935.550 H 13.900 C 14.000 935.550 13.900 935.450 13.900 935.550 V 941.350 C 13.900 941.450 14.000 941.350 13.900 941.350 H 11.000 C 10.945 941.350 10.900 941.395 10.900 941.450 V 947.450 C 10.900 947.505 10.945 947.550 11.000 947.550 H 13.900 C 14.000 947.550 13.900 947.450 13.900 947.550 V 953.350 C 13.900 953.450 14.000 953.350 13.900 953.350 H 11.000 C 10.945 953.350 10.900 953.395 10.900 953.450 V 959.450 C 10.900 959.505 10.945 959.550 11.000 959.550 H 13.900 C 14.000 959.550 13.900 959.450 13.900 959.550 V 965.350 C 13.900 965.450 14.000 965.350 13.900 965.350 H 11.000 C 10.945 965.350 10.900 965.395 10.900 965.450 V 971.450 C 10.900 971.505 10.945 971.550 11.000 971.550 H 13.900 C 14.000 971.550 13.900 971.450 13.900 971.550 V 977.350 C 13.900 977.450 14.000 977.350 13.900 977.350 H 11.000 C 10.945 977.350 10.900 977.395 10.900 977.450 V 983.450 C 10.900 983.505 10.945 983.550 11.000 983.550 H 13.900 C 14.000 983.550 13.900 983.450 13.900 983.550 V 989.350 C 13.900 989.450 14.000 989.350 13.900 989.350 H 11.000 C 10.945 989.350 10.900 989.395 10.900 989.450 V 995.450 C 10.900 995.505 10.945 995.550 11.000 995.550 H 13.900 C 14.000 995.550 13.900 995.450 13.900 995.550 V 1001.350 C 13.900 1001.450 14.000 1001.350 13.900 1001.350 H 11.000 C 10.945 1001.350 10.900 1001.395 10.900 1001.450 V 1007.450 C 10.900 1007.505 10.945 1007.550 11.000 1007.550 H 13.900 C 14.000 1007.550 13.900 1007.450 13.900 1007.550 V 1013.350 C 13.900 1013.450 14.000 1013.350 13.900 1013.350 H 11.000 C 10.945 1013.350 10.900 1013.395 10.900 1013.450 V 1019.450 C 10.900 1019.505 10.945 1019.550 11.000 1019.550 H 13.900 C 14.000 1019.550 13.900 1019.450 13.900 1019.550 V 1024.200 V 1036.200" stroke="rgb(0,0,0)" stroke-width="0.20"/>
  <path d="M 103.600 923.100 C 103.600 922.400 103.801 921.715 104.179 921.127 C 104.558 920.538 105.097 920.071 105.734 919.780 C 106.370 919.489 107.077 919.388 107.769 919.487 C 108.462 919.587 109.111 919.883 109.640 920.342 C 110.169 920.800 110.555 921.400 110.752 922.072 C 110.949 922.743 110.949 923.457 110.752 924.128 C 110.555 924.800 110.169 925.400 109.640 925.858 C 109.111 926.317 108.462 926.613 107.769 926.713 C 107.077 926.812 106.370 926.711 105.734 926.420 C 105.097 926.129 104.558 925.662 104.179 925.073 C 103.801 924.485 103.600 923.800 103.600 923.100 Z" stroke="rgb(0,0,255)" stroke-width="0.20"/>
  <path d="M 107.250 921.700 H 108.525 C 108.625 921.700 108.525 921.600 108.525 921.700 V 924.500 C 108.525 924.600 108.625 924.500 108.525 924.500 H 105.975 C 105.875 924.500 105.975 924.600 105.975 924.500 V 921.700 C 105.975 921.600 105.875 921.700 105.975 921.700 H 107.250 Z" stroke="rgb(0,0,255)" stroke-width="0.20"/>
</g>
<g id="p-3" style="fill:none;stroke-linecap:round;stroke-linejoin:round;">
  <text dominant-baseline="hanging" font-size="4px" style="font-family: sans-serif ; font-weight: normal; font-style: normal; fill: rgb(255,0,0)" text-anchor="middle" transform="matrix( 1.000 0.000 0.000 1.000 42.000 904.600 )">rail</text><path d="M 14.000 911.100 H 20.900 C 21.000 911.100 20.900 911.000 20.900 911.100 V 914.000 C 20.900 914.055 20.945 914.100 21.000 914.100 H 27.000 C 27.055 914.100 27.100 914.055 27.100 914.000 V 911.100 C 27.100 911.000 27.000 911.100 27.100 911.100 H 32.900 C 33.000 911.100 32.900 911.000 32.900 911.100 V 914.000 C 32.900 914.055 32.945 914.100 33.000 914.100 H 39.000 C 39.055 914.100 39.100 914.055 39.100 914.000 V 911.100 C 39.100 911.000 39.000 911.100 39.100 911.100 H 44.900 C 45.000 911.100 44.900 911.000 44.900 911.100 V 914.000 C 44.900 914.055 44.945 914.100 45.000 914.100 H 51.000 C 51.055 914.100 51.100 914.055 51.100 914.000 V 911.100 C 51.100 911.000 51.000 911.100 51.100 911.100 H 56.900 C 57.000 911.100 56.900 911.000 56.900 911.100 V 914.000 C 56.900 914.055 56.945 914.100 57.000 914.100 H 63.000 C 63.055 914.100 63.100 914.055 63.100 914.000 V 911.100 C 63.100 911.000 63.000 911.100 63.100 911.100 H 70.000 C 70.055 911.100 70.100 911.055 70.100 911.000 V 905.000 C 70.100 904.945 70.055 904.900 70.000 904.900 H 67.250 C 67.195 904.900 67.150 904.945 67.150 905.000 V 908.400 C 67.150 908.500 67.250 908.400 67.150 908.400 H 61.850 C 61.750 908.400 61.850 908.500 61.850 908.400 V 905.000 C 61.850 904.945 61.805 904.900 61.750 904.900 H 52.250 C 52.195 904.900 52.150 904.945 52.150 905.000 V 908.400 C 52.150 908.500 52.250 908.400 52.150 908.400 H 46.850 C 46.750 908.400 46.850 908.500 46.850 908.400 V 905.000 C 46.850 904.945 46.805 904.900 46.750 904.900 H 37.250 C 37.195 904.900 37.150 904.945 37.150 905.000 V 908.400 C 37.150 908.500 37.250 908.400 37.150 908.400 H 31.850 C 31.750 908.400 31.850 908.500 31.850 908.400 V 905.000 C 31.850 904.945 31.805 904.900 31.750 904.900 H 22.250 C 22.195 904.900 22.150 904.945 22.150 905.000 V 908.400 C 22.150 908.500 22.250 908.400 22.150 908.400 H 16.850 C 16.750 908.400 16.850 908.500 16.850 908.400 V 905.000 C 16.850 904.945 16.805 904.900 16.750 904.900 H 14.000 C 13.945 904.900 13.900 904.945 13.900 905.000 V 911.000 C 13.900 911.055 13.945 911.100 14.000 911.100" stroke="rgb(0,0,0)" stroke-width="0.20"/>
</g>
<g id="p-4" style="fill:none;stroke-linecap:round;stroke-linejoin:round;">
  <text dominant-baseline="hanging" font-size="4px" style="font-family: sans-serif ; font-weight: normal; font-style: normal; fill: rgb(255,0,0)" text-anchor="middle" transform="matrix( 1.000 0.000 0.000 1.000 42.000 893.900 )">rail</text><path d="M 70.000 900.400 H 63.100 C 63.000 900.400 63.100 900.300 63.100 900.400 V 903.300 C 63.100 903.355 63.055 903.400 63.000 903.400 H 57.000 C 56.945 903.400 56.900 903.355 56.900 903.300 V 900.400 C 56.900 900.300 57.000 900.400 56.900 900.400 H 51.100 C 51.000 900.400 51.100 900.300 51.100 900.400 V 903.300 C 51.100 903.355 51.055 903.400 51.000 903.400 H 45.000 C 44.945 903.400 44.900 903.355 44.900 903.300 V 900.400 C 44.900 900.300 45.000 900.400 44.900 900.400 H 39.100 C 39.000 900.400 39.100 900.300 39.100 900.400 V 903.300 C 39.100 903.355 39.055 903.400 39.000 903.400 H 33.000 C 32.945 903.400 32.900 903.355 32.900 903.300 V 900.400 C 32.900 900.300 33.000 900.400 32.900 900.400 H 27.100 C 27.000 900.400 27.100 900.300 27.100 900.400 V 903.300 C 27.100 903.355 27.055 903.400 27.000 903.400 H 21.000 C 20.945 903.400 20.900 903.355 20.900 903.300 V 900.400 C 20.900 900.300 21.000 900.400 20.900 900.400 H 14.000 C 13.945 900.400 13.900 900.355 13.900 900.300 V 894.300 C 13.900 894.245 13.945 894.200 14.000 894.200 H 16.750 C 16.805 894.200 16.850 894.245 16.850 894.300 V 897.700 C 16.850 897.800 16.750 897.700 16.850 897.700 H 22.150 C 22.250 897.700 22.150 897.800 22.150 897.700 V 894.300 C 22.150 894.245 22.195 894.200 22.250 894.200 H 31.750 C 31.805 894.200 31.850 894.245 31.850 894.300 V 897.700 C 31.850 897.800 31.750 897.700 31.850 897.700 H 37.150 C 37.250 897.700 37.150 897.800 37.150 897.700 V 894.300 C 37.150 894.245 37.195 894.200 37.250 894.200 H 46.750 C 46.805 894.200 46.850 894.245 46.850 894.300 V 897.700 C 46.850 897.800 46.750 897.700 46.850 897.700 H 52.150 C 52.250 897.700 52.150 897.800 52.150 897.700 V 894.300 C 52.150 894.245 52.195 894.200 52.250 894.200 H 61.750 C 61.805 894.200 61.850 894.245 61.850 894.300 V 897.700 C 61.850 897.800 61.750 897.700 61.850 897.700 H 67.150 C 67.250 897.700 67.150 897.800 67.150 897.700 V 894.300 C 67.150 894.245 67.195 894.200 67.250 894.200 H 70.000 C 70.055 894.200 70.100 894.245 70.100 894.300 V 900.300 C 70.100 900.355 70.055 900.400 70.000 900.400" stroke="rgb(0,0,0)" stroke-width="0.20"/>
</g>
<g id="p-5" style="fill:none;stroke-linecap:round;stroke-linejoin:round;">
  <path d="M 22.900 869.850 V 872.750 C 22.900 872.850 23.000 872.750 22.900 872.750 H 20.100 C 20.000 872.750 20.100 872.850 20.100 872.750 V 866.950 C 20.100 866.850 20.000 866.950 20.100 866.950 H 22.900 C 23.000 866.950 22.900 866.850 22.900 866.950 V 869.850 Z" stroke="rgb(0,0,255)" stroke-width="0.20"/>
  <path d="M 22.900 857.850 V 860.750 C 22.900 860.850 23.000 860.750 22.900 860.750 H 20.100 C 20.000 860.750 20.100 860.850 20.100 860.750 V 854.950 C 20.100 854.850 20.000 854.950 20.100 854.950 H 22.900 C 23.000 854.950 22.900 854.850 22.900 854.950 V 857.850 Z" stroke="rgb(0,0,255)" stroke-width="0.20"/>
  <path d="M 22.900 845.850 V 848.750 C 22.900 848.850 23.000 848.750 22.900 848.750 H 20.100 C 20.000 848.750 20.100 848.850 20.100 848.750 V 842.950 C 20.100 842.850 20.000 842.950 20.100 842.950 H 22.900 C 23.000 842.950 22.900 842.850 22.900 842.950 V 845.850 Z" stroke="rgb(0,0,255)" stroke-width="0.20"/>
  <path d="M 22.900 833.850 V 836.750 C 22.900 836.850 23.000 836.750 22.900 836.750 H 20.100 C 20.000 836.750 20.100 836.850 20.100 836.750 V 830.950 C 20.100 830.850 20.000 830.950 20.100 830.950 H 22.900 C 23.000 830.950 22.900 830.850 22.900 830.950 V 833.850 Z" stroke="rgb(0,0,255)" stroke-width="0.20"/>
  <path d="M 188.400 869.850 V 872.750 C 188.400 872.850 188.500 872.750 188.400 872.750 H 185.600 C 185.500 872.750 185.600 872.850 185.600 872.750 V 866.950 C 185.600 866.850 185.500 866.950 185.600 866.950 H 188.400 C 188.500 866.950 188.400 866.850 188.400 866.950 V 869.850 Z" stroke="rgb(0,0,255)" stroke-width="0.20"/>
  <path d="M 188.400 857.850 V 860.750 C 188.400 860.850 188.500 860.750 188.400 860.750 H 185.600 C 185.500 860.750 185.600 860.850 185.600 860.750 V 854.950 C 185.600 854.850 185.500 854.950 185.600 854.950 H 188.400 C 188.500 854.950 188.400 854.850 188.400 854.950 V 857.850 Z" stroke="rgb(0,0,255)" stroke-width="0.20"/>
  <path d="M 188.400 845.850 V 848.750 C 188.400 848.850 188.500 848.750 188.400 848.750 H 185.600 C 185.500 848.750 185.600 848.850 185.600 848.750 V 842.950 C 185.600 842.850 185.500 842.950 185.600 842.950 H 188.400 C 188.500 842.950 188.400 842.850 188.400 842.950 V 845.850 Z" stroke="rgb(0,0,255)" stroke-width="0.20"/>
  <path d="M 188.400 833.850 V 836.750 C 188.400 836.850 188.500 836.750 188.400 836.750 H 185.600 C 185.500 836.750 185.600 836.850 185.600 836.750 V 830.950 C 185.600 830.850 185.500 830.950 185.600 830.950 H 188.400 C 188.500 830.950 188.400 830.850 188.400 830.950 V 833.850 Z" stroke="rgb(0,0,255)" stroke-width="0.20"/>
  <text dominant-baseline="hanging" font-size="4px" style="font-family: sans-serif ; font-weight: normal; font-style: normal; fill: rgb(255,0,0)" text-anchor="middle" transform="matrix( 1.000 0.000 0.000 1.000 104.250 834.700 )">bottom</text><path d="M 17.000 886.700 H 23.150 C 23.250 886.700 23.150 886.600 23.150 886.700 V 889.600 C 23.150 889.655 23.195 889.700 23.250 889.700 H 29.250 C 29.305 889.700 29.350 889.655 29.350 889.600 V 886.700 C 29.350 886.600 29.250 886.700 29.350 886.700 H 35.150 C 35.250 886.700 35.150 886.600 35.150 886.700 V 889.600 C 35.150 889.655 35.195 889.700 35.250 889.700 H 41.250 C 41.305 889.700 41.350 889.655 41.350 889.600 V 886.700 C 41.350 886.600 41.250 886.700 41.350 886.700 H 47.150 C 47.250 886.700 47.150 886.600 47.150 886.700 V 889.600 C 47.150 889.655 47.195 889.700 47.250 889.700 H 53.250 C 53.305 889.700 53.350 889.655 53.350 889.600 V 886.700 C 53.350 886.600 53.250 886.700 53.350 886.700 H 59.150 C 59.250 886.700 59.150 886.600 59.150 886.700 V 889.600 C 59.150 889.655 59.195 889.700 59.250 889.700 H 65.250 C 65.305 889.700 65.350 889.655 65.350 889.600 V 886.700 C 65.350 886.600 65.250 886.700 65.350 886.700 H 71.150 C 71.250 886.700 71.150 886.600 71.150 886.700 V 889.600 C 71.150 889.655 71.195 889.700 71.250 889.700 H 77.250 C 77.305 889.700 77.350 889.655 77.350 889.600 V 886.700 C 77.350 886.600 77.250 886.700 77.350 886.700 H 83.150 C 83.250 886.700 83.150 886.600 83.150 886.700 V 889.600 C 83.150 889.655 83.195 889.700 83.250 889.700 H 89.250 C 89.305 889.700 89.350 889.655 89.350 889.600 V 886.700 C 89.350 886.600 89.250 886.700 89.350 886.700 H 95.150 C 95.250 886.700 95.150 886.600 95.150 886.700 V 889.600 C 95.150 889.655 95.195 889.700 95.250 889.700 H 101.250 C 101.305 889.700 101.350 889.655 101.350 889.600 V 886.700 C 101.350 886.600 101.250 886.700 101.350 886.700 H 107.150 C 107.250 886.700 107.150 886.600 107.150 886.700 V 889.600 C 107.150 889.655 107.195 889.700 107.250 889.700 H 113.250 C 113.305 889.700 113.350 889.655 113.350 889.600 V 886.700 C 113.350 886.600 113.250 886.700 113.350 886.700 H 119.150 C 119.250 886.700 119.150 886.600 119.150 886.700 V 889.600 C 119.150 889.655 119.195 889.700 119.250 889.700 H 125.250 C 125.305 889.700 125.350 889.655 125.350 889.600 V 886.700 C 125.350 886.600 125.250 886.700 125.350 886.700 H 131.150 C 131.250 886.700 131.150 886.600 131.150 886.700 V 889.600 C 131.150 889.655 131.195 889.700 131.250 889.700 H 137.250 C 137.305 889.700 137.350 889.655 137.350 889.600 V 886.700 C 137.350 886.600 137.250 886.700 137.350 886.700 H 143.150 C 143.250 886.700 143.150 886.600 143.150 886.700 V 889.600 C 143.150 889.655 143.195 889.700 143.250 889.700 H 149.250 C 149.305 889.700 149.350 889.655 149.350 889.600 V 886.700 C 149.350 886.600 149.250 886.700 149.350 886.700 H 155.150 C 155.250 886.700 155.150 886.600 155.150 886.700 V 889.600 C 155.150 889.655 155.195 889.700 155.250 889.700 H 161.250 C 161.305 889.700 161.350 889.655 161.350 889.600 V 886.700 C 161.350 886.600 161.250 886.700 161.350 886.700 H 167.150 C 167.250 886.700 167.150 886.600 167.150 886.700 V 889.600 C 167.150 889.655 167.195 889.700 167.250 889.700 H 173.250 C 173.305 889.700 173.350 889.655 173.350 889.600 V 886.700 C 173.350 886.600 173.250 886.700 173.350 886.700 H 179.150 C 179.250 886.700 179.150 886.600 179.150 886.700 V 889.600 C 179.150 889.655 179.195 889.700 179.250 889.700 H 185.250 C 185.305 889.700 185.350 889.655 185.350 889.600 V 886.700 C 185.350 886.600 185.250 886.700 185.350 886.700 H 191.500 C 191.555 886.700 191.600 886.655 191.600 886.600 V 881.700 C 191.600 881.600 191.500 881.700 191.600 881.700 H 194.500 C 194.555 881.700 194.600 881.655 194.600 881.600 V 875.600 C 194.600 875.545 194.555 875.500 194.500 875.500 H 191.600 C 191.500 875.500 191.600 875.600 191.600 875.500 V 869.700 C 191.600 869.600 191.500 869.700 191.600 869.700 H 194.500 C 194.555 869.700 194.600 869.655 194.600 869.600 V 863.600 C 194.600 863.545 194.555 863.500 194.500 863.500 H 191.600 C 191.500 863.500 191.600 863.600 191.600 863.500 V 857.700 C 191.600 857.600 191.500 857.700 191.600 857.700 H 194.500 C 194.555 857.700 194.600 857.655 194.600 857.600 V 851.600 C 194.600 851.545 194.555 851.500 194.500 851.500 H 191.600 C 191.500 851.500 191.600 851.600 191.600 851.500 V 845.700 C 191.600 845.600 191.500 845.700 191.600 845.700 H 194.500 C 194.555 845.700 194.600 845.655 194.600 845.600 V 839.600 C 194.600 839.545 194.555 839.500 194.500 839.500 H 191.600 C 191.500 839.500 191.600 839.600 191.600 839.500 V 833.700 C 191.600 833.600 191.500 833.700 191.600 833.700 H 194.500 C 194.555 833.700 194.600 833.655 194.600 833.600 V 827.600 C 194.600 827.545 194.555 827.500 194.500 827.500 H 191.600 C 191.500 827.500 191.600 827.600 191.600 827.500 V 821.700 C 191.600 821.600 191.500 821.700 191.600 821.700 H 194.500 C 194.555 821.700 194.600 821.655 194.600 821.600 V 815.600 C 194.600 815.545 194.555 815.500 194.500 815.500 H 191.600 C 191.500 815.500 191.600 815.600 191.600 815.500 V 809.700 C 191.600 809.600 191.500 809.700 191.600 809.700 H 194.500 C 194.555 809.700 194.600 809.655 194.600 809.600 V 803.600 C 194.600 803.545 194.555 803.500 194.500 803.500 H 191.600 C 191.500 803.500 191.600 803.600 191.600 803.500 V 797.700 C 191.600 797.600 191.500 797.700 191.600 797.700 H 194.500 C 194.555 797.700 194.600 797.655 194.600 797.600 V 791.600 C 194.600 791.545 194.555 791.500 194.500 791.500 H 191.600 C 191.500 791.500 191.600 791.600 191.600 791.500 V 786.600 C 191.600 786.545 191.555 786.500 191.500 786.500 H 185.350 C 185.250 786.500 185.350 786.600 185.350 786.500 V 783.600 C 185.350 783.545 185.305 783.500 185.250 783.500 H 179.250 C 179.195 783.500 179.150 783.545 179.150 783.600 V 786.500 C 179.150 786.600 179.250 786.500 179.150 786.500 H 173.350 C 173.250 786.500 173.350 786.600 173.350 786.500 V 783.600 C 173.350 783.545 173.305 783.500 173.250 783.500 H 167.250 C 167.195 783.500 167.150 783.545 167.150 783.600 V 786.500 C 167.150 786.600 167.250 786.500 167.150 786.500 H 161.350 C 161.250 786.500 161.350 786.600 161.350 786.500 V 783.600 C 161.350 783.545 161.305 783.500 161.250 783.500 H 155.250 C 155.195 783.500 155.150 783.545 155.150 783.600 V 786.500 C 155.150 786.600 155.250 786.500 155.150 786.500 H 149.350 C 149.250 786.500 149.350 786.600 149.350 786.500 V 783.600 C 149.350 783.545 149.305 783.500 149.250 783.500 H 143.250 C 143.195 783.500 143.150 783.545 143.150 783.600 V 786.500 C 143.150 786.600 143.250 786.500 143.150 786.500 H 137.350 C 137.250 786.500 137.350 786.600 137.350 786.500 V 783.600 C 137.350 783.545 137.305 783.500 137.250 783.500 H 131.250 C 131.195 783.500 131.150 783.545 131.150 783.600 V 786.500 C 131.150 786.600 131.250 786.500 131.150 786.500 H 125.350 C 125.250 786.500 125.350 786.600 125.350 786.500 V 783.600 C 125.350 783.545 125.305 783.500 125.250 783.500 H 119.250 C 119.195 783.500 119.150 783.545 119.150 783.600 V 786.500 C 119.150 786.600 119.250 786.500 119.150 786.500 H 113.350 C 113.250 786.500 113.350 786.600 113.350 786.500 V 783.600 C 113.350 783.545 113.305 783.500 113.250 783.500 H 107.250 C 107.195 783.500 107.150 783.545 107.150 783.600 V 786.500 C 107.150 786.600 107.250 786.500 107.150 786.500 H 101.350 C 101.250 786.500 101.350 786.600 101.350 786.500 V 783.600 C 101.350 783.545 101.305 783.500 101.250 783.500 H 95.250 C 95.195 783.500 95.150 783.545 95.150 783.600 V 786.500 C 95.150 786.600 95.250 786.500 95.150 786.500 H 89.350 C 89.250 786.500 89.350 786.600 89.350 786.500 V 783.600 C 89.350 783.545 89.305 783.500 89.250 783.500 H 83.250 C 83.195 783.500 83.150 783.545 83.150 783.600 V 786.500 C 83.150 786.600 83.250 786.500 83.150 786.500 H 77.350 C 77.250 786.500 77.350 786.600 77.350 786.500 V 783.600 C 77.350 783.545 77.305 783.500 77.250 783.500 H 71.250 C 71.195 783.500 71.150 783.545 71.150 783.600 V 786.500 C 71.150 786.600 71.250 786.500 71.150 786.500 H 65.350 C 65.250 786.500 65.350 786.600 65.350 786.500 V 783.600 C 65.350 783.545 65.305 783.500 65.250 783.500 H 59.250 C 59.195 783.500 59.150 783.545 59.150 783.600 V 786.500 C 59.150 786.600 59.250 786.500 59.150 786.500 H 53.350 C 53.250 786.500 53.350 786.600 53.350 786.500 V 783.600 C 53.350 783.545 53.305 783.500 53.250 783.500 H 47.250 C 47.195 783.500 47.150 783.545 47.150 783.600 V 786.500 C 47.150 786.600 47.250 786.500 47.150 786.500 H 41.350 C 41.250 786.500 41.350 786.600 41.350 786.500 V 783.600 C 41.350 783.545 41.305 783.500 41.250 783.500 H 35.250 C 35.195 783.500 35.150 783.545 35.150 783.600 V 786.500 C 35.150 786.600 35.250 786.500 35.150 786.500 H 29.350 C 29.250 786.500 29.350 786.600 29.350 786.500 V 783.600 C 29.350 783.545 29.305 783.500 29.250 783.500 H 23.250 C 23.195 783.500 23.150 783.545 23.150 783.600 V 786.500 C 23.150 786.600 23.250 786.500 23.150 786.500 H 17.000 C 16.945 786.500 16.900 786.545 16.900 786.600 V 791.500 C 16.900 791.600 17.000 791.500 16.900 791.500 H 14.000 C 13.945 791.500 13.900 791.545 13.900 791.600 V 797.600 C 13.900 797.655 13.945 797.700 14.000 797.700 H 16.900 C 17.000 797.700 16.900 797.600 16.900 797.700 V 803.500 C 16.900 803.600 17.000 803.500 16.900 803.500 H 14.000 C 13.945 803.500 13.900 803.545 13.900 803.600 V 809.600 C 13.900 809.655 13.945 809.700 14.000 809.700 H 16.900 C 17.000 809.700 16.900 809.600 16.900 809.700 V 815.500 C 16.900 815.600 17.000 815.500 16.900 815.500 H 14.000 C 13.945 815.500 13.900 815.545 13.900 815.600 V 821.600 C 13.900 821.655 13.945 821.700 14.000 821.700 H 16.900 C 17.000 821.700 16.900 821.600 16.900 821.700 V 827.500 C 16.900 827.600 17.000 827.500 16.900 827.500 H 14.000 C 13.945 827.500 13.900 827.545 13.900 827.600 V 833.600 C 13.900 833.655 13.945 833.700 14.000 833.700 H 16.900 C 17.000 833.700 16.900 833.600 16.900 833.700 V 839.500 C 16.900 839.600 17.000 839.500 16.900 839.500 H 14.000 C 13.945 839.500 13.900 839.545 13.900 839.600 V 845.600 C 13.900 845.655 13.945 845.700 14.000 845.700 H 16.900 C 17.000 845.700 16.900 845.600 16.900 845.700 V 851.500 C 16.900 851.600 17.000 851.500 16.900 851.500 H 14.000 C 13.945 851.500 13.900 851.545 13.900 851.600 V 857.600 C 13.900 857.655 13.945 857.700 14.000 857.700 H 16.900 C 17.000 857.700 16.900 857.600 16.900 857.700 V 863.500 C 16.900 863.600 17.000 863.500 16.900 863.500 H 14.000 C 13.945 863.500 13.900 863.545 13.900 863.600 V 869.600 C 13.900 869.655 13.945 869.700 14.000 869.700 H 16.900 C 17.000 869.700 16.900 869.600 16.900 869.700 V 875.500 C 16.900 875.600 17.000 875.500 16.900 875.500 H 14.000 C 13.945 875.500 13.900 875.545 13.900 875.600 V 881.600 C 13.900 881.655 13.945 881.700 14.000 881.700 H 16.900 C 17.000 881.700 16.900 881.600 16.900 881.700 V 886.600 C 16.900 886.655 16.945 886.700 17.000 886.700" stroke="rgb(0,0,0)" stroke-width="0.20"/>
</g>
<g id="p-6" style="fill:none;stroke-linecap:round;stroke-linejoin:round;">
  <path d="M 37.000 758.800 H 31.350 C 31.250 758.800 31.350 758.900 31.350 758.800 V 751.000 C 31.350 750.900 31.250 751.000 31.350 751.000 H 42.650 C 42.750 751.000 42.650 750.900 42.650 751.000 V 758.800 C 42.650 758.900 42.750 758.800 42.650 758.800 H 37.000 Z" stroke="rgb(0,0,255)" stroke-width="0.20"/>
  <path d="M 29.980 754.900 C 29.980 755.168 29.903 755.431 29.758 755.657 C 29.613 755.883 29.406 756.062 29.162 756.173 C 28.917 756.285 28.646 756.324 28.381 756.286 C 28.115 756.248 27.866 756.134 27.663 755.958 C 27.460 755.782 27.312 755.552 27.237 755.294 C 27.161 755.037 27.161 754.763 27.237 754.506 C 27.312 754.248 27.460 754.018 27.663 753.842 C 27.866 753.666 28.115 753.552 28.381 753.514 C 28.646 753.476 28.917 753.515 29.162 753.627 C 29.406 753.738 29.613 753.917 29.758 754.143 C 29.903 754.369 29.980 754.632 29.980 754.900 Z" stroke="rgb(0,0,255)" stroke-width="0.20"/>
  <path d="M 46.820 754.900 C 46.820 755.168 46.743 755.431 46.598 755.657 C 46.453 755.883 46.246 756.062 46.002 756.173 C 45.757 756.285 45.486 756.324 45.221 756.286 C 44.955 756.248 44.706 756.134 44.503 755.958 C 44.300 755.782 44.152 755.552 44.077 755.294 C 44.001 755.037 44.001 754.763 44.077 754.506 C 44.152 754.248 44.300 754.018 44.503 753.842 C 44.706 753.666 44.955 753.552 45.221 753.514 C 45.486 753.476 45.757 753.515 46.002 753.627 C 46.246 753.738 46.453 753.917 46.598 754.143 C 46.743 754.369 46.820 754.632 46.820 754.900 Z" stroke="rgb(0,0,255)" stroke-width="0.20"/>
  <path d="M 26.250 772.900 H 23.350 C 23.250 772.900 23.350 773.000 23.350 772.900 V 770.100 C 23.350 770.000 23.250 770.100 23.350 770.100 H 29.150 C 29.250 770.100 29.150 770.000 29.150 770.100 V 772.900 C 29.150 773.000 29.250 772.900 29.150 772.900 H 26.250 Z" stroke="rgb(0,0,255)" stroke-width="0.20"/>
  <path d="M 38.250 772.900 H 35.350 C 35.250 772.900 35.350 773.000 35.350 772.900 V 770.100 C 35.350 770.000 35.250 770.100 35.350 770.100 H 41.150 C 41.250 770.100 41.150 770.000 41.150 770.100 V 772.900 C 41.150 773.000 41.250 772.900 41.150 772.900 H 38.250 Z" stroke="rgb(0,0,255)" stroke-width="0.20"/>
  <path d="M 50.250 772.900 H 47.350 C 47.250 772.900 47.350 773.000 47.350 772.900 V 770.100 C 47.350 770.000 47.250 770.100 47.350 770.100 H 53.150 C 53.250 770.100 53.150 770.000 53.150 770.100 V 772.900 C 53.150 773.000 53.250 772.900 53.150 772.900 H 50.250 Z" stroke="rgb(0,0,255)" stroke-width="0.20"/>
  <path d="M 62.250 772.900 H 59.350 C 59.250 772.900 59.350 773.000 59.350 772.900 V 770.100 C 59.350 770.000 59.250 770.100 59.350 770.100 H 65.150 C 65.250 770.100 65.150 770.000 65.150 770.100 V 772.900 C 65.150 773.000 65.250 772.900 65.150 772.900 H 62.250 Z" stroke="rgb(0,0,255)" stroke-width="0.20"/>
  <path d="M 74.250 772.900 H 71.350 C 71.250 772.900 71.350 773.000 71.350 772.900 V 770.100 C 71.350 770.000 71.250 770.100 71.350 770.100 H 77.150 C 77.250 770.100 77.150 770.000 77.150 770.100 V 772.900 C 77.150 773.000 77.250 772.900 77.150 772.900 H 74.250 Z" stroke="rgb(0,0,255)" stroke-width="0.20"/>
  <path d="M 86.250 772.900 H 83.350 C 83.250 772.900 83.350 773.000 83.350 772.900 V 770.100 C 83.350 770.000 83.250 770.100 83.350 770.100 H 89.150 C 89.250 770.100 89.150 770.000 89.150 770.100 V 772.900 C 89.150 773.000 89.250 772.900 89.150 772.900 H 86.250 Z" stroke="rgb(0,0,255)" stroke-width="0.20"/>
  <path d="M 98.250 772.900 H 95.350 C 95.250 772.900 95.350 773.000 95.350 772.900 V 770.100 C 95.350 770.000 95.250 770.100 95.350 770.100 H 101.150 C 101.250 770.100 101.150 770.000 101.150 770.100 V 772.900 C 101.150 773.000 101.250 772.900 101.150 772.900 H 98.250 Z" stroke="rgb(0,0,255)" stroke-width="0.20"/>
  <path d="M 110.250 772.900 H 107.350 C 107.250 772.900 107.350 773.000 107.350 772.900 V 770.100 C 107.350 770.000 107.250 770.100 107.350 770.100 H 113.150 C 113.250 770.100 113.150 770.000 113.150 770.100 V 772.900 C 113.150 773.000 113.250 772.900 113.150 772.900 H 110.250 Z" stroke="rgb(0,0,255)" stroke-width="0.20"/>
  <path d="M 122.250 772.900 H 119.350 C 119.250 772.900 119.350 773.000 119.350 772.900 V 770.100 C 119.350 770.000 119.250 770.100 119.350 770.100 H 125.150 C 125.250 770.100 125.150 770.000 125.150 770.100 V 772.900 C 125.150 773.000 125.250 772.900 125.150 772.900 H 122.250 Z" stroke="rgb(0,0,255)" stroke-width="0.20"/>
  <path d="M 134.250 772.900 H 131.350 C 131.250 772.900 131.350 773.000 131.350 772.900 V 770.100 C 131.350 770.000 131.250 770.100 131.350 770.100 H 137.150 C 137.250 770.100 137.150 770.000 137.150 770.100 V 772.900 C 137.150 773.000 137.250 772.900 137.150 772.900 H 134.250 Z" stroke="rgb(0,0,255)" stroke-width="0.20"/>
  <path d="M 146.250 772.900 H 143.350 C 143.250 772.900 143.350 773.000 143.350 772.900 V 770.100 C 143.350 770.000 143.250 770.100 143.350 770.100 H 149.150 C 149.250 770.100 149.150 770.000 149.150 770.100 V 772.900 C 149.150 773.000 149.250 772.900 149.150 772.900 H 146.250 Z" stroke="rgb(0,0,255)" stroke-width="0.20"/>
  <path d="M 158.250 772.900 H 155.350 C 155.250 772.900 155.350 773.000 155.350 772.900 V 770.100 C 155.350 770.000 155.250 770.100 155.350 770.100 H 161.150 C 161.250 770.100 161.150 770.000 161.150 770.100 V 772.900 C 161.150 773.000 161.250 772.900 161.150 772.900 H 158.250 Z" stroke="rgb(0,0,255)" stroke-width="0.20"/>
  <path d="M 170.250 772.900 H 167.350 C 167.250 772.900 167.350 773.000 167.350 772.900 V 770.100 C 167.350 770.000 167.250 770.100 167.350 770.100 H 173.150 C 173.250 770.100 173.150 770.000 173.150 770.100 V 772.900 C 173.150 773.000 173.250 772.900 173.150 772.900 H 170.250 Z" stroke="rgb(0,0,255)" stroke-width="0.20"/>
  <path d="M 182.250 772.900 H 179.350 C 179.250 772.900 179.350 773.000 179.350 772.900 V 770.100 C 179.350 770.000 179.250 770.100 179.350 770.100 H 185.150 C 185.250 770.100 185.150 770.000 185.150 770.100 V 772.900 C 185.150 773.000 185.250 772.900 185.150 772.900 H 182.250 Z" stroke="rgb(0,0,255)" stroke-width="0.20"/>
  <text dominant-baseline="hanging" font-size="4px" style="font-family: sans-serif ; font-weight: normal; font-style: normal; fill: rgb(255,0,0)" text-anchor="middle" transform="matrix( 1.000 0.000 0.000 1.000 104.250 725.750 )">back</text><path d="M 17.000 782.000 H 29.000 C 30.071 782.000 31.123 781.718 32.050 781.183 C 32.977 780.647 33.747 779.877 34.283 778.950 C 34.801 778.053 35.545 777.308 36.442 776.790 C 37.339 776.273 38.357 776.000 39.392 776.000 H 169.108 C 170.143 776.000 171.161 776.273 172.058 776.790 C 172.955 777.308 173.699 778.053 174.217 778.950 C 174.753 779.877 175.523 780.647 176.450 781.183 C 177.377 781.718 178.429 782.000 179.500 782.000 H 191.500 H 194.500 C 194.555 782.000 194.600 781.955 194.600 781.900 V 769.900 V 766.650 C 194.600 766.595 194.555 766.550 194.500 766.550 H 191.600 C 191.500 766.550 191.600 766.650 191.600 766.550 V 760.750 C 191.600 760.650 191.500 760.750 191.600 760.750 H 194.500 C 194.555 760.750 194.600 760.705 194.600 760.650 V 754.650 C 194.600 754.595 194.555 754.550 194.500 754.550 H 191.600 C 191.500 754.550 191.600 754.650 191.600 754.550 V 748.750 C 191.600 748.650 191.500 748.750 191.600 748.750 H 194.500 C 194.555 748.750 194.600 748.705 194.600 748.650 V 742.650 C 194.600 742.595 194.555 742.550 194.500 742.550 H 191.600 C 191.500 742.550 191.600 742.650 191.600 742.550 V 736.750 C 191.600 736.650 191.500 736.750 191.600 736.750 H 194.500 C 194.555 736.750 194.600 736.705 194.600 736.650 V 730.650 C 194.600 730.595 194.555 730.550 194.500 730.550 H 191.600 C 191.500 730.550 191.600 730.650 191.600 730.550 V 724.750 C 191.600 724.650 191.500 724.750 191.600 724.750 H 194.500 C 194.555 724.750 194.600 724.705 194.600 724.650 V 718.650 C 194.600 718.595 194.555 718.550 194.500 718.550 H 191.600 C 191.500 718.550 191.600 718.650 191.600 718.550 V 712.750 C 191.600 712.650 191.500 712.750 191.600 712.750 H 194.500 C 194.555 712.750 194.600 712.705 194.600 712.650 V 706.650 C 194.600 706.595 194.555 706.550 194.500 706.550 H 191.600 C 191.500 706.550 191.600 706.650 191.600 706.550 V 700.750 C 191.600 700.650 191.500 700.750 191.600 700.750 H 194.500 C 194.555 700.750 194.600 700.705 194.600 700.650 V 694.650 C 194.600 694.595 194.555 694.550 194.500 694.550 H 191.600 C 191.500 694.550 191.600 694.650 191.600 694.550 V 688.750 C 191.600 688.650 191.500 688.750 191.600 688.750 H 194.500 C 194.555 688.750 194.600 688.705 194.600 688.650 V 682.650 C 194.600 682.595 194.555 682.550 194.500 682.550 H 191.600 C 191.500 682.550 191.600 682.650 191.600 682.550 V 676.750 C 191.600 676.650 191.500 676.750 191.600 676.750 H 194.500 C 194.555 676.750 194.600 676.705 194.600 676.650 V 673.400 C 194.600 673.345 194.555 673.300 194.500 673.300 H 191.500 H 17.000 H 14.000 C 13.945 673.300 13.900 673.345 13.900 673.400 V 676.650 C 13.900 676.705 13.945 676.750 14.000 676.750 H 16.900 C 17.000 676.750 16.900 676.650 16.900 676.750 V 682.550 C 16.900 682.650 17.000 682.550 16.900 682.550 H 14.000 C 13.945 682.550 13.900 682.595 13.900 682.650 V 688.650 C 13.900 688.705 13.945 688.750 14.000 688.750 H 16.900 C 17.000 688.750 16.900 688.650 16.900 688.750 V 694.550 C 16.900 694.650 17.000 694.550 16.900 694.550 H 14.000 C 13.945 694.550 13.900 694.595 13.900 694.650 V 700.650 C 13.900 700.705 13.945 700.750 14.000 700.750 H 16.900 C 17.000 700.750 16.900 700.650 16.900 700.750 V 706.550 C 16.900 706.650 17.000 706.550 16.900 706.550 H 14.000 C 13.945 706.550 13.900 706.595 13.900 706.650 V 712.650 C 13.900 712.705 13.945 712.750 14.000 712.750 H 16.900 C 17.000 712.750 16.900 712.650 16.900 712.750 V 718.550 C 16.900 718.650 17.000 718.550 16.900 718.550 H 14.000 C 13.945 718.550 13.900 718.595 13.900 718.650 V 724.650 C 13.900 724.705 13.945 724.750 14.000 724.750 H 16.900 C 17.000 724.750 16.900 724.650 16.900 724.750 V 730.550 C 16.900 730.650 17.000 730.550 16.900 730.550 H 14.000 C 13.945 730.550 13.900 730.595 13.900 730.650 V 736.650 C 13.900 736.705 13.945 736.750 14.000 736.750 H 16.900 C 17.000 736.750 16.900 736.650 16.900 736.750 V 742.550 C 16.900 742.650 17.000 742.550 16.900 742.550 H 14.000 C 13.945 742.550 13.900 742.595 13.900 742.650 V 748.650 C 13.900 748.705 13.945 748.750 14.000 748.750 H 16.900 C 17.000 748.750 16.900 748.650 16.900 748.750 V 754.550 C 16.900 754.650 17.000 754.550 16.900 754.550 H 14.000 C 13.945 754.550 13.900 754.595 13.900 754.650 V 760.650 C 13.900 760.705 13.945 760.750 14.000 760.750 H 16.900 C 17.000 760.750 16.900 760.650 16.900 760.750 V 766.550 C 16.900 766.650 17.000 766.550 16.900 766.550 H 14.000 C 13.945 766.550 13.900 766.595 13.900 766.650 V 769.900 V 781.900 C 13.900 781.955 13.945 782.000 14.000 782.000 H 17.000" stroke="rgb(0,0,0)" stroke-width="0.20"/>
</g>
<g id="p-7" style="fill:none;stroke-linecap:round;stroke-linejoin:round;">
  <path d="M 104.000 647.600 H 29.100 C 29.000 647.600 29.100 647.700 29.100 647.600 V 572.800 C 29.100 572.700 29.000 572.800 29.100 572.800 H 178.900 C 179.000 572.800 178.900 572.700 178.900 572.800 V 647.600 C 178.900 647.700 179.000 647.600 178.900 647.600 H 104.000 Z" stroke="rgb(0,0,255)" stroke-width="0.20"/>
  <path d="M 26.250 662.700 H 23.350 C 23.250 662.700 23.350 662.800 23.350 662.700 V 659.900 C 23.350 659.800 23.250 659.900 23.350 659.900 H 29.150 C 29.250 659.900 29.150 659.800 29.150 659.900 V 662.700 C 29.150 662.800 29.250 662.700 29.150 662.700 H 26.250 Z" stroke="rgb(0,0,255)" stroke-width="0.20"/>
  <path d="M 38.250 662.700 H 35.350 C 35.250 662.700 35.350 662.800 35.350 662.700 V 659.900 C 35.350 659.800 35.250 659.900 35.350 659.900 H 41.150 C 41.250 659.900 41.150 659.800 41.150 659.900 V 662.700 C 41.150 662.800 41.250 662.700 41.150 662.700 H 38.250 Z" stroke="rgb(0,0,255)" stroke-width="0.20"/>
  <path d="M 50.250 662.700 H 47.350 C 47.250 662.700 47.350 662.800 47.350 662.700 V 659.900 C 47.350 659.800 47.250 659.900 47.350 659.900 H 53.150 C 53.250 659.900 53.150 659.800 53.150 659.900 V 662.700 C 53.150 662.800 53.250 662.700 53.150 662.700 H 50.250 Z" stroke="rgb(0,0,255)" stroke-width="0.20"/>
  <path d="M 62.250 662.700 H 59.350 C 59.250 662.700 59.350 662.800 59.350 662.700 V 659.900 C 59.350 659.800 59.250 659.900 59.350 659.900 H 65.150 C 65.250 659.900 65.150 659.800 65.150 659.900 V 662.700 C 65.150 662.800 65.250 662.700 65.150 662.700 H 62.250 Z" stroke="rgb(0,0,255)" stroke-width="0.20"/>
  <path d="M 74.250 662.700 H 71.350 C 71.250 662.700 71.350 662.800 71.350 662.700 V 659.900 C 71.350 659.800 71.250 659.900 71.350 659.900 H 77.150 C 77.250 659.900 77.150 659.800 77.150 659.900 V 662.700 C 77.150 662.800 77.250 662.700 77.150 662.700 H 74.250 Z" stroke="rgb(0,0,255)" stroke-width="0.20"/>
  <path d="M 86.250 662.700 H 83.350 C 83.250 662.700 83.350 662.800 83.350 662.700 V 659.900 C 83.350 659.800 83.250 659.900 83.350 659.900 H 89.150 C 89.250 659.900 89.150 659.800 89.150 659.900 V 662.700 C 89.150 662.800 89.250 662.700 89.150 662.700 H 86.250 Z" stroke="rgb(0,0,255)" stroke-width="0.20"/>
  <path d="M 98.250 662.700 H 95.350 C 95.250 662.700 95.350 662.800 95.350 662.700 V 659.900 C 95.350 659.800 95.250 659.900 95.350 659.900 H 101.150 C 101.250 659.900 101.150 659.800 101.150 659.900 V 662.700 C 101.150 662.800 101.250 662.700 101.150 662.700 H 98.250 Z" stroke="rgb(0,0,255)" stroke-width="0.20"/>
  <path d="M 110.250 662.700 H 107.350 C 107.250 662.700 107.350 662.800 107.350 662.700 V 659.900 C 107.350 659.800 107.250 659.900 107.350 659.900 H 113.150 C 113.250 659.900 113.150 659.800 113.150 659.900 V 662.700 C 113.150 662.800 113.250 662.700 113.150 662.700 H 110.250 Z" stroke="rgb(0,0,255)" stroke-width="0.20"/>
  <path d="M 122.250 662.700 H 119.350 C 119.250 662.700 119.350 662.800 119.350 662.700 V 659.900 C 119.350 659.800 119.250 659.900 119.350 659.900 H 125.150 C 125.250 659.900 125.150 659.800 125.150 659.900 V 662.700 C 125.150 662.800 125.250 662.700 125.150 662.700 H 122.250 Z" stroke="rgb(0,0,255)" stroke-width="0.20"/>
  <path d="M 134.250 662.700 H 131.350 C 131.250 662.700 131.350 662.800 131.350 662.700 V 659.900 C 131.350 659.800 131.250 659.900 131.350 659.900 H 137.150 C 137.250 659.900 137.150 659.800 137.150 659.900 V 662.700 C 137.150 662.800 137.250 662.700 137.150 662.700 H 134.250 Z" stroke="rgb(0,0,255)" stroke-width="0.20"/>
  <path d="M 146.250 662.700 H 143.350 C 143.250 662.700 143.350 662.800 143.350 662.700 V 659.900 C 143.350 659.800 143.250 659.900 143.350 659.900 H 149.150 C 149.250 659.900 149.150 659.800 149.150 659.900 V 662.700 C 149.150 662.800 149.250 662.700 149.150 662.700 H 146.250 Z" stroke="rgb(0,0,255)" stroke-width="0.20"/>
  <path d="M 158.250 662.700 H 155.350 C 155.250 662.700 155.350 662.800 155.350 662.700 V 659.900 C 155.350 659.800 155.250 659.900 155.350 659.900 H 161.150 C 161.250 659.900 161.150 659.800 161.150 659.900 V 662.700 C 161.150 662.800 161.250 662.700 161.150 662.700 H 158.250 Z" stroke="rgb(0,0,255)" stroke-width="0.20"/>
  <path d="M 170.250 662.700 H 167.350 C 167.250 662.700 167.350 662.800 167.350 662.700 V 659.900 C 167.350 659.800 167.250 659.900 167.350 659.900 H 173.150 C 173.250 659.900 173.150 659.800 173.150 659.900 V 662.700 C 173.150 662.800 173.250 662.700 173.150 662.700 H 170.250 Z" stroke="rgb(0,0,255)" stroke-width="0.20"/>
  <path d="M 182.250 662.700 H 179.350 C 179.250 662.700 179.350 662.800 179.350 662.700 V 659.900 C 179.350 659.800 179.250 659.900 179.350 659.900 H 185.150 C 185.250 659.900 185.150 659.800 185.150 659.900 V 662.700 C 185.150 662.800 185.250 662.700 185.150 662.700 H 182.250 Z" stroke="rgb(0,0,255)" stroke-width="0.20"/>
  <text dominant-baseline="hanging" font-size="4px" style="font-family: sans-serif ; font-weight: normal; font-style: normal; fill: rgb(255,0,0)" text-anchor="middle" transform="matrix( 1.000 0.000 0.000 1.000 104.250 614.050 )">front</text><path d="M 17.000 671.800 H 29.000 C 30.071 671.800 31.123 671.518 32.050 670.983 C 32.977 670.447 33.747 669.677 34.283 668.750 C 34.801 667.853 35.545 667.108 36.442 666.590 C 37.339 666.073 38.357 665.800 39.392 665.800 H 169.108 C 170.143 665.800 171.161 666.073 172.058 666.590 C 172.955 667.108 173.699 667.853 174.217 668.750 C 174.753 669.677 175.523 670.447 176.450 670.983 C 177.377 671.518 178.429 671.800 179.500 671.800 H 191.500 H 194.500 C 194.555 671.800 194.600 671.755 194.600 671.700 V 659.700 V 654.950 C 194.600 654.895 194.555 654.850 194.500 654.850 H 191.600 C 191.500 654.850 191.600 654.950 191.600 654.850 V 649.050 C 191.600 648.950 191.500 649.050 191.600 649.050 H 194.500 C 194.555 649.050 194.600 649.005 194.600 648.950 V 642.950 C 194.600 642.895 194.555 642.850 194.500 642.850 H 191.600 C 191.500 642.850 191.600 642.950 191.600 642.850 V 637.050 C 191.600 636.950 191.500 637.050 191.600 637.050 H 194.500 C 194.555 637.050 194.600 637.005 194.600 636.950 V 630.950 C 194.600 630.895 194.555 630.850 194.500 630.850 H 191.600 C 191.500 630.850 191.600 630.950 191.600 630.850 V 625.050 C 191.600 624.950 191.500 625.050 191.600 625.050 H 194.500 C 194.555 625.050 194.600 625.005 194.600 624.950 V 618.950 C 194.600 618.895 194.555 618.850 194.500 618.850 H 191.600 C 191.500 618.850 191.600 618.950 191.600 618.850 V 613.050 C 191.600 612.950 191.500 613.050 191.600 613.050 H 194.500 C 194.555 613.050 194.600 613.005 194.600 612.950 V 606.950 C 194.600 606.895 194.555 606.850 194.500 606.850 H 191.600 C 191.500 606.850 191.600 606.950 191.600 606.850 V 601.050 C 191.600 600.950 191.500 601.050 191.600 601.050 H 194.500 C 194.555 601.050 194.600 601.005 194.600 600.950 V 594.950 C 194.600 594.895 194.555 594.850 194.500 594.850 H 191.600 C 191.500 594.850 191.600 594.950 191.600 594.850 V 589.050 C 191.600 588.950 191.500 589.050 191.600 589.050 H 194.500 C 194.555 589.050 194.600 589.005 194.600 588.950 V 582.950 C 194.600 582.895 194.555 582.850 194.500 582.850 H 191.600 C 191.500 582.850 191.600 582.950 191.600 582.850 V 577.050 C 191.600 576.950 191.500 577.050 191.600 577.050 H 194.500 C 194.555 577.050 194.600 577.005 194.600 576.950 V 570.950 C 194.600 570.895 194.555 570.850 194.500 570.850 H 191.600 C 191.500 570.850 191.600 570.950 191.600 570.850 V 565.050 C 191.600 564.950 191.500 565.050 191.600 565.050 H 194.500 C 194.555 565.050 194.600 565.005 194.600 564.950 V 560.200 C 194.600 560.145 194.555 560.100 194.500 560.100 H 191.500 H 17.000 H 14.000 C 13.945 560.100 13.900 560.145 13.900 560.200 V 564.950 C 13.900 565.005 13.945 565.050 14.000 565.050 H 16.900 C 17.000 565.050 16.900 564.950 16.900 565.050 V 570.850 C 16.900 570.950 17.000 570.850 16.900 570.850 H 14.000 C 13.945 570.850 13.900 570.895 13.900 570.950 V 576.950 C 13.900 577.005 13.945 577.050 14.000 577.050 H 16.900 C 17.000 577.050 16.900 576.950 16.900 577.050 V 582.850 C 16.900 582.950 17.000 582.850 16.900 582.850 H 14.000 C 13.945 582.850 13.900 582.895 13.900 582.950 V 588.950 C 13.900 589.005 13.945 589.050 14.000 589.050 H 16.900 C 17.000 589.050 16.900 588.950 16.900 589.050 V 594.850 C 16.900 594.950 17.000 594.850 16.900 594.850 H 14.000 C 13.945 594.850 13.900 594.895 13.900 594.950 V 600.950 C 13.900 601.005 13.945 601.050 14.000 601.050 H 16.900 C 17.000 601.050 16.900 600.950 16.900 601.050 V 606.850 C 16.900 606.950 17.000 606.850 16.900 606.850 H 14.000 C 13.945 606.850 13.900 606.895 13.900 606.950 V 612.950 C 13.900 613.005 13.945 613.050 14.000 613.050 H 16.900 C 17.000 613.050 16.900 612.950 16.900 613.050 V 618.850 C 16.900 618.950 17.000 618.850 16.900 618.850 H 14.000 C 13.945 618.850 13.900 618.895 13.900 618.950 V 624.950 C 13.900 625.005 13.945 625.050 14.000 625.050 H 16.900 C 17.000 625.050 16.900 624.950 16.900 625.050 V 630.850 C 16.900 630.950 17.000 630.850 16.900 630.850 H 14.000 C 13.945 630.850 13.900 630.895 13.900 630.950 V 636.950 C 13.900 637.005 13.945 637.050 14.000 637.050 H 16.900 C 17.000 637.050 16.900 636.950 16.900 637.050 V 642.850 C 16.900 642.950 17.000 642.850 16.900 642.850 H 14.000 C 13.945 642.850 13.900 642.895 13.900 642.950 V 648.950 C 13.900 649.005 13.945 649.050 14.000 649.050 H 16.900 C 17.000 649.050 16.900 648.950 16.900 649.050 V 654.850 C 16.900 654.950 17.000 654.850 16.900 654.850 H 14.000 C 13.945 654.850 13.900 654.895 13.900 654.950 V 659.700 V 671.700 C 13.900 671.755 13.945 671.800 14.000 671.800 H 17.000" stroke="rgb(0,0,0)" stroke-width="0.20"/>
</g>
<g id="p-8" style="fill:none;stroke-linecap:round;stroke-linejoin:round;">
  <text dominant-baseline="hanging" font-size="4px" style="font-family: sans-serif ; font-weight: normal; font-style: normal; fill: rgb(255,0,0)" text-anchor="middle" transform="matrix( 1.000 0.000 0.000 1.000 95.250 540.600 )">elec. comp.</text><path d="M 14.000 558.600 H 188.500 C 188.555 558.600 188.600 558.555 188.600 558.500 V 554.000 V 550.850 C 188.600 550.750 188.500 550.850 188.600 550.850 H 191.500 C 191.555 550.850 191.600 550.805 191.600 550.750 V 544.750 C 191.600 544.695 191.555 544.650 191.500 544.650 H 188.600 C 188.500 544.650 188.600 544.750 188.600 544.650 V 538.850 C 188.600 538.750 188.500 538.850 188.600 538.850 H 191.500 C 191.555 538.850 191.600 538.805 191.600 538.750 V 532.750 C 191.600 532.695 191.555 532.650 191.500 532.650 H 188.600 C 188.500 532.650 188.600 532.750 188.600 532.650 V 529.500 C 188.600 529.445 188.555 529.400 188.500 529.400 H 14.000 C 13.945 529.400 13.900 529.445 13.900 529.500 V 532.650 C 13.900 532.750 14.000 532.650 13.900 532.650 H 11.000 C 10.945 532.650 10.900 532.695 10.900 532.750 V 538.750 C 10.900 538.805 10.945 538.850 11.000 538.850 H 13.900 C 14.000 538.850 13.900 538.750 13.900 538.850 V 544.650 C 13.900 544.750 14.000 544.650 13.900 544.650 H 11.000 C 10.945 544.650 10.900 544.695 10.900 544.750 V 550.750 C 10.900 550.805 10.945 550.850 11.000 550.850 H 13.900 C 14.000 550.850 13.900 550.750 13.900 550.850 V 554.000 V 558.500 C 13.900 558.555 13.945 558.600 14.000 558.600" stroke="rgb(0,0,0)" stroke-width="0.20"/>
</g>
<g id="p-9" style="fill:none;stroke-linecap:round;stroke-linejoin:round;">
  <text dominant-baseline="hanging" font-size="4px" style="font-family: sans-serif ; font-weight: normal; font-style: normal; fill: rgb(255,0,0)" text-anchor="middle" transform="matrix( 1.000 0.000 0.000 1.000 17.000 521.400 )">guide</text><path d="M 14.000 524.900 H 20.000 C 20.055 524.900 20.100 524.855 20.100 524.800 V 521.800 C 20.100 521.745 20.055 521.700 20.000 521.700 H 14.000 C 13.945 521.700 13.900 521.745 13.900 521.800 V 524.800 C 13.900 524.855 13.945 524.900 14.000 524.900" stroke="rgb(0,0,0)" stroke-width="0.20"/>
</g>
<g id="p-10" style="fill:none;stroke-linecap:round;stroke-linejoin:round;">
  <text dominant-baseline="hanging" font-size="4px" style="font-family: sans-serif ; font-weight: normal; font-style: normal; fill: rgb(255,0,0)" text-anchor="middle" transform="matrix( 1.000 0.000 0.000 1.000 17.000 516.700 )">guide</text><path d="M 14.000 520.200 H 20.000 C 20.055 520.200 20.100 520.155 20.100 520.100 V 517.100 C 20.100 517.045 20.055 517.000 20.000 517.000 H 14.000 C 13.945 517.000 13.900 517.045 13.900 517.100 V 520.100 C 13.900 520.155 13.945 520.200 14.000 520.200" stroke="rgb(0,0,0)" stroke-width="0.20"/>
</g>
<g id="p-11" style="fill:none;stroke-linecap:round;stroke-linejoin:round;">
  <text dominant-baseline="hanging" font-size="4px" style="font-family: sans-serif ; font-weight: normal; font-style: normal; fill: rgb(255,0,0)" text-anchor="middle" transform="matrix( 1.000 0.000 0.000 1.000 105.750 462.000 )">lid top</text><path d="M 17.000 515.500 H 191.500 H 194.500 C 194.555 515.500 194.600 515.455 194.600 515.400 V 512.400 V 427.400 C 194.600 427.345 194.555 427.300 194.500 427.300 H 191.600 C 191.500 427.300 191.600 427.400 191.600 427.300 V 422.900 V 420.625 C 191.600 420.525 191.500 420.625 191.600 420.625 H 194.500 C 194.555 420.625 194.600 420.580 194.600 420.525 V 417.775 C 194.600 417.720 194.555 417.675 194.500 417.675 H 191.600 C 191.500 417.675 191.600 417.775 191.600 417.675 V 412.400 C 191.600 412.345 191.555 412.300 191.500 412.300 H 17.000 C 16.945 412.300 16.900 412.345 16.900 412.400 V 417.675 C 16.900 417.775 17.000 417.675 16.900 417.675 H 14.000 C 13.945 417.675 13.900 417.720 13.900 417.775 V 420.525 C 13.900 420.580 13.945 420.625 14.000 420.625 H 16.900 C 17.000 420.625 16.900 420.525 16.900 420.625 V 422.900 V 427.300 C 16.900 427.400 17.000 427.300 16.900 427.300 H 14.000 C 13.945 427.300 13.900 427.345 13.900 427.400 V 512.400 V 515.400 C 13.900 515.455 13.945 515.500 14.000 515.500 H 17.000" stroke="rgb(0,0,0)" stroke-width="0.20"/>
</g>
<g id="p-12" style="fill:none;stroke-linecap:round;stroke-linejoin:round;">
  <text dominant-baseline="hanging" font-size="4px" style="font-family: sans-serif ; font-weight: normal; font-style: normal; fill: rgb(255,0,0)" text-anchor="middle" transform="matrix( 1.000 0.000 0.000 1.000 101.000 359.300 )">Diffuser</text><path d="M 14.000 410.800 H 16.500 C 16.555 410.800 16.600 410.755 16.600 410.700 V 407.300 C 16.600 407.200 16.500 407.300 16.600 407.300 H 19.900 C 20.000 407.300 19.900 407.200 19.900 407.300 V 410.700 C 19.900 410.755 19.945 410.800 20.000 410.800 H 181.500 C 181.555 410.800 181.600 410.755 181.600 410.700 V 407.300 C 181.600 407.200 181.500 407.300 181.600 407.300 H 184.900 C 185.000 407.300 184.900 407.200 184.900 407.300 V 410.700 C 184.900 410.755 184.945 410.800 185.000 410.800 H 187.500 C 187.555 410.800 187.600 410.755 187.600 410.700 V 394.200 C 187.600 394.145 187.555 394.100 187.500 394.100 H 184.500 C 184.445 394.100 184.400 394.145 184.400 394.200 V 395.150 C 184.400 395.250 184.500 395.150 184.400 395.150 H 182.500 C 182.400 395.150 182.500 395.250 182.500 395.150 V 394.200 C 182.500 394.145 182.455 394.100 182.400 394.100 H 170.600 C 170.500 394.100 170.600 394.200 170.600 394.100 V 391.300 C 170.600 391.200 170.500 391.300 170.600 391.300 H 182.400 C 182.455 391.300 182.500 391.255 182.500 391.200 V 390.250 C 182.500 390.150 182.400 390.250 182.500 390.250 H 184.400 C 184.500 390.250 184.400 390.150 184.400 390.250 V 391.200 C 184.400 391.255 184.445 391.300 184.500 391.300 H 187.500 C 187.555 391.300 187.600 391.255 187.600 391.200 V 312.200 C 187.600 312.145 187.555 312.100 187.500 312.100 H 14.000 C 13.945 312.100 13.900 312.145 13.900 312.200 V 391.200 C 13.900 391.255 13.945 391.300 14.000 391.300 H 17.000 C 17.055 391.300 17.100 391.255 17.100 391.200 V 390.250 C 17.100 390.150 17.000 390.250 17.100 390.250 H 19.000 C 19.100 390.250 19.000 390.150 19.000 390.250 V 391.200 C 19.000 391.255 19.045 391.300 19.100 391.300 H 30.900 C 31.000 391.300 30.900 391.200 30.900 391.300 V 394.100 C 30.900 394.200 31.000 394.100 30.900 394.100 H 19.100 C 19.045 394.100 19.000 394.145 19.000 394.200 V 395.150 C 19.000 395.250 19.100 395.150 19.000 395.150 H 17.100 C 17.000 395.150 17.100 395.250 17.100 395.150 V 394.200 C 17.100 394.145 17.055 394.100 17.000 394.100 H 14.000 C 13.945 394.100 13.900 394.145 13.900 394.200 V 410.700 C 13.900 410.755 13.945 410.800 14.000 410.800" stroke="rgb(0,0,0)" stroke-width="0.20"/>
</g>
<g id="p-13" style="fill:none;stroke-linecap:round;stroke-linejoin:round;">
  <path d="M 104.000 298.000 H 29.100 C 29.000 298.000 29.100 298.100 29.100 298.000 V 223.200 C 29.100 223.100 29.000 223.200 29.100 223.200 H 178.900 C 179.000 223.200 178.900 223.100 178.900 223.200 V 298.000 C 178.900 298.100 179.000 298.000 178.900 298.000 H 104.000 Z" stroke="rgb(255,0,0)" stroke-width="0.20"/>
  <text dominant-baseline="hanging" font-size="4px" style="font-family: sans-serif ; font-weight: normal; font-style: normal; fill: rgb(255,0,0)" text-anchor="middle" transform="matrix( 1.000 0.000 0.000 1.000 104.000 261.400 )">engraved art here</text><text dominant-baseline="hanging" font-size="4px" style="font-family: sans-serif ; font-weight: normal; font-style: normal; fill: rgb(255,0,0)" text-anchor="middle" transform="matrix( 1.000 0.000 0.000 1.000 104.000 255.800 )">Insert cut and</text><path d="M 17.250 310.100 H 19.750 C 19.805 310.100 19.850 310.055 19.850 310.000 V 306.600 C 19.850 306.500 19.750 306.600 19.850 306.600 H 23.150 C 23.250 306.600 23.150 306.500 23.150 306.600 V 310.000 C 23.150 310.055 23.195 310.100 23.250 310.100 H 184.750 C 184.805 310.100 184.850 310.055 184.850 310.000 V 306.600 C 184.850 306.500 184.750 306.600 184.850 306.600 H 188.150 C 188.250 306.600 188.150 306.500 188.150 306.600 V 310.000 C 188.150 310.055 188.195 310.100 188.250 310.100 H 190.750 C 190.805 310.100 190.850 310.055 190.850 310.000 V 216.600 C 190.850 216.500 190.750 216.600 190.850 216.600 H 194.000 C 194.055 216.600 194.100 216.555 194.100 216.500 V 211.500 C 194.100 211.445 194.055 211.400 194.000 211.400 H 14.000 C 13.945 211.400 13.900 211.445 13.900 211.500 V 216.500 C 13.900 216.555 13.945 216.600 14.000 216.600 H 17.150 C 17.250 216.600 17.150 216.500 17.150 216.600 V 310.000 C 17.150 310.055 17.195 310.100 17.250 310.100" stroke="rgb(0,0,0)" stroke-width="0.20"/>
</g>
<g id="p-14" style="fill:none;stroke-linecap:round;stroke-linejoin:round;">
  <path d="M 104.000 197.300 H 29.100 C 29.000 197.300 29.100 197.400 29.100 197.300 V 122.500 C 29.100 122.400 29.000 122.500 29.100 122.500 H 178.900 C 179.000 122.500 178.900 122.400 178.900 122.500 V 197.300 C 178.900 197.400 179.000 197.300 178.900 197.300 H 104.000 Z" stroke="rgb(255,0,0)" stroke-width="0.20"/>
  <text dominant-baseline="hanging" font-size="4px" style="font-family: sans-serif ; font-weight: normal; font-style: normal; fill: rgb(255,0,0)" text-anchor="middle" transform="matrix( 1.000 0.000 0.000 1.000 104.000 160.700 )">engraved art here</text><text dominant-baseline="hanging" font-size="4px" style="font-family: sans-serif ; font-weight: normal; font-style: normal; fill: rgb(255,0,0)" text-anchor="middle" transform="matrix( 1.000 0.000 0.000 1.000 104.000 155.100 )">Insert cut and</text><path d="M 17.250 209.400 H 19.750 C 19.805 209.400 19.850 209.355 19.850 209.300 V 205.900 C 19.850 205.800 19.750 205.900 19.850 205.900 H 23.150 C 23.250 205.900 23.150 205.800 23.150 205.900 V 209.300 C 23.150 209.355 23.195 209.400 23.250 209.400 H 184.750 C 184.805 209.400 184.850 209.355 184.850 209.300 V 205.900 C 184.850 205.800 184.750 205.900 184.850 205.900 H 188.150 C 188.250 205.900 188.150 205.800 188.150 205.900 V 209.300 C 188.150 209.355 188.195 209.400 188.250 209.400 H 190.750 C 190.805 209.400 190.850 209.355 190.850 209.300 V 115.900 C 190.850 115.800 190.750 115.900 190.850 115.900 H 194.000 C 194.055 115.900 194.100 115.855 194.100 115.800 V 110.800 C 194.100 110.745 194.055 110.700 194.000 110.700 H 14.000 C 13.945 110.700 13.900 110.745 13.900 110.800 V 115.800 C 13.900 115.855 13.945 115.900 14.000 115.900 H 17.150 C 17.250 115.900 17.150 115.800 17.150 115.900 V 209.300 C 17.150 209.355 17.195 209.400 17.250 209.400" stroke="rgb(0,0,0)" stroke-width="0.20"/>
</g>
<g id="p-15" style="fill:none;stroke-linecap:round;stroke-linejoin:round;">
  <path d="M 104.000 96.600 H 29.100 C 29.000 96.600 29.100 96.700 29.100 96.600 V 21.800 C 29.100 21.700 29.000 21.800 29.100 21.800 H 178.900 C 179.000 21.800 178.900 21.700 178.900 21.800 V 96.600 C 178.900 96.700 179.000 96.600 178.900 96.600 H 104.000 Z" stroke="rgb(255,0,0)" stroke-width="0.20"/>
  <text dominant-baseline="hanging" font-size="4px" style="font-family: sans-serif ; font-weight: normal; font-style: normal; fill: rgb(255,0,0)" text-anchor="middle" transform="matrix( 1.000 0.000 0.000 1.000 104.000 60.000 )">engraved art here</text><text dominant-baseline="hanging" font-size="4px" style="font-family: sans-serif ; font-weight: normal; font-style: normal; fill: rgb(255,0,0)" text-anchor="middle" transform="matrix( 1.000 0.000 0.000 1.000 104.000 54.400 )">Insert cut and</text><path d="M 17.250 108.700 H 19.750 C 19.805 108.700 19.850 108.655 19.850 108.600 V 105.200 C 19.850 105.100 19.750 105.200 19.850 105.200 H 23.150 C 23.250 105.200 23.150 105.100 23.150 105.200 V 108.600 C 23.150 108.655 23.195 108.700 23.250 108.700 H 184.750 C 184.805 108.700 184.850 108.655 184.850 108.600 V 105.200 C 184.850 105.100 184.750 105.200 184.850 105.200 H 188.150 C 188.250 105.200 188.150 105.100 188.150 105.200 V 108.600 C 188.150 108.655 188.195 108.700 188.250 108.700 H 190.750 C 190.805 108.700 190.850 108.655 190.850 108.600 V 15.200 C 190.850 15.100 190.750 15.200 190.850 15.200 H 194.000 C 194.055 15.200 194.100 15.155 194.100 15.100 V 10.100 C 194.100 10.045 194.055 10.000 194.000 10.000 H 14.000 C 13.945 10.000 13.900 10.045 13.900 10.100 V 15.100 C 13.900 15.155 13.945 15.200 14.000 15.200 H 17.150 C 17.250 15.200 17.150 15.100 17.150 15.200 V 108.600 C 17.150 108.655 17.195 108.700 17.250 108.700" stroke="rgb(0,0,0)" stroke-width="0.20"/>
</g>
</svg>