<?xml version='1.0' encoding='utf-8'?>
<svg height="233.60mm" viewBox="0.0 0.0 221.90 233.60" width="221.90mm" xmlns="http://www.w3.org/2000/svg" xmlns:cc="http://creativecommons.org/ns#" xmlns:dc="http://purl.org/dc/elements/1.1/" xmlns:inkscape="http://www.inkscape.org/namespaces/inkscape" xmlns:rdf="http://www.w3.org/1999/02/22-rdf-syntax-ns#" xmlns:svg="http://www.w3.org/2000/svg" xmlns:xlink="http://www.w3.org/1999/xlink">
<!--
OpenBox - Box with top and front open

Created with Boxes.py (https://boxes.hackerspace-bamberg.de/)
Command line (remove spaces between dashes): boxes OpenBox
-->
<title>OpenBox</title>
<metadata>
<rdf:RDF><cc:Work>
<dc:title>Box - OpenBox</dc:title>
<dc:source>boxes OpenBox</dc:source>
<dc:description>Box with top and front open

Created with Boxes.py (https://boxes.hackerspace-bamberg.de/)
Command line: boxes OpenBox
Command line short: boxes OpenBox
</dc:description>
</cc:Work></rdf:RDF></metadata>
<g id="p-0" style="fill:none;stroke-linecap:round;stroke-linejoin:round;">
  <path d="M 10.100 223.600 H 110.100 V 213.600 H 10.100 V 223.600 Z" stroke="rgb(0,0,0)" stroke-width="0.20" />
  <text dominant-baseline="hanging" font-size="6px" style="font-family: sans-serif ; font-weight: normal; font-style: normal; fill: rgb(255,0,0)" text-anchor="middle" transform="matrix( 1.000 0.000 0.000 1.000 60.100 215.600 )">100.0mm, burn:0.10mm</text>
</g>
<g id="p-1" style="fill:none;stroke-linecap:round;stroke-linejoin:round;">
  <path d="M 13.100 211.900 H 21.100 C 21.155 211.900 21.200 211.855 21.200 211.800 V 208.900 C 21.200 208.800 21.100 208.900 21.200 208.900 H 27.000 C 27.100 208.900 27.000 208.800 27.000 208.900 V 211.800 C 27.000 211.855 27.045 211.900 27.100 211.900 H 33.100 C 33.155 211.900 33.200 211.855 33.200 211.800 V 208.900 C 33.200 208.800 33.100 208.900 33.200 208.900 H 39.000 C 39.100 208.900 39.000 208.800 39.000 208.900 V 211.800 C 39.000 211.855 39.045 211.900 39.100 211.900 H 45.100 C 45.155 211.900 45.200 211.855 45.200 211.800 V 208.900 C 45.200 208.800 45.100 208.900 45.200 208.900 H 51.000 C 51.100 208.900 51.000 208.800 51.000 208.900 V 211.800 C 51.000 211.855 51.045 211.900 51.100 211.900 H 57.100 C 57.155 211.900 57.200 211.855 57.200 211.800 V 208.900 C 57.200 208.800 57.100 208.900 57.200 208.900 H 63.000 C 63.100 208.900 63.000 208.800 63.000 208.900 V 211.800 C 63.000 211.855 63.045 211.900 63.100 211.900 H 69.100 C 69.155 211.900 69.200 211.855 69.200 211.800 V 208.900 C 69.200 208.800 69.100 208.900 69.200 208.900 H 75.000 C 75.100 208.900 75.000 208.800 75.000 208.900 V 211.800 C 75.000 211.855 75.045 211.900 75.100 211.900 H 81.100 C 81.155 211.900 81.200 211.855 81.200 211.800 V 208.900 C 81.200 208.800 81.100 208.900 81.200 208.900 H 87.000 C 87.100 208.900 87.000 208.800 87.000 208.900 V 211.800 C 87.000 211.855 87.045 211.900 87.100 211.900 H 93.100 C 93.155 211.900 93.200 211.855 93.200 211.800 V 208.900 C 93.200 208.800 93.100 208.900 93.200 208.900 H 99.000 C 99.100 208.900 99.000 208.800 99.000 208.900 V 211.800 C 99.000 211.855 99.045 211.900 99.100 211.900 H 107.100 H 110.100 C 110.155 211.900 110.200 211.855 110.200 211.800 V 208.800 V 199.300 C 110.200 199.245 110.155 199.200 110.100 199.200 H 107.200 C 107.100 199.200 107.200 199.300 107.200 199.200 V 193.400 C 107.200 193.300 107.100 193.400 107.200 193.400 H 110.100 C 110.155 193.400 110.200 193.355 110.200 193.300 V 187.300 C 110.200 187.245 110.155 187.200 110.100 187.200 H 107.200 C 107.100 187.200 107.200 187.300 107.200 187.200 V 181.400 C 107.200 181.300 107.100 181.400 107.200 181.400 H 110.100 C 110.155 181.400 110.200 181.355 110.200 181.300 V 175.300 C 110.200 175.245 110.155 175.200 110.100 175.200 H 107.200 C 107.100 175.200 107.200 175.300 107.200 175.200 V 169.400 C 107.200 169.300 107.100 169.400 107.200 169.400 H 110.100 C 110.155 169.400 110.200 169.355 110.200 169.300 V 163.300 C 110.200 163.245 110.155 163.200 110.100 163.200 H 107.200 C 107.100 163.200 107.200 163.300 107.200 163.200 V 157.400 C 107.200 157.300 107.100 157.400 107.200 157.400 H 110.100 C 110.155 157.400 110.200 157.355 110.200 157.300 V 151.300 C 110.200 151.245 110.155 151.200 110.100 151.200 H 107.200 C 107.100 151.200 107.200 151.300 107.200 151.200 V 145.400 C 107.200 145.300 107.100 145.400 107.200 145.400 H 110.100 C 110.155 145.400 110.200 145.355 110.200 145.300 V 139.300 C 110.200 139.245 110.155 139.200 110.100 139.200 H 107.200 C 107.100 139.200 107.200 139.300 107.200 139.200 V 133.400 C 107.200 133.300 107.100 133.400 107.200 133.400 H 110.100 C 110.155 133.400 110.200 133.355 110.200 133.300 V 127.300 C 110.200 127.245 110.155 127.200 110.100 127.200 H 107.200 C 107.100 127.200 107.200 127.300 107.200 127.200 V 121.400 C 107.200 121.300 107.100 121.400 107.200 121.400 H 110.100 C 110.155 121.400 110.200 121.355 110.200 121.300 V 111.800 C 110.200 111.745 110.155 111.700 110.100 111.700 H 107.100 H 13.100 H 10.100 C 10.045 111.700 10.000 111.745 10.000 111.800 V 121.300 C 10.000 121.355 10.045 121.400 10.100 121.400 H 13.000 C 13.100 121.400 13.000 121.300 13.000 121.400 V 127.200 C 13.000 127.300 13.100 127.200 13.000 127.200 H 10.100 C 10.045 127.200 10.000 127.245 10.000 127.300 V 133.300 C 10.000 133.355 10.045 133.400 10.100 133.400 H 13.000 C 13.100 133.400 13.000 133.300 13.000 133.400 V 139.200 C 13.000 139.300 13.100 139.200 13.000 139.200 H 10.100 C 10.045 139.200 10.000 139.245 10.000 139.300 V 145.300 C 10.000 145.355 10.045 145.400 10.100 145.400 H 13.000 C 13.100 145.400 13.000 145.300 13.000 145.400 V 151.200 C 13.000 151.300 13.100 151.200 13.000 151.200 H 10.100 C 10.045 151.200 10.000 151.245 10.000 151.300 V 157.300 C 10.000 157.355 10.045 157.400 10.100 157.400 H 13.000 C 13.100 157.400 13.000 157.300 13.000 157.400 V 163.200 C 13.000 163.300 13.100 163.200 13.000 163.200 H 10.100 C 10.045 163.200 10.000 163.245 10.000 163.300 V 169.300 C 10.000 169.355 10.045 169.400 10.100 169.400 H 13.000 C 13.100 169.400 13.000 169.300 13.000 169.400 V 175.200 C 13.000 175.300 13.100 175.200 13.000 175.200 H 10.100 C 10.045 175.200 10.000 175.245 10.000 175.300 V 181.300 C 10.000 181.355 10.045 181.400 10.100 181.400 H 13.000 C 13.100 181.400 13.000 181.300 13.000 181.400 V 187.200 C 13.000 187.300 13.100 187.200 13.000 187.200 H 10.100 C 10.045 187.200 10.000 187.245 10.000 187.300 V 193.300 C 10.000 193.355 10.045 193.400 10.100 193.400 H 13.000 C 13.100 193.400 13.000 193.300 13.000 193.400 V 199.200 C 13.000 199.300 13.100 199.200 13.000 199.200 H 10.100 C 10.045 199.200 10.000 199.245 10.000 199.300 V 208.800 V 211.800 C 10.000 211.855 10.045 211.900 10.100 211.900 H 13.100 Z" stroke="rgb(0,0,0)" stroke-width="0.20" />
</g>
<g id="p-2" style="fill:none;stroke-linecap:round;stroke-linejoin:round;">
  <path d="M 114.800 211.900 H 124.300 C 124.355 211.900 124.400 211.855 124.400 211.800 V 208.900 C 124.400 208.800 124.300 208.900 124.400 208.900 H 130.200 C 130.300 208.900 130.200 208.800 130.200 208.900 V 211.800 C 130.200 211.855 130.245 211.900 130.300 211.900 H 136.300 C 136.355 211.900 136.400 211.855 136.400 211.800 V 208.900 C 136.400 208.800 136.300 208.900 136.400 208.900 H 142.200 C 142.300 208.900 142.200 208.800 142.200 208.900 V 211.800 C 142.200 211.855 142.245 211.900 142.300 211.900 H 148.300 C 148.355 211.900 148.400 211.855 148.400 211.800 V 208.900 C 148.400 208.800 148.300 208.900 148.400 208.900 H 154.200 C 154.300 208.900 154.200 208.800 154.200 208.900 V 211.800 C 154.200 211.855 154.245 211.900 154.300 211.900 H 160.300 C 160.355 211.900 160.400 211.855 160.400 211.800 V 208.900 C 160.400 208.800 160.300 208.900 160.400 208.900 H 166.200 C 166.300 208.900 166.200 208.800 166.200 208.900 V 211.800 C 166.200 211.855 166.245 211.900 166.300 211.900 H 172.300 C 172.355 211.900 172.400 211.855 172.400 211.800 V 208.900 C 172.400 208.800 172.300 208.900 172.400 208.900 H 178.200 C 178.300 208.900 178.200 208.800 178.200 208.900 V 211.800 C 178.200 211.855 178.245 211.900 178.300 211.900 H 184.300 C 184.355 211.900 184.400 211.855 184.400 211.800 V 208.900 C 184.400 208.800 184.300 208.900 184.400 208.900 H 190.200 C 190.300 208.900 190.200 208.800 190.200 208.900 V 211.800 C 190.200 211.855 190.245 211.900 190.300 211.900 H 196.300 C 196.355 211.900 196.400 211.855 196.400 211.800 V 208.900 C 196.400 208.800 196.300 208.900 196.400 208.900 H 202.200 C 202.300 208.900 202.200 208.800 202.200 208.900 V 211.800 C 202.200 211.855 202.245 211.900 202.300 211.900 H 211.800 C 211.855 211.900 211.900 211.855 211.900 211.800 V 208.800 V 111.800 C 211.900 111.745 211.855 111.700 211.800 111.700 H 114.800 C 114.745 111.700 114.700 111.745 114.700 111.800 V 121.200 C 114.700 121.300 114.800 121.200 114.700 121.200 H 111.800 C 111.745 121.200 111.700 121.245 111.700 121.300 V 127.300 C 111.700 127.355 111.745 127.400 111.800 127.400 H 114.700 C 114.800 127.400 114.700 127.300 114.700 127.400 V 133.200 C 114.700 133.300 114.800 133.200 114.700 133.200 H 111.800 C 111.745 133.200 111.700 133.245 111.700 133.300 V 139.300 C 111.700 139.355 111.745 139.400 111.800 139.400 H 114.700 C 114.800 139.400 114.700 139.300 114.700 139.400 V 145.200 C 114.700 145.300 114.800 145.200 114.700 145.200 H 111.800 C 111.745 145.200 111.700 145.245 111.700 145.300 V 151.300 C 111.700 151.355 111.745 151.400 111.800 151.400 H 114.700 C 114.800 151.400 114.700 151.300 114.700 151.400 V 157.200 C 114.700 157.300 114.800 157.200 114.700 157.200 H 111.800 C 111.745 157.200 111.700 157.245 111.700 157.300 V 163.300 C 111.700 163.355 111.745 163.400 111.800 163.400 H 114.700 C 114.800 163.400 114.700 163.300 114.700 163.400 V 169.200 C 114.700 169.300 114.800 169.200 114.700 169.200 H 111.800 C 111.745 169.200 111.700 169.245 111.700 169.300 V 175.300 C 111.700 175.355 111.745 175.400 111.800 175.400 H 114.700 C 114.800 175.400 114.700 175.300 114.700 175.400 V 181.200 C 114.700 181.300 114.800 181.200 114.700 181.200 H 111.800 C 111.745 181.200 111.700 181.245 111.700 181.300 V 187.300 C 111.700 187.355 111.745 187.400 111.800 187.400 H 114.700 C 114.800 187.400 114.700 187.300 114.700 187.400 V 193.200 C 114.700 193.300 114.800 193.200 114.700 193.200 H 111.800 C 111.745 193.200 111.700 193.245 111.700 193.300 V 199.300 C 111.700 199.355 111.745 199.400 111.800 199.400 H 114.700 C 114.800 199.400 114.700 199.300 114.700 199.400 V 208.800 V 211.800 C 114.700 211.855 114.745 211.900 114.800 211.900 Z" stroke="rgb(0,0,0)" stroke-width="0.20" />
</g>
<g id="p-3" style="fill:none;stroke-linecap:round;stroke-linejoin:round;">
  <path d="M 114.800 110.200 H 124.300 C 124.355 110.200 124.400 110.155 124.400 110.100 V 107.200 C 124.400 107.100 124.300 107.200 124.400 107.200 H 130.200 C 130.300 107.200 130.200 107.100 130.200 107.200 V 110.100 C 130.200 110.155 130.245 110.200 130.300 110.200 H 136.300 C 136.355 110.200 136.400 110.155 136.400 110.100 V 107.200 C 136.400 107.100 136.300 107.200 136.400 107.200 H 142.200 C 142.300 107.200 142.200 107.100 142.200 107.200 V 110.100 C 142.200 110.155 142.245 110.200 142.300 110.200 H 148.300 C 148.355 110.200 148.400 110.155 148.400 110.100 V 107.200 C 148.400 107.100 148.300 107.200 148.400 107.200 H 154.200 C 154.300 107.200 154.200 107.100 154.200 107.200 V 110.100 C 154.200 110.155 154.245 110.200 154.300 110.200 H 160.300 C 160.355 110.200 160.400 110.155 160.400 110.100 V 107.200 C 160.400 107.100 160.300 107.200 160.400 107.200 H 166.200 C 166.300 107.200 166.200 107.100 166.200 107.200 V 110.100 C 166.200 110.155 166.245 110.200 166.300 110.200 H 172.300 C 172.355 110.200 172.400 110.155 172.400 110.100 V 107.200 C 172.400 107.100 172.300 107.200 172.400 107.200 H 178.200 C 178.300 107.200 178.200 107.100 178.200 107.200 V 110.100 C 178.200 110.155 178.245 110.200 178.300 110.200 H 184.300 C 184.355 110.200 184.400 110.155 184.400 110.100 V 107.200 C 184.400 107.100 184.300 107.200 184.400 107.200 H 190.200 C 190.300 107.200 190.200 107.100 190.200 107.200 V 110.100 C 190.200 110.155 190.245 110.200 190.300 110.200 H 196.300 C 196.355 110.200 196.400 110.155 196.400 110.100 V 107.200 C 196.400 107.100 196.300 107.200 196.400 107.200 H 202.200 C 202.300 107.200 202.200 107.100 202.200 107.200 V 110.100 C 202.200 110.155 202.245 110.200 202.300 110.200 H 211.800 C 211.855 110.200 211.900 110.155 211.900 110.100 V 107.100 V 10.100 C 211.900 10.045 211.855 10.000 211.800 10.000 H 114.800 C 114.745 10.000 114.700 10.045 114.700 10.100 V 19.500 C 114.700 19.600 114.800 19.500 114.700 19.500 H 111.800 C 111.745 19.500 111.700 19.545 111.700 19.600 V 25.600 C 111.700 25.655 111.745 25.700 111.800 25.700 H 114.700 C 114.800 25.700 114.700 25.600 114.700 25.700 V 31.500 C 114.700 31.600 114.800 31.500 114.700 31.500 H 111.800 C 111.745 31.500 111.700 31.545 111.700 31.600 V 37.600 C 111.700 37.655 111.745 37.700 111.800 37.700 H 114.700 C 114.800 37.700 114.700 37.600 114.700 37.700 V 43.500 C 114.700 43.600 114.800 43.500 114.700 43.500 H 111.800 C 111.745 43.500 111.700 43.545 111.700 43.600 V 49.600 C 111.700 49.655 111.745 49.700 111.800 49.700 H 114.700 C 114.800 49.700 114.700 49.600 114.700 49.700 V 55.500 C 114.700 55.600 114.800 55.500 114.700 55.500 H 111.800 C 111.745 55.500 111.700 55.545 111.700 55.600 V 61.600 C 111.700 61.655 111.745 61.700 111.800 61.700 H 114.700 C 114.800 61.700 114.700 61.600 114.700 61.700 V 67.500 C 114.700 67.600 114.800 67.500 114.700 67.500 H 111.800 C 111.745 67.500 111.700 67.545 111.700 67.600 V 73.600 C 111.700 73.655 111.745 73.700 111.800 73.700 H 114.700 C 114.800 73.700 114.700 73.600 114.700 73.700 V 79.500 C 114.700 79.600 114.800 79.500 114.700 79.500 H 111.800 C 111.745 79.500 111.700 79.545 111.700 79.600 V 85.600 C 111.700 85.655 111.745 85.700 111.800 85.700 H 114.700 C 114.800 85.700 114.700 85.600 114.700 85.700 V 91.500 C 114.700 91.600 114.800 91.500 114.700 91.500 H 111.800 C 111.745 91.500 111.700 91.545 111.700 91.600 V 97.600 C 111.700 97.655 111.745 97.700 111.800 97.700 H 114.700 C 114.800 97.700 114.700 97.600 114.700 97.700 V 107.100 V 110.100 C 114.700 110.155 114.745 110.200 114.800 110.200 Z" stroke="rgb(0,0,0)" stroke-width="0.20" />
</g>
<g id="p-4" style="fill:none;stroke-linecap:round;stroke-linejoin:round;">
  <path d="M 13.100 110.200 H 107.100 C 107.155 110.200 107.200 110.155 107.200 110.100 V 100.700 C 107.200 100.600 107.100 100.700 107.200 100.700 H 110.100 C 110.155 100.700 110.200 100.655 110.200 100.600 V 94.600 C 110.200 94.545 110.155 94.500 110.100 94.500 H 107.200 C 107.100 94.500 107.200 94.600 107.200 94.500 V 88.700 C 107.200 88.600 107.100 88.700 107.200 88.700 H 110.100 C 110.155 88.700 110.200 88.655 110.200 88.600 V 82.600 C 110.200 82.545 110.155 82.500 110.100 82.500 H 107.200 C 107.100 82.500 107.200 82.600 107.200 82.500 V 76.700 C 107.200 76.600 107.100 76.700 107.200 76.700 H 110.100 C 110.155 76.700 110.200 76.655 110.200 76.600 V 70.600 C 110.200 70.545 110.155 70.500 110.100 70.500 H 107.200 C 107.100 70.500 107.200 70.600 107.200 70.500 V 64.700 C 107.200 64.600 107.100 64.700 107.200 64.700 H 110.100 C 110.155 64.700 110.200 64.655 110.200 64.600 V 58.600 C 110.200 58.545 110.155 58.500 110.100 58.500 H 107.200 C 107.100 58.500 107.200 58.600 107.200 58.500 V 52.700 C 107.200 52.600 107.100 52.700 107.200 52.700 H 110.100 C 110.155 52.700 110.200 52.655 110.200 52.600 V 46.600 C 110.200 46.545 110.155 46.500 110.100 46.500 H 107.200 C 107.100 46.500 107.200 46.600 107.200 46.500 V 40.700 C 107.200 40.600 107.100 40.700 107.200 40.700 H 110.100 C 110.155 40.700 110.200 40.655 110.200 40.600 V 34.600 C 110.200 34.545 110.155 34.500 110.100 34.500 H 107.200 C 107.100 34.500 107.200 34.600 107.200 34.500 V 28.700 C 107.200 28.600 107.100 28.700 107.200 28.700 H 110.100 C 110.155 28.700 110.200 28.655 110.200 28.600 V 22.600 C 110.200 22.545 110.155 22.500 110.100 22.500 H 107.200 C 107.100 22.500 107.200 22.600 107.200 22.500 V 13.100 C 107.200 13.045 107.155 13.000 107.100 13.000 H 99.200 C 99.100 13.000 99.200 13.100 99.200 13.000 V 10.100 C 99.200 10.045 99.155 10.000 99.100 10.000 H 93.100 C 93.045 10.000 93.000 10.045 93.000 10.100 V 13.000 C 93.000 13.100 93.100 13.000 93.000 13.000 H 87.200 C 87.100 13.000 87.200 13.100 87.200 13.000 V 10.100 C 87.200 10.045 87.155 10.000 87.100 10.000 H 81.100 C 81.045 10.000 81.000 10.045 81.000 10.100 V 13.000 C 81.000 13.100 81.100 13.000 81.000 13.000 H 75.200 C 75.100 13.000 75.200 13.100 75.200 13.000 V 10.100 C 75.200 10.045 75.155 10.000 75.100 10.000 H 69.100 C 69.045 10.000 69.000 10.045 69.000 10.100 V 13.000 C 69.000 13.100 69.100 13.000 69.000 13.000 H 63.200 C 63.100 13.000 63.200 13.100 63.200 13.000 V 10.100 C 63.200 10.045 63.155 10.000 63.100 10.000 H 57.100 C 57.045 10.000 57.000 10.045 57.000 10.100 V 13.000 C 57.000 13.100 57.100 13.000 57.000 13.000 H 51.200 C 51.100 13.000 51.200 13.100 51.200 13.000 V 10.100 C 51.200 10.045 51.155 10.000 51.100 10.000 H 45.100 C 45.045 10.000 45.000 10.045 45.000 10.100 V 13.000 C 45.000 13.100 45.100 13.000 45.000 13.000 H 39.200 C 39.100 13.000 39.200 13.100 39.200 13.000 V 10.100 C 39.200 10.045 39.155 10.000 39.100 10.000 H 33.100 C 33.045 10.000 33.000 10.045 33.000 10.100 V 13.000 C 33.000 13.100 33.100 13.000 33.000 13.000 H 27.200 C 27.100 13.000 27.200 13.100 27.200 13.000 V 10.100 C 27.200 10.045 27.155 10.000 27.100 10.000 H 21.100 C 21.045 10.000 21.000 10.045 21.000 10.100 V 13.000 C 21.000 13.100 21.100 13.000 21.000 13.000 H 13.100 C 13.045 13.000 13.000 13.045 13.000 13.100 V 22.500 C 13.000 22.600 13.100 22.500 13.000 22.500 H 10.100 C 10.045 22.500 10.000 22.545 10.000 22.600 V 28.600 C 10.000 28.655 10.045 28.700 10.100 28.700 H 13.000 C 13.100 28.700 13.000 28.600 13.000 28.700 V 34.500 C 13.000 34.600 13.100 34.500 13.000 34.500 H 10.100 C 10.045 34.500 10.000 34.545 10.000 34.600 V 40.600 C 10.000 40.655 10.045 40.700 10.100 40.700 H 13.000 C 13.100 40.700 13.000 40.600 13.000 40.700 V 46.500 C 13.000 46.600 13.100 46.500 13.000 46.500 H 10.100 C 10.045 46.500 10.000 46.545 10.000 46.600 V 52.600 C 10.000 52.655 10.045 52.700 10.100 52.700 H 13.000 C 13.100 52.700 13.000 52.600 13.000 52.700 V 58.500 C 13.000 58.600 13.100 58.500 13.000 58.500 H 10.100 C 10.045 58.500 10.000 58.545 10.000 58.600 V 64.600 C 10.000 64.655 10.045 64.700 10.100 64.700 H 13.000 C 13.100 64.700 13.000 64.600 13.000 64.700 V 70.500 C 13.000 70.600 13.100 70.500 13.000 70.500 H 10.100 C 10.045 70.500 10.000 70.545 10.000 70.600 V 76.600 C 10.000 76.655 10.045 76.700 10.100 76.700 H 13.000 C 13.100 76.700 13.000 76.600 13.000 76.700 V 82.500 C 13.000 82.600 13.100 82.500 13.000 82.500 H 10.100 C 10.045 82.500 10.000 82.545 10.000 82.600 V 88.600 C 10.000 88.655 10.045 88.700 10.100 88.700 H 13.000 C 13.100 88.700 13.000 88.600 13.000 88.700 V 94.500 C 13.000 94.600 13.100 94.500 13.000 94.500 H 10.100 C 10.045 94.500 10.000 94.545 10.000 94.600 V 100.600 C 10.000 100.655 10.045 100.700 10.100 100.700 H 13.000 C 13.100 100.700 13.000 100.600 13.000 100.700 V 110.100 C 13.000 110.155 13.045 110.200 13.100 110.200 Z" stroke="rgb(0,0,0)" stroke-width="0.20" />
</g>
</svg>