<?xml version='1.0' encoding='utf-8'?>
<svg height="587.00mm" viewBox="0.0 0.0 122.07 587.00" width="122.07mm" xmlns="http://www.w3.org/2000/svg" xmlns:cc="http://creativecommons.org/ns#" xmlns:dc="http://purl.org/dc/elements/1.1/" xmlns:inkscape="http://www.inkscape.org/namespaces/inkscape" xmlns:rdf="http://www.w3.org/1999/02/22-rdf-syntax-ns#" xmlns:svg="http://www.w3.org/2000/svg" xmlns:xlink="http://www.w3.org/1999/xlink">
<!--
OttoBody - Otto LC - a laser cut chassis for Otto DIY - body

Created with Boxes.py (https://boxes.hackerspace-bamberg.de/)
Command line (remove spaces between dashes): boxes OttoBody
-->
<title>OttoBody</title>
<metadata>
<rdf:RDF><cc:Work>
<dc:title>Misc - OttoBody</dc:title>
<dc:source>boxes OttoBody</dc:source>
<dc:description>Otto LC - a laser cut chassis for Otto DIY - body

Created with Boxes.py (https://boxes.hackerspace-bamberg.de/)
Command line: boxes OttoBody
Command line short: boxes OttoBody
</dc:description>
</cc:Work></rdf:RDF></metadata>
<g id="p-0" style="fill:none;stroke-linecap:round;stroke-linejoin:round;">
  <path d="M 12.071 577.000 H 112.071 V 567.000 H 12.071 V 577.000 Z" stroke="rgb(0,0,0)" stroke-width="0.20" />
  <text dominant-baseline="hanging" font-size="6px" style="font-family: sans-serif ; font-weight: normal; font-style: normal; fill: rgb(255,0,0)" text-anchor="middle" transform="matrix( 1.000 0.000 0.000 1.000 62.071 569.000 )">100.0mm, burn:0.10mm</text>
</g>
<g id="p-1" style="fill:none;stroke-linecap:round;stroke-linejoin:round;">
  <text dominant-baseline="hanging" font-size="4px" style="font-family: sans-serif ; font-weight: normal; font-style: normal; fill: rgb(255,0,0)" text-anchor="middle" transform="matrix( 1.000 0.000 0.000 1.000 54.071 544.300 )">Left bottom side</text><path d="M 24.071 565.300 H 33.071 C 33.126 565.300 33.171 565.255 33.171 565.200 V 562.300 C 33.171 562.200 33.071 562.300 33.171 562.300 H 38.971 C 39.071 562.300 38.971 562.200 38.971 562.300 V 565.200 C 38.971 565.255 39.015 565.300 39.071 565.300 H 45.071 C 45.126 565.300 45.171 565.255 45.171 565.200 V 562.300 C 45.171 562.200 45.071 562.300 45.171 562.300 H 50.971 C 51.071 562.300 50.971 562.200 50.971 562.300 V 565.200 C 50.971 565.255 51.015 565.300 51.071 565.300 H 57.071 C 57.126 565.300 57.171 565.255 57.171 565.200 V 562.300 C 57.171 562.200 57.071 562.300 57.171 562.300 H 62.971 C 63.071 562.300 62.971 562.200 62.971 562.300 V 565.200 C 62.971 565.255 63.015 565.300 63.071 565.300 H 69.071 C 69.126 565.300 69.171 565.255 69.171 565.200 V 562.300 C 69.171 562.200 69.071 562.300 69.171 562.300 H 74.971 C 75.071 562.300 74.971 562.200 74.971 562.300 V 565.200 C 74.971 565.255 75.015 565.300 75.071 565.300 H 84.071 C 84.126 565.300 84.171 565.255 84.171 565.200 V 562.200 V 553.800 C 84.171 553.700 84.071 553.800 84.171 553.800 H 87.071 C 87.126 553.800 87.171 553.755 87.171 553.700 V 547.700 C 87.171 547.645 87.126 547.600 87.071 547.600 H 84.171 C 84.071 547.600 84.171 547.700 84.171 547.600 V 541.800 C 84.171 541.700 84.071 541.800 84.171 541.800 H 87.071 C 87.126 541.800 87.171 541.755 87.171 541.700 V 535.700 C 87.171 535.645 87.126 535.600 87.071 535.600 H 84.171 C 84.071 535.600 84.171 535.700 84.171 535.600 V 527.200 C 84.171 527.145 84.126 527.100 84.071 527.100 H 30.071 C 30.126 527.100 30.171 527.145 30.171 527.200 C 30.171 525.400 29.637 523.641 28.637 522.144 C 27.637 520.648 26.216 519.481 24.553 518.793 C 22.890 518.104 21.061 517.924 19.295 518.275 C 17.530 518.626 15.909 519.493 14.636 520.765 C 13.363 522.038 12.497 523.659 12.146 525.425 C 11.794 527.190 11.975 529.020 12.663 530.682 C 13.352 532.345 14.519 533.766 16.015 534.766 C 17.512 535.766 19.271 536.300 21.071 536.300 H 24.071 C 24.053 536.300 24.036 536.295 24.021 536.287 C 24.006 536.278 23.993 536.265 23.984 536.250 C 23.975 536.235 23.971 536.218 23.971 536.200 C 23.971 536.182 23.975 536.165 23.984 536.150 C 23.993 536.135 24.006 536.122 24.021 536.113 C 24.036 536.105 24.053 536.100 24.071 536.100 C 24.015 536.100 23.971 536.145 23.971 536.200 V 546.100 C 23.971 546.200 24.071 546.100 23.971 546.100 H 21.071 C 21.015 546.100 20.971 546.145 20.971 546.200 V 552.200 C 20.971 552.255 21.015 552.300 21.071 552.300 H 23.971 C 24.071 552.300 23.971 552.200 23.971 552.300 V 562.200 V 565.200 C 23.971 565.255 24.015 565.300 24.071 565.300" stroke="rgb(0,0,0)" stroke-width="0.20" />
  <path d="M 15.171 527.100 C 15.171 525.969 15.496 524.862 16.107 523.910 C 16.719 522.959 17.591 522.203 18.620 521.733 C 19.649 521.263 20.791 521.099 21.910 521.260 C 23.030 521.421 24.080 521.900 24.934 522.641 C 25.789 523.382 26.413 524.353 26.732 525.438 C 27.050 526.523 27.050 527.677 26.732 528.762 C 26.413 529.847 25.789 530.818 24.934 531.559 C 24.080 532.300 23.030 532.779 21.910 532.940 C 20.791 533.101 19.649 532.937 18.620 532.467 C 17.591 531.997 16.719 531.241 16.107 530.290 C 15.496 529.338 15.171 528.231 15.171 527.100 Z" stroke="rgb(0,0,255)" stroke-width="0.20" />
  <path d="M 22.571 522.710 H 23.971 C 24.071 522.710 23.971 522.610 23.971 522.710 V 527.000 C 23.971 527.100 24.071 527.000 23.971 527.000 H 21.171 C 21.071 527.000 21.171 527.100 21.171 527.000 V 522.710 C 21.171 522.610 21.071 522.710 21.171 522.710 H 22.571 Z" stroke="rgb(0,0,255)" stroke-width="0.20" />
</g>
<g id="p-2" style="fill:none;stroke-linecap:round;stroke-linejoin:round;">
  <text dominant-baseline="hanging" font-size="4px" style="font-family: sans-serif ; font-weight: normal; font-style: normal; fill: rgb(255,0,0)" text-anchor="middle" transform="matrix( 1.000 0.000 0.000 1.000 54.071 507.100 )">Left top side</text><path d="M 24.071 516.300 C 24.053 516.300 24.036 516.295 24.021 516.287 C 24.006 516.278 23.993 516.265 23.984 516.250 C 23.975 516.235 23.971 516.218 23.971 516.200 C 23.971 516.182 23.975 516.165 23.984 516.150 C 23.993 516.135 24.006 516.122 24.021 516.113 C 24.036 516.105 24.053 516.100 24.071 516.100 H 21.071 C 21.088 516.100 21.106 516.105 21.121 516.113 C 21.136 516.122 21.149 516.135 21.157 516.150 C 21.166 516.165 21.171 516.182 21.171 516.200 C 21.171 516.218 21.166 516.235 21.157 516.250 C 21.149 516.265 21.136 516.278 21.121 516.287 C 21.106 516.295 21.088 516.300 21.071 516.300 C 22.686 516.300 24.272 516.725 25.671 517.533 C 27.069 518.340 28.231 519.501 29.038 520.900 C 29.846 522.299 30.271 523.885 30.271 525.500 C 30.271 525.555 30.315 525.600 30.371 525.600 H 84.071 C 84.126 525.600 84.171 525.555 84.171 525.500 V 519.600 C 84.171 519.500 84.071 519.600 84.171 519.600 H 87.071 C 87.126 519.600 87.171 519.555 87.171 519.500 V 513.500 C 87.171 513.445 87.126 513.400 87.071 513.400 H 84.171 C 84.071 513.400 84.171 513.500 84.171 513.400 V 507.600 C 84.171 507.500 84.071 507.600 84.171 507.600 H 87.071 C 87.126 507.600 87.171 507.555 87.171 507.500 V 501.500 C 87.171 501.445 87.126 501.400 87.071 501.400 H 84.171 C 84.071 501.400 84.171 501.500 84.171 501.400 V 495.500 V 492.500 C 84.171 492.445 84.126 492.400 84.071 492.400 H 75.071 C 75.015 492.400 74.971 492.445 74.971 492.500 V 495.400 C 74.971 495.500 75.071 495.400 74.971 495.400 H 69.171 C 69.071 495.400 69.171 495.500 69.171 495.400 V 492.500 C 69.171 492.445 69.126 492.400 69.071 492.400 H 63.071 C 63.015 492.400 62.971 492.445 62.971 492.500 V 495.400 C 62.971 495.500 63.071 495.400 62.971 495.400 H 57.171 C 57.071 495.400 57.171 495.500 57.171 495.400 V 492.500 C 57.171 492.445 57.126 492.400 57.071 492.400 H 51.071 C 51.015 492.400 50.971 492.445 50.971 492.500 V 495.400 C 50.971 495.500 51.071 495.400 50.971 495.400 H 45.171 C 45.071 495.400 45.171 495.500 45.171 495.400 V 492.500 C 45.171 492.445 45.126 492.400 45.071 492.400 H 39.071 C 39.015 492.400 38.971 492.445 38.971 492.500 V 495.400 C 38.971 495.500 39.071 495.400 38.971 495.400 H 33.171 C 33.071 495.400 33.171 495.500 33.171 495.400 V 492.500 C 33.171 492.445 33.126 492.400 33.071 492.400 H 24.071 C 24.015 492.400 23.971 492.445 23.971 492.500 V 495.500 V 502.750 C 23.971 502.850 24.071 502.750 23.971 502.750 H 21.071 C 21.015 502.750 20.971 502.795 20.971 502.850 V 508.850 C 20.971 508.905 21.015 508.950 21.071 508.950 H 23.971 C 24.071 508.950 23.971 508.850 23.971 508.950 V 516.200 C 23.971 516.255 24.015 516.300 24.071 516.300" stroke="rgb(0,0,0)" stroke-width="0.20" />
</g>
<g id="p-3" style="fill:none;stroke-linecap:round;stroke-linejoin:round;">
  <path d="M 67.571 467.700 H 64.571 C 64.471 467.700 64.571 467.800 64.571 467.700 V 460.900 C 64.571 460.800 64.471 460.900 64.571 460.900 H 70.571 C 70.671 460.900 70.571 460.800 70.571 460.900 V 467.700 C 70.571 467.800 70.671 467.700 70.571 467.700 H 67.571 Z" stroke="rgb(0,0,255)" stroke-width="0.20" />
  <text dominant-baseline="hanging" font-size="4px" style="font-family: sans-serif ; font-weight: normal; font-style: normal; fill: rgb(255,0,0)" text-anchor="middle" transform="matrix( 1.000 0.000 0.000 1.000 45.071 469.900 )">Right bottom side</text><path d="M 15.071 490.900 H 24.071 C 24.126 490.900 24.171 490.855 24.171 490.800 V 487.900 C 24.171 487.800 24.071 487.900 24.171 487.900 H 29.971 C 30.071 487.900 29.971 487.800 29.971 487.900 V 490.800 C 29.971 490.855 30.015 490.900 30.071 490.900 H 36.071 C 36.126 490.900 36.171 490.855 36.171 490.800 V 487.900 C 36.171 487.800 36.071 487.900 36.171 487.900 H 41.971 C 42.071 487.900 41.971 487.800 41.971 487.900 V 490.800 C 41.971 490.855 42.015 490.900 42.071 490.900 H 48.071 C 48.126 490.900 48.171 490.855 48.171 490.800 V 487.900 C 48.171 487.800 48.071 487.900 48.171 487.900 H 53.971 C 54.071 487.900 53.971 487.800 53.971 487.900 V 490.800 C 53.971 490.855 54.015 490.900 54.071 490.900 H 60.071 C 60.126 490.900 60.171 490.855 60.171 490.800 V 487.900 C 60.171 487.800 60.071 487.900 60.171 487.900 H 65.971 C 66.071 487.900 65.971 487.800 65.971 487.900 V 490.800 C 65.971 490.855 66.015 490.900 66.071 490.900 H 75.071 C 75.126 490.900 75.171 490.855 75.171 490.800 V 487.800 V 477.900 C 75.171 477.800 75.071 477.900 75.171 477.900 H 78.071 C 78.126 477.900 78.171 477.855 78.171 477.800 V 471.800 C 78.171 471.745 78.126 471.700 78.071 471.700 H 75.171 C 75.071 471.700 75.171 471.800 75.171 471.700 V 461.800 C 75.171 461.745 75.126 461.700 75.071 461.700 C 75.088 461.700 75.106 461.705 75.121 461.713 C 75.136 461.722 75.149 461.735 75.157 461.750 C 75.166 461.765 75.171 461.782 75.171 461.800 C 75.171 461.818 75.166 461.835 75.157 461.850 C 75.149 461.865 75.136 461.878 75.121 461.887 C 75.106 461.895 75.088 461.900 75.071 461.900 H 78.071 C 79.871 461.900 81.630 461.366 83.126 460.366 C 84.623 459.366 85.789 457.945 86.478 456.282 C 87.167 454.620 87.347 452.790 86.996 451.025 C 86.645 449.259 85.778 447.638 84.505 446.365 C 83.233 445.093 81.611 444.226 79.846 443.875 C 78.081 443.524 76.251 443.704 74.588 444.393 C 72.925 445.081 71.504 446.248 70.504 447.744 C 69.504 449.241 68.971 451.000 68.971 452.800 C 68.971 452.745 69.015 452.700 69.071 452.700 H 15.071 C 15.015 452.700 14.971 452.745 14.971 452.800 V 461.200 C 14.971 461.300 15.071 461.200 14.971 461.200 H 12.071 C 12.015 461.200 11.971 461.245 11.971 461.300 V 467.300 C 11.971 467.355 12.015 467.400 12.071 467.400 H 14.971 C 15.071 467.400 14.971 467.300 14.971 467.400 V 473.200 C 14.971 473.300 15.071 473.200 14.971 473.200 H 12.071 C 12.015 473.200 11.971 473.245 11.971 473.300 V 479.300 C 11.971 479.355 12.015 479.400 12.071 479.400 H 14.971 C 15.071 479.400 14.971 479.300 14.971 479.400 V 487.800 V 490.800 C 14.971 490.855 15.015 490.900 15.071 490.900" stroke="rgb(0,0,0)" stroke-width="0.20" />
  <path d="M 72.171 452.700 C 72.171 451.569 72.496 450.462 73.107 449.510 C 73.719 448.559 74.591 447.803 75.620 447.333 C 76.649 446.863 77.791 446.699 78.910 446.860 C 80.030 447.021 81.080 447.500 81.934 448.241 C 82.789 448.982 83.413 449.953 83.732 451.038 C 84.050 452.123 84.050 453.277 83.732 454.362 C 83.413 455.447 82.789 456.418 81.934 457.159 C 81.080 457.900 80.030 458.379 78.910 458.540 C 77.791 458.701 76.649 458.537 75.620 458.067 C 74.591 457.597 73.719 456.841 73.107 455.890 C 72.496 454.938 72.171 453.831 72.171 452.700 Z" stroke="rgb(0,0,255)" stroke-width="0.20" />
  <path d="M 76.571 448.310 H 77.971 C 78.071 448.310 77.971 448.210 77.971 448.310 V 452.600 C 77.971 452.700 78.071 452.600 77.971 452.600 H 75.171 C 75.071 452.600 75.171 452.700 75.171 452.600 V 448.310 C 75.171 448.210 75.071 448.310 75.171 448.310 H 76.571 Z" stroke="rgb(0,0,255)" stroke-width="0.20" />
</g>
<g id="p-4" style="fill:none;stroke-linecap:round;stroke-linejoin:round;">
  <text dominant-baseline="hanging" font-size="4px" style="font-family: sans-serif ; font-weight: normal; font-style: normal; fill: rgb(255,0,0)" text-anchor="middle" transform="matrix( 1.000 0.000 0.000 1.000 45.071 432.700 )">Right top side</text><path d="M 15.071 451.200 H 68.771 C 68.826 451.200 68.871 451.155 68.871 451.100 C 68.871 449.485 69.296 447.899 70.103 446.500 C 70.911 445.101 72.072 443.940 73.471 443.133 C 74.869 442.325 76.456 441.900 78.071 441.900 C 78.053 441.900 78.036 441.895 78.021 441.887 C 78.006 441.878 77.993 441.865 77.984 441.850 C 77.975 441.835 77.971 441.818 77.971 441.800 C 77.971 441.782 77.975 441.765 77.984 441.750 C 77.993 441.735 78.006 441.722 78.021 441.713 C 78.036 441.705 78.053 441.700 78.071 441.700 H 75.071 C 75.088 441.700 75.106 441.705 75.121 441.713 C 75.136 441.722 75.149 441.735 75.157 441.750 C 75.166 441.765 75.171 441.782 75.171 441.800 C 75.171 441.818 75.166 441.835 75.157 441.850 C 75.149 441.865 75.136 441.878 75.121 441.887 C 75.106 441.895 75.088 441.900 75.071 441.900 C 75.126 441.900 75.171 441.855 75.171 441.800 V 434.550 C 75.171 434.450 75.071 434.550 75.171 434.550 H 78.071 C 78.126 434.550 78.171 434.505 78.171 434.450 V 428.450 C 78.171 428.395 78.126 428.350 78.071 428.350 H 75.171 C 75.071 428.350 75.171 428.450 75.171 428.350 V 421.100 V 418.100 C 75.171 418.045 75.126 418.000 75.071 418.000 H 66.071 C 66.015 418.000 65.971 418.045 65.971 418.100 V 421.000 C 65.971 421.100 66.071 421.000 65.971 421.000 H 60.171 C 60.071 421.000 60.171 421.100 60.171 421.000 V 418.100 C 60.171 418.045 60.126 418.000 60.071 418.000 H 54.071 C 54.015 418.000 53.971 418.045 53.971 418.100 V 421.000 C 53.971 421.100 54.071 421.000 53.971 421.000 H 48.171 C 48.071 421.000 48.171 421.100 48.171 421.000 V 418.100 C 48.171 418.045 48.126 418.000 48.071 418.000 H 42.071 C 42.015 418.000 41.971 418.045 41.971 418.100 V 421.000 C 41.971 421.100 42.071 421.000 41.971 421.000 H 36.171 C 36.071 421.000 36.171 421.100 36.171 421.000 V 418.100 C 36.171 418.045 36.126 418.000 36.071 418.000 H 30.071 C 30.015 418.000 29.971 418.045 29.971 418.100 V 421.000 C 29.971 421.100 30.071 421.000 29.971 421.000 H 24.171 C 24.071 421.000 24.171 421.100 24.171 421.000 V 418.100 C 24.171 418.045 24.126 418.000 24.071 418.000 H 15.071 C 15.015 418.000 14.971 418.045 14.971 418.100 V 421.100 V 427.000 C 14.971 427.100 15.071 427.000 14.971 427.000 H 12.071 C 12.015 427.000 11.971 427.045 11.971 427.100 V 433.100 C 11.971 433.155 12.015 433.200 12.071 433.200 H 14.971 C 15.071 433.200 14.971 433.100 14.971 433.200 V 439.000 C 14.971 439.100 15.071 439.000 14.971 439.000 H 12.071 C 12.015 439.000 11.971 439.045 11.971 439.100 V 445.100 C 11.971 445.155 12.015 445.200 12.071 445.200 H 14.971 C 15.071 445.200 14.971 445.100 14.971 445.200 V 451.100 C 14.971 451.155 15.015 451.200 15.071 451.200" stroke="rgb(0,0,0)" stroke-width="0.20" />
  <path d="M 49.071 434.200 H 54.971 C 55.071 434.200 54.971 434.100 54.971 434.200 V 444.000 C 54.971 444.100 55.071 444.000 54.971 444.000 H 43.171 C 43.071 444.000 43.171 444.100 43.171 444.000 V 434.200 C 43.171 434.100 43.071 434.200 43.171 434.200 H 49.071 Z" stroke="rgb(0,0,255)" stroke-width="0.20" />
</g>
<g id="p-5" style="fill:none;stroke-linecap:round;stroke-linejoin:round;">
  <text dominant-baseline="hanging" font-size="4px" style="font-family: sans-serif ; font-weight: normal; font-style: normal; fill: rgb(255,0,0)" text-anchor="middle" transform="matrix( 1.000 0.000 0.000 1.000 45.071 395.500 )">Lower front</text><path d="M 15.071 416.500 H 24.071 C 24.126 416.500 24.171 416.455 24.171 416.400 V 413.500 C 24.171 413.400 24.071 413.500 24.171 413.500 H 29.971 C 30.071 413.500 29.971 413.400 29.971 413.500 V 416.400 C 29.971 416.455 30.015 416.500 30.071 416.500 H 36.071 C 36.126 416.500 36.171 416.455 36.171 416.400 V 413.500 C 36.171 413.400 36.071 413.500 36.171 413.500 H 41.971 C 42.071 413.500 41.971 413.400 41.971 413.500 V 416.400 C 41.971 416.455 42.015 416.500 42.071 416.500 H 48.071 C 48.126 416.500 48.171 416.455 48.171 416.400 V 413.500 C 48.171 413.400 48.071 413.500 48.171 413.500 H 53.971 C 54.071 413.500 53.971 413.400 53.971 413.500 V 416.400 C 53.971 416.455 54.015 416.500 54.071 416.500 H 60.071 C 60.126 416.500 60.171 416.455 60.171 416.400 V 413.500 C 60.171 413.400 60.071 413.500 60.171 413.500 H 65.971 C 66.071 413.500 65.971 413.400 65.971 413.500 V 416.400 C 65.971 416.455 66.015 416.500 66.071 416.500 H 75.071 H 78.071 C 78.126 416.500 78.171 416.455 78.171 416.400 V 413.400 V 404.900 C 78.171 404.845 78.126 404.800 78.071 404.800 H 75.171 C 75.071 404.800 75.171 404.900 75.171 404.800 V 399.000 C 75.171 398.900 75.071 399.000 75.171 399.000 H 78.071 C 78.126 399.000 78.171 398.955 78.171 398.900 V 392.900 C 78.171 392.845 78.126 392.800 78.071 392.800 H 75.171 C 75.071 392.800 75.171 392.900 75.171 392.800 V 387.000 C 75.171 386.900 75.071 387.000 75.171 387.000 H 78.071 C 78.126 387.000 78.171 386.955 78.171 386.900 V 378.400 C 78.171 378.345 78.126 378.300 78.071 378.300 H 75.071 H 15.071 H 12.071 C 12.015 378.300 11.971 378.345 11.971 378.400 V 386.900 C 11.971 386.955 12.015 387.000 12.071 387.000 H 14.971 C 15.071 387.000 14.971 386.900 14.971 387.000 V 392.800 C 14.971 392.900 15.071 392.800 14.971 392.800 H 12.071 C 12.015 392.800 11.971 392.845 11.971 392.900 V 398.900 C 11.971 398.955 12.015 399.000 12.071 399.000 H 14.971 C 15.071 399.000 14.971 398.900 14.971 399.000 V 404.800 C 14.971 404.900 15.071 404.800 14.971 404.800 H 12.071 C 12.015 404.800 11.971 404.845 11.971 404.900 V 413.400 V 416.400 C 11.971 416.455 12.015 416.500 12.071 416.500 H 15.071" stroke="rgb(0,0,0)" stroke-width="0.20" />
  <path d="M 73.571 382.250 H 74.971 C 75.071 382.250 74.971 382.150 74.971 382.250 V 384.550 C 74.971 384.650 75.071 384.550 74.971 384.550 H 72.171 C 72.071 384.550 72.171 384.650 72.171 384.550 V 382.250 C 72.171 382.150 72.071 382.250 72.171 382.250 H 73.571 Z" stroke="rgb(0,0,255)" stroke-width="0.20" />
  <path d="M 16.571 382.250 H 17.971 C 18.071 382.250 17.971 382.150 17.971 382.250 V 384.550 C 17.971 384.650 18.071 384.550 17.971 384.550 H 15.171 C 15.071 384.550 15.171 384.650 15.171 384.550 V 382.250 C 15.171 382.150 15.071 382.250 15.171 382.250 H 16.571 Z" stroke="rgb(0,0,255)" stroke-width="0.20" />
</g>
<g id="p-6" style="fill:none;stroke-linecap:round;stroke-linejoin:round;">
  <text dominant-baseline="hanging" font-size="4px" style="font-family: sans-serif ; font-weight: normal; font-style: normal; fill: rgb(255,0,0)" text-anchor="middle" transform="matrix( 1.000 0.000 0.000 1.000 45.071 355.800 )">Lower back</text><path d="M 15.071 376.800 H 24.071 C 24.126 376.800 24.171 376.755 24.171 376.700 V 373.800 C 24.171 373.700 24.071 373.800 24.171 373.800 H 29.971 C 30.071 373.800 29.971 373.700 29.971 373.800 V 376.700 C 29.971 376.755 30.015 376.800 30.071 376.800 H 36.071 C 36.126 376.800 36.171 376.755 36.171 376.700 V 373.800 C 36.171 373.700 36.071 373.800 36.171 373.800 H 41.971 C 42.071 373.800 41.971 373.700 41.971 373.800 V 376.700 C 41.971 376.755 42.015 376.800 42.071 376.800 H 48.071 C 48.126 376.800 48.171 376.755 48.171 376.700 V 373.800 C 48.171 373.700 48.071 373.800 48.171 373.800 H 53.971 C 54.071 373.800 53.971 373.700 53.971 373.800 V 376.700 C 53.971 376.755 54.015 376.800 54.071 376.800 H 60.071 C 60.126 376.800 60.171 376.755 60.171 376.700 V 373.800 C 60.171 373.700 60.071 373.800 60.171 373.800 H 65.971 C 66.071 373.800 65.971 373.700 65.971 373.800 V 376.700 C 65.971 376.755 66.015 376.800 66.071 376.800 H 75.071 H 78.071 C 78.126 376.800 78.171 376.755 78.171 376.700 V 373.700 V 363.700 C 78.171 363.645 78.126 363.600 78.071 363.600 H 75.171 C 75.071 363.600 75.171 363.700 75.171 363.600 V 357.800 C 75.171 357.700 75.071 357.800 75.171 357.800 H 78.071 C 78.126 357.800 78.171 357.755 78.171 357.700 V 347.700 C 78.171 347.645 78.126 347.600 78.071 347.600 H 75.171 C 75.071 347.600 75.171 347.700 75.171 347.600 V 338.700 C 75.171 338.645 75.126 338.600 75.071 338.600 H 15.071 C 15.015 338.600 14.971 338.645 14.971 338.700 V 347.600 C 14.971 347.700 15.071 347.600 14.971 347.600 H 12.071 C 12.015 347.600 11.971 347.645 11.971 347.700 V 357.700 C 11.971 357.755 12.015 357.800 12.071 357.800 H 14.971 C 15.071 357.800 14.971 357.700 14.971 357.800 V 363.600 C 14.971 363.700 15.071 363.600 14.971 363.600 H 12.071 C 12.015 363.600 11.971 363.645 11.971 363.700 V 373.700 V 376.700 C 11.971 376.755 12.015 376.800 12.071 376.800 H 15.071" stroke="rgb(0,0,0)" stroke-width="0.20" />
</g>
<g id="p-7" style="fill:none;stroke-linecap:round;stroke-linejoin:round;">
  <path d="M 65.971 319.000 C 65.971 320.514 65.535 321.997 64.717 323.271 C 63.898 324.545 62.730 325.557 61.352 326.186 C 59.975 326.815 58.445 327.035 56.946 326.820 C 55.447 326.604 54.042 325.962 52.897 324.970 C 51.753 323.979 50.917 322.679 50.491 321.226 C 50.064 319.773 50.064 318.227 50.491 316.774 C 50.917 315.321 51.753 314.021 52.897 313.030 C 54.042 312.038 55.447 311.396 56.946 311.180 C 58.445 310.965 59.975 311.185 61.352 311.814 C 62.730 312.443 63.898 313.455 64.717 314.729 C 65.535 316.003 65.971 317.486 65.971 319.000 Z" stroke="rgb(0,0,255)" stroke-width="0.20" />
  <path d="M 39.971 319.000 C 39.971 320.514 39.535 321.997 38.717 323.271 C 37.898 324.545 36.730 325.557 35.352 326.186 C 33.975 326.815 32.445 327.035 30.946 326.820 C 29.447 326.604 28.042 325.962 26.897 324.970 C 25.753 323.979 24.917 322.679 24.491 321.226 C 24.064 319.773 24.064 318.227 24.491 316.774 C 24.917 315.321 25.753 314.021 26.897 313.030 C 28.042 312.038 29.447 311.396 30.946 311.180 C 32.445 310.965 33.975 311.185 35.352 311.814 C 36.730 312.443 37.898 313.455 38.717 314.729 C 39.535 316.003 39.971 317.486 39.971 319.000 Z" stroke="rgb(0,0,255)" stroke-width="0.20" />
  <text dominant-baseline="hanging" font-size="4px" style="font-family: sans-serif ; font-weight: normal; font-style: normal; fill: rgb(255,0,0)" text-anchor="middle" transform="matrix( 1.000 0.000 0.000 1.000 45.071 318.600 )">Upper front</text><path d="M 15.071 337.100 H 24.071 C 24.126 337.100 24.171 337.055 24.171 337.000 V 334.100 C 24.171 334.000 24.071 334.100 24.171 334.100 H 29.971 C 30.071 334.100 29.971 334.000 29.971 334.100 V 337.000 C 29.971 337.055 30.015 337.100 30.071 337.100 H 36.071 C 36.126 337.100 36.171 337.055 36.171 337.000 V 334.100 C 36.171 334.000 36.071 334.100 36.171 334.100 H 41.971 C 42.071 334.100 41.971 334.000 41.971 334.100 V 337.000 C 41.971 337.055 42.015 337.100 42.071 337.100 H 48.071 C 48.126 337.100 48.171 337.055 48.171 337.000 V 334.100 C 48.171 334.000 48.071 334.100 48.171 334.100 H 53.971 C 54.071 334.100 53.971 334.000 53.971 334.100 V 337.000 C 53.971 337.055 54.015 337.100 54.071 337.100 H 60.071 C 60.126 337.100 60.171 337.055 60.171 337.000 V 334.100 C 60.171 334.000 60.071 334.100 60.171 334.100 H 65.971 C 66.071 334.100 65.971 334.000 65.971 334.100 V 337.000 C 65.971 337.055 66.015 337.100 66.071 337.100 H 75.071 H 78.071 C 78.126 337.100 78.171 337.055 78.171 337.000 V 334.000 V 328.000 C 78.171 327.945 78.126 327.900 78.071 327.900 H 75.171 C 75.071 327.900 75.171 328.000 75.171 327.900 V 322.100 C 75.171 322.000 75.071 322.100 75.171 322.100 H 78.071 C 78.126 322.100 78.171 322.055 78.171 322.000 V 316.000 C 78.171 315.945 78.126 315.900 78.071 315.900 H 75.171 C 75.071 315.900 75.171 316.000 75.171 315.900 V 310.100 C 75.171 310.000 75.071 310.100 75.171 310.100 H 78.071 C 78.126 310.100 78.171 310.055 78.171 310.000 V 304.000 C 78.171 303.945 78.126 303.900 78.071 303.900 H 75.071 H 15.071 H 12.071 C 12.015 303.900 11.971 303.945 11.971 304.000 V 310.000 C 11.971 310.055 12.015 310.100 12.071 310.100 H 14.971 C 15.071 310.100 14.971 310.000 14.971 310.100 V 315.900 C 14.971 316.000 15.071 315.900 14.971 315.900 H 12.071 C 12.015 315.900 11.971 315.945 11.971 316.000 V 322.000 C 11.971 322.055 12.015 322.100 12.071 322.100 H 14.971 C 15.071 322.100 14.971 322.000 14.971 322.100 V 327.900 C 14.971 328.000 15.071 327.900 14.971 327.900 H 12.071 C 12.015 327.900 11.971 327.945 11.971 328.000 V 334.000 V 337.000 C 11.971 337.055 12.015 337.100 12.071 337.100 H 15.071" stroke="rgb(0,0,0)" stroke-width="0.20" />
</g>
<g id="p-8" style="fill:none;stroke-linecap:round;stroke-linejoin:round;">
  <text dominant-baseline="hanging" font-size="4px" style="font-family: sans-serif ; font-weight: normal; font-style: normal; fill: rgb(255,0,0)" text-anchor="middle" transform="matrix( 1.000 0.000 0.000 1.000 45.071 284.050 )">Upper back</text><path d="M 15.071 302.400 H 24.071 C 24.126 302.400 24.171 302.355 24.171 302.300 V 299.400 C 24.171 299.300 24.071 299.400 24.171 299.400 H 29.971 C 30.071 299.400 29.971 299.300 29.971 299.400 V 302.300 C 29.971 302.355 30.015 302.400 30.071 302.400 H 36.071 C 36.126 302.400 36.171 302.355 36.171 302.300 V 299.400 C 36.171 299.300 36.071 299.400 36.171 299.400 H 41.971 C 42.071 299.400 41.971 299.300 41.971 299.400 V 302.300 C 41.971 302.355 42.015 302.400 42.071 302.400 H 48.071 C 48.126 302.400 48.171 302.355 48.171 302.300 V 299.400 C 48.171 299.300 48.071 299.400 48.171 299.400 H 53.971 C 54.071 299.400 53.971 299.300 53.971 299.400 V 302.300 C 53.971 302.355 54.015 302.400 54.071 302.400 H 60.071 C 60.126 302.400 60.171 302.355 60.171 302.300 V 299.400 C 60.171 299.300 60.071 299.400 60.171 299.400 H 65.971 C 66.071 299.400 65.971 299.300 65.971 299.400 V 302.300 C 65.971 302.355 66.015 302.400 66.071 302.400 H 75.071 H 78.071 C 78.126 302.400 78.171 302.355 78.171 302.300 V 299.300 V 291.950 C 78.171 291.895 78.126 291.850 78.071 291.850 H 75.171 C 75.071 291.850 75.171 291.950 75.171 291.850 V 286.050 C 75.171 285.950 75.071 286.050 75.171 286.050 H 78.071 C 78.126 286.050 78.171 286.005 78.171 285.950 V 278.600 C 78.171 278.545 78.126 278.500 78.071 278.500 H 75.171 C 75.071 278.500 75.171 278.600 75.171 278.500 V 274.190 C 75.171 274.090 75.071 274.190 75.171 274.190 H 78.071 C 78.126 274.190 78.171 274.145 78.171 274.090 V 269.600 C 78.171 269.545 78.126 269.500 78.071 269.500 H 12.071 C 12.015 269.500 11.971 269.545 11.971 269.600 V 274.090 C 11.971 274.145 12.015 274.190 12.071 274.190 H 14.971 C 15.071 274.190 14.971 274.090 14.971 274.190 V 278.500 C 14.971 278.600 15.071 278.500 14.971 278.500 H 12.071 C 12.015 278.500 11.971 278.545 11.971 278.600 V 285.950 C 11.971 286.005 12.015 286.050 12.071 286.050 H 14.971 C 15.071 286.050 14.971 285.950 14.971 286.050 V 291.850 C 14.971 291.950 15.071 291.850 14.971 291.850 H 12.071 C 12.015 291.850 11.971 291.895 11.971 291.950 V 299.300 V 302.300 C 11.971 302.355 12.015 302.400 12.071 302.400 H 15.071" stroke="rgb(0,0,0)" stroke-width="0.20" />
</g>
<g id="p-9" style="fill:none;stroke-linecap:round;stroke-linejoin:round;">
  <text dominant-baseline="hanging" font-size="4px" style="font-family: sans-serif ; font-weight: normal; font-style: normal; fill: rgb(255,0,0)" text-anchor="middle" transform="matrix( 1.000 0.000 0.000 1.000 45.071 233.000 )">Top</text><path d="M 15.071 265.000 H 23.971 C 24.071 265.000 23.971 264.900 23.971 265.000 V 267.900 C 23.971 267.955 24.015 268.000 24.071 268.000 H 30.071 C 30.126 268.000 30.171 267.955 30.171 267.900 V 265.000 C 30.171 264.900 30.071 265.000 30.171 265.000 H 35.971 C 36.071 265.000 35.971 264.900 35.971 265.000 V 267.900 C 35.971 267.955 36.015 268.000 36.071 268.000 H 42.071 C 42.126 268.000 42.171 267.955 42.171 267.900 V 265.000 C 42.171 264.900 42.071 265.000 42.171 265.000 H 47.971 C 48.071 265.000 47.971 264.900 47.971 265.000 V 267.900 C 47.971 267.955 48.015 268.000 48.071 268.000 H 54.071 C 54.126 268.000 54.171 267.955 54.171 267.900 V 265.000 C 54.171 264.900 54.071 265.000 54.171 265.000 H 59.971 C 60.071 265.000 59.971 264.900 59.971 265.000 V 267.900 C 59.971 267.955 60.015 268.000 60.071 268.000 H 66.071 C 66.126 268.000 66.171 267.955 66.171 267.900 V 265.000 C 66.171 264.900 66.071 265.000 66.171 265.000 H 75.071 C 75.126 265.000 75.171 264.955 75.171 264.900 V 256.000 C 75.171 255.900 75.071 256.000 75.171 256.000 H 78.071 C 78.126 256.000 78.171 255.955 78.171 255.900 V 249.900 C 78.171 249.845 78.126 249.800 78.071 249.800 H 75.171 C 75.071 249.800 75.171 249.900 75.171 249.800 V 244.000 C 75.171 243.900 75.071 244.000 75.171 244.000 H 78.071 C 78.126 244.000 78.171 243.955 78.171 243.900 V 237.900 C 78.171 237.845 78.126 237.800 78.071 237.800 H 75.171 C 75.071 237.800 75.171 237.900 75.171 237.800 V 232.000 C 75.171 231.900 75.071 232.000 75.171 232.000 H 78.071 C 78.126 232.000 78.171 231.955 78.171 231.900 V 225.900 C 78.171 225.845 78.126 225.800 78.071 225.800 H 75.171 C 75.071 225.800 75.171 225.900 75.171 225.800 V 220.000 C 75.171 219.900 75.071 220.000 75.171 220.000 H 78.071 C 78.126 220.000 78.171 219.955 78.171 219.900 V 213.900 C 78.171 213.845 78.126 213.800 78.071 213.800 H 75.171 C 75.071 213.800 75.171 213.900 75.171 213.800 V 204.900 C 75.171 204.845 75.126 204.800 75.071 204.800 H 66.171 C 66.071 204.800 66.171 204.900 66.171 204.800 V 201.900 C 66.171 201.845 66.126 201.800 66.071 201.800 H 60.071 C 60.015 201.800 59.971 201.845 59.971 201.900 V 204.800 C 59.971 204.900 60.071 204.800 59.971 204.800 H 54.171 C 54.071 204.800 54.171 204.900 54.171 204.800 V 201.900 C 54.171 201.845 54.126 201.800 54.071 201.800 H 48.071 C 48.015 201.800 47.971 201.845 47.971 201.900 V 204.800 C 47.971 204.900 48.071 204.800 47.971 204.800 H 42.171 C 42.071 204.800 42.171 204.900 42.171 204.800 V 201.900 C 42.171 201.845 42.126 201.800 42.071 201.800 H 36.071 C 36.015 201.800 35.971 201.845 35.971 201.900 V 204.800 C 35.971 204.900 36.071 204.800 35.971 204.800 H 30.171 C 30.071 204.800 30.171 204.900 30.171 204.800 V 201.900 C 30.171 201.845 30.126 201.800 30.071 201.800 H 24.071 C 24.015 201.800 23.971 201.845 23.971 201.900 V 204.800 C 23.971 204.900 24.071 204.800 23.971 204.800 H 15.071 C 15.015 204.800 14.971 204.845 14.971 204.900 V 213.800 C 14.971 213.900 15.071 213.800 14.971 213.800 H 12.071 C 12.015 213.800 11.971 213.845 11.971 213.900 V 219.900 C 11.971 219.955 12.015 220.000 12.071 220.000 H 14.971 C 15.071 220.000 14.971 219.900 14.971 220.000 V 225.800 C 14.971 225.900 15.071 225.800 14.971 225.800 H 12.071 C 12.015 225.800 11.971 225.845 11.971 225.900 V 231.900 C 11.971 231.955 12.015 232.000 12.071 232.000 H 14.971 C 15.071 232.000 14.971 231.900 14.971 232.000 V 237.800 C 14.971 237.900 15.071 237.800 14.971 237.800 H 12.071 C 12.015 237.800 11.971 237.845 11.971 237.900 V 243.900 C 11.971 243.955 12.015 244.000 12.071 244.000 H 14.971 C 15.071 244.000 14.971 243.900 14.971 244.000 V 249.800 C 14.971 249.900 15.071 249.800 14.971 249.800 H 12.071 C 12.015 249.800 11.971 249.845 11.971 249.900 V 255.900 C 11.971 255.955 12.015 256.000 12.071 256.000 H 14.971 C 15.071 256.000 14.971 255.900 14.971 256.000 V 264.900 C 14.971 264.955 15.015 265.000 15.071 265.000" stroke="rgb(0,0,0)" stroke-width="0.20" />
</g>
<g id="p-10" style="fill:none;stroke-linecap:round;stroke-linejoin:round;">
  <path d="M 26.971 167.200 C 26.971 168.331 26.646 169.438 26.034 170.390 C 25.423 171.341 24.551 172.097 23.522 172.567 C 22.493 173.037 21.351 173.201 20.231 173.040 C 19.112 172.879 18.062 172.400 17.207 171.659 C 16.352 170.918 15.728 169.947 15.410 168.862 C 15.091 167.777 15.091 166.623 15.410 165.538 C 15.728 164.453 16.352 163.482 17.207 162.741 C 18.062 162.000 19.112 161.521 20.231 161.360 C 21.351 161.199 22.493 161.363 23.522 161.833 C 24.551 162.303 25.423 163.059 26.034 164.010 C 26.646 164.962 26.971 166.069 26.971 167.200 Z" stroke="rgb(0,0,255)" stroke-width="0.20" />
  <path d="M 23.971 173.200 C 23.971 173.756 23.811 174.300 23.510 174.768 C 23.210 175.236 22.781 175.607 22.275 175.838 C 21.770 176.069 21.208 176.150 20.658 176.070 C 20.108 175.991 19.592 175.756 19.172 175.392 C 18.751 175.028 18.445 174.550 18.288 174.017 C 18.132 173.484 18.132 172.916 18.288 172.383 C 18.445 171.850 18.751 171.372 19.172 171.008 C 19.592 170.644 20.108 170.409 20.658 170.330 C 21.208 170.250 21.770 170.331 22.275 170.562 C 22.781 170.793 23.210 171.164 23.510 171.632 C 23.811 172.100 23.971 172.644 23.971 173.200 Z" stroke="rgb(0,0,255)" stroke-width="0.20" />
  <path d="M 74.971 167.200 C 74.971 168.331 74.646 169.438 74.034 170.390 C 73.423 171.341 72.551 172.097 71.522 172.567 C 70.493 173.037 69.351 173.201 68.231 173.040 C 67.112 172.879 66.062 172.400 65.207 171.659 C 64.352 170.918 63.728 169.947 63.410 168.862 C 63.091 167.777 63.091 166.623 63.410 165.538 C 63.728 164.453 64.352 163.482 65.207 162.741 C 66.062 162.000 67.112 161.521 68.231 161.360 C 69.351 161.199 70.493 161.363 71.522 161.833 C 72.551 162.303 73.423 163.059 74.034 164.010 C 74.646 164.962 74.971 166.069 74.971 167.200 Z" stroke="rgb(0,0,255)" stroke-width="0.20" />
  <path d="M 71.971 173.200 C 71.971 173.756 71.811 174.300 71.510 174.768 C 71.210 175.236 70.781 175.607 70.275 175.838 C 69.770 176.069 69.208 176.150 68.658 176.070 C 68.108 175.991 67.592 175.756 67.172 175.392 C 66.751 175.028 66.445 174.550 66.288 174.017 C 66.132 173.484 66.132 172.916 66.288 172.383 C 66.445 171.850 66.751 171.372 67.172 171.008 C 67.592 170.644 68.108 170.409 68.658 170.330 C 69.208 170.250 69.770 170.331 70.275 170.562 C 70.781 170.793 71.210 171.164 71.510 171.632 C 71.811 172.100 71.971 172.644 71.971 173.200 Z" stroke="rgb(0,0,255)" stroke-width="0.20" />
  <path d="M 45.071 169.600 H 41.571 C 41.325 169.600 41.084 169.535 40.871 169.412 C 40.658 169.290 40.481 169.113 40.358 168.900 C 40.235 168.687 40.171 168.446 40.171 168.200 V 166.200 C 40.171 165.954 40.235 165.713 40.358 165.500 C 40.481 165.287 40.658 165.110 40.871 164.988 C 41.084 164.865 41.325 164.800 41.571 164.800 H 48.571 C 48.816 164.800 49.058 164.865 49.271 164.988 C 49.484 165.110 49.660 165.287 49.783 165.500 C 49.906 165.713 49.971 165.954 49.971 166.200 V 168.200 C 49.971 168.446 49.906 168.687 49.783 168.900 C 49.660 169.113 49.484 169.290 49.271 169.412 C 49.058 169.535 48.816 169.600 48.571 169.600 H 45.071 Z" stroke="rgb(0,0,255)" stroke-width="0.20" />
  <path d="M 68.071 141.900 H 64.671 C 64.571 141.900 64.671 142.000 64.671 141.900 V 138.100 C 64.671 138.000 64.571 138.100 64.671 138.100 H 71.471 C 71.571 138.100 71.471 138.000 71.471 138.100 V 141.900 C 71.471 142.000 71.571 141.900 71.471 141.900 H 68.071 Z" stroke="rgb(0,0,255)" stroke-width="0.20" />
  <path d="M 20.971 146.664 C 20.971 146.837 20.921 147.006 20.828 147.151 C 20.735 147.296 20.602 147.411 20.445 147.483 C 20.288 147.554 20.113 147.579 19.943 147.555 C 19.772 147.530 19.612 147.457 19.481 147.344 C 19.351 147.231 19.256 147.083 19.207 146.918 C 19.159 146.752 19.159 146.576 19.207 146.411 C 19.256 146.245 19.351 146.097 19.481 145.984 C 19.612 145.871 19.772 145.798 19.943 145.773 C 20.113 145.749 20.288 145.774 20.445 145.845 C 20.602 145.917 20.735 146.032 20.828 146.178 C 20.921 146.323 20.971 146.492 20.971 146.664 Z" stroke="rgb(0,0,255)" stroke-width="0.20" />
  <path d="M 24.971 146.664 C 24.971 146.837 24.921 147.006 24.828 147.151 C 24.735 147.296 24.602 147.411 24.445 147.483 C 24.288 147.554 24.113 147.579 23.943 147.555 C 23.772 147.530 23.612 147.457 23.481 147.344 C 23.351 147.231 23.256 147.083 23.207 146.918 C 23.159 146.752 23.159 146.576 23.207 146.411 C 23.256 146.245 23.351 146.097 23.481 145.984 C 23.612 145.871 23.772 145.798 23.943 145.773 C 24.113 145.749 24.288 145.774 24.445 145.845 C 24.602 145.917 24.735 146.032 24.828 146.178 C 24.921 146.323 24.971 146.492 24.971 146.664 Z" stroke="rgb(0,0,255)" stroke-width="0.20" />
  <path d="M 18.971 143.200 C 18.971 143.373 18.921 143.541 18.828 143.687 C 18.735 143.832 18.602 143.947 18.445 144.019 C 18.288 144.090 18.113 144.115 17.943 144.091 C 17.772 144.066 17.612 143.993 17.481 143.880 C 17.351 143.767 17.256 143.619 17.207 143.454 C 17.159 143.288 17.159 143.112 17.207 142.946 C 17.256 142.781 17.351 142.633 17.481 142.520 C 17.612 142.407 17.772 142.334 17.943 142.309 C 18.113 142.285 18.288 142.310 18.445 142.381 C 18.602 142.453 18.735 142.568 18.828 142.713 C 18.921 142.859 18.971 143.027 18.971 143.200 Z" stroke="rgb(0,0,255)" stroke-width="0.20" />
  <path d="M 22.971 143.200 C 22.971 143.373 22.921 143.541 22.828 143.687 C 22.735 143.832 22.602 143.947 22.445 144.019 C 22.288 144.090 22.113 144.115 21.943 144.091 C 21.772 144.066 21.612 143.993 21.481 143.880 C 21.351 143.767 21.256 143.619 21.207 143.454 C 21.159 143.288 21.159 143.112 21.207 142.946 C 21.256 142.781 21.351 142.633 21.481 142.520 C 21.612 142.407 21.772 142.334 21.943 142.309 C 22.113 142.285 22.288 142.310 22.445 142.381 C 22.602 142.453 22.735 142.568 22.828 142.713 C 22.921 142.859 22.971 143.027 22.971 143.200 Z" stroke="rgb(0,0,255)" stroke-width="0.20" />
  <path d="M 26.971 143.200 C 26.971 143.373 26.921 143.541 26.828 143.687 C 26.735 143.832 26.602 143.947 26.445 144.019 C 26.288 144.090 26.113 144.115 25.943 144.091 C 25.772 144.066 25.612 143.993 25.481 143.880 C 25.351 143.767 25.256 143.619 25.207 143.454 C 25.159 143.288 25.159 143.112 25.207 142.946 C 25.256 142.781 25.351 142.633 25.481 142.520 C 25.612 142.407 25.772 142.334 25.943 142.309 C 26.113 142.285 26.288 142.310 26.445 142.381 C 26.602 142.453 26.735 142.568 26.828 142.713 C 26.921 142.859 26.971 143.027 26.971 143.200 Z" stroke="rgb(0,0,255)" stroke-width="0.20" />
  <path d="M 20.971 139.736 C 20.971 139.908 20.921 140.077 20.828 140.222 C 20.735 140.368 20.602 140.483 20.445 140.555 C 20.288 140.626 20.113 140.651 19.943 140.627 C 19.772 140.602 19.612 140.529 19.481 140.416 C 19.351 140.303 19.256 140.155 19.207 139.989 C 19.159 139.824 19.159 139.648 19.207 139.482 C 19.256 139.317 19.351 139.169 19.481 139.056 C 19.612 138.943 19.772 138.870 19.943 138.845 C 20.113 138.821 20.288 138.846 20.445 138.917 C 20.602 138.989 20.735 139.104 20.828 139.249 C 20.921 139.394 20.971 139.563 20.971 139.736 Z" stroke="rgb(0,0,255)" stroke-width="0.20" />
  <path d="M 24.971 139.736 C 24.971 139.908 24.921 140.077 24.828 140.222 C 24.735 140.368 24.602 140.483 24.445 140.555 C 24.288 140.626 24.113 140.651 23.943 140.627 C 23.772 140.602 23.612 140.529 23.481 140.416 C 23.351 140.303 23.256 140.155 23.207 139.989 C 23.159 139.824 23.159 139.648 23.207 139.482 C 23.256 139.317 23.351 139.169 23.481 139.056 C 23.612 138.943 23.772 138.870 23.943 138.845 C 24.113 138.821 24.288 138.846 24.445 138.917 C 24.602 138.989 24.735 139.104 24.828 139.249 C 24.921 139.394 24.971 139.563 24.971 139.736 Z" stroke="rgb(0,0,255)" stroke-width="0.20" />
  <text dominant-baseline="hanging" font-size="4px" style="font-family: sans-serif ; font-weight: normal; font-style: normal; fill: rgb(255,0,0)" text-anchor="middle" transform="matrix( 1.000 0.000 0.000 1.000 45.071 165.300 )">Bottom</text><path d="M 15.071 197.300 H 23.971 C 24.071 197.300 23.971 197.200 23.971 197.300 V 200.200 C 23.971 200.255 24.015 200.300 24.071 200.300 H 30.071 C 30.126 200.300 30.171 200.255 30.171 200.200 V 197.300 C 30.171 197.200 30.071 197.300 30.171 197.300 H 35.971 C 36.071 197.300 35.971 197.200 35.971 197.300 V 200.200 C 35.971 200.255 36.015 200.300 36.071 200.300 H 42.071 C 42.126 200.300 42.171 200.255 42.171 200.200 V 197.300 C 42.171 197.200 42.071 197.300 42.171 197.300 H 47.971 C 48.071 197.300 47.971 197.200 47.971 197.300 V 200.200 C 47.971 200.255 48.015 200.300 48.071 200.300 H 54.071 C 54.126 200.300 54.171 200.255 54.171 200.200 V 197.300 C 54.171 197.200 54.071 197.300 54.171 197.300 H 59.971 C 60.071 197.300 59.971 197.200 59.971 197.300 V 200.200 C 59.971 200.255 60.015 200.300 60.071 200.300 H 66.071 C 66.126 200.300 66.171 200.255 66.171 200.200 V 197.300 C 66.171 197.200 66.071 197.300 66.171 197.300 H 75.071 C 75.126 197.300 75.171 197.255 75.171 197.200 V 188.300 C 75.171 188.200 75.071 188.300 75.171 188.300 H 78.071 C 78.126 188.300 78.171 188.255 78.171 188.200 V 182.200 C 78.171 182.145 78.126 182.100 78.071 182.100 H 75.171 C 75.071 182.100 75.171 182.200 75.171 182.100 V 176.300 C 75.171 176.200 75.071 176.300 75.171 176.300 H 78.071 C 78.126 176.300 78.171 176.255 78.171 176.200 V 170.200 C 78.171 170.145 78.126 170.100 78.071 170.100 H 75.171 C 75.071 170.100 75.171 170.200 75.171 170.100 V 164.300 C 75.171 164.200 75.071 164.300 75.171 164.300 H 78.071 C 78.126 164.300 78.171 164.255 78.171 164.200 V 158.200 C 78.171 158.145 78.126 158.100 78.071 158.100 H 75.171 C 75.071 158.100 75.171 158.200 75.171 158.100 V 152.300 C 75.171 152.200 75.071 152.300 75.171 152.300 H 78.071 C 78.126 152.300 78.171 152.255 78.171 152.200 V 146.200 C 78.171 146.145 78.126 146.100 78.071 146.100 H 75.171 C 75.071 146.100 75.171 146.200 75.171 146.100 V 137.200 C 75.171 137.145 75.126 137.100 75.071 137.100 H 66.171 C 66.071 137.100 66.171 137.200 66.171 137.100 V 134.200 C 66.171 134.145 66.126 134.100 66.071 134.100 H 60.071 C 60.015 134.100 59.971 134.145 59.971 134.200 V 137.100 C 59.971 137.200 60.071 137.100 59.971 137.100 H 54.171 C 54.071 137.100 54.171 137.200 54.171 137.100 V 134.200 C 54.171 134.145 54.126 134.100 54.071 134.100 H 48.071 C 48.015 134.100 47.971 134.145 47.971 134.200 V 137.100 C 47.971 137.200 48.071 137.100 47.971 137.100 H 42.171 C 42.071 137.100 42.171 137.200 42.171 137.100 V 134.200 C 42.171 134.145 42.126 134.100 42.071 134.100 H 36.071 C 36.015 134.100 35.971 134.145 35.971 134.200 V 137.100 C 35.971 137.200 36.071 137.100 35.971 137.100 H 30.171 C 30.071 137.100 30.171 137.200 30.171 137.100 V 134.200 C 30.171 134.145 30.126 134.100 30.071 134.100 H 24.071 C 24.015 134.100 23.971 134.145 23.971 134.200 V 137.100 C 23.971 137.200 24.071 137.100 23.971 137.100 H 15.071 C 15.015 137.100 14.971 137.145 14.971 137.200 V 146.100 C 14.971 146.200 15.071 146.100 14.971 146.100 H 12.071 C 12.015 146.100 11.971 146.145 11.971 146.200 V 152.200 C 11.971 152.255 12.015 152.300 12.071 152.300 H 14.971 C 15.071 152.300 14.971 152.200 14.971 152.300 V 158.100 C 14.971 158.200 15.071 158.100 14.971 158.100 H 12.071 C 12.015 158.100 11.971 158.145 11.971 158.200 V 164.200 C 11.971 164.255 12.015 164.300 12.071 164.300 H 14.971 C 15.071 164.300 14.971 164.200 14.971 164.300 V 170.100 C 14.971 170.200 15.071 170.100 14.971 170.100 H 12.071 C 12.015 170.100 11.971 170.145 11.971 170.200 V 176.200 C 11.971 176.255 12.015 176.300 12.071 176.300 H 14.971 C 15.071 176.300 14.971 176.200 14.971 176.300 V 182.100 C 14.971 182.200 15.071 182.100 14.971 182.100 H 12.071 C 12.015 182.100 11.971 182.145 11.971 182.200 V 188.200 C 11.971 188.255 12.015 188.300 12.071 188.300 H 14.971 C 15.071 188.300 14.971 188.200 14.971 188.300 V 197.200 C 14.971 197.255 15.015 197.300 15.071 197.300" stroke="rgb(0,0,0)" stroke-width="0.20" />
</g>
<g id="p-11" style="fill:none;stroke-linecap:round;stroke-linejoin:round;">
  <path d="M 12.071 132.600 H 18.571 C 18.626 132.600 18.671 132.555 18.671 132.500 V 128.100 C 18.671 128.000 18.571 128.100 18.671 128.100 H 19.571 C 19.764 128.100 19.953 128.049 20.121 127.953 C 20.288 127.856 20.427 127.717 20.523 127.550 C 20.620 127.383 20.671 127.193 20.671 127.000 V 102.500 C 20.671 102.445 20.626 102.400 20.571 102.400 H 16.071 C 16.015 102.400 15.971 102.445 15.971 102.500 V 124.500 C 15.971 124.658 15.929 124.813 15.850 124.950 C 15.771 125.087 15.658 125.200 15.521 125.279 C 15.384 125.358 15.229 125.400 15.071 125.400 C 14.913 125.400 14.758 125.358 14.621 125.279 C 14.484 125.200 14.370 125.087 14.291 124.950 C 14.212 124.813 14.171 124.658 14.171 124.500 V 93.500 C 14.171 93.480 14.165 93.461 14.154 93.444 C 14.143 93.428 14.127 93.415 14.109 93.408 C 14.091 93.400 14.071 93.398 14.051 93.402 C 14.032 93.406 14.014 93.415 14.000 93.429 L 10.000 97.429 C 9.961 97.468 9.961 97.532 10.000 97.571 L 11.971 99.541 C 12.000 99.571 11.971 99.500 11.971 99.541 V 132.500" stroke="rgb(0,0,0)" stroke-width="0.20" />
</g>
<g id="p-12" style="fill:none;stroke-linecap:round;stroke-linejoin:round;">
  <path d="M 24.271 132.600 H 34.271 C 34.326 132.600 34.371 132.555 34.371 132.500 V 128.100 C 34.371 128.000 34.271 128.100 34.371 128.100 H 35.271 C 35.464 128.100 35.653 128.049 35.821 127.953 C 35.988 127.856 36.127 127.717 36.223 127.550 C 36.320 127.383 36.371 127.193 36.371 127.000 V 102.500 C 36.371 102.445 36.326 102.400 36.271 102.400 H 28.271 C 28.215 102.400 28.171 102.445 28.171 102.500 V 124.500 C 28.171 124.658 28.129 124.813 28.050 124.950 C 27.971 125.087 27.858 125.200 27.721 125.279 C 27.584 125.358 27.429 125.400 27.271 125.400 C 27.113 125.400 26.958 125.358 26.821 125.279 C 26.684 125.200 26.570 125.087 26.491 124.950 C 26.412 124.813 26.371 124.658 26.371 124.500 V 93.500 C 26.371 93.480 26.365 93.461 26.354 93.444 C 26.343 93.428 26.327 93.415 26.309 93.408 C 26.291 93.400 26.271 93.398 26.251 93.402 C 26.232 93.406 26.214 93.415 26.200 93.429 L 22.200 97.429 C 22.161 97.468 22.161 97.532 22.200 97.571 L 24.171 99.541 C 24.200 99.571 24.171 99.500 24.171 99.541 V 132.500" stroke="rgb(0,0,0)" stroke-width="0.20" />
</g>
<g id="p-13" style="fill:none;stroke-linecap:round;stroke-linejoin:round;">
  <path d="M 41.471 132.600 H 43.471 C 43.526 132.600 43.571 132.555 43.571 132.500 V 102.500 C 43.571 102.445 43.526 102.400 43.471 102.400 H 39.971 C 39.919 102.400 39.876 102.440 39.871 102.491 L 37.782 126.373 C 37.779 126.400 37.797 126.351 37.782 126.373 L 36.650 127.990 C 36.640 128.004 36.634 128.021 36.632 128.038 C 36.631 128.056 36.634 128.073 36.641 128.089 C 36.649 128.105 36.660 128.119 36.674 128.129 C 36.689 128.139 36.706 128.145 36.723 128.147 L 37.620 128.225 C 37.719 128.234 37.628 128.125 37.620 128.225 L 37.454 130.118 C 37.437 130.310 37.471 130.504 37.553 130.679 C 37.635 130.854 37.761 131.004 37.919 131.115 C 38.077 131.225 38.262 131.293 38.454 131.309 C 38.646 131.326 38.840 131.292 39.015 131.211 C 39.190 131.129 39.340 131.003 39.451 130.845 C 39.562 130.686 39.629 130.502 39.646 130.310 L 41.650 107.397 C 41.649 107.418 41.640 107.437 41.627 107.453 C 41.614 107.468 41.596 107.480 41.577 107.485 C 41.557 107.490 41.536 107.489 41.516 107.482 C 41.497 107.475 41.481 107.463 41.469 107.446 C 41.457 107.429 41.451 107.409 41.451 107.388 V 132.388" stroke="rgb(0,0,0)" stroke-width="0.20" />
</g>
<g id="p-14" style="fill:none;stroke-linecap:round;stroke-linejoin:round;">
  <path d="M 56.671 128.400 H 54.171 C 54.071 128.400 54.171 128.500 54.171 128.400 V 126.100 C 54.171 126.000 54.071 126.100 54.171 126.100 H 59.171 C 59.271 126.100 59.171 126.000 59.171 126.100 V 128.400 C 59.171 128.500 59.271 128.400 59.171 128.400 H 56.671 Z" stroke="rgb(0,0,255)" stroke-width="0.20" />
  <path d="M 56.671 123.900 H 54.171 C 54.071 123.900 54.171 124.000 54.171 123.900 V 121.600 C 54.171 121.500 54.071 121.600 54.171 121.600 H 59.171 C 59.271 121.600 59.171 121.500 59.171 121.600 V 123.900 C 59.171 124.000 59.271 123.900 59.171 123.900 H 56.671 Z" stroke="rgb(0,0,255)" stroke-width="0.20" />
  <path d="M 49.171 132.600 H 64.171 C 64.226 132.600 64.271 132.555 64.271 132.500 V 117.500 C 64.271 117.445 64.226 117.400 64.171 117.400 H 49.171 C 49.115 117.400 49.071 117.445 49.071 117.500 V 132.500 C 49.071 132.555 49.115 132.600 49.171 132.600 Z" stroke="rgb(0,0,0)" stroke-width="0.20" />
</g>
<g id="p-15" style="fill:none;stroke-linecap:round;stroke-linejoin:round;">
  <text dominant-baseline="hanging" font-size="4px" style="font-family: sans-serif ; font-weight: normal; font-style: normal; fill: rgb(255,0,0)" text-anchor="middle" transform="matrix( 1.000 0.000 0.000 1.000 42.071 30.900 )">Servo mount</text><path d="M 12.071 39.900 H 72.071 C 72.126 39.900 72.171 39.855 72.171 39.800 V 25.800 C 72.171 25.745 72.126 25.700 72.071 25.700 H 12.071 C 12.015 25.700 11.971 25.745 11.971 25.800 V 39.800 C 11.971 39.855 12.015 39.900 12.071 39.900" stroke="rgb(0,0,0)" stroke-width="0.20" />
  <path d="M 65.071 38.700 C 63.940 38.700 62.832 38.375 61.881 37.763 C 60.929 37.152 60.174 36.280 59.704 35.251 C 59.234 34.222 59.070 33.080 59.231 31.960 C 59.392 30.841 59.871 29.791 60.612 28.936 C 61.352 28.082 62.323 27.458 63.408 27.139 C 64.494 26.820 65.648 26.820 66.733 27.139 C 67.818 27.458 68.789 28.082 69.530 28.936 C 70.270 29.791 70.750 30.841 70.911 31.960 C 71.072 33.080 70.907 34.222 70.438 35.251 C 69.968 36.280 69.212 37.152 68.260 37.763 C 67.309 38.375 66.202 38.700 65.071 38.700 Z" stroke="rgb(0,0,255)" stroke-width="0.20" />
  <path d="M 51.071 32.600 C 50.917 32.600 50.767 32.556 50.638 32.473 C 50.509 32.390 50.407 32.272 50.343 32.132 C 50.279 31.993 50.257 31.838 50.279 31.686 C 50.301 31.534 50.366 31.392 50.466 31.276 C 50.567 31.160 50.698 31.076 50.845 31.032 C 50.992 30.989 51.149 30.989 51.296 31.032 C 51.443 31.076 51.575 31.160 51.675 31.276 C 51.776 31.392 51.841 31.534 51.863 31.686 C 51.884 31.838 51.862 31.993 51.798 32.132 C 51.735 32.272 51.632 32.390 51.503 32.473 C 51.374 32.556 51.224 32.600 51.071 32.600 Z" stroke="rgb(0,0,255)" stroke-width="0.20" />
  <path d="M 25.171 31.800 V 25.900 C 25.171 25.800 25.071 25.900 25.171 25.900 H 47.971 C 48.071 25.900 47.971 25.800 47.971 25.900 V 37.700 C 47.971 37.800 48.071 37.700 47.971 37.700 H 25.171 C 25.071 37.700 25.171 37.800 25.171 37.700 V 31.800 Z" stroke="rgb(0,0,255)" stroke-width="0.20" />
  <path d="M 22.071 32.600 C 21.917 32.600 21.767 32.556 21.638 32.473 C 21.509 32.390 21.407 32.272 21.343 32.132 C 21.279 31.993 21.257 31.838 21.279 31.686 C 21.301 31.534 21.366 31.392 21.466 31.276 C 21.567 31.160 21.698 31.076 21.845 31.032 C 21.992 30.989 22.149 30.989 22.296 31.032 C 22.443 31.076 22.575 31.160 22.675 31.276 C 22.776 31.392 22.841 31.534 22.863 31.686 C 22.884 31.838 22.862 31.993 22.798 32.132 C 22.735 32.272 22.632 32.390 22.503 32.473 C 22.374 32.556 22.224 32.600 22.071 32.600 Z" stroke="rgb(0,0,255)" stroke-width="0.20" />
</g>
<g id="p-16" style="fill:none;stroke-linecap:round;stroke-linejoin:round;">
  <text dominant-baseline="hanging" font-size="4px" style="font-family: sans-serif ; font-weight: normal; font-style: normal; fill: rgb(255,0,0)" text-anchor="middle" transform="matrix( 1.000 0.000 0.000 1.000 39.271 15.200 )">Servo mount</text><path d="M 12.071 24.200 H 66.471 C 66.526 24.200 66.571 24.155 66.571 24.100 V 10.100 C 66.571 10.045 66.526 10.000 66.471 10.000 H 12.071 C 12.015 10.000 11.971 10.045 11.971 10.100 V 24.100 C 11.971 24.155 12.015 24.200 12.071 24.200" stroke="rgb(0,0,0)" stroke-width="0.20" />
  <path d="M 67.071 19.000 C 66.706 19.000 66.350 18.895 66.043 18.698 C 65.737 18.501 65.494 18.221 65.342 17.889 C 65.191 17.558 65.138 17.190 65.190 16.830 C 65.242 16.469 65.396 16.131 65.635 15.856 C 65.873 15.580 66.186 15.380 66.535 15.277 C 66.885 15.174 67.257 15.174 67.606 15.277 C 67.955 15.380 68.268 15.580 68.507 15.856 C 68.745 16.131 68.900 16.469 68.951 16.830 C 69.003 17.190 68.950 17.558 68.799 17.889 C 68.648 18.221 68.404 18.501 68.098 18.698 C 67.792 18.895 67.435 19.000 67.071 19.000 Z" stroke="rgb(0,0,255)" stroke-width="0.20" />
  <path d="M 51.071 18.900 C 50.917 18.900 50.767 18.856 50.638 18.773 C 50.509 18.690 50.407 18.572 50.343 18.432 C 50.279 18.293 50.257 18.138 50.279 17.986 C 50.301 17.834 50.366 17.692 50.466 17.576 C 50.567 17.460 50.698 17.376 50.845 17.332 C 50.992 17.289 51.149 17.289 51.296 17.332 C 51.443 17.376 51.575 17.460 51.675 17.576 C 51.776 17.692 51.841 17.834 51.863 17.986 C 51.884 18.138 51.862 18.293 51.798 18.432 C 51.735 18.572 51.632 18.690 51.503 18.773 C 51.374 18.856 51.224 18.900 51.071 18.900 Z" stroke="rgb(0,0,255)" stroke-width="0.20" />
  <path d="M 25.171 18.100 V 12.200 C 25.171 12.100 25.071 12.200 25.171 12.200 H 47.971 C 48.071 12.200 47.971 12.100 47.971 12.200 V 24.000 C 47.971 24.100 48.071 24.000 47.971 24.000 H 25.171 C 25.071 24.000 25.171 24.100 25.171 24.000 V 18.100 Z" stroke="rgb(0,0,255)" stroke-width="0.20" />
  <path d="M 22.071 18.900 C 21.917 18.900 21.767 18.856 21.638 18.773 C 21.509 18.690 21.407 18.572 21.343 18.432 C 21.279 18.293 21.257 18.138 21.279 17.986 C 21.301 17.834 21.366 17.692 21.466 17.576 C 21.567 17.460 21.698 17.376 21.845 17.332 C 21.992 17.289 22.149 17.289 22.296 17.332 C 22.443 17.376 22.575 17.460 22.675 17.576 C 22.776 17.692 22.841 17.834 22.863 17.986 C 22.884 18.138 22.862 18.293 22.798 18.432 C 22.735 18.572 22.632 18.690 22.503 18.773 C 22.374 18.856 22.224 18.900 22.071 18.900 Z" stroke="rgb(0,0,255)" stroke-width="0.20" />
</g>
</svg>