<?xml version='1.0' encoding='utf-8'?>
<svg height="203.90mm" viewBox="0.0 0.0 426.23 203.90" width="426.23mm" xmlns="http://www.w3.org/2000/svg" xmlns:cc="http://creativecommons.org/ns#" xmlns:dc="http://purl.org/dc/elements/1.1/" xmlns:inkscape="http://www.inkscape.org/namespaces/inkscape" xmlns:rdf="http://www.w3.org/1999/02/22-rdf-syntax-ns#" xmlns:svg="http://www.w3.org/2000/svg" xmlns:xlink="http://www.w3.org/1999/xlink">
<!--
PhoneHolder - 
    Smartphone desk holder
    



    This phone stand holds your phone between two tabs, with access to its
    bottom, in order to connect a charger, headphones, and also not to obstruct
    the mic.

    Default values are currently based on Galaxy S7.



Created with Boxes.py (https://festi.info/boxes.py)
Command line (remove spaces between dashes): boxes PhoneHolder
-->
<title>PhoneHolder</title>
<metadata>
<rdf:RDF><cc:Work>
<dc:title>Misc - PhoneHolder</dc:title>
<dc:source>boxes PhoneHolder</dc:source>
<dc:description>
    Smartphone desk holder
    


    This phone stand holds your phone between two tabs, with access to its
    bottom, in order to connect a charger, headphones, and also not to obstruct
    the mic.

    Default values are currently based on Galaxy S7.


Created with Boxes.py (https://festi.info/boxes.py)
Command line: boxes PhoneHolder
Command line short: boxes PhoneHolder
</dc:description>
</cc:Work></rdf:RDF></metadata>
<g id="p-0" style="fill:none;stroke-linecap:round;stroke-linejoin:round;">
  <path d="M 18.800 193.900 H 118.800 V 183.900 H 18.800 V 193.900 Z" stroke="rgb(0,0,0)" stroke-width="0.20" />
  <text dominant-baseline="hanging" font-size="8px" style="font-family: sans-serif ; font-weight: normal; font-style: normal; fill: rgb(255,0,0)" text-anchor="middle" transform="matrix( 1.000 0.000 0.000 1.000 68.800 184.900 )">100.00mm, burn:0.10mm</text>
</g>
<g id="p-1" style="fill:none;stroke-linecap:round;stroke-linejoin:round;">
  <path d="M 50.200 138.100 V 141.000 C 50.200 141.100 50.300 141.000 50.200 141.000 H 47.400 C 47.300 141.000 47.400 141.100 47.400 141.000 V 135.200 C 47.400 135.100 47.300 135.200 47.400 135.200 H 50.200 C 50.300 135.200 50.200 135.100 50.200 135.200 V 138.100 Z" stroke="rgb(0,0,255)" stroke-width="0.20" />
  <path d="M 50.200 126.100 V 129.000 C 50.200 129.100 50.300 129.000 50.200 129.000 H 47.400 C 47.300 129.000 47.400 129.100 47.400 129.000 V 123.200 C 47.400 123.100 47.300 123.200 47.400 123.200 H 50.200 C 50.300 123.200 50.200 123.100 50.200 123.200 V 126.100 Z" stroke="rgb(0,0,255)" stroke-width="0.20" />
  <path d="M 50.200 114.100 V 117.000 C 50.200 117.100 50.300 117.000 50.200 117.000 H 47.400 C 47.300 117.000 47.400 117.100 47.400 117.000 V 111.200 C 47.400 111.100 47.300 111.200 47.400 111.200 H 50.200 C 50.300 111.200 50.200 111.100 50.200 111.200 V 114.100 Z" stroke="rgb(0,0,255)" stroke-width="0.20" />
  <path d="M 50.200 102.100 V 105.000 C 50.200 105.100 50.300 105.000 50.200 105.000 H 47.400 C 47.300 105.000 47.400 105.100 47.400 105.000 V 99.200 C 47.400 99.100 47.300 99.200 47.400 99.200 H 50.200 C 50.300 99.200 50.200 99.100 50.200 99.200 V 102.100 Z" stroke="rgb(0,0,255)" stroke-width="0.20" />
  <path d="M 50.200 90.100 V 93.000 C 50.200 93.100 50.300 93.000 50.200 93.000 H 47.400 C 47.300 93.000 47.400 93.100 47.400 93.000 V 87.200 C 47.400 87.100 47.300 87.200 47.400 87.200 H 50.200 C 50.300 87.200 50.200 87.100 50.200 87.200 V 90.100 Z" stroke="rgb(0,0,255)" stroke-width="0.20" />
  <path d="M 69.200 138.100 V 141.000 C 69.200 141.100 69.300 141.000 69.200 141.000 H 66.400 C 66.300 141.000 66.400 141.100 66.400 141.000 V 135.200 C 66.400 135.100 66.300 135.200 66.400 135.200 H 69.200 C 69.300 135.200 69.200 135.100 69.200 135.200 V 138.100 Z" stroke="rgb(0,0,255)" stroke-width="0.20" />
  <path d="M 69.200 126.100 V 129.000 C 69.200 129.100 69.300 129.000 69.200 129.000 H 66.400 C 66.300 129.000 66.400 129.100 66.400 129.000 V 123.200 C 66.400 123.100 66.300 123.200 66.400 123.200 H 69.200 C 69.300 123.200 69.200 123.100 69.200 123.200 V 126.100 Z" stroke="rgb(0,0,255)" stroke-width="0.20" />
  <path d="M 69.200 114.100 V 117.000 C 69.200 117.100 69.300 117.000 69.200 117.000 H 66.400 C 66.300 117.000 66.400 117.100 66.400 117.000 V 111.200 C 66.400 111.100 66.300 111.200 66.400 111.200 H 69.200 C 69.300 111.200 69.200 111.100 69.200 111.200 V 114.100 Z" stroke="rgb(0,0,255)" stroke-width="0.20" />
  <path d="M 69.200 102.100 V 105.000 C 69.200 105.100 69.300 105.000 69.200 105.000 H 66.400 C 66.300 105.000 66.400 105.100 66.400 105.000 V 99.200 C 66.400 99.100 66.300 99.200 66.400 99.200 H 69.200 C 69.300 99.200 69.200 99.100 69.200 99.200 V 102.100 Z" stroke="rgb(0,0,255)" stroke-width="0.20" />
  <path d="M 69.200 90.100 V 93.000 C 69.200 93.100 69.300 93.000 69.200 93.000 H 66.400 C 66.300 93.000 66.400 93.100 66.400 93.000 V 87.200 C 66.400 87.100 66.300 87.200 66.400 87.200 H 69.200 C 69.300 87.200 69.200 87.100 69.200 87.200 V 90.100 Z" stroke="rgb(0,0,255)" stroke-width="0.20" />
  <path d="M 21.800 182.200 H 47.300 C 47.355 182.200 47.400 182.155 47.400 182.100 V 152.200 C 47.400 152.100 47.300 152.200 47.400 152.200 H 50.200 C 50.300 152.200 50.200 152.100 50.200 152.200 V 182.100 C 50.200 182.155 50.245 182.200 50.300 182.200 H 55.800 C 55.855 182.200 55.900 182.155 55.900 182.100 V 177.100 C 55.900 176.679 56.011 176.265 56.222 175.900 C 56.432 175.535 56.735 175.232 57.100 175.022 C 57.465 174.811 57.879 174.700 58.300 174.700 C 58.721 174.700 59.135 174.811 59.500 175.022 C 59.865 175.232 60.168 175.535 60.378 175.900 C 60.589 176.265 60.700 176.679 60.700 177.100 V 182.100 C 60.700 182.155 60.745 182.200 60.800 182.200 H 66.300 C 66.355 182.200 66.400 182.155 66.400 182.100 V 152.200 C 66.400 152.100 66.300 152.200 66.400 152.200 H 69.200 C 69.300 152.200 69.200 152.100 69.200 152.200 V 182.100 C 69.200 182.155 69.245 182.200 69.300 182.200 H 94.800 H 97.800 C 97.855 182.200 97.900 182.155 97.900 182.100 V 176.100 C 97.900 176.045 97.855 176.000 97.800 176.000 H 94.900 C 94.800 176.000 94.900 176.100 94.900 176.000 V 170.200 C 94.900 170.100 94.800 170.200 94.900 170.200 H 97.800 C 97.855 170.200 97.900 170.155 97.900 170.100 V 164.100 C 97.900 164.045 97.855 164.000 97.800 164.000 H 94.900 C 94.800 164.000 94.900 164.100 94.900 164.000 V 158.200 C 94.900 158.100 94.800 158.200 94.900 158.200 H 97.800 C 97.855 158.200 97.900 158.155 97.900 158.100 V 152.100 C 97.900 152.045 97.855 152.000 97.800 152.000 H 94.900 C 94.800 152.000 94.900 152.100 94.900 152.000 V 141.200 C 94.900 141.100 94.800 141.200 94.900 141.200 H 97.800 C 97.855 141.200 97.900 141.155 97.900 141.100 V 135.100 C 97.900 135.045 97.855 135.000 97.800 135.000 H 94.900 C 94.800 135.000 94.900 135.100 94.900 135.000 V 129.200 C 94.900 129.100 94.800 129.200 94.900 129.200 H 97.800 C 97.855 129.200 97.900 129.155 97.900 129.100 V 123.100 C 97.900 123.045 97.855 123.000 97.800 123.000 H 94.900 C 94.800 123.000 94.900 123.100 94.900 123.000 V 117.200 C 94.900 117.100 94.800 117.200 94.900 117.200 H 97.800 C 97.855 117.200 97.900 117.155 97.900 117.100 V 111.100 C 97.900 111.045 97.855 111.000 97.800 111.000 H 94.900 C 94.800 111.000 94.900 111.100 94.900 111.000 V 105.200 C 94.900 105.100 94.800 105.200 94.900 105.200 H 97.800 C 97.855 105.200 97.900 105.155 97.900 105.100 V 99.100 C 97.900 99.045 97.855 99.000 97.800 99.000 H 94.900 C 94.800 99.000 94.900 99.100 94.900 99.000 V 93.200 C 94.900 93.100 94.800 93.200 94.900 93.200 H 97.800 C 97.855 93.200 97.900 93.155 97.900 93.100 V 87.100 C 97.900 87.045 97.855 87.000 97.800 87.000 H 94.900 C 94.800 87.000 94.900 87.100 94.900 87.000 V 76.200 C 94.900 76.100 94.800 76.200 94.900 76.200 H 97.800 C 97.855 76.200 97.900 76.155 97.900 76.100 V 70.100 C 97.900 70.045 97.855 70.000 97.800 70.000 H 94.900 C 94.800 70.000 94.900 70.100 94.900 70.000 V 64.200 C 94.900 64.100 94.800 64.200 94.900 64.200 H 97.800 C 97.855 64.200 97.900 64.155 97.900 64.100 V 58.100 C 97.900 58.045 97.855 58.000 97.800 58.000 H 94.900 C 94.800 58.000 94.900 58.100 94.900 58.000 V 52.200 C 94.900 52.100 94.800 52.200 94.900 52.200 H 97.800 C 97.855 52.200 97.900 52.155 97.900 52.100 V 46.100 C 97.900 46.045 97.855 46.000 97.800 46.000 H 94.900 C 94.800 46.000 94.900 46.100 94.900 46.000 V 40.200 C 94.900 40.100 94.800 40.200 94.900 40.200 H 97.800 C 97.855 40.200 97.900 40.155 97.900 40.100 V 34.100 C 97.900 34.045 97.855 34.000 97.800 34.000 H 94.900 C 94.800 34.000 94.900 34.100 94.900 34.000 V 28.200 C 94.900 28.100 94.800 28.200 94.900 28.200 H 97.800 C 97.855 28.200 97.900 28.155 97.900 28.100 V 22.100 C 97.900 22.045 97.855 22.000 97.800 22.000 H 94.900 C 94.800 22.000 94.900 22.100 94.900 22.000 V 16.200 C 94.900 16.100 94.800 16.200 94.900 16.200 H 97.800 C 97.855 16.200 97.900 16.155 97.900 16.100 V 10.100 C 97.900 10.045 97.855 10.000 97.800 10.000 H 94.800 H 21.800 H 18.800 C 18.745 10.000 18.700 10.045 18.700 10.100 V 16.100 C 18.700 16.155 18.745 16.200 18.800 16.200 H 21.700 C 21.800 16.200 21.700 16.100 21.700 16.200 V 22.000 C 21.700 22.100 21.800 22.000 21.700 22.000 H 18.800 C 18.745 22.000 18.700 22.045 18.700 22.100 V 28.100 C 18.700 28.155 18.745 28.200 18.800 28.200 H 21.700 C 21.800 28.200 21.700 28.100 21.700 28.200 V 34.000 C 21.700 34.100 21.800 34.000 21.700 34.000 H 18.800 C 18.745 34.000 18.700 34.045 18.700 34.100 V 40.100 C 18.700 40.155 18.745 40.200 18.800 40.200 H 21.700 C 21.800 40.200 21.700 40.100 21.700 40.200 V 46.000 C 21.700 46.100 21.800 46.000 21.700 46.000 H 18.800 C 18.745 46.000 18.700 46.045 18.700 46.100 V 52.100 C 18.700 52.155 18.745 52.200 18.800 52.200 H 21.700 C 21.800 52.200 21.700 52.100 21.700 52.200 V 58.000 C 21.700 58.100 21.800 58.000 21.700 58.000 H 18.800 C 18.745 58.000 18.700 58.045 18.700 58.100 V 64.100 C 18.700 64.155 18.745 64.200 18.800 64.200 H 21.700 C 21.800 64.200 21.700 64.100 21.700 64.200 V 70.000 C 21.700 70.100 21.800 70.000 21.700 70.000 H 18.800 C 18.745 70.000 18.700 70.045 18.700 70.100 V 76.100 C 18.700 76.155 18.745 76.200 18.800 76.200 H 21.700 C 21.800 76.200 21.700 76.100 21.700 76.200 V 87.000 C 21.700 87.100 21.800 87.000 21.700 87.000 H 18.800 C 18.745 87.000 18.700 87.045 18.700 87.100 V 93.100 C 18.700 93.155 18.745 93.200 18.800 93.200 H 21.700 C 21.800 93.200 21.700 93.100 21.700 93.200 V 99.000 C 21.700 99.100 21.800 99.000 21.700 99.000 H 18.800 C 18.745 99.000 18.700 99.045 18.700 99.100 V 105.100 C 18.700 105.155 18.745 105.200 18.800 105.200 H 21.700 C 21.800 105.200 21.700 105.100 21.700 105.200 V 111.000 C 21.700 111.100 21.800 111.000 21.700 111.000 H 18.800 C 18.745 111.000 18.700 111.045 18.700 111.100 V 117.100 C 18.700 117.155 18.745 117.200 18.800 117.200 H 21.700 C 21.800 117.200 21.700 117.100 21.700 117.200 V 123.000 C 21.700 123.100 21.800 123.000 21.700 123.000 H 18.800 C 18.745 123.000 18.700 123.045 18.700 123.100 V 129.100 C 18.700 129.155 18.745 129.200 18.800 129.200 H 21.700 C 21.800 129.200 21.700 129.100 21.700 129.200 V 135.000 C 21.700 135.100 21.800 135.000 21.700 135.000 H 18.800 C 18.745 135.000 18.700 135.045 18.700 135.100 V 141.100 C 18.700 141.155 18.745 141.200 18.800 141.200 H 21.700 C 21.800 141.200 21.700 141.100 21.700 141.200 V 152.000 C 21.700 152.100 21.800 152.000 21.700 152.000 H 18.800 C 18.745 152.000 18.700 152.045 18.700 152.100 V 158.100 C 18.700 158.155 18.745 158.200 18.800 158.200 H 21.700 C 21.800 158.200 21.700 158.100 21.700 158.200 V 164.000 C 21.700 164.100 21.800 164.000 21.700 164.000 H 18.800 C 18.745 164.000 18.700 164.045 18.700 164.100 V 170.100 C 18.700 170.155 18.745 170.200 18.800 170.200 H 21.700 C 21.800 170.200 21.700 170.100 21.700 170.200 V 176.000 C 21.700 176.100 21.800 176.000 21.700 176.000 H 18.800 C 18.745 176.000 18.700 176.045 18.700 176.100 V 182.100 C 18.700 182.155 18.745 182.200 18.800 182.200 H 21.800 Z" stroke="rgb(0,0,0)" stroke-width="0.20" />
</g>
<g id="p-2" style="fill:none;stroke-linecap:round;stroke-linejoin:round;">
  <path d="M 102.500 182.200 H 133.500 C 133.555 182.200 133.600 182.155 133.600 182.100 C 133.600 182.155 133.555 182.200 133.500 182.200 H 136.500 C 136.445 182.200 136.400 182.155 136.400 182.100 C 136.400 182.155 136.445 182.200 136.500 182.200 C 136.555 182.200 136.600 182.155 136.600 182.100 V 177.100 C 136.600 176.679 136.711 176.265 136.922 175.900 C 137.132 175.535 137.435 175.232 137.800 175.022 C 138.165 174.811 138.579 174.700 139.000 174.700 C 139.421 174.700 139.835 174.811 140.200 175.022 C 140.565 175.232 140.868 175.535 141.078 175.900 C 141.289 176.265 141.400 176.679 141.400 177.100 V 182.100 C 141.400 182.155 141.445 182.200 141.500 182.200 C 141.555 182.200 141.600 182.155 141.600 182.100 C 141.600 182.155 141.555 182.200 141.500 182.200 H 144.500 C 144.445 182.200 144.400 182.155 144.400 182.100 C 144.400 182.155 144.445 182.200 144.500 182.200 H 175.500 H 178.500 C 178.555 182.200 178.600 182.155 178.600 182.100 V 173.158 C 178.600 173.102 178.555 173.058 178.500 173.058 H 175.600 C 175.500 173.058 175.600 173.158 175.600 173.058 V 167.258 C 175.600 167.158 175.500 167.258 175.600 167.258 H 178.500 C 178.555 167.258 178.600 167.213 178.600 167.158 V 161.158 C 178.600 161.102 178.555 161.058 178.500 161.058 H 175.600 C 175.500 161.058 175.600 161.158 175.600 161.058 V 155.258 C 175.600 155.158 175.500 155.258 175.600 155.258 H 178.500 C 178.555 155.258 178.600 155.213 178.600 155.158 V 149.158 C 178.600 149.102 178.555 149.058 178.500 149.058 H 175.600 C 175.500 149.058 175.600 149.158 175.600 149.058 V 143.258 C 175.600 143.158 175.500 143.258 175.600 143.258 H 178.500 C 178.555 143.258 178.600 143.213 178.600 143.158 V 137.158 C 178.600 137.102 178.555 137.058 178.500 137.058 H 175.600 C 175.500 137.058 175.600 137.158 175.600 137.058 V 131.258 C 175.600 131.158 175.500 131.258 175.600 131.258 H 178.500 C 178.555 131.258 178.600 131.213 178.600 131.158 V 125.158 C 178.600 125.102 178.555 125.058 178.500 125.058 H 175.600 C 175.500 125.058 175.600 125.158 175.600 125.058 V 119.258 C 175.600 119.158 175.500 119.258 175.600 119.258 H 178.500 C 178.555 119.258 178.600 119.213 178.600 119.158 V 113.158 C 178.600 113.102 178.555 113.058 178.500 113.058 H 175.600 C 175.500 113.058 175.600 113.158 175.600 113.058 V 107.258 C 175.600 107.158 175.500 107.258 175.600 107.258 H 178.500 C 178.555 107.258 178.600 107.213 178.600 107.158 V 101.158 C 178.600 101.102 178.555 101.058 178.500 101.058 H 175.600 C 175.500 101.058 175.600 101.158 175.600 101.058 V 95.258 C 175.600 95.158 175.500 95.258 175.600 95.258 H 178.500 C 178.555 95.258 178.600 95.213 178.600 95.158 V 89.158 C 178.600 89.102 178.555 89.058 178.500 89.058 H 175.600 C 175.500 89.058 175.600 89.158 175.600 89.058 V 83.258 C 175.600 83.158 175.500 83.258 175.600 83.258 H 178.500 C 178.555 83.258 178.600 83.213 178.600 83.158 V 77.158 C 178.600 77.102 178.555 77.058 178.500 77.058 H 175.600 C 175.500 77.058 175.600 77.158 175.600 77.058 V 71.258 C 175.600 71.158 175.500 71.258 175.600 71.258 H 178.500 C 178.555 71.258 178.600 71.213 178.600 71.158 V 65.158 C 178.600 65.102 178.555 65.058 178.500 65.058 H 175.600 C 175.500 65.058 175.600 65.158 175.600 65.058 V 59.258 C 175.600 59.158 175.500 59.258 175.600 59.258 H 178.500 C 178.555 59.258 178.600 59.213 178.600 59.158 V 53.158 C 178.600 53.102 178.555 53.058 178.500 53.058 H 175.600 C 175.500 53.058 175.600 53.158 175.600 53.058 V 47.258 C 175.600 47.158 175.500 47.258 175.600 47.258 H 178.500 C 178.555 47.258 178.600 47.213 178.600 47.158 V 41.158 C 178.600 41.102 178.555 41.058 178.500 41.058 H 175.600 C 175.500 41.058 175.600 41.158 175.600 41.058 V 35.258 C 175.600 35.158 175.500 35.258 175.600 35.258 H 178.500 C 178.555 35.258 178.600 35.213 178.600 35.158 V 26.215 C 178.600 26.160 178.555 26.115 178.500 26.115 H 175.500 H 102.500 H 99.500 C 99.445 26.115 99.400 26.160 99.400 26.215 V 35.158 C 99.400 35.213 99.445 35.258 99.500 35.258 H 102.400 C 102.500 35.258 102.400 35.158 102.400 35.258 V 41.058 C 102.400 41.158 102.500 41.058 102.400 41.058 H 99.500 C 99.445 41.058 99.400 41.102 99.400 41.158 V 47.158 C 99.400 47.213 99.445 47.258 99.500 47.258 H 102.400 C 102.500 47.258 102.400 47.158 102.400 47.258 V 53.058 C 102.400 53.158 102.500 53.058 102.400 53.058 H 99.500 C 99.445 53.058 99.400 53.102 99.400 53.158 V 59.158 C 99.400 59.213 99.445 59.258 99.500 59.258 H 102.400 C 102.500 59.258 102.400 59.158 102.400 59.258 V 65.058 C 102.400 65.158 102.500 65.058 102.400 65.058 H 99.500 C 99.445 65.058 99.400 65.102 99.400 65.158 V 71.158 C 99.400 71.213 99.445 71.258 99.500 71.258 H 102.400 C 102.500 71.258 102.400 71.158 102.400 71.258 V 77.058 C 102.400 77.158 102.500 77.058 102.400 77.058 H 99.500 C 99.445 77.058 99.400 77.102 99.400 77.158 V 83.158 C 99.400 83.213 99.445 83.258 99.500 83.258 H 102.400 C 102.500 83.258 102.400 83.158 102.400 83.258 V 89.058 C 102.400 89.158 102.500 89.058 102.400 89.058 H 99.500 C 99.445 89.058 99.400 89.102 99.400 89.158 V 95.158 C 99.400 95.213 99.445 95.258 99.500 95.258 H 102.400 C 102.500 95.258 102.400 95.158 102.400 95.258 V 101.058 C 102.400 101.158 102.500 101.058 102.400 101.058 H 99.500 C 99.445 101.058 99.400 101.102 99.400 101.158 V 107.158 C 99.400 107.213 99.445 107.258 99.500 107.258 H 102.400 C 102.500 107.258 102.400 107.158 102.400 107.258 V 113.058 C 102.400 113.158 102.500 113.058 102.400 113.058 H 99.500 C 99.445 113.058 99.400 113.102 99.400 113.158 V 119.158 C 99.400 119.213 99.445 119.258 99.500 119.258 H 102.400 C 102.500 119.258 102.400 119.158 102.400 119.258 V 125.058 C 102.400 125.158 102.500 125.058 102.400 125.058 H 99.500 C 99.445 125.058 99.400 125.102 99.400 125.158 V 131.158 C 99.400 131.213 99.445 131.258 99.500 131.258 H 102.400 C 102.500 131.258 102.400 131.158 102.400 131.258 V 137.058 C 102.400 137.158 102.500 137.058 102.400 137.058 H 99.500 C 99.445 137.058 99.400 137.102 99.400 137.158 V 143.158 C 99.400 143.213 99.445 143.258 99.500 143.258 H 102.400 C 102.500 143.258 102.400 143.158 102.400 143.258 V 149.058 C 102.400 149.158 102.500 149.058 102.400 149.058 H 99.500 C 99.445 149.058 99.400 149.102 99.400 149.158 V 155.158 C 99.400 155.213 99.445 155.258 99.500 155.258 H 102.400 C 102.500 155.258 102.400 155.158 102.400 155.258 V 161.058 C 102.400 161.158 102.500 161.058 102.400 161.058 H 99.500 C 99.445 161.058 99.400 161.102 99.400 161.158 V 167.158 C 99.400 167.213 99.445 167.258 99.500 167.258 H 102.400 C 102.500 167.258 102.400 167.158 102.400 167.258 V 173.058 C 102.400 173.158 102.500 173.058 102.400 173.058 H 99.500 C 99.445 173.058 99.400 173.102 99.400 173.158 V 182.100 C 99.400 182.155 99.445 182.200 99.500 182.200 H 102.500 Z" stroke="rgb(0,0,0)" stroke-width="0.20" />
</g>
<g id="p-3" style="fill:none;stroke-linecap:round;stroke-linejoin:round;">
  <path d="M 217.846 182.200 H 290.536 C 290.592 182.200 290.636 182.155 290.636 182.100 V 173.258 C 290.636 173.158 290.536 173.258 290.636 173.258 H 293.536 C 293.592 173.258 293.636 173.213 293.636 173.158 V 167.158 C 293.636 167.102 293.592 167.058 293.536 167.058 H 290.636 C 290.536 167.058 290.636 167.158 290.636 167.058 V 161.258 C 290.636 161.158 290.536 161.258 290.636 161.258 H 293.536 C 293.592 161.258 293.636 161.213 293.636 161.158 V 155.158 C 293.636 155.102 293.592 155.058 293.536 155.058 H 290.636 C 290.536 155.058 290.636 155.158 290.636 155.058 V 149.258 C 290.636 149.158 290.536 149.258 290.636 149.258 H 293.536 C 293.592 149.258 293.636 149.213 293.636 149.158 V 143.158 C 293.636 143.102 293.592 143.058 293.536 143.058 H 290.636 C 290.536 143.058 290.636 143.158 290.636 143.058 V 137.258 C 290.636 137.158 290.536 137.258 290.636 137.258 H 293.536 C 293.592 137.258 293.636 137.213 293.636 137.158 V 131.158 C 293.636 131.102 293.592 131.058 293.536 131.058 H 290.636 C 290.536 131.058 290.636 131.158 290.636 131.058 V 125.258 C 290.636 125.158 290.536 125.258 290.636 125.258 H 293.536 C 293.592 125.258 293.636 125.213 293.636 125.158 V 119.158 C 293.636 119.102 293.592 119.058 293.536 119.058 H 290.636 C 290.536 119.058 290.636 119.158 290.636 119.058 V 113.258 C 290.636 113.158 290.536 113.258 290.636 113.258 H 293.536 C 293.592 113.258 293.636 113.213 293.636 113.158 V 107.158 C 293.636 107.102 293.592 107.058 293.536 107.058 H 290.636 C 290.536 107.058 290.636 107.158 290.636 107.058 V 101.258 C 290.636 101.158 290.536 101.258 290.636 101.258 H 293.536 C 293.592 101.258 293.636 101.213 293.636 101.158 V 95.158 C 293.636 95.102 293.592 95.058 293.536 95.058 H 290.636 C 290.536 95.058 290.636 95.158 290.636 95.058 V 89.258 C 290.636 89.158 290.536 89.258 290.636 89.258 H 293.536 C 293.592 89.258 293.636 89.213 293.636 89.158 V 83.158 C 293.636 83.102 293.592 83.058 293.536 83.058 H 290.636 C 290.536 83.058 290.636 83.158 290.636 83.058 V 77.258 C 290.636 77.158 290.536 77.258 290.636 77.258 H 293.536 C 293.592 77.258 293.636 77.213 293.636 77.158 V 71.158 C 293.636 71.102 293.592 71.058 293.536 71.058 H 290.636 C 290.536 71.058 290.636 71.158 290.636 71.058 V 65.258 C 290.636 65.158 290.536 65.258 290.636 65.258 H 293.536 C 293.592 65.258 293.636 65.213 293.636 65.158 V 59.158 C 293.636 59.102 293.592 59.058 293.536 59.058 H 290.636 C 290.536 59.058 290.636 59.158 290.636 59.058 V 53.258 C 290.636 53.158 290.536 53.258 290.636 53.258 H 293.536 C 293.592 53.258 293.636 53.213 293.636 53.158 V 47.158 C 293.636 47.102 293.592 47.058 293.536 47.058 H 290.636 C 290.536 47.058 290.636 47.158 290.636 47.058 V 41.258 C 290.636 41.158 290.536 41.258 290.636 41.258 H 293.536 C 293.592 41.258 293.636 41.213 293.636 41.158 V 35.158 C 293.636 35.102 293.592 35.058 293.536 35.058 H 290.636 C 290.536 35.058 290.636 35.158 290.636 35.058 V 26.215 C 290.636 26.160 290.592 26.115 290.536 26.115 C 290.498 26.115 290.462 26.138 290.446 26.173 L 287.952 31.520 C 287.910 31.611 288.043 31.562 287.952 31.520 L 285.324 30.294 C 285.274 30.271 285.214 30.293 285.191 30.343 L 282.655 35.781 C 282.632 35.831 282.654 35.890 282.704 35.914 L 285.332 37.139 C 285.423 37.181 285.374 37.048 285.332 37.139 L 282.881 42.396 C 282.839 42.486 282.972 42.438 282.881 42.396 L 280.253 41.170 C 280.203 41.147 280.143 41.168 280.120 41.218 L 277.584 46.656 C 277.561 46.706 277.582 46.766 277.632 46.789 L 280.261 48.015 C 280.351 48.057 280.303 47.924 280.261 48.015 L 277.809 53.271 C 277.767 53.362 277.900 53.314 277.809 53.271 L 275.181 52.046 C 275.131 52.022 275.072 52.044 275.048 52.094 L 272.513 57.532 C 272.489 57.582 272.511 57.642 272.561 57.665 L 275.189 58.891 C 275.280 58.933 275.232 58.800 275.189 58.891 L 272.738 64.147 C 272.696 64.238 272.829 64.189 272.738 64.147 L 270.110 62.922 C 270.060 62.898 270.000 62.920 269.977 62.970 L 267.441 68.408 C 267.418 68.458 267.439 68.517 267.490 68.541 L 270.118 69.766 C 270.208 69.808 270.160 69.676 270.118 69.766 L 267.667 75.023 C 267.624 75.113 267.757 75.065 267.667 75.023 L 265.038 73.797 C 264.988 73.774 264.929 73.796 264.905 73.846 L 262.370 79.283 C 262.346 79.333 262.368 79.393 262.418 79.416 L 265.046 80.642 C 265.137 80.684 265.089 80.551 265.046 80.642 L 262.595 85.898 C 262.553 85.989 262.686 85.941 262.595 85.898 L 259.967 84.673 C 258.201 83.849 256.249 83.505 254.308 83.675 C 252.367 83.845 250.505 84.523 248.909 85.640 C 247.313 86.758 246.039 88.276 245.216 90.042 L 222.394 138.982 C 221.571 140.748 221.227 142.700 221.397 144.641 C 221.567 146.582 222.244 148.444 223.362 150.040 C 224.479 151.636 225.998 152.910 227.763 153.734 L 230.392 154.959 C 230.482 155.001 230.434 154.869 230.392 154.959 L 227.941 160.216 C 227.898 160.306 228.031 160.258 227.941 160.216 L 225.312 158.990 C 225.262 158.967 225.203 158.988 225.179 159.038 L 222.644 164.476 C 222.620 164.526 222.642 164.586 222.692 164.609 L 225.320 165.835 C 225.411 165.877 225.363 165.744 225.320 165.835 L 222.869 171.091 C 222.827 171.182 222.960 171.134 222.869 171.091 L 220.241 169.866 C 220.191 169.842 220.131 169.864 220.108 169.914 L 217.572 175.352 C 217.549 175.402 217.571 175.462 217.621 175.485 L 220.249 176.711 C 220.340 176.753 220.291 176.620 220.249 176.711 L 217.755 182.058 C 217.749 182.071 217.746 182.085 217.746 182.100 C 217.746 182.155 217.791 182.200 217.846 182.200 Z" stroke="rgb(0,0,0)" stroke-width="0.20" />
  <path d="M 254.008 97.452 L 255.234 94.824 C 255.276 94.733 255.143 94.781 255.234 94.824 L 257.771 96.007 C 257.862 96.049 257.814 95.916 257.771 96.007 L 255.320 101.263 C 255.278 101.354 255.411 101.306 255.320 101.263 L 252.782 100.080 C 252.692 100.038 252.740 100.171 252.782 100.080 L 254.008 97.452 Z" stroke="rgb(0,0,255)" stroke-width="0.20" />
  <path d="M 248.937 108.328 L 250.162 105.699 C 250.204 105.609 250.072 105.657 250.162 105.699 L 252.700 106.883 C 252.790 106.925 252.742 106.792 252.700 106.883 L 250.249 112.139 C 250.206 112.230 250.339 112.181 250.249 112.139 L 247.711 110.956 C 247.620 110.914 247.669 111.046 247.711 110.956 L 248.937 108.328 Z" stroke="rgb(0,0,255)" stroke-width="0.20" />
  <path d="M 243.865 119.203 L 245.091 116.575 C 245.133 116.484 245.000 116.533 245.091 116.575 L 247.628 117.758 C 247.719 117.801 247.671 117.668 247.628 117.758 L 245.177 123.015 C 245.135 123.105 245.268 123.057 245.177 123.015 L 242.640 121.832 C 242.549 121.789 242.597 121.922 242.640 121.832 L 243.865 119.203 Z" stroke="rgb(0,0,255)" stroke-width="0.20" />
  <path d="M 238.794 130.079 L 240.019 127.451 C 240.062 127.360 239.929 127.408 240.019 127.451 L 242.557 128.634 C 242.648 128.676 242.599 128.543 242.557 128.634 L 240.106 133.891 C 240.064 133.981 240.196 133.933 240.106 133.891 L 237.568 132.707 C 237.478 132.665 237.526 132.798 237.568 132.707 L 238.794 130.079 Z" stroke="rgb(0,0,255)" stroke-width="0.20" />
  <path d="M 233.722 140.955 L 234.948 138.326 C 234.990 138.236 234.857 138.284 234.948 138.326 L 237.486 139.510 C 237.576 139.552 237.528 139.419 237.486 139.510 L 235.034 144.766 C 234.992 144.857 235.125 144.808 235.034 144.766 L 232.497 143.583 C 232.406 143.541 232.454 143.674 232.497 143.583 L 233.722 140.955 Z" stroke="rgb(0,0,255)" stroke-width="0.20" />
  <path d="M 255.890 16.998 H 183.200 C 183.145 16.998 183.100 17.043 183.100 17.098 V 25.941 C 183.100 26.041 183.200 25.941 183.100 25.941 H 180.200 C 180.145 25.941 180.100 25.986 180.100 26.041 V 32.041 C 180.100 32.096 180.145 32.141 180.200 32.141 H 183.100 C 183.200 32.141 183.100 32.041 183.100 32.141 V 37.941 C 183.100 38.041 183.200 37.941 183.100 37.941 H 180.200 C 180.145 37.941 180.100 37.986 180.100 38.041 V 44.041 C 180.100 44.096 180.145 44.141 180.200 44.141 H 183.100 C 183.200 44.141 183.100 44.041 183.100 44.141 V 49.941 C 183.100 50.041 183.200 49.941 183.100 49.941 H 180.200 C 180.145 49.941 180.100 49.986 180.100 50.041 V 56.041 C 180.100 56.096 180.145 56.141 180.200 56.141 H 183.100 C 183.200 56.141 183.100 56.041 183.100 56.141 V 61.941 C 183.100 62.041 183.200 61.941 183.100 61.941 H 180.200 C 180.145 61.941 180.100 61.986 180.100 62.041 V 68.041 C 180.100 68.096 180.145 68.141 180.200 68.141 H 183.100 C 183.200 68.141 183.100 68.041 183.100 68.141 V 73.941 C 183.100 74.041 183.200 73.941 183.100 73.941 H 180.200 C 180.145 73.941 180.100 73.986 180.100 74.041 V 80.041 C 180.100 80.096 180.145 80.141 180.200 80.141 H 183.100 C 183.200 80.141 183.100 80.041 183.100 80.141 V 85.941 C 183.100 86.041 183.200 85.941 183.100 85.941 H 180.200 C 180.145 85.941 180.100 85.986 180.100 86.041 V 92.041 C 180.100 92.096 180.145 92.141 180.200 92.141 H 183.100 C 183.200 92.141 183.100 92.041 183.100 92.141 V 97.941 C 183.100 98.041 183.200 97.941 183.100 97.941 H 180.200 C 180.145 97.941 180.100 97.986 180.100 98.041 V 104.041 C 180.100 104.096 180.145 104.141 180.200 104.141 H 183.100 C 183.200 104.141 183.100 104.041 183.100 104.141 V 109.941 C 183.100 110.041 183.200 109.941 183.100 109.941 H 180.200 C 180.145 109.941 180.100 109.986 180.100 110.041 V 116.041 C 180.100 116.096 180.145 116.141 180.200 116.141 H 183.100 C 183.200 116.141 183.100 116.041 183.100 116.141 V 121.941 C 183.100 122.041 183.200 121.941 183.100 121.941 H 180.200 C 180.145 121.941 180.100 121.986 180.100 122.041 V 128.041 C 180.100 128.096 180.145 128.141 180.200 128.141 H 183.100 C 183.200 128.141 183.100 128.041 183.100 128.141 V 133.941 C 183.100 134.041 183.200 133.941 183.100 133.941 H 180.200 C 180.145 133.941 180.100 133.986 180.100 134.041 V 140.041 C 180.100 140.096 180.145 140.141 180.200 140.141 H 183.100 C 183.200 140.141 183.100 140.041 183.100 140.141 V 145.941 C 183.100 146.041 183.200 145.941 183.100 145.941 H 180.200 C 180.145 145.941 180.100 145.986 180.100 146.041 V 152.041 C 180.100 152.096 180.145 152.141 180.200 152.141 H 183.100 C 183.200 152.141 183.100 152.041 183.100 152.141 V 157.941 C 183.100 158.041 183.200 157.941 183.100 157.941 H 180.200 C 180.145 157.941 180.100 157.986 180.100 158.041 V 164.041 C 180.100 164.096 180.145 164.141 180.200 164.141 H 183.100 C 183.200 164.141 183.100 164.041 183.100 164.141 V 172.983 C 183.100 173.039 183.145 173.083 183.200 173.083 C 183.239 173.083 183.274 173.061 183.291 173.026 L 185.784 167.678 C 185.826 167.588 185.693 167.636 185.784 167.678 L 188.412 168.904 C 188.462 168.927 188.522 168.906 188.545 168.856 L 191.081 163.418 C 191.104 163.368 191.083 163.308 191.033 163.285 L 188.404 162.059 C 188.314 162.017 188.362 162.150 188.404 162.059 L 190.855 156.803 C 190.898 156.712 190.765 156.760 190.855 156.803 L 193.484 158.028 C 193.534 158.052 193.593 158.030 193.617 157.980 L 196.152 152.542 C 196.176 152.492 196.154 152.433 196.104 152.409 L 193.476 151.184 C 193.385 151.141 193.433 151.274 193.476 151.184 L 195.927 145.927 C 195.969 145.836 195.836 145.885 195.927 145.927 L 198.555 147.153 C 198.605 147.176 198.665 147.154 198.688 147.104 L 201.224 141.666 C 201.247 141.616 201.225 141.557 201.175 141.533 L 198.547 140.308 C 198.457 140.266 198.505 140.399 198.547 140.308 L 200.998 135.051 C 201.041 134.961 200.908 135.009 200.998 135.051 L 203.627 136.277 C 203.677 136.300 203.736 136.279 203.760 136.229 L 206.295 130.791 C 206.319 130.741 206.297 130.681 206.247 130.658 L 203.619 129.432 C 203.528 129.390 203.576 129.523 203.619 129.432 L 206.070 124.176 C 206.112 124.085 205.979 124.133 206.070 124.176 L 208.698 125.401 C 208.748 125.425 208.808 125.403 208.831 125.353 L 211.367 119.915 C 211.390 119.865 211.368 119.805 211.318 119.782 L 208.690 118.557 C 208.599 118.514 208.648 118.647 208.690 118.557 L 211.141 113.300 C 211.183 113.209 211.051 113.258 211.141 113.300 L 213.769 114.526 C 215.535 115.349 217.487 115.693 219.428 115.523 C 221.369 115.353 223.231 114.676 224.827 113.558 C 226.423 112.440 227.697 110.922 228.521 109.157 L 251.342 60.216 C 252.165 58.450 252.509 56.498 252.340 54.557 C 252.170 52.616 251.492 50.754 250.375 49.158 C 249.257 47.562 247.739 46.288 245.973 45.465 L 243.345 44.239 C 243.254 44.197 243.302 44.330 243.345 44.239 L 245.796 38.983 C 245.838 38.892 245.705 38.940 245.796 38.983 L 248.424 40.208 C 248.474 40.232 248.534 40.210 248.557 40.160 L 251.093 34.722 C 251.116 34.672 251.094 34.613 251.044 34.589 L 248.416 33.364 C 248.325 33.321 248.374 33.454 248.416 33.364 L 250.867 28.107 C 250.910 28.016 250.777 28.065 250.867 28.107 L 253.496 29.333 C 253.546 29.356 253.605 29.334 253.628 29.284 L 256.164 23.846 C 256.188 23.796 256.166 23.737 256.116 23.713 L 253.488 22.488 C 253.397 22.446 253.445 22.579 253.488 22.488 L 255.981 17.141 C 255.987 17.127 255.990 17.113 255.990 17.098 C 255.990 17.043 255.946 16.998 255.890 16.998 Z" stroke="rgb(0,0,0)" stroke-width="0.20" />
  <path d="M 219.728 101.747 L 218.503 104.375 C 218.461 104.465 218.593 104.417 218.503 104.375 L 215.965 103.192 C 215.874 103.149 215.923 103.282 215.965 103.192 L 218.416 97.935 C 218.459 97.844 218.326 97.893 218.416 97.935 L 220.954 99.118 C 221.045 99.161 220.996 99.028 220.954 99.118 L 219.728 101.747 Z" stroke="rgb(0,0,255)" stroke-width="0.20" />
  <path d="M 224.800 90.871 L 223.574 93.499 C 223.532 93.590 223.665 93.541 223.574 93.499 L 221.037 92.316 C 220.946 92.274 220.994 92.406 221.037 92.316 L 223.488 87.059 C 223.530 86.969 223.397 87.017 223.488 87.059 L 226.025 88.243 C 226.116 88.285 226.068 88.152 226.025 88.243 L 224.800 90.871 Z" stroke="rgb(0,0,255)" stroke-width="0.20" />
  <path d="M 229.871 79.995 L 228.646 82.623 C 228.603 82.714 228.736 82.666 228.646 82.623 L 226.108 81.440 C 226.017 81.398 226.066 81.531 226.108 81.440 L 228.559 76.184 C 228.601 76.093 228.469 76.141 228.559 76.184 L 231.097 77.367 C 231.187 77.409 231.139 77.276 231.097 77.367 L 229.871 79.995 Z" stroke="rgb(0,0,255)" stroke-width="0.20" />
  <path d="M 234.943 69.119 L 233.717 71.748 C 233.675 71.838 233.808 71.790 233.717 71.748 L 231.179 70.564 C 231.089 70.522 231.137 70.655 231.179 70.564 L 233.631 65.308 C 233.673 65.217 233.540 65.266 233.631 65.308 L 236.168 66.491 C 236.259 66.533 236.210 66.401 236.168 66.491 L 234.943 69.119 Z" stroke="rgb(0,0,255)" stroke-width="0.20" />
  <path d="M 240.014 58.244 L 238.788 60.872 C 238.746 60.963 238.879 60.914 238.788 60.872 L 236.251 59.689 C 236.160 59.647 236.209 59.779 236.251 59.689 L 238.702 54.432 C 238.744 54.342 238.611 54.390 238.702 54.432 L 241.240 55.616 C 241.330 55.658 241.282 55.525 241.240 55.616 L 240.014 58.244 Z" stroke="rgb(0,0,255)" stroke-width="0.20" />
</g>
<g id="p-4" style="fill:none;stroke-linecap:round;stroke-linejoin:round;">
  <path d="M 358.160 182.200 H 313.363 C 313.348 182.200 313.334 182.197 313.320 182.191 C 310.123 180.700 307.374 178.393 305.350 175.503 C 303.326 172.613 302.099 169.241 301.791 165.726 C 301.484 162.211 302.107 158.677 303.598 155.479 L 309.937 141.885 C 310.167 141.391 310.523 140.967 310.969 140.655 C 311.415 140.343 311.935 140.154 312.477 140.107 C 313.019 140.059 313.564 140.155 314.057 140.385 C 314.550 140.615 314.974 140.971 315.286 141.417 C 315.598 141.862 315.788 142.382 315.835 142.925 C 315.883 143.467 315.786 144.012 315.557 144.505 L 313.655 148.583 C 313.625 148.647 313.613 148.717 313.619 148.787 C 313.625 148.857 313.649 148.924 313.690 148.982 C 313.730 149.039 313.785 149.085 313.848 149.115 L 325.993 154.778 C 326.083 154.820 325.950 154.869 325.993 154.778 L 330.557 144.990 C 330.599 144.899 330.648 145.032 330.557 144.990 L 327.929 143.764 C 327.879 143.741 327.857 143.681 327.880 143.631 L 330.416 138.193 C 330.439 138.143 330.499 138.122 330.549 138.145 L 333.177 139.371 C 333.268 139.413 333.135 139.461 333.177 139.371 L 335.628 134.114 C 335.671 134.023 335.719 134.156 335.628 134.114 L 333.000 132.888 C 332.950 132.865 332.928 132.806 332.952 132.756 L 335.487 127.318 C 335.511 127.268 335.570 127.246 335.620 127.269 L 338.249 128.495 C 338.339 128.537 338.206 128.586 338.249 128.495 L 340.700 123.238 C 340.742 123.148 340.790 123.281 340.700 123.238 L 338.072 122.013 C 338.022 121.989 338.000 121.930 338.023 121.880 L 340.559 116.442 C 340.582 116.392 340.642 116.370 340.692 116.394 L 343.320 117.619 C 343.411 117.662 343.278 117.710 343.320 117.619 L 345.771 112.363 C 345.814 112.272 345.862 112.405 345.771 112.363 L 343.143 111.137 C 343.093 111.114 343.071 111.054 343.095 111.004 L 345.630 105.566 C 345.654 105.516 345.713 105.495 345.763 105.518 L 348.392 106.744 C 348.482 106.786 348.349 106.834 348.392 106.744 L 350.843 101.487 C 350.885 101.396 350.933 101.529 350.843 101.487 L 348.214 100.261 C 348.164 100.238 348.143 100.179 348.166 100.128 L 350.702 94.691 C 350.725 94.641 350.785 94.619 350.835 94.642 L 353.463 95.868 C 353.554 95.910 353.421 95.958 353.463 95.868 L 358.069 85.989 C 358.077 85.973 358.089 85.959 358.104 85.948 C 358.119 85.938 358.137 85.932 358.155 85.932 C 358.173 85.931 358.191 85.935 358.207 85.943 C 358.223 85.952 358.236 85.964 358.246 85.980 C 358.255 85.995 358.260 86.013 358.260 86.031 V 182.100 C 358.260 182.155 358.215 182.200 358.160 182.200 Z" stroke="rgb(0,0,0)" stroke-width="0.20" />
</g>
<g id="p-5" style="fill:none;stroke-linecap:round;stroke-linejoin:round;">
  <path d="M 359.860 182.200 H 404.658 C 404.672 182.200 404.687 182.197 404.700 182.191 C 407.898 180.700 410.646 178.393 412.670 175.503 C 414.694 172.613 415.921 169.241 416.229 165.726 C 416.536 162.211 415.913 158.677 414.422 155.479 L 408.083 141.885 C 407.853 141.391 407.497 140.967 407.051 140.655 C 406.606 140.343 406.086 140.154 405.543 140.107 C 405.001 140.059 404.456 140.155 403.963 140.385 C 403.470 140.615 403.046 140.971 402.734 141.417 C 402.422 141.862 402.232 142.382 402.185 142.925 C 402.138 143.467 402.234 144.012 402.464 144.505 L 404.365 148.583 C 404.395 148.647 404.408 148.717 404.401 148.787 C 404.395 148.857 404.371 148.924 404.331 148.982 C 404.290 149.039 404.236 149.085 404.172 149.115 L 392.027 154.778 C 391.937 154.820 392.070 154.869 392.027 154.778 L 387.463 144.990 C 387.421 144.899 387.373 145.032 387.463 144.990 L 390.091 143.764 C 390.142 143.741 390.163 143.681 390.140 143.631 L 387.604 138.193 C 387.581 138.143 387.521 138.122 387.471 138.145 L 384.843 139.371 C 384.752 139.413 384.885 139.461 384.843 139.371 L 382.392 134.114 C 382.349 134.023 382.301 134.156 382.392 134.114 L 385.020 132.888 C 385.070 132.865 385.092 132.806 385.068 132.756 L 382.533 127.318 C 382.509 127.268 382.450 127.246 382.400 127.269 L 379.772 128.495 C 379.681 128.537 379.814 128.586 379.772 128.495 L 377.320 123.238 C 377.278 123.148 377.230 123.281 377.320 123.238 L 379.949 122.013 C 379.999 121.989 380.020 121.930 379.997 121.880 L 377.461 116.442 C 377.438 116.392 377.378 116.370 377.328 116.394 L 374.700 117.619 C 374.609 117.662 374.742 117.710 374.700 117.619 L 372.249 112.363 C 372.207 112.272 372.158 112.405 372.249 112.363 L 374.877 111.137 C 374.927 111.114 374.949 111.054 374.926 111.004 L 372.390 105.566 C 372.367 105.516 372.307 105.495 372.257 105.518 L 369.629 106.744 C 369.538 106.786 369.671 106.834 369.629 106.744 L 367.178 101.487 C 367.135 101.396 367.087 101.529 367.178 101.487 L 369.806 100.261 C 369.856 100.238 369.878 100.179 369.854 100.128 L 367.318 94.691 C 367.295 94.641 367.236 94.619 367.186 94.642 L 364.557 95.868 C 364.467 95.910 364.600 95.958 364.557 95.868 L 359.951 85.989 C 359.943 85.973 359.931 85.959 359.916 85.948 C 359.901 85.938 359.883 85.932 359.865 85.932 C 359.847 85.931 359.829 85.935 359.813 85.943 C 359.797 85.952 359.784 85.964 359.774 85.980 C 359.765 85.995 359.760 86.013 359.760 86.031 V 182.100 C 359.760 182.155 359.805 182.200 359.860 182.200 Z" stroke="rgb(0,0,0)" stroke-width="0.20" />
</g>
</svg>