<?xml version='1.0' encoding='utf-8'?>
<svg height="646.95mm" viewBox="0.0 0.0 158.23 646.95" width="158.23mm" xmlns="http://www.w3.org/2000/svg" xmlns:cc="http://creativecommons.org/ns#" xmlns:dc="http://purl.org/dc/elements/1.1/" xmlns:inkscape="http://www.inkscape.org/namespaces/inkscape" xmlns:rdf="http://www.w3.org/1999/02/22-rdf-syntax-ns#" xmlns:svg="http://www.w3.org/2000/svg" xmlns:xlink="http://www.w3.org/1999/xlink">
<!--
PhotoFrame - 
    3-layer photo frame with a slot at the top to slide matboard/acrylic/glass over the photo after glue-up.
    



3-layer photo frame.

Selected excellent features:

* easy to change the photo after glue-up, without disassembling the frame
* calculates the ideal matting size for your photo based on ancient Greek mathematics
* can make the frame in one piece or split into 4 pieces to save material

Features available in the mysterious future:

* add a hole for hanging the frame on the wall
* rounded corners (works now on selected layers)
* calculate the frame size based on the piece of glass/acrylic you already have
* determine the width of the internal area based on the thickness of the matting and glass



Created with Boxes.py (https://boxes.hackerspace-bamberg.de/)
Command line (remove spaces between dashes): boxes PhotoFrame
-->
<title>PhotoFrame</title>
<metadata>
<rdf:RDF><cc:Work>
<dc:title>Misc - PhotoFrame</dc:title>
<dc:source>boxes PhotoFrame</dc:source>
<dc:description>
    3-layer photo frame with a slot at the top to slide matboard/acrylic/glass over the photo after glue-up.
    


3-layer photo frame.

Selected excellent features:

* easy to change the photo after glue-up, without disassembling the frame
* calculates the ideal matting size for your photo based on ancient Greek mathematics
* can make the frame in one piece or split into 4 pieces to save material

Features available in the mysterious future:

* add a hole for hanging the frame on the wall
* rounded corners (works now on selected layers)
* calculate the frame size based on the piece of glass/acrylic you already have
* determine the width of the internal area based on the thickness of the matting and glass


Created with Boxes.py (https://boxes.hackerspace-bamberg.de/)
Command line: boxes PhotoFrame
Command line short: boxes PhotoFrame
</dc:description>
</cc:Work></rdf:RDF></metadata>
<g id="p-0" style="fill:none;stroke-linecap:round;stroke-linejoin:round;">
  <path d="M 25.169 636.946 H 125.169 V 626.946 H 25.169 V 636.946 Z" stroke="rgb(0,0,0)" stroke-width="0.20" />
  <text dominant-baseline="hanging" font-size="6px" style="font-family: sans-serif ; font-weight: normal; font-style: normal; fill: rgb(255,0,0)" text-anchor="middle" transform="matrix( 1.000 0.000 0.000 1.000 75.169 628.946 )">100.0mm, burn:0.10mm</text>
</g>
<g id="p-1" style="fill:none;stroke-linecap:round;stroke-linejoin:round;">
  <path d="M 75.800 599.515 H 50.900 C 50.800 599.515 50.900 599.615 50.900 599.515 V 524.715 C 50.900 524.615 50.800 524.715 50.900 524.715 H 100.700 C 100.800 524.715 100.700 524.615 100.700 524.715 V 599.515 C 100.700 599.615 100.800 599.515 100.700 599.515 H 75.800 Z" stroke="rgb(0,255,0)" stroke-width="0.20" />
  <text dominant-baseline="hanging" font-size="4px" style="font-family: sans-serif ; font-weight: normal; font-style: normal; fill: rgb(255,0,0)" text-anchor="middle" transform="matrix( 1.000 0.000 0.000 1.000 75.800 560.115 )">Base 101x126 for photo 50x75</text><path d="M 25.169 625.246 H 75.800 H 126.431 C 126.486 625.246 126.531 625.201 126.531 625.146 V 498.884 C 126.531 498.829 126.486 498.784 126.431 498.784 H 25.169 C 25.114 498.784 25.069 498.829 25.069 498.884 V 625.146 C 25.069 625.201 25.114 625.246 25.169 625.246" stroke="rgb(0,0,0)" stroke-width="0.20" />
</g>
<g id="p-2" style="fill:none;stroke-linecap:round;stroke-linejoin:round;">
  <text dominant-baseline="hanging" font-size="4px" style="font-family: sans-serif ; font-weight: normal; font-style: normal; fill: rgb(255,0,0)" text-anchor="middle" transform="matrix( 1.000 0.000 0.000 1.000 75.800 434.954 )">Widths 14x 15y x-fudge 2</text><text dominant-baseline="hanging" font-size="4px" style="font-family: sans-serif ; font-weight: normal; font-style: normal; fill: rgb(255,0,0)" text-anchor="middle" transform="matrix( 1.000 0.000 0.000 1.000 75.800 429.354 )">Middle 101x126 with pocket 73x111 for mat 71x96</text><path d="M 25.169 497.284 H 126.431 C 126.486 497.284 126.531 497.240 126.531 497.184 V 370.923 C 126.531 370.868 126.486 370.823 126.431 370.823 H 112.431 C 112.375 370.823 112.331 370.868 112.331 370.923 V 479.184 V 482.084 C 112.331 482.184 112.431 482.084 112.331 482.084 H 109.431 H 42.169 H 39.269 C 39.169 482.084 39.269 482.184 39.269 482.084 V 479.184 V 370.923 C 39.269 370.868 39.225 370.823 39.169 370.823 H 25.169 C 25.114 370.823 25.069 370.868 25.069 370.923 V 497.184 C 25.069 497.240 25.114 497.284 25.169 497.284" stroke="rgb(0,0,0)" stroke-width="0.20" />
</g>
<g id="p-3" style="fill:none;stroke-linecap:round;stroke-linejoin:round;">
  <text dominant-baseline="hanging" font-size="4px" style="font-family: sans-serif ; font-weight: normal; font-style: normal; fill: rgb(255,0,0)" text-anchor="middle" transform="matrix( 1.000 0.000 0.000 1.000 75.800 359.823 )">Middle btm 101x15</text><path d="M 25.169 369.323 H 126.431 C 126.486 369.323 126.531 369.278 126.531 369.223 V 354.223 C 126.531 354.168 126.486 354.123 126.431 354.123 H 122.292 C 122.148 354.123 122.008 354.167 121.890 354.249 C 121.772 354.332 121.683 354.448 121.634 354.583 C 121.585 354.718 121.578 354.865 121.615 355.004 C 121.653 355.143 121.732 355.267 121.842 355.359 L 122.891 356.240 C 122.970 356.306 123.026 356.394 123.053 356.493 C 123.079 356.593 123.075 356.697 123.040 356.794 C 123.005 356.890 122.941 356.974 122.857 357.032 C 122.773 357.091 122.672 357.123 122.570 357.123 H 116.292 C 116.189 357.123 116.089 357.091 116.005 357.032 C 115.921 356.974 115.857 356.890 115.822 356.794 C 115.787 356.697 115.782 356.593 115.809 356.493 C 115.835 356.394 115.892 356.306 115.970 356.240 L 117.020 355.359 C 117.130 355.267 117.209 355.143 117.246 355.004 C 117.283 354.865 117.277 354.718 117.228 354.583 C 117.179 354.448 117.089 354.332 116.971 354.249 C 116.854 354.167 116.714 354.123 116.570 354.123 H 112.431 H 39.169 H 35.030 C 34.886 354.123 34.746 354.167 34.629 354.249 C 34.511 354.332 34.421 354.448 34.372 354.583 C 34.323 354.718 34.317 354.865 34.354 355.004 C 34.391 355.143 34.470 355.267 34.580 355.359 L 35.630 356.240 C 35.708 356.306 35.765 356.394 35.791 356.493 C 35.818 356.593 35.813 356.697 35.778 356.794 C 35.743 356.890 35.679 356.974 35.595 357.032 C 35.511 357.091 35.411 357.123 35.308 357.123 H 29.030 C 28.928 357.123 28.827 357.091 28.743 357.032 C 28.659 356.974 28.595 356.890 28.560 356.794 C 28.525 356.697 28.521 356.593 28.547 356.493 C 28.574 356.394 28.630 356.306 28.709 356.240 L 29.758 355.359 C 29.868 355.267 29.947 355.143 29.985 355.004 C 30.022 354.865 30.015 354.718 29.966 354.583 C 29.917 354.448 29.828 354.332 29.710 354.249 C 29.592 354.167 29.452 354.123 29.308 354.123 H 25.169 C 25.114 354.123 25.069 354.168 25.069 354.223 V 369.223 C 25.069 369.278 25.114 369.323 25.169 369.323" stroke="rgb(0,0,0)" stroke-width="0.20" />
</g>
<g id="p-4" style="fill:none;stroke-linecap:round;stroke-linejoin:round;">
  <text dominant-baseline="hanging" font-size="4px" style="font-family: sans-serif ; font-weight: normal; font-style: normal; fill: rgb(255,0,0)" text-anchor="middle" transform="matrix( 1.000 0.000 0.000 1.000 82.300 343.623 )">Middle side 14x111</text><path d="M 25.169 352.623 H 136.431 C 136.486 352.623 136.531 352.578 136.531 352.523 V 348.384 C 136.531 348.281 136.562 348.181 136.621 348.097 C 136.680 348.013 136.763 347.949 136.860 347.914 C 136.956 347.879 137.061 347.874 137.160 347.901 C 137.259 347.927 137.348 347.984 137.414 348.062 L 138.294 349.112 C 138.387 349.222 138.511 349.301 138.650 349.338 C 138.788 349.375 138.935 349.369 139.070 349.320 C 139.205 349.271 139.322 349.181 139.404 349.064 C 139.487 348.946 139.531 348.806 139.531 348.662 V 342.384 C 139.531 342.240 139.487 342.100 139.404 341.982 C 139.322 341.865 139.205 341.775 139.070 341.726 C 138.935 341.677 138.788 341.670 138.650 341.708 C 138.511 341.745 138.387 341.824 138.294 341.934 L 137.414 342.983 C 137.348 343.062 137.259 343.118 137.160 343.145 C 137.061 343.172 136.956 343.167 136.860 343.132 C 136.763 343.097 136.680 343.033 136.621 342.949 C 136.562 342.865 136.531 342.765 136.531 342.662 V 338.523 C 136.531 338.468 136.486 338.423 136.431 338.423 H 25.169 C 25.114 338.423 25.069 338.468 25.069 338.523 V 352.523 C 25.069 352.578 25.114 352.623 25.169 352.623" stroke="rgb(0,0,0)" stroke-width="0.20" />
</g>
<g id="p-5" style="fill:none;stroke-linecap:round;stroke-linejoin:round;">
  <text dominant-baseline="hanging" font-size="4px" style="font-family: sans-serif ; font-weight: normal; font-style: normal; fill: rgb(255,0,0)" text-anchor="middle" transform="matrix( 1.000 0.000 0.000 1.000 82.300 327.923 )">Middle side 14x111</text><path d="M 25.169 336.923 H 136.431 C 136.486 336.923 136.531 336.878 136.531 336.823 V 332.684 C 136.531 332.581 136.562 332.481 136.621 332.397 C 136.680 332.313 136.763 332.249 136.860 332.214 C 136.956 332.179 137.061 332.174 137.160 332.201 C 137.259 332.227 137.348 332.284 137.414 332.362 L 138.294 333.412 C 138.387 333.522 138.511 333.601 138.650 333.638 C 138.788 333.675 138.935 333.669 139.070 333.620 C 139.205 333.571 139.322 333.481 139.404 333.364 C 139.487 333.246 139.531 333.106 139.531 332.962 V 326.684 C 139.531 326.540 139.487 326.400 139.404 326.282 C 139.322 326.165 139.205 326.075 139.070 326.026 C 138.935 325.977 138.788 325.970 138.650 326.008 C 138.511 326.045 138.387 326.124 138.294 326.234 L 137.414 327.283 C 137.348 327.362 137.259 327.418 137.160 327.445 C 137.061 327.472 136.956 327.467 136.860 327.432 C 136.763 327.397 136.680 327.333 136.621 327.249 C 136.562 327.165 136.531 327.065 136.531 326.962 V 322.823 C 136.531 322.768 136.486 322.723 136.431 322.723 H 25.169 C 25.114 322.723 25.069 322.768 25.069 322.823 V 336.823 C 25.069 336.878 25.114 336.923 25.169 336.923" stroke="rgb(0,0,0)" stroke-width="0.20" />
</g>
<g id="p-6" style="fill:none;stroke-linecap:round;stroke-linejoin:round;">
  <path d="M 75.800 301.023 H 45.269 C 45.169 301.023 45.269 301.123 45.269 301.023 V 214.961 C 45.269 214.861 45.169 214.961 45.269 214.961 H 106.331 C 106.431 214.961 106.331 214.861 106.331 214.961 V 301.023 C 106.331 301.123 106.431 301.023 106.331 301.023 H 75.800 Z" stroke="rgb(0,0,255)" stroke-width="0.20" />
  <text dominant-baseline="hanging" font-size="4px" style="font-family: sans-serif ; font-weight: normal; font-style: normal; fill: rgb(255,0,0)" text-anchor="middle" transform="matrix( 1.000 0.000 0.000 1.000 75.800 258.892 )">Widths 20x 20y 5 overlap</text><text dominant-baseline="hanging" font-size="4px" style="font-family: sans-serif ; font-weight: normal; font-style: normal; fill: rgb(255,0,0)" text-anchor="middle" transform="matrix( 1.000 0.000 0.000 1.000 75.800 253.292 )">Front 101x126 - 61x86</text><path d="M 25.169 321.223 H 126.431 C 126.486 321.223 126.531 321.178 126.531 321.123 V 194.861 C 126.531 194.806 126.486 194.761 126.431 194.761 H 25.169 C 25.114 194.761 25.069 194.806 25.069 194.861 V 321.123 C 25.069 321.178 25.114 321.223 25.169 321.223" stroke="rgb(0,0,0)" stroke-width="0.20" />
</g>
<g id="p-7" style="fill:none;stroke-linecap:round;stroke-linejoin:round;">
  <text dominant-baseline="hanging" font-size="4px" style="font-family: sans-serif ; font-weight: normal; font-style: normal; fill: rgb(255,0,0)" text-anchor="middle" transform="matrix( 1.000 0.000 0.000 1.000 75.800 181.261 )">Front btm 101x20</text><path d="M 25.169 193.261 H 126.431 C 126.486 193.261 126.531 193.217 126.531 193.161 V 173.161 C 126.531 173.106 126.486 173.061 126.431 173.061 H 119.292 C 119.148 173.061 119.008 173.106 118.890 173.188 C 118.772 173.270 118.683 173.387 118.634 173.522 C 118.585 173.657 118.578 173.804 118.615 173.943 C 118.653 174.081 118.732 174.205 118.842 174.298 L 119.891 175.178 C 119.970 175.244 120.026 175.333 120.053 175.432 C 120.079 175.531 120.075 175.636 120.040 175.732 C 120.005 175.829 119.941 175.912 119.857 175.971 C 119.773 176.030 119.672 176.061 119.570 176.061 H 113.292 C 113.189 176.061 113.089 176.030 113.005 175.971 C 112.921 175.912 112.857 175.829 112.822 175.732 C 112.787 175.636 112.782 175.531 112.809 175.432 C 112.835 175.333 112.892 175.244 112.970 175.178 L 114.020 174.298 C 114.130 174.205 114.209 174.081 114.246 173.943 C 114.283 173.804 114.277 173.657 114.228 173.522 C 114.179 173.387 114.089 173.270 113.971 173.188 C 113.854 173.106 113.714 173.061 113.570 173.061 H 106.431 H 45.169 H 38.030 C 37.886 173.061 37.746 173.106 37.629 173.188 C 37.511 173.270 37.421 173.387 37.372 173.522 C 37.323 173.657 37.317 173.804 37.354 173.943 C 37.391 174.081 37.470 174.205 37.580 174.298 L 38.630 175.178 C 38.708 175.244 38.765 175.333 38.791 175.432 C 38.818 175.531 38.813 175.636 38.778 175.732 C 38.743 175.829 38.679 175.912 38.595 175.971 C 38.511 176.030 38.411 176.061 38.308 176.061 H 32.030 C 31.928 176.061 31.827 176.030 31.743 175.971 C 31.659 175.912 31.595 175.829 31.560 175.732 C 31.525 175.636 31.521 175.531 31.547 175.432 C 31.574 175.333 31.630 175.244 31.709 175.178 L 32.758 174.298 C 32.868 174.205 32.947 174.081 32.985 173.943 C 33.022 173.804 33.015 173.657 32.966 173.522 C 32.917 173.387 32.828 173.270 32.710 173.188 C 32.592 173.106 32.452 173.061 32.308 173.061 H 25.169 C 25.114 173.061 25.069 173.106 25.069 173.161 V 193.161 C 25.069 193.217 25.114 193.261 25.169 193.261" stroke="rgb(0,0,0)" stroke-width="0.20" />
</g>
<g id="p-8" style="fill:none;stroke-linecap:round;stroke-linejoin:round;">
  <text dominant-baseline="hanging" font-size="4px" style="font-family: sans-serif ; font-weight: normal; font-style: normal; fill: rgb(255,0,0)" text-anchor="middle" transform="matrix( 1.000 0.000 0.000 1.000 71.300 159.561 )">Front side 20x86</text><path d="M 28.169 171.561 H 114.431 C 114.486 171.561 114.531 171.517 114.531 171.461 V 164.322 C 114.531 164.220 114.562 164.120 114.621 164.036 C 114.680 163.951 114.763 163.888 114.860 163.852 C 114.956 163.817 115.061 163.813 115.160 163.839 C 115.259 163.866 115.348 163.922 115.414 164.001 L 116.294 165.051 C 116.387 165.161 116.511 165.240 116.650 165.277 C 116.788 165.314 116.935 165.307 117.070 165.258 C 117.205 165.209 117.322 165.120 117.404 165.002 C 117.487 164.884 117.531 164.744 117.531 164.601 V 158.322 C 117.531 158.179 117.487 158.038 117.404 157.921 C 117.322 157.803 117.205 157.714 117.070 157.665 C 116.935 157.615 116.788 157.609 116.650 157.646 C 116.511 157.683 116.387 157.762 116.294 157.872 L 115.414 158.922 C 115.348 159.001 115.259 159.057 115.160 159.084 C 115.061 159.110 114.956 159.106 114.860 159.070 C 114.763 159.035 114.680 158.971 114.621 158.887 C 114.562 158.803 114.531 158.703 114.531 158.601 V 151.461 C 114.531 151.406 114.486 151.361 114.431 151.361 H 28.169 C 28.114 151.361 28.069 151.406 28.069 151.461 V 158.601 C 28.069 158.703 28.038 158.803 27.979 158.887 C 27.920 158.971 27.837 159.035 27.740 159.070 C 27.644 159.106 27.539 159.110 27.440 159.084 C 27.341 159.057 27.252 159.001 27.186 158.922 L 26.306 157.872 C 26.213 157.762 26.089 157.683 25.950 157.646 C 25.812 157.609 25.665 157.615 25.530 157.665 C 25.395 157.714 25.278 157.803 25.196 157.921 C 25.113 158.038 25.069 158.179 25.069 158.322 V 164.601 C 25.069 164.744 25.113 164.884 25.196 165.002 C 25.278 165.120 25.395 165.209 25.530 165.258 C 25.665 165.307 25.812 165.314 25.950 165.277 C 26.089 165.240 26.213 165.161 26.306 165.051 L 27.186 164.001 C 27.252 163.922 27.341 163.866 27.440 163.839 C 27.539 163.813 27.644 163.817 27.740 163.852 C 27.837 163.888 27.920 163.951 27.979 164.036 C 28.038 164.120 28.069 164.220 28.069 164.322 V 171.461 C 28.069 171.517 28.114 171.561 28.169 171.561" stroke="rgb(0,0,0)" stroke-width="0.20" />
</g>
<g id="p-9" style="fill:none;stroke-linecap:round;stroke-linejoin:round;">
  <text dominant-baseline="hanging" font-size="4px" style="font-family: sans-serif ; font-weight: normal; font-style: normal; fill: rgb(255,0,0)" text-anchor="middle" transform="matrix( 1.000 0.000 0.000 1.000 71.300 137.861 )">Front side 20x86</text><path d="M 28.169 149.861 H 114.431 C 114.486 149.861 114.531 149.817 114.531 149.761 V 142.622 C 114.531 142.520 114.562 142.420 114.621 142.336 C 114.680 142.251 114.763 142.188 114.860 142.152 C 114.956 142.117 115.061 142.113 115.160 142.139 C 115.259 142.166 115.348 142.222 115.414 142.301 L 116.294 143.351 C 116.387 143.461 116.511 143.540 116.650 143.577 C 116.788 143.614 116.935 143.607 117.070 143.558 C 117.205 143.509 117.322 143.420 117.404 143.302 C 117.487 143.184 117.531 143.044 117.531 142.901 V 136.622 C 117.531 136.479 117.487 136.338 117.404 136.221 C 117.322 136.103 117.205 136.014 117.070 135.965 C 116.935 135.915 116.788 135.909 116.650 135.946 C 116.511 135.983 116.387 136.062 116.294 136.172 L 115.414 137.222 C 115.348 137.301 115.259 137.357 115.160 137.384 C 115.061 137.410 114.956 137.406 114.860 137.370 C 114.763 137.335 114.680 137.271 114.621 137.187 C 114.562 137.103 114.531 137.003 114.531 136.901 V 129.761 C 114.531 129.706 114.486 129.661 114.431 129.661 H 28.169 C 28.114 129.661 28.069 129.706 28.069 129.761 V 136.901 C 28.069 137.003 28.038 137.103 27.979 137.187 C 27.920 137.271 27.837 137.335 27.740 137.370 C 27.644 137.406 27.539 137.410 27.440 137.384 C 27.341 137.357 27.252 137.301 27.186 137.222 L 26.306 136.172 C 26.213 136.062 26.089 135.983 25.950 135.946 C 25.812 135.909 25.665 135.915 25.530 135.965 C 25.395 136.014 25.278 136.103 25.196 136.221 C 25.113 136.338 25.069 136.479 25.069 136.622 V 142.901 C 25.069 143.044 25.113 143.184 25.196 143.302 C 25.278 143.420 25.395 143.509 25.530 143.558 C 25.665 143.607 25.812 143.614 25.950 143.577 C 26.089 143.540 26.213 143.461 26.306 143.351 L 27.186 142.301 C 27.252 142.222 27.341 142.166 27.440 142.139 C 27.539 142.113 27.644 142.117 27.740 142.152 C 27.837 142.188 27.920 142.251 27.979 142.336 C 28.038 142.420 28.069 142.520 28.069 142.622 V 149.761 C 28.069 149.817 28.114 149.861 28.169 149.861" stroke="rgb(0,0,0)" stroke-width="0.20" />
</g>
<g id="p-10" style="fill:none;stroke-linecap:round;stroke-linejoin:round;">
  <text dominant-baseline="hanging" font-size="4px" style="font-family: sans-serif ; font-weight: normal; font-style: normal; fill: rgb(255,0,0)" text-anchor="middle" transform="matrix( 1.000 0.000 0.000 1.000 75.800 116.161 )">Front top 101x20</text><path d="M 25.169 128.161 H 32.308 C 32.452 128.161 32.592 128.117 32.710 128.035 C 32.828 127.952 32.917 127.836 32.966 127.701 C 33.015 127.566 33.022 127.419 32.985 127.280 C 32.947 127.142 32.868 127.018 32.758 126.925 L 31.709 126.044 C 31.630 125.978 31.574 125.890 31.547 125.791 C 31.521 125.692 31.525 125.587 31.560 125.490 C 31.595 125.394 31.659 125.311 31.743 125.252 C 31.827 125.193 31.928 125.161 32.030 125.161 H 38.308 C 38.411 125.161 38.511 125.193 38.595 125.252 C 38.679 125.311 38.743 125.394 38.778 125.490 C 38.813 125.587 38.818 125.692 38.791 125.791 C 38.765 125.890 38.708 125.978 38.630 126.044 L 37.580 126.925 C 37.470 127.018 37.391 127.142 37.354 127.280 C 37.317 127.419 37.323 127.566 37.372 127.701 C 37.421 127.836 37.511 127.952 37.629 128.035 C 37.746 128.117 37.886 128.161 38.030 128.161 H 45.169 H 106.431 H 113.570 C 113.714 128.161 113.854 128.117 113.971 128.035 C 114.089 127.952 114.179 127.836 114.228 127.701 C 114.277 127.566 114.283 127.419 114.246 127.280 C 114.209 127.142 114.130 127.018 114.020 126.925 L 112.970 126.044 C 112.892 125.978 112.835 125.890 112.809 125.791 C 112.782 125.692 112.787 125.587 112.822 125.490 C 112.857 125.394 112.921 125.311 113.005 125.252 C 113.089 125.193 113.189 125.161 113.292 125.161 H 119.570 C 119.672 125.161 119.773 125.193 119.857 125.252 C 119.941 125.311 120.005 125.394 120.040 125.490 C 120.075 125.587 120.079 125.692 120.053 125.791 C 120.026 125.890 119.970 125.978 119.891 126.044 L 118.842 126.925 C 118.732 127.018 118.653 127.142 118.615 127.280 C 118.578 127.419 118.585 127.566 118.634 127.701 C 118.683 127.836 118.772 127.952 118.890 128.035 C 119.008 128.117 119.148 128.161 119.292 128.161 H 126.431 C 126.486 128.161 126.531 128.117 126.531 128.061 V 108.061 C 126.531 108.006 126.486 107.961 126.431 107.961 H 25.169 C 25.114 107.961 25.069 108.006 25.069 108.061 V 128.061 C 25.069 128.117 25.114 128.161 25.169 128.161" stroke="rgb(0,0,0)" stroke-width="0.20" />
</g>
<g id="p-11" style="fill:none;stroke-linecap:round;stroke-linejoin:round;">
  <path d="M 60.800 93.631 H 37.900 C 37.800 93.631 37.900 93.731 37.900 93.631 V 22.831 C 37.900 22.731 37.800 22.831 37.900 22.831 H 83.700 C 83.800 22.831 83.700 22.731 83.700 22.831 V 93.631 C 83.700 93.731 83.800 93.631 83.700 93.631 H 60.800 Z" stroke="rgb(0,0,255)" stroke-width="0.20" />
  <text dominant-baseline="hanging" font-size="4px" style="font-family: sans-serif ; font-weight: normal; font-style: normal; fill: rgb(255,0,0)" text-anchor="middle" transform="matrix( 1.000 0.000 0.000 1.000 60.800 61.931 )">Overlaps photo 2, frame 5</text><text dominant-baseline="hanging" font-size="4px" style="font-family: sans-serif ; font-weight: normal; font-style: normal; fill: rgb(255,0,0)" text-anchor="middle" transform="matrix( 1.000 0.000 0.000 1.000 60.800 56.331 )">Borders 8w 8h</text><text dominant-baseline="hanging" font-size="4px" style="font-family: sans-serif ; font-weight: normal; font-style: normal; fill: rgb(255,0,0)" text-anchor="middle" transform="matrix( 1.000 0.000 0.000 1.000 60.800 50.731 )">Matting 71x96 - 46x71 (ratio 1.62)</text><path d="M 25.169 106.461 H 96.431 C 96.486 106.461 96.531 106.417 96.531 106.361 V 10.100 C 96.531 10.045 96.486 10.000 96.431 10.000 H 25.169 C 25.114 10.000 25.069 10.045 25.069 10.100 V 106.361 C 25.069 106.417 25.114 106.461 25.169 106.461" stroke="rgb(0,0,0)" stroke-width="0.20" />
</g>
<g id="p-12" style="fill:none;stroke-linecap:round;stroke-linejoin:round;">
  <text dominant-baseline="hanging" font-size="4px" style="font-family: sans-serif ; font-weight: normal; font-style: normal; fill: rgb(255,0,0)" text-anchor="middle" transform="matrix( 1.000 0.000 0.000 1.000 123.131 66.961 )">Photo 50x75</text><path d="M 98.131 106.461 H 148.131 C 148.186 106.461 148.231 106.417 148.231 106.361 V 31.361 C 148.231 31.306 148.186 31.261 148.131 31.261 H 98.131 C 98.075 31.261 98.031 31.306 98.031 31.361 V 106.361 C 98.031 106.417 98.075 106.461 98.131 106.461" stroke="rgb(255,0,0)" stroke-width="0.20" />
</g>
</svg>