<?xml version='1.0' encoding='utf-8'?>
<svg height="924.60mm" viewBox="0.0 0.0 411.20 924.60" width="411.20mm" xmlns="http://www.w3.org/2000/svg" xmlns:cc="http://creativecommons.org/ns#" xmlns:dc="http://purl.org/dc/elements/1.1/" xmlns:inkscape="http://www.inkscape.org/namespaces/inkscape" xmlns:rdf="http://www.w3.org/1999/02/22-rdf-syntax-ns#" xmlns:svg="http://www.w3.org/2000/svg" xmlns:xlink="http://www.w3.org/1999/xlink">
<!--
PizzaShovel - Pizza shovel with conveyor belt action



You need (permanent) baking paper to create the conveyor. With that you can pick up and put down the pizza by moving the handle attached to the belt.
    


Created with Boxes.py (https://festi.info/boxes.py)
Command line (remove spaces between dashes): boxes PizzaShovel
-->
<title>PizzaShovel</title>
<metadata>
<rdf:RDF><cc:Work>
<dc:title>Misc - PizzaShovel</dc:title>
<dc:source>boxes PizzaShovel</dc:source>
<dc:description>Pizza shovel with conveyor belt action


You need (permanent) baking paper to create the conveyor. With that you can pick up and put down the pizza by moving the handle attached to the belt.
    

Created with Boxes.py (https://festi.info/boxes.py)
Command line: boxes PizzaShovel
Command line short: boxes PizzaShovel
</dc:description>
</cc:Work></rdf:RDF></metadata>
<g id="p-0" style="fill:none;stroke-linecap:round;stroke-linejoin:round;">
  <path d="M 13.100 914.600 H 113.100 V 904.600 H 13.100 V 914.600 Z" stroke="rgb(0,0,0)" stroke-width="0.20" />
  <text dominant-baseline="hanging" font-size="6px" style="font-family: sans-serif ; font-weight: normal; font-style: normal; fill: rgb(255,0,0)" text-anchor="middle" transform="matrix( 1.000 0.000 0.000 1.000 63.100 906.600 )">100.0mm, burn:0.10mm</text>
</g>
<g id="p-1" style="fill:none;stroke-linecap:round;stroke-linejoin:round;">
  <path d="M 16.100 902.900 H 398.100 C 398.155 902.900 398.200 902.855 398.200 902.800 V 895.900 C 398.200 895.800 398.100 895.900 398.200 895.900 H 401.100 C 401.155 895.900 401.200 895.855 401.200 895.800 V 889.800 C 401.200 889.745 401.155 889.700 401.100 889.700 H 398.200 C 398.100 889.700 398.200 889.800 398.200 889.700 V 883.900 C 398.200 883.800 398.100 883.900 398.200 883.900 H 401.100 C 401.155 883.900 401.200 883.855 401.200 883.800 V 877.800 C 401.200 877.745 401.155 877.700 401.100 877.700 H 398.200 C 398.100 877.700 398.200 877.800 398.200 877.700 V 871.900 C 398.200 871.800 398.100 871.900 398.200 871.900 H 401.100 C 401.155 871.900 401.200 871.855 401.200 871.800 V 865.800 C 401.200 865.745 401.155 865.700 401.100 865.700 H 398.200 C 398.100 865.700 398.200 865.800 398.200 865.700 V 859.900 C 398.200 859.800 398.100 859.900 398.200 859.900 H 401.100 C 401.155 859.900 401.200 859.855 401.200 859.800 V 853.800 C 401.200 853.745 401.155 853.700 401.100 853.700 H 398.200 C 398.100 853.700 398.200 853.800 398.200 853.700 V 847.900 C 398.200 847.800 398.100 847.900 398.200 847.900 H 401.100 C 401.155 847.900 401.200 847.855 401.200 847.800 V 841.800 C 401.200 841.745 401.155 841.700 401.100 841.700 H 398.200 C 398.100 841.700 398.200 841.800 398.200 841.700 V 835.900 C 398.200 835.800 398.100 835.900 398.200 835.900 H 401.100 C 401.155 835.900 401.200 835.855 401.200 835.800 V 829.800 C 401.200 829.745 401.155 829.700 401.100 829.700 H 398.200 C 398.100 829.700 398.200 829.800 398.200 829.700 V 823.900 C 398.200 823.800 398.100 823.900 398.200 823.900 H 401.100 C 401.155 823.900 401.200 823.855 401.200 823.800 V 817.800 C 401.200 817.745 401.155 817.700 401.100 817.700 H 398.200 C 398.100 817.700 398.200 817.800 398.200 817.700 V 811.900 C 398.200 811.800 398.100 811.900 398.200 811.900 H 401.100 C 401.155 811.900 401.200 811.855 401.200 811.800 V 805.800 C 401.200 805.745 401.155 805.700 401.100 805.700 H 398.200 C 398.100 805.700 398.200 805.800 398.200 805.700 V 799.900 C 398.200 799.800 398.100 799.900 398.200 799.900 H 401.100 C 401.155 799.900 401.200 799.855 401.200 799.800 V 793.800 C 401.200 793.745 401.155 793.700 401.100 793.700 H 398.200 C 398.100 793.700 398.200 793.800 398.200 793.700 V 787.900 C 398.200 787.800 398.100 787.900 398.200 787.900 H 401.100 C 401.155 787.900 401.200 787.855 401.200 787.800 V 781.800 C 401.200 781.745 401.155 781.700 401.100 781.700 H 398.200 C 398.100 781.700 398.200 781.800 398.200 781.700 V 775.900 C 398.200 775.800 398.100 775.900 398.200 775.900 H 401.100 C 401.155 775.900 401.200 775.855 401.200 775.800 V 769.800 C 401.200 769.745 401.155 769.700 401.100 769.700 H 398.200 C 398.100 769.700 398.200 769.800 398.200 769.700 V 763.900 C 398.200 763.800 398.100 763.900 398.200 763.900 H 401.100 C 401.155 763.900 401.200 763.855 401.200 763.800 V 757.800 C 401.200 757.745 401.155 757.700 401.100 757.700 H 398.200 C 398.100 757.700 398.200 757.800 398.200 757.700 V 751.900 C 398.200 751.800 398.100 751.900 398.200 751.900 H 401.100 C 401.155 751.900 401.200 751.855 401.200 751.800 V 745.800 C 401.200 745.745 401.155 745.700 401.100 745.700 H 398.200 C 398.100 745.700 398.200 745.800 398.200 745.700 V 739.900 C 398.200 739.800 398.100 739.900 398.200 739.900 H 401.100 C 401.155 739.900 401.200 739.855 401.200 739.800 V 733.800 C 401.200 733.745 401.155 733.700 401.100 733.700 H 398.200 C 398.100 733.700 398.200 733.800 398.200 733.700 V 727.900 C 398.200 727.800 398.100 727.900 398.200 727.900 H 401.100 C 401.155 727.900 401.200 727.855 401.200 727.800 V 721.800 C 401.200 721.745 401.155 721.700 401.100 721.700 H 398.200 C 398.100 721.700 398.200 721.800 398.200 721.700 V 715.900 C 398.200 715.800 398.100 715.900 398.200 715.900 H 401.100 C 401.155 715.900 401.200 715.855 401.200 715.800 V 709.800 C 401.200 709.745 401.155 709.700 401.100 709.700 H 398.200 C 398.100 709.700 398.200 709.800 398.200 709.700 V 702.800 V 502.800 C 398.200 502.745 398.155 502.700 398.100 502.700 H 16.100 C 16.045 502.700 16.000 502.745 16.000 502.800 V 702.800 V 709.700 C 16.000 709.800 16.100 709.700 16.000 709.700 H 13.100 C 13.045 709.700 13.000 709.745 13.000 709.800 V 715.800 C 13.000 715.855 13.045 715.900 13.100 715.900 H 16.000 C 16.100 715.900 16.000 715.800 16.000 715.900 V 721.700 C 16.000 721.800 16.100 721.700 16.000 721.700 H 13.100 C 13.045 721.700 13.000 721.745 13.000 721.800 V 727.800 C 13.000 727.855 13.045 727.900 13.100 727.900 H 16.000 C 16.100 727.900 16.000 727.800 16.000 727.900 V 733.700 C 16.000 733.800 16.100 733.700 16.000 733.700 H 13.100 C 13.045 733.700 13.000 733.745 13.000 733.800 V 739.800 C 13.000 739.855 13.045 739.900 13.100 739.900 H 16.000 C 16.100 739.900 16.000 739.800 16.000 739.900 V 745.700 C 16.000 745.800 16.100 745.700 16.000 745.700 H 13.100 C 13.045 745.700 13.000 745.745 13.000 745.800 V 751.800 C 13.000 751.855 13.045 751.900 13.100 751.900 H 16.000 C 16.100 751.900 16.000 751.800 16.000 751.900 V 757.700 C 16.000 757.800 16.100 757.700 16.000 757.700 H 13.100 C 13.045 757.700 13.000 757.745 13.000 757.800 V 763.800 C 13.000 763.855 13.045 763.900 13.100 763.900 H 16.000 C 16.100 763.900 16.000 763.800 16.000 763.900 V 769.700 C 16.000 769.800 16.100 769.700 16.000 769.700 H 13.100 C 13.045 769.700 13.000 769.745 13.000 769.800 V 775.800 C 13.000 775.855 13.045 775.900 13.100 775.900 H 16.000 C 16.100 775.900 16.000 775.800 16.000 775.900 V 781.700 C 16.000 781.800 16.100 781.700 16.000 781.700 H 13.100 C 13.045 781.700 13.000 781.745 13.000 781.800 V 787.800 C 13.000 787.855 13.045 787.900 13.100 787.900 H 16.000 C 16.100 787.900 16.000 787.800 16.000 787.900 V 793.700 C 16.000 793.800 16.100 793.700 16.000 793.700 H 13.100 C 13.045 793.700 13.000 793.745 13.000 793.800 V 799.800 C 13.000 799.855 13.045 799.900 13.100 799.900 H 16.000 C 16.100 799.900 16.000 799.800 16.000 799.900 V 805.700 C 16.000 805.800 16.100 805.700 16.000 805.700 H 13.100 C 13.045 805.700 13.000 805.745 13.000 805.800 V 811.800 C 13.000 811.855 13.045 811.900 13.100 811.900 H 16.000 C 16.100 811.900 16.000 811.800 16.000 811.900 V 817.700 C 16.000 817.800 16.100 817.700 16.000 817.700 H 13.100 C 13.045 817.700 13.000 817.745 13.000 817.800 V 823.800 C 13.000 823.855 13.045 823.900 13.100 823.900 H 16.000 C 16.100 823.900 16.000 823.800 16.000 823.900 V 829.700 C 16.000 829.800 16.100 829.700 16.000 829.700 H 13.100 C 13.045 829.700 13.000 829.745 13.000 829.800 V 835.800 C 13.000 835.855 13.045 835.900 13.100 835.900 H 16.000 C 16.100 835.900 16.000 835.800 16.000 835.900 V 841.700 C 16.000 841.800 16.100 841.700 16.000 841.700 H 13.100 C 13.045 841.700 13.000 841.745 13.000 841.800 V 847.800 C 13.000 847.855 13.045 847.900 13.100 847.900 H 16.000 C 16.100 847.900 16.000 847.800 16.000 847.900 V 853.700 C 16.000 853.800 16.100 853.700 16.000 853.700 H 13.100 C 13.045 853.700 13.000 853.745 13.000 853.800 V 859.800 C 13.000 859.855 13.045 859.900 13.100 859.900 H 16.000 C 16.100 859.900 16.000 859.800 16.000 859.900 V 865.700 C 16.000 865.800 16.100 865.700 16.000 865.700 H 13.100 C 13.045 865.700 13.000 865.745 13.000 865.800 V 871.800 C 13.000 871.855 13.045 871.900 13.100 871.900 H 16.000 C 16.100 871.900 16.000 871.800 16.000 871.900 V 877.700 C 16.000 877.800 16.100 877.700 16.000 877.700 H 13.100 C 13.045 877.700 13.000 877.745 13.000 877.800 V 883.800 C 13.000 883.855 13.045 883.900 13.100 883.900 H 16.000 C 16.100 883.900 16.000 883.800 16.000 883.900 V 889.700 C 16.000 889.800 16.100 889.700 16.000 889.700 H 13.100 C 13.045 889.700 13.000 889.745 13.000 889.800 V 895.800 C 13.000 895.855 13.045 895.900 13.100 895.900 H 16.000 C 16.100 895.900 16.000 895.800 16.000 895.900 V 902.800 C 16.000 902.855 16.045 902.900 16.100 902.900 Z" stroke="rgb(0,0,0)" stroke-width="0.20" />
</g>
<g id="p-2" style="fill:none;stroke-linecap:round;stroke-linejoin:round;">
  <path d="M 205.500 487.100 V 490.000 C 205.500 490.100 205.600 490.000 205.500 490.000 H 202.700 C 202.600 490.000 202.700 490.100 202.700 490.000 V 484.200 C 202.700 484.100 202.600 484.200 202.700 484.200 H 205.500 C 205.600 484.200 205.500 484.100 205.500 484.200 V 487.100 Z" stroke="rgb(0,0,255)" stroke-width="0.20" />
  <path d="M 205.500 475.100 V 478.000 C 205.500 478.100 205.600 478.000 205.500 478.000 H 202.700 C 202.600 478.000 202.700 478.100 202.700 478.000 V 472.200 C 202.700 472.100 202.600 472.200 202.700 472.200 H 205.500 C 205.600 472.200 205.500 472.100 205.500 472.200 V 475.100 Z" stroke="rgb(0,0,255)" stroke-width="0.20" />
  <path d="M 211.500 487.100 V 490.000 C 211.500 490.100 211.600 490.000 211.500 490.000 H 208.700 C 208.600 490.000 208.700 490.100 208.700 490.000 V 484.200 C 208.700 484.100 208.600 484.200 208.700 484.200 H 211.500 C 211.600 484.200 211.500 484.100 211.500 484.200 V 487.100 Z" stroke="rgb(0,0,255)" stroke-width="0.20" />
  <path d="M 211.500 475.100 V 478.000 C 211.500 478.100 211.600 478.000 211.500 478.000 H 208.700 C 208.600 478.000 208.700 478.100 208.700 478.000 V 472.200 C 208.700 472.100 208.600 472.200 208.700 472.200 H 211.500 C 211.600 472.200 211.500 472.100 211.500 472.200 V 475.100 Z" stroke="rgb(0,0,255)" stroke-width="0.20" />
  <path d="M 16.100 501.200 H 398.100 C 398.155 501.200 398.200 501.155 398.200 501.100 V 490.200 C 398.200 490.100 398.100 490.200 398.200 490.200 H 401.100 C 401.155 490.200 401.200 490.155 401.200 490.100 V 484.100 C 401.200 484.045 401.155 484.000 401.100 484.000 H 398.200 C 398.100 484.000 398.200 484.100 398.200 484.000 V 478.200 C 398.200 478.100 398.100 478.200 398.200 478.200 H 401.100 C 401.155 478.200 401.200 478.155 401.200 478.100 V 472.100 C 401.200 472.045 401.155 472.000 401.100 472.000 H 398.200 C 398.100 472.000 398.200 472.100 398.200 472.000 V 461.100 C 398.200 461.045 398.155 461.000 398.100 461.000 H 16.100 C 16.045 461.000 16.000 461.045 16.000 461.100 V 472.000 C 16.000 472.100 16.100 472.000 16.000 472.000 H 13.100 C 13.045 472.000 13.000 472.045 13.000 472.100 V 478.100 C 13.000 478.155 13.045 478.200 13.100 478.200 H 16.000 C 16.100 478.200 16.000 478.100 16.000 478.200 V 484.000 C 16.000 484.100 16.100 484.000 16.000 484.000 H 13.100 C 13.045 484.000 13.000 484.045 13.000 484.100 V 490.100 C 13.000 490.155 13.045 490.200 13.100 490.200 H 16.000 C 16.100 490.200 16.000 490.100 16.000 490.200 V 501.100 C 16.000 501.155 16.045 501.200 16.100 501.200 Z" stroke="rgb(0,0,0)" stroke-width="0.20" />
</g>
<g id="p-3" style="fill:none;stroke-linecap:round;stroke-linejoin:round;">
  <path d="M 205.500 445.400 V 448.300 C 205.500 448.400 205.600 448.300 205.500 448.300 H 202.700 C 202.600 448.300 202.700 448.400 202.700 448.300 V 442.500 C 202.700 442.400 202.600 442.500 202.700 442.500 H 205.500 C 205.600 442.500 205.500 442.400 205.500 442.500 V 445.400 Z" stroke="rgb(0,0,255)" stroke-width="0.20" />
  <path d="M 205.500 433.400 V 436.300 C 205.500 436.400 205.600 436.300 205.500 436.300 H 202.700 C 202.600 436.300 202.700 436.400 202.700 436.300 V 430.500 C 202.700 430.400 202.600 430.500 202.700 430.500 H 205.500 C 205.600 430.500 205.500 430.400 205.500 430.500 V 433.400 Z" stroke="rgb(0,0,255)" stroke-width="0.20" />
  <path d="M 211.500 445.400 V 448.300 C 211.500 448.400 211.600 448.300 211.500 448.300 H 208.700 C 208.600 448.300 208.700 448.400 208.700 448.300 V 442.500 C 208.700 442.400 208.600 442.500 208.700 442.500 H 211.500 C 211.600 442.500 211.500 442.400 211.500 442.500 V 445.400 Z" stroke="rgb(0,0,255)" stroke-width="0.20" />
  <path d="M 211.500 433.400 V 436.300 C 211.500 436.400 211.600 436.300 211.500 436.300 H 208.700 C 208.600 436.300 208.700 436.400 208.700 436.300 V 430.500 C 208.700 430.400 208.600 430.500 208.700 430.500 H 211.500 C 211.600 430.500 211.500 430.400 211.500 430.500 V 433.400 Z" stroke="rgb(0,0,255)" stroke-width="0.20" />
  <path d="M 16.100 459.500 H 398.100 C 398.155 459.500 398.200 459.455 398.200 459.400 V 452.500 C 398.200 452.400 398.100 452.500 398.200 452.500 H 401.100 C 401.155 452.500 401.200 452.455 401.200 452.400 V 446.400 C 401.200 446.345 401.155 446.300 401.100 446.300 H 398.200 C 398.100 446.300 398.200 446.400 398.200 446.300 V 440.500 C 398.200 440.400 398.100 440.500 398.200 440.500 H 401.100 C 401.155 440.500 401.200 440.455 401.200 440.400 V 434.400 C 401.200 434.345 401.155 434.300 401.100 434.300 H 398.200 C 398.100 434.300 398.200 434.400 398.200 434.300 V 428.500 C 398.200 428.400 398.100 428.500 398.200 428.500 H 401.100 C 401.155 428.500 401.200 428.455 401.200 428.400 V 422.400 C 401.200 422.345 401.155 422.300 401.100 422.300 H 398.200 C 398.100 422.300 398.200 422.400 398.200 422.300 V 416.500 C 398.200 416.400 398.100 416.500 398.200 416.500 H 401.100 C 401.155 416.500 401.200 416.455 401.200 416.400 V 410.400 C 401.200 410.345 401.155 410.300 401.100 410.300 H 398.200 C 398.100 410.300 398.200 410.400 398.200 410.300 V 404.500 C 398.200 404.400 398.100 404.500 398.200 404.500 H 401.100 C 401.155 404.500 401.200 404.455 401.200 404.400 V 398.400 C 401.200 398.345 401.155 398.300 401.100 398.300 H 398.200 C 398.100 398.300 398.200 398.400 398.200 398.300 V 392.500 C 398.200 392.400 398.100 392.500 398.200 392.500 H 401.100 C 401.155 392.500 401.200 392.455 401.200 392.400 V 386.400 C 401.200 386.345 401.155 386.300 401.100 386.300 H 398.200 C 398.100 386.300 398.200 386.400 398.200 386.300 V 379.400 C 398.200 379.345 398.155 379.300 398.100 379.300 H 16.100 C 16.045 379.300 16.000 379.345 16.000 379.400 V 386.300 C 16.000 386.400 16.100 386.300 16.000 386.300 H 13.100 C 13.045 386.300 13.000 386.345 13.000 386.400 V 392.400 C 13.000 392.455 13.045 392.500 13.100 392.500 H 16.000 C 16.100 392.500 16.000 392.400 16.000 392.500 V 398.300 C 16.000 398.400 16.100 398.300 16.000 398.300 H 13.100 C 13.045 398.300 13.000 398.345 13.000 398.400 V 404.400 C 13.000 404.455 13.045 404.500 13.100 404.500 H 16.000 C 16.100 404.500 16.000 404.400 16.000 404.500 V 410.300 C 16.000 410.400 16.100 410.300 16.000 410.300 H 13.100 C 13.045 410.300 13.000 410.345 13.000 410.400 V 416.400 C 13.000 416.455 13.045 416.500 13.100 416.500 H 16.000 C 16.100 416.500 16.000 416.400 16.000 416.500 V 422.300 C 16.000 422.400 16.100 422.300 16.000 422.300 H 13.100 C 13.045 422.300 13.000 422.345 13.000 422.400 V 428.400 C 13.000 428.455 13.045 428.500 13.100 428.500 H 16.000 C 16.100 428.500 16.000 428.400 16.000 428.500 V 434.300 C 16.000 434.400 16.100 434.300 16.000 434.300 H 13.100 C 13.045 434.300 13.000 434.345 13.000 434.400 V 440.400 C 13.000 440.455 13.045 440.500 13.100 440.500 H 16.000 C 16.100 440.500 16.000 440.400 16.000 440.500 V 446.300 C 16.000 446.400 16.100 446.300 16.000 446.300 H 13.100 C 13.045 446.300 13.000 446.345 13.000 446.400 V 452.400 C 13.000 452.455 13.045 452.500 13.100 452.500 H 16.000 C 16.100 452.500 16.000 452.400 16.000 452.500 V 459.400 C 16.000 459.455 16.045 459.500 16.100 459.500 Z" stroke="rgb(0,0,0)" stroke-width="0.20" />
</g>
<g id="p-4" style="fill:none;stroke-linecap:round;stroke-linejoin:round;">
  <path d="M 23.100 374.600 H 20.200 C 20.100 374.600 20.200 374.700 20.200 374.600 V 371.800 C 20.200 371.700 20.100 371.800 20.200 371.800 H 26.000 C 26.100 371.800 26.000 371.700 26.000 371.800 V 374.600 C 26.000 374.700 26.100 374.600 26.000 374.600 H 23.100 Z" stroke="rgb(0,0,255)" stroke-width="0.20" />
  <path d="M 35.100 374.600 H 32.200 C 32.100 374.600 32.200 374.700 32.200 374.600 V 371.800 C 32.200 371.700 32.100 371.800 32.200 371.800 H 38.000 C 38.100 371.800 38.000 371.700 38.000 371.800 V 374.600 C 38.000 374.700 38.100 374.600 38.000 374.600 H 35.100 Z" stroke="rgb(0,0,255)" stroke-width="0.20" />
  <path d="M 47.100 374.600 H 44.200 C 44.100 374.600 44.200 374.700 44.200 374.600 V 371.800 C 44.200 371.700 44.100 371.800 44.200 371.800 H 50.000 C 50.100 371.800 50.000 371.700 50.000 371.800 V 374.600 C 50.000 374.700 50.100 374.600 50.000 374.600 H 47.100 Z" stroke="rgb(0,0,255)" stroke-width="0.20" />
  <path d="M 59.100 374.600 H 56.200 C 56.100 374.600 56.200 374.700 56.200 374.600 V 371.800 C 56.200 371.700 56.100 371.800 56.200 371.800 H 62.000 C 62.100 371.800 62.000 371.700 62.000 371.800 V 374.600 C 62.000 374.700 62.100 374.600 62.000 374.600 H 59.100 Z" stroke="rgb(0,0,255)" stroke-width="0.20" />
  <path d="M 71.100 374.600 H 68.200 C 68.100 374.600 68.200 374.700 68.200 374.600 V 371.800 C 68.200 371.700 68.100 371.800 68.200 371.800 H 74.000 C 74.100 371.800 74.000 371.700 74.000 371.800 V 374.600 C 74.000 374.700 74.100 374.600 74.000 374.600 H 71.100 Z" stroke="rgb(0,0,255)" stroke-width="0.20" />
  <path d="M 83.100 374.600 H 80.200 C 80.100 374.600 80.200 374.700 80.200 374.600 V 371.800 C 80.200 371.700 80.100 371.800 80.200 371.800 H 86.000 C 86.100 371.800 86.000 371.700 86.000 371.800 V 374.600 C 86.000 374.700 86.100 374.600 86.000 374.600 H 83.100 Z" stroke="rgb(0,0,255)" stroke-width="0.20" />
  <path d="M 95.100 374.600 H 92.200 C 92.100 374.600 92.200 374.700 92.200 374.600 V 371.800 C 92.200 371.700 92.100 371.800 92.200 371.800 H 98.000 C 98.100 371.800 98.000 371.700 98.000 371.800 V 374.600 C 98.000 374.700 98.100 374.600 98.000 374.600 H 95.100 Z" stroke="rgb(0,0,255)" stroke-width="0.20" />
  <path d="M 107.100 374.600 H 104.200 C 104.100 374.600 104.200 374.700 104.200 374.600 V 371.800 C 104.200 371.700 104.100 371.800 104.200 371.800 H 110.000 C 110.100 371.800 110.000 371.700 110.000 371.800 V 374.600 C 110.000 374.700 110.100 374.600 110.000 374.600 H 107.100 Z" stroke="rgb(0,0,255)" stroke-width="0.20" />
  <path d="M 119.100 374.600 H 116.200 C 116.100 374.600 116.200 374.700 116.200 374.600 V 371.800 C 116.200 371.700 116.100 371.800 116.200 371.800 H 122.000 C 122.100 371.800 122.000 371.700 122.000 371.800 V 374.600 C 122.000 374.700 122.100 374.600 122.000 374.600 H 119.100 Z" stroke="rgb(0,0,255)" stroke-width="0.20" />
  <path d="M 131.100 374.600 H 128.200 C 128.100 374.600 128.200 374.700 128.200 374.600 V 371.800 C 128.200 371.700 128.100 371.800 128.200 371.800 H 134.000 C 134.100 371.800 134.000 371.700 134.000 371.800 V 374.600 C 134.000 374.700 134.100 374.600 134.000 374.600 H 131.100 Z" stroke="rgb(0,0,255)" stroke-width="0.20" />
  <path d="M 143.100 374.600 H 140.200 C 140.100 374.600 140.200 374.700 140.200 374.600 V 371.800 C 140.200 371.700 140.100 371.800 140.200 371.800 H 146.000 C 146.100 371.800 146.000 371.700 146.000 371.800 V 374.600 C 146.000 374.700 146.100 374.600 146.000 374.600 H 143.100 Z" stroke="rgb(0,0,255)" stroke-width="0.20" />
  <path d="M 155.100 374.600 H 152.200 C 152.100 374.600 152.200 374.700 152.200 374.600 V 371.800 C 152.200 371.700 152.100 371.800 152.200 371.800 H 158.000 C 158.100 371.800 158.000 371.700 158.000 371.800 V 374.600 C 158.000 374.700 158.100 374.600 158.000 374.600 H 155.100 Z" stroke="rgb(0,0,255)" stroke-width="0.20" />
  <path d="M 167.100 374.600 H 164.200 C 164.100 374.600 164.200 374.700 164.200 374.600 V 371.800 C 164.200 371.700 164.100 371.800 164.200 371.800 H 170.000 C 170.100 371.800 170.000 371.700 170.000 371.800 V 374.600 C 170.000 374.700 170.100 374.600 170.000 374.600 H 167.100 Z" stroke="rgb(0,0,255)" stroke-width="0.20" />
  <path d="M 179.100 374.600 H 176.200 C 176.100 374.600 176.200 374.700 176.200 374.600 V 371.800 C 176.200 371.700 176.100 371.800 176.200 371.800 H 182.000 C 182.100 371.800 182.000 371.700 182.000 371.800 V 374.600 C 182.000 374.700 182.100 374.600 182.000 374.600 H 179.100 Z" stroke="rgb(0,0,255)" stroke-width="0.20" />
  <path d="M 191.100 374.600 H 188.200 C 188.100 374.600 188.200 374.700 188.200 374.600 V 371.800 C 188.200 371.700 188.100 371.800 188.200 371.800 H 194.000 C 194.100 371.800 194.000 371.700 194.000 371.800 V 374.600 C 194.000 374.700 194.100 374.600 194.000 374.600 H 191.100 Z" stroke="rgb(0,0,255)" stroke-width="0.20" />
  <path d="M 203.100 374.600 H 200.200 C 200.100 374.600 200.200 374.700 200.200 374.600 V 371.800 C 200.200 371.700 200.100 371.800 200.200 371.800 H 206.000 C 206.100 371.800 206.000 371.700 206.000 371.800 V 374.600 C 206.000 374.700 206.100 374.600 206.000 374.600 H 203.100 Z" stroke="rgb(0,0,255)" stroke-width="0.20" />
  <path d="M 230.100 374.600 H 227.200 C 227.100 374.600 227.200 374.700 227.200 374.600 V 371.800 C 227.200 371.700 227.100 371.800 227.200 371.800 H 233.000 C 233.100 371.800 233.000 371.700 233.000 371.800 V 374.600 C 233.000 374.700 233.100 374.600 233.000 374.600 H 230.100 Z" stroke="rgb(0,0,255)" stroke-width="0.20" />
  <path d="M 242.100 374.600 H 239.200 C 239.100 374.600 239.200 374.700 239.200 374.600 V 371.800 C 239.200 371.700 239.100 371.800 239.200 371.800 H 245.000 C 245.100 371.800 245.000 371.700 245.000 371.800 V 374.600 C 245.000 374.700 245.100 374.600 245.000 374.600 H 242.100 Z" stroke="rgb(0,0,255)" stroke-width="0.20" />
  <path d="M 13.100 377.800 H 253.100 C 253.644 377.800 254.179 377.657 254.650 377.385 C 255.121 377.113 255.513 376.721 255.785 376.250 C 256.057 375.779 256.200 375.244 256.200 374.700 V 338.700 C 256.200 338.156 256.057 337.621 255.785 337.150 C 255.513 336.679 255.121 336.287 254.650 336.015 C 254.179 335.743 253.644 335.600 253.100 335.600 H 183.100 C 183.093 335.600 183.086 335.601 183.079 335.602 L 13.387 371.537 L 13.090 371.600 C 13.079 371.602 13.100 371.600 13.090 371.600 H 12.786 H 13.100 C 12.556 371.600 12.021 371.743 11.550 372.015 C 11.079 372.287 10.687 372.679 10.415 373.150 C 10.143 373.621 10.000 374.156 10.000 374.700 C 10.000 375.244 10.143 375.779 10.415 376.250 C 10.687 376.721 11.079 377.113 11.550 377.385 C 12.021 377.657 12.556 377.800 13.100 377.800 Z" stroke="rgb(0,0,0)" stroke-width="0.20" />
  <path d="M 246.100 338.800 H 249.000 C 249.100 338.800 249.000 338.700 249.000 338.800 V 341.600 C 249.000 341.700 249.100 341.600 249.000 341.600 H 243.200 C 243.100 341.600 243.200 341.700 243.200 341.600 V 338.800 C 243.200 338.700 243.100 338.800 243.200 338.800 H 246.100 Z" stroke="rgb(0,0,255)" stroke-width="0.20" />
  <path d="M 234.100 338.800 H 237.000 C 237.100 338.800 237.000 338.700 237.000 338.800 V 341.600 C 237.000 341.700 237.100 341.600 237.000 341.600 H 231.200 C 231.100 341.600 231.200 341.700 231.200 341.600 V 338.800 C 231.200 338.700 231.100 338.800 231.200 338.800 H 234.100 Z" stroke="rgb(0,0,255)" stroke-width="0.20" />
  <path d="M 222.100 338.800 H 225.000 C 225.100 338.800 225.000 338.700 225.000 338.800 V 341.600 C 225.000 341.700 225.100 341.600 225.000 341.600 H 219.200 C 219.100 341.600 219.200 341.700 219.200 341.600 V 338.800 C 219.200 338.700 219.100 338.800 219.200 338.800 H 222.100 Z" stroke="rgb(0,0,255)" stroke-width="0.20" />
  <path d="M 210.100 338.800 H 213.000 C 213.100 338.800 213.000 338.700 213.000 338.800 V 341.600 C 213.000 341.700 213.100 341.600 213.000 341.600 H 207.200 C 207.100 341.600 207.200 341.700 207.200 341.600 V 338.800 C 207.200 338.700 207.100 338.800 207.200 338.800 H 210.100 Z" stroke="rgb(0,0,255)" stroke-width="0.20" />
  <path d="M 198.100 338.800 H 201.000 C 201.100 338.800 201.000 338.700 201.000 338.800 V 341.600 C 201.000 341.700 201.100 341.600 201.000 341.600 H 195.200 C 195.100 341.600 195.200 341.700 195.200 341.600 V 338.800 C 195.200 338.700 195.100 338.800 195.200 338.800 H 198.100 Z" stroke="rgb(0,0,255)" stroke-width="0.20" />
  <path d="M 186.100 338.800 H 189.000 C 189.100 338.800 189.000 338.700 189.000 338.800 V 341.600 C 189.000 341.700 189.100 341.600 189.000 341.600 H 183.200 C 183.100 341.600 183.200 341.700 183.200 341.600 V 338.800 C 183.200 338.700 183.100 338.800 183.200 338.800 H 186.100 Z" stroke="rgb(0,0,255)" stroke-width="0.20" />
</g>
<g id="p-5" style="fill:none;stroke-linecap:round;stroke-linejoin:round;">
  <path d="M 23.100 330.900 H 20.200 C 20.100 330.900 20.200 331.000 20.200 330.900 V 328.100 C 20.200 328.000 20.100 328.100 20.200 328.100 H 26.000 C 26.100 328.100 26.000 328.000 26.000 328.100 V 330.900 C 26.000 331.000 26.100 330.900 26.000 330.900 H 23.100 Z" stroke="rgb(0,0,255)" stroke-width="0.20" />
  <path d="M 35.100 330.900 H 32.200 C 32.100 330.900 32.200 331.000 32.200 330.900 V 328.100 C 32.200 328.000 32.100 328.100 32.200 328.100 H 38.000 C 38.100 328.100 38.000 328.000 38.000 328.100 V 330.900 C 38.000 331.000 38.100 330.900 38.000 330.900 H 35.100 Z" stroke="rgb(0,0,255)" stroke-width="0.20" />
  <path d="M 47.100 330.900 H 44.200 C 44.100 330.900 44.200 331.000 44.200 330.900 V 328.100 C 44.200 328.000 44.100 328.100 44.200 328.100 H 50.000 C 50.100 328.100 50.000 328.000 50.000 328.100 V 330.900 C 50.000 331.000 50.100 330.900 50.000 330.900 H 47.100 Z" stroke="rgb(0,0,255)" stroke-width="0.20" />
  <path d="M 59.100 330.900 H 56.200 C 56.100 330.900 56.200 331.000 56.200 330.900 V 328.100 C 56.200 328.000 56.100 328.100 56.200 328.100 H 62.000 C 62.100 328.100 62.000 328.000 62.000 328.100 V 330.900 C 62.000 331.000 62.100 330.900 62.000 330.900 H 59.100 Z" stroke="rgb(0,0,255)" stroke-width="0.20" />
  <path d="M 71.100 330.900 H 68.200 C 68.100 330.900 68.200 331.000 68.200 330.900 V 328.100 C 68.200 328.000 68.100 328.100 68.200 328.100 H 74.000 C 74.100 328.100 74.000 328.000 74.000 328.100 V 330.900 C 74.000 331.000 74.100 330.900 74.000 330.900 H 71.100 Z" stroke="rgb(0,0,255)" stroke-width="0.20" />
  <path d="M 83.100 330.900 H 80.200 C 80.100 330.900 80.200 331.000 80.200 330.900 V 328.100 C 80.200 328.000 80.100 328.100 80.200 328.100 H 86.000 C 86.100 328.100 86.000 328.000 86.000 328.100 V 330.900 C 86.000 331.000 86.100 330.900 86.000 330.900 H 83.100 Z" stroke="rgb(0,0,255)" stroke-width="0.20" />
  <path d="M 95.100 330.900 H 92.200 C 92.100 330.900 92.200 331.000 92.200 330.900 V 328.100 C 92.200 328.000 92.100 328.100 92.200 328.100 H 98.000 C 98.100 328.100 98.000 328.000 98.000 328.100 V 330.900 C 98.000 331.000 98.100 330.900 98.000 330.900 H 95.100 Z" stroke="rgb(0,0,255)" stroke-width="0.20" />
  <path d="M 107.100 330.900 H 104.200 C 104.100 330.900 104.200 331.000 104.200 330.900 V 328.100 C 104.200 328.000 104.100 328.100 104.200 328.100 H 110.000 C 110.100 328.100 110.000 328.000 110.000 328.100 V 330.900 C 110.000 331.000 110.100 330.900 110.000 330.900 H 107.100 Z" stroke="rgb(0,0,255)" stroke-width="0.20" />
  <path d="M 119.100 330.900 H 116.200 C 116.100 330.900 116.200 331.000 116.200 330.900 V 328.100 C 116.200 328.000 116.100 328.100 116.200 328.100 H 122.000 C 122.100 328.100 122.000 328.000 122.000 328.100 V 330.900 C 122.000 331.000 122.100 330.900 122.000 330.900 H 119.100 Z" stroke="rgb(0,0,255)" stroke-width="0.20" />
  <path d="M 131.100 330.900 H 128.200 C 128.100 330.900 128.200 331.000 128.200 330.900 V 328.100 C 128.200 328.000 128.100 328.100 128.200 328.100 H 134.000 C 134.100 328.100 134.000 328.000 134.000 328.100 V 330.900 C 134.000 331.000 134.100 330.900 134.000 330.900 H 131.100 Z" stroke="rgb(0,0,255)" stroke-width="0.20" />
  <path d="M 143.100 330.900 H 140.200 C 140.100 330.900 140.200 331.000 140.200 330.900 V 328.100 C 140.200 328.000 140.100 328.100 140.200 328.100 H 146.000 C 146.100 328.100 146.000 328.000 146.000 328.100 V 330.900 C 146.000 331.000 146.100 330.900 146.000 330.900 H 143.100 Z" stroke="rgb(0,0,255)" stroke-width="0.20" />
  <path d="M 155.100 330.900 H 152.200 C 152.100 330.900 152.200 331.000 152.200 330.900 V 328.100 C 152.200 328.000 152.100 328.100 152.200 328.100 H 158.000 C 158.100 328.100 158.000 328.000 158.000 328.100 V 330.900 C 158.000 331.000 158.100 330.900 158.000 330.900 H 155.100 Z" stroke="rgb(0,0,255)" stroke-width="0.20" />
  <path d="M 167.100 330.900 H 164.200 C 164.100 330.900 164.200 331.000 164.200 330.900 V 328.100 C 164.200 328.000 164.100 328.100 164.200 328.100 H 170.000 C 170.100 328.100 170.000 328.000 170.000 328.100 V 330.900 C 170.000 331.000 170.100 330.900 170.000 330.900 H 167.100 Z" stroke="rgb(0,0,255)" stroke-width="0.20" />
  <path d="M 179.100 330.900 H 176.200 C 176.100 330.900 176.200 331.000 176.200 330.900 V 328.100 C 176.200 328.000 176.100 328.100 176.200 328.100 H 182.000 C 182.100 328.100 182.000 328.000 182.000 328.100 V 330.900 C 182.000 331.000 182.100 330.900 182.000 330.900 H 179.100 Z" stroke="rgb(0,0,255)" stroke-width="0.20" />
  <path d="M 191.100 330.900 H 188.200 C 188.100 330.900 188.200 331.000 188.200 330.900 V 328.100 C 188.200 328.000 188.100 328.100 188.200 328.100 H 194.000 C 194.100 328.100 194.000 328.000 194.000 328.100 V 330.900 C 194.000 331.000 194.100 330.900 194.000 330.900 H 191.100 Z" stroke="rgb(0,0,255)" stroke-width="0.20" />
  <path d="M 203.100 330.900 H 200.200 C 200.100 330.900 200.200 331.000 200.200 330.900 V 328.100 C 200.200 328.000 200.100 328.100 200.200 328.100 H 206.000 C 206.100 328.100 206.000 328.000 206.000 328.100 V 330.900 C 206.000 331.000 206.100 330.900 206.000 330.900 H 203.100 Z" stroke="rgb(0,0,255)" stroke-width="0.20" />
  <path d="M 230.100 330.900 H 227.200 C 227.100 330.900 227.200 331.000 227.200 330.900 V 328.100 C 227.200 328.000 227.100 328.100 227.200 328.100 H 233.000 C 233.100 328.100 233.000 328.000 233.000 328.100 V 330.900 C 233.000 331.000 233.100 330.900 233.000 330.900 H 230.100 Z" stroke="rgb(0,0,255)" stroke-width="0.20" />
  <path d="M 242.100 330.900 H 239.200 C 239.100 330.900 239.200 331.000 239.200 330.900 V 328.100 C 239.200 328.000 239.100 328.100 239.200 328.100 H 245.000 C 245.100 328.100 245.000 328.000 245.000 328.100 V 330.900 C 245.000 331.000 245.100 330.900 245.000 330.900 H 242.100 Z" stroke="rgb(0,0,255)" stroke-width="0.20" />
  <path d="M 13.100 334.100 H 253.100 C 253.644 334.100 254.179 333.957 254.650 333.685 C 255.121 333.413 255.513 333.021 255.785 332.550 C 256.057 332.079 256.200 331.544 256.200 331.000 V 295.000 C 256.200 294.456 256.057 293.921 255.785 293.450 C 255.513 292.979 255.121 292.587 254.650 292.315 C 254.179 292.043 253.644 291.900 253.100 291.900 H 183.100 C 183.093 291.900 183.086 291.901 183.079 291.902 L 13.387 327.837 L 13.090 327.900 C 13.079 327.902 13.100 327.900 13.090 327.900 H 12.786 H 13.100 C 12.556 327.900 12.021 328.043 11.550 328.315 C 11.079 328.587 10.687 328.979 10.415 329.450 C 10.143 329.921 10.000 330.456 10.000 331.000 C 10.000 331.544 10.143 332.079 10.415 332.550 C 10.687 333.021 11.079 333.413 11.550 333.685 C 12.021 333.957 12.556 334.100 13.100 334.100 Z" stroke="rgb(0,0,0)" stroke-width="0.20" />
  <path d="M 246.100 295.100 H 249.000 C 249.100 295.100 249.000 295.000 249.000 295.100 V 297.900 C 249.000 298.000 249.100 297.900 249.000 297.900 H 243.200 C 243.100 297.900 243.200 298.000 243.200 297.900 V 295.100 C 243.200 295.000 243.100 295.100 243.200 295.100 H 246.100 Z" stroke="rgb(0,0,255)" stroke-width="0.20" />
  <path d="M 234.100 295.100 H 237.000 C 237.100 295.100 237.000 295.000 237.000 295.100 V 297.900 C 237.000 298.000 237.100 297.900 237.000 297.900 H 231.200 C 231.100 297.900 231.200 298.000 231.200 297.900 V 295.100 C 231.200 295.000 231.100 295.100 231.200 295.100 H 234.100 Z" stroke="rgb(0,0,255)" stroke-width="0.20" />
  <path d="M 222.100 295.100 H 225.000 C 225.100 295.100 225.000 295.000 225.000 295.100 V 297.900 C 225.000 298.000 225.100 297.900 225.000 297.900 H 219.200 C 219.100 297.900 219.200 298.000 219.200 297.900 V 295.100 C 219.200 295.000 219.100 295.100 219.200 295.100 H 222.100 Z" stroke="rgb(0,0,255)" stroke-width="0.20" />
  <path d="M 210.100 295.100 H 213.000 C 213.100 295.100 213.000 295.000 213.000 295.100 V 297.900 C 213.000 298.000 213.100 297.900 213.000 297.900 H 207.200 C 207.100 297.900 207.200 298.000 207.200 297.900 V 295.100 C 207.200 295.000 207.100 295.100 207.200 295.100 H 210.100 Z" stroke="rgb(0,0,255)" stroke-width="0.20" />
  <path d="M 198.100 295.100 H 201.000 C 201.100 295.100 201.000 295.000 201.000 295.100 V 297.900 C 201.000 298.000 201.100 297.900 201.000 297.900 H 195.200 C 195.100 297.900 195.200 298.000 195.200 297.900 V 295.100 C 195.200 295.000 195.100 295.100 195.200 295.100 H 198.100 Z" stroke="rgb(0,0,255)" stroke-width="0.20" />
  <path d="M 186.100 295.100 H 189.000 C 189.100 295.100 189.000 295.000 189.000 295.100 V 297.900 C 189.000 298.000 189.100 297.900 189.000 297.900 H 183.200 C 183.100 297.900 183.200 298.000 183.200 297.900 V 295.100 C 183.200 295.000 183.100 295.100 183.200 295.100 H 186.100 Z" stroke="rgb(0,0,255)" stroke-width="0.20" />
</g>
<g id="p-6" style="fill:none;stroke-linecap:round;stroke-linejoin:round;">
  <path d="M 51.900 270.300 C 51.900 270.473 51.850 270.641 51.757 270.787 C 51.664 270.932 51.531 271.047 51.374 271.119 C 51.217 271.190 51.043 271.215 50.872 271.191 C 50.701 271.166 50.541 271.093 50.411 270.980 C 50.280 270.867 50.185 270.719 50.136 270.554 C 50.088 270.388 50.088 270.212 50.136 270.046 C 50.185 269.881 50.280 269.733 50.411 269.620 C 50.541 269.507 50.701 269.434 50.872 269.409 C 51.043 269.385 51.217 269.410 51.374 269.481 C 51.531 269.553 51.664 269.668 51.757 269.813 C 51.850 269.959 51.900 270.127 51.900 270.300 Z" stroke="rgb(0,0,255)" stroke-width="0.20" />
  <path d="M 127.700 270.300 C 127.700 270.473 127.650 270.641 127.557 270.787 C 127.464 270.932 127.331 271.047 127.174 271.119 C 127.017 271.190 126.843 271.215 126.672 271.191 C 126.501 271.166 126.341 271.093 126.211 270.980 C 126.080 270.867 125.985 270.719 125.936 270.554 C 125.888 270.388 125.888 270.212 125.936 270.046 C 125.985 269.881 126.080 269.733 126.211 269.620 C 126.341 269.507 126.501 269.434 126.672 269.409 C 126.843 269.385 127.017 269.410 127.174 269.481 C 127.331 269.553 127.464 269.668 127.557 269.813 C 127.650 269.959 127.700 270.127 127.700 270.300 Z" stroke="rgb(0,0,255)" stroke-width="0.20" />
  <path d="M 203.500 270.300 C 203.500 270.473 203.450 270.641 203.357 270.787 C 203.264 270.932 203.131 271.047 202.974 271.119 C 202.817 271.190 202.643 271.215 202.472 271.191 C 202.301 271.166 202.141 271.093 202.011 270.980 C 201.880 270.867 201.785 270.719 201.736 270.554 C 201.688 270.388 201.688 270.212 201.736 270.046 C 201.785 269.881 201.880 269.733 202.011 269.620 C 202.141 269.507 202.301 269.434 202.472 269.409 C 202.643 269.385 202.817 269.410 202.974 269.481 C 203.131 269.553 203.264 269.668 203.357 269.813 C 203.450 269.959 203.500 270.127 203.500 270.300 Z" stroke="rgb(0,0,255)" stroke-width="0.20" />
  <path d="M 279.300 270.300 C 279.300 270.473 279.250 270.641 279.157 270.787 C 279.064 270.932 278.931 271.047 278.774 271.119 C 278.617 271.190 278.443 271.215 278.272 271.191 C 278.101 271.166 277.941 271.093 277.811 270.980 C 277.680 270.867 277.585 270.719 277.536 270.554 C 277.488 270.388 277.488 270.212 277.536 270.046 C 277.585 269.881 277.680 269.733 277.811 269.620 C 277.941 269.507 278.101 269.434 278.272 269.409 C 278.443 269.385 278.617 269.410 278.774 269.481 C 278.931 269.553 279.064 269.668 279.157 269.813 C 279.250 269.959 279.300 270.127 279.300 270.300 Z" stroke="rgb(0,0,255)" stroke-width="0.20" />
  <path d="M 355.100 270.300 C 355.100 270.473 355.050 270.641 354.957 270.787 C 354.864 270.932 354.731 271.047 354.574 271.119 C 354.417 271.190 354.243 271.215 354.072 271.191 C 353.901 271.166 353.741 271.093 353.611 270.980 C 353.480 270.867 353.385 270.719 353.336 270.554 C 353.288 270.388 353.288 270.212 353.336 270.046 C 353.385 269.881 353.480 269.733 353.611 269.620 C 353.741 269.507 353.901 269.434 354.072 269.409 C 354.243 269.385 354.417 269.410 354.574 269.481 C 354.731 269.553 354.864 269.668 354.957 269.813 C 355.050 269.959 355.100 270.127 355.100 270.300 Z" stroke="rgb(0,0,255)" stroke-width="0.20" />
  <path d="M 13.100 290.400 H 392.100 C 392.155 290.400 392.200 290.355 392.200 290.300 V 250.300 C 392.200 250.245 392.155 250.200 392.100 250.200 H 13.100 C 13.045 250.200 13.000 250.245 13.000 250.300 V 290.300 C 13.000 290.355 13.045 290.400 13.100 290.400 Z" stroke="rgb(0,0,0)" stroke-width="0.20" />
</g>
<g id="p-7" style="fill:none;stroke-linecap:round;stroke-linejoin:round;">
  <path d="M 52.400 188.600 C 52.400 188.868 52.323 189.131 52.178 189.357 C 52.033 189.583 51.826 189.762 51.582 189.873 C 51.337 189.985 51.066 190.024 50.801 189.986 C 50.535 189.948 50.286 189.834 50.083 189.658 C 49.880 189.482 49.732 189.252 49.657 188.994 C 49.581 188.737 49.581 188.463 49.657 188.206 C 49.732 187.948 49.880 187.718 50.083 187.542 C 50.286 187.366 50.535 187.252 50.801 187.214 C 51.066 187.176 51.337 187.215 51.582 187.327 C 51.826 187.438 52.033 187.617 52.178 187.843 C 52.323 188.069 52.400 188.332 52.400 188.600 Z" stroke="rgb(0,0,255)" stroke-width="0.20" />
  <path d="M 128.200 188.600 C 128.200 188.868 128.123 189.131 127.978 189.357 C 127.833 189.583 127.626 189.762 127.382 189.873 C 127.137 189.985 126.866 190.024 126.601 189.986 C 126.335 189.948 126.086 189.834 125.883 189.658 C 125.680 189.482 125.532 189.252 125.457 188.994 C 125.381 188.737 125.381 188.463 125.457 188.206 C 125.532 187.948 125.680 187.718 125.883 187.542 C 126.086 187.366 126.335 187.252 126.601 187.214 C 126.866 187.176 127.137 187.215 127.382 187.327 C 127.626 187.438 127.833 187.617 127.978 187.843 C 128.123 188.069 128.200 188.332 128.200 188.600 Z" stroke="rgb(0,0,255)" stroke-width="0.20" />
  <path d="M 204.000 188.600 C 204.000 188.868 203.923 189.131 203.778 189.357 C 203.633 189.583 203.426 189.762 203.182 189.873 C 202.937 189.985 202.666 190.024 202.401 189.986 C 202.135 189.948 201.886 189.834 201.683 189.658 C 201.480 189.482 201.332 189.252 201.257 188.994 C 201.181 188.737 201.181 188.463 201.257 188.206 C 201.332 187.948 201.480 187.718 201.683 187.542 C 201.886 187.366 202.135 187.252 202.401 187.214 C 202.666 187.176 202.937 187.215 203.182 187.327 C 203.426 187.438 203.633 187.617 203.778 187.843 C 203.923 188.069 204.000 188.332 204.000 188.600 Z" stroke="rgb(0,0,255)" stroke-width="0.20" />
  <path d="M 279.800 188.600 C 279.800 188.868 279.723 189.131 279.578 189.357 C 279.433 189.583 279.226 189.762 278.982 189.873 C 278.737 189.985 278.466 190.024 278.201 189.986 C 277.935 189.948 277.686 189.834 277.483 189.658 C 277.280 189.482 277.132 189.252 277.057 188.994 C 276.981 188.737 276.981 188.463 277.057 188.206 C 277.132 187.948 277.280 187.718 277.483 187.542 C 277.686 187.366 277.935 187.252 278.201 187.214 C 278.466 187.176 278.737 187.215 278.982 187.327 C 279.226 187.438 279.433 187.617 279.578 187.843 C 279.723 188.069 279.800 188.332 279.800 188.600 Z" stroke="rgb(0,0,255)" stroke-width="0.20" />
  <path d="M 355.600 188.600 C 355.600 188.868 355.523 189.131 355.378 189.357 C 355.233 189.583 355.026 189.762 354.782 189.873 C 354.537 189.985 354.266 190.024 354.001 189.986 C 353.735 189.948 353.486 189.834 353.283 189.658 C 353.080 189.482 352.932 189.252 352.857 188.994 C 352.781 188.737 352.781 188.463 352.857 188.206 C 352.932 187.948 353.080 187.718 353.283 187.542 C 353.486 187.366 353.735 187.252 354.001 187.214 C 354.266 187.176 354.537 187.215 354.782 187.327 C 355.026 187.438 355.233 187.617 355.378 187.843 C 355.523 188.069 355.600 188.332 355.600 188.600 Z" stroke="rgb(0,0,255)" stroke-width="0.20" />
  <path d="M 13.100 208.700 C 13.045 208.700 13.000 208.655 13.000 208.600 V 238.600 C 13.000 240.373 13.467 242.115 14.353 243.650 C 15.240 245.185 16.515 246.460 18.050 247.347 C 19.585 248.233 21.327 248.700 23.100 248.700 H 382.100 C 383.873 248.700 385.615 248.233 387.150 247.347 C 388.685 246.460 389.960 245.185 390.847 243.650 C 391.733 242.115 392.200 240.373 392.200 238.600 V 208.600 C 392.200 208.655 392.155 208.700 392.100 208.700 C 392.155 208.700 392.200 208.655 392.200 208.600 V 168.600 C 392.200 168.545 392.155 168.500 392.100 168.500 H 13.100 C 13.045 168.500 13.000 168.545 13.000 168.600 V 208.600 C 13.000 208.655 13.045 208.700 13.100 208.700 Z" stroke="rgb(0,0,0)" stroke-width="0.20" />
  <path d="M 22.217 228.600 C 22.217 226.379 22.801 224.198 23.911 222.275 C 25.022 220.352 26.619 218.755 28.542 217.645 C 30.465 216.535 32.646 215.950 34.867 215.950 H 119.467 C 121.687 215.950 123.869 216.535 125.792 217.645 C 127.715 218.755 129.312 220.352 130.422 222.275 C 131.532 224.198 132.117 226.379 132.117 228.600 C 132.117 230.821 131.532 233.002 130.422 234.925 C 129.312 236.848 127.715 238.445 125.792 239.555 C 123.869 240.665 121.687 241.250 119.467 241.250 H 34.867 C 32.646 241.250 30.465 240.665 28.542 239.555 C 26.619 238.445 25.022 236.848 23.911 234.925 C 22.801 233.002 22.217 230.821 22.217 228.600 Z" stroke="rgb(0,0,255)" stroke-width="0.20" />
  <path d="M 147.550 228.600 C 147.550 226.379 148.135 224.198 149.245 222.275 C 150.355 220.352 151.952 218.755 153.875 217.645 C 155.798 216.535 157.979 215.950 160.200 215.950 H 244.800 C 247.021 215.950 249.202 216.535 251.125 217.645 C 253.048 218.755 254.645 220.352 255.755 222.275 C 256.865 224.198 257.450 226.379 257.450 228.600 C 257.450 230.821 256.865 233.002 255.755 234.925 C 254.645 236.848 253.048 238.445 251.125 239.555 C 249.202 240.665 247.021 241.250 244.800 241.250 H 160.200 C 157.979 241.250 155.798 240.665 153.875 239.555 C 151.952 238.445 150.355 236.848 149.245 234.925 C 148.135 233.002 147.550 230.821 147.550 228.600 Z" stroke="rgb(0,0,255)" stroke-width="0.20" />
  <path d="M 272.883 228.600 C 272.883 226.379 273.468 224.198 274.578 222.275 C 275.688 220.352 277.285 218.755 279.208 217.645 C 281.131 216.535 283.313 215.950 285.533 215.950 H 370.133 C 372.354 215.950 374.535 216.535 376.458 217.645 C 378.381 218.755 379.978 220.352 381.089 222.275 C 382.199 224.198 382.783 226.379 382.783 228.600 C 382.783 230.821 382.199 233.002 381.089 234.925 C 379.978 236.848 378.381 238.445 376.458 239.555 C 374.535 240.665 372.354 241.250 370.133 241.250 H 285.533 C 283.313 241.250 281.131 240.665 279.208 239.555 C 277.285 238.445 275.688 236.848 274.578 234.925 C 273.468 233.002 272.883 230.821 272.883 228.600 Z" stroke="rgb(0,0,255)" stroke-width="0.20" />
</g>
<g id="p-8" style="fill:none;stroke-linecap:round;stroke-linejoin:round;">
  <path d="M 13.100 164.000 H 24.000 C 24.100 164.000 24.000 163.900 24.000 164.000 V 166.900 C 24.000 166.955 24.045 167.000 24.100 167.000 H 30.100 C 30.155 167.000 30.200 166.955 30.200 166.900 V 164.000 C 30.200 163.900 30.100 164.000 30.200 164.000 H 36.000 C 36.100 164.000 36.000 163.900 36.000 164.000 V 166.900 C 36.000 166.955 36.045 167.000 36.100 167.000 H 42.100 C 42.155 167.000 42.200 166.955 42.200 166.900 V 164.000 C 42.200 163.900 42.100 164.000 42.200 164.000 H 53.100 H 288.100 C 290.751 164.000 293.355 163.302 295.650 161.977 C 297.945 160.652 299.852 158.745 301.177 156.450 C 302.502 154.155 303.200 151.551 303.200 148.900 C 303.200 146.249 302.502 143.645 301.177 141.350 C 299.852 139.055 297.945 137.148 295.650 135.823 C 293.355 134.498 290.751 133.800 288.100 133.800 H 53.100 H 42.200 C 42.100 133.800 42.200 133.900 42.200 133.800 V 130.900 C 42.200 130.845 42.155 130.800 42.100 130.800 H 36.100 C 36.045 130.800 36.000 130.845 36.000 130.900 V 133.800 C 36.000 133.900 36.100 133.800 36.000 133.800 H 30.200 C 30.100 133.800 30.200 133.900 30.200 133.800 V 130.900 C 30.200 130.845 30.155 130.800 30.100 130.800 H 24.100 C 24.045 130.800 24.000 130.845 24.000 130.900 V 133.800 C 24.000 133.900 24.100 133.800 24.000 133.800 H 13.100 C 13.045 133.800 13.000 133.845 13.000 133.900 V 163.900 C 13.000 163.955 13.045 164.000 13.100 164.000 Z" stroke="rgb(0,0,0)" stroke-width="0.20" />
</g>
<g id="p-9" style="fill:none;stroke-linecap:round;stroke-linejoin:round;">
  <path d="M 13.100 129.300 H 288.100 C 290.751 129.300 293.355 128.602 295.650 127.277 C 297.945 125.952 299.852 124.045 301.177 121.750 C 302.502 119.455 303.200 116.851 303.200 114.200 C 303.200 111.549 302.502 108.945 301.177 106.650 C 299.852 104.355 297.945 102.448 295.650 101.123 C 293.355 99.798 290.751 99.100 288.100 99.100 H 13.100 C 13.045 99.100 13.000 99.145 13.000 99.200 V 129.200 C 13.000 129.255 13.045 129.300 13.100 129.300 Z" stroke="rgb(0,0,0)" stroke-width="0.20" />
</g>
<g id="p-10" style="fill:none;stroke-linecap:round;stroke-linejoin:round;">
  <path d="M 13.100 94.600 H 24.000 C 24.100 94.600 24.000 94.500 24.000 94.600 V 97.500 C 24.000 97.555 24.045 97.600 24.100 97.600 H 30.100 C 30.155 97.600 30.200 97.555 30.200 97.500 V 94.600 C 30.200 94.500 30.100 94.600 30.200 94.600 H 36.000 C 36.100 94.600 36.000 94.500 36.000 94.600 V 97.500 C 36.000 97.555 36.045 97.600 36.100 97.600 H 42.100 C 42.155 97.600 42.200 97.555 42.200 97.500 V 94.600 C 42.200 94.500 42.100 94.600 42.200 94.600 H 53.100 H 288.100 C 290.751 94.600 293.355 93.902 295.650 92.577 C 297.945 91.252 299.852 89.345 301.177 87.050 C 302.502 84.755 303.200 82.151 303.200 79.500 C 303.200 76.849 302.502 74.245 301.177 71.950 C 299.852 69.655 297.945 67.748 295.650 66.423 C 293.355 65.098 290.751 64.400 288.100 64.400 H 53.100 H 42.200 C 42.100 64.400 42.200 64.500 42.200 64.400 V 61.500 C 42.200 61.445 42.155 61.400 42.100 61.400 H 36.100 C 36.045 61.400 36.000 61.445 36.000 61.500 V 64.400 C 36.000 64.500 36.100 64.400 36.000 64.400 H 30.200 C 30.100 64.400 30.200 64.500 30.200 64.400 V 61.500 C 30.200 61.445 30.155 61.400 30.100 61.400 H 24.100 C 24.045 61.400 24.000 61.445 24.000 61.500 V 64.400 C 24.000 64.500 24.100 64.400 24.000 64.400 H 13.100 C 13.045 64.400 13.000 64.445 13.000 64.500 V 94.500 C 13.000 94.555 13.045 94.600 13.100 94.600 Z" stroke="rgb(0,0,0)" stroke-width="0.20" />
</g>
<g id="p-11" style="fill:none;stroke-linecap:round;stroke-linejoin:round;">
  <path d="M 13.100 59.900 H 278.100 C 280.224 59.900 282.311 59.341 284.150 58.279 C 285.989 57.217 287.517 55.689 288.579 53.850 C 289.641 52.011 290.200 49.924 290.200 47.800 C 290.200 45.676 289.641 43.589 288.579 41.750 C 287.517 39.911 285.989 38.383 284.150 37.321 C 282.311 36.259 280.224 35.700 278.100 35.700 H 13.100 C 13.045 35.700 13.000 35.745 13.000 35.800 V 59.800 C 13.000 59.855 13.045 59.900 13.100 59.900 Z" stroke="rgb(0,0,0)" stroke-width="0.20" />
</g>
<g id="p-12" style="fill:none;stroke-linecap:round;stroke-linejoin:round;">
  <path d="M 13.100 34.200 H 278.100 C 280.224 34.200 282.311 33.641 284.150 32.579 C 285.989 31.517 287.517 29.989 288.579 28.150 C 289.641 26.311 290.200 24.224 290.200 22.100 C 290.200 19.976 289.641 17.889 288.579 16.050 C 287.517 14.211 285.989 12.683 284.150 11.621 C 282.311 10.559 280.224 10.000 278.100 10.000 H 13.100 C 13.045 10.000 13.000 10.045 13.000 10.100 V 34.100 C 13.000 34.155 13.045 34.200 13.100 34.200 Z" stroke="rgb(0,0,0)" stroke-width="0.20" />
</g>
</svg>