<?xml version='1.0' encoding='utf-8'?>
<svg height="140.90mm" viewBox="0.0 0.0 1025.45 140.90" width="1025.45mm" xmlns="http://www.w3.org/2000/svg" xmlns:cc="http://creativecommons.org/ns#" xmlns:dc="http://purl.org/dc/elements/1.1/" xmlns:inkscape="http://www.inkscape.org/namespaces/inkscape" xmlns:rdf="http://www.w3.org/1999/02/22-rdf-syntax-ns#" xmlns:svg="http://www.w3.org/2000/svg" xmlns:xlink="http://www.w3.org/1999/xlink">
<!--
PoleHook - Hook for pole like things to be clamped to another pole

Created with Boxes.py (https://festi.info/boxes.py)
Command line (remove spaces between dashes): boxes PoleHook
-->
<title>PoleHook</title>
<metadata>
<rdf:RDF><cc:Work>
<dc:title>Misc - PoleHook</dc:title>
<dc:source>boxes PoleHook</dc:source>
<dc:description>Hook for pole like things to be clamped to another pole

Created with Boxes.py (https://festi.info/boxes.py)
Command line: boxes PoleHook
Command line short: boxes PoleHook
</dc:description>
</cc:Work></rdf:RDF></metadata>
<g id="p-0" style="fill:none;stroke-linecap:round;stroke-linejoin:round;">
  <path d="M 18.800 130.900 H 118.800 V 120.900 H 18.800 V 130.900 Z" stroke="rgb(0,0,0)" stroke-width="0.20" />
  <text dominant-baseline="hanging" font-size="8px" style="font-family: sans-serif ; font-weight: normal; font-style: normal; fill: rgb(255,0,0)" text-anchor="middle" transform="matrix( 1.000 0.000 0.000 1.000 68.800 121.900 )">100.00mm, burn:0.10mm</text>
</g>
<g id="p-1" style="fill:none;stroke-linecap:round;stroke-linejoin:round;">
  <path d="M 18.800 116.200 H 34.700 C 34.800 116.200 34.700 116.100 34.700 116.200 V 119.100 C 34.700 119.155 34.745 119.200 34.800 119.200 H 40.800 C 40.855 119.200 40.900 119.155 40.900 119.100 V 116.200 C 40.900 116.100 40.800 116.200 40.900 116.200 H 46.700 C 46.800 116.200 46.700 116.100 46.700 116.200 V 119.100 C 46.700 119.155 46.745 119.200 46.800 119.200 H 52.800 C 52.855 119.200 52.900 119.155 52.900 119.100 V 116.100 C 52.900 116.155 52.855 116.200 52.800 116.200 H 51.900 C 51.955 116.200 52.000 116.155 52.000 116.100 V 103.600 C 52.000 103.545 51.955 103.500 51.900 103.500 H 49.400 C 49.300 103.500 49.400 103.600 49.400 103.500 V 98.200 C 49.400 98.100 49.300 98.200 49.400 98.200 H 51.900 C 51.955 98.200 52.000 98.155 52.000 98.100 C 52.000 98.155 51.955 98.200 51.900 98.200 H 59.700 C 59.645 98.200 59.600 98.155 59.600 98.100 C 59.600 98.155 59.645 98.200 59.700 98.200 H 62.200 C 62.300 98.200 62.200 98.100 62.200 98.200 V 103.500 C 62.200 103.600 62.300 103.500 62.200 103.500 H 59.700 C 59.645 103.500 59.600 103.545 59.600 103.600 V 116.100 C 59.600 116.155 59.645 116.200 59.700 116.200 H 58.800 C 58.745 116.200 58.700 116.155 58.700 116.100 V 119.100 C 58.700 119.155 58.745 119.200 58.800 119.200 H 64.800 C 64.855 119.200 64.900 119.155 64.900 119.100 V 116.200 C 64.900 116.100 64.800 116.200 64.900 116.200 H 70.700 C 70.800 116.200 70.700 116.100 70.700 116.200 V 119.100 C 70.700 119.155 70.745 119.200 70.800 119.200 H 76.800 C 76.855 119.200 76.900 119.155 76.900 119.100 V 116.200 C 76.900 116.100 76.800 116.200 76.900 116.200 H 92.800 C 92.855 116.200 92.900 116.155 92.900 116.100 V 16.100 C 92.900 15.029 92.618 13.977 92.083 13.050 C 91.547 12.123 90.777 11.353 89.850 10.817 C 88.923 10.282 87.871 10.000 86.800 10.000 C 85.729 10.000 84.677 10.282 83.750 10.817 C 82.823 11.353 82.053 12.123 81.517 13.050 C 80.982 13.977 80.700 15.029 80.700 16.100 V 66.100 C 80.700 70.471 79.549 74.765 77.364 78.550 C 75.179 82.335 72.035 85.479 68.250 87.664 C 64.465 89.849 60.171 91.000 55.800 91.000 C 51.429 91.000 47.135 89.849 43.350 87.664 C 39.565 85.479 36.421 82.335 34.236 78.550 C 32.051 74.765 30.900 70.471 30.900 66.100 V 41.100 C 30.900 40.029 30.618 38.977 30.083 38.050 C 29.547 37.123 28.777 36.353 27.850 35.817 C 26.923 35.282 25.871 35.000 24.800 35.000 C 23.729 35.000 22.677 35.282 21.750 35.817 C 20.823 36.353 20.053 37.123 19.517 38.050 C 18.982 38.977 18.700 40.029 18.700 41.100 V 116.100 C 18.700 116.155 18.745 116.200 18.800 116.200 Z" stroke="rgb(0,0,0)" stroke-width="0.20" />
  <path d="M 88.700 16.200 C 88.700 16.564 88.595 16.921 88.398 17.227 C 88.201 17.534 87.921 17.777 87.589 17.928 C 87.258 18.080 86.890 18.132 86.530 18.081 C 86.169 18.029 85.831 17.874 85.556 17.636 C 85.280 17.397 85.080 17.085 84.977 16.735 C 84.874 16.386 84.874 16.014 84.977 15.665 C 85.080 15.315 85.280 15.003 85.556 14.764 C 85.831 14.526 86.169 14.371 86.530 14.319 C 86.890 14.268 87.258 14.320 87.589 14.472 C 87.921 14.623 88.201 14.866 88.398 15.173 C 88.595 15.479 88.700 15.836 88.700 16.200 Z" stroke="rgb(0,0,255)" stroke-width="0.20" />
</g>
<g id="p-2" style="fill:none;stroke-linecap:round;stroke-linejoin:round;">
  <path d="M 94.500 116.200 H 110.400 C 110.500 116.200 110.400 116.100 110.400 116.200 V 119.100 C 110.400 119.155 110.445 119.200 110.500 119.200 H 116.500 C 116.555 119.200 116.600 119.155 116.600 119.100 V 116.200 C 116.600 116.100 116.500 116.200 116.600 116.200 H 122.400 C 122.500 116.200 122.400 116.100 122.400 116.200 V 119.100 C 122.400 119.155 122.445 119.200 122.500 119.200 H 128.500 C 128.555 119.200 128.600 119.155 128.600 119.100 V 116.100 C 128.600 116.155 128.555 116.200 128.500 116.200 H 127.600 C 127.655 116.200 127.700 116.155 127.700 116.100 V 103.600 C 127.700 103.545 127.655 103.500 127.600 103.500 H 125.100 C 125.000 103.500 125.100 103.600 125.100 103.500 V 98.200 C 125.100 98.100 125.000 98.200 125.100 98.200 H 127.600 C 127.655 98.200 127.700 98.155 127.700 98.100 C 127.700 98.155 127.655 98.200 127.600 98.200 H 135.400 C 135.345 98.200 135.300 98.155 135.300 98.100 C 135.300 98.155 135.345 98.200 135.400 98.200 H 137.900 C 138.000 98.200 137.900 98.100 137.900 98.200 V 103.500 C 137.900 103.600 138.000 103.500 137.900 103.500 H 135.400 C 135.345 103.500 135.300 103.545 135.300 103.600 V 116.100 C 135.300 116.155 135.345 116.200 135.400 116.200 H 134.500 C 134.445 116.200 134.400 116.155 134.400 116.100 V 119.100 C 134.400 119.155 134.445 119.200 134.500 119.200 H 140.500 C 140.555 119.200 140.600 119.155 140.600 119.100 V 116.200 C 140.600 116.100 140.500 116.200 140.600 116.200 H 146.400 C 146.500 116.200 146.400 116.100 146.400 116.200 V 119.100 C 146.400 119.155 146.445 119.200 146.500 119.200 H 152.500 C 152.555 119.200 152.600 119.155 152.600 119.100 V 116.200 C 152.600 116.100 152.500 116.200 152.600 116.200 H 168.500 C 168.555 116.200 168.600 116.155 168.600 116.100 V 16.100 C 168.600 15.029 168.318 13.977 167.783 13.050 C 167.247 12.123 166.477 11.353 165.550 10.817 C 164.623 10.282 163.571 10.000 162.500 10.000 C 161.429 10.000 160.377 10.282 159.450 10.817 C 158.523 11.353 157.753 12.123 157.217 13.050 C 156.682 13.977 156.400 15.029 156.400 16.100 V 66.100 C 156.400 70.471 155.249 74.765 153.064 78.550 C 150.879 82.335 147.735 85.479 143.950 87.664 C 140.165 89.849 135.871 91.000 131.500 91.000 C 127.129 91.000 122.835 89.849 119.050 87.664 C 115.265 85.479 112.121 82.335 109.936 78.550 C 107.751 74.765 106.600 70.471 106.600 66.100 V 41.100 C 106.600 40.029 106.318 38.977 105.783 38.050 C 105.247 37.123 104.477 36.353 103.550 35.817 C 102.623 35.282 101.571 35.000 100.500 35.000 C 99.429 35.000 98.377 35.282 97.450 35.817 C 96.523 36.353 95.753 37.123 95.217 38.050 C 94.682 38.977 94.400 40.029 94.400 41.100 V 116.100 C 94.400 116.155 94.445 116.200 94.500 116.200 Z" stroke="rgb(0,0,0)" stroke-width="0.20" />
  <path d="M 164.400 16.200 C 164.400 16.564 164.295 16.921 164.098 17.227 C 163.901 17.534 163.621 17.777 163.289 17.928 C 162.958 18.080 162.590 18.132 162.230 18.081 C 161.869 18.029 161.531 17.874 161.256 17.636 C 160.980 17.397 160.780 17.085 160.677 16.735 C 160.574 16.386 160.574 16.014 160.677 15.665 C 160.780 15.315 160.980 15.003 161.256 14.764 C 161.531 14.526 161.869 14.371 162.230 14.319 C 162.590 14.268 162.958 14.320 163.289 14.472 C 163.621 14.623 163.901 14.866 164.098 15.173 C 164.295 15.479 164.400 15.836 164.400 16.200 Z" stroke="rgb(0,0,255)" stroke-width="0.20" />
</g>
<g id="p-3" style="fill:none;stroke-linecap:round;stroke-linejoin:round;">
  <path d="M 170.200 116.200 H 186.100 C 186.200 116.200 186.100 116.100 186.100 116.200 V 119.100 C 186.100 119.155 186.145 119.200 186.200 119.200 H 192.200 C 192.255 119.200 192.300 119.155 192.300 119.100 V 116.200 C 192.300 116.100 192.200 116.200 192.300 116.200 H 198.100 C 198.200 116.200 198.100 116.100 198.100 116.200 V 119.100 C 198.100 119.155 198.145 119.200 198.200 119.200 H 204.200 C 204.255 119.200 204.300 119.155 204.300 119.100 V 116.100 C 204.300 116.155 204.255 116.200 204.200 116.200 H 203.300 C 203.355 116.200 203.400 116.155 203.400 116.100 V 103.600 C 203.400 103.545 203.355 103.500 203.300 103.500 H 200.800 C 200.700 103.500 200.800 103.600 200.800 103.500 V 98.200 C 200.800 98.100 200.700 98.200 200.800 98.200 H 203.300 C 203.355 98.200 203.400 98.155 203.400 98.100 C 203.400 98.155 203.355 98.200 203.300 98.200 H 211.100 C 211.045 98.200 211.000 98.155 211.000 98.100 C 211.000 98.155 211.045 98.200 211.100 98.200 H 213.600 C 213.700 98.200 213.600 98.100 213.600 98.200 V 103.500 C 213.600 103.600 213.700 103.500 213.600 103.500 H 211.100 C 211.045 103.500 211.000 103.545 211.000 103.600 V 116.100 C 211.000 116.155 211.045 116.200 211.100 116.200 H 210.200 C 210.145 116.200 210.100 116.155 210.100 116.100 V 119.100 C 210.100 119.155 210.145 119.200 210.200 119.200 H 216.200 C 216.255 119.200 216.300 119.155 216.300 119.100 V 116.200 C 216.300 116.100 216.200 116.200 216.300 116.200 H 222.100 C 222.200 116.200 222.100 116.100 222.100 116.200 V 119.100 C 222.100 119.155 222.145 119.200 222.200 119.200 H 228.200 C 228.255 119.200 228.300 119.155 228.300 119.100 V 116.200 C 228.300 116.100 228.200 116.200 228.300 116.200 H 244.200 C 244.255 116.200 244.300 116.155 244.300 116.100 V 66.100 C 244.300 66.045 244.255 66.000 244.200 66.000 H 232.200 C 232.145 66.000 232.100 66.045 232.100 66.100 C 232.100 70.471 230.949 74.765 228.764 78.550 C 226.579 82.335 223.435 85.479 219.650 87.664 C 215.865 89.849 211.571 91.000 207.200 91.000 C 202.829 91.000 198.535 89.849 194.750 87.664 C 190.965 85.479 187.821 82.335 185.636 78.550 C 183.451 74.765 182.300 70.471 182.300 66.100 V 41.100 C 182.300 40.029 182.018 38.977 181.483 38.050 C 180.947 37.123 180.177 36.353 179.250 35.817 C 178.323 35.282 177.271 35.000 176.200 35.000 C 175.129 35.000 174.077 35.282 173.150 35.817 C 172.223 36.353 171.453 37.123 170.917 38.050 C 170.382 38.977 170.100 40.029 170.100 41.100 V 116.100 C 170.100 116.155 170.145 116.200 170.200 116.200 Z" stroke="rgb(0,0,0)" stroke-width="0.20" />
</g>
<g id="p-4" style="fill:none;stroke-linecap:round;stroke-linejoin:round;">
  <path d="M 245.900 119.200 H 279.000 C 279.055 119.200 279.100 119.155 279.100 119.100 V 106.600 C 279.100 106.545 279.055 106.500 279.000 106.500 H 276.500 C 276.400 106.500 276.500 106.600 276.500 106.500 V 101.200 C 276.500 101.100 276.400 101.200 276.500 101.200 H 279.000 C 279.055 101.200 279.100 101.155 279.100 101.100 C 279.100 101.155 279.055 101.200 279.000 101.200 H 286.800 C 286.745 101.200 286.700 101.155 286.700 101.100 C 286.700 101.155 286.745 101.200 286.800 101.200 H 289.300 C 289.400 101.200 289.300 101.100 289.300 101.200 V 106.500 C 289.300 106.600 289.400 106.500 289.300 106.500 H 286.800 C 286.745 106.500 286.700 106.545 286.700 106.600 V 119.100 C 286.700 119.155 286.745 119.200 286.800 119.200 H 319.900 C 319.955 119.200 320.000 119.155 320.000 119.100 V 69.100 C 320.000 69.045 319.955 69.000 319.900 69.000 H 307.900 C 307.845 69.000 307.800 69.045 307.800 69.100 C 307.800 73.471 306.649 77.765 304.464 81.550 C 302.279 85.335 299.135 88.479 295.350 90.664 C 291.565 92.849 287.271 94.000 282.900 94.000 C 278.529 94.000 274.235 92.849 270.450 90.664 C 266.665 88.479 263.521 85.335 261.336 81.550 C 259.151 77.765 258.000 73.471 258.000 69.100 V 44.100 C 258.000 43.029 257.718 41.977 257.183 41.050 C 256.647 40.123 255.877 39.353 254.950 38.817 C 254.023 38.282 252.971 38.000 251.900 38.000 C 250.829 38.000 249.777 38.282 248.850 38.817 C 247.923 39.353 247.153 40.123 246.617 41.050 C 246.082 41.977 245.800 43.029 245.800 44.100 V 119.100 C 245.800 119.155 245.845 119.200 245.900 119.200 Z" stroke="rgb(0,0,0)" stroke-width="0.20" />
</g>
<g id="p-5" style="fill:none;stroke-linecap:round;stroke-linejoin:round;">
  <path d="M 321.600 119.200 H 354.700 C 354.755 119.200 354.800 119.155 354.800 119.100 V 106.600 C 354.800 106.545 354.755 106.500 354.700 106.500 H 352.200 C 352.100 106.500 352.200 106.600 352.200 106.500 V 101.200 C 352.200 101.100 352.100 101.200 352.200 101.200 H 354.700 C 354.755 101.200 354.800 101.155 354.800 101.100 C 354.800 101.155 354.755 101.200 354.700 101.200 H 362.500 C 362.445 101.200 362.400 101.155 362.400 101.100 C 362.400 101.155 362.445 101.200 362.500 101.200 H 365.000 C 365.100 101.200 365.000 101.100 365.000 101.200 V 106.500 C 365.000 106.600 365.100 106.500 365.000 106.500 H 362.500 C 362.445 106.500 362.400 106.545 362.400 106.600 V 119.100 C 362.400 119.155 362.445 119.200 362.500 119.200 H 395.600 C 395.655 119.200 395.700 119.155 395.700 119.100 V 69.100 C 395.700 69.045 395.655 69.000 395.600 69.000 H 383.600 C 383.545 69.000 383.500 69.045 383.500 69.100 C 383.500 73.471 382.349 77.765 380.164 81.550 C 377.979 85.335 374.835 88.479 371.050 90.664 C 367.265 92.849 362.971 94.000 358.600 94.000 C 354.229 94.000 349.935 92.849 346.150 90.664 C 342.365 88.479 339.221 85.335 337.036 81.550 C 334.851 77.765 333.700 73.471 333.700 69.100 V 44.100 C 333.700 43.029 333.418 41.977 332.883 41.050 C 332.347 40.123 331.577 39.353 330.650 38.817 C 329.723 38.282 328.671 38.000 327.600 38.000 C 326.529 38.000 325.477 38.282 324.550 38.817 C 323.623 39.353 322.853 40.123 322.317 41.050 C 321.782 41.977 321.500 43.029 321.500 44.100 V 119.100 C 321.500 119.155 321.545 119.200 321.600 119.200 Z" stroke="rgb(0,0,0)" stroke-width="0.20" />
</g>
<g id="p-6" style="fill:none;stroke-linecap:round;stroke-linejoin:round;">
  <path d="M 438.100 82.200 C 438.100 82.928 437.891 83.642 437.497 84.254 C 437.103 84.867 436.541 85.354 435.879 85.657 C 435.216 85.959 434.480 86.065 433.759 85.961 C 433.038 85.858 432.362 85.549 431.812 85.072 C 431.261 84.595 430.859 83.970 430.654 83.271 C 430.449 82.572 430.449 81.828 430.654 81.129 C 430.859 80.430 431.261 79.805 431.812 79.328 C 432.362 78.851 433.038 78.542 433.759 78.439 C 434.480 78.335 435.216 78.441 435.879 78.743 C 436.541 79.046 437.103 79.533 437.497 80.146 C 437.891 80.758 438.100 81.472 438.100 82.200 Z" stroke="rgb(0,0,255)" stroke-width="0.20" />
  <path d="M 416.300 89.600 H 413.400 C 413.300 89.600 413.400 89.700 413.400 89.600 V 86.800 C 413.400 86.700 413.300 86.800 413.400 86.800 H 419.200 C 419.300 86.800 419.200 86.700 419.200 86.800 V 89.600 C 419.200 89.700 419.300 89.600 419.200 89.600 H 416.300 Z" stroke="rgb(0,0,255)" stroke-width="0.20" />
  <path d="M 428.300 89.600 H 425.400 C 425.300 89.600 425.400 89.700 425.400 89.600 V 86.800 C 425.400 86.700 425.300 86.800 425.400 86.800 H 431.200 C 431.300 86.800 431.200 86.700 431.200 86.800 V 89.600 C 431.200 89.700 431.300 89.600 431.200 89.600 H 428.300 Z" stroke="rgb(0,0,255)" stroke-width="0.20" />
  <path d="M 440.300 89.600 H 437.400 C 437.300 89.600 437.400 89.700 437.400 89.600 V 86.800 C 437.400 86.700 437.300 86.800 437.400 86.800 H 443.200 C 443.300 86.800 443.200 86.700 443.200 86.800 V 89.600 C 443.200 89.700 443.300 89.600 443.200 89.600 H 440.300 Z" stroke="rgb(0,0,255)" stroke-width="0.20" />
  <path d="M 452.300 89.600 H 449.400 C 449.300 89.600 449.400 89.700 449.400 89.600 V 86.800 C 449.400 86.700 449.300 86.800 449.400 86.800 H 455.200 C 455.300 86.800 455.200 86.700 455.200 86.800 V 89.600 C 455.200 89.700 455.300 89.600 455.200 89.600 H 452.300 Z" stroke="rgb(0,0,255)" stroke-width="0.20" />
  <path d="M 416.300 83.600 H 413.400 C 413.300 83.600 413.400 83.700 413.400 83.600 V 80.800 C 413.400 80.700 413.300 80.800 413.400 80.800 H 419.200 C 419.300 80.800 419.200 80.700 419.200 80.800 V 83.600 C 419.200 83.700 419.300 83.600 419.200 83.600 H 416.300 Z" stroke="rgb(0,0,255)" stroke-width="0.20" />
  <path d="M 428.300 83.600 H 425.400 C 425.300 83.600 425.400 83.700 425.400 83.600 V 80.800 C 425.400 80.700 425.300 80.800 425.400 80.800 H 431.200 C 431.300 80.800 431.200 80.700 431.200 80.800 V 83.600 C 431.200 83.700 431.300 83.600 431.200 83.600 H 428.300 Z" stroke="rgb(0,0,255)" stroke-width="0.20" />
  <path d="M 440.300 83.600 H 437.400 C 437.300 83.600 437.400 83.700 437.400 83.600 V 80.800 C 437.400 80.700 437.300 80.800 437.400 80.800 H 443.200 C 443.300 80.800 443.200 80.700 443.200 80.800 V 83.600 C 443.200 83.700 443.300 83.600 443.200 83.600 H 440.300 Z" stroke="rgb(0,0,255)" stroke-width="0.20" />
  <path d="M 452.300 83.600 H 449.400 C 449.300 83.600 449.400 83.700 449.400 83.600 V 80.800 C 449.400 80.700 449.300 80.800 449.400 80.800 H 455.200 C 455.300 80.800 455.200 80.700 455.200 80.800 V 83.600 C 455.200 83.700 455.300 83.600 455.200 83.600 H 452.300 Z" stroke="rgb(0,0,255)" stroke-width="0.20" />
  <path d="M 416.300 77.600 H 413.400 C 413.300 77.600 413.400 77.700 413.400 77.600 V 74.800 C 413.400 74.700 413.300 74.800 413.400 74.800 H 419.200 C 419.300 74.800 419.200 74.700 419.200 74.800 V 77.600 C 419.200 77.700 419.300 77.600 419.200 77.600 H 416.300 Z" stroke="rgb(0,0,255)" stroke-width="0.20" />
  <path d="M 428.300 77.600 H 425.400 C 425.300 77.600 425.400 77.700 425.400 77.600 V 74.800 C 425.400 74.700 425.300 74.800 425.400 74.800 H 431.200 C 431.300 74.800 431.200 74.700 431.200 74.800 V 77.600 C 431.200 77.700 431.300 77.600 431.200 77.600 H 428.300 Z" stroke="rgb(0,0,255)" stroke-width="0.20" />
  <path d="M 440.300 77.600 H 437.400 C 437.300 77.600 437.400 77.700 437.400 77.600 V 74.800 C 437.400 74.700 437.300 74.800 437.400 74.800 H 443.200 C 443.300 74.800 443.200 74.700 443.200 74.800 V 77.600 C 443.200 77.700 443.300 77.600 443.200 77.600 H 440.300 Z" stroke="rgb(0,0,255)" stroke-width="0.20" />
  <path d="M 452.300 77.600 H 449.400 C 449.300 77.600 449.400 77.700 449.400 77.600 V 74.800 C 449.400 74.700 449.300 74.800 449.400 74.800 H 455.200 C 455.300 74.800 455.200 74.700 455.200 74.800 V 77.600 C 455.200 77.700 455.300 77.600 455.200 77.600 H 452.300 Z" stroke="rgb(0,0,255)" stroke-width="0.20" />
  <path d="M 471.400 82.200 C 471.400 75.088 469.356 68.125 465.511 62.142 C 461.665 56.159 456.181 51.407 449.712 48.453 C 443.242 45.498 436.060 44.465 429.020 45.478 C 421.980 46.490 415.380 49.504 410.005 54.162 C 404.630 58.819 400.707 64.924 398.703 71.748 C 396.699 78.572 396.699 85.828 398.703 92.652 C 400.707 99.476 404.630 105.581 410.005 110.238 C 415.380 114.896 421.980 117.910 429.020 118.922 C 436.060 119.935 443.242 118.902 449.712 115.947 C 456.181 112.993 461.665 108.241 465.511 102.258 C 469.356 96.275 471.400 89.312 471.400 82.200 Z" stroke="rgb(0,0,0)" stroke-width="0.20" />
</g>
<g id="p-7" style="fill:none;stroke-linecap:round;stroke-linejoin:round;">
  <path d="M 513.800 82.200 C 513.800 82.928 513.591 83.642 513.197 84.254 C 512.803 84.867 512.241 85.354 511.579 85.657 C 510.916 85.959 510.180 86.065 509.459 85.961 C 508.738 85.858 508.062 85.549 507.512 85.072 C 506.961 84.595 506.559 83.970 506.354 83.271 C 506.149 82.572 506.149 81.828 506.354 81.129 C 506.559 80.430 506.961 79.805 507.512 79.328 C 508.062 78.851 508.738 78.542 509.459 78.439 C 510.180 78.335 510.916 78.441 511.579 78.743 C 512.241 79.046 512.803 79.533 513.197 80.146 C 513.591 80.758 513.800 81.472 513.800 82.200 Z" stroke="rgb(0,0,255)" stroke-width="0.20" />
  <path d="M 547.100 82.200 C 547.100 75.088 545.056 68.125 541.211 62.142 C 537.365 56.159 531.881 51.407 525.412 48.453 C 518.942 45.498 511.760 44.465 504.720 45.478 C 497.680 46.490 491.080 49.504 485.705 54.162 C 480.330 58.819 476.407 64.924 474.403 71.748 C 472.399 78.572 472.399 85.828 474.403 92.652 C 476.407 99.476 480.330 105.581 485.705 110.238 C 491.080 114.896 497.680 117.910 504.720 118.922 C 511.760 119.935 518.942 118.902 525.412 115.947 C 531.881 112.993 537.365 108.241 541.211 102.258 C 545.056 96.275 547.100 89.312 547.100 82.200 Z" stroke="rgb(0,0,0)" stroke-width="0.20" />
</g>
<g id="p-8" style="fill:none;stroke-linecap:round;stroke-linejoin:round;">
  <path d="M 590.250 82.200 C 590.250 83.072 589.999 83.926 589.528 84.660 C 589.056 85.394 588.384 85.976 587.590 86.339 C 586.797 86.701 585.916 86.828 585.052 86.704 C 584.189 86.580 583.380 86.210 582.720 85.639 C 582.061 85.067 581.580 84.319 581.334 83.482 C 581.089 82.645 581.089 81.755 581.334 80.918 C 581.580 80.081 582.061 79.333 582.720 78.761 C 583.380 78.190 584.189 77.820 585.052 77.696 C 585.916 77.572 586.797 77.699 587.590 78.061 C 588.384 78.424 589.056 79.006 589.528 79.740 C 589.999 80.474 590.250 81.328 590.250 82.200 Z" stroke="rgb(0,0,255)" stroke-width="0.20" />
  <path d="M 595.700 119.200 V 45.200 M 603.700 45.200 V 119.200 M 622.800 82.200 C 622.800 75.088 620.756 68.125 616.911 62.142 C 613.065 56.159 607.581 51.407 601.112 48.453 C 594.642 45.498 587.460 44.465 580.420 45.478 C 573.380 46.490 566.780 49.504 561.405 54.162 C 556.030 58.819 552.107 64.924 550.103 71.748 C 548.099 78.572 548.099 85.828 550.103 92.652 C 552.107 99.476 556.030 105.581 561.405 110.238 C 566.780 114.896 573.380 117.910 580.420 118.922 C 587.460 119.935 594.642 118.902 601.112 115.947 C 607.581 112.993 613.065 108.241 616.911 102.258 C 620.756 96.275 622.800 89.312 622.800 82.200 Z" stroke="rgb(0,0,0)" stroke-width="0.20" />
</g>
<g id="p-9" style="fill:none;stroke-linecap:round;stroke-linejoin:round;">
  <path d="M 665.950 82.200 C 665.950 83.072 665.699 83.926 665.228 84.660 C 664.756 85.394 664.084 85.976 663.290 86.339 C 662.497 86.701 661.616 86.828 660.752 86.704 C 659.889 86.580 659.080 86.210 658.420 85.639 C 657.761 85.067 657.280 84.319 657.034 83.482 C 656.789 82.645 656.789 81.755 657.034 80.918 C 657.280 80.081 657.761 79.333 658.420 78.761 C 659.080 78.190 659.889 77.820 660.752 77.696 C 661.616 77.572 662.497 77.699 663.290 78.061 C 664.084 78.424 664.756 79.006 665.228 79.740 C 665.699 80.474 665.950 81.328 665.950 82.200 Z" stroke="rgb(0,0,255)" stroke-width="0.20" />
  <path d="M 698.500 82.200 C 698.500 75.088 696.456 68.125 692.611 62.142 C 688.765 56.159 683.281 51.407 676.812 48.453 C 670.342 45.498 663.160 44.465 656.120 45.478 C 649.080 46.490 642.480 49.504 637.105 54.162 C 631.730 58.819 627.807 64.924 625.803 71.748 C 623.799 78.572 623.799 85.828 625.803 92.652 C 627.807 99.476 631.730 105.581 637.105 110.238 C 642.480 114.896 649.080 117.910 656.120 118.922 C 663.160 119.935 670.342 118.902 676.812 115.947 C 683.281 112.993 688.765 108.241 692.611 102.258 C 696.456 96.275 698.500 89.312 698.500 82.200 Z" stroke="rgb(0,0,0)" stroke-width="0.20" />
</g>
<g id="p-10" style="fill:none;stroke-linecap:round;stroke-linejoin:round;">
  <path d="M 725.274 83.773 H 732.722 C 732.780 83.773 732.693 83.723 732.722 83.773 L 736.417 90.173 C 736.446 90.223 736.446 90.123 736.417 90.173 L 732.722 96.573 C 732.693 96.623 732.780 96.573 732.722 96.573 H 725.332 C 725.274 96.573 725.361 96.623 725.332 96.573 L 721.637 90.173 C 721.608 90.123 721.608 90.223 721.637 90.173 L 725.361 83.723 C 725.343 83.754 725.310 83.773 725.274 83.773 Z" stroke="rgb(0,0,255)" stroke-width="0.20" />
  <path d="M 754.027 90.273 C 754.393 89.907 754.646 89.442 754.753 88.935 C 754.861 88.429 754.819 87.902 754.634 87.418 C 754.448 86.934 754.126 86.515 753.707 86.211 C 753.334 85.940 753.031 85.584 752.822 85.174 C 752.613 84.763 752.504 84.309 752.504 83.848 C 752.504 83.387 752.613 82.933 752.822 82.522 C 753.057 82.061 753.153 81.541 753.099 81.026 C 753.045 80.511 752.843 80.022 752.517 79.620 C 752.191 79.217 751.755 78.918 751.262 78.757 C 750.824 78.615 750.426 78.371 750.100 78.045 C 749.774 77.719 749.530 77.321 749.387 76.883 C 749.245 76.444 749.208 75.978 749.280 75.523 C 749.362 75.012 749.293 74.488 749.082 74.014 C 748.871 73.541 748.528 73.139 748.093 72.857 C 747.659 72.575 747.152 72.425 746.634 72.425 C 746.173 72.425 745.719 72.316 745.308 72.106 C 744.898 71.897 744.542 71.594 744.271 71.221 C 744.001 70.848 743.822 70.416 743.750 69.961 C 743.669 69.450 743.441 68.972 743.094 68.587 C 742.748 68.202 742.297 67.926 741.797 67.792 C 741.296 67.658 740.768 67.672 740.275 67.832 C 739.837 67.974 739.371 68.011 738.916 67.939 C 738.461 67.867 738.029 67.688 737.656 67.417 C 737.283 67.146 736.980 66.791 736.771 66.380 C 736.536 65.919 736.172 65.535 735.723 65.276 C 735.274 65.017 734.760 64.894 734.243 64.921 C 733.726 64.948 733.227 65.125 732.808 65.429 C 732.436 65.700 732.004 65.879 731.549 65.951 C 731.094 66.023 730.628 65.986 730.190 65.844 C 729.751 65.702 729.353 65.457 729.027 65.132 C 728.661 64.765 728.196 64.513 727.689 64.405 C 727.183 64.298 726.656 64.339 726.172 64.525 C 725.688 64.710 725.269 65.032 724.965 65.451 C 724.694 65.824 724.338 66.128 723.928 66.337 C 723.517 66.546 723.063 66.655 722.602 66.655 C 722.141 66.655 721.687 66.546 721.276 66.337 C 720.815 66.102 720.295 66.005 719.780 66.059 C 719.265 66.114 718.776 66.316 718.374 66.642 C 717.971 66.968 717.671 67.404 717.511 67.896 C 717.369 68.335 717.125 68.733 716.799 69.059 C 716.473 69.385 716.075 69.629 715.637 69.771 C 715.198 69.914 714.732 69.950 714.277 69.878 C 713.766 69.797 713.241 69.866 712.768 70.077 C 712.295 70.287 711.893 70.631 711.611 71.065 C 711.329 71.500 711.179 72.007 711.179 72.525 C 711.179 72.985 711.070 73.440 710.860 73.850 C 710.651 74.261 710.348 74.616 709.975 74.887 C 709.602 75.158 709.170 75.337 708.715 75.409 C 708.204 75.490 707.726 75.718 707.341 76.064 C 706.956 76.411 706.680 76.862 706.546 77.362 C 706.412 77.862 706.426 78.391 706.586 78.883 C 706.728 79.322 706.765 79.787 706.693 80.243 C 706.621 80.698 706.442 81.129 706.171 81.502 C 705.900 81.875 705.545 82.179 705.134 82.388 C 704.673 82.623 704.289 82.987 704.030 83.435 C 703.771 83.884 703.648 84.398 703.675 84.915 C 703.702 85.433 703.879 85.931 704.183 86.350 C 704.454 86.723 704.633 87.155 704.705 87.610 C 704.777 88.065 704.740 88.531 704.598 88.969 C 704.456 89.407 704.211 89.806 703.886 90.132 C 703.519 90.498 703.267 90.962 703.159 91.469 C 703.052 91.976 703.093 92.503 703.279 92.987 C 703.464 93.470 703.786 93.890 704.205 94.194 C 704.578 94.465 704.882 94.820 705.091 95.231 C 705.300 95.641 705.409 96.096 705.409 96.557 C 705.409 97.017 705.300 97.472 705.091 97.882 C 704.856 98.344 704.759 98.864 704.813 99.379 C 704.868 99.894 705.070 100.382 705.396 100.785 C 705.722 101.188 706.158 101.487 706.650 101.647 C 707.089 101.790 707.487 102.034 707.813 102.360 C 708.139 102.685 708.383 103.084 708.525 103.522 C 708.668 103.960 708.704 104.426 708.632 104.881 C 708.551 105.393 708.620 105.917 708.831 106.390 C 709.041 106.864 709.385 107.266 709.819 107.548 C 710.254 107.830 710.761 107.980 711.279 107.980 C 711.739 107.980 712.194 108.089 712.604 108.298 C 713.015 108.507 713.370 108.811 713.641 109.184 C 713.912 109.557 714.091 109.988 714.163 110.443 C 714.244 110.955 714.472 111.432 714.818 111.817 C 715.165 112.202 715.616 112.478 716.116 112.612 C 716.616 112.746 717.145 112.733 717.637 112.573 C 718.076 112.430 718.541 112.394 718.997 112.466 C 719.452 112.538 719.883 112.716 720.256 112.987 C 720.629 113.258 720.933 113.613 721.142 114.024 C 721.377 114.486 721.741 114.869 722.189 115.128 C 722.638 115.387 723.152 115.511 723.669 115.483 C 724.187 115.456 724.685 115.280 725.104 114.975 C 725.477 114.705 725.909 114.526 726.364 114.454 C 726.819 114.382 727.285 114.418 727.723 114.561 C 728.161 114.703 728.560 114.947 728.886 115.273 C 729.252 115.639 729.716 115.892 730.223 115.999 C 730.730 116.107 731.257 116.065 731.741 115.880 C 732.224 115.694 732.644 115.372 732.948 114.953 C 733.219 114.580 733.574 114.277 733.985 114.068 C 734.395 113.859 734.850 113.750 735.311 113.750 C 735.771 113.750 736.226 113.859 736.636 114.068 C 737.098 114.303 737.618 114.399 738.133 114.345 C 738.648 114.291 739.136 114.089 739.539 113.763 C 739.942 113.437 740.241 113.001 740.401 112.508 C 740.544 112.070 740.788 111.672 741.114 111.346 C 741.439 111.020 741.838 110.776 742.276 110.633 C 742.714 110.491 743.180 110.454 743.635 110.526 C 744.147 110.608 744.671 110.539 745.144 110.328 C 745.618 110.117 746.020 109.774 746.302 109.339 C 746.584 108.905 746.734 108.398 746.734 107.880 C 746.734 107.419 746.843 106.965 747.052 106.554 C 747.261 106.144 747.565 105.788 747.938 105.517 C 748.311 105.247 748.742 105.068 749.197 104.996 C 749.709 104.915 750.186 104.687 750.571 104.340 C 750.956 103.994 751.232 103.543 751.366 103.043 C 751.500 102.542 751.487 102.014 751.327 101.521 C 751.184 101.083 751.147 100.617 751.220 100.162 C 751.292 99.707 751.470 99.275 751.741 98.902 C 752.012 98.529 752.367 98.226 752.778 98.017 C 753.240 97.782 753.623 97.418 753.882 96.969 C 754.141 96.521 754.265 96.006 754.237 95.489 C 754.210 94.972 754.034 94.473 753.729 94.054 C 753.459 93.682 753.280 93.250 753.208 92.795 C 753.136 92.340 753.172 91.874 753.315 91.436 C 753.457 90.997 753.701 90.599 754.027 90.273 Z" stroke="rgb(0,0,0)" stroke-width="0.20" />
</g>
<g id="p-11" style="fill:none;stroke-linecap:round;stroke-linejoin:round;">
  <path d="M 784.828 83.773 H 792.276 C 792.334 83.773 792.247 83.723 792.276 83.773 L 795.971 90.173 C 796.000 90.223 796.000 90.123 795.971 90.173 L 792.276 96.573 C 792.247 96.623 792.334 96.573 792.276 96.573 H 784.886 C 784.828 96.573 784.915 96.623 784.886 96.573 L 781.191 90.173 C 781.162 90.123 781.162 90.223 781.191 90.173 L 784.915 83.723 C 784.897 83.754 784.864 83.773 784.828 83.773 Z" stroke="rgb(0,0,255)" stroke-width="0.20" />
  <path d="M 813.581 90.273 C 813.947 89.907 814.200 89.442 814.307 88.935 C 814.415 88.429 814.373 87.902 814.188 87.418 C 814.002 86.934 813.680 86.515 813.261 86.211 C 812.888 85.940 812.585 85.584 812.376 85.174 C 812.167 84.763 812.057 84.309 812.057 83.848 C 812.057 83.387 812.167 82.933 812.376 82.522 C 812.611 82.061 812.707 81.541 812.653 81.026 C 812.599 80.511 812.397 80.022 812.071 79.620 C 811.745 79.217 811.309 78.918 810.816 78.757 C 810.378 78.615 809.980 78.371 809.654 78.045 C 809.328 77.719 809.084 77.321 808.941 76.883 C 808.799 76.444 808.762 75.978 808.834 75.523 C 808.915 75.012 808.846 74.488 808.636 74.014 C 808.425 73.541 808.082 73.139 807.647 72.857 C 807.213 72.575 806.706 72.425 806.188 72.425 C 805.727 72.425 805.273 72.316 804.862 72.106 C 804.452 71.897 804.096 71.594 803.825 71.221 C 803.555 70.848 803.376 70.416 803.304 69.961 C 803.223 69.450 802.995 68.972 802.648 68.587 C 802.302 68.202 801.851 67.926 801.351 67.792 C 800.850 67.658 800.322 67.672 799.829 67.832 C 799.391 67.974 798.925 68.011 798.470 67.939 C 798.015 67.867 797.583 67.688 797.210 67.417 C 796.837 67.146 796.534 66.791 796.325 66.380 C 796.090 65.919 795.726 65.535 795.277 65.276 C 794.828 65.017 794.314 64.894 793.797 64.921 C 793.280 64.948 792.781 65.125 792.362 65.429 C 791.990 65.700 791.558 65.879 791.103 65.951 C 790.648 66.023 790.182 65.986 789.743 65.844 C 789.305 65.702 788.907 65.457 788.581 65.132 C 788.215 64.765 787.750 64.513 787.243 64.405 C 786.737 64.298 786.210 64.339 785.726 64.525 C 785.242 64.710 784.823 65.032 784.518 65.451 C 784.248 65.824 783.892 66.128 783.482 66.337 C 783.071 66.546 782.617 66.655 782.156 66.655 C 781.695 66.655 781.241 66.546 780.830 66.337 C 780.369 66.102 779.849 66.005 779.334 66.059 C 778.819 66.114 778.330 66.316 777.927 66.642 C 777.525 66.968 777.225 67.404 777.065 67.896 C 776.923 68.335 776.679 68.733 776.353 69.059 C 776.027 69.385 775.629 69.629 775.190 69.771 C 774.752 69.914 774.286 69.950 773.831 69.878 C 773.320 69.797 772.795 69.866 772.322 70.077 C 771.849 70.287 771.447 70.631 771.165 71.065 C 770.883 71.500 770.733 72.007 770.733 72.525 C 770.733 72.985 770.624 73.440 770.414 73.850 C 770.205 74.261 769.902 74.616 769.529 74.887 C 769.156 75.158 768.724 75.337 768.269 75.409 C 767.758 75.490 767.280 75.718 766.895 76.064 C 766.510 76.411 766.234 76.862 766.100 77.362 C 765.966 77.862 765.980 78.391 766.140 78.883 C 766.282 79.322 766.319 79.787 766.247 80.243 C 766.175 80.698 765.996 81.129 765.725 81.502 C 765.454 81.875 765.099 82.179 764.688 82.388 C 764.227 82.623 763.843 82.987 763.584 83.435 C 763.325 83.884 763.202 84.398 763.229 84.915 C 763.256 85.433 763.433 85.931 763.737 86.350 C 764.008 86.723 764.187 87.155 764.259 87.610 C 764.331 88.065 764.294 88.531 764.152 88.969 C 764.010 89.407 763.765 89.806 763.440 90.132 C 763.073 90.498 762.821 90.962 762.713 91.469 C 762.606 91.976 762.647 92.503 762.833 92.987 C 763.018 93.470 763.340 93.890 763.759 94.194 C 764.132 94.465 764.436 94.820 764.645 95.231 C 764.854 95.641 764.963 96.096 764.963 96.557 C 764.963 97.017 764.854 97.472 764.645 97.882 C 764.410 98.344 764.313 98.864 764.367 99.379 C 764.422 99.894 764.624 100.382 764.950 100.785 C 765.276 101.188 765.712 101.487 766.204 101.647 C 766.642 101.790 767.041 102.034 767.367 102.360 C 767.693 102.685 767.937 103.084 768.079 103.522 C 768.222 103.960 768.258 104.426 768.186 104.881 C 768.105 105.393 768.174 105.917 768.385 106.390 C 768.595 106.864 768.939 107.266 769.373 107.548 C 769.808 107.830 770.315 107.980 770.833 107.980 C 771.293 107.980 771.748 108.089 772.158 108.298 C 772.569 108.507 772.924 108.811 773.195 109.184 C 773.466 109.557 773.645 109.988 773.717 110.443 C 773.798 110.955 774.025 111.432 774.372 111.817 C 774.719 112.202 775.170 112.478 775.670 112.612 C 776.170 112.746 776.699 112.733 777.191 112.573 C 777.630 112.430 778.095 112.394 778.551 112.466 C 779.006 112.538 779.437 112.716 779.810 112.987 C 780.183 113.258 780.487 113.613 780.696 114.024 C 780.931 114.486 781.295 114.869 781.743 115.128 C 782.192 115.387 782.706 115.511 783.223 115.483 C 783.741 115.456 784.239 115.280 784.658 114.975 C 785.031 114.705 785.463 114.526 785.918 114.454 C 786.373 114.382 786.839 114.418 787.277 114.561 C 787.715 114.703 788.114 114.947 788.440 115.273 C 788.806 115.639 789.270 115.892 789.777 115.999 C 790.284 116.107 790.811 116.065 791.295 115.880 C 791.778 115.694 792.198 115.372 792.502 114.953 C 792.773 114.580 793.128 114.277 793.539 114.068 C 793.949 113.859 794.404 113.750 794.865 113.750 C 795.325 113.750 795.780 113.859 796.190 114.068 C 796.652 114.303 797.172 114.399 797.687 114.345 C 798.202 114.291 798.690 114.089 799.093 113.763 C 799.496 113.437 799.795 113.001 799.955 112.508 C 800.098 112.070 800.342 111.672 800.668 111.346 C 800.993 111.020 801.392 110.776 801.830 110.633 C 802.268 110.491 802.734 110.454 803.189 110.526 C 803.701 110.608 804.225 110.539 804.698 110.328 C 805.172 110.117 805.574 109.774 805.856 109.339 C 806.138 108.905 806.288 108.398 806.288 107.880 C 806.288 107.419 806.397 106.965 806.606 106.554 C 806.815 106.144 807.119 105.788 807.492 105.517 C 807.865 105.247 808.296 105.068 808.751 104.996 C 809.263 104.915 809.740 104.687 810.125 104.340 C 810.510 103.994 810.786 103.543 810.920 103.043 C 811.054 102.542 811.041 102.014 810.881 101.521 C 810.738 101.083 810.701 100.617 810.774 100.162 C 810.846 99.707 811.024 99.275 811.295 98.902 C 811.566 98.529 811.921 98.226 812.332 98.017 C 812.794 97.782 813.177 97.418 813.436 96.969 C 813.695 96.521 813.819 96.006 813.791 95.489 C 813.764 94.972 813.588 94.473 813.283 94.054 C 813.012 93.682 812.834 93.250 812.762 92.795 C 812.690 92.340 812.726 91.874 812.869 91.436 C 813.011 90.997 813.255 90.599 813.581 90.273 Z" stroke="rgb(0,0,0)" stroke-width="0.20" />
</g>
<g id="p-12" style="fill:none;stroke-linecap:round;stroke-linejoin:round;">
  <path d="M 852.685 90.273 C 852.685 91.145 852.434 91.999 851.963 92.733 C 851.491 93.467 850.819 94.049 850.025 94.412 C 849.232 94.774 848.351 94.901 847.487 94.777 C 846.624 94.653 845.815 94.283 845.155 93.712 C 844.496 93.140 844.015 92.392 843.769 91.555 C 843.524 90.718 843.524 89.828 843.769 88.991 C 844.015 88.154 844.496 87.406 845.155 86.834 C 845.815 86.263 846.624 85.893 847.487 85.769 C 848.351 85.645 849.232 85.772 850.025 86.134 C 850.819 86.497 851.491 87.079 851.963 87.813 C 852.434 88.547 852.685 89.401 852.685 90.273 Z" stroke="rgb(0,0,255)" stroke-width="0.20" />
  <path d="M 873.135 90.273 C 873.501 89.907 873.754 89.442 873.861 88.935 C 873.969 88.429 873.927 87.902 873.742 87.418 C 873.556 86.934 873.234 86.515 872.815 86.211 C 872.442 85.940 872.139 85.584 871.930 85.174 C 871.721 84.763 871.611 84.309 871.611 83.848 C 871.611 83.387 871.721 82.933 871.930 82.522 C 872.165 82.061 872.261 81.541 872.207 81.026 C 872.153 80.511 871.951 80.022 871.625 79.620 C 871.299 79.217 870.863 78.918 870.370 78.757 C 869.932 78.615 869.534 78.371 869.208 78.045 C 868.882 77.719 868.638 77.321 868.495 76.883 C 868.353 76.444 868.316 75.978 868.388 75.523 C 868.469 75.012 868.400 74.488 868.190 74.014 C 867.979 73.541 867.636 73.139 867.201 72.857 C 866.767 72.575 866.260 72.425 865.742 72.425 C 865.281 72.425 864.827 72.316 864.416 72.106 C 864.006 71.897 863.650 71.594 863.379 71.221 C 863.109 70.848 862.930 70.416 862.858 69.961 C 862.777 69.450 862.549 68.972 862.202 68.587 C 861.856 68.202 861.405 67.926 860.905 67.792 C 860.404 67.658 859.876 67.672 859.383 67.832 C 858.945 67.974 858.479 68.011 858.024 67.939 C 857.569 67.867 857.137 67.688 856.764 67.417 C 856.391 67.146 856.088 66.791 855.879 66.380 C 855.644 65.919 855.280 65.535 854.831 65.276 C 854.382 65.017 853.868 64.894 853.351 64.921 C 852.834 64.948 852.335 65.125 851.916 65.429 C 851.543 65.700 851.112 65.879 850.657 65.951 C 850.202 66.023 849.736 65.986 849.297 65.844 C 848.859 65.702 848.461 65.457 848.135 65.132 C 847.769 64.765 847.304 64.513 846.797 64.405 C 846.291 64.298 845.764 64.339 845.280 64.525 C 844.796 64.710 844.377 65.032 844.072 65.451 C 843.802 65.824 843.446 66.128 843.036 66.337 C 842.625 66.546 842.171 66.655 841.710 66.655 C 841.249 66.655 840.795 66.546 840.384 66.337 C 839.923 66.102 839.403 66.005 838.888 66.059 C 838.372 66.114 837.884 66.316 837.481 66.642 C 837.079 66.968 836.779 67.404 836.619 67.896 C 836.477 68.335 836.233 68.733 835.907 69.059 C 835.581 69.385 835.183 69.629 834.744 69.771 C 834.306 69.914 833.840 69.950 833.385 69.878 C 832.874 69.797 832.349 69.866 831.876 70.077 C 831.403 70.287 831.001 70.631 830.719 71.065 C 830.437 71.500 830.287 72.007 830.287 72.525 C 830.287 72.985 830.178 73.440 829.968 73.850 C 829.759 74.261 829.456 74.616 829.083 74.887 C 828.710 75.158 828.278 75.337 827.823 75.409 C 827.312 75.490 826.834 75.718 826.449 76.064 C 826.064 76.411 825.788 76.862 825.654 77.362 C 825.520 77.862 825.534 78.391 825.694 78.883 C 825.836 79.322 825.873 79.787 825.801 80.243 C 825.729 80.698 825.550 81.129 825.279 81.502 C 825.008 81.875 824.653 82.179 824.242 82.388 C 823.781 82.623 823.397 82.987 823.138 83.435 C 822.879 83.884 822.756 84.398 822.783 84.915 C 822.810 85.433 822.987 85.931 823.291 86.350 C 823.562 86.723 823.741 87.155 823.813 87.610 C 823.885 88.065 823.848 88.531 823.706 88.969 C 823.564 89.407 823.319 89.806 822.994 90.132 C 822.627 90.498 822.375 90.962 822.267 91.469 C 822.160 91.976 822.201 92.503 822.387 92.987 C 822.572 93.470 822.894 93.890 823.313 94.194 C 823.686 94.465 823.990 94.820 824.199 95.231 C 824.408 95.641 824.517 96.096 824.517 96.557 C 824.517 97.017 824.408 97.472 824.199 97.882 C 823.964 98.344 823.867 98.864 823.921 99.379 C 823.976 99.894 824.178 100.382 824.504 100.785 C 824.830 101.188 825.266 101.487 825.758 101.647 C 826.196 101.790 826.595 102.034 826.921 102.360 C 827.247 102.685 827.491 103.084 827.633 103.522 C 827.775 103.960 827.812 104.426 827.740 104.881 C 827.659 105.393 827.728 105.917 827.939 106.390 C 828.149 106.864 828.493 107.266 828.927 107.548 C 829.362 107.830 829.869 107.980 830.387 107.980 C 830.847 107.980 831.302 108.089 831.712 108.298 C 832.123 108.507 832.478 108.811 832.749 109.184 C 833.020 109.557 833.199 109.988 833.271 110.443 C 833.352 110.955 833.579 111.432 833.926 111.817 C 834.273 112.202 834.723 112.478 835.224 112.612 C 835.724 112.746 836.253 112.733 836.745 112.573 C 837.184 112.430 837.649 112.394 838.105 112.466 C 838.560 112.538 838.991 112.716 839.364 112.987 C 839.737 113.258 840.041 113.613 840.250 114.024 C 840.485 114.486 840.849 114.869 841.297 115.128 C 841.746 115.387 842.260 115.511 842.777 115.483 C 843.295 115.456 843.793 115.280 844.212 114.975 C 844.585 114.705 845.017 114.526 845.472 114.454 C 845.927 114.382 846.393 114.418 846.831 114.561 C 847.269 114.703 847.668 114.947 847.994 115.273 C 848.360 115.639 848.824 115.892 849.331 115.999 C 849.838 116.107 850.365 116.065 850.848 115.880 C 851.332 115.694 851.752 115.372 852.056 114.953 C 852.327 114.580 852.682 114.277 853.093 114.068 C 853.503 113.859 853.958 113.750 854.419 113.750 C 854.879 113.750 855.334 113.859 855.744 114.068 C 856.206 114.303 856.726 114.399 857.241 114.345 C 857.756 114.291 858.244 114.089 858.647 113.763 C 859.050 113.437 859.349 113.001 859.509 112.508 C 859.652 112.070 859.896 111.672 860.221 111.346 C 860.547 111.020 860.946 110.776 861.384 110.633 C 861.822 110.491 862.288 110.454 862.743 110.526 C 863.255 110.608 863.779 110.539 864.252 110.328 C 864.725 110.117 865.127 109.774 865.410 109.339 C 865.692 108.905 865.842 108.398 865.842 107.880 C 865.842 107.419 865.951 106.965 866.160 106.554 C 866.369 106.144 866.673 105.788 867.046 105.517 C 867.419 105.247 867.850 105.068 868.305 104.996 C 868.817 104.915 869.294 104.687 869.679 104.340 C 870.064 103.994 870.340 103.543 870.474 103.043 C 870.608 102.542 870.595 102.014 870.435 101.521 C 870.292 101.083 870.255 100.617 870.328 100.162 C 870.400 99.707 870.578 99.275 870.849 98.902 C 871.120 98.529 871.475 98.226 871.886 98.017 C 872.348 97.782 872.731 97.418 872.990 96.969 C 873.249 96.521 873.373 96.006 873.345 95.489 C 873.318 94.972 873.142 94.473 872.837 94.054 C 872.566 93.682 872.388 93.250 872.316 92.795 C 872.244 92.340 872.280 91.874 872.423 91.436 C 872.565 90.997 872.809 90.599 873.135 90.273 Z" stroke="rgb(0,0,0)" stroke-width="0.20" />
</g>
<g id="p-13" style="fill:none;stroke-linecap:round;stroke-linejoin:round;">
  <path d="M 886.662 113.200 C 886.662 113.564 886.557 113.921 886.360 114.227 C 886.163 114.534 885.883 114.777 885.551 114.928 C 885.220 115.080 884.852 115.132 884.492 115.081 C 884.131 115.029 883.793 114.874 883.518 114.636 C 883.242 114.397 883.042 114.085 882.939 113.735 C 882.836 113.386 882.836 113.014 882.939 112.665 C 883.042 112.315 883.242 112.003 883.518 111.764 C 883.793 111.526 884.131 111.371 884.492 111.319 C 884.852 111.268 885.220 111.320 885.551 111.472 C 885.883 111.623 886.163 111.866 886.360 112.173 C 886.557 112.479 886.662 112.836 886.662 113.200 Z" stroke="rgb(0,0,255)" stroke-width="0.20" />
  <path d="M 884.762 119.200 H 912.592 C 913.663 119.200 914.715 118.918 915.642 118.383 C 916.570 117.847 917.340 117.077 917.875 116.150 C 918.410 115.223 918.692 114.171 918.692 113.100 C 918.692 112.029 918.410 110.977 917.875 110.050 C 917.340 109.123 916.570 108.353 915.642 107.817 C 914.715 107.282 913.663 107.000 912.592 107.000 H 896.762 C 895.726 107.000 894.709 106.727 893.812 106.210 C 892.915 105.692 892.170 104.947 891.652 104.050 C 891.135 103.153 890.862 102.136 890.862 101.100 V 85.270 C 890.862 84.199 890.580 83.147 890.045 82.220 C 889.509 81.292 888.739 80.522 887.812 79.987 C 886.885 79.452 885.833 79.170 884.762 79.170 C 883.691 79.170 882.639 79.452 881.712 79.987 C 880.785 80.522 880.015 81.292 879.479 82.220 C 878.944 83.147 878.662 84.199 878.662 85.270 V 113.100 C 878.662 114.171 878.944 115.223 879.479 116.150 C 880.015 117.077 880.785 117.847 881.712 118.383 C 882.639 118.918 883.691 119.200 884.762 119.200 Z" stroke="rgb(0,0,0)" stroke-width="0.20" />
</g>
<g id="p-14" style="fill:none;stroke-linecap:round;stroke-linejoin:round;">
  <path d="M 928.192 113.200 C 928.192 113.564 928.088 113.921 927.891 114.227 C 927.694 114.534 927.413 114.777 927.081 114.928 C 926.750 115.080 926.382 115.132 926.022 115.081 C 925.661 115.029 925.323 114.874 925.048 114.636 C 924.773 114.397 924.572 114.085 924.469 113.735 C 924.367 113.386 924.367 113.014 924.469 112.665 C 924.572 112.315 924.773 112.003 925.048 111.764 C 925.323 111.526 925.661 111.371 926.022 111.319 C 926.382 111.268 926.750 111.320 927.081 111.472 C 927.413 111.623 927.694 111.866 927.891 112.173 C 928.088 112.479 928.192 112.836 928.192 113.200 Z" stroke="rgb(0,0,255)" stroke-width="0.20" />
  <path d="M 926.292 119.200 H 954.122 C 955.193 119.200 956.245 118.918 957.172 118.383 C 958.100 117.847 958.870 117.077 959.405 116.150 C 959.941 115.223 960.222 114.171 960.222 113.100 C 960.222 112.029 959.941 110.977 959.405 110.050 C 958.870 109.123 958.100 108.353 957.172 107.817 C 956.245 107.282 955.193 107.000 954.122 107.000 H 938.292 C 937.257 107.000 936.239 106.727 935.342 106.210 C 934.445 105.692 933.700 104.947 933.183 104.050 C 932.665 103.153 932.392 102.136 932.392 101.100 V 85.270 C 932.392 84.199 932.110 83.147 931.575 82.220 C 931.040 81.292 930.270 80.522 929.342 79.987 C 928.415 79.452 927.363 79.170 926.292 79.170 C 925.221 79.170 924.170 79.452 923.242 79.987 C 922.315 80.522 921.545 81.292 921.009 82.220 C 920.474 83.147 920.192 84.199 920.192 85.270 V 113.100 C 920.192 114.171 920.474 115.223 921.009 116.150 C 921.545 117.077 922.315 117.847 923.242 118.383 C 924.170 118.918 925.221 119.200 926.292 119.200 Z" stroke="rgb(0,0,0)" stroke-width="0.20" />
</g>
<g id="p-15" style="fill:none;stroke-linecap:round;stroke-linejoin:round;">
  <path d="M 969.722 113.200 C 969.722 113.564 969.618 113.921 969.421 114.227 C 969.224 114.534 968.943 114.777 968.612 114.928 C 968.280 115.080 967.913 115.132 967.552 115.081 C 967.192 115.029 966.854 114.874 966.578 114.636 C 966.303 114.397 966.102 114.085 965.999 113.735 C 965.897 113.386 965.897 113.014 965.999 112.665 C 966.102 112.315 966.303 112.003 966.578 111.764 C 966.854 111.526 967.192 111.371 967.552 111.319 C 967.913 111.268 968.280 111.320 968.612 111.472 C 968.943 111.623 969.224 111.866 969.421 112.173 C 969.618 112.479 969.722 112.836 969.722 113.200 Z" stroke="rgb(0,0,255)" stroke-width="0.20" />
  <path d="M 967.822 119.200 H 995.653 C 996.724 119.200 997.775 118.918 998.703 118.383 C 999.630 117.847 1000.400 117.077 1000.935 116.150 C 1001.471 115.223 1001.753 114.171 1001.753 113.100 C 1001.753 112.029 1001.471 110.977 1000.935 110.050 C 1000.400 109.123 999.630 108.353 998.703 107.817 C 997.775 107.282 996.724 107.000 995.653 107.000 H 979.822 C 978.787 107.000 977.769 106.727 976.872 106.210 C 975.976 105.692 975.231 104.947 974.713 104.050 C 974.195 103.153 973.922 102.136 973.922 101.100 V 85.270 C 973.922 84.199 973.641 83.147 973.105 82.220 C 972.570 81.292 971.800 80.522 970.872 79.987 C 969.945 79.452 968.893 79.170 967.822 79.170 C 966.752 79.170 965.700 79.452 964.772 79.987 C 963.845 80.522 963.075 81.292 962.540 82.220 C 962.004 83.147 961.722 84.199 961.722 85.270 V 113.100 C 961.722 114.171 962.004 115.223 962.540 116.150 C 963.075 117.077 963.845 117.847 964.772 118.383 C 965.700 118.918 966.752 119.200 967.822 119.200 Z" stroke="rgb(0,0,0)" stroke-width="0.20" />
</g>
<g id="p-16" style="fill:none;stroke-linecap:round;stroke-linejoin:round;">
  <path d="M 1015.453 113.200 C 1015.453 112.031 1015.117 110.886 1014.484 109.902 C 1013.852 108.918 1012.950 108.137 1011.887 107.651 C 1010.823 107.165 1009.642 106.996 1008.485 107.162 C 1007.327 107.329 1006.242 107.824 1005.358 108.590 C 1004.474 109.356 1003.829 110.359 1003.500 111.481 C 1003.170 112.603 1003.170 113.797 1003.500 114.919 C 1003.829 116.041 1004.474 117.044 1005.358 117.810 C 1006.242 118.576 1007.327 119.071 1008.485 119.238 C 1009.642 119.404 1010.823 119.235 1011.887 118.749 C 1012.950 118.263 1013.852 117.482 1014.484 116.498 C 1015.117 115.514 1015.453 114.369 1015.453 113.200 Z" stroke="rgb(0,0,0)" stroke-width="0.20" />
</g>
<g id="p-17" style="fill:none;stroke-linecap:round;stroke-linejoin:round;">
  <path d="M 1015.453 99.500 C 1015.453 98.331 1015.117 97.186 1014.484 96.202 C 1013.852 95.218 1012.950 94.437 1011.887 93.951 C 1010.823 93.465 1009.642 93.296 1008.485 93.462 C 1007.327 93.629 1006.242 94.124 1005.358 94.890 C 1004.474 95.656 1003.829 96.659 1003.500 97.781 C 1003.170 98.903 1003.170 100.097 1003.500 101.219 C 1003.829 102.341 1004.474 103.344 1005.358 104.110 C 1006.242 104.876 1007.327 105.371 1008.485 105.538 C 1009.642 105.704 1010.823 105.535 1011.887 105.049 C 1012.950 104.563 1013.852 103.782 1014.484 102.798 C 1015.117 101.814 1015.453 100.669 1015.453 99.500 Z" stroke="rgb(0,0,0)" stroke-width="0.20" />
</g>
</svg>