<?xml version='1.0' encoding='utf-8'?>
<svg height="43.97mm" viewBox="0.0 0.0 120.04 43.97" width="120.04mm" xmlns="http://www.w3.org/2000/svg" xmlns:cc="http://creativecommons.org/ns#" xmlns:dc="http://purl.org/dc/elements/1.1/" xmlns:inkscape="http://www.inkscape.org/namespaces/inkscape" xmlns:rdf="http://www.w3.org/1999/02/22-rdf-syntax-ns#" xmlns:svg="http://www.w3.org/2000/svg" xmlns:xlink="http://www.w3.org/1999/xlink">
<!--
Pulley - Timing belt pulleys for different profiles

Created with Boxes.py (https://boxes.hackerspace-bamberg.de/)
Command line (remove spaces between dashes): boxes Pulley
-->
<title>Pulley</title>
<metadata>
<rdf:RDF><cc:Work>
<dc:title>Part - Pulley</dc:title>
<dc:source>boxes Pulley</dc:source>
<dc:description>Timing belt pulleys for different profiles

Created with Boxes.py (https://boxes.hackerspace-bamberg.de/)
Command line: boxes Pulley
Command line short: boxes Pulley
</dc:description>
</cc:Work></rdf:RDF></metadata>
<g id="p-0" style="fill:none;stroke-linecap:round;stroke-linejoin:round;">
  <path d="M 10.044 33.968 H 110.044 V 23.968 H 10.044 V 33.968 Z" stroke="rgb(0,0,0)" stroke-width="0.20" />
  <text dominant-baseline="hanging" font-size="6px" style="font-family: sans-serif ; font-weight: normal; font-style: normal; fill: rgb(255,0,0)" text-anchor="middle" transform="matrix( 1.000 0.000 0.000 1.000 60.044 25.968 )">100.0mm, burn:0.10mm</text>
</g>
<g id="p-1" style="fill:none;stroke-linecap:round;stroke-linejoin:round;">
  <path d="M 18.556 16.156 C 18.556 16.616 18.424 17.066 18.175 17.453 C 17.926 17.840 17.571 18.148 17.153 18.339 C 16.734 18.530 16.270 18.597 15.814 18.531 C 15.359 18.466 14.932 18.271 14.584 17.970 C 14.236 17.668 13.983 17.273 13.853 16.832 C 13.723 16.391 13.723 15.921 13.853 15.480 C 13.983 15.038 14.236 14.643 14.584 14.342 C 14.932 14.041 15.359 13.846 15.814 13.780 C 16.270 13.715 16.734 13.782 17.153 13.973 C 17.571 14.164 17.926 14.471 18.175 14.858 C 18.424 15.245 18.556 15.696 18.556 16.156 Z" stroke="rgb(0,0,255)" stroke-width="0.20" />
  <path d="M 15.317 22.312 L 15.488 22.255 L 15.572 22.115 L 15.596 21.997 L 15.628 21.904 L 15.671 21.814 L 15.721 21.734 L 15.809 21.654 L 15.914 21.594 L 16.032 21.557 L 16.156 21.545 L 16.280 21.557 L 16.398 21.594 L 16.503 21.654 L 16.590 21.734 L 16.640 21.814 L 16.684 21.904 L 16.715 21.997 L 16.740 22.116 L 16.824 22.255 L 16.995 22.312 L 17.260 22.270 L 17.405 22.163 L 17.442 22.004 L 17.429 21.884 L 17.430 21.785 L 17.443 21.686 L 17.466 21.595 L 17.525 21.492 L 17.606 21.403 L 17.707 21.331 L 17.821 21.281 L 17.943 21.255 L 18.066 21.253 L 18.185 21.277 L 18.293 21.327 L 18.365 21.387 L 18.434 21.459 L 18.493 21.538 L 18.553 21.643 L 18.676 21.750 L 18.856 21.751 L 19.095 21.629 L 19.200 21.483 L 19.186 21.321 L 19.137 21.210 L 19.107 21.116 L 19.089 21.018 L 19.083 20.924 L 19.107 20.808 L 19.157 20.698 L 19.230 20.599 L 19.324 20.516 L 19.431 20.453 L 19.548 20.413 L 19.668 20.400 L 19.786 20.413 L 19.873 20.448 L 19.961 20.496 L 20.042 20.553 L 20.131 20.634 L 20.282 20.697 L 20.453 20.643 L 20.643 20.453 L 20.698 20.281 L 20.634 20.131 L 20.553 20.042 L 20.496 19.961 L 20.448 19.873 L 20.413 19.786 L 20.400 19.668 L 20.413 19.548 L 20.453 19.431 L 20.516 19.324 L 20.599 19.230 L 20.698 19.157 L 20.808 19.107 L 20.924 19.083 L 21.018 19.089 L 21.116 19.107 L 21.210 19.137 L 21.321 19.186 L 21.483 19.200 L 21.629 19.095 L 21.751 18.856 L 21.750 18.676 L 21.643 18.553 L 21.538 18.493 L 21.459 18.434 L 21.387 18.365 L 21.327 18.293 L 21.277 18.185 L 21.253 18.066 L 21.255 17.943 L 21.281 17.821 L 21.331 17.707 L 21.403 17.606 L 21.492 17.525 L 21.595 17.466 L 21.686 17.443 L 21.785 17.430 L 21.884 17.429 L 22.004 17.442 L 22.163 17.405 L 22.270 17.260 L 22.312 16.995 L 22.255 16.824 L 22.115 16.740 L 21.997 16.715 L 21.904 16.683 L 21.814 16.640 L 21.734 16.590 L 21.654 16.503 L 21.594 16.398 L 21.557 16.280 L 21.545 16.156 L 21.557 16.032 L 21.594 15.914 L 21.654 15.809 L 21.734 15.721 L 21.814 15.671 L 21.904 15.628 L 21.997 15.596 L 22.116 15.572 L 22.255 15.488 L 22.312 15.317 L 22.270 15.051 L 22.163 14.906 L 22.004 14.870 L 21.884 14.883 L 21.785 14.881 L 21.686 14.868 L 21.595 14.845 L 21.492 14.787 L 21.403 14.705 L 21.331 14.605 L 21.281 14.490 L 21.255 14.368 L 21.253 14.245 L 21.277 14.127 L 21.327 14.019 L 21.387 13.946 L 21.459 13.878 L 21.538 13.819 L 21.643 13.759 L 21.750 13.635 L 21.751 13.456 L 21.629 13.216 L 21.483 13.111 L 21.321 13.125 L 21.210 13.175 L 21.116 13.204 L 21.018 13.222 L 20.924 13.229 L 20.808 13.205 L 20.698 13.155 L 20.599 13.081 L 20.516 12.988 L 20.453 12.880 L 20.413 12.764 L 20.400 12.644 L 20.413 12.526 L 20.448 12.438 L 20.496 12.350 L 20.553 12.270 L 20.634 12.180 L 20.697 12.030 L 20.643 11.859 L 20.453 11.669 L 20.281 11.614 L 20.131 11.678 L 20.042 11.759 L 19.961 11.816 L 19.873 11.863 L 19.786 11.898 L 19.668 11.912 L 19.548 11.898 L 19.431 11.859 L 19.324 11.796 L 19.230 11.713 L 19.157 11.614 L 19.107 11.504 L 19.083 11.388 L 19.089 11.294 L 19.107 11.195 L 19.137 11.101 L 19.186 10.991 L 19.200 10.829 L 19.095 10.683 L 18.856 10.561 L 18.676 10.561 L 18.553 10.668 L 18.493 10.773 L 18.434 10.852 L 18.365 10.925 L 18.293 10.985 L 18.185 11.034 L 18.066 11.058 L 17.943 11.057 L 17.821 11.030 L 17.707 10.980 L 17.606 10.909 L 17.525 10.820 L 17.466 10.716 L 17.443 10.625 L 17.430 10.526 L 17.429 10.428 L 17.442 10.307 L 17.405 10.148 L 17.260 10.042 L 16.995 10.000 L 16.824 10.056 L 16.740 10.196 L 16.715 10.315 L 16.683 10.408 L 16.640 10.498 L 16.590 10.578 L 16.503 10.658 L 16.398 10.718 L 16.280 10.754 L 16.156 10.767 L 16.032 10.754 L 15.914 10.718 L 15.809 10.658 L 15.721 10.578 L 15.671 10.498 L 15.628 10.408 L 15.596 10.315 L 15.572 10.196 L 15.488 10.056 L 15.317 10.000 L 15.051 10.042 L 14.906 10.149 L 14.870 10.307 L 14.883 10.428 L 14.881 10.526 L 14.868 10.625 L 14.845 10.717 L 14.787 10.820 L 14.705 10.909 L 14.605 10.980 L 14.490 11.030 L 14.368 11.057 L 14.245 11.058 L 14.127 11.034 L 14.019 10.985 L 13.946 10.925 L 13.878 10.852 L 13.819 10.773 L 13.759 10.668 L 13.635 10.561 L 13.456 10.561 L 13.216 10.683 L 13.111 10.829 L 13.125 10.991 L 13.175 11.101 L 13.204 11.195 L 13.222 11.294 L 13.229 11.388 L 13.205 11.504 L 13.155 11.614 L 13.081 11.713 L 12.988 11.796 L 12.880 11.859 L 12.764 11.898 L 12.644 11.912 L 12.526 11.898 L 12.438 11.863 L 12.350 11.816 L 12.270 11.759 L 12.180 11.678 L 12.030 11.614 L 11.859 11.669 L 11.669 11.859 L 11.614 12.030 L 11.678 12.180 L 11.759 12.270 L 11.816 12.350 L 11.863 12.438 L 11.898 12.526 L 11.912 12.644 L 11.898 12.764 L 11.859 12.880 L 11.796 12.988 L 11.713 13.081 L 11.614 13.155 L 11.504 13.205 L 11.388 13.229 L 11.294 13.222 L 11.195 13.204 L 11.101 13.175 L 10.991 13.125 L 10.829 13.111 L 10.683 13.216 L 10.561 13.456 L 10.561 13.636 L 10.668 13.759 L 10.773 13.819 L 10.852 13.878 L 10.925 13.947 L 10.985 14.019 L 11.034 14.127 L 11.058 14.245 L 11.057 14.368 L 11.030 14.490 L 10.980 14.605 L 10.909 14.705 L 10.820 14.787 L 10.716 14.845 L 10.625 14.868 L 10.526 14.882 L 10.428 14.883 L 10.307 14.870 L 10.148 14.907 L 10.042 15.051 L 10.000 15.317 L 10.056 15.488 L 10.196 15.572 L 10.315 15.596 L 10.408 15.628 L 10.498 15.671 L 10.578 15.721 L 10.658 15.809 L 10.718 15.914 L 10.754 16.032 L 10.767 16.156 L 10.754 16.280 L 10.718 16.398 L 10.658 16.503 L 10.578 16.590 L 10.498 16.640 L 10.408 16.684 L 10.315 16.715 L 10.196 16.740 L 10.056 16.824 L 10.000 16.995 L 10.042 17.260 L 10.149 17.405 L 10.307 17.442 L 10.428 17.429 L 10.526 17.430 L 10.625 17.443 L 10.717 17.466 L 10.820 17.525 L 10.909 17.606 L 10.980 17.707 L 11.030 17.821 L 11.057 17.943 L 11.058 18.066 L 11.034 18.185 L 10.985 18.293 L 10.925 18.365 L 10.852 18.434 L 10.773 18.493 L 10.668 18.553 L 10.561 18.676 L 10.561 18.856 L 10.683 19.095 L 10.829 19.200 L 10.991 19.186 L 11.101 19.137 L 11.195 19.107 L 11.294 19.089 L 11.388 19.083 L 11.504 19.107 L 11.614 19.157 L 11.713 19.230 L 11.796 19.324 L 11.859 19.431 L 11.898 19.548 L 11.912 19.668 L 11.898 19.786 L 11.863 19.873 L 11.816 19.961 L 11.759 20.042 L 11.678 20.131 L 11.614 20.282 L 11.669 20.453 L 11.859 20.643 L 12.030 20.698 L 12.180 20.634 L 12.270 20.553 L 12.350 20.496 L 12.438 20.448 L 12.526 20.413 L 12.644 20.400 L 12.764 20.413 L 12.880 20.453 L 12.988 20.516 L 13.081 20.599 L 13.155 20.698 L 13.205 20.808 L 13.229 20.924 L 13.222 21.018 L 13.204 21.116 L 13.175 21.210 L 13.125 21.321 L 13.111 21.483 L 13.216 21.629 L 13.456 21.751 L 13.636 21.750 L 13.759 21.643 L 13.819 21.538 L 13.878 21.459 L 13.947 21.387 L 14.019 21.327 L 14.127 21.277 L 14.245 21.253 L 14.368 21.255 L 14.490 21.281 L 14.605 21.331 L 14.705 21.403 L 14.787 21.492 L 14.845 21.595 L 14.868 21.686 L 14.882 21.785 L 14.883 21.884 L 14.870 22.004 L 14.907 22.163 L 15.051 22.270 L 15.317 22.312 Z" stroke="rgb(0,0,0)" stroke-width="0.20" />
</g>
<g id="p-2" style="fill:none;stroke-linecap:round;stroke-linejoin:round;">
  <path d="M 32.480 16.156 C 32.480 16.616 32.348 17.066 32.099 17.453 C 31.850 17.840 31.496 18.148 31.077 18.339 C 30.659 18.530 30.194 18.597 29.739 18.531 C 29.283 18.466 28.856 18.271 28.509 17.970 C 28.161 17.668 27.907 17.273 27.777 16.832 C 27.648 16.391 27.648 15.921 27.777 15.480 C 27.907 15.038 28.161 14.643 28.509 14.342 C 28.856 14.041 29.283 13.846 29.739 13.780 C 30.194 13.715 30.659 13.782 31.077 13.973 C 31.496 14.164 31.850 14.471 32.099 14.858 C 32.348 15.245 32.480 15.696 32.480 16.156 Z" stroke="rgb(0,0,255)" stroke-width="0.20" />
  <path d="M 29.241 22.312 L 29.412 22.255 L 29.496 22.115 L 29.521 21.997 L 29.553 21.904 L 29.596 21.814 L 29.646 21.734 L 29.733 21.654 L 29.838 21.594 L 29.956 21.557 L 30.080 21.545 L 30.204 21.557 L 30.322 21.594 L 30.427 21.654 L 30.515 21.734 L 30.565 21.814 L 30.608 21.904 L 30.640 21.997 L 30.664 22.116 L 30.748 22.255 L 30.919 22.312 L 31.185 22.270 L 31.330 22.163 L 31.366 22.004 L 31.353 21.884 L 31.355 21.785 L 31.368 21.686 L 31.391 21.595 L 31.449 21.492 L 31.531 21.403 L 31.631 21.331 L 31.746 21.281 L 31.868 21.255 L 31.991 21.253 L 32.109 21.277 L 32.217 21.327 L 32.289 21.387 L 32.358 21.459 L 32.417 21.538 L 32.477 21.643 L 32.601 21.750 L 32.780 21.751 L 33.020 21.629 L 33.125 21.483 L 33.111 21.321 L 33.061 21.210 L 33.032 21.116 L 33.014 21.018 L 33.007 20.924 L 33.031 20.808 L 33.081 20.698 L 33.155 20.599 L 33.248 20.516 L 33.356 20.453 L 33.472 20.413 L 33.592 20.400 L 33.710 20.413 L 33.798 20.448 L 33.886 20.496 L 33.966 20.553 L 34.056 20.634 L 34.206 20.697 L 34.377 20.643 L 34.567 20.453 L 34.622 20.281 L 34.558 20.131 L 34.477 20.042 L 34.420 19.961 L 34.373 19.873 L 34.338 19.786 L 34.324 19.668 L 34.338 19.548 L 34.377 19.431 L 34.440 19.324 L 34.523 19.230 L 34.622 19.157 L 34.732 19.107 L 34.848 19.083 L 34.942 19.089 L 35.041 19.107 L 35.135 19.137 L 35.245 19.186 L 35.407 19.200 L 35.553 19.095 L 35.675 18.856 L 35.675 18.676 L 35.568 18.553 L 35.463 18.493 L 35.384 18.434 L 35.311 18.365 L 35.251 18.293 L 35.202 18.185 L 35.178 18.066 L 35.179 17.943 L 35.206 17.821 L 35.256 17.707 L 35.327 17.606 L 35.416 17.525 L 35.520 17.466 L 35.611 17.443 L 35.710 17.430 L 35.808 17.429 L 35.929 17.442 L 36.088 17.405 L 36.194 17.260 L 36.236 16.995 L 36.180 16.824 L 36.040 16.740 L 35.921 16.715 L 35.828 16.683 L 35.738 16.640 L 35.658 16.590 L 35.578 16.503 L 35.518 16.398 L 35.482 16.280 L 35.469 16.156 L 35.482 16.032 L 35.518 15.914 L 35.578 15.809 L 35.658 15.721 L 35.738 15.671 L 35.828 15.628 L 35.921 15.596 L 36.040 15.572 L 36.180 15.488 L 36.236 15.317 L 36.194 15.051 L 36.087 14.906 L 35.929 14.870 L 35.808 14.883 L 35.710 14.881 L 35.611 14.868 L 35.519 14.845 L 35.416 14.787 L 35.327 14.705 L 35.256 14.605 L 35.206 14.490 L 35.179 14.368 L 35.178 14.245 L 35.202 14.127 L 35.251 14.019 L 35.311 13.946 L 35.384 13.878 L 35.463 13.819 L 35.568 13.759 L 35.675 13.635 L 35.675 13.456 L 35.553 13.216 L 35.407 13.111 L 35.245 13.125 L 35.135 13.175 L 35.041 13.204 L 34.942 13.222 L 34.848 13.229 L 34.732 13.205 L 34.622 13.155 L 34.523 13.081 L 34.440 12.988 L 34.377 12.880 L 34.338 12.764 L 34.324 12.644 L 34.338 12.526 L 34.373 12.438 L 34.420 12.350 L 34.477 12.270 L 34.558 12.180 L 34.622 12.030 L 34.567 11.859 L 34.377 11.669 L 34.206 11.614 L 34.056 11.678 L 33.966 11.759 L 33.886 11.816 L 33.798 11.863 L 33.710 11.898 L 33.592 11.912 L 33.472 11.898 L 33.356 11.859 L 33.248 11.796 L 33.155 11.713 L 33.081 11.614 L 33.031 11.504 L 33.007 11.388 L 33.014 11.294 L 33.032 11.195 L 33.061 11.101 L 33.111 10.991 L 33.125 10.829 L 33.020 10.683 L 32.780 10.561 L 32.600 10.561 L 32.477 10.668 L 32.417 10.773 L 32.358 10.852 L 32.289 10.925 L 32.217 10.985 L 32.109 11.034 L 31.991 11.058 L 31.868 11.057 L 31.746 11.030 L 31.631 10.980 L 31.531 10.909 L 31.449 10.820 L 31.391 10.716 L 31.368 10.625 L 31.354 10.526 L 31.353 10.428 L 31.366 10.307 L 31.329 10.148 L 31.185 10.042 L 30.919 10.000 L 30.748 10.056 L 30.664 10.196 L 30.640 10.315 L 30.608 10.408 L 30.565 10.498 L 30.515 10.578 L 30.427 10.658 L 30.322 10.718 L 30.204 10.754 L 30.080 10.767 L 29.956 10.754 L 29.838 10.718 L 29.733 10.658 L 29.646 10.578 L 29.596 10.498 L 29.552 10.408 L 29.521 10.315 L 29.496 10.196 L 29.412 10.056 L 29.241 10.000 L 28.976 10.042 L 28.831 10.149 L 28.794 10.307 L 28.807 10.428 L 28.806 10.526 L 28.793 10.625 L 28.770 10.717 L 28.711 10.820 L 28.630 10.909 L 28.529 10.980 L 28.415 11.030 L 28.293 11.057 L 28.170 11.058 L 28.051 11.034 L 27.943 10.985 L 27.871 10.925 L 27.802 10.852 L 27.743 10.773 L 27.683 10.668 L 27.560 10.561 L 27.380 10.561 L 27.141 10.683 L 27.036 10.829 L 27.050 10.991 L 27.099 11.101 L 27.128 11.195 L 27.147 11.294 L 27.153 11.388 L 27.129 11.504 L 27.079 11.614 L 27.006 11.713 L 26.912 11.796 L 26.805 11.859 L 26.688 11.898 L 26.568 11.912 L 26.450 11.898 L 26.363 11.863 L 26.275 11.816 L 26.194 11.759 L 26.105 11.678 L 25.954 11.614 L 25.783 11.669 L 25.593 11.859 L 25.538 12.030 L 25.602 12.180 L 25.683 12.270 L 25.740 12.350 L 25.788 12.438 L 25.823 12.526 L 25.836 12.644 L 25.823 12.764 L 25.783 12.880 L 25.720 12.988 L 25.637 13.081 L 25.538 13.155 L 25.428 13.205 L 25.312 13.229 L 25.218 13.222 L 25.120 13.204 L 25.026 13.175 L 24.915 13.125 L 24.753 13.111 L 24.607 13.216 L 24.485 13.456 L 24.486 13.636 L 24.593 13.759 L 24.698 13.819 L 24.777 13.878 L 24.849 13.947 L 24.909 14.019 L 24.959 14.127 L 24.983 14.245 L 24.981 14.368 L 24.955 14.490 L 24.904 14.605 L 24.833 14.705 L 24.744 14.787 L 24.641 14.845 L 24.550 14.868 L 24.450 14.882 L 24.352 14.883 L 24.232 14.870 L 24.073 14.907 L 23.966 15.051 L 23.924 15.317 L 23.981 15.488 L 24.120 15.572 L 24.239 15.596 L 24.332 15.628 L 24.422 15.671 L 24.502 15.721 L 24.582 15.809 L 24.642 15.914 L 24.679 16.032 L 24.691 16.156 L 24.679 16.280 L 24.642 16.398 L 24.582 16.503 L 24.502 16.590 L 24.422 16.640 L 24.332 16.684 L 24.239 16.715 L 24.120 16.740 L 23.981 16.824 L 23.924 16.995 L 23.966 17.260 L 24.073 17.405 L 24.232 17.442 L 24.352 17.429 L 24.450 17.430 L 24.550 17.443 L 24.641 17.466 L 24.744 17.525 L 24.833 17.606 L 24.904 17.707 L 24.955 17.821 L 24.981 17.943 L 24.983 18.066 L 24.959 18.185 L 24.909 18.293 L 24.849 18.365 L 24.777 18.434 L 24.698 18.493 L 24.593 18.553 L 24.486 18.676 L 24.485 18.856 L 24.607 19.095 L 24.753 19.200 L 24.915 19.186 L 25.026 19.137 L 25.120 19.107 L 25.218 19.089 L 25.312 19.083 L 25.428 19.107 L 25.538 19.157 L 25.637 19.230 L 25.720 19.324 L 25.783 19.431 L 25.823 19.548 L 25.836 19.668 L 25.823 19.786 L 25.788 19.873 L 25.740 19.961 L 25.683 20.042 L 25.602 20.131 L 25.539 20.282 L 25.593 20.453 L 25.783 20.643 L 25.955 20.698 L 26.105 20.634 L 26.194 20.553 L 26.275 20.496 L 26.363 20.448 L 26.450 20.413 L 26.568 20.400 L 26.688 20.413 L 26.805 20.453 L 26.912 20.516 L 27.006 20.599 L 27.079 20.698 L 27.129 20.808 L 27.153 20.924 L 27.147 21.018 L 27.129 21.116 L 27.099 21.210 L 27.050 21.321 L 27.036 21.483 L 27.141 21.629 L 27.380 21.751 L 27.560 21.750 L 27.683 21.643 L 27.743 21.538 L 27.802 21.459 L 27.871 21.387 L 27.943 21.327 L 28.051 21.277 L 28.170 21.253 L 28.293 21.255 L 28.415 21.281 L 28.529 21.331 L 28.630 21.403 L 28.711 21.492 L 28.770 21.595 L 28.793 21.686 L 28.806 21.785 L 28.807 21.884 L 28.794 22.004 L 28.831 22.163 L 28.976 22.270 L 29.241 22.312 Z" stroke="rgb(0,0,0)" stroke-width="0.20" />
</g>
</svg>