<?xml version='1.0' encoding='utf-8'?>
<svg height="371.00mm" viewBox="0.0 0.0 260.20 371.00" width="260.20mm" xmlns="http://www.w3.org/2000/svg" xmlns:cc="http://creativecommons.org/ns#" xmlns:dc="http://purl.org/dc/elements/1.1/" xmlns:inkscape="http://www.inkscape.org/namespaces/inkscape" xmlns:rdf="http://www.w3.org/1999/02/22-rdf-syntax-ns#" xmlns:svg="http://www.w3.org/2000/svg" xmlns:xlink="http://www.w3.org/1999/xlink">
<!--
Rack19HalfWidth - Half width 19inch rack unit for musical equipment.

Created with Boxes.py (https://festi.info/boxes.py)
Command line (remove spaces between dashes): boxes Rack19HalfWidth
-->
<title>Rack19HalfWidth</title>
<metadata>
<rdf:RDF><cc:Work>
<dc:title>Box - Rack19HalfWidth</dc:title>
<dc:source>boxes Rack19HalfWidth</dc:source>
<dc:description>Half width 19inch rack unit for musical equipment.

Created with Boxes.py (https://festi.info/boxes.py)
Command line: boxes Rack19HalfWidth
Command line short: boxes Rack19HalfWidth
</dc:description>
</cc:Work></rdf:RDF></metadata>
<g id="p-0" style="fill:none;stroke-linecap:round;stroke-linejoin:round;">
  <path d="M 10.100 361.000 H 110.100 V 351.000 H 10.100 V 361.000 Z" stroke="rgb(0,0,0)" stroke-width="0.20" />
  <text dominant-baseline="hanging" font-size="6px" style="font-family: sans-serif ; font-weight: normal; font-style: normal; fill: rgb(255,0,0)" text-anchor="middle" transform="matrix( 1.000 0.000 0.000 1.000 60.100 353.000 )">100.0mm, burn:0.10mm</text>
</g>
<g id="p-1" style="fill:none;stroke-linecap:round;stroke-linejoin:round;">
  <path d="M 27.500 317.200 C 27.500 317.373 27.450 317.541 27.357 317.687 C 27.264 317.832 27.131 317.947 26.974 318.019 C 26.817 318.090 26.643 318.115 26.472 318.091 C 26.301 318.066 26.141 317.993 26.011 317.880 C 25.880 317.767 25.785 317.619 25.736 317.454 C 25.688 317.288 25.688 317.112 25.736 316.946 C 25.785 316.781 25.880 316.633 26.011 316.520 C 26.141 316.407 26.301 316.334 26.472 316.309 C 26.643 316.285 26.817 316.310 26.974 316.381 C 27.131 316.453 27.264 316.568 27.357 316.713 C 27.450 316.859 27.500 317.027 27.500 317.200 Z" stroke="rgb(0,0,255)" stroke-width="0.20" />
  <path d="M 47.800 329.200 C 47.800 331.443 47.155 333.639 45.943 335.525 C 44.730 337.412 43.001 338.911 40.960 339.843 C 38.920 340.774 36.655 341.100 34.435 340.781 C 32.215 340.462 30.133 339.511 28.438 338.042 C 26.743 336.573 25.506 334.648 24.874 332.496 C 24.242 330.344 24.242 328.056 24.874 325.904 C 25.506 323.752 26.743 321.827 28.438 320.358 C 30.133 318.889 32.215 317.938 34.435 317.619 C 36.655 317.300 38.920 317.626 40.960 318.557 C 43.001 319.489 44.730 320.988 45.943 322.875 C 47.155 324.761 47.800 326.957 47.800 329.200 Z" stroke="rgb(0,0,255)" stroke-width="0.20" />
  <path d="M 46.500 341.200 C 46.500 341.373 46.450 341.541 46.357 341.687 C 46.264 341.832 46.131 341.947 45.974 342.019 C 45.817 342.090 45.643 342.115 45.472 342.091 C 45.301 342.066 45.141 341.993 45.011 341.880 C 44.880 341.767 44.785 341.619 44.736 341.454 C 44.688 341.288 44.688 341.112 44.736 340.946 C 44.785 340.781 44.880 340.633 45.011 340.520 C 45.141 340.407 45.301 340.334 45.472 340.309 C 45.643 340.285 45.817 340.310 45.974 340.381 C 46.131 340.453 46.264 340.568 46.357 340.713 C 46.450 340.859 46.500 341.027 46.500 341.200 Z" stroke="rgb(0,0,255)" stroke-width="0.20" />
  <path d="M 59.500 317.200 C 59.500 317.373 59.450 317.541 59.357 317.687 C 59.264 317.832 59.131 317.947 58.974 318.019 C 58.817 318.090 58.643 318.115 58.472 318.091 C 58.301 318.066 58.141 317.993 58.011 317.880 C 57.880 317.767 57.785 317.619 57.736 317.454 C 57.688 317.288 57.688 317.112 57.736 316.946 C 57.785 316.781 57.880 316.633 58.011 316.520 C 58.141 316.407 58.301 316.334 58.472 316.309 C 58.643 316.285 58.817 316.310 58.974 316.381 C 59.131 316.453 59.264 316.568 59.357 316.713 C 59.450 316.859 59.500 317.027 59.500 317.200 Z" stroke="rgb(0,0,255)" stroke-width="0.20" />
  <path d="M 79.800 329.200 C 79.800 331.443 79.155 333.639 77.943 335.525 C 76.730 337.412 75.001 338.911 72.960 339.843 C 70.920 340.774 68.655 341.100 66.435 340.781 C 64.215 340.462 62.133 339.511 60.438 338.042 C 58.743 336.573 57.506 334.648 56.874 332.496 C 56.242 330.344 56.242 328.056 56.874 325.904 C 57.506 323.752 58.743 321.827 60.438 320.358 C 62.133 318.889 64.215 317.938 66.435 317.619 C 68.655 317.300 70.920 317.626 72.960 318.557 C 75.001 319.489 76.730 320.988 77.943 322.875 C 79.155 324.761 79.800 326.957 79.800 329.200 Z" stroke="rgb(0,0,255)" stroke-width="0.20" />
  <path d="M 78.500 341.200 C 78.500 341.373 78.450 341.541 78.357 341.687 C 78.264 341.832 78.131 341.947 77.974 342.019 C 77.817 342.090 77.643 342.115 77.472 342.091 C 77.301 342.066 77.141 341.993 77.011 341.880 C 76.880 341.767 76.785 341.619 76.736 341.454 C 76.688 341.288 76.688 341.112 76.736 340.946 C 76.785 340.781 76.880 340.633 77.011 340.520 C 77.141 340.407 77.301 340.334 77.472 340.309 C 77.643 340.285 77.817 340.310 77.974 340.381 C 78.131 340.453 78.264 340.568 78.357 340.713 C 78.450 340.859 78.500 341.027 78.500 341.200 Z" stroke="rgb(0,0,255)" stroke-width="0.20" />
  <path d="M 90.900 329.200 C 90.900 329.373 90.850 329.541 90.757 329.687 C 90.664 329.832 90.531 329.947 90.374 330.019 C 90.217 330.090 90.043 330.115 89.872 330.091 C 89.701 330.066 89.541 329.993 89.411 329.880 C 89.280 329.767 89.185 329.619 89.136 329.454 C 89.088 329.288 89.088 329.112 89.136 328.946 C 89.185 328.781 89.280 328.633 89.411 328.520 C 89.541 328.407 89.701 328.334 89.872 328.309 C 90.043 328.285 90.217 328.310 90.374 328.381 C 90.531 328.453 90.664 328.568 90.757 328.713 C 90.850 328.859 90.900 329.027 90.900 329.200 Z" stroke="rgb(0,0,255)" stroke-width="0.20" />
  <path d="M 108.500 329.200 C 108.500 330.619 108.092 332.007 107.325 333.201 C 106.558 334.394 105.464 335.342 104.174 335.931 C 102.884 336.521 101.451 336.727 100.047 336.525 C 98.643 336.323 97.326 335.722 96.254 334.793 C 95.182 333.864 94.399 332.646 94.000 331.285 C 93.600 329.924 93.600 328.476 94.000 327.115 C 94.399 325.754 95.182 324.536 96.254 323.607 C 97.326 322.678 98.643 322.077 100.047 321.875 C 101.451 321.673 102.884 321.879 104.174 322.469 C 105.464 323.058 106.558 324.006 107.325 325.199 C 108.092 326.393 108.500 327.781 108.500 329.200 Z" stroke="rgb(0,0,255)" stroke-width="0.20" />
  <path d="M 113.100 329.200 C 113.100 329.373 113.050 329.541 112.957 329.687 C 112.864 329.832 112.731 329.947 112.574 330.019 C 112.417 330.090 112.243 330.115 112.072 330.091 C 111.901 330.066 111.741 329.993 111.611 329.880 C 111.480 329.767 111.385 329.619 111.336 329.454 C 111.288 329.288 111.288 329.112 111.336 328.946 C 111.385 328.781 111.480 328.633 111.611 328.520 C 111.741 328.407 111.901 328.334 112.072 328.309 C 112.243 328.285 112.417 328.310 112.574 328.381 C 112.731 328.453 112.864 328.568 112.957 328.713 C 113.050 328.859 113.100 329.027 113.100 329.200 Z" stroke="rgb(0,0,255)" stroke-width="0.20" />
  <path d="M 129.100 334.600 H 124.700 C 124.600 334.600 124.700 334.700 124.700 334.600 V 323.800 C 124.700 323.700 124.600 323.800 124.700 323.800 H 133.500 C 133.600 323.800 133.500 323.700 133.500 323.800 V 334.600 C 133.500 334.700 133.600 334.600 133.500 334.600 H 129.100 Z" stroke="rgb(0,0,255)" stroke-width="0.20" />
  <path d="M 146.250 329.200 C 146.250 329.804 146.076 330.395 145.750 330.903 C 145.423 331.411 144.958 331.814 144.409 332.065 C 143.859 332.316 143.249 332.404 142.652 332.318 C 142.054 332.232 141.494 331.976 141.037 331.581 C 140.581 331.185 140.248 330.667 140.078 330.087 C 139.907 329.508 139.907 328.892 140.078 328.313 C 140.248 327.733 140.581 327.215 141.037 326.819 C 141.494 326.424 142.054 326.168 142.652 326.082 C 143.249 325.996 143.859 326.084 144.409 326.335 C 144.958 326.586 145.423 326.989 145.750 327.497 C 146.076 328.005 146.250 328.596 146.250 329.200 Z" stroke="rgb(0,0,255)" stroke-width="0.20" />
  <path d="M 153.500 317.200 C 153.500 317.373 153.450 317.541 153.357 317.687 C 153.264 317.832 153.131 317.947 152.974 318.019 C 152.817 318.090 152.643 318.115 152.472 318.091 C 152.301 318.066 152.141 317.993 152.011 317.880 C 151.880 317.767 151.785 317.619 151.736 317.454 C 151.688 317.288 151.688 317.112 151.736 316.946 C 151.785 316.781 151.880 316.633 152.011 316.520 C 152.141 316.407 152.301 316.334 152.472 316.309 C 152.643 316.285 152.817 316.310 152.974 316.381 C 153.131 316.453 153.264 316.568 153.357 316.713 C 153.450 316.859 153.500 317.027 153.500 317.200 Z" stroke="rgb(0,0,255)" stroke-width="0.20" />
  <path d="M 173.800 329.200 C 173.800 331.443 173.155 333.639 171.943 335.525 C 170.730 337.412 169.001 338.911 166.960 339.843 C 164.920 340.774 162.655 341.100 160.435 340.781 C 158.215 340.462 156.133 339.511 154.438 338.042 C 152.743 336.573 151.506 334.648 150.874 332.496 C 150.242 330.344 150.242 328.056 150.874 325.904 C 151.506 323.752 152.743 321.827 154.438 320.358 C 156.133 318.889 158.215 317.938 160.435 317.619 C 162.655 317.300 164.920 317.626 166.960 318.557 C 169.001 319.489 170.730 320.988 171.943 322.875 C 173.155 324.761 173.800 326.957 173.800 329.200 Z" stroke="rgb(0,0,255)" stroke-width="0.20" />
  <path d="M 172.500 341.200 C 172.500 341.373 172.450 341.541 172.357 341.687 C 172.264 341.832 172.131 341.947 171.974 342.019 C 171.817 342.090 171.643 342.115 171.472 342.091 C 171.301 342.066 171.141 341.993 171.011 341.880 C 170.880 341.767 170.785 341.619 170.736 341.454 C 170.688 341.288 170.688 341.112 170.736 340.946 C 170.785 340.781 170.880 340.633 171.011 340.520 C 171.141 340.407 171.301 340.334 171.472 340.309 C 171.643 340.285 171.817 340.310 171.974 340.381 C 172.131 340.453 172.264 340.568 172.357 340.713 C 172.450 340.859 172.500 341.027 172.500 341.200 Z" stroke="rgb(0,0,255)" stroke-width="0.20" />
  <path d="M 10.100 349.300 H 13.100 H 22.600 C 22.655 349.300 22.700 349.255 22.700 349.200 V 346.300 C 22.700 346.200 22.600 346.300 22.700 346.300 H 28.500 C 28.600 346.300 28.500 346.200 28.500 346.300 V 349.200 C 28.500 349.255 28.545 349.300 28.600 349.300 H 34.600 C 34.655 349.300 34.700 349.255 34.700 349.200 V 346.300 C 34.700 346.200 34.600 346.300 34.700 346.300 H 40.500 C 40.600 346.300 40.500 346.200 40.500 346.300 V 349.200 C 40.500 349.255 40.545 349.300 40.600 349.300 H 46.600 C 46.655 349.300 46.700 349.255 46.700 349.200 V 346.300 C 46.700 346.200 46.600 346.300 46.700 346.300 H 52.500 C 52.600 346.300 52.500 346.200 52.500 346.300 V 349.200 C 52.500 349.255 52.545 349.300 52.600 349.300 H 58.600 C 58.655 349.300 58.700 349.255 58.700 349.200 V 346.300 C 58.700 346.200 58.600 346.300 58.700 346.300 H 64.500 C 64.600 346.300 64.500 346.200 64.500 346.300 V 349.200 C 64.500 349.255 64.545 349.300 64.600 349.300 H 70.600 C 70.655 349.300 70.700 349.255 70.700 349.200 V 346.300 C 70.700 346.200 70.600 346.300 70.700 346.300 H 76.500 C 76.600 346.300 76.500 346.200 76.500 346.300 V 349.200 C 76.500 349.255 76.545 349.300 76.600 349.300 H 82.600 C 82.655 349.300 82.700 349.255 82.700 349.200 V 346.300 C 82.700 346.200 82.600 346.300 82.700 346.300 H 88.500 C 88.600 346.300 88.500 346.200 88.500 346.300 V 349.200 C 88.500 349.255 88.545 349.300 88.600 349.300 H 94.600 C 94.655 349.300 94.700 349.255 94.700 349.200 V 346.300 C 94.700 346.200 94.600 346.300 94.700 346.300 H 100.500 C 100.600 346.300 100.500 346.200 100.500 346.300 V 349.200 C 100.500 349.255 100.545 349.300 100.600 349.300 H 106.600 C 106.655 349.300 106.700 349.255 106.700 349.200 V 346.300 C 106.700 346.200 106.600 346.300 106.700 346.300 H 112.500 C 112.600 346.300 112.500 346.200 112.500 346.300 V 349.200 C 112.500 349.255 112.545 349.300 112.600 349.300 H 118.600 C 118.655 349.300 118.700 349.255 118.700 349.200 V 346.300 C 118.700 346.200 118.600 346.300 118.700 346.300 H 124.500 C 124.600 346.300 124.500 346.200 124.500 346.300 V 349.200 C 124.500 349.255 124.545 349.300 124.600 349.300 H 130.600 C 130.655 349.300 130.700 349.255 130.700 349.200 V 346.300 C 130.700 346.200 130.600 346.300 130.700 346.300 H 136.500 C 136.600 346.300 136.500 346.200 136.500 346.300 V 349.200 C 136.500 349.255 136.545 349.300 136.600 349.300 H 142.600 C 142.655 349.300 142.700 349.255 142.700 349.200 V 346.300 C 142.700 346.200 142.600 346.300 142.700 346.300 H 148.500 C 148.600 346.300 148.500 346.200 148.500 346.300 V 349.200 C 148.500 349.255 148.545 349.300 148.600 349.300 H 154.600 C 154.655 349.300 154.700 349.255 154.700 349.200 V 346.300 C 154.700 346.200 154.600 346.300 154.700 346.300 H 160.500 C 160.600 346.300 160.500 346.200 160.500 346.300 V 349.200 C 160.500 349.255 160.545 349.300 160.600 349.300 H 166.600 C 166.655 349.300 166.700 349.255 166.700 349.200 V 346.300 C 166.700 346.200 166.600 346.300 166.700 346.300 H 172.500 C 172.600 346.300 172.500 346.200 172.500 346.300 V 349.200 C 172.500 349.255 172.545 349.300 172.600 349.300 H 178.600 C 178.655 349.300 178.700 349.255 178.700 349.200 V 346.300 C 178.700 346.200 178.600 346.300 178.700 346.300 H 184.500 C 184.600 346.300 184.500 346.200 184.500 346.300 V 349.200 C 184.500 349.255 184.545 349.300 184.600 349.300 H 190.600 C 190.655 349.300 190.700 349.255 190.700 349.200 V 346.300 C 190.700 346.200 190.600 346.300 190.700 346.300 H 196.500 C 196.600 346.300 196.500 346.200 196.500 346.300 V 349.200 C 196.500 349.255 196.545 349.300 196.600 349.300 H 202.600 C 202.655 349.300 202.700 349.255 202.700 349.200 V 346.300 C 202.700 346.200 202.600 346.300 202.700 346.300 H 208.500 C 208.600 346.300 208.500 346.200 208.500 346.300 V 349.200 C 208.500 349.255 208.545 349.300 208.600 349.300 H 214.600 C 214.655 349.300 214.700 349.255 214.700 349.200 V 346.300 C 214.700 346.200 214.600 346.300 214.700 346.300 H 220.500 C 220.600 346.300 220.500 346.200 220.500 346.300 V 349.200 C 220.500 349.255 220.545 349.300 220.600 349.300 H 230.100 H 247.100 C 247.644 349.300 248.179 349.157 248.650 348.885 C 249.121 348.613 249.513 348.221 249.785 347.750 C 250.057 347.279 250.200 346.744 250.200 346.200 V 312.200 C 250.200 311.656 250.057 311.121 249.785 310.650 C 249.513 310.179 249.121 309.787 248.650 309.515 C 248.179 309.243 247.644 309.100 247.100 309.100 H 230.100 H 220.600 C 220.545 309.100 220.500 309.145 220.500 309.200 V 312.100 C 220.500 312.200 220.600 312.100 220.500 312.100 H 214.700 C 214.600 312.100 214.700 312.200 214.700 312.100 V 309.200 C 214.700 309.145 214.655 309.100 214.600 309.100 H 208.600 C 208.545 309.100 208.500 309.145 208.500 309.200 V 312.100 C 208.500 312.200 208.600 312.100 208.500 312.100 H 202.700 C 202.600 312.100 202.700 312.200 202.700 312.100 V 309.200 C 202.700 309.145 202.655 309.100 202.600 309.100 H 196.600 C 196.545 309.100 196.500 309.145 196.500 309.200 V 312.100 C 196.500 312.200 196.600 312.100 196.500 312.100 H 190.700 C 190.600 312.100 190.700 312.200 190.700 312.100 V 309.200 C 190.700 309.145 190.655 309.100 190.600 309.100 H 184.600 C 184.545 309.100 184.500 309.145 184.500 309.200 V 312.100 C 184.500 312.200 184.600 312.100 184.500 312.100 H 178.700 C 178.600 312.100 178.700 312.200 178.700 312.100 V 309.200 C 178.700 309.145 178.655 309.100 178.600 309.100 H 172.600 C 172.545 309.100 172.500 309.145 172.500 309.200 V 312.100 C 172.500 312.200 172.600 312.100 172.500 312.100 H 166.700 C 166.600 312.100 166.700 312.200 166.700 312.100 V 309.200 C 166.700 309.145 166.655 309.100 166.600 309.100 H 160.600 C 160.545 309.100 160.500 309.145 160.500 309.200 V 312.100 C 160.500 312.200 160.600 312.100 160.500 312.100 H 154.700 C 154.600 312.100 154.700 312.200 154.700 312.100 V 309.200 C 154.700 309.145 154.655 309.100 154.600 309.100 H 148.600 C 148.545 309.100 148.500 309.145 148.500 309.200 V 312.100 C 148.500 312.200 148.600 312.100 148.500 312.100 H 142.700 C 142.600 312.100 142.700 312.200 142.700 312.100 V 309.200 C 142.700 309.145 142.655 309.100 142.600 309.100 H 136.600 C 136.545 309.100 136.500 309.145 136.500 309.200 V 312.100 C 136.500 312.200 136.600 312.100 136.500 312.100 H 130.700 C 130.600 312.100 130.700 312.200 130.700 312.100 V 309.200 C 130.700 309.145 130.655 309.100 130.600 309.100 H 124.600 C 124.545 309.100 124.500 309.145 124.500 309.200 V 312.100 C 124.500 312.200 124.600 312.100 124.500 312.100 H 118.700 C 118.600 312.100 118.700 312.200 118.700 312.100 V 309.200 C 118.700 309.145 118.655 309.100 118.600 309.100 H 112.600 C 112.545 309.100 112.500 309.145 112.500 309.200 V 312.100 C 112.500 312.200 112.600 312.100 112.500 312.100 H 106.700 C 106.600 312.100 106.700 312.200 106.700 312.100 V 309.200 C 106.700 309.145 106.655 309.100 106.600 309.100 H 100.600 C 100.545 309.100 100.500 309.145 100.500 309.200 V 312.100 C 100.500 312.200 100.600 312.100 100.500 312.100 H 94.700 C 94.600 312.100 94.700 312.200 94.700 312.100 V 309.200 C 94.700 309.145 94.655 309.100 94.600 309.100 H 88.600 C 88.545 309.100 88.500 309.145 88.500 309.200 V 312.100 C 88.500 312.200 88.600 312.100 88.500 312.100 H 82.700 C 82.600 312.100 82.700 312.200 82.700 312.100 V 309.200 C 82.700 309.145 82.655 309.100 82.600 309.100 H 76.600 C 76.545 309.100 76.500 309.145 76.500 309.200 V 312.100 C 76.500 312.200 76.600 312.100 76.500 312.100 H 70.700 C 70.600 312.100 70.700 312.200 70.700 312.100 V 309.200 C 70.700 309.145 70.655 309.100 70.600 309.100 H 64.600 C 64.545 309.100 64.500 309.145 64.500 309.200 V 312.100 C 64.500 312.200 64.600 312.100 64.500 312.100 H 58.700 C 58.600 312.100 58.700 312.200 58.700 312.100 V 309.200 C 58.700 309.145 58.655 309.100 58.600 309.100 H 52.600 C 52.545 309.100 52.500 309.145 52.500 309.200 V 312.100 C 52.500 312.200 52.600 312.100 52.500 312.100 H 46.700 C 46.600 312.100 46.700 312.200 46.700 312.100 V 309.200 C 46.700 309.145 46.655 309.100 46.600 309.100 H 40.600 C 40.545 309.100 40.500 309.145 40.500 309.200 V 312.100 C 40.500 312.200 40.600 312.100 40.500 312.100 H 34.700 C 34.600 312.100 34.700 312.200 34.700 312.100 V 309.200 C 34.700 309.145 34.655 309.100 34.600 309.100 H 28.600 C 28.545 309.100 28.500 309.145 28.500 309.200 V 312.100 C 28.500 312.200 28.600 312.100 28.500 312.100 H 22.700 C 22.600 312.100 22.700 312.200 22.700 312.100 V 309.200 C 22.700 309.145 22.655 309.100 22.600 309.100 H 13.100 H 10.100 C 10.045 309.100 10.000 309.145 10.000 309.200 V 312.200 V 320.200 C 10.000 320.255 10.045 320.300 10.100 320.300 H 13.000 C 13.100 320.300 13.000 320.200 13.000 320.300 V 326.100 C 13.000 326.200 13.100 326.100 13.000 326.100 H 10.100 C 10.045 326.100 10.000 326.145 10.000 326.200 V 332.200 C 10.000 332.255 10.045 332.300 10.100 332.300 H 13.000 C 13.100 332.300 13.000 332.200 13.000 332.300 V 338.100 C 13.000 338.200 13.100 338.100 13.000 338.100 H 10.100 C 10.045 338.100 10.000 338.145 10.000 338.200 V 346.200 V 349.200 C 10.000 349.255 10.045 349.300 10.100 349.300 Z" stroke="rgb(0,0,0)" stroke-width="0.20" />
  <path d="M 243.250 340.200 V 341.950 C 243.250 342.503 243.104 343.046 242.828 343.525 C 242.552 344.004 242.154 344.402 241.675 344.678 C 241.196 344.954 240.653 345.100 240.100 345.100 C 239.547 345.100 239.004 344.954 238.525 344.678 C 238.046 344.402 237.648 344.004 237.372 343.525 C 237.096 343.046 236.950 342.503 236.950 341.950 V 338.450 C 236.950 337.897 237.096 337.354 237.372 336.875 C 237.648 336.396 238.046 335.998 238.525 335.722 C 239.004 335.446 239.547 335.300 240.100 335.300 C 240.653 335.300 241.196 335.446 241.675 335.722 C 242.154 335.998 242.552 336.396 242.828 336.875 C 243.104 337.354 243.250 337.897 243.250 338.450 V 340.200 Z" stroke="rgb(0,0,255)" stroke-width="0.20" />
  <path d="M 243.250 318.200 V 319.950 C 243.250 320.503 243.104 321.046 242.828 321.525 C 242.552 322.004 242.154 322.402 241.675 322.678 C 241.196 322.954 240.653 323.100 240.100 323.100 C 239.547 323.100 239.004 322.954 238.525 322.678 C 238.046 322.402 237.648 322.004 237.372 321.525 C 237.096 321.046 236.950 320.503 236.950 319.950 V 316.450 C 236.950 315.897 237.096 315.354 237.372 314.875 C 237.648 314.396 238.046 313.998 238.525 313.722 C 239.004 313.446 239.547 313.300 240.100 313.300 C 240.653 313.300 241.196 313.446 241.675 313.722 C 242.154 313.998 242.552 314.396 242.828 314.875 C 243.104 315.354 243.250 315.897 243.250 316.450 V 318.200 Z" stroke="rgb(0,0,255)" stroke-width="0.20" />
  <path d="M 233.100 335.200 V 338.100 C 233.100 338.200 233.200 338.100 233.100 338.100 H 230.300 C 230.200 338.100 230.300 338.200 230.300 338.100 V 332.300 C 230.300 332.200 230.200 332.300 230.300 332.300 H 233.100 C 233.200 332.300 233.100 332.200 233.100 332.300 V 335.200 Z" stroke="rgb(0,0,255)" stroke-width="0.20" />
  <path d="M 233.100 323.200 V 326.100 C 233.100 326.200 233.200 326.100 233.100 326.100 H 230.300 C 230.200 326.100 230.300 326.200 230.300 326.100 V 320.300 C 230.300 320.200 230.200 320.300 230.300 320.300 H 233.100 C 233.200 320.300 233.100 320.200 233.100 320.300 V 323.200 Z" stroke="rgb(0,0,255)" stroke-width="0.20" />
</g>
<g id="p-2" style="fill:none;stroke-linecap:round;stroke-linejoin:round;">
  <path d="M 13.100 304.600 H 22.500 C 22.600 304.600 22.500 304.500 22.500 304.600 V 307.500 C 22.500 307.555 22.545 307.600 22.600 307.600 H 28.600 C 28.655 307.600 28.700 307.555 28.700 307.500 V 304.600 C 28.700 304.500 28.600 304.600 28.700 304.600 H 34.500 C 34.600 304.600 34.500 304.500 34.500 304.600 V 307.500 C 34.500 307.555 34.545 307.600 34.600 307.600 H 40.600 C 40.655 307.600 40.700 307.555 40.700 307.500 V 304.600 C 40.700 304.500 40.600 304.600 40.700 304.600 H 46.500 C 46.600 304.600 46.500 304.500 46.500 304.600 V 307.500 C 46.500 307.555 46.545 307.600 46.600 307.600 H 52.600 C 52.655 307.600 52.700 307.555 52.700 307.500 V 304.600 C 52.700 304.500 52.600 304.600 52.700 304.600 H 58.500 C 58.600 304.600 58.500 304.500 58.500 304.600 V 307.500 C 58.500 307.555 58.545 307.600 58.600 307.600 H 64.600 C 64.655 307.600 64.700 307.555 64.700 307.500 V 304.600 C 64.700 304.500 64.600 304.600 64.700 304.600 H 70.500 C 70.600 304.600 70.500 304.500 70.500 304.600 V 307.500 C 70.500 307.555 70.545 307.600 70.600 307.600 H 76.600 C 76.655 307.600 76.700 307.555 76.700 307.500 V 304.600 C 76.700 304.500 76.600 304.600 76.700 304.600 H 82.500 C 82.600 304.600 82.500 304.500 82.500 304.600 V 307.500 C 82.500 307.555 82.545 307.600 82.600 307.600 H 88.600 C 88.655 307.600 88.700 307.555 88.700 307.500 V 304.600 C 88.700 304.500 88.600 304.600 88.700 304.600 H 94.500 C 94.600 304.600 94.500 304.500 94.500 304.600 V 307.500 C 94.500 307.555 94.545 307.600 94.600 307.600 H 100.600 C 100.655 307.600 100.700 307.555 100.700 307.500 V 304.600 C 100.700 304.500 100.600 304.600 100.700 304.600 H 106.500 C 106.600 304.600 106.500 304.500 106.500 304.600 V 307.500 C 106.500 307.555 106.545 307.600 106.600 307.600 H 112.600 C 112.655 307.600 112.700 307.555 112.700 307.500 V 304.600 C 112.700 304.500 112.600 304.600 112.700 304.600 H 118.500 C 118.600 304.600 118.500 304.500 118.500 304.600 V 307.500 C 118.500 307.555 118.545 307.600 118.600 307.600 H 124.600 C 124.655 307.600 124.700 307.555 124.700 307.500 V 304.600 C 124.700 304.500 124.600 304.600 124.700 304.600 H 130.500 C 130.600 304.600 130.500 304.500 130.500 304.600 V 307.500 C 130.500 307.555 130.545 307.600 130.600 307.600 H 136.600 C 136.655 307.600 136.700 307.555 136.700 307.500 V 304.600 C 136.700 304.500 136.600 304.600 136.700 304.600 H 142.500 C 142.600 304.600 142.500 304.500 142.500 304.600 V 307.500 C 142.500 307.555 142.545 307.600 142.600 307.600 H 148.600 C 148.655 307.600 148.700 307.555 148.700 307.500 V 304.600 C 148.700 304.500 148.600 304.600 148.700 304.600 H 154.500 C 154.600 304.600 154.500 304.500 154.500 304.600 V 307.500 C 154.500 307.555 154.545 307.600 154.600 307.600 H 160.600 C 160.655 307.600 160.700 307.555 160.700 307.500 V 304.600 C 160.700 304.500 160.600 304.600 160.700 304.600 H 166.500 C 166.600 304.600 166.500 304.500 166.500 304.600 V 307.500 C 166.500 307.555 166.545 307.600 166.600 307.600 H 172.600 C 172.655 307.600 172.700 307.555 172.700 307.500 V 304.600 C 172.700 304.500 172.600 304.600 172.700 304.600 H 178.500 C 178.600 304.600 178.500 304.500 178.500 304.600 V 307.500 C 178.500 307.555 178.545 307.600 178.600 307.600 H 184.600 C 184.655 307.600 184.700 307.555 184.700 307.500 V 304.600 C 184.700 304.500 184.600 304.600 184.700 304.600 H 190.500 C 190.600 304.600 190.500 304.500 190.500 304.600 V 307.500 C 190.500 307.555 190.545 307.600 190.600 307.600 H 196.600 C 196.655 307.600 196.700 307.555 196.700 307.500 V 304.600 C 196.700 304.500 196.600 304.600 196.700 304.600 H 202.500 C 202.600 304.600 202.500 304.500 202.500 304.600 V 307.500 C 202.500 307.555 202.545 307.600 202.600 307.600 H 208.600 C 208.655 307.600 208.700 307.555 208.700 307.500 V 304.600 C 208.700 304.500 208.600 304.600 208.700 304.600 H 214.500 C 214.600 304.600 214.500 304.500 214.500 304.600 V 307.500 C 214.500 307.555 214.545 307.600 214.600 307.600 H 220.600 C 220.655 307.600 220.700 307.555 220.700 307.500 V 304.600 C 220.700 304.500 220.600 304.600 220.700 304.600 H 230.100 H 233.100 C 233.155 304.600 233.200 304.555 233.200 304.500 V 297.500 C 233.200 297.445 233.155 297.400 233.100 297.400 H 230.200 C 230.100 297.400 230.200 297.500 230.200 297.400 V 291.600 C 230.200 291.500 230.100 291.600 230.200 291.600 H 233.100 C 233.155 291.600 233.200 291.555 233.200 291.500 V 284.500 C 233.200 284.445 233.155 284.400 233.100 284.400 H 230.123 C 230.100 284.400 230.143 284.410 230.123 284.400 L 13.143 180.410 C 13.130 180.403 13.115 180.400 13.100 180.400 H 10.100 C 10.045 180.400 10.000 180.445 10.000 180.500 V 191.500 C 10.000 191.555 10.045 191.600 10.100 191.600 H 13.000 C 13.100 191.600 13.000 191.500 13.000 191.600 V 197.400 C 13.000 197.500 13.100 197.400 13.000 197.400 H 10.100 C 10.045 197.400 10.000 197.445 10.000 197.500 V 203.500 C 10.000 203.555 10.045 203.600 10.100 203.600 H 13.000 C 13.100 203.600 13.000 203.500 13.000 203.600 V 209.400 C 13.000 209.500 13.100 209.400 13.000 209.400 H 10.100 C 10.045 209.400 10.000 209.445 10.000 209.500 V 215.500 C 10.000 215.555 10.045 215.600 10.100 215.600 H 13.000 C 13.100 215.600 13.000 215.500 13.000 215.600 V 221.400 C 13.000 221.500 13.100 221.400 13.000 221.400 H 10.100 C 10.045 221.400 10.000 221.445 10.000 221.500 V 227.500 C 10.000 227.555 10.045 227.600 10.100 227.600 H 13.000 C 13.100 227.600 13.000 227.500 13.000 227.600 V 233.400 C 13.000 233.500 13.100 233.400 13.000 233.400 H 10.100 C 10.045 233.400 10.000 233.445 10.000 233.500 V 239.500 C 10.000 239.555 10.045 239.600 10.100 239.600 H 13.000 C 13.100 239.600 13.000 239.500 13.000 239.600 V 245.400 C 13.000 245.500 13.100 245.400 13.000 245.400 H 10.100 C 10.045 245.400 10.000 245.445 10.000 245.500 V 251.500 C 10.000 251.555 10.045 251.600 10.100 251.600 H 13.000 C 13.100 251.600 13.000 251.500 13.000 251.600 V 257.400 C 13.000 257.500 13.100 257.400 13.000 257.400 H 10.100 C 10.045 257.400 10.000 257.445 10.000 257.500 V 263.500 C 10.000 263.555 10.045 263.600 10.100 263.600 H 13.000 C 13.100 263.600 13.000 263.500 13.000 263.600 V 269.400 C 13.000 269.500 13.100 269.400 13.000 269.400 H 10.100 C 10.045 269.400 10.000 269.445 10.000 269.500 V 275.500 C 10.000 275.555 10.045 275.600 10.100 275.600 H 13.000 C 13.100 275.600 13.000 275.500 13.000 275.600 V 281.400 C 13.000 281.500 13.100 281.400 13.000 281.400 H 10.100 C 10.045 281.400 10.000 281.445 10.000 281.500 V 287.500 C 10.000 287.555 10.045 287.600 10.100 287.600 H 13.000 C 13.100 287.600 13.000 287.500 13.000 287.600 V 293.400 C 13.000 293.500 13.100 293.400 13.000 293.400 H 10.100 C 10.045 293.400 10.000 293.445 10.000 293.500 V 304.500 C 10.000 304.555 10.045 304.600 10.100 304.600 H 13.100 Z" stroke="rgb(0,0,0)" stroke-width="0.20" />
</g>
<g id="p-3" style="fill:none;stroke-linecap:round;stroke-linejoin:round;">
  <path d="M 13.100 175.900 H 22.500 C 22.600 175.900 22.500 175.800 22.500 175.900 V 178.800 C 22.500 178.855 22.545 178.900 22.600 178.900 H 28.600 C 28.655 178.900 28.700 178.855 28.700 178.800 V 175.900 C 28.700 175.800 28.600 175.900 28.700 175.900 H 34.500 C 34.600 175.900 34.500 175.800 34.500 175.900 V 178.800 C 34.500 178.855 34.545 178.900 34.600 178.900 H 40.600 C 40.655 178.900 40.700 178.855 40.700 178.800 V 175.900 C 40.700 175.800 40.600 175.900 40.700 175.900 H 46.500 C 46.600 175.900 46.500 175.800 46.500 175.900 V 178.800 C 46.500 178.855 46.545 178.900 46.600 178.900 H 52.600 C 52.655 178.900 52.700 178.855 52.700 178.800 V 175.900 C 52.700 175.800 52.600 175.900 52.700 175.900 H 58.500 C 58.600 175.900 58.500 175.800 58.500 175.900 V 178.800 C 58.500 178.855 58.545 178.900 58.600 178.900 H 64.600 C 64.655 178.900 64.700 178.855 64.700 178.800 V 175.900 C 64.700 175.800 64.600 175.900 64.700 175.900 H 70.500 C 70.600 175.900 70.500 175.800 70.500 175.900 V 178.800 C 70.500 178.855 70.545 178.900 70.600 178.900 H 76.600 C 76.655 178.900 76.700 178.855 76.700 178.800 V 175.900 C 76.700 175.800 76.600 175.900 76.700 175.900 H 82.500 C 82.600 175.900 82.500 175.800 82.500 175.900 V 178.800 C 82.500 178.855 82.545 178.900 82.600 178.900 H 88.600 C 88.655 178.900 88.700 178.855 88.700 178.800 V 175.900 C 88.700 175.800 88.600 175.900 88.700 175.900 H 94.500 C 94.600 175.900 94.500 175.800 94.500 175.900 V 178.800 C 94.500 178.855 94.545 178.900 94.600 178.900 H 100.600 C 100.655 178.900 100.700 178.855 100.700 178.800 V 175.900 C 100.700 175.800 100.600 175.900 100.700 175.900 H 106.500 C 106.600 175.900 106.500 175.800 106.500 175.900 V 178.800 C 106.500 178.855 106.545 178.900 106.600 178.900 H 112.600 C 112.655 178.900 112.700 178.855 112.700 178.800 V 175.900 C 112.700 175.800 112.600 175.900 112.700 175.900 H 118.500 C 118.600 175.900 118.500 175.800 118.500 175.900 V 178.800 C 118.500 178.855 118.545 178.900 118.600 178.900 H 124.600 C 124.655 178.900 124.700 178.855 124.700 178.800 V 175.900 C 124.700 175.800 124.600 175.900 124.700 175.900 H 130.500 C 130.600 175.900 130.500 175.800 130.500 175.900 V 178.800 C 130.500 178.855 130.545 178.900 130.600 178.900 H 136.600 C 136.655 178.900 136.700 178.855 136.700 178.800 V 175.900 C 136.700 175.800 136.600 175.900 136.700 175.900 H 142.500 C 142.600 175.900 142.500 175.800 142.500 175.900 V 178.800 C 142.500 178.855 142.545 178.900 142.600 178.900 H 148.600 C 148.655 178.900 148.700 178.855 148.700 178.800 V 175.900 C 148.700 175.800 148.600 175.900 148.700 175.900 H 154.500 C 154.600 175.900 154.500 175.800 154.500 175.900 V 178.800 C 154.500 178.855 154.545 178.900 154.600 178.900 H 160.600 C 160.655 178.900 160.700 178.855 160.700 178.800 V 175.900 C 160.700 175.800 160.600 175.900 160.700 175.900 H 166.500 C 166.600 175.900 166.500 175.800 166.500 175.900 V 178.800 C 166.500 178.855 166.545 178.900 166.600 178.900 H 172.600 C 172.655 178.900 172.700 178.855 172.700 178.800 V 175.900 C 172.700 175.800 172.600 175.900 172.700 175.900 H 178.500 C 178.600 175.900 178.500 175.800 178.500 175.900 V 178.800 C 178.500 178.855 178.545 178.900 178.600 178.900 H 184.600 C 184.655 178.900 184.700 178.855 184.700 178.800 V 175.900 C 184.700 175.800 184.600 175.900 184.700 175.900 H 190.500 C 190.600 175.900 190.500 175.800 190.500 175.900 V 178.800 C 190.500 178.855 190.545 178.900 190.600 178.900 H 196.600 C 196.655 178.900 196.700 178.855 196.700 178.800 V 175.900 C 196.700 175.800 196.600 175.900 196.700 175.900 H 202.500 C 202.600 175.900 202.500 175.800 202.500 175.900 V 178.800 C 202.500 178.855 202.545 178.900 202.600 178.900 H 208.600 C 208.655 178.900 208.700 178.855 208.700 178.800 V 175.900 C 208.700 175.800 208.600 175.900 208.700 175.900 H 214.500 C 214.600 175.900 214.500 175.800 214.500 175.900 V 178.800 C 214.500 178.855 214.545 178.900 214.600 178.900 H 220.600 C 220.655 178.900 220.700 178.855 220.700 178.800 V 175.900 C 220.700 175.800 220.600 175.900 220.700 175.900 H 230.100 H 233.100 C 233.155 175.900 233.200 175.855 233.200 175.800 V 168.800 C 233.200 168.745 233.155 168.700 233.100 168.700 H 230.200 C 230.100 168.700 230.200 168.800 230.200 168.700 V 162.900 C 230.200 162.800 230.100 162.900 230.200 162.900 H 233.100 C 233.155 162.900 233.200 162.855 233.200 162.800 V 155.800 C 233.200 155.745 233.155 155.700 233.100 155.700 H 230.123 C 230.100 155.700 230.143 155.710 230.123 155.700 L 13.143 51.710 C 13.130 51.703 13.115 51.700 13.100 51.700 H 10.100 C 10.045 51.700 10.000 51.745 10.000 51.800 V 62.800 C 10.000 62.855 10.045 62.900 10.100 62.900 H 13.000 C 13.100 62.900 13.000 62.800 13.000 62.900 V 68.700 C 13.000 68.800 13.100 68.700 13.000 68.700 H 10.100 C 10.045 68.700 10.000 68.745 10.000 68.800 V 74.800 C 10.000 74.855 10.045 74.900 10.100 74.900 H 13.000 C 13.100 74.900 13.000 74.800 13.000 74.900 V 80.700 C 13.000 80.800 13.100 80.700 13.000 80.700 H 10.100 C 10.045 80.700 10.000 80.745 10.000 80.800 V 86.800 C 10.000 86.855 10.045 86.900 10.100 86.900 H 13.000 C 13.100 86.900 13.000 86.800 13.000 86.900 V 92.700 C 13.000 92.800 13.100 92.700 13.000 92.700 H 10.100 C 10.045 92.700 10.000 92.745 10.000 92.800 V 98.800 C 10.000 98.855 10.045 98.900 10.100 98.900 H 13.000 C 13.100 98.900 13.000 98.800 13.000 98.900 V 104.700 C 13.000 104.800 13.100 104.700 13.000 104.700 H 10.100 C 10.045 104.700 10.000 104.745 10.000 104.800 V 110.800 C 10.000 110.855 10.045 110.900 10.100 110.900 H 13.000 C 13.100 110.900 13.000 110.800 13.000 110.900 V 116.700 C 13.000 116.800 13.100 116.700 13.000 116.700 H 10.100 C 10.045 116.700 10.000 116.745 10.000 116.800 V 122.800 C 10.000 122.855 10.045 122.900 10.100 122.900 H 13.000 C 13.100 122.900 13.000 122.800 13.000 122.900 V 128.700 C 13.000 128.800 13.100 128.700 13.000 128.700 H 10.100 C 10.045 128.700 10.000 128.745 10.000 128.800 V 134.800 C 10.000 134.855 10.045 134.900 10.100 134.900 H 13.000 C 13.100 134.900 13.000 134.800 13.000 134.900 V 140.700 C 13.000 140.800 13.100 140.700 13.000 140.700 H 10.100 C 10.045 140.700 10.000 140.745 10.000 140.800 V 146.800 C 10.000 146.855 10.045 146.900 10.100 146.900 H 13.000 C 13.100 146.900 13.000 146.800 13.000 146.900 V 152.700 C 13.000 152.800 13.100 152.700 13.000 152.700 H 10.100 C 10.045 152.700 10.000 152.745 10.000 152.800 V 158.800 C 10.000 158.855 10.045 158.900 10.100 158.900 H 13.000 C 13.100 158.900 13.000 158.800 13.000 158.900 V 164.700 C 13.000 164.800 13.100 164.700 13.000 164.700 H 10.100 C 10.045 164.700 10.000 164.745 10.000 164.800 V 175.800 C 10.000 175.855 10.045 175.900 10.100 175.900 H 13.100 Z" stroke="rgb(0,0,0)" stroke-width="0.20" />
</g>
<g id="p-4" style="fill:none;stroke-linecap:round;stroke-linejoin:round;">
  <path d="M 10.100 47.200 H 21.000 C 21.100 47.200 21.000 47.100 21.000 47.200 V 50.100 C 21.000 50.155 21.045 50.200 21.100 50.200 H 27.100 C 27.155 50.200 27.200 50.155 27.200 50.100 V 47.200 C 27.200 47.100 27.100 47.200 27.200 47.200 H 33.000 C 33.100 47.200 33.000 47.100 33.000 47.200 V 50.100 C 33.000 50.155 33.045 50.200 33.100 50.200 H 39.100 C 39.155 50.200 39.200 50.155 39.200 50.100 V 47.200 C 39.200 47.100 39.100 47.200 39.200 47.200 H 45.000 C 45.100 47.200 45.000 47.100 45.000 47.200 V 50.100 C 45.000 50.155 45.045 50.200 45.100 50.200 H 51.100 C 51.155 50.200 51.200 50.155 51.200 50.100 V 47.200 C 51.200 47.100 51.100 47.200 51.200 47.200 H 57.000 C 57.100 47.200 57.000 47.100 57.000 47.200 V 50.100 C 57.000 50.155 57.045 50.200 57.100 50.200 H 63.100 C 63.155 50.200 63.200 50.155 63.200 50.100 V 47.200 C 63.200 47.100 63.100 47.200 63.200 47.200 H 69.000 C 69.100 47.200 69.000 47.100 69.000 47.200 V 50.100 C 69.000 50.155 69.045 50.200 69.100 50.200 H 75.100 C 75.155 50.200 75.200 50.155 75.200 50.100 V 47.200 C 75.200 47.100 75.100 47.200 75.200 47.200 H 81.000 C 81.100 47.200 81.000 47.100 81.000 47.200 V 50.100 C 81.000 50.155 81.045 50.200 81.100 50.200 H 87.100 C 87.155 50.200 87.200 50.155 87.200 50.100 V 47.200 C 87.200 47.100 87.100 47.200 87.200 47.200 H 93.000 C 93.100 47.200 93.000 47.100 93.000 47.200 V 50.100 C 93.000 50.155 93.045 50.200 93.100 50.200 H 99.100 C 99.155 50.200 99.200 50.155 99.200 50.100 V 47.200 C 99.200 47.100 99.100 47.200 99.200 47.200 H 105.000 C 105.100 47.200 105.000 47.100 105.000 47.200 V 50.100 C 105.000 50.155 105.045 50.200 105.100 50.200 H 111.100 C 111.155 50.200 111.200 50.155 111.200 50.100 V 47.200 C 111.200 47.100 111.100 47.200 111.200 47.200 H 117.000 C 117.100 47.200 117.000 47.100 117.000 47.200 V 50.100 C 117.000 50.155 117.045 50.200 117.100 50.200 H 123.100 C 123.155 50.200 123.200 50.155 123.200 50.100 V 47.200 C 123.200 47.100 123.100 47.200 123.200 47.200 H 134.100 C 134.155 47.200 134.200 47.155 134.200 47.100 V 39.200 C 134.200 39.100 134.100 39.200 134.200 39.200 H 137.100 C 137.155 39.200 137.200 39.155 137.200 39.100 V 33.100 C 137.200 33.045 137.155 33.000 137.100 33.000 H 134.200 C 134.100 33.000 134.200 33.100 134.200 33.000 V 27.200 C 134.200 27.100 134.100 27.200 134.200 27.200 H 137.100 C 137.155 27.200 137.200 27.155 137.200 27.100 V 21.100 C 137.200 21.045 137.155 21.000 137.100 21.000 H 134.200 C 134.100 21.000 134.200 21.100 134.200 21.000 V 13.100 C 134.200 13.045 134.155 13.000 134.100 13.000 H 123.200 C 123.100 13.000 123.200 13.100 123.200 13.000 V 10.100 C 123.200 10.045 123.155 10.000 123.100 10.000 H 117.100 C 117.045 10.000 117.000 10.045 117.000 10.100 V 13.000 C 117.000 13.100 117.100 13.000 117.000 13.000 H 111.200 C 111.100 13.000 111.200 13.100 111.200 13.000 V 10.100 C 111.200 10.045 111.155 10.000 111.100 10.000 H 105.100 C 105.045 10.000 105.000 10.045 105.000 10.100 V 13.000 C 105.000 13.100 105.100 13.000 105.000 13.000 H 99.200 C 99.100 13.000 99.200 13.100 99.200 13.000 V 10.100 C 99.200 10.045 99.155 10.000 99.100 10.000 H 93.100 C 93.045 10.000 93.000 10.045 93.000 10.100 V 13.000 C 93.000 13.100 93.100 13.000 93.000 13.000 H 87.200 C 87.100 13.000 87.200 13.100 87.200 13.000 V 10.100 C 87.200 10.045 87.155 10.000 87.100 10.000 H 81.100 C 81.045 10.000 81.000 10.045 81.000 10.100 V 13.000 C 81.000 13.100 81.100 13.000 81.000 13.000 H 75.200 C 75.100 13.000 75.200 13.100 75.200 13.000 V 10.100 C 75.200 10.045 75.155 10.000 75.100 10.000 H 69.100 C 69.045 10.000 69.000 10.045 69.000 10.100 V 13.000 C 69.000 13.100 69.100 13.000 69.000 13.000 H 63.200 C 63.100 13.000 63.200 13.100 63.200 13.000 V 10.100 C 63.200 10.045 63.155 10.000 63.100 10.000 H 57.100 C 57.045 10.000 57.000 10.045 57.000 10.100 V 13.000 C 57.000 13.100 57.100 13.000 57.000 13.000 H 51.200 C 51.100 13.000 51.200 13.100 51.200 13.000 V 10.100 C 51.200 10.045 51.155 10.000 51.100 10.000 H 45.100 C 45.045 10.000 45.000 10.045 45.000 10.100 V 13.000 C 45.000 13.100 45.100 13.000 45.000 13.000 H 39.200 C 39.100 13.000 39.200 13.100 39.200 13.000 V 10.100 C 39.200 10.045 39.155 10.000 39.100 10.000 H 33.100 C 33.045 10.000 33.000 10.045 33.000 10.100 V 13.000 C 33.000 13.100 33.100 13.000 33.000 13.000 H 27.200 C 27.100 13.000 27.200 13.100 27.200 13.000 V 10.100 C 27.200 10.045 27.155 10.000 27.100 10.000 H 21.100 C 21.045 10.000 21.000 10.045 21.000 10.100 V 13.000 C 21.000 13.100 21.100 13.000 21.000 13.000 H 10.100 C 10.045 13.000 10.000 13.045 10.000 13.100 V 47.100 C 10.000 47.155 10.045 47.200 10.100 47.200 Z" stroke="rgb(0,0,0)" stroke-width="0.20" />
</g>
<g id="p-5" style="fill:none;stroke-linecap:round;stroke-linejoin:round;">
  <path d="M 138.800 47.200 H 145.700 C 145.800 47.200 145.700 47.100 145.700 47.200 V 50.100 C 145.700 50.155 145.745 50.200 145.800 50.200 H 151.800 C 151.855 50.200 151.900 50.155 151.900 50.100 V 47.200 C 151.900 47.100 151.800 47.200 151.900 47.200 H 158.800 C 158.855 47.200 158.900 47.155 158.900 47.100 V 39.200 C 158.900 39.100 158.800 39.200 158.900 39.200 H 161.800 C 161.855 39.200 161.900 39.155 161.900 39.100 V 33.100 C 161.900 33.045 161.855 33.000 161.800 33.000 H 158.900 C 158.800 33.000 158.900 33.100 158.900 33.000 V 27.200 C 158.900 27.100 158.800 27.200 158.900 27.200 H 161.800 C 161.855 27.200 161.900 27.155 161.900 27.100 V 21.100 C 161.900 21.045 161.855 21.000 161.800 21.000 H 158.900 C 158.800 21.000 158.900 21.100 158.900 21.000 V 13.100 C 158.900 13.045 158.855 13.000 158.800 13.000 H 151.900 C 151.800 13.000 151.900 13.100 151.900 13.000 V 10.100 C 151.900 10.045 151.855 10.000 151.800 10.000 H 145.800 C 145.745 10.000 145.700 10.045 145.700 10.100 V 13.000 C 145.700 13.100 145.800 13.000 145.700 13.000 H 138.800 C 138.745 13.000 138.700 13.045 138.700 13.100 V 47.100 C 138.700 47.155 138.745 47.200 138.800 47.200 Z" stroke="rgb(0,0,0)" stroke-width="0.20" />
</g>
</svg>