<?xml version='1.0' encoding='utf-8'?>
<svg height="452.34mm" viewBox="0.0 0.0 128.37 452.34" width="128.37mm" xmlns="http://www.w3.org/2000/svg" xmlns:cc="http://creativecommons.org/ns#" xmlns:dc="http://purl.org/dc/elements/1.1/" xmlns:inkscape="http://www.inkscape.org/namespaces/inkscape" xmlns:rdf="http://www.w3.org/1999/02/22-rdf-syntax-ns#" xmlns:svg="http://www.w3.org/2000/svg" xmlns:xlink="http://www.w3.org/1999/xlink">
<!--
Ramp - Ramp for accessibility purposes

Created with Boxes.py (https://boxes.hackerspace-bamberg.de/)
Command line (remove spaces between dashes): boxes Ramp
-->
<title>Ramp</title>
<metadata>
<rdf:RDF><cc:Work>
<dc:title>Misc - Ramp</dc:title>
<dc:source>boxes Ramp</dc:source>
<dc:description>Ramp for accessibility purposes

Created with Boxes.py (https://boxes.hackerspace-bamberg.de/)
Command line: boxes Ramp
Command line short: boxes Ramp
</dc:description>
</cc:Work></rdf:RDF></metadata>
<g id="p-0" style="fill:none;stroke-linecap:round;stroke-linejoin:round;">
  <path d="M 10.100 442.336 H 110.100 V 432.336 H 10.100 V 442.336 Z" stroke="rgb(0,0,0)" stroke-width="0.20" />
  <text dominant-baseline="hanging" font-size="6px" style="font-family: sans-serif ; font-weight: normal; font-style: normal; fill: rgb(255,0,0)" text-anchor="middle" transform="matrix( 1.000 0.000 0.000 1.000 60.100 434.336 )">100.0mm, burn:0.10mm</text>
</g>
<g id="p-1" style="fill:none;stroke-linecap:round;stroke-linejoin:round;">
  <path d="M 26.394 427.636 H 37.733 C 37.833 427.636 37.733 427.536 37.733 427.636 V 430.536 C 37.733 430.591 37.778 430.636 37.833 430.636 H 43.833 C 43.888 430.636 43.933 430.591 43.933 430.536 V 427.636 C 43.933 427.536 43.833 427.636 43.933 427.636 H 49.733 C 49.833 427.636 49.733 427.536 49.733 427.636 V 430.536 C 49.733 430.591 49.778 430.636 49.833 430.636 H 55.833 C 55.888 430.636 55.933 430.591 55.933 430.536 V 427.636 C 55.933 427.536 55.833 427.636 55.933 427.636 H 61.733 C 61.833 427.636 61.733 427.536 61.733 427.636 V 430.536 C 61.733 430.591 61.778 430.636 61.833 430.636 H 67.833 C 67.888 430.636 67.933 430.591 67.933 430.536 V 427.636 C 67.933 427.536 67.833 427.636 67.933 427.636 H 73.733 C 73.833 427.636 73.733 427.536 73.733 427.636 V 430.536 C 73.733 430.591 73.778 430.636 73.833 430.636 H 79.833 C 79.888 430.636 79.933 430.591 79.933 430.536 V 427.636 C 79.933 427.536 79.833 427.636 79.933 427.636 H 85.733 C 85.833 427.636 85.733 427.536 85.733 427.636 V 430.536 C 85.733 430.591 85.778 430.636 85.833 430.636 H 91.833 C 91.888 430.636 91.933 430.591 91.933 430.536 V 427.636 C 91.933 427.536 91.833 427.636 91.933 427.636 H 97.733 C 97.833 427.636 97.733 427.536 97.733 427.636 V 430.536 C 97.733 430.591 97.778 430.636 97.833 430.636 H 103.833 C 103.888 430.636 103.933 430.591 103.933 430.536 V 427.636 C 103.933 427.536 103.833 427.636 103.933 427.636 H 115.272 C 115.328 427.636 115.372 427.591 115.372 427.536 V 416.197 C 115.372 416.097 115.272 416.197 115.372 416.197 H 118.272 C 118.328 416.197 118.372 416.152 118.372 416.097 V 410.097 C 118.372 410.042 118.328 409.997 118.272 409.997 H 115.372 C 115.272 409.997 115.372 410.097 115.372 409.997 V 404.197 C 115.372 404.097 115.272 404.197 115.372 404.197 H 118.272 C 118.328 404.197 118.372 404.152 118.372 404.097 V 398.097 C 118.372 398.042 118.328 397.997 118.272 397.997 H 115.372 C 115.272 397.997 115.372 398.097 115.372 397.997 V 392.197 C 115.372 392.097 115.272 392.197 115.372 392.197 H 118.272 C 118.328 392.197 118.372 392.152 118.372 392.097 V 386.097 C 118.372 386.042 118.328 385.997 118.272 385.997 H 115.372 C 115.272 385.997 115.372 386.097 115.372 385.997 V 380.197 C 115.372 380.097 115.272 380.197 115.372 380.197 H 118.272 C 118.328 380.197 118.372 380.152 118.372 380.097 V 374.097 C 118.372 374.042 118.328 373.997 118.272 373.997 H 115.372 C 115.272 373.997 115.372 374.097 115.372 373.997 V 368.197 C 115.372 368.097 115.272 368.197 115.372 368.197 H 118.272 C 118.328 368.197 118.372 368.152 118.372 368.097 V 362.097 C 118.372 362.042 118.328 361.997 118.272 361.997 H 115.372 C 115.272 361.997 115.372 362.097 115.372 361.997 V 356.197 C 115.372 356.097 115.272 356.197 115.372 356.197 H 118.272 C 118.328 356.197 118.372 356.152 118.372 356.097 V 350.097 C 118.372 350.042 118.328 349.997 118.272 349.997 H 115.372 C 115.272 349.997 115.372 350.097 115.372 349.997 V 338.657 C 115.372 338.602 115.328 338.557 115.272 338.557 C 115.246 338.557 115.220 338.568 115.202 338.587 L 106.895 346.893 C 106.825 346.964 106.966 346.964 106.895 346.893 L 104.845 344.842 C 104.806 344.803 104.742 344.803 104.703 344.842 L 100.461 349.085 C 100.422 349.124 100.422 349.187 100.461 349.226 L 102.511 351.277 C 102.582 351.348 102.582 351.206 102.511 351.277 L 98.410 355.378 C 98.339 355.449 98.481 355.449 98.410 355.378 L 96.360 353.328 C 96.320 353.288 96.257 353.288 96.218 353.328 L 91.975 357.570 C 91.936 357.609 91.936 357.673 91.975 357.712 L 94.026 359.762 C 94.097 359.833 94.097 359.692 94.026 359.762 L 89.925 363.863 C 89.854 363.934 89.996 363.934 89.925 363.863 L 87.874 361.813 C 87.835 361.774 87.772 361.774 87.733 361.813 L 83.490 366.055 C 83.451 366.095 83.451 366.158 83.490 366.197 L 85.541 368.247 C 85.611 368.318 85.611 368.177 85.541 368.247 L 81.440 372.349 C 81.369 372.419 81.510 372.419 81.440 372.349 L 79.389 370.298 C 79.350 370.259 79.287 370.259 79.248 370.298 L 75.005 374.541 C 74.966 374.580 74.966 374.643 75.005 374.682 L 77.055 376.733 C 77.126 376.803 77.126 376.662 77.055 376.733 L 72.954 380.834 C 72.884 380.905 73.025 380.905 72.954 380.834 L 70.904 378.783 C 70.865 378.744 70.801 378.744 70.762 378.783 L 66.520 383.026 C 66.481 383.065 66.481 383.128 66.520 383.167 L 68.570 385.218 C 68.641 385.289 68.641 385.147 68.570 385.218 L 64.469 389.319 C 64.398 389.390 64.540 389.390 64.469 389.319 L 62.418 387.269 C 62.379 387.230 62.316 387.230 62.277 387.269 L 58.034 391.511 C 57.995 391.550 57.995 391.614 58.034 391.653 L 60.085 393.703 C 60.156 393.774 60.156 393.633 60.085 393.703 L 55.984 397.805 C 55.913 397.875 56.054 397.875 55.984 397.805 L 53.933 395.754 C 53.894 395.715 53.831 395.715 53.792 395.754 L 49.549 399.997 C 49.510 400.036 49.510 400.099 49.549 400.138 L 51.600 402.189 C 51.670 402.259 51.670 402.118 51.600 402.189 L 47.498 406.290 C 47.428 406.361 47.569 406.361 47.498 406.290 L 45.448 404.239 C 45.409 404.200 45.345 404.200 45.306 404.239 L 41.064 408.482 C 41.025 408.521 41.025 408.584 41.064 408.623 L 43.114 410.674 C 43.185 410.745 43.185 410.603 43.114 410.674 L 39.013 414.775 C 38.942 414.846 39.084 414.846 39.013 414.775 L 36.963 412.725 C 36.923 412.685 36.860 412.685 36.821 412.725 L 32.578 416.967 C 32.539 417.006 32.539 417.070 32.578 417.109 L 34.629 419.159 C 34.700 419.230 34.700 419.088 34.629 419.159 L 26.323 427.465 C 26.304 427.484 26.294 427.510 26.294 427.536 C 26.294 427.591 26.338 427.636 26.394 427.636 Z" stroke="rgb(0,0,0)" stroke-width="0.20" />
  <path d="M 101.979 336.236 H 90.639 C 90.539 336.236 90.639 336.336 90.639 336.236 V 333.336 C 90.639 333.281 90.595 333.236 90.539 333.236 H 84.539 C 84.484 333.236 84.439 333.281 84.439 333.336 V 336.236 C 84.439 336.336 84.539 336.236 84.439 336.236 H 78.639 C 78.539 336.236 78.639 336.336 78.639 336.236 V 333.336 C 78.639 333.281 78.595 333.236 78.539 333.236 H 72.539 C 72.484 333.236 72.439 333.281 72.439 333.336 V 336.236 C 72.439 336.336 72.539 336.236 72.439 336.236 H 66.639 C 66.539 336.236 66.639 336.336 66.639 336.236 V 333.336 C 66.639 333.281 66.595 333.236 66.539 333.236 H 60.539 C 60.484 333.236 60.439 333.281 60.439 333.336 V 336.236 C 60.439 336.336 60.539 336.236 60.439 336.236 H 54.639 C 54.539 336.236 54.639 336.336 54.639 336.236 V 333.336 C 54.639 333.281 54.595 333.236 54.539 333.236 H 48.539 C 48.484 333.236 48.439 333.281 48.439 333.336 V 336.236 C 48.439 336.336 48.539 336.236 48.439 336.236 H 42.639 C 42.539 336.236 42.639 336.336 42.639 336.236 V 333.336 C 42.639 333.281 42.595 333.236 42.539 333.236 H 36.539 C 36.484 333.236 36.439 333.281 36.439 333.336 V 336.236 C 36.439 336.336 36.539 336.236 36.439 336.236 H 30.639 C 30.539 336.236 30.639 336.336 30.639 336.236 V 333.336 C 30.639 333.281 30.595 333.236 30.539 333.236 H 24.539 C 24.484 333.236 24.439 333.281 24.439 333.336 V 336.236 C 24.439 336.336 24.539 336.236 24.439 336.236 H 13.100 C 13.045 336.236 13.000 336.281 13.000 336.336 V 347.675 C 13.000 347.775 13.100 347.675 13.000 347.675 H 10.100 C 10.045 347.675 10.000 347.720 10.000 347.775 V 353.775 C 10.000 353.831 10.045 353.875 10.100 353.875 H 13.000 C 13.100 353.875 13.000 353.775 13.000 353.875 V 359.675 C 13.000 359.775 13.100 359.675 13.000 359.675 H 10.100 C 10.045 359.675 10.000 359.720 10.000 359.775 V 365.775 C 10.000 365.831 10.045 365.875 10.100 365.875 H 13.000 C 13.100 365.875 13.000 365.775 13.000 365.875 V 371.675 C 13.000 371.775 13.100 371.675 13.000 371.675 H 10.100 C 10.045 371.675 10.000 371.720 10.000 371.775 V 377.775 C 10.000 377.831 10.045 377.875 10.100 377.875 H 13.000 C 13.100 377.875 13.000 377.775 13.000 377.875 V 383.675 C 13.000 383.775 13.100 383.675 13.000 383.675 H 10.100 C 10.045 383.675 10.000 383.720 10.000 383.775 V 389.775 C 10.000 389.831 10.045 389.875 10.100 389.875 H 13.000 C 13.100 389.875 13.000 389.775 13.000 389.875 V 395.675 C 13.000 395.775 13.100 395.675 13.000 395.675 H 10.100 C 10.045 395.675 10.000 395.720 10.000 395.775 V 401.775 C 10.000 401.831 10.045 401.875 10.100 401.875 H 13.000 C 13.100 401.875 13.000 401.775 13.000 401.875 V 407.675 C 13.000 407.775 13.100 407.675 13.000 407.675 H 10.100 C 10.045 407.675 10.000 407.720 10.000 407.775 V 413.775 C 10.000 413.831 10.045 413.875 10.100 413.875 H 13.000 C 13.100 413.875 13.000 413.775 13.000 413.875 V 425.215 C 13.000 425.270 13.045 425.315 13.100 425.315 C 13.127 425.315 13.152 425.304 13.171 425.285 L 21.477 416.979 C 21.548 416.909 21.406 416.909 21.477 416.979 L 23.528 419.030 C 23.567 419.069 23.630 419.069 23.669 419.030 L 27.912 414.787 C 27.951 414.748 27.951 414.685 27.912 414.646 L 25.861 412.595 C 25.790 412.525 25.790 412.666 25.861 412.595 L 29.962 408.494 C 30.033 408.423 29.891 408.423 29.962 408.494 L 32.013 410.545 C 32.052 410.584 32.115 410.584 32.154 410.545 L 36.397 406.302 C 36.436 406.263 36.436 406.200 36.397 406.161 L 34.346 404.110 C 34.276 404.039 34.276 404.181 34.346 404.110 L 38.447 400.009 C 38.518 399.938 38.377 399.938 38.447 400.009 L 40.498 402.059 C 40.537 402.098 40.600 402.098 40.639 402.059 L 44.882 397.817 C 44.921 397.778 44.921 397.714 44.882 397.675 L 42.832 395.625 C 42.761 395.554 42.761 395.695 42.832 395.625 L 46.933 391.523 C 47.003 391.453 46.862 391.453 46.933 391.523 L 48.983 393.574 C 49.022 393.613 49.086 393.613 49.125 393.574 L 53.367 389.331 C 53.406 389.292 53.406 389.229 53.367 389.190 L 51.317 387.139 C 51.246 387.069 51.246 387.210 51.317 387.139 L 55.418 383.038 C 55.489 382.967 55.347 382.967 55.418 383.038 L 57.469 385.089 C 57.508 385.128 57.571 385.128 57.610 385.089 L 61.853 380.846 C 61.892 380.807 61.892 380.744 61.853 380.705 L 59.802 378.654 C 59.731 378.583 59.731 378.725 59.802 378.654 L 63.903 374.553 C 63.974 374.482 63.833 374.482 63.903 374.553 L 65.954 376.603 C 65.993 376.643 66.056 376.643 66.095 376.603 L 70.338 372.361 C 70.377 372.322 70.377 372.258 70.338 372.219 L 68.287 370.169 C 68.217 370.098 68.217 370.240 68.287 370.169 L 72.389 366.068 C 72.459 365.997 72.318 365.997 72.389 366.068 L 74.439 368.118 C 74.478 368.157 74.542 368.157 74.581 368.118 L 78.823 363.876 C 78.862 363.837 78.862 363.773 78.823 363.734 L 76.773 361.684 C 76.702 361.613 76.702 361.754 76.773 361.684 L 80.874 357.582 C 80.945 357.512 80.803 357.512 80.874 357.582 L 82.924 359.633 C 82.964 359.672 83.027 359.672 83.066 359.633 L 87.309 355.390 C 87.348 355.351 87.348 355.288 87.309 355.249 L 85.258 353.198 C 85.187 353.128 85.187 353.269 85.258 353.198 L 89.359 349.097 C 89.430 349.026 89.288 349.026 89.359 349.097 L 91.410 351.148 C 91.449 351.187 91.512 351.187 91.551 351.148 L 95.794 346.905 C 95.833 346.866 95.833 346.803 95.794 346.764 L 93.743 344.713 C 93.672 344.642 93.672 344.784 93.743 344.713 L 102.049 336.407 C 102.068 336.388 102.079 336.363 102.079 336.336 C 102.079 336.281 102.034 336.236 101.979 336.236 Z" stroke="rgb(0,0,0)" stroke-width="0.20" />
  <text dominant-baseline="hanging" font-size="4px" style="font-family: sans-serif ; font-weight: normal; font-style: normal; fill: rgb(255,0,0)" text-anchor="middle" transform="matrix( 1.000 0.000 0.000 1.000 64.186 379.936 )">Side</text>
</g>
<g id="p-2" style="fill:none;stroke-linecap:round;stroke-linejoin:round;">
  <path d="M 13.100 331.536 H 24.100 C 24.155 331.536 24.200 331.491 24.200 331.436 V 328.536 C 24.200 328.436 24.100 328.536 24.200 328.536 H 30.000 C 30.100 328.536 30.000 328.436 30.000 328.536 V 331.436 C 30.000 331.491 30.045 331.536 30.100 331.536 H 36.100 C 36.155 331.536 36.200 331.491 36.200 331.436 V 328.536 C 36.200 328.436 36.100 328.536 36.200 328.536 H 42.000 C 42.100 328.536 42.000 328.436 42.000 328.536 V 331.436 C 42.000 331.491 42.045 331.536 42.100 331.536 H 48.100 C 48.155 331.536 48.200 331.491 48.200 331.436 V 328.536 C 48.200 328.436 48.100 328.536 48.200 328.536 H 54.000 C 54.100 328.536 54.000 328.436 54.000 328.536 V 331.436 C 54.000 331.491 54.045 331.536 54.100 331.536 H 60.100 C 60.155 331.536 60.200 331.491 60.200 331.436 V 328.536 C 60.200 328.436 60.100 328.536 60.200 328.536 H 66.000 C 66.100 328.536 66.000 328.436 66.000 328.536 V 331.436 C 66.000 331.491 66.045 331.536 66.100 331.536 H 72.100 C 72.155 331.536 72.200 331.491 72.200 331.436 V 328.536 C 72.200 328.436 72.100 328.536 72.200 328.536 H 78.000 C 78.100 328.536 78.000 328.436 78.000 328.536 V 331.436 C 78.000 331.491 78.045 331.536 78.100 331.536 H 84.100 C 84.155 331.536 84.200 331.491 84.200 331.436 V 328.536 C 84.200 328.436 84.100 328.536 84.200 328.536 H 90.000 C 90.100 328.536 90.000 328.436 90.000 328.536 V 331.436 C 90.000 331.491 90.045 331.536 90.100 331.536 H 96.100 C 96.155 331.536 96.200 331.491 96.200 331.436 V 328.536 C 96.200 328.436 96.100 328.536 96.200 328.536 H 102.000 C 102.100 328.536 102.000 328.436 102.000 328.536 V 331.436 C 102.000 331.491 102.045 331.536 102.100 331.536 H 113.100 H 116.100 C 116.155 331.536 116.200 331.491 116.200 331.436 V 328.436 V 316.997 C 116.200 316.942 116.155 316.897 116.100 316.897 H 113.200 C 113.100 316.897 113.200 316.997 113.200 316.897 V 311.097 C 113.200 310.997 113.100 311.097 113.200 311.097 H 116.100 C 116.155 311.097 116.200 311.052 116.200 310.997 V 304.997 C 116.200 304.942 116.155 304.897 116.100 304.897 H 113.200 C 113.100 304.897 113.200 304.997 113.200 304.897 V 299.097 C 113.200 298.997 113.100 299.097 113.200 299.097 H 116.100 C 116.155 299.097 116.200 299.052 116.200 298.997 V 292.997 C 116.200 292.942 116.155 292.897 116.100 292.897 H 113.200 C 113.100 292.897 113.200 292.997 113.200 292.897 V 287.097 C 113.200 286.997 113.100 287.097 113.200 287.097 H 116.100 C 116.155 287.097 116.200 287.052 116.200 286.997 V 280.997 C 116.200 280.942 116.155 280.897 116.100 280.897 H 113.200 C 113.100 280.897 113.200 280.997 113.200 280.897 V 275.097 C 113.200 274.997 113.100 275.097 113.200 275.097 H 116.100 C 116.155 275.097 116.200 275.052 116.200 274.997 V 268.997 C 116.200 268.942 116.155 268.897 116.100 268.897 H 113.200 C 113.100 268.897 113.200 268.997 113.200 268.897 V 263.097 C 113.200 262.997 113.100 263.097 113.200 263.097 H 116.100 C 116.155 263.097 116.200 263.052 116.200 262.997 V 256.997 C 116.200 256.942 116.155 256.897 116.100 256.897 H 113.200 C 113.100 256.897 113.200 256.997 113.200 256.897 V 251.097 C 113.200 250.997 113.100 251.097 113.200 251.097 H 116.100 C 116.155 251.097 116.200 251.052 116.200 250.997 V 239.557 C 116.200 239.502 116.155 239.457 116.100 239.457 H 113.100 H 13.100 H 10.100 C 10.045 239.457 10.000 239.502 10.000 239.557 V 250.997 C 10.000 251.052 10.045 251.097 10.100 251.097 H 13.000 C 13.100 251.097 13.000 250.997 13.000 251.097 V 256.897 C 13.000 256.997 13.100 256.897 13.000 256.897 H 10.100 C 10.045 256.897 10.000 256.942 10.000 256.997 V 262.997 C 10.000 263.052 10.045 263.097 10.100 263.097 H 13.000 C 13.100 263.097 13.000 262.997 13.000 263.097 V 268.897 C 13.000 268.997 13.100 268.897 13.000 268.897 H 10.100 C 10.045 268.897 10.000 268.942 10.000 268.997 V 274.997 C 10.000 275.052 10.045 275.097 10.100 275.097 H 13.000 C 13.100 275.097 13.000 274.997 13.000 275.097 V 280.897 C 13.000 280.997 13.100 280.897 13.000 280.897 H 10.100 C 10.045 280.897 10.000 280.942 10.000 280.997 V 286.997 C 10.000 287.052 10.045 287.097 10.100 287.097 H 13.000 C 13.100 287.097 13.000 286.997 13.000 287.097 V 292.897 C 13.000 292.997 13.100 292.897 13.000 292.897 H 10.100 C 10.045 292.897 10.000 292.942 10.000 292.997 V 298.997 C 10.000 299.052 10.045 299.097 10.100 299.097 H 13.000 C 13.100 299.097 13.000 298.997 13.000 299.097 V 304.897 C 13.000 304.997 13.100 304.897 13.000 304.897 H 10.100 C 10.045 304.897 10.000 304.942 10.000 304.997 V 310.997 C 10.000 311.052 10.045 311.097 10.100 311.097 H 13.000 C 13.100 311.097 13.000 310.997 13.000 311.097 V 316.897 C 13.000 316.997 13.100 316.897 13.000 316.897 H 10.100 C 10.045 316.897 10.000 316.942 10.000 316.997 V 328.436 V 331.436 C 10.000 331.491 10.045 331.536 10.100 331.536 H 13.100 Z" stroke="rgb(0,0,0)" stroke-width="0.20" />
  <text dominant-baseline="hanging" font-size="4px" style="font-family: sans-serif ; font-weight: normal; font-style: normal; fill: rgb(255,0,0)" text-anchor="middle" transform="matrix( 1.000 0.000 0.000 1.000 63.100 283.597 )">Vertical Wall</text>
</g>
<g id="p-3" style="fill:none;stroke-linecap:round;stroke-linejoin:round;">
  <path d="M 13.100 237.957 H 113.100 H 116.100 C 116.155 237.957 116.200 237.913 116.200 237.857 V 226.418 C 116.200 226.363 116.155 226.318 116.100 226.318 H 113.200 C 113.100 226.318 113.200 226.418 113.200 226.318 V 220.518 C 113.200 220.418 113.100 220.518 113.200 220.518 H 116.100 C 116.155 220.518 116.200 220.473 116.200 220.418 V 214.418 C 116.200 214.363 116.155 214.318 116.100 214.318 H 113.200 C 113.100 214.318 113.200 214.418 113.200 214.318 V 208.518 C 113.200 208.418 113.100 208.518 113.200 208.518 H 116.100 C 116.155 208.518 116.200 208.473 116.200 208.418 V 202.418 C 116.200 202.363 116.155 202.318 116.100 202.318 H 113.200 C 113.100 202.318 113.200 202.418 113.200 202.318 V 196.518 C 113.200 196.418 113.100 196.518 113.200 196.518 H 116.100 C 116.155 196.518 116.200 196.473 116.200 196.418 V 190.418 C 116.200 190.363 116.155 190.318 116.100 190.318 H 113.200 C 113.100 190.318 113.200 190.418 113.200 190.318 V 184.518 C 113.200 184.418 113.100 184.518 113.200 184.518 H 116.100 C 116.155 184.518 116.200 184.473 116.200 184.418 V 178.418 C 116.200 178.363 116.155 178.318 116.100 178.318 H 113.200 C 113.100 178.318 113.200 178.418 113.200 178.318 V 172.518 C 113.200 172.418 113.100 172.518 113.200 172.518 H 116.100 C 116.155 172.518 116.200 172.473 116.200 172.418 V 166.418 C 116.200 166.363 116.155 166.318 116.100 166.318 H 113.200 C 113.100 166.318 113.200 166.418 113.200 166.318 V 160.518 C 113.200 160.418 113.100 160.518 113.200 160.518 H 116.100 C 116.155 160.518 116.200 160.473 116.200 160.418 V 148.979 C 116.200 148.923 116.155 148.879 116.100 148.879 H 113.100 H 102.200 C 102.100 148.879 102.200 148.979 102.200 148.879 V 145.979 C 102.200 145.923 102.155 145.879 102.100 145.879 H 96.100 C 96.045 145.879 96.000 145.923 96.000 145.979 V 148.879 C 96.000 148.979 96.100 148.879 96.000 148.879 H 90.200 C 90.100 148.879 90.200 148.979 90.200 148.879 V 145.979 C 90.200 145.923 90.155 145.879 90.100 145.879 H 84.100 C 84.045 145.879 84.000 145.923 84.000 145.979 V 148.879 C 84.000 148.979 84.100 148.879 84.000 148.879 H 78.200 C 78.100 148.879 78.200 148.979 78.200 148.879 V 145.979 C 78.200 145.923 78.155 145.879 78.100 145.879 H 72.100 C 72.045 145.879 72.000 145.923 72.000 145.979 V 148.879 C 72.000 148.979 72.100 148.879 72.000 148.879 H 66.200 C 66.100 148.879 66.200 148.979 66.200 148.879 V 145.979 C 66.200 145.923 66.155 145.879 66.100 145.879 H 60.100 C 60.045 145.879 60.000 145.923 60.000 145.979 V 148.879 C 60.000 148.979 60.100 148.879 60.000 148.879 H 54.200 C 54.100 148.879 54.200 148.979 54.200 148.879 V 145.979 C 54.200 145.923 54.155 145.879 54.100 145.879 H 48.100 C 48.045 145.879 48.000 145.923 48.000 145.979 V 148.879 C 48.000 148.979 48.100 148.879 48.000 148.879 H 42.200 C 42.100 148.879 42.200 148.979 42.200 148.879 V 145.979 C 42.200 145.923 42.155 145.879 42.100 145.879 H 36.100 C 36.045 145.879 36.000 145.923 36.000 145.979 V 148.879 C 36.000 148.979 36.100 148.879 36.000 148.879 H 30.200 C 30.100 148.879 30.200 148.979 30.200 148.879 V 145.979 C 30.200 145.923 30.155 145.879 30.100 145.879 H 24.100 C 24.045 145.879 24.000 145.923 24.000 145.979 V 148.879 C 24.000 148.979 24.100 148.879 24.000 148.879 H 13.100 H 10.100 C 10.045 148.879 10.000 148.923 10.000 148.979 V 160.418 C 10.000 160.473 10.045 160.518 10.100 160.518 H 13.000 C 13.100 160.518 13.000 160.418 13.000 160.518 V 166.318 C 13.000 166.418 13.100 166.318 13.000 166.318 H 10.100 C 10.045 166.318 10.000 166.363 10.000 166.418 V 172.418 C 10.000 172.473 10.045 172.518 10.100 172.518 H 13.000 C 13.100 172.518 13.000 172.418 13.000 172.518 V 178.318 C 13.000 178.418 13.100 178.318 13.000 178.318 H 10.100 C 10.045 178.318 10.000 178.363 10.000 178.418 V 184.418 C 10.000 184.473 10.045 184.518 10.100 184.518 H 13.000 C 13.100 184.518 13.000 184.418 13.000 184.518 V 190.318 C 13.000 190.418 13.100 190.318 13.000 190.318 H 10.100 C 10.045 190.318 10.000 190.363 10.000 190.418 V 196.418 C 10.000 196.473 10.045 196.518 10.100 196.518 H 13.000 C 13.100 196.518 13.000 196.418 13.000 196.518 V 202.318 C 13.000 202.418 13.100 202.318 13.000 202.318 H 10.100 C 10.045 202.318 10.000 202.363 10.000 202.418 V 208.418 C 10.000 208.473 10.045 208.518 10.100 208.518 H 13.000 C 13.100 208.518 13.000 208.418 13.000 208.518 V 214.318 C 13.000 214.418 13.100 214.318 13.000 214.318 H 10.100 C 10.045 214.318 10.000 214.363 10.000 214.418 V 220.418 C 10.000 220.473 10.045 220.518 10.100 220.518 H 13.000 C 13.100 220.518 13.000 220.418 13.000 220.518 V 226.318 C 13.000 226.418 13.100 226.318 13.000 226.318 H 10.100 C 10.045 226.318 10.000 226.363 10.000 226.418 V 237.857 C 10.000 237.913 10.045 237.957 10.100 237.957 H 13.100 Z" stroke="rgb(0,0,0)" stroke-width="0.20" />
  <text dominant-baseline="hanging" font-size="4px" style="font-family: sans-serif ; font-weight: normal; font-style: normal; fill: rgb(255,0,0)" text-anchor="middle" transform="matrix( 1.000 0.000 0.000 1.000 63.100 190.018 )">Bottom</text>
</g>
<g id="p-4" style="fill:none;stroke-linecap:round;stroke-linejoin:round;">
  <path d="M 13.100 144.379 H 113.100 H 116.100 C 116.155 144.379 116.200 144.334 116.200 144.279 V 140.036 V 128.189 C 116.200 128.134 116.155 128.089 116.100 128.089 H 113.200 C 113.100 128.089 113.200 128.189 113.200 128.089 V 122.289 C 113.200 122.189 113.100 122.289 113.200 122.289 H 116.100 C 116.155 122.289 116.200 122.245 116.200 122.189 V 116.189 C 116.200 116.134 116.155 116.089 116.100 116.089 H 113.200 C 113.100 116.089 113.200 116.189 113.200 116.089 V 110.289 C 113.200 110.189 113.100 110.289 113.200 110.289 H 116.100 C 116.155 110.289 116.200 110.245 116.200 110.189 V 104.189 C 116.200 104.134 116.155 104.089 116.100 104.089 H 113.200 C 113.100 104.089 113.200 104.189 113.200 104.089 V 98.289 C 113.200 98.189 113.100 98.289 113.200 98.289 H 116.100 C 116.155 98.289 116.200 98.245 116.200 98.189 V 92.189 C 116.200 92.134 116.155 92.089 116.100 92.089 H 113.200 C 113.100 92.089 113.200 92.189 113.200 92.089 V 86.289 C 113.200 86.189 113.100 86.289 113.200 86.289 H 116.100 C 116.155 86.289 116.200 86.245 116.200 86.189 V 80.189 C 116.200 80.134 116.155 80.089 116.100 80.089 H 113.200 C 113.100 80.089 113.200 80.189 113.200 80.089 V 74.289 C 113.200 74.189 113.100 74.289 113.200 74.289 H 116.100 C 116.155 74.289 116.200 74.245 116.200 74.189 V 68.189 C 116.200 68.134 116.155 68.089 116.100 68.089 H 113.200 C 113.100 68.089 113.200 68.189 113.200 68.089 V 62.289 C 113.200 62.189 113.100 62.289 113.200 62.289 H 116.100 C 116.155 62.289 116.200 62.245 116.200 62.189 V 56.189 C 116.200 56.134 116.155 56.089 116.100 56.089 H 113.200 C 113.100 56.089 113.200 56.189 113.200 56.089 V 50.289 C 113.200 50.189 113.100 50.289 113.200 50.289 H 116.100 C 116.155 50.289 116.200 50.245 116.200 50.189 V 44.189 C 116.200 44.134 116.155 44.089 116.100 44.089 H 113.200 C 113.100 44.089 113.200 44.189 113.200 44.089 V 38.289 C 113.200 38.189 113.100 38.289 113.200 38.289 H 116.100 C 116.155 38.289 116.200 38.245 116.200 38.189 V 32.189 C 116.200 32.134 116.155 32.089 116.100 32.089 H 113.200 C 113.100 32.089 113.200 32.189 113.200 32.089 V 26.289 C 113.200 26.189 113.100 26.289 113.200 26.289 H 116.100 C 116.155 26.289 116.200 26.245 116.200 26.189 V 14.343 V 10.100 C 116.200 10.045 116.155 10.000 116.100 10.000 H 113.100 H 13.100 H 10.100 C 10.045 10.000 10.000 10.045 10.000 10.100 V 14.343 V 26.189 C 10.000 26.245 10.045 26.289 10.100 26.289 H 13.000 C 13.100 26.289 13.000 26.189 13.000 26.289 V 32.089 C 13.000 32.189 13.100 32.089 13.000 32.089 H 10.100 C 10.045 32.089 10.000 32.134 10.000 32.189 V 38.189 C 10.000 38.245 10.045 38.289 10.100 38.289 H 13.000 C 13.100 38.289 13.000 38.189 13.000 38.289 V 44.089 C 13.000 44.189 13.100 44.089 13.000 44.089 H 10.100 C 10.045 44.089 10.000 44.134 10.000 44.189 V 50.189 C 10.000 50.245 10.045 50.289 10.100 50.289 H 13.000 C 13.100 50.289 13.000 50.189 13.000 50.289 V 56.089 C 13.000 56.189 13.100 56.089 13.000 56.089 H 10.100 C 10.045 56.089 10.000 56.134 10.000 56.189 V 62.189 C 10.000 62.245 10.045 62.289 10.100 62.289 H 13.000 C 13.100 62.289 13.000 62.189 13.000 62.289 V 68.089 C 13.000 68.189 13.100 68.089 13.000 68.089 H 10.100 C 10.045 68.089 10.000 68.134 10.000 68.189 V 74.189 C 10.000 74.245 10.045 74.289 10.100 74.289 H 13.000 C 13.100 74.289 13.000 74.189 13.000 74.289 V 80.089 C 13.000 80.189 13.100 80.089 13.000 80.089 H 10.100 C 10.045 80.089 10.000 80.134 10.000 80.189 V 86.189 C 10.000 86.245 10.045 86.289 10.100 86.289 H 13.000 C 13.100 86.289 13.000 86.189 13.000 86.289 V 92.089 C 13.000 92.189 13.100 92.089 13.000 92.089 H 10.100 C 10.045 92.089 10.000 92.134 10.000 92.189 V 98.189 C 10.000 98.245 10.045 98.289 10.100 98.289 H 13.000 C 13.100 98.289 13.000 98.189 13.000 98.289 V 104.089 C 13.000 104.189 13.100 104.089 13.000 104.089 H 10.100 C 10.045 104.089 10.000 104.134 10.000 104.189 V 110.189 C 10.000 110.245 10.045 110.289 10.100 110.289 H 13.000 C 13.100 110.289 13.000 110.189 13.000 110.289 V 116.089 C 13.000 116.189 13.100 116.089 13.000 116.089 H 10.100 C 10.045 116.089 10.000 116.134 10.000 116.189 V 122.189 C 10.000 122.245 10.045 122.289 10.100 122.289 H 13.000 C 13.100 122.289 13.000 122.189 13.000 122.289 V 128.089 C 13.000 128.189 13.100 128.089 13.000 128.089 H 10.100 C 10.045 128.089 10.000 128.134 10.000 128.189 V 140.036 V 144.279 C 10.000 144.334 10.045 144.379 10.100 144.379 H 13.100 Z" stroke="rgb(0,0,0)" stroke-width="0.20" />
  <text dominant-baseline="hanging" font-size="4px" style="font-family: sans-serif ; font-weight: normal; font-style: normal; fill: rgb(255,0,0)" text-anchor="middle" transform="matrix( 1.000 0.000 0.000 1.000 63.100 75.289 )">Diagonal</text>
</g>
</svg>