<?xml version='1.0' encoding='utf-8'?>
<svg height="325.75mm" viewBox="0.0 0.0 320.89 325.75" width="320.89mm" xmlns="http://www.w3.org/2000/svg" xmlns:cc="http://creativecommons.org/ns#" xmlns:dc="http://purl.org/dc/elements/1.1/" xmlns:inkscape="http://www.inkscape.org/namespaces/inkscape" xmlns:rdf="http://www.w3.org/1999/02/22-rdf-syntax-ns#" xmlns:svg="http://www.w3.org/2000/svg" xmlns:xlink="http://www.w3.org/1999/xlink">
<!--
RegularStarBox - Regular polygon boxes that form a star when closed


![Open box](static/samples/RegularStarBox-2.jpg)


Created with Boxes.py (https://boxes.hackerspace-bamberg.de/)
Command line (remove spaces between dashes): boxes RegularStarBox
-->
<title>RegularStarBox</title>
<metadata>
<rdf:RDF><cc:Work>
<dc:title>Box - RegularStarBox</dc:title>
<dc:source>boxes RegularStarBox</dc:source>
<dc:description>Regular polygon boxes that form a star when closed

![Open box](static/samples/RegularStarBox-2.jpg)

Created with Boxes.py (https://boxes.hackerspace-bamberg.de/)
Command line: boxes RegularStarBox
Command line short: boxes RegularStarBox
</dc:description>
</cc:Work></rdf:RDF></metadata>
<g id="p-0" style="fill:none;stroke-linecap:round;stroke-linejoin:round;">
  <path d="M 10.100 315.751 H 110.100 V 305.751 H 10.100 V 315.751 Z" stroke="rgb(0,0,0)" stroke-width="0.20" />
  <text dominant-baseline="hanging" font-size="6px" style="font-family: sans-serif ; font-weight: normal; font-style: normal; fill: rgb(255,0,0)" text-anchor="middle" transform="matrix( 1.000 0.000 0.000 1.000 60.100 307.751 )">100.0mm, burn:0.10mm</text>
</g>
<g id="p-1" style="fill:none;stroke-linecap:round;stroke-linejoin:round;">
  <path d="M 30.443 304.051 H 36.653 C 36.708 304.051 36.753 304.006 36.753 303.951 V 301.051 C 36.753 300.951 36.653 301.051 36.753 301.051 H 42.553 C 42.653 301.051 42.553 300.951 42.553 301.051 V 303.951 C 42.553 304.006 42.598 304.051 42.653 304.051 H 48.653 C 48.708 304.051 48.753 304.006 48.753 303.951 V 301.051 C 48.753 300.951 48.653 301.051 48.753 301.051 H 54.553 C 54.653 301.051 54.553 300.951 54.553 301.051 V 303.951 C 54.553 304.006 54.598 304.051 54.653 304.051 H 60.653 C 60.708 304.051 60.753 304.006 60.753 303.951 V 301.051 C 60.753 300.951 60.653 301.051 60.753 301.051 H 66.553 C 66.653 301.051 66.553 300.951 66.553 301.051 V 303.951 C 66.553 304.006 66.598 304.051 66.653 304.051 H 72.653 C 72.708 304.051 72.753 304.006 72.753 303.951 V 301.051 C 72.753 300.951 72.653 301.051 72.753 301.051 H 78.553 C 78.653 301.051 78.553 300.951 78.553 301.051 V 303.951 C 78.553 304.006 78.598 304.051 78.653 304.051 H 84.862 H 87.042 C 87.085 304.051 87.124 304.023 87.137 303.982 L 87.811 301.909 L 89.730 296.003 C 89.747 295.951 89.718 295.894 89.665 295.877 L 86.907 294.981 C 86.812 294.950 86.876 295.076 86.907 294.981 L 88.700 289.465 C 88.731 289.370 88.605 289.434 88.700 289.465 L 91.458 290.361 C 91.510 290.378 91.567 290.349 91.584 290.297 L 93.438 284.590 C 93.455 284.538 93.426 284.481 93.374 284.464 L 90.616 283.568 C 90.520 283.537 90.585 283.663 90.616 283.568 L 92.408 278.052 C 92.439 277.957 92.313 278.021 92.408 278.052 L 95.166 278.948 C 95.218 278.965 95.275 278.937 95.292 278.884 L 97.146 273.178 C 97.163 273.125 97.134 273.069 97.082 273.052 L 94.324 272.156 C 94.229 272.125 94.293 272.251 94.324 272.156 L 96.116 266.639 C 96.147 266.544 96.021 266.609 96.116 266.639 L 98.874 267.536 C 98.927 267.553 98.983 267.524 99.000 267.471 L 100.854 261.765 C 100.871 261.713 100.843 261.656 100.790 261.639 L 98.032 260.743 C 97.937 260.712 98.001 260.838 98.032 260.743 L 99.824 255.227 C 99.855 255.132 99.729 255.196 99.824 255.227 L 102.582 256.123 C 102.635 256.140 102.691 256.111 102.708 256.059 L 104.627 250.153 L 105.301 248.080 C 105.314 248.039 105.299 247.994 105.264 247.968 L 103.501 246.687 L 98.477 243.037 C 98.433 243.005 98.370 243.015 98.338 243.059 L 96.633 245.405 C 96.574 245.486 96.714 245.464 96.633 245.405 L 91.941 241.996 C 91.860 241.938 91.882 242.077 91.941 241.996 L 93.645 239.650 C 93.678 239.605 93.668 239.543 93.623 239.510 L 88.769 235.984 C 88.724 235.951 88.662 235.961 88.629 236.006 L 86.925 238.352 C 86.866 238.433 87.006 238.411 86.925 238.352 L 82.233 234.943 C 82.152 234.884 82.174 235.024 82.233 234.943 L 83.937 232.597 C 83.970 232.552 83.960 232.489 83.915 232.457 L 79.061 228.930 C 79.016 228.898 78.954 228.908 78.921 228.952 L 77.217 231.299 C 77.158 231.379 77.298 231.357 77.217 231.299 L 72.524 227.889 C 72.444 227.831 72.466 227.970 72.524 227.889 L 74.229 225.543 C 74.261 225.499 74.252 225.436 74.207 225.404 L 69.353 221.877 C 69.308 221.844 69.246 221.854 69.213 221.899 L 67.509 224.245 C 67.450 224.326 67.589 224.304 67.509 224.245 L 62.816 220.836 C 62.735 220.777 62.757 220.917 62.816 220.836 L 64.521 218.490 C 64.553 218.445 64.543 218.383 64.499 218.350 L 59.475 214.700 L 57.712 213.419 C 57.677 213.394 57.629 213.394 57.594 213.419 L 55.831 214.700 L 50.807 218.350 C 50.762 218.383 50.752 218.445 50.785 218.490 L 52.489 220.836 C 52.548 220.917 52.570 220.777 52.489 220.836 L 47.797 224.245 C 47.716 224.304 47.856 224.326 47.797 224.245 L 46.093 221.899 C 46.060 221.854 45.998 221.844 45.953 221.877 L 41.099 225.404 C 41.054 225.436 41.044 225.499 41.077 225.543 L 42.781 227.889 C 42.840 227.970 42.862 227.831 42.781 227.889 L 38.089 231.299 C 38.008 231.357 38.148 231.379 38.089 231.299 L 36.384 228.952 C 36.352 228.908 36.289 228.898 36.245 228.930 L 31.391 232.457 C 31.346 232.489 31.336 232.552 31.368 232.597 L 33.073 234.943 C 33.132 235.024 33.154 234.884 33.073 234.943 L 28.381 238.352 C 28.300 238.411 28.440 238.433 28.381 238.352 L 26.676 236.006 C 26.644 235.961 26.581 235.951 26.536 235.984 L 21.682 239.510 C 21.638 239.543 21.628 239.605 21.660 239.650 L 23.365 241.996 C 23.424 242.077 23.446 241.938 23.365 241.996 L 18.673 245.405 C 18.592 245.464 18.731 245.486 18.673 245.405 L 16.968 243.059 C 16.935 243.015 16.873 243.005 16.828 243.037 L 11.805 246.687 L 10.041 247.968 C 10.006 247.994 9.992 248.039 10.005 248.080 L 10.678 250.153 L 12.597 256.059 C 12.614 256.111 12.671 256.140 12.723 256.123 L 15.481 255.227 C 15.576 255.196 15.450 255.132 15.481 255.227 L 17.274 260.743 C 17.305 260.838 17.369 260.712 17.274 260.743 L 14.516 261.639 C 14.463 261.656 14.434 261.713 14.451 261.765 L 16.306 267.471 C 16.323 267.524 16.379 267.553 16.432 267.536 L 19.190 266.639 C 19.285 266.609 19.159 266.544 19.190 266.639 L 20.982 272.156 C 21.013 272.251 21.077 272.125 20.982 272.156 L 18.224 273.052 C 18.171 273.069 18.143 273.125 18.160 273.178 L 20.014 278.884 C 20.031 278.937 20.087 278.965 20.140 278.948 L 22.898 278.052 C 22.993 278.021 22.867 277.957 22.898 278.052 L 24.690 283.568 C 24.721 283.663 24.785 283.537 24.690 283.568 L 21.932 284.464 C 21.880 284.481 21.851 284.538 21.868 284.590 L 23.722 290.297 C 23.739 290.349 23.795 290.378 23.848 290.361 L 26.606 289.465 C 26.701 289.434 26.575 289.370 26.606 289.465 L 28.398 294.981 C 28.429 295.076 28.493 294.950 28.398 294.981 L 25.640 295.877 C 25.588 295.894 25.559 295.951 25.576 296.003 L 27.495 301.909 L 28.168 303.982 C 28.182 304.023 28.220 304.051 28.264 304.051 H 30.443 Z" stroke="rgb(0,0,0)" stroke-width="0.20" />
</g>
<g id="p-2" style="fill:none;stroke-linecap:round;stroke-linejoin:round;">
  <path d="M 127.249 304.051 H 133.458 C 133.514 304.051 133.558 304.006 133.558 303.951 V 301.051 C 133.558 300.951 133.458 301.051 133.558 301.051 H 139.358 C 139.458 301.051 139.358 300.951 139.358 301.051 V 303.951 C 139.358 304.006 139.403 304.051 139.458 304.051 H 145.458 C 145.514 304.051 145.558 304.006 145.558 303.951 V 301.051 C 145.558 300.951 145.458 301.051 145.558 301.051 H 151.358 C 151.458 301.051 151.358 300.951 151.358 301.051 V 303.951 C 151.358 304.006 151.403 304.051 151.458 304.051 H 157.458 C 157.514 304.051 157.558 304.006 157.558 303.951 V 301.051 C 157.558 300.951 157.458 301.051 157.558 301.051 H 163.358 C 163.458 301.051 163.358 300.951 163.358 301.051 V 303.951 C 163.358 304.006 163.403 304.051 163.458 304.051 H 169.458 C 169.514 304.051 169.558 304.006 169.558 303.951 V 301.051 C 169.558 300.951 169.458 301.051 169.558 301.051 H 175.358 C 175.458 301.051 175.358 300.951 175.358 301.051 V 303.951 C 175.358 304.006 175.403 304.051 175.458 304.051 H 181.668 H 183.848 C 183.891 304.051 183.929 304.023 183.943 303.982 L 184.616 301.909 L 186.535 296.003 C 186.552 295.951 186.524 295.894 186.471 295.877 L 183.713 294.981 C 183.618 294.950 183.682 295.076 183.713 294.981 L 185.505 289.465 C 185.536 289.370 185.410 289.434 185.505 289.465 L 188.263 290.361 C 188.316 290.378 188.372 290.349 188.389 290.297 L 190.243 284.590 C 190.261 284.538 190.232 284.481 190.179 284.464 L 187.421 283.568 C 187.326 283.537 187.390 283.663 187.421 283.568 L 189.214 278.052 C 189.244 277.957 189.118 278.021 189.214 278.052 L 191.972 278.948 C 192.024 278.965 192.081 278.937 192.098 278.884 L 193.952 273.178 C 193.969 273.125 193.940 273.069 193.887 273.052 L 191.129 272.156 C 191.034 272.125 191.099 272.251 191.129 272.156 L 192.922 266.639 C 192.953 266.544 192.827 266.609 192.922 266.639 L 195.680 267.536 C 195.732 267.553 195.789 267.524 195.806 267.471 L 197.660 261.765 C 197.677 261.713 197.648 261.656 197.596 261.639 L 194.838 260.743 C 194.743 260.712 194.807 260.838 194.838 260.743 L 196.630 255.227 C 196.661 255.132 196.535 255.196 196.630 255.227 L 199.388 256.123 C 199.441 256.140 199.497 256.111 199.514 256.059 L 201.433 250.153 L 202.106 248.080 C 202.120 248.039 202.105 247.994 202.070 247.968 L 200.307 246.687 L 195.283 243.037 C 195.238 243.005 195.176 243.015 195.143 243.059 L 193.439 245.405 C 193.380 245.486 193.520 245.464 193.439 245.405 L 188.746 241.996 C 188.666 241.938 188.688 242.077 188.746 241.996 L 190.451 239.650 C 190.484 239.605 190.474 239.543 190.429 239.510 L 185.575 235.984 C 185.530 235.951 185.468 235.961 185.435 236.006 L 183.731 238.352 C 183.672 238.433 183.811 238.411 183.731 238.352 L 179.038 234.943 C 178.957 234.884 178.979 235.024 179.038 234.943 L 180.743 232.597 C 180.775 232.552 180.765 232.489 180.721 232.457 L 175.867 228.930 C 175.822 228.898 175.759 228.908 175.727 228.952 L 174.022 231.299 C 173.964 231.379 174.103 231.357 174.022 231.299 L 169.330 227.889 C 169.249 227.831 169.271 227.970 169.330 227.889 L 171.035 225.543 C 171.067 225.499 171.057 225.436 171.013 225.404 L 166.158 221.877 C 166.114 221.844 166.051 221.854 166.019 221.899 L 164.314 224.245 C 164.255 224.326 164.395 224.304 164.314 224.245 L 159.622 220.836 C 159.541 220.777 159.563 220.917 159.622 220.836 L 161.326 218.490 C 161.359 218.445 161.349 218.383 161.304 218.350 L 156.281 214.700 L 154.517 213.419 C 154.482 213.394 154.435 213.394 154.400 213.419 L 152.636 214.700 L 147.613 218.350 C 147.568 218.383 147.558 218.445 147.591 218.490 L 149.295 220.836 C 149.354 220.917 149.376 220.777 149.295 220.836 L 144.603 224.245 C 144.522 224.304 144.662 224.326 144.603 224.245 L 142.898 221.899 C 142.866 221.854 142.803 221.844 142.759 221.877 L 137.904 225.404 C 137.860 225.436 137.850 225.499 137.882 225.543 L 139.587 227.889 C 139.646 227.970 139.668 227.831 139.587 227.889 L 134.895 231.299 C 134.814 231.357 134.953 231.379 134.895 231.299 L 133.190 228.952 C 133.158 228.908 133.095 228.898 133.050 228.930 L 128.196 232.457 C 128.152 232.489 128.142 232.552 128.174 232.597 L 129.879 234.943 C 129.937 235.024 129.960 234.884 129.879 234.943 L 125.186 238.352 C 125.105 238.411 125.245 238.433 125.186 238.352 L 123.482 236.006 C 123.449 235.961 123.387 235.951 123.342 235.984 L 118.488 239.510 C 118.443 239.543 118.433 239.605 118.466 239.650 L 120.170 241.996 C 120.229 242.077 120.251 241.938 120.170 241.996 L 115.478 245.405 C 115.397 245.464 115.537 245.486 115.478 245.405 L 113.774 243.059 C 113.741 243.015 113.679 243.005 113.634 243.037 L 108.610 246.687 L 106.847 247.968 C 106.812 247.994 106.797 248.039 106.811 248.080 L 107.484 250.153 L 109.403 256.059 C 109.420 256.111 109.476 256.140 109.529 256.123 L 112.287 255.227 C 112.382 255.196 112.256 255.132 112.287 255.227 L 114.079 260.743 C 114.110 260.838 114.174 260.712 114.079 260.743 L 111.321 261.639 C 111.269 261.656 111.240 261.713 111.257 261.765 L 113.111 267.471 C 113.128 267.524 113.185 267.553 113.237 267.536 L 115.995 266.639 C 116.090 266.609 115.964 266.544 115.995 266.639 L 117.788 272.156 C 117.818 272.251 117.883 272.125 117.788 272.156 L 115.029 273.052 C 114.977 273.069 114.948 273.125 114.965 273.178 L 116.819 278.884 C 116.836 278.937 116.893 278.965 116.945 278.948 L 119.703 278.052 C 119.799 278.021 119.673 277.957 119.703 278.052 L 121.496 283.568 C 121.527 283.663 121.591 283.537 121.496 283.568 L 118.738 284.464 C 118.685 284.481 118.656 284.538 118.673 284.590 L 120.528 290.297 C 120.545 290.349 120.601 290.378 120.654 290.361 L 123.412 289.465 C 123.507 289.434 123.381 289.370 123.412 289.465 L 125.204 294.981 C 125.235 295.076 125.299 294.950 125.204 294.981 L 122.446 295.877 C 122.393 295.894 122.365 295.951 122.382 296.003 L 124.301 301.909 L 124.974 303.982 C 124.987 304.023 125.026 304.051 125.069 304.051 H 127.249 Z" stroke="rgb(0,0,0)" stroke-width="0.20" />
</g>
<g id="p-3" style="fill:none;stroke-linecap:round;stroke-linejoin:round;">
  <path d="M 12.280 208.900 H 18.389 C 18.489 208.900 18.389 208.800 18.389 208.900 V 211.800 C 18.389 211.855 18.434 211.900 18.489 211.900 H 24.489 C 24.544 211.900 24.589 211.855 24.589 211.800 V 208.900 C 24.589 208.800 24.489 208.900 24.589 208.900 H 30.389 C 30.489 208.900 30.389 208.800 30.389 208.900 V 211.800 C 30.389 211.855 30.434 211.900 30.489 211.900 H 36.489 C 36.544 211.900 36.589 211.855 36.589 211.800 V 208.900 C 36.589 208.800 36.489 208.900 36.589 208.900 H 42.389 C 42.489 208.900 42.389 208.800 42.389 208.900 V 211.800 C 42.389 211.855 42.434 211.900 42.489 211.900 H 48.489 C 48.544 211.900 48.589 211.855 48.589 211.800 V 208.900 C 48.589 208.800 48.489 208.900 48.589 208.900 H 54.389 C 54.489 208.900 54.389 208.800 54.389 208.900 V 211.800 C 54.389 211.855 54.434 211.900 54.489 211.900 H 60.489 C 60.544 211.900 60.589 211.855 60.589 211.800 V 208.900 C 60.589 208.800 60.489 208.900 60.589 208.900 H 66.699 H 66.025 C 66.081 208.900 66.125 208.855 66.125 208.800 V 200.900 C 66.125 200.800 66.025 200.900 66.125 200.900 H 68.879 C 68.934 200.900 68.979 200.855 68.979 200.800 V 194.800 C 68.979 194.745 68.934 194.700 68.879 194.700 H 66.125 C 66.025 194.700 66.125 194.800 66.125 194.700 V 188.900 C 66.125 188.800 66.025 188.900 66.125 188.900 H 68.879 C 68.934 188.900 68.979 188.855 68.979 188.800 V 182.800 C 68.979 182.745 68.934 182.700 68.879 182.700 H 66.125 C 66.025 182.700 66.125 182.800 66.125 182.700 V 176.900 C 66.125 176.800 66.025 176.900 66.125 176.900 H 68.879 C 68.934 176.900 68.979 176.855 68.979 176.800 V 170.800 C 68.979 170.745 68.934 170.700 68.879 170.700 H 66.125 C 66.025 170.700 66.125 170.800 66.125 170.700 V 164.900 C 66.125 164.800 66.025 164.900 66.125 164.900 H 68.879 C 68.934 164.900 68.979 164.855 68.979 164.800 V 158.800 C 68.979 158.745 68.934 158.700 68.879 158.700 H 66.125 C 66.025 158.700 66.125 158.800 66.125 158.700 V 152.900 C 66.125 152.800 66.025 152.900 66.125 152.900 H 68.879 C 68.934 152.900 68.979 152.855 68.979 152.800 V 146.800 C 68.979 146.745 68.934 146.700 68.879 146.700 H 66.125 C 66.025 146.700 66.125 146.800 66.125 146.700 V 140.900 C 66.125 140.800 66.025 140.900 66.125 140.900 H 68.879 C 68.934 140.900 68.979 140.855 68.979 140.800 V 134.800 C 68.979 134.745 68.934 134.700 68.879 134.700 H 66.125 C 66.025 134.700 66.125 134.800 66.125 134.700 V 128.900 C 66.125 128.800 66.025 128.900 66.125 128.900 H 68.879 C 68.934 128.900 68.979 128.855 68.979 128.800 V 122.800 C 68.979 122.745 68.934 122.700 68.879 122.700 H 66.125 C 66.025 122.700 66.125 122.800 66.125 122.700 V 114.800 V 111.800 C 66.125 111.745 66.081 111.700 66.025 111.700 H 66.699 H 57.762 C 57.569 111.700 57.379 111.751 57.212 111.847 C 57.044 111.944 56.906 112.083 56.809 112.250 C 56.713 112.417 56.662 112.607 56.662 112.800 V 161.700 C 56.662 161.800 56.762 161.700 56.662 161.700 H 47.629 C 47.529 161.700 47.629 161.800 47.629 161.700 V 117.800 C 47.629 117.256 47.485 116.721 47.213 116.250 C 46.941 115.779 46.550 115.387 46.079 115.115 C 45.607 114.843 45.073 114.700 44.529 114.700 H 34.450 C 33.906 114.700 33.371 114.843 32.900 115.115 C 32.429 115.387 32.037 115.779 31.765 116.250 C 31.493 116.721 31.350 117.256 31.350 117.800 V 161.700 C 31.350 161.800 31.450 161.700 31.350 161.700 H 22.317 C 22.217 161.700 22.317 161.800 22.317 161.700 V 112.800 C 22.317 112.607 22.266 112.417 22.169 112.250 C 22.073 112.083 21.934 111.944 21.767 111.847 C 21.600 111.751 21.410 111.700 21.217 111.700 H 12.280 H 10.100 C 10.045 111.700 10.000 111.745 10.000 111.800 V 114.800 V 122.800 C 10.000 122.855 10.045 122.900 10.100 122.900 H 12.853 C 12.953 122.900 12.853 122.800 12.853 122.900 V 128.700 C 12.853 128.800 12.953 128.700 12.853 128.700 H 10.100 C 10.045 128.700 10.000 128.745 10.000 128.800 V 134.800 C 10.000 134.855 10.045 134.900 10.100 134.900 H 12.853 C 12.953 134.900 12.853 134.800 12.853 134.900 V 140.700 C 12.853 140.800 12.953 140.700 12.853 140.700 H 10.100 C 10.045 140.700 10.000 140.745 10.000 140.800 V 146.800 C 10.000 146.855 10.045 146.900 10.100 146.900 H 12.853 C 12.953 146.900 12.853 146.800 12.853 146.900 V 152.700 C 12.853 152.800 12.953 152.700 12.853 152.700 H 10.100 C 10.045 152.700 10.000 152.745 10.000 152.800 V 158.800 C 10.000 158.855 10.045 158.900 10.100 158.900 H 12.853 C 12.953 158.900 12.853 158.800 12.853 158.900 V 164.700 C 12.853 164.800 12.953 164.700 12.853 164.700 H 10.100 C 10.045 164.700 10.000 164.745 10.000 164.800 V 170.800 C 10.000 170.855 10.045 170.900 10.100 170.900 H 12.853 C 12.953 170.900 12.853 170.800 12.853 170.900 V 176.700 C 12.853 176.800 12.953 176.700 12.853 176.700 H 10.100 C 10.045 176.700 10.000 176.745 10.000 176.800 V 182.800 C 10.000 182.855 10.045 182.900 10.100 182.900 H 12.853 C 12.953 182.900 12.853 182.800 12.853 182.900 V 188.700 C 12.853 188.800 12.953 188.700 12.853 188.700 H 10.100 C 10.045 188.700 10.000 188.745 10.000 188.800 V 194.800 C 10.000 194.855 10.045 194.900 10.100 194.900 H 12.853 C 12.953 194.900 12.853 194.800 12.853 194.900 V 200.700 C 12.853 200.800 12.953 200.700 12.853 200.700 H 10.100 C 10.045 200.700 10.000 200.745 10.000 200.800 V 208.800 C 10.000 208.855 10.045 208.900 10.100 208.900 H 12.280 Z" stroke="rgb(0,0,0)" stroke-width="0.20" />
</g>
<g id="p-4" style="fill:none;stroke-linecap:round;stroke-linejoin:round;">
  <path d="M 72.758 208.900 H 78.868 C 78.968 208.900 78.868 208.800 78.868 208.900 V 211.800 C 78.868 211.855 78.913 211.900 78.968 211.900 H 84.968 C 85.023 211.900 85.068 211.855 85.068 211.800 V 208.900 C 85.068 208.800 84.968 208.900 85.068 208.900 H 90.868 C 90.968 208.900 90.868 208.800 90.868 208.900 V 211.800 C 90.868 211.855 90.913 211.900 90.968 211.900 H 96.968 C 97.023 211.900 97.068 211.855 97.068 211.800 V 208.900 C 97.068 208.800 96.968 208.900 97.068 208.900 H 102.868 C 102.968 208.900 102.868 208.800 102.868 208.900 V 211.800 C 102.868 211.855 102.913 211.900 102.968 211.900 H 108.968 C 109.023 211.900 109.068 211.855 109.068 211.800 V 208.900 C 109.068 208.800 108.968 208.900 109.068 208.900 H 114.868 C 114.968 208.900 114.868 208.800 114.868 208.900 V 211.800 C 114.868 211.855 114.913 211.900 114.968 211.900 H 120.968 C 121.023 211.900 121.068 211.855 121.068 211.800 V 208.900 C 121.068 208.800 120.968 208.900 121.068 208.900 H 127.177 H 126.504 C 126.559 208.900 126.604 208.855 126.604 208.800 V 200.900 C 126.604 200.800 126.504 200.900 126.604 200.900 H 129.357 C 129.412 200.900 129.457 200.855 129.457 200.800 V 194.800 C 129.457 194.745 129.412 194.700 129.357 194.700 H 126.604 C 126.504 194.700 126.604 194.800 126.604 194.700 V 188.900 C 126.604 188.800 126.504 188.900 126.604 188.900 H 129.357 C 129.412 188.900 129.457 188.855 129.457 188.800 V 182.800 C 129.457 182.745 129.412 182.700 129.357 182.700 H 126.604 C 126.504 182.700 126.604 182.800 126.604 182.700 V 176.900 C 126.604 176.800 126.504 176.900 126.604 176.900 H 129.357 C 129.412 176.900 129.457 176.855 129.457 176.800 V 170.800 C 129.457 170.745 129.412 170.700 129.357 170.700 H 126.604 C 126.504 170.700 126.604 170.800 126.604 170.700 V 164.900 C 126.604 164.800 126.504 164.900 126.604 164.900 H 129.357 C 129.412 164.900 129.457 164.855 129.457 164.800 V 158.800 C 129.457 158.745 129.412 158.700 129.357 158.700 H 126.604 C 126.504 158.700 126.604 158.800 126.604 158.700 V 152.900 C 126.604 152.800 126.504 152.900 126.604 152.900 H 129.357 C 129.412 152.900 129.457 152.855 129.457 152.800 V 146.800 C 129.457 146.745 129.412 146.700 129.357 146.700 H 126.604 C 126.504 146.700 126.604 146.800 126.604 146.700 V 140.900 C 126.604 140.800 126.504 140.900 126.604 140.900 H 129.357 C 129.412 140.900 129.457 140.855 129.457 140.800 V 134.800 C 129.457 134.745 129.412 134.700 129.357 134.700 H 126.604 C 126.504 134.700 126.604 134.800 126.604 134.700 V 128.900 C 126.604 128.800 126.504 128.900 126.604 128.900 H 129.357 C 129.412 128.900 129.457 128.855 129.457 128.800 V 122.800 C 129.457 122.745 129.412 122.700 129.357 122.700 H 126.604 C 126.504 122.700 126.604 122.800 126.604 122.700 V 114.800 V 111.800 C 126.604 111.745 126.559 111.700 126.504 111.700 H 127.177 H 118.240 C 118.047 111.700 117.857 111.751 117.690 111.847 C 117.523 111.944 117.384 112.083 117.288 112.250 C 117.191 112.417 117.140 112.607 117.140 112.800 V 161.700 C 117.140 161.800 117.240 161.700 117.140 161.700 H 108.107 C 108.007 161.700 108.107 161.800 108.107 161.700 V 117.800 C 108.107 117.256 107.964 116.721 107.692 116.250 C 107.420 115.779 107.028 115.387 106.557 115.115 C 106.086 114.843 105.551 114.700 105.007 114.700 H 94.928 C 94.384 114.700 93.850 114.843 93.378 115.115 C 92.907 115.387 92.516 115.779 92.244 116.250 C 91.972 116.721 91.828 117.256 91.828 117.800 V 161.700 C 91.828 161.800 91.928 161.700 91.828 161.700 H 82.795 C 82.695 161.700 82.795 161.800 82.795 161.700 V 112.800 C 82.795 112.607 82.745 112.417 82.648 112.250 C 82.551 112.083 82.413 111.944 82.245 111.847 C 82.078 111.751 81.888 111.700 81.695 111.700 H 72.758 H 70.579 C 70.523 111.700 70.479 111.745 70.479 111.800 V 114.800 V 122.800 C 70.479 122.855 70.523 122.900 70.579 122.900 H 73.332 C 73.432 122.900 73.332 122.800 73.332 122.900 V 128.700 C 73.332 128.800 73.432 128.700 73.332 128.700 H 70.579 C 70.523 128.700 70.479 128.745 70.479 128.800 V 134.800 C 70.479 134.855 70.523 134.900 70.579 134.900 H 73.332 C 73.432 134.900 73.332 134.800 73.332 134.900 V 140.700 C 73.332 140.800 73.432 140.700 73.332 140.700 H 70.579 C 70.523 140.700 70.479 140.745 70.479 140.800 V 146.800 C 70.479 146.855 70.523 146.900 70.579 146.900 H 73.332 C 73.432 146.900 73.332 146.800 73.332 146.900 V 152.700 C 73.332 152.800 73.432 152.700 73.332 152.700 H 70.579 C 70.523 152.700 70.479 152.745 70.479 152.800 V 158.800 C 70.479 158.855 70.523 158.900 70.579 158.900 H 73.332 C 73.432 158.900 73.332 158.800 73.332 158.900 V 164.700 C 73.332 164.800 73.432 164.700 73.332 164.700 H 70.579 C 70.523 164.700 70.479 164.745 70.479 164.800 V 170.800 C 70.479 170.855 70.523 170.900 70.579 170.900 H 73.332 C 73.432 170.900 73.332 170.800 73.332 170.900 V 176.700 C 73.332 176.800 73.432 176.700 73.332 176.700 H 70.579 C 70.523 176.700 70.479 176.745 70.479 176.800 V 182.800 C 70.479 182.855 70.523 182.900 70.579 182.900 H 73.332 C 73.432 182.900 73.332 182.800 73.332 182.900 V 188.700 C 73.332 188.800 73.432 188.700 73.332 188.700 H 70.579 C 70.523 188.700 70.479 188.745 70.479 188.800 V 194.800 C 70.479 194.855 70.523 194.900 70.579 194.900 H 73.332 C 73.432 194.900 73.332 194.800 73.332 194.900 V 200.700 C 73.332 200.800 73.432 200.700 73.332 200.700 H 70.579 C 70.523 200.700 70.479 200.745 70.479 200.800 V 208.800 C 70.479 208.855 70.523 208.900 70.579 208.900 H 72.758 Z" stroke="rgb(0,0,0)" stroke-width="0.20" />
</g>
<g id="p-5" style="fill:none;stroke-linecap:round;stroke-linejoin:round;">
  <path d="M 133.237 208.900 H 139.346 C 139.446 208.900 139.346 208.800 139.346 208.900 V 211.800 C 139.346 211.855 139.391 211.900 139.446 211.900 H 145.446 C 145.502 211.900 145.546 211.855 145.546 211.800 V 208.900 C 145.546 208.800 145.446 208.900 145.546 208.900 H 151.346 C 151.446 208.900 151.346 208.800 151.346 208.900 V 211.800 C 151.346 211.855 151.391 211.900 151.446 211.900 H 157.446 C 157.502 211.900 157.546 211.855 157.546 211.800 V 208.900 C 157.546 208.800 157.446 208.900 157.546 208.900 H 163.346 C 163.446 208.900 163.346 208.800 163.346 208.900 V 211.800 C 163.346 211.855 163.391 211.900 163.446 211.900 H 169.446 C 169.502 211.900 169.546 211.855 169.546 211.800 V 208.900 C 169.546 208.800 169.446 208.900 169.546 208.900 H 175.346 C 175.446 208.900 175.346 208.800 175.346 208.900 V 211.800 C 175.346 211.855 175.391 211.900 175.446 211.900 H 181.446 C 181.502 211.900 181.546 211.855 181.546 211.800 V 208.900 C 181.546 208.800 181.446 208.900 181.546 208.900 H 187.656 H 186.982 C 187.038 208.900 187.082 208.855 187.082 208.800 V 200.900 C 187.082 200.800 186.982 200.900 187.082 200.900 H 189.836 C 189.891 200.900 189.936 200.855 189.936 200.800 V 194.800 C 189.936 194.745 189.891 194.700 189.836 194.700 H 187.082 C 186.982 194.700 187.082 194.800 187.082 194.700 V 188.900 C 187.082 188.800 186.982 188.900 187.082 188.900 H 189.836 C 189.891 188.900 189.936 188.855 189.936 188.800 V 182.800 C 189.936 182.745 189.891 182.700 189.836 182.700 H 187.082 C 186.982 182.700 187.082 182.800 187.082 182.700 V 176.900 C 187.082 176.800 186.982 176.900 187.082 176.900 H 189.836 C 189.891 176.900 189.936 176.855 189.936 176.800 V 170.800 C 189.936 170.745 189.891 170.700 189.836 170.700 H 187.082 C 186.982 170.700 187.082 170.800 187.082 170.700 V 164.900 C 187.082 164.800 186.982 164.900 187.082 164.900 H 189.836 C 189.891 164.900 189.936 164.855 189.936 164.800 V 158.800 C 189.936 158.745 189.891 158.700 189.836 158.700 H 187.082 C 186.982 158.700 187.082 158.800 187.082 158.700 V 152.900 C 187.082 152.800 186.982 152.900 187.082 152.900 H 189.836 C 189.891 152.900 189.936 152.855 189.936 152.800 V 146.800 C 189.936 146.745 189.891 146.700 189.836 146.700 H 187.082 C 186.982 146.700 187.082 146.800 187.082 146.700 V 140.900 C 187.082 140.800 186.982 140.900 187.082 140.900 H 189.836 C 189.891 140.900 189.936 140.855 189.936 140.800 V 134.800 C 189.936 134.745 189.891 134.700 189.836 134.700 H 187.082 C 186.982 134.700 187.082 134.800 187.082 134.700 V 128.900 C 187.082 128.800 186.982 128.900 187.082 128.900 H 189.836 C 189.891 128.900 189.936 128.855 189.936 128.800 V 122.800 C 189.936 122.745 189.891 122.700 189.836 122.700 H 187.082 C 186.982 122.700 187.082 122.800 187.082 122.700 V 114.800 V 111.800 C 187.082 111.745 187.038 111.700 186.982 111.700 H 187.656 H 178.719 C 178.526 111.700 178.336 111.751 178.169 111.847 C 178.002 111.944 177.863 112.083 177.766 112.250 C 177.670 112.417 177.619 112.607 177.619 112.800 V 161.700 C 177.619 161.800 177.719 161.700 177.619 161.700 H 168.586 C 168.486 161.700 168.586 161.800 168.586 161.700 V 117.800 C 168.586 117.256 168.442 116.721 168.170 116.250 C 167.898 115.779 167.507 115.387 167.036 115.115 C 166.564 114.843 166.030 114.700 165.486 114.700 H 155.407 C 154.863 114.700 154.328 114.843 153.857 115.115 C 153.386 115.387 152.994 115.779 152.722 116.250 C 152.450 116.721 152.307 117.256 152.307 117.800 V 161.700 C 152.307 161.800 152.407 161.700 152.307 161.700 H 143.274 C 143.174 161.700 143.274 161.800 143.274 161.700 V 112.800 C 143.274 112.607 143.223 112.417 143.127 112.250 C 143.030 112.083 142.891 111.944 142.724 111.847 C 142.557 111.751 142.367 111.700 142.174 111.700 H 133.237 H 131.057 C 131.002 111.700 130.957 111.745 130.957 111.800 V 114.800 V 122.800 C 130.957 122.855 131.002 122.900 131.057 122.900 H 133.810 C 133.910 122.900 133.810 122.800 133.810 122.900 V 128.700 C 133.810 128.800 133.910 128.700 133.810 128.700 H 131.057 C 131.002 128.700 130.957 128.745 130.957 128.800 V 134.800 C 130.957 134.855 131.002 134.900 131.057 134.900 H 133.810 C 133.910 134.900 133.810 134.800 133.810 134.900 V 140.700 C 133.810 140.800 133.910 140.700 133.810 140.700 H 131.057 C 131.002 140.700 130.957 140.745 130.957 140.800 V 146.800 C 130.957 146.855 131.002 146.900 131.057 146.900 H 133.810 C 133.910 146.900 133.810 146.800 133.810 146.900 V 152.700 C 133.810 152.800 133.910 152.700 133.810 152.700 H 131.057 C 131.002 152.700 130.957 152.745 130.957 152.800 V 158.800 C 130.957 158.855 131.002 158.900 131.057 158.900 H 133.810 C 133.910 158.900 133.810 158.800 133.810 158.900 V 164.700 C 133.810 164.800 133.910 164.700 133.810 164.700 H 131.057 C 131.002 164.700 130.957 164.745 130.957 164.800 V 170.800 C 130.957 170.855 131.002 170.900 131.057 170.900 H 133.810 C 133.910 170.900 133.810 170.800 133.810 170.900 V 176.700 C 133.810 176.800 133.910 176.700 133.810 176.700 H 131.057 C 131.002 176.700 130.957 176.745 130.957 176.800 V 182.800 C 130.957 182.855 131.002 182.900 131.057 182.900 H 133.810 C 133.910 182.900 133.810 182.800 133.810 182.900 V 188.700 C 133.810 188.800 133.910 188.700 133.810 188.700 H 131.057 C 131.002 188.700 130.957 188.745 130.957 188.800 V 194.800 C 130.957 194.855 131.002 194.900 131.057 194.900 H 133.810 C 133.910 194.900 133.810 194.800 133.810 194.900 V 200.700 C 133.810 200.800 133.910 200.700 133.810 200.700 H 131.057 C 131.002 200.700 130.957 200.745 130.957 200.800 V 208.800 C 130.957 208.855 131.002 208.900 131.057 208.900 H 133.237 Z" stroke="rgb(0,0,0)" stroke-width="0.20" />
</g>
<g id="p-6" style="fill:none;stroke-linecap:round;stroke-linejoin:round;">
  <path d="M 193.715 208.900 H 199.825 C 199.925 208.900 199.825 208.800 199.825 208.900 V 211.800 C 199.825 211.855 199.870 211.900 199.925 211.900 H 205.925 C 205.980 211.900 206.025 211.855 206.025 211.800 V 208.900 C 206.025 208.800 205.925 208.900 206.025 208.900 H 211.825 C 211.925 208.900 211.825 208.800 211.825 208.900 V 211.800 C 211.825 211.855 211.870 211.900 211.925 211.900 H 217.925 C 217.980 211.900 218.025 211.855 218.025 211.800 V 208.900 C 218.025 208.800 217.925 208.900 218.025 208.900 H 223.825 C 223.925 208.900 223.825 208.800 223.825 208.900 V 211.800 C 223.825 211.855 223.870 211.900 223.925 211.900 H 229.925 C 229.980 211.900 230.025 211.855 230.025 211.800 V 208.900 C 230.025 208.800 229.925 208.900 230.025 208.900 H 235.825 C 235.925 208.900 235.825 208.800 235.825 208.900 V 211.800 C 235.825 211.855 235.870 211.900 235.925 211.900 H 241.925 C 241.980 211.900 242.025 211.855 242.025 211.800 V 208.900 C 242.025 208.800 241.925 208.900 242.025 208.900 H 248.134 H 247.461 C 247.516 208.900 247.561 208.855 247.561 208.800 V 200.900 C 247.561 200.800 247.461 200.900 247.561 200.900 H 250.314 C 250.369 200.900 250.414 200.855 250.414 200.800 V 194.800 C 250.414 194.745 250.369 194.700 250.314 194.700 H 247.561 C 247.461 194.700 247.561 194.800 247.561 194.700 V 188.900 C 247.561 188.800 247.461 188.900 247.561 188.900 H 250.314 C 250.369 188.900 250.414 188.855 250.414 188.800 V 182.800 C 250.414 182.745 250.369 182.700 250.314 182.700 H 247.561 C 247.461 182.700 247.561 182.800 247.561 182.700 V 176.900 C 247.561 176.800 247.461 176.900 247.561 176.900 H 250.314 C 250.369 176.900 250.414 176.855 250.414 176.800 V 170.800 C 250.414 170.745 250.369 170.700 250.314 170.700 H 247.561 C 247.461 170.700 247.561 170.800 247.561 170.700 V 164.900 C 247.561 164.800 247.461 164.900 247.561 164.900 H 250.314 C 250.369 164.900 250.414 164.855 250.414 164.800 V 158.800 C 250.414 158.745 250.369 158.700 250.314 158.700 H 247.561 C 247.461 158.700 247.561 158.800 247.561 158.700 V 152.900 C 247.561 152.800 247.461 152.900 247.561 152.900 H 250.314 C 250.369 152.900 250.414 152.855 250.414 152.800 V 146.800 C 250.414 146.745 250.369 146.700 250.314 146.700 H 247.561 C 247.461 146.700 247.561 146.800 247.561 146.700 V 140.900 C 247.561 140.800 247.461 140.900 247.561 140.900 H 250.314 C 250.369 140.900 250.414 140.855 250.414 140.800 V 134.800 C 250.414 134.745 250.369 134.700 250.314 134.700 H 247.561 C 247.461 134.700 247.561 134.800 247.561 134.700 V 128.900 C 247.561 128.800 247.461 128.900 247.561 128.900 H 250.314 C 250.369 128.900 250.414 128.855 250.414 128.800 V 122.800 C 250.414 122.745 250.369 122.700 250.314 122.700 H 247.561 C 247.461 122.700 247.561 122.800 247.561 122.700 V 114.800 V 111.800 C 247.561 111.745 247.516 111.700 247.461 111.700 H 248.134 H 239.197 C 239.004 111.700 238.814 111.751 238.647 111.847 C 238.480 111.944 238.341 112.083 238.245 112.250 C 238.148 112.417 238.097 112.607 238.097 112.800 V 161.700 C 238.097 161.800 238.197 161.700 238.097 161.700 H 229.064 C 228.964 161.700 229.064 161.800 229.064 161.700 V 117.800 C 229.064 117.256 228.921 116.721 228.649 116.250 C 228.377 115.779 227.985 115.387 227.514 115.115 C 227.043 114.843 226.508 114.700 225.964 114.700 H 215.885 C 215.341 114.700 214.807 114.843 214.335 115.115 C 213.864 115.387 213.473 115.779 213.201 116.250 C 212.929 116.721 212.785 117.256 212.785 117.800 V 161.700 C 212.785 161.800 212.885 161.700 212.785 161.700 H 203.752 C 203.652 161.700 203.752 161.800 203.752 161.700 V 112.800 C 203.752 112.607 203.702 112.417 203.605 112.250 C 203.508 112.083 203.370 111.944 203.202 111.847 C 203.035 111.751 202.846 111.700 202.652 111.700 H 193.715 H 191.536 C 191.480 111.700 191.436 111.745 191.436 111.800 V 114.800 V 122.800 C 191.436 122.855 191.480 122.900 191.536 122.900 H 194.289 C 194.389 122.900 194.289 122.800 194.289 122.900 V 128.700 C 194.289 128.800 194.389 128.700 194.289 128.700 H 191.536 C 191.480 128.700 191.436 128.745 191.436 128.800 V 134.800 C 191.436 134.855 191.480 134.900 191.536 134.900 H 194.289 C 194.389 134.900 194.289 134.800 194.289 134.900 V 140.700 C 194.289 140.800 194.389 140.700 194.289 140.700 H 191.536 C 191.480 140.700 191.436 140.745 191.436 140.800 V 146.800 C 191.436 146.855 191.480 146.900 191.536 146.900 H 194.289 C 194.389 146.900 194.289 146.800 194.289 146.900 V 152.700 C 194.289 152.800 194.389 152.700 194.289 152.700 H 191.536 C 191.480 152.700 191.436 152.745 191.436 152.800 V 158.800 C 191.436 158.855 191.480 158.900 191.536 158.900 H 194.289 C 194.389 158.900 194.289 158.800 194.289 158.900 V 164.700 C 194.289 164.800 194.389 164.700 194.289 164.700 H 191.536 C 191.480 164.700 191.436 164.745 191.436 164.800 V 170.800 C 191.436 170.855 191.480 170.900 191.536 170.900 H 194.289 C 194.389 170.900 194.289 170.800 194.289 170.900 V 176.700 C 194.289 176.800 194.389 176.700 194.289 176.700 H 191.536 C 191.480 176.700 191.436 176.745 191.436 176.800 V 182.800 C 191.436 182.855 191.480 182.900 191.536 182.900 H 194.289 C 194.389 182.900 194.289 182.800 194.289 182.900 V 188.700 C 194.289 188.800 194.389 188.700 194.289 188.700 H 191.536 C 191.480 188.700 191.436 188.745 191.436 188.800 V 194.800 C 191.436 194.855 191.480 194.900 191.536 194.900 H 194.289 C 194.389 194.900 194.289 194.800 194.289 194.900 V 200.700 C 194.289 200.800 194.389 200.700 194.289 200.700 H 191.536 C 191.480 200.700 191.436 200.745 191.436 200.800 V 208.800 C 191.436 208.855 191.480 208.900 191.536 208.900 H 193.715 Z" stroke="rgb(0,0,0)" stroke-width="0.20" />
</g>
<g id="p-7" style="fill:none;stroke-linecap:round;stroke-linejoin:round;">
  <path d="M 254.194 208.900 H 260.303 C 260.403 208.900 260.303 208.800 260.303 208.900 V 211.800 C 260.303 211.855 260.348 211.900 260.403 211.900 H 266.403 C 266.459 211.900 266.503 211.855 266.503 211.800 V 208.900 C 266.503 208.800 266.403 208.900 266.503 208.900 H 272.303 C 272.403 208.900 272.303 208.800 272.303 208.900 V 211.800 C 272.303 211.855 272.348 211.900 272.403 211.900 H 278.403 C 278.459 211.900 278.503 211.855 278.503 211.800 V 208.900 C 278.503 208.800 278.403 208.900 278.503 208.900 H 284.303 C 284.403 208.900 284.303 208.800 284.303 208.900 V 211.800 C 284.303 211.855 284.348 211.900 284.403 211.900 H 290.403 C 290.459 211.900 290.503 211.855 290.503 211.800 V 208.900 C 290.503 208.800 290.403 208.900 290.503 208.900 H 296.303 C 296.403 208.900 296.303 208.800 296.303 208.900 V 211.800 C 296.303 211.855 296.348 211.900 296.403 211.900 H 302.403 C 302.459 211.900 302.503 211.855 302.503 211.800 V 208.900 C 302.503 208.800 302.403 208.900 302.503 208.900 H 308.613 H 307.939 C 307.995 208.900 308.039 208.855 308.039 208.800 V 200.900 C 308.039 200.800 307.939 200.900 308.039 200.900 H 310.793 C 310.848 200.900 310.893 200.855 310.893 200.800 V 194.800 C 310.893 194.745 310.848 194.700 310.793 194.700 H 308.039 C 307.939 194.700 308.039 194.800 308.039 194.700 V 188.900 C 308.039 188.800 307.939 188.900 308.039 188.900 H 310.793 C 310.848 188.900 310.893 188.855 310.893 188.800 V 182.800 C 310.893 182.745 310.848 182.700 310.793 182.700 H 308.039 C 307.939 182.700 308.039 182.800 308.039 182.700 V 176.900 C 308.039 176.800 307.939 176.900 308.039 176.900 H 310.793 C 310.848 176.900 310.893 176.855 310.893 176.800 V 170.800 C 310.893 170.745 310.848 170.700 310.793 170.700 H 308.039 C 307.939 170.700 308.039 170.800 308.039 170.700 V 164.900 C 308.039 164.800 307.939 164.900 308.039 164.900 H 310.793 C 310.848 164.900 310.893 164.855 310.893 164.800 V 158.800 C 310.893 158.745 310.848 158.700 310.793 158.700 H 308.039 C 307.939 158.700 308.039 158.800 308.039 158.700 V 152.900 C 308.039 152.800 307.939 152.900 308.039 152.900 H 310.793 C 310.848 152.900 310.893 152.855 310.893 152.800 V 146.800 C 310.893 146.745 310.848 146.700 310.793 146.700 H 308.039 C 307.939 146.700 308.039 146.800 308.039 146.700 V 140.900 C 308.039 140.800 307.939 140.900 308.039 140.900 H 310.793 C 310.848 140.900 310.893 140.855 310.893 140.800 V 134.800 C 310.893 134.745 310.848 134.700 310.793 134.700 H 308.039 C 307.939 134.700 308.039 134.800 308.039 134.700 V 128.900 C 308.039 128.800 307.939 128.900 308.039 128.900 H 310.793 C 310.848 128.900 310.893 128.855 310.893 128.800 V 122.800 C 310.893 122.745 310.848 122.700 310.793 122.700 H 308.039 C 307.939 122.700 308.039 122.800 308.039 122.700 V 114.800 V 111.800 C 308.039 111.745 307.995 111.700 307.939 111.700 H 308.613 H 299.676 C 299.483 111.700 299.293 111.751 299.126 111.847 C 298.959 111.944 298.820 112.083 298.723 112.250 C 298.627 112.417 298.576 112.607 298.576 112.800 V 161.700 C 298.576 161.800 298.676 161.700 298.576 161.700 H 289.543 C 289.443 161.700 289.543 161.800 289.543 161.700 V 117.800 C 289.543 117.256 289.399 116.721 289.127 116.250 C 288.855 115.779 288.464 115.387 287.993 115.115 C 287.521 114.843 286.987 114.700 286.443 114.700 H 276.364 C 275.820 114.700 275.285 114.843 274.814 115.115 C 274.343 115.387 273.951 115.779 273.679 116.250 C 273.407 116.721 273.264 117.256 273.264 117.800 V 161.700 C 273.264 161.800 273.364 161.700 273.264 161.700 H 264.231 C 264.131 161.700 264.231 161.800 264.231 161.700 V 112.800 C 264.231 112.607 264.180 112.417 264.084 112.250 C 263.987 112.083 263.848 111.944 263.681 111.847 C 263.514 111.751 263.324 111.700 263.131 111.700 H 254.194 H 252.014 C 251.959 111.700 251.914 111.745 251.914 111.800 V 114.800 V 122.800 C 251.914 122.855 251.959 122.900 252.014 122.900 H 254.767 C 254.867 122.900 254.767 122.800 254.767 122.900 V 128.700 C 254.767 128.800 254.867 128.700 254.767 128.700 H 252.014 C 251.959 128.700 251.914 128.745 251.914 128.800 V 134.800 C 251.914 134.855 251.959 134.900 252.014 134.900 H 254.767 C 254.867 134.900 254.767 134.800 254.767 134.900 V 140.700 C 254.767 140.800 254.867 140.700 254.767 140.700 H 252.014 C 251.959 140.700 251.914 140.745 251.914 140.800 V 146.800 C 251.914 146.855 251.959 146.900 252.014 146.900 H 254.767 C 254.867 146.900 254.767 146.800 254.767 146.900 V 152.700 C 254.767 152.800 254.867 152.700 254.767 152.700 H 252.014 C 251.959 152.700 251.914 152.745 251.914 152.800 V 158.800 C 251.914 158.855 251.959 158.900 252.014 158.900 H 254.767 C 254.867 158.900 254.767 158.800 254.767 158.900 V 164.700 C 254.767 164.800 254.867 164.700 254.767 164.700 H 252.014 C 251.959 164.700 251.914 164.745 251.914 164.800 V 170.800 C 251.914 170.855 251.959 170.900 252.014 170.900 H 254.767 C 254.867 170.900 254.767 170.800 254.767 170.900 V 176.700 C 254.767 176.800 254.867 176.700 254.767 176.700 H 252.014 C 251.959 176.700 251.914 176.745 251.914 176.800 V 182.800 C 251.914 182.855 251.959 182.900 252.014 182.900 H 254.767 C 254.867 182.900 254.767 182.800 254.767 182.900 V 188.700 C 254.767 188.800 254.867 188.700 254.767 188.700 H 252.014 C 251.959 188.700 251.914 188.745 251.914 188.800 V 194.800 C 251.914 194.855 251.959 194.900 252.014 194.900 H 254.767 C 254.867 194.900 254.767 194.800 254.767 194.900 V 200.700 C 254.767 200.800 254.867 200.700 254.767 200.700 H 252.014 C 251.959 200.700 251.914 200.745 251.914 200.800 V 208.800 C 251.914 208.855 251.959 208.900 252.014 208.900 H 254.194 Z" stroke="rgb(0,0,0)" stroke-width="0.20" />
</g>
<g id="p-8" style="fill:none;stroke-linecap:round;stroke-linejoin:round;">
  <path d="M 12.280 107.200 H 18.389 C 18.489 107.200 18.389 107.100 18.389 107.200 V 110.100 C 18.389 110.155 18.434 110.200 18.489 110.200 H 24.489 C 24.544 110.200 24.589 110.155 24.589 110.100 V 107.200 C 24.589 107.100 24.489 107.200 24.589 107.200 H 30.389 C 30.489 107.200 30.389 107.100 30.389 107.200 V 110.100 C 30.389 110.155 30.434 110.200 30.489 110.200 H 36.489 C 36.544 110.200 36.589 110.155 36.589 110.100 V 107.200 C 36.589 107.100 36.489 107.200 36.589 107.200 H 42.389 C 42.489 107.200 42.389 107.100 42.389 107.200 V 110.100 C 42.389 110.155 42.434 110.200 42.489 110.200 H 48.489 C 48.544 110.200 48.589 110.155 48.589 110.100 V 107.200 C 48.589 107.100 48.489 107.200 48.589 107.200 H 54.389 C 54.489 107.200 54.389 107.100 54.389 107.200 V 110.100 C 54.389 110.155 54.434 110.200 54.489 110.200 H 60.489 C 60.544 110.200 60.589 110.155 60.589 110.100 V 107.200 C 60.589 107.100 60.489 107.200 60.589 107.200 H 66.699 H 66.025 C 66.081 107.200 66.125 107.155 66.125 107.100 V 99.200 C 66.125 99.100 66.025 99.200 66.125 99.200 H 68.879 C 68.934 99.200 68.979 99.155 68.979 99.100 V 93.100 C 68.979 93.045 68.934 93.000 68.879 93.000 H 66.125 C 66.025 93.000 66.125 93.100 66.125 93.000 V 87.200 C 66.125 87.100 66.025 87.200 66.125 87.200 H 68.879 C 68.934 87.200 68.979 87.155 68.979 87.100 V 81.100 C 68.979 81.045 68.934 81.000 68.879 81.000 H 66.125 C 66.025 81.000 66.125 81.100 66.125 81.000 V 75.200 C 66.125 75.100 66.025 75.200 66.125 75.200 H 68.879 C 68.934 75.200 68.979 75.155 68.979 75.100 V 69.100 C 68.979 69.045 68.934 69.000 68.879 69.000 H 66.125 C 66.025 69.000 66.125 69.100 66.125 69.000 V 63.200 C 66.125 63.100 66.025 63.200 66.125 63.200 H 68.879 C 68.934 63.200 68.979 63.155 68.979 63.100 V 57.100 C 68.979 57.045 68.934 57.000 68.879 57.000 H 66.125 C 66.025 57.000 66.125 57.100 66.125 57.000 V 51.200 C 66.125 51.100 66.025 51.200 66.125 51.200 H 68.879 C 68.934 51.200 68.979 51.155 68.979 51.100 V 45.100 C 68.979 45.045 68.934 45.000 68.879 45.000 H 66.125 C 66.025 45.000 66.125 45.100 66.125 45.000 V 39.200 C 66.125 39.100 66.025 39.200 66.125 39.200 H 68.879 C 68.934 39.200 68.979 39.155 68.979 39.100 V 33.100 C 68.979 33.045 68.934 33.000 68.879 33.000 H 66.125 C 66.025 33.000 66.125 33.100 66.125 33.000 V 27.200 C 66.125 27.100 66.025 27.200 66.125 27.200 H 68.879 C 68.934 27.200 68.979 27.155 68.979 27.100 V 21.100 C 68.979 21.045 68.934 21.000 68.879 21.000 H 66.125 C 66.025 21.000 66.125 21.100 66.125 21.000 V 13.100 V 10.100 C 66.125 10.045 66.081 10.000 66.025 10.000 H 66.699 H 57.762 C 57.569 10.000 57.379 10.051 57.212 10.147 C 57.044 10.244 56.906 10.383 56.809 10.550 C 56.713 10.717 56.662 10.907 56.662 11.100 V 60.000 C 56.662 60.100 56.762 60.000 56.662 60.000 H 47.629 C 47.529 60.000 47.629 60.100 47.629 60.000 V 16.100 C 47.629 15.556 47.485 15.021 47.213 14.550 C 46.941 14.079 46.550 13.687 46.079 13.415 C 45.607 13.143 45.073 13.000 44.529 13.000 H 34.450 C 33.906 13.000 33.371 13.143 32.900 13.415 C 32.429 13.687 32.037 14.079 31.765 14.550 C 31.493 15.021 31.350 15.556 31.350 16.100 V 60.000 C 31.350 60.100 31.450 60.000 31.350 60.000 H 22.317 C 22.217 60.000 22.317 60.100 22.317 60.000 V 11.100 C 22.317 10.907 22.266 10.717 22.169 10.550 C 22.073 10.383 21.934 10.244 21.767 10.147 C 21.600 10.051 21.410 10.000 21.217 10.000 H 12.280 H 10.100 C 10.045 10.000 10.000 10.045 10.000 10.100 V 13.100 V 21.100 C 10.000 21.155 10.045 21.200 10.100 21.200 H 12.853 C 12.953 21.200 12.853 21.100 12.853 21.200 V 27.000 C 12.853 27.100 12.953 27.000 12.853 27.000 H 10.100 C 10.045 27.000 10.000 27.045 10.000 27.100 V 33.100 C 10.000 33.155 10.045 33.200 10.100 33.200 H 12.853 C 12.953 33.200 12.853 33.100 12.853 33.200 V 39.000 C 12.853 39.100 12.953 39.000 12.853 39.000 H 10.100 C 10.045 39.000 10.000 39.045 10.000 39.100 V 45.100 C 10.000 45.155 10.045 45.200 10.100 45.200 H 12.853 C 12.953 45.200 12.853 45.100 12.853 45.200 V 51.000 C 12.853 51.100 12.953 51.000 12.853 51.000 H 10.100 C 10.045 51.000 10.000 51.045 10.000 51.100 V 57.100 C 10.000 57.155 10.045 57.200 10.100 57.200 H 12.853 C 12.953 57.200 12.853 57.100 12.853 57.200 V 63.000 C 12.853 63.100 12.953 63.000 12.853 63.000 H 10.100 C 10.045 63.000 10.000 63.045 10.000 63.100 V 69.100 C 10.000 69.155 10.045 69.200 10.100 69.200 H 12.853 C 12.953 69.200 12.853 69.100 12.853 69.200 V 75.000 C 12.853 75.100 12.953 75.000 12.853 75.000 H 10.100 C 10.045 75.000 10.000 75.045 10.000 75.100 V 81.100 C 10.000 81.155 10.045 81.200 10.100 81.200 H 12.853 C 12.953 81.200 12.853 81.100 12.853 81.200 V 87.000 C 12.853 87.100 12.953 87.000 12.853 87.000 H 10.100 C 10.045 87.000 10.000 87.045 10.000 87.100 V 93.100 C 10.000 93.155 10.045 93.200 10.100 93.200 H 12.853 C 12.953 93.200 12.853 93.100 12.853 93.200 V 99.000 C 12.853 99.100 12.953 99.000 12.853 99.000 H 10.100 C 10.045 99.000 10.000 99.045 10.000 99.100 V 107.100 C 10.000 107.155 10.045 107.200 10.100 107.200 H 12.280 Z" stroke="rgb(0,0,0)" stroke-width="0.20" />
</g>
<g id="p-9" style="fill:none;stroke-linecap:round;stroke-linejoin:round;">
  <path d="M 72.758 107.200 H 78.868 C 78.968 107.200 78.868 107.100 78.868 107.200 V 110.100 C 78.868 110.155 78.913 110.200 78.968 110.200 H 84.968 C 85.023 110.200 85.068 110.155 85.068 110.100 V 107.200 C 85.068 107.100 84.968 107.200 85.068 107.200 H 90.868 C 90.968 107.200 90.868 107.100 90.868 107.200 V 110.100 C 90.868 110.155 90.913 110.200 90.968 110.200 H 96.968 C 97.023 110.200 97.068 110.155 97.068 110.100 V 107.200 C 97.068 107.100 96.968 107.200 97.068 107.200 H 102.868 C 102.968 107.200 102.868 107.100 102.868 107.200 V 110.100 C 102.868 110.155 102.913 110.200 102.968 110.200 H 108.968 C 109.023 110.200 109.068 110.155 109.068 110.100 V 107.200 C 109.068 107.100 108.968 107.200 109.068 107.200 H 114.868 C 114.968 107.200 114.868 107.100 114.868 107.200 V 110.100 C 114.868 110.155 114.913 110.200 114.968 110.200 H 120.968 C 121.023 110.200 121.068 110.155 121.068 110.100 V 107.200 C 121.068 107.100 120.968 107.200 121.068 107.200 H 127.177 H 126.504 C 126.559 107.200 126.604 107.155 126.604 107.100 V 99.200 C 126.604 99.100 126.504 99.200 126.604 99.200 H 129.357 C 129.412 99.200 129.457 99.155 129.457 99.100 V 93.100 C 129.457 93.045 129.412 93.000 129.357 93.000 H 126.604 C 126.504 93.000 126.604 93.100 126.604 93.000 V 87.200 C 126.604 87.100 126.504 87.200 126.604 87.200 H 129.357 C 129.412 87.200 129.457 87.155 129.457 87.100 V 81.100 C 129.457 81.045 129.412 81.000 129.357 81.000 H 126.604 C 126.504 81.000 126.604 81.100 126.604 81.000 V 75.200 C 126.604 75.100 126.504 75.200 126.604 75.200 H 129.357 C 129.412 75.200 129.457 75.155 129.457 75.100 V 69.100 C 129.457 69.045 129.412 69.000 129.357 69.000 H 126.604 C 126.504 69.000 126.604 69.100 126.604 69.000 V 63.200 C 126.604 63.100 126.504 63.200 126.604 63.200 H 129.357 C 129.412 63.200 129.457 63.155 129.457 63.100 V 57.100 C 129.457 57.045 129.412 57.000 129.357 57.000 H 126.604 C 126.504 57.000 126.604 57.100 126.604 57.000 V 51.200 C 126.604 51.100 126.504 51.200 126.604 51.200 H 129.357 C 129.412 51.200 129.457 51.155 129.457 51.100 V 45.100 C 129.457 45.045 129.412 45.000 129.357 45.000 H 126.604 C 126.504 45.000 126.604 45.100 126.604 45.000 V 39.200 C 126.604 39.100 126.504 39.200 126.604 39.200 H 129.357 C 129.412 39.200 129.457 39.155 129.457 39.100 V 33.100 C 129.457 33.045 129.412 33.000 129.357 33.000 H 126.604 C 126.504 33.000 126.604 33.100 126.604 33.000 V 27.200 C 126.604 27.100 126.504 27.200 126.604 27.200 H 129.357 C 129.412 27.200 129.457 27.155 129.457 27.100 V 21.100 C 129.457 21.045 129.412 21.000 129.357 21.000 H 126.604 C 126.504 21.000 126.604 21.100 126.604 21.000 V 13.100 V 10.100 C 126.604 10.045 126.559 10.000 126.504 10.000 H 127.177 H 118.240 C 118.047 10.000 117.857 10.051 117.690 10.147 C 117.523 10.244 117.384 10.383 117.288 10.550 C 117.191 10.717 117.140 10.907 117.140 11.100 V 60.000 C 117.140 60.100 117.240 60.000 117.140 60.000 H 108.107 C 108.007 60.000 108.107 60.100 108.107 60.000 V 16.100 C 108.107 15.556 107.964 15.021 107.692 14.550 C 107.420 14.079 107.028 13.687 106.557 13.415 C 106.086 13.143 105.551 13.000 105.007 13.000 H 94.928 C 94.384 13.000 93.850 13.143 93.378 13.415 C 92.907 13.687 92.516 14.079 92.244 14.550 C 91.972 15.021 91.828 15.556 91.828 16.100 V 60.000 C 91.828 60.100 91.928 60.000 91.828 60.000 H 82.795 C 82.695 60.000 82.795 60.100 82.795 60.000 V 11.100 C 82.795 10.907 82.745 10.717 82.648 10.550 C 82.551 10.383 82.413 10.244 82.245 10.147 C 82.078 10.051 81.888 10.000 81.695 10.000 H 72.758 H 70.579 C 70.523 10.000 70.479 10.045 70.479 10.100 V 13.100 V 21.100 C 70.479 21.155 70.523 21.200 70.579 21.200 H 73.332 C 73.432 21.200 73.332 21.100 73.332 21.200 V 27.000 C 73.332 27.100 73.432 27.000 73.332 27.000 H 70.579 C 70.523 27.000 70.479 27.045 70.479 27.100 V 33.100 C 70.479 33.155 70.523 33.200 70.579 33.200 H 73.332 C 73.432 33.200 73.332 33.100 73.332 33.200 V 39.000 C 73.332 39.100 73.432 39.000 73.332 39.000 H 70.579 C 70.523 39.000 70.479 39.045 70.479 39.100 V 45.100 C 70.479 45.155 70.523 45.200 70.579 45.200 H 73.332 C 73.432 45.200 73.332 45.100 73.332 45.200 V 51.000 C 73.332 51.100 73.432 51.000 73.332 51.000 H 70.579 C 70.523 51.000 70.479 51.045 70.479 51.100 V 57.100 C 70.479 57.155 70.523 57.200 70.579 57.200 H 73.332 C 73.432 57.200 73.332 57.100 73.332 57.200 V 63.000 C 73.332 63.100 73.432 63.000 73.332 63.000 H 70.579 C 70.523 63.000 70.479 63.045 70.479 63.100 V 69.100 C 70.479 69.155 70.523 69.200 70.579 69.200 H 73.332 C 73.432 69.200 73.332 69.100 73.332 69.200 V 75.000 C 73.332 75.100 73.432 75.000 73.332 75.000 H 70.579 C 70.523 75.000 70.479 75.045 70.479 75.100 V 81.100 C 70.479 81.155 70.523 81.200 70.579 81.200 H 73.332 C 73.432 81.200 73.332 81.100 73.332 81.200 V 87.000 C 73.332 87.100 73.432 87.000 73.332 87.000 H 70.579 C 70.523 87.000 70.479 87.045 70.479 87.100 V 93.100 C 70.479 93.155 70.523 93.200 70.579 93.200 H 73.332 C 73.432 93.200 73.332 93.100 73.332 93.200 V 99.000 C 73.332 99.100 73.432 99.000 73.332 99.000 H 70.579 C 70.523 99.000 70.479 99.045 70.479 99.100 V 107.100 C 70.479 107.155 70.523 107.200 70.579 107.200 H 72.758 Z" stroke="rgb(0,0,0)" stroke-width="0.20" />
</g>
<g id="p-10" style="fill:none;stroke-linecap:round;stroke-linejoin:round;">
  <path d="M 133.237 107.200 H 139.346 C 139.446 107.200 139.346 107.100 139.346 107.200 V 110.100 C 139.346 110.155 139.391 110.200 139.446 110.200 H 145.446 C 145.502 110.200 145.546 110.155 145.546 110.100 V 107.200 C 145.546 107.100 145.446 107.200 145.546 107.200 H 151.346 C 151.446 107.200 151.346 107.100 151.346 107.200 V 110.100 C 151.346 110.155 151.391 110.200 151.446 110.200 H 157.446 C 157.502 110.200 157.546 110.155 157.546 110.100 V 107.200 C 157.546 107.100 157.446 107.200 157.546 107.200 H 163.346 C 163.446 107.200 163.346 107.100 163.346 107.200 V 110.100 C 163.346 110.155 163.391 110.200 163.446 110.200 H 169.446 C 169.502 110.200 169.546 110.155 169.546 110.100 V 107.200 C 169.546 107.100 169.446 107.200 169.546 107.200 H 175.346 C 175.446 107.200 175.346 107.100 175.346 107.200 V 110.100 C 175.346 110.155 175.391 110.200 175.446 110.200 H 181.446 C 181.502 110.200 181.546 110.155 181.546 110.100 V 107.200 C 181.546 107.100 181.446 107.200 181.546 107.200 H 187.656 H 186.982 C 187.038 107.200 187.082 107.155 187.082 107.100 V 99.200 C 187.082 99.100 186.982 99.200 187.082 99.200 H 189.836 C 189.891 99.200 189.936 99.155 189.936 99.100 V 93.100 C 189.936 93.045 189.891 93.000 189.836 93.000 H 187.082 C 186.982 93.000 187.082 93.100 187.082 93.000 V 87.200 C 187.082 87.100 186.982 87.200 187.082 87.200 H 189.836 C 189.891 87.200 189.936 87.155 189.936 87.100 V 81.100 C 189.936 81.045 189.891 81.000 189.836 81.000 H 187.082 C 186.982 81.000 187.082 81.100 187.082 81.000 V 75.200 C 187.082 75.100 186.982 75.200 187.082 75.200 H 189.836 C 189.891 75.200 189.936 75.155 189.936 75.100 V 69.100 C 189.936 69.045 189.891 69.000 189.836 69.000 H 187.082 C 186.982 69.000 187.082 69.100 187.082 69.000 V 63.200 C 187.082 63.100 186.982 63.200 187.082 63.200 H 189.836 C 189.891 63.200 189.936 63.155 189.936 63.100 V 57.100 C 189.936 57.045 189.891 57.000 189.836 57.000 H 187.082 C 186.982 57.000 187.082 57.100 187.082 57.000 V 51.200 C 187.082 51.100 186.982 51.200 187.082 51.200 H 189.836 C 189.891 51.200 189.936 51.155 189.936 51.100 V 45.100 C 189.936 45.045 189.891 45.000 189.836 45.000 H 187.082 C 186.982 45.000 187.082 45.100 187.082 45.000 V 39.200 C 187.082 39.100 186.982 39.200 187.082 39.200 H 189.836 C 189.891 39.200 189.936 39.155 189.936 39.100 V 33.100 C 189.936 33.045 189.891 33.000 189.836 33.000 H 187.082 C 186.982 33.000 187.082 33.100 187.082 33.000 V 27.200 C 187.082 27.100 186.982 27.200 187.082 27.200 H 189.836 C 189.891 27.200 189.936 27.155 189.936 27.100 V 21.100 C 189.936 21.045 189.891 21.000 189.836 21.000 H 187.082 C 186.982 21.000 187.082 21.100 187.082 21.000 V 13.100 V 10.100 C 187.082 10.045 187.038 10.000 186.982 10.000 H 187.656 H 178.719 C 178.526 10.000 178.336 10.051 178.169 10.147 C 178.002 10.244 177.863 10.383 177.766 10.550 C 177.670 10.717 177.619 10.907 177.619 11.100 V 60.000 C 177.619 60.100 177.719 60.000 177.619 60.000 H 168.586 C 168.486 60.000 168.586 60.100 168.586 60.000 V 16.100 C 168.586 15.556 168.442 15.021 168.170 14.550 C 167.898 14.079 167.507 13.687 167.036 13.415 C 166.564 13.143 166.030 13.000 165.486 13.000 H 155.407 C 154.863 13.000 154.328 13.143 153.857 13.415 C 153.386 13.687 152.994 14.079 152.722 14.550 C 152.450 15.021 152.307 15.556 152.307 16.100 V 60.000 C 152.307 60.100 152.407 60.000 152.307 60.000 H 143.274 C 143.174 60.000 143.274 60.100 143.274 60.000 V 11.100 C 143.274 10.907 143.223 10.717 143.127 10.550 C 143.030 10.383 142.891 10.244 142.724 10.147 C 142.557 10.051 142.367 10.000 142.174 10.000 H 133.237 H 131.057 C 131.002 10.000 130.957 10.045 130.957 10.100 V 13.100 V 21.100 C 130.957 21.155 131.002 21.200 131.057 21.200 H 133.810 C 133.910 21.200 133.810 21.100 133.810 21.200 V 27.000 C 133.810 27.100 133.910 27.000 133.810 27.000 H 131.057 C 131.002 27.000 130.957 27.045 130.957 27.100 V 33.100 C 130.957 33.155 131.002 33.200 131.057 33.200 H 133.810 C 133.910 33.200 133.810 33.100 133.810 33.200 V 39.000 C 133.810 39.100 133.910 39.000 133.810 39.000 H 131.057 C 131.002 39.000 130.957 39.045 130.957 39.100 V 45.100 C 130.957 45.155 131.002 45.200 131.057 45.200 H 133.810 C 133.910 45.200 133.810 45.100 133.810 45.200 V 51.000 C 133.810 51.100 133.910 51.000 133.810 51.000 H 131.057 C 131.002 51.000 130.957 51.045 130.957 51.100 V 57.100 C 130.957 57.155 131.002 57.200 131.057 57.200 H 133.810 C 133.910 57.200 133.810 57.100 133.810 57.200 V 63.000 C 133.810 63.100 133.910 63.000 133.810 63.000 H 131.057 C 131.002 63.000 130.957 63.045 130.957 63.100 V 69.100 C 130.957 69.155 131.002 69.200 131.057 69.200 H 133.810 C 133.910 69.200 133.810 69.100 133.810 69.200 V 75.000 C 133.810 75.100 133.910 75.000 133.810 75.000 H 131.057 C 131.002 75.000 130.957 75.045 130.957 75.100 V 81.100 C 130.957 81.155 131.002 81.200 131.057 81.200 H 133.810 C 133.910 81.200 133.810 81.100 133.810 81.200 V 87.000 C 133.810 87.100 133.910 87.000 133.810 87.000 H 131.057 C 131.002 87.000 130.957 87.045 130.957 87.100 V 93.100 C 130.957 93.155 131.002 93.200 131.057 93.200 H 133.810 C 133.910 93.200 133.810 93.100 133.810 93.200 V 99.000 C 133.810 99.100 133.910 99.000 133.810 99.000 H 131.057 C 131.002 99.000 130.957 99.045 130.957 99.100 V 107.100 C 130.957 107.155 131.002 107.200 131.057 107.200 H 133.237 Z" stroke="rgb(0,0,0)" stroke-width="0.20" />
</g>
<g id="p-11" style="fill:none;stroke-linecap:round;stroke-linejoin:round;">
  <path d="M 193.715 107.200 H 199.825 C 199.925 107.200 199.825 107.100 199.825 107.200 V 110.100 C 199.825 110.155 199.870 110.200 199.925 110.200 H 205.925 C 205.980 110.200 206.025 110.155 206.025 110.100 V 107.200 C 206.025 107.100 205.925 107.200 206.025 107.200 H 211.825 C 211.925 107.200 211.825 107.100 211.825 107.200 V 110.100 C 211.825 110.155 211.870 110.200 211.925 110.200 H 217.925 C 217.980 110.200 218.025 110.155 218.025 110.100 V 107.200 C 218.025 107.100 217.925 107.200 218.025 107.200 H 223.825 C 223.925 107.200 223.825 107.100 223.825 107.200 V 110.100 C 223.825 110.155 223.870 110.200 223.925 110.200 H 229.925 C 229.980 110.200 230.025 110.155 230.025 110.100 V 107.200 C 230.025 107.100 229.925 107.200 230.025 107.200 H 235.825 C 235.925 107.200 235.825 107.100 235.825 107.200 V 110.100 C 235.825 110.155 235.870 110.200 235.925 110.200 H 241.925 C 241.980 110.200 242.025 110.155 242.025 110.100 V 107.200 C 242.025 107.100 241.925 107.200 242.025 107.200 H 248.134 H 247.461 C 247.516 107.200 247.561 107.155 247.561 107.100 V 99.200 C 247.561 99.100 247.461 99.200 247.561 99.200 H 250.314 C 250.369 99.200 250.414 99.155 250.414 99.100 V 93.100 C 250.414 93.045 250.369 93.000 250.314 93.000 H 247.561 C 247.461 93.000 247.561 93.100 247.561 93.000 V 87.200 C 247.561 87.100 247.461 87.200 247.561 87.200 H 250.314 C 250.369 87.200 250.414 87.155 250.414 87.100 V 81.100 C 250.414 81.045 250.369 81.000 250.314 81.000 H 247.561 C 247.461 81.000 247.561 81.100 247.561 81.000 V 75.200 C 247.561 75.100 247.461 75.200 247.561 75.200 H 250.314 C 250.369 75.200 250.414 75.155 250.414 75.100 V 69.100 C 250.414 69.045 250.369 69.000 250.314 69.000 H 247.561 C 247.461 69.000 247.561 69.100 247.561 69.000 V 63.200 C 247.561 63.100 247.461 63.200 247.561 63.200 H 250.314 C 250.369 63.200 250.414 63.155 250.414 63.100 V 57.100 C 250.414 57.045 250.369 57.000 250.314 57.000 H 247.561 C 247.461 57.000 247.561 57.100 247.561 57.000 V 51.200 C 247.561 51.100 247.461 51.200 247.561 51.200 H 250.314 C 250.369 51.200 250.414 51.155 250.414 51.100 V 45.100 C 250.414 45.045 250.369 45.000 250.314 45.000 H 247.561 C 247.461 45.000 247.561 45.100 247.561 45.000 V 39.200 C 247.561 39.100 247.461 39.200 247.561 39.200 H 250.314 C 250.369 39.200 250.414 39.155 250.414 39.100 V 33.100 C 250.414 33.045 250.369 33.000 250.314 33.000 H 247.561 C 247.461 33.000 247.561 33.100 247.561 33.000 V 27.200 C 247.561 27.100 247.461 27.200 247.561 27.200 H 250.314 C 250.369 27.200 250.414 27.155 250.414 27.100 V 21.100 C 250.414 21.045 250.369 21.000 250.314 21.000 H 247.561 C 247.461 21.000 247.561 21.100 247.561 21.000 V 13.100 V 10.100 C 247.561 10.045 247.516 10.000 247.461 10.000 H 248.134 H 239.197 C 239.004 10.000 238.814 10.051 238.647 10.147 C 238.480 10.244 238.341 10.383 238.245 10.550 C 238.148 10.717 238.097 10.907 238.097 11.100 V 60.000 C 238.097 60.100 238.197 60.000 238.097 60.000 H 229.064 C 228.964 60.000 229.064 60.100 229.064 60.000 V 16.100 C 229.064 15.556 228.921 15.021 228.649 14.550 C 228.377 14.079 227.985 13.687 227.514 13.415 C 227.043 13.143 226.508 13.000 225.964 13.000 H 215.885 C 215.341 13.000 214.807 13.143 214.335 13.415 C 213.864 13.687 213.473 14.079 213.201 14.550 C 212.929 15.021 212.785 15.556 212.785 16.100 V 60.000 C 212.785 60.100 212.885 60.000 212.785 60.000 H 203.752 C 203.652 60.000 203.752 60.100 203.752 60.000 V 11.100 C 203.752 10.907 203.702 10.717 203.605 10.550 C 203.508 10.383 203.370 10.244 203.202 10.147 C 203.035 10.051 202.846 10.000 202.652 10.000 H 193.715 H 191.536 C 191.480 10.000 191.436 10.045 191.436 10.100 V 13.100 V 21.100 C 191.436 21.155 191.480 21.200 191.536 21.200 H 194.289 C 194.389 21.200 194.289 21.100 194.289 21.200 V 27.000 C 194.289 27.100 194.389 27.000 194.289 27.000 H 191.536 C 191.480 27.000 191.436 27.045 191.436 27.100 V 33.100 C 191.436 33.155 191.480 33.200 191.536 33.200 H 194.289 C 194.389 33.200 194.289 33.100 194.289 33.200 V 39.000 C 194.289 39.100 194.389 39.000 194.289 39.000 H 191.536 C 191.480 39.000 191.436 39.045 191.436 39.100 V 45.100 C 191.436 45.155 191.480 45.200 191.536 45.200 H 194.289 C 194.389 45.200 194.289 45.100 194.289 45.200 V 51.000 C 194.289 51.100 194.389 51.000 194.289 51.000 H 191.536 C 191.480 51.000 191.436 51.045 191.436 51.100 V 57.100 C 191.436 57.155 191.480 57.200 191.536 57.200 H 194.289 C 194.389 57.200 194.289 57.100 194.289 57.200 V 63.000 C 194.289 63.100 194.389 63.000 194.289 63.000 H 191.536 C 191.480 63.000 191.436 63.045 191.436 63.100 V 69.100 C 191.436 69.155 191.480 69.200 191.536 69.200 H 194.289 C 194.389 69.200 194.289 69.100 194.289 69.200 V 75.000 C 194.289 75.100 194.389 75.000 194.289 75.000 H 191.536 C 191.480 75.000 191.436 75.045 191.436 75.100 V 81.100 C 191.436 81.155 191.480 81.200 191.536 81.200 H 194.289 C 194.389 81.200 194.289 81.100 194.289 81.200 V 87.000 C 194.289 87.100 194.389 87.000 194.289 87.000 H 191.536 C 191.480 87.000 191.436 87.045 191.436 87.100 V 93.100 C 191.436 93.155 191.480 93.200 191.536 93.200 H 194.289 C 194.389 93.200 194.289 93.100 194.289 93.200 V 99.000 C 194.289 99.100 194.389 99.000 194.289 99.000 H 191.536 C 191.480 99.000 191.436 99.045 191.436 99.100 V 107.100 C 191.436 107.155 191.480 107.200 191.536 107.200 H 193.715 Z" stroke="rgb(0,0,0)" stroke-width="0.20" />
</g>
<g id="p-12" style="fill:none;stroke-linecap:round;stroke-linejoin:round;">
  <path d="M 254.194 107.200 H 260.303 C 260.403 107.200 260.303 107.100 260.303 107.200 V 110.100 C 260.303 110.155 260.348 110.200 260.403 110.200 H 266.403 C 266.459 110.200 266.503 110.155 266.503 110.100 V 107.200 C 266.503 107.100 266.403 107.200 266.503 107.200 H 272.303 C 272.403 107.200 272.303 107.100 272.303 107.200 V 110.100 C 272.303 110.155 272.348 110.200 272.403 110.200 H 278.403 C 278.459 110.200 278.503 110.155 278.503 110.100 V 107.200 C 278.503 107.100 278.403 107.200 278.503 107.200 H 284.303 C 284.403 107.200 284.303 107.100 284.303 107.200 V 110.100 C 284.303 110.155 284.348 110.200 284.403 110.200 H 290.403 C 290.459 110.200 290.503 110.155 290.503 110.100 V 107.200 C 290.503 107.100 290.403 107.200 290.503 107.200 H 296.303 C 296.403 107.200 296.303 107.100 296.303 107.200 V 110.100 C 296.303 110.155 296.348 110.200 296.403 110.200 H 302.403 C 302.459 110.200 302.503 110.155 302.503 110.100 V 107.200 C 302.503 107.100 302.403 107.200 302.503 107.200 H 308.613 H 307.939 C 307.995 107.200 308.039 107.155 308.039 107.100 V 99.200 C 308.039 99.100 307.939 99.200 308.039 99.200 H 310.793 C 310.848 99.200 310.893 99.155 310.893 99.100 V 93.100 C 310.893 93.045 310.848 93.000 310.793 93.000 H 308.039 C 307.939 93.000 308.039 93.100 308.039 93.000 V 87.200 C 308.039 87.100 307.939 87.200 308.039 87.200 H 310.793 C 310.848 87.200 310.893 87.155 310.893 87.100 V 81.100 C 310.893 81.045 310.848 81.000 310.793 81.000 H 308.039 C 307.939 81.000 308.039 81.100 308.039 81.000 V 75.200 C 308.039 75.100 307.939 75.200 308.039 75.200 H 310.793 C 310.848 75.200 310.893 75.155 310.893 75.100 V 69.100 C 310.893 69.045 310.848 69.000 310.793 69.000 H 308.039 C 307.939 69.000 308.039 69.100 308.039 69.000 V 63.200 C 308.039 63.100 307.939 63.200 308.039 63.200 H 310.793 C 310.848 63.200 310.893 63.155 310.893 63.100 V 57.100 C 310.893 57.045 310.848 57.000 310.793 57.000 H 308.039 C 307.939 57.000 308.039 57.100 308.039 57.000 V 51.200 C 308.039 51.100 307.939 51.200 308.039 51.200 H 310.793 C 310.848 51.200 310.893 51.155 310.893 51.100 V 45.100 C 310.893 45.045 310.848 45.000 310.793 45.000 H 308.039 C 307.939 45.000 308.039 45.100 308.039 45.000 V 39.200 C 308.039 39.100 307.939 39.200 308.039 39.200 H 310.793 C 310.848 39.200 310.893 39.155 310.893 39.100 V 33.100 C 310.893 33.045 310.848 33.000 310.793 33.000 H 308.039 C 307.939 33.000 308.039 33.100 308.039 33.000 V 27.200 C 308.039 27.100 307.939 27.200 308.039 27.200 H 310.793 C 310.848 27.200 310.893 27.155 310.893 27.100 V 21.100 C 310.893 21.045 310.848 21.000 310.793 21.000 H 308.039 C 307.939 21.000 308.039 21.100 308.039 21.000 V 13.100 V 10.100 C 308.039 10.045 307.995 10.000 307.939 10.000 H 308.613 H 299.676 C 299.483 10.000 299.293 10.051 299.126 10.147 C 298.959 10.244 298.820 10.383 298.723 10.550 C 298.627 10.717 298.576 10.907 298.576 11.100 V 60.000 C 298.576 60.100 298.676 60.000 298.576 60.000 H 289.543 C 289.443 60.000 289.543 60.100 289.543 60.000 V 16.100 C 289.543 15.556 289.399 15.021 289.127 14.550 C 288.855 14.079 288.464 13.687 287.993 13.415 C 287.521 13.143 286.987 13.000 286.443 13.000 H 276.364 C 275.820 13.000 275.285 13.143 274.814 13.415 C 274.343 13.687 273.951 14.079 273.679 14.550 C 273.407 15.021 273.264 15.556 273.264 16.100 V 60.000 C 273.264 60.100 273.364 60.000 273.264 60.000 H 264.231 C 264.131 60.000 264.231 60.100 264.231 60.000 V 11.100 C 264.231 10.907 264.180 10.717 264.084 10.550 C 263.987 10.383 263.848 10.244 263.681 10.147 C 263.514 10.051 263.324 10.000 263.131 10.000 H 254.194 H 252.014 C 251.959 10.000 251.914 10.045 251.914 10.100 V 13.100 V 21.100 C 251.914 21.155 251.959 21.200 252.014 21.200 H 254.767 C 254.867 21.200 254.767 21.100 254.767 21.200 V 27.000 C 254.767 27.100 254.867 27.000 254.767 27.000 H 252.014 C 251.959 27.000 251.914 27.045 251.914 27.100 V 33.100 C 251.914 33.155 251.959 33.200 252.014 33.200 H 254.767 C 254.867 33.200 254.767 33.100 254.767 33.200 V 39.000 C 254.767 39.100 254.867 39.000 254.767 39.000 H 252.014 C 251.959 39.000 251.914 39.045 251.914 39.100 V 45.100 C 251.914 45.155 251.959 45.200 252.014 45.200 H 254.767 C 254.867 45.200 254.767 45.100 254.767 45.200 V 51.000 C 254.767 51.100 254.867 51.000 254.767 51.000 H 252.014 C 251.959 51.000 251.914 51.045 251.914 51.100 V 57.100 C 251.914 57.155 251.959 57.200 252.014 57.200 H 254.767 C 254.867 57.200 254.767 57.100 254.767 57.200 V 63.000 C 254.767 63.100 254.867 63.000 254.767 63.000 H 252.014 C 251.959 63.000 251.914 63.045 251.914 63.100 V 69.100 C 251.914 69.155 251.959 69.200 252.014 69.200 H 254.767 C 254.867 69.200 254.767 69.100 254.767 69.200 V 75.000 C 254.767 75.100 254.867 75.000 254.767 75.000 H 252.014 C 251.959 75.000 251.914 75.045 251.914 75.100 V 81.100 C 251.914 81.155 251.959 81.200 252.014 81.200 H 254.767 C 254.867 81.200 254.767 81.100 254.767 81.200 V 87.000 C 254.767 87.100 254.867 87.000 254.767 87.000 H 252.014 C 251.959 87.000 251.914 87.045 251.914 87.100 V 93.100 C 251.914 93.155 251.959 93.200 252.014 93.200 H 254.767 C 254.867 93.200 254.767 93.100 254.767 93.200 V 99.000 C 254.767 99.100 254.867 99.000 254.767 99.000 H 252.014 C 251.959 99.000 251.914 99.045 251.914 99.100 V 107.100 C 251.914 107.155 251.959 107.200 252.014 107.200 H 254.194 Z" stroke="rgb(0,0,0)" stroke-width="0.20" />
</g>
</svg>