<?xml version='1.0' encoding='utf-8'?>
<svg height="233.60mm" viewBox="0.0 0.0 379.76 233.60" width="379.76mm" xmlns="http://www.w3.org/2000/svg" xmlns:cc="http://creativecommons.org/ns#" xmlns:dc="http://purl.org/dc/elements/1.1/" xmlns:inkscape="http://www.inkscape.org/namespaces/inkscape" xmlns:rdf="http://www.w3.org/1999/02/22-rdf-syntax-ns#" xmlns:svg="http://www.w3.org/2000/svg" xmlns:xlink="http://www.w3.org/1999/xlink">
<!--
RoundedBox - Box with vertical edges rounded



Default: edge_style = f Finger Joint:
![Finger Joint](static/samples/RoundedBox-2.jpg)

Alternative: edge_style = h Edge (parallel Finger Joint Holes):
![Finger Joint Holes](static/samples/RoundedBox-3.jpg)

With lid:



Created with Boxes.py (https://festi.info/boxes.py)
Command line (remove spaces between dashes): boxes RoundedBox
-->
<title>RoundedBox</title>
<metadata>
<rdf:RDF><cc:Work>
<dc:title>FlexBox - RoundedBox</dc:title>
<dc:source>boxes RoundedBox</dc:source>
<dc:description>Box with vertical edges rounded


Default: edge_style = f Finger Joint:
![Finger Joint](static/samples/RoundedBox-2.jpg)

Alternative: edge_style = h Edge (parallel Finger Joint Holes):
![Finger Joint Holes](static/samples/RoundedBox-3.jpg)

With lid:


Created with Boxes.py (https://festi.info/boxes.py)
Command line: boxes RoundedBox
Command line short: boxes RoundedBox
</dc:description>
</cc:Work></rdf:RDF></metadata>
<g id="p-0" style="fill:none;stroke-linecap:round;stroke-linejoin:round;">
  <path d="M 18.800 223.600 H 118.800 V 213.600 H 18.800 V 223.600 Z" stroke="rgb(0,0,0)" stroke-width="0.20" />
  <text dominant-baseline="hanging" font-size="8px" style="font-family: sans-serif ; font-weight: normal; font-style: normal; fill: rgb(255,0,0)" text-anchor="middle" transform="matrix( 1.000 0.000 0.000 1.000 68.800 214.600 )">100.00mm, burn:0.10mm</text>
</g>
<g id="p-1" style="fill:none;stroke-linecap:round;stroke-linejoin:round;">
  <path d="M 36.800 208.900 H 43.700 C 43.800 208.900 43.700 208.800 43.700 208.900 V 211.800 C 43.700 211.855 43.745 211.900 43.800 211.900 H 49.800 C 49.855 211.900 49.900 211.855 49.900 211.800 V 208.900 C 49.900 208.800 49.800 208.900 49.900 208.900 H 55.700 C 55.800 208.900 55.700 208.800 55.700 208.900 V 211.800 C 55.700 211.855 55.745 211.900 55.800 211.900 H 61.800 C 61.855 211.900 61.900 211.855 61.900 211.800 V 208.900 C 61.900 208.800 61.800 208.900 61.900 208.900 H 68.800 H 75.700 C 75.800 208.900 75.700 208.800 75.700 208.900 V 211.800 C 75.700 211.855 75.745 211.900 75.800 211.900 H 81.800 C 81.855 211.900 81.900 211.855 81.900 211.800 V 208.900 C 81.900 208.800 81.800 208.900 81.900 208.900 H 87.700 C 87.800 208.900 87.700 208.800 87.700 208.900 V 211.800 C 87.700 211.855 87.745 211.900 87.800 211.900 H 93.800 C 93.855 211.900 93.900 211.855 93.900 211.800 V 208.900 C 93.900 208.800 93.800 208.900 93.900 208.900 H 100.800 C 103.451 208.900 106.055 208.202 108.350 206.877 C 110.645 205.552 112.552 203.645 113.877 201.350 C 115.202 199.055 115.900 196.451 115.900 193.800 V 182.900 C 115.900 182.800 115.800 182.900 115.900 182.900 H 118.800 C 118.855 182.900 118.900 182.855 118.900 182.800 V 176.800 C 118.900 176.745 118.855 176.700 118.800 176.700 H 115.900 C 115.800 176.700 115.900 176.800 115.900 176.700 V 170.900 C 115.900 170.800 115.800 170.900 115.900 170.900 H 118.800 C 118.855 170.900 118.900 170.855 118.900 170.800 V 164.800 C 118.900 164.745 118.855 164.700 118.800 164.700 H 115.900 C 115.800 164.700 115.900 164.800 115.900 164.700 V 158.900 C 115.900 158.800 115.800 158.900 115.900 158.900 H 118.800 C 118.855 158.900 118.900 158.855 118.900 158.800 V 152.800 C 118.900 152.745 118.855 152.700 118.800 152.700 H 115.900 C 115.800 152.700 115.900 152.800 115.900 152.700 V 146.900 C 115.900 146.800 115.800 146.900 115.900 146.900 H 118.800 C 118.855 146.900 118.900 146.855 118.900 146.800 V 140.800 C 118.900 140.745 118.855 140.700 118.800 140.700 H 115.900 C 115.800 140.700 115.900 140.800 115.900 140.700 V 129.800 C 115.900 127.149 115.202 124.545 113.877 122.250 C 112.552 119.955 110.645 118.048 108.350 116.723 C 106.055 115.398 103.451 114.700 100.800 114.700 H 89.900 C 89.800 114.700 89.900 114.800 89.900 114.700 V 111.800 C 89.900 111.745 89.855 111.700 89.800 111.700 H 83.800 C 83.745 111.700 83.700 111.745 83.700 111.800 V 114.700 C 83.700 114.800 83.800 114.700 83.700 114.700 H 77.900 C 77.800 114.700 77.900 114.800 77.900 114.700 V 111.800 C 77.900 111.745 77.855 111.700 77.800 111.700 H 71.800 C 71.745 111.700 71.700 111.745 71.700 111.800 V 114.700 C 71.700 114.800 71.800 114.700 71.700 114.700 H 65.900 C 65.800 114.700 65.900 114.800 65.900 114.700 V 111.800 C 65.900 111.745 65.855 111.700 65.800 111.700 H 59.800 C 59.745 111.700 59.700 111.745 59.700 111.800 V 114.700 C 59.700 114.800 59.800 114.700 59.700 114.700 H 53.900 C 53.800 114.700 53.900 114.800 53.900 114.700 V 111.800 C 53.900 111.745 53.855 111.700 53.800 111.700 H 47.800 C 47.745 111.700 47.700 111.745 47.700 111.800 V 114.700 C 47.700 114.800 47.800 114.700 47.700 114.700 H 36.800 C 34.149 114.700 31.545 115.398 29.250 116.723 C 26.955 118.048 25.048 119.955 23.723 122.250 C 22.398 124.545 21.700 127.149 21.700 129.800 V 140.700 C 21.700 140.800 21.800 140.700 21.700 140.700 H 18.800 C 18.745 140.700 18.700 140.745 18.700 140.800 V 146.800 C 18.700 146.855 18.745 146.900 18.800 146.900 H 21.700 C 21.800 146.900 21.700 146.800 21.700 146.900 V 152.700 C 21.700 152.800 21.800 152.700 21.700 152.700 H 18.800 C 18.745 152.700 18.700 152.745 18.700 152.800 V 158.800 C 18.700 158.855 18.745 158.900 18.800 158.900 H 21.700 C 21.800 158.900 21.700 158.800 21.700 158.900 V 164.700 C 21.700 164.800 21.800 164.700 21.700 164.700 H 18.800 C 18.745 164.700 18.700 164.745 18.700 164.800 V 170.800 C 18.700 170.855 18.745 170.900 18.800 170.900 H 21.700 C 21.800 170.900 21.700 170.800 21.700 170.900 V 176.700 C 21.700 176.800 21.800 176.700 21.700 176.700 H 18.800 C 18.745 176.700 18.700 176.745 18.700 176.800 V 182.800 C 18.700 182.855 18.745 182.900 18.800 182.900 H 21.700 C 21.800 182.900 21.700 182.800 21.700 182.900 V 193.800 C 21.700 196.451 22.398 199.055 23.723 201.350 C 25.048 203.645 26.955 205.552 29.250 206.877 C 31.545 208.202 34.149 208.900 36.800 208.900 Z" stroke="rgb(0,0,0)" stroke-width="0.20" />
</g>
<g id="p-2" style="fill:none;stroke-linecap:round;stroke-linejoin:round;">
  <path d="M 138.500 202.800 H 202.500 C 204.097 202.800 205.667 202.380 207.050 201.581 C 208.433 200.782 209.582 199.633 210.381 198.250 C 211.180 196.867 211.600 195.297 211.600 193.700 V 129.700 C 211.600 128.103 211.180 126.533 210.381 125.150 C 209.582 123.767 208.433 122.618 207.050 121.819 C 205.667 121.020 204.097 120.600 202.500 120.600 H 138.500 C 136.903 120.600 135.333 121.020 133.950 121.819 C 132.567 122.618 131.418 123.767 130.619 125.150 C 129.820 126.533 129.400 128.103 129.400 129.700 V 193.700 C 129.400 195.297 129.820 196.867 130.619 198.250 C 131.418 199.633 132.567 200.782 133.950 201.581 C 135.333 202.380 136.903 202.800 138.500 202.800 Z M 138.500 208.900 H 145.400 C 145.500 208.900 145.400 208.800 145.400 208.900 V 211.800 C 145.400 211.855 145.445 211.900 145.500 211.900 H 151.500 C 151.555 211.900 151.600 211.855 151.600 211.800 V 208.900 C 151.600 208.800 151.500 208.900 151.600 208.900 H 157.400 C 157.500 208.900 157.400 208.800 157.400 208.900 V 211.800 C 157.400 211.855 157.445 211.900 157.500 211.900 H 163.500 C 163.555 211.900 163.600 211.855 163.600 211.800 V 208.900 C 163.600 208.800 163.500 208.900 163.600 208.900 H 170.500 H 177.400 C 177.500 208.900 177.400 208.800 177.400 208.900 V 211.800 C 177.400 211.855 177.445 211.900 177.500 211.900 H 183.500 C 183.555 211.900 183.600 211.855 183.600 211.800 V 208.900 C 183.600 208.800 183.500 208.900 183.600 208.900 H 189.400 C 189.500 208.900 189.400 208.800 189.400 208.900 V 211.800 C 189.400 211.855 189.445 211.900 189.500 211.900 H 195.500 C 195.555 211.900 195.600 211.855 195.600 211.800 V 208.900 C 195.600 208.800 195.500 208.900 195.600 208.900 H 202.500 C 205.151 208.900 207.755 208.202 210.050 206.877 C 212.345 205.552 214.252 203.645 215.577 201.350 C 216.902 199.055 217.600 196.451 217.600 193.800 V 182.900 C 217.600 182.800 217.500 182.900 217.600 182.900 H 220.500 C 220.555 182.900 220.600 182.855 220.600 182.800 V 176.800 C 220.600 176.745 220.555 176.700 220.500 176.700 H 217.600 C 217.500 176.700 217.600 176.800 217.600 176.700 V 170.900 C 217.600 170.800 217.500 170.900 217.600 170.900 H 220.500 C 220.555 170.900 220.600 170.855 220.600 170.800 V 164.800 C 220.600 164.745 220.555 164.700 220.500 164.700 H 217.600 C 217.500 164.700 217.600 164.800 217.600 164.700 V 158.900 C 217.600 158.800 217.500 158.900 217.600 158.900 H 220.500 C 220.555 158.900 220.600 158.855 220.600 158.800 V 152.800 C 220.600 152.745 220.555 152.700 220.500 152.700 H 217.600 C 217.500 152.700 217.600 152.800 217.600 152.700 V 146.900 C 217.600 146.800 217.500 146.900 217.600 146.900 H 220.500 C 220.555 146.900 220.600 146.855 220.600 146.800 V 140.800 C 220.600 140.745 220.555 140.700 220.500 140.700 H 217.600 C 217.500 140.700 217.600 140.800 217.600 140.700 V 129.800 C 217.600 127.149 216.902 124.545 215.577 122.250 C 214.252 119.955 212.345 118.048 210.050 116.723 C 207.755 115.398 205.151 114.700 202.500 114.700 H 191.600 C 191.500 114.700 191.600 114.800 191.600 114.700 V 111.800 C 191.600 111.745 191.555 111.700 191.500 111.700 H 185.500 C 185.445 111.700 185.400 111.745 185.400 111.800 V 114.700 C 185.400 114.800 185.500 114.700 185.400 114.700 H 179.600 C 179.500 114.700 179.600 114.800 179.600 114.700 V 111.800 C 179.600 111.745 179.555 111.700 179.500 111.700 H 173.500 C 173.445 111.700 173.400 111.745 173.400 111.800 V 114.700 C 173.400 114.800 173.500 114.700 173.400 114.700 H 167.600 C 167.500 114.700 167.600 114.800 167.600 114.700 V 111.800 C 167.600 111.745 167.555 111.700 167.500 111.700 H 161.500 C 161.445 111.700 161.400 111.745 161.400 111.800 V 114.700 C 161.400 114.800 161.500 114.700 161.400 114.700 H 155.600 C 155.500 114.700 155.600 114.800 155.600 114.700 V 111.800 C 155.600 111.745 155.555 111.700 155.500 111.700 H 149.500 C 149.445 111.700 149.400 111.745 149.400 111.800 V 114.700 C 149.400 114.800 149.500 114.700 149.400 114.700 H 138.500 C 135.849 114.700 133.245 115.398 130.950 116.723 C 128.655 118.048 126.748 119.955 125.423 122.250 C 124.098 124.545 123.400 127.149 123.400 129.800 V 140.700 C 123.400 140.800 123.500 140.700 123.400 140.700 H 120.500 C 120.445 140.700 120.400 140.745 120.400 140.800 V 146.800 C 120.400 146.855 120.445 146.900 120.500 146.900 H 123.400 C 123.500 146.900 123.400 146.800 123.400 146.900 V 152.700 C 123.400 152.800 123.500 152.700 123.400 152.700 H 120.500 C 120.445 152.700 120.400 152.745 120.400 152.800 V 158.800 C 120.400 158.855 120.445 158.900 120.500 158.900 H 123.400 C 123.500 158.900 123.400 158.800 123.400 158.900 V 164.700 C 123.400 164.800 123.500 164.700 123.400 164.700 H 120.500 C 120.445 164.700 120.400 164.745 120.400 164.800 V 170.800 C 120.400 170.855 120.445 170.900 120.500 170.900 H 123.400 C 123.500 170.900 123.400 170.800 123.400 170.900 V 176.700 C 123.400 176.800 123.500 176.700 123.400 176.700 H 120.500 C 120.445 176.700 120.400 176.745 120.400 176.800 V 182.800 C 120.400 182.855 120.445 182.900 120.500 182.900 H 123.400 C 123.500 182.900 123.400 182.800 123.400 182.900 V 193.800 C 123.400 196.451 124.098 199.055 125.423 201.350 C 126.748 203.645 128.655 205.552 130.950 206.877 C 133.245 208.202 135.849 208.900 138.500 208.900 Z" stroke="rgb(0,0,0)" stroke-width="0.20" />
</g>
<g id="p-3" style="fill:none;stroke-linecap:round;stroke-linejoin:round;">
  <path d="M 18.800 110.200 H 25.800 C 25.855 110.200 25.900 110.155 25.900 110.100 V 107.200 C 25.900 107.100 25.800 107.200 25.900 107.200 H 31.700 C 31.800 107.200 31.700 107.100 31.700 107.200 V 110.100 C 31.700 110.155 31.745 110.200 31.800 110.200 H 37.800 C 37.855 110.200 37.900 110.155 37.900 110.100 V 107.200 C 37.900 107.100 37.800 107.200 37.900 107.200 H 43.700 C 43.800 107.200 43.700 107.100 43.700 107.200 V 110.100 C 43.700 110.155 43.745 110.200 43.800 110.200 H 50.800 H 73.390 H 84.390 C 84.445 110.200 84.490 110.155 84.490 110.100 V 107.200 C 84.490 107.100 84.390 107.200 84.490 107.200 H 90.290 C 90.390 107.200 90.290 107.100 90.290 107.200 V 110.100 C 90.290 110.155 90.334 110.200 90.390 110.200 H 96.390 C 96.445 110.200 96.490 110.155 96.490 110.100 V 107.200 C 96.490 107.100 96.390 107.200 96.490 107.200 H 102.290 C 102.390 107.200 102.290 107.100 102.290 107.200 V 110.100 C 102.290 110.155 102.334 110.200 102.390 110.200 H 108.390 C 108.445 110.200 108.490 110.155 108.490 110.100 V 107.200 C 108.490 107.100 108.390 107.200 108.490 107.200 H 114.290 C 114.390 107.200 114.290 107.100 114.290 107.200 V 110.100 C 114.290 110.155 114.334 110.200 114.390 110.200 H 120.390 C 120.445 110.200 120.490 110.155 120.490 110.100 V 107.200 C 120.490 107.100 120.390 107.200 120.490 107.200 H 126.290 C 126.390 107.200 126.290 107.100 126.290 107.200 V 110.100 C 126.290 110.155 126.334 110.200 126.390 110.200 H 137.390 H 159.979 H 170.979 C 171.034 110.200 171.079 110.155 171.079 110.100 V 107.200 C 171.079 107.100 170.979 107.200 171.079 107.200 H 176.879 C 176.979 107.200 176.879 107.100 176.879 107.200 V 110.100 C 176.879 110.155 176.924 110.200 176.979 110.200 H 182.979 C 183.034 110.200 183.079 110.155 183.079 110.100 V 107.200 C 183.079 107.100 182.979 107.200 183.079 107.200 H 188.879 C 188.979 107.200 188.879 107.100 188.879 107.200 V 110.100 C 188.879 110.155 188.924 110.200 188.979 110.200 H 194.979 C 195.034 110.200 195.079 110.155 195.079 110.100 V 107.200 C 195.079 107.100 194.979 107.200 195.079 107.200 H 200.879 C 200.979 107.200 200.879 107.100 200.879 107.200 V 110.100 C 200.879 110.155 200.924 110.200 200.979 110.200 H 206.979 C 207.034 110.200 207.079 110.155 207.079 110.100 V 107.200 C 207.079 107.100 206.979 107.200 207.079 107.200 H 212.879 C 212.979 107.200 212.879 107.100 212.879 107.200 V 110.100 C 212.879 110.155 212.924 110.200 212.979 110.200 H 223.979 H 246.569 H 257.569 C 257.624 110.200 257.669 110.155 257.669 110.100 V 107.200 C 257.669 107.100 257.569 107.200 257.669 107.200 H 263.469 C 263.569 107.200 263.469 107.100 263.469 107.200 V 110.100 C 263.469 110.155 263.513 110.200 263.569 110.200 H 269.569 C 269.624 110.200 269.669 110.155 269.669 110.100 V 107.200 C 269.669 107.100 269.569 107.200 269.669 107.200 H 275.469 C 275.569 107.200 275.469 107.100 275.469 107.200 V 110.100 C 275.469 110.155 275.513 110.200 275.569 110.200 H 281.569 C 281.624 110.200 281.669 110.155 281.669 110.100 V 107.200 C 281.669 107.100 281.569 107.200 281.669 107.200 H 287.469 C 287.569 107.200 287.469 107.100 287.469 107.200 V 110.100 C 287.469 110.155 287.513 110.200 287.569 110.200 H 293.569 C 293.624 110.200 293.669 110.155 293.669 110.100 V 107.200 C 293.669 107.100 293.569 107.200 293.669 107.200 H 299.469 C 299.569 107.200 299.469 107.100 299.469 107.200 V 110.100 C 299.469 110.155 299.513 110.200 299.569 110.200 H 310.569 H 333.158 H 340.158 C 340.213 110.200 340.258 110.155 340.258 110.100 V 107.200 C 340.258 107.100 340.158 107.200 340.258 107.200 H 346.058 C 346.158 107.200 346.058 107.100 346.058 107.200 V 110.100 C 346.058 110.155 346.103 110.200 346.158 110.200 H 352.158 C 352.213 110.200 352.258 110.155 352.258 110.100 V 107.200 C 352.258 107.100 352.158 107.200 352.258 107.200 H 358.058 C 358.158 107.200 358.058 107.100 358.058 107.200 V 110.100 C 358.058 110.155 358.103 110.200 358.158 110.200 H 365.158 C 365.213 110.200 365.258 110.155 365.258 110.100 V 107.100 V 99.567 C 365.258 99.464 365.290 99.364 365.349 99.280 C 365.407 99.196 365.491 99.132 365.587 99.097 C 365.684 99.062 365.788 99.058 365.888 99.084 C 365.987 99.111 366.075 99.167 366.141 99.246 L 368.522 102.083 C 368.614 102.193 368.738 102.272 368.877 102.309 C 369.016 102.346 369.163 102.340 369.298 102.291 C 369.433 102.242 369.549 102.152 369.632 102.034 C 369.714 101.917 369.758 101.777 369.758 101.633 V 90.567 C 369.758 90.423 369.714 90.283 369.632 90.166 C 369.549 90.048 369.433 89.958 369.298 89.909 C 369.163 89.860 369.016 89.854 368.877 89.891 C 368.738 89.928 368.614 90.007 368.522 90.117 L 366.141 92.954 C 366.075 93.033 365.987 93.089 365.888 93.116 C 365.788 93.142 365.684 93.138 365.587 93.103 C 365.491 93.068 365.407 93.004 365.349 92.920 C 365.290 92.836 365.258 92.736 365.258 92.633 V 81.567 C 365.258 81.464 365.290 81.364 365.349 81.280 C 365.407 81.196 365.491 81.132 365.587 81.097 C 365.684 81.062 365.788 81.058 365.888 81.084 C 365.987 81.111 366.075 81.167 366.141 81.246 L 368.522 84.083 C 368.614 84.193 368.738 84.272 368.877 84.309 C 369.016 84.346 369.163 84.340 369.298 84.291 C 369.433 84.242 369.549 84.152 369.632 84.034 C 369.714 83.917 369.758 83.777 369.758 83.633 V 72.567 C 369.758 72.423 369.714 72.283 369.632 72.166 C 369.549 72.048 369.433 71.958 369.298 71.909 C 369.163 71.860 369.016 71.854 368.877 71.891 C 368.738 71.928 368.614 72.007 368.522 72.117 L 366.141 74.954 C 366.075 75.033 365.987 75.089 365.888 75.116 C 365.788 75.142 365.684 75.138 365.587 75.103 C 365.491 75.068 365.407 75.004 365.349 74.920 C 365.290 74.836 365.258 74.736 365.258 74.633 V 63.567 C 365.258 63.464 365.290 63.364 365.349 63.280 C 365.407 63.196 365.491 63.132 365.587 63.097 C 365.684 63.062 365.788 63.058 365.888 63.084 C 365.987 63.111 366.075 63.167 366.141 63.246 L 368.522 66.083 C 368.614 66.193 368.738 66.272 368.877 66.309 C 369.016 66.346 369.163 66.340 369.298 66.291 C 369.433 66.242 369.549 66.152 369.632 66.034 C 369.714 65.917 369.758 65.777 369.758 65.633 V 54.567 C 369.758 54.423 369.714 54.283 369.632 54.166 C 369.549 54.048 369.433 53.958 369.298 53.909 C 369.163 53.860 369.016 53.854 368.877 53.891 C 368.738 53.928 368.614 54.007 368.522 54.117 L 366.141 56.954 C 366.075 57.033 365.987 57.089 365.888 57.116 C 365.788 57.142 365.684 57.138 365.587 57.103 C 365.491 57.068 365.407 57.004 365.349 56.920 C 365.290 56.836 365.258 56.736 365.258 56.633 V 45.567 C 365.258 45.464 365.290 45.364 365.349 45.280 C 365.407 45.196 365.491 45.132 365.587 45.097 C 365.684 45.062 365.788 45.058 365.888 45.084 C 365.987 45.111 366.075 45.167 366.141 45.246 L 368.522 48.083 C 368.614 48.193 368.738 48.272 368.877 48.309 C 369.016 48.346 369.163 48.340 369.298 48.291 C 369.433 48.242 369.549 48.152 369.632 48.034 C 369.714 47.917 369.758 47.777 369.758 47.633 V 36.567 C 369.758 36.423 369.714 36.283 369.632 36.166 C 369.549 36.048 369.433 35.958 369.298 35.909 C 369.163 35.860 369.016 35.854 368.877 35.891 C 368.738 35.928 368.614 36.007 368.522 36.117 L 366.141 38.954 C 366.075 39.033 365.987 39.089 365.888 39.116 C 365.788 39.142 365.684 39.138 365.587 39.103 C 365.491 39.068 365.407 39.004 365.349 38.920 C 365.290 38.836 365.258 38.736 365.258 38.633 V 27.567 C 365.258 27.464 365.290 27.364 365.349 27.280 C 365.407 27.196 365.491 27.132 365.587 27.097 C 365.684 27.062 365.788 27.058 365.888 27.084 C 365.987 27.111 366.075 27.167 366.141 27.246 L 368.522 30.083 C 368.614 30.193 368.738 30.272 368.877 30.309 C 369.016 30.346 369.163 30.340 369.298 30.291 C 369.433 30.242 369.549 30.152 369.632 30.034 C 369.714 29.917 369.758 29.777 369.758 29.633 V 18.567 C 369.758 18.423 369.714 18.283 369.632 18.166 C 369.549 18.048 369.433 17.958 369.298 17.909 C 369.163 17.860 369.016 17.854 368.877 17.891 C 368.738 17.928 368.614 18.007 368.522 18.117 L 366.141 20.954 C 366.075 21.033 365.987 21.089 365.888 21.116 C 365.788 21.142 365.684 21.138 365.587 21.103 C 365.491 21.068 365.407 21.004 365.349 20.920 C 365.290 20.836 365.258 20.736 365.258 20.633 V 13.100 V 10.100 C 365.258 10.045 365.213 10.000 365.158 10.000 H 358.158 C 358.103 10.000 358.058 10.045 358.058 10.100 V 13.000 C 358.058 13.100 358.158 13.000 358.058 13.000 H 352.258 C 352.158 13.000 352.258 13.100 352.258 13.000 V 10.100 C 352.258 10.045 352.213 10.000 352.158 10.000 H 346.158 C 346.103 10.000 346.058 10.045 346.058 10.100 V 13.000 C 346.058 13.100 346.158 13.000 346.058 13.000 H 340.258 C 340.158 13.000 340.258 13.100 340.258 13.000 V 10.100 C 340.258 10.045 340.213 10.000 340.158 10.000 H 333.158 H 310.569 H 299.569 C 299.513 10.000 299.469 10.045 299.469 10.100 V 13.000 C 299.469 13.100 299.569 13.000 299.469 13.000 H 293.669 C 293.569 13.000 293.669 13.100 293.669 13.000 V 10.100 C 293.669 10.045 293.624 10.000 293.569 10.000 H 287.569 C 287.513 10.000 287.469 10.045 287.469 10.100 V 13.000 C 287.469 13.100 287.569 13.000 287.469 13.000 H 281.669 C 281.569 13.000 281.669 13.100 281.669 13.000 V 10.100 C 281.669 10.045 281.624 10.000 281.569 10.000 H 275.569 C 275.513 10.000 275.469 10.045 275.469 10.100 V 13.000 C 275.469 13.100 275.569 13.000 275.469 13.000 H 269.669 C 269.569 13.000 269.669 13.100 269.669 13.000 V 10.100 C 269.669 10.045 269.624 10.000 269.569 10.000 H 263.569 C 263.513 10.000 263.469 10.045 263.469 10.100 V 13.000 C 263.469 13.100 263.569 13.000 263.469 13.000 H 257.669 C 257.569 13.000 257.669 13.100 257.669 13.000 V 10.100 C 257.669 10.045 257.624 10.000 257.569 10.000 H 246.569 H 223.979 H 212.979 C 212.924 10.000 212.879 10.045 212.879 10.100 V 13.000 C 212.879 13.100 212.979 13.000 212.879 13.000 H 207.079 C 206.979 13.000 207.079 13.100 207.079 13.000 V 10.100 C 207.079 10.045 207.034 10.000 206.979 10.000 H 200.979 C 200.924 10.000 200.879 10.045 200.879 10.100 V 13.000 C 200.879 13.100 200.979 13.000 200.879 13.000 H 195.079 C 194.979 13.000 195.079 13.100 195.079 13.000 V 10.100 C 195.079 10.045 195.034 10.000 194.979 10.000 H 188.979 C 188.924 10.000 188.879 10.045 188.879 10.100 V 13.000 C 188.879 13.100 188.979 13.000 188.879 13.000 H 183.079 C 182.979 13.000 183.079 13.100 183.079 13.000 V 10.100 C 183.079 10.045 183.034 10.000 182.979 10.000 H 176.979 C 176.924 10.000 176.879 10.045 176.879 10.100 V 13.000 C 176.879 13.100 176.979 13.000 176.879 13.000 H 171.079 C 170.979 13.000 171.079 13.100 171.079 13.000 V 10.100 C 171.079 10.045 171.034 10.000 170.979 10.000 H 159.979 H 137.390 H 126.390 C 126.334 10.000 126.290 10.045 126.290 10.100 V 13.000 C 126.290 13.100 126.390 13.000 126.290 13.000 H 120.490 C 120.390 13.000 120.490 13.100 120.490 13.000 V 10.100 C 120.490 10.045 120.445 10.000 120.390 10.000 H 114.390 C 114.334 10.000 114.290 10.045 114.290 10.100 V 13.000 C 114.290 13.100 114.390 13.000 114.290 13.000 H 108.490 C 108.390 13.000 108.490 13.100 108.490 13.000 V 10.100 C 108.490 10.045 108.445 10.000 108.390 10.000 H 102.390 C 102.334 10.000 102.290 10.045 102.290 10.100 V 13.000 C 102.290 13.100 102.390 13.000 102.290 13.000 H 96.490 C 96.390 13.000 96.490 13.100 96.490 13.000 V 10.100 C 96.490 10.045 96.445 10.000 96.390 10.000 H 90.390 C 90.334 10.000 90.290 10.045 90.290 10.100 V 13.000 C 90.290 13.100 90.390 13.000 90.290 13.000 H 84.490 C 84.390 13.000 84.490 13.100 84.490 13.000 V 10.100 C 84.490 10.045 84.445 10.000 84.390 10.000 H 73.390 H 50.800 H 43.800 C 43.745 10.000 43.700 10.045 43.700 10.100 V 13.000 C 43.700 13.100 43.800 13.000 43.700 13.000 H 37.900 C 37.800 13.000 37.900 13.100 37.900 13.000 V 10.100 C 37.900 10.045 37.855 10.000 37.800 10.000 H 31.800 C 31.745 10.000 31.700 10.045 31.700 10.100 V 13.000 C 31.700 13.100 31.800 13.000 31.700 13.000 H 25.900 C 25.800 13.000 25.900 13.100 25.900 13.000 V 10.100 C 25.900 10.045 25.855 10.000 25.800 10.000 H 18.800 C 18.745 10.000 18.700 10.045 18.700 10.100 V 13.100 V 20.633 C 18.700 20.777 18.744 20.917 18.827 21.034 C 18.909 21.152 19.026 21.242 19.161 21.291 C 19.296 21.340 19.442 21.346 19.581 21.309 C 19.720 21.272 19.844 21.193 19.936 21.083 L 22.317 18.246 C 22.383 18.167 22.471 18.111 22.571 18.084 C 22.670 18.058 22.775 18.062 22.871 18.097 C 22.967 18.132 23.051 18.196 23.110 18.280 C 23.168 18.364 23.200 18.464 23.200 18.567 V 29.633 C 23.200 29.736 23.168 29.836 23.110 29.920 C 23.051 30.004 22.967 30.068 22.871 30.103 C 22.775 30.138 22.670 30.142 22.571 30.116 C 22.471 30.089 22.383 30.033 22.317 29.954 L 19.936 27.117 C 19.844 27.007 19.720 26.928 19.581 26.891 C 19.442 26.854 19.296 26.860 19.161 26.909 C 19.026 26.958 18.909 27.048 18.827 27.166 C 18.744 27.283 18.700 27.423 18.700 27.567 V 38.633 C 18.700 38.777 18.744 38.917 18.827 39.034 C 18.909 39.152 19.026 39.242 19.161 39.291 C 19.296 39.340 19.442 39.346 19.581 39.309 C 19.720 39.272 19.844 39.193 19.936 39.083 L 22.317 36.246 C 22.383 36.167 22.471 36.111 22.571 36.084 C 22.670 36.058 22.775 36.062 22.871 36.097 C 22.967 36.132 23.051 36.196 23.110 36.280 C 23.168 36.364 23.200 36.464 23.200 36.567 V 47.633 C 23.200 47.736 23.168 47.836 23.110 47.920 C 23.051 48.004 22.967 48.068 22.871 48.103 C 22.775 48.138 22.670 48.142 22.571 48.116 C 22.471 48.089 22.383 48.033 22.317 47.954 L 19.936 45.117 C 19.844 45.007 19.720 44.928 19.581 44.891 C 19.442 44.854 19.296 44.860 19.161 44.909 C 19.026 44.958 18.909 45.048 18.827 45.166 C 18.744 45.283 18.700 45.423 18.700 45.567 V 56.633 C 18.700 56.777 18.744 56.917 18.827 57.034 C 18.909 57.152 19.026 57.242 19.161 57.291 C 19.296 57.340 19.442 57.346 19.581 57.309 C 19.720 57.272 19.844 57.193 19.936 57.083 L 22.317 54.246 C 22.383 54.167 22.471 54.111 22.571 54.084 C 22.670 54.058 22.775 54.062 22.871 54.097 C 22.967 54.132 23.051 54.196 23.110 54.280 C 23.168 54.364 23.200 54.464 23.200 54.567 V 65.633 C 23.200 65.736 23.168 65.836 23.110 65.920 C 23.051 66.004 22.967 66.068 22.871 66.103 C 22.775 66.138 22.670 66.142 22.571 66.116 C 22.471 66.089 22.383 66.033 22.317 65.954 L 19.936 63.117 C 19.844 63.007 19.720 62.928 19.581 62.891 C 19.442 62.854 19.296 62.860 19.161 62.909 C 19.026 62.958 18.909 63.048 18.827 63.166 C 18.744 63.283 18.700 63.423 18.700 63.567 V 74.633 C 18.700 74.777 18.744 74.917 18.827 75.034 C 18.909 75.152 19.026 75.242 19.161 75.291 C 19.296 75.340 19.442 75.346 19.581 75.309 C 19.720 75.272 19.844 75.193 19.936 75.083 L 22.317 72.246 C 22.383 72.167 22.471 72.111 22.571 72.084 C 22.670 72.058 22.775 72.062 22.871 72.097 C 22.967 72.132 23.051 72.196 23.110 72.280 C 23.168 72.364 23.200 72.464 23.200 72.567 V 83.633 C 23.200 83.736 23.168 83.836 23.110 83.920 C 23.051 84.004 22.967 84.068 22.871 84.103 C 22.775 84.138 22.670 84.142 22.571 84.116 C 22.471 84.089 22.383 84.033 22.317 83.954 L 19.936 81.117 C 19.844 81.007 19.720 80.928 19.581 80.891 C 19.442 80.854 19.296 80.860 19.161 80.909 C 19.026 80.958 18.909 81.048 18.827 81.166 C 18.744 81.283 18.700 81.423 18.700 81.567 V 92.633 C 18.700 92.777 18.744 92.917 18.827 93.034 C 18.909 93.152 19.026 93.242 19.161 93.291 C 19.296 93.340 19.442 93.346 19.581 93.309 C 19.720 93.272 19.844 93.193 19.936 93.083 L 22.317 90.246 C 22.383 90.167 22.471 90.111 22.571 90.084 C 22.670 90.058 22.775 90.062 22.871 90.097 C 22.967 90.132 23.051 90.196 23.110 90.280 C 23.168 90.364 23.200 90.464 23.200 90.567 V 101.633 C 23.200 101.736 23.168 101.836 23.110 101.920 C 23.051 102.004 22.967 102.068 22.871 102.103 C 22.775 102.138 22.670 102.142 22.571 102.116 C 22.471 102.089 22.383 102.033 22.317 101.954 L 19.936 99.117 C 19.844 99.007 19.720 98.928 19.581 98.891 C 19.442 98.854 19.296 98.860 19.161 98.909 C 19.026 98.958 18.909 99.048 18.827 99.166 C 18.744 99.283 18.700 99.423 18.700 99.567 V 107.100 V 110.100 C 18.700 110.155 18.745 110.200 18.800 110.200 Z" stroke="rgb(0,0,0)" stroke-width="0.20" />
  <path d="M 52.345 110.200 V 94.000 M 52.345 91.000 V 61.600 M 52.345 58.600 V 29.200 M 52.345 26.200 V 10.000 M 53.845 13.000 V 42.400 M 53.845 45.400 V 74.800 M 53.845 77.800 V 107.200 M 55.345 110.200 V 94.000 M 55.345 91.000 V 61.600 M 55.345 58.600 V 29.200 M 55.345 26.200 V 10.000 M 56.845 13.000 V 42.400 M 56.845 45.400 V 74.800 M 56.845 77.800 V 107.200 M 58.345 110.200 V 94.000 M 58.345 91.000 V 61.600 M 58.345 58.600 V 29.200 M 58.345 26.200 V 10.000 M 59.845 13.000 V 42.400 M 59.845 45.400 V 74.800 M 59.845 77.800 V 107.200 M 61.345 110.200 V 94.000 M 61.345 91.000 V 61.600 M 61.345 58.600 V 29.200 M 61.345 26.200 V 10.000 M 62.845 13.000 V 42.400 M 62.845 45.400 V 74.800 M 62.845 77.800 V 107.200 M 64.345 110.200 V 94.000 M 64.345 91.000 V 61.600 M 64.345 58.600 V 29.200 M 64.345 26.200 V 10.000 M 65.845 13.000 V 42.400 M 65.845 45.400 V 74.800 M 65.845 77.800 V 107.200 M 67.345 110.200 V 94.000 M 67.345 91.000 V 61.600 M 67.345 58.600 V 29.200 M 67.345 26.200 V 10.000 M 68.845 13.000 V 42.400 M 68.845 45.400 V 74.800 M 68.845 77.800 V 107.200 M 70.345 110.200 V 94.000 M 70.345 91.000 V 61.600 M 70.345 58.600 V 29.200 M 70.345 26.200 V 10.000 M 71.845 13.000 V 42.400 M 71.845 45.400 V 74.800 M 71.845 77.800 V 107.200" stroke="rgb(0,0,0)" stroke-width="0.20" />
  <path d="M 138.934 110.200 V 94.000 M 138.934 91.000 V 61.600 M 138.934 58.600 V 29.200 M 138.934 26.200 V 10.000 M 140.434 13.000 V 42.400 M 140.434 45.400 V 74.800 M 140.434 77.800 V 107.200 M 141.934 110.200 V 94.000 M 141.934 91.000 V 61.600 M 141.934 58.600 V 29.200 M 141.934 26.200 V 10.000 M 143.434 13.000 V 42.400 M 143.434 45.400 V 74.800 M 143.434 77.800 V 107.200 M 144.934 110.200 V 94.000 M 144.934 91.000 V 61.600 M 144.934 58.600 V 29.200 M 144.934 26.200 V 10.000 M 146.434 13.000 V 42.400 M 146.434 45.400 V 74.800 M 146.434 77.800 V 107.200 M 147.934 110.200 V 94.000 M 147.934 91.000 V 61.600 M 147.934 58.600 V 29.200 M 147.934 26.200 V 10.000 M 149.434 13.000 V 42.400 M 149.434 45.400 V 74.800 M 149.434 77.800 V 107.200 M 150.934 110.200 V 94.000 M 150.934 91.000 V 61.600 M 150.934 58.600 V 29.200 M 150.934 26.200 V 10.000 M 152.434 13.000 V 42.400 M 152.434 45.400 V 74.800 M 152.434 77.800 V 107.200 M 153.934 110.200 V 94.000 M 153.934 91.000 V 61.600 M 153.934 58.600 V 29.200 M 153.934 26.200 V 10.000 M 155.434 13.000 V 42.400 M 155.434 45.400 V 74.800 M 155.434 77.800 V 107.200 M 156.934 110.200 V 94.000 M 156.934 91.000 V 61.600 M 156.934 58.600 V 29.200 M 156.934 26.200 V 10.000 M 158.434 13.000 V 42.400 M 158.434 45.400 V 74.800 M 158.434 77.800 V 107.200" stroke="rgb(0,0,0)" stroke-width="0.20" />
  <path d="M 225.524 110.200 V 94.000 M 225.524 91.000 V 61.600 M 225.524 58.600 V 29.200 M 225.524 26.200 V 10.000 M 227.024 13.000 V 42.400 M 227.024 45.400 V 74.800 M 227.024 77.800 V 107.200 M 228.524 110.200 V 94.000 M 228.524 91.000 V 61.600 M 228.524 58.600 V 29.200 M 228.524 26.200 V 10.000 M 230.024 13.000 V 42.400 M 230.024 45.400 V 74.800 M 230.024 77.800 V 107.200 M 231.524 110.200 V 94.000 M 231.524 91.000 V 61.600 M 231.524 58.600 V 29.200 M 231.524 26.200 V 10.000 M 233.024 13.000 V 42.400 M 233.024 45.400 V 74.800 M 233.024 77.800 V 107.200 M 234.524 110.200 V 94.000 M 234.524 91.000 V 61.600 M 234.524 58.600 V 29.200 M 234.524 26.200 V 10.000 M 236.024 13.000 V 42.400 M 236.024 45.400 V 74.800 M 236.024 77.800 V 107.200 M 237.524 110.200 V 94.000 M 237.524 91.000 V 61.600 M 237.524 58.600 V 29.200 M 237.524 26.200 V 10.000 M 239.024 13.000 V 42.400 M 239.024 45.400 V 74.800 M 239.024 77.800 V 107.200 M 240.524 110.200 V 94.000 M 240.524 91.000 V 61.600 M 240.524 58.600 V 29.200 M 240.524 26.200 V 10.000 M 242.024 13.000 V 42.400 M 242.024 45.400 V 74.800 M 242.024 77.800 V 107.200 M 243.524 110.200 V 94.000 M 243.524 91.000 V 61.600 M 243.524 58.600 V 29.200 M 243.524 26.200 V 10.000 M 245.024 13.000 V 42.400 M 245.024 45.400 V 74.800 M 245.024 77.800 V 107.200" stroke="rgb(0,0,0)" stroke-width="0.20" />
  <path d="M 312.113 110.200 V 94.000 M 312.113 91.000 V 61.600 M 312.113 58.600 V 29.200 M 312.113 26.200 V 10.000 M 313.613 13.000 V 42.400 M 313.613 45.400 V 74.800 M 313.613 77.800 V 107.200 M 315.113 110.200 V 94.000 M 315.113 91.000 V 61.600 M 315.113 58.600 V 29.200 M 315.113 26.200 V 10.000 M 316.613 13.000 V 42.400 M 316.613 45.400 V 74.800 M 316.613 77.800 V 107.200 M 318.113 110.200 V 94.000 M 318.113 91.000 V 61.600 M 318.113 58.600 V 29.200 M 318.113 26.200 V 10.000 M 319.613 13.000 V 42.400 M 319.613 45.400 V 74.800 M 319.613 77.800 V 107.200 M 321.113 110.200 V 94.000 M 321.113 91.000 V 61.600 M 321.113 58.600 V 29.200 M 321.113 26.200 V 10.000 M 322.613 13.000 V 42.400 M 322.613 45.400 V 74.800 M 322.613 77.800 V 107.200 M 324.113 110.200 V 94.000 M 324.113 91.000 V 61.600 M 324.113 58.600 V 29.200 M 324.113 26.200 V 10.000 M 325.613 13.000 V 42.400 M 325.613 45.400 V 74.800 M 325.613 77.800 V 107.200 M 327.113 110.200 V 94.000 M 327.113 91.000 V 61.600 M 327.113 58.600 V 29.200 M 327.113 26.200 V 10.000 M 328.613 13.000 V 42.400 M 328.613 45.400 V 74.800 M 328.613 77.800 V 107.200 M 330.113 110.200 V 94.000 M 330.113 91.000 V 61.600 M 330.113 58.600 V 29.200 M 330.113 26.200 V 10.000 M 331.613 13.000 V 42.400 M 331.613 45.400 V 74.800 M 331.613 77.800 V 107.200" stroke="rgb(0,0,0)" stroke-width="0.20" />
</g>
</svg>