<?xml version='1.0' encoding='utf-8'?>
<svg height="245.60mm" viewBox="0.0 0.0 754.90 245.60" width="754.90mm" xmlns="http://www.w3.org/2000/svg" xmlns:cc="http://creativecommons.org/ns#" xmlns:dc="http://purl.org/dc/elements/1.1/" xmlns:inkscape="http://www.inkscape.org/namespaces/inkscape" xmlns:rdf="http://www.w3.org/1999/02/22-rdf-syntax-ns#" xmlns:svg="http://www.w3.org/2000/svg" xmlns:xlink="http://www.w3.org/1999/xlink">
<!--
ShutterBox - Box with a rolling shutter made of flex


Beware of the rolling shutter effect! Use wax on sliding surfaces.

![Inside](static/samples/ShutterBox-3.jpg)

![Detail](static/samples/ShutterBox-2.jpg)



Created with Boxes.py (https://festi.info/boxes.py)
Command line (remove spaces between dashes): boxes ShutterBox
-->
<title>ShutterBox</title>
<metadata>
<rdf:RDF><cc:Work>
<dc:title>FlexBox - ShutterBox</dc:title>
<dc:source>boxes ShutterBox</dc:source>
<dc:description>Box with a rolling shutter made of flex

Beware of the rolling shutter effect! Use wax on sliding surfaces.

![Inside](static/samples/ShutterBox-3.jpg)

![Detail](static/samples/ShutterBox-2.jpg)


Created with Boxes.py (https://festi.info/boxes.py)
Command line: boxes ShutterBox
Command line short: boxes ShutterBox
</dc:description>
</cc:Work></rdf:RDF></metadata>
<g id="p-0" style="fill:none;stroke-linecap:round;stroke-linejoin:round;">
  <path d="M 10.100 235.600 H 110.100 V 225.600 H 10.100 V 235.600 Z" stroke="rgb(0,0,0)" stroke-width="0.20" />
  <text dominant-baseline="hanging" font-size="6px" style="font-family: sans-serif ; font-weight: normal; font-style: normal; fill: rgb(255,0,0)" text-anchor="middle" transform="matrix( 1.000 0.000 0.000 1.000 60.100 227.600 )">100.0mm, burn:0.10mm</text>
</g>
<g id="p-1" style="fill:none;stroke-linecap:round;stroke-linejoin:round;">
  <path d="M 20.100 216.300 H 17.200 C 17.100 216.300 17.200 216.400 17.200 216.300 V 213.500 C 17.200 213.400 17.100 213.500 17.200 213.500 H 23.000 C 23.100 213.500 23.000 213.400 23.000 213.500 V 216.300 C 23.000 216.400 23.100 216.300 23.000 216.300 H 20.100 Z" stroke="rgb(0,0,255)" stroke-width="0.20" />
  <path d="M 32.100 216.300 H 29.200 C 29.100 216.300 29.200 216.400 29.200 216.300 V 213.500 C 29.200 213.400 29.100 213.500 29.200 213.500 H 35.000 C 35.100 213.500 35.000 213.400 35.000 213.500 V 216.300 C 35.000 216.400 35.100 216.300 35.000 216.300 H 32.100 Z" stroke="rgb(0,0,255)" stroke-width="0.20" />
  <path d="M 44.100 216.300 H 41.200 C 41.100 216.300 41.200 216.400 41.200 216.300 V 213.500 C 41.200 213.400 41.100 213.500 41.200 213.500 H 47.000 C 47.100 213.500 47.000 213.400 47.000 213.500 V 216.300 C 47.000 216.400 47.100 216.300 47.000 216.300 H 44.100 Z" stroke="rgb(0,0,255)" stroke-width="0.20" />
  <path d="M 56.100 216.300 H 53.200 C 53.100 216.300 53.200 216.400 53.200 216.300 V 213.500 C 53.200 213.400 53.100 213.500 53.200 213.500 H 59.000 C 59.100 213.500 59.000 213.400 59.000 213.500 V 216.300 C 59.000 216.400 59.100 216.300 59.000 216.300 H 56.100 Z" stroke="rgb(0,0,255)" stroke-width="0.20" />
  <path d="M 68.100 216.300 H 65.200 C 65.100 216.300 65.200 216.400 65.200 216.300 V 213.500 C 65.200 213.400 65.100 213.500 65.200 213.500 H 71.000 C 71.100 213.500 71.000 213.400 71.000 213.500 V 216.300 C 71.000 216.400 71.100 216.300 71.000 216.300 H 68.100 Z" stroke="rgb(0,0,255)" stroke-width="0.20" />
  <path d="M 80.100 216.300 H 77.200 C 77.100 216.300 77.200 216.400 77.200 216.300 V 213.500 C 77.200 213.400 77.100 213.500 77.200 213.500 H 83.000 C 83.100 213.500 83.000 213.400 83.000 213.500 V 216.300 C 83.000 216.400 83.100 216.300 83.000 216.300 H 80.100 Z" stroke="rgb(0,0,255)" stroke-width="0.20" />
  <path d="M 92.100 216.300 H 89.200 C 89.100 216.300 89.200 216.400 89.200 216.300 V 213.500 C 89.200 213.400 89.100 213.500 89.200 213.500 H 95.000 C 95.100 213.500 95.000 213.400 95.000 213.500 V 216.300 C 95.000 216.400 95.100 216.300 95.000 216.300 H 92.100 Z" stroke="rgb(0,0,255)" stroke-width="0.20" />
  <path d="M 104.100 216.300 H 101.200 C 101.100 216.300 101.200 216.400 101.200 216.300 V 213.500 C 101.200 213.400 101.100 213.500 101.200 213.500 H 107.000 C 107.100 213.500 107.000 213.400 107.000 213.500 V 216.300 C 107.000 216.400 107.100 216.300 107.000 216.300 H 104.100 Z" stroke="rgb(0,0,255)" stroke-width="0.20" />
  <path d="M 116.100 216.300 H 113.200 C 113.100 216.300 113.200 216.400 113.200 216.300 V 213.500 C 113.200 213.400 113.100 213.500 113.200 213.500 H 119.000 C 119.100 213.500 119.000 213.400 119.000 213.500 V 216.300 C 119.000 216.400 119.100 216.300 119.000 216.300 H 116.100 Z" stroke="rgb(0,0,255)" stroke-width="0.20" />
  <path d="M 131.976 214.024 L 129.174 214.775 C 129.078 214.801 129.200 214.871 129.174 214.775 L 128.450 212.070 C 128.424 211.973 128.353 212.096 128.450 212.070 L 134.052 210.569 C 134.149 210.543 134.026 210.472 134.052 210.569 L 134.777 213.274 C 134.803 213.370 134.873 213.248 134.777 213.274 L 131.976 214.024 Z" stroke="rgb(0,0,255)" stroke-width="0.20" />
  <path d="M 147.349 205.149 L 145.298 207.199 C 145.227 207.270 145.369 207.270 145.298 207.199 L 143.318 205.219 C 143.247 205.149 143.247 205.290 143.318 205.219 L 147.419 201.118 C 147.490 201.047 147.349 201.047 147.419 201.118 L 149.399 203.098 C 149.470 203.169 149.470 203.027 149.399 203.098 L 147.349 205.149 Z" stroke="rgb(0,0,255)" stroke-width="0.20" />
  <path d="M 156.224 189.776 L 155.474 192.577 C 155.448 192.673 155.570 192.603 155.474 192.577 L 152.769 191.852 C 152.672 191.826 152.743 191.949 152.769 191.852 L 154.270 186.250 C 154.296 186.153 154.173 186.224 154.270 186.250 L 156.975 186.974 C 157.071 187.000 157.001 186.878 156.975 186.974 L 156.224 189.776 Z" stroke="rgb(0,0,255)" stroke-width="0.20" />
  <path d="M 158.500 170.900 V 173.800 C 158.500 173.900 158.600 173.800 158.500 173.800 H 155.700 C 155.600 173.800 155.700 173.900 155.700 173.800 V 168.000 C 155.700 167.900 155.600 168.000 155.700 168.000 H 158.500 C 158.600 168.000 158.500 167.900 158.500 168.000 V 170.900 Z" stroke="rgb(0,0,255)" stroke-width="0.20" />
  <path d="M 13.100 220.900 H 19.000 C 19.100 220.900 19.000 220.800 19.000 220.900 V 223.800 C 19.000 223.855 19.045 223.900 19.100 223.900 H 25.100 C 25.155 223.900 25.200 223.855 25.200 223.800 V 220.900 C 25.200 220.800 25.100 220.900 25.200 220.900 H 31.000 C 31.100 220.900 31.000 220.800 31.000 220.900 V 223.800 C 31.000 223.855 31.045 223.900 31.100 223.900 H 37.100 C 37.155 223.900 37.200 223.855 37.200 223.800 V 220.900 C 37.200 220.800 37.100 220.900 37.200 220.900 H 43.000 C 43.100 220.900 43.000 220.800 43.000 220.900 V 223.800 C 43.000 223.855 43.045 223.900 43.100 223.900 H 49.100 C 49.155 223.900 49.200 223.855 49.200 223.800 V 220.900 C 49.200 220.800 49.100 220.900 49.200 220.900 H 55.000 C 55.100 220.900 55.000 220.800 55.000 220.900 V 223.800 C 55.000 223.855 55.045 223.900 55.100 223.900 H 61.100 C 61.155 223.900 61.200 223.855 61.200 223.800 V 220.900 C 61.200 220.800 61.100 220.900 61.200 220.900 H 67.000 C 67.100 220.900 67.000 220.800 67.000 220.900 V 223.800 C 67.000 223.855 67.045 223.900 67.100 223.900 H 73.100 C 73.155 223.900 73.200 223.855 73.200 223.800 V 220.900 C 73.200 220.800 73.100 220.900 73.200 220.900 H 79.000 C 79.100 220.900 79.000 220.800 79.000 220.900 V 223.800 C 79.000 223.855 79.045 223.900 79.100 223.900 H 85.100 C 85.155 223.900 85.200 223.855 85.200 223.800 V 220.900 C 85.200 220.800 85.100 220.900 85.200 220.900 H 91.000 C 91.100 220.900 91.000 220.800 91.000 220.900 V 223.800 C 91.000 223.855 91.045 223.900 91.100 223.900 H 97.100 C 97.155 223.900 97.200 223.855 97.200 223.800 V 220.900 C 97.200 220.800 97.100 220.900 97.200 220.900 H 103.000 C 103.100 220.900 103.000 220.800 103.000 220.900 V 223.800 C 103.000 223.855 103.045 223.900 103.100 223.900 H 109.100 C 109.155 223.900 109.200 223.855 109.200 223.800 V 220.900 C 109.200 220.800 109.100 220.900 109.200 220.900 H 115.000 C 115.100 220.900 115.000 220.800 115.000 220.900 V 223.800 C 115.000 223.855 115.045 223.900 115.100 223.900 H 121.100 C 121.155 223.900 121.200 223.855 121.200 223.800 V 220.900 C 121.200 220.800 121.100 220.900 121.200 220.900 H 127.000 C 127.100 220.900 127.000 220.800 127.000 220.900 V 223.800 C 127.000 223.855 127.045 223.900 127.100 223.900 H 133.100 C 133.155 223.900 133.200 223.855 133.200 223.800 V 220.900 C 133.200 220.800 133.100 220.900 133.200 220.900 H 139.000 C 139.100 220.900 139.000 220.800 139.000 220.900 V 223.800 C 139.000 223.855 139.045 223.900 139.100 223.900 H 145.100 C 145.155 223.900 145.200 223.855 145.200 223.800 V 220.900 C 145.200 220.800 145.100 220.900 145.200 220.900 H 151.000 C 151.100 220.900 151.000 220.800 151.000 220.900 V 223.800 C 151.000 223.855 151.045 223.900 151.100 223.900 H 157.100 C 157.155 223.900 157.200 223.855 157.200 223.800 V 220.900 C 157.200 220.800 157.100 220.900 157.200 220.900 H 163.100 C 163.155 220.900 163.200 220.855 163.200 220.800 V 217.900 C 163.200 217.800 163.100 217.900 163.200 217.900 H 166.100 C 166.155 217.900 166.200 217.855 166.200 217.800 V 211.800 C 166.200 211.745 166.155 211.700 166.100 211.700 H 163.200 C 163.100 211.700 163.200 211.800 163.200 211.700 V 205.900 C 163.200 205.800 163.100 205.900 163.200 205.900 H 166.100 C 166.155 205.900 166.200 205.855 166.200 205.800 V 199.800 C 166.200 199.745 166.155 199.700 166.100 199.700 H 163.200 C 163.100 199.700 163.200 199.800 163.200 199.700 V 193.900 C 163.200 193.800 163.100 193.900 163.200 193.900 H 166.100 C 166.155 193.900 166.200 193.855 166.200 193.800 V 187.800 C 166.200 187.745 166.155 187.700 166.100 187.700 H 163.200 C 163.100 187.700 163.200 187.800 163.200 187.700 V 181.900 C 163.200 181.800 163.100 181.900 163.200 181.900 H 166.100 C 166.155 181.900 166.200 181.855 166.200 181.800 V 175.800 C 166.200 175.745 166.155 175.700 166.100 175.700 H 163.200 C 163.100 175.700 163.200 175.800 163.200 175.700 V 169.900 C 163.200 169.800 163.100 169.900 163.200 169.900 H 166.100 C 166.155 169.900 166.200 169.855 166.200 169.800 V 163.800 C 166.200 163.745 166.155 163.700 166.100 163.700 H 163.200 C 163.100 163.700 163.200 163.800 163.200 163.700 V 160.900 C 163.200 160.800 163.100 160.900 163.200 160.900 H 166.100 C 166.155 160.900 166.200 160.855 166.200 160.800 C 166.200 153.234 164.209 145.802 160.426 139.250 C 156.643 132.698 151.202 127.257 144.650 123.474 C 138.098 119.691 130.666 117.700 123.100 117.700 H 13.100 C 13.045 117.700 13.000 117.745 13.000 117.800 V 120.800 V 125.700 C 13.000 125.800 13.100 125.700 13.000 125.700 H 10.100 C 10.045 125.700 10.000 125.745 10.000 125.800 V 131.800 C 10.000 131.855 10.045 131.900 10.100 131.900 H 13.000 C 13.100 131.900 13.000 131.800 13.000 131.900 V 137.700 C 13.000 137.800 13.100 137.700 13.000 137.700 H 10.100 C 10.045 137.700 10.000 137.745 10.000 137.800 V 143.800 C 10.000 143.855 10.045 143.900 10.100 143.900 H 13.000 C 13.100 143.900 13.000 143.800 13.000 143.900 V 149.700 C 13.000 149.800 13.100 149.700 13.000 149.700 H 10.100 C 10.045 149.700 10.000 149.745 10.000 149.800 V 155.800 C 10.000 155.855 10.045 155.900 10.100 155.900 H 13.000 C 13.100 155.900 13.000 155.800 13.000 155.900 V 161.700 C 13.000 161.800 13.100 161.700 13.000 161.700 H 10.100 C 10.045 161.700 10.000 161.745 10.000 161.800 V 167.800 C 10.000 167.855 10.045 167.900 10.100 167.900 H 13.000 C 13.100 167.900 13.000 167.800 13.000 167.900 V 173.700 C 13.000 173.800 13.100 173.700 13.000 173.700 H 10.100 C 10.045 173.700 10.000 173.745 10.000 173.800 V 179.800 C 10.000 179.855 10.045 179.900 10.100 179.900 H 13.000 C 13.100 179.900 13.000 179.800 13.000 179.900 V 185.700 C 13.000 185.800 13.100 185.700 13.000 185.700 H 10.100 C 10.045 185.700 10.000 185.745 10.000 185.800 V 191.800 C 10.000 191.855 10.045 191.900 10.100 191.900 H 13.000 C 13.100 191.900 13.000 191.800 13.000 191.900 V 197.700 C 13.000 197.800 13.100 197.700 13.000 197.700 H 10.100 C 10.045 197.700 10.000 197.745 10.000 197.800 V 203.800 C 10.000 203.855 10.045 203.900 10.100 203.900 H 13.000 C 13.100 203.900 13.000 203.800 13.000 203.900 V 209.700 C 13.000 209.800 13.100 209.700 13.000 209.700 H 10.100 C 10.045 209.700 10.000 209.745 10.000 209.800 V 215.800 C 10.000 215.855 10.045 215.900 10.100 215.900 H 13.000 C 13.100 215.900 13.000 215.800 13.000 215.900 V 220.800" stroke="rgb(0,0,0)" stroke-width="0.20" />
</g>
<g id="p-2" style="fill:none;stroke-linecap:round;stroke-linejoin:round;">
  <path d="M 177.800 216.300 H 174.900 C 174.800 216.300 174.900 216.400 174.900 216.300 V 213.500 C 174.900 213.400 174.800 213.500 174.900 213.500 H 180.700 C 180.800 213.500 180.700 213.400 180.700 213.500 V 216.300 C 180.700 216.400 180.800 216.300 180.700 216.300 H 177.800 Z" stroke="rgb(0,0,255)" stroke-width="0.20" />
  <path d="M 189.800 216.300 H 186.900 C 186.800 216.300 186.900 216.400 186.900 216.300 V 213.500 C 186.900 213.400 186.800 213.500 186.900 213.500 H 192.700 C 192.800 213.500 192.700 213.400 192.700 213.500 V 216.300 C 192.700 216.400 192.800 216.300 192.700 216.300 H 189.800 Z" stroke="rgb(0,0,255)" stroke-width="0.20" />
  <path d="M 201.800 216.300 H 198.900 C 198.800 216.300 198.900 216.400 198.900 216.300 V 213.500 C 198.900 213.400 198.800 213.500 198.900 213.500 H 204.700 C 204.800 213.500 204.700 213.400 204.700 213.500 V 216.300 C 204.700 216.400 204.800 216.300 204.700 216.300 H 201.800 Z" stroke="rgb(0,0,255)" stroke-width="0.20" />
  <path d="M 213.800 216.300 H 210.900 C 210.800 216.300 210.900 216.400 210.900 216.300 V 213.500 C 210.900 213.400 210.800 213.500 210.900 213.500 H 216.700 C 216.800 213.500 216.700 213.400 216.700 213.500 V 216.300 C 216.700 216.400 216.800 216.300 216.700 216.300 H 213.800 Z" stroke="rgb(0,0,255)" stroke-width="0.20" />
  <path d="M 225.800 216.300 H 222.900 C 222.800 216.300 222.900 216.400 222.900 216.300 V 213.500 C 222.900 213.400 222.800 213.500 222.900 213.500 H 228.700 C 228.800 213.500 228.700 213.400 228.700 213.500 V 216.300 C 228.700 216.400 228.800 216.300 228.700 216.300 H 225.800 Z" stroke="rgb(0,0,255)" stroke-width="0.20" />
  <path d="M 237.800 216.300 H 234.900 C 234.800 216.300 234.900 216.400 234.900 216.300 V 213.500 C 234.900 213.400 234.800 213.500 234.900 213.500 H 240.700 C 240.800 213.500 240.700 213.400 240.700 213.500 V 216.300 C 240.700 216.400 240.800 216.300 240.700 216.300 H 237.800 Z" stroke="rgb(0,0,255)" stroke-width="0.20" />
  <path d="M 249.800 216.300 H 246.900 C 246.800 216.300 246.900 216.400 246.900 216.300 V 213.500 C 246.900 213.400 246.800 213.500 246.900 213.500 H 252.700 C 252.800 213.500 252.700 213.400 252.700 213.500 V 216.300 C 252.700 216.400 252.800 216.300 252.700 216.300 H 249.800 Z" stroke="rgb(0,0,255)" stroke-width="0.20" />
  <path d="M 261.800 216.300 H 258.900 C 258.800 216.300 258.900 216.400 258.900 216.300 V 213.500 C 258.900 213.400 258.800 213.500 258.900 213.500 H 264.700 C 264.800 213.500 264.700 213.400 264.700 213.500 V 216.300 C 264.700 216.400 264.800 216.300 264.700 216.300 H 261.800 Z" stroke="rgb(0,0,255)" stroke-width="0.20" />
  <path d="M 273.800 216.300 H 270.900 C 270.800 216.300 270.900 216.400 270.900 216.300 V 213.500 C 270.900 213.400 270.800 213.500 270.900 213.500 H 276.700 C 276.800 213.500 276.700 213.400 276.700 213.500 V 216.300 C 276.700 216.400 276.800 216.300 276.700 216.300 H 273.800 Z" stroke="rgb(0,0,255)" stroke-width="0.20" />
  <path d="M 289.676 214.024 L 286.874 214.775 C 286.778 214.801 286.900 214.871 286.874 214.775 L 286.150 212.070 C 286.124 211.973 286.053 212.096 286.150 212.070 L 291.752 210.569 C 291.849 210.543 291.726 210.472 291.752 210.569 L 292.477 213.274 C 292.503 213.370 292.573 213.248 292.477 213.274 L 289.676 214.024 Z" stroke="rgb(0,0,255)" stroke-width="0.20" />
  <path d="M 305.049 205.149 L 302.998 207.199 C 302.927 207.270 303.069 207.270 302.998 207.199 L 301.018 205.219 C 300.947 205.149 300.947 205.290 301.018 205.219 L 305.119 201.118 C 305.190 201.047 305.049 201.047 305.119 201.118 L 307.099 203.098 C 307.170 203.169 307.170 203.027 307.099 203.098 L 305.049 205.149 Z" stroke="rgb(0,0,255)" stroke-width="0.20" />
  <path d="M 313.924 189.776 L 313.174 192.577 C 313.148 192.673 313.270 192.603 313.174 192.577 L 310.469 191.852 C 310.372 191.826 310.443 191.949 310.469 191.852 L 311.970 186.250 C 311.996 186.153 311.873 186.224 311.970 186.250 L 314.675 186.974 C 314.771 187.000 314.701 186.878 314.675 186.974 L 313.924 189.776 Z" stroke="rgb(0,0,255)" stroke-width="0.20" />
  <path d="M 316.200 170.900 V 173.800 C 316.200 173.900 316.300 173.800 316.200 173.800 H 313.400 C 313.300 173.800 313.400 173.900 313.400 173.800 V 168.000 C 313.400 167.900 313.300 168.000 313.400 168.000 H 316.200 C 316.300 168.000 316.200 167.900 316.200 168.000 V 170.900 Z" stroke="rgb(0,0,255)" stroke-width="0.20" />
  <path d="M 170.800 220.900 H 176.700 C 176.800 220.900 176.700 220.800 176.700 220.900 V 223.800 C 176.700 223.855 176.745 223.900 176.800 223.900 H 182.800 C 182.855 223.900 182.900 223.855 182.900 223.800 V 220.900 C 182.900 220.800 182.800 220.900 182.900 220.900 H 188.700 C 188.800 220.900 188.700 220.800 188.700 220.900 V 223.800 C 188.700 223.855 188.745 223.900 188.800 223.900 H 194.800 C 194.855 223.900 194.900 223.855 194.900 223.800 V 220.900 C 194.900 220.800 194.800 220.900 194.900 220.900 H 200.700 C 200.800 220.900 200.700 220.800 200.700 220.900 V 223.800 C 200.700 223.855 200.745 223.900 200.800 223.900 H 206.800 C 206.855 223.900 206.900 223.855 206.900 223.800 V 220.900 C 206.900 220.800 206.800 220.900 206.900 220.900 H 212.700 C 212.800 220.900 212.700 220.800 212.700 220.900 V 223.800 C 212.700 223.855 212.745 223.900 212.800 223.900 H 218.800 C 218.855 223.900 218.900 223.855 218.900 223.800 V 220.900 C 218.900 220.800 218.800 220.900 218.900 220.900 H 224.700 C 224.800 220.900 224.700 220.800 224.700 220.900 V 223.800 C 224.700 223.855 224.745 223.900 224.800 223.900 H 230.800 C 230.855 223.900 230.900 223.855 230.900 223.800 V 220.900 C 230.900 220.800 230.800 220.900 230.900 220.900 H 236.700 C 236.800 220.900 236.700 220.800 236.700 220.900 V 223.800 C 236.700 223.855 236.745 223.900 236.800 223.900 H 242.800 C 242.855 223.900 242.900 223.855 242.900 223.800 V 220.900 C 242.900 220.800 242.800 220.900 242.900 220.900 H 248.700 C 248.800 220.900 248.700 220.800 248.700 220.900 V 223.800 C 248.700 223.855 248.745 223.900 248.800 223.900 H 254.800 C 254.855 223.900 254.900 223.855 254.900 223.800 V 220.900 C 254.900 220.800 254.800 220.900 254.900 220.900 H 260.700 C 260.800 220.900 260.700 220.800 260.700 220.900 V 223.800 C 260.700 223.855 260.745 223.900 260.800 223.900 H 266.800 C 266.855 223.900 266.900 223.855 266.900 223.800 V 220.900 C 266.900 220.800 266.800 220.900 266.900 220.900 H 272.700 C 272.800 220.900 272.700 220.800 272.700 220.900 V 223.800 C 272.700 223.855 272.745 223.900 272.800 223.900 H 278.800 C 278.855 223.900 278.900 223.855 278.900 223.800 V 220.900 C 278.900 220.800 278.800 220.900 278.900 220.900 H 284.700 C 284.800 220.900 284.700 220.800 284.700 220.900 V 223.800 C 284.700 223.855 284.745 223.900 284.800 223.900 H 290.800 C 290.855 223.900 290.900 223.855 290.900 223.800 V 220.900 C 290.900 220.800 290.800 220.900 290.900 220.900 H 296.700 C 296.800 220.900 296.700 220.800 296.700 220.900 V 223.800 C 296.700 223.855 296.745 223.900 296.800 223.900 H 302.800 C 302.855 223.900 302.900 223.855 302.900 223.800 V 220.900 C 302.900 220.800 302.800 220.900 302.900 220.900 H 308.700 C 308.800 220.900 308.700 220.800 308.700 220.900 V 223.800 C 308.700 223.855 308.745 223.900 308.800 223.900 H 314.800 C 314.855 223.900 314.900 223.855 314.900 223.800 V 220.900 C 314.900 220.800 314.800 220.900 314.900 220.900 H 320.800 C 320.855 220.900 320.900 220.855 320.900 220.800 V 217.900 C 320.900 217.800 320.800 217.900 320.900 217.900 H 323.800 C 323.855 217.900 323.900 217.855 323.900 217.800 V 211.800 C 323.900 211.745 323.855 211.700 323.800 211.700 H 320.900 C 320.800 211.700 320.900 211.800 320.900 211.700 V 205.900 C 320.900 205.800 320.800 205.900 320.900 205.900 H 323.800 C 323.855 205.900 323.900 205.855 323.900 205.800 V 199.800 C 323.900 199.745 323.855 199.700 323.800 199.700 H 320.900 C 320.800 199.700 320.900 199.800 320.900 199.700 V 193.900 C 320.900 193.800 320.800 193.900 320.900 193.900 H 323.800 C 323.855 193.900 323.900 193.855 323.900 193.800 V 187.800 C 323.900 187.745 323.855 187.700 323.800 187.700 H 320.900 C 320.800 187.700 320.900 187.800 320.900 187.700 V 181.900 C 320.900 181.800 320.800 181.900 320.900 181.900 H 323.800 C 323.855 181.900 323.900 181.855 323.900 181.800 V 175.800 C 323.900 175.745 323.855 175.700 323.800 175.700 H 320.900 C 320.800 175.700 320.900 175.800 320.900 175.700 V 169.900 C 320.900 169.800 320.800 169.900 320.900 169.900 H 323.800 C 323.855 169.900 323.900 169.855 323.900 169.800 V 163.800 C 323.900 163.745 323.855 163.700 323.800 163.700 H 320.900 C 320.800 163.700 320.900 163.800 320.900 163.700 V 160.900 C 320.900 160.800 320.800 160.900 320.900 160.900 H 323.800 C 323.855 160.900 323.900 160.855 323.900 160.800 C 323.900 153.234 321.909 145.802 318.126 139.250 C 314.343 132.698 308.902 127.257 302.350 123.474 C 295.798 119.691 288.366 117.700 280.800 117.700 H 170.800 C 170.745 117.700 170.700 117.745 170.700 117.800 V 120.800 V 125.700 C 170.700 125.800 170.800 125.700 170.700 125.700 H 167.800 C 167.745 125.700 167.700 125.745 167.700 125.800 V 131.800 C 167.700 131.855 167.745 131.900 167.800 131.900 H 170.700 C 170.800 131.900 170.700 131.800 170.700 131.900 V 137.700 C 170.700 137.800 170.800 137.700 170.700 137.700 H 167.800 C 167.745 137.700 167.700 137.745 167.700 137.800 V 143.800 C 167.700 143.855 167.745 143.900 167.800 143.900 H 170.700 C 170.800 143.900 170.700 143.800 170.700 143.900 V 149.700 C 170.700 149.800 170.800 149.700 170.700 149.700 H 167.800 C 167.745 149.700 167.700 149.745 167.700 149.800 V 155.800 C 167.700 155.855 167.745 155.900 167.800 155.900 H 170.700 C 170.800 155.900 170.700 155.800 170.700 155.900 V 161.700 C 170.700 161.800 170.800 161.700 170.700 161.700 H 167.800 C 167.745 161.700 167.700 161.745 167.700 161.800 V 167.800 C 167.700 167.855 167.745 167.900 167.800 167.900 H 170.700 C 170.800 167.900 170.700 167.800 170.700 167.900 V 173.700 C 170.700 173.800 170.800 173.700 170.700 173.700 H 167.800 C 167.745 173.700 167.700 173.745 167.700 173.800 V 179.800 C 167.700 179.855 167.745 179.900 167.800 179.900 H 170.700 C 170.800 179.900 170.700 179.800 170.700 179.900 V 185.700 C 170.700 185.800 170.800 185.700 170.700 185.700 H 167.800 C 167.745 185.700 167.700 185.745 167.700 185.800 V 191.800 C 167.700 191.855 167.745 191.900 167.800 191.900 H 170.700 C 170.800 191.900 170.700 191.800 170.700 191.900 V 197.700 C 170.700 197.800 170.800 197.700 170.700 197.700 H 167.800 C 167.745 197.700 167.700 197.745 167.700 197.800 V 203.800 C 167.700 203.855 167.745 203.900 167.800 203.900 H 170.700 C 170.800 203.900 170.700 203.800 170.700 203.900 V 209.700 C 170.700 209.800 170.800 209.700 170.700 209.700 H 167.800 C 167.745 209.700 167.700 209.745 167.700 209.800 V 215.800 C 167.700 215.855 167.745 215.900 167.800 215.900 H 170.700 C 170.800 215.900 170.700 215.800 170.700 215.900 V 220.800" stroke="rgb(0,0,0)" stroke-width="0.20" />
</g>
<g id="p-3" style="fill:none;stroke-linecap:round;stroke-linejoin:round;">
  <path d="M 328.500 220.900 H 333.400 C 333.500 220.900 333.400 220.800 333.400 220.900 V 223.800 C 333.400 223.855 333.445 223.900 333.500 223.900 H 339.500 C 339.555 223.900 339.600 223.855 339.600 223.800 V 220.900 C 339.600 220.800 339.500 220.900 339.600 220.900 H 345.400 C 345.500 220.900 345.400 220.800 345.400 220.900 V 223.800 C 345.400 223.855 345.445 223.900 345.500 223.900 H 351.500 C 351.555 223.900 351.600 223.855 351.600 223.800 V 220.900 C 351.600 220.800 351.500 220.900 351.600 220.900 H 357.400 C 357.500 220.900 357.400 220.800 357.400 220.900 V 223.800 C 357.400 223.855 357.445 223.900 357.500 223.900 H 363.500 C 363.555 223.900 363.600 223.855 363.600 223.800 V 220.900 C 363.600 220.800 363.500 220.900 363.600 220.900 H 369.400 C 369.500 220.900 369.400 220.800 369.400 220.900 V 223.800 C 369.400 223.855 369.445 223.900 369.500 223.900 H 375.500 C 375.555 223.900 375.600 223.855 375.600 223.800 V 220.900 C 375.600 220.800 375.500 220.900 375.600 220.900 H 381.400 C 381.500 220.900 381.400 220.800 381.400 220.900 V 223.800 C 381.400 223.855 381.445 223.900 381.500 223.900 H 387.500 C 387.555 223.900 387.600 223.855 387.600 223.800 V 220.900 C 387.600 220.800 387.500 220.900 387.600 220.900 H 393.400 C 393.500 220.900 393.400 220.800 393.400 220.900 V 223.800 C 393.400 223.855 393.445 223.900 393.500 223.900 H 399.500 C 399.555 223.900 399.600 223.855 399.600 223.800 V 220.900 C 399.600 220.800 399.500 220.900 399.600 220.900 H 405.400 C 405.500 220.900 405.400 220.800 405.400 220.900 V 223.800 C 405.400 223.855 405.445 223.900 405.500 223.900 H 411.500 C 411.555 223.900 411.600 223.855 411.600 223.800 V 220.900 C 411.600 220.800 411.500 220.900 411.600 220.900 H 417.400 C 417.500 220.900 417.400 220.800 417.400 220.900 V 223.800 C 417.400 223.855 417.445 223.900 417.500 223.900 H 423.500 C 423.555 223.900 423.600 223.855 423.600 223.800 V 220.900 C 423.600 220.800 423.500 220.900 423.600 220.900 H 428.500 H 431.500 C 431.555 220.900 431.600 220.855 431.600 220.800 V 215.800 C 431.600 215.745 431.555 215.700 431.500 215.700 H 428.600 C 428.500 215.700 428.600 215.800 428.600 215.700 V 209.900 C 428.600 209.800 428.500 209.900 428.600 209.900 H 431.500 C 431.555 209.900 431.600 209.855 431.600 209.800 V 203.800 C 431.600 203.745 431.555 203.700 431.500 203.700 H 428.600 C 428.500 203.700 428.600 203.800 428.600 203.700 V 197.900 C 428.600 197.800 428.500 197.900 428.600 197.900 H 431.500 C 431.555 197.900 431.600 197.855 431.600 197.800 V 191.800 C 431.600 191.745 431.555 191.700 431.500 191.700 H 428.600 C 428.500 191.700 428.600 191.800 428.600 191.700 V 185.900 C 428.600 185.800 428.500 185.900 428.600 185.900 H 431.500 C 431.555 185.900 431.600 185.855 431.600 185.800 V 179.800 C 431.600 179.745 431.555 179.700 431.500 179.700 H 428.600 C 428.500 179.700 428.600 179.800 428.600 179.700 V 173.900 C 428.600 173.800 428.500 173.900 428.600 173.900 H 431.500 C 431.555 173.900 431.600 173.855 431.600 173.800 V 167.800 C 431.600 167.745 431.555 167.700 431.500 167.700 H 428.600 C 428.500 167.700 428.600 167.800 428.600 167.700 V 161.900 C 428.600 161.800 428.500 161.900 428.600 161.900 H 431.500 C 431.555 161.900 431.600 161.855 431.600 161.800 V 155.800 C 431.600 155.745 431.555 155.700 431.500 155.700 H 428.600 C 428.500 155.700 428.600 155.800 428.600 155.700 V 149.900 C 428.600 149.800 428.500 149.900 428.600 149.900 H 431.500 C 431.555 149.900 431.600 149.855 431.600 149.800 V 143.800 C 431.600 143.745 431.555 143.700 431.500 143.700 H 428.600 C 428.500 143.700 428.600 143.800 428.600 143.700 V 137.900 C 428.600 137.800 428.500 137.900 428.600 137.900 H 431.500 C 431.555 137.900 431.600 137.855 431.600 137.800 V 131.800 C 431.600 131.745 431.555 131.700 431.500 131.700 H 428.600 C 428.500 131.700 428.600 131.800 428.600 131.700 V 125.900 C 428.600 125.800 428.500 125.900 428.600 125.900 H 431.500 C 431.555 125.900 431.600 125.855 431.600 125.800 V 120.800 V 117.800 C 431.600 117.745 431.555 117.700 431.500 117.700 H 428.500 H 328.500 H 325.500 C 325.445 117.700 325.400 117.745 325.400 117.800 V 120.800 V 125.800 C 325.400 125.855 325.445 125.900 325.500 125.900 H 328.400 C 328.500 125.900 328.400 125.800 328.400 125.900 V 131.700 C 328.400 131.800 328.500 131.700 328.400 131.700 H 325.500 C 325.445 131.700 325.400 131.745 325.400 131.800 V 137.800 C 325.400 137.855 325.445 137.900 325.500 137.900 H 328.400 C 328.500 137.900 328.400 137.800 328.400 137.900 V 143.700 C 328.400 143.800 328.500 143.700 328.400 143.700 H 325.500 C 325.445 143.700 325.400 143.745 325.400 143.800 V 149.800 C 325.400 149.855 325.445 149.900 325.500 149.900 H 328.400 C 328.500 149.900 328.400 149.800 328.400 149.900 V 155.700 C 328.400 155.800 328.500 155.700 328.400 155.700 H 325.500 C 325.445 155.700 325.400 155.745 325.400 155.800 V 161.800 C 325.400 161.855 325.445 161.900 325.500 161.900 H 328.400 C 328.500 161.900 328.400 161.800 328.400 161.900 V 167.700 C 328.400 167.800 328.500 167.700 328.400 167.700 H 325.500 C 325.445 167.700 325.400 167.745 325.400 167.800 V 173.800 C 325.400 173.855 325.445 173.900 325.500 173.900 H 328.400 C 328.500 173.900 328.400 173.800 328.400 173.900 V 179.700 C 328.400 179.800 328.500 179.700 328.400 179.700 H 325.500 C 325.445 179.700 325.400 179.745 325.400 179.800 V 185.800 C 325.400 185.855 325.445 185.900 325.500 185.900 H 328.400 C 328.500 185.900 328.400 185.800 328.400 185.900 V 191.700 C 328.400 191.800 328.500 191.700 328.400 191.700 H 325.500 C 325.445 191.700 325.400 191.745 325.400 191.800 V 197.800 C 325.400 197.855 325.445 197.900 325.500 197.900 H 328.400 C 328.500 197.900 328.400 197.800 328.400 197.900 V 203.700 C 328.400 203.800 328.500 203.700 328.400 203.700 H 325.500 C 325.445 203.700 325.400 203.745 325.400 203.800 V 209.800 C 325.400 209.855 325.445 209.900 325.500 209.900 H 328.400 C 328.500 209.900 328.400 209.800 328.400 209.900 V 215.700 C 328.400 215.800 328.500 215.700 328.400 215.700 H 325.500 C 325.445 215.700 325.400 215.745 325.400 215.800 V 220.800 C 325.400 220.855 325.445 220.900 325.500 220.900 H 328.500 Z" stroke="rgb(0,0,0)" stroke-width="0.20" />
</g>
<g id="p-4" style="fill:none;stroke-linecap:round;stroke-linejoin:round;">
  <path d="M 436.200 220.900 H 441.100 C 441.200 220.900 441.100 220.800 441.100 220.900 V 223.800 C 441.100 223.855 441.145 223.900 441.200 223.900 H 447.200 C 447.255 223.900 447.300 223.855 447.300 223.800 V 220.900 C 447.300 220.800 447.200 220.900 447.300 220.900 H 453.100 C 453.200 220.900 453.100 220.800 453.100 220.900 V 223.800 C 453.100 223.855 453.145 223.900 453.200 223.900 H 459.200 C 459.255 223.900 459.300 223.855 459.300 223.800 V 220.900 C 459.300 220.800 459.200 220.900 459.300 220.900 H 465.100 C 465.200 220.900 465.100 220.800 465.100 220.900 V 223.800 C 465.100 223.855 465.145 223.900 465.200 223.900 H 471.200 C 471.255 223.900 471.300 223.855 471.300 223.800 V 220.900 C 471.300 220.800 471.200 220.900 471.300 220.900 H 477.100 C 477.200 220.900 477.100 220.800 477.100 220.900 V 223.800 C 477.100 223.855 477.145 223.900 477.200 223.900 H 483.200 C 483.255 223.900 483.300 223.855 483.300 223.800 V 220.900 C 483.300 220.800 483.200 220.900 483.300 220.900 H 489.100 C 489.200 220.900 489.100 220.800 489.100 220.900 V 223.800 C 489.100 223.855 489.145 223.900 489.200 223.900 H 495.200 C 495.255 223.900 495.300 223.855 495.300 223.800 V 220.900 C 495.300 220.800 495.200 220.900 495.300 220.900 H 501.100 C 501.200 220.900 501.100 220.800 501.100 220.900 V 223.800 C 501.100 223.855 501.145 223.900 501.200 223.900 H 507.200 C 507.255 223.900 507.300 223.855 507.300 223.800 V 220.900 C 507.300 220.800 507.200 220.900 507.300 220.900 H 513.100 C 513.200 220.900 513.100 220.800 513.100 220.900 V 223.800 C 513.100 223.855 513.145 223.900 513.200 223.900 H 519.200 C 519.255 223.900 519.300 223.855 519.300 223.800 V 220.900 C 519.300 220.800 519.200 220.900 519.300 220.900 H 525.100 C 525.200 220.900 525.100 220.800 525.100 220.900 V 223.800 C 525.100 223.855 525.145 223.900 525.200 223.900 H 531.200 C 531.255 223.900 531.300 223.855 531.300 223.800 V 220.900 C 531.300 220.800 531.200 220.900 531.300 220.900 H 536.200 H 539.200 C 539.255 220.900 539.300 220.855 539.300 220.800 V 217.800 C 539.300 217.745 539.255 217.700 539.200 217.700 H 536.300 C 536.200 217.700 536.300 217.800 536.300 217.700 V 211.900 C 536.300 211.800 536.200 211.900 536.300 211.900 H 539.200 C 539.255 211.900 539.300 211.855 539.300 211.800 V 205.800 C 539.300 205.745 539.255 205.700 539.200 205.700 H 536.300 C 536.200 205.700 536.300 205.800 536.300 205.700 V 199.900 C 536.300 199.800 536.200 199.900 536.300 199.900 H 539.200 C 539.255 199.900 539.300 199.855 539.300 199.800 V 193.800 C 539.300 193.745 539.255 193.700 539.200 193.700 H 536.300 C 536.200 193.700 536.300 193.800 536.300 193.700 V 187.900 C 536.300 187.800 536.200 187.900 536.300 187.900 H 539.200 C 539.255 187.900 539.300 187.855 539.300 187.800 V 181.800 C 539.300 181.745 539.255 181.700 539.200 181.700 H 536.300 C 536.200 181.700 536.300 181.800 536.300 181.700 V 175.900 C 536.300 175.800 536.200 175.900 536.300 175.900 H 539.200 C 539.255 175.900 539.300 175.855 539.300 175.800 V 169.800 C 539.300 169.745 539.255 169.700 539.200 169.700 H 536.300 C 536.200 169.700 536.300 169.800 536.300 169.700 V 163.900 C 536.300 163.800 536.200 163.900 536.300 163.900 H 539.200 C 539.255 163.900 539.300 163.855 539.300 163.800 V 160.800 C 539.300 160.745 539.255 160.700 539.200 160.700 H 536.200 H 436.200 H 433.200 C 433.145 160.700 433.100 160.745 433.100 160.800 V 163.800 C 433.100 163.855 433.145 163.900 433.200 163.900 H 436.100 C 436.200 163.900 436.100 163.800 436.100 163.900 V 169.700 C 436.100 169.800 436.200 169.700 436.100 169.700 H 433.200 C 433.145 169.700 433.100 169.745 433.100 169.800 V 175.800 C 433.100 175.855 433.145 175.900 433.200 175.900 H 436.100 C 436.200 175.900 436.100 175.800 436.100 175.900 V 181.700 C 436.100 181.800 436.200 181.700 436.100 181.700 H 433.200 C 433.145 181.700 433.100 181.745 433.100 181.800 V 187.800 C 433.100 187.855 433.145 187.900 433.200 187.900 H 436.100 C 436.200 187.900 436.100 187.800 436.100 187.900 V 193.700 C 436.100 193.800 436.200 193.700 436.100 193.700 H 433.200 C 433.145 193.700 433.100 193.745 433.100 193.800 V 199.800 C 433.100 199.855 433.145 199.900 433.200 199.900 H 436.100 C 436.200 199.900 436.100 199.800 436.100 199.900 V 205.700 C 436.100 205.800 436.200 205.700 436.100 205.700 H 433.200 C 433.145 205.700 433.100 205.745 433.100 205.800 V 211.800 C 433.100 211.855 433.145 211.900 433.200 211.900 H 436.100 C 436.200 211.900 436.100 211.800 436.100 211.900 V 217.700 C 436.100 217.800 436.200 217.700 436.100 217.700 H 433.200 C 433.145 217.700 433.100 217.745 433.100 217.800 V 220.800 C 433.100 220.855 433.145 220.900 433.200 220.900 H 436.200 Z" stroke="rgb(0,0,0)" stroke-width="0.20" />
</g>
<g id="p-5" style="fill:none;stroke-linecap:round;stroke-linejoin:round;">
  <path d="M 540.900 223.900 H 580.900 C 580.955 223.900 581.000 223.855 581.000 223.800 V 183.800 C 581.000 183.782 580.995 183.765 580.987 183.750 C 580.978 183.735 580.965 183.722 580.950 183.713 C 580.935 183.705 580.918 183.700 580.900 183.700 C 580.882 183.700 580.865 183.705 580.850 183.713 C 580.835 183.722 580.822 183.735 580.813 183.750 C 580.805 183.765 580.800 183.782 580.800 183.800 C 580.800 190.804 578.956 197.684 575.454 203.750 C 571.952 209.816 566.916 214.852 560.850 218.354 C 554.784 221.856 547.904 223.700 540.900 223.700 C 540.918 223.700 540.935 223.705 540.950 223.713 C 540.965 223.722 540.978 223.735 540.987 223.750 C 540.995 223.765 541.000 223.782 541.000 223.800 C 541.000 223.818 540.995 223.835 540.987 223.850 C 540.978 223.865 540.965 223.878 540.950 223.887 C 540.935 223.895 540.918 223.900 540.900 223.900 Z M 580.900 182.200 H 540.900 C 540.845 182.200 540.800 182.245 540.800 182.300 V 222.300 C 540.800 222.318 540.805 222.335 540.813 222.350 C 540.822 222.365 540.835 222.378 540.850 222.387 C 540.865 222.395 540.882 222.400 540.900 222.400 C 540.918 222.400 540.935 222.395 540.950 222.387 C 540.965 222.378 540.978 222.365 540.987 222.350 C 540.995 222.335 541.000 222.318 541.000 222.300 C 541.000 215.296 542.844 208.416 546.346 202.350 C 549.848 196.284 554.884 191.248 560.950 187.746 C 567.016 184.244 573.896 182.400 580.900 182.400 C 580.882 182.400 580.865 182.395 580.850 182.387 C 580.835 182.378 580.822 182.365 580.813 182.350 C 580.805 182.335 580.800 182.318 580.800 182.300 C 580.800 182.282 580.805 182.265 580.813 182.250 C 580.822 182.235 580.835 182.222 580.850 182.213 C 580.865 182.205 580.882 182.200 580.900 182.200 Z" stroke="rgb(0,0,0)" stroke-width="0.20" />
</g>
<g id="p-6" style="fill:none;stroke-linecap:round;stroke-linejoin:round;">
  <path d="M 591.800 223.900 H 701.800 C 709.366 223.900 716.798 221.909 723.350 218.126 C 729.902 214.343 735.343 208.902 739.126 202.350 C 742.909 195.798 744.900 188.366 744.900 180.800 C 744.900 180.745 744.855 180.700 744.800 180.700 H 741.800 C 741.745 180.700 741.700 180.745 741.700 180.800 C 741.700 187.804 739.856 194.684 736.354 200.750 C 732.852 206.816 727.816 211.852 721.750 215.354 C 715.684 218.856 708.804 220.700 701.800 220.700 H 591.800 C 591.745 220.700 591.700 220.745 591.700 220.800 V 223.800 C 591.700 223.855 591.745 223.900 591.800 223.900 Z M 587.100 219.200 H 697.100 C 704.666 219.200 712.098 217.209 718.650 213.426 C 725.202 209.643 730.643 204.202 734.426 197.650 C 738.209 191.098 740.200 183.666 740.200 176.100 C 740.200 176.045 740.155 176.000 740.100 176.000 H 737.100 C 737.045 176.000 737.000 176.045 737.000 176.100 C 737.000 183.104 735.156 189.984 731.654 196.050 C 728.152 202.116 723.116 207.152 717.050 210.654 C 710.984 214.156 704.104 216.000 697.100 216.000 H 587.100 C 587.045 216.000 587.000 216.045 587.000 216.100 V 219.100 C 587.000 219.155 587.045 219.200 587.100 219.200 Z M 588.600 214.500 H 698.600 C 704.849 214.500 710.988 212.855 716.400 209.731 C 721.812 206.606 726.306 202.112 729.431 196.700 C 732.555 191.288 734.200 185.149 734.200 178.900 C 734.200 178.845 734.155 178.800 734.100 178.800 H 731.100 C 731.045 178.800 731.000 178.845 731.000 178.900 C 731.000 184.587 729.503 190.175 726.659 195.100 C 723.816 200.025 719.725 204.116 714.800 206.959 C 709.875 209.803 704.287 211.300 698.600 211.300 H 588.600 C 588.545 211.300 588.500 211.345 588.500 211.400 V 214.400 C 588.500 214.455 588.545 214.500 588.600 214.500 Z M 583.900 209.800 H 693.900 C 700.149 209.800 706.288 208.155 711.700 205.031 C 717.112 201.906 721.606 197.412 724.731 192.000 C 727.855 186.588 729.500 180.449 729.500 174.200 C 729.500 174.145 729.455 174.100 729.400 174.100 H 726.400 C 726.345 174.100 726.300 174.145 726.300 174.200 C 726.300 179.887 724.803 185.475 721.959 190.400 C 719.116 195.325 715.025 199.416 710.100 202.259 C 705.175 205.103 699.587 206.600 693.900 206.600 H 583.900 C 583.845 206.600 583.800 206.645 583.800 206.700 V 209.700 C 583.800 209.755 583.845 209.800 583.900 209.800 Z" stroke="rgb(0,0,0)" stroke-width="0.20" />
</g>
<g id="p-7" style="fill:none;stroke-linecap:round;stroke-linejoin:round;">
  <path d="M 13.100 116.200 H 19.100 C 19.155 116.200 19.200 116.155 19.200 116.100 V 113.200 C 19.200 113.100 19.100 113.200 19.200 113.200 H 25.000 C 25.100 113.200 25.000 113.100 25.000 113.200 V 116.100 C 25.000 116.155 25.045 116.200 25.100 116.200 H 31.100 C 31.155 116.200 31.200 116.155 31.200 116.100 V 113.200 C 31.200 113.100 31.100 113.200 31.200 113.200 H 37.000 C 37.100 113.200 37.000 113.100 37.000 113.200 V 116.100 C 37.000 116.155 37.045 116.200 37.100 116.200 H 43.100 C 43.155 116.200 43.200 116.155 43.200 116.100 V 113.200 C 43.200 113.100 43.100 113.200 43.200 113.200 H 49.000 C 49.100 113.200 49.000 113.100 49.000 113.200 V 116.100 C 49.000 116.155 49.045 116.200 49.100 116.200 H 55.100 C 55.155 116.200 55.200 116.155 55.200 116.100 V 113.200 C 55.200 113.100 55.100 113.200 55.200 113.200 H 61.000 C 61.100 113.200 61.000 113.100 61.000 113.200 V 116.100 C 61.000 116.155 61.045 116.200 61.100 116.200 H 67.100 C 67.155 116.200 67.200 116.155 67.200 116.100 V 113.200 C 67.200 113.100 67.100 113.200 67.200 113.200 H 73.000 C 73.100 113.200 73.000 113.100 73.000 113.200 V 116.100 C 73.000 116.155 73.045 116.200 73.100 116.200 H 79.100 C 79.155 116.200 79.200 116.155 79.200 116.100 V 113.200 C 79.200 113.100 79.100 113.200 79.200 113.200 H 85.000 C 85.100 113.200 85.000 113.100 85.000 113.200 V 116.100 C 85.000 116.155 85.045 116.200 85.100 116.200 H 91.100 C 91.155 116.200 91.200 116.155 91.200 116.100 V 113.200 C 91.200 113.100 91.100 113.200 91.200 113.200 H 97.000 C 97.100 113.200 97.000 113.100 97.000 113.200 V 116.100 C 97.000 116.155 97.045 116.200 97.100 116.200 H 103.100 C 103.155 116.200 103.200 116.155 103.200 116.100 V 113.200 C 103.200 113.100 103.100 113.200 103.200 113.200 H 109.000 C 109.100 113.200 109.000 113.100 109.000 113.200 V 116.100 C 109.000 116.155 109.045 116.200 109.100 116.200 H 115.100 C 115.155 116.200 115.200 116.155 115.200 116.100 V 113.200 C 115.200 113.100 115.100 113.200 115.200 113.200 H 121.000 C 121.100 113.200 121.000 113.100 121.000 113.200 V 116.100 C 121.000 116.155 121.045 116.200 121.100 116.200 H 127.100 C 127.155 116.200 127.200 116.155 127.200 116.100 V 113.200 C 127.200 113.100 127.100 113.200 127.200 113.200 H 133.000 C 133.100 113.200 133.000 113.100 133.000 113.200 V 116.100 C 133.000 116.155 133.045 116.200 133.100 116.200 H 139.100 C 139.155 116.200 139.200 116.155 139.200 116.100 V 113.200 C 139.200 113.100 139.100 113.200 139.200 113.200 H 145.000 C 145.100 113.200 145.000 113.100 145.000 113.200 V 116.100 C 145.000 116.155 145.045 116.200 145.100 116.200 H 151.100 C 151.155 116.200 151.200 116.155 151.200 116.100 V 113.200 C 151.200 113.100 151.100 113.200 151.200 113.200 H 157.000 C 157.100 113.200 157.000 113.100 157.000 113.200 V 116.100 C 157.000 116.155 157.045 116.200 157.100 116.200 H 163.100 H 166.100 C 166.155 116.200 166.200 116.155 166.200 116.100 V 113.100 V 108.100 C 166.200 108.045 166.155 108.000 166.100 108.000 H 163.200 C 163.100 108.000 163.200 108.100 163.200 108.000 V 102.200 C 163.200 102.100 163.100 102.200 163.200 102.200 H 166.100 C 166.155 102.200 166.200 102.155 166.200 102.100 V 96.100 C 166.200 96.045 166.155 96.000 166.100 96.000 H 163.200 C 163.100 96.000 163.200 96.100 163.200 96.000 V 90.200 C 163.200 90.100 163.100 90.200 163.200 90.200 H 166.100 C 166.155 90.200 166.200 90.155 166.200 90.100 V 84.100 C 166.200 84.045 166.155 84.000 166.100 84.000 H 163.200 C 163.100 84.000 163.200 84.100 163.200 84.000 V 78.200 C 163.200 78.100 163.100 78.200 163.200 78.200 H 166.100 C 166.155 78.200 166.200 78.155 166.200 78.100 V 72.100 C 166.200 72.045 166.155 72.000 166.100 72.000 H 163.200 C 163.100 72.000 163.200 72.100 163.200 72.000 V 66.200 C 163.200 66.100 163.100 66.200 163.200 66.200 H 166.100 C 166.155 66.200 166.200 66.155 166.200 66.100 V 60.100 C 166.200 60.045 166.155 60.000 166.100 60.000 H 163.200 C 163.100 60.000 163.200 60.100 163.200 60.000 V 54.200 C 163.200 54.100 163.100 54.200 163.200 54.200 H 166.100 C 166.155 54.200 166.200 54.155 166.200 54.100 V 48.100 C 166.200 48.045 166.155 48.000 166.100 48.000 H 163.200 C 163.100 48.000 163.200 48.100 163.200 48.000 V 42.200 C 163.200 42.100 163.100 42.200 163.200 42.200 H 166.100 C 166.155 42.200 166.200 42.155 166.200 42.100 V 36.100 C 166.200 36.045 166.155 36.000 166.100 36.000 H 163.200 C 163.100 36.000 163.200 36.100 163.200 36.000 V 30.200 C 163.200 30.100 163.100 30.200 163.200 30.200 H 166.100 C 166.155 30.200 166.200 30.155 166.200 30.100 V 24.100 C 166.200 24.045 166.155 24.000 166.100 24.000 H 163.200 C 163.100 24.000 163.200 24.100 163.200 24.000 V 18.200 C 163.200 18.100 163.100 18.200 163.200 18.200 H 166.100 C 166.155 18.200 166.200 18.155 166.200 18.100 V 13.100 V 10.100 C 166.200 10.045 166.155 10.000 166.100 10.000 H 163.100 H 157.100 C 157.045 10.000 157.000 10.045 157.000 10.100 V 13.000 C 157.000 13.100 157.100 13.000 157.000 13.000 H 151.200 C 151.100 13.000 151.200 13.100 151.200 13.000 V 10.100 C 151.200 10.045 151.155 10.000 151.100 10.000 H 145.100 C 145.045 10.000 145.000 10.045 145.000 10.100 V 13.000 C 145.000 13.100 145.100 13.000 145.000 13.000 H 139.200 C 139.100 13.000 139.200 13.100 139.200 13.000 V 10.100 C 139.200 10.045 139.155 10.000 139.100 10.000 H 133.100 C 133.045 10.000 133.000 10.045 133.000 10.100 V 13.000 C 133.000 13.100 133.100 13.000 133.000 13.000 H 127.200 C 127.100 13.000 127.200 13.100 127.200 13.000 V 10.100 C 127.200 10.045 127.155 10.000 127.100 10.000 H 121.100 C 121.045 10.000 121.000 10.045 121.000 10.100 V 13.000 C 121.000 13.100 121.100 13.000 121.000 13.000 H 115.200 C 115.100 13.000 115.200 13.100 115.200 13.000 V 10.100 C 115.200 10.045 115.155 10.000 115.100 10.000 H 109.100 C 109.045 10.000 109.000 10.045 109.000 10.100 V 13.000 C 109.000 13.100 109.100 13.000 109.000 13.000 H 103.200 C 103.100 13.000 103.200 13.100 103.200 13.000 V 10.100 C 103.200 10.045 103.155 10.000 103.100 10.000 H 97.100 C 97.045 10.000 97.000 10.045 97.000 10.100 V 13.000 C 97.000 13.100 97.100 13.000 97.000 13.000 H 91.200 C 91.100 13.000 91.200 13.100 91.200 13.000 V 10.100 C 91.200 10.045 91.155 10.000 91.100 10.000 H 85.100 C 85.045 10.000 85.000 10.045 85.000 10.100 V 13.000 C 85.000 13.100 85.100 13.000 85.000 13.000 H 79.200 C 79.100 13.000 79.200 13.100 79.200 13.000 V 10.100 C 79.200 10.045 79.155 10.000 79.100 10.000 H 73.100 C 73.045 10.000 73.000 10.045 73.000 10.100 V 13.000 C 73.000 13.100 73.100 13.000 73.000 13.000 H 67.200 C 67.100 13.000 67.200 13.100 67.200 13.000 V 10.100 C 67.200 10.045 67.155 10.000 67.100 10.000 H 61.100 C 61.045 10.000 61.000 10.045 61.000 10.100 V 13.000 C 61.000 13.100 61.100 13.000 61.000 13.000 H 55.200 C 55.100 13.000 55.200 13.100 55.200 13.000 V 10.100 C 55.200 10.045 55.155 10.000 55.100 10.000 H 49.100 C 49.045 10.000 49.000 10.045 49.000 10.100 V 13.000 C 49.000 13.100 49.100 13.000 49.000 13.000 H 43.200 C 43.100 13.000 43.200 13.100 43.200 13.000 V 10.100 C 43.200 10.045 43.155 10.000 43.100 10.000 H 37.100 C 37.045 10.000 37.000 10.045 37.000 10.100 V 13.000 C 37.000 13.100 37.100 13.000 37.000 13.000 H 31.200 C 31.100 13.000 31.200 13.100 31.200 13.000 V 10.100 C 31.200 10.045 31.155 10.000 31.100 10.000 H 25.100 C 25.045 10.000 25.000 10.045 25.000 10.100 V 13.000 C 25.000 13.100 25.100 13.000 25.000 13.000 H 19.200 C 19.100 13.000 19.200 13.100 19.200 13.000 V 10.100 C 19.200 10.045 19.155 10.000 19.100 10.000 H 13.100 H 10.100 C 10.045 10.000 10.000 10.045 10.000 10.100 V 13.100 V 18.100 C 10.000 18.155 10.045 18.200 10.100 18.200 H 13.000 C 13.100 18.200 13.000 18.100 13.000 18.200 V 24.000 C 13.000 24.100 13.100 24.000 13.000 24.000 H 10.100 C 10.045 24.000 10.000 24.045 10.000 24.100 V 30.100 C 10.000 30.155 10.045 30.200 10.100 30.200 H 13.000 C 13.100 30.200 13.000 30.100 13.000 30.200 V 36.000 C 13.000 36.100 13.100 36.000 13.000 36.000 H 10.100 C 10.045 36.000 10.000 36.045 10.000 36.100 V 42.100 C 10.000 42.155 10.045 42.200 10.100 42.200 H 13.000 C 13.100 42.200 13.000 42.100 13.000 42.200 V 48.000 C 13.000 48.100 13.100 48.000 13.000 48.000 H 10.100 C 10.045 48.000 10.000 48.045 10.000 48.100 V 54.100 C 10.000 54.155 10.045 54.200 10.100 54.200 H 13.000 C 13.100 54.200 13.000 54.100 13.000 54.200 V 60.000 C 13.000 60.100 13.100 60.000 13.000 60.000 H 10.100 C 10.045 60.000 10.000 60.045 10.000 60.100 V 66.100 C 10.000 66.155 10.045 66.200 10.100 66.200 H 13.000 C 13.100 66.200 13.000 66.100 13.000 66.200 V 72.000 C 13.000 72.100 13.100 72.000 13.000 72.000 H 10.100 C 10.045 72.000 10.000 72.045 10.000 72.100 V 78.100 C 10.000 78.155 10.045 78.200 10.100 78.200 H 13.000 C 13.100 78.200 13.000 78.100 13.000 78.200 V 84.000 C 13.000 84.100 13.100 84.000 13.000 84.000 H 10.100 C 10.045 84.000 10.000 84.045 10.000 84.100 V 90.100 C 10.000 90.155 10.045 90.200 10.100 90.200 H 13.000 C 13.100 90.200 13.000 90.100 13.000 90.200 V 96.000 C 13.000 96.100 13.100 96.000 13.000 96.000 H 10.100 C 10.045 96.000 10.000 96.045 10.000 96.100 V 102.100 C 10.000 102.155 10.045 102.200 10.100 102.200 H 13.000 C 13.100 102.200 13.000 102.100 13.000 102.200 V 108.000 C 13.000 108.100 13.100 108.000 13.000 108.000 H 10.100 C 10.045 108.000 10.000 108.045 10.000 108.100 V 113.100 V 116.100 C 10.000 116.155 10.045 116.200 10.100 116.200 H 13.100 Z" stroke="rgb(0,0,0)" stroke-width="0.20" />
</g>
<g id="p-8" style="fill:none;stroke-linecap:round;stroke-linejoin:round;">
  <path d="M 172.200 108.500 V 111.400 C 172.200 111.500 172.300 111.400 172.200 111.400 H 169.400 C 169.300 111.400 169.400 111.500 169.400 111.400 V 105.600 C 169.400 105.500 169.300 105.600 169.400 105.600 H 172.200 C 172.300 105.600 172.200 105.500 172.200 105.600 V 108.500 Z" stroke="rgb(0,0,255)" stroke-width="0.20" />
  <path d="M 172.200 96.500 V 99.400 C 172.200 99.500 172.300 99.400 172.200 99.400 H 169.400 C 169.300 99.400 169.400 99.500 169.400 99.400 V 93.600 C 169.400 93.500 169.300 93.600 169.400 93.600 H 172.200 C 172.300 93.600 172.200 93.500 172.200 93.600 V 96.500 Z" stroke="rgb(0,0,255)" stroke-width="0.20" />
  <path d="M 172.200 84.500 V 87.400 C 172.200 87.500 172.300 87.400 172.200 87.400 H 169.400 C 169.300 87.400 169.400 87.500 169.400 87.400 V 81.600 C 169.400 81.500 169.300 81.600 169.400 81.600 H 172.200 C 172.300 81.600 172.200 81.500 172.200 81.600 V 84.500 Z" stroke="rgb(0,0,255)" stroke-width="0.20" />
  <path d="M 172.200 72.500 V 75.400 C 172.200 75.500 172.300 75.400 172.200 75.400 H 169.400 C 169.300 75.400 169.400 75.500 169.400 75.400 V 69.600 C 169.400 69.500 169.300 69.600 169.400 69.600 H 172.200 C 172.300 69.600 172.200 69.500 172.200 69.600 V 72.500 Z" stroke="rgb(0,0,255)" stroke-width="0.20" />
  <path d="M 172.200 60.500 V 63.400 C 172.200 63.500 172.300 63.400 172.200 63.400 H 169.400 C 169.300 63.400 169.400 63.500 169.400 63.400 V 57.600 C 169.400 57.500 169.300 57.600 169.400 57.600 H 172.200 C 172.300 57.600 172.200 57.500 172.200 57.600 V 60.500 Z" stroke="rgb(0,0,255)" stroke-width="0.20" />
  <path d="M 172.200 48.500 V 51.400 C 172.200 51.500 172.300 51.400 172.200 51.400 H 169.400 C 169.300 51.400 169.400 51.500 169.400 51.400 V 45.600 C 169.400 45.500 169.300 45.600 169.400 45.600 H 172.200 C 172.300 45.600 172.200 45.500 172.200 45.600 V 48.500 Z" stroke="rgb(0,0,255)" stroke-width="0.20" />
  <path d="M 172.200 36.500 V 39.400 C 172.200 39.500 172.300 39.400 172.200 39.400 H 169.400 C 169.300 39.400 169.400 39.500 169.400 39.400 V 33.600 C 169.400 33.500 169.300 33.600 169.400 33.600 H 172.200 C 172.300 33.600 172.200 33.500 172.200 33.600 V 36.500 Z" stroke="rgb(0,0,255)" stroke-width="0.20" />
  <path d="M 172.200 24.500 V 27.400 C 172.200 27.500 172.300 27.400 172.200 27.400 H 169.400 C 169.300 27.400 169.400 27.500 169.400 27.400 V 21.600 C 169.400 21.500 169.300 21.600 169.400 21.600 H 172.200 C 172.300 21.600 172.200 21.500 172.200 21.600 V 24.500 Z" stroke="rgb(0,0,255)" stroke-width="0.20" />
  <path d="M 167.800 116.200 H 173.800 H 349.632 C 349.687 116.200 349.732 116.155 349.732 116.100 V 16.700 C 349.732 16.645 349.687 16.600 349.632 16.600 H 167.800 C 167.745 16.600 167.700 16.645 167.700 16.700 V 116.100 C 167.700 116.155 167.745 116.200 167.800 116.200 Z" stroke="rgb(0,0,0)" stroke-width="0.20" />
  <path d="M 176.216 116.200 V 100.600 M 176.216 94.600 V 69.400 M 176.216 63.400 V 38.200 M 176.216 32.200 V 16.600 M 178.466 22.600 V 47.800 M 178.466 53.800 V 79.000 M 178.466 85.000 V 110.200 M 180.716 116.200 V 100.600 M 180.716 94.600 V 69.400 M 180.716 63.400 V 38.200 M 180.716 32.200 V 16.600 M 182.966 22.600 V 47.800 M 182.966 53.800 V 79.000 M 182.966 85.000 V 110.200 M 185.216 116.200 V 100.600 M 185.216 94.600 V 69.400 M 185.216 63.400 V 38.200 M 185.216 32.200 V 16.600 M 187.466 22.600 V 47.800 M 187.466 53.800 V 79.000 M 187.466 85.000 V 110.200 M 189.716 116.200 V 100.600 M 189.716 94.600 V 69.400 M 189.716 63.400 V 38.200 M 189.716 32.200 V 16.600 M 191.966 22.600 V 47.800 M 191.966 53.800 V 79.000 M 191.966 85.000 V 110.200 M 194.216 116.200 V 100.600 M 194.216 94.600 V 69.400 M 194.216 63.400 V 38.200 M 194.216 32.200 V 16.600 M 196.466 22.600 V 47.800 M 196.466 53.800 V 79.000 M 196.466 85.000 V 110.200 M 198.716 116.200 V 100.600 M 198.716 94.600 V 69.400 M 198.716 63.400 V 38.200 M 198.716 32.200 V 16.600 M 200.966 22.600 V 47.800 M 200.966 53.800 V 79.000 M 200.966 85.000 V 110.200 M 203.216 116.200 V 100.600 M 203.216 94.600 V 69.400 M 203.216 63.400 V 38.200 M 203.216 32.200 V 16.600 M 205.466 22.600 V 47.800 M 205.466 53.800 V 79.000 M 205.466 85.000 V 110.200 M 207.716 116.200 V 100.600 M 207.716 94.600 V 69.400 M 207.716 63.400 V 38.200 M 207.716 32.200 V 16.600 M 209.966 22.600 V 47.800 M 209.966 53.800 V 79.000 M 209.966 85.000 V 110.200 M 212.216 116.200 V 100.600 M 212.216 94.600 V 69.400 M 212.216 63.400 V 38.200 M 212.216 32.200 V 16.600 M 214.466 22.600 V 47.800 M 214.466 53.800 V 79.000 M 214.466 85.000 V 110.200 M 216.716 116.200 V 100.600 M 216.716 94.600 V 69.400 M 216.716 63.400 V 38.200 M 216.716 32.200 V 16.600 M 218.966 22.600 V 47.800 M 218.966 53.800 V 79.000 M 218.966 85.000 V 110.200 M 221.216 116.200 V 100.600 M 221.216 94.600 V 69.400 M 221.216 63.400 V 38.200 M 221.216 32.200 V 16.600 M 223.466 22.600 V 47.800 M 223.466 53.800 V 79.000 M 223.466 85.000 V 110.200 M 225.716 116.200 V 100.600 M 225.716 94.600 V 69.400 M 225.716 63.400 V 38.200 M 225.716 32.200 V 16.600 M 227.966 22.600 V 47.800 M 227.966 53.800 V 79.000 M 227.966 85.000 V 110.200 M 230.216 116.200 V 100.600 M 230.216 94.600 V 69.400 M 230.216 63.400 V 38.200 M 230.216 32.200 V 16.600 M 232.466 22.600 V 47.800 M 232.466 53.800 V 79.000 M 232.466 85.000 V 110.200 M 234.716 116.200 V 100.600 M 234.716 94.600 V 69.400 M 234.716 63.400 V 38.200 M 234.716 32.200 V 16.600 M 236.966 22.600 V 47.800 M 236.966 53.800 V 79.000 M 236.966 85.000 V 110.200 M 239.216 116.200 V 100.600 M 239.216 94.600 V 69.400 M 239.216 63.400 V 38.200 M 239.216 32.200 V 16.600 M 241.466 22.600 V 47.800 M 241.466 53.800 V 79.000 M 241.466 85.000 V 110.200 M 243.716 116.200 V 100.600 M 243.716 94.600 V 69.400 M 243.716 63.400 V 38.200 M 243.716 32.200 V 16.600 M 245.966 22.600 V 47.800 M 245.966 53.800 V 79.000 M 245.966 85.000 V 110.200 M 248.216 116.200 V 100.600 M 248.216 94.600 V 69.400 M 248.216 63.400 V 38.200 M 248.216 32.200 V 16.600 M 250.466 22.600 V 47.800 M 250.466 53.800 V 79.000 M 250.466 85.000 V 110.200 M 252.716 116.200 V 100.600 M 252.716 94.600 V 69.400 M 252.716 63.400 V 38.200 M 252.716 32.200 V 16.600 M 254.966 22.600 V 47.800 M 254.966 53.800 V 79.000 M 254.966 85.000 V 110.200 M 257.216 116.200 V 100.600 M 257.216 94.600 V 69.400 M 257.216 63.400 V 38.200 M 257.216 32.200 V 16.600 M 259.466 22.600 V 47.800 M 259.466 53.800 V 79.000 M 259.466 85.000 V 110.200 M 261.716 116.200 V 100.600 M 261.716 94.600 V 69.400 M 261.716 63.400 V 38.200 M 261.716 32.200 V 16.600 M 263.966 22.600 V 47.800 M 263.966 53.800 V 79.000 M 263.966 85.000 V 110.200 M 266.216 116.200 V 100.600 M 266.216 94.600 V 69.400 M 266.216 63.400 V 38.200 M 266.216 32.200 V 16.600 M 268.466 22.600 V 47.800 M 268.466 53.800 V 79.000 M 268.466 85.000 V 110.200 M 270.716 116.200 V 100.600 M 270.716 94.600 V 69.400 M 270.716 63.400 V 38.200 M 270.716 32.200 V 16.600 M 272.966 22.600 V 47.800 M 272.966 53.800 V 79.000 M 272.966 85.000 V 110.200 M 275.216 116.200 V 100.600 M 275.216 94.600 V 69.400 M 275.216 63.400 V 38.200 M 275.216 32.200 V 16.600 M 277.466 22.600 V 47.800 M 277.466 53.800 V 79.000 M 277.466 85.000 V 110.200 M 279.716 116.200 V 100.600 M 279.716 94.600 V 69.400 M 279.716 63.400 V 38.200 M 279.716 32.200 V 16.600 M 281.966 22.600 V 47.800 M 281.966 53.800 V 79.000 M 281.966 85.000 V 110.200 M 284.216 116.200 V 100.600 M 284.216 94.600 V 69.400 M 284.216 63.400 V 38.200 M 284.216 32.200 V 16.600 M 286.466 22.600 V 47.800 M 286.466 53.800 V 79.000 M 286.466 85.000 V 110.200 M 288.716 116.200 V 100.600 M 288.716 94.600 V 69.400 M 288.716 63.400 V 38.200 M 288.716 32.200 V 16.600 M 290.966 22.600 V 47.800 M 290.966 53.800 V 79.000 M 290.966 85.000 V 110.200 M 293.216 116.200 V 100.600 M 293.216 94.600 V 69.400 M 293.216 63.400 V 38.200 M 293.216 32.200 V 16.600 M 295.466 22.600 V 47.800 M 295.466 53.800 V 79.000 M 295.466 85.000 V 110.200 M 297.716 116.200 V 100.600 M 297.716 94.600 V 69.400 M 297.716 63.400 V 38.200 M 297.716 32.200 V 16.600 M 299.966 22.600 V 47.800 M 299.966 53.800 V 79.000 M 299.966 85.000 V 110.200 M 302.216 116.200 V 100.600 M 302.216 94.600 V 69.400 M 302.216 63.400 V 38.200 M 302.216 32.200 V 16.600 M 304.466 22.600 V 47.800 M 304.466 53.800 V 79.000 M 304.466 85.000 V 110.200 M 306.716 116.200 V 100.600 M 306.716 94.600 V 69.400 M 306.716 63.400 V 38.200 M 306.716 32.200 V 16.600 M 308.966 22.600 V 47.800 M 308.966 53.800 V 79.000 M 308.966 85.000 V 110.200 M 311.216 116.200 V 100.600 M 311.216 94.600 V 69.400 M 311.216 63.400 V 38.200 M 311.216 32.200 V 16.600 M 313.466 22.600 V 47.800 M 313.466 53.800 V 79.000 M 313.466 85.000 V 110.200 M 315.716 116.200 V 100.600 M 315.716 94.600 V 69.400 M 315.716 63.400 V 38.200 M 315.716 32.200 V 16.600 M 317.966 22.600 V 47.800 M 317.966 53.800 V 79.000 M 317.966 85.000 V 110.200 M 320.216 116.200 V 100.600 M 320.216 94.600 V 69.400 M 320.216 63.400 V 38.200 M 320.216 32.200 V 16.600 M 322.466 22.600 V 47.800 M 322.466 53.800 V 79.000 M 322.466 85.000 V 110.200 M 324.716 116.200 V 100.600 M 324.716 94.600 V 69.400 M 324.716 63.400 V 38.200 M 324.716 32.200 V 16.600 M 326.966 22.600 V 47.800 M 326.966 53.800 V 79.000 M 326.966 85.000 V 110.200 M 329.216 116.200 V 100.600 M 329.216 94.600 V 69.400 M 329.216 63.400 V 38.200 M 329.216 32.200 V 16.600 M 331.466 22.600 V 47.800 M 331.466 53.800 V 79.000 M 331.466 85.000 V 110.200 M 333.716 116.200 V 100.600 M 333.716 94.600 V 69.400 M 333.716 63.400 V 38.200 M 333.716 32.200 V 16.600 M 335.966 22.600 V 47.800 M 335.966 53.800 V 79.000 M 335.966 85.000 V 110.200 M 338.216 116.200 V 100.600 M 338.216 94.600 V 69.400 M 338.216 63.400 V 38.200 M 338.216 32.200 V 16.600 M 340.466 22.600 V 47.800 M 340.466 53.800 V 79.000 M 340.466 85.000 V 110.200 M 342.716 116.200 V 100.600 M 342.716 94.600 V 69.400 M 342.716 63.400 V 38.200 M 342.716 32.200 V 16.600 M 344.966 22.600 V 47.800 M 344.966 53.800 V 79.000 M 344.966 85.000 V 110.200 M 347.216 116.200 V 100.600 M 347.216 94.600 V 69.400 M 347.216 63.400 V 38.200 M 347.216 32.200 V 16.600" stroke="rgb(0,0,0)" stroke-width="0.20" />
</g>
<g id="p-9" style="fill:none;stroke-linecap:round;stroke-linejoin:round;">
  <path d="M 354.332 116.200 H 360.332 C 360.387 116.200 360.432 116.155 360.432 116.100 V 22.700 C 360.432 22.645 360.387 22.600 360.332 22.600 H 354.332 C 354.277 22.600 354.232 22.645 354.232 22.700 V 24.300 C 354.232 24.400 354.332 24.300 354.232 24.300 H 351.332 C 351.277 24.300 351.232 24.345 351.232 24.400 V 30.400 C 351.232 30.455 351.277 30.500 351.332 30.500 H 354.232 C 354.332 30.500 354.232 30.400 354.232 30.500 V 36.300 C 354.232 36.400 354.332 36.300 354.232 36.300 H 351.332 C 351.277 36.300 351.232 36.345 351.232 36.400 V 42.400 C 351.232 42.455 351.277 42.500 351.332 42.500 H 354.232 C 354.332 42.500 354.232 42.400 354.232 42.500 V 48.300 C 354.232 48.400 354.332 48.300 354.232 48.300 H 351.332 C 351.277 48.300 351.232 48.345 351.232 48.400 V 54.400 C 351.232 54.455 351.277 54.500 351.332 54.500 H 354.232 C 354.332 54.500 354.232 54.400 354.232 54.500 V 60.300 C 354.232 60.400 354.332 60.300 354.232 60.300 H 351.332 C 351.277 60.300 351.232 60.345 351.232 60.400 V 66.400 C 351.232 66.455 351.277 66.500 351.332 66.500 H 354.232 C 354.332 66.500 354.232 66.400 354.232 66.500 V 72.300 C 354.232 72.400 354.332 72.300 354.232 72.300 H 351.332 C 351.277 72.300 351.232 72.345 351.232 72.400 V 78.400 C 351.232 78.455 351.277 78.500 351.332 78.500 H 354.232 C 354.332 78.500 354.232 78.400 354.232 78.500 V 84.300 C 354.232 84.400 354.332 84.300 354.232 84.300 H 351.332 C 351.277 84.300 351.232 84.345 351.232 84.400 V 90.400 C 351.232 90.455 351.277 90.500 351.332 90.500 H 354.232 C 354.332 90.500 354.232 90.400 354.232 90.500 V 96.300 C 354.232 96.400 354.332 96.300 354.232 96.300 H 351.332 C 351.277 96.300 351.232 96.345 351.232 96.400 V 102.400 C 351.232 102.455 351.277 102.500 351.332 102.500 H 354.232 C 354.332 102.500 354.232 102.400 354.232 102.500 V 108.300 C 354.232 108.400 354.332 108.300 354.232 108.300 H 351.332 C 351.277 108.300 351.232 108.345 351.232 108.400 V 114.400 C 351.232 114.455 351.277 114.500 351.332 114.500 H 354.232 C 354.332 114.500 354.232 114.400 354.232 114.500 V 116.100 C 354.232 116.155 354.277 116.200 354.332 116.200 Z" stroke="rgb(0,0,0)" stroke-width="0.20" />
</g>
<g id="p-10" style="fill:none;stroke-linecap:round;stroke-linejoin:round;">
  <path d="M 362.032 113.200 H 365.932 C 366.032 113.200 365.932 113.100 365.932 113.200 V 116.100 C 365.932 116.155 365.977 116.200 366.032 116.200 H 372.032 C 372.087 116.200 372.132 116.155 372.132 116.100 V 113.200 C 372.132 113.100 372.032 113.200 372.132 113.200 H 377.932 C 378.032 113.200 377.932 113.100 377.932 113.200 V 116.100 C 377.932 116.155 377.977 116.200 378.032 116.200 H 384.032 C 384.087 116.200 384.132 116.155 384.132 116.100 V 113.200 C 384.132 113.100 384.032 113.200 384.132 113.200 H 389.932 C 390.032 113.200 389.932 113.100 389.932 113.200 V 116.100 C 389.932 116.155 389.977 116.200 390.032 116.200 H 396.032 C 396.087 116.200 396.132 116.155 396.132 116.100 V 113.200 C 396.132 113.100 396.032 113.200 396.132 113.200 H 401.932 C 402.032 113.200 401.932 113.100 401.932 113.200 V 116.100 C 401.932 116.155 401.977 116.200 402.032 116.200 H 408.032 C 408.087 116.200 408.132 116.155 408.132 116.100 V 113.200 C 408.132 113.100 408.032 113.200 408.132 113.200 H 413.932 C 414.032 113.200 413.932 113.100 413.932 113.200 V 116.100 C 413.932 116.155 413.977 116.200 414.032 116.200 H 420.032 C 420.087 116.200 420.132 116.155 420.132 116.100 V 113.200 C 420.132 113.100 420.032 113.200 420.132 113.200 H 425.932 C 426.032 113.200 425.932 113.100 425.932 113.200 V 116.100 C 425.932 116.155 425.977 116.200 426.032 116.200 H 432.032 C 432.087 116.200 432.132 116.155 432.132 116.100 V 113.200 C 432.132 113.100 432.032 113.200 432.132 113.200 H 437.932 C 438.032 113.200 437.932 113.100 437.932 113.200 V 116.100 C 437.932 116.155 437.977 116.200 438.032 116.200 H 444.032 C 444.087 116.200 444.132 116.155 444.132 116.100 V 113.200 C 444.132 113.100 444.032 113.200 444.132 113.200 H 449.932 C 450.032 113.200 449.932 113.100 449.932 113.200 V 116.100 C 449.932 116.155 449.977 116.200 450.032 116.200 H 456.032 C 456.087 116.200 456.132 116.155 456.132 116.100 V 113.200 C 456.132 113.100 456.032 113.200 456.132 113.200 H 461.932 C 462.032 113.200 461.932 113.100 461.932 113.200 V 116.100 C 461.932 116.155 461.977 116.200 462.032 116.200 H 468.032 C 468.087 116.200 468.132 116.155 468.132 116.100 V 113.200 C 468.132 113.100 468.032 113.200 468.132 113.200 H 472.032 H 471.650 C 471.706 113.200 471.750 113.155 471.750 113.100 V 102.200 C 471.750 102.100 471.650 102.200 471.750 102.200 H 472.427 C 472.482 102.200 472.527 102.155 472.527 102.100 V 96.100 C 472.527 96.045 472.482 96.000 472.427 96.000 H 471.750 C 471.650 96.000 471.750 96.100 471.750 96.000 V 90.200 C 471.750 90.100 471.650 90.200 471.750 90.200 H 472.427 C 472.482 90.200 472.527 90.155 472.527 90.100 V 84.100 C 472.527 84.045 472.482 84.000 472.427 84.000 H 471.750 C 471.650 84.000 471.750 84.100 471.750 84.000 V 78.200 C 471.750 78.100 471.650 78.200 471.750 78.200 H 472.427 C 472.482 78.200 472.527 78.155 472.527 78.100 V 72.100 C 472.527 72.045 472.482 72.000 472.427 72.000 H 471.750 C 471.650 72.000 471.750 72.100 471.750 72.000 V 66.200 C 471.750 66.100 471.650 66.200 471.750 66.200 H 472.427 C 472.482 66.200 472.527 66.155 472.527 66.100 V 60.100 C 472.527 60.045 472.482 60.000 472.427 60.000 H 471.750 C 471.650 60.000 471.750 60.100 471.750 60.000 V 54.200 C 471.750 54.100 471.650 54.200 471.750 54.200 H 472.427 C 472.482 54.200 472.527 54.155 472.527 54.100 V 48.100 C 472.527 48.045 472.482 48.000 472.427 48.000 H 471.750 C 471.650 48.000 471.750 48.100 471.750 48.000 V 42.200 C 471.750 42.100 471.650 42.200 471.750 42.200 H 472.427 C 472.482 42.200 472.527 42.155 472.527 42.100 V 36.100 C 472.527 36.045 472.482 36.000 472.427 36.000 H 471.750 C 471.650 36.000 471.750 36.100 471.750 36.000 V 30.200 C 471.750 30.100 471.650 30.200 471.750 30.200 H 472.427 C 472.482 30.200 472.527 30.155 472.527 30.100 V 24.100 C 472.527 24.045 472.482 24.000 472.427 24.000 H 471.750 C 471.650 24.000 471.750 24.100 471.750 24.000 V 13.100 C 471.750 13.045 471.706 13.000 471.650 13.000 H 472.032 H 468.132 C 468.032 13.000 468.132 13.100 468.132 13.000 V 10.100 C 468.132 10.045 468.087 10.000 468.032 10.000 H 462.032 C 461.977 10.000 461.932 10.045 461.932 10.100 V 13.000 C 461.932 13.100 462.032 13.000 461.932 13.000 H 456.132 C 456.032 13.000 456.132 13.100 456.132 13.000 V 10.100 C 456.132 10.045 456.087 10.000 456.032 10.000 H 450.032 C 449.977 10.000 449.932 10.045 449.932 10.100 V 13.000 C 449.932 13.100 450.032 13.000 449.932 13.000 H 444.132 C 444.032 13.000 444.132 13.100 444.132 13.000 V 10.100 C 444.132 10.045 444.087 10.000 444.032 10.000 H 438.032 C 437.977 10.000 437.932 10.045 437.932 10.100 V 13.000 C 437.932 13.100 438.032 13.000 437.932 13.000 H 432.132 C 432.032 13.000 432.132 13.100 432.132 13.000 V 10.100 C 432.132 10.045 432.087 10.000 432.032 10.000 H 426.032 C 425.977 10.000 425.932 10.045 425.932 10.100 V 13.000 C 425.932 13.100 426.032 13.000 425.932 13.000 H 420.132 C 420.032 13.000 420.132 13.100 420.132 13.000 V 10.100 C 420.132 10.045 420.087 10.000 420.032 10.000 H 414.032 C 413.977 10.000 413.932 10.045 413.932 10.100 V 13.000 C 413.932 13.100 414.032 13.000 413.932 13.000 H 408.132 C 408.032 13.000 408.132 13.100 408.132 13.000 V 10.100 C 408.132 10.045 408.087 10.000 408.032 10.000 H 402.032 C 401.977 10.000 401.932 10.045 401.932 10.100 V 13.000 C 401.932 13.100 402.032 13.000 401.932 13.000 H 396.132 C 396.032 13.000 396.132 13.100 396.132 13.000 V 10.100 C 396.132 10.045 396.087 10.000 396.032 10.000 H 390.032 C 389.977 10.000 389.932 10.045 389.932 10.100 V 13.000 C 389.932 13.100 390.032 13.000 389.932 13.000 H 384.132 C 384.032 13.000 384.132 13.100 384.132 13.000 V 10.100 C 384.132 10.045 384.087 10.000 384.032 10.000 H 378.032 C 377.977 10.000 377.932 10.045 377.932 10.100 V 13.000 C 377.932 13.100 378.032 13.000 377.932 13.000 H 372.132 C 372.032 13.000 372.132 13.100 372.132 13.000 V 10.100 C 372.132 10.045 372.087 10.000 372.032 10.000 H 366.032 C 365.977 10.000 365.932 10.045 365.932 10.100 V 13.000 C 365.932 13.100 366.032 13.000 365.932 13.000 H 362.032 C 361.977 13.000 361.932 13.045 361.932 13.100 V 113.100 C 361.932 113.155 361.977 113.200 362.032 113.200 Z" stroke="rgb(0,0,0)" stroke-width="0.20" />
</g>
<g id="p-11" style="fill:none;stroke-linecap:round;stroke-linejoin:round;">
  <path d="M 474.522 113.200 H 479.833 C 479.933 113.200 479.833 113.100 479.833 113.200 V 116.100 C 479.833 116.155 479.878 116.200 479.933 116.200 H 485.933 C 485.989 116.200 486.033 116.155 486.033 116.100 V 113.200 C 486.033 113.100 485.933 113.200 486.033 113.200 H 491.345 H 490.649 C 490.704 113.200 490.749 113.155 490.749 113.100 V 102.200 C 490.749 102.100 490.649 102.200 490.749 102.200 H 492.149 C 492.204 102.200 492.249 102.155 492.249 102.100 V 96.100 C 492.249 96.045 492.204 96.000 492.149 96.000 H 490.749 C 490.649 96.000 490.749 96.100 490.749 96.000 V 90.200 C 490.749 90.100 490.649 90.200 490.749 90.200 H 492.149 C 492.204 90.200 492.249 90.155 492.249 90.100 V 84.100 C 492.249 84.045 492.204 84.000 492.149 84.000 H 490.749 C 490.649 84.000 490.749 84.100 490.749 84.000 V 78.200 C 490.749 78.100 490.649 78.200 490.749 78.200 H 492.149 C 492.204 78.200 492.249 78.155 492.249 78.100 V 72.100 C 492.249 72.045 492.204 72.000 492.149 72.000 H 490.749 C 490.649 72.000 490.749 72.100 490.749 72.000 V 66.200 C 490.749 66.100 490.649 66.200 490.749 66.200 H 492.149 C 492.204 66.200 492.249 66.155 492.249 66.100 V 60.100 C 492.249 60.045 492.204 60.000 492.149 60.000 H 490.749 C 490.649 60.000 490.749 60.100 490.749 60.000 V 54.200 C 490.749 54.100 490.649 54.200 490.749 54.200 H 492.149 C 492.204 54.200 492.249 54.155 492.249 54.100 V 48.100 C 492.249 48.045 492.204 48.000 492.149 48.000 H 490.749 C 490.649 48.000 490.749 48.100 490.749 48.000 V 42.200 C 490.749 42.100 490.649 42.200 490.749 42.200 H 492.149 C 492.204 42.200 492.249 42.155 492.249 42.100 V 36.100 C 492.249 36.045 492.204 36.000 492.149 36.000 H 490.749 C 490.649 36.000 490.749 36.100 490.749 36.000 V 30.200 C 490.749 30.100 490.649 30.200 490.749 30.200 H 492.149 C 492.204 30.200 492.249 30.155 492.249 30.100 V 24.100 C 492.249 24.045 492.204 24.000 492.149 24.000 H 490.749 C 490.649 24.000 490.749 24.100 490.749 24.000 V 13.100 C 490.749 13.045 490.704 13.000 490.649 13.000 H 491.345 H 486.033 C 485.933 13.000 486.033 13.100 486.033 13.000 V 10.100 C 486.033 10.045 485.989 10.000 485.933 10.000 H 479.933 C 479.878 10.000 479.833 10.045 479.833 10.100 V 13.000 C 479.833 13.100 479.933 13.000 479.833 13.000 H 474.522 H 474.127 C 474.072 13.000 474.027 13.045 474.027 13.100 V 24.100 C 474.027 24.155 474.072 24.200 474.127 24.200 H 474.803 C 474.903 24.200 474.803 24.100 474.803 24.200 V 30.000 C 474.803 30.100 474.903 30.000 474.803 30.000 H 474.127 C 474.072 30.000 474.027 30.045 474.027 30.100 V 36.100 C 474.027 36.155 474.072 36.200 474.127 36.200 H 474.803 C 474.903 36.200 474.803 36.100 474.803 36.200 V 42.000 C 474.803 42.100 474.903 42.000 474.803 42.000 H 474.127 C 474.072 42.000 474.027 42.045 474.027 42.100 V 48.100 C 474.027 48.155 474.072 48.200 474.127 48.200 H 474.803 C 474.903 48.200 474.803 48.100 474.803 48.200 V 54.000 C 474.803 54.100 474.903 54.000 474.803 54.000 H 474.127 C 474.072 54.000 474.027 54.045 474.027 54.100 V 60.100 C 474.027 60.155 474.072 60.200 474.127 60.200 H 474.803 C 474.903 60.200 474.803 60.100 474.803 60.200 V 66.000 C 474.803 66.100 474.903 66.000 474.803 66.000 H 474.127 C 474.072 66.000 474.027 66.045 474.027 66.100 V 72.100 C 474.027 72.155 474.072 72.200 474.127 72.200 H 474.803 C 474.903 72.200 474.803 72.100 474.803 72.200 V 78.000 C 474.803 78.100 474.903 78.000 474.803 78.000 H 474.127 C 474.072 78.000 474.027 78.045 474.027 78.100 V 84.100 C 474.027 84.155 474.072 84.200 474.127 84.200 H 474.803 C 474.903 84.200 474.803 84.100 474.803 84.200 V 90.000 C 474.803 90.100 474.903 90.000 474.803 90.000 H 474.127 C 474.072 90.000 474.027 90.045 474.027 90.100 V 96.100 C 474.027 96.155 474.072 96.200 474.127 96.200 H 474.803 C 474.903 96.200 474.803 96.100 474.803 96.200 V 102.000 C 474.803 102.100 474.903 102.000 474.803 102.000 H 474.127 C 474.072 102.000 474.027 102.045 474.027 102.100 V 113.100 C 474.027 113.155 474.072 113.200 474.127 113.200 H 474.522 Z" stroke="rgb(0,0,0)" stroke-width="0.20" />
</g>
<g id="p-12" style="fill:none;stroke-linecap:round;stroke-linejoin:round;">
  <path d="M 494.653 113.200 H 499.964 C 500.064 113.200 499.964 113.100 499.964 113.200 V 116.100 C 499.964 116.155 500.009 116.200 500.064 116.200 H 506.064 C 506.120 116.200 506.164 116.155 506.164 116.100 V 113.200 C 506.164 113.100 506.064 113.200 506.164 113.200 H 511.476 H 510.780 C 510.835 113.200 510.880 113.155 510.880 113.100 V 102.200 C 510.880 102.100 510.780 102.200 510.880 102.200 H 512.280 C 512.335 102.200 512.380 102.155 512.380 102.100 V 96.100 C 512.380 96.045 512.335 96.000 512.280 96.000 H 510.880 C 510.780 96.000 510.880 96.100 510.880 96.000 V 90.200 C 510.880 90.100 510.780 90.200 510.880 90.200 H 512.280 C 512.335 90.200 512.380 90.155 512.380 90.100 V 84.100 C 512.380 84.045 512.335 84.000 512.280 84.000 H 510.880 C 510.780 84.000 510.880 84.100 510.880 84.000 V 78.200 C 510.880 78.100 510.780 78.200 510.880 78.200 H 512.280 C 512.335 78.200 512.380 78.155 512.380 78.100 V 72.100 C 512.380 72.045 512.335 72.000 512.280 72.000 H 510.880 C 510.780 72.000 510.880 72.100 510.880 72.000 V 66.200 C 510.880 66.100 510.780 66.200 510.880 66.200 H 512.280 C 512.335 66.200 512.380 66.155 512.380 66.100 V 60.100 C 512.380 60.045 512.335 60.000 512.280 60.000 H 510.880 C 510.780 60.000 510.880 60.100 510.880 60.000 V 54.200 C 510.880 54.100 510.780 54.200 510.880 54.200 H 512.280 C 512.335 54.200 512.380 54.155 512.380 54.100 V 48.100 C 512.380 48.045 512.335 48.000 512.280 48.000 H 510.880 C 510.780 48.000 510.880 48.100 510.880 48.000 V 42.200 C 510.880 42.100 510.780 42.200 510.880 42.200 H 512.280 C 512.335 42.200 512.380 42.155 512.380 42.100 V 36.100 C 512.380 36.045 512.335 36.000 512.280 36.000 H 510.880 C 510.780 36.000 510.880 36.100 510.880 36.000 V 30.200 C 510.880 30.100 510.780 30.200 510.880 30.200 H 512.280 C 512.335 30.200 512.380 30.155 512.380 30.100 V 24.100 C 512.380 24.045 512.335 24.000 512.280 24.000 H 510.880 C 510.780 24.000 510.880 24.100 510.880 24.000 V 13.100 C 510.880 13.045 510.835 13.000 510.780 13.000 H 511.476 H 506.164 C 506.064 13.000 506.164 13.100 506.164 13.000 V 10.100 C 506.164 10.045 506.120 10.000 506.064 10.000 H 500.064 C 500.009 10.000 499.964 10.045 499.964 10.100 V 13.000 C 499.964 13.100 500.064 13.000 499.964 13.000 H 494.653 H 493.849 C 493.794 13.000 493.749 13.045 493.749 13.100 V 24.100 C 493.749 24.155 493.794 24.200 493.849 24.200 H 495.249 C 495.349 24.200 495.249 24.100 495.249 24.200 V 30.000 C 495.249 30.100 495.349 30.000 495.249 30.000 H 493.849 C 493.794 30.000 493.749 30.045 493.749 30.100 V 36.100 C 493.749 36.155 493.794 36.200 493.849 36.200 H 495.249 C 495.349 36.200 495.249 36.100 495.249 36.200 V 42.000 C 495.249 42.100 495.349 42.000 495.249 42.000 H 493.849 C 493.794 42.000 493.749 42.045 493.749 42.100 V 48.100 C 493.749 48.155 493.794 48.200 493.849 48.200 H 495.249 C 495.349 48.200 495.249 48.100 495.249 48.200 V 54.000 C 495.249 54.100 495.349 54.000 495.249 54.000 H 493.849 C 493.794 54.000 493.749 54.045 493.749 54.100 V 60.100 C 493.749 60.155 493.794 60.200 493.849 60.200 H 495.249 C 495.349 60.200 495.249 60.100 495.249 60.200 V 66.000 C 495.249 66.100 495.349 66.000 495.249 66.000 H 493.849 C 493.794 66.000 493.749 66.045 493.749 66.100 V 72.100 C 493.749 72.155 493.794 72.200 493.849 72.200 H 495.249 C 495.349 72.200 495.249 72.100 495.249 72.200 V 78.000 C 495.249 78.100 495.349 78.000 495.249 78.000 H 493.849 C 493.794 78.000 493.749 78.045 493.749 78.100 V 84.100 C 493.749 84.155 493.794 84.200 493.849 84.200 H 495.249 C 495.349 84.200 495.249 84.100 495.249 84.200 V 90.000 C 495.249 90.100 495.349 90.000 495.249 90.000 H 493.849 C 493.794 90.000 493.749 90.045 493.749 90.100 V 96.100 C 493.749 96.155 493.794 96.200 493.849 96.200 H 495.249 C 495.349 96.200 495.249 96.100 495.249 96.200 V 102.000 C 495.249 102.100 495.349 102.000 495.249 102.000 H 493.849 C 493.794 102.000 493.749 102.045 493.749 102.100 V 113.100 C 493.749 113.155 493.794 113.200 493.849 113.200 H 494.653 Z" stroke="rgb(0,0,0)" stroke-width="0.20" />
</g>
<g id="p-13" style="fill:none;stroke-linecap:round;stroke-linejoin:round;">
  <path d="M 514.784 113.200 H 520.095 C 520.195 113.200 520.095 113.100 520.095 113.200 V 116.100 C 520.095 116.155 520.140 116.200 520.195 116.200 H 526.195 C 526.250 116.200 526.295 116.155 526.295 116.100 V 113.200 C 526.295 113.100 526.195 113.200 526.295 113.200 H 531.607 H 531.225 C 531.281 113.200 531.325 113.155 531.325 113.100 V 102.200 C 531.325 102.100 531.225 102.200 531.325 102.200 H 532.002 C 532.057 102.200 532.102 102.155 532.102 102.100 V 96.100 C 532.102 96.045 532.057 96.000 532.002 96.000 H 531.325 C 531.225 96.000 531.325 96.100 531.325 96.000 V 90.200 C 531.325 90.100 531.225 90.200 531.325 90.200 H 532.002 C 532.057 90.200 532.102 90.155 532.102 90.100 V 84.100 C 532.102 84.045 532.057 84.000 532.002 84.000 H 531.325 C 531.225 84.000 531.325 84.100 531.325 84.000 V 78.200 C 531.325 78.100 531.225 78.200 531.325 78.200 H 532.002 C 532.057 78.200 532.102 78.155 532.102 78.100 V 72.100 C 532.102 72.045 532.057 72.000 532.002 72.000 H 531.325 C 531.225 72.000 531.325 72.100 531.325 72.000 V 66.200 C 531.325 66.100 531.225 66.200 531.325 66.200 H 532.002 C 532.057 66.200 532.102 66.155 532.102 66.100 V 60.100 C 532.102 60.045 532.057 60.000 532.002 60.000 H 531.325 C 531.225 60.000 531.325 60.100 531.325 60.000 V 54.200 C 531.325 54.100 531.225 54.200 531.325 54.200 H 532.002 C 532.057 54.200 532.102 54.155 532.102 54.100 V 48.100 C 532.102 48.045 532.057 48.000 532.002 48.000 H 531.325 C 531.225 48.000 531.325 48.100 531.325 48.000 V 42.200 C 531.325 42.100 531.225 42.200 531.325 42.200 H 532.002 C 532.057 42.200 532.102 42.155 532.102 42.100 V 36.100 C 532.102 36.045 532.057 36.000 532.002 36.000 H 531.325 C 531.225 36.000 531.325 36.100 531.325 36.000 V 30.200 C 531.325 30.100 531.225 30.200 531.325 30.200 H 532.002 C 532.057 30.200 532.102 30.155 532.102 30.100 V 24.100 C 532.102 24.045 532.057 24.000 532.002 24.000 H 531.325 C 531.225 24.000 531.325 24.100 531.325 24.000 V 13.100 C 531.325 13.045 531.281 13.000 531.225 13.000 H 531.607 H 526.295 C 526.195 13.000 526.295 13.100 526.295 13.000 V 10.100 C 526.295 10.045 526.250 10.000 526.195 10.000 H 520.195 C 520.140 10.000 520.095 10.045 520.095 10.100 V 13.000 C 520.095 13.100 520.195 13.000 520.095 13.000 H 514.784 H 513.980 C 513.925 13.000 513.880 13.045 513.880 13.100 V 24.100 C 513.880 24.155 513.925 24.200 513.980 24.200 H 515.380 C 515.480 24.200 515.380 24.100 515.380 24.200 V 30.000 C 515.380 30.100 515.480 30.000 515.380 30.000 H 513.980 C 513.925 30.000 513.880 30.045 513.880 30.100 V 36.100 C 513.880 36.155 513.925 36.200 513.980 36.200 H 515.380 C 515.480 36.200 515.380 36.100 515.380 36.200 V 42.000 C 515.380 42.100 515.480 42.000 515.380 42.000 H 513.980 C 513.925 42.000 513.880 42.045 513.880 42.100 V 48.100 C 513.880 48.155 513.925 48.200 513.980 48.200 H 515.380 C 515.480 48.200 515.380 48.100 515.380 48.200 V 54.000 C 515.380 54.100 515.480 54.000 515.380 54.000 H 513.980 C 513.925 54.000 513.880 54.045 513.880 54.100 V 60.100 C 513.880 60.155 513.925 60.200 513.980 60.200 H 515.380 C 515.480 60.200 515.380 60.100 515.380 60.200 V 66.000 C 515.380 66.100 515.480 66.000 515.380 66.000 H 513.980 C 513.925 66.000 513.880 66.045 513.880 66.100 V 72.100 C 513.880 72.155 513.925 72.200 513.980 72.200 H 515.380 C 515.480 72.200 515.380 72.100 515.380 72.200 V 78.000 C 515.380 78.100 515.480 78.000 515.380 78.000 H 513.980 C 513.925 78.000 513.880 78.045 513.880 78.100 V 84.100 C 513.880 84.155 513.925 84.200 513.980 84.200 H 515.380 C 515.480 84.200 515.380 84.100 515.380 84.200 V 90.000 C 515.380 90.100 515.480 90.000 515.380 90.000 H 513.980 C 513.925 90.000 513.880 90.045 513.880 90.100 V 96.100 C 513.880 96.155 513.925 96.200 513.980 96.200 H 515.380 C 515.480 96.200 515.380 96.100 515.380 96.200 V 102.000 C 515.380 102.100 515.480 102.000 515.380 102.000 H 513.980 C 513.925 102.000 513.880 102.045 513.880 102.100 V 113.100 C 513.880 113.155 513.925 113.200 513.980 113.200 H 514.784 Z" stroke="rgb(0,0,0)" stroke-width="0.20" />
</g>
<g id="p-14" style="fill:none;stroke-linecap:round;stroke-linejoin:round;">
  <path d="M 534.097 113.200 H 540.997 C 541.097 113.200 540.997 113.100 540.997 113.200 V 116.100 C 540.997 116.155 541.042 116.200 541.097 116.200 H 547.097 C 547.152 116.200 547.197 116.155 547.197 116.100 V 113.200 C 547.197 113.100 547.097 113.200 547.197 113.200 H 554.097 C 554.152 113.200 554.197 113.155 554.197 113.100 V 13.100 C 554.197 13.045 554.152 13.000 554.097 13.000 H 547.197 C 547.097 13.000 547.197 13.100 547.197 13.000 V 10.100 C 547.197 10.045 547.152 10.000 547.097 10.000 H 541.097 C 541.042 10.000 540.997 10.045 540.997 10.100 V 13.000 C 540.997 13.100 541.097 13.000 540.997 13.000 H 534.097 H 533.702 C 533.647 13.000 533.602 13.045 533.602 13.100 V 24.100 C 533.602 24.155 533.647 24.200 533.702 24.200 H 534.378 C 534.478 24.200 534.378 24.100 534.378 24.200 V 30.000 C 534.378 30.100 534.478 30.000 534.378 30.000 H 533.702 C 533.647 30.000 533.602 30.045 533.602 30.100 V 36.100 C 533.602 36.155 533.647 36.200 533.702 36.200 H 534.378 C 534.478 36.200 534.378 36.100 534.378 36.200 V 42.000 C 534.378 42.100 534.478 42.000 534.378 42.000 H 533.702 C 533.647 42.000 533.602 42.045 533.602 42.100 V 48.100 C 533.602 48.155 533.647 48.200 533.702 48.200 H 534.378 C 534.478 48.200 534.378 48.100 534.378 48.200 V 54.000 C 534.378 54.100 534.478 54.000 534.378 54.000 H 533.702 C 533.647 54.000 533.602 54.045 533.602 54.100 V 60.100 C 533.602 60.155 533.647 60.200 533.702 60.200 H 534.378 C 534.478 60.200 534.378 60.100 534.378 60.200 V 66.000 C 534.378 66.100 534.478 66.000 534.378 66.000 H 533.702 C 533.647 66.000 533.602 66.045 533.602 66.100 V 72.100 C 533.602 72.155 533.647 72.200 533.702 72.200 H 534.378 C 534.478 72.200 534.378 72.100 534.378 72.200 V 78.000 C 534.378 78.100 534.478 78.000 534.378 78.000 H 533.702 C 533.647 78.000 533.602 78.045 533.602 78.100 V 84.100 C 533.602 84.155 533.647 84.200 533.702 84.200 H 534.378 C 534.478 84.200 534.378 84.100 534.378 84.200 V 90.000 C 534.378 90.100 534.478 90.000 534.378 90.000 H 533.702 C 533.647 90.000 533.602 90.045 533.602 90.100 V 96.100 C 533.602 96.155 533.647 96.200 533.702 96.200 H 534.378 C 534.478 96.200 534.378 96.100 534.378 96.200 V 102.000 C 534.378 102.100 534.478 102.000 534.378 102.000 H 533.702 C 533.647 102.000 533.602 102.045 533.602 102.100 V 113.100 C 533.602 113.155 533.647 113.200 533.702 113.200 H 534.097 Z" stroke="rgb(0,0,0)" stroke-width="0.20" />
</g>
</svg>