<?xml version='1.0' encoding='utf-8'?>
<svg height="146.90mm" viewBox="0.0 0.0 758.90 146.90" width="758.90mm" xmlns="http://www.w3.org/2000/svg" xmlns:cc="http://creativecommons.org/ns#" xmlns:dc="http://purl.org/dc/elements/1.1/" xmlns:inkscape="http://www.inkscape.org/namespaces/inkscape" xmlns:rdf="http://www.w3.org/1999/02/22-rdf-syntax-ns#" xmlns:svg="http://www.w3.org/2000/svg" xmlns:xlink="http://www.w3.org/1999/xlink">
<!--
SideDoorHousing - Box with service hatches on either one or both of the sides that are locked with latches



This box is designed as a housing for electronic projects but could be used for other purposes. It has hatches that can be re-opened with simple tools. If built from thin enough material, it intentionally cannot be opened with bare hands.

The hatches are on the x sides.

#### Assembly instructions
The main body is easy to assemble:
1. Starting with the floor and then add the four walls (for any removable sides, the wall will just be a small part on the base )
2. Add the top piece

For the removable walls:
1. Add the lips to the removable walls
2. Sit the latches in place (it is importand to make sure the springs on the latches point inwards and the angled ends point to the side walls. See image below)
3. Glue the U-shaped clamps in place (it is important **not** to glue the latches)

![Wall details](static/samples/SideDoorHousing.jpg)


#### Re-Opening

The latches lock in place when closed. To open them they need to be pressed in and can then be moved aside.

![Closed Box](static/samples/SideDoorHousing-2.jpg)




Created with Boxes.py (https://boxes.hackerspace-bamberg.de/)
Command line (remove spaces between dashes): boxes SideDoorHousing
-->
<title>SideDoorHousing</title>
<metadata>
<rdf:RDF><cc:Work>
<dc:title>Box - SideDoorHousing</dc:title>
<dc:source>boxes SideDoorHousing</dc:source>
<dc:description>Box with service hatches on either one or both of the sides that are locked with latches


This box is designed as a housing for electronic projects but could be used for other purposes. It has hatches that can be re-opened with simple tools. If built from thin enough material, it intentionally cannot be opened with bare hands.

The hatches are on the x sides.

#### Assembly instructions
The main body is easy to assemble:
1. Starting with the floor and then add the four walls (for any removable sides, the wall will just be a small part on the base )
2. Add the top piece

For the removable walls:
1. Add the lips to the removable walls
2. Sit the latches in place (it is importand to make sure the springs on the latches point inwards and the angled ends point to the side walls. See image below)
3. Glue the U-shaped clamps in place (it is important **not** to glue the latches)

![Wall details](static/samples/SideDoorHousing.jpg)


#### Re-Opening

The latches lock in place when closed. To open them they need to be pressed in and can then be moved aside.

![Closed Box](static/samples/SideDoorHousing-2.jpg)



Created with Boxes.py (https://boxes.hackerspace-bamberg.de/)
Command line: boxes SideDoorHousing
Command line short: boxes SideDoorHousing
</dc:description>
</cc:Work></rdf:RDF></metadata>
<g id="p-0" style="fill:none;stroke-linecap:round;stroke-linejoin:round;">
  <path d="M 10.100 136.900 H 110.100 V 126.900 H 10.100 V 136.900 Z" stroke="rgb(0,0,0)" stroke-width="0.20" />
  <text dominant-baseline="hanging" font-size="6px" style="font-family: sans-serif ; font-weight: normal; font-style: normal; fill: rgb(255,0,0)" text-anchor="middle" transform="matrix( 1.000 0.000 0.000 1.000 60.100 128.900 )">100.0mm, burn:0.10mm</text>
</g>
<g id="p-1" style="fill:none;stroke-linecap:round;stroke-linejoin:round;">
  <path d="M 13.100 122.200 H 18.000 C 18.100 122.200 18.000 122.100 18.000 122.200 V 125.100 C 18.000 125.155 18.045 125.200 18.100 125.200 H 24.100 C 24.155 125.200 24.200 125.155 24.200 125.100 V 122.200 C 24.200 122.100 24.100 122.200 24.200 122.200 H 30.000 C 30.100 122.200 30.000 122.100 30.000 122.200 V 125.100 C 30.000 125.155 30.045 125.200 30.100 125.200 H 36.100 C 36.155 125.200 36.200 125.155 36.200 125.100 V 122.200 C 36.200 122.100 36.100 122.200 36.200 122.200 H 42.000 C 42.100 122.200 42.000 122.100 42.000 122.200 V 125.100 C 42.000 125.155 42.045 125.200 42.100 125.200 H 48.100 C 48.155 125.200 48.200 125.155 48.200 125.100 V 122.200 C 48.200 122.100 48.100 122.200 48.200 122.200 H 54.000 C 54.100 122.200 54.000 122.100 54.000 122.200 V 125.100 C 54.000 125.155 54.045 125.200 54.100 125.200 H 60.100 C 60.155 125.200 60.200 125.155 60.200 125.100 V 122.200 C 60.200 122.100 60.100 122.200 60.200 122.200 H 66.000 C 66.100 122.200 66.000 122.100 66.000 122.200 V 125.100 C 66.000 125.155 66.045 125.200 66.100 125.200 H 72.100 C 72.155 125.200 72.200 125.155 72.200 125.100 V 122.200 C 72.200 122.100 72.100 122.200 72.200 122.200 H 78.000 C 78.100 122.200 78.000 122.100 78.000 122.200 V 125.100 C 78.000 125.155 78.045 125.200 78.100 125.200 H 84.100 C 84.155 125.200 84.200 125.155 84.200 125.100 V 122.200 C 84.200 122.100 84.100 122.200 84.200 122.200 H 90.000 C 90.100 122.200 90.000 122.100 90.000 122.200 V 125.100 C 90.000 125.155 90.045 125.200 90.100 125.200 H 96.100 C 96.155 125.200 96.200 125.155 96.200 125.100 V 122.200 C 96.200 122.100 96.100 122.200 96.200 122.200 H 102.000 C 102.100 122.200 102.000 122.100 102.000 122.200 V 125.100 C 102.000 125.155 102.045 125.200 102.100 125.200 H 108.100 C 108.155 125.200 108.200 125.155 108.200 125.100 V 122.200 C 108.200 122.100 108.100 122.200 108.200 122.200 H 113.100 C 113.155 122.200 113.200 122.155 113.200 122.100 V 117.200 C 113.200 117.100 113.100 117.200 113.200 117.200 H 116.100 C 116.155 117.200 116.200 117.155 116.200 117.100 V 111.100 C 116.200 111.045 116.155 111.000 116.100 111.000 H 113.200 C 113.100 111.000 113.200 111.100 113.200 111.000 V 105.200 C 113.200 105.100 113.100 105.200 113.200 105.200 H 116.100 C 116.155 105.200 116.200 105.155 116.200 105.100 V 99.100 C 116.200 99.045 116.155 99.000 116.100 99.000 H 113.200 C 113.100 99.000 113.200 99.100 113.200 99.000 V 93.200 C 113.200 93.100 113.100 93.200 113.200 93.200 H 116.100 C 116.155 93.200 116.200 93.155 116.200 93.100 V 87.100 C 116.200 87.045 116.155 87.000 116.100 87.000 H 113.200 C 113.100 87.000 113.200 87.100 113.200 87.000 V 81.200 C 113.200 81.100 113.100 81.200 113.200 81.200 H 116.100 C 116.155 81.200 116.200 81.155 116.200 81.100 V 75.100 C 116.200 75.045 116.155 75.000 116.100 75.000 H 113.200 C 113.100 75.000 113.200 75.100 113.200 75.000 V 69.200 C 113.200 69.100 113.100 69.200 113.200 69.200 H 116.100 C 116.155 69.200 116.200 69.155 116.200 69.100 V 63.100 C 116.200 63.045 116.155 63.000 116.100 63.000 H 113.200 C 113.100 63.000 113.200 63.100 113.200 63.000 V 57.200 C 113.200 57.100 113.100 57.200 113.200 57.200 H 116.100 C 116.155 57.200 116.200 57.155 116.200 57.100 V 51.100 C 116.200 51.045 116.155 51.000 116.100 51.000 H 113.200 C 113.100 51.000 113.200 51.100 113.200 51.000 V 45.200 C 113.200 45.100 113.100 45.200 113.200 45.200 H 116.100 C 116.155 45.200 116.200 45.155 116.200 45.100 V 39.100 C 116.200 39.045 116.155 39.000 116.100 39.000 H 113.200 C 113.100 39.000 113.200 39.100 113.200 39.000 V 33.200 C 113.200 33.100 113.100 33.200 113.200 33.200 H 116.100 C 116.155 33.200 116.200 33.155 116.200 33.100 V 27.100 C 116.200 27.045 116.155 27.000 116.100 27.000 H 113.200 C 113.100 27.000 113.200 27.100 113.200 27.000 V 22.100 C 113.200 22.045 113.155 22.000 113.100 22.000 H 108.200 C 108.100 22.000 108.200 22.100 108.200 22.000 V 19.100 C 108.200 19.045 108.155 19.000 108.100 19.000 H 102.100 C 102.045 19.000 102.000 19.045 102.000 19.100 V 22.000 C 102.000 22.100 102.100 22.000 102.000 22.000 H 96.200 C 96.100 22.000 96.200 22.100 96.200 22.000 V 19.100 C 96.200 19.045 96.155 19.000 96.100 19.000 H 90.100 C 90.045 19.000 90.000 19.045 90.000 19.100 V 22.000 C 90.000 22.100 90.100 22.000 90.000 22.000 H 84.200 C 84.100 22.000 84.200 22.100 84.200 22.000 V 19.100 C 84.200 19.045 84.155 19.000 84.100 19.000 H 78.100 C 78.045 19.000 78.000 19.045 78.000 19.100 V 22.000 C 78.000 22.100 78.100 22.000 78.000 22.000 H 72.200 C 72.100 22.000 72.200 22.100 72.200 22.000 V 19.100 C 72.200 19.045 72.155 19.000 72.100 19.000 H 66.100 C 66.045 19.000 66.000 19.045 66.000 19.100 V 22.000 C 66.000 22.100 66.100 22.000 66.000 22.000 H 60.200 C 60.100 22.000 60.200 22.100 60.200 22.000 V 19.100 C 60.200 19.045 60.155 19.000 60.100 19.000 H 54.100 C 54.045 19.000 54.000 19.045 54.000 19.100 V 22.000 C 54.000 22.100 54.100 22.000 54.000 22.000 H 48.200 C 48.100 22.000 48.200 22.100 48.200 22.000 V 19.100 C 48.200 19.045 48.155 19.000 48.100 19.000 H 42.100 C 42.045 19.000 42.000 19.045 42.000 19.100 V 22.000 C 42.000 22.100 42.100 22.000 42.000 22.000 H 36.200 C 36.100 22.000 36.200 22.100 36.200 22.000 V 19.100 C 36.200 19.045 36.155 19.000 36.100 19.000 H 30.100 C 30.045 19.000 30.000 19.045 30.000 19.100 V 22.000 C 30.000 22.100 30.100 22.000 30.000 22.000 H 24.200 C 24.100 22.000 24.200 22.100 24.200 22.000 V 19.100 C 24.200 19.045 24.155 19.000 24.100 19.000 H 18.100 C 18.045 19.000 18.000 19.045 18.000 19.100 V 22.000 C 18.000 22.100 18.100 22.000 18.000 22.000 H 13.100 C 13.045 22.000 13.000 22.045 13.000 22.100 V 27.000 C 13.000 27.100 13.100 27.000 13.000 27.000 H 10.100 C 10.045 27.000 10.000 27.045 10.000 27.100 V 33.100 C 10.000 33.155 10.045 33.200 10.100 33.200 H 13.000 C 13.100 33.200 13.000 33.100 13.000 33.200 V 39.000 C 13.000 39.100 13.100 39.000 13.000 39.000 H 10.100 C 10.045 39.000 10.000 39.045 10.000 39.100 V 45.100 C 10.000 45.155 10.045 45.200 10.100 45.200 H 13.000 C 13.100 45.200 13.000 45.100 13.000 45.200 V 51.000 C 13.000 51.100 13.100 51.000 13.000 51.000 H 10.100 C 10.045 51.000 10.000 51.045 10.000 51.100 V 57.100 C 10.000 57.155 10.045 57.200 10.100 57.200 H 13.000 C 13.100 57.200 13.000 57.100 13.000 57.200 V 63.000 C 13.000 63.100 13.100 63.000 13.000 63.000 H 10.100 C 10.045 63.000 10.000 63.045 10.000 63.100 V 69.100 C 10.000 69.155 10.045 69.200 10.100 69.200 H 13.000 C 13.100 69.200 13.000 69.100 13.000 69.200 V 75.000 C 13.000 75.100 13.100 75.000 13.000 75.000 H 10.100 C 10.045 75.000 10.000 75.045 10.000 75.100 V 81.100 C 10.000 81.155 10.045 81.200 10.100 81.200 H 13.000 C 13.100 81.200 13.000 81.100 13.000 81.200 V 87.000 C 13.000 87.100 13.100 87.000 13.000 87.000 H 10.100 C 10.045 87.000 10.000 87.045 10.000 87.100 V 93.100 C 10.000 93.155 10.045 93.200 10.100 93.200 H 13.000 C 13.100 93.200 13.000 93.100 13.000 93.200 V 99.000 C 13.000 99.100 13.100 99.000 13.000 99.000 H 10.100 C 10.045 99.000 10.000 99.045 10.000 99.100 V 105.100 C 10.000 105.155 10.045 105.200 10.100 105.200 H 13.000 C 13.100 105.200 13.000 105.100 13.000 105.200 V 111.000 C 13.000 111.100 13.100 111.000 13.000 111.000 H 10.100 C 10.045 111.000 10.000 111.045 10.000 111.100 V 117.100 C 10.000 117.155 10.045 117.200 10.100 117.200 H 13.000 C 13.100 117.200 13.000 117.100 13.000 117.200 V 122.100 C 13.000 122.155 13.045 122.200 13.100 122.200 Z" stroke="rgb(0,0,0)" stroke-width="0.20" />
</g>
<g id="p-2" style="fill:none;stroke-linecap:round;stroke-linejoin:round;">
  <path d="M 120.800 125.200 H 220.800 H 223.800 C 223.855 125.200 223.900 125.155 223.900 125.100 V 122.100 V 117.100 C 223.900 117.045 223.855 117.000 223.800 117.000 H 220.900 C 220.800 117.000 220.900 117.100 220.900 117.000 V 111.200 C 220.900 111.100 220.800 111.200 220.900 111.200 H 223.800 C 223.855 111.200 223.900 111.155 223.900 111.100 V 105.100 C 223.900 105.045 223.855 105.000 223.800 105.000 H 220.900 C 220.800 105.000 220.900 105.100 220.900 105.000 V 99.200 C 220.900 99.100 220.800 99.200 220.900 99.200 H 223.800 C 223.855 99.200 223.900 99.155 223.900 99.100 V 93.100 C 223.900 93.045 223.855 93.000 223.800 93.000 H 220.900 C 220.800 93.000 220.900 93.100 220.900 93.000 V 87.200 C 220.900 87.100 220.800 87.200 220.900 87.200 H 223.800 C 223.855 87.200 223.900 87.155 223.900 87.100 V 81.100 C 223.900 81.045 223.855 81.000 223.800 81.000 H 220.900 C 220.800 81.000 220.900 81.100 220.900 81.000 V 75.200 C 220.900 75.100 220.800 75.200 220.900 75.200 H 223.800 C 223.855 75.200 223.900 75.155 223.900 75.100 V 69.100 C 223.900 69.045 223.855 69.000 223.800 69.000 H 220.900 C 220.800 69.000 220.900 69.100 220.900 69.000 V 63.200 C 220.900 63.100 220.800 63.200 220.900 63.200 H 223.800 C 223.855 63.200 223.900 63.155 223.900 63.100 V 57.100 C 223.900 57.045 223.855 57.000 223.800 57.000 H 220.900 C 220.800 57.000 220.900 57.100 220.900 57.000 V 51.200 C 220.900 51.100 220.800 51.200 220.900 51.200 H 223.800 C 223.855 51.200 223.900 51.155 223.900 51.100 V 45.100 C 223.900 45.045 223.855 45.000 223.800 45.000 H 220.900 C 220.800 45.000 220.900 45.100 220.900 45.000 V 39.200 C 220.900 39.100 220.800 39.200 220.900 39.200 H 223.800 C 223.855 39.200 223.900 39.155 223.900 39.100 V 33.100 C 223.900 33.045 223.855 33.000 223.800 33.000 H 220.900 C 220.800 33.000 220.900 33.100 220.900 33.000 V 27.200 C 220.900 27.100 220.800 27.200 220.900 27.200 H 223.800 C 223.855 27.200 223.900 27.155 223.900 27.100 V 22.100 V 19.100 C 223.900 19.045 223.855 19.000 223.800 19.000 H 220.800 H 120.800 H 117.800 C 117.745 19.000 117.700 19.045 117.700 19.100 V 22.100 V 27.100 C 117.700 27.155 117.745 27.200 117.800 27.200 H 120.700 C 120.800 27.200 120.700 27.100 120.700 27.200 V 33.000 C 120.700 33.100 120.800 33.000 120.700 33.000 H 117.800 C 117.745 33.000 117.700 33.045 117.700 33.100 V 39.100 C 117.700 39.155 117.745 39.200 117.800 39.200 H 120.700 C 120.800 39.200 120.700 39.100 120.700 39.200 V 45.000 C 120.700 45.100 120.800 45.000 120.700 45.000 H 117.800 C 117.745 45.000 117.700 45.045 117.700 45.100 V 51.100 C 117.700 51.155 117.745 51.200 117.800 51.200 H 120.700 C 120.800 51.200 120.700 51.100 120.700 51.200 V 57.000 C 120.700 57.100 120.800 57.000 120.700 57.000 H 117.800 C 117.745 57.000 117.700 57.045 117.700 57.100 V 63.100 C 117.700 63.155 117.745 63.200 117.800 63.200 H 120.700 C 120.800 63.200 120.700 63.100 120.700 63.200 V 69.000 C 120.700 69.100 120.800 69.000 120.700 69.000 H 117.800 C 117.745 69.000 117.700 69.045 117.700 69.100 V 75.100 C 117.700 75.155 117.745 75.200 117.800 75.200 H 120.700 C 120.800 75.200 120.700 75.100 120.700 75.200 V 81.000 C 120.700 81.100 120.800 81.000 120.700 81.000 H 117.800 C 117.745 81.000 117.700 81.045 117.700 81.100 V 87.100 C 117.700 87.155 117.745 87.200 117.800 87.200 H 120.700 C 120.800 87.200 120.700 87.100 120.700 87.200 V 93.000 C 120.700 93.100 120.800 93.000 120.700 93.000 H 117.800 C 117.745 93.000 117.700 93.045 117.700 93.100 V 99.100 C 117.700 99.155 117.745 99.200 117.800 99.200 H 120.700 C 120.800 99.200 120.700 99.100 120.700 99.200 V 105.000 C 120.700 105.100 120.800 105.000 120.700 105.000 H 117.800 C 117.745 105.000 117.700 105.045 117.700 105.100 V 111.100 C 117.700 111.155 117.745 111.200 117.800 111.200 H 120.700 C 120.800 111.200 120.700 111.100 120.700 111.200 V 117.000 C 120.700 117.100 120.800 117.000 120.700 117.000 H 117.800 C 117.745 117.000 117.700 117.045 117.700 117.100 V 122.100 V 125.100 C 117.700 125.155 117.745 125.200 117.800 125.200 H 120.800 Z" stroke="rgb(0,0,0)" stroke-width="0.20" />
</g>
<g id="p-3" style="fill:none;stroke-linecap:round;stroke-linejoin:round;">
  <path d="M 236.500 116.100 H 233.600 C 233.500 116.100 233.600 116.200 233.600 116.100 V 113.300 C 233.600 113.200 233.500 113.300 233.600 113.300 H 239.400 C 239.500 113.300 239.400 113.200 239.400 113.300 V 116.100 C 239.400 116.200 239.500 116.100 239.400 116.100 H 236.500 Z" stroke="rgb(0,0,255)" stroke-width="0.20" />
  <path d="M 248.500 116.100 H 245.600 C 245.500 116.100 245.600 116.200 245.600 116.100 V 113.300 C 245.600 113.200 245.500 113.300 245.600 113.300 H 251.400 C 251.500 113.300 251.400 113.200 251.400 113.300 V 116.100 C 251.400 116.200 251.500 116.100 251.400 116.100 H 248.500 Z" stroke="rgb(0,0,255)" stroke-width="0.20" />
  <path d="M 260.500 116.100 H 257.600 C 257.500 116.100 257.600 116.200 257.600 116.100 V 113.300 C 257.600 113.200 257.500 113.300 257.600 113.300 H 263.400 C 263.500 113.300 263.400 113.200 263.400 113.300 V 116.100 C 263.400 116.200 263.500 116.100 263.400 116.100 H 260.500 Z" stroke="rgb(0,0,255)" stroke-width="0.20" />
  <path d="M 272.500 116.100 H 269.600 C 269.500 116.100 269.600 116.200 269.600 116.100 V 113.300 C 269.600 113.200 269.500 113.300 269.600 113.300 H 275.400 C 275.500 113.300 275.400 113.200 275.400 113.300 V 116.100 C 275.400 116.200 275.500 116.100 275.400 116.100 H 272.500 Z" stroke="rgb(0,0,255)" stroke-width="0.20" />
  <path d="M 284.500 116.100 H 281.600 C 281.500 116.100 281.600 116.200 281.600 116.100 V 113.300 C 281.600 113.200 281.500 113.300 281.600 113.300 H 287.400 C 287.500 113.300 287.400 113.200 287.400 113.300 V 116.100 C 287.400 116.200 287.500 116.100 287.400 116.100 H 284.500 Z" stroke="rgb(0,0,255)" stroke-width="0.20" />
  <path d="M 296.500 116.100 H 293.600 C 293.500 116.100 293.600 116.200 293.600 116.100 V 113.300 C 293.600 113.200 293.500 113.300 293.600 113.300 H 299.400 C 299.500 113.300 299.400 113.200 299.400 113.300 V 116.100 C 299.400 116.200 299.500 116.100 299.400 116.100 H 296.500 Z" stroke="rgb(0,0,255)" stroke-width="0.20" />
  <path d="M 308.500 116.100 H 305.600 C 305.500 116.100 305.600 116.200 305.600 116.100 V 113.300 C 305.600 113.200 305.500 113.300 305.600 113.300 H 311.400 C 311.500 113.300 311.400 113.200 311.400 113.300 V 116.100 C 311.400 116.200 311.500 116.100 311.400 116.100 H 308.500 Z" stroke="rgb(0,0,255)" stroke-width="0.20" />
  <path d="M 320.500 116.100 H 317.600 C 317.500 116.100 317.600 116.200 317.600 116.100 V 113.300 C 317.600 113.200 317.500 113.300 317.600 113.300 H 323.400 C 323.500 113.300 323.400 113.200 323.400 113.300 V 116.100 C 323.400 116.200 323.500 116.100 323.400 116.100 H 320.500 Z" stroke="rgb(0,0,255)" stroke-width="0.20" />
  <path d="M 228.500 125.200 H 240.500 C 241.571 125.200 242.623 124.918 243.550 124.383 C 244.477 123.847 245.247 123.077 245.783 122.150 C 246.301 121.253 247.045 120.508 247.942 119.990 C 248.839 119.473 249.857 119.200 250.892 119.200 H 306.108 C 307.143 119.200 308.161 119.473 309.058 119.990 C 309.955 120.508 310.699 121.253 311.217 122.150 C 311.753 123.077 312.523 123.847 313.450 124.383 C 314.377 124.918 315.429 125.200 316.500 125.200 H 328.500 C 328.555 125.200 328.600 125.155 328.600 125.100 V 120.700 C 328.600 120.600 328.500 120.700 328.600 120.700 H 331.500 C 331.555 120.700 331.600 120.655 331.600 120.600 V 114.600 C 331.600 114.545 331.555 114.500 331.500 114.500 H 328.600 C 328.500 114.500 328.600 114.600 328.600 114.500 V 110.100 V 13.100 C 328.600 13.045 328.555 13.000 328.500 13.000 H 323.600 C 323.500 13.000 323.600 13.100 323.600 13.000 V 10.100 C 323.600 10.045 323.555 10.000 323.500 10.000 H 317.500 C 317.445 10.000 317.400 10.045 317.400 10.100 V 13.000 C 317.400 13.100 317.500 13.000 317.400 13.000 H 311.600 C 311.500 13.000 311.600 13.100 311.600 13.000 V 10.100 C 311.600 10.045 311.555 10.000 311.500 10.000 H 305.500 C 305.445 10.000 305.400 10.045 305.400 10.100 V 13.000 C 305.400 13.100 305.500 13.000 305.400 13.000 H 299.600 C 299.500 13.000 299.600 13.100 299.600 13.000 V 10.100 C 299.600 10.045 299.555 10.000 299.500 10.000 H 293.500 C 293.445 10.000 293.400 10.045 293.400 10.100 V 13.000 C 293.400 13.100 293.500 13.000 293.400 13.000 H 287.600 C 287.500 13.000 287.600 13.100 287.600 13.000 V 10.100 C 287.600 10.045 287.555 10.000 287.500 10.000 H 281.500 C 281.445 10.000 281.400 10.045 281.400 10.100 V 13.000 C 281.400 13.100 281.500 13.000 281.400 13.000 H 275.600 C 275.500 13.000 275.600 13.100 275.600 13.000 V 10.100 C 275.600 10.045 275.555 10.000 275.500 10.000 H 269.500 C 269.445 10.000 269.400 10.045 269.400 10.100 V 13.000 C 269.400 13.100 269.500 13.000 269.400 13.000 H 263.600 C 263.500 13.000 263.600 13.100 263.600 13.000 V 10.100 C 263.600 10.045 263.555 10.000 263.500 10.000 H 257.500 C 257.445 10.000 257.400 10.045 257.400 10.100 V 13.000 C 257.400 13.100 257.500 13.000 257.400 13.000 H 251.600 C 251.500 13.000 251.600 13.100 251.600 13.000 V 10.100 C 251.600 10.045 251.555 10.000 251.500 10.000 H 245.500 C 245.445 10.000 245.400 10.045 245.400 10.100 V 13.000 C 245.400 13.100 245.500 13.000 245.400 13.000 H 239.600 C 239.500 13.000 239.600 13.100 239.600 13.000 V 10.100 C 239.600 10.045 239.555 10.000 239.500 10.000 H 233.500 C 233.445 10.000 233.400 10.045 233.400 10.100 V 13.000 C 233.400 13.100 233.500 13.000 233.400 13.000 H 228.500 C 228.445 13.000 228.400 13.045 228.400 13.100 V 110.100 V 114.500 C 228.400 114.600 228.500 114.500 228.400 114.500 H 225.500 C 225.445 114.500 225.400 114.545 225.400 114.600 V 120.600 C 225.400 120.655 225.445 120.700 225.500 120.700 H 228.400 C 228.500 120.700 228.400 120.600 228.400 120.700 V 125.100 C 228.400 125.155 228.445 125.200 228.500 125.200 Z" stroke="rgb(0,0,0)" stroke-width="0.20" />
  <path d="M 323.850 20.550 H 325.400 C 325.500 20.550 325.400 20.450 325.400 20.550 V 23.650 C 325.400 23.750 325.500 23.650 325.400 23.650 H 322.300 C 322.200 23.650 322.300 23.750 322.300 23.650 V 20.550 C 322.300 20.450 322.200 20.550 322.300 20.550 H 323.850 Z" stroke="rgb(0,0,255)" stroke-width="0.20" />
  <path d="M 233.150 20.550 H 234.700 C 234.800 20.550 234.700 20.450 234.700 20.550 V 23.650 C 234.700 23.750 234.800 23.650 234.700 23.650 H 231.600 C 231.500 23.650 231.600 23.750 231.600 23.650 V 20.550 C 231.600 20.450 231.500 20.550 231.600 20.550 H 233.150 Z" stroke="rgb(0,0,255)" stroke-width="0.20" />
</g>
<g id="p-4" style="fill:none;stroke-linecap:round;stroke-linejoin:round;">
  <path d="M 428.200 116.100 H 431.100 C 431.200 116.100 431.100 116.200 431.100 116.100 V 113.300 C 431.100 113.200 431.200 113.300 431.100 113.300 H 425.300 C 425.200 113.300 425.300 113.200 425.300 113.300 V 116.100 C 425.300 116.200 425.200 116.100 425.300 116.100 H 428.200 Z" stroke="rgb(0,0,255)" stroke-width="0.20" />
  <path d="M 416.200 116.100 H 419.100 C 419.200 116.100 419.100 116.200 419.100 116.100 V 113.300 C 419.100 113.200 419.200 113.300 419.100 113.300 H 413.300 C 413.200 113.300 413.300 113.200 413.300 113.300 V 116.100 C 413.300 116.200 413.200 116.100 413.300 116.100 H 416.200 Z" stroke="rgb(0,0,255)" stroke-width="0.20" />
  <path d="M 404.200 116.100 H 407.100 C 407.200 116.100 407.100 116.200 407.100 116.100 V 113.300 C 407.100 113.200 407.200 113.300 407.100 113.300 H 401.300 C 401.200 113.300 401.300 113.200 401.300 113.300 V 116.100 C 401.300 116.200 401.200 116.100 401.300 116.100 H 404.200 Z" stroke="rgb(0,0,255)" stroke-width="0.20" />
  <path d="M 392.200 116.100 H 395.100 C 395.200 116.100 395.100 116.200 395.100 116.100 V 113.300 C 395.100 113.200 395.200 113.300 395.100 113.300 H 389.300 C 389.200 113.300 389.300 113.200 389.300 113.300 V 116.100 C 389.300 116.200 389.200 116.100 389.300 116.100 H 392.200 Z" stroke="rgb(0,0,255)" stroke-width="0.20" />
  <path d="M 380.200 116.100 H 383.100 C 383.200 116.100 383.100 116.200 383.100 116.100 V 113.300 C 383.100 113.200 383.200 113.300 383.100 113.300 H 377.300 C 377.200 113.300 377.300 113.200 377.300 113.300 V 116.100 C 377.300 116.200 377.200 116.100 377.300 116.100 H 380.200 Z" stroke="rgb(0,0,255)" stroke-width="0.20" />
  <path d="M 368.200 116.100 H 371.100 C 371.200 116.100 371.100 116.200 371.100 116.100 V 113.300 C 371.100 113.200 371.200 113.300 371.100 113.300 H 365.300 C 365.200 113.300 365.300 113.200 365.300 113.300 V 116.100 C 365.300 116.200 365.200 116.100 365.300 116.100 H 368.200 Z" stroke="rgb(0,0,255)" stroke-width="0.20" />
  <path d="M 356.200 116.100 H 359.100 C 359.200 116.100 359.100 116.200 359.100 116.100 V 113.300 C 359.100 113.200 359.200 113.300 359.100 113.300 H 353.300 C 353.200 113.300 353.300 113.200 353.300 113.300 V 116.100 C 353.300 116.200 353.200 116.100 353.300 116.100 H 356.200 Z" stroke="rgb(0,0,255)" stroke-width="0.20" />
  <path d="M 344.200 116.100 H 347.100 C 347.200 116.100 347.100 116.200 347.100 116.100 V 113.300 C 347.100 113.200 347.200 113.300 347.100 113.300 H 341.300 C 341.200 113.300 341.300 113.200 341.300 113.300 V 116.100 C 341.300 116.200 341.200 116.100 341.300 116.100 H 344.200 Z" stroke="rgb(0,0,255)" stroke-width="0.20" />
  <path d="M 436.200 125.200 H 424.200 C 423.129 125.200 422.077 124.918 421.150 124.383 C 420.223 123.847 419.453 123.077 418.917 122.150 C 418.399 121.253 417.655 120.508 416.758 119.990 C 415.861 119.473 414.843 119.200 413.808 119.200 H 358.592 C 357.557 119.200 356.539 119.473 355.642 119.990 C 354.745 120.508 354.001 121.253 353.483 122.150 C 352.947 123.077 352.177 123.847 351.250 124.383 C 350.323 124.918 349.271 125.200 348.200 125.200 H 336.200 C 336.145 125.200 336.100 125.155 336.100 125.100 V 120.700 C 336.100 120.600 336.200 120.700 336.100 120.700 H 333.200 C 333.145 120.700 333.100 120.655 333.100 120.600 V 114.600 C 333.100 114.545 333.145 114.500 333.200 114.500 H 336.100 C 336.200 114.500 336.100 114.600 336.100 114.500 V 110.100 V 13.100 C 336.100 13.045 336.145 13.000 336.200 13.000 H 341.100 C 341.200 13.000 341.100 13.100 341.100 13.000 V 10.100 C 341.100 10.045 341.145 10.000 341.200 10.000 H 347.200 C 347.255 10.000 347.300 10.045 347.300 10.100 V 13.000 C 347.300 13.100 347.200 13.000 347.300 13.000 H 353.100 C 353.200 13.000 353.100 13.100 353.100 13.000 V 10.100 C 353.100 10.045 353.145 10.000 353.200 10.000 H 359.200 C 359.255 10.000 359.300 10.045 359.300 10.100 V 13.000 C 359.300 13.100 359.200 13.000 359.300 13.000 H 365.100 C 365.200 13.000 365.100 13.100 365.100 13.000 V 10.100 C 365.100 10.045 365.145 10.000 365.200 10.000 H 371.200 C 371.255 10.000 371.300 10.045 371.300 10.100 V 13.000 C 371.300 13.100 371.200 13.000 371.300 13.000 H 377.100 C 377.200 13.000 377.100 13.100 377.100 13.000 V 10.100 C 377.100 10.045 377.145 10.000 377.200 10.000 H 383.200 C 383.255 10.000 383.300 10.045 383.300 10.100 V 13.000 C 383.300 13.100 383.200 13.000 383.300 13.000 H 389.100 C 389.200 13.000 389.100 13.100 389.100 13.000 V 10.100 C 389.100 10.045 389.145 10.000 389.200 10.000 H 395.200 C 395.255 10.000 395.300 10.045 395.300 10.100 V 13.000 C 395.300 13.100 395.200 13.000 395.300 13.000 H 401.100 C 401.200 13.000 401.100 13.100 401.100 13.000 V 10.100 C 401.100 10.045 401.145 10.000 401.200 10.000 H 407.200 C 407.255 10.000 407.300 10.045 407.300 10.100 V 13.000 C 407.300 13.100 407.200 13.000 407.300 13.000 H 413.100 C 413.200 13.000 413.100 13.100 413.100 13.000 V 10.100 C 413.100 10.045 413.145 10.000 413.200 10.000 H 419.200 C 419.255 10.000 419.300 10.045 419.300 10.100 V 13.000 C 419.300 13.100 419.200 13.000 419.300 13.000 H 425.100 C 425.200 13.000 425.100 13.100 425.100 13.000 V 10.100 C 425.100 10.045 425.145 10.000 425.200 10.000 H 431.200 C 431.255 10.000 431.300 10.045 431.300 10.100 V 13.000 C 431.300 13.100 431.200 13.000 431.300 13.000 H 436.200 C 436.255 13.000 436.300 13.045 436.300 13.100 V 110.100 V 114.500 C 436.300 114.600 436.200 114.500 436.300 114.500 H 439.200 C 439.255 114.500 439.300 114.545 439.300 114.600 V 120.600 C 439.300 120.655 439.255 120.700 439.200 120.700 H 436.300 C 436.200 120.700 436.300 120.600 436.300 120.700 V 125.100 C 436.300 125.155 436.255 125.200 436.200 125.200 Z" stroke="rgb(0,0,0)" stroke-width="0.20" />
  <path d="M 340.850 20.550 H 339.300 C 339.200 20.550 339.300 20.450 339.300 20.550 V 23.650 C 339.300 23.750 339.200 23.650 339.300 23.650 H 342.400 C 342.500 23.650 342.400 23.750 342.400 23.650 V 20.550 C 342.400 20.450 342.500 20.550 342.400 20.550 H 340.850 Z" stroke="rgb(0,0,255)" stroke-width="0.20" />
  <path d="M 431.550 20.550 H 430.000 C 429.900 20.550 430.000 20.450 430.000 20.550 V 23.650 C 430.000 23.750 429.900 23.650 430.000 23.650 H 433.100 C 433.200 23.650 433.100 23.750 433.100 23.650 V 20.550 C 433.100 20.450 433.200 20.550 433.100 20.550 H 431.550 Z" stroke="rgb(0,0,255)" stroke-width="0.20" />
</g>
<g id="p-5" style="fill:none;stroke-linecap:round;stroke-linejoin:round;">
  <path d="M 451.900 116.100 H 449.000 C 448.900 116.100 449.000 116.200 449.000 116.100 V 113.300 C 449.000 113.200 448.900 113.300 449.000 113.300 H 454.800 C 454.900 113.300 454.800 113.200 454.800 113.300 V 116.100 C 454.800 116.200 454.900 116.100 454.800 116.100 H 451.900 Z" stroke="rgb(0,0,255)" stroke-width="0.20" />
  <path d="M 463.900 116.100 H 461.000 C 460.900 116.100 461.000 116.200 461.000 116.100 V 113.300 C 461.000 113.200 460.900 113.300 461.000 113.300 H 466.800 C 466.900 113.300 466.800 113.200 466.800 113.300 V 116.100 C 466.800 116.200 466.900 116.100 466.800 116.100 H 463.900 Z" stroke="rgb(0,0,255)" stroke-width="0.20" />
  <path d="M 475.900 116.100 H 473.000 C 472.900 116.100 473.000 116.200 473.000 116.100 V 113.300 C 473.000 113.200 472.900 113.300 473.000 113.300 H 478.800 C 478.900 113.300 478.800 113.200 478.800 113.300 V 116.100 C 478.800 116.200 478.900 116.100 478.800 116.100 H 475.900 Z" stroke="rgb(0,0,255)" stroke-width="0.20" />
  <path d="M 487.900 116.100 H 485.000 C 484.900 116.100 485.000 116.200 485.000 116.100 V 113.300 C 485.000 113.200 484.900 113.300 485.000 113.300 H 490.800 C 490.900 113.300 490.800 113.200 490.800 113.300 V 116.100 C 490.800 116.200 490.900 116.100 490.800 116.100 H 487.900 Z" stroke="rgb(0,0,255)" stroke-width="0.20" />
  <path d="M 499.900 116.100 H 497.000 C 496.900 116.100 497.000 116.200 497.000 116.100 V 113.300 C 497.000 113.200 496.900 113.300 497.000 113.300 H 502.800 C 502.900 113.300 502.800 113.200 502.800 113.300 V 116.100 C 502.800 116.200 502.900 116.100 502.800 116.100 H 499.900 Z" stroke="rgb(0,0,255)" stroke-width="0.20" />
  <path d="M 511.900 116.100 H 509.000 C 508.900 116.100 509.000 116.200 509.000 116.100 V 113.300 C 509.000 113.200 508.900 113.300 509.000 113.300 H 514.800 C 514.900 113.300 514.800 113.200 514.800 113.300 V 116.100 C 514.800 116.200 514.900 116.100 514.800 116.100 H 511.900 Z" stroke="rgb(0,0,255)" stroke-width="0.20" />
  <path d="M 523.900 116.100 H 521.000 C 520.900 116.100 521.000 116.200 521.000 116.100 V 113.300 C 521.000 113.200 520.900 113.300 521.000 113.300 H 526.800 C 526.900 113.300 526.800 113.200 526.800 113.300 V 116.100 C 526.800 116.200 526.900 116.100 526.800 116.100 H 523.900 Z" stroke="rgb(0,0,255)" stroke-width="0.20" />
  <path d="M 535.900 116.100 H 533.000 C 532.900 116.100 533.000 116.200 533.000 116.100 V 113.300 C 533.000 113.200 532.900 113.300 533.000 113.300 H 538.800 C 538.900 113.300 538.800 113.200 538.800 113.300 V 116.100 C 538.800 116.200 538.900 116.100 538.800 116.100 H 535.900 Z" stroke="rgb(0,0,255)" stroke-width="0.20" />
  <path d="M 443.900 125.200 H 455.900 C 456.971 125.200 458.023 124.918 458.950 124.383 C 459.877 123.847 460.647 123.077 461.183 122.150 C 461.701 121.253 462.445 120.508 463.342 119.990 C 464.239 119.473 465.257 119.200 466.292 119.200 H 521.508 C 522.543 119.200 523.561 119.473 524.458 119.990 C 525.355 120.508 526.099 121.253 526.617 122.150 C 527.153 123.077 527.923 123.847 528.850 124.383 C 529.777 124.918 530.829 125.200 531.900 125.200 H 543.900 H 546.900 C 546.955 125.200 547.000 125.155 547.000 125.100 V 120.600 C 547.000 120.545 546.955 120.500 546.900 120.500 H 544.000 C 543.900 120.500 544.000 120.600 544.000 120.500 V 114.700 C 544.000 114.600 543.900 114.700 544.000 114.700 H 546.900 C 546.955 114.700 547.000 114.655 547.000 114.600 V 110.100 C 547.000 110.045 546.955 110.000 546.900 110.000 H 543.900 H 443.900 H 440.900 C 440.845 110.000 440.800 110.045 440.800 110.100 V 114.600 C 440.800 114.655 440.845 114.700 440.900 114.700 H 443.800 C 443.900 114.700 443.800 114.600 443.800 114.700 V 120.500 C 443.800 120.600 443.900 120.500 443.800 120.500 H 440.900 C 440.845 120.500 440.800 120.545 440.800 120.600 V 125.100 C 440.800 125.155 440.845 125.200 440.900 125.200 H 443.900 Z" stroke="rgb(0,0,0)" stroke-width="0.20" />
</g>
<g id="p-6" style="fill:none;stroke-linecap:round;stroke-linejoin:round;">
  <path d="M 446.800 98.975 V 101.875 C 446.800 101.975 446.900 101.875 446.800 101.875 H 444.000 C 443.900 101.875 444.000 101.975 444.000 101.875 V 96.075 C 444.000 95.975 443.900 96.075 444.000 96.075 H 446.800 C 446.900 96.075 446.800 95.975 446.800 96.075 V 98.975 Z" stroke="rgb(0,0,255)" stroke-width="0.20" />
  <path d="M 446.800 86.975 V 89.875 C 446.800 89.975 446.900 89.875 446.800 89.875 H 444.000 C 443.900 89.875 444.000 89.975 444.000 89.875 V 84.075 C 444.000 83.975 443.900 84.075 444.000 84.075 H 446.800 C 446.900 84.075 446.800 83.975 446.800 84.075 V 86.975 Z" stroke="rgb(0,0,255)" stroke-width="0.20" />
  <path d="M 446.800 74.975 V 77.875 C 446.800 77.975 446.900 77.875 446.800 77.875 H 444.000 C 443.900 77.875 444.000 77.975 444.000 77.875 V 72.075 C 444.000 71.975 443.900 72.075 444.000 72.075 H 446.800 C 446.900 72.075 446.800 71.975 446.800 72.075 V 74.975 Z" stroke="rgb(0,0,255)" stroke-width="0.20" />
  <path d="M 446.800 62.975 V 65.875 C 446.800 65.975 446.900 65.875 446.800 65.875 H 444.000 C 443.900 65.875 444.000 65.975 444.000 65.875 V 60.075 C 444.000 59.975 443.900 60.075 444.000 60.075 H 446.800 C 446.900 60.075 446.800 59.975 446.800 60.075 V 62.975 Z" stroke="rgb(0,0,255)" stroke-width="0.20" />
  <path d="M 446.800 50.975 V 53.875 C 446.800 53.975 446.900 53.875 446.800 53.875 H 444.000 C 443.900 53.875 444.000 53.975 444.000 53.875 V 48.075 C 444.000 47.975 443.900 48.075 444.000 48.075 H 446.800 C 446.900 48.075 446.800 47.975 446.800 48.075 V 50.975 Z" stroke="rgb(0,0,255)" stroke-width="0.20" />
  <path d="M 446.800 38.975 V 41.875 C 446.800 41.975 446.900 41.875 446.800 41.875 H 444.000 C 443.900 41.875 444.000 41.975 444.000 41.875 V 36.075 C 444.000 35.975 443.900 36.075 444.000 36.075 H 446.800 C 446.900 36.075 446.800 35.975 446.800 36.075 V 38.975 Z" stroke="rgb(0,0,255)" stroke-width="0.20" />
  <path d="M 443.900 108.500 H 543.900 H 546.900 C 546.955 108.500 547.000 108.455 547.000 108.400 V 11.700 C 547.000 11.645 546.955 11.600 546.900 11.600 H 543.900 H 443.900 H 440.900 C 440.845 11.600 440.800 11.645 440.800 11.700 V 108.400 C 440.800 108.455 440.845 108.500 440.900 108.500 H 443.900 Z" stroke="rgb(0,0,0)" stroke-width="0.20" />
  <path d="M 537.900 21.000 V 25.400 C 537.900 25.500 538.000 25.400 537.900 25.400 H 535.100 C 535.000 25.400 535.100 25.500 535.100 25.400 V 22.650 C 535.100 22.595 535.055 22.550 535.000 22.550 H 529.000 C 528.945 22.550 528.900 22.595 528.900 22.650 V 25.400 C 528.900 25.500 529.000 25.400 528.900 25.400 H 526.100 C 526.000 25.400 526.100 25.500 526.100 25.400 V 16.600 C 526.100 16.500 526.000 16.600 526.100 16.600 H 528.900 C 529.000 16.600 528.900 16.500 528.900 16.600 V 19.350 C 528.900 19.405 528.945 19.450 529.000 19.450 H 535.000 C 535.055 19.450 535.100 19.405 535.100 19.350 V 16.600 C 535.100 16.500 535.000 16.600 535.100 16.600 H 537.900 C 538.000 16.600 537.900 16.500 537.900 16.600 V 21.000 Z" stroke="rgb(0,0,255)" stroke-width="0.20" />
  <path d="M 541.000 39.275 V 36.375 C 541.000 36.275 540.900 36.375 541.000 36.375 H 543.800 C 543.900 36.375 543.800 36.275 543.800 36.375 V 42.175 C 543.800 42.275 543.900 42.175 543.800 42.175 H 541.000 C 540.900 42.175 541.000 42.275 541.000 42.175 V 39.275 Z" stroke="rgb(0,0,255)" stroke-width="0.20" />
  <path d="M 541.000 51.275 V 48.375 C 541.000 48.275 540.900 48.375 541.000 48.375 H 543.800 C 543.900 48.375 543.800 48.275 543.800 48.375 V 54.175 C 543.800 54.275 543.900 54.175 543.800 54.175 H 541.000 C 540.900 54.175 541.000 54.275 541.000 54.175 V 51.275 Z" stroke="rgb(0,0,255)" stroke-width="0.20" />
  <path d="M 541.000 63.275 V 60.375 C 541.000 60.275 540.900 60.375 541.000 60.375 H 543.800 C 543.900 60.375 543.800 60.275 543.800 60.375 V 66.175 C 543.800 66.275 543.900 66.175 543.800 66.175 H 541.000 C 540.900 66.175 541.000 66.275 541.000 66.175 V 63.275 Z" stroke="rgb(0,0,255)" stroke-width="0.20" />
  <path d="M 541.000 75.275 V 72.375 C 541.000 72.275 540.900 72.375 541.000 72.375 H 543.800 C 543.900 72.375 543.800 72.275 543.800 72.375 V 78.175 C 543.800 78.275 543.900 78.175 543.800 78.175 H 541.000 C 540.900 78.175 541.000 78.275 541.000 78.175 V 75.275 Z" stroke="rgb(0,0,255)" stroke-width="0.20" />
  <path d="M 541.000 87.275 V 84.375 C 541.000 84.275 540.900 84.375 541.000 84.375 H 543.800 C 543.900 84.375 543.800 84.275 543.800 84.375 V 90.175 C 543.800 90.275 543.900 90.175 543.800 90.175 H 541.000 C 540.900 90.175 541.000 90.275 541.000 90.175 V 87.275 Z" stroke="rgb(0,0,255)" stroke-width="0.20" />
  <path d="M 541.000 99.275 V 96.375 C 541.000 96.275 540.900 96.375 541.000 96.375 H 543.800 C 543.900 96.375 543.800 96.275 543.800 96.375 V 102.175 C 543.800 102.275 543.900 102.175 543.800 102.175 H 541.000 C 540.900 102.175 541.000 102.275 541.000 102.175 V 99.275 Z" stroke="rgb(0,0,255)" stroke-width="0.20" />
  <path d="M 449.900 20.700 V 16.300 C 449.900 16.200 449.800 16.300 449.900 16.300 H 452.700 C 452.800 16.300 452.700 16.200 452.700 16.300 V 19.050 C 452.700 19.105 452.745 19.150 452.800 19.150 H 458.800 C 458.855 19.150 458.900 19.105 458.900 19.050 V 16.300 C 458.900 16.200 458.800 16.300 458.900 16.300 H 461.700 C 461.800 16.300 461.700 16.200 461.700 16.300 V 25.100 C 461.700 25.200 461.800 25.100 461.700 25.100 H 458.900 C 458.800 25.100 458.900 25.200 458.900 25.100 V 22.350 C 458.900 22.295 458.855 22.250 458.800 22.250 H 452.800 C 452.745 22.250 452.700 22.295 452.700 22.350 V 25.100 C 452.700 25.200 452.800 25.100 452.700 25.100 H 449.900 C 449.800 25.100 449.900 25.200 449.900 25.100 V 20.700 Z" stroke="rgb(0,0,255)" stroke-width="0.20" />
</g>
<g id="p-7" style="fill:none;stroke-linecap:round;stroke-linejoin:round;">
  <path d="M 559.600 116.100 H 556.700 C 556.600 116.100 556.700 116.200 556.700 116.100 V 113.300 C 556.700 113.200 556.600 113.300 556.700 113.300 H 562.500 C 562.600 113.300 562.500 113.200 562.500 113.300 V 116.100 C 562.500 116.200 562.600 116.100 562.500 116.100 H 559.600 Z" stroke="rgb(0,0,255)" stroke-width="0.20" />
  <path d="M 571.600 116.100 H 568.700 C 568.600 116.100 568.700 116.200 568.700 116.100 V 113.300 C 568.700 113.200 568.600 113.300 568.700 113.300 H 574.500 C 574.600 113.300 574.500 113.200 574.500 113.300 V 116.100 C 574.500 116.200 574.600 116.100 574.500 116.100 H 571.600 Z" stroke="rgb(0,0,255)" stroke-width="0.20" />
  <path d="M 583.600 116.100 H 580.700 C 580.600 116.100 580.700 116.200 580.700 116.100 V 113.300 C 580.700 113.200 580.600 113.300 580.700 113.300 H 586.500 C 586.600 113.300 586.500 113.200 586.500 113.300 V 116.100 C 586.500 116.200 586.600 116.100 586.500 116.100 H 583.600 Z" stroke="rgb(0,0,255)" stroke-width="0.20" />
  <path d="M 595.600 116.100 H 592.700 C 592.600 116.100 592.700 116.200 592.700 116.100 V 113.300 C 592.700 113.200 592.600 113.300 592.700 113.300 H 598.500 C 598.600 113.300 598.500 113.200 598.500 113.300 V 116.100 C 598.500 116.200 598.600 116.100 598.500 116.100 H 595.600 Z" stroke="rgb(0,0,255)" stroke-width="0.20" />
  <path d="M 607.600 116.100 H 604.700 C 604.600 116.100 604.700 116.200 604.700 116.100 V 113.300 C 604.700 113.200 604.600 113.300 604.700 113.300 H 610.500 C 610.600 113.300 610.500 113.200 610.500 113.300 V 116.100 C 610.500 116.200 610.600 116.100 610.500 116.100 H 607.600 Z" stroke="rgb(0,0,255)" stroke-width="0.20" />
  <path d="M 619.600 116.100 H 616.700 C 616.600 116.100 616.700 116.200 616.700 116.100 V 113.300 C 616.700 113.200 616.600 113.300 616.700 113.300 H 622.500 C 622.600 113.300 622.500 113.200 622.500 113.300 V 116.100 C 622.500 116.200 622.600 116.100 622.500 116.100 H 619.600 Z" stroke="rgb(0,0,255)" stroke-width="0.20" />
  <path d="M 631.600 116.100 H 628.700 C 628.600 116.100 628.700 116.200 628.700 116.100 V 113.300 C 628.700 113.200 628.600 113.300 628.700 113.300 H 634.500 C 634.600 113.300 634.500 113.200 634.500 113.300 V 116.100 C 634.500 116.200 634.600 116.100 634.500 116.100 H 631.600 Z" stroke="rgb(0,0,255)" stroke-width="0.20" />
  <path d="M 643.600 116.100 H 640.700 C 640.600 116.100 640.700 116.200 640.700 116.100 V 113.300 C 640.700 113.200 640.600 113.300 640.700 113.300 H 646.500 C 646.600 113.300 646.500 113.200 646.500 113.300 V 116.100 C 646.500 116.200 646.600 116.100 646.500 116.100 H 643.600 Z" stroke="rgb(0,0,255)" stroke-width="0.20" />
  <path d="M 551.600 125.200 H 563.600 C 564.671 125.200 565.723 124.918 566.650 124.383 C 567.577 123.847 568.347 123.077 568.883 122.150 C 569.401 121.253 570.145 120.508 571.042 119.990 C 571.939 119.473 572.957 119.200 573.992 119.200 H 629.208 C 630.243 119.200 631.261 119.473 632.158 119.990 C 633.055 120.508 633.799 121.253 634.317 122.150 C 634.853 123.077 635.623 123.847 636.550 124.383 C 637.477 124.918 638.529 125.200 639.600 125.200 H 651.600 H 654.600 C 654.655 125.200 654.700 125.155 654.700 125.100 V 120.600 C 654.700 120.545 654.655 120.500 654.600 120.500 H 651.700 C 651.600 120.500 651.700 120.600 651.700 120.500 V 114.700 C 651.700 114.600 651.600 114.700 651.700 114.700 H 654.600 C 654.655 114.700 654.700 114.655 654.700 114.600 V 110.100 C 654.700 110.045 654.655 110.000 654.600 110.000 H 651.600 H 551.600 H 548.600 C 548.545 110.000 548.500 110.045 548.500 110.100 V 114.600 C 548.500 114.655 548.545 114.700 548.600 114.700 H 551.500 C 551.600 114.700 551.500 114.600 551.500 114.700 V 120.500 C 551.500 120.600 551.600 120.500 551.500 120.500 H 548.600 C 548.545 120.500 548.500 120.545 548.500 120.600 V 125.100 C 548.500 125.155 548.545 125.200 548.600 125.200 H 551.600 Z" stroke="rgb(0,0,0)" stroke-width="0.20" />
</g>
<g id="p-8" style="fill:none;stroke-linecap:round;stroke-linejoin:round;">
  <path d="M 554.500 98.975 V 101.875 C 554.500 101.975 554.600 101.875 554.500 101.875 H 551.700 C 551.600 101.875 551.700 101.975 551.700 101.875 V 96.075 C 551.700 95.975 551.600 96.075 551.700 96.075 H 554.500 C 554.600 96.075 554.500 95.975 554.500 96.075 V 98.975 Z" stroke="rgb(0,0,255)" stroke-width="0.20" />
  <path d="M 554.500 86.975 V 89.875 C 554.500 89.975 554.600 89.875 554.500 89.875 H 551.700 C 551.600 89.875 551.700 89.975 551.700 89.875 V 84.075 C 551.700 83.975 551.600 84.075 551.700 84.075 H 554.500 C 554.600 84.075 554.500 83.975 554.500 84.075 V 86.975 Z" stroke="rgb(0,0,255)" stroke-width="0.20" />
  <path d="M 554.500 74.975 V 77.875 C 554.500 77.975 554.600 77.875 554.500 77.875 H 551.700 C 551.600 77.875 551.700 77.975 551.700 77.875 V 72.075 C 551.700 71.975 551.600 72.075 551.700 72.075 H 554.500 C 554.600 72.075 554.500 71.975 554.500 72.075 V 74.975 Z" stroke="rgb(0,0,255)" stroke-width="0.20" />
  <path d="M 554.500 62.975 V 65.875 C 554.500 65.975 554.600 65.875 554.500 65.875 H 551.700 C 551.600 65.875 551.700 65.975 551.700 65.875 V 60.075 C 551.700 59.975 551.600 60.075 551.700 60.075 H 554.500 C 554.600 60.075 554.500 59.975 554.500 60.075 V 62.975 Z" stroke="rgb(0,0,255)" stroke-width="0.20" />
  <path d="M 554.500 50.975 V 53.875 C 554.500 53.975 554.600 53.875 554.500 53.875 H 551.700 C 551.600 53.875 551.700 53.975 551.700 53.875 V 48.075 C 551.700 47.975 551.600 48.075 551.700 48.075 H 554.500 C 554.600 48.075 554.500 47.975 554.500 48.075 V 50.975 Z" stroke="rgb(0,0,255)" stroke-width="0.20" />
  <path d="M 554.500 38.975 V 41.875 C 554.500 41.975 554.600 41.875 554.500 41.875 H 551.700 C 551.600 41.875 551.700 41.975 551.700 41.875 V 36.075 C 551.700 35.975 551.600 36.075 551.700 36.075 H 554.500 C 554.600 36.075 554.500 35.975 554.500 36.075 V 38.975 Z" stroke="rgb(0,0,255)" stroke-width="0.20" />
  <path d="M 551.600 108.500 H 651.600 H 654.600 C 654.655 108.500 654.700 108.455 654.700 108.400 V 11.700 C 654.700 11.645 654.655 11.600 654.600 11.600 H 651.600 H 551.600 H 548.600 C 548.545 11.600 548.500 11.645 548.500 11.700 V 108.400 C 548.500 108.455 548.545 108.500 548.600 108.500 H 551.600 Z" stroke="rgb(0,0,0)" stroke-width="0.20" />
  <path d="M 645.600 21.000 V 25.400 C 645.600 25.500 645.700 25.400 645.600 25.400 H 642.800 C 642.700 25.400 642.800 25.500 642.800 25.400 V 22.650 C 642.800 22.595 642.755 22.550 642.700 22.550 H 636.700 C 636.645 22.550 636.600 22.595 636.600 22.650 V 25.400 C 636.600 25.500 636.700 25.400 636.600 25.400 H 633.800 C 633.700 25.400 633.800 25.500 633.800 25.400 V 16.600 C 633.800 16.500 633.700 16.600 633.800 16.600 H 636.600 C 636.700 16.600 636.600 16.500 636.600 16.600 V 19.350 C 636.600 19.405 636.645 19.450 636.700 19.450 H 642.700 C 642.755 19.450 642.800 19.405 642.800 19.350 V 16.600 C 642.800 16.500 642.700 16.600 642.800 16.600 H 645.600 C 645.700 16.600 645.600 16.500 645.600 16.600 V 21.000 Z" stroke="rgb(0,0,255)" stroke-width="0.20" />
  <path d="M 648.700 39.275 V 36.375 C 648.700 36.275 648.600 36.375 648.700 36.375 H 651.500 C 651.600 36.375 651.500 36.275 651.500 36.375 V 42.175 C 651.500 42.275 651.600 42.175 651.500 42.175 H 648.700 C 648.600 42.175 648.700 42.275 648.700 42.175 V 39.275 Z" stroke="rgb(0,0,255)" stroke-width="0.20" />
  <path d="M 648.700 51.275 V 48.375 C 648.700 48.275 648.600 48.375 648.700 48.375 H 651.500 C 651.600 48.375 651.500 48.275 651.500 48.375 V 54.175 C 651.500 54.275 651.600 54.175 651.500 54.175 H 648.700 C 648.600 54.175 648.700 54.275 648.700 54.175 V 51.275 Z" stroke="rgb(0,0,255)" stroke-width="0.20" />
  <path d="M 648.700 63.275 V 60.375 C 648.700 60.275 648.600 60.375 648.700 60.375 H 651.500 C 651.600 60.375 651.500 60.275 651.500 60.375 V 66.175 C 651.500 66.275 651.600 66.175 651.500 66.175 H 648.700 C 648.600 66.175 648.700 66.275 648.700 66.175 V 63.275 Z" stroke="rgb(0,0,255)" stroke-width="0.20" />
  <path d="M 648.700 75.275 V 72.375 C 648.700 72.275 648.600 72.375 648.700 72.375 H 651.500 C 651.600 72.375 651.500 72.275 651.500 72.375 V 78.175 C 651.500 78.275 651.600 78.175 651.500 78.175 H 648.700 C 648.600 78.175 648.700 78.275 648.700 78.175 V 75.275 Z" stroke="rgb(0,0,255)" stroke-width="0.20" />
  <path d="M 648.700 87.275 V 84.375 C 648.700 84.275 648.600 84.375 648.700 84.375 H 651.500 C 651.600 84.375 651.500 84.275 651.500 84.375 V 90.175 C 651.500 90.275 651.600 90.175 651.500 90.175 H 648.700 C 648.600 90.175 648.700 90.275 648.700 90.175 V 87.275 Z" stroke="rgb(0,0,255)" stroke-width="0.20" />
  <path d="M 648.700 99.275 V 96.375 C 648.700 96.275 648.600 96.375 648.700 96.375 H 651.500 C 651.600 96.375 651.500 96.275 651.500 96.375 V 102.175 C 651.500 102.275 651.600 102.175 651.500 102.175 H 648.700 C 648.600 102.175 648.700 102.275 648.700 102.175 V 99.275 Z" stroke="rgb(0,0,255)" stroke-width="0.20" />
  <path d="M 557.600 20.700 V 16.300 C 557.600 16.200 557.500 16.300 557.600 16.300 H 560.400 C 560.500 16.300 560.400 16.200 560.400 16.300 V 19.050 C 560.400 19.105 560.445 19.150 560.500 19.150 H 566.500 C 566.555 19.150 566.600 19.105 566.600 19.050 V 16.300 C 566.600 16.200 566.500 16.300 566.600 16.300 H 569.400 C 569.500 16.300 569.400 16.200 569.400 16.300 V 25.100 C 569.400 25.200 569.500 25.100 569.400 25.100 H 566.600 C 566.500 25.100 566.600 25.200 566.600 25.100 V 22.350 C 566.600 22.295 566.555 22.250 566.500 22.250 H 560.500 C 560.445 22.250 560.400 22.295 560.400 22.350 V 25.100 C 560.400 25.200 560.500 25.100 560.400 25.100 H 557.600 C 557.500 25.100 557.600 25.200 557.600 25.100 V 20.700 Z" stroke="rgb(0,0,255)" stroke-width="0.20" />
</g>
<g id="p-9" style="fill:none;stroke-linecap:round;stroke-linejoin:round;">
  <path d="M 659.300 125.200 H 665.300 C 665.355 125.200 665.400 125.155 665.400 125.100 V 122.100 V 43.250 V 40.250 C 665.400 40.195 665.355 40.150 665.300 40.150 H 659.300 C 659.245 40.150 659.200 40.195 659.200 40.250 V 43.250 V 49.575 C 659.200 49.675 659.300 49.575 659.200 49.575 H 656.300 C 656.245 49.575 656.200 49.620 656.200 49.675 V 55.675 C 656.200 55.730 656.245 55.775 656.300 55.775 H 659.200 C 659.300 55.775 659.200 55.675 659.200 55.775 V 61.575 C 659.200 61.675 659.300 61.575 659.200 61.575 H 656.300 C 656.245 61.575 656.200 61.620 656.200 61.675 V 67.675 C 656.200 67.730 656.245 67.775 656.300 67.775 H 659.200 C 659.300 67.775 659.200 67.675 659.200 67.775 V 73.575 C 659.200 73.675 659.300 73.575 659.200 73.575 H 656.300 C 656.245 73.575 656.200 73.620 656.200 73.675 V 79.675 C 656.200 79.730 656.245 79.775 656.300 79.775 H 659.200 C 659.300 79.775 659.200 79.675 659.200 79.775 V 85.575 C 659.200 85.675 659.300 85.575 659.200 85.575 H 656.300 C 656.245 85.575 656.200 85.620 656.200 85.675 V 91.675 C 656.200 91.730 656.245 91.775 656.300 91.775 H 659.200 C 659.300 91.775 659.200 91.675 659.200 91.775 V 97.575 C 659.200 97.675 659.300 97.575 659.200 97.575 H 656.300 C 656.245 97.575 656.200 97.620 656.200 97.675 V 103.675 C 656.200 103.730 656.245 103.775 656.300 103.775 H 659.200 C 659.300 103.775 659.200 103.675 659.200 103.775 V 109.575 C 659.200 109.675 659.300 109.575 659.200 109.575 H 656.300 C 656.245 109.575 656.200 109.620 656.200 109.675 V 115.675 C 656.200 115.730 656.245 115.775 656.300 115.775 H 659.200 C 659.300 115.775 659.200 115.675 659.200 115.775 V 122.100 V 125.100 C 659.200 125.155 659.245 125.200 659.300 125.200 Z" stroke="rgb(0,0,0)" stroke-width="0.20" />
</g>
<g id="p-10" style="fill:none;stroke-linecap:round;stroke-linejoin:round;">
  <path d="M 670.000 125.200 H 676.000 C 676.055 125.200 676.100 125.155 676.100 125.100 V 122.100 V 43.250 V 40.250 C 676.100 40.195 676.055 40.150 676.000 40.150 H 670.000 C 669.945 40.150 669.900 40.195 669.900 40.250 V 43.250 V 49.575 C 669.900 49.675 670.000 49.575 669.900 49.575 H 667.000 C 666.945 49.575 666.900 49.620 666.900 49.675 V 55.675 C 666.900 55.730 666.945 55.775 667.000 55.775 H 669.900 C 670.000 55.775 669.900 55.675 669.900 55.775 V 61.575 C 669.900 61.675 670.000 61.575 669.900 61.575 H 667.000 C 666.945 61.575 666.900 61.620 666.900 61.675 V 67.675 C 666.900 67.730 666.945 67.775 667.000 67.775 H 669.900 C 670.000 67.775 669.900 67.675 669.900 67.775 V 73.575 C 669.900 73.675 670.000 73.575 669.900 73.575 H 667.000 C 666.945 73.575 666.900 73.620 666.900 73.675 V 79.675 C 666.900 79.730 666.945 79.775 667.000 79.775 H 669.900 C 670.000 79.775 669.900 79.675 669.900 79.775 V 85.575 C 669.900 85.675 670.000 85.575 669.900 85.575 H 667.000 C 666.945 85.575 666.900 85.620 666.900 85.675 V 91.675 C 666.900 91.730 666.945 91.775 667.000 91.775 H 669.900 C 670.000 91.775 669.900 91.675 669.900 91.775 V 97.575 C 669.900 97.675 670.000 97.575 669.900 97.575 H 667.000 C 666.945 97.575 666.900 97.620 666.900 97.675 V 103.675 C 666.900 103.730 666.945 103.775 667.000 103.775 H 669.900 C 670.000 103.775 669.900 103.675 669.900 103.775 V 109.575 C 669.900 109.675 670.000 109.575 669.900 109.575 H 667.000 C 666.945 109.575 666.900 109.620 666.900 109.675 V 115.675 C 666.900 115.730 666.945 115.775 667.000 115.775 H 669.900 C 670.000 115.775 669.900 115.675 669.900 115.775 V 122.100 V 125.100 C 669.900 125.155 669.945 125.200 670.000 125.200 Z" stroke="rgb(0,0,0)" stroke-width="0.20" />
</g>
<g id="p-11" style="fill:none;stroke-linecap:round;stroke-linejoin:round;">
  <path d="M 680.700 125.200 H 686.700 C 686.755 125.200 686.800 125.155 686.800 125.100 V 122.100 V 43.250 V 40.250 C 686.800 40.195 686.755 40.150 686.700 40.150 H 680.700 C 680.645 40.150 680.600 40.195 680.600 40.250 V 43.250 V 49.575 C 680.600 49.675 680.700 49.575 680.600 49.575 H 677.700 C 677.645 49.575 677.600 49.620 677.600 49.675 V 55.675 C 677.600 55.730 677.645 55.775 677.700 55.775 H 680.600 C 680.700 55.775 680.600 55.675 680.600 55.775 V 61.575 C 680.600 61.675 680.700 61.575 680.600 61.575 H 677.700 C 677.645 61.575 677.600 61.620 677.600 61.675 V 67.675 C 677.600 67.730 677.645 67.775 677.700 67.775 H 680.600 C 680.700 67.775 680.600 67.675 680.600 67.775 V 73.575 C 680.600 73.675 680.700 73.575 680.600 73.575 H 677.700 C 677.645 73.575 677.600 73.620 677.600 73.675 V 79.675 C 677.600 79.730 677.645 79.775 677.700 79.775 H 680.600 C 680.700 79.775 680.600 79.675 680.600 79.775 V 85.575 C 680.600 85.675 680.700 85.575 680.600 85.575 H 677.700 C 677.645 85.575 677.600 85.620 677.600 85.675 V 91.675 C 677.600 91.730 677.645 91.775 677.700 91.775 H 680.600 C 680.700 91.775 680.600 91.675 680.600 91.775 V 97.575 C 680.600 97.675 680.700 97.575 680.600 97.575 H 677.700 C 677.645 97.575 677.600 97.620 677.600 97.675 V 103.675 C 677.600 103.730 677.645 103.775 677.700 103.775 H 680.600 C 680.700 103.775 680.600 103.675 680.600 103.775 V 109.575 C 680.600 109.675 680.700 109.575 680.600 109.575 H 677.700 C 677.645 109.575 677.600 109.620 677.600 109.675 V 115.675 C 677.600 115.730 677.645 115.775 677.700 115.775 H 680.600 C 680.700 115.775 680.600 115.675 680.600 115.775 V 122.100 V 125.100 C 680.600 125.155 680.645 125.200 680.700 125.200 Z" stroke="rgb(0,0,0)" stroke-width="0.20" />
</g>
<g id="p-12" style="fill:none;stroke-linecap:round;stroke-linejoin:round;">
  <path d="M 691.400 125.200 H 697.400 C 697.455 125.200 697.500 125.155 697.500 125.100 V 122.100 V 43.250 V 40.250 C 697.500 40.195 697.455 40.150 697.400 40.150 H 691.400 C 691.345 40.150 691.300 40.195 691.300 40.250 V 43.250 V 49.575 C 691.300 49.675 691.400 49.575 691.300 49.575 H 688.400 C 688.345 49.575 688.300 49.620 688.300 49.675 V 55.675 C 688.300 55.730 688.345 55.775 688.400 55.775 H 691.300 C 691.400 55.775 691.300 55.675 691.300 55.775 V 61.575 C 691.300 61.675 691.400 61.575 691.300 61.575 H 688.400 C 688.345 61.575 688.300 61.620 688.300 61.675 V 67.675 C 688.300 67.730 688.345 67.775 688.400 67.775 H 691.300 C 691.400 67.775 691.300 67.675 691.300 67.775 V 73.575 C 691.300 73.675 691.400 73.575 691.300 73.575 H 688.400 C 688.345 73.575 688.300 73.620 688.300 73.675 V 79.675 C 688.300 79.730 688.345 79.775 688.400 79.775 H 691.300 C 691.400 79.775 691.300 79.675 691.300 79.775 V 85.575 C 691.300 85.675 691.400 85.575 691.300 85.575 H 688.400 C 688.345 85.575 688.300 85.620 688.300 85.675 V 91.675 C 688.300 91.730 688.345 91.775 688.400 91.775 H 691.300 C 691.400 91.775 691.300 91.675 691.300 91.775 V 97.575 C 691.300 97.675 691.400 97.575 691.300 97.575 H 688.400 C 688.345 97.575 688.300 97.620 688.300 97.675 V 103.675 C 688.300 103.730 688.345 103.775 688.400 103.775 H 691.300 C 691.400 103.775 691.300 103.675 691.300 103.775 V 109.575 C 691.300 109.675 691.400 109.575 691.300 109.575 H 688.400 C 688.345 109.575 688.300 109.620 688.300 109.675 V 115.675 C 688.300 115.730 688.345 115.775 688.400 115.775 H 691.300 C 691.400 115.775 691.300 115.675 691.300 115.775 V 122.100 V 125.100 C 691.300 125.155 691.345 125.200 691.400 125.200 Z" stroke="rgb(0,0,0)" stroke-width="0.20" />
</g>
<g id="p-13" style="fill:none;stroke-linecap:round;stroke-linejoin:round;">
  <path d="M 699.100 121.600 H 702.000 C 702.100 121.600 702.000 121.500 702.000 121.600 V 122.100 C 702.000 122.155 702.045 122.200 702.100 122.200 H 708.000 C 708.100 122.200 708.000 122.100 708.000 122.200 V 125.100 C 708.000 125.155 708.045 125.200 708.100 125.200 H 711.100 C 711.155 125.200 711.200 125.155 711.200 125.100 V 122.200 C 711.200 122.100 711.100 122.200 711.200 122.200 H 720.100 C 720.155 122.200 720.200 122.155 720.200 122.100 V 119.200 C 720.200 119.100 720.100 119.200 720.200 119.200 H 723.100 C 723.155 119.200 723.200 119.155 723.200 119.100 V 116.100 C 723.200 116.045 723.155 116.000 723.100 116.000 H 717.100 C 717.045 116.000 717.000 116.045 717.000 116.100 V 117.493 C 717.000 117.600 717.107 117.500 717.000 117.493 L 702.443 116.475 C 702.385 116.471 702.336 116.517 702.336 116.575 V 118.075 C 702.336 118.127 702.376 118.171 702.429 118.174 L 717.093 119.200 C 717.072 119.198 717.053 119.191 717.037 119.177 C 717.021 119.164 717.009 119.147 717.004 119.127 C 716.998 119.107 716.999 119.086 717.006 119.066 C 717.013 119.047 717.025 119.030 717.042 119.018 C 717.059 119.006 717.079 119.000 717.100 119.000 H 702.200 C 702.100 119.000 702.200 119.100 702.200 119.000 V 116.100 C 702.200 116.045 702.155 116.000 702.100 116.000 H 699.100 C 699.045 116.000 699.000 116.045 699.000 116.100 V 121.500 C 699.000 121.555 699.045 121.600 699.100 121.600 Z" stroke="rgb(0,0,0)" stroke-width="0.20" />
</g>
<g id="p-14" style="fill:none;stroke-linecap:round;stroke-linejoin:round;">
  <path d="M 724.800 121.600 H 727.700 C 727.800 121.600 727.700 121.500 727.700 121.600 V 122.100 C 727.700 122.155 727.745 122.200 727.800 122.200 H 733.700 C 733.800 122.200 733.700 122.100 733.700 122.200 V 125.100 C 733.700 125.155 733.745 125.200 733.800 125.200 H 736.800 C 736.855 125.200 736.900 125.155 736.900 125.100 V 122.200 C 736.900 122.100 736.800 122.200 736.900 122.200 H 745.800 C 745.855 122.200 745.900 122.155 745.900 122.100 V 119.200 C 745.900 119.100 745.800 119.200 745.900 119.200 H 748.800 C 748.855 119.200 748.900 119.155 748.900 119.100 V 116.100 C 748.900 116.045 748.855 116.000 748.800 116.000 H 742.800 C 742.745 116.000 742.700 116.045 742.700 116.100 V 117.493 C 742.700 117.600 742.807 117.500 742.700 117.493 L 728.143 116.475 C 728.085 116.471 728.036 116.517 728.036 116.575 V 118.075 C 728.036 118.127 728.076 118.171 728.129 118.174 L 742.793 119.200 C 742.772 119.198 742.753 119.191 742.737 119.177 C 742.721 119.164 742.709 119.147 742.704 119.127 C 742.698 119.107 742.699 119.086 742.706 119.066 C 742.713 119.047 742.725 119.030 742.742 119.018 C 742.759 119.006 742.779 119.000 742.800 119.000 H 727.900 C 727.800 119.000 727.900 119.100 727.900 119.000 V 116.100 C 727.900 116.045 727.855 116.000 727.800 116.000 H 724.800 C 724.745 116.000 724.700 116.045 724.700 116.100 V 121.500 C 724.700 121.555 724.745 121.600 724.800 121.600 Z" stroke="rgb(0,0,0)" stroke-width="0.20" />
</g>
<g id="p-15" style="fill:none;stroke-linecap:round;stroke-linejoin:round;">
  <path d="M 699.100 110.900 H 702.000 C 702.100 110.900 702.000 110.800 702.000 110.900 V 111.400 C 702.000 111.455 702.045 111.500 702.100 111.500 H 708.000 C 708.100 111.500 708.000 111.400 708.000 111.500 V 114.400 C 708.000 114.455 708.045 114.500 708.100 114.500 H 711.100 C 711.155 114.500 711.200 114.455 711.200 114.400 V 111.500 C 711.200 111.400 711.100 111.500 711.200 111.500 H 720.100 C 720.155 111.500 720.200 111.455 720.200 111.400 V 108.500 C 720.200 108.400 720.100 108.500 720.200 108.500 H 723.100 C 723.155 108.500 723.200 108.455 723.200 108.400 V 105.400 C 723.200 105.345 723.155 105.300 723.100 105.300 H 717.100 C 717.045 105.300 717.000 105.345 717.000 105.400 V 106.793 C 717.000 106.900 717.107 106.800 717.000 106.793 L 702.443 105.775 C 702.385 105.771 702.336 105.817 702.336 105.875 V 107.375 C 702.336 107.427 702.376 107.471 702.429 107.474 L 717.093 108.500 C 717.072 108.498 717.053 108.491 717.037 108.477 C 717.021 108.464 717.009 108.447 717.004 108.427 C 716.998 108.407 716.999 108.386 717.006 108.366 C 717.013 108.347 717.025 108.330 717.042 108.318 C 717.059 108.306 717.079 108.300 717.100 108.300 H 702.200 C 702.100 108.300 702.200 108.400 702.200 108.300 V 105.400 C 702.200 105.345 702.155 105.300 702.100 105.300 H 699.100 C 699.045 105.300 699.000 105.345 699.000 105.400 V 110.800 C 699.000 110.855 699.045 110.900 699.100 110.900 Z" stroke="rgb(0,0,0)" stroke-width="0.20" />
</g>
<g id="p-16" style="fill:none;stroke-linecap:round;stroke-linejoin:round;">
  <path d="M 724.800 110.900 H 727.700 C 727.800 110.900 727.700 110.800 727.700 110.900 V 111.400 C 727.700 111.455 727.745 111.500 727.800 111.500 H 733.700 C 733.800 111.500 733.700 111.400 733.700 111.500 V 114.400 C 733.700 114.455 733.745 114.500 733.800 114.500 H 736.800 C 736.855 114.500 736.900 114.455 736.900 114.400 V 111.500 C 736.900 111.400 736.800 111.500 736.900 111.500 H 745.800 C 745.855 111.500 745.900 111.455 745.900 111.400 V 108.500 C 745.900 108.400 745.800 108.500 745.900 108.500 H 748.800 C 748.855 108.500 748.900 108.455 748.900 108.400 V 105.400 C 748.900 105.345 748.855 105.300 748.800 105.300 H 742.800 C 742.745 105.300 742.700 105.345 742.700 105.400 V 106.793 C 742.700 106.900 742.807 106.800 742.700 106.793 L 728.143 105.775 C 728.085 105.771 728.036 105.817 728.036 105.875 V 107.375 C 728.036 107.427 728.076 107.471 728.129 107.474 L 742.793 108.500 C 742.772 108.498 742.753 108.491 742.737 108.477 C 742.721 108.464 742.709 108.447 742.704 108.427 C 742.698 108.407 742.699 108.386 742.706 108.366 C 742.713 108.347 742.725 108.330 742.742 108.318 C 742.759 108.306 742.779 108.300 742.800 108.300 H 727.900 C 727.800 108.300 727.900 108.400 727.900 108.300 V 105.400 C 727.900 105.345 727.855 105.300 727.800 105.300 H 724.800 C 724.745 105.300 724.700 105.345 724.700 105.400 V 110.800 C 724.700 110.855 724.745 110.900 724.800 110.900 Z" stroke="rgb(0,0,0)" stroke-width="0.20" />
</g>
<g id="p-17" style="fill:none;stroke-linecap:round;stroke-linejoin:round;">
  <path d="M 700.600 103.800 H 703.450 C 703.505 103.800 703.550 103.755 703.550 103.700 V 96.150 C 703.550 96.050 703.450 96.150 703.550 96.150 H 706.650 C 706.750 96.150 706.650 96.050 706.650 96.150 V 103.700 C 706.650 103.755 706.695 103.800 706.750 103.800 H 709.600 C 709.655 103.800 709.700 103.755 709.700 103.700 V 100.800 C 709.700 100.700 709.600 100.800 709.700 100.800 H 711.100 C 711.155 100.800 711.200 100.755 711.200 100.700 V 94.700 C 711.200 94.673 711.189 94.648 711.171 94.629 L 708.171 91.629 C 708.152 91.611 708.127 91.600 708.100 91.600 H 702.100 C 702.073 91.600 702.048 91.611 702.029 91.629 L 699.029 94.629 C 699.011 94.648 699.000 94.673 699.000 94.700 V 100.700 C 699.000 100.755 699.045 100.800 699.100 100.800 H 700.500 C 700.600 100.800 700.500 100.700 700.500 100.800 V 103.700 C 700.500 103.755 700.545 103.800 700.600 103.800 Z" stroke="rgb(0,0,0)" stroke-width="0.20" />
</g>
<g id="p-18" style="fill:none;stroke-linecap:round;stroke-linejoin:round;">
  <path d="M 714.300 103.800 H 717.150 C 717.205 103.800 717.250 103.755 717.250 103.700 V 96.150 C 717.250 96.050 717.150 96.150 717.250 96.150 H 720.350 C 720.450 96.150 720.350 96.050 720.350 96.150 V 103.700 C 720.350 103.755 720.395 103.800 720.450 103.800 H 723.300 C 723.355 103.800 723.400 103.755 723.400 103.700 V 100.800 C 723.400 100.700 723.300 100.800 723.400 100.800 H 724.800 C 724.855 100.800 724.900 100.755 724.900 100.700 V 94.700 C 724.900 94.673 724.889 94.648 724.871 94.629 L 721.871 91.629 C 721.852 91.611 721.827 91.600 721.800 91.600 H 715.800 C 715.773 91.600 715.748 91.611 715.729 91.629 L 712.729 94.629 C 712.711 94.648 712.700 94.673 712.700 94.700 V 100.700 C 712.700 100.755 712.745 100.800 712.800 100.800 H 714.200 C 714.300 100.800 714.200 100.700 714.200 100.800 V 103.700 C 714.200 103.755 714.245 103.800 714.300 103.800 Z" stroke="rgb(0,0,0)" stroke-width="0.20" />
</g>
<g id="p-19" style="fill:none;stroke-linecap:round;stroke-linejoin:round;">
  <path d="M 700.600 90.100 H 703.450 C 703.505 90.100 703.550 90.055 703.550 90.000 V 82.450 C 703.550 82.350 703.450 82.450 703.550 82.450 H 706.650 C 706.750 82.450 706.650 82.350 706.650 82.450 V 90.000 C 706.650 90.055 706.695 90.100 706.750 90.100 H 709.600 C 709.655 90.100 709.700 90.055 709.700 90.000 V 87.100 C 709.700 87.000 709.600 87.100 709.700 87.100 H 711.100 C 711.155 87.100 711.200 87.055 711.200 87.000 V 81.000 C 711.200 80.973 711.189 80.948 711.171 80.929 L 708.171 77.929 C 708.152 77.911 708.127 77.900 708.100 77.900 H 702.100 C 702.073 77.900 702.048 77.911 702.029 77.929 L 699.029 80.929 C 699.011 80.948 699.000 80.973 699.000 81.000 V 87.000 C 699.000 87.055 699.045 87.100 699.100 87.100 H 700.500 C 700.600 87.100 700.500 87.000 700.500 87.100 V 90.000 C 700.500 90.055 700.545 90.100 700.600 90.100 Z" stroke="rgb(0,0,0)" stroke-width="0.20" />
</g>
<g id="p-20" style="fill:none;stroke-linecap:round;stroke-linejoin:round;">
  <path d="M 714.300 90.100 H 717.150 C 717.205 90.100 717.250 90.055 717.250 90.000 V 82.450 C 717.250 82.350 717.150 82.450 717.250 82.450 H 720.350 C 720.450 82.450 720.350 82.350 720.350 82.450 V 90.000 C 720.350 90.055 720.395 90.100 720.450 90.100 H 723.300 C 723.355 90.100 723.400 90.055 723.400 90.000 V 87.100 C 723.400 87.000 723.300 87.100 723.400 87.100 H 724.800 C 724.855 87.100 724.900 87.055 724.900 87.000 V 81.000 C 724.900 80.973 724.889 80.948 724.871 80.929 L 721.871 77.929 C 721.852 77.911 721.827 77.900 721.800 77.900 H 715.800 C 715.773 77.900 715.748 77.911 715.729 77.929 L 712.729 80.929 C 712.711 80.948 712.700 80.973 712.700 81.000 V 87.000 C 712.700 87.055 712.745 87.100 712.800 87.100 H 714.200 C 714.300 87.100 714.200 87.000 714.200 87.100 V 90.000 C 714.200 90.055 714.245 90.100 714.300 90.100 Z" stroke="rgb(0,0,0)" stroke-width="0.20" />
</g>
<g id="p-21" style="fill:none;stroke-linecap:round;stroke-linejoin:round;">
  <path d="M 700.600 76.400 H 703.450 C 703.505 76.400 703.550 76.355 703.550 76.300 V 68.750 C 703.550 68.650 703.450 68.750 703.550 68.750 H 706.650 C 706.750 68.750 706.650 68.650 706.650 68.750 V 76.300 C 706.650 76.355 706.695 76.400 706.750 76.400 H 709.600 C 709.655 76.400 709.700 76.355 709.700 76.300 V 73.400 C 709.700 73.300 709.600 73.400 709.700 73.400 H 711.100 C 711.155 73.400 711.200 73.355 711.200 73.300 V 67.300 C 711.200 67.273 711.189 67.248 711.171 67.229 L 708.171 64.229 C 708.152 64.211 708.127 64.200 708.100 64.200 H 702.100 C 702.073 64.200 702.048 64.211 702.029 64.229 L 699.029 67.229 C 699.011 67.248 699.000 67.273 699.000 67.300 V 73.300 C 699.000 73.355 699.045 73.400 699.100 73.400 H 700.500 C 700.600 73.400 700.500 73.300 700.500 73.400 V 76.300 C 700.500 76.355 700.545 76.400 700.600 76.400 Z" stroke="rgb(0,0,0)" stroke-width="0.20" />
</g>
<g id="p-22" style="fill:none;stroke-linecap:round;stroke-linejoin:round;">
  <path d="M 714.300 76.400 H 717.150 C 717.205 76.400 717.250 76.355 717.250 76.300 V 68.750 C 717.250 68.650 717.150 68.750 717.250 68.750 H 720.350 C 720.450 68.750 720.350 68.650 720.350 68.750 V 76.300 C 720.350 76.355 720.395 76.400 720.450 76.400 H 723.300 C 723.355 76.400 723.400 76.355 723.400 76.300 V 73.400 C 723.400 73.300 723.300 73.400 723.400 73.400 H 724.800 C 724.855 73.400 724.900 73.355 724.900 73.300 V 67.300 C 724.900 67.273 724.889 67.248 724.871 67.229 L 721.871 64.229 C 721.852 64.211 721.827 64.200 721.800 64.200 H 715.800 C 715.773 64.200 715.748 64.211 715.729 64.229 L 712.729 67.229 C 712.711 67.248 712.700 67.273 712.700 67.300 V 73.300 C 712.700 73.355 712.745 73.400 712.800 73.400 H 714.200 C 714.300 73.400 714.200 73.300 714.200 73.400 V 76.300 C 714.200 76.355 714.245 76.400 714.300 76.400 Z" stroke="rgb(0,0,0)" stroke-width="0.20" />
</g>
<g id="p-23" style="fill:none;stroke-linecap:round;stroke-linejoin:round;">
  <path d="M 700.600 62.700 H 703.450 C 703.505 62.700 703.550 62.655 703.550 62.600 V 55.050 C 703.550 54.950 703.450 55.050 703.550 55.050 H 706.650 C 706.750 55.050 706.650 54.950 706.650 55.050 V 62.600 C 706.650 62.655 706.695 62.700 706.750 62.700 H 709.600 C 709.655 62.700 709.700 62.655 709.700 62.600 V 59.700 C 709.700 59.600 709.600 59.700 709.700 59.700 H 711.100 C 711.155 59.700 711.200 59.655 711.200 59.600 V 53.600 C 711.200 53.573 711.189 53.548 711.171 53.529 L 708.171 50.529 C 708.152 50.511 708.127 50.500 708.100 50.500 H 702.100 C 702.073 50.500 702.048 50.511 702.029 50.529 L 699.029 53.529 C 699.011 53.548 699.000 53.573 699.000 53.600 V 59.600 C 699.000 59.655 699.045 59.700 699.100 59.700 H 700.500 C 700.600 59.700 700.500 59.600 700.500 59.700 V 62.600 C 700.500 62.655 700.545 62.700 700.600 62.700 Z" stroke="rgb(0,0,0)" stroke-width="0.20" />
</g>
<g id="p-24" style="fill:none;stroke-linecap:round;stroke-linejoin:round;">
  <path d="M 714.300 62.700 H 717.150 C 717.205 62.700 717.250 62.655 717.250 62.600 V 55.050 C 717.250 54.950 717.150 55.050 717.250 55.050 H 720.350 C 720.450 55.050 720.350 54.950 720.350 55.050 V 62.600 C 720.350 62.655 720.395 62.700 720.450 62.700 H 723.300 C 723.355 62.700 723.400 62.655 723.400 62.600 V 59.700 C 723.400 59.600 723.300 59.700 723.400 59.700 H 724.800 C 724.855 59.700 724.900 59.655 724.900 59.600 V 53.600 C 724.900 53.573 724.889 53.548 724.871 53.529 L 721.871 50.529 C 721.852 50.511 721.827 50.500 721.800 50.500 H 715.800 C 715.773 50.500 715.748 50.511 715.729 50.529 L 712.729 53.529 C 712.711 53.548 712.700 53.573 712.700 53.600 V 59.600 C 712.700 59.655 712.745 59.700 712.800 59.700 H 714.200 C 714.300 59.700 714.200 59.600 714.200 59.700 V 62.600 C 714.200 62.655 714.245 62.700 714.300 62.700 Z" stroke="rgb(0,0,0)" stroke-width="0.20" />
</g>
</svg>