<?xml version='1.0' encoding='utf-8'?>
<svg height="184.00mm" viewBox="0.0 0.0 218.00 184.00" width="218.00mm" xmlns="http://www.w3.org/2000/svg" xmlns:cc="http://creativecommons.org/ns#" xmlns:dc="http://purl.org/dc/elements/1.1/" xmlns:inkscape="http://www.inkscape.org/namespaces/inkscape" xmlns:rdf="http://www.w3.org/1999/02/22-rdf-syntax-ns#" xmlns:svg="http://www.w3.org/2000/svg" xmlns:xlink="http://www.w3.org/1999/xlink">
<!--
SlantedTray - One row tray with high back wall and low front wall


Can be used as a display or for cards or gaming tokens. Lay on the side to get piles to draw from.
    ![Example Use](static/samples/SlantedTray-2.jpg)


Created with Boxes.py (https://festi.info/boxes.py)
Command line (remove spaces between dashes): boxes SlantedTray
-->
<title>SlantedTray</title>
<metadata>
<rdf:RDF><cc:Work>
<dc:title>Tray - SlantedTray</dc:title>
<dc:source>boxes SlantedTray</dc:source>
<dc:description>One row tray with high back wall and low front wall

Can be used as a display or for cards or gaming tokens. Lay on the side to get piles to draw from.
    ![Example Use](static/samples/SlantedTray-2.jpg)

Created with Boxes.py (https://festi.info/boxes.py)
Command line: boxes SlantedTray
Command line short: boxes SlantedTray
</dc:description>
</cc:Work></rdf:RDF></metadata>
<g id="p-0" style="fill:none;stroke-linecap:round;stroke-linejoin:round;">
  <path d="M 18.800 174.000 H 118.800 V 164.000 H 18.800 V 174.000 Z" stroke="rgb(0,0,0)" stroke-width="0.20" />
  <text dominant-baseline="hanging" font-size="8px" style="font-family: sans-serif ; font-weight: normal; font-style: normal; fill: rgb(255,0,0)" text-anchor="middle" transform="matrix( 1.000 0.000 0.000 1.000 68.800 165.000 )">100.00mm, burn:0.10mm</text>
</g>
<g id="p-1" style="fill:none;stroke-linecap:round;stroke-linejoin:round;">
  <path d="M 64.700 148.200 V 151.100 C 64.700 151.200 64.800 151.100 64.700 151.100 H 61.900 C 61.800 151.100 61.900 151.200 61.900 151.100 V 145.300 C 61.900 145.200 61.800 145.300 61.900 145.300 H 64.700 C 64.800 145.300 64.700 145.200 64.700 145.300 V 148.200 Z" stroke="rgb(0,0,255)" stroke-width="0.20" />
  <path d="M 64.700 136.200 V 139.100 C 64.700 139.200 64.800 139.100 64.700 139.100 H 61.900 C 61.800 139.100 61.900 139.200 61.900 139.100 V 133.300 C 61.900 133.200 61.800 133.300 61.900 133.300 H 64.700 C 64.800 133.300 64.700 133.200 64.700 133.300 V 136.200 Z" stroke="rgb(0,0,255)" stroke-width="0.20" />
  <path d="M 107.700 148.200 V 151.100 C 107.700 151.200 107.800 151.100 107.700 151.100 H 104.900 C 104.800 151.100 104.900 151.200 104.900 151.100 V 145.300 C 104.900 145.200 104.800 145.300 104.900 145.300 H 107.700 C 107.800 145.300 107.700 145.200 107.700 145.300 V 148.200 Z" stroke="rgb(0,0,255)" stroke-width="0.20" />
  <path d="M 107.700 136.200 V 139.100 C 107.700 139.200 107.800 139.100 107.700 139.100 H 104.900 C 104.800 139.100 104.900 139.200 104.900 139.100 V 133.300 C 104.900 133.200 104.800 133.300 104.900 133.300 H 107.700 C 107.800 133.300 107.700 133.200 107.700 133.300 V 136.200 Z" stroke="rgb(0,0,255)" stroke-width="0.20" />
  <path d="M 21.800 162.300 H 147.800 H 150.800 C 150.855 162.300 150.900 162.255 150.900 162.200 V 151.200 C 150.900 151.145 150.855 151.100 150.800 151.100 H 147.900 C 147.800 151.100 147.900 151.200 147.900 151.100 V 145.300 C 147.900 145.200 147.800 145.300 147.900 145.300 H 150.800 C 150.855 145.300 150.900 145.255 150.900 145.200 V 139.200 C 150.900 139.145 150.855 139.100 150.800 139.100 H 147.900 C 147.800 139.100 147.900 139.200 147.900 139.100 V 133.300 C 147.900 133.200 147.800 133.300 147.900 133.300 H 150.800 C 150.855 133.300 150.900 133.255 150.900 133.200 V 122.200 C 150.900 122.145 150.855 122.100 150.800 122.100 H 147.800 H 141.900 C 141.800 122.100 141.900 122.200 141.900 122.100 V 119.200 C 141.900 119.145 141.855 119.100 141.800 119.100 H 135.800 C 135.745 119.100 135.700 119.145 135.700 119.200 V 122.100 C 135.700 122.200 135.800 122.100 135.700 122.100 H 129.900 C 129.800 122.100 129.900 122.200 129.900 122.100 V 119.200 C 129.900 119.145 129.855 119.100 129.800 119.100 H 123.800 C 123.745 119.100 123.700 119.145 123.700 119.200 V 122.100 C 123.700 122.200 123.800 122.100 123.700 122.100 H 117.900 C 117.800 122.100 117.900 122.200 117.900 122.100 V 119.200 C 117.900 119.145 117.855 119.100 117.800 119.100 H 111.800 C 111.745 119.100 111.700 119.145 111.700 119.200 V 122.100 C 111.700 122.200 111.800 122.100 111.700 122.100 H 105.900 C 105.800 122.100 105.900 122.200 105.900 122.100 V 119.200 C 105.900 119.145 105.855 119.100 105.800 119.100 H 99.800 C 99.745 119.100 99.700 119.145 99.700 119.200 V 122.100 C 99.700 122.200 99.800 122.100 99.700 122.100 H 93.900 C 93.800 122.100 93.900 122.200 93.900 122.100 V 119.200 C 93.900 119.145 93.855 119.100 93.800 119.100 H 87.800 C 87.745 119.100 87.700 119.145 87.700 119.200 V 122.100 C 87.700 122.200 87.800 122.100 87.700 122.100 H 81.900 C 81.800 122.100 81.900 122.200 81.900 122.100 V 119.200 C 81.900 119.145 81.855 119.100 81.800 119.100 H 75.800 C 75.745 119.100 75.700 119.145 75.700 119.200 V 122.100 C 75.700 122.200 75.800 122.100 75.700 122.100 H 69.900 C 69.800 122.100 69.900 122.200 69.900 122.100 V 119.200 C 69.900 119.145 69.855 119.100 69.800 119.100 H 63.800 C 63.745 119.100 63.700 119.145 63.700 119.200 V 122.100 C 63.700 122.200 63.800 122.100 63.700 122.100 H 57.900 C 57.800 122.100 57.900 122.200 57.900 122.100 V 119.200 C 57.900 119.145 57.855 119.100 57.800 119.100 H 51.800 C 51.745 119.100 51.700 119.145 51.700 119.200 V 122.100 C 51.700 122.200 51.800 122.100 51.700 122.100 H 45.900 C 45.800 122.100 45.900 122.200 45.900 122.100 V 119.200 C 45.900 119.145 45.855 119.100 45.800 119.100 H 39.800 C 39.745 119.100 39.700 119.145 39.700 119.200 V 122.100 C 39.700 122.200 39.800 122.100 39.700 122.100 H 33.900 C 33.800 122.100 33.900 122.200 33.900 122.100 V 119.200 C 33.900 119.145 33.855 119.100 33.800 119.100 H 27.800 C 27.745 119.100 27.700 119.145 27.700 119.200 V 122.100 C 27.700 122.200 27.800 122.100 27.700 122.100 H 21.800 H 18.800 C 18.745 122.100 18.700 122.145 18.700 122.200 V 133.200 C 18.700 133.255 18.745 133.300 18.800 133.300 H 21.700 C 21.800 133.300 21.700 133.200 21.700 133.300 V 139.100 C 21.700 139.200 21.800 139.100 21.700 139.100 H 18.800 C 18.745 139.100 18.700 139.145 18.700 139.200 V 145.200 C 18.700 145.255 18.745 145.300 18.800 145.300 H 21.700 C 21.800 145.300 21.700 145.200 21.700 145.300 V 151.100 C 21.700 151.200 21.800 151.100 21.700 151.100 H 18.800 C 18.745 151.100 18.700 151.145 18.700 151.200 V 162.200 C 18.700 162.255 18.745 162.300 18.800 162.300 H 21.800 Z" stroke="rgb(0,0,0)" stroke-width="0.20" />
</g>
<g id="p-2" style="fill:none;stroke-linecap:round;stroke-linejoin:round;">
  <path d="M 64.700 100.500 V 103.400 C 64.700 103.500 64.800 103.400 64.700 103.400 H 61.900 C 61.800 103.400 61.900 103.500 61.900 103.400 V 97.600 C 61.900 97.500 61.800 97.600 61.900 97.600 H 64.700 C 64.800 97.600 64.700 97.500 64.700 97.600 V 100.500 Z" stroke="rgb(0,0,255)" stroke-width="0.20" />
  <path d="M 64.700 88.500 V 91.400 C 64.700 91.500 64.800 91.400 64.700 91.400 H 61.900 C 61.800 91.400 61.900 91.500 61.900 91.400 V 85.600 C 61.900 85.500 61.800 85.600 61.900 85.600 H 64.700 C 64.800 85.600 64.700 85.500 64.700 85.600 V 88.500 Z" stroke="rgb(0,0,255)" stroke-width="0.20" />
  <path d="M 107.700 100.500 V 103.400 C 107.700 103.500 107.800 103.400 107.700 103.400 H 104.900 C 104.800 103.400 104.900 103.500 104.900 103.400 V 97.600 C 104.900 97.500 104.800 97.600 104.900 97.600 H 107.700 C 107.800 97.600 107.700 97.500 107.700 97.600 V 100.500 Z" stroke="rgb(0,0,255)" stroke-width="0.20" />
  <path d="M 107.700 88.500 V 91.400 C 107.700 91.500 107.800 91.400 107.700 91.400 H 104.900 C 104.800 91.400 104.900 91.500 104.900 91.400 V 85.600 C 104.900 85.500 104.800 85.600 104.900 85.600 H 107.700 C 107.800 85.600 107.700 85.500 107.700 85.600 V 88.500 Z" stroke="rgb(0,0,255)" stroke-width="0.20" />
  <path d="M 21.800 117.600 H 27.800 C 27.855 117.600 27.900 117.555 27.900 117.500 V 114.600 C 27.900 114.500 27.800 114.600 27.900 114.600 H 33.700 C 33.800 114.600 33.700 114.500 33.700 114.600 V 117.500 C 33.700 117.555 33.745 117.600 33.800 117.600 H 39.800 C 39.855 117.600 39.900 117.555 39.900 117.500 V 114.600 C 39.900 114.500 39.800 114.600 39.900 114.600 H 45.700 C 45.800 114.600 45.700 114.500 45.700 114.600 V 117.500 C 45.700 117.555 45.745 117.600 45.800 117.600 H 51.800 C 51.855 117.600 51.900 117.555 51.900 117.500 V 114.600 C 51.900 114.500 51.800 114.600 51.900 114.600 H 57.700 C 57.800 114.600 57.700 114.500 57.700 114.600 V 117.500 C 57.700 117.555 57.745 117.600 57.800 117.600 H 63.800 C 63.855 117.600 63.900 117.555 63.900 117.500 V 114.600 C 63.900 114.500 63.800 114.600 63.900 114.600 H 69.700 C 69.800 114.600 69.700 114.500 69.700 114.600 V 117.500 C 69.700 117.555 69.745 117.600 69.800 117.600 H 75.800 C 75.855 117.600 75.900 117.555 75.900 117.500 V 114.600 C 75.900 114.500 75.800 114.600 75.900 114.600 H 81.700 C 81.800 114.600 81.700 114.500 81.700 114.600 V 117.500 C 81.700 117.555 81.745 117.600 81.800 117.600 H 87.800 C 87.855 117.600 87.900 117.555 87.900 117.500 V 114.600 C 87.900 114.500 87.800 114.600 87.900 114.600 H 93.700 C 93.800 114.600 93.700 114.500 93.700 114.600 V 117.500 C 93.700 117.555 93.745 117.600 93.800 117.600 H 99.800 C 99.855 117.600 99.900 117.555 99.900 117.500 V 114.600 C 99.900 114.500 99.800 114.600 99.900 114.600 H 105.700 C 105.800 114.600 105.700 114.500 105.700 114.600 V 117.500 C 105.700 117.555 105.745 117.600 105.800 117.600 H 111.800 C 111.855 117.600 111.900 117.555 111.900 117.500 V 114.600 C 111.900 114.500 111.800 114.600 111.900 114.600 H 117.700 C 117.800 114.600 117.700 114.500 117.700 114.600 V 117.500 C 117.700 117.555 117.745 117.600 117.800 117.600 H 123.800 C 123.855 117.600 123.900 117.555 123.900 117.500 V 114.600 C 123.900 114.500 123.800 114.600 123.900 114.600 H 129.700 C 129.800 114.600 129.700 114.500 129.700 114.600 V 117.500 C 129.700 117.555 129.745 117.600 129.800 117.600 H 135.800 C 135.855 117.600 135.900 117.555 135.900 117.500 V 114.600 C 135.900 114.500 135.800 114.600 135.900 114.600 H 141.700 C 141.800 114.600 141.700 114.500 141.700 114.600 V 117.500 C 141.700 117.555 141.745 117.600 141.800 117.600 H 147.800 H 150.800 C 150.855 117.600 150.900 117.555 150.900 117.500 V 114.500 V 103.500 C 150.900 103.445 150.855 103.400 150.800 103.400 H 147.900 C 147.800 103.400 147.900 103.500 147.900 103.400 V 97.600 C 147.900 97.500 147.800 97.600 147.900 97.600 H 150.800 C 150.855 97.600 150.900 97.555 150.900 97.500 V 91.500 C 150.900 91.445 150.855 91.400 150.800 91.400 H 147.900 C 147.800 91.400 147.900 91.500 147.900 91.400 V 85.600 C 147.900 85.500 147.800 85.600 147.900 85.600 H 150.800 C 150.855 85.600 150.900 85.555 150.900 85.500 V 74.500 C 150.900 74.445 150.855 74.400 150.800 74.400 H 147.800 H 141.900 C 141.800 74.400 141.900 74.500 141.900 74.400 V 71.500 C 141.900 71.445 141.855 71.400 141.800 71.400 H 135.800 C 135.745 71.400 135.700 71.445 135.700 71.500 V 74.400 C 135.700 74.500 135.800 74.400 135.700 74.400 H 129.900 C 129.800 74.400 129.900 74.500 129.900 74.400 V 71.500 C 129.900 71.445 129.855 71.400 129.800 71.400 H 123.800 C 123.745 71.400 123.700 71.445 123.700 71.500 V 74.400 C 123.700 74.500 123.800 74.400 123.700 74.400 H 117.900 C 117.800 74.400 117.900 74.500 117.900 74.400 V 71.500 C 117.900 71.445 117.855 71.400 117.800 71.400 H 111.800 C 111.745 71.400 111.700 71.445 111.700 71.500 V 74.400 C 111.700 74.500 111.800 74.400 111.700 74.400 H 105.900 C 105.800 74.400 105.900 74.500 105.900 74.400 V 71.500 C 105.900 71.445 105.855 71.400 105.800 71.400 H 99.800 C 99.745 71.400 99.700 71.445 99.700 71.500 V 74.400 C 99.700 74.500 99.800 74.400 99.700 74.400 H 93.900 C 93.800 74.400 93.900 74.500 93.900 74.400 V 71.500 C 93.900 71.445 93.855 71.400 93.800 71.400 H 87.800 C 87.745 71.400 87.700 71.445 87.700 71.500 V 74.400 C 87.700 74.500 87.800 74.400 87.700 74.400 H 81.900 C 81.800 74.400 81.900 74.500 81.900 74.400 V 71.500 C 81.900 71.445 81.855 71.400 81.800 71.400 H 75.800 C 75.745 71.400 75.700 71.445 75.700 71.500 V 74.400 C 75.700 74.500 75.800 74.400 75.700 74.400 H 69.900 C 69.800 74.400 69.900 74.500 69.900 74.400 V 71.500 C 69.900 71.445 69.855 71.400 69.800 71.400 H 63.800 C 63.745 71.400 63.700 71.445 63.700 71.500 V 74.400 C 63.700 74.500 63.800 74.400 63.700 74.400 H 57.900 C 57.800 74.400 57.900 74.500 57.900 74.400 V 71.500 C 57.900 71.445 57.855 71.400 57.800 71.400 H 51.800 C 51.745 71.400 51.700 71.445 51.700 71.500 V 74.400 C 51.700 74.500 51.800 74.400 51.700 74.400 H 45.900 C 45.800 74.400 45.900 74.500 45.900 74.400 V 71.500 C 45.900 71.445 45.855 71.400 45.800 71.400 H 39.800 C 39.745 71.400 39.700 71.445 39.700 71.500 V 74.400 C 39.700 74.500 39.800 74.400 39.700 74.400 H 33.900 C 33.800 74.400 33.900 74.500 33.900 74.400 V 71.500 C 33.900 71.445 33.855 71.400 33.800 71.400 H 27.800 C 27.745 71.400 27.700 71.445 27.700 71.500 V 74.400 C 27.700 74.500 27.800 74.400 27.700 74.400 H 21.800 H 18.800 C 18.745 74.400 18.700 74.445 18.700 74.500 V 85.500 C 18.700 85.555 18.745 85.600 18.800 85.600 H 21.700 C 21.800 85.600 21.700 85.500 21.700 85.600 V 91.400 C 21.700 91.500 21.800 91.400 21.700 91.400 H 18.800 C 18.745 91.400 18.700 91.445 18.700 91.500 V 97.500 C 18.700 97.555 18.745 97.600 18.800 97.600 H 21.700 C 21.800 97.600 21.700 97.500 21.700 97.600 V 103.400 C 21.700 103.500 21.800 103.400 21.700 103.400 H 18.800 C 18.745 103.400 18.700 103.445 18.700 103.500 V 114.500 V 117.500 C 18.700 117.555 18.745 117.600 18.800 117.600 H 21.800 Z" stroke="rgb(0,0,0)" stroke-width="0.20" />
</g>
<g id="p-3" style="fill:none;stroke-linecap:round;stroke-linejoin:round;">
  <path d="M 64.700 60.800 V 63.700 C 64.700 63.800 64.800 63.700 64.700 63.700 H 61.900 C 61.800 63.700 61.900 63.800 61.900 63.700 V 57.900 C 61.900 57.800 61.800 57.900 61.900 57.900 H 64.700 C 64.800 57.900 64.700 57.800 64.700 57.900 V 60.800 Z" stroke="rgb(0,0,255)" stroke-width="0.20" />
  <path d="M 107.700 60.800 V 63.700 C 107.700 63.800 107.800 63.700 107.700 63.700 H 104.900 C 104.800 63.700 104.900 63.800 104.900 63.700 V 57.900 C 104.900 57.800 104.800 57.900 104.900 57.900 H 107.700 C 107.800 57.900 107.700 57.800 107.700 57.900 V 60.800 Z" stroke="rgb(0,0,255)" stroke-width="0.20" />
  <path d="M 21.800 69.900 H 27.800 C 27.855 69.900 27.900 69.855 27.900 69.800 V 66.900 C 27.900 66.800 27.800 66.900 27.900 66.900 H 33.700 C 33.800 66.900 33.700 66.800 33.700 66.900 V 69.800 C 33.700 69.855 33.745 69.900 33.800 69.900 H 39.800 C 39.855 69.900 39.900 69.855 39.900 69.800 V 66.900 C 39.900 66.800 39.800 66.900 39.900 66.900 H 45.700 C 45.800 66.900 45.700 66.800 45.700 66.900 V 69.800 C 45.700 69.855 45.745 69.900 45.800 69.900 H 51.800 C 51.855 69.900 51.900 69.855 51.900 69.800 V 66.900 C 51.900 66.800 51.800 66.900 51.900 66.900 H 57.700 C 57.800 66.900 57.700 66.800 57.700 66.900 V 69.800 C 57.700 69.855 57.745 69.900 57.800 69.900 H 63.800 C 63.855 69.900 63.900 69.855 63.900 69.800 V 66.900 C 63.900 66.800 63.800 66.900 63.900 66.900 H 69.700 C 69.800 66.900 69.700 66.800 69.700 66.900 V 69.800 C 69.700 69.855 69.745 69.900 69.800 69.900 H 75.800 C 75.855 69.900 75.900 69.855 75.900 69.800 V 66.900 C 75.900 66.800 75.800 66.900 75.900 66.900 H 81.700 C 81.800 66.900 81.700 66.800 81.700 66.900 V 69.800 C 81.700 69.855 81.745 69.900 81.800 69.900 H 87.800 C 87.855 69.900 87.900 69.855 87.900 69.800 V 66.900 C 87.900 66.800 87.800 66.900 87.900 66.900 H 93.700 C 93.800 66.900 93.700 66.800 93.700 66.900 V 69.800 C 93.700 69.855 93.745 69.900 93.800 69.900 H 99.800 C 99.855 69.900 99.900 69.855 99.900 69.800 V 66.900 C 99.900 66.800 99.800 66.900 99.900 66.900 H 105.700 C 105.800 66.900 105.700 66.800 105.700 66.900 V 69.800 C 105.700 69.855 105.745 69.900 105.800 69.900 H 111.800 C 111.855 69.900 111.900 69.855 111.900 69.800 V 66.900 C 111.900 66.800 111.800 66.900 111.900 66.900 H 117.700 C 117.800 66.900 117.700 66.800 117.700 66.900 V 69.800 C 117.700 69.855 117.745 69.900 117.800 69.900 H 123.800 C 123.855 69.900 123.900 69.855 123.900 69.800 V 66.900 C 123.900 66.800 123.800 66.900 123.900 66.900 H 129.700 C 129.800 66.900 129.700 66.800 129.700 66.900 V 69.800 C 129.700 69.855 129.745 69.900 129.800 69.900 H 135.800 C 135.855 69.900 135.900 69.855 135.900 69.800 V 66.900 C 135.900 66.800 135.800 66.900 135.900 66.900 H 141.700 C 141.800 66.900 141.700 66.800 141.700 66.900 V 69.800 C 141.700 69.855 141.745 69.900 141.800 69.900 H 147.800 H 150.800 C 150.855 69.900 150.900 69.855 150.900 69.800 V 66.800 V 63.800 C 150.900 63.745 150.855 63.700 150.800 63.700 H 147.900 C 147.800 63.700 147.900 63.800 147.900 63.700 V 57.900 C 147.900 57.800 147.800 57.900 147.900 57.900 H 150.800 C 150.855 57.900 150.900 57.855 150.900 57.800 V 54.800 C 150.900 54.745 150.855 54.700 150.800 54.700 H 147.800 H 21.800 H 18.800 C 18.745 54.700 18.700 54.745 18.700 54.800 V 57.800 C 18.700 57.855 18.745 57.900 18.800 57.900 H 21.700 C 21.800 57.900 21.700 57.800 21.700 57.900 V 63.700 C 21.700 63.800 21.800 63.700 21.700 63.700 H 18.800 C 18.745 63.700 18.700 63.745 18.700 63.800 V 66.800 V 69.800 C 18.700 69.855 18.745 69.900 18.800 69.900 H 21.800 Z" stroke="rgb(0,0,0)" stroke-width="0.20" />
</g>
<g id="p-4" style="fill:none;stroke-linecap:round;stroke-linejoin:round;">
  <path d="M 21.800 50.200 H 32.700 C 32.800 50.200 32.700 50.100 32.700 50.200 V 53.100 C 32.700 53.155 32.745 53.200 32.800 53.200 H 38.800 C 38.855 53.200 38.900 53.155 38.900 53.100 V 50.200 C 38.900 50.100 38.800 50.200 38.900 50.200 H 44.700 C 44.800 50.200 44.700 50.100 44.700 50.200 V 53.100 C 44.700 53.155 44.745 53.200 44.800 53.200 H 50.800 C 50.855 53.200 50.900 53.155 50.900 53.100 V 50.200 C 50.900 50.100 50.800 50.200 50.900 50.200 H 61.800 C 61.855 50.200 61.900 50.155 61.900 50.100 V 47.200 C 61.900 47.100 61.800 47.200 61.900 47.200 H 64.800 C 64.855 47.200 64.900 47.155 64.900 47.100 V 41.100 C 64.900 41.045 64.855 41.000 64.800 41.000 H 61.900 C 61.800 41.000 61.900 41.100 61.900 41.000 V 38.100 C 61.900 38.045 61.855 38.000 61.800 38.000 C 61.821 38.000 61.841 38.006 61.857 38.018 L 21.857 10.018 C 21.841 10.006 21.821 10.000 21.800 10.000 C 21.745 10.000 21.700 10.045 21.700 10.100 V 21.000 C 21.700 21.100 21.800 21.000 21.700 21.000 H 18.800 C 18.745 21.000 18.700 21.045 18.700 21.100 V 27.100 C 18.700 27.155 18.745 27.200 18.800 27.200 H 21.700 C 21.800 27.200 21.700 27.100 21.700 27.200 V 33.000 C 21.700 33.100 21.800 33.000 21.700 33.000 H 18.800 C 18.745 33.000 18.700 33.045 18.700 33.100 V 39.100 C 18.700 39.155 18.745 39.200 18.800 39.200 H 21.700 C 21.800 39.200 21.700 39.100 21.700 39.200 V 50.100 C 21.700 50.155 21.745 50.200 21.800 50.200 Z" stroke="rgb(0,0,0)" stroke-width="0.20" />
</g>
<g id="p-5" style="fill:none;stroke-linecap:round;stroke-linejoin:round;">
  <path d="M 69.500 50.200 H 80.400 C 80.500 50.200 80.400 50.100 80.400 50.200 V 53.100 C 80.400 53.155 80.445 53.200 80.500 53.200 H 86.500 C 86.555 53.200 86.600 53.155 86.600 53.100 V 50.200 C 86.600 50.100 86.500 50.200 86.600 50.200 H 92.400 C 92.500 50.200 92.400 50.100 92.400 50.200 V 53.100 C 92.400 53.155 92.445 53.200 92.500 53.200 H 98.500 C 98.555 53.200 98.600 53.155 98.600 53.100 V 50.200 C 98.600 50.100 98.500 50.200 98.600 50.200 H 109.500 C 109.555 50.200 109.600 50.155 109.600 50.100 V 47.200 C 109.600 47.100 109.500 47.200 109.600 47.200 H 112.500 C 112.555 47.200 112.600 47.155 112.600 47.100 V 41.100 C 112.600 41.045 112.555 41.000 112.500 41.000 H 109.600 C 109.500 41.000 109.600 41.100 109.600 41.000 V 38.100 C 109.600 38.045 109.555 38.000 109.500 38.000 C 109.521 38.000 109.541 38.006 109.557 38.018 L 69.557 10.018 C 69.541 10.006 69.521 10.000 69.500 10.000 C 69.445 10.000 69.400 10.045 69.400 10.100 V 21.000 C 69.400 21.100 69.500 21.000 69.400 21.000 H 66.500 C 66.445 21.000 66.400 21.045 66.400 21.100 V 27.100 C 66.400 27.155 66.445 27.200 66.500 27.200 H 69.400 C 69.500 27.200 69.400 27.100 69.400 27.200 V 33.000 C 69.400 33.100 69.500 33.000 69.400 33.000 H 66.500 C 66.445 33.000 66.400 33.045 66.400 33.100 V 39.100 C 66.400 39.155 66.445 39.200 66.500 39.200 H 69.400 C 69.500 39.200 69.400 39.100 69.400 39.200 V 50.100 C 69.400 50.155 69.445 50.200 69.500 50.200 Z" stroke="rgb(0,0,0)" stroke-width="0.20" />
</g>
<g id="p-6" style="fill:none;stroke-linecap:round;stroke-linejoin:round;">
  <path d="M 117.200 50.200 H 128.100 C 128.200 50.200 128.100 50.100 128.100 50.200 V 53.100 C 128.100 53.155 128.145 53.200 128.200 53.200 H 134.200 C 134.255 53.200 134.300 53.155 134.300 53.100 V 50.200 C 134.300 50.100 134.200 50.200 134.300 50.200 H 140.100 C 140.200 50.200 140.100 50.100 140.100 50.200 V 53.100 C 140.100 53.155 140.145 53.200 140.200 53.200 H 146.200 C 146.255 53.200 146.300 53.155 146.300 53.100 V 50.200 C 146.300 50.100 146.200 50.200 146.300 50.200 H 157.200 C 157.255 50.200 157.300 50.155 157.300 50.100 V 47.200 C 157.300 47.100 157.200 47.200 157.300 47.200 H 160.200 C 160.255 47.200 160.300 47.155 160.300 47.100 V 41.100 C 160.300 41.045 160.255 41.000 160.200 41.000 H 157.300 C 157.200 41.000 157.300 41.100 157.300 41.000 V 38.100 C 157.300 38.045 157.255 38.000 157.200 38.000 C 157.221 38.000 157.241 38.006 157.257 38.018 L 117.257 10.018 C 117.241 10.006 117.221 10.000 117.200 10.000 C 117.145 10.000 117.100 10.045 117.100 10.100 V 21.000 C 117.100 21.100 117.200 21.000 117.100 21.000 H 114.200 C 114.145 21.000 114.100 21.045 114.100 21.100 V 27.100 C 114.100 27.155 114.145 27.200 114.200 27.200 H 117.100 C 117.200 27.200 117.100 27.100 117.100 27.200 V 33.000 C 117.100 33.100 117.200 33.000 117.100 33.000 H 114.200 C 114.145 33.000 114.100 33.045 114.100 33.100 V 39.100 C 114.100 39.155 114.145 39.200 114.200 39.200 H 117.100 C 117.200 39.200 117.100 39.100 117.100 39.200 V 50.100 C 117.100 50.155 117.145 50.200 117.200 50.200 Z" stroke="rgb(0,0,0)" stroke-width="0.20" />
</g>
<g id="p-7" style="fill:none;stroke-linecap:round;stroke-linejoin:round;">
  <path d="M 164.900 50.200 H 175.800 C 175.900 50.200 175.800 50.100 175.800 50.200 V 53.100 C 175.800 53.155 175.845 53.200 175.900 53.200 H 181.900 C 181.955 53.200 182.000 53.155 182.000 53.100 V 50.200 C 182.000 50.100 181.900 50.200 182.000 50.200 H 187.800 C 187.900 50.200 187.800 50.100 187.800 50.200 V 53.100 C 187.800 53.155 187.845 53.200 187.900 53.200 H 193.900 C 193.955 53.200 194.000 53.155 194.000 53.100 V 50.200 C 194.000 50.100 193.900 50.200 194.000 50.200 H 204.900 C 204.955 50.200 205.000 50.155 205.000 50.100 V 47.200 C 205.000 47.100 204.900 47.200 205.000 47.200 H 207.900 C 207.955 47.200 208.000 47.155 208.000 47.100 V 41.100 C 208.000 41.045 207.955 41.000 207.900 41.000 H 205.000 C 204.900 41.000 205.000 41.100 205.000 41.000 V 38.100 C 205.000 38.045 204.955 38.000 204.900 38.000 C 204.921 38.000 204.941 38.006 204.957 38.018 L 164.957 10.018 C 164.941 10.006 164.921 10.000 164.900 10.000 C 164.845 10.000 164.800 10.045 164.800 10.100 V 21.000 C 164.800 21.100 164.900 21.000 164.800 21.000 H 161.900 C 161.845 21.000 161.800 21.045 161.800 21.100 V 27.100 C 161.800 27.155 161.845 27.200 161.900 27.200 H 164.800 C 164.900 27.200 164.800 27.100 164.800 27.200 V 33.000 C 164.800 33.100 164.900 33.000 164.800 33.000 H 161.900 C 161.845 33.000 161.800 33.045 161.800 33.100 V 39.100 C 161.800 39.155 161.845 39.200 161.900 39.200 H 164.800 C 164.900 39.200 164.800 39.100 164.800 39.200 V 50.100 C 164.800 50.155 164.845 50.200 164.900 50.200 Z" stroke="rgb(0,0,0)" stroke-width="0.20" />
</g>
</svg>