<?xml version='1.0' encoding='utf-8'?>
<svg height="259.70mm" viewBox="0.0 0.0 230.60 259.70" width="230.60mm" xmlns="http://www.w3.org/2000/svg" xmlns:cc="http://creativecommons.org/ns#" xmlns:dc="http://purl.org/dc/elements/1.1/" xmlns:inkscape="http://www.inkscape.org/namespaces/inkscape" xmlns:rdf="http://www.w3.org/1999/02/22-rdf-syntax-ns#" xmlns:svg="http://www.w3.org/2000/svg" xmlns:xlink="http://www.w3.org/1999/xlink">
<!--
SlidingDrawer - Sliding drawer box

Created with Boxes.py (https://festi.info/boxes.py)
Command line (remove spaces between dashes): boxes SlidingDrawer
-->
<title>SlidingDrawer</title>
<metadata>
<rdf:RDF><cc:Work>
<dc:title>Box - SlidingDrawer</dc:title>
<dc:source>boxes SlidingDrawer</dc:source>
<dc:description>Sliding drawer box

Created with Boxes.py (https://festi.info/boxes.py)
Command line: boxes SlidingDrawer
Command line short: boxes SlidingDrawer
</dc:description>
</cc:Work></rdf:RDF></metadata>
<g id="p-0" style="fill:none;stroke-linecap:round;stroke-linejoin:round;">
  <path d="M 18.800 249.700 H 118.800 V 239.700 H 18.800 V 249.700 Z" stroke="rgb(0,0,0)" stroke-width="0.20" />
  <text dominant-baseline="hanging" font-size="8px" style="font-family: sans-serif ; font-weight: normal; font-style: normal; fill: rgb(255,0,0)" text-anchor="middle" transform="matrix( 1.000 0.000 0.000 1.000 68.800 240.700 )">100.00mm, burn:0.10mm</text>
</g>
<g id="p-1" style="fill:none;stroke-linecap:round;stroke-linejoin:round;">
  <text dominant-baseline="hanging" font-size="4px" style="font-family: sans-serif ; font-weight: normal; font-style: normal; fill: rgb(255,0,0)" text-anchor="middle" transform="matrix( 1.000 0.000 0.000 1.000 45.350 224.450 )">in box wall</text><path d="M 21.800 238.000 H 30.350 C 30.405 238.000 30.450 237.955 30.450 237.900 V 235.000 C 30.450 234.900 30.350 235.000 30.450 235.000 H 36.250 C 36.350 235.000 36.250 234.900 36.250 235.000 V 237.900 C 36.250 237.955 36.295 238.000 36.350 238.000 H 42.350 C 42.405 238.000 42.450 237.955 42.450 237.900 V 235.000 C 42.450 234.900 42.350 235.000 42.450 235.000 H 48.250 C 48.350 235.000 48.250 234.900 48.250 235.000 V 237.900 C 48.250 237.955 48.295 238.000 48.350 238.000 H 54.350 C 54.405 238.000 54.450 237.955 54.450 237.900 V 235.000 C 54.450 234.900 54.350 235.000 54.450 235.000 H 60.250 C 60.350 235.000 60.250 234.900 60.250 235.000 V 237.900 C 60.250 237.955 60.295 238.000 60.350 238.000 H 68.900 H 71.900 C 71.955 238.000 72.000 237.955 72.000 237.900 V 234.900 V 227.850 C 72.000 227.795 71.955 227.750 71.900 227.750 H 69.000 C 68.900 227.750 69.000 227.850 69.000 227.750 V 221.950 C 69.000 221.850 68.900 221.950 69.000 221.950 H 71.900 C 71.955 221.950 72.000 221.905 72.000 221.850 V 214.800 C 72.000 214.745 71.955 214.700 71.900 214.700 H 68.900 H 54.770 C 54.734 214.700 54.701 214.719 54.683 214.750 C 53.737 216.388 52.377 217.749 50.739 218.695 C 49.100 219.641 47.242 220.139 45.350 220.139 C 43.458 220.139 41.600 219.641 39.961 218.695 C 38.323 217.749 36.963 216.388 36.017 214.750 C 35.999 214.719 35.966 214.700 35.930 214.700 H 21.800 H 18.800 C 18.745 214.700 18.700 214.745 18.700 214.800 V 221.850 C 18.700 221.905 18.745 221.950 18.800 221.950 H 21.700 C 21.800 221.950 21.700 221.850 21.700 221.950 V 227.750 C 21.700 227.850 21.800 227.750 21.700 227.750 H 18.800 C 18.745 227.750 18.700 227.795 18.700 227.850 V 234.900 V 237.900 C 18.700 237.955 18.745 238.000 18.800 238.000 H 21.800" stroke="rgb(0,0,0)" stroke-width="0.20" />
</g>
<g id="p-2" style="fill:none;stroke-linecap:round;stroke-linejoin:round;">
  <text dominant-baseline="hanging" font-size="4px" style="font-family: sans-serif ; font-weight: normal; font-style: normal; fill: rgb(255,0,0)" text-anchor="middle" transform="matrix( 1.000 0.000 0.000 1.000 121.650 224.450 )">in box wall</text><path d="M 76.600 235.000 H 82.550 C 82.650 235.000 82.550 234.900 82.550 235.000 V 237.900 C 82.550 237.955 82.595 238.000 82.650 238.000 H 88.650 C 88.705 238.000 88.750 237.955 88.750 237.900 V 235.000 C 88.750 234.900 88.650 235.000 88.750 235.000 H 94.550 C 94.650 235.000 94.550 234.900 94.550 235.000 V 237.900 C 94.550 237.955 94.595 238.000 94.650 238.000 H 100.650 C 100.705 238.000 100.750 237.955 100.750 237.900 V 235.000 C 100.750 234.900 100.650 235.000 100.750 235.000 H 106.550 C 106.650 235.000 106.550 234.900 106.550 235.000 V 237.900 C 106.550 237.955 106.595 238.000 106.650 238.000 H 112.650 C 112.705 238.000 112.750 237.955 112.750 237.900 V 235.000 C 112.750 234.900 112.650 235.000 112.750 235.000 H 118.550 C 118.650 235.000 118.550 234.900 118.550 235.000 V 237.900 C 118.550 237.955 118.595 238.000 118.650 238.000 H 124.650 C 124.705 238.000 124.750 237.955 124.750 237.900 V 235.000 C 124.750 234.900 124.650 235.000 124.750 235.000 H 130.550 C 130.650 235.000 130.550 234.900 130.550 235.000 V 237.900 C 130.550 237.955 130.595 238.000 130.650 238.000 H 136.650 C 136.705 238.000 136.750 237.955 136.750 237.900 V 235.000 C 136.750 234.900 136.650 235.000 136.750 235.000 H 142.550 C 142.650 235.000 142.550 234.900 142.550 235.000 V 237.900 C 142.550 237.955 142.595 238.000 142.650 238.000 H 148.650 C 148.705 238.000 148.750 237.955 148.750 237.900 V 235.000 C 148.750 234.900 148.650 235.000 148.750 235.000 H 154.550 C 154.650 235.000 154.550 234.900 154.550 235.000 V 237.900 C 154.550 237.955 154.595 238.000 154.650 238.000 H 160.650 C 160.705 238.000 160.750 237.955 160.750 237.900 V 235.000 C 160.750 234.900 160.650 235.000 160.750 235.000 H 166.700 C 166.755 235.000 166.800 234.955 166.800 234.900 V 227.950 C 166.800 227.850 166.700 227.950 166.800 227.950 H 169.700 C 169.755 227.950 169.800 227.905 169.800 227.850 V 221.850 C 169.800 221.795 169.755 221.750 169.700 221.750 H 166.800 C 166.700 221.750 166.800 221.850 166.800 221.750 V 214.800 C 166.800 214.745 166.755 214.700 166.700 214.700 H 76.600 C 76.545 214.700 76.500 214.745 76.500 214.800 V 221.750 C 76.500 221.850 76.600 221.750 76.500 221.750 H 73.600 C 73.545 221.750 73.500 221.795 73.500 221.850 V 227.850 C 73.500 227.905 73.545 227.950 73.600 227.950 H 76.500 C 76.600 227.950 76.500 227.850 76.500 227.950 V 234.900 C 76.500 234.955 76.545 235.000 76.600 235.000" stroke="rgb(0,0,0)" stroke-width="0.20" />
</g>
<g id="p-3" style="fill:none;stroke-linecap:round;stroke-linejoin:round;">
  <text dominant-baseline="hanging" font-size="4px" style="font-family: sans-serif ; font-weight: normal; font-style: normal; fill: rgb(255,0,0)" text-anchor="middle" transform="matrix( 1.000 0.000 0.000 1.000 121.650 199.650 )">in box wall</text><path d="M 76.600 210.200 H 82.550 C 82.650 210.200 82.550 210.100 82.550 210.200 V 213.100 C 82.550 213.155 82.595 213.200 82.650 213.200 H 88.650 C 88.705 213.200 88.750 213.155 88.750 213.100 V 210.200 C 88.750 210.100 88.650 210.200 88.750 210.200 H 94.550 C 94.650 210.200 94.550 210.100 94.550 210.200 V 213.100 C 94.550 213.155 94.595 213.200 94.650 213.200 H 100.650 C 100.705 213.200 100.750 213.155 100.750 213.100 V 210.200 C 100.750 210.100 100.650 210.200 100.750 210.200 H 106.550 C 106.650 210.200 106.550 210.100 106.550 210.200 V 213.100 C 106.550 213.155 106.595 213.200 106.650 213.200 H 112.650 C 112.705 213.200 112.750 213.155 112.750 213.100 V 210.200 C 112.750 210.100 112.650 210.200 112.750 210.200 H 118.550 C 118.650 210.200 118.550 210.100 118.550 210.200 V 213.100 C 118.550 213.155 118.595 213.200 118.650 213.200 H 124.650 C 124.705 213.200 124.750 213.155 124.750 213.100 V 210.200 C 124.750 210.100 124.650 210.200 124.750 210.200 H 130.550 C 130.650 210.200 130.550 210.100 130.550 210.200 V 213.100 C 130.550 213.155 130.595 213.200 130.650 213.200 H 136.650 C 136.705 213.200 136.750 213.155 136.750 213.100 V 210.200 C 136.750 210.100 136.650 210.200 136.750 210.200 H 142.550 C 142.650 210.200 142.550 210.100 142.550 210.200 V 213.100 C 142.550 213.155 142.595 213.200 142.650 213.200 H 148.650 C 148.705 213.200 148.750 213.155 148.750 213.100 V 210.200 C 148.750 210.100 148.650 210.200 148.750 210.200 H 154.550 C 154.650 210.200 154.550 210.100 154.550 210.200 V 213.100 C 154.550 213.155 154.595 213.200 154.650 213.200 H 160.650 C 160.705 213.200 160.750 213.155 160.750 213.100 V 210.200 C 160.750 210.100 160.650 210.200 160.750 210.200 H 166.700 C 166.755 210.200 166.800 210.155 166.800 210.100 V 203.150 C 166.800 203.050 166.700 203.150 166.800 203.150 H 169.700 C 169.755 203.150 169.800 203.105 169.800 203.050 V 197.050 C 169.800 196.995 169.755 196.950 169.700 196.950 H 166.800 C 166.700 196.950 166.800 197.050 166.800 196.950 V 190.000 C 166.800 189.945 166.755 189.900 166.700 189.900 H 76.600 C 76.545 189.900 76.500 189.945 76.500 190.000 V 196.950 C 76.500 197.050 76.600 196.950 76.500 196.950 H 73.600 C 73.545 196.950 73.500 196.995 73.500 197.050 V 203.050 C 73.500 203.105 73.545 203.150 73.600 203.150 H 76.500 C 76.600 203.150 76.500 203.050 76.500 203.150 V 210.100 C 76.500 210.155 76.545 210.200 76.600 210.200" stroke="rgb(0,0,0)" stroke-width="0.20" />
</g>
<g id="p-4" style="fill:none;stroke-linecap:round;stroke-linejoin:round;">
  <text dominant-baseline="hanging" font-size="4px" style="font-family: sans-serif ; font-weight: normal; font-style: normal; fill: rgb(255,0,0)" text-anchor="middle" transform="matrix( 1.000 0.000 0.000 1.000 45.350 199.650 )">in box wall</text><path d="M 21.800 213.200 H 30.350 C 30.405 213.200 30.450 213.155 30.450 213.100 V 210.200 C 30.450 210.100 30.350 210.200 30.450 210.200 H 36.250 C 36.350 210.200 36.250 210.100 36.250 210.200 V 213.100 C 36.250 213.155 36.295 213.200 36.350 213.200 H 42.350 C 42.405 213.200 42.450 213.155 42.450 213.100 V 210.200 C 42.450 210.100 42.350 210.200 42.450 210.200 H 48.250 C 48.350 210.200 48.250 210.100 48.250 210.200 V 213.100 C 48.250 213.155 48.295 213.200 48.350 213.200 H 54.350 C 54.405 213.200 54.450 213.155 54.450 213.100 V 210.200 C 54.450 210.100 54.350 210.200 54.450 210.200 H 60.250 C 60.350 210.200 60.250 210.100 60.250 210.200 V 213.100 C 60.250 213.155 60.295 213.200 60.350 213.200 H 68.900 H 71.900 C 71.955 213.200 72.000 213.155 72.000 213.100 V 210.100 V 203.050 C 72.000 202.995 71.955 202.950 71.900 202.950 H 69.000 C 68.900 202.950 69.000 203.050 69.000 202.950 V 197.150 C 69.000 197.050 68.900 197.150 69.000 197.150 H 71.900 C 71.955 197.150 72.000 197.105 72.000 197.050 V 190.000 C 72.000 189.945 71.955 189.900 71.900 189.900 H 68.900 H 21.800 H 18.800 C 18.745 189.900 18.700 189.945 18.700 190.000 V 197.050 C 18.700 197.105 18.745 197.150 18.800 197.150 H 21.700 C 21.800 197.150 21.700 197.050 21.700 197.150 V 202.950 C 21.700 203.050 21.800 202.950 21.700 202.950 H 18.800 C 18.745 202.950 18.700 202.995 18.700 203.050 V 210.100 V 213.100 C 18.700 213.155 18.745 213.200 18.800 213.200 H 21.800" stroke="rgb(0,0,0)" stroke-width="0.20" />
</g>
<g id="p-5" style="fill:none;stroke-linecap:round;stroke-linejoin:round;">
  <text dominant-baseline="hanging" font-size="4px" style="font-family: sans-serif ; font-weight: normal; font-style: normal; fill: rgb(255,0,0)" text-anchor="middle" transform="matrix( 1.000 0.000 0.000 1.000 66.850 159.850 )">in box bottom</text><path d="M 21.800 188.400 H 27.850 C 27.905 188.400 27.950 188.355 27.950 188.300 V 185.400 C 27.950 185.300 27.850 185.400 27.950 185.400 H 33.750 C 33.850 185.400 33.750 185.300 33.750 185.400 V 188.300 C 33.750 188.355 33.795 188.400 33.850 188.400 H 39.850 C 39.905 188.400 39.950 188.355 39.950 188.300 V 185.400 C 39.950 185.300 39.850 185.400 39.950 185.400 H 45.750 C 45.850 185.400 45.750 185.300 45.750 185.400 V 188.300 C 45.750 188.355 45.795 188.400 45.850 188.400 H 51.850 C 51.905 188.400 51.950 188.355 51.950 188.300 V 185.400 C 51.950 185.300 51.850 185.400 51.950 185.400 H 57.750 C 57.850 185.400 57.750 185.300 57.750 185.400 V 188.300 C 57.750 188.355 57.795 188.400 57.850 188.400 H 63.850 C 63.905 188.400 63.950 188.355 63.950 188.300 V 185.400 C 63.950 185.300 63.850 185.400 63.950 185.400 H 69.750 C 69.850 185.400 69.750 185.300 69.750 185.400 V 188.300 C 69.750 188.355 69.795 188.400 69.850 188.400 H 75.850 C 75.905 188.400 75.950 188.355 75.950 188.300 V 185.400 C 75.950 185.300 75.850 185.400 75.950 185.400 H 81.750 C 81.850 185.400 81.750 185.300 81.750 185.400 V 188.300 C 81.750 188.355 81.795 188.400 81.850 188.400 H 87.850 C 87.905 188.400 87.950 188.355 87.950 188.300 V 185.400 C 87.950 185.300 87.850 185.400 87.950 185.400 H 93.750 C 93.850 185.400 93.750 185.300 93.750 185.400 V 188.300 C 93.750 188.355 93.795 188.400 93.850 188.400 H 99.850 C 99.905 188.400 99.950 188.355 99.950 188.300 V 185.400 C 99.950 185.300 99.850 185.400 99.950 185.400 H 105.750 C 105.850 185.400 105.750 185.300 105.750 185.400 V 188.300 C 105.750 188.355 105.795 188.400 105.850 188.400 H 111.900 C 111.955 188.400 112.000 188.355 112.000 188.300 V 185.300 V 176.850 C 112.000 176.750 111.900 176.850 112.000 176.850 H 114.900 C 114.955 176.850 115.000 176.805 115.000 176.750 V 170.750 C 115.000 170.695 114.955 170.650 114.900 170.650 H 112.000 C 111.900 170.650 112.000 170.750 112.000 170.650 V 164.850 C 112.000 164.750 111.900 164.850 112.000 164.850 H 114.900 C 114.955 164.850 115.000 164.805 115.000 164.750 V 158.750 C 115.000 158.695 114.955 158.650 114.900 158.650 H 112.000 C 111.900 158.650 112.000 158.750 112.000 158.650 V 152.850 C 112.000 152.750 111.900 152.850 112.000 152.850 H 114.900 C 114.955 152.850 115.000 152.805 115.000 152.750 V 146.750 C 115.000 146.695 114.955 146.650 114.900 146.650 H 112.000 C 111.900 146.650 112.000 146.750 112.000 146.650 V 138.200 V 135.200 C 112.000 135.145 111.955 135.100 111.900 135.100 H 105.850 C 105.795 135.100 105.750 135.145 105.750 135.200 V 138.100 C 105.750 138.200 105.850 138.100 105.750 138.100 H 99.950 C 99.850 138.100 99.950 138.200 99.950 138.100 V 135.200 C 99.950 135.145 99.905 135.100 99.850 135.100 H 93.850 C 93.795 135.100 93.750 135.145 93.750 135.200 V 138.100 C 93.750 138.200 93.850 138.100 93.750 138.100 H 87.950 C 87.850 138.100 87.950 138.200 87.950 138.100 V 135.200 C 87.950 135.145 87.905 135.100 87.850 135.100 H 81.850 C 81.795 135.100 81.750 135.145 81.750 135.200 V 138.100 C 81.750 138.200 81.850 138.100 81.750 138.100 H 75.950 C 75.850 138.100 75.950 138.200 75.950 138.100 V 135.200 C 75.950 135.145 75.905 135.100 75.850 135.100 H 69.850 C 69.795 135.100 69.750 135.145 69.750 135.200 V 138.100 C 69.750 138.200 69.850 138.100 69.750 138.100 H 63.950 C 63.850 138.100 63.950 138.200 63.950 138.100 V 135.200 C 63.950 135.145 63.905 135.100 63.850 135.100 H 57.850 C 57.795 135.100 57.750 135.145 57.750 135.200 V 138.100 C 57.750 138.200 57.850 138.100 57.750 138.100 H 51.950 C 51.850 138.100 51.950 138.200 51.950 138.100 V 135.200 C 51.950 135.145 51.905 135.100 51.850 135.100 H 45.850 C 45.795 135.100 45.750 135.145 45.750 135.200 V 138.100 C 45.750 138.200 45.850 138.100 45.750 138.100 H 39.950 C 39.850 138.100 39.950 138.200 39.950 138.100 V 135.200 C 39.950 135.145 39.905 135.100 39.850 135.100 H 33.850 C 33.795 135.100 33.750 135.145 33.750 135.200 V 138.100 C 33.750 138.200 33.850 138.100 33.750 138.100 H 27.950 C 27.850 138.100 27.950 138.200 27.950 138.100 V 135.200 C 27.950 135.145 27.905 135.100 27.850 135.100 H 21.800 C 21.745 135.100 21.700 135.145 21.700 135.200 V 138.200 V 146.650 C 21.700 146.750 21.800 146.650 21.700 146.650 H 18.800 C 18.745 146.650 18.700 146.695 18.700 146.750 V 152.750 C 18.700 152.805 18.745 152.850 18.800 152.850 H 21.700 C 21.800 152.850 21.700 152.750 21.700 152.850 V 158.650 C 21.700 158.750 21.800 158.650 21.700 158.650 H 18.800 C 18.745 158.650 18.700 158.695 18.700 158.750 V 164.750 C 18.700 164.805 18.745 164.850 18.800 164.850 H 21.700 C 21.800 164.850 21.700 164.750 21.700 164.850 V 170.650 C 21.700 170.750 21.800 170.650 21.700 170.650 H 18.800 C 18.745 170.650 18.700 170.695 18.700 170.750 V 176.750 C 18.700 176.805 18.745 176.850 18.800 176.850 H 21.700 C 21.800 176.850 21.700 176.750 21.700 176.850 V 185.300 V 188.300 C 21.700 188.355 21.745 188.400 21.800 188.400" stroke="rgb(0,0,0)" stroke-width="0.20" />
</g>
<g id="p-6" style="fill:none;stroke-linecap:round;stroke-linejoin:round;">
  <text dominant-baseline="hanging" font-size="4px" style="font-family: sans-serif ; font-weight: normal; font-style: normal; fill: rgb(255,0,0)" text-anchor="middle" transform="matrix( 1.000 0.000 0.000 1.000 68.800 101.600 )">out box bottom</text><path d="M 18.800 133.600 H 28.300 C 28.355 133.600 28.400 133.555 28.400 133.500 V 130.600 C 28.400 130.500 28.300 130.600 28.400 130.600 H 34.200 C 34.300 130.600 34.200 130.500 34.200 130.600 V 133.500 C 34.200 133.555 34.245 133.600 34.300 133.600 H 40.300 C 40.355 133.600 40.400 133.555 40.400 133.500 V 130.600 C 40.400 130.500 40.300 130.600 40.400 130.600 H 46.200 C 46.300 130.600 46.200 130.500 46.200 130.600 V 133.500 C 46.200 133.555 46.245 133.600 46.300 133.600 H 52.300 C 52.355 133.600 52.400 133.555 52.400 133.500 V 130.600 C 52.400 130.500 52.300 130.600 52.400 130.600 H 58.200 C 58.300 130.600 58.200 130.500 58.200 130.600 V 133.500 C 58.200 133.555 58.245 133.600 58.300 133.600 H 64.300 C 64.355 133.600 64.400 133.555 64.400 133.500 V 130.600 C 64.400 130.500 64.300 130.600 64.400 130.600 H 70.200 C 70.300 130.600 70.200 130.500 70.200 130.600 V 133.500 C 70.200 133.555 70.245 133.600 70.300 133.600 H 76.300 C 76.355 133.600 76.400 133.555 76.400 133.500 V 130.600 C 76.400 130.500 76.300 130.600 76.400 130.600 H 82.200 C 82.300 130.600 82.200 130.500 82.200 130.600 V 133.500 C 82.200 133.555 82.245 133.600 82.300 133.600 H 88.300 C 88.355 133.600 88.400 133.555 88.400 133.500 V 130.600 C 88.400 130.500 88.300 130.600 88.400 130.600 H 94.200 C 94.300 130.600 94.200 130.500 94.200 130.600 V 133.500 C 94.200 133.555 94.245 133.600 94.300 133.600 H 100.300 C 100.355 133.600 100.400 133.555 100.400 133.500 V 130.600 C 100.400 130.500 100.300 130.600 100.400 130.600 H 106.200 C 106.300 130.600 106.200 130.500 106.200 130.600 V 133.500 C 106.200 133.555 106.245 133.600 106.300 133.600 H 115.800 H 118.800 C 118.855 133.600 118.900 133.555 118.900 133.500 V 130.500 V 124.500 C 118.900 124.445 118.855 124.400 118.800 124.400 H 115.900 C 115.800 124.400 115.900 124.500 115.900 124.400 V 118.600 C 115.900 118.500 115.800 118.600 115.900 118.600 H 118.800 C 118.855 118.600 118.900 118.555 118.900 118.500 V 112.500 C 118.900 112.445 118.855 112.400 118.800 112.400 H 115.900 C 115.800 112.400 115.900 112.500 115.900 112.400 V 106.600 C 115.900 106.500 115.800 106.600 115.900 106.600 H 118.800 C 118.855 106.600 118.900 106.555 118.900 106.500 V 100.500 C 118.900 100.445 118.855 100.400 118.800 100.400 H 115.900 C 115.800 100.400 115.900 100.500 115.900 100.400 V 94.600 C 115.900 94.500 115.800 94.600 115.900 94.600 H 118.800 C 118.855 94.600 118.900 94.555 118.900 94.500 V 88.500 C 118.900 88.445 118.855 88.400 118.800 88.400 H 115.900 C 115.800 88.400 115.900 88.500 115.900 88.400 V 82.600 C 115.900 82.500 115.800 82.600 115.900 82.600 H 118.800 C 118.855 82.600 118.900 82.555 118.900 82.500 V 76.500 V 73.500 C 118.900 73.445 118.855 73.400 118.800 73.400 H 115.800 H 106.300 C 106.245 73.400 106.200 73.445 106.200 73.500 V 76.400 C 106.200 76.500 106.300 76.400 106.200 76.400 H 100.400 C 100.300 76.400 100.400 76.500 100.400 76.400 V 73.500 C 100.400 73.445 100.355 73.400 100.300 73.400 H 94.300 C 94.245 73.400 94.200 73.445 94.200 73.500 V 76.400 C 94.200 76.500 94.300 76.400 94.200 76.400 H 88.400 C 88.300 76.400 88.400 76.500 88.400 76.400 V 73.500 C 88.400 73.445 88.355 73.400 88.300 73.400 H 82.300 C 82.245 73.400 82.200 73.445 82.200 73.500 V 76.400 C 82.200 76.500 82.300 76.400 82.200 76.400 H 76.400 C 76.300 76.400 76.400 76.500 76.400 76.400 V 73.500 C 76.400 73.445 76.355 73.400 76.300 73.400 H 70.300 C 70.245 73.400 70.200 73.445 70.200 73.500 V 76.400 C 70.200 76.500 70.300 76.400 70.200 76.400 H 64.400 C 64.300 76.400 64.400 76.500 64.400 76.400 V 73.500 C 64.400 73.445 64.355 73.400 64.300 73.400 H 58.300 C 58.245 73.400 58.200 73.445 58.200 73.500 V 76.400 C 58.200 76.500 58.300 76.400 58.200 76.400 H 52.400 C 52.300 76.400 52.400 76.500 52.400 76.400 V 73.500 C 52.400 73.445 52.355 73.400 52.300 73.400 H 46.300 C 46.245 73.400 46.200 73.445 46.200 73.500 V 76.400 C 46.200 76.500 46.300 76.400 46.200 76.400 H 40.400 C 40.300 76.400 40.400 76.500 40.400 76.400 V 73.500 C 40.400 73.445 40.355 73.400 40.300 73.400 H 34.300 C 34.245 73.400 34.200 73.445 34.200 73.500 V 76.400 C 34.200 76.500 34.300 76.400 34.200 76.400 H 28.400 C 28.300 76.400 28.400 76.500 28.400 76.400 V 73.500 C 28.400 73.445 28.355 73.400 28.300 73.400 H 18.800 C 18.745 73.400 18.700 73.445 18.700 73.500 V 76.500 V 130.500 V 133.500 C 18.700 133.555 18.745 133.600 18.800 133.600" stroke="rgb(0,0,0)" stroke-width="0.20" />
</g>
<g id="p-7" style="fill:none;stroke-linecap:round;stroke-linejoin:round;">
  <text dominant-baseline="hanging" font-size="4px" style="font-family: sans-serif ; font-weight: normal; font-style: normal; fill: rgb(255,0,0)" text-anchor="middle" transform="matrix( 1.000 0.000 0.000 1.000 170.500 101.600 )">out box top</text><path d="M 120.500 133.600 H 130.000 C 130.055 133.600 130.100 133.555 130.100 133.500 V 130.600 C 130.100 130.500 130.000 130.600 130.100 130.600 H 135.900 C 136.000 130.600 135.900 130.500 135.900 130.600 V 133.500 C 135.900 133.555 135.945 133.600 136.000 133.600 H 142.000 C 142.055 133.600 142.100 133.555 142.100 133.500 V 130.600 C 142.100 130.500 142.000 130.600 142.100 130.600 H 147.900 C 148.000 130.600 147.900 130.500 147.900 130.600 V 133.500 C 147.900 133.555 147.945 133.600 148.000 133.600 H 154.000 C 154.055 133.600 154.100 133.555 154.100 133.500 V 130.600 C 154.100 130.500 154.000 130.600 154.100 130.600 H 159.900 C 160.000 130.600 159.900 130.500 159.900 130.600 V 133.500 C 159.900 133.555 159.945 133.600 160.000 133.600 H 166.000 C 166.055 133.600 166.100 133.555 166.100 133.500 V 130.600 C 166.100 130.500 166.000 130.600 166.100 130.600 H 171.900 C 172.000 130.600 171.900 130.500 171.900 130.600 V 133.500 C 171.900 133.555 171.945 133.600 172.000 133.600 H 178.000 C 178.055 133.600 178.100 133.555 178.100 133.500 V 130.600 C 178.100 130.500 178.000 130.600 178.100 130.600 H 183.900 C 184.000 130.600 183.900 130.500 183.900 130.600 V 133.500 C 183.900 133.555 183.945 133.600 184.000 133.600 H 190.000 C 190.055 133.600 190.100 133.555 190.100 133.500 V 130.600 C 190.100 130.500 190.000 130.600 190.100 130.600 H 195.900 C 196.000 130.600 195.900 130.500 195.900 130.600 V 133.500 C 195.900 133.555 195.945 133.600 196.000 133.600 H 202.000 C 202.055 133.600 202.100 133.555 202.100 133.500 V 130.600 C 202.100 130.500 202.000 130.600 202.100 130.600 H 207.900 C 208.000 130.600 207.900 130.500 207.900 130.600 V 133.500 C 207.900 133.555 207.945 133.600 208.000 133.600 H 217.500 H 220.500 C 220.555 133.600 220.600 133.555 220.600 133.500 V 130.500 V 124.500 C 220.600 124.445 220.555 124.400 220.500 124.400 H 217.600 C 217.500 124.400 217.600 124.500 217.600 124.400 V 118.600 C 217.600 118.500 217.500 118.600 217.600 118.600 H 220.500 C 220.555 118.600 220.600 118.555 220.600 118.500 V 112.500 C 220.600 112.445 220.555 112.400 220.500 112.400 H 217.600 C 217.500 112.400 217.600 112.500 217.600 112.400 V 106.600 C 217.600 106.500 217.500 106.600 217.600 106.600 H 220.500 C 220.555 106.600 220.600 106.555 220.600 106.500 V 100.500 C 220.600 100.445 220.555 100.400 220.500 100.400 H 217.600 C 217.500 100.400 217.600 100.500 217.600 100.400 V 94.600 C 217.600 94.500 217.500 94.600 217.600 94.600 H 220.500 C 220.555 94.600 220.600 94.555 220.600 94.500 V 88.500 C 220.600 88.445 220.555 88.400 220.500 88.400 H 217.600 C 217.500 88.400 217.600 88.500 217.600 88.400 V 82.600 C 217.600 82.500 217.500 82.600 217.600 82.600 H 220.500 C 220.555 82.600 220.600 82.555 220.600 82.500 V 76.500 V 73.500 C 220.600 73.445 220.555 73.400 220.500 73.400 H 217.500 H 208.000 C 207.945 73.400 207.900 73.445 207.900 73.500 V 76.400 C 207.900 76.500 208.000 76.400 207.900 76.400 H 202.100 C 202.000 76.400 202.100 76.500 202.100 76.400 V 73.500 C 202.100 73.445 202.055 73.400 202.000 73.400 H 196.000 C 195.945 73.400 195.900 73.445 195.900 73.500 V 76.400 C 195.900 76.500 196.000 76.400 195.900 76.400 H 190.100 C 190.000 76.400 190.100 76.500 190.100 76.400 V 73.500 C 190.100 73.445 190.055 73.400 190.000 73.400 H 184.000 C 183.945 73.400 183.900 73.445 183.900 73.500 V 76.400 C 183.900 76.500 184.000 76.400 183.900 76.400 H 178.100 C 178.000 76.400 178.100 76.500 178.100 76.400 V 73.500 C 178.100 73.445 178.055 73.400 178.000 73.400 H 172.000 C 171.945 73.400 171.900 73.445 171.900 73.500 V 76.400 C 171.900 76.500 172.000 76.400 171.900 76.400 H 166.100 C 166.000 76.400 166.100 76.500 166.100 76.400 V 73.500 C 166.100 73.445 166.055 73.400 166.000 73.400 H 160.000 C 159.945 73.400 159.900 73.445 159.900 73.500 V 76.400 C 159.900 76.500 160.000 76.400 159.900 76.400 H 154.100 C 154.000 76.400 154.100 76.500 154.100 76.400 V 73.500 C 154.100 73.445 154.055 73.400 154.000 73.400 H 148.000 C 147.945 73.400 147.900 73.445 147.900 73.500 V 76.400 C 147.900 76.500 148.000 76.400 147.900 76.400 H 142.100 C 142.000 76.400 142.100 76.500 142.100 76.400 V 73.500 C 142.100 73.445 142.055 73.400 142.000 73.400 H 136.000 C 135.945 73.400 135.900 73.445 135.900 73.500 V 76.400 C 135.900 76.500 136.000 76.400 135.900 76.400 H 130.100 C 130.000 76.400 130.100 76.500 130.100 76.400 V 73.500 C 130.100 73.445 130.055 73.400 130.000 73.400 H 120.500 C 120.445 73.400 120.400 73.445 120.400 73.500 V 76.500 V 130.500 V 133.500 C 120.400 133.555 120.445 133.600 120.500 133.600" stroke="rgb(0,0,0)" stroke-width="0.20" />
</g>
<g id="p-8" style="fill:none;stroke-linecap:round;stroke-linejoin:round;">
  <text dominant-baseline="hanging" font-size="4px" style="font-family: sans-serif ; font-weight: normal; font-style: normal; fill: rgb(255,0,0)" text-anchor="middle" transform="matrix( 1.000 0.000 0.000 1.000 170.500 54.900 )">out box wall</text><path d="M 120.500 68.900 H 129.900 C 130.000 68.900 129.900 68.800 129.900 68.900 V 71.800 C 129.900 71.855 129.945 71.900 130.000 71.900 H 136.000 C 136.055 71.900 136.100 71.855 136.100 71.800 V 68.900 C 136.100 68.800 136.000 68.900 136.100 68.900 H 141.900 C 142.000 68.900 141.900 68.800 141.900 68.900 V 71.800 C 141.900 71.855 141.945 71.900 142.000 71.900 H 148.000 C 148.055 71.900 148.100 71.855 148.100 71.800 V 68.900 C 148.100 68.800 148.000 68.900 148.100 68.900 H 153.900 C 154.000 68.900 153.900 68.800 153.900 68.900 V 71.800 C 153.900 71.855 153.945 71.900 154.000 71.900 H 160.000 C 160.055 71.900 160.100 71.855 160.100 71.800 V 68.900 C 160.100 68.800 160.000 68.900 160.100 68.900 H 165.900 C 166.000 68.900 165.900 68.800 165.900 68.900 V 71.800 C 165.900 71.855 165.945 71.900 166.000 71.900 H 172.000 C 172.055 71.900 172.100 71.855 172.100 71.800 V 68.900 C 172.100 68.800 172.000 68.900 172.100 68.900 H 177.900 C 178.000 68.900 177.900 68.800 177.900 68.900 V 71.800 C 177.900 71.855 177.945 71.900 178.000 71.900 H 184.000 C 184.055 71.900 184.100 71.855 184.100 71.800 V 68.900 C 184.100 68.800 184.000 68.900 184.100 68.900 H 189.900 C 190.000 68.900 189.900 68.800 189.900 68.900 V 71.800 C 189.900 71.855 189.945 71.900 190.000 71.900 H 196.000 C 196.055 71.900 196.100 71.855 196.100 71.800 V 68.900 C 196.100 68.800 196.000 68.900 196.100 68.900 H 201.900 C 202.000 68.900 201.900 68.800 201.900 68.900 V 71.800 C 201.900 71.855 201.945 71.900 202.000 71.900 H 208.000 C 208.055 71.900 208.100 71.855 208.100 71.800 V 68.900 C 208.100 68.800 208.000 68.900 208.100 68.900 H 217.500 C 217.555 68.900 217.600 68.855 217.600 68.800 V 59.900 C 217.600 59.800 217.500 59.900 217.600 59.900 H 220.500 C 220.555 59.900 220.600 59.855 220.600 59.800 V 53.800 C 220.600 53.745 220.555 53.700 220.500 53.700 H 217.600 C 217.500 53.700 217.600 53.800 217.600 53.700 V 44.800 C 217.600 44.745 217.555 44.700 217.500 44.700 H 208.100 C 208.000 44.700 208.100 44.800 208.100 44.700 V 41.800 C 208.100 41.745 208.055 41.700 208.000 41.700 H 202.000 C 201.945 41.700 201.900 41.745 201.900 41.800 V 44.700 C 201.900 44.800 202.000 44.700 201.900 44.700 H 196.100 C 196.000 44.700 196.100 44.800 196.100 44.700 V 41.800 C 196.100 41.745 196.055 41.700 196.000 41.700 H 190.000 C 189.945 41.700 189.900 41.745 189.900 41.800 V 44.700 C 189.900 44.800 190.000 44.700 189.900 44.700 H 184.100 C 184.000 44.700 184.100 44.800 184.100 44.700 V 41.800 C 184.100 41.745 184.055 41.700 184.000 41.700 H 178.000 C 177.945 41.700 177.900 41.745 177.900 41.800 V 44.700 C 177.900 44.800 178.000 44.700 177.900 44.700 H 172.100 C 172.000 44.700 172.100 44.800 172.100 44.700 V 41.800 C 172.100 41.745 172.055 41.700 172.000 41.700 H 166.000 C 165.945 41.700 165.900 41.745 165.900 41.800 V 44.700 C 165.900 44.800 166.000 44.700 165.900 44.700 H 160.100 C 160.000 44.700 160.100 44.800 160.100 44.700 V 41.800 C 160.100 41.745 160.055 41.700 160.000 41.700 H 154.000 C 153.945 41.700 153.900 41.745 153.900 41.800 V 44.700 C 153.900 44.800 154.000 44.700 153.900 44.700 H 148.100 C 148.000 44.700 148.100 44.800 148.100 44.700 V 41.800 C 148.100 41.745 148.055 41.700 148.000 41.700 H 142.000 C 141.945 41.700 141.900 41.745 141.900 41.800 V 44.700 C 141.900 44.800 142.000 44.700 141.900 44.700 H 136.100 C 136.000 44.700 136.100 44.800 136.100 44.700 V 41.800 C 136.100 41.745 136.055 41.700 136.000 41.700 H 130.000 C 129.945 41.700 129.900 41.745 129.900 41.800 V 44.700 C 129.900 44.800 130.000 44.700 129.900 44.700 H 120.500 C 120.445 44.700 120.400 44.745 120.400 44.800 V 68.800 C 120.400 68.855 120.445 68.900 120.500 68.900" stroke="rgb(0,0,0)" stroke-width="0.20" />
</g>
<g id="p-9" style="fill:none;stroke-linecap:round;stroke-linejoin:round;">
  <text dominant-baseline="hanging" font-size="4px" style="font-family: sans-serif ; font-weight: normal; font-style: normal; fill: rgb(255,0,0)" text-anchor="middle" transform="matrix( 1.000 0.000 0.000 1.000 68.800 54.900 )">out box wall</text><path d="M 18.800 68.900 H 28.200 C 28.300 68.900 28.200 68.800 28.200 68.900 V 71.800 C 28.200 71.855 28.245 71.900 28.300 71.900 H 34.300 C 34.355 71.900 34.400 71.855 34.400 71.800 V 68.900 C 34.400 68.800 34.300 68.900 34.400 68.900 H 40.200 C 40.300 68.900 40.200 68.800 40.200 68.900 V 71.800 C 40.200 71.855 40.245 71.900 40.300 71.900 H 46.300 C 46.355 71.900 46.400 71.855 46.400 71.800 V 68.900 C 46.400 68.800 46.300 68.900 46.400 68.900 H 52.200 C 52.300 68.900 52.200 68.800 52.200 68.900 V 71.800 C 52.200 71.855 52.245 71.900 52.300 71.900 H 58.300 C 58.355 71.900 58.400 71.855 58.400 71.800 V 68.900 C 58.400 68.800 58.300 68.900 58.400 68.900 H 64.200 C 64.300 68.900 64.200 68.800 64.200 68.900 V 71.800 C 64.200 71.855 64.245 71.900 64.300 71.900 H 70.300 C 70.355 71.900 70.400 71.855 70.400 71.800 V 68.900 C 70.400 68.800 70.300 68.900 70.400 68.900 H 76.200 C 76.300 68.900 76.200 68.800 76.200 68.900 V 71.800 C 76.200 71.855 76.245 71.900 76.300 71.900 H 82.300 C 82.355 71.900 82.400 71.855 82.400 71.800 V 68.900 C 82.400 68.800 82.300 68.900 82.400 68.900 H 88.200 C 88.300 68.900 88.200 68.800 88.200 68.900 V 71.800 C 88.200 71.855 88.245 71.900 88.300 71.900 H 94.300 C 94.355 71.900 94.400 71.855 94.400 71.800 V 68.900 C 94.400 68.800 94.300 68.900 94.400 68.900 H 100.200 C 100.300 68.900 100.200 68.800 100.200 68.900 V 71.800 C 100.200 71.855 100.245 71.900 100.300 71.900 H 106.300 C 106.355 71.900 106.400 71.855 106.400 71.800 V 68.900 C 106.400 68.800 106.300 68.900 106.400 68.900 H 115.800 C 115.855 68.900 115.900 68.855 115.900 68.800 V 59.900 C 115.900 59.800 115.800 59.900 115.900 59.900 H 118.800 C 118.855 59.900 118.900 59.855 118.900 59.800 V 53.800 C 118.900 53.745 118.855 53.700 118.800 53.700 H 115.900 C 115.800 53.700 115.900 53.800 115.900 53.700 V 44.800 C 115.900 44.745 115.855 44.700 115.800 44.700 H 106.400 C 106.300 44.700 106.400 44.800 106.400 44.700 V 41.800 C 106.400 41.745 106.355 41.700 106.300 41.700 H 100.300 C 100.245 41.700 100.200 41.745 100.200 41.800 V 44.700 C 100.200 44.800 100.300 44.700 100.200 44.700 H 94.400 C 94.300 44.700 94.400 44.800 94.400 44.700 V 41.800 C 94.400 41.745 94.355 41.700 94.300 41.700 H 88.300 C 88.245 41.700 88.200 41.745 88.200 41.800 V 44.700 C 88.200 44.800 88.300 44.700 88.200 44.700 H 82.400 C 82.300 44.700 82.400 44.800 82.400 44.700 V 41.800 C 82.400 41.745 82.355 41.700 82.300 41.700 H 76.300 C 76.245 41.700 76.200 41.745 76.200 41.800 V 44.700 C 76.200 44.800 76.300 44.700 76.200 44.700 H 70.400 C 70.300 44.700 70.400 44.800 70.400 44.700 V 41.800 C 70.400 41.745 70.355 41.700 70.300 41.700 H 64.300 C 64.245 41.700 64.200 41.745 64.200 41.800 V 44.700 C 64.200 44.800 64.300 44.700 64.200 44.700 H 58.400 C 58.300 44.700 58.400 44.800 58.400 44.700 V 41.800 C 58.400 41.745 58.355 41.700 58.300 41.700 H 52.300 C 52.245 41.700 52.200 41.745 52.200 41.800 V 44.700 C 52.200 44.800 52.300 44.700 52.200 44.700 H 46.400 C 46.300 44.700 46.400 44.800 46.400 44.700 V 41.800 C 46.400 41.745 46.355 41.700 46.300 41.700 H 40.300 C 40.245 41.700 40.200 41.745 40.200 41.800 V 44.700 C 40.200 44.800 40.300 44.700 40.200 44.700 H 34.400 C 34.300 44.700 34.400 44.800 34.400 44.700 V 41.800 C 34.400 41.745 34.355 41.700 34.300 41.700 H 28.300 C 28.245 41.700 28.200 41.745 28.200 41.800 V 44.700 C 28.200 44.800 28.300 44.700 28.200 44.700 H 18.800 C 18.745 44.700 18.700 44.745 18.700 44.800 V 68.800 C 18.700 68.855 18.745 68.900 18.800 68.900" stroke="rgb(0,0,0)" stroke-width="0.20" />
</g>
<g id="p-10" style="fill:none;stroke-linecap:round;stroke-linejoin:round;">
  <text dominant-baseline="hanging" font-size="4px" style="font-family: sans-serif ; font-weight: normal; font-style: normal; fill: rgb(255,0,0)" text-anchor="middle" transform="matrix( 1.000 0.000 0.000 1.000 48.800 23.200 )">out box wall</text><path d="M 21.800 37.200 H 27.700 C 27.800 37.200 27.700 37.100 27.700 37.200 V 40.100 C 27.700 40.155 27.745 40.200 27.800 40.200 H 33.800 C 33.855 40.200 33.900 40.155 33.900 40.100 V 37.200 C 33.900 37.100 33.800 37.200 33.900 37.200 H 39.700 C 39.800 37.200 39.700 37.100 39.700 37.200 V 40.100 C 39.700 40.155 39.745 40.200 39.800 40.200 H 45.800 C 45.855 40.200 45.900 40.155 45.900 40.100 V 37.200 C 45.900 37.100 45.800 37.200 45.900 37.200 H 51.700 C 51.800 37.200 51.700 37.100 51.700 37.200 V 40.100 C 51.700 40.155 51.745 40.200 51.800 40.200 H 57.800 C 57.855 40.200 57.900 40.155 57.900 40.100 V 37.200 C 57.900 37.100 57.800 37.200 57.900 37.200 H 63.700 C 63.800 37.200 63.700 37.100 63.700 37.200 V 40.100 C 63.700 40.155 63.745 40.200 63.800 40.200 H 69.800 C 69.855 40.200 69.900 40.155 69.900 40.100 V 37.200 C 69.900 37.100 69.800 37.200 69.900 37.200 H 75.800 H 78.800 C 78.855 37.200 78.900 37.155 78.900 37.100 V 28.100 C 78.900 28.045 78.855 28.000 78.800 28.000 H 75.900 C 75.800 28.000 75.900 28.100 75.900 28.000 V 22.200 C 75.900 22.100 75.800 22.200 75.900 22.200 H 78.800 C 78.855 22.200 78.900 22.155 78.900 22.100 V 13.100 C 78.900 13.045 78.855 13.000 78.800 13.000 H 75.800 H 69.900 C 69.800 13.000 69.900 13.100 69.900 13.000 V 10.100 C 69.900 10.045 69.855 10.000 69.800 10.000 H 63.800 C 63.745 10.000 63.700 10.045 63.700 10.100 V 13.000 C 63.700 13.100 63.800 13.000 63.700 13.000 H 57.900 C 57.800 13.000 57.900 13.100 57.900 13.000 V 10.100 C 57.900 10.045 57.855 10.000 57.800 10.000 H 51.800 C 51.745 10.000 51.700 10.045 51.700 10.100 V 13.000 C 51.700 13.100 51.800 13.000 51.700 13.000 H 45.900 C 45.800 13.000 45.900 13.100 45.900 13.000 V 10.100 C 45.900 10.045 45.855 10.000 45.800 10.000 H 39.800 C 39.745 10.000 39.700 10.045 39.700 10.100 V 13.000 C 39.700 13.100 39.800 13.000 39.700 13.000 H 33.900 C 33.800 13.000 33.900 13.100 33.900 13.000 V 10.100 C 33.900 10.045 33.855 10.000 33.800 10.000 H 27.800 C 27.745 10.000 27.700 10.045 27.700 10.100 V 13.000 C 27.700 13.100 27.800 13.000 27.700 13.000 H 21.800 H 18.800 C 18.745 13.000 18.700 13.045 18.700 13.100 V 22.100 C 18.700 22.155 18.745 22.200 18.800 22.200 H 21.700 C 21.800 22.200 21.700 22.100 21.700 22.200 V 28.000 C 21.700 28.100 21.800 28.000 21.700 28.000 H 18.800 C 18.745 28.000 18.700 28.045 18.700 28.100 V 37.100 C 18.700 37.155 18.745 37.200 18.800 37.200 H 21.800" stroke="rgb(0,0,0)" stroke-width="0.20" />
</g>
</svg>