<?xml version='1.0' encoding='utf-8'?>
<svg height="259.70mm" viewBox="0.0 0.0 221.90 259.70" width="221.90mm" xmlns="http://www.w3.org/2000/svg" xmlns:cc="http://creativecommons.org/ns#" xmlns:dc="http://purl.org/dc/elements/1.1/" xmlns:inkscape="http://www.inkscape.org/namespaces/inkscape" xmlns:rdf="http://www.w3.org/1999/02/22-rdf-syntax-ns#" xmlns:svg="http://www.w3.org/2000/svg" xmlns:xlink="http://www.w3.org/1999/xlink">
<!--
SlidingDrawer - Sliding drawer box

Created with Boxes.py (https://festi.info/boxes.py)
Command line (remove spaces between dashes): boxes SlidingDrawer
-->
<title>SlidingDrawer</title>
<metadata>
<rdf:RDF><cc:Work>
<dc:title>Box - SlidingDrawer</dc:title>
<dc:source>boxes SlidingDrawer</dc:source>
<dc:description>Sliding drawer box

Created with Boxes.py (https://festi.info/boxes.py)
Command line: boxes SlidingDrawer
Command line short: boxes SlidingDrawer
</dc:description>
</cc:Work></rdf:RDF></metadata>
<g id="p-0" style="fill:none;stroke-linecap:round;stroke-linejoin:round;">
  <path d="M 10.100 249.700 H 110.100 V 239.700 H 10.100 V 249.700 Z" stroke="rgb(0,0,0)" stroke-width="0.20" />
  <text dominant-baseline="hanging" font-size="6px" style="font-family: sans-serif ; font-weight: normal; font-style: normal; fill: rgb(255,0,0)" text-anchor="middle" transform="matrix( 1.000 0.000 0.000 1.000 60.100 241.700 )">100.0mm, burn:0.10mm</text>
</g>
<g id="p-1" style="fill:none;stroke-linecap:round;stroke-linejoin:round;">
  <text dominant-baseline="hanging" font-size="4px" style="font-family: sans-serif ; font-weight: normal; font-style: normal; fill: rgb(255,0,0)" text-anchor="middle" transform="matrix( 1.000 0.000 0.000 1.000 36.650 224.450 )">in box wall</text><path d="M 13.100 238.000 H 21.650 C 21.705 238.000 21.750 237.955 21.750 237.900 V 235.000 C 21.750 234.900 21.650 235.000 21.750 235.000 H 27.550 C 27.650 235.000 27.550 234.900 27.550 235.000 V 237.900 C 27.550 237.955 27.595 238.000 27.650 238.000 H 33.650 C 33.705 238.000 33.750 237.955 33.750 237.900 V 235.000 C 33.750 234.900 33.650 235.000 33.750 235.000 H 39.550 C 39.650 235.000 39.550 234.900 39.550 235.000 V 237.900 C 39.550 237.955 39.595 238.000 39.650 238.000 H 45.650 C 45.705 238.000 45.750 237.955 45.750 237.900 V 235.000 C 45.750 234.900 45.650 235.000 45.750 235.000 H 51.550 C 51.650 235.000 51.550 234.900 51.550 235.000 V 237.900 C 51.550 237.955 51.595 238.000 51.650 238.000 H 60.200 H 63.200 C 63.255 238.000 63.300 237.955 63.300 237.900 V 234.900 V 227.850 C 63.300 227.795 63.255 227.750 63.200 227.750 H 60.300 C 60.200 227.750 60.300 227.850 60.300 227.750 V 221.950 C 60.300 221.850 60.200 221.950 60.300 221.950 H 63.200 C 63.255 221.950 63.300 221.905 63.300 221.850 V 214.800 C 63.300 214.745 63.255 214.700 63.200 214.700 H 60.200 H 46.070 C 46.034 214.700 46.001 214.719 45.983 214.750 C 45.037 216.388 43.677 217.749 42.039 218.695 C 40.400 219.641 38.542 220.139 36.650 220.139 C 34.758 220.139 32.900 219.641 31.261 218.695 C 29.623 217.749 28.263 216.388 27.317 214.750 C 27.299 214.719 27.266 214.700 27.230 214.700 H 13.100 H 10.100 C 10.045 214.700 10.000 214.745 10.000 214.800 V 221.850 C 10.000 221.905 10.045 221.950 10.100 221.950 H 13.000 C 13.100 221.950 13.000 221.850 13.000 221.950 V 227.750 C 13.000 227.850 13.100 227.750 13.000 227.750 H 10.100 C 10.045 227.750 10.000 227.795 10.000 227.850 V 234.900 V 237.900 C 10.000 237.955 10.045 238.000 10.100 238.000 H 13.100" stroke="rgb(0,0,0)" stroke-width="0.20" />
</g>
<g id="p-2" style="fill:none;stroke-linecap:round;stroke-linejoin:round;">
  <text dominant-baseline="hanging" font-size="4px" style="font-family: sans-serif ; font-weight: normal; font-style: normal; fill: rgb(255,0,0)" text-anchor="middle" transform="matrix( 1.000 0.000 0.000 1.000 112.950 224.450 )">in box wall</text><path d="M 67.900 235.000 H 73.850 C 73.950 235.000 73.850 234.900 73.850 235.000 V 237.900 C 73.850 237.955 73.895 238.000 73.950 238.000 H 79.950 C 80.005 238.000 80.050 237.955 80.050 237.900 V 235.000 C 80.050 234.900 79.950 235.000 80.050 235.000 H 85.850 C 85.950 235.000 85.850 234.900 85.850 235.000 V 237.900 C 85.850 237.955 85.895 238.000 85.950 238.000 H 91.950 C 92.005 238.000 92.050 237.955 92.050 237.900 V 235.000 C 92.050 234.900 91.950 235.000 92.050 235.000 H 97.850 C 97.950 235.000 97.850 234.900 97.850 235.000 V 237.900 C 97.850 237.955 97.895 238.000 97.950 238.000 H 103.950 C 104.005 238.000 104.050 237.955 104.050 237.900 V 235.000 C 104.050 234.900 103.950 235.000 104.050 235.000 H 109.850 C 109.950 235.000 109.850 234.900 109.850 235.000 V 237.900 C 109.850 237.955 109.895 238.000 109.950 238.000 H 115.950 C 116.005 238.000 116.050 237.955 116.050 237.900 V 235.000 C 116.050 234.900 115.950 235.000 116.050 235.000 H 121.850 C 121.950 235.000 121.850 234.900 121.850 235.000 V 237.900 C 121.850 237.955 121.895 238.000 121.950 238.000 H 127.950 C 128.005 238.000 128.050 237.955 128.050 237.900 V 235.000 C 128.050 234.900 127.950 235.000 128.050 235.000 H 133.850 C 133.950 235.000 133.850 234.900 133.850 235.000 V 237.900 C 133.850 237.955 133.895 238.000 133.950 238.000 H 139.950 C 140.005 238.000 140.050 237.955 140.050 237.900 V 235.000 C 140.050 234.900 139.950 235.000 140.050 235.000 H 145.850 C 145.950 235.000 145.850 234.900 145.850 235.000 V 237.900 C 145.850 237.955 145.895 238.000 145.950 238.000 H 151.950 C 152.005 238.000 152.050 237.955 152.050 237.900 V 235.000 C 152.050 234.900 151.950 235.000 152.050 235.000 H 158.000 C 158.055 235.000 158.100 234.955 158.100 234.900 V 227.950 C 158.100 227.850 158.000 227.950 158.100 227.950 H 161.000 C 161.055 227.950 161.100 227.905 161.100 227.850 V 221.850 C 161.100 221.795 161.055 221.750 161.000 221.750 H 158.100 C 158.000 221.750 158.100 221.850 158.100 221.750 V 214.800 C 158.100 214.745 158.055 214.700 158.000 214.700 H 67.900 C 67.845 214.700 67.800 214.745 67.800 214.800 V 221.750 C 67.800 221.850 67.900 221.750 67.800 221.750 H 64.900 C 64.845 221.750 64.800 221.795 64.800 221.850 V 227.850 C 64.800 227.905 64.845 227.950 64.900 227.950 H 67.800 C 67.900 227.950 67.800 227.850 67.800 227.950 V 234.900 C 67.800 234.955 67.845 235.000 67.900 235.000" stroke="rgb(0,0,0)" stroke-width="0.20" />
</g>
<g id="p-3" style="fill:none;stroke-linecap:round;stroke-linejoin:round;">
  <text dominant-baseline="hanging" font-size="4px" style="font-family: sans-serif ; font-weight: normal; font-style: normal; fill: rgb(255,0,0)" text-anchor="middle" transform="matrix( 1.000 0.000 0.000 1.000 112.950 199.650 )">in box wall</text><path d="M 67.900 210.200 H 73.850 C 73.950 210.200 73.850 210.100 73.850 210.200 V 213.100 C 73.850 213.155 73.895 213.200 73.950 213.200 H 79.950 C 80.005 213.200 80.050 213.155 80.050 213.100 V 210.200 C 80.050 210.100 79.950 210.200 80.050 210.200 H 85.850 C 85.950 210.200 85.850 210.100 85.850 210.200 V 213.100 C 85.850 213.155 85.895 213.200 85.950 213.200 H 91.950 C 92.005 213.200 92.050 213.155 92.050 213.100 V 210.200 C 92.050 210.100 91.950 210.200 92.050 210.200 H 97.850 C 97.950 210.200 97.850 210.100 97.850 210.200 V 213.100 C 97.850 213.155 97.895 213.200 97.950 213.200 H 103.950 C 104.005 213.200 104.050 213.155 104.050 213.100 V 210.200 C 104.050 210.100 103.950 210.200 104.050 210.200 H 109.850 C 109.950 210.200 109.850 210.100 109.850 210.200 V 213.100 C 109.850 213.155 109.895 213.200 109.950 213.200 H 115.950 C 116.005 213.200 116.050 213.155 116.050 213.100 V 210.200 C 116.050 210.100 115.950 210.200 116.050 210.200 H 121.850 C 121.950 210.200 121.850 210.100 121.850 210.200 V 213.100 C 121.850 213.155 121.895 213.200 121.950 213.200 H 127.950 C 128.005 213.200 128.050 213.155 128.050 213.100 V 210.200 C 128.050 210.100 127.950 210.200 128.050 210.200 H 133.850 C 133.950 210.200 133.850 210.100 133.850 210.200 V 213.100 C 133.850 213.155 133.895 213.200 133.950 213.200 H 139.950 C 140.005 213.200 140.050 213.155 140.050 213.100 V 210.200 C 140.050 210.100 139.950 210.200 140.050 210.200 H 145.850 C 145.950 210.200 145.850 210.100 145.850 210.200 V 213.100 C 145.850 213.155 145.895 213.200 145.950 213.200 H 151.950 C 152.005 213.200 152.050 213.155 152.050 213.100 V 210.200 C 152.050 210.100 151.950 210.200 152.050 210.200 H 158.000 C 158.055 210.200 158.100 210.155 158.100 210.100 V 203.150 C 158.100 203.050 158.000 203.150 158.100 203.150 H 161.000 C 161.055 203.150 161.100 203.105 161.100 203.050 V 197.050 C 161.100 196.995 161.055 196.950 161.000 196.950 H 158.100 C 158.000 196.950 158.100 197.050 158.100 196.950 V 190.000 C 158.100 189.945 158.055 189.900 158.000 189.900 H 67.900 C 67.845 189.900 67.800 189.945 67.800 190.000 V 196.950 C 67.800 197.050 67.900 196.950 67.800 196.950 H 64.900 C 64.845 196.950 64.800 196.995 64.800 197.050 V 203.050 C 64.800 203.105 64.845 203.150 64.900 203.150 H 67.800 C 67.900 203.150 67.800 203.050 67.800 203.150 V 210.100 C 67.800 210.155 67.845 210.200 67.900 210.200" stroke="rgb(0,0,0)" stroke-width="0.20" />
</g>
<g id="p-4" style="fill:none;stroke-linecap:round;stroke-linejoin:round;">
  <text dominant-baseline="hanging" font-size="4px" style="font-family: sans-serif ; font-weight: normal; font-style: normal; fill: rgb(255,0,0)" text-anchor="middle" transform="matrix( 1.000 0.000 0.000 1.000 36.650 199.650 )">in box wall</text><path d="M 13.100 213.200 H 21.650 C 21.705 213.200 21.750 213.155 21.750 213.100 V 210.200 C 21.750 210.100 21.650 210.200 21.750 210.200 H 27.550 C 27.650 210.200 27.550 210.100 27.550 210.200 V 213.100 C 27.550 213.155 27.595 213.200 27.650 213.200 H 33.650 C 33.705 213.200 33.750 213.155 33.750 213.100 V 210.200 C 33.750 210.100 33.650 210.200 33.750 210.200 H 39.550 C 39.650 210.200 39.550 210.100 39.550 210.200 V 213.100 C 39.550 213.155 39.595 213.200 39.650 213.200 H 45.650 C 45.705 213.200 45.750 213.155 45.750 213.100 V 210.200 C 45.750 210.100 45.650 210.200 45.750 210.200 H 51.550 C 51.650 210.200 51.550 210.100 51.550 210.200 V 213.100 C 51.550 213.155 51.595 213.200 51.650 213.200 H 60.200 H 63.200 C 63.255 213.200 63.300 213.155 63.300 213.100 V 210.100 V 203.050 C 63.300 202.995 63.255 202.950 63.200 202.950 H 60.300 C 60.200 202.950 60.300 203.050 60.300 202.950 V 197.150 C 60.300 197.050 60.200 197.150 60.300 197.150 H 63.200 C 63.255 197.150 63.300 197.105 63.300 197.050 V 190.000 C 63.300 189.945 63.255 189.900 63.200 189.900 H 60.200 H 13.100 H 10.100 C 10.045 189.900 10.000 189.945 10.000 190.000 V 197.050 C 10.000 197.105 10.045 197.150 10.100 197.150 H 13.000 C 13.100 197.150 13.000 197.050 13.000 197.150 V 202.950 C 13.000 203.050 13.100 202.950 13.000 202.950 H 10.100 C 10.045 202.950 10.000 202.995 10.000 203.050 V 210.100 V 213.100 C 10.000 213.155 10.045 213.200 10.100 213.200 H 13.100" stroke="rgb(0,0,0)" stroke-width="0.20" />
</g>
<g id="p-5" style="fill:none;stroke-linecap:round;stroke-linejoin:round;">
  <text dominant-baseline="hanging" font-size="4px" style="font-family: sans-serif ; font-weight: normal; font-style: normal; fill: rgb(255,0,0)" text-anchor="middle" transform="matrix( 1.000 0.000 0.000 1.000 58.150 159.850 )">in box bottom</text><path d="M 13.100 188.400 H 19.150 C 19.205 188.400 19.250 188.355 19.250 188.300 V 185.400 C 19.250 185.300 19.150 185.400 19.250 185.400 H 25.050 C 25.150 185.400 25.050 185.300 25.050 185.400 V 188.300 C 25.050 188.355 25.095 188.400 25.150 188.400 H 31.150 C 31.205 188.400 31.250 188.355 31.250 188.300 V 185.400 C 31.250 185.300 31.150 185.400 31.250 185.400 H 37.050 C 37.150 185.400 37.050 185.300 37.050 185.400 V 188.300 C 37.050 188.355 37.095 188.400 37.150 188.400 H 43.150 C 43.205 188.400 43.250 188.355 43.250 188.300 V 185.400 C 43.250 185.300 43.150 185.400 43.250 185.400 H 49.050 C 49.150 185.400 49.050 185.300 49.050 185.400 V 188.300 C 49.050 188.355 49.095 188.400 49.150 188.400 H 55.150 C 55.205 188.400 55.250 188.355 55.250 188.300 V 185.400 C 55.250 185.300 55.150 185.400 55.250 185.400 H 61.050 C 61.150 185.400 61.050 185.300 61.050 185.400 V 188.300 C 61.050 188.355 61.095 188.400 61.150 188.400 H 67.150 C 67.205 188.400 67.250 188.355 67.250 188.300 V 185.400 C 67.250 185.300 67.150 185.400 67.250 185.400 H 73.050 C 73.150 185.400 73.050 185.300 73.050 185.400 V 188.300 C 73.050 188.355 73.095 188.400 73.150 188.400 H 79.150 C 79.205 188.400 79.250 188.355 79.250 188.300 V 185.400 C 79.250 185.300 79.150 185.400 79.250 185.400 H 85.050 C 85.150 185.400 85.050 185.300 85.050 185.400 V 188.300 C 85.050 188.355 85.095 188.400 85.150 188.400 H 91.150 C 91.205 188.400 91.250 188.355 91.250 188.300 V 185.400 C 91.250 185.300 91.150 185.400 91.250 185.400 H 97.050 C 97.150 185.400 97.050 185.300 97.050 185.400 V 188.300 C 97.050 188.355 97.095 188.400 97.150 188.400 H 103.200 C 103.255 188.400 103.300 188.355 103.300 188.300 V 185.300 V 176.850 C 103.300 176.750 103.200 176.850 103.300 176.850 H 106.200 C 106.255 176.850 106.300 176.805 106.300 176.750 V 170.750 C 106.300 170.695 106.255 170.650 106.200 170.650 H 103.300 C 103.200 170.650 103.300 170.750 103.300 170.650 V 164.850 C 103.300 164.750 103.200 164.850 103.300 164.850 H 106.200 C 106.255 164.850 106.300 164.805 106.300 164.750 V 158.750 C 106.300 158.695 106.255 158.650 106.200 158.650 H 103.300 C 103.200 158.650 103.300 158.750 103.300 158.650 V 152.850 C 103.300 152.750 103.200 152.850 103.300 152.850 H 106.200 C 106.255 152.850 106.300 152.805 106.300 152.750 V 146.750 C 106.300 146.695 106.255 146.650 106.200 146.650 H 103.300 C 103.200 146.650 103.300 146.750 103.300 146.650 V 138.200 V 135.200 C 103.300 135.145 103.255 135.100 103.200 135.100 H 97.150 C 97.095 135.100 97.050 135.145 97.050 135.200 V 138.100 C 97.050 138.200 97.150 138.100 97.050 138.100 H 91.250 C 91.150 138.100 91.250 138.200 91.250 138.100 V 135.200 C 91.250 135.145 91.205 135.100 91.150 135.100 H 85.150 C 85.095 135.100 85.050 135.145 85.050 135.200 V 138.100 C 85.050 138.200 85.150 138.100 85.050 138.100 H 79.250 C 79.150 138.100 79.250 138.200 79.250 138.100 V 135.200 C 79.250 135.145 79.205 135.100 79.150 135.100 H 73.150 C 73.095 135.100 73.050 135.145 73.050 135.200 V 138.100 C 73.050 138.200 73.150 138.100 73.050 138.100 H 67.250 C 67.150 138.100 67.250 138.200 67.250 138.100 V 135.200 C 67.250 135.145 67.205 135.100 67.150 135.100 H 61.150 C 61.095 135.100 61.050 135.145 61.050 135.200 V 138.100 C 61.050 138.200 61.150 138.100 61.050 138.100 H 55.250 C 55.150 138.100 55.250 138.200 55.250 138.100 V 135.200 C 55.250 135.145 55.205 135.100 55.150 135.100 H 49.150 C 49.095 135.100 49.050 135.145 49.050 135.200 V 138.100 C 49.050 138.200 49.150 138.100 49.050 138.100 H 43.250 C 43.150 138.100 43.250 138.200 43.250 138.100 V 135.200 C 43.250 135.145 43.205 135.100 43.150 135.100 H 37.150 C 37.095 135.100 37.050 135.145 37.050 135.200 V 138.100 C 37.050 138.200 37.150 138.100 37.050 138.100 H 31.250 C 31.150 138.100 31.250 138.200 31.250 138.100 V 135.200 C 31.250 135.145 31.205 135.100 31.150 135.100 H 25.150 C 25.095 135.100 25.050 135.145 25.050 135.200 V 138.100 C 25.050 138.200 25.150 138.100 25.050 138.100 H 19.250 C 19.150 138.100 19.250 138.200 19.250 138.100 V 135.200 C 19.250 135.145 19.205 135.100 19.150 135.100 H 13.100 C 13.045 135.100 13.000 135.145 13.000 135.200 V 138.200 V 146.650 C 13.000 146.750 13.100 146.650 13.000 146.650 H 10.100 C 10.045 146.650 10.000 146.695 10.000 146.750 V 152.750 C 10.000 152.805 10.045 152.850 10.100 152.850 H 13.000 C 13.100 152.850 13.000 152.750 13.000 152.850 V 158.650 C 13.000 158.750 13.100 158.650 13.000 158.650 H 10.100 C 10.045 158.650 10.000 158.695 10.000 158.750 V 164.750 C 10.000 164.805 10.045 164.850 10.100 164.850 H 13.000 C 13.100 164.850 13.000 164.750 13.000 164.850 V 170.650 C 13.000 170.750 13.100 170.650 13.000 170.650 H 10.100 C 10.045 170.650 10.000 170.695 10.000 170.750 V 176.750 C 10.000 176.805 10.045 176.850 10.100 176.850 H 13.000 C 13.100 176.850 13.000 176.750 13.000 176.850 V 185.300 V 188.300 C 13.000 188.355 13.045 188.400 13.100 188.400" stroke="rgb(0,0,0)" stroke-width="0.20" />
</g>
<g id="p-6" style="fill:none;stroke-linecap:round;stroke-linejoin:round;">
  <text dominant-baseline="hanging" font-size="4px" style="font-family: sans-serif ; font-weight: normal; font-style: normal; fill: rgb(255,0,0)" text-anchor="middle" transform="matrix( 1.000 0.000 0.000 1.000 60.100 101.600 )">out box bottom</text><path d="M 10.100 133.600 H 19.600 C 19.655 133.600 19.700 133.555 19.700 133.500 V 130.600 C 19.700 130.500 19.600 130.600 19.700 130.600 H 25.500 C 25.600 130.600 25.500 130.500 25.500 130.600 V 133.500 C 25.500 133.555 25.545 133.600 25.600 133.600 H 31.600 C 31.655 133.600 31.700 133.555 31.700 133.500 V 130.600 C 31.700 130.500 31.600 130.600 31.700 130.600 H 37.500 C 37.600 130.600 37.500 130.500 37.500 130.600 V 133.500 C 37.500 133.555 37.545 133.600 37.600 133.600 H 43.600 C 43.655 133.600 43.700 133.555 43.700 133.500 V 130.600 C 43.700 130.500 43.600 130.600 43.700 130.600 H 49.500 C 49.600 130.600 49.500 130.500 49.500 130.600 V 133.500 C 49.500 133.555 49.545 133.600 49.600 133.600 H 55.600 C 55.655 133.600 55.700 133.555 55.700 133.500 V 130.600 C 55.700 130.500 55.600 130.600 55.700 130.600 H 61.500 C 61.600 130.600 61.500 130.500 61.500 130.600 V 133.500 C 61.500 133.555 61.545 133.600 61.600 133.600 H 67.600 C 67.655 133.600 67.700 133.555 67.700 133.500 V 130.600 C 67.700 130.500 67.600 130.600 67.700 130.600 H 73.500 C 73.600 130.600 73.500 130.500 73.500 130.600 V 133.500 C 73.500 133.555 73.545 133.600 73.600 133.600 H 79.600 C 79.655 133.600 79.700 133.555 79.700 133.500 V 130.600 C 79.700 130.500 79.600 130.600 79.700 130.600 H 85.500 C 85.600 130.600 85.500 130.500 85.500 130.600 V 133.500 C 85.500 133.555 85.545 133.600 85.600 133.600 H 91.600 C 91.655 133.600 91.700 133.555 91.700 133.500 V 130.600 C 91.700 130.500 91.600 130.600 91.700 130.600 H 97.500 C 97.600 130.600 97.500 130.500 97.500 130.600 V 133.500 C 97.500 133.555 97.545 133.600 97.600 133.600 H 107.100 H 110.100 C 110.155 133.600 110.200 133.555 110.200 133.500 V 130.500 V 124.500 C 110.200 124.445 110.155 124.400 110.100 124.400 H 107.200 C 107.100 124.400 107.200 124.500 107.200 124.400 V 118.600 C 107.200 118.500 107.100 118.600 107.200 118.600 H 110.100 C 110.155 118.600 110.200 118.555 110.200 118.500 V 112.500 C 110.200 112.445 110.155 112.400 110.100 112.400 H 107.200 C 107.100 112.400 107.200 112.500 107.200 112.400 V 106.600 C 107.200 106.500 107.100 106.600 107.200 106.600 H 110.100 C 110.155 106.600 110.200 106.555 110.200 106.500 V 100.500 C 110.200 100.445 110.155 100.400 110.100 100.400 H 107.200 C 107.100 100.400 107.200 100.500 107.200 100.400 V 94.600 C 107.200 94.500 107.100 94.600 107.200 94.600 H 110.100 C 110.155 94.600 110.200 94.555 110.200 94.500 V 88.500 C 110.200 88.445 110.155 88.400 110.100 88.400 H 107.200 C 107.100 88.400 107.200 88.500 107.200 88.400 V 82.600 C 107.200 82.500 107.100 82.600 107.200 82.600 H 110.100 C 110.155 82.600 110.200 82.555 110.200 82.500 V 76.500 V 73.500 C 110.200 73.445 110.155 73.400 110.100 73.400 H 107.100 H 97.600 C 97.545 73.400 97.500 73.445 97.500 73.500 V 76.400 C 97.500 76.500 97.600 76.400 97.500 76.400 H 91.700 C 91.600 76.400 91.700 76.500 91.700 76.400 V 73.500 C 91.700 73.445 91.655 73.400 91.600 73.400 H 85.600 C 85.545 73.400 85.500 73.445 85.500 73.500 V 76.400 C 85.500 76.500 85.600 76.400 85.500 76.400 H 79.700 C 79.600 76.400 79.700 76.500 79.700 76.400 V 73.500 C 79.700 73.445 79.655 73.400 79.600 73.400 H 73.600 C 73.545 73.400 73.500 73.445 73.500 73.500 V 76.400 C 73.500 76.500 73.600 76.400 73.500 76.400 H 67.700 C 67.600 76.400 67.700 76.500 67.700 76.400 V 73.500 C 67.700 73.445 67.655 73.400 67.600 73.400 H 61.600 C 61.545 73.400 61.500 73.445 61.500 73.500 V 76.400 C 61.500 76.500 61.600 76.400 61.500 76.400 H 55.700 C 55.600 76.400 55.700 76.500 55.700 76.400 V 73.500 C 55.700 73.445 55.655 73.400 55.600 73.400 H 49.600 C 49.545 73.400 49.500 73.445 49.500 73.500 V 76.400 C 49.500 76.500 49.600 76.400 49.500 76.400 H 43.700 C 43.600 76.400 43.700 76.500 43.700 76.400 V 73.500 C 43.700 73.445 43.655 73.400 43.600 73.400 H 37.600 C 37.545 73.400 37.500 73.445 37.500 73.500 V 76.400 C 37.500 76.500 37.600 76.400 37.500 76.400 H 31.700 C 31.600 76.400 31.700 76.500 31.700 76.400 V 73.500 C 31.700 73.445 31.655 73.400 31.600 73.400 H 25.600 C 25.545 73.400 25.500 73.445 25.500 73.500 V 76.400 C 25.500 76.500 25.600 76.400 25.500 76.400 H 19.700 C 19.600 76.400 19.700 76.500 19.700 76.400 V 73.500 C 19.700 73.445 19.655 73.400 19.600 73.400 H 10.100 C 10.045 73.400 10.000 73.445 10.000 73.500 V 76.500 V 130.500 V 133.500 C 10.000 133.555 10.045 133.600 10.100 133.600" stroke="rgb(0,0,0)" stroke-width="0.20" />
</g>
<g id="p-7" style="fill:none;stroke-linecap:round;stroke-linejoin:round;">
  <text dominant-baseline="hanging" font-size="4px" style="font-family: sans-serif ; font-weight: normal; font-style: normal; fill: rgb(255,0,0)" text-anchor="middle" transform="matrix( 1.000 0.000 0.000 1.000 161.800 101.600 )">out box top</text><path d="M 111.800 133.600 H 121.300 C 121.355 133.600 121.400 133.555 121.400 133.500 V 130.600 C 121.400 130.500 121.300 130.600 121.400 130.600 H 127.200 C 127.300 130.600 127.200 130.500 127.200 130.600 V 133.500 C 127.200 133.555 127.245 133.600 127.300 133.600 H 133.300 C 133.355 133.600 133.400 133.555 133.400 133.500 V 130.600 C 133.400 130.500 133.300 130.600 133.400 130.600 H 139.200 C 139.300 130.600 139.200 130.500 139.200 130.600 V 133.500 C 139.200 133.555 139.245 133.600 139.300 133.600 H 145.300 C 145.355 133.600 145.400 133.555 145.400 133.500 V 130.600 C 145.400 130.500 145.300 130.600 145.400 130.600 H 151.200 C 151.300 130.600 151.200 130.500 151.200 130.600 V 133.500 C 151.200 133.555 151.245 133.600 151.300 133.600 H 157.300 C 157.355 133.600 157.400 133.555 157.400 133.500 V 130.600 C 157.400 130.500 157.300 130.600 157.400 130.600 H 163.200 C 163.300 130.600 163.200 130.500 163.200 130.600 V 133.500 C 163.200 133.555 163.245 133.600 163.300 133.600 H 169.300 C 169.355 133.600 169.400 133.555 169.400 133.500 V 130.600 C 169.400 130.500 169.300 130.600 169.400 130.600 H 175.200 C 175.300 130.600 175.200 130.500 175.200 130.600 V 133.500 C 175.200 133.555 175.245 133.600 175.300 133.600 H 181.300 C 181.355 133.600 181.400 133.555 181.400 133.500 V 130.600 C 181.400 130.500 181.300 130.600 181.400 130.600 H 187.200 C 187.300 130.600 187.200 130.500 187.200 130.600 V 133.500 C 187.200 133.555 187.245 133.600 187.300 133.600 H 193.300 C 193.355 133.600 193.400 133.555 193.400 133.500 V 130.600 C 193.400 130.500 193.300 130.600 193.400 130.600 H 199.200 C 199.300 130.600 199.200 130.500 199.200 130.600 V 133.500 C 199.200 133.555 199.245 133.600 199.300 133.600 H 208.800 H 211.800 C 211.855 133.600 211.900 133.555 211.900 133.500 V 130.500 V 124.500 C 211.900 124.445 211.855 124.400 211.800 124.400 H 208.900 C 208.800 124.400 208.900 124.500 208.900 124.400 V 118.600 C 208.900 118.500 208.800 118.600 208.900 118.600 H 211.800 C 211.855 118.600 211.900 118.555 211.900 118.500 V 112.500 C 211.900 112.445 211.855 112.400 211.800 112.400 H 208.900 C 208.800 112.400 208.900 112.500 208.900 112.400 V 106.600 C 208.900 106.500 208.800 106.600 208.900 106.600 H 211.800 C 211.855 106.600 211.900 106.555 211.900 106.500 V 100.500 C 211.900 100.445 211.855 100.400 211.800 100.400 H 208.900 C 208.800 100.400 208.900 100.500 208.900 100.400 V 94.600 C 208.900 94.500 208.800 94.600 208.900 94.600 H 211.800 C 211.855 94.600 211.900 94.555 211.900 94.500 V 88.500 C 211.900 88.445 211.855 88.400 211.800 88.400 H 208.900 C 208.800 88.400 208.900 88.500 208.900 88.400 V 82.600 C 208.900 82.500 208.800 82.600 208.900 82.600 H 211.800 C 211.855 82.600 211.900 82.555 211.900 82.500 V 76.500 V 73.500 C 211.900 73.445 211.855 73.400 211.800 73.400 H 208.800 H 199.300 C 199.245 73.400 199.200 73.445 199.200 73.500 V 76.400 C 199.200 76.500 199.300 76.400 199.200 76.400 H 193.400 C 193.300 76.400 193.400 76.500 193.400 76.400 V 73.500 C 193.400 73.445 193.355 73.400 193.300 73.400 H 187.300 C 187.245 73.400 187.200 73.445 187.200 73.500 V 76.400 C 187.200 76.500 187.300 76.400 187.200 76.400 H 181.400 C 181.300 76.400 181.400 76.500 181.400 76.400 V 73.500 C 181.400 73.445 181.355 73.400 181.300 73.400 H 175.300 C 175.245 73.400 175.200 73.445 175.200 73.500 V 76.400 C 175.200 76.500 175.300 76.400 175.200 76.400 H 169.400 C 169.300 76.400 169.400 76.500 169.400 76.400 V 73.500 C 169.400 73.445 169.355 73.400 169.300 73.400 H 163.300 C 163.245 73.400 163.200 73.445 163.200 73.500 V 76.400 C 163.200 76.500 163.300 76.400 163.200 76.400 H 157.400 C 157.300 76.400 157.400 76.500 157.400 76.400 V 73.500 C 157.400 73.445 157.355 73.400 157.300 73.400 H 151.300 C 151.245 73.400 151.200 73.445 151.200 73.500 V 76.400 C 151.200 76.500 151.300 76.400 151.200 76.400 H 145.400 C 145.300 76.400 145.400 76.500 145.400 76.400 V 73.500 C 145.400 73.445 145.355 73.400 145.300 73.400 H 139.300 C 139.245 73.400 139.200 73.445 139.200 73.500 V 76.400 C 139.200 76.500 139.300 76.400 139.200 76.400 H 133.400 C 133.300 76.400 133.400 76.500 133.400 76.400 V 73.500 C 133.400 73.445 133.355 73.400 133.300 73.400 H 127.300 C 127.245 73.400 127.200 73.445 127.200 73.500 V 76.400 C 127.200 76.500 127.300 76.400 127.200 76.400 H 121.400 C 121.300 76.400 121.400 76.500 121.400 76.400 V 73.500 C 121.400 73.445 121.355 73.400 121.300 73.400 H 111.800 C 111.745 73.400 111.700 73.445 111.700 73.500 V 76.500 V 130.500 V 133.500 C 111.700 133.555 111.745 133.600 111.800 133.600" stroke="rgb(0,0,0)" stroke-width="0.20" />
</g>
<g id="p-8" style="fill:none;stroke-linecap:round;stroke-linejoin:round;">
  <text dominant-baseline="hanging" font-size="4px" style="font-family: sans-serif ; font-weight: normal; font-style: normal; fill: rgb(255,0,0)" text-anchor="middle" transform="matrix( 1.000 0.000 0.000 1.000 161.800 54.900 )">out box wall</text><path d="M 111.800 68.900 H 121.200 C 121.300 68.900 121.200 68.800 121.200 68.900 V 71.800 C 121.200 71.855 121.245 71.900 121.300 71.900 H 127.300 C 127.355 71.900 127.400 71.855 127.400 71.800 V 68.900 C 127.400 68.800 127.300 68.900 127.400 68.900 H 133.200 C 133.300 68.900 133.200 68.800 133.200 68.900 V 71.800 C 133.200 71.855 133.245 71.900 133.300 71.900 H 139.300 C 139.355 71.900 139.400 71.855 139.400 71.800 V 68.900 C 139.400 68.800 139.300 68.900 139.400 68.900 H 145.200 C 145.300 68.900 145.200 68.800 145.200 68.900 V 71.800 C 145.200 71.855 145.245 71.900 145.300 71.900 H 151.300 C 151.355 71.900 151.400 71.855 151.400 71.800 V 68.900 C 151.400 68.800 151.300 68.900 151.400 68.900 H 157.200 C 157.300 68.900 157.200 68.800 157.200 68.900 V 71.800 C 157.200 71.855 157.245 71.900 157.300 71.900 H 163.300 C 163.355 71.900 163.400 71.855 163.400 71.800 V 68.900 C 163.400 68.800 163.300 68.900 163.400 68.900 H 169.200 C 169.300 68.900 169.200 68.800 169.200 68.900 V 71.800 C 169.200 71.855 169.245 71.900 169.300 71.900 H 175.300 C 175.355 71.900 175.400 71.855 175.400 71.800 V 68.900 C 175.400 68.800 175.300 68.900 175.400 68.900 H 181.200 C 181.300 68.900 181.200 68.800 181.200 68.900 V 71.800 C 181.200 71.855 181.245 71.900 181.300 71.900 H 187.300 C 187.355 71.900 187.400 71.855 187.400 71.800 V 68.900 C 187.400 68.800 187.300 68.900 187.400 68.900 H 193.200 C 193.300 68.900 193.200 68.800 193.200 68.900 V 71.800 C 193.200 71.855 193.245 71.900 193.300 71.900 H 199.300 C 199.355 71.900 199.400 71.855 199.400 71.800 V 68.900 C 199.400 68.800 199.300 68.900 199.400 68.900 H 208.800 C 208.855 68.900 208.900 68.855 208.900 68.800 V 59.900 C 208.900 59.800 208.800 59.900 208.900 59.900 H 211.800 C 211.855 59.900 211.900 59.855 211.900 59.800 V 53.800 C 211.900 53.745 211.855 53.700 211.800 53.700 H 208.900 C 208.800 53.700 208.900 53.800 208.900 53.700 V 44.800 C 208.900 44.745 208.855 44.700 208.800 44.700 H 199.400 C 199.300 44.700 199.400 44.800 199.400 44.700 V 41.800 C 199.400 41.745 199.355 41.700 199.300 41.700 H 193.300 C 193.245 41.700 193.200 41.745 193.200 41.800 V 44.700 C 193.200 44.800 193.300 44.700 193.200 44.700 H 187.400 C 187.300 44.700 187.400 44.800 187.400 44.700 V 41.800 C 187.400 41.745 187.355 41.700 187.300 41.700 H 181.300 C 181.245 41.700 181.200 41.745 181.200 41.800 V 44.700 C 181.200 44.800 181.300 44.700 181.200 44.700 H 175.400 C 175.300 44.700 175.400 44.800 175.400 44.700 V 41.800 C 175.400 41.745 175.355 41.700 175.300 41.700 H 169.300 C 169.245 41.700 169.200 41.745 169.200 41.800 V 44.700 C 169.200 44.800 169.300 44.700 169.200 44.700 H 163.400 C 163.300 44.700 163.400 44.800 163.400 44.700 V 41.800 C 163.400 41.745 163.355 41.700 163.300 41.700 H 157.300 C 157.245 41.700 157.200 41.745 157.200 41.800 V 44.700 C 157.200 44.800 157.300 44.700 157.200 44.700 H 151.400 C 151.300 44.700 151.400 44.800 151.400 44.700 V 41.800 C 151.400 41.745 151.355 41.700 151.300 41.700 H 145.300 C 145.245 41.700 145.200 41.745 145.200 41.800 V 44.700 C 145.200 44.800 145.300 44.700 145.200 44.700 H 139.400 C 139.300 44.700 139.400 44.800 139.400 44.700 V 41.800 C 139.400 41.745 139.355 41.700 139.300 41.700 H 133.300 C 133.245 41.700 133.200 41.745 133.200 41.800 V 44.700 C 133.200 44.800 133.300 44.700 133.200 44.700 H 127.400 C 127.300 44.700 127.400 44.800 127.400 44.700 V 41.800 C 127.400 41.745 127.355 41.700 127.300 41.700 H 121.300 C 121.245 41.700 121.200 41.745 121.200 41.800 V 44.700 C 121.200 44.800 121.300 44.700 121.200 44.700 H 111.800 C 111.745 44.700 111.700 44.745 111.700 44.800 V 68.800 C 111.700 68.855 111.745 68.900 111.800 68.900" stroke="rgb(0,0,0)" stroke-width="0.20" />
</g>
<g id="p-9" style="fill:none;stroke-linecap:round;stroke-linejoin:round;">
  <text dominant-baseline="hanging" font-size="4px" style="font-family: sans-serif ; font-weight: normal; font-style: normal; fill: rgb(255,0,0)" text-anchor="middle" transform="matrix( 1.000 0.000 0.000 1.000 60.100 54.900 )">out box wall</text><path d="M 10.100 68.900 H 19.500 C 19.600 68.900 19.500 68.800 19.500 68.900 V 71.800 C 19.500 71.855 19.545 71.900 19.600 71.900 H 25.600 C 25.655 71.900 25.700 71.855 25.700 71.800 V 68.900 C 25.700 68.800 25.600 68.900 25.700 68.900 H 31.500 C 31.600 68.900 31.500 68.800 31.500 68.900 V 71.800 C 31.500 71.855 31.545 71.900 31.600 71.900 H 37.600 C 37.655 71.900 37.700 71.855 37.700 71.800 V 68.900 C 37.700 68.800 37.600 68.900 37.700 68.900 H 43.500 C 43.600 68.900 43.500 68.800 43.500 68.900 V 71.800 C 43.500 71.855 43.545 71.900 43.600 71.900 H 49.600 C 49.655 71.900 49.700 71.855 49.700 71.800 V 68.900 C 49.700 68.800 49.600 68.900 49.700 68.900 H 55.500 C 55.600 68.900 55.500 68.800 55.500 68.900 V 71.800 C 55.500 71.855 55.545 71.900 55.600 71.900 H 61.600 C 61.655 71.900 61.700 71.855 61.700 71.800 V 68.900 C 61.700 68.800 61.600 68.900 61.700 68.900 H 67.500 C 67.600 68.900 67.500 68.800 67.500 68.900 V 71.800 C 67.500 71.855 67.545 71.900 67.600 71.900 H 73.600 C 73.655 71.900 73.700 71.855 73.700 71.800 V 68.900 C 73.700 68.800 73.600 68.900 73.700 68.900 H 79.500 C 79.600 68.900 79.500 68.800 79.500 68.900 V 71.800 C 79.500 71.855 79.545 71.900 79.600 71.900 H 85.600 C 85.655 71.900 85.700 71.855 85.700 71.800 V 68.900 C 85.700 68.800 85.600 68.900 85.700 68.900 H 91.500 C 91.600 68.900 91.500 68.800 91.500 68.900 V 71.800 C 91.500 71.855 91.545 71.900 91.600 71.900 H 97.600 C 97.655 71.900 97.700 71.855 97.700 71.800 V 68.900 C 97.700 68.800 97.600 68.900 97.700 68.900 H 107.100 C 107.155 68.900 107.200 68.855 107.200 68.800 V 59.900 C 107.200 59.800 107.100 59.900 107.200 59.900 H 110.100 C 110.155 59.900 110.200 59.855 110.200 59.800 V 53.800 C 110.200 53.745 110.155 53.700 110.100 53.700 H 107.200 C 107.100 53.700 107.200 53.800 107.200 53.700 V 44.800 C 107.200 44.745 107.155 44.700 107.100 44.700 H 97.700 C 97.600 44.700 97.700 44.800 97.700 44.700 V 41.800 C 97.700 41.745 97.655 41.700 97.600 41.700 H 91.600 C 91.545 41.700 91.500 41.745 91.500 41.800 V 44.700 C 91.500 44.800 91.600 44.700 91.500 44.700 H 85.700 C 85.600 44.700 85.700 44.800 85.700 44.700 V 41.800 C 85.700 41.745 85.655 41.700 85.600 41.700 H 79.600 C 79.545 41.700 79.500 41.745 79.500 41.800 V 44.700 C 79.500 44.800 79.600 44.700 79.500 44.700 H 73.700 C 73.600 44.700 73.700 44.800 73.700 44.700 V 41.800 C 73.700 41.745 73.655 41.700 73.600 41.700 H 67.600 C 67.545 41.700 67.500 41.745 67.500 41.800 V 44.700 C 67.500 44.800 67.600 44.700 67.500 44.700 H 61.700 C 61.600 44.700 61.700 44.800 61.700 44.700 V 41.800 C 61.700 41.745 61.655 41.700 61.600 41.700 H 55.600 C 55.545 41.700 55.500 41.745 55.500 41.800 V 44.700 C 55.500 44.800 55.600 44.700 55.500 44.700 H 49.700 C 49.600 44.700 49.700 44.800 49.700 44.700 V 41.800 C 49.700 41.745 49.655 41.700 49.600 41.700 H 43.600 C 43.545 41.700 43.500 41.745 43.500 41.800 V 44.700 C 43.500 44.800 43.600 44.700 43.500 44.700 H 37.700 C 37.600 44.700 37.700 44.800 37.700 44.700 V 41.800 C 37.700 41.745 37.655 41.700 37.600 41.700 H 31.600 C 31.545 41.700 31.500 41.745 31.500 41.800 V 44.700 C 31.500 44.800 31.600 44.700 31.500 44.700 H 25.700 C 25.600 44.700 25.700 44.800 25.700 44.700 V 41.800 C 25.700 41.745 25.655 41.700 25.600 41.700 H 19.600 C 19.545 41.700 19.500 41.745 19.500 41.800 V 44.700 C 19.500 44.800 19.600 44.700 19.500 44.700 H 10.100 C 10.045 44.700 10.000 44.745 10.000 44.800 V 68.800 C 10.000 68.855 10.045 68.900 10.100 68.900" stroke="rgb(0,0,0)" stroke-width="0.20" />
</g>
<g id="p-10" style="fill:none;stroke-linecap:round;stroke-linejoin:round;">
  <text dominant-baseline="hanging" font-size="4px" style="font-family: sans-serif ; font-weight: normal; font-style: normal; fill: rgb(255,0,0)" text-anchor="middle" transform="matrix( 1.000 0.000 0.000 1.000 40.100 23.200 )">out box wall</text><path d="M 13.100 37.200 H 19.000 C 19.100 37.200 19.000 37.100 19.000 37.200 V 40.100 C 19.000 40.155 19.045 40.200 19.100 40.200 H 25.100 C 25.155 40.200 25.200 40.155 25.200 40.100 V 37.200 C 25.200 37.100 25.100 37.200 25.200 37.200 H 31.000 C 31.100 37.200 31.000 37.100 31.000 37.200 V 40.100 C 31.000 40.155 31.045 40.200 31.100 40.200 H 37.100 C 37.155 40.200 37.200 40.155 37.200 40.100 V 37.200 C 37.200 37.100 37.100 37.200 37.200 37.200 H 43.000 C 43.100 37.200 43.000 37.100 43.000 37.200 V 40.100 C 43.000 40.155 43.045 40.200 43.100 40.200 H 49.100 C 49.155 40.200 49.200 40.155 49.200 40.100 V 37.200 C 49.200 37.100 49.100 37.200 49.200 37.200 H 55.000 C 55.100 37.200 55.000 37.100 55.000 37.200 V 40.100 C 55.000 40.155 55.045 40.200 55.100 40.200 H 61.100 C 61.155 40.200 61.200 40.155 61.200 40.100 V 37.200 C 61.200 37.100 61.100 37.200 61.200 37.200 H 67.100 H 70.100 C 70.155 37.200 70.200 37.155 70.200 37.100 V 28.100 C 70.200 28.045 70.155 28.000 70.100 28.000 H 67.200 C 67.100 28.000 67.200 28.100 67.200 28.000 V 22.200 C 67.200 22.100 67.100 22.200 67.200 22.200 H 70.100 C 70.155 22.200 70.200 22.155 70.200 22.100 V 13.100 C 70.200 13.045 70.155 13.000 70.100 13.000 H 67.100 H 61.200 C 61.100 13.000 61.200 13.100 61.200 13.000 V 10.100 C 61.200 10.045 61.155 10.000 61.100 10.000 H 55.100 C 55.045 10.000 55.000 10.045 55.000 10.100 V 13.000 C 55.000 13.100 55.100 13.000 55.000 13.000 H 49.200 C 49.100 13.000 49.200 13.100 49.200 13.000 V 10.100 C 49.200 10.045 49.155 10.000 49.100 10.000 H 43.100 C 43.045 10.000 43.000 10.045 43.000 10.100 V 13.000 C 43.000 13.100 43.100 13.000 43.000 13.000 H 37.200 C 37.100 13.000 37.200 13.100 37.200 13.000 V 10.100 C 37.200 10.045 37.155 10.000 37.100 10.000 H 31.100 C 31.045 10.000 31.000 10.045 31.000 10.100 V 13.000 C 31.000 13.100 31.100 13.000 31.000 13.000 H 25.200 C 25.100 13.000 25.200 13.100 25.200 13.000 V 10.100 C 25.200 10.045 25.155 10.000 25.100 10.000 H 19.100 C 19.045 10.000 19.000 10.045 19.000 10.100 V 13.000 C 19.000 13.100 19.100 13.000 19.000 13.000 H 13.100 H 10.100 C 10.045 13.000 10.000 13.045 10.000 13.100 V 22.100 C 10.000 22.155 10.045 22.200 10.100 22.200 H 13.000 C 13.100 22.200 13.000 22.100 13.000 22.200 V 28.000 C 13.000 28.100 13.100 28.000 13.000 28.000 H 10.100 C 10.045 28.000 10.000 28.045 10.000 28.100 V 37.100 C 10.000 37.155 10.045 37.200 10.100 37.200 H 13.100" stroke="rgb(0,0,0)" stroke-width="0.20" />
</g>
</svg>