<?xml version='1.0' encoding='utf-8'?>
<svg height="199.58mm" viewBox="0.0 0.0 309.42 199.58" width="309.42mm" xmlns="http://www.w3.org/2000/svg" xmlns:cc="http://creativecommons.org/ns#" xmlns:dc="http://purl.org/dc/elements/1.1/" xmlns:inkscape="http://www.inkscape.org/namespaces/inkscape" xmlns:rdf="http://www.w3.org/1999/02/22-rdf-syntax-ns#" xmlns:svg="http://www.w3.org/2000/svg" xmlns:xlink="http://www.w3.org/1999/xlink">
<!--
SmallPartsTray - Tray with slants to easier get out game tokens or screws

Created with Boxes.py (https://festi.info/boxes.py)
Command line (remove spaces between dashes): boxes SmallPartsTray
-->
<title>SmallPartsTray</title>
<metadata>
<rdf:RDF><cc:Work>
<dc:title>Tray - SmallPartsTray</dc:title>
<dc:source>boxes SmallPartsTray</dc:source>
<dc:description>Tray with slants to easier get out game tokens or screws

Created with Boxes.py (https://festi.info/boxes.py)
Command line: boxes SmallPartsTray
Command line short: boxes SmallPartsTray
</dc:description>
</cc:Work></rdf:RDF></metadata>
<g id="p-0" style="fill:none;stroke-linecap:round;stroke-linejoin:round;">
  <path d="M 18.800 189.584 H 118.800 V 179.584 H 18.800 V 189.584 Z" stroke="rgb(0,0,0)" stroke-width="0.20" />
  <text dominant-baseline="hanging" font-size="8px" style="font-family: sans-serif ; font-weight: normal; font-style: normal; fill: rgb(255,0,0)" text-anchor="middle" transform="matrix( 1.000 0.000 0.000 1.000 68.800 180.584 )">100.00mm, burn:0.10mm</text>
</g>
<g id="p-1" style="fill:none;stroke-linecap:round;stroke-linejoin:round;">
  <path d="M 28.479 168.104 L 30.530 170.155 C 30.601 170.226 30.601 170.084 30.530 170.155 L 28.550 172.135 C 28.479 172.206 28.621 172.206 28.550 172.135 L 24.449 168.034 C 24.378 167.963 24.378 168.104 24.449 168.034 L 26.429 166.054 C 26.499 165.983 26.358 165.983 26.429 166.054 L 28.479 168.104 Z" stroke="rgb(0,0,255)" stroke-width="0.20" />
  <path d="M 111.101 170.084 L 109.050 172.135 C 108.979 172.206 109.121 172.206 109.050 172.135 L 107.070 170.155 C 106.999 170.084 106.999 170.226 107.070 170.155 L 111.171 166.054 C 111.242 165.983 111.101 165.983 111.171 166.054 L 113.151 168.034 C 113.222 168.104 113.222 167.963 113.151 168.034 L 111.101 170.084 Z" stroke="rgb(0,0,255)" stroke-width="0.20" />
  <path d="M 21.800 177.884 H 35.300 H 41.800 C 41.855 177.884 41.900 177.839 41.900 177.784 V 174.884 C 41.900 174.784 41.800 174.884 41.900 174.884 H 47.700 C 47.800 174.884 47.700 174.784 47.700 174.884 V 177.784 C 47.700 177.839 47.745 177.884 47.800 177.884 H 53.800 C 53.855 177.884 53.900 177.839 53.900 177.784 V 174.884 C 53.900 174.784 53.800 174.884 53.900 174.884 H 59.700 C 59.800 174.884 59.700 174.784 59.700 174.884 V 177.784 C 59.700 177.839 59.745 177.884 59.800 177.884 H 65.800 C 65.855 177.884 65.900 177.839 65.900 177.784 V 174.884 C 65.900 174.784 65.800 174.884 65.900 174.884 H 71.700 C 71.800 174.884 71.700 174.784 71.700 174.884 V 177.784 C 71.700 177.839 71.745 177.884 71.800 177.884 H 77.800 C 77.855 177.884 77.900 177.839 77.900 177.784 V 174.884 C 77.900 174.784 77.800 174.884 77.900 174.884 H 83.700 C 83.800 174.884 83.700 174.784 83.700 174.884 V 177.784 C 83.700 177.839 83.745 177.884 83.800 177.884 H 89.800 C 89.855 177.884 89.900 177.839 89.900 177.784 V 174.884 C 89.900 174.784 89.800 174.884 89.900 174.884 H 95.700 C 95.800 174.884 95.700 174.784 95.700 174.884 V 177.784 C 95.700 177.839 95.745 177.884 95.800 177.884 H 102.300 H 115.800 H 118.800 C 118.855 177.884 118.900 177.839 118.900 177.784 V 174.784 V 161.284 V 157.534 C 118.900 157.479 118.855 157.434 118.800 157.434 H 115.900 C 115.800 157.434 115.900 157.534 115.900 157.434 V 151.634 C 115.900 151.534 115.800 151.634 115.900 151.634 H 118.800 C 118.855 151.634 118.900 151.589 118.900 151.534 V 147.784 C 118.900 147.729 118.855 147.684 118.800 147.684 H 115.800 H 21.800 H 18.800 C 18.745 147.684 18.700 147.729 18.700 147.784 V 151.534 C 18.700 151.589 18.745 151.634 18.800 151.634 H 21.700 C 21.800 151.634 21.700 151.534 21.700 151.634 V 157.434 C 21.700 157.534 21.800 157.434 21.700 157.434 H 18.800 C 18.745 157.434 18.700 157.479 18.700 157.534 V 161.284 V 174.784 V 177.784 C 18.700 177.839 18.745 177.884 18.800 177.884 H 21.800 Z" stroke="rgb(0,0,0)" stroke-width="0.20" />
</g>
<g id="p-2" style="fill:none;stroke-linecap:round;stroke-linejoin:round;">
  <path d="M 109.121 136.404 L 107.070 138.455 C 106.999 138.526 106.999 138.384 107.070 138.455 L 109.050 140.435 C 109.121 140.506 108.979 140.506 109.050 140.435 L 113.151 136.334 C 113.222 136.263 113.222 136.404 113.151 136.334 L 111.171 134.354 C 111.101 134.283 111.242 134.283 111.171 134.354 L 109.121 136.404 Z" stroke="rgb(0,0,255)" stroke-width="0.20" />
  <path d="M 26.499 138.384 L 28.550 140.435 C 28.621 140.506 28.479 140.506 28.550 140.435 L 30.530 138.455 C 30.601 138.384 30.601 138.526 30.530 138.455 L 26.429 134.354 C 26.358 134.283 26.499 134.283 26.429 134.354 L 24.449 136.334 C 24.378 136.404 24.378 136.263 24.449 136.334 L 26.499 138.384 Z" stroke="rgb(0,0,255)" stroke-width="0.20" />
  <path d="M 115.800 146.184 H 102.300 H 95.800 C 95.745 146.184 95.700 146.139 95.700 146.084 V 143.184 C 95.700 143.084 95.800 143.184 95.700 143.184 H 89.900 C 89.800 143.184 89.900 143.084 89.900 143.184 V 146.084 C 89.900 146.139 89.855 146.184 89.800 146.184 H 83.800 C 83.745 146.184 83.700 146.139 83.700 146.084 V 143.184 C 83.700 143.084 83.800 143.184 83.700 143.184 H 77.900 C 77.800 143.184 77.900 143.084 77.900 143.184 V 146.084 C 77.900 146.139 77.855 146.184 77.800 146.184 H 71.800 C 71.745 146.184 71.700 146.139 71.700 146.084 V 143.184 C 71.700 143.084 71.800 143.184 71.700 143.184 H 65.900 C 65.800 143.184 65.900 143.084 65.900 143.184 V 146.084 C 65.900 146.139 65.855 146.184 65.800 146.184 H 59.800 C 59.745 146.184 59.700 146.139 59.700 146.084 V 143.184 C 59.700 143.084 59.800 143.184 59.700 143.184 H 53.900 C 53.800 143.184 53.900 143.084 53.900 143.184 V 146.084 C 53.900 146.139 53.855 146.184 53.800 146.184 H 47.800 C 47.745 146.184 47.700 146.139 47.700 146.084 V 143.184 C 47.700 143.084 47.800 143.184 47.700 143.184 H 41.900 C 41.800 143.184 41.900 143.084 41.900 143.184 V 146.084 C 41.900 146.139 41.855 146.184 41.800 146.184 H 35.300 H 21.800 H 18.800 C 18.745 146.184 18.700 146.139 18.700 146.084 V 143.084 V 129.584 V 125.834 C 18.700 125.779 18.745 125.734 18.800 125.734 H 21.700 C 21.800 125.734 21.700 125.834 21.700 125.734 V 119.934 C 21.700 119.834 21.800 119.934 21.700 119.934 H 18.800 C 18.745 119.934 18.700 119.889 18.700 119.834 V 116.084 C 18.700 116.029 18.745 115.984 18.800 115.984 H 21.800 H 115.800 H 118.800 C 118.855 115.984 118.900 116.029 118.900 116.084 V 119.834 C 118.900 119.889 118.855 119.934 118.800 119.934 H 115.900 C 115.800 119.934 115.900 119.834 115.900 119.934 V 125.734 C 115.900 125.834 115.800 125.734 115.900 125.734 H 118.800 C 118.855 125.734 118.900 125.779 118.900 125.834 V 129.584 V 143.084 V 146.084 C 118.900 146.139 118.855 146.184 118.800 146.184 H 115.800 Z" stroke="rgb(0,0,0)" stroke-width="0.20" />
</g>
<g id="p-3" style="fill:none;stroke-linecap:round;stroke-linejoin:round;">
  <path d="M 35.300 111.484 H 41.700 C 41.800 111.484 41.700 111.384 41.700 111.484 V 114.384 C 41.700 114.439 41.745 114.484 41.800 114.484 H 47.800 C 47.855 114.484 47.900 114.439 47.900 114.384 V 111.484 C 47.900 111.384 47.800 111.484 47.900 111.484 H 53.700 C 53.800 111.484 53.700 111.384 53.700 111.484 V 114.384 C 53.700 114.439 53.745 114.484 53.800 114.484 H 59.800 C 59.855 114.484 59.900 114.439 59.900 114.384 V 111.484 C 59.900 111.384 59.800 111.484 59.900 111.484 H 65.700 C 65.800 111.484 65.700 111.384 65.700 111.484 V 114.384 C 65.700 114.439 65.745 114.484 65.800 114.484 H 71.800 C 71.855 114.484 71.900 114.439 71.900 114.384 V 111.484 C 71.900 111.384 71.800 111.484 71.900 111.484 H 77.700 C 77.800 111.484 77.700 111.384 77.700 111.484 V 114.384 C 77.700 114.439 77.745 114.484 77.800 114.484 H 83.800 C 83.855 114.484 83.900 114.439 83.900 114.384 V 111.484 C 83.900 111.384 83.800 111.484 83.900 111.484 H 89.700 C 89.800 111.484 89.700 111.384 89.700 111.484 V 114.384 C 89.700 114.439 89.745 114.484 89.800 114.484 H 95.800 C 95.855 114.484 95.900 114.439 95.900 114.384 V 111.484 C 95.900 111.384 95.800 111.484 95.900 111.484 H 102.300 C 102.327 111.484 102.352 111.473 102.371 111.454 L 106.929 106.897 C 106.999 106.826 106.858 106.826 106.929 106.897 L 108.979 108.947 C 109.018 108.986 109.082 108.986 109.121 108.947 L 113.363 104.704 C 113.402 104.665 113.402 104.602 113.363 104.563 L 111.313 102.512 C 111.242 102.442 111.242 102.583 111.313 102.512 L 115.871 97.954 C 115.889 97.936 115.900 97.910 115.900 97.884 V 94.234 C 115.900 94.134 115.800 94.234 115.900 94.234 H 118.800 C 118.855 94.234 118.900 94.189 118.900 94.134 V 88.134 C 118.900 88.079 118.855 88.034 118.800 88.034 H 115.900 C 115.800 88.034 115.900 88.134 115.900 88.034 V 84.384 C 115.900 84.329 115.855 84.284 115.800 84.284 H 21.800 C 21.745 84.284 21.700 84.329 21.700 84.384 V 88.034 C 21.700 88.134 21.800 88.034 21.700 88.034 H 18.800 C 18.745 88.034 18.700 88.079 18.700 88.134 V 94.134 C 18.700 94.189 18.745 94.234 18.800 94.234 H 21.700 C 21.800 94.234 21.700 94.134 21.700 94.234 V 97.884 C 21.700 97.910 21.711 97.936 21.729 97.954 L 26.287 102.512 C 26.358 102.583 26.358 102.442 26.287 102.512 L 24.237 104.563 C 24.198 104.602 24.198 104.665 24.237 104.704 L 28.479 108.947 C 28.518 108.986 28.582 108.986 28.621 108.947 L 30.671 106.897 C 30.742 106.826 30.601 106.826 30.671 106.897 L 35.229 111.454 C 35.248 111.473 35.273 111.484 35.300 111.484 Z" stroke="rgb(0,0,0)" stroke-width="0.20" />
</g>
<g id="p-4" style="fill:none;stroke-linecap:round;stroke-linejoin:round;">
  <path d="M 35.300 79.784 H 41.700 C 41.800 79.784 41.700 79.684 41.700 79.784 V 82.684 C 41.700 82.739 41.745 82.784 41.800 82.784 H 47.800 C 47.855 82.784 47.900 82.739 47.900 82.684 V 79.784 C 47.900 79.684 47.800 79.784 47.900 79.784 H 53.700 C 53.800 79.784 53.700 79.684 53.700 79.784 V 82.684 C 53.700 82.739 53.745 82.784 53.800 82.784 H 59.800 C 59.855 82.784 59.900 82.739 59.900 82.684 V 79.784 C 59.900 79.684 59.800 79.784 59.900 79.784 H 65.700 C 65.800 79.784 65.700 79.684 65.700 79.784 V 82.684 C 65.700 82.739 65.745 82.784 65.800 82.784 H 71.800 C 71.855 82.784 71.900 82.739 71.900 82.684 V 79.784 C 71.900 79.684 71.800 79.784 71.900 79.784 H 77.700 C 77.800 79.784 77.700 79.684 77.700 79.784 V 82.684 C 77.700 82.739 77.745 82.784 77.800 82.784 H 83.800 C 83.855 82.784 83.900 82.739 83.900 82.684 V 79.784 C 83.900 79.684 83.800 79.784 83.900 79.784 H 89.700 C 89.800 79.784 89.700 79.684 89.700 79.784 V 82.684 C 89.700 82.739 89.745 82.784 89.800 82.784 H 95.800 C 95.855 82.784 95.900 82.739 95.900 82.684 V 79.784 C 95.900 79.684 95.800 79.784 95.900 79.784 H 102.300 C 102.327 79.784 102.352 79.773 102.371 79.754 L 106.929 75.197 C 106.999 75.126 106.858 75.126 106.929 75.197 L 108.979 77.247 C 109.018 77.286 109.082 77.286 109.121 77.247 L 113.363 73.004 C 113.402 72.965 113.402 72.902 113.363 72.863 L 111.313 70.812 C 111.242 70.742 111.242 70.883 111.313 70.812 L 115.871 66.254 C 115.889 66.236 115.900 66.210 115.900 66.184 V 62.534 C 115.900 62.434 115.800 62.534 115.900 62.534 H 118.800 C 118.855 62.534 118.900 62.489 118.900 62.434 V 56.434 C 118.900 56.379 118.855 56.334 118.800 56.334 H 115.900 C 115.800 56.334 115.900 56.434 115.900 56.334 V 52.684 C 115.900 52.629 115.855 52.584 115.800 52.584 H 21.800 C 21.745 52.584 21.700 52.629 21.700 52.684 V 56.334 C 21.700 56.434 21.800 56.334 21.700 56.334 H 18.800 C 18.745 56.334 18.700 56.379 18.700 56.434 V 62.434 C 18.700 62.489 18.745 62.534 18.800 62.534 H 21.700 C 21.800 62.534 21.700 62.434 21.700 62.534 V 66.184 C 21.700 66.210 21.711 66.236 21.729 66.254 L 26.287 70.812 C 26.358 70.883 26.358 70.742 26.287 70.812 L 24.237 72.863 C 24.198 72.902 24.198 72.965 24.237 73.004 L 28.479 77.247 C 28.518 77.286 28.582 77.286 28.621 77.247 L 30.671 75.197 C 30.742 75.126 30.601 75.126 30.671 75.197 L 35.229 79.754 C 35.248 79.773 35.273 79.784 35.300 79.784 Z" stroke="rgb(0,0,0)" stroke-width="0.20" />
</g>
<g id="p-5" style="fill:none;stroke-linecap:round;stroke-linejoin:round;">
  <path d="M 172.400 171.034 V 173.934 C 172.400 174.034 172.500 173.934 172.400 173.934 H 169.600 C 169.500 173.934 169.600 174.034 169.600 173.934 V 168.134 C 169.600 168.034 169.500 168.134 169.600 168.134 H 172.400 C 172.500 168.134 172.400 168.034 172.400 168.134 V 171.034 Z" stroke="rgb(0,0,255)" stroke-width="0.20" />
  <path d="M 221.400 171.034 V 173.934 C 221.400 174.034 221.500 173.934 221.400 173.934 H 218.600 C 218.500 173.934 218.600 174.034 218.600 173.934 V 168.134 C 218.600 168.034 218.500 168.134 218.600 168.134 H 221.400 C 221.500 168.134 221.400 168.034 221.400 168.134 V 171.034 Z" stroke="rgb(0,0,255)" stroke-width="0.20" />
  <path d="M 123.500 177.884 H 267.500 C 267.555 177.884 267.600 177.839 267.600 177.784 V 174.134 C 267.600 174.034 267.500 174.134 267.600 174.134 H 270.500 C 270.555 174.134 270.600 174.089 270.600 174.034 V 168.034 C 270.600 167.979 270.555 167.934 270.500 167.934 H 267.600 C 267.500 167.934 267.600 168.034 267.600 167.934 V 164.284 C 267.600 164.229 267.555 164.184 267.500 164.184 H 123.500 C 123.445 164.184 123.400 164.229 123.400 164.284 V 167.934 C 123.400 168.034 123.500 167.934 123.400 167.934 H 120.500 C 120.445 167.934 120.400 167.979 120.400 168.034 V 174.034 C 120.400 174.089 120.445 174.134 120.500 174.134 H 123.400 C 123.500 174.134 123.400 174.034 123.400 174.134 V 177.784 C 123.400 177.839 123.445 177.884 123.500 177.884 Z" stroke="rgb(0,0,0)" stroke-width="0.20" />
</g>
<g id="p-6" style="fill:none;stroke-linecap:round;stroke-linejoin:round;">
  <path d="M 172.400 153.038 V 155.938 C 172.400 156.038 172.500 155.938 172.400 155.938 H 169.600 C 169.500 155.938 169.600 156.038 169.600 155.938 V 150.138 C 169.600 150.038 169.500 150.138 169.600 150.138 H 172.400 C 172.500 150.138 172.400 150.038 172.400 150.138 V 153.038 Z" stroke="rgb(0,0,255)" stroke-width="0.20" />
  <path d="M 221.400 153.038 V 155.938 C 221.400 156.038 221.500 155.938 221.400 155.938 H 218.600 C 218.500 155.938 218.600 156.038 218.600 155.938 V 150.138 C 218.600 150.038 218.500 150.138 218.600 150.138 H 221.400 C 221.500 150.138 221.400 150.038 221.400 150.138 V 153.038 Z" stroke="rgb(0,0,255)" stroke-width="0.20" />
  <path d="M 123.500 162.684 H 267.500 C 267.555 162.684 267.600 162.639 267.600 162.584 V 156.138 C 267.600 156.038 267.500 156.138 267.600 156.138 H 270.500 C 270.555 156.138 270.600 156.093 270.600 156.038 V 150.038 C 270.600 149.983 270.555 149.938 270.500 149.938 H 267.600 C 267.500 149.938 267.600 150.038 267.600 149.938 V 143.492 C 267.600 143.437 267.555 143.392 267.500 143.392 H 123.500 C 123.445 143.392 123.400 143.437 123.400 143.492 V 149.938 C 123.400 150.038 123.500 149.938 123.400 149.938 H 120.500 C 120.445 149.938 120.400 149.983 120.400 150.038 V 156.038 C 120.400 156.093 120.445 156.138 120.500 156.138 H 123.400 C 123.500 156.138 123.400 156.038 123.400 156.138 V 162.584 C 123.400 162.639 123.445 162.684 123.500 162.684 Z" stroke="rgb(0,0,0)" stroke-width="0.20" />
</g>
<g id="p-7" style="fill:none;stroke-linecap:round;stroke-linejoin:round;">
  <path d="M 172.400 132.292 V 135.192 C 172.400 135.292 172.500 135.192 172.400 135.192 H 169.600 C 169.500 135.192 169.600 135.292 169.600 135.192 V 129.392 C 169.600 129.292 169.500 129.392 169.600 129.392 H 172.400 C 172.500 129.392 172.400 129.292 172.400 129.392 V 132.292 Z" stroke="rgb(0,0,255)" stroke-width="0.20" />
  <path d="M 172.400 120.292 V 123.192 C 172.400 123.292 172.500 123.192 172.400 123.192 H 169.600 C 169.500 123.192 169.600 123.292 169.600 123.192 V 117.392 C 169.600 117.292 169.500 117.392 169.600 117.392 H 172.400 C 172.500 117.392 172.400 117.292 172.400 117.392 V 120.292 Z" stroke="rgb(0,0,255)" stroke-width="0.20" />
  <path d="M 172.400 108.292 V 111.192 C 172.400 111.292 172.500 111.192 172.400 111.192 H 169.600 C 169.500 111.192 169.600 111.292 169.600 111.192 V 105.392 C 169.600 105.292 169.500 105.392 169.600 105.392 H 172.400 C 172.500 105.392 172.400 105.292 172.400 105.392 V 108.292 Z" stroke="rgb(0,0,255)" stroke-width="0.20" />
  <path d="M 172.400 96.292 V 99.192 C 172.400 99.292 172.500 99.192 172.400 99.192 H 169.600 C 169.500 99.192 169.600 99.292 169.600 99.192 V 93.392 C 169.600 93.292 169.500 93.392 169.600 93.392 H 172.400 C 172.500 93.392 172.400 93.292 172.400 93.392 V 96.292 Z" stroke="rgb(0,0,255)" stroke-width="0.20" />
  <path d="M 172.400 84.292 V 87.192 C 172.400 87.292 172.500 87.192 172.400 87.192 H 169.600 C 169.500 87.192 169.600 87.292 169.600 87.192 V 81.392 C 169.600 81.292 169.500 81.392 169.600 81.392 H 172.400 C 172.500 81.392 172.400 81.292 172.400 81.392 V 84.292 Z" stroke="rgb(0,0,255)" stroke-width="0.20" />
  <path d="M 221.400 132.292 V 135.192 C 221.400 135.292 221.500 135.192 221.400 135.192 H 218.600 C 218.500 135.192 218.600 135.292 218.600 135.192 V 129.392 C 218.600 129.292 218.500 129.392 218.600 129.392 H 221.400 C 221.500 129.392 221.400 129.292 221.400 129.392 V 132.292 Z" stroke="rgb(0,0,255)" stroke-width="0.20" />
  <path d="M 221.400 120.292 V 123.192 C 221.400 123.292 221.500 123.192 221.400 123.192 H 218.600 C 218.500 123.192 218.600 123.292 218.600 123.192 V 117.392 C 218.600 117.292 218.500 117.392 218.600 117.392 H 221.400 C 221.500 117.392 221.400 117.292 221.400 117.392 V 120.292 Z" stroke="rgb(0,0,255)" stroke-width="0.20" />
  <path d="M 221.400 108.292 V 111.192 C 221.400 111.292 221.500 111.192 221.400 111.192 H 218.600 C 218.500 111.192 218.600 111.292 218.600 111.192 V 105.392 C 218.600 105.292 218.500 105.392 218.600 105.392 H 221.400 C 221.500 105.392 221.400 105.292 221.400 105.392 V 108.292 Z" stroke="rgb(0,0,255)" stroke-width="0.20" />
  <path d="M 221.400 96.292 V 99.192 C 221.400 99.292 221.500 99.192 221.400 99.192 H 218.600 C 218.500 99.192 218.600 99.292 218.600 99.192 V 93.392 C 218.600 93.292 218.500 93.392 218.600 93.392 H 221.400 C 221.500 93.392 221.400 93.292 221.400 93.392 V 96.292 Z" stroke="rgb(0,0,255)" stroke-width="0.20" />
  <path d="M 221.400 84.292 V 87.192 C 221.400 87.292 221.500 87.192 221.400 87.192 H 218.600 C 218.500 87.192 218.600 87.292 218.600 87.192 V 81.392 C 218.600 81.292 218.500 81.392 218.600 81.392 H 221.400 C 221.500 81.392 221.400 81.292 221.400 81.392 V 84.292 Z" stroke="rgb(0,0,255)" stroke-width="0.20" />
  <path d="M 123.500 141.892 H 267.500 C 267.555 141.892 267.600 141.847 267.600 141.792 V 135.392 C 267.600 135.292 267.500 135.392 267.600 135.392 H 270.500 C 270.555 135.392 270.600 135.347 270.600 135.292 V 129.292 C 270.600 129.237 270.555 129.192 270.500 129.192 H 267.600 C 267.500 129.192 267.600 129.292 267.600 129.192 V 123.392 C 267.600 123.292 267.500 123.392 267.600 123.392 H 270.500 C 270.555 123.392 270.600 123.347 270.600 123.292 V 117.292 C 270.600 117.237 270.555 117.192 270.500 117.192 H 267.600 C 267.500 117.192 267.600 117.292 267.600 117.192 V 111.392 C 267.600 111.292 267.500 111.392 267.600 111.392 H 270.500 C 270.555 111.392 270.600 111.347 270.600 111.292 V 105.292 C 270.600 105.237 270.555 105.192 270.500 105.192 H 267.600 C 267.500 105.192 267.600 105.292 267.600 105.192 V 99.392 C 267.600 99.292 267.500 99.392 267.600 99.392 H 270.500 C 270.555 99.392 270.600 99.347 270.600 99.292 V 93.292 C 270.600 93.237 270.555 93.192 270.500 93.192 H 267.600 C 267.500 93.192 267.600 93.292 267.600 93.192 V 87.392 C 267.600 87.292 267.500 87.392 267.600 87.392 H 270.500 C 270.555 87.392 270.600 87.347 270.600 87.292 V 81.292 C 270.600 81.237 270.555 81.192 270.500 81.192 H 267.600 C 267.500 81.192 267.600 81.292 267.600 81.192 V 74.792 C 267.600 74.737 267.555 74.692 267.500 74.692 H 123.500 C 123.445 74.692 123.400 74.737 123.400 74.792 V 81.192 C 123.400 81.292 123.500 81.192 123.400 81.192 H 120.500 C 120.445 81.192 120.400 81.237 120.400 81.292 V 87.292 C 120.400 87.347 120.445 87.392 120.500 87.392 H 123.400 C 123.500 87.392 123.400 87.292 123.400 87.392 V 93.192 C 123.400 93.292 123.500 93.192 123.400 93.192 H 120.500 C 120.445 93.192 120.400 93.237 120.400 93.292 V 99.292 C 120.400 99.347 120.445 99.392 120.500 99.392 H 123.400 C 123.500 99.392 123.400 99.292 123.400 99.392 V 105.192 C 123.400 105.292 123.500 105.192 123.400 105.192 H 120.500 C 120.445 105.192 120.400 105.237 120.400 105.292 V 111.292 C 120.400 111.347 120.445 111.392 120.500 111.392 H 123.400 C 123.500 111.392 123.400 111.292 123.400 111.392 V 117.192 C 123.400 117.292 123.500 117.192 123.400 117.192 H 120.500 C 120.445 117.192 120.400 117.237 120.400 117.292 V 123.292 C 120.400 123.347 120.445 123.392 120.500 123.392 H 123.400 C 123.500 123.392 123.400 123.292 123.400 123.392 V 129.192 C 123.400 129.292 123.500 129.192 123.400 129.192 H 120.500 C 120.445 129.192 120.400 129.237 120.400 129.292 V 135.292 C 120.400 135.347 120.445 135.392 120.500 135.392 H 123.400 C 123.500 135.392 123.400 135.292 123.400 135.392 V 141.792 C 123.400 141.847 123.445 141.892 123.500 141.892 Z" stroke="rgb(0,0,0)" stroke-width="0.20" />
</g>
<g id="p-8" style="fill:none;stroke-linecap:round;stroke-linejoin:round;">
  <path d="M 172.400 63.546 V 66.446 C 172.400 66.546 172.500 66.446 172.400 66.446 H 169.600 C 169.500 66.446 169.600 66.546 169.600 66.446 V 60.646 C 169.600 60.546 169.500 60.646 169.600 60.646 H 172.400 C 172.500 60.646 172.400 60.546 172.400 60.646 V 63.546 Z" stroke="rgb(0,0,255)" stroke-width="0.20" />
  <path d="M 221.400 63.546 V 66.446 C 221.400 66.546 221.500 66.446 221.400 66.446 H 218.600 C 218.500 66.446 218.600 66.546 218.600 66.446 V 60.646 C 218.600 60.546 218.500 60.646 218.600 60.646 H 221.400 C 221.500 60.646 221.400 60.546 221.400 60.646 V 63.546 Z" stroke="rgb(0,0,255)" stroke-width="0.20" />
  <path d="M 123.500 73.192 H 267.500 C 267.555 73.192 267.600 73.147 267.600 73.092 V 66.646 C 267.600 66.546 267.500 66.646 267.600 66.646 H 270.500 C 270.555 66.646 270.600 66.601 270.600 66.546 V 60.546 C 270.600 60.491 270.555 60.446 270.500 60.446 H 267.600 C 267.500 60.446 267.600 60.546 267.600 60.446 V 54.000 C 267.600 53.945 267.555 53.900 267.500 53.900 H 123.500 C 123.445 53.900 123.400 53.945 123.400 54.000 V 60.446 C 123.400 60.546 123.500 60.446 123.400 60.446 H 120.500 C 120.445 60.446 120.400 60.491 120.400 60.546 V 66.546 C 120.400 66.601 120.445 66.646 120.500 66.646 H 123.400 C 123.500 66.646 123.400 66.546 123.400 66.646 V 73.092 C 123.400 73.147 123.445 73.192 123.500 73.192 Z" stroke="rgb(0,0,0)" stroke-width="0.20" />
</g>
<g id="p-9" style="fill:none;stroke-linecap:round;stroke-linejoin:round;">
  <path d="M 172.400 45.550 V 48.450 C 172.400 48.550 172.500 48.450 172.400 48.450 H 169.600 C 169.500 48.450 169.600 48.550 169.600 48.450 V 42.650 C 169.600 42.550 169.500 42.650 169.600 42.650 H 172.400 C 172.500 42.650 172.400 42.550 172.400 42.650 V 45.550 Z" stroke="rgb(0,0,255)" stroke-width="0.20" />
  <path d="M 221.400 45.550 V 48.450 C 221.400 48.550 221.500 48.450 221.400 48.450 H 218.600 C 218.500 48.450 218.600 48.550 218.600 48.450 V 42.650 C 218.600 42.550 218.500 42.650 218.600 42.650 H 221.400 C 221.500 42.650 221.400 42.550 221.400 42.650 V 45.550 Z" stroke="rgb(0,0,255)" stroke-width="0.20" />
  <path d="M 123.500 52.400 H 267.500 C 267.555 52.400 267.600 52.355 267.600 52.300 V 48.650 C 267.600 48.550 267.500 48.650 267.600 48.650 H 270.500 C 270.555 48.650 270.600 48.605 270.600 48.550 V 42.550 C 270.600 42.495 270.555 42.450 270.500 42.450 H 267.600 C 267.500 42.450 267.600 42.550 267.600 42.450 V 38.800 C 267.600 38.745 267.555 38.700 267.500 38.700 H 123.500 C 123.445 38.700 123.400 38.745 123.400 38.800 V 42.450 C 123.400 42.550 123.500 42.450 123.400 42.450 H 120.500 C 120.445 42.450 120.400 42.495 120.400 42.550 V 48.550 C 120.400 48.605 120.445 48.650 120.500 48.650 H 123.400 C 123.500 48.650 123.400 48.550 123.400 48.650 V 52.300 C 123.400 52.355 123.445 52.400 123.500 52.400 Z" stroke="rgb(0,0,0)" stroke-width="0.20" />
</g>
<g id="p-10" style="fill:none;stroke-linecap:round;stroke-linejoin:round;">
  <path d="M 123.500 37.200 H 163.500 C 163.555 37.200 163.600 37.155 163.600 37.100 V 34.200 C 163.600 34.100 163.500 34.200 163.600 34.200 H 166.500 C 166.555 34.200 166.600 34.155 166.600 34.100 V 10.100 C 166.600 10.045 166.555 10.000 166.500 10.000 H 120.500 C 120.445 10.000 120.400 10.045 120.400 10.100 V 34.100 C 120.400 34.155 120.445 34.200 120.500 34.200 H 123.400 C 123.500 34.200 123.400 34.100 123.400 34.200 V 37.100 C 123.400 37.155 123.445 37.200 123.500 37.200 Z" stroke="rgb(0,0,0)" stroke-width="0.20" />
</g>
<g id="p-11" style="fill:none;stroke-linecap:round;stroke-linejoin:round;">
  <path d="M 171.200 37.200 H 211.200 C 211.255 37.200 211.300 37.155 211.300 37.100 V 34.200 C 211.300 34.100 211.200 34.200 211.300 34.200 H 214.200 C 214.255 34.200 214.300 34.155 214.300 34.100 V 10.100 C 214.300 10.045 214.255 10.000 214.200 10.000 H 168.200 C 168.145 10.000 168.100 10.045 168.100 10.100 V 34.100 C 168.100 34.155 168.145 34.200 168.200 34.200 H 171.100 C 171.200 34.200 171.100 34.100 171.100 34.200 V 37.100 C 171.100 37.155 171.145 37.200 171.200 37.200 Z" stroke="rgb(0,0,0)" stroke-width="0.20" />
</g>
<g id="p-12" style="fill:none;stroke-linecap:round;stroke-linejoin:round;">
  <path d="M 218.900 37.200 H 258.900 C 258.955 37.200 259.000 37.155 259.000 37.100 V 34.200 C 259.000 34.100 258.900 34.200 259.000 34.200 H 261.900 C 261.955 34.200 262.000 34.155 262.000 34.100 V 10.100 C 262.000 10.045 261.955 10.000 261.900 10.000 H 215.900 C 215.845 10.000 215.800 10.045 215.800 10.100 V 34.100 C 215.800 34.155 215.845 34.200 215.900 34.200 H 218.800 C 218.900 34.200 218.800 34.100 218.800 34.200 V 37.100 C 218.800 37.155 218.845 37.200 218.900 37.200 Z" stroke="rgb(0,0,0)" stroke-width="0.20" />
</g>
<g id="p-13" style="fill:none;stroke-linecap:round;stroke-linejoin:round;">
  <path d="M 263.700 37.200 H 272.185 C 272.205 37.200 272.224 37.194 272.241 37.183 C 272.257 37.172 272.270 37.157 272.278 37.138 C 272.285 37.120 272.287 37.100 272.283 37.080 C 272.280 37.061 272.270 37.043 272.256 37.029 L 270.205 34.979 C 270.135 34.908 270.135 35.049 270.205 34.979 L 272.185 32.999 C 272.256 32.928 272.115 32.928 272.185 32.999 L 274.236 35.049 C 274.250 35.063 274.268 35.073 274.287 35.077 C 274.306 35.081 274.327 35.079 274.345 35.071 C 274.363 35.063 274.379 35.051 274.390 35.034 C 274.401 35.018 274.407 34.998 274.407 34.979 V 26.493 C 274.407 26.474 274.401 26.454 274.390 26.438 C 274.379 26.421 274.363 26.409 274.345 26.401 C 274.327 26.393 274.306 26.391 274.287 26.395 C 274.268 26.399 274.250 26.409 274.236 26.423 L 263.629 37.029 C 263.615 37.043 263.606 37.061 263.602 37.080 C 263.598 37.100 263.600 37.120 263.608 37.138 C 263.615 37.157 263.628 37.172 263.644 37.183 C 263.661 37.194 263.680 37.200 263.700 37.200 Z M 274.236 26.423 C 274.250 26.409 274.259 26.391 274.263 26.371 C 274.267 26.352 274.265 26.332 274.258 26.314 C 274.250 26.295 274.237 26.280 274.221 26.269 C 274.204 26.258 274.185 26.252 274.165 26.252 H 265.680 C 265.660 26.252 265.641 26.258 265.624 26.269 C 265.608 26.280 265.595 26.295 265.588 26.314 C 265.580 26.332 265.578 26.352 265.582 26.371 C 265.586 26.391 265.595 26.409 265.609 26.423 L 267.660 28.473 C 267.731 28.544 267.731 28.403 267.660 28.473 L 265.680 30.453 C 265.609 30.524 265.751 30.524 265.680 30.453 L 263.629 28.403 C 263.615 28.389 263.597 28.379 263.578 28.375 C 263.559 28.371 263.539 28.373 263.520 28.381 C 263.502 28.388 263.486 28.401 263.475 28.418 C 263.464 28.434 263.459 28.454 263.459 28.473 V 36.959 C 263.459 36.978 263.464 36.998 263.475 37.014 C 263.486 37.031 263.502 37.043 263.520 37.051 C 263.539 37.059 263.559 37.061 263.578 37.057 C 263.597 37.053 263.615 37.043 263.629 37.029" stroke="rgb(0,0,0)" stroke-width="0.20" />
</g>
<g id="p-14" style="fill:none;stroke-linecap:round;stroke-linejoin:round;">
  <path d="M 276.207 37.200 H 284.692 C 284.712 37.200 284.731 37.194 284.747 37.183 C 284.764 37.172 284.777 37.157 284.784 37.138 C 284.792 37.120 284.794 37.100 284.790 37.080 C 284.786 37.061 284.777 37.043 284.763 37.029 L 282.712 34.979 C 282.641 34.908 282.641 35.049 282.712 34.979 L 284.692 32.999 C 284.763 32.928 284.621 32.928 284.692 32.999 L 286.742 35.049 C 286.756 35.063 286.774 35.073 286.794 35.077 C 286.813 35.081 286.833 35.079 286.851 35.071 C 286.870 35.063 286.885 35.051 286.896 35.034 C 286.907 35.018 286.913 34.998 286.913 34.979 V 26.493 C 286.913 26.474 286.907 26.454 286.896 26.438 C 286.885 26.421 286.870 26.409 286.851 26.401 C 286.833 26.393 286.813 26.391 286.794 26.395 C 286.774 26.399 286.756 26.409 286.742 26.423 L 276.136 37.029 C 276.122 37.043 276.112 37.061 276.109 37.080 C 276.105 37.100 276.107 37.120 276.114 37.138 C 276.122 37.157 276.135 37.172 276.151 37.183 C 276.167 37.194 276.187 37.200 276.207 37.200 Z M 286.742 26.423 C 286.756 26.409 286.766 26.391 286.770 26.371 C 286.774 26.352 286.772 26.332 286.764 26.314 C 286.757 26.295 286.744 26.280 286.727 26.269 C 286.711 26.258 286.692 26.252 286.672 26.252 H 278.187 C 278.167 26.252 278.147 26.258 278.131 26.269 C 278.114 26.280 278.102 26.295 278.094 26.314 C 278.087 26.332 278.085 26.352 278.088 26.371 C 278.092 26.391 278.102 26.409 278.116 26.423 L 280.166 28.473 C 280.237 28.544 280.237 28.403 280.166 28.473 L 278.187 30.453 C 278.116 30.524 278.257 30.524 278.187 30.453 L 276.136 28.403 C 276.122 28.389 276.104 28.379 276.085 28.375 C 276.065 28.371 276.045 28.373 276.027 28.381 C 276.009 28.388 275.993 28.401 275.982 28.418 C 275.971 28.434 275.965 28.454 275.965 28.473 V 36.959 C 275.965 36.978 275.971 36.998 275.982 37.014 C 275.993 37.031 276.009 37.043 276.027 37.051 C 276.045 37.059 276.065 37.061 276.085 37.057 C 276.104 37.053 276.122 37.043 276.136 37.029" stroke="rgb(0,0,0)" stroke-width="0.20" />
</g>
<g id="p-15" style="fill:none;stroke-linecap:round;stroke-linejoin:round;">
  <path d="M 288.713 37.200 H 297.198 C 297.218 37.200 297.238 37.194 297.254 37.183 C 297.270 37.172 297.283 37.157 297.291 37.138 C 297.298 37.120 297.300 37.100 297.297 37.080 C 297.293 37.061 297.283 37.043 297.269 37.029 L 295.219 34.979 C 295.148 34.908 295.148 35.049 295.219 34.979 L 297.198 32.999 C 297.269 32.928 297.128 32.928 297.198 32.999 L 299.249 35.049 C 299.263 35.063 299.281 35.073 299.300 35.077 C 299.320 35.081 299.340 35.079 299.358 35.071 C 299.376 35.063 299.392 35.051 299.403 35.034 C 299.414 35.018 299.420 34.998 299.420 34.979 V 26.493 C 299.420 26.474 299.414 26.454 299.403 26.438 C 299.392 26.421 299.376 26.409 299.358 26.401 C 299.340 26.393 299.320 26.391 299.300 26.395 C 299.281 26.399 299.263 26.409 299.249 26.423 L 288.642 37.029 C 288.629 37.043 288.619 37.061 288.615 37.080 C 288.611 37.100 288.613 37.120 288.621 37.138 C 288.628 37.157 288.641 37.172 288.658 37.183 C 288.674 37.194 288.693 37.200 288.713 37.200 Z M 299.249 26.423 C 299.263 26.409 299.273 26.391 299.276 26.371 C 299.280 26.352 299.278 26.332 299.271 26.314 C 299.263 26.295 299.250 26.280 299.234 26.269 C 299.217 26.258 299.198 26.252 299.178 26.252 H 290.693 C 290.673 26.252 290.654 26.258 290.638 26.269 C 290.621 26.280 290.608 26.295 290.601 26.314 C 290.593 26.332 290.591 26.352 290.595 26.371 C 290.599 26.391 290.608 26.409 290.622 26.423 L 292.673 28.473 C 292.744 28.544 292.744 28.403 292.673 28.473 L 290.693 30.453 C 290.622 30.524 290.764 30.524 290.693 30.453 L 288.642 28.403 C 288.629 28.389 288.611 28.379 288.591 28.375 C 288.572 28.371 288.552 28.373 288.534 28.381 C 288.515 28.388 288.500 28.401 288.489 28.418 C 288.478 28.434 288.472 28.454 288.472 28.473 V 36.959 C 288.472 36.978 288.478 36.998 288.489 37.014 C 288.500 37.031 288.515 37.043 288.534 37.051 C 288.552 37.059 288.572 37.061 288.591 37.057 C 288.611 37.053 288.629 37.043 288.642 37.029" stroke="rgb(0,0,0)" stroke-width="0.20" />
</g>
</svg>