<?xml version='1.0' encoding='utf-8'?>
<svg height="409.86mm" viewBox="0.0 0.0 330.60 409.86" width="330.60mm" xmlns="http://www.w3.org/2000/svg" xmlns:cc="http://creativecommons.org/ns#" xmlns:dc="http://purl.org/dc/elements/1.1/" xmlns:inkscape="http://www.inkscape.org/namespaces/inkscape" xmlns:rdf="http://www.w3.org/1999/02/22-rdf-syntax-ns#" xmlns:svg="http://www.w3.org/2000/svg" xmlns:xlink="http://www.w3.org/1999/xlink">
<!--
SmallPartsTray2 - A Type Tray variant with slopes toward the front


Assemble inside out. If there are inner front to back walls start with attaching the floor boards to them. Then add the vertical inner left to right walls. After sliding in the slopes attach the outer wall to fix everything in place.

If there are no inner front to back walls just add everything to one side wall and then add the other one after that. Possibly saving the front and back as last step.


Created with Boxes.py (https://festi.info/boxes.py)
Command line (remove spaces between dashes): boxes SmallPartsTray2
-->
<title>SmallPartsTray2</title>
<metadata>
<rdf:RDF><cc:Work>
<dc:title>Tray - SmallPartsTray2</dc:title>
<dc:source>boxes SmallPartsTray2</dc:source>
<dc:description>A Type Tray variant with slopes toward the front

Assemble inside out. If there are inner front to back walls start with attaching the floor boards to them. Then add the vertical inner left to right walls. After sliding in the slopes attach the outer wall to fix everything in place.

If there are no inner front to back walls just add everything to one side wall and then add the other one after that. Possibly saving the front and back as last step.

Created with Boxes.py (https://festi.info/boxes.py)
Command line: boxes SmallPartsTray2
Command line short: boxes SmallPartsTray2
</dc:description>
</cc:Work></rdf:RDF></metadata>
<g id="p-0" style="fill:none;stroke-linecap:round;stroke-linejoin:round;">
  <path d="M 18.800 399.859 H 118.800 V 389.859 H 18.800 V 399.859 Z" stroke="rgb(0,0,0)" stroke-width="0.20" />
  <text dominant-baseline="hanging" font-size="8px" style="font-family: sans-serif ; font-weight: normal; font-style: normal; fill: rgb(255,0,0)" text-anchor="middle" transform="matrix( 1.000 0.000 0.000 1.000 68.800 390.859 )">100.00mm, burn:0.10mm</text>
</g>
<g id="p-1" style="fill:none;stroke-linecap:round;stroke-linejoin:round;">
  <path d="M 70.700 377.559 V 380.459 C 70.700 380.559 70.800 380.459 70.700 380.459 H 67.900 C 67.800 380.459 67.900 380.559 67.900 380.459 V 374.659 C 67.900 374.559 67.800 374.659 67.900 374.659 H 70.700 C 70.800 374.659 70.700 374.559 70.700 374.659 V 377.559 Z" stroke="rgb(0,0,255)" stroke-width="0.20" />
  <path d="M 70.700 365.559 V 368.459 C 70.700 368.559 70.800 368.459 70.700 368.459 H 67.900 C 67.800 368.459 67.900 368.559 67.900 368.459 V 362.659 C 67.900 362.559 67.800 362.659 67.900 362.659 H 70.700 C 70.800 362.659 70.700 362.559 70.700 362.659 V 365.559 Z" stroke="rgb(0,0,255)" stroke-width="0.20" />
  <path d="M 119.700 377.559 V 380.459 C 119.700 380.559 119.800 380.459 119.700 380.459 H 116.900 C 116.800 380.459 116.900 380.559 116.900 380.459 V 374.659 C 116.900 374.559 116.800 374.659 116.900 374.659 H 119.700 C 119.800 374.659 119.700 374.559 119.700 374.659 V 377.559 Z" stroke="rgb(0,0,255)" stroke-width="0.20" />
  <path d="M 119.700 365.559 V 368.459 C 119.700 368.559 119.800 368.459 119.700 368.459 H 116.900 C 116.800 368.459 116.900 368.559 116.900 368.459 V 362.659 C 116.900 362.559 116.800 362.659 116.900 362.659 H 119.700 C 119.800 362.659 119.700 362.559 119.700 362.659 V 365.559 Z" stroke="rgb(0,0,255)" stroke-width="0.20" />
  <text dominant-baseline="hanging" font-size="4px" style="font-family: sans-serif ; font-weight: normal; font-style: normal; fill: rgb(255,0,0)" text-anchor="middle" transform="matrix( 1.000 0.000 0.000 1.000 93.800 371.159 )">back</text><path d="M 21.800 388.159 H 24.800 C 24.855 388.159 24.900 388.115 24.900 388.059 V 385.159 C 24.900 385.059 24.800 385.159 24.900 385.159 H 30.700 C 30.800 385.159 30.700 385.059 30.700 385.159 V 388.059 C 30.700 388.115 30.745 388.159 30.800 388.159 H 36.800 C 36.855 388.159 36.900 388.115 36.900 388.059 V 385.159 C 36.900 385.059 36.800 385.159 36.900 385.159 H 42.700 C 42.800 385.159 42.700 385.059 42.700 385.159 V 388.059 C 42.700 388.115 42.745 388.159 42.800 388.159 H 48.800 C 48.855 388.159 48.900 388.115 48.900 388.059 V 385.159 C 48.900 385.059 48.800 385.159 48.900 385.159 H 54.700 C 54.800 385.159 54.700 385.059 54.700 385.159 V 388.059 C 54.700 388.115 54.745 388.159 54.800 388.159 H 60.800 C 60.855 388.159 60.900 388.115 60.900 388.059 V 385.159 C 60.900 385.059 60.800 385.159 60.900 385.159 H 66.700 C 66.800 385.159 66.700 385.059 66.700 385.159 V 388.059 C 66.700 388.115 66.745 388.159 66.800 388.159 H 72.800 C 72.855 388.159 72.900 388.115 72.900 388.059 V 385.159 C 72.900 385.059 72.800 385.159 72.900 385.159 H 78.700 C 78.800 385.159 78.700 385.059 78.700 385.159 V 388.059 C 78.700 388.115 78.745 388.159 78.800 388.159 H 84.800 C 84.855 388.159 84.900 388.115 84.900 388.059 V 385.159 C 84.900 385.059 84.800 385.159 84.900 385.159 H 90.700 C 90.800 385.159 90.700 385.059 90.700 385.159 V 388.059 C 90.700 388.115 90.745 388.159 90.800 388.159 H 96.800 C 96.855 388.159 96.900 388.115 96.900 388.059 V 385.159 C 96.900 385.059 96.800 385.159 96.900 385.159 H 102.700 C 102.800 385.159 102.700 385.059 102.700 385.159 V 388.059 C 102.700 388.115 102.745 388.159 102.800 388.159 H 108.800 C 108.855 388.159 108.900 388.115 108.900 388.059 V 385.159 C 108.900 385.059 108.800 385.159 108.900 385.159 H 114.700 C 114.800 385.159 114.700 385.059 114.700 385.159 V 388.059 C 114.700 388.115 114.745 388.159 114.800 388.159 H 120.800 C 120.855 388.159 120.900 388.115 120.900 388.059 V 385.159 C 120.900 385.059 120.800 385.159 120.900 385.159 H 126.700 C 126.800 385.159 126.700 385.059 126.700 385.159 V 388.059 C 126.700 388.115 126.745 388.159 126.800 388.159 H 132.800 C 132.855 388.159 132.900 388.115 132.900 388.059 V 385.159 C 132.900 385.059 132.800 385.159 132.900 385.159 H 138.700 C 138.800 385.159 138.700 385.059 138.700 385.159 V 388.059 C 138.700 388.115 138.745 388.159 138.800 388.159 H 144.800 C 144.855 388.159 144.900 388.115 144.900 388.059 V 385.159 C 144.900 385.059 144.800 385.159 144.900 385.159 H 150.700 C 150.800 385.159 150.700 385.059 150.700 385.159 V 388.059 C 150.700 388.115 150.745 388.159 150.800 388.159 H 156.800 C 156.855 388.159 156.900 388.115 156.900 388.059 V 385.159 C 156.900 385.059 156.800 385.159 156.900 385.159 H 162.700 C 162.800 385.159 162.700 385.059 162.700 385.159 V 388.059 C 162.700 388.115 162.745 388.159 162.800 388.159 H 165.800 H 168.800 C 168.855 388.159 168.900 388.115 168.900 388.059 V 385.059 V 380.559 C 168.900 380.504 168.855 380.459 168.800 380.459 H 165.900 C 165.800 380.459 165.900 380.559 165.900 380.459 V 374.659 C 165.900 374.559 165.800 374.659 165.900 374.659 H 168.800 C 168.855 374.659 168.900 374.615 168.900 374.559 V 368.559 C 168.900 368.504 168.855 368.459 168.800 368.459 H 165.900 C 165.800 368.459 165.900 368.559 165.900 368.459 V 362.659 C 165.900 362.559 165.800 362.659 165.900 362.659 H 168.800 C 168.855 362.659 168.900 362.615 168.900 362.559 V 358.059 C 168.900 358.004 168.855 357.959 168.800 357.959 H 165.800 H 21.800 H 18.800 C 18.745 357.959 18.700 358.004 18.700 358.059 V 362.559 C 18.700 362.615 18.745 362.659 18.800 362.659 H 21.700 C 21.800 362.659 21.700 362.559 21.700 362.659 V 368.459 C 21.700 368.559 21.800 368.459 21.700 368.459 H 18.800 C 18.745 368.459 18.700 368.504 18.700 368.559 V 374.559 C 18.700 374.615 18.745 374.659 18.800 374.659 H 21.700 C 21.800 374.659 21.700 374.559 21.700 374.659 V 380.459 C 21.700 380.559 21.800 380.459 21.700 380.459 H 18.800 C 18.745 380.459 18.700 380.504 18.700 380.559 V 385.059 V 388.059 C 18.700 388.115 18.745 388.159 18.800 388.159 H 21.800" stroke="rgb(0,0,0)" stroke-width="0.20" />
</g>
<g id="p-2" style="fill:none;stroke-linecap:round;stroke-linejoin:round;">
  <path d="M 70.700 341.981 V 344.881 C 70.700 344.981 70.800 344.881 70.700 344.881 H 67.900 C 67.800 344.881 67.900 344.981 67.900 344.881 V 339.081 C 67.900 338.981 67.800 339.081 67.900 339.081 H 70.700 C 70.800 339.081 70.700 338.981 70.700 339.081 V 341.981 Z" stroke="rgb(0,0,255)" stroke-width="0.20" />
  <path d="M 119.700 341.981 V 344.881 C 119.700 344.981 119.800 344.881 119.700 344.881 H 116.900 C 116.800 344.881 116.900 344.981 116.900 344.881 V 339.081 C 116.900 338.981 116.800 339.081 116.900 339.081 H 119.700 C 119.800 339.081 119.700 338.981 119.700 339.081 V 341.981 Z" stroke="rgb(0,0,255)" stroke-width="0.20" />
  <text dominant-baseline="hanging" font-size="4px" style="font-family: sans-serif ; font-weight: normal; font-style: normal; fill: rgb(255,0,0)" text-anchor="middle" transform="matrix( 1.000 0.000 0.000 1.000 93.800 341.581 )">front</text><path d="M 21.800 356.459 H 24.800 C 24.855 356.459 24.900 356.415 24.900 356.359 V 353.459 C 24.900 353.359 24.800 353.459 24.900 353.459 H 30.700 C 30.800 353.459 30.700 353.359 30.700 353.459 V 356.359 C 30.700 356.415 30.745 356.459 30.800 356.459 H 36.800 C 36.855 356.459 36.900 356.415 36.900 356.359 V 353.459 C 36.900 353.359 36.800 353.459 36.900 353.459 H 42.700 C 42.800 353.459 42.700 353.359 42.700 353.459 V 356.359 C 42.700 356.415 42.745 356.459 42.800 356.459 H 48.800 C 48.855 356.459 48.900 356.415 48.900 356.359 V 353.459 C 48.900 353.359 48.800 353.459 48.900 353.459 H 54.700 C 54.800 353.459 54.700 353.359 54.700 353.459 V 356.359 C 54.700 356.415 54.745 356.459 54.800 356.459 H 60.800 C 60.855 356.459 60.900 356.415 60.900 356.359 V 353.459 C 60.900 353.359 60.800 353.459 60.900 353.459 H 66.700 C 66.800 353.459 66.700 353.359 66.700 353.459 V 356.359 C 66.700 356.415 66.745 356.459 66.800 356.459 H 72.800 C 72.855 356.459 72.900 356.415 72.900 356.359 V 353.459 C 72.900 353.359 72.800 353.459 72.900 353.459 H 78.700 C 78.800 353.459 78.700 353.359 78.700 353.459 V 356.359 C 78.700 356.415 78.745 356.459 78.800 356.459 H 84.800 C 84.855 356.459 84.900 356.415 84.900 356.359 V 353.459 C 84.900 353.359 84.800 353.459 84.900 353.459 H 90.700 C 90.800 353.459 90.700 353.359 90.700 353.459 V 356.359 C 90.700 356.415 90.745 356.459 90.800 356.459 H 96.800 C 96.855 356.459 96.900 356.415 96.900 356.359 V 353.459 C 96.900 353.359 96.800 353.459 96.900 353.459 H 102.700 C 102.800 353.459 102.700 353.359 102.700 353.459 V 356.359 C 102.700 356.415 102.745 356.459 102.800 356.459 H 108.800 C 108.855 356.459 108.900 356.415 108.900 356.359 V 353.459 C 108.900 353.359 108.800 353.459 108.900 353.459 H 114.700 C 114.800 353.459 114.700 353.359 114.700 353.459 V 356.359 C 114.700 356.415 114.745 356.459 114.800 356.459 H 120.800 C 120.855 356.459 120.900 356.415 120.900 356.359 V 353.459 C 120.900 353.359 120.800 353.459 120.900 353.459 H 126.700 C 126.800 353.459 126.700 353.359 126.700 353.459 V 356.359 C 126.700 356.415 126.745 356.459 126.800 356.459 H 132.800 C 132.855 356.459 132.900 356.415 132.900 356.359 V 353.459 C 132.900 353.359 132.800 353.459 132.900 353.459 H 138.700 C 138.800 353.459 138.700 353.359 138.700 353.459 V 356.359 C 138.700 356.415 138.745 356.459 138.800 356.459 H 144.800 C 144.855 356.459 144.900 356.415 144.900 356.359 V 353.459 C 144.900 353.359 144.800 353.459 144.900 353.459 H 150.700 C 150.800 353.459 150.700 353.359 150.700 353.459 V 356.359 C 150.700 356.415 150.745 356.459 150.800 356.459 H 156.800 C 156.855 356.459 156.900 356.415 156.900 356.359 V 353.459 C 156.900 353.359 156.800 353.459 156.900 353.459 H 162.700 C 162.800 353.459 162.700 353.359 162.700 353.459 V 356.359 C 162.700 356.415 162.745 356.459 162.800 356.459 H 165.800 H 168.800 C 168.855 356.459 168.900 356.415 168.900 356.359 V 353.359 V 344.981 C 168.900 344.926 168.855 344.881 168.800 344.881 H 165.900 C 165.800 344.881 165.900 344.981 165.900 344.881 V 339.081 C 165.900 338.981 165.800 339.081 165.900 339.081 H 168.800 C 168.855 339.081 168.900 339.036 168.900 338.981 V 330.602 C 168.900 330.547 168.855 330.502 168.800 330.502 H 165.800 H 21.800 H 18.800 C 18.745 330.502 18.700 330.547 18.700 330.602 V 338.981 C 18.700 339.036 18.745 339.081 18.800 339.081 H 21.700 C 21.800 339.081 21.700 338.981 21.700 339.081 V 344.881 C 21.700 344.981 21.800 344.881 21.700 344.881 H 18.800 C 18.745 344.881 18.700 344.926 18.700 344.981 V 353.359 V 356.359 C 18.700 356.415 18.745 356.459 18.800 356.459 H 21.800" stroke="rgb(0,0,0)" stroke-width="0.20" />
</g>
<g id="p-3" style="fill:none;stroke-linecap:round;stroke-linejoin:round;">
  <path d="M 70.700 317.463 V 320.363 C 70.700 320.463 70.800 320.363 70.700 320.363 H 67.900 C 67.800 320.363 67.900 320.463 67.900 320.363 V 314.563 C 67.900 314.463 67.800 314.563 67.900 314.563 H 70.700 C 70.800 314.563 70.700 314.463 70.700 314.563 V 317.463 Z" stroke="rgb(0,0,255)" stroke-width="0.20" />
  <path d="M 119.700 317.463 V 320.363 C 119.700 320.463 119.800 320.363 119.700 320.363 H 116.900 C 116.800 320.363 116.900 320.463 116.900 320.363 V 314.563 C 116.900 314.463 116.800 314.563 116.900 314.563 H 119.700 C 119.800 314.563 119.700 314.463 119.700 314.563 V 317.463 Z" stroke="rgb(0,0,255)" stroke-width="0.20" />
  <text dominant-baseline="hanging" font-size="4px" style="font-family: sans-serif ; font-weight: normal; font-style: normal; fill: rgb(255,0,0)" text-anchor="middle" transform="matrix( 1.000 0.000 0.000 1.000 93.800 316.441 )">floor back side</text><path d="M 21.800 326.002 H 24.700 C 24.800 326.002 24.700 325.902 24.700 326.002 V 328.902 C 24.700 328.957 24.745 329.002 24.800 329.002 H 30.800 C 30.855 329.002 30.900 328.957 30.900 328.902 V 326.002 C 30.900 325.902 30.800 326.002 30.900 326.002 H 36.700 C 36.800 326.002 36.700 325.902 36.700 326.002 V 328.902 C 36.700 328.957 36.745 329.002 36.800 329.002 H 42.800 C 42.855 329.002 42.900 328.957 42.900 328.902 V 326.002 C 42.900 325.902 42.800 326.002 42.900 326.002 H 48.700 C 48.800 326.002 48.700 325.902 48.700 326.002 V 328.902 C 48.700 328.957 48.745 329.002 48.800 329.002 H 54.800 C 54.855 329.002 54.900 328.957 54.900 328.902 V 326.002 C 54.900 325.902 54.800 326.002 54.900 326.002 H 60.700 C 60.800 326.002 60.700 325.902 60.700 326.002 V 328.902 C 60.700 328.957 60.745 329.002 60.800 329.002 H 66.800 C 66.855 329.002 66.900 328.957 66.900 328.902 V 326.002 C 66.900 325.902 66.800 326.002 66.900 326.002 H 72.700 C 72.800 326.002 72.700 325.902 72.700 326.002 V 328.902 C 72.700 328.957 72.745 329.002 72.800 329.002 H 78.800 C 78.855 329.002 78.900 328.957 78.900 328.902 V 326.002 C 78.900 325.902 78.800 326.002 78.900 326.002 H 84.700 C 84.800 326.002 84.700 325.902 84.700 326.002 V 328.902 C 84.700 328.957 84.745 329.002 84.800 329.002 H 90.800 C 90.855 329.002 90.900 328.957 90.900 328.902 V 326.002 C 90.900 325.902 90.800 326.002 90.900 326.002 H 96.700 C 96.800 326.002 96.700 325.902 96.700 326.002 V 328.902 C 96.700 328.957 96.745 329.002 96.800 329.002 H 102.800 C 102.855 329.002 102.900 328.957 102.900 328.902 V 326.002 C 102.900 325.902 102.800 326.002 102.900 326.002 H 108.700 C 108.800 326.002 108.700 325.902 108.700 326.002 V 328.902 C 108.700 328.957 108.745 329.002 108.800 329.002 H 114.800 C 114.855 329.002 114.900 328.957 114.900 328.902 V 326.002 C 114.900 325.902 114.800 326.002 114.900 326.002 H 120.700 C 120.800 326.002 120.700 325.902 120.700 326.002 V 328.902 C 120.700 328.957 120.745 329.002 120.800 329.002 H 126.800 C 126.855 329.002 126.900 328.957 126.900 328.902 V 326.002 C 126.900 325.902 126.800 326.002 126.900 326.002 H 132.700 C 132.800 326.002 132.700 325.902 132.700 326.002 V 328.902 C 132.700 328.957 132.745 329.002 132.800 329.002 H 138.800 C 138.855 329.002 138.900 328.957 138.900 328.902 V 326.002 C 138.900 325.902 138.800 326.002 138.900 326.002 H 144.700 C 144.800 326.002 144.700 325.902 144.700 326.002 V 328.902 C 144.700 328.957 144.745 329.002 144.800 329.002 H 150.800 C 150.855 329.002 150.900 328.957 150.900 328.902 V 326.002 C 150.900 325.902 150.800 326.002 150.900 326.002 H 156.700 C 156.800 326.002 156.700 325.902 156.700 326.002 V 328.902 C 156.700 328.957 156.745 329.002 156.800 329.002 H 162.800 C 162.855 329.002 162.900 328.957 162.900 328.902 V 326.002 C 162.900 325.902 162.800 326.002 162.900 326.002 H 165.800 C 165.855 326.002 165.900 325.957 165.900 325.902 V 319.941 C 165.900 319.841 165.800 319.941 165.900 319.941 H 168.800 C 168.855 319.941 168.900 319.897 168.900 319.841 V 313.841 C 168.900 313.786 168.855 313.741 168.800 313.741 H 165.900 C 165.800 313.741 165.900 313.841 165.900 313.741 V 307.781 C 165.900 307.726 165.855 307.681 165.800 307.681 H 21.800 C 21.745 307.681 21.700 307.726 21.700 307.781 V 313.741 C 21.700 313.841 21.800 313.741 21.700 313.741 H 18.800 C 18.745 313.741 18.700 313.786 18.700 313.841 V 319.841 C 18.700 319.897 18.745 319.941 18.800 319.941 H 21.700 C 21.800 319.941 21.700 319.841 21.700 319.941 V 325.902 C 21.700 325.957 21.745 326.002 21.800 326.002" stroke="rgb(0,0,0)" stroke-width="0.20" />
</g>
<g id="p-4" style="fill:none;stroke-linecap:round;stroke-linejoin:round;">
  <path d="M 70.700 296.141 V 299.041 C 70.700 299.141 70.800 299.041 70.700 299.041 H 67.900 C 67.800 299.041 67.900 299.141 67.900 299.041 V 293.241 C 67.900 293.141 67.800 293.241 67.900 293.241 H 70.700 C 70.800 293.241 70.700 293.141 70.700 293.241 V 296.141 Z" stroke="rgb(0,0,255)" stroke-width="0.20" />
  <path d="M 70.700 284.141 V 287.041 C 70.700 287.141 70.800 287.041 70.700 287.041 H 67.900 C 67.800 287.041 67.900 287.141 67.900 287.041 V 281.241 C 67.900 281.141 67.800 281.241 67.900 281.241 H 70.700 C 70.800 281.241 70.700 281.141 70.700 281.241 V 284.141 Z" stroke="rgb(0,0,255)" stroke-width="0.20" />
  <path d="M 70.700 272.141 V 275.041 C 70.700 275.141 70.800 275.041 70.700 275.041 H 67.900 C 67.800 275.041 67.900 275.141 67.900 275.041 V 269.241 C 67.900 269.141 67.800 269.241 67.900 269.241 H 70.700 C 70.800 269.241 70.700 269.141 70.700 269.241 V 272.141 Z" stroke="rgb(0,0,255)" stroke-width="0.20" />
  <path d="M 119.700 296.141 V 299.041 C 119.700 299.141 119.800 299.041 119.700 299.041 H 116.900 C 116.800 299.041 116.900 299.141 116.900 299.041 V 293.241 C 116.900 293.141 116.800 293.241 116.900 293.241 H 119.700 C 119.800 293.241 119.700 293.141 119.700 293.241 V 296.141 Z" stroke="rgb(0,0,255)" stroke-width="0.20" />
  <path d="M 119.700 284.141 V 287.041 C 119.700 287.141 119.800 287.041 119.700 287.041 H 116.900 C 116.800 287.041 116.900 287.141 116.900 287.041 V 281.241 C 116.900 281.141 116.800 281.241 116.900 281.241 H 119.700 C 119.800 281.241 119.700 281.141 119.700 281.241 V 284.141 Z" stroke="rgb(0,0,255)" stroke-width="0.20" />
  <path d="M 119.700 272.141 V 275.041 C 119.700 275.141 119.800 275.041 119.700 275.041 H 116.900 C 116.800 275.041 116.900 275.141 116.900 275.041 V 269.241 C 116.900 269.141 116.800 269.241 116.900 269.241 H 119.700 C 119.800 269.241 119.700 269.141 119.700 269.241 V 272.141 Z" stroke="rgb(0,0,255)" stroke-width="0.20" />
  <text dominant-baseline="hanging" font-size="4px" style="font-family: sans-serif ; font-weight: normal; font-style: normal; fill: rgb(255,0,0)" text-anchor="middle" transform="matrix( 1.000 0.000 0.000 1.000 93.800 282.241 )">floor</text><path d="M 21.800 306.181 H 165.800 C 165.855 306.181 165.900 306.136 165.900 306.081 V 299.241 C 165.900 299.141 165.800 299.241 165.900 299.241 H 168.800 C 168.855 299.241 168.900 299.197 168.900 299.141 V 293.141 C 168.900 293.086 168.855 293.041 168.800 293.041 H 165.900 C 165.800 293.041 165.900 293.141 165.900 293.041 V 287.241 C 165.900 287.141 165.800 287.241 165.900 287.241 H 168.800 C 168.855 287.241 168.900 287.197 168.900 287.141 V 281.141 C 168.900 281.086 168.855 281.041 168.800 281.041 H 165.900 C 165.800 281.041 165.900 281.141 165.900 281.041 V 275.241 C 165.900 275.141 165.800 275.241 165.900 275.241 H 168.800 C 168.855 275.241 168.900 275.197 168.900 275.141 V 269.141 C 168.900 269.086 168.855 269.041 168.800 269.041 H 165.900 C 165.800 269.041 165.900 269.141 165.900 269.041 V 262.202 C 165.900 262.147 165.855 262.102 165.800 262.102 H 21.800 C 21.745 262.102 21.700 262.147 21.700 262.202 V 269.041 C 21.700 269.141 21.800 269.041 21.700 269.041 H 18.800 C 18.745 269.041 18.700 269.086 18.700 269.141 V 275.141 C 18.700 275.197 18.745 275.241 18.800 275.241 H 21.700 C 21.800 275.241 21.700 275.141 21.700 275.241 V 281.041 C 21.700 281.141 21.800 281.041 21.700 281.041 H 18.800 C 18.745 281.041 18.700 281.086 18.700 281.141 V 287.141 C 18.700 287.197 18.745 287.241 18.800 287.241 H 21.700 C 21.800 287.241 21.700 287.141 21.700 287.241 V 293.041 C 21.700 293.141 21.800 293.041 21.700 293.041 H 18.800 C 18.745 293.041 18.700 293.086 18.700 293.141 V 299.141 C 18.700 299.197 18.745 299.241 18.800 299.241 H 21.700 C 21.800 299.241 21.700 299.141 21.700 299.241 V 306.081 C 21.700 306.136 21.745 306.181 21.800 306.181" stroke="rgb(0,0,0)" stroke-width="0.20" />
  <path d="M 154.800 280.423 H 157.700 C 157.800 280.423 157.700 280.323 157.700 280.423 V 283.223 C 157.700 283.323 157.800 283.223 157.700 283.223 H 151.900 C 151.800 283.223 151.900 283.323 151.900 283.223 V 280.423 C 151.900 280.323 151.800 280.423 151.900 280.423 H 154.800 Z" stroke="rgb(0,0,255)" stroke-width="0.20" />
  <path d="M 142.800 280.423 H 145.700 C 145.800 280.423 145.700 280.323 145.700 280.423 V 283.223 C 145.700 283.323 145.800 283.223 145.700 283.223 H 139.900 C 139.800 283.223 139.900 283.323 139.900 283.223 V 280.423 C 139.900 280.323 139.800 280.423 139.900 280.423 H 142.800 Z" stroke="rgb(0,0,255)" stroke-width="0.20" />
  <path d="M 130.800 280.423 H 133.700 C 133.800 280.423 133.700 280.323 133.700 280.423 V 283.223 C 133.700 283.323 133.800 283.223 133.700 283.223 H 127.900 C 127.800 283.223 127.900 283.323 127.900 283.223 V 280.423 C 127.900 280.323 127.800 280.423 127.900 280.423 H 130.800 Z" stroke="rgb(0,0,255)" stroke-width="0.20" />
  <path d="M 105.800 280.423 H 108.700 C 108.800 280.423 108.700 280.323 108.700 280.423 V 283.223 C 108.700 283.323 108.800 283.223 108.700 283.223 H 102.900 C 102.800 283.223 102.900 283.323 102.900 283.223 V 280.423 C 102.900 280.323 102.800 280.423 102.900 280.423 H 105.800 Z" stroke="rgb(0,0,255)" stroke-width="0.20" />
  <path d="M 93.800 280.423 H 96.700 C 96.800 280.423 96.700 280.323 96.700 280.423 V 283.223 C 96.700 283.323 96.800 283.223 96.700 283.223 H 90.900 C 90.800 283.223 90.900 283.323 90.900 283.223 V 280.423 C 90.900 280.323 90.800 280.423 90.900 280.423 H 93.800 Z" stroke="rgb(0,0,255)" stroke-width="0.20" />
  <path d="M 81.800 280.423 H 84.700 C 84.800 280.423 84.700 280.323 84.700 280.423 V 283.223 C 84.700 283.323 84.800 283.223 84.700 283.223 H 78.900 C 78.800 283.223 78.900 283.323 78.900 283.223 V 280.423 C 78.900 280.323 78.800 280.423 78.900 280.423 H 81.800 Z" stroke="rgb(0,0,255)" stroke-width="0.20" />
  <path d="M 56.800 280.423 H 59.700 C 59.800 280.423 59.700 280.323 59.700 280.423 V 283.223 C 59.700 283.323 59.800 283.223 59.700 283.223 H 53.900 C 53.800 283.223 53.900 283.323 53.900 283.223 V 280.423 C 53.900 280.323 53.800 280.423 53.900 280.423 H 56.800 Z" stroke="rgb(0,0,255)" stroke-width="0.20" />
  <path d="M 44.800 280.423 H 47.700 C 47.800 280.423 47.700 280.323 47.700 280.423 V 283.223 C 47.700 283.323 47.800 283.223 47.700 283.223 H 41.900 C 41.800 283.223 41.900 283.323 41.900 283.223 V 280.423 C 41.900 280.323 41.800 280.423 41.900 280.423 H 44.800 Z" stroke="rgb(0,0,255)" stroke-width="0.20" />
  <path d="M 32.800 280.423 H 35.700 C 35.800 280.423 35.700 280.323 35.700 280.423 V 283.223 C 35.700 283.323 35.800 283.223 35.700 283.223 H 29.900 C 29.800 283.223 29.900 283.323 29.900 283.223 V 280.423 C 29.900 280.323 29.800 280.423 29.900 280.423 H 32.800 Z" stroke="rgb(0,0,255)" stroke-width="0.20" />
</g>
<g id="p-5" style="fill:none;stroke-linecap:round;stroke-linejoin:round;">
  <path d="M 70.700 250.563 V 253.463 C 70.700 253.563 70.800 253.463 70.700 253.463 H 67.900 C 67.800 253.463 67.900 253.563 67.900 253.463 V 247.663 C 67.900 247.563 67.800 247.663 67.900 247.663 H 70.700 C 70.800 247.663 70.700 247.563 70.700 247.663 V 250.563 Z" stroke="rgb(0,0,255)" stroke-width="0.20" />
  <path d="M 70.700 238.563 V 241.463 C 70.700 241.563 70.800 241.463 70.700 241.463 H 67.900 C 67.800 241.463 67.900 241.563 67.900 241.463 V 235.663 C 67.900 235.563 67.800 235.663 67.900 235.663 H 70.700 C 70.800 235.663 70.700 235.563 70.700 235.663 V 238.563 Z" stroke="rgb(0,0,255)" stroke-width="0.20" />
  <path d="M 70.700 226.563 V 229.463 C 70.700 229.563 70.800 229.463 70.700 229.463 H 67.900 C 67.800 229.463 67.900 229.563 67.900 229.463 V 223.663 C 67.900 223.563 67.800 223.663 67.900 223.663 H 70.700 C 70.800 223.663 70.700 223.563 70.700 223.663 V 226.563 Z" stroke="rgb(0,0,255)" stroke-width="0.20" />
  <path d="M 119.700 250.563 V 253.463 C 119.700 253.563 119.800 253.463 119.700 253.463 H 116.900 C 116.800 253.463 116.900 253.563 116.900 253.463 V 247.663 C 116.900 247.563 116.800 247.663 116.900 247.663 H 119.700 C 119.800 247.663 119.700 247.563 119.700 247.663 V 250.563 Z" stroke="rgb(0,0,255)" stroke-width="0.20" />
  <path d="M 119.700 238.563 V 241.463 C 119.700 241.563 119.800 241.463 119.700 241.463 H 116.900 C 116.800 241.463 116.900 241.563 116.900 241.463 V 235.663 C 116.900 235.563 116.800 235.663 116.900 235.663 H 119.700 C 119.800 235.663 119.700 235.563 119.700 235.663 V 238.563 Z" stroke="rgb(0,0,255)" stroke-width="0.20" />
  <path d="M 119.700 226.563 V 229.463 C 119.700 229.563 119.800 229.463 119.700 229.463 H 116.900 C 116.800 229.463 116.900 229.563 116.900 229.463 V 223.663 C 116.900 223.563 116.800 223.663 116.900 223.663 H 119.700 C 119.800 223.663 119.700 223.563 119.700 223.663 V 226.563 Z" stroke="rgb(0,0,255)" stroke-width="0.20" />
  <text dominant-baseline="hanging" font-size="4px" style="font-family: sans-serif ; font-weight: normal; font-style: normal; fill: rgb(255,0,0)" text-anchor="middle" transform="matrix( 1.000 0.000 0.000 1.000 93.800 236.663 )">floor</text><path d="M 21.800 260.602 H 165.800 C 165.855 260.602 165.900 260.557 165.900 260.502 V 253.663 C 165.900 253.563 165.800 253.663 165.900 253.663 H 168.800 C 168.855 253.663 168.900 253.618 168.900 253.563 V 247.563 C 168.900 247.507 168.855 247.463 168.800 247.463 H 165.900 C 165.800 247.463 165.900 247.563 165.900 247.463 V 241.663 C 165.900 241.563 165.800 241.663 165.900 241.663 H 168.800 C 168.855 241.663 168.900 241.618 168.900 241.563 V 235.563 C 168.900 235.507 168.855 235.463 168.800 235.463 H 165.900 C 165.800 235.463 165.900 235.563 165.900 235.463 V 229.663 C 165.900 229.563 165.800 229.663 165.900 229.663 H 168.800 C 168.855 229.663 168.900 229.618 168.900 229.563 V 223.563 C 168.900 223.507 168.855 223.463 168.800 223.463 H 165.900 C 165.800 223.463 165.900 223.563 165.900 223.463 V 216.623 C 165.900 216.568 165.855 216.523 165.800 216.523 H 21.800 C 21.745 216.523 21.700 216.568 21.700 216.623 V 223.463 C 21.700 223.563 21.800 223.463 21.700 223.463 H 18.800 C 18.745 223.463 18.700 223.507 18.700 223.563 V 229.563 C 18.700 229.618 18.745 229.663 18.800 229.663 H 21.700 C 21.800 229.663 21.700 229.563 21.700 229.663 V 235.463 C 21.700 235.563 21.800 235.463 21.700 235.463 H 18.800 C 18.745 235.463 18.700 235.507 18.700 235.563 V 241.563 C 18.700 241.618 18.745 241.663 18.800 241.663 H 21.700 C 21.800 241.663 21.700 241.563 21.700 241.663 V 247.463 C 21.700 247.563 21.800 247.463 21.700 247.463 H 18.800 C 18.745 247.463 18.700 247.507 18.700 247.563 V 253.563 C 18.700 253.618 18.745 253.663 18.800 253.663 H 21.700 C 21.800 253.663 21.700 253.563 21.700 253.663 V 260.502 C 21.700 260.557 21.745 260.602 21.800 260.602" stroke="rgb(0,0,0)" stroke-width="0.20" />
  <path d="M 154.800 234.845 H 157.700 C 157.800 234.845 157.700 234.745 157.700 234.845 V 237.645 C 157.700 237.745 157.800 237.645 157.700 237.645 H 151.900 C 151.800 237.645 151.900 237.745 151.900 237.645 V 234.845 C 151.900 234.745 151.800 234.845 151.900 234.845 H 154.800 Z" stroke="rgb(0,0,255)" stroke-width="0.20" />
  <path d="M 142.800 234.845 H 145.700 C 145.800 234.845 145.700 234.745 145.700 234.845 V 237.645 C 145.700 237.745 145.800 237.645 145.700 237.645 H 139.900 C 139.800 237.645 139.900 237.745 139.900 237.645 V 234.845 C 139.900 234.745 139.800 234.845 139.900 234.845 H 142.800 Z" stroke="rgb(0,0,255)" stroke-width="0.20" />
  <path d="M 130.800 234.845 H 133.700 C 133.800 234.845 133.700 234.745 133.700 234.845 V 237.645 C 133.700 237.745 133.800 237.645 133.700 237.645 H 127.900 C 127.800 237.645 127.900 237.745 127.900 237.645 V 234.845 C 127.900 234.745 127.800 234.845 127.900 234.845 H 130.800 Z" stroke="rgb(0,0,255)" stroke-width="0.20" />
  <path d="M 105.800 234.845 H 108.700 C 108.800 234.845 108.700 234.745 108.700 234.845 V 237.645 C 108.700 237.745 108.800 237.645 108.700 237.645 H 102.900 C 102.800 237.645 102.900 237.745 102.900 237.645 V 234.845 C 102.900 234.745 102.800 234.845 102.900 234.845 H 105.800 Z" stroke="rgb(0,0,255)" stroke-width="0.20" />
  <path d="M 93.800 234.845 H 96.700 C 96.800 234.845 96.700 234.745 96.700 234.845 V 237.645 C 96.700 237.745 96.800 237.645 96.700 237.645 H 90.900 C 90.800 237.645 90.900 237.745 90.900 237.645 V 234.845 C 90.900 234.745 90.800 234.845 90.900 234.845 H 93.800 Z" stroke="rgb(0,0,255)" stroke-width="0.20" />
  <path d="M 81.800 234.845 H 84.700 C 84.800 234.845 84.700 234.745 84.700 234.845 V 237.645 C 84.700 237.745 84.800 237.645 84.700 237.645 H 78.900 C 78.800 237.645 78.900 237.745 78.900 237.645 V 234.845 C 78.900 234.745 78.800 234.845 78.900 234.845 H 81.800 Z" stroke="rgb(0,0,255)" stroke-width="0.20" />
  <path d="M 56.800 234.845 H 59.700 C 59.800 234.845 59.700 234.745 59.700 234.845 V 237.645 C 59.700 237.745 59.800 237.645 59.700 237.645 H 53.900 C 53.800 237.645 53.900 237.745 53.900 237.645 V 234.845 C 53.900 234.745 53.800 234.845 53.900 234.845 H 56.800 Z" stroke="rgb(0,0,255)" stroke-width="0.20" />
  <path d="M 44.800 234.845 H 47.700 C 47.800 234.845 47.700 234.745 47.700 234.845 V 237.645 C 47.700 237.745 47.800 237.645 47.700 237.645 H 41.900 C 41.800 237.645 41.900 237.745 41.900 237.645 V 234.845 C 41.900 234.745 41.800 234.845 41.900 234.845 H 44.800 Z" stroke="rgb(0,0,255)" stroke-width="0.20" />
  <path d="M 32.800 234.845 H 35.700 C 35.800 234.845 35.700 234.745 35.700 234.845 V 237.645 C 35.700 237.745 35.800 237.645 35.700 237.645 H 29.900 C 29.800 237.645 29.900 237.745 29.900 237.645 V 234.845 C 29.900 234.745 29.800 234.845 29.900 234.845 H 32.800 Z" stroke="rgb(0,0,255)" stroke-width="0.20" />
</g>
<g id="p-6" style="fill:none;stroke-linecap:round;stroke-linejoin:round;">
  <path d="M 70.700 203.545 V 206.445 C 70.700 206.545 70.800 206.445 70.700 206.445 H 67.900 C 67.800 206.445 67.900 206.545 67.900 206.445 V 200.645 C 67.900 200.545 67.800 200.645 67.900 200.645 H 70.700 C 70.800 200.645 70.700 200.545 70.700 200.645 V 203.545 Z" stroke="rgb(0,0,255)" stroke-width="0.20" />
  <path d="M 119.700 203.545 V 206.445 C 119.700 206.545 119.800 206.445 119.700 206.445 H 116.900 C 116.800 206.445 116.900 206.545 116.900 206.445 V 200.645 C 116.900 200.545 116.800 200.645 116.900 200.645 H 119.700 C 119.800 200.645 119.700 200.545 119.700 200.645 V 203.545 Z" stroke="rgb(0,0,255)" stroke-width="0.20" />
  <text dominant-baseline="hanging" font-size="4px" style="font-family: sans-serif ; font-weight: normal; font-style: normal; fill: rgb(255,0,0)" text-anchor="middle" transform="matrix( 1.000 0.000 0.000 1.000 93.800 200.145 )">floor front side</text><path d="M 21.800 215.023 H 165.800 C 165.855 215.023 165.900 214.979 165.900 214.923 V 206.645 C 165.900 206.545 165.800 206.645 165.900 206.645 H 168.800 C 168.855 206.645 168.900 206.600 168.900 206.545 V 200.545 C 168.900 200.489 168.855 200.445 168.800 200.445 H 165.900 C 165.800 200.445 165.900 200.545 165.900 200.445 V 192.166 C 165.900 192.111 165.855 192.066 165.800 192.066 H 162.900 C 162.800 192.066 162.900 192.166 162.900 192.066 V 189.166 C 162.900 189.111 162.855 189.066 162.800 189.066 H 156.800 C 156.745 189.066 156.700 189.111 156.700 189.166 V 192.066 C 156.700 192.166 156.800 192.066 156.700 192.066 H 150.900 C 150.800 192.066 150.900 192.166 150.900 192.066 V 189.166 C 150.900 189.111 150.855 189.066 150.800 189.066 H 144.800 C 144.745 189.066 144.700 189.111 144.700 189.166 V 192.066 C 144.700 192.166 144.800 192.066 144.700 192.066 H 138.900 C 138.800 192.066 138.900 192.166 138.900 192.066 V 189.166 C 138.900 189.111 138.855 189.066 138.800 189.066 H 132.800 C 132.745 189.066 132.700 189.111 132.700 189.166 V 192.066 C 132.700 192.166 132.800 192.066 132.700 192.066 H 126.900 C 126.800 192.066 126.900 192.166 126.900 192.066 V 189.166 C 126.900 189.111 126.855 189.066 126.800 189.066 H 120.800 C 120.745 189.066 120.700 189.111 120.700 189.166 V 192.066 C 120.700 192.166 120.800 192.066 120.700 192.066 H 114.900 C 114.800 192.066 114.900 192.166 114.900 192.066 V 189.166 C 114.900 189.111 114.855 189.066 114.800 189.066 H 108.800 C 108.745 189.066 108.700 189.111 108.700 189.166 V 192.066 C 108.700 192.166 108.800 192.066 108.700 192.066 H 102.900 C 102.800 192.066 102.900 192.166 102.900 192.066 V 189.166 C 102.900 189.111 102.855 189.066 102.800 189.066 H 96.800 C 96.745 189.066 96.700 189.111 96.700 189.166 V 192.066 C 96.700 192.166 96.800 192.066 96.700 192.066 H 90.900 C 90.800 192.066 90.900 192.166 90.900 192.066 V 189.166 C 90.900 189.111 90.855 189.066 90.800 189.066 H 84.800 C 84.745 189.066 84.700 189.111 84.700 189.166 V 192.066 C 84.700 192.166 84.800 192.066 84.700 192.066 H 78.900 C 78.800 192.066 78.900 192.166 78.900 192.066 V 189.166 C 78.900 189.111 78.855 189.066 78.800 189.066 H 72.800 C 72.745 189.066 72.700 189.111 72.700 189.166 V 192.066 C 72.700 192.166 72.800 192.066 72.700 192.066 H 66.900 C 66.800 192.066 66.900 192.166 66.900 192.066 V 189.166 C 66.900 189.111 66.855 189.066 66.800 189.066 H 60.800 C 60.745 189.066 60.700 189.111 60.700 189.166 V 192.066 C 60.700 192.166 60.800 192.066 60.700 192.066 H 54.900 C 54.800 192.066 54.900 192.166 54.900 192.066 V 189.166 C 54.900 189.111 54.855 189.066 54.800 189.066 H 48.800 C 48.745 189.066 48.700 189.111 48.700 189.166 V 192.066 C 48.700 192.166 48.800 192.066 48.700 192.066 H 42.900 C 42.800 192.066 42.900 192.166 42.900 192.066 V 189.166 C 42.900 189.111 42.855 189.066 42.800 189.066 H 36.800 C 36.745 189.066 36.700 189.111 36.700 189.166 V 192.066 C 36.700 192.166 36.800 192.066 36.700 192.066 H 30.900 C 30.800 192.066 30.900 192.166 30.900 192.066 V 189.166 C 30.900 189.111 30.855 189.066 30.800 189.066 H 24.800 C 24.745 189.066 24.700 189.111 24.700 189.166 V 192.066 C 24.700 192.166 24.800 192.066 24.700 192.066 H 21.800 C 21.745 192.066 21.700 192.111 21.700 192.166 V 200.445 C 21.700 200.545 21.800 200.445 21.700 200.445 H 18.800 C 18.745 200.445 18.700 200.489 18.700 200.545 V 206.545 C 18.700 206.600 18.745 206.645 18.800 206.645 H 21.700 C 21.800 206.645 21.700 206.545 21.700 206.645 V 214.923 C 21.700 214.979 21.745 215.023 21.800 215.023" stroke="rgb(0,0,0)" stroke-width="0.20" />
</g>
<g id="p-7" style="fill:none;stroke-linecap:round;stroke-linejoin:round;">
  <text dominant-baseline="hanging" font-size="4px" style="font-family: sans-serif ; font-weight: normal; font-style: normal; fill: rgb(255,0,0)" text-anchor="middle" transform="matrix( 1.000 0.000 0.000 1.000 93.800 172.687 )">inner x 1</text><path d="M 21.800 184.566 H 29.700 C 29.800 184.566 29.700 184.466 29.700 184.566 V 187.466 C 29.700 187.521 29.745 187.566 29.800 187.566 H 35.800 C 35.855 187.566 35.900 187.521 35.900 187.466 V 184.566 C 35.900 184.466 35.800 184.566 35.900 184.566 H 41.700 C 41.800 184.566 41.700 184.466 41.700 184.566 V 187.466 C 41.700 187.521 41.745 187.566 41.800 187.566 H 47.800 C 47.855 187.566 47.900 187.521 47.900 187.466 V 184.566 C 47.900 184.466 47.800 184.566 47.900 184.566 H 53.700 C 53.800 184.566 53.700 184.466 53.700 184.566 V 187.466 C 53.700 187.521 53.745 187.566 53.800 187.566 H 59.800 C 59.855 187.566 59.900 187.521 59.900 187.466 V 184.566 C 59.900 184.466 59.800 184.566 59.900 184.566 H 67.800 C 67.855 184.566 67.900 184.521 67.900 184.466 V 171.066 C 67.900 170.966 67.800 171.066 67.900 171.066 H 70.700 C 70.800 171.066 70.700 170.966 70.700 171.066 V 184.466 C 70.700 184.521 70.745 184.566 70.800 184.566 H 78.700 C 78.800 184.566 78.700 184.466 78.700 184.566 V 187.466 C 78.700 187.521 78.745 187.566 78.800 187.566 H 84.800 C 84.855 187.566 84.900 187.521 84.900 187.466 V 184.566 C 84.900 184.466 84.800 184.566 84.900 184.566 H 90.700 C 90.800 184.566 90.700 184.466 90.700 184.566 V 187.466 C 90.700 187.521 90.745 187.566 90.800 187.566 H 96.800 C 96.855 187.566 96.900 187.521 96.900 187.466 V 184.566 C 96.900 184.466 96.800 184.566 96.900 184.566 H 102.700 C 102.800 184.566 102.700 184.466 102.700 184.566 V 187.466 C 102.700 187.521 102.745 187.566 102.800 187.566 H 108.800 C 108.855 187.566 108.900 187.521 108.900 187.466 V 184.566 C 108.900 184.466 108.800 184.566 108.900 184.566 H 116.800 C 116.855 184.566 116.900 184.521 116.900 184.466 V 171.066 C 116.900 170.966 116.800 171.066 116.900 171.066 H 119.700 C 119.800 171.066 119.700 170.966 119.700 171.066 V 184.466 C 119.700 184.521 119.745 184.566 119.800 184.566 H 127.700 C 127.800 184.566 127.700 184.466 127.700 184.566 V 187.466 C 127.700 187.521 127.745 187.566 127.800 187.566 H 133.800 C 133.855 187.566 133.900 187.521 133.900 187.466 V 184.566 C 133.900 184.466 133.800 184.566 133.900 184.566 H 139.700 C 139.800 184.566 139.700 184.466 139.700 184.566 V 187.466 C 139.700 187.521 139.745 187.566 139.800 187.566 H 145.800 C 145.855 187.566 145.900 187.521 145.900 187.466 V 184.566 C 145.900 184.466 145.800 184.566 145.900 184.566 H 151.700 C 151.800 184.566 151.700 184.466 151.700 184.566 V 187.466 C 151.700 187.521 151.745 187.566 151.800 187.566 H 157.800 C 157.855 187.566 157.900 187.521 157.900 187.466 V 184.566 C 157.900 184.466 157.800 184.566 157.900 184.566 H 165.800 C 165.855 184.566 165.900 184.521 165.900 184.466 V 176.187 C 165.900 176.087 165.800 176.187 165.900 176.187 H 168.800 C 168.855 176.187 168.900 176.143 168.900 176.087 V 170.087 C 168.900 170.032 168.855 169.987 168.800 169.987 H 165.900 C 165.800 169.987 165.900 170.087 165.900 169.987 V 161.709 C 165.900 161.653 165.855 161.609 165.800 161.609 H 119.800 H 116.800 H 70.800 H 67.800 H 21.800 C 21.745 161.609 21.700 161.653 21.700 161.709 V 169.987 C 21.700 170.087 21.800 169.987 21.700 169.987 H 18.800 C 18.745 169.987 18.700 170.032 18.700 170.087 V 176.087 C 18.700 176.143 18.745 176.187 18.800 176.187 H 21.700 C 21.800 176.187 21.700 176.087 21.700 176.187 V 184.466 C 21.700 184.521 21.745 184.566 21.800 184.566" stroke="rgb(0,0,0)" stroke-width="0.20" />
</g>
<g id="p-8" style="fill:none;stroke-linecap:round;stroke-linejoin:round;">
  <text dominant-baseline="hanging" font-size="4px" style="font-family: sans-serif ; font-weight: normal; font-style: normal; fill: rgb(255,0,0)" text-anchor="middle" transform="matrix( 1.000 0.000 0.000 1.000 93.800 145.230 )">inner x 2</text><path d="M 21.800 157.109 H 29.700 C 29.800 157.109 29.700 157.009 29.700 157.109 V 160.009 C 29.700 160.064 29.745 160.109 29.800 160.109 H 35.800 C 35.855 160.109 35.900 160.064 35.900 160.009 V 157.109 C 35.900 157.009 35.800 157.109 35.900 157.109 H 41.700 C 41.800 157.109 41.700 157.009 41.700 157.109 V 160.009 C 41.700 160.064 41.745 160.109 41.800 160.109 H 47.800 C 47.855 160.109 47.900 160.064 47.900 160.009 V 157.109 C 47.900 157.009 47.800 157.109 47.900 157.109 H 53.700 C 53.800 157.109 53.700 157.009 53.700 157.109 V 160.009 C 53.700 160.064 53.745 160.109 53.800 160.109 H 59.800 C 59.855 160.109 59.900 160.064 59.900 160.009 V 157.109 C 59.900 157.009 59.800 157.109 59.900 157.109 H 67.800 C 67.855 157.109 67.900 157.064 67.900 157.009 V 143.609 C 67.900 143.509 67.800 143.609 67.900 143.609 H 70.700 C 70.800 143.609 70.700 143.509 70.700 143.609 V 157.009 C 70.700 157.064 70.745 157.109 70.800 157.109 H 78.700 C 78.800 157.109 78.700 157.009 78.700 157.109 V 160.009 C 78.700 160.064 78.745 160.109 78.800 160.109 H 84.800 C 84.855 160.109 84.900 160.064 84.900 160.009 V 157.109 C 84.900 157.009 84.800 157.109 84.900 157.109 H 90.700 C 90.800 157.109 90.700 157.009 90.700 157.109 V 160.009 C 90.700 160.064 90.745 160.109 90.800 160.109 H 96.800 C 96.855 160.109 96.900 160.064 96.900 160.009 V 157.109 C 96.900 157.009 96.800 157.109 96.900 157.109 H 102.700 C 102.800 157.109 102.700 157.009 102.700 157.109 V 160.009 C 102.700 160.064 102.745 160.109 102.800 160.109 H 108.800 C 108.855 160.109 108.900 160.064 108.900 160.009 V 157.109 C 108.900 157.009 108.800 157.109 108.900 157.109 H 116.800 C 116.855 157.109 116.900 157.064 116.900 157.009 V 143.609 C 116.900 143.509 116.800 143.609 116.900 143.609 H 119.700 C 119.800 143.609 119.700 143.509 119.700 143.609 V 157.009 C 119.700 157.064 119.745 157.109 119.800 157.109 H 127.700 C 127.800 157.109 127.700 157.009 127.700 157.109 V 160.009 C 127.700 160.064 127.745 160.109 127.800 160.109 H 133.800 C 133.855 160.109 133.900 160.064 133.900 160.009 V 157.109 C 133.900 157.009 133.800 157.109 133.900 157.109 H 139.700 C 139.800 157.109 139.700 157.009 139.700 157.109 V 160.009 C 139.700 160.064 139.745 160.109 139.800 160.109 H 145.800 C 145.855 160.109 145.900 160.064 145.900 160.009 V 157.109 C 145.900 157.009 145.800 157.109 145.900 157.109 H 151.700 C 151.800 157.109 151.700 157.009 151.700 157.109 V 160.009 C 151.700 160.064 151.745 160.109 151.800 160.109 H 157.800 C 157.855 160.109 157.900 160.064 157.900 160.009 V 157.109 C 157.900 157.009 157.800 157.109 157.900 157.109 H 165.800 C 165.855 157.109 165.900 157.064 165.900 157.009 V 148.730 C 165.900 148.630 165.800 148.730 165.900 148.730 H 168.800 C 168.855 148.730 168.900 148.685 168.900 148.630 V 142.630 C 168.900 142.575 168.855 142.530 168.800 142.530 H 165.900 C 165.800 142.530 165.900 142.630 165.900 142.530 V 134.251 C 165.900 134.196 165.855 134.151 165.800 134.151 H 119.800 H 116.800 H 70.800 H 67.800 H 21.800 C 21.745 134.151 21.700 134.196 21.700 134.251 V 142.530 C 21.700 142.630 21.800 142.530 21.700 142.530 H 18.800 C 18.745 142.530 18.700 142.575 18.700 142.630 V 148.630 C 18.700 148.685 18.745 148.730 18.800 148.730 H 21.700 C 21.800 148.730 21.700 148.630 21.700 148.730 V 157.009 C 21.700 157.064 21.745 157.109 21.800 157.109" stroke="rgb(0,0,0)" stroke-width="0.20" />
</g>
<g id="p-9" style="fill:none;stroke-linecap:round;stroke-linejoin:round;">
  <text dominant-baseline="hanging" font-size="4px" style="font-family: sans-serif ; font-weight: normal; font-style: normal; fill: rgb(255,0,0)" text-anchor="middle" transform="matrix( 1.000 0.000 0.000 1.000 93.800 110.809 )">slope</text><path d="M 21.800 132.651 H 67.800 C 67.855 132.651 67.900 132.607 67.900 132.551 V 113.559 C 67.900 113.459 67.800 113.559 67.900 113.559 H 70.700 C 70.800 113.559 70.700 113.459 70.700 113.559 V 132.551 C 70.700 132.607 70.745 132.651 70.800 132.651 H 116.800 C 116.855 132.651 116.900 132.607 116.900 132.551 V 113.559 C 116.900 113.459 116.800 113.559 116.900 113.559 H 119.700 C 119.800 113.559 119.700 113.459 119.700 113.559 V 132.551 C 119.700 132.607 119.745 132.651 119.800 132.651 H 165.800 C 165.855 132.651 165.900 132.607 165.900 132.551 V 127.809 C 165.900 127.709 165.800 127.809 165.900 127.809 H 168.800 C 168.855 127.809 168.900 127.765 168.900 127.709 V 121.709 C 168.900 121.654 168.855 121.609 168.800 121.609 H 165.900 C 165.800 121.609 165.900 121.709 165.900 121.609 V 115.809 C 165.900 115.709 165.800 115.809 165.900 115.809 H 168.800 C 168.855 115.809 168.900 115.765 168.900 115.709 V 109.709 C 168.900 109.654 168.855 109.609 168.800 109.609 H 165.900 C 165.800 109.609 165.900 109.709 165.900 109.609 V 103.809 C 165.900 103.709 165.800 103.809 165.900 103.809 H 168.800 C 168.855 103.809 168.900 103.765 168.900 103.709 V 97.709 C 168.900 97.654 168.855 97.609 168.800 97.609 H 165.900 C 165.800 97.609 165.900 97.709 165.900 97.609 V 92.868 C 165.900 92.812 165.855 92.768 165.800 92.768 H 119.800 H 116.800 H 70.800 H 67.800 H 21.800 C 21.745 92.768 21.700 92.812 21.700 92.868 V 97.609 C 21.700 97.709 21.800 97.609 21.700 97.609 H 18.800 C 18.745 97.609 18.700 97.654 18.700 97.709 V 103.709 C 18.700 103.765 18.745 103.809 18.800 103.809 H 21.700 C 21.800 103.809 21.700 103.709 21.700 103.809 V 109.609 C 21.700 109.709 21.800 109.609 21.700 109.609 H 18.800 C 18.745 109.609 18.700 109.654 18.700 109.709 V 115.709 C 18.700 115.765 18.745 115.809 18.800 115.809 H 21.700 C 21.800 115.809 21.700 115.709 21.700 115.809 V 121.609 C 21.700 121.709 21.800 121.609 21.700 121.609 H 18.800 C 18.745 121.609 18.700 121.654 18.700 121.709 V 127.709 C 18.700 127.765 18.745 127.809 18.800 127.809 H 21.700 C 21.800 127.809 21.700 127.709 21.700 127.809 V 132.551 C 21.700 132.607 21.745 132.651 21.800 132.651" stroke="rgb(0,0,0)" stroke-width="0.20" />
</g>
<g id="p-10" style="fill:none;stroke-linecap:round;stroke-linejoin:round;">
  <text dominant-baseline="hanging" font-size="4px" style="font-family: sans-serif ; font-weight: normal; font-style: normal; fill: rgb(255,0,0)" text-anchor="middle" transform="matrix( 1.000 0.000 0.000 1.000 93.800 69.426 )">slope</text><path d="M 21.800 91.268 H 67.800 C 67.855 91.268 67.900 91.223 67.900 91.168 V 72.176 C 67.900 72.076 67.800 72.176 67.900 72.176 H 70.700 C 70.800 72.176 70.700 72.076 70.700 72.176 V 91.168 C 70.700 91.223 70.745 91.268 70.800 91.268 H 116.800 C 116.855 91.268 116.900 91.223 116.900 91.168 V 72.176 C 116.900 72.076 116.800 72.176 116.900 72.176 H 119.700 C 119.800 72.176 119.700 72.076 119.700 72.176 V 91.168 C 119.700 91.223 119.745 91.268 119.800 91.268 H 165.800 C 165.855 91.268 165.900 91.223 165.900 91.168 V 86.426 C 165.900 86.326 165.800 86.426 165.900 86.426 H 168.800 C 168.855 86.426 168.900 86.381 168.900 86.326 V 80.326 C 168.900 80.270 168.855 80.226 168.800 80.226 H 165.900 C 165.800 80.226 165.900 80.326 165.900 80.226 V 74.426 C 165.900 74.326 165.800 74.426 165.900 74.426 H 168.800 C 168.855 74.426 168.900 74.381 168.900 74.326 V 68.326 C 168.900 68.270 168.855 68.226 168.800 68.226 H 165.900 C 165.800 68.226 165.900 68.326 165.900 68.226 V 62.426 C 165.900 62.326 165.800 62.426 165.900 62.426 H 168.800 C 168.855 62.426 168.900 62.381 168.900 62.326 V 56.326 C 168.900 56.270 168.855 56.226 168.800 56.226 H 165.900 C 165.800 56.226 165.900 56.326 165.900 56.226 V 51.484 C 165.900 51.429 165.855 51.384 165.800 51.384 H 119.800 H 116.800 H 70.800 H 67.800 H 21.800 C 21.745 51.384 21.700 51.429 21.700 51.484 V 56.226 C 21.700 56.326 21.800 56.226 21.700 56.226 H 18.800 C 18.745 56.226 18.700 56.270 18.700 56.326 V 62.326 C 18.700 62.381 18.745 62.426 18.800 62.426 H 21.700 C 21.800 62.426 21.700 62.326 21.700 62.426 V 68.226 C 21.700 68.326 21.800 68.226 21.700 68.226 H 18.800 C 18.745 68.226 18.700 68.270 18.700 68.326 V 74.326 C 18.700 74.381 18.745 74.426 18.800 74.426 H 21.700 C 21.800 74.426 21.700 74.326 21.700 74.426 V 80.226 C 21.700 80.326 21.800 80.226 21.700 80.226 H 18.800 C 18.745 80.226 18.700 80.270 18.700 80.326 V 86.326 C 18.700 86.381 18.745 86.426 18.800 86.426 H 21.700 C 21.800 86.426 21.700 86.326 21.700 86.426 V 91.168 C 21.700 91.223 21.745 91.268 21.800 91.268" stroke="rgb(0,0,0)" stroke-width="0.20" />
</g>
<g id="p-11" style="fill:none;stroke-linecap:round;stroke-linejoin:round;">
  <text dominant-baseline="hanging" font-size="4px" style="font-family: sans-serif ; font-weight: normal; font-style: normal; fill: rgb(255,0,0)" text-anchor="middle" transform="matrix( 1.000 0.000 0.000 1.000 93.800 28.042 )">slope</text><path d="M 21.800 49.884 H 67.800 C 67.855 49.884 67.900 49.839 67.900 49.784 V 30.792 C 67.900 30.692 67.800 30.792 67.900 30.792 H 70.700 C 70.800 30.792 70.700 30.692 70.700 30.792 V 49.784 C 70.700 49.839 70.745 49.884 70.800 49.884 H 116.800 C 116.855 49.884 116.900 49.839 116.900 49.784 V 30.792 C 116.900 30.692 116.800 30.792 116.900 30.792 H 119.700 C 119.800 30.792 119.700 30.692 119.700 30.792 V 49.784 C 119.700 49.839 119.745 49.884 119.800 49.884 H 165.800 C 165.855 49.884 165.900 49.839 165.900 49.784 V 45.042 C 165.900 44.942 165.800 45.042 165.900 45.042 H 168.800 C 168.855 45.042 168.900 44.997 168.900 44.942 V 38.942 C 168.900 38.887 168.855 38.842 168.800 38.842 H 165.900 C 165.800 38.842 165.900 38.942 165.900 38.842 V 33.042 C 165.900 32.942 165.800 33.042 165.900 33.042 H 168.800 C 168.855 33.042 168.900 32.997 168.900 32.942 V 26.942 C 168.900 26.887 168.855 26.842 168.800 26.842 H 165.900 C 165.800 26.842 165.900 26.942 165.900 26.842 V 21.042 C 165.900 20.942 165.800 21.042 165.900 21.042 H 168.800 C 168.855 21.042 168.900 20.997 168.900 20.942 V 14.942 C 168.900 14.887 168.855 14.842 168.800 14.842 H 165.900 C 165.800 14.842 165.900 14.942 165.900 14.842 V 10.100 C 165.900 10.045 165.855 10.000 165.800 10.000 H 119.800 H 116.800 H 70.800 H 67.800 H 21.800 C 21.745 10.000 21.700 10.045 21.700 10.100 V 14.842 C 21.700 14.942 21.800 14.842 21.700 14.842 H 18.800 C 18.745 14.842 18.700 14.887 18.700 14.942 V 20.942 C 18.700 20.997 18.745 21.042 18.800 21.042 H 21.700 C 21.800 21.042 21.700 20.942 21.700 21.042 V 26.842 C 21.700 26.942 21.800 26.842 21.700 26.842 H 18.800 C 18.745 26.842 18.700 26.887 18.700 26.942 V 32.942 C 18.700 32.997 18.745 33.042 18.800 33.042 H 21.700 C 21.800 33.042 21.700 32.942 21.700 33.042 V 38.842 C 21.700 38.942 21.800 38.842 21.700 38.842 H 18.800 C 18.745 38.842 18.700 38.887 18.700 38.942 V 44.942 C 18.700 44.997 18.745 45.042 18.800 45.042 H 21.700 C 21.800 45.042 21.700 44.942 21.700 45.042 V 49.784 C 21.700 49.839 21.745 49.884 21.800 49.884" stroke="rgb(0,0,0)" stroke-width="0.20" />
</g>
<g id="p-12" style="fill:none;stroke-linecap:round;stroke-linejoin:round;">
  <path d="M 222.400 373.681 V 376.581 C 222.400 376.681 222.500 376.581 222.400 376.581 H 219.600 C 219.500 376.581 219.600 376.681 219.600 376.581 V 370.781 C 219.600 370.681 219.500 370.781 219.600 370.781 H 222.400 C 222.500 370.781 222.400 370.681 222.400 370.781 V 373.681 Z" stroke="rgb(0,0,255)" stroke-width="0.20" />
  <path d="M 214.026 363.675 L 216.076 361.625 C 216.147 361.554 216.006 361.554 216.076 361.625 L 218.056 363.604 C 218.127 363.675 218.127 363.534 218.056 363.604 L 213.955 367.706 C 213.884 367.776 214.026 367.776 213.955 367.706 L 211.975 365.726 C 211.904 365.655 211.904 365.796 211.975 365.726 L 214.026 363.675 Z" stroke="rgb(0,0,255)" stroke-width="0.20" />
  <path d="M 205.540 372.160 L 207.591 370.110 C 207.662 370.039 207.520 370.039 207.591 370.110 L 209.571 372.090 C 209.642 372.160 209.642 372.019 209.571 372.090 L 205.470 376.191 C 205.399 376.262 205.540 376.262 205.470 376.191 L 203.490 374.211 C 203.419 374.140 203.419 374.282 203.490 374.211 L 205.540 372.160 Z" stroke="rgb(0,0,255)" stroke-width="0.20" />
  <path d="M 197.055 380.646 L 199.106 378.595 C 199.176 378.524 199.035 378.524 199.106 378.595 L 201.086 380.575 C 201.156 380.646 201.156 380.504 201.086 380.575 L 196.984 384.676 C 196.914 384.747 197.055 384.747 196.984 384.676 L 195.004 382.696 C 194.934 382.626 194.934 382.767 195.004 382.696 L 197.055 380.646 Z" stroke="rgb(0,0,255)" stroke-width="0.20" />
  <path d="M 271.400 373.681 V 376.581 C 271.400 376.681 271.500 376.581 271.400 376.581 H 268.600 C 268.500 376.581 268.600 376.681 268.600 376.581 V 370.781 C 268.600 370.681 268.500 370.781 268.600 370.781 H 271.400 C 271.500 370.781 271.400 370.681 271.400 370.781 V 373.681 Z" stroke="rgb(0,0,255)" stroke-width="0.20" />
  <path d="M 263.026 363.675 L 265.076 361.625 C 265.147 361.554 265.006 361.554 265.076 361.625 L 267.056 363.604 C 267.127 363.675 267.127 363.534 267.056 363.604 L 262.955 367.706 C 262.884 367.776 263.026 367.776 262.955 367.706 L 260.975 365.726 C 260.904 365.655 260.904 365.796 260.975 365.726 L 263.026 363.675 Z" stroke="rgb(0,0,255)" stroke-width="0.20" />
  <path d="M 254.540 372.160 L 256.591 370.110 C 256.662 370.039 256.520 370.039 256.591 370.110 L 258.571 372.090 C 258.642 372.160 258.642 372.019 258.571 372.090 L 254.470 376.191 C 254.399 376.262 254.540 376.262 254.470 376.191 L 252.490 374.211 C 252.419 374.140 252.419 374.282 252.490 374.211 L 254.540 372.160 Z" stroke="rgb(0,0,255)" stroke-width="0.20" />
  <path d="M 246.055 380.646 L 248.106 378.595 C 248.176 378.524 248.035 378.524 248.106 378.595 L 250.086 380.575 C 250.156 380.646 250.156 380.504 250.086 380.575 L 245.984 384.676 C 245.914 384.747 246.055 384.747 245.984 384.676 L 244.004 382.696 C 243.934 382.626 243.934 382.767 244.004 382.696 L 246.055 380.646 Z" stroke="rgb(0,0,255)" stroke-width="0.20" />
  <path d="M 312.026 363.675 L 314.076 361.625 C 314.147 361.554 314.006 361.554 314.076 361.625 L 316.056 363.604 C 316.127 363.675 316.127 363.534 316.056 363.604 L 311.955 367.706 C 311.884 367.776 312.026 367.776 311.955 367.706 L 309.975 365.726 C 309.904 365.655 309.904 365.796 309.975 365.726 L 312.026 363.675 Z" stroke="rgb(0,0,255)" stroke-width="0.20" />
  <path d="M 303.540 372.160 L 305.591 370.110 C 305.662 370.039 305.520 370.039 305.591 370.110 L 307.571 372.090 C 307.642 372.160 307.642 372.019 307.571 372.090 L 303.470 376.191 C 303.399 376.262 303.540 376.262 303.470 376.191 L 301.490 374.211 C 301.419 374.140 301.419 374.282 301.490 374.211 L 303.540 372.160 Z" stroke="rgb(0,0,255)" stroke-width="0.20" />
  <path d="M 295.055 380.646 L 297.106 378.595 C 297.176 378.524 297.035 378.524 297.106 378.595 L 299.086 380.575 C 299.156 380.646 299.156 380.504 299.086 380.575 L 294.984 384.676 C 294.914 384.747 295.055 384.747 294.984 384.676 L 293.004 382.696 C 292.934 382.626 292.934 382.767 293.004 382.696 L 295.055 380.646 Z" stroke="rgb(0,0,255)" stroke-width="0.20" />
  <text dominant-baseline="hanging" font-size="4px" style="font-family: sans-serif ; font-weight: normal; font-style: normal; fill: rgb(255,0,0)" text-anchor="middle" transform="matrix( 1.000 0.000 0.000 1.000 245.500 371.159 )">side</text><path d="M 173.500 388.159 H 179.561 C 179.616 388.159 179.661 388.115 179.661 388.059 V 385.159 C 179.661 385.059 179.561 385.159 179.661 385.159 H 185.461 C 185.561 385.159 185.461 385.059 185.461 385.159 V 388.059 C 185.461 388.115 185.505 388.159 185.561 388.159 H 191.621 H 196.743 H 203.682 C 203.737 388.159 203.782 388.115 203.782 388.059 V 385.159 C 203.782 385.059 203.682 385.159 203.782 385.159 H 209.582 C 209.682 385.159 209.582 385.059 209.582 385.159 V 388.059 C 209.582 388.115 209.627 388.159 209.682 388.159 H 215.682 C 215.737 388.159 215.782 388.115 215.782 388.059 V 385.159 C 215.782 385.059 215.682 385.159 215.782 385.159 H 221.582 C 221.682 385.159 221.582 385.059 221.582 385.159 V 388.059 C 221.582 388.115 221.627 388.159 221.682 388.159 H 227.682 C 227.737 388.159 227.782 388.115 227.782 388.059 V 385.159 C 227.782 385.059 227.682 385.159 227.782 385.159 H 233.582 C 233.682 385.159 233.582 385.059 233.582 385.159 V 388.059 C 233.582 388.115 233.627 388.159 233.682 388.159 H 240.621 H 245.743 H 252.682 C 252.737 388.159 252.782 388.115 252.782 388.059 V 385.159 C 252.782 385.059 252.682 385.159 252.782 385.159 H 258.582 C 258.682 385.159 258.582 385.059 258.582 385.159 V 388.059 C 258.582 388.115 258.627 388.159 258.682 388.159 H 264.682 C 264.737 388.159 264.782 388.115 264.782 388.059 V 385.159 C 264.782 385.059 264.682 385.159 264.782 385.159 H 270.582 C 270.682 385.159 270.582 385.059 270.582 385.159 V 388.059 C 270.582 388.115 270.627 388.159 270.682 388.159 H 276.682 C 276.737 388.159 276.782 388.115 276.782 388.059 V 385.159 C 276.782 385.059 276.682 385.159 276.782 385.159 H 282.582 C 282.682 385.159 282.582 385.059 282.582 385.159 V 388.059 C 282.582 388.115 282.627 388.159 282.682 388.159 H 289.621 H 294.743 H 303.121 C 303.177 388.159 303.221 388.115 303.221 388.059 V 385.159 C 303.221 385.059 303.121 385.159 303.221 385.159 H 309.021 C 309.121 385.159 309.021 385.059 309.021 385.159 V 388.059 C 309.021 388.115 309.066 388.159 309.121 388.159 H 317.500 C 317.555 388.159 317.600 388.115 317.600 388.059 V 385.059 V 376.781 C 317.600 376.681 317.500 376.781 317.600 376.781 H 320.500 C 320.555 376.781 320.600 376.736 320.600 376.681 V 370.681 C 320.600 370.626 320.555 370.581 320.500 370.581 H 317.600 C 317.500 370.581 317.600 370.681 317.600 370.581 V 362.402 C 317.600 362.302 317.500 362.402 317.600 362.402 H 320.500 C 320.555 362.402 320.600 362.357 320.600 362.302 V 358.059 C 320.600 358.004 320.555 357.959 320.500 357.959 H 317.500 H 173.500 C 173.445 357.959 173.400 358.004 173.400 358.059 V 362.459 C 173.400 362.559 173.500 362.459 173.400 362.459 H 170.500 C 170.445 362.459 170.400 362.504 170.400 362.559 V 368.559 C 170.400 368.615 170.445 368.659 170.500 368.659 H 173.400 C 173.500 368.659 173.400 368.559 173.400 368.659 V 374.459 C 173.400 374.559 173.500 374.459 173.400 374.459 H 170.500 C 170.445 374.459 170.400 374.504 170.400 374.559 V 380.559 C 170.400 380.615 170.445 380.659 170.500 380.659 H 173.400 C 173.500 380.659 173.400 380.559 173.400 380.659 V 385.059 V 388.059 C 173.400 388.115 173.445 388.159 173.500 388.159" stroke="rgb(0,0,0)" stroke-width="0.20" />
</g>
<g id="p-13" style="fill:none;stroke-linecap:round;stroke-linejoin:round;">
  <path d="M 268.600 341.981 V 344.881 C 268.600 344.981 268.500 344.881 268.600 344.881 H 271.400 C 271.500 344.881 271.400 344.981 271.400 344.881 V 339.081 C 271.400 338.981 271.500 339.081 271.400 339.081 H 268.600 C 268.500 339.081 268.600 338.981 268.600 339.081 V 341.981 Z" stroke="rgb(0,0,255)" stroke-width="0.20" />
  <path d="M 276.974 331.975 L 274.924 329.925 C 274.853 329.854 274.994 329.854 274.924 329.925 L 272.944 331.904 C 272.873 331.975 272.873 331.834 272.944 331.904 L 277.045 336.006 C 277.116 336.076 276.974 336.076 277.045 336.006 L 279.025 334.026 C 279.096 333.955 279.096 334.096 279.025 334.026 L 276.974 331.975 Z" stroke="rgb(0,0,255)" stroke-width="0.20" />
  <path d="M 285.460 340.460 L 283.409 338.410 C 283.338 338.339 283.480 338.339 283.409 338.410 L 281.429 340.390 C 281.358 340.460 281.358 340.319 281.429 340.390 L 285.530 344.491 C 285.601 344.562 285.460 344.562 285.530 344.491 L 287.510 342.511 C 287.581 342.440 287.581 342.582 287.510 342.511 L 285.460 340.460 Z" stroke="rgb(0,0,255)" stroke-width="0.20" />
  <path d="M 293.945 348.946 L 291.894 346.895 C 291.824 346.824 291.965 346.824 291.894 346.895 L 289.914 348.875 C 289.844 348.946 289.844 348.804 289.914 348.875 L 294.016 352.976 C 294.086 353.047 293.945 353.047 294.016 352.976 L 295.996 350.996 C 296.066 350.926 296.066 351.067 295.996 350.996 L 293.945 348.946 Z" stroke="rgb(0,0,255)" stroke-width="0.20" />
  <path d="M 219.600 341.981 V 344.881 C 219.600 344.981 219.500 344.881 219.600 344.881 H 222.400 C 222.500 344.881 222.400 344.981 222.400 344.881 V 339.081 C 222.400 338.981 222.500 339.081 222.400 339.081 H 219.600 C 219.500 339.081 219.600 338.981 219.600 339.081 V 341.981 Z" stroke="rgb(0,0,255)" stroke-width="0.20" />
  <path d="M 227.974 331.975 L 225.924 329.925 C 225.853 329.854 225.994 329.854 225.924 329.925 L 223.944 331.904 C 223.873 331.975 223.873 331.834 223.944 331.904 L 228.045 336.006 C 228.116 336.076 227.974 336.076 228.045 336.006 L 230.025 334.026 C 230.096 333.955 230.096 334.096 230.025 334.026 L 227.974 331.975 Z" stroke="rgb(0,0,255)" stroke-width="0.20" />
  <path d="M 236.460 340.460 L 234.409 338.410 C 234.338 338.339 234.480 338.339 234.409 338.410 L 232.429 340.390 C 232.358 340.460 232.358 340.319 232.429 340.390 L 236.530 344.491 C 236.601 344.562 236.460 344.562 236.530 344.491 L 238.510 342.511 C 238.581 342.440 238.581 342.582 238.510 342.511 L 236.460 340.460 Z" stroke="rgb(0,0,255)" stroke-width="0.20" />
  <path d="M 244.945 348.946 L 242.894 346.895 C 242.824 346.824 242.965 346.824 242.894 346.895 L 240.914 348.875 C 240.844 348.946 240.844 348.804 240.914 348.875 L 245.016 352.976 C 245.086 353.047 244.945 353.047 245.016 352.976 L 246.996 350.996 C 247.066 350.926 247.066 351.067 246.996 350.996 L 244.945 348.946 Z" stroke="rgb(0,0,255)" stroke-width="0.20" />
  <path d="M 178.974 331.975 L 176.924 329.925 C 176.853 329.854 176.994 329.854 176.924 329.925 L 174.944 331.904 C 174.873 331.975 174.873 331.834 174.944 331.904 L 179.045 336.006 C 179.116 336.076 178.974 336.076 179.045 336.006 L 181.025 334.026 C 181.096 333.955 181.096 334.096 181.025 334.026 L 178.974 331.975 Z" stroke="rgb(0,0,255)" stroke-width="0.20" />
  <path d="M 187.460 340.460 L 185.409 338.410 C 185.338 338.339 185.480 338.339 185.409 338.410 L 183.429 340.390 C 183.358 340.460 183.358 340.319 183.429 340.390 L 187.530 344.491 C 187.601 344.562 187.460 344.562 187.530 344.491 L 189.510 342.511 C 189.581 342.440 189.581 342.582 189.510 342.511 L 187.460 340.460 Z" stroke="rgb(0,0,255)" stroke-width="0.20" />
  <path d="M 195.945 348.946 L 193.894 346.895 C 193.824 346.824 193.965 346.824 193.894 346.895 L 191.914 348.875 C 191.844 348.946 191.844 348.804 191.914 348.875 L 196.016 352.976 C 196.086 353.047 195.945 353.047 196.016 352.976 L 197.996 350.996 C 198.066 350.926 198.066 351.067 197.996 350.996 L 195.945 348.946 Z" stroke="rgb(0,0,255)" stroke-width="0.20" />
  <text dominant-baseline="hanging" font-size="4px" style="font-family: sans-serif ; font-weight: normal; font-style: normal; fill: rgb(255,0,0)" text-anchor="middle" transform="matrix( 1.000 0.000 0.000 1.000 245.500 339.459 )">side</text><path d="M 317.500 356.459 H 311.439 C 311.384 356.459 311.339 356.415 311.339 356.359 V 353.459 C 311.339 353.359 311.439 353.459 311.339 353.459 H 305.539 C 305.439 353.459 305.539 353.359 305.539 353.459 V 356.359 C 305.539 356.415 305.495 356.459 305.439 356.459 H 299.379 H 294.257 H 287.318 C 287.263 356.459 287.218 356.415 287.218 356.359 V 353.459 C 287.218 353.359 287.318 353.459 287.218 353.459 H 281.418 C 281.318 353.459 281.418 353.359 281.418 353.459 V 356.359 C 281.418 356.415 281.373 356.459 281.318 356.459 H 275.318 C 275.263 356.459 275.218 356.415 275.218 356.359 V 353.459 C 275.218 353.359 275.318 353.459 275.218 353.459 H 269.418 C 269.318 353.459 269.418 353.359 269.418 353.459 V 356.359 C 269.418 356.415 269.373 356.459 269.318 356.459 H 263.318 C 263.263 356.459 263.218 356.415 263.218 356.359 V 353.459 C 263.218 353.359 263.318 353.459 263.218 353.459 H 257.418 C 257.318 353.459 257.418 353.359 257.418 353.459 V 356.359 C 257.418 356.415 257.373 356.459 257.318 356.459 H 250.379 H 245.257 H 238.318 C 238.263 356.459 238.218 356.415 238.218 356.359 V 353.459 C 238.218 353.359 238.318 353.459 238.218 353.459 H 232.418 C 232.318 353.459 232.418 353.359 232.418 353.459 V 356.359 C 232.418 356.415 232.373 356.459 232.318 356.459 H 226.318 C 226.263 356.459 226.218 356.415 226.218 356.359 V 353.459 C 226.218 353.359 226.318 353.459 226.218 353.459 H 220.418 C 220.318 353.459 220.418 353.359 220.418 353.459 V 356.359 C 220.418 356.415 220.373 356.459 220.318 356.459 H 214.318 C 214.263 356.459 214.218 356.415 214.218 356.359 V 353.459 C 214.218 353.359 214.318 353.459 214.218 353.459 H 208.418 C 208.318 353.459 208.418 353.359 208.418 353.459 V 356.359 C 208.418 356.415 208.373 356.459 208.318 356.459 H 201.379 H 196.257 H 187.879 C 187.823 356.459 187.779 356.415 187.779 356.359 V 353.459 C 187.779 353.359 187.879 353.459 187.779 353.459 H 181.979 C 181.879 353.459 181.979 353.359 181.979 353.459 V 356.359 C 181.979 356.415 181.934 356.459 181.879 356.459 H 173.500 C 173.445 356.459 173.400 356.415 173.400 356.359 V 353.359 V 345.081 C 173.400 344.981 173.500 345.081 173.400 345.081 H 170.500 C 170.445 345.081 170.400 345.036 170.400 344.981 V 338.981 C 170.400 338.926 170.445 338.881 170.500 338.881 H 173.400 C 173.500 338.881 173.400 338.981 173.400 338.881 V 330.702 C 173.400 330.602 173.500 330.702 173.400 330.702 H 170.500 C 170.445 330.702 170.400 330.657 170.400 330.602 V 326.359 C 170.400 326.304 170.445 326.259 170.500 326.259 H 173.500 H 317.500 C 317.555 326.259 317.600 326.304 317.600 326.359 V 330.759 C 317.600 330.859 317.500 330.759 317.600 330.759 H 320.500 C 320.555 330.759 320.600 330.804 320.600 330.859 V 336.859 C 320.600 336.915 320.555 336.959 320.500 336.959 H 317.600 C 317.500 336.959 317.600 336.859 317.600 336.959 V 342.759 C 317.600 342.859 317.500 342.759 317.600 342.759 H 320.500 C 320.555 342.759 320.600 342.804 320.600 342.859 V 348.859 C 320.600 348.915 320.555 348.959 320.500 348.959 H 317.600 C 317.500 348.959 317.600 348.859 317.600 348.959 V 353.359 V 356.359 C 317.600 356.415 317.555 356.459 317.500 356.459" stroke="rgb(0,0,0)" stroke-width="0.20" />
</g>
<g id="p-14" style="fill:none;stroke-linecap:round;stroke-linejoin:round;">
  <text dominant-baseline="hanging" font-size="4px" style="font-family: sans-serif ; font-weight: normal; font-style: normal; fill: rgb(255,0,0)" text-anchor="middle" transform="matrix( 1.000 0.000 0.000 1.000 245.500 307.759 )">inner y 1</text><path d="M 173.500 321.759 H 179.461 C 179.561 321.759 179.461 321.659 179.461 321.759 V 324.659 C 179.461 324.715 179.505 324.759 179.561 324.759 H 185.561 C 185.616 324.759 185.661 324.715 185.661 324.659 V 321.759 C 185.661 321.659 185.561 321.759 185.661 321.759 H 191.521 C 191.621 321.759 191.521 321.659 191.521 321.759 V 324.659 C 191.521 324.715 191.566 324.759 191.621 324.759 H 196.743 C 196.798 324.759 196.843 324.715 196.843 324.659 V 321.759 C 196.843 321.659 196.743 321.759 196.843 321.759 H 203.582 C 203.682 321.759 203.582 321.659 203.582 321.759 V 324.659 C 203.582 324.715 203.627 324.759 203.682 324.759 H 209.682 C 209.737 324.759 209.782 324.715 209.782 324.659 V 321.759 C 209.782 321.659 209.682 321.759 209.782 321.759 H 215.582 C 215.682 321.759 215.582 321.659 215.582 321.759 V 324.659 C 215.582 324.715 215.627 324.759 215.682 324.759 H 221.682 C 221.737 324.759 221.782 324.715 221.782 324.659 V 321.759 C 221.782 321.659 221.682 321.759 221.782 321.759 H 227.582 C 227.682 321.759 227.582 321.659 227.582 321.759 V 324.659 C 227.582 324.715 227.627 324.759 227.682 324.759 H 233.682 C 233.737 324.759 233.782 324.715 233.782 324.659 V 321.759 C 233.782 321.659 233.682 321.759 233.782 321.759 H 240.521 C 240.621 321.759 240.521 321.659 240.521 321.759 V 324.659 C 240.521 324.715 240.566 324.759 240.621 324.759 H 245.743 C 245.798 324.759 245.843 324.715 245.843 324.659 V 321.759 C 245.843 321.659 245.743 321.759 245.843 321.759 H 252.582 C 252.682 321.759 252.582 321.659 252.582 321.759 V 324.659 C 252.582 324.715 252.627 324.759 252.682 324.759 H 258.682 C 258.737 324.759 258.782 324.715 258.782 324.659 V 321.759 C 258.782 321.659 258.682 321.759 258.782 321.759 H 264.582 C 264.682 321.759 264.582 321.659 264.582 321.759 V 324.659 C 264.582 324.715 264.627 324.759 264.682 324.759 H 270.682 C 270.737 324.759 270.782 324.715 270.782 324.659 V 321.759 C 270.782 321.659 270.682 321.759 270.782 321.759 H 276.582 C 276.682 321.759 276.582 321.659 276.582 321.759 V 324.659 C 276.582 324.715 276.627 324.759 276.682 324.759 H 282.682 C 282.737 324.759 282.782 324.715 282.782 324.659 V 321.759 C 282.782 321.659 282.682 321.759 282.782 321.759 H 289.521 C 289.621 321.759 289.521 321.659 289.521 321.759 V 324.659 C 289.521 324.715 289.566 324.759 289.621 324.759 H 294.743 C 294.798 324.759 294.843 324.715 294.843 324.659 V 321.759 C 294.843 321.659 294.743 321.759 294.843 321.759 H 303.021 C 303.121 321.759 303.021 321.659 303.021 321.759 V 324.659 C 303.021 324.715 303.066 324.759 303.121 324.759 H 309.121 C 309.177 324.759 309.221 324.715 309.221 324.659 V 321.759 C 309.221 321.659 309.121 321.759 309.221 321.759 H 317.500 C 317.555 321.759 317.600 321.715 317.600 321.659 V 313.381 C 317.600 313.281 317.500 313.381 317.600 313.381 H 320.500 C 320.555 313.381 320.600 313.336 320.600 313.281 V 307.281 C 320.600 307.226 320.555 307.181 320.500 307.181 H 317.600 C 317.500 307.181 317.600 307.281 317.600 307.181 V 298.902 V 294.659 C 317.600 294.604 317.555 294.559 317.500 294.559 C 317.445 294.559 317.400 294.604 317.400 294.659 V 298.861 C 317.400 298.902 317.429 298.831 317.400 298.861 L 305.061 311.200 C 304.990 311.271 305.131 311.271 305.061 311.200 L 303.081 309.220 C 303.010 309.149 303.010 309.291 303.081 309.220 L 317.571 294.730 C 317.585 294.716 317.594 294.698 317.598 294.679 C 317.602 294.660 317.600 294.639 317.592 294.621 C 317.585 294.603 317.572 294.587 317.556 294.576 C 317.539 294.565 317.520 294.559 317.500 294.559 H 273.621 C 273.595 294.559 273.569 294.570 273.551 294.589 L 271.429 296.710 C 271.411 296.729 271.400 296.754 271.400 296.781 V 308.059 C 271.400 308.159 271.500 308.059 271.400 308.059 H 268.600 C 268.500 308.059 268.600 308.159 268.600 308.059 V 298.902 C 268.600 298.882 268.594 298.863 268.583 298.846 C 268.572 298.830 268.557 298.817 268.538 298.810 C 268.520 298.802 268.500 298.800 268.480 298.804 C 268.461 298.808 268.443 298.817 268.429 298.831 L 256.061 311.200 C 255.990 311.271 256.131 311.271 256.061 311.200 L 254.081 309.220 C 254.010 309.149 254.010 309.291 254.081 309.220 L 268.571 294.730 C 268.585 294.716 268.594 294.698 268.598 294.679 C 268.602 294.660 268.600 294.639 268.592 294.621 C 268.585 294.603 268.572 294.587 268.556 294.576 C 268.539 294.565 268.520 294.559 268.500 294.559 H 224.621 C 224.595 294.559 224.569 294.570 224.551 294.589 L 222.429 296.710 C 222.411 296.729 222.400 296.754 222.400 296.781 V 308.059 C 222.400 308.159 222.500 308.059 222.400 308.059 H 219.600 C 219.500 308.059 219.600 308.159 219.600 308.059 V 298.902 C 219.600 298.882 219.594 298.863 219.583 298.846 C 219.572 298.830 219.557 298.817 219.538 298.810 C 219.520 298.802 219.500 298.800 219.480 298.804 C 219.461 298.808 219.443 298.817 219.429 298.831 L 207.061 311.200 C 206.990 311.271 207.131 311.271 207.061 311.200 L 205.081 309.220 C 205.010 309.149 205.010 309.291 205.081 309.220 L 219.571 294.730 C 219.585 294.716 219.594 294.698 219.598 294.679 C 219.602 294.660 219.600 294.639 219.592 294.621 C 219.585 294.603 219.572 294.587 219.556 294.576 C 219.539 294.565 219.520 294.559 219.500 294.559 H 175.621 H 173.500 C 173.445 294.559 173.400 294.604 173.400 294.659 V 299.059 C 173.400 299.159 173.500 299.059 173.400 299.059 H 170.500 C 170.445 299.059 170.400 299.104 170.400 299.159 V 305.159 C 170.400 305.215 170.445 305.259 170.500 305.259 H 173.400 C 173.500 305.259 173.400 305.159 173.400 305.259 V 311.059 C 173.400 311.159 173.500 311.059 173.400 311.059 H 170.500 C 170.445 311.059 170.400 311.104 170.400 311.159 V 317.159 C 170.400 317.215 170.445 317.259 170.500 317.259 H 173.400 C 173.500 317.259 173.400 317.159 173.400 317.259 V 321.659 C 173.400 321.715 173.445 321.759 173.500 321.759" stroke="rgb(0,0,0)" stroke-width="0.20" />
</g>
<g id="p-15" style="fill:none;stroke-linecap:round;stroke-linejoin:round;">
  <text dominant-baseline="hanging" font-size="4px" style="font-family: sans-serif ; font-weight: normal; font-style: normal; fill: rgb(255,0,0)" text-anchor="middle" transform="matrix( 1.000 0.000 0.000 1.000 245.500 276.059 )">inner y 2</text><path d="M 173.500 290.059 H 179.461 C 179.561 290.059 179.461 289.959 179.461 290.059 V 292.959 C 179.461 293.015 179.505 293.059 179.561 293.059 H 185.561 C 185.616 293.059 185.661 293.015 185.661 292.959 V 290.059 C 185.661 289.959 185.561 290.059 185.661 290.059 H 191.521 C 191.621 290.059 191.521 289.959 191.521 290.059 V 292.959 C 191.521 293.015 191.566 293.059 191.621 293.059 H 196.743 C 196.798 293.059 196.843 293.015 196.843 292.959 V 290.059 C 196.843 289.959 196.743 290.059 196.843 290.059 H 203.582 C 203.682 290.059 203.582 289.959 203.582 290.059 V 292.959 C 203.582 293.015 203.627 293.059 203.682 293.059 H 209.682 C 209.737 293.059 209.782 293.015 209.782 292.959 V 290.059 C 209.782 289.959 209.682 290.059 209.782 290.059 H 215.582 C 215.682 290.059 215.582 289.959 215.582 290.059 V 292.959 C 215.582 293.015 215.627 293.059 215.682 293.059 H 221.682 C 221.737 293.059 221.782 293.015 221.782 292.959 V 290.059 C 221.782 289.959 221.682 290.059 221.782 290.059 H 227.582 C 227.682 290.059 227.582 289.959 227.582 290.059 V 292.959 C 227.582 293.015 227.627 293.059 227.682 293.059 H 233.682 C 233.737 293.059 233.782 293.015 233.782 292.959 V 290.059 C 233.782 289.959 233.682 290.059 233.782 290.059 H 240.521 C 240.621 290.059 240.521 289.959 240.521 290.059 V 292.959 C 240.521 293.015 240.566 293.059 240.621 293.059 H 245.743 C 245.798 293.059 245.843 293.015 245.843 292.959 V 290.059 C 245.843 289.959 245.743 290.059 245.843 290.059 H 252.582 C 252.682 290.059 252.582 289.959 252.582 290.059 V 292.959 C 252.582 293.015 252.627 293.059 252.682 293.059 H 258.682 C 258.737 293.059 258.782 293.015 258.782 292.959 V 290.059 C 258.782 289.959 258.682 290.059 258.782 290.059 H 264.582 C 264.682 290.059 264.582 289.959 264.582 290.059 V 292.959 C 264.582 293.015 264.627 293.059 264.682 293.059 H 270.682 C 270.737 293.059 270.782 293.015 270.782 292.959 V 290.059 C 270.782 289.959 270.682 290.059 270.782 290.059 H 276.582 C 276.682 290.059 276.582 289.959 276.582 290.059 V 292.959 C 276.582 293.015 276.627 293.059 276.682 293.059 H 282.682 C 282.737 293.059 282.782 293.015 282.782 292.959 V 290.059 C 282.782 289.959 282.682 290.059 282.782 290.059 H 289.521 C 289.621 290.059 289.521 289.959 289.521 290.059 V 292.959 C 289.521 293.015 289.566 293.059 289.621 293.059 H 294.743 C 294.798 293.059 294.843 293.015 294.843 292.959 V 290.059 C 294.843 289.959 294.743 290.059 294.843 290.059 H 303.021 C 303.121 290.059 303.021 289.959 303.021 290.059 V 292.959 C 303.021 293.015 303.066 293.059 303.121 293.059 H 309.121 C 309.177 293.059 309.221 293.015 309.221 292.959 V 290.059 C 309.221 289.959 309.121 290.059 309.221 290.059 H 317.500 C 317.555 290.059 317.600 290.015 317.600 289.959 V 281.681 C 317.600 281.581 317.500 281.681 317.600 281.681 H 320.500 C 320.555 281.681 320.600 281.636 320.600 281.581 V 275.581 C 320.600 275.526 320.555 275.481 320.500 275.481 H 317.600 C 317.500 275.481 317.600 275.581 317.600 275.481 V 267.202 V 262.959 C 317.600 262.904 317.555 262.859 317.500 262.859 C 317.445 262.859 317.400 262.904 317.400 262.959 V 267.161 C 317.400 267.202 317.429 267.131 317.400 267.161 L 305.061 279.500 C 304.990 279.571 305.131 279.571 305.061 279.500 L 303.081 277.520 C 303.010 277.449 303.010 277.591 303.081 277.520 L 317.571 263.030 C 317.585 263.016 317.594 262.998 317.598 262.979 C 317.602 262.960 317.600 262.939 317.592 262.921 C 317.585 262.903 317.572 262.887 317.556 262.876 C 317.539 262.865 317.520 262.859 317.500 262.859 H 273.621 C 273.595 262.859 273.569 262.870 273.551 262.889 L 271.429 265.010 C 271.411 265.029 271.400 265.054 271.400 265.081 V 276.359 C 271.400 276.459 271.500 276.359 271.400 276.359 H 268.600 C 268.500 276.359 268.600 276.459 268.600 276.359 V 267.202 C 268.600 267.182 268.594 267.163 268.583 267.146 C 268.572 267.130 268.557 267.117 268.538 267.110 C 268.520 267.102 268.500 267.100 268.480 267.104 C 268.461 267.108 268.443 267.117 268.429 267.131 L 256.061 279.500 C 255.990 279.571 256.131 279.571 256.061 279.500 L 254.081 277.520 C 254.010 277.449 254.010 277.591 254.081 277.520 L 268.571 263.030 C 268.585 263.016 268.594 262.998 268.598 262.979 C 268.602 262.960 268.600 262.939 268.592 262.921 C 268.585 262.903 268.572 262.887 268.556 262.876 C 268.539 262.865 268.520 262.859 268.500 262.859 H 224.621 C 224.595 262.859 224.569 262.870 224.551 262.889 L 222.429 265.010 C 222.411 265.029 222.400 265.054 222.400 265.081 V 276.359 C 222.400 276.459 222.500 276.359 222.400 276.359 H 219.600 C 219.500 276.359 219.600 276.459 219.600 276.359 V 267.202 C 219.600 267.182 219.594 267.163 219.583 267.146 C 219.572 267.130 219.557 267.117 219.538 267.110 C 219.520 267.102 219.500 267.100 219.480 267.104 C 219.461 267.108 219.443 267.117 219.429 267.131 L 207.061 279.500 C 206.990 279.571 207.131 279.571 207.061 279.500 L 205.081 277.520 C 205.010 277.449 205.010 277.591 205.081 277.520 L 219.571 263.030 C 219.585 263.016 219.594 262.998 219.598 262.979 C 219.602 262.960 219.600 262.939 219.592 262.921 C 219.585 262.903 219.572 262.887 219.556 262.876 C 219.539 262.865 219.520 262.859 219.500 262.859 H 175.621 H 173.500 C 173.445 262.859 173.400 262.904 173.400 262.959 V 267.359 C 173.400 267.459 173.500 267.359 173.400 267.359 H 170.500 C 170.445 267.359 170.400 267.404 170.400 267.459 V 273.459 C 170.400 273.515 170.445 273.559 170.500 273.559 H 173.400 C 173.500 273.559 173.400 273.459 173.400 273.559 V 279.359 C 173.400 279.459 173.500 279.359 173.400 279.359 H 170.500 C 170.445 279.359 170.400 279.404 170.400 279.459 V 285.459 C 170.400 285.515 170.445 285.559 170.500 285.559 H 173.400 C 173.500 285.559 173.400 285.459 173.400 285.559 V 289.959 C 173.400 290.015 173.445 290.059 173.500 290.059" stroke="rgb(0,0,0)" stroke-width="0.20" />
</g>
</svg>