<?xml version='1.0' encoding='utf-8'?>
<svg height="497.19mm" viewBox="0.0 0.0 196.80 497.19" width="196.80mm" xmlns="http://www.w3.org/2000/svg" xmlns:cc="http://creativecommons.org/ns#" xmlns:dc="http://purl.org/dc/elements/1.1/" xmlns:inkscape="http://www.inkscape.org/namespaces/inkscape" xmlns:rdf="http://www.w3.org/1999/02/22-rdf-syntax-ns#" xmlns:svg="http://www.w3.org/2000/svg" xmlns:xlink="http://www.w3.org/1999/xlink">
<!--
Stachel - Bass Recorder Endpin

Created with Boxes.py (https://boxes.hackerspace-bamberg.de/)
Command line (remove spaces between dashes): boxes Stachel
-->
<title>Stachel</title>
<metadata>
<rdf:RDF><cc:Work>
<dc:title>Misc - Stachel</dc:title>
<dc:source>boxes Stachel</dc:source>
<dc:description>Bass Recorder Endpin

Created with Boxes.py (https://boxes.hackerspace-bamberg.de/)
Command line: boxes Stachel
Command line short: boxes Stachel
</dc:description>
</cc:Work></rdf:RDF></metadata>
<g id="p-0" style="fill:none;stroke-linecap:round;stroke-linejoin:round;">
  <path d="M 10.000 487.186 H 110.000 V 477.186 H 10.000 V 487.186 Z" stroke="rgb(0,0,0)" stroke-width="0.20" />
  <text dominant-baseline="hanging" font-size="6px" style="font-family: sans-serif ; font-weight: normal; font-style: normal; fill: rgb(255,0,0)" text-anchor="middle" transform="matrix( 1.000 0.000 0.000 1.000 60.000 479.186 )">100.0mm, burn:0.10mm</text>
</g>
<g id="p-1" style="fill:none;stroke-linecap:round;stroke-linejoin:round;">
  <path d="M 74.500 472.986 V 423.486 C 74.500 423.430 74.455 423.386 74.400 423.386 C 66.613 423.386 59.021 420.955 52.682 416.434 C 46.343 411.912 41.573 405.524 39.038 398.162 C 36.503 390.799 36.329 382.829 38.540 375.363 C 40.752 367.897 45.238 361.308 51.374 356.514 C 57.510 351.720 64.989 348.961 72.769 348.621 C 80.548 348.282 88.239 350.378 94.769 354.619 C 101.300 358.860 106.344 365.034 109.198 372.278 C 112.051 379.523 112.573 387.478 110.689 395.033 C 108.805 402.589 104.610 409.368 98.689 414.425 C 92.768 419.482 85.417 422.565 77.660 423.243 C 77.605 423.248 77.564 423.297 77.569 423.352 L 81.883 472.663 C 81.923 473.118 82.081 473.554 82.343 473.928 C 82.605 474.302 82.961 474.600 83.374 474.793 C 83.788 474.986 84.245 475.067 84.700 475.027 L 99.643 473.719 C 100.097 473.680 100.533 473.521 100.907 473.259 C 101.281 472.997 101.579 472.642 101.772 472.228 C 101.965 471.814 102.046 471.357 102.006 470.903 L 99.768 445.321 C 99.772 445.364 99.747 445.405 99.708 445.422 C 108.983 441.473 117.205 435.407 123.717 427.711 C 130.228 420.015 134.848 410.902 137.207 401.101 C 137.197 401.143 137.161 401.173 137.118 401.177 L 184.437 397.037 C 184.892 396.997 185.328 396.839 185.702 396.577 C 186.076 396.315 186.374 395.960 186.567 395.546 C 186.760 395.132 186.841 394.675 186.801 394.221 L 185.319 377.285 C 185.315 377.230 185.266 377.190 185.211 377.194 L 165.287 378.937 C 165.235 378.942 165.195 378.986 165.196 379.038 C 165.214 381.589 164.445 384.083 162.994 386.181 C 161.543 388.279 159.481 389.878 157.087 390.761 C 154.694 391.643 152.087 391.767 149.621 391.113 C 147.155 390.460 144.951 389.063 143.309 387.111 C 141.666 385.159 140.666 382.749 140.443 380.208 C 140.221 377.666 140.788 375.119 142.066 372.911 C 143.345 370.704 145.273 368.945 147.588 367.874 C 149.903 366.802 152.492 366.471 155.002 366.925 C 157.512 367.378 159.821 368.595 161.614 370.409 C 163.408 372.223 164.598 374.546 165.023 377.061 C 165.032 377.113 165.078 377.149 165.130 377.144 L 185.054 375.401 C 185.109 375.396 185.150 375.348 185.145 375.293 L 183.663 358.358 C 183.624 357.903 183.465 357.467 183.203 357.093 C 182.941 356.719 182.586 356.421 182.172 356.228 C 181.758 356.035 181.301 355.954 180.847 355.994 L 133.527 360.134 C 133.570 360.130 133.611 360.154 133.628 360.194 C 128.698 348.874 120.628 339.204 110.373 332.329 C 100.118 325.453 88.108 321.661 75.764 321.400 C 63.420 321.139 51.260 324.421 40.724 330.858 C 30.188 337.294 21.717 346.614 16.314 357.716 C 10.911 368.818 8.803 381.235 10.238 393.498 C 11.674 405.760 16.594 417.355 24.415 426.908 C 32.236 436.461 42.631 443.573 54.369 447.402 C 54.328 447.388 54.300 447.350 54.300 447.306 V 472.986 C 54.300 473.442 54.420 473.890 54.648 474.286 C 54.877 474.681 55.205 475.009 55.600 475.237 C 55.995 475.465 56.444 475.586 56.900 475.586 H 71.900 C 72.356 475.586 72.805 475.465 73.200 475.237 C 73.595 475.009 73.923 474.681 74.152 474.286 C 74.380 473.890 74.500 473.442 74.500 472.986 Z" stroke="rgb(0,0,0)" stroke-width="0.20" />
</g>
<g id="p-2" style="fill:none;stroke-linecap:round;stroke-linejoin:round;">
  <path d="M 74.500 317.286 V 287.786 C 74.500 287.730 74.455 287.686 74.400 287.686 C 62.449 287.686 50.797 283.956 41.068 277.016 C 31.338 270.076 24.018 260.273 20.127 248.973 C 16.237 237.674 15.970 225.442 19.364 213.983 C 22.758 202.525 29.644 192.411 39.061 185.054 C 48.478 177.696 59.957 173.462 71.896 172.940 C 83.835 172.419 95.640 175.637 105.662 182.146 C 115.685 188.655 123.426 198.129 127.806 209.248 C 132.186 220.367 132.986 232.576 130.095 244.172 C 127.204 255.768 120.766 266.172 111.678 273.933 C 102.591 281.694 91.308 286.426 79.403 287.467 C 79.348 287.472 79.307 287.520 79.312 287.576 L 81.883 316.963 C 81.923 317.418 82.081 317.854 82.343 318.228 C 82.605 318.602 82.961 318.900 83.374 319.093 C 83.788 319.286 84.245 319.367 84.700 319.327 L 99.643 318.019 C 100.097 317.980 100.533 317.821 100.907 317.559 C 101.281 317.297 101.579 316.942 101.772 316.528 C 101.965 316.114 102.046 315.657 102.006 315.203 L 101.083 304.653 C 101.078 304.598 101.030 304.558 100.975 304.563 L 83.143 306.123 C 83.043 306.131 83.152 306.222 83.143 306.123 L 82.986 304.329 C 82.977 304.230 82.886 304.338 82.986 304.329 L 100.818 302.769 C 100.873 302.765 100.914 302.716 100.909 302.661 L 99.768 289.621 C 99.772 289.664 99.747 289.705 99.708 289.722 C 108.983 285.773 117.205 279.707 123.717 272.011 C 130.228 264.315 134.848 255.202 137.207 245.401 C 137.197 245.443 137.161 245.473 137.118 245.477 L 176.966 241.991 C 177.021 241.986 177.062 241.938 177.057 241.883 L 175.453 223.553 C 175.445 223.453 175.354 223.561 175.453 223.553 L 177.246 223.396 C 177.346 223.387 177.238 223.296 177.246 223.396 L 178.850 241.726 C 178.855 241.781 178.903 241.821 178.958 241.817 L 184.437 241.337 C 184.892 241.297 185.328 241.139 185.702 240.877 C 186.076 240.615 186.374 240.260 186.567 239.846 C 186.760 239.432 186.841 238.975 186.801 238.521 L 185.319 221.585 C 185.315 221.530 185.266 221.490 185.211 221.494 L 165.287 223.237 C 165.235 223.242 165.195 223.286 165.196 223.338 C 165.214 225.889 164.445 228.383 162.994 230.481 C 161.543 232.579 159.481 234.178 157.087 235.061 C 154.694 235.943 152.087 236.067 149.621 235.413 C 147.155 234.760 144.951 233.363 143.309 231.411 C 141.666 229.459 140.666 227.049 140.443 224.508 C 140.221 221.966 140.788 219.419 142.066 217.211 C 143.345 215.004 145.273 213.245 147.588 212.174 C 149.903 211.102 152.492 210.771 155.002 211.225 C 157.512 211.678 159.821 212.895 161.614 214.709 C 163.408 216.523 164.598 218.846 165.023 221.361 C 165.032 221.413 165.078 221.449 165.130 221.444 L 185.054 219.701 C 185.109 219.696 185.150 219.648 185.145 219.593 L 183.663 202.658 C 183.624 202.203 183.465 201.767 183.203 201.393 C 182.941 201.019 182.586 200.721 182.172 200.528 C 181.758 200.335 181.301 200.254 180.847 200.294 L 175.368 200.773 C 175.313 200.778 175.272 200.827 175.277 200.882 L 176.880 219.212 C 176.889 219.311 176.980 219.203 176.880 219.212 L 175.087 219.369 C 174.988 219.377 175.096 219.468 175.087 219.369 L 173.484 201.039 C 173.479 200.984 173.430 200.943 173.375 200.948 L 133.527 204.434 C 133.570 204.430 133.611 204.454 133.628 204.494 C 128.698 193.174 120.628 183.504 110.373 176.629 C 100.118 169.753 88.108 165.961 75.764 165.700 C 63.420 165.439 51.260 168.721 40.724 175.158 C 30.188 181.594 21.717 190.914 16.314 202.016 C 10.911 213.118 8.803 225.535 10.238 237.798 C 11.674 250.060 16.594 261.655 24.415 271.208 C 32.236 280.761 42.631 287.873 54.369 291.702 C 54.328 291.688 54.300 291.650 54.300 291.606 V 304.696 C 54.300 304.751 54.345 304.796 54.400 304.796 H 72.300 C 72.400 304.796 72.300 304.696 72.300 304.796 V 306.596 C 72.300 306.696 72.400 306.596 72.300 306.596 H 54.400 C 54.345 306.596 54.300 306.641 54.300 306.696 V 317.286 C 54.300 317.742 54.420 318.190 54.648 318.586 C 54.877 318.981 55.205 319.309 55.600 319.537 C 55.995 319.765 56.444 319.886 56.900 319.886 H 71.900 C 72.356 319.886 72.805 319.765 73.200 319.537 C 73.595 319.309 73.923 318.981 74.152 318.586 C 74.380 318.190 74.500 317.742 74.500 317.286 Z" stroke="rgb(0,0,0)" stroke-width="0.20" />
</g>
<g id="p-3" style="fill:none;stroke-linecap:round;stroke-linejoin:round;">
  <path d="M 74.500 161.586 V 132.086 C 74.500 132.030 74.455 131.986 74.400 131.986 C 62.449 131.986 50.797 128.256 41.068 121.316 C 31.338 114.376 24.018 104.573 20.127 93.273 C 16.237 81.974 15.970 69.742 19.364 58.283 C 22.758 46.825 29.644 36.711 39.061 29.354 C 48.478 21.996 59.957 17.762 71.896 17.240 C 83.835 16.719 95.640 19.937 105.662 26.446 C 115.685 32.955 123.426 42.429 127.806 53.548 C 132.186 64.667 132.986 76.876 130.095 88.472 C 127.204 100.068 120.766 110.472 111.678 118.233 C 102.591 125.994 91.308 130.726 79.403 131.767 C 79.348 131.772 79.307 131.820 79.312 131.876 L 81.883 161.263 C 81.923 161.718 82.081 162.154 82.343 162.528 C 82.605 162.902 82.961 163.200 83.374 163.393 C 83.788 163.586 84.245 163.667 84.700 163.627 L 99.643 162.319 C 100.097 162.280 100.533 162.121 100.907 161.859 C 101.281 161.597 101.579 161.242 101.772 160.828 C 101.965 160.414 102.046 159.957 102.006 159.503 L 99.768 133.921 C 99.772 133.964 99.747 134.005 99.708 134.022 C 108.983 130.073 117.205 124.007 123.717 116.311 C 130.228 108.615 134.848 99.502 137.207 89.701 C 137.197 89.743 137.161 89.773 137.118 89.777 L 184.437 85.637 C 184.892 85.597 185.328 85.439 185.702 85.177 C 186.076 84.915 186.374 84.560 186.567 84.146 C 186.760 83.732 186.841 83.275 186.801 82.821 L 185.319 65.885 C 185.315 65.830 185.266 65.790 185.211 65.794 L 165.287 67.537 C 165.235 67.542 165.195 67.586 165.196 67.638 C 165.214 70.189 164.445 72.683 162.994 74.781 C 161.543 76.879 159.481 78.478 157.087 79.361 C 154.694 80.243 152.087 80.367 149.621 79.713 C 147.155 79.060 144.951 77.663 143.309 75.711 C 141.666 73.759 140.666 71.349 140.443 68.808 C 140.221 66.266 140.788 63.719 142.066 61.511 C 143.345 59.304 145.273 57.545 147.588 56.474 C 149.903 55.402 152.492 55.071 155.002 55.525 C 157.512 55.978 159.821 57.195 161.614 59.009 C 163.408 60.823 164.598 63.146 165.023 65.661 C 165.032 65.713 165.078 65.749 165.130 65.744 L 185.054 64.001 C 185.109 63.996 185.150 63.948 185.145 63.893 L 183.663 46.958 C 183.624 46.503 183.465 46.067 183.203 45.693 C 182.941 45.319 182.586 45.021 182.172 44.828 C 181.758 44.635 181.301 44.554 180.847 44.594 L 133.527 48.734 C 133.570 48.730 133.611 48.754 133.628 48.794 C 128.698 37.474 120.628 27.804 110.373 20.929 C 100.118 14.053 88.108 10.261 75.764 10.000 C 63.420 9.739 51.260 13.021 40.724 19.458 C 30.188 25.894 21.717 35.214 16.314 46.316 C 10.911 57.418 8.803 69.835 10.238 82.098 C 11.674 94.360 16.594 105.955 24.415 115.508 C 32.236 125.061 42.631 132.173 54.369 136.002 C 54.328 135.988 54.300 135.950 54.300 135.906 V 161.586 C 54.300 162.042 54.420 162.490 54.648 162.886 C 54.877 163.281 55.205 163.609 55.600 163.837 C 55.995 164.065 56.444 164.186 56.900 164.186 H 71.900 C 72.356 164.186 72.805 164.065 73.200 163.837 C 73.595 163.609 73.923 163.281 74.152 162.886 C 74.380 162.490 74.500 162.042 74.500 161.586 Z" stroke="rgb(0,0,0)" stroke-width="0.20" />
</g>
</svg>