<?xml version='1.0' encoding='utf-8'?>
<svg height="437.79mm" viewBox="0.0 0.0 233.90 437.79" width="233.90mm" xmlns="http://www.w3.org/2000/svg" xmlns:cc="http://creativecommons.org/ns#" xmlns:dc="http://purl.org/dc/elements/1.1/" xmlns:inkscape="http://www.inkscape.org/namespaces/inkscape" xmlns:rdf="http://www.w3.org/1999/02/22-rdf-syntax-ns#" xmlns:svg="http://www.w3.org/2000/svg" xmlns:xlink="http://www.w3.org/1999/xlink">
<!--
StevensonScreenBox - A box with Stevenson Screens front and back.


This box is intended to hold a simple weather station.


Created with Boxes.py (https://boxes.hackerspace-bamberg.de/)
Command line (remove spaces between dashes): boxes StevensonScreenBox
-->
<title>StevensonScreenBox</title>
<metadata>
<rdf:RDF><cc:Work>
<dc:title>Box - StevensonScreenBox</dc:title>
<dc:source>boxes StevensonScreenBox</dc:source>
<dc:description>A box with Stevenson Screens front and back.

This box is intended to hold a simple weather station.

Created with Boxes.py (https://boxes.hackerspace-bamberg.de/)
Command line: boxes StevensonScreenBox
Command line short: boxes StevensonScreenBox
</dc:description>
</cc:Work></rdf:RDF></metadata>
<g id="p-0" style="fill:none;stroke-linecap:round;stroke-linejoin:round;">
  <path d="M 10.100 427.794 H 110.100 V 417.794 H 10.100 V 427.794 Z" stroke="rgb(0,0,0)" stroke-width="0.20" />
  <text dominant-baseline="hanging" font-size="6px" style="font-family: sans-serif ; font-weight: normal; font-style: normal; fill: rgb(255,0,0)" text-anchor="middle" transform="matrix( 1.000 0.000 0.000 1.000 60.100 419.794 )">100.0mm, burn:0.10mm</text>
</g>
<g id="p-1" style="fill:none;stroke-linecap:round;stroke-linejoin:round;">
  <path d="M 48.100 409.994 H 45.200 C 45.100 409.994 45.200 410.094 45.200 409.994 V 407.194 C 45.200 407.094 45.100 407.194 45.200 407.194 H 51.000 C 51.100 407.194 51.000 407.094 51.000 407.194 V 409.994 C 51.000 410.094 51.100 409.994 51.000 409.994 H 48.100 Z" stroke="rgb(0,0,255)" stroke-width="0.20" />
  <path d="M 60.100 409.994 H 57.200 C 57.100 409.994 57.200 410.094 57.200 409.994 V 407.194 C 57.200 407.094 57.100 407.194 57.200 407.194 H 63.000 C 63.100 407.194 63.000 407.094 63.000 407.194 V 409.994 C 63.000 410.094 63.100 409.994 63.000 409.994 H 60.100 Z" stroke="rgb(0,0,255)" stroke-width="0.20" />
  <path d="M 72.100 409.994 H 69.200 C 69.100 409.994 69.200 410.094 69.200 409.994 V 407.194 C 69.200 407.094 69.100 407.194 69.200 407.194 H 75.000 C 75.100 407.194 75.000 407.094 75.000 407.194 V 409.994 C 75.000 410.094 75.100 409.994 75.000 409.994 H 72.100 Z" stroke="rgb(0,0,255)" stroke-width="0.20" />
  <path d="M 61.500 402.594 V 404.744 C 61.500 404.844 61.600 404.744 61.500 404.744 H 58.700 C 58.600 404.744 58.700 404.844 58.700 404.744 V 400.444 C 58.700 400.344 58.600 400.444 58.700 400.444 H 61.500 C 61.600 400.444 61.500 400.344 61.500 400.444 V 402.594 Z" stroke="rgb(0,0,255)" stroke-width="0.20" />
  <path d="M 20.454 408.599 L 18.403 410.650 C 18.333 410.720 18.474 410.720 18.403 410.650 L 16.423 408.670 C 16.353 408.599 16.353 408.741 16.423 408.670 L 20.525 404.569 C 20.595 404.498 20.454 404.498 20.525 404.569 L 22.505 406.548 C 22.575 406.619 22.575 406.478 22.505 406.548 L 20.454 408.599 Z" stroke="rgb(0,0,255)" stroke-width="0.20" />
  <path d="M 20.454 393.326 L 18.403 395.376 C 18.333 395.447 18.474 395.447 18.403 395.376 L 16.423 393.396 C 16.353 393.326 16.353 393.467 16.423 393.396 L 20.525 389.295 C 20.595 389.224 20.454 389.224 20.525 389.295 L 22.505 391.275 C 22.575 391.346 22.575 391.204 22.505 391.275 L 20.454 393.326 Z" stroke="rgb(0,0,255)" stroke-width="0.20" />
  <path d="M 20.454 378.052 L 18.403 380.103 C 18.333 380.173 18.474 380.173 18.403 380.103 L 16.423 378.123 C 16.353 378.052 16.353 378.194 16.423 378.123 L 20.525 374.022 C 20.595 373.951 20.454 373.951 20.525 374.022 L 22.505 376.001 C 22.575 376.072 22.575 375.931 22.505 376.001 L 20.454 378.052 Z" stroke="rgb(0,0,255)" stroke-width="0.20" />
  <path d="M 20.454 362.779 L 18.403 364.829 C 18.333 364.900 18.474 364.900 18.403 364.829 L 16.423 362.849 C 16.353 362.779 16.353 362.920 16.423 362.849 L 20.525 358.748 C 20.595 358.677 20.454 358.677 20.525 358.748 L 22.505 360.728 C 22.575 360.799 22.575 360.657 22.505 360.728 L 20.454 362.779 Z" stroke="rgb(0,0,255)" stroke-width="0.20" />
  <path d="M 20.454 347.505 L 18.403 349.556 C 18.333 349.626 18.474 349.626 18.403 349.556 L 16.423 347.576 C 16.353 347.505 16.353 347.646 16.423 347.576 L 20.525 343.475 C 20.595 343.404 20.454 343.404 20.525 343.475 L 22.505 345.454 C 22.575 345.525 22.575 345.384 22.505 345.454 L 20.454 347.505 Z" stroke="rgb(0,0,255)" stroke-width="0.20" />
  <path d="M 20.454 332.232 L 18.403 334.282 C 18.333 334.353 18.474 334.353 18.403 334.282 L 16.423 332.302 C 16.353 332.232 16.353 332.373 16.423 332.302 L 20.525 328.201 C 20.595 328.130 20.454 328.130 20.525 328.201 L 22.505 330.181 C 22.575 330.252 22.575 330.110 22.505 330.181 L 20.454 332.232 Z" stroke="rgb(0,0,255)" stroke-width="0.20" />
  <path d="M 99.746 408.599 L 101.797 410.650 C 101.867 410.720 101.726 410.720 101.797 410.650 L 103.777 408.670 C 103.847 408.599 103.847 408.741 103.777 408.670 L 99.675 404.569 C 99.605 404.498 99.746 404.498 99.675 404.569 L 97.695 406.548 C 97.625 406.619 97.625 406.478 97.695 406.548 L 99.746 408.599 Z" stroke="rgb(0,0,255)" stroke-width="0.20" />
  <path d="M 99.746 393.326 L 101.797 395.376 C 101.867 395.447 101.726 395.447 101.797 395.376 L 103.777 393.396 C 103.847 393.326 103.847 393.467 103.777 393.396 L 99.675 389.295 C 99.605 389.224 99.746 389.224 99.675 389.295 L 97.695 391.275 C 97.625 391.346 97.625 391.204 97.695 391.275 L 99.746 393.326 Z" stroke="rgb(0,0,255)" stroke-width="0.20" />
  <path d="M 99.746 378.052 L 101.797 380.103 C 101.867 380.173 101.726 380.173 101.797 380.103 L 103.777 378.123 C 103.847 378.052 103.847 378.194 103.777 378.123 L 99.675 374.022 C 99.605 373.951 99.746 373.951 99.675 374.022 L 97.695 376.001 C 97.625 376.072 97.625 375.931 97.695 376.001 L 99.746 378.052 Z" stroke="rgb(0,0,255)" stroke-width="0.20" />
  <path d="M 99.746 362.779 L 101.797 364.829 C 101.867 364.900 101.726 364.900 101.797 364.829 L 103.777 362.849 C 103.847 362.779 103.847 362.920 103.777 362.849 L 99.675 358.748 C 99.605 358.677 99.746 358.677 99.675 358.748 L 97.695 360.728 C 97.625 360.799 97.625 360.657 97.695 360.728 L 99.746 362.779 Z" stroke="rgb(0,0,255)" stroke-width="0.20" />
  <path d="M 99.746 347.505 L 101.797 349.556 C 101.867 349.626 101.726 349.626 101.797 349.556 L 103.777 347.576 C 103.847 347.505 103.847 347.646 103.777 347.576 L 99.675 343.475 C 99.605 343.404 99.746 343.404 99.675 343.475 L 97.695 345.454 C 97.625 345.525 97.625 345.384 97.695 345.454 L 99.746 347.505 Z" stroke="rgb(0,0,255)" stroke-width="0.20" />
  <path d="M 99.746 332.232 L 101.797 334.282 C 101.867 334.353 101.726 334.353 101.797 334.282 L 103.777 332.302 C 103.847 332.232 103.847 332.373 103.777 332.302 L 99.675 328.201 C 99.605 328.130 99.746 328.130 99.675 328.201 L 97.695 330.181 C 97.625 330.252 97.625 330.110 97.695 330.181 L 99.746 332.232 Z" stroke="rgb(0,0,255)" stroke-width="0.20" />
  <path d="M 10.100 416.094 H 110.100 C 110.155 416.094 110.200 416.050 110.200 415.994 V 305.542 C 110.200 305.486 110.155 305.442 110.100 305.442 C 110.097 305.442 110.093 305.442 110.090 305.442 L 98.978 306.604 C 98.878 306.614 98.988 306.703 98.978 306.604 L 98.676 303.719 C 98.670 303.664 98.621 303.625 98.566 303.630 L 92.599 304.254 C 92.544 304.260 92.504 304.309 92.510 304.364 L 92.811 307.248 C 92.822 307.348 92.911 307.238 92.811 307.248 L 87.043 307.851 C 86.943 307.862 87.053 307.951 87.043 307.851 L 86.741 304.967 C 86.736 304.912 86.686 304.872 86.631 304.878 L 80.664 305.502 C 80.609 305.507 80.569 305.557 80.575 305.611 L 80.876 308.496 C 80.887 308.595 80.976 308.485 80.876 308.496 L 75.108 309.099 C 75.008 309.109 75.118 309.198 75.108 309.099 L 74.806 306.214 C 74.801 306.160 74.751 306.120 74.696 306.125 L 68.729 306.749 C 68.674 306.755 68.634 306.804 68.640 306.859 L 68.941 309.743 C 68.952 309.843 69.041 309.733 68.941 309.743 L 63.173 310.346 C 63.073 310.357 63.183 310.446 63.173 310.346 L 62.871 307.462 C 62.866 307.407 62.816 307.367 62.761 307.373 L 56.794 307.997 C 56.739 308.002 56.699 308.052 56.705 308.107 L 57.006 310.991 C 57.017 311.090 57.106 310.980 57.006 310.991 L 51.238 311.594 C 51.138 311.604 51.248 311.693 51.238 311.594 L 50.936 308.710 C 50.931 308.655 50.881 308.615 50.826 308.620 L 44.859 309.244 C 44.804 309.250 44.764 309.299 44.770 309.354 L 45.071 312.238 C 45.082 312.338 45.171 312.228 45.071 312.238 L 39.303 312.841 C 39.203 312.852 39.313 312.941 39.303 312.841 L 39.001 309.957 C 38.996 309.902 38.946 309.862 38.892 309.868 L 32.924 310.492 C 32.869 310.498 32.829 310.547 32.835 310.602 L 33.136 313.486 C 33.147 313.585 33.236 313.476 33.136 313.486 L 27.368 314.089 C 27.268 314.099 27.378 314.188 27.368 314.089 L 27.066 311.205 C 27.061 311.150 27.011 311.110 26.957 311.116 L 20.989 311.739 C 20.934 311.745 20.894 311.794 20.900 311.849 L 21.201 314.733 C 21.212 314.833 21.301 314.723 21.201 314.733 L 10.090 315.895 C 10.093 315.895 10.097 315.894 10.100 315.894 C 10.045 315.894 10.000 315.939 10.000 315.994 V 415.994 C 10.000 416.050 10.045 416.094 10.100 416.094 Z" stroke="rgb(0,0,0)" stroke-width="0.20" />
  <path d="M 104.935 313.715 L 104.633 310.831 C 104.623 310.731 104.534 310.841 104.633 310.831 L 107.418 310.540 C 107.517 310.529 107.407 310.440 107.418 310.540 L 108.021 316.308 C 108.031 316.408 108.120 316.298 108.021 316.308 L 105.236 316.599 C 105.137 316.610 105.246 316.699 105.236 316.599 L 104.935 313.715 Z" stroke="rgb(0,0,255)" stroke-width="0.20" />
  <path d="M 12.120 319.986 L 11.913 318.007 C 11.903 317.907 11.814 318.017 11.913 318.007 L 14.698 317.715 C 14.797 317.705 14.687 317.616 14.698 317.715 L 15.112 321.673 C 15.122 321.773 15.211 321.663 15.112 321.673 L 12.327 321.965 C 12.227 321.975 12.337 322.064 12.327 321.965 L 12.120 319.986 Z" stroke="rgb(0,0,255)" stroke-width="0.20" />
  <text dominant-baseline="hanging" font-size="4px" style="font-family: sans-serif ; font-weight: normal; font-style: normal; fill: rgb(255,0,0)" text-anchor="middle" transform="matrix( 1.000 0.000 0.000 1.000 60.100 357.368 )">left</text>
</g>
<g id="p-2" style="fill:none;stroke-linecap:round;stroke-linejoin:round;">
  <path d="M 72.100 294.842 H 75.000 C 75.100 294.842 75.000 294.942 75.000 294.842 V 292.042 C 75.000 291.942 75.100 292.042 75.000 292.042 H 69.200 C 69.100 292.042 69.200 291.942 69.200 292.042 V 294.842 C 69.200 294.942 69.100 294.842 69.200 294.842 H 72.100 Z" stroke="rgb(0,0,255)" stroke-width="0.20" />
  <path d="M 60.100 294.842 H 63.000 C 63.100 294.842 63.000 294.942 63.000 294.842 V 292.042 C 63.000 291.942 63.100 292.042 63.000 292.042 H 57.200 C 57.100 292.042 57.200 291.942 57.200 292.042 V 294.842 C 57.200 294.942 57.100 294.842 57.200 294.842 H 60.100 Z" stroke="rgb(0,0,255)" stroke-width="0.20" />
  <path d="M 48.100 294.842 H 51.000 C 51.100 294.842 51.000 294.942 51.000 294.842 V 292.042 C 51.000 291.942 51.100 292.042 51.000 292.042 H 45.200 C 45.100 292.042 45.200 291.942 45.200 292.042 V 294.842 C 45.200 294.942 45.100 294.842 45.200 294.842 H 48.100 Z" stroke="rgb(0,0,255)" stroke-width="0.20" />
  <path d="M 58.700 287.442 V 289.592 C 58.700 289.692 58.600 289.592 58.700 289.592 H 61.500 C 61.600 289.592 61.500 289.692 61.500 289.592 V 285.292 C 61.500 285.192 61.600 285.292 61.500 285.292 H 58.700 C 58.600 285.292 58.700 285.192 58.700 285.292 V 287.442 Z" stroke="rgb(0,0,255)" stroke-width="0.20" />
  <path d="M 99.746 293.446 L 101.797 295.497 C 101.867 295.568 101.726 295.568 101.797 295.497 L 103.777 293.517 C 103.847 293.446 103.847 293.588 103.777 293.517 L 99.675 289.416 C 99.605 289.345 99.746 289.345 99.675 289.416 L 97.695 291.396 C 97.625 291.466 97.625 291.325 97.695 291.396 L 99.746 293.446 Z" stroke="rgb(0,0,255)" stroke-width="0.20" />
  <path d="M 99.746 278.173 L 101.797 280.223 C 101.867 280.294 101.726 280.294 101.797 280.223 L 103.777 278.243 C 103.847 278.173 103.847 278.314 103.777 278.243 L 99.675 274.142 C 99.605 274.072 99.746 274.072 99.675 274.142 L 97.695 276.122 C 97.625 276.193 97.625 276.051 97.695 276.122 L 99.746 278.173 Z" stroke="rgb(0,0,255)" stroke-width="0.20" />
  <path d="M 99.746 262.899 L 101.797 264.950 C 101.867 265.021 101.726 265.021 101.797 264.950 L 103.777 262.970 C 103.847 262.899 103.847 263.041 103.777 262.970 L 99.675 258.869 C 99.605 258.798 99.746 258.798 99.675 258.869 L 97.695 260.849 C 97.625 260.919 97.625 260.778 97.695 260.849 L 99.746 262.899 Z" stroke="rgb(0,0,255)" stroke-width="0.20" />
  <path d="M 99.746 247.626 L 101.797 249.676 C 101.867 249.747 101.726 249.747 101.797 249.676 L 103.777 247.696 C 103.847 247.626 103.847 247.767 103.777 247.696 L 99.675 243.595 C 99.605 243.525 99.746 243.525 99.675 243.595 L 97.695 245.575 C 97.625 245.646 97.625 245.504 97.695 245.575 L 99.746 247.626 Z" stroke="rgb(0,0,255)" stroke-width="0.20" />
  <path d="M 99.746 232.352 L 101.797 234.403 C 101.867 234.474 101.726 234.474 101.797 234.403 L 103.777 232.423 C 103.847 232.352 103.847 232.494 103.777 232.423 L 99.675 228.322 C 99.605 228.251 99.746 228.251 99.675 228.322 L 97.695 230.302 C 97.625 230.372 97.625 230.231 97.695 230.302 L 99.746 232.352 Z" stroke="rgb(0,0,255)" stroke-width="0.20" />
  <path d="M 99.746 217.079 L 101.797 219.129 C 101.867 219.200 101.726 219.200 101.797 219.129 L 103.777 217.149 C 103.847 217.079 103.847 217.220 103.777 217.149 L 99.675 213.048 C 99.605 212.977 99.746 212.977 99.675 213.048 L 97.695 215.028 C 97.625 215.099 97.625 214.957 97.695 215.028 L 99.746 217.079 Z" stroke="rgb(0,0,255)" stroke-width="0.20" />
  <path d="M 20.454 293.446 L 18.403 295.497 C 18.333 295.568 18.474 295.568 18.403 295.497 L 16.423 293.517 C 16.353 293.446 16.353 293.588 16.423 293.517 L 20.525 289.416 C 20.595 289.345 20.454 289.345 20.525 289.416 L 22.505 291.396 C 22.575 291.466 22.575 291.325 22.505 291.396 L 20.454 293.446 Z" stroke="rgb(0,0,255)" stroke-width="0.20" />
  <path d="M 20.454 278.173 L 18.403 280.223 C 18.333 280.294 18.474 280.294 18.403 280.223 L 16.423 278.243 C 16.353 278.173 16.353 278.314 16.423 278.243 L 20.525 274.142 C 20.595 274.072 20.454 274.072 20.525 274.142 L 22.505 276.122 C 22.575 276.193 22.575 276.051 22.505 276.122 L 20.454 278.173 Z" stroke="rgb(0,0,255)" stroke-width="0.20" />
  <path d="M 20.454 262.899 L 18.403 264.950 C 18.333 265.021 18.474 265.021 18.403 264.950 L 16.423 262.970 C 16.353 262.899 16.353 263.041 16.423 262.970 L 20.525 258.869 C 20.595 258.798 20.454 258.798 20.525 258.869 L 22.505 260.849 C 22.575 260.919 22.575 260.778 22.505 260.849 L 20.454 262.899 Z" stroke="rgb(0,0,255)" stroke-width="0.20" />
  <path d="M 20.454 247.626 L 18.403 249.676 C 18.333 249.747 18.474 249.747 18.403 249.676 L 16.423 247.696 C 16.353 247.626 16.353 247.767 16.423 247.696 L 20.525 243.595 C 20.595 243.525 20.454 243.525 20.525 243.595 L 22.505 245.575 C 22.575 245.646 22.575 245.504 22.505 245.575 L 20.454 247.626 Z" stroke="rgb(0,0,255)" stroke-width="0.20" />
  <path d="M 20.454 232.352 L 18.403 234.403 C 18.333 234.474 18.474 234.474 18.403 234.403 L 16.423 232.423 C 16.353 232.352 16.353 232.494 16.423 232.423 L 20.525 228.322 C 20.595 228.251 20.454 228.251 20.525 228.322 L 22.505 230.302 C 22.575 230.372 22.575 230.231 22.505 230.302 L 20.454 232.352 Z" stroke="rgb(0,0,255)" stroke-width="0.20" />
  <path d="M 20.454 217.079 L 18.403 219.129 C 18.333 219.200 18.474 219.200 18.403 219.129 L 16.423 217.149 C 16.353 217.079 16.353 217.220 16.423 217.149 L 20.525 213.048 C 20.595 212.977 20.454 212.977 20.525 213.048 L 22.505 215.028 C 22.575 215.099 22.575 214.957 22.505 215.028 L 20.454 217.079 Z" stroke="rgb(0,0,255)" stroke-width="0.20" />
  <path d="M 110.100 300.942 H 10.100 C 10.045 300.942 10.000 300.897 10.000 300.842 V 190.389 C 10.000 190.334 10.045 190.289 10.100 190.289 C 10.103 190.289 10.107 190.289 10.110 190.289 L 21.222 191.451 C 21.322 191.461 21.212 191.550 21.222 191.451 L 21.524 188.566 C 21.530 188.512 21.579 188.472 21.634 188.477 L 27.601 189.101 C 27.656 189.107 27.696 189.156 27.690 189.211 L 27.389 192.095 C 27.378 192.195 27.289 192.085 27.389 192.095 L 33.157 192.698 C 33.257 192.709 33.147 192.798 33.157 192.698 L 33.459 189.814 C 33.464 189.759 33.514 189.719 33.569 189.725 L 39.536 190.349 C 39.591 190.354 39.631 190.404 39.625 190.459 L 39.324 193.343 C 39.313 193.442 39.224 193.332 39.324 193.343 L 45.092 193.946 C 45.192 193.956 45.082 194.045 45.092 193.946 L 45.394 191.062 C 45.399 191.007 45.449 190.967 45.504 190.973 L 51.471 191.596 C 51.526 191.602 51.566 191.651 51.560 191.706 L 51.259 194.590 C 51.248 194.690 51.159 194.580 51.259 194.590 L 57.027 195.193 C 57.127 195.204 57.017 195.293 57.027 195.193 L 57.329 192.309 C 57.334 192.254 57.384 192.214 57.439 192.220 L 63.406 192.844 C 63.461 192.850 63.501 192.899 63.495 192.954 L 63.194 195.838 C 63.183 195.937 63.094 195.828 63.194 195.838 L 68.962 196.441 C 69.062 196.451 68.952 196.540 68.962 196.441 L 69.264 193.557 C 69.269 193.502 69.319 193.462 69.374 193.468 L 75.341 194.091 C 75.396 194.097 75.436 194.146 75.430 194.201 L 75.129 197.086 C 75.118 197.185 75.029 197.075 75.129 197.086 L 80.897 197.689 C 80.997 197.699 80.887 197.788 80.897 197.689 L 81.199 194.804 C 81.204 194.749 81.254 194.709 81.308 194.715 L 87.276 195.339 C 87.331 195.345 87.371 195.394 87.365 195.449 L 87.064 198.333 C 87.053 198.433 86.964 198.323 87.064 198.333 L 92.832 198.936 C 92.932 198.946 92.822 199.036 92.832 198.936 L 93.134 196.052 C 93.139 195.997 93.189 195.957 93.243 195.963 L 99.211 196.586 C 99.266 196.592 99.306 196.641 99.300 196.696 L 98.999 199.581 C 98.988 199.680 98.899 199.570 98.999 199.581 L 110.110 200.742 C 110.107 200.742 110.103 200.742 110.100 200.742 C 110.155 200.742 110.200 200.786 110.200 200.842 V 300.842 C 110.200 300.897 110.155 300.942 110.100 300.942 Z" stroke="rgb(0,0,0)" stroke-width="0.20" />
  <path d="M 15.265 198.562 L 15.567 195.678 C 15.577 195.579 15.666 195.688 15.567 195.678 L 12.782 195.387 C 12.683 195.377 12.793 195.288 12.782 195.387 L 12.179 201.156 C 12.169 201.255 12.080 201.145 12.179 201.156 L 14.964 201.447 C 15.063 201.457 14.954 201.546 14.964 201.447 L 15.265 198.562 Z" stroke="rgb(0,0,255)" stroke-width="0.20" />
  <path d="M 108.080 204.833 L 108.287 202.854 C 108.297 202.754 108.386 202.864 108.287 202.854 L 105.502 202.563 C 105.403 202.552 105.513 202.463 105.502 202.563 L 105.088 206.521 C 105.078 206.620 104.989 206.510 105.088 206.521 L 107.873 206.812 C 107.973 206.822 107.863 206.911 107.873 206.812 L 108.080 204.833 Z" stroke="rgb(0,0,255)" stroke-width="0.20" />
  <text dominant-baseline="hanging" font-size="4px" style="font-family: sans-serif ; font-weight: normal; font-style: normal; fill: rgb(255,0,0)" text-anchor="middle" transform="matrix( 1.000 0.000 0.000 1.000 60.100 242.215 )">right</text>
</g>
<g id="p-3" style="fill:none;stroke-linecap:round;stroke-linejoin:round;">
  <path d="M 35.100 182.739 H 33.550 C 33.450 182.739 33.550 182.839 33.550 182.739 V 179.639 C 33.550 179.539 33.450 179.639 33.550 179.639 H 36.650 C 36.750 179.639 36.650 179.539 36.650 179.639 V 182.739 C 36.650 182.839 36.750 182.739 36.650 182.739 H 35.100 Z" stroke="rgb(0,0,255)" stroke-width="0.20" />
  <path d="M 15.500 181.189 C 15.500 181.361 15.450 181.530 15.357 181.675 C 15.264 181.820 15.131 181.936 14.974 182.007 C 14.817 182.079 14.643 182.104 14.472 182.080 C 14.301 182.055 14.141 181.982 14.011 181.869 C 13.880 181.756 13.785 181.608 13.736 181.442 C 13.688 181.277 13.688 181.101 13.736 180.935 C 13.785 180.770 13.880 180.622 14.011 180.509 C 14.141 180.396 14.301 180.322 14.472 180.298 C 14.643 180.273 14.817 180.298 14.974 180.370 C 15.131 180.442 15.264 180.557 15.357 180.702 C 15.450 180.847 15.500 181.016 15.500 181.189 Z" stroke="rgb(0,0,255)" stroke-width="0.20" />
  <path d="M 56.500 181.189 C 56.500 181.361 56.450 181.530 56.357 181.675 C 56.264 181.820 56.131 181.936 55.974 182.007 C 55.817 182.079 55.643 182.104 55.472 182.080 C 55.301 182.055 55.141 181.982 55.011 181.869 C 54.880 181.756 54.785 181.608 54.736 181.442 C 54.688 181.277 54.688 181.101 54.736 180.935 C 54.785 180.770 54.880 180.622 55.011 180.509 C 55.141 180.396 55.301 180.322 55.472 180.298 C 55.643 180.273 55.817 180.298 55.974 180.370 C 56.131 180.442 56.264 180.557 56.357 180.702 C 56.450 180.847 56.500 181.016 56.500 181.189 Z" stroke="rgb(0,0,255)" stroke-width="0.20" />
  <path d="M 10.100 185.789 H 60.100 C 60.155 185.789 60.200 185.744 60.200 185.689 V 85.689 C 60.200 85.634 60.155 85.589 60.100 85.589 H 10.100 C 10.045 85.589 10.000 85.634 10.000 85.689 V 185.689 C 10.000 185.744 10.045 185.789 10.100 185.789 Z" stroke="rgb(0,0,0)" stroke-width="0.20" />
  <path d="M 35.100 88.639 H 36.650 C 36.750 88.639 36.650 88.539 36.650 88.639 V 91.739 C 36.650 91.839 36.750 91.739 36.650 91.739 H 33.550 C 33.450 91.739 33.550 91.839 33.550 91.739 V 88.639 C 33.550 88.539 33.450 88.639 33.550 88.639 H 35.100 Z" stroke="rgb(0,0,255)" stroke-width="0.20" />
  <path d="M 54.700 90.189 C 54.700 90.016 54.750 89.847 54.843 89.702 C 54.936 89.557 55.069 89.442 55.226 89.370 C 55.383 89.298 55.557 89.273 55.728 89.298 C 55.899 89.322 56.059 89.396 56.189 89.509 C 56.320 89.622 56.415 89.770 56.464 89.935 C 56.512 90.101 56.512 90.277 56.464 90.442 C 56.415 90.608 56.320 90.756 56.189 90.869 C 56.059 90.982 55.899 91.055 55.728 91.080 C 55.557 91.104 55.383 91.079 55.226 91.007 C 55.069 90.936 54.936 90.820 54.843 90.675 C 54.750 90.530 54.700 90.361 54.700 90.189 Z" stroke="rgb(0,0,255)" stroke-width="0.20" />
  <path d="M 13.700 90.189 C 13.700 90.016 13.750 89.847 13.843 89.702 C 13.936 89.557 14.069 89.442 14.226 89.370 C 14.383 89.298 14.557 89.273 14.728 89.298 C 14.899 89.322 15.059 89.396 15.189 89.509 C 15.320 89.622 15.415 89.770 15.464 89.935 C 15.512 90.101 15.512 90.277 15.464 90.442 C 15.415 90.608 15.320 90.756 15.189 90.869 C 15.059 90.982 14.899 91.055 14.728 91.080 C 14.557 91.104 14.383 91.079 14.226 91.007 C 14.069 90.936 13.936 90.820 13.843 90.675 C 13.750 90.530 13.700 90.361 13.700 90.189 Z" stroke="rgb(0,0,255)" stroke-width="0.20" />
  <text dominant-baseline="hanging" font-size="4px" style="font-family: sans-serif ; font-weight: normal; font-style: normal; fill: rgb(255,0,0)" text-anchor="middle" transform="matrix( 1.000 0.000 0.000 1.000 35.100 133.789 )">bottom</text>
</g>
<g id="p-4" style="fill:none;stroke-linecap:round;stroke-linejoin:round;">
  <path d="M 35.100 77.889 H 33.700 C 33.600 77.889 33.700 77.989 33.700 77.889 V 75.089 C 33.700 74.989 33.600 75.089 33.700 75.089 H 36.500 C 36.600 75.089 36.500 74.989 36.500 75.089 V 77.889 C 36.500 77.989 36.600 77.889 36.500 77.889 H 35.100 Z" stroke="rgb(0,0,255)" stroke-width="0.20" />
  <path d="M 16.000 76.489 C 16.000 76.757 15.923 77.020 15.778 77.246 C 15.633 77.471 15.426 77.651 15.182 77.762 C 14.937 77.874 14.666 77.913 14.401 77.874 C 14.135 77.836 13.886 77.723 13.683 77.547 C 13.480 77.371 13.332 77.141 13.257 76.883 C 13.181 76.626 13.181 76.352 13.257 76.094 C 13.332 75.837 13.480 75.606 13.683 75.431 C 13.886 75.255 14.135 75.141 14.401 75.103 C 14.666 75.065 14.937 75.104 15.182 75.215 C 15.426 75.327 15.633 75.506 15.778 75.732 C 15.923 75.958 16.000 76.220 16.000 76.489 Z" stroke="rgb(0,0,255)" stroke-width="0.20" />
  <path d="M 57.000 76.489 C 57.000 76.757 56.923 77.020 56.778 77.246 C 56.633 77.471 56.426 77.651 56.182 77.762 C 55.937 77.874 55.666 77.913 55.401 77.874 C 55.135 77.836 54.886 77.723 54.683 77.547 C 54.480 77.371 54.332 77.141 54.257 76.883 C 54.181 76.626 54.181 76.352 54.257 76.094 C 54.332 75.837 54.480 75.606 54.683 75.431 C 54.886 75.255 55.135 75.141 55.401 75.103 C 55.666 75.065 55.937 75.104 56.182 75.215 C 56.426 75.327 56.633 75.506 56.778 75.732 C 56.923 75.958 57.000 76.220 57.000 76.489 Z" stroke="rgb(0,0,255)" stroke-width="0.20" />
  <path d="M 10.100 81.089 H 20.000 C 20.100 81.089 20.000 80.989 20.000 81.089 V 83.989 C 20.000 84.044 20.045 84.089 20.100 84.089 H 26.100 C 26.155 84.089 26.200 84.044 26.200 83.989 V 81.089 C 26.200 80.989 26.100 81.089 26.200 81.089 H 32.000 C 32.100 81.089 32.000 80.989 32.000 81.089 V 83.989 C 32.000 84.044 32.045 84.089 32.100 84.089 H 38.100 C 38.155 84.089 38.200 84.044 38.200 83.989 V 81.089 C 38.200 80.989 38.100 81.089 38.200 81.089 H 44.000 C 44.100 81.089 44.000 80.989 44.000 81.089 V 83.989 C 44.000 84.044 44.045 84.089 44.100 84.089 H 50.100 C 50.155 84.089 50.200 84.044 50.200 83.989 V 81.089 C 50.200 80.989 50.100 81.089 50.200 81.089 H 60.100 C 60.155 81.089 60.200 81.044 60.200 80.989 V 76.489 C 60.200 75.681 59.987 74.888 59.584 74.189 C 59.180 73.489 58.599 72.909 57.900 72.505 C 57.201 72.101 56.407 71.889 55.600 71.889 H 14.600 C 13.793 71.889 12.999 72.101 12.300 72.505 C 11.601 72.909 11.020 73.489 10.616 74.189 C 10.213 74.888 10.000 75.681 10.000 76.489 V 80.989 C 10.000 81.044 10.045 81.089 10.100 81.089 Z" stroke="rgb(0,0,0)" stroke-width="0.20" />
</g>
<g id="p-5" style="fill:none;stroke-linecap:round;stroke-linejoin:round;">
  <path d="M 35.100 64.189 H 33.700 C 33.600 64.189 33.700 64.289 33.700 64.189 V 61.389 C 33.700 61.289 33.600 61.389 33.700 61.389 H 36.500 C 36.600 61.389 36.500 61.289 36.500 61.389 V 64.189 C 36.500 64.289 36.600 64.189 36.500 64.189 H 35.100 Z" stroke="rgb(0,0,255)" stroke-width="0.20" />
  <path d="M 16.000 62.789 C 16.000 63.057 15.923 63.320 15.778 63.546 C 15.633 63.771 15.426 63.951 15.182 64.062 C 14.937 64.174 14.666 64.213 14.401 64.174 C 14.135 64.136 13.886 64.023 13.683 63.847 C 13.480 63.671 13.332 63.441 13.257 63.183 C 13.181 62.926 13.181 62.652 13.257 62.394 C 13.332 62.137 13.480 61.906 13.683 61.731 C 13.886 61.555 14.135 61.441 14.401 61.403 C 14.666 61.365 14.937 61.404 15.182 61.515 C 15.426 61.627 15.633 61.806 15.778 62.032 C 15.923 62.258 16.000 62.520 16.000 62.789 Z" stroke="rgb(0,0,255)" stroke-width="0.20" />
  <path d="M 57.000 62.789 C 57.000 63.057 56.923 63.320 56.778 63.546 C 56.633 63.771 56.426 63.951 56.182 64.062 C 55.937 64.174 55.666 64.213 55.401 64.174 C 55.135 64.136 54.886 64.023 54.683 63.847 C 54.480 63.671 54.332 63.441 54.257 63.183 C 54.181 62.926 54.181 62.652 54.257 62.394 C 54.332 62.137 54.480 61.906 54.683 61.731 C 54.886 61.555 55.135 61.441 55.401 61.403 C 55.666 61.365 55.937 61.404 56.182 61.515 C 56.426 61.627 56.633 61.806 56.778 62.032 C 56.923 62.258 57.000 62.520 57.000 62.789 Z" stroke="rgb(0,0,255)" stroke-width="0.20" />
  <path d="M 10.100 67.389 H 20.000 C 20.100 67.389 20.000 67.289 20.000 67.389 V 70.289 C 20.000 70.344 20.045 70.389 20.100 70.389 H 26.100 C 26.155 70.389 26.200 70.344 26.200 70.289 V 67.389 C 26.200 67.289 26.100 67.389 26.200 67.389 H 32.000 C 32.100 67.389 32.000 67.289 32.000 67.389 V 70.289 C 32.000 70.344 32.045 70.389 32.100 70.389 H 38.100 C 38.155 70.389 38.200 70.344 38.200 70.289 V 67.389 C 38.200 67.289 38.100 67.389 38.200 67.389 H 44.000 C 44.100 67.389 44.000 67.289 44.000 67.389 V 70.289 C 44.000 70.344 44.045 70.389 44.100 70.389 H 50.100 C 50.155 70.389 50.200 70.344 50.200 70.289 V 67.389 C 50.200 67.289 50.100 67.389 50.200 67.389 H 60.100 C 60.155 67.389 60.200 67.344 60.200 67.289 V 62.789 C 60.200 61.981 59.987 61.188 59.584 60.489 C 59.180 59.789 58.599 59.209 57.900 58.805 C 57.201 58.401 56.407 58.189 55.600 58.189 H 14.600 C 13.793 58.189 12.999 58.401 12.300 58.805 C 11.601 59.209 11.020 59.789 10.616 60.489 C 10.213 61.188 10.000 61.981 10.000 62.789 V 67.289 C 10.000 67.344 10.045 67.389 10.100 67.389 Z" stroke="rgb(0,0,0)" stroke-width="0.20" />
</g>
<g id="p-6" style="fill:none;stroke-linecap:round;stroke-linejoin:round;">
  <path d="M 16.100 53.689 H 18.250 C 18.350 53.689 18.250 53.589 18.250 53.689 V 56.589 C 18.250 56.644 18.295 56.689 18.350 56.689 H 22.850 C 22.905 56.689 22.950 56.644 22.950 56.589 V 53.689 C 22.950 53.589 22.850 53.689 22.950 53.689 H 25.100 C 25.155 53.689 25.200 53.644 25.200 53.589 V 50.589 C 25.200 50.562 25.189 50.537 25.171 50.518 L 19.171 44.518 C 19.152 44.499 19.127 44.489 19.100 44.489 H 16.100 C 16.045 44.489 16.000 44.534 16.000 44.589 V 47.489 C 16.000 47.589 16.100 47.489 16.000 47.489 H 13.100 H 11.600 C 11.319 47.489 11.043 47.563 10.800 47.703 C 10.557 47.844 10.355 48.046 10.214 48.289 C 10.074 48.532 10.000 48.808 10.000 49.089 C 10.000 49.370 10.074 49.646 10.214 49.889 C 10.355 50.132 10.557 50.334 10.800 50.474 C 11.043 50.615 11.319 50.689 11.600 50.689 H 13.100 H 16.000 C 16.100 50.689 16.000 50.589 16.000 50.689 V 53.589 C 16.000 53.644 16.045 53.689 16.100 53.689 Z" stroke="rgb(0,0,0)" stroke-width="0.20" />
</g>
<g id="p-7" style="fill:none;stroke-linecap:round;stroke-linejoin:round;">
  <path d="M 32.800 53.689 H 34.950 C 35.050 53.689 34.950 53.589 34.950 53.689 V 56.589 C 34.950 56.644 34.995 56.689 35.050 56.689 H 39.550 C 39.605 56.689 39.650 56.644 39.650 56.589 V 53.689 C 39.650 53.589 39.550 53.689 39.650 53.689 H 41.800 C 41.855 53.689 41.900 53.644 41.900 53.589 V 50.589 C 41.900 50.562 41.889 50.537 41.871 50.518 L 35.871 44.518 C 35.852 44.499 35.827 44.489 35.800 44.489 H 32.800 C 32.745 44.489 32.700 44.534 32.700 44.589 V 47.489 C 32.700 47.589 32.800 47.489 32.700 47.489 H 29.800 H 28.300 C 28.019 47.489 27.743 47.563 27.500 47.703 C 27.257 47.844 27.055 48.046 26.914 48.289 C 26.774 48.532 26.700 48.808 26.700 49.089 C 26.700 49.370 26.774 49.646 26.914 49.889 C 27.055 50.132 27.257 50.334 27.500 50.474 C 27.743 50.615 28.019 50.689 28.300 50.689 H 29.800 H 32.700 C 32.800 50.689 32.700 50.589 32.700 50.689 V 53.589 C 32.700 53.644 32.745 53.689 32.800 53.689 Z" stroke="rgb(0,0,0)" stroke-width="0.20" />
</g>
<g id="p-8" style="fill:none;stroke-linecap:round;stroke-linejoin:round;">
  <path d="M 114.800 416.094 H 214.800 C 214.855 416.094 214.900 416.050 214.900 415.994 V 408.594 C 214.900 408.494 214.800 408.594 214.900 408.594 H 217.800 C 217.855 408.594 217.900 408.550 217.900 408.494 V 402.494 C 217.900 402.439 217.855 402.394 217.800 402.394 H 214.900 C 214.800 402.394 214.900 402.494 214.900 402.394 V 394.994 C 214.900 394.939 214.855 394.894 214.800 394.894 H 114.800 C 114.745 394.894 114.700 394.939 114.700 394.994 V 402.394 C 114.700 402.494 114.800 402.394 114.700 402.394 H 111.800 C 111.745 402.394 111.700 402.439 111.700 402.494 V 408.494 C 111.700 408.550 111.745 408.594 111.800 408.594 H 114.700 C 114.800 408.594 114.700 408.494 114.700 408.594 V 415.994 C 114.700 416.050 114.745 416.094 114.800 416.094 Z" stroke="rgb(0,0,0)" stroke-width="0.20" />
  <text dominant-baseline="hanging" font-size="4px" style="font-family: sans-serif ; font-weight: normal; font-style: normal; fill: rgb(255,0,0)" text-anchor="middle" transform="matrix( 1.000 0.000 0.000 1.000 164.800 403.594 )">front slat</text>
</g>
<g id="p-9" style="fill:none;stroke-linecap:round;stroke-linejoin:round;">
  <path d="M 114.800 393.394 H 214.800 C 214.855 393.394 214.900 393.350 214.900 393.294 V 385.894 C 214.900 385.794 214.800 385.894 214.900 385.894 H 217.800 C 217.855 385.894 217.900 385.850 217.900 385.794 V 379.794 C 217.900 379.739 217.855 379.694 217.800 379.694 H 214.900 C 214.800 379.694 214.900 379.794 214.900 379.694 V 372.294 C 214.900 372.239 214.855 372.194 214.800 372.194 H 114.800 C 114.745 372.194 114.700 372.239 114.700 372.294 V 379.694 C 114.700 379.794 114.800 379.694 114.700 379.694 H 111.800 C 111.745 379.694 111.700 379.739 111.700 379.794 V 385.794 C 111.700 385.850 111.745 385.894 111.800 385.894 H 114.700 C 114.800 385.894 114.700 385.794 114.700 385.894 V 393.294 C 114.700 393.350 114.745 393.394 114.800 393.394 Z" stroke="rgb(0,0,0)" stroke-width="0.20" />
  <text dominant-baseline="hanging" font-size="4px" style="font-family: sans-serif ; font-weight: normal; font-style: normal; fill: rgb(255,0,0)" text-anchor="middle" transform="matrix( 1.000 0.000 0.000 1.000 164.800 380.894 )">front slat</text>
</g>
<g id="p-10" style="fill:none;stroke-linecap:round;stroke-linejoin:round;">
  <path d="M 114.800 370.694 H 214.800 C 214.855 370.694 214.900 370.650 214.900 370.594 V 363.194 C 214.900 363.094 214.800 363.194 214.900 363.194 H 217.800 C 217.855 363.194 217.900 363.150 217.900 363.094 V 357.094 C 217.900 357.039 217.855 356.994 217.800 356.994 H 214.900 C 214.800 356.994 214.900 357.094 214.900 356.994 V 349.594 C 214.900 349.539 214.855 349.494 214.800 349.494 H 114.800 C 114.745 349.494 114.700 349.539 114.700 349.594 V 356.994 C 114.700 357.094 114.800 356.994 114.700 356.994 H 111.800 C 111.745 356.994 111.700 357.039 111.700 357.094 V 363.094 C 111.700 363.150 111.745 363.194 111.800 363.194 H 114.700 C 114.800 363.194 114.700 363.094 114.700 363.194 V 370.594 C 114.700 370.650 114.745 370.694 114.800 370.694 Z" stroke="rgb(0,0,0)" stroke-width="0.20" />
  <text dominant-baseline="hanging" font-size="4px" style="font-family: sans-serif ; font-weight: normal; font-style: normal; fill: rgb(255,0,0)" text-anchor="middle" transform="matrix( 1.000 0.000 0.000 1.000 164.800 358.194 )">front slat</text>
</g>
<g id="p-11" style="fill:none;stroke-linecap:round;stroke-linejoin:round;">
  <path d="M 114.800 347.994 H 214.800 C 214.855 347.994 214.900 347.950 214.900 347.894 V 340.494 C 214.900 340.394 214.800 340.494 214.900 340.494 H 217.800 C 217.855 340.494 217.900 340.450 217.900 340.394 V 334.394 C 217.900 334.339 217.855 334.294 217.800 334.294 H 214.900 C 214.800 334.294 214.900 334.394 214.900 334.294 V 326.894 C 214.900 326.839 214.855 326.794 214.800 326.794 H 114.800 C 114.745 326.794 114.700 326.839 114.700 326.894 V 334.294 C 114.700 334.394 114.800 334.294 114.700 334.294 H 111.800 C 111.745 334.294 111.700 334.339 111.700 334.394 V 340.394 C 111.700 340.450 111.745 340.494 111.800 340.494 H 114.700 C 114.800 340.494 114.700 340.394 114.700 340.494 V 347.894 C 114.700 347.950 114.745 347.994 114.800 347.994 Z" stroke="rgb(0,0,0)" stroke-width="0.20" />
  <text dominant-baseline="hanging" font-size="4px" style="font-family: sans-serif ; font-weight: normal; font-style: normal; fill: rgb(255,0,0)" text-anchor="middle" transform="matrix( 1.000 0.000 0.000 1.000 164.800 335.494 )">front slat</text>
</g>
<g id="p-12" style="fill:none;stroke-linecap:round;stroke-linejoin:round;">
  <path d="M 114.800 325.294 H 214.800 C 214.855 325.294 214.900 325.250 214.900 325.194 V 317.794 C 214.900 317.694 214.800 317.794 214.900 317.794 H 217.800 C 217.855 317.794 217.900 317.750 217.900 317.694 V 311.694 C 217.900 311.639 217.855 311.594 217.800 311.594 H 214.900 C 214.800 311.594 214.900 311.694 214.900 311.594 V 304.194 C 214.900 304.139 214.855 304.094 214.800 304.094 H 114.800 C 114.745 304.094 114.700 304.139 114.700 304.194 V 311.594 C 114.700 311.694 114.800 311.594 114.700 311.594 H 111.800 C 111.745 311.594 111.700 311.639 111.700 311.694 V 317.694 C 111.700 317.750 111.745 317.794 111.800 317.794 H 114.700 C 114.800 317.794 114.700 317.694 114.700 317.794 V 325.194 C 114.700 325.250 114.745 325.294 114.800 325.294 Z" stroke="rgb(0,0,0)" stroke-width="0.20" />
  <text dominant-baseline="hanging" font-size="4px" style="font-family: sans-serif ; font-weight: normal; font-style: normal; fill: rgb(255,0,0)" text-anchor="middle" transform="matrix( 1.000 0.000 0.000 1.000 164.800 312.794 )">front slat</text>
</g>
<g id="p-13" style="fill:none;stroke-linecap:round;stroke-linejoin:round;">
  <path d="M 114.800 302.594 H 214.800 C 214.855 302.594 214.900 302.550 214.900 302.494 V 295.094 C 214.900 294.994 214.800 295.094 214.900 295.094 H 217.800 C 217.855 295.094 217.900 295.050 217.900 294.994 V 288.994 C 217.900 288.939 217.855 288.894 217.800 288.894 H 214.900 C 214.800 288.894 214.900 288.994 214.900 288.894 V 281.494 C 214.900 281.439 214.855 281.394 214.800 281.394 H 114.800 C 114.745 281.394 114.700 281.439 114.700 281.494 V 288.894 C 114.700 288.994 114.800 288.894 114.700 288.894 H 111.800 C 111.745 288.894 111.700 288.939 111.700 288.994 V 294.994 C 111.700 295.050 111.745 295.094 111.800 295.094 H 114.700 C 114.800 295.094 114.700 294.994 114.700 295.094 V 302.494 C 114.700 302.550 114.745 302.594 114.800 302.594 Z" stroke="rgb(0,0,0)" stroke-width="0.20" />
  <text dominant-baseline="hanging" font-size="4px" style="font-family: sans-serif ; font-weight: normal; font-style: normal; fill: rgb(255,0,0)" text-anchor="middle" transform="matrix( 1.000 0.000 0.000 1.000 164.800 290.094 )">front slat</text>
</g>
<g id="p-14" style="fill:none;stroke-linecap:round;stroke-linejoin:round;">
  <path d="M 114.800 279.894 H 214.800 C 214.855 279.894 214.900 279.850 214.900 279.794 V 272.394 C 214.900 272.294 214.800 272.394 214.900 272.394 H 217.800 C 217.855 272.394 217.900 272.350 217.900 272.294 V 266.294 C 217.900 266.239 217.855 266.194 217.800 266.194 H 214.900 C 214.800 266.194 214.900 266.294 214.900 266.194 V 258.794 C 214.900 258.739 214.855 258.694 214.800 258.694 H 114.800 C 114.745 258.694 114.700 258.739 114.700 258.794 V 266.194 C 114.700 266.294 114.800 266.194 114.700 266.194 H 111.800 C 111.745 266.194 111.700 266.239 111.700 266.294 V 272.294 C 111.700 272.350 111.745 272.394 111.800 272.394 H 114.700 C 114.800 272.394 114.700 272.294 114.700 272.394 V 279.794 C 114.700 279.850 114.745 279.894 114.800 279.894 Z" stroke="rgb(0,0,0)" stroke-width="0.20" />
  <text dominant-baseline="hanging" font-size="4px" style="font-family: sans-serif ; font-weight: normal; font-style: normal; fill: rgb(255,0,0)" text-anchor="middle" transform="matrix( 1.000 0.000 0.000 1.000 164.800 267.394 )">back slat</text>
</g>
<g id="p-15" style="fill:none;stroke-linecap:round;stroke-linejoin:round;">
  <path d="M 114.800 257.194 H 214.800 C 214.855 257.194 214.900 257.150 214.900 257.094 V 249.694 C 214.900 249.594 214.800 249.694 214.900 249.694 H 217.800 C 217.855 249.694 217.900 249.650 217.900 249.594 V 243.594 C 217.900 243.539 217.855 243.494 217.800 243.494 H 214.900 C 214.800 243.494 214.900 243.594 214.900 243.494 V 236.094 C 214.900 236.039 214.855 235.994 214.800 235.994 H 114.800 C 114.745 235.994 114.700 236.039 114.700 236.094 V 243.494 C 114.700 243.594 114.800 243.494 114.700 243.494 H 111.800 C 111.745 243.494 111.700 243.539 111.700 243.594 V 249.594 C 111.700 249.650 111.745 249.694 111.800 249.694 H 114.700 C 114.800 249.694 114.700 249.594 114.700 249.694 V 257.094 C 114.700 257.150 114.745 257.194 114.800 257.194 Z" stroke="rgb(0,0,0)" stroke-width="0.20" />
  <text dominant-baseline="hanging" font-size="4px" style="font-family: sans-serif ; font-weight: normal; font-style: normal; fill: rgb(255,0,0)" text-anchor="middle" transform="matrix( 1.000 0.000 0.000 1.000 164.800 244.694 )">back slat</text>
</g>
<g id="p-16" style="fill:none;stroke-linecap:round;stroke-linejoin:round;">
  <path d="M 114.800 234.494 H 214.800 C 214.855 234.494 214.900 234.450 214.900 234.394 V 226.994 C 214.900 226.894 214.800 226.994 214.900 226.994 H 217.800 C 217.855 226.994 217.900 226.950 217.900 226.894 V 220.894 C 217.900 220.839 217.855 220.794 217.800 220.794 H 214.900 C 214.800 220.794 214.900 220.894 214.900 220.794 V 213.394 C 214.900 213.339 214.855 213.294 214.800 213.294 H 114.800 C 114.745 213.294 114.700 213.339 114.700 213.394 V 220.794 C 114.700 220.894 114.800 220.794 114.700 220.794 H 111.800 C 111.745 220.794 111.700 220.839 111.700 220.894 V 226.894 C 111.700 226.950 111.745 226.994 111.800 226.994 H 114.700 C 114.800 226.994 114.700 226.894 114.700 226.994 V 234.394 C 114.700 234.450 114.745 234.494 114.800 234.494 Z" stroke="rgb(0,0,0)" stroke-width="0.20" />
  <text dominant-baseline="hanging" font-size="4px" style="font-family: sans-serif ; font-weight: normal; font-style: normal; fill: rgb(255,0,0)" text-anchor="middle" transform="matrix( 1.000 0.000 0.000 1.000 164.800 221.994 )">back slat</text>
</g>
<g id="p-17" style="fill:none;stroke-linecap:round;stroke-linejoin:round;">
  <path d="M 114.800 211.794 H 214.800 C 214.855 211.794 214.900 211.750 214.900 211.694 V 204.294 C 214.900 204.194 214.800 204.294 214.900 204.294 H 217.800 C 217.855 204.294 217.900 204.250 217.900 204.194 V 198.194 C 217.900 198.139 217.855 198.094 217.800 198.094 H 214.900 C 214.800 198.094 214.900 198.194 214.900 198.094 V 190.694 C 214.900 190.639 214.855 190.594 214.800 190.594 H 114.800 C 114.745 190.594 114.700 190.639 114.700 190.694 V 198.094 C 114.700 198.194 114.800 198.094 114.700 198.094 H 111.800 C 111.745 198.094 111.700 198.139 111.700 198.194 V 204.194 C 111.700 204.250 111.745 204.294 111.800 204.294 H 114.700 C 114.800 204.294 114.700 204.194 114.700 204.294 V 211.694 C 114.700 211.750 114.745 211.794 114.800 211.794 Z" stroke="rgb(0,0,0)" stroke-width="0.20" />
  <text dominant-baseline="hanging" font-size="4px" style="font-family: sans-serif ; font-weight: normal; font-style: normal; fill: rgb(255,0,0)" text-anchor="middle" transform="matrix( 1.000 0.000 0.000 1.000 164.800 199.294 )">back slat</text>
</g>
<g id="p-18" style="fill:none;stroke-linecap:round;stroke-linejoin:round;">
  <path d="M 114.800 189.094 H 214.800 C 214.855 189.094 214.900 189.050 214.900 188.994 V 181.594 C 214.900 181.494 214.800 181.594 214.900 181.594 H 217.800 C 217.855 181.594 217.900 181.550 217.900 181.494 V 175.494 C 217.900 175.439 217.855 175.394 217.800 175.394 H 214.900 C 214.800 175.394 214.900 175.494 214.900 175.394 V 167.994 C 214.900 167.939 214.855 167.894 214.800 167.894 H 114.800 C 114.745 167.894 114.700 167.939 114.700 167.994 V 175.394 C 114.700 175.494 114.800 175.394 114.700 175.394 H 111.800 C 111.745 175.394 111.700 175.439 111.700 175.494 V 181.494 C 111.700 181.550 111.745 181.594 111.800 181.594 H 114.700 C 114.800 181.594 114.700 181.494 114.700 181.594 V 188.994 C 114.700 189.050 114.745 189.094 114.800 189.094 Z" stroke="rgb(0,0,0)" stroke-width="0.20" />
  <text dominant-baseline="hanging" font-size="4px" style="font-family: sans-serif ; font-weight: normal; font-style: normal; fill: rgb(255,0,0)" text-anchor="middle" transform="matrix( 1.000 0.000 0.000 1.000 164.800 176.594 )">back slat</text>
</g>
<g id="p-19" style="fill:none;stroke-linecap:round;stroke-linejoin:round;">
  <path d="M 114.800 166.394 H 214.800 C 214.855 166.394 214.900 166.350 214.900 166.294 V 158.894 C 214.900 158.794 214.800 158.894 214.900 158.894 H 217.800 C 217.855 158.894 217.900 158.850 217.900 158.794 V 152.794 C 217.900 152.739 217.855 152.694 217.800 152.694 H 214.900 C 214.800 152.694 214.900 152.794 214.900 152.694 V 145.294 C 214.900 145.239 214.855 145.194 214.800 145.194 H 114.800 C 114.745 145.194 114.700 145.239 114.700 145.294 V 152.694 C 114.700 152.794 114.800 152.694 114.700 152.694 H 111.800 C 111.745 152.694 111.700 152.739 111.700 152.794 V 158.794 C 111.700 158.850 111.745 158.894 111.800 158.894 H 114.700 C 114.800 158.894 114.700 158.794 114.700 158.894 V 166.294 C 114.700 166.350 114.745 166.394 114.800 166.394 Z" stroke="rgb(0,0,0)" stroke-width="0.20" />
  <text dominant-baseline="hanging" font-size="4px" style="font-family: sans-serif ; font-weight: normal; font-style: normal; fill: rgb(255,0,0)" text-anchor="middle" transform="matrix( 1.000 0.000 0.000 1.000 164.800 153.894 )">back slat</text>
</g>
<g id="p-20" style="fill:none;stroke-linecap:round;stroke-linejoin:round;">
  <path d="M 114.800 143.694 H 214.800 C 214.855 143.694 214.900 143.650 214.900 143.594 V 139.102 C 214.900 139.002 214.800 139.102 214.900 139.102 H 217.800 C 217.855 139.102 217.900 139.057 217.900 139.002 V 133.002 C 217.900 132.947 217.855 132.902 217.800 132.902 H 214.900 C 214.800 132.902 214.900 133.002 214.900 132.902 V 128.410 C 214.900 128.355 214.855 128.310 214.800 128.310 H 114.800 C 114.745 128.310 114.700 128.355 114.700 128.410 V 132.902 C 114.700 133.002 114.800 132.902 114.700 132.902 H 111.800 C 111.745 132.902 111.700 132.947 111.700 133.002 V 139.002 C 111.700 139.057 111.745 139.102 111.800 139.102 H 114.700 C 114.800 139.102 114.700 139.002 114.700 139.102 V 143.594 C 114.700 143.650 114.745 143.694 114.800 143.694 Z" stroke="rgb(0,0,0)" stroke-width="0.20" />
  <text dominant-baseline="hanging" font-size="4px" style="font-family: sans-serif ; font-weight: normal; font-style: normal; fill: rgb(255,0,0)" text-anchor="middle" transform="matrix( 1.000 0.000 0.000 1.000 164.800 134.102 )">front</text>
</g>
<g id="p-21" style="fill:none;stroke-linecap:round;stroke-linejoin:round;">
  <path d="M 114.800 126.810 H 214.800 C 214.855 126.810 214.900 126.765 214.900 126.710 V 124.720 C 214.900 124.620 214.800 124.720 214.900 124.720 H 217.800 C 217.855 124.720 217.900 124.675 217.900 124.620 V 120.441 C 217.900 120.385 217.855 120.341 217.800 120.341 H 214.900 C 214.800 120.341 214.900 120.441 214.900 120.341 V 118.351 C 214.900 118.296 214.855 118.251 214.800 118.251 H 114.800 C 114.745 118.251 114.700 118.296 114.700 118.351 V 120.341 C 114.700 120.441 114.800 120.341 114.700 120.341 H 111.800 C 111.745 120.341 111.700 120.385 111.700 120.441 V 124.620 C 111.700 124.675 111.745 124.720 111.800 124.720 H 114.700 C 114.800 124.720 114.700 124.620 114.700 124.720 V 126.710 C 114.700 126.765 114.745 126.810 114.800 126.810 Z" stroke="rgb(0,0,0)" stroke-width="0.20" />
  <text dominant-baseline="hanging" font-size="4px" style="font-family: sans-serif ; font-weight: normal; font-style: normal; fill: rgb(255,0,0)" text-anchor="middle" transform="matrix( 1.000 0.000 0.000 1.000 164.800 120.630 )">back</text>
</g>
<g id="p-22" style="fill:none;stroke-linecap:round;stroke-linejoin:round;">
  <path d="M 114.800 116.751 H 220.800 C 221.344 116.751 221.879 116.608 222.350 116.336 C 222.821 116.063 223.213 115.672 223.485 115.201 C 223.757 114.730 223.900 114.195 223.900 113.651 V 13.100 C 223.900 12.556 223.757 12.021 223.485 11.550 C 223.213 11.079 222.821 10.687 222.350 10.415 C 221.879 10.143 221.344 10.000 220.800 10.000 H 114.800 C 114.256 10.000 113.721 10.143 113.250 10.415 C 112.779 10.687 112.387 11.079 112.115 11.550 C 111.843 12.021 111.700 12.556 111.700 13.100 V 113.651 C 111.700 114.195 111.843 114.730 112.115 115.201 C 112.387 115.672 112.779 116.063 113.250 116.336 C 113.721 116.608 114.256 116.751 114.800 116.751 Z" stroke="rgb(0,0,0)" stroke-width="0.20" />
  <path d="M 220.800 99.375 V 102.275 C 220.800 102.375 220.900 102.275 220.800 102.275 H 218.000 C 217.900 102.275 218.000 102.375 218.000 102.275 V 96.475 C 218.000 96.375 217.900 96.475 218.000 96.475 H 220.800 C 220.900 96.475 220.800 96.375 220.800 96.475 V 99.375 Z" stroke="rgb(0,0,255)" stroke-width="0.20" />
  <path d="M 220.800 87.375 V 90.275 C 220.800 90.375 220.900 90.275 220.800 90.275 H 218.000 C 217.900 90.275 218.000 90.375 218.000 90.275 V 84.475 C 218.000 84.375 217.900 84.475 218.000 84.475 H 220.800 C 220.900 84.475 220.800 84.375 220.800 84.475 V 87.375 Z" stroke="rgb(0,0,255)" stroke-width="0.20" />
  <path d="M 220.800 75.375 V 78.275 C 220.800 78.375 220.900 78.275 220.800 78.275 H 218.000 C 217.900 78.275 218.000 78.375 218.000 78.275 V 72.475 C 218.000 72.375 217.900 72.475 218.000 72.475 H 220.800 C 220.900 72.475 220.800 72.375 220.800 72.475 V 75.375 Z" stroke="rgb(0,0,255)" stroke-width="0.20" />
  <path d="M 220.800 63.375 V 66.275 C 220.800 66.375 220.900 66.275 220.800 66.275 H 218.000 C 217.900 66.275 218.000 66.375 218.000 66.275 V 60.475 C 218.000 60.375 217.900 60.475 218.000 60.475 H 220.800 C 220.900 60.475 220.800 60.375 220.800 60.475 V 63.375 Z" stroke="rgb(0,0,255)" stroke-width="0.20" />
  <path d="M 220.800 51.375 V 54.275 C 220.800 54.375 220.900 54.275 220.800 54.275 H 218.000 C 217.900 54.275 218.000 54.375 218.000 54.275 V 48.475 C 218.000 48.375 217.900 48.475 218.000 48.475 H 220.800 C 220.900 48.475 220.800 48.375 220.800 48.475 V 51.375 Z" stroke="rgb(0,0,255)" stroke-width="0.20" />
  <path d="M 220.800 39.375 V 42.275 C 220.800 42.375 220.900 42.275 220.800 42.275 H 218.000 C 217.900 42.275 218.000 42.375 218.000 42.275 V 36.475 C 218.000 36.375 217.900 36.475 218.000 36.475 H 220.800 C 220.900 36.475 220.800 36.375 220.800 36.475 V 39.375 Z" stroke="rgb(0,0,255)" stroke-width="0.20" />
  <path d="M 220.800 27.375 V 30.275 C 220.800 30.375 220.900 30.275 220.800 30.275 H 218.000 C 217.900 30.275 218.000 30.375 218.000 30.275 V 24.475 C 218.000 24.375 217.900 24.475 218.000 24.475 H 220.800 C 220.900 24.475 220.800 24.375 220.800 24.475 V 27.375 Z" stroke="rgb(0,0,255)" stroke-width="0.20" />
  <path d="M 114.800 27.375 V 24.475 C 114.800 24.375 114.700 24.475 114.800 24.475 H 117.600 C 117.700 24.475 117.600 24.375 117.600 24.475 V 30.275 C 117.600 30.375 117.700 30.275 117.600 30.275 H 114.800 C 114.700 30.275 114.800 30.375 114.800 30.275 V 27.375 Z" stroke="rgb(0,0,255)" stroke-width="0.20" />
  <path d="M 114.800 39.375 V 36.475 C 114.800 36.375 114.700 36.475 114.800 36.475 H 117.600 C 117.700 36.475 117.600 36.375 117.600 36.475 V 42.275 C 117.600 42.375 117.700 42.275 117.600 42.275 H 114.800 C 114.700 42.275 114.800 42.375 114.800 42.275 V 39.375 Z" stroke="rgb(0,0,255)" stroke-width="0.20" />
  <path d="M 114.800 51.375 V 48.475 C 114.800 48.375 114.700 48.475 114.800 48.475 H 117.600 C 117.700 48.475 117.600 48.375 117.600 48.475 V 54.275 C 117.600 54.375 117.700 54.275 117.600 54.275 H 114.800 C 114.700 54.275 114.800 54.375 114.800 54.275 V 51.375 Z" stroke="rgb(0,0,255)" stroke-width="0.20" />
  <path d="M 114.800 63.375 V 60.475 C 114.800 60.375 114.700 60.475 114.800 60.475 H 117.600 C 117.700 60.475 117.600 60.375 117.600 60.475 V 66.275 C 117.600 66.375 117.700 66.275 117.600 66.275 H 114.800 C 114.700 66.275 114.800 66.375 114.800 66.275 V 63.375 Z" stroke="rgb(0,0,255)" stroke-width="0.20" />
  <path d="M 114.800 75.375 V 72.475 C 114.800 72.375 114.700 72.475 114.800 72.475 H 117.600 C 117.700 72.475 117.600 72.375 117.600 72.475 V 78.275 C 117.600 78.375 117.700 78.275 117.600 78.275 H 114.800 C 114.700 78.275 114.800 78.375 114.800 78.275 V 75.375 Z" stroke="rgb(0,0,255)" stroke-width="0.20" />
  <path d="M 114.800 87.375 V 84.475 C 114.800 84.375 114.700 84.475 114.800 84.475 H 117.600 C 117.700 84.475 117.600 84.375 117.600 84.475 V 90.275 C 117.600 90.375 117.700 90.275 117.600 90.275 H 114.800 C 114.700 90.275 114.800 90.375 114.800 90.275 V 87.375 Z" stroke="rgb(0,0,255)" stroke-width="0.20" />
  <path d="M 114.800 99.375 V 96.475 C 114.800 96.375 114.700 96.475 114.800 96.475 H 117.600 C 117.700 96.475 117.600 96.375 117.600 96.475 V 102.275 C 117.600 102.375 117.700 102.275 117.600 102.275 H 114.800 C 114.700 102.275 114.800 102.375 114.800 102.275 V 99.375 Z" stroke="rgb(0,0,255)" stroke-width="0.20" />
  <text dominant-baseline="hanging" font-size="4px" style="font-family: sans-serif ; font-weight: normal; font-style: normal; fill: rgb(255,0,0)" text-anchor="middle" transform="matrix( 1.000 0.000 0.000 1.000 167.800 61.475 )">top</text>
</g>
</svg>