<?xml version='1.0' encoding='utf-8'?>
<svg height="675.80mm" viewBox="0.0 0.0 324.90 675.80" width="324.90mm" xmlns="http://www.w3.org/2000/svg" xmlns:cc="http://creativecommons.org/ns#" xmlns:dc="http://purl.org/dc/elements/1.1/" xmlns:inkscape="http://www.inkscape.org/namespaces/inkscape" xmlns:rdf="http://www.w3.org/1999/02/22-rdf-syntax-ns#" xmlns:svg="http://www.w3.org/2000/svg" xmlns:xlink="http://www.w3.org/1999/xlink">
<!--
StorageRack - StorageRack to store boxes and trays which have their own floor




Drawers are not included:

![Inside](static/samples/StorageRack-2.jpg)
![Back wall details](static/samples/StorageRack-3.jpg)




Created with Boxes.py (https://boxes.hackerspace-bamberg.de/)
Command line (remove spaces between dashes): boxes StorageRack
-->
<title>StorageRack</title>
<metadata>
<rdf:RDF><cc:Work>
<dc:title>Shelf - StorageRack</dc:title>
<dc:source>boxes StorageRack</dc:source>
<dc:description>StorageRack to store boxes and trays which have their own floor



Drawers are not included:

![Inside](static/samples/StorageRack-2.jpg)
![Back wall details](static/samples/StorageRack-3.jpg)



Created with Boxes.py (https://boxes.hackerspace-bamberg.de/)
Command line: boxes StorageRack
Command line short: boxes StorageRack
</dc:description>
</cc:Work></rdf:RDF></metadata>
<g id="p-0" style="fill:none;stroke-linecap:round;stroke-linejoin:round;">
  <path d="M 10.100 665.800 H 110.100 V 655.800 H 10.100 V 665.800 Z" stroke="rgb(0,0,0)" stroke-width="0.20" />
  <text dominant-baseline="hanging" font-size="6px" style="font-family: sans-serif ; font-weight: normal; font-style: normal; fill: rgb(255,0,0)" text-anchor="middle" transform="matrix( 1.000 0.000 0.000 1.000 60.100 657.800 )">100.0mm, burn:0.10mm</text>
</g>
<g id="p-1" style="fill:none;stroke-linecap:round;stroke-linejoin:round;">
  <path d="M 27.600 650.900 H 24.700 C 24.600 650.900 24.700 651.000 24.700 650.900 V 648.100 C 24.700 648.000 24.600 648.100 24.700 648.100 H 30.500 C 30.600 648.100 30.500 648.000 30.500 648.100 V 650.900 C 30.500 651.000 30.600 650.900 30.500 650.900 H 27.600 Z" stroke="rgb(0,0,255)" stroke-width="0.20" />
  <path d="M 39.600 650.900 H 36.700 C 36.600 650.900 36.700 651.000 36.700 650.900 V 648.100 C 36.700 648.000 36.600 648.100 36.700 648.100 H 42.500 C 42.600 648.100 42.500 648.000 42.500 648.100 V 650.900 C 42.500 651.000 42.600 650.900 42.500 650.900 H 39.600 Z" stroke="rgb(0,0,255)" stroke-width="0.20" />
  <path d="M 51.600 650.900 H 48.700 C 48.600 650.900 48.700 651.000 48.700 650.900 V 648.100 C 48.700 648.000 48.600 648.100 48.700 648.100 H 54.500 C 54.600 648.100 54.500 648.000 54.500 648.100 V 650.900 C 54.500 651.000 54.600 650.900 54.500 650.900 H 51.600 Z" stroke="rgb(0,0,255)" stroke-width="0.20" />
  <path d="M 63.600 650.900 H 60.700 C 60.600 650.900 60.700 651.000 60.700 650.900 V 648.100 C 60.700 648.000 60.600 648.100 60.700 648.100 H 66.500 C 66.600 648.100 66.500 648.000 66.500 648.100 V 650.900 C 66.500 651.000 66.600 650.900 66.500 650.900 H 63.600 Z" stroke="rgb(0,0,255)" stroke-width="0.20" />
  <path d="M 75.600 650.900 H 72.700 C 72.600 650.900 72.700 651.000 72.700 650.900 V 648.100 C 72.700 648.000 72.600 648.100 72.700 648.100 H 78.500 C 78.600 648.100 78.500 648.000 78.500 648.100 V 650.900 C 78.500 651.000 78.600 650.900 78.500 650.900 H 75.600 Z" stroke="rgb(0,0,255)" stroke-width="0.20" />
  <path d="M 87.600 650.900 H 84.700 C 84.600 650.900 84.700 651.000 84.700 650.900 V 648.100 C 84.700 648.000 84.600 648.100 84.700 648.100 H 90.500 C 90.600 648.100 90.500 648.000 90.500 648.100 V 650.900 C 90.500 651.000 90.600 650.900 90.500 650.900 H 87.600 Z" stroke="rgb(0,0,255)" stroke-width="0.20" />
  <path d="M 99.600 650.900 H 96.700 C 96.600 650.900 96.700 651.000 96.700 650.900 V 648.100 C 96.700 648.000 96.600 648.100 96.700 648.100 H 102.500 C 102.600 648.100 102.500 648.000 102.500 648.100 V 650.900 C 102.500 651.000 102.600 650.900 102.500 650.900 H 99.600 Z" stroke="rgb(0,0,255)" stroke-width="0.20" />
  <path d="M 111.600 650.900 H 108.700 C 108.600 650.900 108.700 651.000 108.700 650.900 V 648.100 C 108.700 648.000 108.600 648.100 108.700 648.100 H 114.500 C 114.600 648.100 114.500 648.000 114.500 648.100 V 650.900 C 114.500 651.000 114.600 650.900 114.500 650.900 H 111.600 Z" stroke="rgb(0,0,255)" stroke-width="0.20" />
  <path d="M 123.600 650.900 H 120.700 C 120.600 650.900 120.700 651.000 120.700 650.900 V 648.100 C 120.700 648.000 120.600 648.100 120.700 648.100 H 126.500 C 126.600 648.100 126.500 648.000 126.500 648.100 V 650.900 C 126.500 651.000 126.600 650.900 126.500 650.900 H 123.600 Z" stroke="rgb(0,0,255)" stroke-width="0.20" />
  <path d="M 135.600 650.900 H 132.700 C 132.600 650.900 132.700 651.000 132.700 650.900 V 648.100 C 132.700 648.000 132.600 648.100 132.700 648.100 H 138.500 C 138.600 648.100 138.500 648.000 138.500 648.100 V 650.900 C 138.500 651.000 138.600 650.900 138.500 650.900 H 135.600 Z" stroke="rgb(0,0,255)" stroke-width="0.20" />
  <path d="M 147.600 650.900 H 144.700 C 144.600 650.900 144.700 651.000 144.700 650.900 V 648.100 C 144.700 648.000 144.600 648.100 144.700 648.100 H 150.500 C 150.600 648.100 150.500 648.000 150.500 648.100 V 650.900 C 150.500 651.000 150.600 650.900 150.500 650.900 H 147.600 Z" stroke="rgb(0,0,255)" stroke-width="0.20" />
  <path d="M 159.600 650.900 H 156.700 C 156.600 650.900 156.700 651.000 156.700 650.900 V 648.100 C 156.700 648.000 156.600 648.100 156.700 648.100 H 162.500 C 162.600 648.100 162.500 648.000 162.500 648.100 V 650.900 C 162.500 651.000 162.600 650.900 162.500 650.900 H 159.600 Z" stroke="rgb(0,0,255)" stroke-width="0.20" />
  <path d="M 171.600 650.900 H 168.700 C 168.600 650.900 168.700 651.000 168.700 650.900 V 648.100 C 168.700 648.000 168.600 648.100 168.700 648.100 H 174.500 C 174.600 648.100 174.500 648.000 174.500 648.100 V 650.900 C 174.500 651.000 174.600 650.900 174.500 650.900 H 171.600 Z" stroke="rgb(0,0,255)" stroke-width="0.20" />
  <path d="M 183.600 650.900 H 180.700 C 180.600 650.900 180.700 651.000 180.700 650.900 V 648.100 C 180.700 648.000 180.600 648.100 180.700 648.100 H 186.500 C 186.600 648.100 186.500 648.000 186.500 648.100 V 650.900 C 186.500 651.000 186.600 650.900 186.500 650.900 H 183.600 Z" stroke="rgb(0,0,255)" stroke-width="0.20" />
  <path d="M 195.600 650.900 H 192.700 C 192.600 650.900 192.700 651.000 192.700 650.900 V 648.100 C 192.700 648.000 192.600 648.100 192.700 648.100 H 198.500 C 198.600 648.100 198.500 648.000 198.500 648.100 V 650.900 C 198.500 651.000 198.600 650.900 198.500 650.900 H 195.600 Z" stroke="rgb(0,0,255)" stroke-width="0.20" />
  <path d="M 13.100 654.100 H 210.100 H 213.100 C 213.155 654.100 213.200 654.055 213.200 654.000 V 648.000 V 640.500 C 213.200 640.445 213.155 640.400 213.100 640.400 H 210.200 C 210.100 640.400 210.200 640.500 210.200 640.400 V 634.600 C 210.200 634.500 210.100 634.600 210.200 634.600 H 213.100 C 213.155 634.600 213.200 634.555 213.200 634.500 V 628.500 C 213.200 628.445 213.155 628.400 213.100 628.400 H 210.200 C 210.100 628.400 210.200 628.500 210.200 628.400 V 622.600 C 210.200 622.500 210.100 622.600 210.200 622.600 H 213.100 C 213.155 622.600 213.200 622.555 213.200 622.500 V 616.500 C 213.200 616.445 213.155 616.400 213.100 616.400 H 210.200 C 210.100 616.400 210.200 616.500 210.200 616.400 V 610.600 C 210.200 610.500 210.100 610.600 210.200 610.600 H 213.100 C 213.155 610.600 213.200 610.555 213.200 610.500 V 604.500 C 213.200 604.445 213.155 604.400 213.100 604.400 H 210.200 C 210.100 604.400 210.200 604.500 210.200 604.400 V 598.600 C 210.200 598.500 210.100 598.600 210.200 598.600 H 213.100 C 213.155 598.600 213.200 598.555 213.200 598.500 V 592.500 C 213.200 592.445 213.155 592.400 213.100 592.400 H 210.200 C 210.100 592.400 210.200 592.500 210.200 592.400 V 586.600 C 210.200 586.500 210.100 586.600 210.200 586.600 H 213.100 C 213.155 586.600 213.200 586.555 213.200 586.500 V 580.500 C 213.200 580.445 213.155 580.400 213.100 580.400 H 210.200 C 210.100 580.400 210.200 580.500 210.200 580.400 V 574.600 C 210.200 574.500 210.100 574.600 210.200 574.600 H 213.100 C 213.155 574.600 213.200 574.555 213.200 574.500 V 568.500 C 213.200 568.445 213.155 568.400 213.100 568.400 H 210.200 C 210.100 568.400 210.200 568.500 210.200 568.400 V 562.600 C 210.200 562.500 210.100 562.600 210.200 562.600 H 213.100 C 213.155 562.600 213.200 562.555 213.200 562.500 V 556.500 C 213.200 556.445 213.155 556.400 213.100 556.400 H 210.200 C 210.100 556.400 210.200 556.500 210.200 556.400 V 550.600 C 210.200 550.500 210.100 550.600 210.200 550.600 H 213.100 C 213.155 550.600 213.200 550.555 213.200 550.500 V 544.500 C 213.200 544.445 213.155 544.400 213.100 544.400 H 210.200 C 210.100 544.400 210.200 544.500 210.200 544.400 V 538.600 C 210.200 538.500 210.100 538.600 210.200 538.600 H 213.100 C 213.155 538.600 213.200 538.555 213.200 538.500 V 532.500 C 213.200 532.445 213.155 532.400 213.100 532.400 H 210.200 C 210.100 532.400 210.200 532.500 210.200 532.400 V 526.600 C 210.200 526.500 210.100 526.600 210.200 526.600 H 213.100 C 213.155 526.600 213.200 526.555 213.200 526.500 V 520.500 C 213.200 520.445 213.155 520.400 213.100 520.400 H 210.200 C 210.100 520.400 210.200 520.500 210.200 520.400 V 514.600 C 210.200 514.500 210.100 514.600 210.200 514.600 H 213.100 C 213.155 514.600 213.200 514.555 213.200 514.500 V 507.000 V 504.000 C 213.200 503.945 213.155 503.900 213.100 503.900 H 210.100 H 198.600 C 198.545 503.900 198.500 503.945 198.500 504.000 V 506.900 C 198.500 507.000 198.600 506.900 198.500 506.900 H 192.700 C 192.600 506.900 192.700 507.000 192.700 506.900 V 504.000 C 192.700 503.945 192.655 503.900 192.600 503.900 H 186.600 C 186.545 503.900 186.500 503.945 186.500 504.000 V 506.900 C 186.500 507.000 186.600 506.900 186.500 506.900 H 180.700 C 180.600 506.900 180.700 507.000 180.700 506.900 V 504.000 C 180.700 503.945 180.655 503.900 180.600 503.900 H 174.600 C 174.545 503.900 174.500 503.945 174.500 504.000 V 506.900 C 174.500 507.000 174.600 506.900 174.500 506.900 H 168.700 C 168.600 506.900 168.700 507.000 168.700 506.900 V 504.000 C 168.700 503.945 168.655 503.900 168.600 503.900 H 162.600 C 162.545 503.900 162.500 503.945 162.500 504.000 V 506.900 C 162.500 507.000 162.600 506.900 162.500 506.900 H 156.700 C 156.600 506.900 156.700 507.000 156.700 506.900 V 504.000 C 156.700 503.945 156.655 503.900 156.600 503.900 H 150.600 C 150.545 503.900 150.500 503.945 150.500 504.000 V 506.900 C 150.500 507.000 150.600 506.900 150.500 506.900 H 144.700 C 144.600 506.900 144.700 507.000 144.700 506.900 V 504.000 C 144.700 503.945 144.655 503.900 144.600 503.900 H 138.600 C 138.545 503.900 138.500 503.945 138.500 504.000 V 506.900 C 138.500 507.000 138.600 506.900 138.500 506.900 H 132.700 C 132.600 506.900 132.700 507.000 132.700 506.900 V 504.000 C 132.700 503.945 132.655 503.900 132.600 503.900 H 126.600 C 126.545 503.900 126.500 503.945 126.500 504.000 V 506.900 C 126.500 507.000 126.600 506.900 126.500 506.900 H 120.700 C 120.600 506.900 120.700 507.000 120.700 506.900 V 504.000 C 120.700 503.945 120.655 503.900 120.600 503.900 H 114.600 C 114.545 503.900 114.500 503.945 114.500 504.000 V 506.900 C 114.500 507.000 114.600 506.900 114.500 506.900 H 108.700 C 108.600 506.900 108.700 507.000 108.700 506.900 V 504.000 C 108.700 503.945 108.655 503.900 108.600 503.900 H 102.600 C 102.545 503.900 102.500 503.945 102.500 504.000 V 506.900 C 102.500 507.000 102.600 506.900 102.500 506.900 H 96.700 C 96.600 506.900 96.700 507.000 96.700 506.900 V 504.000 C 96.700 503.945 96.655 503.900 96.600 503.900 H 90.600 C 90.545 503.900 90.500 503.945 90.500 504.000 V 506.900 C 90.500 507.000 90.600 506.900 90.500 506.900 H 84.700 C 84.600 506.900 84.700 507.000 84.700 506.900 V 504.000 C 84.700 503.945 84.655 503.900 84.600 503.900 H 78.600 C 78.545 503.900 78.500 503.945 78.500 504.000 V 506.900 C 78.500 507.000 78.600 506.900 78.500 506.900 H 72.700 C 72.600 506.900 72.700 507.000 72.700 506.900 V 504.000 C 72.700 503.945 72.655 503.900 72.600 503.900 H 66.600 C 66.545 503.900 66.500 503.945 66.500 504.000 V 506.900 C 66.500 507.000 66.600 506.900 66.500 506.900 H 60.700 C 60.600 506.900 60.700 507.000 60.700 506.900 V 504.000 C 60.700 503.945 60.655 503.900 60.600 503.900 H 54.600 C 54.545 503.900 54.500 503.945 54.500 504.000 V 506.900 C 54.500 507.000 54.600 506.900 54.500 506.900 H 48.700 C 48.600 506.900 48.700 507.000 48.700 506.900 V 504.000 C 48.700 503.945 48.655 503.900 48.600 503.900 H 42.600 C 42.545 503.900 42.500 503.945 42.500 504.000 V 506.900 C 42.500 507.000 42.600 506.900 42.500 506.900 H 36.700 C 36.600 506.900 36.700 507.000 36.700 506.900 V 504.000 C 36.700 503.945 36.655 503.900 36.600 503.900 H 30.600 C 30.545 503.900 30.500 503.945 30.500 504.000 V 506.900 C 30.500 507.000 30.600 506.900 30.500 506.900 H 24.700 C 24.600 506.900 24.700 507.000 24.700 506.900 V 504.000 C 24.700 503.945 24.655 503.900 24.600 503.900 H 13.100 H 10.100 C 10.045 503.900 10.000 503.945 10.000 504.000 V 507.000 V 648.000 V 654.000 C 10.000 654.055 10.045 654.100 10.100 654.100 H 13.100 Z" stroke="rgb(0,0,0)" stroke-width="0.20" />
  <path d="M 195.600 600.100 H 198.500 C 198.600 600.100 198.500 600.000 198.500 600.100 V 602.900 C 198.500 603.000 198.600 602.900 198.500 602.900 H 192.700 C 192.600 602.900 192.700 603.000 192.700 602.900 V 600.100 C 192.700 600.000 192.600 600.100 192.700 600.100 H 195.600 Z" stroke="rgb(0,0,255)" stroke-width="0.20" />
  <path d="M 183.600 600.100 H 186.500 C 186.600 600.100 186.500 600.000 186.500 600.100 V 602.900 C 186.500 603.000 186.600 602.900 186.500 602.900 H 180.700 C 180.600 602.900 180.700 603.000 180.700 602.900 V 600.100 C 180.700 600.000 180.600 600.100 180.700 600.100 H 183.600 Z" stroke="rgb(0,0,255)" stroke-width="0.20" />
  <path d="M 171.600 600.100 H 174.500 C 174.600 600.100 174.500 600.000 174.500 600.100 V 602.900 C 174.500 603.000 174.600 602.900 174.500 602.900 H 168.700 C 168.600 602.900 168.700 603.000 168.700 602.900 V 600.100 C 168.700 600.000 168.600 600.100 168.700 600.100 H 171.600 Z" stroke="rgb(0,0,255)" stroke-width="0.20" />
  <path d="M 159.600 600.100 H 162.500 C 162.600 600.100 162.500 600.000 162.500 600.100 V 602.900 C 162.500 603.000 162.600 602.900 162.500 602.900 H 156.700 C 156.600 602.900 156.700 603.000 156.700 602.900 V 600.100 C 156.700 600.000 156.600 600.100 156.700 600.100 H 159.600 Z" stroke="rgb(0,0,255)" stroke-width="0.20" />
  <path d="M 147.600 600.100 H 150.500 C 150.600 600.100 150.500 600.000 150.500 600.100 V 602.900 C 150.500 603.000 150.600 602.900 150.500 602.900 H 144.700 C 144.600 602.900 144.700 603.000 144.700 602.900 V 600.100 C 144.700 600.000 144.600 600.100 144.700 600.100 H 147.600 Z" stroke="rgb(0,0,255)" stroke-width="0.20" />
  <path d="M 135.600 600.100 H 138.500 C 138.600 600.100 138.500 600.000 138.500 600.100 V 602.900 C 138.500 603.000 138.600 602.900 138.500 602.900 H 132.700 C 132.600 602.900 132.700 603.000 132.700 602.900 V 600.100 C 132.700 600.000 132.600 600.100 132.700 600.100 H 135.600 Z" stroke="rgb(0,0,255)" stroke-width="0.20" />
  <path d="M 123.600 600.100 H 126.500 C 126.600 600.100 126.500 600.000 126.500 600.100 V 602.900 C 126.500 603.000 126.600 602.900 126.500 602.900 H 120.700 C 120.600 602.900 120.700 603.000 120.700 602.900 V 600.100 C 120.700 600.000 120.600 600.100 120.700 600.100 H 123.600 Z" stroke="rgb(0,0,255)" stroke-width="0.20" />
  <path d="M 111.600 600.100 H 114.500 C 114.600 600.100 114.500 600.000 114.500 600.100 V 602.900 C 114.500 603.000 114.600 602.900 114.500 602.900 H 108.700 C 108.600 602.900 108.700 603.000 108.700 602.900 V 600.100 C 108.700 600.000 108.600 600.100 108.700 600.100 H 111.600 Z" stroke="rgb(0,0,255)" stroke-width="0.20" />
  <path d="M 99.600 600.100 H 102.500 C 102.600 600.100 102.500 600.000 102.500 600.100 V 602.900 C 102.500 603.000 102.600 602.900 102.500 602.900 H 96.700 C 96.600 602.900 96.700 603.000 96.700 602.900 V 600.100 C 96.700 600.000 96.600 600.100 96.700 600.100 H 99.600 Z" stroke="rgb(0,0,255)" stroke-width="0.20" />
  <path d="M 87.600 600.100 H 90.500 C 90.600 600.100 90.500 600.000 90.500 600.100 V 602.900 C 90.500 603.000 90.600 602.900 90.500 602.900 H 84.700 C 84.600 602.900 84.700 603.000 84.700 602.900 V 600.100 C 84.700 600.000 84.600 600.100 84.700 600.100 H 87.600 Z" stroke="rgb(0,0,255)" stroke-width="0.20" />
  <path d="M 75.600 600.100 H 78.500 C 78.600 600.100 78.500 600.000 78.500 600.100 V 602.900 C 78.500 603.000 78.600 602.900 78.500 602.900 H 72.700 C 72.600 602.900 72.700 603.000 72.700 602.900 V 600.100 C 72.700 600.000 72.600 600.100 72.700 600.100 H 75.600 Z" stroke="rgb(0,0,255)" stroke-width="0.20" />
  <path d="M 63.600 600.100 H 66.500 C 66.600 600.100 66.500 600.000 66.500 600.100 V 602.900 C 66.500 603.000 66.600 602.900 66.500 602.900 H 60.700 C 60.600 602.900 60.700 603.000 60.700 602.900 V 600.100 C 60.700 600.000 60.600 600.100 60.700 600.100 H 63.600 Z" stroke="rgb(0,0,255)" stroke-width="0.20" />
  <path d="M 51.600 600.100 H 54.500 C 54.600 600.100 54.500 600.000 54.500 600.100 V 602.900 C 54.500 603.000 54.600 602.900 54.500 602.900 H 48.700 C 48.600 602.900 48.700 603.000 48.700 602.900 V 600.100 C 48.700 600.000 48.600 600.100 48.700 600.100 H 51.600 Z" stroke="rgb(0,0,255)" stroke-width="0.20" />
  <path d="M 39.600 600.100 H 42.500 C 42.600 600.100 42.500 600.000 42.500 600.100 V 602.900 C 42.500 603.000 42.600 602.900 42.500 602.900 H 36.700 C 36.600 602.900 36.700 603.000 36.700 602.900 V 600.100 C 36.700 600.000 36.600 600.100 36.700 600.100 H 39.600 Z" stroke="rgb(0,0,255)" stroke-width="0.20" />
  <path d="M 27.600 600.100 H 30.500 C 30.600 600.100 30.500 600.000 30.500 600.100 V 602.900 C 30.500 603.000 30.600 602.900 30.500 602.900 H 24.700 C 24.600 602.900 24.700 603.000 24.700 602.900 V 600.100 C 24.700 600.000 24.600 600.100 24.700 600.100 H 27.600 Z" stroke="rgb(0,0,255)" stroke-width="0.20" />
  <path d="M 195.600 552.100 H 198.500 C 198.600 552.100 198.500 552.000 198.500 552.100 V 554.900 C 198.500 555.000 198.600 554.900 198.500 554.900 H 192.700 C 192.600 554.900 192.700 555.000 192.700 554.900 V 552.100 C 192.700 552.000 192.600 552.100 192.700 552.100 H 195.600 Z" stroke="rgb(0,0,255)" stroke-width="0.20" />
  <path d="M 183.600 552.100 H 186.500 C 186.600 552.100 186.500 552.000 186.500 552.100 V 554.900 C 186.500 555.000 186.600 554.900 186.500 554.900 H 180.700 C 180.600 554.900 180.700 555.000 180.700 554.900 V 552.100 C 180.700 552.000 180.600 552.100 180.700 552.100 H 183.600 Z" stroke="rgb(0,0,255)" stroke-width="0.20" />
  <path d="M 171.600 552.100 H 174.500 C 174.600 552.100 174.500 552.000 174.500 552.100 V 554.900 C 174.500 555.000 174.600 554.900 174.500 554.900 H 168.700 C 168.600 554.900 168.700 555.000 168.700 554.900 V 552.100 C 168.700 552.000 168.600 552.100 168.700 552.100 H 171.600 Z" stroke="rgb(0,0,255)" stroke-width="0.20" />
  <path d="M 159.600 552.100 H 162.500 C 162.600 552.100 162.500 552.000 162.500 552.100 V 554.900 C 162.500 555.000 162.600 554.900 162.500 554.900 H 156.700 C 156.600 554.900 156.700 555.000 156.700 554.900 V 552.100 C 156.700 552.000 156.600 552.100 156.700 552.100 H 159.600 Z" stroke="rgb(0,0,255)" stroke-width="0.20" />
  <path d="M 147.600 552.100 H 150.500 C 150.600 552.100 150.500 552.000 150.500 552.100 V 554.900 C 150.500 555.000 150.600 554.900 150.500 554.900 H 144.700 C 144.600 554.900 144.700 555.000 144.700 554.900 V 552.100 C 144.700 552.000 144.600 552.100 144.700 552.100 H 147.600 Z" stroke="rgb(0,0,255)" stroke-width="0.20" />
  <path d="M 135.600 552.100 H 138.500 C 138.600 552.100 138.500 552.000 138.500 552.100 V 554.900 C 138.500 555.000 138.600 554.900 138.500 554.900 H 132.700 C 132.600 554.900 132.700 555.000 132.700 554.900 V 552.100 C 132.700 552.000 132.600 552.100 132.700 552.100 H 135.600 Z" stroke="rgb(0,0,255)" stroke-width="0.20" />
  <path d="M 123.600 552.100 H 126.500 C 126.600 552.100 126.500 552.000 126.500 552.100 V 554.900 C 126.500 555.000 126.600 554.900 126.500 554.900 H 120.700 C 120.600 554.900 120.700 555.000 120.700 554.900 V 552.100 C 120.700 552.000 120.600 552.100 120.700 552.100 H 123.600 Z" stroke="rgb(0,0,255)" stroke-width="0.20" />
  <path d="M 111.600 552.100 H 114.500 C 114.600 552.100 114.500 552.000 114.500 552.100 V 554.900 C 114.500 555.000 114.600 554.900 114.500 554.900 H 108.700 C 108.600 554.900 108.700 555.000 108.700 554.900 V 552.100 C 108.700 552.000 108.600 552.100 108.700 552.100 H 111.600 Z" stroke="rgb(0,0,255)" stroke-width="0.20" />
  <path d="M 99.600 552.100 H 102.500 C 102.600 552.100 102.500 552.000 102.500 552.100 V 554.900 C 102.500 555.000 102.600 554.900 102.500 554.900 H 96.700 C 96.600 554.900 96.700 555.000 96.700 554.900 V 552.100 C 96.700 552.000 96.600 552.100 96.700 552.100 H 99.600 Z" stroke="rgb(0,0,255)" stroke-width="0.20" />
  <path d="M 87.600 552.100 H 90.500 C 90.600 552.100 90.500 552.000 90.500 552.100 V 554.900 C 90.500 555.000 90.600 554.900 90.500 554.900 H 84.700 C 84.600 554.900 84.700 555.000 84.700 554.900 V 552.100 C 84.700 552.000 84.600 552.100 84.700 552.100 H 87.600 Z" stroke="rgb(0,0,255)" stroke-width="0.20" />
  <path d="M 75.600 552.100 H 78.500 C 78.600 552.100 78.500 552.000 78.500 552.100 V 554.900 C 78.500 555.000 78.600 554.900 78.500 554.900 H 72.700 C 72.600 554.900 72.700 555.000 72.700 554.900 V 552.100 C 72.700 552.000 72.600 552.100 72.700 552.100 H 75.600 Z" stroke="rgb(0,0,255)" stroke-width="0.20" />
  <path d="M 63.600 552.100 H 66.500 C 66.600 552.100 66.500 552.000 66.500 552.100 V 554.900 C 66.500 555.000 66.600 554.900 66.500 554.900 H 60.700 C 60.600 554.900 60.700 555.000 60.700 554.900 V 552.100 C 60.700 552.000 60.600 552.100 60.700 552.100 H 63.600 Z" stroke="rgb(0,0,255)" stroke-width="0.20" />
  <path d="M 51.600 552.100 H 54.500 C 54.600 552.100 54.500 552.000 54.500 552.100 V 554.900 C 54.500 555.000 54.600 554.900 54.500 554.900 H 48.700 C 48.600 554.900 48.700 555.000 48.700 554.900 V 552.100 C 48.700 552.000 48.600 552.100 48.700 552.100 H 51.600 Z" stroke="rgb(0,0,255)" stroke-width="0.20" />
  <path d="M 39.600 552.100 H 42.500 C 42.600 552.100 42.500 552.000 42.500 552.100 V 554.900 C 42.500 555.000 42.600 554.900 42.500 554.900 H 36.700 C 36.600 554.900 36.700 555.000 36.700 554.900 V 552.100 C 36.700 552.000 36.600 552.100 36.700 552.100 H 39.600 Z" stroke="rgb(0,0,255)" stroke-width="0.20" />
  <path d="M 27.600 552.100 H 30.500 C 30.600 552.100 30.500 552.000 30.500 552.100 V 554.900 C 30.500 555.000 30.600 554.900 30.500 554.900 H 24.700 C 24.600 554.900 24.700 555.000 24.700 554.900 V 552.100 C 24.700 552.000 24.600 552.100 24.700 552.100 H 27.600 Z" stroke="rgb(0,0,255)" stroke-width="0.20" />
</g>
<g id="p-2" style="fill:none;stroke-linecap:round;stroke-linejoin:round;">
  <path d="M 27.600 499.200 H 24.700 C 24.600 499.200 24.700 499.300 24.700 499.200 V 496.400 C 24.700 496.300 24.600 496.400 24.700 496.400 H 30.500 C 30.600 496.400 30.500 496.300 30.500 496.400 V 499.200 C 30.500 499.300 30.600 499.200 30.500 499.200 H 27.600 Z" stroke="rgb(0,0,255)" stroke-width="0.20" />
  <path d="M 39.600 499.200 H 36.700 C 36.600 499.200 36.700 499.300 36.700 499.200 V 496.400 C 36.700 496.300 36.600 496.400 36.700 496.400 H 42.500 C 42.600 496.400 42.500 496.300 42.500 496.400 V 499.200 C 42.500 499.300 42.600 499.200 42.500 499.200 H 39.600 Z" stroke="rgb(0,0,255)" stroke-width="0.20" />
  <path d="M 51.600 499.200 H 48.700 C 48.600 499.200 48.700 499.300 48.700 499.200 V 496.400 C 48.700 496.300 48.600 496.400 48.700 496.400 H 54.500 C 54.600 496.400 54.500 496.300 54.500 496.400 V 499.200 C 54.500 499.300 54.600 499.200 54.500 499.200 H 51.600 Z" stroke="rgb(0,0,255)" stroke-width="0.20" />
  <path d="M 63.600 499.200 H 60.700 C 60.600 499.200 60.700 499.300 60.700 499.200 V 496.400 C 60.700 496.300 60.600 496.400 60.700 496.400 H 66.500 C 66.600 496.400 66.500 496.300 66.500 496.400 V 499.200 C 66.500 499.300 66.600 499.200 66.500 499.200 H 63.600 Z" stroke="rgb(0,0,255)" stroke-width="0.20" />
  <path d="M 75.600 499.200 H 72.700 C 72.600 499.200 72.700 499.300 72.700 499.200 V 496.400 C 72.700 496.300 72.600 496.400 72.700 496.400 H 78.500 C 78.600 496.400 78.500 496.300 78.500 496.400 V 499.200 C 78.500 499.300 78.600 499.200 78.500 499.200 H 75.600 Z" stroke="rgb(0,0,255)" stroke-width="0.20" />
  <path d="M 87.600 499.200 H 84.700 C 84.600 499.200 84.700 499.300 84.700 499.200 V 496.400 C 84.700 496.300 84.600 496.400 84.700 496.400 H 90.500 C 90.600 496.400 90.500 496.300 90.500 496.400 V 499.200 C 90.500 499.300 90.600 499.200 90.500 499.200 H 87.600 Z" stroke="rgb(0,0,255)" stroke-width="0.20" />
  <path d="M 99.600 499.200 H 96.700 C 96.600 499.200 96.700 499.300 96.700 499.200 V 496.400 C 96.700 496.300 96.600 496.400 96.700 496.400 H 102.500 C 102.600 496.400 102.500 496.300 102.500 496.400 V 499.200 C 102.500 499.300 102.600 499.200 102.500 499.200 H 99.600 Z" stroke="rgb(0,0,255)" stroke-width="0.20" />
  <path d="M 111.600 499.200 H 108.700 C 108.600 499.200 108.700 499.300 108.700 499.200 V 496.400 C 108.700 496.300 108.600 496.400 108.700 496.400 H 114.500 C 114.600 496.400 114.500 496.300 114.500 496.400 V 499.200 C 114.500 499.300 114.600 499.200 114.500 499.200 H 111.600 Z" stroke="rgb(0,0,255)" stroke-width="0.20" />
  <path d="M 123.600 499.200 H 120.700 C 120.600 499.200 120.700 499.300 120.700 499.200 V 496.400 C 120.700 496.300 120.600 496.400 120.700 496.400 H 126.500 C 126.600 496.400 126.500 496.300 126.500 496.400 V 499.200 C 126.500 499.300 126.600 499.200 126.500 499.200 H 123.600 Z" stroke="rgb(0,0,255)" stroke-width="0.20" />
  <path d="M 135.600 499.200 H 132.700 C 132.600 499.200 132.700 499.300 132.700 499.200 V 496.400 C 132.700 496.300 132.600 496.400 132.700 496.400 H 138.500 C 138.600 496.400 138.500 496.300 138.500 496.400 V 499.200 C 138.500 499.300 138.600 499.200 138.500 499.200 H 135.600 Z" stroke="rgb(0,0,255)" stroke-width="0.20" />
  <path d="M 147.600 499.200 H 144.700 C 144.600 499.200 144.700 499.300 144.700 499.200 V 496.400 C 144.700 496.300 144.600 496.400 144.700 496.400 H 150.500 C 150.600 496.400 150.500 496.300 150.500 496.400 V 499.200 C 150.500 499.300 150.600 499.200 150.500 499.200 H 147.600 Z" stroke="rgb(0,0,255)" stroke-width="0.20" />
  <path d="M 159.600 499.200 H 156.700 C 156.600 499.200 156.700 499.300 156.700 499.200 V 496.400 C 156.700 496.300 156.600 496.400 156.700 496.400 H 162.500 C 162.600 496.400 162.500 496.300 162.500 496.400 V 499.200 C 162.500 499.300 162.600 499.200 162.500 499.200 H 159.600 Z" stroke="rgb(0,0,255)" stroke-width="0.20" />
  <path d="M 171.600 499.200 H 168.700 C 168.600 499.200 168.700 499.300 168.700 499.200 V 496.400 C 168.700 496.300 168.600 496.400 168.700 496.400 H 174.500 C 174.600 496.400 174.500 496.300 174.500 496.400 V 499.200 C 174.500 499.300 174.600 499.200 174.500 499.200 H 171.600 Z" stroke="rgb(0,0,255)" stroke-width="0.20" />
  <path d="M 183.600 499.200 H 180.700 C 180.600 499.200 180.700 499.300 180.700 499.200 V 496.400 C 180.700 496.300 180.600 496.400 180.700 496.400 H 186.500 C 186.600 496.400 186.500 496.300 186.500 496.400 V 499.200 C 186.500 499.300 186.600 499.200 186.500 499.200 H 183.600 Z" stroke="rgb(0,0,255)" stroke-width="0.20" />
  <path d="M 195.600 499.200 H 192.700 C 192.600 499.200 192.700 499.300 192.700 499.200 V 496.400 C 192.700 496.300 192.600 496.400 192.700 496.400 H 198.500 C 198.600 496.400 198.500 496.300 198.500 496.400 V 499.200 C 198.500 499.300 198.600 499.200 198.500 499.200 H 195.600 Z" stroke="rgb(0,0,255)" stroke-width="0.20" />
  <path d="M 13.100 502.400 H 210.100 H 213.100 C 213.155 502.400 213.200 502.355 213.200 502.300 V 496.300 V 355.300 V 352.300 C 213.200 352.245 213.155 352.200 213.100 352.200 H 210.100 H 198.600 C 198.545 352.200 198.500 352.245 198.500 352.300 V 355.200 C 198.500 355.300 198.600 355.200 198.500 355.200 H 192.700 C 192.600 355.200 192.700 355.300 192.700 355.200 V 352.300 C 192.700 352.245 192.655 352.200 192.600 352.200 H 186.600 C 186.545 352.200 186.500 352.245 186.500 352.300 V 355.200 C 186.500 355.300 186.600 355.200 186.500 355.200 H 180.700 C 180.600 355.200 180.700 355.300 180.700 355.200 V 352.300 C 180.700 352.245 180.655 352.200 180.600 352.200 H 174.600 C 174.545 352.200 174.500 352.245 174.500 352.300 V 355.200 C 174.500 355.300 174.600 355.200 174.500 355.200 H 168.700 C 168.600 355.200 168.700 355.300 168.700 355.200 V 352.300 C 168.700 352.245 168.655 352.200 168.600 352.200 H 162.600 C 162.545 352.200 162.500 352.245 162.500 352.300 V 355.200 C 162.500 355.300 162.600 355.200 162.500 355.200 H 156.700 C 156.600 355.200 156.700 355.300 156.700 355.200 V 352.300 C 156.700 352.245 156.655 352.200 156.600 352.200 H 150.600 C 150.545 352.200 150.500 352.245 150.500 352.300 V 355.200 C 150.500 355.300 150.600 355.200 150.500 355.200 H 144.700 C 144.600 355.200 144.700 355.300 144.700 355.200 V 352.300 C 144.700 352.245 144.655 352.200 144.600 352.200 H 138.600 C 138.545 352.200 138.500 352.245 138.500 352.300 V 355.200 C 138.500 355.300 138.600 355.200 138.500 355.200 H 132.700 C 132.600 355.200 132.700 355.300 132.700 355.200 V 352.300 C 132.700 352.245 132.655 352.200 132.600 352.200 H 126.600 C 126.545 352.200 126.500 352.245 126.500 352.300 V 355.200 C 126.500 355.300 126.600 355.200 126.500 355.200 H 120.700 C 120.600 355.200 120.700 355.300 120.700 355.200 V 352.300 C 120.700 352.245 120.655 352.200 120.600 352.200 H 114.600 C 114.545 352.200 114.500 352.245 114.500 352.300 V 355.200 C 114.500 355.300 114.600 355.200 114.500 355.200 H 108.700 C 108.600 355.200 108.700 355.300 108.700 355.200 V 352.300 C 108.700 352.245 108.655 352.200 108.600 352.200 H 102.600 C 102.545 352.200 102.500 352.245 102.500 352.300 V 355.200 C 102.500 355.300 102.600 355.200 102.500 355.200 H 96.700 C 96.600 355.200 96.700 355.300 96.700 355.200 V 352.300 C 96.700 352.245 96.655 352.200 96.600 352.200 H 90.600 C 90.545 352.200 90.500 352.245 90.500 352.300 V 355.200 C 90.500 355.300 90.600 355.200 90.500 355.200 H 84.700 C 84.600 355.200 84.700 355.300 84.700 355.200 V 352.300 C 84.700 352.245 84.655 352.200 84.600 352.200 H 78.600 C 78.545 352.200 78.500 352.245 78.500 352.300 V 355.200 C 78.500 355.300 78.600 355.200 78.500 355.200 H 72.700 C 72.600 355.200 72.700 355.300 72.700 355.200 V 352.300 C 72.700 352.245 72.655 352.200 72.600 352.200 H 66.600 C 66.545 352.200 66.500 352.245 66.500 352.300 V 355.200 C 66.500 355.300 66.600 355.200 66.500 355.200 H 60.700 C 60.600 355.200 60.700 355.300 60.700 355.200 V 352.300 C 60.700 352.245 60.655 352.200 60.600 352.200 H 54.600 C 54.545 352.200 54.500 352.245 54.500 352.300 V 355.200 C 54.500 355.300 54.600 355.200 54.500 355.200 H 48.700 C 48.600 355.200 48.700 355.300 48.700 355.200 V 352.300 C 48.700 352.245 48.655 352.200 48.600 352.200 H 42.600 C 42.545 352.200 42.500 352.245 42.500 352.300 V 355.200 C 42.500 355.300 42.600 355.200 42.500 355.200 H 36.700 C 36.600 355.200 36.700 355.300 36.700 355.200 V 352.300 C 36.700 352.245 36.655 352.200 36.600 352.200 H 30.600 C 30.545 352.200 30.500 352.245 30.500 352.300 V 355.200 C 30.500 355.300 30.600 355.200 30.500 355.200 H 24.700 C 24.600 355.200 24.700 355.300 24.700 355.200 V 352.300 C 24.700 352.245 24.655 352.200 24.600 352.200 H 13.100 H 10.100 C 10.045 352.200 10.000 352.245 10.000 352.300 V 355.300 V 362.800 C 10.000 362.855 10.045 362.900 10.100 362.900 H 13.000 C 13.100 362.900 13.000 362.800 13.000 362.900 V 368.700 C 13.000 368.800 13.100 368.700 13.000 368.700 H 10.100 C 10.045 368.700 10.000 368.745 10.000 368.800 V 374.800 C 10.000 374.855 10.045 374.900 10.100 374.900 H 13.000 C 13.100 374.900 13.000 374.800 13.000 374.900 V 380.700 C 13.000 380.800 13.100 380.700 13.000 380.700 H 10.100 C 10.045 380.700 10.000 380.745 10.000 380.800 V 386.800 C 10.000 386.855 10.045 386.900 10.100 386.900 H 13.000 C 13.100 386.900 13.000 386.800 13.000 386.900 V 392.700 C 13.000 392.800 13.100 392.700 13.000 392.700 H 10.100 C 10.045 392.700 10.000 392.745 10.000 392.800 V 398.800 C 10.000 398.855 10.045 398.900 10.100 398.900 H 13.000 C 13.100 398.900 13.000 398.800 13.000 398.900 V 404.700 C 13.000 404.800 13.100 404.700 13.000 404.700 H 10.100 C 10.045 404.700 10.000 404.745 10.000 404.800 V 410.800 C 10.000 410.855 10.045 410.900 10.100 410.900 H 13.000 C 13.100 410.900 13.000 410.800 13.000 410.900 V 416.700 C 13.000 416.800 13.100 416.700 13.000 416.700 H 10.100 C 10.045 416.700 10.000 416.745 10.000 416.800 V 422.800 C 10.000 422.855 10.045 422.900 10.100 422.900 H 13.000 C 13.100 422.900 13.000 422.800 13.000 422.900 V 428.700 C 13.000 428.800 13.100 428.700 13.000 428.700 H 10.100 C 10.045 428.700 10.000 428.745 10.000 428.800 V 434.800 C 10.000 434.855 10.045 434.900 10.100 434.900 H 13.000 C 13.100 434.900 13.000 434.800 13.000 434.900 V 440.700 C 13.000 440.800 13.100 440.700 13.000 440.700 H 10.100 C 10.045 440.700 10.000 440.745 10.000 440.800 V 446.800 C 10.000 446.855 10.045 446.900 10.100 446.900 H 13.000 C 13.100 446.900 13.000 446.800 13.000 446.900 V 452.700 C 13.000 452.800 13.100 452.700 13.000 452.700 H 10.100 C 10.045 452.700 10.000 452.745 10.000 452.800 V 458.800 C 10.000 458.855 10.045 458.900 10.100 458.900 H 13.000 C 13.100 458.900 13.000 458.800 13.000 458.900 V 464.700 C 13.000 464.800 13.100 464.700 13.000 464.700 H 10.100 C 10.045 464.700 10.000 464.745 10.000 464.800 V 470.800 C 10.000 470.855 10.045 470.900 10.100 470.900 H 13.000 C 13.100 470.900 13.000 470.800 13.000 470.900 V 476.700 C 13.000 476.800 13.100 476.700 13.000 476.700 H 10.100 C 10.045 476.700 10.000 476.745 10.000 476.800 V 482.800 C 10.000 482.855 10.045 482.900 10.100 482.900 H 13.000 C 13.100 482.900 13.000 482.800 13.000 482.900 V 488.700 C 13.000 488.800 13.100 488.700 13.000 488.700 H 10.100 C 10.045 488.700 10.000 488.745 10.000 488.800 V 496.300 V 502.300 C 10.000 502.355 10.045 502.400 10.100 502.400 H 13.100 Z" stroke="rgb(0,0,0)" stroke-width="0.20" />
  <path d="M 195.600 448.400 H 198.500 C 198.600 448.400 198.500 448.300 198.500 448.400 V 451.200 C 198.500 451.300 198.600 451.200 198.500 451.200 H 192.700 C 192.600 451.200 192.700 451.300 192.700 451.200 V 448.400 C 192.700 448.300 192.600 448.400 192.700 448.400 H 195.600 Z" stroke="rgb(0,0,255)" stroke-width="0.20" />
  <path d="M 183.600 448.400 H 186.500 C 186.600 448.400 186.500 448.300 186.500 448.400 V 451.200 C 186.500 451.300 186.600 451.200 186.500 451.200 H 180.700 C 180.600 451.200 180.700 451.300 180.700 451.200 V 448.400 C 180.700 448.300 180.600 448.400 180.700 448.400 H 183.600 Z" stroke="rgb(0,0,255)" stroke-width="0.20" />
  <path d="M 171.600 448.400 H 174.500 C 174.600 448.400 174.500 448.300 174.500 448.400 V 451.200 C 174.500 451.300 174.600 451.200 174.500 451.200 H 168.700 C 168.600 451.200 168.700 451.300 168.700 451.200 V 448.400 C 168.700 448.300 168.600 448.400 168.700 448.400 H 171.600 Z" stroke="rgb(0,0,255)" stroke-width="0.20" />
  <path d="M 159.600 448.400 H 162.500 C 162.600 448.400 162.500 448.300 162.500 448.400 V 451.200 C 162.500 451.300 162.600 451.200 162.500 451.200 H 156.700 C 156.600 451.200 156.700 451.300 156.700 451.200 V 448.400 C 156.700 448.300 156.600 448.400 156.700 448.400 H 159.600 Z" stroke="rgb(0,0,255)" stroke-width="0.20" />
  <path d="M 147.600 448.400 H 150.500 C 150.600 448.400 150.500 448.300 150.500 448.400 V 451.200 C 150.500 451.300 150.600 451.200 150.500 451.200 H 144.700 C 144.600 451.200 144.700 451.300 144.700 451.200 V 448.400 C 144.700 448.300 144.600 448.400 144.700 448.400 H 147.600 Z" stroke="rgb(0,0,255)" stroke-width="0.20" />
  <path d="M 135.600 448.400 H 138.500 C 138.600 448.400 138.500 448.300 138.500 448.400 V 451.200 C 138.500 451.300 138.600 451.200 138.500 451.200 H 132.700 C 132.600 451.200 132.700 451.300 132.700 451.200 V 448.400 C 132.700 448.300 132.600 448.400 132.700 448.400 H 135.600 Z" stroke="rgb(0,0,255)" stroke-width="0.20" />
  <path d="M 123.600 448.400 H 126.500 C 126.600 448.400 126.500 448.300 126.500 448.400 V 451.200 C 126.500 451.300 126.600 451.200 126.500 451.200 H 120.700 C 120.600 451.200 120.700 451.300 120.700 451.200 V 448.400 C 120.700 448.300 120.600 448.400 120.700 448.400 H 123.600 Z" stroke="rgb(0,0,255)" stroke-width="0.20" />
  <path d="M 111.600 448.400 H 114.500 C 114.600 448.400 114.500 448.300 114.500 448.400 V 451.200 C 114.500 451.300 114.600 451.200 114.500 451.200 H 108.700 C 108.600 451.200 108.700 451.300 108.700 451.200 V 448.400 C 108.700 448.300 108.600 448.400 108.700 448.400 H 111.600 Z" stroke="rgb(0,0,255)" stroke-width="0.20" />
  <path d="M 99.600 448.400 H 102.500 C 102.600 448.400 102.500 448.300 102.500 448.400 V 451.200 C 102.500 451.300 102.600 451.200 102.500 451.200 H 96.700 C 96.600 451.200 96.700 451.300 96.700 451.200 V 448.400 C 96.700 448.300 96.600 448.400 96.700 448.400 H 99.600 Z" stroke="rgb(0,0,255)" stroke-width="0.20" />
  <path d="M 87.600 448.400 H 90.500 C 90.600 448.400 90.500 448.300 90.500 448.400 V 451.200 C 90.500 451.300 90.600 451.200 90.500 451.200 H 84.700 C 84.600 451.200 84.700 451.300 84.700 451.200 V 448.400 C 84.700 448.300 84.600 448.400 84.700 448.400 H 87.600 Z" stroke="rgb(0,0,255)" stroke-width="0.20" />
  <path d="M 75.600 448.400 H 78.500 C 78.600 448.400 78.500 448.300 78.500 448.400 V 451.200 C 78.500 451.300 78.600 451.200 78.500 451.200 H 72.700 C 72.600 451.200 72.700 451.300 72.700 451.200 V 448.400 C 72.700 448.300 72.600 448.400 72.700 448.400 H 75.600 Z" stroke="rgb(0,0,255)" stroke-width="0.20" />
  <path d="M 63.600 448.400 H 66.500 C 66.600 448.400 66.500 448.300 66.500 448.400 V 451.200 C 66.500 451.300 66.600 451.200 66.500 451.200 H 60.700 C 60.600 451.200 60.700 451.300 60.700 451.200 V 448.400 C 60.700 448.300 60.600 448.400 60.700 448.400 H 63.600 Z" stroke="rgb(0,0,255)" stroke-width="0.20" />
  <path d="M 51.600 448.400 H 54.500 C 54.600 448.400 54.500 448.300 54.500 448.400 V 451.200 C 54.500 451.300 54.600 451.200 54.500 451.200 H 48.700 C 48.600 451.200 48.700 451.300 48.700 451.200 V 448.400 C 48.700 448.300 48.600 448.400 48.700 448.400 H 51.600 Z" stroke="rgb(0,0,255)" stroke-width="0.20" />
  <path d="M 39.600 448.400 H 42.500 C 42.600 448.400 42.500 448.300 42.500 448.400 V 451.200 C 42.500 451.300 42.600 451.200 42.500 451.200 H 36.700 C 36.600 451.200 36.700 451.300 36.700 451.200 V 448.400 C 36.700 448.300 36.600 448.400 36.700 448.400 H 39.600 Z" stroke="rgb(0,0,255)" stroke-width="0.20" />
  <path d="M 27.600 448.400 H 30.500 C 30.600 448.400 30.500 448.300 30.500 448.400 V 451.200 C 30.500 451.300 30.600 451.200 30.500 451.200 H 24.700 C 24.600 451.200 24.700 451.300 24.700 451.200 V 448.400 C 24.700 448.300 24.600 448.400 24.700 448.400 H 27.600 Z" stroke="rgb(0,0,255)" stroke-width="0.20" />
  <path d="M 195.600 400.400 H 198.500 C 198.600 400.400 198.500 400.300 198.500 400.400 V 403.200 C 198.500 403.300 198.600 403.200 198.500 403.200 H 192.700 C 192.600 403.200 192.700 403.300 192.700 403.200 V 400.400 C 192.700 400.300 192.600 400.400 192.700 400.400 H 195.600 Z" stroke="rgb(0,0,255)" stroke-width="0.20" />
  <path d="M 183.600 400.400 H 186.500 C 186.600 400.400 186.500 400.300 186.500 400.400 V 403.200 C 186.500 403.300 186.600 403.200 186.500 403.200 H 180.700 C 180.600 403.200 180.700 403.300 180.700 403.200 V 400.400 C 180.700 400.300 180.600 400.400 180.700 400.400 H 183.600 Z" stroke="rgb(0,0,255)" stroke-width="0.20" />
  <path d="M 171.600 400.400 H 174.500 C 174.600 400.400 174.500 400.300 174.500 400.400 V 403.200 C 174.500 403.300 174.600 403.200 174.500 403.200 H 168.700 C 168.600 403.200 168.700 403.300 168.700 403.200 V 400.400 C 168.700 400.300 168.600 400.400 168.700 400.400 H 171.600 Z" stroke="rgb(0,0,255)" stroke-width="0.20" />
  <path d="M 159.600 400.400 H 162.500 C 162.600 400.400 162.500 400.300 162.500 400.400 V 403.200 C 162.500 403.300 162.600 403.200 162.500 403.200 H 156.700 C 156.600 403.200 156.700 403.300 156.700 403.200 V 400.400 C 156.700 400.300 156.600 400.400 156.700 400.400 H 159.600 Z" stroke="rgb(0,0,255)" stroke-width="0.20" />
  <path d="M 147.600 400.400 H 150.500 C 150.600 400.400 150.500 400.300 150.500 400.400 V 403.200 C 150.500 403.300 150.600 403.200 150.500 403.200 H 144.700 C 144.600 403.200 144.700 403.300 144.700 403.200 V 400.400 C 144.700 400.300 144.600 400.400 144.700 400.400 H 147.600 Z" stroke="rgb(0,0,255)" stroke-width="0.20" />
  <path d="M 135.600 400.400 H 138.500 C 138.600 400.400 138.500 400.300 138.500 400.400 V 403.200 C 138.500 403.300 138.600 403.200 138.500 403.200 H 132.700 C 132.600 403.200 132.700 403.300 132.700 403.200 V 400.400 C 132.700 400.300 132.600 400.400 132.700 400.400 H 135.600 Z" stroke="rgb(0,0,255)" stroke-width="0.20" />
  <path d="M 123.600 400.400 H 126.500 C 126.600 400.400 126.500 400.300 126.500 400.400 V 403.200 C 126.500 403.300 126.600 403.200 126.500 403.200 H 120.700 C 120.600 403.200 120.700 403.300 120.700 403.200 V 400.400 C 120.700 400.300 120.600 400.400 120.700 400.400 H 123.600 Z" stroke="rgb(0,0,255)" stroke-width="0.20" />
  <path d="M 111.600 400.400 H 114.500 C 114.600 400.400 114.500 400.300 114.500 400.400 V 403.200 C 114.500 403.300 114.600 403.200 114.500 403.200 H 108.700 C 108.600 403.200 108.700 403.300 108.700 403.200 V 400.400 C 108.700 400.300 108.600 400.400 108.700 400.400 H 111.600 Z" stroke="rgb(0,0,255)" stroke-width="0.20" />
  <path d="M 99.600 400.400 H 102.500 C 102.600 400.400 102.500 400.300 102.500 400.400 V 403.200 C 102.500 403.300 102.600 403.200 102.500 403.200 H 96.700 C 96.600 403.200 96.700 403.300 96.700 403.200 V 400.400 C 96.700 400.300 96.600 400.400 96.700 400.400 H 99.600 Z" stroke="rgb(0,0,255)" stroke-width="0.20" />
  <path d="M 87.600 400.400 H 90.500 C 90.600 400.400 90.500 400.300 90.500 400.400 V 403.200 C 90.500 403.300 90.600 403.200 90.500 403.200 H 84.700 C 84.600 403.200 84.700 403.300 84.700 403.200 V 400.400 C 84.700 400.300 84.600 400.400 84.700 400.400 H 87.600 Z" stroke="rgb(0,0,255)" stroke-width="0.20" />
  <path d="M 75.600 400.400 H 78.500 C 78.600 400.400 78.500 400.300 78.500 400.400 V 403.200 C 78.500 403.300 78.600 403.200 78.500 403.200 H 72.700 C 72.600 403.200 72.700 403.300 72.700 403.200 V 400.400 C 72.700 400.300 72.600 400.400 72.700 400.400 H 75.600 Z" stroke="rgb(0,0,255)" stroke-width="0.20" />
  <path d="M 63.600 400.400 H 66.500 C 66.600 400.400 66.500 400.300 66.500 400.400 V 403.200 C 66.500 403.300 66.600 403.200 66.500 403.200 H 60.700 C 60.600 403.200 60.700 403.300 60.700 403.200 V 400.400 C 60.700 400.300 60.600 400.400 60.700 400.400 H 63.600 Z" stroke="rgb(0,0,255)" stroke-width="0.20" />
  <path d="M 51.600 400.400 H 54.500 C 54.600 400.400 54.500 400.300 54.500 400.400 V 403.200 C 54.500 403.300 54.600 403.200 54.500 403.200 H 48.700 C 48.600 403.200 48.700 403.300 48.700 403.200 V 400.400 C 48.700 400.300 48.600 400.400 48.700 400.400 H 51.600 Z" stroke="rgb(0,0,255)" stroke-width="0.20" />
  <path d="M 39.600 400.400 H 42.500 C 42.600 400.400 42.500 400.300 42.500 400.400 V 403.200 C 42.500 403.300 42.600 403.200 42.500 403.200 H 36.700 C 36.600 403.200 36.700 403.300 36.700 403.200 V 400.400 C 36.700 400.300 36.600 400.400 36.700 400.400 H 39.600 Z" stroke="rgb(0,0,255)" stroke-width="0.20" />
  <path d="M 27.600 400.400 H 30.500 C 30.600 400.400 30.500 400.300 30.500 400.400 V 403.200 C 30.500 403.300 30.600 403.200 30.500 403.200 H 24.700 C 24.600 403.200 24.700 403.300 24.700 403.200 V 400.400 C 24.700 400.300 24.600 400.400 24.700 400.400 H 27.600 Z" stroke="rgb(0,0,255)" stroke-width="0.20" />
</g>
<g id="p-3" style="fill:none;stroke-linecap:round;stroke-linejoin:round;">
  <path d="M 13.100 347.700 H 24.500 C 24.600 347.700 24.500 347.600 24.500 347.700 V 350.600 C 24.500 350.655 24.545 350.700 24.600 350.700 H 30.600 C 30.655 350.700 30.700 350.655 30.700 350.600 V 347.700 C 30.700 347.600 30.600 347.700 30.700 347.700 H 36.500 C 36.600 347.700 36.500 347.600 36.500 347.700 V 350.600 C 36.500 350.655 36.545 350.700 36.600 350.700 H 42.600 C 42.655 350.700 42.700 350.655 42.700 350.600 V 347.700 C 42.700 347.600 42.600 347.700 42.700 347.700 H 48.500 C 48.600 347.700 48.500 347.600 48.500 347.700 V 350.600 C 48.500 350.655 48.545 350.700 48.600 350.700 H 54.600 C 54.655 350.700 54.700 350.655 54.700 350.600 V 347.700 C 54.700 347.600 54.600 347.700 54.700 347.700 H 60.500 C 60.600 347.700 60.500 347.600 60.500 347.700 V 350.600 C 60.500 350.655 60.545 350.700 60.600 350.700 H 66.600 C 66.655 350.700 66.700 350.655 66.700 350.600 V 347.700 C 66.700 347.600 66.600 347.700 66.700 347.700 H 72.500 C 72.600 347.700 72.500 347.600 72.500 347.700 V 350.600 C 72.500 350.655 72.545 350.700 72.600 350.700 H 78.600 C 78.655 350.700 78.700 350.655 78.700 350.600 V 347.700 C 78.700 347.600 78.600 347.700 78.700 347.700 H 84.500 C 84.600 347.700 84.500 347.600 84.500 347.700 V 350.600 C 84.500 350.655 84.545 350.700 84.600 350.700 H 90.600 C 90.655 350.700 90.700 350.655 90.700 350.600 V 347.700 C 90.700 347.600 90.600 347.700 90.700 347.700 H 96.500 C 96.600 347.700 96.500 347.600 96.500 347.700 V 350.600 C 96.500 350.655 96.545 350.700 96.600 350.700 H 102.600 C 102.655 350.700 102.700 350.655 102.700 350.600 V 347.700 C 102.700 347.600 102.600 347.700 102.700 347.700 H 108.500 C 108.600 347.700 108.500 347.600 108.500 347.700 V 350.600 C 108.500 350.655 108.545 350.700 108.600 350.700 H 114.600 C 114.655 350.700 114.700 350.655 114.700 350.600 V 347.700 C 114.700 347.600 114.600 347.700 114.700 347.700 H 120.500 C 120.600 347.700 120.500 347.600 120.500 347.700 V 350.600 C 120.500 350.655 120.545 350.700 120.600 350.700 H 126.600 C 126.655 350.700 126.700 350.655 126.700 350.600 V 347.700 C 126.700 347.600 126.600 347.700 126.700 347.700 H 132.500 C 132.600 347.700 132.500 347.600 132.500 347.700 V 350.600 C 132.500 350.655 132.545 350.700 132.600 350.700 H 138.600 C 138.655 350.700 138.700 350.655 138.700 350.600 V 347.700 C 138.700 347.600 138.600 347.700 138.700 347.700 H 144.500 C 144.600 347.700 144.500 347.600 144.500 347.700 V 350.600 C 144.500 350.655 144.545 350.700 144.600 350.700 H 150.600 C 150.655 350.700 150.700 350.655 150.700 350.600 V 347.700 C 150.700 347.600 150.600 347.700 150.700 347.700 H 156.500 C 156.600 347.700 156.500 347.600 156.500 347.700 V 350.600 C 156.500 350.655 156.545 350.700 156.600 350.700 H 162.600 C 162.655 350.700 162.700 350.655 162.700 350.600 V 347.700 C 162.700 347.600 162.600 347.700 162.700 347.700 H 168.500 C 168.600 347.700 168.500 347.600 168.500 347.700 V 350.600 C 168.500 350.655 168.545 350.700 168.600 350.700 H 174.600 C 174.655 350.700 174.700 350.655 174.700 350.600 V 347.700 C 174.700 347.600 174.600 347.700 174.700 347.700 H 180.500 C 180.600 347.700 180.500 347.600 180.500 347.700 V 350.600 C 180.500 350.655 180.545 350.700 180.600 350.700 H 186.600 C 186.655 350.700 186.700 350.655 186.700 350.600 V 347.700 C 186.700 347.600 186.600 347.700 186.700 347.700 H 192.500 C 192.600 347.700 192.500 347.600 192.500 347.700 V 350.600 C 192.500 350.655 192.545 350.700 192.600 350.700 H 198.600 C 198.655 350.700 198.700 350.655 198.700 350.600 V 347.700 C 198.700 347.600 198.600 347.700 198.700 347.700 H 210.100 C 210.155 347.700 210.200 347.655 210.200 347.600 V 339.700 C 210.200 339.600 210.100 339.700 210.200 339.700 H 213.100 C 213.155 339.700 213.200 339.655 213.200 339.600 V 333.600 C 213.200 333.545 213.155 333.500 213.100 333.500 H 210.200 C 210.100 333.500 210.200 333.600 210.200 333.500 V 327.700 C 210.200 327.600 210.100 327.700 210.200 327.700 H 213.100 C 213.155 327.700 213.200 327.655 213.200 327.600 V 321.600 C 213.200 321.545 213.155 321.500 213.100 321.500 H 210.200 C 210.100 321.500 210.200 321.600 210.200 321.500 V 315.700 C 210.200 315.600 210.100 315.700 210.200 315.700 H 213.100 C 213.155 315.700 213.200 315.655 213.200 315.600 V 309.600 C 213.200 309.545 213.155 309.500 213.100 309.500 H 210.200 C 210.100 309.500 210.200 309.600 210.200 309.500 V 303.700 C 210.200 303.600 210.100 303.700 210.200 303.700 H 213.100 C 213.155 303.700 213.200 303.655 213.200 303.600 V 297.600 C 213.200 297.545 213.155 297.500 213.100 297.500 H 210.200 C 210.100 297.500 210.200 297.600 210.200 297.500 V 291.700 C 210.200 291.600 210.100 291.700 210.200 291.700 H 213.100 C 213.155 291.700 213.200 291.655 213.200 291.600 V 285.600 C 213.200 285.545 213.155 285.500 213.100 285.500 H 210.200 C 210.100 285.500 210.200 285.600 210.200 285.500 V 279.700 C 210.200 279.600 210.100 279.700 210.200 279.700 H 213.100 C 213.155 279.700 213.200 279.655 213.200 279.600 V 273.600 C 213.200 273.545 213.155 273.500 213.100 273.500 H 210.200 C 210.100 273.500 210.200 273.600 210.200 273.500 V 267.700 C 210.200 267.600 210.100 267.700 210.200 267.700 H 213.100 C 213.155 267.700 213.200 267.655 213.200 267.600 V 261.600 C 213.200 261.545 213.155 261.500 213.100 261.500 H 210.200 C 210.100 261.500 210.200 261.600 210.200 261.500 V 253.600 C 210.200 253.545 210.155 253.500 210.100 253.500 H 198.700 C 198.600 253.500 198.700 253.600 198.700 253.500 V 250.600 C 198.700 250.545 198.655 250.500 198.600 250.500 H 192.600 C 192.545 250.500 192.500 250.545 192.500 250.600 V 253.500 C 192.500 253.600 192.600 253.500 192.500 253.500 H 186.700 C 186.600 253.500 186.700 253.600 186.700 253.500 V 250.600 C 186.700 250.545 186.655 250.500 186.600 250.500 H 180.600 C 180.545 250.500 180.500 250.545 180.500 250.600 V 253.500 C 180.500 253.600 180.600 253.500 180.500 253.500 H 174.700 C 174.600 253.500 174.700 253.600 174.700 253.500 V 250.600 C 174.700 250.545 174.655 250.500 174.600 250.500 H 168.600 C 168.545 250.500 168.500 250.545 168.500 250.600 V 253.500 C 168.500 253.600 168.600 253.500 168.500 253.500 H 162.700 C 162.600 253.500 162.700 253.600 162.700 253.500 V 250.600 C 162.700 250.545 162.655 250.500 162.600 250.500 H 156.600 C 156.545 250.500 156.500 250.545 156.500 250.600 V 253.500 C 156.500 253.600 156.600 253.500 156.500 253.500 H 150.700 C 150.600 253.500 150.700 253.600 150.700 253.500 V 250.600 C 150.700 250.545 150.655 250.500 150.600 250.500 H 144.600 C 144.545 250.500 144.500 250.545 144.500 250.600 V 253.500 C 144.500 253.600 144.600 253.500 144.500 253.500 H 138.700 C 138.600 253.500 138.700 253.600 138.700 253.500 V 250.600 C 138.700 250.545 138.655 250.500 138.600 250.500 H 132.600 C 132.545 250.500 132.500 250.545 132.500 250.600 V 253.500 C 132.500 253.600 132.600 253.500 132.500 253.500 H 126.700 C 126.600 253.500 126.700 253.600 126.700 253.500 V 250.600 C 126.700 250.545 126.655 250.500 126.600 250.500 H 120.600 C 120.545 250.500 120.500 250.545 120.500 250.600 V 253.500 C 120.500 253.600 120.600 253.500 120.500 253.500 H 114.700 C 114.600 253.500 114.700 253.600 114.700 253.500 V 250.600 C 114.700 250.545 114.655 250.500 114.600 250.500 H 108.600 C 108.545 250.500 108.500 250.545 108.500 250.600 V 253.500 C 108.500 253.600 108.600 253.500 108.500 253.500 H 102.700 C 102.600 253.500 102.700 253.600 102.700 253.500 V 250.600 C 102.700 250.545 102.655 250.500 102.600 250.500 H 96.600 C 96.545 250.500 96.500 250.545 96.500 250.600 V 253.500 C 96.500 253.600 96.600 253.500 96.500 253.500 H 90.700 C 90.600 253.500 90.700 253.600 90.700 253.500 V 250.600 C 90.700 250.545 90.655 250.500 90.600 250.500 H 84.600 C 84.545 250.500 84.500 250.545 84.500 250.600 V 253.500 C 84.500 253.600 84.600 253.500 84.500 253.500 H 78.700 C 78.600 253.500 78.700 253.600 78.700 253.500 V 250.600 C 78.700 250.545 78.655 250.500 78.600 250.500 H 72.600 C 72.545 250.500 72.500 250.545 72.500 250.600 V 253.500 C 72.500 253.600 72.600 253.500 72.500 253.500 H 66.700 C 66.600 253.500 66.700 253.600 66.700 253.500 V 250.600 C 66.700 250.545 66.655 250.500 66.600 250.500 H 60.600 C 60.545 250.500 60.500 250.545 60.500 250.600 V 253.500 C 60.500 253.600 60.600 253.500 60.500 253.500 H 54.700 C 54.600 253.500 54.700 253.600 54.700 253.500 V 250.600 C 54.700 250.545 54.655 250.500 54.600 250.500 H 48.600 C 48.545 250.500 48.500 250.545 48.500 250.600 V 253.500 C 48.500 253.600 48.600 253.500 48.500 253.500 H 42.700 C 42.600 253.500 42.700 253.600 42.700 253.500 V 250.600 C 42.700 250.545 42.655 250.500 42.600 250.500 H 36.600 C 36.545 250.500 36.500 250.545 36.500 250.600 V 253.500 C 36.500 253.600 36.600 253.500 36.500 253.500 H 30.700 C 30.600 253.500 30.700 253.600 30.700 253.500 V 250.600 C 30.700 250.545 30.655 250.500 30.600 250.500 H 24.600 C 24.545 250.500 24.500 250.545 24.500 250.600 V 253.500 C 24.500 253.600 24.600 253.500 24.500 253.500 H 13.100 H 10.100 C 10.045 253.500 10.000 253.545 10.000 253.600 V 347.600 C 10.000 347.655 10.045 347.700 10.100 347.700 H 13.100 Z" stroke="rgb(0,0,0)" stroke-width="0.20" />
</g>
<g id="p-4" style="fill:none;stroke-linecap:round;stroke-linejoin:round;">
  <path d="M 13.100 246.000 H 24.500 C 24.600 246.000 24.500 245.900 24.500 246.000 V 248.900 C 24.500 248.955 24.545 249.000 24.600 249.000 H 30.600 C 30.655 249.000 30.700 248.955 30.700 248.900 V 246.000 C 30.700 245.900 30.600 246.000 30.700 246.000 H 36.500 C 36.600 246.000 36.500 245.900 36.500 246.000 V 248.900 C 36.500 248.955 36.545 249.000 36.600 249.000 H 42.600 C 42.655 249.000 42.700 248.955 42.700 248.900 V 246.000 C 42.700 245.900 42.600 246.000 42.700 246.000 H 48.500 C 48.600 246.000 48.500 245.900 48.500 246.000 V 248.900 C 48.500 248.955 48.545 249.000 48.600 249.000 H 54.600 C 54.655 249.000 54.700 248.955 54.700 248.900 V 246.000 C 54.700 245.900 54.600 246.000 54.700 246.000 H 60.500 C 60.600 246.000 60.500 245.900 60.500 246.000 V 248.900 C 60.500 248.955 60.545 249.000 60.600 249.000 H 66.600 C 66.655 249.000 66.700 248.955 66.700 248.900 V 246.000 C 66.700 245.900 66.600 246.000 66.700 246.000 H 72.500 C 72.600 246.000 72.500 245.900 72.500 246.000 V 248.900 C 72.500 248.955 72.545 249.000 72.600 249.000 H 78.600 C 78.655 249.000 78.700 248.955 78.700 248.900 V 246.000 C 78.700 245.900 78.600 246.000 78.700 246.000 H 84.500 C 84.600 246.000 84.500 245.900 84.500 246.000 V 248.900 C 84.500 248.955 84.545 249.000 84.600 249.000 H 90.600 C 90.655 249.000 90.700 248.955 90.700 248.900 V 246.000 C 90.700 245.900 90.600 246.000 90.700 246.000 H 96.500 C 96.600 246.000 96.500 245.900 96.500 246.000 V 248.900 C 96.500 248.955 96.545 249.000 96.600 249.000 H 102.600 C 102.655 249.000 102.700 248.955 102.700 248.900 V 246.000 C 102.700 245.900 102.600 246.000 102.700 246.000 H 108.500 C 108.600 246.000 108.500 245.900 108.500 246.000 V 248.900 C 108.500 248.955 108.545 249.000 108.600 249.000 H 114.600 C 114.655 249.000 114.700 248.955 114.700 248.900 V 246.000 C 114.700 245.900 114.600 246.000 114.700 246.000 H 120.500 C 120.600 246.000 120.500 245.900 120.500 246.000 V 248.900 C 120.500 248.955 120.545 249.000 120.600 249.000 H 126.600 C 126.655 249.000 126.700 248.955 126.700 248.900 V 246.000 C 126.700 245.900 126.600 246.000 126.700 246.000 H 132.500 C 132.600 246.000 132.500 245.900 132.500 246.000 V 248.900 C 132.500 248.955 132.545 249.000 132.600 249.000 H 138.600 C 138.655 249.000 138.700 248.955 138.700 248.900 V 246.000 C 138.700 245.900 138.600 246.000 138.700 246.000 H 144.500 C 144.600 246.000 144.500 245.900 144.500 246.000 V 248.900 C 144.500 248.955 144.545 249.000 144.600 249.000 H 150.600 C 150.655 249.000 150.700 248.955 150.700 248.900 V 246.000 C 150.700 245.900 150.600 246.000 150.700 246.000 H 156.500 C 156.600 246.000 156.500 245.900 156.500 246.000 V 248.900 C 156.500 248.955 156.545 249.000 156.600 249.000 H 162.600 C 162.655 249.000 162.700 248.955 162.700 248.900 V 246.000 C 162.700 245.900 162.600 246.000 162.700 246.000 H 168.500 C 168.600 246.000 168.500 245.900 168.500 246.000 V 248.900 C 168.500 248.955 168.545 249.000 168.600 249.000 H 174.600 C 174.655 249.000 174.700 248.955 174.700 248.900 V 246.000 C 174.700 245.900 174.600 246.000 174.700 246.000 H 180.500 C 180.600 246.000 180.500 245.900 180.500 246.000 V 248.900 C 180.500 248.955 180.545 249.000 180.600 249.000 H 186.600 C 186.655 249.000 186.700 248.955 186.700 248.900 V 246.000 C 186.700 245.900 186.600 246.000 186.700 246.000 H 192.500 C 192.600 246.000 192.500 245.900 192.500 246.000 V 248.900 C 192.500 248.955 192.545 249.000 192.600 249.000 H 198.600 C 198.655 249.000 198.700 248.955 198.700 248.900 V 246.000 C 198.700 245.900 198.600 246.000 198.700 246.000 H 210.100 C 210.155 246.000 210.200 245.955 210.200 245.900 V 238.000 C 210.200 237.900 210.100 238.000 210.200 238.000 H 213.100 C 213.155 238.000 213.200 237.955 213.200 237.900 V 231.900 C 213.200 231.845 213.155 231.800 213.100 231.800 H 210.200 C 210.100 231.800 210.200 231.900 210.200 231.800 V 226.000 C 210.200 225.900 210.100 226.000 210.200 226.000 H 213.100 C 213.155 226.000 213.200 225.955 213.200 225.900 V 219.900 C 213.200 219.845 213.155 219.800 213.100 219.800 H 210.200 C 210.100 219.800 210.200 219.900 210.200 219.800 V 214.000 C 210.200 213.900 210.100 214.000 210.200 214.000 H 213.100 C 213.155 214.000 213.200 213.955 213.200 213.900 V 207.900 C 213.200 207.845 213.155 207.800 213.100 207.800 H 210.200 C 210.100 207.800 210.200 207.900 210.200 207.800 V 202.000 C 210.200 201.900 210.100 202.000 210.200 202.000 H 213.100 C 213.155 202.000 213.200 201.955 213.200 201.900 V 195.900 C 213.200 195.845 213.155 195.800 213.100 195.800 H 210.200 C 210.100 195.800 210.200 195.900 210.200 195.800 V 190.000 C 210.200 189.900 210.100 190.000 210.200 190.000 H 213.100 C 213.155 190.000 213.200 189.955 213.200 189.900 V 183.900 C 213.200 183.845 213.155 183.800 213.100 183.800 H 210.200 C 210.100 183.800 210.200 183.900 210.200 183.800 V 178.000 C 210.200 177.900 210.100 178.000 210.200 178.000 H 213.100 C 213.155 178.000 213.200 177.955 213.200 177.900 V 171.900 C 213.200 171.845 213.155 171.800 213.100 171.800 H 210.200 C 210.100 171.800 210.200 171.900 210.200 171.800 V 166.000 C 210.200 165.900 210.100 166.000 210.200 166.000 H 213.100 C 213.155 166.000 213.200 165.955 213.200 165.900 V 159.900 C 213.200 159.845 213.155 159.800 213.100 159.800 H 210.200 C 210.100 159.800 210.200 159.900 210.200 159.800 V 151.900 C 210.200 151.845 210.155 151.800 210.100 151.800 H 198.700 C 198.600 151.800 198.700 151.900 198.700 151.800 V 148.900 C 198.700 148.845 198.655 148.800 198.600 148.800 H 192.600 C 192.545 148.800 192.500 148.845 192.500 148.900 V 151.800 C 192.500 151.900 192.600 151.800 192.500 151.800 H 186.700 C 186.600 151.800 186.700 151.900 186.700 151.800 V 148.900 C 186.700 148.845 186.655 148.800 186.600 148.800 H 180.600 C 180.545 148.800 180.500 148.845 180.500 148.900 V 151.800 C 180.500 151.900 180.600 151.800 180.500 151.800 H 174.700 C 174.600 151.800 174.700 151.900 174.700 151.800 V 148.900 C 174.700 148.845 174.655 148.800 174.600 148.800 H 168.600 C 168.545 148.800 168.500 148.845 168.500 148.900 V 151.800 C 168.500 151.900 168.600 151.800 168.500 151.800 H 162.700 C 162.600 151.800 162.700 151.900 162.700 151.800 V 148.900 C 162.700 148.845 162.655 148.800 162.600 148.800 H 156.600 C 156.545 148.800 156.500 148.845 156.500 148.900 V 151.800 C 156.500 151.900 156.600 151.800 156.500 151.800 H 150.700 C 150.600 151.800 150.700 151.900 150.700 151.800 V 148.900 C 150.700 148.845 150.655 148.800 150.600 148.800 H 144.600 C 144.545 148.800 144.500 148.845 144.500 148.900 V 151.800 C 144.500 151.900 144.600 151.800 144.500 151.800 H 138.700 C 138.600 151.800 138.700 151.900 138.700 151.800 V 148.900 C 138.700 148.845 138.655 148.800 138.600 148.800 H 132.600 C 132.545 148.800 132.500 148.845 132.500 148.900 V 151.800 C 132.500 151.900 132.600 151.800 132.500 151.800 H 126.700 C 126.600 151.800 126.700 151.900 126.700 151.800 V 148.900 C 126.700 148.845 126.655 148.800 126.600 148.800 H 120.600 C 120.545 148.800 120.500 148.845 120.500 148.900 V 151.800 C 120.500 151.900 120.600 151.800 120.500 151.800 H 114.700 C 114.600 151.800 114.700 151.900 114.700 151.800 V 148.900 C 114.700 148.845 114.655 148.800 114.600 148.800 H 108.600 C 108.545 148.800 108.500 148.845 108.500 148.900 V 151.800 C 108.500 151.900 108.600 151.800 108.500 151.800 H 102.700 C 102.600 151.800 102.700 151.900 102.700 151.800 V 148.900 C 102.700 148.845 102.655 148.800 102.600 148.800 H 96.600 C 96.545 148.800 96.500 148.845 96.500 148.900 V 151.800 C 96.500 151.900 96.600 151.800 96.500 151.800 H 90.700 C 90.600 151.800 90.700 151.900 90.700 151.800 V 148.900 C 90.700 148.845 90.655 148.800 90.600 148.800 H 84.600 C 84.545 148.800 84.500 148.845 84.500 148.900 V 151.800 C 84.500 151.900 84.600 151.800 84.500 151.800 H 78.700 C 78.600 151.800 78.700 151.900 78.700 151.800 V 148.900 C 78.700 148.845 78.655 148.800 78.600 148.800 H 72.600 C 72.545 148.800 72.500 148.845 72.500 148.900 V 151.800 C 72.500 151.900 72.600 151.800 72.500 151.800 H 66.700 C 66.600 151.800 66.700 151.900 66.700 151.800 V 148.900 C 66.700 148.845 66.655 148.800 66.600 148.800 H 60.600 C 60.545 148.800 60.500 148.845 60.500 148.900 V 151.800 C 60.500 151.900 60.600 151.800 60.500 151.800 H 54.700 C 54.600 151.800 54.700 151.900 54.700 151.800 V 148.900 C 54.700 148.845 54.655 148.800 54.600 148.800 H 48.600 C 48.545 148.800 48.500 148.845 48.500 148.900 V 151.800 C 48.500 151.900 48.600 151.800 48.500 151.800 H 42.700 C 42.600 151.800 42.700 151.900 42.700 151.800 V 148.900 C 42.700 148.845 42.655 148.800 42.600 148.800 H 36.600 C 36.545 148.800 36.500 148.845 36.500 148.900 V 151.800 C 36.500 151.900 36.600 151.800 36.500 151.800 H 30.700 C 30.600 151.800 30.700 151.900 30.700 151.800 V 148.900 C 30.700 148.845 30.655 148.800 30.600 148.800 H 24.600 C 24.545 148.800 24.500 148.845 24.500 148.900 V 151.800 C 24.500 151.900 24.600 151.800 24.500 151.800 H 13.100 H 10.100 C 10.045 151.800 10.000 151.845 10.000 151.900 V 245.900 C 10.000 245.955 10.045 246.000 10.100 246.000 H 13.100 Z" stroke="rgb(0,0,0)" stroke-width="0.20" />
</g>
<g id="p-5" style="fill:none;stroke-linecap:round;stroke-linejoin:round;">
  <path d="M 10.100 144.300 H 21.500 C 21.600 144.300 21.500 144.200 21.500 144.300 V 147.200 C 21.500 147.255 21.545 147.300 21.600 147.300 H 27.600 C 27.655 147.300 27.700 147.255 27.700 147.200 V 144.300 C 27.700 144.200 27.600 144.300 27.700 144.300 H 33.500 C 33.600 144.300 33.500 144.200 33.500 144.300 V 147.200 C 33.500 147.255 33.545 147.300 33.600 147.300 H 39.600 C 39.655 147.300 39.700 147.255 39.700 147.200 V 144.300 C 39.700 144.200 39.600 144.300 39.700 144.300 H 45.500 C 45.600 144.300 45.500 144.200 45.500 144.300 V 147.200 C 45.500 147.255 45.545 147.300 45.600 147.300 H 51.600 C 51.655 147.300 51.700 147.255 51.700 147.200 V 144.300 C 51.700 144.200 51.600 144.300 51.700 144.300 H 57.500 C 57.600 144.300 57.500 144.200 57.500 144.300 V 147.200 C 57.500 147.255 57.545 147.300 57.600 147.300 H 63.600 C 63.655 147.300 63.700 147.255 63.700 147.200 V 144.300 C 63.700 144.200 63.600 144.300 63.700 144.300 H 69.500 C 69.600 144.300 69.500 144.200 69.500 144.300 V 147.200 C 69.500 147.255 69.545 147.300 69.600 147.300 H 75.600 C 75.655 147.300 75.700 147.255 75.700 147.200 V 144.300 C 75.700 144.200 75.600 144.300 75.700 144.300 H 81.500 C 81.600 144.300 81.500 144.200 81.500 144.300 V 147.200 C 81.500 147.255 81.545 147.300 81.600 147.300 H 87.600 C 87.655 147.300 87.700 147.255 87.700 147.200 V 144.300 C 87.700 144.200 87.600 144.300 87.700 144.300 H 93.500 C 93.600 144.300 93.500 144.200 93.500 144.300 V 147.200 C 93.500 147.255 93.545 147.300 93.600 147.300 H 99.600 C 99.655 147.300 99.700 147.255 99.700 147.200 V 144.300 C 99.700 144.200 99.600 144.300 99.700 144.300 H 105.500 C 105.600 144.300 105.500 144.200 105.500 144.300 V 147.200 C 105.500 147.255 105.545 147.300 105.600 147.300 H 111.600 C 111.655 147.300 111.700 147.255 111.700 147.200 V 144.300 C 111.700 144.200 111.600 144.300 111.700 144.300 H 117.500 C 117.600 144.300 117.500 144.200 117.500 144.300 V 147.200 C 117.500 147.255 117.545 147.300 117.600 147.300 H 123.600 C 123.655 147.300 123.700 147.255 123.700 147.200 V 144.300 C 123.700 144.200 123.600 144.300 123.700 144.300 H 129.500 C 129.600 144.300 129.500 144.200 129.500 144.300 V 147.200 C 129.500 147.255 129.545 147.300 129.600 147.300 H 135.600 C 135.655 147.300 135.700 147.255 135.700 147.200 V 144.300 C 135.700 144.200 135.600 144.300 135.700 144.300 H 141.500 C 141.600 144.300 141.500 144.200 141.500 144.300 V 147.200 C 141.500 147.255 141.545 147.300 141.600 147.300 H 147.600 C 147.655 147.300 147.700 147.255 147.700 147.200 V 144.300 C 147.700 144.200 147.600 144.300 147.700 144.300 H 153.500 C 153.600 144.300 153.500 144.200 153.500 144.300 V 147.200 C 153.500 147.255 153.545 147.300 153.600 147.300 H 159.600 C 159.655 147.300 159.700 147.255 159.700 147.200 V 144.300 C 159.700 144.200 159.600 144.300 159.700 144.300 H 165.500 C 165.600 144.300 165.500 144.200 165.500 144.300 V 147.200 C 165.500 147.255 165.545 147.300 165.600 147.300 H 171.600 C 171.655 147.300 171.700 147.255 171.700 147.200 V 144.300 C 171.700 144.200 171.600 144.300 171.700 144.300 H 177.500 C 177.600 144.300 177.500 144.200 177.500 144.300 V 147.200 C 177.500 147.255 177.545 147.300 177.600 147.300 H 183.600 C 183.655 147.300 183.700 147.255 183.700 147.200 V 144.300 C 183.700 144.200 183.600 144.300 183.700 144.300 H 189.500 C 189.600 144.300 189.500 144.200 189.500 144.300 V 147.200 C 189.500 147.255 189.545 147.300 189.600 147.300 H 195.600 C 195.655 147.300 195.700 147.255 195.700 147.200 V 144.300 C 195.700 144.200 195.600 144.300 195.700 144.300 H 207.100 C 207.155 144.300 207.200 144.255 207.200 144.200 V 138.300 C 207.200 138.200 207.100 138.300 207.200 138.300 H 210.100 C 210.155 138.300 210.200 138.255 210.200 138.200 V 132.200 C 210.200 132.145 210.155 132.100 210.100 132.100 H 207.200 C 207.100 132.100 207.200 132.200 207.200 132.100 V 126.300 C 207.200 126.200 207.100 126.300 207.200 126.300 H 210.100 C 210.155 126.300 210.200 126.255 210.200 126.200 V 120.200 C 210.200 120.145 210.155 120.100 210.100 120.100 H 207.200 C 207.100 120.100 207.200 120.200 207.200 120.100 V 114.200 C 207.200 114.145 207.155 114.100 207.100 114.100 H 10.100 C 10.045 114.100 10.000 114.145 10.000 114.200 V 144.200 C 10.000 144.255 10.045 144.300 10.100 144.300 Z" stroke="rgb(0,0,0)" stroke-width="0.20" />
</g>
<g id="p-6" style="fill:none;stroke-linecap:round;stroke-linejoin:round;">
  <path d="M 13.100 109.600 H 24.500 C 24.600 109.600 24.500 109.500 24.500 109.600 V 112.500 C 24.500 112.555 24.545 112.600 24.600 112.600 H 30.600 C 30.655 112.600 30.700 112.555 30.700 112.500 V 109.600 C 30.700 109.500 30.600 109.600 30.700 109.600 H 36.500 C 36.600 109.600 36.500 109.500 36.500 109.600 V 112.500 C 36.500 112.555 36.545 112.600 36.600 112.600 H 42.600 C 42.655 112.600 42.700 112.555 42.700 112.500 V 109.600 C 42.700 109.500 42.600 109.600 42.700 109.600 H 48.500 C 48.600 109.600 48.500 109.500 48.500 109.600 V 112.500 C 48.500 112.555 48.545 112.600 48.600 112.600 H 54.600 C 54.655 112.600 54.700 112.555 54.700 112.500 V 109.600 C 54.700 109.500 54.600 109.600 54.700 109.600 H 60.500 C 60.600 109.600 60.500 109.500 60.500 109.600 V 112.500 C 60.500 112.555 60.545 112.600 60.600 112.600 H 66.600 C 66.655 112.600 66.700 112.555 66.700 112.500 V 109.600 C 66.700 109.500 66.600 109.600 66.700 109.600 H 72.500 C 72.600 109.600 72.500 109.500 72.500 109.600 V 112.500 C 72.500 112.555 72.545 112.600 72.600 112.600 H 78.600 C 78.655 112.600 78.700 112.555 78.700 112.500 V 109.600 C 78.700 109.500 78.600 109.600 78.700 109.600 H 84.500 C 84.600 109.600 84.500 109.500 84.500 109.600 V 112.500 C 84.500 112.555 84.545 112.600 84.600 112.600 H 90.600 C 90.655 112.600 90.700 112.555 90.700 112.500 V 109.600 C 90.700 109.500 90.600 109.600 90.700 109.600 H 96.500 C 96.600 109.600 96.500 109.500 96.500 109.600 V 112.500 C 96.500 112.555 96.545 112.600 96.600 112.600 H 102.600 C 102.655 112.600 102.700 112.555 102.700 112.500 V 109.600 C 102.700 109.500 102.600 109.600 102.700 109.600 H 108.500 C 108.600 109.600 108.500 109.500 108.500 109.600 V 112.500 C 108.500 112.555 108.545 112.600 108.600 112.600 H 114.600 C 114.655 112.600 114.700 112.555 114.700 112.500 V 109.600 C 114.700 109.500 114.600 109.600 114.700 109.600 H 120.500 C 120.600 109.600 120.500 109.500 120.500 109.600 V 112.500 C 120.500 112.555 120.545 112.600 120.600 112.600 H 126.600 C 126.655 112.600 126.700 112.555 126.700 112.500 V 109.600 C 126.700 109.500 126.600 109.600 126.700 109.600 H 132.500 C 132.600 109.600 132.500 109.500 132.500 109.600 V 112.500 C 132.500 112.555 132.545 112.600 132.600 112.600 H 138.600 C 138.655 112.600 138.700 112.555 138.700 112.500 V 109.600 C 138.700 109.500 138.600 109.600 138.700 109.600 H 144.500 C 144.600 109.600 144.500 109.500 144.500 109.600 V 112.500 C 144.500 112.555 144.545 112.600 144.600 112.600 H 150.600 C 150.655 112.600 150.700 112.555 150.700 112.500 V 109.600 C 150.700 109.500 150.600 109.600 150.700 109.600 H 156.500 C 156.600 109.600 156.500 109.500 156.500 109.600 V 112.500 C 156.500 112.555 156.545 112.600 156.600 112.600 H 162.600 C 162.655 112.600 162.700 112.555 162.700 112.500 V 109.600 C 162.700 109.500 162.600 109.600 162.700 109.600 H 168.500 C 168.600 109.600 168.500 109.500 168.500 109.600 V 112.500 C 168.500 112.555 168.545 112.600 168.600 112.600 H 174.600 C 174.655 112.600 174.700 112.555 174.700 112.500 V 109.600 C 174.700 109.500 174.600 109.600 174.700 109.600 H 180.500 C 180.600 109.600 180.500 109.500 180.500 109.600 V 112.500 C 180.500 112.555 180.545 112.600 180.600 112.600 H 186.600 C 186.655 112.600 186.700 112.555 186.700 112.500 V 109.600 C 186.700 109.500 186.600 109.600 186.700 109.600 H 192.500 C 192.600 109.600 192.500 109.500 192.500 109.600 V 112.500 C 192.500 112.555 192.545 112.600 192.600 112.600 H 198.600 C 198.655 112.600 198.700 112.555 198.700 112.500 V 109.600 C 198.700 109.500 198.600 109.600 198.700 109.600 H 210.100 C 210.155 109.600 210.200 109.555 210.200 109.500 V 79.500 C 210.200 79.445 210.155 79.400 210.100 79.400 H 13.100 C 13.045 79.400 13.000 79.445 13.000 79.500 V 85.400 C 13.000 85.500 13.100 85.400 13.000 85.400 H 10.100 C 10.045 85.400 10.000 85.445 10.000 85.500 V 91.500 C 10.000 91.555 10.045 91.600 10.100 91.600 H 13.000 C 13.100 91.600 13.000 91.500 13.000 91.600 V 97.400 C 13.000 97.500 13.100 97.400 13.000 97.400 H 10.100 C 10.045 97.400 10.000 97.445 10.000 97.500 V 103.500 C 10.000 103.555 10.045 103.600 10.100 103.600 H 13.000 C 13.100 103.600 13.000 103.500 13.000 103.600 V 109.500 C 13.000 109.555 13.045 109.600 13.100 109.600 Z" stroke="rgb(0,0,0)" stroke-width="0.20" />
</g>
<g id="p-7" style="fill:none;stroke-linecap:round;stroke-linejoin:round;">
  <path d="M 10.100 74.900 H 21.500 C 21.600 74.900 21.500 74.800 21.500 74.900 V 77.800 C 21.500 77.855 21.545 77.900 21.600 77.900 H 27.600 C 27.655 77.900 27.700 77.855 27.700 77.800 V 74.900 C 27.700 74.800 27.600 74.900 27.700 74.900 H 33.500 C 33.600 74.900 33.500 74.800 33.500 74.900 V 77.800 C 33.500 77.855 33.545 77.900 33.600 77.900 H 39.600 C 39.655 77.900 39.700 77.855 39.700 77.800 V 74.900 C 39.700 74.800 39.600 74.900 39.700 74.900 H 45.500 C 45.600 74.900 45.500 74.800 45.500 74.900 V 77.800 C 45.500 77.855 45.545 77.900 45.600 77.900 H 51.600 C 51.655 77.900 51.700 77.855 51.700 77.800 V 74.900 C 51.700 74.800 51.600 74.900 51.700 74.900 H 57.500 C 57.600 74.900 57.500 74.800 57.500 74.900 V 77.800 C 57.500 77.855 57.545 77.900 57.600 77.900 H 63.600 C 63.655 77.900 63.700 77.855 63.700 77.800 V 74.900 C 63.700 74.800 63.600 74.900 63.700 74.900 H 69.500 C 69.600 74.900 69.500 74.800 69.500 74.900 V 77.800 C 69.500 77.855 69.545 77.900 69.600 77.900 H 75.600 C 75.655 77.900 75.700 77.855 75.700 77.800 V 74.900 C 75.700 74.800 75.600 74.900 75.700 74.900 H 81.500 C 81.600 74.900 81.500 74.800 81.500 74.900 V 77.800 C 81.500 77.855 81.545 77.900 81.600 77.900 H 87.600 C 87.655 77.900 87.700 77.855 87.700 77.800 V 74.900 C 87.700 74.800 87.600 74.900 87.700 74.900 H 93.500 C 93.600 74.900 93.500 74.800 93.500 74.900 V 77.800 C 93.500 77.855 93.545 77.900 93.600 77.900 H 99.600 C 99.655 77.900 99.700 77.855 99.700 77.800 V 74.900 C 99.700 74.800 99.600 74.900 99.700 74.900 H 105.500 C 105.600 74.900 105.500 74.800 105.500 74.900 V 77.800 C 105.500 77.855 105.545 77.900 105.600 77.900 H 111.600 C 111.655 77.900 111.700 77.855 111.700 77.800 V 74.900 C 111.700 74.800 111.600 74.900 111.700 74.900 H 117.500 C 117.600 74.900 117.500 74.800 117.500 74.900 V 77.800 C 117.500 77.855 117.545 77.900 117.600 77.900 H 123.600 C 123.655 77.900 123.700 77.855 123.700 77.800 V 74.900 C 123.700 74.800 123.600 74.900 123.700 74.900 H 129.500 C 129.600 74.900 129.500 74.800 129.500 74.900 V 77.800 C 129.500 77.855 129.545 77.900 129.600 77.900 H 135.600 C 135.655 77.900 135.700 77.855 135.700 77.800 V 74.900 C 135.700 74.800 135.600 74.900 135.700 74.900 H 141.500 C 141.600 74.900 141.500 74.800 141.500 74.900 V 77.800 C 141.500 77.855 141.545 77.900 141.600 77.900 H 147.600 C 147.655 77.900 147.700 77.855 147.700 77.800 V 74.900 C 147.700 74.800 147.600 74.900 147.700 74.900 H 153.500 C 153.600 74.900 153.500 74.800 153.500 74.900 V 77.800 C 153.500 77.855 153.545 77.900 153.600 77.900 H 159.600 C 159.655 77.900 159.700 77.855 159.700 77.800 V 74.900 C 159.700 74.800 159.600 74.900 159.700 74.900 H 165.500 C 165.600 74.900 165.500 74.800 165.500 74.900 V 77.800 C 165.500 77.855 165.545 77.900 165.600 77.900 H 171.600 C 171.655 77.900 171.700 77.855 171.700 77.800 V 74.900 C 171.700 74.800 171.600 74.900 171.700 74.900 H 177.500 C 177.600 74.900 177.500 74.800 177.500 74.900 V 77.800 C 177.500 77.855 177.545 77.900 177.600 77.900 H 183.600 C 183.655 77.900 183.700 77.855 183.700 77.800 V 74.900 C 183.700 74.800 183.600 74.900 183.700 74.900 H 189.500 C 189.600 74.900 189.500 74.800 189.500 74.900 V 77.800 C 189.500 77.855 189.545 77.900 189.600 77.900 H 195.600 C 195.655 77.900 195.700 77.855 195.700 77.800 V 74.900 C 195.700 74.800 195.600 74.900 195.700 74.900 H 207.100 C 207.155 74.900 207.200 74.855 207.200 74.800 V 68.900 C 207.200 68.800 207.100 68.900 207.200 68.900 H 210.100 C 210.155 68.900 210.200 68.855 210.200 68.800 V 62.800 C 210.200 62.745 210.155 62.700 210.100 62.700 H 207.200 C 207.100 62.700 207.200 62.800 207.200 62.700 V 56.900 C 207.200 56.800 207.100 56.900 207.200 56.900 H 210.100 C 210.155 56.900 210.200 56.855 210.200 56.800 V 50.800 C 210.200 50.745 210.155 50.700 210.100 50.700 H 207.200 C 207.100 50.700 207.200 50.800 207.200 50.700 V 44.800 C 207.200 44.745 207.155 44.700 207.100 44.700 H 10.100 C 10.045 44.700 10.000 44.745 10.000 44.800 V 74.800 C 10.000 74.855 10.045 74.900 10.100 74.900 Z" stroke="rgb(0,0,0)" stroke-width="0.20" />
</g>
<g id="p-8" style="fill:none;stroke-linecap:round;stroke-linejoin:round;">
  <path d="M 13.100 40.200 H 24.500 C 24.600 40.200 24.500 40.100 24.500 40.200 V 43.100 C 24.500 43.155 24.545 43.200 24.600 43.200 H 30.600 C 30.655 43.200 30.700 43.155 30.700 43.100 V 40.200 C 30.700 40.100 30.600 40.200 30.700 40.200 H 36.500 C 36.600 40.200 36.500 40.100 36.500 40.200 V 43.100 C 36.500 43.155 36.545 43.200 36.600 43.200 H 42.600 C 42.655 43.200 42.700 43.155 42.700 43.100 V 40.200 C 42.700 40.100 42.600 40.200 42.700 40.200 H 48.500 C 48.600 40.200 48.500 40.100 48.500 40.200 V 43.100 C 48.500 43.155 48.545 43.200 48.600 43.200 H 54.600 C 54.655 43.200 54.700 43.155 54.700 43.100 V 40.200 C 54.700 40.100 54.600 40.200 54.700 40.200 H 60.500 C 60.600 40.200 60.500 40.100 60.500 40.200 V 43.100 C 60.500 43.155 60.545 43.200 60.600 43.200 H 66.600 C 66.655 43.200 66.700 43.155 66.700 43.100 V 40.200 C 66.700 40.100 66.600 40.200 66.700 40.200 H 72.500 C 72.600 40.200 72.500 40.100 72.500 40.200 V 43.100 C 72.500 43.155 72.545 43.200 72.600 43.200 H 78.600 C 78.655 43.200 78.700 43.155 78.700 43.100 V 40.200 C 78.700 40.100 78.600 40.200 78.700 40.200 H 84.500 C 84.600 40.200 84.500 40.100 84.500 40.200 V 43.100 C 84.500 43.155 84.545 43.200 84.600 43.200 H 90.600 C 90.655 43.200 90.700 43.155 90.700 43.100 V 40.200 C 90.700 40.100 90.600 40.200 90.700 40.200 H 96.500 C 96.600 40.200 96.500 40.100 96.500 40.200 V 43.100 C 96.500 43.155 96.545 43.200 96.600 43.200 H 102.600 C 102.655 43.200 102.700 43.155 102.700 43.100 V 40.200 C 102.700 40.100 102.600 40.200 102.700 40.200 H 108.500 C 108.600 40.200 108.500 40.100 108.500 40.200 V 43.100 C 108.500 43.155 108.545 43.200 108.600 43.200 H 114.600 C 114.655 43.200 114.700 43.155 114.700 43.100 V 40.200 C 114.700 40.100 114.600 40.200 114.700 40.200 H 120.500 C 120.600 40.200 120.500 40.100 120.500 40.200 V 43.100 C 120.500 43.155 120.545 43.200 120.600 43.200 H 126.600 C 126.655 43.200 126.700 43.155 126.700 43.100 V 40.200 C 126.700 40.100 126.600 40.200 126.700 40.200 H 132.500 C 132.600 40.200 132.500 40.100 132.500 40.200 V 43.100 C 132.500 43.155 132.545 43.200 132.600 43.200 H 138.600 C 138.655 43.200 138.700 43.155 138.700 43.100 V 40.200 C 138.700 40.100 138.600 40.200 138.700 40.200 H 144.500 C 144.600 40.200 144.500 40.100 144.500 40.200 V 43.100 C 144.500 43.155 144.545 43.200 144.600 43.200 H 150.600 C 150.655 43.200 150.700 43.155 150.700 43.100 V 40.200 C 150.700 40.100 150.600 40.200 150.700 40.200 H 156.500 C 156.600 40.200 156.500 40.100 156.500 40.200 V 43.100 C 156.500 43.155 156.545 43.200 156.600 43.200 H 162.600 C 162.655 43.200 162.700 43.155 162.700 43.100 V 40.200 C 162.700 40.100 162.600 40.200 162.700 40.200 H 168.500 C 168.600 40.200 168.500 40.100 168.500 40.200 V 43.100 C 168.500 43.155 168.545 43.200 168.600 43.200 H 174.600 C 174.655 43.200 174.700 43.155 174.700 43.100 V 40.200 C 174.700 40.100 174.600 40.200 174.700 40.200 H 180.500 C 180.600 40.200 180.500 40.100 180.500 40.200 V 43.100 C 180.500 43.155 180.545 43.200 180.600 43.200 H 186.600 C 186.655 43.200 186.700 43.155 186.700 43.100 V 40.200 C 186.700 40.100 186.600 40.200 186.700 40.200 H 192.500 C 192.600 40.200 192.500 40.100 192.500 40.200 V 43.100 C 192.500 43.155 192.545 43.200 192.600 43.200 H 198.600 C 198.655 43.200 198.700 43.155 198.700 43.100 V 40.200 C 198.700 40.100 198.600 40.200 198.700 40.200 H 210.100 C 210.155 40.200 210.200 40.155 210.200 40.100 V 10.100 C 210.200 10.045 210.155 10.000 210.100 10.000 H 13.100 C 13.045 10.000 13.000 10.045 13.000 10.100 V 16.000 C 13.000 16.100 13.100 16.000 13.000 16.000 H 10.100 C 10.045 16.000 10.000 16.045 10.000 16.100 V 22.100 C 10.000 22.155 10.045 22.200 10.100 22.200 H 13.000 C 13.100 22.200 13.000 22.100 13.000 22.200 V 28.000 C 13.000 28.100 13.100 28.000 13.000 28.000 H 10.100 C 10.045 28.000 10.000 28.045 10.000 28.100 V 34.100 C 10.000 34.155 10.045 34.200 10.100 34.200 H 13.000 C 13.100 34.200 13.000 34.100 13.000 34.200 V 40.100 C 13.000 40.155 13.045 40.200 13.100 40.200 Z" stroke="rgb(0,0,0)" stroke-width="0.20" />
</g>
<g id="p-9" style="fill:none;stroke-linecap:round;stroke-linejoin:round;">
  <path d="M 226.800 602.900 H 223.900 C 223.800 602.900 223.900 603.000 223.900 602.900 V 600.100 C 223.900 600.000 223.800 600.100 223.900 600.100 H 229.700 C 229.800 600.100 229.700 600.000 229.700 600.100 V 602.900 C 229.700 603.000 229.800 602.900 229.700 602.900 H 226.800 Z" stroke="rgb(0,0,255)" stroke-width="0.20" />
  <path d="M 238.800 602.900 H 235.900 C 235.800 602.900 235.900 603.000 235.900 602.900 V 600.100 C 235.900 600.000 235.800 600.100 235.900 600.100 H 241.700 C 241.800 600.100 241.700 600.000 241.700 600.100 V 602.900 C 241.700 603.000 241.800 602.900 241.700 602.900 H 238.800 Z" stroke="rgb(0,0,255)" stroke-width="0.20" />
  <path d="M 302.800 600.100 H 305.700 C 305.800 600.100 305.700 600.000 305.700 600.100 V 602.900 C 305.700 603.000 305.800 602.900 305.700 602.900 H 299.900 C 299.800 602.900 299.900 603.000 299.900 602.900 V 600.100 C 299.900 600.000 299.800 600.100 299.900 600.100 H 302.800 Z" stroke="rgb(0,0,255)" stroke-width="0.20" />
  <path d="M 290.800 600.100 H 293.700 C 293.800 600.100 293.700 600.000 293.700 600.100 V 602.900 C 293.700 603.000 293.800 602.900 293.700 602.900 H 287.900 C 287.800 602.900 287.900 603.000 287.900 602.900 V 600.100 C 287.900 600.000 287.800 600.100 287.900 600.100 H 290.800 Z" stroke="rgb(0,0,255)" stroke-width="0.20" />
  <path d="M 226.800 554.900 H 223.900 C 223.800 554.900 223.900 555.000 223.900 554.900 V 552.100 C 223.900 552.000 223.800 552.100 223.900 552.100 H 229.700 C 229.800 552.100 229.700 552.000 229.700 552.100 V 554.900 C 229.700 555.000 229.800 554.900 229.700 554.900 H 226.800 Z" stroke="rgb(0,0,255)" stroke-width="0.20" />
  <path d="M 238.800 554.900 H 235.900 C 235.800 554.900 235.900 555.000 235.900 554.900 V 552.100 C 235.900 552.000 235.800 552.100 235.900 552.100 H 241.700 C 241.800 552.100 241.700 552.000 241.700 552.100 V 554.900 C 241.700 555.000 241.800 554.900 241.700 554.900 H 238.800 Z" stroke="rgb(0,0,255)" stroke-width="0.20" />
  <path d="M 302.800 552.100 H 305.700 C 305.800 552.100 305.700 552.000 305.700 552.100 V 554.900 C 305.700 555.000 305.800 554.900 305.700 554.900 H 299.900 C 299.800 554.900 299.900 555.000 299.900 554.900 V 552.100 C 299.900 552.000 299.800 552.100 299.900 552.100 H 302.800 Z" stroke="rgb(0,0,255)" stroke-width="0.20" />
  <path d="M 290.800 552.100 H 293.700 C 293.800 552.100 293.700 552.000 293.700 552.100 V 554.900 C 293.700 555.000 293.800 554.900 293.700 554.900 H 287.900 C 287.800 554.900 287.900 555.000 287.900 554.900 V 552.100 C 287.900 552.000 287.800 552.100 287.900 552.100 H 290.800 Z" stroke="rgb(0,0,255)" stroke-width="0.20" />
  <path d="M 228.800 650.900 H 225.900 C 225.800 650.900 225.900 651.000 225.900 650.900 V 648.100 C 225.900 648.000 225.800 648.100 225.900 648.100 H 231.700 C 231.800 648.100 231.700 648.000 231.700 648.100 V 650.900 C 231.700 651.000 231.800 650.900 231.700 650.900 H 228.800 Z" stroke="rgb(0,0,255)" stroke-width="0.20" />
  <path d="M 240.800 650.900 H 237.900 C 237.800 650.900 237.900 651.000 237.900 650.900 V 648.100 C 237.900 648.000 237.800 648.100 237.900 648.100 H 243.700 C 243.800 648.100 243.700 648.000 243.700 648.100 V 650.900 C 243.700 651.000 243.800 650.900 243.700 650.900 H 240.800 Z" stroke="rgb(0,0,255)" stroke-width="0.20" />
  <path d="M 252.800 650.900 H 249.900 C 249.800 650.900 249.900 651.000 249.900 650.900 V 648.100 C 249.900 648.000 249.800 648.100 249.900 648.100 H 255.700 C 255.800 648.100 255.700 648.000 255.700 648.100 V 650.900 C 255.700 651.000 255.800 650.900 255.700 650.900 H 252.800 Z" stroke="rgb(0,0,255)" stroke-width="0.20" />
  <path d="M 264.800 650.900 H 261.900 C 261.800 650.900 261.900 651.000 261.900 650.900 V 648.100 C 261.900 648.000 261.800 648.100 261.900 648.100 H 267.700 C 267.800 648.100 267.700 648.000 267.700 648.100 V 650.900 C 267.700 651.000 267.800 650.900 267.700 650.900 H 264.800 Z" stroke="rgb(0,0,255)" stroke-width="0.20" />
  <path d="M 276.800 650.900 H 273.900 C 273.800 650.900 273.900 651.000 273.900 650.900 V 648.100 C 273.900 648.000 273.800 648.100 273.900 648.100 H 279.700 C 279.800 648.100 279.700 648.000 279.700 648.100 V 650.900 C 279.700 651.000 279.800 650.900 279.700 650.900 H 276.800 Z" stroke="rgb(0,0,255)" stroke-width="0.20" />
  <path d="M 288.800 650.900 H 285.900 C 285.800 650.900 285.900 651.000 285.900 650.900 V 648.100 C 285.900 648.000 285.800 648.100 285.900 648.100 H 291.700 C 291.800 648.100 291.700 648.000 291.700 648.100 V 650.900 C 291.700 651.000 291.800 650.900 291.700 650.900 H 288.800 Z" stroke="rgb(0,0,255)" stroke-width="0.20" />
  <path d="M 300.800 650.900 H 297.900 C 297.800 650.900 297.900 651.000 297.900 650.900 V 648.100 C 297.900 648.000 297.800 648.100 297.900 648.100 H 303.700 C 303.800 648.100 303.700 648.000 303.700 648.100 V 650.900 C 303.700 651.000 303.800 650.900 303.700 650.900 H 300.800 Z" stroke="rgb(0,0,255)" stroke-width="0.20" />
  <path d="M 217.800 654.100 H 311.800 C 311.855 654.100 311.900 654.055 311.900 654.000 V 648.000 V 640.600 C 311.900 640.500 311.800 640.600 311.900 640.600 H 314.800 C 314.855 640.600 314.900 640.555 314.900 640.500 V 634.500 C 314.900 634.445 314.855 634.400 314.800 634.400 H 311.900 C 311.800 634.400 311.900 634.500 311.900 634.400 V 628.600 C 311.900 628.500 311.800 628.600 311.900 628.600 H 314.800 C 314.855 628.600 314.900 628.555 314.900 628.500 V 622.500 C 314.900 622.445 314.855 622.400 314.800 622.400 H 311.900 C 311.800 622.400 311.900 622.500 311.900 622.400 V 616.600 C 311.900 616.500 311.800 616.600 311.900 616.600 H 314.800 C 314.855 616.600 314.900 616.555 314.900 616.500 V 610.500 C 314.900 610.445 314.855 610.400 314.800 610.400 H 311.900 C 311.800 610.400 311.900 610.500 311.900 610.400 V 604.600 C 311.900 604.500 311.800 604.600 311.900 604.600 H 314.800 C 314.855 604.600 314.900 604.555 314.900 604.500 V 598.500 C 314.900 598.445 314.855 598.400 314.800 598.400 H 311.900 C 311.800 598.400 311.900 598.500 311.900 598.400 V 592.600 C 311.900 592.500 311.800 592.600 311.900 592.600 H 314.800 C 314.855 592.600 314.900 592.555 314.900 592.500 V 586.500 C 314.900 586.445 314.855 586.400 314.800 586.400 H 311.900 C 311.800 586.400 311.900 586.500 311.900 586.400 V 580.600 C 311.900 580.500 311.800 580.600 311.900 580.600 H 314.800 C 314.855 580.600 314.900 580.555 314.900 580.500 V 574.500 C 314.900 574.445 314.855 574.400 314.800 574.400 H 311.900 C 311.800 574.400 311.900 574.500 311.900 574.400 V 568.600 C 311.900 568.500 311.800 568.600 311.900 568.600 H 314.800 C 314.855 568.600 314.900 568.555 314.900 568.500 V 562.500 C 314.900 562.445 314.855 562.400 314.800 562.400 H 311.900 C 311.800 562.400 311.900 562.500 311.900 562.400 V 556.600 C 311.900 556.500 311.800 556.600 311.900 556.600 H 314.800 C 314.855 556.600 314.900 556.555 314.900 556.500 V 550.500 C 314.900 550.445 314.855 550.400 314.800 550.400 H 311.900 C 311.800 550.400 311.900 550.500 311.900 550.400 V 544.600 C 311.900 544.500 311.800 544.600 311.900 544.600 H 314.800 C 314.855 544.600 314.900 544.555 314.900 544.500 V 538.500 C 314.900 538.445 314.855 538.400 314.800 538.400 H 311.900 C 311.800 538.400 311.900 538.500 311.900 538.400 V 532.600 C 311.900 532.500 311.800 532.600 311.900 532.600 H 314.800 C 314.855 532.600 314.900 532.555 314.900 532.500 V 526.500 C 314.900 526.445 314.855 526.400 314.800 526.400 H 311.900 C 311.800 526.400 311.900 526.500 311.900 526.400 V 520.600 C 311.900 520.500 311.800 520.600 311.900 520.600 H 314.800 C 314.855 520.600 314.900 520.555 314.900 520.500 V 514.500 C 314.900 514.445 314.855 514.400 314.800 514.400 H 311.900 C 311.800 514.400 311.900 514.500 311.900 514.400 V 507.000 V 504.000 C 311.900 503.945 311.855 503.900 311.800 503.900 H 303.800 C 303.745 503.900 303.700 503.945 303.700 504.000 V 506.900 C 303.700 507.000 303.800 506.900 303.700 506.900 H 297.900 C 297.800 506.900 297.900 507.000 297.900 506.900 V 504.000 C 297.900 503.945 297.855 503.900 297.800 503.900 H 291.800 C 291.745 503.900 291.700 503.945 291.700 504.000 V 506.900 C 291.700 507.000 291.800 506.900 291.700 506.900 H 285.900 C 285.800 506.900 285.900 507.000 285.900 506.900 V 504.000 C 285.900 503.945 285.855 503.900 285.800 503.900 H 279.800 C 279.745 503.900 279.700 503.945 279.700 504.000 V 506.900 C 279.700 507.000 279.800 506.900 279.700 506.900 H 273.900 C 273.800 506.900 273.900 507.000 273.900 506.900 V 504.000 C 273.900 503.945 273.855 503.900 273.800 503.900 H 267.800 C 267.745 503.900 267.700 503.945 267.700 504.000 V 506.900 C 267.700 507.000 267.800 506.900 267.700 506.900 H 261.900 C 261.800 506.900 261.900 507.000 261.900 506.900 V 504.000 C 261.900 503.945 261.855 503.900 261.800 503.900 H 255.800 C 255.745 503.900 255.700 503.945 255.700 504.000 V 506.900 C 255.700 507.000 255.800 506.900 255.700 506.900 H 249.900 C 249.800 506.900 249.900 507.000 249.900 506.900 V 504.000 C 249.900 503.945 249.855 503.900 249.800 503.900 H 243.800 C 243.745 503.900 243.700 503.945 243.700 504.000 V 506.900 C 243.700 507.000 243.800 506.900 243.700 506.900 H 237.900 C 237.800 506.900 237.900 507.000 237.900 506.900 V 504.000 C 237.900 503.945 237.855 503.900 237.800 503.900 H 231.800 C 231.745 503.900 231.700 503.945 231.700 504.000 V 506.900 C 231.700 507.000 231.800 506.900 231.700 506.900 H 225.900 C 225.800 506.900 225.900 507.000 225.900 506.900 V 504.000 C 225.900 503.945 225.855 503.900 225.800 503.900 H 217.800 C 217.745 503.900 217.700 503.945 217.700 504.000 V 507.000 V 514.400 C 217.700 514.500 217.800 514.400 217.700 514.400 H 214.800 C 214.745 514.400 214.700 514.445 214.700 514.500 V 520.500 C 214.700 520.555 214.745 520.600 214.800 520.600 H 217.700 C 217.800 520.600 217.700 520.500 217.700 520.600 V 526.400 C 217.700 526.500 217.800 526.400 217.700 526.400 H 214.800 C 214.745 526.400 214.700 526.445 214.700 526.500 V 532.500 C 214.700 532.555 214.745 532.600 214.800 532.600 H 217.700 C 217.800 532.600 217.700 532.500 217.700 532.600 V 538.400 C 217.700 538.500 217.800 538.400 217.700 538.400 H 214.800 C 214.745 538.400 214.700 538.445 214.700 538.500 V 544.500 C 214.700 544.555 214.745 544.600 214.800 544.600 H 217.700 C 217.800 544.600 217.700 544.500 217.700 544.600 V 550.400 C 217.700 550.500 217.800 550.400 217.700 550.400 H 214.800 C 214.745 550.400 214.700 550.445 214.700 550.500 V 556.500 C 214.700 556.555 214.745 556.600 214.800 556.600 H 217.700 C 217.800 556.600 217.700 556.500 217.700 556.600 V 562.400 C 217.700 562.500 217.800 562.400 217.700 562.400 H 214.800 C 214.745 562.400 214.700 562.445 214.700 562.500 V 568.500 C 214.700 568.555 214.745 568.600 214.800 568.600 H 217.700 C 217.800 568.600 217.700 568.500 217.700 568.600 V 574.400 C 217.700 574.500 217.800 574.400 217.700 574.400 H 214.800 C 214.745 574.400 214.700 574.445 214.700 574.500 V 580.500 C 214.700 580.555 214.745 580.600 214.800 580.600 H 217.700 C 217.800 580.600 217.700 580.500 217.700 580.600 V 586.400 C 217.700 586.500 217.800 586.400 217.700 586.400 H 214.800 C 214.745 586.400 214.700 586.445 214.700 586.500 V 592.500 C 214.700 592.555 214.745 592.600 214.800 592.600 H 217.700 C 217.800 592.600 217.700 592.500 217.700 592.600 V 598.400 C 217.700 598.500 217.800 598.400 217.700 598.400 H 214.800 C 214.745 598.400 214.700 598.445 214.700 598.500 V 604.500 C 214.700 604.555 214.745 604.600 214.800 604.600 H 217.700 C 217.800 604.600 217.700 604.500 217.700 604.600 V 610.400 C 217.700 610.500 217.800 610.400 217.700 610.400 H 214.800 C 214.745 610.400 214.700 610.445 214.700 610.500 V 616.500 C 214.700 616.555 214.745 616.600 214.800 616.600 H 217.700 C 217.800 616.600 217.700 616.500 217.700 616.600 V 622.400 C 217.700 622.500 217.800 622.400 217.700 622.400 H 214.800 C 214.745 622.400 214.700 622.445 214.700 622.500 V 628.500 C 214.700 628.555 214.745 628.600 214.800 628.600 H 217.700 C 217.800 628.600 217.700 628.500 217.700 628.600 V 634.400 C 217.700 634.500 217.800 634.400 217.700 634.400 H 214.800 C 214.745 634.400 214.700 634.445 214.700 634.500 V 640.500 C 214.700 640.555 214.745 640.600 214.800 640.600 H 217.700 C 217.800 640.600 217.700 640.500 217.700 640.600 V 648.000 V 654.000 C 217.700 654.055 217.745 654.100 217.800 654.100 Z" stroke="rgb(0,0,0)" stroke-width="0.20" />
</g>
</svg>