<?xml version='1.0' encoding='utf-8'?>
<svg height="111.90mm" viewBox="0.0 0.0 687.45 111.90" width="687.45mm" xmlns="http://www.w3.org/2000/svg" xmlns:cc="http://creativecommons.org/ns#" xmlns:dc="http://purl.org/dc/elements/1.1/" xmlns:inkscape="http://www.inkscape.org/namespaces/inkscape" xmlns:rdf="http://www.w3.org/1999/02/22-rdf-syntax-ns#" xmlns:svg="http://www.w3.org/2000/svg" xmlns:xlink="http://www.w3.org/1999/xlink">
<!--
Tetris - 3D Tetris shapes

Created with Boxes.py (https://festi.info/boxes.py)
Command line (remove spaces between dashes): boxes Tetris
-->
<title>Tetris</title>
<metadata>
<rdf:RDF><cc:Work>
<dc:title>Misc - Tetris</dc:title>
<dc:source>boxes Tetris</dc:source>
<dc:description>3D Tetris shapes

Created with Boxes.py (https://festi.info/boxes.py)
Command line: boxes Tetris
Command line short: boxes Tetris
</dc:description>
</cc:Work></rdf:RDF></metadata>
<g id="p-0" style="fill:none;stroke-linecap:round;stroke-linejoin:round;">
  <path d="M 10.100 101.900 H 110.100 V 91.900 H 10.100 V 101.900 Z" stroke="rgb(0,0,0)" stroke-width="0.20" />
  <text dominant-baseline="hanging" font-size="6px" style="font-family: sans-serif ; font-weight: normal; font-style: normal; fill: rgb(255,0,0)" text-anchor="middle" transform="matrix( 1.000 0.000 0.000 1.000 60.100 93.900 )">100.0mm, burn:0.10mm</text>
</g>
<g id="p-1" style="fill:none;stroke-linecap:round;stroke-linejoin:round;">
  <path d="M 50.100 87.100 V 53.100 M 90.100 87.100 V 53.100 M 93.100 50.100 H 127.100" stroke="rgb(0,255,0)" stroke-width="0.20" />
  <path d="M 13.100 87.200 H 19.000 C 19.100 87.200 19.000 87.100 19.000 87.200 V 90.100 C 19.000 90.155 19.045 90.200 19.100 90.200 H 25.100 C 25.155 90.200 25.200 90.155 25.200 90.100 V 87.200 C 25.200 87.100 25.100 87.200 25.200 87.200 H 31.000 C 31.100 87.200 31.000 87.100 31.000 87.200 V 90.100 C 31.000 90.155 31.045 90.200 31.100 90.200 H 37.100 C 37.155 90.200 37.200 90.155 37.200 90.100 V 87.200 C 37.200 87.100 37.100 87.200 37.200 87.200 H 43.000 C 43.100 87.200 43.000 87.100 43.000 87.200 V 90.100 C 43.000 90.155 43.045 90.200 43.100 90.200 H 49.100 C 49.155 90.200 49.200 90.155 49.200 90.100 V 87.200 C 49.200 87.100 49.100 87.200 49.200 87.200 H 55.000 C 55.100 87.200 55.000 87.100 55.000 87.200 V 90.100 C 55.000 90.155 55.045 90.200 55.100 90.200 H 61.100 C 61.155 90.200 61.200 90.155 61.200 90.100 V 87.200 C 61.200 87.100 61.100 87.200 61.200 87.200 H 67.000 C 67.100 87.200 67.000 87.100 67.000 87.200 V 90.100 C 67.000 90.155 67.045 90.200 67.100 90.200 H 73.100 C 73.155 90.200 73.200 90.155 73.200 90.100 V 87.200 C 73.200 87.100 73.100 87.200 73.200 87.200 H 79.000 C 79.100 87.200 79.000 87.100 79.000 87.200 V 90.100 C 79.000 90.155 79.045 90.200 79.100 90.200 H 85.100 C 85.155 90.200 85.200 90.155 85.200 90.100 V 87.200 C 85.200 87.100 85.100 87.200 85.200 87.200 H 91.000 C 91.100 87.200 91.000 87.100 91.000 87.200 V 90.100 C 91.000 90.155 91.045 90.200 91.100 90.200 H 97.100 C 97.155 90.200 97.200 90.155 97.200 90.100 V 87.200 C 97.200 87.100 97.100 87.200 97.200 87.200 H 103.000 C 103.100 87.200 103.000 87.100 103.000 87.200 V 90.100 C 103.000 90.155 103.045 90.200 103.100 90.200 H 109.100 C 109.155 90.200 109.200 90.155 109.200 90.100 V 87.200 C 109.200 87.100 109.100 87.200 109.200 87.200 H 115.000 C 115.100 87.200 115.000 87.100 115.000 87.200 V 90.100 C 115.000 90.155 115.045 90.200 115.100 90.200 H 121.100 C 121.155 90.200 121.200 90.155 121.200 90.100 V 87.200 C 121.200 87.100 121.100 87.200 121.200 87.200 H 127.100 C 127.155 87.200 127.200 87.155 127.200 87.100 V 77.200 C 127.200 77.100 127.100 77.200 127.200 77.200 H 130.100 C 130.155 77.200 130.200 77.155 130.200 77.100 V 71.100 C 130.200 71.045 130.155 71.000 130.100 71.000 H 127.200 C 127.100 71.000 127.200 71.100 127.200 71.000 V 65.200 C 127.200 65.100 127.100 65.200 127.200 65.200 H 130.100 C 130.155 65.200 130.200 65.155 130.200 65.100 V 59.100 C 130.200 59.045 130.155 59.000 130.100 59.000 H 127.200 C 127.100 59.000 127.200 59.100 127.200 59.000 V 53.200 C 127.200 53.100 127.100 53.200 127.200 53.200 H 130.100 C 130.155 53.200 130.200 53.155 130.200 53.100 V 47.100 C 130.200 47.045 130.155 47.000 130.100 47.000 H 127.200 C 127.100 47.000 127.200 47.100 127.200 47.000 V 41.200 C 127.200 41.100 127.100 41.200 127.200 41.200 H 130.100 C 130.155 41.200 130.200 41.155 130.200 41.100 V 35.100 C 130.200 35.045 130.155 35.000 130.100 35.000 H 127.200 C 127.100 35.000 127.200 35.100 127.200 35.000 V 29.200 C 127.200 29.100 127.100 29.200 127.200 29.200 H 130.100 C 130.155 29.200 130.200 29.155 130.200 29.100 V 23.100 C 130.200 23.045 130.155 23.000 130.100 23.000 H 127.200 C 127.100 23.000 127.200 23.100 127.200 23.000 V 13.100 C 127.200 13.045 127.155 13.000 127.100 13.000 H 119.200 C 119.100 13.000 119.200 13.100 119.200 13.000 V 10.100 C 119.200 10.045 119.155 10.000 119.100 10.000 H 113.100 C 113.045 10.000 113.000 10.045 113.000 10.100 V 13.000 C 113.000 13.100 113.100 13.000 113.000 13.000 H 107.200 C 107.100 13.000 107.200 13.100 107.200 13.000 V 10.100 C 107.200 10.045 107.155 10.000 107.100 10.000 H 101.100 C 101.045 10.000 101.000 10.045 101.000 10.100 V 13.000 C 101.000 13.100 101.100 13.000 101.000 13.000 H 93.100 C 93.045 13.000 93.000 13.045 93.000 13.100 V 22.500 C 93.000 22.600 93.100 22.500 93.000 22.500 H 90.100 C 90.045 22.500 90.000 22.545 90.000 22.600 V 28.600 C 90.000 28.655 90.045 28.700 90.100 28.700 H 93.000 C 93.100 28.700 93.000 28.600 93.000 28.700 V 34.500 C 93.000 34.600 93.100 34.500 93.000 34.500 H 90.100 C 90.045 34.500 90.000 34.545 90.000 34.600 V 40.600 C 90.000 40.655 90.045 40.700 90.100 40.700 H 93.000 C 93.100 40.700 93.000 40.600 93.000 40.700 V 50.100 V 53.000 C 93.000 53.100 93.100 53.000 93.000 53.000 H 90.100 H 78.700 C 78.600 53.000 78.700 53.100 78.700 53.000 V 50.100 C 78.700 50.045 78.655 50.000 78.600 50.000 H 72.600 C 72.545 50.000 72.500 50.045 72.500 50.100 V 53.000 C 72.500 53.100 72.600 53.000 72.500 53.000 H 66.700 C 66.600 53.000 66.700 53.100 66.700 53.000 V 50.100 C 66.700 50.045 66.655 50.000 66.600 50.000 H 60.600 C 60.545 50.000 60.500 50.045 60.500 50.100 V 53.000 C 60.500 53.100 60.600 53.000 60.500 53.000 H 54.700 C 54.600 53.000 54.700 53.100 54.700 53.000 V 50.100 C 54.700 50.045 54.655 50.000 54.600 50.000 H 48.600 C 48.545 50.000 48.500 50.045 48.500 50.100 V 53.000 C 48.500 53.100 48.600 53.000 48.500 53.000 H 42.700 C 42.600 53.000 42.700 53.100 42.700 53.000 V 50.100 C 42.700 50.045 42.655 50.000 42.600 50.000 H 36.600 C 36.545 50.000 36.500 50.045 36.500 50.100 V 53.000 C 36.500 53.100 36.600 53.000 36.500 53.000 H 30.700 C 30.600 53.000 30.700 53.100 30.700 53.000 V 50.100 C 30.700 50.045 30.655 50.000 30.600 50.000 H 24.600 C 24.545 50.000 24.500 50.045 24.500 50.100 V 53.000 C 24.500 53.100 24.600 53.000 24.500 53.000 H 13.100 C 13.045 53.000 13.000 53.045 13.000 53.100 V 61.000 C 13.000 61.100 13.100 61.000 13.000 61.000 H 10.100 C 10.045 61.000 10.000 61.045 10.000 61.100 V 67.100 C 10.000 67.155 10.045 67.200 10.100 67.200 H 13.000 C 13.100 67.200 13.000 67.100 13.000 67.200 V 73.000 C 13.000 73.100 13.100 73.000 13.000 73.000 H 10.100 C 10.045 73.000 10.000 73.045 10.000 73.100 V 79.100 C 10.000 79.155 10.045 79.200 10.100 79.200 H 13.000 C 13.100 79.200 13.000 79.100 13.000 79.200 V 87.100 C 13.000 87.155 13.045 87.200 13.100 87.200 Z" stroke="rgb(0,0,0)" stroke-width="0.20" />
</g>
<g id="p-2" style="fill:none;stroke-linecap:round;stroke-linejoin:round;">
  <path d="M 211.800 87.100 V 53.100 M 171.800 87.100 V 53.100 M 168.800 50.100 H 134.800" stroke="rgb(0,255,0)" stroke-width="0.20" />
  <path d="M 248.800 87.200 H 242.900 C 242.800 87.200 242.900 87.100 242.900 87.200 V 90.100 C 242.900 90.155 242.855 90.200 242.800 90.200 H 236.800 C 236.745 90.200 236.700 90.155 236.700 90.100 V 87.200 C 236.700 87.100 236.800 87.200 236.700 87.200 H 230.900 C 230.800 87.200 230.900 87.100 230.900 87.200 V 90.100 C 230.900 90.155 230.855 90.200 230.800 90.200 H 224.800 C 224.745 90.200 224.700 90.155 224.700 90.100 V 87.200 C 224.700 87.100 224.800 87.200 224.700 87.200 H 218.900 C 218.800 87.200 218.900 87.100 218.900 87.200 V 90.100 C 218.900 90.155 218.855 90.200 218.800 90.200 H 212.800 C 212.745 90.200 212.700 90.155 212.700 90.100 V 87.200 C 212.700 87.100 212.800 87.200 212.700 87.200 H 206.900 C 206.800 87.200 206.900 87.100 206.900 87.200 V 90.100 C 206.900 90.155 206.855 90.200 206.800 90.200 H 200.800 C 200.745 90.200 200.700 90.155 200.700 90.100 V 87.200 C 200.700 87.100 200.800 87.200 200.700 87.200 H 194.900 C 194.800 87.200 194.900 87.100 194.900 87.200 V 90.100 C 194.900 90.155 194.855 90.200 194.800 90.200 H 188.800 C 188.745 90.200 188.700 90.155 188.700 90.100 V 87.200 C 188.700 87.100 188.800 87.200 188.700 87.200 H 182.900 C 182.800 87.200 182.900 87.100 182.900 87.200 V 90.100 C 182.900 90.155 182.855 90.200 182.800 90.200 H 176.800 C 176.745 90.200 176.700 90.155 176.700 90.100 V 87.200 C 176.700 87.100 176.800 87.200 176.700 87.200 H 170.900 C 170.800 87.200 170.900 87.100 170.900 87.200 V 90.100 C 170.900 90.155 170.855 90.200 170.800 90.200 H 164.800 C 164.745 90.200 164.700 90.155 164.700 90.100 V 87.200 C 164.700 87.100 164.800 87.200 164.700 87.200 H 158.900 C 158.800 87.200 158.900 87.100 158.900 87.200 V 90.100 C 158.900 90.155 158.855 90.200 158.800 90.200 H 152.800 C 152.745 90.200 152.700 90.155 152.700 90.100 V 87.200 C 152.700 87.100 152.800 87.200 152.700 87.200 H 146.900 C 146.800 87.200 146.900 87.100 146.900 87.200 V 90.100 C 146.900 90.155 146.855 90.200 146.800 90.200 H 140.800 C 140.745 90.200 140.700 90.155 140.700 90.100 V 87.200 C 140.700 87.100 140.800 87.200 140.700 87.200 H 134.800 C 134.745 87.200 134.700 87.155 134.700 87.100 V 77.200 C 134.700 77.100 134.800 77.200 134.700 77.200 H 131.800 C 131.745 77.200 131.700 77.155 131.700 77.100 V 71.100 C 131.700 71.045 131.745 71.000 131.800 71.000 H 134.700 C 134.800 71.000 134.700 71.100 134.700 71.000 V 65.200 C 134.700 65.100 134.800 65.200 134.700 65.200 H 131.800 C 131.745 65.200 131.700 65.155 131.700 65.100 V 59.100 C 131.700 59.045 131.745 59.000 131.800 59.000 H 134.700 C 134.800 59.000 134.700 59.100 134.700 59.000 V 53.200 C 134.700 53.100 134.800 53.200 134.700 53.200 H 131.800 C 131.745 53.200 131.700 53.155 131.700 53.100 V 47.100 C 131.700 47.045 131.745 47.000 131.800 47.000 H 134.700 C 134.800 47.000 134.700 47.100 134.700 47.000 V 41.200 C 134.700 41.100 134.800 41.200 134.700 41.200 H 131.800 C 131.745 41.200 131.700 41.155 131.700 41.100 V 35.100 C 131.700 35.045 131.745 35.000 131.800 35.000 H 134.700 C 134.800 35.000 134.700 35.100 134.700 35.000 V 29.200 C 134.700 29.100 134.800 29.200 134.700 29.200 H 131.800 C 131.745 29.200 131.700 29.155 131.700 29.100 V 23.100 C 131.700 23.045 131.745 23.000 131.800 23.000 H 134.700 C 134.800 23.000 134.700 23.100 134.700 23.000 V 13.100 C 134.700 13.045 134.745 13.000 134.800 13.000 H 142.700 C 142.800 13.000 142.700 13.100 142.700 13.000 V 10.100 C 142.700 10.045 142.745 10.000 142.800 10.000 H 148.800 C 148.855 10.000 148.900 10.045 148.900 10.100 V 13.000 C 148.900 13.100 148.800 13.000 148.900 13.000 H 154.700 C 154.800 13.000 154.700 13.100 154.700 13.000 V 10.100 C 154.700 10.045 154.745 10.000 154.800 10.000 H 160.800 C 160.855 10.000 160.900 10.045 160.900 10.100 V 13.000 C 160.900 13.100 160.800 13.000 160.900 13.000 H 168.800 C 168.855 13.000 168.900 13.045 168.900 13.100 V 22.500 C 168.900 22.600 168.800 22.500 168.900 22.500 H 171.800 C 171.855 22.500 171.900 22.545 171.900 22.600 V 28.600 C 171.900 28.655 171.855 28.700 171.800 28.700 H 168.900 C 168.800 28.700 168.900 28.600 168.900 28.700 V 34.500 C 168.900 34.600 168.800 34.500 168.900 34.500 H 171.800 C 171.855 34.500 171.900 34.545 171.900 34.600 V 40.600 C 171.900 40.655 171.855 40.700 171.800 40.700 H 168.900 C 168.800 40.700 168.900 40.600 168.900 40.700 V 50.100 V 53.000 C 168.900 53.100 168.800 53.000 168.900 53.000 H 171.800 H 183.200 C 183.300 53.000 183.200 53.100 183.200 53.000 V 50.100 C 183.200 50.045 183.245 50.000 183.300 50.000 H 189.300 C 189.355 50.000 189.400 50.045 189.400 50.100 V 53.000 C 189.400 53.100 189.300 53.000 189.400 53.000 H 195.200 C 195.300 53.000 195.200 53.100 195.200 53.000 V 50.100 C 195.200 50.045 195.245 50.000 195.300 50.000 H 201.300 C 201.355 50.000 201.400 50.045 201.400 50.100 V 53.000 C 201.400 53.100 201.300 53.000 201.400 53.000 H 207.200 C 207.300 53.000 207.200 53.100 207.200 53.000 V 50.100 C 207.200 50.045 207.245 50.000 207.300 50.000 H 213.300 C 213.355 50.000 213.400 50.045 213.400 50.100 V 53.000 C 213.400 53.100 213.300 53.000 213.400 53.000 H 219.200 C 219.300 53.000 219.200 53.100 219.200 53.000 V 50.100 C 219.200 50.045 219.245 50.000 219.300 50.000 H 225.300 C 225.355 50.000 225.400 50.045 225.400 50.100 V 53.000 C 225.400 53.100 225.300 53.000 225.400 53.000 H 231.200 C 231.300 53.000 231.200 53.100 231.200 53.000 V 50.100 C 231.200 50.045 231.245 50.000 231.300 50.000 H 237.300 C 237.355 50.000 237.400 50.045 237.400 50.100 V 53.000 C 237.400 53.100 237.300 53.000 237.400 53.000 H 248.800 C 248.855 53.000 248.900 53.045 248.900 53.100 V 61.000 C 248.900 61.100 248.800 61.000 248.900 61.000 H 251.800 C 251.855 61.000 251.900 61.045 251.900 61.100 V 67.100 C 251.900 67.155 251.855 67.200 251.800 67.200 H 248.900 C 248.800 67.200 248.900 67.100 248.900 67.200 V 73.000 C 248.900 73.100 248.800 73.000 248.900 73.000 H 251.800 C 251.855 73.000 251.900 73.045 251.900 73.100 V 79.100 C 251.900 79.155 251.855 79.200 251.800 79.200 H 248.900 C 248.800 79.200 248.900 79.100 248.900 79.200 V 87.100 C 248.900 87.155 248.855 87.200 248.800 87.200 Z" stroke="rgb(0,0,0)" stroke-width="0.20" />
</g>
<g id="p-3" style="fill:none;stroke-linecap:round;stroke-linejoin:round;">
  <path d="M 257.350 91.050 H 263.350 C 263.405 91.050 263.450 91.005 263.450 90.950 V 88.050 C 263.450 87.950 263.350 88.050 263.450 88.050 H 269.250 C 269.350 88.050 269.250 87.950 269.250 88.050 V 90.950 C 269.250 91.005 269.295 91.050 269.350 91.050 H 275.350 C 275.405 91.050 275.450 91.005 275.450 90.950 V 88.050 C 275.450 87.950 275.350 88.050 275.450 88.050 H 281.250 C 281.350 88.050 281.250 87.950 281.250 88.050 V 90.950 C 281.250 91.005 281.295 91.050 281.350 91.050 H 287.350 C 287.405 91.050 287.450 91.005 287.450 90.950 V 88.050 C 287.450 87.950 287.350 88.050 287.450 88.050 H 293.250 C 293.350 88.050 293.250 87.950 293.250 88.050 V 90.950 C 293.250 91.005 293.295 91.050 293.350 91.050 H 299.350 C 299.405 91.050 299.450 91.005 299.450 90.950 V 88.050 C 299.450 87.950 299.350 88.050 299.450 88.050 H 305.250 C 305.350 88.050 305.250 87.950 305.250 88.050 V 90.950 C 305.250 91.005 305.295 91.050 305.350 91.050 H 311.350 C 311.405 91.050 311.450 91.005 311.450 90.950 V 88.050 C 311.450 87.950 311.350 88.050 311.450 88.050 H 317.250 C 317.350 88.050 317.250 87.950 317.250 88.050 V 90.950 C 317.250 91.005 317.295 91.050 317.350 91.050 H 323.350 C 323.405 91.050 323.450 91.005 323.450 90.950 V 88.050 C 323.450 87.950 323.350 88.050 323.450 88.050 H 329.250 C 329.350 88.050 329.250 87.950 329.250 88.050 V 90.950 C 329.250 91.005 329.295 91.050 329.350 91.050 H 335.350 C 335.405 91.050 335.450 91.005 335.450 90.950 V 88.050 C 335.450 87.950 335.350 88.050 335.450 88.050 H 341.250 C 341.350 88.050 341.250 87.950 341.250 88.050 V 90.950 C 341.250 91.005 341.295 91.050 341.350 91.050 H 347.350 C 347.405 91.050 347.450 91.005 347.450 90.950 V 88.050 C 347.450 87.950 347.350 88.050 347.450 88.050 H 353.250 C 353.350 88.050 353.250 87.950 353.250 88.050 V 90.950 C 353.250 91.005 353.295 91.050 353.350 91.050 H 359.350 C 359.405 91.050 359.450 91.005 359.450 90.950 V 88.050 C 359.450 87.950 359.350 88.050 359.450 88.050 H 365.250 C 365.350 88.050 365.250 87.950 365.250 88.050 V 90.950 C 365.250 91.005 365.295 91.050 365.350 91.050 H 371.350 H 374.350 C 374.405 91.050 374.450 91.005 374.450 90.950 V 87.950 V 79.950 C 374.450 79.895 374.405 79.850 374.350 79.850 H 371.450 C 371.350 79.850 371.450 79.950 371.450 79.850 V 74.050 C 371.450 73.950 371.350 74.050 371.450 74.050 H 374.350 C 374.405 74.050 374.450 74.005 374.450 73.950 V 67.950 C 374.450 67.895 374.405 67.850 374.350 67.850 H 371.450 C 371.350 67.850 371.450 67.950 371.450 67.850 V 62.050 C 371.450 61.950 371.350 62.050 371.450 62.050 H 374.350 C 374.405 62.050 374.450 62.005 374.450 61.950 V 53.950 V 50.950 C 374.450 50.895 374.405 50.850 374.350 50.850 H 371.350 H 365.350 C 365.295 50.850 365.250 50.895 365.250 50.950 V 53.850 C 365.250 53.950 365.350 53.850 365.250 53.850 H 359.450 C 359.350 53.850 359.450 53.950 359.450 53.850 V 50.950 C 359.450 50.895 359.405 50.850 359.350 50.850 H 353.350 C 353.295 50.850 353.250 50.895 353.250 50.950 V 53.850 C 353.250 53.950 353.350 53.850 353.250 53.850 H 347.450 C 347.350 53.850 347.450 53.950 347.450 53.850 V 50.950 C 347.450 50.895 347.405 50.850 347.350 50.850 H 341.350 C 341.295 50.850 341.250 50.895 341.250 50.950 V 53.850 C 341.250 53.950 341.350 53.850 341.250 53.850 H 335.450 C 335.350 53.850 335.450 53.950 335.450 53.850 V 50.950 C 335.450 50.895 335.405 50.850 335.350 50.850 H 329.350 C 329.295 50.850 329.250 50.895 329.250 50.950 V 53.850 C 329.250 53.950 329.350 53.850 329.250 53.850 H 323.450 C 323.350 53.850 323.450 53.950 323.450 53.850 V 50.950 C 323.450 50.895 323.405 50.850 323.350 50.850 H 317.350 C 317.295 50.850 317.250 50.895 317.250 50.950 V 53.850 C 317.250 53.950 317.350 53.850 317.250 53.850 H 311.450 C 311.350 53.850 311.450 53.950 311.450 53.850 V 50.950 C 311.450 50.895 311.405 50.850 311.350 50.850 H 305.350 C 305.295 50.850 305.250 50.895 305.250 50.950 V 53.850 C 305.250 53.950 305.350 53.850 305.250 53.850 H 299.450 C 299.350 53.850 299.450 53.950 299.450 53.850 V 50.950 C 299.450 50.895 299.405 50.850 299.350 50.850 H 293.350 C 293.295 50.850 293.250 50.895 293.250 50.950 V 53.850 C 293.250 53.950 293.350 53.850 293.250 53.850 H 287.450 C 287.350 53.850 287.450 53.950 287.450 53.850 V 50.950 C 287.450 50.895 287.405 50.850 287.350 50.850 H 281.350 C 281.295 50.850 281.250 50.895 281.250 50.950 V 53.850 C 281.250 53.950 281.350 53.850 281.250 53.850 H 275.450 C 275.350 53.850 275.450 53.950 275.450 53.850 V 50.950 C 275.450 50.895 275.405 50.850 275.350 50.850 H 269.350 C 269.295 50.850 269.250 50.895 269.250 50.950 V 53.850 C 269.250 53.950 269.350 53.850 269.250 53.850 H 263.450 C 263.350 53.850 263.450 53.950 263.450 53.850 V 50.950 C 263.450 50.895 263.405 50.850 263.350 50.850 H 257.350 H 254.350 C 254.295 50.850 254.250 50.895 254.250 50.950 V 53.950 V 61.950 C 254.250 62.005 254.295 62.050 254.350 62.050 H 257.250 C 257.350 62.050 257.250 61.950 257.250 62.050 V 67.850 C 257.250 67.950 257.350 67.850 257.250 67.850 H 254.350 C 254.295 67.850 254.250 67.895 254.250 67.950 V 73.950 C 254.250 74.005 254.295 74.050 254.350 74.050 H 257.250 C 257.350 74.050 257.250 73.950 257.250 74.050 V 79.850 C 257.250 79.950 257.350 79.850 257.250 79.850 H 254.350 C 254.295 79.850 254.250 79.895 254.250 79.950 V 87.950 V 90.950 C 254.250 91.005 254.295 91.050 254.350 91.050 H 257.350 Z" stroke="rgb(0,0,0)" stroke-width="0.20" />
  <path d="M 380.750 91.050 H 390.750 C 390.805 91.050 390.850 91.005 390.850 90.950 V 88.050 C 390.850 87.950 390.750 88.050 390.850 88.050 H 396.650 C 396.750 88.050 396.650 87.950 396.650 88.050 V 90.950 C 396.650 91.005 396.695 91.050 396.750 91.050 H 402.750 C 402.805 91.050 402.850 91.005 402.850 90.950 V 88.050 C 402.850 87.950 402.750 88.050 402.850 88.050 H 408.650 C 408.750 88.050 408.650 87.950 408.650 88.050 V 90.950 C 408.650 91.005 408.695 91.050 408.750 91.050 H 414.750 C 414.805 91.050 414.850 91.005 414.850 90.950 V 88.050 C 414.850 87.950 414.750 88.050 414.850 88.050 H 420.650 C 420.750 88.050 420.650 87.950 420.650 88.050 V 90.950 C 420.650 91.005 420.695 91.050 420.750 91.050 H 426.750 C 426.805 91.050 426.850 91.005 426.850 90.950 V 88.050 C 426.850 87.950 426.750 88.050 426.850 88.050 H 432.650 C 432.750 88.050 432.650 87.950 432.650 88.050 V 90.950 C 432.650 91.005 432.695 91.050 432.750 91.050 H 438.750 C 438.805 91.050 438.850 91.005 438.850 90.950 V 88.050 C 438.850 87.950 438.750 88.050 438.850 88.050 H 444.650 C 444.750 88.050 444.650 87.950 444.650 88.050 V 90.950 C 444.650 91.005 444.695 91.050 444.750 91.050 H 454.750 C 454.805 91.050 454.850 91.005 454.850 90.950 V 87.950 V 80.050 C 454.850 79.950 454.750 80.050 454.850 80.050 H 457.750 C 457.805 80.050 457.850 80.005 457.850 79.950 V 73.950 C 457.850 73.895 457.805 73.850 457.750 73.850 H 454.850 C 454.750 73.850 454.850 73.950 454.850 73.850 V 68.050 C 454.850 67.950 454.750 68.050 454.850 68.050 H 457.750 C 457.805 68.050 457.850 68.005 457.850 67.950 V 61.950 C 457.850 61.895 457.805 61.850 457.750 61.850 H 454.850 C 454.750 61.850 454.850 61.950 454.850 61.850 V 53.950 V 50.950 C 454.850 50.895 454.805 50.850 454.750 50.850 H 444.750 C 444.695 50.850 444.650 50.895 444.650 50.950 V 53.850 C 444.650 53.950 444.750 53.850 444.650 53.850 H 438.850 C 438.750 53.850 438.850 53.950 438.850 53.850 V 50.950 C 438.850 50.895 438.805 50.850 438.750 50.850 H 432.750 C 432.695 50.850 432.650 50.895 432.650 50.950 V 53.850 C 432.650 53.950 432.750 53.850 432.650 53.850 H 426.850 C 426.750 53.850 426.850 53.950 426.850 53.850 V 50.950 C 426.850 50.895 426.805 50.850 426.750 50.850 H 420.750 C 420.695 50.850 420.650 50.895 420.650 50.950 V 53.850 C 420.650 53.950 420.750 53.850 420.650 53.850 H 414.850 C 414.750 53.850 414.850 53.950 414.850 53.850 V 50.950 C 414.850 50.895 414.805 50.850 414.750 50.850 H 408.750 C 408.695 50.850 408.650 50.895 408.650 50.950 V 53.850 C 408.650 53.950 408.750 53.850 408.650 53.850 H 402.850 C 402.750 53.850 402.850 53.950 402.850 53.850 V 50.950 C 402.850 50.895 402.805 50.850 402.750 50.850 H 396.750 C 396.695 50.850 396.650 50.895 396.650 50.950 V 53.850 C 396.650 53.950 396.750 53.850 396.650 53.850 H 390.850 C 390.750 53.850 390.850 53.950 390.850 53.850 V 50.950 C 390.850 50.895 390.805 50.850 390.750 50.850 H 380.750 C 380.695 50.850 380.650 50.895 380.650 50.950 V 53.950 V 61.850 C 380.650 61.950 380.750 61.850 380.650 61.850 H 377.750 C 377.695 61.850 377.650 61.895 377.650 61.950 V 67.950 C 377.650 68.005 377.695 68.050 377.750 68.050 H 380.650 C 380.750 68.050 380.650 67.950 380.650 68.050 V 73.850 C 380.650 73.950 380.750 73.850 380.650 73.850 H 377.750 C 377.695 73.850 377.650 73.895 377.650 73.950 V 79.950 C 377.650 80.005 377.695 80.050 377.750 80.050 H 380.650 C 380.750 80.050 380.650 79.950 380.650 80.050 V 87.950 V 90.950 C 380.650 91.005 380.695 91.050 380.750 91.050 Z" stroke="rgb(0,0,0)" stroke-width="0.20" />
  <path d="M 464.150 91.050 H 472.150 C 472.205 91.050 472.250 91.005 472.250 90.950 V 88.050 C 472.250 87.950 472.150 88.050 472.250 88.050 H 478.050 C 478.150 88.050 478.050 87.950 478.050 88.050 V 90.950 C 478.050 91.005 478.095 91.050 478.150 91.050 H 484.150 C 484.205 91.050 484.250 91.005 484.250 90.950 V 88.050 C 484.250 87.950 484.150 88.050 484.250 88.050 H 490.050 C 490.150 88.050 490.050 87.950 490.050 88.050 V 90.950 C 490.050 91.005 490.095 91.050 490.150 91.050 H 498.150 H 501.150 C 501.205 91.050 501.250 91.005 501.250 90.950 V 87.950 V 79.950 C 501.250 79.895 501.205 79.850 501.150 79.850 H 498.250 C 498.150 79.850 498.250 79.950 498.250 79.850 V 74.050 C 498.250 73.950 498.150 74.050 498.250 74.050 H 501.150 C 501.205 74.050 501.250 74.005 501.250 73.950 V 67.950 C 501.250 67.895 501.205 67.850 501.150 67.850 H 498.250 C 498.150 67.850 498.250 67.950 498.250 67.850 V 62.050 C 498.250 61.950 498.150 62.050 498.250 62.050 H 501.150 C 501.205 62.050 501.250 62.005 501.250 61.950 V 53.950 V 50.950 C 501.250 50.895 501.205 50.850 501.150 50.850 H 498.150 H 490.150 C 490.095 50.850 490.050 50.895 490.050 50.950 V 53.850 C 490.050 53.950 490.150 53.850 490.050 53.850 H 484.250 C 484.150 53.850 484.250 53.950 484.250 53.850 V 50.950 C 484.250 50.895 484.205 50.850 484.150 50.850 H 478.150 C 478.095 50.850 478.050 50.895 478.050 50.950 V 53.850 C 478.050 53.950 478.150 53.850 478.050 53.850 H 472.250 C 472.150 53.850 472.250 53.950 472.250 53.850 V 50.950 C 472.250 50.895 472.205 50.850 472.150 50.850 H 464.150 H 461.150 C 461.095 50.850 461.050 50.895 461.050 50.950 V 53.950 V 61.950 C 461.050 62.005 461.095 62.050 461.150 62.050 H 464.050 C 464.150 62.050 464.050 61.950 464.050 62.050 V 67.850 C 464.050 67.950 464.150 67.850 464.050 67.850 H 461.150 C 461.095 67.850 461.050 67.895 461.050 67.950 V 73.950 C 461.050 74.005 461.095 74.050 461.150 74.050 H 464.050 C 464.150 74.050 464.050 73.950 464.050 74.050 V 79.850 C 464.050 79.950 464.150 79.850 464.050 79.850 H 461.150 C 461.095 79.850 461.050 79.895 461.050 79.950 V 87.950 V 90.950 C 461.050 91.005 461.095 91.050 461.150 91.050 H 464.150 Z" stroke="rgb(0,0,0)" stroke-width="0.20" />
  <path d="M 507.550 91.050 H 517.050 C 517.105 91.050 517.150 91.005 517.150 90.950 V 88.050 C 517.150 87.950 517.050 88.050 517.150 88.050 H 522.950 C 523.050 88.050 522.950 87.950 522.950 88.050 V 90.950 C 522.950 91.005 522.995 91.050 523.050 91.050 H 529.050 C 529.105 91.050 529.150 91.005 529.150 90.950 V 88.050 C 529.150 87.950 529.050 88.050 529.150 88.050 H 534.950 C 535.050 88.050 534.950 87.950 534.950 88.050 V 90.950 C 534.950 91.005 534.995 91.050 535.050 91.050 H 544.550 C 544.605 91.050 544.650 91.005 544.650 90.950 V 87.950 V 80.050 C 544.650 79.950 544.550 80.050 544.650 80.050 H 547.550 C 547.605 80.050 547.650 80.005 547.650 79.950 V 73.950 C 547.650 73.895 547.605 73.850 547.550 73.850 H 544.650 C 544.550 73.850 544.650 73.950 544.650 73.850 V 68.050 C 544.650 67.950 544.550 68.050 544.650 68.050 H 547.550 C 547.605 68.050 547.650 68.005 547.650 67.950 V 61.950 C 547.650 61.895 547.605 61.850 547.550 61.850 H 544.650 C 544.550 61.850 544.650 61.950 544.650 61.850 V 53.950 V 50.950 C 544.650 50.895 544.605 50.850 544.550 50.850 H 535.050 C 534.995 50.850 534.950 50.895 534.950 50.950 V 53.850 C 534.950 53.950 535.050 53.850 534.950 53.850 H 529.150 C 529.050 53.850 529.150 53.950 529.150 53.850 V 50.950 C 529.150 50.895 529.105 50.850 529.050 50.850 H 523.050 C 522.995 50.850 522.950 50.895 522.950 50.950 V 53.850 C 522.950 53.950 523.050 53.850 522.950 53.850 H 517.150 C 517.050 53.850 517.150 53.950 517.150 53.850 V 50.950 C 517.150 50.895 517.105 50.850 517.050 50.850 H 507.550 C 507.495 50.850 507.450 50.895 507.450 50.950 V 53.950 V 61.850 C 507.450 61.950 507.550 61.850 507.450 61.850 H 504.550 C 504.495 61.850 504.450 61.895 504.450 61.950 V 67.950 C 504.450 68.005 504.495 68.050 504.550 68.050 H 507.450 C 507.550 68.050 507.450 67.950 507.450 68.050 V 73.850 C 507.450 73.950 507.550 73.850 507.450 73.850 H 504.550 C 504.495 73.850 504.450 73.895 504.450 73.950 V 79.950 C 504.450 80.005 504.495 80.050 504.550 80.050 H 507.450 C 507.550 80.050 507.450 79.950 507.450 80.050 V 87.950 V 90.950 C 507.450 91.005 507.495 91.050 507.550 91.050 Z" stroke="rgb(0,0,0)" stroke-width="0.20" />
  <path d="M 553.950 91.050 H 565.450 C 565.505 91.050 565.550 91.005 565.550 90.950 V 88.050 C 565.550 87.950 565.450 88.050 565.550 88.050 H 571.350 C 571.450 88.050 571.350 87.950 571.350 88.050 V 90.950 C 571.350 91.005 571.395 91.050 571.450 91.050 H 577.450 C 577.505 91.050 577.550 91.005 577.550 90.950 V 88.050 C 577.550 87.950 577.450 88.050 577.550 88.050 H 583.350 C 583.450 88.050 583.350 87.950 583.350 88.050 V 90.950 C 583.350 91.005 583.395 91.050 583.450 91.050 H 589.450 C 589.505 91.050 589.550 91.005 589.550 90.950 V 88.050 C 589.550 87.950 589.450 88.050 589.550 88.050 H 595.350 C 595.450 88.050 595.350 87.950 595.350 88.050 V 90.950 C 595.350 91.005 595.395 91.050 595.450 91.050 H 601.450 C 601.505 91.050 601.550 91.005 601.550 90.950 V 88.050 C 601.550 87.950 601.450 88.050 601.550 88.050 H 607.350 C 607.450 88.050 607.350 87.950 607.350 88.050 V 90.950 C 607.350 91.005 607.395 91.050 607.450 91.050 H 613.450 C 613.505 91.050 613.550 91.005 613.550 90.950 V 88.050 C 613.550 87.950 613.450 88.050 613.550 88.050 H 619.350 C 619.450 88.050 619.350 87.950 619.350 88.050 V 90.950 C 619.350 91.005 619.395 91.050 619.450 91.050 H 630.950 H 633.950 C 634.005 91.050 634.050 91.005 634.050 90.950 V 87.950 V 79.950 C 634.050 79.895 634.005 79.850 633.950 79.850 H 631.050 C 630.950 79.850 631.050 79.950 631.050 79.850 V 74.050 C 631.050 73.950 630.950 74.050 631.050 74.050 H 633.950 C 634.005 74.050 634.050 74.005 634.050 73.950 V 67.950 C 634.050 67.895 634.005 67.850 633.950 67.850 H 631.050 C 630.950 67.850 631.050 67.950 631.050 67.850 V 62.050 C 631.050 61.950 630.950 62.050 631.050 62.050 H 633.950 C 634.005 62.050 634.050 62.005 634.050 61.950 V 53.950 V 50.950 C 634.050 50.895 634.005 50.850 633.950 50.850 H 630.950 H 619.450 C 619.395 50.850 619.350 50.895 619.350 50.950 V 53.850 C 619.350 53.950 619.450 53.850 619.350 53.850 H 613.550 C 613.450 53.850 613.550 53.950 613.550 53.850 V 50.950 C 613.550 50.895 613.505 50.850 613.450 50.850 H 607.450 C 607.395 50.850 607.350 50.895 607.350 50.950 V 53.850 C 607.350 53.950 607.450 53.850 607.350 53.850 H 601.550 C 601.450 53.850 601.550 53.950 601.550 53.850 V 50.950 C 601.550 50.895 601.505 50.850 601.450 50.850 H 595.450 C 595.395 50.850 595.350 50.895 595.350 50.950 V 53.850 C 595.350 53.950 595.450 53.850 595.350 53.850 H 589.550 C 589.450 53.850 589.550 53.950 589.550 53.850 V 50.950 C 589.550 50.895 589.505 50.850 589.450 50.850 H 583.450 C 583.395 50.850 583.350 50.895 583.350 50.950 V 53.850 C 583.350 53.950 583.450 53.850 583.350 53.850 H 577.550 C 577.450 53.850 577.550 53.950 577.550 53.850 V 50.950 C 577.550 50.895 577.505 50.850 577.450 50.850 H 571.450 C 571.395 50.850 571.350 50.895 571.350 50.950 V 53.850 C 571.350 53.950 571.450 53.850 571.350 53.850 H 565.550 C 565.450 53.850 565.550 53.950 565.550 53.850 V 50.950 C 565.550 50.895 565.505 50.850 565.450 50.850 H 553.950 H 550.950 C 550.895 50.850 550.850 50.895 550.850 50.950 V 53.950 V 61.950 C 550.850 62.005 550.895 62.050 550.950 62.050 H 553.850 C 553.950 62.050 553.850 61.950 553.850 62.050 V 67.850 C 553.850 67.950 553.950 67.850 553.850 67.850 H 550.950 C 550.895 67.850 550.850 67.895 550.850 67.950 V 73.950 C 550.850 74.005 550.895 74.050 550.950 74.050 H 553.850 C 553.950 74.050 553.850 73.950 553.850 74.050 V 79.850 C 553.850 79.950 553.950 79.850 553.850 79.850 H 550.950 C 550.895 79.850 550.850 79.895 550.850 79.950 V 87.950 V 90.950 C 550.850 91.005 550.895 91.050 550.950 91.050 H 553.950 Z" stroke="rgb(0,0,0)" stroke-width="0.20" />
  <path d="M 640.350 91.050 H 648.350 C 648.405 91.050 648.450 91.005 648.450 90.950 V 88.050 C 648.450 87.950 648.350 88.050 648.450 88.050 H 654.250 C 654.350 88.050 654.250 87.950 654.250 88.050 V 90.950 C 654.250 91.005 654.295 91.050 654.350 91.050 H 660.350 C 660.405 91.050 660.450 91.005 660.450 90.950 V 88.050 C 660.450 87.950 660.350 88.050 660.450 88.050 H 666.250 C 666.350 88.050 666.250 87.950 666.250 88.050 V 90.950 C 666.250 91.005 666.295 91.050 666.350 91.050 H 674.350 C 674.405 91.050 674.450 91.005 674.450 90.950 V 87.950 V 80.050 C 674.450 79.950 674.350 80.050 674.450 80.050 H 677.350 C 677.405 80.050 677.450 80.005 677.450 79.950 V 73.950 C 677.450 73.895 677.405 73.850 677.350 73.850 H 674.450 C 674.350 73.850 674.450 73.950 674.450 73.850 V 68.050 C 674.450 67.950 674.350 68.050 674.450 68.050 H 677.350 C 677.405 68.050 677.450 68.005 677.450 67.950 V 61.950 C 677.450 61.895 677.405 61.850 677.350 61.850 H 674.450 C 674.350 61.850 674.450 61.950 674.450 61.850 V 53.950 V 50.950 C 674.450 50.895 674.405 50.850 674.350 50.850 H 666.350 C 666.295 50.850 666.250 50.895 666.250 50.950 V 53.850 C 666.250 53.950 666.350 53.850 666.250 53.850 H 660.450 C 660.350 53.850 660.450 53.950 660.450 53.850 V 50.950 C 660.450 50.895 660.405 50.850 660.350 50.850 H 654.350 C 654.295 50.850 654.250 50.895 654.250 50.950 V 53.850 C 654.250 53.950 654.350 53.850 654.250 53.850 H 648.450 C 648.350 53.850 648.450 53.950 648.450 53.850 V 50.950 C 648.450 50.895 648.405 50.850 648.350 50.850 H 640.350 C 640.295 50.850 640.250 50.895 640.250 50.950 V 53.950 V 61.850 C 640.250 61.950 640.350 61.850 640.250 61.850 H 637.350 C 637.295 61.850 637.250 61.895 637.250 61.950 V 67.950 C 637.250 68.005 637.295 68.050 637.350 68.050 H 640.250 C 640.350 68.050 640.250 67.950 640.250 68.050 V 73.850 C 640.250 73.950 640.350 73.850 640.250 73.850 H 637.350 C 637.295 73.850 637.250 73.895 637.250 73.950 V 79.950 C 637.250 80.005 637.295 80.050 637.350 80.050 H 640.250 C 640.350 80.050 640.250 79.950 640.250 80.050 V 87.950 V 90.950 C 640.250 91.005 640.295 91.050 640.350 91.050 Z" stroke="rgb(0,0,0)" stroke-width="0.20" />
</g>
</svg>