<?xml version='1.0' encoding='utf-8'?>
<svg height="237.00mm" viewBox="0.0 0.0 320.50 237.00" width="320.50mm" xmlns="http://www.w3.org/2000/svg" xmlns:cc="http://creativecommons.org/ns#" xmlns:dc="http://purl.org/dc/elements/1.1/" xmlns:inkscape="http://www.inkscape.org/namespaces/inkscape" xmlns:rdf="http://www.w3.org/1999/02/22-rdf-syntax-ns#" xmlns:svg="http://www.w3.org/2000/svg" xmlns:xlink="http://www.w3.org/1999/xlink">
<!--
TrayInsert - Tray insert without floor and outer walls - allows only continuous walls

Created with Boxes.py (https://festi.info/boxes.py)
-->
<title>TrayInsert</title>
<metadata>
<rdf:RDF><cc:Work>
<dc:title>Tray - TrayInsert</dc:title>
<dc:description>Tray insert without floor and outer walls - allows only continuous walls

Created with Boxes.py (https://festi.info/boxes.py)
</dc:description>
</cc:Work></rdf:RDF></metadata>
<g id="p-0" style="fill:none;stroke-linecap:round;stroke-linejoin:round;">
  <path d="M 10.400 227.000 H 110.400 V 217.000 H 10.400 V 227.000 Z" stroke="rgb(0,0,0)" stroke-width="0.20" />
  <text dominant-baseline="hanging" font-size="8px" style="font-family: sans-serif ; font-weight: normal; font-style: normal; fill: rgb(255,0,0)" text-anchor="middle" transform="matrix( 1.000 0.000 0.000 1.000 60.400 218.000 )">100mm, burn:0.10mm</text>
</g>
<g id="p-1" style="fill:none;stroke-linecap:round;stroke-linejoin:round;">
  <path d="M 10.400 215.300 H 108.400 C 108.455 215.300 108.500 215.255 108.500 215.200 V 190.300 C 108.500 190.200 108.400 190.300 108.500 190.300 H 111.300 C 111.400 190.300 111.300 190.200 111.300 190.300 V 215.200 C 111.300 215.255 111.345 215.300 111.400 215.300 H 209.400 C 209.455 215.300 209.500 215.255 209.500 215.200 V 190.300 C 209.500 190.200 209.400 190.300 209.500 190.300 H 212.300 C 212.400 190.300 212.300 190.200 212.300 190.300 V 215.200 C 212.300 215.255 212.345 215.300 212.400 215.300 H 310.400 C 310.455 215.300 310.500 215.255 310.500 215.200 V 165.200 C 310.500 165.145 310.455 165.100 310.400 165.100 H 10.400 C 10.345 165.100 10.300 165.145 10.300 165.200 V 215.200 C 10.300 215.255 10.345 215.300 10.400 215.300 Z" stroke="rgb(0,0,0)" stroke-width="0.20" />
</g>
<g id="p-2" style="fill:none;stroke-linecap:round;stroke-linejoin:round;">
  <path d="M 10.400 163.600 H 108.400 C 108.455 163.600 108.500 163.555 108.500 163.500 V 138.600 C 108.500 138.500 108.400 138.600 108.500 138.600 H 111.300 C 111.400 138.600 111.300 138.500 111.300 138.600 V 163.500 C 111.300 163.555 111.345 163.600 111.400 163.600 H 209.400 C 209.455 163.600 209.500 163.555 209.500 163.500 V 138.600 C 209.500 138.500 209.400 138.600 209.500 138.600 H 212.300 C 212.400 138.600 212.300 138.500 212.300 138.600 V 163.500 C 212.300 163.555 212.345 163.600 212.400 163.600 H 310.400 C 310.455 163.600 310.500 163.555 310.500 163.500 V 113.500 C 310.500 113.445 310.455 113.400 310.400 113.400 H 10.400 C 10.345 113.400 10.300 113.445 10.300 113.500 V 163.500 C 10.300 163.555 10.345 163.600 10.400 163.600 Z" stroke="rgb(0,0,0)" stroke-width="0.20" />
</g>
<g id="p-3" style="fill:none;stroke-linecap:round;stroke-linejoin:round;">
  <path d="M 10.400 111.900 H 250.400 C 250.455 111.900 250.500 111.855 250.500 111.800 V 61.800 C 250.500 61.745 250.455 61.700 250.400 61.700 H 182.150 C 182.095 61.700 182.050 61.745 182.050 61.800 V 86.700 C 182.050 86.800 182.150 86.700 182.050 86.700 H 179.250 C 179.150 86.700 179.250 86.800 179.250 86.700 V 61.800 C 179.250 61.745 179.205 61.700 179.150 61.700 H 81.650 C 81.595 61.700 81.550 61.745 81.550 61.800 V 86.700 C 81.550 86.800 81.650 86.700 81.550 86.700 H 78.750 C 78.650 86.700 78.750 86.800 78.750 86.700 V 61.800 C 78.750 61.745 78.705 61.700 78.650 61.700 H 10.400 C 10.345 61.700 10.300 61.745 10.300 61.800 V 111.800 C 10.300 111.855 10.345 111.900 10.400 111.900 Z" stroke="rgb(0,0,0)" stroke-width="0.20" />
</g>
<g id="p-4" style="fill:none;stroke-linecap:round;stroke-linejoin:round;">
  <path d="M 10.400 60.200 H 250.400 C 250.455 60.200 250.500 60.155 250.500 60.100 V 10.100 C 250.500 10.045 250.455 10.000 250.400 10.000 H 182.150 C 182.095 10.000 182.050 10.045 182.050 10.100 V 35.000 C 182.050 35.100 182.150 35.000 182.050 35.000 H 179.250 C 179.150 35.000 179.250 35.100 179.250 35.000 V 10.100 C 179.250 10.045 179.205 10.000 179.150 10.000 H 81.650 C 81.595 10.000 81.550 10.045 81.550 10.100 V 35.000 C 81.550 35.100 81.650 35.000 81.550 35.000 H 78.750 C 78.650 35.000 78.750 35.100 78.750 35.000 V 10.100 C 78.750 10.045 78.705 10.000 78.650 10.000 H 10.400 C 10.345 10.000 10.300 10.045 10.300 10.100 V 60.100 C 10.300 60.155 10.345 60.200 10.400 60.200 Z" stroke="rgb(0,0,0)" stroke-width="0.20" />
</g>
</svg>
