<?xml version='1.0' encoding='utf-8'?>
<svg height="853.74mm" viewBox="0.0 0.0 382.45 853.74" width="382.45mm" xmlns="http://www.w3.org/2000/svg" xmlns:cc="http://creativecommons.org/ns#" xmlns:dc="http://purl.org/dc/elements/1.1/" xmlns:inkscape="http://www.inkscape.org/namespaces/inkscape" xmlns:rdf="http://www.w3.org/1999/02/22-rdf-syntax-ns#" xmlns:svg="http://www.w3.org/2000/svg" xmlns:xlink="http://www.w3.org/1999/xlink">
<!--
TriangleLamp - Triangle LED Lamp

Created with Boxes.py (https://festi.info/boxes.py)
Command line (remove spaces between dashes): boxes TriangleLamp
-->
<title>TriangleLamp</title>
<metadata>
<rdf:RDF><cc:Work>
<dc:title>Misc - TriangleLamp</dc:title>
<dc:source>boxes TriangleLamp</dc:source>
<dc:description>Triangle LED Lamp

Created with Boxes.py (https://festi.info/boxes.py)
Command line: boxes TriangleLamp
Command line short: boxes TriangleLamp
</dc:description>
</cc:Work></rdf:RDF></metadata>
<g id="p-0" style="fill:none;stroke-linecap:round;stroke-linejoin:round;">
  <path d="M 18.800 843.743 H 118.800 V 833.743 H 18.800 V 843.743 Z" stroke="rgb(0,0,0)" stroke-width="0.20" />
  <text dominant-baseline="hanging" font-size="8px" style="font-family: sans-serif ; font-weight: normal; font-style: normal; fill: rgb(255,0,0)" text-anchor="middle" transform="matrix( 1.000 0.000 0.000 1.000 68.800 834.743 )">100.00mm, burn:0.10mm</text>
</g>
<g id="p-1" style="fill:none;stroke-linecap:round;stroke-linejoin:round;">
  <path d="M 45.508 824.443 C 45.508 824.807 45.404 825.163 45.207 825.470 C 45.010 825.776 44.729 826.020 44.398 826.171 C 44.066 826.322 43.698 826.375 43.338 826.323 C 42.977 826.271 42.639 826.117 42.364 825.879 C 42.089 825.640 41.888 825.327 41.785 824.978 C 41.683 824.628 41.683 824.257 41.785 823.907 C 41.888 823.558 42.089 823.245 42.364 823.007 C 42.639 822.768 42.977 822.614 43.338 822.562 C 43.698 822.510 44.066 822.563 44.398 822.714 C 44.729 822.866 45.010 823.109 45.207 823.415 C 45.404 823.722 45.508 824.078 45.508 824.443 Z" stroke="rgb(0,0,255)" stroke-width="0.20" />
  <path d="M 23.608 832.043 H 273.608 C 273.664 832.043 273.708 831.998 273.708 831.943 V 581.943 C 273.708 581.887 273.664 581.843 273.608 581.843 C 273.582 581.843 273.556 581.853 273.538 581.872 L 23.538 831.872 C 23.519 831.891 23.508 831.916 23.508 831.943 C 23.508 831.998 23.553 832.043 23.608 832.043 Z" stroke="rgb(0,0,0)" stroke-width="0.20" />
  <path d="M 263.608 820.043 C 263.973 820.043 264.329 820.147 264.636 820.344 C 264.942 820.541 265.185 820.822 265.337 821.153 C 265.488 821.485 265.541 821.853 265.489 822.213 C 265.437 822.574 265.283 822.912 265.044 823.187 C 264.806 823.462 264.493 823.663 264.144 823.766 C 263.794 823.868 263.423 823.868 263.073 823.766 C 262.724 823.663 262.411 823.462 262.172 823.187 C 261.934 822.912 261.780 822.574 261.728 822.213 C 261.676 821.853 261.729 821.485 261.880 821.153 C 262.031 820.822 262.275 820.541 262.581 820.344 C 262.888 820.147 263.244 820.043 263.608 820.043 Z" stroke="rgb(0,0,255)" stroke-width="0.20" />
  <path d="M 266.108 600.043 C 266.473 600.043 266.829 600.147 267.136 600.344 C 267.442 600.541 267.685 600.822 267.837 601.153 C 267.988 601.485 268.041 601.853 267.989 602.213 C 267.937 602.574 267.783 602.912 267.544 603.187 C 267.306 603.462 266.993 603.663 266.644 603.766 C 266.294 603.868 265.923 603.868 265.573 603.766 C 265.224 603.663 264.911 603.462 264.672 603.187 C 264.434 602.912 264.280 602.574 264.228 602.213 C 264.176 601.853 264.229 601.485 264.380 601.153 C 264.531 600.822 264.775 600.541 265.081 600.344 C 265.388 600.147 265.744 600.043 266.108 600.043 Z" stroke="rgb(0,0,255)" stroke-width="0.20" />
  <path d="M 246.900 586.243 C 246.900 585.878 247.005 585.522 247.202 585.215 C 247.399 584.909 247.679 584.666 248.011 584.514 C 248.342 584.363 248.710 584.310 249.070 584.362 C 249.431 584.414 249.769 584.568 250.044 584.807 C 250.320 585.045 250.520 585.358 250.623 585.707 C 250.726 586.057 250.726 586.428 250.623 586.778 C 250.520 587.127 250.320 587.440 250.044 587.679 C 249.769 587.917 249.431 588.071 249.070 588.123 C 248.710 588.175 248.342 588.122 248.011 587.971 C 247.679 587.820 247.399 587.576 247.202 587.270 C 247.005 586.963 246.900 586.607 246.900 586.243 Z" stroke="rgb(0,0,255)" stroke-width="0.20" />
  <path d="M 268.800 578.643 H 18.800 C 18.745 578.643 18.700 578.687 18.700 578.743 V 828.743 C 18.700 828.798 18.745 828.843 18.800 828.843 C 18.827 828.843 18.852 828.832 18.871 828.813 L 268.871 578.813 C 268.889 578.795 268.900 578.769 268.900 578.743 C 268.900 578.687 268.855 578.643 268.800 578.643 Z" stroke="rgb(0,0,0)" stroke-width="0.20" />
  <path d="M 28.800 590.643 C 28.436 590.643 28.079 590.538 27.773 590.341 C 27.466 590.144 27.223 589.863 27.072 589.532 C 26.920 589.201 26.868 588.833 26.919 588.472 C 26.971 588.112 27.126 587.774 27.364 587.498 C 27.603 587.223 27.915 587.022 28.265 586.920 C 28.614 586.817 28.986 586.817 29.335 586.920 C 29.685 587.022 29.997 587.223 30.236 587.498 C 30.474 587.774 30.629 588.112 30.681 588.472 C 30.732 588.833 30.680 589.201 30.528 589.532 C 30.377 589.863 30.134 590.144 29.827 590.341 C 29.521 590.538 29.164 590.643 28.800 590.643 Z" stroke="rgb(0,0,255)" stroke-width="0.20" />
  <path d="M 26.300 810.643 C 25.936 810.643 25.579 810.538 25.273 810.341 C 24.966 810.144 24.723 809.863 24.572 809.532 C 24.420 809.201 24.368 808.833 24.419 808.472 C 24.471 808.112 24.626 807.774 24.864 807.498 C 25.103 807.223 25.415 807.022 25.765 806.920 C 26.114 806.817 26.486 806.817 26.835 806.920 C 27.185 807.022 27.497 807.223 27.736 807.498 C 27.974 807.774 28.129 808.112 28.181 808.472 C 28.232 808.833 28.180 809.201 28.028 809.532 C 27.877 809.863 27.634 810.144 27.327 810.341 C 27.021 810.538 26.664 810.643 26.300 810.643 Z" stroke="rgb(0,0,255)" stroke-width="0.20" />
</g>
<g id="p-2" style="fill:none;stroke-linecap:round;stroke-linejoin:round;">
  <path d="M 35.094 573.943 H 38.494 C 38.594 573.943 38.494 573.843 38.494 573.943 V 576.843 C 38.494 576.898 38.538 576.943 38.594 576.943 H 47.594 C 47.649 576.943 47.694 576.898 47.694 576.843 V 573.943 C 47.694 573.843 47.594 573.943 47.694 573.943 H 56.494 C 56.594 573.943 56.494 573.843 56.494 573.943 V 576.843 C 56.494 576.898 56.538 576.943 56.594 576.943 H 65.594 C 65.649 576.943 65.694 576.898 65.694 576.843 V 573.943 C 65.694 573.843 65.594 573.943 65.694 573.943 H 74.494 C 74.594 573.943 74.494 573.843 74.494 573.943 V 576.843 C 74.494 576.898 74.538 576.943 74.594 576.943 H 83.594 C 83.649 576.943 83.694 576.898 83.694 576.843 V 573.943 C 83.694 573.843 83.594 573.943 83.694 573.943 H 92.494 C 92.594 573.943 92.494 573.843 92.494 573.943 V 576.843 C 92.494 576.898 92.538 576.943 92.594 576.943 H 101.594 C 101.649 576.943 101.694 576.898 101.694 576.843 V 573.943 C 101.694 573.843 101.594 573.943 101.694 573.943 H 110.494 C 110.594 573.943 110.494 573.843 110.494 573.943 V 576.843 C 110.494 576.898 110.538 576.943 110.594 576.943 H 119.594 C 119.649 576.943 119.694 576.898 119.694 576.843 V 573.943 C 119.694 573.843 119.594 573.943 119.694 573.943 H 128.494 C 128.594 573.943 128.494 573.843 128.494 573.943 V 576.843 C 128.494 576.898 128.538 576.943 128.594 576.943 H 137.594 C 137.649 576.943 137.694 576.898 137.694 576.843 V 573.943 C 137.694 573.843 137.594 573.943 137.694 573.943 H 146.494 C 146.594 573.943 146.494 573.843 146.494 573.943 V 576.843 C 146.494 576.898 146.538 576.943 146.594 576.943 H 155.594 C 155.649 576.943 155.694 576.898 155.694 576.843 V 573.943 C 155.694 573.843 155.594 573.943 155.694 573.943 H 164.494 C 164.594 573.943 164.494 573.843 164.494 573.943 V 576.843 C 164.494 576.898 164.538 576.943 164.594 576.943 H 173.594 C 173.649 576.943 173.694 576.898 173.694 576.843 V 573.943 C 173.694 573.843 173.594 573.943 173.694 573.943 H 182.494 C 182.594 573.943 182.494 573.843 182.494 573.943 V 576.843 C 182.494 576.898 182.538 576.943 182.594 576.943 H 191.594 C 191.649 576.943 191.694 576.898 191.694 576.843 V 573.943 C 191.694 573.843 191.594 573.943 191.694 573.943 H 200.494 C 200.594 573.943 200.494 573.843 200.494 573.943 V 576.843 C 200.494 576.898 200.538 576.943 200.594 576.943 H 209.594 C 209.649 576.943 209.694 576.898 209.694 576.843 V 573.943 C 209.694 573.843 209.594 573.943 209.694 573.943 H 218.494 C 218.594 573.943 218.494 573.843 218.494 573.943 V 576.843 C 218.494 576.898 218.538 576.943 218.594 576.943 H 227.594 C 227.649 576.943 227.694 576.898 227.694 576.843 V 573.943 C 227.694 573.843 227.594 573.943 227.694 573.943 H 236.494 C 236.594 573.943 236.494 573.843 236.494 573.943 V 576.843 C 236.494 576.898 236.538 576.943 236.594 576.943 H 245.594 C 245.649 576.943 245.694 576.898 245.694 576.843 V 573.943 C 245.694 573.843 245.594 573.943 245.694 573.943 H 254.494 C 254.594 573.943 254.494 573.843 254.494 573.943 V 576.843 C 254.494 576.898 254.538 576.943 254.594 576.943 H 263.594 C 263.649 576.943 263.694 576.898 263.694 576.843 V 573.943 C 263.694 573.843 263.594 573.943 263.694 573.943 H 272.494 C 272.594 573.943 272.494 573.843 272.494 573.943 V 576.843 C 272.494 576.898 272.538 576.943 272.594 576.943 H 281.594 C 281.649 576.943 281.694 576.898 281.694 576.843 V 573.943 C 281.694 573.843 281.594 573.943 281.694 573.943 H 285.094 C 285.149 573.943 285.194 573.898 285.194 573.843 V 570.443 C 285.194 570.343 285.094 570.443 285.194 570.443 H 288.094 C 288.149 570.443 288.194 570.398 288.194 570.343 V 561.343 C 288.194 561.287 288.149 561.243 288.094 561.243 H 285.194 C 285.094 561.243 285.194 561.343 285.194 561.243 V 552.443 C 285.194 552.343 285.094 552.443 285.194 552.443 H 288.094 C 288.149 552.443 288.194 552.398 288.194 552.343 V 543.343 C 288.194 543.287 288.149 543.243 288.094 543.243 H 285.194 C 285.094 543.243 285.194 543.343 285.194 543.243 V 534.443 C 285.194 534.343 285.094 534.443 285.194 534.443 H 288.094 C 288.149 534.443 288.194 534.398 288.194 534.343 V 525.343 C 288.194 525.287 288.149 525.243 288.094 525.243 H 285.194 C 285.094 525.243 285.194 525.343 285.194 525.243 V 516.443 C 285.194 516.343 285.094 516.443 285.194 516.443 H 288.094 C 288.149 516.443 288.194 516.398 288.194 516.343 V 507.343 C 288.194 507.287 288.149 507.243 288.094 507.243 H 285.194 C 285.094 507.243 285.194 507.343 285.194 507.243 V 498.443 C 285.194 498.343 285.094 498.443 285.194 498.443 H 288.094 C 288.149 498.443 288.194 498.398 288.194 498.343 V 489.343 C 288.194 489.287 288.149 489.243 288.094 489.243 H 285.194 C 285.094 489.243 285.194 489.343 285.194 489.243 V 480.443 C 285.194 480.343 285.094 480.443 285.194 480.443 H 288.094 C 288.149 480.443 288.194 480.398 288.194 480.343 V 471.343 C 288.194 471.287 288.149 471.243 288.094 471.243 H 285.194 C 285.094 471.243 285.194 471.343 285.194 471.243 V 462.443 C 285.194 462.343 285.094 462.443 285.194 462.443 H 288.094 C 288.149 462.443 288.194 462.398 288.194 462.343 V 453.343 C 288.194 453.287 288.149 453.243 288.094 453.243 H 285.194 C 285.094 453.243 285.194 453.343 285.194 453.243 V 444.443 C 285.194 444.343 285.094 444.443 285.194 444.443 H 288.094 C 288.149 444.443 288.194 444.398 288.194 444.343 V 435.343 C 288.194 435.287 288.149 435.243 288.094 435.243 H 285.194 C 285.094 435.243 285.194 435.343 285.194 435.243 V 426.443 C 285.194 426.343 285.094 426.443 285.194 426.443 H 288.094 C 288.149 426.443 288.194 426.398 288.194 426.343 V 417.343 C 288.194 417.287 288.149 417.243 288.094 417.243 H 285.194 C 285.094 417.243 285.194 417.343 285.194 417.243 V 408.443 C 285.194 408.343 285.094 408.443 285.194 408.443 H 288.094 C 288.149 408.443 288.194 408.398 288.194 408.343 V 399.343 C 288.194 399.287 288.149 399.243 288.094 399.243 H 285.194 C 285.094 399.243 285.194 399.343 285.194 399.243 V 390.443 C 285.194 390.343 285.094 390.443 285.194 390.443 H 288.094 C 288.149 390.443 288.194 390.398 288.194 390.343 V 381.343 C 288.194 381.287 288.149 381.243 288.094 381.243 H 285.194 C 285.094 381.243 285.194 381.343 285.194 381.243 V 372.443 C 285.194 372.343 285.094 372.443 285.194 372.443 H 288.094 C 288.149 372.443 288.194 372.398 288.194 372.343 V 363.343 C 288.194 363.287 288.149 363.243 288.094 363.243 H 285.194 C 285.094 363.243 285.194 363.343 285.194 363.243 V 354.443 C 285.194 354.343 285.094 354.443 285.194 354.443 H 288.094 C 288.149 354.443 288.194 354.398 288.194 354.343 V 345.343 C 288.194 345.287 288.149 345.243 288.094 345.243 H 285.194 C 285.094 345.243 285.194 345.343 285.194 345.243 V 336.443 C 285.194 336.343 285.094 336.443 285.194 336.443 H 288.094 C 288.149 336.443 288.194 336.398 288.194 336.343 V 327.343 C 288.194 327.287 288.149 327.243 288.094 327.243 H 285.194 C 285.094 327.243 285.194 327.343 285.194 327.243 V 323.843 C 285.194 323.787 285.149 323.743 285.094 323.743 C 285.067 323.743 285.042 323.753 285.023 323.772 L 277.827 330.968 C 277.756 331.039 277.898 331.039 277.827 330.968 L 275.776 328.917 C 275.737 328.878 275.674 328.878 275.635 328.917 L 269.271 335.281 C 269.232 335.320 269.232 335.384 269.271 335.423 L 271.322 337.473 C 271.392 337.544 271.392 337.403 271.322 337.473 L 265.099 343.696 C 265.028 343.767 265.170 343.767 265.099 343.696 L 263.048 341.645 C 263.009 341.606 262.946 341.606 262.907 341.645 L 256.543 348.009 C 256.504 348.048 256.504 348.112 256.543 348.151 L 258.594 350.201 C 258.664 350.272 258.664 350.131 258.594 350.201 L 252.371 356.424 C 252.300 356.494 252.442 356.494 252.371 356.424 L 250.320 354.373 C 250.281 354.334 250.218 354.334 250.179 354.373 L 243.815 360.737 C 243.776 360.776 243.776 360.840 243.815 360.879 L 245.866 362.929 C 245.936 363.000 245.936 362.858 245.866 362.929 L 239.643 369.152 C 239.572 369.222 239.714 369.222 239.643 369.152 L 237.593 367.101 C 237.553 367.062 237.490 367.062 237.451 367.101 L 231.087 373.465 C 231.048 373.504 231.048 373.567 231.087 373.606 L 233.138 375.657 C 233.208 375.728 233.208 375.586 233.138 375.657 L 226.915 381.880 C 226.844 381.950 226.986 381.950 226.915 381.880 L 224.865 379.829 C 224.826 379.790 224.762 379.790 224.723 379.829 L 218.359 386.193 C 218.320 386.232 218.320 386.295 218.359 386.334 L 220.410 388.385 C 220.481 388.456 220.481 388.314 220.410 388.385 L 214.187 394.608 C 214.117 394.678 214.258 394.678 214.187 394.608 L 212.137 392.557 C 212.098 392.518 212.034 392.518 211.995 392.557 L 205.631 398.921 C 205.592 398.960 205.592 399.023 205.631 399.062 L 207.682 401.113 C 207.753 401.184 207.753 401.042 207.682 401.113 L 201.459 407.335 C 201.389 407.406 201.530 407.406 201.459 407.335 L 199.409 405.285 C 199.370 405.246 199.306 405.246 199.267 405.285 L 192.903 411.649 C 192.864 411.688 192.864 411.751 192.903 411.790 L 194.954 413.841 C 195.025 413.912 195.025 413.770 194.954 413.841 L 188.731 420.063 C 188.661 420.134 188.802 420.134 188.731 420.063 L 186.681 418.013 C 186.642 417.974 186.578 417.974 186.539 418.013 L 180.175 424.377 C 180.136 424.416 180.136 424.479 180.175 424.518 L 182.226 426.569 C 182.297 426.639 182.297 426.498 182.226 426.569 L 176.004 432.791 C 175.933 432.862 176.074 432.862 176.004 432.791 L 173.953 430.741 C 173.914 430.702 173.851 430.702 173.811 430.741 L 167.448 437.105 C 167.408 437.144 167.408 437.207 167.448 437.246 L 169.498 439.297 C 169.569 439.367 169.569 439.226 169.498 439.297 L 163.276 445.519 C 163.205 445.590 163.346 445.590 163.276 445.519 L 161.225 443.469 C 161.186 443.430 161.123 443.430 161.084 443.469 L 154.720 449.833 C 154.681 449.872 154.681 449.935 154.720 449.974 L 156.770 452.025 C 156.841 452.095 156.841 451.954 156.770 452.025 L 150.548 458.247 C 150.477 458.318 150.618 458.318 150.548 458.247 L 148.497 456.197 C 148.458 456.157 148.395 456.157 148.356 456.197 L 141.992 462.561 C 141.953 462.600 141.953 462.663 141.992 462.702 L 144.042 464.753 C 144.113 464.823 144.113 464.682 144.042 464.753 L 137.820 470.975 C 137.749 471.046 137.890 471.046 137.820 470.975 L 135.769 468.924 C 135.730 468.885 135.667 468.885 135.628 468.924 L 129.264 475.288 C 129.225 475.327 129.225 475.391 129.264 475.430 L 131.314 477.480 C 131.385 477.551 131.385 477.410 131.314 477.480 L 125.092 483.703 C 125.021 483.774 125.163 483.774 125.092 483.703 L 123.041 481.652 C 123.002 481.613 122.939 481.613 122.900 481.652 L 116.536 488.016 C 116.497 488.055 116.497 488.119 116.536 488.158 L 118.586 490.208 C 118.657 490.279 118.657 490.138 118.586 490.208 L 112.364 496.431 C 112.293 496.502 112.435 496.502 112.364 496.431 L 110.313 494.380 C 110.274 494.341 110.211 494.341 110.172 494.380 L 103.808 500.744 C 103.769 500.783 103.769 500.847 103.808 500.886 L 105.859 502.936 C 105.929 503.007 105.929 502.866 105.859 502.936 L 99.636 509.159 C 99.565 509.230 99.707 509.230 99.636 509.159 L 97.585 507.108 C 97.546 507.069 97.483 507.069 97.444 507.108 L 91.080 513.472 C 91.041 513.511 91.041 513.575 91.080 513.614 L 93.131 515.664 C 93.201 515.735 93.201 515.594 93.131 515.664 L 86.908 521.887 C 86.837 521.957 86.979 521.957 86.908 521.887 L 84.857 519.836 C 84.818 519.797 84.755 519.797 84.716 519.836 L 78.352 526.200 C 78.313 526.239 78.313 526.302 78.352 526.342 L 80.403 528.392 C 80.473 528.463 80.473 528.321 80.403 528.392 L 74.180 534.615 C 74.109 534.685 74.251 534.685 74.180 534.615 L 72.130 532.564 C 72.090 532.525 72.027 532.525 71.988 532.564 L 65.624 538.928 C 65.585 538.967 65.585 539.030 65.624 539.069 L 67.675 541.120 C 67.745 541.191 67.745 541.049 67.675 541.120 L 61.452 547.343 C 61.382 547.413 61.523 547.413 61.452 547.343 L 59.402 545.292 C 59.363 545.253 59.299 545.253 59.260 545.292 L 52.896 551.656 C 52.857 551.695 52.857 551.758 52.896 551.797 L 54.947 553.848 C 55.018 553.919 55.018 553.777 54.947 553.848 L 48.724 560.071 C 48.654 560.141 48.795 560.141 48.724 560.071 L 46.674 558.020 C 46.635 557.981 46.571 557.981 46.532 558.020 L 40.168 564.384 C 40.129 564.423 40.129 564.486 40.168 564.525 L 42.219 566.576 C 42.290 566.647 42.290 566.505 42.219 566.576 L 35.023 573.772 C 35.004 573.791 34.994 573.816 34.994 573.843 C 34.994 573.898 35.038 573.943 35.094 573.943 Z" stroke="rgb(0,0,0)" stroke-width="0.20" />
  <path d="M 271.800 321.421 H 268.400 C 268.300 321.421 268.400 321.521 268.400 321.421 V 318.521 C 268.400 318.466 268.355 318.421 268.300 318.421 H 259.300 C 259.245 318.421 259.200 318.466 259.200 318.521 V 321.421 C 259.200 321.521 259.300 321.421 259.200 321.421 H 250.400 C 250.300 321.421 250.400 321.521 250.400 321.421 V 318.521 C 250.400 318.466 250.355 318.421 250.300 318.421 H 241.300 C 241.245 318.421 241.200 318.466 241.200 318.521 V 321.421 C 241.200 321.521 241.300 321.421 241.200 321.421 H 232.400 C 232.300 321.421 232.400 321.521 232.400 321.421 V 318.521 C 232.400 318.466 232.355 318.421 232.300 318.421 H 223.300 C 223.245 318.421 223.200 318.466 223.200 318.521 V 321.421 C 223.200 321.521 223.300 321.421 223.200 321.421 H 214.400 C 214.300 321.421 214.400 321.521 214.400 321.421 V 318.521 C 214.400 318.466 214.355 318.421 214.300 318.421 H 205.300 C 205.245 318.421 205.200 318.466 205.200 318.521 V 321.421 C 205.200 321.521 205.300 321.421 205.200 321.421 H 196.400 C 196.300 321.421 196.400 321.521 196.400 321.421 V 318.521 C 196.400 318.466 196.355 318.421 196.300 318.421 H 187.300 C 187.245 318.421 187.200 318.466 187.200 318.521 V 321.421 C 187.200 321.521 187.300 321.421 187.200 321.421 H 178.400 C 178.300 321.421 178.400 321.521 178.400 321.421 V 318.521 C 178.400 318.466 178.355 318.421 178.300 318.421 H 169.300 C 169.245 318.421 169.200 318.466 169.200 318.521 V 321.421 C 169.200 321.521 169.300 321.421 169.200 321.421 H 160.400 C 160.300 321.421 160.400 321.521 160.400 321.421 V 318.521 C 160.400 318.466 160.355 318.421 160.300 318.421 H 151.300 C 151.245 318.421 151.200 318.466 151.200 318.521 V 321.421 C 151.200 321.521 151.300 321.421 151.200 321.421 H 142.400 C 142.300 321.421 142.400 321.521 142.400 321.421 V 318.521 C 142.400 318.466 142.355 318.421 142.300 318.421 H 133.300 C 133.245 318.421 133.200 318.466 133.200 318.521 V 321.421 C 133.200 321.521 133.300 321.421 133.200 321.421 H 124.400 C 124.300 321.421 124.400 321.521 124.400 321.421 V 318.521 C 124.400 318.466 124.355 318.421 124.300 318.421 H 115.300 C 115.245 318.421 115.200 318.466 115.200 318.521 V 321.421 C 115.200 321.521 115.300 321.421 115.200 321.421 H 106.400 C 106.300 321.421 106.400 321.521 106.400 321.421 V 318.521 C 106.400 318.466 106.355 318.421 106.300 318.421 H 97.300 C 97.245 318.421 97.200 318.466 97.200 318.521 V 321.421 C 97.200 321.521 97.300 321.421 97.200 321.421 H 88.400 C 88.300 321.421 88.400 321.521 88.400 321.421 V 318.521 C 88.400 318.466 88.355 318.421 88.300 318.421 H 79.300 C 79.245 318.421 79.200 318.466 79.200 318.521 V 321.421 C 79.200 321.521 79.300 321.421 79.200 321.421 H 70.400 C 70.300 321.421 70.400 321.521 70.400 321.421 V 318.521 C 70.400 318.466 70.355 318.421 70.300 318.421 H 61.300 C 61.245 318.421 61.200 318.466 61.200 318.521 V 321.421 C 61.200 321.521 61.300 321.421 61.200 321.421 H 52.400 C 52.300 321.421 52.400 321.521 52.400 321.421 V 318.521 C 52.400 318.466 52.355 318.421 52.300 318.421 H 43.300 C 43.245 318.421 43.200 318.466 43.200 318.521 V 321.421 C 43.200 321.521 43.300 321.421 43.200 321.421 H 34.400 C 34.300 321.421 34.400 321.521 34.400 321.421 V 318.521 C 34.400 318.466 34.355 318.421 34.300 318.421 H 25.300 C 25.245 318.421 25.200 318.466 25.200 318.521 V 321.421 C 25.200 321.521 25.300 321.421 25.200 321.421 H 21.800 C 21.745 321.421 21.700 321.466 21.700 321.521 V 324.921 C 21.700 325.021 21.800 324.921 21.700 324.921 H 18.800 C 18.745 324.921 18.700 324.966 18.700 325.021 V 334.021 C 18.700 334.077 18.745 334.121 18.800 334.121 H 21.700 C 21.800 334.121 21.700 334.021 21.700 334.121 V 342.921 C 21.700 343.021 21.800 342.921 21.700 342.921 H 18.800 C 18.745 342.921 18.700 342.966 18.700 343.021 V 352.021 C 18.700 352.077 18.745 352.121 18.800 352.121 H 21.700 C 21.800 352.121 21.700 352.021 21.700 352.121 V 360.921 C 21.700 361.021 21.800 360.921 21.700 360.921 H 18.800 C 18.745 360.921 18.700 360.966 18.700 361.021 V 370.021 C 18.700 370.077 18.745 370.121 18.800 370.121 H 21.700 C 21.800 370.121 21.700 370.021 21.700 370.121 V 378.921 C 21.700 379.021 21.800 378.921 21.700 378.921 H 18.800 C 18.745 378.921 18.700 378.966 18.700 379.021 V 388.021 C 18.700 388.077 18.745 388.121 18.800 388.121 H 21.700 C 21.800 388.121 21.700 388.021 21.700 388.121 V 396.921 C 21.700 397.021 21.800 396.921 21.700 396.921 H 18.800 C 18.745 396.921 18.700 396.966 18.700 397.021 V 406.021 C 18.700 406.077 18.745 406.121 18.800 406.121 H 21.700 C 21.800 406.121 21.700 406.021 21.700 406.121 V 414.921 C 21.700 415.021 21.800 414.921 21.700 414.921 H 18.800 C 18.745 414.921 18.700 414.966 18.700 415.021 V 424.021 C 18.700 424.077 18.745 424.121 18.800 424.121 H 21.700 C 21.800 424.121 21.700 424.021 21.700 424.121 V 432.921 C 21.700 433.021 21.800 432.921 21.700 432.921 H 18.800 C 18.745 432.921 18.700 432.966 18.700 433.021 V 442.021 C 18.700 442.077 18.745 442.121 18.800 442.121 H 21.700 C 21.800 442.121 21.700 442.021 21.700 442.121 V 450.921 C 21.700 451.021 21.800 450.921 21.700 450.921 H 18.800 C 18.745 450.921 18.700 450.966 18.700 451.021 V 460.021 C 18.700 460.077 18.745 460.121 18.800 460.121 H 21.700 C 21.800 460.121 21.700 460.021 21.700 460.121 V 468.921 C 21.700 469.021 21.800 468.921 21.700 468.921 H 18.800 C 18.745 468.921 18.700 468.966 18.700 469.021 V 478.021 C 18.700 478.077 18.745 478.121 18.800 478.121 H 21.700 C 21.800 478.121 21.700 478.021 21.700 478.121 V 486.921 C 21.700 487.021 21.800 486.921 21.700 486.921 H 18.800 C 18.745 486.921 18.700 486.966 18.700 487.021 V 496.021 C 18.700 496.077 18.745 496.121 18.800 496.121 H 21.700 C 21.800 496.121 21.700 496.021 21.700 496.121 V 504.921 C 21.700 505.021 21.800 504.921 21.700 504.921 H 18.800 C 18.745 504.921 18.700 504.966 18.700 505.021 V 514.021 C 18.700 514.077 18.745 514.121 18.800 514.121 H 21.700 C 21.800 514.121 21.700 514.021 21.700 514.121 V 522.921 C 21.700 523.021 21.800 522.921 21.700 522.921 H 18.800 C 18.745 522.921 18.700 522.966 18.700 523.021 V 532.021 C 18.700 532.077 18.745 532.121 18.800 532.121 H 21.700 C 21.800 532.121 21.700 532.021 21.700 532.121 V 540.921 C 21.700 541.021 21.800 540.921 21.700 540.921 H 18.800 C 18.745 540.921 18.700 540.966 18.700 541.021 V 550.021 C 18.700 550.077 18.745 550.121 18.800 550.121 H 21.700 C 21.800 550.121 21.700 550.021 21.700 550.121 V 558.921 C 21.700 559.021 21.800 558.921 21.700 558.921 H 18.800 C 18.745 558.921 18.700 558.966 18.700 559.021 V 568.021 C 18.700 568.077 18.745 568.121 18.800 568.121 H 21.700 C 21.800 568.121 21.700 568.021 21.700 568.121 V 571.521 C 21.700 571.577 21.745 571.621 21.800 571.621 C 21.827 571.621 21.852 571.611 21.871 571.592 L 29.067 564.396 C 29.137 564.325 28.996 564.325 29.067 564.396 L 31.117 566.447 C 31.156 566.486 31.220 566.486 31.259 566.447 L 37.623 560.083 C 37.662 560.044 37.662 559.980 37.623 559.941 L 35.572 557.891 C 35.501 557.820 35.501 557.961 35.572 557.891 L 41.795 551.668 C 41.865 551.597 41.724 551.597 41.795 551.668 L 43.845 553.719 C 43.884 553.758 43.948 553.758 43.987 553.719 L 50.351 547.355 C 50.390 547.316 50.390 547.252 50.351 547.213 L 48.300 545.163 C 48.229 545.092 48.229 545.233 48.300 545.163 L 54.523 538.940 C 54.593 538.869 54.452 538.869 54.523 538.940 L 56.573 540.991 C 56.612 541.030 56.676 541.030 56.715 540.991 L 63.079 534.627 C 63.118 534.588 63.118 534.524 63.079 534.485 L 61.028 532.435 C 60.957 532.364 60.957 532.506 61.028 532.435 L 67.250 526.212 C 67.321 526.142 67.180 526.142 67.250 526.212 L 69.301 528.263 C 69.340 528.302 69.403 528.302 69.443 528.263 L 75.806 521.899 C 75.846 521.860 75.846 521.797 75.806 521.757 L 73.756 519.707 C 73.685 519.636 73.685 519.778 73.756 519.707 L 79.978 513.484 C 80.049 513.414 79.908 513.414 79.978 513.484 L 82.029 515.535 C 82.068 515.574 82.131 515.574 82.170 515.535 L 88.534 509.171 C 88.573 509.132 88.573 509.069 88.534 509.030 L 86.484 506.979 C 86.413 506.908 86.413 507.050 86.484 506.979 L 92.706 500.756 C 92.777 500.686 92.636 500.686 92.706 500.756 L 94.757 502.807 C 94.796 502.846 94.859 502.846 94.898 502.807 L 101.262 496.443 C 101.301 496.404 101.301 496.341 101.262 496.302 L 99.212 494.251 C 99.141 494.180 99.141 494.322 99.212 494.251 L 105.434 488.028 C 105.505 487.958 105.364 487.958 105.434 488.028 L 107.485 490.079 C 107.524 490.118 107.587 490.118 107.626 490.079 L 113.990 483.715 C 114.029 483.676 114.029 483.613 113.990 483.574 L 111.940 481.523 C 111.869 481.452 111.869 481.594 111.940 481.523 L 118.162 475.301 C 118.233 475.230 118.091 475.230 118.162 475.301 L 120.213 477.351 C 120.252 477.390 120.315 477.390 120.354 477.351 L 126.718 470.987 C 126.757 470.948 126.757 470.885 126.718 470.846 L 124.668 468.795 C 124.597 468.724 124.597 468.866 124.668 468.795 L 130.890 462.573 C 130.961 462.502 130.819 462.502 130.890 462.573 L 132.941 464.623 C 132.980 464.662 133.043 464.662 133.082 464.623 L 139.446 458.259 C 139.485 458.220 139.485 458.157 139.446 458.118 L 137.395 456.067 C 137.325 455.997 137.325 456.138 137.395 456.067 L 143.618 449.845 C 143.689 449.774 143.547 449.774 143.618 449.845 L 145.669 451.895 C 145.708 451.934 145.771 451.934 145.810 451.895 L 152.174 445.531 C 152.213 445.492 152.213 445.429 152.174 445.390 L 150.123 443.339 C 150.053 443.269 150.053 443.410 150.123 443.339 L 156.346 437.117 C 156.417 437.046 156.275 437.046 156.346 437.117 L 158.397 439.167 C 158.436 439.206 158.499 439.206 158.538 439.167 L 164.902 432.803 C 164.941 432.764 164.941 432.701 164.902 432.662 L 162.851 430.611 C 162.781 430.541 162.781 430.682 162.851 430.611 L 169.074 424.389 C 169.145 424.318 169.003 424.318 169.074 424.389 L 171.124 426.439 C 171.164 426.479 171.227 426.479 171.266 426.439 L 177.630 420.076 C 177.669 420.036 177.669 419.973 177.630 419.934 L 175.579 417.883 C 175.509 417.813 175.509 417.954 175.579 417.883 L 181.802 411.661 C 181.872 411.590 181.731 411.590 181.802 411.661 L 183.852 413.712 C 183.891 413.751 183.955 413.751 183.994 413.712 L 190.358 407.348 C 190.397 407.309 190.397 407.245 190.358 407.206 L 188.307 405.156 C 188.236 405.085 188.236 405.226 188.307 405.156 L 194.530 398.933 C 194.600 398.862 194.459 398.862 194.530 398.933 L 196.580 400.984 C 196.619 401.023 196.683 401.023 196.722 400.984 L 203.086 394.620 C 203.125 394.581 203.125 394.517 203.086 394.478 L 201.035 392.428 C 200.964 392.357 200.964 392.498 201.035 392.428 L 207.258 386.205 C 207.328 386.134 207.187 386.134 207.258 386.205 L 209.308 388.256 C 209.347 388.295 209.411 388.295 209.450 388.256 L 215.814 381.892 C 215.853 381.853 215.853 381.789 215.814 381.750 L 213.763 379.700 C 213.692 379.629 213.692 379.770 213.763 379.700 L 219.986 373.477 C 220.056 373.406 219.915 373.406 219.986 373.477 L 222.036 375.528 C 222.075 375.567 222.139 375.567 222.178 375.528 L 228.542 369.164 C 228.581 369.125 228.581 369.061 228.542 369.022 L 226.491 366.972 C 226.420 366.901 226.420 367.043 226.491 366.972 L 232.713 360.749 C 232.784 360.679 232.643 360.679 232.713 360.749 L 234.764 362.800 C 234.803 362.839 234.866 362.839 234.906 362.800 L 241.269 356.436 C 241.309 356.397 241.309 356.334 241.269 356.294 L 239.219 354.244 C 239.148 354.173 239.148 354.315 239.219 354.244 L 245.441 348.021 C 245.512 347.951 245.371 347.951 245.441 348.021 L 247.492 350.072 C 247.531 350.111 247.594 350.111 247.633 350.072 L 253.997 343.708 C 254.036 343.669 254.036 343.606 253.997 343.567 L 251.947 341.516 C 251.876 341.445 251.876 341.587 251.947 341.516 L 258.169 335.293 C 258.240 335.223 258.099 335.223 258.169 335.293 L 260.220 337.344 C 260.259 337.383 260.322 337.383 260.361 337.344 L 266.725 330.980 C 266.764 330.941 266.764 330.878 266.725 330.839 L 264.675 328.788 C 264.604 328.717 264.604 328.859 264.675 328.788 L 271.871 321.592 C 271.889 321.573 271.900 321.548 271.900 321.521 C 271.900 321.466 271.855 321.421 271.800 321.421 Z" stroke="rgb(0,0,0)" stroke-width="0.20" />
</g>
<g id="p-3" style="fill:none;stroke-linecap:round;stroke-linejoin:round;">
  <path d="M 33.800 279.521 H 29.400 C 29.300 279.521 29.400 279.621 29.400 279.521 V 276.721 C 29.400 276.621 29.300 276.721 29.400 276.721 H 38.200 C 38.300 276.721 38.200 276.621 38.200 276.721 V 279.521 C 38.200 279.621 38.300 279.521 38.200 279.521 H 33.800 Z" stroke="rgb(0,0,255)" stroke-width="0.20" />
  <path d="M 253.800 276.721 H 258.200 C 258.300 276.721 258.200 276.621 258.200 276.721 V 279.521 C 258.200 279.621 258.300 279.521 258.200 279.521 H 249.400 C 249.300 279.521 249.400 279.621 249.400 279.521 V 276.721 C 249.400 276.621 249.300 276.721 249.400 276.721 H 253.800 Z" stroke="rgb(0,0,255)" stroke-width="0.20" />
  <path d="M 18.800 316.721 H 22.300 C 22.355 316.721 22.400 316.677 22.400 316.621 V 313.721 C 22.400 313.621 22.300 313.721 22.400 313.721 H 31.200 C 31.300 313.721 31.200 313.621 31.200 313.721 V 316.621 C 31.200 316.677 31.245 316.721 31.300 316.721 H 40.300 C 40.355 316.721 40.400 316.677 40.400 316.621 V 313.721 C 40.400 313.621 40.300 313.721 40.400 313.721 H 49.200 C 49.300 313.721 49.200 313.621 49.200 313.721 V 316.621 C 49.200 316.677 49.245 316.721 49.300 316.721 H 58.300 C 58.355 316.721 58.400 316.677 58.400 316.621 V 313.721 C 58.400 313.621 58.300 313.721 58.400 313.721 H 67.200 C 67.300 313.721 67.200 313.621 67.200 313.721 V 316.621 C 67.200 316.677 67.245 316.721 67.300 316.721 H 76.300 C 76.355 316.721 76.400 316.677 76.400 316.621 V 313.721 C 76.400 313.621 76.300 313.721 76.400 313.721 H 85.200 C 85.300 313.721 85.200 313.621 85.200 313.721 V 316.621 C 85.200 316.677 85.245 316.721 85.300 316.721 H 94.300 C 94.355 316.721 94.400 316.677 94.400 316.621 V 313.721 C 94.400 313.621 94.300 313.721 94.400 313.721 H 103.200 C 103.300 313.721 103.200 313.621 103.200 313.721 V 316.621 C 103.200 316.677 103.245 316.721 103.300 316.721 H 112.300 C 112.355 316.721 112.400 316.677 112.400 316.621 V 313.721 C 112.400 313.621 112.300 313.721 112.400 313.721 H 121.200 C 121.300 313.721 121.200 313.621 121.200 313.721 V 316.621 C 121.200 316.677 121.245 316.721 121.300 316.721 H 130.300 C 130.355 316.721 130.400 316.677 130.400 316.621 V 313.721 C 130.400 313.621 130.300 313.721 130.400 313.721 H 139.200 C 139.300 313.721 139.200 313.621 139.200 313.721 V 316.621 C 139.200 316.677 139.245 316.721 139.300 316.721 H 148.300 C 148.355 316.721 148.400 316.677 148.400 316.621 V 313.721 C 148.400 313.621 148.300 313.721 148.400 313.721 H 157.200 C 157.300 313.721 157.200 313.621 157.200 313.721 V 316.621 C 157.200 316.677 157.245 316.721 157.300 316.721 H 166.300 C 166.355 316.721 166.400 316.677 166.400 316.621 V 313.721 C 166.400 313.621 166.300 313.721 166.400 313.721 H 175.200 C 175.300 313.721 175.200 313.621 175.200 313.721 V 316.621 C 175.200 316.677 175.245 316.721 175.300 316.721 H 184.300 C 184.355 316.721 184.400 316.677 184.400 316.621 V 313.721 C 184.400 313.621 184.300 313.721 184.400 313.721 H 193.200 C 193.300 313.721 193.200 313.621 193.200 313.721 V 316.621 C 193.200 316.677 193.245 316.721 193.300 316.721 H 202.300 C 202.355 316.721 202.400 316.677 202.400 316.621 V 313.721 C 202.400 313.621 202.300 313.721 202.400 313.721 H 211.200 C 211.300 313.721 211.200 313.621 211.200 313.721 V 316.621 C 211.200 316.677 211.245 316.721 211.300 316.721 H 220.300 C 220.355 316.721 220.400 316.677 220.400 316.621 V 313.721 C 220.400 313.621 220.300 313.721 220.400 313.721 H 229.200 C 229.300 313.721 229.200 313.621 229.200 313.721 V 316.621 C 229.200 316.677 229.245 316.721 229.300 316.721 H 238.300 C 238.355 316.721 238.400 316.677 238.400 316.621 V 313.721 C 238.400 313.621 238.300 313.721 238.400 313.721 H 247.200 C 247.300 313.721 247.200 313.621 247.200 313.721 V 316.621 C 247.200 316.677 247.245 316.721 247.300 316.721 H 256.300 C 256.355 316.721 256.400 316.677 256.400 316.621 V 313.721 C 256.400 313.621 256.300 313.721 256.400 313.721 H 265.200 C 265.300 313.721 265.200 313.621 265.200 313.721 V 316.621 C 265.200 316.677 265.245 316.721 265.300 316.721 H 268.800 C 268.855 316.721 268.900 316.677 268.900 316.621 V 313.621 V 307.221 C 268.900 307.121 268.800 307.221 268.900 307.221 H 271.800 C 271.855 307.221 271.900 307.177 271.900 307.121 V 298.121 C 271.900 298.066 271.855 298.021 271.800 298.021 H 268.900 C 268.800 298.021 268.900 298.121 268.900 298.021 V 289.221 C 268.900 289.121 268.800 289.221 268.900 289.221 H 271.800 C 271.855 289.221 271.900 289.177 271.900 289.121 V 280.121 C 271.900 280.066 271.855 280.021 271.800 280.021 H 268.900 C 268.800 280.021 268.900 280.121 268.900 280.021 V 273.621 C 268.900 273.566 268.855 273.521 268.800 273.521 H 18.800 C 18.745 273.521 18.700 273.566 18.700 273.621 V 313.621 V 316.621 C 18.700 316.677 18.745 316.721 18.800 316.721 Z" stroke="rgb(0,0,0)" stroke-width="0.20" />
</g>
<g id="p-4" style="fill:none;stroke-linecap:round;stroke-linejoin:round;">
  <path d="M 33.800 234.821 H 29.400 C 29.300 234.821 29.400 234.921 29.400 234.821 V 232.021 C 29.400 231.921 29.300 232.021 29.400 232.021 H 38.200 C 38.300 232.021 38.200 231.921 38.200 232.021 V 234.821 C 38.200 234.921 38.300 234.821 38.200 234.821 H 33.800 Z" stroke="rgb(0,0,255)" stroke-width="0.20" />
  <path d="M 253.800 232.021 H 258.200 C 258.300 232.021 258.200 231.921 258.200 232.021 V 234.821 C 258.200 234.921 258.300 234.821 258.200 234.821 H 249.400 C 249.300 234.821 249.400 234.921 249.400 234.821 V 232.021 C 249.400 231.921 249.300 232.021 249.400 232.021 H 253.800 Z" stroke="rgb(0,0,255)" stroke-width="0.20" />
  <path d="M 18.800 272.021 H 22.300 C 22.355 272.021 22.400 271.977 22.400 271.921 V 269.021 C 22.400 268.921 22.300 269.021 22.400 269.021 H 31.200 C 31.300 269.021 31.200 268.921 31.200 269.021 V 271.921 C 31.200 271.977 31.245 272.021 31.300 272.021 H 40.300 C 40.355 272.021 40.400 271.977 40.400 271.921 V 269.021 C 40.400 268.921 40.300 269.021 40.400 269.021 H 49.200 C 49.300 269.021 49.200 268.921 49.200 269.021 V 271.921 C 49.200 271.977 49.245 272.021 49.300 272.021 H 58.300 C 58.355 272.021 58.400 271.977 58.400 271.921 V 269.021 C 58.400 268.921 58.300 269.021 58.400 269.021 H 67.200 C 67.300 269.021 67.200 268.921 67.200 269.021 V 271.921 C 67.200 271.977 67.245 272.021 67.300 272.021 H 76.300 C 76.355 272.021 76.400 271.977 76.400 271.921 V 269.021 C 76.400 268.921 76.300 269.021 76.400 269.021 H 85.200 C 85.300 269.021 85.200 268.921 85.200 269.021 V 271.921 C 85.200 271.977 85.245 272.021 85.300 272.021 H 94.300 C 94.355 272.021 94.400 271.977 94.400 271.921 V 269.021 C 94.400 268.921 94.300 269.021 94.400 269.021 H 103.200 C 103.300 269.021 103.200 268.921 103.200 269.021 V 271.921 C 103.200 271.977 103.245 272.021 103.300 272.021 H 112.300 C 112.355 272.021 112.400 271.977 112.400 271.921 V 269.021 C 112.400 268.921 112.300 269.021 112.400 269.021 H 121.200 C 121.300 269.021 121.200 268.921 121.200 269.021 V 271.921 C 121.200 271.977 121.245 272.021 121.300 272.021 H 130.300 C 130.355 272.021 130.400 271.977 130.400 271.921 V 269.021 C 130.400 268.921 130.300 269.021 130.400 269.021 H 139.200 C 139.300 269.021 139.200 268.921 139.200 269.021 V 271.921 C 139.200 271.977 139.245 272.021 139.300 272.021 H 148.300 C 148.355 272.021 148.400 271.977 148.400 271.921 V 269.021 C 148.400 268.921 148.300 269.021 148.400 269.021 H 157.200 C 157.300 269.021 157.200 268.921 157.200 269.021 V 271.921 C 157.200 271.977 157.245 272.021 157.300 272.021 H 166.300 C 166.355 272.021 166.400 271.977 166.400 271.921 V 269.021 C 166.400 268.921 166.300 269.021 166.400 269.021 H 175.200 C 175.300 269.021 175.200 268.921 175.200 269.021 V 271.921 C 175.200 271.977 175.245 272.021 175.300 272.021 H 184.300 C 184.355 272.021 184.400 271.977 184.400 271.921 V 269.021 C 184.400 268.921 184.300 269.021 184.400 269.021 H 193.200 C 193.300 269.021 193.200 268.921 193.200 269.021 V 271.921 C 193.200 271.977 193.245 272.021 193.300 272.021 H 202.300 C 202.355 272.021 202.400 271.977 202.400 271.921 V 269.021 C 202.400 268.921 202.300 269.021 202.400 269.021 H 211.200 C 211.300 269.021 211.200 268.921 211.200 269.021 V 271.921 C 211.200 271.977 211.245 272.021 211.300 272.021 H 220.300 C 220.355 272.021 220.400 271.977 220.400 271.921 V 269.021 C 220.400 268.921 220.300 269.021 220.400 269.021 H 229.200 C 229.300 269.021 229.200 268.921 229.200 269.021 V 271.921 C 229.200 271.977 229.245 272.021 229.300 272.021 H 238.300 C 238.355 272.021 238.400 271.977 238.400 271.921 V 269.021 C 238.400 268.921 238.300 269.021 238.400 269.021 H 247.200 C 247.300 269.021 247.200 268.921 247.200 269.021 V 271.921 C 247.200 271.977 247.245 272.021 247.300 272.021 H 256.300 C 256.355 272.021 256.400 271.977 256.400 271.921 V 269.021 C 256.400 268.921 256.300 269.021 256.400 269.021 H 265.200 C 265.300 269.021 265.200 268.921 265.200 269.021 V 271.921 C 265.200 271.977 265.245 272.021 265.300 272.021 H 268.800 C 268.855 272.021 268.900 271.977 268.900 271.921 V 268.921 V 262.521 C 268.900 262.421 268.800 262.521 268.900 262.521 H 271.800 C 271.855 262.521 271.900 262.477 271.900 262.421 V 253.421 C 271.900 253.366 271.855 253.321 271.800 253.321 H 268.900 C 268.800 253.321 268.900 253.421 268.900 253.321 V 244.521 C 268.900 244.421 268.800 244.521 268.900 244.521 H 271.800 C 271.855 244.521 271.900 244.477 271.900 244.421 V 235.421 C 271.900 235.366 271.855 235.321 271.800 235.321 H 268.900 C 268.800 235.321 268.900 235.421 268.900 235.321 V 228.921 C 268.900 228.866 268.855 228.821 268.800 228.821 H 18.800 C 18.745 228.821 18.700 228.866 18.700 228.921 V 268.921 V 271.921 C 18.700 271.977 18.745 272.021 18.800 272.021 Z" stroke="rgb(0,0,0)" stroke-width="0.20" />
</g>
<g id="p-5" style="fill:none;stroke-linecap:round;stroke-linejoin:round;">
  <path d="M 36.800 190.121 H 32.400 C 32.300 190.121 32.400 190.221 32.400 190.121 V 187.321 C 32.400 187.221 32.300 187.321 32.400 187.321 H 41.200 C 41.300 187.321 41.200 187.221 41.200 187.321 V 190.121 C 41.200 190.221 41.300 190.121 41.200 190.121 H 36.800 Z" stroke="rgb(0,0,255)" stroke-width="0.20" />
  <path d="M 256.800 187.321 H 261.200 C 261.300 187.321 261.200 187.221 261.200 187.321 V 190.121 C 261.200 190.221 261.300 190.121 261.200 190.121 H 252.400 C 252.300 190.121 252.400 190.221 252.400 190.121 V 187.321 C 252.400 187.221 252.300 187.321 252.400 187.321 H 256.800 Z" stroke="rgb(0,0,255)" stroke-width="0.20" />
  <path d="M 21.800 227.321 H 25.300 C 25.355 227.321 25.400 227.277 25.400 227.221 V 224.321 C 25.400 224.221 25.300 224.321 25.400 224.321 H 34.200 C 34.300 224.321 34.200 224.221 34.200 224.321 V 227.221 C 34.200 227.277 34.245 227.321 34.300 227.321 H 43.300 C 43.355 227.321 43.400 227.277 43.400 227.221 V 224.321 C 43.400 224.221 43.300 224.321 43.400 224.321 H 52.200 C 52.300 224.321 52.200 224.221 52.200 224.321 V 227.221 C 52.200 227.277 52.245 227.321 52.300 227.321 H 61.300 C 61.355 227.321 61.400 227.277 61.400 227.221 V 224.321 C 61.400 224.221 61.300 224.321 61.400 224.321 H 70.200 C 70.300 224.321 70.200 224.221 70.200 224.321 V 227.221 C 70.200 227.277 70.245 227.321 70.300 227.321 H 79.300 C 79.355 227.321 79.400 227.277 79.400 227.221 V 224.321 C 79.400 224.221 79.300 224.321 79.400 224.321 H 88.200 C 88.300 224.321 88.200 224.221 88.200 224.321 V 227.221 C 88.200 227.277 88.245 227.321 88.300 227.321 H 97.300 C 97.355 227.321 97.400 227.277 97.400 227.221 V 224.321 C 97.400 224.221 97.300 224.321 97.400 224.321 H 106.200 C 106.300 224.321 106.200 224.221 106.200 224.321 V 227.221 C 106.200 227.277 106.245 227.321 106.300 227.321 H 115.300 C 115.355 227.321 115.400 227.277 115.400 227.221 V 224.321 C 115.400 224.221 115.300 224.321 115.400 224.321 H 124.200 C 124.300 224.321 124.200 224.221 124.200 224.321 V 227.221 C 124.200 227.277 124.245 227.321 124.300 227.321 H 133.300 C 133.355 227.321 133.400 227.277 133.400 227.221 V 224.321 C 133.400 224.221 133.300 224.321 133.400 224.321 H 142.200 C 142.300 224.321 142.200 224.221 142.200 224.321 V 227.221 C 142.200 227.277 142.245 227.321 142.300 227.321 H 151.300 C 151.355 227.321 151.400 227.277 151.400 227.221 V 224.321 C 151.400 224.221 151.300 224.321 151.400 224.321 H 160.200 C 160.300 224.321 160.200 224.221 160.200 224.321 V 227.221 C 160.200 227.277 160.245 227.321 160.300 227.321 H 169.300 C 169.355 227.321 169.400 227.277 169.400 227.221 V 224.321 C 169.400 224.221 169.300 224.321 169.400 224.321 H 178.200 C 178.300 224.321 178.200 224.221 178.200 224.321 V 227.221 C 178.200 227.277 178.245 227.321 178.300 227.321 H 187.300 C 187.355 227.321 187.400 227.277 187.400 227.221 V 224.321 C 187.400 224.221 187.300 224.321 187.400 224.321 H 196.200 C 196.300 224.321 196.200 224.221 196.200 224.321 V 227.221 C 196.200 227.277 196.245 227.321 196.300 227.321 H 205.300 C 205.355 227.321 205.400 227.277 205.400 227.221 V 224.321 C 205.400 224.221 205.300 224.321 205.400 224.321 H 214.200 C 214.300 224.321 214.200 224.221 214.200 224.321 V 227.221 C 214.200 227.277 214.245 227.321 214.300 227.321 H 223.300 C 223.355 227.321 223.400 227.277 223.400 227.221 V 224.321 C 223.400 224.221 223.300 224.321 223.400 224.321 H 232.200 C 232.300 224.321 232.200 224.221 232.200 224.321 V 227.221 C 232.200 227.277 232.245 227.321 232.300 227.321 H 241.300 C 241.355 227.321 241.400 227.277 241.400 227.221 V 224.321 C 241.400 224.221 241.300 224.321 241.400 224.321 H 250.200 C 250.300 224.321 250.200 224.221 250.200 224.321 V 227.221 C 250.200 227.277 250.245 227.321 250.300 227.321 H 259.300 C 259.355 227.321 259.400 227.277 259.400 227.221 V 224.321 C 259.400 224.221 259.300 224.321 259.400 224.321 H 268.200 C 268.300 224.321 268.200 224.221 268.200 224.321 V 227.221 C 268.200 227.277 268.245 227.321 268.300 227.321 H 271.800 C 271.855 227.321 271.900 227.277 271.900 227.221 V 224.221 V 184.221 C 271.900 184.166 271.855 184.121 271.800 184.121 H 21.800 H 18.800 C 18.745 184.121 18.700 184.166 18.700 184.221 V 190.721 C 18.700 190.777 18.745 190.821 18.800 190.821 H 21.700 C 21.800 190.821 21.700 190.721 21.700 190.821 V 199.621 C 21.700 199.721 21.800 199.621 21.700 199.621 H 18.800 C 18.745 199.621 18.700 199.666 18.700 199.721 V 208.721 C 18.700 208.777 18.745 208.821 18.800 208.821 H 21.700 C 21.800 208.821 21.700 208.721 21.700 208.821 V 217.621 C 21.700 217.721 21.800 217.621 21.700 217.621 H 18.800 C 18.745 217.621 18.700 217.666 18.700 217.721 V 224.221 V 227.221 C 18.700 227.277 18.745 227.321 18.800 227.321 H 21.800 Z" stroke="rgb(0,0,0)" stroke-width="0.20" />
</g>
<g id="p-6" style="fill:none;stroke-linecap:round;stroke-linejoin:round;">
  <path d="M 36.800 145.421 H 32.400 C 32.300 145.421 32.400 145.521 32.400 145.421 V 142.621 C 32.400 142.521 32.300 142.621 32.400 142.621 H 41.200 C 41.300 142.621 41.200 142.521 41.200 142.621 V 145.421 C 41.200 145.521 41.300 145.421 41.200 145.421 H 36.800 Z" stroke="rgb(0,0,255)" stroke-width="0.20" />
  <path d="M 256.800 142.621 H 261.200 C 261.300 142.621 261.200 142.521 261.200 142.621 V 145.421 C 261.200 145.521 261.300 145.421 261.200 145.421 H 252.400 C 252.300 145.421 252.400 145.521 252.400 145.421 V 142.621 C 252.400 142.521 252.300 142.621 252.400 142.621 H 256.800 Z" stroke="rgb(0,0,255)" stroke-width="0.20" />
  <path d="M 21.800 182.621 H 25.300 C 25.355 182.621 25.400 182.577 25.400 182.521 V 179.621 C 25.400 179.521 25.300 179.621 25.400 179.621 H 34.200 C 34.300 179.621 34.200 179.521 34.200 179.621 V 182.521 C 34.200 182.577 34.245 182.621 34.300 182.621 H 43.300 C 43.355 182.621 43.400 182.577 43.400 182.521 V 179.621 C 43.400 179.521 43.300 179.621 43.400 179.621 H 52.200 C 52.300 179.621 52.200 179.521 52.200 179.621 V 182.521 C 52.200 182.577 52.245 182.621 52.300 182.621 H 61.300 C 61.355 182.621 61.400 182.577 61.400 182.521 V 179.621 C 61.400 179.521 61.300 179.621 61.400 179.621 H 70.200 C 70.300 179.621 70.200 179.521 70.200 179.621 V 182.521 C 70.200 182.577 70.245 182.621 70.300 182.621 H 79.300 C 79.355 182.621 79.400 182.577 79.400 182.521 V 179.621 C 79.400 179.521 79.300 179.621 79.400 179.621 H 88.200 C 88.300 179.621 88.200 179.521 88.200 179.621 V 182.521 C 88.200 182.577 88.245 182.621 88.300 182.621 H 97.300 C 97.355 182.621 97.400 182.577 97.400 182.521 V 179.621 C 97.400 179.521 97.300 179.621 97.400 179.621 H 106.200 C 106.300 179.621 106.200 179.521 106.200 179.621 V 182.521 C 106.200 182.577 106.245 182.621 106.300 182.621 H 115.300 C 115.355 182.621 115.400 182.577 115.400 182.521 V 179.621 C 115.400 179.521 115.300 179.621 115.400 179.621 H 124.200 C 124.300 179.621 124.200 179.521 124.200 179.621 V 182.521 C 124.200 182.577 124.245 182.621 124.300 182.621 H 133.300 C 133.355 182.621 133.400 182.577 133.400 182.521 V 179.621 C 133.400 179.521 133.300 179.621 133.400 179.621 H 142.200 C 142.300 179.621 142.200 179.521 142.200 179.621 V 182.521 C 142.200 182.577 142.245 182.621 142.300 182.621 H 151.300 C 151.355 182.621 151.400 182.577 151.400 182.521 V 179.621 C 151.400 179.521 151.300 179.621 151.400 179.621 H 160.200 C 160.300 179.621 160.200 179.521 160.200 179.621 V 182.521 C 160.200 182.577 160.245 182.621 160.300 182.621 H 169.300 C 169.355 182.621 169.400 182.577 169.400 182.521 V 179.621 C 169.400 179.521 169.300 179.621 169.400 179.621 H 178.200 C 178.300 179.621 178.200 179.521 178.200 179.621 V 182.521 C 178.200 182.577 178.245 182.621 178.300 182.621 H 187.300 C 187.355 182.621 187.400 182.577 187.400 182.521 V 179.621 C 187.400 179.521 187.300 179.621 187.400 179.621 H 196.200 C 196.300 179.621 196.200 179.521 196.200 179.621 V 182.521 C 196.200 182.577 196.245 182.621 196.300 182.621 H 205.300 C 205.355 182.621 205.400 182.577 205.400 182.521 V 179.621 C 205.400 179.521 205.300 179.621 205.400 179.621 H 214.200 C 214.300 179.621 214.200 179.521 214.200 179.621 V 182.521 C 214.200 182.577 214.245 182.621 214.300 182.621 H 223.300 C 223.355 182.621 223.400 182.577 223.400 182.521 V 179.621 C 223.400 179.521 223.300 179.621 223.400 179.621 H 232.200 C 232.300 179.621 232.200 179.521 232.200 179.621 V 182.521 C 232.200 182.577 232.245 182.621 232.300 182.621 H 241.300 C 241.355 182.621 241.400 182.577 241.400 182.521 V 179.621 C 241.400 179.521 241.300 179.621 241.400 179.621 H 250.200 C 250.300 179.621 250.200 179.521 250.200 179.621 V 182.521 C 250.200 182.577 250.245 182.621 250.300 182.621 H 259.300 C 259.355 182.621 259.400 182.577 259.400 182.521 V 179.621 C 259.400 179.521 259.300 179.621 259.400 179.621 H 268.200 C 268.300 179.621 268.200 179.521 268.200 179.621 V 182.521 C 268.200 182.577 268.245 182.621 268.300 182.621 H 271.800 C 271.855 182.621 271.900 182.577 271.900 182.521 V 179.521 V 139.521 C 271.900 139.466 271.855 139.421 271.800 139.421 H 21.800 H 18.800 C 18.745 139.421 18.700 139.466 18.700 139.521 V 146.021 C 18.700 146.077 18.745 146.121 18.800 146.121 H 21.700 C 21.800 146.121 21.700 146.021 21.700 146.121 V 154.921 C 21.700 155.021 21.800 154.921 21.700 154.921 H 18.800 C 18.745 154.921 18.700 154.966 18.700 155.021 V 164.021 C 18.700 164.077 18.745 164.121 18.800 164.121 H 21.700 C 21.800 164.121 21.700 164.021 21.700 164.121 V 172.921 C 21.700 173.021 21.800 172.921 21.700 172.921 H 18.800 C 18.745 172.921 18.700 172.966 18.700 173.021 V 179.521 V 182.521 C 18.700 182.577 18.745 182.621 18.800 182.621 H 21.800 Z" stroke="rgb(0,0,0)" stroke-width="0.20" />
</g>
<g id="p-7" style="fill:none;stroke-linecap:round;stroke-linejoin:round;">
  <path d="M 31.013 100.721 H 26.613 C 26.513 100.721 26.613 100.821 26.613 100.721 V 97.921 C 26.613 97.821 26.513 97.921 26.613 97.921 H 35.413 C 35.513 97.921 35.413 97.821 35.413 97.921 V 100.721 C 35.413 100.821 35.513 100.721 35.413 100.721 H 31.013 Z" stroke="rgb(0,0,255)" stroke-width="0.20" />
  <path d="M 49.013 100.721 H 44.613 C 44.513 100.721 44.613 100.821 44.613 100.721 V 97.921 C 44.613 97.821 44.513 97.921 44.613 97.921 H 53.413 C 53.513 97.921 53.413 97.821 53.413 97.921 V 100.721 C 53.413 100.821 53.513 100.721 53.413 100.721 H 49.013 Z" stroke="rgb(0,0,255)" stroke-width="0.20" />
  <path d="M 360.140 97.921 H 364.540 C 364.640 97.921 364.540 97.821 364.540 97.921 V 100.721 C 364.540 100.821 364.640 100.721 364.540 100.721 H 355.740 C 355.640 100.721 355.740 100.821 355.740 100.721 V 97.921 C 355.740 97.821 355.640 97.921 355.740 97.921 H 360.140 Z" stroke="rgb(0,0,255)" stroke-width="0.20" />
  <path d="M 342.140 97.921 H 346.540 C 346.640 97.921 346.540 97.821 346.540 97.921 V 100.721 C 346.540 100.821 346.640 100.721 346.540 100.721 H 337.740 C 337.640 100.721 337.740 100.821 337.740 100.721 V 97.921 C 337.740 97.821 337.640 97.921 337.740 97.921 H 342.140 Z" stroke="rgb(0,0,255)" stroke-width="0.20" />
  <path d="M 18.800 137.921 H 29.077 C 29.132 137.921 29.177 137.877 29.177 137.821 V 134.921 C 29.177 134.821 29.077 134.921 29.177 134.921 H 37.977 C 38.077 134.921 37.977 134.821 37.977 134.921 V 137.821 C 37.977 137.877 38.021 137.921 38.077 137.921 H 47.077 C 47.132 137.921 47.177 137.877 47.177 137.821 V 134.921 C 47.177 134.821 47.077 134.921 47.177 134.921 H 55.977 C 56.077 134.921 55.977 134.821 55.977 134.921 V 137.821 C 55.977 137.877 56.021 137.921 56.077 137.921 H 65.077 C 65.132 137.921 65.177 137.877 65.177 137.821 V 134.921 C 65.177 134.821 65.077 134.921 65.177 134.921 H 73.977 C 74.077 134.921 73.977 134.821 73.977 134.921 V 137.821 C 73.977 137.877 74.021 137.921 74.077 137.921 H 83.077 C 83.132 137.921 83.177 137.877 83.177 137.821 V 134.921 C 83.177 134.821 83.077 134.921 83.177 134.921 H 91.977 C 92.077 134.921 91.977 134.821 91.977 134.921 V 137.821 C 91.977 137.877 92.021 137.921 92.077 137.921 H 101.077 C 101.132 137.921 101.177 137.877 101.177 137.821 V 134.921 C 101.177 134.821 101.077 134.921 101.177 134.921 H 109.977 C 110.077 134.921 109.977 134.821 109.977 134.921 V 137.821 C 109.977 137.877 110.021 137.921 110.077 137.921 H 119.077 C 119.132 137.921 119.177 137.877 119.177 137.821 V 134.921 C 119.177 134.821 119.077 134.921 119.177 134.921 H 127.977 C 128.077 134.921 127.977 134.821 127.977 134.921 V 137.821 C 127.977 137.877 128.021 137.921 128.077 137.921 H 137.077 C 137.132 137.921 137.177 137.877 137.177 137.821 V 134.921 C 137.177 134.821 137.077 134.921 137.177 134.921 H 145.977 C 146.077 134.921 145.977 134.821 145.977 134.921 V 137.821 C 145.977 137.877 146.021 137.921 146.077 137.921 H 155.077 C 155.132 137.921 155.177 137.877 155.177 137.821 V 134.921 C 155.177 134.821 155.077 134.921 155.177 134.921 H 163.977 C 164.077 134.921 163.977 134.821 163.977 134.921 V 137.821 C 163.977 137.877 164.021 137.921 164.077 137.921 H 173.077 C 173.132 137.921 173.177 137.877 173.177 137.821 V 134.921 C 173.177 134.821 173.077 134.921 173.177 134.921 H 181.977 C 182.077 134.921 181.977 134.821 181.977 134.921 V 137.821 C 181.977 137.877 182.021 137.921 182.077 137.921 H 191.077 C 191.132 137.921 191.177 137.877 191.177 137.821 V 134.921 C 191.177 134.821 191.077 134.921 191.177 134.921 H 199.977 C 200.077 134.921 199.977 134.821 199.977 134.921 V 137.821 C 199.977 137.877 200.021 137.921 200.077 137.921 H 209.077 C 209.132 137.921 209.177 137.877 209.177 137.821 V 134.921 C 209.177 134.821 209.077 134.921 209.177 134.921 H 217.977 C 218.077 134.921 217.977 134.821 217.977 134.921 V 137.821 C 217.977 137.877 218.021 137.921 218.077 137.921 H 227.077 C 227.132 137.921 227.177 137.877 227.177 137.821 V 134.921 C 227.177 134.821 227.077 134.921 227.177 134.921 H 235.977 C 236.077 134.921 235.977 134.821 235.977 134.921 V 137.821 C 235.977 137.877 236.021 137.921 236.077 137.921 H 245.077 C 245.132 137.921 245.177 137.877 245.177 137.821 V 134.921 C 245.177 134.821 245.077 134.921 245.177 134.921 H 253.977 C 254.077 134.921 253.977 134.821 253.977 134.921 V 137.821 C 253.977 137.877 254.021 137.921 254.077 137.921 H 263.077 C 263.132 137.921 263.177 137.877 263.177 137.821 V 134.921 C 263.177 134.821 263.077 134.921 263.177 134.921 H 271.977 C 272.077 134.921 271.977 134.821 271.977 134.921 V 137.821 C 271.977 137.877 272.021 137.921 272.077 137.921 H 281.077 C 281.132 137.921 281.177 137.877 281.177 137.821 V 134.921 C 281.177 134.821 281.077 134.921 281.177 134.921 H 289.977 C 290.077 134.921 289.977 134.821 289.977 134.921 V 137.821 C 289.977 137.877 290.021 137.921 290.077 137.921 H 299.077 C 299.132 137.921 299.177 137.877 299.177 137.821 V 134.921 C 299.177 134.821 299.077 134.921 299.177 134.921 H 307.977 C 308.077 134.921 307.977 134.821 307.977 134.921 V 137.821 C 307.977 137.877 308.021 137.921 308.077 137.921 H 317.077 C 317.132 137.921 317.177 137.877 317.177 137.821 V 134.921 C 317.177 134.821 317.077 134.921 317.177 134.921 H 325.977 C 326.077 134.921 325.977 134.821 325.977 134.921 V 137.821 C 325.977 137.877 326.021 137.921 326.077 137.921 H 335.077 C 335.132 137.921 335.177 137.877 335.177 137.821 V 134.921 C 335.177 134.821 335.077 134.921 335.177 134.921 H 343.977 C 344.077 134.921 343.977 134.821 343.977 134.921 V 137.821 C 343.977 137.877 344.021 137.921 344.077 137.921 H 353.077 C 353.132 137.921 353.177 137.877 353.177 137.821 V 134.921 C 353.177 134.821 353.077 134.921 353.177 134.921 H 361.977 C 362.077 134.921 361.977 134.821 361.977 134.921 V 137.821 C 361.977 137.877 362.021 137.921 362.077 137.921 H 372.353 C 372.409 137.921 372.453 137.877 372.453 137.821 V 134.821 V 94.821 C 372.453 94.766 372.409 94.721 372.353 94.721 H 18.800 C 18.745 94.721 18.700 94.766 18.700 94.821 V 134.821 V 137.821 C 18.700 137.877 18.745 137.921 18.800 137.921 Z" stroke="rgb(0,0,0)" stroke-width="0.20" />
</g>
<g id="p-8" style="fill:none;stroke-linecap:round;stroke-linejoin:round;">
  <path d="M 31.013 56.021 H 26.613 C 26.513 56.021 26.613 56.121 26.613 56.021 V 53.221 C 26.613 53.121 26.513 53.221 26.613 53.221 H 35.413 C 35.513 53.221 35.413 53.121 35.413 53.221 V 56.021 C 35.413 56.121 35.513 56.021 35.413 56.021 H 31.013 Z" stroke="rgb(0,0,255)" stroke-width="0.20" />
  <path d="M 49.013 56.021 H 44.613 C 44.513 56.021 44.613 56.121 44.613 56.021 V 53.221 C 44.613 53.121 44.513 53.221 44.613 53.221 H 53.413 C 53.513 53.221 53.413 53.121 53.413 53.221 V 56.021 C 53.413 56.121 53.513 56.021 53.413 56.021 H 49.013 Z" stroke="rgb(0,0,255)" stroke-width="0.20" />
  <path d="M 360.140 53.221 H 364.540 C 364.640 53.221 364.540 53.121 364.540 53.221 V 56.021 C 364.540 56.121 364.640 56.021 364.540 56.021 H 355.740 C 355.640 56.021 355.740 56.121 355.740 56.021 V 53.221 C 355.740 53.121 355.640 53.221 355.740 53.221 H 360.140 Z" stroke="rgb(0,0,255)" stroke-width="0.20" />
  <path d="M 342.140 53.221 H 346.540 C 346.640 53.221 346.540 53.121 346.540 53.221 V 56.021 C 346.540 56.121 346.640 56.021 346.540 56.021 H 337.740 C 337.640 56.021 337.740 56.121 337.740 56.021 V 53.221 C 337.740 53.121 337.640 53.221 337.740 53.221 H 342.140 Z" stroke="rgb(0,0,255)" stroke-width="0.20" />
  <path d="M 18.800 93.221 H 29.077 C 29.132 93.221 29.177 93.177 29.177 93.121 V 90.221 C 29.177 90.121 29.077 90.221 29.177 90.221 H 37.977 C 38.077 90.221 37.977 90.121 37.977 90.221 V 93.121 C 37.977 93.177 38.021 93.221 38.077 93.221 H 47.077 C 47.132 93.221 47.177 93.177 47.177 93.121 V 90.221 C 47.177 90.121 47.077 90.221 47.177 90.221 H 55.977 C 56.077 90.221 55.977 90.121 55.977 90.221 V 93.121 C 55.977 93.177 56.021 93.221 56.077 93.221 H 65.077 C 65.132 93.221 65.177 93.177 65.177 93.121 V 90.221 C 65.177 90.121 65.077 90.221 65.177 90.221 H 73.977 C 74.077 90.221 73.977 90.121 73.977 90.221 V 93.121 C 73.977 93.177 74.021 93.221 74.077 93.221 H 83.077 C 83.132 93.221 83.177 93.177 83.177 93.121 V 90.221 C 83.177 90.121 83.077 90.221 83.177 90.221 H 91.977 C 92.077 90.221 91.977 90.121 91.977 90.221 V 93.121 C 91.977 93.177 92.021 93.221 92.077 93.221 H 101.077 C 101.132 93.221 101.177 93.177 101.177 93.121 V 90.221 C 101.177 90.121 101.077 90.221 101.177 90.221 H 109.977 C 110.077 90.221 109.977 90.121 109.977 90.221 V 93.121 C 109.977 93.177 110.021 93.221 110.077 93.221 H 119.077 C 119.132 93.221 119.177 93.177 119.177 93.121 V 90.221 C 119.177 90.121 119.077 90.221 119.177 90.221 H 127.977 C 128.077 90.221 127.977 90.121 127.977 90.221 V 93.121 C 127.977 93.177 128.021 93.221 128.077 93.221 H 137.077 C 137.132 93.221 137.177 93.177 137.177 93.121 V 90.221 C 137.177 90.121 137.077 90.221 137.177 90.221 H 145.977 C 146.077 90.221 145.977 90.121 145.977 90.221 V 93.121 C 145.977 93.177 146.021 93.221 146.077 93.221 H 155.077 C 155.132 93.221 155.177 93.177 155.177 93.121 V 90.221 C 155.177 90.121 155.077 90.221 155.177 90.221 H 163.977 C 164.077 90.221 163.977 90.121 163.977 90.221 V 93.121 C 163.977 93.177 164.021 93.221 164.077 93.221 H 173.077 C 173.132 93.221 173.177 93.177 173.177 93.121 V 90.221 C 173.177 90.121 173.077 90.221 173.177 90.221 H 181.977 C 182.077 90.221 181.977 90.121 181.977 90.221 V 93.121 C 181.977 93.177 182.021 93.221 182.077 93.221 H 191.077 C 191.132 93.221 191.177 93.177 191.177 93.121 V 90.221 C 191.177 90.121 191.077 90.221 191.177 90.221 H 199.977 C 200.077 90.221 199.977 90.121 199.977 90.221 V 93.121 C 199.977 93.177 200.021 93.221 200.077 93.221 H 209.077 C 209.132 93.221 209.177 93.177 209.177 93.121 V 90.221 C 209.177 90.121 209.077 90.221 209.177 90.221 H 217.977 C 218.077 90.221 217.977 90.121 217.977 90.221 V 93.121 C 217.977 93.177 218.021 93.221 218.077 93.221 H 227.077 C 227.132 93.221 227.177 93.177 227.177 93.121 V 90.221 C 227.177 90.121 227.077 90.221 227.177 90.221 H 235.977 C 236.077 90.221 235.977 90.121 235.977 90.221 V 93.121 C 235.977 93.177 236.021 93.221 236.077 93.221 H 245.077 C 245.132 93.221 245.177 93.177 245.177 93.121 V 90.221 C 245.177 90.121 245.077 90.221 245.177 90.221 H 253.977 C 254.077 90.221 253.977 90.121 253.977 90.221 V 93.121 C 253.977 93.177 254.021 93.221 254.077 93.221 H 263.077 C 263.132 93.221 263.177 93.177 263.177 93.121 V 90.221 C 263.177 90.121 263.077 90.221 263.177 90.221 H 271.977 C 272.077 90.221 271.977 90.121 271.977 90.221 V 93.121 C 271.977 93.177 272.021 93.221 272.077 93.221 H 281.077 C 281.132 93.221 281.177 93.177 281.177 93.121 V 90.221 C 281.177 90.121 281.077 90.221 281.177 90.221 H 289.977 C 290.077 90.221 289.977 90.121 289.977 90.221 V 93.121 C 289.977 93.177 290.021 93.221 290.077 93.221 H 299.077 C 299.132 93.221 299.177 93.177 299.177 93.121 V 90.221 C 299.177 90.121 299.077 90.221 299.177 90.221 H 307.977 C 308.077 90.221 307.977 90.121 307.977 90.221 V 93.121 C 307.977 93.177 308.021 93.221 308.077 93.221 H 317.077 C 317.132 93.221 317.177 93.177 317.177 93.121 V 90.221 C 317.177 90.121 317.077 90.221 317.177 90.221 H 325.977 C 326.077 90.221 325.977 90.121 325.977 90.221 V 93.121 C 325.977 93.177 326.021 93.221 326.077 93.221 H 335.077 C 335.132 93.221 335.177 93.177 335.177 93.121 V 90.221 C 335.177 90.121 335.077 90.221 335.177 90.221 H 343.977 C 344.077 90.221 343.977 90.121 343.977 90.221 V 93.121 C 343.977 93.177 344.021 93.221 344.077 93.221 H 353.077 C 353.132 93.221 353.177 93.177 353.177 93.121 V 90.221 C 353.177 90.121 353.077 90.221 353.177 90.221 H 361.977 C 362.077 90.221 361.977 90.121 361.977 90.221 V 93.121 C 361.977 93.177 362.021 93.221 362.077 93.221 H 372.353 C 372.409 93.221 372.453 93.177 372.453 93.121 V 90.121 V 50.121 C 372.453 50.066 372.409 50.021 372.353 50.021 H 18.800 C 18.745 50.021 18.700 50.066 18.700 50.121 V 90.121 V 93.121 C 18.700 93.177 18.745 93.221 18.800 93.221 Z" stroke="rgb(0,0,0)" stroke-width="0.20" />
</g>
<g id="p-9" style="fill:none;stroke-linecap:round;stroke-linejoin:round;">
  <path d="M 47.508 35.421 C 47.508 35.594 47.459 35.763 47.365 35.908 C 47.272 36.053 47.139 36.168 46.982 36.240 C 46.825 36.312 46.651 36.337 46.480 36.312 C 46.309 36.288 46.149 36.214 46.019 36.101 C 45.889 35.989 45.793 35.840 45.745 35.675 C 45.696 35.509 45.696 35.333 45.745 35.168 C 45.793 35.002 45.889 34.854 46.019 34.741 C 46.149 34.628 46.309 34.555 46.480 34.530 C 46.651 34.506 46.825 34.531 46.982 34.603 C 47.139 34.674 47.272 34.790 47.365 34.935 C 47.459 35.080 47.508 35.249 47.508 35.421 Z" stroke="rgb(0,0,255)" stroke-width="0.20" />
  <path d="M 26.608 45.521 H 37.008 C 37.108 45.521 37.008 45.421 37.008 45.521 V 48.421 C 37.008 48.477 37.053 48.521 37.108 48.521 H 46.108 C 46.164 48.521 46.208 48.477 46.208 48.421 V 45.521 C 46.208 45.421 46.108 45.521 46.208 45.521 H 56.608 C 56.664 45.521 56.708 45.477 56.708 45.421 V 35.021 C 56.708 34.921 56.608 35.021 56.708 35.021 H 59.608 C 59.664 35.021 59.708 34.977 59.708 34.921 V 25.921 C 59.708 25.866 59.664 25.821 59.608 25.821 H 56.708 C 56.608 25.821 56.708 25.921 56.708 25.821 V 15.421 C 56.708 15.366 56.664 15.321 56.608 15.321 C 56.582 15.321 56.556 15.332 56.538 15.351 L 26.538 45.351 C 26.519 45.369 26.508 45.395 26.508 45.421 C 26.508 45.477 26.553 45.521 26.608 45.521 Z" stroke="rgb(0,0,0)" stroke-width="0.20" />
  <path d="M 30.900 25.221 C 30.900 25.049 30.950 24.880 31.043 24.735 C 31.136 24.590 31.269 24.474 31.426 24.403 C 31.583 24.331 31.757 24.306 31.928 24.330 C 32.099 24.355 32.259 24.428 32.389 24.541 C 32.520 24.654 32.615 24.802 32.664 24.968 C 32.712 25.133 32.712 25.309 32.664 25.475 C 32.615 25.640 32.520 25.789 32.389 25.901 C 32.259 26.014 32.099 26.088 31.928 26.112 C 31.757 26.137 31.583 26.112 31.426 26.040 C 31.269 25.968 31.136 25.853 31.043 25.708 C 30.950 25.563 30.900 25.394 30.900 25.221 Z" stroke="rgb(0,0,255)" stroke-width="0.20" />
  <path d="M 51.800 15.121 H 41.400 C 41.300 15.121 41.400 15.221 41.400 15.121 V 12.221 C 41.400 12.166 41.355 12.121 41.300 12.121 H 32.300 C 32.245 12.121 32.200 12.166 32.200 12.221 V 15.121 C 32.200 15.221 32.300 15.121 32.200 15.121 H 21.800 C 21.745 15.121 21.700 15.166 21.700 15.221 V 25.621 C 21.700 25.721 21.800 25.621 21.700 25.621 H 18.800 C 18.745 25.621 18.700 25.666 18.700 25.721 V 34.721 C 18.700 34.777 18.745 34.821 18.800 34.821 H 21.700 C 21.800 34.821 21.700 34.721 21.700 34.821 V 45.221 C 21.700 45.277 21.745 45.321 21.800 45.321 C 21.827 45.321 21.852 45.311 21.871 45.292 L 51.871 15.292 C 51.889 15.273 51.900 15.248 51.900 15.221 C 51.900 15.166 51.855 15.121 51.800 15.121 Z" stroke="rgb(0,0,0)" stroke-width="0.20" />
</g>
<g id="p-10" style="fill:none;stroke-linecap:round;stroke-linejoin:round;">
  <path d="M 95.502 37.921 C 95.502 38.094 95.452 38.263 95.359 38.408 C 95.266 38.553 95.133 38.668 94.976 38.740 C 94.819 38.812 94.645 38.837 94.474 38.812 C 94.303 38.788 94.143 38.714 94.013 38.601 C 93.882 38.489 93.787 38.340 93.738 38.175 C 93.690 38.009 93.690 37.833 93.738 37.668 C 93.787 37.502 93.882 37.354 94.013 37.241 C 94.143 37.128 94.303 37.055 94.474 37.030 C 94.645 37.006 94.819 37.031 94.976 37.103 C 95.133 37.174 95.266 37.290 95.359 37.435 C 95.452 37.580 95.502 37.749 95.502 37.921 Z" stroke="rgb(0,0,255)" stroke-width="0.20" />
  <path d="M 74.602 45.521 H 85.002 C 85.102 45.521 85.002 45.421 85.002 45.521 V 48.421 C 85.002 48.477 85.047 48.521 85.102 48.521 H 94.102 C 94.157 48.521 94.202 48.477 94.202 48.421 V 45.521 C 94.202 45.421 94.102 45.521 94.202 45.521 H 104.602 C 104.657 45.521 104.702 45.477 104.702 45.421 V 15.421 C 104.702 15.366 104.657 15.321 104.602 15.321 C 104.575 15.321 104.550 15.332 104.531 15.351 L 99.148 20.734 C 99.077 20.805 99.219 20.805 99.148 20.734 L 97.097 18.683 C 97.058 18.644 96.995 18.644 96.956 18.683 L 90.592 25.047 C 90.553 25.086 90.553 25.150 90.592 25.189 L 92.642 27.239 C 92.713 27.310 92.713 27.169 92.642 27.239 L 86.420 33.462 C 86.349 33.533 86.491 33.533 86.420 33.462 L 84.369 31.411 C 84.330 31.372 84.267 31.372 84.228 31.411 L 77.864 37.775 C 77.825 37.814 77.825 37.878 77.864 37.917 L 79.915 39.967 C 79.985 40.038 79.985 39.897 79.915 39.967 L 74.531 45.351 C 74.512 45.369 74.502 45.395 74.502 45.421 C 74.502 45.477 74.547 45.521 74.602 45.521 Z" stroke="rgb(0,0,0)" stroke-width="0.20" />
  <path d="M 70.408 20.600 C 70.408 20.427 70.458 20.259 70.551 20.113 C 70.644 19.968 70.778 19.853 70.934 19.781 C 71.091 19.710 71.266 19.685 71.436 19.709 C 71.607 19.734 71.767 19.807 71.898 19.920 C 72.028 20.033 72.123 20.181 72.172 20.346 C 72.220 20.512 72.220 20.688 72.172 20.854 C 72.123 21.019 72.028 21.167 71.898 21.280 C 71.767 21.393 71.607 21.466 71.436 21.491 C 71.266 21.515 71.091 21.490 70.934 21.419 C 70.778 21.347 70.644 21.232 70.551 21.087 C 70.458 20.941 70.408 20.773 70.408 20.600 Z" stroke="rgb(0,0,255)" stroke-width="0.20" />
  <path d="M 91.308 13.000 H 80.908 C 80.808 13.000 80.908 13.100 80.908 13.000 V 10.100 C 80.908 10.045 80.864 10.000 80.808 10.000 H 71.808 C 71.753 10.000 71.708 10.045 71.708 10.100 V 13.000 C 71.708 13.100 71.808 13.000 71.708 13.000 H 61.308 C 61.253 13.000 61.208 13.045 61.208 13.100 V 43.100 C 61.208 43.155 61.253 43.200 61.308 43.200 C 61.335 43.200 61.360 43.189 61.379 43.171 L 66.762 37.787 C 66.833 37.717 66.692 37.717 66.762 37.787 L 68.813 39.838 C 68.852 39.877 68.915 39.877 68.954 39.838 L 75.318 33.474 C 75.357 33.435 75.357 33.372 75.318 33.333 L 73.268 31.282 C 73.197 31.211 73.197 31.353 73.268 31.282 L 79.490 25.059 C 79.561 24.989 79.420 24.989 79.490 25.059 L 81.541 27.110 C 81.580 27.149 81.643 27.149 81.682 27.110 L 88.046 20.746 C 88.085 20.707 88.085 20.644 88.046 20.605 L 85.996 18.554 C 85.925 18.483 85.925 18.625 85.996 18.554 L 91.379 13.171 C 91.398 13.152 91.408 13.127 91.408 13.100 C 91.408 13.045 91.364 13.000 91.308 13.000 Z" stroke="rgb(0,0,0)" stroke-width="0.20" />
  <path d="M 140.496 37.921 C 140.496 38.094 140.446 38.263 140.353 38.408 C 140.259 38.553 140.126 38.668 139.969 38.740 C 139.812 38.812 139.638 38.837 139.467 38.812 C 139.297 38.788 139.137 38.714 139.006 38.601 C 138.876 38.489 138.781 38.340 138.732 38.175 C 138.683 38.009 138.683 37.833 138.732 37.668 C 138.781 37.502 138.876 37.354 139.006 37.241 C 139.137 37.128 139.297 37.055 139.467 37.030 C 139.638 37.006 139.812 37.031 139.969 37.103 C 140.126 37.174 140.259 37.290 140.353 37.435 C 140.446 37.580 140.496 37.749 140.496 37.921 Z" stroke="rgb(0,0,255)" stroke-width="0.20" />
  <path d="M 119.596 45.521 H 129.996 C 130.096 45.521 129.996 45.421 129.996 45.521 V 48.421 C 129.996 48.477 130.040 48.521 130.096 48.521 H 139.096 C 139.151 48.521 139.196 48.477 139.196 48.421 V 45.521 C 139.196 45.421 139.096 45.521 139.196 45.521 H 149.596 C 149.651 45.521 149.696 45.477 149.696 45.421 V 15.421 C 149.696 15.366 149.651 15.321 149.596 15.321 C 149.569 15.321 149.544 15.332 149.525 15.351 L 144.141 20.734 C 144.071 20.805 144.212 20.805 144.141 20.734 L 142.091 18.683 C 142.052 18.644 141.989 18.644 141.949 18.683 L 135.585 25.047 C 135.546 25.086 135.546 25.150 135.585 25.189 L 137.636 27.239 C 137.707 27.310 137.707 27.169 137.636 27.239 L 131.414 33.462 C 131.343 33.533 131.484 33.533 131.414 33.462 L 129.363 31.411 C 129.324 31.372 129.261 31.372 129.222 31.411 L 122.858 37.775 C 122.819 37.814 122.819 37.878 122.858 37.917 L 124.908 39.967 C 124.979 40.038 124.979 39.897 124.908 39.967 L 119.525 45.351 C 119.506 45.369 119.496 45.395 119.496 45.421 C 119.496 45.477 119.540 45.521 119.596 45.521 Z" stroke="rgb(0,0,0)" stroke-width="0.20" />
  <path d="M 115.402 20.600 C 115.402 20.427 115.452 20.259 115.545 20.113 C 115.638 19.968 115.771 19.853 115.928 19.781 C 116.085 19.710 116.259 19.685 116.430 19.709 C 116.601 19.734 116.761 19.807 116.891 19.920 C 117.022 20.033 117.117 20.181 117.165 20.346 C 117.214 20.512 117.214 20.688 117.165 20.854 C 117.117 21.019 117.022 21.167 116.891 21.280 C 116.761 21.393 116.601 21.466 116.430 21.491 C 116.259 21.515 116.085 21.490 115.928 21.419 C 115.771 21.347 115.638 21.232 115.545 21.087 C 115.452 20.941 115.402 20.773 115.402 20.600 Z" stroke="rgb(0,0,255)" stroke-width="0.20" />
  <path d="M 136.302 13.000 H 125.902 C 125.802 13.000 125.902 13.100 125.902 13.000 V 10.100 C 125.902 10.045 125.857 10.000 125.802 10.000 H 116.802 C 116.747 10.000 116.702 10.045 116.702 10.100 V 13.000 C 116.702 13.100 116.802 13.000 116.702 13.000 H 106.302 C 106.247 13.000 106.202 13.045 106.202 13.100 V 43.100 C 106.202 43.155 106.247 43.200 106.302 43.200 C 106.328 43.200 106.354 43.189 106.373 43.171 L 111.756 37.787 C 111.827 37.717 111.685 37.717 111.756 37.787 L 113.807 39.838 C 113.846 39.877 113.909 39.877 113.948 39.838 L 120.312 33.474 C 120.351 33.435 120.351 33.372 120.312 33.333 L 118.261 31.282 C 118.191 31.211 118.191 31.353 118.261 31.282 L 124.484 25.059 C 124.555 24.989 124.413 24.989 124.484 25.059 L 126.535 27.110 C 126.574 27.149 126.637 27.149 126.676 27.110 L 133.040 20.746 C 133.079 20.707 133.079 20.644 133.040 20.605 L 130.989 18.554 C 130.919 18.483 130.919 18.625 130.989 18.554 L 136.373 13.171 C 136.391 13.152 136.402 13.127 136.402 13.100 C 136.402 13.045 136.357 13.000 136.302 13.000 Z" stroke="rgb(0,0,0)" stroke-width="0.20" />
</g>
</svg>