<?xml version='1.0' encoding='utf-8'?>
<svg height="329.30mm" viewBox="0.0 0.0 425.30 329.30" width="425.30mm" xmlns="http://www.w3.org/2000/svg" xmlns:cc="http://creativecommons.org/ns#" xmlns:dc="http://purl.org/dc/elements/1.1/" xmlns:inkscape="http://www.inkscape.org/namespaces/inkscape" xmlns:rdf="http://www.w3.org/1999/02/22-rdf-syntax-ns#" xmlns:svg="http://www.w3.org/2000/svg" xmlns:xlink="http://www.w3.org/1999/xlink">
<!--
TwoPiece - A two piece box where top slips over the bottom half to form the enclosure.



Set *hi* larger than *h* to leave gap between the inner and outer shell. This can be used to make opening the box easier. Set *hi* smaller to only have a small inner ridge that will allow the content to be more visible after opening.

![Bottom view](static/samples/TwoPiece2.jpg)



Created with Boxes.py (https://boxes.hackerspace-bamberg.de/)
Command line (remove spaces between dashes): boxes TwoPiece
-->
<title>TwoPiece</title>
<metadata>
<rdf:RDF><cc:Work>
<dc:title>Box - TwoPiece</dc:title>
<dc:source>boxes TwoPiece</dc:source>
<dc:description>A two piece box where top slips over the bottom half to form the enclosure.


Set *hi* larger than *h* to leave gap between the inner and outer shell. This can be used to make opening the box easier. Set *hi* smaller to only have a small inner ridge that will allow the content to be more visible after opening.

![Bottom view](static/samples/TwoPiece2.jpg)


Created with Boxes.py (https://boxes.hackerspace-bamberg.de/)
Command line: boxes TwoPiece
Command line short: boxes TwoPiece
</dc:description>
</cc:Work></rdf:RDF></metadata>
<g id="p-0" style="fill:none;stroke-linecap:round;stroke-linejoin:round;">
  <path d="M 10.100 319.300 H 110.100 V 309.300 H 10.100 V 319.300 Z" stroke="rgb(0,0,0)" stroke-width="0.20" />
  <text dominant-baseline="hanging" font-size="6px" style="font-family: sans-serif ; font-weight: normal; font-style: normal; fill: rgb(255,0,0)" text-anchor="middle" transform="matrix( 1.000 0.000 0.000 1.000 60.100 311.300 )">100.0mm, burn:0.10mm</text>
</g>
<g id="p-1" style="fill:none;stroke-linecap:round;stroke-linejoin:round;">
  <path d="M 13.100 304.600 H 23.550 C 23.650 304.600 23.550 304.500 23.550 304.600 V 307.500 C 23.550 307.555 23.595 307.600 23.650 307.600 H 29.650 C 29.705 307.600 29.750 307.555 29.750 307.500 V 304.600 C 29.750 304.500 29.650 304.600 29.750 304.600 H 35.550 C 35.650 304.600 35.550 304.500 35.550 304.600 V 307.500 C 35.550 307.555 35.595 307.600 35.650 307.600 H 41.650 C 41.705 307.600 41.750 307.555 41.750 307.500 V 304.600 C 41.750 304.500 41.650 304.600 41.750 304.600 H 47.550 C 47.650 304.600 47.550 304.500 47.550 304.600 V 307.500 C 47.550 307.555 47.595 307.600 47.650 307.600 H 53.650 C 53.705 307.600 53.750 307.555 53.750 307.500 V 304.600 C 53.750 304.500 53.650 304.600 53.750 304.600 H 59.550 C 59.650 304.600 59.550 304.500 59.550 304.600 V 307.500 C 59.550 307.555 59.595 307.600 59.650 307.600 H 65.650 C 65.705 307.600 65.750 307.555 65.750 307.500 V 304.600 C 65.750 304.500 65.650 304.600 65.750 304.600 H 71.550 C 71.650 304.600 71.550 304.500 71.550 304.600 V 307.500 C 71.550 307.555 71.595 307.600 71.650 307.600 H 77.650 C 77.705 307.600 77.750 307.555 77.750 307.500 V 304.600 C 77.750 304.500 77.650 304.600 77.750 304.600 H 83.550 C 83.650 304.600 83.550 304.500 83.550 304.600 V 307.500 C 83.550 307.555 83.595 307.600 83.650 307.600 H 89.650 C 89.705 307.600 89.750 307.555 89.750 307.500 V 304.600 C 89.750 304.500 89.650 304.600 89.750 304.600 H 100.200 H 103.200 C 103.255 304.600 103.300 304.555 103.300 304.500 V 296.500 C 103.300 296.445 103.255 296.400 103.200 296.400 H 100.300 C 100.200 296.400 100.300 296.500 100.300 296.400 V 290.600 C 100.300 290.500 100.200 290.600 100.300 290.600 H 103.200 C 103.255 290.600 103.300 290.555 103.300 290.500 V 284.500 C 103.300 284.445 103.255 284.400 103.200 284.400 H 100.300 C 100.200 284.400 100.300 284.500 100.300 284.400 V 278.600 C 100.300 278.500 100.200 278.600 100.300 278.600 H 103.200 C 103.255 278.600 103.300 278.555 103.300 278.500 V 272.500 C 103.300 272.445 103.255 272.400 103.200 272.400 H 100.300 C 100.200 272.400 100.300 272.500 100.300 272.400 V 266.600 C 100.300 266.500 100.200 266.600 100.300 266.600 H 103.200 C 103.255 266.600 103.300 266.555 103.300 266.500 V 260.500 C 103.300 260.445 103.255 260.400 103.200 260.400 H 100.300 C 100.200 260.400 100.300 260.500 100.300 260.400 V 254.600 C 100.300 254.500 100.200 254.600 100.300 254.600 H 103.200 C 103.255 254.600 103.300 254.555 103.300 254.500 V 248.500 C 103.300 248.445 103.255 248.400 103.200 248.400 H 100.300 C 100.200 248.400 100.300 248.500 100.300 248.400 V 242.600 C 100.300 242.500 100.200 242.600 100.300 242.600 H 103.200 C 103.255 242.600 103.300 242.555 103.300 242.500 V 236.500 C 103.300 236.445 103.255 236.400 103.200 236.400 H 100.300 C 100.200 236.400 100.300 236.500 100.300 236.400 V 230.600 C 100.300 230.500 100.200 230.600 100.300 230.600 H 103.200 C 103.255 230.600 103.300 230.555 103.300 230.500 V 224.500 C 103.300 224.445 103.255 224.400 103.200 224.400 H 100.300 C 100.200 224.400 100.300 224.500 100.300 224.400 V 218.600 C 100.300 218.500 100.200 218.600 100.300 218.600 H 103.200 C 103.255 218.600 103.300 218.555 103.300 218.500 V 210.500 C 103.300 210.445 103.255 210.400 103.200 210.400 H 100.200 H 13.100 H 10.100 C 10.045 210.400 10.000 210.445 10.000 210.500 V 218.500 C 10.000 218.555 10.045 218.600 10.100 218.600 H 13.000 C 13.100 218.600 13.000 218.500 13.000 218.600 V 224.400 C 13.000 224.500 13.100 224.400 13.000 224.400 H 10.100 C 10.045 224.400 10.000 224.445 10.000 224.500 V 230.500 C 10.000 230.555 10.045 230.600 10.100 230.600 H 13.000 C 13.100 230.600 13.000 230.500 13.000 230.600 V 236.400 C 13.000 236.500 13.100 236.400 13.000 236.400 H 10.100 C 10.045 236.400 10.000 236.445 10.000 236.500 V 242.500 C 10.000 242.555 10.045 242.600 10.100 242.600 H 13.000 C 13.100 242.600 13.000 242.500 13.000 242.600 V 248.400 C 13.000 248.500 13.100 248.400 13.000 248.400 H 10.100 C 10.045 248.400 10.000 248.445 10.000 248.500 V 254.500 C 10.000 254.555 10.045 254.600 10.100 254.600 H 13.000 C 13.100 254.600 13.000 254.500 13.000 254.600 V 260.400 C 13.000 260.500 13.100 260.400 13.000 260.400 H 10.100 C 10.045 260.400 10.000 260.445 10.000 260.500 V 266.500 C 10.000 266.555 10.045 266.600 10.100 266.600 H 13.000 C 13.100 266.600 13.000 266.500 13.000 266.600 V 272.400 C 13.000 272.500 13.100 272.400 13.000 272.400 H 10.100 C 10.045 272.400 10.000 272.445 10.000 272.500 V 278.500 C 10.000 278.555 10.045 278.600 10.100 278.600 H 13.000 C 13.100 278.600 13.000 278.500 13.000 278.600 V 284.400 C 13.000 284.500 13.100 284.400 13.000 284.400 H 10.100 C 10.045 284.400 10.000 284.445 10.000 284.500 V 290.500 C 10.000 290.555 10.045 290.600 10.100 290.600 H 13.000 C 13.100 290.600 13.000 290.500 13.000 290.600 V 296.400 C 13.000 296.500 13.100 296.400 13.000 296.400 H 10.100 C 10.045 296.400 10.000 296.445 10.000 296.500 V 304.500 C 10.000 304.555 10.045 304.600 10.100 304.600 H 13.100 Z" stroke="rgb(0,0,0)" stroke-width="0.20" />
</g>
<g id="p-2" style="fill:none;stroke-linecap:round;stroke-linejoin:round;">
  <path d="M 107.900 304.600 H 118.350 C 118.450 304.600 118.350 304.500 118.350 304.600 V 307.500 C 118.350 307.555 118.395 307.600 118.450 307.600 H 124.450 C 124.505 307.600 124.550 307.555 124.550 307.500 V 304.600 C 124.550 304.500 124.450 304.600 124.550 304.600 H 130.350 C 130.450 304.600 130.350 304.500 130.350 304.600 V 307.500 C 130.350 307.555 130.395 307.600 130.450 307.600 H 136.450 C 136.505 307.600 136.550 307.555 136.550 307.500 V 304.600 C 136.550 304.500 136.450 304.600 136.550 304.600 H 142.350 C 142.450 304.600 142.350 304.500 142.350 304.600 V 307.500 C 142.350 307.555 142.395 307.600 142.450 307.600 H 148.450 C 148.505 307.600 148.550 307.555 148.550 307.500 V 304.600 C 148.550 304.500 148.450 304.600 148.550 304.600 H 154.350 C 154.450 304.600 154.350 304.500 154.350 304.600 V 307.500 C 154.350 307.555 154.395 307.600 154.450 307.600 H 160.450 C 160.505 307.600 160.550 307.555 160.550 307.500 V 304.600 C 160.550 304.500 160.450 304.600 160.550 304.600 H 166.350 C 166.450 304.600 166.350 304.500 166.350 304.600 V 307.500 C 166.350 307.555 166.395 307.600 166.450 307.600 H 172.450 C 172.505 307.600 172.550 307.555 172.550 307.500 V 304.600 C 172.550 304.500 172.450 304.600 172.550 304.600 H 178.350 C 178.450 304.600 178.350 304.500 178.350 304.600 V 307.500 C 178.350 307.555 178.395 307.600 178.450 307.600 H 184.450 C 184.505 307.600 184.550 307.555 184.550 307.500 V 304.600 C 184.550 304.500 184.450 304.600 184.550 304.600 H 195.000 C 195.055 304.600 195.100 304.555 195.100 304.500 V 296.600 C 195.100 296.500 195.000 296.600 195.100 296.600 H 198.000 C 198.055 296.600 198.100 296.555 198.100 296.500 V 290.500 C 198.100 290.445 198.055 290.400 198.000 290.400 H 195.100 C 195.000 290.400 195.100 290.500 195.100 290.400 V 284.600 C 195.100 284.500 195.000 284.600 195.100 284.600 H 198.000 C 198.055 284.600 198.100 284.555 198.100 284.500 V 278.500 C 198.100 278.445 198.055 278.400 198.000 278.400 H 195.100 C 195.000 278.400 195.100 278.500 195.100 278.400 V 272.600 C 195.100 272.500 195.000 272.600 195.100 272.600 H 198.000 C 198.055 272.600 198.100 272.555 198.100 272.500 V 266.500 C 198.100 266.445 198.055 266.400 198.000 266.400 H 195.100 C 195.000 266.400 195.100 266.500 195.100 266.400 V 260.600 C 195.100 260.500 195.000 260.600 195.100 260.600 H 198.000 C 198.055 260.600 198.100 260.555 198.100 260.500 V 254.500 C 198.100 254.445 198.055 254.400 198.000 254.400 H 195.100 C 195.000 254.400 195.100 254.500 195.100 254.400 V 248.600 C 195.100 248.500 195.000 248.600 195.100 248.600 H 198.000 C 198.055 248.600 198.100 248.555 198.100 248.500 V 242.500 C 198.100 242.445 198.055 242.400 198.000 242.400 H 195.100 C 195.000 242.400 195.100 242.500 195.100 242.400 V 236.600 C 195.100 236.500 195.000 236.600 195.100 236.600 H 198.000 C 198.055 236.600 198.100 236.555 198.100 236.500 V 230.500 C 198.100 230.445 198.055 230.400 198.000 230.400 H 195.100 C 195.000 230.400 195.100 230.500 195.100 230.400 V 224.600 C 195.100 224.500 195.000 224.600 195.100 224.600 H 198.000 C 198.055 224.600 198.100 224.555 198.100 224.500 V 218.500 C 198.100 218.445 198.055 218.400 198.000 218.400 H 195.100 C 195.000 218.400 195.100 218.500 195.100 218.400 V 210.500 C 195.100 210.445 195.055 210.400 195.000 210.400 H 107.900 C 107.845 210.400 107.800 210.445 107.800 210.500 V 218.400 C 107.800 218.500 107.900 218.400 107.800 218.400 H 104.900 C 104.845 218.400 104.800 218.445 104.800 218.500 V 224.500 C 104.800 224.555 104.845 224.600 104.900 224.600 H 107.800 C 107.900 224.600 107.800 224.500 107.800 224.600 V 230.400 C 107.800 230.500 107.900 230.400 107.800 230.400 H 104.900 C 104.845 230.400 104.800 230.445 104.800 230.500 V 236.500 C 104.800 236.555 104.845 236.600 104.900 236.600 H 107.800 C 107.900 236.600 107.800 236.500 107.800 236.600 V 242.400 C 107.800 242.500 107.900 242.400 107.800 242.400 H 104.900 C 104.845 242.400 104.800 242.445 104.800 242.500 V 248.500 C 104.800 248.555 104.845 248.600 104.900 248.600 H 107.800 C 107.900 248.600 107.800 248.500 107.800 248.600 V 254.400 C 107.800 254.500 107.900 254.400 107.800 254.400 H 104.900 C 104.845 254.400 104.800 254.445 104.800 254.500 V 260.500 C 104.800 260.555 104.845 260.600 104.900 260.600 H 107.800 C 107.900 260.600 107.800 260.500 107.800 260.600 V 266.400 C 107.800 266.500 107.900 266.400 107.800 266.400 H 104.900 C 104.845 266.400 104.800 266.445 104.800 266.500 V 272.500 C 104.800 272.555 104.845 272.600 104.900 272.600 H 107.800 C 107.900 272.600 107.800 272.500 107.800 272.600 V 278.400 C 107.800 278.500 107.900 278.400 107.800 278.400 H 104.900 C 104.845 278.400 104.800 278.445 104.800 278.500 V 284.500 C 104.800 284.555 104.845 284.600 104.900 284.600 H 107.800 C 107.900 284.600 107.800 284.500 107.800 284.600 V 290.400 C 107.800 290.500 107.900 290.400 107.800 290.400 H 104.900 C 104.845 290.400 104.800 290.445 104.800 290.500 V 296.500 C 104.800 296.555 104.845 296.600 104.900 296.600 H 107.800 C 107.900 296.600 107.800 296.500 107.800 296.600 V 304.500 C 107.800 304.555 107.845 304.600 107.900 304.600 Z" stroke="rgb(0,0,0)" stroke-width="0.20" />
</g>
<g id="p-3" style="fill:none;stroke-linecap:round;stroke-linejoin:round;">
  <path d="M 202.700 304.600 H 213.150 C 213.250 304.600 213.150 304.500 213.150 304.600 V 307.500 C 213.150 307.555 213.195 307.600 213.250 307.600 H 219.250 C 219.305 307.600 219.350 307.555 219.350 307.500 V 304.600 C 219.350 304.500 219.250 304.600 219.350 304.600 H 225.150 C 225.250 304.600 225.150 304.500 225.150 304.600 V 307.500 C 225.150 307.555 225.195 307.600 225.250 307.600 H 231.250 C 231.305 307.600 231.350 307.555 231.350 307.500 V 304.600 C 231.350 304.500 231.250 304.600 231.350 304.600 H 237.150 C 237.250 304.600 237.150 304.500 237.150 304.600 V 307.500 C 237.150 307.555 237.195 307.600 237.250 307.600 H 243.250 C 243.305 307.600 243.350 307.555 243.350 307.500 V 304.600 C 243.350 304.500 243.250 304.600 243.350 304.600 H 249.150 C 249.250 304.600 249.150 304.500 249.150 304.600 V 307.500 C 249.150 307.555 249.195 307.600 249.250 307.600 H 255.250 C 255.305 307.600 255.350 307.555 255.350 307.500 V 304.600 C 255.350 304.500 255.250 304.600 255.350 304.600 H 261.150 C 261.250 304.600 261.150 304.500 261.150 304.600 V 307.500 C 261.150 307.555 261.195 307.600 261.250 307.600 H 267.250 C 267.305 307.600 267.350 307.555 267.350 307.500 V 304.600 C 267.350 304.500 267.250 304.600 267.350 304.600 H 273.150 C 273.250 304.600 273.150 304.500 273.150 304.600 V 307.500 C 273.150 307.555 273.195 307.600 273.250 307.600 H 279.250 C 279.305 307.600 279.350 307.555 279.350 307.500 V 304.600 C 279.350 304.500 279.250 304.600 279.350 304.600 H 289.800 H 292.800 C 292.855 304.600 292.900 304.555 292.900 304.500 V 296.500 C 292.900 296.445 292.855 296.400 292.800 296.400 H 289.900 C 289.800 296.400 289.900 296.500 289.900 296.400 V 290.600 C 289.900 290.500 289.800 290.600 289.900 290.600 H 292.800 C 292.855 290.600 292.900 290.555 292.900 290.500 V 284.500 C 292.900 284.445 292.855 284.400 292.800 284.400 H 289.900 C 289.800 284.400 289.900 284.500 289.900 284.400 V 278.600 C 289.900 278.500 289.800 278.600 289.900 278.600 H 292.800 C 292.855 278.600 292.900 278.555 292.900 278.500 V 272.500 C 292.900 272.445 292.855 272.400 292.800 272.400 H 289.900 C 289.800 272.400 289.900 272.500 289.900 272.400 V 266.600 C 289.900 266.500 289.800 266.600 289.900 266.600 H 292.800 C 292.855 266.600 292.900 266.555 292.900 266.500 V 260.500 C 292.900 260.445 292.855 260.400 292.800 260.400 H 289.900 C 289.800 260.400 289.900 260.500 289.900 260.400 V 254.600 C 289.900 254.500 289.800 254.600 289.900 254.600 H 292.800 C 292.855 254.600 292.900 254.555 292.900 254.500 V 248.500 C 292.900 248.445 292.855 248.400 292.800 248.400 H 289.900 C 289.800 248.400 289.900 248.500 289.900 248.400 V 242.600 C 289.900 242.500 289.800 242.600 289.900 242.600 H 292.800 C 292.855 242.600 292.900 242.555 292.900 242.500 V 236.500 C 292.900 236.445 292.855 236.400 292.800 236.400 H 289.900 C 289.800 236.400 289.900 236.500 289.900 236.400 V 230.600 C 289.900 230.500 289.800 230.600 289.900 230.600 H 292.800 C 292.855 230.600 292.900 230.555 292.900 230.500 V 224.500 C 292.900 224.445 292.855 224.400 292.800 224.400 H 289.900 C 289.800 224.400 289.900 224.500 289.900 224.400 V 218.600 C 289.900 218.500 289.800 218.600 289.900 218.600 H 292.800 C 292.855 218.600 292.900 218.555 292.900 218.500 V 210.500 C 292.900 210.445 292.855 210.400 292.800 210.400 H 289.800 H 202.700 H 199.700 C 199.645 210.400 199.600 210.445 199.600 210.500 V 218.500 C 199.600 218.555 199.645 218.600 199.700 218.600 H 202.600 C 202.700 218.600 202.600 218.500 202.600 218.600 V 224.400 C 202.600 224.500 202.700 224.400 202.600 224.400 H 199.700 C 199.645 224.400 199.600 224.445 199.600 224.500 V 230.500 C 199.600 230.555 199.645 230.600 199.700 230.600 H 202.600 C 202.700 230.600 202.600 230.500 202.600 230.600 V 236.400 C 202.600 236.500 202.700 236.400 202.600 236.400 H 199.700 C 199.645 236.400 199.600 236.445 199.600 236.500 V 242.500 C 199.600 242.555 199.645 242.600 199.700 242.600 H 202.600 C 202.700 242.600 202.600 242.500 202.600 242.600 V 248.400 C 202.600 248.500 202.700 248.400 202.600 248.400 H 199.700 C 199.645 248.400 199.600 248.445 199.600 248.500 V 254.500 C 199.600 254.555 199.645 254.600 199.700 254.600 H 202.600 C 202.700 254.600 202.600 254.500 202.600 254.600 V 260.400 C 202.600 260.500 202.700 260.400 202.600 260.400 H 199.700 C 199.645 260.400 199.600 260.445 199.600 260.500 V 266.500 C 199.600 266.555 199.645 266.600 199.700 266.600 H 202.600 C 202.700 266.600 202.600 266.500 202.600 266.600 V 272.400 C 202.600 272.500 202.700 272.400 202.600 272.400 H 199.700 C 199.645 272.400 199.600 272.445 199.600 272.500 V 278.500 C 199.600 278.555 199.645 278.600 199.700 278.600 H 202.600 C 202.700 278.600 202.600 278.500 202.600 278.600 V 284.400 C 202.600 284.500 202.700 284.400 202.600 284.400 H 199.700 C 199.645 284.400 199.600 284.445 199.600 284.500 V 290.500 C 199.600 290.555 199.645 290.600 199.700 290.600 H 202.600 C 202.700 290.600 202.600 290.500 202.600 290.600 V 296.400 C 202.600 296.500 202.700 296.400 202.600 296.400 H 199.700 C 199.645 296.400 199.600 296.445 199.600 296.500 V 304.500 C 199.600 304.555 199.645 304.600 199.700 304.600 H 202.700 Z" stroke="rgb(0,0,0)" stroke-width="0.20" />
</g>
<g id="p-4" style="fill:none;stroke-linecap:round;stroke-linejoin:round;">
  <path d="M 297.500 304.600 H 307.950 C 308.050 304.600 307.950 304.500 307.950 304.600 V 307.500 C 307.950 307.555 307.995 307.600 308.050 307.600 H 314.050 C 314.105 307.600 314.150 307.555 314.150 307.500 V 304.600 C 314.150 304.500 314.050 304.600 314.150 304.600 H 319.950 C 320.050 304.600 319.950 304.500 319.950 304.600 V 307.500 C 319.950 307.555 319.995 307.600 320.050 307.600 H 326.050 C 326.105 307.600 326.150 307.555 326.150 307.500 V 304.600 C 326.150 304.500 326.050 304.600 326.150 304.600 H 331.950 C 332.050 304.600 331.950 304.500 331.950 304.600 V 307.500 C 331.950 307.555 331.995 307.600 332.050 307.600 H 338.050 C 338.105 307.600 338.150 307.555 338.150 307.500 V 304.600 C 338.150 304.500 338.050 304.600 338.150 304.600 H 343.950 C 344.050 304.600 343.950 304.500 343.950 304.600 V 307.500 C 343.950 307.555 343.995 307.600 344.050 307.600 H 350.050 C 350.105 307.600 350.150 307.555 350.150 307.500 V 304.600 C 350.150 304.500 350.050 304.600 350.150 304.600 H 355.950 C 356.050 304.600 355.950 304.500 355.950 304.600 V 307.500 C 355.950 307.555 355.995 307.600 356.050 307.600 H 362.050 C 362.105 307.600 362.150 307.555 362.150 307.500 V 304.600 C 362.150 304.500 362.050 304.600 362.150 304.600 H 367.950 C 368.050 304.600 367.950 304.500 367.950 304.600 V 307.500 C 367.950 307.555 367.995 307.600 368.050 307.600 H 374.050 C 374.105 307.600 374.150 307.555 374.150 307.500 V 304.600 C 374.150 304.500 374.050 304.600 374.150 304.600 H 384.600 C 384.655 304.600 384.700 304.555 384.700 304.500 V 296.600 C 384.700 296.500 384.600 296.600 384.700 296.600 H 387.600 C 387.655 296.600 387.700 296.555 387.700 296.500 V 290.500 C 387.700 290.445 387.655 290.400 387.600 290.400 H 384.700 C 384.600 290.400 384.700 290.500 384.700 290.400 V 284.600 C 384.700 284.500 384.600 284.600 384.700 284.600 H 387.600 C 387.655 284.600 387.700 284.555 387.700 284.500 V 278.500 C 387.700 278.445 387.655 278.400 387.600 278.400 H 384.700 C 384.600 278.400 384.700 278.500 384.700 278.400 V 272.600 C 384.700 272.500 384.600 272.600 384.700 272.600 H 387.600 C 387.655 272.600 387.700 272.555 387.700 272.500 V 266.500 C 387.700 266.445 387.655 266.400 387.600 266.400 H 384.700 C 384.600 266.400 384.700 266.500 384.700 266.400 V 260.600 C 384.700 260.500 384.600 260.600 384.700 260.600 H 387.600 C 387.655 260.600 387.700 260.555 387.700 260.500 V 254.500 C 387.700 254.445 387.655 254.400 387.600 254.400 H 384.700 C 384.600 254.400 384.700 254.500 384.700 254.400 V 248.600 C 384.700 248.500 384.600 248.600 384.700 248.600 H 387.600 C 387.655 248.600 387.700 248.555 387.700 248.500 V 242.500 C 387.700 242.445 387.655 242.400 387.600 242.400 H 384.700 C 384.600 242.400 384.700 242.500 384.700 242.400 V 236.600 C 384.700 236.500 384.600 236.600 384.700 236.600 H 387.600 C 387.655 236.600 387.700 236.555 387.700 236.500 V 230.500 C 387.700 230.445 387.655 230.400 387.600 230.400 H 384.700 C 384.600 230.400 384.700 230.500 384.700 230.400 V 224.600 C 384.700 224.500 384.600 224.600 384.700 224.600 H 387.600 C 387.655 224.600 387.700 224.555 387.700 224.500 V 218.500 C 387.700 218.445 387.655 218.400 387.600 218.400 H 384.700 C 384.600 218.400 384.700 218.500 384.700 218.400 V 210.500 C 384.700 210.445 384.655 210.400 384.600 210.400 H 297.500 C 297.445 210.400 297.400 210.445 297.400 210.500 V 218.400 C 297.400 218.500 297.500 218.400 297.400 218.400 H 294.500 C 294.445 218.400 294.400 218.445 294.400 218.500 V 224.500 C 294.400 224.555 294.445 224.600 294.500 224.600 H 297.400 C 297.500 224.600 297.400 224.500 297.400 224.600 V 230.400 C 297.400 230.500 297.500 230.400 297.400 230.400 H 294.500 C 294.445 230.400 294.400 230.445 294.400 230.500 V 236.500 C 294.400 236.555 294.445 236.600 294.500 236.600 H 297.400 C 297.500 236.600 297.400 236.500 297.400 236.600 V 242.400 C 297.400 242.500 297.500 242.400 297.400 242.400 H 294.500 C 294.445 242.400 294.400 242.445 294.400 242.500 V 248.500 C 294.400 248.555 294.445 248.600 294.500 248.600 H 297.400 C 297.500 248.600 297.400 248.500 297.400 248.600 V 254.400 C 297.400 254.500 297.500 254.400 297.400 254.400 H 294.500 C 294.445 254.400 294.400 254.445 294.400 254.500 V 260.500 C 294.400 260.555 294.445 260.600 294.500 260.600 H 297.400 C 297.500 260.600 297.400 260.500 297.400 260.600 V 266.400 C 297.400 266.500 297.500 266.400 297.400 266.400 H 294.500 C 294.445 266.400 294.400 266.445 294.400 266.500 V 272.500 C 294.400 272.555 294.445 272.600 294.500 272.600 H 297.400 C 297.500 272.600 297.400 272.500 297.400 272.600 V 278.400 C 297.400 278.500 297.500 278.400 297.400 278.400 H 294.500 C 294.445 278.400 294.400 278.445 294.400 278.500 V 284.500 C 294.400 284.555 294.445 284.600 294.500 284.600 H 297.400 C 297.500 284.600 297.400 284.500 297.400 284.600 V 290.400 C 297.400 290.500 297.500 290.400 297.400 290.400 H 294.500 C 294.445 290.400 294.400 290.445 294.400 290.500 V 296.500 C 294.400 296.555 294.445 296.600 294.500 296.600 H 297.400 C 297.500 296.600 297.400 296.500 297.400 296.600 V 304.500 C 297.400 304.555 297.445 304.600 297.500 304.600 Z" stroke="rgb(0,0,0)" stroke-width="0.20" />
</g>
<g id="p-5" style="fill:none;stroke-linecap:round;stroke-linejoin:round;">
  <path d="M 13.100 205.900 H 21.000 C 21.100 205.900 21.000 205.800 21.000 205.900 V 208.800 C 21.000 208.855 21.045 208.900 21.100 208.900 H 27.100 C 27.155 208.900 27.200 208.855 27.200 208.800 V 205.900 C 27.200 205.800 27.100 205.900 27.200 205.900 H 33.000 C 33.100 205.900 33.000 205.800 33.000 205.900 V 208.800 C 33.000 208.855 33.045 208.900 33.100 208.900 H 39.100 C 39.155 208.900 39.200 208.855 39.200 208.800 V 205.900 C 39.200 205.800 39.100 205.900 39.200 205.900 H 45.000 C 45.100 205.900 45.000 205.800 45.000 205.900 V 208.800 C 45.000 208.855 45.045 208.900 45.100 208.900 H 51.100 C 51.155 208.900 51.200 208.855 51.200 208.800 V 205.900 C 51.200 205.800 51.100 205.900 51.200 205.900 H 57.000 C 57.100 205.900 57.000 205.800 57.000 205.900 V 208.800 C 57.000 208.855 57.045 208.900 57.100 208.900 H 63.100 C 63.155 208.900 63.200 208.855 63.200 208.800 V 205.900 C 63.200 205.800 63.100 205.900 63.200 205.900 H 69.000 C 69.100 205.900 69.000 205.800 69.000 205.900 V 208.800 C 69.000 208.855 69.045 208.900 69.100 208.900 H 75.100 C 75.155 208.900 75.200 208.855 75.200 208.800 V 205.900 C 75.200 205.800 75.100 205.900 75.200 205.900 H 81.000 C 81.100 205.900 81.000 205.800 81.000 205.900 V 208.800 C 81.000 208.855 81.045 208.900 81.100 208.900 H 87.100 C 87.155 208.900 87.200 208.855 87.200 208.800 V 205.900 C 87.200 205.800 87.100 205.900 87.200 205.900 H 93.000 C 93.100 205.900 93.000 205.800 93.000 205.900 V 208.800 C 93.000 208.855 93.045 208.900 93.100 208.900 H 99.100 C 99.155 208.900 99.200 208.855 99.200 208.800 V 205.900 C 99.200 205.800 99.100 205.900 99.200 205.900 H 107.100 H 110.100 C 110.155 205.900 110.200 205.855 110.200 205.800 V 197.800 C 110.200 197.745 110.155 197.700 110.100 197.700 H 107.200 C 107.100 197.700 107.200 197.800 107.200 197.700 V 191.900 C 107.200 191.800 107.100 191.900 107.200 191.900 H 110.100 C 110.155 191.900 110.200 191.855 110.200 191.800 V 185.800 C 110.200 185.745 110.155 185.700 110.100 185.700 H 107.200 C 107.100 185.700 107.200 185.800 107.200 185.700 V 179.900 C 107.200 179.800 107.100 179.900 107.200 179.900 H 110.100 C 110.155 179.900 110.200 179.855 110.200 179.800 V 173.800 C 110.200 173.745 110.155 173.700 110.100 173.700 H 107.200 C 107.100 173.700 107.200 173.800 107.200 173.700 V 167.900 C 107.200 167.800 107.100 167.900 107.200 167.900 H 110.100 C 110.155 167.900 110.200 167.855 110.200 167.800 V 161.800 C 110.200 161.745 110.155 161.700 110.100 161.700 H 107.200 C 107.100 161.700 107.200 161.800 107.200 161.700 V 155.900 C 107.200 155.800 107.100 155.900 107.200 155.900 H 110.100 C 110.155 155.900 110.200 155.855 110.200 155.800 V 149.800 C 110.200 149.745 110.155 149.700 110.100 149.700 H 107.200 C 107.100 149.700 107.200 149.800 107.200 149.700 V 143.900 C 107.200 143.800 107.100 143.900 107.200 143.900 H 110.100 C 110.155 143.900 110.200 143.855 110.200 143.800 V 137.800 C 110.200 137.745 110.155 137.700 110.100 137.700 H 107.200 C 107.100 137.700 107.200 137.800 107.200 137.700 V 131.900 C 107.200 131.800 107.100 131.900 107.200 131.900 H 110.100 C 110.155 131.900 110.200 131.855 110.200 131.800 V 125.800 C 110.200 125.745 110.155 125.700 110.100 125.700 H 107.200 C 107.100 125.700 107.200 125.800 107.200 125.700 V 119.900 C 107.200 119.800 107.100 119.900 107.200 119.900 H 110.100 C 110.155 119.900 110.200 119.855 110.200 119.800 V 111.800 C 110.200 111.745 110.155 111.700 110.100 111.700 H 107.100 H 13.100 H 10.100 C 10.045 111.700 10.000 111.745 10.000 111.800 V 119.800 C 10.000 119.855 10.045 119.900 10.100 119.900 H 13.000 C 13.100 119.900 13.000 119.800 13.000 119.900 V 125.700 C 13.000 125.800 13.100 125.700 13.000 125.700 H 10.100 C 10.045 125.700 10.000 125.745 10.000 125.800 V 131.800 C 10.000 131.855 10.045 131.900 10.100 131.900 H 13.000 C 13.100 131.900 13.000 131.800 13.000 131.900 V 137.700 C 13.000 137.800 13.100 137.700 13.000 137.700 H 10.100 C 10.045 137.700 10.000 137.745 10.000 137.800 V 143.800 C 10.000 143.855 10.045 143.900 10.100 143.900 H 13.000 C 13.100 143.900 13.000 143.800 13.000 143.900 V 149.700 C 13.000 149.800 13.100 149.700 13.000 149.700 H 10.100 C 10.045 149.700 10.000 149.745 10.000 149.800 V 155.800 C 10.000 155.855 10.045 155.900 10.100 155.900 H 13.000 C 13.100 155.900 13.000 155.800 13.000 155.900 V 161.700 C 13.000 161.800 13.100 161.700 13.000 161.700 H 10.100 C 10.045 161.700 10.000 161.745 10.000 161.800 V 167.800 C 10.000 167.855 10.045 167.900 10.100 167.900 H 13.000 C 13.100 167.900 13.000 167.800 13.000 167.900 V 173.700 C 13.000 173.800 13.100 173.700 13.000 173.700 H 10.100 C 10.045 173.700 10.000 173.745 10.000 173.800 V 179.800 C 10.000 179.855 10.045 179.900 10.100 179.900 H 13.000 C 13.100 179.900 13.000 179.800 13.000 179.900 V 185.700 C 13.000 185.800 13.100 185.700 13.000 185.700 H 10.100 C 10.045 185.700 10.000 185.745 10.000 185.800 V 191.800 C 10.000 191.855 10.045 191.900 10.100 191.900 H 13.000 C 13.100 191.900 13.000 191.800 13.000 191.900 V 197.700 C 13.000 197.800 13.100 197.700 13.000 197.700 H 10.100 C 10.045 197.700 10.000 197.745 10.000 197.800 V 205.800 C 10.000 205.855 10.045 205.900 10.100 205.900 H 13.100 Z" stroke="rgb(0,0,0)" stroke-width="0.20" />
</g>
<g id="p-6" style="fill:none;stroke-linecap:round;stroke-linejoin:round;">
  <path d="M 114.800 205.900 H 122.700 C 122.800 205.900 122.700 205.800 122.700 205.900 V 208.800 C 122.700 208.855 122.745 208.900 122.800 208.900 H 128.800 C 128.855 208.900 128.900 208.855 128.900 208.800 V 205.900 C 128.900 205.800 128.800 205.900 128.900 205.900 H 134.700 C 134.800 205.900 134.700 205.800 134.700 205.900 V 208.800 C 134.700 208.855 134.745 208.900 134.800 208.900 H 140.800 C 140.855 208.900 140.900 208.855 140.900 208.800 V 205.900 C 140.900 205.800 140.800 205.900 140.900 205.900 H 146.700 C 146.800 205.900 146.700 205.800 146.700 205.900 V 208.800 C 146.700 208.855 146.745 208.900 146.800 208.900 H 152.800 C 152.855 208.900 152.900 208.855 152.900 208.800 V 205.900 C 152.900 205.800 152.800 205.900 152.900 205.900 H 158.700 C 158.800 205.900 158.700 205.800 158.700 205.900 V 208.800 C 158.700 208.855 158.745 208.900 158.800 208.900 H 164.800 C 164.855 208.900 164.900 208.855 164.900 208.800 V 205.900 C 164.900 205.800 164.800 205.900 164.900 205.900 H 170.700 C 170.800 205.900 170.700 205.800 170.700 205.900 V 208.800 C 170.700 208.855 170.745 208.900 170.800 208.900 H 176.800 C 176.855 208.900 176.900 208.855 176.900 208.800 V 205.900 C 176.900 205.800 176.800 205.900 176.900 205.900 H 182.700 C 182.800 205.900 182.700 205.800 182.700 205.900 V 208.800 C 182.700 208.855 182.745 208.900 182.800 208.900 H 188.800 C 188.855 208.900 188.900 208.855 188.900 208.800 V 205.900 C 188.900 205.800 188.800 205.900 188.900 205.900 H 194.700 C 194.800 205.900 194.700 205.800 194.700 205.900 V 208.800 C 194.700 208.855 194.745 208.900 194.800 208.900 H 200.800 C 200.855 208.900 200.900 208.855 200.900 208.800 V 205.900 C 200.900 205.800 200.800 205.900 200.900 205.900 H 208.800 C 208.855 205.900 208.900 205.855 208.900 205.800 V 197.900 C 208.900 197.800 208.800 197.900 208.900 197.900 H 211.800 C 211.855 197.900 211.900 197.855 211.900 197.800 V 191.800 C 211.900 191.745 211.855 191.700 211.800 191.700 H 208.900 C 208.800 191.700 208.900 191.800 208.900 191.700 V 185.900 C 208.900 185.800 208.800 185.900 208.900 185.900 H 211.800 C 211.855 185.900 211.900 185.855 211.900 185.800 V 179.800 C 211.900 179.745 211.855 179.700 211.800 179.700 H 208.900 C 208.800 179.700 208.900 179.800 208.900 179.700 V 173.900 C 208.900 173.800 208.800 173.900 208.900 173.900 H 211.800 C 211.855 173.900 211.900 173.855 211.900 173.800 V 167.800 C 211.900 167.745 211.855 167.700 211.800 167.700 H 208.900 C 208.800 167.700 208.900 167.800 208.900 167.700 V 161.900 C 208.900 161.800 208.800 161.900 208.900 161.900 H 211.800 C 211.855 161.900 211.900 161.855 211.900 161.800 V 155.800 C 211.900 155.745 211.855 155.700 211.800 155.700 H 208.900 C 208.800 155.700 208.900 155.800 208.900 155.700 V 149.900 C 208.900 149.800 208.800 149.900 208.900 149.900 H 211.800 C 211.855 149.900 211.900 149.855 211.900 149.800 V 143.800 C 211.900 143.745 211.855 143.700 211.800 143.700 H 208.900 C 208.800 143.700 208.900 143.800 208.900 143.700 V 137.900 C 208.900 137.800 208.800 137.900 208.900 137.900 H 211.800 C 211.855 137.900 211.900 137.855 211.900 137.800 V 131.800 C 211.900 131.745 211.855 131.700 211.800 131.700 H 208.900 C 208.800 131.700 208.900 131.800 208.900 131.700 V 125.900 C 208.900 125.800 208.800 125.900 208.900 125.900 H 211.800 C 211.855 125.900 211.900 125.855 211.900 125.800 V 119.800 C 211.900 119.745 211.855 119.700 211.800 119.700 H 208.900 C 208.800 119.700 208.900 119.800 208.900 119.700 V 111.800 C 208.900 111.745 208.855 111.700 208.800 111.700 H 114.800 C 114.745 111.700 114.700 111.745 114.700 111.800 V 119.700 C 114.700 119.800 114.800 119.700 114.700 119.700 H 111.800 C 111.745 119.700 111.700 119.745 111.700 119.800 V 125.800 C 111.700 125.855 111.745 125.900 111.800 125.900 H 114.700 C 114.800 125.900 114.700 125.800 114.700 125.900 V 131.700 C 114.700 131.800 114.800 131.700 114.700 131.700 H 111.800 C 111.745 131.700 111.700 131.745 111.700 131.800 V 137.800 C 111.700 137.855 111.745 137.900 111.800 137.900 H 114.700 C 114.800 137.900 114.700 137.800 114.700 137.900 V 143.700 C 114.700 143.800 114.800 143.700 114.700 143.700 H 111.800 C 111.745 143.700 111.700 143.745 111.700 143.800 V 149.800 C 111.700 149.855 111.745 149.900 111.800 149.900 H 114.700 C 114.800 149.900 114.700 149.800 114.700 149.900 V 155.700 C 114.700 155.800 114.800 155.700 114.700 155.700 H 111.800 C 111.745 155.700 111.700 155.745 111.700 155.800 V 161.800 C 111.700 161.855 111.745 161.900 111.800 161.900 H 114.700 C 114.800 161.900 114.700 161.800 114.700 161.900 V 167.700 C 114.700 167.800 114.800 167.700 114.700 167.700 H 111.800 C 111.745 167.700 111.700 167.745 111.700 167.800 V 173.800 C 111.700 173.855 111.745 173.900 111.800 173.900 H 114.700 C 114.800 173.900 114.700 173.800 114.700 173.900 V 179.700 C 114.700 179.800 114.800 179.700 114.700 179.700 H 111.800 C 111.745 179.700 111.700 179.745 111.700 179.800 V 185.800 C 111.700 185.855 111.745 185.900 111.800 185.900 H 114.700 C 114.800 185.900 114.700 185.800 114.700 185.900 V 191.700 C 114.700 191.800 114.800 191.700 114.700 191.700 H 111.800 C 111.745 191.700 111.700 191.745 111.700 191.800 V 197.800 C 111.700 197.855 111.745 197.900 111.800 197.900 H 114.700 C 114.800 197.900 114.700 197.800 114.700 197.900 V 205.800 C 114.700 205.855 114.745 205.900 114.800 205.900 Z" stroke="rgb(0,0,0)" stroke-width="0.20" />
</g>
<g id="p-7" style="fill:none;stroke-linecap:round;stroke-linejoin:round;">
  <path d="M 216.500 205.900 H 224.400 C 224.500 205.900 224.400 205.800 224.400 205.900 V 208.800 C 224.400 208.855 224.445 208.900 224.500 208.900 H 230.500 C 230.555 208.900 230.600 208.855 230.600 208.800 V 205.900 C 230.600 205.800 230.500 205.900 230.600 205.900 H 236.400 C 236.500 205.900 236.400 205.800 236.400 205.900 V 208.800 C 236.400 208.855 236.445 208.900 236.500 208.900 H 242.500 C 242.555 208.900 242.600 208.855 242.600 208.800 V 205.900 C 242.600 205.800 242.500 205.900 242.600 205.900 H 248.400 C 248.500 205.900 248.400 205.800 248.400 205.900 V 208.800 C 248.400 208.855 248.445 208.900 248.500 208.900 H 254.500 C 254.555 208.900 254.600 208.855 254.600 208.800 V 205.900 C 254.600 205.800 254.500 205.900 254.600 205.900 H 260.400 C 260.500 205.900 260.400 205.800 260.400 205.900 V 208.800 C 260.400 208.855 260.445 208.900 260.500 208.900 H 266.500 C 266.555 208.900 266.600 208.855 266.600 208.800 V 205.900 C 266.600 205.800 266.500 205.900 266.600 205.900 H 272.400 C 272.500 205.900 272.400 205.800 272.400 205.900 V 208.800 C 272.400 208.855 272.445 208.900 272.500 208.900 H 278.500 C 278.555 208.900 278.600 208.855 278.600 208.800 V 205.900 C 278.600 205.800 278.500 205.900 278.600 205.900 H 284.400 C 284.500 205.900 284.400 205.800 284.400 205.900 V 208.800 C 284.400 208.855 284.445 208.900 284.500 208.900 H 290.500 C 290.555 208.900 290.600 208.855 290.600 208.800 V 205.900 C 290.600 205.800 290.500 205.900 290.600 205.900 H 296.400 C 296.500 205.900 296.400 205.800 296.400 205.900 V 208.800 C 296.400 208.855 296.445 208.900 296.500 208.900 H 302.500 C 302.555 208.900 302.600 208.855 302.600 208.800 V 205.900 C 302.600 205.800 302.500 205.900 302.600 205.900 H 310.500 H 313.500 C 313.555 205.900 313.600 205.855 313.600 205.800 V 197.800 C 313.600 197.745 313.555 197.700 313.500 197.700 H 310.600 C 310.500 197.700 310.600 197.800 310.600 197.700 V 191.900 C 310.600 191.800 310.500 191.900 310.600 191.900 H 313.500 C 313.555 191.900 313.600 191.855 313.600 191.800 V 185.800 C 313.600 185.745 313.555 185.700 313.500 185.700 H 310.600 C 310.500 185.700 310.600 185.800 310.600 185.700 V 179.900 C 310.600 179.800 310.500 179.900 310.600 179.900 H 313.500 C 313.555 179.900 313.600 179.855 313.600 179.800 V 173.800 C 313.600 173.745 313.555 173.700 313.500 173.700 H 310.600 C 310.500 173.700 310.600 173.800 310.600 173.700 V 167.900 C 310.600 167.800 310.500 167.900 310.600 167.900 H 313.500 C 313.555 167.900 313.600 167.855 313.600 167.800 V 161.800 C 313.600 161.745 313.555 161.700 313.500 161.700 H 310.600 C 310.500 161.700 310.600 161.800 310.600 161.700 V 155.900 C 310.600 155.800 310.500 155.900 310.600 155.900 H 313.500 C 313.555 155.900 313.600 155.855 313.600 155.800 V 149.800 C 313.600 149.745 313.555 149.700 313.500 149.700 H 310.600 C 310.500 149.700 310.600 149.800 310.600 149.700 V 143.900 C 310.600 143.800 310.500 143.900 310.600 143.900 H 313.500 C 313.555 143.900 313.600 143.855 313.600 143.800 V 137.800 C 313.600 137.745 313.555 137.700 313.500 137.700 H 310.600 C 310.500 137.700 310.600 137.800 310.600 137.700 V 131.900 C 310.600 131.800 310.500 131.900 310.600 131.900 H 313.500 C 313.555 131.900 313.600 131.855 313.600 131.800 V 125.800 C 313.600 125.745 313.555 125.700 313.500 125.700 H 310.600 C 310.500 125.700 310.600 125.800 310.600 125.700 V 119.900 C 310.600 119.800 310.500 119.900 310.600 119.900 H 313.500 C 313.555 119.900 313.600 119.855 313.600 119.800 V 111.800 C 313.600 111.745 313.555 111.700 313.500 111.700 H 310.500 H 216.500 H 213.500 C 213.445 111.700 213.400 111.745 213.400 111.800 V 119.800 C 213.400 119.855 213.445 119.900 213.500 119.900 H 216.400 C 216.500 119.900 216.400 119.800 216.400 119.900 V 125.700 C 216.400 125.800 216.500 125.700 216.400 125.700 H 213.500 C 213.445 125.700 213.400 125.745 213.400 125.800 V 131.800 C 213.400 131.855 213.445 131.900 213.500 131.900 H 216.400 C 216.500 131.900 216.400 131.800 216.400 131.900 V 137.700 C 216.400 137.800 216.500 137.700 216.400 137.700 H 213.500 C 213.445 137.700 213.400 137.745 213.400 137.800 V 143.800 C 213.400 143.855 213.445 143.900 213.500 143.900 H 216.400 C 216.500 143.900 216.400 143.800 216.400 143.900 V 149.700 C 216.400 149.800 216.500 149.700 216.400 149.700 H 213.500 C 213.445 149.700 213.400 149.745 213.400 149.800 V 155.800 C 213.400 155.855 213.445 155.900 213.500 155.900 H 216.400 C 216.500 155.900 216.400 155.800 216.400 155.900 V 161.700 C 216.400 161.800 216.500 161.700 216.400 161.700 H 213.500 C 213.445 161.700 213.400 161.745 213.400 161.800 V 167.800 C 213.400 167.855 213.445 167.900 213.500 167.900 H 216.400 C 216.500 167.900 216.400 167.800 216.400 167.900 V 173.700 C 216.400 173.800 216.500 173.700 216.400 173.700 H 213.500 C 213.445 173.700 213.400 173.745 213.400 173.800 V 179.800 C 213.400 179.855 213.445 179.900 213.500 179.900 H 216.400 C 216.500 179.900 216.400 179.800 216.400 179.900 V 185.700 C 216.400 185.800 216.500 185.700 216.400 185.700 H 213.500 C 213.445 185.700 213.400 185.745 213.400 185.800 V 191.800 C 213.400 191.855 213.445 191.900 213.500 191.900 H 216.400 C 216.500 191.900 216.400 191.800 216.400 191.900 V 197.700 C 216.400 197.800 216.500 197.700 216.400 197.700 H 213.500 C 213.445 197.700 213.400 197.745 213.400 197.800 V 205.800 C 213.400 205.855 213.445 205.900 213.500 205.900 H 216.500 Z" stroke="rgb(0,0,0)" stroke-width="0.20" />
</g>
<g id="p-8" style="fill:none;stroke-linecap:round;stroke-linejoin:round;">
  <path d="M 318.200 205.900 H 326.100 C 326.200 205.900 326.100 205.800 326.100 205.900 V 208.800 C 326.100 208.855 326.145 208.900 326.200 208.900 H 332.200 C 332.255 208.900 332.300 208.855 332.300 208.800 V 205.900 C 332.300 205.800 332.200 205.900 332.300 205.900 H 338.100 C 338.200 205.900 338.100 205.800 338.100 205.900 V 208.800 C 338.100 208.855 338.145 208.900 338.200 208.900 H 344.200 C 344.255 208.900 344.300 208.855 344.300 208.800 V 205.900 C 344.300 205.800 344.200 205.900 344.300 205.900 H 350.100 C 350.200 205.900 350.100 205.800 350.100 205.900 V 208.800 C 350.100 208.855 350.145 208.900 350.200 208.900 H 356.200 C 356.255 208.900 356.300 208.855 356.300 208.800 V 205.900 C 356.300 205.800 356.200 205.900 356.300 205.900 H 362.100 C 362.200 205.900 362.100 205.800 362.100 205.900 V 208.800 C 362.100 208.855 362.145 208.900 362.200 208.900 H 368.200 C 368.255 208.900 368.300 208.855 368.300 208.800 V 205.900 C 368.300 205.800 368.200 205.900 368.300 205.900 H 374.100 C 374.200 205.900 374.100 205.800 374.100 205.900 V 208.800 C 374.100 208.855 374.145 208.900 374.200 208.900 H 380.200 C 380.255 208.900 380.300 208.855 380.300 208.800 V 205.900 C 380.300 205.800 380.200 205.900 380.300 205.900 H 386.100 C 386.200 205.900 386.100 205.800 386.100 205.900 V 208.800 C 386.100 208.855 386.145 208.900 386.200 208.900 H 392.200 C 392.255 208.900 392.300 208.855 392.300 208.800 V 205.900 C 392.300 205.800 392.200 205.900 392.300 205.900 H 398.100 C 398.200 205.900 398.100 205.800 398.100 205.900 V 208.800 C 398.100 208.855 398.145 208.900 398.200 208.900 H 404.200 C 404.255 208.900 404.300 208.855 404.300 208.800 V 205.900 C 404.300 205.800 404.200 205.900 404.300 205.900 H 412.200 C 412.255 205.900 412.300 205.855 412.300 205.800 V 197.900 C 412.300 197.800 412.200 197.900 412.300 197.900 H 415.200 C 415.255 197.900 415.300 197.855 415.300 197.800 V 191.800 C 415.300 191.745 415.255 191.700 415.200 191.700 H 412.300 C 412.200 191.700 412.300 191.800 412.300 191.700 V 185.900 C 412.300 185.800 412.200 185.900 412.300 185.900 H 415.200 C 415.255 185.900 415.300 185.855 415.300 185.800 V 179.800 C 415.300 179.745 415.255 179.700 415.200 179.700 H 412.300 C 412.200 179.700 412.300 179.800 412.300 179.700 V 173.900 C 412.300 173.800 412.200 173.900 412.300 173.900 H 415.200 C 415.255 173.900 415.300 173.855 415.300 173.800 V 167.800 C 415.300 167.745 415.255 167.700 415.200 167.700 H 412.300 C 412.200 167.700 412.300 167.800 412.300 167.700 V 161.900 C 412.300 161.800 412.200 161.900 412.300 161.900 H 415.200 C 415.255 161.900 415.300 161.855 415.300 161.800 V 155.800 C 415.300 155.745 415.255 155.700 415.200 155.700 H 412.300 C 412.200 155.700 412.300 155.800 412.300 155.700 V 149.900 C 412.300 149.800 412.200 149.900 412.300 149.900 H 415.200 C 415.255 149.900 415.300 149.855 415.300 149.800 V 143.800 C 415.300 143.745 415.255 143.700 415.200 143.700 H 412.300 C 412.200 143.700 412.300 143.800 412.300 143.700 V 137.900 C 412.300 137.800 412.200 137.900 412.300 137.900 H 415.200 C 415.255 137.900 415.300 137.855 415.300 137.800 V 131.800 C 415.300 131.745 415.255 131.700 415.200 131.700 H 412.300 C 412.200 131.700 412.300 131.800 412.300 131.700 V 125.900 C 412.300 125.800 412.200 125.900 412.300 125.900 H 415.200 C 415.255 125.900 415.300 125.855 415.300 125.800 V 119.800 C 415.300 119.745 415.255 119.700 415.200 119.700 H 412.300 C 412.200 119.700 412.300 119.800 412.300 119.700 V 111.800 C 412.300 111.745 412.255 111.700 412.200 111.700 H 318.200 C 318.145 111.700 318.100 111.745 318.100 111.800 V 119.700 C 318.100 119.800 318.200 119.700 318.100 119.700 H 315.200 C 315.145 119.700 315.100 119.745 315.100 119.800 V 125.800 C 315.100 125.855 315.145 125.900 315.200 125.900 H 318.100 C 318.200 125.900 318.100 125.800 318.100 125.900 V 131.700 C 318.100 131.800 318.200 131.700 318.100 131.700 H 315.200 C 315.145 131.700 315.100 131.745 315.100 131.800 V 137.800 C 315.100 137.855 315.145 137.900 315.200 137.900 H 318.100 C 318.200 137.900 318.100 137.800 318.100 137.900 V 143.700 C 318.100 143.800 318.200 143.700 318.100 143.700 H 315.200 C 315.145 143.700 315.100 143.745 315.100 143.800 V 149.800 C 315.100 149.855 315.145 149.900 315.200 149.900 H 318.100 C 318.200 149.900 318.100 149.800 318.100 149.900 V 155.700 C 318.100 155.800 318.200 155.700 318.100 155.700 H 315.200 C 315.145 155.700 315.100 155.745 315.100 155.800 V 161.800 C 315.100 161.855 315.145 161.900 315.200 161.900 H 318.100 C 318.200 161.900 318.100 161.800 318.100 161.900 V 167.700 C 318.100 167.800 318.200 167.700 318.100 167.700 H 315.200 C 315.145 167.700 315.100 167.745 315.100 167.800 V 173.800 C 315.100 173.855 315.145 173.900 315.200 173.900 H 318.100 C 318.200 173.900 318.100 173.800 318.100 173.900 V 179.700 C 318.100 179.800 318.200 179.700 318.100 179.700 H 315.200 C 315.145 179.700 315.100 179.745 315.100 179.800 V 185.800 C 315.100 185.855 315.145 185.900 315.200 185.900 H 318.100 C 318.200 185.900 318.100 185.800 318.100 185.900 V 191.700 C 318.100 191.800 318.200 191.700 318.100 191.700 H 315.200 C 315.145 191.700 315.100 191.745 315.100 191.800 V 197.800 C 315.100 197.855 315.145 197.900 315.200 197.900 H 318.100 C 318.200 197.900 318.100 197.800 318.100 197.900 V 205.800 C 318.100 205.855 318.145 205.900 318.200 205.900 Z" stroke="rgb(0,0,0)" stroke-width="0.20" />
</g>
<g id="p-9" style="fill:none;stroke-linecap:round;stroke-linejoin:round;">
  <path d="M 30.100 106.550 H 27.200 C 27.100 106.550 27.200 106.650 27.200 106.550 V 103.750 C 27.200 103.650 27.100 103.750 27.200 103.750 H 33.000 C 33.100 103.750 33.000 103.650 33.000 103.750 V 106.550 C 33.000 106.650 33.100 106.550 33.000 106.550 H 30.100 Z" stroke="rgb(0,0,255)" stroke-width="0.20" />
  <path d="M 42.100 106.550 H 39.200 C 39.100 106.550 39.200 106.650 39.200 106.550 V 103.750 C 39.200 103.650 39.100 103.750 39.200 103.750 H 45.000 C 45.100 103.750 45.000 103.650 45.000 103.750 V 106.550 C 45.000 106.650 45.100 106.550 45.000 106.550 H 42.100 Z" stroke="rgb(0,0,255)" stroke-width="0.20" />
  <path d="M 54.100 106.550 H 51.200 C 51.100 106.550 51.200 106.650 51.200 106.550 V 103.750 C 51.200 103.650 51.100 103.750 51.200 103.750 H 57.000 C 57.100 103.750 57.000 103.650 57.000 103.750 V 106.550 C 57.000 106.650 57.100 106.550 57.000 106.550 H 54.100 Z" stroke="rgb(0,0,255)" stroke-width="0.20" />
  <path d="M 66.100 106.550 H 63.200 C 63.100 106.550 63.200 106.650 63.200 106.550 V 103.750 C 63.200 103.650 63.100 103.750 63.200 103.750 H 69.000 C 69.100 103.750 69.000 103.650 69.000 103.750 V 106.550 C 69.000 106.650 69.100 106.550 69.000 106.550 H 66.100 Z" stroke="rgb(0,0,255)" stroke-width="0.20" />
  <path d="M 78.100 106.550 H 75.200 C 75.100 106.550 75.200 106.650 75.200 106.550 V 103.750 C 75.200 103.650 75.100 103.750 75.200 103.750 H 81.000 C 81.100 103.750 81.000 103.650 81.000 103.750 V 106.550 C 81.000 106.650 81.100 106.550 81.000 106.550 H 78.100 Z" stroke="rgb(0,0,255)" stroke-width="0.20" />
  <path d="M 90.100 106.550 H 87.200 C 87.100 106.550 87.200 106.650 87.200 106.550 V 103.750 C 87.200 103.650 87.100 103.750 87.200 103.750 H 93.000 C 93.100 103.750 93.000 103.650 93.000 103.750 V 106.550 C 93.000 106.650 93.100 106.550 93.000 106.550 H 90.100 Z" stroke="rgb(0,0,255)" stroke-width="0.20" />
  <path d="M 16.550 110.200 H 103.650 H 110.100 C 110.155 110.200 110.200 110.155 110.200 110.100 V 103.650 V 16.550 V 10.100 C 110.200 10.045 110.155 10.000 110.100 10.000 H 103.650 H 16.550 H 10.100 C 10.045 10.000 10.000 10.045 10.000 10.100 V 16.550 V 103.650 V 110.100 C 10.000 110.155 10.045 110.200 10.100 110.200 H 16.550 Z" stroke="rgb(0,0,0)" stroke-width="0.20" />
  <path d="M 106.550 90.100 V 93.000 C 106.550 93.100 106.650 93.000 106.550 93.000 H 103.750 C 103.650 93.000 103.750 93.100 103.750 93.000 V 87.200 C 103.750 87.100 103.650 87.200 103.750 87.200 H 106.550 C 106.650 87.200 106.550 87.100 106.550 87.200 V 90.100 Z" stroke="rgb(0,0,255)" stroke-width="0.20" />
  <path d="M 106.550 78.100 V 81.000 C 106.550 81.100 106.650 81.000 106.550 81.000 H 103.750 C 103.650 81.000 103.750 81.100 103.750 81.000 V 75.200 C 103.750 75.100 103.650 75.200 103.750 75.200 H 106.550 C 106.650 75.200 106.550 75.100 106.550 75.200 V 78.100 Z" stroke="rgb(0,0,255)" stroke-width="0.20" />
  <path d="M 106.550 66.100 V 69.000 C 106.550 69.100 106.650 69.000 106.550 69.000 H 103.750 C 103.650 69.000 103.750 69.100 103.750 69.000 V 63.200 C 103.750 63.100 103.650 63.200 103.750 63.200 H 106.550 C 106.650 63.200 106.550 63.100 106.550 63.200 V 66.100 Z" stroke="rgb(0,0,255)" stroke-width="0.20" />
  <path d="M 106.550 54.100 V 57.000 C 106.550 57.100 106.650 57.000 106.550 57.000 H 103.750 C 103.650 57.000 103.750 57.100 103.750 57.000 V 51.200 C 103.750 51.100 103.650 51.200 103.750 51.200 H 106.550 C 106.650 51.200 106.550 51.100 106.550 51.200 V 54.100 Z" stroke="rgb(0,0,255)" stroke-width="0.20" />
  <path d="M 106.550 42.100 V 45.000 C 106.550 45.100 106.650 45.000 106.550 45.000 H 103.750 C 103.650 45.000 103.750 45.100 103.750 45.000 V 39.200 C 103.750 39.100 103.650 39.200 103.750 39.200 H 106.550 C 106.650 39.200 106.550 39.100 106.550 39.200 V 42.100 Z" stroke="rgb(0,0,255)" stroke-width="0.20" />
  <path d="M 106.550 30.100 V 33.000 C 106.550 33.100 106.650 33.000 106.550 33.000 H 103.750 C 103.650 33.000 103.750 33.100 103.750 33.000 V 27.200 C 103.750 27.100 103.650 27.200 103.750 27.200 H 106.550 C 106.650 27.200 106.550 27.100 106.550 27.200 V 30.100 Z" stroke="rgb(0,0,255)" stroke-width="0.20" />
  <path d="M 90.100 13.650 H 93.000 C 93.100 13.650 93.000 13.550 93.000 13.650 V 16.450 C 93.000 16.550 93.100 16.450 93.000 16.450 H 87.200 C 87.100 16.450 87.200 16.550 87.200 16.450 V 13.650 C 87.200 13.550 87.100 13.650 87.200 13.650 H 90.100 Z" stroke="rgb(0,0,255)" stroke-width="0.20" />
  <path d="M 78.100 13.650 H 81.000 C 81.100 13.650 81.000 13.550 81.000 13.650 V 16.450 C 81.000 16.550 81.100 16.450 81.000 16.450 H 75.200 C 75.100 16.450 75.200 16.550 75.200 16.450 V 13.650 C 75.200 13.550 75.100 13.650 75.200 13.650 H 78.100 Z" stroke="rgb(0,0,255)" stroke-width="0.20" />
  <path d="M 66.100 13.650 H 69.000 C 69.100 13.650 69.000 13.550 69.000 13.650 V 16.450 C 69.000 16.550 69.100 16.450 69.000 16.450 H 63.200 C 63.100 16.450 63.200 16.550 63.200 16.450 V 13.650 C 63.200 13.550 63.100 13.650 63.200 13.650 H 66.100 Z" stroke="rgb(0,0,255)" stroke-width="0.20" />
  <path d="M 54.100 13.650 H 57.000 C 57.100 13.650 57.000 13.550 57.000 13.650 V 16.450 C 57.000 16.550 57.100 16.450 57.000 16.450 H 51.200 C 51.100 16.450 51.200 16.550 51.200 16.450 V 13.650 C 51.200 13.550 51.100 13.650 51.200 13.650 H 54.100 Z" stroke="rgb(0,0,255)" stroke-width="0.20" />
  <path d="M 42.100 13.650 H 45.000 C 45.100 13.650 45.000 13.550 45.000 13.650 V 16.450 C 45.000 16.550 45.100 16.450 45.000 16.450 H 39.200 C 39.100 16.450 39.200 16.550 39.200 16.450 V 13.650 C 39.200 13.550 39.100 13.650 39.200 13.650 H 42.100 Z" stroke="rgb(0,0,255)" stroke-width="0.20" />
  <path d="M 30.100 13.650 H 33.000 C 33.100 13.650 33.000 13.550 33.000 13.650 V 16.450 C 33.000 16.550 33.100 16.450 33.000 16.450 H 27.200 C 27.100 16.450 27.200 16.550 27.200 16.450 V 13.650 C 27.200 13.550 27.100 13.650 27.200 13.650 H 30.100 Z" stroke="rgb(0,0,255)" stroke-width="0.20" />
  <path d="M 13.650 30.100 V 27.200 C 13.650 27.100 13.550 27.200 13.650 27.200 H 16.450 C 16.550 27.200 16.450 27.100 16.450 27.200 V 33.000 C 16.450 33.100 16.550 33.000 16.450 33.000 H 13.650 C 13.550 33.000 13.650 33.100 13.650 33.000 V 30.100 Z" stroke="rgb(0,0,255)" stroke-width="0.20" />
  <path d="M 13.650 42.100 V 39.200 C 13.650 39.100 13.550 39.200 13.650 39.200 H 16.450 C 16.550 39.200 16.450 39.100 16.450 39.200 V 45.000 C 16.450 45.100 16.550 45.000 16.450 45.000 H 13.650 C 13.550 45.000 13.650 45.100 13.650 45.000 V 42.100 Z" stroke="rgb(0,0,255)" stroke-width="0.20" />
  <path d="M 13.650 54.100 V 51.200 C 13.650 51.100 13.550 51.200 13.650 51.200 H 16.450 C 16.550 51.200 16.450 51.100 16.450 51.200 V 57.000 C 16.450 57.100 16.550 57.000 16.450 57.000 H 13.650 C 13.550 57.000 13.650 57.100 13.650 57.000 V 54.100 Z" stroke="rgb(0,0,255)" stroke-width="0.20" />
  <path d="M 13.650 66.100 V 63.200 C 13.650 63.100 13.550 63.200 13.650 63.200 H 16.450 C 16.550 63.200 16.450 63.100 16.450 63.200 V 69.000 C 16.450 69.100 16.550 69.000 16.450 69.000 H 13.650 C 13.550 69.000 13.650 69.100 13.650 69.000 V 66.100 Z" stroke="rgb(0,0,255)" stroke-width="0.20" />
  <path d="M 13.650 78.100 V 75.200 C 13.650 75.100 13.550 75.200 13.650 75.200 H 16.450 C 16.550 75.200 16.450 75.100 16.450 75.200 V 81.000 C 16.450 81.100 16.550 81.000 16.450 81.000 H 13.650 C 13.550 81.000 13.650 81.100 13.650 81.000 V 78.100 Z" stroke="rgb(0,0,255)" stroke-width="0.20" />
  <path d="M 13.650 90.100 V 87.200 C 13.650 87.100 13.550 87.200 13.650 87.200 H 16.450 C 16.550 87.200 16.450 87.100 16.450 87.200 V 93.000 C 16.450 93.100 16.550 93.000 16.450 93.000 H 13.650 C 13.550 93.000 13.650 93.100 13.650 93.000 V 90.100 Z" stroke="rgb(0,0,255)" stroke-width="0.20" />
</g>
<g id="p-10" style="fill:none;stroke-linecap:round;stroke-linejoin:round;">
  <path d="M 114.800 110.200 H 122.800 C 122.855 110.200 122.900 110.155 122.900 110.100 V 107.200 C 122.900 107.100 122.800 107.200 122.900 107.200 H 128.700 C 128.800 107.200 128.700 107.100 128.700 107.200 V 110.100 C 128.700 110.155 128.745 110.200 128.800 110.200 H 134.800 C 134.855 110.200 134.900 110.155 134.900 110.100 V 107.200 C 134.900 107.100 134.800 107.200 134.900 107.200 H 140.700 C 140.800 107.200 140.700 107.100 140.700 107.200 V 110.100 C 140.700 110.155 140.745 110.200 140.800 110.200 H 146.800 C 146.855 110.200 146.900 110.155 146.900 110.100 V 107.200 C 146.900 107.100 146.800 107.200 146.900 107.200 H 152.700 C 152.800 107.200 152.700 107.100 152.700 107.200 V 110.100 C 152.700 110.155 152.745 110.200 152.800 110.200 H 158.800 C 158.855 110.200 158.900 110.155 158.900 110.100 V 107.200 C 158.900 107.100 158.800 107.200 158.900 107.200 H 164.700 C 164.800 107.200 164.700 107.100 164.700 107.200 V 110.100 C 164.700 110.155 164.745 110.200 164.800 110.200 H 170.800 C 170.855 110.200 170.900 110.155 170.900 110.100 V 107.200 C 170.900 107.100 170.800 107.200 170.900 107.200 H 176.700 C 176.800 107.200 176.700 107.100 176.700 107.200 V 110.100 C 176.700 110.155 176.745 110.200 176.800 110.200 H 182.800 C 182.855 110.200 182.900 110.155 182.900 110.100 V 107.200 C 182.900 107.100 182.800 107.200 182.900 107.200 H 188.700 C 188.800 107.200 188.700 107.100 188.700 107.200 V 110.100 C 188.700 110.155 188.745 110.200 188.800 110.200 H 194.800 C 194.855 110.200 194.900 110.155 194.900 110.100 V 107.200 C 194.900 107.100 194.800 107.200 194.900 107.200 H 200.700 C 200.800 107.200 200.700 107.100 200.700 107.200 V 110.100 C 200.700 110.155 200.745 110.200 200.800 110.200 H 208.800 H 211.800 C 211.855 110.200 211.900 110.155 211.900 110.100 V 107.100 V 99.100 C 211.900 99.045 211.855 99.000 211.800 99.000 H 208.900 C 208.800 99.000 208.900 99.100 208.900 99.000 V 93.200 C 208.900 93.100 208.800 93.200 208.900 93.200 H 211.800 C 211.855 93.200 211.900 93.155 211.900 93.100 V 87.100 C 211.900 87.045 211.855 87.000 211.800 87.000 H 208.900 C 208.800 87.000 208.900 87.100 208.900 87.000 V 81.200 C 208.900 81.100 208.800 81.200 208.900 81.200 H 211.800 C 211.855 81.200 211.900 81.155 211.900 81.100 V 75.100 C 211.900 75.045 211.855 75.000 211.800 75.000 H 208.900 C 208.800 75.000 208.900 75.100 208.900 75.000 V 69.200 C 208.900 69.100 208.800 69.200 208.900 69.200 H 211.800 C 211.855 69.200 211.900 69.155 211.900 69.100 V 63.100 C 211.900 63.045 211.855 63.000 211.800 63.000 H 208.900 C 208.800 63.000 208.900 63.100 208.900 63.000 V 57.200 C 208.900 57.100 208.800 57.200 208.900 57.200 H 211.800 C 211.855 57.200 211.900 57.155 211.900 57.100 V 51.100 C 211.900 51.045 211.855 51.000 211.800 51.000 H 208.900 C 208.800 51.000 208.900 51.100 208.900 51.000 V 45.200 C 208.900 45.100 208.800 45.200 208.900 45.200 H 211.800 C 211.855 45.200 211.900 45.155 211.900 45.100 V 39.100 C 211.900 39.045 211.855 39.000 211.800 39.000 H 208.900 C 208.800 39.000 208.900 39.100 208.900 39.000 V 33.200 C 208.900 33.100 208.800 33.200 208.900 33.200 H 211.800 C 211.855 33.200 211.900 33.155 211.900 33.100 V 27.100 C 211.900 27.045 211.855 27.000 211.800 27.000 H 208.900 C 208.800 27.000 208.900 27.100 208.900 27.000 V 21.200 C 208.900 21.100 208.800 21.200 208.900 21.200 H 211.800 C 211.855 21.200 211.900 21.155 211.900 21.100 V 13.100 V 10.100 C 211.900 10.045 211.855 10.000 211.800 10.000 H 208.800 H 200.800 C 200.745 10.000 200.700 10.045 200.700 10.100 V 13.000 C 200.700 13.100 200.800 13.000 200.700 13.000 H 194.900 C 194.800 13.000 194.900 13.100 194.900 13.000 V 10.100 C 194.900 10.045 194.855 10.000 194.800 10.000 H 188.800 C 188.745 10.000 188.700 10.045 188.700 10.100 V 13.000 C 188.700 13.100 188.800 13.000 188.700 13.000 H 182.900 C 182.800 13.000 182.900 13.100 182.900 13.000 V 10.100 C 182.900 10.045 182.855 10.000 182.800 10.000 H 176.800 C 176.745 10.000 176.700 10.045 176.700 10.100 V 13.000 C 176.700 13.100 176.800 13.000 176.700 13.000 H 170.900 C 170.800 13.000 170.900 13.100 170.900 13.000 V 10.100 C 170.900 10.045 170.855 10.000 170.800 10.000 H 164.800 C 164.745 10.000 164.700 10.045 164.700 10.100 V 13.000 C 164.700 13.100 164.800 13.000 164.700 13.000 H 158.900 C 158.800 13.000 158.900 13.100 158.900 13.000 V 10.100 C 158.900 10.045 158.855 10.000 158.800 10.000 H 152.800 C 152.745 10.000 152.700 10.045 152.700 10.100 V 13.000 C 152.700 13.100 152.800 13.000 152.700 13.000 H 146.900 C 146.800 13.000 146.900 13.100 146.900 13.000 V 10.100 C 146.900 10.045 146.855 10.000 146.800 10.000 H 140.800 C 140.745 10.000 140.700 10.045 140.700 10.100 V 13.000 C 140.700 13.100 140.800 13.000 140.700 13.000 H 134.900 C 134.800 13.000 134.900 13.100 134.900 13.000 V 10.100 C 134.900 10.045 134.855 10.000 134.800 10.000 H 128.800 C 128.745 10.000 128.700 10.045 128.700 10.100 V 13.000 C 128.700 13.100 128.800 13.000 128.700 13.000 H 122.900 C 122.800 13.000 122.900 13.100 122.900 13.000 V 10.100 C 122.900 10.045 122.855 10.000 122.800 10.000 H 114.800 H 111.800 C 111.745 10.000 111.700 10.045 111.700 10.100 V 13.100 V 21.100 C 111.700 21.155 111.745 21.200 111.800 21.200 H 114.700 C 114.800 21.200 114.700 21.100 114.700 21.200 V 27.000 C 114.700 27.100 114.800 27.000 114.700 27.000 H 111.800 C 111.745 27.000 111.700 27.045 111.700 27.100 V 33.100 C 111.700 33.155 111.745 33.200 111.800 33.200 H 114.700 C 114.800 33.200 114.700 33.100 114.700 33.200 V 39.000 C 114.700 39.100 114.800 39.000 114.700 39.000 H 111.800 C 111.745 39.000 111.700 39.045 111.700 39.100 V 45.100 C 111.700 45.155 111.745 45.200 111.800 45.200 H 114.700 C 114.800 45.200 114.700 45.100 114.700 45.200 V 51.000 C 114.700 51.100 114.800 51.000 114.700 51.000 H 111.800 C 111.745 51.000 111.700 51.045 111.700 51.100 V 57.100 C 111.700 57.155 111.745 57.200 111.800 57.200 H 114.700 C 114.800 57.200 114.700 57.100 114.700 57.200 V 63.000 C 114.700 63.100 114.800 63.000 114.700 63.000 H 111.800 C 111.745 63.000 111.700 63.045 111.700 63.100 V 69.100 C 111.700 69.155 111.745 69.200 111.800 69.200 H 114.700 C 114.800 69.200 114.700 69.100 114.700 69.200 V 75.000 C 114.700 75.100 114.800 75.000 114.700 75.000 H 111.800 C 111.745 75.000 111.700 75.045 111.700 75.100 V 81.100 C 111.700 81.155 111.745 81.200 111.800 81.200 H 114.700 C 114.800 81.200 114.700 81.100 114.700 81.200 V 87.000 C 114.700 87.100 114.800 87.000 114.700 87.000 H 111.800 C 111.745 87.000 111.700 87.045 111.700 87.100 V 93.100 C 111.700 93.155 111.745 93.200 111.800 93.200 H 114.700 C 114.800 93.200 114.700 93.100 114.700 93.200 V 99.000 C 114.700 99.100 114.800 99.000 114.700 99.000 H 111.800 C 111.745 99.000 111.700 99.045 111.700 99.100 V 107.100 V 110.100 C 111.700 110.155 111.745 110.200 111.800 110.200 H 114.800 Z" stroke="rgb(0,0,0)" stroke-width="0.20" />
</g>
</svg>