<?xml version="1.0" encoding="UTF-8"?>
<svg xmlns="http://www.w3.org/2000/svg" xmlns:xlink="http://www.w3.org/1999/xlink" width="656mm" height="424mm" viewBox="0 0 656 424" version="1.1">
<g id="surface1">
<path style="fill:none;stroke-width:0.1;stroke-linecap:butt;stroke-linejoin:miter;stroke:rgb(0%,0%,0%);stroke-opacity:1;stroke-miterlimit:10;" d="M 6.101562 2.101562 L 6.101562 2.101562 M 80.050781 9.203125 L 80.050781 21.101562 L 76.152344 21.101562 L 76.152344 9.203125 Z M 80.050781 33.203125 L 80.050781 45.101562 L 76.152344 45.101562 L 76.152344 33.203125 Z M 184.050781 9.203125 L 184.050781 21.101562 L 180.152344 21.101562 L 180.152344 9.203125 Z M 184.050781 33.203125 L 184.050781 45.101562 L 180.152344 45.101562 L 180.152344 33.203125 Z M 6.101562 2.101562 L 16.101562 2.101562 C 16.128906 2.101562 16.152344 2.125 16.152344 2.152344 M 16.152344 2.152344 L 16.152344 6.152344 C 16.152344 6.125 16.128906 6.101562 16.101562 6.101562 M 16.101562 6.101562 L 28.101562 6.101562 C 28.074219 6.101562 28.050781 6.125 28.050781 6.152344 M 28.050781 6.152344 L 28.050781 2.152344 C 28.050781 2.125 28.074219 2.101562 28.101562 2.101562 M 28.101562 2.101562 L 40.101562 2.101562 C 40.128906 2.101562 40.152344 2.125 40.152344 2.152344 M 40.152344 2.152344 L 40.152344 6.152344 C 40.152344 6.125 40.128906 6.101562 40.101562 6.101562 M 40.101562 6.101562 L 52.101562 6.101562 C 52.074219 6.101562 52.050781 6.125 52.050781 6.152344 M 52.050781 6.152344 L 52.050781 2.152344 C 52.050781 2.125 52.074219 2.101562 52.101562 2.101562 M 52.101562 2.101562 L 64.101562 2.101562 C 64.128906 2.101562 64.152344 2.125 64.152344 2.152344 M 64.152344 2.152344 L 64.152344 6.152344 C 64.152344 6.125 64.128906 6.101562 64.101562 6.101562 M 64.101562 6.101562 L 76.101562 6.101562 C 76.074219 6.101562 76.050781 6.125 76.050781 6.152344 M 76.050781 6.152344 L 76.050781 2.152344 C 76.050781 2.125 76.074219 2.101562 76.101562 2.101562 M 76.101562 2.101562 L 88.101562 2.101562 C 88.128906 2.101562 88.152344 2.125 88.152344 2.152344 M 88.152344 2.152344 L 88.152344 6.152344 C 88.152344 6.125 88.128906 6.101562 88.101562 6.101562 M 88.101562 6.101562 L 100.101562 6.101562 C 100.074219 6.101562 100.050781 6.125 100.050781 6.152344 M 100.050781 6.152344 L 100.050781 2.152344 C 100.050781 2.125 100.074219 2.101562 100.101562 2.101562 M 100.101562 2.101562 L 112.101562 2.101562 C 112.128906 2.101562 112.152344 2.125 112.152344 2.152344 M 112.152344 2.152344 L 112.152344 6.152344 C 112.152344 6.125 112.128906 6.101562 112.101562 6.101562 M 112.101562 6.101562 L 124.101562 6.101562 C 124.074219 6.101562 124.050781 6.125 124.050781 6.152344 M 124.050781 6.152344 L 124.050781 2.152344 C 124.050781 2.125 124.074219 2.101562 124.101562 2.101562 M 124.101562 2.101562 L 136.101562 2.101562 C 136.128906 2.101562 136.152344 2.125 136.152344 2.152344 M 136.152344 2.152344 L 136.152344 6.152344 C 136.152344 6.125 136.128906 6.101562 136.101562 6.101562 M 136.101562 6.101562 L 148.101562 6.101562 C 148.074219 6.101562 148.050781 6.125 148.050781 6.152344 M 148.050781 6.152344 L 148.050781 2.152344 C 148.050781 2.125 148.074219 2.101562 148.101562 2.101562 M 148.101562 2.101562 L 160.101562 2.101562 C 160.128906 2.101562 160.152344 2.125 160.152344 2.152344 M 160.152344 2.152344 L 160.152344 6.152344 C 160.152344 6.125 160.128906 6.101562 160.101562 6.101562 M 160.101562 6.101562 L 172.101562 6.101562 C 172.074219 6.101562 172.050781 6.125 172.050781 6.152344 M 172.050781 6.152344 L 172.050781 2.152344 C 172.050781 2.125 172.074219 2.101562 172.101562 2.101562 M 172.101562 2.101562 L 184.101562 2.101562 C 184.128906 2.101562 184.152344 2.125 184.152344 2.152344 M 184.152344 2.152344 L 184.152344 6.152344 C 184.152344 6.125 184.128906 6.101562 184.101562 6.101562 M 184.101562 6.101562 L 196.101562 6.101562 C 196.074219 6.101562 196.050781 6.125 196.050781 6.152344 M 196.050781 6.152344 L 196.050781 2.152344 C 196.050781 2.125 196.074219 2.101562 196.101562 2.101562 M 196.101562 2.101562 L 208.101562 2.101562 C 208.128906 2.101562 208.152344 2.125 208.152344 2.152344 M 208.152344 2.152344 L 208.152344 6.152344 C 208.152344 6.125 208.128906 6.101562 208.101562 6.101562 M 208.101562 6.101562 L 220.101562 6.101562 C 220.074219 6.101562 220.050781 6.125 220.050781 6.152344 M 220.050781 6.152344 L 220.050781 2.152344 C 220.050781 2.125 220.074219 2.101562 220.101562 2.101562 M 220.101562 2.101562 L 232.101562 2.101562 C 232.128906 2.101562 232.152344 2.125 232.152344 2.152344 M 232.152344 2.152344 L 232.152344 6.152344 C 232.152344 6.125 232.128906 6.101562 232.101562 6.101562 M 232.101562 6.101562 L 244.101562 6.101562 C 244.074219 6.101562 244.050781 6.125 244.050781 6.152344 M 244.050781 6.152344 L 244.050781 2.152344 C 244.050781 2.125 244.074219 2.101562 244.101562 2.101562 M 244.101562 2.101562 L 254.101562 2.101562 M 254.101562 2.101562 C 254.128906 2.101562 254.152344 2.125 254.152344 2.152344 M 254.152344 2.152344 L 254.152344 2.152344 M 254.152344 2.152344 L 254.152344 14.152344 C 254.152344 14.125 254.128906 14.101562 254.101562 14.101562 M 254.101562 14.101562 L 258.101562 14.101562 C 258.128906 14.101562 258.152344 14.125 258.152344 14.152344 M 258.152344 14.152344 L 258.152344 26.152344 C 258.152344 26.179688 258.128906 26.203125 258.101562 26.203125 M 258.101562 26.203125 L 254.101562 26.203125 C 254.128906 26.203125 254.152344 26.179688 254.152344 26.152344 M 254.152344 26.152344 L 254.152344 38.152344 C 254.152344 38.125 254.128906 38.101562 254.101562 38.101562 M 254.101562 38.101562 L 258.101562 38.101562 C 258.128906 38.101562 258.152344 38.125 258.152344 38.152344 M 258.152344 38.152344 L 258.152344 50.152344 C 258.152344 50.179688 258.128906 50.203125 258.101562 50.203125 M 258.101562 50.203125 L 254.101562 50.203125 C 254.128906 50.203125 254.152344 50.179688 254.152344 50.152344 M 254.152344 50.152344 L 254.152344 62.152344 M 254.152344 62.152344 C 254.152344 62.179688 254.128906 62.203125 254.101562 62.203125 M 254.101562 62.203125 L 254.101562 62.203125 M 150.101562 32.152344 C 158.359375 32.152344 165.050781 25.460938 165.050781 17.203125 M 165.050781 17.203125 C 165.050781 8.945312 158.359375 2.253906 150.101562 2.253906 M 150.101562 2.253906 L 110.101562 2.253906 C 101.84375 2.253906 95.152344 8.945312 95.152344 17.203125 M 95.152344 17.203125 C 95.152344 25.460938 101.84375 32.152344 110.101562 32.152344 M 110.101562 32.152344 L 150.101562 32.152344 M 254.101562 62.203125 L 6.101562 62.203125 M 6.101562 62.203125 C 6.074219 62.203125 6.050781 62.179688 6.050781 62.152344 M 6.050781 62.152344 L 6.050781 62.152344 M 6.050781 62.152344 L 6.050781 50.152344 C 6.050781 50.179688 6.074219 50.203125 6.101562 50.203125 M 6.101562 50.203125 L 2.101562 50.203125 C 2.074219 50.203125 2.050781 50.179688 2.050781 50.152344 M 2.050781 50.152344 L 2.050781 38.152344 C 2.050781 38.125 2.074219 38.101562 2.101562 38.101562 M 2.101562 38.101562 L 6.101562 38.101562 C 6.074219 38.101562 6.050781 38.125 6.050781 38.152344 M 6.050781 38.152344 L 6.050781 26.152344 C 6.050781 26.179688 6.074219 26.203125 6.101562 26.203125 M 6.101562 26.203125 L 2.101562 26.203125 C 2.074219 26.203125 2.050781 26.179688 2.050781 26.152344 M 2.050781 26.152344 L 2.050781 14.152344 C 2.050781 14.125 2.074219 14.101562 2.101562 14.101562 M 2.101562 14.101562 L 6.101562 14.101562 C 6.074219 14.101562 6.050781 14.125 6.050781 14.152344 M 6.050781 14.152344 L 6.050781 2.152344 M 6.050781 2.152344 C 6.050781 2.125 6.074219 2.101562 6.101562 2.101562 " transform="matrix(1,0,0,-1,4,420)"/>
<path style="fill:none;stroke-width:0.1;stroke-linecap:butt;stroke-linejoin:miter;stroke:rgb(0%,0%,0%);stroke-opacity:1;stroke-miterlimit:10;" d="M 2.100781 2.101562 L 2.100781 2.101562 M 106.05 9.203125 L 106.05 21.101562 L 102.151563 21.101562 L 102.151563 9.203125 Z M 106.05 33.203125 L 106.05 45.101562 L 102.151563 45.101562 L 102.151563 33.203125 Z M 210.05 9.203125 L 210.05 21.101562 L 206.151563 21.101562 L 206.151563 9.203125 Z M 210.05 33.203125 L 210.05 45.101562 L 206.151563 45.101562 L 206.151563 33.203125 Z M 2.100781 2.101562 L 6.100781 2.101562 C 6.128125 2.101562 6.151563 2.125 6.151563 2.152344 M 6.151563 2.152344 L 6.151563 6.152344 C 6.151563 6.125 6.128125 6.101562 6.100781 6.101562 M 6.100781 6.101562 L 18.100781 6.101562 C 18.073438 6.101562 18.05 6.125 18.05 6.152344 M 18.05 6.152344 L 18.05 2.152344 C 18.05 2.125 18.073438 2.101562 18.100781 2.101562 M 18.100781 2.101562 L 30.100781 2.101562 C 30.128125 2.101562 30.151563 2.125 30.151563 2.152344 M 30.151563 2.152344 L 30.151563 6.152344 C 30.151563 6.125 30.128125 6.101562 30.100781 6.101562 M 30.100781 6.101562 L 42.100781 6.101562 C 42.073438 6.101562 42.05 6.125 42.05 6.152344 M 42.05 6.152344 L 42.05 2.152344 C 42.05 2.125 42.073438 2.101562 42.100781 2.101562 M 42.100781 2.101562 L 54.100781 2.101562 C 54.128125 2.101562 54.151563 2.125 54.151563 2.152344 M 54.151563 2.152344 L 54.151563 6.152344 C 54.151563 6.125 54.128125 6.101562 54.100781 6.101562 M 54.100781 6.101562 L 66.100781 6.101562 C 66.073438 6.101562 66.05 6.125 66.05 6.152344 M 66.05 6.152344 L 66.05 2.152344 C 66.05 2.125 66.073438 2.101562 66.100781 2.101562 M 66.100781 2.101562 L 78.100781 2.101562 C 78.128125 2.101562 78.151563 2.125 78.151563 2.152344 M 78.151563 2.152344 L 78.151563 6.152344 C 78.151563 6.125 78.128125 6.101562 78.100781 6.101562 M 78.100781 6.101562 L 90.100781 6.101562 C 90.073438 6.101562 90.05 6.125 90.05 6.152344 M 90.05 6.152344 L 90.05 2.152344 C 90.05 2.125 90.073438 2.101562 90.100781 2.101562 M 90.100781 2.101562 L 102.100781 2.101562 C 102.128125 2.101562 102.151563 2.125 102.151563 2.152344 M 102.151563 2.152344 L 102.151563 6.152344 C 102.151563 6.125 102.128125 6.101562 102.100781 6.101562 M 102.100781 6.101562 L 114.100781 6.101562 C 114.073438 6.101562 114.05 6.125 114.05 6.152344 M 114.05 6.152344 L 114.05 2.152344 C 114.05 2.125 114.073438 2.101562 114.100781 2.101562 M 114.100781 2.101562 L 126.100781 2.101562 C 126.128125 2.101562 126.151563 2.125 126.151563 2.152344 M 126.151563 2.152344 L 126.151563 6.152344 C 126.151563 6.125 126.128125 6.101562 126.100781 6.101562 M 126.100781 6.101562 L 138.100781 6.101562 C 138.073438 6.101562 138.05 6.125 138.05 6.152344 M 138.05 6.152344 L 138.05 2.152344 C 138.05 2.125 138.073438 2.101562 138.100781 2.101562 M 138.100781 2.101562 L 150.100781 2.101562 C 150.128125 2.101562 150.151563 2.125 150.151563 2.152344 M 150.151563 2.152344 L 150.151563 6.152344 C 150.151563 6.125 150.128125 6.101562 150.100781 6.101562 M 150.100781 6.101562 L 162.100781 6.101562 C 162.073438 6.101562 162.05 6.125 162.05 6.152344 M 162.05 6.152344 L 162.05 2.152344 C 162.05 2.125 162.073438 2.101562 162.100781 2.101562 M 162.100781 2.101562 L 174.100781 2.101562 C 174.128125 2.101562 174.151563 2.125 174.151563 2.152344 M 174.151563 2.152344 L 174.151563 6.152344 C 174.151563 6.125 174.128125 6.101562 174.100781 6.101562 M 174.100781 6.101562 L 186.100781 6.101562 C 186.073438 6.101562 186.05 6.125 186.05 6.152344 M 186.05 6.152344 L 186.05 2.152344 C 186.05 2.125 186.073438 2.101562 186.100781 2.101562 M 186.100781 2.101562 L 198.100781 2.101562 C 198.128125 2.101562 198.151563 2.125 198.151563 2.152344 M 198.151563 2.152344 L 198.151563 6.152344 C 198.151563 6.125 198.128125 6.101562 198.100781 6.101562 M 198.100781 6.101562 L 210.100781 6.101562 C 210.073438 6.101562 210.05 6.125 210.05 6.152344 M 210.05 6.152344 L 210.05 2.152344 C 210.05 2.125 210.073438 2.101562 210.100781 2.101562 M 210.100781 2.101562 L 222.100781 2.101562 C 222.128125 2.101562 222.151563 2.125 222.151563 2.152344 M 222.151563 2.152344 L 222.151563 6.152344 C 222.151563 6.125 222.128125 6.101562 222.100781 6.101562 M 222.100781 6.101562 L 234.100781 6.101562 C 234.073438 6.101562 234.05 6.125 234.05 6.152344 M 234.05 6.152344 L 234.05 2.152344 C 234.05 2.125 234.073438 2.101562 234.100781 2.101562 M 234.100781 2.101562 L 246.100781 2.101562 C 246.128125 2.101562 246.151563 2.125 246.151563 2.152344 M 246.151563 2.152344 L 246.151563 6.152344 C 246.151563 6.125 246.128125 6.101562 246.100781 6.101562 M 246.100781 6.101562 L 258.100781 6.101562 C 258.073438 6.101562 258.05 6.125 258.05 6.152344 M 258.05 6.152344 L 258.05 2.152344 C 258.05 2.125 258.073438 2.101562 258.100781 2.101562 M 258.100781 2.101562 L 270.100781 2.101562 C 270.128125 2.101562 270.151563 2.125 270.151563 2.152344 M 270.151563 2.152344 L 270.151563 6.152344 C 270.151563 6.125 270.128125 6.101562 270.100781 6.101562 M 270.100781 6.101562 L 282.100781 6.101562 C 282.073438 6.101562 282.05 6.125 282.05 6.152344 M 282.05 6.152344 L 282.05 2.152344 C 282.05 2.125 282.073438 2.101562 282.100781 2.101562 M 282.100781 2.101562 L 294.100781 2.101562 C 294.128125 2.101562 294.151563 2.125 294.151563 2.152344 M 294.151563 2.152344 L 294.151563 6.152344 C 294.151563 6.125 294.128125 6.101562 294.100781 6.101562 M 294.100781 6.101562 L 306.100781 6.101562 C 306.073438 6.101562 306.05 6.125 306.05 6.152344 M 306.05 6.152344 L 306.05 2.152344 C 306.05 2.125 306.073438 2.101562 306.100781 2.101562 M 306.100781 2.101562 L 310.100781 2.101562 M 310.100781 2.101562 C 310.128125 2.101562 310.151563 2.125 310.151563 2.152344 M 310.151563 2.152344 L 310.151563 2.152344 M 310.151563 2.152344 L 310.151563 14.152344 C 310.151563 14.179688 310.128125 14.203125 310.100781 14.203125 M 310.100781 14.203125 L 306.100781 14.203125 C 306.128125 14.203125 306.151563 14.179688 306.151563 14.152344 M 306.151563 14.152344 L 306.151563 26.152344 C 306.151563 26.125 306.128125 26.101562 306.100781 26.101562 M 306.100781 26.101562 L 310.100781 26.101562 C 310.128125 26.101562 310.151563 26.125 310.151563 26.152344 M 310.151563 26.152344 L 310.151563 38.152344 C 310.151563 38.179688 310.128125 38.203125 310.100781 38.203125 M 310.100781 38.203125 L 306.100781 38.203125 C 306.128125 38.203125 306.151563 38.179688 306.151563 38.152344 M 306.151563 38.152344 L 306.151563 50.152344 C 306.151563 50.125 306.128125 50.101562 306.100781 50.101562 M 306.100781 50.101562 L 310.100781 50.101562 C 310.128125 50.101562 310.151563 50.125 310.151563 50.152344 M 310.151563 50.152344 L 310.151563 62.152344 M 310.151563 62.152344 C 310.151563 62.179688 310.128125 62.203125 310.100781 62.203125 M 310.100781 62.203125 L 310.100781 62.203125 M 310.100781 62.203125 L 2.100781 62.203125 M 2.100781 62.203125 C 2.073438 62.203125 2.05 62.179688 2.05 62.152344 M 2.05 62.152344 L 2.05 62.152344 M 2.05 62.152344 L 2.05 50.152344 C 2.05 50.125 2.073438 50.101562 2.100781 50.101562 M 2.100781 50.101562 L 6.100781 50.101562 C 6.073438 50.101562 6.05 50.125 6.05 50.152344 M 6.05 50.152344 L 6.05 38.152344 C 6.05 38.179688 6.073438 38.203125 6.100781 38.203125 M 6.100781 38.203125 L 2.100781 38.203125 C 2.073438 38.203125 2.05 38.179688 2.05 38.152344 M 2.05 38.152344 L 2.05 26.152344 C 2.05 26.125 2.073438 26.101562 2.100781 26.101562 M 2.100781 26.101562 L 6.100781 26.101562 C 6.073438 26.101562 6.05 26.125 6.05 26.152344 M 6.05 26.152344 L 6.05 14.152344 C 6.05 14.179688 6.073438 14.203125 6.100781 14.203125 M 6.100781 14.203125 L 2.100781 14.203125 C 2.073438 14.203125 2.05 14.179688 2.05 14.152344 M 2.05 14.152344 L 2.05 2.152344 M 2.05 2.152344 C 2.05 2.125 2.073438 2.101562 2.100781 2.101562 " transform="matrix(1,0,0,-1,264.2,420)"/>
<path style="fill:none;stroke-width:0.1;stroke-linecap:butt;stroke-linejoin:miter;stroke:rgb(0%,0%,0%);stroke-opacity:1;stroke-miterlimit:10;" d="M 2.100781 2.100781 L 2.100781 2.100781 M 106.05 9.202344 L 106.05 21.100781 L 102.151563 21.100781 L 102.151563 9.202344 Z M 106.05 33.202344 L 106.05 45.100781 L 102.151563 45.100781 L 102.151563 33.202344 Z M 210.05 9.202344 L 210.05 21.100781 L 206.151563 21.100781 L 206.151563 9.202344 Z M 210.05 33.202344 L 210.05 45.100781 L 206.151563 45.100781 L 206.151563 33.202344 Z M 2.100781 2.100781 L 6.100781 2.100781 C 6.128125 2.100781 6.151563 2.124219 6.151563 2.151563 M 6.151563 2.151563 L 6.151563 6.151563 C 6.151563 6.124219 6.128125 6.100781 6.100781 6.100781 M 6.100781 6.100781 L 18.100781 6.100781 C 18.073438 6.100781 18.05 6.124219 18.05 6.151563 M 18.05 6.151563 L 18.05 2.151563 C 18.05 2.124219 18.073438 2.100781 18.100781 2.100781 M 18.100781 2.100781 L 30.100781 2.100781 C 30.128125 2.100781 30.151563 2.124219 30.151563 2.151563 M 30.151563 2.151563 L 30.151563 6.151563 C 30.151563 6.124219 30.128125 6.100781 30.100781 6.100781 M 30.100781 6.100781 L 42.100781 6.100781 C 42.073438 6.100781 42.05 6.124219 42.05 6.151563 M 42.05 6.151563 L 42.05 2.151563 C 42.05 2.124219 42.073438 2.100781 42.100781 2.100781 M 42.100781 2.100781 L 54.100781 2.100781 C 54.128125 2.100781 54.151563 2.124219 54.151563 2.151563 M 54.151563 2.151563 L 54.151563 6.151563 C 54.151563 6.124219 54.128125 6.100781 54.100781 6.100781 M 54.100781 6.100781 L 66.100781 6.100781 C 66.073438 6.100781 66.05 6.124219 66.05 6.151563 M 66.05 6.151563 L 66.05 2.151563 C 66.05 2.124219 66.073438 2.100781 66.100781 2.100781 M 66.100781 2.100781 L 78.100781 2.100781 C 78.128125 2.100781 78.151563 2.124219 78.151563 2.151563 M 78.151563 2.151563 L 78.151563 6.151563 C 78.151563 6.124219 78.128125 6.100781 78.100781 6.100781 M 78.100781 6.100781 L 90.100781 6.100781 C 90.073438 6.100781 90.05 6.124219 90.05 6.151563 M 90.05 6.151563 L 90.05 2.151563 C 90.05 2.124219 90.073438 2.100781 90.100781 2.100781 M 90.100781 2.100781 L 102.100781 2.100781 C 102.128125 2.100781 102.151563 2.124219 102.151563 2.151563 M 102.151563 2.151563 L 102.151563 6.151563 C 102.151563 6.124219 102.128125 6.100781 102.100781 6.100781 M 102.100781 6.100781 L 114.100781 6.100781 C 114.073438 6.100781 114.05 6.124219 114.05 6.151563 M 114.05 6.151563 L 114.05 2.151563 C 114.05 2.124219 114.073438 2.100781 114.100781 2.100781 M 114.100781 2.100781 L 126.100781 2.100781 C 126.128125 2.100781 126.151563 2.124219 126.151563 2.151563 M 126.151563 2.151563 L 126.151563 6.151563 C 126.151563 6.124219 126.128125 6.100781 126.100781 6.100781 M 126.100781 6.100781 L 138.100781 6.100781 C 138.073438 6.100781 138.05 6.124219 138.05 6.151563 M 138.05 6.151563 L 138.05 2.151563 C 138.05 2.124219 138.073438 2.100781 138.100781 2.100781 M 138.100781 2.100781 L 150.100781 2.100781 C 150.128125 2.100781 150.151563 2.124219 150.151563 2.151563 M 150.151563 2.151563 L 150.151563 6.151563 C 150.151563 6.124219 150.128125 6.100781 150.100781 6.100781 M 150.100781 6.100781 L 162.100781 6.100781 C 162.073438 6.100781 162.05 6.124219 162.05 6.151563 M 162.05 6.151563 L 162.05 2.151563 C 162.05 2.124219 162.073438 2.100781 162.100781 2.100781 M 162.100781 2.100781 L 174.100781 2.100781 C 174.128125 2.100781 174.151563 2.124219 174.151563 2.151563 M 174.151563 2.151563 L 174.151563 6.151563 C 174.151563 6.124219 174.128125 6.100781 174.100781 6.100781 M 174.100781 6.100781 L 186.100781 6.100781 C 186.073438 6.100781 186.05 6.124219 186.05 6.151563 M 186.05 6.151563 L 186.05 2.151563 C 186.05 2.124219 186.073438 2.100781 186.100781 2.100781 M 186.100781 2.100781 L 198.100781 2.100781 C 198.128125 2.100781 198.151563 2.124219 198.151563 2.151563 M 198.151563 2.151563 L 198.151563 6.151563 C 198.151563 6.124219 198.128125 6.100781 198.100781 6.100781 M 198.100781 6.100781 L 210.100781 6.100781 C 210.073438 6.100781 210.05 6.124219 210.05 6.151563 M 210.05 6.151563 L 210.05 2.151563 C 210.05 2.124219 210.073438 2.100781 210.100781 2.100781 M 210.100781 2.100781 L 222.100781 2.100781 C 222.128125 2.100781 222.151563 2.124219 222.151563 2.151563 M 222.151563 2.151563 L 222.151563 6.151563 C 222.151563 6.124219 222.128125 6.100781 222.100781 6.100781 M 222.100781 6.100781 L 234.100781 6.100781 C 234.073438 6.100781 234.05 6.124219 234.05 6.151563 M 234.05 6.151563 L 234.05 2.151563 C 234.05 2.124219 234.073438 2.100781 234.100781 2.100781 M 234.100781 2.100781 L 246.100781 2.100781 C 246.128125 2.100781 246.151563 2.124219 246.151563 2.151563 M 246.151563 2.151563 L 246.151563 6.151563 C 246.151563 6.124219 246.128125 6.100781 246.100781 6.100781 M 246.100781 6.100781 L 258.100781 6.100781 C 258.073438 6.100781 258.05 6.124219 258.05 6.151563 M 258.05 6.151563 L 258.05 2.151563 C 258.05 2.124219 258.073438 2.100781 258.100781 2.100781 M 258.100781 2.100781 L 270.100781 2.100781 C 270.128125 2.100781 270.151563 2.124219 270.151563 2.151563 M 270.151563 2.151563 L 270.151563 6.151563 C 270.151563 6.124219 270.128125 6.100781 270.100781 6.100781 M 270.100781 6.100781 L 282.100781 6.100781 C 282.073438 6.100781 282.05 6.124219 282.05 6.151563 M 282.05 6.151563 L 282.05 2.151563 C 282.05 2.124219 282.073438 2.100781 282.100781 2.100781 M 282.100781 2.100781 L 294.100781 2.100781 C 294.128125 2.100781 294.151563 2.124219 294.151563 2.151563 M 294.151563 2.151563 L 294.151563 6.151563 C 294.151563 6.124219 294.128125 6.100781 294.100781 6.100781 M 294.100781 6.100781 L 306.100781 6.100781 C 306.073438 6.100781 306.05 6.124219 306.05 6.151563 M 306.05 6.151563 L 306.05 2.151563 C 306.05 2.124219 306.073438 2.100781 306.100781 2.100781 M 306.100781 2.100781 L 310.100781 2.100781 M 310.100781 2.100781 C 310.128125 2.100781 310.151563 2.124219 310.151563 2.151563 M 310.151563 2.151563 L 310.151563 2.151563 M 310.151563 2.151563 L 310.151563 14.151563 C 310.151563 14.178906 310.128125 14.202344 310.100781 14.202344 M 310.100781 14.202344 L 306.100781 14.202344 C 306.128125 14.202344 306.151563 14.178906 306.151563 14.151563 M 306.151563 14.151563 L 306.151563 26.151563 C 306.151563 26.124219 306.128125 26.100781 306.100781 26.100781 M 306.100781 26.100781 L 310.100781 26.100781 C 310.128125 26.100781 310.151563 26.124219 310.151563 26.151563 M 310.151563 26.151563 L 310.151563 38.151563 C 310.151563 38.178906 310.128125 38.202344 310.100781 38.202344 M 310.100781 38.202344 L 306.100781 38.202344 C 306.128125 38.202344 306.151563 38.178906 306.151563 38.151563 M 306.151563 38.151563 L 306.151563 50.151563 C 306.151563 50.124219 306.128125 50.100781 306.100781 50.100781 M 306.100781 50.100781 L 310.100781 50.100781 C 310.128125 50.100781 310.151563 50.124219 310.151563 50.151563 M 310.151563 50.151563 L 310.151563 62.151563 M 310.151563 62.151563 C 310.151563 62.178906 310.128125 62.202344 310.100781 62.202344 M 310.100781 62.202344 L 310.100781 62.202344 M 310.100781 62.202344 L 2.100781 62.202344 M 2.100781 62.202344 C 2.073438 62.202344 2.05 62.178906 2.05 62.151563 M 2.05 62.151563 L 2.05 62.151563 M 2.05 62.151563 L 2.05 50.151563 C 2.05 50.124219 2.073438 50.100781 2.100781 50.100781 M 2.100781 50.100781 L 6.100781 50.100781 C 6.073438 50.100781 6.05 50.124219 6.05 50.151563 M 6.05 50.151563 L 6.05 38.151563 C 6.05 38.178906 6.073438 38.202344 6.100781 38.202344 M 6.100781 38.202344 L 2.100781 38.202344 C 2.073438 38.202344 2.05 38.178906 2.05 38.151563 M 2.05 38.151563 L 2.05 26.151563 C 2.05 26.124219 2.073438 26.100781 2.100781 26.100781 M 2.100781 26.100781 L 6.100781 26.100781 C 6.073438 26.100781 6.05 26.124219 6.05 26.151563 M 6.05 26.151563 L 6.05 14.151563 C 6.05 14.178906 6.073438 14.202344 6.100781 14.202344 M 6.100781 14.202344 L 2.100781 14.202344 C 2.073438 14.202344 2.05 14.178906 2.05 14.151563 M 2.05 14.151563 L 2.05 2.151563 M 2.05 2.151563 C 2.05 2.124219 2.073438 2.100781 2.100781 2.100781 " transform="matrix(1,0,0,-1,264.2,355.8)"/>
<path style="fill:none;stroke-width:0.1;stroke-linecap:butt;stroke-linejoin:miter;stroke:rgb(0%,0%,0%);stroke-opacity:1;stroke-miterlimit:10;" d="M 6.101562 2.100781 L 6.101562 2.100781 M 80.050781 9.202344 L 80.050781 21.100781 L 76.152344 21.100781 L 76.152344 9.202344 Z M 80.050781 33.202344 L 80.050781 45.100781 L 76.152344 45.100781 L 76.152344 33.202344 Z M 184.050781 9.202344 L 184.050781 21.100781 L 180.152344 21.100781 L 180.152344 9.202344 Z M 184.050781 33.202344 L 184.050781 45.100781 L 180.152344 45.100781 L 180.152344 33.202344 Z M 6.101562 2.100781 L 16.101562 2.100781 C 16.128906 2.100781 16.152344 2.124219 16.152344 2.151563 M 16.152344 2.151563 L 16.152344 6.151563 C 16.152344 6.124219 16.128906 6.100781 16.101562 6.100781 M 16.101562 6.100781 L 28.101562 6.100781 C 28.074219 6.100781 28.050781 6.124219 28.050781 6.151563 M 28.050781 6.151563 L 28.050781 2.151563 C 28.050781 2.124219 28.074219 2.100781 28.101562 2.100781 M 28.101562 2.100781 L 40.101562 2.100781 C 40.128906 2.100781 40.152344 2.124219 40.152344 2.151563 M 40.152344 2.151563 L 40.152344 6.151563 C 40.152344 6.124219 40.128906 6.100781 40.101562 6.100781 M 40.101562 6.100781 L 52.101562 6.100781 C 52.074219 6.100781 52.050781 6.124219 52.050781 6.151563 M 52.050781 6.151563 L 52.050781 2.151563 C 52.050781 2.124219 52.074219 2.100781 52.101562 2.100781 M 52.101562 2.100781 L 64.101562 2.100781 C 64.128906 2.100781 64.152344 2.124219 64.152344 2.151563 M 64.152344 2.151563 L 64.152344 6.151563 C 64.152344 6.124219 64.128906 6.100781 64.101562 6.100781 M 64.101562 6.100781 L 76.101562 6.100781 C 76.074219 6.100781 76.050781 6.124219 76.050781 6.151563 M 76.050781 6.151563 L 76.050781 2.151563 C 76.050781 2.124219 76.074219 2.100781 76.101562 2.100781 M 76.101562 2.100781 L 88.101562 2.100781 C 88.128906 2.100781 88.152344 2.124219 88.152344 2.151563 M 88.152344 2.151563 L 88.152344 6.151563 C 88.152344 6.124219 88.128906 6.100781 88.101562 6.100781 M 88.101562 6.100781 L 100.101562 6.100781 C 100.074219 6.100781 100.050781 6.124219 100.050781 6.151563 M 100.050781 6.151563 L 100.050781 2.151563 C 100.050781 2.124219 100.074219 2.100781 100.101562 2.100781 M 100.101562 2.100781 L 112.101562 2.100781 C 112.128906 2.100781 112.152344 2.124219 112.152344 2.151563 M 112.152344 2.151563 L 112.152344 6.151563 C 112.152344 6.124219 112.128906 6.100781 112.101562 6.100781 M 112.101562 6.100781 L 124.101562 6.100781 C 124.074219 6.100781 124.050781 6.124219 124.050781 6.151563 M 124.050781 6.151563 L 124.050781 2.151563 C 124.050781 2.124219 124.074219 2.100781 124.101562 2.100781 M 124.101562 2.100781 L 136.101562 2.100781 C 136.128906 2.100781 136.152344 2.124219 136.152344 2.151563 M 136.152344 2.151563 L 136.152344 6.151563 C 136.152344 6.124219 136.128906 6.100781 136.101562 6.100781 M 136.101562 6.100781 L 148.101562 6.100781 C 148.074219 6.100781 148.050781 6.124219 148.050781 6.151563 M 148.050781 6.151563 L 148.050781 2.151563 C 148.050781 2.124219 148.074219 2.100781 148.101562 2.100781 M 148.101562 2.100781 L 160.101562 2.100781 C 160.128906 2.100781 160.152344 2.124219 160.152344 2.151563 M 160.152344 2.151563 L 160.152344 6.151563 C 160.152344 6.124219 160.128906 6.100781 160.101562 6.100781 M 160.101562 6.100781 L 172.101562 6.100781 C 172.074219 6.100781 172.050781 6.124219 172.050781 6.151563 M 172.050781 6.151563 L 172.050781 2.151563 C 172.050781 2.124219 172.074219 2.100781 172.101562 2.100781 M 172.101562 2.100781 L 184.101562 2.100781 C 184.128906 2.100781 184.152344 2.124219 184.152344 2.151563 M 184.152344 2.151563 L 184.152344 6.151563 C 184.152344 6.124219 184.128906 6.100781 184.101562 6.100781 M 184.101562 6.100781 L 196.101562 6.100781 C 196.074219 6.100781 196.050781 6.124219 196.050781 6.151563 M 196.050781 6.151563 L 196.050781 2.151563 C 196.050781 2.124219 196.074219 2.100781 196.101562 2.100781 M 196.101562 2.100781 L 208.101562 2.100781 C 208.128906 2.100781 208.152344 2.124219 208.152344 2.151563 M 208.152344 2.151563 L 208.152344 6.151563 C 208.152344 6.124219 208.128906 6.100781 208.101562 6.100781 M 208.101562 6.100781 L 220.101562 6.100781 C 220.074219 6.100781 220.050781 6.124219 220.050781 6.151563 M 220.050781 6.151563 L 220.050781 2.151563 C 220.050781 2.124219 220.074219 2.100781 220.101562 2.100781 M 220.101562 2.100781 L 232.101562 2.100781 C 232.128906 2.100781 232.152344 2.124219 232.152344 2.151563 M 232.152344 2.151563 L 232.152344 6.151563 C 232.152344 6.124219 232.128906 6.100781 232.101562 6.100781 M 232.101562 6.100781 L 244.101562 6.100781 C 244.074219 6.100781 244.050781 6.124219 244.050781 6.151563 M 244.050781 6.151563 L 244.050781 2.151563 C 244.050781 2.124219 244.074219 2.100781 244.101562 2.100781 M 244.101562 2.100781 L 254.101562 2.100781 M 254.101562 2.100781 C 254.128906 2.100781 254.152344 2.124219 254.152344 2.151563 M 254.152344 2.151563 L 254.152344 2.151563 M 254.152344 2.151563 L 254.152344 14.151563 C 254.152344 14.124219 254.128906 14.100781 254.101562 14.100781 M 254.101562 14.100781 L 258.101562 14.100781 C 258.128906 14.100781 258.152344 14.124219 258.152344 14.151563 M 258.152344 14.151563 L 258.152344 26.151563 C 258.152344 26.178906 258.128906 26.202344 258.101562 26.202344 M 258.101562 26.202344 L 254.101562 26.202344 C 254.128906 26.202344 254.152344 26.178906 254.152344 26.151563 M 254.152344 26.151563 L 254.152344 38.151563 C 254.152344 38.124219 254.128906 38.100781 254.101562 38.100781 M 254.101562 38.100781 L 258.101562 38.100781 C 258.128906 38.100781 258.152344 38.124219 258.152344 38.151563 M 258.152344 38.151563 L 258.152344 50.151563 C 258.152344 50.178906 258.128906 50.202344 258.101562 50.202344 M 258.101562 50.202344 L 254.101562 50.202344 C 254.128906 50.202344 254.152344 50.178906 254.152344 50.151563 M 254.152344 50.151563 L 254.152344 62.151563 M 254.152344 62.151563 C 254.152344 62.178906 254.128906 62.202344 254.101562 62.202344 M 254.101562 62.202344 L 254.101562 62.202344 M 254.101562 62.202344 L 6.101562 62.202344 M 6.101562 62.202344 C 6.074219 62.202344 6.050781 62.178906 6.050781 62.151563 M 6.050781 62.151563 L 6.050781 62.151563 M 6.050781 62.151563 L 6.050781 50.151563 C 6.050781 50.178906 6.074219 50.202344 6.101562 50.202344 M 6.101562 50.202344 L 2.101562 50.202344 C 2.074219 50.202344 2.050781 50.178906 2.050781 50.151563 M 2.050781 50.151563 L 2.050781 38.151563 C 2.050781 38.124219 2.074219 38.100781 2.101562 38.100781 M 2.101562 38.100781 L 6.101562 38.100781 C 6.074219 38.100781 6.050781 38.124219 6.050781 38.151563 M 6.050781 38.151563 L 6.050781 26.151563 C 6.050781 26.178906 6.074219 26.202344 6.101562 26.202344 M 6.101562 26.202344 L 2.101562 26.202344 C 2.074219 26.202344 2.050781 26.178906 2.050781 26.151563 M 2.050781 26.151563 L 2.050781 14.151563 C 2.050781 14.124219 2.074219 14.100781 2.101562 14.100781 M 2.101562 14.100781 L 6.101562 14.100781 C 6.074219 14.100781 6.050781 14.124219 6.050781 14.151563 M 6.050781 14.151563 L 6.050781 2.151563 M 6.050781 2.151563 C 6.050781 2.124219 6.074219 2.100781 6.101562 2.100781 " transform="matrix(1,0,0,-1,4,355.8)"/>
<path style="fill:none;stroke-width:0.1;stroke-linecap:butt;stroke-linejoin:miter;stroke:rgb(0%,0%,0%);stroke-opacity:1;stroke-miterlimit:10;" d="M 6.101562 6.1 L 6.101562 6.1 M 80.050781 14.201563 L 80.050781 26.1 L 76.152344 26.1 L 76.152344 14.201563 Z M 80.050781 38.201563 L 80.050781 50.1 L 76.152344 50.1 L 76.152344 38.201563 Z M 80.050781 62.201563 L 80.050781 74.1 L 76.152344 74.1 L 76.152344 62.201563 Z M 80.050781 86.201563 L 80.050781 98.1 L 76.152344 98.1 L 76.152344 86.201563 Z M 80.050781 118.201563 L 80.050781 130.1 L 76.152344 130.1 L 76.152344 118.201563 Z M 80.050781 142.201563 L 80.050781 154.1 L 76.152344 154.1 L 76.152344 142.201563 Z M 80.050781 166.201563 L 80.050781 178.1 L 76.152344 178.1 L 76.152344 166.201563 Z M 80.050781 190.201563 L 80.050781 202.1 L 76.152344 202.1 L 76.152344 190.201563 Z M 80.050781 222.201563 L 80.050781 234.1 L 76.152344 234.1 L 76.152344 222.201563 Z M 80.050781 246.201563 L 80.050781 258.1 L 76.152344 258.1 L 76.152344 246.201563 Z M 80.050781 270.201563 L 80.050781 282.1 L 76.152344 282.1 L 76.152344 270.201563 Z M 80.050781 294.201563 L 80.050781 306.1 L 76.152344 306.1 L 76.152344 294.201563 Z M 184.050781 14.201563 L 184.050781 26.1 L 180.152344 26.1 L 180.152344 14.201563 Z M 184.050781 38.201563 L 184.050781 50.1 L 180.152344 50.1 L 180.152344 38.201563 Z M 184.050781 62.201563 L 184.050781 74.1 L 180.152344 74.1 L 180.152344 62.201563 Z M 184.050781 86.201563 L 184.050781 98.1 L 180.152344 98.1 L 180.152344 86.201563 Z M 184.050781 118.201563 L 184.050781 130.1 L 180.152344 130.1 L 180.152344 118.201563 Z M 184.050781 142.201563 L 184.050781 154.1 L 180.152344 154.1 L 180.152344 142.201563 Z M 184.050781 166.201563 L 184.050781 178.1 L 180.152344 178.1 L 180.152344 166.201563 Z M 184.050781 190.201563 L 184.050781 202.1 L 180.152344 202.1 L 180.152344 190.201563 Z M 184.050781 222.201563 L 184.050781 234.1 L 180.152344 234.1 L 180.152344 222.201563 Z M 184.050781 246.201563 L 184.050781 258.1 L 180.152344 258.1 L 180.152344 246.201563 Z M 184.050781 270.201563 L 184.050781 282.1 L 180.152344 282.1 L 180.152344 270.201563 Z M 184.050781 294.201563 L 184.050781 306.1 L 180.152344 306.1 L 180.152344 294.201563 Z M 6.101562 6.1 L 16.101562 6.1 C 16.074219 6.1 16.050781 6.123438 16.050781 6.150781 M 16.050781 6.150781 L 16.050781 2.150781 C 16.050781 2.123438 16.074219 2.1 16.101562 2.1 M 16.101562 2.1 L 28.101562 2.1 C 28.128906 2.1 28.152344 2.123438 28.152344 2.150781 M 28.152344 2.150781 L 28.152344 6.150781 C 28.152344 6.123438 28.128906 6.1 28.101562 6.1 M 28.101562 6.1 L 40.101562 6.1 C 40.074219 6.1 40.050781 6.123438 40.050781 6.150781 M 40.050781 6.150781 L 40.050781 2.150781 C 40.050781 2.123438 40.074219 2.1 40.101562 2.1 M 40.101562 2.1 L 52.101562 2.1 C 52.128906 2.1 52.152344 2.123438 52.152344 2.150781 M 52.152344 2.150781 L 52.152344 6.150781 C 52.152344 6.123438 52.128906 6.1 52.101562 6.1 M 52.101562 6.1 L 64.101562 6.1 C 64.074219 6.1 64.050781 6.123438 64.050781 6.150781 M 64.050781 6.150781 L 64.050781 2.150781 C 64.050781 2.123438 64.074219 2.1 64.101562 2.1 M 64.101562 2.1 L 76.101562 2.1 C 76.128906 2.1 76.152344 2.123438 76.152344 2.150781 M 76.152344 2.150781 L 76.152344 6.150781 C 76.152344 6.123438 76.128906 6.1 76.101562 6.1 M 76.101562 6.1 L 88.101562 6.1 C 88.074219 6.1 88.050781 6.123438 88.050781 6.150781 M 88.050781 6.150781 L 88.050781 2.150781 C 88.050781 2.123438 88.074219 2.1 88.101562 2.1 M 88.101562 2.1 L 100.101562 2.1 C 100.128906 2.1 100.152344 2.123438 100.152344 2.150781 M 100.152344 2.150781 L 100.152344 6.150781 C 100.152344 6.123438 100.128906 6.1 100.101562 6.1 M 100.101562 6.1 L 112.101562 6.1 C 112.074219 6.1 112.050781 6.123438 112.050781 6.150781 M 112.050781 6.150781 L 112.050781 2.150781 C 112.050781 2.123438 112.074219 2.1 112.101562 2.1 M 112.101562 2.1 L 124.101562 2.1 C 124.128906 2.1 124.152344 2.123438 124.152344 2.150781 M 124.152344 2.150781 L 124.152344 6.150781 C 124.152344 6.123438 124.128906 6.1 124.101562 6.1 M 124.101562 6.1 L 136.101562 6.1 C 136.074219 6.1 136.050781 6.123438 136.050781 6.150781 M 136.050781 6.150781 L 136.050781 2.150781 C 136.050781 2.123438 136.074219 2.1 136.101562 2.1 M 136.101562 2.1 L 148.101562 2.1 C 148.128906 2.1 148.152344 2.123438 148.152344 2.150781 M 148.152344 2.150781 L 148.152344 6.150781 C 148.152344 6.123438 148.128906 6.1 148.101562 6.1 M 148.101562 6.1 L 160.101562 6.1 C 160.074219 6.1 160.050781 6.123438 160.050781 6.150781 M 160.050781 6.150781 L 160.050781 2.150781 C 160.050781 2.123438 160.074219 2.1 160.101562 2.1 M 160.101562 2.1 L 172.101562 2.1 C 172.128906 2.1 172.152344 2.123438 172.152344 2.150781 M 172.152344 2.150781 L 172.152344 6.150781 C 172.152344 6.123438 172.128906 6.1 172.101562 6.1 M 172.101562 6.1 L 184.101562 6.1 C 184.074219 6.1 184.050781 6.123438 184.050781 6.150781 M 184.050781 6.150781 L 184.050781 2.150781 C 184.050781 2.123438 184.074219 2.1 184.101562 2.1 M 184.101562 2.1 L 196.101562 2.1 C 196.128906 2.1 196.152344 2.123438 196.152344 2.150781 M 196.152344 2.150781 L 196.152344 6.150781 C 196.152344 6.123438 196.128906 6.1 196.101562 6.1 M 196.101562 6.1 L 208.101562 6.1 C 208.074219 6.1 208.050781 6.123438 208.050781 6.150781 M 208.050781 6.150781 L 208.050781 2.150781 C 208.050781 2.123438 208.074219 2.1 208.101562 2.1 M 208.101562 2.1 L 220.101562 2.1 C 220.128906 2.1 220.152344 2.123438 220.152344 2.150781 M 220.152344 2.150781 L 220.152344 6.150781 C 220.152344 6.123438 220.128906 6.1 220.101562 6.1 M 220.101562 6.1 L 232.101562 6.1 C 232.074219 6.1 232.050781 6.123438 232.050781 6.150781 M 232.050781 6.150781 L 232.050781 2.150781 C 232.050781 2.123438 232.074219 2.1 232.101562 2.1 M 232.101562 2.1 L 244.101562 2.1 C 244.128906 2.1 244.152344 2.123438 244.152344 2.150781 M 244.152344 2.150781 L 244.152344 6.150781 C 244.152344 6.123438 244.128906 6.1 244.101562 6.1 M 244.101562 6.1 L 254.101562 6.1 M 254.101562 6.1 C 254.128906 6.1 254.152344 6.123438 254.152344 6.150781 M 254.152344 6.150781 L 254.152344 6.150781 M 249.050781 110.1 L 237.152344 110.1 L 237.152344 106.201563 L 249.050781 106.201563 Z M 225.050781 110.1 L 213.152344 110.1 L 213.152344 106.201563 L 225.050781 106.201563 Z M 201.050781 110.1 L 189.152344 110.1 L 189.152344 106.201563 L 201.050781 106.201563 Z M 172.050781 110.1 L 160.152344 110.1 L 160.152344 106.201563 L 172.050781 106.201563 Z M 148.050781 110.1 L 136.152344 110.1 L 136.152344 106.201563 L 148.050781 106.201563 Z M 124.050781 110.1 L 112.152344 110.1 L 112.152344 106.201563 L 124.050781 106.201563 Z M 100.050781 110.1 L 88.152344 110.1 L 88.152344 106.201563 L 100.050781 106.201563 Z M 71.050781 110.1 L 59.152344 110.1 L 59.152344 106.201563 L 71.050781 106.201563 Z M 47.050781 110.1 L 35.152344 110.1 L 35.152344 106.201563 L 47.050781 106.201563 Z M 23.050781 110.1 L 11.152344 110.1 L 11.152344 106.201563 L 23.050781 106.201563 Z M 249.050781 214.1 L 237.152344 214.1 L 237.152344 210.201563 L 249.050781 210.201563 Z M 225.050781 214.1 L 213.152344 214.1 L 213.152344 210.201563 L 225.050781 210.201563 Z M 201.050781 214.1 L 189.152344 214.1 L 189.152344 210.201563 L 201.050781 210.201563 Z M 172.050781 214.1 L 160.152344 214.1 L 160.152344 210.201563 L 172.050781 210.201563 Z M 148.050781 214.1 L 136.152344 214.1 L 136.152344 210.201563 L 148.050781 210.201563 Z M 124.050781 214.1 L 112.152344 214.1 L 112.152344 210.201563 L 124.050781 210.201563 Z M 100.050781 214.1 L 88.152344 214.1 L 88.152344 210.201563 L 100.050781 210.201563 Z M 71.050781 214.1 L 59.152344 214.1 L 59.152344 210.201563 L 71.050781 210.201563 Z M 47.050781 214.1 L 35.152344 214.1 L 35.152344 210.201563 L 47.050781 210.201563 Z M 23.050781 214.1 L 11.152344 214.1 L 11.152344 210.201563 L 23.050781 210.201563 Z M 254.152344 6.150781 L 254.152344 10.150781 C 254.152344 10.123438 254.128906 10.1 254.101562 10.1 M 254.101562 10.1 L 258.101562 10.1 C 258.128906 10.1 258.152344 10.123438 258.152344 10.150781 M 258.152344 10.150781 L 258.152344 22.150781 C 258.152344 22.178125 258.128906 22.201563 258.101562 22.201563 M 258.101562 22.201563 L 254.101562 22.201563 C 254.128906 22.201563 254.152344 22.178125 254.152344 22.150781 M 254.152344 22.150781 L 254.152344 34.150781 C 254.152344 34.123438 254.128906 34.1 254.101562 34.1 M 254.101562 34.1 L 258.101562 34.1 C 258.128906 34.1 258.152344 34.123438 258.152344 34.150781 M 258.152344 34.150781 L 258.152344 46.150781 C 258.152344 46.178125 258.128906 46.201563 258.101562 46.201563 M 258.101562 46.201563 L 254.101562 46.201563 C 254.128906 46.201563 254.152344 46.178125 254.152344 46.150781 M 254.152344 46.150781 L 254.152344 58.150781 C 254.152344 58.123438 254.128906 58.1 254.101562 58.1 M 254.101562 58.1 L 258.101562 58.1 C 258.128906 58.1 258.152344 58.123438 258.152344 58.150781 M 258.152344 58.150781 L 258.152344 70.150781 C 258.152344 70.178125 258.128906 70.201563 258.101562 70.201563 M 258.101562 70.201563 L 254.101562 70.201563 C 254.128906 70.201563 254.152344 70.178125 254.152344 70.150781 M 254.152344 70.150781 L 254.152344 82.150781 C 254.152344 82.123438 254.128906 82.1 254.101562 82.1 M 254.101562 82.1 L 258.101562 82.1 C 258.128906 82.1 258.152344 82.123438 258.152344 82.150781 M 258.152344 82.150781 L 258.152344 94.150781 C 258.152344 94.178125 258.128906 94.201563 258.101562 94.201563 M 258.101562 94.201563 L 254.101562 94.201563 C 254.128906 94.201563 254.152344 94.178125 254.152344 94.150781 M 254.152344 94.150781 L 254.152344 106.150781 C 254.152344 106.123438 254.128906 106.1 254.101562 106.1 M 254.101562 106.1 L 258.101562 106.1 C 258.128906 106.1 258.152344 106.123438 258.152344 106.150781 M 258.152344 106.150781 L 258.152344 118.150781 C 258.152344 118.178125 258.128906 118.201563 258.101562 118.201563 M 258.101562 118.201563 L 254.101562 118.201563 C 254.128906 118.201563 254.152344 118.178125 254.152344 118.150781 M 254.152344 118.150781 L 254.152344 130.150781 C 254.152344 130.123438 254.128906 130.1 254.101562 130.1 M 254.101562 130.1 L 258.101562 130.1 C 258.128906 130.1 258.152344 130.123438 258.152344 130.150781 M 258.152344 130.150781 L 258.152344 142.150781 C 258.152344 142.178125 258.128906 142.201563 258.101562 142.201563 M 258.101562 142.201563 L 254.101562 142.201563 C 254.128906 142.201563 254.152344 142.178125 254.152344 142.150781 M 254.152344 142.150781 L 254.152344 154.150781 C 254.152344 154.123438 254.128906 154.1 254.101562 154.1 M 254.101562 154.1 L 258.101562 154.1 C 258.128906 154.1 258.152344 154.123438 258.152344 154.150781 M 258.152344 154.150781 L 258.152344 166.150781 C 258.152344 166.178125 258.128906 166.201563 258.101562 166.201563 M 258.101562 166.201563 L 254.101562 166.201563 C 254.128906 166.201563 254.152344 166.178125 254.152344 166.150781 M 254.152344 166.150781 L 254.152344 178.150781 C 254.152344 178.123438 254.128906 178.1 254.101562 178.1 M 254.101562 178.1 L 258.101562 178.1 C 258.128906 178.1 258.152344 178.123438 258.152344 178.150781 M 258.152344 178.150781 L 258.152344 190.150781 C 258.152344 190.178125 258.128906 190.201563 258.101562 190.201563 M 258.101562 190.201563 L 254.101562 190.201563 C 254.128906 190.201563 254.152344 190.178125 254.152344 190.150781 M 254.152344 190.150781 L 254.152344 202.150781 C 254.152344 202.123438 254.128906 202.1 254.101562 202.1 M 254.101562 202.1 L 258.101562 202.1 C 258.128906 202.1 258.152344 202.123438 258.152344 202.150781 M 258.152344 202.150781 L 258.152344 214.150781 C 258.152344 214.178125 258.128906 214.201563 258.101562 214.201563 M 258.101562 214.201563 L 254.101562 214.201563 C 254.128906 214.201563 254.152344 214.178125 254.152344 214.150781 M 254.152344 214.150781 L 254.152344 226.150781 C 254.152344 226.123438 254.128906 226.1 254.101562 226.1 M 254.101562 226.1 L 258.101562 226.1 C 258.128906 226.1 258.152344 226.123438 258.152344 226.150781 M 258.152344 226.150781 L 258.152344 238.150781 C 258.152344 238.178125 258.128906 238.201563 258.101562 238.201563 M 258.101562 238.201563 L 254.101562 238.201563 C 254.128906 238.201563 254.152344 238.178125 254.152344 238.150781 M 254.152344 238.150781 L 254.152344 250.150781 C 254.152344 250.123438 254.128906 250.1 254.101562 250.1 M 254.101562 250.1 L 258.101562 250.1 C 258.128906 250.1 258.152344 250.123438 258.152344 250.150781 M 258.152344 250.150781 L 258.152344 262.150781 C 258.152344 262.178125 258.128906 262.201563 258.101562 262.201563 M 258.101562 262.201563 L 254.101562 262.201563 C 254.128906 262.201563 254.152344 262.178125 254.152344 262.150781 M 254.152344 262.150781 L 254.152344 274.150781 C 254.152344 274.123438 254.128906 274.1 254.101562 274.1 M 254.101562 274.1 L 258.101562 274.1 C 258.128906 274.1 258.152344 274.123438 258.152344 274.150781 M 258.152344 274.150781 L 258.152344 286.150781 C 258.152344 286.178125 258.128906 286.201563 258.101562 286.201563 M 258.101562 286.201563 L 254.101562 286.201563 C 254.128906 286.201563 254.152344 286.178125 254.152344 286.150781 M 254.152344 286.150781 L 254.152344 298.150781 C 254.152344 298.123438 254.128906 298.1 254.101562 298.1 M 254.101562 298.1 L 258.101562 298.1 C 258.128906 298.1 258.152344 298.123438 258.152344 298.150781 M 258.152344 298.150781 L 258.152344 310.150781 C 258.152344 310.178125 258.128906 310.201563 258.101562 310.201563 M 258.101562 310.201563 L 254.101562 310.201563 C 254.128906 310.201563 254.152344 310.178125 254.152344 310.150781 M 254.152344 310.150781 L 254.152344 314.150781 M 254.152344 314.150781 C 254.152344 314.178125 254.128906 314.201563 254.101562 314.201563 M 254.101562 314.201563 L 254.101562 314.201563 M 254.101562 314.201563 L 244.101562 314.201563 C 244.128906 314.201563 244.152344 314.178125 244.152344 314.150781 M 244.152344 314.150781 L 244.152344 318.150781 C 244.152344 318.178125 244.128906 318.201563 244.101562 318.201563 M 244.101562 318.201563 L 232.101562 318.201563 C 232.074219 318.201563 232.050781 318.178125 232.050781 318.150781 M 232.050781 318.150781 L 232.050781 314.150781 C 232.050781 314.178125 232.074219 314.201563 232.101562 314.201563 M 232.101562 314.201563 L 220.101562 314.201563 C 220.128906 314.201563 220.152344 314.178125 220.152344 314.150781 M 220.152344 314.150781 L 220.152344 318.150781 C 220.152344 318.178125 220.128906 318.201563 220.101562 318.201563 M 220.101562 318.201563 L 208.101562 318.201563 C 208.074219 318.201563 208.050781 318.178125 208.050781 318.150781 M 208.050781 318.150781 L 208.050781 314.150781 C 208.050781 314.178125 208.074219 314.201563 208.101562 314.201563 M 208.101562 314.201563 L 196.101562 314.201563 C 196.128906 314.201563 196.152344 314.178125 196.152344 314.150781 M 196.152344 314.150781 L 196.152344 318.150781 C 196.152344 318.178125 196.128906 318.201563 196.101562 318.201563 M 196.101562 318.201563 L 184.101562 318.201563 C 184.074219 318.201563 184.050781 318.178125 184.050781 318.150781 M 184.050781 318.150781 L 184.050781 314.150781 C 184.050781 314.178125 184.074219 314.201563 184.101562 314.201563 M 184.101562 314.201563 L 172.101562 314.201563 C 172.128906 314.201563 172.152344 314.178125 172.152344 314.150781 M 172.152344 314.150781 L 172.152344 318.150781 C 172.152344 318.178125 172.128906 318.201563 172.101562 318.201563 M 172.101562 318.201563 L 160.101562 318.201563 C 160.074219 318.201563 160.050781 318.178125 160.050781 318.150781 M 160.050781 318.150781 L 160.050781 314.150781 C 160.050781 314.178125 160.074219 314.201563 160.101562 314.201563 M 160.101562 314.201563 L 148.101562 314.201563 C 148.128906 314.201563 148.152344 314.178125 148.152344 314.150781 M 148.152344 314.150781 L 148.152344 318.150781 C 148.152344 318.178125 148.128906 318.201563 148.101562 318.201563 M 148.101562 318.201563 L 136.101562 318.201563 C 136.074219 318.201563 136.050781 318.178125 136.050781 318.150781 M 136.050781 318.150781 L 136.050781 314.150781 C 136.050781 314.178125 136.074219 314.201563 136.101562 314.201563 M 136.101562 314.201563 L 124.101562 314.201563 C 124.128906 314.201563 124.152344 314.178125 124.152344 314.150781 M 124.152344 314.150781 L 124.152344 318.150781 C 124.152344 318.178125 124.128906 318.201563 124.101562 318.201563 M 124.101562 318.201563 L 112.101562 318.201563 C 112.074219 318.201563 112.050781 318.178125 112.050781 318.150781 M 112.050781 318.150781 L 112.050781 314.150781 C 112.050781 314.178125 112.074219 314.201563 112.101562 314.201563 M 112.101562 314.201563 L 100.101562 314.201563 C 100.128906 314.201563 100.152344 314.178125 100.152344 314.150781 M 100.152344 314.150781 L 100.152344 318.150781 C 100.152344 318.178125 100.128906 318.201563 100.101562 318.201563 M 100.101562 318.201563 L 88.101562 318.201563 C 88.074219 318.201563 88.050781 318.178125 88.050781 318.150781 M 88.050781 318.150781 L 88.050781 314.150781 C 88.050781 314.178125 88.074219 314.201563 88.101562 314.201563 M 88.101562 314.201563 L 76.101562 314.201563 C 76.128906 314.201563 76.152344 314.178125 76.152344 314.150781 M 76.152344 314.150781 L 76.152344 318.150781 C 76.152344 318.178125 76.128906 318.201563 76.101562 318.201563 M 76.101562 318.201563 L 64.101562 318.201563 C 64.074219 318.201563 64.050781 318.178125 64.050781 318.150781 M 64.050781 318.150781 L 64.050781 314.150781 C 64.050781 314.178125 64.074219 314.201563 64.101562 314.201563 M 64.101562 314.201563 L 52.101562 314.201563 C 52.128906 314.201563 52.152344 314.178125 52.152344 314.150781 M 52.152344 314.150781 L 52.152344 318.150781 C 52.152344 318.178125 52.128906 318.201563 52.101562 318.201563 M 52.101562 318.201563 L 40.101562 318.201563 C 40.074219 318.201563 40.050781 318.178125 40.050781 318.150781 M 40.050781 318.150781 L 40.050781 314.150781 C 40.050781 314.178125 40.074219 314.201563 40.101562 314.201563 M 40.101562 314.201563 L 28.101562 314.201563 C 28.128906 314.201563 28.152344 314.178125 28.152344 314.150781 M 28.152344 314.150781 L 28.152344 318.150781 C 28.152344 318.178125 28.128906 318.201563 28.101562 318.201563 M 28.101562 318.201563 L 16.101562 318.201563 C 16.074219 318.201563 16.050781 318.178125 16.050781 318.150781 M 16.050781 318.150781 L 16.050781 314.150781 C 16.050781 314.178125 16.074219 314.201563 16.101562 314.201563 M 16.101562 314.201563 L 6.101562 314.201563 M 6.101562 314.201563 C 6.074219 314.201563 6.050781 314.178125 6.050781 314.150781 M 6.050781 314.150781 L 6.050781 314.150781 M 6.050781 314.150781 L 6.050781 310.150781 C 6.050781 310.178125 6.074219 310.201563 6.101562 310.201563 M 6.101562 310.201563 L 2.101562 310.201563 C 2.074219 310.201563 2.050781 310.178125 2.050781 310.150781 M 2.050781 310.150781 L 2.050781 298.150781 C 2.050781 298.123438 2.074219 298.1 2.101562 298.1 M 2.101562 298.1 L 6.101562 298.1 C 6.074219 298.1 6.050781 298.123438 6.050781 298.150781 M 6.050781 298.150781 L 6.050781 286.150781 C 6.050781 286.178125 6.074219 286.201563 6.101562 286.201563 M 6.101562 286.201563 L 2.101562 286.201563 C 2.074219 286.201563 2.050781 286.178125 2.050781 286.150781 M 2.050781 286.150781 L 2.050781 274.150781 C 2.050781 274.123438 2.074219 274.1 2.101562 274.1 M 2.101562 274.1 L 6.101562 274.1 C 6.074219 274.1 6.050781 274.123438 6.050781 274.150781 M 6.050781 274.150781 L 6.050781 262.150781 C 6.050781 262.178125 6.074219 262.201563 6.101562 262.201563 M 6.101562 262.201563 L 2.101562 262.201563 C 2.074219 262.201563 2.050781 262.178125 2.050781 262.150781 M 2.050781 262.150781 L 2.050781 250.150781 C 2.050781 250.123438 2.074219 250.1 2.101562 250.1 M 2.101562 250.1 L 6.101562 250.1 C 6.074219 250.1 6.050781 250.123438 6.050781 250.150781 M 6.050781 250.150781 L 6.050781 238.150781 C 6.050781 238.178125 6.074219 238.201563 6.101562 238.201563 M 6.101562 238.201563 L 2.101562 238.201563 C 2.074219 238.201563 2.050781 238.178125 2.050781 238.150781 M 2.050781 238.150781 L 2.050781 226.150781 C 2.050781 226.123438 2.074219 226.1 2.101562 226.1 M 2.101562 226.1 L 6.101562 226.1 C 6.074219 226.1 6.050781 226.123438 6.050781 226.150781 M 6.050781 226.150781 L 6.050781 214.150781 C 6.050781 214.178125 6.074219 214.201563 6.101562 214.201563 M 6.101562 214.201563 L 2.101562 214.201563 C 2.074219 214.201563 2.050781 214.178125 2.050781 214.150781 M 2.050781 214.150781 L 2.050781 202.150781 C 2.050781 202.123438 2.074219 202.1 2.101562 202.1 M 2.101562 202.1 L 6.101562 202.1 C 6.074219 202.1 6.050781 202.123438 6.050781 202.150781 M 6.050781 202.150781 L 6.050781 190.150781 C 6.050781 190.178125 6.074219 190.201563 6.101562 190.201563 M 6.101562 190.201563 L 2.101562 190.201563 C 2.074219 190.201563 2.050781 190.178125 2.050781 190.150781 M 2.050781 190.150781 L 2.050781 178.150781 C 2.050781 178.123438 2.074219 178.1 2.101562 178.1 M 2.101562 178.1 L 6.101562 178.1 C 6.074219 178.1 6.050781 178.123438 6.050781 178.150781 M 6.050781 178.150781 L 6.050781 166.150781 C 6.050781 166.178125 6.074219 166.201563 6.101562 166.201563 M 6.101562 166.201563 L 2.101562 166.201563 C 2.074219 166.201563 2.050781 166.178125 2.050781 166.150781 M 2.050781 166.150781 L 2.050781 154.150781 C 2.050781 154.123438 2.074219 154.1 2.101562 154.1 M 2.101562 154.1 L 6.101562 154.1 C 6.074219 154.1 6.050781 154.123438 6.050781 154.150781 M 6.050781 154.150781 L 6.050781 142.150781 C 6.050781 142.178125 6.074219 142.201563 6.101562 142.201563 M 6.101562 142.201563 L 2.101562 142.201563 C 2.074219 142.201563 2.050781 142.178125 2.050781 142.150781 M 2.050781 142.150781 L 2.050781 130.150781 C 2.050781 130.123438 2.074219 130.1 2.101562 130.1 M 2.101562 130.1 L 6.101562 130.1 C 6.074219 130.1 6.050781 130.123438 6.050781 130.150781 M 6.050781 130.150781 L 6.050781 118.150781 C 6.050781 118.178125 6.074219 118.201563 6.101562 118.201563 M 6.101562 118.201563 L 2.101562 118.201563 C 2.074219 118.201563 2.050781 118.178125 2.050781 118.150781 M 2.050781 118.150781 L 2.050781 106.150781 C 2.050781 106.123438 2.074219 106.1 2.101562 106.1 M 2.101562 106.1 L 6.101562 106.1 C 6.074219 106.1 6.050781 106.123438 6.050781 106.150781 M 6.050781 106.150781 L 6.050781 94.150781 C 6.050781 94.178125 6.074219 94.201563 6.101562 94.201563 M 6.101562 94.201563 L 2.101562 94.201563 C 2.074219 94.201563 2.050781 94.178125 2.050781 94.150781 M 2.050781 94.150781 L 2.050781 82.150781 C 2.050781 82.123438 2.074219 82.1 2.101562 82.1 M 2.101562 82.1 L 6.101562 82.1 C 6.074219 82.1 6.050781 82.123438 6.050781 82.150781 M 6.050781 82.150781 L 6.050781 70.150781 C 6.050781 70.178125 6.074219 70.201563 6.101562 70.201563 M 6.101562 70.201563 L 2.101562 70.201563 C 2.074219 70.201563 2.050781 70.178125 2.050781 70.150781 M 2.050781 70.150781 L 2.050781 58.150781 C 2.050781 58.123438 2.074219 58.1 2.101562 58.1 M 2.101562 58.1 L 6.101562 58.1 C 6.074219 58.1 6.050781 58.123438 6.050781 58.150781 M 6.050781 58.150781 L 6.050781 46.150781 C 6.050781 46.178125 6.074219 46.201563 6.101562 46.201563 M 6.101562 46.201563 L 2.101562 46.201563 C 2.074219 46.201563 2.050781 46.178125 2.050781 46.150781 M 2.050781 46.150781 L 2.050781 34.150781 C 2.050781 34.123438 2.074219 34.1 2.101562 34.1 M 2.101562 34.1 L 6.101562 34.1 C 6.074219 34.1 6.050781 34.123438 6.050781 34.150781 M 6.050781 34.150781 L 6.050781 22.150781 C 6.050781 22.178125 6.074219 22.201563 6.101562 22.201563 M 6.101562 22.201563 L 2.101562 22.201563 C 2.074219 22.201563 2.050781 22.178125 2.050781 22.150781 M 2.050781 22.150781 L 2.050781 10.150781 C 2.050781 10.123438 2.074219 10.1 2.101562 10.1 M 2.101562 10.1 L 6.101562 10.1 C 6.074219 10.1 6.050781 10.123438 6.050781 10.150781 M 6.050781 10.150781 L 6.050781 6.150781 M 6.050781 6.150781 C 6.050781 6.123438 6.074219 6.1 6.101562 6.1 " transform="matrix(1,0,0,-1,4,291.6)"/>
<path style="fill:none;stroke-width:0.1;stroke-linecap:butt;stroke-linejoin:miter;stroke:rgb(0%,0%,0%);stroke-opacity:1;stroke-miterlimit:10;" d="M 6.100781 6.1 L 6.100781 6.1 M 6.100781 6.1 L 14.100781 6.1 C 14.073438 6.1 14.05 6.123438 14.05 6.150781 M 14.05 6.150781 L 14.05 2.150781 C 14.05 2.123438 14.073438 2.1 14.100781 2.1 M 14.100781 2.1 L 26.100781 2.1 C 26.128125 2.1 26.151563 2.123438 26.151563 2.150781 M 26.151563 2.150781 L 26.151563 6.150781 C 26.151563 6.123438 26.128125 6.1 26.100781 6.1 M 26.100781 6.1 L 38.100781 6.1 C 38.073438 6.1 38.05 6.123438 38.05 6.150781 M 38.05 6.150781 L 38.05 2.150781 C 38.05 2.123438 38.073438 2.1 38.100781 2.1 M 38.100781 2.1 L 50.100781 2.1 C 50.128125 2.1 50.151563 2.123438 50.151563 2.150781 M 50.151563 2.150781 L 50.151563 6.150781 C 50.151563 6.123438 50.128125 6.1 50.100781 6.1 M 50.100781 6.1 L 62.100781 6.1 C 62.073438 6.1 62.05 6.123438 62.05 6.150781 M 62.05 6.150781 L 62.05 2.150781 C 62.05 2.123438 62.073438 2.1 62.100781 2.1 M 62.100781 2.1 L 74.100781 2.1 C 74.128125 2.1 74.151563 2.123438 74.151563 2.150781 M 74.151563 2.150781 L 74.151563 6.150781 C 74.151563 6.123438 74.128125 6.1 74.100781 6.1 M 74.100781 6.1 L 86.100781 6.1 C 86.073438 6.1 86.05 6.123438 86.05 6.150781 M 86.05 6.150781 L 86.05 2.150781 C 86.05 2.123438 86.073438 2.1 86.100781 2.1 M 86.100781 2.1 L 98.100781 2.1 C 98.128125 2.1 98.151563 2.123438 98.151563 2.150781 M 98.151563 2.150781 L 98.151563 6.150781 C 98.151563 6.123438 98.128125 6.1 98.100781 6.1 M 98.100781 6.1 L 106.100781 6.1 C 106.128125 6.1 106.151563 6.123438 106.151563 6.150781 M 106.151563 6.150781 L 106.151563 31.150781 C 106.151563 31.123438 106.128125 31.1 106.100781 31.1 M 106.100781 31.1 L 110.100781 31.1 C 110.073438 31.1 110.05 31.123438 110.05 31.150781 M 110.05 31.150781 L 110.05 6.150781 C 110.05 6.123438 110.073438 6.1 110.100781 6.1 M 110.100781 6.1 L 118.100781 6.1 C 118.073438 6.1 118.05 6.123438 118.05 6.150781 M 118.05 6.150781 L 118.05 2.150781 C 118.05 2.123438 118.073438 2.1 118.100781 2.1 M 118.100781 2.1 L 130.100781 2.1 C 130.128125 2.1 130.151563 2.123438 130.151563 2.150781 M 130.151563 2.150781 L 130.151563 6.150781 C 130.151563 6.123438 130.128125 6.1 130.100781 6.1 M 130.100781 6.1 L 142.100781 6.1 C 142.073438 6.1 142.05 6.123438 142.05 6.150781 M 142.05 6.150781 L 142.05 2.150781 C 142.05 2.123438 142.073438 2.1 142.100781 2.1 M 142.100781 2.1 L 154.100781 2.1 C 154.128125 2.1 154.151563 2.123438 154.151563 2.150781 M 154.151563 2.150781 L 154.151563 6.150781 C 154.151563 6.123438 154.128125 6.1 154.100781 6.1 M 154.100781 6.1 L 166.100781 6.1 C 166.073438 6.1 166.05 6.123438 166.05 6.150781 M 166.05 6.150781 L 166.05 2.150781 C 166.05 2.123438 166.073438 2.1 166.100781 2.1 M 166.100781 2.1 L 178.100781 2.1 C 178.128125 2.1 178.151563 2.123438 178.151563 2.150781 M 178.151563 2.150781 L 178.151563 6.150781 C 178.151563 6.123438 178.128125 6.1 178.100781 6.1 M 178.100781 6.1 L 190.100781 6.1 C 190.073438 6.1 190.05 6.123438 190.05 6.150781 M 190.05 6.150781 L 190.05 2.150781 C 190.05 2.123438 190.073438 2.1 190.100781 2.1 M 190.100781 2.1 L 202.100781 2.1 C 202.128125 2.1 202.151563 2.123438 202.151563 2.150781 M 202.151563 2.150781 L 202.151563 6.150781 C 202.151563 6.123438 202.128125 6.1 202.100781 6.1 M 202.100781 6.1 L 210.100781 6.1 C 210.128125 6.1 210.151563 6.123438 210.151563 6.150781 M 210.151563 6.150781 L 210.151563 31.150781 C 210.151563 31.123438 210.128125 31.1 210.100781 31.1 M 210.100781 31.1 L 214.100781 31.1 C 214.073438 31.1 214.05 31.123438 214.05 31.150781 M 214.05 31.150781 L 214.05 6.150781 C 214.05 6.123438 214.073438 6.1 214.100781 6.1 M 214.100781 6.1 L 222.100781 6.1 C 222.073438 6.1 222.05 6.123438 222.05 6.150781 M 222.05 6.150781 L 222.05 2.150781 C 222.05 2.123438 222.073438 2.1 222.100781 2.1 M 222.100781 2.1 L 234.100781 2.1 C 234.128125 2.1 234.151563 2.123438 234.151563 2.150781 M 234.151563 2.150781 L 234.151563 6.150781 C 234.151563 6.123438 234.128125 6.1 234.100781 6.1 M 234.100781 6.1 L 246.100781 6.1 C 246.073438 6.1 246.05 6.123438 246.05 6.150781 M 246.05 6.150781 L 246.05 2.150781 C 246.05 2.123438 246.073438 2.1 246.100781 2.1 M 246.100781 2.1 L 258.100781 2.1 C 258.128125 2.1 258.151563 2.123438 258.151563 2.150781 M 258.151563 2.150781 L 258.151563 6.150781 C 258.151563 6.123438 258.128125 6.1 258.100781 6.1 M 258.100781 6.1 L 270.100781 6.1 C 270.073438 6.1 270.05 6.123438 270.05 6.150781 M 270.05 6.150781 L 270.05 2.150781 C 270.05 2.123438 270.073438 2.1 270.100781 2.1 M 270.100781 2.1 L 282.100781 2.1 C 282.128125 2.1 282.151563 2.123438 282.151563 2.150781 M 282.151563 2.150781 L 282.151563 6.150781 C 282.151563 6.123438 282.128125 6.1 282.100781 6.1 M 282.100781 6.1 L 294.100781 6.1 C 294.073438 6.1 294.05 6.123438 294.05 6.150781 M 294.05 6.150781 L 294.05 2.150781 C 294.05 2.123438 294.073438 2.1 294.100781 2.1 M 294.100781 2.1 L 306.100781 2.1 C 306.128125 2.1 306.151563 2.123438 306.151563 2.150781 M 306.151563 2.150781 L 306.151563 6.150781 C 306.151563 6.123438 306.128125 6.1 306.100781 6.1 M 306.100781 6.1 L 314.100781 6.1 M 314.100781 6.1 C 314.128125 6.1 314.151563 6.123438 314.151563 6.150781 M 314.151563 6.150781 L 314.151563 6.150781 M 314.151563 6.150781 L 314.151563 13.150781 C 314.151563 13.123438 314.128125 13.1 314.100781 13.1 M 314.100781 13.1 L 318.100781 13.1 C 318.128125 13.1 318.151563 13.123438 318.151563 13.150781 M 318.151563 13.150781 L 318.151563 25.150781 C 318.151563 25.178125 318.128125 25.201563 318.100781 25.201563 M 318.100781 25.201563 L 314.100781 25.201563 C 314.128125 25.201563 314.151563 25.178125 314.151563 25.150781 M 314.151563 25.150781 L 314.151563 37.150781 C 314.151563 37.123438 314.128125 37.1 314.100781 37.1 M 314.100781 37.1 L 318.100781 37.1 C 318.128125 37.1 318.151563 37.123438 318.151563 37.150781 M 318.151563 37.150781 L 318.151563 49.150781 C 318.151563 49.178125 318.128125 49.201563 318.100781 49.201563 M 318.100781 49.201563 L 314.100781 49.201563 C 314.128125 49.201563 314.151563 49.178125 314.151563 49.150781 M 314.151563 49.150781 L 314.151563 56.150781 M 314.151563 56.150781 C 314.151563 56.178125 314.128125 56.201563 314.100781 56.201563 M 314.100781 56.201563 L 314.100781 56.201563 M 314.100781 56.201563 L 6.100781 56.201563 M 6.100781 56.201563 C 6.073438 56.201563 6.05 56.178125 6.05 56.150781 M 6.05 56.150781 L 6.05 56.150781 M 6.05 56.150781 L 6.05 49.150781 C 6.05 49.178125 6.073438 49.201563 6.100781 49.201563 M 6.100781 49.201563 L 2.100781 49.201563 C 2.073438 49.201563 2.05 49.178125 2.05 49.150781 M 2.05 49.150781 L 2.05 37.150781 C 2.05 37.123438 2.073438 37.1 2.100781 37.1 M 2.100781 37.1 L 6.100781 37.1 C 6.073438 37.1 6.05 37.123438 6.05 37.150781 M 6.05 37.150781 L 6.05 25.150781 C 6.05 25.178125 6.073438 25.201563 6.100781 25.201563 M 6.100781 25.201563 L 2.100781 25.201563 C 2.073438 25.201563 2.05 25.178125 2.05 25.150781 M 2.05 25.150781 L 2.05 13.150781 C 2.05 13.123438 2.073438 13.1 2.100781 13.1 M 2.100781 13.1 L 6.100781 13.1 C 6.073438 13.1 6.05 13.123438 6.05 13.150781 M 6.05 13.150781 L 6.05 6.150781 M 6.05 6.150781 C 6.05 6.123438 6.073438 6.1 6.100781 6.1 " transform="matrix(1,0,0,-1,264.2,291.6)"/>
<path style="fill:none;stroke-width:0.1;stroke-linecap:butt;stroke-linejoin:miter;stroke:rgb(0%,0%,0%);stroke-opacity:1;stroke-miterlimit:10;" d="M 6.100781 6.099219 L 6.100781 6.099219 M 6.100781 6.099219 L 14.100781 6.099219 C 14.073438 6.099219 14.05 6.122656 14.05 6.15 M 14.05 6.15 L 14.05 2.15 C 14.05 2.122656 14.073438 2.099219 14.100781 2.099219 M 14.100781 2.099219 L 26.100781 2.099219 C 26.128125 2.099219 26.151563 2.122656 26.151563 2.15 M 26.151563 2.15 L 26.151563 6.15 C 26.151563 6.122656 26.128125 6.099219 26.100781 6.099219 M 26.100781 6.099219 L 38.100781 6.099219 C 38.073438 6.099219 38.05 6.122656 38.05 6.15 M 38.05 6.15 L 38.05 2.15 C 38.05 2.122656 38.073438 2.099219 38.100781 2.099219 M 38.100781 2.099219 L 50.100781 2.099219 C 50.128125 2.099219 50.151563 2.122656 50.151563 2.15 M 50.151563 2.15 L 50.151563 6.15 C 50.151563 6.122656 50.128125 6.099219 50.100781 6.099219 M 50.100781 6.099219 L 62.100781 6.099219 C 62.073438 6.099219 62.05 6.122656 62.05 6.15 M 62.05 6.15 L 62.05 2.15 C 62.05 2.122656 62.073438 2.099219 62.100781 2.099219 M 62.100781 2.099219 L 74.100781 2.099219 C 74.128125 2.099219 74.151563 2.122656 74.151563 2.15 M 74.151563 2.15 L 74.151563 6.15 C 74.151563 6.122656 74.128125 6.099219 74.100781 6.099219 M 74.100781 6.099219 L 86.100781 6.099219 C 86.073438 6.099219 86.05 6.122656 86.05 6.15 M 86.05 6.15 L 86.05 2.15 C 86.05 2.122656 86.073438 2.099219 86.100781 2.099219 M 86.100781 2.099219 L 98.100781 2.099219 C 98.128125 2.099219 98.151563 2.122656 98.151563 2.15 M 98.151563 2.15 L 98.151563 6.15 C 98.151563 6.122656 98.128125 6.099219 98.100781 6.099219 M 98.100781 6.099219 L 106.100781 6.099219 C 106.128125 6.099219 106.151563 6.122656 106.151563 6.15 M 106.151563 6.15 L 106.151563 31.15 C 106.151563 31.122656 106.128125 31.099219 106.100781 31.099219 M 106.100781 31.099219 L 110.100781 31.099219 C 110.073438 31.099219 110.05 31.122656 110.05 31.15 M 110.05 31.15 L 110.05 6.15 C 110.05 6.122656 110.073438 6.099219 110.100781 6.099219 M 110.100781 6.099219 L 118.100781 6.099219 C 118.073438 6.099219 118.05 6.122656 118.05 6.15 M 118.05 6.15 L 118.05 2.15 C 118.05 2.122656 118.073438 2.099219 118.100781 2.099219 M 118.100781 2.099219 L 130.100781 2.099219 C 130.128125 2.099219 130.151563 2.122656 130.151563 2.15 M 130.151563 2.15 L 130.151563 6.15 C 130.151563 6.122656 130.128125 6.099219 130.100781 6.099219 M 130.100781 6.099219 L 142.100781 6.099219 C 142.073438 6.099219 142.05 6.122656 142.05 6.15 M 142.05 6.15 L 142.05 2.15 C 142.05 2.122656 142.073438 2.099219 142.100781 2.099219 M 142.100781 2.099219 L 154.100781 2.099219 C 154.128125 2.099219 154.151563 2.122656 154.151563 2.15 M 154.151563 2.15 L 154.151563 6.15 C 154.151563 6.122656 154.128125 6.099219 154.100781 6.099219 M 154.100781 6.099219 L 166.100781 6.099219 C 166.073438 6.099219 166.05 6.122656 166.05 6.15 M 166.05 6.15 L 166.05 2.15 C 166.05 2.122656 166.073438 2.099219 166.100781 2.099219 M 166.100781 2.099219 L 178.100781 2.099219 C 178.128125 2.099219 178.151563 2.122656 178.151563 2.15 M 178.151563 2.15 L 178.151563 6.15 C 178.151563 6.122656 178.128125 6.099219 178.100781 6.099219 M 178.100781 6.099219 L 190.100781 6.099219 C 190.073438 6.099219 190.05 6.122656 190.05 6.15 M 190.05 6.15 L 190.05 2.15 C 190.05 2.122656 190.073438 2.099219 190.100781 2.099219 M 190.100781 2.099219 L 202.100781 2.099219 C 202.128125 2.099219 202.151563 2.122656 202.151563 2.15 M 202.151563 2.15 L 202.151563 6.15 C 202.151563 6.122656 202.128125 6.099219 202.100781 6.099219 M 202.100781 6.099219 L 210.100781 6.099219 C 210.128125 6.099219 210.151563 6.122656 210.151563 6.15 M 210.151563 6.15 L 210.151563 31.15 C 210.151563 31.122656 210.128125 31.099219 210.100781 31.099219 M 210.100781 31.099219 L 214.100781 31.099219 C 214.073438 31.099219 214.05 31.122656 214.05 31.15 M 214.05 31.15 L 214.05 6.15 C 214.05 6.122656 214.073438 6.099219 214.100781 6.099219 M 214.100781 6.099219 L 222.100781 6.099219 C 222.073438 6.099219 222.05 6.122656 222.05 6.15 M 222.05 6.15 L 222.05 2.15 C 222.05 2.122656 222.073438 2.099219 222.100781 2.099219 M 222.100781 2.099219 L 234.100781 2.099219 C 234.128125 2.099219 234.151563 2.122656 234.151563 2.15 M 234.151563 2.15 L 234.151563 6.15 C 234.151563 6.122656 234.128125 6.099219 234.100781 6.099219 M 234.100781 6.099219 L 246.100781 6.099219 C 246.073438 6.099219 246.05 6.122656 246.05 6.15 M 246.05 6.15 L 246.05 2.15 C 246.05 2.122656 246.073438 2.099219 246.100781 2.099219 M 246.100781 2.099219 L 258.100781 2.099219 C 258.128125 2.099219 258.151563 2.122656 258.151563 2.15 M 258.151563 2.15 L 258.151563 6.15 C 258.151563 6.122656 258.128125 6.099219 258.100781 6.099219 M 258.100781 6.099219 L 270.100781 6.099219 C 270.073438 6.099219 270.05 6.122656 270.05 6.15 M 270.05 6.15 L 270.05 2.15 C 270.05 2.122656 270.073438 2.099219 270.100781 2.099219 M 270.100781 2.099219 L 282.100781 2.099219 C 282.128125 2.099219 282.151563 2.122656 282.151563 2.15 M 282.151563 2.15 L 282.151563 6.15 C 282.151563 6.122656 282.128125 6.099219 282.100781 6.099219 M 282.100781 6.099219 L 294.100781 6.099219 C 294.073438 6.099219 294.05 6.122656 294.05 6.15 M 294.05 6.15 L 294.05 2.15 C 294.05 2.122656 294.073438 2.099219 294.100781 2.099219 M 294.100781 2.099219 L 306.100781 2.099219 C 306.128125 2.099219 306.151563 2.122656 306.151563 2.15 M 306.151563 2.15 L 306.151563 6.15 C 306.151563 6.122656 306.128125 6.099219 306.100781 6.099219 M 306.100781 6.099219 L 314.100781 6.099219 M 314.100781 6.099219 C 314.128125 6.099219 314.151563 6.122656 314.151563 6.15 M 314.151563 6.15 L 314.151563 6.15 M 314.151563 6.15 L 314.151563 13.15 C 314.151563 13.122656 314.128125 13.099219 314.100781 13.099219 M 314.100781 13.099219 L 318.100781 13.099219 C 318.128125 13.099219 318.151563 13.122656 318.151563 13.15 M 318.151563 13.15 L 318.151563 25.15 C 318.151563 25.177344 318.128125 25.200781 318.100781 25.200781 M 318.100781 25.200781 L 314.100781 25.200781 C 314.128125 25.200781 314.151563 25.177344 314.151563 25.15 M 314.151563 25.15 L 314.151563 37.15 C 314.151563 37.122656 314.128125 37.099219 314.100781 37.099219 M 314.100781 37.099219 L 318.100781 37.099219 C 318.128125 37.099219 318.151563 37.122656 318.151563 37.15 M 318.151563 37.15 L 318.151563 49.15 C 318.151563 49.177344 318.128125 49.200781 318.100781 49.200781 M 318.100781 49.200781 L 314.100781 49.200781 C 314.128125 49.200781 314.151563 49.177344 314.151563 49.15 M 314.151563 49.15 L 314.151563 56.15 M 314.151563 56.15 C 314.151563 56.177344 314.128125 56.200781 314.100781 56.200781 M 314.100781 56.200781 L 314.100781 56.200781 M 314.100781 56.200781 L 6.100781 56.200781 M 6.100781 56.200781 C 6.073438 56.200781 6.05 56.177344 6.05 56.15 M 6.05 56.15 L 6.05 56.15 M 6.05 56.15 L 6.05 49.15 C 6.05 49.177344 6.073438 49.200781 6.100781 49.200781 M 6.100781 49.200781 L 2.100781 49.200781 C 2.073438 49.200781 2.05 49.177344 2.05 49.15 M 2.05 49.15 L 2.05 37.15 C 2.05 37.122656 2.073438 37.099219 2.100781 37.099219 M 2.100781 37.099219 L 6.100781 37.099219 C 6.073438 37.099219 6.05 37.122656 6.05 37.15 M 6.05 37.15 L 6.05 25.15 C 6.05 25.177344 6.073438 25.200781 6.100781 25.200781 M 6.100781 25.200781 L 2.100781 25.200781 C 2.073438 25.200781 2.05 25.177344 2.05 25.15 M 2.05 25.15 L 2.05 13.15 C 2.05 13.122656 2.073438 13.099219 2.100781 13.099219 M 2.100781 13.099219 L 6.100781 13.099219 C 6.073438 13.099219 6.05 13.122656 6.05 13.15 M 6.05 13.15 L 6.05 6.15 M 6.05 6.15 C 6.05 6.122656 6.073438 6.099219 6.100781 6.099219 " transform="matrix(1,0,0,-1,264.2,233.4)"/>
<path style="fill:none;stroke-width:0.1;stroke-linecap:butt;stroke-linejoin:miter;stroke:rgb(0%,0%,0%);stroke-opacity:1;stroke-miterlimit:10;" d="M 6.100781 6.098438 L 6.100781 6.098438 M 6.100781 6.098438 L 11.100781 6.098438 C 11.073438 6.098438 11.05 6.121875 11.05 6.149219 M 11.05 6.149219 L 11.05 2.149219 C 11.05 2.121875 11.073438 2.098438 11.100781 2.098438 M 11.100781 2.098438 L 23.100781 2.098438 C 23.128125 2.098438 23.151563 2.121875 23.151563 2.149219 M 23.151563 2.149219 L 23.151563 6.149219 C 23.151563 6.121875 23.128125 6.098438 23.100781 6.098438 M 23.100781 6.098438 L 35.100781 6.098438 C 35.073438 6.098438 35.05 6.121875 35.05 6.149219 M 35.05 6.149219 L 35.05 2.149219 C 35.05 2.121875 35.073438 2.098438 35.100781 2.098438 M 35.100781 2.098438 L 47.100781 2.098438 C 47.128125 2.098438 47.151563 2.121875 47.151563 2.149219 M 47.151563 2.149219 L 47.151563 6.149219 C 47.151563 6.121875 47.128125 6.098438 47.100781 6.098438 M 47.100781 6.098438 L 59.100781 6.098438 C 59.073438 6.098438 59.05 6.121875 59.05 6.149219 M 59.05 6.149219 L 59.05 2.149219 C 59.05 2.121875 59.073438 2.098438 59.100781 2.098438 M 59.100781 2.098438 L 71.100781 2.098438 C 71.128125 2.098438 71.151563 2.121875 71.151563 2.149219 M 71.151563 2.149219 L 71.151563 6.149219 C 71.151563 6.121875 71.128125 6.098438 71.100781 6.098438 M 71.100781 6.098438 L 76.100781 6.098438 M 76.100781 6.098438 L 78.100781 6.098438 M 78.100781 6.098438 L 80.100781 6.098438 M 80.100781 6.098438 L 88.100781 6.098438 C 88.073438 6.098438 88.05 6.121875 88.05 6.149219 M 88.05 6.149219 L 88.05 2.149219 C 88.05 2.121875 88.073438 2.098438 88.100781 2.098438 M 88.100781 2.098438 L 100.100781 2.098438 C 100.128125 2.098438 100.151563 2.121875 100.151563 2.149219 M 100.151563 2.149219 L 100.151563 6.149219 C 100.151563 6.121875 100.128125 6.098438 100.100781 6.098438 M 100.100781 6.098438 L 112.100781 6.098438 C 112.073438 6.098438 112.05 6.121875 112.05 6.149219 M 112.05 6.149219 L 112.05 2.149219 C 112.05 2.121875 112.073438 2.098438 112.100781 2.098438 M 112.100781 2.098438 L 124.100781 2.098438 C 124.128125 2.098438 124.151563 2.121875 124.151563 2.149219 M 124.151563 2.149219 L 124.151563 6.149219 C 124.151563 6.121875 124.128125 6.098438 124.100781 6.098438 M 124.100781 6.098438 L 136.100781 6.098438 C 136.073438 6.098438 136.05 6.121875 136.05 6.149219 M 136.05 6.149219 L 136.05 2.149219 C 136.05 2.121875 136.073438 2.098438 136.100781 2.098438 M 136.100781 2.098438 L 148.100781 2.098438 C 148.128125 2.098438 148.151563 2.121875 148.151563 2.149219 M 148.151563 2.149219 L 148.151563 6.149219 C 148.151563 6.121875 148.128125 6.098438 148.100781 6.098438 M 148.100781 6.098438 L 160.100781 6.098438 C 160.073438 6.098438 160.05 6.121875 160.05 6.149219 M 160.05 6.149219 L 160.05 2.149219 C 160.05 2.121875 160.073438 2.098438 160.100781 2.098438 M 160.100781 2.098438 L 172.100781 2.098438 C 172.128125 2.098438 172.151563 2.121875 172.151563 2.149219 M 172.151563 2.149219 L 172.151563 6.149219 C 172.151563 6.121875 172.128125 6.098438 172.100781 6.098438 M 172.100781 6.098438 L 180.100781 6.098438 M 180.100781 6.098438 L 182.100781 6.098438 M 182.100781 6.098438 L 184.100781 6.098438 M 184.100781 6.098438 L 189.100781 6.098438 C 189.073438 6.098438 189.05 6.121875 189.05 6.149219 M 189.05 6.149219 L 189.05 2.149219 C 189.05 2.121875 189.073438 2.098438 189.100781 2.098438 M 189.100781 2.098438 L 201.100781 2.098438 C 201.128125 2.098438 201.151563 2.121875 201.151563 2.149219 M 201.151563 2.149219 L 201.151563 6.149219 C 201.151563 6.121875 201.128125 6.098438 201.100781 6.098438 M 201.100781 6.098438 L 213.100781 6.098438 C 213.073438 6.098438 213.05 6.121875 213.05 6.149219 M 213.05 6.149219 L 213.05 2.149219 C 213.05 2.121875 213.073438 2.098438 213.100781 2.098438 M 213.100781 2.098438 L 225.100781 2.098438 C 225.128125 2.098438 225.151563 2.121875 225.151563 2.149219 M 225.151563 2.149219 L 225.151563 6.149219 C 225.151563 6.121875 225.128125 6.098438 225.100781 6.098438 M 225.100781 6.098438 L 237.100781 6.098438 C 237.073438 6.098438 237.05 6.121875 237.05 6.149219 M 237.05 6.149219 L 237.05 2.149219 C 237.05 2.121875 237.073438 2.098438 237.100781 2.098438 M 237.100781 2.098438 L 249.100781 2.098438 C 249.128125 2.098438 249.151563 2.121875 249.151563 2.149219 M 249.151563 2.149219 L 249.151563 6.149219 C 249.151563 6.121875 249.128125 6.098438 249.100781 6.098438 M 249.100781 6.098438 L 254.100781 6.098438 M 254.100781 6.098438 C 254.128125 6.098438 254.151563 6.121875 254.151563 6.149219 M 254.151563 6.149219 L 254.151563 6.149219 M 254.151563 6.149219 L 254.151563 13.149219 C 254.151563 13.121875 254.128125 13.098438 254.100781 13.098438 M 254.100781 13.098438 L 258.100781 13.098438 C 258.128125 13.098438 258.151563 13.121875 258.151563 13.149219 M 258.151563 13.149219 L 258.151563 25.149219 C 258.151563 25.176563 258.128125 25.2 258.100781 25.2 M 258.100781 25.2 L 254.100781 25.2 C 254.128125 25.2 254.151563 25.176563 254.151563 25.149219 M 254.151563 25.149219 L 254.151563 37.149219 C 254.151563 37.121875 254.128125 37.098438 254.100781 37.098438 M 254.100781 37.098438 L 258.100781 37.098438 C 258.128125 37.098438 258.151563 37.121875 258.151563 37.149219 M 258.151563 37.149219 L 258.151563 49.149219 C 258.151563 49.176563 258.128125 49.2 258.100781 49.2 M 258.100781 49.2 L 254.100781 49.2 C 254.128125 49.2 254.151563 49.176563 254.151563 49.149219 M 254.151563 49.149219 L 254.151563 56.149219 M 254.151563 56.149219 C 254.151563 56.176563 254.128125 56.2 254.100781 56.2 M 254.100781 56.2 L 254.100781 56.2 M 254.100781 56.2 L 184.100781 56.2 C 184.073438 56.2 184.05 56.176563 184.05 56.149219 M 184.05 56.149219 L 184.05 31.149219 C 184.05 31.176563 184.073438 31.2 184.100781 31.2 M 184.100781 31.2 L 180.100781 31.2 C 180.128125 31.2 180.151563 31.176563 180.151563 31.149219 M 180.151563 31.149219 L 180.151563 56.149219 C 180.151563 56.176563 180.128125 56.2 180.100781 56.2 M 180.100781 56.2 L 80.100781 56.2 C 80.073438 56.2 80.05 56.176563 80.05 56.149219 M 80.05 56.149219 L 80.05 31.149219 C 80.05 31.176563 80.073438 31.2 80.100781 31.2 M 80.100781 31.2 L 76.100781 31.2 C 76.128125 31.2 76.151563 31.176563 76.151563 31.149219 M 76.151563 31.149219 L 76.151563 56.149219 C 76.151563 56.176563 76.128125 56.2 76.100781 56.2 M 76.100781 56.2 L 6.100781 56.2 M 6.100781 56.2 C 6.073438 56.2 6.05 56.176563 6.05 56.149219 M 6.05 56.149219 L 6.05 56.149219 M 6.05 56.149219 L 6.05 49.149219 C 6.05 49.176563 6.073438 49.2 6.100781 49.2 M 6.100781 49.2 L 2.100781 49.2 C 2.073438 49.2 2.05 49.176563 2.05 49.149219 M 2.05 49.149219 L 2.05 37.149219 C 2.05 37.121875 2.073438 37.098438 2.100781 37.098438 M 2.100781 37.098438 L 6.100781 37.098438 C 6.073438 37.098438 6.05 37.121875 6.05 37.149219 M 6.05 37.149219 L 6.05 25.149219 C 6.05 25.176563 6.073438 25.2 6.100781 25.2 M 6.100781 25.2 L 2.100781 25.2 C 2.073438 25.2 2.05 25.176563 2.05 25.149219 M 2.05 25.149219 L 2.05 13.149219 C 2.05 13.121875 2.073438 13.098438 2.100781 13.098438 M 2.100781 13.098438 L 6.100781 13.098438 C 6.073438 13.098438 6.05 13.121875 6.05 13.149219 M 6.05 13.149219 L 6.05 6.149219 M 6.05 6.149219 C 6.05 6.121875 6.073438 6.098438 6.100781 6.098438 " transform="matrix(1,0,0,-1,264.2,175.2)"/>
<path style="fill:none;stroke-width:0.1;stroke-linecap:butt;stroke-linejoin:miter;stroke:rgb(0%,0%,0%);stroke-opacity:1;stroke-miterlimit:10;" d="M 6.100781 6.101563 L 6.100781 6.101563 M 6.100781 6.101563 L 11.100781 6.101563 C 11.073438 6.101563 11.05 6.125 11.05 6.152344 M 11.05 6.152344 L 11.05 2.152344 C 11.05 2.125 11.073438 2.101563 11.100781 2.101563 M 11.100781 2.101563 L 23.100781 2.101563 C 23.128125 2.101563 23.151563 2.125 23.151563 2.152344 M 23.151563 2.152344 L 23.151563 6.152344 C 23.151563 6.125 23.128125 6.101563 23.100781 6.101563 M 23.100781 6.101563 L 35.100781 6.101563 C 35.073438 6.101563 35.05 6.125 35.05 6.152344 M 35.05 6.152344 L 35.05 2.152344 C 35.05 2.125 35.073438 2.101563 35.100781 2.101563 M 35.100781 2.101563 L 47.100781 2.101563 C 47.128125 2.101563 47.151563 2.125 47.151563 2.152344 M 47.151563 2.152344 L 47.151563 6.152344 C 47.151563 6.125 47.128125 6.101563 47.100781 6.101563 M 47.100781 6.101563 L 59.100781 6.101563 C 59.073438 6.101563 59.05 6.125 59.05 6.152344 M 59.05 6.152344 L 59.05 2.152344 C 59.05 2.125 59.073438 2.101563 59.100781 2.101563 M 59.100781 2.101563 L 71.100781 2.101563 C 71.128125 2.101563 71.151563 2.125 71.151563 2.152344 M 71.151563 2.152344 L 71.151563 6.152344 C 71.151563 6.125 71.128125 6.101563 71.100781 6.101563 M 71.100781 6.101563 L 76.100781 6.101563 M 76.100781 6.101563 L 78.100781 6.101563 M 78.100781 6.101563 L 80.100781 6.101563 M 80.100781 6.101563 L 88.100781 6.101563 C 88.073438 6.101563 88.05 6.125 88.05 6.152344 M 88.05 6.152344 L 88.05 2.152344 C 88.05 2.125 88.073438 2.101563 88.100781 2.101563 M 88.100781 2.101563 L 100.100781 2.101563 C 100.128125 2.101563 100.151563 2.125 100.151563 2.152344 M 100.151563 2.152344 L 100.151563 6.152344 C 100.151563 6.125 100.128125 6.101563 100.100781 6.101563 M 100.100781 6.101563 L 112.100781 6.101563 C 112.073438 6.101563 112.05 6.125 112.05 6.152344 M 112.05 6.152344 L 112.05 2.152344 C 112.05 2.125 112.073438 2.101563 112.100781 2.101563 M 112.100781 2.101563 L 124.100781 2.101563 C 124.128125 2.101563 124.151563 2.125 124.151563 2.152344 M 124.151563 2.152344 L 124.151563 6.152344 C 124.151563 6.125 124.128125 6.101563 124.100781 6.101563 M 124.100781 6.101563 L 136.100781 6.101563 C 136.073438 6.101563 136.05 6.125 136.05 6.152344 M 136.05 6.152344 L 136.05 2.152344 C 136.05 2.125 136.073438 2.101563 136.100781 2.101563 M 136.100781 2.101563 L 148.100781 2.101563 C 148.128125 2.101563 148.151563 2.125 148.151563 2.152344 M 148.151563 2.152344 L 148.151563 6.152344 C 148.151563 6.125 148.128125 6.101563 148.100781 6.101563 M 148.100781 6.101563 L 160.100781 6.101563 C 160.073438 6.101563 160.05 6.125 160.05 6.152344 M 160.05 6.152344 L 160.05 2.152344 C 160.05 2.125 160.073438 2.101563 160.100781 2.101563 M 160.100781 2.101563 L 172.100781 2.101563 C 172.128125 2.101563 172.151563 2.125 172.151563 2.152344 M 172.151563 2.152344 L 172.151563 6.152344 C 172.151563 6.125 172.128125 6.101563 172.100781 6.101563 M 172.100781 6.101563 L 180.100781 6.101563 M 180.100781 6.101563 L 182.100781 6.101563 M 182.100781 6.101563 L 184.100781 6.101563 M 184.100781 6.101563 L 189.100781 6.101563 C 189.073438 6.101563 189.05 6.125 189.05 6.152344 M 189.05 6.152344 L 189.05 2.152344 C 189.05 2.125 189.073438 2.101563 189.100781 2.101563 M 189.100781 2.101563 L 201.100781 2.101563 C 201.128125 2.101563 201.151563 2.125 201.151563 2.152344 M 201.151563 2.152344 L 201.151563 6.152344 C 201.151563 6.125 201.128125 6.101563 201.100781 6.101563 M 201.100781 6.101563 L 213.100781 6.101563 C 213.073438 6.101563 213.05 6.125 213.05 6.152344 M 213.05 6.152344 L 213.05 2.152344 C 213.05 2.125 213.073438 2.101563 213.100781 2.101563 M 213.100781 2.101563 L 225.100781 2.101563 C 225.128125 2.101563 225.151563 2.125 225.151563 2.152344 M 225.151563 2.152344 L 225.151563 6.152344 C 225.151563 6.125 225.128125 6.101563 225.100781 6.101563 M 225.100781 6.101563 L 237.100781 6.101563 C 237.073438 6.101563 237.05 6.125 237.05 6.152344 M 237.05 6.152344 L 237.05 2.152344 C 237.05 2.125 237.073438 2.101563 237.100781 2.101563 M 237.100781 2.101563 L 249.100781 2.101563 C 249.128125 2.101563 249.151563 2.125 249.151563 2.152344 M 249.151563 2.152344 L 249.151563 6.152344 C 249.151563 6.125 249.128125 6.101563 249.100781 6.101563 M 249.100781 6.101563 L 254.100781 6.101563 M 254.100781 6.101563 C 254.128125 6.101563 254.151563 6.125 254.151563 6.152344 M 254.151563 6.152344 L 254.151563 6.152344 M 254.151563 6.152344 L 254.151563 13.152344 C 254.151563 13.125 254.128125 13.101563 254.100781 13.101563 M 254.100781 13.101563 L 258.100781 13.101563 C 258.128125 13.101563 258.151563 13.125 258.151563 13.152344 M 258.151563 13.152344 L 258.151563 25.152344 C 258.151563 25.179688 258.128125 25.203125 258.100781 25.203125 M 258.100781 25.203125 L 254.100781 25.203125 C 254.128125 25.203125 254.151563 25.179688 254.151563 25.152344 M 254.151563 25.152344 L 254.151563 37.152344 C 254.151563 37.125 254.128125 37.101563 254.100781 37.101563 M 254.100781 37.101563 L 258.100781 37.101563 C 258.128125 37.101563 258.151563 37.125 258.151563 37.152344 M 258.151563 37.152344 L 258.151563 49.152344 C 258.151563 49.179688 258.128125 49.203125 258.100781 49.203125 M 258.100781 49.203125 L 254.100781 49.203125 C 254.128125 49.203125 254.151563 49.179688 254.151563 49.152344 M 254.151563 49.152344 L 254.151563 56.152344 M 254.151563 56.152344 C 254.151563 56.179688 254.128125 56.203125 254.100781 56.203125 M 254.100781 56.203125 L 254.100781 56.203125 M 254.100781 56.203125 L 184.100781 56.203125 C 184.073438 56.203125 184.05 56.179688 184.05 56.152344 M 184.05 56.152344 L 184.05 31.152344 C 184.05 31.179688 184.073438 31.203125 184.100781 31.203125 M 184.100781 31.203125 L 180.100781 31.203125 C 180.128125 31.203125 180.151563 31.179688 180.151563 31.152344 M 180.151563 31.152344 L 180.151563 56.152344 C 180.151563 56.179688 180.128125 56.203125 180.100781 56.203125 M 180.100781 56.203125 L 80.100781 56.203125 C 80.073438 56.203125 80.05 56.179688 80.05 56.152344 M 80.05 56.152344 L 80.05 31.152344 C 80.05 31.179688 80.073438 31.203125 80.100781 31.203125 M 80.100781 31.203125 L 76.100781 31.203125 C 76.128125 31.203125 76.151563 31.179688 76.151563 31.152344 M 76.151563 31.152344 L 76.151563 56.152344 C 76.151563 56.179688 76.128125 56.203125 76.100781 56.203125 M 76.100781 56.203125 L 6.100781 56.203125 M 6.100781 56.203125 C 6.073438 56.203125 6.05 56.179688 6.05 56.152344 M 6.05 56.152344 L 6.05 56.152344 M 6.05 56.152344 L 6.05 49.152344 C 6.05 49.179688 6.073438 49.203125 6.100781 49.203125 M 6.100781 49.203125 L 2.100781 49.203125 C 2.073438 49.203125 2.05 49.179688 2.05 49.152344 M 2.05 49.152344 L 2.05 37.152344 C 2.05 37.125 2.073438 37.101563 2.100781 37.101563 M 2.100781 37.101563 L 6.100781 37.101563 C 6.073438 37.101563 6.05 37.125 6.05 37.152344 M 6.05 37.152344 L 6.05 25.152344 C 6.05 25.179688 6.073438 25.203125 6.100781 25.203125 M 6.100781 25.203125 L 2.100781 25.203125 C 2.073438 25.203125 2.05 25.179688 2.05 25.152344 M 2.05 25.152344 L 2.05 13.152344 C 2.05 13.125 2.073438 13.101563 2.100781 13.101563 M 2.100781 13.101563 L 6.100781 13.101563 C 6.073438 13.101563 6.05 13.125 6.05 13.152344 M 6.05 13.152344 L 6.05 6.152344 M 6.05 6.152344 C 6.05 6.125 6.073438 6.101563 6.100781 6.101563 " transform="matrix(1,0,0,-1,264.2,117)"/>
</g>
</svg>
