<?xml version='1.0' encoding='utf-8'?>
<svg height="233.60mm" viewBox="0.0 0.0 527.00 233.60" width="527.00mm" xmlns="http://www.w3.org/2000/svg" xmlns:cc="http://creativecommons.org/ns#" xmlns:dc="http://purl.org/dc/elements/1.1/" xmlns:inkscape="http://www.inkscape.org/namespaces/inkscape" xmlns:rdf="http://www.w3.org/1999/02/22-rdf-syntax-ns#" xmlns:svg="http://www.w3.org/2000/svg" xmlns:xlink="http://www.w3.org/1999/xlink">
<!--
UnevenHeightBox - Box with different height in each corner

Created with Boxes.py (https://festi.info/boxes.py)
Command line (remove spaces between dashes): boxes UnevenHeightBox
-->
<title>UnevenHeightBox</title>
<metadata>
<rdf:RDF><cc:Work>
<dc:title>Box - UnevenHeightBox</dc:title>
<dc:source>boxes UnevenHeightBox</dc:source>
<dc:description>Box with different height in each corner

Created with Boxes.py (https://festi.info/boxes.py)
Command line: boxes UnevenHeightBox
Command line short: boxes UnevenHeightBox
</dc:description>
</cc:Work></rdf:RDF></metadata>
<g id="p-0" style="fill:none;stroke-linecap:round;stroke-linejoin:round;">
  <path d="M 10.100 223.600 H 110.100 V 213.600 H 10.100 V 223.600 Z" stroke="rgb(0,0,0)" stroke-width="0.20" />
  <text dominant-baseline="hanging" font-size="6px" style="font-family: sans-serif ; font-weight: normal; font-style: normal; fill: rgb(255,0,0)" text-anchor="middle" transform="matrix( 1.000 0.000 0.000 1.000 60.100 215.600 )">100.0mm, burn:0.10mm</text>
</g>
<g id="p-1" style="fill:none;stroke-linecap:round;stroke-linejoin:round;">
  <path d="M 13.100 211.900 H 21.100 C 21.155 211.900 21.200 211.855 21.200 211.800 V 208.900 C 21.200 208.800 21.100 208.900 21.200 208.900 H 27.000 C 27.100 208.900 27.000 208.800 27.000 208.900 V 211.800 C 27.000 211.855 27.045 211.900 27.100 211.900 H 33.100 C 33.155 211.900 33.200 211.855 33.200 211.800 V 208.900 C 33.200 208.800 33.100 208.900 33.200 208.900 H 39.000 C 39.100 208.900 39.000 208.800 39.000 208.900 V 211.800 C 39.000 211.855 39.045 211.900 39.100 211.900 H 45.100 C 45.155 211.900 45.200 211.855 45.200 211.800 V 208.900 C 45.200 208.800 45.100 208.900 45.200 208.900 H 51.000 C 51.100 208.900 51.000 208.800 51.000 208.900 V 211.800 C 51.000 211.855 51.045 211.900 51.100 211.900 H 57.100 C 57.155 211.900 57.200 211.855 57.200 211.800 V 208.900 C 57.200 208.800 57.100 208.900 57.200 208.900 H 63.000 C 63.100 208.900 63.000 208.800 63.000 208.900 V 211.800 C 63.000 211.855 63.045 211.900 63.100 211.900 H 69.100 C 69.155 211.900 69.200 211.855 69.200 211.800 V 208.900 C 69.200 208.800 69.100 208.900 69.200 208.900 H 75.000 C 75.100 208.900 75.000 208.800 75.000 208.900 V 211.800 C 75.000 211.855 75.045 211.900 75.100 211.900 H 81.100 C 81.155 211.900 81.200 211.855 81.200 211.800 V 208.900 C 81.200 208.800 81.100 208.900 81.200 208.900 H 87.000 C 87.100 208.900 87.000 208.800 87.000 208.900 V 211.800 C 87.000 211.855 87.045 211.900 87.100 211.900 H 93.100 C 93.155 211.900 93.200 211.855 93.200 211.800 V 208.900 C 93.200 208.800 93.100 208.900 93.200 208.900 H 99.000 C 99.100 208.900 99.000 208.800 99.000 208.900 V 211.800 C 99.000 211.855 99.045 211.900 99.100 211.900 H 107.100 H 110.100 C 110.155 211.900 110.200 211.855 110.200 211.800 V 208.800 V 201.800 C 110.200 201.745 110.155 201.700 110.100 201.700 H 107.200 C 107.100 201.700 107.200 201.800 107.200 201.700 V 195.900 C 107.200 195.800 107.100 195.900 107.200 195.900 H 110.100 C 110.155 195.900 110.200 195.855 110.200 195.800 V 189.800 C 110.200 189.745 110.155 189.700 110.100 189.700 H 107.200 C 107.100 189.700 107.200 189.800 107.200 189.700 V 183.900 C 107.200 183.800 107.100 183.900 107.200 183.900 H 110.100 C 110.155 183.900 110.200 183.855 110.200 183.800 V 177.800 C 110.200 177.745 110.155 177.700 110.100 177.700 H 107.200 C 107.100 177.700 107.200 177.800 107.200 177.700 V 171.900 C 107.200 171.800 107.100 171.900 107.200 171.900 H 110.100 C 110.155 171.900 110.200 171.855 110.200 171.800 V 164.800 C 110.200 164.745 110.155 164.700 110.100 164.700 H 107.100 H 13.100 H 10.100 C 10.045 164.700 10.000 164.745 10.000 164.800 V 171.800 C 10.000 171.855 10.045 171.900 10.100 171.900 H 13.000 C 13.100 171.900 13.000 171.800 13.000 171.900 V 177.700 C 13.000 177.800 13.100 177.700 13.000 177.700 H 10.100 C 10.045 177.700 10.000 177.745 10.000 177.800 V 183.800 C 10.000 183.855 10.045 183.900 10.100 183.900 H 13.000 C 13.100 183.900 13.000 183.800 13.000 183.900 V 189.700 C 13.000 189.800 13.100 189.700 13.000 189.700 H 10.100 C 10.045 189.700 10.000 189.745 10.000 189.800 V 195.800 C 10.000 195.855 10.045 195.900 10.100 195.900 H 13.000 C 13.100 195.900 13.000 195.800 13.000 195.900 V 201.700 C 13.000 201.800 13.100 201.700 13.000 201.700 H 10.100 C 10.045 201.700 10.000 201.745 10.000 201.800 V 208.800 V 211.800 C 10.000 211.855 10.045 211.900 10.100 211.900 H 13.100 Z" stroke="rgb(0,0,0)" stroke-width="0.20" />
</g>
<g id="p-2" style="fill:none;stroke-linecap:round;stroke-linejoin:round;">
  <path d="M 114.800 211.900 H 122.800 C 122.855 211.900 122.900 211.855 122.900 211.800 V 208.900 C 122.900 208.800 122.800 208.900 122.900 208.900 H 128.700 C 128.800 208.900 128.700 208.800 128.700 208.900 V 211.800 C 128.700 211.855 128.745 211.900 128.800 211.900 H 134.800 C 134.855 211.900 134.900 211.855 134.900 211.800 V 208.900 C 134.900 208.800 134.800 208.900 134.900 208.900 H 140.700 C 140.800 208.900 140.700 208.800 140.700 208.900 V 211.800 C 140.700 211.855 140.745 211.900 140.800 211.900 H 146.800 C 146.855 211.900 146.900 211.855 146.900 211.800 V 208.900 C 146.900 208.800 146.800 208.900 146.900 208.900 H 152.700 C 152.800 208.900 152.700 208.800 152.700 208.900 V 211.800 C 152.700 211.855 152.745 211.900 152.800 211.900 H 158.800 C 158.855 211.900 158.900 211.855 158.900 211.800 V 208.900 C 158.900 208.800 158.800 208.900 158.900 208.900 H 164.700 C 164.800 208.900 164.700 208.800 164.700 208.900 V 211.800 C 164.700 211.855 164.745 211.900 164.800 211.900 H 170.800 C 170.855 211.900 170.900 211.855 170.900 211.800 V 208.900 C 170.900 208.800 170.800 208.900 170.900 208.900 H 176.700 C 176.800 208.900 176.700 208.800 176.700 208.900 V 211.800 C 176.700 211.855 176.745 211.900 176.800 211.900 H 182.800 C 182.855 211.900 182.900 211.855 182.900 211.800 V 208.900 C 182.900 208.800 182.800 208.900 182.900 208.900 H 188.700 C 188.800 208.900 188.700 208.800 188.700 208.900 V 211.800 C 188.700 211.855 188.745 211.900 188.800 211.900 H 194.800 C 194.855 211.900 194.900 211.855 194.900 211.800 V 208.900 C 194.900 208.800 194.800 208.900 194.900 208.900 H 200.700 C 200.800 208.900 200.700 208.800 200.700 208.900 V 211.800 C 200.700 211.855 200.745 211.900 200.800 211.900 H 208.800 C 208.855 211.900 208.900 211.855 208.900 211.800 V 208.800 V 200.900 C 208.900 200.800 208.800 200.900 208.900 200.900 H 211.800 C 211.855 200.900 211.900 200.855 211.900 200.800 V 194.800 C 211.900 194.745 211.855 194.700 211.800 194.700 H 208.900 C 208.800 194.700 208.900 194.800 208.900 194.700 V 188.900 C 208.900 188.800 208.800 188.900 208.900 188.900 H 211.800 C 211.855 188.900 211.900 188.855 211.900 188.800 V 182.800 C 211.900 182.745 211.855 182.700 211.800 182.700 H 208.900 C 208.800 182.700 208.900 182.800 208.900 182.700 V 176.900 C 208.900 176.800 208.800 176.900 208.900 176.900 H 211.800 C 211.855 176.900 211.900 176.855 211.900 176.800 V 170.800 C 211.900 170.745 211.855 170.700 211.800 170.700 H 208.900 C 208.800 170.700 208.900 170.800 208.900 170.700 V 164.900 C 208.900 164.800 208.800 164.900 208.900 164.900 H 211.800 C 211.855 164.900 211.900 164.855 211.900 164.800 V 158.800 C 211.900 158.745 211.855 158.700 211.800 158.700 H 208.900 C 208.800 158.700 208.900 158.800 208.900 158.700 V 152.900 C 208.900 152.800 208.800 152.900 208.900 152.900 H 211.800 C 211.855 152.900 211.900 152.855 211.900 152.800 V 146.800 C 211.900 146.745 211.855 146.700 211.800 146.700 H 208.900 C 208.800 146.700 208.900 146.800 208.900 146.700 V 140.900 C 208.900 140.800 208.800 140.900 208.900 140.900 H 211.800 C 211.855 140.900 211.900 140.855 211.900 140.800 V 134.800 C 211.900 134.745 211.855 134.700 211.800 134.700 H 208.900 C 208.800 134.700 208.900 134.800 208.900 134.700 V 128.900 C 208.900 128.800 208.800 128.900 208.900 128.900 H 211.800 C 211.855 128.900 211.900 128.855 211.900 128.800 V 122.800 C 211.900 122.745 211.855 122.700 211.800 122.700 H 208.900 C 208.800 122.700 208.900 122.800 208.900 122.700 V 114.800 C 208.900 114.745 208.855 114.700 208.800 114.700 C 208.784 114.700 208.767 114.704 208.753 114.712 L 114.753 164.712 C 114.767 164.704 114.784 164.700 114.800 164.700 C 114.745 164.700 114.700 164.745 114.700 164.800 V 171.700 C 114.700 171.800 114.800 171.700 114.700 171.700 H 111.800 C 111.745 171.700 111.700 171.745 111.700 171.800 V 177.800 C 111.700 177.855 111.745 177.900 111.800 177.900 H 114.700 C 114.800 177.900 114.700 177.800 114.700 177.900 V 183.700 C 114.700 183.800 114.800 183.700 114.700 183.700 H 111.800 C 111.745 183.700 111.700 183.745 111.700 183.800 V 189.800 C 111.700 189.855 111.745 189.900 111.800 189.900 H 114.700 C 114.800 189.900 114.700 189.800 114.700 189.900 V 195.700 C 114.700 195.800 114.800 195.700 114.700 195.700 H 111.800 C 111.745 195.700 111.700 195.745 111.700 195.800 V 201.800 C 111.700 201.855 111.745 201.900 111.800 201.900 H 114.700 C 114.800 201.900 114.700 201.800 114.700 201.900 V 208.800 V 211.800 C 114.700 211.855 114.745 211.900 114.800 211.900 Z" stroke="rgb(0,0,0)" stroke-width="0.20" />
</g>
<g id="p-3" style="fill:none;stroke-linecap:round;stroke-linejoin:round;">
  <path d="M 216.500 211.900 H 224.500 C 224.555 211.900 224.600 211.855 224.600 211.800 V 208.900 C 224.600 208.800 224.500 208.900 224.600 208.900 H 230.400 C 230.500 208.900 230.400 208.800 230.400 208.900 V 211.800 C 230.400 211.855 230.445 211.900 230.500 211.900 H 236.500 C 236.555 211.900 236.600 211.855 236.600 211.800 V 208.900 C 236.600 208.800 236.500 208.900 236.600 208.900 H 242.400 C 242.500 208.900 242.400 208.800 242.400 208.900 V 211.800 C 242.400 211.855 242.445 211.900 242.500 211.900 H 248.500 C 248.555 211.900 248.600 211.855 248.600 211.800 V 208.900 C 248.600 208.800 248.500 208.900 248.600 208.900 H 254.400 C 254.500 208.900 254.400 208.800 254.400 208.900 V 211.800 C 254.400 211.855 254.445 211.900 254.500 211.900 H 260.500 C 260.555 211.900 260.600 211.855 260.600 211.800 V 208.900 C 260.600 208.800 260.500 208.900 260.600 208.900 H 266.400 C 266.500 208.900 266.400 208.800 266.400 208.900 V 211.800 C 266.400 211.855 266.445 211.900 266.500 211.900 H 272.500 C 272.555 211.900 272.600 211.855 272.600 211.800 V 208.900 C 272.600 208.800 272.500 208.900 272.600 208.900 H 278.400 C 278.500 208.900 278.400 208.800 278.400 208.900 V 211.800 C 278.400 211.855 278.445 211.900 278.500 211.900 H 284.500 C 284.555 211.900 284.600 211.855 284.600 211.800 V 208.900 C 284.600 208.800 284.500 208.900 284.600 208.900 H 290.400 C 290.500 208.900 290.400 208.800 290.400 208.900 V 211.800 C 290.400 211.855 290.445 211.900 290.500 211.900 H 296.500 C 296.555 211.900 296.600 211.855 296.600 211.800 V 208.900 C 296.600 208.800 296.500 208.900 296.600 208.900 H 302.400 C 302.500 208.900 302.400 208.800 302.400 208.900 V 211.800 C 302.400 211.855 302.445 211.900 302.500 211.900 H 310.500 H 313.500 C 313.555 211.900 313.600 211.855 313.600 211.800 V 208.800 V 200.800 C 313.600 200.745 313.555 200.700 313.500 200.700 H 310.600 C 310.500 200.700 310.600 200.800 310.600 200.700 V 194.900 C 310.600 194.800 310.500 194.900 310.600 194.900 H 313.500 C 313.555 194.900 313.600 194.855 313.600 194.800 V 188.800 C 313.600 188.745 313.555 188.700 313.500 188.700 H 310.600 C 310.500 188.700 310.600 188.800 310.600 188.700 V 182.900 C 310.600 182.800 310.500 182.900 310.600 182.900 H 313.500 C 313.555 182.900 313.600 182.855 313.600 182.800 V 176.800 C 313.600 176.745 313.555 176.700 313.500 176.700 H 310.600 C 310.500 176.700 310.600 176.800 310.600 176.700 V 170.900 C 310.600 170.800 310.500 170.900 310.600 170.900 H 313.500 C 313.555 170.900 313.600 170.855 313.600 170.800 V 164.800 C 313.600 164.745 313.555 164.700 313.500 164.700 H 310.600 C 310.500 164.700 310.600 164.800 310.600 164.700 V 158.900 C 310.600 158.800 310.500 158.900 310.600 158.900 H 313.500 C 313.555 158.900 313.600 158.855 313.600 158.800 V 152.800 C 313.600 152.745 313.555 152.700 313.500 152.700 H 310.600 C 310.500 152.700 310.600 152.800 310.600 152.700 V 146.900 C 310.600 146.800 310.500 146.900 310.600 146.900 H 313.500 C 313.555 146.900 313.600 146.855 313.600 146.800 V 140.800 C 313.600 140.745 313.555 140.700 313.500 140.700 H 310.600 C 310.500 140.700 310.600 140.800 310.600 140.700 V 134.900 C 310.600 134.800 310.500 134.900 310.600 134.900 H 313.500 C 313.555 134.900 313.600 134.855 313.600 134.800 V 128.800 C 313.600 128.745 313.555 128.700 313.500 128.700 H 310.600 C 310.500 128.700 310.600 128.800 310.600 128.700 V 122.900 C 310.600 122.800 310.500 122.900 310.600 122.900 H 313.500 C 313.555 122.900 313.600 122.855 313.600 122.800 V 114.800 C 313.600 114.745 313.555 114.700 313.500 114.700 H 310.500 H 216.500 H 213.500 C 213.445 114.700 213.400 114.745 213.400 114.800 V 122.800 C 213.400 122.855 213.445 122.900 213.500 122.900 H 216.400 C 216.500 122.900 216.400 122.800 216.400 122.900 V 128.700 C 216.400 128.800 216.500 128.700 216.400 128.700 H 213.500 C 213.445 128.700 213.400 128.745 213.400 128.800 V 134.800 C 213.400 134.855 213.445 134.900 213.500 134.900 H 216.400 C 216.500 134.900 216.400 134.800 216.400 134.900 V 140.700 C 216.400 140.800 216.500 140.700 216.400 140.700 H 213.500 C 213.445 140.700 213.400 140.745 213.400 140.800 V 146.800 C 213.400 146.855 213.445 146.900 213.500 146.900 H 216.400 C 216.500 146.900 216.400 146.800 216.400 146.900 V 152.700 C 216.400 152.800 216.500 152.700 216.400 152.700 H 213.500 C 213.445 152.700 213.400 152.745 213.400 152.800 V 158.800 C 213.400 158.855 213.445 158.900 213.500 158.900 H 216.400 C 216.500 158.900 216.400 158.800 216.400 158.900 V 164.700 C 216.400 164.800 216.500 164.700 216.400 164.700 H 213.500 C 213.445 164.700 213.400 164.745 213.400 164.800 V 170.800 C 213.400 170.855 213.445 170.900 213.500 170.900 H 216.400 C 216.500 170.900 216.400 170.800 216.400 170.900 V 176.700 C 216.400 176.800 216.500 176.700 216.400 176.700 H 213.500 C 213.445 176.700 213.400 176.745 213.400 176.800 V 182.800 C 213.400 182.855 213.445 182.900 213.500 182.900 H 216.400 C 216.500 182.900 216.400 182.800 216.400 182.900 V 188.700 C 216.400 188.800 216.500 188.700 216.400 188.700 H 213.500 C 213.445 188.700 213.400 188.745 213.400 188.800 V 194.800 C 213.400 194.855 213.445 194.900 213.500 194.900 H 216.400 C 216.500 194.900 216.400 194.800 216.400 194.900 V 200.700 C 216.400 200.800 216.500 200.700 216.400 200.700 H 213.500 C 213.445 200.700 213.400 200.745 213.400 200.800 V 208.800 V 211.800 C 213.400 211.855 213.445 211.900 213.500 211.900 H 216.500 Z" stroke="rgb(0,0,0)" stroke-width="0.20" />
</g>
<g id="p-4" style="fill:none;stroke-linecap:round;stroke-linejoin:round;">
  <path d="M 318.200 211.900 H 326.200 C 326.255 211.900 326.300 211.855 326.300 211.800 V 208.900 C 326.300 208.800 326.200 208.900 326.300 208.900 H 332.100 C 332.200 208.900 332.100 208.800 332.100 208.900 V 211.800 C 332.100 211.855 332.145 211.900 332.200 211.900 H 338.200 C 338.255 211.900 338.300 211.855 338.300 211.800 V 208.900 C 338.300 208.800 338.200 208.900 338.300 208.900 H 344.100 C 344.200 208.900 344.100 208.800 344.100 208.900 V 211.800 C 344.100 211.855 344.145 211.900 344.200 211.900 H 350.200 C 350.255 211.900 350.300 211.855 350.300 211.800 V 208.900 C 350.300 208.800 350.200 208.900 350.300 208.900 H 356.100 C 356.200 208.900 356.100 208.800 356.100 208.900 V 211.800 C 356.100 211.855 356.145 211.900 356.200 211.900 H 362.200 C 362.255 211.900 362.300 211.855 362.300 211.800 V 208.900 C 362.300 208.800 362.200 208.900 362.300 208.900 H 368.100 C 368.200 208.900 368.100 208.800 368.100 208.900 V 211.800 C 368.100 211.855 368.145 211.900 368.200 211.900 H 374.200 C 374.255 211.900 374.300 211.855 374.300 211.800 V 208.900 C 374.300 208.800 374.200 208.900 374.300 208.900 H 380.100 C 380.200 208.900 380.100 208.800 380.100 208.900 V 211.800 C 380.100 211.855 380.145 211.900 380.200 211.900 H 386.200 C 386.255 211.900 386.300 211.855 386.300 211.800 V 208.900 C 386.300 208.800 386.200 208.900 386.300 208.900 H 392.100 C 392.200 208.900 392.100 208.800 392.100 208.900 V 211.800 C 392.100 211.855 392.145 211.900 392.200 211.900 H 398.200 C 398.255 211.900 398.300 211.855 398.300 211.800 V 208.900 C 398.300 208.800 398.200 208.900 398.300 208.900 H 404.100 C 404.200 208.900 404.100 208.800 404.100 208.900 V 211.800 C 404.100 211.855 404.145 211.900 404.200 211.900 H 412.200 C 412.255 211.900 412.300 211.855 412.300 211.800 V 208.800 V 201.900 C 412.300 201.800 412.200 201.900 412.300 201.900 H 415.200 C 415.255 201.900 415.300 201.855 415.300 201.800 V 195.800 C 415.300 195.745 415.255 195.700 415.200 195.700 H 412.300 C 412.200 195.700 412.300 195.800 412.300 195.700 V 189.900 C 412.300 189.800 412.200 189.900 412.300 189.900 H 415.200 C 415.255 189.900 415.300 189.855 415.300 189.800 V 183.800 C 415.300 183.745 415.255 183.700 415.200 183.700 H 412.300 C 412.200 183.700 412.300 183.800 412.300 183.700 V 177.900 C 412.300 177.800 412.200 177.900 412.300 177.900 H 415.200 C 415.255 177.900 415.300 177.855 415.300 177.800 V 171.800 C 415.300 171.745 415.255 171.700 415.200 171.700 H 412.300 C 412.200 171.700 412.300 171.800 412.300 171.700 V 164.800 C 412.300 164.745 412.255 164.700 412.200 164.700 C 412.216 164.700 412.233 164.704 412.247 164.712 L 318.247 114.712 C 318.233 114.704 318.216 114.700 318.200 114.700 C 318.145 114.700 318.100 114.745 318.100 114.800 V 122.700 C 318.100 122.800 318.200 122.700 318.100 122.700 H 315.200 C 315.145 122.700 315.100 122.745 315.100 122.800 V 128.800 C 315.100 128.855 315.145 128.900 315.200 128.900 H 318.100 C 318.200 128.900 318.100 128.800 318.100 128.900 V 134.700 C 318.100 134.800 318.200 134.700 318.100 134.700 H 315.200 C 315.145 134.700 315.100 134.745 315.100 134.800 V 140.800 C 315.100 140.855 315.145 140.900 315.200 140.900 H 318.100 C 318.200 140.900 318.100 140.800 318.100 140.900 V 146.700 C 318.100 146.800 318.200 146.700 318.100 146.700 H 315.200 C 315.145 146.700 315.100 146.745 315.100 146.800 V 152.800 C 315.100 152.855 315.145 152.900 315.200 152.900 H 318.100 C 318.200 152.900 318.100 152.800 318.100 152.900 V 158.700 C 318.100 158.800 318.200 158.700 318.100 158.700 H 315.200 C 315.145 158.700 315.100 158.745 315.100 158.800 V 164.800 C 315.100 164.855 315.145 164.900 315.200 164.900 H 318.100 C 318.200 164.900 318.100 164.800 318.100 164.900 V 170.700 C 318.100 170.800 318.200 170.700 318.100 170.700 H 315.200 C 315.145 170.700 315.100 170.745 315.100 170.800 V 176.800 C 315.100 176.855 315.145 176.900 315.200 176.900 H 318.100 C 318.200 176.900 318.100 176.800 318.100 176.900 V 182.700 C 318.100 182.800 318.200 182.700 318.100 182.700 H 315.200 C 315.145 182.700 315.100 182.745 315.100 182.800 V 188.800 C 315.100 188.855 315.145 188.900 315.200 188.900 H 318.100 C 318.200 188.900 318.100 188.800 318.100 188.900 V 194.700 C 318.100 194.800 318.200 194.700 318.100 194.700 H 315.200 C 315.145 194.700 315.100 194.745 315.100 194.800 V 200.800 C 315.100 200.855 315.145 200.900 315.200 200.900 H 318.100 C 318.200 200.900 318.100 200.800 318.100 200.900 V 208.800 V 211.800 C 318.100 211.855 318.145 211.900 318.200 211.900 Z" stroke="rgb(0,0,0)" stroke-width="0.20" />
</g>
<g id="p-5" style="fill:none;stroke-linecap:round;stroke-linejoin:round;">
  <path d="M 419.900 208.900 H 427.800 C 427.900 208.900 427.800 208.800 427.800 208.900 V 211.800 C 427.800 211.855 427.845 211.900 427.900 211.900 H 433.900 C 433.955 211.900 434.000 211.855 434.000 211.800 V 208.900 C 434.000 208.800 433.900 208.900 434.000 208.900 H 439.800 C 439.900 208.900 439.800 208.800 439.800 208.900 V 211.800 C 439.800 211.855 439.845 211.900 439.900 211.900 H 445.900 C 445.955 211.900 446.000 211.855 446.000 211.800 V 208.900 C 446.000 208.800 445.900 208.900 446.000 208.900 H 451.800 C 451.900 208.900 451.800 208.800 451.800 208.900 V 211.800 C 451.800 211.855 451.845 211.900 451.900 211.900 H 457.900 C 457.955 211.900 458.000 211.855 458.000 211.800 V 208.900 C 458.000 208.800 457.900 208.900 458.000 208.900 H 463.800 C 463.900 208.900 463.800 208.800 463.800 208.900 V 211.800 C 463.800 211.855 463.845 211.900 463.900 211.900 H 469.900 C 469.955 211.900 470.000 211.855 470.000 211.800 V 208.900 C 470.000 208.800 469.900 208.900 470.000 208.900 H 475.800 C 475.900 208.900 475.800 208.800 475.800 208.900 V 211.800 C 475.800 211.855 475.845 211.900 475.900 211.900 H 481.900 C 481.955 211.900 482.000 211.855 482.000 211.800 V 208.900 C 482.000 208.800 481.900 208.900 482.000 208.900 H 487.800 C 487.900 208.900 487.800 208.800 487.800 208.900 V 211.800 C 487.800 211.855 487.845 211.900 487.900 211.900 H 493.900 C 493.955 211.900 494.000 211.855 494.000 211.800 V 208.900 C 494.000 208.800 493.900 208.900 494.000 208.900 H 499.800 C 499.900 208.900 499.800 208.800 499.800 208.900 V 211.800 C 499.800 211.855 499.845 211.900 499.900 211.900 H 505.900 C 505.955 211.900 506.000 211.855 506.000 211.800 V 208.900 C 506.000 208.800 505.900 208.900 506.000 208.900 H 513.900 C 513.955 208.900 514.000 208.855 514.000 208.800 V 200.900 C 514.000 200.800 513.900 200.900 514.000 200.900 H 516.900 C 516.955 200.900 517.000 200.855 517.000 200.800 V 194.800 C 517.000 194.745 516.955 194.700 516.900 194.700 H 514.000 C 513.900 194.700 514.000 194.800 514.000 194.700 V 188.900 C 514.000 188.800 513.900 188.900 514.000 188.900 H 516.900 C 516.955 188.900 517.000 188.855 517.000 188.800 V 182.800 C 517.000 182.745 516.955 182.700 516.900 182.700 H 514.000 C 513.900 182.700 514.000 182.800 514.000 182.700 V 176.900 C 514.000 176.800 513.900 176.900 514.000 176.900 H 516.900 C 516.955 176.900 517.000 176.855 517.000 176.800 V 170.800 C 517.000 170.745 516.955 170.700 516.900 170.700 H 514.000 C 513.900 170.700 514.000 170.800 514.000 170.700 V 164.900 C 514.000 164.800 513.900 164.900 514.000 164.900 H 516.900 C 516.955 164.900 517.000 164.855 517.000 164.800 V 158.800 C 517.000 158.745 516.955 158.700 516.900 158.700 H 514.000 C 513.900 158.700 514.000 158.800 514.000 158.700 V 152.900 C 514.000 152.800 513.900 152.900 514.000 152.900 H 516.900 C 516.955 152.900 517.000 152.855 517.000 152.800 V 146.800 C 517.000 146.745 516.955 146.700 516.900 146.700 H 514.000 C 513.900 146.700 514.000 146.800 514.000 146.700 V 140.900 C 514.000 140.800 513.900 140.900 514.000 140.900 H 516.900 C 516.955 140.900 517.000 140.855 517.000 140.800 V 134.800 C 517.000 134.745 516.955 134.700 516.900 134.700 H 514.000 C 513.900 134.700 514.000 134.800 514.000 134.700 V 128.900 C 514.000 128.800 513.900 128.900 514.000 128.900 H 516.900 C 516.955 128.900 517.000 128.855 517.000 128.800 V 122.800 C 517.000 122.745 516.955 122.700 516.900 122.700 H 514.000 C 513.900 122.700 514.000 122.800 514.000 122.700 V 114.800 C 514.000 114.745 513.955 114.700 513.900 114.700 H 506.000 C 505.900 114.700 506.000 114.800 506.000 114.700 V 111.800 C 506.000 111.745 505.955 111.700 505.900 111.700 H 499.900 C 499.845 111.700 499.800 111.745 499.800 111.800 V 114.700 C 499.800 114.800 499.900 114.700 499.800 114.700 H 494.000 C 493.900 114.700 494.000 114.800 494.000 114.700 V 111.800 C 494.000 111.745 493.955 111.700 493.900 111.700 H 487.900 C 487.845 111.700 487.800 111.745 487.800 111.800 V 114.700 C 487.800 114.800 487.900 114.700 487.800 114.700 H 482.000 C 481.900 114.700 482.000 114.800 482.000 114.700 V 111.800 C 482.000 111.745 481.955 111.700 481.900 111.700 H 475.900 C 475.845 111.700 475.800 111.745 475.800 111.800 V 114.700 C 475.800 114.800 475.900 114.700 475.800 114.700 H 470.000 C 469.900 114.700 470.000 114.800 470.000 114.700 V 111.800 C 470.000 111.745 469.955 111.700 469.900 111.700 H 463.900 C 463.845 111.700 463.800 111.745 463.800 111.800 V 114.700 C 463.800 114.800 463.900 114.700 463.800 114.700 H 458.000 C 457.900 114.700 458.000 114.800 458.000 114.700 V 111.800 C 458.000 111.745 457.955 111.700 457.900 111.700 H 451.900 C 451.845 111.700 451.800 111.745 451.800 111.800 V 114.700 C 451.800 114.800 451.900 114.700 451.800 114.700 H 446.000 C 445.900 114.700 446.000 114.800 446.000 114.700 V 111.800 C 446.000 111.745 445.955 111.700 445.900 111.700 H 439.900 C 439.845 111.700 439.800 111.745 439.800 111.800 V 114.700 C 439.800 114.800 439.900 114.700 439.800 114.700 H 434.000 C 433.900 114.700 434.000 114.800 434.000 114.700 V 111.800 C 434.000 111.745 433.955 111.700 433.900 111.700 H 427.900 C 427.845 111.700 427.800 111.745 427.800 111.800 V 114.700 C 427.800 114.800 427.900 114.700 427.800 114.700 H 419.900 C 419.845 114.700 419.800 114.745 419.800 114.800 V 122.700 C 419.800 122.800 419.900 122.700 419.800 122.700 H 416.900 C 416.845 122.700 416.800 122.745 416.800 122.800 V 128.800 C 416.800 128.855 416.845 128.900 416.900 128.900 H 419.800 C 419.900 128.900 419.800 128.800 419.800 128.900 V 134.700 C 419.800 134.800 419.900 134.700 419.800 134.700 H 416.900 C 416.845 134.700 416.800 134.745 416.800 134.800 V 140.800 C 416.800 140.855 416.845 140.900 416.900 140.900 H 419.800 C 419.900 140.900 419.800 140.800 419.800 140.900 V 146.700 C 419.800 146.800 419.900 146.700 419.800 146.700 H 416.900 C 416.845 146.700 416.800 146.745 416.800 146.800 V 152.800 C 416.800 152.855 416.845 152.900 416.900 152.900 H 419.800 C 419.900 152.900 419.800 152.800 419.800 152.900 V 158.700 C 419.800 158.800 419.900 158.700 419.800 158.700 H 416.900 C 416.845 158.700 416.800 158.745 416.800 158.800 V 164.800 C 416.800 164.855 416.845 164.900 416.900 164.900 H 419.800 C 419.900 164.900 419.800 164.800 419.800 164.900 V 170.700 C 419.800 170.800 419.900 170.700 419.800 170.700 H 416.900 C 416.845 170.700 416.800 170.745 416.800 170.800 V 176.800 C 416.800 176.855 416.845 176.900 416.900 176.900 H 419.800 C 419.900 176.900 419.800 176.800 419.800 176.900 V 182.700 C 419.800 182.800 419.900 182.700 419.800 182.700 H 416.900 C 416.845 182.700 416.800 182.745 416.800 182.800 V 188.800 C 416.800 188.855 416.845 188.900 416.900 188.900 H 419.800 C 419.900 188.900 419.800 188.800 419.800 188.900 V 194.700 C 419.800 194.800 419.900 194.700 419.800 194.700 H 416.900 C 416.845 194.700 416.800 194.745 416.800 194.800 V 200.800 C 416.800 200.855 416.845 200.900 416.900 200.900 H 419.800 C 419.900 200.900 419.800 200.800 419.800 200.900 V 208.800 C 419.800 208.855 419.845 208.900 419.900 208.900 Z" stroke="rgb(0,0,0)" stroke-width="0.20" />
</g>
<g id="p-6" style="fill:none;stroke-linecap:round;stroke-linejoin:round;">
  <path d="M 419.900 107.200 H 427.800 C 427.900 107.200 427.800 107.100 427.800 107.200 V 110.100 C 427.800 110.155 427.845 110.200 427.900 110.200 H 433.900 C 433.955 110.200 434.000 110.155 434.000 110.100 V 107.200 C 434.000 107.100 433.900 107.200 434.000 107.200 H 439.800 C 439.900 107.200 439.800 107.100 439.800 107.200 V 110.100 C 439.800 110.155 439.845 110.200 439.900 110.200 H 445.900 C 445.955 110.200 446.000 110.155 446.000 110.100 V 107.200 C 446.000 107.100 445.900 107.200 446.000 107.200 H 451.800 C 451.900 107.200 451.800 107.100 451.800 107.200 V 110.100 C 451.800 110.155 451.845 110.200 451.900 110.200 H 457.900 C 457.955 110.200 458.000 110.155 458.000 110.100 V 107.200 C 458.000 107.100 457.900 107.200 458.000 107.200 H 463.800 C 463.900 107.200 463.800 107.100 463.800 107.200 V 110.100 C 463.800 110.155 463.845 110.200 463.900 110.200 H 469.900 C 469.955 110.200 470.000 110.155 470.000 110.100 V 107.200 C 470.000 107.100 469.900 107.200 470.000 107.200 H 475.800 C 475.900 107.200 475.800 107.100 475.800 107.200 V 110.100 C 475.800 110.155 475.845 110.200 475.900 110.200 H 481.900 C 481.955 110.200 482.000 110.155 482.000 110.100 V 107.200 C 482.000 107.100 481.900 107.200 482.000 107.200 H 487.800 C 487.900 107.200 487.800 107.100 487.800 107.200 V 110.100 C 487.800 110.155 487.845 110.200 487.900 110.200 H 493.900 C 493.955 110.200 494.000 110.155 494.000 110.100 V 107.200 C 494.000 107.100 493.900 107.200 494.000 107.200 H 499.800 C 499.900 107.200 499.800 107.100 499.800 107.200 V 110.100 C 499.800 110.155 499.845 110.200 499.900 110.200 H 505.900 C 505.955 110.200 506.000 110.155 506.000 110.100 V 107.200 C 506.000 107.100 505.900 107.200 506.000 107.200 H 513.900 C 513.955 107.200 514.000 107.155 514.000 107.100 V 99.200 C 514.000 99.100 513.900 99.200 514.000 99.200 H 516.900 C 516.955 99.200 517.000 99.155 517.000 99.100 V 93.100 C 517.000 93.045 516.955 93.000 516.900 93.000 H 514.000 C 513.900 93.000 514.000 93.100 514.000 93.000 V 87.200 C 514.000 87.100 513.900 87.200 514.000 87.200 H 516.900 C 516.955 87.200 517.000 87.155 517.000 87.100 V 81.100 C 517.000 81.045 516.955 81.000 516.900 81.000 H 514.000 C 513.900 81.000 514.000 81.100 514.000 81.000 V 75.200 C 514.000 75.100 513.900 75.200 514.000 75.200 H 516.900 C 516.955 75.200 517.000 75.155 517.000 75.100 V 69.100 C 517.000 69.045 516.955 69.000 516.900 69.000 H 514.000 C 513.900 69.000 514.000 69.100 514.000 69.000 V 63.200 C 514.000 63.100 513.900 63.200 514.000 63.200 H 516.900 C 516.955 63.200 517.000 63.155 517.000 63.100 V 57.100 C 517.000 57.045 516.955 57.000 516.900 57.000 H 514.000 C 513.900 57.000 514.000 57.100 514.000 57.000 V 51.200 C 514.000 51.100 513.900 51.200 514.000 51.200 H 516.900 C 516.955 51.200 517.000 51.155 517.000 51.100 V 45.100 C 517.000 45.045 516.955 45.000 516.900 45.000 H 514.000 C 513.900 45.000 514.000 45.100 514.000 45.000 V 39.200 C 514.000 39.100 513.900 39.200 514.000 39.200 H 516.900 C 516.955 39.200 517.000 39.155 517.000 39.100 V 33.100 C 517.000 33.045 516.955 33.000 516.900 33.000 H 514.000 C 513.900 33.000 514.000 33.100 514.000 33.000 V 27.200 C 514.000 27.100 513.900 27.200 514.000 27.200 H 516.900 C 516.955 27.200 517.000 27.155 517.000 27.100 V 21.100 C 517.000 21.045 516.955 21.000 516.900 21.000 H 514.000 C 513.900 21.000 514.000 21.100 514.000 21.000 V 13.100 V 10.100 C 514.000 10.045 513.955 10.000 513.900 10.000 H 419.900 C 419.845 10.000 419.800 10.045 419.800 10.100 V 13.100 V 21.000 C 419.800 21.100 419.900 21.000 419.800 21.000 H 416.900 C 416.845 21.000 416.800 21.045 416.800 21.100 V 27.100 C 416.800 27.155 416.845 27.200 416.900 27.200 H 419.800 C 419.900 27.200 419.800 27.100 419.800 27.200 V 33.000 C 419.800 33.100 419.900 33.000 419.800 33.000 H 416.900 C 416.845 33.000 416.800 33.045 416.800 33.100 V 39.100 C 416.800 39.155 416.845 39.200 416.900 39.200 H 419.800 C 419.900 39.200 419.800 39.100 419.800 39.200 V 45.000 C 419.800 45.100 419.900 45.000 419.800 45.000 H 416.900 C 416.845 45.000 416.800 45.045 416.800 45.100 V 51.100 C 416.800 51.155 416.845 51.200 416.900 51.200 H 419.800 C 419.900 51.200 419.800 51.100 419.800 51.200 V 57.000 C 419.800 57.100 419.900 57.000 419.800 57.000 H 416.900 C 416.845 57.000 416.800 57.045 416.800 57.100 V 63.100 C 416.800 63.155 416.845 63.200 416.900 63.200 H 419.800 C 419.900 63.200 419.800 63.100 419.800 63.200 V 69.000 C 419.800 69.100 419.900 69.000 419.800 69.000 H 416.900 C 416.845 69.000 416.800 69.045 416.800 69.100 V 75.100 C 416.800 75.155 416.845 75.200 416.900 75.200 H 419.800 C 419.900 75.200 419.800 75.100 419.800 75.200 V 81.000 C 419.800 81.100 419.900 81.000 419.800 81.000 H 416.900 C 416.845 81.000 416.800 81.045 416.800 81.100 V 87.100 C 416.800 87.155 416.845 87.200 416.900 87.200 H 419.800 C 419.900 87.200 419.800 87.100 419.800 87.200 V 93.000 C 419.800 93.100 419.900 93.000 419.800 93.000 H 416.900 C 416.845 93.000 416.800 93.045 416.800 93.100 V 99.100 C 416.800 99.155 416.845 99.200 416.900 99.200 H 419.800 C 419.900 99.200 419.800 99.100 419.800 99.200 V 107.100 C 419.800 107.155 419.845 107.200 419.900 107.200 Z" stroke="rgb(0,0,0)" stroke-width="0.20" />
</g>
<g id="p-7" style="fill:none;stroke-linecap:round;stroke-linejoin:round;">
  <path d="M 412.200 111.900 H 404.200 C 404.145 111.900 404.100 111.945 404.100 112.000 V 114.900 C 404.100 115.000 404.200 114.900 404.100 114.900 H 398.300 C 398.200 114.900 398.300 115.000 398.300 114.900 V 112.000 C 398.300 111.945 398.255 111.900 398.200 111.900 H 392.200 C 392.145 111.900 392.100 111.945 392.100 112.000 V 114.900 C 392.100 115.000 392.200 114.900 392.100 114.900 H 386.300 C 386.200 114.900 386.300 115.000 386.300 114.900 V 112.000 C 386.300 111.945 386.255 111.900 386.200 111.900 H 380.200 C 380.145 111.900 380.100 111.945 380.100 112.000 V 114.900 C 380.100 115.000 380.200 114.900 380.100 114.900 H 374.300 C 374.200 114.900 374.300 115.000 374.300 114.900 V 112.000 C 374.300 111.945 374.255 111.900 374.200 111.900 H 368.200 C 368.145 111.900 368.100 111.945 368.100 112.000 V 114.900 C 368.100 115.000 368.200 114.900 368.100 114.900 H 362.300 C 362.200 114.900 362.300 115.000 362.300 114.900 V 112.000 C 362.300 111.945 362.255 111.900 362.200 111.900 H 356.200 C 356.145 111.900 356.100 111.945 356.100 112.000 V 114.900 C 356.100 115.000 356.200 114.900 356.100 114.900 H 350.300 C 350.200 114.900 350.300 115.000 350.300 114.900 V 112.000 C 350.300 111.945 350.255 111.900 350.200 111.900 H 344.200 C 344.145 111.900 344.100 111.945 344.100 112.000 V 114.900 C 344.100 115.000 344.200 114.900 344.100 114.900 H 338.300 C 338.200 114.900 338.300 115.000 338.300 114.900 V 112.000 C 338.300 111.945 338.255 111.900 338.200 111.900 H 332.200 C 332.145 111.900 332.100 111.945 332.100 112.000 V 114.900 C 332.100 115.000 332.200 114.900 332.100 114.900 H 326.300 C 326.200 114.900 326.300 115.000 326.300 114.900 V 112.000 C 326.300 111.945 326.255 111.900 326.200 111.900 H 318.200 C 318.145 111.900 318.100 111.945 318.100 112.000 V 115.000 C 318.100 115.055 318.145 115.100 318.200 115.100 C 318.184 115.100 318.167 115.096 318.153 115.088 L 412.153 165.088 C 412.167 165.096 412.184 165.100 412.200 165.100 C 412.255 165.100 412.300 165.055 412.300 165.000 V 155.100 C 412.300 155.000 412.200 155.100 412.300 155.100 H 415.200 C 415.255 155.100 415.300 155.055 415.300 155.000 V 149.000 C 415.300 148.945 415.255 148.900 415.200 148.900 H 412.300 C 412.200 148.900 412.300 149.000 412.300 148.900 V 143.100 C 412.300 143.000 412.200 143.100 412.300 143.100 H 415.200 C 415.255 143.100 415.300 143.055 415.300 143.000 V 137.000 C 415.300 136.945 415.255 136.900 415.200 136.900 H 412.300 C 412.200 136.900 412.300 137.000 412.300 136.900 V 131.100 C 412.300 131.000 412.200 131.100 412.300 131.100 H 415.200 C 415.255 131.100 415.300 131.055 415.300 131.000 V 125.000 C 415.300 124.945 415.255 124.900 415.200 124.900 H 412.300 C 412.200 124.900 412.300 125.000 412.300 124.900 V 115.000 V 112.000 C 412.300 111.945 412.255 111.900 412.200 111.900 Z" stroke="rgb(0,0,0)" stroke-width="0.20" />
</g>
<g id="p-8" style="fill:none;stroke-linecap:round;stroke-linejoin:round;">
  <path d="M 208.800 111.900 H 200.800 C 200.745 111.900 200.700 111.945 200.700 112.000 V 114.900 C 200.700 115.000 200.800 114.900 200.700 114.900 H 194.900 C 194.800 114.900 194.900 115.000 194.900 114.900 V 112.000 C 194.900 111.945 194.855 111.900 194.800 111.900 H 188.800 C 188.745 111.900 188.700 111.945 188.700 112.000 V 114.900 C 188.700 115.000 188.800 114.900 188.700 114.900 H 182.900 C 182.800 114.900 182.900 115.000 182.900 114.900 V 112.000 C 182.900 111.945 182.855 111.900 182.800 111.900 H 176.800 C 176.745 111.900 176.700 111.945 176.700 112.000 V 114.900 C 176.700 115.000 176.800 114.900 176.700 114.900 H 170.900 C 170.800 114.900 170.900 115.000 170.900 114.900 V 112.000 C 170.900 111.945 170.855 111.900 170.800 111.900 H 164.800 C 164.745 111.900 164.700 111.945 164.700 112.000 V 114.900 C 164.700 115.000 164.800 114.900 164.700 114.900 H 158.900 C 158.800 114.900 158.900 115.000 158.900 114.900 V 112.000 C 158.900 111.945 158.855 111.900 158.800 111.900 H 152.800 C 152.745 111.900 152.700 111.945 152.700 112.000 V 114.900 C 152.700 115.000 152.800 114.900 152.700 114.900 H 146.900 C 146.800 114.900 146.900 115.000 146.900 114.900 V 112.000 C 146.900 111.945 146.855 111.900 146.800 111.900 H 140.800 C 140.745 111.900 140.700 111.945 140.700 112.000 V 114.900 C 140.700 115.000 140.800 114.900 140.700 114.900 H 134.900 C 134.800 114.900 134.900 115.000 134.900 114.900 V 112.000 C 134.900 111.945 134.855 111.900 134.800 111.900 H 128.800 C 128.745 111.900 128.700 111.945 128.700 112.000 V 114.900 C 128.700 115.000 128.800 114.900 128.700 114.900 H 122.900 C 122.800 114.900 122.900 115.000 122.900 114.900 V 112.000 C 122.900 111.945 122.855 111.900 122.800 111.900 H 114.800 C 114.745 111.900 114.700 111.945 114.700 112.000 V 115.000 V 124.900 C 114.700 125.000 114.800 124.900 114.700 124.900 H 111.800 C 111.745 124.900 111.700 124.945 111.700 125.000 V 131.000 C 111.700 131.055 111.745 131.100 111.800 131.100 H 114.700 C 114.800 131.100 114.700 131.000 114.700 131.100 V 136.900 C 114.700 137.000 114.800 136.900 114.700 136.900 H 111.800 C 111.745 136.900 111.700 136.945 111.700 137.000 V 143.000 C 111.700 143.055 111.745 143.100 111.800 143.100 H 114.700 C 114.800 143.100 114.700 143.000 114.700 143.100 V 148.900 C 114.700 149.000 114.800 148.900 114.700 148.900 H 111.800 C 111.745 148.900 111.700 148.945 111.700 149.000 V 155.000 C 111.700 155.055 111.745 155.100 111.800 155.100 H 114.700 C 114.800 155.100 114.700 155.000 114.700 155.100 V 165.000 C 114.700 165.055 114.745 165.100 114.800 165.100 C 114.816 165.100 114.833 165.096 114.847 165.088 L 208.847 115.088 C 208.833 115.096 208.816 115.100 208.800 115.100 C 208.855 115.100 208.900 115.055 208.900 115.000 V 112.000 C 208.900 111.945 208.855 111.900 208.800 111.900 Z" stroke="rgb(0,0,0)" stroke-width="0.20" />
</g>
<g id="p-9" style="fill:none;stroke-linecap:round;stroke-linejoin:round;">
  <path d="M 107.100 111.900 H 99.100 C 99.045 111.900 99.000 111.945 99.000 112.000 V 114.900 C 99.000 115.000 99.100 114.900 99.000 114.900 H 93.200 C 93.100 114.900 93.200 115.000 93.200 114.900 V 112.000 C 93.200 111.945 93.155 111.900 93.100 111.900 H 87.100 C 87.045 111.900 87.000 111.945 87.000 112.000 V 114.900 C 87.000 115.000 87.100 114.900 87.000 114.900 H 81.200 C 81.100 114.900 81.200 115.000 81.200 114.900 V 112.000 C 81.200 111.945 81.155 111.900 81.100 111.900 H 75.100 C 75.045 111.900 75.000 111.945 75.000 112.000 V 114.900 C 75.000 115.000 75.100 114.900 75.000 114.900 H 69.200 C 69.100 114.900 69.200 115.000 69.200 114.900 V 112.000 C 69.200 111.945 69.155 111.900 69.100 111.900 H 63.100 C 63.045 111.900 63.000 111.945 63.000 112.000 V 114.900 C 63.000 115.000 63.100 114.900 63.000 114.900 H 57.200 C 57.100 114.900 57.200 115.000 57.200 114.900 V 112.000 C 57.200 111.945 57.155 111.900 57.100 111.900 H 51.100 C 51.045 111.900 51.000 111.945 51.000 112.000 V 114.900 C 51.000 115.000 51.100 114.900 51.000 114.900 H 45.200 C 45.100 114.900 45.200 115.000 45.200 114.900 V 112.000 C 45.200 111.945 45.155 111.900 45.100 111.900 H 39.100 C 39.045 111.900 39.000 111.945 39.000 112.000 V 114.900 C 39.000 115.000 39.100 114.900 39.000 114.900 H 33.200 C 33.100 114.900 33.200 115.000 33.200 114.900 V 112.000 C 33.200 111.945 33.155 111.900 33.100 111.900 H 27.100 C 27.045 111.900 27.000 111.945 27.000 112.000 V 114.900 C 27.000 115.000 27.100 114.900 27.000 114.900 H 21.200 C 21.100 114.900 21.200 115.000 21.200 114.900 V 112.000 C 21.200 111.945 21.155 111.900 21.100 111.900 H 13.100 H 10.100 C 10.045 111.900 10.000 111.945 10.000 112.000 V 115.000 V 125.000 C 10.000 125.055 10.045 125.100 10.100 125.100 H 13.000 C 13.100 125.100 13.000 125.000 13.000 125.100 V 130.900 C 13.000 131.000 13.100 130.900 13.000 130.900 H 10.100 C 10.045 130.900 10.000 130.945 10.000 131.000 V 137.000 C 10.000 137.055 10.045 137.100 10.100 137.100 H 13.000 C 13.100 137.100 13.000 137.000 13.000 137.100 V 142.900 C 13.000 143.000 13.100 142.900 13.000 142.900 H 10.100 C 10.045 142.900 10.000 142.945 10.000 143.000 V 149.000 C 10.000 149.055 10.045 149.100 10.100 149.100 H 13.000 C 13.100 149.100 13.000 149.000 13.000 149.100 V 154.900 C 13.000 155.000 13.100 154.900 13.000 154.900 H 10.100 C 10.045 154.900 10.000 154.945 10.000 155.000 V 165.000 C 10.000 165.055 10.045 165.100 10.100 165.100 H 13.100 H 107.100 H 110.100 C 110.155 165.100 110.200 165.055 110.200 165.000 V 155.000 C 110.200 154.945 110.155 154.900 110.100 154.900 H 107.200 C 107.100 154.900 107.200 155.000 107.200 154.900 V 149.100 C 107.200 149.000 107.100 149.100 107.200 149.100 H 110.100 C 110.155 149.100 110.200 149.055 110.200 149.000 V 143.000 C 110.200 142.945 110.155 142.900 110.100 142.900 H 107.200 C 107.100 142.900 107.200 143.000 107.200 142.900 V 137.100 C 107.200 137.000 107.100 137.100 107.200 137.100 H 110.100 C 110.155 137.100 110.200 137.055 110.200 137.000 V 131.000 C 110.200 130.945 110.155 130.900 110.100 130.900 H 107.200 C 107.100 130.900 107.200 131.000 107.200 130.900 V 125.100 C 107.200 125.000 107.100 125.100 107.200 125.100 H 110.100 C 110.155 125.100 110.200 125.055 110.200 125.000 V 115.000 V 112.000 C 110.200 111.945 110.155 111.900 110.100 111.900 H 107.100 Z" stroke="rgb(0,0,0)" stroke-width="0.20" />
</g>
</svg>