<?xml version='1.0' encoding='utf-8'?>
<svg height="233.60mm" viewBox="0.0 0.0 535.70 233.60" width="535.70mm" xmlns="http://www.w3.org/2000/svg" xmlns:cc="http://creativecommons.org/ns#" xmlns:dc="http://purl.org/dc/elements/1.1/" xmlns:inkscape="http://www.inkscape.org/namespaces/inkscape" xmlns:rdf="http://www.w3.org/1999/02/22-rdf-syntax-ns#" xmlns:svg="http://www.w3.org/2000/svg" xmlns:xlink="http://www.w3.org/1999/xlink">
<!--
UnevenHeightBox - Box with different height in each corner

Created with Boxes.py (https://festi.info/boxes.py)
Command line (remove spaces between dashes): boxes UnevenHeightBox
-->
<title>UnevenHeightBox</title>
<metadata>
<rdf:RDF><cc:Work>
<dc:title>Box - UnevenHeightBox</dc:title>
<dc:source>boxes UnevenHeightBox</dc:source>
<dc:description>Box with different height in each corner

Created with Boxes.py (https://festi.info/boxes.py)
Command line: boxes UnevenHeightBox
Command line short: boxes UnevenHeightBox
</dc:description>
</cc:Work></rdf:RDF></metadata>
<g id="p-0" style="fill:none;stroke-linecap:round;stroke-linejoin:round;">
  <path d="M 18.800 223.600 H 118.800 V 213.600 H 18.800 V 223.600 Z" stroke="rgb(0,0,0)" stroke-width="0.20" />
  <text dominant-baseline="hanging" font-size="8px" style="font-family: sans-serif ; font-weight: normal; font-style: normal; fill: rgb(255,0,0)" text-anchor="middle" transform="matrix( 1.000 0.000 0.000 1.000 68.800 214.600 )">100.00mm, burn:0.10mm</text>
</g>
<g id="p-1" style="fill:none;stroke-linecap:round;stroke-linejoin:round;">
  <path d="M 21.800 211.900 H 29.800 C 29.855 211.900 29.900 211.855 29.900 211.800 V 208.900 C 29.900 208.800 29.800 208.900 29.900 208.900 H 35.700 C 35.800 208.900 35.700 208.800 35.700 208.900 V 211.800 C 35.700 211.855 35.745 211.900 35.800 211.900 H 41.800 C 41.855 211.900 41.900 211.855 41.900 211.800 V 208.900 C 41.900 208.800 41.800 208.900 41.900 208.900 H 47.700 C 47.800 208.900 47.700 208.800 47.700 208.900 V 211.800 C 47.700 211.855 47.745 211.900 47.800 211.900 H 53.800 C 53.855 211.900 53.900 211.855 53.900 211.800 V 208.900 C 53.900 208.800 53.800 208.900 53.900 208.900 H 59.700 C 59.800 208.900 59.700 208.800 59.700 208.900 V 211.800 C 59.700 211.855 59.745 211.900 59.800 211.900 H 65.800 C 65.855 211.900 65.900 211.855 65.900 211.800 V 208.900 C 65.900 208.800 65.800 208.900 65.900 208.900 H 71.700 C 71.800 208.900 71.700 208.800 71.700 208.900 V 211.800 C 71.700 211.855 71.745 211.900 71.800 211.900 H 77.800 C 77.855 211.900 77.900 211.855 77.900 211.800 V 208.900 C 77.900 208.800 77.800 208.900 77.900 208.900 H 83.700 C 83.800 208.900 83.700 208.800 83.700 208.900 V 211.800 C 83.700 211.855 83.745 211.900 83.800 211.900 H 89.800 C 89.855 211.900 89.900 211.855 89.900 211.800 V 208.900 C 89.900 208.800 89.800 208.900 89.900 208.900 H 95.700 C 95.800 208.900 95.700 208.800 95.700 208.900 V 211.800 C 95.700 211.855 95.745 211.900 95.800 211.900 H 101.800 C 101.855 211.900 101.900 211.855 101.900 211.800 V 208.900 C 101.900 208.800 101.800 208.900 101.900 208.900 H 107.700 C 107.800 208.900 107.700 208.800 107.700 208.900 V 211.800 C 107.700 211.855 107.745 211.900 107.800 211.900 H 115.800 H 118.800 C 118.855 211.900 118.900 211.855 118.900 211.800 V 208.800 V 201.800 C 118.900 201.745 118.855 201.700 118.800 201.700 H 115.900 C 115.800 201.700 115.900 201.800 115.900 201.700 V 195.900 C 115.900 195.800 115.800 195.900 115.900 195.900 H 118.800 C 118.855 195.900 118.900 195.855 118.900 195.800 V 189.800 C 118.900 189.745 118.855 189.700 118.800 189.700 H 115.900 C 115.800 189.700 115.900 189.800 115.900 189.700 V 183.900 C 115.900 183.800 115.800 183.900 115.900 183.900 H 118.800 C 118.855 183.900 118.900 183.855 118.900 183.800 V 177.800 C 118.900 177.745 118.855 177.700 118.800 177.700 H 115.900 C 115.800 177.700 115.900 177.800 115.900 177.700 V 171.900 C 115.900 171.800 115.800 171.900 115.900 171.900 H 118.800 C 118.855 171.900 118.900 171.855 118.900 171.800 V 164.800 C 118.900 164.745 118.855 164.700 118.800 164.700 H 115.800 H 21.800 H 18.800 C 18.745 164.700 18.700 164.745 18.700 164.800 V 171.800 C 18.700 171.855 18.745 171.900 18.800 171.900 H 21.700 C 21.800 171.900 21.700 171.800 21.700 171.900 V 177.700 C 21.700 177.800 21.800 177.700 21.700 177.700 H 18.800 C 18.745 177.700 18.700 177.745 18.700 177.800 V 183.800 C 18.700 183.855 18.745 183.900 18.800 183.900 H 21.700 C 21.800 183.900 21.700 183.800 21.700 183.900 V 189.700 C 21.700 189.800 21.800 189.700 21.700 189.700 H 18.800 C 18.745 189.700 18.700 189.745 18.700 189.800 V 195.800 C 18.700 195.855 18.745 195.900 18.800 195.900 H 21.700 C 21.800 195.900 21.700 195.800 21.700 195.900 V 201.700 C 21.700 201.800 21.800 201.700 21.700 201.700 H 18.800 C 18.745 201.700 18.700 201.745 18.700 201.800 V 208.800 V 211.800 C 18.700 211.855 18.745 211.900 18.800 211.900 H 21.800 Z" stroke="rgb(0,0,0)" stroke-width="0.20" />
</g>
<g id="p-2" style="fill:none;stroke-linecap:round;stroke-linejoin:round;">
  <path d="M 123.500 211.900 H 131.500 C 131.555 211.900 131.600 211.855 131.600 211.800 V 208.900 C 131.600 208.800 131.500 208.900 131.600 208.900 H 137.400 C 137.500 208.900 137.400 208.800 137.400 208.900 V 211.800 C 137.400 211.855 137.445 211.900 137.500 211.900 H 143.500 C 143.555 211.900 143.600 211.855 143.600 211.800 V 208.900 C 143.600 208.800 143.500 208.900 143.600 208.900 H 149.400 C 149.500 208.900 149.400 208.800 149.400 208.900 V 211.800 C 149.400 211.855 149.445 211.900 149.500 211.900 H 155.500 C 155.555 211.900 155.600 211.855 155.600 211.800 V 208.900 C 155.600 208.800 155.500 208.900 155.600 208.900 H 161.400 C 161.500 208.900 161.400 208.800 161.400 208.900 V 211.800 C 161.400 211.855 161.445 211.900 161.500 211.900 H 167.500 C 167.555 211.900 167.600 211.855 167.600 211.800 V 208.900 C 167.600 208.800 167.500 208.900 167.600 208.900 H 173.400 C 173.500 208.900 173.400 208.800 173.400 208.900 V 211.800 C 173.400 211.855 173.445 211.900 173.500 211.900 H 179.500 C 179.555 211.900 179.600 211.855 179.600 211.800 V 208.900 C 179.600 208.800 179.500 208.900 179.600 208.900 H 185.400 C 185.500 208.900 185.400 208.800 185.400 208.900 V 211.800 C 185.400 211.855 185.445 211.900 185.500 211.900 H 191.500 C 191.555 211.900 191.600 211.855 191.600 211.800 V 208.900 C 191.600 208.800 191.500 208.900 191.600 208.900 H 197.400 C 197.500 208.900 197.400 208.800 197.400 208.900 V 211.800 C 197.400 211.855 197.445 211.900 197.500 211.900 H 203.500 C 203.555 211.900 203.600 211.855 203.600 211.800 V 208.900 C 203.600 208.800 203.500 208.900 203.600 208.900 H 209.400 C 209.500 208.900 209.400 208.800 209.400 208.900 V 211.800 C 209.400 211.855 209.445 211.900 209.500 211.900 H 217.500 C 217.555 211.900 217.600 211.855 217.600 211.800 V 208.800 V 200.900 C 217.600 200.800 217.500 200.900 217.600 200.900 H 220.500 C 220.555 200.900 220.600 200.855 220.600 200.800 V 194.800 C 220.600 194.745 220.555 194.700 220.500 194.700 H 217.600 C 217.500 194.700 217.600 194.800 217.600 194.700 V 188.900 C 217.600 188.800 217.500 188.900 217.600 188.900 H 220.500 C 220.555 188.900 220.600 188.855 220.600 188.800 V 182.800 C 220.600 182.745 220.555 182.700 220.500 182.700 H 217.600 C 217.500 182.700 217.600 182.800 217.600 182.700 V 176.900 C 217.600 176.800 217.500 176.900 217.600 176.900 H 220.500 C 220.555 176.900 220.600 176.855 220.600 176.800 V 170.800 C 220.600 170.745 220.555 170.700 220.500 170.700 H 217.600 C 217.500 170.700 217.600 170.800 217.600 170.700 V 164.900 C 217.600 164.800 217.500 164.900 217.600 164.900 H 220.500 C 220.555 164.900 220.600 164.855 220.600 164.800 V 158.800 C 220.600 158.745 220.555 158.700 220.500 158.700 H 217.600 C 217.500 158.700 217.600 158.800 217.600 158.700 V 152.900 C 217.600 152.800 217.500 152.900 217.600 152.900 H 220.500 C 220.555 152.900 220.600 152.855 220.600 152.800 V 146.800 C 220.600 146.745 220.555 146.700 220.500 146.700 H 217.600 C 217.500 146.700 217.600 146.800 217.600 146.700 V 140.900 C 217.600 140.800 217.500 140.900 217.600 140.900 H 220.500 C 220.555 140.900 220.600 140.855 220.600 140.800 V 134.800 C 220.600 134.745 220.555 134.700 220.500 134.700 H 217.600 C 217.500 134.700 217.600 134.800 217.600 134.700 V 128.900 C 217.600 128.800 217.500 128.900 217.600 128.900 H 220.500 C 220.555 128.900 220.600 128.855 220.600 128.800 V 122.800 C 220.600 122.745 220.555 122.700 220.500 122.700 H 217.600 C 217.500 122.700 217.600 122.800 217.600 122.700 V 114.800 C 217.600 114.745 217.555 114.700 217.500 114.700 C 217.484 114.700 217.467 114.704 217.453 114.712 L 123.453 164.712 C 123.467 164.704 123.484 164.700 123.500 164.700 C 123.445 164.700 123.400 164.745 123.400 164.800 V 171.700 C 123.400 171.800 123.500 171.700 123.400 171.700 H 120.500 C 120.445 171.700 120.400 171.745 120.400 171.800 V 177.800 C 120.400 177.855 120.445 177.900 120.500 177.900 H 123.400 C 123.500 177.900 123.400 177.800 123.400 177.900 V 183.700 C 123.400 183.800 123.500 183.700 123.400 183.700 H 120.500 C 120.445 183.700 120.400 183.745 120.400 183.800 V 189.800 C 120.400 189.855 120.445 189.900 120.500 189.900 H 123.400 C 123.500 189.900 123.400 189.800 123.400 189.900 V 195.700 C 123.400 195.800 123.500 195.700 123.400 195.700 H 120.500 C 120.445 195.700 120.400 195.745 120.400 195.800 V 201.800 C 120.400 201.855 120.445 201.900 120.500 201.900 H 123.400 C 123.500 201.900 123.400 201.800 123.400 201.900 V 208.800 V 211.800 C 123.400 211.855 123.445 211.900 123.500 211.900 Z" stroke="rgb(0,0,0)" stroke-width="0.20" />
</g>
<g id="p-3" style="fill:none;stroke-linecap:round;stroke-linejoin:round;">
  <path d="M 225.200 211.900 H 233.200 C 233.255 211.900 233.300 211.855 233.300 211.800 V 208.900 C 233.300 208.800 233.200 208.900 233.300 208.900 H 239.100 C 239.200 208.900 239.100 208.800 239.100 208.900 V 211.800 C 239.100 211.855 239.145 211.900 239.200 211.900 H 245.200 C 245.255 211.900 245.300 211.855 245.300 211.800 V 208.900 C 245.300 208.800 245.200 208.900 245.300 208.900 H 251.100 C 251.200 208.900 251.100 208.800 251.100 208.900 V 211.800 C 251.100 211.855 251.145 211.900 251.200 211.900 H 257.200 C 257.255 211.900 257.300 211.855 257.300 211.800 V 208.900 C 257.300 208.800 257.200 208.900 257.300 208.900 H 263.100 C 263.200 208.900 263.100 208.800 263.100 208.900 V 211.800 C 263.100 211.855 263.145 211.900 263.200 211.900 H 269.200 C 269.255 211.900 269.300 211.855 269.300 211.800 V 208.900 C 269.300 208.800 269.200 208.900 269.300 208.900 H 275.100 C 275.200 208.900 275.100 208.800 275.100 208.900 V 211.800 C 275.100 211.855 275.145 211.900 275.200 211.900 H 281.200 C 281.255 211.900 281.300 211.855 281.300 211.800 V 208.900 C 281.300 208.800 281.200 208.900 281.300 208.900 H 287.100 C 287.200 208.900 287.100 208.800 287.100 208.900 V 211.800 C 287.100 211.855 287.145 211.900 287.200 211.900 H 293.200 C 293.255 211.900 293.300 211.855 293.300 211.800 V 208.900 C 293.300 208.800 293.200 208.900 293.300 208.900 H 299.100 C 299.200 208.900 299.100 208.800 299.100 208.900 V 211.800 C 299.100 211.855 299.145 211.900 299.200 211.900 H 305.200 C 305.255 211.900 305.300 211.855 305.300 211.800 V 208.900 C 305.300 208.800 305.200 208.900 305.300 208.900 H 311.100 C 311.200 208.900 311.100 208.800 311.100 208.900 V 211.800 C 311.100 211.855 311.145 211.900 311.200 211.900 H 319.200 H 322.200 C 322.255 211.900 322.300 211.855 322.300 211.800 V 208.800 V 200.800 C 322.300 200.745 322.255 200.700 322.200 200.700 H 319.300 C 319.200 200.700 319.300 200.800 319.300 200.700 V 194.900 C 319.300 194.800 319.200 194.900 319.300 194.900 H 322.200 C 322.255 194.900 322.300 194.855 322.300 194.800 V 188.800 C 322.300 188.745 322.255 188.700 322.200 188.700 H 319.300 C 319.200 188.700 319.300 188.800 319.300 188.700 V 182.900 C 319.300 182.800 319.200 182.900 319.300 182.900 H 322.200 C 322.255 182.900 322.300 182.855 322.300 182.800 V 176.800 C 322.300 176.745 322.255 176.700 322.200 176.700 H 319.300 C 319.200 176.700 319.300 176.800 319.300 176.700 V 170.900 C 319.300 170.800 319.200 170.900 319.300 170.900 H 322.200 C 322.255 170.900 322.300 170.855 322.300 170.800 V 164.800 C 322.300 164.745 322.255 164.700 322.200 164.700 H 319.300 C 319.200 164.700 319.300 164.800 319.300 164.700 V 158.900 C 319.300 158.800 319.200 158.900 319.300 158.900 H 322.200 C 322.255 158.900 322.300 158.855 322.300 158.800 V 152.800 C 322.300 152.745 322.255 152.700 322.200 152.700 H 319.300 C 319.200 152.700 319.300 152.800 319.300 152.700 V 146.900 C 319.300 146.800 319.200 146.900 319.300 146.900 H 322.200 C 322.255 146.900 322.300 146.855 322.300 146.800 V 140.800 C 322.300 140.745 322.255 140.700 322.200 140.700 H 319.300 C 319.200 140.700 319.300 140.800 319.300 140.700 V 134.900 C 319.300 134.800 319.200 134.900 319.300 134.900 H 322.200 C 322.255 134.900 322.300 134.855 322.300 134.800 V 128.800 C 322.300 128.745 322.255 128.700 322.200 128.700 H 319.300 C 319.200 128.700 319.300 128.800 319.300 128.700 V 122.900 C 319.300 122.800 319.200 122.900 319.300 122.900 H 322.200 C 322.255 122.900 322.300 122.855 322.300 122.800 V 114.800 C 322.300 114.745 322.255 114.700 322.200 114.700 H 319.200 H 225.200 H 222.200 C 222.145 114.700 222.100 114.745 222.100 114.800 V 122.800 C 222.100 122.855 222.145 122.900 222.200 122.900 H 225.100 C 225.200 122.900 225.100 122.800 225.100 122.900 V 128.700 C 225.100 128.800 225.200 128.700 225.100 128.700 H 222.200 C 222.145 128.700 222.100 128.745 222.100 128.800 V 134.800 C 222.100 134.855 222.145 134.900 222.200 134.900 H 225.100 C 225.200 134.900 225.100 134.800 225.100 134.900 V 140.700 C 225.100 140.800 225.200 140.700 225.100 140.700 H 222.200 C 222.145 140.700 222.100 140.745 222.100 140.800 V 146.800 C 222.100 146.855 222.145 146.900 222.200 146.900 H 225.100 C 225.200 146.900 225.100 146.800 225.100 146.900 V 152.700 C 225.100 152.800 225.200 152.700 225.100 152.700 H 222.200 C 222.145 152.700 222.100 152.745 222.100 152.800 V 158.800 C 222.100 158.855 222.145 158.900 222.200 158.900 H 225.100 C 225.200 158.900 225.100 158.800 225.100 158.900 V 164.700 C 225.100 164.800 225.200 164.700 225.100 164.700 H 222.200 C 222.145 164.700 222.100 164.745 222.100 164.800 V 170.800 C 222.100 170.855 222.145 170.900 222.200 170.900 H 225.100 C 225.200 170.900 225.100 170.800 225.100 170.900 V 176.700 C 225.100 176.800 225.200 176.700 225.100 176.700 H 222.200 C 222.145 176.700 222.100 176.745 222.100 176.800 V 182.800 C 222.100 182.855 222.145 182.900 222.200 182.900 H 225.100 C 225.200 182.900 225.100 182.800 225.100 182.900 V 188.700 C 225.100 188.800 225.200 188.700 225.100 188.700 H 222.200 C 222.145 188.700 222.100 188.745 222.100 188.800 V 194.800 C 222.100 194.855 222.145 194.900 222.200 194.900 H 225.100 C 225.200 194.900 225.100 194.800 225.100 194.900 V 200.700 C 225.100 200.800 225.200 200.700 225.100 200.700 H 222.200 C 222.145 200.700 222.100 200.745 222.100 200.800 V 208.800 V 211.800 C 222.100 211.855 222.145 211.900 222.200 211.900 H 225.200 Z" stroke="rgb(0,0,0)" stroke-width="0.20" />
</g>
<g id="p-4" style="fill:none;stroke-linecap:round;stroke-linejoin:round;">
  <path d="M 326.900 211.900 H 334.900 C 334.955 211.900 335.000 211.855 335.000 211.800 V 208.900 C 335.000 208.800 334.900 208.900 335.000 208.900 H 340.800 C 340.900 208.900 340.800 208.800 340.800 208.900 V 211.800 C 340.800 211.855 340.845 211.900 340.900 211.900 H 346.900 C 346.955 211.900 347.000 211.855 347.000 211.800 V 208.900 C 347.000 208.800 346.900 208.900 347.000 208.900 H 352.800 C 352.900 208.900 352.800 208.800 352.800 208.900 V 211.800 C 352.800 211.855 352.845 211.900 352.900 211.900 H 358.900 C 358.955 211.900 359.000 211.855 359.000 211.800 V 208.900 C 359.000 208.800 358.900 208.900 359.000 208.900 H 364.800 C 364.900 208.900 364.800 208.800 364.800 208.900 V 211.800 C 364.800 211.855 364.845 211.900 364.900 211.900 H 370.900 C 370.955 211.900 371.000 211.855 371.000 211.800 V 208.900 C 371.000 208.800 370.900 208.900 371.000 208.900 H 376.800 C 376.900 208.900 376.800 208.800 376.800 208.900 V 211.800 C 376.800 211.855 376.845 211.900 376.900 211.900 H 382.900 C 382.955 211.900 383.000 211.855 383.000 211.800 V 208.900 C 383.000 208.800 382.900 208.900 383.000 208.900 H 388.800 C 388.900 208.900 388.800 208.800 388.800 208.900 V 211.800 C 388.800 211.855 388.845 211.900 388.900 211.900 H 394.900 C 394.955 211.900 395.000 211.855 395.000 211.800 V 208.900 C 395.000 208.800 394.900 208.900 395.000 208.900 H 400.800 C 400.900 208.900 400.800 208.800 400.800 208.900 V 211.800 C 400.800 211.855 400.845 211.900 400.900 211.900 H 406.900 C 406.955 211.900 407.000 211.855 407.000 211.800 V 208.900 C 407.000 208.800 406.900 208.900 407.000 208.900 H 412.800 C 412.900 208.900 412.800 208.800 412.800 208.900 V 211.800 C 412.800 211.855 412.845 211.900 412.900 211.900 H 420.900 C 420.955 211.900 421.000 211.855 421.000 211.800 V 208.800 V 201.900 C 421.000 201.800 420.900 201.900 421.000 201.900 H 423.900 C 423.955 201.900 424.000 201.855 424.000 201.800 V 195.800 C 424.000 195.745 423.955 195.700 423.900 195.700 H 421.000 C 420.900 195.700 421.000 195.800 421.000 195.700 V 189.900 C 421.000 189.800 420.900 189.900 421.000 189.900 H 423.900 C 423.955 189.900 424.000 189.855 424.000 189.800 V 183.800 C 424.000 183.745 423.955 183.700 423.900 183.700 H 421.000 C 420.900 183.700 421.000 183.800 421.000 183.700 V 177.900 C 421.000 177.800 420.900 177.900 421.000 177.900 H 423.900 C 423.955 177.900 424.000 177.855 424.000 177.800 V 171.800 C 424.000 171.745 423.955 171.700 423.900 171.700 H 421.000 C 420.900 171.700 421.000 171.800 421.000 171.700 V 164.800 C 421.000 164.745 420.955 164.700 420.900 164.700 C 420.916 164.700 420.933 164.704 420.947 164.712 L 326.947 114.712 C 326.933 114.704 326.916 114.700 326.900 114.700 C 326.845 114.700 326.800 114.745 326.800 114.800 V 122.700 C 326.800 122.800 326.900 122.700 326.800 122.700 H 323.900 C 323.845 122.700 323.800 122.745 323.800 122.800 V 128.800 C 323.800 128.855 323.845 128.900 323.900 128.900 H 326.800 C 326.900 128.900 326.800 128.800 326.800 128.900 V 134.700 C 326.800 134.800 326.900 134.700 326.800 134.700 H 323.900 C 323.845 134.700 323.800 134.745 323.800 134.800 V 140.800 C 323.800 140.855 323.845 140.900 323.900 140.900 H 326.800 C 326.900 140.900 326.800 140.800 326.800 140.900 V 146.700 C 326.800 146.800 326.900 146.700 326.800 146.700 H 323.900 C 323.845 146.700 323.800 146.745 323.800 146.800 V 152.800 C 323.800 152.855 323.845 152.900 323.900 152.900 H 326.800 C 326.900 152.900 326.800 152.800 326.800 152.900 V 158.700 C 326.800 158.800 326.900 158.700 326.800 158.700 H 323.900 C 323.845 158.700 323.800 158.745 323.800 158.800 V 164.800 C 323.800 164.855 323.845 164.900 323.900 164.900 H 326.800 C 326.900 164.900 326.800 164.800 326.800 164.900 V 170.700 C 326.800 170.800 326.900 170.700 326.800 170.700 H 323.900 C 323.845 170.700 323.800 170.745 323.800 170.800 V 176.800 C 323.800 176.855 323.845 176.900 323.900 176.900 H 326.800 C 326.900 176.900 326.800 176.800 326.800 176.900 V 182.700 C 326.800 182.800 326.900 182.700 326.800 182.700 H 323.900 C 323.845 182.700 323.800 182.745 323.800 182.800 V 188.800 C 323.800 188.855 323.845 188.900 323.900 188.900 H 326.800 C 326.900 188.900 326.800 188.800 326.800 188.900 V 194.700 C 326.800 194.800 326.900 194.700 326.800 194.700 H 323.900 C 323.845 194.700 323.800 194.745 323.800 194.800 V 200.800 C 323.800 200.855 323.845 200.900 323.900 200.900 H 326.800 C 326.900 200.900 326.800 200.800 326.800 200.900 V 208.800 V 211.800 C 326.800 211.855 326.845 211.900 326.900 211.900 Z" stroke="rgb(0,0,0)" stroke-width="0.20" />
</g>
<g id="p-5" style="fill:none;stroke-linecap:round;stroke-linejoin:round;">
  <path d="M 428.600 208.900 H 436.500 C 436.600 208.900 436.500 208.800 436.500 208.900 V 211.800 C 436.500 211.855 436.545 211.900 436.600 211.900 H 442.600 C 442.655 211.900 442.700 211.855 442.700 211.800 V 208.900 C 442.700 208.800 442.600 208.900 442.700 208.900 H 448.500 C 448.600 208.900 448.500 208.800 448.500 208.900 V 211.800 C 448.500 211.855 448.545 211.900 448.600 211.900 H 454.600 C 454.655 211.900 454.700 211.855 454.700 211.800 V 208.900 C 454.700 208.800 454.600 208.900 454.700 208.900 H 460.500 C 460.600 208.900 460.500 208.800 460.500 208.900 V 211.800 C 460.500 211.855 460.545 211.900 460.600 211.900 H 466.600 C 466.655 211.900 466.700 211.855 466.700 211.800 V 208.900 C 466.700 208.800 466.600 208.900 466.700 208.900 H 472.500 C 472.600 208.900 472.500 208.800 472.500 208.900 V 211.800 C 472.500 211.855 472.545 211.900 472.600 211.900 H 478.600 C 478.655 211.900 478.700 211.855 478.700 211.800 V 208.900 C 478.700 208.800 478.600 208.900 478.700 208.900 H 484.500 C 484.600 208.900 484.500 208.800 484.500 208.900 V 211.800 C 484.500 211.855 484.545 211.900 484.600 211.900 H 490.600 C 490.655 211.900 490.700 211.855 490.700 211.800 V 208.900 C 490.700 208.800 490.600 208.900 490.700 208.900 H 496.500 C 496.600 208.900 496.500 208.800 496.500 208.900 V 211.800 C 496.500 211.855 496.545 211.900 496.600 211.900 H 502.600 C 502.655 211.900 502.700 211.855 502.700 211.800 V 208.900 C 502.700 208.800 502.600 208.900 502.700 208.900 H 508.500 C 508.600 208.900 508.500 208.800 508.500 208.900 V 211.800 C 508.500 211.855 508.545 211.900 508.600 211.900 H 514.600 C 514.655 211.900 514.700 211.855 514.700 211.800 V 208.900 C 514.700 208.800 514.600 208.900 514.700 208.900 H 522.600 C 522.655 208.900 522.700 208.855 522.700 208.800 V 200.900 C 522.700 200.800 522.600 200.900 522.700 200.900 H 525.600 C 525.655 200.900 525.700 200.855 525.700 200.800 V 194.800 C 525.700 194.745 525.655 194.700 525.600 194.700 H 522.700 C 522.600 194.700 522.700 194.800 522.700 194.700 V 188.900 C 522.700 188.800 522.600 188.900 522.700 188.900 H 525.600 C 525.655 188.900 525.700 188.855 525.700 188.800 V 182.800 C 525.700 182.745 525.655 182.700 525.600 182.700 H 522.700 C 522.600 182.700 522.700 182.800 522.700 182.700 V 176.900 C 522.700 176.800 522.600 176.900 522.700 176.900 H 525.600 C 525.655 176.900 525.700 176.855 525.700 176.800 V 170.800 C 525.700 170.745 525.655 170.700 525.600 170.700 H 522.700 C 522.600 170.700 522.700 170.800 522.700 170.700 V 164.900 C 522.700 164.800 522.600 164.900 522.700 164.900 H 525.600 C 525.655 164.900 525.700 164.855 525.700 164.800 V 158.800 C 525.700 158.745 525.655 158.700 525.600 158.700 H 522.700 C 522.600 158.700 522.700 158.800 522.700 158.700 V 152.900 C 522.700 152.800 522.600 152.900 522.700 152.900 H 525.600 C 525.655 152.900 525.700 152.855 525.700 152.800 V 146.800 C 525.700 146.745 525.655 146.700 525.600 146.700 H 522.700 C 522.600 146.700 522.700 146.800 522.700 146.700 V 140.900 C 522.700 140.800 522.600 140.900 522.700 140.900 H 525.600 C 525.655 140.900 525.700 140.855 525.700 140.800 V 134.800 C 525.700 134.745 525.655 134.700 525.600 134.700 H 522.700 C 522.600 134.700 522.700 134.800 522.700 134.700 V 128.900 C 522.700 128.800 522.600 128.900 522.700 128.900 H 525.600 C 525.655 128.900 525.700 128.855 525.700 128.800 V 122.800 C 525.700 122.745 525.655 122.700 525.600 122.700 H 522.700 C 522.600 122.700 522.700 122.800 522.700 122.700 V 114.800 C 522.700 114.745 522.655 114.700 522.600 114.700 H 514.700 C 514.600 114.700 514.700 114.800 514.700 114.700 V 111.800 C 514.700 111.745 514.655 111.700 514.600 111.700 H 508.600 C 508.545 111.700 508.500 111.745 508.500 111.800 V 114.700 C 508.500 114.800 508.600 114.700 508.500 114.700 H 502.700 C 502.600 114.700 502.700 114.800 502.700 114.700 V 111.800 C 502.700 111.745 502.655 111.700 502.600 111.700 H 496.600 C 496.545 111.700 496.500 111.745 496.500 111.800 V 114.700 C 496.500 114.800 496.600 114.700 496.500 114.700 H 490.700 C 490.600 114.700 490.700 114.800 490.700 114.700 V 111.800 C 490.700 111.745 490.655 111.700 490.600 111.700 H 484.600 C 484.545 111.700 484.500 111.745 484.500 111.800 V 114.700 C 484.500 114.800 484.600 114.700 484.500 114.700 H 478.700 C 478.600 114.700 478.700 114.800 478.700 114.700 V 111.800 C 478.700 111.745 478.655 111.700 478.600 111.700 H 472.600 C 472.545 111.700 472.500 111.745 472.500 111.800 V 114.700 C 472.500 114.800 472.600 114.700 472.500 114.700 H 466.700 C 466.600 114.700 466.700 114.800 466.700 114.700 V 111.800 C 466.700 111.745 466.655 111.700 466.600 111.700 H 460.600 C 460.545 111.700 460.500 111.745 460.500 111.800 V 114.700 C 460.500 114.800 460.600 114.700 460.500 114.700 H 454.700 C 454.600 114.700 454.700 114.800 454.700 114.700 V 111.800 C 454.700 111.745 454.655 111.700 454.600 111.700 H 448.600 C 448.545 111.700 448.500 111.745 448.500 111.800 V 114.700 C 448.500 114.800 448.600 114.700 448.500 114.700 H 442.700 C 442.600 114.700 442.700 114.800 442.700 114.700 V 111.800 C 442.700 111.745 442.655 111.700 442.600 111.700 H 436.600 C 436.545 111.700 436.500 111.745 436.500 111.800 V 114.700 C 436.500 114.800 436.600 114.700 436.500 114.700 H 428.600 C 428.545 114.700 428.500 114.745 428.500 114.800 V 122.700 C 428.500 122.800 428.600 122.700 428.500 122.700 H 425.600 C 425.545 122.700 425.500 122.745 425.500 122.800 V 128.800 C 425.500 128.855 425.545 128.900 425.600 128.900 H 428.500 C 428.600 128.900 428.500 128.800 428.500 128.900 V 134.700 C 428.500 134.800 428.600 134.700 428.500 134.700 H 425.600 C 425.545 134.700 425.500 134.745 425.500 134.800 V 140.800 C 425.500 140.855 425.545 140.900 425.600 140.900 H 428.500 C 428.600 140.900 428.500 140.800 428.500 140.900 V 146.700 C 428.500 146.800 428.600 146.700 428.500 146.700 H 425.600 C 425.545 146.700 425.500 146.745 425.500 146.800 V 152.800 C 425.500 152.855 425.545 152.900 425.600 152.900 H 428.500 C 428.600 152.900 428.500 152.800 428.500 152.900 V 158.700 C 428.500 158.800 428.600 158.700 428.500 158.700 H 425.600 C 425.545 158.700 425.500 158.745 425.500 158.800 V 164.800 C 425.500 164.855 425.545 164.900 425.600 164.900 H 428.500 C 428.600 164.900 428.500 164.800 428.500 164.900 V 170.700 C 428.500 170.800 428.600 170.700 428.500 170.700 H 425.600 C 425.545 170.700 425.500 170.745 425.500 170.800 V 176.800 C 425.500 176.855 425.545 176.900 425.600 176.900 H 428.500 C 428.600 176.900 428.500 176.800 428.500 176.900 V 182.700 C 428.500 182.800 428.600 182.700 428.500 182.700 H 425.600 C 425.545 182.700 425.500 182.745 425.500 182.800 V 188.800 C 425.500 188.855 425.545 188.900 425.600 188.900 H 428.500 C 428.600 188.900 428.500 188.800 428.500 188.900 V 194.700 C 428.500 194.800 428.600 194.700 428.500 194.700 H 425.600 C 425.545 194.700 425.500 194.745 425.500 194.800 V 200.800 C 425.500 200.855 425.545 200.900 425.600 200.900 H 428.500 C 428.600 200.900 428.500 200.800 428.500 200.900 V 208.800 C 428.500 208.855 428.545 208.900 428.600 208.900 Z" stroke="rgb(0,0,0)" stroke-width="0.20" />
</g>
<g id="p-6" style="fill:none;stroke-linecap:round;stroke-linejoin:round;">
  <path d="M 428.600 107.200 H 436.500 C 436.600 107.200 436.500 107.100 436.500 107.200 V 110.100 C 436.500 110.155 436.545 110.200 436.600 110.200 H 442.600 C 442.655 110.200 442.700 110.155 442.700 110.100 V 107.200 C 442.700 107.100 442.600 107.200 442.700 107.200 H 448.500 C 448.600 107.200 448.500 107.100 448.500 107.200 V 110.100 C 448.500 110.155 448.545 110.200 448.600 110.200 H 454.600 C 454.655 110.200 454.700 110.155 454.700 110.100 V 107.200 C 454.700 107.100 454.600 107.200 454.700 107.200 H 460.500 C 460.600 107.200 460.500 107.100 460.500 107.200 V 110.100 C 460.500 110.155 460.545 110.200 460.600 110.200 H 466.600 C 466.655 110.200 466.700 110.155 466.700 110.100 V 107.200 C 466.700 107.100 466.600 107.200 466.700 107.200 H 472.500 C 472.600 107.200 472.500 107.100 472.500 107.200 V 110.100 C 472.500 110.155 472.545 110.200 472.600 110.200 H 478.600 C 478.655 110.200 478.700 110.155 478.700 110.100 V 107.200 C 478.700 107.100 478.600 107.200 478.700 107.200 H 484.500 C 484.600 107.200 484.500 107.100 484.500 107.200 V 110.100 C 484.500 110.155 484.545 110.200 484.600 110.200 H 490.600 C 490.655 110.200 490.700 110.155 490.700 110.100 V 107.200 C 490.700 107.100 490.600 107.200 490.700 107.200 H 496.500 C 496.600 107.200 496.500 107.100 496.500 107.200 V 110.100 C 496.500 110.155 496.545 110.200 496.600 110.200 H 502.600 C 502.655 110.200 502.700 110.155 502.700 110.100 V 107.200 C 502.700 107.100 502.600 107.200 502.700 107.200 H 508.500 C 508.600 107.200 508.500 107.100 508.500 107.200 V 110.100 C 508.500 110.155 508.545 110.200 508.600 110.200 H 514.600 C 514.655 110.200 514.700 110.155 514.700 110.100 V 107.200 C 514.700 107.100 514.600 107.200 514.700 107.200 H 522.600 C 522.655 107.200 522.700 107.155 522.700 107.100 V 99.200 C 522.700 99.100 522.600 99.200 522.700 99.200 H 525.600 C 525.655 99.200 525.700 99.155 525.700 99.100 V 93.100 C 525.700 93.045 525.655 93.000 525.600 93.000 H 522.700 C 522.600 93.000 522.700 93.100 522.700 93.000 V 87.200 C 522.700 87.100 522.600 87.200 522.700 87.200 H 525.600 C 525.655 87.200 525.700 87.155 525.700 87.100 V 81.100 C 525.700 81.045 525.655 81.000 525.600 81.000 H 522.700 C 522.600 81.000 522.700 81.100 522.700 81.000 V 75.200 C 522.700 75.100 522.600 75.200 522.700 75.200 H 525.600 C 525.655 75.200 525.700 75.155 525.700 75.100 V 69.100 C 525.700 69.045 525.655 69.000 525.600 69.000 H 522.700 C 522.600 69.000 522.700 69.100 522.700 69.000 V 63.200 C 522.700 63.100 522.600 63.200 522.700 63.200 H 525.600 C 525.655 63.200 525.700 63.155 525.700 63.100 V 57.100 C 525.700 57.045 525.655 57.000 525.600 57.000 H 522.700 C 522.600 57.000 522.700 57.100 522.700 57.000 V 51.200 C 522.700 51.100 522.600 51.200 522.700 51.200 H 525.600 C 525.655 51.200 525.700 51.155 525.700 51.100 V 45.100 C 525.700 45.045 525.655 45.000 525.600 45.000 H 522.700 C 522.600 45.000 522.700 45.100 522.700 45.000 V 39.200 C 522.700 39.100 522.600 39.200 522.700 39.200 H 525.600 C 525.655 39.200 525.700 39.155 525.700 39.100 V 33.100 C 525.700 33.045 525.655 33.000 525.600 33.000 H 522.700 C 522.600 33.000 522.700 33.100 522.700 33.000 V 27.200 C 522.700 27.100 522.600 27.200 522.700 27.200 H 525.600 C 525.655 27.200 525.700 27.155 525.700 27.100 V 21.100 C 525.700 21.045 525.655 21.000 525.600 21.000 H 522.700 C 522.600 21.000 522.700 21.100 522.700 21.000 V 13.100 V 10.100 C 522.700 10.045 522.655 10.000 522.600 10.000 H 428.600 C 428.545 10.000 428.500 10.045 428.500 10.100 V 13.100 V 21.000 C 428.500 21.100 428.600 21.000 428.500 21.000 H 425.600 C 425.545 21.000 425.500 21.045 425.500 21.100 V 27.100 C 425.500 27.155 425.545 27.200 425.600 27.200 H 428.500 C 428.600 27.200 428.500 27.100 428.500 27.200 V 33.000 C 428.500 33.100 428.600 33.000 428.500 33.000 H 425.600 C 425.545 33.000 425.500 33.045 425.500 33.100 V 39.100 C 425.500 39.155 425.545 39.200 425.600 39.200 H 428.500 C 428.600 39.200 428.500 39.100 428.500 39.200 V 45.000 C 428.500 45.100 428.600 45.000 428.500 45.000 H 425.600 C 425.545 45.000 425.500 45.045 425.500 45.100 V 51.100 C 425.500 51.155 425.545 51.200 425.600 51.200 H 428.500 C 428.600 51.200 428.500 51.100 428.500 51.200 V 57.000 C 428.500 57.100 428.600 57.000 428.500 57.000 H 425.600 C 425.545 57.000 425.500 57.045 425.500 57.100 V 63.100 C 425.500 63.155 425.545 63.200 425.600 63.200 H 428.500 C 428.600 63.200 428.500 63.100 428.500 63.200 V 69.000 C 428.500 69.100 428.600 69.000 428.500 69.000 H 425.600 C 425.545 69.000 425.500 69.045 425.500 69.100 V 75.100 C 425.500 75.155 425.545 75.200 425.600 75.200 H 428.500 C 428.600 75.200 428.500 75.100 428.500 75.200 V 81.000 C 428.500 81.100 428.600 81.000 428.500 81.000 H 425.600 C 425.545 81.000 425.500 81.045 425.500 81.100 V 87.100 C 425.500 87.155 425.545 87.200 425.600 87.200 H 428.500 C 428.600 87.200 428.500 87.100 428.500 87.200 V 93.000 C 428.500 93.100 428.600 93.000 428.500 93.000 H 425.600 C 425.545 93.000 425.500 93.045 425.500 93.100 V 99.100 C 425.500 99.155 425.545 99.200 425.600 99.200 H 428.500 C 428.600 99.200 428.500 99.100 428.500 99.200 V 107.100 C 428.500 107.155 428.545 107.200 428.600 107.200 Z" stroke="rgb(0,0,0)" stroke-width="0.20" />
</g>
<g id="p-7" style="fill:none;stroke-linecap:round;stroke-linejoin:round;">
  <path d="M 420.900 111.900 H 412.900 C 412.845 111.900 412.800 111.945 412.800 112.000 V 114.900 C 412.800 115.000 412.900 114.900 412.800 114.900 H 407.000 C 406.900 114.900 407.000 115.000 407.000 114.900 V 112.000 C 407.000 111.945 406.955 111.900 406.900 111.900 H 400.900 C 400.845 111.900 400.800 111.945 400.800 112.000 V 114.900 C 400.800 115.000 400.900 114.900 400.800 114.900 H 395.000 C 394.900 114.900 395.000 115.000 395.000 114.900 V 112.000 C 395.000 111.945 394.955 111.900 394.900 111.900 H 388.900 C 388.845 111.900 388.800 111.945 388.800 112.000 V 114.900 C 388.800 115.000 388.900 114.900 388.800 114.900 H 383.000 C 382.900 114.900 383.000 115.000 383.000 114.900 V 112.000 C 383.000 111.945 382.955 111.900 382.900 111.900 H 376.900 C 376.845 111.900 376.800 111.945 376.800 112.000 V 114.900 C 376.800 115.000 376.900 114.900 376.800 114.900 H 371.000 C 370.900 114.900 371.000 115.000 371.000 114.900 V 112.000 C 371.000 111.945 370.955 111.900 370.900 111.900 H 364.900 C 364.845 111.900 364.800 111.945 364.800 112.000 V 114.900 C 364.800 115.000 364.900 114.900 364.800 114.900 H 359.000 C 358.900 114.900 359.000 115.000 359.000 114.900 V 112.000 C 359.000 111.945 358.955 111.900 358.900 111.900 H 352.900 C 352.845 111.900 352.800 111.945 352.800 112.000 V 114.900 C 352.800 115.000 352.900 114.900 352.800 114.900 H 347.000 C 346.900 114.900 347.000 115.000 347.000 114.900 V 112.000 C 347.000 111.945 346.955 111.900 346.900 111.900 H 340.900 C 340.845 111.900 340.800 111.945 340.800 112.000 V 114.900 C 340.800 115.000 340.900 114.900 340.800 114.900 H 335.000 C 334.900 114.900 335.000 115.000 335.000 114.900 V 112.000 C 335.000 111.945 334.955 111.900 334.900 111.900 H 326.900 C 326.845 111.900 326.800 111.945 326.800 112.000 V 115.000 C 326.800 115.055 326.845 115.100 326.900 115.100 C 326.884 115.100 326.867 115.096 326.853 115.088 L 420.853 165.088 C 420.867 165.096 420.884 165.100 420.900 165.100 C 420.955 165.100 421.000 165.055 421.000 165.000 V 155.100 C 421.000 155.000 420.900 155.100 421.000 155.100 H 423.900 C 423.955 155.100 424.000 155.055 424.000 155.000 V 149.000 C 424.000 148.945 423.955 148.900 423.900 148.900 H 421.000 C 420.900 148.900 421.000 149.000 421.000 148.900 V 143.100 C 421.000 143.000 420.900 143.100 421.000 143.100 H 423.900 C 423.955 143.100 424.000 143.055 424.000 143.000 V 137.000 C 424.000 136.945 423.955 136.900 423.900 136.900 H 421.000 C 420.900 136.900 421.000 137.000 421.000 136.900 V 131.100 C 421.000 131.000 420.900 131.100 421.000 131.100 H 423.900 C 423.955 131.100 424.000 131.055 424.000 131.000 V 125.000 C 424.000 124.945 423.955 124.900 423.900 124.900 H 421.000 C 420.900 124.900 421.000 125.000 421.000 124.900 V 115.000 V 112.000 C 421.000 111.945 420.955 111.900 420.900 111.900 Z" stroke="rgb(0,0,0)" stroke-width="0.20" />
</g>
<g id="p-8" style="fill:none;stroke-linecap:round;stroke-linejoin:round;">
  <path d="M 217.500 111.900 H 209.500 C 209.445 111.900 209.400 111.945 209.400 112.000 V 114.900 C 209.400 115.000 209.500 114.900 209.400 114.900 H 203.600 C 203.500 114.900 203.600 115.000 203.600 114.900 V 112.000 C 203.600 111.945 203.555 111.900 203.500 111.900 H 197.500 C 197.445 111.900 197.400 111.945 197.400 112.000 V 114.900 C 197.400 115.000 197.500 114.900 197.400 114.900 H 191.600 C 191.500 114.900 191.600 115.000 191.600 114.900 V 112.000 C 191.600 111.945 191.555 111.900 191.500 111.900 H 185.500 C 185.445 111.900 185.400 111.945 185.400 112.000 V 114.900 C 185.400 115.000 185.500 114.900 185.400 114.900 H 179.600 C 179.500 114.900 179.600 115.000 179.600 114.900 V 112.000 C 179.600 111.945 179.555 111.900 179.500 111.900 H 173.500 C 173.445 111.900 173.400 111.945 173.400 112.000 V 114.900 C 173.400 115.000 173.500 114.900 173.400 114.900 H 167.600 C 167.500 114.900 167.600 115.000 167.600 114.900 V 112.000 C 167.600 111.945 167.555 111.900 167.500 111.900 H 161.500 C 161.445 111.900 161.400 111.945 161.400 112.000 V 114.900 C 161.400 115.000 161.500 114.900 161.400 114.900 H 155.600 C 155.500 114.900 155.600 115.000 155.600 114.900 V 112.000 C 155.600 111.945 155.555 111.900 155.500 111.900 H 149.500 C 149.445 111.900 149.400 111.945 149.400 112.000 V 114.900 C 149.400 115.000 149.500 114.900 149.400 114.900 H 143.600 C 143.500 114.900 143.600 115.000 143.600 114.900 V 112.000 C 143.600 111.945 143.555 111.900 143.500 111.900 H 137.500 C 137.445 111.900 137.400 111.945 137.400 112.000 V 114.900 C 137.400 115.000 137.500 114.900 137.400 114.900 H 131.600 C 131.500 114.900 131.600 115.000 131.600 114.900 V 112.000 C 131.600 111.945 131.555 111.900 131.500 111.900 H 123.500 C 123.445 111.900 123.400 111.945 123.400 112.000 V 115.000 V 124.900 C 123.400 125.000 123.500 124.900 123.400 124.900 H 120.500 C 120.445 124.900 120.400 124.945 120.400 125.000 V 131.000 C 120.400 131.055 120.445 131.100 120.500 131.100 H 123.400 C 123.500 131.100 123.400 131.000 123.400 131.100 V 136.900 C 123.400 137.000 123.500 136.900 123.400 136.900 H 120.500 C 120.445 136.900 120.400 136.945 120.400 137.000 V 143.000 C 120.400 143.055 120.445 143.100 120.500 143.100 H 123.400 C 123.500 143.100 123.400 143.000 123.400 143.100 V 148.900 C 123.400 149.000 123.500 148.900 123.400 148.900 H 120.500 C 120.445 148.900 120.400 148.945 120.400 149.000 V 155.000 C 120.400 155.055 120.445 155.100 120.500 155.100 H 123.400 C 123.500 155.100 123.400 155.000 123.400 155.100 V 165.000 C 123.400 165.055 123.445 165.100 123.500 165.100 C 123.516 165.100 123.533 165.096 123.547 165.088 L 217.547 115.088 C 217.533 115.096 217.516 115.100 217.500 115.100 C 217.555 115.100 217.600 115.055 217.600 115.000 V 112.000 C 217.600 111.945 217.555 111.900 217.500 111.900 Z" stroke="rgb(0,0,0)" stroke-width="0.20" />
</g>
<g id="p-9" style="fill:none;stroke-linecap:round;stroke-linejoin:round;">
  <path d="M 115.800 111.900 H 107.800 C 107.745 111.900 107.700 111.945 107.700 112.000 V 114.900 C 107.700 115.000 107.800 114.900 107.700 114.900 H 101.900 C 101.800 114.900 101.900 115.000 101.900 114.900 V 112.000 C 101.900 111.945 101.855 111.900 101.800 111.900 H 95.800 C 95.745 111.900 95.700 111.945 95.700 112.000 V 114.900 C 95.700 115.000 95.800 114.900 95.700 114.900 H 89.900 C 89.800 114.900 89.900 115.000 89.900 114.900 V 112.000 C 89.900 111.945 89.855 111.900 89.800 111.900 H 83.800 C 83.745 111.900 83.700 111.945 83.700 112.000 V 114.900 C 83.700 115.000 83.800 114.900 83.700 114.900 H 77.900 C 77.800 114.900 77.900 115.000 77.900 114.900 V 112.000 C 77.900 111.945 77.855 111.900 77.800 111.900 H 71.800 C 71.745 111.900 71.700 111.945 71.700 112.000 V 114.900 C 71.700 115.000 71.800 114.900 71.700 114.900 H 65.900 C 65.800 114.900 65.900 115.000 65.900 114.900 V 112.000 C 65.900 111.945 65.855 111.900 65.800 111.900 H 59.800 C 59.745 111.900 59.700 111.945 59.700 112.000 V 114.900 C 59.700 115.000 59.800 114.900 59.700 114.900 H 53.900 C 53.800 114.900 53.900 115.000 53.900 114.900 V 112.000 C 53.900 111.945 53.855 111.900 53.800 111.900 H 47.800 C 47.745 111.900 47.700 111.945 47.700 112.000 V 114.900 C 47.700 115.000 47.800 114.900 47.700 114.900 H 41.900 C 41.800 114.900 41.900 115.000 41.900 114.900 V 112.000 C 41.900 111.945 41.855 111.900 41.800 111.900 H 35.800 C 35.745 111.900 35.700 111.945 35.700 112.000 V 114.900 C 35.700 115.000 35.800 114.900 35.700 114.900 H 29.900 C 29.800 114.900 29.900 115.000 29.900 114.900 V 112.000 C 29.900 111.945 29.855 111.900 29.800 111.900 H 21.800 H 18.800 C 18.745 111.900 18.700 111.945 18.700 112.000 V 115.000 V 125.000 C 18.700 125.055 18.745 125.100 18.800 125.100 H 21.700 C 21.800 125.100 21.700 125.000 21.700 125.100 V 130.900 C 21.700 131.000 21.800 130.900 21.700 130.900 H 18.800 C 18.745 130.900 18.700 130.945 18.700 131.000 V 137.000 C 18.700 137.055 18.745 137.100 18.800 137.100 H 21.700 C 21.800 137.100 21.700 137.000 21.700 137.100 V 142.900 C 21.700 143.000 21.800 142.900 21.700 142.900 H 18.800 C 18.745 142.900 18.700 142.945 18.700 143.000 V 149.000 C 18.700 149.055 18.745 149.100 18.800 149.100 H 21.700 C 21.800 149.100 21.700 149.000 21.700 149.100 V 154.900 C 21.700 155.000 21.800 154.900 21.700 154.900 H 18.800 C 18.745 154.900 18.700 154.945 18.700 155.000 V 165.000 C 18.700 165.055 18.745 165.100 18.800 165.100 H 21.800 H 115.800 H 118.800 C 118.855 165.100 118.900 165.055 118.900 165.000 V 155.000 C 118.900 154.945 118.855 154.900 118.800 154.900 H 115.900 C 115.800 154.900 115.900 155.000 115.900 154.900 V 149.100 C 115.900 149.000 115.800 149.100 115.900 149.100 H 118.800 C 118.855 149.100 118.900 149.055 118.900 149.000 V 143.000 C 118.900 142.945 118.855 142.900 118.800 142.900 H 115.900 C 115.800 142.900 115.900 143.000 115.900 142.900 V 137.100 C 115.900 137.000 115.800 137.100 115.900 137.100 H 118.800 C 118.855 137.100 118.900 137.055 118.900 137.000 V 131.000 C 118.900 130.945 118.855 130.900 118.800 130.900 H 115.900 C 115.800 130.900 115.900 131.000 115.900 130.900 V 125.100 C 115.900 125.000 115.800 125.100 115.900 125.100 H 118.800 C 118.855 125.100 118.900 125.055 118.900 125.000 V 115.000 V 112.000 C 118.900 111.945 118.855 111.900 118.800 111.900 H 115.800 Z" stroke="rgb(0,0,0)" stroke-width="0.20" />
</g>
</svg>