<?xml version='1.0' encoding='utf-8'?>
<svg height="336.80mm" viewBox="0.0 0.0 120.20 336.80" width="120.20mm" xmlns="http://www.w3.org/2000/svg" xmlns:cc="http://creativecommons.org/ns#" xmlns:dc="http://purl.org/dc/elements/1.1/" xmlns:inkscape="http://www.inkscape.org/namespaces/inkscape" xmlns:rdf="http://www.w3.org/1999/02/22-rdf-syntax-ns#" xmlns:svg="http://www.w3.org/2000/svg" xmlns:xlink="http://www.w3.org/1999/xlink">
<!--
WallConsole - Outset and angled plate to mount stuff to

Created with Boxes.py (https://boxes.hackerspace-bamberg.de/)
Command line (remove spaces between dashes): boxes WallConsole
-->
<title>WallConsole</title>
<metadata>
<rdf:RDF><cc:Work>
<dc:title>WallMounted - WallConsole</dc:title>
<dc:source>boxes WallConsole</dc:source>
<dc:description>Outset and angled plate to mount stuff to

Created with Boxes.py (https://boxes.hackerspace-bamberg.de/)
Command line: boxes WallConsole
Command line short: boxes WallConsole
</dc:description>
</cc:Work></rdf:RDF></metadata>
<g id="p-0" style="fill:none;stroke-linecap:round;stroke-linejoin:round;">
  <path d="M 10.100 326.796 H 110.100 V 316.796 H 10.100 V 326.796 Z" stroke="rgb(0,0,0)" stroke-width="0.20" />
  <text dominant-baseline="hanging" font-size="6px" style="font-family: sans-serif ; font-weight: normal; font-style: normal; fill: rgb(255,0,0)" text-anchor="middle" transform="matrix( 1.000 0.000 0.000 1.000 60.100 318.796 )">100.0mm, burn:0.10mm</text>
</g>
<g id="p-1" style="fill:none;stroke-linecap:round;stroke-linejoin:round;">
  <path d="M 13.100 315.096 H 107.100 C 107.155 315.096 107.200 315.051 107.200 314.996 C 107.200 315.051 107.155 315.096 107.100 315.096 H 110.100 C 110.155 315.096 110.200 315.051 110.200 314.996 V 306.996 C 110.200 306.941 110.155 306.896 110.100 306.896 H 107.200 C 107.100 306.896 107.200 306.996 107.200 306.896 V 301.096 C 107.200 300.996 107.100 301.096 107.200 301.096 H 110.100 C 110.155 301.096 110.200 301.051 110.200 300.996 V 294.996 C 110.200 294.941 110.155 294.896 110.100 294.896 H 107.200 C 107.100 294.896 107.200 294.996 107.200 294.896 V 289.096 C 107.200 288.996 107.100 289.096 107.200 289.096 H 110.100 C 110.155 289.096 110.200 289.051 110.200 288.996 V 282.996 C 110.200 282.941 110.155 282.896 110.100 282.896 H 107.200 C 107.100 282.896 107.200 282.996 107.200 282.896 V 277.096 C 107.200 276.996 107.100 277.096 107.200 277.096 H 110.100 C 110.155 277.096 110.200 277.051 110.200 276.996 V 270.996 C 110.200 270.941 110.155 270.896 110.100 270.896 H 107.200 C 107.100 270.896 107.200 270.996 107.200 270.896 V 265.096 C 107.200 264.996 107.100 265.096 107.200 265.096 H 110.100 C 110.155 265.096 110.200 265.051 110.200 264.996 V 258.996 C 110.200 258.941 110.155 258.896 110.100 258.896 H 107.200 C 107.100 258.896 107.200 258.996 107.200 258.896 V 253.096 C 107.200 252.996 107.100 253.096 107.200 253.096 H 110.100 C 110.155 253.096 110.200 253.051 110.200 252.996 V 246.996 C 110.200 246.941 110.155 246.896 110.100 246.896 H 107.200 C 107.100 246.896 107.200 246.996 107.200 246.896 V 241.096 C 107.200 240.996 107.100 241.096 107.200 241.096 H 110.100 C 110.155 241.096 110.200 241.051 110.200 240.996 V 234.996 C 110.200 234.941 110.155 234.896 110.100 234.896 H 107.200 C 107.100 234.896 107.200 234.996 107.200 234.896 V 229.096 C 107.200 228.996 107.100 229.096 107.200 229.096 H 110.100 C 110.155 229.096 110.200 229.051 110.200 228.996 V 220.996 C 110.200 220.941 110.155 220.896 110.100 220.896 H 107.100 C 107.155 220.896 107.200 220.941 107.200 220.996 C 107.200 220.941 107.155 220.896 107.100 220.896 H 13.100 C 13.045 220.896 13.000 220.941 13.000 220.996 C 13.000 220.941 13.045 220.896 13.100 220.896 H 10.100 C 10.045 220.896 10.000 220.941 10.000 220.996 V 228.996 C 10.000 229.051 10.045 229.096 10.100 229.096 H 13.000 C 13.100 229.096 13.000 228.996 13.000 229.096 V 234.896 C 13.000 234.996 13.100 234.896 13.000 234.896 H 10.100 C 10.045 234.896 10.000 234.941 10.000 234.996 V 240.996 C 10.000 241.051 10.045 241.096 10.100 241.096 H 13.000 C 13.100 241.096 13.000 240.996 13.000 241.096 V 246.896 C 13.000 246.996 13.100 246.896 13.000 246.896 H 10.100 C 10.045 246.896 10.000 246.941 10.000 246.996 V 252.996 C 10.000 253.051 10.045 253.096 10.100 253.096 H 13.000 C 13.100 253.096 13.000 252.996 13.000 253.096 V 258.896 C 13.000 258.996 13.100 258.896 13.000 258.896 H 10.100 C 10.045 258.896 10.000 258.941 10.000 258.996 V 264.996 C 10.000 265.051 10.045 265.096 10.100 265.096 H 13.000 C 13.100 265.096 13.000 264.996 13.000 265.096 V 270.896 C 13.000 270.996 13.100 270.896 13.000 270.896 H 10.100 C 10.045 270.896 10.000 270.941 10.000 270.996 V 276.996 C 10.000 277.051 10.045 277.096 10.100 277.096 H 13.000 C 13.100 277.096 13.000 276.996 13.000 277.096 V 282.896 C 13.000 282.996 13.100 282.896 13.000 282.896 H 10.100 C 10.045 282.896 10.000 282.941 10.000 282.996 V 288.996 C 10.000 289.051 10.045 289.096 10.100 289.096 H 13.000 C 13.100 289.096 13.000 288.996 13.000 289.096 V 294.896 C 13.000 294.996 13.100 294.896 13.000 294.896 H 10.100 C 10.045 294.896 10.000 294.941 10.000 294.996 V 300.996 C 10.000 301.051 10.045 301.096 10.100 301.096 H 13.000 C 13.100 301.096 13.000 300.996 13.000 301.096 V 306.896 C 13.000 306.996 13.100 306.896 13.000 306.896 H 10.100 C 10.045 306.896 10.000 306.941 10.000 306.996 V 314.996 C 10.000 315.051 10.045 315.096 10.100 315.096 H 13.100 C 13.045 315.096 13.000 315.051 13.000 314.996 C 13.000 315.051 13.045 315.096 13.100 315.096 Z" stroke="rgb(0,0,0)" stroke-width="0.20" />
</g>
<g id="p-2" style="fill:none;stroke-linecap:round;stroke-linejoin:round;">
  <path d="M 13.100 219.396 H 107.100 H 110.100 C 110.155 219.396 110.200 219.351 110.200 219.296 V 210.702 C 110.200 210.646 110.155 210.602 110.100 210.602 H 107.200 C 107.100 210.602 107.200 210.702 107.200 210.602 V 204.802 C 107.200 204.702 107.100 204.802 107.200 204.802 H 110.100 C 110.155 204.802 110.200 204.757 110.200 204.702 V 198.702 C 110.200 198.646 110.155 198.602 110.100 198.602 H 107.200 C 107.100 198.602 107.200 198.702 107.200 198.602 V 192.802 C 107.200 192.702 107.100 192.802 107.200 192.802 H 110.100 C 110.155 192.802 110.200 192.757 110.200 192.702 V 186.702 C 110.200 186.646 110.155 186.602 110.100 186.602 H 107.200 C 107.100 186.602 107.200 186.702 107.200 186.602 V 180.802 C 107.200 180.702 107.100 180.802 107.200 180.802 H 110.100 C 110.155 180.802 110.200 180.757 110.200 180.702 V 174.702 C 110.200 174.646 110.155 174.602 110.100 174.602 H 107.200 C 107.100 174.602 107.200 174.702 107.200 174.602 V 168.802 C 107.200 168.702 107.100 168.802 107.200 168.802 H 110.100 C 110.155 168.802 110.200 168.757 110.200 168.702 V 162.702 C 110.200 162.646 110.155 162.602 110.100 162.602 H 107.200 C 107.100 162.602 107.200 162.702 107.200 162.602 V 156.802 C 107.200 156.702 107.100 156.802 107.200 156.802 H 110.100 C 110.155 156.802 110.200 156.757 110.200 156.702 V 150.702 C 110.200 150.646 110.155 150.602 110.100 150.602 H 107.200 C 107.100 150.602 107.200 150.702 107.200 150.602 V 144.802 C 107.200 144.702 107.100 144.802 107.200 144.802 H 110.100 C 110.155 144.802 110.200 144.757 110.200 144.702 V 138.702 C 110.200 138.646 110.155 138.602 110.100 138.602 H 107.200 C 107.100 138.602 107.200 138.702 107.200 138.602 V 132.802 C 107.200 132.702 107.100 132.802 107.200 132.802 H 110.100 C 110.155 132.802 110.200 132.757 110.200 132.702 V 124.107 C 110.200 124.052 110.155 124.007 110.100 124.007 H 107.100 H 13.100 H 10.100 C 10.045 124.007 10.000 124.052 10.000 124.107 V 132.702 C 10.000 132.757 10.045 132.802 10.100 132.802 H 13.000 C 13.100 132.802 13.000 132.702 13.000 132.802 V 138.602 C 13.000 138.702 13.100 138.602 13.000 138.602 H 10.100 C 10.045 138.602 10.000 138.646 10.000 138.702 V 144.702 C 10.000 144.757 10.045 144.802 10.100 144.802 H 13.000 C 13.100 144.802 13.000 144.702 13.000 144.802 V 150.602 C 13.000 150.702 13.100 150.602 13.000 150.602 H 10.100 C 10.045 150.602 10.000 150.646 10.000 150.702 V 156.702 C 10.000 156.757 10.045 156.802 10.100 156.802 H 13.000 C 13.100 156.802 13.000 156.702 13.000 156.802 V 162.602 C 13.000 162.702 13.100 162.602 13.000 162.602 H 10.100 C 10.045 162.602 10.000 162.646 10.000 162.702 V 168.702 C 10.000 168.757 10.045 168.802 10.100 168.802 H 13.000 C 13.100 168.802 13.000 168.702 13.000 168.802 V 174.602 C 13.000 174.702 13.100 174.602 13.000 174.602 H 10.100 C 10.045 174.602 10.000 174.646 10.000 174.702 V 180.702 C 10.000 180.757 10.045 180.802 10.100 180.802 H 13.000 C 13.100 180.802 13.000 180.702 13.000 180.802 V 186.602 C 13.000 186.702 13.100 186.602 13.000 186.602 H 10.100 C 10.045 186.602 10.000 186.646 10.000 186.702 V 192.702 C 10.000 192.757 10.045 192.802 10.100 192.802 H 13.000 C 13.100 192.802 13.000 192.702 13.000 192.802 V 198.602 C 13.000 198.702 13.100 198.602 13.000 198.602 H 10.100 C 10.045 198.602 10.000 198.646 10.000 198.702 V 204.702 C 10.000 204.757 10.045 204.802 10.100 204.802 H 13.000 C 13.100 204.802 13.000 204.702 13.000 204.802 V 210.602 C 13.000 210.702 13.100 210.602 13.000 210.602 H 10.100 C 10.045 210.602 10.000 210.646 10.000 210.702 V 219.296 C 10.000 219.351 10.045 219.396 10.100 219.396 H 13.100 Z" stroke="rgb(0,0,0)" stroke-width="0.20" />
</g>
<g id="p-3" style="fill:none;stroke-linecap:round;stroke-linejoin:round;">
  <path d="M 10.100 122.507 C 10.155 122.507 10.200 122.462 10.200 122.407 V 119.507 C 10.200 119.407 10.100 119.507 10.200 119.507 H 18.000 C 18.100 119.507 18.000 119.407 18.000 119.507 V 122.407 C 18.000 122.462 18.045 122.507 18.100 122.507 H 24.100 C 24.155 122.507 24.200 122.462 24.200 122.407 V 119.507 C 24.200 119.407 24.100 119.507 24.200 119.507 H 30.000 C 30.100 119.507 30.000 119.407 30.000 119.507 V 122.407 C 30.000 122.462 30.045 122.507 30.100 122.507 H 36.100 C 36.155 122.507 36.200 122.462 36.200 122.407 V 119.507 C 36.200 119.407 36.100 119.507 36.200 119.507 H 42.000 C 42.100 119.507 42.000 119.407 42.000 119.507 V 122.407 C 42.000 122.462 42.045 122.507 42.100 122.507 H 48.100 C 48.155 122.507 48.200 122.462 48.200 122.407 V 119.507 C 48.200 119.407 48.100 119.507 48.200 119.507 H 54.000 C 54.100 119.507 54.000 119.407 54.000 119.507 V 122.407 C 54.000 122.462 54.045 122.507 54.100 122.507 H 60.100 C 60.155 122.507 60.200 122.462 60.200 122.407 V 119.507 C 60.200 119.407 60.100 119.507 60.200 119.507 H 66.000 C 66.100 119.507 66.000 119.407 66.000 119.507 V 122.407 C 66.000 122.462 66.045 122.507 66.100 122.507 H 72.100 C 72.155 122.507 72.200 122.462 72.200 122.407 V 119.507 C 72.200 119.407 72.100 119.507 72.200 119.507 H 78.000 C 78.100 119.507 78.000 119.407 78.000 119.507 V 122.407 C 78.000 122.462 78.045 122.507 78.100 122.507 H 84.100 C 84.155 122.507 84.200 122.462 84.200 122.407 V 119.507 C 84.200 119.407 84.100 119.507 84.200 119.507 H 90.000 C 90.100 119.507 90.000 119.407 90.000 119.507 V 122.407 C 90.000 122.462 90.045 122.507 90.100 122.507 H 96.100 C 96.155 122.507 96.200 122.462 96.200 122.407 V 119.507 C 96.200 119.407 96.100 119.507 96.200 119.507 H 104.000 C 104.100 119.507 104.000 119.407 104.000 119.507 V 122.407 C 104.000 122.462 104.045 122.507 104.100 122.507 C 104.155 122.507 104.200 122.462 104.200 122.407 V 119.407 V 84.407 C 104.200 84.352 104.155 84.307 104.100 84.307 C 104.105 84.307 104.111 84.307 104.116 84.308 L 95.727 82.970 C 95.628 82.954 95.711 83.068 95.727 82.970 L 96.184 80.106 C 96.193 80.051 96.156 80.000 96.101 79.991 L 90.176 79.046 C 90.122 79.037 90.070 79.074 90.062 79.129 L 89.605 81.993 C 89.589 82.091 89.703 82.008 89.605 81.993 L 83.877 81.079 C 83.778 81.063 83.861 81.177 83.877 81.079 L 84.334 78.215 C 84.343 78.160 84.306 78.109 84.251 78.100 L 78.326 77.155 C 78.272 77.146 78.220 77.183 78.212 77.238 L 77.755 80.102 C 77.739 80.200 77.853 80.117 77.755 80.102 L 72.027 79.188 C 71.928 79.172 72.011 79.286 72.027 79.188 L 72.484 76.324 C 72.493 76.269 72.456 76.218 72.401 76.209 L 66.476 75.264 C 66.422 75.255 66.370 75.292 66.362 75.347 L 65.905 78.211 C 65.889 78.309 66.003 78.226 65.905 78.211 L 60.177 77.297 C 60.078 77.281 60.161 77.395 60.177 77.297 L 60.634 74.433 C 60.643 74.378 60.606 74.327 60.551 74.318 L 54.626 73.373 C 54.571 73.364 54.520 73.401 54.511 73.456 L 54.054 76.320 C 54.039 76.418 54.153 76.335 54.054 76.320 L 48.327 75.406 C 48.228 75.390 48.311 75.504 48.327 75.406 L 48.784 72.542 C 48.793 72.487 48.755 72.436 48.701 72.427 L 42.776 71.482 C 42.721 71.473 42.670 71.510 42.661 71.565 L 42.204 74.429 C 42.189 74.527 42.303 74.444 42.204 74.429 L 36.477 73.515 C 36.378 73.499 36.461 73.613 36.477 73.515 L 36.934 70.651 C 36.943 70.596 36.905 70.545 36.851 70.536 L 30.926 69.591 C 30.871 69.582 30.820 69.619 30.811 69.674 L 30.354 72.538 C 30.339 72.636 30.453 72.553 30.354 72.538 L 24.627 71.624 C 24.528 71.608 24.611 71.723 24.627 71.624 L 25.084 68.760 C 25.092 68.705 25.055 68.654 25.001 68.645 L 19.076 67.700 C 19.021 67.691 18.970 67.728 18.961 67.783 L 18.504 70.647 C 18.489 70.746 18.603 70.663 18.504 70.647 L 10.116 69.308 C 10.111 69.307 10.105 69.307 10.100 69.307 C 10.045 69.307 10.000 69.352 10.000 69.407 V 119.407 V 122.407 C 10.000 122.462 10.045 122.507 10.100 122.507 Z" stroke="rgb(0,0,0)" stroke-width="0.20" />
</g>
<g id="p-4" style="fill:none;stroke-linecap:round;stroke-linejoin:round;">
  <path d="M 10.100 64.807 C 10.155 64.807 10.200 64.762 10.200 64.707 V 61.807 C 10.200 61.707 10.100 61.807 10.200 61.807 H 18.000 C 18.100 61.807 18.000 61.707 18.000 61.807 V 64.707 C 18.000 64.762 18.045 64.807 18.100 64.807 H 24.100 C 24.155 64.807 24.200 64.762 24.200 64.707 V 61.807 C 24.200 61.707 24.100 61.807 24.200 61.807 H 30.000 C 30.100 61.807 30.000 61.707 30.000 61.807 V 64.707 C 30.000 64.762 30.045 64.807 30.100 64.807 H 36.100 C 36.155 64.807 36.200 64.762 36.200 64.707 V 61.807 C 36.200 61.707 36.100 61.807 36.200 61.807 H 42.000 C 42.100 61.807 42.000 61.707 42.000 61.807 V 64.707 C 42.000 64.762 42.045 64.807 42.100 64.807 H 48.100 C 48.155 64.807 48.200 64.762 48.200 64.707 V 61.807 C 48.200 61.707 48.100 61.807 48.200 61.807 H 54.000 C 54.100 61.807 54.000 61.707 54.000 61.807 V 64.707 C 54.000 64.762 54.045 64.807 54.100 64.807 H 60.100 C 60.155 64.807 60.200 64.762 60.200 64.707 V 61.807 C 60.200 61.707 60.100 61.807 60.200 61.807 H 66.000 C 66.100 61.807 66.000 61.707 66.000 61.807 V 64.707 C 66.000 64.762 66.045 64.807 66.100 64.807 H 72.100 C 72.155 64.807 72.200 64.762 72.200 64.707 V 61.807 C 72.200 61.707 72.100 61.807 72.200 61.807 H 78.000 C 78.100 61.807 78.000 61.707 78.000 61.807 V 64.707 C 78.000 64.762 78.045 64.807 78.100 64.807 H 84.100 C 84.155 64.807 84.200 64.762 84.200 64.707 V 61.807 C 84.200 61.707 84.100 61.807 84.200 61.807 H 90.000 C 90.100 61.807 90.000 61.707 90.000 61.807 V 64.707 C 90.000 64.762 90.045 64.807 90.100 64.807 H 96.100 C 96.155 64.807 96.200 64.762 96.200 64.707 V 61.807 C 96.200 61.707 96.100 61.807 96.200 61.807 H 104.000 C 104.100 61.807 104.000 61.707 104.000 61.807 V 64.707 C 104.000 64.762 104.045 64.807 104.100 64.807 C 104.155 64.807 104.200 64.762 104.200 64.707 V 61.707 V 26.707 C 104.200 26.652 104.155 26.607 104.100 26.607 C 104.105 26.607 104.111 26.607 104.116 26.608 L 95.727 25.270 C 95.628 25.254 95.711 25.368 95.727 25.270 L 96.184 22.406 C 96.193 22.351 96.156 22.300 96.101 22.291 L 90.176 21.346 C 90.122 21.337 90.070 21.374 90.062 21.429 L 89.605 24.293 C 89.589 24.391 89.703 24.308 89.605 24.293 L 83.877 23.379 C 83.778 23.363 83.861 23.477 83.877 23.379 L 84.334 20.515 C 84.343 20.460 84.306 20.409 84.251 20.400 L 78.326 19.455 C 78.272 19.446 78.220 19.483 78.212 19.538 L 77.755 22.402 C 77.739 22.500 77.853 22.417 77.755 22.402 L 72.027 21.488 C 71.928 21.472 72.011 21.586 72.027 21.488 L 72.484 18.624 C 72.493 18.569 72.456 18.518 72.401 18.509 L 66.476 17.564 C 66.422 17.555 66.370 17.592 66.362 17.647 L 65.905 20.511 C 65.889 20.609 66.003 20.526 65.905 20.511 L 60.177 19.597 C 60.078 19.581 60.161 19.695 60.177 19.597 L 60.634 16.733 C 60.643 16.678 60.606 16.627 60.551 16.618 L 54.626 15.673 C 54.571 15.664 54.520 15.701 54.511 15.756 L 54.054 18.620 C 54.039 18.718 54.153 18.635 54.054 18.620 L 48.327 17.706 C 48.228 17.690 48.311 17.804 48.327 17.706 L 48.784 14.842 C 48.793 14.787 48.755 14.736 48.701 14.727 L 42.776 13.782 C 42.721 13.773 42.670 13.810 42.661 13.865 L 42.204 16.729 C 42.189 16.827 42.303 16.744 42.204 16.729 L 36.477 15.815 C 36.378 15.799 36.461 15.913 36.477 15.815 L 36.934 12.951 C 36.943 12.896 36.905 12.845 36.851 12.836 L 30.926 11.891 C 30.871 11.882 30.820 11.919 30.811 11.974 L 30.354 14.838 C 30.339 14.936 30.453 14.853 30.354 14.838 L 24.627 13.924 C 24.528 13.908 24.611 14.023 24.627 13.924 L 25.084 11.060 C 25.092 11.005 25.055 10.954 25.001 10.945 L 19.076 10.000 C 19.021 9.991 18.970 10.028 18.961 10.083 L 18.504 12.947 C 18.489 13.046 18.603 12.963 18.504 12.947 L 10.116 11.608 C 10.111 11.607 10.105 11.607 10.100 11.607 C 10.045 11.607 10.000 11.652 10.000 11.707 V 61.707 V 64.707 C 10.000 64.762 10.045 64.807 10.100 64.807 Z" stroke="rgb(0,0,0)" stroke-width="0.20" />
</g>
</svg>