<?xml version='1.0' encoding='utf-8'?>
<svg height="333.80mm" viewBox="0.0 0.0 120.20 333.80" width="120.20mm" xmlns="http://www.w3.org/2000/svg" xmlns:cc="http://creativecommons.org/ns#" xmlns:dc="http://purl.org/dc/elements/1.1/" xmlns:inkscape="http://www.inkscape.org/namespaces/inkscape" xmlns:rdf="http://www.w3.org/1999/02/22-rdf-syntax-ns#" xmlns:svg="http://www.w3.org/2000/svg" xmlns:xlink="http://www.w3.org/1999/xlink">
<!--
WallConsole - Outset and angled plate to mount stuff to

Created with Boxes.py (https://boxes.hackerspace-bamberg.de/)
Command line (remove spaces between dashes): boxes WallConsole
-->
<title>WallConsole</title>
<metadata>
<rdf:RDF><cc:Work>
<dc:title>WallMounted - WallConsole</dc:title>
<dc:source>boxes WallConsole</dc:source>
<dc:description>Outset and angled plate to mount stuff to

Created with Boxes.py (https://boxes.hackerspace-bamberg.de/)
Command line: boxes WallConsole
Command line short: boxes WallConsole
</dc:description>
</cc:Work></rdf:RDF></metadata>
<g id="p-0" style="fill:none;stroke-linecap:round;stroke-linejoin:round;">
  <path d="M 10.100 323.796 H 110.100 V 313.796 H 10.100 V 323.796 Z" stroke="rgb(0,0,0)" stroke-width="0.20" />
  <text dominant-baseline="hanging" font-size="6px" style="font-family: sans-serif ; font-weight: normal; font-style: normal; fill: rgb(255,0,0)" text-anchor="middle" transform="matrix( 1.000 0.000 0.000 1.000 60.100 315.796 )">100.0mm, burn:0.10mm</text>
</g>
<g id="p-1" style="fill:none;stroke-linecap:round;stroke-linejoin:round;">
  <path d="M 13.100 312.096 H 107.100 C 107.155 312.096 107.200 312.051 107.200 311.996 C 107.200 312.051 107.155 312.096 107.100 312.096 H 110.100 C 110.155 312.096 110.200 312.051 110.200 311.996 V 303.996 C 110.200 303.941 110.155 303.896 110.100 303.896 H 107.200 C 107.100 303.896 107.200 303.996 107.200 303.896 V 298.096 C 107.200 297.996 107.100 298.096 107.200 298.096 H 110.100 C 110.155 298.096 110.200 298.051 110.200 297.996 V 291.996 C 110.200 291.941 110.155 291.896 110.100 291.896 H 107.200 C 107.100 291.896 107.200 291.996 107.200 291.896 V 286.096 C 107.200 285.996 107.100 286.096 107.200 286.096 H 110.100 C 110.155 286.096 110.200 286.051 110.200 285.996 V 279.996 C 110.200 279.941 110.155 279.896 110.100 279.896 H 107.200 C 107.100 279.896 107.200 279.996 107.200 279.896 V 274.096 C 107.200 273.996 107.100 274.096 107.200 274.096 H 110.100 C 110.155 274.096 110.200 274.051 110.200 273.996 V 267.996 C 110.200 267.941 110.155 267.896 110.100 267.896 H 107.200 C 107.100 267.896 107.200 267.996 107.200 267.896 V 262.096 C 107.200 261.996 107.100 262.096 107.200 262.096 H 110.100 C 110.155 262.096 110.200 262.051 110.200 261.996 V 255.996 C 110.200 255.941 110.155 255.896 110.100 255.896 H 107.200 C 107.100 255.896 107.200 255.996 107.200 255.896 V 250.096 C 107.200 249.996 107.100 250.096 107.200 250.096 H 110.100 C 110.155 250.096 110.200 250.051 110.200 249.996 V 243.996 C 110.200 243.941 110.155 243.896 110.100 243.896 H 107.200 C 107.100 243.896 107.200 243.996 107.200 243.896 V 238.096 C 107.200 237.996 107.100 238.096 107.200 238.096 H 110.100 C 110.155 238.096 110.200 238.051 110.200 237.996 V 231.996 C 110.200 231.941 110.155 231.896 110.100 231.896 H 107.200 C 107.100 231.896 107.200 231.996 107.200 231.896 V 226.096 C 107.200 225.996 107.100 226.096 107.200 226.096 H 110.100 C 110.155 226.096 110.200 226.051 110.200 225.996 V 217.996 C 110.200 217.941 110.155 217.896 110.100 217.896 H 107.100 C 107.155 217.896 107.200 217.941 107.200 217.996 C 107.200 217.941 107.155 217.896 107.100 217.896 H 13.100 C 13.045 217.896 13.000 217.941 13.000 217.996 C 13.000 217.941 13.045 217.896 13.100 217.896 H 10.100 C 10.045 217.896 10.000 217.941 10.000 217.996 V 225.996 C 10.000 226.051 10.045 226.096 10.100 226.096 H 13.000 C 13.100 226.096 13.000 225.996 13.000 226.096 V 231.896 C 13.000 231.996 13.100 231.896 13.000 231.896 H 10.100 C 10.045 231.896 10.000 231.941 10.000 231.996 V 237.996 C 10.000 238.051 10.045 238.096 10.100 238.096 H 13.000 C 13.100 238.096 13.000 237.996 13.000 238.096 V 243.896 C 13.000 243.996 13.100 243.896 13.000 243.896 H 10.100 C 10.045 243.896 10.000 243.941 10.000 243.996 V 249.996 C 10.000 250.051 10.045 250.096 10.100 250.096 H 13.000 C 13.100 250.096 13.000 249.996 13.000 250.096 V 255.896 C 13.000 255.996 13.100 255.896 13.000 255.896 H 10.100 C 10.045 255.896 10.000 255.941 10.000 255.996 V 261.996 C 10.000 262.051 10.045 262.096 10.100 262.096 H 13.000 C 13.100 262.096 13.000 261.996 13.000 262.096 V 267.896 C 13.000 267.996 13.100 267.896 13.000 267.896 H 10.100 C 10.045 267.896 10.000 267.941 10.000 267.996 V 273.996 C 10.000 274.051 10.045 274.096 10.100 274.096 H 13.000 C 13.100 274.096 13.000 273.996 13.000 274.096 V 279.896 C 13.000 279.996 13.100 279.896 13.000 279.896 H 10.100 C 10.045 279.896 10.000 279.941 10.000 279.996 V 285.996 C 10.000 286.051 10.045 286.096 10.100 286.096 H 13.000 C 13.100 286.096 13.000 285.996 13.000 286.096 V 291.896 C 13.000 291.996 13.100 291.896 13.000 291.896 H 10.100 C 10.045 291.896 10.000 291.941 10.000 291.996 V 297.996 C 10.000 298.051 10.045 298.096 10.100 298.096 H 13.000 C 13.100 298.096 13.000 297.996 13.000 298.096 V 303.896 C 13.000 303.996 13.100 303.896 13.000 303.896 H 10.100 C 10.045 303.896 10.000 303.941 10.000 303.996 V 311.996 C 10.000 312.051 10.045 312.096 10.100 312.096 H 13.100 C 13.045 312.096 13.000 312.051 13.000 311.996 C 13.000 312.051 13.045 312.096 13.100 312.096 Z" stroke="rgb(0,0,0)" stroke-width="0.20" />
</g>
<g id="p-2" style="fill:none;stroke-linecap:round;stroke-linejoin:round;">
  <path d="M 13.100 216.396 H 107.100 H 110.100 C 110.155 216.396 110.200 216.351 110.200 216.296 V 207.702 C 110.200 207.646 110.155 207.602 110.100 207.602 H 107.200 C 107.100 207.602 107.200 207.702 107.200 207.602 V 201.802 C 107.200 201.702 107.100 201.802 107.200 201.802 H 110.100 C 110.155 201.802 110.200 201.757 110.200 201.702 V 195.702 C 110.200 195.646 110.155 195.602 110.100 195.602 H 107.200 C 107.100 195.602 107.200 195.702 107.200 195.602 V 189.802 C 107.200 189.702 107.100 189.802 107.200 189.802 H 110.100 C 110.155 189.802 110.200 189.757 110.200 189.702 V 183.702 C 110.200 183.646 110.155 183.602 110.100 183.602 H 107.200 C 107.100 183.602 107.200 183.702 107.200 183.602 V 177.802 C 107.200 177.702 107.100 177.802 107.200 177.802 H 110.100 C 110.155 177.802 110.200 177.757 110.200 177.702 V 171.702 C 110.200 171.646 110.155 171.602 110.100 171.602 H 107.200 C 107.100 171.602 107.200 171.702 107.200 171.602 V 165.802 C 107.200 165.702 107.100 165.802 107.200 165.802 H 110.100 C 110.155 165.802 110.200 165.757 110.200 165.702 V 159.702 C 110.200 159.646 110.155 159.602 110.100 159.602 H 107.200 C 107.100 159.602 107.200 159.702 107.200 159.602 V 153.802 C 107.200 153.702 107.100 153.802 107.200 153.802 H 110.100 C 110.155 153.802 110.200 153.757 110.200 153.702 V 147.702 C 110.200 147.646 110.155 147.602 110.100 147.602 H 107.200 C 107.100 147.602 107.200 147.702 107.200 147.602 V 141.802 C 107.200 141.702 107.100 141.802 107.200 141.802 H 110.100 C 110.155 141.802 110.200 141.757 110.200 141.702 V 135.702 C 110.200 135.646 110.155 135.602 110.100 135.602 H 107.200 C 107.100 135.602 107.200 135.702 107.200 135.602 V 129.802 C 107.200 129.702 107.100 129.802 107.200 129.802 H 110.100 C 110.155 129.802 110.200 129.757 110.200 129.702 V 121.107 C 110.200 121.052 110.155 121.007 110.100 121.007 H 107.100 H 13.100 H 10.100 C 10.045 121.007 10.000 121.052 10.000 121.107 V 129.702 C 10.000 129.757 10.045 129.802 10.100 129.802 H 13.000 C 13.100 129.802 13.000 129.702 13.000 129.802 V 135.602 C 13.000 135.702 13.100 135.602 13.000 135.602 H 10.100 C 10.045 135.602 10.000 135.646 10.000 135.702 V 141.702 C 10.000 141.757 10.045 141.802 10.100 141.802 H 13.000 C 13.100 141.802 13.000 141.702 13.000 141.802 V 147.602 C 13.000 147.702 13.100 147.602 13.000 147.602 H 10.100 C 10.045 147.602 10.000 147.646 10.000 147.702 V 153.702 C 10.000 153.757 10.045 153.802 10.100 153.802 H 13.000 C 13.100 153.802 13.000 153.702 13.000 153.802 V 159.602 C 13.000 159.702 13.100 159.602 13.000 159.602 H 10.100 C 10.045 159.602 10.000 159.646 10.000 159.702 V 165.702 C 10.000 165.757 10.045 165.802 10.100 165.802 H 13.000 C 13.100 165.802 13.000 165.702 13.000 165.802 V 171.602 C 13.000 171.702 13.100 171.602 13.000 171.602 H 10.100 C 10.045 171.602 10.000 171.646 10.000 171.702 V 177.702 C 10.000 177.757 10.045 177.802 10.100 177.802 H 13.000 C 13.100 177.802 13.000 177.702 13.000 177.802 V 183.602 C 13.000 183.702 13.100 183.602 13.000 183.602 H 10.100 C 10.045 183.602 10.000 183.646 10.000 183.702 V 189.702 C 10.000 189.757 10.045 189.802 10.100 189.802 H 13.000 C 13.100 189.802 13.000 189.702 13.000 189.802 V 195.602 C 13.000 195.702 13.100 195.602 13.000 195.602 H 10.100 C 10.045 195.602 10.000 195.646 10.000 195.702 V 201.702 C 10.000 201.757 10.045 201.802 10.100 201.802 H 13.000 C 13.100 201.802 13.000 201.702 13.000 201.802 V 207.602 C 13.000 207.702 13.100 207.602 13.000 207.602 H 10.100 C 10.045 207.602 10.000 207.646 10.000 207.702 V 216.296 C 10.000 216.351 10.045 216.396 10.100 216.396 H 13.100 Z" stroke="rgb(0,0,0)" stroke-width="0.20" />
</g>
<g id="p-3" style="fill:none;stroke-linecap:round;stroke-linejoin:round;">
  <path d="M 10.100 119.507 C 10.155 119.507 10.200 119.462 10.200 119.407 V 116.507 C 10.200 116.407 10.100 116.507 10.200 116.507 H 18.000 C 18.100 116.507 18.000 116.407 18.000 116.507 V 119.407 C 18.000 119.462 18.045 119.507 18.100 119.507 H 24.100 C 24.155 119.507 24.200 119.462 24.200 119.407 V 116.507 C 24.200 116.407 24.100 116.507 24.200 116.507 H 30.000 C 30.100 116.507 30.000 116.407 30.000 116.507 V 119.407 C 30.000 119.462 30.045 119.507 30.100 119.507 H 36.100 C 36.155 119.507 36.200 119.462 36.200 119.407 V 116.507 C 36.200 116.407 36.100 116.507 36.200 116.507 H 42.000 C 42.100 116.507 42.000 116.407 42.000 116.507 V 119.407 C 42.000 119.462 42.045 119.507 42.100 119.507 H 48.100 C 48.155 119.507 48.200 119.462 48.200 119.407 V 116.507 C 48.200 116.407 48.100 116.507 48.200 116.507 H 54.000 C 54.100 116.507 54.000 116.407 54.000 116.507 V 119.407 C 54.000 119.462 54.045 119.507 54.100 119.507 H 60.100 C 60.155 119.507 60.200 119.462 60.200 119.407 V 116.507 C 60.200 116.407 60.100 116.507 60.200 116.507 H 66.000 C 66.100 116.507 66.000 116.407 66.000 116.507 V 119.407 C 66.000 119.462 66.045 119.507 66.100 119.507 H 72.100 C 72.155 119.507 72.200 119.462 72.200 119.407 V 116.507 C 72.200 116.407 72.100 116.507 72.200 116.507 H 78.000 C 78.100 116.507 78.000 116.407 78.000 116.507 V 119.407 C 78.000 119.462 78.045 119.507 78.100 119.507 H 84.100 C 84.155 119.507 84.200 119.462 84.200 119.407 V 116.507 C 84.200 116.407 84.100 116.507 84.200 116.507 H 90.000 C 90.100 116.507 90.000 116.407 90.000 116.507 V 119.407 C 90.000 119.462 90.045 119.507 90.100 119.507 H 96.100 C 96.155 119.507 96.200 119.462 96.200 119.407 V 116.507 C 96.200 116.407 96.100 116.507 96.200 116.507 H 104.000 C 104.100 116.507 104.000 116.407 104.000 116.507 V 119.407 C 104.000 119.462 104.045 119.507 104.100 119.507 C 104.155 119.507 104.200 119.462 104.200 119.407 V 116.407 V 81.407 C 104.200 81.352 104.155 81.307 104.100 81.307 C 104.105 81.307 104.111 81.307 104.116 81.308 L 95.727 79.970 C 95.628 79.954 95.711 80.068 95.727 79.970 L 96.184 77.106 C 96.193 77.051 96.156 77.000 96.101 76.991 L 90.176 76.046 C 90.122 76.037 90.070 76.074 90.062 76.129 L 89.605 78.993 C 89.589 79.091 89.703 79.008 89.605 78.993 L 83.877 78.079 C 83.778 78.063 83.861 78.177 83.877 78.079 L 84.334 75.215 C 84.343 75.160 84.306 75.109 84.251 75.100 L 78.326 74.155 C 78.272 74.146 78.220 74.183 78.212 74.238 L 77.755 77.102 C 77.739 77.200 77.853 77.117 77.755 77.102 L 72.027 76.188 C 71.928 76.172 72.011 76.286 72.027 76.188 L 72.484 73.324 C 72.493 73.269 72.456 73.218 72.401 73.209 L 66.476 72.264 C 66.422 72.255 66.370 72.292 66.362 72.347 L 65.905 75.211 C 65.889 75.309 66.003 75.226 65.905 75.211 L 60.177 74.297 C 60.078 74.281 60.161 74.395 60.177 74.297 L 60.634 71.433 C 60.643 71.378 60.606 71.327 60.551 71.318 L 54.626 70.373 C 54.571 70.364 54.520 70.401 54.511 70.456 L 54.054 73.320 C 54.039 73.418 54.153 73.335 54.054 73.320 L 48.327 72.406 C 48.228 72.390 48.311 72.504 48.327 72.406 L 48.784 69.542 C 48.793 69.487 48.755 69.436 48.701 69.427 L 42.776 68.482 C 42.721 68.473 42.670 68.510 42.661 68.565 L 42.204 71.429 C 42.189 71.527 42.303 71.444 42.204 71.429 L 36.477 70.515 C 36.378 70.499 36.461 70.613 36.477 70.515 L 36.934 67.651 C 36.943 67.596 36.905 67.545 36.851 67.536 L 30.926 66.591 C 30.871 66.582 30.820 66.619 30.811 66.674 L 30.354 69.538 C 30.339 69.636 30.453 69.553 30.354 69.538 L 24.627 68.624 C 24.528 68.608 24.611 68.723 24.627 68.624 L 25.084 65.760 C 25.092 65.705 25.055 65.654 25.001 65.645 L 19.076 64.700 C 19.021 64.691 18.970 64.728 18.961 64.783 L 18.504 67.647 C 18.489 67.746 18.603 67.663 18.504 67.647 L 10.116 66.308 C 10.111 66.307 10.105 66.307 10.100 66.307 C 10.045 66.307 10.000 66.352 10.000 66.407 V 116.407 V 119.407 C 10.000 119.462 10.045 119.507 10.100 119.507 Z" stroke="rgb(0,0,0)" stroke-width="0.20" />
</g>
<g id="p-4" style="fill:none;stroke-linecap:round;stroke-linejoin:round;">
  <path d="M 10.100 64.807 C 10.155 64.807 10.200 64.762 10.200 64.707 V 61.807 C 10.200 61.707 10.100 61.807 10.200 61.807 H 18.000 C 18.100 61.807 18.000 61.707 18.000 61.807 V 64.707 C 18.000 64.762 18.045 64.807 18.100 64.807 H 24.100 C 24.155 64.807 24.200 64.762 24.200 64.707 V 61.807 C 24.200 61.707 24.100 61.807 24.200 61.807 H 30.000 C 30.100 61.807 30.000 61.707 30.000 61.807 V 64.707 C 30.000 64.762 30.045 64.807 30.100 64.807 H 36.100 C 36.155 64.807 36.200 64.762 36.200 64.707 V 61.807 C 36.200 61.707 36.100 61.807 36.200 61.807 H 42.000 C 42.100 61.807 42.000 61.707 42.000 61.807 V 64.707 C 42.000 64.762 42.045 64.807 42.100 64.807 H 48.100 C 48.155 64.807 48.200 64.762 48.200 64.707 V 61.807 C 48.200 61.707 48.100 61.807 48.200 61.807 H 54.000 C 54.100 61.807 54.000 61.707 54.000 61.807 V 64.707 C 54.000 64.762 54.045 64.807 54.100 64.807 H 60.100 C 60.155 64.807 60.200 64.762 60.200 64.707 V 61.807 C 60.200 61.707 60.100 61.807 60.200 61.807 H 66.000 C 66.100 61.807 66.000 61.707 66.000 61.807 V 64.707 C 66.000 64.762 66.045 64.807 66.100 64.807 H 72.100 C 72.155 64.807 72.200 64.762 72.200 64.707 V 61.807 C 72.200 61.707 72.100 61.807 72.200 61.807 H 78.000 C 78.100 61.807 78.000 61.707 78.000 61.807 V 64.707 C 78.000 64.762 78.045 64.807 78.100 64.807 H 84.100 C 84.155 64.807 84.200 64.762 84.200 64.707 V 61.807 C 84.200 61.707 84.100 61.807 84.200 61.807 H 90.000 C 90.100 61.807 90.000 61.707 90.000 61.807 V 64.707 C 90.000 64.762 90.045 64.807 90.100 64.807 H 96.100 C 96.155 64.807 96.200 64.762 96.200 64.707 V 61.807 C 96.200 61.707 96.100 61.807 96.200 61.807 H 104.000 C 104.100 61.807 104.000 61.707 104.000 61.807 V 64.707 C 104.000 64.762 104.045 64.807 104.100 64.807 C 104.155 64.807 104.200 64.762 104.200 64.707 V 61.707 V 26.707 C 104.200 26.652 104.155 26.607 104.100 26.607 C 104.105 26.607 104.111 26.607 104.116 26.608 L 95.727 25.270 C 95.628 25.254 95.711 25.368 95.727 25.270 L 96.184 22.406 C 96.193 22.351 96.156 22.300 96.101 22.291 L 90.176 21.346 C 90.122 21.337 90.070 21.374 90.062 21.429 L 89.605 24.293 C 89.589 24.391 89.703 24.308 89.605 24.293 L 83.877 23.379 C 83.778 23.363 83.861 23.477 83.877 23.379 L 84.334 20.515 C 84.343 20.460 84.306 20.409 84.251 20.400 L 78.326 19.455 C 78.272 19.446 78.220 19.483 78.212 19.538 L 77.755 22.402 C 77.739 22.500 77.853 22.417 77.755 22.402 L 72.027 21.488 C 71.928 21.472 72.011 21.586 72.027 21.488 L 72.484 18.624 C 72.493 18.569 72.456 18.518 72.401 18.509 L 66.476 17.564 C 66.422 17.555 66.370 17.592 66.362 17.647 L 65.905 20.511 C 65.889 20.609 66.003 20.526 65.905 20.511 L 60.177 19.597 C 60.078 19.581 60.161 19.695 60.177 19.597 L 60.634 16.733 C 60.643 16.678 60.606 16.627 60.551 16.618 L 54.626 15.673 C 54.571 15.664 54.520 15.701 54.511 15.756 L 54.054 18.620 C 54.039 18.718 54.153 18.635 54.054 18.620 L 48.327 17.706 C 48.228 17.690 48.311 17.804 48.327 17.706 L 48.784 14.842 C 48.793 14.787 48.755 14.736 48.701 14.727 L 42.776 13.782 C 42.721 13.773 42.670 13.810 42.661 13.865 L 42.204 16.729 C 42.189 16.827 42.303 16.744 42.204 16.729 L 36.477 15.815 C 36.378 15.799 36.461 15.913 36.477 15.815 L 36.934 12.951 C 36.943 12.896 36.905 12.845 36.851 12.836 L 30.926 11.891 C 30.871 11.882 30.820 11.919 30.811 11.974 L 30.354 14.838 C 30.339 14.936 30.453 14.853 30.354 14.838 L 24.627 13.924 C 24.528 13.908 24.611 14.023 24.627 13.924 L 25.084 11.060 C 25.092 11.005 25.055 10.954 25.001 10.945 L 19.076 10.000 C 19.021 9.991 18.970 10.028 18.961 10.083 L 18.504 12.947 C 18.489 13.046 18.603 12.963 18.504 12.947 L 10.116 11.608 C 10.111 11.607 10.105 11.607 10.100 11.607 C 10.045 11.607 10.000 11.652 10.000 11.707 V 61.707 V 64.707 C 10.000 64.762 10.045 64.807 10.100 64.807 Z" stroke="rgb(0,0,0)" stroke-width="0.20" />
</g>
</svg>