<?xml version='1.0' encoding='utf-8'?>
<svg height="999.50mm" viewBox="0.0 0.0 181.90 999.50" width="181.90mm" xmlns="http://www.w3.org/2000/svg" xmlns:cc="http://creativecommons.org/ns#" xmlns:dc="http://purl.org/dc/elements/1.1/" xmlns:inkscape="http://www.inkscape.org/namespaces/inkscape" xmlns:rdf="http://www.w3.org/1999/02/22-rdf-syntax-ns#" xmlns:svg="http://www.w3.org/2000/svg" xmlns:xlink="http://www.w3.org/1999/xlink">
<!--
WallTypeTray - Type tray - allows only continuous walls

Created with Boxes.py (https://festi.info/boxes.py)
Command line (remove spaces between dashes): boxes WallTypeTray
-->
<title>WallTypeTray</title>
<metadata>
<rdf:RDF><cc:Work>
<dc:title>WallMounted - WallTypeTray</dc:title>
<dc:source>boxes WallTypeTray</dc:source>
<dc:description>Type tray - allows only continuous walls

Created with Boxes.py (https://festi.info/boxes.py)
Command line: boxes WallTypeTray
Command line short: boxes WallTypeTray
</dc:description>
</cc:Work></rdf:RDF></metadata>
<g id="p-0" style="fill:none;stroke-linecap:round;stroke-linejoin:round;">
  <path d="M 18.800 989.500 H 118.800 V 979.500 H 18.800 V 989.500 Z" stroke="rgb(0,0,0)" stroke-width="0.20" />
  <text dominant-baseline="hanging" font-size="8px" style="font-family: sans-serif ; font-weight: normal; font-style: normal; fill: rgb(255,0,0)" text-anchor="middle" transform="matrix( 1.000 0.000 0.000 1.000 68.800 980.500 )">100.00mm, burn:0.10mm</text>
</g>
<g id="p-1" style="fill:none;stroke-linecap:round;stroke-linejoin:round;">
  <path d="M 70.700 960.700 V 963.600 C 70.700 963.700 70.800 963.600 70.700 963.600 H 67.900 C 67.800 963.600 67.900 963.700 67.900 963.600 V 957.800 C 67.900 957.700 67.800 957.800 67.900 957.800 H 70.700 C 70.800 957.800 70.700 957.700 70.700 957.800 V 960.700 Z" stroke="rgb(0,0,255)" stroke-width="0.20" />
  <path d="M 70.700 948.700 V 951.600 C 70.700 951.700 70.800 951.600 70.700 951.600 H 67.900 C 67.800 951.600 67.900 951.700 67.900 951.600 V 945.800 C 67.900 945.700 67.800 945.800 67.900 945.800 H 70.700 C 70.800 945.800 70.700 945.700 70.700 945.800 V 948.700 Z" stroke="rgb(0,0,255)" stroke-width="0.20" />
  <path d="M 70.700 936.700 V 939.600 C 70.700 939.700 70.800 939.600 70.700 939.600 H 67.900 C 67.800 939.600 67.900 939.700 67.900 939.600 V 933.800 C 67.900 933.700 67.800 933.800 67.900 933.800 H 70.700 C 70.800 933.800 70.700 933.700 70.700 933.800 V 936.700 Z" stroke="rgb(0,0,255)" stroke-width="0.20" />
  <path d="M 70.700 924.700 V 927.600 C 70.700 927.700 70.800 927.600 70.700 927.600 H 67.900 C 67.800 927.600 67.900 927.700 67.900 927.600 V 921.800 C 67.900 921.700 67.800 921.800 67.900 921.800 H 70.700 C 70.800 921.800 70.700 921.700 70.700 921.800 V 924.700 Z" stroke="rgb(0,0,255)" stroke-width="0.20" />
  <path d="M 70.700 912.700 V 915.600 C 70.700 915.700 70.800 915.600 70.700 915.600 H 67.900 C 67.800 915.600 67.900 915.700 67.900 915.600 V 909.800 C 67.900 909.700 67.800 909.800 67.900 909.800 H 70.700 C 70.800 909.800 70.700 909.700 70.700 909.800 V 912.700 Z" stroke="rgb(0,0,255)" stroke-width="0.20" />
  <path d="M 70.700 900.700 V 903.600 C 70.700 903.700 70.800 903.600 70.700 903.600 H 67.900 C 67.800 903.600 67.900 903.700 67.900 903.600 V 897.800 C 67.900 897.700 67.800 897.800 67.900 897.800 H 70.700 C 70.800 897.800 70.700 897.700 70.700 897.800 V 900.700 Z" stroke="rgb(0,0,255)" stroke-width="0.20" />
  <path d="M 70.700 888.700 V 891.600 C 70.700 891.700 70.800 891.600 70.700 891.600 H 67.900 C 67.800 891.600 67.900 891.700 67.900 891.600 V 885.800 C 67.900 885.700 67.800 885.800 67.900 885.800 H 70.700 C 70.800 885.800 70.700 885.700 70.700 885.800 V 888.700 Z" stroke="rgb(0,0,255)" stroke-width="0.20" />
  <path d="M 119.700 960.700 V 963.600 C 119.700 963.700 119.800 963.600 119.700 963.600 H 116.900 C 116.800 963.600 116.900 963.700 116.900 963.600 V 957.800 C 116.900 957.700 116.800 957.800 116.900 957.800 H 119.700 C 119.800 957.800 119.700 957.700 119.700 957.800 V 960.700 Z" stroke="rgb(0,0,255)" stroke-width="0.20" />
  <path d="M 119.700 948.700 V 951.600 C 119.700 951.700 119.800 951.600 119.700 951.600 H 116.900 C 116.800 951.600 116.900 951.700 116.900 951.600 V 945.800 C 116.900 945.700 116.800 945.800 116.900 945.800 H 119.700 C 119.800 945.800 119.700 945.700 119.700 945.800 V 948.700 Z" stroke="rgb(0,0,255)" stroke-width="0.20" />
  <path d="M 119.700 936.700 V 939.600 C 119.700 939.700 119.800 939.600 119.700 939.600 H 116.900 C 116.800 939.600 116.900 939.700 116.900 939.600 V 933.800 C 116.900 933.700 116.800 933.800 116.900 933.800 H 119.700 C 119.800 933.800 119.700 933.700 119.700 933.800 V 936.700 Z" stroke="rgb(0,0,255)" stroke-width="0.20" />
  <path d="M 119.700 924.700 V 927.600 C 119.700 927.700 119.800 927.600 119.700 927.600 H 116.900 C 116.800 927.600 116.900 927.700 116.900 927.600 V 921.800 C 116.900 921.700 116.800 921.800 116.900 921.800 H 119.700 C 119.800 921.800 119.700 921.700 119.700 921.800 V 924.700 Z" stroke="rgb(0,0,255)" stroke-width="0.20" />
  <path d="M 119.700 912.700 V 915.600 C 119.700 915.700 119.800 915.600 119.700 915.600 H 116.900 C 116.800 915.600 116.900 915.700 116.900 915.600 V 909.800 C 116.900 909.700 116.800 909.800 116.900 909.800 H 119.700 C 119.800 909.800 119.700 909.700 119.700 909.800 V 912.700 Z" stroke="rgb(0,0,255)" stroke-width="0.20" />
  <path d="M 119.700 900.700 V 903.600 C 119.700 903.700 119.800 903.600 119.700 903.600 H 116.900 C 116.800 903.600 116.900 903.700 116.900 903.600 V 897.800 C 116.900 897.700 116.800 897.800 116.900 897.800 H 119.700 C 119.800 897.800 119.700 897.700 119.700 897.800 V 900.700 Z" stroke="rgb(0,0,255)" stroke-width="0.20" />
  <path d="M 119.700 888.700 V 891.600 C 119.700 891.700 119.800 891.600 119.700 891.600 H 116.900 C 116.800 891.600 116.900 891.700 116.900 891.600 V 885.800 C 116.900 885.700 116.800 885.800 116.900 885.800 H 119.700 C 119.800 885.800 119.700 885.700 119.700 885.800 V 888.700 Z" stroke="rgb(0,0,255)" stroke-width="0.20" />
  <path d="M 33.800 974.600 H 30.900 C 30.800 974.600 30.900 974.700 30.900 974.600 V 971.800 C 30.900 971.700 30.800 971.800 30.900 971.800 H 36.700 C 36.800 971.800 36.700 971.700 36.700 971.800 V 974.600 C 36.700 974.700 36.800 974.600 36.700 974.600 H 33.800 Z" stroke="rgb(0,0,255)" stroke-width="0.20" />
  <path d="M 45.800 974.600 H 42.900 C 42.800 974.600 42.900 974.700 42.900 974.600 V 971.800 C 42.900 971.700 42.800 971.800 42.900 971.800 H 48.700 C 48.800 971.800 48.700 971.700 48.700 971.800 V 974.600 C 48.700 974.700 48.800 974.600 48.700 974.600 H 45.800 Z" stroke="rgb(0,0,255)" stroke-width="0.20" />
  <path d="M 57.800 974.600 H 54.900 C 54.800 974.600 54.900 974.700 54.900 974.600 V 971.800 C 54.900 971.700 54.800 971.800 54.900 971.800 H 60.700 C 60.800 971.800 60.700 971.700 60.700 971.800 V 974.600 C 60.700 974.700 60.800 974.600 60.700 974.600 H 57.800 Z" stroke="rgb(0,0,255)" stroke-width="0.20" />
  <path d="M 69.800 974.600 H 66.900 C 66.800 974.600 66.900 974.700 66.900 974.600 V 971.800 C 66.900 971.700 66.800 971.800 66.900 971.800 H 72.700 C 72.800 971.800 72.700 971.700 72.700 971.800 V 974.600 C 72.700 974.700 72.800 974.600 72.700 974.600 H 69.800 Z" stroke="rgb(0,0,255)" stroke-width="0.20" />
  <path d="M 81.800 974.600 H 78.900 C 78.800 974.600 78.900 974.700 78.900 974.600 V 971.800 C 78.900 971.700 78.800 971.800 78.900 971.800 H 84.700 C 84.800 971.800 84.700 971.700 84.700 971.800 V 974.600 C 84.700 974.700 84.800 974.600 84.700 974.600 H 81.800 Z" stroke="rgb(0,0,255)" stroke-width="0.20" />
  <path d="M 93.800 974.600 H 90.900 C 90.800 974.600 90.900 974.700 90.900 974.600 V 971.800 C 90.900 971.700 90.800 971.800 90.900 971.800 H 96.700 C 96.800 971.800 96.700 971.700 96.700 971.800 V 974.600 C 96.700 974.700 96.800 974.600 96.700 974.600 H 93.800 Z" stroke="rgb(0,0,255)" stroke-width="0.20" />
  <path d="M 105.800 974.600 H 102.900 C 102.800 974.600 102.900 974.700 102.900 974.600 V 971.800 C 102.900 971.700 102.800 971.800 102.900 971.800 H 108.700 C 108.800 971.800 108.700 971.700 108.700 971.800 V 974.600 C 108.700 974.700 108.800 974.600 108.700 974.600 H 105.800 Z" stroke="rgb(0,0,255)" stroke-width="0.20" />
  <path d="M 117.800 974.600 H 114.900 C 114.800 974.600 114.900 974.700 114.900 974.600 V 971.800 C 114.900 971.700 114.800 971.800 114.900 971.800 H 120.700 C 120.800 971.800 120.700 971.700 120.700 971.800 V 974.600 C 120.700 974.700 120.800 974.600 120.700 974.600 H 117.800 Z" stroke="rgb(0,0,255)" stroke-width="0.20" />
  <path d="M 129.800 974.600 H 126.900 C 126.800 974.600 126.900 974.700 126.900 974.600 V 971.800 C 126.900 971.700 126.800 971.800 126.900 971.800 H 132.700 C 132.800 971.800 132.700 971.700 132.700 971.800 V 974.600 C 132.700 974.700 132.800 974.600 132.700 974.600 H 129.800 Z" stroke="rgb(0,0,255)" stroke-width="0.20" />
  <path d="M 141.800 974.600 H 138.900 C 138.800 974.600 138.900 974.700 138.900 974.600 V 971.800 C 138.900 971.700 138.800 971.800 138.900 971.800 H 144.700 C 144.800 971.800 144.700 971.700 144.700 971.800 V 974.600 C 144.700 974.700 144.800 974.600 144.700 974.600 H 141.800 Z" stroke="rgb(0,0,255)" stroke-width="0.20" />
  <path d="M 153.800 974.600 H 150.900 C 150.800 974.600 150.900 974.700 150.900 974.600 V 971.800 C 150.900 971.700 150.800 971.800 150.900 971.800 H 156.700 C 156.800 971.800 156.700 971.700 156.700 971.800 V 974.600 C 156.700 974.700 156.800 974.600 156.700 974.600 H 153.800 Z" stroke="rgb(0,0,255)" stroke-width="0.20" />
  <path d="M 21.800 977.800 H 165.800 C 165.855 977.800 165.900 977.755 165.900 977.700 V 971.700 V 963.800 C 165.900 963.700 165.800 963.800 165.900 963.800 H 168.800 C 168.855 963.800 168.900 963.755 168.900 963.700 V 957.700 C 168.900 957.645 168.855 957.600 168.800 957.600 H 165.900 C 165.800 957.600 165.900 957.700 165.900 957.600 V 951.800 C 165.900 951.700 165.800 951.800 165.900 951.800 H 168.800 C 168.855 951.800 168.900 951.755 168.900 951.700 V 945.700 C 168.900 945.645 168.855 945.600 168.800 945.600 H 165.900 C 165.800 945.600 165.900 945.700 165.900 945.600 V 939.800 C 165.900 939.700 165.800 939.800 165.900 939.800 H 168.800 C 168.855 939.800 168.900 939.755 168.900 939.700 V 933.700 C 168.900 933.645 168.855 933.600 168.800 933.600 H 165.900 C 165.800 933.600 165.900 933.700 165.900 933.600 V 927.800 C 165.900 927.700 165.800 927.800 165.900 927.800 H 168.800 C 168.855 927.800 168.900 927.755 168.900 927.700 V 921.700 C 168.900 921.645 168.855 921.600 168.800 921.600 H 165.900 C 165.800 921.600 165.900 921.700 165.900 921.600 V 915.800 C 165.900 915.700 165.800 915.800 165.900 915.800 H 168.800 C 168.855 915.800 168.900 915.755 168.900 915.700 V 909.700 C 168.900 909.645 168.855 909.600 168.800 909.600 H 165.900 C 165.800 909.600 165.900 909.700 165.900 909.600 V 903.800 C 165.900 903.700 165.800 903.800 165.900 903.800 H 168.800 C 168.855 903.800 168.900 903.755 168.900 903.700 V 897.700 C 168.900 897.645 168.855 897.600 168.800 897.600 H 165.900 C 165.800 897.600 165.900 897.700 165.900 897.600 V 891.800 C 165.900 891.700 165.800 891.800 165.900 891.800 H 168.800 C 168.855 891.800 168.900 891.755 168.900 891.700 V 885.700 C 168.900 885.645 168.855 885.600 168.800 885.600 H 165.900 C 165.800 885.600 165.900 885.700 165.900 885.600 V 877.700 C 165.900 877.645 165.855 877.600 165.800 877.600 H 21.800 C 21.745 877.600 21.700 877.645 21.700 877.700 V 885.600 C 21.700 885.700 21.800 885.600 21.700 885.600 H 18.800 C 18.745 885.600 18.700 885.645 18.700 885.700 V 891.700 C 18.700 891.755 18.745 891.800 18.800 891.800 H 21.700 C 21.800 891.800 21.700 891.700 21.700 891.800 V 897.600 C 21.700 897.700 21.800 897.600 21.700 897.600 H 18.800 C 18.745 897.600 18.700 897.645 18.700 897.700 V 903.700 C 18.700 903.755 18.745 903.800 18.800 903.800 H 21.700 C 21.800 903.800 21.700 903.700 21.700 903.800 V 909.600 C 21.700 909.700 21.800 909.600 21.700 909.600 H 18.800 C 18.745 909.600 18.700 909.645 18.700 909.700 V 915.700 C 18.700 915.755 18.745 915.800 18.800 915.800 H 21.700 C 21.800 915.800 21.700 915.700 21.700 915.800 V 921.600 C 21.700 921.700 21.800 921.600 21.700 921.600 H 18.800 C 18.745 921.600 18.700 921.645 18.700 921.700 V 927.700 C 18.700 927.755 18.745 927.800 18.800 927.800 H 21.700 C 21.800 927.800 21.700 927.700 21.700 927.800 V 933.600 C 21.700 933.700 21.800 933.600 21.700 933.600 H 18.800 C 18.745 933.600 18.700 933.645 18.700 933.700 V 939.700 C 18.700 939.755 18.745 939.800 18.800 939.800 H 21.700 C 21.800 939.800 21.700 939.700 21.700 939.800 V 945.600 C 21.700 945.700 21.800 945.600 21.700 945.600 H 18.800 C 18.745 945.600 18.700 945.645 18.700 945.700 V 951.700 C 18.700 951.755 18.745 951.800 18.800 951.800 H 21.700 C 21.800 951.800 21.700 951.700 21.700 951.800 V 957.600 C 21.700 957.700 21.800 957.600 21.700 957.600 H 18.800 C 18.745 957.600 18.700 957.645 18.700 957.700 V 963.700 C 18.700 963.755 18.745 963.800 18.800 963.800 H 21.700 C 21.800 963.800 21.700 963.700 21.700 963.800 V 971.700 V 977.700 C 21.700 977.755 21.745 977.800 21.800 977.800 Z" stroke="rgb(0,0,0)" stroke-width="0.20" />
</g>
<g id="p-2" style="fill:none;stroke-linecap:round;stroke-linejoin:round;">
  <path d="M 116.900 859.000 V 861.900 C 116.900 862.000 116.800 861.900 116.900 861.900 H 119.700 C 119.800 861.900 119.700 862.000 119.700 861.900 V 856.100 C 119.700 856.000 119.800 856.100 119.700 856.100 H 116.900 C 116.800 856.100 116.900 856.000 116.900 856.100 V 859.000 Z" stroke="rgb(0,0,255)" stroke-width="0.20" />
  <path d="M 116.900 847.000 V 849.900 C 116.900 850.000 116.800 849.900 116.900 849.900 H 119.700 C 119.800 849.900 119.700 850.000 119.700 849.900 V 844.100 C 119.700 844.000 119.800 844.100 119.700 844.100 H 116.900 C 116.800 844.100 116.900 844.000 116.900 844.100 V 847.000 Z" stroke="rgb(0,0,255)" stroke-width="0.20" />
  <path d="M 116.900 835.000 V 837.900 C 116.900 838.000 116.800 837.900 116.900 837.900 H 119.700 C 119.800 837.900 119.700 838.000 119.700 837.900 V 832.100 C 119.700 832.000 119.800 832.100 119.700 832.100 H 116.900 C 116.800 832.100 116.900 832.000 116.900 832.100 V 835.000 Z" stroke="rgb(0,0,255)" stroke-width="0.20" />
  <path d="M 116.900 823.000 V 825.900 C 116.900 826.000 116.800 825.900 116.900 825.900 H 119.700 C 119.800 825.900 119.700 826.000 119.700 825.900 V 820.100 C 119.700 820.000 119.800 820.100 119.700 820.100 H 116.900 C 116.800 820.100 116.900 820.000 116.900 820.100 V 823.000 Z" stroke="rgb(0,0,255)" stroke-width="0.20" />
  <path d="M 116.900 811.000 V 813.900 C 116.900 814.000 116.800 813.900 116.900 813.900 H 119.700 C 119.800 813.900 119.700 814.000 119.700 813.900 V 808.100 C 119.700 808.000 119.800 808.100 119.700 808.100 H 116.900 C 116.800 808.100 116.900 808.000 116.900 808.100 V 811.000 Z" stroke="rgb(0,0,255)" stroke-width="0.20" />
  <path d="M 116.900 799.000 V 801.900 C 116.900 802.000 116.800 801.900 116.900 801.900 H 119.700 C 119.800 801.900 119.700 802.000 119.700 801.900 V 796.100 C 119.700 796.000 119.800 796.100 119.700 796.100 H 116.900 C 116.800 796.100 116.900 796.000 116.900 796.100 V 799.000 Z" stroke="rgb(0,0,255)" stroke-width="0.20" />
  <path d="M 116.900 787.000 V 789.900 C 116.900 790.000 116.800 789.900 116.900 789.900 H 119.700 C 119.800 789.900 119.700 790.000 119.700 789.900 V 784.100 C 119.700 784.000 119.800 784.100 119.700 784.100 H 116.900 C 116.800 784.100 116.900 784.000 116.900 784.100 V 787.000 Z" stroke="rgb(0,0,255)" stroke-width="0.20" />
  <path d="M 67.900 859.000 V 861.900 C 67.900 862.000 67.800 861.900 67.900 861.900 H 70.700 C 70.800 861.900 70.700 862.000 70.700 861.900 V 856.100 C 70.700 856.000 70.800 856.100 70.700 856.100 H 67.900 C 67.800 856.100 67.900 856.000 67.900 856.100 V 859.000 Z" stroke="rgb(0,0,255)" stroke-width="0.20" />
  <path d="M 67.900 847.000 V 849.900 C 67.900 850.000 67.800 849.900 67.900 849.900 H 70.700 C 70.800 849.900 70.700 850.000 70.700 849.900 V 844.100 C 70.700 844.000 70.800 844.100 70.700 844.100 H 67.900 C 67.800 844.100 67.900 844.000 67.900 844.100 V 847.000 Z" stroke="rgb(0,0,255)" stroke-width="0.20" />
  <path d="M 67.900 835.000 V 837.900 C 67.900 838.000 67.800 837.900 67.900 837.900 H 70.700 C 70.800 837.900 70.700 838.000 70.700 837.900 V 832.100 C 70.700 832.000 70.800 832.100 70.700 832.100 H 67.900 C 67.800 832.100 67.900 832.000 67.900 832.100 V 835.000 Z" stroke="rgb(0,0,255)" stroke-width="0.20" />
  <path d="M 67.900 823.000 V 825.900 C 67.900 826.000 67.800 825.900 67.900 825.900 H 70.700 C 70.800 825.900 70.700 826.000 70.700 825.900 V 820.100 C 70.700 820.000 70.800 820.100 70.700 820.100 H 67.900 C 67.800 820.100 67.900 820.000 67.900 820.100 V 823.000 Z" stroke="rgb(0,0,255)" stroke-width="0.20" />
  <path d="M 67.900 811.000 V 813.900 C 67.900 814.000 67.800 813.900 67.900 813.900 H 70.700 C 70.800 813.900 70.700 814.000 70.700 813.900 V 808.100 C 70.700 808.000 70.800 808.100 70.700 808.100 H 67.900 C 67.800 808.100 67.900 808.000 67.900 808.100 V 811.000 Z" stroke="rgb(0,0,255)" stroke-width="0.20" />
  <path d="M 67.900 799.000 V 801.900 C 67.900 802.000 67.800 801.900 67.900 801.900 H 70.700 C 70.800 801.900 70.700 802.000 70.700 801.900 V 796.100 C 70.700 796.000 70.800 796.100 70.700 796.100 H 67.900 C 67.800 796.100 67.900 796.000 67.900 796.100 V 799.000 Z" stroke="rgb(0,0,255)" stroke-width="0.20" />
  <path d="M 67.900 787.000 V 789.900 C 67.900 790.000 67.800 789.900 67.900 789.900 H 70.700 C 70.800 789.900 70.700 790.000 70.700 789.900 V 784.100 C 70.700 784.000 70.800 784.100 70.700 784.100 H 67.900 C 67.800 784.100 67.900 784.000 67.900 784.100 V 787.000 Z" stroke="rgb(0,0,255)" stroke-width="0.20" />
  <path d="M 33.800 872.900 H 30.900 C 30.800 872.900 30.900 873.000 30.900 872.900 V 870.100 C 30.900 870.000 30.800 870.100 30.900 870.100 H 36.700 C 36.800 870.100 36.700 870.000 36.700 870.100 V 872.900 C 36.700 873.000 36.800 872.900 36.700 872.900 H 33.800 Z" stroke="rgb(0,0,255)" stroke-width="0.20" />
  <path d="M 45.800 872.900 H 42.900 C 42.800 872.900 42.900 873.000 42.900 872.900 V 870.100 C 42.900 870.000 42.800 870.100 42.900 870.100 H 48.700 C 48.800 870.100 48.700 870.000 48.700 870.100 V 872.900 C 48.700 873.000 48.800 872.900 48.700 872.900 H 45.800 Z" stroke="rgb(0,0,255)" stroke-width="0.20" />
  <path d="M 57.800 872.900 H 54.900 C 54.800 872.900 54.900 873.000 54.900 872.900 V 870.100 C 54.900 870.000 54.800 870.100 54.900 870.100 H 60.700 C 60.800 870.100 60.700 870.000 60.700 870.100 V 872.900 C 60.700 873.000 60.800 872.900 60.700 872.900 H 57.800 Z" stroke="rgb(0,0,255)" stroke-width="0.20" />
  <path d="M 69.800 872.900 H 66.900 C 66.800 872.900 66.900 873.000 66.900 872.900 V 870.100 C 66.900 870.000 66.800 870.100 66.900 870.100 H 72.700 C 72.800 870.100 72.700 870.000 72.700 870.100 V 872.900 C 72.700 873.000 72.800 872.900 72.700 872.900 H 69.800 Z" stroke="rgb(0,0,255)" stroke-width="0.20" />
  <path d="M 81.800 872.900 H 78.900 C 78.800 872.900 78.900 873.000 78.900 872.900 V 870.100 C 78.900 870.000 78.800 870.100 78.900 870.100 H 84.700 C 84.800 870.100 84.700 870.000 84.700 870.100 V 872.900 C 84.700 873.000 84.800 872.900 84.700 872.900 H 81.800 Z" stroke="rgb(0,0,255)" stroke-width="0.20" />
  <path d="M 93.800 872.900 H 90.900 C 90.800 872.900 90.900 873.000 90.900 872.900 V 870.100 C 90.900 870.000 90.800 870.100 90.900 870.100 H 96.700 C 96.800 870.100 96.700 870.000 96.700 870.100 V 872.900 C 96.700 873.000 96.800 872.900 96.700 872.900 H 93.800 Z" stroke="rgb(0,0,255)" stroke-width="0.20" />
  <path d="M 105.800 872.900 H 102.900 C 102.800 872.900 102.900 873.000 102.900 872.900 V 870.100 C 102.900 870.000 102.800 870.100 102.900 870.100 H 108.700 C 108.800 870.100 108.700 870.000 108.700 870.100 V 872.900 C 108.700 873.000 108.800 872.900 108.700 872.900 H 105.800 Z" stroke="rgb(0,0,255)" stroke-width="0.20" />
  <path d="M 117.800 872.900 H 114.900 C 114.800 872.900 114.900 873.000 114.900 872.900 V 870.100 C 114.900 870.000 114.800 870.100 114.900 870.100 H 120.700 C 120.800 870.100 120.700 870.000 120.700 870.100 V 872.900 C 120.700 873.000 120.800 872.900 120.700 872.900 H 117.800 Z" stroke="rgb(0,0,255)" stroke-width="0.20" />
  <path d="M 129.800 872.900 H 126.900 C 126.800 872.900 126.900 873.000 126.900 872.900 V 870.100 C 126.900 870.000 126.800 870.100 126.900 870.100 H 132.700 C 132.800 870.100 132.700 870.000 132.700 870.100 V 872.900 C 132.700 873.000 132.800 872.900 132.700 872.900 H 129.800 Z" stroke="rgb(0,0,255)" stroke-width="0.20" />
  <path d="M 141.800 872.900 H 138.900 C 138.800 872.900 138.900 873.000 138.900 872.900 V 870.100 C 138.900 870.000 138.800 870.100 138.900 870.100 H 144.700 C 144.800 870.100 144.700 870.000 144.700 870.100 V 872.900 C 144.700 873.000 144.800 872.900 144.700 872.900 H 141.800 Z" stroke="rgb(0,0,255)" stroke-width="0.20" />
  <path d="M 153.800 872.900 H 150.900 C 150.800 872.900 150.900 873.000 150.900 872.900 V 870.100 C 150.900 870.000 150.800 870.100 150.900 870.100 H 156.700 C 156.800 870.100 156.700 870.000 156.700 870.100 V 872.900 C 156.700 873.000 156.800 872.900 156.700 872.900 H 153.800 Z" stroke="rgb(0,0,255)" stroke-width="0.20" />
  <path d="M 21.800 876.100 H 165.800 C 165.855 876.100 165.900 876.055 165.900 876.000 V 870.100 C 165.900 870.000 165.800 870.100 165.900 870.100 H 168.800 C 168.855 870.100 168.900 870.055 168.900 870.000 V 862.000 C 168.900 861.945 168.855 861.900 168.800 861.900 H 165.900 C 165.800 861.900 165.900 862.000 165.900 861.900 V 856.100 C 165.900 856.000 165.800 856.100 165.900 856.100 H 168.800 C 168.855 856.100 168.900 856.055 168.900 856.000 V 850.000 C 168.900 849.945 168.855 849.900 168.800 849.900 H 165.900 C 165.800 849.900 165.900 850.000 165.900 849.900 V 844.100 C 165.900 844.000 165.800 844.100 165.900 844.100 H 168.800 C 168.855 844.100 168.900 844.055 168.900 844.000 V 838.000 C 168.900 837.945 168.855 837.900 168.800 837.900 H 165.900 C 165.800 837.900 165.900 838.000 165.900 837.900 V 832.100 C 165.900 832.000 165.800 832.100 165.900 832.100 H 168.800 C 168.855 832.100 168.900 832.055 168.900 832.000 V 826.000 C 168.900 825.945 168.855 825.900 168.800 825.900 H 165.900 C 165.800 825.900 165.900 826.000 165.900 825.900 V 820.100 C 165.900 820.000 165.800 820.100 165.900 820.100 H 168.800 C 168.855 820.100 168.900 820.055 168.900 820.000 V 814.000 C 168.900 813.945 168.855 813.900 168.800 813.900 H 165.900 C 165.800 813.900 165.900 814.000 165.900 813.900 V 808.100 C 165.900 808.000 165.800 808.100 165.900 808.100 H 168.800 C 168.855 808.100 168.900 808.055 168.900 808.000 V 802.000 C 168.900 801.945 168.855 801.900 168.800 801.900 H 165.900 C 165.800 801.900 165.900 802.000 165.900 801.900 V 796.100 C 165.900 796.000 165.800 796.100 165.900 796.100 H 168.800 C 168.855 796.100 168.900 796.055 168.900 796.000 V 790.000 C 168.900 789.945 168.855 789.900 168.800 789.900 H 165.900 C 165.800 789.900 165.900 790.000 165.900 789.900 V 784.100 C 165.900 784.000 165.800 784.100 165.900 784.100 H 168.800 C 168.855 784.100 168.900 784.055 168.900 784.000 V 776.000 C 168.900 775.945 168.855 775.900 168.800 775.900 H 165.800 C 165.855 775.900 165.900 775.945 165.900 776.000 C 165.900 775.945 165.855 775.900 165.800 775.900 H 21.800 C 21.745 775.900 21.700 775.945 21.700 776.000 C 21.700 775.945 21.745 775.900 21.800 775.900 H 18.800 C 18.745 775.900 18.700 775.945 18.700 776.000 V 784.000 C 18.700 784.055 18.745 784.100 18.800 784.100 H 21.700 C 21.800 784.100 21.700 784.000 21.700 784.100 V 789.900 C 21.700 790.000 21.800 789.900 21.700 789.900 H 18.800 C 18.745 789.900 18.700 789.945 18.700 790.000 V 796.000 C 18.700 796.055 18.745 796.100 18.800 796.100 H 21.700 C 21.800 796.100 21.700 796.000 21.700 796.100 V 801.900 C 21.700 802.000 21.800 801.900 21.700 801.900 H 18.800 C 18.745 801.900 18.700 801.945 18.700 802.000 V 808.000 C 18.700 808.055 18.745 808.100 18.800 808.100 H 21.700 C 21.800 808.100 21.700 808.000 21.700 808.100 V 813.900 C 21.700 814.000 21.800 813.900 21.700 813.900 H 18.800 C 18.745 813.900 18.700 813.945 18.700 814.000 V 820.000 C 18.700 820.055 18.745 820.100 18.800 820.100 H 21.700 C 21.800 820.100 21.700 820.000 21.700 820.100 V 825.900 C 21.700 826.000 21.800 825.900 21.700 825.900 H 18.800 C 18.745 825.900 18.700 825.945 18.700 826.000 V 832.000 C 18.700 832.055 18.745 832.100 18.800 832.100 H 21.700 C 21.800 832.100 21.700 832.000 21.700 832.100 V 837.900 C 21.700 838.000 21.800 837.900 21.700 837.900 H 18.800 C 18.745 837.900 18.700 837.945 18.700 838.000 V 844.000 C 18.700 844.055 18.745 844.100 18.800 844.100 H 21.700 C 21.800 844.100 21.700 844.000 21.700 844.100 V 849.900 C 21.700 850.000 21.800 849.900 21.700 849.900 H 18.800 C 18.745 849.900 18.700 849.945 18.700 850.000 V 856.000 C 18.700 856.055 18.745 856.100 18.800 856.100 H 21.700 C 21.800 856.100 21.700 856.000 21.700 856.100 V 861.900 C 21.700 862.000 21.800 861.900 21.700 861.900 H 18.800 C 18.745 861.900 18.700 861.945 18.700 862.000 V 870.000 C 18.700 870.055 18.745 870.100 18.800 870.100 H 21.700 C 21.800 870.100 21.700 870.000 21.700 870.100 V 876.000 C 21.700 876.055 21.745 876.100 21.800 876.100 Z" stroke="rgb(0,0,0)" stroke-width="0.20" />
</g>
<g id="p-3" style="fill:none;stroke-linecap:round;stroke-linejoin:round;">
  <path d="M 70.700 760.300 V 763.200 C 70.700 763.300 70.800 763.200 70.700 763.200 H 67.900 C 67.800 763.200 67.900 763.300 67.900 763.200 V 757.400 C 67.900 757.300 67.800 757.400 67.900 757.400 H 70.700 C 70.800 757.400 70.700 757.300 70.700 757.400 V 760.300 Z" stroke="rgb(0,0,255)" stroke-width="0.20" />
  <path d="M 70.700 748.300 V 751.200 C 70.700 751.300 70.800 751.200 70.700 751.200 H 67.900 C 67.800 751.200 67.900 751.300 67.900 751.200 V 745.400 C 67.900 745.300 67.800 745.400 67.900 745.400 H 70.700 C 70.800 745.400 70.700 745.300 70.700 745.400 V 748.300 Z" stroke="rgb(0,0,255)" stroke-width="0.20" />
  <path d="M 70.700 736.300 V 739.200 C 70.700 739.300 70.800 739.200 70.700 739.200 H 67.900 C 67.800 739.200 67.900 739.300 67.900 739.200 V 733.400 C 67.900 733.300 67.800 733.400 67.900 733.400 H 70.700 C 70.800 733.400 70.700 733.300 70.700 733.400 V 736.300 Z" stroke="rgb(0,0,255)" stroke-width="0.20" />
  <path d="M 70.700 711.300 V 714.200 C 70.700 714.300 70.800 714.200 70.700 714.200 H 67.900 C 67.800 714.200 67.900 714.300 67.900 714.200 V 708.400 C 67.900 708.300 67.800 708.400 67.900 708.400 H 70.700 C 70.800 708.400 70.700 708.300 70.700 708.400 V 711.300 Z" stroke="rgb(0,0,255)" stroke-width="0.20" />
  <path d="M 70.700 699.300 V 702.200 C 70.700 702.300 70.800 702.200 70.700 702.200 H 67.900 C 67.800 702.200 67.900 702.300 67.900 702.200 V 696.400 C 67.900 696.300 67.800 696.400 67.900 696.400 H 70.700 C 70.800 696.400 70.700 696.300 70.700 696.400 V 699.300 Z" stroke="rgb(0,0,255)" stroke-width="0.20" />
  <path d="M 70.700 687.300 V 690.200 C 70.700 690.300 70.800 690.200 70.700 690.200 H 67.900 C 67.800 690.200 67.900 690.300 67.900 690.200 V 684.400 C 67.900 684.300 67.800 684.400 67.900 684.400 H 70.700 C 70.800 684.400 70.700 684.300 70.700 684.400 V 687.300 Z" stroke="rgb(0,0,255)" stroke-width="0.20" />
  <path d="M 70.700 662.300 V 665.200 C 70.700 665.300 70.800 665.200 70.700 665.200 H 67.900 C 67.800 665.200 67.900 665.300 67.900 665.200 V 659.400 C 67.900 659.300 67.800 659.400 67.900 659.400 H 70.700 C 70.800 659.400 70.700 659.300 70.700 659.400 V 662.300 Z" stroke="rgb(0,0,255)" stroke-width="0.20" />
  <path d="M 70.700 650.300 V 653.200 C 70.700 653.300 70.800 653.200 70.700 653.200 H 67.900 C 67.800 653.200 67.900 653.300 67.900 653.200 V 647.400 C 67.900 647.300 67.800 647.400 67.900 647.400 H 70.700 C 70.800 647.400 70.700 647.300 70.700 647.400 V 650.300 Z" stroke="rgb(0,0,255)" stroke-width="0.20" />
  <path d="M 70.700 638.300 V 641.200 C 70.700 641.300 70.800 641.200 70.700 641.200 H 67.900 C 67.800 641.200 67.900 641.300 67.900 641.200 V 635.400 C 67.900 635.300 67.800 635.400 67.900 635.400 H 70.700 C 70.800 635.400 70.700 635.300 70.700 635.400 V 638.300 Z" stroke="rgb(0,0,255)" stroke-width="0.20" />
  <path d="M 119.700 760.300 V 763.200 C 119.700 763.300 119.800 763.200 119.700 763.200 H 116.900 C 116.800 763.200 116.900 763.300 116.900 763.200 V 757.400 C 116.900 757.300 116.800 757.400 116.900 757.400 H 119.700 C 119.800 757.400 119.700 757.300 119.700 757.400 V 760.300 Z" stroke="rgb(0,0,255)" stroke-width="0.20" />
  <path d="M 119.700 748.300 V 751.200 C 119.700 751.300 119.800 751.200 119.700 751.200 H 116.900 C 116.800 751.200 116.900 751.300 116.900 751.200 V 745.400 C 116.900 745.300 116.800 745.400 116.900 745.400 H 119.700 C 119.800 745.400 119.700 745.300 119.700 745.400 V 748.300 Z" stroke="rgb(0,0,255)" stroke-width="0.20" />
  <path d="M 119.700 736.300 V 739.200 C 119.700 739.300 119.800 739.200 119.700 739.200 H 116.900 C 116.800 739.200 116.900 739.300 116.900 739.200 V 733.400 C 116.900 733.300 116.800 733.400 116.900 733.400 H 119.700 C 119.800 733.400 119.700 733.300 119.700 733.400 V 736.300 Z" stroke="rgb(0,0,255)" stroke-width="0.20" />
  <path d="M 119.700 711.300 V 714.200 C 119.700 714.300 119.800 714.200 119.700 714.200 H 116.900 C 116.800 714.200 116.900 714.300 116.900 714.200 V 708.400 C 116.900 708.300 116.800 708.400 116.900 708.400 H 119.700 C 119.800 708.400 119.700 708.300 119.700 708.400 V 711.300 Z" stroke="rgb(0,0,255)" stroke-width="0.20" />
  <path d="M 119.700 699.300 V 702.200 C 119.700 702.300 119.800 702.200 119.700 702.200 H 116.900 C 116.800 702.200 116.900 702.300 116.900 702.200 V 696.400 C 116.900 696.300 116.800 696.400 116.900 696.400 H 119.700 C 119.800 696.400 119.700 696.300 119.700 696.400 V 699.300 Z" stroke="rgb(0,0,255)" stroke-width="0.20" />
  <path d="M 119.700 687.300 V 690.200 C 119.700 690.300 119.800 690.200 119.700 690.200 H 116.900 C 116.800 690.200 116.900 690.300 116.900 690.200 V 684.400 C 116.900 684.300 116.800 684.400 116.900 684.400 H 119.700 C 119.800 684.400 119.700 684.300 119.700 684.400 V 687.300 Z" stroke="rgb(0,0,255)" stroke-width="0.20" />
  <path d="M 119.700 662.300 V 665.200 C 119.700 665.300 119.800 665.200 119.700 665.200 H 116.900 C 116.800 665.200 116.900 665.300 116.900 665.200 V 659.400 C 116.900 659.300 116.800 659.400 116.900 659.400 H 119.700 C 119.800 659.400 119.700 659.300 119.700 659.400 V 662.300 Z" stroke="rgb(0,0,255)" stroke-width="0.20" />
  <path d="M 119.700 650.300 V 653.200 C 119.700 653.300 119.800 653.200 119.700 653.200 H 116.900 C 116.800 653.200 116.900 653.300 116.900 653.200 V 647.400 C 116.900 647.300 116.800 647.400 116.900 647.400 H 119.700 C 119.800 647.400 119.700 647.300 119.700 647.400 V 650.300 Z" stroke="rgb(0,0,255)" stroke-width="0.20" />
  <path d="M 119.700 638.300 V 641.200 C 119.700 641.300 119.800 641.200 119.700 641.200 H 116.900 C 116.800 641.200 116.900 641.300 116.900 641.200 V 635.400 C 116.900 635.300 116.800 635.400 116.900 635.400 H 119.700 C 119.800 635.400 119.700 635.300 119.700 635.400 V 638.300 Z" stroke="rgb(0,0,255)" stroke-width="0.20" />
  <path d="M 21.800 771.400 H 30.700 C 30.800 771.400 30.700 771.300 30.700 771.400 V 774.300 C 30.700 774.355 30.745 774.400 30.800 774.400 H 36.800 C 36.855 774.400 36.900 774.355 36.900 774.300 V 771.400 C 36.900 771.300 36.800 771.400 36.900 771.400 H 42.700 C 42.800 771.400 42.700 771.300 42.700 771.400 V 774.300 C 42.700 774.355 42.745 774.400 42.800 774.400 H 48.800 C 48.855 774.400 48.900 774.355 48.900 774.300 V 771.400 C 48.900 771.300 48.800 771.400 48.900 771.400 H 54.700 C 54.800 771.400 54.700 771.300 54.700 771.400 V 774.300 C 54.700 774.355 54.745 774.400 54.800 774.400 H 60.800 C 60.855 774.400 60.900 774.355 60.900 774.300 V 771.400 C 60.900 771.300 60.800 771.400 60.900 771.400 H 66.700 C 66.800 771.400 66.700 771.300 66.700 771.400 V 774.300 C 66.700 774.355 66.745 774.400 66.800 774.400 H 72.800 C 72.855 774.400 72.900 774.355 72.900 774.300 V 771.400 C 72.900 771.300 72.800 771.400 72.900 771.400 H 78.700 C 78.800 771.400 78.700 771.300 78.700 771.400 V 774.300 C 78.700 774.355 78.745 774.400 78.800 774.400 H 84.800 C 84.855 774.400 84.900 774.355 84.900 774.300 V 771.400 C 84.900 771.300 84.800 771.400 84.900 771.400 H 90.700 C 90.800 771.400 90.700 771.300 90.700 771.400 V 774.300 C 90.700 774.355 90.745 774.400 90.800 774.400 H 96.800 C 96.855 774.400 96.900 774.355 96.900 774.300 V 771.400 C 96.900 771.300 96.800 771.400 96.900 771.400 H 102.700 C 102.800 771.400 102.700 771.300 102.700 771.400 V 774.300 C 102.700 774.355 102.745 774.400 102.800 774.400 H 108.800 C 108.855 774.400 108.900 774.355 108.900 774.300 V 771.400 C 108.900 771.300 108.800 771.400 108.900 771.400 H 114.700 C 114.800 771.400 114.700 771.300 114.700 771.400 V 774.300 C 114.700 774.355 114.745 774.400 114.800 774.400 H 120.800 C 120.855 774.400 120.900 774.355 120.900 774.300 V 771.400 C 120.900 771.300 120.800 771.400 120.900 771.400 H 126.700 C 126.800 771.400 126.700 771.300 126.700 771.400 V 774.300 C 126.700 774.355 126.745 774.400 126.800 774.400 H 132.800 C 132.855 774.400 132.900 774.355 132.900 774.300 V 771.400 C 132.900 771.300 132.800 771.400 132.900 771.400 H 138.700 C 138.800 771.400 138.700 771.300 138.700 771.400 V 774.300 C 138.700 774.355 138.745 774.400 138.800 774.400 H 144.800 C 144.855 774.400 144.900 774.355 144.900 774.300 V 771.400 C 144.900 771.300 144.800 771.400 144.900 771.400 H 150.700 C 150.800 771.400 150.700 771.300 150.700 771.400 V 774.300 C 150.700 774.355 150.745 774.400 150.800 774.400 H 156.800 C 156.855 774.400 156.900 774.355 156.900 774.300 V 771.400 C 156.900 771.300 156.800 771.400 156.900 771.400 H 165.800 C 165.855 771.400 165.900 771.355 165.900 771.300 V 762.400 C 165.900 762.300 165.800 762.400 165.900 762.400 H 168.800 C 168.855 762.400 168.900 762.355 168.900 762.300 V 756.300 C 168.900 756.245 168.855 756.200 168.800 756.200 H 165.900 C 165.800 756.200 165.900 756.300 165.900 756.200 V 750.400 C 165.900 750.300 165.800 750.400 165.900 750.400 H 168.800 C 168.855 750.400 168.900 750.355 168.900 750.300 V 744.300 C 168.900 744.245 168.855 744.200 168.800 744.200 H 165.900 C 165.800 744.200 165.900 744.300 165.900 744.200 V 738.400 C 165.900 738.300 165.800 738.400 165.900 738.400 H 168.800 C 168.855 738.400 168.900 738.355 168.900 738.300 V 732.300 C 168.900 732.245 168.855 732.200 168.800 732.200 H 165.900 C 165.800 732.200 165.900 732.300 165.900 732.200 V 726.400 C 165.900 726.300 165.800 726.400 165.900 726.400 H 168.800 C 168.855 726.400 168.900 726.355 168.900 726.300 V 720.300 C 168.900 720.245 168.855 720.200 168.800 720.200 H 165.900 C 165.800 720.200 165.900 720.300 165.900 720.200 V 714.400 C 165.900 714.300 165.800 714.400 165.900 714.400 H 168.800 C 168.855 714.400 168.900 714.355 168.900 714.300 V 708.300 C 168.900 708.245 168.855 708.200 168.800 708.200 H 165.900 C 165.800 708.200 165.900 708.300 165.900 708.200 V 702.400 C 165.900 702.300 165.800 702.400 165.900 702.400 H 168.800 C 168.855 702.400 168.900 702.355 168.900 702.300 V 696.300 C 168.900 696.245 168.855 696.200 168.800 696.200 H 165.900 C 165.800 696.200 165.900 696.300 165.900 696.200 V 690.400 C 165.900 690.300 165.800 690.400 165.900 690.400 H 168.800 C 168.855 690.400 168.900 690.355 168.900 690.300 V 684.300 C 168.900 684.245 168.855 684.200 168.800 684.200 H 165.900 C 165.800 684.200 165.900 684.300 165.900 684.200 V 678.400 C 165.900 678.300 165.800 678.400 165.900 678.400 H 168.800 C 168.855 678.400 168.900 678.355 168.900 678.300 V 672.300 C 168.900 672.245 168.855 672.200 168.800 672.200 H 165.900 C 165.800 672.200 165.900 672.300 165.900 672.200 V 666.400 C 165.900 666.300 165.800 666.400 165.900 666.400 H 168.800 C 168.855 666.400 168.900 666.355 168.900 666.300 V 660.300 C 168.900 660.245 168.855 660.200 168.800 660.200 H 165.900 C 165.800 660.200 165.900 660.300 165.900 660.200 V 654.400 C 165.900 654.300 165.800 654.400 165.900 654.400 H 168.800 C 168.855 654.400 168.900 654.355 168.900 654.300 V 648.300 C 168.900 648.245 168.855 648.200 168.800 648.200 H 165.900 C 165.800 648.200 165.900 648.300 165.900 648.200 V 642.400 C 165.900 642.300 165.800 642.400 165.900 642.400 H 168.800 C 168.855 642.400 168.900 642.355 168.900 642.300 V 636.300 C 168.900 636.245 168.855 636.200 168.800 636.200 H 165.900 C 165.800 636.200 165.900 636.300 165.900 636.200 V 627.300 C 165.900 627.245 165.855 627.200 165.800 627.200 H 156.900 C 156.800 627.200 156.900 627.300 156.900 627.200 V 624.300 C 156.900 624.245 156.855 624.200 156.800 624.200 H 150.800 C 150.745 624.200 150.700 624.245 150.700 624.300 V 627.200 C 150.700 627.300 150.800 627.200 150.700 627.200 H 144.900 C 144.800 627.200 144.900 627.300 144.900 627.200 V 624.300 C 144.900 624.245 144.855 624.200 144.800 624.200 H 138.800 C 138.745 624.200 138.700 624.245 138.700 624.300 V 627.200 C 138.700 627.300 138.800 627.200 138.700 627.200 H 132.900 C 132.800 627.200 132.900 627.300 132.900 627.200 V 624.300 C 132.900 624.245 132.855 624.200 132.800 624.200 H 126.800 C 126.745 624.200 126.700 624.245 126.700 624.300 V 627.200 C 126.700 627.300 126.800 627.200 126.700 627.200 H 120.900 C 120.800 627.200 120.900 627.300 120.900 627.200 V 624.300 C 120.900 624.245 120.855 624.200 120.800 624.200 H 114.800 C 114.745 624.200 114.700 624.245 114.700 624.300 V 627.200 C 114.700 627.300 114.800 627.200 114.700 627.200 H 108.900 C 108.800 627.200 108.900 627.300 108.900 627.200 V 624.300 C 108.900 624.245 108.855 624.200 108.800 624.200 H 102.800 C 102.745 624.200 102.700 624.245 102.700 624.300 V 627.200 C 102.700 627.300 102.800 627.200 102.700 627.200 H 96.900 C 96.800 627.200 96.900 627.300 96.900 627.200 V 624.300 C 96.900 624.245 96.855 624.200 96.800 624.200 H 90.800 C 90.745 624.200 90.700 624.245 90.700 624.300 V 627.200 C 90.700 627.300 90.800 627.200 90.700 627.200 H 84.900 C 84.800 627.200 84.900 627.300 84.900 627.200 V 624.300 C 84.900 624.245 84.855 624.200 84.800 624.200 H 78.800 C 78.745 624.200 78.700 624.245 78.700 624.300 V 627.200 C 78.700 627.300 78.800 627.200 78.700 627.200 H 72.900 C 72.800 627.200 72.900 627.300 72.900 627.200 V 624.300 C 72.900 624.245 72.855 624.200 72.800 624.200 H 66.800 C 66.745 624.200 66.700 624.245 66.700 624.300 V 627.200 C 66.700 627.300 66.800 627.200 66.700 627.200 H 60.900 C 60.800 627.200 60.900 627.300 60.900 627.200 V 624.300 C 60.900 624.245 60.855 624.200 60.800 624.200 H 54.800 C 54.745 624.200 54.700 624.245 54.700 624.300 V 627.200 C 54.700 627.300 54.800 627.200 54.700 627.200 H 48.900 C 48.800 627.200 48.900 627.300 48.900 627.200 V 624.300 C 48.900 624.245 48.855 624.200 48.800 624.200 H 42.800 C 42.745 624.200 42.700 624.245 42.700 624.300 V 627.200 C 42.700 627.300 42.800 627.200 42.700 627.200 H 36.900 C 36.800 627.200 36.900 627.300 36.900 627.200 V 624.300 C 36.900 624.245 36.855 624.200 36.800 624.200 H 30.800 C 30.745 624.200 30.700 624.245 30.700 624.300 V 627.200 C 30.700 627.300 30.800 627.200 30.700 627.200 H 21.800 C 21.745 627.200 21.700 627.245 21.700 627.300 V 636.200 C 21.700 636.300 21.800 636.200 21.700 636.200 H 18.800 C 18.745 636.200 18.700 636.245 18.700 636.300 V 642.300 C 18.700 642.355 18.745 642.400 18.800 642.400 H 21.700 C 21.800 642.400 21.700 642.300 21.700 642.400 V 648.200 C 21.700 648.300 21.800 648.200 21.700 648.200 H 18.800 C 18.745 648.200 18.700 648.245 18.700 648.300 V 654.300 C 18.700 654.355 18.745 654.400 18.800 654.400 H 21.700 C 21.800 654.400 21.700 654.300 21.700 654.400 V 660.200 C 21.700 660.300 21.800 660.200 21.700 660.200 H 18.800 C 18.745 660.200 18.700 660.245 18.700 660.300 V 666.300 C 18.700 666.355 18.745 666.400 18.800 666.400 H 21.700 C 21.800 666.400 21.700 666.300 21.700 666.400 V 672.200 C 21.700 672.300 21.800 672.200 21.700 672.200 H 18.800 C 18.745 672.200 18.700 672.245 18.700 672.300 V 678.300 C 18.700 678.355 18.745 678.400 18.800 678.400 H 21.700 C 21.800 678.400 21.700 678.300 21.700 678.400 V 684.200 C 21.700 684.300 21.800 684.200 21.700 684.200 H 18.800 C 18.745 684.200 18.700 684.245 18.700 684.300 V 690.300 C 18.700 690.355 18.745 690.400 18.800 690.400 H 21.700 C 21.800 690.400 21.700 690.300 21.700 690.400 V 696.200 C 21.700 696.300 21.800 696.200 21.700 696.200 H 18.800 C 18.745 696.200 18.700 696.245 18.700 696.300 V 702.300 C 18.700 702.355 18.745 702.400 18.800 702.400 H 21.700 C 21.800 702.400 21.700 702.300 21.700 702.400 V 708.200 C 21.700 708.300 21.800 708.200 21.700 708.200 H 18.800 C 18.745 708.200 18.700 708.245 18.700 708.300 V 714.300 C 18.700 714.355 18.745 714.400 18.800 714.400 H 21.700 C 21.800 714.400 21.700 714.300 21.700 714.400 V 720.200 C 21.700 720.300 21.800 720.200 21.700 720.200 H 18.800 C 18.745 720.200 18.700 720.245 18.700 720.300 V 726.300 C 18.700 726.355 18.745 726.400 18.800 726.400 H 21.700 C 21.800 726.400 21.700 726.300 21.700 726.400 V 732.200 C 21.700 732.300 21.800 732.200 21.700 732.200 H 18.800 C 18.745 732.200 18.700 732.245 18.700 732.300 V 738.300 C 18.700 738.355 18.745 738.400 18.800 738.400 H 21.700 C 21.800 738.400 21.700 738.300 21.700 738.400 V 744.200 C 21.700 744.300 21.800 744.200 21.700 744.200 H 18.800 C 18.745 744.200 18.700 744.245 18.700 744.300 V 750.300 C 18.700 750.355 18.745 750.400 18.800 750.400 H 21.700 C 21.800 750.400 21.700 750.300 21.700 750.400 V 756.200 C 21.700 756.300 21.800 756.200 21.700 756.200 H 18.800 C 18.745 756.200 18.700 756.245 18.700 756.300 V 762.300 C 18.700 762.355 18.745 762.400 18.800 762.400 H 21.700 C 21.800 762.400 21.700 762.300 21.700 762.400 V 771.300 C 21.700 771.355 21.745 771.400 21.800 771.400 Z" stroke="rgb(0,0,0)" stroke-width="0.20" />
  <path d="M 154.800 722.400 H 157.700 C 157.800 722.400 157.700 722.300 157.700 722.400 V 725.200 C 157.700 725.300 157.800 725.200 157.700 725.200 H 151.900 C 151.800 725.200 151.900 725.300 151.900 725.200 V 722.400 C 151.900 722.300 151.800 722.400 151.900 722.400 H 154.800 Z" stroke="rgb(0,0,255)" stroke-width="0.20" />
  <path d="M 142.800 722.400 H 145.700 C 145.800 722.400 145.700 722.300 145.700 722.400 V 725.200 C 145.700 725.300 145.800 725.200 145.700 725.200 H 139.900 C 139.800 725.200 139.900 725.300 139.900 725.200 V 722.400 C 139.900 722.300 139.800 722.400 139.900 722.400 H 142.800 Z" stroke="rgb(0,0,255)" stroke-width="0.20" />
  <path d="M 130.800 722.400 H 133.700 C 133.800 722.400 133.700 722.300 133.700 722.400 V 725.200 C 133.700 725.300 133.800 725.200 133.700 725.200 H 127.900 C 127.800 725.200 127.900 725.300 127.900 725.200 V 722.400 C 127.900 722.300 127.800 722.400 127.900 722.400 H 130.800 Z" stroke="rgb(0,0,255)" stroke-width="0.20" />
  <path d="M 105.800 722.400 H 108.700 C 108.800 722.400 108.700 722.300 108.700 722.400 V 725.200 C 108.700 725.300 108.800 725.200 108.700 725.200 H 102.900 C 102.800 725.200 102.900 725.300 102.900 725.200 V 722.400 C 102.900 722.300 102.800 722.400 102.900 722.400 H 105.800 Z" stroke="rgb(0,0,255)" stroke-width="0.20" />
  <path d="M 93.800 722.400 H 96.700 C 96.800 722.400 96.700 722.300 96.700 722.400 V 725.200 C 96.700 725.300 96.800 725.200 96.700 725.200 H 90.900 C 90.800 725.200 90.900 725.300 90.900 725.200 V 722.400 C 90.900 722.300 90.800 722.400 90.900 722.400 H 93.800 Z" stroke="rgb(0,0,255)" stroke-width="0.20" />
  <path d="M 81.800 722.400 H 84.700 C 84.800 722.400 84.700 722.300 84.700 722.400 V 725.200 C 84.700 725.300 84.800 725.200 84.700 725.200 H 78.900 C 78.800 725.200 78.900 725.300 78.900 725.200 V 722.400 C 78.900 722.300 78.800 722.400 78.900 722.400 H 81.800 Z" stroke="rgb(0,0,255)" stroke-width="0.20" />
  <path d="M 56.800 722.400 H 59.700 C 59.800 722.400 59.700 722.300 59.700 722.400 V 725.200 C 59.700 725.300 59.800 725.200 59.700 725.200 H 53.900 C 53.800 725.200 53.900 725.300 53.900 725.200 V 722.400 C 53.900 722.300 53.800 722.400 53.900 722.400 H 56.800 Z" stroke="rgb(0,0,255)" stroke-width="0.20" />
  <path d="M 44.800 722.400 H 47.700 C 47.800 722.400 47.700 722.300 47.700 722.400 V 725.200 C 47.700 725.300 47.800 725.200 47.700 725.200 H 41.900 C 41.800 725.200 41.900 725.300 41.900 725.200 V 722.400 C 41.900 722.300 41.800 722.400 41.900 722.400 H 44.800 Z" stroke="rgb(0,0,255)" stroke-width="0.20" />
  <path d="M 32.800 722.400 H 35.700 C 35.800 722.400 35.700 722.300 35.700 722.400 V 725.200 C 35.700 725.300 35.800 725.200 35.700 725.200 H 29.900 C 29.800 725.200 29.900 725.300 29.900 725.200 V 722.400 C 29.900 722.300 29.800 722.400 29.900 722.400 H 32.800 Z" stroke="rgb(0,0,255)" stroke-width="0.20" />
  <path d="M 154.800 673.400 H 157.700 C 157.800 673.400 157.700 673.300 157.700 673.400 V 676.200 C 157.700 676.300 157.800 676.200 157.700 676.200 H 151.900 C 151.800 676.200 151.900 676.300 151.900 676.200 V 673.400 C 151.900 673.300 151.800 673.400 151.900 673.400 H 154.800 Z" stroke="rgb(0,0,255)" stroke-width="0.20" />
  <path d="M 142.800 673.400 H 145.700 C 145.800 673.400 145.700 673.300 145.700 673.400 V 676.200 C 145.700 676.300 145.800 676.200 145.700 676.200 H 139.900 C 139.800 676.200 139.900 676.300 139.900 676.200 V 673.400 C 139.900 673.300 139.800 673.400 139.900 673.400 H 142.800 Z" stroke="rgb(0,0,255)" stroke-width="0.20" />
  <path d="M 130.800 673.400 H 133.700 C 133.800 673.400 133.700 673.300 133.700 673.400 V 676.200 C 133.700 676.300 133.800 676.200 133.700 676.200 H 127.900 C 127.800 676.200 127.900 676.300 127.900 676.200 V 673.400 C 127.900 673.300 127.800 673.400 127.900 673.400 H 130.800 Z" stroke="rgb(0,0,255)" stroke-width="0.20" />
  <path d="M 105.800 673.400 H 108.700 C 108.800 673.400 108.700 673.300 108.700 673.400 V 676.200 C 108.700 676.300 108.800 676.200 108.700 676.200 H 102.900 C 102.800 676.200 102.900 676.300 102.900 676.200 V 673.400 C 102.900 673.300 102.800 673.400 102.900 673.400 H 105.800 Z" stroke="rgb(0,0,255)" stroke-width="0.20" />
  <path d="M 93.800 673.400 H 96.700 C 96.800 673.400 96.700 673.300 96.700 673.400 V 676.200 C 96.700 676.300 96.800 676.200 96.700 676.200 H 90.900 C 90.800 676.200 90.900 676.300 90.900 676.200 V 673.400 C 90.900 673.300 90.800 673.400 90.900 673.400 H 93.800 Z" stroke="rgb(0,0,255)" stroke-width="0.20" />
  <path d="M 81.800 673.400 H 84.700 C 84.800 673.400 84.700 673.300 84.700 673.400 V 676.200 C 84.700 676.300 84.800 676.200 84.700 676.200 H 78.900 C 78.800 676.200 78.900 676.300 78.900 676.200 V 673.400 C 78.900 673.300 78.800 673.400 78.900 673.400 H 81.800 Z" stroke="rgb(0,0,255)" stroke-width="0.20" />
  <path d="M 56.800 673.400 H 59.700 C 59.800 673.400 59.700 673.300 59.700 673.400 V 676.200 C 59.700 676.300 59.800 676.200 59.700 676.200 H 53.900 C 53.800 676.200 53.900 676.300 53.900 676.200 V 673.400 C 53.900 673.300 53.800 673.400 53.900 673.400 H 56.800 Z" stroke="rgb(0,0,255)" stroke-width="0.20" />
  <path d="M 44.800 673.400 H 47.700 C 47.800 673.400 47.700 673.300 47.700 673.400 V 676.200 C 47.700 676.300 47.800 676.200 47.700 676.200 H 41.900 C 41.800 676.200 41.900 676.300 41.900 676.200 V 673.400 C 41.900 673.300 41.800 673.400 41.900 673.400 H 44.800 Z" stroke="rgb(0,0,255)" stroke-width="0.20" />
  <path d="M 32.800 673.400 H 35.700 C 35.800 673.400 35.700 673.300 35.700 673.400 V 676.200 C 35.700 676.300 35.800 676.200 35.700 676.200 H 29.900 C 29.800 676.200 29.900 676.300 29.900 676.200 V 673.400 C 29.900 673.300 29.800 673.400 29.900 673.400 H 32.800 Z" stroke="rgb(0,0,255)" stroke-width="0.20" />
</g>
<g id="p-4" style="fill:none;stroke-linecap:round;stroke-linejoin:round;">
  <path d="M 21.800 619.700 H 29.700 C 29.800 619.700 29.700 619.600 29.700 619.700 V 622.600 C 29.700 622.655 29.745 622.700 29.800 622.700 H 35.800 C 35.855 622.700 35.900 622.655 35.900 622.600 V 619.700 C 35.900 619.600 35.800 619.700 35.900 619.700 H 41.700 C 41.800 619.700 41.700 619.600 41.700 619.700 V 622.600 C 41.700 622.655 41.745 622.700 41.800 622.700 H 47.800 C 47.855 622.700 47.900 622.655 47.900 622.600 V 619.700 C 47.900 619.600 47.800 619.700 47.900 619.700 H 53.700 C 53.800 619.700 53.700 619.600 53.700 619.700 V 622.600 C 53.700 622.655 53.745 622.700 53.800 622.700 H 59.800 C 59.855 622.700 59.900 622.655 59.900 622.600 V 619.700 C 59.900 619.600 59.800 619.700 59.900 619.700 H 67.800 H 70.800 H 78.700 C 78.800 619.700 78.700 619.600 78.700 619.700 V 622.600 C 78.700 622.655 78.745 622.700 78.800 622.700 H 84.800 C 84.855 622.700 84.900 622.655 84.900 622.600 V 619.700 C 84.900 619.600 84.800 619.700 84.900 619.700 H 90.700 C 90.800 619.700 90.700 619.600 90.700 619.700 V 622.600 C 90.700 622.655 90.745 622.700 90.800 622.700 H 96.800 C 96.855 622.700 96.900 622.655 96.900 622.600 V 619.700 C 96.900 619.600 96.800 619.700 96.900 619.700 H 102.700 C 102.800 619.700 102.700 619.600 102.700 619.700 V 622.600 C 102.700 622.655 102.745 622.700 102.800 622.700 H 108.800 C 108.855 622.700 108.900 622.655 108.900 622.600 V 619.700 C 108.900 619.600 108.800 619.700 108.900 619.700 H 116.800 H 119.800 H 127.700 C 127.800 619.700 127.700 619.600 127.700 619.700 V 622.600 C 127.700 622.655 127.745 622.700 127.800 622.700 H 133.800 C 133.855 622.700 133.900 622.655 133.900 622.600 V 619.700 C 133.900 619.600 133.800 619.700 133.900 619.700 H 139.700 C 139.800 619.700 139.700 619.600 139.700 619.700 V 622.600 C 139.700 622.655 139.745 622.700 139.800 622.700 H 145.800 C 145.855 622.700 145.900 622.655 145.900 622.600 V 619.700 C 145.900 619.600 145.800 619.700 145.900 619.700 H 151.700 C 151.800 619.700 151.700 619.600 151.700 619.700 V 622.600 C 151.700 622.655 151.745 622.700 151.800 622.700 H 157.800 C 157.855 622.700 157.900 622.655 157.900 622.600 V 619.700 C 157.900 619.600 157.800 619.700 157.900 619.700 H 165.800 C 165.855 619.700 165.900 619.655 165.900 619.600 V 611.700 C 165.900 611.600 165.800 611.700 165.900 611.700 H 168.800 C 168.855 611.700 168.900 611.655 168.900 611.600 V 605.600 C 168.900 605.545 168.855 605.500 168.800 605.500 H 165.900 C 165.800 605.500 165.900 605.600 165.900 605.500 V 599.700 C 165.900 599.600 165.800 599.700 165.900 599.700 H 168.800 C 168.855 599.700 168.900 599.655 168.900 599.600 V 593.600 C 168.900 593.545 168.855 593.500 168.800 593.500 H 165.900 C 165.800 593.500 165.900 593.600 165.900 593.500 V 587.700 C 165.900 587.600 165.800 587.700 165.900 587.700 H 168.800 C 168.855 587.700 168.900 587.655 168.900 587.600 V 581.600 C 168.900 581.545 168.855 581.500 168.800 581.500 H 165.900 C 165.800 581.500 165.900 581.600 165.900 581.500 V 575.700 C 165.900 575.600 165.800 575.700 165.900 575.700 H 168.800 C 168.855 575.700 168.900 575.655 168.900 575.600 V 569.600 C 168.900 569.545 168.855 569.500 168.800 569.500 H 165.900 C 165.800 569.500 165.900 569.600 165.900 569.500 V 563.700 C 165.900 563.600 165.800 563.700 165.900 563.700 H 168.800 C 168.855 563.700 168.900 563.655 168.900 563.600 V 557.600 C 168.900 557.545 168.855 557.500 168.800 557.500 H 165.900 C 165.800 557.500 165.900 557.600 165.900 557.500 V 551.700 C 165.900 551.600 165.800 551.700 165.900 551.700 H 168.800 C 168.855 551.700 168.900 551.655 168.900 551.600 V 545.600 C 168.900 545.545 168.855 545.500 168.800 545.500 H 165.900 C 165.800 545.500 165.900 545.600 165.900 545.500 V 539.700 C 165.900 539.600 165.800 539.700 165.900 539.700 H 168.800 C 168.855 539.700 168.900 539.655 168.900 539.600 V 533.600 C 168.900 533.545 168.855 533.500 168.800 533.500 H 165.900 C 165.800 533.500 165.900 533.600 165.900 533.500 V 525.600 C 165.900 525.545 165.855 525.500 165.800 525.500 H 119.800 C 119.745 525.500 119.700 525.545 119.700 525.600 V 572.500 C 119.700 572.600 119.800 572.500 119.700 572.500 H 116.900 C 116.800 572.500 116.900 572.600 116.900 572.500 V 525.600 C 116.900 525.545 116.855 525.500 116.800 525.500 H 70.800 C 70.745 525.500 70.700 525.545 70.700 525.600 V 572.500 C 70.700 572.600 70.800 572.500 70.700 572.500 H 67.900 C 67.800 572.500 67.900 572.600 67.900 572.500 V 525.600 C 67.900 525.545 67.855 525.500 67.800 525.500 H 21.800 C 21.745 525.500 21.700 525.545 21.700 525.600 V 533.500 C 21.700 533.600 21.800 533.500 21.700 533.500 H 18.800 C 18.745 533.500 18.700 533.545 18.700 533.600 V 539.600 C 18.700 539.655 18.745 539.700 18.800 539.700 H 21.700 C 21.800 539.700 21.700 539.600 21.700 539.700 V 545.500 C 21.700 545.600 21.800 545.500 21.700 545.500 H 18.800 C 18.745 545.500 18.700 545.545 18.700 545.600 V 551.600 C 18.700 551.655 18.745 551.700 18.800 551.700 H 21.700 C 21.800 551.700 21.700 551.600 21.700 551.700 V 557.500 C 21.700 557.600 21.800 557.500 21.700 557.500 H 18.800 C 18.745 557.500 18.700 557.545 18.700 557.600 V 563.600 C 18.700 563.655 18.745 563.700 18.800 563.700 H 21.700 C 21.800 563.700 21.700 563.600 21.700 563.700 V 569.500 C 21.700 569.600 21.800 569.500 21.700 569.500 H 18.800 C 18.745 569.500 18.700 569.545 18.700 569.600 V 575.600 C 18.700 575.655 18.745 575.700 18.800 575.700 H 21.700 C 21.800 575.700 21.700 575.600 21.700 575.700 V 581.500 C 21.700 581.600 21.800 581.500 21.700 581.500 H 18.800 C 18.745 581.500 18.700 581.545 18.700 581.600 V 587.600 C 18.700 587.655 18.745 587.700 18.800 587.700 H 21.700 C 21.800 587.700 21.700 587.600 21.700 587.700 V 593.500 C 21.700 593.600 21.800 593.500 21.700 593.500 H 18.800 C 18.745 593.500 18.700 593.545 18.700 593.600 V 599.600 C 18.700 599.655 18.745 599.700 18.800 599.700 H 21.700 C 21.800 599.700 21.700 599.600 21.700 599.700 V 605.500 C 21.700 605.600 21.800 605.500 21.700 605.500 H 18.800 C 18.745 605.500 18.700 605.545 18.700 605.600 V 611.600 C 18.700 611.655 18.745 611.700 18.800 611.700 H 21.700 C 21.800 611.700 21.700 611.600 21.700 611.700 V 619.600 C 21.700 619.655 21.745 619.700 21.800 619.700 Z" stroke="rgb(0,0,0)" stroke-width="0.20" />
</g>
<g id="p-5" style="fill:none;stroke-linecap:round;stroke-linejoin:round;">
  <path d="M 21.800 521.000 H 29.700 C 29.800 521.000 29.700 520.900 29.700 521.000 V 523.900 C 29.700 523.955 29.745 524.000 29.800 524.000 H 35.800 C 35.855 524.000 35.900 523.955 35.900 523.900 V 521.000 C 35.900 520.900 35.800 521.000 35.900 521.000 H 41.700 C 41.800 521.000 41.700 520.900 41.700 521.000 V 523.900 C 41.700 523.955 41.745 524.000 41.800 524.000 H 47.800 C 47.855 524.000 47.900 523.955 47.900 523.900 V 521.000 C 47.900 520.900 47.800 521.000 47.900 521.000 H 53.700 C 53.800 521.000 53.700 520.900 53.700 521.000 V 523.900 C 53.700 523.955 53.745 524.000 53.800 524.000 H 59.800 C 59.855 524.000 59.900 523.955 59.900 523.900 V 521.000 C 59.900 520.900 59.800 521.000 59.900 521.000 H 67.800 H 70.800 H 78.700 C 78.800 521.000 78.700 520.900 78.700 521.000 V 523.900 C 78.700 523.955 78.745 524.000 78.800 524.000 H 84.800 C 84.855 524.000 84.900 523.955 84.900 523.900 V 521.000 C 84.900 520.900 84.800 521.000 84.900 521.000 H 90.700 C 90.800 521.000 90.700 520.900 90.700 521.000 V 523.900 C 90.700 523.955 90.745 524.000 90.800 524.000 H 96.800 C 96.855 524.000 96.900 523.955 96.900 523.900 V 521.000 C 96.900 520.900 96.800 521.000 96.900 521.000 H 102.700 C 102.800 521.000 102.700 520.900 102.700 521.000 V 523.900 C 102.700 523.955 102.745 524.000 102.800 524.000 H 108.800 C 108.855 524.000 108.900 523.955 108.900 523.900 V 521.000 C 108.900 520.900 108.800 521.000 108.900 521.000 H 116.800 H 119.800 H 127.700 C 127.800 521.000 127.700 520.900 127.700 521.000 V 523.900 C 127.700 523.955 127.745 524.000 127.800 524.000 H 133.800 C 133.855 524.000 133.900 523.955 133.900 523.900 V 521.000 C 133.900 520.900 133.800 521.000 133.900 521.000 H 139.700 C 139.800 521.000 139.700 520.900 139.700 521.000 V 523.900 C 139.700 523.955 139.745 524.000 139.800 524.000 H 145.800 C 145.855 524.000 145.900 523.955 145.900 523.900 V 521.000 C 145.900 520.900 145.800 521.000 145.900 521.000 H 151.700 C 151.800 521.000 151.700 520.900 151.700 521.000 V 523.900 C 151.700 523.955 151.745 524.000 151.800 524.000 H 157.800 C 157.855 524.000 157.900 523.955 157.900 523.900 V 521.000 C 157.900 520.900 157.800 521.000 157.900 521.000 H 165.800 C 165.855 521.000 165.900 520.955 165.900 520.900 V 513.000 C 165.900 512.900 165.800 513.000 165.900 513.000 H 168.800 C 168.855 513.000 168.900 512.955 168.900 512.900 V 506.900 C 168.900 506.845 168.855 506.800 168.800 506.800 H 165.900 C 165.800 506.800 165.900 506.900 165.900 506.800 V 501.000 C 165.900 500.900 165.800 501.000 165.900 501.000 H 168.800 C 168.855 501.000 168.900 500.955 168.900 500.900 V 494.900 C 168.900 494.845 168.855 494.800 168.800 494.800 H 165.900 C 165.800 494.800 165.900 494.900 165.900 494.800 V 489.000 C 165.900 488.900 165.800 489.000 165.900 489.000 H 168.800 C 168.855 489.000 168.900 488.955 168.900 488.900 V 482.900 C 168.900 482.845 168.855 482.800 168.800 482.800 H 165.900 C 165.800 482.800 165.900 482.900 165.900 482.800 V 477.000 C 165.900 476.900 165.800 477.000 165.900 477.000 H 168.800 C 168.855 477.000 168.900 476.955 168.900 476.900 V 470.900 C 168.900 470.845 168.855 470.800 168.800 470.800 H 165.900 C 165.800 470.800 165.900 470.900 165.900 470.800 V 465.000 C 165.900 464.900 165.800 465.000 165.900 465.000 H 168.800 C 168.855 465.000 168.900 464.955 168.900 464.900 V 458.900 C 168.900 458.845 168.855 458.800 168.800 458.800 H 165.900 C 165.800 458.800 165.900 458.900 165.900 458.800 V 453.000 C 165.900 452.900 165.800 453.000 165.900 453.000 H 168.800 C 168.855 453.000 168.900 452.955 168.900 452.900 V 446.900 C 168.900 446.845 168.855 446.800 168.800 446.800 H 165.900 C 165.800 446.800 165.900 446.900 165.900 446.800 V 441.000 C 165.900 440.900 165.800 441.000 165.900 441.000 H 168.800 C 168.855 441.000 168.900 440.955 168.900 440.900 V 434.900 C 168.900 434.845 168.855 434.800 168.800 434.800 H 165.900 C 165.800 434.800 165.900 434.900 165.900 434.800 V 426.900 C 165.900 426.845 165.855 426.800 165.800 426.800 H 119.800 C 119.745 426.800 119.700 426.845 119.700 426.900 V 473.800 C 119.700 473.900 119.800 473.800 119.700 473.800 H 116.900 C 116.800 473.800 116.900 473.900 116.900 473.800 V 426.900 C 116.900 426.845 116.855 426.800 116.800 426.800 H 70.800 C 70.745 426.800 70.700 426.845 70.700 426.900 V 473.800 C 70.700 473.900 70.800 473.800 70.700 473.800 H 67.900 C 67.800 473.800 67.900 473.900 67.900 473.800 V 426.900 C 67.900 426.845 67.855 426.800 67.800 426.800 H 21.800 C 21.745 426.800 21.700 426.845 21.700 426.900 V 434.800 C 21.700 434.900 21.800 434.800 21.700 434.800 H 18.800 C 18.745 434.800 18.700 434.845 18.700 434.900 V 440.900 C 18.700 440.955 18.745 441.000 18.800 441.000 H 21.700 C 21.800 441.000 21.700 440.900 21.700 441.000 V 446.800 C 21.700 446.900 21.800 446.800 21.700 446.800 H 18.800 C 18.745 446.800 18.700 446.845 18.700 446.900 V 452.900 C 18.700 452.955 18.745 453.000 18.800 453.000 H 21.700 C 21.800 453.000 21.700 452.900 21.700 453.000 V 458.800 C 21.700 458.900 21.800 458.800 21.700 458.800 H 18.800 C 18.745 458.800 18.700 458.845 18.700 458.900 V 464.900 C 18.700 464.955 18.745 465.000 18.800 465.000 H 21.700 C 21.800 465.000 21.700 464.900 21.700 465.000 V 470.800 C 21.700 470.900 21.800 470.800 21.700 470.800 H 18.800 C 18.745 470.800 18.700 470.845 18.700 470.900 V 476.900 C 18.700 476.955 18.745 477.000 18.800 477.000 H 21.700 C 21.800 477.000 21.700 476.900 21.700 477.000 V 482.800 C 21.700 482.900 21.800 482.800 21.700 482.800 H 18.800 C 18.745 482.800 18.700 482.845 18.700 482.900 V 488.900 C 18.700 488.955 18.745 489.000 18.800 489.000 H 21.700 C 21.800 489.000 21.700 488.900 21.700 489.000 V 494.800 C 21.700 494.900 21.800 494.800 21.700 494.800 H 18.800 C 18.745 494.800 18.700 494.845 18.700 494.900 V 500.900 C 18.700 500.955 18.745 501.000 18.800 501.000 H 21.700 C 21.800 501.000 21.700 500.900 21.700 501.000 V 506.800 C 21.700 506.900 21.800 506.800 21.700 506.800 H 18.800 C 18.745 506.800 18.700 506.845 18.700 506.900 V 512.900 C 18.700 512.955 18.745 513.000 18.800 513.000 H 21.700 C 21.800 513.000 21.700 512.900 21.700 513.000 V 520.900 C 21.700 520.955 21.745 521.000 21.800 521.000 Z" stroke="rgb(0,0,0)" stroke-width="0.20" />
</g>
<g id="p-6" style="fill:none;stroke-linecap:round;stroke-linejoin:round;">
  <path d="M 73.700 408.300 V 411.200 C 73.700 411.300 73.800 411.200 73.700 411.200 H 70.900 C 70.800 411.200 70.900 411.300 70.900 411.200 V 405.400 C 70.900 405.300 70.800 405.400 70.900 405.400 H 73.700 C 73.800 405.400 73.700 405.300 73.700 405.400 V 408.300 Z" stroke="rgb(0,0,255)" stroke-width="0.20" />
  <path d="M 73.700 396.300 V 399.200 C 73.700 399.300 73.800 399.200 73.700 399.200 H 70.900 C 70.800 399.200 70.900 399.300 70.900 399.200 V 393.400 C 70.900 393.300 70.800 393.400 70.900 393.400 H 73.700 C 73.800 393.400 73.700 393.300 73.700 393.400 V 396.300 Z" stroke="rgb(0,0,255)" stroke-width="0.20" />
  <path d="M 73.700 384.300 V 387.200 C 73.700 387.300 73.800 387.200 73.700 387.200 H 70.900 C 70.800 387.200 70.900 387.300 70.900 387.200 V 381.400 C 70.900 381.300 70.800 381.400 70.900 381.400 H 73.700 C 73.800 381.400 73.700 381.300 73.700 381.400 V 384.300 Z" stroke="rgb(0,0,255)" stroke-width="0.20" />
  <path d="M 73.700 372.300 V 375.200 C 73.700 375.300 73.800 375.200 73.700 375.200 H 70.900 C 70.800 375.200 70.900 375.300 70.900 375.200 V 369.400 C 70.900 369.300 70.800 369.400 70.900 369.400 H 73.700 C 73.800 369.400 73.700 369.300 73.700 369.400 V 372.300 Z" stroke="rgb(0,0,255)" stroke-width="0.20" />
  <path d="M 73.700 360.300 V 363.200 C 73.700 363.300 73.800 363.200 73.700 363.200 H 70.900 C 70.800 363.200 70.900 363.300 70.900 363.200 V 357.400 C 70.900 357.300 70.800 357.400 70.900 357.400 H 73.700 C 73.800 357.400 73.700 357.300 73.700 357.400 V 360.300 Z" stroke="rgb(0,0,255)" stroke-width="0.20" />
  <path d="M 73.700 348.300 V 351.200 C 73.700 351.300 73.800 351.200 73.700 351.200 H 70.900 C 70.800 351.200 70.900 351.300 70.900 351.200 V 345.400 C 70.900 345.300 70.800 345.400 70.900 345.400 H 73.700 C 73.800 345.400 73.700 345.300 73.700 345.400 V 348.300 Z" stroke="rgb(0,0,255)" stroke-width="0.20" />
  <path d="M 73.700 336.300 V 339.200 C 73.700 339.300 73.800 339.200 73.700 339.200 H 70.900 C 70.800 339.200 70.900 339.300 70.900 339.200 V 333.400 C 70.900 333.300 70.800 333.400 70.900 333.400 H 73.700 C 73.800 333.400 73.700 333.300 73.700 333.400 V 336.300 Z" stroke="rgb(0,0,255)" stroke-width="0.20" />
  <path d="M 122.700 408.300 V 411.200 C 122.700 411.300 122.800 411.200 122.700 411.200 H 119.900 C 119.800 411.200 119.900 411.300 119.900 411.200 V 405.400 C 119.900 405.300 119.800 405.400 119.900 405.400 H 122.700 C 122.800 405.400 122.700 405.300 122.700 405.400 V 408.300 Z" stroke="rgb(0,0,255)" stroke-width="0.20" />
  <path d="M 122.700 396.300 V 399.200 C 122.700 399.300 122.800 399.200 122.700 399.200 H 119.900 C 119.800 399.200 119.900 399.300 119.900 399.200 V 393.400 C 119.900 393.300 119.800 393.400 119.900 393.400 H 122.700 C 122.800 393.400 122.700 393.300 122.700 393.400 V 396.300 Z" stroke="rgb(0,0,255)" stroke-width="0.20" />
  <path d="M 122.700 384.300 V 387.200 C 122.700 387.300 122.800 387.200 122.700 387.200 H 119.900 C 119.800 387.200 119.900 387.300 119.900 387.200 V 381.400 C 119.900 381.300 119.800 381.400 119.900 381.400 H 122.700 C 122.800 381.400 122.700 381.300 122.700 381.400 V 384.300 Z" stroke="rgb(0,0,255)" stroke-width="0.20" />
  <path d="M 122.700 372.300 V 375.200 C 122.700 375.300 122.800 375.200 122.700 375.200 H 119.900 C 119.800 375.200 119.900 375.300 119.900 375.200 V 369.400 C 119.900 369.300 119.800 369.400 119.900 369.400 H 122.700 C 122.800 369.400 122.700 369.300 122.700 369.400 V 372.300 Z" stroke="rgb(0,0,255)" stroke-width="0.20" />
  <path d="M 122.700 360.300 V 363.200 C 122.700 363.300 122.800 363.200 122.700 363.200 H 119.900 C 119.800 363.200 119.900 363.300 119.900 363.200 V 357.400 C 119.900 357.300 119.800 357.400 119.900 357.400 H 122.700 C 122.800 357.400 122.700 357.300 122.700 357.400 V 360.300 Z" stroke="rgb(0,0,255)" stroke-width="0.20" />
  <path d="M 122.700 348.300 V 351.200 C 122.700 351.300 122.800 351.200 122.700 351.200 H 119.900 C 119.800 351.200 119.900 351.300 119.900 351.200 V 345.400 C 119.900 345.300 119.800 345.400 119.900 345.400 H 122.700 C 122.800 345.400 122.700 345.300 122.700 345.400 V 348.300 Z" stroke="rgb(0,0,255)" stroke-width="0.20" />
  <path d="M 122.700 336.300 V 339.200 C 122.700 339.300 122.800 339.200 122.700 339.200 H 119.900 C 119.800 339.200 119.900 339.300 119.900 339.200 V 333.400 C 119.900 333.300 119.800 333.400 119.900 333.400 H 122.700 C 122.800 333.400 122.700 333.300 122.700 333.400 V 336.300 Z" stroke="rgb(0,0,255)" stroke-width="0.20" />
  <path d="M 36.800 422.100 H 33.900 C 33.800 422.100 33.900 422.200 33.900 422.100 V 419.300 C 33.900 419.200 33.800 419.300 33.900 419.300 H 39.700 C 39.800 419.300 39.700 419.200 39.700 419.300 V 422.100 C 39.700 422.200 39.800 422.100 39.700 422.100 H 36.800 Z" stroke="rgb(0,0,255)" stroke-width="0.20" />
  <path d="M 48.800 422.100 H 45.900 C 45.800 422.100 45.900 422.200 45.900 422.100 V 419.300 C 45.900 419.200 45.800 419.300 45.900 419.300 H 51.700 C 51.800 419.300 51.700 419.200 51.700 419.300 V 422.100 C 51.700 422.200 51.800 422.100 51.700 422.100 H 48.800 Z" stroke="rgb(0,0,255)" stroke-width="0.20" />
  <path d="M 60.800 422.100 H 57.900 C 57.800 422.100 57.900 422.200 57.900 422.100 V 419.300 C 57.900 419.200 57.800 419.300 57.900 419.300 H 63.700 C 63.800 419.300 63.700 419.200 63.700 419.300 V 422.100 C 63.700 422.200 63.800 422.100 63.700 422.100 H 60.800 Z" stroke="rgb(0,0,255)" stroke-width="0.20" />
  <path d="M 72.800 422.100 H 69.900 C 69.800 422.100 69.900 422.200 69.900 422.100 V 419.300 C 69.900 419.200 69.800 419.300 69.900 419.300 H 75.700 C 75.800 419.300 75.700 419.200 75.700 419.300 V 422.100 C 75.700 422.200 75.800 422.100 75.700 422.100 H 72.800 Z" stroke="rgb(0,0,255)" stroke-width="0.20" />
  <path d="M 84.800 422.100 H 81.900 C 81.800 422.100 81.900 422.200 81.900 422.100 V 419.300 C 81.900 419.200 81.800 419.300 81.900 419.300 H 87.700 C 87.800 419.300 87.700 419.200 87.700 419.300 V 422.100 C 87.700 422.200 87.800 422.100 87.700 422.100 H 84.800 Z" stroke="rgb(0,0,255)" stroke-width="0.20" />
  <path d="M 96.800 422.100 H 93.900 C 93.800 422.100 93.900 422.200 93.900 422.100 V 419.300 C 93.900 419.200 93.800 419.300 93.900 419.300 H 99.700 C 99.800 419.300 99.700 419.200 99.700 419.300 V 422.100 C 99.700 422.200 99.800 422.100 99.700 422.100 H 96.800 Z" stroke="rgb(0,0,255)" stroke-width="0.20" />
  <path d="M 108.800 422.100 H 105.900 C 105.800 422.100 105.900 422.200 105.900 422.100 V 419.300 C 105.900 419.200 105.800 419.300 105.900 419.300 H 111.700 C 111.800 419.300 111.700 419.200 111.700 419.300 V 422.100 C 111.700 422.200 111.800 422.100 111.700 422.100 H 108.800 Z" stroke="rgb(0,0,255)" stroke-width="0.20" />
  <path d="M 120.800 422.100 H 117.900 C 117.800 422.100 117.900 422.200 117.900 422.100 V 419.300 C 117.900 419.200 117.800 419.300 117.900 419.300 H 123.700 C 123.800 419.300 123.700 419.200 123.700 419.300 V 422.100 C 123.700 422.200 123.800 422.100 123.700 422.100 H 120.800 Z" stroke="rgb(0,0,255)" stroke-width="0.20" />
  <path d="M 132.800 422.100 H 129.900 C 129.800 422.100 129.900 422.200 129.900 422.100 V 419.300 C 129.900 419.200 129.800 419.300 129.900 419.300 H 135.700 C 135.800 419.300 135.700 419.200 135.700 419.300 V 422.100 C 135.700 422.200 135.800 422.100 135.700 422.100 H 132.800 Z" stroke="rgb(0,0,255)" stroke-width="0.20" />
  <path d="M 144.800 422.100 H 141.900 C 141.800 422.100 141.900 422.200 141.900 422.100 V 419.300 C 141.900 419.200 141.800 419.300 141.900 419.300 H 147.700 C 147.800 419.300 147.700 419.200 147.700 419.300 V 422.100 C 147.700 422.200 147.800 422.100 147.700 422.100 H 144.800 Z" stroke="rgb(0,0,255)" stroke-width="0.20" />
  <path d="M 156.800 422.100 H 153.900 C 153.800 422.100 153.900 422.200 153.900 422.100 V 419.300 C 153.900 419.200 153.800 419.300 153.900 419.300 H 159.700 C 159.800 419.300 159.700 419.200 159.700 419.300 V 422.100 C 159.700 422.200 159.800 422.100 159.700 422.100 H 156.800 Z" stroke="rgb(0,0,255)" stroke-width="0.20" />
  <path d="M 24.800 425.300 H 168.800 H 171.800 C 171.855 425.300 171.900 425.255 171.900 425.200 V 419.200 C 171.900 419.145 171.855 419.100 171.800 419.100 H 168.900 C 168.800 419.100 168.900 419.200 168.900 419.100 V 411.300 C 168.900 411.200 168.800 411.300 168.900 411.300 H 171.800 C 171.855 411.300 171.900 411.255 171.900 411.200 V 405.200 C 171.900 405.145 171.855 405.100 171.800 405.100 H 168.900 C 168.800 405.100 168.900 405.200 168.900 405.100 V 399.300 C 168.900 399.200 168.800 399.300 168.900 399.300 H 171.800 C 171.855 399.300 171.900 399.255 171.900 399.200 V 393.200 C 171.900 393.145 171.855 393.100 171.800 393.100 H 168.900 C 168.800 393.100 168.900 393.200 168.900 393.100 V 387.300 C 168.900 387.200 168.800 387.300 168.900 387.300 H 171.800 C 171.855 387.300 171.900 387.255 171.900 387.200 V 381.200 C 171.900 381.145 171.855 381.100 171.800 381.100 H 168.900 C 168.800 381.100 168.900 381.200 168.900 381.100 V 375.300 C 168.900 375.200 168.800 375.300 168.900 375.300 H 171.800 C 171.855 375.300 171.900 375.255 171.900 375.200 V 369.200 C 171.900 369.145 171.855 369.100 171.800 369.100 H 168.900 C 168.800 369.100 168.900 369.200 168.900 369.100 V 363.300 C 168.900 363.200 168.800 363.300 168.900 363.300 H 171.800 C 171.855 363.300 171.900 363.255 171.900 363.200 V 357.200 C 171.900 357.145 171.855 357.100 171.800 357.100 H 168.900 C 168.800 357.100 168.900 357.200 168.900 357.100 V 351.300 C 168.900 351.200 168.800 351.300 168.900 351.300 H 171.800 C 171.855 351.300 171.900 351.255 171.900 351.200 V 345.200 C 171.900 345.145 171.855 345.100 171.800 345.100 H 168.900 C 168.800 345.100 168.900 345.200 168.900 345.100 V 339.300 C 168.900 339.200 168.800 339.300 168.900 339.300 H 171.800 C 171.855 339.300 171.900 339.255 171.900 339.200 V 333.200 C 171.900 333.145 171.855 333.100 171.800 333.100 H 168.900 C 168.800 333.100 168.900 333.200 168.900 333.100 V 325.300 C 168.900 325.200 168.800 325.300 168.900 325.300 H 171.800 C 171.855 325.300 171.900 325.255 171.900 325.200 C 171.900 325.145 171.855 325.100 171.800 325.100 H 168.800 H 18.800 C 18.745 325.100 18.700 325.145 18.700 325.200 V 419.200 V 425.200 C 18.700 425.255 18.745 425.300 18.800 425.300 H 24.800 Z" stroke="rgb(0,0,0)" stroke-width="0.20" />
  <path d="M 21.900 336.200 V 333.300 C 21.900 333.200 21.800 333.300 21.900 333.300 H 24.700 C 24.800 333.300 24.700 333.200 24.700 333.300 V 339.100 C 24.700 339.200 24.800 339.100 24.700 339.100 H 21.900 C 21.800 339.100 21.900 339.200 21.900 339.100 V 336.200 Z" stroke="rgb(0,0,255)" stroke-width="0.20" />
  <path d="M 21.900 348.200 V 345.300 C 21.900 345.200 21.800 345.300 21.900 345.300 H 24.700 C 24.800 345.300 24.700 345.200 24.700 345.300 V 351.100 C 24.700 351.200 24.800 351.100 24.700 351.100 H 21.900 C 21.800 351.100 21.900 351.200 21.900 351.100 V 348.200 Z" stroke="rgb(0,0,255)" stroke-width="0.20" />
  <path d="M 21.900 360.200 V 357.300 C 21.900 357.200 21.800 357.300 21.900 357.300 H 24.700 C 24.800 357.300 24.700 357.200 24.700 357.300 V 363.100 C 24.700 363.200 24.800 363.100 24.700 363.100 H 21.900 C 21.800 363.100 21.900 363.200 21.900 363.100 V 360.200 Z" stroke="rgb(0,0,255)" stroke-width="0.20" />
  <path d="M 21.900 372.200 V 369.300 C 21.900 369.200 21.800 369.300 21.900 369.300 H 24.700 C 24.800 369.300 24.700 369.200 24.700 369.300 V 375.100 C 24.700 375.200 24.800 375.100 24.700 375.100 H 21.900 C 21.800 375.100 21.900 375.200 21.900 375.100 V 372.200 Z" stroke="rgb(0,0,255)" stroke-width="0.20" />
  <path d="M 21.900 384.200 V 381.300 C 21.900 381.200 21.800 381.300 21.900 381.300 H 24.700 C 24.800 381.300 24.700 381.200 24.700 381.300 V 387.100 C 24.700 387.200 24.800 387.100 24.700 387.100 H 21.900 C 21.800 387.100 21.900 387.200 21.900 387.100 V 384.200 Z" stroke="rgb(0,0,255)" stroke-width="0.20" />
  <path d="M 21.900 396.200 V 393.300 C 21.900 393.200 21.800 393.300 21.900 393.300 H 24.700 C 24.800 393.300 24.700 393.200 24.700 393.300 V 399.100 C 24.700 399.200 24.800 399.100 24.700 399.100 H 21.900 C 21.800 399.100 21.900 399.200 21.900 399.100 V 396.200 Z" stroke="rgb(0,0,255)" stroke-width="0.20" />
  <path d="M 21.900 408.200 V 405.300 C 21.900 405.200 21.800 405.300 21.900 405.300 H 24.700 C 24.800 405.300 24.700 405.200 24.700 405.300 V 411.100 C 24.700 411.200 24.800 411.100 24.700 411.100 H 21.900 C 21.800 411.100 21.900 411.200 21.900 411.100 V 408.200 Z" stroke="rgb(0,0,255)" stroke-width="0.20" />
</g>
<g id="p-7" style="fill:none;stroke-linecap:round;stroke-linejoin:round;">
  <path d="M 116.900 298.600 V 301.500 C 116.900 301.600 116.800 301.500 116.900 301.500 H 119.700 C 119.800 301.500 119.700 301.600 119.700 301.500 V 295.700 C 119.700 295.600 119.800 295.700 119.700 295.700 H 116.900 C 116.800 295.700 116.900 295.600 116.900 295.700 V 298.600 Z" stroke="rgb(0,0,255)" stroke-width="0.20" />
  <path d="M 116.900 286.600 V 289.500 C 116.900 289.600 116.800 289.500 116.900 289.500 H 119.700 C 119.800 289.500 119.700 289.600 119.700 289.500 V 283.700 C 119.700 283.600 119.800 283.700 119.700 283.700 H 116.900 C 116.800 283.700 116.900 283.600 116.900 283.700 V 286.600 Z" stroke="rgb(0,0,255)" stroke-width="0.20" />
  <path d="M 116.900 274.600 V 277.500 C 116.900 277.600 116.800 277.500 116.900 277.500 H 119.700 C 119.800 277.500 119.700 277.600 119.700 277.500 V 271.700 C 119.700 271.600 119.800 271.700 119.700 271.700 H 116.900 C 116.800 271.700 116.900 271.600 116.900 271.700 V 274.600 Z" stroke="rgb(0,0,255)" stroke-width="0.20" />
  <path d="M 116.900 262.600 V 265.500 C 116.900 265.600 116.800 265.500 116.900 265.500 H 119.700 C 119.800 265.500 119.700 265.600 119.700 265.500 V 259.700 C 119.700 259.600 119.800 259.700 119.700 259.700 H 116.900 C 116.800 259.700 116.900 259.600 116.900 259.700 V 262.600 Z" stroke="rgb(0,0,255)" stroke-width="0.20" />
  <path d="M 116.900 250.600 V 253.500 C 116.900 253.600 116.800 253.500 116.900 253.500 H 119.700 C 119.800 253.500 119.700 253.600 119.700 253.500 V 247.700 C 119.700 247.600 119.800 247.700 119.700 247.700 H 116.900 C 116.800 247.700 116.900 247.600 116.900 247.700 V 250.600 Z" stroke="rgb(0,0,255)" stroke-width="0.20" />
  <path d="M 116.900 238.600 V 241.500 C 116.900 241.600 116.800 241.500 116.900 241.500 H 119.700 C 119.800 241.500 119.700 241.600 119.700 241.500 V 235.700 C 119.700 235.600 119.800 235.700 119.700 235.700 H 116.900 C 116.800 235.700 116.900 235.600 116.900 235.700 V 238.600 Z" stroke="rgb(0,0,255)" stroke-width="0.20" />
  <path d="M 116.900 226.600 V 229.500 C 116.900 229.600 116.800 229.500 116.900 229.500 H 119.700 C 119.800 229.500 119.700 229.600 119.700 229.500 V 223.700 C 119.700 223.600 119.800 223.700 119.700 223.700 H 116.900 C 116.800 223.700 116.900 223.600 116.900 223.700 V 226.600 Z" stroke="rgb(0,0,255)" stroke-width="0.20" />
  <path d="M 67.900 298.600 V 301.500 C 67.900 301.600 67.800 301.500 67.900 301.500 H 70.700 C 70.800 301.500 70.700 301.600 70.700 301.500 V 295.700 C 70.700 295.600 70.800 295.700 70.700 295.700 H 67.900 C 67.800 295.700 67.900 295.600 67.900 295.700 V 298.600 Z" stroke="rgb(0,0,255)" stroke-width="0.20" />
  <path d="M 67.900 286.600 V 289.500 C 67.900 289.600 67.800 289.500 67.900 289.500 H 70.700 C 70.800 289.500 70.700 289.600 70.700 289.500 V 283.700 C 70.700 283.600 70.800 283.700 70.700 283.700 H 67.900 C 67.800 283.700 67.900 283.600 67.900 283.700 V 286.600 Z" stroke="rgb(0,0,255)" stroke-width="0.20" />
  <path d="M 67.900 274.600 V 277.500 C 67.900 277.600 67.800 277.500 67.900 277.500 H 70.700 C 70.800 277.500 70.700 277.600 70.700 277.500 V 271.700 C 70.700 271.600 70.800 271.700 70.700 271.700 H 67.900 C 67.800 271.700 67.900 271.600 67.900 271.700 V 274.600 Z" stroke="rgb(0,0,255)" stroke-width="0.20" />
  <path d="M 67.900 262.600 V 265.500 C 67.900 265.600 67.800 265.500 67.900 265.500 H 70.700 C 70.800 265.500 70.700 265.600 70.700 265.500 V 259.700 C 70.700 259.600 70.800 259.700 70.700 259.700 H 67.900 C 67.800 259.700 67.900 259.600 67.900 259.700 V 262.600 Z" stroke="rgb(0,0,255)" stroke-width="0.20" />
  <path d="M 67.900 250.600 V 253.500 C 67.900 253.600 67.800 253.500 67.900 253.500 H 70.700 C 70.800 253.500 70.700 253.600 70.700 253.500 V 247.700 C 70.700 247.600 70.800 247.700 70.700 247.700 H 67.900 C 67.800 247.700 67.900 247.600 67.900 247.700 V 250.600 Z" stroke="rgb(0,0,255)" stroke-width="0.20" />
  <path d="M 67.900 238.600 V 241.500 C 67.900 241.600 67.800 241.500 67.900 241.500 H 70.700 C 70.800 241.500 70.700 241.600 70.700 241.500 V 235.700 C 70.700 235.600 70.800 235.700 70.700 235.700 H 67.900 C 67.800 235.700 67.900 235.600 67.900 235.700 V 238.600 Z" stroke="rgb(0,0,255)" stroke-width="0.20" />
  <path d="M 67.900 226.600 V 229.500 C 67.900 229.600 67.800 229.500 67.900 229.500 H 70.700 C 70.800 229.500 70.700 229.600 70.700 229.500 V 223.700 C 70.700 223.600 70.800 223.700 70.700 223.700 H 67.900 C 67.800 223.700 67.900 223.600 67.900 223.700 V 226.600 Z" stroke="rgb(0,0,255)" stroke-width="0.20" />
  <path d="M 33.800 312.400 H 30.900 C 30.800 312.400 30.900 312.500 30.900 312.400 V 309.600 C 30.900 309.500 30.800 309.600 30.900 309.600 H 36.700 C 36.800 309.600 36.700 309.500 36.700 309.600 V 312.400 C 36.700 312.500 36.800 312.400 36.700 312.400 H 33.800 Z" stroke="rgb(0,0,255)" stroke-width="0.20" />
  <path d="M 45.800 312.400 H 42.900 C 42.800 312.400 42.900 312.500 42.900 312.400 V 309.600 C 42.900 309.500 42.800 309.600 42.900 309.600 H 48.700 C 48.800 309.600 48.700 309.500 48.700 309.600 V 312.400 C 48.700 312.500 48.800 312.400 48.700 312.400 H 45.800 Z" stroke="rgb(0,0,255)" stroke-width="0.20" />
  <path d="M 57.800 312.400 H 54.900 C 54.800 312.400 54.900 312.500 54.900 312.400 V 309.600 C 54.900 309.500 54.800 309.600 54.900 309.600 H 60.700 C 60.800 309.600 60.700 309.500 60.700 309.600 V 312.400 C 60.700 312.500 60.800 312.400 60.700 312.400 H 57.800 Z" stroke="rgb(0,0,255)" stroke-width="0.20" />
  <path d="M 69.800 312.400 H 66.900 C 66.800 312.400 66.900 312.500 66.900 312.400 V 309.600 C 66.900 309.500 66.800 309.600 66.900 309.600 H 72.700 C 72.800 309.600 72.700 309.500 72.700 309.600 V 312.400 C 72.700 312.500 72.800 312.400 72.700 312.400 H 69.800 Z" stroke="rgb(0,0,255)" stroke-width="0.20" />
  <path d="M 81.800 312.400 H 78.900 C 78.800 312.400 78.900 312.500 78.900 312.400 V 309.600 C 78.900 309.500 78.800 309.600 78.900 309.600 H 84.700 C 84.800 309.600 84.700 309.500 84.700 309.600 V 312.400 C 84.700 312.500 84.800 312.400 84.700 312.400 H 81.800 Z" stroke="rgb(0,0,255)" stroke-width="0.20" />
  <path d="M 93.800 312.400 H 90.900 C 90.800 312.400 90.900 312.500 90.900 312.400 V 309.600 C 90.900 309.500 90.800 309.600 90.900 309.600 H 96.700 C 96.800 309.600 96.700 309.500 96.700 309.600 V 312.400 C 96.700 312.500 96.800 312.400 96.700 312.400 H 93.800 Z" stroke="rgb(0,0,255)" stroke-width="0.20" />
  <path d="M 105.800 312.400 H 102.900 C 102.800 312.400 102.900 312.500 102.900 312.400 V 309.600 C 102.900 309.500 102.800 309.600 102.900 309.600 H 108.700 C 108.800 309.600 108.700 309.500 108.700 309.600 V 312.400 C 108.700 312.500 108.800 312.400 108.700 312.400 H 105.800 Z" stroke="rgb(0,0,255)" stroke-width="0.20" />
  <path d="M 117.800 312.400 H 114.900 C 114.800 312.400 114.900 312.500 114.900 312.400 V 309.600 C 114.900 309.500 114.800 309.600 114.900 309.600 H 120.700 C 120.800 309.600 120.700 309.500 120.700 309.600 V 312.400 C 120.700 312.500 120.800 312.400 120.700 312.400 H 117.800 Z" stroke="rgb(0,0,255)" stroke-width="0.20" />
  <path d="M 129.800 312.400 H 126.900 C 126.800 312.400 126.900 312.500 126.900 312.400 V 309.600 C 126.900 309.500 126.800 309.600 126.900 309.600 H 132.700 C 132.800 309.600 132.700 309.500 132.700 309.600 V 312.400 C 132.700 312.500 132.800 312.400 132.700 312.400 H 129.800 Z" stroke="rgb(0,0,255)" stroke-width="0.20" />
  <path d="M 141.800 312.400 H 138.900 C 138.800 312.400 138.900 312.500 138.900 312.400 V 309.600 C 138.900 309.500 138.800 309.600 138.900 309.600 H 144.700 C 144.800 309.600 144.700 309.500 144.700 309.600 V 312.400 C 144.700 312.500 144.800 312.400 144.700 312.400 H 141.800 Z" stroke="rgb(0,0,255)" stroke-width="0.20" />
  <path d="M 153.800 312.400 H 150.900 C 150.800 312.400 150.900 312.500 150.900 312.400 V 309.600 C 150.900 309.500 150.800 309.600 150.900 309.600 H 156.700 C 156.800 309.600 156.700 309.500 156.700 309.600 V 312.400 C 156.700 312.500 156.800 312.400 156.700 312.400 H 153.800 Z" stroke="rgb(0,0,255)" stroke-width="0.20" />
  <path d="M 21.800 315.600 H 165.800 H 171.800 C 171.855 315.600 171.900 315.555 171.900 315.500 V 309.500 V 215.500 C 171.900 215.445 171.855 215.400 171.800 215.400 H 165.800 H 18.800 C 18.745 215.400 18.700 215.445 18.700 215.500 C 18.700 215.555 18.745 215.600 18.800 215.600 H 21.700 C 21.800 215.600 21.700 215.500 21.700 215.600 V 223.400 C 21.700 223.500 21.800 223.400 21.700 223.400 H 18.800 C 18.745 223.400 18.700 223.445 18.700 223.500 V 229.500 C 18.700 229.555 18.745 229.600 18.800 229.600 H 21.700 C 21.800 229.600 21.700 229.500 21.700 229.600 V 235.400 C 21.700 235.500 21.800 235.400 21.700 235.400 H 18.800 C 18.745 235.400 18.700 235.445 18.700 235.500 V 241.500 C 18.700 241.555 18.745 241.600 18.800 241.600 H 21.700 C 21.800 241.600 21.700 241.500 21.700 241.600 V 247.400 C 21.700 247.500 21.800 247.400 21.700 247.400 H 18.800 C 18.745 247.400 18.700 247.445 18.700 247.500 V 253.500 C 18.700 253.555 18.745 253.600 18.800 253.600 H 21.700 C 21.800 253.600 21.700 253.500 21.700 253.600 V 259.400 C 21.700 259.500 21.800 259.400 21.700 259.400 H 18.800 C 18.745 259.400 18.700 259.445 18.700 259.500 V 265.500 C 18.700 265.555 18.745 265.600 18.800 265.600 H 21.700 C 21.800 265.600 21.700 265.500 21.700 265.600 V 271.400 C 21.700 271.500 21.800 271.400 21.700 271.400 H 18.800 C 18.745 271.400 18.700 271.445 18.700 271.500 V 277.500 C 18.700 277.555 18.745 277.600 18.800 277.600 H 21.700 C 21.800 277.600 21.700 277.500 21.700 277.600 V 283.400 C 21.700 283.500 21.800 283.400 21.700 283.400 H 18.800 C 18.745 283.400 18.700 283.445 18.700 283.500 V 289.500 C 18.700 289.555 18.745 289.600 18.800 289.600 H 21.700 C 21.800 289.600 21.700 289.500 21.700 289.600 V 295.400 C 21.700 295.500 21.800 295.400 21.700 295.400 H 18.800 C 18.745 295.400 18.700 295.445 18.700 295.500 V 301.500 C 18.700 301.555 18.745 301.600 18.800 301.600 H 21.700 C 21.800 301.600 21.700 301.500 21.700 301.600 V 309.400 C 21.700 309.500 21.800 309.400 21.700 309.400 H 18.800 C 18.745 309.400 18.700 309.445 18.700 309.500 V 315.500 C 18.700 315.555 18.745 315.600 18.800 315.600 H 21.800 Z" stroke="rgb(0,0,0)" stroke-width="0.20" />
  <path d="M 168.700 298.500 V 301.400 C 168.700 301.500 168.800 301.400 168.700 301.400 H 165.900 C 165.800 301.400 165.900 301.500 165.900 301.400 V 295.600 C 165.900 295.500 165.800 295.600 165.900 295.600 H 168.700 C 168.800 295.600 168.700 295.500 168.700 295.600 V 298.500 Z" stroke="rgb(0,0,255)" stroke-width="0.20" />
  <path d="M 168.700 286.500 V 289.400 C 168.700 289.500 168.800 289.400 168.700 289.400 H 165.900 C 165.800 289.400 165.900 289.500 165.900 289.400 V 283.600 C 165.900 283.500 165.800 283.600 165.900 283.600 H 168.700 C 168.800 283.600 168.700 283.500 168.700 283.600 V 286.500 Z" stroke="rgb(0,0,255)" stroke-width="0.20" />
  <path d="M 168.700 274.500 V 277.400 C 168.700 277.500 168.800 277.400 168.700 277.400 H 165.900 C 165.800 277.400 165.900 277.500 165.900 277.400 V 271.600 C 165.900 271.500 165.800 271.600 165.900 271.600 H 168.700 C 168.800 271.600 168.700 271.500 168.700 271.600 V 274.500 Z" stroke="rgb(0,0,255)" stroke-width="0.20" />
  <path d="M 168.700 262.500 V 265.400 C 168.700 265.500 168.800 265.400 168.700 265.400 H 165.900 C 165.800 265.400 165.900 265.500 165.900 265.400 V 259.600 C 165.900 259.500 165.800 259.600 165.900 259.600 H 168.700 C 168.800 259.600 168.700 259.500 168.700 259.600 V 262.500 Z" stroke="rgb(0,0,255)" stroke-width="0.20" />
  <path d="M 168.700 250.500 V 253.400 C 168.700 253.500 168.800 253.400 168.700 253.400 H 165.900 C 165.800 253.400 165.900 253.500 165.900 253.400 V 247.600 C 165.900 247.500 165.800 247.600 165.900 247.600 H 168.700 C 168.800 247.600 168.700 247.500 168.700 247.600 V 250.500 Z" stroke="rgb(0,0,255)" stroke-width="0.20" />
  <path d="M 168.700 238.500 V 241.400 C 168.700 241.500 168.800 241.400 168.700 241.400 H 165.900 C 165.800 241.400 165.900 241.500 165.900 241.400 V 235.600 C 165.900 235.500 165.800 235.600 165.900 235.600 H 168.700 C 168.800 235.600 168.700 235.500 168.700 235.600 V 238.500 Z" stroke="rgb(0,0,255)" stroke-width="0.20" />
  <path d="M 168.700 226.500 V 229.400 C 168.700 229.500 168.800 229.400 168.700 229.400 H 165.900 C 165.800 229.400 165.900 229.500 165.900 229.400 V 223.600 C 165.900 223.500 165.800 223.600 165.900 223.600 H 168.700 C 168.800 223.600 168.700 223.500 168.700 223.600 V 226.500 Z" stroke="rgb(0,0,255)" stroke-width="0.20" />
</g>
<g id="p-8" style="fill:none;stroke-linecap:round;stroke-linejoin:round;">
  <path d="M 21.800 202.900 H 29.700 C 29.800 202.900 29.700 202.800 29.700 202.900 V 205.800 C 29.700 205.855 29.745 205.900 29.800 205.900 H 35.800 C 35.855 205.900 35.900 205.855 35.900 205.800 V 202.900 C 35.900 202.800 35.800 202.900 35.900 202.900 H 41.700 C 41.800 202.900 41.700 202.800 41.700 202.900 V 205.800 C 41.700 205.855 41.745 205.900 41.800 205.900 H 47.800 C 47.855 205.900 47.900 205.855 47.900 205.800 V 202.900 C 47.900 202.800 47.800 202.900 47.900 202.900 H 53.700 C 53.800 202.900 53.700 202.800 53.700 202.900 V 205.800 C 53.700 205.855 53.745 205.900 53.800 205.900 H 59.800 C 59.855 205.900 59.900 205.855 59.900 205.800 V 202.900 C 59.900 202.800 59.800 202.900 59.900 202.900 H 67.800 C 67.855 202.900 67.900 202.855 67.900 202.800 V 155.900 C 67.900 155.800 67.800 155.900 67.900 155.900 H 70.700 C 70.800 155.900 70.700 155.800 70.700 155.900 V 202.800 C 70.700 202.855 70.745 202.900 70.800 202.900 H 78.700 C 78.800 202.900 78.700 202.800 78.700 202.900 V 205.800 C 78.700 205.855 78.745 205.900 78.800 205.900 H 84.800 C 84.855 205.900 84.900 205.855 84.900 205.800 V 202.900 C 84.900 202.800 84.800 202.900 84.900 202.900 H 90.700 C 90.800 202.900 90.700 202.800 90.700 202.900 V 205.800 C 90.700 205.855 90.745 205.900 90.800 205.900 H 96.800 C 96.855 205.900 96.900 205.855 96.900 205.800 V 202.900 C 96.900 202.800 96.800 202.900 96.900 202.900 H 102.700 C 102.800 202.900 102.700 202.800 102.700 202.900 V 205.800 C 102.700 205.855 102.745 205.900 102.800 205.900 H 108.800 C 108.855 205.900 108.900 205.855 108.900 205.800 V 202.900 C 108.900 202.800 108.800 202.900 108.900 202.900 H 116.800 C 116.855 202.900 116.900 202.855 116.900 202.800 V 155.900 C 116.900 155.800 116.800 155.900 116.900 155.900 H 119.700 C 119.800 155.900 119.700 155.800 119.700 155.900 V 202.800 C 119.700 202.855 119.745 202.900 119.800 202.900 H 127.700 C 127.800 202.900 127.700 202.800 127.700 202.900 V 205.800 C 127.700 205.855 127.745 205.900 127.800 205.900 H 133.800 C 133.855 205.900 133.900 205.855 133.900 205.800 V 202.900 C 133.900 202.800 133.800 202.900 133.900 202.900 H 139.700 C 139.800 202.900 139.700 202.800 139.700 202.900 V 205.800 C 139.700 205.855 139.745 205.900 139.800 205.900 H 145.800 C 145.855 205.900 145.900 205.855 145.900 205.800 V 202.900 C 145.900 202.800 145.800 202.900 145.900 202.900 H 151.700 C 151.800 202.900 151.700 202.800 151.700 202.900 V 205.800 C 151.700 205.855 151.745 205.900 151.800 205.900 H 157.800 C 157.855 205.900 157.900 205.855 157.900 205.800 V 202.900 C 157.900 202.800 157.800 202.900 157.900 202.900 H 165.800 C 165.855 202.900 165.900 202.855 165.900 202.800 V 194.900 C 165.900 194.800 165.800 194.900 165.900 194.900 H 168.800 C 168.855 194.900 168.900 194.855 168.900 194.800 V 188.800 C 168.900 188.745 168.855 188.700 168.800 188.700 H 165.900 C 165.800 188.700 165.900 188.800 165.900 188.700 V 182.900 C 165.900 182.800 165.800 182.900 165.900 182.900 H 168.800 C 168.855 182.900 168.900 182.855 168.900 182.800 V 176.800 C 168.900 176.745 168.855 176.700 168.800 176.700 H 165.900 C 165.800 176.700 165.900 176.800 165.900 176.700 V 170.900 C 165.900 170.800 165.800 170.900 165.900 170.900 H 168.800 C 168.855 170.900 168.900 170.855 168.900 170.800 V 164.800 C 168.900 164.745 168.855 164.700 168.800 164.700 H 165.900 C 165.800 164.700 165.900 164.800 165.900 164.700 V 158.900 C 165.900 158.800 165.800 158.900 165.900 158.900 H 168.800 C 168.855 158.900 168.900 158.855 168.900 158.800 V 152.800 C 168.900 152.745 168.855 152.700 168.800 152.700 H 165.900 C 165.800 152.700 165.900 152.800 165.900 152.700 V 146.900 C 165.900 146.800 165.800 146.900 165.900 146.900 H 168.800 C 168.855 146.900 168.900 146.855 168.900 146.800 V 140.800 C 168.900 140.745 168.855 140.700 168.800 140.700 H 165.900 C 165.800 140.700 165.900 140.800 165.900 140.700 V 134.900 C 165.900 134.800 165.800 134.900 165.900 134.900 H 168.800 C 168.855 134.900 168.900 134.855 168.900 134.800 V 128.800 C 168.900 128.745 168.855 128.700 168.800 128.700 H 165.900 C 165.800 128.700 165.900 128.800 165.900 128.700 V 122.900 C 165.900 122.800 165.800 122.900 165.900 122.900 H 168.800 C 168.855 122.900 168.900 122.855 168.900 122.800 V 116.800 C 168.900 116.745 168.855 116.700 168.800 116.700 H 165.900 C 165.800 116.700 165.900 116.800 165.900 116.700 V 108.800 C 165.900 108.745 165.855 108.700 165.800 108.700 H 21.800 C 21.745 108.700 21.700 108.745 21.700 108.800 V 116.700 C 21.700 116.800 21.800 116.700 21.700 116.700 H 18.800 C 18.745 116.700 18.700 116.745 18.700 116.800 V 122.800 C 18.700 122.855 18.745 122.900 18.800 122.900 H 21.700 C 21.800 122.900 21.700 122.800 21.700 122.900 V 128.700 C 21.700 128.800 21.800 128.700 21.700 128.700 H 18.800 C 18.745 128.700 18.700 128.745 18.700 128.800 V 134.800 C 18.700 134.855 18.745 134.900 18.800 134.900 H 21.700 C 21.800 134.900 21.700 134.800 21.700 134.900 V 140.700 C 21.700 140.800 21.800 140.700 21.700 140.700 H 18.800 C 18.745 140.700 18.700 140.745 18.700 140.800 V 146.800 C 18.700 146.855 18.745 146.900 18.800 146.900 H 21.700 C 21.800 146.900 21.700 146.800 21.700 146.900 V 152.700 C 21.700 152.800 21.800 152.700 21.700 152.700 H 18.800 C 18.745 152.700 18.700 152.745 18.700 152.800 V 158.800 C 18.700 158.855 18.745 158.900 18.800 158.900 H 21.700 C 21.800 158.900 21.700 158.800 21.700 158.900 V 164.700 C 21.700 164.800 21.800 164.700 21.700 164.700 H 18.800 C 18.745 164.700 18.700 164.745 18.700 164.800 V 170.800 C 18.700 170.855 18.745 170.900 18.800 170.900 H 21.700 C 21.800 170.900 21.700 170.800 21.700 170.900 V 176.700 C 21.700 176.800 21.800 176.700 21.700 176.700 H 18.800 C 18.745 176.700 18.700 176.745 18.700 176.800 V 182.800 C 18.700 182.855 18.745 182.900 18.800 182.900 H 21.700 C 21.800 182.900 21.700 182.800 21.700 182.900 V 188.700 C 21.700 188.800 21.800 188.700 21.700 188.700 H 18.800 C 18.745 188.700 18.700 188.745 18.700 188.800 V 194.800 C 18.700 194.855 18.745 194.900 18.800 194.900 H 21.700 C 21.800 194.900 21.700 194.800 21.700 194.900 V 202.800 C 21.700 202.855 21.745 202.900 21.800 202.900 Z" stroke="rgb(0,0,0)" stroke-width="0.20" />
</g>
<g id="p-9" style="fill:none;stroke-linecap:round;stroke-linejoin:round;">
  <path d="M 21.800 104.200 H 29.700 C 29.800 104.200 29.700 104.100 29.700 104.200 V 107.100 C 29.700 107.155 29.745 107.200 29.800 107.200 H 35.800 C 35.855 107.200 35.900 107.155 35.900 107.100 V 104.200 C 35.900 104.100 35.800 104.200 35.900 104.200 H 41.700 C 41.800 104.200 41.700 104.100 41.700 104.200 V 107.100 C 41.700 107.155 41.745 107.200 41.800 107.200 H 47.800 C 47.855 107.200 47.900 107.155 47.900 107.100 V 104.200 C 47.900 104.100 47.800 104.200 47.900 104.200 H 53.700 C 53.800 104.200 53.700 104.100 53.700 104.200 V 107.100 C 53.700 107.155 53.745 107.200 53.800 107.200 H 59.800 C 59.855 107.200 59.900 107.155 59.900 107.100 V 104.200 C 59.900 104.100 59.800 104.200 59.900 104.200 H 67.800 C 67.855 104.200 67.900 104.155 67.900 104.100 V 57.200 C 67.900 57.100 67.800 57.200 67.900 57.200 H 70.700 C 70.800 57.200 70.700 57.100 70.700 57.200 V 104.100 C 70.700 104.155 70.745 104.200 70.800 104.200 H 78.700 C 78.800 104.200 78.700 104.100 78.700 104.200 V 107.100 C 78.700 107.155 78.745 107.200 78.800 107.200 H 84.800 C 84.855 107.200 84.900 107.155 84.900 107.100 V 104.200 C 84.900 104.100 84.800 104.200 84.900 104.200 H 90.700 C 90.800 104.200 90.700 104.100 90.700 104.200 V 107.100 C 90.700 107.155 90.745 107.200 90.800 107.200 H 96.800 C 96.855 107.200 96.900 107.155 96.900 107.100 V 104.200 C 96.900 104.100 96.800 104.200 96.900 104.200 H 102.700 C 102.800 104.200 102.700 104.100 102.700 104.200 V 107.100 C 102.700 107.155 102.745 107.200 102.800 107.200 H 108.800 C 108.855 107.200 108.900 107.155 108.900 107.100 V 104.200 C 108.900 104.100 108.800 104.200 108.900 104.200 H 116.800 C 116.855 104.200 116.900 104.155 116.900 104.100 V 57.200 C 116.900 57.100 116.800 57.200 116.900 57.200 H 119.700 C 119.800 57.200 119.700 57.100 119.700 57.200 V 104.100 C 119.700 104.155 119.745 104.200 119.800 104.200 H 127.700 C 127.800 104.200 127.700 104.100 127.700 104.200 V 107.100 C 127.700 107.155 127.745 107.200 127.800 107.200 H 133.800 C 133.855 107.200 133.900 107.155 133.900 107.100 V 104.200 C 133.900 104.100 133.800 104.200 133.900 104.200 H 139.700 C 139.800 104.200 139.700 104.100 139.700 104.200 V 107.100 C 139.700 107.155 139.745 107.200 139.800 107.200 H 145.800 C 145.855 107.200 145.900 107.155 145.900 107.100 V 104.200 C 145.900 104.100 145.800 104.200 145.900 104.200 H 151.700 C 151.800 104.200 151.700 104.100 151.700 104.200 V 107.100 C 151.700 107.155 151.745 107.200 151.800 107.200 H 157.800 C 157.855 107.200 157.900 107.155 157.900 107.100 V 104.200 C 157.900 104.100 157.800 104.200 157.900 104.200 H 165.800 C 165.855 104.200 165.900 104.155 165.900 104.100 V 96.200 C 165.900 96.100 165.800 96.200 165.900 96.200 H 168.800 C 168.855 96.200 168.900 96.155 168.900 96.100 V 90.100 C 168.900 90.045 168.855 90.000 168.800 90.000 H 165.900 C 165.800 90.000 165.900 90.100 165.900 90.000 V 84.200 C 165.900 84.100 165.800 84.200 165.900 84.200 H 168.800 C 168.855 84.200 168.900 84.155 168.900 84.100 V 78.100 C 168.900 78.045 168.855 78.000 168.800 78.000 H 165.900 C 165.800 78.000 165.900 78.100 165.900 78.000 V 72.200 C 165.900 72.100 165.800 72.200 165.900 72.200 H 168.800 C 168.855 72.200 168.900 72.155 168.900 72.100 V 66.100 C 168.900 66.045 168.855 66.000 168.800 66.000 H 165.900 C 165.800 66.000 165.900 66.100 165.900 66.000 V 60.200 C 165.900 60.100 165.800 60.200 165.900 60.200 H 168.800 C 168.855 60.200 168.900 60.155 168.900 60.100 V 54.100 C 168.900 54.045 168.855 54.000 168.800 54.000 H 165.900 C 165.800 54.000 165.900 54.100 165.900 54.000 V 48.200 C 165.900 48.100 165.800 48.200 165.900 48.200 H 168.800 C 168.855 48.200 168.900 48.155 168.900 48.100 V 42.100 C 168.900 42.045 168.855 42.000 168.800 42.000 H 165.900 C 165.800 42.000 165.900 42.100 165.900 42.000 V 36.200 C 165.900 36.100 165.800 36.200 165.900 36.200 H 168.800 C 168.855 36.200 168.900 36.155 168.900 36.100 V 30.100 C 168.900 30.045 168.855 30.000 168.800 30.000 H 165.900 C 165.800 30.000 165.900 30.100 165.900 30.000 V 24.200 C 165.900 24.100 165.800 24.200 165.900 24.200 H 168.800 C 168.855 24.200 168.900 24.155 168.900 24.100 V 18.100 C 168.900 18.045 168.855 18.000 168.800 18.000 H 165.900 C 165.800 18.000 165.900 18.100 165.900 18.000 V 10.100 C 165.900 10.045 165.855 10.000 165.800 10.000 H 21.800 C 21.745 10.000 21.700 10.045 21.700 10.100 V 18.000 C 21.700 18.100 21.800 18.000 21.700 18.000 H 18.800 C 18.745 18.000 18.700 18.045 18.700 18.100 V 24.100 C 18.700 24.155 18.745 24.200 18.800 24.200 H 21.700 C 21.800 24.200 21.700 24.100 21.700 24.200 V 30.000 C 21.700 30.100 21.800 30.000 21.700 30.000 H 18.800 C 18.745 30.000 18.700 30.045 18.700 30.100 V 36.100 C 18.700 36.155 18.745 36.200 18.800 36.200 H 21.700 C 21.800 36.200 21.700 36.100 21.700 36.200 V 42.000 C 21.700 42.100 21.800 42.000 21.700 42.000 H 18.800 C 18.745 42.000 18.700 42.045 18.700 42.100 V 48.100 C 18.700 48.155 18.745 48.200 18.800 48.200 H 21.700 C 21.800 48.200 21.700 48.100 21.700 48.200 V 54.000 C 21.700 54.100 21.800 54.000 21.700 54.000 H 18.800 C 18.745 54.000 18.700 54.045 18.700 54.100 V 60.100 C 18.700 60.155 18.745 60.200 18.800 60.200 H 21.700 C 21.800 60.200 21.700 60.100 21.700 60.200 V 66.000 C 21.700 66.100 21.800 66.000 21.700 66.000 H 18.800 C 18.745 66.000 18.700 66.045 18.700 66.100 V 72.100 C 18.700 72.155 18.745 72.200 18.800 72.200 H 21.700 C 21.800 72.200 21.700 72.100 21.700 72.200 V 78.000 C 21.700 78.100 21.800 78.000 21.700 78.000 H 18.800 C 18.745 78.000 18.700 78.045 18.700 78.100 V 84.100 C 18.700 84.155 18.745 84.200 18.800 84.200 H 21.700 C 21.800 84.200 21.700 84.100 21.700 84.200 V 90.000 C 21.700 90.100 21.800 90.000 21.700 90.000 H 18.800 C 18.745 90.000 18.700 90.045 18.700 90.100 V 96.100 C 18.700 96.155 18.745 96.200 18.800 96.200 H 21.700 C 21.800 96.200 21.700 96.100 21.700 96.200 V 104.100 C 21.700 104.155 21.745 104.200 21.800 104.200 Z" stroke="rgb(0,0,0)" stroke-width="0.20" />
</g>
</svg>