<?xml version='1.0' encoding='utf-8'?>
<svg height="215.14mm" viewBox="0.0 0.0 306.20 215.14" width="306.20mm" xmlns="http://www.w3.org/2000/svg" xmlns:cc="http://creativecommons.org/ns#" xmlns:dc="http://purl.org/dc/elements/1.1/" xmlns:inkscape="http://www.inkscape.org/namespaces/inkscape" xmlns:rdf="http://www.w3.org/1999/02/22-rdf-syntax-ns#" xmlns:svg="http://www.w3.org/2000/svg" xmlns:xlink="http://www.w3.org/1999/xlink">
<!--
WallPinRow - Outset and angled plate to mount stuff to

Created with Boxes.py (https://festi.info/boxes.py)
Command line (remove spaces between dashes): boxes WallPinRow
-->
<title>WallPinRow</title>
<metadata>
<rdf:RDF><cc:Work>
<dc:title>WallMounted - WallPinRow</dc:title>
<dc:source>boxes WallPinRow</dc:source>
<dc:description>Outset and angled plate to mount stuff to

Created with Boxes.py (https://festi.info/boxes.py)
Command line: boxes WallPinRow
Command line short: boxes WallPinRow
</dc:description>
</cc:Work></rdf:RDF></metadata>
<g id="p-0" style="fill:none;stroke-linecap:round;stroke-linejoin:round;">
  <path d="M 10.100 205.141 H 110.100 V 195.141 H 10.100 V 205.141 Z" stroke="rgb(0,0,0)" stroke-width="0.20" />
  <text dominant-baseline="hanging" font-size="6px" style="font-family: sans-serif ; font-weight: normal; font-style: normal; fill: rgb(255,0,0)" text-anchor="middle" transform="matrix( 1.000 0.000 0.000 1.000 60.100 197.141 )">100.0mm, burn:0.10mm</text>
</g>
<g id="p-1" style="fill:none;stroke-linecap:round;stroke-linejoin:round;">
  <path d="M 10.100 155.441 H 22.500 C 22.600 155.441 22.500 155.341 22.500 155.441 V 188.341 C 22.500 189.236 22.736 190.116 23.183 190.891 C 23.631 191.666 24.275 192.310 25.050 192.758 C 25.825 193.205 26.705 193.441 27.600 193.441 C 28.495 193.441 29.375 193.205 30.150 192.758 C 30.925 192.310 31.569 191.666 32.017 190.891 C 32.464 190.116 32.700 189.236 32.700 188.341 V 155.441 C 32.700 155.341 32.600 155.441 32.700 155.441 H 57.500 C 57.600 155.441 57.500 155.341 57.500 155.441 V 188.341 C 57.500 189.236 57.736 190.116 58.183 190.891 C 58.631 191.666 59.275 192.310 60.050 192.758 C 60.825 193.205 61.705 193.441 62.600 193.441 C 63.495 193.441 64.375 193.205 65.150 192.758 C 65.925 192.310 66.569 191.666 67.017 190.891 C 67.464 190.116 67.700 189.236 67.700 188.341 V 155.441 C 67.700 155.341 67.600 155.441 67.700 155.441 H 92.500 C 92.600 155.441 92.500 155.341 92.500 155.441 V 188.341 C 92.500 189.236 92.736 190.116 93.183 190.891 C 93.631 191.666 94.275 192.310 95.050 192.758 C 95.825 193.205 96.705 193.441 97.600 193.441 C 98.495 193.441 99.375 193.205 100.150 192.758 C 100.925 192.310 101.569 191.666 102.017 190.891 C 102.464 190.116 102.700 189.236 102.700 188.341 V 155.441 C 102.700 155.341 102.600 155.441 102.700 155.441 H 127.500 C 127.600 155.441 127.500 155.341 127.500 155.441 V 188.341 C 127.500 189.236 127.736 190.116 128.183 190.891 C 128.631 191.666 129.275 192.310 130.050 192.758 C 130.825 193.205 131.705 193.441 132.600 193.441 C 133.495 193.441 134.375 193.205 135.150 192.758 C 135.925 192.310 136.569 191.666 137.017 190.891 C 137.464 190.116 137.700 189.236 137.700 188.341 V 155.441 C 137.700 155.341 137.600 155.441 137.700 155.441 H 162.500 C 162.600 155.441 162.500 155.341 162.500 155.441 V 188.341 C 162.500 189.236 162.736 190.116 163.183 190.891 C 163.631 191.666 164.275 192.310 165.050 192.758 C 165.825 193.205 166.705 193.441 167.600 193.441 C 168.495 193.441 169.375 193.205 170.150 192.758 C 170.925 192.310 171.569 191.666 172.017 190.891 C 172.464 190.116 172.700 189.236 172.700 188.341 V 155.441 C 172.700 155.341 172.600 155.441 172.700 155.441 H 197.500 C 197.600 155.441 197.500 155.341 197.500 155.441 V 188.341 C 197.500 189.236 197.736 190.116 198.183 190.891 C 198.631 191.666 199.275 192.310 200.050 192.758 C 200.825 193.205 201.705 193.441 202.600 193.441 C 203.495 193.441 204.375 193.205 205.150 192.758 C 205.925 192.310 206.569 191.666 207.017 190.891 C 207.464 190.116 207.700 189.236 207.700 188.341 V 155.441 C 207.700 155.341 207.600 155.441 207.700 155.441 H 232.500 C 232.600 155.441 232.500 155.341 232.500 155.441 V 188.341 C 232.500 189.236 232.736 190.116 233.183 190.891 C 233.631 191.666 234.275 192.310 235.050 192.758 C 235.825 193.205 236.705 193.441 237.600 193.441 C 238.495 193.441 239.375 193.205 240.150 192.758 C 240.925 192.310 241.569 191.666 242.017 190.891 C 242.464 190.116 242.700 189.236 242.700 188.341 V 155.441 C 242.700 155.341 242.600 155.441 242.700 155.441 H 267.500 C 267.600 155.441 267.500 155.341 267.500 155.441 V 188.341 C 267.500 189.236 267.736 190.116 268.183 190.891 C 268.631 191.666 269.275 192.310 270.050 192.758 C 270.825 193.205 271.705 193.441 272.600 193.441 C 273.495 193.441 274.375 193.205 275.150 192.758 C 275.925 192.310 276.569 191.666 277.017 190.891 C 277.464 190.116 277.700 189.236 277.700 188.341 V 155.441 C 277.700 155.341 277.600 155.441 277.700 155.441 H 290.100 C 290.155 155.441 290.200 155.396 290.200 155.341 V 146.341 C 290.200 146.286 290.155 146.241 290.100 146.241 H 279.200 C 279.100 146.241 279.200 146.341 279.200 146.241 V 143.341 C 279.200 143.286 279.155 143.241 279.100 143.241 H 273.100 C 273.045 143.241 273.000 143.286 273.000 143.341 V 146.241 C 273.000 146.341 273.100 146.241 273.000 146.241 H 267.200 C 267.100 146.241 267.200 146.341 267.200 146.241 V 143.341 C 267.200 143.286 267.155 143.241 267.100 143.241 H 261.100 C 261.045 143.241 261.000 143.286 261.000 143.341 V 146.241 C 261.000 146.341 261.100 146.241 261.000 146.241 H 255.200 C 255.100 146.241 255.200 146.341 255.200 146.241 V 143.341 C 255.200 143.286 255.155 143.241 255.100 143.241 H 249.100 C 249.045 143.241 249.000 143.286 249.000 143.341 V 146.241 C 249.000 146.341 249.100 146.241 249.000 146.241 H 243.200 C 243.100 146.241 243.200 146.341 243.200 146.241 V 143.341 C 243.200 143.286 243.155 143.241 243.100 143.241 H 237.100 C 237.045 143.241 237.000 143.286 237.000 143.341 V 146.241 C 237.000 146.341 237.100 146.241 237.000 146.241 H 231.200 C 231.100 146.241 231.200 146.341 231.200 146.241 V 143.341 C 231.200 143.286 231.155 143.241 231.100 143.241 H 225.100 C 225.045 143.241 225.000 143.286 225.000 143.341 V 146.241 C 225.000 146.341 225.100 146.241 225.000 146.241 H 219.200 C 219.100 146.241 219.200 146.341 219.200 146.241 V 143.341 C 219.200 143.286 219.155 143.241 219.100 143.241 H 213.100 C 213.045 143.241 213.000 143.286 213.000 143.341 V 146.241 C 213.000 146.341 213.100 146.241 213.000 146.241 H 207.200 C 207.100 146.241 207.200 146.341 207.200 146.241 V 143.341 C 207.200 143.286 207.155 143.241 207.100 143.241 H 201.100 C 201.045 143.241 201.000 143.286 201.000 143.341 V 146.241 C 201.000 146.341 201.100 146.241 201.000 146.241 H 195.200 C 195.100 146.241 195.200 146.341 195.200 146.241 V 143.341 C 195.200 143.286 195.155 143.241 195.100 143.241 H 189.100 C 189.045 143.241 189.000 143.286 189.000 143.341 V 146.241 C 189.000 146.341 189.100 146.241 189.000 146.241 H 183.200 C 183.100 146.241 183.200 146.341 183.200 146.241 V 143.341 C 183.200 143.286 183.155 143.241 183.100 143.241 H 177.100 C 177.045 143.241 177.000 143.286 177.000 143.341 V 146.241 C 177.000 146.341 177.100 146.241 177.000 146.241 H 171.200 C 171.100 146.241 171.200 146.341 171.200 146.241 V 143.341 C 171.200 143.286 171.155 143.241 171.100 143.241 H 165.100 C 165.045 143.241 165.000 143.286 165.000 143.341 V 146.241 C 165.000 146.341 165.100 146.241 165.000 146.241 H 159.200 C 159.100 146.241 159.200 146.341 159.200 146.241 V 143.341 C 159.200 143.286 159.155 143.241 159.100 143.241 H 153.100 C 153.045 143.241 153.000 143.286 153.000 143.341 V 146.241 C 153.000 146.341 153.100 146.241 153.000 146.241 H 147.200 C 147.100 146.241 147.200 146.341 147.200 146.241 V 143.341 C 147.200 143.286 147.155 143.241 147.100 143.241 H 141.100 C 141.045 143.241 141.000 143.286 141.000 143.341 V 146.241 C 141.000 146.341 141.100 146.241 141.000 146.241 H 135.200 C 135.100 146.241 135.200 146.341 135.200 146.241 V 143.341 C 135.200 143.286 135.155 143.241 135.100 143.241 H 129.100 C 129.045 143.241 129.000 143.286 129.000 143.341 V 146.241 C 129.000 146.341 129.100 146.241 129.000 146.241 H 123.200 C 123.100 146.241 123.200 146.341 123.200 146.241 V 143.341 C 123.200 143.286 123.155 143.241 123.100 143.241 H 117.100 C 117.045 143.241 117.000 143.286 117.000 143.341 V 146.241 C 117.000 146.341 117.100 146.241 117.000 146.241 H 111.200 C 111.100 146.241 111.200 146.341 111.200 146.241 V 143.341 C 111.200 143.286 111.155 143.241 111.100 143.241 H 105.100 C 105.045 143.241 105.000 143.286 105.000 143.341 V 146.241 C 105.000 146.341 105.100 146.241 105.000 146.241 H 99.200 C 99.100 146.241 99.200 146.341 99.200 146.241 V 143.341 C 99.200 143.286 99.155 143.241 99.100 143.241 H 93.100 C 93.045 143.241 93.000 143.286 93.000 143.341 V 146.241 C 93.000 146.341 93.100 146.241 93.000 146.241 H 87.200 C 87.100 146.241 87.200 146.341 87.200 146.241 V 143.341 C 87.200 143.286 87.155 143.241 87.100 143.241 H 81.100 C 81.045 143.241 81.000 143.286 81.000 143.341 V 146.241 C 81.000 146.341 81.100 146.241 81.000 146.241 H 75.200 C 75.100 146.241 75.200 146.341 75.200 146.241 V 143.341 C 75.200 143.286 75.155 143.241 75.100 143.241 H 69.100 C 69.045 143.241 69.000 143.286 69.000 143.341 V 146.241 C 69.000 146.341 69.100 146.241 69.000 146.241 H 63.200 C 63.100 146.241 63.200 146.341 63.200 146.241 V 143.341 C 63.200 143.286 63.155 143.241 63.100 143.241 H 57.100 C 57.045 143.241 57.000 143.286 57.000 143.341 V 146.241 C 57.000 146.341 57.100 146.241 57.000 146.241 H 51.200 C 51.100 146.241 51.200 146.341 51.200 146.241 V 143.341 C 51.200 143.286 51.155 143.241 51.100 143.241 H 45.100 C 45.045 143.241 45.000 143.286 45.000 143.341 V 146.241 C 45.000 146.341 45.100 146.241 45.000 146.241 H 39.200 C 39.100 146.241 39.200 146.341 39.200 146.241 V 143.341 C 39.200 143.286 39.155 143.241 39.100 143.241 H 33.100 C 33.045 143.241 33.000 143.286 33.000 143.341 V 146.241 C 33.000 146.341 33.100 146.241 33.000 146.241 H 27.200 C 27.100 146.241 27.200 146.341 27.200 146.241 V 143.341 C 27.200 143.286 27.155 143.241 27.100 143.241 H 21.100 C 21.045 143.241 21.000 143.286 21.000 143.341 V 146.241 C 21.000 146.341 21.100 146.241 21.000 146.241 H 10.100 C 10.045 146.241 10.000 146.286 10.000 146.341 V 155.341 C 10.000 155.396 10.045 155.441 10.100 155.441 Z" stroke="rgb(0,0,0)" stroke-width="0.20" />
</g>
<g id="p-2" style="fill:none;stroke-linecap:round;stroke-linejoin:round;">
  <path d="M 30.600 137.041 H 25.700 C 25.600 137.041 25.700 137.141 25.700 137.041 V 134.241 C 25.700 134.141 25.600 134.241 25.700 134.241 H 35.500 C 35.600 134.241 35.500 134.141 35.500 134.241 V 137.041 C 35.500 137.141 35.600 137.041 35.500 137.041 H 30.600 Z" stroke="rgb(0,0,255)" stroke-width="0.20" />
  <path d="M 65.600 137.041 H 60.700 C 60.600 137.041 60.700 137.141 60.700 137.041 V 134.241 C 60.700 134.141 60.600 134.241 60.700 134.241 H 70.500 C 70.600 134.241 70.500 134.141 70.500 134.241 V 137.041 C 70.500 137.141 70.600 137.041 70.500 137.041 H 65.600 Z" stroke="rgb(0,0,255)" stroke-width="0.20" />
  <path d="M 100.600 137.041 H 95.700 C 95.600 137.041 95.700 137.141 95.700 137.041 V 134.241 C 95.700 134.141 95.600 134.241 95.700 134.241 H 105.500 C 105.600 134.241 105.500 134.141 105.500 134.241 V 137.041 C 105.500 137.141 105.600 137.041 105.500 137.041 H 100.600 Z" stroke="rgb(0,0,255)" stroke-width="0.20" />
  <path d="M 135.600 137.041 H 130.700 C 130.600 137.041 130.700 137.141 130.700 137.041 V 134.241 C 130.700 134.141 130.600 134.241 130.700 134.241 H 140.500 C 140.600 134.241 140.500 134.141 140.500 134.241 V 137.041 C 140.500 137.141 140.600 137.041 140.500 137.041 H 135.600 Z" stroke="rgb(0,0,255)" stroke-width="0.20" />
  <path d="M 170.600 137.041 H 165.700 C 165.600 137.041 165.700 137.141 165.700 137.041 V 134.241 C 165.700 134.141 165.600 134.241 165.700 134.241 H 175.500 C 175.600 134.241 175.500 134.141 175.500 134.241 V 137.041 C 175.500 137.141 175.600 137.041 175.500 137.041 H 170.600 Z" stroke="rgb(0,0,255)" stroke-width="0.20" />
  <path d="M 205.600 137.041 H 200.700 C 200.600 137.041 200.700 137.141 200.700 137.041 V 134.241 C 200.700 134.141 200.600 134.241 200.700 134.241 H 210.500 C 210.600 134.241 210.500 134.141 210.500 134.241 V 137.041 C 210.500 137.141 210.600 137.041 210.500 137.041 H 205.600 Z" stroke="rgb(0,0,255)" stroke-width="0.20" />
  <path d="M 240.600 137.041 H 235.700 C 235.600 137.041 235.700 137.141 235.700 137.041 V 134.241 C 235.700 134.141 235.600 134.241 235.700 134.241 H 245.500 C 245.600 134.241 245.500 134.141 245.500 134.241 V 137.041 C 245.500 137.141 245.600 137.041 245.500 137.041 H 240.600 Z" stroke="rgb(0,0,255)" stroke-width="0.20" />
  <path d="M 275.600 137.041 H 270.700 C 270.600 137.041 270.700 137.141 270.700 137.041 V 134.241 C 270.700 134.141 270.600 134.241 270.700 134.241 H 280.500 C 280.600 134.241 280.500 134.141 280.500 134.241 V 137.041 C 280.500 137.141 280.600 137.041 280.500 137.041 H 275.600 Z" stroke="rgb(0,0,255)" stroke-width="0.20" />
  <path d="M 154.500 104.141 V 107.041 C 154.500 107.141 154.600 107.041 154.500 107.041 H 151.700 C 151.600 107.041 151.700 107.141 151.700 107.041 V 101.241 C 151.700 101.141 151.600 101.241 151.700 101.241 H 154.500 C 154.600 101.241 154.500 101.141 154.500 101.241 V 104.141 Z" stroke="rgb(0,0,255)" stroke-width="0.20" />
  <path d="M 13.100 141.741 H 293.100 C 293.155 141.741 293.200 141.696 293.200 141.641 V 131.741 C 293.200 131.641 293.100 131.741 293.200 131.741 H 296.100 C 296.155 131.741 296.200 131.696 296.200 131.641 V 125.641 C 296.200 125.586 296.155 125.541 296.100 125.541 H 293.200 C 293.100 125.541 293.200 125.641 293.200 125.541 V 119.741 C 293.200 119.641 293.100 119.741 293.200 119.741 H 296.100 C 296.155 119.741 296.200 119.696 296.200 119.641 V 113.641 C 296.200 113.586 296.155 113.541 296.100 113.541 H 293.200 C 293.100 113.541 293.200 113.641 293.200 113.541 V 107.741 C 293.200 107.641 293.100 107.741 293.200 107.741 H 296.100 C 296.155 107.741 296.200 107.696 296.200 107.641 V 101.641 C 296.200 101.586 296.155 101.541 296.100 101.541 H 293.200 C 293.100 101.541 293.200 101.641 293.200 101.541 V 91.641 C 293.200 91.586 293.155 91.541 293.100 91.541 H 13.100 C 13.045 91.541 13.000 91.586 13.000 91.641 V 101.541 C 13.000 101.641 13.100 101.541 13.000 101.541 H 10.100 C 10.045 101.541 10.000 101.586 10.000 101.641 V 107.641 C 10.000 107.696 10.045 107.741 10.100 107.741 H 13.000 C 13.100 107.741 13.000 107.641 13.000 107.741 V 113.541 C 13.000 113.641 13.100 113.541 13.000 113.541 H 10.100 C 10.045 113.541 10.000 113.586 10.000 113.641 V 119.641 C 10.000 119.696 10.045 119.741 10.100 119.741 H 13.000 C 13.100 119.741 13.000 119.641 13.000 119.741 V 125.541 C 13.000 125.641 13.100 125.541 13.000 125.541 H 10.100 C 10.045 125.541 10.000 125.586 10.000 125.641 V 131.641 C 10.000 131.696 10.045 131.741 10.100 131.741 H 13.000 C 13.100 131.741 13.000 131.641 13.000 131.741 V 141.641 C 13.000 141.696 13.045 141.741 13.100 141.741 Z" stroke="rgb(0,0,0)" stroke-width="0.20" />
</g>
<g id="p-3" style="fill:none;stroke-linecap:round;stroke-linejoin:round;">
  <path d="M 27.100 85.341 H 24.200 C 24.100 85.341 24.200 85.441 24.200 85.341 V 82.541 C 24.200 82.441 24.100 82.541 24.200 82.541 H 30.000 C 30.100 82.541 30.000 82.441 30.000 82.541 V 85.341 C 30.000 85.441 30.100 85.341 30.000 85.341 H 27.100 Z" stroke="rgb(0,0,255)" stroke-width="0.20" />
  <path d="M 39.100 85.341 H 36.200 C 36.100 85.341 36.200 85.441 36.200 85.341 V 82.541 C 36.200 82.441 36.100 82.541 36.200 82.541 H 42.000 C 42.100 82.541 42.000 82.441 42.000 82.541 V 85.341 C 42.000 85.441 42.100 85.341 42.000 85.341 H 39.100 Z" stroke="rgb(0,0,255)" stroke-width="0.20" />
  <path d="M 51.100 85.341 H 48.200 C 48.100 85.341 48.200 85.441 48.200 85.341 V 82.541 C 48.200 82.441 48.100 82.541 48.200 82.541 H 54.000 C 54.100 82.541 54.000 82.441 54.000 82.541 V 85.341 C 54.000 85.441 54.100 85.341 54.000 85.341 H 51.100 Z" stroke="rgb(0,0,255)" stroke-width="0.20" />
  <path d="M 63.100 85.341 H 60.200 C 60.100 85.341 60.200 85.441 60.200 85.341 V 82.541 C 60.200 82.441 60.100 82.541 60.200 82.541 H 66.000 C 66.100 82.541 66.000 82.441 66.000 82.541 V 85.341 C 66.000 85.441 66.100 85.341 66.000 85.341 H 63.100 Z" stroke="rgb(0,0,255)" stroke-width="0.20" />
  <path d="M 75.100 85.341 H 72.200 C 72.100 85.341 72.200 85.441 72.200 85.341 V 82.541 C 72.200 82.441 72.100 82.541 72.200 82.541 H 78.000 C 78.100 82.541 78.000 82.441 78.000 82.541 V 85.341 C 78.000 85.441 78.100 85.341 78.000 85.341 H 75.100 Z" stroke="rgb(0,0,255)" stroke-width="0.20" />
  <path d="M 87.100 85.341 H 84.200 C 84.100 85.341 84.200 85.441 84.200 85.341 V 82.541 C 84.200 82.441 84.100 82.541 84.200 82.541 H 90.000 C 90.100 82.541 90.000 82.441 90.000 82.541 V 85.341 C 90.000 85.441 90.100 85.341 90.000 85.341 H 87.100 Z" stroke="rgb(0,0,255)" stroke-width="0.20" />
  <path d="M 99.100 85.341 H 96.200 C 96.100 85.341 96.200 85.441 96.200 85.341 V 82.541 C 96.200 82.441 96.100 82.541 96.200 82.541 H 102.000 C 102.100 82.541 102.000 82.441 102.000 82.541 V 85.341 C 102.000 85.441 102.100 85.341 102.000 85.341 H 99.100 Z" stroke="rgb(0,0,255)" stroke-width="0.20" />
  <path d="M 111.100 85.341 H 108.200 C 108.100 85.341 108.200 85.441 108.200 85.341 V 82.541 C 108.200 82.441 108.100 82.541 108.200 82.541 H 114.000 C 114.100 82.541 114.000 82.441 114.000 82.541 V 85.341 C 114.000 85.441 114.100 85.341 114.000 85.341 H 111.100 Z" stroke="rgb(0,0,255)" stroke-width="0.20" />
  <path d="M 123.100 85.341 H 120.200 C 120.100 85.341 120.200 85.441 120.200 85.341 V 82.541 C 120.200 82.441 120.100 82.541 120.200 82.541 H 126.000 C 126.100 82.541 126.000 82.441 126.000 82.541 V 85.341 C 126.000 85.441 126.100 85.341 126.000 85.341 H 123.100 Z" stroke="rgb(0,0,255)" stroke-width="0.20" />
  <path d="M 135.100 85.341 H 132.200 C 132.100 85.341 132.200 85.441 132.200 85.341 V 82.541 C 132.200 82.441 132.100 82.541 132.200 82.541 H 138.000 C 138.100 82.541 138.000 82.441 138.000 82.541 V 85.341 C 138.000 85.441 138.100 85.341 138.000 85.341 H 135.100 Z" stroke="rgb(0,0,255)" stroke-width="0.20" />
  <path d="M 147.100 85.341 H 144.200 C 144.100 85.341 144.200 85.441 144.200 85.341 V 82.541 C 144.200 82.441 144.100 82.541 144.200 82.541 H 150.000 C 150.100 82.541 150.000 82.441 150.000 82.541 V 85.341 C 150.000 85.441 150.100 85.341 150.000 85.341 H 147.100 Z" stroke="rgb(0,0,255)" stroke-width="0.20" />
  <path d="M 159.100 85.341 H 156.200 C 156.100 85.341 156.200 85.441 156.200 85.341 V 82.541 C 156.200 82.441 156.100 82.541 156.200 82.541 H 162.000 C 162.100 82.541 162.000 82.441 162.000 82.541 V 85.341 C 162.000 85.441 162.100 85.341 162.000 85.341 H 159.100 Z" stroke="rgb(0,0,255)" stroke-width="0.20" />
  <path d="M 171.100 85.341 H 168.200 C 168.100 85.341 168.200 85.441 168.200 85.341 V 82.541 C 168.200 82.441 168.100 82.541 168.200 82.541 H 174.000 C 174.100 82.541 174.000 82.441 174.000 82.541 V 85.341 C 174.000 85.441 174.100 85.341 174.000 85.341 H 171.100 Z" stroke="rgb(0,0,255)" stroke-width="0.20" />
  <path d="M 183.100 85.341 H 180.200 C 180.100 85.341 180.200 85.441 180.200 85.341 V 82.541 C 180.200 82.441 180.100 82.541 180.200 82.541 H 186.000 C 186.100 82.541 186.000 82.441 186.000 82.541 V 85.341 C 186.000 85.441 186.100 85.341 186.000 85.341 H 183.100 Z" stroke="rgb(0,0,255)" stroke-width="0.20" />
  <path d="M 195.100 85.341 H 192.200 C 192.100 85.341 192.200 85.441 192.200 85.341 V 82.541 C 192.200 82.441 192.100 82.541 192.200 82.541 H 198.000 C 198.100 82.541 198.000 82.441 198.000 82.541 V 85.341 C 198.000 85.441 198.100 85.341 198.000 85.341 H 195.100 Z" stroke="rgb(0,0,255)" stroke-width="0.20" />
  <path d="M 207.100 85.341 H 204.200 C 204.100 85.341 204.200 85.441 204.200 85.341 V 82.541 C 204.200 82.441 204.100 82.541 204.200 82.541 H 210.000 C 210.100 82.541 210.000 82.441 210.000 82.541 V 85.341 C 210.000 85.441 210.100 85.341 210.000 85.341 H 207.100 Z" stroke="rgb(0,0,255)" stroke-width="0.20" />
  <path d="M 219.100 85.341 H 216.200 C 216.100 85.341 216.200 85.441 216.200 85.341 V 82.541 C 216.200 82.441 216.100 82.541 216.200 82.541 H 222.000 C 222.100 82.541 222.000 82.441 222.000 82.541 V 85.341 C 222.000 85.441 222.100 85.341 222.000 85.341 H 219.100 Z" stroke="rgb(0,0,255)" stroke-width="0.20" />
  <path d="M 231.100 85.341 H 228.200 C 228.100 85.341 228.200 85.441 228.200 85.341 V 82.541 C 228.200 82.441 228.100 82.541 228.200 82.541 H 234.000 C 234.100 82.541 234.000 82.441 234.000 82.541 V 85.341 C 234.000 85.441 234.100 85.341 234.000 85.341 H 231.100 Z" stroke="rgb(0,0,255)" stroke-width="0.20" />
  <path d="M 243.100 85.341 H 240.200 C 240.100 85.341 240.200 85.441 240.200 85.341 V 82.541 C 240.200 82.441 240.100 82.541 240.200 82.541 H 246.000 C 246.100 82.541 246.000 82.441 246.000 82.541 V 85.341 C 246.000 85.441 246.100 85.341 246.000 85.341 H 243.100 Z" stroke="rgb(0,0,255)" stroke-width="0.20" />
  <path d="M 255.100 85.341 H 252.200 C 252.100 85.341 252.200 85.441 252.200 85.341 V 82.541 C 252.200 82.441 252.100 82.541 252.200 82.541 H 258.000 C 258.100 82.541 258.000 82.441 258.000 82.541 V 85.341 C 258.000 85.441 258.100 85.341 258.000 85.341 H 255.100 Z" stroke="rgb(0,0,255)" stroke-width="0.20" />
  <path d="M 267.100 85.341 H 264.200 C 264.100 85.341 264.200 85.441 264.200 85.341 V 82.541 C 264.200 82.441 264.100 82.541 264.200 82.541 H 270.000 C 270.100 82.541 270.000 82.441 270.000 82.541 V 85.341 C 270.000 85.441 270.100 85.341 270.000 85.341 H 267.100 Z" stroke="rgb(0,0,255)" stroke-width="0.20" />
  <path d="M 279.100 85.341 H 276.200 C 276.100 85.341 276.200 85.441 276.200 85.341 V 82.541 C 276.200 82.441 276.100 82.541 276.200 82.541 H 282.000 C 282.100 82.541 282.000 82.441 282.000 82.541 V 85.341 C 282.000 85.441 282.100 85.341 282.000 85.341 H 279.100 Z" stroke="rgb(0,0,255)" stroke-width="0.20" />
  <path d="M 154.500 72.941 V 75.841 C 154.500 75.941 154.600 75.841 154.500 75.841 H 151.700 C 151.600 75.841 151.700 75.941 151.700 75.841 V 70.041 C 151.700 69.941 151.600 70.041 151.700 70.041 H 154.500 C 154.600 70.041 154.500 69.941 154.500 70.041 V 72.941 Z" stroke="rgb(0,0,255)" stroke-width="0.20" />
  <path d="M 13.100 90.041 H 293.100 C 293.155 90.041 293.200 89.996 293.200 89.941 V 80.541 C 293.200 80.441 293.100 80.541 293.200 80.541 H 296.100 C 296.155 80.541 296.200 80.496 296.200 80.441 V 74.441 C 296.200 74.386 296.155 74.341 296.100 74.341 H 293.200 C 293.100 74.341 293.200 74.441 293.200 74.341 V 64.941 C 293.200 64.886 293.155 64.841 293.100 64.841 H 13.100 C 13.045 64.841 13.000 64.886 13.000 64.941 V 74.341 C 13.000 74.441 13.100 74.341 13.000 74.341 H 10.100 C 10.045 74.341 10.000 74.386 10.000 74.441 V 80.441 C 10.000 80.496 10.045 80.541 10.100 80.541 H 13.000 C 13.100 80.541 13.000 80.441 13.000 80.541 V 89.941 C 13.000 89.996 13.045 90.041 13.100 90.041 Z" stroke="rgb(0,0,0)" stroke-width="0.20" />
</g>
<g id="p-4" style="fill:none;stroke-linecap:round;stroke-linejoin:round;">
  <path d="M 10.100 63.341 H 27.201 C 27.213 63.341 27.224 63.339 27.235 63.335 L 38.512 59.231 L 44.150 57.179 C 44.202 57.160 44.228 57.102 44.209 57.050 L 27.108 10.066 C 27.094 10.026 27.057 10.000 27.014 10.000 H 10.100 C 10.045 10.000 10.000 10.045 10.000 10.100 V 63.241 C 10.000 63.296 10.045 63.341 10.100 63.341 Z" stroke="rgb(0,0,0)" stroke-width="0.20" />
  <path d="M 25.685 50.597 L 26.677 53.322 C 26.711 53.416 26.771 53.288 26.677 53.322 L 24.046 54.280 C 23.952 54.314 24.080 54.374 24.046 54.280 L 22.062 48.829 C 22.028 48.736 21.968 48.864 22.062 48.829 L 24.693 47.872 C 24.787 47.838 24.659 47.778 24.693 47.872 L 25.685 50.597 Z" stroke="rgb(0,0,255)" stroke-width="0.20" />
  <path d="M 36.756 45.929 L 37.748 48.654 C 37.782 48.748 37.842 48.620 37.748 48.654 L 35.117 49.612 C 35.023 49.646 35.151 49.706 35.117 49.612 L 33.133 44.161 C 33.099 44.067 33.039 44.196 33.133 44.161 L 35.764 43.204 C 35.858 43.170 35.730 43.110 35.764 43.204 L 36.756 45.929 Z" stroke="rgb(0,0,255)" stroke-width="0.20" />
  <path d="M 32.652 34.653 L 33.644 37.378 C 33.678 37.472 33.738 37.343 33.644 37.378 L 31.013 38.335 C 30.919 38.370 31.047 38.429 31.013 38.335 L 29.029 32.885 C 28.995 32.791 28.935 32.919 29.029 32.885 L 31.660 31.927 C 31.754 31.893 31.626 31.834 31.660 31.927 L 32.652 34.653 Z" stroke="rgb(0,0,255)" stroke-width="0.20" />
  <path d="M 28.548 23.376 L 29.540 26.101 C 29.574 26.195 29.634 26.067 29.540 26.101 L 26.908 27.059 C 26.814 27.093 26.943 27.153 26.908 27.059 L 24.925 21.609 C 24.890 21.515 24.831 21.643 24.925 21.609 L 27.556 20.651 C 27.650 20.617 27.522 20.557 27.556 20.651 L 28.548 23.376 Z" stroke="rgb(0,0,255)" stroke-width="0.20" />
</g>
<g id="p-5" style="fill:none;stroke-linecap:round;stroke-linejoin:round;">
  <path d="M 45.815 63.341 H 62.916 C 62.933 63.341 62.948 63.337 62.963 63.330 C 62.977 63.322 62.989 63.312 62.998 63.298 C 63.008 63.285 63.014 63.270 63.016 63.254 C 63.018 63.238 63.016 63.222 63.010 63.207 L 59.932 54.750 L 58.256 50.145 C 58.222 50.051 58.162 50.179 58.256 50.145 L 60.981 49.153 C 61.033 49.134 61.060 49.077 61.041 49.025 L 58.989 43.387 C 58.970 43.335 58.913 43.308 58.861 43.327 L 56.136 44.319 C 56.042 44.353 56.170 44.413 56.136 44.319 L 54.494 39.808 C 54.460 39.714 54.400 39.843 54.494 39.808 L 65.676 35.738 C 65.728 35.720 65.755 35.662 65.736 35.610 L 62.521 26.777 C 62.487 26.683 62.427 26.811 62.521 26.777 L 65.246 25.785 C 65.298 25.766 65.325 25.709 65.306 25.657 L 63.254 20.019 C 63.235 19.967 63.178 19.940 63.126 19.959 L 60.401 20.951 C 60.307 20.985 60.435 21.045 60.401 20.951 L 57.186 12.118 L 56.484 10.190 C 56.470 10.150 56.432 10.124 56.390 10.124 H 45.815 C 45.760 10.124 45.715 10.169 45.715 10.224 V 63.365 C 45.715 63.420 45.760 63.465 45.815 63.465" stroke="rgb(0,0,0)" stroke-width="0.20" />
</g>
<g id="p-6" style="fill:none;stroke-linecap:round;stroke-linejoin:round;">
  <path d="M 70.161 63.341 H 87.262 C 87.274 63.341 87.286 63.339 87.297 63.335 L 98.573 59.231 L 104.211 57.179 C 104.263 57.160 104.290 57.102 104.271 57.050 L 87.170 10.066 C 87.155 10.026 87.118 10.000 87.076 10.000 H 70.161 C 70.106 10.000 70.061 10.045 70.061 10.100 V 63.241 C 70.061 63.296 70.106 63.341 70.161 63.341 Z" stroke="rgb(0,0,0)" stroke-width="0.20" />
  <path d="M 85.746 50.597 L 86.738 53.322 C 86.772 53.416 86.832 53.288 86.738 53.322 L 84.107 54.280 C 84.013 54.314 84.141 54.374 84.107 54.280 L 82.123 48.829 C 82.089 48.736 82.029 48.864 82.123 48.829 L 84.755 47.872 C 84.849 47.838 84.720 47.778 84.755 47.872 L 85.746 50.597 Z" stroke="rgb(0,0,255)" stroke-width="0.20" />
  <path d="M 96.818 45.929 L 97.809 48.654 C 97.844 48.748 97.903 48.620 97.809 48.654 L 95.178 49.612 C 95.084 49.646 95.212 49.706 95.178 49.612 L 93.195 44.161 C 93.160 44.067 93.101 44.196 93.195 44.161 L 95.826 43.204 C 95.920 43.170 95.791 43.110 95.826 43.204 L 96.818 45.929 Z" stroke="rgb(0,0,255)" stroke-width="0.20" />
  <path d="M 92.713 34.653 L 93.705 37.378 C 93.739 37.472 93.799 37.343 93.705 37.378 L 91.074 38.335 C 90.980 38.370 91.108 38.429 91.074 38.335 L 89.090 32.885 C 89.056 32.791 88.996 32.919 89.090 32.885 L 91.721 31.927 C 91.815 31.893 91.687 31.834 91.721 31.927 L 92.713 34.653 Z" stroke="rgb(0,0,255)" stroke-width="0.20" />
  <path d="M 88.609 23.376 L 89.601 26.101 C 89.635 26.195 89.695 26.067 89.601 26.101 L 86.970 27.059 C 86.876 27.093 87.004 27.153 86.970 27.059 L 84.986 21.609 C 84.952 21.515 84.892 21.643 84.986 21.609 L 87.617 20.651 C 87.711 20.617 87.583 20.557 87.617 20.651 L 88.609 23.376 Z" stroke="rgb(0,0,255)" stroke-width="0.20" />
</g>
</svg>