<?xml version='1.0' encoding='utf-8'?>
<svg height="287.90mm" viewBox="0.0 0.0 302.30 287.90" width="302.30mm" xmlns="http://www.w3.org/2000/svg" xmlns:cc="http://creativecommons.org/ns#" xmlns:dc="http://purl.org/dc/elements/1.1/" xmlns:inkscape="http://www.inkscape.org/namespaces/inkscape" xmlns:rdf="http://www.w3.org/1999/02/22-rdf-syntax-ns#" xmlns:svg="http://www.w3.org/2000/svg" xmlns:xlink="http://www.w3.org/1999/xlink">
<!--
WallPlaneHolder - Hold a plane to a wall

Created with Boxes.py (https://festi.info/boxes.py)
Command line (remove spaces between dashes): boxes WallPlaneHolder
-->
<title>WallPlaneHolder</title>
<metadata>
<rdf:RDF><cc:Work>
<dc:title>WallMounted - WallPlaneHolder</dc:title>
<dc:source>boxes WallPlaneHolder</dc:source>
<dc:description>Hold a plane to a wall

Created with Boxes.py (https://festi.info/boxes.py)
Command line: boxes WallPlaneHolder
Command line short: boxes WallPlaneHolder
</dc:description>
</cc:Work></rdf:RDF></metadata>
<g id="p-0" style="fill:none;stroke-linecap:round;stroke-linejoin:round;">
  <path d="M 18.800 277.900 H 118.800 V 267.900 H 18.800 V 277.900 Z" stroke="rgb(0,0,0)" stroke-width="0.20" />
  <text dominant-baseline="hanging" font-size="8px" style="font-family: sans-serif ; font-weight: normal; font-style: normal; fill: rgb(255,0,0)" text-anchor="middle" transform="matrix( 1.000 0.000 0.000 1.000 68.800 268.900 )">100.00mm, burn:0.10mm</text>
</g>
<g id="p-1" style="fill:none;stroke-linecap:round;stroke-linejoin:round;">
  <path d="M 24.700 246.850 V 249.750 C 24.700 249.850 24.800 249.750 24.700 249.750 H 21.900 C 21.800 249.750 21.900 249.850 21.900 249.750 V 243.950 C 21.900 243.850 21.800 243.950 21.900 243.950 H 24.700 C 24.800 243.950 24.700 243.850 24.700 243.950 V 246.850 Z" stroke="rgb(0,0,255)" stroke-width="0.20" />
  <path d="M 24.700 234.850 V 237.750 C 24.700 237.850 24.800 237.750 24.700 237.750 H 21.900 C 21.800 237.750 21.900 237.850 21.900 237.750 V 231.950 C 21.900 231.850 21.800 231.950 21.900 231.950 H 24.700 C 24.800 231.950 24.700 231.850 24.700 231.950 V 234.850 Z" stroke="rgb(0,0,255)" stroke-width="0.20" />
  <path d="M 24.700 222.850 V 225.750 C 24.700 225.850 24.800 225.750 24.700 225.750 H 21.900 C 21.800 225.750 21.900 225.850 21.900 225.750 V 219.950 C 21.900 219.850 21.800 219.950 21.900 219.950 H 24.700 C 24.800 219.950 24.700 219.850 24.700 219.950 V 222.850 Z" stroke="rgb(0,0,255)" stroke-width="0.20" />
  <path d="M 24.700 210.850 V 213.750 C 24.700 213.850 24.800 213.750 24.700 213.750 H 21.900 C 21.800 213.750 21.900 213.850 21.900 213.750 V 207.950 C 21.900 207.850 21.800 207.950 21.900 207.950 H 24.700 C 24.800 207.950 24.700 207.850 24.700 207.950 V 210.850 Z" stroke="rgb(0,0,255)" stroke-width="0.20" />
  <path d="M 24.700 59.350 V 62.250 C 24.700 62.350 24.800 62.250 24.700 62.250 H 21.900 C 21.800 62.250 21.900 62.350 21.900 62.250 V 56.450 C 21.900 56.350 21.800 56.450 21.900 56.450 H 24.700 C 24.800 56.450 24.700 56.350 24.700 56.450 V 59.350 Z" stroke="rgb(0,0,255)" stroke-width="0.20" />
  <path d="M 24.700 47.350 V 50.250 C 24.700 50.350 24.800 50.250 24.700 50.250 H 21.900 C 21.800 50.250 21.900 50.350 21.900 50.250 V 44.450 C 21.900 44.350 21.800 44.450 21.900 44.450 H 24.700 C 24.800 44.450 24.700 44.350 24.700 44.450 V 47.350 Z" stroke="rgb(0,0,255)" stroke-width="0.20" />
  <path d="M 24.700 35.350 V 38.250 C 24.700 38.350 24.800 38.250 24.700 38.250 H 21.900 C 21.800 38.250 21.900 38.350 21.900 38.250 V 32.450 C 21.900 32.350 21.800 32.450 21.900 32.450 H 24.700 C 24.800 32.450 24.700 32.350 24.700 32.450 V 35.350 Z" stroke="rgb(0,0,255)" stroke-width="0.20" />
  <path d="M 24.700 23.350 V 26.250 C 24.700 26.350 24.800 26.250 24.700 26.250 H 21.900 C 21.800 26.250 21.900 26.350 21.900 26.250 V 20.450 C 21.900 20.350 21.800 20.450 21.900 20.450 H 24.700 C 24.800 20.450 24.700 20.350 24.700 20.450 V 23.350 Z" stroke="rgb(0,0,255)" stroke-width="0.20" />
  <path d="M 107.700 31.100 V 34.000 C 107.700 34.100 107.800 34.000 107.700 34.000 H 104.900 C 104.800 34.000 104.900 34.100 104.900 34.000 V 28.200 C 104.900 28.100 104.800 28.200 104.900 28.200 H 107.700 C 107.800 28.200 107.700 28.100 107.700 28.200 V 31.100 Z" stroke="rgb(0,0,255)" stroke-width="0.20" />
  <path d="M 107.700 19.100 V 22.000 C 107.700 22.100 107.800 22.000 107.700 22.000 H 104.900 C 104.800 22.000 104.900 22.100 104.900 22.000 V 16.200 C 104.900 16.100 104.800 16.200 104.900 16.200 H 107.700 C 107.800 16.200 107.700 16.100 107.700 16.200 V 19.100 Z" stroke="rgb(0,0,255)" stroke-width="0.20" />
  <path d="M 37.800 263.000 H 34.900 C 34.800 263.000 34.900 263.100 34.900 263.000 V 260.200 C 34.900 260.100 34.800 260.200 34.900 260.200 H 40.700 C 40.800 260.200 40.700 260.100 40.700 260.200 V 263.000 C 40.700 263.100 40.800 263.000 40.700 263.000 H 37.800 Z" stroke="rgb(0,0,255)" stroke-width="0.20" />
  <path d="M 49.800 263.000 H 46.900 C 46.800 263.000 46.900 263.100 46.900 263.000 V 260.200 C 46.900 260.100 46.800 260.200 46.900 260.200 H 52.700 C 52.800 260.200 52.700 260.100 52.700 260.200 V 263.000 C 52.700 263.100 52.800 263.000 52.700 263.000 H 49.800 Z" stroke="rgb(0,0,255)" stroke-width="0.20" />
  <path d="M 61.800 263.000 H 58.900 C 58.800 263.000 58.900 263.100 58.900 263.000 V 260.200 C 58.900 260.100 58.800 260.200 58.900 260.200 H 64.700 C 64.800 260.200 64.700 260.100 64.700 260.200 V 263.000 C 64.700 263.100 64.800 263.000 64.700 263.000 H 61.800 Z" stroke="rgb(0,0,255)" stroke-width="0.20" />
  <path d="M 73.800 263.000 H 70.900 C 70.800 263.000 70.900 263.100 70.900 263.000 V 260.200 C 70.900 260.100 70.800 260.200 70.900 260.200 H 76.700 C 76.800 260.200 76.700 260.100 76.700 260.200 V 263.000 C 76.700 263.100 76.800 263.000 76.700 263.000 H 73.800 Z" stroke="rgb(0,0,255)" stroke-width="0.20" />
  <path d="M 85.800 263.000 H 82.900 C 82.800 263.000 82.900 263.100 82.900 263.000 V 260.200 C 82.900 260.100 82.800 260.200 82.900 260.200 H 88.700 C 88.800 260.200 88.700 260.100 88.700 260.200 V 263.000 C 88.700 263.100 88.800 263.000 88.700 263.000 H 85.800 Z" stroke="rgb(0,0,255)" stroke-width="0.20" />
  <path d="M 97.800 263.000 H 94.900 C 94.800 263.000 94.900 263.100 94.900 263.000 V 260.200 C 94.900 260.100 94.800 260.200 94.900 260.200 H 100.700 C 100.800 260.200 100.700 260.100 100.700 260.200 V 263.000 C 100.700 263.100 100.800 263.000 100.700 263.000 H 97.800 Z" stroke="rgb(0,0,255)" stroke-width="0.20" />
  <path d="M 18.800 266.200 H 110.800 C 110.855 266.200 110.900 266.155 110.900 266.100 V 10.100 C 110.900 10.045 110.855 10.000 110.800 10.000 H 18.800 C 18.745 10.000 18.700 10.045 18.700 10.100 V 266.100 C 18.700 266.155 18.745 266.200 18.800 266.200 Z" stroke="rgb(0,0,0)" stroke-width="0.20" />
</g>
<g id="p-2" style="fill:none;stroke-linecap:round;stroke-linejoin:round;">
  <path d="M 118.400 246.850 V 249.750 C 118.400 249.850 118.500 249.750 118.400 249.750 H 115.600 C 115.500 249.750 115.600 249.850 115.600 249.750 V 243.950 C 115.600 243.850 115.500 243.950 115.600 243.950 H 118.400 C 118.500 243.950 118.400 243.850 118.400 243.950 V 246.850 Z" stroke="rgb(0,0,255)" stroke-width="0.20" />
  <path d="M 118.400 234.850 V 237.750 C 118.400 237.850 118.500 237.750 118.400 237.750 H 115.600 C 115.500 237.750 115.600 237.850 115.600 237.750 V 231.950 C 115.600 231.850 115.500 231.950 115.600 231.950 H 118.400 C 118.500 231.950 118.400 231.850 118.400 231.950 V 234.850 Z" stroke="rgb(0,0,255)" stroke-width="0.20" />
  <path d="M 118.400 222.850 V 225.750 C 118.400 225.850 118.500 225.750 118.400 225.750 H 115.600 C 115.500 225.750 115.600 225.850 115.600 225.750 V 219.950 C 115.600 219.850 115.500 219.950 115.600 219.950 H 118.400 C 118.500 219.950 118.400 219.850 118.400 219.950 V 222.850 Z" stroke="rgb(0,0,255)" stroke-width="0.20" />
  <path d="M 118.400 210.850 V 213.750 C 118.400 213.850 118.500 213.750 118.400 213.750 H 115.600 C 115.500 213.750 115.600 213.850 115.600 213.750 V 207.950 C 115.600 207.850 115.500 207.950 115.600 207.950 H 118.400 C 118.500 207.950 118.400 207.850 118.400 207.950 V 210.850 Z" stroke="rgb(0,0,255)" stroke-width="0.20" />
  <path d="M 118.400 59.350 V 62.250 C 118.400 62.350 118.500 62.250 118.400 62.250 H 115.600 C 115.500 62.250 115.600 62.350 115.600 62.250 V 56.450 C 115.600 56.350 115.500 56.450 115.600 56.450 H 118.400 C 118.500 56.450 118.400 56.350 118.400 56.450 V 59.350 Z" stroke="rgb(0,0,255)" stroke-width="0.20" />
  <path d="M 118.400 47.350 V 50.250 C 118.400 50.350 118.500 50.250 118.400 50.250 H 115.600 C 115.500 50.250 115.600 50.350 115.600 50.250 V 44.450 C 115.600 44.350 115.500 44.450 115.600 44.450 H 118.400 C 118.500 44.450 118.400 44.350 118.400 44.450 V 47.350 Z" stroke="rgb(0,0,255)" stroke-width="0.20" />
  <path d="M 118.400 35.350 V 38.250 C 118.400 38.350 118.500 38.250 118.400 38.250 H 115.600 C 115.500 38.250 115.600 38.350 115.600 38.250 V 32.450 C 115.600 32.350 115.500 32.450 115.600 32.450 H 118.400 C 118.500 32.450 118.400 32.350 118.400 32.450 V 35.350 Z" stroke="rgb(0,0,255)" stroke-width="0.20" />
  <path d="M 118.400 23.350 V 26.250 C 118.400 26.350 118.500 26.250 118.400 26.250 H 115.600 C 115.500 26.250 115.600 26.350 115.600 26.250 V 20.450 C 115.600 20.350 115.500 20.450 115.600 20.450 H 118.400 C 118.500 20.450 118.400 20.350 118.400 20.450 V 23.350 Z" stroke="rgb(0,0,255)" stroke-width="0.20" />
  <path d="M 201.400 31.100 V 34.000 C 201.400 34.100 201.500 34.000 201.400 34.000 H 198.600 C 198.500 34.000 198.600 34.100 198.600 34.000 V 28.200 C 198.600 28.100 198.500 28.200 198.600 28.200 H 201.400 C 201.500 28.200 201.400 28.100 201.400 28.200 V 31.100 Z" stroke="rgb(0,0,255)" stroke-width="0.20" />
  <path d="M 201.400 19.100 V 22.000 C 201.400 22.100 201.500 22.000 201.400 22.000 H 198.600 C 198.500 22.000 198.600 22.100 198.600 22.000 V 16.200 C 198.600 16.100 198.500 16.200 198.600 16.200 H 201.400 C 201.500 16.200 201.400 16.100 201.400 16.200 V 19.100 Z" stroke="rgb(0,0,255)" stroke-width="0.20" />
  <path d="M 131.500 263.000 H 128.600 C 128.500 263.000 128.600 263.100 128.600 263.000 V 260.200 C 128.600 260.100 128.500 260.200 128.600 260.200 H 134.400 C 134.500 260.200 134.400 260.100 134.400 260.200 V 263.000 C 134.400 263.100 134.500 263.000 134.400 263.000 H 131.500 Z" stroke="rgb(0,0,255)" stroke-width="0.20" />
  <path d="M 143.500 263.000 H 140.600 C 140.500 263.000 140.600 263.100 140.600 263.000 V 260.200 C 140.600 260.100 140.500 260.200 140.600 260.200 H 146.400 C 146.500 260.200 146.400 260.100 146.400 260.200 V 263.000 C 146.400 263.100 146.500 263.000 146.400 263.000 H 143.500 Z" stroke="rgb(0,0,255)" stroke-width="0.20" />
  <path d="M 155.500 263.000 H 152.600 C 152.500 263.000 152.600 263.100 152.600 263.000 V 260.200 C 152.600 260.100 152.500 260.200 152.600 260.200 H 158.400 C 158.500 260.200 158.400 260.100 158.400 260.200 V 263.000 C 158.400 263.100 158.500 263.000 158.400 263.000 H 155.500 Z" stroke="rgb(0,0,255)" stroke-width="0.20" />
  <path d="M 167.500 263.000 H 164.600 C 164.500 263.000 164.600 263.100 164.600 263.000 V 260.200 C 164.600 260.100 164.500 260.200 164.600 260.200 H 170.400 C 170.500 260.200 170.400 260.100 170.400 260.200 V 263.000 C 170.400 263.100 170.500 263.000 170.400 263.000 H 167.500 Z" stroke="rgb(0,0,255)" stroke-width="0.20" />
  <path d="M 179.500 263.000 H 176.600 C 176.500 263.000 176.600 263.100 176.600 263.000 V 260.200 C 176.600 260.100 176.500 260.200 176.600 260.200 H 182.400 C 182.500 260.200 182.400 260.100 182.400 260.200 V 263.000 C 182.400 263.100 182.500 263.000 182.400 263.000 H 179.500 Z" stroke="rgb(0,0,255)" stroke-width="0.20" />
  <path d="M 191.500 263.000 H 188.600 C 188.500 263.000 188.600 263.100 188.600 263.000 V 260.200 C 188.600 260.100 188.500 260.200 188.600 260.200 H 194.400 C 194.500 260.200 194.400 260.100 194.400 260.200 V 263.000 C 194.400 263.100 194.500 263.000 194.400 263.000 H 191.500 Z" stroke="rgb(0,0,255)" stroke-width="0.20" />
  <path d="M 112.500 266.200 H 204.500 C 204.555 266.200 204.600 266.155 204.600 266.100 V 10.100 C 204.600 10.045 204.555 10.000 204.500 10.000 H 112.500 C 112.445 10.000 112.400 10.045 112.400 10.100 V 266.100 C 112.400 266.155 112.445 266.200 112.500 266.200 Z" stroke="rgb(0,0,0)" stroke-width="0.20" />
</g>
<g id="p-3" style="fill:none;stroke-linecap:round;stroke-linejoin:round;">
  <path d="M 209.200 266.200 H 289.200 C 289.255 266.200 289.300 266.155 289.300 266.100 V 256.200 C 289.300 256.100 289.200 256.200 289.300 256.200 H 292.200 C 292.255 256.200 292.300 256.155 292.300 256.100 V 250.100 C 292.300 250.045 292.255 250.000 292.200 250.000 H 289.300 C 289.200 250.000 289.300 250.100 289.300 250.000 V 244.200 C 289.300 244.100 289.200 244.200 289.300 244.200 H 292.200 C 292.255 244.200 292.300 244.155 292.300 244.100 V 238.100 C 292.300 238.045 292.255 238.000 292.200 238.000 H 289.300 C 289.200 238.000 289.300 238.100 289.300 238.000 V 232.200 C 289.300 232.100 289.200 232.200 289.300 232.200 H 292.200 C 292.255 232.200 292.300 232.155 292.300 232.100 V 226.100 C 292.300 226.045 292.255 226.000 292.200 226.000 H 289.300 C 289.200 226.000 289.300 226.100 289.300 226.000 V 220.200 C 289.300 220.100 289.200 220.200 289.300 220.200 H 292.200 C 292.255 220.200 292.300 220.155 292.300 220.100 V 214.100 C 292.300 214.045 292.255 214.000 292.200 214.000 H 289.300 C 289.200 214.000 289.300 214.100 289.300 214.000 V 208.200 C 289.300 208.100 289.200 208.200 289.300 208.200 H 292.200 C 292.255 208.200 292.300 208.155 292.300 208.100 V 202.100 C 292.300 202.045 292.255 202.000 292.200 202.000 H 289.300 C 289.200 202.000 289.300 202.100 289.300 202.000 V 196.200 C 289.300 196.100 289.200 196.200 289.300 196.200 H 292.200 C 292.255 196.200 292.300 196.155 292.300 196.100 V 190.100 C 292.300 190.045 292.255 190.000 292.200 190.000 H 289.300 C 289.200 190.000 289.300 190.100 289.300 190.000 V 180.100 V 177.100 C 289.300 177.045 289.255 177.000 289.200 177.000 H 282.200 C 282.145 177.000 282.100 177.045 282.100 177.100 V 180.000 C 282.100 180.100 282.200 180.000 282.100 180.000 H 276.300 C 276.200 180.000 276.300 180.100 276.300 180.000 V 177.100 C 276.300 177.045 276.255 177.000 276.200 177.000 H 270.200 C 270.145 177.000 270.100 177.045 270.100 177.100 V 180.000 C 270.100 180.100 270.200 180.000 270.100 180.000 H 264.300 C 264.200 180.000 264.300 180.100 264.300 180.000 V 177.100 C 264.300 177.045 264.255 177.000 264.200 177.000 H 258.200 C 258.145 177.000 258.100 177.045 258.100 177.100 V 180.000 C 258.100 180.100 258.200 180.000 258.100 180.000 H 252.300 C 252.200 180.000 252.300 180.100 252.300 180.000 V 177.100 C 252.300 177.045 252.255 177.000 252.200 177.000 H 246.200 C 246.145 177.000 246.100 177.045 246.100 177.100 V 180.000 C 246.100 180.100 246.200 180.000 246.100 180.000 H 240.300 C 240.200 180.000 240.300 180.100 240.300 180.000 V 177.100 C 240.300 177.045 240.255 177.000 240.200 177.000 H 234.200 C 234.145 177.000 234.100 177.045 234.100 177.100 V 180.000 C 234.100 180.100 234.200 180.000 234.100 180.000 H 228.300 C 228.200 180.000 228.300 180.100 228.300 180.000 V 177.100 C 228.300 177.045 228.255 177.000 228.200 177.000 H 222.200 C 222.145 177.000 222.100 177.045 222.100 177.100 V 180.000 C 222.100 180.100 222.200 180.000 222.100 180.000 H 216.300 C 216.200 180.000 216.300 180.100 216.300 180.000 V 177.100 C 216.300 177.045 216.255 177.000 216.200 177.000 H 209.200 C 209.145 177.000 209.100 177.045 209.100 177.100 V 180.100 V 190.000 C 209.100 190.100 209.200 190.000 209.100 190.000 H 206.200 C 206.145 190.000 206.100 190.045 206.100 190.100 V 196.100 C 206.100 196.155 206.145 196.200 206.200 196.200 H 209.100 C 209.200 196.200 209.100 196.100 209.100 196.200 V 202.000 C 209.100 202.100 209.200 202.000 209.100 202.000 H 206.200 C 206.145 202.000 206.100 202.045 206.100 202.100 V 208.100 C 206.100 208.155 206.145 208.200 206.200 208.200 H 209.100 C 209.200 208.200 209.100 208.100 209.100 208.200 V 214.000 C 209.100 214.100 209.200 214.000 209.100 214.000 H 206.200 C 206.145 214.000 206.100 214.045 206.100 214.100 V 220.100 C 206.100 220.155 206.145 220.200 206.200 220.200 H 209.100 C 209.200 220.200 209.100 220.100 209.100 220.200 V 226.000 C 209.100 226.100 209.200 226.000 209.100 226.000 H 206.200 C 206.145 226.000 206.100 226.045 206.100 226.100 V 232.100 C 206.100 232.155 206.145 232.200 206.200 232.200 H 209.100 C 209.200 232.200 209.100 232.100 209.100 232.200 V 238.000 C 209.100 238.100 209.200 238.000 209.100 238.000 H 206.200 C 206.145 238.000 206.100 238.045 206.100 238.100 V 244.100 C 206.100 244.155 206.145 244.200 206.200 244.200 H 209.100 C 209.200 244.200 209.100 244.100 209.100 244.200 V 250.000 C 209.100 250.100 209.200 250.000 209.100 250.000 H 206.200 C 206.145 250.000 206.100 250.045 206.100 250.100 V 256.100 C 206.100 256.155 206.145 256.200 206.200 256.200 H 209.100 C 209.200 256.200 209.100 256.100 209.100 256.200 V 266.100 C 209.100 266.155 209.145 266.200 209.200 266.200 Z" stroke="rgb(0,0,0)" stroke-width="0.20" />
</g>
<g id="p-4" style="fill:none;stroke-linecap:round;stroke-linejoin:round;">
  <path d="M 209.200 172.500 H 216.100 C 216.200 172.500 216.100 172.400 216.100 172.500 V 175.400 C 216.100 175.455 216.145 175.500 216.200 175.500 H 222.200 C 222.255 175.500 222.300 175.455 222.300 175.400 V 172.500 C 222.300 172.400 222.200 172.500 222.300 172.500 H 228.100 C 228.200 172.500 228.100 172.400 228.100 172.500 V 175.400 C 228.100 175.455 228.145 175.500 228.200 175.500 H 234.200 C 234.255 175.500 234.300 175.455 234.300 175.400 V 172.500 C 234.300 172.400 234.200 172.500 234.300 172.500 H 240.100 C 240.200 172.500 240.100 172.400 240.100 172.500 V 175.400 C 240.100 175.455 240.145 175.500 240.200 175.500 H 246.200 C 246.255 175.500 246.300 175.455 246.300 175.400 V 172.500 C 246.300 172.400 246.200 172.500 246.300 172.500 H 252.100 C 252.200 172.500 252.100 172.400 252.100 172.500 V 175.400 C 252.100 175.455 252.145 175.500 252.200 175.500 H 258.200 C 258.255 175.500 258.300 175.455 258.300 175.400 V 172.500 C 258.300 172.400 258.200 172.500 258.300 172.500 H 264.100 C 264.200 172.500 264.100 172.400 264.100 172.500 V 175.400 C 264.100 175.455 264.145 175.500 264.200 175.500 H 270.200 C 270.255 175.500 270.300 175.455 270.300 175.400 V 172.500 C 270.300 172.400 270.200 172.500 270.300 172.500 H 276.100 C 276.200 172.500 276.100 172.400 276.100 172.500 V 175.400 C 276.100 175.455 276.145 175.500 276.200 175.500 H 282.200 C 282.255 175.500 282.300 175.455 282.300 175.400 V 172.500 C 282.300 172.400 282.200 172.500 282.300 172.500 H 289.200 C 289.255 172.500 289.300 172.455 289.300 172.400 V 162.250 C 289.300 162.150 289.200 162.250 289.300 162.250 H 292.200 C 292.255 162.250 292.300 162.205 292.300 162.150 V 156.150 C 292.300 156.095 292.255 156.050 292.200 156.050 H 289.300 C 289.200 156.050 289.300 156.150 289.300 156.050 V 150.250 C 289.300 150.150 289.200 150.250 289.300 150.250 H 292.200 C 292.255 150.250 292.300 150.205 292.300 150.150 V 144.150 C 292.300 144.095 292.255 144.050 292.200 144.050 H 289.300 C 289.200 144.050 289.300 144.150 289.300 144.050 V 138.250 C 289.300 138.150 289.200 138.250 289.300 138.250 H 292.200 C 292.255 138.250 292.300 138.205 292.300 138.150 V 132.150 C 292.300 132.095 292.255 132.050 292.200 132.050 H 289.300 C 289.200 132.050 289.300 132.150 289.300 132.050 V 126.250 C 289.300 126.150 289.200 126.250 289.300 126.250 H 292.200 C 292.255 126.250 292.300 126.205 292.300 126.150 V 120.150 C 292.300 120.095 292.255 120.050 292.200 120.050 H 289.300 C 289.200 120.050 289.300 120.150 289.300 120.050 V 109.900 C 289.300 109.845 289.255 109.800 289.200 109.800 H 209.200 C 209.145 109.800 209.100 109.845 209.100 109.900 V 120.050 C 209.100 120.150 209.200 120.050 209.100 120.050 H 206.200 C 206.145 120.050 206.100 120.095 206.100 120.150 V 126.150 C 206.100 126.205 206.145 126.250 206.200 126.250 H 209.100 C 209.200 126.250 209.100 126.150 209.100 126.250 V 132.050 C 209.100 132.150 209.200 132.050 209.100 132.050 H 206.200 C 206.145 132.050 206.100 132.095 206.100 132.150 V 138.150 C 206.100 138.205 206.145 138.250 206.200 138.250 H 209.100 C 209.200 138.250 209.100 138.150 209.100 138.250 V 144.050 C 209.100 144.150 209.200 144.050 209.100 144.050 H 206.200 C 206.145 144.050 206.100 144.095 206.100 144.150 V 150.150 C 206.100 150.205 206.145 150.250 206.200 150.250 H 209.100 C 209.200 150.250 209.100 150.150 209.100 150.250 V 156.050 C 209.100 156.150 209.200 156.050 209.100 156.050 H 206.200 C 206.145 156.050 206.100 156.095 206.100 156.150 V 162.150 C 206.100 162.205 206.145 162.250 206.200 162.250 H 209.100 C 209.200 162.250 209.100 162.150 209.100 162.250 V 172.400 C 209.100 172.455 209.145 172.500 209.200 172.500 Z" stroke="rgb(0,0,0)" stroke-width="0.20" />
</g>
<g id="p-5" style="fill:none;stroke-linecap:round;stroke-linejoin:round;">
  <path d="M 209.200 108.300 H 289.200 C 289.255 108.300 289.300 108.255 289.300 108.200 V 98.050 C 289.300 97.950 289.200 98.050 289.300 98.050 H 292.200 C 292.255 98.050 292.300 98.005 292.300 97.950 V 91.950 C 292.300 91.895 292.255 91.850 292.200 91.850 H 289.300 C 289.200 91.850 289.300 91.950 289.300 91.850 V 86.050 C 289.300 85.950 289.200 86.050 289.300 86.050 H 292.200 C 292.255 86.050 292.300 86.005 292.300 85.950 V 79.950 C 292.300 79.895 292.255 79.850 292.200 79.850 H 289.300 C 289.200 79.850 289.300 79.950 289.300 79.850 V 74.050 C 289.300 73.950 289.200 74.050 289.300 74.050 H 292.200 C 292.255 74.050 292.300 74.005 292.300 73.950 V 67.950 C 292.300 67.895 292.255 67.850 292.200 67.850 H 289.300 C 289.200 67.850 289.300 67.950 289.300 67.850 V 62.050 C 289.300 61.950 289.200 62.050 289.300 62.050 H 292.200 C 292.255 62.050 292.300 62.005 292.300 61.950 V 55.950 C 292.300 55.895 292.255 55.850 292.200 55.850 H 289.300 C 289.200 55.850 289.300 55.950 289.300 55.850 V 45.700 C 289.300 45.645 289.255 45.600 289.200 45.600 H 209.200 C 209.145 45.600 209.100 45.645 209.100 45.700 V 55.850 C 209.100 55.950 209.200 55.850 209.100 55.850 H 206.200 C 206.145 55.850 206.100 55.895 206.100 55.950 V 61.950 C 206.100 62.005 206.145 62.050 206.200 62.050 H 209.100 C 209.200 62.050 209.100 61.950 209.100 62.050 V 67.850 C 209.100 67.950 209.200 67.850 209.100 67.850 H 206.200 C 206.145 67.850 206.100 67.895 206.100 67.950 V 73.950 C 206.100 74.005 206.145 74.050 206.200 74.050 H 209.100 C 209.200 74.050 209.100 73.950 209.100 74.050 V 79.850 C 209.100 79.950 209.200 79.850 209.100 79.850 H 206.200 C 206.145 79.850 206.100 79.895 206.100 79.950 V 85.950 C 206.100 86.005 206.145 86.050 206.200 86.050 H 209.100 C 209.200 86.050 209.100 85.950 209.100 86.050 V 91.850 C 209.100 91.950 209.200 91.850 209.100 91.850 H 206.200 C 206.145 91.850 206.100 91.895 206.100 91.950 V 97.950 C 206.100 98.005 206.145 98.050 206.200 98.050 H 209.100 C 209.200 98.050 209.100 97.950 209.100 98.050 V 108.200 C 209.100 108.255 209.145 108.300 209.200 108.300 Z" stroke="rgb(0,0,0)" stroke-width="0.20" />
</g>
<g id="p-6" style="fill:none;stroke-linecap:round;stroke-linejoin:round;">
  <path d="M 209.200 44.100 H 289.200 C 289.255 44.100 289.300 44.055 289.300 44.000 V 38.100 C 289.300 38.000 289.200 38.100 289.300 38.100 H 292.200 C 292.255 38.100 292.300 38.055 292.300 38.000 V 32.000 C 292.300 31.945 292.255 31.900 292.200 31.900 H 289.300 C 289.200 31.900 289.300 32.000 289.300 31.900 V 26.100 C 289.300 26.000 289.200 26.100 289.300 26.100 H 292.200 C 292.255 26.100 292.300 26.055 292.300 26.000 V 20.000 C 292.300 19.945 292.255 19.900 292.200 19.900 H 289.300 C 289.200 19.900 289.300 20.000 289.300 19.900 V 14.000 C 289.300 13.945 289.255 13.900 289.200 13.900 H 209.200 C 209.145 13.900 209.100 13.945 209.100 14.000 V 19.900 C 209.100 20.000 209.200 19.900 209.100 19.900 H 206.200 C 206.145 19.900 206.100 19.945 206.100 20.000 V 26.000 C 206.100 26.055 206.145 26.100 206.200 26.100 H 209.100 C 209.200 26.100 209.100 26.000 209.100 26.100 V 31.900 C 209.100 32.000 209.200 31.900 209.100 31.900 H 206.200 C 206.145 31.900 206.100 31.945 206.100 32.000 V 38.000 C 206.100 38.055 206.145 38.100 206.200 38.100 H 209.100 C 209.200 38.100 209.100 38.000 209.100 38.100 V 44.000 C 209.100 44.055 209.145 44.100 209.200 44.100 Z" stroke="rgb(0,0,0)" stroke-width="0.20" />
</g>
</svg>