<?xml version='1.0' encoding='utf-8'?>
<svg height="287.90mm" viewBox="0.0 0.0 293.60 287.90" width="293.60mm" xmlns="http://www.w3.org/2000/svg" xmlns:cc="http://creativecommons.org/ns#" xmlns:dc="http://purl.org/dc/elements/1.1/" xmlns:inkscape="http://www.inkscape.org/namespaces/inkscape" xmlns:rdf="http://www.w3.org/1999/02/22-rdf-syntax-ns#" xmlns:svg="http://www.w3.org/2000/svg" xmlns:xlink="http://www.w3.org/1999/xlink">
<!--
WallPlaneHolder - Hold a plane to a wall

Created with Boxes.py (https://festi.info/boxes.py)
Command line (remove spaces between dashes): boxes WallPlaneHolder
-->
<title>WallPlaneHolder</title>
<metadata>
<rdf:RDF><cc:Work>
<dc:title>WallMounted - WallPlaneHolder</dc:title>
<dc:source>boxes WallPlaneHolder</dc:source>
<dc:description>Hold a plane to a wall

Created with Boxes.py (https://festi.info/boxes.py)
Command line: boxes WallPlaneHolder
Command line short: boxes WallPlaneHolder
</dc:description>
</cc:Work></rdf:RDF></metadata>
<g id="p-0" style="fill:none;stroke-linecap:round;stroke-linejoin:round;">
  <path d="M 10.100 277.900 H 110.100 V 267.900 H 10.100 V 277.900 Z" stroke="rgb(0,0,0)" stroke-width="0.20" />
  <text dominant-baseline="hanging" font-size="6px" style="font-family: sans-serif ; font-weight: normal; font-style: normal; fill: rgb(255,0,0)" text-anchor="middle" transform="matrix( 1.000 0.000 0.000 1.000 60.100 269.900 )">100.0mm, burn:0.10mm</text>
</g>
<g id="p-1" style="fill:none;stroke-linecap:round;stroke-linejoin:round;">
  <path d="M 16.000 246.850 V 249.750 C 16.000 249.850 16.100 249.750 16.000 249.750 H 13.200 C 13.100 249.750 13.200 249.850 13.200 249.750 V 243.950 C 13.200 243.850 13.100 243.950 13.200 243.950 H 16.000 C 16.100 243.950 16.000 243.850 16.000 243.950 V 246.850 Z" stroke="rgb(0,0,255)" stroke-width="0.20" />
  <path d="M 16.000 234.850 V 237.750 C 16.000 237.850 16.100 237.750 16.000 237.750 H 13.200 C 13.100 237.750 13.200 237.850 13.200 237.750 V 231.950 C 13.200 231.850 13.100 231.950 13.200 231.950 H 16.000 C 16.100 231.950 16.000 231.850 16.000 231.950 V 234.850 Z" stroke="rgb(0,0,255)" stroke-width="0.20" />
  <path d="M 16.000 222.850 V 225.750 C 16.000 225.850 16.100 225.750 16.000 225.750 H 13.200 C 13.100 225.750 13.200 225.850 13.200 225.750 V 219.950 C 13.200 219.850 13.100 219.950 13.200 219.950 H 16.000 C 16.100 219.950 16.000 219.850 16.000 219.950 V 222.850 Z" stroke="rgb(0,0,255)" stroke-width="0.20" />
  <path d="M 16.000 210.850 V 213.750 C 16.000 213.850 16.100 213.750 16.000 213.750 H 13.200 C 13.100 213.750 13.200 213.850 13.200 213.750 V 207.950 C 13.200 207.850 13.100 207.950 13.200 207.950 H 16.000 C 16.100 207.950 16.000 207.850 16.000 207.950 V 210.850 Z" stroke="rgb(0,0,255)" stroke-width="0.20" />
  <path d="M 16.000 59.350 V 62.250 C 16.000 62.350 16.100 62.250 16.000 62.250 H 13.200 C 13.100 62.250 13.200 62.350 13.200 62.250 V 56.450 C 13.200 56.350 13.100 56.450 13.200 56.450 H 16.000 C 16.100 56.450 16.000 56.350 16.000 56.450 V 59.350 Z" stroke="rgb(0,0,255)" stroke-width="0.20" />
  <path d="M 16.000 47.350 V 50.250 C 16.000 50.350 16.100 50.250 16.000 50.250 H 13.200 C 13.100 50.250 13.200 50.350 13.200 50.250 V 44.450 C 13.200 44.350 13.100 44.450 13.200 44.450 H 16.000 C 16.100 44.450 16.000 44.350 16.000 44.450 V 47.350 Z" stroke="rgb(0,0,255)" stroke-width="0.20" />
  <path d="M 16.000 35.350 V 38.250 C 16.000 38.350 16.100 38.250 16.000 38.250 H 13.200 C 13.100 38.250 13.200 38.350 13.200 38.250 V 32.450 C 13.200 32.350 13.100 32.450 13.200 32.450 H 16.000 C 16.100 32.450 16.000 32.350 16.000 32.450 V 35.350 Z" stroke="rgb(0,0,255)" stroke-width="0.20" />
  <path d="M 16.000 23.350 V 26.250 C 16.000 26.350 16.100 26.250 16.000 26.250 H 13.200 C 13.100 26.250 13.200 26.350 13.200 26.250 V 20.450 C 13.200 20.350 13.100 20.450 13.200 20.450 H 16.000 C 16.100 20.450 16.000 20.350 16.000 20.450 V 23.350 Z" stroke="rgb(0,0,255)" stroke-width="0.20" />
  <path d="M 99.000 31.100 V 34.000 C 99.000 34.100 99.100 34.000 99.000 34.000 H 96.200 C 96.100 34.000 96.200 34.100 96.200 34.000 V 28.200 C 96.200 28.100 96.100 28.200 96.200 28.200 H 99.000 C 99.100 28.200 99.000 28.100 99.000 28.200 V 31.100 Z" stroke="rgb(0,0,255)" stroke-width="0.20" />
  <path d="M 99.000 19.100 V 22.000 C 99.000 22.100 99.100 22.000 99.000 22.000 H 96.200 C 96.100 22.000 96.200 22.100 96.200 22.000 V 16.200 C 96.200 16.100 96.100 16.200 96.200 16.200 H 99.000 C 99.100 16.200 99.000 16.100 99.000 16.200 V 19.100 Z" stroke="rgb(0,0,255)" stroke-width="0.20" />
  <path d="M 29.100 263.000 H 26.200 C 26.100 263.000 26.200 263.100 26.200 263.000 V 260.200 C 26.200 260.100 26.100 260.200 26.200 260.200 H 32.000 C 32.100 260.200 32.000 260.100 32.000 260.200 V 263.000 C 32.000 263.100 32.100 263.000 32.000 263.000 H 29.100 Z" stroke="rgb(0,0,255)" stroke-width="0.20" />
  <path d="M 41.100 263.000 H 38.200 C 38.100 263.000 38.200 263.100 38.200 263.000 V 260.200 C 38.200 260.100 38.100 260.200 38.200 260.200 H 44.000 C 44.100 260.200 44.000 260.100 44.000 260.200 V 263.000 C 44.000 263.100 44.100 263.000 44.000 263.000 H 41.100 Z" stroke="rgb(0,0,255)" stroke-width="0.20" />
  <path d="M 53.100 263.000 H 50.200 C 50.100 263.000 50.200 263.100 50.200 263.000 V 260.200 C 50.200 260.100 50.100 260.200 50.200 260.200 H 56.000 C 56.100 260.200 56.000 260.100 56.000 260.200 V 263.000 C 56.000 263.100 56.100 263.000 56.000 263.000 H 53.100 Z" stroke="rgb(0,0,255)" stroke-width="0.20" />
  <path d="M 65.100 263.000 H 62.200 C 62.100 263.000 62.200 263.100 62.200 263.000 V 260.200 C 62.200 260.100 62.100 260.200 62.200 260.200 H 68.000 C 68.100 260.200 68.000 260.100 68.000 260.200 V 263.000 C 68.000 263.100 68.100 263.000 68.000 263.000 H 65.100 Z" stroke="rgb(0,0,255)" stroke-width="0.20" />
  <path d="M 77.100 263.000 H 74.200 C 74.100 263.000 74.200 263.100 74.200 263.000 V 260.200 C 74.200 260.100 74.100 260.200 74.200 260.200 H 80.000 C 80.100 260.200 80.000 260.100 80.000 260.200 V 263.000 C 80.000 263.100 80.100 263.000 80.000 263.000 H 77.100 Z" stroke="rgb(0,0,255)" stroke-width="0.20" />
  <path d="M 89.100 263.000 H 86.200 C 86.100 263.000 86.200 263.100 86.200 263.000 V 260.200 C 86.200 260.100 86.100 260.200 86.200 260.200 H 92.000 C 92.100 260.200 92.000 260.100 92.000 260.200 V 263.000 C 92.000 263.100 92.100 263.000 92.000 263.000 H 89.100 Z" stroke="rgb(0,0,255)" stroke-width="0.20" />
  <path d="M 10.100 266.200 H 102.100 C 102.155 266.200 102.200 266.155 102.200 266.100 V 10.100 C 102.200 10.045 102.155 10.000 102.100 10.000 H 10.100 C 10.045 10.000 10.000 10.045 10.000 10.100 V 266.100 C 10.000 266.155 10.045 266.200 10.100 266.200 Z" stroke="rgb(0,0,0)" stroke-width="0.20" />
</g>
<g id="p-2" style="fill:none;stroke-linecap:round;stroke-linejoin:round;">
  <path d="M 109.700 246.850 V 249.750 C 109.700 249.850 109.800 249.750 109.700 249.750 H 106.900 C 106.800 249.750 106.900 249.850 106.900 249.750 V 243.950 C 106.900 243.850 106.800 243.950 106.900 243.950 H 109.700 C 109.800 243.950 109.700 243.850 109.700 243.950 V 246.850 Z" stroke="rgb(0,0,255)" stroke-width="0.20" />
  <path d="M 109.700 234.850 V 237.750 C 109.700 237.850 109.800 237.750 109.700 237.750 H 106.900 C 106.800 237.750 106.900 237.850 106.900 237.750 V 231.950 C 106.900 231.850 106.800 231.950 106.900 231.950 H 109.700 C 109.800 231.950 109.700 231.850 109.700 231.950 V 234.850 Z" stroke="rgb(0,0,255)" stroke-width="0.20" />
  <path d="M 109.700 222.850 V 225.750 C 109.700 225.850 109.800 225.750 109.700 225.750 H 106.900 C 106.800 225.750 106.900 225.850 106.900 225.750 V 219.950 C 106.900 219.850 106.800 219.950 106.900 219.950 H 109.700 C 109.800 219.950 109.700 219.850 109.700 219.950 V 222.850 Z" stroke="rgb(0,0,255)" stroke-width="0.20" />
  <path d="M 109.700 210.850 V 213.750 C 109.700 213.850 109.800 213.750 109.700 213.750 H 106.900 C 106.800 213.750 106.900 213.850 106.900 213.750 V 207.950 C 106.900 207.850 106.800 207.950 106.900 207.950 H 109.700 C 109.800 207.950 109.700 207.850 109.700 207.950 V 210.850 Z" stroke="rgb(0,0,255)" stroke-width="0.20" />
  <path d="M 109.700 59.350 V 62.250 C 109.700 62.350 109.800 62.250 109.700 62.250 H 106.900 C 106.800 62.250 106.900 62.350 106.900 62.250 V 56.450 C 106.900 56.350 106.800 56.450 106.900 56.450 H 109.700 C 109.800 56.450 109.700 56.350 109.700 56.450 V 59.350 Z" stroke="rgb(0,0,255)" stroke-width="0.20" />
  <path d="M 109.700 47.350 V 50.250 C 109.700 50.350 109.800 50.250 109.700 50.250 H 106.900 C 106.800 50.250 106.900 50.350 106.900 50.250 V 44.450 C 106.900 44.350 106.800 44.450 106.900 44.450 H 109.700 C 109.800 44.450 109.700 44.350 109.700 44.450 V 47.350 Z" stroke="rgb(0,0,255)" stroke-width="0.20" />
  <path d="M 109.700 35.350 V 38.250 C 109.700 38.350 109.800 38.250 109.700 38.250 H 106.900 C 106.800 38.250 106.900 38.350 106.900 38.250 V 32.450 C 106.900 32.350 106.800 32.450 106.900 32.450 H 109.700 C 109.800 32.450 109.700 32.350 109.700 32.450 V 35.350 Z" stroke="rgb(0,0,255)" stroke-width="0.20" />
  <path d="M 109.700 23.350 V 26.250 C 109.700 26.350 109.800 26.250 109.700 26.250 H 106.900 C 106.800 26.250 106.900 26.350 106.900 26.250 V 20.450 C 106.900 20.350 106.800 20.450 106.900 20.450 H 109.700 C 109.800 20.450 109.700 20.350 109.700 20.450 V 23.350 Z" stroke="rgb(0,0,255)" stroke-width="0.20" />
  <path d="M 192.700 31.100 V 34.000 C 192.700 34.100 192.800 34.000 192.700 34.000 H 189.900 C 189.800 34.000 189.900 34.100 189.900 34.000 V 28.200 C 189.900 28.100 189.800 28.200 189.900 28.200 H 192.700 C 192.800 28.200 192.700 28.100 192.700 28.200 V 31.100 Z" stroke="rgb(0,0,255)" stroke-width="0.20" />
  <path d="M 192.700 19.100 V 22.000 C 192.700 22.100 192.800 22.000 192.700 22.000 H 189.900 C 189.800 22.000 189.900 22.100 189.900 22.000 V 16.200 C 189.900 16.100 189.800 16.200 189.900 16.200 H 192.700 C 192.800 16.200 192.700 16.100 192.700 16.200 V 19.100 Z" stroke="rgb(0,0,255)" stroke-width="0.20" />
  <path d="M 122.800 263.000 H 119.900 C 119.800 263.000 119.900 263.100 119.900 263.000 V 260.200 C 119.900 260.100 119.800 260.200 119.900 260.200 H 125.700 C 125.800 260.200 125.700 260.100 125.700 260.200 V 263.000 C 125.700 263.100 125.800 263.000 125.700 263.000 H 122.800 Z" stroke="rgb(0,0,255)" stroke-width="0.20" />
  <path d="M 134.800 263.000 H 131.900 C 131.800 263.000 131.900 263.100 131.900 263.000 V 260.200 C 131.900 260.100 131.800 260.200 131.900 260.200 H 137.700 C 137.800 260.200 137.700 260.100 137.700 260.200 V 263.000 C 137.700 263.100 137.800 263.000 137.700 263.000 H 134.800 Z" stroke="rgb(0,0,255)" stroke-width="0.20" />
  <path d="M 146.800 263.000 H 143.900 C 143.800 263.000 143.900 263.100 143.900 263.000 V 260.200 C 143.900 260.100 143.800 260.200 143.900 260.200 H 149.700 C 149.800 260.200 149.700 260.100 149.700 260.200 V 263.000 C 149.700 263.100 149.800 263.000 149.700 263.000 H 146.800 Z" stroke="rgb(0,0,255)" stroke-width="0.20" />
  <path d="M 158.800 263.000 H 155.900 C 155.800 263.000 155.900 263.100 155.900 263.000 V 260.200 C 155.900 260.100 155.800 260.200 155.900 260.200 H 161.700 C 161.800 260.200 161.700 260.100 161.700 260.200 V 263.000 C 161.700 263.100 161.800 263.000 161.700 263.000 H 158.800 Z" stroke="rgb(0,0,255)" stroke-width="0.20" />
  <path d="M 170.800 263.000 H 167.900 C 167.800 263.000 167.900 263.100 167.900 263.000 V 260.200 C 167.900 260.100 167.800 260.200 167.900 260.200 H 173.700 C 173.800 260.200 173.700 260.100 173.700 260.200 V 263.000 C 173.700 263.100 173.800 263.000 173.700 263.000 H 170.800 Z" stroke="rgb(0,0,255)" stroke-width="0.20" />
  <path d="M 182.800 263.000 H 179.900 C 179.800 263.000 179.900 263.100 179.900 263.000 V 260.200 C 179.900 260.100 179.800 260.200 179.900 260.200 H 185.700 C 185.800 260.200 185.700 260.100 185.700 260.200 V 263.000 C 185.700 263.100 185.800 263.000 185.700 263.000 H 182.800 Z" stroke="rgb(0,0,255)" stroke-width="0.20" />
  <path d="M 103.800 266.200 H 195.800 C 195.855 266.200 195.900 266.155 195.900 266.100 V 10.100 C 195.900 10.045 195.855 10.000 195.800 10.000 H 103.800 C 103.745 10.000 103.700 10.045 103.700 10.100 V 266.100 C 103.700 266.155 103.745 266.200 103.800 266.200 Z" stroke="rgb(0,0,0)" stroke-width="0.20" />
</g>
<g id="p-3" style="fill:none;stroke-linecap:round;stroke-linejoin:round;">
  <path d="M 200.500 266.200 H 280.500 C 280.555 266.200 280.600 266.155 280.600 266.100 V 256.200 C 280.600 256.100 280.500 256.200 280.600 256.200 H 283.500 C 283.555 256.200 283.600 256.155 283.600 256.100 V 250.100 C 283.600 250.045 283.555 250.000 283.500 250.000 H 280.600 C 280.500 250.000 280.600 250.100 280.600 250.000 V 244.200 C 280.600 244.100 280.500 244.200 280.600 244.200 H 283.500 C 283.555 244.200 283.600 244.155 283.600 244.100 V 238.100 C 283.600 238.045 283.555 238.000 283.500 238.000 H 280.600 C 280.500 238.000 280.600 238.100 280.600 238.000 V 232.200 C 280.600 232.100 280.500 232.200 280.600 232.200 H 283.500 C 283.555 232.200 283.600 232.155 283.600 232.100 V 226.100 C 283.600 226.045 283.555 226.000 283.500 226.000 H 280.600 C 280.500 226.000 280.600 226.100 280.600 226.000 V 220.200 C 280.600 220.100 280.500 220.200 280.600 220.200 H 283.500 C 283.555 220.200 283.600 220.155 283.600 220.100 V 214.100 C 283.600 214.045 283.555 214.000 283.500 214.000 H 280.600 C 280.500 214.000 280.600 214.100 280.600 214.000 V 208.200 C 280.600 208.100 280.500 208.200 280.600 208.200 H 283.500 C 283.555 208.200 283.600 208.155 283.600 208.100 V 202.100 C 283.600 202.045 283.555 202.000 283.500 202.000 H 280.600 C 280.500 202.000 280.600 202.100 280.600 202.000 V 196.200 C 280.600 196.100 280.500 196.200 280.600 196.200 H 283.500 C 283.555 196.200 283.600 196.155 283.600 196.100 V 190.100 C 283.600 190.045 283.555 190.000 283.500 190.000 H 280.600 C 280.500 190.000 280.600 190.100 280.600 190.000 V 180.100 V 177.100 C 280.600 177.045 280.555 177.000 280.500 177.000 H 273.500 C 273.445 177.000 273.400 177.045 273.400 177.100 V 180.000 C 273.400 180.100 273.500 180.000 273.400 180.000 H 267.600 C 267.500 180.000 267.600 180.100 267.600 180.000 V 177.100 C 267.600 177.045 267.555 177.000 267.500 177.000 H 261.500 C 261.445 177.000 261.400 177.045 261.400 177.100 V 180.000 C 261.400 180.100 261.500 180.000 261.400 180.000 H 255.600 C 255.500 180.000 255.600 180.100 255.600 180.000 V 177.100 C 255.600 177.045 255.555 177.000 255.500 177.000 H 249.500 C 249.445 177.000 249.400 177.045 249.400 177.100 V 180.000 C 249.400 180.100 249.500 180.000 249.400 180.000 H 243.600 C 243.500 180.000 243.600 180.100 243.600 180.000 V 177.100 C 243.600 177.045 243.555 177.000 243.500 177.000 H 237.500 C 237.445 177.000 237.400 177.045 237.400 177.100 V 180.000 C 237.400 180.100 237.500 180.000 237.400 180.000 H 231.600 C 231.500 180.000 231.600 180.100 231.600 180.000 V 177.100 C 231.600 177.045 231.555 177.000 231.500 177.000 H 225.500 C 225.445 177.000 225.400 177.045 225.400 177.100 V 180.000 C 225.400 180.100 225.500 180.000 225.400 180.000 H 219.600 C 219.500 180.000 219.600 180.100 219.600 180.000 V 177.100 C 219.600 177.045 219.555 177.000 219.500 177.000 H 213.500 C 213.445 177.000 213.400 177.045 213.400 177.100 V 180.000 C 213.400 180.100 213.500 180.000 213.400 180.000 H 207.600 C 207.500 180.000 207.600 180.100 207.600 180.000 V 177.100 C 207.600 177.045 207.555 177.000 207.500 177.000 H 200.500 C 200.445 177.000 200.400 177.045 200.400 177.100 V 180.100 V 190.000 C 200.400 190.100 200.500 190.000 200.400 190.000 H 197.500 C 197.445 190.000 197.400 190.045 197.400 190.100 V 196.100 C 197.400 196.155 197.445 196.200 197.500 196.200 H 200.400 C 200.500 196.200 200.400 196.100 200.400 196.200 V 202.000 C 200.400 202.100 200.500 202.000 200.400 202.000 H 197.500 C 197.445 202.000 197.400 202.045 197.400 202.100 V 208.100 C 197.400 208.155 197.445 208.200 197.500 208.200 H 200.400 C 200.500 208.200 200.400 208.100 200.400 208.200 V 214.000 C 200.400 214.100 200.500 214.000 200.400 214.000 H 197.500 C 197.445 214.000 197.400 214.045 197.400 214.100 V 220.100 C 197.400 220.155 197.445 220.200 197.500 220.200 H 200.400 C 200.500 220.200 200.400 220.100 200.400 220.200 V 226.000 C 200.400 226.100 200.500 226.000 200.400 226.000 H 197.500 C 197.445 226.000 197.400 226.045 197.400 226.100 V 232.100 C 197.400 232.155 197.445 232.200 197.500 232.200 H 200.400 C 200.500 232.200 200.400 232.100 200.400 232.200 V 238.000 C 200.400 238.100 200.500 238.000 200.400 238.000 H 197.500 C 197.445 238.000 197.400 238.045 197.400 238.100 V 244.100 C 197.400 244.155 197.445 244.200 197.500 244.200 H 200.400 C 200.500 244.200 200.400 244.100 200.400 244.200 V 250.000 C 200.400 250.100 200.500 250.000 200.400 250.000 H 197.500 C 197.445 250.000 197.400 250.045 197.400 250.100 V 256.100 C 197.400 256.155 197.445 256.200 197.500 256.200 H 200.400 C 200.500 256.200 200.400 256.100 200.400 256.200 V 266.100 C 200.400 266.155 200.445 266.200 200.500 266.200 Z" stroke="rgb(0,0,0)" stroke-width="0.20" />
</g>
<g id="p-4" style="fill:none;stroke-linecap:round;stroke-linejoin:round;">
  <path d="M 200.500 172.500 H 207.400 C 207.500 172.500 207.400 172.400 207.400 172.500 V 175.400 C 207.400 175.455 207.445 175.500 207.500 175.500 H 213.500 C 213.555 175.500 213.600 175.455 213.600 175.400 V 172.500 C 213.600 172.400 213.500 172.500 213.600 172.500 H 219.400 C 219.500 172.500 219.400 172.400 219.400 172.500 V 175.400 C 219.400 175.455 219.445 175.500 219.500 175.500 H 225.500 C 225.555 175.500 225.600 175.455 225.600 175.400 V 172.500 C 225.600 172.400 225.500 172.500 225.600 172.500 H 231.400 C 231.500 172.500 231.400 172.400 231.400 172.500 V 175.400 C 231.400 175.455 231.445 175.500 231.500 175.500 H 237.500 C 237.555 175.500 237.600 175.455 237.600 175.400 V 172.500 C 237.600 172.400 237.500 172.500 237.600 172.500 H 243.400 C 243.500 172.500 243.400 172.400 243.400 172.500 V 175.400 C 243.400 175.455 243.445 175.500 243.500 175.500 H 249.500 C 249.555 175.500 249.600 175.455 249.600 175.400 V 172.500 C 249.600 172.400 249.500 172.500 249.600 172.500 H 255.400 C 255.500 172.500 255.400 172.400 255.400 172.500 V 175.400 C 255.400 175.455 255.445 175.500 255.500 175.500 H 261.500 C 261.555 175.500 261.600 175.455 261.600 175.400 V 172.500 C 261.600 172.400 261.500 172.500 261.600 172.500 H 267.400 C 267.500 172.500 267.400 172.400 267.400 172.500 V 175.400 C 267.400 175.455 267.445 175.500 267.500 175.500 H 273.500 C 273.555 175.500 273.600 175.455 273.600 175.400 V 172.500 C 273.600 172.400 273.500 172.500 273.600 172.500 H 280.500 C 280.555 172.500 280.600 172.455 280.600 172.400 V 162.250 C 280.600 162.150 280.500 162.250 280.600 162.250 H 283.500 C 283.555 162.250 283.600 162.205 283.600 162.150 V 156.150 C 283.600 156.095 283.555 156.050 283.500 156.050 H 280.600 C 280.500 156.050 280.600 156.150 280.600 156.050 V 150.250 C 280.600 150.150 280.500 150.250 280.600 150.250 H 283.500 C 283.555 150.250 283.600 150.205 283.600 150.150 V 144.150 C 283.600 144.095 283.555 144.050 283.500 144.050 H 280.600 C 280.500 144.050 280.600 144.150 280.600 144.050 V 138.250 C 280.600 138.150 280.500 138.250 280.600 138.250 H 283.500 C 283.555 138.250 283.600 138.205 283.600 138.150 V 132.150 C 283.600 132.095 283.555 132.050 283.500 132.050 H 280.600 C 280.500 132.050 280.600 132.150 280.600 132.050 V 126.250 C 280.600 126.150 280.500 126.250 280.600 126.250 H 283.500 C 283.555 126.250 283.600 126.205 283.600 126.150 V 120.150 C 283.600 120.095 283.555 120.050 283.500 120.050 H 280.600 C 280.500 120.050 280.600 120.150 280.600 120.050 V 109.900 C 280.600 109.845 280.555 109.800 280.500 109.800 H 200.500 C 200.445 109.800 200.400 109.845 200.400 109.900 V 120.050 C 200.400 120.150 200.500 120.050 200.400 120.050 H 197.500 C 197.445 120.050 197.400 120.095 197.400 120.150 V 126.150 C 197.400 126.205 197.445 126.250 197.500 126.250 H 200.400 C 200.500 126.250 200.400 126.150 200.400 126.250 V 132.050 C 200.400 132.150 200.500 132.050 200.400 132.050 H 197.500 C 197.445 132.050 197.400 132.095 197.400 132.150 V 138.150 C 197.400 138.205 197.445 138.250 197.500 138.250 H 200.400 C 200.500 138.250 200.400 138.150 200.400 138.250 V 144.050 C 200.400 144.150 200.500 144.050 200.400 144.050 H 197.500 C 197.445 144.050 197.400 144.095 197.400 144.150 V 150.150 C 197.400 150.205 197.445 150.250 197.500 150.250 H 200.400 C 200.500 150.250 200.400 150.150 200.400 150.250 V 156.050 C 200.400 156.150 200.500 156.050 200.400 156.050 H 197.500 C 197.445 156.050 197.400 156.095 197.400 156.150 V 162.150 C 197.400 162.205 197.445 162.250 197.500 162.250 H 200.400 C 200.500 162.250 200.400 162.150 200.400 162.250 V 172.400 C 200.400 172.455 200.445 172.500 200.500 172.500 Z" stroke="rgb(0,0,0)" stroke-width="0.20" />
</g>
<g id="p-5" style="fill:none;stroke-linecap:round;stroke-linejoin:round;">
  <path d="M 200.500 108.300 H 280.500 C 280.555 108.300 280.600 108.255 280.600 108.200 V 98.050 C 280.600 97.950 280.500 98.050 280.600 98.050 H 283.500 C 283.555 98.050 283.600 98.005 283.600 97.950 V 91.950 C 283.600 91.895 283.555 91.850 283.500 91.850 H 280.600 C 280.500 91.850 280.600 91.950 280.600 91.850 V 86.050 C 280.600 85.950 280.500 86.050 280.600 86.050 H 283.500 C 283.555 86.050 283.600 86.005 283.600 85.950 V 79.950 C 283.600 79.895 283.555 79.850 283.500 79.850 H 280.600 C 280.500 79.850 280.600 79.950 280.600 79.850 V 74.050 C 280.600 73.950 280.500 74.050 280.600 74.050 H 283.500 C 283.555 74.050 283.600 74.005 283.600 73.950 V 67.950 C 283.600 67.895 283.555 67.850 283.500 67.850 H 280.600 C 280.500 67.850 280.600 67.950 280.600 67.850 V 62.050 C 280.600 61.950 280.500 62.050 280.600 62.050 H 283.500 C 283.555 62.050 283.600 62.005 283.600 61.950 V 55.950 C 283.600 55.895 283.555 55.850 283.500 55.850 H 280.600 C 280.500 55.850 280.600 55.950 280.600 55.850 V 45.700 C 280.600 45.645 280.555 45.600 280.500 45.600 H 200.500 C 200.445 45.600 200.400 45.645 200.400 45.700 V 55.850 C 200.400 55.950 200.500 55.850 200.400 55.850 H 197.500 C 197.445 55.850 197.400 55.895 197.400 55.950 V 61.950 C 197.400 62.005 197.445 62.050 197.500 62.050 H 200.400 C 200.500 62.050 200.400 61.950 200.400 62.050 V 67.850 C 200.400 67.950 200.500 67.850 200.400 67.850 H 197.500 C 197.445 67.850 197.400 67.895 197.400 67.950 V 73.950 C 197.400 74.005 197.445 74.050 197.500 74.050 H 200.400 C 200.500 74.050 200.400 73.950 200.400 74.050 V 79.850 C 200.400 79.950 200.500 79.850 200.400 79.850 H 197.500 C 197.445 79.850 197.400 79.895 197.400 79.950 V 85.950 C 197.400 86.005 197.445 86.050 197.500 86.050 H 200.400 C 200.500 86.050 200.400 85.950 200.400 86.050 V 91.850 C 200.400 91.950 200.500 91.850 200.400 91.850 H 197.500 C 197.445 91.850 197.400 91.895 197.400 91.950 V 97.950 C 197.400 98.005 197.445 98.050 197.500 98.050 H 200.400 C 200.500 98.050 200.400 97.950 200.400 98.050 V 108.200 C 200.400 108.255 200.445 108.300 200.500 108.300 Z" stroke="rgb(0,0,0)" stroke-width="0.20" />
</g>
<g id="p-6" style="fill:none;stroke-linecap:round;stroke-linejoin:round;">
  <path d="M 200.500 44.100 H 280.500 C 280.555 44.100 280.600 44.055 280.600 44.000 V 38.100 C 280.600 38.000 280.500 38.100 280.600 38.100 H 283.500 C 283.555 38.100 283.600 38.055 283.600 38.000 V 32.000 C 283.600 31.945 283.555 31.900 283.500 31.900 H 280.600 C 280.500 31.900 280.600 32.000 280.600 31.900 V 26.100 C 280.600 26.000 280.500 26.100 280.600 26.100 H 283.500 C 283.555 26.100 283.600 26.055 283.600 26.000 V 20.000 C 283.600 19.945 283.555 19.900 283.500 19.900 H 280.600 C 280.500 19.900 280.600 20.000 280.600 19.900 V 14.000 C 280.600 13.945 280.555 13.900 280.500 13.900 H 200.500 C 200.445 13.900 200.400 13.945 200.400 14.000 V 19.900 C 200.400 20.000 200.500 19.900 200.400 19.900 H 197.500 C 197.445 19.900 197.400 19.945 197.400 20.000 V 26.000 C 197.400 26.055 197.445 26.100 197.500 26.100 H 200.400 C 200.500 26.100 200.400 26.000 200.400 26.100 V 31.900 C 200.400 32.000 200.500 31.900 200.400 31.900 H 197.500 C 197.445 31.900 197.400 31.945 197.400 32.000 V 38.000 C 197.400 38.055 197.445 38.100 197.500 38.100 H 200.400 C 200.500 38.100 200.400 38.000 200.400 38.100 V 44.000 C 200.400 44.055 200.445 44.100 200.500 44.100 Z" stroke="rgb(0,0,0)" stroke-width="0.20" />
</g>
</svg>