<?xml version='1.0' encoding='utf-8'?>
<svg height="401.20mm" viewBox="0.0 0.0 444.60 401.20" width="444.60mm" xmlns="http://www.w3.org/2000/svg" xmlns:cc="http://creativecommons.org/ns#" xmlns:dc="http://purl.org/dc/elements/1.1/" xmlns:inkscape="http://www.inkscape.org/namespaces/inkscape" xmlns:rdf="http://www.w3.org/1999/02/22-rdf-syntax-ns#" xmlns:svg="http://www.w3.org/2000/svg" xmlns:xlink="http://www.w3.org/1999/xlink">
<!--
WallRack - Wall mountable rack for spices or other items

Created with Boxes.py (https://boxes.hackerspace-bamberg.de/)
Command line (remove spaces between dashes): boxes WallRack
-->
<title>WallRack</title>
<metadata>
<rdf:RDF><cc:Work>
<dc:title>WallMounted - WallRack</dc:title>
<dc:source>boxes WallRack</dc:source>
<dc:description>Wall mountable rack for spices or other items

Created with Boxes.py (https://boxes.hackerspace-bamberg.de/)
Command line: boxes WallRack
Command line short: boxes WallRack
</dc:description>
</cc:Work></rdf:RDF></metadata>
<g id="p-0" style="fill:none;stroke-linecap:round;stroke-linejoin:round;">
  <path d="M 10.100 391.200 H 110.100 V 381.200 H 10.100 V 391.200 Z" stroke="rgb(0,0,0)" stroke-width="0.20" />
  <text dominant-baseline="hanging" font-size="6px" style="font-family: sans-serif ; font-weight: normal; font-style: normal; fill: rgb(255,0,0)" text-anchor="middle" transform="matrix( 1.000 0.000 0.000 1.000 60.100 383.200 )">100.0mm, burn:0.10mm</text>
</g>
<g id="p-1" style="fill:none;stroke-linecap:round;stroke-linejoin:round;">
  <path d="M 24.600 376.300 H 21.700 C 21.600 376.300 21.700 376.400 21.700 376.300 V 373.500 C 21.700 373.400 21.600 373.500 21.700 373.500 H 27.500 C 27.600 373.500 27.500 373.400 27.500 373.500 V 376.300 C 27.500 376.400 27.600 376.300 27.500 376.300 H 24.600 Z" stroke="rgb(0,0,255)" stroke-width="0.20" />
  <path d="M 36.600 376.300 H 33.700 C 33.600 376.300 33.700 376.400 33.700 376.300 V 373.500 C 33.700 373.400 33.600 373.500 33.700 373.500 H 39.500 C 39.600 373.500 39.500 373.400 39.500 373.500 V 376.300 C 39.500 376.400 39.600 376.300 39.500 376.300 H 36.600 Z" stroke="rgb(0,0,255)" stroke-width="0.20" />
  <path d="M 48.600 376.300 H 45.700 C 45.600 376.300 45.700 376.400 45.700 376.300 V 373.500 C 45.700 373.400 45.600 373.500 45.700 373.500 H 51.500 C 51.600 373.500 51.500 373.400 51.500 373.500 V 376.300 C 51.500 376.400 51.600 376.300 51.500 376.300 H 48.600 Z" stroke="rgb(0,0,255)" stroke-width="0.20" />
  <path d="M 60.600 376.300 H 57.700 C 57.600 376.300 57.700 376.400 57.700 376.300 V 373.500 C 57.700 373.400 57.600 373.500 57.700 373.500 H 63.500 C 63.600 373.500 63.500 373.400 63.500 373.500 V 376.300 C 63.500 376.400 63.600 376.300 63.500 376.300 H 60.600 Z" stroke="rgb(0,0,255)" stroke-width="0.20" />
  <path d="M 72.600 376.300 H 69.700 C 69.600 376.300 69.700 376.400 69.700 376.300 V 373.500 C 69.700 373.400 69.600 373.500 69.700 373.500 H 75.500 C 75.600 373.500 75.500 373.400 75.500 373.500 V 376.300 C 75.500 376.400 75.600 376.300 75.500 376.300 H 72.600 Z" stroke="rgb(0,0,255)" stroke-width="0.20" />
  <path d="M 84.600 376.300 H 81.700 C 81.600 376.300 81.700 376.400 81.700 376.300 V 373.500 C 81.700 373.400 81.600 373.500 81.700 373.500 H 87.500 C 87.600 373.500 87.500 373.400 87.500 373.500 V 376.300 C 87.500 376.400 87.600 376.300 87.500 376.300 H 84.600 Z" stroke="rgb(0,0,255)" stroke-width="0.20" />
  <path d="M 96.600 376.300 H 93.700 C 93.600 376.300 93.700 376.400 93.700 376.300 V 373.500 C 93.700 373.400 93.600 373.500 93.700 373.500 H 99.500 C 99.600 373.500 99.500 373.400 99.500 373.500 V 376.300 C 99.500 376.400 99.600 376.300 99.500 376.300 H 96.600 Z" stroke="rgb(0,0,255)" stroke-width="0.20" />
  <path d="M 108.600 376.300 H 105.700 C 105.600 376.300 105.700 376.400 105.700 376.300 V 373.500 C 105.700 373.400 105.600 373.500 105.700 373.500 H 111.500 C 111.600 373.500 111.500 373.400 111.500 373.500 V 376.300 C 111.500 376.400 111.600 376.300 111.500 376.300 H 108.600 Z" stroke="rgb(0,0,255)" stroke-width="0.20" />
  <path d="M 120.600 376.300 H 117.700 C 117.600 376.300 117.700 376.400 117.700 376.300 V 373.500 C 117.700 373.400 117.600 373.500 117.700 373.500 H 123.500 C 123.600 373.500 123.500 373.400 123.500 373.500 V 376.300 C 123.500 376.400 123.600 376.300 123.500 376.300 H 120.600 Z" stroke="rgb(0,0,255)" stroke-width="0.20" />
  <path d="M 132.600 376.300 H 129.700 C 129.600 376.300 129.700 376.400 129.700 376.300 V 373.500 C 129.700 373.400 129.600 373.500 129.700 373.500 H 135.500 C 135.600 373.500 135.500 373.400 135.500 373.500 V 376.300 C 135.500 376.400 135.600 376.300 135.500 376.300 H 132.600 Z" stroke="rgb(0,0,255)" stroke-width="0.20" />
  <path d="M 144.600 376.300 H 141.700 C 141.600 376.300 141.700 376.400 141.700 376.300 V 373.500 C 141.700 373.400 141.600 373.500 141.700 373.500 H 147.500 C 147.600 373.500 147.500 373.400 147.500 373.500 V 376.300 C 147.500 376.400 147.600 376.300 147.500 376.300 H 144.600 Z" stroke="rgb(0,0,255)" stroke-width="0.20" />
  <path d="M 156.600 376.300 H 153.700 C 153.600 376.300 153.700 376.400 153.700 376.300 V 373.500 C 153.700 373.400 153.600 373.500 153.700 373.500 H 159.500 C 159.600 373.500 159.500 373.400 159.500 373.500 V 376.300 C 159.500 376.400 159.600 376.300 159.500 376.300 H 156.600 Z" stroke="rgb(0,0,255)" stroke-width="0.20" />
  <path d="M 168.600 376.300 H 165.700 C 165.600 376.300 165.700 376.400 165.700 376.300 V 373.500 C 165.700 373.400 165.600 373.500 165.700 373.500 H 171.500 C 171.600 373.500 171.500 373.400 171.500 373.500 V 376.300 C 171.500 376.400 171.600 376.300 171.500 376.300 H 168.600 Z" stroke="rgb(0,0,255)" stroke-width="0.20" />
  <path d="M 180.600 376.300 H 177.700 C 177.600 376.300 177.700 376.400 177.700 376.300 V 373.500 C 177.700 373.400 177.600 373.500 177.700 373.500 H 183.500 C 183.600 373.500 183.500 373.400 183.500 373.500 V 376.300 C 183.500 376.400 183.600 376.300 183.500 376.300 H 180.600 Z" stroke="rgb(0,0,255)" stroke-width="0.20" />
  <path d="M 192.600 376.300 H 189.700 C 189.600 376.300 189.700 376.400 189.700 376.300 V 373.500 C 189.700 373.400 189.600 373.500 189.700 373.500 H 195.500 C 195.600 373.500 195.500 373.400 195.500 373.500 V 376.300 C 195.500 376.400 195.600 376.300 195.500 376.300 H 192.600 Z" stroke="rgb(0,0,255)" stroke-width="0.20" />
  <path d="M 204.600 376.300 H 201.700 C 201.600 376.300 201.700 376.400 201.700 376.300 V 373.500 C 201.700 373.400 201.600 373.500 201.700 373.500 H 207.500 C 207.600 373.500 207.500 373.400 207.500 373.500 V 376.300 C 207.500 376.400 207.600 376.300 207.500 376.300 H 204.600 Z" stroke="rgb(0,0,255)" stroke-width="0.20" />
  <path d="M 14.500 364.400 V 367.300 C 14.500 367.400 14.600 367.300 14.500 367.300 H 11.700 C 11.600 367.300 11.700 367.400 11.700 367.300 V 361.500 C 11.700 361.400 11.600 361.500 11.700 361.500 H 14.500 C 14.600 361.500 14.500 361.400 14.500 361.500 V 364.400 Z" stroke="rgb(0,0,255)" stroke-width="0.20" />
  <path d="M 14.500 352.400 V 355.300 C 14.500 355.400 14.600 355.300 14.500 355.300 H 11.700 C 11.600 355.300 11.700 355.400 11.700 355.300 V 349.500 C 11.700 349.400 11.600 349.500 11.700 349.500 H 14.500 C 14.600 349.500 14.500 349.400 14.500 349.500 V 352.400 Z" stroke="rgb(0,0,255)" stroke-width="0.20" />
  <path d="M 217.500 364.400 V 367.300 C 217.500 367.400 217.600 367.300 217.500 367.300 H 214.700 C 214.600 367.300 214.700 367.400 214.700 367.300 V 361.500 C 214.700 361.400 214.600 361.500 214.700 361.500 H 217.500 C 217.600 361.500 217.500 361.400 217.500 361.500 V 364.400 Z" stroke="rgb(0,0,255)" stroke-width="0.20" />
  <path d="M 217.500 352.400 V 355.300 C 217.500 355.400 217.600 355.300 217.500 355.300 H 214.700 C 214.600 355.300 214.700 355.400 214.700 355.300 V 349.500 C 214.700 349.400 214.600 349.500 214.700 349.500 H 217.500 C 217.600 349.500 217.500 349.400 217.500 349.500 V 352.400 Z" stroke="rgb(0,0,255)" stroke-width="0.20" />
  <path d="M 24.600 276.300 H 21.700 C 21.600 276.300 21.700 276.400 21.700 276.300 V 273.500 C 21.700 273.400 21.600 273.500 21.700 273.500 H 27.500 C 27.600 273.500 27.500 273.400 27.500 273.500 V 276.300 C 27.500 276.400 27.600 276.300 27.500 276.300 H 24.600 Z" stroke="rgb(0,0,255)" stroke-width="0.20" />
  <path d="M 36.600 276.300 H 33.700 C 33.600 276.300 33.700 276.400 33.700 276.300 V 273.500 C 33.700 273.400 33.600 273.500 33.700 273.500 H 39.500 C 39.600 273.500 39.500 273.400 39.500 273.500 V 276.300 C 39.500 276.400 39.600 276.300 39.500 276.300 H 36.600 Z" stroke="rgb(0,0,255)" stroke-width="0.20" />
  <path d="M 48.600 276.300 H 45.700 C 45.600 276.300 45.700 276.400 45.700 276.300 V 273.500 C 45.700 273.400 45.600 273.500 45.700 273.500 H 51.500 C 51.600 273.500 51.500 273.400 51.500 273.500 V 276.300 C 51.500 276.400 51.600 276.300 51.500 276.300 H 48.600 Z" stroke="rgb(0,0,255)" stroke-width="0.20" />
  <path d="M 60.600 276.300 H 57.700 C 57.600 276.300 57.700 276.400 57.700 276.300 V 273.500 C 57.700 273.400 57.600 273.500 57.700 273.500 H 63.500 C 63.600 273.500 63.500 273.400 63.500 273.500 V 276.300 C 63.500 276.400 63.600 276.300 63.500 276.300 H 60.600 Z" stroke="rgb(0,0,255)" stroke-width="0.20" />
  <path d="M 72.600 276.300 H 69.700 C 69.600 276.300 69.700 276.400 69.700 276.300 V 273.500 C 69.700 273.400 69.600 273.500 69.700 273.500 H 75.500 C 75.600 273.500 75.500 273.400 75.500 273.500 V 276.300 C 75.500 276.400 75.600 276.300 75.500 276.300 H 72.600 Z" stroke="rgb(0,0,255)" stroke-width="0.20" />
  <path d="M 84.600 276.300 H 81.700 C 81.600 276.300 81.700 276.400 81.700 276.300 V 273.500 C 81.700 273.400 81.600 273.500 81.700 273.500 H 87.500 C 87.600 273.500 87.500 273.400 87.500 273.500 V 276.300 C 87.500 276.400 87.600 276.300 87.500 276.300 H 84.600 Z" stroke="rgb(0,0,255)" stroke-width="0.20" />
  <path d="M 96.600 276.300 H 93.700 C 93.600 276.300 93.700 276.400 93.700 276.300 V 273.500 C 93.700 273.400 93.600 273.500 93.700 273.500 H 99.500 C 99.600 273.500 99.500 273.400 99.500 273.500 V 276.300 C 99.500 276.400 99.600 276.300 99.500 276.300 H 96.600 Z" stroke="rgb(0,0,255)" stroke-width="0.20" />
  <path d="M 108.600 276.300 H 105.700 C 105.600 276.300 105.700 276.400 105.700 276.300 V 273.500 C 105.700 273.400 105.600 273.500 105.700 273.500 H 111.500 C 111.600 273.500 111.500 273.400 111.500 273.500 V 276.300 C 111.500 276.400 111.600 276.300 111.500 276.300 H 108.600 Z" stroke="rgb(0,0,255)" stroke-width="0.20" />
  <path d="M 120.600 276.300 H 117.700 C 117.600 276.300 117.700 276.400 117.700 276.300 V 273.500 C 117.700 273.400 117.600 273.500 117.700 273.500 H 123.500 C 123.600 273.500 123.500 273.400 123.500 273.500 V 276.300 C 123.500 276.400 123.600 276.300 123.500 276.300 H 120.600 Z" stroke="rgb(0,0,255)" stroke-width="0.20" />
  <path d="M 132.600 276.300 H 129.700 C 129.600 276.300 129.700 276.400 129.700 276.300 V 273.500 C 129.700 273.400 129.600 273.500 129.700 273.500 H 135.500 C 135.600 273.500 135.500 273.400 135.500 273.500 V 276.300 C 135.500 276.400 135.600 276.300 135.500 276.300 H 132.600 Z" stroke="rgb(0,0,255)" stroke-width="0.20" />
  <path d="M 144.600 276.300 H 141.700 C 141.600 276.300 141.700 276.400 141.700 276.300 V 273.500 C 141.700 273.400 141.600 273.500 141.700 273.500 H 147.500 C 147.600 273.500 147.500 273.400 147.500 273.500 V 276.300 C 147.500 276.400 147.600 276.300 147.500 276.300 H 144.600 Z" stroke="rgb(0,0,255)" stroke-width="0.20" />
  <path d="M 156.600 276.300 H 153.700 C 153.600 276.300 153.700 276.400 153.700 276.300 V 273.500 C 153.700 273.400 153.600 273.500 153.700 273.500 H 159.500 C 159.600 273.500 159.500 273.400 159.500 273.500 V 276.300 C 159.500 276.400 159.600 276.300 159.500 276.300 H 156.600 Z" stroke="rgb(0,0,255)" stroke-width="0.20" />
  <path d="M 168.600 276.300 H 165.700 C 165.600 276.300 165.700 276.400 165.700 276.300 V 273.500 C 165.700 273.400 165.600 273.500 165.700 273.500 H 171.500 C 171.600 273.500 171.500 273.400 171.500 273.500 V 276.300 C 171.500 276.400 171.600 276.300 171.500 276.300 H 168.600 Z" stroke="rgb(0,0,255)" stroke-width="0.20" />
  <path d="M 180.600 276.300 H 177.700 C 177.600 276.300 177.700 276.400 177.700 276.300 V 273.500 C 177.700 273.400 177.600 273.500 177.700 273.500 H 183.500 C 183.600 273.500 183.500 273.400 183.500 273.500 V 276.300 C 183.500 276.400 183.600 276.300 183.500 276.300 H 180.600 Z" stroke="rgb(0,0,255)" stroke-width="0.20" />
  <path d="M 192.600 276.300 H 189.700 C 189.600 276.300 189.700 276.400 189.700 276.300 V 273.500 C 189.700 273.400 189.600 273.500 189.700 273.500 H 195.500 C 195.600 273.500 195.500 273.400 195.500 273.500 V 276.300 C 195.500 276.400 195.600 276.300 195.500 276.300 H 192.600 Z" stroke="rgb(0,0,255)" stroke-width="0.20" />
  <path d="M 204.600 276.300 H 201.700 C 201.600 276.300 201.700 276.400 201.700 276.300 V 273.500 C 201.700 273.400 201.600 273.500 201.700 273.500 H 207.500 C 207.600 273.500 207.500 273.400 207.500 273.500 V 276.300 C 207.500 276.400 207.600 276.300 207.500 276.300 H 204.600 Z" stroke="rgb(0,0,255)" stroke-width="0.20" />
  <path d="M 14.500 264.400 V 267.300 C 14.500 267.400 14.600 267.300 14.500 267.300 H 11.700 C 11.600 267.300 11.700 267.400 11.700 267.300 V 261.500 C 11.700 261.400 11.600 261.500 11.700 261.500 H 14.500 C 14.600 261.500 14.500 261.400 14.500 261.500 V 264.400 Z" stroke="rgb(0,0,255)" stroke-width="0.20" />
  <path d="M 14.500 252.400 V 255.300 C 14.500 255.400 14.600 255.300 14.500 255.300 H 11.700 C 11.600 255.300 11.700 255.400 11.700 255.300 V 249.500 C 11.700 249.400 11.600 249.500 11.700 249.500 H 14.500 C 14.600 249.500 14.500 249.400 14.500 249.500 V 252.400 Z" stroke="rgb(0,0,255)" stroke-width="0.20" />
  <path d="M 217.500 264.400 V 267.300 C 217.500 267.400 217.600 267.300 217.500 267.300 H 214.700 C 214.600 267.300 214.700 267.400 214.700 267.300 V 261.500 C 214.700 261.400 214.600 261.500 214.700 261.500 H 217.500 C 217.600 261.500 217.500 261.400 217.500 261.500 V 264.400 Z" stroke="rgb(0,0,255)" stroke-width="0.20" />
  <path d="M 217.500 252.400 V 255.300 C 217.500 255.400 217.600 255.300 217.500 255.300 H 214.700 C 214.600 255.300 214.700 255.400 214.700 255.300 V 249.500 C 214.700 249.400 214.600 249.500 214.700 249.500 H 217.500 C 217.600 249.500 217.500 249.400 217.500 249.500 V 252.400 Z" stroke="rgb(0,0,255)" stroke-width="0.20" />
  <path d="M 24.600 176.300 H 21.700 C 21.600 176.300 21.700 176.400 21.700 176.300 V 173.500 C 21.700 173.400 21.600 173.500 21.700 173.500 H 27.500 C 27.600 173.500 27.500 173.400 27.500 173.500 V 176.300 C 27.500 176.400 27.600 176.300 27.500 176.300 H 24.600 Z" stroke="rgb(0,0,255)" stroke-width="0.20" />
  <path d="M 36.600 176.300 H 33.700 C 33.600 176.300 33.700 176.400 33.700 176.300 V 173.500 C 33.700 173.400 33.600 173.500 33.700 173.500 H 39.500 C 39.600 173.500 39.500 173.400 39.500 173.500 V 176.300 C 39.500 176.400 39.600 176.300 39.500 176.300 H 36.600 Z" stroke="rgb(0,0,255)" stroke-width="0.20" />
  <path d="M 48.600 176.300 H 45.700 C 45.600 176.300 45.700 176.400 45.700 176.300 V 173.500 C 45.700 173.400 45.600 173.500 45.700 173.500 H 51.500 C 51.600 173.500 51.500 173.400 51.500 173.500 V 176.300 C 51.500 176.400 51.600 176.300 51.500 176.300 H 48.600 Z" stroke="rgb(0,0,255)" stroke-width="0.20" />
  <path d="M 60.600 176.300 H 57.700 C 57.600 176.300 57.700 176.400 57.700 176.300 V 173.500 C 57.700 173.400 57.600 173.500 57.700 173.500 H 63.500 C 63.600 173.500 63.500 173.400 63.500 173.500 V 176.300 C 63.500 176.400 63.600 176.300 63.500 176.300 H 60.600 Z" stroke="rgb(0,0,255)" stroke-width="0.20" />
  <path d="M 72.600 176.300 H 69.700 C 69.600 176.300 69.700 176.400 69.700 176.300 V 173.500 C 69.700 173.400 69.600 173.500 69.700 173.500 H 75.500 C 75.600 173.500 75.500 173.400 75.500 173.500 V 176.300 C 75.500 176.400 75.600 176.300 75.500 176.300 H 72.600 Z" stroke="rgb(0,0,255)" stroke-width="0.20" />
  <path d="M 84.600 176.300 H 81.700 C 81.600 176.300 81.700 176.400 81.700 176.300 V 173.500 C 81.700 173.400 81.600 173.500 81.700 173.500 H 87.500 C 87.600 173.500 87.500 173.400 87.500 173.500 V 176.300 C 87.500 176.400 87.600 176.300 87.500 176.300 H 84.600 Z" stroke="rgb(0,0,255)" stroke-width="0.20" />
  <path d="M 96.600 176.300 H 93.700 C 93.600 176.300 93.700 176.400 93.700 176.300 V 173.500 C 93.700 173.400 93.600 173.500 93.700 173.500 H 99.500 C 99.600 173.500 99.500 173.400 99.500 173.500 V 176.300 C 99.500 176.400 99.600 176.300 99.500 176.300 H 96.600 Z" stroke="rgb(0,0,255)" stroke-width="0.20" />
  <path d="M 108.600 176.300 H 105.700 C 105.600 176.300 105.700 176.400 105.700 176.300 V 173.500 C 105.700 173.400 105.600 173.500 105.700 173.500 H 111.500 C 111.600 173.500 111.500 173.400 111.500 173.500 V 176.300 C 111.500 176.400 111.600 176.300 111.500 176.300 H 108.600 Z" stroke="rgb(0,0,255)" stroke-width="0.20" />
  <path d="M 120.600 176.300 H 117.700 C 117.600 176.300 117.700 176.400 117.700 176.300 V 173.500 C 117.700 173.400 117.600 173.500 117.700 173.500 H 123.500 C 123.600 173.500 123.500 173.400 123.500 173.500 V 176.300 C 123.500 176.400 123.600 176.300 123.500 176.300 H 120.600 Z" stroke="rgb(0,0,255)" stroke-width="0.20" />
  <path d="M 132.600 176.300 H 129.700 C 129.600 176.300 129.700 176.400 129.700 176.300 V 173.500 C 129.700 173.400 129.600 173.500 129.700 173.500 H 135.500 C 135.600 173.500 135.500 173.400 135.500 173.500 V 176.300 C 135.500 176.400 135.600 176.300 135.500 176.300 H 132.600 Z" stroke="rgb(0,0,255)" stroke-width="0.20" />
  <path d="M 144.600 176.300 H 141.700 C 141.600 176.300 141.700 176.400 141.700 176.300 V 173.500 C 141.700 173.400 141.600 173.500 141.700 173.500 H 147.500 C 147.600 173.500 147.500 173.400 147.500 173.500 V 176.300 C 147.500 176.400 147.600 176.300 147.500 176.300 H 144.600 Z" stroke="rgb(0,0,255)" stroke-width="0.20" />
  <path d="M 156.600 176.300 H 153.700 C 153.600 176.300 153.700 176.400 153.700 176.300 V 173.500 C 153.700 173.400 153.600 173.500 153.700 173.500 H 159.500 C 159.600 173.500 159.500 173.400 159.500 173.500 V 176.300 C 159.500 176.400 159.600 176.300 159.500 176.300 H 156.600 Z" stroke="rgb(0,0,255)" stroke-width="0.20" />
  <path d="M 168.600 176.300 H 165.700 C 165.600 176.300 165.700 176.400 165.700 176.300 V 173.500 C 165.700 173.400 165.600 173.500 165.700 173.500 H 171.500 C 171.600 173.500 171.500 173.400 171.500 173.500 V 176.300 C 171.500 176.400 171.600 176.300 171.500 176.300 H 168.600 Z" stroke="rgb(0,0,255)" stroke-width="0.20" />
  <path d="M 180.600 176.300 H 177.700 C 177.600 176.300 177.700 176.400 177.700 176.300 V 173.500 C 177.700 173.400 177.600 173.500 177.700 173.500 H 183.500 C 183.600 173.500 183.500 173.400 183.500 173.500 V 176.300 C 183.500 176.400 183.600 176.300 183.500 176.300 H 180.600 Z" stroke="rgb(0,0,255)" stroke-width="0.20" />
  <path d="M 192.600 176.300 H 189.700 C 189.600 176.300 189.700 176.400 189.700 176.300 V 173.500 C 189.700 173.400 189.600 173.500 189.700 173.500 H 195.500 C 195.600 173.500 195.500 173.400 195.500 173.500 V 176.300 C 195.500 176.400 195.600 176.300 195.500 176.300 H 192.600 Z" stroke="rgb(0,0,255)" stroke-width="0.20" />
  <path d="M 204.600 176.300 H 201.700 C 201.600 176.300 201.700 176.400 201.700 176.300 V 173.500 C 201.700 173.400 201.600 173.500 201.700 173.500 H 207.500 C 207.600 173.500 207.500 173.400 207.500 173.500 V 176.300 C 207.500 176.400 207.600 176.300 207.500 176.300 H 204.600 Z" stroke="rgb(0,0,255)" stroke-width="0.20" />
  <path d="M 14.500 164.400 V 167.300 C 14.500 167.400 14.600 167.300 14.500 167.300 H 11.700 C 11.600 167.300 11.700 167.400 11.700 167.300 V 161.500 C 11.700 161.400 11.600 161.500 11.700 161.500 H 14.500 C 14.600 161.500 14.500 161.400 14.500 161.500 V 164.400 Z" stroke="rgb(0,0,255)" stroke-width="0.20" />
  <path d="M 14.500 152.400 V 155.300 C 14.500 155.400 14.600 155.300 14.500 155.300 H 11.700 C 11.600 155.300 11.700 155.400 11.700 155.300 V 149.500 C 11.700 149.400 11.600 149.500 11.700 149.500 H 14.500 C 14.600 149.500 14.500 149.400 14.500 149.500 V 152.400 Z" stroke="rgb(0,0,255)" stroke-width="0.20" />
  <path d="M 217.500 164.400 V 167.300 C 217.500 167.400 217.600 167.300 217.500 167.300 H 214.700 C 214.600 167.300 214.700 167.400 214.700 167.300 V 161.500 C 214.700 161.400 214.600 161.500 214.700 161.500 H 217.500 C 217.600 161.500 217.500 161.400 217.500 161.500 V 164.400 Z" stroke="rgb(0,0,255)" stroke-width="0.20" />
  <path d="M 217.500 152.400 V 155.300 C 217.500 155.400 217.600 155.300 217.500 155.300 H 214.700 C 214.600 155.300 214.700 155.400 214.700 155.300 V 149.500 C 214.700 149.400 214.600 149.500 214.700 149.500 H 217.500 C 217.600 149.500 217.500 149.400 217.500 149.500 V 152.400 Z" stroke="rgb(0,0,255)" stroke-width="0.20" />
  <text dominant-baseline="hanging" font-size="4px" style="font-family: sans-serif ; font-weight: normal; font-style: normal; fill: rgb(255,0,0)" text-anchor="middle" transform="matrix( 1.000 0.000 0.000 1.000 114.600 227.500 )">back wall</text><path d="M 13.100 379.500 H 216.100 H 219.100 C 219.155 379.500 219.200 379.455 219.200 379.400 V 376.400 V 79.400 C 219.200 79.345 219.155 79.300 219.100 79.300 H 216.100 H 13.100 H 10.100 C 10.045 79.300 10.000 79.345 10.000 79.400 V 376.400 V 379.400 C 10.000 379.455 10.045 379.500 10.100 379.500 H 13.100" stroke="rgb(0,0,0)" stroke-width="0.20" />
  <path d="M 181.575 85.300 C 181.575 85.054 181.640 84.813 181.763 84.600 C 181.885 84.387 182.062 84.210 182.275 84.088 C 182.488 83.965 182.729 83.900 182.975 83.900 C 183.221 83.900 183.462 83.965 183.675 84.088 C 183.888 84.210 184.065 84.387 184.187 84.600 C 184.310 84.813 184.375 85.054 184.375 85.300 V 88.300 C 184.375 88.337 184.396 88.371 184.429 88.389 C 184.984 88.677 185.440 89.125 185.740 89.674 C 186.040 90.223 186.169 90.849 186.112 91.472 C 186.054 92.096 185.813 92.687 185.417 93.172 C 185.022 93.658 184.492 94.014 183.893 94.196 C 183.295 94.379 182.655 94.379 182.057 94.196 C 181.458 94.014 180.928 93.658 180.533 93.172 C 180.137 92.687 179.896 92.096 179.838 91.472 C 179.781 90.849 179.910 90.223 180.210 89.674 C 180.510 89.125 180.966 88.677 181.521 88.389 C 181.554 88.371 181.575 88.337 181.575 88.300 V 85.300 Z" stroke="rgb(0,0,255)" stroke-width="0.20" />
  <path d="M 44.825 85.300 C 44.825 85.054 44.890 84.813 45.013 84.600 C 45.135 84.387 45.312 84.210 45.525 84.088 C 45.738 83.965 45.979 83.900 46.225 83.900 C 46.471 83.900 46.712 83.965 46.925 84.088 C 47.138 84.210 47.315 84.387 47.437 84.600 C 47.560 84.813 47.625 85.054 47.625 85.300 V 88.300 C 47.625 88.337 47.646 88.371 47.679 88.389 C 48.234 88.677 48.690 89.125 48.990 89.674 C 49.290 90.223 49.419 90.849 49.362 91.472 C 49.304 92.096 49.063 92.687 48.667 93.172 C 48.272 93.658 47.742 94.014 47.143 94.196 C 46.545 94.379 45.905 94.379 45.307 94.196 C 44.708 94.014 44.178 93.658 43.783 93.172 C 43.387 92.687 43.146 92.096 43.088 91.472 C 43.031 90.849 43.160 90.223 43.460 89.674 C 43.760 89.125 44.216 88.677 44.771 88.389 C 44.804 88.371 44.825 88.337 44.825 88.300 V 85.300 Z" stroke="rgb(0,0,255)" stroke-width="0.20" />
</g>
<g id="p-2" style="fill:none;stroke-linecap:round;stroke-linejoin:round;">
  <text dominant-baseline="hanging" font-size="4px" style="font-family: sans-serif ; font-weight: normal; font-style: normal; fill: rgb(255,0,0)" text-anchor="middle" transform="matrix( 1.000 0.000 0.000 1.000 323.800 349.500 )">shelf 1</text><path d="M 223.800 376.500 H 230.700 C 230.800 376.500 230.700 376.400 230.700 376.500 V 379.400 C 230.700 379.455 230.745 379.500 230.800 379.500 H 236.800 C 236.855 379.500 236.900 379.455 236.900 379.400 V 376.500 C 236.900 376.400 236.800 376.500 236.900 376.500 H 242.700 C 242.800 376.500 242.700 376.400 242.700 376.500 V 379.400 C 242.700 379.455 242.745 379.500 242.800 379.500 H 248.800 C 248.855 379.500 248.900 379.455 248.900 379.400 V 376.500 C 248.900 376.400 248.800 376.500 248.900 376.500 H 254.700 C 254.800 376.500 254.700 376.400 254.700 376.500 V 379.400 C 254.700 379.455 254.745 379.500 254.800 379.500 H 260.800 C 260.855 379.500 260.900 379.455 260.900 379.400 V 376.500 C 260.900 376.400 260.800 376.500 260.900 376.500 H 266.700 C 266.800 376.500 266.700 376.400 266.700 376.500 V 379.400 C 266.700 379.455 266.745 379.500 266.800 379.500 H 272.800 C 272.855 379.500 272.900 379.455 272.900 379.400 V 376.500 C 272.900 376.400 272.800 376.500 272.900 376.500 H 278.700 C 278.800 376.500 278.700 376.400 278.700 376.500 V 379.400 C 278.700 379.455 278.745 379.500 278.800 379.500 H 284.800 C 284.855 379.500 284.900 379.455 284.900 379.400 V 376.500 C 284.900 376.400 284.800 376.500 284.900 376.500 H 290.700 C 290.800 376.500 290.700 376.400 290.700 376.500 V 379.400 C 290.700 379.455 290.745 379.500 290.800 379.500 H 296.800 C 296.855 379.500 296.900 379.455 296.900 379.400 V 376.500 C 296.900 376.400 296.800 376.500 296.900 376.500 H 302.700 C 302.800 376.500 302.700 376.400 302.700 376.500 V 379.400 C 302.700 379.455 302.745 379.500 302.800 379.500 H 308.800 C 308.855 379.500 308.900 379.455 308.900 379.400 V 376.500 C 308.900 376.400 308.800 376.500 308.900 376.500 H 314.700 C 314.800 376.500 314.700 376.400 314.700 376.500 V 379.400 C 314.700 379.455 314.745 379.500 314.800 379.500 H 320.800 C 320.855 379.500 320.900 379.455 320.900 379.400 V 376.500 C 320.900 376.400 320.800 376.500 320.900 376.500 H 326.700 C 326.800 376.500 326.700 376.400 326.700 376.500 V 379.400 C 326.700 379.455 326.745 379.500 326.800 379.500 H 332.800 C 332.855 379.500 332.900 379.455 332.900 379.400 V 376.500 C 332.900 376.400 332.800 376.500 332.900 376.500 H 338.700 C 338.800 376.500 338.700 376.400 338.700 376.500 V 379.400 C 338.700 379.455 338.745 379.500 338.800 379.500 H 344.800 C 344.855 379.500 344.900 379.455 344.900 379.400 V 376.500 C 344.900 376.400 344.800 376.500 344.900 376.500 H 350.700 C 350.800 376.500 350.700 376.400 350.700 376.500 V 379.400 C 350.700 379.455 350.745 379.500 350.800 379.500 H 356.800 C 356.855 379.500 356.900 379.455 356.900 379.400 V 376.500 C 356.900 376.400 356.800 376.500 356.900 376.500 H 362.700 C 362.800 376.500 362.700 376.400 362.700 376.500 V 379.400 C 362.700 379.455 362.745 379.500 362.800 379.500 H 368.800 C 368.855 379.500 368.900 379.455 368.900 379.400 V 376.500 C 368.900 376.400 368.800 376.500 368.900 376.500 H 374.700 C 374.800 376.500 374.700 376.400 374.700 376.500 V 379.400 C 374.700 379.455 374.745 379.500 374.800 379.500 H 380.800 C 380.855 379.500 380.900 379.455 380.900 379.400 V 376.500 C 380.900 376.400 380.800 376.500 380.900 376.500 H 386.700 C 386.800 376.500 386.700 376.400 386.700 376.500 V 379.400 C 386.700 379.455 386.745 379.500 386.800 379.500 H 392.800 C 392.855 379.500 392.900 379.455 392.900 379.400 V 376.500 C 392.900 376.400 392.800 376.500 392.900 376.500 H 398.700 C 398.800 376.500 398.700 376.400 398.700 376.500 V 379.400 C 398.700 379.455 398.745 379.500 398.800 379.500 H 404.800 C 404.855 379.500 404.900 379.455 404.900 379.400 V 376.500 C 404.900 376.400 404.800 376.500 404.900 376.500 H 410.700 C 410.800 376.500 410.700 376.400 410.700 376.500 V 379.400 C 410.700 379.455 410.745 379.500 410.800 379.500 H 416.800 C 416.855 379.500 416.900 379.455 416.900 379.400 V 376.500 C 416.900 376.400 416.800 376.500 416.900 376.500 H 423.800 C 423.855 376.500 423.900 376.455 423.900 376.400 V 372.500 C 423.900 372.400 423.800 372.500 423.900 372.500 H 426.800 C 426.855 372.500 426.900 372.455 426.900 372.400 V 366.400 C 426.900 366.345 426.855 366.300 426.800 366.300 H 423.900 C 423.800 366.300 423.900 366.400 423.900 366.300 V 360.500 C 423.900 360.400 423.800 360.500 423.900 360.500 H 426.800 C 426.855 360.500 426.900 360.455 426.900 360.400 V 354.400 C 426.900 354.345 426.855 354.300 426.800 354.300 H 423.900 C 423.800 354.300 423.900 354.400 423.900 354.300 V 348.500 C 423.900 348.400 423.800 348.500 423.900 348.500 H 426.800 C 426.855 348.500 426.900 348.455 426.900 348.400 V 342.400 C 426.900 342.345 426.855 342.300 426.800 342.300 H 423.900 C 423.800 342.300 423.900 342.400 423.900 342.300 V 336.500 C 423.900 336.400 423.800 336.500 423.900 336.500 H 426.800 C 426.855 336.500 426.900 336.455 426.900 336.400 V 330.400 C 426.900 330.345 426.855 330.300 426.800 330.300 H 423.900 C 423.800 330.300 423.900 330.400 423.900 330.300 V 326.400 C 423.900 326.345 423.855 326.300 423.800 326.300 H 416.900 C 416.800 326.300 416.900 326.400 416.900 326.300 V 323.400 C 416.900 323.345 416.855 323.300 416.800 323.300 H 410.800 C 410.745 323.300 410.700 323.345 410.700 323.400 V 326.300 C 410.700 326.400 410.800 326.300 410.700 326.300 H 404.900 C 404.800 326.300 404.900 326.400 404.900 326.300 V 323.400 C 404.900 323.345 404.855 323.300 404.800 323.300 H 398.800 C 398.745 323.300 398.700 323.345 398.700 323.400 V 326.300 C 398.700 326.400 398.800 326.300 398.700 326.300 H 392.900 C 392.800 326.300 392.900 326.400 392.900 326.300 V 323.400 C 392.900 323.345 392.855 323.300 392.800 323.300 H 386.800 C 386.745 323.300 386.700 323.345 386.700 323.400 V 326.300 C 386.700 326.400 386.800 326.300 386.700 326.300 H 380.900 C 380.800 326.300 380.900 326.400 380.900 326.300 V 323.400 C 380.900 323.345 380.855 323.300 380.800 323.300 H 374.800 C 374.745 323.300 374.700 323.345 374.700 323.400 V 326.300 C 374.700 326.400 374.800 326.300 374.700 326.300 H 368.900 C 368.800 326.300 368.900 326.400 368.900 326.300 V 323.400 C 368.900 323.345 368.855 323.300 368.800 323.300 H 362.800 C 362.745 323.300 362.700 323.345 362.700 323.400 V 326.300 C 362.700 326.400 362.800 326.300 362.700 326.300 H 356.900 C 356.800 326.300 356.900 326.400 356.900 326.300 V 323.400 C 356.900 323.345 356.855 323.300 356.800 323.300 H 350.800 C 350.745 323.300 350.700 323.345 350.700 323.400 V 326.300 C 350.700 326.400 350.800 326.300 350.700 326.300 H 344.900 C 344.800 326.300 344.900 326.400 344.900 326.300 V 323.400 C 344.900 323.345 344.855 323.300 344.800 323.300 H 338.800 C 338.745 323.300 338.700 323.345 338.700 323.400 V 326.300 C 338.700 326.400 338.800 326.300 338.700 326.300 H 332.900 C 332.800 326.300 332.900 326.400 332.900 326.300 V 323.400 C 332.900 323.345 332.855 323.300 332.800 323.300 H 326.800 C 326.745 323.300 326.700 323.345 326.700 323.400 V 326.300 C 326.700 326.400 326.800 326.300 326.700 326.300 H 320.900 C 320.800 326.300 320.900 326.400 320.900 326.300 V 323.400 C 320.900 323.345 320.855 323.300 320.800 323.300 H 314.800 C 314.745 323.300 314.700 323.345 314.700 323.400 V 326.300 C 314.700 326.400 314.800 326.300 314.700 326.300 H 308.900 C 308.800 326.300 308.900 326.400 308.900 326.300 V 323.400 C 308.900 323.345 308.855 323.300 308.800 323.300 H 302.800 C 302.745 323.300 302.700 323.345 302.700 323.400 V 326.300 C 302.700 326.400 302.800 326.300 302.700 326.300 H 296.900 C 296.800 326.300 296.900 326.400 296.900 326.300 V 323.400 C 296.900 323.345 296.855 323.300 296.800 323.300 H 290.800 C 290.745 323.300 290.700 323.345 290.700 323.400 V 326.300 C 290.700 326.400 290.800 326.300 290.700 326.300 H 284.900 C 284.800 326.300 284.900 326.400 284.900 326.300 V 323.400 C 284.900 323.345 284.855 323.300 284.800 323.300 H 278.800 C 278.745 323.300 278.700 323.345 278.700 323.400 V 326.300 C 278.700 326.400 278.800 326.300 278.700 326.300 H 272.900 C 272.800 326.300 272.900 326.400 272.900 326.300 V 323.400 C 272.900 323.345 272.855 323.300 272.800 323.300 H 266.800 C 266.745 323.300 266.700 323.345 266.700 323.400 V 326.300 C 266.700 326.400 266.800 326.300 266.700 326.300 H 260.900 C 260.800 326.300 260.900 326.400 260.900 326.300 V 323.400 C 260.900 323.345 260.855 323.300 260.800 323.300 H 254.800 C 254.745 323.300 254.700 323.345 254.700 323.400 V 326.300 C 254.700 326.400 254.800 326.300 254.700 326.300 H 248.900 C 248.800 326.300 248.900 326.400 248.900 326.300 V 323.400 C 248.900 323.345 248.855 323.300 248.800 323.300 H 242.800 C 242.745 323.300 242.700 323.345 242.700 323.400 V 326.300 C 242.700 326.400 242.800 326.300 242.700 326.300 H 236.900 C 236.800 326.300 236.900 326.400 236.900 326.300 V 323.400 C 236.900 323.345 236.855 323.300 236.800 323.300 H 230.800 C 230.745 323.300 230.700 323.345 230.700 323.400 V 326.300 C 230.700 326.400 230.800 326.300 230.700 326.300 H 223.800 C 223.745 326.300 223.700 326.345 223.700 326.400 V 330.300 C 223.700 330.400 223.800 330.300 223.700 330.300 H 220.800 C 220.745 330.300 220.700 330.345 220.700 330.400 V 336.400 C 220.700 336.455 220.745 336.500 220.800 336.500 H 223.700 C 223.800 336.500 223.700 336.400 223.700 336.500 V 342.300 C 223.700 342.400 223.800 342.300 223.700 342.300 H 220.800 C 220.745 342.300 220.700 342.345 220.700 342.400 V 348.400 C 220.700 348.455 220.745 348.500 220.800 348.500 H 223.700 C 223.800 348.500 223.700 348.400 223.700 348.500 V 354.300 C 223.700 354.400 223.800 354.300 223.700 354.300 H 220.800 C 220.745 354.300 220.700 354.345 220.700 354.400 V 360.400 C 220.700 360.455 220.745 360.500 220.800 360.500 H 223.700 C 223.800 360.500 223.700 360.400 223.700 360.500 V 366.300 C 223.700 366.400 223.800 366.300 223.700 366.300 H 220.800 C 220.745 366.300 220.700 366.345 220.700 366.400 V 372.400 C 220.700 372.455 220.745 372.500 220.800 372.500 H 223.700 C 223.800 372.500 223.700 372.400 223.700 372.500 V 376.400 C 223.700 376.455 223.745 376.500 223.800 376.500" stroke="rgb(0,0,0)" stroke-width="0.20" />
</g>
<g id="p-3" style="fill:none;stroke-linecap:round;stroke-linejoin:round;">
  <path d="M 233.800 318.600 H 230.900 C 230.800 318.600 230.900 318.700 230.900 318.600 V 315.800 C 230.900 315.700 230.800 315.800 230.900 315.800 H 236.700 C 236.800 315.800 236.700 315.700 236.700 315.800 V 318.600 C 236.700 318.700 236.800 318.600 236.700 318.600 H 233.800 Z" stroke="rgb(0,0,255)" stroke-width="0.20" />
  <path d="M 245.800 318.600 H 242.900 C 242.800 318.600 242.900 318.700 242.900 318.600 V 315.800 C 242.900 315.700 242.800 315.800 242.900 315.800 H 248.700 C 248.800 315.800 248.700 315.700 248.700 315.800 V 318.600 C 248.700 318.700 248.800 318.600 248.700 318.600 H 245.800 Z" stroke="rgb(0,0,255)" stroke-width="0.20" />
  <path d="M 257.800 318.600 H 254.900 C 254.800 318.600 254.900 318.700 254.900 318.600 V 315.800 C 254.900 315.700 254.800 315.800 254.900 315.800 H 260.700 C 260.800 315.800 260.700 315.700 260.700 315.800 V 318.600 C 260.700 318.700 260.800 318.600 260.700 318.600 H 257.800 Z" stroke="rgb(0,0,255)" stroke-width="0.20" />
  <path d="M 269.800 318.600 H 266.900 C 266.800 318.600 266.900 318.700 266.900 318.600 V 315.800 C 266.900 315.700 266.800 315.800 266.900 315.800 H 272.700 C 272.800 315.800 272.700 315.700 272.700 315.800 V 318.600 C 272.700 318.700 272.800 318.600 272.700 318.600 H 269.800 Z" stroke="rgb(0,0,255)" stroke-width="0.20" />
  <path d="M 281.800 318.600 H 278.900 C 278.800 318.600 278.900 318.700 278.900 318.600 V 315.800 C 278.900 315.700 278.800 315.800 278.900 315.800 H 284.700 C 284.800 315.800 284.700 315.700 284.700 315.800 V 318.600 C 284.700 318.700 284.800 318.600 284.700 318.600 H 281.800 Z" stroke="rgb(0,0,255)" stroke-width="0.20" />
  <path d="M 293.800 318.600 H 290.900 C 290.800 318.600 290.900 318.700 290.900 318.600 V 315.800 C 290.900 315.700 290.800 315.800 290.900 315.800 H 296.700 C 296.800 315.800 296.700 315.700 296.700 315.800 V 318.600 C 296.700 318.700 296.800 318.600 296.700 318.600 H 293.800 Z" stroke="rgb(0,0,255)" stroke-width="0.20" />
  <path d="M 305.800 318.600 H 302.900 C 302.800 318.600 302.900 318.700 302.900 318.600 V 315.800 C 302.900 315.700 302.800 315.800 302.900 315.800 H 308.700 C 308.800 315.800 308.700 315.700 308.700 315.800 V 318.600 C 308.700 318.700 308.800 318.600 308.700 318.600 H 305.800 Z" stroke="rgb(0,0,255)" stroke-width="0.20" />
  <path d="M 317.800 318.600 H 314.900 C 314.800 318.600 314.900 318.700 314.900 318.600 V 315.800 C 314.900 315.700 314.800 315.800 314.900 315.800 H 320.700 C 320.800 315.800 320.700 315.700 320.700 315.800 V 318.600 C 320.700 318.700 320.800 318.600 320.700 318.600 H 317.800 Z" stroke="rgb(0,0,255)" stroke-width="0.20" />
  <path d="M 329.800 318.600 H 326.900 C 326.800 318.600 326.900 318.700 326.900 318.600 V 315.800 C 326.900 315.700 326.800 315.800 326.900 315.800 H 332.700 C 332.800 315.800 332.700 315.700 332.700 315.800 V 318.600 C 332.700 318.700 332.800 318.600 332.700 318.600 H 329.800 Z" stroke="rgb(0,0,255)" stroke-width="0.20" />
  <path d="M 341.800 318.600 H 338.900 C 338.800 318.600 338.900 318.700 338.900 318.600 V 315.800 C 338.900 315.700 338.800 315.800 338.900 315.800 H 344.700 C 344.800 315.800 344.700 315.700 344.700 315.800 V 318.600 C 344.700 318.700 344.800 318.600 344.700 318.600 H 341.800 Z" stroke="rgb(0,0,255)" stroke-width="0.20" />
  <path d="M 353.800 318.600 H 350.900 C 350.800 318.600 350.900 318.700 350.900 318.600 V 315.800 C 350.900 315.700 350.800 315.800 350.900 315.800 H 356.700 C 356.800 315.800 356.700 315.700 356.700 315.800 V 318.600 C 356.700 318.700 356.800 318.600 356.700 318.600 H 353.800 Z" stroke="rgb(0,0,255)" stroke-width="0.20" />
  <path d="M 365.800 318.600 H 362.900 C 362.800 318.600 362.900 318.700 362.900 318.600 V 315.800 C 362.900 315.700 362.800 315.800 362.900 315.800 H 368.700 C 368.800 315.800 368.700 315.700 368.700 315.800 V 318.600 C 368.700 318.700 368.800 318.600 368.700 318.600 H 365.800 Z" stroke="rgb(0,0,255)" stroke-width="0.20" />
  <path d="M 377.800 318.600 H 374.900 C 374.800 318.600 374.900 318.700 374.900 318.600 V 315.800 C 374.900 315.700 374.800 315.800 374.900 315.800 H 380.700 C 380.800 315.800 380.700 315.700 380.700 315.800 V 318.600 C 380.700 318.700 380.800 318.600 380.700 318.600 H 377.800 Z" stroke="rgb(0,0,255)" stroke-width="0.20" />
  <path d="M 389.800 318.600 H 386.900 C 386.800 318.600 386.900 318.700 386.900 318.600 V 315.800 C 386.900 315.700 386.800 315.800 386.900 315.800 H 392.700 C 392.800 315.800 392.700 315.700 392.700 315.800 V 318.600 C 392.700 318.700 392.800 318.600 392.700 318.600 H 389.800 Z" stroke="rgb(0,0,255)" stroke-width="0.20" />
  <path d="M 401.800 318.600 H 398.900 C 398.800 318.600 398.900 318.700 398.900 318.600 V 315.800 C 398.900 315.700 398.800 315.800 398.900 315.800 H 404.700 C 404.800 315.800 404.700 315.700 404.700 315.800 V 318.600 C 404.700 318.700 404.800 318.600 404.700 318.600 H 401.800 Z" stroke="rgb(0,0,255)" stroke-width="0.20" />
  <path d="M 413.800 318.600 H 410.900 C 410.800 318.600 410.900 318.700 410.900 318.600 V 315.800 C 410.900 315.700 410.800 315.800 410.900 315.800 H 416.700 C 416.800 315.800 416.700 315.700 416.700 315.800 V 318.600 C 416.700 318.700 416.800 318.600 416.700 318.600 H 413.800 Z" stroke="rgb(0,0,255)" stroke-width="0.20" />
  <text dominant-baseline="hanging" font-size="4px" style="font-family: sans-serif ; font-weight: normal; font-style: normal; fill: rgb(255,0,0)" text-anchor="middle" transform="matrix( 1.000 0.000 0.000 1.000 323.800 306.800 )">front lip 1</text><path d="M 223.800 321.800 H 423.800 C 423.855 321.800 423.900 321.755 423.900 321.700 V 315.700 V 308.800 C 423.900 308.700 423.800 308.800 423.900 308.800 H 426.800 C 426.855 308.800 426.900 308.755 426.900 308.700 V 302.700 C 426.900 302.645 426.855 302.600 426.800 302.600 H 423.900 C 423.800 302.600 423.900 302.700 423.900 302.600 V 295.700 C 423.900 295.645 423.855 295.600 423.800 295.600 H 223.800 C 223.745 295.600 223.700 295.645 223.700 295.700 V 302.600 C 223.700 302.700 223.800 302.600 223.700 302.600 H 220.800 C 220.745 302.600 220.700 302.645 220.700 302.700 V 308.700 C 220.700 308.755 220.745 308.800 220.800 308.800 H 223.700 C 223.800 308.800 223.700 308.700 223.700 308.800 V 315.700 V 321.700 C 223.700 321.755 223.745 321.800 223.800 321.800" stroke="rgb(0,0,0)" stroke-width="0.20" />
</g>
<g id="p-4" style="fill:none;stroke-linecap:round;stroke-linejoin:round;">
  <path d="M 233.800 290.900 H 230.900 C 230.800 290.900 230.900 291.000 230.900 290.900 V 288.100 C 230.900 288.000 230.800 288.100 230.900 288.100 H 236.700 C 236.800 288.100 236.700 288.000 236.700 288.100 V 290.900 C 236.700 291.000 236.800 290.900 236.700 290.900 H 233.800 Z" stroke="rgb(0,0,255)" stroke-width="0.20" />
  <path d="M 245.800 290.900 H 242.900 C 242.800 290.900 242.900 291.000 242.900 290.900 V 288.100 C 242.900 288.000 242.800 288.100 242.900 288.100 H 248.700 C 248.800 288.100 248.700 288.000 248.700 288.100 V 290.900 C 248.700 291.000 248.800 290.900 248.700 290.900 H 245.800 Z" stroke="rgb(0,0,255)" stroke-width="0.20" />
  <path d="M 257.800 290.900 H 254.900 C 254.800 290.900 254.900 291.000 254.900 290.900 V 288.100 C 254.900 288.000 254.800 288.100 254.900 288.100 H 260.700 C 260.800 288.100 260.700 288.000 260.700 288.100 V 290.900 C 260.700 291.000 260.800 290.900 260.700 290.900 H 257.800 Z" stroke="rgb(0,0,255)" stroke-width="0.20" />
  <path d="M 269.800 290.900 H 266.900 C 266.800 290.900 266.900 291.000 266.900 290.900 V 288.100 C 266.900 288.000 266.800 288.100 266.900 288.100 H 272.700 C 272.800 288.100 272.700 288.000 272.700 288.100 V 290.900 C 272.700 291.000 272.800 290.900 272.700 290.900 H 269.800 Z" stroke="rgb(0,0,255)" stroke-width="0.20" />
  <text dominant-baseline="hanging" font-size="4px" style="font-family: sans-serif ; font-weight: normal; font-style: normal; fill: rgb(255,0,0)" text-anchor="middle" transform="matrix( 1.000 0.000 0.000 1.000 250.300 274.100 )">right lip 1</text><path d="M 226.800 294.100 H 276.800 C 276.855 294.100 276.900 294.055 276.900 294.000 V 288.000 V 282.100 C 276.900 282.000 276.800 282.100 276.900 282.100 H 279.800 C 279.855 282.100 279.900 282.055 279.900 282.000 V 276.000 C 279.900 275.945 279.855 275.900 279.800 275.900 H 276.900 C 276.800 275.900 276.900 276.000 276.900 275.900 V 270.100 C 276.900 270.000 276.800 270.100 276.900 270.100 H 279.800 C 279.855 270.100 279.900 270.055 279.900 270.000 V 264.000 C 279.900 263.945 279.855 263.900 279.800 263.900 H 276.900 C 276.800 263.900 276.900 264.000 276.900 263.900 V 258.000 C 276.900 257.945 276.855 257.900 276.800 257.900 C 276.793 257.900 276.787 257.901 276.780 257.902 L 226.790 267.900 C 226.780 267.902 226.800 267.900 226.790 267.900 H 220.800 C 220.745 267.900 220.700 267.945 220.700 268.000 V 288.000 V 294.000 C 220.700 294.055 220.745 294.100 220.800 294.100 H 226.800" stroke="rgb(0,0,0)" stroke-width="0.20" />
  <path d="M 223.900 278.000 V 275.100 C 223.900 275.000 223.800 275.100 223.900 275.100 H 226.700 C 226.800 275.100 226.700 275.000 226.700 275.100 V 280.900 C 226.700 281.000 226.800 280.900 226.700 280.900 H 223.900 C 223.800 280.900 223.900 281.000 223.900 280.900 V 278.000 Z" stroke="rgb(0,0,255)" stroke-width="0.20" />
</g>
<g id="p-5" style="fill:none;stroke-linecap:round;stroke-linejoin:round;">
  <path d="M 294.500 290.900 H 291.600 C 291.500 290.900 291.600 291.000 291.600 290.900 V 288.100 C 291.600 288.000 291.500 288.100 291.600 288.100 H 297.400 C 297.500 288.100 297.400 288.000 297.400 288.100 V 290.900 C 297.400 291.000 297.500 290.900 297.400 290.900 H 294.500 Z" stroke="rgb(0,0,255)" stroke-width="0.20" />
  <path d="M 306.500 290.900 H 303.600 C 303.500 290.900 303.600 291.000 303.600 290.900 V 288.100 C 303.600 288.000 303.500 288.100 303.600 288.100 H 309.400 C 309.500 288.100 309.400 288.000 309.400 288.100 V 290.900 C 309.400 291.000 309.500 290.900 309.400 290.900 H 306.500 Z" stroke="rgb(0,0,255)" stroke-width="0.20" />
  <path d="M 318.500 290.900 H 315.600 C 315.500 290.900 315.600 291.000 315.600 290.900 V 288.100 C 315.600 288.000 315.500 288.100 315.600 288.100 H 321.400 C 321.500 288.100 321.400 288.000 321.400 288.100 V 290.900 C 321.400 291.000 321.500 290.900 321.400 290.900 H 318.500 Z" stroke="rgb(0,0,255)" stroke-width="0.20" />
  <path d="M 330.500 290.900 H 327.600 C 327.500 290.900 327.600 291.000 327.600 290.900 V 288.100 C 327.600 288.000 327.500 288.100 327.600 288.100 H 333.400 C 333.500 288.100 333.400 288.000 333.400 288.100 V 290.900 C 333.400 291.000 333.500 290.900 333.400 290.900 H 330.500 Z" stroke="rgb(0,0,255)" stroke-width="0.20" />
  <text dominant-baseline="hanging" font-size="4px" style="font-family: sans-serif ; font-weight: normal; font-style: normal; fill: rgb(255,0,0)" text-anchor="middle" transform="matrix( 1.000 0.000 0.000 1.000 311.000 274.100 )">left lip 1</text><path d="M 287.500 294.100 H 337.500 C 337.555 294.100 337.600 294.055 337.600 294.000 V 288.000 V 282.100 C 337.600 282.000 337.500 282.100 337.600 282.100 H 340.500 C 340.555 282.100 340.600 282.055 340.600 282.000 V 276.000 C 340.600 275.945 340.555 275.900 340.500 275.900 H 337.600 C 337.500 275.900 337.600 276.000 337.600 275.900 V 270.100 C 337.600 270.000 337.500 270.100 337.600 270.100 H 340.500 C 340.555 270.100 340.600 270.055 340.600 270.000 V 264.000 C 340.600 263.945 340.555 263.900 340.500 263.900 H 337.600 C 337.500 263.900 337.600 264.000 337.600 263.900 V 258.000 C 337.600 257.945 337.555 257.900 337.500 257.900 C 337.493 257.900 337.487 257.901 337.480 257.902 L 287.490 267.900 C 287.480 267.902 287.500 267.900 287.490 267.900 H 281.500 C 281.445 267.900 281.400 267.945 281.400 268.000 V 288.000 V 294.000 C 281.400 294.055 281.445 294.100 281.500 294.100 H 287.500" stroke="rgb(0,0,0)" stroke-width="0.20" />
  <path d="M 284.600 278.000 V 275.100 C 284.600 275.000 284.500 275.100 284.600 275.100 H 287.400 C 287.500 275.100 287.400 275.000 287.400 275.100 V 280.900 C 287.400 281.000 287.500 280.900 287.400 280.900 H 284.600 C 284.500 280.900 284.600 281.000 284.600 280.900 V 278.000 Z" stroke="rgb(0,0,255)" stroke-width="0.20" />
</g>
<g id="p-6" style="fill:none;stroke-linecap:round;stroke-linejoin:round;">
  <text dominant-baseline="hanging" font-size="4px" style="font-family: sans-serif ; font-weight: normal; font-style: normal; fill: rgb(255,0,0)" text-anchor="middle" transform="matrix( 1.000 0.000 0.000 1.000 327.650 225.550 )">shelf 2</text><path d="M 227.650 252.550 H 234.550 C 234.650 252.550 234.550 252.450 234.550 252.550 V 255.450 C 234.550 255.505 234.595 255.550 234.650 255.550 H 240.650 C 240.705 255.550 240.750 255.505 240.750 255.450 V 252.550 C 240.750 252.450 240.650 252.550 240.750 252.550 H 246.550 C 246.650 252.550 246.550 252.450 246.550 252.550 V 255.450 C 246.550 255.505 246.595 255.550 246.650 255.550 H 252.650 C 252.705 255.550 252.750 255.505 252.750 255.450 V 252.550 C 252.750 252.450 252.650 252.550 252.750 252.550 H 258.550 C 258.650 252.550 258.550 252.450 258.550 252.550 V 255.450 C 258.550 255.505 258.595 255.550 258.650 255.550 H 264.650 C 264.705 255.550 264.750 255.505 264.750 255.450 V 252.550 C 264.750 252.450 264.650 252.550 264.750 252.550 H 270.550 C 270.650 252.550 270.550 252.450 270.550 252.550 V 255.450 C 270.550 255.505 270.595 255.550 270.650 255.550 H 276.650 C 276.705 255.550 276.750 255.505 276.750 255.450 V 252.550 C 276.750 252.450 276.650 252.550 276.750 252.550 H 282.550 C 282.650 252.550 282.550 252.450 282.550 252.550 V 255.450 C 282.550 255.505 282.595 255.550 282.650 255.550 H 288.650 C 288.705 255.550 288.750 255.505 288.750 255.450 V 252.550 C 288.750 252.450 288.650 252.550 288.750 252.550 H 294.550 C 294.650 252.550 294.550 252.450 294.550 252.550 V 255.450 C 294.550 255.505 294.595 255.550 294.650 255.550 H 300.650 C 300.705 255.550 300.750 255.505 300.750 255.450 V 252.550 C 300.750 252.450 300.650 252.550 300.750 252.550 H 306.550 C 306.650 252.550 306.550 252.450 306.550 252.550 V 255.450 C 306.550 255.505 306.595 255.550 306.650 255.550 H 312.650 C 312.705 255.550 312.750 255.505 312.750 255.450 V 252.550 C 312.750 252.450 312.650 252.550 312.750 252.550 H 318.550 C 318.650 252.550 318.550 252.450 318.550 252.550 V 255.450 C 318.550 255.505 318.595 255.550 318.650 255.550 H 324.650 C 324.705 255.550 324.750 255.505 324.750 255.450 V 252.550 C 324.750 252.450 324.650 252.550 324.750 252.550 H 330.550 C 330.650 252.550 330.550 252.450 330.550 252.550 V 255.450 C 330.550 255.505 330.595 255.550 330.650 255.550 H 336.650 C 336.705 255.550 336.750 255.505 336.750 255.450 V 252.550 C 336.750 252.450 336.650 252.550 336.750 252.550 H 342.550 C 342.650 252.550 342.550 252.450 342.550 252.550 V 255.450 C 342.550 255.505 342.595 255.550 342.650 255.550 H 348.650 C 348.705 255.550 348.750 255.505 348.750 255.450 V 252.550 C 348.750 252.450 348.650 252.550 348.750 252.550 H 354.550 C 354.650 252.550 354.550 252.450 354.550 252.550 V 255.450 C 354.550 255.505 354.595 255.550 354.650 255.550 H 360.650 C 360.705 255.550 360.750 255.505 360.750 255.450 V 252.550 C 360.750 252.450 360.650 252.550 360.750 252.550 H 366.550 C 366.650 252.550 366.550 252.450 366.550 252.550 V 255.450 C 366.550 255.505 366.595 255.550 366.650 255.550 H 372.650 C 372.705 255.550 372.750 255.505 372.750 255.450 V 252.550 C 372.750 252.450 372.650 252.550 372.750 252.550 H 378.550 C 378.650 252.550 378.550 252.450 378.550 252.550 V 255.450 C 378.550 255.505 378.595 255.550 378.650 255.550 H 384.650 C 384.705 255.550 384.750 255.505 384.750 255.450 V 252.550 C 384.750 252.450 384.650 252.550 384.750 252.550 H 390.550 C 390.650 252.550 390.550 252.450 390.550 252.550 V 255.450 C 390.550 255.505 390.595 255.550 390.650 255.550 H 396.650 C 396.705 255.550 396.750 255.505 396.750 255.450 V 252.550 C 396.750 252.450 396.650 252.550 396.750 252.550 H 402.550 C 402.650 252.550 402.550 252.450 402.550 252.550 V 255.450 C 402.550 255.505 402.595 255.550 402.650 255.550 H 408.650 C 408.705 255.550 408.750 255.505 408.750 255.450 V 252.550 C 408.750 252.450 408.650 252.550 408.750 252.550 H 414.550 C 414.650 252.550 414.550 252.450 414.550 252.550 V 255.450 C 414.550 255.505 414.595 255.550 414.650 255.550 H 420.650 C 420.705 255.550 420.750 255.505 420.750 255.450 V 252.550 C 420.750 252.450 420.650 252.550 420.750 252.550 H 427.650 C 427.705 252.550 427.750 252.505 427.750 252.450 V 248.550 C 427.750 248.450 427.650 248.550 427.750 248.550 H 430.650 C 430.705 248.550 430.750 248.505 430.750 248.450 V 242.450 C 430.750 242.395 430.705 242.350 430.650 242.350 H 427.750 C 427.650 242.350 427.750 242.450 427.750 242.350 V 236.550 C 427.750 236.450 427.650 236.550 427.750 236.550 H 430.650 C 430.705 236.550 430.750 236.505 430.750 236.450 V 230.450 C 430.750 230.395 430.705 230.350 430.650 230.350 H 427.750 C 427.650 230.350 427.750 230.450 427.750 230.350 V 224.550 C 427.750 224.450 427.650 224.550 427.750 224.550 H 430.650 C 430.705 224.550 430.750 224.505 430.750 224.450 V 218.450 C 430.750 218.395 430.705 218.350 430.650 218.350 H 427.750 C 427.650 218.350 427.750 218.450 427.750 218.350 V 212.550 C 427.750 212.450 427.650 212.550 427.750 212.550 H 430.650 C 430.705 212.550 430.750 212.505 430.750 212.450 V 206.450 C 430.750 206.395 430.705 206.350 430.650 206.350 H 427.750 C 427.650 206.350 427.750 206.450 427.750 206.350 V 202.450 C 427.750 202.395 427.705 202.350 427.650 202.350 H 420.750 C 420.650 202.350 420.750 202.450 420.750 202.350 V 199.450 C 420.750 199.395 420.705 199.350 420.650 199.350 H 414.650 C 414.595 199.350 414.550 199.395 414.550 199.450 V 202.350 C 414.550 202.450 414.650 202.350 414.550 202.350 H 408.750 C 408.650 202.350 408.750 202.450 408.750 202.350 V 199.450 C 408.750 199.395 408.705 199.350 408.650 199.350 H 402.650 C 402.595 199.350 402.550 199.395 402.550 199.450 V 202.350 C 402.550 202.450 402.650 202.350 402.550 202.350 H 396.750 C 396.650 202.350 396.750 202.450 396.750 202.350 V 199.450 C 396.750 199.395 396.705 199.350 396.650 199.350 H 390.650 C 390.595 199.350 390.550 199.395 390.550 199.450 V 202.350 C 390.550 202.450 390.650 202.350 390.550 202.350 H 384.750 C 384.650 202.350 384.750 202.450 384.750 202.350 V 199.450 C 384.750 199.395 384.705 199.350 384.650 199.350 H 378.650 C 378.595 199.350 378.550 199.395 378.550 199.450 V 202.350 C 378.550 202.450 378.650 202.350 378.550 202.350 H 372.750 C 372.650 202.350 372.750 202.450 372.750 202.350 V 199.450 C 372.750 199.395 372.705 199.350 372.650 199.350 H 366.650 C 366.595 199.350 366.550 199.395 366.550 199.450 V 202.350 C 366.550 202.450 366.650 202.350 366.550 202.350 H 360.750 C 360.650 202.350 360.750 202.450 360.750 202.350 V 199.450 C 360.750 199.395 360.705 199.350 360.650 199.350 H 354.650 C 354.595 199.350 354.550 199.395 354.550 199.450 V 202.350 C 354.550 202.450 354.650 202.350 354.550 202.350 H 348.750 C 348.650 202.350 348.750 202.450 348.750 202.350 V 199.450 C 348.750 199.395 348.705 199.350 348.650 199.350 H 342.650 C 342.595 199.350 342.550 199.395 342.550 199.450 V 202.350 C 342.550 202.450 342.650 202.350 342.550 202.350 H 336.750 C 336.650 202.350 336.750 202.450 336.750 202.350 V 199.450 C 336.750 199.395 336.705 199.350 336.650 199.350 H 330.650 C 330.595 199.350 330.550 199.395 330.550 199.450 V 202.350 C 330.550 202.450 330.650 202.350 330.550 202.350 H 324.750 C 324.650 202.350 324.750 202.450 324.750 202.350 V 199.450 C 324.750 199.395 324.705 199.350 324.650 199.350 H 318.650 C 318.595 199.350 318.550 199.395 318.550 199.450 V 202.350 C 318.550 202.450 318.650 202.350 318.550 202.350 H 312.750 C 312.650 202.350 312.750 202.450 312.750 202.350 V 199.450 C 312.750 199.395 312.705 199.350 312.650 199.350 H 306.650 C 306.595 199.350 306.550 199.395 306.550 199.450 V 202.350 C 306.550 202.450 306.650 202.350 306.550 202.350 H 300.750 C 300.650 202.350 300.750 202.450 300.750 202.350 V 199.450 C 300.750 199.395 300.705 199.350 300.650 199.350 H 294.650 C 294.595 199.350 294.550 199.395 294.550 199.450 V 202.350 C 294.550 202.450 294.650 202.350 294.550 202.350 H 288.750 C 288.650 202.350 288.750 202.450 288.750 202.350 V 199.450 C 288.750 199.395 288.705 199.350 288.650 199.350 H 282.650 C 282.595 199.350 282.550 199.395 282.550 199.450 V 202.350 C 282.550 202.450 282.650 202.350 282.550 202.350 H 276.750 C 276.650 202.350 276.750 202.450 276.750 202.350 V 199.450 C 276.750 199.395 276.705 199.350 276.650 199.350 H 270.650 C 270.595 199.350 270.550 199.395 270.550 199.450 V 202.350 C 270.550 202.450 270.650 202.350 270.550 202.350 H 264.750 C 264.650 202.350 264.750 202.450 264.750 202.350 V 199.450 C 264.750 199.395 264.705 199.350 264.650 199.350 H 258.650 C 258.595 199.350 258.550 199.395 258.550 199.450 V 202.350 C 258.550 202.450 258.650 202.350 258.550 202.350 H 252.750 C 252.650 202.350 252.750 202.450 252.750 202.350 V 199.450 C 252.750 199.395 252.705 199.350 252.650 199.350 H 246.650 C 246.595 199.350 246.550 199.395 246.550 199.450 V 202.350 C 246.550 202.450 246.650 202.350 246.550 202.350 H 240.750 C 240.650 202.350 240.750 202.450 240.750 202.350 V 199.450 C 240.750 199.395 240.705 199.350 240.650 199.350 H 234.650 C 234.595 199.350 234.550 199.395 234.550 199.450 V 202.350 C 234.550 202.450 234.650 202.350 234.550 202.350 H 227.650 C 227.595 202.350 227.550 202.395 227.550 202.450 V 206.350 C 227.550 206.450 227.650 206.350 227.550 206.350 H 224.650 C 224.595 206.350 224.550 206.395 224.550 206.450 V 212.450 C 224.550 212.505 224.595 212.550 224.650 212.550 H 227.550 C 227.650 212.550 227.550 212.450 227.550 212.550 V 218.350 C 227.550 218.450 227.650 218.350 227.550 218.350 H 224.650 C 224.595 218.350 224.550 218.395 224.550 218.450 V 224.450 C 224.550 224.505 224.595 224.550 224.650 224.550 H 227.550 C 227.650 224.550 227.550 224.450 227.550 224.550 V 230.350 C 227.550 230.450 227.650 230.350 227.550 230.350 H 224.650 C 224.595 230.350 224.550 230.395 224.550 230.450 V 236.450 C 224.550 236.505 224.595 236.550 224.650 236.550 H 227.550 C 227.650 236.550 227.550 236.450 227.550 236.550 V 242.350 C 227.550 242.450 227.650 242.350 227.550 242.350 H 224.650 C 224.595 242.350 224.550 242.395 224.550 242.450 V 248.450 C 224.550 248.505 224.595 248.550 224.650 248.550 H 227.550 C 227.650 248.550 227.550 248.450 227.550 248.550 V 252.450 C 227.550 252.505 227.595 252.550 227.650 252.550" stroke="rgb(0,0,0)" stroke-width="0.20" />
</g>
<g id="p-7" style="fill:none;stroke-linecap:round;stroke-linejoin:round;">
  <path d="M 237.650 194.650 H 234.750 C 234.650 194.650 234.750 194.750 234.750 194.650 V 191.850 C 234.750 191.750 234.650 191.850 234.750 191.850 H 240.550 C 240.650 191.850 240.550 191.750 240.550 191.850 V 194.650 C 240.550 194.750 240.650 194.650 240.550 194.650 H 237.650 Z" stroke="rgb(0,0,255)" stroke-width="0.20" />
  <path d="M 249.650 194.650 H 246.750 C 246.650 194.650 246.750 194.750 246.750 194.650 V 191.850 C 246.750 191.750 246.650 191.850 246.750 191.850 H 252.550 C 252.650 191.850 252.550 191.750 252.550 191.850 V 194.650 C 252.550 194.750 252.650 194.650 252.550 194.650 H 249.650 Z" stroke="rgb(0,0,255)" stroke-width="0.20" />
  <path d="M 261.650 194.650 H 258.750 C 258.650 194.650 258.750 194.750 258.750 194.650 V 191.850 C 258.750 191.750 258.650 191.850 258.750 191.850 H 264.550 C 264.650 191.850 264.550 191.750 264.550 191.850 V 194.650 C 264.550 194.750 264.650 194.650 264.550 194.650 H 261.650 Z" stroke="rgb(0,0,255)" stroke-width="0.20" />
  <path d="M 273.650 194.650 H 270.750 C 270.650 194.650 270.750 194.750 270.750 194.650 V 191.850 C 270.750 191.750 270.650 191.850 270.750 191.850 H 276.550 C 276.650 191.850 276.550 191.750 276.550 191.850 V 194.650 C 276.550 194.750 276.650 194.650 276.550 194.650 H 273.650 Z" stroke="rgb(0,0,255)" stroke-width="0.20" />
  <path d="M 285.650 194.650 H 282.750 C 282.650 194.650 282.750 194.750 282.750 194.650 V 191.850 C 282.750 191.750 282.650 191.850 282.750 191.850 H 288.550 C 288.650 191.850 288.550 191.750 288.550 191.850 V 194.650 C 288.550 194.750 288.650 194.650 288.550 194.650 H 285.650 Z" stroke="rgb(0,0,255)" stroke-width="0.20" />
  <path d="M 297.650 194.650 H 294.750 C 294.650 194.650 294.750 194.750 294.750 194.650 V 191.850 C 294.750 191.750 294.650 191.850 294.750 191.850 H 300.550 C 300.650 191.850 300.550 191.750 300.550 191.850 V 194.650 C 300.550 194.750 300.650 194.650 300.550 194.650 H 297.650 Z" stroke="rgb(0,0,255)" stroke-width="0.20" />
  <path d="M 309.650 194.650 H 306.750 C 306.650 194.650 306.750 194.750 306.750 194.650 V 191.850 C 306.750 191.750 306.650 191.850 306.750 191.850 H 312.550 C 312.650 191.850 312.550 191.750 312.550 191.850 V 194.650 C 312.550 194.750 312.650 194.650 312.550 194.650 H 309.650 Z" stroke="rgb(0,0,255)" stroke-width="0.20" />
  <path d="M 321.650 194.650 H 318.750 C 318.650 194.650 318.750 194.750 318.750 194.650 V 191.850 C 318.750 191.750 318.650 191.850 318.750 191.850 H 324.550 C 324.650 191.850 324.550 191.750 324.550 191.850 V 194.650 C 324.550 194.750 324.650 194.650 324.550 194.650 H 321.650 Z" stroke="rgb(0,0,255)" stroke-width="0.20" />
  <path d="M 333.650 194.650 H 330.750 C 330.650 194.650 330.750 194.750 330.750 194.650 V 191.850 C 330.750 191.750 330.650 191.850 330.750 191.850 H 336.550 C 336.650 191.850 336.550 191.750 336.550 191.850 V 194.650 C 336.550 194.750 336.650 194.650 336.550 194.650 H 333.650 Z" stroke="rgb(0,0,255)" stroke-width="0.20" />
  <path d="M 345.650 194.650 H 342.750 C 342.650 194.650 342.750 194.750 342.750 194.650 V 191.850 C 342.750 191.750 342.650 191.850 342.750 191.850 H 348.550 C 348.650 191.850 348.550 191.750 348.550 191.850 V 194.650 C 348.550 194.750 348.650 194.650 348.550 194.650 H 345.650 Z" stroke="rgb(0,0,255)" stroke-width="0.20" />
  <path d="M 357.650 194.650 H 354.750 C 354.650 194.650 354.750 194.750 354.750 194.650 V 191.850 C 354.750 191.750 354.650 191.850 354.750 191.850 H 360.550 C 360.650 191.850 360.550 191.750 360.550 191.850 V 194.650 C 360.550 194.750 360.650 194.650 360.550 194.650 H 357.650 Z" stroke="rgb(0,0,255)" stroke-width="0.20" />
  <path d="M 369.650 194.650 H 366.750 C 366.650 194.650 366.750 194.750 366.750 194.650 V 191.850 C 366.750 191.750 366.650 191.850 366.750 191.850 H 372.550 C 372.650 191.850 372.550 191.750 372.550 191.850 V 194.650 C 372.550 194.750 372.650 194.650 372.550 194.650 H 369.650 Z" stroke="rgb(0,0,255)" stroke-width="0.20" />
  <path d="M 381.650 194.650 H 378.750 C 378.650 194.650 378.750 194.750 378.750 194.650 V 191.850 C 378.750 191.750 378.650 191.850 378.750 191.850 H 384.550 C 384.650 191.850 384.550 191.750 384.550 191.850 V 194.650 C 384.550 194.750 384.650 194.650 384.550 194.650 H 381.650 Z" stroke="rgb(0,0,255)" stroke-width="0.20" />
  <path d="M 393.650 194.650 H 390.750 C 390.650 194.650 390.750 194.750 390.750 194.650 V 191.850 C 390.750 191.750 390.650 191.850 390.750 191.850 H 396.550 C 396.650 191.850 396.550 191.750 396.550 191.850 V 194.650 C 396.550 194.750 396.650 194.650 396.550 194.650 H 393.650 Z" stroke="rgb(0,0,255)" stroke-width="0.20" />
  <path d="M 405.650 194.650 H 402.750 C 402.650 194.650 402.750 194.750 402.750 194.650 V 191.850 C 402.750 191.750 402.650 191.850 402.750 191.850 H 408.550 C 408.650 191.850 408.550 191.750 408.550 191.850 V 194.650 C 408.550 194.750 408.650 194.650 408.550 194.650 H 405.650 Z" stroke="rgb(0,0,255)" stroke-width="0.20" />
  <path d="M 417.650 194.650 H 414.750 C 414.650 194.650 414.750 194.750 414.750 194.650 V 191.850 C 414.750 191.750 414.650 191.850 414.750 191.850 H 420.550 C 420.650 191.850 420.550 191.750 420.550 191.850 V 194.650 C 420.550 194.750 420.650 194.650 420.550 194.650 H 417.650 Z" stroke="rgb(0,0,255)" stroke-width="0.20" />
  <text dominant-baseline="hanging" font-size="4px" style="font-family: sans-serif ; font-weight: normal; font-style: normal; fill: rgb(255,0,0)" text-anchor="middle" transform="matrix( 1.000 0.000 0.000 1.000 327.650 182.850 )">front lip 2</text><path d="M 227.650 197.850 H 427.650 C 427.705 197.850 427.750 197.805 427.750 197.750 V 191.750 V 184.850 C 427.750 184.750 427.650 184.850 427.750 184.850 H 430.650 C 430.705 184.850 430.750 184.805 430.750 184.750 V 178.750 C 430.750 178.695 430.705 178.650 430.650 178.650 H 427.750 C 427.650 178.650 427.750 178.750 427.750 178.650 V 171.750 C 427.750 171.695 427.705 171.650 427.650 171.650 H 227.650 C 227.595 171.650 227.550 171.695 227.550 171.750 V 178.650 C 227.550 178.750 227.650 178.650 227.550 178.650 H 224.650 C 224.595 178.650 224.550 178.695 224.550 178.750 V 184.750 C 224.550 184.805 224.595 184.850 224.650 184.850 H 227.550 C 227.650 184.850 227.550 184.750 227.550 184.850 V 191.750 V 197.750 C 227.550 197.805 227.595 197.850 227.650 197.850" stroke="rgb(0,0,0)" stroke-width="0.20" />
</g>
<g id="p-8" style="fill:none;stroke-linecap:round;stroke-linejoin:round;">
  <path d="M 237.650 166.950 H 234.750 C 234.650 166.950 234.750 167.050 234.750 166.950 V 164.150 C 234.750 164.050 234.650 164.150 234.750 164.150 H 240.550 C 240.650 164.150 240.550 164.050 240.550 164.150 V 166.950 C 240.550 167.050 240.650 166.950 240.550 166.950 H 237.650 Z" stroke="rgb(0,0,255)" stroke-width="0.20" />
  <path d="M 249.650 166.950 H 246.750 C 246.650 166.950 246.750 167.050 246.750 166.950 V 164.150 C 246.750 164.050 246.650 164.150 246.750 164.150 H 252.550 C 252.650 164.150 252.550 164.050 252.550 164.150 V 166.950 C 252.550 167.050 252.650 166.950 252.550 166.950 H 249.650 Z" stroke="rgb(0,0,255)" stroke-width="0.20" />
  <path d="M 261.650 166.950 H 258.750 C 258.650 166.950 258.750 167.050 258.750 166.950 V 164.150 C 258.750 164.050 258.650 164.150 258.750 164.150 H 264.550 C 264.650 164.150 264.550 164.050 264.550 164.150 V 166.950 C 264.550 167.050 264.650 166.950 264.550 166.950 H 261.650 Z" stroke="rgb(0,0,255)" stroke-width="0.20" />
  <path d="M 273.650 166.950 H 270.750 C 270.650 166.950 270.750 167.050 270.750 166.950 V 164.150 C 270.750 164.050 270.650 164.150 270.750 164.150 H 276.550 C 276.650 164.150 276.550 164.050 276.550 164.150 V 166.950 C 276.550 167.050 276.650 166.950 276.550 166.950 H 273.650 Z" stroke="rgb(0,0,255)" stroke-width="0.20" />
  <text dominant-baseline="hanging" font-size="4px" style="font-family: sans-serif ; font-weight: normal; font-style: normal; fill: rgb(255,0,0)" text-anchor="middle" transform="matrix( 1.000 0.000 0.000 1.000 254.150 150.150 )">right lip 2</text><path d="M 230.650 170.150 H 280.650 C 280.705 170.150 280.750 170.105 280.750 170.050 V 164.050 V 158.150 C 280.750 158.050 280.650 158.150 280.750 158.150 H 283.650 C 283.705 158.150 283.750 158.105 283.750 158.050 V 152.050 C 283.750 151.995 283.705 151.950 283.650 151.950 H 280.750 C 280.650 151.950 280.750 152.050 280.750 151.950 V 146.150 C 280.750 146.050 280.650 146.150 280.750 146.150 H 283.650 C 283.705 146.150 283.750 146.105 283.750 146.050 V 140.050 C 283.750 139.995 283.705 139.950 283.650 139.950 H 280.750 C 280.650 139.950 280.750 140.050 280.750 139.950 V 134.050 C 280.750 133.995 280.705 133.950 280.650 133.950 C 280.643 133.950 280.637 133.951 280.630 133.952 L 230.640 143.950 C 230.630 143.952 230.650 143.950 230.640 143.950 H 224.650 C 224.595 143.950 224.550 143.995 224.550 144.050 V 164.050 V 170.050 C 224.550 170.105 224.595 170.150 224.650 170.150 H 230.650" stroke="rgb(0,0,0)" stroke-width="0.20" />
  <path d="M 227.750 154.050 V 151.150 C 227.750 151.050 227.650 151.150 227.750 151.150 H 230.550 C 230.650 151.150 230.550 151.050 230.550 151.150 V 156.950 C 230.550 157.050 230.650 156.950 230.550 156.950 H 227.750 C 227.650 156.950 227.750 157.050 227.750 156.950 V 154.050 Z" stroke="rgb(0,0,255)" stroke-width="0.20" />
</g>
<g id="p-9" style="fill:none;stroke-linecap:round;stroke-linejoin:round;">
  <path d="M 298.350 166.950 H 295.450 C 295.350 166.950 295.450 167.050 295.450 166.950 V 164.150 C 295.450 164.050 295.350 164.150 295.450 164.150 H 301.250 C 301.350 164.150 301.250 164.050 301.250 164.150 V 166.950 C 301.250 167.050 301.350 166.950 301.250 166.950 H 298.350 Z" stroke="rgb(0,0,255)" stroke-width="0.20" />
  <path d="M 310.350 166.950 H 307.450 C 307.350 166.950 307.450 167.050 307.450 166.950 V 164.150 C 307.450 164.050 307.350 164.150 307.450 164.150 H 313.250 C 313.350 164.150 313.250 164.050 313.250 164.150 V 166.950 C 313.250 167.050 313.350 166.950 313.250 166.950 H 310.350 Z" stroke="rgb(0,0,255)" stroke-width="0.20" />
  <path d="M 322.350 166.950 H 319.450 C 319.350 166.950 319.450 167.050 319.450 166.950 V 164.150 C 319.450 164.050 319.350 164.150 319.450 164.150 H 325.250 C 325.350 164.150 325.250 164.050 325.250 164.150 V 166.950 C 325.250 167.050 325.350 166.950 325.250 166.950 H 322.350 Z" stroke="rgb(0,0,255)" stroke-width="0.20" />
  <path d="M 334.350 166.950 H 331.450 C 331.350 166.950 331.450 167.050 331.450 166.950 V 164.150 C 331.450 164.050 331.350 164.150 331.450 164.150 H 337.250 C 337.350 164.150 337.250 164.050 337.250 164.150 V 166.950 C 337.250 167.050 337.350 166.950 337.250 166.950 H 334.350 Z" stroke="rgb(0,0,255)" stroke-width="0.20" />
  <text dominant-baseline="hanging" font-size="4px" style="font-family: sans-serif ; font-weight: normal; font-style: normal; fill: rgb(255,0,0)" text-anchor="middle" transform="matrix( 1.000 0.000 0.000 1.000 314.850 150.150 )">left lip 2</text><path d="M 291.350 170.150 H 341.350 C 341.405 170.150 341.450 170.105 341.450 170.050 V 164.050 V 158.150 C 341.450 158.050 341.350 158.150 341.450 158.150 H 344.350 C 344.405 158.150 344.450 158.105 344.450 158.050 V 152.050 C 344.450 151.995 344.405 151.950 344.350 151.950 H 341.450 C 341.350 151.950 341.450 152.050 341.450 151.950 V 146.150 C 341.450 146.050 341.350 146.150 341.450 146.150 H 344.350 C 344.405 146.150 344.450 146.105 344.450 146.050 V 140.050 C 344.450 139.995 344.405 139.950 344.350 139.950 H 341.450 C 341.350 139.950 341.450 140.050 341.450 139.950 V 134.050 C 341.450 133.995 341.405 133.950 341.350 133.950 C 341.343 133.950 341.337 133.951 341.330 133.952 L 291.340 143.950 C 291.330 143.952 291.350 143.950 291.340 143.950 H 285.350 C 285.295 143.950 285.250 143.995 285.250 144.050 V 164.050 V 170.050 C 285.250 170.105 285.295 170.150 285.350 170.150 H 291.350" stroke="rgb(0,0,0)" stroke-width="0.20" />
  <path d="M 288.450 154.050 V 151.150 C 288.450 151.050 288.350 151.150 288.450 151.150 H 291.250 C 291.350 151.150 291.250 151.050 291.250 151.150 V 156.950 C 291.250 157.050 291.350 156.950 291.250 156.950 H 288.450 C 288.350 156.950 288.450 157.050 288.450 156.950 V 154.050 Z" stroke="rgb(0,0,255)" stroke-width="0.20" />
</g>
<g id="p-10" style="fill:none;stroke-linecap:round;stroke-linejoin:round;">
  <text dominant-baseline="hanging" font-size="4px" style="font-family: sans-serif ; font-weight: normal; font-style: normal; fill: rgb(255,0,0)" text-anchor="middle" transform="matrix( 1.000 0.000 0.000 1.000 331.500 101.600 )">shelf 3</text><path d="M 231.500 128.600 H 238.400 C 238.500 128.600 238.400 128.500 238.400 128.600 V 131.500 C 238.400 131.555 238.445 131.600 238.500 131.600 H 244.500 C 244.555 131.600 244.600 131.555 244.600 131.500 V 128.600 C 244.600 128.500 244.500 128.600 244.600 128.600 H 250.400 C 250.500 128.600 250.400 128.500 250.400 128.600 V 131.500 C 250.400 131.555 250.445 131.600 250.500 131.600 H 256.500 C 256.555 131.600 256.600 131.555 256.600 131.500 V 128.600 C 256.600 128.500 256.500 128.600 256.600 128.600 H 262.400 C 262.500 128.600 262.400 128.500 262.400 128.600 V 131.500 C 262.400 131.555 262.445 131.600 262.500 131.600 H 268.500 C 268.555 131.600 268.600 131.555 268.600 131.500 V 128.600 C 268.600 128.500 268.500 128.600 268.600 128.600 H 274.400 C 274.500 128.600 274.400 128.500 274.400 128.600 V 131.500 C 274.400 131.555 274.445 131.600 274.500 131.600 H 280.500 C 280.555 131.600 280.600 131.555 280.600 131.500 V 128.600 C 280.600 128.500 280.500 128.600 280.600 128.600 H 286.400 C 286.500 128.600 286.400 128.500 286.400 128.600 V 131.500 C 286.400 131.555 286.445 131.600 286.500 131.600 H 292.500 C 292.555 131.600 292.600 131.555 292.600 131.500 V 128.600 C 292.600 128.500 292.500 128.600 292.600 128.600 H 298.400 C 298.500 128.600 298.400 128.500 298.400 128.600 V 131.500 C 298.400 131.555 298.445 131.600 298.500 131.600 H 304.500 C 304.555 131.600 304.600 131.555 304.600 131.500 V 128.600 C 304.600 128.500 304.500 128.600 304.600 128.600 H 310.400 C 310.500 128.600 310.400 128.500 310.400 128.600 V 131.500 C 310.400 131.555 310.445 131.600 310.500 131.600 H 316.500 C 316.555 131.600 316.600 131.555 316.600 131.500 V 128.600 C 316.600 128.500 316.500 128.600 316.600 128.600 H 322.400 C 322.500 128.600 322.400 128.500 322.400 128.600 V 131.500 C 322.400 131.555 322.445 131.600 322.500 131.600 H 328.500 C 328.555 131.600 328.600 131.555 328.600 131.500 V 128.600 C 328.600 128.500 328.500 128.600 328.600 128.600 H 334.400 C 334.500 128.600 334.400 128.500 334.400 128.600 V 131.500 C 334.400 131.555 334.445 131.600 334.500 131.600 H 340.500 C 340.555 131.600 340.600 131.555 340.600 131.500 V 128.600 C 340.600 128.500 340.500 128.600 340.600 128.600 H 346.400 C 346.500 128.600 346.400 128.500 346.400 128.600 V 131.500 C 346.400 131.555 346.445 131.600 346.500 131.600 H 352.500 C 352.555 131.600 352.600 131.555 352.600 131.500 V 128.600 C 352.600 128.500 352.500 128.600 352.600 128.600 H 358.400 C 358.500 128.600 358.400 128.500 358.400 128.600 V 131.500 C 358.400 131.555 358.445 131.600 358.500 131.600 H 364.500 C 364.555 131.600 364.600 131.555 364.600 131.500 V 128.600 C 364.600 128.500 364.500 128.600 364.600 128.600 H 370.400 C 370.500 128.600 370.400 128.500 370.400 128.600 V 131.500 C 370.400 131.555 370.445 131.600 370.500 131.600 H 376.500 C 376.555 131.600 376.600 131.555 376.600 131.500 V 128.600 C 376.600 128.500 376.500 128.600 376.600 128.600 H 382.400 C 382.500 128.600 382.400 128.500 382.400 128.600 V 131.500 C 382.400 131.555 382.445 131.600 382.500 131.600 H 388.500 C 388.555 131.600 388.600 131.555 388.600 131.500 V 128.600 C 388.600 128.500 388.500 128.600 388.600 128.600 H 394.400 C 394.500 128.600 394.400 128.500 394.400 128.600 V 131.500 C 394.400 131.555 394.445 131.600 394.500 131.600 H 400.500 C 400.555 131.600 400.600 131.555 400.600 131.500 V 128.600 C 400.600 128.500 400.500 128.600 400.600 128.600 H 406.400 C 406.500 128.600 406.400 128.500 406.400 128.600 V 131.500 C 406.400 131.555 406.445 131.600 406.500 131.600 H 412.500 C 412.555 131.600 412.600 131.555 412.600 131.500 V 128.600 C 412.600 128.500 412.500 128.600 412.600 128.600 H 418.400 C 418.500 128.600 418.400 128.500 418.400 128.600 V 131.500 C 418.400 131.555 418.445 131.600 418.500 131.600 H 424.500 C 424.555 131.600 424.600 131.555 424.600 131.500 V 128.600 C 424.600 128.500 424.500 128.600 424.600 128.600 H 431.500 C 431.555 128.600 431.600 128.555 431.600 128.500 V 124.600 C 431.600 124.500 431.500 124.600 431.600 124.600 H 434.500 C 434.555 124.600 434.600 124.555 434.600 124.500 V 118.500 C 434.600 118.445 434.555 118.400 434.500 118.400 H 431.600 C 431.500 118.400 431.600 118.500 431.600 118.400 V 112.600 C 431.600 112.500 431.500 112.600 431.600 112.600 H 434.500 C 434.555 112.600 434.600 112.555 434.600 112.500 V 106.500 C 434.600 106.445 434.555 106.400 434.500 106.400 H 431.600 C 431.500 106.400 431.600 106.500 431.600 106.400 V 100.600 C 431.600 100.500 431.500 100.600 431.600 100.600 H 434.500 C 434.555 100.600 434.600 100.555 434.600 100.500 V 94.500 C 434.600 94.445 434.555 94.400 434.500 94.400 H 431.600 C 431.500 94.400 431.600 94.500 431.600 94.400 V 88.600 C 431.600 88.500 431.500 88.600 431.600 88.600 H 434.500 C 434.555 88.600 434.600 88.555 434.600 88.500 V 82.500 C 434.600 82.445 434.555 82.400 434.500 82.400 H 431.600 C 431.500 82.400 431.600 82.500 431.600 82.400 V 78.500 C 431.600 78.445 431.555 78.400 431.500 78.400 H 424.600 C 424.500 78.400 424.600 78.500 424.600 78.400 V 75.500 C 424.600 75.445 424.555 75.400 424.500 75.400 H 418.500 C 418.445 75.400 418.400 75.445 418.400 75.500 V 78.400 C 418.400 78.500 418.500 78.400 418.400 78.400 H 412.600 C 412.500 78.400 412.600 78.500 412.600 78.400 V 75.500 C 412.600 75.445 412.555 75.400 412.500 75.400 H 406.500 C 406.445 75.400 406.400 75.445 406.400 75.500 V 78.400 C 406.400 78.500 406.500 78.400 406.400 78.400 H 400.600 C 400.500 78.400 400.600 78.500 400.600 78.400 V 75.500 C 400.600 75.445 400.555 75.400 400.500 75.400 H 394.500 C 394.445 75.400 394.400 75.445 394.400 75.500 V 78.400 C 394.400 78.500 394.500 78.400 394.400 78.400 H 388.600 C 388.500 78.400 388.600 78.500 388.600 78.400 V 75.500 C 388.600 75.445 388.555 75.400 388.500 75.400 H 382.500 C 382.445 75.400 382.400 75.445 382.400 75.500 V 78.400 C 382.400 78.500 382.500 78.400 382.400 78.400 H 376.600 C 376.500 78.400 376.600 78.500 376.600 78.400 V 75.500 C 376.600 75.445 376.555 75.400 376.500 75.400 H 370.500 C 370.445 75.400 370.400 75.445 370.400 75.500 V 78.400 C 370.400 78.500 370.500 78.400 370.400 78.400 H 364.600 C 364.500 78.400 364.600 78.500 364.600 78.400 V 75.500 C 364.600 75.445 364.555 75.400 364.500 75.400 H 358.500 C 358.445 75.400 358.400 75.445 358.400 75.500 V 78.400 C 358.400 78.500 358.500 78.400 358.400 78.400 H 352.600 C 352.500 78.400 352.600 78.500 352.600 78.400 V 75.500 C 352.600 75.445 352.555 75.400 352.500 75.400 H 346.500 C 346.445 75.400 346.400 75.445 346.400 75.500 V 78.400 C 346.400 78.500 346.500 78.400 346.400 78.400 H 340.600 C 340.500 78.400 340.600 78.500 340.600 78.400 V 75.500 C 340.600 75.445 340.555 75.400 340.500 75.400 H 334.500 C 334.445 75.400 334.400 75.445 334.400 75.500 V 78.400 C 334.400 78.500 334.500 78.400 334.400 78.400 H 328.600 C 328.500 78.400 328.600 78.500 328.600 78.400 V 75.500 C 328.600 75.445 328.555 75.400 328.500 75.400 H 322.500 C 322.445 75.400 322.400 75.445 322.400 75.500 V 78.400 C 322.400 78.500 322.500 78.400 322.400 78.400 H 316.600 C 316.500 78.400 316.600 78.500 316.600 78.400 V 75.500 C 316.600 75.445 316.555 75.400 316.500 75.400 H 310.500 C 310.445 75.400 310.400 75.445 310.400 75.500 V 78.400 C 310.400 78.500 310.500 78.400 310.400 78.400 H 304.600 C 304.500 78.400 304.600 78.500 304.600 78.400 V 75.500 C 304.600 75.445 304.555 75.400 304.500 75.400 H 298.500 C 298.445 75.400 298.400 75.445 298.400 75.500 V 78.400 C 298.400 78.500 298.500 78.400 298.400 78.400 H 292.600 C 292.500 78.400 292.600 78.500 292.600 78.400 V 75.500 C 292.600 75.445 292.555 75.400 292.500 75.400 H 286.500 C 286.445 75.400 286.400 75.445 286.400 75.500 V 78.400 C 286.400 78.500 286.500 78.400 286.400 78.400 H 280.600 C 280.500 78.400 280.600 78.500 280.600 78.400 V 75.500 C 280.600 75.445 280.555 75.400 280.500 75.400 H 274.500 C 274.445 75.400 274.400 75.445 274.400 75.500 V 78.400 C 274.400 78.500 274.500 78.400 274.400 78.400 H 268.600 C 268.500 78.400 268.600 78.500 268.600 78.400 V 75.500 C 268.600 75.445 268.555 75.400 268.500 75.400 H 262.500 C 262.445 75.400 262.400 75.445 262.400 75.500 V 78.400 C 262.400 78.500 262.500 78.400 262.400 78.400 H 256.600 C 256.500 78.400 256.600 78.500 256.600 78.400 V 75.500 C 256.600 75.445 256.555 75.400 256.500 75.400 H 250.500 C 250.445 75.400 250.400 75.445 250.400 75.500 V 78.400 C 250.400 78.500 250.500 78.400 250.400 78.400 H 244.600 C 244.500 78.400 244.600 78.500 244.600 78.400 V 75.500 C 244.600 75.445 244.555 75.400 244.500 75.400 H 238.500 C 238.445 75.400 238.400 75.445 238.400 75.500 V 78.400 C 238.400 78.500 238.500 78.400 238.400 78.400 H 231.500 C 231.445 78.400 231.400 78.445 231.400 78.500 V 82.400 C 231.400 82.500 231.500 82.400 231.400 82.400 H 228.500 C 228.445 82.400 228.400 82.445 228.400 82.500 V 88.500 C 228.400 88.555 228.445 88.600 228.500 88.600 H 231.400 C 231.500 88.600 231.400 88.500 231.400 88.600 V 94.400 C 231.400 94.500 231.500 94.400 231.400 94.400 H 228.500 C 228.445 94.400 228.400 94.445 228.400 94.500 V 100.500 C 228.400 100.555 228.445 100.600 228.500 100.600 H 231.400 C 231.500 100.600 231.400 100.500 231.400 100.600 V 106.400 C 231.400 106.500 231.500 106.400 231.400 106.400 H 228.500 C 228.445 106.400 228.400 106.445 228.400 106.500 V 112.500 C 228.400 112.555 228.445 112.600 228.500 112.600 H 231.400 C 231.500 112.600 231.400 112.500 231.400 112.600 V 118.400 C 231.400 118.500 231.500 118.400 231.400 118.400 H 228.500 C 228.445 118.400 228.400 118.445 228.400 118.500 V 124.500 C 228.400 124.555 228.445 124.600 228.500 124.600 H 231.400 C 231.500 124.600 231.400 124.500 231.400 124.600 V 128.500 C 231.400 128.555 231.445 128.600 231.500 128.600" stroke="rgb(0,0,0)" stroke-width="0.20" />
</g>
<g id="p-11" style="fill:none;stroke-linecap:round;stroke-linejoin:round;">
  <path d="M 241.500 70.700 H 238.600 C 238.500 70.700 238.600 70.800 238.600 70.700 V 67.900 C 238.600 67.800 238.500 67.900 238.600 67.900 H 244.400 C 244.500 67.900 244.400 67.800 244.400 67.900 V 70.700 C 244.400 70.800 244.500 70.700 244.400 70.700 H 241.500 Z" stroke="rgb(0,0,255)" stroke-width="0.20" />
  <path d="M 253.500 70.700 H 250.600 C 250.500 70.700 250.600 70.800 250.600 70.700 V 67.900 C 250.600 67.800 250.500 67.900 250.600 67.900 H 256.400 C 256.500 67.900 256.400 67.800 256.400 67.900 V 70.700 C 256.400 70.800 256.500 70.700 256.400 70.700 H 253.500 Z" stroke="rgb(0,0,255)" stroke-width="0.20" />
  <path d="M 265.500 70.700 H 262.600 C 262.500 70.700 262.600 70.800 262.600 70.700 V 67.900 C 262.600 67.800 262.500 67.900 262.600 67.900 H 268.400 C 268.500 67.900 268.400 67.800 268.400 67.900 V 70.700 C 268.400 70.800 268.500 70.700 268.400 70.700 H 265.500 Z" stroke="rgb(0,0,255)" stroke-width="0.20" />
  <path d="M 277.500 70.700 H 274.600 C 274.500 70.700 274.600 70.800 274.600 70.700 V 67.900 C 274.600 67.800 274.500 67.900 274.600 67.900 H 280.400 C 280.500 67.900 280.400 67.800 280.400 67.900 V 70.700 C 280.400 70.800 280.500 70.700 280.400 70.700 H 277.500 Z" stroke="rgb(0,0,255)" stroke-width="0.20" />
  <path d="M 289.500 70.700 H 286.600 C 286.500 70.700 286.600 70.800 286.600 70.700 V 67.900 C 286.600 67.800 286.500 67.900 286.600 67.900 H 292.400 C 292.500 67.900 292.400 67.800 292.400 67.900 V 70.700 C 292.400 70.800 292.500 70.700 292.400 70.700 H 289.500 Z" stroke="rgb(0,0,255)" stroke-width="0.20" />
  <path d="M 301.500 70.700 H 298.600 C 298.500 70.700 298.600 70.800 298.600 70.700 V 67.900 C 298.600 67.800 298.500 67.900 298.600 67.900 H 304.400 C 304.500 67.900 304.400 67.800 304.400 67.900 V 70.700 C 304.400 70.800 304.500 70.700 304.400 70.700 H 301.500 Z" stroke="rgb(0,0,255)" stroke-width="0.20" />
  <path d="M 313.500 70.700 H 310.600 C 310.500 70.700 310.600 70.800 310.600 70.700 V 67.900 C 310.600 67.800 310.500 67.900 310.600 67.900 H 316.400 C 316.500 67.900 316.400 67.800 316.400 67.900 V 70.700 C 316.400 70.800 316.500 70.700 316.400 70.700 H 313.500 Z" stroke="rgb(0,0,255)" stroke-width="0.20" />
  <path d="M 325.500 70.700 H 322.600 C 322.500 70.700 322.600 70.800 322.600 70.700 V 67.900 C 322.600 67.800 322.500 67.900 322.600 67.900 H 328.400 C 328.500 67.900 328.400 67.800 328.400 67.900 V 70.700 C 328.400 70.800 328.500 70.700 328.400 70.700 H 325.500 Z" stroke="rgb(0,0,255)" stroke-width="0.20" />
  <path d="M 337.500 70.700 H 334.600 C 334.500 70.700 334.600 70.800 334.600 70.700 V 67.900 C 334.600 67.800 334.500 67.900 334.600 67.900 H 340.400 C 340.500 67.900 340.400 67.800 340.400 67.900 V 70.700 C 340.400 70.800 340.500 70.700 340.400 70.700 H 337.500 Z" stroke="rgb(0,0,255)" stroke-width="0.20" />
  <path d="M 349.500 70.700 H 346.600 C 346.500 70.700 346.600 70.800 346.600 70.700 V 67.900 C 346.600 67.800 346.500 67.900 346.600 67.900 H 352.400 C 352.500 67.900 352.400 67.800 352.400 67.900 V 70.700 C 352.400 70.800 352.500 70.700 352.400 70.700 H 349.500 Z" stroke="rgb(0,0,255)" stroke-width="0.20" />
  <path d="M 361.500 70.700 H 358.600 C 358.500 70.700 358.600 70.800 358.600 70.700 V 67.900 C 358.600 67.800 358.500 67.900 358.600 67.900 H 364.400 C 364.500 67.900 364.400 67.800 364.400 67.900 V 70.700 C 364.400 70.800 364.500 70.700 364.400 70.700 H 361.500 Z" stroke="rgb(0,0,255)" stroke-width="0.20" />
  <path d="M 373.500 70.700 H 370.600 C 370.500 70.700 370.600 70.800 370.600 70.700 V 67.900 C 370.600 67.800 370.500 67.900 370.600 67.900 H 376.400 C 376.500 67.900 376.400 67.800 376.400 67.900 V 70.700 C 376.400 70.800 376.500 70.700 376.400 70.700 H 373.500 Z" stroke="rgb(0,0,255)" stroke-width="0.20" />
  <path d="M 385.500 70.700 H 382.600 C 382.500 70.700 382.600 70.800 382.600 70.700 V 67.900 C 382.600 67.800 382.500 67.900 382.600 67.900 H 388.400 C 388.500 67.900 388.400 67.800 388.400 67.900 V 70.700 C 388.400 70.800 388.500 70.700 388.400 70.700 H 385.500 Z" stroke="rgb(0,0,255)" stroke-width="0.20" />
  <path d="M 397.500 70.700 H 394.600 C 394.500 70.700 394.600 70.800 394.600 70.700 V 67.900 C 394.600 67.800 394.500 67.900 394.600 67.900 H 400.400 C 400.500 67.900 400.400 67.800 400.400 67.900 V 70.700 C 400.400 70.800 400.500 70.700 400.400 70.700 H 397.500 Z" stroke="rgb(0,0,255)" stroke-width="0.20" />
  <path d="M 409.500 70.700 H 406.600 C 406.500 70.700 406.600 70.800 406.600 70.700 V 67.900 C 406.600 67.800 406.500 67.900 406.600 67.900 H 412.400 C 412.500 67.900 412.400 67.800 412.400 67.900 V 70.700 C 412.400 70.800 412.500 70.700 412.400 70.700 H 409.500 Z" stroke="rgb(0,0,255)" stroke-width="0.20" />
  <path d="M 421.500 70.700 H 418.600 C 418.500 70.700 418.600 70.800 418.600 70.700 V 67.900 C 418.600 67.800 418.500 67.900 418.600 67.900 H 424.400 C 424.500 67.900 424.400 67.800 424.400 67.900 V 70.700 C 424.400 70.800 424.500 70.700 424.400 70.700 H 421.500 Z" stroke="rgb(0,0,255)" stroke-width="0.20" />
  <text dominant-baseline="hanging" font-size="4px" style="font-family: sans-serif ; font-weight: normal; font-style: normal; fill: rgb(255,0,0)" text-anchor="middle" transform="matrix( 1.000 0.000 0.000 1.000 331.500 58.900 )">front lip 3</text><path d="M 231.500 73.900 H 431.500 C 431.555 73.900 431.600 73.855 431.600 73.800 V 67.800 V 60.900 C 431.600 60.800 431.500 60.900 431.600 60.900 H 434.500 C 434.555 60.900 434.600 60.855 434.600 60.800 V 54.800 C 434.600 54.745 434.555 54.700 434.500 54.700 H 431.600 C 431.500 54.700 431.600 54.800 431.600 54.700 V 47.800 C 431.600 47.745 431.555 47.700 431.500 47.700 H 231.500 C 231.445 47.700 231.400 47.745 231.400 47.800 V 54.700 C 231.400 54.800 231.500 54.700 231.400 54.700 H 228.500 C 228.445 54.700 228.400 54.745 228.400 54.800 V 60.800 C 228.400 60.855 228.445 60.900 228.500 60.900 H 231.400 C 231.500 60.900 231.400 60.800 231.400 60.900 V 67.800 V 73.800 C 231.400 73.855 231.445 73.900 231.500 73.900" stroke="rgb(0,0,0)" stroke-width="0.20" />
</g>
<g id="p-12" style="fill:none;stroke-linecap:round;stroke-linejoin:round;">
  <path d="M 241.500 43.000 H 238.600 C 238.500 43.000 238.600 43.100 238.600 43.000 V 40.200 C 238.600 40.100 238.500 40.200 238.600 40.200 H 244.400 C 244.500 40.200 244.400 40.100 244.400 40.200 V 43.000 C 244.400 43.100 244.500 43.000 244.400 43.000 H 241.500 Z" stroke="rgb(0,0,255)" stroke-width="0.20" />
  <path d="M 253.500 43.000 H 250.600 C 250.500 43.000 250.600 43.100 250.600 43.000 V 40.200 C 250.600 40.100 250.500 40.200 250.600 40.200 H 256.400 C 256.500 40.200 256.400 40.100 256.400 40.200 V 43.000 C 256.400 43.100 256.500 43.000 256.400 43.000 H 253.500 Z" stroke="rgb(0,0,255)" stroke-width="0.20" />
  <path d="M 265.500 43.000 H 262.600 C 262.500 43.000 262.600 43.100 262.600 43.000 V 40.200 C 262.600 40.100 262.500 40.200 262.600 40.200 H 268.400 C 268.500 40.200 268.400 40.100 268.400 40.200 V 43.000 C 268.400 43.100 268.500 43.000 268.400 43.000 H 265.500 Z" stroke="rgb(0,0,255)" stroke-width="0.20" />
  <path d="M 277.500 43.000 H 274.600 C 274.500 43.000 274.600 43.100 274.600 43.000 V 40.200 C 274.600 40.100 274.500 40.200 274.600 40.200 H 280.400 C 280.500 40.200 280.400 40.100 280.400 40.200 V 43.000 C 280.400 43.100 280.500 43.000 280.400 43.000 H 277.500 Z" stroke="rgb(0,0,255)" stroke-width="0.20" />
  <text dominant-baseline="hanging" font-size="4px" style="font-family: sans-serif ; font-weight: normal; font-style: normal; fill: rgb(255,0,0)" text-anchor="middle" transform="matrix( 1.000 0.000 0.000 1.000 258.000 26.200 )">right lip 3</text><path d="M 234.500 46.200 H 284.500 C 284.555 46.200 284.600 46.155 284.600 46.100 V 40.100 V 34.200 C 284.600 34.100 284.500 34.200 284.600 34.200 H 287.500 C 287.555 34.200 287.600 34.155 287.600 34.100 V 28.100 C 287.600 28.045 287.555 28.000 287.500 28.000 H 284.600 C 284.500 28.000 284.600 28.100 284.600 28.000 V 22.200 C 284.600 22.100 284.500 22.200 284.600 22.200 H 287.500 C 287.555 22.200 287.600 22.155 287.600 22.100 V 16.100 C 287.600 16.045 287.555 16.000 287.500 16.000 H 284.600 C 284.500 16.000 284.600 16.100 284.600 16.000 V 10.100 C 284.600 10.045 284.555 10.000 284.500 10.000 C 284.493 10.000 284.487 10.001 284.480 10.002 L 234.490 20.000 C 234.480 20.002 234.500 20.000 234.490 20.000 H 228.500 C 228.445 20.000 228.400 20.045 228.400 20.100 V 40.100 V 46.100 C 228.400 46.155 228.445 46.200 228.500 46.200 H 234.500" stroke="rgb(0,0,0)" stroke-width="0.20" />
  <path d="M 231.600 30.100 V 27.200 C 231.600 27.100 231.500 27.200 231.600 27.200 H 234.400 C 234.500 27.200 234.400 27.100 234.400 27.200 V 33.000 C 234.400 33.100 234.500 33.000 234.400 33.000 H 231.600 C 231.500 33.000 231.600 33.100 231.600 33.000 V 30.100 Z" stroke="rgb(0,0,255)" stroke-width="0.20" />
</g>
<g id="p-13" style="fill:none;stroke-linecap:round;stroke-linejoin:round;">
  <path d="M 302.200 43.000 H 299.300 C 299.200 43.000 299.300 43.100 299.300 43.000 V 40.200 C 299.300 40.100 299.200 40.200 299.300 40.200 H 305.100 C 305.200 40.200 305.100 40.100 305.100 40.200 V 43.000 C 305.100 43.100 305.200 43.000 305.100 43.000 H 302.200 Z" stroke="rgb(0,0,255)" stroke-width="0.20" />
  <path d="M 314.200 43.000 H 311.300 C 311.200 43.000 311.300 43.100 311.300 43.000 V 40.200 C 311.300 40.100 311.200 40.200 311.300 40.200 H 317.100 C 317.200 40.200 317.100 40.100 317.100 40.200 V 43.000 C 317.100 43.100 317.200 43.000 317.100 43.000 H 314.200 Z" stroke="rgb(0,0,255)" stroke-width="0.20" />
  <path d="M 326.200 43.000 H 323.300 C 323.200 43.000 323.300 43.100 323.300 43.000 V 40.200 C 323.300 40.100 323.200 40.200 323.300 40.200 H 329.100 C 329.200 40.200 329.100 40.100 329.100 40.200 V 43.000 C 329.100 43.100 329.200 43.000 329.100 43.000 H 326.200 Z" stroke="rgb(0,0,255)" stroke-width="0.20" />
  <path d="M 338.200 43.000 H 335.300 C 335.200 43.000 335.300 43.100 335.300 43.000 V 40.200 C 335.300 40.100 335.200 40.200 335.300 40.200 H 341.100 C 341.200 40.200 341.100 40.100 341.100 40.200 V 43.000 C 341.100 43.100 341.200 43.000 341.100 43.000 H 338.200 Z" stroke="rgb(0,0,255)" stroke-width="0.20" />
  <text dominant-baseline="hanging" font-size="4px" style="font-family: sans-serif ; font-weight: normal; font-style: normal; fill: rgb(255,0,0)" text-anchor="middle" transform="matrix( 1.000 0.000 0.000 1.000 318.700 26.200 )">left lip 3</text><path d="M 295.200 46.200 H 345.200 C 345.255 46.200 345.300 46.155 345.300 46.100 V 40.100 V 34.200 C 345.300 34.100 345.200 34.200 345.300 34.200 H 348.200 C 348.255 34.200 348.300 34.155 348.300 34.100 V 28.100 C 348.300 28.045 348.255 28.000 348.200 28.000 H 345.300 C 345.200 28.000 345.300 28.100 345.300 28.000 V 22.200 C 345.300 22.100 345.200 22.200 345.300 22.200 H 348.200 C 348.255 22.200 348.300 22.155 348.300 22.100 V 16.100 C 348.300 16.045 348.255 16.000 348.200 16.000 H 345.300 C 345.200 16.000 345.300 16.100 345.300 16.000 V 10.100 C 345.300 10.045 345.255 10.000 345.200 10.000 C 345.193 10.000 345.187 10.001 345.180 10.002 L 295.190 20.000 C 295.180 20.002 295.200 20.000 295.190 20.000 H 289.200 C 289.145 20.000 289.100 20.045 289.100 20.100 V 40.100 V 46.100 C 289.100 46.155 289.145 46.200 289.200 46.200 H 295.200" stroke="rgb(0,0,0)" stroke-width="0.20" />
  <path d="M 292.300 30.100 V 27.200 C 292.300 27.100 292.200 27.200 292.300 27.200 H 295.100 C 295.200 27.200 295.100 27.100 295.100 27.200 V 33.000 C 295.100 33.100 295.200 33.000 295.100 33.000 H 292.300 C 292.200 33.000 292.300 33.100 292.300 33.000 V 30.100 Z" stroke="rgb(0,0,255)" stroke-width="0.20" />
</g>
</svg>