<?xml version='1.0' encoding='utf-8'?>
<svg height="176.90mm" viewBox="0.0 0.0 228.00 176.90" width="228.00mm" xmlns="http://www.w3.org/2000/svg" xmlns:cc="http://creativecommons.org/ns#" xmlns:dc="http://purl.org/dc/elements/1.1/" xmlns:inkscape="http://www.inkscape.org/namespaces/inkscape" xmlns:rdf="http://www.w3.org/1999/02/22-rdf-syntax-ns#" xmlns:svg="http://www.w3.org/2000/svg" xmlns:xlink="http://www.w3.org/1999/xlink">
<!--
WallEdges - Shows the different edge types for wall systems

Created with Boxes.py (https://festi.info/boxes.py)
Command line (remove spaces between dashes): boxes WallEdges
-->
<title>WallEdges</title>
<metadata>
<rdf:RDF><cc:Work>
<dc:title>WallMounted - WallEdges</dc:title>
<dc:source>boxes WallEdges</dc:source>
<dc:description>Shows the different edge types for wall systems

Created with Boxes.py (https://festi.info/boxes.py)
Command line: boxes WallEdges
Command line short: boxes WallEdges
</dc:description>
</cc:Work></rdf:RDF></metadata>
<g id="p-0" style="fill:none;stroke-linecap:round;stroke-linejoin:round;">
  <path d="M 18.800 166.900 H 118.800 V 156.900 H 18.800 V 166.900 Z" stroke="rgb(0,0,0)" stroke-width="0.20" />
  <text dominant-baseline="hanging" font-size="8px" style="font-family: sans-serif ; font-weight: normal; font-style: normal; fill: rgb(255,0,0)" text-anchor="middle" transform="matrix( 1.000 0.000 0.000 1.000 68.800 157.900 )">100.00mm, burn:0.10mm</text>
</g>
<g id="p-1" style="fill:none;stroke-linecap:round;stroke-linejoin:round;">
  <text dominant-baseline="hanging" font-size="10px" style="font-family: sans-serif ; font-weight: normal; font-style: normal; fill: rgb(0,0,0)" text-anchor="left" transform="matrix( 1.000 0.000 0.000 1.000 18.800 140.100 )">a</text><text dominant-baseline="hanging" font-size="10px" style="font-family: sans-serif ; font-weight: normal; font-style: normal; fill: rgb(0,0,0)" text-anchor="left" transform="matrix( 1.000 0.000 0.000 1.000 48.800 140.100 )">A</text><path d="M 18.800 130.200 H 58.800 C 58.855 130.200 58.900 130.155 58.900 130.100 V 10.100 C 58.900 10.045 58.855 10.000 58.800 10.000 H 18.800 C 18.745 10.000 18.700 10.045 18.700 10.100 V 130.100 C 18.700 130.155 18.745 130.200 18.800 130.200 Z" stroke="rgb(0,0,0)" stroke-width="0.20" />
</g>
<g id="p-2" style="fill:none;stroke-linecap:round;stroke-linejoin:round;">
  <text dominant-baseline="hanging" font-size="10px" style="font-family: sans-serif ; font-weight: normal; font-style: normal; fill: rgb(0,0,0)" text-anchor="left" transform="matrix( 1.000 0.000 0.000 1.000 63.500 140.100 )">b</text><text dominant-baseline="hanging" font-size="10px" style="font-family: sans-serif ; font-weight: normal; font-style: normal; fill: rgb(0,0,0)" text-anchor="left" transform="matrix( 1.000 0.000 0.000 1.000 93.500 140.100 )">B</text><path d="M 63.500 130.200 H 103.500 H 106.500 C 106.555 130.200 106.600 130.155 106.600 130.100 C 106.600 130.045 106.555 130.000 106.500 130.000 H 103.600 C 103.500 130.000 103.600 130.100 103.600 130.000 V 121.200 C 103.600 121.100 103.500 121.200 103.600 121.200 H 106.500 C 106.555 121.200 106.600 121.155 106.600 121.100 V 115.100 C 106.600 115.045 106.555 115.000 106.500 115.000 H 103.600 C 103.500 115.000 103.600 115.100 103.600 115.000 V 109.200 C 103.600 109.100 103.500 109.200 103.600 109.200 H 106.500 C 106.555 109.200 106.600 109.155 106.600 109.100 V 103.100 C 106.600 103.045 106.555 103.000 106.500 103.000 H 103.600 C 103.500 103.000 103.600 103.100 103.600 103.000 V 97.200 C 103.600 97.100 103.500 97.200 103.600 97.200 H 106.500 C 106.555 97.200 106.600 97.155 106.600 97.100 V 91.100 C 106.600 91.045 106.555 91.000 106.500 91.000 H 103.600 C 103.500 91.000 103.600 91.100 103.600 91.000 V 85.200 C 103.600 85.100 103.500 85.200 103.600 85.200 H 106.500 C 106.555 85.200 106.600 85.155 106.600 85.100 V 79.100 C 106.600 79.045 106.555 79.000 106.500 79.000 H 103.600 C 103.500 79.000 103.600 79.100 103.600 79.000 V 73.200 C 103.600 73.100 103.500 73.200 103.600 73.200 H 106.500 C 106.555 73.200 106.600 73.155 106.600 73.100 V 67.100 C 106.600 67.045 106.555 67.000 106.500 67.000 H 103.600 C 103.500 67.000 103.600 67.100 103.600 67.000 V 61.200 C 103.600 61.100 103.500 61.200 103.600 61.200 H 106.500 C 106.555 61.200 106.600 61.155 106.600 61.100 V 55.100 C 106.600 55.045 106.555 55.000 106.500 55.000 H 103.600 C 103.500 55.000 103.600 55.100 103.600 55.000 V 49.200 C 103.600 49.100 103.500 49.200 103.600 49.200 H 106.500 C 106.555 49.200 106.600 49.155 106.600 49.100 V 43.100 C 106.600 43.045 106.555 43.000 106.500 43.000 H 103.600 C 103.500 43.000 103.600 43.100 103.600 43.000 V 37.200 C 103.600 37.100 103.500 37.200 103.600 37.200 H 106.500 C 106.555 37.200 106.600 37.155 106.600 37.100 V 31.100 C 106.600 31.045 106.555 31.000 106.500 31.000 H 103.600 C 103.500 31.000 103.600 31.100 103.600 31.000 V 25.200 C 103.600 25.100 103.500 25.200 103.600 25.200 H 106.500 C 106.555 25.200 106.600 25.155 106.600 25.100 V 19.100 C 106.600 19.045 106.555 19.000 106.500 19.000 H 103.600 C 103.500 19.000 103.600 19.100 103.600 19.000 V 10.200 C 103.600 10.100 103.500 10.200 103.600 10.200 H 106.500 C 106.555 10.200 106.600 10.155 106.600 10.100 C 106.600 10.045 106.555 10.000 106.500 10.000 H 103.500 H 63.500 H 60.500 C 60.445 10.000 60.400 10.045 60.400 10.100 C 60.400 10.155 60.445 10.200 60.500 10.200 H 63.400 C 63.500 10.200 63.400 10.100 63.400 10.200 V 19.000 C 63.400 19.100 63.500 19.000 63.400 19.000 H 60.500 C 60.445 19.000 60.400 19.045 60.400 19.100 V 25.100 C 60.400 25.155 60.445 25.200 60.500 25.200 H 63.400 C 63.500 25.200 63.400 25.100 63.400 25.200 V 31.000 C 63.400 31.100 63.500 31.000 63.400 31.000 H 60.500 C 60.445 31.000 60.400 31.045 60.400 31.100 V 37.100 C 60.400 37.155 60.445 37.200 60.500 37.200 H 63.400 C 63.500 37.200 63.400 37.100 63.400 37.200 V 43.000 C 63.400 43.100 63.500 43.000 63.400 43.000 H 60.500 C 60.445 43.000 60.400 43.045 60.400 43.100 V 49.100 C 60.400 49.155 60.445 49.200 60.500 49.200 H 63.400 C 63.500 49.200 63.400 49.100 63.400 49.200 V 55.000 C 63.400 55.100 63.500 55.000 63.400 55.000 H 60.500 C 60.445 55.000 60.400 55.045 60.400 55.100 V 61.100 C 60.400 61.155 60.445 61.200 60.500 61.200 H 63.400 C 63.500 61.200 63.400 61.100 63.400 61.200 V 67.000 C 63.400 67.100 63.500 67.000 63.400 67.000 H 60.500 C 60.445 67.000 60.400 67.045 60.400 67.100 V 73.100 C 60.400 73.155 60.445 73.200 60.500 73.200 H 63.400 C 63.500 73.200 63.400 73.100 63.400 73.200 V 79.000 C 63.400 79.100 63.500 79.000 63.400 79.000 H 60.500 C 60.445 79.000 60.400 79.045 60.400 79.100 V 85.100 C 60.400 85.155 60.445 85.200 60.500 85.200 H 63.400 C 63.500 85.200 63.400 85.100 63.400 85.200 V 91.000 C 63.400 91.100 63.500 91.000 63.400 91.000 H 60.500 C 60.445 91.000 60.400 91.045 60.400 91.100 V 97.100 C 60.400 97.155 60.445 97.200 60.500 97.200 H 63.400 C 63.500 97.200 63.400 97.100 63.400 97.200 V 103.000 C 63.400 103.100 63.500 103.000 63.400 103.000 H 60.500 C 60.445 103.000 60.400 103.045 60.400 103.100 V 109.100 C 60.400 109.155 60.445 109.200 60.500 109.200 H 63.400 C 63.500 109.200 63.400 109.100 63.400 109.200 V 115.000 C 63.400 115.100 63.500 115.000 63.400 115.000 H 60.500 C 60.445 115.000 60.400 115.045 60.400 115.100 V 121.100 C 60.400 121.155 60.445 121.200 60.500 121.200 H 63.400 C 63.500 121.200 63.400 121.100 63.400 121.200 V 130.000 C 63.400 130.100 63.500 130.000 63.400 130.000 H 60.500 C 60.445 130.000 60.400 130.045 60.400 130.100 C 60.400 130.155 60.445 130.200 60.500 130.200 H 63.500 Z" stroke="rgb(0,0,0)" stroke-width="0.20" />
</g>
<g id="p-3" style="fill:none;stroke-linecap:round;stroke-linejoin:round;">
  <text dominant-baseline="hanging" font-size="10px" style="font-family: sans-serif ; font-weight: normal; font-style: normal; fill: rgb(0,0,0)" text-anchor="left" transform="matrix( 1.000 0.000 0.000 1.000 111.200 140.100 )">c</text><text dominant-baseline="hanging" font-size="10px" style="font-family: sans-serif ; font-weight: normal; font-style: normal; fill: rgb(0,0,0)" text-anchor="left" transform="matrix( 1.000 0.000 0.000 1.000 141.200 140.100 )">C</text><text dominant-baseline="hanging" font-size="10px" style="font-family: sans-serif ; font-weight: normal; font-style: normal; fill: rgb(0,0,0)" text-anchor="left" transform="matrix( 1.000 0.000 0.000 1.000 106.200 150.100 )">wallHolesAt</text><path d="M 129.800 22.100 V 19.200 C 129.800 19.100 129.700 19.200 129.800 19.200 H 132.600 C 132.700 19.200 132.600 19.100 132.600 19.200 V 25.000 C 132.600 25.100 132.700 25.000 132.600 25.000 H 129.800 C 129.700 25.000 129.800 25.100 129.800 25.000 V 22.100 Z" stroke="rgb(0,0,255)" stroke-width="0.20" />
  <path d="M 129.800 34.100 V 31.200 C 129.800 31.100 129.700 31.200 129.800 31.200 H 132.600 C 132.700 31.200 132.600 31.100 132.600 31.200 V 37.000 C 132.600 37.100 132.700 37.000 132.600 37.000 H 129.800 C 129.700 37.000 129.800 37.100 129.800 37.000 V 34.100 Z" stroke="rgb(0,0,255)" stroke-width="0.20" />
  <path d="M 129.800 46.100 V 43.200 C 129.800 43.100 129.700 43.200 129.800 43.200 H 132.600 C 132.700 43.200 132.600 43.100 132.600 43.200 V 49.000 C 132.600 49.100 132.700 49.000 132.600 49.000 H 129.800 C 129.700 49.000 129.800 49.100 129.800 49.000 V 46.100 Z" stroke="rgb(0,0,255)" stroke-width="0.20" />
  <path d="M 129.800 58.100 V 55.200 C 129.800 55.100 129.700 55.200 129.800 55.200 H 132.600 C 132.700 55.200 132.600 55.100 132.600 55.200 V 61.000 C 132.600 61.100 132.700 61.000 132.600 61.000 H 129.800 C 129.700 61.000 129.800 61.100 129.800 61.000 V 58.100 Z" stroke="rgb(0,0,255)" stroke-width="0.20" />
  <path d="M 129.800 70.100 V 67.200 C 129.800 67.100 129.700 67.200 129.800 67.200 H 132.600 C 132.700 67.200 132.600 67.100 132.600 67.200 V 73.000 C 132.600 73.100 132.700 73.000 132.600 73.000 H 129.800 C 129.700 73.000 129.800 73.100 129.800 73.000 V 70.100 Z" stroke="rgb(0,0,255)" stroke-width="0.20" />
  <path d="M 129.800 82.100 V 79.200 C 129.800 79.100 129.700 79.200 129.800 79.200 H 132.600 C 132.700 79.200 132.600 79.100 132.600 79.200 V 85.000 C 132.600 85.100 132.700 85.000 132.600 85.000 H 129.800 C 129.700 85.000 129.800 85.100 129.800 85.000 V 82.100 Z" stroke="rgb(0,0,255)" stroke-width="0.20" />
  <path d="M 129.800 94.100 V 91.200 C 129.800 91.100 129.700 91.200 129.800 91.200 H 132.600 C 132.700 91.200 132.600 91.100 132.600 91.200 V 97.000 C 132.600 97.100 132.700 97.000 132.600 97.000 H 129.800 C 129.700 97.000 129.800 97.100 129.800 97.000 V 94.100 Z" stroke="rgb(0,0,255)" stroke-width="0.20" />
  <path d="M 129.800 106.100 V 103.200 C 129.800 103.100 129.700 103.200 129.800 103.200 H 132.600 C 132.700 103.200 132.600 103.100 132.600 103.200 V 109.000 C 132.600 109.100 132.700 109.000 132.600 109.000 H 129.800 C 129.700 109.000 129.800 109.100 129.800 109.000 V 106.100 Z" stroke="rgb(0,0,255)" stroke-width="0.20" />
  <path d="M 129.800 118.100 V 115.200 C 129.800 115.100 129.700 115.200 129.800 115.200 H 132.600 C 132.700 115.200 132.600 115.100 132.600 115.200 V 121.000 C 132.600 121.100 132.700 121.000 132.600 121.000 H 129.800 C 129.700 121.000 129.800 121.100 129.800 121.000 V 118.100 Z" stroke="rgb(0,0,255)" stroke-width="0.20" />
  <path d="M 111.200 130.200 H 151.200 C 151.255 130.200 151.300 130.155 151.300 130.100 C 151.300 130.155 151.255 130.200 151.200 130.200 H 154.200 C 154.255 130.200 154.300 130.155 154.300 130.100 V 121.100 C 154.300 121.045 154.255 121.000 154.200 121.000 H 151.300 C 151.200 121.000 151.300 121.100 151.300 121.000 V 115.200 C 151.300 115.100 151.200 115.200 151.300 115.200 H 154.200 C 154.255 115.200 154.300 115.155 154.300 115.100 V 109.100 C 154.300 109.045 154.255 109.000 154.200 109.000 H 151.300 C 151.200 109.000 151.300 109.100 151.300 109.000 V 103.200 C 151.300 103.100 151.200 103.200 151.300 103.200 H 154.200 C 154.255 103.200 154.300 103.155 154.300 103.100 V 97.100 C 154.300 97.045 154.255 97.000 154.200 97.000 H 151.300 C 151.200 97.000 151.300 97.100 151.300 97.000 V 91.200 C 151.300 91.100 151.200 91.200 151.300 91.200 H 154.200 C 154.255 91.200 154.300 91.155 154.300 91.100 V 85.100 C 154.300 85.045 154.255 85.000 154.200 85.000 H 151.300 C 151.200 85.000 151.300 85.100 151.300 85.000 V 79.200 C 151.300 79.100 151.200 79.200 151.300 79.200 H 154.200 C 154.255 79.200 154.300 79.155 154.300 79.100 V 73.100 C 154.300 73.045 154.255 73.000 154.200 73.000 H 151.300 C 151.200 73.000 151.300 73.100 151.300 73.000 V 67.200 C 151.300 67.100 151.200 67.200 151.300 67.200 H 154.200 C 154.255 67.200 154.300 67.155 154.300 67.100 V 61.100 C 154.300 61.045 154.255 61.000 154.200 61.000 H 151.300 C 151.200 61.000 151.300 61.100 151.300 61.000 V 55.200 C 151.300 55.100 151.200 55.200 151.300 55.200 H 154.200 C 154.255 55.200 154.300 55.155 154.300 55.100 V 49.100 C 154.300 49.045 154.255 49.000 154.200 49.000 H 151.300 C 151.200 49.000 151.300 49.100 151.300 49.000 V 43.200 C 151.300 43.100 151.200 43.200 151.300 43.200 H 154.200 C 154.255 43.200 154.300 43.155 154.300 43.100 V 37.100 C 154.300 37.045 154.255 37.000 154.200 37.000 H 151.300 C 151.200 37.000 151.300 37.100 151.300 37.000 V 31.200 C 151.300 31.100 151.200 31.200 151.300 31.200 H 154.200 C 154.255 31.200 154.300 31.155 154.300 31.100 V 25.100 C 154.300 25.045 154.255 25.000 154.200 25.000 H 151.300 C 151.200 25.000 151.300 25.100 151.300 25.000 V 19.200 C 151.300 19.100 151.200 19.200 151.300 19.200 H 154.200 C 154.255 19.200 154.300 19.155 154.300 19.100 V 10.100 C 154.300 10.045 154.255 10.000 154.200 10.000 H 151.200 C 151.255 10.000 151.300 10.045 151.300 10.100 C 151.300 10.045 151.255 10.000 151.200 10.000 H 111.200 C 111.145 10.000 111.100 10.045 111.100 10.100 C 111.100 10.045 111.145 10.000 111.200 10.000 H 108.200 C 108.145 10.000 108.100 10.045 108.100 10.100 V 19.100 C 108.100 19.155 108.145 19.200 108.200 19.200 H 111.100 C 111.200 19.200 111.100 19.100 111.100 19.200 V 25.000 C 111.100 25.100 111.200 25.000 111.100 25.000 H 108.200 C 108.145 25.000 108.100 25.045 108.100 25.100 V 31.100 C 108.100 31.155 108.145 31.200 108.200 31.200 H 111.100 C 111.200 31.200 111.100 31.100 111.100 31.200 V 37.000 C 111.100 37.100 111.200 37.000 111.100 37.000 H 108.200 C 108.145 37.000 108.100 37.045 108.100 37.100 V 43.100 C 108.100 43.155 108.145 43.200 108.200 43.200 H 111.100 C 111.200 43.200 111.100 43.100 111.100 43.200 V 49.000 C 111.100 49.100 111.200 49.000 111.100 49.000 H 108.200 C 108.145 49.000 108.100 49.045 108.100 49.100 V 55.100 C 108.100 55.155 108.145 55.200 108.200 55.200 H 111.100 C 111.200 55.200 111.100 55.100 111.100 55.200 V 61.000 C 111.100 61.100 111.200 61.000 111.100 61.000 H 108.200 C 108.145 61.000 108.100 61.045 108.100 61.100 V 67.100 C 108.100 67.155 108.145 67.200 108.200 67.200 H 111.100 C 111.200 67.200 111.100 67.100 111.100 67.200 V 73.000 C 111.100 73.100 111.200 73.000 111.100 73.000 H 108.200 C 108.145 73.000 108.100 73.045 108.100 73.100 V 79.100 C 108.100 79.155 108.145 79.200 108.200 79.200 H 111.100 C 111.200 79.200 111.100 79.100 111.100 79.200 V 85.000 C 111.100 85.100 111.200 85.000 111.100 85.000 H 108.200 C 108.145 85.000 108.100 85.045 108.100 85.100 V 91.100 C 108.100 91.155 108.145 91.200 108.200 91.200 H 111.100 C 111.200 91.200 111.100 91.100 111.100 91.200 V 97.000 C 111.100 97.100 111.200 97.000 111.100 97.000 H 108.200 C 108.145 97.000 108.100 97.045 108.100 97.100 V 103.100 C 108.100 103.155 108.145 103.200 108.200 103.200 H 111.100 C 111.200 103.200 111.100 103.100 111.100 103.200 V 109.000 C 111.100 109.100 111.200 109.000 111.100 109.000 H 108.200 C 108.145 109.000 108.100 109.045 108.100 109.100 V 115.100 C 108.100 115.155 108.145 115.200 108.200 115.200 H 111.100 C 111.200 115.200 111.100 115.100 111.100 115.200 V 121.000 C 111.100 121.100 111.200 121.000 111.100 121.000 H 108.200 C 108.145 121.000 108.100 121.045 108.100 121.100 V 130.100 C 108.100 130.155 108.145 130.200 108.200 130.200 H 111.200 C 111.145 130.200 111.100 130.155 111.100 130.100 C 111.100 130.155 111.145 130.200 111.200 130.200 Z" stroke="rgb(0,0,0)" stroke-width="0.20" />
</g>
<g id="p-4" style="fill:none;stroke-linecap:round;stroke-linejoin:round;">
  <text dominant-baseline="hanging" font-size="10px" style="font-family: sans-serif ; font-weight: normal; font-style: normal; fill: rgb(0,0,0)" text-anchor="left" transform="matrix( 1.000 0.000 0.000 1.000 171.900 140.100 )">d</text><text dominant-baseline="hanging" font-size="10px" style="font-family: sans-serif ; font-weight: normal; font-style: normal; fill: rgb(0,0,0)" text-anchor="left" transform="matrix( 1.000 0.000 0.000 1.000 201.900 140.100 )">D</text><path d="M 171.900 130.200 H 211.900 H 217.900 C 217.955 130.200 218.000 130.155 218.000 130.100 V 10.100 C 218.000 10.045 217.955 10.000 217.900 10.000 H 211.900 H 171.900 H 165.900 C 165.845 10.000 165.800 10.045 165.800 10.100 V 130.100 C 165.800 130.155 165.845 130.200 165.900 130.200 H 171.900 Z" stroke="rgb(0,0,0)" stroke-width="0.20" />
  <path d="M 212.100 22.100 V 19.200 C 212.100 19.100 212.000 19.200 212.100 19.200 H 214.900 C 215.000 19.200 214.900 19.100 214.900 19.200 V 25.000 C 214.900 25.100 215.000 25.000 214.900 25.000 H 212.100 C 212.000 25.000 212.100 25.100 212.100 25.000 V 22.100 Z" stroke="rgb(0,0,255)" stroke-width="0.20" />
  <path d="M 212.100 34.100 V 31.200 C 212.100 31.100 212.000 31.200 212.100 31.200 H 214.900 C 215.000 31.200 214.900 31.100 214.900 31.200 V 37.000 C 214.900 37.100 215.000 37.000 214.900 37.000 H 212.100 C 212.000 37.000 212.100 37.100 212.100 37.000 V 34.100 Z" stroke="rgb(0,0,255)" stroke-width="0.20" />
  <path d="M 212.100 46.100 V 43.200 C 212.100 43.100 212.000 43.200 212.100 43.200 H 214.900 C 215.000 43.200 214.900 43.100 214.900 43.200 V 49.000 C 214.900 49.100 215.000 49.000 214.900 49.000 H 212.100 C 212.000 49.000 212.100 49.100 212.100 49.000 V 46.100 Z" stroke="rgb(0,0,255)" stroke-width="0.20" />
  <path d="M 212.100 58.100 V 55.200 C 212.100 55.100 212.000 55.200 212.100 55.200 H 214.900 C 215.000 55.200 214.900 55.100 214.900 55.200 V 61.000 C 214.900 61.100 215.000 61.000 214.900 61.000 H 212.100 C 212.000 61.000 212.100 61.100 212.100 61.000 V 58.100 Z" stroke="rgb(0,0,255)" stroke-width="0.20" />
  <path d="M 212.100 70.100 V 67.200 C 212.100 67.100 212.000 67.200 212.100 67.200 H 214.900 C 215.000 67.200 214.900 67.100 214.900 67.200 V 73.000 C 214.900 73.100 215.000 73.000 214.900 73.000 H 212.100 C 212.000 73.000 212.100 73.100 212.100 73.000 V 70.100 Z" stroke="rgb(0,0,255)" stroke-width="0.20" />
  <path d="M 212.100 82.100 V 79.200 C 212.100 79.100 212.000 79.200 212.100 79.200 H 214.900 C 215.000 79.200 214.900 79.100 214.900 79.200 V 85.000 C 214.900 85.100 215.000 85.000 214.900 85.000 H 212.100 C 212.000 85.000 212.100 85.100 212.100 85.000 V 82.100 Z" stroke="rgb(0,0,255)" stroke-width="0.20" />
  <path d="M 212.100 94.100 V 91.200 C 212.100 91.100 212.000 91.200 212.100 91.200 H 214.900 C 215.000 91.200 214.900 91.100 214.900 91.200 V 97.000 C 214.900 97.100 215.000 97.000 214.900 97.000 H 212.100 C 212.000 97.000 212.100 97.100 212.100 97.000 V 94.100 Z" stroke="rgb(0,0,255)" stroke-width="0.20" />
  <path d="M 212.100 106.100 V 103.200 C 212.100 103.100 212.000 103.200 212.100 103.200 H 214.900 C 215.000 103.200 214.900 103.100 214.900 103.200 V 109.000 C 214.900 109.100 215.000 109.000 214.900 109.000 H 212.100 C 212.000 109.000 212.100 109.100 212.100 109.000 V 106.100 Z" stroke="rgb(0,0,255)" stroke-width="0.20" />
  <path d="M 212.100 118.100 V 115.200 C 212.100 115.100 212.000 115.200 212.100 115.200 H 214.900 C 215.000 115.200 214.900 115.100 214.900 115.200 V 121.000 C 214.900 121.100 215.000 121.000 214.900 121.000 H 212.100 C 212.000 121.000 212.100 121.100 212.100 121.000 V 118.100 Z" stroke="rgb(0,0,255)" stroke-width="0.20" />
  <path d="M 168.900 22.100 V 19.200 C 168.900 19.100 168.800 19.200 168.900 19.200 H 171.700 C 171.800 19.200 171.700 19.100 171.700 19.200 V 25.000 C 171.700 25.100 171.800 25.000 171.700 25.000 H 168.900 C 168.800 25.000 168.900 25.100 168.900 25.000 V 22.100 Z" stroke="rgb(0,0,255)" stroke-width="0.20" />
  <path d="M 168.900 34.100 V 31.200 C 168.900 31.100 168.800 31.200 168.900 31.200 H 171.700 C 171.800 31.200 171.700 31.100 171.700 31.200 V 37.000 C 171.700 37.100 171.800 37.000 171.700 37.000 H 168.900 C 168.800 37.000 168.900 37.100 168.900 37.000 V 34.100 Z" stroke="rgb(0,0,255)" stroke-width="0.20" />
  <path d="M 168.900 46.100 V 43.200 C 168.900 43.100 168.800 43.200 168.900 43.200 H 171.700 C 171.800 43.200 171.700 43.100 171.700 43.200 V 49.000 C 171.700 49.100 171.800 49.000 171.700 49.000 H 168.900 C 168.800 49.000 168.900 49.100 168.900 49.000 V 46.100 Z" stroke="rgb(0,0,255)" stroke-width="0.20" />
  <path d="M 168.900 58.100 V 55.200 C 168.900 55.100 168.800 55.200 168.900 55.200 H 171.700 C 171.800 55.200 171.700 55.100 171.700 55.200 V 61.000 C 171.700 61.100 171.800 61.000 171.700 61.000 H 168.900 C 168.800 61.000 168.900 61.100 168.900 61.000 V 58.100 Z" stroke="rgb(0,0,255)" stroke-width="0.20" />
  <path d="M 168.900 70.100 V 67.200 C 168.900 67.100 168.800 67.200 168.900 67.200 H 171.700 C 171.800 67.200 171.700 67.100 171.700 67.200 V 73.000 C 171.700 73.100 171.800 73.000 171.700 73.000 H 168.900 C 168.800 73.000 168.900 73.100 168.900 73.000 V 70.100 Z" stroke="rgb(0,0,255)" stroke-width="0.20" />
  <path d="M 168.900 82.100 V 79.200 C 168.900 79.100 168.800 79.200 168.900 79.200 H 171.700 C 171.800 79.200 171.700 79.100 171.700 79.200 V 85.000 C 171.700 85.100 171.800 85.000 171.700 85.000 H 168.900 C 168.800 85.000 168.900 85.100 168.900 85.000 V 82.100 Z" stroke="rgb(0,0,255)" stroke-width="0.20" />
  <path d="M 168.900 94.100 V 91.200 C 168.900 91.100 168.800 91.200 168.900 91.200 H 171.700 C 171.800 91.200 171.700 91.100 171.700 91.200 V 97.000 C 171.700 97.100 171.800 97.000 171.700 97.000 H 168.900 C 168.800 97.000 168.900 97.100 168.900 97.000 V 94.100 Z" stroke="rgb(0,0,255)" stroke-width="0.20" />
  <path d="M 168.900 106.100 V 103.200 C 168.900 103.100 168.800 103.200 168.900 103.200 H 171.700 C 171.800 103.200 171.700 103.100 171.700 103.200 V 109.000 C 171.700 109.100 171.800 109.000 171.700 109.000 H 168.900 C 168.800 109.000 168.900 109.100 168.900 109.000 V 106.100 Z" stroke="rgb(0,0,255)" stroke-width="0.20" />
  <path d="M 168.900 118.100 V 115.200 C 168.900 115.100 168.800 115.200 168.900 115.200 H 171.700 C 171.800 115.200 171.700 115.100 171.700 115.200 V 121.000 C 171.700 121.100 171.800 121.000 171.700 121.000 H 168.900 C 168.800 121.000 168.900 121.100 168.900 121.000 V 118.100 Z" stroke="rgb(0,0,255)" stroke-width="0.20" />
</g>
</svg>