<?xml version='1.0' encoding='utf-8'?>
<svg height="351.51mm" viewBox="0.0 0.0 282.76 351.51" width="282.76mm" xmlns="http://www.w3.org/2000/svg" xmlns:cc="http://creativecommons.org/ns#" xmlns:dc="http://purl.org/dc/elements/1.1/" xmlns:inkscape="http://www.inkscape.org/namespaces/inkscape" xmlns:rdf="http://www.w3.org/1999/02/22-rdf-syntax-ns#" xmlns:svg="http://www.w3.org/2000/svg" xmlns:xlink="http://www.w3.org/1999/xlink">
<!--
WallStackableBin - A wall-mounted bin that can stack or hang from a wall.



####Features:
- Configurable dimensions (width, height, depth)
- Adjustable front slope angle for easy access
- Optional label area on front face
- Stackable design with interlocking geometry
- Multiple wall mounting options

####Stacking Compatibility:
The stacking mechanism requires careful consideration of wall mounting types.
Bins using "plain" wall mounts can stack on bins with other mount types.
Note: Using the "outside" dimension option is generally not compatible with stacking.

####Assembly Notes:
1. The generator produces three pieces with angled finger joints. 
Bottom panel, sloped front panel and label panel (if enabled).
2. Joint lengths vary to accommodate the slope angles
3. Orient pieces as shown in the generated layout to assemble correctly.



Created with Boxes.py (https://boxes.hackerspace-bamberg.de/)
Command line (remove spaces between dashes): boxes WallStackableBin
-->
<title>WallStackableBin</title>
<metadata>
<rdf:RDF><cc:Work>
<dc:title>WallMounted - WallStackableBin</dc:title>
<dc:source>boxes WallStackableBin</dc:source>
<dc:description>A wall-mounted bin that can stack or hang from a wall.


####Features:
- Configurable dimensions (width, height, depth)
- Adjustable front slope angle for easy access
- Optional label area on front face
- Stackable design with interlocking geometry
- Multiple wall mounting options

####Stacking Compatibility:
The stacking mechanism requires careful consideration of wall mounting types.
Bins using "plain" wall mounts can stack on bins with other mount types.
Note: Using the "outside" dimension option is generally not compatible with stacking.

####Assembly Notes:
1. The generator produces three pieces with angled finger joints. 
Bottom panel, sloped front panel and label panel (if enabled).
2. Joint lengths vary to accommodate the slope angles
3. Orient pieces as shown in the generated layout to assemble correctly.


Created with Boxes.py (https://boxes.hackerspace-bamberg.de/)
Command line: boxes WallStackableBin
Command line short: boxes WallStackableBin
</dc:description>
</cc:Work></rdf:RDF></metadata>
<g id="p-0" style="fill:none;stroke-linecap:round;stroke-linejoin:round;">
  <path d="M 10.100 341.507 H 110.100 V 331.507 H 10.100 V 341.507 Z" stroke="rgb(0,0,0)" stroke-width="0.20" />
  <text dominant-baseline="hanging" font-size="6px" style="font-family: sans-serif ; font-weight: normal; font-style: normal; fill: rgb(255,0,0)" text-anchor="middle" transform="matrix( 1.000 0.000 0.000 1.000 60.100 333.507 )">100.0mm, burn:0.10mm</text>
</g>
<g id="p-1" style="fill:none;stroke-linecap:round;stroke-linejoin:round;">
  <text dominant-baseline="hanging" font-size="4px" style="font-family: sans-serif ; font-weight: normal; font-style: normal; fill: rgb(255,0,0)" text-anchor="middle" transform="matrix( 1.000 0.000 0.000 1.000 55.100 254.941 )">bottom</text><path d="M 13.100 326.807 H 22.000 C 22.100 326.807 22.000 326.707 22.000 326.807 V 329.707 C 22.000 329.762 22.045 329.807 22.100 329.807 H 28.100 C 28.155 329.807 28.200 329.762 28.200 329.707 V 326.807 C 28.200 326.707 28.100 326.807 28.200 326.807 H 34.000 C 34.100 326.807 34.000 326.707 34.000 326.807 V 329.707 C 34.000 329.762 34.045 329.807 34.100 329.807 H 40.100 C 40.155 329.807 40.200 329.762 40.200 329.707 V 326.807 C 40.200 326.707 40.100 326.807 40.200 326.807 H 46.000 C 46.100 326.807 46.000 326.707 46.000 326.807 V 329.707 C 46.000 329.762 46.045 329.807 46.100 329.807 H 52.100 C 52.155 329.807 52.200 329.762 52.200 329.707 V 326.807 C 52.200 326.707 52.100 326.807 52.200 326.807 H 58.000 C 58.100 326.807 58.000 326.707 58.000 326.807 V 329.707 C 58.000 329.762 58.045 329.807 58.100 329.807 H 64.100 C 64.155 329.807 64.200 329.762 64.200 329.707 V 326.807 C 64.200 326.707 64.100 326.807 64.200 326.807 H 70.000 C 70.100 326.807 70.000 326.707 70.000 326.807 V 329.707 C 70.000 329.762 70.045 329.807 70.100 329.807 H 76.100 C 76.155 329.807 76.200 329.762 76.200 329.707 V 326.807 C 76.200 326.707 76.100 326.807 76.200 326.807 H 82.000 C 82.100 326.807 82.000 326.707 82.000 326.807 V 329.707 C 82.000 329.762 82.045 329.807 82.100 329.807 H 88.100 C 88.155 329.807 88.200 329.762 88.200 329.707 V 326.807 C 88.200 326.707 88.100 326.807 88.200 326.807 H 97.100 C 97.155 326.807 97.200 326.762 97.200 326.707 V 319.307 C 97.200 319.207 97.100 319.307 97.200 319.307 H 100.100 C 100.155 319.307 100.200 319.262 100.200 319.207 V 313.207 C 100.200 313.151 100.155 313.107 100.100 313.107 H 97.200 C 97.100 313.107 97.200 313.207 97.200 313.107 V 307.307 C 97.200 307.207 97.100 307.307 97.200 307.307 H 100.100 C 100.155 307.307 100.200 307.262 100.200 307.207 V 301.207 C 100.200 301.151 100.155 301.107 100.100 301.107 H 97.200 C 97.100 301.107 97.200 301.207 97.200 301.107 V 295.307 C 97.200 295.207 97.100 295.307 97.200 295.307 H 100.100 C 100.155 295.307 100.200 295.262 100.200 295.207 V 289.207 C 100.200 289.151 100.155 289.107 100.100 289.107 H 97.200 C 97.100 289.107 97.200 289.207 97.200 289.107 V 283.307 C 97.200 283.207 97.100 283.307 97.200 283.307 H 100.100 C 100.155 283.307 100.200 283.262 100.200 283.207 V 277.207 C 100.200 277.151 100.155 277.107 100.100 277.107 H 97.200 C 97.100 277.107 97.200 277.207 97.200 277.107 V 271.307 C 97.200 271.207 97.100 271.307 97.200 271.307 H 100.100 C 100.155 271.307 100.200 271.262 100.200 271.207 V 265.207 C 100.200 265.151 100.155 265.107 100.100 265.107 H 97.200 C 97.100 265.107 97.200 265.207 97.200 265.107 V 259.307 C 97.200 259.207 97.100 259.307 97.200 259.307 H 100.100 C 100.155 259.307 100.200 259.262 100.200 259.207 V 253.207 C 100.200 253.151 100.155 253.107 100.100 253.107 H 97.200 C 97.100 253.107 97.200 253.207 97.200 253.107 V 247.307 C 97.200 247.207 97.100 247.307 97.200 247.307 H 100.100 C 100.155 247.307 100.200 247.262 100.200 247.207 V 241.207 C 100.200 241.151 100.155 241.107 100.100 241.107 H 97.200 C 97.100 241.107 97.200 241.207 97.200 241.107 V 235.307 C 97.200 235.207 97.100 235.307 97.200 235.307 H 100.100 C 100.155 235.307 100.200 235.262 100.200 235.207 V 229.207 C 100.200 229.151 100.155 229.107 100.100 229.107 H 97.200 C 97.100 229.107 97.200 229.207 97.200 229.107 V 223.307 C 97.200 223.207 97.100 223.307 97.200 223.307 H 100.100 C 100.155 223.307 100.200 223.262 100.200 223.207 V 217.207 C 100.200 217.151 100.155 217.107 100.100 217.107 H 97.200 C 97.100 217.107 97.200 217.207 97.200 217.107 V 211.307 C 97.200 211.207 97.100 211.307 97.200 211.307 H 100.100 C 100.155 211.307 100.200 211.262 100.200 211.207 V 205.207 C 100.200 205.151 100.155 205.107 100.100 205.107 H 97.200 C 97.100 205.107 97.200 205.207 97.200 205.107 V 199.307 C 97.200 199.207 97.100 199.307 97.200 199.307 H 100.100 C 100.155 199.307 100.200 199.262 100.200 199.207 V 193.207 C 100.200 193.151 100.155 193.107 100.100 193.107 H 97.200 C 97.100 193.107 97.200 193.207 97.200 193.107 V 185.707 V 183.975 C 97.200 183.919 97.155 183.875 97.100 183.875 H 88.100 C 88.045 183.875 88.000 183.919 88.000 183.975 V 186.473 C 88.000 186.573 88.100 186.473 88.000 186.473 H 82.200 C 82.100 186.473 82.200 186.573 82.200 186.473 V 183.975 C 82.200 183.919 82.155 183.875 82.100 183.875 H 76.100 C 76.045 183.875 76.000 183.919 76.000 183.975 V 186.473 C 76.000 186.573 76.100 186.473 76.000 186.473 H 70.200 C 70.100 186.473 70.200 186.573 70.200 186.473 V 183.975 C 70.200 183.919 70.155 183.875 70.100 183.875 H 64.100 C 64.045 183.875 64.000 183.919 64.000 183.975 V 186.473 C 64.000 186.573 64.100 186.473 64.000 186.473 H 58.200 C 58.100 186.473 58.200 186.573 58.200 186.473 V 183.975 C 58.200 183.919 58.155 183.875 58.100 183.875 H 52.100 C 52.045 183.875 52.000 183.919 52.000 183.975 V 186.473 C 52.000 186.573 52.100 186.473 52.000 186.473 H 46.200 C 46.100 186.473 46.200 186.573 46.200 186.473 V 183.975 C 46.200 183.919 46.155 183.875 46.100 183.875 H 40.100 C 40.045 183.875 40.000 183.919 40.000 183.975 V 186.473 C 40.000 186.573 40.100 186.473 40.000 186.473 H 34.200 C 34.100 186.473 34.200 186.573 34.200 186.473 V 183.975 C 34.200 183.919 34.155 183.875 34.100 183.875 H 28.100 C 28.045 183.875 28.000 183.919 28.000 183.975 V 186.473 C 28.000 186.573 28.100 186.473 28.000 186.473 H 22.200 C 22.100 186.473 22.200 186.573 22.200 186.473 V 183.975 C 22.200 183.919 22.155 183.875 22.100 183.875 H 13.100 C 13.045 183.875 13.000 183.919 13.000 183.975 V 185.707 V 193.107 C 13.000 193.207 13.100 193.107 13.000 193.107 H 10.100 C 10.045 193.107 10.000 193.151 10.000 193.207 V 199.207 C 10.000 199.262 10.045 199.307 10.100 199.307 H 13.000 C 13.100 199.307 13.000 199.207 13.000 199.307 V 205.107 C 13.000 205.207 13.100 205.107 13.000 205.107 H 10.100 C 10.045 205.107 10.000 205.151 10.000 205.207 V 211.207 C 10.000 211.262 10.045 211.307 10.100 211.307 H 13.000 C 13.100 211.307 13.000 211.207 13.000 211.307 V 217.107 C 13.000 217.207 13.100 217.107 13.000 217.107 H 10.100 C 10.045 217.107 10.000 217.151 10.000 217.207 V 223.207 C 10.000 223.262 10.045 223.307 10.100 223.307 H 13.000 C 13.100 223.307 13.000 223.207 13.000 223.307 V 229.107 C 13.000 229.207 13.100 229.107 13.000 229.107 H 10.100 C 10.045 229.107 10.000 229.151 10.000 229.207 V 235.207 C 10.000 235.262 10.045 235.307 10.100 235.307 H 13.000 C 13.100 235.307 13.000 235.207 13.000 235.307 V 241.107 C 13.000 241.207 13.100 241.107 13.000 241.107 H 10.100 C 10.045 241.107 10.000 241.151 10.000 241.207 V 247.207 C 10.000 247.262 10.045 247.307 10.100 247.307 H 13.000 C 13.100 247.307 13.000 247.207 13.000 247.307 V 253.107 C 13.000 253.207 13.100 253.107 13.000 253.107 H 10.100 C 10.045 253.107 10.000 253.151 10.000 253.207 V 259.207 C 10.000 259.262 10.045 259.307 10.100 259.307 H 13.000 C 13.100 259.307 13.000 259.207 13.000 259.307 V 265.107 C 13.000 265.207 13.100 265.107 13.000 265.107 H 10.100 C 10.045 265.107 10.000 265.151 10.000 265.207 V 271.207 C 10.000 271.262 10.045 271.307 10.100 271.307 H 13.000 C 13.100 271.307 13.000 271.207 13.000 271.307 V 277.107 C 13.000 277.207 13.100 277.107 13.000 277.107 H 10.100 C 10.045 277.107 10.000 277.151 10.000 277.207 V 283.207 C 10.000 283.262 10.045 283.307 10.100 283.307 H 13.000 C 13.100 283.307 13.000 283.207 13.000 283.307 V 289.107 C 13.000 289.207 13.100 289.107 13.000 289.107 H 10.100 C 10.045 289.107 10.000 289.151 10.000 289.207 V 295.207 C 10.000 295.262 10.045 295.307 10.100 295.307 H 13.000 C 13.100 295.307 13.000 295.207 13.000 295.307 V 301.107 C 13.000 301.207 13.100 301.107 13.000 301.107 H 10.100 C 10.045 301.107 10.000 301.151 10.000 301.207 V 307.207 C 10.000 307.262 10.045 307.307 10.100 307.307 H 13.000 C 13.100 307.307 13.000 307.207 13.000 307.307 V 313.107 C 13.000 313.207 13.100 313.107 13.000 313.107 H 10.100 C 10.045 313.107 10.000 313.151 10.000 313.207 V 319.207 C 10.000 319.262 10.045 319.307 10.100 319.307 H 13.000 C 13.100 319.307 13.000 319.207 13.000 319.307 V 326.707 C 13.000 326.762 13.045 326.807 13.100 326.807" stroke="rgb(0,0,0)" stroke-width="0.20" />
</g>
<g id="p-2" style="fill:none;stroke-linecap:round;stroke-linejoin:round;">
  <text dominant-baseline="hanging" font-size="4px" style="font-family: sans-serif ; font-weight: normal; font-style: normal; fill: rgb(255,0,0)" text-anchor="middle" transform="matrix( 1.000 0.000 0.000 1.000 55.100 161.249 )">slope</text><path d="M 13.100 179.777 H 22.000 C 22.100 179.777 22.000 179.677 22.000 179.777 V 182.275 C 22.000 182.330 22.045 182.375 22.100 182.375 H 28.100 C 28.155 182.375 28.200 182.330 28.200 182.275 V 179.777 C 28.200 179.677 28.100 179.777 28.200 179.777 H 34.000 C 34.100 179.777 34.000 179.677 34.000 179.777 V 182.275 C 34.000 182.330 34.045 182.375 34.100 182.375 H 40.100 C 40.155 182.375 40.200 182.330 40.200 182.275 V 179.777 C 40.200 179.677 40.100 179.777 40.200 179.777 H 46.000 C 46.100 179.777 46.000 179.677 46.000 179.777 V 182.275 C 46.000 182.330 46.045 182.375 46.100 182.375 H 52.100 C 52.155 182.375 52.200 182.330 52.200 182.275 V 179.777 C 52.200 179.677 52.100 179.777 52.200 179.777 H 58.000 C 58.100 179.777 58.000 179.677 58.000 179.777 V 182.275 C 58.000 182.330 58.045 182.375 58.100 182.375 H 64.100 C 64.155 182.375 64.200 182.330 64.200 182.275 V 179.777 C 64.200 179.677 64.100 179.777 64.200 179.777 H 70.000 C 70.100 179.777 70.000 179.677 70.000 179.777 V 182.275 C 70.000 182.330 70.045 182.375 70.100 182.375 H 76.100 C 76.155 182.375 76.200 182.330 76.200 182.275 V 179.777 C 76.200 179.677 76.100 179.777 76.200 179.777 H 82.000 C 82.100 179.777 82.000 179.677 82.000 179.777 V 182.275 C 82.000 182.330 82.045 182.375 82.100 182.375 H 88.100 C 88.155 182.375 88.200 182.330 88.200 182.275 V 179.777 C 88.200 179.677 88.100 179.777 88.200 179.777 H 97.100 H 100.100 C 100.155 179.777 100.200 179.732 100.200 179.677 V 180.543 V 171.685 C 100.200 171.630 100.155 171.585 100.100 171.585 H 97.200 C 97.100 171.585 97.200 171.685 97.200 171.585 V 165.785 C 97.200 165.685 97.100 165.785 97.200 165.785 H 100.100 C 100.155 165.785 100.200 165.740 100.200 165.685 V 159.685 C 100.200 159.630 100.155 159.585 100.100 159.585 H 97.200 C 97.100 159.585 97.200 159.685 97.200 159.585 V 153.785 C 97.200 153.685 97.100 153.785 97.200 153.785 H 100.100 C 100.155 153.785 100.200 153.740 100.200 153.685 V 144.828 V 145.524 C 100.200 145.469 100.155 145.424 100.100 145.424 H 97.100 H 88.200 C 88.100 145.424 88.200 145.524 88.200 145.424 V 144.024 C 88.200 143.969 88.155 143.924 88.100 143.924 H 82.100 C 82.045 143.924 82.000 143.969 82.000 144.024 V 145.424 C 82.000 145.524 82.100 145.424 82.000 145.424 H 76.200 C 76.100 145.424 76.200 145.524 76.200 145.424 V 144.024 C 76.200 143.969 76.155 143.924 76.100 143.924 H 70.100 C 70.045 143.924 70.000 143.969 70.000 144.024 V 145.424 C 70.000 145.524 70.100 145.424 70.000 145.424 H 64.200 C 64.100 145.424 64.200 145.524 64.200 145.424 V 144.024 C 64.200 143.969 64.155 143.924 64.100 143.924 H 58.100 C 58.045 143.924 58.000 143.969 58.000 144.024 V 145.424 C 58.000 145.524 58.100 145.424 58.000 145.424 H 52.200 C 52.100 145.424 52.200 145.524 52.200 145.424 V 144.024 C 52.200 143.969 52.155 143.924 52.100 143.924 H 46.100 C 46.045 143.924 46.000 143.969 46.000 144.024 V 145.424 C 46.000 145.524 46.100 145.424 46.000 145.424 H 40.200 C 40.100 145.424 40.200 145.524 40.200 145.424 V 144.024 C 40.200 143.969 40.155 143.924 40.100 143.924 H 34.100 C 34.045 143.924 34.000 143.969 34.000 144.024 V 145.424 C 34.000 145.524 34.100 145.424 34.000 145.424 H 28.200 C 28.100 145.424 28.200 145.524 28.200 145.424 V 144.024 C 28.200 143.969 28.155 143.924 28.100 143.924 H 22.100 C 22.045 143.924 22.000 143.969 22.000 144.024 V 145.424 C 22.000 145.524 22.100 145.424 22.000 145.424 H 13.100 H 10.100 C 10.045 145.424 10.000 145.469 10.000 145.524 V 144.828 V 153.685 C 10.000 153.740 10.045 153.785 10.100 153.785 H 13.000 C 13.100 153.785 13.000 153.685 13.000 153.785 V 159.585 C 13.000 159.685 13.100 159.585 13.000 159.585 H 10.100 C 10.045 159.585 10.000 159.630 10.000 159.685 V 165.685 C 10.000 165.740 10.045 165.785 10.100 165.785 H 13.000 C 13.100 165.785 13.000 165.685 13.000 165.785 V 171.585 C 13.000 171.685 13.100 171.585 13.000 171.585 H 10.100 C 10.045 171.585 10.000 171.630 10.000 171.685 V 180.543 V 179.677 C 10.000 179.732 10.045 179.777 10.100 179.777 H 13.100" stroke="rgb(0,0,0)" stroke-width="0.20" />
</g>
<g id="p-3" style="fill:none;stroke-linecap:round;stroke-linejoin:round;">
  <text dominant-baseline="hanging" font-size="4px" style="font-family: sans-serif ; font-weight: normal; font-style: normal; fill: rgb(255,0,0)" text-anchor="middle" transform="matrix( 1.000 0.000 0.000 1.000 55.100 129.712 )">label</text><path d="M 13.100 142.424 H 22.100 C 22.155 142.424 22.200 142.379 22.200 142.324 V 140.924 C 22.200 140.824 22.100 140.924 22.200 140.924 H 28.000 C 28.100 140.924 28.000 140.824 28.000 140.924 V 142.324 C 28.000 142.379 28.045 142.424 28.100 142.424 H 34.100 C 34.155 142.424 34.200 142.379 34.200 142.324 V 140.924 C 34.200 140.824 34.100 140.924 34.200 140.924 H 40.000 C 40.100 140.924 40.000 140.824 40.000 140.924 V 142.324 C 40.000 142.379 40.045 142.424 40.100 142.424 H 46.100 C 46.155 142.424 46.200 142.379 46.200 142.324 V 140.924 C 46.200 140.824 46.100 140.924 46.200 140.924 H 52.000 C 52.100 140.924 52.000 140.824 52.000 140.924 V 142.324 C 52.000 142.379 52.045 142.424 52.100 142.424 H 58.100 C 58.155 142.424 58.200 142.379 58.200 142.324 V 140.924 C 58.200 140.824 58.100 140.924 58.200 140.924 H 64.000 C 64.100 140.924 64.000 140.824 64.000 140.924 V 142.324 C 64.000 142.379 64.045 142.424 64.100 142.424 H 70.100 C 70.155 142.424 70.200 142.379 70.200 142.324 V 140.924 C 70.200 140.824 70.100 140.924 70.200 140.924 H 76.000 C 76.100 140.924 76.000 140.824 76.000 140.924 V 142.324 C 76.000 142.379 76.045 142.424 76.100 142.424 H 82.100 C 82.155 142.424 82.200 142.379 82.200 142.324 V 140.924 C 82.200 140.824 82.100 140.924 82.200 140.924 H 88.000 C 88.100 140.924 88.000 140.824 88.000 140.924 V 142.324 C 88.000 142.379 88.045 142.424 88.100 142.424 H 97.100 H 100.100 C 100.155 142.424 100.200 142.379 100.200 142.324 V 141.520 V 134.210 C 100.200 134.155 100.155 134.110 100.100 134.110 H 97.200 C 97.100 134.110 97.200 134.210 97.200 134.110 V 128.310 C 97.200 128.210 97.100 128.310 97.200 128.310 H 100.100 C 100.155 128.310 100.200 128.265 100.200 128.210 V 120.900 C 100.200 120.845 100.155 120.800 100.100 120.800 H 97.100 H 13.100 H 10.100 C 10.045 120.800 10.000 120.845 10.000 120.900 V 128.210 C 10.000 128.265 10.045 128.310 10.100 128.310 H 13.000 C 13.100 128.310 13.000 128.210 13.000 128.310 V 134.110 C 13.000 134.210 13.100 134.110 13.000 134.110 H 10.100 C 10.045 134.110 10.000 134.155 10.000 134.210 V 141.520 V 142.324 C 10.000 142.379 10.045 142.424 10.100 142.424 H 13.100" stroke="rgb(0,0,0)" stroke-width="0.20" />
</g>
<g id="p-4" style="fill:none;stroke-linecap:round;stroke-linejoin:round;">
  <path d="M 25.100 116.100 H 22.200 C 22.100 116.100 22.200 116.200 22.200 116.100 V 113.300 C 22.200 113.200 22.100 113.300 22.200 113.300 H 28.000 C 28.100 113.300 28.000 113.200 28.000 113.300 V 116.100 C 28.000 116.200 28.100 116.100 28.000 116.100 H 25.100 Z" stroke="rgb(0,0,255)" stroke-width="0.20" />
  <path d="M 37.100 116.100 H 34.200 C 34.100 116.100 34.200 116.200 34.200 116.100 V 113.300 C 34.200 113.200 34.100 113.300 34.200 113.300 H 40.000 C 40.100 113.300 40.000 113.200 40.000 113.300 V 116.100 C 40.000 116.200 40.100 116.100 40.000 116.100 H 37.100 Z" stroke="rgb(0,0,255)" stroke-width="0.20" />
  <path d="M 49.100 116.100 H 46.200 C 46.100 116.100 46.200 116.200 46.200 116.100 V 113.300 C 46.200 113.200 46.100 113.300 46.200 113.300 H 52.000 C 52.100 113.300 52.000 113.200 52.000 113.300 V 116.100 C 52.000 116.200 52.100 116.100 52.000 116.100 H 49.100 Z" stroke="rgb(0,0,255)" stroke-width="0.20" />
  <path d="M 61.100 116.100 H 58.200 C 58.100 116.100 58.200 116.200 58.200 116.100 V 113.300 C 58.200 113.200 58.100 113.300 58.200 113.300 H 64.000 C 64.100 113.300 64.000 113.200 64.000 113.300 V 116.100 C 64.000 116.200 64.100 116.100 64.000 116.100 H 61.100 Z" stroke="rgb(0,0,255)" stroke-width="0.20" />
  <path d="M 73.100 116.100 H 70.200 C 70.100 116.100 70.200 116.200 70.200 116.100 V 113.300 C 70.200 113.200 70.100 113.300 70.200 113.300 H 76.000 C 76.100 113.300 76.000 113.200 76.000 113.300 V 116.100 C 76.000 116.200 76.100 116.100 76.000 116.100 H 73.100 Z" stroke="rgb(0,0,255)" stroke-width="0.20" />
  <path d="M 85.100 116.100 H 82.200 C 82.100 116.100 82.200 116.200 82.200 116.100 V 113.300 C 82.200 113.200 82.100 113.300 82.200 113.300 H 88.000 C 88.100 113.300 88.000 113.200 88.000 113.300 V 116.100 C 88.000 116.200 88.100 116.100 88.000 116.100 H 85.100 Z" stroke="rgb(0,0,255)" stroke-width="0.20" />
  <text dominant-baseline="hanging" font-size="4px" style="font-family: sans-serif ; font-weight: normal; font-style: normal; fill: rgb(255,0,0)" text-anchor="middle" transform="matrix( 1.000 0.000 0.000 1.000 55.100 62.750 )">back</text><path d="M 13.100 119.300 H 97.100 C 97.155 119.300 97.200 119.255 97.200 119.200 V 113.300 C 97.200 113.200 97.100 113.300 97.200 113.300 H 100.100 C 100.155 113.300 100.200 113.255 100.200 113.200 V 106.650 C 100.200 106.595 100.155 106.550 100.100 106.550 H 97.200 C 97.100 106.550 97.200 106.650 97.200 106.550 V 100.750 C 97.200 100.650 97.100 100.750 97.200 100.750 H 100.100 C 100.155 100.750 100.200 100.705 100.200 100.650 V 94.650 C 100.200 94.595 100.155 94.550 100.100 94.550 H 97.200 C 97.100 94.550 97.200 94.650 97.200 94.550 V 88.750 C 97.200 88.650 97.100 88.750 97.200 88.750 H 100.100 C 100.155 88.750 100.200 88.705 100.200 88.650 V 82.650 C 100.200 82.595 100.155 82.550 100.100 82.550 H 97.200 C 97.100 82.550 97.200 82.650 97.200 82.550 V 76.750 C 97.200 76.650 97.100 76.750 97.200 76.750 H 100.100 C 100.155 76.750 100.200 76.705 100.200 76.650 V 70.650 C 100.200 70.595 100.155 70.550 100.100 70.550 H 97.200 C 97.100 70.550 97.200 70.650 97.200 70.550 V 64.750 C 97.200 64.650 97.100 64.750 97.200 64.750 H 100.100 C 100.155 64.750 100.200 64.705 100.200 64.650 V 58.650 C 100.200 58.595 100.155 58.550 100.100 58.550 H 97.200 C 97.100 58.550 97.200 58.650 97.200 58.550 V 52.750 C 97.200 52.650 97.100 52.750 97.200 52.750 H 100.100 C 100.155 52.750 100.200 52.705 100.200 52.650 V 46.650 C 100.200 46.595 100.155 46.550 100.100 46.550 H 97.200 C 97.100 46.550 97.200 46.650 97.200 46.550 V 40.750 C 97.200 40.650 97.100 40.750 97.200 40.750 H 100.100 C 100.155 40.750 100.200 40.705 100.200 40.650 V 34.650 C 100.200 34.595 100.155 34.550 100.100 34.550 H 97.200 C 97.100 34.550 97.200 34.650 97.200 34.550 V 28.750 C 97.200 28.650 97.100 28.750 97.200 28.750 H 100.100 C 100.155 28.750 100.200 28.705 100.200 28.650 V 22.650 C 100.200 22.595 100.155 22.550 100.100 22.550 H 97.200 C 97.100 22.550 97.200 22.650 97.200 22.550 V 16.750 C 97.200 16.650 97.100 16.750 97.200 16.750 H 100.100 C 100.155 16.750 100.200 16.705 100.200 16.650 V 10.100 C 100.200 10.045 100.155 10.000 100.100 10.000 H 97.100 C 97.155 10.000 97.200 10.045 97.200 10.100 C 97.200 10.045 97.155 10.000 97.100 10.000 H 13.100 C 13.045 10.000 13.000 10.045 13.000 10.100 C 13.000 10.045 13.045 10.000 13.100 10.000 H 10.100 C 10.045 10.000 10.000 10.045 10.000 10.100 V 16.650 C 10.000 16.705 10.045 16.750 10.100 16.750 H 13.000 C 13.100 16.750 13.000 16.650 13.000 16.750 V 22.550 C 13.000 22.650 13.100 22.550 13.000 22.550 H 10.100 C 10.045 22.550 10.000 22.595 10.000 22.650 V 28.650 C 10.000 28.705 10.045 28.750 10.100 28.750 H 13.000 C 13.100 28.750 13.000 28.650 13.000 28.750 V 34.550 C 13.000 34.650 13.100 34.550 13.000 34.550 H 10.100 C 10.045 34.550 10.000 34.595 10.000 34.650 V 40.650 C 10.000 40.705 10.045 40.750 10.100 40.750 H 13.000 C 13.100 40.750 13.000 40.650 13.000 40.750 V 46.550 C 13.000 46.650 13.100 46.550 13.000 46.550 H 10.100 C 10.045 46.550 10.000 46.595 10.000 46.650 V 52.650 C 10.000 52.705 10.045 52.750 10.100 52.750 H 13.000 C 13.100 52.750 13.000 52.650 13.000 52.750 V 58.550 C 13.000 58.650 13.100 58.550 13.000 58.550 H 10.100 C 10.045 58.550 10.000 58.595 10.000 58.650 V 64.650 C 10.000 64.705 10.045 64.750 10.100 64.750 H 13.000 C 13.100 64.750 13.000 64.650 13.000 64.750 V 70.550 C 13.000 70.650 13.100 70.550 13.000 70.550 H 10.100 C 10.045 70.550 10.000 70.595 10.000 70.650 V 76.650 C 10.000 76.705 10.045 76.750 10.100 76.750 H 13.000 C 13.100 76.750 13.000 76.650 13.000 76.750 V 82.550 C 13.000 82.650 13.100 82.550 13.000 82.550 H 10.100 C 10.045 82.550 10.000 82.595 10.000 82.650 V 88.650 C 10.000 88.705 10.045 88.750 10.100 88.750 H 13.000 C 13.100 88.750 13.000 88.650 13.000 88.750 V 94.550 C 13.000 94.650 13.100 94.550 13.000 94.550 H 10.100 C 10.045 94.550 10.000 94.595 10.000 94.650 V 100.650 C 10.000 100.705 10.045 100.750 10.100 100.750 H 13.000 C 13.100 100.750 13.000 100.650 13.000 100.750 V 106.550 C 13.000 106.650 13.100 106.550 13.000 106.550 H 10.100 C 10.045 106.550 10.000 106.595 10.000 106.650 V 113.200 C 10.000 113.255 10.045 113.300 10.100 113.300 H 13.000 C 13.100 113.300 13.000 113.200 13.000 113.300 V 119.200 C 13.000 119.255 13.045 119.300 13.100 119.300" stroke="rgb(0,0,0)" stroke-width="0.20" />
</g>
<g id="p-5" style="fill:none;stroke-linecap:round;stroke-linejoin:round;">
  <path d="M 139.157 311.807 H 136.257 C 136.157 311.807 136.257 311.907 136.257 311.807 V 309.007 C 136.257 308.907 136.157 309.007 136.257 309.007 H 142.057 C 142.157 309.007 142.057 308.907 142.057 309.007 V 311.807 C 142.057 311.907 142.157 311.807 142.057 311.807 H 139.157 Z" stroke="rgb(0,0,255)" stroke-width="0.20" />
  <path d="M 151.157 311.807 H 148.257 C 148.157 311.807 148.257 311.907 148.257 311.807 V 309.007 C 148.257 308.907 148.157 309.007 148.257 309.007 H 154.057 C 154.157 309.007 154.057 308.907 154.057 309.007 V 311.807 C 154.057 311.907 154.157 311.807 154.057 311.807 H 151.157 Z" stroke="rgb(0,0,255)" stroke-width="0.20" />
  <path d="M 163.157 311.807 H 160.257 C 160.157 311.807 160.257 311.907 160.257 311.807 V 309.007 C 160.257 308.907 160.157 309.007 160.257 309.007 H 166.057 C 166.157 309.007 166.057 308.907 166.057 309.007 V 311.807 C 166.057 311.907 166.157 311.807 166.057 311.807 H 163.157 Z" stroke="rgb(0,0,255)" stroke-width="0.20" />
  <path d="M 175.157 311.807 H 172.257 C 172.157 311.807 172.257 311.907 172.257 311.807 V 309.007 C 172.257 308.907 172.157 309.007 172.257 309.007 H 178.057 C 178.157 309.007 178.057 308.907 178.057 309.007 V 311.807 C 178.057 311.907 178.157 311.807 178.057 311.807 H 175.157 Z" stroke="rgb(0,0,255)" stroke-width="0.20" />
  <path d="M 187.157 311.807 H 184.257 C 184.157 311.807 184.257 311.907 184.257 311.807 V 309.007 C 184.257 308.907 184.157 309.007 184.257 309.007 H 190.057 C 190.157 309.007 190.057 308.907 190.057 309.007 V 311.807 C 190.057 311.907 190.157 311.807 190.057 311.807 H 187.157 Z" stroke="rgb(0,0,255)" stroke-width="0.20" />
  <path d="M 199.157 311.807 H 196.257 C 196.157 311.807 196.257 311.907 196.257 311.807 V 309.007 C 196.257 308.907 196.157 309.007 196.257 309.007 H 202.057 C 202.157 309.007 202.057 308.907 202.057 309.007 V 311.807 C 202.057 311.907 202.157 311.807 202.057 311.807 H 199.157 Z" stroke="rgb(0,0,255)" stroke-width="0.20" />
  <path d="M 211.157 311.807 H 208.257 C 208.157 311.807 208.257 311.907 208.257 311.807 V 309.007 C 208.257 308.907 208.157 309.007 208.257 309.007 H 214.057 C 214.157 309.007 214.057 308.907 214.057 309.007 V 311.807 C 214.057 311.907 214.157 311.807 214.057 311.807 H 211.157 Z" stroke="rgb(0,0,255)" stroke-width="0.20" />
  <path d="M 223.157 311.807 H 220.257 C 220.157 311.807 220.257 311.907 220.257 311.807 V 309.007 C 220.257 308.907 220.157 309.007 220.257 309.007 H 226.057 C 226.157 309.007 226.057 308.907 226.057 309.007 V 311.807 C 226.057 311.907 226.157 311.807 226.057 311.807 H 223.157 Z" stroke="rgb(0,0,255)" stroke-width="0.20" />
  <path d="M 235.157 311.807 H 232.257 C 232.157 311.807 232.257 311.907 232.257 311.807 V 309.007 C 232.257 308.907 232.157 309.007 232.257 309.007 H 238.057 C 238.157 309.007 238.057 308.907 238.057 309.007 V 311.807 C 238.057 311.907 238.157 311.807 238.057 311.807 H 235.157 Z" stroke="rgb(0,0,255)" stroke-width="0.20" />
  <path d="M 247.157 311.807 H 244.257 C 244.157 311.807 244.257 311.907 244.257 311.807 V 309.007 C 244.257 308.907 244.157 309.007 244.257 309.007 H 250.057 C 250.157 309.007 250.057 308.907 250.057 309.007 V 311.807 C 250.057 311.907 250.157 311.807 250.057 311.807 H 247.157 Z" stroke="rgb(0,0,255)" stroke-width="0.20" />
  <path d="M 259.157 311.807 H 256.257 C 256.157 311.807 256.257 311.907 256.257 311.807 V 309.007 C 256.257 308.907 256.157 309.007 256.257 309.007 H 262.057 C 262.157 309.007 262.057 308.907 262.057 309.007 V 311.807 C 262.057 311.907 262.157 311.807 262.057 311.807 H 259.157 Z" stroke="rgb(0,0,255)" stroke-width="0.20" />
</g>
<g id="p-6" style="fill:none;stroke-linecap:round;stroke-linejoin:round;">
  <path d="M 128.657 328.957 H 266.507 C 266.563 328.957 266.607 328.912 266.607 328.857 V 321.657 C 266.607 321.601 266.563 321.557 266.507 321.557 H 128.657 C 128.602 321.557 128.557 321.601 128.557 321.657 V 328.857 C 128.557 328.912 128.602 328.957 128.657 328.957 Z" stroke="rgb(0,0,0)" stroke-width="0.20" />
</g>
<g id="p-7" style="fill:none;stroke-linecap:round;stroke-linejoin:round;">
  <text dominant-baseline="hanging" font-size="4px" style="font-family: sans-serif ; font-weight: normal; font-style: normal; fill: rgb(255,0,0)" text-anchor="middle" transform="matrix( 1.000 0.000 0.000 1.000 190.229 262.807 )">left side</text><path d="M 128.657 320.907 H 140.657 C 141.728 320.907 142.780 320.625 143.707 320.089 C 144.635 319.554 145.405 318.784 145.940 317.857 C 146.458 316.960 147.203 316.215 148.100 315.697 C 148.997 315.179 150.014 314.907 151.050 314.907 H 247.265 C 248.301 314.907 249.318 315.179 250.215 315.697 C 251.112 316.215 251.857 316.960 252.375 317.857 C 252.910 318.784 253.680 319.554 254.607 320.089 C 255.535 320.625 256.587 320.907 257.657 320.907 H 269.657 H 272.657 C 272.713 320.907 272.757 320.862 272.757 320.807 V 308.807 C 272.757 308.751 272.713 308.707 272.657 308.707 H 269.757 C 269.657 308.707 269.757 308.807 269.757 308.707 V 302.357 C 269.757 302.257 269.657 302.357 269.757 302.357 H 272.657 C 272.713 302.357 272.757 302.312 272.757 302.257 V 296.257 C 272.757 296.201 272.713 296.157 272.657 296.157 H 269.757 C 269.657 296.157 269.757 296.257 269.757 296.157 V 290.357 C 269.757 290.257 269.657 290.357 269.757 290.357 H 272.657 C 272.713 290.357 272.757 290.312 272.757 290.257 V 284.257 C 272.757 284.201 272.713 284.157 272.657 284.157 H 269.757 C 269.657 284.157 269.757 284.257 269.757 284.157 V 278.357 C 269.757 278.257 269.657 278.357 269.757 278.357 H 272.657 C 272.713 278.357 272.757 278.312 272.757 278.257 V 272.257 C 272.757 272.201 272.713 272.157 272.657 272.157 H 269.757 C 269.657 272.157 269.757 272.257 269.757 272.157 V 266.357 C 269.757 266.257 269.657 266.357 269.757 266.357 H 272.657 C 272.713 266.357 272.757 266.312 272.757 266.257 V 260.257 C 272.757 260.201 272.713 260.157 272.657 260.157 H 269.757 C 269.657 260.157 269.757 260.257 269.757 260.157 V 254.357 C 269.757 254.257 269.657 254.357 269.757 254.357 H 272.657 C 272.713 254.357 272.757 254.312 272.757 254.257 V 248.257 C 272.757 248.201 272.713 248.157 272.657 248.157 H 269.757 C 269.657 248.157 269.757 248.257 269.757 248.157 V 242.357 C 269.757 242.257 269.657 242.357 269.757 242.357 H 272.657 C 272.713 242.357 272.757 242.312 272.757 242.257 V 236.257 C 272.757 236.201 272.713 236.157 272.657 236.157 H 269.757 C 269.657 236.157 269.757 236.257 269.757 236.157 V 230.357 C 269.757 230.257 269.657 230.357 269.757 230.357 H 272.657 C 272.713 230.357 272.757 230.312 272.757 230.257 V 224.257 C 272.757 224.201 272.713 224.157 272.657 224.157 H 269.757 C 269.657 224.157 269.757 224.257 269.757 224.157 V 218.357 C 269.757 218.257 269.657 218.357 269.757 218.357 H 272.657 C 272.713 218.357 272.757 218.312 272.757 218.257 V 212.257 C 272.757 212.201 272.713 212.157 272.657 212.157 H 269.757 C 269.657 212.157 269.757 212.257 269.757 212.157 V 205.807 C 269.757 205.707 269.657 205.807 269.757 205.807 H 272.657 C 272.713 205.807 272.757 205.762 272.757 205.707 C 272.757 205.651 272.713 205.607 272.657 205.607 H 269.657 H 257.657 C 256.622 205.607 255.604 205.334 254.707 204.816 C 253.811 204.298 253.066 203.554 252.548 202.657 C 252.013 201.729 251.242 200.959 250.315 200.424 C 249.388 199.889 248.336 199.607 247.265 199.607 H 151.050 C 149.979 199.607 148.927 199.889 148.000 200.424 C 147.072 200.959 146.302 201.729 145.767 202.657 C 145.249 203.554 144.504 204.298 143.607 204.816 C 142.711 205.334 141.693 205.607 140.657 205.607 H 128.657 C 128.602 205.607 128.557 205.651 128.557 205.707 C 128.557 205.696 128.559 205.684 128.563 205.674 L 110.706 257.224 C 110.702 257.234 110.700 257.246 110.700 257.257 V 264.467 C 110.700 264.567 110.800 264.467 110.700 264.467 H 107.800 C 107.745 264.467 107.700 264.511 107.700 264.567 V 270.567 C 107.700 270.622 107.745 270.667 107.800 270.667 H 110.700 C 110.800 270.667 110.700 270.567 110.700 270.667 V 277.877 C 110.700 277.894 110.705 277.911 110.713 277.927 L 115.092 285.511 C 115.142 285.597 115.179 285.461 115.092 285.511 L 112.581 286.961 C 112.533 286.988 112.516 287.050 112.544 287.097 L 115.544 292.294 C 115.572 292.341 115.633 292.358 115.681 292.330 L 118.192 290.880 C 118.279 290.830 118.142 290.794 118.192 290.880 L 121.092 295.903 C 121.142 295.990 121.179 295.853 121.092 295.903 L 118.581 297.353 C 118.533 297.381 118.516 297.442 118.544 297.490 L 121.544 302.686 C 121.572 302.734 121.633 302.750 121.681 302.723 L 124.192 301.273 C 124.279 301.223 124.142 301.186 124.192 301.273 L 128.557 308.833 C 128.571 308.857 128.557 308.807 128.557 308.833 V 320.807 C 128.557 320.862 128.602 320.907 128.657 320.907" stroke="rgb(0,0,0)" stroke-width="0.20" />
</g>
<g id="p-8" style="fill:none;stroke-linecap:round;stroke-linejoin:round;">
  <path d="M 241.300 180.107 H 244.200 C 244.300 180.107 244.200 180.207 244.200 180.107 V 177.307 C 244.200 177.207 244.300 177.307 244.200 177.307 H 238.400 C 238.300 177.307 238.400 177.207 238.400 177.307 V 180.107 C 238.400 180.207 238.300 180.107 238.400 180.107 H 241.300 Z" stroke="rgb(0,0,255)" stroke-width="0.20" />
  <path d="M 229.300 180.107 H 232.200 C 232.300 180.107 232.200 180.207 232.200 180.107 V 177.307 C 232.200 177.207 232.300 177.307 232.200 177.307 H 226.400 C 226.300 177.307 226.400 177.207 226.400 177.307 V 180.107 C 226.400 180.207 226.300 180.107 226.400 180.107 H 229.300 Z" stroke="rgb(0,0,255)" stroke-width="0.20" />
  <path d="M 217.300 180.107 H 220.200 C 220.300 180.107 220.200 180.207 220.200 180.107 V 177.307 C 220.200 177.207 220.300 177.307 220.200 177.307 H 214.400 C 214.300 177.307 214.400 177.207 214.400 177.307 V 180.107 C 214.400 180.207 214.300 180.107 214.400 180.107 H 217.300 Z" stroke="rgb(0,0,255)" stroke-width="0.20" />
  <path d="M 205.300 180.107 H 208.200 C 208.300 180.107 208.200 180.207 208.200 180.107 V 177.307 C 208.200 177.207 208.300 177.307 208.200 177.307 H 202.400 C 202.300 177.307 202.400 177.207 202.400 177.307 V 180.107 C 202.400 180.207 202.300 180.107 202.400 180.107 H 205.300 Z" stroke="rgb(0,0,255)" stroke-width="0.20" />
  <path d="M 193.300 180.107 H 196.200 C 196.300 180.107 196.200 180.207 196.200 180.107 V 177.307 C 196.200 177.207 196.300 177.307 196.200 177.307 H 190.400 C 190.300 177.307 190.400 177.207 190.400 177.307 V 180.107 C 190.400 180.207 190.300 180.107 190.400 180.107 H 193.300 Z" stroke="rgb(0,0,255)" stroke-width="0.20" />
  <path d="M 181.300 180.107 H 184.200 C 184.300 180.107 184.200 180.207 184.200 180.107 V 177.307 C 184.200 177.207 184.300 177.307 184.200 177.307 H 178.400 C 178.300 177.307 178.400 177.207 178.400 177.307 V 180.107 C 178.400 180.207 178.300 180.107 178.400 180.107 H 181.300 Z" stroke="rgb(0,0,255)" stroke-width="0.20" />
  <path d="M 169.300 180.107 H 172.200 C 172.300 180.107 172.200 180.207 172.200 180.107 V 177.307 C 172.200 177.207 172.300 177.307 172.200 177.307 H 166.400 C 166.300 177.307 166.400 177.207 166.400 177.307 V 180.107 C 166.400 180.207 166.300 180.107 166.400 180.107 H 169.300 Z" stroke="rgb(0,0,255)" stroke-width="0.20" />
  <path d="M 157.300 180.107 H 160.200 C 160.300 180.107 160.200 180.207 160.200 180.107 V 177.307 C 160.200 177.207 160.300 177.307 160.200 177.307 H 154.400 C 154.300 177.307 154.400 177.207 154.400 177.307 V 180.107 C 154.400 180.207 154.300 180.107 154.400 180.107 H 157.300 Z" stroke="rgb(0,0,255)" stroke-width="0.20" />
  <path d="M 145.300 180.107 H 148.200 C 148.300 180.107 148.200 180.207 148.200 180.107 V 177.307 C 148.200 177.207 148.300 177.307 148.200 177.307 H 142.400 C 142.300 177.307 142.400 177.207 142.400 177.307 V 180.107 C 142.400 180.207 142.300 180.107 142.400 180.107 H 145.300 Z" stroke="rgb(0,0,255)" stroke-width="0.20" />
  <path d="M 133.300 180.107 H 136.200 C 136.300 180.107 136.200 180.207 136.200 180.107 V 177.307 C 136.200 177.207 136.300 177.307 136.200 177.307 H 130.400 C 130.300 177.307 130.400 177.207 130.400 177.307 V 180.107 C 130.400 180.207 130.300 180.107 130.400 180.107 H 133.300 Z" stroke="rgb(0,0,255)" stroke-width="0.20" />
  <path d="M 121.300 180.107 H 124.200 C 124.300 180.107 124.200 180.207 124.200 180.107 V 177.307 C 124.200 177.207 124.300 177.307 124.200 177.307 H 118.400 C 118.300 177.307 118.400 177.207 118.400 177.307 V 180.107 C 118.400 180.207 118.300 180.107 118.400 180.107 H 121.300 Z" stroke="rgb(0,0,255)" stroke-width="0.20" />
</g>
<g id="p-9" style="fill:none;stroke-linecap:round;stroke-linejoin:round;">
  <path d="M 251.800 197.257 H 113.950 C 113.895 197.257 113.850 197.212 113.850 197.157 V 189.957 C 113.850 189.901 113.895 189.857 113.950 189.857 H 251.800 C 251.855 189.857 251.900 189.901 251.900 189.957 V 197.157 C 251.900 197.212 251.855 197.257 251.800 197.257 Z" stroke="rgb(0,0,0)" stroke-width="0.20" />
</g>
<g id="p-10" style="fill:none;stroke-linecap:round;stroke-linejoin:round;">
  <text dominant-baseline="hanging" font-size="4px" style="font-family: sans-serif ; font-weight: normal; font-style: normal; fill: rgb(255,0,0)" text-anchor="middle" transform="matrix( 1.000 0.000 0.000 1.000 190.229 131.107 )">right side</text><path d="M 251.800 189.207 H 239.800 C 238.729 189.207 237.677 188.925 236.750 188.389 C 235.823 187.854 235.053 187.084 234.517 186.157 C 233.999 185.260 233.255 184.515 232.358 183.997 C 231.461 183.479 230.443 183.207 229.408 183.207 H 133.192 C 132.157 183.207 131.139 183.479 130.242 183.997 C 129.345 184.515 128.601 185.260 128.083 186.157 C 127.547 187.084 126.777 187.854 125.850 188.389 C 124.923 188.925 123.871 189.207 122.800 189.207 H 110.800 H 107.800 C 107.745 189.207 107.700 189.162 107.700 189.107 V 177.107 C 107.700 177.051 107.745 177.007 107.800 177.007 H 110.700 C 110.800 177.007 110.700 177.107 110.700 177.007 V 170.657 C 110.700 170.557 110.800 170.657 110.700 170.657 H 107.800 C 107.745 170.657 107.700 170.612 107.700 170.557 V 164.557 C 107.700 164.501 107.745 164.457 107.800 164.457 H 110.700 C 110.800 164.457 110.700 164.557 110.700 164.457 V 158.657 C 110.700 158.557 110.800 158.657 110.700 158.657 H 107.800 C 107.745 158.657 107.700 158.612 107.700 158.557 V 152.557 C 107.700 152.501 107.745 152.457 107.800 152.457 H 110.700 C 110.800 152.457 110.700 152.557 110.700 152.457 V 146.657 C 110.700 146.557 110.800 146.657 110.700 146.657 H 107.800 C 107.745 146.657 107.700 146.612 107.700 146.557 V 140.557 C 107.700 140.501 107.745 140.457 107.800 140.457 H 110.700 C 110.800 140.457 110.700 140.557 110.700 140.457 V 134.657 C 110.700 134.557 110.800 134.657 110.700 134.657 H 107.800 C 107.745 134.657 107.700 134.612 107.700 134.557 V 128.557 C 107.700 128.501 107.745 128.457 107.800 128.457 H 110.700 C 110.800 128.457 110.700 128.557 110.700 128.457 V 122.657 C 110.700 122.557 110.800 122.657 110.700 122.657 H 107.800 C 107.745 122.657 107.700 122.612 107.700 122.557 V 116.557 C 107.700 116.501 107.745 116.457 107.800 116.457 H 110.700 C 110.800 116.457 110.700 116.557 110.700 116.457 V 110.657 C 110.700 110.557 110.800 110.657 110.700 110.657 H 107.800 C 107.745 110.657 107.700 110.612 107.700 110.557 V 104.557 C 107.700 104.501 107.745 104.457 107.800 104.457 H 110.700 C 110.800 104.457 110.700 104.557 110.700 104.457 V 98.657 C 110.700 98.557 110.800 98.657 110.700 98.657 H 107.800 C 107.745 98.657 107.700 98.612 107.700 98.557 V 92.557 C 107.700 92.501 107.745 92.457 107.800 92.457 H 110.700 C 110.800 92.457 110.700 92.557 110.700 92.457 V 86.657 C 110.700 86.557 110.800 86.657 110.700 86.657 H 107.800 C 107.745 86.657 107.700 86.612 107.700 86.557 V 80.557 C 107.700 80.501 107.745 80.457 107.800 80.457 H 110.700 C 110.800 80.457 110.700 80.557 110.700 80.457 V 74.107 C 110.700 74.007 110.800 74.107 110.700 74.107 H 107.800 C 107.745 74.107 107.700 74.062 107.700 74.007 C 107.700 73.951 107.745 73.907 107.800 73.907 H 110.800 H 122.800 C 123.836 73.907 124.853 73.634 125.750 73.116 C 126.647 72.598 127.392 71.854 127.910 70.957 C 128.445 70.029 129.215 69.259 130.142 68.724 C 131.070 68.189 132.122 67.907 133.192 67.907 H 229.408 C 230.478 67.907 231.530 68.189 232.458 68.724 C 233.385 69.259 234.155 70.029 234.690 70.957 C 235.208 71.854 235.953 72.598 236.850 73.116 C 237.747 73.634 238.764 73.907 239.800 73.907 H 251.800 C 251.855 73.907 251.900 73.951 251.900 74.007 C 251.900 73.996 251.898 73.984 251.894 73.974 L 269.752 125.524 C 269.756 125.534 269.757 125.546 269.757 125.557 V 132.767 C 269.757 132.867 269.657 132.767 269.757 132.767 H 272.657 C 272.713 132.767 272.757 132.811 272.757 132.867 V 138.867 C 272.757 138.922 272.713 138.967 272.657 138.967 H 269.757 C 269.657 138.967 269.757 138.867 269.757 138.967 V 146.177 C 269.757 146.194 269.753 146.211 269.744 146.227 L 265.365 153.811 C 265.315 153.897 265.279 153.761 265.365 153.811 L 267.877 155.261 C 267.925 155.288 267.941 155.350 267.913 155.397 L 264.913 160.594 C 264.886 160.641 264.825 160.658 264.777 160.630 L 262.265 159.180 C 262.179 159.130 262.315 159.094 262.265 159.180 L 259.365 164.203 C 259.315 164.290 259.279 164.153 259.365 164.203 L 261.877 165.653 C 261.925 165.681 261.941 165.742 261.913 165.790 L 258.913 170.986 C 258.886 171.034 258.825 171.050 258.777 171.023 L 256.265 169.573 C 256.179 169.523 256.315 169.486 256.265 169.573 L 251.900 177.133 C 251.887 177.157 251.900 177.107 251.900 177.133 V 189.107 C 251.900 189.162 251.855 189.207 251.800 189.207" stroke="rgb(0,0,0)" stroke-width="0.20" />
</g>
</svg>