<?xml version='1.0' encoding='utf-8'?>
<svg height="181.35mm" viewBox="0.0 0.0 196.28 181.35" width="196.28mm" xmlns="http://www.w3.org/2000/svg" xmlns:cc="http://creativecommons.org/ns#" xmlns:dc="http://purl.org/dc/elements/1.1/" xmlns:inkscape="http://www.inkscape.org/namespaces/inkscape" xmlns:rdf="http://www.w3.org/1999/02/22-rdf-syntax-ns#" xmlns:svg="http://www.w3.org/2000/svg" xmlns:xlink="http://www.w3.org/1999/xlink">
<!--
WallWrenchHolder - Hold a set of wrenches at a wall

Created with Boxes.py (https://festi.info/boxes.py)
Command line (remove spaces between dashes): boxes WallWrenchHolder
-->
<title>WallWrenchHolder</title>
<metadata>
<rdf:RDF><cc:Work>
<dc:title>WallMounted - WallWrenchHolder</dc:title>
<dc:source>boxes WallWrenchHolder</dc:source>
<dc:description>Hold a set of wrenches at a wall

Created with Boxes.py (https://festi.info/boxes.py)
Command line: boxes WallWrenchHolder
Command line short: boxes WallWrenchHolder
</dc:description>
</cc:Work></rdf:RDF></metadata>
<g id="p-0" style="fill:none;stroke-linecap:round;stroke-linejoin:round;">
  <path d="M 10.779 171.351 H 110.779 V 161.351 H 10.779 V 171.351 Z" stroke="rgb(0,0,0)" stroke-width="0.20" />
  <text dominant-baseline="hanging" font-size="6px" style="font-family: sans-serif ; font-weight: normal; font-style: normal; fill: rgb(255,0,0)" text-anchor="middle" transform="matrix( 1.000 0.000 0.000 1.000 60.779 163.351 )">100.0mm, burn:0.10mm</text>
</g>
<g id="p-1" style="fill:none;stroke-linecap:round;stroke-linejoin:round;">
  <path d="M 10.779 159.651 H 40.779 H 43.779 C 43.834 159.651 43.879 159.606 43.879 159.551 C 43.879 159.496 43.834 159.451 43.779 159.451 H 40.879 C 40.779 159.451 40.879 159.551 40.879 159.451 V 147.925 C 40.879 147.825 40.779 147.925 40.879 147.925 H 43.779 C 43.834 147.925 43.879 147.881 43.879 147.825 V 141.825 C 43.879 141.770 43.834 141.725 43.779 141.725 H 40.879 C 40.779 141.725 40.879 141.825 40.879 141.725 V 135.925 C 40.879 135.825 40.779 135.925 40.879 135.925 H 43.779 C 43.834 135.925 43.879 135.881 43.879 135.825 V 129.825 C 43.879 129.770 43.834 129.725 43.779 129.725 H 40.879 C 40.779 129.725 40.879 129.825 40.879 129.725 V 123.925 C 40.879 123.825 40.779 123.925 40.879 123.925 H 43.779 C 43.834 123.925 43.879 123.881 43.879 123.825 V 117.825 C 43.879 117.770 43.834 117.725 43.779 117.725 H 40.879 C 40.779 117.725 40.879 117.825 40.879 117.725 V 111.925 C 40.879 111.825 40.779 111.925 40.879 111.925 H 43.779 C 43.834 111.925 43.879 111.881 43.879 111.825 V 105.825 C 43.879 105.770 43.834 105.725 43.779 105.725 H 40.879 C 40.779 105.725 40.879 105.825 40.879 105.725 V 99.925 C 40.879 99.825 40.779 99.925 40.879 99.925 H 43.779 C 43.834 99.925 43.879 99.881 43.879 99.825 V 93.825 C 43.879 93.770 43.834 93.725 43.779 93.725 H 40.879 C 40.779 93.725 40.879 93.825 40.879 93.725 V 87.925 C 40.879 87.825 40.779 87.925 40.879 87.925 H 43.779 C 43.834 87.925 43.879 87.881 43.879 87.825 V 81.825 C 43.879 81.770 43.834 81.725 43.779 81.725 H 40.879 C 40.779 81.725 40.879 81.825 40.879 81.725 V 75.925 C 40.879 75.825 40.779 75.925 40.879 75.925 H 43.779 C 43.834 75.925 43.879 75.881 43.879 75.825 V 69.825 C 43.879 69.770 43.834 69.725 43.779 69.725 H 40.879 C 40.779 69.725 40.879 69.825 40.879 69.725 V 63.925 C 40.879 63.825 40.779 63.925 40.879 63.925 H 43.779 C 43.834 63.925 43.879 63.881 43.879 63.825 V 57.825 C 43.879 57.770 43.834 57.725 43.779 57.725 H 40.879 C 40.779 57.725 40.879 57.825 40.879 57.725 V 51.925 C 40.879 51.825 40.779 51.925 40.879 51.925 H 43.779 C 43.834 51.925 43.879 51.881 43.879 51.825 V 45.825 C 43.879 45.770 43.834 45.725 43.779 45.725 H 40.879 C 40.779 45.725 40.879 45.825 40.879 45.725 V 39.925 C 40.879 39.825 40.779 39.925 40.879 39.925 H 43.779 C 43.834 39.925 43.879 39.881 43.879 39.825 V 33.825 C 43.879 33.770 43.834 33.725 43.779 33.725 H 40.879 C 40.779 33.725 40.879 33.825 40.879 33.725 V 27.925 C 40.879 27.825 40.779 27.925 40.879 27.925 H 43.779 C 43.834 27.925 43.879 27.881 43.879 27.825 V 21.825 C 43.879 21.770 43.834 21.725 43.779 21.725 H 40.879 C 40.779 21.725 40.879 21.825 40.879 21.725 V 10.200 C 40.879 10.100 40.779 10.200 40.879 10.200 H 43.779 C 43.834 10.200 43.879 10.155 43.879 10.100 C 43.879 10.045 43.834 10.000 43.779 10.000 H 40.779 H 10.779 C 10.724 10.000 10.679 10.045 10.679 10.100 V 13.100 C 10.679 13.127 10.690 13.152 10.708 13.171 L 19.547 22.010 C 19.721 22.183 19.846 22.400 19.909 22.637 C 19.973 22.875 19.973 23.124 19.909 23.362 C 19.846 23.599 19.721 23.816 19.547 23.989 C 19.373 24.163 19.157 24.288 18.920 24.352 C 18.682 24.415 18.432 24.415 18.195 24.352 C 17.957 24.288 17.741 24.163 17.567 23.989 L 12.971 19.393 C 12.747 19.169 12.462 19.017 12.152 18.955 C 11.841 18.894 11.520 18.925 11.227 19.046 C 10.935 19.168 10.685 19.373 10.509 19.636 C 10.333 19.899 10.240 20.208 10.240 20.525 C 10.240 20.735 10.281 20.943 10.361 21.137 C 10.442 21.331 10.560 21.507 10.708 21.656 L 20.833 31.780 C 21.018 31.966 21.151 32.196 21.219 32.449 C 21.286 32.702 21.286 32.968 21.219 33.221 C 21.151 33.473 21.018 33.704 20.833 33.889 C 20.648 34.074 20.417 34.207 20.164 34.275 C 19.912 34.343 19.645 34.343 19.393 34.275 C 19.140 34.207 18.909 34.074 18.724 33.889 L 13.100 28.264 C 12.863 28.028 12.562 27.867 12.234 27.801 C 11.906 27.736 11.566 27.770 11.257 27.898 C 10.948 28.026 10.684 28.242 10.498 28.520 C 10.312 28.799 10.213 29.125 10.213 29.460 C 10.213 29.682 10.257 29.902 10.342 30.107 C 10.427 30.312 10.551 30.499 10.708 30.656 L 22.118 42.066 C 22.315 42.262 22.456 42.507 22.528 42.775 C 22.600 43.043 22.600 43.325 22.528 43.594 C 22.456 43.862 22.315 44.106 22.118 44.303 C 21.922 44.499 21.677 44.640 21.409 44.712 C 21.141 44.784 20.859 44.784 20.590 44.712 C 20.322 44.640 20.078 44.499 19.881 44.303 L 13.228 37.649 C 12.979 37.400 12.661 37.231 12.316 37.162 C 11.970 37.093 11.612 37.128 11.286 37.263 C 10.961 37.398 10.682 37.626 10.487 37.919 C 10.291 38.212 10.186 38.557 10.186 38.909 C 10.186 39.143 10.232 39.375 10.322 39.591 C 10.412 39.807 10.543 40.004 10.708 40.169 L 23.404 52.865 C 23.612 53.073 23.761 53.331 23.837 53.615 C 23.913 53.899 23.913 54.197 23.837 54.481 C 23.761 54.764 23.612 55.023 23.404 55.231 C 23.196 55.438 22.938 55.588 22.654 55.664 C 22.371 55.740 22.072 55.740 21.788 55.664 C 21.505 55.588 21.246 55.438 21.038 55.231 L 13.357 47.549 C 13.095 47.287 12.761 47.109 12.398 47.036 C 12.035 46.964 11.658 47.001 11.316 47.143 C 10.974 47.285 10.681 47.525 10.475 47.833 C 10.270 48.141 10.160 48.503 10.160 48.873 C 10.160 49.119 10.208 49.363 10.302 49.590 C 10.396 49.817 10.534 50.023 10.708 50.197 L 24.690 64.179 C 24.909 64.398 25.066 64.670 25.146 64.969 C 25.226 65.268 25.226 65.583 25.146 65.882 C 25.066 66.181 24.909 66.454 24.690 66.673 C 24.471 66.892 24.198 67.049 23.899 67.129 C 23.600 67.210 23.285 67.210 22.986 67.129 C 22.687 67.049 22.414 66.892 22.196 66.673 L 13.485 57.963 C 13.211 57.688 12.861 57.501 12.480 57.425 C 12.099 57.350 11.704 57.388 11.345 57.537 C 10.987 57.686 10.680 57.937 10.464 58.260 C 10.248 58.583 10.133 58.963 10.133 59.351 C 10.133 59.609 10.184 59.864 10.283 60.103 C 10.381 60.341 10.526 60.557 10.708 60.740 L 25.975 76.007 C 26.206 76.237 26.371 76.524 26.455 76.838 C 26.540 77.153 26.540 77.484 26.455 77.798 C 26.371 78.113 26.206 78.399 25.975 78.630 C 25.745 78.860 25.458 79.025 25.144 79.110 C 24.830 79.194 24.498 79.194 24.184 79.110 C 23.870 79.025 23.583 78.860 23.353 78.630 L 13.614 68.891 C 13.327 68.603 12.960 68.408 12.562 68.328 C 12.163 68.249 11.750 68.290 11.375 68.445 C 10.999 68.601 10.679 68.864 10.453 69.202 C 10.227 69.540 10.107 69.937 10.107 70.344 C 10.107 70.613 10.160 70.880 10.263 71.130 C 10.366 71.379 10.517 71.606 10.708 71.796 L 27.261 88.349 C 27.502 88.590 27.676 88.891 27.765 89.221 C 27.853 89.551 27.853 89.898 27.765 90.228 C 27.676 90.558 27.502 90.859 27.261 91.100 C 27.020 91.342 26.719 91.515 26.389 91.604 C 26.059 91.692 25.712 91.692 25.382 91.604 C 25.052 91.515 24.751 91.342 24.510 91.100 L 13.742 80.333 C 13.442 80.033 13.060 79.829 12.644 79.746 C 12.228 79.663 11.796 79.706 11.404 79.868 C 11.012 80.030 10.677 80.305 10.441 80.658 C 10.206 81.011 10.080 81.426 10.080 81.850 C 10.080 82.132 10.135 82.411 10.243 82.671 C 10.351 82.931 10.509 83.168 10.708 83.367 L 28.547 101.206 C 28.799 101.458 28.981 101.773 29.074 102.118 C 29.166 102.464 29.166 102.827 29.074 103.172 C 28.981 103.518 28.799 103.833 28.547 104.085 C 28.294 104.338 27.979 104.520 27.634 104.612 C 27.288 104.705 26.925 104.705 26.580 104.612 C 26.234 104.520 25.920 104.338 25.667 104.085 L 13.871 92.290 C 13.558 91.977 13.160 91.764 12.726 91.677 C 12.292 91.591 11.842 91.635 11.434 91.805 C 11.025 91.974 10.676 92.261 10.430 92.628 C 10.184 92.996 10.053 93.429 10.053 93.871 C 10.053 94.165 10.111 94.455 10.223 94.727 C 10.336 94.998 10.501 95.245 10.708 95.452 L 29.832 114.576 C 30.096 114.840 30.286 115.169 30.383 115.530 C 30.480 115.891 30.480 116.270 30.383 116.631 C 30.286 116.992 30.096 117.321 29.832 117.585 C 29.568 117.849 29.239 118.039 28.879 118.135 C 28.518 118.232 28.138 118.232 27.778 118.135 C 27.417 118.039 27.088 117.849 26.824 117.585 L 14.000 104.760 C 13.674 104.435 13.259 104.213 12.808 104.123 C 12.356 104.034 11.889 104.080 11.463 104.256 C 11.038 104.432 10.675 104.730 10.419 105.113 C 10.163 105.496 10.027 105.946 10.027 106.406 C 10.027 106.712 10.087 107.014 10.204 107.297 C 10.321 107.579 10.492 107.835 10.708 108.052 L 31.118 128.461 C 31.393 128.737 31.591 129.080 31.692 129.456 C 31.793 129.832 31.793 130.228 31.692 130.604 C 31.591 130.980 31.393 131.323 31.118 131.598 C 30.843 131.874 30.500 132.072 30.124 132.172 C 29.747 132.273 29.351 132.273 28.975 132.172 C 28.599 132.072 28.256 131.874 27.981 131.598 L 14.128 117.745 C 13.790 117.407 13.359 117.177 12.890 117.084 C 12.421 116.990 11.935 117.038 11.493 117.221 C 11.051 117.404 10.673 117.714 10.408 118.112 C 10.142 118.509 10.000 118.977 10.000 119.455 C 10.000 119.773 10.063 120.087 10.184 120.381 C 10.306 120.674 10.484 120.941 10.708 121.165 L 32.404 142.861 C 32.690 143.147 32.896 143.504 33.001 143.896 C 33.106 144.287 33.106 144.699 33.001 145.091 C 32.896 145.482 32.690 145.839 32.404 146.126 C 32.117 146.413 31.760 146.619 31.368 146.724 C 30.977 146.829 30.565 146.829 30.173 146.724 C 29.782 146.619 29.425 146.413 29.138 146.126 L 14.257 131.245 C 13.945 130.933 13.557 130.709 13.132 130.595 C 12.706 130.481 12.258 130.481 11.833 130.595 C 11.408 130.709 11.020 130.933 10.708 131.245 C 10.397 131.556 10.173 131.944 10.059 132.369 C 9.945 132.795 9.945 133.243 10.059 133.668 C 10.173 134.094 10.397 134.482 10.708 134.793 C 10.690 134.774 10.679 134.749 10.679 134.722 V 159.551 C 10.679 159.606 10.724 159.651 10.779 159.651 Z" stroke="rgb(0,0,0)" stroke-width="0.20" />
</g>
<g id="p-2" style="fill:none;stroke-linecap:round;stroke-linejoin:round;">
  <path d="M 45.479 159.651 H 75.479 H 78.479 C 78.534 159.651 78.579 159.606 78.579 159.551 C 78.579 159.496 78.534 159.451 78.479 159.451 H 75.579 C 75.479 159.451 75.579 159.551 75.579 159.451 V 147.925 C 75.579 147.825 75.479 147.925 75.579 147.925 H 78.479 C 78.534 147.925 78.579 147.881 78.579 147.825 V 141.825 C 78.579 141.770 78.534 141.725 78.479 141.725 H 75.579 C 75.479 141.725 75.579 141.825 75.579 141.725 V 135.925 C 75.579 135.825 75.479 135.925 75.579 135.925 H 78.479 C 78.534 135.925 78.579 135.881 78.579 135.825 V 129.825 C 78.579 129.770 78.534 129.725 78.479 129.725 H 75.579 C 75.479 129.725 75.579 129.825 75.579 129.725 V 123.925 C 75.579 123.825 75.479 123.925 75.579 123.925 H 78.479 C 78.534 123.925 78.579 123.881 78.579 123.825 V 117.825 C 78.579 117.770 78.534 117.725 78.479 117.725 H 75.579 C 75.479 117.725 75.579 117.825 75.579 117.725 V 111.925 C 75.579 111.825 75.479 111.925 75.579 111.925 H 78.479 C 78.534 111.925 78.579 111.881 78.579 111.825 V 105.825 C 78.579 105.770 78.534 105.725 78.479 105.725 H 75.579 C 75.479 105.725 75.579 105.825 75.579 105.725 V 99.925 C 75.579 99.825 75.479 99.925 75.579 99.925 H 78.479 C 78.534 99.925 78.579 99.881 78.579 99.825 V 93.825 C 78.579 93.770 78.534 93.725 78.479 93.725 H 75.579 C 75.479 93.725 75.579 93.825 75.579 93.725 V 87.925 C 75.579 87.825 75.479 87.925 75.579 87.925 H 78.479 C 78.534 87.925 78.579 87.881 78.579 87.825 V 81.825 C 78.579 81.770 78.534 81.725 78.479 81.725 H 75.579 C 75.479 81.725 75.579 81.825 75.579 81.725 V 75.925 C 75.579 75.825 75.479 75.925 75.579 75.925 H 78.479 C 78.534 75.925 78.579 75.881 78.579 75.825 V 69.825 C 78.579 69.770 78.534 69.725 78.479 69.725 H 75.579 C 75.479 69.725 75.579 69.825 75.579 69.725 V 63.925 C 75.579 63.825 75.479 63.925 75.579 63.925 H 78.479 C 78.534 63.925 78.579 63.881 78.579 63.825 V 57.825 C 78.579 57.770 78.534 57.725 78.479 57.725 H 75.579 C 75.479 57.725 75.579 57.825 75.579 57.725 V 51.925 C 75.579 51.825 75.479 51.925 75.579 51.925 H 78.479 C 78.534 51.925 78.579 51.881 78.579 51.825 V 45.825 C 78.579 45.770 78.534 45.725 78.479 45.725 H 75.579 C 75.479 45.725 75.579 45.825 75.579 45.725 V 39.925 C 75.579 39.825 75.479 39.925 75.579 39.925 H 78.479 C 78.534 39.925 78.579 39.881 78.579 39.825 V 33.825 C 78.579 33.770 78.534 33.725 78.479 33.725 H 75.579 C 75.479 33.725 75.579 33.825 75.579 33.725 V 27.925 C 75.579 27.825 75.479 27.925 75.579 27.925 H 78.479 C 78.534 27.925 78.579 27.881 78.579 27.825 V 21.825 C 78.579 21.770 78.534 21.725 78.479 21.725 H 75.579 C 75.479 21.725 75.579 21.825 75.579 21.725 V 10.200 C 75.579 10.100 75.479 10.200 75.579 10.200 H 78.479 C 78.534 10.200 78.579 10.155 78.579 10.100 C 78.579 10.045 78.534 10.000 78.479 10.000 H 75.479 H 45.479 C 45.424 10.000 45.379 10.045 45.379 10.100 V 13.100 C 45.379 13.127 45.390 13.152 45.408 13.171 L 54.247 22.010 C 54.421 22.183 54.546 22.400 54.609 22.637 C 54.673 22.875 54.673 23.124 54.609 23.362 C 54.546 23.599 54.421 23.816 54.247 23.989 C 54.073 24.163 53.857 24.288 53.620 24.352 C 53.382 24.415 53.132 24.415 52.895 24.352 C 52.657 24.288 52.441 24.163 52.267 23.989 L 47.671 19.393 C 47.447 19.169 47.162 19.017 46.852 18.955 C 46.541 18.894 46.220 18.925 45.927 19.046 C 45.635 19.168 45.385 19.373 45.209 19.636 C 45.033 19.899 44.940 20.208 44.940 20.525 C 44.940 20.735 44.981 20.943 45.061 21.137 C 45.142 21.331 45.260 21.507 45.408 21.656 L 55.533 31.780 C 55.718 31.966 55.851 32.196 55.919 32.449 C 55.986 32.702 55.986 32.968 55.919 33.221 C 55.851 33.473 55.718 33.704 55.533 33.889 C 55.348 34.074 55.117 34.207 54.864 34.275 C 54.612 34.343 54.345 34.343 54.093 34.275 C 53.840 34.207 53.609 34.074 53.424 33.889 L 47.800 28.264 C 47.563 28.028 47.262 27.867 46.934 27.801 C 46.606 27.736 46.266 27.770 45.957 27.898 C 45.648 28.026 45.384 28.242 45.198 28.520 C 45.012 28.799 44.913 29.125 44.913 29.460 C 44.913 29.682 44.957 29.902 45.042 30.107 C 45.127 30.312 45.251 30.499 45.408 30.656 L 56.818 42.066 C 57.015 42.262 57.156 42.507 57.228 42.775 C 57.300 43.043 57.300 43.325 57.228 43.594 C 57.156 43.862 57.015 44.106 56.818 44.303 C 56.622 44.499 56.377 44.640 56.109 44.712 C 55.841 44.784 55.559 44.784 55.290 44.712 C 55.022 44.640 54.778 44.499 54.581 44.303 L 47.928 37.649 C 47.679 37.400 47.361 37.231 47.016 37.162 C 46.670 37.093 46.312 37.128 45.986 37.263 C 45.661 37.398 45.382 37.626 45.187 37.919 C 44.991 38.212 44.886 38.557 44.886 38.909 C 44.886 39.143 44.932 39.375 45.022 39.591 C 45.112 39.807 45.243 40.004 45.408 40.169 L 58.104 52.865 C 58.312 53.073 58.461 53.331 58.537 53.615 C 58.613 53.899 58.613 54.197 58.537 54.481 C 58.461 54.764 58.312 55.023 58.104 55.231 C 57.896 55.438 57.638 55.588 57.354 55.664 C 57.071 55.740 56.772 55.740 56.488 55.664 C 56.205 55.588 55.946 55.438 55.738 55.231 L 48.057 47.549 C 47.795 47.287 47.461 47.109 47.098 47.036 C 46.735 46.964 46.358 47.001 46.016 47.143 C 45.674 47.285 45.381 47.525 45.175 47.833 C 44.970 48.141 44.860 48.503 44.860 48.873 C 44.860 49.119 44.908 49.363 45.002 49.590 C 45.096 49.817 45.234 50.023 45.408 50.197 L 59.390 64.179 C 59.609 64.398 59.766 64.670 59.846 64.969 C 59.926 65.268 59.926 65.583 59.846 65.882 C 59.766 66.181 59.609 66.454 59.390 66.673 C 59.171 66.892 58.898 67.049 58.599 67.129 C 58.300 67.210 57.985 67.210 57.686 67.129 C 57.387 67.049 57.114 66.892 56.896 66.673 L 48.185 57.963 C 47.911 57.688 47.561 57.501 47.180 57.425 C 46.799 57.350 46.404 57.388 46.045 57.537 C 45.687 57.686 45.380 57.937 45.164 58.260 C 44.948 58.583 44.833 58.963 44.833 59.351 C 44.833 59.609 44.884 59.864 44.983 60.103 C 45.081 60.341 45.226 60.557 45.408 60.740 L 60.675 76.007 C 60.906 76.237 61.071 76.524 61.155 76.838 C 61.240 77.153 61.240 77.484 61.155 77.798 C 61.071 78.113 60.906 78.399 60.675 78.630 C 60.445 78.860 60.158 79.025 59.844 79.110 C 59.530 79.194 59.198 79.194 58.884 79.110 C 58.570 79.025 58.283 78.860 58.053 78.630 L 48.314 68.891 C 48.027 68.603 47.660 68.408 47.262 68.328 C 46.863 68.249 46.450 68.290 46.075 68.445 C 45.699 68.601 45.379 68.864 45.153 69.202 C 44.927 69.540 44.807 69.937 44.807 70.344 C 44.807 70.613 44.860 70.880 44.963 71.130 C 45.066 71.379 45.217 71.606 45.408 71.796 L 61.961 88.349 C 62.202 88.590 62.376 88.891 62.465 89.221 C 62.553 89.551 62.553 89.898 62.465 90.228 C 62.376 90.558 62.202 90.859 61.961 91.100 C 61.720 91.342 61.419 91.515 61.089 91.604 C 60.759 91.692 60.412 91.692 60.082 91.604 C 59.752 91.515 59.451 91.342 59.210 91.100 L 48.442 80.333 C 48.142 80.033 47.760 79.829 47.344 79.746 C 46.928 79.663 46.496 79.706 46.104 79.868 C 45.712 80.030 45.377 80.305 45.141 80.658 C 44.906 81.011 44.780 81.426 44.780 81.850 C 44.780 82.132 44.835 82.411 44.943 82.671 C 45.051 82.931 45.209 83.168 45.408 83.367 L 63.247 101.206 C 63.499 101.458 63.681 101.773 63.774 102.118 C 63.866 102.464 63.866 102.827 63.774 103.172 C 63.681 103.518 63.499 103.833 63.247 104.085 C 62.994 104.338 62.679 104.520 62.334 104.612 C 61.988 104.705 61.625 104.705 61.280 104.612 C 60.934 104.520 60.620 104.338 60.367 104.085 L 48.571 92.290 C 48.258 91.977 47.860 91.764 47.426 91.677 C 46.992 91.591 46.542 91.635 46.134 91.805 C 45.725 91.974 45.376 92.261 45.130 92.628 C 44.884 92.996 44.753 93.429 44.753 93.871 C 44.753 94.165 44.811 94.455 44.923 94.727 C 45.036 94.998 45.201 95.245 45.408 95.452 L 64.532 114.576 C 64.796 114.840 64.986 115.169 65.083 115.530 C 65.180 115.891 65.180 116.270 65.083 116.631 C 64.986 116.992 64.796 117.321 64.532 117.585 C 64.268 117.849 63.939 118.039 63.579 118.135 C 63.218 118.232 62.838 118.232 62.478 118.135 C 62.117 118.039 61.788 117.849 61.524 117.585 L 48.700 104.760 C 48.374 104.435 47.959 104.213 47.508 104.123 C 47.056 104.034 46.589 104.080 46.163 104.256 C 45.738 104.432 45.375 104.730 45.119 105.113 C 44.863 105.496 44.727 105.946 44.727 106.406 C 44.727 106.712 44.787 107.014 44.904 107.297 C 45.021 107.579 45.192 107.835 45.408 108.052 L 65.818 128.461 C 66.093 128.737 66.291 129.080 66.392 129.456 C 66.493 129.832 66.493 130.228 66.392 130.604 C 66.291 130.980 66.093 131.323 65.818 131.598 C 65.543 131.874 65.200 132.072 64.824 132.172 C 64.447 132.273 64.051 132.273 63.675 132.172 C 63.299 132.072 62.956 131.874 62.681 131.598 L 48.828 117.745 C 48.490 117.407 48.059 117.177 47.590 117.084 C 47.121 116.990 46.635 117.038 46.193 117.221 C 45.751 117.404 45.373 117.714 45.108 118.112 C 44.842 118.509 44.700 118.977 44.700 119.455 C 44.700 119.773 44.763 120.087 44.884 120.381 C 45.006 120.674 45.184 120.941 45.408 121.165 L 67.104 142.861 C 67.390 143.147 67.596 143.504 67.701 143.896 C 67.806 144.287 67.806 144.699 67.701 145.091 C 67.596 145.482 67.390 145.839 67.104 146.126 C 66.817 146.413 66.460 146.619 66.068 146.724 C 65.677 146.829 65.265 146.829 64.873 146.724 C 64.482 146.619 64.125 146.413 63.838 146.126 L 48.957 131.245 C 48.645 130.933 48.257 130.709 47.832 130.595 C 47.406 130.481 46.958 130.481 46.533 130.595 C 46.108 130.709 45.720 130.933 45.408 131.245 C 45.097 131.556 44.873 131.944 44.759 132.369 C 44.645 132.795 44.645 133.243 44.759 133.668 C 44.873 134.094 45.097 134.482 45.408 134.793 C 45.390 134.774 45.379 134.749 45.379 134.722 V 159.551 C 45.379 159.606 45.424 159.651 45.479 159.651 Z" stroke="rgb(0,0,0)" stroke-width="0.20" />
</g>
<g id="p-3" style="fill:none;stroke-linecap:round;stroke-linejoin:round;">
  <path d="M 86.179 159.651 H 180.179 H 186.179 C 186.234 159.651 186.279 159.606 186.279 159.551 V 10.100 C 186.279 10.045 186.234 10.000 186.179 10.000 H 180.179 H 86.179 H 80.179 C 80.124 10.000 80.079 10.045 80.079 10.100 V 159.551 C 80.079 159.606 80.124 159.651 80.179 159.651 H 86.179 Z" stroke="rgb(0,0,0)" stroke-width="0.20" />
  <path d="M 180.379 24.825 V 21.925 C 180.379 21.825 180.279 21.925 180.379 21.925 H 183.179 C 183.279 21.925 183.179 21.825 183.179 21.925 V 27.725 C 183.179 27.825 183.279 27.725 183.179 27.725 H 180.379 C 180.279 27.725 180.379 27.825 180.379 27.725 V 24.825 Z" stroke="rgb(0,0,255)" stroke-width="0.20" />
  <path d="M 180.379 36.825 V 33.925 C 180.379 33.825 180.279 33.925 180.379 33.925 H 183.179 C 183.279 33.925 183.179 33.825 183.179 33.925 V 39.725 C 183.179 39.825 183.279 39.725 183.179 39.725 H 180.379 C 180.279 39.725 180.379 39.825 180.379 39.725 V 36.825 Z" stroke="rgb(0,0,255)" stroke-width="0.20" />
  <path d="M 180.379 48.825 V 45.925 C 180.379 45.825 180.279 45.925 180.379 45.925 H 183.179 C 183.279 45.925 183.179 45.825 183.179 45.925 V 51.725 C 183.179 51.825 183.279 51.725 183.179 51.725 H 180.379 C 180.279 51.725 180.379 51.825 180.379 51.725 V 48.825 Z" stroke="rgb(0,0,255)" stroke-width="0.20" />
  <path d="M 180.379 60.825 V 57.925 C 180.379 57.825 180.279 57.925 180.379 57.925 H 183.179 C 183.279 57.925 183.179 57.825 183.179 57.925 V 63.725 C 183.179 63.825 183.279 63.725 183.179 63.725 H 180.379 C 180.279 63.725 180.379 63.825 180.379 63.725 V 60.825 Z" stroke="rgb(0,0,255)" stroke-width="0.20" />
  <path d="M 180.379 72.825 V 69.925 C 180.379 69.825 180.279 69.925 180.379 69.925 H 183.179 C 183.279 69.925 183.179 69.825 183.179 69.925 V 75.725 C 183.179 75.825 183.279 75.725 183.179 75.725 H 180.379 C 180.279 75.725 180.379 75.825 180.379 75.725 V 72.825 Z" stroke="rgb(0,0,255)" stroke-width="0.20" />
  <path d="M 180.379 84.825 V 81.925 C 180.379 81.825 180.279 81.925 180.379 81.925 H 183.179 C 183.279 81.925 183.179 81.825 183.179 81.925 V 87.725 C 183.179 87.825 183.279 87.725 183.179 87.725 H 180.379 C 180.279 87.725 180.379 87.825 180.379 87.725 V 84.825 Z" stroke="rgb(0,0,255)" stroke-width="0.20" />
  <path d="M 180.379 96.825 V 93.925 C 180.379 93.825 180.279 93.925 180.379 93.925 H 183.179 C 183.279 93.925 183.179 93.825 183.179 93.925 V 99.725 C 183.179 99.825 183.279 99.725 183.179 99.725 H 180.379 C 180.279 99.725 180.379 99.825 180.379 99.725 V 96.825 Z" stroke="rgb(0,0,255)" stroke-width="0.20" />
  <path d="M 180.379 108.825 V 105.925 C 180.379 105.825 180.279 105.925 180.379 105.925 H 183.179 C 183.279 105.925 183.179 105.825 183.179 105.925 V 111.725 C 183.179 111.825 183.279 111.725 183.179 111.725 H 180.379 C 180.279 111.725 180.379 111.825 180.379 111.725 V 108.825 Z" stroke="rgb(0,0,255)" stroke-width="0.20" />
  <path d="M 180.379 120.825 V 117.925 C 180.379 117.825 180.279 117.925 180.379 117.925 H 183.179 C 183.279 117.925 183.179 117.825 183.179 117.925 V 123.725 C 183.179 123.825 183.279 123.725 183.179 123.725 H 180.379 C 180.279 123.725 180.379 123.825 180.379 123.725 V 120.825 Z" stroke="rgb(0,0,255)" stroke-width="0.20" />
  <path d="M 180.379 132.825 V 129.925 C 180.379 129.825 180.279 129.925 180.379 129.925 H 183.179 C 183.279 129.925 183.179 129.825 183.179 129.925 V 135.725 C 183.179 135.825 183.279 135.725 183.179 135.725 H 180.379 C 180.279 135.725 180.379 135.825 180.379 135.725 V 132.825 Z" stroke="rgb(0,0,255)" stroke-width="0.20" />
  <path d="M 180.379 144.825 V 141.925 C 180.379 141.825 180.279 141.925 180.379 141.925 H 183.179 C 183.279 141.925 183.179 141.825 183.179 141.925 V 147.725 C 183.179 147.825 183.279 147.725 183.179 147.725 H 180.379 C 180.279 147.725 180.379 147.825 180.379 147.725 V 144.825 Z" stroke="rgb(0,0,255)" stroke-width="0.20" />
  <path d="M 83.179 24.825 V 21.925 C 83.179 21.825 83.079 21.925 83.179 21.925 H 85.979 C 86.079 21.925 85.979 21.825 85.979 21.925 V 27.725 C 85.979 27.825 86.079 27.725 85.979 27.725 H 83.179 C 83.079 27.725 83.179 27.825 83.179 27.725 V 24.825 Z" stroke="rgb(0,0,255)" stroke-width="0.20" />
  <path d="M 83.179 36.825 V 33.925 C 83.179 33.825 83.079 33.925 83.179 33.925 H 85.979 C 86.079 33.925 85.979 33.825 85.979 33.925 V 39.725 C 85.979 39.825 86.079 39.725 85.979 39.725 H 83.179 C 83.079 39.725 83.179 39.825 83.179 39.725 V 36.825 Z" stroke="rgb(0,0,255)" stroke-width="0.20" />
  <path d="M 83.179 48.825 V 45.925 C 83.179 45.825 83.079 45.925 83.179 45.925 H 85.979 C 86.079 45.925 85.979 45.825 85.979 45.925 V 51.725 C 85.979 51.825 86.079 51.725 85.979 51.725 H 83.179 C 83.079 51.725 83.179 51.825 83.179 51.725 V 48.825 Z" stroke="rgb(0,0,255)" stroke-width="0.20" />
  <path d="M 83.179 60.825 V 57.925 C 83.179 57.825 83.079 57.925 83.179 57.925 H 85.979 C 86.079 57.925 85.979 57.825 85.979 57.925 V 63.725 C 85.979 63.825 86.079 63.725 85.979 63.725 H 83.179 C 83.079 63.725 83.179 63.825 83.179 63.725 V 60.825 Z" stroke="rgb(0,0,255)" stroke-width="0.20" />
  <path d="M 83.179 72.825 V 69.925 C 83.179 69.825 83.079 69.925 83.179 69.925 H 85.979 C 86.079 69.925 85.979 69.825 85.979 69.925 V 75.725 C 85.979 75.825 86.079 75.725 85.979 75.725 H 83.179 C 83.079 75.725 83.179 75.825 83.179 75.725 V 72.825 Z" stroke="rgb(0,0,255)" stroke-width="0.20" />
  <path d="M 83.179 84.825 V 81.925 C 83.179 81.825 83.079 81.925 83.179 81.925 H 85.979 C 86.079 81.925 85.979 81.825 85.979 81.925 V 87.725 C 85.979 87.825 86.079 87.725 85.979 87.725 H 83.179 C 83.079 87.725 83.179 87.825 83.179 87.725 V 84.825 Z" stroke="rgb(0,0,255)" stroke-width="0.20" />
  <path d="M 83.179 96.825 V 93.925 C 83.179 93.825 83.079 93.925 83.179 93.925 H 85.979 C 86.079 93.925 85.979 93.825 85.979 93.925 V 99.725 C 85.979 99.825 86.079 99.725 85.979 99.725 H 83.179 C 83.079 99.725 83.179 99.825 83.179 99.725 V 96.825 Z" stroke="rgb(0,0,255)" stroke-width="0.20" />
  <path d="M 83.179 108.825 V 105.925 C 83.179 105.825 83.079 105.925 83.179 105.925 H 85.979 C 86.079 105.925 85.979 105.825 85.979 105.925 V 111.725 C 85.979 111.825 86.079 111.725 85.979 111.725 H 83.179 C 83.079 111.725 83.179 111.825 83.179 111.725 V 108.825 Z" stroke="rgb(0,0,255)" stroke-width="0.20" />
  <path d="M 83.179 120.825 V 117.925 C 83.179 117.825 83.079 117.925 83.179 117.925 H 85.979 C 86.079 117.925 85.979 117.825 85.979 117.925 V 123.725 C 85.979 123.825 86.079 123.725 85.979 123.725 H 83.179 C 83.079 123.725 83.179 123.825 83.179 123.725 V 120.825 Z" stroke="rgb(0,0,255)" stroke-width="0.20" />
  <path d="M 83.179 132.825 V 129.925 C 83.179 129.825 83.079 129.925 83.179 129.925 H 85.979 C 86.079 129.925 85.979 129.825 85.979 129.925 V 135.725 C 85.979 135.825 86.079 135.725 85.979 135.725 H 83.179 C 83.079 135.725 83.179 135.825 83.179 135.725 V 132.825 Z" stroke="rgb(0,0,255)" stroke-width="0.20" />
  <path d="M 83.179 144.825 V 141.925 C 83.179 141.825 83.079 141.925 83.179 141.925 H 85.979 C 86.079 141.925 85.979 141.825 85.979 141.925 V 147.725 C 85.979 147.825 86.079 147.725 85.979 147.725 H 83.179 C 83.079 147.725 83.179 147.825 83.179 147.725 V 144.825 Z" stroke="rgb(0,0,255)" stroke-width="0.20" />
</g>
</svg>