<?xml version='1.0' encoding='utf-8'?>
<svg height="384.50mm" viewBox="0.0 0.0 502.89 384.50" width="502.89mm" xmlns="http://www.w3.org/2000/svg" xmlns:cc="http://creativecommons.org/ns#" xmlns:dc="http://purl.org/dc/elements/1.1/" xmlns:inkscape="http://www.inkscape.org/namespaces/inkscape" xmlns:rdf="http://www.w3.org/1999/02/22-rdf-syntax-ns#" xmlns:svg="http://www.w3.org/2000/svg" xmlns:xlink="http://www.w3.org/1999/xlink">
<!--
WallSlottedHolder - Wall tool holder with slots

Created with Boxes.py (https://boxes.hackerspace-bamberg.de/)
Command line (remove spaces between dashes): boxes WallSlottedHolder
-->
<title>WallSlottedHolder</title>
<metadata>
<rdf:RDF><cc:Work>
<dc:title>WallMounted - WallSlottedHolder</dc:title>
<dc:source>boxes WallSlottedHolder</dc:source>
<dc:description>Wall tool holder with slots

Created with Boxes.py (https://boxes.hackerspace-bamberg.de/)
Command line: boxes WallSlottedHolder
Command line short: boxes WallSlottedHolder
</dc:description>
</cc:Work></rdf:RDF></metadata>
<g id="p-0" style="fill:none;stroke-linecap:round;stroke-linejoin:round;">
  <path d="M 10.100 374.500 H 110.100 V 364.500 H 10.100 V 374.500 Z" stroke="rgb(0,0,0)" stroke-width="0.20" />
  <text dominant-baseline="hanging" font-size="6px" style="font-family: sans-serif ; font-weight: normal; font-style: normal; fill: rgb(255,0,0)" text-anchor="middle" transform="matrix( 1.000 0.000 0.000 1.000 60.100 366.500 )">100.0mm, burn:0.10mm</text>
</g>
<g id="p-1" style="fill:none;stroke-linecap:round;stroke-linejoin:round;">
  <path d="M 14.700 254.700 V 251.800 C 14.700 251.700 14.600 251.800 14.700 251.800 H 17.500 C 17.600 251.800 17.500 251.700 17.500 251.800 V 257.600 C 17.500 257.700 17.600 257.600 17.500 257.600 H 14.700 C 14.600 257.600 14.700 257.700 14.700 257.600 V 254.700 Z" stroke="rgb(0,0,255)" stroke-width="0.20" />
  <path d="M 14.700 266.700 V 263.800 C 14.700 263.700 14.600 263.800 14.700 263.800 H 17.500 C 17.600 263.800 17.500 263.700 17.500 263.800 V 269.600 C 17.500 269.700 17.600 269.600 17.500 269.600 H 14.700 C 14.600 269.600 14.700 269.700 14.700 269.600 V 266.700 Z" stroke="rgb(0,0,255)" stroke-width="0.20" />
  <path d="M 14.700 278.700 V 275.800 C 14.700 275.700 14.600 275.800 14.700 275.800 H 17.500 C 17.600 275.800 17.500 275.700 17.500 275.800 V 281.600 C 17.500 281.700 17.600 281.600 17.500 281.600 H 14.700 C 14.600 281.600 14.700 281.700 14.700 281.600 V 278.700 Z" stroke="rgb(0,0,255)" stroke-width="0.20" />
  <path d="M 14.700 290.700 V 287.800 C 14.700 287.700 14.600 287.800 14.700 287.800 H 17.500 C 17.600 287.800 17.500 287.700 17.500 287.800 V 293.600 C 17.500 293.700 17.600 293.600 17.500 293.600 H 14.700 C 14.600 293.600 14.700 293.700 14.700 293.600 V 290.700 Z" stroke="rgb(0,0,255)" stroke-width="0.20" />
  <path d="M 14.700 302.700 V 299.800 C 14.700 299.700 14.600 299.800 14.700 299.800 H 17.500 C 17.600 299.800 17.500 299.700 17.500 299.800 V 305.600 C 17.500 305.700 17.600 305.600 17.500 305.600 H 14.700 C 14.600 305.600 14.700 305.700 14.700 305.600 V 302.700 Z" stroke="rgb(0,0,255)" stroke-width="0.20" />
  <path d="M 14.700 314.700 V 311.800 C 14.700 311.700 14.600 311.800 14.700 311.800 H 17.500 C 17.600 311.800 17.500 311.700 17.500 311.800 V 317.600 C 17.500 317.700 17.600 317.600 17.500 317.600 H 14.700 C 14.600 317.600 14.700 317.700 14.700 317.600 V 314.700 Z" stroke="rgb(0,0,255)" stroke-width="0.20" />
  <path d="M 14.700 326.700 V 323.800 C 14.700 323.700 14.600 323.800 14.700 323.800 H 17.500 C 17.600 323.800 17.500 323.700 17.500 323.800 V 329.600 C 17.500 329.700 17.600 329.600 17.500 329.600 H 14.700 C 14.600 329.600 14.700 329.700 14.700 329.600 V 326.700 Z" stroke="rgb(0,0,255)" stroke-width="0.20" />
  <path d="M 14.700 338.700 V 335.800 C 14.700 335.700 14.600 335.800 14.700 335.800 H 17.500 C 17.600 335.800 17.500 335.700 17.500 335.800 V 341.600 C 17.500 341.700 17.600 341.600 17.500 341.600 H 14.700 C 14.600 341.600 14.700 341.700 14.700 341.600 V 338.700 Z" stroke="rgb(0,0,255)" stroke-width="0.20" />
  <path d="M 14.700 350.700 V 347.800 C 14.700 347.700 14.600 347.800 14.700 347.800 H 17.500 C 17.600 347.800 17.500 347.700 17.500 347.800 V 353.600 C 17.500 353.700 17.600 353.600 17.500 353.600 H 14.700 C 14.600 353.600 14.700 353.700 14.700 353.600 V 350.700 Z" stroke="rgb(0,0,255)" stroke-width="0.20" />
  <path d="M 212.700 254.700 V 251.800 C 212.700 251.700 212.600 251.800 212.700 251.800 H 215.500 C 215.600 251.800 215.500 251.700 215.500 251.800 V 257.600 C 215.500 257.700 215.600 257.600 215.500 257.600 H 212.700 C 212.600 257.600 212.700 257.700 212.700 257.600 V 254.700 Z" stroke="rgb(0,0,255)" stroke-width="0.20" />
  <path d="M 212.700 266.700 V 263.800 C 212.700 263.700 212.600 263.800 212.700 263.800 H 215.500 C 215.600 263.800 215.500 263.700 215.500 263.800 V 269.600 C 215.500 269.700 215.600 269.600 215.500 269.600 H 212.700 C 212.600 269.600 212.700 269.700 212.700 269.600 V 266.700 Z" stroke="rgb(0,0,255)" stroke-width="0.20" />
  <path d="M 212.700 278.700 V 275.800 C 212.700 275.700 212.600 275.800 212.700 275.800 H 215.500 C 215.600 275.800 215.500 275.700 215.500 275.800 V 281.600 C 215.500 281.700 215.600 281.600 215.500 281.600 H 212.700 C 212.600 281.600 212.700 281.700 212.700 281.600 V 278.700 Z" stroke="rgb(0,0,255)" stroke-width="0.20" />
  <path d="M 212.700 290.700 V 287.800 C 212.700 287.700 212.600 287.800 212.700 287.800 H 215.500 C 215.600 287.800 215.500 287.700 215.500 287.800 V 293.600 C 215.500 293.700 215.600 293.600 215.500 293.600 H 212.700 C 212.600 293.600 212.700 293.700 212.700 293.600 V 290.700 Z" stroke="rgb(0,0,255)" stroke-width="0.20" />
  <path d="M 212.700 302.700 V 299.800 C 212.700 299.700 212.600 299.800 212.700 299.800 H 215.500 C 215.600 299.800 215.500 299.700 215.500 299.800 V 305.600 C 215.500 305.700 215.600 305.600 215.500 305.600 H 212.700 C 212.600 305.600 212.700 305.700 212.700 305.600 V 302.700 Z" stroke="rgb(0,0,255)" stroke-width="0.20" />
  <path d="M 212.700 314.700 V 311.800 C 212.700 311.700 212.600 311.800 212.700 311.800 H 215.500 C 215.600 311.800 215.500 311.700 215.500 311.800 V 317.600 C 215.500 317.700 215.600 317.600 215.500 317.600 H 212.700 C 212.600 317.600 212.700 317.700 212.700 317.600 V 314.700 Z" stroke="rgb(0,0,255)" stroke-width="0.20" />
  <path d="M 212.700 326.700 V 323.800 C 212.700 323.700 212.600 323.800 212.700 323.800 H 215.500 C 215.600 323.800 215.500 323.700 215.500 323.800 V 329.600 C 215.500 329.700 215.600 329.600 215.500 329.600 H 212.700 C 212.600 329.600 212.700 329.700 212.700 329.600 V 326.700 Z" stroke="rgb(0,0,255)" stroke-width="0.20" />
  <path d="M 212.700 338.700 V 335.800 C 212.700 335.700 212.600 335.800 212.700 335.800 H 215.500 C 215.600 335.800 215.500 335.700 215.500 335.800 V 341.600 C 215.500 341.700 215.600 341.600 215.500 341.600 H 212.700 C 212.600 341.600 212.700 341.700 212.700 341.600 V 338.700 Z" stroke="rgb(0,0,255)" stroke-width="0.20" />
  <path d="M 212.700 350.700 V 347.800 C 212.700 347.700 212.600 347.800 212.700 347.800 H 215.500 C 215.600 347.800 215.500 347.700 215.500 347.800 V 353.600 C 215.500 353.700 215.600 353.600 215.500 353.600 H 212.700 C 212.600 353.600 212.700 353.700 212.700 353.600 V 350.700 Z" stroke="rgb(0,0,255)" stroke-width="0.20" />
  <path d="M 43.700 254.700 V 251.800 C 43.700 251.700 43.600 251.800 43.700 251.800 H 46.500 C 46.600 251.800 46.500 251.700 46.500 251.800 V 257.600 C 46.500 257.700 46.600 257.600 46.500 257.600 H 43.700 C 43.600 257.600 43.700 257.700 43.700 257.600 V 254.700 Z" stroke="rgb(0,0,255)" stroke-width="0.20" />
  <path d="M 43.700 266.700 V 263.800 C 43.700 263.700 43.600 263.800 43.700 263.800 H 46.500 C 46.600 263.800 46.500 263.700 46.500 263.800 V 269.600 C 46.500 269.700 46.600 269.600 46.500 269.600 H 43.700 C 43.600 269.600 43.700 269.700 43.700 269.600 V 266.700 Z" stroke="rgb(0,0,255)" stroke-width="0.20" />
  <path d="M 43.700 278.700 V 275.800 C 43.700 275.700 43.600 275.800 43.700 275.800 H 46.500 C 46.600 275.800 46.500 275.700 46.500 275.800 V 281.600 C 46.500 281.700 46.600 281.600 46.500 281.600 H 43.700 C 43.600 281.600 43.700 281.700 43.700 281.600 V 278.700 Z" stroke="rgb(0,0,255)" stroke-width="0.20" />
  <path d="M 43.700 290.700 V 287.800 C 43.700 287.700 43.600 287.800 43.700 287.800 H 46.500 C 46.600 287.800 46.500 287.700 46.500 287.800 V 293.600 C 46.500 293.700 46.600 293.600 46.500 293.600 H 43.700 C 43.600 293.600 43.700 293.700 43.700 293.600 V 290.700 Z" stroke="rgb(0,0,255)" stroke-width="0.20" />
  <path d="M 43.700 302.700 V 299.800 C 43.700 299.700 43.600 299.800 43.700 299.800 H 46.500 C 46.600 299.800 46.500 299.700 46.500 299.800 V 305.600 C 46.500 305.700 46.600 305.600 46.500 305.600 H 43.700 C 43.600 305.600 43.700 305.700 43.700 305.600 V 302.700 Z" stroke="rgb(0,0,255)" stroke-width="0.20" />
  <path d="M 43.700 314.700 V 311.800 C 43.700 311.700 43.600 311.800 43.700 311.800 H 46.500 C 46.600 311.800 46.500 311.700 46.500 311.800 V 317.600 C 46.500 317.700 46.600 317.600 46.500 317.600 H 43.700 C 43.600 317.600 43.700 317.700 43.700 317.600 V 314.700 Z" stroke="rgb(0,0,255)" stroke-width="0.20" />
  <path d="M 43.700 326.700 V 323.800 C 43.700 323.700 43.600 323.800 43.700 323.800 H 46.500 C 46.600 323.800 46.500 323.700 46.500 323.800 V 329.600 C 46.500 329.700 46.600 329.600 46.500 329.600 H 43.700 C 43.600 329.600 43.700 329.700 43.700 329.600 V 326.700 Z" stroke="rgb(0,0,255)" stroke-width="0.20" />
  <path d="M 43.700 338.700 V 335.800 C 43.700 335.700 43.600 335.800 43.700 335.800 H 46.500 C 46.600 335.800 46.500 335.700 46.500 335.800 V 341.600 C 46.500 341.700 46.600 341.600 46.500 341.600 H 43.700 C 43.600 341.600 43.700 341.700 43.700 341.600 V 338.700 Z" stroke="rgb(0,0,255)" stroke-width="0.20" />
  <path d="M 43.700 350.700 V 347.800 C 43.700 347.700 43.600 347.800 43.700 347.800 H 46.500 C 46.600 347.800 46.500 347.700 46.500 347.800 V 353.600 C 46.500 353.700 46.600 353.600 46.500 353.600 H 43.700 C 43.600 353.600 43.700 353.700 43.700 353.600 V 350.700 Z" stroke="rgb(0,0,255)" stroke-width="0.20" />
  <path d="M 78.700 254.700 V 251.800 C 78.700 251.700 78.600 251.800 78.700 251.800 H 81.500 C 81.600 251.800 81.500 251.700 81.500 251.800 V 257.600 C 81.500 257.700 81.600 257.600 81.500 257.600 H 78.700 C 78.600 257.600 78.700 257.700 78.700 257.600 V 254.700 Z" stroke="rgb(0,0,255)" stroke-width="0.20" />
  <path d="M 78.700 266.700 V 263.800 C 78.700 263.700 78.600 263.800 78.700 263.800 H 81.500 C 81.600 263.800 81.500 263.700 81.500 263.800 V 269.600 C 81.500 269.700 81.600 269.600 81.500 269.600 H 78.700 C 78.600 269.600 78.700 269.700 78.700 269.600 V 266.700 Z" stroke="rgb(0,0,255)" stroke-width="0.20" />
  <path d="M 78.700 278.700 V 275.800 C 78.700 275.700 78.600 275.800 78.700 275.800 H 81.500 C 81.600 275.800 81.500 275.700 81.500 275.800 V 281.600 C 81.500 281.700 81.600 281.600 81.500 281.600 H 78.700 C 78.600 281.600 78.700 281.700 78.700 281.600 V 278.700 Z" stroke="rgb(0,0,255)" stroke-width="0.20" />
  <path d="M 78.700 290.700 V 287.800 C 78.700 287.700 78.600 287.800 78.700 287.800 H 81.500 C 81.600 287.800 81.500 287.700 81.500 287.800 V 293.600 C 81.500 293.700 81.600 293.600 81.500 293.600 H 78.700 C 78.600 293.600 78.700 293.700 78.700 293.600 V 290.700 Z" stroke="rgb(0,0,255)" stroke-width="0.20" />
  <path d="M 78.700 302.700 V 299.800 C 78.700 299.700 78.600 299.800 78.700 299.800 H 81.500 C 81.600 299.800 81.500 299.700 81.500 299.800 V 305.600 C 81.500 305.700 81.600 305.600 81.500 305.600 H 78.700 C 78.600 305.600 78.700 305.700 78.700 305.600 V 302.700 Z" stroke="rgb(0,0,255)" stroke-width="0.20" />
  <path d="M 78.700 314.700 V 311.800 C 78.700 311.700 78.600 311.800 78.700 311.800 H 81.500 C 81.600 311.800 81.500 311.700 81.500 311.800 V 317.600 C 81.500 317.700 81.600 317.600 81.500 317.600 H 78.700 C 78.600 317.600 78.700 317.700 78.700 317.600 V 314.700 Z" stroke="rgb(0,0,255)" stroke-width="0.20" />
  <path d="M 78.700 326.700 V 323.800 C 78.700 323.700 78.600 323.800 78.700 323.800 H 81.500 C 81.600 323.800 81.500 323.700 81.500 323.800 V 329.600 C 81.500 329.700 81.600 329.600 81.500 329.600 H 78.700 C 78.600 329.600 78.700 329.700 78.700 329.600 V 326.700 Z" stroke="rgb(0,0,255)" stroke-width="0.20" />
  <path d="M 78.700 338.700 V 335.800 C 78.700 335.700 78.600 335.800 78.700 335.800 H 81.500 C 81.600 335.800 81.500 335.700 81.500 335.800 V 341.600 C 81.500 341.700 81.600 341.600 81.500 341.600 H 78.700 C 78.600 341.600 78.700 341.700 78.700 341.600 V 338.700 Z" stroke="rgb(0,0,255)" stroke-width="0.20" />
  <path d="M 78.700 350.700 V 347.800 C 78.700 347.700 78.600 347.800 78.700 347.800 H 81.500 C 81.600 347.800 81.500 347.700 81.500 347.800 V 353.600 C 81.500 353.700 81.600 353.600 81.500 353.600 H 78.700 C 78.600 353.600 78.700 353.700 78.700 353.600 V 350.700 Z" stroke="rgb(0,0,255)" stroke-width="0.20" />
  <path d="M 113.700 254.700 V 251.800 C 113.700 251.700 113.600 251.800 113.700 251.800 H 116.500 C 116.600 251.800 116.500 251.700 116.500 251.800 V 257.600 C 116.500 257.700 116.600 257.600 116.500 257.600 H 113.700 C 113.600 257.600 113.700 257.700 113.700 257.600 V 254.700 Z" stroke="rgb(0,0,255)" stroke-width="0.20" />
  <path d="M 113.700 266.700 V 263.800 C 113.700 263.700 113.600 263.800 113.700 263.800 H 116.500 C 116.600 263.800 116.500 263.700 116.500 263.800 V 269.600 C 116.500 269.700 116.600 269.600 116.500 269.600 H 113.700 C 113.600 269.600 113.700 269.700 113.700 269.600 V 266.700 Z" stroke="rgb(0,0,255)" stroke-width="0.20" />
  <path d="M 113.700 278.700 V 275.800 C 113.700 275.700 113.600 275.800 113.700 275.800 H 116.500 C 116.600 275.800 116.500 275.700 116.500 275.800 V 281.600 C 116.500 281.700 116.600 281.600 116.500 281.600 H 113.700 C 113.600 281.600 113.700 281.700 113.700 281.600 V 278.700 Z" stroke="rgb(0,0,255)" stroke-width="0.20" />
  <path d="M 113.700 290.700 V 287.800 C 113.700 287.700 113.600 287.800 113.700 287.800 H 116.500 C 116.600 287.800 116.500 287.700 116.500 287.800 V 293.600 C 116.500 293.700 116.600 293.600 116.500 293.600 H 113.700 C 113.600 293.600 113.700 293.700 113.700 293.600 V 290.700 Z" stroke="rgb(0,0,255)" stroke-width="0.20" />
  <path d="M 113.700 302.700 V 299.800 C 113.700 299.700 113.600 299.800 113.700 299.800 H 116.500 C 116.600 299.800 116.500 299.700 116.500 299.800 V 305.600 C 116.500 305.700 116.600 305.600 116.500 305.600 H 113.700 C 113.600 305.600 113.700 305.700 113.700 305.600 V 302.700 Z" stroke="rgb(0,0,255)" stroke-width="0.20" />
  <path d="M 113.700 314.700 V 311.800 C 113.700 311.700 113.600 311.800 113.700 311.800 H 116.500 C 116.600 311.800 116.500 311.700 116.500 311.800 V 317.600 C 116.500 317.700 116.600 317.600 116.500 317.600 H 113.700 C 113.600 317.600 113.700 317.700 113.700 317.600 V 314.700 Z" stroke="rgb(0,0,255)" stroke-width="0.20" />
  <path d="M 113.700 326.700 V 323.800 C 113.700 323.700 113.600 323.800 113.700 323.800 H 116.500 C 116.600 323.800 116.500 323.700 116.500 323.800 V 329.600 C 116.500 329.700 116.600 329.600 116.500 329.600 H 113.700 C 113.600 329.600 113.700 329.700 113.700 329.600 V 326.700 Z" stroke="rgb(0,0,255)" stroke-width="0.20" />
  <path d="M 113.700 338.700 V 335.800 C 113.700 335.700 113.600 335.800 113.700 335.800 H 116.500 C 116.600 335.800 116.500 335.700 116.500 335.800 V 341.600 C 116.500 341.700 116.600 341.600 116.500 341.600 H 113.700 C 113.600 341.600 113.700 341.700 113.700 341.600 V 338.700 Z" stroke="rgb(0,0,255)" stroke-width="0.20" />
  <path d="M 113.700 350.700 V 347.800 C 113.700 347.700 113.600 347.800 113.700 347.800 H 116.500 C 116.600 347.800 116.500 347.700 116.500 347.800 V 353.600 C 116.500 353.700 116.600 353.600 116.500 353.600 H 113.700 C 113.600 353.600 113.700 353.700 113.700 353.600 V 350.700 Z" stroke="rgb(0,0,255)" stroke-width="0.20" />
  <path d="M 148.700 254.700 V 251.800 C 148.700 251.700 148.600 251.800 148.700 251.800 H 151.500 C 151.600 251.800 151.500 251.700 151.500 251.800 V 257.600 C 151.500 257.700 151.600 257.600 151.500 257.600 H 148.700 C 148.600 257.600 148.700 257.700 148.700 257.600 V 254.700 Z" stroke="rgb(0,0,255)" stroke-width="0.20" />
  <path d="M 148.700 266.700 V 263.800 C 148.700 263.700 148.600 263.800 148.700 263.800 H 151.500 C 151.600 263.800 151.500 263.700 151.500 263.800 V 269.600 C 151.500 269.700 151.600 269.600 151.500 269.600 H 148.700 C 148.600 269.600 148.700 269.700 148.700 269.600 V 266.700 Z" stroke="rgb(0,0,255)" stroke-width="0.20" />
  <path d="M 148.700 278.700 V 275.800 C 148.700 275.700 148.600 275.800 148.700 275.800 H 151.500 C 151.600 275.800 151.500 275.700 151.500 275.800 V 281.600 C 151.500 281.700 151.600 281.600 151.500 281.600 H 148.700 C 148.600 281.600 148.700 281.700 148.700 281.600 V 278.700 Z" stroke="rgb(0,0,255)" stroke-width="0.20" />
  <path d="M 148.700 290.700 V 287.800 C 148.700 287.700 148.600 287.800 148.700 287.800 H 151.500 C 151.600 287.800 151.500 287.700 151.500 287.800 V 293.600 C 151.500 293.700 151.600 293.600 151.500 293.600 H 148.700 C 148.600 293.600 148.700 293.700 148.700 293.600 V 290.700 Z" stroke="rgb(0,0,255)" stroke-width="0.20" />
  <path d="M 148.700 302.700 V 299.800 C 148.700 299.700 148.600 299.800 148.700 299.800 H 151.500 C 151.600 299.800 151.500 299.700 151.500 299.800 V 305.600 C 151.500 305.700 151.600 305.600 151.500 305.600 H 148.700 C 148.600 305.600 148.700 305.700 148.700 305.600 V 302.700 Z" stroke="rgb(0,0,255)" stroke-width="0.20" />
  <path d="M 148.700 314.700 V 311.800 C 148.700 311.700 148.600 311.800 148.700 311.800 H 151.500 C 151.600 311.800 151.500 311.700 151.500 311.800 V 317.600 C 151.500 317.700 151.600 317.600 151.500 317.600 H 148.700 C 148.600 317.600 148.700 317.700 148.700 317.600 V 314.700 Z" stroke="rgb(0,0,255)" stroke-width="0.20" />
  <path d="M 148.700 326.700 V 323.800 C 148.700 323.700 148.600 323.800 148.700 323.800 H 151.500 C 151.600 323.800 151.500 323.700 151.500 323.800 V 329.600 C 151.500 329.700 151.600 329.600 151.500 329.600 H 148.700 C 148.600 329.600 148.700 329.700 148.700 329.600 V 326.700 Z" stroke="rgb(0,0,255)" stroke-width="0.20" />
  <path d="M 148.700 338.700 V 335.800 C 148.700 335.700 148.600 335.800 148.700 335.800 H 151.500 C 151.600 335.800 151.500 335.700 151.500 335.800 V 341.600 C 151.500 341.700 151.600 341.600 151.500 341.600 H 148.700 C 148.600 341.600 148.700 341.700 148.700 341.600 V 338.700 Z" stroke="rgb(0,0,255)" stroke-width="0.20" />
  <path d="M 148.700 350.700 V 347.800 C 148.700 347.700 148.600 347.800 148.700 347.800 H 151.500 C 151.600 347.800 151.500 347.700 151.500 347.800 V 353.600 C 151.500 353.700 151.600 353.600 151.500 353.600 H 148.700 C 148.600 353.600 148.700 353.700 148.700 353.600 V 350.700 Z" stroke="rgb(0,0,255)" stroke-width="0.20" />
  <path d="M 183.700 254.700 V 251.800 C 183.700 251.700 183.600 251.800 183.700 251.800 H 186.500 C 186.600 251.800 186.500 251.700 186.500 251.800 V 257.600 C 186.500 257.700 186.600 257.600 186.500 257.600 H 183.700 C 183.600 257.600 183.700 257.700 183.700 257.600 V 254.700 Z" stroke="rgb(0,0,255)" stroke-width="0.20" />
  <path d="M 183.700 266.700 V 263.800 C 183.700 263.700 183.600 263.800 183.700 263.800 H 186.500 C 186.600 263.800 186.500 263.700 186.500 263.800 V 269.600 C 186.500 269.700 186.600 269.600 186.500 269.600 H 183.700 C 183.600 269.600 183.700 269.700 183.700 269.600 V 266.700 Z" stroke="rgb(0,0,255)" stroke-width="0.20" />
  <path d="M 183.700 278.700 V 275.800 C 183.700 275.700 183.600 275.800 183.700 275.800 H 186.500 C 186.600 275.800 186.500 275.700 186.500 275.800 V 281.600 C 186.500 281.700 186.600 281.600 186.500 281.600 H 183.700 C 183.600 281.600 183.700 281.700 183.700 281.600 V 278.700 Z" stroke="rgb(0,0,255)" stroke-width="0.20" />
  <path d="M 183.700 290.700 V 287.800 C 183.700 287.700 183.600 287.800 183.700 287.800 H 186.500 C 186.600 287.800 186.500 287.700 186.500 287.800 V 293.600 C 186.500 293.700 186.600 293.600 186.500 293.600 H 183.700 C 183.600 293.600 183.700 293.700 183.700 293.600 V 290.700 Z" stroke="rgb(0,0,255)" stroke-width="0.20" />
  <path d="M 183.700 302.700 V 299.800 C 183.700 299.700 183.600 299.800 183.700 299.800 H 186.500 C 186.600 299.800 186.500 299.700 186.500 299.800 V 305.600 C 186.500 305.700 186.600 305.600 186.500 305.600 H 183.700 C 183.600 305.600 183.700 305.700 183.700 305.600 V 302.700 Z" stroke="rgb(0,0,255)" stroke-width="0.20" />
  <path d="M 183.700 314.700 V 311.800 C 183.700 311.700 183.600 311.800 183.700 311.800 H 186.500 C 186.600 311.800 186.500 311.700 186.500 311.800 V 317.600 C 186.500 317.700 186.600 317.600 186.500 317.600 H 183.700 C 183.600 317.600 183.700 317.700 183.700 317.600 V 314.700 Z" stroke="rgb(0,0,255)" stroke-width="0.20" />
  <path d="M 183.700 326.700 V 323.800 C 183.700 323.700 183.600 323.800 183.700 323.800 H 186.500 C 186.600 323.800 186.500 323.700 186.500 323.800 V 329.600 C 186.500 329.700 186.600 329.600 186.500 329.600 H 183.700 C 183.600 329.600 183.700 329.700 183.700 329.600 V 326.700 Z" stroke="rgb(0,0,255)" stroke-width="0.20" />
  <path d="M 183.700 338.700 V 335.800 C 183.700 335.700 183.600 335.800 183.700 335.800 H 186.500 C 186.600 335.800 186.500 335.700 186.500 335.800 V 341.600 C 186.500 341.700 186.600 341.600 186.500 341.600 H 183.700 C 183.600 341.600 183.700 341.700 183.700 341.600 V 338.700 Z" stroke="rgb(0,0,255)" stroke-width="0.20" />
  <path d="M 183.700 350.700 V 347.800 C 183.700 347.700 183.600 347.800 183.700 347.800 H 186.500 C 186.600 347.800 186.500 347.700 186.500 347.800 V 353.600 C 186.500 353.700 186.600 353.600 186.500 353.600 H 183.700 C 183.600 353.600 183.700 353.700 183.700 353.600 V 350.700 Z" stroke="rgb(0,0,255)" stroke-width="0.20" />
  <path d="M 10.100 362.800 H 220.100 C 220.155 362.800 220.200 362.755 220.200 362.700 V 242.700 C 220.200 242.645 220.155 242.600 220.100 242.600 H 10.100 C 10.045 242.600 10.000 242.645 10.000 242.700 V 362.700 C 10.000 362.755 10.045 362.800 10.100 362.800 Z" stroke="rgb(0,0,0)" stroke-width="0.20" />
</g>
<g id="p-2" style="fill:none;stroke-linecap:round;stroke-linejoin:round;">
  <path d="M 17.500 227.000 V 229.900 C 17.500 230.000 17.600 229.900 17.500 229.900 H 14.700 C 14.600 229.900 14.700 230.000 14.700 229.900 V 224.100 C 14.700 224.000 14.600 224.100 14.700 224.100 H 17.500 C 17.600 224.100 17.500 224.000 17.500 224.100 V 227.000 Z" stroke="rgb(0,0,255)" stroke-width="0.20" />
  <path d="M 17.500 215.000 V 217.900 C 17.500 218.000 17.600 217.900 17.500 217.900 H 14.700 C 14.600 217.900 14.700 218.000 14.700 217.900 V 212.100 C 14.700 212.000 14.600 212.100 14.700 212.100 H 17.500 C 17.600 212.100 17.500 212.000 17.500 212.100 V 215.000 Z" stroke="rgb(0,0,255)" stroke-width="0.20" />
  <path d="M 17.500 203.000 V 205.900 C 17.500 206.000 17.600 205.900 17.500 205.900 H 14.700 C 14.600 205.900 14.700 206.000 14.700 205.900 V 200.100 C 14.700 200.000 14.600 200.100 14.700 200.100 H 17.500 C 17.600 200.100 17.500 200.000 17.500 200.100 V 203.000 Z" stroke="rgb(0,0,255)" stroke-width="0.20" />
  <path d="M 17.500 191.000 V 193.900 C 17.500 194.000 17.600 193.900 17.500 193.900 H 14.700 C 14.600 193.900 14.700 194.000 14.700 193.900 V 188.100 C 14.700 188.000 14.600 188.100 14.700 188.100 H 17.500 C 17.600 188.100 17.500 188.000 17.500 188.100 V 191.000 Z" stroke="rgb(0,0,255)" stroke-width="0.20" />
  <path d="M 17.500 179.000 V 181.900 C 17.500 182.000 17.600 181.900 17.500 181.900 H 14.700 C 14.600 181.900 14.700 182.000 14.700 181.900 V 176.100 C 14.700 176.000 14.600 176.100 14.700 176.100 H 17.500 C 17.600 176.100 17.500 176.000 17.500 176.100 V 179.000 Z" stroke="rgb(0,0,255)" stroke-width="0.20" />
  <path d="M 17.500 167.000 V 169.900 C 17.500 170.000 17.600 169.900 17.500 169.900 H 14.700 C 14.600 169.900 14.700 170.000 14.700 169.900 V 164.100 C 14.700 164.000 14.600 164.100 14.700 164.100 H 17.500 C 17.600 164.100 17.500 164.000 17.500 164.100 V 167.000 Z" stroke="rgb(0,0,255)" stroke-width="0.20" />
  <path d="M 17.500 155.000 V 157.900 C 17.500 158.000 17.600 157.900 17.500 157.900 H 14.700 C 14.600 157.900 14.700 158.000 14.700 157.900 V 152.100 C 14.700 152.000 14.600 152.100 14.700 152.100 H 17.500 C 17.600 152.100 17.500 152.000 17.500 152.100 V 155.000 Z" stroke="rgb(0,0,255)" stroke-width="0.20" />
  <path d="M 215.500 227.000 V 229.900 C 215.500 230.000 215.600 229.900 215.500 229.900 H 212.700 C 212.600 229.900 212.700 230.000 212.700 229.900 V 224.100 C 212.700 224.000 212.600 224.100 212.700 224.100 H 215.500 C 215.600 224.100 215.500 224.000 215.500 224.100 V 227.000 Z" stroke="rgb(0,0,255)" stroke-width="0.20" />
  <path d="M 215.500 215.000 V 217.900 C 215.500 218.000 215.600 217.900 215.500 217.900 H 212.700 C 212.600 217.900 212.700 218.000 212.700 217.900 V 212.100 C 212.700 212.000 212.600 212.100 212.700 212.100 H 215.500 C 215.600 212.100 215.500 212.000 215.500 212.100 V 215.000 Z" stroke="rgb(0,0,255)" stroke-width="0.20" />
  <path d="M 215.500 203.000 V 205.900 C 215.500 206.000 215.600 205.900 215.500 205.900 H 212.700 C 212.600 205.900 212.700 206.000 212.700 205.900 V 200.100 C 212.700 200.000 212.600 200.100 212.700 200.100 H 215.500 C 215.600 200.100 215.500 200.000 215.500 200.100 V 203.000 Z" stroke="rgb(0,0,255)" stroke-width="0.20" />
  <path d="M 215.500 191.000 V 193.900 C 215.500 194.000 215.600 193.900 215.500 193.900 H 212.700 C 212.600 193.900 212.700 194.000 212.700 193.900 V 188.100 C 212.700 188.000 212.600 188.100 212.700 188.100 H 215.500 C 215.600 188.100 215.500 188.000 215.500 188.100 V 191.000 Z" stroke="rgb(0,0,255)" stroke-width="0.20" />
  <path d="M 215.500 179.000 V 181.900 C 215.500 182.000 215.600 181.900 215.500 181.900 H 212.700 C 212.600 181.900 212.700 182.000 212.700 181.900 V 176.100 C 212.700 176.000 212.600 176.100 212.700 176.100 H 215.500 C 215.600 176.100 215.500 176.000 215.500 176.100 V 179.000 Z" stroke="rgb(0,0,255)" stroke-width="0.20" />
  <path d="M 215.500 167.000 V 169.900 C 215.500 170.000 215.600 169.900 215.500 169.900 H 212.700 C 212.600 169.900 212.700 170.000 212.700 169.900 V 164.100 C 212.700 164.000 212.600 164.100 212.700 164.100 H 215.500 C 215.600 164.100 215.500 164.000 215.500 164.100 V 167.000 Z" stroke="rgb(0,0,255)" stroke-width="0.20" />
  <path d="M 215.500 155.000 V 157.900 C 215.500 158.000 215.600 157.900 215.500 157.900 H 212.700 C 212.600 157.900 212.700 158.000 212.700 157.900 V 152.100 C 212.700 152.000 212.600 152.100 212.700 152.100 H 215.500 C 215.600 152.100 215.500 152.000 215.500 152.100 V 155.000 Z" stroke="rgb(0,0,255)" stroke-width="0.20" />
  <path d="M 46.500 227.000 V 229.900 C 46.500 230.000 46.600 229.900 46.500 229.900 H 43.700 C 43.600 229.900 43.700 230.000 43.700 229.900 V 224.100 C 43.700 224.000 43.600 224.100 43.700 224.100 H 46.500 C 46.600 224.100 46.500 224.000 46.500 224.100 V 227.000 Z" stroke="rgb(0,0,255)" stroke-width="0.20" />
  <path d="M 46.500 215.000 V 217.900 C 46.500 218.000 46.600 217.900 46.500 217.900 H 43.700 C 43.600 217.900 43.700 218.000 43.700 217.900 V 212.100 C 43.700 212.000 43.600 212.100 43.700 212.100 H 46.500 C 46.600 212.100 46.500 212.000 46.500 212.100 V 215.000 Z" stroke="rgb(0,0,255)" stroke-width="0.20" />
  <path d="M 46.500 203.000 V 205.900 C 46.500 206.000 46.600 205.900 46.500 205.900 H 43.700 C 43.600 205.900 43.700 206.000 43.700 205.900 V 200.100 C 43.700 200.000 43.600 200.100 43.700 200.100 H 46.500 C 46.600 200.100 46.500 200.000 46.500 200.100 V 203.000 Z" stroke="rgb(0,0,255)" stroke-width="0.20" />
  <path d="M 46.500 191.000 V 193.900 C 46.500 194.000 46.600 193.900 46.500 193.900 H 43.700 C 43.600 193.900 43.700 194.000 43.700 193.900 V 188.100 C 43.700 188.000 43.600 188.100 43.700 188.100 H 46.500 C 46.600 188.100 46.500 188.000 46.500 188.100 V 191.000 Z" stroke="rgb(0,0,255)" stroke-width="0.20" />
  <path d="M 46.500 179.000 V 181.900 C 46.500 182.000 46.600 181.900 46.500 181.900 H 43.700 C 43.600 181.900 43.700 182.000 43.700 181.900 V 176.100 C 43.700 176.000 43.600 176.100 43.700 176.100 H 46.500 C 46.600 176.100 46.500 176.000 46.500 176.100 V 179.000 Z" stroke="rgb(0,0,255)" stroke-width="0.20" />
  <path d="M 46.500 167.000 V 169.900 C 46.500 170.000 46.600 169.900 46.500 169.900 H 43.700 C 43.600 169.900 43.700 170.000 43.700 169.900 V 164.100 C 43.700 164.000 43.600 164.100 43.700 164.100 H 46.500 C 46.600 164.100 46.500 164.000 46.500 164.100 V 167.000 Z" stroke="rgb(0,0,255)" stroke-width="0.20" />
  <path d="M 46.500 155.000 V 157.900 C 46.500 158.000 46.600 157.900 46.500 157.900 H 43.700 C 43.600 157.900 43.700 158.000 43.700 157.900 V 152.100 C 43.700 152.000 43.600 152.100 43.700 152.100 H 46.500 C 46.600 152.100 46.500 152.000 46.500 152.100 V 155.000 Z" stroke="rgb(0,0,255)" stroke-width="0.20" />
  <path d="M 81.500 227.000 V 229.900 C 81.500 230.000 81.600 229.900 81.500 229.900 H 78.700 C 78.600 229.900 78.700 230.000 78.700 229.900 V 224.100 C 78.700 224.000 78.600 224.100 78.700 224.100 H 81.500 C 81.600 224.100 81.500 224.000 81.500 224.100 V 227.000 Z" stroke="rgb(0,0,255)" stroke-width="0.20" />
  <path d="M 81.500 215.000 V 217.900 C 81.500 218.000 81.600 217.900 81.500 217.900 H 78.700 C 78.600 217.900 78.700 218.000 78.700 217.900 V 212.100 C 78.700 212.000 78.600 212.100 78.700 212.100 H 81.500 C 81.600 212.100 81.500 212.000 81.500 212.100 V 215.000 Z" stroke="rgb(0,0,255)" stroke-width="0.20" />
  <path d="M 81.500 203.000 V 205.900 C 81.500 206.000 81.600 205.900 81.500 205.900 H 78.700 C 78.600 205.900 78.700 206.000 78.700 205.900 V 200.100 C 78.700 200.000 78.600 200.100 78.700 200.100 H 81.500 C 81.600 200.100 81.500 200.000 81.500 200.100 V 203.000 Z" stroke="rgb(0,0,255)" stroke-width="0.20" />
  <path d="M 81.500 191.000 V 193.900 C 81.500 194.000 81.600 193.900 81.500 193.900 H 78.700 C 78.600 193.900 78.700 194.000 78.700 193.900 V 188.100 C 78.700 188.000 78.600 188.100 78.700 188.100 H 81.500 C 81.600 188.100 81.500 188.000 81.500 188.100 V 191.000 Z" stroke="rgb(0,0,255)" stroke-width="0.20" />
  <path d="M 81.500 179.000 V 181.900 C 81.500 182.000 81.600 181.900 81.500 181.900 H 78.700 C 78.600 181.900 78.700 182.000 78.700 181.900 V 176.100 C 78.700 176.000 78.600 176.100 78.700 176.100 H 81.500 C 81.600 176.100 81.500 176.000 81.500 176.100 V 179.000 Z" stroke="rgb(0,0,255)" stroke-width="0.20" />
  <path d="M 81.500 167.000 V 169.900 C 81.500 170.000 81.600 169.900 81.500 169.900 H 78.700 C 78.600 169.900 78.700 170.000 78.700 169.900 V 164.100 C 78.700 164.000 78.600 164.100 78.700 164.100 H 81.500 C 81.600 164.100 81.500 164.000 81.500 164.100 V 167.000 Z" stroke="rgb(0,0,255)" stroke-width="0.20" />
  <path d="M 81.500 155.000 V 157.900 C 81.500 158.000 81.600 157.900 81.500 157.900 H 78.700 C 78.600 157.900 78.700 158.000 78.700 157.900 V 152.100 C 78.700 152.000 78.600 152.100 78.700 152.100 H 81.500 C 81.600 152.100 81.500 152.000 81.500 152.100 V 155.000 Z" stroke="rgb(0,0,255)" stroke-width="0.20" />
  <path d="M 116.500 227.000 V 229.900 C 116.500 230.000 116.600 229.900 116.500 229.900 H 113.700 C 113.600 229.900 113.700 230.000 113.700 229.900 V 224.100 C 113.700 224.000 113.600 224.100 113.700 224.100 H 116.500 C 116.600 224.100 116.500 224.000 116.500 224.100 V 227.000 Z" stroke="rgb(0,0,255)" stroke-width="0.20" />
  <path d="M 116.500 215.000 V 217.900 C 116.500 218.000 116.600 217.900 116.500 217.900 H 113.700 C 113.600 217.900 113.700 218.000 113.700 217.900 V 212.100 C 113.700 212.000 113.600 212.100 113.700 212.100 H 116.500 C 116.600 212.100 116.500 212.000 116.500 212.100 V 215.000 Z" stroke="rgb(0,0,255)" stroke-width="0.20" />
  <path d="M 116.500 203.000 V 205.900 C 116.500 206.000 116.600 205.900 116.500 205.900 H 113.700 C 113.600 205.900 113.700 206.000 113.700 205.900 V 200.100 C 113.700 200.000 113.600 200.100 113.700 200.100 H 116.500 C 116.600 200.100 116.500 200.000 116.500 200.100 V 203.000 Z" stroke="rgb(0,0,255)" stroke-width="0.20" />
  <path d="M 116.500 191.000 V 193.900 C 116.500 194.000 116.600 193.900 116.500 193.900 H 113.700 C 113.600 193.900 113.700 194.000 113.700 193.900 V 188.100 C 113.700 188.000 113.600 188.100 113.700 188.100 H 116.500 C 116.600 188.100 116.500 188.000 116.500 188.100 V 191.000 Z" stroke="rgb(0,0,255)" stroke-width="0.20" />
  <path d="M 116.500 179.000 V 181.900 C 116.500 182.000 116.600 181.900 116.500 181.900 H 113.700 C 113.600 181.900 113.700 182.000 113.700 181.900 V 176.100 C 113.700 176.000 113.600 176.100 113.700 176.100 H 116.500 C 116.600 176.100 116.500 176.000 116.500 176.100 V 179.000 Z" stroke="rgb(0,0,255)" stroke-width="0.20" />
  <path d="M 116.500 167.000 V 169.900 C 116.500 170.000 116.600 169.900 116.500 169.900 H 113.700 C 113.600 169.900 113.700 170.000 113.700 169.900 V 164.100 C 113.700 164.000 113.600 164.100 113.700 164.100 H 116.500 C 116.600 164.100 116.500 164.000 116.500 164.100 V 167.000 Z" stroke="rgb(0,0,255)" stroke-width="0.20" />
  <path d="M 116.500 155.000 V 157.900 C 116.500 158.000 116.600 157.900 116.500 157.900 H 113.700 C 113.600 157.900 113.700 158.000 113.700 157.900 V 152.100 C 113.700 152.000 113.600 152.100 113.700 152.100 H 116.500 C 116.600 152.100 116.500 152.000 116.500 152.100 V 155.000 Z" stroke="rgb(0,0,255)" stroke-width="0.20" />
  <path d="M 151.500 227.000 V 229.900 C 151.500 230.000 151.600 229.900 151.500 229.900 H 148.700 C 148.600 229.900 148.700 230.000 148.700 229.900 V 224.100 C 148.700 224.000 148.600 224.100 148.700 224.100 H 151.500 C 151.600 224.100 151.500 224.000 151.500 224.100 V 227.000 Z" stroke="rgb(0,0,255)" stroke-width="0.20" />
  <path d="M 151.500 215.000 V 217.900 C 151.500 218.000 151.600 217.900 151.500 217.900 H 148.700 C 148.600 217.900 148.700 218.000 148.700 217.900 V 212.100 C 148.700 212.000 148.600 212.100 148.700 212.100 H 151.500 C 151.600 212.100 151.500 212.000 151.500 212.100 V 215.000 Z" stroke="rgb(0,0,255)" stroke-width="0.20" />
  <path d="M 151.500 203.000 V 205.900 C 151.500 206.000 151.600 205.900 151.500 205.900 H 148.700 C 148.600 205.900 148.700 206.000 148.700 205.900 V 200.100 C 148.700 200.000 148.600 200.100 148.700 200.100 H 151.500 C 151.600 200.100 151.500 200.000 151.500 200.100 V 203.000 Z" stroke="rgb(0,0,255)" stroke-width="0.20" />
  <path d="M 151.500 191.000 V 193.900 C 151.500 194.000 151.600 193.900 151.500 193.900 H 148.700 C 148.600 193.900 148.700 194.000 148.700 193.900 V 188.100 C 148.700 188.000 148.600 188.100 148.700 188.100 H 151.500 C 151.600 188.100 151.500 188.000 151.500 188.100 V 191.000 Z" stroke="rgb(0,0,255)" stroke-width="0.20" />
  <path d="M 151.500 179.000 V 181.900 C 151.500 182.000 151.600 181.900 151.500 181.900 H 148.700 C 148.600 181.900 148.700 182.000 148.700 181.900 V 176.100 C 148.700 176.000 148.600 176.100 148.700 176.100 H 151.500 C 151.600 176.100 151.500 176.000 151.500 176.100 V 179.000 Z" stroke="rgb(0,0,255)" stroke-width="0.20" />
  <path d="M 151.500 167.000 V 169.900 C 151.500 170.000 151.600 169.900 151.500 169.900 H 148.700 C 148.600 169.900 148.700 170.000 148.700 169.900 V 164.100 C 148.700 164.000 148.600 164.100 148.700 164.100 H 151.500 C 151.600 164.100 151.500 164.000 151.500 164.100 V 167.000 Z" stroke="rgb(0,0,255)" stroke-width="0.20" />
  <path d="M 151.500 155.000 V 157.900 C 151.500 158.000 151.600 157.900 151.500 157.900 H 148.700 C 148.600 157.900 148.700 158.000 148.700 157.900 V 152.100 C 148.700 152.000 148.600 152.100 148.700 152.100 H 151.500 C 151.600 152.100 151.500 152.000 151.500 152.100 V 155.000 Z" stroke="rgb(0,0,255)" stroke-width="0.20" />
  <path d="M 186.500 227.000 V 229.900 C 186.500 230.000 186.600 229.900 186.500 229.900 H 183.700 C 183.600 229.900 183.700 230.000 183.700 229.900 V 224.100 C 183.700 224.000 183.600 224.100 183.700 224.100 H 186.500 C 186.600 224.100 186.500 224.000 186.500 224.100 V 227.000 Z" stroke="rgb(0,0,255)" stroke-width="0.20" />
  <path d="M 186.500 215.000 V 217.900 C 186.500 218.000 186.600 217.900 186.500 217.900 H 183.700 C 183.600 217.900 183.700 218.000 183.700 217.900 V 212.100 C 183.700 212.000 183.600 212.100 183.700 212.100 H 186.500 C 186.600 212.100 186.500 212.000 186.500 212.100 V 215.000 Z" stroke="rgb(0,0,255)" stroke-width="0.20" />
  <path d="M 186.500 203.000 V 205.900 C 186.500 206.000 186.600 205.900 186.500 205.900 H 183.700 C 183.600 205.900 183.700 206.000 183.700 205.900 V 200.100 C 183.700 200.000 183.600 200.100 183.700 200.100 H 186.500 C 186.600 200.100 186.500 200.000 186.500 200.100 V 203.000 Z" stroke="rgb(0,0,255)" stroke-width="0.20" />
  <path d="M 186.500 191.000 V 193.900 C 186.500 194.000 186.600 193.900 186.500 193.900 H 183.700 C 183.600 193.900 183.700 194.000 183.700 193.900 V 188.100 C 183.700 188.000 183.600 188.100 183.700 188.100 H 186.500 C 186.600 188.100 186.500 188.000 186.500 188.100 V 191.000 Z" stroke="rgb(0,0,255)" stroke-width="0.20" />
  <path d="M 186.500 179.000 V 181.900 C 186.500 182.000 186.600 181.900 186.500 181.900 H 183.700 C 183.600 181.900 183.700 182.000 183.700 181.900 V 176.100 C 183.700 176.000 183.600 176.100 183.700 176.100 H 186.500 C 186.600 176.100 186.500 176.000 186.500 176.100 V 179.000 Z" stroke="rgb(0,0,255)" stroke-width="0.20" />
  <path d="M 186.500 167.000 V 169.900 C 186.500 170.000 186.600 169.900 186.500 169.900 H 183.700 C 183.600 169.900 183.700 170.000 183.700 169.900 V 164.100 C 183.700 164.000 183.600 164.100 183.700 164.100 H 186.500 C 186.600 164.100 186.500 164.000 186.500 164.100 V 167.000 Z" stroke="rgb(0,0,255)" stroke-width="0.20" />
  <path d="M 186.500 155.000 V 157.900 C 186.500 158.000 186.600 157.900 186.500 157.900 H 183.700 C 183.600 157.900 183.700 158.000 183.700 157.900 V 152.100 C 183.700 152.000 183.600 152.100 183.700 152.100 H 186.500 C 186.600 152.100 186.500 152.000 186.500 152.100 V 155.000 Z" stroke="rgb(0,0,255)" stroke-width="0.20" />
  <path d="M 10.100 241.100 H 20.100 C 20.995 241.100 21.875 240.864 22.650 240.417 C 23.425 239.969 24.069 239.325 24.517 238.550 C 24.964 237.775 25.200 236.895 25.200 236.000 V 193.500 C 25.200 193.079 25.311 192.665 25.522 192.300 C 25.732 191.935 26.035 191.632 26.400 191.422 C 26.765 191.211 27.179 191.100 27.600 191.100 C 28.021 191.100 28.435 191.211 28.800 191.422 C 29.165 191.632 29.468 191.935 29.678 192.300 C 29.889 192.665 30.000 193.079 30.000 193.500 V 236.000 C 30.000 236.895 30.236 237.775 30.683 238.550 C 31.131 239.325 31.775 239.969 32.550 240.417 C 33.325 240.864 34.205 241.100 35.100 241.100 H 45.100 H 55.100 C 55.995 241.100 56.875 240.864 57.650 240.417 C 58.425 239.969 59.069 239.325 59.517 238.550 C 59.964 237.775 60.200 236.895 60.200 236.000 V 193.500 C 60.200 193.079 60.311 192.665 60.522 192.300 C 60.732 191.935 61.035 191.632 61.400 191.422 C 61.765 191.211 62.179 191.100 62.600 191.100 C 63.021 191.100 63.435 191.211 63.800 191.422 C 64.165 191.632 64.468 191.935 64.678 192.300 C 64.889 192.665 65.000 193.079 65.000 193.500 V 236.000 C 65.000 236.895 65.236 237.775 65.683 238.550 C 66.131 239.325 66.775 239.969 67.550 240.417 C 68.325 240.864 69.205 241.100 70.100 241.100 H 80.100 H 90.100 C 90.995 241.100 91.875 240.864 92.650 240.417 C 93.425 239.969 94.069 239.325 94.517 238.550 C 94.964 237.775 95.200 236.895 95.200 236.000 V 193.500 C 95.200 193.079 95.311 192.665 95.522 192.300 C 95.732 191.935 96.035 191.632 96.400 191.422 C 96.765 191.211 97.179 191.100 97.600 191.100 C 98.021 191.100 98.435 191.211 98.800 191.422 C 99.165 191.632 99.468 191.935 99.678 192.300 C 99.889 192.665 100.000 193.079 100.000 193.500 V 236.000 C 100.000 236.895 100.236 237.775 100.683 238.550 C 101.131 239.325 101.775 239.969 102.550 240.417 C 103.325 240.864 104.205 241.100 105.100 241.100 H 115.100 H 125.100 C 125.995 241.100 126.875 240.864 127.650 240.417 C 128.425 239.969 129.069 239.325 129.517 238.550 C 129.964 237.775 130.200 236.895 130.200 236.000 V 193.500 C 130.200 193.079 130.311 192.665 130.522 192.300 C 130.732 191.935 131.035 191.632 131.400 191.422 C 131.765 191.211 132.179 191.100 132.600 191.100 C 133.021 191.100 133.435 191.211 133.800 191.422 C 134.165 191.632 134.468 191.935 134.678 192.300 C 134.889 192.665 135.000 193.079 135.000 193.500 V 236.000 C 135.000 236.895 135.236 237.775 135.683 238.550 C 136.131 239.325 136.775 239.969 137.550 240.417 C 138.325 240.864 139.205 241.100 140.100 241.100 H 150.100 H 160.100 C 160.995 241.100 161.875 240.864 162.650 240.417 C 163.425 239.969 164.069 239.325 164.517 238.550 C 164.964 237.775 165.200 236.895 165.200 236.000 V 193.500 C 165.200 193.079 165.311 192.665 165.522 192.300 C 165.732 191.935 166.035 191.632 166.400 191.422 C 166.765 191.211 167.179 191.100 167.600 191.100 C 168.021 191.100 168.435 191.211 168.800 191.422 C 169.165 191.632 169.468 191.935 169.678 192.300 C 169.889 192.665 170.000 193.079 170.000 193.500 V 236.000 C 170.000 236.895 170.236 237.775 170.683 238.550 C 171.131 239.325 171.775 239.969 172.550 240.417 C 173.325 240.864 174.205 241.100 175.100 241.100 H 185.100 H 195.100 C 195.995 241.100 196.875 240.864 197.650 240.417 C 198.425 239.969 199.069 239.325 199.517 238.550 C 199.964 237.775 200.200 236.895 200.200 236.000 V 193.500 C 200.200 193.079 200.311 192.665 200.522 192.300 C 200.732 191.935 201.035 191.632 201.400 191.422 C 201.765 191.211 202.179 191.100 202.600 191.100 C 203.021 191.100 203.435 191.211 203.800 191.422 C 204.165 191.632 204.468 191.935 204.678 192.300 C 204.889 192.665 205.000 193.079 205.000 193.500 V 236.000 C 205.000 236.895 205.236 237.775 205.683 238.550 C 206.131 239.325 206.775 239.969 207.550 240.417 C 208.325 240.864 209.205 241.100 210.100 241.100 H 220.100 C 220.155 241.100 220.200 241.055 220.200 241.000 V 141.000 C 220.200 140.945 220.155 140.900 220.100 140.900 H 10.100 C 10.045 140.900 10.000 140.945 10.000 141.000 V 241.000 C 10.000 241.055 10.045 241.100 10.100 241.100 Z" stroke="rgb(0,0,0)" stroke-width="0.20" />
</g>
<g id="p-3" style="fill:none;stroke-linecap:round;stroke-linejoin:round;">
  <path d="M 26.497 133.400 H 37.397 C 37.497 133.400 37.397 133.300 37.397 133.400 V 136.300 C 37.397 136.355 37.441 136.400 37.497 136.400 H 43.497 C 43.552 136.400 43.597 136.355 43.597 136.300 V 133.400 C 43.597 133.300 43.497 133.400 43.597 133.400 H 49.397 C 49.497 133.400 49.397 133.300 49.397 133.400 V 136.300 C 49.397 136.355 49.441 136.400 49.497 136.400 H 55.497 C 55.552 136.400 55.597 136.355 55.597 136.300 V 133.400 C 55.597 133.300 55.497 133.400 55.597 133.400 H 61.397 C 61.497 133.400 61.397 133.300 61.397 133.400 V 136.300 C 61.397 136.355 61.441 136.400 61.497 136.400 H 67.497 C 67.552 136.400 67.597 136.355 67.597 136.300 V 133.400 C 67.597 133.300 67.497 133.400 67.597 133.400 H 73.397 C 73.497 133.400 73.397 133.300 73.397 133.400 V 136.300 C 73.397 136.355 73.441 136.400 73.497 136.400 H 79.497 C 79.552 136.400 79.597 136.355 79.597 136.300 V 133.400 C 79.597 133.300 79.497 133.400 79.597 133.400 H 85.397 C 85.497 133.400 85.397 133.300 85.397 133.400 V 136.300 C 85.397 136.355 85.441 136.400 85.497 136.400 H 91.497 C 91.552 136.400 91.597 136.355 91.597 136.300 V 133.400 C 91.597 133.300 91.497 133.400 91.597 133.400 H 97.397 C 97.497 133.400 97.397 133.300 97.397 133.400 V 136.300 C 97.397 136.355 97.441 136.400 97.497 136.400 H 103.497 C 103.552 136.400 103.597 136.355 103.597 136.300 V 133.400 C 103.597 133.300 103.497 133.400 103.597 133.400 H 109.397 C 109.497 133.400 109.397 133.300 109.397 133.400 V 136.300 C 109.397 136.355 109.441 136.400 109.497 136.400 H 115.497 C 115.552 136.400 115.597 136.355 115.597 136.300 V 133.400 C 115.597 133.300 115.497 133.400 115.597 133.400 H 126.497 H 129.497 C 129.552 133.400 129.597 133.355 129.597 133.300 C 129.597 133.245 129.552 133.200 129.497 133.200 H 126.597 C 126.497 133.200 126.597 133.300 126.597 133.200 V 124.400 C 126.597 124.300 126.497 124.400 126.597 124.400 H 129.497 C 129.552 124.400 129.597 124.355 129.597 124.300 V 118.300 C 129.597 118.245 129.552 118.200 129.497 118.200 H 126.597 C 126.497 118.200 126.597 118.300 126.597 118.200 V 112.400 C 126.597 112.300 126.497 112.400 126.597 112.400 H 129.497 C 129.552 112.400 129.597 112.355 129.597 112.300 V 106.300 C 129.597 106.245 129.552 106.200 129.497 106.200 H 126.597 C 126.497 106.200 126.597 106.300 126.597 106.200 V 100.400 C 126.597 100.300 126.497 100.400 126.597 100.400 H 129.497 C 129.552 100.400 129.597 100.355 129.597 100.300 V 94.300 C 129.597 94.245 129.552 94.200 129.497 94.200 H 126.597 C 126.497 94.200 126.597 94.300 126.597 94.200 V 88.400 C 126.597 88.300 126.497 88.400 126.597 88.400 H 129.497 C 129.552 88.400 129.597 88.355 129.597 88.300 V 82.300 C 129.597 82.245 129.552 82.200 129.497 82.200 H 126.597 C 126.497 82.200 126.597 82.300 126.597 82.200 V 76.400 C 126.597 76.300 126.497 76.400 126.597 76.400 H 129.497 C 129.552 76.400 129.597 76.355 129.597 76.300 V 70.300 C 129.597 70.245 129.552 70.200 129.497 70.200 H 126.597 C 126.497 70.200 126.597 70.300 126.597 70.200 V 64.400 C 126.597 64.300 126.497 64.400 126.597 64.400 H 129.497 C 129.552 64.400 129.597 64.355 129.597 64.300 V 58.300 C 129.597 58.245 129.552 58.200 129.497 58.200 H 126.597 C 126.497 58.200 126.597 58.300 126.597 58.200 V 52.400 C 126.597 52.300 126.497 52.400 126.597 52.400 H 129.497 C 129.552 52.400 129.597 52.355 129.597 52.300 V 46.300 C 129.597 46.245 129.552 46.200 129.497 46.200 H 126.597 C 126.497 46.200 126.597 46.300 126.597 46.200 V 40.400 C 126.597 40.300 126.497 40.400 126.597 40.400 H 129.497 C 129.552 40.400 129.597 40.355 129.597 40.300 V 34.300 C 129.597 34.245 129.552 34.200 129.497 34.200 H 126.597 C 126.497 34.200 126.597 34.300 126.597 34.200 V 28.400 C 126.597 28.300 126.497 28.400 126.597 28.400 H 129.497 C 129.552 28.400 129.597 28.355 129.597 28.300 V 22.300 C 129.597 22.245 129.552 22.200 129.497 22.200 H 126.597 C 126.497 22.200 126.597 22.300 126.597 22.200 V 13.400 C 126.597 13.300 126.497 13.400 126.597 13.400 H 129.497 C 129.552 13.400 129.597 13.355 129.597 13.300 C 129.597 13.245 129.552 13.200 129.497 13.200 H 126.497 C 125.150 13.200 123.821 13.499 122.604 14.075 C 121.387 14.651 120.313 15.489 119.459 16.531 L 28.459 127.531 C 27.797 128.338 27.279 129.253 26.928 130.237 C 26.576 131.220 26.397 132.256 26.397 133.300 C 26.397 133.355 26.441 133.400 26.497 133.400 Z" stroke="rgb(0,0,0)" stroke-width="0.20" />
  <path d="M 113.100 13.000 H 102.200 C 102.100 13.000 102.200 13.100 102.200 13.000 V 10.100 C 102.200 10.045 102.155 10.000 102.100 10.000 H 96.100 C 96.045 10.000 96.000 10.045 96.000 10.100 V 13.000 C 96.000 13.100 96.100 13.000 96.000 13.000 H 90.200 C 90.100 13.000 90.200 13.100 90.200 13.000 V 10.100 C 90.200 10.045 90.155 10.000 90.100 10.000 H 84.100 C 84.045 10.000 84.000 10.045 84.000 10.100 V 13.000 C 84.000 13.100 84.100 13.000 84.000 13.000 H 78.200 C 78.100 13.000 78.200 13.100 78.200 13.000 V 10.100 C 78.200 10.045 78.155 10.000 78.100 10.000 H 72.100 C 72.045 10.000 72.000 10.045 72.000 10.100 V 13.000 C 72.000 13.100 72.100 13.000 72.000 13.000 H 66.200 C 66.100 13.000 66.200 13.100 66.200 13.000 V 10.100 C 66.200 10.045 66.155 10.000 66.100 10.000 H 60.100 C 60.045 10.000 60.000 10.045 60.000 10.100 V 13.000 C 60.000 13.100 60.100 13.000 60.000 13.000 H 54.200 C 54.100 13.000 54.200 13.100 54.200 13.000 V 10.100 C 54.200 10.045 54.155 10.000 54.100 10.000 H 48.100 C 48.045 10.000 48.000 10.045 48.000 10.100 V 13.000 C 48.000 13.100 48.100 13.000 48.000 13.000 H 42.200 C 42.100 13.000 42.200 13.100 42.200 13.000 V 10.100 C 42.200 10.045 42.155 10.000 42.100 10.000 H 36.100 C 36.045 10.000 36.000 10.045 36.000 10.100 V 13.000 C 36.000 13.100 36.100 13.000 36.000 13.000 H 30.200 C 30.100 13.000 30.200 13.100 30.200 13.000 V 10.100 C 30.200 10.045 30.155 10.000 30.100 10.000 H 24.100 C 24.045 10.000 24.000 10.045 24.000 10.100 V 13.000 C 24.000 13.100 24.100 13.000 24.000 13.000 H 13.100 H 10.100 C 10.045 13.000 10.000 13.045 10.000 13.100 C 10.000 13.155 10.045 13.200 10.100 13.200 H 13.000 C 13.100 13.200 13.000 13.100 13.000 13.200 V 22.000 C 13.000 22.100 13.100 22.000 13.000 22.000 H 10.100 C 10.045 22.000 10.000 22.045 10.000 22.100 V 28.100 C 10.000 28.155 10.045 28.200 10.100 28.200 H 13.000 C 13.100 28.200 13.000 28.100 13.000 28.200 V 34.000 C 13.000 34.100 13.100 34.000 13.000 34.000 H 10.100 C 10.045 34.000 10.000 34.045 10.000 34.100 V 40.100 C 10.000 40.155 10.045 40.200 10.100 40.200 H 13.000 C 13.100 40.200 13.000 40.100 13.000 40.200 V 46.000 C 13.000 46.100 13.100 46.000 13.000 46.000 H 10.100 C 10.045 46.000 10.000 46.045 10.000 46.100 V 52.100 C 10.000 52.155 10.045 52.200 10.100 52.200 H 13.000 C 13.100 52.200 13.000 52.100 13.000 52.200 V 58.000 C 13.000 58.100 13.100 58.000 13.000 58.000 H 10.100 C 10.045 58.000 10.000 58.045 10.000 58.100 V 64.100 C 10.000 64.155 10.045 64.200 10.100 64.200 H 13.000 C 13.100 64.200 13.000 64.100 13.000 64.200 V 70.000 C 13.000 70.100 13.100 70.000 13.000 70.000 H 10.100 C 10.045 70.000 10.000 70.045 10.000 70.100 V 76.100 C 10.000 76.155 10.045 76.200 10.100 76.200 H 13.000 C 13.100 76.200 13.000 76.100 13.000 76.200 V 82.000 C 13.000 82.100 13.100 82.000 13.000 82.000 H 10.100 C 10.045 82.000 10.000 82.045 10.000 82.100 V 88.100 C 10.000 88.155 10.045 88.200 10.100 88.200 H 13.000 C 13.100 88.200 13.000 88.100 13.000 88.200 V 94.000 C 13.000 94.100 13.100 94.000 13.000 94.000 H 10.100 C 10.045 94.000 10.000 94.045 10.000 94.100 V 100.100 C 10.000 100.155 10.045 100.200 10.100 100.200 H 13.000 C 13.100 100.200 13.000 100.100 13.000 100.200 V 106.000 C 13.000 106.100 13.100 106.000 13.000 106.000 H 10.100 C 10.045 106.000 10.000 106.045 10.000 106.100 V 112.100 C 10.000 112.155 10.045 112.200 10.100 112.200 H 13.000 C 13.100 112.200 13.000 112.100 13.000 112.200 V 118.000 C 13.000 118.100 13.100 118.000 13.000 118.000 H 10.100 C 10.045 118.000 10.000 118.045 10.000 118.100 V 124.100 C 10.000 124.155 10.045 124.200 10.100 124.200 H 13.000 C 13.100 124.200 13.000 124.100 13.000 124.200 V 133.000 C 13.000 133.100 13.100 133.000 13.000 133.000 H 10.100 C 10.045 133.000 10.000 133.045 10.000 133.100 C 10.000 133.155 10.045 133.200 10.100 133.200 H 13.100 C 14.446 133.200 15.776 132.901 16.993 132.325 C 18.210 131.749 19.284 130.911 20.137 129.869 L 111.137 18.869 C 111.799 18.062 112.317 17.147 112.669 16.163 C 113.020 15.180 113.200 14.144 113.200 13.100 C 113.200 13.045 113.155 13.000 113.100 13.000 Z" stroke="rgb(0,0,0)" stroke-width="0.20" />
  <path d="M 147.593 133.400 H 158.493 C 158.593 133.400 158.493 133.300 158.493 133.400 V 136.300 C 158.493 136.355 158.538 136.400 158.593 136.400 H 164.593 C 164.648 136.400 164.693 136.355 164.693 136.300 V 133.400 C 164.693 133.300 164.593 133.400 164.693 133.400 H 170.493 C 170.593 133.400 170.493 133.300 170.493 133.400 V 136.300 C 170.493 136.355 170.538 136.400 170.593 136.400 H 176.593 C 176.648 136.400 176.693 136.355 176.693 136.300 V 133.400 C 176.693 133.300 176.593 133.400 176.693 133.400 H 182.493 C 182.593 133.400 182.493 133.300 182.493 133.400 V 136.300 C 182.493 136.355 182.538 136.400 182.593 136.400 H 188.593 C 188.648 136.400 188.693 136.355 188.693 136.300 V 133.400 C 188.693 133.300 188.593 133.400 188.693 133.400 H 194.493 C 194.593 133.400 194.493 133.300 194.493 133.400 V 136.300 C 194.493 136.355 194.538 136.400 194.593 136.400 H 200.593 C 200.648 136.400 200.693 136.355 200.693 136.300 V 133.400 C 200.693 133.300 200.593 133.400 200.693 133.400 H 206.493 C 206.593 133.400 206.493 133.300 206.493 133.400 V 136.300 C 206.493 136.355 206.538 136.400 206.593 136.400 H 212.593 C 212.648 136.400 212.693 136.355 212.693 136.300 V 133.400 C 212.693 133.300 212.593 133.400 212.693 133.400 H 218.493 C 218.593 133.400 218.493 133.300 218.493 133.400 V 136.300 C 218.493 136.355 218.538 136.400 218.593 136.400 H 224.593 C 224.648 136.400 224.693 136.355 224.693 136.300 V 133.400 C 224.693 133.300 224.593 133.400 224.693 133.400 H 230.493 C 230.593 133.400 230.493 133.300 230.493 133.400 V 136.300 C 230.493 136.355 230.538 136.400 230.593 136.400 H 236.593 C 236.648 136.400 236.693 136.355 236.693 136.300 V 133.400 C 236.693 133.300 236.593 133.400 236.693 133.400 H 247.593 H 250.593 C 250.648 133.400 250.693 133.355 250.693 133.300 C 250.693 133.245 250.648 133.200 250.593 133.200 H 247.693 C 247.593 133.200 247.693 133.300 247.693 133.200 V 124.400 C 247.693 124.300 247.593 124.400 247.693 124.400 H 250.593 C 250.648 124.400 250.693 124.355 250.693 124.300 V 118.300 C 250.693 118.245 250.648 118.200 250.593 118.200 H 247.693 C 247.593 118.200 247.693 118.300 247.693 118.200 V 112.400 C 247.693 112.300 247.593 112.400 247.693 112.400 H 250.593 C 250.648 112.400 250.693 112.355 250.693 112.300 V 106.300 C 250.693 106.245 250.648 106.200 250.593 106.200 H 247.693 C 247.593 106.200 247.693 106.300 247.693 106.200 V 100.400 C 247.693 100.300 247.593 100.400 247.693 100.400 H 250.593 C 250.648 100.400 250.693 100.355 250.693 100.300 V 94.300 C 250.693 94.245 250.648 94.200 250.593 94.200 H 247.693 C 247.593 94.200 247.693 94.300 247.693 94.200 V 88.400 C 247.693 88.300 247.593 88.400 247.693 88.400 H 250.593 C 250.648 88.400 250.693 88.355 250.693 88.300 V 82.300 C 250.693 82.245 250.648 82.200 250.593 82.200 H 247.693 C 247.593 82.200 247.693 82.300 247.693 82.200 V 76.400 C 247.693 76.300 247.593 76.400 247.693 76.400 H 250.593 C 250.648 76.400 250.693 76.355 250.693 76.300 V 70.300 C 250.693 70.245 250.648 70.200 250.593 70.200 H 247.693 C 247.593 70.200 247.693 70.300 247.693 70.200 V 64.400 C 247.693 64.300 247.593 64.400 247.693 64.400 H 250.593 C 250.648 64.400 250.693 64.355 250.693 64.300 V 58.300 C 250.693 58.245 250.648 58.200 250.593 58.200 H 247.693 C 247.593 58.200 247.693 58.300 247.693 58.200 V 52.400 C 247.693 52.300 247.593 52.400 247.693 52.400 H 250.593 C 250.648 52.400 250.693 52.355 250.693 52.300 V 46.300 C 250.693 46.245 250.648 46.200 250.593 46.200 H 247.693 C 247.593 46.200 247.693 46.300 247.693 46.200 V 40.400 C 247.693 40.300 247.593 40.400 247.693 40.400 H 250.593 C 250.648 40.400 250.693 40.355 250.693 40.300 V 34.300 C 250.693 34.245 250.648 34.200 250.593 34.200 H 247.693 C 247.593 34.200 247.693 34.300 247.693 34.200 V 28.400 C 247.693 28.300 247.593 28.400 247.693 28.400 H 250.593 C 250.648 28.400 250.693 28.355 250.693 28.300 V 22.300 C 250.693 22.245 250.648 22.200 250.593 22.200 H 247.693 C 247.593 22.200 247.693 22.300 247.693 22.200 V 13.400 C 247.693 13.300 247.593 13.400 247.693 13.400 H 250.593 C 250.648 13.400 250.693 13.355 250.693 13.300 C 250.693 13.245 250.648 13.200 250.593 13.200 H 247.593 C 246.247 13.200 244.917 13.499 243.700 14.075 C 242.483 14.651 241.409 15.489 240.556 16.531 L 149.556 127.531 C 148.894 128.338 148.376 129.253 148.024 130.237 C 147.673 131.220 147.493 132.256 147.493 133.300 C 147.493 133.355 147.538 133.400 147.593 133.400 Z" stroke="rgb(0,0,0)" stroke-width="0.20" />
  <path d="M 234.197 13.000 H 223.297 C 223.197 13.000 223.297 13.100 223.297 13.000 V 10.100 C 223.297 10.045 223.252 10.000 223.197 10.000 H 217.197 C 217.141 10.000 217.097 10.045 217.097 10.100 V 13.000 C 217.097 13.100 217.197 13.000 217.097 13.000 H 211.297 C 211.197 13.000 211.297 13.100 211.297 13.000 V 10.100 C 211.297 10.045 211.252 10.000 211.197 10.000 H 205.197 C 205.141 10.000 205.097 10.045 205.097 10.100 V 13.000 C 205.097 13.100 205.197 13.000 205.097 13.000 H 199.297 C 199.197 13.000 199.297 13.100 199.297 13.000 V 10.100 C 199.297 10.045 199.252 10.000 199.197 10.000 H 193.197 C 193.141 10.000 193.097 10.045 193.097 10.100 V 13.000 C 193.097 13.100 193.197 13.000 193.097 13.000 H 187.297 C 187.197 13.000 187.297 13.100 187.297 13.000 V 10.100 C 187.297 10.045 187.252 10.000 187.197 10.000 H 181.197 C 181.141 10.000 181.097 10.045 181.097 10.100 V 13.000 C 181.097 13.100 181.197 13.000 181.097 13.000 H 175.297 C 175.197 13.000 175.297 13.100 175.297 13.000 V 10.100 C 175.297 10.045 175.252 10.000 175.197 10.000 H 169.197 C 169.141 10.000 169.097 10.045 169.097 10.100 V 13.000 C 169.097 13.100 169.197 13.000 169.097 13.000 H 163.297 C 163.197 13.000 163.297 13.100 163.297 13.000 V 10.100 C 163.297 10.045 163.252 10.000 163.197 10.000 H 157.197 C 157.141 10.000 157.097 10.045 157.097 10.100 V 13.000 C 157.097 13.100 157.197 13.000 157.097 13.000 H 151.297 C 151.197 13.000 151.297 13.100 151.297 13.000 V 10.100 C 151.297 10.045 151.252 10.000 151.197 10.000 H 145.197 C 145.141 10.000 145.097 10.045 145.097 10.100 V 13.000 C 145.097 13.100 145.197 13.000 145.097 13.000 H 134.197 H 131.197 C 131.141 13.000 131.097 13.045 131.097 13.100 C 131.097 13.155 131.141 13.200 131.197 13.200 H 134.097 C 134.197 13.200 134.097 13.100 134.097 13.200 V 22.000 C 134.097 22.100 134.197 22.000 134.097 22.000 H 131.197 C 131.141 22.000 131.097 22.045 131.097 22.100 V 28.100 C 131.097 28.155 131.141 28.200 131.197 28.200 H 134.097 C 134.197 28.200 134.097 28.100 134.097 28.200 V 34.000 C 134.097 34.100 134.197 34.000 134.097 34.000 H 131.197 C 131.141 34.000 131.097 34.045 131.097 34.100 V 40.100 C 131.097 40.155 131.141 40.200 131.197 40.200 H 134.097 C 134.197 40.200 134.097 40.100 134.097 40.200 V 46.000 C 134.097 46.100 134.197 46.000 134.097 46.000 H 131.197 C 131.141 46.000 131.097 46.045 131.097 46.100 V 52.100 C 131.097 52.155 131.141 52.200 131.197 52.200 H 134.097 C 134.197 52.200 134.097 52.100 134.097 52.200 V 58.000 C 134.097 58.100 134.197 58.000 134.097 58.000 H 131.197 C 131.141 58.000 131.097 58.045 131.097 58.100 V 64.100 C 131.097 64.155 131.141 64.200 131.197 64.200 H 134.097 C 134.197 64.200 134.097 64.100 134.097 64.200 V 70.000 C 134.097 70.100 134.197 70.000 134.097 70.000 H 131.197 C 131.141 70.000 131.097 70.045 131.097 70.100 V 76.100 C 131.097 76.155 131.141 76.200 131.197 76.200 H 134.097 C 134.197 76.200 134.097 76.100 134.097 76.200 V 82.000 C 134.097 82.100 134.197 82.000 134.097 82.000 H 131.197 C 131.141 82.000 131.097 82.045 131.097 82.100 V 88.100 C 131.097 88.155 131.141 88.200 131.197 88.200 H 134.097 C 134.197 88.200 134.097 88.100 134.097 88.200 V 94.000 C 134.097 94.100 134.197 94.000 134.097 94.000 H 131.197 C 131.141 94.000 131.097 94.045 131.097 94.100 V 100.100 C 131.097 100.155 131.141 100.200 131.197 100.200 H 134.097 C 134.197 100.200 134.097 100.100 134.097 100.200 V 106.000 C 134.097 106.100 134.197 106.000 134.097 106.000 H 131.197 C 131.141 106.000 131.097 106.045 131.097 106.100 V 112.100 C 131.097 112.155 131.141 112.200 131.197 112.200 H 134.097 C 134.197 112.200 134.097 112.100 134.097 112.200 V 118.000 C 134.097 118.100 134.197 118.000 134.097 118.000 H 131.197 C 131.141 118.000 131.097 118.045 131.097 118.100 V 124.100 C 131.097 124.155 131.141 124.200 131.197 124.200 H 134.097 C 134.197 124.200 134.097 124.100 134.097 124.200 V 133.000 C 134.097 133.100 134.197 133.000 134.097 133.000 H 131.197 C 131.141 133.000 131.097 133.045 131.097 133.100 C 131.097 133.155 131.141 133.200 131.197 133.200 H 134.197 C 135.543 133.200 136.872 132.901 138.089 132.325 C 139.306 131.749 140.380 130.911 141.234 129.869 L 232.234 18.869 C 232.896 18.062 233.414 17.147 233.765 16.163 C 234.117 15.180 234.297 14.144 234.297 13.100 C 234.297 13.045 234.252 13.000 234.197 13.000 Z" stroke="rgb(0,0,0)" stroke-width="0.20" />
  <path d="M 268.690 133.400 H 279.590 C 279.690 133.400 279.590 133.300 279.590 133.400 V 136.300 C 279.590 136.355 279.634 136.400 279.690 136.400 H 285.690 C 285.745 136.400 285.790 136.355 285.790 136.300 V 133.400 C 285.790 133.300 285.690 133.400 285.790 133.400 H 291.590 C 291.690 133.400 291.590 133.300 291.590 133.400 V 136.300 C 291.590 136.355 291.634 136.400 291.690 136.400 H 297.690 C 297.745 136.400 297.790 136.355 297.790 136.300 V 133.400 C 297.790 133.300 297.690 133.400 297.790 133.400 H 303.590 C 303.690 133.400 303.590 133.300 303.590 133.400 V 136.300 C 303.590 136.355 303.634 136.400 303.690 136.400 H 309.690 C 309.745 136.400 309.790 136.355 309.790 136.300 V 133.400 C 309.790 133.300 309.690 133.400 309.790 133.400 H 315.590 C 315.690 133.400 315.590 133.300 315.590 133.400 V 136.300 C 315.590 136.355 315.634 136.400 315.690 136.400 H 321.690 C 321.745 136.400 321.790 136.355 321.790 136.300 V 133.400 C 321.790 133.300 321.690 133.400 321.790 133.400 H 327.590 C 327.690 133.400 327.590 133.300 327.590 133.400 V 136.300 C 327.590 136.355 327.634 136.400 327.690 136.400 H 333.690 C 333.745 136.400 333.790 136.355 333.790 136.300 V 133.400 C 333.790 133.300 333.690 133.400 333.790 133.400 H 339.590 C 339.690 133.400 339.590 133.300 339.590 133.400 V 136.300 C 339.590 136.355 339.634 136.400 339.690 136.400 H 345.690 C 345.745 136.400 345.790 136.355 345.790 136.300 V 133.400 C 345.790 133.300 345.690 133.400 345.790 133.400 H 351.590 C 351.690 133.400 351.590 133.300 351.590 133.400 V 136.300 C 351.590 136.355 351.634 136.400 351.690 136.400 H 357.690 C 357.745 136.400 357.790 136.355 357.790 136.300 V 133.400 C 357.790 133.300 357.690 133.400 357.790 133.400 H 368.690 H 371.690 C 371.745 133.400 371.790 133.355 371.790 133.300 C 371.790 133.245 371.745 133.200 371.690 133.200 H 368.790 C 368.690 133.200 368.790 133.300 368.790 133.200 V 124.400 C 368.790 124.300 368.690 124.400 368.790 124.400 H 371.690 C 371.745 124.400 371.790 124.355 371.790 124.300 V 118.300 C 371.790 118.245 371.745 118.200 371.690 118.200 H 368.790 C 368.690 118.200 368.790 118.300 368.790 118.200 V 112.400 C 368.790 112.300 368.690 112.400 368.790 112.400 H 371.690 C 371.745 112.400 371.790 112.355 371.790 112.300 V 106.300 C 371.790 106.245 371.745 106.200 371.690 106.200 H 368.790 C 368.690 106.200 368.790 106.300 368.790 106.200 V 100.400 C 368.790 100.300 368.690 100.400 368.790 100.400 H 371.690 C 371.745 100.400 371.790 100.355 371.790 100.300 V 94.300 C 371.790 94.245 371.745 94.200 371.690 94.200 H 368.790 C 368.690 94.200 368.790 94.300 368.790 94.200 V 88.400 C 368.790 88.300 368.690 88.400 368.790 88.400 H 371.690 C 371.745 88.400 371.790 88.355 371.790 88.300 V 82.300 C 371.790 82.245 371.745 82.200 371.690 82.200 H 368.790 C 368.690 82.200 368.790 82.300 368.790 82.200 V 76.400 C 368.790 76.300 368.690 76.400 368.790 76.400 H 371.690 C 371.745 76.400 371.790 76.355 371.790 76.300 V 70.300 C 371.790 70.245 371.745 70.200 371.690 70.200 H 368.790 C 368.690 70.200 368.790 70.300 368.790 70.200 V 64.400 C 368.790 64.300 368.690 64.400 368.790 64.400 H 371.690 C 371.745 64.400 371.790 64.355 371.790 64.300 V 58.300 C 371.790 58.245 371.745 58.200 371.690 58.200 H 368.790 C 368.690 58.200 368.790 58.300 368.790 58.200 V 52.400 C 368.790 52.300 368.690 52.400 368.790 52.400 H 371.690 C 371.745 52.400 371.790 52.355 371.790 52.300 V 46.300 C 371.790 46.245 371.745 46.200 371.690 46.200 H 368.790 C 368.690 46.200 368.790 46.300 368.790 46.200 V 40.400 C 368.790 40.300 368.690 40.400 368.790 40.400 H 371.690 C 371.745 40.400 371.790 40.355 371.790 40.300 V 34.300 C 371.790 34.245 371.745 34.200 371.690 34.200 H 368.790 C 368.690 34.200 368.790 34.300 368.790 34.200 V 28.400 C 368.790 28.300 368.690 28.400 368.790 28.400 H 371.690 C 371.745 28.400 371.790 28.355 371.790 28.300 V 22.300 C 371.790 22.245 371.745 22.200 371.690 22.200 H 368.790 C 368.690 22.200 368.790 22.300 368.790 22.200 V 13.400 C 368.790 13.300 368.690 13.400 368.790 13.400 H 371.690 C 371.745 13.400 371.790 13.355 371.790 13.300 C 371.790 13.245 371.745 13.200 371.690 13.200 H 368.690 C 367.343 13.200 366.014 13.499 364.797 14.075 C 363.580 14.651 362.506 15.489 361.652 16.531 L 270.652 127.531 C 269.990 128.338 269.472 129.253 269.121 130.237 C 268.769 131.220 268.590 132.256 268.590 133.300 C 268.590 133.355 268.634 133.400 268.690 133.400 Z" stroke="rgb(0,0,0)" stroke-width="0.20" />
  <path d="M 355.293 13.000 H 344.393 C 344.293 13.000 344.393 13.100 344.393 13.000 V 10.100 C 344.393 10.045 344.348 10.000 344.293 10.000 H 338.293 C 338.238 10.000 338.193 10.045 338.193 10.100 V 13.000 C 338.193 13.100 338.293 13.000 338.193 13.000 H 332.393 C 332.293 13.000 332.393 13.100 332.393 13.000 V 10.100 C 332.393 10.045 332.348 10.000 332.293 10.000 H 326.293 C 326.238 10.000 326.193 10.045 326.193 10.100 V 13.000 C 326.193 13.100 326.293 13.000 326.193 13.000 H 320.393 C 320.293 13.000 320.393 13.100 320.393 13.000 V 10.100 C 320.393 10.045 320.348 10.000 320.293 10.000 H 314.293 C 314.238 10.000 314.193 10.045 314.193 10.100 V 13.000 C 314.193 13.100 314.293 13.000 314.193 13.000 H 308.393 C 308.293 13.000 308.393 13.100 308.393 13.000 V 10.100 C 308.393 10.045 308.348 10.000 308.293 10.000 H 302.293 C 302.238 10.000 302.193 10.045 302.193 10.100 V 13.000 C 302.193 13.100 302.293 13.000 302.193 13.000 H 296.393 C 296.293 13.000 296.393 13.100 296.393 13.000 V 10.100 C 296.393 10.045 296.348 10.000 296.293 10.000 H 290.293 C 290.238 10.000 290.193 10.045 290.193 10.100 V 13.000 C 290.193 13.100 290.293 13.000 290.193 13.000 H 284.393 C 284.293 13.000 284.393 13.100 284.393 13.000 V 10.100 C 284.393 10.045 284.348 10.000 284.293 10.000 H 278.293 C 278.238 10.000 278.193 10.045 278.193 10.100 V 13.000 C 278.193 13.100 278.293 13.000 278.193 13.000 H 272.393 C 272.293 13.000 272.393 13.100 272.393 13.000 V 10.100 C 272.393 10.045 272.348 10.000 272.293 10.000 H 266.293 C 266.238 10.000 266.193 10.045 266.193 10.100 V 13.000 C 266.193 13.100 266.293 13.000 266.193 13.000 H 255.293 H 252.293 C 252.238 13.000 252.193 13.045 252.193 13.100 C 252.193 13.155 252.238 13.200 252.293 13.200 H 255.193 C 255.293 13.200 255.193 13.100 255.193 13.200 V 22.000 C 255.193 22.100 255.293 22.000 255.193 22.000 H 252.293 C 252.238 22.000 252.193 22.045 252.193 22.100 V 28.100 C 252.193 28.155 252.238 28.200 252.293 28.200 H 255.193 C 255.293 28.200 255.193 28.100 255.193 28.200 V 34.000 C 255.193 34.100 255.293 34.000 255.193 34.000 H 252.293 C 252.238 34.000 252.193 34.045 252.193 34.100 V 40.100 C 252.193 40.155 252.238 40.200 252.293 40.200 H 255.193 C 255.293 40.200 255.193 40.100 255.193 40.200 V 46.000 C 255.193 46.100 255.293 46.000 255.193 46.000 H 252.293 C 252.238 46.000 252.193 46.045 252.193 46.100 V 52.100 C 252.193 52.155 252.238 52.200 252.293 52.200 H 255.193 C 255.293 52.200 255.193 52.100 255.193 52.200 V 58.000 C 255.193 58.100 255.293 58.000 255.193 58.000 H 252.293 C 252.238 58.000 252.193 58.045 252.193 58.100 V 64.100 C 252.193 64.155 252.238 64.200 252.293 64.200 H 255.193 C 255.293 64.200 255.193 64.100 255.193 64.200 V 70.000 C 255.193 70.100 255.293 70.000 255.193 70.000 H 252.293 C 252.238 70.000 252.193 70.045 252.193 70.100 V 76.100 C 252.193 76.155 252.238 76.200 252.293 76.200 H 255.193 C 255.293 76.200 255.193 76.100 255.193 76.200 V 82.000 C 255.193 82.100 255.293 82.000 255.193 82.000 H 252.293 C 252.238 82.000 252.193 82.045 252.193 82.100 V 88.100 C 252.193 88.155 252.238 88.200 252.293 88.200 H 255.193 C 255.293 88.200 255.193 88.100 255.193 88.200 V 94.000 C 255.193 94.100 255.293 94.000 255.193 94.000 H 252.293 C 252.238 94.000 252.193 94.045 252.193 94.100 V 100.100 C 252.193 100.155 252.238 100.200 252.293 100.200 H 255.193 C 255.293 100.200 255.193 100.100 255.193 100.200 V 106.000 C 255.193 106.100 255.293 106.000 255.193 106.000 H 252.293 C 252.238 106.000 252.193 106.045 252.193 106.100 V 112.100 C 252.193 112.155 252.238 112.200 252.293 112.200 H 255.193 C 255.293 112.200 255.193 112.100 255.193 112.200 V 118.000 C 255.193 118.100 255.293 118.000 255.193 118.000 H 252.293 C 252.238 118.000 252.193 118.045 252.193 118.100 V 124.100 C 252.193 124.155 252.238 124.200 252.293 124.200 H 255.193 C 255.293 124.200 255.193 124.100 255.193 124.200 V 133.000 C 255.193 133.100 255.293 133.000 255.193 133.000 H 252.293 C 252.238 133.000 252.193 133.045 252.193 133.100 C 252.193 133.155 252.238 133.200 252.293 133.200 H 255.293 C 256.639 133.200 257.969 132.901 259.186 132.325 C 260.403 131.749 261.477 130.911 262.330 129.869 L 353.330 18.869 C 353.992 18.062 354.510 17.147 354.862 16.163 C 355.213 15.180 355.393 14.144 355.393 13.100 C 355.393 13.045 355.348 13.000 355.293 13.000 Z" stroke="rgb(0,0,0)" stroke-width="0.20" />
  <path d="M 389.786 133.400 H 400.686 C 400.786 133.400 400.686 133.300 400.686 133.400 V 136.300 C 400.686 136.355 400.731 136.400 400.786 136.400 H 406.786 C 406.841 136.400 406.886 136.355 406.886 136.300 V 133.400 C 406.886 133.300 406.786 133.400 406.886 133.400 H 412.686 C 412.786 133.400 412.686 133.300 412.686 133.400 V 136.300 C 412.686 136.355 412.731 136.400 412.786 136.400 H 418.786 C 418.841 136.400 418.886 136.355 418.886 136.300 V 133.400 C 418.886 133.300 418.786 133.400 418.886 133.400 H 424.686 C 424.786 133.400 424.686 133.300 424.686 133.400 V 136.300 C 424.686 136.355 424.731 136.400 424.786 136.400 H 430.786 C 430.841 136.400 430.886 136.355 430.886 136.300 V 133.400 C 430.886 133.300 430.786 133.400 430.886 133.400 H 436.686 C 436.786 133.400 436.686 133.300 436.686 133.400 V 136.300 C 436.686 136.355 436.731 136.400 436.786 136.400 H 442.786 C 442.841 136.400 442.886 136.355 442.886 136.300 V 133.400 C 442.886 133.300 442.786 133.400 442.886 133.400 H 448.686 C 448.786 133.400 448.686 133.300 448.686 133.400 V 136.300 C 448.686 136.355 448.731 136.400 448.786 136.400 H 454.786 C 454.841 136.400 454.886 136.355 454.886 136.300 V 133.400 C 454.886 133.300 454.786 133.400 454.886 133.400 H 460.686 C 460.786 133.400 460.686 133.300 460.686 133.400 V 136.300 C 460.686 136.355 460.731 136.400 460.786 136.400 H 466.786 C 466.841 136.400 466.886 136.355 466.886 136.300 V 133.400 C 466.886 133.300 466.786 133.400 466.886 133.400 H 472.686 C 472.786 133.400 472.686 133.300 472.686 133.400 V 136.300 C 472.686 136.355 472.731 136.400 472.786 136.400 H 478.786 C 478.841 136.400 478.886 136.355 478.886 136.300 V 133.400 C 478.886 133.300 478.786 133.400 478.886 133.400 H 489.786 H 492.786 C 492.841 133.400 492.886 133.355 492.886 133.300 C 492.886 133.245 492.841 133.200 492.786 133.200 H 489.886 C 489.786 133.200 489.886 133.300 489.886 133.200 V 124.400 C 489.886 124.300 489.786 124.400 489.886 124.400 H 492.786 C 492.841 124.400 492.886 124.355 492.886 124.300 V 118.300 C 492.886 118.245 492.841 118.200 492.786 118.200 H 489.886 C 489.786 118.200 489.886 118.300 489.886 118.200 V 112.400 C 489.886 112.300 489.786 112.400 489.886 112.400 H 492.786 C 492.841 112.400 492.886 112.355 492.886 112.300 V 106.300 C 492.886 106.245 492.841 106.200 492.786 106.200 H 489.886 C 489.786 106.200 489.886 106.300 489.886 106.200 V 100.400 C 489.886 100.300 489.786 100.400 489.886 100.400 H 492.786 C 492.841 100.400 492.886 100.355 492.886 100.300 V 94.300 C 492.886 94.245 492.841 94.200 492.786 94.200 H 489.886 C 489.786 94.200 489.886 94.300 489.886 94.200 V 88.400 C 489.886 88.300 489.786 88.400 489.886 88.400 H 492.786 C 492.841 88.400 492.886 88.355 492.886 88.300 V 82.300 C 492.886 82.245 492.841 82.200 492.786 82.200 H 489.886 C 489.786 82.200 489.886 82.300 489.886 82.200 V 76.400 C 489.886 76.300 489.786 76.400 489.886 76.400 H 492.786 C 492.841 76.400 492.886 76.355 492.886 76.300 V 70.300 C 492.886 70.245 492.841 70.200 492.786 70.200 H 489.886 C 489.786 70.200 489.886 70.300 489.886 70.200 V 64.400 C 489.886 64.300 489.786 64.400 489.886 64.400 H 492.786 C 492.841 64.400 492.886 64.355 492.886 64.300 V 58.300 C 492.886 58.245 492.841 58.200 492.786 58.200 H 489.886 C 489.786 58.200 489.886 58.300 489.886 58.200 V 52.400 C 489.886 52.300 489.786 52.400 489.886 52.400 H 492.786 C 492.841 52.400 492.886 52.355 492.886 52.300 V 46.300 C 492.886 46.245 492.841 46.200 492.786 46.200 H 489.886 C 489.786 46.200 489.886 46.300 489.886 46.200 V 40.400 C 489.886 40.300 489.786 40.400 489.886 40.400 H 492.786 C 492.841 40.400 492.886 40.355 492.886 40.300 V 34.300 C 492.886 34.245 492.841 34.200 492.786 34.200 H 489.886 C 489.786 34.200 489.886 34.300 489.886 34.200 V 28.400 C 489.886 28.300 489.786 28.400 489.886 28.400 H 492.786 C 492.841 28.400 492.886 28.355 492.886 28.300 V 22.300 C 492.886 22.245 492.841 22.200 492.786 22.200 H 489.886 C 489.786 22.200 489.886 22.300 489.886 22.200 V 13.400 C 489.886 13.300 489.786 13.400 489.886 13.400 H 492.786 C 492.841 13.400 492.886 13.355 492.886 13.300 C 492.886 13.245 492.841 13.200 492.786 13.200 H 489.786 C 488.440 13.200 487.110 13.499 485.893 14.075 C 484.676 14.651 483.602 15.489 482.749 16.531 L 391.749 127.531 C 391.087 128.338 390.569 129.253 390.217 130.237 C 389.866 131.220 389.686 132.256 389.686 133.300 C 389.686 133.355 389.731 133.400 389.786 133.400 Z" stroke="rgb(0,0,0)" stroke-width="0.20" />
</g>
</svg>