<?xml version='1.0' encoding='utf-8'?>
<svg height="333.80mm" viewBox="0.0 0.0 137.60 333.80" width="137.60mm" xmlns="http://www.w3.org/2000/svg" xmlns:cc="http://creativecommons.org/ns#" xmlns:dc="http://purl.org/dc/elements/1.1/" xmlns:inkscape="http://www.inkscape.org/namespaces/inkscape" xmlns:rdf="http://www.w3.org/1999/02/22-rdf-syntax-ns#" xmlns:svg="http://www.w3.org/2000/svg" xmlns:xlink="http://www.w3.org/1999/xlink">
<!--
WallConsole - Outset and angled plate to mount stuff to

Created with Boxes.py (https://festi.info/boxes.py)
Command line (remove spaces between dashes): boxes WallConsole
-->
<title>WallConsole</title>
<metadata>
<rdf:RDF><cc:Work>
<dc:title>WallMounted - WallConsole</dc:title>
<dc:source>boxes WallConsole</dc:source>
<dc:description>Outset and angled plate to mount stuff to

Created with Boxes.py (https://festi.info/boxes.py)
Command line: boxes WallConsole
Command line short: boxes WallConsole
</dc:description>
</cc:Work></rdf:RDF></metadata>
<g id="p-0" style="fill:none;stroke-linecap:round;stroke-linejoin:round;">
  <path d="M 18.800 323.796 H 118.800 V 313.796 H 18.800 V 323.796 Z" stroke="rgb(0,0,0)" stroke-width="0.20" />
  <text dominant-baseline="hanging" font-size="8px" style="font-family: sans-serif ; font-weight: normal; font-style: normal; fill: rgb(255,0,0)" text-anchor="middle" transform="matrix( 1.000 0.000 0.000 1.000 68.800 314.796 )">100.00mm, burn:0.10mm</text>
</g>
<g id="p-1" style="fill:none;stroke-linecap:round;stroke-linejoin:round;">
  <path d="M 21.800 312.096 H 115.800 C 115.855 312.096 115.900 312.051 115.900 311.996 C 115.900 312.051 115.855 312.096 115.800 312.096 H 118.800 C 118.855 312.096 118.900 312.051 118.900 311.996 V 303.996 C 118.900 303.941 118.855 303.896 118.800 303.896 H 115.900 C 115.800 303.896 115.900 303.996 115.900 303.896 V 298.096 C 115.900 297.996 115.800 298.096 115.900 298.096 H 118.800 C 118.855 298.096 118.900 298.051 118.900 297.996 V 291.996 C 118.900 291.941 118.855 291.896 118.800 291.896 H 115.900 C 115.800 291.896 115.900 291.996 115.900 291.896 V 286.096 C 115.900 285.996 115.800 286.096 115.900 286.096 H 118.800 C 118.855 286.096 118.900 286.051 118.900 285.996 V 279.996 C 118.900 279.941 118.855 279.896 118.800 279.896 H 115.900 C 115.800 279.896 115.900 279.996 115.900 279.896 V 274.096 C 115.900 273.996 115.800 274.096 115.900 274.096 H 118.800 C 118.855 274.096 118.900 274.051 118.900 273.996 V 267.996 C 118.900 267.941 118.855 267.896 118.800 267.896 H 115.900 C 115.800 267.896 115.900 267.996 115.900 267.896 V 262.096 C 115.900 261.996 115.800 262.096 115.900 262.096 H 118.800 C 118.855 262.096 118.900 262.051 118.900 261.996 V 255.996 C 118.900 255.941 118.855 255.896 118.800 255.896 H 115.900 C 115.800 255.896 115.900 255.996 115.900 255.896 V 250.096 C 115.900 249.996 115.800 250.096 115.900 250.096 H 118.800 C 118.855 250.096 118.900 250.051 118.900 249.996 V 243.996 C 118.900 243.941 118.855 243.896 118.800 243.896 H 115.900 C 115.800 243.896 115.900 243.996 115.900 243.896 V 238.096 C 115.900 237.996 115.800 238.096 115.900 238.096 H 118.800 C 118.855 238.096 118.900 238.051 118.900 237.996 V 231.996 C 118.900 231.941 118.855 231.896 118.800 231.896 H 115.900 C 115.800 231.896 115.900 231.996 115.900 231.896 V 226.096 C 115.900 225.996 115.800 226.096 115.900 226.096 H 118.800 C 118.855 226.096 118.900 226.051 118.900 225.996 V 217.996 C 118.900 217.941 118.855 217.896 118.800 217.896 H 115.800 C 115.855 217.896 115.900 217.941 115.900 217.996 C 115.900 217.941 115.855 217.896 115.800 217.896 H 21.800 C 21.745 217.896 21.700 217.941 21.700 217.996 C 21.700 217.941 21.745 217.896 21.800 217.896 H 18.800 C 18.745 217.896 18.700 217.941 18.700 217.996 V 225.996 C 18.700 226.051 18.745 226.096 18.800 226.096 H 21.700 C 21.800 226.096 21.700 225.996 21.700 226.096 V 231.896 C 21.700 231.996 21.800 231.896 21.700 231.896 H 18.800 C 18.745 231.896 18.700 231.941 18.700 231.996 V 237.996 C 18.700 238.051 18.745 238.096 18.800 238.096 H 21.700 C 21.800 238.096 21.700 237.996 21.700 238.096 V 243.896 C 21.700 243.996 21.800 243.896 21.700 243.896 H 18.800 C 18.745 243.896 18.700 243.941 18.700 243.996 V 249.996 C 18.700 250.051 18.745 250.096 18.800 250.096 H 21.700 C 21.800 250.096 21.700 249.996 21.700 250.096 V 255.896 C 21.700 255.996 21.800 255.896 21.700 255.896 H 18.800 C 18.745 255.896 18.700 255.941 18.700 255.996 V 261.996 C 18.700 262.051 18.745 262.096 18.800 262.096 H 21.700 C 21.800 262.096 21.700 261.996 21.700 262.096 V 267.896 C 21.700 267.996 21.800 267.896 21.700 267.896 H 18.800 C 18.745 267.896 18.700 267.941 18.700 267.996 V 273.996 C 18.700 274.051 18.745 274.096 18.800 274.096 H 21.700 C 21.800 274.096 21.700 273.996 21.700 274.096 V 279.896 C 21.700 279.996 21.800 279.896 21.700 279.896 H 18.800 C 18.745 279.896 18.700 279.941 18.700 279.996 V 285.996 C 18.700 286.051 18.745 286.096 18.800 286.096 H 21.700 C 21.800 286.096 21.700 285.996 21.700 286.096 V 291.896 C 21.700 291.996 21.800 291.896 21.700 291.896 H 18.800 C 18.745 291.896 18.700 291.941 18.700 291.996 V 297.996 C 18.700 298.051 18.745 298.096 18.800 298.096 H 21.700 C 21.800 298.096 21.700 297.996 21.700 298.096 V 303.896 C 21.700 303.996 21.800 303.896 21.700 303.896 H 18.800 C 18.745 303.896 18.700 303.941 18.700 303.996 V 311.996 C 18.700 312.051 18.745 312.096 18.800 312.096 H 21.800 C 21.745 312.096 21.700 312.051 21.700 311.996 C 21.700 312.051 21.745 312.096 21.800 312.096 Z" stroke="rgb(0,0,0)" stroke-width="0.20" />
</g>
<g id="p-2" style="fill:none;stroke-linecap:round;stroke-linejoin:round;">
  <path d="M 21.800 216.396 H 115.800 H 118.800 C 118.855 216.396 118.900 216.351 118.900 216.296 V 207.702 C 118.900 207.646 118.855 207.602 118.800 207.602 H 115.900 C 115.800 207.602 115.900 207.702 115.900 207.602 V 201.802 C 115.900 201.702 115.800 201.802 115.900 201.802 H 118.800 C 118.855 201.802 118.900 201.757 118.900 201.702 V 195.702 C 118.900 195.646 118.855 195.602 118.800 195.602 H 115.900 C 115.800 195.602 115.900 195.702 115.900 195.602 V 189.802 C 115.900 189.702 115.800 189.802 115.900 189.802 H 118.800 C 118.855 189.802 118.900 189.757 118.900 189.702 V 183.702 C 118.900 183.646 118.855 183.602 118.800 183.602 H 115.900 C 115.800 183.602 115.900 183.702 115.900 183.602 V 177.802 C 115.900 177.702 115.800 177.802 115.900 177.802 H 118.800 C 118.855 177.802 118.900 177.757 118.900 177.702 V 171.702 C 118.900 171.646 118.855 171.602 118.800 171.602 H 115.900 C 115.800 171.602 115.900 171.702 115.900 171.602 V 165.802 C 115.900 165.702 115.800 165.802 115.900 165.802 H 118.800 C 118.855 165.802 118.900 165.757 118.900 165.702 V 159.702 C 118.900 159.646 118.855 159.602 118.800 159.602 H 115.900 C 115.800 159.602 115.900 159.702 115.900 159.602 V 153.802 C 115.900 153.702 115.800 153.802 115.900 153.802 H 118.800 C 118.855 153.802 118.900 153.757 118.900 153.702 V 147.702 C 118.900 147.646 118.855 147.602 118.800 147.602 H 115.900 C 115.800 147.602 115.900 147.702 115.900 147.602 V 141.802 C 115.900 141.702 115.800 141.802 115.900 141.802 H 118.800 C 118.855 141.802 118.900 141.757 118.900 141.702 V 135.702 C 118.900 135.646 118.855 135.602 118.800 135.602 H 115.900 C 115.800 135.602 115.900 135.702 115.900 135.602 V 129.802 C 115.900 129.702 115.800 129.802 115.900 129.802 H 118.800 C 118.855 129.802 118.900 129.757 118.900 129.702 V 121.107 C 118.900 121.052 118.855 121.007 118.800 121.007 H 115.800 H 21.800 H 18.800 C 18.745 121.007 18.700 121.052 18.700 121.107 V 129.702 C 18.700 129.757 18.745 129.802 18.800 129.802 H 21.700 C 21.800 129.802 21.700 129.702 21.700 129.802 V 135.602 C 21.700 135.702 21.800 135.602 21.700 135.602 H 18.800 C 18.745 135.602 18.700 135.646 18.700 135.702 V 141.702 C 18.700 141.757 18.745 141.802 18.800 141.802 H 21.700 C 21.800 141.802 21.700 141.702 21.700 141.802 V 147.602 C 21.700 147.702 21.800 147.602 21.700 147.602 H 18.800 C 18.745 147.602 18.700 147.646 18.700 147.702 V 153.702 C 18.700 153.757 18.745 153.802 18.800 153.802 H 21.700 C 21.800 153.802 21.700 153.702 21.700 153.802 V 159.602 C 21.700 159.702 21.800 159.602 21.700 159.602 H 18.800 C 18.745 159.602 18.700 159.646 18.700 159.702 V 165.702 C 18.700 165.757 18.745 165.802 18.800 165.802 H 21.700 C 21.800 165.802 21.700 165.702 21.700 165.802 V 171.602 C 21.700 171.702 21.800 171.602 21.700 171.602 H 18.800 C 18.745 171.602 18.700 171.646 18.700 171.702 V 177.702 C 18.700 177.757 18.745 177.802 18.800 177.802 H 21.700 C 21.800 177.802 21.700 177.702 21.700 177.802 V 183.602 C 21.700 183.702 21.800 183.602 21.700 183.602 H 18.800 C 18.745 183.602 18.700 183.646 18.700 183.702 V 189.702 C 18.700 189.757 18.745 189.802 18.800 189.802 H 21.700 C 21.800 189.802 21.700 189.702 21.700 189.802 V 195.602 C 21.700 195.702 21.800 195.602 21.700 195.602 H 18.800 C 18.745 195.602 18.700 195.646 18.700 195.702 V 201.702 C 18.700 201.757 18.745 201.802 18.800 201.802 H 21.700 C 21.800 201.802 21.700 201.702 21.700 201.802 V 207.602 C 21.700 207.702 21.800 207.602 21.700 207.602 H 18.800 C 18.745 207.602 18.700 207.646 18.700 207.702 V 216.296 C 18.700 216.351 18.745 216.396 18.800 216.396 H 21.800 Z" stroke="rgb(0,0,0)" stroke-width="0.20" />
</g>
<g id="p-3" style="fill:none;stroke-linecap:round;stroke-linejoin:round;">
  <path d="M 18.800 119.507 C 18.855 119.507 18.900 119.462 18.900 119.407 V 116.507 C 18.900 116.407 18.800 116.507 18.900 116.507 H 26.700 C 26.800 116.507 26.700 116.407 26.700 116.507 V 119.407 C 26.700 119.462 26.745 119.507 26.800 119.507 H 32.800 C 32.855 119.507 32.900 119.462 32.900 119.407 V 116.507 C 32.900 116.407 32.800 116.507 32.900 116.507 H 38.700 C 38.800 116.507 38.700 116.407 38.700 116.507 V 119.407 C 38.700 119.462 38.745 119.507 38.800 119.507 H 44.800 C 44.855 119.507 44.900 119.462 44.900 119.407 V 116.507 C 44.900 116.407 44.800 116.507 44.900 116.507 H 50.700 C 50.800 116.507 50.700 116.407 50.700 116.507 V 119.407 C 50.700 119.462 50.745 119.507 50.800 119.507 H 56.800 C 56.855 119.507 56.900 119.462 56.900 119.407 V 116.507 C 56.900 116.407 56.800 116.507 56.900 116.507 H 62.700 C 62.800 116.507 62.700 116.407 62.700 116.507 V 119.407 C 62.700 119.462 62.745 119.507 62.800 119.507 H 68.800 C 68.855 119.507 68.900 119.462 68.900 119.407 V 116.507 C 68.900 116.407 68.800 116.507 68.900 116.507 H 74.700 C 74.800 116.507 74.700 116.407 74.700 116.507 V 119.407 C 74.700 119.462 74.745 119.507 74.800 119.507 H 80.800 C 80.855 119.507 80.900 119.462 80.900 119.407 V 116.507 C 80.900 116.407 80.800 116.507 80.900 116.507 H 86.700 C 86.800 116.507 86.700 116.407 86.700 116.507 V 119.407 C 86.700 119.462 86.745 119.507 86.800 119.507 H 92.800 C 92.855 119.507 92.900 119.462 92.900 119.407 V 116.507 C 92.900 116.407 92.800 116.507 92.900 116.507 H 98.700 C 98.800 116.507 98.700 116.407 98.700 116.507 V 119.407 C 98.700 119.462 98.745 119.507 98.800 119.507 H 104.800 C 104.855 119.507 104.900 119.462 104.900 119.407 V 116.507 C 104.900 116.407 104.800 116.507 104.900 116.507 H 112.700 C 112.800 116.507 112.700 116.407 112.700 116.507 V 119.407 C 112.700 119.462 112.745 119.507 112.800 119.507 C 112.855 119.507 112.900 119.462 112.900 119.407 V 116.407 V 81.407 C 112.900 81.352 112.855 81.307 112.800 81.307 C 112.805 81.307 112.811 81.307 112.816 81.308 L 104.427 79.970 C 104.328 79.954 104.411 80.068 104.427 79.970 L 104.884 77.106 C 104.893 77.051 104.856 77.000 104.801 76.991 L 98.876 76.046 C 98.822 76.037 98.770 76.074 98.762 76.129 L 98.305 78.993 C 98.289 79.091 98.403 79.008 98.305 78.993 L 92.577 78.079 C 92.478 78.063 92.561 78.177 92.577 78.079 L 93.034 75.215 C 93.043 75.160 93.006 75.109 92.951 75.100 L 87.026 74.155 C 86.972 74.146 86.920 74.183 86.912 74.238 L 86.455 77.102 C 86.439 77.200 86.553 77.117 86.455 77.102 L 80.727 76.188 C 80.628 76.172 80.711 76.286 80.727 76.188 L 81.184 73.324 C 81.193 73.269 81.156 73.218 81.101 73.209 L 75.176 72.264 C 75.122 72.255 75.070 72.292 75.062 72.347 L 74.605 75.211 C 74.589 75.309 74.703 75.226 74.605 75.211 L 68.877 74.297 C 68.778 74.281 68.861 74.395 68.877 74.297 L 69.334 71.433 C 69.343 71.378 69.306 71.327 69.251 71.318 L 63.326 70.373 C 63.271 70.364 63.220 70.401 63.211 70.456 L 62.754 73.320 C 62.739 73.418 62.853 73.335 62.754 73.320 L 57.027 72.406 C 56.928 72.390 57.011 72.504 57.027 72.406 L 57.484 69.542 C 57.493 69.487 57.455 69.436 57.401 69.427 L 51.476 68.482 C 51.421 68.473 51.370 68.510 51.361 68.565 L 50.904 71.429 C 50.889 71.527 51.003 71.444 50.904 71.429 L 45.177 70.515 C 45.078 70.499 45.161 70.613 45.177 70.515 L 45.634 67.651 C 45.643 67.596 45.605 67.545 45.551 67.536 L 39.626 66.591 C 39.571 66.582 39.520 66.619 39.511 66.674 L 39.054 69.538 C 39.039 69.636 39.153 69.553 39.054 69.538 L 33.327 68.624 C 33.228 68.608 33.311 68.723 33.327 68.624 L 33.784 65.760 C 33.792 65.705 33.755 65.654 33.701 65.645 L 27.776 64.700 C 27.721 64.691 27.670 64.728 27.661 64.783 L 27.204 67.647 C 27.189 67.746 27.303 67.663 27.204 67.647 L 18.816 66.308 C 18.811 66.307 18.805 66.307 18.800 66.307 C 18.745 66.307 18.700 66.352 18.700 66.407 V 116.407 V 119.407 C 18.700 119.462 18.745 119.507 18.800 119.507 Z" stroke="rgb(0,0,0)" stroke-width="0.20" />
</g>
<g id="p-4" style="fill:none;stroke-linecap:round;stroke-linejoin:round;">
  <path d="M 18.800 64.807 C 18.855 64.807 18.900 64.762 18.900 64.707 V 61.807 C 18.900 61.707 18.800 61.807 18.900 61.807 H 26.700 C 26.800 61.807 26.700 61.707 26.700 61.807 V 64.707 C 26.700 64.762 26.745 64.807 26.800 64.807 H 32.800 C 32.855 64.807 32.900 64.762 32.900 64.707 V 61.807 C 32.900 61.707 32.800 61.807 32.900 61.807 H 38.700 C 38.800 61.807 38.700 61.707 38.700 61.807 V 64.707 C 38.700 64.762 38.745 64.807 38.800 64.807 H 44.800 C 44.855 64.807 44.900 64.762 44.900 64.707 V 61.807 C 44.900 61.707 44.800 61.807 44.900 61.807 H 50.700 C 50.800 61.807 50.700 61.707 50.700 61.807 V 64.707 C 50.700 64.762 50.745 64.807 50.800 64.807 H 56.800 C 56.855 64.807 56.900 64.762 56.900 64.707 V 61.807 C 56.900 61.707 56.800 61.807 56.900 61.807 H 62.700 C 62.800 61.807 62.700 61.707 62.700 61.807 V 64.707 C 62.700 64.762 62.745 64.807 62.800 64.807 H 68.800 C 68.855 64.807 68.900 64.762 68.900 64.707 V 61.807 C 68.900 61.707 68.800 61.807 68.900 61.807 H 74.700 C 74.800 61.807 74.700 61.707 74.700 61.807 V 64.707 C 74.700 64.762 74.745 64.807 74.800 64.807 H 80.800 C 80.855 64.807 80.900 64.762 80.900 64.707 V 61.807 C 80.900 61.707 80.800 61.807 80.900 61.807 H 86.700 C 86.800 61.807 86.700 61.707 86.700 61.807 V 64.707 C 86.700 64.762 86.745 64.807 86.800 64.807 H 92.800 C 92.855 64.807 92.900 64.762 92.900 64.707 V 61.807 C 92.900 61.707 92.800 61.807 92.900 61.807 H 98.700 C 98.800 61.807 98.700 61.707 98.700 61.807 V 64.707 C 98.700 64.762 98.745 64.807 98.800 64.807 H 104.800 C 104.855 64.807 104.900 64.762 104.900 64.707 V 61.807 C 104.900 61.707 104.800 61.807 104.900 61.807 H 112.700 C 112.800 61.807 112.700 61.707 112.700 61.807 V 64.707 C 112.700 64.762 112.745 64.807 112.800 64.807 C 112.855 64.807 112.900 64.762 112.900 64.707 V 61.707 V 26.707 C 112.900 26.652 112.855 26.607 112.800 26.607 C 112.805 26.607 112.811 26.607 112.816 26.608 L 104.427 25.270 C 104.328 25.254 104.411 25.368 104.427 25.270 L 104.884 22.406 C 104.893 22.351 104.856 22.300 104.801 22.291 L 98.876 21.346 C 98.822 21.337 98.770 21.374 98.762 21.429 L 98.305 24.293 C 98.289 24.391 98.403 24.308 98.305 24.293 L 92.577 23.379 C 92.478 23.363 92.561 23.477 92.577 23.379 L 93.034 20.515 C 93.043 20.460 93.006 20.409 92.951 20.400 L 87.026 19.455 C 86.972 19.446 86.920 19.483 86.912 19.538 L 86.455 22.402 C 86.439 22.500 86.553 22.417 86.455 22.402 L 80.727 21.488 C 80.628 21.472 80.711 21.586 80.727 21.488 L 81.184 18.624 C 81.193 18.569 81.156 18.518 81.101 18.509 L 75.176 17.564 C 75.122 17.555 75.070 17.592 75.062 17.647 L 74.605 20.511 C 74.589 20.609 74.703 20.526 74.605 20.511 L 68.877 19.597 C 68.778 19.581 68.861 19.695 68.877 19.597 L 69.334 16.733 C 69.343 16.678 69.306 16.627 69.251 16.618 L 63.326 15.673 C 63.271 15.664 63.220 15.701 63.211 15.756 L 62.754 18.620 C 62.739 18.718 62.853 18.635 62.754 18.620 L 57.027 17.706 C 56.928 17.690 57.011 17.804 57.027 17.706 L 57.484 14.842 C 57.493 14.787 57.455 14.736 57.401 14.727 L 51.476 13.782 C 51.421 13.773 51.370 13.810 51.361 13.865 L 50.904 16.729 C 50.889 16.827 51.003 16.744 50.904 16.729 L 45.177 15.815 C 45.078 15.799 45.161 15.913 45.177 15.815 L 45.634 12.951 C 45.643 12.896 45.605 12.845 45.551 12.836 L 39.626 11.891 C 39.571 11.882 39.520 11.919 39.511 11.974 L 39.054 14.838 C 39.039 14.936 39.153 14.853 39.054 14.838 L 33.327 13.924 C 33.228 13.908 33.311 14.023 33.327 13.924 L 33.784 11.060 C 33.792 11.005 33.755 10.954 33.701 10.945 L 27.776 10.000 C 27.721 9.991 27.670 10.028 27.661 10.083 L 27.204 12.947 C 27.189 13.046 27.303 12.963 27.204 12.947 L 18.816 11.608 C 18.811 11.607 18.805 11.607 18.800 11.607 C 18.745 11.607 18.700 11.652 18.700 11.707 V 61.707 V 64.707 C 18.700 64.762 18.745 64.807 18.800 64.807 Z" stroke="rgb(0,0,0)" stroke-width="0.20" />
</g>
</svg>